<?xml version="1.0" encoding="UTF-8"?><svg id="a" xmlns="http://www.w3.org/2000/svg" viewBox="0 0 2564.9 2563.91"><path d="M1465.82,46.32c13.62,8.37,27.62,17.21,42,26.5l30,24c44.17,43.01,87.84,86.51,131,130.5,.33,1,1,1.67,2,2,221,221.67,442.33,443,664,664-49.87,14.76-68.03,47.43-54.5,98,8.88,18.87,23.38,31.37,43.5,37.5,31.62,8.22,58.45,.39,80.5-23.5,6.23-9.22,10.4-19.22,12.5-30,13.3,14.13,27.13,27.8,41.5,41,28.48,30.96,51.98,65.29,70.5,103,36.46,80.25,45.29,163.59,26.5,250-5.77,26.49-14.61,51.83-26.5,76-13.87,27.7-30.37,53.7-49.5,78-19.61,22.78-40.44,44.44-62.5,65,.17-141,0-282-.5-423-7.1-46.76-34.26-68.93-81.5-66.5-30.6,5.93-49.43,24.09-56.5,54.5-1,6.33-2,12.67-3,19-.67,141-.67,282,0,423,.46,19.01,5.46,36.68,15,53,10.1,13.62,23.26,22.62,39.5,27-158.39,158.72-316.72,317.39-475,476-6.61,4.94-12.61,10.61-18,17-4.67,4-9,8.33-13,13-8,7.33-15.67,15-23,23-5,4.33-9.67,9-14,14-8.33,7.67-16.33,15.67-24,24-5.33,4.67-10.33,9.67-15,15-7.67,7-15,14.33-22,22-4,3.33-7.67,7-11,11-9,8.33-17.67,17-26,26-4.33,3.67-8.33,7.67-12,12-7.33,6.67-14.33,13.67-21,21-1,.33-1.67,1-2,2-39.83,39.66-79.83,79.16-120,118.5-12.38,10.05-25.05,19.72-38,29-17.27,10.13-34.6,19.96-52,29.5-67.03,30.73-137.37,41.56-211,32.5-39.47-4.78-77.14-15.62-113-32.5-38.93-19.3-74.26-43.8-106-73.5-34.53-34.37-68.87-68.87-103-103.5-224.67-225-449.33-450-674-675,43.53-2.36,67.37-25.36,71.5-69,1.32-180.65,1.98-361.32,2-542,45.38,180.84,91.38,361.5,138,542,20.77,58.47,61.27,79.64,121.5,63.5,22.56-10.23,38.73-26.73,48.5-49.5,6.62-20.49,12.62-41.15,18-62,41.33-163.64,82.49-327.31,123.5-491,.67,173.67,1.33,347.33,2,521-.72,21.58,4.45,41.58,15.5,60,18.33,22.33,41.83,30.83,70.5,25.5,23.32-4.91,39.49-18.41,48.5-40.5,2.63-7.84,4.63-15.84,6-24,1.66-212.98,1.99-425.98,1-639-2.05-37.71-21.55-60.21-58.5-67.5-5.98-1.09-11.98-2.09-18-3-31.33-.67-62.67-.67-94,0-18.27,.06-34.93,5.06-50,15-9.74,9.31-16.58,20.48-20.5,33.5-4.4,12.54-8.4,25.21-12,38-37.57,143.94-75.9,287.61-115,431-38.18-144.38-76.51-288.71-115-433-5.03-19.75-12.03-38.75-21-57-10.25-14.72-24.42-23.22-42.5-25.5-7.01-.61-14.01-1.27-21-2-33.69-.92-67.35-.59-101,1-6.16,.93-12.16,2.43-18,4.5,4.33-4.67,8.67-9.33,13-14,.74,.13,1.41-.04,2-.5,177.54-177.7,355.2-355.2,533-532.5,.74,.13,1.41-.04,2-.5,6.93-6.42,13.26-13.26,19-20.5,3.33-4,7-7.67,11-11,9.91-8.41,19.41-17.41,28.5-27,.46-.59,.63-1.26,.5-2,17-17.67,34.33-35,52-52,7.33-5.33,13.67-11.67,19-19,43.49-44.33,87.49-88.16,132-131.5,10.71-9.05,21.71-17.71,33-26,12.4-7.86,24.73-15.69,37-23.5C1190.51-1.43,1286.51-12.26,1386.82,13.82c27.58,8.14,53.92,18.97,79,32.5Z" style="fill:#bc00b0; fill-rule:evenodd;"/><path d="M1098.82,46.32c-12.27,7.81-24.6,15.64-37,23.5-11.29,8.29-22.29,16.95-33,26-44.51,43.34-88.51,87.17-132,131.5h-1c-117-.17-234,0-351,.5-69.6,1.87-132.27,23.2-188,64-47.94,37.67-83.44,84.84-106.5,141.5-5.55,15.39-10.21,31.06-14,47-2.37,14.62-4.37,29.28-6,44-.5,122.67-.67,245.33-.5,368-4.33,4.67-8.67,9.33-13,14-24.8,6.47-40.14,22.14-46,47-7.03,6.69-14.03,13.36-21,20-6,5.33-11.67,11-17,17-34.18,31.42-62.84,67.09-86,107-.49-238.35,.01-476.68,1.5-715,15.96-123.19,76.13-217.69,180.5-283.5,47.64-27.99,98.97-44.99,154-51,238.65-1.49,477.32-1.99,716-1.5Z" style="fill-rule:evenodd; isolation:isolate; opacity:1;"/><path d="M1465.82,46.32c242.35-.49,484.68,.01,727,1.5,111.18,13.81,200.02,65.31,266.5,154.5,38.27,53.92,60.94,113.92,68,180,1.49,245.65,1.99,491.32,1.5,737-18.52-37.71-42.02-72.04-70.5-103-14.37-13.2-28.2-26.87-41.5-41,5.13-41.61-12.2-68.45-52-80.5-3.99-.64-7.99-1.14-12-1.5,.33-116.84,0-233.5-1-350-.17-12.01-.67-24.01-1.5-36-3.83-20.15-8.16-40.15-13-60-43.26-114.24-124.42-185.74-243.5-214.5-18.93-2.4-37.93-3.9-57-4.5-122.5-1-245.17-1.33-368-1-43.16-43.99-86.83-87.49-131-130.5l-30-24c-14.38-9.29-28.38-18.13-42-26.5Z" style="fill-rule:evenodd; isolation:isolate; opacity:1;"/><path d="M1668.82,227.32c122.83-.33,245.5,0,368,1-122.17-.33-244.17,0-366,1-1-.33-1.67-1-2-2Z" style="fill:#8b0000; fill-rule:evenodd;"/><path d="M895.82,227.32c-6,6.33-12,12.67-18,19-17.67,17-35,34.33-52,52-10,9.33-19.67,19-29,29-4,3.33-7.67,7-11,11-7.33,6.67-14.33,13.67-21,21-177.8,177.3-355.46,354.8-533,532.5-.59,.46-1.26,.63-2,.5-.17-122.67,0-245.33,.5-368,1.63-14.72,3.63-29.38,6-44,3.79-15.94,8.45-31.61,14-47,23.06-56.66,58.56-103.83,106.5-141.5,55.73-40.8,118.4-62.13,188-64,117-.5,234-.67,351-.5Z" style="fill:#fe7b01; fill-rule:evenodd;"/><path d="M2036.82,228.32c19.07,.6,38.07,2.1,57,4.5,119.08,28.76,200.24,100.26,243.5,214.5,4.84,19.85,9.17,39.85,13,60,.83,11.99,1.33,23.99,1.5,36v349c-2.89-.31-5.55,.03-8,1h-9c-221.67-221-443-442.33-664-664,121.83-1,243.83-1.33,366-1Z" style="fill:#cd0000; fill-rule:evenodd;"/><path d="M895.82,227.32h1c-5.33,7.33-11.67,13.67-19,19,6-6.33,12-12.67,18-19Z" style="fill:#c91a8f; fill-rule:evenodd;"/><path d="M825.82,298.32c.13,.74-.04,1.41-.5,2-9.09,9.59-18.59,18.59-28.5,27,9.33-10,19-19.67,29-29Z" style="fill:#c81991; fill-rule:evenodd;"/><path d="M785.82,338.32c-5.74,7.24-12.07,14.08-19,20.5-.59,.46-1.26,.63-2,.5,6.67-7.33,13.67-14.33,21-21Z" style="fill:#c81990; fill-rule:evenodd;"/><path d="M2351.82,543.32c1,116.5,1.33,233.16,1,350h-9c2.45-.97,5.11-1.31,8-1v-349Z" style="fill:#930201; fill-rule:evenodd;"/><path d="M2334.82,893.32h18c4.01,.36,8.01,.86,12,1.5,39.8,12.05,57.13,38.89,52,80.5-2.1,10.78-6.27,20.78-12.5,30-22.05,23.89-48.88,31.72-80.5,23.5-20.12-6.13-34.62-18.63-43.5-37.5-13.53-50.57,4.63-83.24,54.5-98Z" style="fill:#fefefe; fill-rule:evenodd;"/><path d="M761.82,1589.32c.17-175.33,0-350.67-.5-526-.35,1.75-.85,3.41-1.5,5-41.01,163.69-82.17,327.36-123.5,491-5.38,20.85-11.38,41.51-18,62-9.77,22.77-25.94,39.27-48.5,49.5-60.23,16.14-100.73-5.03-121.5-63.5-46.62-180.5-92.62-361.16-138-542-.02,180.68-.68,361.35-2,542-4.13,43.64-27.97,66.64-71.5,69h-7c-37.27-7.06-57.6-29.73-61-68-1.16-212.65-1.33-425.32-.5-638,.43-5.75,1.27-11.41,2.5-17,5.86-24.86,21.2-40.53,46-47,5.84-2.07,11.84-3.57,18-4.5,33.65-1.59,67.31-1.92,101-1,6.99,.73,13.99,1.39,21,2,18.08,2.28,32.25,10.78,42.5,25.5,8.97,18.25,15.97,37.25,21,57,38.49,144.29,76.82,288.62,115,433,39.1-143.39,77.43-287.06,115-431,3.6-12.79,7.6-25.46,12-38,3.92-13.02,10.76-24.19,20.5-33.5,15.07-9.94,31.73-14.94,50-15,31.33-.67,62.67-.67,94,0,6.02,.91,12.02,1.91,18,3,36.95,7.29,56.45,29.79,58.5,67.5,.99,213.02,.66,426.02-1,639-1.37,8.16-3.37,16.16-6,24-9.01,22.09-25.18,35.59-48.5,40.5-28.67,5.33-52.17-3.17-70.5-25.5-11.05-18.42-16.22-38.42-15.5-60Z" style="fill:#fefefe; fill-rule:evenodd;"/><path d="M1711.82,900.32c134.33-.17,268.67,0,403,.5,37.85,5.57,56.02,27.41,54.5,65.5-2.64,25.3-16.14,41.46-40.5,48.5-7.24,1.85-14.57,3.18-22,4-104.67,.5-209.33,.67-314,.5v195c88-.17,176,0,264,.5,47.45,4.79,66.61,30.62,57.5,77.5-7.3,19.92-21.47,31.75-42.5,35.5-5.3,.93-10.63,1.6-16,2-88,.5-176,.67-264,.5,.17,89,0,178-.5,267-5.24,57.24-36.4,83.08-93.5,77.5-34.98-9.99-54.48-33.16-58.5-69.5-1.65-208.98-1.99-417.98-1-627,2.85-46.68,27.35-72.68,73.5-78Z" style="fill:#fefefe; fill-rule:evenodd;"/><path d="M170.82,953.32c-1.23,5.59-2.07,11.25-2.5,17-.83,212.68-.66,425.35,.5,638-22.96-22.47-45.8-45.13-68.5-68-20.62-23.24-38.29-48.57-53-76-.46,.59-.63,1.26-.5,2C-1.04,1375.12-12.21,1279.46,13.32,1179.32c8.35-28.55,19.51-55.89,33.5-82,23.16-39.91,51.82-75.58,86-107,6.67-4.67,12.33-10.33,17-17,6.97-6.64,13.97-13.31,21-20Z" style="fill:#bc02b0; fill-rule:evenodd; isolation:isolate; opacity:.99;"/><path d="M149.82,973.32c-4.67,6.67-10.33,12.33-17,17,5.33-6,11-11.67,17-17Z" style="fill:#810079; fill-rule:evenodd;"/><path d="M761.82,1589.32c-.67-173.67-1.33-347.33-2-521,.65-1.59,1.15-3.25,1.5-5,.5,175.33,.67,350.67,.5,526Z" style="fill:#d35acb; fill-rule:evenodd;"/><path d="M1065.82,1098.32c15.98-1.34,30.98,1.83,45,9.5,5.17,3.83,9.67,8.33,13.5,13.5,6.09,9.18,11.43,18.85,16,29,43.39,124.18,86.39,248.52,129,373,40.06-112.85,79.73-225.85,119-339,7.92-23.5,18.25-45.84,31-67,11.5-13.51,26.17-19.84,44-19,35.02,1.83,56.35,19.83,64,54,.67,3.33,.67,6.67,0,10-4.78,21.68-10.78,43.01-18,64-63.86,166.59-127.53,333.26-191,500-11.2,29.06-24.53,57.06-40,84-31.13,47.35-75.3,72.52-132.5,75.5-29.07,2.36-58.07,1.69-87-2-16.58-2.19-32.25-7.19-47-15-12.14-8.78-19.31-20.61-21.5-35.5-2.36-38.48,15.81-58.48,54.5-60,12.86,.47,25.53,2.31,38,5.5,16.04,1.68,31.71,.01,47-5,9.97-4.63,18.14-11.47,24.5-20.5,17.13-28.88,31.3-59.21,42.5-91-59.61-151.89-119.78-303.55-180.5-455-5.47-13.69-8.97-27.86-10.5-42.5,2.99-29.34,17.99-50,45-62,5.08-1.68,10.08-3.18,15-4.5Z" style="fill:#fefefe; fill-rule:evenodd;"/><path d="M2416.82,1588.32c1.45,21.59-3.38,41.59-14.5,60-12.66,16.24-29.16,25.57-49.5,28-7.69,.04-15.35-.29-23-1-16.24-4.38-29.4-13.38-39.5-27-9.54-16.32-14.54-33.99-15-53-.67-141-.67-282,0-423,1-6.33,2-12.67,3-19,7.07-30.41,25.9-48.57,56.5-54.5,47.24-2.43,74.4,19.74,81.5,66.5,.5,141,.67,282,.5,423Z" style="fill:#fefefe; fill-rule:evenodd;"/><path d="M2528.82,1445.32c.17,245.33,0,490.67-.5,736-13.25,130.42-75.41,229.59-186.5,297.5-46.29,26.33-95.96,42.33-149,48-249.65,1.49-499.32,1.99-749,1.5,17.4-9.54,34.73-19.37,52-29.5,12.95-9.28,25.62-18.95,38-29,40.17-39.34,80.17-78.84,120-118.5,128.17,.33,256.17,0,384-1,15.73-.29,31.4-1.46,47-3.5,13.21-3.63,26.54-6.63,40-9,12.59-4.08,24.92-8.75,37-14,14.25-7.96,28.59-15.62,43-23,12.6-9.12,24.93-18.45,37-28,49.81-44.21,83.64-98.71,101.5-163.5,2.33-12.98,4.66-25.98,7-39,.67-11.33,1.33-22.67,2-34,.5-120,.67-240,.5-360,20.34-2.43,36.84-11.76,49.5-28,11.12-18.41,15.95-38.41,14.5-60,22.06-20.56,42.89-42.22,62.5-65,19.13-24.3,35.63-50.3,49.5-78Z" style="fill-rule:evenodd; isolation:isolate; opacity:1;"/><path d="M168.82,1608.32c3.4,38.27,23.73,60.94,61,68-.17,119.67,0,239.33,.5,359,.33,9.33,.67,18.67,1,28,2.33,12.96,4.33,25.96,6,39,18.07,70.58,54.57,129.08,109.5,175.5,4.86,1.52,8.52,4.52,11,9,7.57,5.52,15.23,10.85,23,16,14.24,6.79,28.24,14.12,42,22,39.02,15.92,79.69,24.59,122,26,122,.5,244,.67,366,.5,34.13,34.63,68.47,69.13,103,103.5,31.74,29.7,67.07,54.2,106,73.5-245.68,.49-491.35-.01-737-1.5-121.02-15.38-214.52-73.88-280.5-175.5-31.96-52.54-50.29-109.54-55-171-.5-238-.67-476-.5-714-.13-.74,.04-1.41,.5-2,14.71,27.43,32.38,52.76,53,76,22.7,22.87,45.54,45.53,68.5,68Z" style="fill-rule:evenodd; isolation:isolate; opacity:1;"/><path d="M2329.82,1675.32c7.65,.71,15.31,1.04,23,1,.17,120,0,240-.5,360-.67,11.33-1.33,22.67-2,34-2.34,13.02-4.67,26.02-7,39-17.86,64.79-51.69,119.29-101.5,163.5-12.07,9.55-24.4,18.88-37,28-14.41,7.38-28.75,15.04-43,23-12.08,5.25-24.41,9.92-37,14-13.46,2.37-26.79,5.37-40,9-15.6,2.04-31.27,3.21-47,3.5-127.5,.33-254.83,0-382-1,.74,.13,1.41-.04,2-.5,6.93-6.42,13.26-13.26,19-20.5,3.67-4.33,7.67-8.33,12-12,8.91-7.41,17.41-15.41,25.5-24,.46-.59,.63-1.26,.5-2,3.33-4,7-7.67,11-11,.74,.13,1.41-.04,2-.5,7.26-6.76,13.93-13.92,20-21.5,4.67-5.33,9.67-10.33,15-15,8.24-6.74,16.08-14.07,23.5-22,.46-.59,.63-1.26,.5-2,4.33-5,9-9.67,14-14,.74,.13,1.41-.04,2-.5,7.59-7.09,14.59-14.59,21-22.5,4-4.67,8.33-9,13-13,6.61-4.94,12.61-10.61,18-17,158.28-158.61,316.61-317.28,475-476Z" style="fill:#00bb16; fill-rule:evenodd;"/><path d="M229.82,1676.32h7c224.67,225,449.33,450,674,675-122,.17-244,0-366-.5-42.31-1.41-82.98-10.08-122-26-13.76-7.88-27.76-15.21-42-22-7.77-5.15-15.43-10.48-23-16-2.48-4.48-6.14-7.48-11-9-54.93-46.42-91.43-104.92-109.5-175.5-1.67-13.04-3.67-26.04-6-39-.33-9.33-.67-18.67-1-28-.5-119.67-.67-239.33-.5-359Z" style="fill:#0025fe; fill-rule:evenodd;"/><path d="M1854.82,2151.32c-5.39,6.39-11.39,12.06-18,17,5.39-6.39,11.39-12.06,18-17Z" style="fill:#379938; fill-rule:evenodd;"/><path d="M1823.82,2181.32c-6.41,7.91-13.41,15.41-21,22.5-.59,.46-1.26,.63-2,.5,7.33-8,15-15.67,23-23Z" style="fill:#379838; fill-rule:evenodd;"/><path d="M1786.82,2218.32c.13,.74-.04,1.41-.5,2-7.42,7.93-15.26,15.26-23.5,22,7.67-8.33,15.67-16.33,24-24Z" style="fill:#359b36; fill-rule:evenodd;"/><path d="M1747.82,2257.32c-6.07,7.58-12.74,14.74-20,21.5-.59,.46-1.26,.63-2,.5,7-7.67,14.33-15,22-22Z" style="fill:#379938; fill-rule:evenodd;"/><path d="M1714.82,2290.32c.13,.74-.04,1.41-.5,2-8.09,8.59-16.59,16.59-25.5,24,8.33-9,17-17.67,26-26Z" style="fill:#369838; fill-rule:evenodd;"/><path d="M1676.82,2328.32c-5.74,7.24-12.07,14.08-19,20.5-.59,.46-1.26,.63-2,.5,6.67-7.33,13.67-14.33,21-21Z" style="fill:#379739; fill-rule:evenodd;"/><path d="M1655.82,2349.32c127.17,1,254.5,1.33,382,1-127.83,1-255.83,1.33-384,1,.33-1,1-1.67,2-2Z" style="fill:#01a713; fill-rule:evenodd;"/></svg>