<?xml version="1.0" encoding="UTF-8"?><svg id="a" xmlns="http://www.w3.org/2000/svg" viewBox="0 0 2475 1650"><rect width="2475" height="1650" style="fill:#fff;"/><g><path d="M1849.27,463.59c-14.31,0-25.91-11.61-25.91-25.92s11.61-25.91,25.91-25.91,25.92,11.6,25.92,25.91-11.6,25.92-25.92,25.92h0ZM748.79,1084.97h-138.47c-74.52,0-135.5,60.98-135.5,135.5h0c0,74.52,60.98,135.5,135.5,135.5H1781.19c120.68,0,219.41-98.74,219.41-219.41h0c0-120.68-98.73-219.42-219.41-219.43h0c-51.03,0-92.77-41.75-92.77-92.78h0c0-51.02,41.74-92.77,92.77-92.77h111.65c53.05,0,96.45-43.4,96.45-96.45h0c0-53.06-43.4-96.46-96.45-96.46h-141.19c-20.66,0-37.55-16.9-37.55-37.55h0c0-20.66,16.89-37.55,37.55-37.55h24.88c14.26,0,25.92-11.66,25.92-25.92h0c0-14.26-11.66-25.91-25.92-25.91h-163.31c-34.4,0-38.22,40.63-125.1,40.63h-201.46c-18.59,0-33.82,15.22-33.82,33.82h0c0,18.59,15.22,33.82,33.82,33.82h32.48c26.95,0,49,22.05,49,49h0c0,26.95-22.06,49-49,49h-97.74c-131.98,0-150.62,34.49-173.74,103.1-23.12,68.59-143.17,74.12-143.17,74.12h-164.15c-40.61,0-73.84,33.23-73.84,73.84h0c0,40.62,33.23,73.84,73.84,73.84h8.45c39.06,0,71.03,31.96,71.03,71.02h0c0,39.07-31.96,71.02-71.03,71.02h0Z" style="fill:#e9eef7; fill-rule:evenodd;"/><path d="M1257.72,1493.67c373.38,0,677.9-12.12,677.9-26.98s-304.52-26.99-677.9-26.99-677.9,12.12-677.9,26.99,304.52,26.98,677.9,26.98Z" style="fill:#d1deed; fill-rule:evenodd;"/><g><g><path d="M1275.53,1458.89c253.39,0,460.06-206.66,460.06-460.05s-206.67-460.06-460.06-460.06-460.05,206.66-460.05,460.06,206.66,460.05,460.05,460.05Z" style="fill:#f6f6f6; fill-rule:evenodd;"/><g><path d="M1275.53,773.94c62.1,0,118.33,25.17,159.03,65.87,40.7,40.7,65.87,96.93,65.87,159.03s-25.17,118.33-65.87,159.03c-40.7,40.69-96.92,65.87-159.03,65.87s-118.32-25.17-159.02-65.87c-40.7-40.7-65.87-96.93-65.87-159.03s25.17-118.33,65.87-159.03c40.7-40.69,96.92-65.87,159.02-65.87h0Zm155.15,69.75c-39.71-39.71-94.56-64.26-155.15-64.26s-115.44,24.56-155.14,64.26c-39.7,39.71-64.26,94.56-64.26,155.14s24.56,115.44,64.26,155.14c39.71,39.71,94.56,64.26,155.14,64.26s115.44-24.56,155.15-64.26c39.7-39.71,64.26-94.56,64.26-155.14s-24.56-115.44-64.26-155.14Z" style="fill:#a3cffb; fill-rule:evenodd;"/><path d="M1275.53,737.66c144.25,0,261.19,116.94,261.19,261.18,0,72.12-29.24,137.42-76.51,184.68-47.25,47.27-112.56,76.5-184.68,76.5s-137.42-29.23-184.68-76.5c-47.26-47.26-76.5-112.56-76.5-184.68,0-144.24,116.94-261.18,261.18-261.18h0Zm255.7,261.18c0-141.21-114.48-255.69-255.7-255.69s-255.69,114.48-255.69,255.69c0,70.61,28.62,134.53,74.89,180.8,46.27,46.27,110.19,74.89,180.8,74.89s134.54-28.62,180.8-74.89c46.27-46.27,74.89-110.19,74.89-180.8Z" style="fill:#a3cffb; fill-rule:evenodd;"/><rect x="1273.08" y="742.31" width="4.92" height="32.51" style="fill:#a3cffb;"/><rect x="1379.42" y="788.29" width="32.51" height="4.92" transform="translate(13.39 1604.69) rotate(-60.03)" style="fill:#a3cffb;"/><rect x="1467.37" y="876.24" width="32.51" height="4.92" transform="translate(-240.6 861.01) rotate(-30.05)" style="fill:#a3cffb;"/><rect x="1499.56" y="996.38" width="32.51" height="4.91" style="fill:#a3cffb;"/><rect x="1481.16" y="1102.72" width="4.91" height="32.51" transform="translate(-227.87 1842.88) rotate(-59.95)" style="fill:#a3cffb;"/><rect x="1393.22" y="1190.67" width="4.91" height="32.51" transform="translate(-416.35 858.88) rotate(-29.98)" style="fill:#a3cffb;"/><rect x="1273.08" y="1222.86" width="4.92" height="32.51" style="fill:#a3cffb;"/><rect x="1139.14" y="1204.47" width="32.51" height="4.92" transform="translate(-467.23 1605.28) rotate(-60.04)" style="fill:#a3cffb;"/><rect x="1051.19" y="1116.52" width="32.51" height="4.91" transform="translate(-416.54 683.86) rotate(-30.01)" style="fill:#a3cffb;"/><rect x="1019" y="996.38" width="32.51" height="4.91" style="fill:#a3cffb;"/><rect x="1064.99" y="862.44" width="4.92" height="32.51" transform="translate(-227.32 1363.59) rotate(-59.99)" style="fill:#a3cffb;"/><rect x="1152.94" y="774.5" width="4.92" height="32.51" transform="translate(-240.49 682.47) rotate(-29.95)" style="fill:#a3cffb;"/></g><g><path d="M1275.53,630.17c101.8,0,193.98,41.26,260.69,107.98,66.71,66.71,107.98,158.88,107.98,260.69s-41.27,193.98-107.98,260.69c-66.72,66.72-158.89,107.98-260.69,107.98s-193.97-41.26-260.69-107.98c-66.71-66.71-107.98-158.88-107.98-260.69s41.26-193.97,107.98-260.69c66.72-66.72,158.88-107.98,260.69-107.98h0Zm258.75,109.92c-66.22-66.22-157.7-107.17-258.75-107.17s-192.52,40.96-258.74,107.17c-66.22,66.22-107.17,157.7-107.17,258.75s40.96,192.53,107.17,258.75c66.22,66.21,157.7,107.17,258.74,107.17s192.53-40.96,258.75-107.17c66.22-66.21,107.18-157.7,107.18-258.75s-40.95-192.52-107.18-258.75Z" style="fill:#619fdf; fill-rule:evenodd;"/><path d="M1275.53,612.03c106.81,0,203.52,43.29,273.52,113.29,70,70,113.29,166.7,113.29,273.52s-43.29,203.52-113.29,273.52c-70,69.99-166.71,113.29-273.52,113.29s-203.51-43.29-273.51-113.29c-70-70-113.29-166.71-113.29-273.52s43.29-203.52,113.29-273.52c70-69.99,166.7-113.29,273.51-113.29h0Zm271.58,115.23c-69.51-69.51-165.52-112.49-271.58-112.49s-202.07,42.99-271.57,112.49c-69.5,69.5-112.49,165.52-112.49,271.57s42.99,202.07,112.49,271.57c69.5,69.51,165.52,112.49,271.57,112.49s202.07-42.98,271.58-112.49c69.5-69.5,112.49-165.51,112.49-271.57s-42.99-202.07-112.49-271.57Z" style="fill:#619fdf; fill-rule:evenodd;"/><path d="M1563.2,968.39c.72,0,2.18,.09,4.38,.27,1.68,.14,3.01,.2,4,.2l9.31-.46c.78,0,1.18,.41,1.18,1.23,0,.74-.35,1.16-1.06,1.29-1.6,.25-2.67,.68-3.21,1.34-.54,.66-.95,2.16-1.24,4.52-.3,2.38-.44,7.7-.44,16.04,0,9.56,.1,16.97,.31,22.19,.2,5.22,.6,8.44,1.23,9.67,.62,1.22,1.66,1.84,3.1,1.84,1.01,0,1.5,.4,1.5,1.19,0,1.07-.54,1.6-1.61,1.6-.3,0-.75-.01-1.34-.05-3.81-.4-6.41-.6-7.81-.6-3.05,0-5.32,.12-6.77,.39-.77,.1-1.31,.17-1.63,.17-.76,0-1.13-.44-1.13-1.3,0-.68,.3-1.09,.93-1.21,1.71-.34,2.86-1.05,3.46-2.15,.59-1.1,.95-3.77,1.07-7.97,.12-4.21,.19-10.73,.19-19.61,0-9.34-.12-15.6-.33-18.77-.23-3.15-.6-5.09-1.11-5.82-.5-.73-1.49-1.18-2.93-1.37-.76-.09-1.16-.56-1.16-1.41,0-.79,.38-1.2,1.12-1.2h0Zm23.92,0c.72,0,2.17,.09,4.38,.27,1.67,.14,3.01,.2,4,.2l9.3-.46c.79,0,1.18,.41,1.18,1.23,0,.74-.36,1.16-1.07,1.29-1.6,.25-2.66,.68-3.2,1.34-.54,.66-.95,2.16-1.24,4.52-.3,2.38-.45,7.7-.45,16.04,0,9.56,.11,16.97,.31,22.19,.2,5.22,.62,8.44,1.23,9.67,.62,1.22,1.65,1.84,3.1,1.84,1,0,1.5,.4,1.5,1.19,0,1.07-.54,1.6-1.61,1.6-.3,0-.74-.01-1.34-.05-3.81-.4-6.41-.6-7.8-.6-3.06,0-5.32,.12-6.78,.39-.76,.1-1.31,.17-1.63,.17-.75,0-1.13-.44-1.13-1.3,0-.68,.31-1.09,.93-1.21,1.72-.34,2.87-1.05,3.47-2.15,.59-1.1,.94-3.77,1.06-7.97,.12-4.21,.19-10.73,.19-19.61,0-9.34-.12-15.6-.33-18.77-.22-3.15-.59-5.09-1.1-5.82-.51-.73-1.49-1.18-2.93-1.37-.77-.09-1.15-.56-1.15-1.41,0-.79,.36-1.2,1.11-1.2h0Zm23.92,0c.71,0,2.17,.09,4.37,.27,1.68,.14,3.01,.2,4,.2l9.31-.46c.79,0,1.18,.41,1.18,1.23,0,.74-.36,1.16-1.07,1.29-1.61,.25-2.67,.68-3.2,1.34-.55,.66-.96,2.16-1.25,4.52-.3,2.38-.44,7.7-.44,16.04,0,9.56,.11,16.97,.31,22.19,.2,5.22,.61,8.44,1.23,9.67,.62,1.22,1.66,1.84,3.1,1.84,1.01,0,1.5,.4,1.5,1.19,0,1.07-.54,1.6-1.61,1.6-.3,0-.75-.01-1.34-.05-3.81-.4-6.41-.6-7.81-.6-3.05,0-5.32,.12-6.78,.39-.76,.1-1.31,.17-1.63,.17-.76,0-1.13-.44-1.13-1.3,0-.68,.31-1.09,.93-1.21,1.72-.34,2.87-1.05,3.46-2.15,.6-1.1,.95-3.77,1.07-7.97,.12-4.21,.18-10.73,.18-19.61,0-9.34-.11-15.6-.33-18.77-.23-3.15-.59-5.09-1.11-5.82-.5-.73-1.48-1.18-2.93-1.37-.76-.09-1.15-.56-1.15-1.41,0-.79,.38-1.2,1.12-1.2Z" style="fill:#4f8dcb; fill-rule:evenodd;"/><path d="M1265.22,1350.19h-2.46l-5.56-21.78c-1.38-5.5-3.15-12.22-5.27-20.17-2.13-7.94-3.5-12.57-4.12-13.87-.61-1.3-1.17-2.15-1.68-2.57-.49-.41-1.26-.7-2.28-.82-.65-.03-.99-.43-.99-1.21,0-.86,.38-1.3,1.15-1.3l8.21,.46c2.84,0,5.67-.12,8.46-.39,.78-.05,1.24-.07,1.39-.07,.97,0,1.46,.49,1.46,1.5,0,.66-.44,1.08-1.31,1.24-2.3,.41-3.46,1.96-3.46,4.64,0,4.63,2.66,17.16,7.97,37.54,1.77-6.68,3.46-13.44,5.08-20.23l2.96-12.47c.34-1.52,.52-2.98,.52-4.36s-.33-2.63-1-3.64c-.65-.99-1.4-1.5-2.23-1.53-.93-.07-1.39-.46-1.39-1.24,0-.97,.38-1.45,1.12-1.45,.57,0,1.28,.04,2.13,.14,1.71,.22,3.27,.33,4.63,.33,1.44,0,2.7-.09,3.82-.28,.83-.12,1.53-.18,2.06-.18,.71,0,1.06,.46,1.06,1.39,0,.77-.35,1.23-1.06,1.39-1.07,.23-1.99,.78-2.76,1.64-.77,.86-1.53,2.23-2.26,4.14-.73,1.89-1.97,6.17-3.67,12.85l-5.36,20.82c-2.56,10.17-4.29,16.65-5.17,19.47h0Zm23.93-61.35c.72,0,2.17,.09,4.38,.26,1.67,.14,3.01,.2,4,.2l9.3-.46c.79,0,1.18,.4,1.18,1.23,0,.74-.36,1.16-1.07,1.28-1.6,.25-2.67,.68-3.21,1.34-.54,.67-.94,2.17-1.23,4.53-.31,2.37-.45,7.7-.45,16.04,0,9.56,.11,16.96,.32,22.18,.19,5.22,.6,8.45,1.23,9.67,.62,1.23,1.66,1.84,3.1,1.84,1,0,1.5,.41,1.5,1.19,0,1.07-.54,1.6-1.61,1.6-.3,0-.74-.01-1.33-.04-3.81-.41-6.41-.61-7.81-.61-3.05,0-5.32,.13-6.78,.39-.76,.11-1.32,.17-1.63,.17-.75,0-1.13-.43-1.13-1.3,0-.68,.31-1.08,.93-1.21,1.72-.34,2.87-1.05,3.47-2.16,.59-1.1,.94-3.76,1.06-7.96,.13-4.21,.19-10.74,.19-19.62,0-9.34-.12-15.6-.33-18.76-.23-3.16-.59-5.1-1.1-5.83-.51-.73-1.49-1.18-2.93-1.37-.77-.09-1.15-.55-1.15-1.41,0-.79,.36-1.19,1.11-1.19Z" style="fill:#4f8dcb; fill-rule:evenodd;"/><path d="M1253.19,669.84c4.37-8.12,6.57-13.2,6.57-15.24,0-1.05-.23-1.87-.69-2.48-.46-.62-1.39-1.15-2.77-1.61-.65-.19-.97-.65-.97-1.41s.38-1.19,1.15-1.19c.46,0,1.23,.06,2.34,.2,1.51,.17,2.79,.27,3.85,.27,1.45,0,3.36-.11,5.72-.31,1.11-.11,1.8-.15,2.05-.15,.97,0,1.46,.43,1.46,1.31,0,.81-.37,1.23-1.13,1.29-1.39,.06-2.78,.68-4.19,1.87-1.42,1.19-2.72,2.82-3.91,4.87-1.19,2.06-3.89,7.18-8.09,15.31,2.3,5.85,4.97,12.03,8.01,18.56,3.04,6.51,5.29,10.55,6.79,12.1,1.5,1.55,2.81,2.42,3.94,2.6,.95,.15,1.42,.6,1.42,1.35,0,.84-.49,1.26-1.45,1.26l-11.18-.46c-1.46,0-2.91,.06-4.34,.18-1.25,.08-2.06,.14-2.43,.17-.86-.02-1.4,0-1.61,.03-.3,.04-.52,.08-.69,.08-.59,0-.88-.42-.88-1.28,0-.75,.34-1.19,1.02-1.28,2.2-.3,3.3-1.45,3.3-3.44,0-2.29-2.48-8.69-7.44-19.14-5.29,10.26-7.94,16.37-7.94,18.38,0,2.14,1.61,3.56,4.84,4.26,.71,.15,1.06,.54,1.06,1.16,0,.9-.36,1.35-1.08,1.35-.36,0-1.26-.07-2.76-.2-1.79-.17-3.59-.26-5.39-.26-1.7,0-3.01,.06-3.96,.18-1.21,.19-2.02,.28-2.42,.28-1.17,0-1.76-.46-1.76-1.39,0-.68,.31-1.09,.94-1.21,1.83-.37,3.29-1.02,4.38-1.95,1.08-.94,2.4-2.86,3.96-5.76,1.56-2.9,4.51-8.77,8.83-17.61-5.12-12.55-8.7-20.56-10.71-24-2-3.44-4.11-5.4-6.31-5.88-.81-.19-1.21-.65-1.21-1.39,0-.87,.37-1.3,1.11-1.3,.4,0,.91,.06,1.58,.17,1.29,.2,4.09,.3,8.39,.3,1.8,0,3.97-.09,6.51-.28,1.53-.12,2.42-.18,2.67-.18,1.09,0,1.64,.41,1.64,1.25s-.44,1.29-1.31,1.35c-.51,.06-1.17,.31-2,.74-.83,.45-1.24,1.13-1.24,2.08,0,.86,.42,2.37,1.28,4.58,.84,2.19,2.52,6.17,5.04,11.94h0Zm25.41-21.93c.71,0,2.17,.09,4.37,.26,1.68,.14,3.01,.2,4.01,.2l9.3-.46c.79,0,1.18,.4,1.18,1.22,0,.74-.36,1.16-1.07,1.29-1.61,.25-2.67,.68-3.21,1.33-.54,.67-.95,2.17-1.24,4.53-.29,2.37-.44,7.7-.44,16.03,0,9.56,.1,16.97,.3,22.19,.2,5.22,.61,8.44,1.24,9.67,.62,1.23,1.66,1.84,3.1,1.84,1,0,1.5,.4,1.5,1.19,0,1.07-.54,1.59-1.61,1.59-.3,0-.75-.01-1.33-.04-3.81-.4-6.42-.6-7.81-.6-3.05,0-5.32,.12-6.78,.39-.76,.12-1.31,.17-1.63,.17-.76,0-1.13-.44-1.13-1.3,0-.68,.31-1.08,.94-1.21,1.71-.34,2.86-1.05,3.46-2.15,.6-1.1,.95-3.76,1.07-7.96,.12-4.22,.18-10.74,.18-19.62,0-9.35-.11-15.6-.33-18.76-.23-3.17-.59-5.1-1.1-5.82-.51-.73-1.49-1.18-2.94-1.37-.77-.09-1.15-.56-1.15-1.41,0-.79,.37-1.19,1.12-1.19h0Zm23.91,0c.72,0,2.18,.09,4.38,.26,1.68,.14,3.01,.2,4,.2l9.31-.46c.78,0,1.18,.4,1.18,1.22,0,.74-.35,1.16-1.06,1.29-1.61,.25-2.67,.68-3.21,1.33-.54,.67-.95,2.17-1.24,4.53-.3,2.37-.44,7.7-.44,16.03,0,9.56,.1,16.97,.3,22.19,.2,5.22,.61,8.44,1.24,9.67,.62,1.23,1.66,1.84,3.1,1.84,1.01,0,1.5,.4,1.5,1.19,0,1.07-.54,1.59-1.61,1.59-.31,0-.75-.01-1.34-.04-3.81-.4-6.41-.6-7.81-.6-3.05,0-5.32,.12-6.78,.39-.77,.12-1.32,.17-1.63,.17-.75,0-1.13-.44-1.13-1.3,0-.68,.31-1.08,.93-1.21,1.71-.34,2.86-1.05,3.46-2.15,.59-1.1,.95-3.76,1.07-7.96,.12-4.22,.18-10.74,.18-19.62,0-9.35-.11-15.6-.33-18.76-.23-3.17-.59-5.1-1.11-5.82-.5-.73-1.49-1.18-2.93-1.37-.76-.09-1.15-.56-1.15-1.41,0-.79,.37-1.19,1.11-1.19Z" style="fill:#4f8dcb; fill-rule:evenodd;"/><path d="M922.37,968.39c.71,0,2.17,.09,4.38,.27,1.67,.14,3.01,.2,4,.2l9.31-.46c.79,0,1.18,.41,1.18,1.23,0,.74-.35,1.16-1.06,1.29-1.61,.25-2.67,.68-3.21,1.34-.54,.66-.95,2.16-1.24,4.52-.3,2.38-.44,7.7-.44,16.04,0,9.56,.1,16.97,.31,22.19,.2,5.22,.61,8.44,1.23,9.67,.62,1.22,1.66,1.84,3.1,1.84,1.01,0,1.5,.4,1.5,1.19,0,1.07-.54,1.6-1.61,1.6-.3,0-.74-.01-1.33-.05-3.81-.4-6.41-.6-7.81-.6-3.05,0-5.32,.12-6.77,.39-.77,.1-1.31,.17-1.63,.17-.76,0-1.13-.44-1.13-1.3,0-.68,.31-1.09,.93-1.21,1.71-.34,2.86-1.05,3.46-2.15,.59-1.1,.95-3.77,1.07-7.97,.12-4.21,.19-10.73,.19-19.61,0-9.34-.11-15.6-.33-18.77-.23-3.15-.59-5.09-1.11-5.82-.5-.73-1.49-1.18-2.93-1.37-.77-.09-1.15-.56-1.15-1.41,0-.79,.37-1.2,1.12-1.2h0Zm45.05,21.94c4.37-8.12,6.56-13.2,6.56-15.24,0-1.05-.23-1.87-.68-2.48-.45-.62-1.39-1.15-2.77-1.61-.65-.19-.97-.65-.97-1.41s.38-1.2,1.15-1.2c.46,0,1.24,.07,2.34,.2,1.51,.17,2.79,.26,3.85,.26,1.45,0,3.36-.1,5.72-.31,1.12-.11,1.8-.16,2.06-.16,.97,0,1.46,.44,1.46,1.32,0,.81-.37,1.22-1.13,1.29-1.38,.06-2.78,.68-4.19,1.87-1.42,1.19-2.72,2.82-3.91,4.86-1.19,2.06-3.89,7.17-8.09,15.31,2.3,5.85,4.97,12.04,8,18.56,3.04,6.51,5.29,10.55,6.8,12.1,1.5,1.55,2.81,2.41,3.94,2.6,.96,.16,1.43,.61,1.43,1.35,0,.84-.49,1.25-1.46,1.25l-11.18-.46c-1.46,0-2.91,.06-4.34,.19-1.25,.08-2.06,.14-2.42,.17-.87-.02-1.41,0-1.61,.03-.3,.04-.53,.07-.69,.07-.59,0-.88-.41-.88-1.26,0-.76,.34-1.2,1.02-1.29,2.2-.29,3.3-1.44,3.3-3.44,0-2.3-2.48-8.69-7.44-19.15-5.29,10.26-7.95,16.38-7.95,18.38,0,2.13,1.62,3.57,4.84,4.26,.72,.15,1.07,.54,1.07,1.16,0,.9-.36,1.34-1.09,1.34-.35,0-1.26-.06-2.76-.2-1.79-.17-3.59-.27-5.39-.27-1.7,0-3.01,.06-3.96,.19-1.21,.19-2.02,.28-2.42,.28-1.17,0-1.76-.46-1.76-1.39,0-.68,.31-1.08,.94-1.21,1.83-.37,3.29-1.02,4.38-1.95,1.08-.94,2.4-2.86,3.96-5.76,1.56-2.9,4.51-8.77,8.83-17.62-5.12-12.55-8.7-20.55-10.71-24-2.01-3.44-4.12-5.4-6.32-5.88-.81-.19-1.21-.65-1.21-1.39,0-.87,.37-1.31,1.12-1.31,.39,0,.91,.07,1.58,.17,1.29,.2,4.09,.29,8.39,.29,1.8,0,3.97-.09,6.51-.28,1.53-.12,2.42-.19,2.67-.19,1.09,0,1.63,.42,1.63,1.26s-.44,1.29-1.3,1.35c-.5,.06-1.17,.31-1.99,.74-.83,.45-1.24,1.13-1.24,2.08,0,.85,.42,2.38,1.27,4.57,.85,2.2,2.52,6.18,5.05,11.95Z" style="fill:#4f8dcb; fill-rule:evenodd;"/><path d="M1443.35,707.66h0c1.44,.83,1.93,2.67,1.1,4.11l-16.73,28.98c-.83,1.43-2.67,1.93-4.11,1.1h0c-1.43-.83-1.93-2.67-1.1-4.11l16.73-28.98c.83-1.43,2.68-1.93,4.11-1.1Z" style="fill:#8ab9e8; fill-rule:evenodd;"/><path d="M1566.29,830.56h0c.83,1.44,.33,3.29-1.1,4.12l-28.99,16.73c-1.43,.83-3.28,.34-4.11-1.1h0c-.83-1.44-.33-3.28,1.1-4.12l28.98-16.73c1.43-.83,3.28-.33,4.11,1.1Z" style="fill:#8ab9e8; fill-rule:evenodd;"/><path d="M1566.33,1166.39h0c-.83,1.44-2.68,1.93-4.11,1.1l-28.99-16.73c-1.43-.82-1.92-2.67-1.1-4.11h0c.83-1.43,2.68-1.92,4.11-1.1l28.98,16.73c1.44,.83,1.93,2.67,1.1,4.1Z" style="fill:#619fdf; fill-rule:evenodd;"/><path d="M1443.42,1289.34h0c-1.44,.83-3.28,.33-4.11-1.1l-16.73-28.98c-.83-1.44-.33-3.28,1.1-4.11h0c1.44-.83,3.28-.33,4.11,1.1l16.73,28.99c.83,1.43,.33,3.28-1.1,4.11Z" style="fill:#619fdf; fill-rule:evenodd;"/><path d="M1107.59,1289.38h0c-1.44-.84-1.93-2.68-1.1-4.12l16.73-28.98c.83-1.43,2.68-1.92,4.11-1.1h0c1.43,.84,1.93,2.68,1.1,4.11l-16.73,28.99c-.83,1.43-2.68,1.92-4.11,1.1Z" style="fill:#8ab9e8; fill-rule:evenodd;"/><path d="M984.65,1166.46h0c-.83-1.43-.33-3.28,1.1-4.11l28.98-16.73c1.43-.83,3.28-.33,4.11,1.1h0c.83,1.44,.33,3.29-1.1,4.11l-28.98,16.73c-1.43,.83-3.28,.33-4.11-1.1Z" style="fill:#8ab9e8; fill-rule:evenodd;"/><path d="M984.61,830.64h0c.83-1.43,2.68-1.92,4.11-1.1l28.98,16.73c1.43,.83,1.93,2.68,1.1,4.11h0c-.83,1.44-2.68,1.93-4.11,1.1l-28.98-16.73c-1.43-.82-1.93-2.67-1.1-4.11Z" style="fill:#8ab9e8; fill-rule:evenodd;"/><path d="M1107.52,707.7h0c1.43-.83,3.28-.33,4.11,1.1l16.73,28.98c.83,1.44,.33,3.28-1.1,4.11h0c-1.43,.83-3.28,.33-4.11-1.1l-16.73-28.98c-.83-1.43-.33-3.28,1.1-4.11Z" style="fill:#8ab9e8; fill-rule:evenodd;"/></g><g><path d="M1283.88,971.93c14.69,4.65,22.82,20.31,18.17,35-4.64,14.69-20.31,22.82-34.99,18.18-14.69-4.64-22.83-20.31-18.19-35,4.65-14.69,20.32-22.82,35.01-18.18h0Zm-2.11,6.65c-11.01-3.48-22.76,2.62-26.25,13.64-3.49,11.01,2.62,22.76,13.63,26.25,11.02,3.48,22.77-2.62,26.25-13.64,3.49-11.01-2.62-22.76-13.63-26.25Z" style="fill:#4f8dcb; fill-rule:evenodd;"/><path d="M1237.71,883.87c15,9.52,22.35,28.26,16.74,46-6.7,21.13-29.25,32.86-50.4,26.17-10.9-3.45-19.3-11.12-23.95-20.63,.14,.29,.28,.57,.43,.86-13.61-21.22-25.46-59.4-35.56-114.51l5.75,7.67c26.45,18.34,45.68,34.65,57.69,48.94-12.01,2.37-22.62,10.19-28.24,21.6l.03-.07c-10.13-15.77-20.02-39.21-29.65-70.35l-5.58-7.79c44.24,23.44,75.15,44.15,92.74,62.12h0Zm-57.55,16.12c-.66,1.34-.33,.66,0,0h0Zm45.09-10.94c-15.85-5.01-32.78,3.78-37.8,19.63-5.02,15.86,3.78,32.78,19.63,37.8,15.85,5.01,32.78-3.78,37.8-19.63,5.01-15.85-3.78-32.78-19.63-37.8Z" style="fill:#4f8dcb; fill-rule:evenodd;"/><path d="M1252.63,945.74c10.28,3.25,15.99,14.22,12.73,24.51-3.25,10.28-14.23,15.98-24.51,12.73-10.28-3.25-15.99-14.22-12.73-24.5,3.25-10.28,14.23-15.99,24.51-12.73h0Zm-1.47,4.66c-7.71-2.44-15.94,1.83-18.38,9.54-2.44,7.71,1.84,15.95,9.55,18.38,7.71,2.44,15.94-1.84,18.38-9.54,2.44-7.72-1.84-15.95-9.55-18.38Z" style="fill:#4f8dcb; fill-rule:evenodd;"/><path d="M1376.22,978.24c14.37-.77,32.88-.54,55.53,.69-5.98,1.79-10.99,6.42-13.01,12.81-2.98,9.4,1.54,19.38,10.19,23.51-20.62,1.06-37.7,1.26-51.25,.61,3.3-2.82,5.89-6.56,7.3-11,3.22-10.21-.74-20.97-9.05-26.82l.28,.2h0Zm148.42,28.86c-5.77-6.74-6.5-13.54-2.18-20.39,25.75,2.78,54.22,6.22,85.4,10.32-30.31,3.97-58.04,7.34-83.22,10.07h0Zm-6.52-20.86c-27.47-2.89-51.78-5.09-72.93-6.49,9.05,3.94,13.84,14.16,10.8,23.79-1.45,4.55-4.4,8.21-8.14,10.58,21.11-1.45,45.29-3.63,72.54-6.56-6.28-7.04-7.04-14.15-2.27-21.32h0Zm-190.46-7.23c-10.28-3.25-21.25,2.45-24.5,12.73-3.25,10.29,2.45,21.26,12.73,24.51,9.55,3.02,19.69-1.68,23.7-10.6,2.43,6.83,7.91,12.47,15.34,14.82,3.79,1.2,7.64,1.4,11.3,.77,38.96,4.9,128.57-3.17,268.84-24.22-148.48-22.29-240.21-30.04-275.18-23.24-9.02,.86-17.12,6.83-20.31,15.83-2.2-4.89-6.4-8.85-11.92-10.6h0Zm114.13,4.66c-7.71-2.44-15.95,1.83-18.38,9.54-2.45,7.71,1.84,15.95,9.55,18.38,7.71,2.44,15.94-1.84,18.38-9.54,2.43-7.71-1.84-15.95-9.55-18.38h0Zm-72.98-9.05c.19,.06,.38,.12,.57,.17-.19-.06-.38-.12-.57-.17h0Zm-1.23,5.88c-9.46-2.99-19.57,2.25-22.55,11.71-2.99,9.46,2.25,19.56,11.72,22.55,9.46,2.99,19.55-2.25,22.54-11.71,2.99-9.46-2.25-19.57-11.71-22.55h0Zm-41.38,3.17c7.71,2.43,11.99,10.67,9.55,18.38-2.44,7.71-10.67,11.98-18.38,9.54-7.71-2.43-11.99-10.67-9.55-18.38,2.43-7.71,10.67-11.98,18.38-9.54Z" style="fill:#4f8dcb; fill-rule:evenodd;"/><path d="M1275.47,989.62c4.91,0,8.89,3.99,8.89,8.9s-3.98,8.9-8.89,8.9-8.9-3.99-8.9-8.9,3.99-8.9,8.9-8.9Z" style="fill:#619fdf; fill-rule:evenodd;"/></g><path d="M885.12,998.84c0-215.62,174.79-390.41,390.41-390.41,91.26,0,175.21,31.31,241.69,83.78,90.59,71.5,148.73,182.28,148.73,306.63s-58.14,235.13-148.73,306.63c-66.48,52.47-150.42,83.78-241.69,83.78-215.62,0-390.41-174.79-390.41-390.41h0Zm632.09-375.13c-69.64-44.96-152.62-71.06-241.69-71.06-246.42,0-446.18,199.76-446.18,446.19s199.76,446.19,446.18,446.19c89.07,0,172.04-26.1,241.69-71.06,123.05-79.44,204.5-217.77,204.5-375.13s-81.45-295.69-204.5-375.13Z" style="fill:#8ab9e8; fill-rule:evenodd;"/><path d="M826.41,998.84c0-248.05,201.08-449.13,449.12-449.13s449.13,201.08,449.13,449.13-201.09,449.13-449.13,449.13-449.12-201.08-449.12-449.13h0Zm913.9,0c0-256.69-208.09-464.78-464.78-464.78s-464.77,208.09-464.77,464.78,208.08,464.78,464.77,464.78,464.78-208.09,464.78-464.78Z" style="fill:#619fdf; fill-rule:evenodd;"/><rect x="1274.32" y="613.56" width="2.43" height="18.14" style="fill:#a3cffb;"/><rect x="1363.75" y="634.24" width="18.14" height="2.43" transform="translate(402.2 1795.77) rotate(-74.93)" style="fill:#a3cffb;"/><polygon points="1466.95 664.56 1469.06 665.77 1459.99 681.48 1457.88 680.27 1466.95 664.56" style="fill:#a3cffb; fill-rule:evenodd;"/><rect x="1532.23" y="731.55" width="18.15" height="2.43" transform="translate(-66.62 1304.73) rotate(-45.01)" style="fill:#a3cffb;"/><polygon points="1608.29 805.04 1609.5 807.14 1593.78 816.22 1592.57 814.11 1608.29 805.04" style="fill:#a3cffb; fill-rule:evenodd;"/><polygon points="1647.02 897.77 1647.65 900.12 1630.12 904.81 1629.5 902.47 1647.02 897.77" style="fill:#a3cffb; fill-rule:evenodd;"/><rect x="1642.29" y="997.37" width="18.14" height="2.43" style="fill:#a3cffb;"/><polygon points="1647.62 1097.05 1646.98 1099.39 1629.46 1094.69 1630.09 1092.35 1647.62 1097.05" style="fill:#a3cffb; fill-rule:evenodd;"/><polygon points="1609.43 1190 1608.21 1192.11 1592.5 1183.04 1593.72 1180.93 1609.43 1190" style="fill:#a3cffb; fill-rule:evenodd;"/><rect x="1540" y="1255.29" width="2.43" height="18.14" transform="translate(-443.01 1456.2) rotate(-44.89)" style="fill:#a3cffb;"/><polygon points="1468.95 1331.33 1466.84 1332.54 1457.77 1316.83 1459.88 1315.61 1468.95 1331.33" style="fill:#a3cffb; fill-rule:evenodd;"/><polygon points="1376.22 1370.06 1373.87 1370.7 1369.18 1353.17 1371.53 1352.54 1376.22 1370.06" style="fill:#a3cffb; fill-rule:evenodd;"/><rect x="1274.2" y="1365.34" width="2.43" height="18.14" style="fill:#a3cffb;"/><polygon points="1176.95 1370.66 1174.6 1370.04 1179.3 1352.51 1181.65 1353.13 1176.95 1370.66" style="fill:#a3cffb; fill-rule:evenodd;"/><polygon points="1083.99 1332.48 1081.88 1331.27 1090.95 1315.55 1093.06 1316.77 1083.99 1332.48" style="fill:#a3cffb; fill-rule:evenodd;"/><rect x="1000.56" y="1263.05" width="18.15" height="2.43" transform="translate(-598.1 1082.86) rotate(-44.95)" style="fill:#a3cffb;"/><rect x="940.84" y="1185.19" width="18.15" height="2.43" transform="translate(-466.17 634.5) rotate(-30.02)" style="fill:#a3cffb;"/><rect x="903.3" y="1094.53" width="18.14" height="2.43" transform="translate(-251.78 272.44) rotate(-14.95)" style="fill:#a3cffb;"/><rect x="890.51" y="997.24" width="18.15" height="2.43" style="fill:#a3cffb;"/><rect x="911.19" y="892.1" width="2.43" height="18.14" transform="translate(-193.51 1550.44) rotate(-75.06)" style="fill:#a3cffb;"/><rect x="948.76" y="801.44" width="2.43" height="18.15" transform="translate(-227.02 1227.72) rotate(-59.99)" style="fill:#a3cffb;"/><rect x="1008.51" y="723.61" width="2.43" height="18.14" transform="translate(-222.57 927.14) rotate(-44.93)" style="fill:#a3cffb;"/><polygon points="1081.99 665.71 1084.1 664.49 1093.17 680.2 1091.06 681.42 1081.99 665.71" style="fill:#a3cffb; fill-rule:evenodd;"/><polygon points="1174.72 626.97 1177.07 626.34 1181.77 643.87 1179.42 644.5 1174.72 626.97" style="fill:#a3cffb; fill-rule:evenodd;"/></g><path d="M1386.96,587.83c11.49,3.2,22.78,6.84,33.88,10.93,47.61,17.55,91.67,43.32,132.17,77.29,1.15,.97,1.31,2.69,.34,3.86-.97,1.15-2.7,1.31-3.86,.33-40.01-33.56-83.53-59.01-130.56-76.35-10.92-4.02-22.03-7.61-33.31-10.76l1.34-5.31Z" style="fill:#a3cffb; fill-rule:evenodd;"/><path d="M1061.49,1366.37c-10.27-6.06-20.23-12.51-29.9-19.33-41.45-29.28-77.34-65.57-107.66-108.86-.86-1.24-.57-2.95,.67-3.81,1.24-.86,2.95-.57,3.81,.67,29.96,42.78,65.41,78.63,106.35,107.54,9.5,6.71,19.3,13.05,29.4,19.01l-2.67,4.79Z" style="fill:#f6eae0; fill-rule:evenodd;"/><path d="M908.56,789.29c-.8,1.29-2.49,1.68-3.78,.88-1.28-.8-1.67-2.49-.88-3.78,28.98-46.39,63.19-85.55,102.65-117.46,39.46-31.9,84.15-56.55,134.07-73.94,1.43-.49,2.99,.26,3.48,1.69,.5,1.43-.25,2.99-1.68,3.49-49.32,17.18-93.47,41.53-132.44,73.04-38.97,31.51-72.78,70.21-101.43,116.09Z" style="fill:#a3cffb; fill-rule:evenodd;"/><path d="M1682.54,1111.19c.46-1.45,2-2.24,3.44-1.78,1.44,.46,2.24,2,1.77,3.44-16.68,52.09-40.24,98.46-70.64,139.08-30.41,40.62-67.68,75.49-111.79,104.61-1.26,.83-2.96,.49-3.79-.78-.83-1.26-.49-2.96,.77-3.79,43.59-28.77,80.4-63.22,110.44-103.34,30.02-40.12,53.29-85.93,69.8-137.45Z" style="fill:#a3cffb; fill-rule:evenodd;"/></g><g><polygon points="653.65 1147.07 1094.77 1156.47 1109.93 1470.71 660.13 1485.35 653.65 1147.07" style="fill:#71aeec; fill-rule:evenodd;"/><polygon points="678.26 1160.87 684.01 1460.5 1095.65 1447.1 1082.25 1169.48 678.26 1160.87" style="fill:#a3cffb; fill-rule:evenodd;"/><polygon points="659.75 1465.61 619.83 1466 653.65 1147.07 659.75 1465.61" style="fill:#4f8dcb; fill-rule:evenodd;"/><path d="M1007.18,1154.6c.55-5.82,1.99-13.71,4.87-19.82,2.98-6.33,7.5-11,14.21-11,6,0,11.13,4.52,14.57,11.82,2.96,6.27,4.79,14.82,4.79,24.18s-1.83,17.9-4.79,24.18c-3.44,7.3-8.57,11.81-14.57,11.81-2.5,0-4.52-2.02-4.52-4.52s2.03-4.52,4.52-4.52c2.19,0,4.48-2.54,6.41-6.62,2.41-5.12,3.9-12.3,3.9-20.33s-1.5-15.22-3.9-20.33c-1.93-4.09-4.22-6.62-6.41-6.62-2.45,0-4.47,2.47-6.04,5.81-2.3,4.88-3.49,11.27-3.99,16.16l-9.05-.19h0Zm-266.88-5.69c.66-5.58,2.08-12.54,4.69-18.07,2.98-6.33,7.5-11,14.2-11,6,0,11.13,4.52,14.57,11.82,2.96,6.27,4.79,14.82,4.79,24.18s-1.83,17.9-4.79,24.18c-3.44,7.3-8.57,11.81-14.57,11.81-2.49,0-4.52-2.03-4.52-4.52s2.03-4.52,4.52-4.52c2.19,0,4.48-2.53,6.41-6.62,2.41-5.11,3.9-12.29,3.9-20.32s-1.49-15.22-3.9-20.33c-1.92-4.09-4.22-6.62-6.41-6.62-2.45,0-4.47,2.47-6.04,5.81-2.04,4.32-3.2,9.81-3.79,14.42l-9.06-.2h0Zm88.83,1.9c.55-5.82,1.99-13.73,4.88-19.86,2.98-6.33,7.5-11,14.21-11,6,0,11.13,4.52,14.57,11.82,2.96,6.27,4.79,14.82,4.79,24.17s-1.83,17.91-4.79,24.19c-3.44,7.3-8.57,11.81-14.57,11.81-2.5,0-4.52-2.03-4.52-4.52s2.03-4.52,4.52-4.52c2.19,0,4.48-2.53,6.41-6.62,2.41-5.11,3.9-12.3,3.9-20.33s-1.5-15.21-3.9-20.32c-1.93-4.09-4.22-6.62-6.41-6.62-2.46,0-4.47,2.47-6.04,5.81-2.31,4.89-3.5,11.3-3.99,16.2l-9.05-.19h0Zm89.02,1.9c.55-5.82,1.99-13.71,4.88-19.83,2.98-6.32,7.5-11,14.2-11,6,0,11.13,4.51,14.57,11.82,2.96,6.27,4.79,14.82,4.79,24.17s-1.83,17.91-4.79,24.18c-3.44,7.29-8.57,11.81-14.57,11.81-2.49,0-4.52-2.03-4.52-4.52s2.03-4.53,4.52-4.53c2.19,0,4.48-2.54,6.41-6.62,2.41-5.12,3.9-12.3,3.9-20.34s-1.49-15.21-3.9-20.32c-1.93-4.09-4.22-6.62-6.41-6.62-2.45,0-4.46,2.47-6.04,5.81-2.31,4.9-3.5,11.29-3.99,16.18l-9.05-.2Z" style="fill:#619fdf; fill-rule:evenodd;"/><path d="M726.18,1231.83c11.69,.13,23.38,.25,35.11,.36,1.39,.01,2.51,1.17,2.52,2.55,.09,12.6,.21,25.22,.3,37.83,0,1.37-1.13,2.47-2.52,2.47-11.79-.03-23.62-.06-35.37-.11-1.39,0-2.49-1.17-2.49-2.54v-38.07c0-1.39,1.06-2.49,2.46-2.48h0Zm.03,68.06h35.54c1.39,0,2.55,1.13,2.56,2.49,.09,12.62,.17,25.22,.27,37.83,.01,1.36-1.13,2.5-2.52,2.5-11.95,.08-23.91,.17-35.8,.25-1.43,0-2.52-1.13-2.52-2.51v-38.05c0-1.39,1.09-2.51,2.49-2.51h0Zm285.13-.05h35.54c1.39,0,2.61,1.04,2.69,2.35,.72,12.05,1.47,24.09,2.19,36.13,.08,1.31-1.03,2.4-2.46,2.4-11.93,.06-23.88,.17-35.81,.25-1.39,0-2.59-1.06-2.66-2.38-.63-12.12-1.3-24.26-1.92-36.37-.07-1.32,1.03-2.38,2.42-2.38h0Zm-57.02,.01c11.82,0,23.68-.01,35.54-.01,1.39,0,2.59,1.07,2.66,2.4,.6,12.16,1.19,24.31,1.79,36.46,.06,1.33-1.03,2.41-2.46,2.43-11.92,.07-23.88,.17-35.8,.25-1.39,0-2.6-1.08-2.66-2.4-.51-12.22-1.02-24.47-1.53-36.71-.05-1.33,1.06-2.4,2.46-2.4h0Zm-57.03,0h35.54c1.39,0,2.57,1.08,2.63,2.42,.48,12.26,.95,24.54,1.43,36.8,.05,1.34-1.06,2.43-2.49,2.44-11.95,.09-23.88,.17-35.8,.25-1.36,.01-2.55-1.08-2.59-2.42-.39-12.35-.77-24.7-1.16-37.05-.04-1.34,1.06-2.44,2.46-2.44h0Zm-57.02,.02h35.54c1.39,0,2.56,1.1,2.59,2.44,.33,12.39,.7,24.77,1.03,37.14,.03,1.34-1.1,2.44-2.46,2.46-11.95,.08-23.88,.16-35.8,.25-1.43,.02-2.6-1.09-2.63-2.43-.24-12.46-.52-24.92-.76-37.39-.03-1.34,1.09-2.46,2.49-2.46h0Zm-57.03,.02c11.82,0,23.68-.02,35.54-.02,1.39,0,2.57,1.12,2.59,2.48,.21,12.49,.46,24.99,.66,37.48,.02,1.36-1.13,2.46-2.52,2.47-11.95,.08-23.91,.17-35.8,.25-1.43,0-2.58-1.1-2.59-2.45-.12-12.56-.28-25.15-.4-37.73-.01-1.37,1.13-2.48,2.52-2.48h0Zm-56.99,68.06c11.95-.13,23.95-.27,35.97-.39,1.39-.01,2.58,1.09,2.59,2.47,.09,12.6,.18,25.22,.27,37.84,.01,1.37-1.13,2.48-2.56,2.51-12.09,.2-24.18,.42-36.24,.62-1.42,.02-2.55-1.08-2.55-2.46v-38.07c0-1.38,1.1-2.51,2.52-2.53h0Zm288.55-3.09c11.99-.12,23.98-.26,35.97-.39,1.43-.01,2.64,1.02,2.72,2.33,.72,12.04,1.45,24.11,2.19,36.15,.08,1.31-1,2.38-2.43,2.4-12.09,.21-24.18,.42-36.23,.63-1.43,.02-2.69-1-2.76-2.33-.66-12.11-1.3-24.25-1.92-36.39-.07-1.31,1.07-2.39,2.46-2.4h0Zm-57.73,.61c11.99-.12,23.98-.25,35.97-.37,1.43-.01,2.63,1.04,2.69,2.35,.6,12.19,1.17,24.34,1.79,36.5,.07,1.32-1,2.4-2.42,2.42-12.09,.2-24.19,.41-36.24,.62-1.43,.02-2.67-1.02-2.72-2.35-.51-12.25-1.02-24.49-1.53-36.73-.05-1.33,1.07-2.43,2.46-2.44h0Zm-57.69,.63c11.95-.13,23.95-.27,35.93-.39,1.43-.02,2.61,1.05,2.66,2.4,.48,12.26,.95,24.54,1.43,36.82,.05,1.33-1.03,2.42-2.45,2.44-12.09,.21-24.18,.41-36.24,.62-1.39,.02-2.61-1.02-2.66-2.36-.39-12.36-.77-24.72-1.16-37.07-.04-1.34,1.1-2.44,2.49-2.45h0Zm-57.69,.61c11.95-.13,23.95-.25,35.94-.38,1.39-.01,2.59,1.06,2.62,2.4,.33,12.39,.67,24.78,1.03,37.16,.04,1.35-1.06,2.46-2.46,2.48-12.09,.21-24.18,.42-36.23,.63-1.43,.02-2.63-1.05-2.66-2.4-.27-12.46-.53-24.93-.76-37.39-.03-1.37,1.1-2.48,2.52-2.49h0Zm-57.73,.61c11.95-.13,23.95-.25,35.97-.38,1.4-.01,2.57,1.08,2.59,2.43,.21,12.5,.42,25.01,.66,37.5,.03,1.37-1.1,2.47-2.52,2.5-12.09,.2-24.18,.41-36.24,.62-1.42,.02-2.61-1.06-2.62-2.43-.12-12.58-.28-25.16-.4-37.72-.01-1.38,1.13-2.51,2.56-2.53h0Zm223.92-132.54c11.69,.11,23.39,.23,35.11,.36,1.39,.02,2.61,1.1,2.69,2.41,.75,12.04,1.47,24.08,2.19,36.13,.08,1.32-1.03,2.39-2.43,2.38-11.79-.04-23.58-.08-35.37-.11-1.39,0-2.59-1.09-2.66-2.42-.62-12.14-1.23-24.25-1.89-36.39-.07-1.31,.96-2.38,2.36-2.37h0Zm-56.36-.59c11.69,.11,23.42,.23,35.1,.36,1.39,.01,2.59,1.13,2.66,2.46,.6,12.14,1.23,24.3,1.83,36.47,.06,1.31-1.03,2.39-2.43,2.38-11.82-.04-23.62-.08-35.41-.13-1.39,0-2.57-1.1-2.62-2.43-.51-12.24-.99-24.48-1.52-36.71-.06-1.34,1.03-2.41,2.39-2.4h0Zm-56.33-.6c11.66,.13,23.38,.23,35.11,.36,1.39,.02,2.57,1.13,2.62,2.47,.48,12.28,.95,24.54,1.43,36.82,.05,1.32-1.07,2.4-2.46,2.4-11.79-.04-23.61-.08-35.37-.12-1.36,0-2.55-1.11-2.59-2.46-.39-12.35-.74-24.7-1.13-37.05-.04-1.34,1.03-2.44,2.39-2.43h0Zm-56.33-.59c11.69,.12,23.42,.23,35.11,.36,1.36,.02,2.52,1.16,2.56,2.5,.36,12.38,.7,24.77,1.06,37.16,.04,1.34-1.1,2.44-2.46,2.44-11.79-.05-23.62-.09-35.37-.13-1.39,0-2.56-1.13-2.59-2.49-.24-12.46-.49-24.93-.76-37.39-.03-1.37,1.1-2.45,2.46-2.44h0Zm-56.33-.59c11.66,.12,23.39,.25,35.11,.36,1.36,.01,2.54,1.16,2.56,2.51,.21,12.51,.46,25,.66,37.49,.02,1.37-1.1,2.46-2.49,2.46-11.82-.03-23.62-.08-35.41-.13-1.39,0-2.51-1.13-2.52-2.51-.12-12.56-.25-25.15-.4-37.73-.01-1.37,1.1-2.47,2.49-2.46Z" style="fill:#fff; fill-rule:evenodd;"/></g><g><path d="M1166.64,1383.08c.64,0,1.3-.22,1.83-.66,1.22-1.02,1.39-2.83,.38-4.05-13.88-16.69-21.53-37.86-21.53-59.61,0-10.41,1.71-20.64,5.07-30.4,.52-1.5-.28-3.14-1.78-3.65-1.5-.52-3.13,.28-3.65,1.78-3.57,10.36-5.37,21.21-5.37,32.27,0,23.08,8.11,45.55,22.85,63.28,.56,.67,1.38,1.03,2.21,1.03Z" style="fill:#fff; fill-rule:evenodd;"/><path d="M1107.07,1345.97c23.02,4.37,51.91,13.35,86.64,26.92-2.35,.62-4.56,1.38-6.65,2.28-47.96-17.42-79.74-26.16-95.36-26.25,2.77-.97,5.54-1.62,8.3-1.96-.23-25.54-1.55-48.14-3.96-67.82,5.9,30.52,9.58,52.79,11.02,66.83Z" style="fill:#4f8dcb; fill-rule:evenodd;"/><path d="M1193.72,1372.89c10.67-3.19,20.14-2.48,28.4,2.13l-6.93,24.07c-.78,2.73,.77,4.87,3.46,4.76l-6.42,.27c-2.89-1.62-5.87-2.64-8.94-3.07-5.85,3.72-13.55,2.91-23.07-2.43-.69-9.57,1.73-17.34,7.26-23.31-.13-.04-.26-.09-.39-.14,2.08-.9,4.3-1.66,6.65-2.28Z" style="fill:#ffb17d; fill-rule:evenodd;"/><path d="M1114.25,1415.9c-1.47-8.66-2.92-17.95-4.34-27.88,18.08,4.74,41.61,9.22,70.58,13.46-.12-.97-.22-1.93-.29-2.87,9.53,5.34,17.22,6.14,23.07,2.43,3.07,.43,6.05,1.45,8.94,3.07l-64.89,2.7c.78,4.39,2.7,7.73,5.65,9.77-13.65,.58-26.56,.36-38.73-.68Z" style="fill:#4f8dcb; fill-rule:evenodd;"/><path d="M1222.11,1375.02c-6.19-3.46-13.06-4.72-20.6-3.79-12.41-26.81-4.74-64.92-22.21-123.1,12.59,6.33,27.26,36.92,44.02,91.8,1.82,1.55,4.28,3.3,7.39,5.25l-8.6,29.84Z" style="fill:#619fdf; fill-rule:evenodd;"/><path d="M1179.3,1248.13c17.48,58.17,9.8,96.29,22.21,123.1-2.53,.31-5.13,.86-7.8,1.66-34.73-13.57-63.62-22.54-86.64-26.92-1.44-14.04-5.12-36.31-11.02-66.83,2.41,19.68,3.73,42.28,3.96,67.82-2.76,.34-5.53,1-8.3,1.96,15.62,.09,47.4,8.83,95.36,26.25l.39,.14c-5.53,5.96-7.95,13.73-7.26,23.31,.07,.94,.17,1.9,.29,2.87-28.98-4.24-52.5-8.73-70.58-13.46-14.89-3.9-26.08-7.97-33.58-12.2-19.58-32.59-22.63-74.67-9.15-126.24,7.29-9.3,23.55-12.76,48.8-10.4,26.32,22.22,38.37,23.28,36.13,3.2,11.49,.32,20.55,2.24,27.2,5.75Z" style="fill:#619fdf; fill-rule:evenodd;"/><path d="M1180.11,1248.56c15.61,32.35,18.31,98.08,25.49,105.18,2.73,3.27,9.13,7.27,19.2,12l-.19,.65-2.48,8.62c-6.19-3.46-13.06-4.72-20.6-3.79-12.41-26.81-4.74-64.92-22.21-123.1,.27,.13,.53,.28,.8,.44Z" style="fill:#4f8dcb; fill-rule:evenodd;"/><path d="M1318.5,1412.3l-156.67,6.53c-8.07,.34-13.1-4.15-14.5-12.01l176.4-7.35,.49-.02c1.7-.07,4.2,.69,3.41,5.43-.73,3.91-4.83,7.25-9.12,7.42Z" style="fill:#f47a44; fill-rule:evenodd;"/><path d="M1344.18,1315.28l-101.24,4.22c-2.69,.12-5.53,2.43-6.31,5.16l-21.44,74.44c-.79,2.72,.77,4.86,3.46,4.75l101.24-4.22c2.69-.12,5.53-2.43,6.31-5.16l21.44-74.44c.78-2.72-.77-4.87-3.46-4.75Z" style="fill:#fabea7; fill-rule:evenodd;"/><path d="M1335.15,1345.52l-13.2,45.78c-.65,2.27-3.06,4.37-5.45,4.47l-92.38,3.85c-2.34,.09-3.43-1.76-2.81-3.9l8.8-30.56c7.61,.94,15.54,1.45,23.69,1.45,6.13,0,12.13-.28,17.96-.83,1.16,3.12,4.1,5.24,7.88,5.24,4.81,0,9.39-3.44,11.01-8.01,17.69-3.6,33.03-9.7,44.49-17.49Z" style="fill:#f47a44; fill-rule:evenodd;"/><path d="M1365.47,1425.3c-7.74-5.03-13.71-9.7-17.93-14.01-6.56,2.96-12.81,5.64-18.77,8.03-14.37-1.85-31.2-3.64-50.49-5.35l40.22-1.68c4.29-.17,8.39-3.51,9.12-7.42,.79-4.74-1.71-5.5-3.41-5.43l-.49,.02-3.84,.16c2.69-.12,5.53-2.43,6.31-5.16l10.6-36.79c6.46-.37,12.19-.49,17.18-.36,28.41,10.3,52.89,52.51,105.7,87.66-.86,9.22-5.4,15.1-12.46,20.96-27.72-11.87-55.59-25.07-71.95-34.62-3.54-2.06-6.81-4.07-9.8-6.02Z" style="fill:#4567c5; fill-rule:evenodd;"/><path d="M1516.18,1448.89c-21.02,18.54-36.6,29.73-45.8,33.99-9.94,4.59-12.75,1.1-15.18-10.46,27.7-8.81,12.64-14.89,23.02-21.84,11.12-.68,23.77-5.88,37.96-15.58,8.9-.93,9.92,4.54,0,13.89Z" style="fill:#3b5bb2; fill-rule:evenodd;"/><path d="M1510.67,1424.75c-.89,6.46-1.49,9.59-2.31,15.24h0l-.43,.25-.21,.12-.23,.13-.41,.24h-.02s-.43,.25-.43,.25l-.19,.11-.24,.14-.38,.22-.04,.02-.42,.24-.16,.09-1.11,.6-.14,.08-.28,.14-.34,.17-.08,.04-.42,.22-.12,.07-.29,.15-.32,.16-.1,.05-.42,.2-.09,.05-.32,.16-.29,.14-.12,.06-.41,.2-.08,.04-.34,.15-.27,.13-.14,.06-.41,.19-.06,.03-.35,.16-.25,.11-.57,.25h-.04s-.6,.28-.6,.28l-.17,.07-.41,.17h-.01l-.39,.17-.2,.09-.2,.08-.4,.16h0l-.41,.16-.18,.07-.21,.08-.38,.15h-.03s-.39,.16-.39,.16l-.16,.06-.23,.09-.36,.13h-.04s-.39,.15-.39,.15l-.15,.05-.25,.09-.33,.12-.07,.02-.39,.13-.12,.04-.26,.09-.39,.12-.38,.12-.11,.03-.28,.09-.29,.09-.1,.03-.38,.12-.09,.02-.31,.09-.26,.08-.12,.03-.38,.1h-.07s-.31,.1-.31,.1l-.24,.07-.14,.04-.38,.09-.75,.18-.38,.09h-.02s-.35,.08-.35,.08l-.2,.04-.17,.04-.37,.07h0s-.36,.08-.36,.08l-.36,.07h0s-.36,.07-.36,.07h-.01l-.36,.07-.17,.03-.2,.03c.07-.68,.21-1.43,.44-2.26,7.98-7.77,15.06-16.15,19.49-32.75,6.15-6.5,9.37-3.87,7.95,9.7h0Zm-5.12,33.3c-1.64,8.91-3.62,17.19-5.56,21.45-4.13,9.09-11.84,4.42-20.26-1.92,6.88-4.44,15.54-10.93,25.83-19.54Z" style="fill:#3b5bb2; fill-rule:evenodd;"/><path d="M1493.37,1447.21l-.26,.1h-.05s-.39,.15-.39,.15l-.15,.05-.25,.09-.33,.12-.07,.02-.39,.13-.12,.04-.26,.09-.39,.12-.38,.12-.11,.03-.28,.09-.29,.09-.1,.03-.38,.12-.09,.02-.31,.09-.26,.08-.12,.03-.38,.1-.07,.02-.31,.08-.25,.07-.13,.04-.38,.09-.75,.18-.38,.09h-.02s-.35,.08-.35,.08l-.2,.04-.17,.04-.37,.08h0l-.36,.07-.36,.07h0s-.36,.07-.36,.07h-.01l-.36,.07-.17,.03-.2,.04c.07-.69,.21-1.44,.44-2.27,7.98-7.77,15.06-16.15,19.49-32.75,1.61-1.7,3.01-2.77,4.18-3.19-.94,13.68-5.44,25.46-13.53,35.35Z" style="fill:#284190; fill-rule:evenodd;"/><path d="M1457.89,1471.52c-2.5-3.38-5.26-5.94-8.28-7.66,4.84-4.42,8.18-9.08,9.54-15.37,5.48,2.89,10.81,4.57,15.97,5.03-3.7,5.57,3.22,10.91-17.24,18Z" style="fill:#ffb17d; fill-rule:evenodd;"/><path d="M1164.57,1475.21c-33.81-2.14-47.58-27.42-46.93-59.04,11.17,.81,22.94,.95,35.33,.41,2.32,1.61,5.29,2.4,8.85,2.24l116.45-4.85c19.29,1.71,36.12,3.5,50.49,5.35,8.85,1.15,16.77,2.32,23.76,3.51,4.98,1.34,12.45,4.1,22.4,8.29l.34,.2c16.36,9.54,44.23,22.75,71.95,34.62,.83-.69,1.63-1.38,2.38-2.08,3.02,1.71,5.78,4.27,8.28,7.66-.84,.3-1.74,.59-2.69,.9,.04,.19,.08,.39,.12,.58-78.93,7.17-104.93-4.84-125.87-11.16-68.52,12.24-101.52,16.73-164.88,13.36Z" style="fill:#4567c5; fill-rule:evenodd;"/><path d="M1125.66,1199.58c2.59-10.67,3.08-22.82,6.59-27.5,28.47-10.02,31.66,5.74,44.21,8.75,.36,10.43-4.95,40.24-15.74,45.07-2.29,2.41-6.05,3.83-11.3,4.24,.5,2.21,2.03,10.2,2.68,12.24h0c2.24,20.08-9.81,19.01-36.13-3.2h-.11c.16-7.08,.76-12.5,.64-17.82-.08-3.62-.22-6.85-.43-9.65-9.43-9.83-11.29-17.79-5.6-23.88,7.46-3.53,11.79,1.48,12.98,15.05,2.23-.86,.68-.13,2.2-3.29Z" style="fill:#ffb17d; fill-rule:evenodd;"/><path d="M1176.46,1180.82c-12.56-3.01-15.74-18.77-44.21-8.75-3.52,4.69-4.01,16.84-6.59,27.51-1.52,3.16,.03,2.43-2.2,3.29-1.19-13.57-5.52-18.58-12.99-15.05-5.69,6.09-3.83,14.05,5.6,23.88,.21,2.81,.35,6.03,.43,9.65-26.53-24.45-21.16-57.64-5.01-68.55-3.94,.41-7.95,1.93-12.03,4.57,5.89-7.88,13.81-10.62,23.76-8.21-1.08-5.57-.87-9.7,.62-12.37,.45,3.78,1.2,6.68,2.25,8.75,6.4-5.85,18.67-7.21,31.24-2.47,16.27,6.12,18.47,5.78,24.87,1.32,17.29,11.7,4.93,39.96-5.74,36.43Z" style="fill:#284190; fill-rule:evenodd;"/><path d="M1132.65,1225.31c4.72,3.05,10.31,4.65,16.77,4.83,.28,1.22,.88,4.23,1.46,7.02-8.15-2.19-14.22-6.13-18.23-11.85Z" style="fill:#ef8161; fill-rule:evenodd;"/><path d="M1327.37,1401.13c8.88-3.13,16.54-6.9,22.97-11.31,2.99,2.9,5.96,5.73,8.93,8.49,29.02,27.05,57.06,47.74,83.97,60.49,2.67,1.26,5.32,2.45,7.97,3.55-.52,.52-1.04,1.02-1.59,1.52l-2.38,2.08c-5.48-2.34-10.95-4.74-16.34-7.15-21.93-9.79-42.49-19.81-55.61-27.47-.12-.07-.23-.13-.34-.2-3.4-1.99-6.55-3.93-9.46-5.83-2.22-1.44-4.28-2.84-6.2-4.22-4.81-3.45-8.71-6.71-11.73-9.79-6.56,2.96-12.81,5.64-18.77,8.03-8.11-1.05-16.99-2.07-26.66-3.06-7.48-.78-15.43-1.54-23.84-2.29l23.84-.99,16.38-.68c4.29-.17,8.39-3.51,9.11-7.42,.29-1.73,.14-2.93-.24-3.75Z" style="fill:#3b5bb2; fill-rule:evenodd;"/><path d="M1169.41,1458.79c19.7,5.53,47.09,6.22,82.17,2.05,5.99-.68,11.79-1.37,17.37-2.05,11.99-1.48,23.05-2.99,33.16-4.53,10.07-1.53,19.2-3.08,27.41-4.66,5.98,3.51,12.87,6.58,20.68,9.18,2.9,.96,5.92,1.87,9.06,2.7,24.64,6.56,56.96,9.21,96.97,7.95,.57,.65,1.12,1.34,1.66,2.07-.85,.3-1.74,.59-2.69,.9l.12,.59c-48.01,4.35-76.43,1.62-96.05-2.61-12.63-2.73-21.61-6.08-29.81-8.56-9.77,1.74-18.82,3.33-27.34,4.76-51.21,8.59-83.22,11.49-137.54,8.6-15.13-.95-26.25-6.55-33.86-15.27-9.39-10.77-13.43-26.3-13.07-43.77,1.52,.11,3.05,.21,4.59,.29,3.1,.17,6.24,.3,9.43,.36,1.11,21.23,13.7,35.22,37.75,41.97Z" style="fill:#3b5bb2; fill-rule:evenodd;"/><path d="M1282.37,1354.28c-3.78,0-7.34,3.07-7.96,6.85-.62,3.78,1.95,6.84,5.73,6.84s7.34-3.06,7.96-6.84c.61-3.78-1.95-6.85-5.73-6.85Z" style="fill:#f47a44; fill-rule:evenodd;"/><path d="M1178.32,1160.98c7.34,5.52,9.33,10.99,5.95,16.41-12.59,4.24-24.06,3.36-34.39-2.66,6.62,.31,16.1-4.28,28.44-13.75Z" style="fill:#284190; fill-rule:evenodd;"/><path d="M1157.01,1163.4c4.13,2.53,5.45,5.32,3.94,8.33-6.41,2.85-12.48,2.95-18.21,.31,3.5-.17,8.25-3.05,14.26-8.64Z" style="fill:#284190; fill-rule:evenodd;"/></g><g><path d="M1330.54,205.92s6.91,45.02,8.15,62.66c.63,8.88,1.53,16.01-4.05,21.97,0,0,13.89,1.35,18.6-2.49,0,0-.93,1.89-1.78,2.72,0,0,15.53,.57,21.94-4.29,9.73-6.58,3.3-137.54-43.42-126.76,0,0-43.1-3.67-39.68,38.61-.73,50.22-4.76,93.54-8.13,102.28,4.84,2.77,16.56-6.35,18-10.34,1.28-3.54,1.99-7.67,2.35-8.72,0,0-1.52,12.13-2.22,12.88,0,0,17.41-1.97,24.86-7.59,7.42-5.61,7.49-72.21,5.37-80.94Z" style="fill:#284190; fill-rule:evenodd;"/><path d="M1340.64,223.17s9.17-14.5,11.37-26.9c1.57-8.85-2.93-41.66-35.91-36.95,0,0-9.59,.94-18.59,7.03-7.16,4.84-17.49,15.28-5.93,43.9l3.01,9.67,46.05,3.25Z" style="fill:#284190; fill-rule:evenodd;"/><path d="M1314.64,275.95c-13.49,3.02-30.53,40.51-38.86,64.54-10.61,25.24-13.1,91.65-6.94,93.82-11.37,28.7,55.82,1.06,52.73,.76-3.11-.3-6.93-159.11-6.93-159.11Z" style="fill:#8ab9e8; fill-rule:evenodd;"/><path d="M1284.58,318.13c8.82-19.99,20.35-40,30.05-42.18,0,0,.34,14.21,.9,34.12-3.72,44.06-10.04,108.8-11.64,125.12-77.29,.41-10.88,6.81-19.31-117.06Z" style="fill:#4f8dcb; fill-rule:evenodd;"/><path d="M1364.23,267.65s16.33,8.21,30.63,17c7.98,4.91,16.23,19.83,13.94,22.46-1.57,1.8-6.02-1.28-4.82-.67,10,5.11-14.87,145.05-23.32,151.47-8.46,6.42-82.92,1.1-91.4-6.97-8.48-8.09,6.51-32.89-.83-82.55-7.33-49.66,22.37-92.53,26.19-92.44,3.81,.1,28.73-8.3,28.73-8.3h20.87Z" style="fill:#619fdf; fill-rule:evenodd;"/><path d="M1380.67,457.91c-8.46,6.42-61.74,6.56-84.42-.49-2.56-.8-14.18-5.43-14.45-9.79,2.74-.51,13.61,.8,18.01-.22,15.35-3.52,23.79-22.52,23.79-22.52,0,0,8.45-3.04,27.34-11.05,18.9-8,11.12-32.23,11.56-42.9,.45-10.67,12.07-37.37,46.31-63.83l3.2,6.3c2.44,24.32-23.51,138.57-31.33,144.5Z" style="fill:#4f8dcb; fill-rule:evenodd;"/><path d="M1348.52,210.21l16.65,60.86s-28.14,43.92-35.88,40.02c-7.73-3.91,4.33-35.7,4.33-40.02s-12.06-48.91-12.06-48.91l26.95-11.95Z" style="fill:#ffb17d; fill-rule:evenodd;"/><path d="M1333.04,274.17c.36-1.45,.58-2.53,.58-3.1,0-4.33-12.06-48.91-12.06-48.91l26.95-11.95,5.51,20.14c-4.82,20.8-13.5,34.65-20.99,43.82Z" style="fill:#ef8161; fill-rule:evenodd;"/><path d="M1293.09,215.1c.12,9.37,3.86,23.44,12.3,35.62,8.28,11.94,14.38,12.81,25.09,5.68,9.25-6.17,20.26-20.27,19.25-34.97,2.77-21.24-8.46-40.21-25.09-42.39-16.62-2.17-32.75,14.66-31.56,36.05Z" style="fill:#ffb17d; fill-rule:evenodd;"/><path d="M1215.69,451.26c-32.31-4.9-43.29-3.36-63.06,33.44-19.77,36.79-46.09,103.05-61.22,111.61-22.79,12.89-30.34,44.48-39.7,43.06-9.36-1.42-15.39,2.72-5.2,11.18,10.18,8.46,26.63,15.67,32.25,14.17,5.62-1.5,9.99-25.8,24.67-33.69,14.69-7.89,10.27-14.37,9.31-21.35-.97-6.98,42.87-39.1,75.92-79.06,20.19-24.42,30.59-40.53,32.13-55.14,1.54-14.6-5.1-24.21-5.1-24.21Z" style="fill:#ffb17d; fill-rule:evenodd;"/><path d="M1135.6,584.69c7.5-19.04,15.03-50.46,22.1-79.26,10.06-40.97,20.61-50.69,27.29-55.06,8.08-2.02,17.64-1.09,30.7,.89,0,0,6.64,9.62,5.1,24.21-1.54,14.61-11.94,30.72-32.13,55.14-17.4,21.04-37.79,39.9-53.06,54.08Z" style="fill:#f3a169; fill-rule:evenodd;"/><path d="M1205.85,483.65s8.6,64.86,16.61,71.45c5.72,4.71,9.78,5.03,13.78-14.31,4-19.35-6.23-91.54-6.23-91.54l-24.16,34.4Z" style="fill:#3b5bb2; fill-rule:evenodd;"/><polygon points="1212.7 518.75 1292.25 532.11 1247.34 467.71 1213.16 460.75 1192.66 465.46 1212.7 518.75" style="fill:#ef9859; fill-rule:evenodd;"/><path d="M1378.06,453.86c28.22,50.65,8.94,82.84-25.36,86.12-34.3,3.28-88.45-2.98-120.03-29.21-31.57-26.23-57.48-53.97-53.87-58.11,3.62-4.14,199.25,1.2,199.25,1.2Z" style="fill:#f3a169; fill-rule:evenodd;"/><path d="M1218,491.66c-5.78-17.34-12.44-30.65-25.34-30.9-13.57-.25-21.91,6.81-22.49,28.99-.69,26.42-1.62,113.93-.4,152.84,.92,29.46-7.66,38.89-6.93,69.59,.54,23.12-24.11,11.44-14.58,23.44,6.55,8.24,26.04,5.54,38.02,4.02,10.67-1.37-5.53-33.34,9.24-41.88,12.67-7.34,12.92-19.25,4.92-28.26-8-9.02-.89-35.69,4.44-54.37,5.33-18.67,13.61-38.87,19.05-83.03,1.55-12.59-2.39-29.86-5.92-40.45Z" style="fill:#ffb17d; fill-rule:evenodd;"/><path d="M1328.87,272.32c-4.55,16.67-5.42,26.91-4.63,33.37,.36,2.99,1.29,5.08,2.77,6.27,1.68,1.34,3.81,1.47,6.33,.36,3.47-1.52,8.08-5.7,13.68-12.59h0c4.52-5.39,10.68-14.7,17.85-25.54l2.44-3.68-3.76-1.67-2.06,3.12c-7.1,10.73-13.2,19.96-17.58,25.17v.03c-5.21,6.39-9.3,10.2-12.19,11.45-1.04,.45-1.77,.51-2.19,.17-.62-.49-1.05-1.68-1.28-3.57-.64-5.34,.85-15.4,4.26-29.05,.41-1.63,.83-3.36,1.09-5.32l-4.74,1.48Z" style="fill:#4f8dcb; fill-rule:evenodd;"/><path d="M1156.69,726.18c4.09,1.25,9.13,2.62,13.51,2.77,8.89,.3,11.56-9.49,12.15-22.77,.52-11.61,8.94-29.88,17.59-37.29,.16,.21,.32,.42,.49,.62,8,9.01,7.75,20.92-4.92,28.26-14.77,8.55,1.43,40.52-9.24,41.88-11.98,1.52-31.47,4.21-38.02-4.02-6.19-7.8,1.49-8.43,8.43-9.45Z" style="fill:#284190; fill-rule:evenodd;"/><path d="M1052.66,639.36c3.45,3.07,7.8,6.72,12.18,8.97,8.88,4.56,17.1-2.7,25.18-14.03,7.06-9.9,14.77-24.33,27.73-26.63,.04,.27,.09,.52,.16,.78,3.06,11.76,7.24,24.59-9.77,24.87-19.83,.32-21.38,36.13-32.99,32.15-13.03-4.47-34.37-11.56-36.38-21.95-1.9-9.82,6.26-6.64,13.89-4.17Z" style="fill:#284190; fill-rule:evenodd;"/><path d="M1198.43,666.2s12.97,13.55,11.78,19.17c-1.18,5.64-5.18,19.86-5.85,30.84-.67,10.96-1.26,23.55-1.26,23.55,0,0-4.67,0-5.04-1.33-.37-1.32-2.97-44.58-2.97-44.58l3.34-27.66Z" style="fill:#284190; fill-rule:evenodd;"/><path d="M1117.75,607.68s5.56,18.13,1.18,22.48c-4.38,4.36-5.32,14.31-12.18,23.58-6.86,9.27-14.55,19.99-14.55,19.99,0,0-4.75-2.26-4.38-3.6,.37-1.34,22.09-40.43,22.09-40.43l7.84-22.01Z" style="fill:#284190; fill-rule:evenodd;"/><path d="M1391.66,449.24s13.09,53.74,2.1,80.56c-5.56,13.57-13.91,15.15-48.09,14.32-33.18-.81-75-1.57-86.23-2.09-14.01-.8-29.43,15.05-29.43,15.05,0,0,9.79-39.64,3.11-71.66-6.67-32.01-17.43-34.16-17.43-34.16l14.32-2.02h161.65Z" style="fill:#4567c5; fill-rule:evenodd;"/><path d="M1395.45,430.66c-7.16,15.19,7.71,41.43,2.5,48.98-5.21,7.56-35.04,1.06-54.58-14.67-19.55-15.73-56.53-19.19-56.53-19.19l108.62-15.12Z" style="fill:#619fdf; fill-rule:evenodd;"/><path d="M1320.61,444.94c-4.54,2.01-24.4,2.07-31.49,.51-7.09-1.56-1.78-11.51,.9-14.33,2.69-2.82,15.16-3.12,16.31-4.28,1.15-1.15-7.43-.92-8.29-2.41-.85-1.51,9.34-1.81,14.33-3.23,2.01,.73,11.27,3.91,18.38,2.88,.22,4.45-.36,10.52,2.03,17.34-2.78,1.08-10.27,2.67-12.17,3.52Z" style="fill:#ffb17d; fill-rule:evenodd;"/><path d="M1394.27,433.55c-.2,1.25-.93,4.09-.73,5.09-.78,.09-2.4,.15-3.19,.24-3.08,.37-6.14,.73-9.17,1.08-1.66,.2-3.31,.38-4.94,.56-20.74,2.3-38.49,3.75-40.48,2.05,15.74-2.4,16.36-2.93,17.62-3.01,15.22-1.05,28.09-4.46,40.89-6Z" style="fill:#619fdf; fill-rule:evenodd;"/><path d="M1305.77,175.68c-20.48,12.01-14.04,20.19-19.34,31.1,0,0-6.14-21.11,3.46-32.73,10.2-12.35,15.88,1.63,15.88,1.63Z" style="fill:#284190; fill-rule:evenodd;"/><path d="M1303.02,174.66s8.09,31.71,30.05,41.86c0,0-21.96-19.48-23.82-40.41-1.87-20.92-6.22-1.45-6.22-1.45Z" style="fill:#284190; fill-rule:evenodd;"/><path d="M1297.75,174.55c2.72-1.27,4.6-1.01,5.65,.8-.71,4.29-2.72,7.47-6.04,9.53,1.1-1.87,1.23-5.31,.38-10.33Z" style="fill:#284190; fill-rule:evenodd;"/><path d="M1328.19,166.3c-3.59-1-5.14-2.77-4.66-5.32,4.13-3.46,8.6-4.82,13.39-4.06-2.55,.86-5.45,3.99-8.72,9.38Z" style="fill:#284190; fill-rule:evenodd;"/><g><path d="M1301.79,171.18s11.34,30.27,28.75,34.75c17.4,4.49,24.97-.18,24.97-.18,0,0-13.36-10.61-16.12-29.12,0,0-29.05-19.86-37.59-5.44Z" style="fill:#284190; fill-rule:evenodd;"/><path d="M1344.46,208.68h0c-4.29,0-9.04-.67-14.12-1.98-17.61-4.52-28.83-33.99-29.3-35.24l-.13-.36,.19-.33c2.22-3.75,5.9-5.65,10.95-5.65,11.82,0,27.15,10.39,27.79,10.84l.29,.2,.06,.35c2.68,17.96,15.69,28.51,15.82,28.61l.9,.71-.97,.6c-.15,.09-3.73,2.25-11.47,2.25Zm-41.78-37.42c1.36,3.43,12.28,29.83,28.06,33.89,4.95,1.28,9.57,1.92,13.72,1.92h0c4.96,0,8.11-.94,9.6-1.53-3.12-2.86-12.97-12.95-15.41-28.45-2.16-1.43-16.14-10.36-26.6-10.36-4.29,0-7.44,1.52-9.37,4.52Z" style="fill:#284190;"/></g><path d="M1348.19,238.45c-.14-.51-.26-.99-.38-1.47,1.34-4.39,1.79-9.39,1.16-14.88,4.21-3.7,13.31-.54,21.02,1.81,3.36,31.02,3.33,62.42,1.47,64.75-3.88,4.85-13.26,4.29-13.26,4.29,.52-.84,1.08-2.72,1.08-2.72-2.85,3.84-11.24,2.49-11.24,2.49,3.37-5.96,2.83-13.09,2.45-21.97-.33-7.61-1.29-20.31-2.28-32.29Z" style="fill:#284190; fill-rule:evenodd;"/><path d="M1343.82,220.96c.29,5.35,3.72,9.52,7.66,9.31,3.94-.21,6.92-4.72,6.63-10.07-.28-5.35-3.7-9.52-7.66-9.31-3.95,.21-6.92,4.72-6.64,10.07Z" style="fill:#ffb17d; fill-rule:evenodd;"/><path d="M1351.73,204.95c-4.75-3.45-8.46-3.63-11.14-.55-.23,8.49,2.47,15.32,8.08,20.51-1.42-3.99-.41-10.64,3.07-19.96Z" style="fill:#284190; fill-rule:evenodd;"/><path d="M1296.41,189.51c-2.21-8.29-4.52-10.72-6.92-7.31-2.06,13.52-1.91,26.07,.46,37.63,0-7.23,2.15-17.34,6.46-30.32Z" style="fill:#284190; fill-rule:evenodd;"/><path d="M1316.54,176.9c2.64-8.16,2.02-11.45-1.84-9.9-9.09,10.23-15.78,20.84-20.07,31.84,6.99-6.46,22.89-14.84,21.9-21.94Z" style="fill:#284190; fill-rule:evenodd;"/><path d="M1327.49,165.48c1.39-1,2-2.78,1.82-5.32-1.61-3.46-3.35-4.81-5.21-4.06,.99,.86,2.12,3.99,3.4,9.38Z" style="fill:#284190; fill-rule:evenodd;"/><path d="M1329.64,307.68c-2.22-.39-4.47,1.92-5.03,5.14-.55,3.22,.8,6.14,3.02,6.52,2.22,.38,4.47-1.92,5.03-5.14,.55-3.23-.8-6.14-3.02-6.52Z" style="fill:#4f8dcb; fill-rule:evenodd;"/><path d="M1327.13,317.55c-1.37-.23-2.75,1.18-3.09,3.17-.34,1.99,.49,3.79,1.86,4.02,1.37,.23,2.75-1.18,3.09-3.17,.34-1.98-.49-3.78-1.86-4.02Z" style="fill:#4f8dcb; fill-rule:evenodd;"/><path d="M1325.81,323.73c-1.21-.21-2.42,1.04-2.72,2.78-.31,1.74,.43,3.33,1.63,3.53,1.21,.21,2.43-1.04,2.72-2.78,.3-1.74-.43-3.33-1.63-3.53Z" style="fill:#4f8dcb; fill-rule:evenodd;"/><path d="M1408.12,301.54c13.76,43.98,11.61,40,20.45,67.14,6.45,19.79,16.66,49.92,1.66,55.11-26.78,9.25-91.69,22.17-95.67,18.78-4.67-4-5.37-17.88-4.71-19.89,.67-2,67.26-26.79,67.26-26.79,0,0-8.8-17.15-12.14-50.67-3.33-33.51,19.82-48,23.13-43.69Z" style="fill:#619fdf; fill-rule:evenodd;"/><g><path d="M1131.74,337.95h144.44c2.85,0,5.79,2.32,6.53,5.17l25.7,97.86c.75,2.85-.97,5.17-3.81,5.17h-144.44c-2.85,0-5.78-2.32-6.53-5.17l-25.7-97.86c-.75-2.85,.97-5.17,3.81-5.17Z" style="fill:#a3cffb; fill-rule:evenodd;"/><path d="M1303.25,407.2l-17.45-66.43c-.75-2.85-3.69-5.17-6.54-5.17h-144.43c-2.85,0-7.92,3.68-7.07,6.49-.14-2.35,1.49-4.14,3.98-4.14h144.44c2.85,0,5.79,2.32,6.53,5.17l25.7,97.86c.45,1.71,.01,3.22-1.02,4.17,2.38-1.53,4.64-4.5,4.11-6.52l-8.25-31.43Z" style="fill:#1e77d0; fill-rule:evenodd;"/><path d="M1304.6,446.15h-144.44c-.53,0-1.07-.07-1.59-.23,2.88,7.44,10.68,6.35,13.73,6.33h171.25c9.27-.39,9.03-6.9,9.15-13.17h-41.14c.13,1.99-1.98,4.65-4.18,6.07-.7,.63-1.66,1-2.79,1Z" style="fill:#1e77d0; fill-rule:evenodd;"/><path d="M1284.38,378.18c-15.48,7.84-33.8,10.24-52.63,11.21,.21,.68,.37,1.37,.48,2.07,1.26,7.95-4.34,14.7-12.42,14.7-7.61,0-14.52-6.03-15.71-13.52-.13-.81-.19-1.62-.17-2.4-19.55,.52-38.44,1.6-54.06,7.71l10.74,40.9h139.71l-15.93-60.67Z" style="fill:#1e77d0; fill-rule:evenodd;"/><path d="M1216.69,382.68c5.18,0,10.04,4.19,10.86,9.37,.82,5.18-2.71,9.38-7.89,9.38s-10.04-4.2-10.86-9.38c-.82-5.18,2.72-9.37,7.89-9.37Z" style="fill:#1e77d0; fill-rule:evenodd;"/></g></g><g><path d="M896.39,1296.48h39.73c1.68,0,3.05,1.37,3.05,3.05v39.74c0,1.68-1.37,3.05-3.05,3.05h-39.73c-1.69,0-3.05-1.37-3.05-3.05v-39.73c0-1.68,1.37-3.05,3.05-3.05Z" style="fill:#619fdf;"/><path d="M919.12,1330.42l16.88-27.69,6.95-11.42c1.22-1.99,.59-4.6-1.41-5.81-1.99-1.22-4.6-.59-5.81,1.4l-6.34,10.41-14.29,23.44-11.22-15.43c-1.37-1.89-4.02-2.31-5.92-.94-1.89,1.37-2.31,4.02-.94,5.91l14.96,20.58c1.37,1.9,4.02,2.32,5.92,.95,.53-.39,.94-.86,1.23-1.39Z" style="fill:#fff; fill-rule:evenodd;"/></g><g><path d="M1131.58,203.32h92.54c4.28,0,7.79,3.51,7.79,7.79v69.57c0,4.28-3.5,7.79-7.79,7.79h-26.75c-10.72,7.6-16.93,17.36-18.62,29.28-2.47-15.53-9.28-25.29-20.43-29.28h-26.75c-4.29,0-7.79-3.5-7.79-7.79v-69.57c0-4.29,3.5-7.79,7.79-7.79Z" style="fill:#fff; fill-rule:evenodd;"/><path d="M1131.58,201.56h92.54c2.63,0,5.02,1.07,6.74,2.8,1.73,1.73,2.8,4.12,2.8,6.74v69.58c0,2.63-1.07,5.01-2.8,6.74-1.73,1.73-4.11,2.8-6.74,2.8h-26.19c-4.95,3.57-8.88,7.64-11.77,12.2-2.97,4.66-4.86,9.86-5.67,15.56-.13,.96-1.02,1.63-1.98,1.5-.81-.11-1.42-.76-1.5-1.55-1.19-7.46-3.41-13.51-6.65-18.16-3.13-4.48-7.24-7.67-12.32-9.56h-26.46c-2.63,0-5.02-1.07-6.74-2.8-1.72-1.73-2.8-4.11-2.8-6.74v-69.58c0-2.62,1.08-5.01,2.8-6.74,1.73-1.73,4.12-2.8,6.74-2.8h0Zm92.54,3.52h-92.54c-1.66,0-3.16,.68-4.26,1.77-1.09,1.09-1.77,2.6-1.77,4.25v69.58c0,1.66,.68,3.16,1.77,4.26,1.09,1.09,2.6,1.77,4.26,1.77h26.75c.2,0,.4,.04,.59,.1,5.92,2.13,10.7,5.78,14.31,10.97,2.35,3.38,4.21,7.39,5.56,12.06,1.09-3.28,2.55-6.38,4.4-9.3,3.19-5.01,7.54-9.49,13.02-13.39,.31-.28,.72-.44,1.16-.44h26.75c1.65,0,3.16-.68,4.26-1.77,1.09-1.1,1.77-2.6,1.77-4.26v-69.58c0-1.65-.68-3.16-1.77-4.25-1.09-1.1-2.6-1.77-4.26-1.77Z" style="fill:#619fdf; fill-rule:evenodd;"/></g><g><path d="M1142.65,222.9h70.39c1.72,0,3.12,1.4,3.12,3.12v39.38c0,1.72-1.4,3.12-3.12,3.12h-70.4c-1.72,0-3.12-1.4-3.12-3.12v-39.38c0-1.72,1.4-3.12,3.12-3.12Z" style="fill:#98c4f1;"/><path d="M1179.93,243.82l22.91,14.93,12.82,8.35c-.56,.86-1.52,1.42-2.61,1.42h-70.4c-1.09,0-2.06-.57-2.61-1.42l12.82-8.35,22.9-14.93c1.69-1.13,2.51-1.08,4.18,0Z" style="fill:#619fdf; fill-rule:evenodd;"/><path d="M1179.93,248.7l22.91-14.93,13.2-8.6c-.38-1.3-1.58-2.27-3-2.27h-70.4c-1.42,0-2.62,.97-3,2.27l13.2,8.6,22.9,14.93c1.69,1.13,2.51,1.08,4.18,0Z" style="fill:#c2def9; fill-rule:evenodd;"/></g><g><g><path d="M1667.31,762.48h131.28c6.07,0,11.05,4.98,11.05,11.05v98.7c0,6.08-4.98,11.05-11.05,11.05h-37.94c-15.22,10.78-24.03,24.62-26.42,41.54-3.5-22.03-13.16-35.88-28.98-41.54h-37.94c-6.08,0-11.05-4.97-11.05-11.05v-98.7c0-6.08,4.97-11.05,11.05-11.05Z" style="fill:#fff; fill-rule:evenodd;"/><path d="M1667.31,759.98h131.28c3.73,0,7.12,1.53,9.57,3.97,2.45,2.46,3.97,5.84,3.97,9.57v98.7c0,3.73-1.53,7.12-3.97,9.56-2.45,2.45-5.84,3.98-9.57,3.98h-37.16c-7.02,5.07-12.59,10.84-16.69,17.3-4.21,6.62-6.89,13.99-8.04,22.09-.19,1.36-1.45,2.31-2.81,2.13-1.15-.16-2.01-1.09-2.13-2.2-1.7-10.58-4.84-19.17-9.44-25.75-4.43-6.36-10.26-10.89-17.47-13.56h-37.53c-3.73,0-7.12-1.53-9.57-3.98-2.44-2.45-3.96-5.84-3.96-9.56v-98.7c0-3.73,1.53-7.12,3.96-9.57,2.46-2.45,5.85-3.97,9.57-3.97h0Zm131.28,4.99h-131.28c-2.35,0-4.49,.97-6.04,2.51-1.55,1.55-2.51,3.69-2.51,6.04v98.7c0,2.35,.97,4.49,2.51,6.04,1.55,1.55,3.7,2.51,6.04,2.51h37.94c.28,.01,.57,.06,.84,.16,8.4,3.01,15.17,8.2,20.3,15.56,3.34,4.78,5.98,10.49,7.89,17.09,1.54-4.66,3.62-9.04,6.25-13.17,4.52-7.12,10.68-13.46,18.47-19.01,.44-.39,1.02-.62,1.65-.62h37.94c2.35,0,4.49-.96,6.04-2.51,1.55-1.55,2.52-3.69,2.52-6.04v-98.7c0-2.35-.97-4.49-2.52-6.04-1.55-1.55-3.69-2.51-6.04-2.51Z" style="fill:#fb9674; fill-rule:evenodd;"/></g><g><path d="M1708.83,845.21v-27.55c0-10.99,7.44-20.32,17.54-23.2v-2.28c0-3.62,2.96-6.58,6.58-6.58h0c3.62,0,6.58,2.96,6.58,6.58v2.28c10.09,2.88,17.55,12.22,17.55,23.2v27.55c5,12.18,9.59,4.81,9.59,20.15h-67.44c0-15.34,4.59-7.97,9.59-20.15h0Zm17.45-44.61c-12.8,4.58-12.52,15.86-11.92,31.32,.58-12.12,4.83-25.39,11.92-31.32h0Zm15.43,67.37c-.22,4.65-4.06,8.36-8.77,8.36s-8.54-3.71-8.76-8.36h17.52Z" style="fill:#f47a44; fill-rule:evenodd;"/><path d="M1745.27,789.33c-1.25-.29-2.03-1.54-1.75-2.79,.29-1.25,1.54-2.03,2.79-1.75,6.45,1.5,12.09,5.96,16.06,12.28,3.83,6.07,6.12,13.88,6.12,22.37,0,1.29-1.04,2.32-2.32,2.32s-2.34-1.04-2.34-2.32c0-7.6-2.03-14.54-5.39-19.89-3.33-5.29-7.96-9.01-13.17-10.22h0Zm-25.69-4.54c1.25-.28,2.5,.5,2.79,1.75,.29,1.25-.49,2.5-1.75,2.79-5.21,1.21-9.83,4.93-13.16,10.22-3.36,5.35-5.4,12.29-5.4,19.89,0,1.29-1.05,2.32-2.33,2.32s-2.33-1.04-2.33-2.32c0-8.49,2.3-16.3,6.12-22.37,3.97-6.32,9.61-10.78,16.06-12.28h0Zm-1.68-12.97c-8.77,2.03-16.44,8.13-21.87,16.76-5.25,8.35-8.42,19.08-8.42,30.77,0,1.29,1.05,2.33,2.33,2.33s2.33-1.04,2.33-2.33c0-10.8,2.89-20.67,7.68-28.29,4.79-7.6,11.45-12.95,18.98-14.7,1.25-.28,2.03-1.53,1.75-2.78-.29-1.25-1.54-2.03-2.79-1.75h0Zm29.07,4.53c7.52,1.75,14.19,7.1,18.97,14.7,4.79,7.62,7.68,17.49,7.68,28.29,0,1.29,1.05,2.33,2.34,2.33s2.32-1.04,2.32-2.33c0-11.69-3.16-22.42-8.41-30.77-5.43-8.63-13.1-14.72-21.88-16.76-1.25-.28-2.5,.5-2.78,1.75-.29,1.25,.49,2.5,1.75,2.78Z" style="fill:#fb9674; fill-rule:evenodd;"/></g></g><g><path d="M1788.84,1165.42c20.66,18.86,11.68,37.73-3.59,72.76-15.27,35.04-17.96,164.4-17.96,164.4l12.56-1.8s-1.8-132.96,15.27-168.88c17.08-35.94,24.27-53.9,39.53-42.22,15.27,11.68-45.81-24.26-45.81-24.26Z" style="fill:#8ab9e8; fill-rule:evenodd;"/><path d="M1777.5,1140.99c2.5-11.19,17.41-23.28,37.33-33.54-2.97,16.49-12.45,43.45-2.63,48.99,13.26,7.45,1.29-30.19,6.4-50.88,18.72-9.14,41.24-16.61,61.96-20.33-.04,.08-.06,.16-.08,.23-11.68,29.65-26.95,41.33-20.66,45.81,4.72,3.38,20.13-30.86,40.49-48.41,15.27-.81,28.19,1.25,35.83,7.31,11.81,9.35,19.74,17.65,7.87,46.13-6.78,4.84-15.58,8.32-25.79,9.35-26.95,2.69-39.53,3.6-20.66,12.58,9.24,4.39,24.7-.25,37.27-3.09-4.07,7.51-9.09,16-15.17,25.68-3.86,6.13-8.11,11.45-12.63,16.07-8.69,1.66-16.25,1.68-20.26-.04-12.56-5.39-44.9-22.46-52.99-15.27-7.92,7.03,59.89,11.49,55.2,29.36-32.87,18.93-70.49,9.92-77.13-7.47-8.94-23.34-41.89-28.85-34.34-62.5Z" style="fill:#c2def9; fill-rule:evenodd;"/><path d="M1845.45,1268.72c-35.95-26.95-72.77-1.8-91.64,26.95-18.85,28.74-5.39,93.42-5.39,93.42,0,0,7.19,0,7.19-2.69s-19.76-76.35,26.95-109.6c29.23-20.79,50.3-10.77,53-.89,2.69,9.88-11.67,27.85-11.67,27.85l21.57-35.04Z" style="fill:#8ab9e8; fill-rule:evenodd;"/><path d="M1762.79,1213.32c35.94,0,47.62,55.71,37.73,88.04-9.88,32.34-23.36,92.52-23.36,92.52l-8.98-8.98s34.14-84.45,26.04-122.18c-8.09-37.72-27.83-44.02-31.44-44.02s0-5.39,0-5.39Z" style="fill:#8ab9e8; fill-rule:evenodd;"/><path d="M1792.92,1301.62c2.54-3.36,5.65-6.12,9.46-7.96-.49,2.69-1.1,5.26-1.86,7.71-4.5,14.74-9.73,35.25-14.13,53.21-.38-2.29-1.02-5.85-1.95-11.32-.24-1.29-.4-2.69-.54-4.18,3.53-11.97,6.86-25.01,9.02-37.47Z" style="fill:#8ab9e8; fill-rule:evenodd;"/><path d="M1802.76,1301.89c68.26-28.75,32.3-68.2,92.49-42.15,4.24,1.83,9.39,6.46,14.57,12.84-5.35,1.52-11.83,2.61-19.07,1.53-17.96-2.69-11.68,11.68,17.98,15.27,5.57,.67,10.11,1.61,13.88,2.93,14.13,27.13,20.5,62.82-9.4,75.22-5.89,2.45-13.16,3.84-21.27,4.37-9.22-7.33,2.26-49.75-11.98-43.9-13.64,5.63,4.3,36.37,1.84,44.11-13.48-.24-28.41-2.44-42.65-5.98-5.65-3.16-9.97-7.4-11.28-12.97-4.5-18.87,25.14-30.55,26.05-46.72,.81-14.86-10.89,32.71-41.83,39.71-28.02-13.08-41.26-30.84-9.34-44.27Z" style="fill:#a3cffb; fill-rule:evenodd;"/><path d="M1754.11,1251.06c7.19-15.27-11.69-18.87-10.77-7.19,.78,10.35,.87,35.5-9.74,42.36-18.29-1.99-43.2-9.36-62.03-20.6-.24-1.52,0-3.09,.79-4.68,8.09-16.17,60.19-29.65,44.01-35.03-12.86-4.3-35.44,21.04-53.63,33.8-10.92-8.29-18.24-18.16-18.24-29.19,0-14.92,18.14-31.82,41.59-39.89,10.55,1.07,20.37,6.84,35.67,15.52,22.62,12.81,17.39-7.92-4-20.21,18.48,.96,36.87,8.85,50.46,27.69,0,0-1.29,8.05,7.23,20.52,23.26,33.99-3.59,53.84-35.67,52.55,1.83-8.96,9.36-25.09,14.32-35.63Z" style="fill:#c2def9; fill-rule:evenodd;"/><path d="M1843.28,1267.2c17.56,13.58,37.07,29.45,61.02,40.23,23.97,10.79,19.17,45.91,19.17,45.91,0,0,3.59-30.34-16.38-40.72-19.97-10.39-33.13-22.76-48.3-25.16-15.19-2.4-23.57-4.79-23.57-4.79,0,0,4.79-9.59,2-13.18-2.8-3.59,6.05-2.29,6.05-2.29Z" style="fill:#8ab9e8; fill-rule:evenodd;"/><path d="M1929.87,1107.79c-64.28,17.17-111.38,58.29-120.19,68.28-8.78,9.97-8.78,12.78-8.78,12.78l6.8,12.78,3.2-1.61s-5.2-10.77,8.38-24.75c23.42-24.1,51.91-43.13,71.47-51.51,19.57-8.38,39.12-15.96,39.12-15.96Z" style="fill:#8ab9e8; fill-rule:evenodd;"/><path d="M1752.42,1463.62h24.57c17.46,0,31.62-14.16,31.62-31.62v-56.43h-87.82v56.43c0,17.46,14.16,31.62,31.62,31.62Z" style="fill:#8ab9e8; fill-rule:evenodd;"/><rect x="1720.8" y="1385.65" width="87.81" height="6.18" style="fill:#fff;"/><rect x="1720.8" y="1396.92" width="87.81" height="3.63" style="fill:#fff;"/></g></g></svg>