<?xml version="1.0" encoding="UTF-8"?><svg id="a" xmlns="http://www.w3.org/2000/svg" viewBox="0 0 1763.95 1136.23"><path d="M338.06,163.68c228.27-88.13,460.27-10.23,617.61,159.5,78.71,84.88,200.66,55.55,324.81,26.23,124.08-29.32,250.35-58.64,337.89,26.06,119.52,115.61,64.81,412.88-99.09,541.64-222.75,175-1052.59,180.28-1190.3,120.22-235.29-102.63-1.51-292.66-111.35-474.86-129.56-214.92,19.55-359.86,120.43-398.79h0Zm0,0" style="fill:#e7f3fe; fill-rule:evenodd;"/><path d="M1351.11,993.35c227.99,0,412.84,31.98,412.84,71.43s-184.85,71.46-412.84,71.46-412.82-31.98-412.82-71.46,184.82-71.43,412.82-71.43h0Zm0,0" style="fill:#c7dcf5; fill-rule:evenodd;"/><path d="M118.95,846.19c-27.92,12.07-35.61,30,59.15,54.18,45.73,11.67,154.18,31.74,200.24,24.01,72.01-12.14,157.05-62.04,196.06-96.51,31.03-27.44-14.17-61.65-58.61-59.93-132.49,5.18,116.35-92.14,56.42-184.98-15.66-24.31-61.11-2.83-94.83,4.85-37.59,8.54-37.7-34.58-29.93-59.59,15.03-48.39,46.61-93.72,3.98-135.35-52.4-51.21-60.57,40.32-125.38-13.72-24.68-20.54-41.56-85.01-51.78-114.87-21.59-63.1-84.41-123.82-128.68-102.84-46.3,21.99,10.67,98.06,4.51,139.96-12.4,84.41-83.03-26.53-115.83,10.19-58.32,65.23,73.26,145.33,92.83,167.36,13.28,14.96,17.01,29.56-10.29,35.31-30.83,6.49-96.14-35.28-108.75-7.1-49.97,111.72,148.03,125.61,158.66,155.9,13.19,37.46-79.87,4.57-117.29,25.56-60.26,33.82,51.68,77.64,108.82,96.11,98.9,31.91-17.32,51.95-39.31,61.47h0Zm0,0" style="fill:#fbd07d; fill-rule:evenodd;"/><path d="M184.96,197.14c-1.46-3.67-5.59-5.49-9.26-4.01-3.66,1.45-5.47,5.58-4.02,9.25,34.49,87.3,66.5,181.86,96.07,283.69-52.28-24.99-96.15-49.98-131.53-74.96-38.12-26.98-66.24-53.8-84.36-80.54-2.18-3.26-6.62-4.1-9.89-1.88-3.26,2.22-4.09,6.62-1.89,9.88,19.1,28.22,48.42,56.29,87.91,84.21,38.51,27.21,86.82,54.38,145.01,81.51,2.28,8.04,4.56,16.14,6.82,24.29,9.65,34.63,19,70.11,28.12,106.43,.06,.23,.08,.44,.16,.68,3.53,14.15,7.04,28.41,10.49,42.77-52.76-53.17-110.69-72.61-163.87-90.39-48.93-16.41-93.69-31.42-124.99-70.86-2.42-3.09-6.89-3.6-9.99-1.13-3.05,2.42-3.6,6.88-1.15,9.98,33.97,42.8,80.62,58.45,131.62,75.56,57.37,19.21,120.46,40.35,175.17,105.46,6.89,29.39,13.62,59.32,20.14,89.75-35.99-19.13-75.97-36.28-119.95-51.48-49.47-17.11-104.11-31.74-163.92-43.95-3.82-.8-7.62,1.68-8.4,5.55-.81,3.83,1.68,7.6,5.55,8.41,59.02,12.04,113.06,26.56,162.09,43.51,47.68,16.48,90.56,35.28,128.56,56.33,6.73,31.78,13.28,64.06,19.64,96.95,.74,3.87,4.47,6.39,8.34,5.65,3.87-.74,6.42-4.5,5.65-8.37-6.55-33.89-13.33-67.22-20.26-100.01-.08-.23-.11-.47-.14-.7-2.93-13.66-5.85-27.24-8.84-40.73,49.24-26.2,90.29-52.87,123.21-80.03,34.33-28.29,59.96-57.21,76.84-86.7,1.96-3.39,.77-7.76-2.66-9.72-3.4-1.95-7.77-.78-9.71,2.66-16.02,27.94-40.53,55.55-73.52,82.76-31.51,25.96-70.62,51.49-117.35,76.6-3.84-17.15-7.74-34.13-11.68-50.95-.07-.3-.13-.64-.23-.94-5.24-22.44-10.64-44.59-16.07-66.45,46.9-62.18,86.32-139.62,118.23-232.37,1.28-3.73-.74-7.8-4.47-9.08-3.74-1.28-7.77,.73-9.04,4.47-29.87,86.73-66.28,159.77-109.23,219.08-7.99-31.48-16.21-62.31-24.62-92.54-2.55-9.11-5.08-18.19-7.66-27.17-.07-.23-.1-.48-.2-.67-30.9-108.15-64.49-208.06-100.71-299.79h0Zm0,0" style="fill:#ffe0a5; fill-rule:evenodd;"/><path d="M198.77,553.73c-28.08-1.69-41.9,9.88,26.17,69.4,32.86,28.72,113.96,90.56,155.19,103.38,64.47,20.07,155.43,14.39,202,2.25,37.06-9.68,14.06-56.76-23.33-73.88-111.44-51.08,134.46-27.44,123.79-129.07-2.79-26.59-49.23-27.84-80.27-35.6-34.57-8.65-16.65-44.23,.21-61.65,32.62-33.66,77.57-57.84,59.78-109.99-21.81-64.13-66.78,7.97-97.69-63.66-11.77-27.23,1.21-87.47,5.26-116.35C578.41,77.49,551.91,1.15,506.64,.01c-47.38-1.21-32.12,85.31-54.68,117.29-45.5,64.5-57.44-56.53-99.83-39.91-75.33,29.45-.24,150.45,6.68,176.81,4.71,17.89,1.71,31.47-23.2,24.81-28.15-7.53-64.56-69.21-86.77-51.24-87.87,71.3,69.68,165.42,65.81,194.84-4.77,36.42-67.79-29.59-107.44-27.88-63.83,2.76,10.22,85.65,49.67,124.69,68.23,67.63-35.98,35.65-58.14,34.31h.03Zm0,0" style="fill:#ffe0a5; fill-rule:evenodd;"/><path d="M524.19,45.88c.34-3.63-2.32-6.86-5.96-7.16-3.63-.33-6.86,2.32-7.19,5.95-8,86.39-21.05,177.79-39.17,274.1-32.73-42.41-58.46-81.35-77.18-116.72-20.21-38.17-32.22-72.03-35.98-101.66-.47-3.6-3.76-6.14-7.35-5.68-3.64,.47-6.16,3.77-5.73,7.37,4,31.24,16.44,66.65,37.4,106.16,20.39,38.5,48.89,81.08,85.55,127.78-1.45,7.6-2.96,15.24-4.48,22.87-6.51,32.62-13.62,65.77-21.24,99.54-.07,.2-.14,.4-.18,.64-2.96,13.12-6.02,26.37-9.18,39.68-21.32-65.91-61.03-106.13-97.45-143.02-33.53-33.97-64.16-65.01-73.52-110.64-.73-3.53-4.2-5.85-7.76-5.11-3.57,.74-5.86,4.21-5.11,7.77,10.12,49.5,42.07,81.88,77.04,117.3,39.28,39.78,82.5,83.56,100.46,160.13-6.59,27.11-13.55,54.61-20.84,82.42-21.73-30.8-47.52-61.63-77.45-92.54-33.7-34.77-72.64-69.63-116.86-104.68-2.86-2.26-7-1.78-9.29,1.07-2.25,2.82-1.78,7,1.08,9.24,43.65,34.57,82.19,69.11,115.54,103.54,32.48,33.53,60,66.92,82.52,100.18-7.69,28.99-15.81,58.38-24.25,88.14-1.01,3.5,1.01,7.16,4.51,8.17,3.5,.98,7.16-1.04,8.17-4.54,8.74-30.71,17.08-61.04,25.02-91,.07-.2,.1-.4,.17-.63,3.29-12.48,6.57-24.89,9.72-37.26,51.52-1.08,96.56-5.95,135.04-14.59,40.12-9.01,73.32-22.16,99.59-39.41,3.01-2.02,3.86-6.09,1.88-9.15-2.02-3.03-6.09-3.87-9.15-1.88-24.88,16.38-56.59,28.92-95.2,37.57-36.79,8.27-79.72,13.01-128.77,14.22,3.98-15.74,7.87-31.38,11.64-46.88,.11-.31,.16-.57,.2-.88,5.04-20.71,9.85-41.23,14.46-61.54,64.67-31.71,129.5-79.16,194.58-142.35,2.58-2.52,2.65-6.72,.1-9.31-2.57-2.62-6.73-2.65-9.35-.13-60.84,59.12-121.36,104.14-181.55,135.15,6.52-29.28,12.64-58.18,18.32-86.62,1.71-8.58,3.4-17.12,5.04-25.63,.03-.2,.07-.4,.1-.6,19.64-102.14,33.66-198.58,42.07-289.38h0Zm0,0" style="fill:#fbd07d; fill-rule:evenodd;"/><path d="M471.26,178.55h960.21c22.91,0,38.03,18.73,33.67,41.62l-124.56,651.64c-4.37,22.9-26.67,41.64-49.57,41.64H330.8c-22.9,0-38.07-18.73-33.7-41.64L421.67,220.17c4.36-22.9,26.68-41.62,49.59-41.62h0Zm0,0" style="fill:#599dad; fill-rule:evenodd;"/><path d="M463.83,217.31h960.24c1.59,0,2.59,1.31,2.32,2.86l-124.56,651.64c-.29,1.59-1.85,2.86-3.44,2.86H338.19c-1.58,0-2.61-1.28-2.31-2.86L460.43,220.17c.3-1.54,1.82-2.86,3.4-2.86h0Zm0,0" style="fill:#c7dcf5; fill-rule:evenodd;"/><path d="M137,913.45h967.98v31.07c0,17.08-13.95,31.08-31.07,31.08H168.12c-17.12,0-31.12-14-31.12-31.08v-31.07Zm0,0" style="fill:#347e8f; fill-rule:evenodd;"/><path d="M1104.98,913.45v31.07c0,17.08-13.95,31.08-31.07,31.08h226.45c17.11,0,31.1-14,31.1-31.08v-31.07h-226.48Zm0,0" style="fill:#21606e; fill-rule:evenodd;"/><path d="M652.15,680.67l12.18-54.84h-111.25l10.1-45.54,156.47-173.56h43.95l-38.44,173.36h33.9l-10.12,45.73h-33.94l-12.17,54.84h-50.68Zm22.33-100.58l20.64-93.15-83.02,93.15h62.38Zm236.53-173.76c26.41,0,44.94,9.49,55.7,28.38,12.76,22.37,13.38,59.52,1.88,111.35-11.47,51.75-28.68,88.95-51.55,111.58-18.94,18.66-41.56,27.97-67.99,27.97s-45.66-10.22-57.37-30.67c-11.73-20.45-11.77-56.96-.13-109.4,11.44-51.51,28.62-88.61,51.49-111.21,18.93-18.66,41.56-28.01,67.98-28.01h0Zm-9.64,43.45c-6.22,0-12.27,2.02-18,6.09-5.77,4.01-11.18,11.27-16.17,21.73-6.56,13.52-13.42,36.38-20.51,68.47-7.13,32.11-10.42,54.17-9.92,66.15,.51,12,2.73,20,6.66,24,3.97,4,9.05,5.99,15.27,5.99s12.28-2.05,18.06-6.12c5.72-4,11.13-11.23,16.1-21.7,6.52-13.41,13.39-36.21,20.48-68.32,7.13-32.09,10.42-54.11,9.92-66.11-.5-12.01-2.72-20.08-6.66-24.08-3.94-4.07-9.01-6.09-15.24-6.09h0Zm174.61,230.89l12.16-54.84h-111.24l10.1-45.54,156.45-173.56h43.96l-38.47,173.36h33.93l-10.15,45.73h-33.91l-12.16,54.84h-50.67Zm22.32-100.58l20.65-93.15-83.03,93.15h62.38Zm0,0" style="fill:#fff; fill-rule:evenodd;"/><path d="M500.71,750.35l186.28,322.66c5.88,10.25,2.35,23.37-7.9,29.29-3.39,1.92-7.06,2.86-10.7,2.86v.07H294.52c-11.87,0-21.52-9.62-21.52-21.53,0-4.47,1.34-8.6,3.66-12.07l186.2-322.49c5.95-10.25,19.1-13.75,29.39-7.8,3.77,2.19,6.65,5.38,8.47,9.01h0Zm0,0" style="fill:#ed852d; fill-rule:evenodd;"/><path d="M481.45,765.25l-180.78,313.18h347.48v-.17l14.02,.03-180.72-313.04Zm0,0" style="fill:#ffb278; fill-rule:evenodd;"/><path d="M425.53,919.77c30.87-30.84,80.91-30.84,111.78,0,30.84,30.87,30.84,80.91,0,111.77-30.87,30.87-80.91,30.87-111.78,0-30.87-30.87-30.87-80.91,0-111.77h0Zm25.91,8.3l77.57,77.58c13.86-21.92,10.93-50.97-7.83-69.74-18.76-18.76-47.82-21.69-69.73-7.83h0Zm59.95,95.17l-77.54-77.55c-13.86,21.89-10.94,50.98,7.82,69.71,18.74,18.76,47.82,21.69,69.71,7.84h0Zm0,0" style="fill:#fff; fill-rule:evenodd;"/><path d="M1406.32,375.2c-14.76,65.84,55.68,99.71,13.52,206.71,31.28,4.84,68.02,5.35,110.26,1.48-2.35,11.87-4.17,22.42-5.55,30.4,8.8-.34,17.33-2.97,27.03,9.28l.61-1.07,.23-.41,.08-.13,.3-.54,.33-.54,.18-.3,.12-.28,.66-1.14,.09-.17,.54-1.01,.33-.58v-.05l.3-.54,.33-.61,.26-.51,.08-.13,.06-.07,.61-1.18,.2-.37,.13-.23,.68-1.28,.13-.23,.2-.44,.34-.64,.34-.68,.06-.07,.94-1.88,.08-.07,.36-.67,.57-1.15,.1-.23,.37-.7,.33-.71,.16-.3,.21-.41,.64-1.31,.07-.1,.07-.18,.27-.56,.34-.7,.37-.75,.34-.74,.37-.74,.23-.54,.1-.2,.37-.78,.34-.74,.2-.36,.54-1.15,.33-.77,.1-.21,.27-.56,.37-.78,.34-.78v-.03l.71-1.51,.29-.64,.07-.16,.34-.77,.37-.81,.2-.44,.17-.34,.34-.8,.37-.81,.1-.27,.27-.53,.34-.81,.37-.8,.07-.1,.3-.71,.37-.84,.3-.7,.07-.1,.37-.81,.33-.84,.23-.5,.13-.31,.61-1.47,.24-.51,.96-2.32,.08-.09,.93-2.22,.3-.77,.65-1.48,.02-.07v-.06c.62-1.45,1.21-2.89,1.78-4.34l.14-.31,.48-1.21,.46-1.14,.14-.37,.8-1.98,.41-1.05,.48-1.34,.08-.17,.6-1.48,.25-.71,.33-.81,.57-1.51v-.04l.1-.3,.74-1.99,.07-.07,.23-.64,.56-1.51,.08-.21,.87-2.35,.16-.44,.55-1.52,.16-.39,.38-1.08,.44-1.28,.1-.2,.5-1.48,.24-.64,.3-.85,.48-1.44v-.03l.5-1.48,.29-.81,.21-.63,.47-1.48,.06-.16,.44-1.28,.34-.97,.13-.48,.46-1.41,.11-.37,.34-1.08,.37-1.13,.1-.28,.45-1.37,.12-.54,.68-2.18v-.07l.41-1.38,.2-.71,.2-.63,.4-1.39v-.1l.1-.44c.33-1.14,.64-2.29,.94-3.43l.07-.27,.3-1.04,.23-.98,.1-.3,.3-1.28,.1-.41,.06-.16,.44-1.78v-.13l.38-1.58,.05-.21,.14-.64,.26-1.22v-.03c.28-1.17,.51-2.32,.71-3.43l.07-.17,.07-.26,.23-1.28,.06-.21,.07-.3,.19-1.31v-.21c.18-1.01,.32-2.01,.45-2.99l.07-.3,.17-1.39v-2.79l.07-4.17v-1.38l.03-.47v-2.25l.04-.44v-4.03l.03-.44v-2.66l.03-.43v-6.46l.04-.44v-2.52c1.38-165.48-10.91-146.82-97.32-165.42-5.25,14.52-36.67,24.95-45.87,24.38-6.66-3.57-10.06-13.79-15.6-23.27-26.58,5.78-52.84,21.29-67.13,34,12.14-20.95,21.93-41.63,29.4-62.08-3-9.01-7.21-13.04-15.91-17.72-90.9,83.06-117.91,139.15-101.09,150.15,29.62,10.79,97.49-7.71,117.87-27h-.1Zm147.86,84c-8.28,26.63-11.1,47.31-8.44,62.04,3.93-12.07,8.37-23.34,13.39-32.65l-.11-.37v-.03l-.1-.34v-.11l-.07-.3v-.13l-.06-.24-.06-.16-.07-.24-.07-.2-.04-.2-.08-.24-.05-.13-.07-.31v-.1l-.1-.34v-.07l-.07-.37-.09-.4v-.03l-.07-.37v-.07l-.11-.33v-.1l-.06-.27v-.16l-.03-.24-.13-.4-.08-.24-.07-.17-.07-.27v-.13l-.06-.3v-.1l-.07-.37v-.03l-.06-.4-.11-.41v-.03l-.07-.37v-.1l-.07-.34v-.1l-.06-.3v-.17l-.07-.23-.13-.4-.07-.27v-.14l-.04-.3v-.14l-.05-.34v-.06l-.08-.37-.03-.03-.07-.41v-.03l-.08-.4v-.03l-.06-.37v-.1l-.07-.3v-.17l-.06-.27v-.16l-.13-.47v-.2l-.04-.26v-.14l-.06-.34v-.1l-.06-.37v-.03l-.08-.44-.06-.4v-.03l-.07-.4v-.07l-.06-.34v-.14l-.06-.3v-.16l-.07-.28v-.39l-.07-.27v-.17l-.06-.3v-.14l-.07-.34v-.1l-.05-.37v-.07l-.07-.4v-.03l-.07-.41v-.07l-.06-.37v-.1l-.07-.34v-.13l-.07-.31v-.84l-.03-.3v-.14l-.07-.34v-.1l-.06-.37v-.07l-.14-.87c-.08-.97-.19-1.95-.33-2.96h-.03Zm0,0" style="fill:#699dee; fill-rule:evenodd;"/><path d="M1419.91,581.81h-.07c-28.08,73.71-36.22,141.07-34.87,221.98,67.46,17.79,131.21,12.44,207.25-12.11-5.01-69.95,19.57-105.82,2.86-165.18h-.51c-4.19-14.43-10.89-30.27-21.01-48.33-7.57,17.62-15.46,33.8-21.98,44.9-9.73-12.25-18.21-9.62-27.04-9.28,1.38-7.98,3.22-18.53,5.58-30.4l.07-.21c2.62-13.11,5.85-27.8,9.75-42.26-53.13,13.75-89.39,14.09-108.72,1-2.57,14.57-6.32,27.88-11.29,39.89h0Zm0,0" style="fill:#2b478b; fill-rule:evenodd;"/><path d="M1458.78,321.12c9.25,.57,40.62-9.86,45.9-24.38-6.43-9.25-10.29-19.74-11.13-25.59,1.51-2.75,3.16-6.28,4.98-10.59,21.16-9.95,25.25-19.13,12.37-27.54-3.05,1.12-7.26,5.42-12.71,12.85-13.45-2.69-5.65-23.71-2.21-35.01-7.2-15.46-20.48-24.24-50.21-25.05-2.59,7.53-4.98,15.57-7.19,24.11-5.92,3.93-8.01,21.66-6.46,42.67-4.19,11.17,1.94,18.6,18.39,22.26-.5,5.35-3.91,18.69-7.33,23,5.54,9.48,8.98,19.71,15.6,23.27h0Zm0,0" style="fill:#ffb27d; fill-rule:evenodd;"/><path d="M1445.77,185.81c29.74,.81,43.02,9.59,50.21,25.05-3.44,11.3-11.24,32.32,2.21,35.01,5.44-7.43,9.66-11.73,12.71-12.85,12.88,8.41,8.79,17.59-12.37,27.54-1.81,4.31-3.46,7.84-4.98,10.59,.84,5.85,4.7,16.35,11.13,25.59,26.43,28.51,35.01,14.66,56.3,11.67,11.66-21.25-5.95-13.51-5.89-29.65,.08-13.79-22.8-12.88-18.67-31.28,4.04-17.99,18.42-73.07-26.7-72.8-13.04-24.82-110.43-38.64-69.71,29.86,1.81-6.56,3.73-12.77,5.75-18.73h0Zm-.64,87.57c-4.77,7-12.75,9.99-15.63,22.4,0,.13-3.16,3.63-6.16,8.1,6.93-1.24,12.81,8.13,19.84-6.02,1.58-1.99,3.12-5.82,4.4-9.92,1.52-4.91,2.66-10.19,2.93-13.08-1.95-.44-3.73-.94-5.38-1.48h0Zm0,0" style="fill:#b5453c; fill-rule:evenodd;"/><path d="M1473.2,273.14c-5.38,1.18-15.3,2.42-22.7,1.72-.27,2.89-1.41,8.17-2.93,13.08,8-.65,21.73-9.59,25.62-14.8h0Zm0,0" style="fill:#f08261; fill-rule:evenodd;"/><path d="M1376.22,1057.71c10.83,2.79-.87,9.28,5.85,12.64,17.28-5.38,30.6-26.87,38.87-35.88,4.38-4.74,5.34,2.59,5.42,10.63,.15,17.18-4.35,38.94-9.62,44.92-1.86-5.51-1.22-21.29-1.96-31.17-18.02,10.52-17.69,26.19-27.78,29.49-22.23-1.98-34.12-3.73-50.71-6.69-.8-14.76,26.98-4.27,39.92-23.94h0Zm0,0" style="fill:#233862; fill-rule:evenodd;"/><path d="M1638.46,1053.14c10.89-2.38,3.4,8.71,10.93,8.64,12.98-12.61,15.13-37.79,18.47-49.57,1.75-6.22,5.94-.1,9.62,6.99,7.89,15.3,13.75,36.72,11.72,44.46-4.13-4.1-10.72-18.46-15.8-26.93-11.33,17.55-3.96,31.37-11.46,38.87-20.75,8.28-32.11,12.07-48.25,16.92-7.4-12.78,22.12-15.98,24.78-39.38h0Zm0,0" style="fill:#233862; fill-rule:evenodd;"/><path d="M1376.05,331.85c-7.02,13.42-16.1,24.25-27.27,32.52,17.41-9.82,33.89-25.92,49.5-48.32-8.84,5.18-16.48,10.73-22.23,15.8h0Zm162.73,213.3c1.95-7.26,4.26-15.23,6.96-23.91-2.66-14.73,.17-35.41,8.44-62.04-1.88-13.28-3.27-24.55-4.1-33.8-11.1,37.16-14.95,75.76-11.63,115.88,.5-.13,.98-.24,1.48-.37-.41,1.41-.78,2.82-1.14,4.23h0Zm0,0" style="fill:#4a75cb; fill-rule:evenodd;"/><path d="M1644.21,1013.02c2.12,11.74,1.38,24.99-2.22,39.85,5.58,.7,.91,8.95,7.4,8.91,12.2-11.87,14.87-34.8,17.85-47.28-1.75-2.01-3.29-4.44-4.64-7.26-54.33-131.86-36.15-152.6-83.77-201,1.09-3.86,2.12-7.63,3.09-11.33-17.58,5.35-34.57,9.65-51.11,12.81l1.05,3.36c21.75,51.59,69.87,118.47,112.34,201.93h0Zm-224.37-431.21c-1.01,2.59-1.99,5.15-2.93,7.67l2.93-7.67Zm-30.23,223.16c-6.93,52.96,11.73,138.01,6.52,224.8-3.63,9.41-9.18,19.16-16.67,29.25,4.77,3.16-3.24,8.44,2.62,11.33,16.27-5.05,28.99-24.35,37.33-34.13-1.51-2.29-2.76-5.08-3.76-8.34,11.22-95.61,36.14-137.14,22.45-214.79-16.11-1.38-32.21-4.1-48.49-8.14h0Zm0,0" style="fill:#ffb27d; fill-rule:evenodd;"/><path d="M1410.09,229.25c-20.15-6.66-17.01,7.9-20.45,22.83,7.46,4.04,11.61,7.6,14.53,14.26,5.54-4.27,9.81-3.23,13.54-9.11,6.25-7.77,13.99-22.76,5.92-23.64-2.42,6.59-5.47,8.08-9.21,10.76,.27-3.26,.87-6.49,1.85-9.72,1.12-4.17,3.53-8.61,7.37-13.25,7.44-2.05,10.39-4.37,8.91-6.97-9.28-1.48-16.78,3.47-22.46,14.83h0Zm0,0" style="fill:#ffb27d; fill-rule:evenodd;"/><path d="M1527.01,613.72c-3.09,10.89-5.21,21.49-6.29,31.78,5.54,14.33,12.33,22.27,20.38,23.88,9.21-.77,10.96-7.8,13.11-12.81-5.44-4.24-8.67-9.28-9.62-15.13,4.98-3.94,6.26-8.07,3.79-12.37,.98-2.42,1.89-4.61,2.73-6.56-6.12-7.46-11.76-9.08-17.36-9.19-2.25,.03-4.5,.28-6.75,.41h0Zm0,0" style="fill:#ffb27d; fill-rule:evenodd;"/><path d="M1398.29,316.05c-5.35,3.12-10.23,6.39-14.52,9.58-2.87,2.13-5.41,4.21-7.71,6.22-7.02,13.42-16.1,24.25-27.27,32.52,12.1-6.83,23.74-16.68,34.98-29.59,4.9-5.65,9.74-11.9,14.52-18.73h0Zm0,0" style="fill:#4a75cb; fill-rule:evenodd;"/></svg>