<?xml version="1.0" encoding="UTF-8"?><svg id="a" xmlns="http://www.w3.org/2000/svg" viewBox="0 0 2302.76 1408.76"><path d="M871.16,288.02H111.31c5.46-23.09,26.19-40.26,50.94-40.26,1.18,0,2.38,.04,3.56,.14,12-29.38,40.86-50.09,74.56-50.09,14.75,0,28.55,3.98,40.43,10.89,14.49-47.77,58.87-82.55,111.38-82.55,10.68,0,21.03,1.46,30.86,4.16,25.42-56.12,81.91-95.16,147.53-95.16,77.82,0,142.81,54.94,158.34,128.14,1.32-.04,2.61-.1,3.93-.1,49.86,0,91,37.28,97.07,85.48,20.34,3.81,36.54,19.36,41.26,39.36Z" style="fill:#e0e8f5; fill-rule:evenodd;"/><path d="M1233.96,965.27H474.11c5.46-23.09,26.19-40.26,50.94-40.26,1.18,0,2.38,.04,3.56,.13,12-29.37,40.86-50.09,74.56-50.09,14.75,0,28.55,3.98,40.43,10.89,14.49-47.77,58.87-82.55,111.38-82.55,10.68,0,21.03,1.45,30.86,4.16,25.42-56.13,81.91-95.16,147.53-95.16,77.82,0,142.81,54.94,158.34,128.14,1.32-.04,2.61-.1,3.93-.1,49.86,0,91,37.28,97.07,85.47,20.33,3.81,36.54,19.36,41.26,39.36Z" style="fill:#e0e8f5; fill-rule:evenodd;"/><path d="M1595.74,475.09h-566.92c4.07-17.23,19.54-30.04,38-30.04,.88,0,1.78,.04,2.66,.1,8.95-21.91,30.49-37.37,55.63-37.37,11,0,21.3,2.97,30.16,8.12,10.82-35.63,43.92-61.59,83.1-61.59,7.96,0,15.7,1.09,23.03,3.11,18.96-41.88,61.11-71,110.07-71,58.06,0,106.55,40.98,118.13,95.59,.98-.04,1.96-.06,2.93-.06,37.2,0,67.89,27.81,72.42,63.77,15.18,2.84,27.26,14.45,30.79,29.37Z" style="fill:#e0e8f5; fill-rule:evenodd;"/><path d="M2155.53,188.67h-566.92c4.08-17.23,19.54-30.05,38.01-30.05,.88,0,1.78,.04,2.66,.1,8.95-21.91,30.48-37.36,55.63-37.36,11,0,21.29,2.97,30.16,8.12,10.81-35.64,43.92-61.59,83.1-61.59,7.97,0,15.69,1.09,23.02,3.11C1840.15,29.12,1882.3,0,1931.25,0c58.06,0,106.55,40.99,118.13,95.59,.98-.03,1.96-.06,2.94-.06,37.19,0,67.89,27.81,72.42,63.77,15.17,2.84,27.26,14.45,30.78,29.37Z" style="fill:#e0e8f5; fill-rule:evenodd;"/><ellipse cx="1151.38" cy="1341.11" rx="1151.38" ry="67.65" style="fill:#c4d1eb;"/><polygon points="1606.16 261.64 1514.33 312.09 1531.26 322.81 1491.33 353.11 1508.22 364.67 1444.83 412.47 1536.66 362.02 1519.74 351.3 1559.66 321 1542.77 309.44 1606.16 261.64" style="fill:#b0c2e4; fill-rule:evenodd;"/><polygon points="1517.62 179.55 1456.86 264.92 1476.77 267.21 1453.99 311.86 1474.22 314.92 1437.92 385.54 1498.68 300.18 1478.77 297.88 1501.56 253.24 1481.33 250.17 1517.62 179.55" style="fill:#b0c2e4; fill-rule:evenodd;"/><polygon points="618.42 211.9 659.56 301.36 680.19 280.4 721.53 336.16 683.96 249.29 662.86 271.24 618.42 211.9" style="fill:#b0c2e4; fill-rule:evenodd;"/><polygon points="1776.41 203.41 1819.54 297.22 1841.17 275.24 1884.52 333.7 1845.13 242.61 1823 265.62 1776.41 203.41" style="fill:#b0c2e4; fill-rule:evenodd;"/><polygon points="424.73 152.19 415.28 250.21 388.91 237.19 368.18 303.44 375.12 209.05 402.26 222.84 424.73 152.19" style="fill:#b0c2e4; fill-rule:evenodd;"/><polygon points="546.81 344.41 640.69 374.09 639.04 344.73 708.11 351.6 618.55 321.02 620.61 351.39 546.81 344.41" style="fill:#b0c2e4; fill-rule:evenodd;"/><polygon points="1701.31 342.35 1799.76 373.47 1798.03 342.69 1870.45 349.89 1776.54 317.83 1778.7 349.67 1701.31 342.35" style="fill:#b0c2e4; fill-rule:evenodd;"/><polygon points="1448.79 429.5 1547.24 460.64 1545.51 429.85 1617.93 437.05 1524.02 404.98 1526.18 436.83 1448.79 429.5" style="fill:#b0c2e4; fill-rule:evenodd;"/><polygon points="535.92 253.81 457 312.7 448.91 284.43 385.93 313.61 460.47 255.29 468.51 284.66 535.92 253.81" style="fill:#b0c2e4; fill-rule:evenodd;"/><polygon points="581.88 461.1 674.74 428.37 655.77 405.89 715.08 369.84 625.13 399.27 645.05 422.31 581.88 461.1" style="fill:#b0c2e4; fill-rule:evenodd;"/><polygon points="1738.09 464.71 1835.46 430.38 1815.56 406.82 1877.76 369.02 1783.44 399.88 1804.32 424.03 1738.09 464.71" style="fill:#b0c2e4; fill-rule:evenodd;"/><polygon points="541.14 375.55 442.67 375.14 453.21 347.69 385.34 333.13 479.97 331.37 468.73 359.67 541.14 375.55" style="fill:#b0c2e4; fill-rule:evenodd;"/><path d="M2135.65,1249.15s11.67,11.55,11.97,15.8c.25,4.24,1.02,49.66-3.74,53.91-4.78,4.25-18.79,7.31-14.29,12.06,3.39,3.56,29.6,2.8,46.97,1.87,5.05-.34,11.42-41.27,13.44-47.29,2.89-8.75,13.41-27.85,10.77-33.88-1.3-2.97-10.91-9.77-19.61-15.45-9.15-6.03-17.92-19.36-17.92-19.36l-27.58,32.35Z" style="fill:#f9af79; fill-rule:evenodd;"/><path d="M1979.3,1277.51l10.47,30.05c.79,4.76,3.84,16.48,3.84,20.81,0,16.22-72.1-13.76-55.94-20.97,1.47-.68,6.06-5.86,6.53-11.38,.76-8.49-6.05-19.1-6.05-19.1l41.16,.59Z" style="fill:#f9af79; fill-rule:evenodd;"/><path d="M1879.82,708.99l-26.11,67.58s-17.03,161.32-7.13,257.86c4.16,40.42,93.93,256.58,93.93,256.58l44.61-6.37-59.73-255.98,21.97-97.9,31.12-193.58-98.66-28.19Z" style="fill:#0e2952; fill-rule:evenodd;"/><path d="M2002.78,712.47l22.4,75.22,34.04,227.21,115.18,212.52s-17.3,26.66-35.91,30.82l-163.48-214.81-88.61-268.89,3.11-59.77,113.27-2.3Z" style="fill:#223f81; fill-rule:evenodd;"/><path d="M1650.03,707.72c17.39-.84,16.84,2.17,19.09,1.94,2.6-.16,30.71-21.88,30.71-21.88,0,0,83.14-63.39,87.5-66.95l51.88-95.56,54.08,12.69s-59.17,102.38-63.18,107.21c-3.98,4.74-126.23,77.17-136.83,83.94,0,0-9.67,12.73-15.98,20.54-6.34,7.79-15.75,12.3-17.89,14.24-.31,.24-7.72,6.26-18.78,11.07-9.53,4.27-2.42-4.12-2.42-4.12,0,0,16.29-11.05,15.21-12.16-.83-.92-9.37,5.64-19.87,10.41-2.7,1.23-5.35,2.39-7.8,3.45-6.45,2.83-10.04-.32-3.75-4.42,2.24-1.43,5.98-3.69,8.87-4.93,3.15-1.4,5.59-3.68,8.05-5.2,4.88-3.06,8.5-5.27,8.26-5.38-.32-.14,.24-1.47-2.66-.24-3.51,1.43-10.22,6.19-15.55,7.94-3,1-9.14,3.41-9.14,3.41,0,0-10.43,2.86-10.71,2.28-1.68-2.95,5.22-7.17,9.44-7.93,2.47-1.98,8.99-4.31,8.99-4.31,0,0,12.17-7.85,11.12-9.6-.87-1.49-33.59,11.54-35.08,8.49-1.19-2.56,8.48-6.95,8.48-6.95,0,0,6.05-2.17,8.02-3.07,2.28-1.05,8.94-4.72,8.94-4.72,0,0,22.46-13.72,21.31-15.33-1.12-1.61-5.7-4.44-7.38-4.07-1.7,.37-4.45,2.7-6.09,2.99-1.69,.37-4.21-.63-4.83-2.66-.57-2.1,6.9-6.99,6.9-6.99,0,0,6.07-3.92,11.1-4.14Z" style="fill:#f9af79; fill-rule:evenodd;"/><path d="M1818.58,551.94l55.64,31.43s23.82-47.22,33.92-70.33c12.24-28.01,24.66-65.01,20.99-65.69-10.32-1.9-24.27-2.26-36.35,4.88-41.78,24.83-74.21,99.71-74.21,99.71Z" style="fill:#466fb5; fill-rule:evenodd;"/><path d="M2089.92,832.95c9.7-15.88,11.89-13.59,13.07-15.71,1.41-2.46-.15-40.24-.15-40.24,0,0-3.87-111.57-4.29-117.59l-49.67-102.99,42.93-40.42s51.1,113.52,52.75,119.98c1.67,6.45-10.14,158.01-10.77,171.42,0,0,4.97,16.21,7.76,26.49,2.79,10.19,1.02,21.31,1.36,24.28,.06,.51,.68,10.61-1.8,23.35-2.15,10.95-4.99-.43-4.99-.43,0,0,.42-20.97-1.17-20.71-1.26,.17-.84,11.71-3.07,23.86-.57,3.06-1.17,6.2-1.73,9-1.43,7.47-6.26,8.66-5.95,.68,.1-2.8,.41-7.56,1.09-10.87,.73-3.57,.26-7.04,.44-10.19,.31-6.11,.63-10.61,.36-10.53-.3,.17-1.09-1.11-1.8,2.21-.87,3.99-.87,12.82-2.57,18.51-.96,3.22-2.56,10.19-2.56,10.19,0,0-4.33,10.02-4.99,9.93-3.53-.26-2.43-7.98-.58-12.23-.15-3.31,1.75-10.53,1.75-10.53,0,0,.65-15.45-1.5-15.62-.89,0-2.4,9.42-5.27,18.51-2.7,8.4-6.71,16.47-8.41,16.13-2.86-.43-.84-10.11-.84-10.11,0,0,1.75-6.62,2.17-8.92,.49-2.63,1.38-10.7,1.38-10.7,0,0,1.8-28.18-.23-28.1-2.02,.09-7.13,2.47-7.84,4.17-.71,1.69-.4,5.51-1.1,7.21-.72,1.7-3.04,3.31-5.13,2.63-2.12-.68-1.8-10.28-1.8-10.28,0,0,.32-7.72,3.11-12.39Z" style="fill:#f9af79; fill-rule:evenodd;"/><path d="M2180.59,1235.83s-24.61,75.39-35.15,79.13c-2.83,.93-18.55,4.92-21.08,10.96l-.18,.59c-.82,3.82,2.4,7.3,6.29,7.3h50.02s7.1-33.87,9.93-48.73c0,0,14.84-36.42,13.19-39.65-1.64-3.31-23.01-9.59-23.01-9.59Z" style="fill:#0e2952; fill-rule:evenodd;"/><path d="M1997.71,1333.72l-8.26-26.49s-17.32,7.47-25.99,6.19c-8.67-1.19-25.61-6.19-25.61-6.19-34.6,11.54-62.94,17.14-57.8,26.49h117.66Z" style="fill:#0e2952; fill-rule:evenodd;"/><path d="M1671.02,723.83c-7.24,2.86-14.09,2.74-20.7-1.25,4.95,7.35,15.6,6.72,20.7,1.25Z" style="fill:#f48661; fill-rule:evenodd;"/><path d="M1994.68,436.45s33.66,4.67,42.51,11.21c9.95,7.3,40.84,41.52,40.84,41.52,0,0-64.28,184.07-61.8,216.85,2.51,32.77,9.56,81.34,9.56,81.34,0,0-125.73,7.98-173-10.7,0,0,15.82-74.38,15.82-93.82s8.39-214.39,14.34-224.58c5.98-10.18,18-15.96,40.82-20.97,22.8-5.01,70.91-.84,70.91-.84Z" style="fill:#6d96ce; fill-rule:evenodd;"/><path d="M1985.51,383.89l8.31,54.52s-30.42,64.95-48.58,59.35c-15.22-4.76-5.85-62.16-5.85-62.16,0,0,8.32-30.91,5.84-46.36-2.52-15.37,40.29-5.35,40.29-5.35Z" style="fill:#f9af79; fill-rule:evenodd;"/><path d="M1945.23,389.24c-2.52-15.37,40.29-5.35,40.29-5.35l.68,4.5c-1.25,3.06-2.77,5.69-4.65,7.65-9.53,10.19-24.48,16.38-37.38,16.81,1.28-8.32,2.09-17.23,1.07-23.61Z" style="fill:#f48661; fill-rule:evenodd;"/><path d="M1992.52,306.8c1.19-.43,9.68,62.07-6.41,79.3-16.1,17.15-47.45,22.84-58.71,9.26-5.56-6.68-16.67-25.49-8.86-46.68,7.91-21.48,8.23-43.43,22.08-53.26,25.01-17.66,51.89,11.38,51.89,11.38Z" style="fill:#f9af79; fill-rule:evenodd;"/><path d="M1941.9,242.48c23.42,48.07,48.77,41.26,53.37,46.26,36.96,4.28,59.8,66.19,22.42,94.81-17.67,13.58-29.07,20.71-29.07,20.71l-2.82-8.23c-2.06-6.11-2.91-12.66-2.22-19.1,.43-3.82,1.26-7.99,2.88-11.47,4.23-9-9.12-15.02-12.89-22.58-2.87-5.78-3-19.11-7.55-28.61l-5.43-7.39s-12.52-9.68-24.76-6.88c-12.25,2.72-20.47-28.76,6.09-57.52Z" style="fill:#20386f; fill-rule:evenodd;"/><path d="M1974.4,354c-.13,7.64,3.38,13.93,7.79,13.93,4.45,.08,8.16-6.03,8.26-13.67,.13-7.64-3.34-13.84-7.79-13.92-4.44-.08-8.13,6.03-8.26,13.67Z" style="fill:#f9af79; fill-rule:evenodd;"/><path d="M2119.79,555.14l-56.26,43.89s-24.84-23.77-37.34-50.18c-12.61-26.66-1.54-104.51,11.9-100.95,30.07,8.16,81.7,107.24,81.7,107.24Z" style="fill:#466fb5; fill-rule:evenodd;"/><path d="M381.82,545.71c16.52,73.68-62.28,111.54-15.13,231.28-34.98,5.42-76.1,5.98-123.38,1.66,2.64,13.26,4.7,25.08,6.23,34-9.87-.38-19.37-3.32-30.25,10.37l-.34-.59-.35-.59-.27-.46-.08-.15-.35-.61-.35-.62-.19-.33-.16-.29-.72-1.28-.11-.2-.61-1.11-.36-.67-.02-.04-.34-.63-.37-.68-.31-.58-.06-.12-.05-.1-.69-1.29-.22-.43-.15-.28-.37-.72-.38-.72-.14-.27-.24-.46-.38-.73-.38-.74-.05-.1-.33-.64-.38-.75-.35-.68-.04-.08-.39-.77-.39-.77-.26-.52-.13-.26-.39-.78-.39-.79-.17-.34-.22-.45-.72-1.46-.06-.14-.08-.15-.31-.65-.39-.81-.38-.79v-.03s-.41-.83-.41-.83l-.4-.83-.29-.61-.11-.22-.4-.83-.4-.84-.2-.43-.6-1.27-.4-.86-.11-.23-.29-.63-.4-.86-.4-.87v-.03s-.8-1.73-.8-1.73l-.32-.7-.08-.17-.4-.88-.4-.89-.23-.5-.17-.39-.4-.9-.4-.89-.13-.29-.27-.6-.4-.91-.4-.91-.04-.09-.36-.82-.4-.91-.35-.79-.05-.12-.4-.92-.4-.92-.25-.59-.15-.33-.7-1.64-.25-.59-1.09-2.58-.05-.13-1.04-2.47-.35-.85-.69-1.66-.04-.1-.03-.06c-.67-1.62-1.33-3.25-1.99-4.87l-.13-.32-.55-1.37-.51-1.27-.17-.42-.88-2.22-.45-1.14-.59-1.5-.07-.19-.66-1.69-.29-.77-.35-.92-.64-1.69v-.04s-.14-.32-.14-.32l-.84-2.22-.04-.1-.26-.7-.63-1.69-.1-.26-.97-2.63-.18-.47-.61-1.67-.17-.47-.43-1.2-.5-1.41-.09-.26-.58-1.66-.24-.69-.34-.97-.56-1.62v-.04s-.57-1.64-.57-1.64l-.31-.89-.25-.74-.55-1.63-.06-.19-.48-1.43-.36-1.1-.17-.51-.52-1.6-.12-.39-.38-1.2-.41-1.29-.09-.29-.49-1.57-.18-.59-.29-.97-.44-1.46-.03-.08-.46-1.54-.23-.78-.22-.75-.43-1.51-.04-.12-.13-.49c-.37-1.3-.72-2.58-1.06-3.85l-.08-.31-.3-1.15-.29-1.11-.08-.32-.36-1.43-.12-.48-.05-.19-.48-1.99-.04-.13-.41-1.78-.05-.22-.16-.71-.29-1.34v-.05c-.29-1.3-.55-2.58-.8-3.84l-.04-.2-.06-.31-.26-1.41-.04-.24-.06-.33-.25-1.47-.04-.22c-.18-1.15-.34-2.27-.48-3.35l-.05-.36-.18-1.52v-.52s-.01-.52-.01-.52v-.52s-.02-.52-.02-.52v-.52s-.01-.52-.01-.52l-.07-4.67v-.51s-.01-.51-.01-.51v-.51s-.01-.51-.01-.51v-.25s0-.26,0-.26v-.51s-.01-.5-.01-.5v-.51s-.01-.51-.01-.51v-.5s-.01-.5-.01-.5v-.5s-.01-.5-.01-.5v-.5s-.01-.5-.01-.5l-.02-1.99v-.5s-.01-.5-.01-.5v-.49s0-.49,0-.49v-.48s0-.01,0-.01v-.49s0-.49,0-.49v-.49s-.01-.49-.01-.49v-.49s0-.49,0-.49v-.49s-.01-.97-.01-.97v-.49s-.04-2.88-.04-2.88v-.47s0-.48,0-.48v-.48s0-.22,0-.22v-.73s0-.47,0-.47v-.47s0-.47,0-.47v-.47s0,0,0,0c-1.55-185.13,12.2-164.25,108.88-185.08,5.89,16.28,41.01,27.92,51.35,27.28,7.42-3.97,11.24-15.43,17.45-26.04,29.7,6.5,59.11,23.84,75.08,38.06-13.58-23.44-24.54-46.6-32.89-69.45,3.35-10.09,8.05-14.61,17.81-19.86,101.68,92.96,131.92,155.68,113.07,168.01-33.13,12.08-109.06-8.64-131.85-30.21h0Zm-165.41,93.98c-.11,1.1-.23,2.21-.35,3.3l-.06,.49v.02l-.05,.47v.08s-.06,.41-.06,.41l-.02,.13-.04,.36-.02,.17-.04,.32-.03,.22-.03,.27-.04,.27-.02,.21-.04,.33-.02,.16-.05,.37v.12s-.07,.42-.07,.42v.06s-.07,.47-.07,.47h0s-.06,.49-.06,.49v.04s-.06,.44-.06,.44v.09s-.07,.39-.07,.39l-.02,.13-.04,.34-.03,.19-.04,.28-.03,.24-.04,.24-.04,.28-.03,.19-.05,.34-.02,.13-.06,.38v.09s-.08,.44-.08,.44v.03s-.08,.47-.08,.47h0s-.07,.47-.07,.47v.06s-.07,.41-.07,.41l-.02,.11-.06,.36-.03,.15-.05,.31-.04,.21-.04,.26-.04,.26-.04,.21-.05,.31-.03,.15-.06,.36-.02,.11-.07,.4v.06s-.09,.45-.09,.45v.03s-.08,.46-.08,.46v.03s-.08,.43-.08,.43v.08s-.08,.38-.08,.38l-.02,.13-.06,.33-.03,.18-.05,.28-.04,.22-.04,.24-.05,.27-.04,.19-.06,.33-.03,.13-.07,.36-.02,.09-.08,.41v.04s-.1,.45-.1,.45h0s-.09,.45-.09,.45v.06s-.09,.4-.09,.4l-.02,.1-.07,.35-.03,.15-.06,.3-.04,.2-.06,.25-.05,.24-.04,.2-.06,.29-.03,.16-.08,.33-.02,.12-.08,.38v.06s-.11,.42-.11,.42v.02s-.1,.44-.1,.44v.03s-.1,.42-.1,.42l-.02,.06-.09,.37-.02,.12-.08,.33-.04,.16-.06,.28-.05,.21-.05,.23-.06,.26-.04,.18-.07,.29-.03,.14-.08,.34-.03,.1-.1,.38v.05s-.12,.42-.12,.42c5.59,10.41,10.57,23.01,14.96,36.5,2.97-16.46-.18-39.6-9.43-69.4Z" style="fill:#6d96ce; fill-rule:evenodd;"/><path d="M366.63,776.86h.06c31.4,82.48,40.5,157.83,39.01,248.35-75.49,19.93-146.82,13.93-231.87-13.51,5.59-78.27-21.9-118.43-3.23-184.82h.56c4.73-16.16,12.19-33.89,23.52-54.08,8.49,19.73,17.32,37.81,24.61,50.22,10.88-13.69,20.38-10.75,30.25-10.37-1.53-8.91-3.59-20.74-6.23-34l-.04-.23c-2.92-14.68-6.55-31.12-10.92-47.31,59.45,15.38,100,15.76,121.62,1.14,2.86,16.29,7.08,31.15,12.66,44.6Z" style="fill:#20386f; fill-rule:evenodd;"/><path d="M323.13,485.19c-10.34,.65-45.45-11-51.35-27.28,7.19-10.32,11.49-22.09,12.43-28.61-1.67-3.1-3.53-7.04-5.56-11.85-23.65-11.15-28.26-21.43-13.83-30.84,3.41,1.26,8.14,6.05,14.2,14.38,15.07-2.98,6.34-26.53,2.5-39.17,8.07-17.3,22.91-27.12,56.18-28.01,2.88,8.44,5.56,17.43,8.05,26.99,6.6,4.4,8.95,24.21,7.21,47.74,4.68,12.48-2.18,20.78-20.58,24.88,.58,6.02,4.36,20.92,8.2,25.74-6.22,10.61-10.03,22.07-17.45,26.04Z" style="fill:#f9af79; fill-rule:evenodd;"/><path d="M337.7,333.81c-33.27,.9-48.11,10.71-56.18,28.01,3.84,12.64,12.58,36.19-2.5,39.17-6.06-8.32-10.8-13.12-14.2-14.38-14.43,9.4-9.82,19.68,13.83,30.84,2.04,4.81,3.9,8.75,5.56,11.85-.94,6.52-5.24,18.29-12.43,28.61-29.57,31.93-39.18,16.44-62.98,13.05-13.05-23.77,6.66-15.11,6.57-33.18-.07-15.43,25.49-14.39,20.88-34.97-4.51-20.14-20.61-81.77,29.87-81.48,14.61-27.75,123.56-43.21,78.01,33.44-2.02-7.33-4.17-14.32-6.44-20.97h0Zm.71,97.99c-1.85,.6-3.85,1.14-6.02,1.62,.31,3.27,1.58,9.17,3.28,14.65,1.43,4.59,3.17,8.89,4.92,11.08,7.88,15.85,14.45,5.37,22.21,6.76-3.36-5-6.85-8.94-6.88-9.08-3.24-13.9-12.16-17.22-17.5-25.05Z" style="fill:#20386f; fill-rule:evenodd;"/><path d="M306.99,431.53c6.03,1.31,17.14,2.69,25.39,1.89,.31,3.27,1.58,9.17,3.28,14.65-8.97-.7-24.29-10.72-28.67-16.54Z" style="fill:#ed7d57; fill-rule:evenodd;"/><path d="M415.5,1309.33c-12.11,3.13,.98,10.41-6.56,14.15-19.35-6.03-34.23-30.07-43.49-40.15-4.88-5.31-5.98,2.91-6.06,11.87-.16,19.24,4.85,43.59,10.76,50.29,2.07-6.19,1.37-23.84,2.17-34.87,20.17,11.77,19.8,29.3,31.1,32.98,24.87-2.2,38.16-4.18,56.72-7.49,.9-16.52-30.17-4.76-44.64-26.78Z" style="fill:#0e2952; fill-rule:evenodd;"/><path d="M122.12,1304.23c-12.22-2.7-3.83,9.72-12.25,9.65-14.54-14.12-16.95-42.29-20.65-55.47-1.96-6.94-6.65-.11-10.77,7.85-8.84,17.09-15.37,41.09-13.12,49.73,4.65-4.59,12-20.65,17.7-30.12,12.67,19.61,4.42,35.08,12.84,43.47,23.18,9.28,35.93,13.51,53.99,18.95,8.27-14.33-24.76-17.87-27.72-44.06Z" style="fill:#0e2952; fill-rule:evenodd;"/><path d="M415.67,497.21c7.86,15.01,18.03,27.13,30.51,36.38-19.46-10.99-37.91-29.02-55.35-54.09,9.87,5.8,18.43,12.01,24.84,17.71h0Zm-182.06,238.63c-2.17-8.11-4.76-17.02-7.78-26.76,2.97-16.46-.18-39.6-9.43-69.4,2.1-14.86,3.63-27.46,4.59-37.82,12.39,41.56,16.73,84.79,13,129.66-.55-.13-1.09-.28-1.64-.42,.43,1.57,.85,3.15,1.26,4.73Z" style="fill:#466fb5; fill-rule:evenodd;"/><path d="M115.67,1259.34c-2.37,13.1-1.55,27.96,2.47,44.56-6.25,.82-1.01,10.04-8.27,9.99-13.66-13.27-16.61-38.93-20-52.91,1.98-2.26,3.72-4.96,5.21-8.11,60.79-147.52,40.44-170.75,93.73-224.9-1.21-4.31-2.37-8.52-3.48-12.67,19.7,5.99,38.69,10.79,57.19,14.33l-1.17,3.75c-24.32,57.72-78.17,132.58-125.69,225.96h0Zm251.02-482.49c1.13,2.92,2.22,5.78,3.28,8.62l-3.28-8.62h0Zm33.82,249.68c7.75,59.27-13.13,154.41-7.29,251.54,4.07,10.54,10.29,21.45,18.67,32.71-5.36,3.55,3.59,9.45-2.94,12.7-18.19-5.66-32.43-27.25-41.77-38.19,1.69-2.55,3.09-5.67,4.21-9.35-12.56-106.95-40.45-153.4-25.11-240.28,18.02-1.58,36.02-4.6,54.23-9.13Z" style="fill:#f9af79; fill-rule:evenodd;"/><path d="M377.6,382.43c22.54-7.48,19.07,8.82,22.88,25.55-8.35,4.5-12.98,8.48-16.23,15.94-6.24-4.79-10.99-3.62-15.17-10.19-6.99-8.7-15.67-25.47-6.61-26.45,2.68,7.35,6.1,9.02,10.29,12.06-.3-3.66-.98-7.29-2.06-10.88-1.23-4.69-3.97-9.64-8.23-14.84-8.33-2.3-11.65-4.9-9.99-7.79,10.4-1.66,18.78,3.88,25.13,16.6Z" style="fill:#f9af79; fill-rule:evenodd;"/><path d="M246.79,812.58c3.47,12.2,5.81,24.05,7.01,35.57-6.2,15.99-13.8,24.9-22.8,26.71-10.28-.88-12.23-8.76-14.66-14.34,6.11-4.74,9.7-10.39,10.75-16.93-5.56-4.43-6.97-9.04-4.24-13.85-1.09-2.73-2.11-5.18-3.05-7.36,6.86-8.34,13.18-10.13,19.4-10.25,2.53,.04,5.04,.28,7.58,.45Z" style="fill:#f9af79; fill-rule:evenodd;"/><path d="M390.83,479.51c5.95,3.5,11.44,7.15,16.25,10.74,3.17,2.37,6.05,4.7,8.59,6.97,7.86,15.01,18.03,27.13,30.51,36.38-13.52-7.64-26.56-18.67-39.1-33.11-5.51-6.33-10.93-13.33-16.25-20.98Z" style="fill:#466fb5; fill-rule:evenodd;"/><path d="M1424.91,410.19c-7.66-20.81-15.46-41.64-38.88-54.93-18.93-10.71-39.71-10.57-58.16-1.64-52.23,25.31-28.75,71.39-62.67,119.95-14.51,20.71-36.22,31.31-47.09,53.08-19.69,39.25-2.56,103.16,50.19,139.13,129.2,88.13,200.12-69.08,200.49-102.97,.29-25.18-38.94-139.23-43.88-152.64Z" style="fill:#20386f; fill-rule:evenodd;"/><polygon points="1334.44 1216.88 1351.13 1287.17 1376.12 1287.02 1377.05 1216.88 1334.44 1216.88" style="fill:#f9af79; fill-rule:evenodd;"/><polygon points="1544.73 1219.87 1592.21 1287.17 1610.72 1263.39 1582.14 1210.6 1544.73 1219.87" style="fill:#f9af79; fill-rule:evenodd;"/><path d="M1400.11,508.48c.2,.09-20.05,10.61-35.29,6.44-14.33-3.93-23.69-22.5-23.5-22.54,6.07-1.21,7.83-9.54,7.69-45.4l2.74,.56,46.14,9.13s-1.05,14.51-1.08,28.2c-.03,11.49,.66,22.37,3.29,23.61Z" style="fill:#f9af79; fill-rule:evenodd;"/><path d="M1326.1,364.24s17.52-28.27,50.07-11.39c0,0-16.86,.47-50.07,11.39Z" style="fill:#6d96ce; fill-rule:evenodd;"/><path d="M1397.89,456.67s-1.05,14.51-1.08,28.2c-25.82-.73-39.46-24.29-45.06-37.33l46.14,9.13Z" style="fill:#f09e68; fill-rule:evenodd;"/><path d="M1342.27,449.17s-17.5-18.3-24.28-35.57c-4.86-12.34-7.9-61.07,41.12-63.84,0,0,14.12-1.43,28.89,4.74,11.76,4.89,29.73,16.97,21.37,61.71l-1.52,14.86-65.59,18.1Z" style="fill:#20386f; fill-rule:evenodd;"/><path d="M1606.27,1248.02s-12.26,2.11-22.32,2.88c-2.24,.18-4.37,.28-6.21,.28-4.85,0-13.58-1.84-19.45-3.21l-.44-.08c-2.58-.62-4.55-1.11-5.27-1.3l-.31-.08s-61.15-68.07-95.44-177.21c-.8-2.55-1.65-5.1-2.53-7.68-18.78-54.75-57.69-123.44-78.2-185.64-3.26-9.88-6.19-19.2-8.82-28.03-.84-2.84-1.66-5.61-2.44-8.35-15.11-52.51-19.48-86.98-23.51-123.82l123.29,31.38s51.75,224.4,141.66,500.87Z" style="fill:#223f81; fill-rule:evenodd;"/><path d="M1405.96,463.97s-59.67,13.05-67.22-24.25c-7.57-37.28-20.36-60.7,17.41-70.63,37.79-9.9,48.1,2.81,53.66,14.64,5.54,11.85,11.48,75.87-3.85,80.24Z" style="fill:#f9af79; fill-rule:evenodd;"/><path d="M1383.25,362.69s-7.58,47.08-31.43,58.62c-23.86,11.52-36.13,7-36.13,7,0,0,16.21-19.23,14.82-46.81,0,0,36.18-37.14,52.75-18.81Z" style="fill:#20386f; fill-rule:evenodd;"/><path d="M1379.9,367.07s14.21,7.29,19.11,16.21c4.9,8.87,10.18,28.17,15.75,26.36,0,0,6.36-32.23-10.92-46.25-18.32-14.88-23.94,3.69-23.94,3.69Z" style="fill:#20386f; fill-rule:evenodd;"/><path d="M1350.29,1283.24s2.01,13.92-3.18,28.82c0,0-4.08,18.63,14.26,18.98,18.37,.36,22.87-1.37,20.79-12.81-2.07-11.44-6.03-31.21-6.03-31.21l-25.83-3.78Z" style="fill:#f9af7c; fill-rule:evenodd;"/><path d="M1347.1,1312.06s-3.39,17.61-1.32,26.96c0,0,5.55,4.17,18.88,4.17,12.64,0,19.23-4.17,19.23-4.17,0,0,.38-19.29-2.99-27.45,0,0-13.02,19.55-33.8,.49Z" style="fill:#0e2952; fill-rule:evenodd;"/><path d="M1654.96,1320.08s-33.85-37.56-44.24-56.69l-25.18,12.91,56.27,52.83,13.16-1.73v-7.33Z" style="fill:#f9af7c; fill-rule:evenodd;"/><path d="M1676.47,1342.11s-36.38,0-42.61-.68c-6.24-.7-11.26-9.71-18.01-23.22-2.77-5.52-8.97-8.55-15.32-10.24v31.29h-9.62l-9.09-33.25c-6-11.01-.49-21,3.73-29.69,4.91-.03,18.12,3.32,43.12,31.5,8.21,9.27,17.3,12.57,26.3,12.27l.37,.22c20.79,9.35,21.13,21.81,21.13,21.81Z" style="fill:#0e2952; fill-rule:evenodd;"/><path d="M1583.94,1250.9c-2.24,.18-4.37,.28-6.21,.28-4.85,0-13.58-1.84-19.45-3.21l-.44-.08-5.27-1.3-.31-.08s-61.15-68.07-95.44-177.21c-.8-2.55-1.65-5.1-2.53-7.68-18.78-54.75-57.69-123.44-78.2-185.64-3.26-9.88-6.19-19.2-8.82-28.03-.84-2.84-1.66-5.61-2.44-8.35l21.8-16.53s65.47,105.99,85.73,205.76c16.81,82.68,89.13,189.9,111.58,222.07Z" style="fill:#20386f; fill-rule:evenodd;"/><path d="M1388.92,1038.13c.36,48.5-2.09,160.06-8.4,206.24,0,0-6,5.31-20.85,5.36-15.21,.06-22.02-5.55-22.02-5.55-15.86-80.3-27.14-146.73-35.34-203.97-6.74-46.99-12.72-87.27-17.33-121.93-4.08-30.72-7.07-57.05-8.51-79.75-.18-3.09-.36-6.11-.5-9.05-.17-3.89-.32-7.66-.39-11.33-.06-3.7-.09-7.29-.05-10.76l.52-.05,30.63-2.99,96.77-9.43c-1.61,85-14.75,215.01-14.54,243.2Z" style="fill:#223f81; fill-rule:evenodd;"/><path d="M1359.67,1249.73c-12.95,.75-22.02-5.55-22.02-5.55-15.86-80.3-27.14-146.73-35.34-203.97-6.74-46.99-12.72-87.27-17.33-121.93-4.08-30.72-7.07-57.05-8.51-79.75-.17-11.18-.29-21.89-.42-31.18-.14-9.44-.28-17.39-.55-22.94l31.18,19.95,32.81,20.99s-46.54,42.33-35.11,122.35c11.43,80.05,39.37,290.7,55.28,302.04Z" style="fill:#20386f; fill-rule:evenodd;"/><path d="M1385.02,490.83s49.73-7.88,66.43,8.73c20.46,20.34,58.86,137.04,57.34,150.33-.59,5.11-20.78,2.75-27.69-4.51-34.49-36.18-83.95-127.47-96.08-154.54Z" style="fill:#6d96ce; fill-rule:evenodd;"/><path d="M1481.62,816.64c-37.13,9.65-210.37,28.68-211.88-14.69-.37-10.58,0-23.37,.84-37.21,2.58-42.86,9.62-95.83,12.99-124.97,1.55-13.36-3.59-73.2,.36-105.81,.58-4.82,1.35-9.06,2.38-12.46,7.49-24.6,41.12-31.27,58.38-31.87l52.07-1.77s53.79,60.08,61.28,78.55c7.48,18.44,9.93,81.65,15.75,112.24,5.81,30.61,25.89,133.31,7.83,137.99Z" style="fill:#6d96ce; fill-rule:evenodd;"/><path d="M1379.3,669.99s-28.95,88.93-108.71,94.75c2.58-42.86,9.62-95.83,12.99-124.97,1.55-13.36-3.59-73.2,.36-105.81,1.03,.22,1.97,.79,3.06,1.01,87.82,16.97,100.29,116.48,92.31,135.02Z" style="fill:#466fb5; fill-rule:evenodd;"/><path d="M1506.28,652.09s-52.29,17.13-115.98-10.36c0,0-17.36-1.65-25.97,.55,0,0,1.84-17.2,10.27-21.9,8.42-4.67,44.64,5.45,55.46,3.98,23.67-3.27,64.89-5.8,76.22,27.73Z" style="fill:#f09e68; fill-rule:evenodd;"/><path d="M1459.68,612.04s4.9-42.48-11.72-68.09c0,0,5.87-2.01,10.09,4.65,4.21,6.65,33.57,69.77,19.59,74.41-13.98,4.65-17.96-10.98-17.96-10.98Z" style="fill:#466fb5; fill-rule:evenodd;"/><path d="M1383.36,619.15c-.75,0-24.7,3.11-28.93,6.1-4.25,3.01-.5,13.47,7.48,14.47,7.98,1,21.45-20.58,21.45-20.58Z" style="fill:#f09e68; fill-rule:evenodd;"/><path d="M1317.9,635.24s68.19-2.49,130.06-14.47c0,0,11.3,.1,9.99,9.99-1.34,9.86-107.23,65.15-130.5,54.49l-9.54-50.02Z" style="fill:#f9af79; fill-rule:evenodd;"/><path d="M1447.96,620.78s7.24-8.73,11.72-8.73,16.21,5.75,17.96,10.98c1.74,5.25-13.87,1.48-19.7,7.75-5.84,6.23-9.99-9.99-9.99-9.99Z" style="fill:#f9af7c; fill-rule:evenodd;"/><path d="M1344.69,489.63s-57.3,.15-65.69,20.72c-15.29,37.59,35.13,162.27,48.44,174.9,5.72,5.44,32.23-3.12,32.23-39.04,0-18.61-1.34-127.43-14.97-156.59Z" style="fill:#6d96ce; fill-rule:evenodd;"/><path d="M565.33,740.13c17.15-4.83,17.56-1.7,19.74-2.42,2.57-.81,23.54-28.58,23.54-28.58,0,0,62.39-81.43,65.59-85.99l20.5-105.99,58.31,.09s-25.54,114.47-27.97,120.1c-2.45,5.71-101.01,104.91-109.36,113.94,0,0-5.49,14.82-9.27,23.93-3.78,9.11-11.72,15.8-13.22,18.12-.21,.36-5.68,7.95-15.14,15.27-8.15,6.33-3.78-3.57-3.78-3.57,0,0,12.67-14.55,11.22-15.44-1.13-.72-7.52,7.68-16.46,14.73-2.3,1.88-4.58,3.66-6.69,5.27-5.53,4.29-10.15,1.97-5.19-3.48,1.75-1.97,4.74-5.09,7.23-6.97,2.69-2.05,4.4-4.82,6.36-6.88,3.88-4.19,6.78-7.14,6.49-7.22-.37-.09-.25-1.52-2.76,.35-3.02,2.23-8.2,8.48-12.94,11.34-2.69,1.69-8.04,5.54-8.04,5.54,0,0-9.36,4.11-9.85,3.66-2.65-2.6,2.72-7.24,6.73-9.02,1.82-2.41,7.6-6.25,7.6-6.25,0,0,9.61-10.54,7.96-12.06-.71-.63-7.47,5.09-15.1,9.55-7.08,4.1-15.06,7.15-16.26,5.8-2.04-2.24,5.25-7.77,5.25-7.77,0,0,5.34-3.48,7-4.82,1.96-1.52,7.39-6.7,7.39-6.7,0,0,18-18.66,16.32-19.91-1.68-1.34-7.18-3.13-8.75-2.41-1.56,.72-3.55,3.66-5.12,4.38-1.56,.8-4.4,.35-5.68-1.52-1.28-1.88,4.59-8.48,4.59-8.48,0,0,4.81-5.27,9.77-6.6Z" style="fill:#f9af79; fill-rule:evenodd;"/><path d="M656.68,1274l1.71,36.71c.71,4.73,3.6,16.25,3.55,20.44-.16,15.89-70.57-14.19-54.66-21.07,1.45-.63,9.01-5.36,9.54-10.8,.81-8.31,2.83-25.1,2.83-25.1l37.02-.18Z" style="fill:#f9af79; fill-rule:evenodd;"/><path d="M607.47,1309.9s16.56,5.09,25.05,6.34c8.48,1.34,19.81-8.76,25.79-5.98,6.59,3.12,5.61,33.04,5.61,33.04,0,0-88.67,4.37-113.61-4.01-9.89-3.22,23.12-18.4,57.17-29.38Z" style="fill:#0e2952; fill-rule:evenodd;"/><path d="M812.42,1279.1l1.72,36.79c.71,4.64,3.6,16.16,3.55,20.44-.16,15.9-70.57-14.28-54.64-21.16,1.44-.63,11.27-8.93,11.79-14.29,.81-8.39,.56-21.61,.56-21.61l37.02-.17Z" style="fill:#f9af79; fill-rule:evenodd;"/><path d="M763.21,1314.99s16.56,5.09,25.05,6.43c8.49,1.25,19.8-8.84,25.79-6.07,6.59,3.12,6.57,30.54,6.57,30.54,0,0-94.8,5.89-117.01-.81-9.98-2.95,25.55-19.02,59.6-30.09Z" style="fill:#0e2952; fill-rule:evenodd;"/><path d="M705.8,748.88l-30.03,12.59-65.96,299.66,.24,225.2,50.4,1.61s25.46-196.62,25.62-211.89c.15-15.28,111.33-266.01,111.33-266.01l-91.61-61.16Z" style="fill:#20386f; fill-rule:evenodd;"/><path d="M728.7,765.67s19.65,231.54,19.25,270.56c-.4,39.02,15.22,257.52,15.22,257.52l50.53,.18s4.33-66.44,10.75-164.3c1.01-15.36-.61-46.25,.64-62.15,9.03-114.02,25.67-221.35,18.69-264.03-1.12-6.88-3.19-24.82-7.52-29.37-32.74-34.56-107.56-8.4-107.56-8.4Z" style="fill:#20386f; fill-rule:evenodd;"/><path d="M668.94,582.44l61.18-3.48s3.58-54.65,3.84-80.72c.33-31.61,10.45-78.13,6.67-77.32-10.61,2.4-28.96,11.88-37.57,23.66-29.76,40.54-34.13,137.87-34.13,137.87Z" style="fill:#466fb5; fill-rule:evenodd;"/><path d="M815.47,420.47s34.82,5.27,43.93,12.06c10.25,7.67,21.55,24.82,21.55,24.82,0,0-44.88,201.89-45.31,236-.33,26.25,8.34,91.08,8.34,91.08,0,0-129.45,6.87-178.24-13.04,0,0,16.26-76.7,16.46-96.97,.2-20.18,20.6-203.67,24.94-216.45,3.94-11.61,11.14-32.41,34.83-37.41,23.69-4.91,73.5-.09,73.5-.09Z" style="fill:#6d96ce; fill-rule:evenodd;"/><path d="M806.51,365.9l8.05,56.61s-32.21,66.97-50.96,60.9c-15.73-5-5.42-64.47-5.42-64.47,0,0,8.94-31.87,6.52-47.95-2.41-15.98,41.82-5.09,41.82-5.09Z" style="fill:#f9af79; fill-rule:evenodd;"/><path d="M764.7,370.99c-2.41-15.98,41.82-5.09,41.82-5.09l.66,4.74c-1.32,3.12-2.94,5.72-4.88,7.77-10.01,10.54-25.55,16.69-38.95,17.05,1.44-8.57,2.35-17.85,1.36-24.46Z" style="fill:#f27458; fill-rule:evenodd;"/><path d="M814.6,286.08c1.26-.45,9.38,64.46-7.48,82.05-16.86,17.68-49.42,23.22-60.94,9.02-12.73-15.62-11.38-85.27,14.75-103.4,26.13-18.04,53.68,12.33,53.68,12.33Z" style="fill:#f9af79; fill-rule:evenodd;"/><path d="M771.17,238.93c20,4.2,32.86,16.52,37.58,21.79,9.09,1.16,21.41,6.25,33.97,27.42,15.45,25.99,3.55,54.47-14.88,68.39-18.44,13.85-18.38,30.19-18.38,30.19l-2.78-8.58c-2.06-6.33-2.86-13.12-2.08-19.73,.46-4.02,1.36-8.39,3.08-11.88,4.49-9.37-9.29-15.71-13.1-23.58-2.92-6.07-2.93-19.82-7.53-29.73l-5.55-7.68s-12.88-10.18-25.6-7.5c-12.72,2.77-10.41-44.65,15.26-39.11Z" style="fill:#20386f; fill-rule:evenodd;"/><path d="M795.32,334.83c-.21,7.86,3.34,14.38,7.93,14.56,4.6,.09,8.5-6.25,8.71-14.11,.21-7.95-3.33-14.47-7.93-14.56-4.59-.08-8.49,6.16-8.71,14.11Z" style="fill:#f9af79; fill-rule:evenodd;"/><path d="M868.04,447.07c-11.72-.45-22.9,76.88-15.54,84.56,7.36,7.68,7.81,103.04,7.81,103.04l-110.64-3.93-.02,.09c-2.14-1.52-25.17-17.32-28.45-20.71-3.44-3.66-20.36-2.06-24.88,2.86-4.52,4.82,8.56,2.5,12.51,5.18,3.95,2.77-1.71,7.86-1.71,7.86,0,0-28.08,3.75-33.49-2.05-5.4-5.89-19.91-15.9-21.95-10.09-1.06,3.04,6.38,12.15,10.58,15.98-5.25-4.01-11.55-8.3-13.73-7.58-3.98,1.34-2.38,6.42-.24,7.94,2.14,1.43,24.22,18.67,27.69,19.92,3.39,1.25,55.16,3.03,64.1,5.09,0,0,145.6,34.73,153.91,32.77,7.3-1.79,15.06-48.39,15.43-84.2,.36-35.81-4.7-155.28-41.36-156.71Z" style="fill:#f9af79; fill-rule:evenodd;"/><path d="M853.01,429.3s20.37,4.92,41.21,28.84c18.95,21.7,29.81,142.51,29.81,142.51l-66.34,10-4.69-58.4c-27.57-42.53-34.22-93.31,0-122.95Z" style="fill:#466fb5; fill-rule:evenodd;"/></svg>