<?xml version="1.0" encoding="UTF-8"?><svg id="a" xmlns="http://www.w3.org/2000/svg" viewBox="0 0 1736.98 1551.74"><path d="M809.77,143.14c194.47,0,125.91,163.5,266.29,265.83,185.82,135.44,505.49,68.38,505.49,300.83,0,408.07-366.3,802.22-818.14,802.22S12.21,1040.47,12.21,632.4,357.93,143.14,809.77,143.14Z" style="fill:#e9eff8; fill-rule:evenodd;"/><path d="M539.93,1130.05c.1,6.31,.46,11.61,.95,15.29-.49-3.67-.84-8.97-.95-15.29Z" style="fill:#f5f6f3; fill-rule:evenodd;"/><path d="M294.46,1343.83c162.63,0,294.46,18.9,294.46,42.22s-131.83,42.22-294.46,42.22S0,1409.36,0,1386.04s131.83-42.22,294.46-42.22Z" style="fill:#d0d9ee; fill-rule:evenodd;"/><path d="M347.52,662.53c-4.64-5.99-11-10.51-17.37-14.49-1.69-1.06-4.15-.34-5.08,1.4-4.93,9.2-9.5,18.62-15.16,27.42-1.86,2.9-4.51,6.74-6.88,8.44-.15,.1-.75,.4-1.01,.54-.04-.05-.07-.09-.12-.16-.46-.69-.72-1.43-.98-2.22-4.4-13.52,.94-28-2.53-41.61-1.84-7.21-6.4-14.71-11.6-19.96-5.64-5.72-13.2-8.37-16.71-16.07-.54-1.16-1.49-1.71-2.52-1.81h-.7c-1.26,.11-2.53,.82-3.24,1.84-8.13,11.7-19.52,23.78-21.69,38.41-1.92,12.99,5.1,23.83,12.58,33.68,3.63,4.77,7.19,9.63,10.01,14.92,1.55,2.92,4.23,8.2,1.41,11.07-2.95,2.99-7.43-2.35-9.77-4.76-4.77-4.94-8.81-10.56-12.95-16.02-6.85-9.03-17.68-22.76-30.58-20.27-5.67,1.1-7.99,6.97-8.29,12.08-.47,8.12,3.51,16.87,7.51,23.69,9.07,15.47,27.46,19.95,39.29,32.44,2.72,2.86,10.17,12.69,5.9,16.73-1.49,1.4-4.97,.94-6.73,.66-4.34-.66-9.1-2.26-12.59-4.95-13.3-10.28-18.15-28.17-32.12-37.91-6.13-4.27-15.57-6.89-22.94-5.13-6.24,1.48-9.12,7.36-9.4,13.29-.33,7.17,2.94,14.58,6.55,20.58,4.18,6.94,9.93,12.73,16.96,16.74,14.09,8.02,31.92,9.02,41.29,23.77,1.28,2.02,2.66,4.65,2.04,7.11-.48,1.9-3.18,2.5-4.79,2.86-7.22,1.59-16.71-1.08-23.04-4.45-7.67-4.08-13.24-11.47-19.13-17.64-6.22-6.52-13.14-11.83-21.84-14.49-6.32-1.91-14.09-1.6-18.18,4.31-3.74,5.43-2.98,12.72-1.45,18.75,2.01,7.98,6.36,15.36,11.7,21.55,5.77,6.69,14.86,10.48,23.02,13.22,8.48,2.85,17.29,4.57,25.67,7.74,2.21,.83,3.94,1.43,6.36,1.6,2.6,.19,5.21,.06,7.74,.72,2.14,.54,.72,2.81,0,4.36-1.73,3.73-7.3,3.58-10.8,3.85-3.33,.25-6.6,1.1-9.93,1.12-3.81,.03-7.63-.68-11.39-1.26-7.45-1.14-15.34-2.44-22.71-.21-7.13,2.17-12.16,8.88-13.44,16.08-2.69,15.12,14.21,24.34,26.76,26.26,8.04,1.23,15.33-.52,22.39-4.52,8.71-4.92,15.56-12.02,25.62-13.25,.66,4.03-.78,7.25-4.36,10.26-4.91,4.15-11.72,6.39-17.65,8.59-11.69,4.35-28.81,8.21-35.07,20.31-.76,1.47-.61,3.3,.63,4.5,5.54,5.29,11.93,9.44,19.73,10.06,6.47,.51,12.77-2.49,18.01-5.96,9.37-6.21,17.44-15.88,27.97-20.25-1.45,2.67-3.88,4.47-6.83,6.77-5.26,4.08-7.95,9.75-9.41,16.13-2.21,9.67,1.15,20.13,12.5,20.19,6.19,.04,12.41-3.08,17.57-6.19,5.92-3.55,10.65-8.71,14.32-14.48,4.55-7.17,7.08-15.43,8.5-23.88,9.49,18.48,30.1,37.8,49.54,21.82,16.61-13.66-10.75-24.13-21.56-34.88,2.13,.87,4.2,1.96,6.17,2.97,5.64,2.88,11.12,6.09,17,8.47,10.98,4.48,23.28,4.04,29.85-7.25,5.66-9.74-6.08-14.26-13.3-16.43-5.88-1.78-16.89-3.68-21.15-9.59,14.5,1.59,30.64,3.39,43.15-4.98,5.67-3.8,12.49-11.12,13.16-18.26,.55-5.83-5.76-7.9-10.3-8.35-12.38-1.22-24.42,4.24-36.83,3.85-2.98-.1-5.93-.42-8.85-1.07-1.09-.24-2.21-.54-3.22-1.01-.38-.18-.79-.51-1.06-.71,.07-.17,.17-.38,.35-.59,1.1-1.28,2.54-2.23,3.94-3.16,3.17-2.09,6.51-3.3,10.29-3.7,7.21-.76,14.4,.14,21.59-1.11,8.08-1.4,14.65-6.09,19.98-12.11,4.75-5.35,9.32-12.13,10.07-19.43,.78-7.54-3.8-12.64-10.52-15.21-18.82-7.2-29.84,12.25-43.27,21.07-3.55,2.34-7.78,3.89-11.84,5.13-1.65,.51-6.51,2.18-8.11,.89-.96-.78,2.23-5.89,2.84-6.86,2.72-4.38,6.16-7.43,10.6-9.98,11.23-6.42,24.93-8.42,33.78-18.57,5.81-6.67,10.38-17.96,4.7-26.09-6.04-8.62-19.46-6.28-27.05-1.28-9.54,6.31-14.35,19.09-25.83,22.14-1-5.44,1.13-10.44,4.79-15.28,5.36-7.07,12.26-12.88,18.62-19.02,6.09-5.87,12.35-12.25,15.52-20.25,3.25-8.17,1.16-16.44-4.11-23.24Z" style="fill:#aab9de; fill-rule:evenodd;"/><path d="M631.2,924.37c1.83-7.36,1.45-15.15,.63-22.62-.22-1.99-2.3-3.47-4.24-3.12-10.28,1.81-20.51,4.06-30.91,5.06-3.42,.34-8.09,.63-10.88-.18-.18-.06-.77-.34-1.06-.46,.01-.06,.03-.11,.06-.19,.25-.79,.67-1.45,1.13-2.14,7.9-11.84,22.58-16.59,31.13-27.76,4.53-5.9,7.59-14.12,8.51-21.46,1-7.97-1.6-15.55,2.27-23.08,1.41-2.75-1.5-5.2-4.02-5.06-14.23,.86-30.76-.61-43.61,6.74-11.39,6.53-15.56,18.75-18.66,30.73-1.5,5.8-3.11,11.6-5.53,17.1-1.33,3.02-3.82,8.38-7.82,7.94-4.18-.45-2.75-7.29-2.31-10.61,.92-6.8,2.85-13.46,4.57-20.09,2.86-10.97,6.94-27.98-3-36.56-4.37-3.78-10.41-1.96-14.62,.97-6.68,4.66-11.08,13.19-13.96,20.55-6.53,16.71,1.32,33.93-1.16,50.94-.57,3.92-3.68,15.86-9.5,14.99-2.03-.3-3.81-3.31-4.69-4.87-2.16-3.82-3.85-8.54-3.89-12.96-.16-16.81,10.88-31.68,9.9-48.69-.44-7.46-4.23-16.5-10.16-21.2-5.03-3.98-11.43-2.61-16.26,.85-5.85,4.17-9.64,11.33-12.12,17.88-2.86,7.59-3.86,15.68-2.65,23.69,2.42,16.03,12.66,30.66,6.87,47.15-.79,2.25-2,4.96-4.32,6-1.79,.8-3.94-.95-5.22-2-5.71-4.68-9.49-13.79-10.77-20.85-1.54-8.54,.81-17.5,2.03-25.94,1.28-8.92,1.17-17.64-2.14-26.12-2.4-6.16-7.46-12.07-14.62-11.61-6.57,.41-11.84,5.53-15.62,10.46-5.02,6.53-8.14,14.52-9.69,22.54-1.69,8.67,.97,18.15,3.86,26.26,3.01,8.42,7.11,16.41,9.8,24.95,.71,2.25,1.31,3.97,2.68,5.98,1.46,2.14,3.17,4.13,4.23,6.53,.89,2.02-1.76,2.3-3.43,2.69-4.01,.95-7.32-3.51-9.71-6.1-2.26-2.45-4.95-4.51-7.03-7.1-2.38-2.99-4.19-6.42-6.06-9.72-3.71-6.56-7.56-13.57-13.89-17.97-6.12-4.26-14.5-4.06-20.94-.6-13.54,7.25-10.32,26.22-4.07,37.27,4.01,7.07,9.89,11.71,17.4,14.79,9.26,3.79,19.08,4.77,26.27,11.92-2.75,2.99-6.17,3.86-10.75,2.92-6.3-1.28-12.28-5.25-17.68-8.54-10.65-6.51-24.27-17.54-37.65-14.98-1.64,.31-2.99,1.57-3.15,3.28-.72,7.63-.04,15.21,4.29,21.72,3.6,5.4,9.86,8.5,15.83,10.45,10.68,3.52,23.27,3.89,33.22,9.44-2.99,.51-5.92-.27-9.54-1.17-6.47-1.61-12.59-.21-18.5,2.59-8.96,4.25-15.1,13.36-8.12,22.31,3.81,4.89,10.1,7.84,15.74,9.98,6.45,2.45,13.43,2.97,20.25,2.29,8.45-.86,16.5-3.99,24.01-8.11-8.64,18.89-11.06,47.03,13.53,52.41,21,4.59,12.3-23.38,14.05-38.51,.63,2.21,1.06,4.51,1.48,6.68,1.22,6.23,2.1,12.5,3.86,18.61,3.28,11.38,11.24,20.79,24.17,18.96,11.16-1.58,7.44-13.6,4.68-20.61-2.26-5.72-7.56-15.54-5.57-22.56,7.73,12.38,16.32,26.17,30.63,30.82,6.5,2.1,16.46,2.92,22.49-.96,4.92-3.18,2.64-9.41,.18-13.27-6.7-10.47-18.44-16.56-25.81-26.55-1.77-2.4-3.35-4.92-4.64-7.61-.48-1.01-.94-2.06-1.21-3.15-.11-.41-.09-.94-.09-1.28,.17-.04,.4-.09,.67-.08,1.7,.06,3.33,.6,4.93,1.12,3.61,1.21,6.63,3.08,9.28,5.8,5.05,5.19,8.8,11.39,14.24,16.28,6.1,5.47,13.84,7.73,21.87,8.2,7.15,.42,15.3-.2,21.49-4.12,6.41-4.04,7.59-10.81,5.44-17.68-6-19.23-28.09-15.85-43.33-20.94-4.04-1.35-7.87-3.72-11.35-6.12-1.43-.98-5.74-3.77-5.72-5.83,.01-1.23,6.01-1.89,7.15-2.01,5.13-.58,9.65,.23,14.39,2.16,12,4.84,22.05,14.36,35.49,15.03,8.84,.44,20.54-2.96,23.41-12.45,3.03-10.06-7.11-19.18-15.74-22.03-10.85-3.6-23.86,.53-33.36-6.59,3.65-4.15,8.9-5.58,14.97-5.69,8.87-.17,17.71,1.66,26.46,2.85,8.38,1.16,17.28,2.12,25.51-.33,8.44-2.52,13.65-9.27,15.72-17.61Z" style="fill:#aab9de; fill-rule:evenodd;"/><path d="M127.04,719.46c-7.07-2.74-14.84-3.35-22.35-3.48-2-.03-3.73,1.84-3.64,3.82,.5,10.42,1.43,20.85,1.11,31.3-.11,3.43-.41,8.1-1.56,10.77-.07,.16-.44,.72-.59,.99-.06-.02-.11-.04-.19-.07-.75-.36-1.36-.85-1.98-1.4-10.73-9.32-13.6-24.49-23.59-34.38-5.29-5.24-13.06-9.31-20.22-11.15-7.78-2-15.62-.38-22.59-5.18-2.55-1.75-5.36,.84-5.53,3.35-.95,14.22-4.5,30.44,1.17,44.09,5.03,12.13,16.63,17.81,28.11,22.4,5.57,2.23,11.12,4.56,16.26,7.65,2.83,1.7,7.84,4.86,6.9,8.77-.98,4.08-7.58,1.8-10.82,.94-6.64-1.78-12.99-4.53-19.35-7.08-10.52-4.21-26.88-10.41-36.64-1.65-4.31,3.86-3.27,10.09-.89,14.64,3.78,7.21,11.69,12.66,18.62,16.45,15.74,8.59,33.81,2.98,50.38,7.6,3.81,1.05,15.26,5.66,13.67,11.31-.55,1.97-3.78,3.35-5.43,4.03-4.07,1.66-8.97,2.74-13.35,2.22-16.69-1.96-30.05-14.81-47.05-15.98-7.45-.51-16.89,2.12-22.31,7.41-4.59,4.49-4.03,11-1.22,16.23,3.4,6.33,10.01,10.99,16.2,14.28,7.16,3.79,15.06,5.8,23.16,5.62,16.21-.37,32.01-8.69,47.63-.85,2.13,1.07,4.67,2.61,5.41,5.03,.57,1.88-1.45,3.8-2.64,4.92-5.37,5.09-14.87,7.67-22.04,8.05-8.67,.44-17.26-3.02-25.48-5.29-8.68-2.4-17.35-3.39-26.18-1.18-6.41,1.6-12.91,5.88-13.37,13.03-.42,6.57,3.98,12.44,8.4,16.82,5.84,5.81,13.37,9.9,21.13,12.46,8.39,2.76,18.14,1.33,26.54-.51,8.73-1.92,17.18-4.98,25.99-6.57,2.33-.42,4.11-.8,6.28-1.9,2.31-1.18,4.5-2.63,7.01-3.38,2.12-.62,2.06,2.03,2.24,3.75,.43,4.1-4.42,6.82-7.29,8.86-2.72,1.94-5.09,4.34-7.93,6.06-3.26,2-6.89,3.35-10.41,4.79-6.98,2.85-14.41,5.79-19.58,11.5-5,5.53-5.86,13.87-3.25,20.69,5.48,14.35,24.71,13.56,36.46,8.76,7.53-3.08,12.87-8.34,16.87-15.39,4.94-8.71,7.15-18.32,15.15-24.55,2.62,3.11,3.06,6.61,1.54,11.04-2.08,6.09-6.76,11.52-10.72,16.46-7.8,9.74-20.48,21.85-19.62,35.46,.1,1.65,1.18,3.15,2.86,3.54,7.47,1.68,15.09,1.96,22.09-1.52,5.81-2.88,9.67-8.71,12.38-14.39,4.84-10.14,6.79-22.58,13.57-31.74,.12,3.03-1.02,5.83-2.37,9.31-2.42,6.21-1.81,12.46,.23,18.68,3.09,9.43,11.34,16.67,21.1,10.87,5.33-3.16,9.05-9.04,11.89-14.35,3.25-6.09,4.64-12.95,4.83-19.79,.22-8.49-1.87-16.88-5-24.85,17.64,10.95,45.25,16.91,53.7-6.78,7.22-20.26-21.63-15.16-36.43-18.82,2.28-.34,4.61-.47,6.82-.63,6.32-.41,12.67-.49,18.94-1.47,11.71-1.8,22.05-8.52,21.86-21.58-.15-11.26-12.54-9.1-19.86-7.25-5.96,1.52-16.37,5.53-23.07,2.67,13.25-6.1,28.02-12.87,34.43-26.48,2.91-6.18,4.99-15.95,1.9-22.44-2.52-5.28-9-3.8-13.13-1.86-11.24,5.33-18.76,16.2-29.6,22.25-2.61,1.45-5.31,2.7-8.14,3.64-1.06,.34-2.18,.67-3.29,.8-.42,.05-.93-.03-1.27-.07-.03-.19-.05-.41,0-.68,.28-1.67,1.02-3.22,1.75-4.74,1.65-3.43,3.88-6.18,6.92-8.48,5.79-4.34,12.43-7.28,17.95-12.06,6.21-5.36,9.42-12.76,10.9-20.66,1.31-7.03,1.74-15.2-1.36-21.84-3.21-6.87-9.76-8.89-16.85-7.64-19.84,3.51-19.29,25.85-26.26,40.34-1.84,3.82-4.68,7.34-7.51,10.48-1.16,1.28-4.46,5.22-6.51,4.94-1.22-.17-1.11-6.21-1.09-7.35,.06-5.16,1.45-9.54,3.95-14.01,6.32-11.28,17.04-20.05,19.4-33.3,1.55-8.72-.34-20.76-9.4-24.8-9.61-4.28-19.92,4.63-23.85,12.84-4.93,10.31-2.48,23.74-10.75,32.26-3.65-4.15-4.41-9.53-3.76-15.57,.96-8.82,3.89-17.36,6.19-25.88,2.21-8.17,4.28-16.88,2.89-25.36-1.43-8.68-7.46-14.7-15.48-17.82Z" style="fill:#aab9de; fill-rule:evenodd;"/><path d="M488.22,821.93c-1.01-7.51-4.24-14.61-7.75-21.25-.94-1.77-3.43-2.37-5.1-1.34-8.88,5.48-17.56,11.34-26.86,16.11-3.06,1.57-7.29,3.56-10.18,3.84-.18,.02-.85-.02-1.15-.03-.01-.06-.02-.12-.02-.2-.05-.83,.09-1.6,.26-2.41,2.98-13.91,14.86-23.75,18.69-37.28,2.02-7.15,1.83-15.93-.02-23.08-2.01-7.78-7.22-13.86-6.39-22.29,.3-3.07-3.33-4.28-5.61-3.21-12.9,6.04-28.82,10.78-38.03,22.35-8.17,10.26-7.54,23.17-6.01,35.45,.75,5.93,1.4,11.93,1.17,17.92-.12,3.31-.46,9.22-4.33,10.27-4.06,1.11-5.26-5.75-6.06-9.01-1.65-6.67-2.33-13.55-3.17-20.36-1.4-11.25-3.88-28.56-16.28-32.87-5.46-1.89-10.41,2.02-13.23,6.3-4.49,6.79-5.43,16.35-5.39,24.26,.08,17.94,13.74,31.04,17.72,47.77,.91,3.85,2.43,16.09-3.29,17.44-2,.46-4.77-1.69-6.16-2.81-3.42-2.76-6.74-6.52-8.4-10.61-6.35-15.56-1.57-33.46-8.77-48.89-3.16-6.77-10.01-13.78-17.27-15.95-6.15-1.84-11.59,1.8-14.8,6.78-3.89,6.04-4.78,14.09-4.66,21.09,.14,8.11,2.2,16,6.28,23,8.16,14,23.08,23.81,23.78,41.27,.1,2.39-.03,5.36-1.79,7.18-1.37,1.4-4.02,.57-5.58,.07-7.05-2.25-13.92-9.31-17.7-15.41-4.58-7.38-5.7-16.56-7.69-24.86-2.1-8.76-5.42-16.83-11.63-23.48-4.5-4.83-11.39-8.46-17.88-5.4-5.96,2.81-8.96,9.51-10.66,15.5-2.26,7.91-2.2,16.48-.68,24.51,1.63,8.68,7.6,16.52,13.28,22.98,5.91,6.71,12.67,12.63,18.32,19.57,1.49,1.84,2.69,3.21,4.71,4.58,2.15,1.46,4.47,2.66,6.34,4.5,1.57,1.56-.79,2.79-2.19,3.77-3.38,2.36-8.1-.57-11.27-2.09-3.01-1.44-6.26-2.35-9.15-4-3.31-1.89-6.26-4.42-9.22-6.81-5.87-4.72-12.03-9.81-19.54-11.57-7.25-1.7-14.97,1.57-19.69,7.16-9.91,11.73,.08,28.18,9.97,36.14,6.34,5.1,13.52,7.24,21.63,7.33,10,.12,19.49-2.61,28.81,1.38-1.45,3.8-4.31,5.88-8.92,6.69-6.34,1.12-13.35-.35-19.59-1.42-12.29-2.12-29.03-7.37-40.52-.03-1.4,.89-2.19,2.56-1.71,4.21,2.14,7.36,5.58,14.15,12.02,18.59,5.33,3.7,12.3,4.27,18.57,3.89,11.22-.67,23.05-4.99,34.36-3.49-2.59,1.58-5.6,1.93-9.3,2.43-6.6,.89-11.78,4.45-16.24,9.23-6.76,7.26-9.11,18,.68,23.74,5.35,3.13,12.28,3.54,18.31,3.46,6.9-.1,13.58-2.2,19.66-5.36,7.54-3.91,13.87-9.79,19.33-16.38-1.06,20.73,7.07,47.79,31.91,43.71,21.22-3.48,2.8-26.26-1.16-40.98,1.41,1.82,2.65,3.79,3.85,5.66,3.43,5.33,6.57,10.84,10.45,15.86,7.25,9.38,18.12,15.18,29.46,8.71,9.79-5.59,1.9-15.39-3.26-20.89-4.2-4.47-12.76-11.65-13.49-18.9,11.75,8.65,24.82,18.29,39.83,17.33,6.82-.44,16.38-3.35,20.55-9.19,3.41-4.77-1.02-9.72-4.73-12.38-10.1-7.26-23.25-8.59-33.78-15.16-2.53-1.58-4.93-3.34-7.12-5.36-.83-.75-1.64-1.58-2.29-2.48-.25-.35-.43-.84-.56-1.16,.14-.1,.33-.23,.59-.32,1.6-.57,3.32-.67,5-.76,3.8-.22,7.29,.39,10.77,1.96,6.61,2.96,12.39,7.35,19.23,9.87,7.7,2.84,15.72,2.09,23.36-.45,6.79-2.25,14.15-5.82,18.46-11.74,4.46-6.13,3.06-12.85-1.47-18.45-12.67-15.67-31.96-4.37-48-3.48-4.25,.24-8.68-.54-12.81-1.49-1.69-.4-6.72-1.39-7.46-3.3-.44-1.15,4.89-3.98,5.9-4.52,4.55-2.43,9.05-3.34,14.18-3.31,12.93,.07,25.79,5.22,38.53,.87,8.38-2.85,18-10.33,17.16-20.21-.89-10.48-13.68-15.2-22.76-14.67-11.41,.67-21.98,9.31-33.44,6.18,1.87-5.2,6.21-8.47,11.81-10.81,8.18-3.43,17.07-5,25.64-7.11,8.22-2.02,16.84-4.42,23.59-9.73,6.92-5.45,9.26-13.64,8.11-22.17Z" style="fill:#bcc9e7; fill-rule:evenodd;"/><path d="M433.27,749.95c-4.31,18.71-8.04,37.57-13.42,56.03-5.53,18.95-13.37,36.47-24.19,52.98-22.33,34.08-50.78,63.63-73.78,97.25-.96,1.39-.77,2.75-.03,3.77-4.43,8.38-7.01,17.9-8.86,27-3.22,15.86-4.2,32.14-4.84,48.3-.79,19.73-.63,39.35,.28,59.09,1.07,23.18,2.61,46.39,1.63,69.6-.06,1.35-.13,2.69-.2,4.03-.27,4.81,7.18,4.78,7.45,0,1.27-22.66-.04-45.34-1.15-67.99-.99-20.18-1.44-40.27-.72-60.47,.57-15.62,1.34-31.27,4.01-46.69,2.43-14.02,6.31-29.89,16.89-40.14,1.5-1.47,1.35-3.29,.41-4.61,21.5-29.23,46.15-56.08,66.07-86.5,10.66-16.27,18.26-33.84,23.86-52.44,5.65-18.8,9.38-38.12,13.78-57.23,1.08-4.67-6.11-6.66-7.18-1.97Z" style="fill:#bcc9e7; fill-rule:evenodd;"/><path d="M311.72,1169.11c-4.04-36.22-20.71-68.63-37.97-100.14-17.11-31.23-35.15-62.9-40.4-98.67-.7-4.74-7.87-2.71-7.18,1.98,10.48,71.38,70.06,124.76,78.1,196.83,.53,4.72,7.98,4.77,7.44,0Z" style="fill:#bcc9e7; fill-rule:evenodd;"/><path d="M421.23,999.37c-31.88,13.92-63.11,35.2-84.51,62.92-11.68,15.13-18.54,32.34-22.84,50.38-1.63-18.8-5.08-37.43-8.68-55.93-8.39-43.19-14.86-86.59-18.92-130.42-1.61-17.4-2.81-34.82-3.62-52.26-.22-4.79-7.67-4.8-7.45,0,2.23,48.42,7.8,96.6,15.32,144.47,5.08,32.39,13.66,64.38,16.15,97.11-2.81-17.7-7.03-35.16-12.46-52.18-7.77-24.34-18.22-47.99-31.79-69.67,.08-.92-.19-1.9-.97-2.78-.93-1.04-1.86-2.05-2.81-3.05-3.35-5.07-6.89-10.02-10.61-14.83-1.66-2.14-4.05-1.38-5.3,.36-5.7-4.37-11.79-8.27-18.35-11.67-15.31-7.92-34.37-13.06-41.71-30.41-1.87-4.41-8.28-.61-6.43,3.77,7.29,17.24,25.09,23.65,40.65,31.21,13.96,6.78,25.75,15.51,36.29,26.63,14.88,22.66,25.99,47.83,34.21,73.57,9.97,31.24,15.68,64.09,15.75,96.92,0,.18,.01,.35,.03,.51-.51,2.43,1.41,4.03,3.45,4.19,1,3.38,6.99,2.91,7.32-1.35,2.73-35.24,6.74-72.22,29.31-100.95,20.84-26.51,51.03-46.73,81.72-60.12,4.4-1.91,.59-8.34-3.76-6.44Z" style="fill:#aab9de; fill-rule:evenodd;"/><path d="M198.31,749.15c-6.77-3.42-14.44-4.78-21.91-5.63-1.98-.23-3.89,1.48-3.99,3.45-.51,10.42-.58,20.9-1.91,31.27-.44,3.41-1.19,8.03-2.59,10.56-.09,.16-.51,.69-.69,.94-.04-.04-.1-.06-.17-.11-.71-.42-1.27-.97-1.84-1.58-9.79-10.32-11.17-25.68-20.16-36.5-4.76-5.71-12.1-10.53-19.05-13.06-7.55-2.73-15.51-1.88-21.99-7.33-2.36-1.99-5.41,.31-5.82,2.81-2.32,14.05-7.42,29.86-3.09,44,3.83,12.56,14.83,19.33,25.81,25.01,5.32,2.76,10.63,5.61,15.45,9.19,2.65,1.97,7.34,5.59,6.02,9.38-1.37,3.98-7.72,1.08-10.86-.11-6.43-2.41-12.5-5.75-18.58-8.9-10.06-5.22-25.74-12.96-36.31-5.18-4.65,3.43-4.22,9.73-2.3,14.47,3.06,7.55,10.41,13.74,16.94,18.18,14.84,10.08,33.37,6.22,49.41,12.42,3.69,1.43,14.64,7.11,12.51,12.59-.74,1.91-4.08,2.98-5.79,3.49-4.21,1.25-9.19,1.86-13.5,.92-16.43-3.58-28.48-17.64-45.29-20.45-7.37-1.23-17.02,.46-22.92,5.21-5,4.03-5.07,10.58-2.78,16.05,2.77,6.62,8.9,11.91,14.75,15.77,6.75,4.48,14.43,7.25,22.5,7.84,16.17,1.19,32.7-5.54,47.5,3.76,2.02,1.27,4.4,3.05,4.89,5.53,.38,1.92-1.8,3.63-3.1,4.64-5.84,4.54-15.55,6.21-22.72,5.88-8.68-.4-16.88-4.66-24.85-7.72-8.41-3.22-16.94-5.06-25.94-3.7-6.53,.97-13.42,4.59-14.57,11.68-1.06,6.51,2.77,12.76,6.73,17.57,5.25,6.33,12.34,11.14,19.83,14.44,8.08,3.56,17.92,3.08,26.46,2.05,8.88-1.06,17.58-3.29,26.5-4.03,2.36-.19,4.16-.4,6.43-1.28,2.42-.95,4.73-2.18,7.3-2.68,2.17-.41,1.85,2.23,1.87,3.94,.03,4.12-5.06,6.36-8.11,8.12-2.89,1.66-5.49,3.82-8.48,5.27-3.43,1.66-7.18,2.67-10.82,3.76-7.22,2.17-14.91,4.37-20.61,9.55-5.5,5.02-7.17,13.24-5.23,20.29,4.07,14.8,23.28,15.89,35.44,12.24,7.79-2.35,13.62-7.05,18.28-13.68,5.76-8.19,8.89-17.55,17.45-22.97,2.32,3.35,2.4,6.87,.48,11.13-2.66,5.87-7.84,10.8-12.26,15.34-8.69,8.94-22.49,19.78-22.96,33.39-.06,1.66,.87,3.26,2.5,3.79,7.28,2.4,14.83,3.42,22.14,.63,6.06-2.31,10.47-7.72,13.71-13.11,5.79-9.64,8.93-21.83,16.57-30.3-.18,3.03-1.58,5.71-3.26,9.04-3,5.95-3,12.23-1.58,18.61,2.16,9.68,9.68,17.7,19.95,12.87,5.61-2.63,9.88-8.12,13.22-13.14,3.82-5.74,5.88-12.43,6.72-19.23,1.04-8.42-.23-16.98-2.57-25.21,16.5,12.6,43.4,21.21,54.1-1.57,9.14-19.47-20.07-17.17-34.45-22.25,2.3-.11,4.63-.02,6.85,.03,6.33,.2,12.65,.73,18.99,.37,11.83-.67,22.76-6.35,23.85-19.38,.93-11.22-11.61-10.27-19.06-9.12-6.07,.93-16.83,3.93-23.22,.43,13.78-4.8,29.13-10.12,36.83-23.04,3.5-5.87,6.5-15.4,4.05-22.14-2-5.5-8.59-4.66-12.89-3.11-11.7,4.22-20.24,14.31-31.61,19.29-2.73,1.19-5.54,2.17-8.45,2.84-1.09,.24-2.23,.45-3.34,.47-.42,.01-.93-.13-1.27-.2-.01-.17,0-.41,.07-.67,.44-1.63,1.32-3.12,2.19-4.55,1.97-3.25,4.46-5.78,7.71-7.76,6.18-3.78,13.07-6.06,19.03-10.27,6.7-4.75,10.61-11.8,12.85-19.52,1.99-6.87,3.2-14.96,.75-21.87-2.53-7.16-8.85-9.8-16.04-9.23-20.09,1.58-21.69,23.87-30.03,37.6-2.21,3.64-5.36,6.85-8.49,9.71-1.28,1.18-4.94,4.77-6.95,4.29-1.19-.29-.51-6.29-.38-7.42,.57-5.13,2.37-9.36,5.29-13.57,7.38-10.62,18.9-18.31,22.53-31.27,2.39-8.52,1.66-20.68-6.96-25.59-9.15-5.19-20.27,2.68-24.97,10.46-5.91,9.79-4.77,23.39-13.83,31.07-3.24-4.48-3.46-9.91-2.23-15.85,1.8-8.69,5.54-16.91,8.66-25.17,2.98-7.92,5.89-16.37,5.32-24.95-.58-8.79-6.01-15.35-13.68-19.22Z" style="fill:#d0d9ee; fill-rule:evenodd;"/><polygon points="396.3 1388.06 235.64 1388.06 183.05 1180.31 445.23 1180.31 396.3 1388.06" style="fill:#bcc9e7; fill-rule:evenodd;"/><rect x="165.53" y="1153.3" width="293.57" height="27.01" style="fill:#aab9de;"/><polygon points="314.14 1180.31 183.05 1180.31 235.64 1388.06 314.14 1388.06 314.14 1180.31" style="fill:#aab9de; fill-rule:evenodd;"/><rect x="165.53" y="1153.3" width="148.61" height="27.01" style="fill:#8d9fca;"/><polygon points="396.3 1391.17 235.64 1391.17 183.05 1363.13 445.23 1363.13 396.3 1391.17" style="fill:#aab9de; fill-rule:evenodd;"/><polygon points="314.14 1363.13 183.05 1363.13 235.64 1391.17 314.14 1391.17 314.14 1363.13" style="fill:#8d9fca; fill-rule:evenodd;"/><path d="M858.12,1446.84c-406.66,0-736.32,23.49-736.32,52.45s329.66,52.45,736.32,52.45,736.31-23.49,736.31-52.45-329.66-52.45-736.31-52.45Z" style="fill:#d0d9ee; fill-rule:evenodd;"/><path d="M879.39,510.21c-23.28,6.46-21.57,10.38-24.6,11.08-3.55,.88-47.41-16.6-47.41-16.6,0,0-129.66-50.62-136.58-53.65l-98.32-108.57-67.6,41.11s110.14,114.87,116.91,119.69c6.86,4.91,190.99,50.71,207.03,55.29,0,0,16.8,13.34,27.58,21.25,10.79,7.91,24.72,10.1,28.08,11.74,.5,.27,12.18,5.23,28.31,7.07,13.92,1.62,1.87-6.8,1.87-6.8,0,0-24.94-7.98-23.88-10.04,.8-1.62,14.13,3.63,29.46,5.53,3.99,.55,7.89,1.02,11.47,1.41,9.42,1.09,13.16-4.86,3.57-7.69-3.41-1.05-9.08-2.57-13.29-3-4.57-.49-8.5-2.5-12.21-3.51-7.46-2.14-12.89-3.52-12.62-3.82,.36-.36-.78-1.94,3.45-1.53,5.07,.47,15.48,4.08,22.99,4.06,4.31,.07,13.23,.76,13.23,.76,0,0,13.75-1.82,14-2.68,1.26-4.87-8.25-6.48-14.14-5.74-3.81-1.52-13.21-1.91-13.21-1.91,0,0-18.56-5.47-17.71-8.39,.38-1.22,12.24,.66,24.24,.46,11.1-.22,22.5-2.3,22.95-4.7,.79-4.02-11.56-5.32-11.56-5.32,0,0-8.64-.29-11.51-.67-3.34-.38-13.29-2.57-13.29-2.57,0,0-34-9-32.94-11.63,1.01-2.73,6.13-8.67,8.46-8.95,2.31-.27,6.7,1.75,9.02,1.47,2.38-.16,5.36-2.68,5.52-5.75,.16-3.07-11.29-6.61-11.29-6.61,0,0-9.29-2.73-15.98-.8Z" style="fill:#f4ae7c; fill-rule:evenodd;"/><path d="M599.33,1405.03l-2.33,49.79c-.97,6.42-4.88,22.05-4.83,27.74,.22,21.56,95.75-19.26,74.16-28.59-1.96-.85-12.23-7.27-12.94-14.66-1.1-11.27-3.84-34.04-3.84-34.04l-50.23-.24Z" style="fill:#f4ae7c; fill-rule:evenodd;"/><path d="M666.1,1453.73s-22.46,6.91-33.99,8.6c-11.51,1.82-26.87-11.87-34.99-8.12-8.94,4.24-7.6,44.83-7.6,44.83,0,0,120.31,5.93,154.15-5.45,13.41-4.36-31.38-24.96-77.57-39.86Z" style="fill:#142d4d; fill-rule:evenodd;"/><path d="M388.01,1411.94l-2.33,49.91c-.97,6.3-4.88,21.93-4.83,27.74,.22,21.57,95.75-19.38,74.15-28.71-1.95-.85-15.29-12.12-16-19.39-1.1-11.39-.76-29.32-.76-29.32l-50.24-.24Z" style="fill:#f4ae7c; fill-rule:evenodd;"/><path d="M454.79,1460.64s-22.46,6.91-33.98,8.72c-11.52,1.7-26.88-11.99-35-8.24-8.94,4.24-8.92,41.43-8.92,41.43,0,0,128.63,7.99,158.76-1.09,13.54-4-34.68-25.8-80.87-40.83Z" style="fill:#142d4d; fill-rule:evenodd;"/><path d="M532.68,692.52l40.75,17.08,89.49,406.59-.32,305.55-68.38,2.18s-34.55-266.78-34.77-287.5c-.2-20.72-151.06-360.92-151.06-360.92l124.29-82.99Z" style="fill:#0f3970; fill-rule:evenodd;"/><path d="M501.61,715.3s-26.67,314.15-26.12,367.1c.54,52.95-20.64,349.41-20.64,349.41l-68.57,.24s-5.88-90.14-14.58-222.93c-1.37-20.83,.83-62.75-.88-84.32-12.25-154.72-34.83-300.34-25.36-358.25,1.53-9.33,4.33-33.68,10.2-39.86,44.43-46.89,145.94-11.39,145.94-11.39Z" style="fill:#0f3970; fill-rule:evenodd;"/><path d="M648.28,400.09l-88.76,55.13s-44.28-60.87-45.91-107.11c-22.61-36.44-67.07-83.31-62.12-85.03,14-4.66,41.96-6.59,60.23,1.04,63.04,26.11,136.56,135.98,136.56,135.98Z" style="fill:#406fb5; fill-rule:evenodd;"/><path d="M383.88,246.92s-47.25,7.15-59.61,16.35c-13.91,10.42-29.23,33.68-29.23,33.68,0,0,60.89,273.93,61.47,320.21,.45,35.62-11.31,123.58-11.31,123.58,0,0,175.63,9.33,241.84-17.69,0,0-22.06-104.07-22.33-131.57-.28-27.38-27.96-276.35-33.84-293.67-5.34-15.75-15.12-43.98-47.26-50.76-32.14-6.66-99.72-.12-99.72-.12Z" style="fill:#6998d0; fill-rule:evenodd;"/><path d="M396.04,172.89l-10.92,76.81s43.7,90.87,69.15,82.62c21.34-6.78,7.35-87.47,7.35-87.47,0,0-12.12-43.25-8.84-65.06,3.28-21.68-56.74-6.9-56.74-6.9Z" style="fill:#f4ae7c; fill-rule:evenodd;"/><path d="M452.77,179.8c3.28-21.68-56.74-6.9-56.74-6.9l-.89,6.42c1.79,4.24,3.98,7.76,6.62,10.54,13.58,14.3,34.67,22.66,52.84,23.14-1.95-11.63-3.19-24.23-1.84-33.2Z" style="fill:#ec724c; fill-rule:evenodd;"/><path d="M385.06,64.58c-1.71-.61-12.73,87.47,10.15,111.34,22.88,23.99,67.06,31.5,82.69,12.24,17.28-21.2,15.43-115.7-20.02-140.29-35.45-24.48-72.82,16.72-72.82,16.72Z" style="fill:#f4ae7c; fill-rule:evenodd;"/><path d="M443.99,.61c-27.14,5.7-44.58,22.41-50.99,29.56-12.33,1.57-29.05,8.48-46.08,37.19-20.96,35.26-4.83,73.91,20.18,92.81,25.02,18.78,24.93,40.95,24.93,40.95l3.77-11.63c2.8-8.6,3.89-17.81,2.82-26.78-.63-5.45-1.86-11.39-4.18-16.12-6.09-12.72,12.6-21.32,17.77-31.98,3.97-8.24,3.97-26.9,10.22-40.35l7.52-10.41s17.47-13.81,34.73-10.18c17.27,3.76,14.13-60.58-20.71-53.06Z" style="fill:#0f3970; fill-rule:evenodd;"/><path d="M411.21,130.73c.29,10.66-4.53,19.51-10.75,19.75-6.24,.12-11.54-8.48-11.81-19.14-.29-10.78,4.51-19.63,10.76-19.75,6.22-.12,11.52,8.36,11.81,19.14Z" style="fill:#f4ae7c; fill-rule:evenodd;"/><path d="M312.56,283.02c15.91-.61,31.06,104.31,21.08,114.73-9.98,10.42-10.59,139.81-10.59,139.81l150.12-5.33,.02,.12c2.91-2.06,34.15-23.51,38.6-28.11,4.67-4.97,27.62-2.79,33.76,3.88,6.13,6.54-11.62,3.39-16.98,7.03-5.36,3.76,2.32,10.66,2.32,10.66,0,0,38.11,5.09,45.45-2.79,7.33-7.99,27.01-21.56,29.79-13.69,1.44,4.12-8.67,16.48-14.36,21.69,7.12-5.45,15.68-11.27,18.63-10.3,5.4,1.82,3.24,8.72,.33,10.78-2.9,1.94-32.87,25.32-37.57,27.02-4.6,1.7-74.84,4.12-86.96,6.91,0,0-197.55,47.13-208.83,44.47-9.91-2.43-20.44-65.67-20.94-114.25-.49-48.58,6.39-210.68,56.12-212.62Z" style="fill:#f4ae7c; fill-rule:evenodd;"/><path d="M332.95,258.92s-27.64,6.66-55.92,39.13c-25.72,29.43-40.44,193.36-40.44,193.36l90.01,13.57,6.36-79.23c37.41-57.71,46.43-126.6-.01-166.82Z" style="fill:#406fb5; fill-rule:evenodd;"/><path d="M1197.05,1130.05c-.1,6.31-.46,11.61-.95,15.29,.48-3.67,.84-8.97,.95-15.29Z" style="fill:#f5f6f3; fill-rule:evenodd;"/><path d="M1442.52,1343.83c-162.63,0-294.47,18.9-294.47,42.22s131.84,42.22,294.47,42.22,294.46-18.91,294.46-42.22-131.83-42.22-294.46-42.22Z" style="fill:#d0d9ee; fill-rule:evenodd;"/><path d="M1389.46,662.53c4.65-5.99,11-10.51,17.38-14.49,1.69-1.06,4.15-.34,5.07,1.4,4.94,9.2,9.51,18.62,15.16,27.42,1.86,2.9,4.51,6.74,6.88,8.44,.15,.1,.75,.4,1.02,.54,.04-.05,.07-.09,.11-.16,.46-.69,.73-1.43,.98-2.22,4.41-13.52-.94-28,2.54-41.61,1.84-7.21,6.4-14.71,11.6-19.96,5.64-5.72,13.2-8.37,16.71-16.07,.53-1.16,1.49-1.71,2.52-1.81h.7c1.26,.11,2.53,.82,3.25,1.84,8.13,11.7,19.52,23.78,21.69,38.41,1.92,12.99-5.1,23.83-12.58,33.68-3.63,4.77-7.2,9.63-10.01,14.92-1.55,2.92-4.23,8.2-1.41,11.07,2.95,2.99,7.43-2.35,9.76-4.76,4.77-4.94,8.81-10.56,12.95-16.02,6.84-9.03,17.68-22.76,30.57-20.27,5.68,1.1,7.99,6.97,8.29,12.08,.48,8.12-3.5,16.87-7.5,23.69-9.07,15.47-27.46,19.95-39.29,32.44-2.73,2.86-10.18,12.69-5.9,16.73,1.49,1.4,4.97,.94,6.73,.66,4.34-.66,9.1-2.26,12.59-4.95,13.31-10.28,18.15-28.17,32.12-37.91,6.13-4.27,15.57-6.89,22.93-5.13,6.25,1.48,9.12,7.36,9.4,13.29,.33,7.17-2.94,14.58-6.55,20.58-4.18,6.94-9.93,12.73-16.96,16.74-14.1,8.02-31.92,9.02-41.29,23.77-1.28,2.02-2.66,4.65-2.04,7.11,.49,1.9,3.19,2.5,4.79,2.86,7.22,1.59,16.71-1.08,23.04-4.45,7.67-4.08,13.24-11.47,19.13-17.64,6.21-6.52,13.13-11.83,21.84-14.49,6.32-1.91,14.09-1.6,18.17,4.31,3.75,5.43,2.98,12.72,1.45,18.75-2.02,7.98-6.37,15.36-11.71,21.55-5.77,6.69-14.87,10.48-23.02,13.22-8.48,2.85-17.29,4.57-25.67,7.74-2.21,.83-3.93,1.43-6.36,1.6-2.59,.19-5.2,.06-7.75,.72-2.13,.54-.72,2.81,0,4.36,1.74,3.73,7.3,3.58,10.81,3.85,3.32,.25,6.6,1.1,9.92,1.12,3.82,.03,7.63-.68,11.39-1.26,7.45-1.14,15.33-2.44,22.71-.21,7.13,2.17,12.16,8.88,13.44,16.08,2.68,15.12-14.21,24.34-26.76,26.26-8.04,1.23-15.33-.52-22.39-4.52-8.71-4.92-15.56-12.02-25.62-13.25-.65,4.03,.78,7.25,4.36,10.26,4.92,4.15,11.72,6.39,17.66,8.59,11.69,4.35,28.8,8.21,35.07,20.31,.76,1.47,.61,3.3-.63,4.5-5.54,5.29-11.93,9.44-19.73,10.06-6.47,.51-12.77-2.49-18.01-5.96-9.37-6.21-17.44-15.88-27.97-20.25,1.45,2.67,3.88,4.47,6.83,6.77,5.26,4.08,7.95,9.75,9.41,16.13,2.21,9.67-1.14,20.13-12.49,20.19-6.2,.04-12.41-3.08-17.58-6.19-5.91-3.55-10.64-8.71-14.32-14.48-4.56-7.17-7.09-15.43-8.5-23.88-9.49,18.48-30.1,37.8-49.54,21.82-16.61-13.66,10.75-24.13,21.56-34.88-2.14,.87-4.2,1.96-6.17,2.97-5.64,2.88-11.12,6.09-16.99,8.47-10.97,4.48-23.29,4.04-29.85-7.25-5.67-9.74,6.07-14.26,13.3-16.43,5.88-1.78,16.89-3.68,21.15-9.59-14.5,1.59-30.65,3.39-43.15-4.98-5.68-3.8-12.49-11.12-13.17-18.26-.55-5.83,5.76-7.9,10.31-8.35,12.38-1.22,24.42,4.24,36.83,3.85,2.98-.1,5.94-.42,8.85-1.07,1.09-.24,2.21-.54,3.22-1.01,.39-.18,.79-.51,1.06-.71-.07-.17-.17-.38-.34-.59-1.1-1.28-2.54-2.23-3.94-3.16-3.18-2.09-6.51-3.3-10.3-3.7-7.2-.76-14.4,.14-21.59-1.11-8.09-1.4-14.64-6.09-19.98-12.11-4.74-5.35-9.31-12.13-10.06-19.43-.78-7.54,3.79-12.64,10.52-15.21,18.82-7.2,29.84,12.25,43.27,21.07,3.56,2.34,7.79,3.89,11.83,5.13,1.66,.51,6.51,2.18,8.12,.89,.96-.78-2.23-5.89-2.85-6.86-2.71-4.38-6.15-7.43-10.59-9.98-11.24-6.42-24.93-8.42-33.78-18.57-5.81-6.67-10.39-17.96-4.7-26.09,6.03-8.62,19.46-6.28,27.05-1.28,9.53,6.31,14.34,19.09,25.82,22.14,1-5.44-1.13-10.44-4.79-15.28-5.36-7.07-12.26-12.88-18.62-19.02-6.09-5.87-12.35-12.25-15.52-20.25-3.25-8.17-1.17-16.44,4.1-23.24Z" style="fill:#aab9de; fill-rule:evenodd;"/><path d="M1105.78,924.37c-1.83-7.36-1.45-15.15-.63-22.62,.22-1.99,2.31-3.47,4.24-3.12,10.29,1.81,20.51,4.06,30.92,5.06,3.42,.34,8.09,.63,10.88-.18,.18-.06,.78-.34,1.06-.46-.02-.06-.03-.11-.05-.19-.26-.79-.68-1.45-1.13-2.14-7.9-11.84-22.58-16.59-31.13-27.76-4.52-5.9-7.59-14.12-8.5-21.46-1-7.97,1.6-15.55-2.27-23.08-1.42-2.75,1.5-5.2,4.02-5.06,14.23,.86,30.76-.61,43.6,6.74,11.39,6.53,15.56,18.75,18.67,30.73,1.5,5.8,3.11,11.6,5.53,17.1,1.33,3.02,3.82,8.38,7.82,7.94,4.17-.45,2.75-7.29,2.3-10.61-.92-6.8-2.84-13.46-4.56-20.09-2.86-10.97-6.94-27.98,3-36.56,4.38-3.78,10.42-1.96,14.62,.97,6.68,4.66,11.08,13.19,13.96,20.55,6.54,16.71-1.32,33.93,1.17,50.94,.57,3.92,3.68,15.86,9.49,14.99,2.03-.3,3.81-3.31,4.69-4.87,2.16-3.82,3.85-8.54,3.9-12.96,.15-16.81-10.89-31.68-9.9-48.69,.44-7.46,4.22-16.5,10.17-21.2,5.02-3.98,11.42-2.61,16.25,.85,5.84,4.17,9.64,11.33,12.11,17.88,2.86,7.59,3.86,15.68,2.65,23.69-2.42,16.03-12.66,30.66-6.87,47.15,.79,2.25,2,4.96,4.32,6,1.79,.8,3.94-.95,5.21-2,5.72-4.68,9.5-13.79,10.77-20.85,1.53-8.54-.82-17.5-2.03-25.94-1.28-8.92-1.17-17.64,2.14-26.12,2.4-6.16,7.46-12.07,14.62-11.61,6.57,.41,11.84,5.53,15.62,10.46,5.02,6.53,8.13,14.52,9.69,22.54,1.68,8.67-.97,18.15-3.87,26.26-3.01,8.42-7.12,16.41-9.81,24.95-.71,2.25-1.31,3.97-2.68,5.98-1.46,2.14-3.17,4.13-4.23,6.53-.89,2.02,1.76,2.3,3.43,2.69,4.01,.95,7.33-3.51,9.71-6.1,2.27-2.45,4.96-4.51,7.03-7.1,2.39-2.99,4.19-6.42,6.06-9.72,3.72-6.56,7.56-13.57,13.89-17.97,6.11-4.26,14.49-4.06,20.94-.6,13.54,7.25,10.32,26.22,4.07,37.27-4,7.07-9.89,11.71-17.4,14.79-9.25,3.79-19.08,4.77-26.26,11.92,2.75,2.99,6.17,3.86,10.75,2.92,6.3-1.28,12.28-5.25,17.68-8.54,10.64-6.51,24.26-17.54,37.65-14.98,1.63,.31,2.99,1.57,3.15,3.28,.72,7.63,.04,15.21-4.3,21.72-3.6,5.4-9.85,8.5-15.83,10.45-10.68,3.52-23.27,3.89-33.22,9.44,2.99,.51,5.92-.27,9.54-1.17,6.47-1.61,12.58-.21,18.49,2.59,8.97,4.25,15.1,13.36,8.12,22.31-3.81,4.89-10.1,7.84-15.73,9.98-6.45,2.45-13.43,2.97-20.25,2.29-8.45-.86-16.5-3.99-24.01-8.11,8.64,18.89,11.07,47.03-13.53,52.41-21,4.59-12.29-23.38-14.05-38.51-.63,2.21-1.06,4.51-1.49,6.68-1.22,6.23-2.1,12.5-3.85,18.61-3.28,11.38-11.24,20.79-24.17,18.96-11.16-1.58-7.44-13.6-4.68-20.61,2.26-5.72,7.56-15.54,5.56-22.56-7.73,12.38-16.31,26.17-30.63,30.82-6.49,2.1-16.46,2.92-22.49-.96-4.93-3.18-2.64-9.41-.18-13.27,6.7-10.47,18.43-16.56,25.81-26.55,1.77-2.4,3.35-4.92,4.64-7.61,.48-1.01,.93-2.06,1.2-3.15,.1-.41,.09-.94,.09-1.28-.17-.04-.4-.09-.67-.08-1.69,.06-3.33,.6-4.92,1.12-3.62,1.21-6.63,3.08-9.28,5.8-5.05,5.19-8.8,11.39-14.23,16.28-6.11,5.47-13.84,7.73-21.88,8.2-7.14,.42-15.3-.2-21.49-4.12-6.4-4.04-7.58-10.81-5.44-17.68,6-19.23,28.09-15.85,43.33-20.94,4.03-1.35,7.87-3.72,11.35-6.12,1.43-.98,5.74-3.77,5.71-5.83-.01-1.23-6-1.89-7.15-2.01-5.12-.58-9.65,.23-14.4,2.16-11.99,4.84-22.04,14.36-35.49,15.03-8.84,.44-20.54-2.96-23.41-12.45-3.04-10.06,7.1-19.18,15.74-22.03,10.85-3.6,23.86,.53,33.35-6.59-3.65-4.15-8.89-5.58-14.97-5.69-8.87-.17-17.71,1.66-26.45,2.85-8.38,1.16-17.28,2.12-25.51-.33-8.44-2.52-13.65-9.27-15.72-17.61Z" style="fill:#aab9de; fill-rule:evenodd;"/><path d="M1609.94,719.46c7.06-2.74,14.84-3.35,22.35-3.48,2-.03,3.73,1.84,3.64,3.82-.5,10.42-1.44,20.85-1.11,31.3,.11,3.43,.4,8.1,1.56,10.77,.07,.16,.44,.72,.59,.99,.06-.02,.11-.04,.18-.07,.75-.36,1.36-.85,1.98-1.4,10.74-9.32,13.61-24.49,23.6-34.38,5.28-5.24,13.06-9.31,20.22-11.15,7.77-2,15.62-.38,22.59-5.18,2.55-1.75,5.36,.84,5.52,3.35,.96,14.22,4.5,30.44-1.17,44.09-5.03,12.13-16.63,17.81-28.12,22.4-5.56,2.23-11.12,4.56-16.26,7.65-2.83,1.7-7.84,4.86-6.9,8.77,.99,4.08,7.59,1.8,10.83,.94,6.63-1.78,12.99-4.53,19.35-7.08,10.52-4.21,26.87-10.41,36.64-1.65,4.31,3.86,3.26,10.09,.89,14.64-3.77,7.21-11.68,12.66-18.62,16.45-15.74,8.59-33.81,2.98-50.38,7.6-3.81,1.05-15.26,5.66-13.67,11.31,.55,1.97,3.77,3.35,5.43,4.03,4.07,1.66,8.97,2.74,13.34,2.22,16.7-1.96,30.05-14.81,47.04-15.98,7.46-.51,16.9,2.12,22.31,7.41,4.58,4.49,4.03,11,1.22,16.23-3.41,6.33-10.02,10.99-16.21,14.28-7.15,3.79-15.06,5.8-23.15,5.62-16.21-.37-32.01-8.69-47.63-.85-2.13,1.07-4.68,2.61-5.41,5.03-.57,1.88,1.44,3.8,2.64,4.92,5.37,5.09,14.88,7.67,22.04,8.05,8.68,.44,17.26-3.02,25.49-5.29,8.68-2.4,17.35-3.39,26.18-1.18,6.42,1.6,12.92,5.88,13.37,13.03,.42,6.57-3.99,12.44-8.4,16.82-5.84,5.81-13.36,9.9-21.12,12.46-8.39,2.76-18.14,1.33-26.54-.51-8.74-1.92-17.18-4.98-25.99-6.57-2.33-.42-4.11-.8-6.28-1.9-2.32-1.18-4.5-2.63-7.01-3.38-2.12-.62-2.06,2.03-2.24,3.75-.43,4.1,4.42,6.82,7.28,8.86,2.71,1.94,5.1,4.34,7.94,6.06,3.25,2,6.89,3.35,10.41,4.79,6.98,2.85,14.41,5.79,19.59,11.5,5,5.53,5.85,13.87,3.25,20.69-5.48,14.35-24.71,13.56-36.45,8.76-7.54-3.08-12.88-8.34-16.88-15.39-4.93-8.71-7.15-18.32-15.14-24.55-2.62,3.11-3.05,6.61-1.54,11.04,2.08,6.09,6.76,11.52,10.72,16.46,7.79,9.74,20.47,21.85,19.62,35.46-.1,1.65-1.18,3.15-2.86,3.54-7.48,1.68-15.09,1.96-22.1-1.52-5.8-2.88-9.67-8.71-12.38-14.39-4.84-10.14-6.78-22.58-13.56-31.74-.13,3.03,1.02,5.83,2.37,9.31,2.41,6.21,1.8,12.46-.23,18.68-3.08,9.43-11.34,16.67-21.1,10.87-5.32-3.16-9.05-9.04-11.88-14.35-3.25-6.09-4.65-12.95-4.83-19.79-.22-8.49,1.87-16.88,5-24.85-17.64,10.95-45.25,16.91-53.7-6.78-7.22-20.26,21.63-15.16,36.43-18.82-2.29-.34-4.61-.47-6.82-.63-6.32-.41-12.66-.49-18.94-1.47-11.71-1.8-22.04-8.52-21.86-21.58,.15-11.26,12.55-9.1,19.86-7.25,5.95,1.52,16.37,5.53,23.07,2.67-13.26-6.1-28.03-12.87-34.44-26.48-2.91-6.18-4.98-15.95-1.9-22.44,2.53-5.28,9-3.8,13.13-1.86,11.25,5.33,18.76,16.2,29.6,22.25,2.61,1.45,5.31,2.7,8.13,3.64,1.06,.34,2.18,.67,3.29,.8,.42,.05,.93-.03,1.27-.07,.03-.19,.05-.41,0-.68-.28-1.67-1.02-3.22-1.75-4.74-1.64-3.43-3.87-6.18-6.91-8.48-5.79-4.34-12.43-7.28-17.95-12.06-6.21-5.36-9.42-12.76-10.9-20.66-1.31-7.03-1.74-15.2,1.36-21.84,3.21-6.87,9.76-8.89,16.86-7.64,19.84,3.51,19.28,25.85,26.26,40.34,1.84,3.82,4.68,7.34,7.51,10.48,1.16,1.28,4.46,5.22,6.5,4.94,1.22-.17,1.11-6.21,1.1-7.35-.07-5.16-1.45-9.54-3.96-14.01-6.32-11.28-17.04-20.05-19.4-33.3-1.56-8.72,.33-20.76,9.39-24.8,9.61-4.28,19.92,4.63,23.85,12.84,4.93,10.31,2.48,23.74,10.75,32.26,3.65-4.15,4.41-9.53,3.76-15.57-.96-8.82-3.89-17.36-6.19-25.88-2.2-8.17-4.28-16.88-2.88-25.36,1.42-8.68,7.46-14.7,15.48-17.82Z" style="fill:#aab9de; fill-rule:evenodd;"/><path d="M1248.75,821.93c1.02-7.51,4.24-14.61,7.76-21.25,.93-1.77,3.42-2.37,5.1-1.34,8.88,5.48,17.57,11.34,26.87,16.11,3.06,1.57,7.29,3.56,10.18,3.84,.18,.02,.85-.02,1.15-.03,0-.06,.01-.12,.02-.2,.06-.83-.09-1.6-.26-2.41-2.97-13.91-14.86-23.75-18.69-37.28-2.03-7.15-1.84-15.93,.02-23.08,2.01-7.78,7.22-13.86,6.4-22.29-.3-3.07,3.32-4.28,5.61-3.21,12.91,6.04,28.82,10.78,38.04,22.35,8.17,10.26,7.54,23.17,6.01,35.45-.74,5.93-1.39,11.93-1.17,17.92,.12,3.31,.46,9.22,4.33,10.27,4.06,1.11,5.26-5.75,6.06-9.01,1.65-6.67,2.33-13.55,3.17-20.36,1.39-11.25,3.88-28.56,16.28-32.87,5.46-1.89,10.4,2.02,13.23,6.3,4.49,6.79,5.43,16.35,5.39,24.26-.08,17.94-13.74,31.04-17.72,47.77-.91,3.85-2.43,16.09,3.29,17.44,2,.46,4.77-1.69,6.16-2.81,3.42-2.76,6.73-6.52,8.4-10.61,6.35-15.56,1.58-33.46,8.77-48.89,3.16-6.77,10.01-13.78,17.27-15.95,6.15-1.84,11.58,1.8,14.8,6.78,3.89,6.04,4.78,14.09,4.66,21.09-.14,8.11-2.2,16-6.27,23-8.16,14-23.08,23.81-23.79,41.27-.1,2.39,.03,5.36,1.8,7.18,1.37,1.4,4.01,.57,5.58,.07,7.05-2.25,13.92-9.31,17.7-15.41,4.59-7.38,5.71-16.56,7.7-24.86,2.1-8.76,5.42-16.83,11.62-23.48,4.51-4.83,11.39-8.46,17.88-5.4,5.96,2.81,8.96,9.51,10.66,15.5,2.25,7.91,2.2,16.48,.68,24.51-1.63,8.68-7.6,16.52-13.28,22.98-5.91,6.71-12.67,12.63-18.32,19.57-1.49,1.84-2.69,3.21-4.7,4.58-2.16,1.46-4.47,2.66-6.34,4.5-1.57,1.56,.79,2.79,2.19,3.77,3.37,2.36,8.1-.57,11.27-2.09,3-1.44,6.26-2.35,9.15-4,3.31-1.89,6.26-4.42,9.22-6.81,5.88-4.72,12.04-9.81,19.55-11.57,7.25-1.7,14.97,1.57,19.69,7.16,9.91,11.73-.08,28.18-9.97,36.14-6.34,5.1-13.52,7.24-21.63,7.33-10.01,.12-19.5-2.61-28.81,1.38,1.45,3.8,4.31,5.88,8.92,6.69,6.34,1.12,13.35-.35,19.58-1.42,12.29-2.12,29.03-7.37,40.53-.03,1.4,.89,2.19,2.56,1.71,4.21-2.14,7.36-5.58,14.15-12.01,18.59-5.33,3.7-12.3,4.27-18.57,3.89-11.22-.67-23.06-4.99-34.36-3.49,2.6,1.58,5.61,1.93,9.31,2.43,6.6,.89,11.77,4.45,16.24,9.23,6.76,7.26,9.1,18-.68,23.74-5.34,3.13-12.28,3.54-18.31,3.46-6.9-.1-13.58-2.2-19.66-5.36-7.54-3.91-13.87-9.79-19.33-16.38,1.06,20.73-7.07,47.79-31.91,43.71-21.23-3.48-2.81-26.26,1.15-40.98-1.41,1.82-2.65,3.79-3.85,5.66-3.43,5.33-6.56,10.84-10.45,15.86-7.25,9.38-18.12,15.18-29.46,8.71-9.79-5.59-1.91-15.39,3.26-20.89,4.2-4.47,12.76-11.65,13.49-18.9-11.75,8.65-24.82,18.29-39.84,17.33-6.81-.44-16.37-3.35-20.55-9.19-3.41-4.77,1.02-9.72,4.73-12.38,10.1-7.26,23.25-8.59,33.78-15.16,2.53-1.58,4.93-3.34,7.13-5.36,.81-.75,1.63-1.58,2.28-2.48,.25-.35,.42-.84,.55-1.16-.14-.1-.33-.23-.59-.32-1.6-.57-3.32-.67-5-.76-3.8-.22-7.29,.39-10.77,1.96-6.61,2.96-12.39,7.35-19.24,9.87-7.69,2.84-15.72,2.09-23.36-.45-6.79-2.25-14.14-5.82-18.46-11.74-4.45-6.13-3.05-12.85,1.47-18.45,12.67-15.67,31.96-4.37,48-3.48,4.25,.24,8.69-.54,12.81-1.49,1.69-.4,6.73-1.39,7.47-3.3,.44-1.15-4.89-3.98-5.91-4.52-4.54-2.43-9.05-3.34-14.17-3.31-12.94,.07-25.79,5.22-38.53,.87-8.38-2.85-18-10.33-17.16-20.21,.89-10.48,13.68-15.2,22.76-14.67,11.41,.67,21.98,9.31,33.44,6.18-1.87-5.2-6.21-8.47-11.81-10.81-8.18-3.43-17.07-5-25.64-7.11-8.22-2.02-16.84-4.42-23.59-9.73-6.92-5.45-9.26-13.64-8.11-22.17Z" style="fill:#bcc9e7; fill-rule:evenodd;"/><path d="M1303.71,749.95c4.3,18.71,8.04,37.57,13.42,56.03,5.53,18.95,13.37,36.47,24.19,52.98,22.33,34.08,50.77,63.63,73.78,97.25,.96,1.39,.77,2.75,.03,3.77,4.43,8.38,7.01,17.9,8.85,27,3.22,15.86,4.2,32.14,4.84,48.3,.79,19.73,.63,39.35-.29,59.09-1.08,23.18-2.61,46.39-1.63,69.6,.06,1.35,.13,2.69,.21,4.03,.27,4.81-7.18,4.78-7.45,0-1.28-22.66,.04-45.34,1.15-67.99,.98-20.18,1.44-40.27,.71-60.47-.56-15.62-1.33-31.27-4-46.69-2.43-14.02-6.31-29.89-16.89-40.14-1.5-1.47-1.35-3.29-.41-4.61-21.5-29.23-46.15-56.08-66.08-86.5-10.66-16.27-18.25-33.84-23.85-52.44-5.65-18.8-9.38-38.12-13.77-57.23-1.08-4.67,6.1-6.66,7.18-1.97Z" style="fill:#bcc9e7; fill-rule:evenodd;"/><path d="M1425.26,1169.11c4.04-36.22,20.71-68.63,37.97-100.14,17.11-31.23,35.14-62.9,40.39-98.67,.7-4.74,7.88-2.71,7.18,1.98-10.47,71.38-70.05,124.76-78.1,196.83-.53,4.72-7.98,4.77-7.45,0Z" style="fill:#bcc9e7; fill-rule:evenodd;"/><path d="M1315.75,999.37c31.87,13.92,63.11,35.2,84.5,62.92,11.68,15.13,18.54,32.34,22.85,50.38,1.63-18.8,5.08-37.43,8.68-55.93,8.39-43.19,14.85-86.59,18.92-130.42,1.61-17.4,2.81-34.82,3.61-52.26,.23-4.79,7.68-4.8,7.45,0-2.23,48.42-7.8,96.6-15.31,144.47-5.09,32.39-13.67,64.38-16.16,97.11,2.81-17.7,7.04-35.16,12.47-52.18,7.77-24.34,18.22-47.99,31.79-69.67-.08-.92,.19-1.9,.97-2.78,.92-1.04,1.86-2.05,2.8-3.05,3.36-5.07,6.89-10.02,10.61-14.83,1.66-2.14,4.05-1.38,5.3,.36,5.7-4.37,11.79-8.27,18.35-11.67,15.31-7.92,34.37-13.06,41.71-30.41,1.87-4.41,8.28-.61,6.43,3.77-7.29,17.24-25.1,23.65-40.65,31.21-13.96,6.78-25.75,15.51-36.29,26.63-14.88,22.66-26,47.83-34.21,73.57-9.97,31.24-15.68,64.09-15.74,96.92,0,.18-.02,.35-.04,.51,.51,2.43-1.41,4.03-3.45,4.19-1,3.38-6.99,2.91-7.32-1.35-2.72-35.24-6.74-72.22-29.31-100.95-20.84-26.51-51.04-46.73-81.72-60.12-4.4-1.91-.6-8.34,3.76-6.44Z" style="fill:#aab9de; fill-rule:evenodd;"/><path d="M1538.67,749.15c6.77-3.42,14.45-4.78,21.91-5.63,1.99-.23,3.89,1.48,3.99,3.45,.51,10.42,.59,20.9,1.92,31.27,.44,3.41,1.18,8.03,2.59,10.56,.09,.16,.5,.69,.68,.94,.05-.04,.1-.06,.17-.11,.71-.42,1.27-.97,1.84-1.58,9.79-10.32,11.17-25.68,20.16-36.5,4.76-5.71,12.1-10.53,19.05-13.06,7.55-2.73,15.51-1.88,22-7.33,2.36-1.99,5.41,.31,5.82,2.81,2.32,14.05,7.42,29.86,3.09,44-3.84,12.56-14.83,19.33-25.82,25.01-5.32,2.76-10.62,5.61-15.44,9.19-2.65,1.97-7.33,5.59-6.02,9.38,1.38,3.98,7.72,1.08,10.86-.11,6.43-2.41,12.49-5.75,18.58-8.9,10.06-5.22,25.74-12.96,36.31-5.18,4.66,3.43,4.23,9.73,2.3,14.47-3.06,7.55-10.41,13.74-16.95,18.18-14.83,10.08-33.37,6.22-49.41,12.42-3.69,1.43-14.64,7.11-12.51,12.59,.74,1.91,4.08,2.98,5.79,3.49,4.21,1.25,9.19,1.86,13.5,.92,16.43-3.58,28.48-17.64,45.28-20.45,7.37-1.23,17.02,.46,22.92,5.21,5,4.03,5.07,10.58,2.78,16.05-2.78,6.62-8.9,11.91-14.75,15.77-6.75,4.48-14.44,7.25-22.5,7.84-16.17,1.19-32.7-5.54-47.5,3.76-2.02,1.27-4.4,3.05-4.89,5.53-.38,1.92,1.8,3.63,3.1,4.64,5.84,4.54,15.55,6.21,22.71,5.88,8.68-.4,16.89-4.66,24.85-7.72,8.41-3.22,16.94-5.06,25.94-3.7,6.54,.97,13.42,4.59,14.57,11.68,1.05,6.51-2.77,12.76-6.73,17.57-5.25,6.33-12.35,11.14-19.83,14.44-8.08,3.56-17.92,3.08-26.46,2.05-8.88-1.06-17.58-3.29-26.5-4.03-2.36-.19-4.17-.4-6.44-1.28-2.42-.95-4.73-2.18-7.3-2.68-2.17-.41-1.86,2.23-1.87,3.94-.03,4.12,5.06,6.36,8.1,8.12,2.89,1.66,5.49,3.82,8.49,5.27,3.43,1.66,7.18,2.67,10.82,3.76,7.22,2.17,14.91,4.37,20.6,9.55,5.51,5.02,7.17,13.24,5.24,20.29-4.07,14.8-23.29,15.89-35.44,12.24-7.79-2.35-13.62-7.05-18.28-13.68-5.75-8.19-8.89-17.55-17.45-22.97-2.31,3.35-2.4,6.87-.47,11.13,2.65,5.87,7.84,10.8,12.26,15.34,8.69,8.94,22.49,19.78,22.96,33.39,.06,1.66-.87,3.26-2.5,3.79-7.28,2.4-14.83,3.42-22.14,.63-6.06-2.31-10.47-7.72-13.71-13.11-5.79-9.64-8.93-21.83-16.57-30.3,.17,3.03,1.59,5.71,3.26,9.04,3,5.95,3,12.23,1.57,18.61-2.16,9.68-9.67,17.7-19.95,12.87-5.61-2.63-9.88-8.12-13.22-13.14-3.82-5.74-5.87-12.43-6.71-19.23-1.04-8.42,.23-16.98,2.57-25.21-16.5,12.6-43.4,21.21-54.11-1.57-9.14-19.47,20.07-17.17,34.45-22.25-2.31-.11-4.64-.02-6.85,.03-6.33,.2-12.65,.73-18.99,.37-11.83-.67-22.76-6.35-23.85-19.38-.93-11.22,11.61-10.27,19.07-9.12,6.07,.93,16.83,3.93,23.22,.43-13.78-4.8-29.13-10.12-36.83-23.04-3.5-5.87-6.51-15.4-4.05-22.14,2-5.5,8.59-4.66,12.89-3.11,11.7,4.22,20.24,14.31,31.61,19.29,2.74,1.19,5.54,2.17,8.45,2.84,1.09,.24,2.23,.45,3.34,.47,.42,.01,.93-.13,1.26-.2,.01-.17,.01-.41-.06-.67-.44-1.63-1.33-3.12-2.2-4.55-1.97-3.25-4.45-5.78-7.7-7.76-6.18-3.78-13.07-6.06-19.03-10.27-6.7-4.75-10.61-11.8-12.85-19.52-1.99-6.87-3.2-14.96-.75-21.87,2.53-7.16,8.85-9.8,16.04-9.23,20.08,1.58,21.69,23.87,30.03,37.6,2.21,3.64,5.37,6.85,8.49,9.71,1.28,1.18,4.95,4.77,6.95,4.29,1.19-.29,.51-6.29,.38-7.42-.57-5.13-2.37-9.36-5.29-13.57-7.38-10.62-18.9-18.31-22.53-31.27-2.39-8.52-1.67-20.68,6.95-25.59,9.15-5.19,20.28,2.68,24.98,10.46,5.91,9.79,4.77,23.39,13.82,31.07,3.24-4.48,3.47-9.91,2.23-15.85-1.8-8.69-5.55-16.91-8.66-25.17-2.98-7.92-5.89-16.37-5.32-24.95,.57-8.79,6.01-15.35,13.68-19.22Z" style="fill:#d0d9ee; fill-rule:evenodd;"/><polygon points="1340.68 1388.06 1501.34 1388.06 1553.92 1180.31 1291.75 1180.31 1340.68 1388.06" style="fill:#bcc9e7; fill-rule:evenodd;"/><rect x="1277.87" y="1153.3" width="293.57" height="27.01" style="fill:#aab9de;"/><polygon points="1422.83 1180.31 1553.92 1180.31 1501.34 1388.06 1422.83 1388.06 1422.83 1180.31" style="fill:#aab9de; fill-rule:evenodd;"/><rect x="1422.83" y="1153.3" width="148.61" height="27.01" style="fill:#8d9fca;"/><polygon points="1340.68 1391.17 1501.34 1391.17 1553.92 1363.13 1291.75 1363.13 1340.68 1391.17" style="fill:#aab9de; fill-rule:evenodd;"/><polygon points="1422.83 1363.13 1553.92 1363.13 1501.34 1391.17 1422.83 1391.17 1422.83 1363.13" style="fill:#8d9fca; fill-rule:evenodd;"/><path d="M946.09,294.91c-13.07-6.13-77.52-11.07-72.87,1.16,4.61,12.31-43.96,118.06-43.96,118.06l-123.42-57.45-.05,.09c-1.72-2.7-20.19-31.69-22.26-37.14-2.17-5.72-22.09-12.01-29.56-8.65-7.46,3.37,10.77,5.89,13.93,10.85,3.18,4.96-7.96,9.11-7.96,9.11,0,0-33.6-9.22-36.91-18.46-3.34-9.16-14.96-27.45-20.07-21.87-2.62,2.87,1.42,16.78,4.33,23.15-4.02-7.06-9.11-14.92-11.91-15.17-5.16-.4-5.75,6.06-4.08,8.85,1.71,2.7,18.48,32.78,21.8,35.85,3.28,2.95,61.02,29.84,70.12,36.51,0,0,148.2,109.13,158.58,110.84,9.08,1.57,40.24-47.55,57.83-87.94,17.55-40.3,87.22-88.51,46.45-107.79Z" style="fill:#f4ae7c; fill-rule:evenodd;"/><path d="M896.53,248.2s6.59-7.16,18.89-6.23c12.3,.8,28.43,16.39,30.68,22.05,1.16,2.77-6.57,25.5-9.93,30.46-2,3-6.56,4.5-8.16,2.89-1.06-1.04,.05-6.23,.35-7.27,.57-2.2,4.65-16.16,4.65-16.16,0,0-7.95,14.08-11.64,14.89-3.71,.92-5.76-2.08-5.54-3.23,1.12-6,7.32-17.54,7.32-17.54,0,0-9.32,13.73-13.9,12.23-4.57-1.39-2.68-6.23-2-7.97,.68-1.61,7.07-11.08,7.07-11.08,0,0-10.1,14.08-12.08,9-1.19-3,5.41-16.27,5.41-16.27l-11.12-5.77Z" style="fill:#f3a992; fill-rule:evenodd;"/><path d="M867.05,141.68c-6.35-28.85-12.56-57.82,4.17-89.56,13.54-25.62,36.96-40.39,64.07-43.63,76.79-9.11,83.55,59.44,156.49,89.56,31.17,12.81,63.13,9.12,90.97,25.74,50.29,29.89,76.98,113.91,43.64,192.17-81.64,191.7-274.17,66.25-298.93,28.51-18.42-28.05-56.33-184.2-60.42-202.79Z" style="fill:#0f3970; fill-rule:evenodd;"/><path d="M904.85,409.44l-64.47-36.7s29.28-123.5,81.47-127.42l-17,164.12Z" style="fill:#406fb5; fill-rule:evenodd;"/><path d="M1174.16,1352.4s5.47,55.51,19.53,65.67c14.06,10.27,32.8,47.89,23.43,68.32-2.92,6.35-8.79,10.04-15.46,12.12-19.75,6.12-40.77-4.16-49.17-23.09-4.7-10.5-8.81-24.58-9.65-42.36-2.11-45.01-16.16-67.98-16.16-67.98l47.47-12.69Z" style="fill:#f4ae7c; fill-rule:evenodd;"/><path d="M958.14,1375.13s-4.44,55.98-.83,74.21c1.93,9.7,12.65,29.78,7.72,39.01-4.92,9.12-10.54,11.43-10.54,11.43l-127.5,2.08c-6.96,.12-2.38-4.38,3.22-8.42,9.16-6.81,16.55-11.2,45.85-25.39,1.92-.93,8.86-5.31,11.38-6.81,6.36-3.93,12.74-10.04,18.23-16.04,9.15-10.27,9.95-59.55,9.95-59.55l42.51-10.5Z" style="fill:#f4ae7c; fill-rule:evenodd;"/><path d="M858.47,630.47s-16.05,90.94-5.5,150.5c10.54,59.68,61.15,612.41,61.15,612.41l56.23,3.23s11.8-230.95,9.69-263.04c-2.11-32.09-18.79-85.87-18.79-85.87l5.58-186.4-70.96-244.92-37.39,14.09Z" style="fill:#142d4d; fill-rule:evenodd;"/><path d="M1023.76,611.31s44.28,66.48,54.82,121.53c10.54,55.06-7.75,224.26,12.55,296.39,10.96,39.01,52.58,99.37,58.91,149.81,6.32,50.43,31.14,182.58,31.14,182.58l-56.2,11.08-130.63-329.98-102.47-298.47-26.26-153.62,158.14,20.66Z" style="fill:#142d4d; fill-rule:evenodd;"/><path d="M987.91,232.86s30.36,4.96,52.97,27.12c48.5,47.44-28.49,230.48-32.71,262.69-4.22,32.09,34.55,106.99,34.55,106.99,0,0-144.88,26.78-184.26,.81,0,0-4.62-257.73-.39-280.69,4.21-22.86,51.39-93.72,59.82-102.84,8.43-9.24,70.01-14.08,70.01-14.08Z" style="fill:#6998d0; fill-rule:evenodd;"/><path d="M968.39,154.6s.31,1.73,.85,4.73c2.61,14.08,12.68,60.71,19.47,73.53,8.23,15.46-28.13,64.98-63.12,58.98-10.42-1.85,8.8-45.48,7.88-50.09-1.77-8.88-4.16-20.89-6.61-33.35-1.39-6.92-2.79-13.96-4.11-20.66-3.74-18.93-6.8-34.4-6.8-34.4l52.44,1.27Z" style="fill:#f4ae7c; fill-rule:evenodd;"/><path d="M969.25,159.33c-.55-3-.85-4.73-.85-4.73l-52.44-1.27s3.06,15.47,6.8,34.4c1.32,6.58,2.71,13.62,4.07,20.55,8.1-1.15,16.56-5.08,25.04-12.47,9.24-8.08,15.31-17.77,18.95-28.16-.63-3.34-1.18-6.12-1.58-8.31Z" style="fill:#ec724c; fill-rule:evenodd;"/><path d="M926.86,32.26s18.58,2.89,32.04,22.97c.8,21.74,18.01,83.22-5.46,115.41-33.45,33.58-66.5-4.39-71.41-44.78-.62-34.39-3.9-95.1,44.82-93.6Z" style="fill:#f4ae7c; fill-rule:evenodd;"/><path d="M907.93,25.33s33.02,58.75,56.63,61.52c23.62,2.66,26.72,33.93,26.72,33.93,0,0-8.45-72.02-31.82-85.87-23.39-13.85-51.54-9.58-51.54-9.58Z" style="fill:#0f3970; fill-rule:evenodd;"/><path d="M958.15,92.73c-1.93,10.51,1.94,20.08,8.62,21.36,6.69,1.39,13.66-5.89,15.59-16.39,1.92-10.39-1.95-19.97-8.63-21.36-6.69-1.39-13.67,6-15.58,16.39Z" style="fill:#f4ae7c; fill-rule:evenodd;"/><path d="M1148.66,1465.5c30.64,5.66,51.03-12.23,61.62-25.62,7.79,15.12,12.55,34.05,6.83,46.51-5.05,10.97-18.78,13.97-30.38,14.43-12.28,.46-23.75-6-29.85-16.62-2.84-4.97-5.77-11.2-8.23-18.7Z" style="fill:#0f3970; fill-rule:evenodd;"/><path d="M887.46,1461.23c33.73,8.66,58.65,2.77,72.6-2.88,3.6,10.15,8.36,22.97,5.83,30.24-3.09,9.12-7.51,11.08-11.39,11.2-30.8,.81-112.83,1.96-136.3,2.19-3.3,.11-5.11-3.69-2.99-6.23,5.83-6.92,69.75-33.01,72.26-34.51Z" style="fill:#0f3970; fill-rule:evenodd;"/><path d="M920.44,709.33c19.51-15.89,21.27-11.98,23.73-14.16,2.91-2.51,17.9-51.41,17.9-51.41,0,0,45.21-144.06,47.38-151.94l-17.07-153.71,72.93-32.26s14.17,167.78,13.37,176.75c-.77,8.98-83.96,197.01-90.79,213.84,0,0-.96,22.92-2.01,37.28-1.02,14.26-8.28,27.65-9.18,31.59-.15,.67-3.9,13.84-12.79,28.98-7.67,13.01-6.18-2.78-6.18-2.78,0,0,9.96-26.57,7.82-26.96-1.68-.35-6.34,14.57-14.64,29.05-2.1,3.64-4.28,7.38-6.25,10.71-5.19,8.89-11.89,8.23-7.9-1.81,1.39-3.52,3.93-9.45,6.29-13.37,2.53-4.22,3.5-8.87,5.14-12.8,3.15-7.65,5.57-13.25,5.2-13.27-.47,.08-.9-1.9-3.29,2.01-2.9,4.7-6.87,15.96-11.59,22.46-2.68,3.68-7.84,11.85-7.84,11.85,0,0-10.04,10.83-10.84,10.43-4.38-1.91,.49-11.27,4.76-15.86,1.29-4.29,6.98-12.64,6.98-12.64,0,0,7.78-19.42,5.11-20.6-1.14-.4-7.3,10.94-15.05,21.24-7.21,9.52-15.97,18-17.98,16.8-3.45-1.82,3.47-13.27,3.47-13.27,0,0,5.2-7.66,6.78-10.39,1.81-3.13,6.57-13.02,6.57-13.02,0,0,14.97-35.15,12.33-35.96-2.61-.79-10.21-.06-11.87,1.79-1.66,1.85-2.98,6.87-4.64,8.71-1.67,1.85-5.36,2.86-7.72,1.05-2.39-1.81,2.32-13.91,2.32-13.91,0,0,3.88-9.71,9.54-14.42Z" style="fill:#f4ae7c; fill-rule:evenodd;"/><path d="M1085.83,432.71l-90.81,1.62s-24.23-91.62-13.32-137.36c10.91-45.74,28.79-48.71,38.52-47.39,26.93,3.69,48.91,42.22,60.74,100.24,11.83,58.02,4.87,82.89,4.87,82.89Z" style="fill:#406fb5; fill-rule:evenodd;"/><path d="M1081.49,784.93s-72.79,153.58-63.94,165.19c8.85,11.63,71.01-41.93,84.83-78.02,13.82-36.08-20.89-87.17-20.89-87.17Z" style="fill:#f4ae7c; fill-rule:evenodd;"/><path d="M980.43,819.12s43.97,65.53,63.55,95.09c10.75,16.22-17.05,37.24-26.43,35.91-9.38-1.31-45.04-104.55-45.04-104.55l7.93-26.45Z" style="fill:#f4ae7c; fill-rule:evenodd;"/><path d="M1214.27,822.09s57.8-26.32,101.53-3.3c43.73,23.02,16.99,212.99-45.54,231.41,0,0-117.15,37.46-55.99-228.11Z" style="fill:#0f3d86; fill-rule:evenodd;"/><path d="M1017.67,1451.14s-9.1,10.82-23.71,10.66c-9.02-.1-17.41,2.64-23.53,7.76-5.41,4.55-3.2,13.36,3.69,14.94l69,15.81c6.64,1.52,13.15-3.02,14.01-9.76,.64-5.07,1.43-10.75,2.2-15.14,1.82-10.31-6.52-20.88-6.52-20.88l-35.14-3.39Z" style="fill:#17305b; fill-rule:evenodd;"/><path d="M1017.67,1451.14s-4.05,4.39,35.14,3.39c0,0,34.76-159.45,42.53-170.15,1.85-2.53,15.37-32.53,20.18-41.21,.41-.74,9.32,17.64,9.75,16.89,15.77-28.33,40.43-75.82,42.2-83.05,2.4-9.71-25.95-134.48-49.2-130.46-17.4,3.03-32.39,10.84-38.88,14.6-2.18,1.29-3.4,2.09-3.4,2.09,0,0-.88,3.55-2.39,9.72-1.37,5.58-3.28,13.31-5.57,22.48-.28,1.14-.55,2.3-.86,3.5-12.88,52.43-35.8,145.83-39.28,161.72-4.86,22.34-10.22,190.47-10.22,190.47Z" style="fill:#f4ae7c; fill-rule:evenodd;"/><path d="M1079.61,1035.97l-50.97,185.18s15.11,26.97,44.9,37.1c21,7.13,55.87,4.76,55.87,4.76l48.97-119.53-98.76-107.5Z" style="fill:#0f3d86; fill-rule:evenodd;"/><path d="M1063.43,1094.77l65.97,168.23c15.77-28.34,36.28-78.76,38.06-85.98,2.4-9.71-25.95-134.48-49.2-130.46-17.4,3.03-32.39,10.84-38.88,14.6-2.18,1.29-5.58,.56-5.58,.56,0,0-2.06,2.09-3.57,8.26-1.39,5.58-4.53,15.62-6.81,24.79Z" style="fill:#0f3970; fill-rule:evenodd;"/><path d="M1122.19,779.77l59.38,30.34,11.9-41.19s-7.56-14.26-10.99-37.61c-1.43-9.82-2.14-21.24-1.23-33.9l-48.38,24.77s1.15,4.47,1.92,11.08c.83,7.13,1.19,16.76-.83,25.89-1.75,7.84-5.26,15.33-11.77,20.63Z" style="fill:#f4ae7c; fill-rule:evenodd;"/><path d="M1222.12,1075.6s23.77,148.96,21.25,387.44l-33.62,4.36s-26.76-92.27-43.63-184.18c-9.98-54.37-3.43-213.16-3.43-213.16l59.43,5.54Z" style="fill:#f4ae7c; fill-rule:evenodd;"/><path d="M1255.18,1056.81c-.16,21.45,25.3,203.26,25.3,203.26,0,0-25.17,9.81-57.05,13.37-45.07,5.01-74.08-7.7-74.08-7.7l-56.78-213.72,162.61,4.79Z" style="fill:#0f3d86; fill-rule:evenodd;"/><path d="M1084.53,1073.99c66.05,17.94,150.29,7.89,171.05,4.97,3.1-.42,4.78-.71,4.78-.71,7.3-1.76,12.28-8.29,12.28-15.56,0-.93-.1-1.88-.27-2.85l-19.58-108.71,6.58-54.58,3.73-31.12,8.54-71.05c-28.27-14.39-54-22.08-77.57-25.46-9.02,9.24-26.84,22.85-46.77,20.25-14.98-1.97-18.39-9.75-18.12-18.29-31.32,5.16-47.68,14.05-47.68,14.05l-20.37,255.5c-1.23,15.35,8.55,29.53,23.4,33.56Z" style="fill:#6998d0; fill-rule:evenodd;"/><path d="M1194.07,768.92l8.92,17.75,8.67,17.25,41.91,91.19c6.73-8.69,55.62-25.94,55.62-25.94,0,0-22.21-55.97-37.54-74.78-4.41-5.41-12.68-9.81-22.26-13.33-7.9-2.92-16.68-5.25-24.87-7.05-16.38-3.59-30.44-5.09-30.44-5.09Z" style="fill:#6998d0; fill-rule:evenodd;"/><path d="M1270.98,1044.16l-5.81-28.79c-86.1-124.57-99.32-150.08-60.6-206.01,11.09-16.03,34.2-26.89,42.42-29.16-7.89-2.93-18.82-5.34-27.01-7.14-8.17,3.84-16.49,8.56-22.31,13.61-118.17,102.31,73.32,257.49,73.32,257.49Z" style="fill:#0f3d86; fill-rule:evenodd;"/><path d="M1212.8,922.25c-2.14-.16-11.43-4.8-11.43-4.8,0,0-8.77-31.63-38.38-36.87,0,0-14.04,.07-11.16,9.66,2.88,9.59,3.19,5.42,6.94,19.04,3.76,13.63,13.55,23.98,23.98,24.6l10.68,2.9s24.98-14.11,19.36-14.52Z" style="fill:#f4ae7c; fill-rule:evenodd;"/><path d="M1201.37,917.45s56.58,5.13,64.94,8.84c0,0-4.59-12.42-12.75-31.18,7.38-7.26,31.62-18.05,47.67-23.01,12.25,31.24,16.95,62.16,10.08,91.97-.72,3.15-3.49,5.39-6.71,5.54-18.11,.85-78.18,.55-121.8-36.12l18.58-16.04Z" style="fill:#f4ae7c; fill-rule:evenodd;"/><path d="M1133.96,759.14c27.51-.74,48.52-27.83,48.52-27.83l-47.68,1.95c.83,7.13,1.19,16.76-.83,25.89Z" style="fill:#e79055; fill-rule:evenodd;"/><path d="M1122.25,746.66s72.37,8.83,73.91-42.17c1.55-50.97-28.61-84.01-48.75-83.63-40.14,.75-46.77,16.98-51.42,33.88-4.66,16.89-7.05,88.34,26.27,91.93Z" style="fill:#f4ae7c; fill-rule:evenodd;"/><path d="M1209.63,1466.99s-6.19,12.09-19.91,15.06c-8.64,1.88-16.04,6.39-20.64,12.68-3.89,5.33-.13,12.83,6.47,12.83h69.62c5.92,0,10.56-5.12,9.96-11.02-.52-5.15-1.06-11.16-1.3-15.77-.51-10.05-10.58-18.15-10.58-18.15l-33.62,4.36Z" style="fill:#17305b; fill-rule:evenodd;"/><path d="M1182.82,733.58s47.59-34.93,47.59-76.56c0-51.65-31.79-65.73-76.16-68.24-44.38-2.52-75.92,35.01-64.03,54.4,11.89,19.4,26.52,14.79,54.54,11.64,28.01-3.13,26.84,22.64,38.75,21.39,11.91-1.26,15.37-5.35,16.31,2.83,.94,8.17-12.36,10.84-10.06,18.87,4.31,15.06-6.94,35.67-6.94,35.67Z" style="fill:#233f87; fill-rule:evenodd;"/><path d="M1183.14,679.98s9.68-12.73,16.29-9.43c6.6,3.3,.24,22.18-4.72,24.76-4.96,2.6-10.42,4.48-11.57,3.3-1.17-1.18,0-18.63,0-18.63Z" style="fill:#f4ae7c; fill-rule:evenodd;"/><path d="M1081.49,784.93s-23.86,20.98-39.74,72.23c0,0-5.01,50.18,39.74,54.94,44.74,4.76,0-127.16,0-127.16Z" style="fill:#6998d0; fill-rule:evenodd;"/><path d="M1201.37,917.45s-1.79-9.25-4.79-18.36c-2.99-9.11-4.78-18.02-6.96-13.86-2.18,4.16-2.97,15.59-2.97,15.59l14.72,16.63Z" style="fill:#f4ae7c; fill-rule:evenodd;"/><path d="M980.43,819.12s-8.98-35.63-31.16-34.19c-22.19,1.43-18.49,23.09-7.93,34.19,10.57,11.09,31.17,26.45,31.17,26.45l7.93-26.45Z" style="fill:#f4ae7c; fill-rule:evenodd;"/><path d="M773.72,1491.27l-26.13,13.54s-15.63-20.37-29.6-44.95c-9.77-17.23-18.74-36.54-20.94-52.37-5.34-38.43-46.03-101.58-41.77-112.34,4.23-10.77,84.89-29.37,84.89-29.37,0,0,15.77,107.97,26.25,177.77,3.07,20.37,5.67,37.49,7.31,47.71Z" style="fill:#f4ae7c; fill-rule:evenodd;"/><path d="M773.72,1491.27l-26.13,13.54s-15.63-20.37-29.6-44.95c10.87-.82,29.77-4.09,48.43-16.3,3.07,20.37,5.67,37.49,7.31,47.71Z" style="fill:#e9eff8; fill-rule:evenodd;"/><path d="M714.33,1290.46s-33.02,46.6-53.05,112.09c-4.7,15.42-20.72,34.63-36.93,51.7-15.74,16.58-31.62,31.12-37.52,38.28l-26.59-12.81s9.33-26.83,23.16-51.2c5.17-9.06,10.92-17.76,17.03-24.63,8.48-9.49,5.69-129.33,14.12-137.23,8.45-7.9,99.78,23.8,99.78,23.8Z" style="fill:#f4ae7c; fill-rule:evenodd;"/><path d="M639.41,1076.73l.12,.07-.12-.07Z" style="fill:#f4ae7c; fill-rule:evenodd;"/><path d="M707.66,1117.91l-68.13-41.11c.38-.15,1.76-2.21,6.84-16.95,2.17-6.28,3.35-11.72,3.91-16.04,.06-.43,.09-.85,.14-1.27,.71-6.28,.21-9.91,.21-9.91l14.91,5.41,27.6,9.99c-.32,7,.64,11.93,2.14,15.29,3.61,8.23,10.32,8.26,10.5,8.26l1.88,46.33Z" style="fill:#f4ae7c; fill-rule:evenodd;"/><path d="M695.28,1063.32c-26.68,2.28-41.69-15.12-45-19.52-.5-.64-.74-1-.74-1,0,0,.29-.1,.88-.27,2.17-.64,8.04-2.42,15.12-4.5l27.6,9.99c-.32,7,.64,11.93,2.14,15.29Z" style="fill:#ed9659; fill-rule:evenodd;"/><path d="M696.6,1053.75s-59.24,6.52-60.48-33.56c-1.2-40.07-9.95-58.41,31.06-61.98,40.99-3.57,50.67,11.2,53.09,24.76,7.56,42.34-6.96,68.98-23.67,70.78Z" style="fill:#f4ae7c; fill-rule:evenodd;"/><path d="M715.68,1075.6s56.82-43.65,62.88-58.12c6.07-14.46,32.16-67.37,38.9-72.76,0,0,14.13-1.82,16.15,7.96,2.02,9.78-13.45,67.83-24.24,85.35-10.79,17.51-62.47,76.93-79.43,85.55l-14.27-47.99Z" style="fill:#f4ae7c; fill-rule:evenodd;"/><path d="M853.77,917.98c-.94,5.06-3,10.49-5.44,13.31-3.19,3.74-8.25,11.25-11.43,16.11-2.06,3-3.38,5.25-3.38,5.25l-16.12-7.88s-.37-27.35,10.31-33.16c.38-.18,.57-.38,.93-.38,4.5-2.43,8.82-4.11,12.56-5.25,5.05-1.31,8.99-1.49,11.25-.18,2.05,1.13,2.43,6.56,1.31,12.18Z" style="fill:#f4ae7c; fill-rule:evenodd;"/><path d="M670.36,977.78c-20.99-5.31-12.95,31.84-18.26,29.3-5.93-2.85-16.12-2.81-14.51,4.35,1.62,7.16,3.94,9.72,5.14,14.18,1.2,4.47,0,13.32-4.88,11.55-4.88-1.79-50.23-53.57-18.2-93.9,32-40.35,127.51-15.5,97.43,26.7-5.28,7.42-31.78,11.6-46.72,7.82Z" style="fill:#0f3d86; fill-rule:evenodd;"/><path d="M770.14,1367.96s-58.3,12.23-86.07,8.46c-37.43-5.07-70.6-5.92-105.63-24.82,0,0,18.62-92.46,19.76-96.95,1.65-6.47,13.53-56.14,24.55-102.1,10.04-42.04,19.35-80.97,19.35-80.97,0,0,27.74,19.73,43.94,12.77,16.17-6.97,14.09-14.82,14.09-14.82,0,0,10.57-4.28,15.55-2.69,4.94,1.56,19.03-6.42,19.03-6.42,0,0,15.56,12.03,16.15,37.85,.11,3.81-.12,7.95-.8,12.38l-11.23,12.94s25.36,154.81,31.32,244.38Z" style="fill:#6998d0; fill-rule:evenodd;"/><path d="M817,1523.38h-78.04s-1.49-12.7,.31-23.55c.22-1.32,.91-2.52,1.94-3.56,4.56,1.54,11.27,2.64,18.75-.04,6.11-2.21,10.64-5.54,13.79-8.59,.81,.77,16.94,16.15,24.38,16.15s19.33,3.68,18.87,19.59Z" style="fill:#17305b; fill-rule:evenodd;"/><path d="M624.35,1454.25c-15.74,16.58-31.62,31.12-37.52,38.28l-26.59-12.81s9.33-26.83,23.16-51.2c4.79,7.42,17.27,22.66,40.96,25.73Z" style="fill:#e9eff8; fill-rule:evenodd;"/><path d="M592.62,1485.65s-.97,16.93,4.67,19.17c5.63,2.27,16.18,7.81,16.18,18.57h-39.11s-26.95-13.26-30.53-18.9c-3.61-5.63,17.97-29.68,17.97-29.68,0,0,13.24,14.64,30.83,10.84Z" style="fill:#17305b; fill-rule:evenodd;"/><path d="M657.29,1210.28s17.11-3.2,23.81,1.18c6.7,4.39,8.67,11.25,3.85,14.05-15.12,8.78-30.41-.92-30.41-.92l2.76-14.31Z" style="fill:#f4ae7c; fill-rule:evenodd;"/><path d="M642.79,1076.96s-52.73,11.17-73.52,93.12c-2.03,8.02,.06,16.58,5.61,22.72,9.57,10.6,30.62,26.09,79.65,31.8,5.34,.62,6.08-12.96,6.08-12.96-.53,1.08-33.32-21.16-47.24-33.12-2.52-2.16-2.44-6.7-.62-9.48,4.72-7.2,12.63-19.63,15.27-26.01,3.9-9.29,29.5-61.86,14.77-66.08Z" style="fill:#f4ae7c; fill-rule:evenodd;"/><path d="M642.12,1071.59s-31.01,2.21-56.28,35.92c0,0,8.54,31,48.71,39.27,0,0,24.74-55.82,7.58-75.19Z" style="fill:#6998d0; fill-rule:evenodd;"/><path d="M634.54,930.93s-29.83-8.09-49.88,13.66c-20.05,21.77,9.16,61.67-18.87,83.52-28.04,21.85-16.94,38.15-5.55,43.47,25.6,11.98,64.71-2.91,56.75-23.12-15.3-38.82,7.37-68.38,7.37-68.38l10.19-49.16Z" style="fill:#0f3d86; fill-rule:evenodd;"/></svg>