<?xml version="1.0" encoding="UTF-8"?><svg id="a" xmlns="http://www.w3.org/2000/svg" viewBox="0 0 2042.92 1451.76"><path d="M1062.23,236.33c224.08,0,318.54,148.87,480.32,264.63,214.09,153.18,428.24,53.47,462.52,571.06,30.49,460.7-350.27,49.89-887.12,214.89C581.1,1451.98,34.33,1518.36,196.59,984.49,358.81,450.56,541.53,236.33,1062.23,236.33Z" style="fill:#e0e8f5; fill-rule:evenodd;"/><path d="M201.55,610.09c-22.69,21.45-32.97,47.05-30.89,76.88,53.61,36.54,81.29,70.68,83.12,102.56-62.95-56.02-110.25-55.87-131.55-21.52,15.72,19.04,26.7,84.69,22.94,114.88-6.71,53.32,7.8,101.24,48.14,119.26,9.23,20.64,18.93,31.58,29.14,32.75-9.77,59.74-18.02,120.43-24.69,181.92,6.82,3.57,16.56,3.14,21.74-.36,2.08-24,3.61-40.92,5.18-52.23,4.12-44.71,8.79-87.89,13.97-129.69,2.48-.29,4.96-.66,7.4-1.24,47.12-9.85,29.1-39.32,72.21-48.14,26.55-5.47,50.69-27.86,56.68-47.92-27.61-8.68-62.4-17.94-97.67-11.38,18.31-25.75,55.55-23.85,106.09-17.58,19.07-37.13,46.17-33.7,35.45-91.76-14.99-80.96,37.93-103.36,20.13-200.81-26.04-9.85-60.47-8.68-103.36,3.5,18.16-26.92,52.7-38.08,103.54-33.41-10.54-28.52-10.47-65.43-5.43-81.18-18.89-13.64-37.97-13.57-57.26,.22,8.61-14.81,19.8-23.2,33.52-25.31-.66-12.69-6.13-26.91-16.38-42.52-16.89,.36-35.67,4.16-56.24,11.23,9.37,6.2,12.4,17.29,9.12,33.33-11.31-13.28-27.94-17.65-50-13.28-4.63,57.84-55.87,81.33-56.75,106.2,30.2,26.62,47.85,55.58,52.99,86.95-30.74-26.33-61.12-43.47-91.14-51.35Z" style="fill:#b0c2e4; fill-rule:evenodd;"/><path d="M197.76,1216.81c6.67-61.49,14.92-122.18,24.69-181.92,34.76-225.75,95.59-458.95,148.47-556.47-70.61,166.38-119.33,394.98-146.25,685.8-1.57,11.31-3.1,28.23-5.18,52.23-5.18,3.5-14.92,3.94-21.74,.36Z" style="fill:#9db2d9; fill-rule:evenodd;"/><path d="M287.33,464.49c21.85,27.94,29.1,58.5,21.66,91.76-66.52,32.02-103.54,65.79-111.02,101.31,80.42-52.37,133.67-44.13,151.79-1.75-20.93,18.67-44.5,90.74-45.33,125.39-1.53,61.2-26.04,112.62-74.47,126.04-13.93,21.73-26.73,32.38-38.37,31.95,.8,68.93-.25,138.66-3.21,209.05-8.24,2.84-19.18,.73-24.4-4.08,1.71-27.35,2.88-46.68,3.06-59.74,2.95-50.99,5.07-100.51,6.31-148.36-2.73-.73-5.43-1.6-8.1-2.62-51.39-19.18-26.08-49.24-73.12-66.52-28.96-10.65-52.34-39.97-55.69-63.61,32.6-5.11,73.34-9.63,111.93,3.79-16.27-32.09-58.5-36.25-116.45-37.86-15.17-45.01-46.28-45.81-24.33-109.34,30.67-88.55-25.13-122.83,11.49-229.47,30.96-6.64,69.59,.51,115.76,21.52-15.86-33.41-52.81-51.86-110.87-55.29,16.74-30.27,22.9-71.85,19.91-90.45,23.56-12.11,45.08-8.83,64.48,9.99-7.22-18.09-18.38-29.54-33.48-34.21,2.92-14.22,11.49-29.25,25.68-45.08,18.96,3.28,39.46,10.72,61.38,22.25-11.6,5.32-16.89,17.29-15.86,35.96,14.92-13.06,34.43-15.17,58.5-6.49-4.6,65.94,49.13,101.1,45.88,129.25-38.51,24.8-63.35,54.41-74.51,88.92,39.1-24.51,76.22-38.59,111.38-42.31Z" style="fill:#c4d1eb; fill-rule:evenodd;"/><path d="M188.38,1148.25c2.95-70.39,4.01-140.12,3.21-209.05-.8-260.11-29.58-532.99-72.58-651.81,51.2,199.35,67.18,465,48.03,797.04-.18,13.06-1.35,32.39-3.06,59.74,5.22,4.82,16.16,6.93,24.4,4.08Z" style="fill:#b0c2e4; fill-rule:evenodd;"/><path d="M217.92,1189.75c-96.83,0-175.31,17.65-175.31,39.46s78.49,39.39,175.31,39.39,175.32-17.65,175.32-39.39-78.48-39.46-175.32-39.46Z" style="fill:#c4d1eb; fill-rule:evenodd;"/><path d="M128.32,1074.65h170.54c7.69,0,13.93,6.24,13.93,13.93v39.1c0,7.69-6.24,13.93-13.93,13.93H128.32c-7.69,0-13.93-6.24-13.93-13.93v-39.1c0-7.69,6.24-13.93,13.93-13.93Z" style="fill:#b0c2e4;"/><polygon points="129.85 1141.61 297.32 1141.61 280.87 1228.19 146.3 1228.19 129.85 1141.61" style="fill:#b0c2e4; fill-rule:evenodd;"/><polygon points="297.32 1141.61 129.85 1141.61 132.8 1157.29 294.37 1157.29 297.32 1141.61" style="fill:#9db2d9; fill-rule:evenodd;"/><circle cx="975.28" cy="777.71" r="607.53" transform="translate(-264.27 917.41) rotate(-45)" style="fill:#859ac6;"/><path d="M988.34,1329.66c1.39,0,2.77-.07,4.16-.15,3.03-.07,6.05-.15,9.08-.29,1.5-.07,3.03-.15,4.56-.29,2.92-.14,5.84-.36,8.75-.51,1.46-.15,2.92-.22,4.34-.36,3.5-.22,6.93-.58,10.39-.88,.84-.07,1.68-.15,2.48-.29,4.3-.37,8.53-.88,12.73-1.39,1.17-.15,2.3-.36,3.46-.51,3.1-.36,6.2-.8,9.26-1.31,1.5-.15,2.92-.44,4.38-.66,2.88-.44,5.69-.88,8.53-1.38,1.42-.22,2.88-.51,4.3-.73,3.1-.58,6.2-1.17,9.26-1.82,1.09-.22,2.11-.44,3.21-.66,4.16-.8,8.24-1.68,12.4-2.62,.66-.22,1.39-.37,2.11-.51,3.36-.8,6.79-1.68,10.21-2.55,1.24-.29,2.48-.66,3.79-.95,2.84-.8,5.69-1.53,8.61-2.33,1.31-.37,2.62-.73,3.94-1.1,2.92-.87,5.83-1.75,8.83-2.7,1.09-.29,2.11-.58,3.28-.95,8.02-2.55,15.9-5.18,23.78-8.1,1.1-.37,2.12-.8,3.21-1.17,2.84-1.1,5.69-2.12,8.61-3.28,1.17-.44,2.41-.95,3.65-1.46,2.77-1.09,5.54-2.26,8.32-3.43,1.17-.44,2.26-.88,3.35-1.31,3.43-1.46,6.86-2.99,10.21-4.52l1.17-.44c3.79-1.75,7.59-3.57,11.45-5.4,.73-.37,1.46-.73,2.19-1.1,2.99-1.46,6.06-2.92,8.97-4.45,1.02-.51,2.12-1.09,3.14-1.6,2.77-1.46,5.47-2.84,8.24-4.3,1.02-.58,1.97-1.09,2.92-1.68,3.06-1.6,6.05-3.28,9.05-4.96,.58-.37,1.24-.73,1.89-1.09,3.65-2.12,7.3-4.3,10.94-6.49l.29-.22c3.43-2.04,6.86-4.16,10.21-6.35,.87-.51,1.68-1.09,2.48-1.6,2.7-1.75,5.4-3.5,8.02-5.25l2.77-1.9c2.7-1.82,5.4-3.72,8.1-5.62,.66-.51,1.39-.95,2.12-1.46,6.86-4.89,13.57-9.92,20.13-15.03,.58-.51,1.31-1.09,1.9-1.6,2.62-2.04,5.25-4.09,7.73-6.2,.87-.66,1.75-1.39,2.55-2.11,2.48-2.04,4.89-4.08,7.37-6.2,.73-.58,1.46-1.24,2.19-1.89,3.06-2.63,6.05-5.25,9.04-8.03l.15-.07c3.21-2.92,6.35-5.84,9.48-8.83,.29-.29,.58-.66,.95-.95,2.63-2.55,5.25-5.1,7.81-7.66,.73-.73,1.46-1.46,2.19-2.12,2.26-2.33,4.52-4.59,6.71-6.93,.73-.73,1.38-1.46,2.11-2.19,2.48-2.62,4.89-5.25,7.37-7.95l1.02-1.09c5.69-6.27,11.16-12.62,16.56-19.11,.51-.66,1.09-1.39,1.68-2.04,2.04-2.55,4.16-5.11,6.13-7.66,.73-.87,1.31-1.68,2.04-2.48,2.04-2.63,4.01-5.25,6.05-7.95,.51-.66,.95-1.31,1.53-1.97,4.96-6.71,9.85-13.57,14.59-20.57,.44-.66,.88-1.31,1.31-1.97,1.82-2.77,3.65-5.54,5.55-8.39,.58-.88,1.17-1.82,1.75-2.77,1.75-2.7,3.35-5.4,5.03-8.1,.51-.87,1.09-1.75,1.6-2.55,1.97-3.36,4.01-6.79,5.91-10.14l.37-.58c2.12-3.65,4.23-7.44,6.27-11.16,.29-.58,.66-1.17,.95-1.75,1.6-3.06,3.28-6.13,4.82-9.26,.58-1.02,1.09-1.97,1.6-2.99,1.39-2.77,2.77-5.54,4.08-8.32,.58-1.02,1.02-2.11,1.6-3.13,1.46-3.14,2.92-6.27,4.38-9.41,.22-.58,.51-1.24,.8-1.9,1.82-3.87,3.5-7.81,5.18-11.74l.29-.73c1.46-3.58,2.99-7.22,4.38-10.79,.44-1.09,.87-2.12,1.31-3.14,1.1-2.92,2.19-5.76,3.21-8.68,.44-1.17,.88-2.34,1.31-3.58,1.09-2.92,2.11-5.91,3.21-8.9,.29-1.02,.66-2.04,1.02-3.06,1.31-4.01,2.62-8.02,3.94-12.11h0c16.05-51.86,24.8-106.93,24.8-164.04,0-158.21-66.6-300.81-173.16-401.47v-.07c-2.41-2.19-4.81-4.45-7.22-6.64l-.95-.88c-2.99-2.7-5.91-5.33-8.9-7.88l-1.02-.88c-3.06-2.63-6.13-5.25-9.19-7.8l-.88-.66c-3.14-2.63-6.34-5.25-9.63-7.8l-.51-.44c-3.35-2.63-6.71-5.18-10.14-7.73l-.29-.29c-3.5-2.55-7-5.11-10.65-7.66l-.14-.22c-3.5-2.48-7.08-4.89-10.58-7.29l-.66-.44c-3.35-2.26-6.86-4.52-10.28-6.78l-1.02-.58c-3.43-2.19-6.78-4.3-10.14-6.35l-1.24-.8c-3.43-1.97-6.79-4.01-10.14-5.98l-1.31-.73c-3.43-1.97-6.86-3.87-10.36-5.76l-1.31-.73c-3.5-1.9-6.86-3.72-10.36-5.47l-1.46-.73c-3.5-1.75-6.93-3.5-10.5-5.25l-1.46-.66c-3.5-1.75-7.15-3.43-10.72-5.03l-1.24-.58c-3.65-1.68-7.37-3.28-11.09-4.81l-1.17-.51c-3.79-1.6-7.59-3.14-11.38-4.67l-1.02-.36c-3.94-1.53-7.88-3.06-11.82-4.52l-.58-.22c-4.16-1.53-8.31-2.99-12.55-4.38v-.07c-4.23-1.39-8.54-2.77-12.84-4.16l-.37-.07c-4.16-1.31-8.31-2.55-12.47-3.72l-.73-.22c-4.09-1.17-8.17-2.26-12.33-3.35l-1.09-.22c-3.94-1.09-8.02-2.04-12.04-2.99l-1.39-.29c-3.94-.95-7.88-1.75-11.96-2.63l-1.49-.29c-3.97-.8-7.92-1.53-11.93-2.26l-1.57-.29c-3.97-.73-7.99-1.39-12-1.97l-1.61-.29c-4.01-.58-8.02-1.17-12.11-1.68l-1.6-.22c-4.08-.51-8.17-.95-12.29-1.39l-1.42-.14c-4.2-.44-8.39-.8-12.58-1.1l-1.28-.14c-4.3-.29-8.64-.58-12.98-.8l-.91-.07c-4.49-.22-8.97-.36-13.46-.51h-.58c-4.71-.07-9.37-.15-14.08-.15s-9.41,0-14.08,.15h-.58c-4.48,.15-8.97,.29-13.46,.51l-.91,.07c-4.34,.22-8.68,.51-12.98,.8l-1.28,.14c-4.19,.29-8.42,.66-12.58,1.1l-1.42,.14c-4.12,.44-8.24,.88-12.29,1.39l-1.64,.22c-4.05,.51-8.06,1.09-12.07,1.68l-1.6,.29c-4.05,.58-8.02,1.24-12.04,1.97l-1.53,.29c-4.01,.73-7.99,1.46-11.93,2.26l-1.57,.29c-3.98,.88-7.95,1.68-11.89,2.63l-1.39,.29c-4.05,.95-8.06,1.9-12.04,2.99l-1.09,.22c-4.12,1.09-8.24,2.19-12.29,3.35l-.73,.22c-4.19,1.17-8.35,2.41-12.51,3.72l-.4,.07c-4.3,1.39-8.53,2.77-12.76,4.16l-.07,.07c-4.19,1.39-8.39,2.84-12.55,4.38l-.55,.22c-3.98,1.46-7.95,2.99-11.89,4.52l-.98,.36c-3.79,1.53-7.59,3.06-11.38,4.67l-1.13,.51c-3.72,1.53-7.4,3.14-11.09,4.81l-1.24,.58c-3.61,1.61-7.22,3.28-10.76,5.03l-1.46,.66c-3.54,1.75-7.04,3.5-10.5,5.25l-1.39,.73c-3.5,1.75-6.97,3.57-10.39,5.47l-1.39,.73c-3.43,1.9-6.86,3.79-10.25,5.76l-1.31,.73c-3.39,1.97-6.82,4.01-10.18,5.98l-1.2,.8c-3.43,2.04-6.82,4.16-10.18,6.35l-1.02,.58c-3.46,2.26-6.89,4.52-10.29,6.78l-.66,.44c-3.54,2.41-7.04,4.81-10.54,7.29l-.22,.22c-3.57,2.48-7.11,5.11-10.58,7.66l-.36,.29c-3.39,2.55-6.78,5.11-10.1,7.73l-.51,.44c-3.28,2.55-6.53,5.18-9.7,7.8l-.8,.66c-3.1,2.55-6.16,5.18-9.23,7.8l-.98,.88c-2.99,2.55-5.95,5.18-8.86,7.88l-1.02,.88c-2.41,2.19-4.78,4.45-7.15,6.64v.07c-106.6,100.66-173.16,243.26-173.16,401.47,0,57.11,8.68,112.18,24.8,164.04h0c1.24,4.09,2.55,8.1,3.94,12.11,.33,1.02,.69,2.04,1.02,3.06,1.06,2.99,2.08,5.98,3.14,8.9,.44,1.24,.88,2.41,1.31,3.58,1.06,2.92,2.15,5.76,3.28,8.68,.4,1.02,.84,2.04,1.24,3.14,1.42,3.57,2.88,7.22,4.41,10.79l.29,.73c1.68,3.94,3.39,7.88,5.14,11.74,.29,.66,.58,1.31,.88,1.9,1.46,3.14,2.92,6.27,4.38,9.41,.51,1.02,1.02,2.11,1.53,3.13,1.35,2.77,2.73,5.54,4.12,8.32,.51,1.02,1.02,1.97,1.57,2.99,1.57,3.14,3.25,6.2,4.89,9.26,.29,.58,.58,1.17,.91,1.75,2.04,3.72,4.12,7.51,6.27,11.16l.29,.58c1.97,3.35,3.94,6.78,5.98,10.14,.51,.8,1.06,1.68,1.57,2.55,1.68,2.7,3.36,5.4,5.07,8.1,.62,.95,1.2,1.9,1.79,2.77,1.82,2.84,3.65,5.62,5.51,8.39,.44,.66,.88,1.31,1.35,1.97,4.71,7,9.59,13.86,14.59,20.57,.48,.66,.99,1.31,1.5,1.97,2.04,2.7,4.05,5.33,6.06,7.95,.66,.8,1.31,1.6,1.97,2.48,2.04,2.55,4.09,5.11,6.16,7.66,.58,.66,1.17,1.39,1.71,2.04,5.4,6.49,10.9,12.84,16.56,19.11,.33,.36,.69,.73,1.02,1.09,2.44,2.7,4.89,5.33,7.37,7.95,.69,.73,1.39,1.46,2.08,2.19,2.26,2.33,4.49,4.59,6.78,6.93,.69,.66,1.39,1.38,2.11,2.12,2.59,2.55,5.22,5.1,7.84,7.66,.33,.29,.66,.66,.98,.95,3.1,2.99,6.27,5.91,9.48,8.83l.11,.07c2.99,2.77,5.98,5.4,9.04,8.03,.73,.65,1.46,1.31,2.19,1.89,2.41,2.12,4.89,4.16,7.33,6.2,.84,.73,1.71,1.46,2.55,2.11,2.55,2.11,5.14,4.16,7.73,6.2,.66,.51,1.28,1.09,1.93,1.6,6.6,5.11,13.31,10.14,20.13,15.03,.69,.51,1.39,.95,2.12,1.46,2.66,1.9,5.4,3.79,8.1,5.62l2.77,1.9c2.66,1.75,5.33,3.5,7.99,5.25,.84,.58,1.68,1.09,2.48,1.6,3.39,2.19,6.82,4.3,10.25,6.35l.25,.22c3.65,2.19,7.33,4.38,11.01,6.49,.62,.36,1.24,.73,1.9,1.09,2.95,1.68,5.95,3.35,8.94,4.96,1.02,.58,2.01,1.09,2.99,1.68,2.73,1.46,5.47,2.84,8.24,4.3,1.02,.51,2.08,1.09,3.1,1.6,2.99,1.53,5.98,2.99,9.01,4.45,.73,.37,1.46,.73,2.15,1.1,3.83,1.82,7.66,3.64,11.53,5.4l1.13,.44c3.36,1.53,6.78,3.06,10.21,4.52,1.09,.44,2.19,.87,3.28,1.31,2.77,1.17,5.58,2.33,8.39,3.43,1.2,.51,2.44,1.02,3.65,1.46,2.88,1.17,5.73,2.19,8.61,3.28,1.09,.36,2.12,.8,3.17,1.17,7.88,2.92,15.83,5.54,23.85,8.1,1.09,.36,2.15,.66,3.24,.95,2.95,.95,5.91,1.82,8.86,2.7,1.31,.37,2.63,.73,3.94,1.1,2.84,.8,5.69,1.53,8.57,2.33,1.28,.29,2.52,.66,3.79,.95,3.43,.88,6.82,1.75,10.25,2.55,.69,.14,1.39,.29,2.08,.51,4.12,.87,8.24,1.82,12.4,2.62,1.06,.22,2.11,.44,3.17,.66,3.1,.66,6.2,1.24,9.3,1.82,1.42,.22,2.88,.51,4.3,.73,2.81,.51,5.65,.95,8.5,1.38,1.5,.22,2.92,.51,4.38,.66,3.1,.51,6.2,.95,9.3,1.31,1.13,.15,2.3,.36,3.43,.51,4.23,.51,8.46,1.02,12.73,1.39,.84,.14,1.68,.22,2.52,.29,3.46,.29,6.89,.66,10.36,.88,1.46,.14,2.88,.22,4.34,.36,2.95,.15,5.87,.37,8.79,.51,1.53,.15,3.03,.22,4.56,.29,3.03,.14,6.06,.22,9.08,.29,1.35,.07,2.77,.15,4.16,.15,4.3,.07,8.68,.15,13.06,.15s8.72-.07,13.06-.15h0Zm-460.66-765.45c.4-.8,.8-1.68,1.2-2.48,3.17-6.57,6.46-12.98,9.88-19.33,.47-.8,.91-1.68,1.39-2.55,1.35-2.48,2.74-4.89,4.16-7.37,.4-.73,.84-1.53,1.28-2.26,1.79-3.14,3.61-6.2,5.47-9.26,.29-.51,.66-1.02,.95-1.53,1.57-2.55,3.14-5.11,4.74-7.59,.55-.88,1.13-1.82,1.71-2.7,1.57-2.41,3.17-4.89,4.78-7.22,.4-.58,.8-1.24,1.2-1.82,1.93-2.92,3.94-5.76,5.98-8.61,.55-.8,1.09-1.61,1.64-2.33,1.57-2.19,3.17-4.38,4.78-6.56,.62-.8,1.28-1.68,1.93-2.55,2.08-2.77,4.19-5.54,6.38-8.32l.55-.73c2.01-2.55,4.01-5.03,6.05-7.51,.77-.88,1.5-1.82,2.26-2.7,1.61-1.97,3.25-3.87,4.89-5.84,.73-.8,1.42-1.6,2.15-2.48,2.22-2.55,4.45-5.11,6.75-7.59,.66-.73,1.31-1.39,1.97-2.12,1.75-1.9,3.5-3.79,5.29-5.69,.84-.95,1.71-1.82,2.59-2.77,1.82-1.9,3.68-3.79,5.54-5.69,.66-.58,1.28-1.24,1.9-1.9,2.41-2.33,4.81-4.74,7.26-7.07,.84-.8,1.71-1.6,2.59-2.41,1.75-1.68,3.5-3.28,5.29-4.96,.91-.8,1.82-1.68,2.73-2.48,2.52-2.26,5.03-4.52,7.59-6.78,.55-.44,1.06-.88,1.57-1.31,2.15-1.82,4.34-3.72,6.53-5.47,.95-.8,1.93-1.61,2.92-2.41,1.9-1.6,3.79-3.14,5.69-4.6,.91-.73,1.79-1.46,2.7-2.19,2.63-2.04,5.32-4.08,7.99-6.13,.91-.66,1.82-1.31,2.7-1.97,1.97-1.46,3.94-2.84,5.91-4.3,1.06-.8,2.15-1.53,3.21-2.33,2.19-1.53,4.41-3.06,6.64-4.59,.69-.44,1.39-.88,2.08-1.39,2.77-1.9,5.62-3.72,8.46-5.62,1.02-.66,2.08-1.24,3.1-1.9,2.04-1.31,4.08-2.63,6.16-3.87,1.06-.66,2.11-1.31,3.14-1.97,2.92-1.75,5.87-3.5,8.83-5.18,.62-.37,1.24-.73,1.9-1.09,2.44-1.39,4.89-2.7,7.33-4.08,1.13-.58,2.3-1.24,3.39-1.82,2.26-1.24,4.48-2.41,6.75-3.57,.91-.44,1.86-.95,2.77-1.46,3.06-1.53,6.13-3.06,9.23-4.52,.95-.51,1.93-.95,2.88-1.39,2.33-1.09,4.67-2.26,7-3.28,1.1-.51,2.19-1.02,3.28-1.53,2.74-1.17,5.47-2.41,8.21-3.57,.55-.22,1.13-.44,1.68-.73,3.21-1.31,6.42-2.62,9.67-3.94,1.1-.44,2.19-.88,3.28-1.31,2.41-.87,4.81-1.82,7.22-2.7,1.06-.36,2.12-.8,3.17-1.17,3.28-1.24,6.57-2.41,9.92-3.5,.69-.22,1.46-.51,2.15-.73,2.74-.88,5.47-1.82,8.24-2.7,1.13-.36,2.26-.66,3.43-1.02,2.63-.8,5.29-1.61,7.91-2.33,.88-.29,1.75-.58,2.63-.8,3.43-.95,6.86-1.9,10.36-2.77,.91-.29,1.86-.44,2.77-.73,2.7-.66,5.4-1.31,8.13-1.97,1.06-.22,2.19-.51,3.28-.73,3.25-.8,6.49-1.46,9.74-2.19,.36-.07,.69-.15,1.06-.22,3.54-.66,7.11-1.39,10.69-2.04,1.1-.14,2.19-.36,3.25-.58,2.77-.44,5.51-.88,8.28-1.31,1.02-.22,2.01-.37,3.03-.51,3.65-.51,7.26-1.02,10.91-1.53,.69-.07,1.39-.15,2.08-.22,3.06-.44,6.13-.73,9.23-1.09,1.06-.07,2.19-.22,3.28-.29,3.06-.36,6.16-.58,9.26-.8,.69-.07,1.39-.15,2.12-.22,3.72-.29,7.44-.51,11.2-.73,.98,0,1.97-.07,2.95-.07,2.92-.15,5.84-.29,8.79-.36,1.06-.07,2.12-.07,3.21-.07,3.79-.07,7.66-.15,11.49-.15s7.66,0,11.49,.15c1.06,0,2.15,0,3.21,.07,2.95,.07,5.87,.22,8.79,.36,.98,0,1.97,.07,2.95,.07,3.76,.22,7.48,.44,11.2,.73,.73,.07,1.42,.14,2.12,.22,3.1,.22,6.2,.44,9.26,.8,1.09,.07,2.19,.22,3.28,.29,3.1,.36,6.16,.66,9.23,1.09,.69,.07,1.38,.15,2.08,.22,3.61,.51,7.26,1.02,10.9,1.53,.99,.15,2.01,.29,3.03,.51,2.77,.44,5.51,.88,8.24,1.31,1.09,.22,2.19,.44,3.25,.58,3.61,.66,7.19,1.39,10.72,2.04l1.06,.22c3.25,.73,6.49,1.39,9.78,2.19,1.09,.22,2.19,.51,3.21,.73,2.77,.66,5.47,1.31,8.17,1.97,.88,.29,1.9,.44,2.77,.73,3.5,.88,6.86,1.82,10.36,2.77,.87,.22,1.75,.51,2.62,.8,2.63,.73,5.25,1.53,7.88,2.33,1.17,.36,2.33,.66,3.5,1.02,2.77,.88,5.47,1.75,8.17,2.7,.73,.22,1.46,.51,2.19,.73,3.35,1.09,6.57,2.26,9.92,3.5,1.02,.36,2.11,.8,3.21,1.17,2.34,.88,4.82,1.82,7.15,2.7,1.17,.44,2.19,.88,3.35,1.31,3.21,1.31,6.42,2.63,9.63,3.94,.58,.29,1.09,.51,1.6,.73,2.77,1.17,5.55,2.41,8.24,3.57,1.09,.51,2.19,1.02,3.28,1.53,2.33,1.02,4.67,2.19,7,3.28,1.02,.44,1.89,.88,2.92,1.39,3.06,1.46,6.13,2.99,9.19,4.52,.95,.51,1.9,1.02,2.77,1.46,2.26,1.17,4.52,2.33,6.71,3.57,1.17,.58,2.34,1.24,3.5,1.82,2.41,1.39,4.81,2.7,7.29,4.08,.58,.36,1.24,.73,1.9,1.09,2.92,1.68,5.91,3.43,8.83,5.18,1.02,.66,2.11,1.31,3.13,1.97,2.04,1.24,4.09,2.55,6.13,3.87,1.02,.66,2.12,1.24,3.06,1.9,2.92,1.9,5.69,3.72,8.54,5.62,.66,.51,1.39,.95,2.11,1.39,2.19,1.53,4.38,3.06,6.57,4.59,1.09,.8,2.19,1.53,3.21,2.33,2.04,1.46,3.94,2.84,5.98,4.3,.88,.66,1.75,1.31,2.63,1.97,2.7,2.04,5.4,4.09,8.02,6.13,.88,.73,1.75,1.46,2.7,2.19,1.9,1.46,3.79,2.99,5.69,4.6,.95,.8,1.97,1.61,2.92,2.41,2.19,1.75,4.38,3.65,6.49,5.47,.59,.44,1.02,.88,1.61,1.31,2.55,2.26,5.11,4.52,7.59,6.78,.87,.8,1.82,1.68,2.77,2.48,1.75,1.68,3.5,3.28,5.25,4.96,.88,.8,1.75,1.6,2.55,2.41,2.48,2.33,4.89,4.74,7.29,7.07,.66,.66,1.24,1.31,1.82,1.9,1.9,1.9,3.79,3.79,5.62,5.69,.88,.95,1.75,1.82,2.55,2.77,1.82,1.9,3.57,3.79,5.33,5.69,.66,.73,1.31,1.39,1.97,2.12,2.26,2.48,4.52,5.03,6.71,7.59,.73,.88,1.46,1.68,2.19,2.48,1.61,1.97,3.28,3.87,4.89,5.84,.73,.88,1.53,1.82,2.26,2.7,2.04,2.48,4.08,4.96,5.98,7.51l.58,.73c2.19,2.77,4.3,5.54,6.42,8.32,.66,.88,1.31,1.75,1.9,2.55,1.6,2.19,3.21,4.38,4.81,6.56,.51,.73,1.1,1.53,1.61,2.33,2.04,2.84,4.08,5.69,5.98,8.61,.44,.58,.88,1.24,1.24,1.82,1.61,2.33,3.21,4.81,4.74,7.22,.58,.88,1.17,1.82,1.75,2.7,1.6,2.48,3.21,5.03,4.74,7.59,.29,.51,.66,1.02,.95,1.53,1.9,3.06,3.65,6.13,5.47,9.26,.44,.73,.8,1.53,1.24,2.26,1.46,2.48,2.77,4.89,4.23,7.37,.44,.88,.87,1.75,1.31,2.55,3.5,6.35,6.71,12.76,9.92,19.33,.44,.8,.8,1.68,1.17,2.48,30.93,64.7,48.29,137.06,48.29,213.5,0,55.29-9.12,108.46-25.82,158.14-.29,1.02-.66,1.97-1.02,2.99-.88,2.55-1.75,5.11-2.7,7.66-.44,1.09-.8,2.26-1.24,3.43-.95,2.48-1.89,4.96-2.92,7.44-.29,1.02-.73,2.04-1.17,3.06-1.31,3.36-2.62,6.71-4.08,9.99l-.07,.29-.07,.07c-1.39,3.35-2.85,6.71-4.38,10.07-.44,1.02-.95,2.04-1.46,3.06-1.02,2.33-2.12,4.67-3.21,7-.58,1.17-1.17,2.33-1.75,3.58-1.02,2.19-2.19,4.45-3.21,6.64-.58,1.09-1.17,2.19-1.75,3.28-1.46,2.99-3.06,5.91-4.67,8.9l-.58,1.09c-1.61,2.99-3.36,6.05-5.11,9.12-.58,1.09-1.31,2.19-1.89,3.36-1.24,2.04-2.48,4.08-3.72,6.2-.66,1.17-1.39,2.33-2.11,3.5-1.24,2.04-2.48,4.08-3.79,6.06-.73,1.09-1.39,2.26-2.11,3.28-1.68,2.63-3.43,5.25-5.18,7.88l-1.31,1.97c-1.82,2.7-3.65,5.33-5.54,8.03-.73,1.02-1.53,2.11-2.34,3.21-1.31,1.9-2.7,3.79-4.08,5.62-.87,1.17-1.75,2.33-2.62,3.5-1.31,1.82-2.77,3.65-4.08,5.4-.88,1.09-1.75,2.19-2.63,3.28-1.75,2.26-3.5,4.52-5.4,6.71-.73,1.02-1.61,2.04-2.48,2.99-1.82,2.26-3.72,4.45-5.62,6.71-.95,1.1-1.89,2.19-2.84,3.28-1.46,1.6-2.92,3.28-4.38,4.89-1.02,1.1-2.04,2.26-3.06,3.36-1.46,1.6-3.06,3.28-4.52,4.89-1.02,1.02-1.9,2.04-2.92,3.14-2.04,2.04-3.94,4.01-5.98,6.05-.88,.95-1.9,1.89-2.77,2.84-2.04,1.97-4.16,4.01-6.2,6.05-1.09,1.02-2.19,2.04-3.28,3.06-1.6,1.46-3.06,2.92-4.67,4.3-1.17,1.09-2.33,2.11-3.5,3.21-1.6,1.46-3.21,2.84-4.81,4.3-1.17,.95-2.19,1.9-3.36,2.84-2.11,1.9-4.23,3.65-6.42,5.47-1.02,.88-2.11,1.75-3.21,2.63-2.19,1.82-4.45,3.65-6.71,5.4-1.09,.95-2.26,1.82-3.43,2.7-1.68,1.31-3.43,2.7-5.18,4.01-1.24,.88-2.48,1.82-3.72,2.77-1.75,1.24-3.5,2.55-5.33,3.87-1.17,.8-2.33,1.68-3.5,2.48-2.33,1.68-4.67,3.28-7,4.89-1.17,.73-2.19,1.53-3.35,2.26-2.41,1.61-4.81,3.21-7.29,4.81-1.17,.73-2.41,1.53-3.65,2.26-1.9,1.24-3.72,2.41-5.62,3.58-1.24,.8-2.62,1.53-3.87,2.33-1.97,1.17-3.94,2.26-5.83,3.43-1.17,.73-2.41,1.46-3.65,2.12-2.62,1.46-5.18,2.92-7.73,4.38-1.02,.51-2.04,1.02-2.99,1.61-2.7,1.46-5.47,2.84-8.17,4.3-1.24,.58-2.41,1.24-3.72,1.9-2.04,.95-4.08,2.04-6.13,2.99-1.31,.66-2.62,1.31-4.01,1.97-2.11,1.02-4.16,1.97-6.34,2.99-1.17,.51-2.41,1.09-3.65,1.6-2.92,1.39-5.91,2.63-8.9,3.94l-1.9,.8c-3.06,1.31-6.13,2.55-9.26,3.79-1.24,.44-2.41,.95-3.65,1.39-2.26,.87-4.52,1.75-6.78,2.62-1.31,.44-2.63,.95-3.94,1.46-2.33,.8-4.6,1.61-6.86,2.41-1.31,.37-2.48,.8-3.79,1.24-3.06,1.09-6.27,2.12-9.48,3.06l-1.75,.58c-3.21,1.02-6.49,1.97-9.77,2.92-1.24,.36-2.48,.66-3.72,1.02-2.41,.66-4.81,1.31-7.22,1.97-1.31,.36-2.62,.66-4.01,1.02-2.41,.66-4.89,1.24-7.37,1.82-1.24,.29-2.48,.58-3.65,.88-3.5,.73-7,1.53-10.54,2.26l-.4,.07h-.04l-.29,.07c-3.58,.73-7.15,1.39-10.76,2.04-1.2,.22-2.41,.44-3.61,.66-2.55,.44-5.14,.87-7.7,1.31-1.38,.15-2.73,.37-4.08,.59-2.59,.36-5.18,.73-7.77,1.09-1.2,.14-2.4,.29-3.61,.44-3.79,.51-7.59,.95-11.38,1.31h0c-3.83,.44-7.66,.73-11.49,1.02-1.17,.07-2.37,.22-3.57,.29-2.7,.15-5.36,.37-8.06,.51-1.39,.07-2.77,.14-4.16,.22-2.66,.07-5.36,.22-8.06,.29-1.2,0-2.44,.07-3.65,.07-3.9,.15-7.8,.15-11.71,.15s-7.8,0-11.71-.15c-1.24,0-2.44-.07-3.65-.07-2.7-.07-5.4-.22-8.1-.29-1.39-.07-2.73-.15-4.12-.22-2.7-.15-5.36-.37-8.06-.51-1.2-.07-2.41-.22-3.61-.29-3.83-.29-7.66-.58-11.45-1.02h0l-396.91-706.73h0Zm408.36,707.75c-3.83-.29-7.66-.58-11.45-1.02l11.45,1.02h0Zm-22.83-2.33c-1.2-.15-2.41-.29-3.61-.44-2.63-.37-5.18-.73-7.8-1.09-1.31-.22-2.7-.44-4.05-.59-2.59-.44-5.14-.87-7.7-1.31-1.2-.22-2.41-.44-3.61-.66-3.61-.66-7.22-1.31-10.76-2.04l-.29-.07h-.04l-.44-.07c-3.5-.73-7.04-1.53-10.54-2.26-1.2-.29-2.37-.59-3.57-.88-2.48-.58-4.96-1.17-7.4-1.82-1.39-.36-2.7-.66-4.01-1.02-2.41-.66-4.81-1.31-7.22-1.97-1.24-.36-2.52-.66-3.72-1.02-3.28-.95-6.53-1.9-9.77-2.92l-1.79-.58c-3.17-.95-6.35-1.97-9.48-3.06-1.28-.44-2.48-.87-3.76-1.24-2.26-.8-4.56-1.6-6.82-2.41-1.35-.51-2.66-1.02-3.98-1.46-2.3-.88-4.56-1.75-6.82-2.62-1.2-.44-2.41-.95-3.61-1.39-3.1-1.24-6.16-2.48-9.23-3.79l-1.93-.8c-2.99-1.31-5.98-2.55-8.94-3.94-1.2-.51-2.41-1.09-3.65-1.6-2.12-1.02-4.23-1.97-6.31-2.99-1.35-.65-2.7-1.31-4.05-1.97-2.04-.95-4.08-2.04-6.13-2.99-1.24-.66-2.48-1.31-3.68-1.9-2.74-1.46-5.47-2.84-8.17-4.3-.99-.59-2.01-1.1-2.95-1.61-2.63-1.46-5.22-2.92-7.77-4.38-1.24-.66-2.44-1.39-3.68-2.12-1.93-1.17-3.83-2.26-5.76-3.43-1.31-.8-2.63-1.53-3.94-2.33-1.86-1.17-3.72-2.34-5.62-3.58-1.2-.73-2.44-1.53-3.65-2.26-2.44-1.6-4.85-3.21-7.29-4.81-1.09-.73-2.22-1.53-3.32-2.26-2.33-1.6-4.71-3.21-7-4.89-1.17-.8-2.37-1.68-3.54-2.48-1.79-1.31-3.54-2.63-5.29-3.87-1.24-.95-2.48-1.9-3.72-2.77-1.75-1.31-3.46-2.7-5.18-4.01-1.17-.87-2.33-1.75-3.46-2.7-2.22-1.75-4.48-3.57-6.71-5.4-1.06-.88-2.15-1.75-3.21-2.63-2.15-1.82-4.3-3.57-6.42-5.47-1.09-.95-2.19-1.9-3.28-2.84-1.64-1.46-3.25-2.84-4.85-4.3-1.17-1.09-2.33-2.11-3.5-3.21-1.57-1.39-3.1-2.85-4.67-4.3-1.09-1.02-2.19-2.04-3.28-3.06-2.04-2.04-4.12-4.09-6.2-6.05-.91-.95-1.86-1.9-2.77-2.84-2.04-2.04-4.01-4.01-5.98-6.05-.98-1.09-1.93-2.11-2.92-3.14-1.53-1.6-3.03-3.28-4.52-4.89-1.02-1.09-2.08-2.26-3.06-3.36-1.49-1.6-2.92-3.28-4.34-4.89-.98-1.09-1.93-2.19-2.92-3.28-1.9-2.26-3.76-4.45-5.62-6.71-.84-.95-1.68-1.97-2.52-2.99-1.79-2.19-3.61-4.45-5.36-6.71-.88-1.1-1.71-2.19-2.55-3.28-1.42-1.75-2.77-3.57-4.16-5.4-.87-1.17-1.75-2.33-2.59-3.5-1.42-1.82-2.77-3.72-4.12-5.62-.8-1.09-1.57-2.19-2.33-3.21-1.86-2.7-3.72-5.33-5.54-8.03l-1.35-1.97c-1.75-2.63-3.46-5.25-5.14-7.88-.69-1.02-1.39-2.19-2.08-3.28-1.28-1.97-2.55-4.01-3.79-6.06-.73-1.17-1.42-2.33-2.15-3.5-1.24-2.11-2.48-4.16-3.68-6.2-.62-1.17-1.28-2.26-1.93-3.36-1.71-3.06-3.43-6.12-5.11-9.12l-.58-1.09c-1.57-2.99-3.14-5.91-4.67-8.9-.55-1.09-1.13-2.19-1.68-3.28-1.13-2.19-2.23-4.45-3.28-6.64-.58-1.24-1.17-2.41-1.71-3.58-1.09-2.33-2.19-4.67-3.28-7-.47-1.02-.95-2.04-1.42-3.06-1.5-3.36-2.99-6.71-4.38-10.07l-.07-.07-.11-.29c-1.39-3.28-2.74-6.64-4.05-9.99-.4-1.02-.8-2.04-1.2-3.06-.95-2.48-1.9-4.96-2.85-7.44-.4-1.17-.84-2.33-1.24-3.43-.95-2.55-1.82-5.11-2.7-7.66-.37-1.02-.69-1.97-1.02-2.99-16.7-49.67-25.78-102.85-25.78-158.14,0-76.44,17.32-148.8,48.21-213.5l385.53,705.42h0Zm-390.35-288.78c-1.5-3.36-2.99-6.71-4.38-10.07l4.38,10.07Z" style="fill:#b0c2e4; fill-rule:evenodd;"/><path d="M479.46,777.71c0,273.82,222,495.78,495.82,495.78s495.86-221.96,495.86-495.78-222.04-495.79-495.86-495.79-495.82,221.96-495.82,495.79Z" style="fill:#fff; fill-rule:evenodd;"/><path d="M975.64,393.89h.95c7.11,0,12.91-5.76,12.91-12.84v-64.55c0-7.15-5.8-12.91-12.91-12.91h-.95c-7.15,0-12.91,5.76-12.91,12.91v64.55c0,7.08,5.76,12.84,12.91,12.84Z" style="fill:#9db2d9; fill-rule:evenodd;"/><path d="M1359.1,778.07v.95c0,7.15,5.69,12.91,12.84,12.91h64.55c7.08,0,12.91-5.76,12.91-12.91v-.95c0-7.15-5.83-12.91-12.91-12.91h-64.55c-7.15,0-12.84,5.76-12.84,12.91h0Zm-857.94-1.68v.95c0,7.15,5.76,12.91,12.87,12.91h64.55c7.11,0,12.87-5.76,12.87-12.91v-.95c0-7.15-5.76-12.91-12.87-12.91h-64.55c-7.11,0-12.87,5.76-12.87,12.91Z" style="fill:#9db2d9; fill-rule:evenodd;"/><path d="M1246.91,506.58l.73,.66c4.96,5.03,13.13,5.03,18.16,0l45.66-45.59c5.03-5.03,5.03-13.2,0-18.24l-.66-.73c-5.1-5.03-13.27-5.03-18.24,0l-45.66,45.66c-5.03,5.03-5.03,13.2,0,18.24h0Zm-607.82,605.42l.69,.73c5.03,5.03,13.2,5.03,18.24,0l45.62-45.66c5.03-5.03,5.03-13.2,0-18.24l-.69-.66c-5.03-5.03-13.2-5.03-18.2,0l-45.66,45.59c-5.03,5.04-5.03,13.2,0,18.24Z" style="fill:#9db2d9; fill-rule:evenodd;"/><path d="M703.64,506.58l-.69,.66c-5.03,5.03-13.2,5.03-18.2,0l-45.66-45.59c-5.03-5.03-5.03-13.2,0-18.24l.69-.73c5.03-5.03,13.2-5.03,18.24,0l45.62,45.66c5.03,5.03,5.03,13.2,0,18.24h0Zm607.82,605.42l-.66,.73c-5.1,5.03-13.27,5.03-18.24,0l-45.66-45.66c-5.03-5.03-5.03-13.2,0-18.24l.73-.66c4.96-5.03,13.13-5.03,18.16,0l45.66,45.59c5.03,5.04,5.03,13.2,0,18.24Z" style="fill:#9db2d9; fill-rule:evenodd;"/><path d="M973.97,1251.83h.95c7.11,0,12.91-5.76,12.91-12.91v-64.56c0-7.08-5.8-12.84-12.91-12.84h-.95c-7.15,0-12.91,5.76-12.91,12.84v64.56c0,7.15,5.76,12.91,12.91,12.91Z" style="fill:#9db2d9; fill-rule:evenodd;"/><path d="M974.91,785.36h1.09c7.84,0,14.22-6.35,14.22-14.22V459.83c0-7.88-6.38-14.22-14.22-14.22h-1.09c-7.88,0-14.22,6.35-14.22,14.22v311.32c0,7.88,6.35,14.22,14.22,14.22Z" style="fill:#b0c2e4; fill-rule:evenodd;"/><path d="M966.09,776.47l-.36,1.02c-2.33,7.51,1.82,15.54,9.34,17.87l205.4,64.48c7.51,2.33,15.46-1.82,17.87-9.34l.29-1.02c2.33-7.51-1.82-15.46-9.34-17.8l-205.41-64.55c-7.48-2.33-15.46,1.82-17.8,9.34Z" style="fill:#b0c2e4; fill-rule:evenodd;"/><path d="M687.16,849.34l288.78-74.11c2.04-.51,4.19,.73,4.74,2.84,.51,2.04-.73,4.16-2.85,4.74l-288.74,74.04c-2.08,.51-4.19-.73-4.74-2.84-.55-2.04,.73-4.16,2.81-4.67Z" style="fill:#859ac6; fill-rule:evenodd;"/><path d="M590.29,782.74c1.71-.15,3.21-.22,4.45-.36,1.06-.07,1.86-1.02,1.75-2.12,0-.15-.04-.29-.07-.36-.55,.29-1.17,.51-1.86,.51-1.02,.15-2.19,.22-3.54,.29-.18,.73-.44,1.39-.73,2.04Z" style="fill:#f6fbfd; fill-rule:evenodd;"/><path d="M596.05,748.53c0-.14,.04-.29,.04-.36,.04-1.09-.8-2.04-1.86-2.04-11.2-.51-42.01-1.82-71.59-3.36l-.33,1.9c29.65,1.53,60.61,2.92,71.85,3.36,.69,.07,1.31,.22,1.9,.51Z" style="fill:#f6fbfd; fill-rule:evenodd;"/><path d="M401.66,182.5c-63.28,54.56-79.29,143.62-44.17,215.25l263.61-227.29c-65.76-45.3-156.17-42.52-219.45,12.04Z" style="fill:#c4d1eb; fill-rule:evenodd;"/><path d="M556.89,225.83l-135.16,116.63,64.52,74.77c35.63-48.21,78.19-91.03,126.26-126.85l-55.62-64.55Z" style="fill:#859ac6; fill-rule:evenodd;"/><path d="M556.89,225.83l-67.58,58.35,55.73,64.63c21.04-21.08,43.58-40.63,67.47-58.43l-55.62-64.55Z" style="fill:#b0c2e4; fill-rule:evenodd;"/><path d="M1548.89,182.5c63.31,54.56,79.29,143.62,44.13,215.25l-263.54-227.29c65.65-45.3,156.1-42.52,219.41,12.04Z" style="fill:#c4d1eb; fill-rule:evenodd;"/><path d="M1393.67,225.83l135.16,116.63-64.55,74.84c-35.6-48.29-78.19-91.1-126.26-126.92l55.65-64.55Z" style="fill:#859ac6; fill-rule:evenodd;"/><path d="M1393.67,225.83l67.55,58.35-55.73,64.63c-21.01-21.08-43.55-40.63-67.47-58.43l55.65-64.55Z" style="fill:#b0c2e4; fill-rule:evenodd;"/><path d="M1047.24,0h-143.92c-52.04,0-99.35,21.3-133.59,55.51-34.28,34.28-55.51,81.55-55.51,133.63v39.9c20.28-9.7,41.25-18.31,62.73-25.75v-14.15c0-34.72,14.22-66.3,37.16-89.28,22.9-22.9,54.49-37.13,89.21-37.13h143.92c34.68,0,66.34,14.22,89.24,37.13,22.9,22.98,37.13,54.56,37.13,89.28v14.15c21.52,7.44,42.38,16.05,62.73,25.75v-39.9c0-52.08-21.23-99.35-55.51-133.63C1146.55,21.3,1099.28,0,1047.24,0Z" style="fill:#b0c2e4; fill-rule:evenodd;"/><path d="M1554.8,1284.65c0,10.94,101.54,19.77,226.78,19.77s226.78-8.83,226.78-19.77c0-26.84-453.55-26.26-453.55,0Z" style="fill:#c4d1eb; fill-rule:evenodd;"/><path d="M1877.86,1247.96l1.17,20.28c.44,2.63,2.04,8.97,2.04,11.31,0,8.75-38.95-7.44-30.2-11.38,.73-.29,6.13-4.96,6.42-7.95,.29-4.59,.15-11.96,.15-11.96l20.42-.29Z" style="fill:#f9af79; fill-rule:evenodd;"/><path d="M1850.87,1268.09s9.19,2.7,13.86,3.36c4.74,.73,10.94-4.96,14.3-3.43,3.65,1.68,3.87,21.01,3.87,21.01,0,0-48.07,3.65-60.39,.14-5.47-1.6,9.7-14.81,28.37-21.08Z" style="fill:#0e2952; fill-rule:evenodd;"/><path d="M1802.59,1247.96l1.17,20.28c.44,2.63,2.04,8.97,2.04,11.31,0,8.75-39.03-7.44-30.27-11.38,.8-.29,6.2-4.96,6.42-7.95,.37-4.59,.22-11.96,.22-11.96l20.42-.29Z" style="fill:#f9af79; fill-rule:evenodd;"/><path d="M1775.6,1268.09s9.19,2.7,13.86,3.36c4.74,.73,10.94-4.96,14.22-3.43,3.72,1.68,3.87,21.01,3.87,21.01,0,0-47.99,3.65-60.32,.14-5.54-1.6,9.63-14.81,28.37-21.08Z" style="fill:#0e2952; fill-rule:evenodd;"/><path d="M1769.54,716.95c-1.24,9.92-2.85,9.26-2.99,10.58-.15,1.46,8.9,19.62,8.9,19.62,0,0,26.33,53.61,27.86,56.53l46.83,39.39-12.18,29.1s-49.82-44.28-52-47.05c-2.19-2.77-29.62-79.43-32.24-86.07,0,0-5.98-6.79-9.63-11.23-3.57-4.38-5.11-10.14-5.98-11.6-.07-.22-2.62-5.03-4.23-11.82-1.31-5.84,2.55-.88,2.55-.88,0,0,4.45,10.36,5.18,9.92,.51-.44-2.19-5.98-3.79-12.4-.37-1.61-.73-3.21-1.17-4.74-.88-3.94,1.24-5.62,2.77-1.6,.58,1.39,1.46,3.72,1.9,5.54,.44,1.9,1.46,3.5,2.04,5.03,1.17,3.06,1.97,5.33,2.04,5.25,.15-.15,.87,.29,.44-1.53-.44-2.04-2.33-6.42-2.77-9.56-.29-1.82-1.02-5.54-1.02-5.54,0,0,0-5.84,.29-5.91,1.75-.66,2.92,3.36,2.92,5.84,.88,1.53,1.46,5.54,1.46,5.54,0,0,3.06,7.66,4.16,7.29,.51-.22-.88-5.18-1.46-10.21-.51-4.67-.29-9.48,.51-9.7,1.6-.44,2.7,4.74,2.7,4.74,0,0,.59,3.65,.88,4.81,.36,1.46,1.68,5.54,1.68,5.54,0,0,5.25,14.15,6.27,13.64,.95-.51,2.92-2.7,2.92-3.72,0-.95-1.02-2.77-1.02-3.72-.07-1.02,.73-2.33,1.9-2.48,1.17-.07,3.06,4.67,3.06,4.67,0,0,1.6,3.87,1.24,6.71Z" style="fill:#f9af79; fill-rule:evenodd;"/><path d="M2004.92,735.98c-.51,9.99,1.17,9.7,1.02,10.94-.15,1.53-12.25,17.65-12.25,17.65,0,0-35.59,48.07-37.64,50.55l-53.1,30.34,6.57,30.85s57.04-34.5,59.74-36.91c2.7-2.26,43.47-72.72,47.26-78.78,0,0,7.08-5.62,11.45-9.34,4.38-3.65,7-9.05,8.02-10.29,.15-.14,3.5-4.52,6.27-10.79,2.33-5.54-2.33-1.39-2.33-1.39,0,0-6.13,9.41-6.78,8.83-.51-.51,3.14-5.4,5.91-11.45,.66-1.6,1.31-3.14,1.9-4.52,1.68-3.72-.07-5.76-2.33-2.12-.88,1.31-2.19,3.43-2.84,5.11-.8,1.82-2.04,3.21-2.85,4.67-1.75,2.77-3.06,4.82-3.06,4.67-.15-.14-.88,.22-.15-1.46,.87-2.04,3.5-5.91,4.52-8.9,.58-1.75,1.9-5.25,1.9-5.25,0,0,1.17-5.76,.87-5.98-1.68-.95-3.5,2.84-3.94,5.25-1.17,1.39-2.48,5.18-2.48,5.18,0,0-4.45,7-5.4,6.42-.44-.29,1.82-4.89,3.28-9.7,1.39-4.59,2.04-9.34,1.24-9.7-1.46-.66-3.5,4.16-3.5,4.16,0,0-1.24,3.43-1.75,4.6-.58,1.31-2.63,5.11-2.63,5.11,0,0-7.73,13.06-8.61,12.4-.87-.66-2.48-3.28-2.19-4.23,.15-.95,1.46-2.55,1.68-3.5,.22-1.02-.29-2.41-1.46-2.77-1.1-.29-3.87,4.01-3.87,4.01,0,0-2.26,3.5-2.48,6.35Z" style="fill:#f9af79; fill-rule:evenodd;"/><path d="M1866.55,990.33s-59.15,140.85-61.34,153.47c-1.6,9.34,.44,114.59,.44,114.59l-27.94-.44-9.85-120.28,36.84-151.79,61.85,4.45Z" style="fill:#0e2952; fill-rule:evenodd;"/><polygon points="1892.6 996.97 1865.61 1153.36 1883.26 1257.95 1851.38 1257.95 1826.36 1145.48 1822.86 1022.21 1835.85 982.53 1892.6 996.97" style="fill:#20386f; fill-rule:evenodd;"/><path d="M1815.28,811.41s-7,31.44-11.82,36.4c0,0,24.95,16.63,23.78,23.34-1.17,6.57-27.72,130.35-27.72,130.35,0,0,54.71,28.45,88.7,23.92,0,0,25.53-141.07,32.17-147.63,6.64-6.64,27.21-17.07,27.21-17.07,0,0-15.46-29.54-15.46-34.79,0,0-36.47,17-42.6,23.12-6.13,6.2-18.09-1.6-20.93-2.84,0,0-48.94-32.17-53.32-34.79Z" style="fill:#6d96ce; fill-rule:evenodd;"/><path d="M1884.72,820.38l4.67,28.96s-12.11,20.2-21.88,17.21c-8.17-2.55-7.44-18.53-7.44-18.53,0,0,4.45-16.49,3.06-24.8-1.31-8.24,21.59-2.85,21.59-2.85Z" style="fill:#f9af79; fill-rule:evenodd;"/><path d="M1863.13,823.22c-1.31-8.24,21.59-2.85,21.59-2.85l.37,2.41c-.66,1.61-1.46,2.99-2.48,4.09-5.1,5.47-13.06,8.75-19.99,9.05,.66-4.52,1.09-9.26,.51-12.69Z" style="fill:#f27458; fill-rule:evenodd;"/><path d="M1888.51,779.09c.58-.22,5.18,33.26-3.5,42.45-8.61,9.19-25.38,12.18-31.36,4.96-6.64-8.02-6.28-43.99,7.07-53.47,13.35-9.48,27.79,6.05,27.79,6.05Z" style="fill:#f9af79; fill-rule:evenodd;"/><path d="M1887.71,760.64c4.74,.58,12.91,7.08,19.55,17.94,8.1,13.35-2.12,29.76-11.6,36.98-9.41,7.22-9.19,15.68-9.19,15.68l-1.6-4.38c-1.09-3.28-1.46-6.78-1.17-10.21,.22-2.04,.73-4.3,1.53-6.13,2.26-4.89-4.89-8.1-6.86-12.11-1.53-3.06-1.68-10.21-4.08-15.32l-2.84-3.94s-8.24,.73-13.27-3.72c-14.52-12.69,7.59-29.54,29.54-14.81Z" style="fill:#20386f; fill-rule:evenodd;"/><path d="M1878.81,804.33c-.07,4.08,1.82,7.44,4.16,7.51,2.33,.07,4.38-3.21,4.38-7.29,.15-4.09-1.75-7.44-4.08-7.44-2.41-.07-4.38,3.21-4.45,7.22Z" style="fill:#f9af79; fill-rule:evenodd;"/><path d="M1555.6,485.94c-3.35,2.92-7,4.08-11.23,3.21,3.94,3.06,9.48,.73,11.23-3.21Z" style="fill:#f48661; fill-rule:evenodd;"/><path d="M1540.51,775.44c.66-4.45-.8-12.25-4.3-24.36,7,0,12.84-3.06,19.99-2.99,2.04,11.45,5.03,30.2,5.03,30.2l.37,14.81-49.82,.36s.36,.22,15.1-9.04c1.02-.73,13.06-4.59,13.64-8.97Z" style="fill:#f9af79; fill-rule:evenodd;"/><path d="M1561.73,796.89h-51.35c-1.9-.15-2.33-1.75-1.68-2.7,1.39-1.97,11.38-6.64,18.16-9.77,11.82,1.24,32.53-3.65,34.43-6.35,3.21,9.04,1.53,18.6,.44,18.82Z" style="fill:#0e2952; fill-rule:evenodd;"/><path d="M1602.58,775.44c.58-4.45,1.6-10.14,.07-25.17,7,0,13.64-1.31,20.79-1.17,0,11.74-.22,29.18-.22,29.18l.29,14.81-49.75,.36s.36,.22,15.1-9.04c1.02-.73,13.06-4.59,13.71-8.97Z" style="fill:#f9af79; fill-rule:evenodd;"/><path d="M1623.73,796.89h-51.35c-1.9-.15-2.33-1.75-1.68-2.7,1.39-1.97,11.38-6.64,18.09-9.77,11.82,1.24,32.6-3.65,34.5-6.35,3.21,9.04,1.53,18.6,.44,18.82Z" style="fill:#0e2952; fill-rule:evenodd;"/><path d="M1566.4,345.74l-18.82-19.77s-19.99,11.02-43.33,21.52c-6.42-11.16-16.92-47.92-17.51-49.67-.58-1.75,12.25-23.85,9.41-24.36-2.84-.58-6.64,11.74-9.63,10.5-2.99-1.24-10.87-29.91-12.62-28.3-3.5,2.92,4.08,17.8,2.26,18.89-1.82,1.09-6.35-16.49-9.85-15.76-3.5,.73,5.84,15.97,4.81,17.51-1.02,1.46-10.8-12.91-12.84-9.56-1.02,1.75,9.04,12.47,7,13.64-2.04,1.17-11.23-5.54-12.25-3.36-1.17,2.19,8.46,4.45,11.09,9.99,2.7,5.47,7.59,7.59,9.19,18.02,1.6,10.43,5.98,66.09,17.29,70.61,9.99,3.87,75.79-29.91,75.79-29.91Z" style="fill:#f9af79; fill-rule:evenodd;"/><path d="M1554.29,452.24l15.17,8.46,30.85,47.19-55.22,129.91s6.27,19.55,8.32,29.25c2.04,10.28,7.29,97.89,7.29,97.89l-23.63,.37s-22.32-93.29-26.12-123.56c-4.59-36.76,23.42-124.37,23.42-124.37,5.18-17.87,16.49-54.56,16.49-54.56,0,0,2.77-9.04,3.43-10.58Z" style="fill:#20386f; fill-rule:evenodd;"/><path d="M1607.1,434.52s-1.61,11.09,4.67,23.78c3.86,7.73,10.5,13.79,15.17,23.2,9.04,17.94,13.86,43.33,10.5,59.67,0,0-18.53,70.75-17.8,96.57,.29,9.56,3.5,26.7,5.69,38.29,1.82,10.29,2.48,87.75,2.48,87.75l-26.33-.8-20.13-124.95-8.54-111.02-18.53-74.77,52.81-17.72Z" style="fill:#223f81; fill-rule:evenodd;"/><path d="M1551.45,271.56c2.26-11.01,4.74-22.03,15.61-29.91,8.83-6.42,18.31-8.24,28.38-4.59,28.52,10.36,13.13,32.97,48.58,57.04,10.94,7.51,15.1,10.07,22.98,20.06,11.01,14,17.07,32.75,11.53,48.14-11.45,31.95-47.05,41.14-65.58,34.36-34.65-12.55-63.46-56.46-65.43-68.42-1.97-12.84,2.41-49.67,3.94-56.68Z" style="fill:#20386f; fill-rule:evenodd;"/><path d="M1545.9,358.14c-8.39,3.87-23.56,9.7-23.56,9.7l-8.61-27.28c48.72-27.79,44.93-23.34,81.55-22.76,29.25,.44,41.58-5.18,66.67,62.8,0,0-19.11,8.61-25.97,11.38-2.99-8.39-8.31-25.17-11.38-15.61-4.74,14.44-8.17,29.03-10.5,44.06-1.46,8.9-4.67,20.28-2.99,29.32,0,0-19.91,4.08-35.08,4.81h-.15c-7.37-.22-14.88-.88-21.59-2.33,0,0-3.06-63.1-4.59-65.72-1.82-2.92-9.26-12.33-2.84-26.4,1.09-2.48,.73-2.77-.95-1.97Z" style="fill:#6d96ce; fill-rule:evenodd;"/><path d="M1582.52,467.63c-.37,.07-1.9-.15-3.14-.15-1.75,.07-3.35,.29-3.35,.29,0,0-.66-.58-1.97-1.17-.51-.22-1.46-.37-2.11-.66-.58-.29-1.17-.8-1.75-1.09-1.46-.66-2.92-.8-3.36,0-.44,.66,8.17,5.98,8.17,5.98,8.02,0,16.41,4.09,35.01-8.02,10.5-4.6,62-30.05,63.02-35.52,.58-3.14-7.29-27.21-13.71-45.44-5.03,2.19-15.61,6.93-21.52,9.41,5.47,11.52,11.89,26.77,11.16,28.59-.15,.51-.8,1.39-35.6,24.14-.88,.58-1.75,1.17-2.62,1.75-2.48,1.61-5.11,3.36-7.88,5.11l-9.92-1.02s-15.76,1.09-16.19,2.92c-.22,.8,1.09,1.17,2.7,1.46h.07c.15,0,.44,.07,.73,.07h0c1.75,.22,3.5,.22,3.94,.37,.51,.22,1.53,.58,2.33,1.17-9.77,4.01-8.97,2.55-12.25,2.41-.8-.07-1.68,.15-2.48,.07-1.31-.07-2.33-.88-3.35-.95-1.46-.07-2.7,.58-2.92,.88-.44,.36,.29,.88,1.53,1.46,7.59,3.28,13.79,1.97,15.83,2.48,1.31,.36-1.09,.88-4.96,.44-.95-.07-2.19,.22-3.5-.07-.88-.15-1.61-.73-2.48-.88-.73-.22-1.46-.22-2.19-.37-.8-.15-2.04-.8-2.63-.88-2.55-.29-3.79,.15-4.08,.36-.58,.58,10.87,4.96,10.87,4.96,0,0,7.88,1.09,9.63,1.09,0,0,1.09,.51-1.02,.8Z" style="fill:#f9af79; fill-rule:evenodd;"/><path d="M1591.64,290.89s2.33,18.02,3.65,24.22c1.31,6.56,3.35,27.21-10.21,30.56-13.57,3.28-9.34-22.47-9.56-29.1-.22-6.64-4.08-29.83-4.08-29.83l20.2,4.16Z" style="fill:#f9af79; fill-rule:evenodd;"/><path d="M1592.44,296.65c-.15,.07-.22,.15-.36,.22-7.59,4.3-14.08,3.65-18.97,.29-.87-5.76-1.68-10.43-1.68-10.43l20.2,4.16s.37,2.41,.8,5.76Z" style="fill:#f27458; fill-rule:evenodd;"/><path d="M1587.62,243.99s7.95,2.19,12.55,10.07c4.59,7.95,6.86,30.64-9.99,40.26-16.92,9.7-28.89-5.84-28.38-20.35,.51-14.44,4.52-33.63,25.82-29.98Z" style="fill:#f9af79; fill-rule:evenodd;"/><path d="M1558.08,267.77c-.22,3.79,1.38,6.93,3.57,7.08,2.19,.07,4.16-2.92,4.3-6.64,.15-3.79-1.46-6.93-3.65-7.07-2.19-.07-4.08,2.84-4.23,6.64Z" style="fill:#f9af79; fill-rule:evenodd;"/><path d="M1585.22,243.41s9.12,23.71,18.02,26.19c8.9,2.55,8.17,14.22,8.17,14.22,0,0,1.17-26.99-7-33.63-8.1-6.56-19.18-6.78-19.18-6.78Z" style="fill:#20386f; fill-rule:evenodd;"/><path d="M1599.37,274.26c-1.31,3.72-.44,7.44,2.04,8.39,2.48,.95,5.62-1.31,7-5.03,1.38-3.72,.44-7.44-2.04-8.39s-5.54,1.31-7,5.03Z" style="fill:#f9af79; fill-rule:evenodd;"/><polygon points="1705.28 381.12 1803.46 459.02 1761.59 489.22 1705.28 381.12" style="fill:#c4d1eb; fill-rule:evenodd;"/><polygon points="1824.47 445.16 1708.64 382.36 1859.33 438.16 1824.47 445.16" style="fill:#c4d1eb; fill-rule:evenodd;"/><polygon points="1824.47 445.16 1806.82 495.57 1803.46 459.02 1705.28 381.12 1708.64 382.36 1824.47 445.16" style="fill:#9db2d9; fill-rule:evenodd;"/><polygon points="1806.82 495.57 1784.93 472.37 1803.46 459.02 1806.82 495.57" style="fill:#859ac6; fill-rule:evenodd;"/><path d="M1832.86,475.51c-2.7-1.53-4.74,2.41-2.41,3.79,1.31,.8,2.48,1.61,3.79,2.41,2.77,1.61,4.67-2.48,2.41-3.79-1.24-.8-2.55-1.6-3.79-2.41h0Zm-127.72,231.66c.73,2.77,5.1,1.75,4.38-1.17-.44-1.39-.73-2.77-1.02-4.23-.8-3.06-5.11-1.75-4.38,.95,.29,1.46,.58,2.92,1.02,4.45h0Zm-2.92-18.09c0,2.63,4.45,2.99,4.45-.22-.07-1.46-.14-2.92-.14-4.38,0-2.92-4.45-2.92-4.45,0,0,1.53,0,3.06,.15,4.59h0Zm1.17-18.38c-.44,3.06,3.65,3.72,4.38,.87,.22-1.39,.58-2.84,.88-4.23,.73-2.92-3.65-3.94-4.3-1.17-.36,1.53-.73,3.06-.95,4.52h0Zm5.76-17.43c-1.31,2.26,2.41,4.81,4.01,1.97,.58-1.24,1.31-2.7,2.04-3.79,1.46-2.63-2.48-4.81-3.94-2.26-.73,1.24-1.46,2.7-2.12,4.08h0Zm10.14-15.39c-1.9,2.33,1.6,5.11,3.35,2.92,1.02-1.09,1.9-2.19,2.92-3.21,2.04-2.04-1.02-5.25-3.21-3.14-1.02,1.09-2.04,2.26-3.06,3.43h0Zm13.27-12.62c-2.41,2.04,.66,5.32,2.77,3.57,1.09-.88,2.33-1.82,3.5-2.63,2.48-1.75-.22-5.33-2.62-3.65-1.17,.88-2.48,1.75-3.65,2.7h0Zm15.32-9.92c-2.63,1.61-.29,5.4,2.11,4.01,1.31-.73,2.55-1.39,3.94-2.04,2.84-1.6,.29-5.32-1.97-4.01-1.39,.66-2.77,1.39-4.08,2.04h0Zm16.63-7.44c-2.84,1.02-1.24,5.18,1.53,4.16l4.16-1.46c2.92-1.09,1.17-5.18-1.46-4.23-1.46,.51-2.84,1.02-4.23,1.53h0Zm17.29-5.32c-2.84,.73-1.75,5.03,1.09,4.3l4.23-.95c3.06-.8,1.75-5.03-.88-4.38l-4.45,1.02h0Zm17.87-3.36c-2.92,.36-2.41,4.81,.51,4.45l4.45-.58c2.99-.37,2.33-4.74-.51-4.45-1.53,.22-2.99,.36-4.45,.58h0Zm17.94-1.46c-2.99,.36-2.77,4.45,.29,4.45,1.46-.07,2.92-.15,4.45-.29,3.21-.36,2.33-4.74-.36-4.45l-4.38,.29h0Zm17.65-1.6c-2.92,.36-2.41,4.81,.58,4.45,1.46-.22,2.99-.44,4.52-.66,2.77-.29,2.33-4.82-.73-4.38-1.46,.22-2.92,.44-4.38,.58h0Zm17.36-3.14c-2.92,.73-1.75,5.03,1.02,4.3,1.53-.29,2.99-.66,4.45-1.09,2.7-.66,1.82-5.03-1.24-4.3-1.39,.44-2.84,.73-4.23,1.1h0Zm16.56-5.47c-2.63,1.1-.95,5.25,1.82,4.08,1.46-.66,2.77-1.39,4.23-2.11,2.63-1.46,.29-5.32-2.19-3.87-1.17,.66-2.62,1.31-3.87,1.9h0Zm14.22-9.34c-2.04,2.04,1.02,5.25,3.21,3.14,1.09-1.09,2.11-2.33,3.14-3.57,1.68-2.04-1.53-5.18-3.57-2.7-.88,1.09-1.82,2.19-2.77,3.14h0Zm7.95-14.3c-.66,2.63,3.58,4.01,4.38,.88,.29-1.53,.51-3.14,.66-4.74,0-3.21-4.52-2.85-4.52-.22-.15,1.39-.29,2.7-.51,4.09h0Zm-1.02-16.63c.66,2.7,5.03,1.82,4.3-1.17-.44-1.53-.87-2.99-1.46-4.45-1.02-2.77-5.25-1.24-4.16,1.53,.51,1.31,.95,2.7,1.31,4.09h0Zm-6.93-15.83c1.46,2.48,5.32,.36,3.87-2.26-.66-1.17-1.68-2.7-2.41-3.87-1.31-2.26-5.4-.44-3.79,2.41,.73,.95,1.75,2.7,2.33,3.72h0Zm-10.06-14.37c1.97,2.33,5.32-.58,3.5-2.84-.95-1.17-1.9-2.33-2.92-3.43-1.82-2.19-5.33,.58-3.36,2.92,.95,1.1,1.9,2.19,2.77,3.36h0Zm-11.82-13.06c2.04,2.04,5.25-1.09,3.14-3.21-1.1-1.02-2.12-2.12-3.28-3.14-1.89-1.97-5.25,1.09-3.06,3.28,1.09,1.02,2.19,2.04,3.21,3.06h0Zm-13.13-11.82c2.19,1.82,5.11-1.53,2.85-3.5l-3.57-2.84c-2.04-1.75-5.11,1.53-2.7,3.57,1.09,.8,2.33,1.82,3.43,2.77Z" style="fill:#859ac6; fill-rule:evenodd;"/><path d="M1566.03,1411.35c178.41,0,323.06,9.05,323.06,20.21s-144.65,20.2-323.06,20.2-323.13-9.05-323.13-20.2,144.64-20.21,323.13-20.21Z" style="fill:#c4d1eb; fill-rule:evenodd;"/><polygon points="1672.89 820.67 1657.58 820.67 1828.55 1431.04 1843.87 1431.04 1672.89 820.67" style="fill:#9c7357; fill-rule:evenodd;"/><polygon points="1557.5 820.67 1542.18 820.67 1713.16 1431.04 1728.48 1431.04 1557.5 820.67" style="fill:#9c7357; fill-rule:evenodd;"/><polygon points="1668.74 860.64 1568.66 860.64 1571.51 870.85 1671.58 870.85 1668.74 860.64" style="fill:#9c7357; fill-rule:evenodd;"/><polygon points="1686.53 924.1 1586.38 924.1 1589.3 934.31 1689.38 934.31 1686.53 924.1" style="fill:#9c7357; fill-rule:evenodd;"/><polygon points="1430 919.07 1530.07 919.07 1527.23 929.28 1427.15 929.28 1430 919.07" style="fill:#9c7357; fill-rule:evenodd;"/><polygon points="1704.26 987.56 1604.18 987.56 1607.1 997.77 1707.18 997.77 1704.26 987.56" style="fill:#9c7357; fill-rule:evenodd;"/><polygon points="1412.2 982.53 1512.28 982.53 1509.51 992.74 1409.36 992.74 1412.2 982.53" style="fill:#9c7357; fill-rule:evenodd;"/><polygon points="1722.06 1051.02 1621.98 1051.02 1624.9 1061.23 1724.98 1061.23 1722.06 1051.02" style="fill:#9c7357; fill-rule:evenodd;"/><polygon points="1739.85 1114.48 1639.78 1114.48 1642.62 1124.69 1742.77 1124.69 1739.85 1114.48" style="fill:#9c7357; fill-rule:evenodd;"/><polygon points="1757.65 1177.94 1657.58 1177.94 1660.42 1188.15 1760.5 1188.15 1757.65 1177.94" style="fill:#9c7357; fill-rule:evenodd;"/><polygon points="1775.45 1241.4 1675.3 1241.4 1678.15 1251.61 1778.3 1251.61 1775.45 1241.4" style="fill:#9c7357; fill-rule:evenodd;"/><polygon points="1793.25 1304.85 1693.1 1304.85 1695.94 1315.07 1796.02 1315.07 1793.25 1304.85" style="fill:#9c7357; fill-rule:evenodd;"/><polygon points="1810.97 1368.32 1710.9 1368.32 1713.74 1378.53 1813.82 1378.53 1810.97 1368.32" style="fill:#9c7357; fill-rule:evenodd;"/><polygon points="1442.25 820.67 1457.57 820.67 1286.6 1431.04 1271.28 1431.04 1442.25 820.67" style="fill:#9c7357; fill-rule:evenodd;"/><polygon points="1557.65 820.67 1572.96 820.67 1401.99 1431.04 1386.67 1431.04 1557.65 820.67" style="fill:#9c7357; fill-rule:evenodd;"/><polygon points="1446.34 860.64 1546.49 860.64 1543.64 870.85 1443.57 870.85 1446.34 860.64" style="fill:#9c7357; fill-rule:evenodd;"/><polygon points="1393.09 1051.02 1493.17 1051.02 1490.25 1061.23 1390.17 1061.23 1393.09 1051.02" style="fill:#9c7357; fill-rule:evenodd;"/><polygon points="1375.29 1114.48 1475.37 1114.48 1472.45 1124.69 1372.37 1124.69 1375.29 1114.48" style="fill:#9c7357; fill-rule:evenodd;"/><polygon points="1357.49 1177.94 1457.57 1177.94 1454.73 1188.15 1354.58 1188.15 1357.49 1177.94" style="fill:#9c7357; fill-rule:evenodd;"/><polygon points="1339.7 1241.4 1439.77 1241.4 1436.93 1251.61 1336.78 1251.61 1339.7 1241.4" style="fill:#9c7357; fill-rule:evenodd;"/><polygon points="1321.9 1304.85 1421.98 1304.85 1419.2 1315.07 1319.05 1315.07 1321.9 1304.85" style="fill:#9c7357; fill-rule:evenodd;"/><polygon points="1304.1 1368.32 1404.25 1368.32 1401.4 1378.53 1301.33 1378.53 1304.1 1368.32" style="fill:#9c7357; fill-rule:evenodd;"/><rect x="1420.08" y="796.67" width="273.09" height="24" style="fill:#d0a382;"/><path d="M1943.07,1306.68c0,2.92-.14,5.4-.44,7.15,.29-1.75,.44-4.23,.44-7.15Z" style="fill:#ecebe8; fill-rule:evenodd;"/><path d="M327.85,1398.73c0,10.94,101.53,19.77,226.78,19.77s226.74-8.83,226.74-19.77c0-26.84-453.52-26.26-453.52,0Z" style="fill:#c4d1eb; fill-rule:evenodd;"/><path d="M400.64,1406.39c-10.69-3.72-11.56-9.27-17.32-11.96-5.8-2.7-6.46-7.51-.77-12.76,4.16,3.36,9.37,7.44,12.15,5.33,1.82-1.53,8.1-1.39,9.3,.73,5.47,12.62,13.02,8.61,14.52,14.37,.14,7.66-12.95,6.06-17.87,4.3Z" style="fill:#1d417f; fill-rule:evenodd;"/><path d="M492.55,1406.83c-19.73-.37-34.5-.58-41.32-2.7-7.37-2.33-5.83-6.86-1.6-14,18.64,8.54,13.64-1.75,22.36-.44,6.13,4.89,15.21,8.24,27.21,9.85,5.03,3.79,2.99,7.08-6.64,7.29Z" style="fill:#1d417f; fill-rule:evenodd;"/><path d="M424.28,927.38c3.17,.22,8.13-.44,9.04-1.53,3.32-4.23,5.65-8.68,6.53-11.52-.66-1.82-1.31-4.23-2.04-7.08-12.14-8.24-13.82-14.3-5-18.31,1.79,1.02,4.01,4.08,6.64,9.26,2.11-.15,3.72-1.17,4.78-3.28-2.52-8.68-4.16-15.76-4.89-21.15,5.98-8.9,19.99-10.21,38.55-7.81,.84,4.96,1.57,10.21,2.12,15.76,3.28,2.99,2.84,14.22-.18,27.06,1.53,7.37-2.99,11.38-13.6,12.04-.15,2.63,.11,5.83,.25,6.2,.29,.51,1.2,1.09,2.52,1.53h0c.37,12.18-14.52,11.74-44.71-1.17Z" style="fill:#f9af79; fill-rule:evenodd;"/><path d="M477.89,865.96c-18.56-2.41-32.57-1.09-38.55,7.81,.73,5.4,2.37,12.47,4.89,21.15-1.06,2.11-2.66,3.13-4.78,3.28-2.63-5.18-4.85-8.24-6.64-9.26-8.82,4.01-7.15,10.07,5,18.31,.73,2.84,1.39,5.25,2.04,7.08-10.94-2.41-20.1-12.18-21.37-16.41-12.77-25.17,1.46-35.81,9.08-39.68,3.36-24.88,39.53-2.92,57.66-14.88,7.18,9.92-1.71,22.39-7.33,22.61Z" style="fill:#0e2952; fill-rule:evenodd;"/><path d="M589.2,971.44c-9.19,39.31-25.31,69.8-48.36,91.54-8.31-2.55-15.72-8.24-22.14-17.07,.33,28.45-.36,56.75-2.11,84.91-16.85,7.95-39.21,7.44-67.07-1.53l-11.31-13.93c-2.92-.58-9.48,2.63-12.66,7.51-26.48-20.2-44.31-41.94-54.85-63.46,2.85-46.32,9.12-82.93,18.86-109.7,4.96-7.59,16.52-15.03,34.72-22.32,30.2,12.91,45.08,13.35,44.71,1.17,8.9,2.92,20.64,8.1,35.31,15.46,12.25,9.26,22.65,34.5,31.25,75.49,14-17.51,28.48-36.11,43.55-55.73,3.36,.95,6.71,3.5,10.1,7.66h0Zm-157.08,131.37c8.79-28.89,3.94-64.48-14.55-106.86-4.67,20.93-9.66,41.5-15.06,61.71,6.27,2.99,16.12,18.02,29.61,45.15Z" style="fill:#6d96ce; fill-rule:evenodd;"/><path d="M428.84,1140.37c4.27-.29,11.16-4.01,20.68-11.09,27.86,8.97,50.22,9.48,67.07,1.53,2.99,47.41-8.68,97.08-23.45,152.52-14.48,24.29-13.86,41.36-21.59,97.52-4.27,3.06-11.38,2.63-21.23-1.31-3.14-47.85-.98-79.58,11.42-97.38-1.93-16.05,3.17-55.51,3.39-80.23-9.04,20.06-15.25,47.34-26.99,74.77-14.33,33.48-24.29,69.29-31.87,101.9-7.99,1.53-15.5,.66-22.47-2.77,8.02-53.69,16.92-90.59,26.66-110.8-.36-52.74,4.67-100.15,15.1-142.17,1.93,4.96,3.03,10.8,3.28,17.51Z" style="fill:#1d417f; fill-rule:evenodd;"/><path d="M449.51,1129.28c-9.52,7.08-16.41,10.8-20.68,11.09-.25-6.71-1.35-12.55-3.28-17.51,3.17-4.89,9.74-8.1,12.66-7.51l11.31,13.93Z" style="fill:#f9af79; fill-rule:evenodd;"/><path d="M518.7,1045.91c-.91-27.57-3.14-50.26-6.64-67.91,8.94,37.49,17.58,62.44,25.97,74.69,5.29-.22,12-3.35,20.1-9.41-5.25,7.22-11.01,13.79-17.29,19.69-8.31-2.55-15.72-8.24-22.14-17.07Z" style="fill:#466fb5; fill-rule:evenodd;"/><path d="M438.21,1115.35c-1.6-4.01-3.65-8.17-6.09-12.54,8.79-28.89,3.94-64.48-14.55-106.86,26.84,38.22,34.5,78.92,22.87,122.1l-2.22-2.7Z" style="fill:#466fb5; fill-rule:evenodd;"/><path d="M454.07,918.27c2.95,1.46,7,2.33,12.14,2.55-.07,1.75,0,3.79,.11,5.03-5.22-1.02-9.3-3.5-12.25-7.59Z" style="fill:#ed7d57; fill-rule:evenodd;"/><path d="M451.48,1390.93c.99-3.28,1.39-6.78,1.13-10.58,7.51,2.77,13.28,3.21,17.25,1.46-.22,2.77,.11,5.4,.95,7.73-6.86-.22-3.72,8.1-19.33,1.38h0Zm-49.82-4.59c-2.37-.66-5.69-.36-6.97,.66-2.48,1.9-6.89-1.17-10.8-4.23,.66-1.9,1.2-3.87,1.68-6.13,4.67,1.97,9.63,2.92,14.77,2.7-.07,2.77,.36,5.11,1.31,7Z" style="fill:#f9af79; fill-rule:evenodd;"/><path d="M428.54,1147.16c.29-2.48,.4-4.74,.29-6.79,4.27-.29,11.16-4.01,20.68-11.09,2.26,.73,4.49,1.39,6.67,1.97-6.71,7-15.9,12.25-27.64,15.9Z" style="fill:#3c3392; fill-rule:evenodd;"/><path d="M579.1,963.78c.15-7.88,4.38-9.85,5.25-14.15,3.61,1.6,4.56,4.52,2.81,8.83,1.64-1.31,3.28-2.77,4.89-4.3,5.25-2.41,9.37-4.3,12.33-5.62-1.82,4.74-4.34,10.21-7.59,16.49-1.9,3.06-4.78,2.48-8.46,5.4-3.06-3.57-6.16-5.76-9.23-6.64Z" style="fill:#f9af79; fill-rule:evenodd;"/></svg>