<?xml version="1.0" encoding="UTF-8"?><svg id="a" xmlns="http://www.w3.org/2000/svg" viewBox="0 0 2156.36 1526.65"><path d="M1120.63,153.96c211.87-37.94,277.81,144.84,433.2,251.2,205.67,140.77,452.83,189.97,452.83,431.57,0,424.14-458.94,577.8-959.08,577.8S74.57,1079.9,269.63,756.28C464.69,432.65,765.37,217.58,1120.63,153.96Z" style="fill:#e0e8f5; fill-rule:evenodd;"/><path d="M1377.17,249.58c-36.09,8.1-71.9-14.59-80-50.67-8.09-36.09,14.6-71.9,50.68-79.99,36.08-8.1,71.89,14.59,79.99,50.67,8.1,36.08-14.59,71.9-50.67,79.99h0Zm106.42,16.93h0ZM1368.41,9.68h0Zm-132.8,91.43h0Zm48.84,203.48c11.31,7.34,23.67,13.1,36.71,17.04l5.67,33.62,29.79,3.58,13.48-31.33,7.79-.63,31.9-7.17,24.35,23.88,23.11-12.56,.78-.51,2.33-1.55-7.5-33.26,4.85-4.12,22.66-25.55,3.23,.47,30.48,4.53c4.97-8.68,9.2-17.79,12.64-27.24l-25.59-22.48c3.45-12.91,5.14-26.42,4.83-40.19l30.2-15.74-5.8-29.47-33.92-3.14c-4.92-12.89-11.6-24.75-19.69-35.37l15.17-30.5c-6.76-7.45-14.13-14.27-22.02-20.41l-29.3,17.41-36.68-17.04-5.67-33.62c-9.7-2.04-19.68-3.25-29.81-3.57l-13.47,31.3-39.68,7.82-24.35-23.88-26.22,14.62,7.5,33.25c-10.58,8.58-19.81,18.59-27.5,29.66l-9.06-1.33-24.65-3.66c-4.97,8.67-9.21,17.79-12.64,27.24l25.59,22.48c-3.46,12.88-5.15,26.39-4.82,40.19l-30.2,15.75,5.8,29.47,33.91,3.13c4.93,12.86,11.6,24.72,19.69,35.36l-15.16,30.5c6.76,7.44,14.12,14.26,22.02,20.41l29.29-17.41Z" style="fill:#c4d1eb; fill-rule:evenodd;"/><path d="M1470.99,240.95c-.77,.18-1.62,.09-2.38-.3-1.74-.89-2.42-3.01-1.54-4.75,12.16-23.77,15.64-51.23,9.79-77.33-2.8-12.49-7.6-24.3-14.26-35.1-1.02-1.66-.51-3.83,1.15-4.86,1.67-1.02,3.83-.51,4.86,1.15,7.07,11.46,12.15,24,15.12,37.27,6.21,27.7,2.54,56.85-10.38,82.08-.49,.97-1.38,1.61-2.37,1.83Z" style="fill:#fff; fill-rule:evenodd;"/><path d="M1425.92,85.38c-.84,.19-1.76,.07-2.58-.41-13.55-8.03-28.32-13.1-43.86-15.1-1.93-.25-3.29-2.01-3.05-3.95,.25-1.94,2.02-3.3,3.95-3.05,16.51,2.11,32.17,7.5,46.57,16.02,1.66,1,2.22,3.16,1.23,4.84-.52,.87-1.34,1.43-2.26,1.64Z" style="fill:#fff; fill-rule:evenodd;"/><path d="M1312.26,81.62c-1.54,.34-3.18-.38-3.92-1.86-.87-1.74-.18-3.87,1.56-4.74,8.94-4.52,18.5-7.94,28.35-10.15,1.91-.43,3.8,.77,4.23,2.67,.42,1.9-.77,3.79-2.68,4.22-9.29,2.09-18.28,5.31-26.71,9.56-.27,.14-.54,.23-.82,.3Z" style="fill:#fff; fill-rule:evenodd;"/><path d="M1093.62,150.84c-22.69,5.09-45.21-9.17-50.3-31.86-5.09-22.69,9.17-45.21,31.86-50.3,22.69-5.09,45.2,9.17,50.3,31.86,5.09,22.69-9.17,45.2-31.86,50.3h0Zm66.91,10.64h0ZM1088.11,0h0Zm-83.5,57.49h0Zm30.71,127.94c7.11,4.61,14.88,8.24,23.08,10.71l3.56,21.14,18.73,2.25,8.48-19.7,4.9-.39,20.05-4.51,15.31,15.02,14.53-7.9,.49-.32,1.46-.97-4.71-20.92,3.05-2.59,14.25-16.06,2.03,.29,19.16,2.85c3.13-5.46,5.79-11.18,7.95-17.12l-16.09-14.14c2.17-8.12,3.22-16.61,3.04-25.27l18.98-9.9-3.65-18.53-21.33-1.97c-3.09-8.11-7.3-15.56-12.38-22.24l9.53-19.17c-4.24-4.68-8.88-8.98-13.84-12.83l-18.43,10.95-23.06-10.71-3.57-21.14c-6.1-1.28-12.37-2.04-18.74-2.24l-8.48,19.68-24.95,4.92-15.31-15.02-16.49,9.19,4.72,20.91c-6.65,5.4-12.45,11.69-17.28,18.65l-5.7-.84-15.5-2.3c-3.13,5.45-5.79,11.18-7.94,17.12l16.09,14.13c-2.17,8.1-3.24,16.6-3.03,25.27l-18.99,9.9,3.65,18.53,21.32,1.97c3.1,8.08,7.3,15.54,12.38,22.24l-9.53,19.18c4.25,4.68,8.89,8.97,13.85,12.83l18.43-10.94Z" style="fill:#c4d1eb; fill-rule:evenodd;"/><path d="M1152.61,145.42c-.49,.11-1.02,.06-1.49-.19-1.1-.56-1.53-1.89-.97-2.99,7.65-14.94,9.84-32.21,6.16-48.62-1.76-7.86-4.79-15.29-8.98-22.07-.64-1.04-.32-2.41,.73-3.05,1.05-.64,2.41-.32,3.05,.73,4.44,7.21,7.64,15.09,9.51,23.43,3.9,17.42,1.6,35.75-6.52,51.61-.31,.61-.87,1.01-1.49,1.15Z" style="fill:#fff; fill-rule:evenodd;"/><path d="M1124.27,47.59c-.53,.12-1.11,.05-1.62-.25-8.52-5.05-17.81-8.24-27.58-9.5-1.21-.15-2.07-1.26-1.92-2.48,.16-1.22,1.27-2.08,2.48-1.92,10.38,1.33,20.23,4.72,29.28,10.08,1.04,.63,1.4,1.98,.77,3.04-.32,.55-.84,.9-1.42,1.03Z" style="fill:#fff; fill-rule:evenodd;"/><path d="M1052.81,45.23c-.97,.22-2-.24-2.47-1.16-.54-1.1-.11-2.43,.98-2.98,5.63-2.84,11.63-4.99,17.83-6.38,1.21-.27,2.39,.48,2.66,1.68,.27,1.2-.49,2.38-1.69,2.65-5.84,1.31-11.49,3.34-16.8,6.02-.16,.08-.34,.14-.51,.18Z" style="fill:#fff; fill-rule:evenodd;"/><path d="M350.85,1288.34c133.32,0,241.39,15.37,241.39,34.32s-108.07,34.31-241.39,34.31-241.38-15.36-241.38-34.31,108.07-34.32,241.38-34.32Z" style="fill:#c4d1eb; fill-rule:evenodd;"/><path d="M1914.98,1378.69c133.3,0,241.38,15.37,241.38,34.32s-108.08,34.31-241.38,34.31-241.39-15.36-241.39-34.31,108.07-34.32,241.39-34.32Z" style="fill:#c4d1eb; fill-rule:evenodd;"/><path d="M1673.75,1285.35c117.17,0,212.17,13.5,212.17,30.16s-94.99,30.16-212.17,30.16-212.17-13.5-212.17-30.16,94.99-30.16,212.17-30.16Z" style="fill:#c4d1eb; fill-rule:evenodd;"/><path d="M616.37,265.73h984.21c40.2,0,72.84,32.64,72.84,72.84V931.46c0,40.2-32.64,72.84-72.84,72.84H616.37c-40.2,0-72.84-32.64-72.84-72.84V338.56c0-40.2,32.64-72.84,72.84-72.84Z" style="fill:#b0c2e4;"/><path d="M616.37,286.39h984.21c28.7,0,52.18,23.48,52.18,52.17V931.46c0,28.71-23.48,52.18-52.18,52.18H616.37c-28.69,0-52.18-23.47-52.18-52.18V338.56c0-28.7,23.48-52.17,52.18-52.17Z" style="fill:#fff; fill-rule:evenodd;"/><path d="M719.43,679.21l193.2-102.94c-.27-1.38-.41-2.82-.41-4.28,0-12.53,10.15-22.68,22.68-22.68s22.67,10.15,22.67,22.68c0,.74-.03,1.47-.1,2.2l75.78,31.84c4.16-4.95,10.4-8.1,17.37-8.1,2.71,0,5.31,.48,7.72,1.35l89.57-118.41c-2.68-3.72-4.25-8.29-4.25-13.23,0-12.52,10.15-22.68,22.68-22.68s22.67,10.15,22.67,22.68c0,3.75-.91,7.29-2.52,10.41l84.97,83.46c3.2-1.73,6.87-2.71,10.77-2.71,2.56,0,5.02,.43,7.32,1.21l90.06-123.84c-2.83-3.78-4.51-8.48-4.51-13.58,0-12.52,10.16-22.68,22.68-22.68s22.67,10.16,22.67,22.68c0,1.94-.24,3.82-.7,5.62l78.79,48.34c4-3.51,9.23-5.63,14.96-5.63,12.52,0,22.68,10.15,22.68,22.68s-10.16,22.68-22.68,22.68-22.68-10.15-22.68-22.68c0-1.94,.24-3.82,.7-5.62l-78.79-48.34c-4,3.51-9.22,5.63-14.96,5.63-2.56,0-5.02-.42-7.32-1.2l-90.06,123.84c2.83,3.78,4.51,8.48,4.51,13.57,0,12.52-10.16,22.68-22.68,22.68s-22.68-10.16-22.68-22.68c0-3.75,.91-7.28,2.52-10.4l-84.98-83.46c-3.2,1.73-6.87,2.71-10.76,2.71-2.71,0-5.31-.47-7.72-1.35l-89.58,118.41c2.68,3.72,4.25,8.29,4.25,13.22,0,12.52-10.15,22.68-22.67,22.68s-22.68-10.16-22.68-22.68c0-.74,.04-1.47,.1-2.19l-75.78-31.84c-4.16,4.95-10.4,8.09-17.36,8.09-6.23,0-11.88-2.51-15.97-6.58l-193.2,102.94c.27,1.38,.4,2.82,.4,4.28,0,12.52-10.15,22.68-22.67,22.68s-22.68-10.15-22.68-22.68,10.16-22.68,22.68-22.68c6.23,0,11.87,2.51,15.97,6.58Z" style="fill:#c4d1eb; fill-rule:evenodd;"/><path d="M665.51,789.99h75.89v144.67h-75.89v-144.67h0Zm810.05-212.7h75.89v357.37h-75.89v-357.37h0Zm-115.72-53.91h75.89v411.28h-75.89v-411.28h0Zm-115.72,175.84h75.89v235.44h-75.89v-235.44h0Zm-115.72-127.58h75.89v363.02h-75.89v-363.02h0Zm-115.72,147.52h75.89v215.5h-75.89v-215.5h0Zm-115.72-55.24h75.89v270.74h-75.89v-270.74h0Zm-115.72,79.34h75.89v191.4h-75.89v-191.4Z" style="fill:#c4d1eb; fill-rule:evenodd;"/><rect x="1754.12" y="415.31" width="93.04" height="32.15" style="fill:#b0c2e4;"/><path d="M1754.96,397.42c-5.61-2.62-9.31-7.45-9.31-14.72v-2.27c-1.1-62.95-56.42-80.6-60.89-150.24-.34-5.22-.29-10.33,.11-15.3,8.66-52.82,58.87-88.29,115.27-88.29,64.28,0,120.5,46.05,116.38,111.36-4.26,67.56-56.96,84.69-58.01,145.76,0,6.61-7.07,14.24-13.09,13.7h-90.47Z" style="fill:#c4d1eb; fill-rule:evenodd;"/><path d="M1850.51,454.88c-.69,7.07-6.71,12.64-13.94,12.64h-10.73l-4.18,6.82c-2.39,3.92-3.81,4.18-8.41,4.18h-25.22c-4.6,0-6.01-.24-8.41-4.18l-4.18-6.82h-10.73c-7.14,0-13.09-5.42-13.91-12.36v-4.91c.38-1.6,1.82-2.8,3.53-2.8h92.61c1.72,0,3.18,1.22,3.55,2.83,.03,.15-.06,.45,.02,.51v4.08h0Zm-94.86-32.22h89.99c2.72,0,4.94,2.22,4.94,4.94v7.67c0,2.72-2.22,4.94-4.94,4.94h-89.99c-2.72,0-4.94-2.22-4.94-4.94v-7.67c0-2.72,2.22-4.94,4.94-4.94h0Zm.2-25.24h89.59c2.82,0,5.14,2.32,5.14,5.14v7.98c0,2.83-2.32,5.14-5.14,5.14h-89.59c-2.83,0-5.14-2.32-5.14-5.14v-7.98c0-2.83,2.32-5.14,5.14-5.14Z" style="fill:#9db2d9; fill-rule:evenodd;"/><path d="M1786.42,397.42l-9.53-115.24h-13.81c-5.96,0-11.38-2.44-15.3-6.36h.01c-3.93-3.94-6.37-9.36-6.37-15.3s2.43-11.38,6.36-15.3c3.92-3.92,9.34-6.36,15.3-6.36s10.99,2.35,14.79,6.16c3.86,3.86,6.34,9.22,6.85,15.08l1.08,12.35h42.23l1.08-12.35c.51-5.85,3-11.22,6.86-15.08,3.8-3.8,8.9-6.16,14.78-6.16s11.36,2.44,15.29,6.37h0c3.92,3.91,6.36,9.33,6.36,15.29s-2.43,11.38-6.36,15.3c-3.92,3.92-9.34,6.36-15.3,6.36h-13.8l-9.53,115.24h-9.72l9.48-115.24h-40.53l9.48,115.24h-9.71Zm-10.38-124.97l-1.01-11.51c-.31-3.56-1.77-6.78-4.04-9.04-2.04-2.04-4.77-3.31-7.91-3.31s-6.25,1.34-8.42,3.51c-2.17,2.16-3.51,5.14-3.51,8.42s1.34,6.27,3.5,8.42h.02c2.17,2.16,5.14,3.51,8.42,3.51h12.96Zm61.75,0h12.96c3.28,0,6.26-1.35,8.42-3.51,2.16-2.16,3.5-5.14,3.5-8.42s-1.34-6.26-3.5-8.42v-.02c-2.15-2.15-5.14-3.49-8.42-3.49s-5.86,1.26-7.91,3.31c-2.27,2.27-3.74,5.49-4.05,9.04l-1.01,11.51Z" style="fill:#fff; fill-rule:evenodd;"/><path d="M316.62,747.94c-40.62,37.08-22.96,74.18,7.06,143.06,30.02,68.88,35.31,323.23,35.31,323.23l-24.71-3.53s3.55-261.41-30.02-332.06c-33.56-70.65-47.71-105.97-77.73-83-30.02,22.96,90.08-47.69,90.08-47.69Z" style="fill:#b0c2e4; fill-rule:evenodd;"/><path d="M338.92,699.92c-4.92-21.99-34.22-45.76-73.4-65.95,5.85,32.42,24.48,85.43,5.19,96.31-26.08,14.66-2.54-59.36-12.59-100.03-36.8-17.97-81.08-32.65-121.82-39.96,.08,.16,.12,.3,.16,.46,22.97,58.29,52.98,81.25,40.62,90.07-9.27,6.64-39.56-60.68-79.6-95.19-30.02-1.6-55.43,2.46-70.44,14.37-23.24,18.39-38.83,34.7-15.47,90.7,13.33,9.53,30.64,16.37,50.71,18.39,52.97,5.3,77.73,7.06,40.62,24.73-18.17,8.65-48.57-.49-73.29-6.06,7.99,14.75,17.85,31.46,29.82,50.48,7.6,12.07,15.95,22.54,24.83,31.6,17.08,3.28,31.97,3.31,39.84-.06,24.71-10.6,88.29-44.17,104.2-30.03,15.55,13.83-117.76,22.59-108.53,57.73,64.63,37.23,138.58,19.51,151.64-14.67,17.58-45.91,82.37-56.72,67.51-122.88Z" style="fill:#c4d1eb; fill-rule:evenodd;"/><path d="M205.33,951.06c70.67-52.99,143.06-3.55,180.17,52.98,37.07,56.51,10.6,183.68,10.6,183.68,0,0-14.14,0-14.14-5.29s38.86-150.13-52.98-215.49c-57.46-40.87-98.9-21.18-104.2-1.76-5.3,19.43,22.96,54.76,22.96,54.76l-42.41-68.88Z" style="fill:#b0c2e4; fill-rule:evenodd;"/><path d="M367.84,842.14c-70.68,0-93.64,109.51-74.18,173.09,19.41,63.6,45.92,181.93,45.92,181.93l17.66-17.66s-67.13-166.02-51.22-240.21c15.91-74.18,54.73-86.54,61.83-86.54s0-10.6,0-10.6Z" style="fill:#b0c2e4; fill-rule:evenodd;"/><path d="M308.59,1015.73c-4.99-6.59-11.11-12.02-18.59-15.64,.97,5.28,2.19,10.34,3.66,15.14,8.85,28.98,19.14,69.31,27.8,104.64,.74-4.51,1.98-11.49,3.81-22.25,.47-2.54,.78-5.31,1.05-8.22-6.94-23.54-13.48-49.18-17.73-73.67Z" style="fill:#b0c2e4; fill-rule:evenodd;"/><path d="M289.26,1016.26c-134.22-56.53-63.51-134.09-181.85-82.86-8.34,3.6-18.48,12.7-28.65,25.25,10.52,2.98,23.27,5.14,37.5,3.01,35.31-5.31,22.96,22.96-35.36,30.03-10.95,1.33-19.88,3.17-27.28,5.76-27.79,53.34-40.31,123.51,18.48,147.9,11.58,4.82,25.88,7.56,41.83,8.59,18.13-14.41-4.44-97.81,23.55-86.3,26.81,11.06-8.46,71.5-3.63,86.72,26.51-.47,55.86-4.81,83.84-11.75,11.11-6.22,19.61-14.56,22.18-25.51,8.85-37.1-49.43-60.06-51.22-91.85-1.6-29.22,21.4,64.31,82.26,78.08,55.08-25.72,81.12-60.63,18.36-87.06Z" style="fill:#c4d1eb; fill-rule:evenodd;"/><path d="M384.91,916.33c-14.15-30.02,22.97-37.1,21.17-14.14-1.52,20.36-1.71,69.82,19.14,83.29,35.98-3.91,84.94-18.41,121.97-40.51,.47-2.99,0-6.06-1.56-9.2-15.9-31.8-118.35-58.29-86.54-68.88,25.3-8.45,69.7,41.37,105.45,66.46,21.48-16.3,35.87-35.72,35.87-57.38,0-29.35-35.67-62.57-81.79-78.45-20.73,2.1-40.03,13.44-70.12,30.51-44.48,25.2-34.19-15.55,7.87-39.73-36.33,1.88-72.51,17.39-99.21,54.44,0,0,2.54,15.84-14.23,40.35-45.72,66.83,7.06,105.84,70.13,103.31-3.59-17.61-18.4-49.32-28.15-70.06Z" style="fill:#c4d1eb; fill-rule:evenodd;"/><path d="M209.58,948.06c-34.54,26.69-72.9,57.9-119.99,79.09-47.12,21.2-37.69,90.29-37.69,90.29,0,0-7.06-59.66,32.2-80.08,39.26-20.4,65.14-44.74,94.95-49.45,29.87-4.72,46.35-9.42,46.35-9.42,0,0-9.43-18.85-3.94-25.91,5.5-7.06-11.89-4.52-11.89-4.52Z" style="fill:#b0c2e4; fill-rule:evenodd;"/><path d="M39.34,634.64c126.38,33.75,219,114.62,236.31,134.25,17.27,19.61,17.27,25.11,17.27,25.11l-13.37,25.12-6.28-3.15s10.21-21.19-16.49-48.67c-46.04-47.39-102.06-84.79-140.53-101.27-38.47-16.49-76.91-31.4-76.91-31.4Z" style="fill:#b0c2e4; fill-rule:evenodd;"/><path d="M388.23,1334.24h-48.3c-34.34,0-62.18-27.84-62.18-62.18v-110.94h172.65v110.94c0,34.34-27.84,62.18-62.17,62.18Z" style="fill:#9db2d9; fill-rule:evenodd;"/><rect x="277.76" y="1180.96" width="172.65" height="12.15" style="fill:#fff;"/><rect x="277.76" y="1203.11" width="172.65" height="7.15" style="fill:#fff;"/><path d="M1705.76,1138.11s-30.9-36.05-1.9-58.94c0,0,21.16-12.82,38.41-11.78,0,0-24.45,41.02-16.54,45.1,7.91,4.08,23.96-47.67,23.96-47.67,0,0,48.19-4.67,63.7,2.78,0,0-41.2,33.71-32.51,35.72,8.64,2.01,53.17-31.09,53.17-31.09,0,0,44.83,7.65,42.44,35-2.39,27.35-17.85,35.79-24.66,35.07-6.76-.73-46.49-15.9-47.38-10.32-.85,5.56,23.06,23.74,39.79,24.6,0,0-31.61,34.86-52.6,24.8-21.02-10.07-22.82-26.02-35.9-32-13.11-5.98-24.3-5.97-18.87,.13,5.39,6.1,29.1,12.04,36.58,25.29,7.49,13.23,14.22,22.18-7.55,18.9-21.71-3.27-57.06-19.17-58.63-37.38l-1.53-18.21Z" style="fill:#b0c2e4; fill-rule:evenodd;"/><path d="M1854.46,1107.97s-121.8-4.69-148.7,30.15c0,0-5.95,17.81-24.23,34.02l-2.88,7.78s21.09-22.25,28.64-23.59c0,0-11.8-43.15,147.17-48.36Z" style="fill:#9db2d9; fill-rule:evenodd;"/><path d="M1681.53,1172.14s-26.16,19.34-27.99,53.89l4.74,.42s8.37-35.72,23.45-49.69c15.11-13.97-.19-4.62-.19-4.62Z" style="fill:#9db2d9; fill-rule:evenodd;"/><path d="M1597.76,1092.78s49.14-27.52,26.22-64.88c0,0-18.38-22.92-38.03-28.82,0,0,10.49,55.7,0,57-10.47,1.3-7.22-62.89-7.22-62.89,0,0-51.76-24.91-72.07-22.93,0,0,32.11,54.38,21.65,53.06-10.5-1.3-46.53-56.35-46.53-56.35,0,0-53.06-9.81-61.6,21.63-8.5,31.45,5.27,47.17,13.11,49.13,7.85,1.97,58.33,1.32,57.03,7.87-1.34,6.55-35.41,17.02-54.41,11.14,0,0,20.96,51.76,48.49,49.13,27.53-2.62,36.03-19.65,53.06-20.96,17.04-1.31,29.49,3.28,20.99,7.87-8.54,4.59-37.37,1.5-51.14,13.21-13.73,11.69-24.88,18.91,.69,24.13,25.53,5.25,71.41,1.98,80.56-17.69l9.19-19.65Z" style="fill:#c4d1eb; fill-rule:evenodd;"/><path d="M1444.44,998.43s137.59,44.56,153.32,94.36c0,0-.66,22.28,13.08,47.83v9.82s-14.38-33.41-22.26-38c0,0,30.8-43.25-144.13-114.01Z" style="fill:#b0c2e4; fill-rule:evenodd;"/><path d="M1610.83,1140.62s21.25,32.21,9.16,71.44l-5.46-1.47s5.29-43.19-5.82-64.92c-11.08-21.73,2.13-5.05,2.13-5.05Z" style="fill:#b0c2e4; fill-rule:evenodd;"/><path d="M1675.94,1054.83s-64.78-36.27-34.56-85.5c0,0,24.19-30.24,50.09-38.01,0,0-13.79,73.42,0,75.13,13.83,1.75,9.51-82.9,9.51-82.9,0,0,68.24-32.83,95.02-30.24,0,0-42.34,71.69-28.51,69.95,13.79-1.72,61.3-74.27,61.3-74.27,0,0,69.97-12.95,81.19,28.51,11.22,41.44-6.9,62.18-17.26,64.77-10.36,2.59-76.87,1.72-75.14,10.36,1.7,8.65,46.62,22.45,71.67,14.69,0,0-27.63,68.23-63.9,64.77-36.29-3.45-47.5-25.9-69.97-27.63-22.46-1.74-38.87,4.31-27.63,10.36,11.22,6.04,49.21,1.98,67.36,17.4,18.15,15.41,32.82,24.92-.89,31.82-33.67,6.91-94.13,2.59-106.23-23.31l-12.06-25.92Z" style="fill:#c4d1eb; fill-rule:evenodd;"/><path d="M1878.03,930.47s-181.37,58.72-202.1,124.36c0,0,.85,29.36-17.3,63.05v12.95s19.04-44.04,29.37-50.08c0,0-40.57-57,190.03-150.28Z" style="fill:#b0c2e4; fill-rule:evenodd;"/><path d="M1658.63,1117.88s-27.95,42.48-12,94.18l7.2-1.94s-7-56.94,7.65-85.58c14.62-28.64-2.85-6.65-2.85-6.65Z" style="fill:#b0c2e4; fill-rule:evenodd;"/><path d="M1721.22,1314.98c46.56-18.8,79.42-64.4,79.42-117.69h-253.79c0,53.29,32.86,98.9,79.41,117.69h94.96Z" style="fill:#9db2d9; fill-rule:evenodd;"/><path d="M1641.72,1314.98c-46.56-18.8-79.4-64.4-79.4-117.69h31.55c0,53.29,32.83,98.9,79.38,117.69h-31.53Z" style="fill:#b0c2e4; fill-rule:evenodd;"/><rect x="1542.7" y="1197.29" width="260.83" height="3.9" style="fill:#9db2d9;"/><path d="M2111.84,493.17c15.86-23.23-18.44-29.19-18.11-54.61,.22-17.52-10.74-35.78-7.45-53.26,6.73-35.75-7.23-46.6-7.31-49.32-.83-27.09-17.04-27.79-33.18-36.93-28.63-16.21-53.53,3.62-61.65,4.15-41.38,2.71-18.46,20.49-36.99,36.52-15.25,13.2-8.04,23.22-6.47,31.15,.71,3.57,4.03,18.29-6.54,25.74-15.48,10.92,.38,40.06-8.75,42.83-35.17,10.66-21.01,15.04-20.06,39.62,.3,7.86,7.88,13.82,12.83,19.59,60.56-18.96,102.22,56.39,193.68-5.49Z" style="fill:#20386f; fill-rule:evenodd;"/><path d="M2057.96,460.55c-1.78-4.17-6.56-6.76-8.18-8.07-17.52,9.48-36.11,15.33-55.58,15.48,.7,11.14,2.34,22.85,4.57,35.36,32.21-25.05,51.94-39.31,59.2-42.77Z" style="fill:#fff; fill-rule:evenodd;"/><path d="M1980.36,459.13c-4.75,10-7.96,19.35-9.64,28.04,5.1-9.2,10.82-14.82,23.48-19.21-4.04-4.25-3.72-9.77-5.34-14.21-4.55,2.8-7.39,4.6-8.5,5.38Z" style="fill:#fff; fill-rule:evenodd;"/><path d="M1966.57,459.22c-48.66,123.68-7.64,114.08,97.76,2.68,6.17,1.47,11.83,3.28,16.97,5.43-13.68,12.65-18.8,33.81-15.34,63.47,2.07,22.97,4.35,45.3,6.82,66.99-6.01,13.54-9.07,27.39-9.6,42.33-.45,13.05,1.04,26.93,4.2,42.17,4.97,23.89,14.09,51.09,26.35,83.62-73.79,25.13-136.96,25.42-189.49,.85,30.47-66.98,26.41-87.75,22.95-132.56-3.44-72.74-47.77-49.89,25.93-172.22,5.05-1.57,9.45-2.38,13.46-2.76Z" style="fill:#466fb5; fill-rule:evenodd;"/><path d="M1994.2,467.96c.7,11.14,2.34,22.85,4.57,35.36,32.21-25.05,51.94-39.31,59.2-42.77,2.18,.41,4.31,.86,6.37,1.35-105.4,111.4-146.42,121-97.76-2.68,5.07-.48,9.49-.28,13.78-.09-4.75,10-7.96,19.35-9.64,28.04,5.1-9.2,10.82-14.82,23.48-19.21Z" style="fill:#6d96ce; fill-rule:evenodd;"/><path d="M2021.76,641.26c20.04,.06,38.73-.7,56.09-2.26-4.53-34.32-8.49-70.39-11.89-108.2-3.46-29.66,1.66-50.82,15.34-63.47,18.22,7.65,29.82,19.65,34.77,35.99,10.77,34.76,9.45,164.2-2.26,175.9-14.79,6.48-46.04,5.16-93.75-3.97,3.31-9.72,3.88-21.05,1.71-33.99Z" style="fill:#6d96ce; fill-rule:evenodd;"/><path d="M2009.67,646.1c2.71,.3,7,.58,12.87,.82,.93,8.54,.57,16.33-1.07,23.36-5.1-.94-11.59-2.3-19.44-4.07-13.96,3.58-30.77,3.4-50.42-.56-13.67-5.25-17.82-14.88-12.46-28.89,21.37,2.49,34.17,1.69,38.38-2.41-7.47-3.8-10.11-8.19-7.93-13.17,21.01,7.7,34.37,16.01,40.08,24.93Z" style="fill:#f9af79; fill-rule:evenodd;"/><path d="M1937.17,607.44l-149.56-22.66,32.3,64.58,149.84,23.51-2.39-4.8c-5.03-.52-10.28-1.33-15.75-2.43-13.67-5.25-17.82-14.88-12.46-28.89,4.84,.56,9.25,.96,13.21,1.19l-15.18-30.5Z" style="fill:#c4d1eb; fill-rule:evenodd;"/><path d="M1939.17,624.34l6.57,13.1h0c-2.1-.19-4.29-.42-6.6-.69-4.65,12.16-2.13,21.02,7.56,26.58l-122.96-19.23-12.56-25.12c17.21,5.96,34.7,9.73,52.5,11.31,3.64,4.21,9.29,7.29,13.89,7.29,4.27,0,6.38-2.67,5.66-6.43,18.33,0,36.98-2.28,55.93-6.83Z" style="fill:#9db2d9; fill-rule:evenodd;"/><path d="M1986.33,668.59l-16.58,4.28-2.39-4.8c6.72,.69,13.04,.86,18.98,.51Z" style="fill:#859ac6; fill-rule:evenodd;"/><path d="M1969.75,672.87l16.58-4.28c5.58-.33,10.81-1.13,15.7-2.38,5.26,1.19,9.92,2.19,13.94,3l-41.41,13.57-40.86-6.95-114.08-19.4,.29-7.08,109.53,17.19h0s40.31,6.32,40.31,6.32Z" style="fill:#859ac6; fill-rule:evenodd;"/><path d="M1900.69,601.91c5.8-5.45,10.7-11.84,14.72-19.17,2.35,6.59,5.21,13.59,7.55,22.54l-22.27-3.38Z" style="fill:#6d96ce; fill-rule:evenodd;"/><path d="M1953.12,461.98c-17.3,28.71-28.1,49.42-34.45,65.25-6.26-49.1,2.71-60.15,34.45-65.25Z" style="fill:#6d96ce; fill-rule:evenodd;"/><path d="M2082.07,769.69c17.42,35.94,22.32,114.05,14.7,234.34-95.67,12.95-164.59,11.63-206.78-3.96,3.44-109.85,11.17-186.32,23.24-229.39,47.85,19.37,104.12,19.04,168.83-.99Z" style="fill:#0e2952; fill-rule:evenodd;"/><path d="M2049.78,452.48c-17.52,9.48-36.11,15.33-55.58,15.48-3.55-3.74-3.74-8.47-4.83-12.57-.06-.23-.12-.45-.19-.68,2.98-4.07,5-7.13,3.2-14.24-.03-.11-.06-.21-.09-.32-21.09-7.08-34.2-42.57-25.63-63.43-.43-6.98-1.1-14.22-2.01-21.71,31.26,9.07,50.89,8.57,73.78-7.53,4.01,10.42,6,16.35,3.62,27.34-.52,3.8-2.46,11.91,2.62,12.67,2.35-13.2,7.15-20.49,16.06-17.34,7.94,12.71,3.2,28.71-15.86,32.02-5.6,11.56-8.02,19.47-7.24,23.73-.61,7.21,5.71,16.92,10.46,24.02,.6,.9,1.18,1.77,1.71,2.58Z" style="fill:#f9af79; fill-rule:evenodd;"/><path d="M1992.17,439.73c12.78,1.44,18.57,1.35,30.39-3.36-6.93,7.47-17.71,11.93-30.09,12.65,.66-3.11,.54-6.13-.3-9.29Z" style="fill:#ed7d57; fill-rule:evenodd;"/><path d="M1904.4,1111.2c-2.46-33.89-3.92-69.84-4.38-107.84,21.05,6.12,47.62,9.28,79.75,9.48-7.72,32.55-19.42,68.15-25.51,103.29,32.39,87.85-12.21,160.44-5.88,217.89-8.83,14.09-23.48,45.91-45.59,57.59-7.37-1.92-1.84-8.63-4.29-12.45,11.39-11.85,18.52-30.42,21.39-55.7,2.63-60.1-2.53-130.85-15.49-212.25Z" style="fill:#f9af79; fill-rule:evenodd;"/><path d="M2024.85,1098.63c-6.67-27.8-18.78-55.79-27.6-85.96,23.59-.58,49.84-2.58,78.73-5.99-.47,28.51-.84,58.25-1.1,89.25,45.36,80.21,14.98,173.92,27.11,214.23-8.83,20.96-11.19,47.22-30.84,62.66-7.25-.56-3.49-7.64-6.21-10.96,6.17-13.92,9.55-31.49,10.12-52.73-6.96-60.48-23.71-130.64-50.22-210.49Z" style="fill:#f9af79; fill-rule:evenodd;"/><path d="M1891.32,1376.49c15.54,.81,1.36,12.48,11.47,15.12,22.12-11.69,34.36-43.54,43.19-57.62,4.64-7.39,8.01,2.02,10.3,12.56,3.65,16.79-.96,10.93-3.02,24.33-.51,3.35,3.81,21.32,4.51,31.33,.29,3.94-1.88,5.47-2.28,6.15-4.04-6.81-7.52-27.76-11.2-40.57-21.69,18.65-16.96,39.22-29.83,46.23-30.87,3.3-47.56,4.12-71,4.62-5.15-19.25,35.62-12.75,47.86-42.14Z" style="fill:#0e2952; fill-rule:evenodd;"/><path d="M2057.44,1360.33c14.98-1.87,3.57,11.7,13.71,12.49,18.99-14.94,24.87-47.45,30.73-62.38,3.09-7.86,8.02,.56,12.13,10.23,6.55,15.41,1.08,10.59,1.55,23.75,.12,3.28,7.54,19.72,10.03,29.15,.99,3.72-.8,5.55-1.06,6.26-5.1-5.81-12.25-25.24-18.1-36.84-17.32,21.51-9.04,40.35-20.06,49.24-28.87,8.41-44.67,12.04-66.97,16.51-8.43-17.52,31.69-18.26,38.03-48.41Z" style="fill:#0e2952; fill-rule:evenodd;"/><path d="M1868.01,621.05c-3.59,0-4.82,2.91-2.74,6.5,2.07,3.59,6.65,6.49,10.25,6.49s4.81-2.91,2.74-6.49c-2.08-3.59-6.66-6.5-10.25-6.5Z" style="fill:#9db2d9; fill-rule:evenodd;"/><polygon points="645.7 157.46 504.96 215.16 543.6 264.52 645.7 157.46" style="fill:#c4d1eb; fill-rule:evenodd;"/><polygon points="485.1 191.9 641.4 157.78 446.82 171.99 485.1 191.9" style="fill:#c4d1eb; fill-rule:evenodd;"/><polygon points="485.1 191.9 488.76 256.7 504.96 215.16 645.7 157.46 641.4 157.78 485.1 191.9" style="fill:#9db2d9; fill-rule:evenodd;"/><polygon points="488.76 256.7 522.08 237.03 504.96 215.16 488.76 256.7" style="fill:#859ac6; fill-rule:evenodd;"/><path d="M463.26,225.55c3.29-.41,4.06,4.72,.56,5.16l-5.14,.6c-3.35,.42-4.04-4.72-.61-5.16l5.18-.61h0ZM169.66,558.01c-3.09-1.77-.84-6.01,2.24-4.68,1.54,.72,3.05,1.42,4.61,2.1,3.16,1.36,1.11,6.13-2.03,4.78l-4.83-2.2h0Zm19.78,7.58c-3.12-.78-2.1-5.87,1.42-4.99,1.63,.45,3.25,.88,4.9,1.28,3.42,.85,2.04,5.86-1.17,5.05-1.74-.41-3.42-.87-5.14-1.34h0Zm20.94,3.77c-3.4-.42-3.16-5.18,.33-5.18,1.69,.11,3.35,.18,5.04,.2,3.39,0,3.42,5.19-.03,5.19-1.75-.11-3.55-.11-5.34-.22h0Zm21.32-1.11c-3.43,.43-4.31-4.27-.95-5.1,1.65-.29,3.28-.67,4.92-1.06,3.33-.83,4.58,4.21,1.26,5.03-1.73,.43-3.48,.83-5.23,1.13h0Zm20.35-6.68c-2.64,1.51-5.62-2.76-2.31-4.65,1.51-.73,2.96-1.54,4.42-2.36,3.04-1.73,5.52,2.82,2.63,4.48-1.54,.9-3.14,1.77-4.73,2.54h0Zm17.72-12.01c-2.81,2.35-5.91-1.83-3.47-3.86,1.2-1.07,2.54-2.29,3.63-3.47,2.48-2.49,6.08,1.26,3.72,3.62-1.27,1.27-2.54,2.51-3.88,3.71h0Zm14-16.12c-1.91,2.68-6.1,.24-4.3-2.9,.95-1.4,1.85-2.81,2.72-4.26,1.63-2.85,6.22-.42,4.45,2.67-.91,1.53-1.87,3.02-2.87,4.49h0Zm9.93-18.83c-1.16,3.09-6.07,1.41-4.83-1.9,.63-1.58,1.22-3.16,1.78-4.76,1.26-3.36,6.05-1.35,4.91,1.69-.59,1.67-1.2,3.32-1.85,4.97h0Zm6.31-20.14c-.84,3.35-5.87,2.06-5.05-1.23l1.18-5c.87-3.48,5.86-2.03,5.07,1.12l-1.21,5.11h0Zm4.3-20.46c-.38,3.03-5.58,2.83-5.1-.94l.92-5.09c.38-3.06,5.58-2.82,5.11,.91l-.93,5.12h0Zm3.65-20.45c-.38,3.04-5.58,2.83-5.11-.93l.96-5.13c.82-3.27,5.54-2.54,5.1,.98l-.95,5.08h0Zm4.19-20.17c-.84,3.33-5.87,2.06-5.04-1.25,.41-1.7,.84-3.41,1.31-5.1,.79-3.16,5.88-2.09,5.01,1.38-.49,1.55-.89,3.37-1.28,4.96h0Zm5.16-18.31c-1.83,1.35-4.94-.4-3.93-3.09,.43-1.1,.89-2.19,1.36-3.26-.23-1.28,.58-2.32,1.63-2.74,1.77-1.16,4.76,.42,3.93,2.99,.4,1.1,.8,2.21,1.25,3.3,1.06,2.83-2.47,4.64-4.24,2.81h0Zm10.42-18.8c-2.3,2.75-6.1-.4-4.18-3.09,1.06-1.45,2.2-2.88,3.38-4.22,2.08-2.5,6.2,.67,3.9,3.42-1.09,1.25-2.12,2.55-3.1,3.89h0Zm14.22-13.68c-3.29,1.88-5.48-2.84-2.82-4.36,1.52-1,3.04-1.91,4.63-2.79,2.81-1.6,5.58,2.79,2.45,4.58-1.47,.79-2.87,1.65-4.26,2.56h0Zm18.14-8.08c-3.42,.86-4.54-4.21-1.32-5.01,1.73-.47,3.45-.88,5.2-1.25,3.02-.75,4.64,4.19,1.02,5.09-1.64,.34-3.28,.74-4.9,1.17h0Zm19.99-3.19c-3.04,.38-4.11-4.71-.36-5.18,1.76-.13,3.52-.21,5.28-.27,3.62,0,3.39,5.19,.16,5.19-1.7,.06-3.39,.15-5.08,.26h0Zm20.2,.4c-3.33-.41-2.77-5.58,.69-5.14,1.78,.23,3.52,.5,5.27,.83,3.27,.82,2.54,5.54-.99,5.09-1.66-.31-3.31-.57-4.98-.78h0Zm19.25,5.2c-3.02-1.29-1.13-6.13,2.14-4.73,1.7,.77,3.24,1.6,4.87,2.48,2.9,1.66,.41,6.21-2.63,4.48l2.63-4.48-2.63,4.48c-1.44-.81-2.87-1.54-4.38-2.22h0Zm15.77,11.44c-2.26-2.71,1.81-5.94,3.93-3.39,1.2,1.36,2.35,2.88,3.35,4.39,1.9,3.32-2.83,5.48-4.34,2.85-.89-1.33-1.88-2.65-2.94-3.85h0Zm8.48,17.21c-.43-3.47,4.27-4.29,5.1-.96,.36,1.82,.59,3.62,.72,5.47,0,3.46-4.75,3.76-5.18,.31-.12-1.63-.32-3.21-.64-4.82h0Zm-1.07,19.27c.73-2.95,5.88-2.14,4.95,1.55-.55,1.76-1.16,3.43-1.89,5.13-1.33,3.11-6.12,1.11-4.75-2.07,.65-1.53,1.2-3.02,1.69-4.61h0Zm-9.59,17.01c2.06-2.48,6.19,.67,3.88,3.44-1.19,1.35-2.47,2.69-3.78,3.92-2.7,2.25-5.93-1.41-3.54-3.8,1.2-1.12,2.36-2.33,3.44-3.55h0Zm-15.51,12.23c2.83-1.62,5.57,2.79,2.46,4.57-1.59,.85-3.2,1.66-4.84,2.39-3.21,1.38-5.16-3.43-2.09-4.75,1.52-.68,3-1.42,4.47-2.21h0Zm-18.69,7c3.07-.77,4.62,4.19,1.06,5.08-1.76,.38-3.52,.72-5.29,.99-3.44,.43-4.03-4.73-.67-5.15,1.66-.29,3.25-.56,4.91-.92h0Zm-19.83,1.29c3.52,.44,2.73,5.57-.54,5.16-1.76-.15-3.66-.45-5.39-.8-3.58-.89-2.01-5.85,1.04-5.08,1.58,.31,3.29,.58,4.88,.72h0Zm-19.02-5.4c3.07,1.75,.85,6-2.26,4.67-1.62-.77-3.23-1.64-4.79-2.55-2.86-1.63-.4-6.21,2.67-4.46,1.4,.83,2.91,1.64,4.38,2.33h0Zm-16.38-11.31c2.56,2.56-1.28,6.06-3.56,3.78-1.3-1.22-2.6-2.5-3.81-3.8-2.39-2.86,1.83-5.91,3.83-3.51,1.12,1.21,2.34,2.4,3.55,3.52h0Zm-12.87-15.43c1.88,3.28-2.83,5.48-4.36,2.82-.97-1.49-1.89-3-2.79-4.53-1.72-3.01,2.82-5.54,4.49-2.6,.85,1.46,1.73,2.9,2.65,4.31h0Zm-15.07-37.39c.75,3.02-4.19,4.63-5.09,1.01-.36-1.73-.68-3.47-.97-5.22-.45-3.58,4.72-4,5.12-.79,.32,1.67,.59,3.32,.93,4.99h0Zm-2.48-20.17c0,3.63-5.19,3.38-5.19,.16-.06-1.76-.1-3.51-.11-5.28,0-3.4,5.19-3.42,5.19,.01,0,1.7,.05,3.39,.11,5.1h0Zm.79-20.32c-.42,3.39-5.58,2.75-5.15-.65,.21-1.75,.45-3.51,.74-5.26,.39-3.1,5.58-2.81,5.12,.88-.32,1.58-.51,3.4-.71,5.02h0Zm4.05-19.92c-.77,3.05-5.88,2.12-4.98-1.48,.49-1.69,1.02-3.37,1.57-5.04,1.28-3.42,6.04-1.34,4.92,1.65-.52,1.62-1.04,3.23-1.5,4.87h0Zm7.21-18.98c-1.89,3.32-6.16,.33-4.66-2.29,.77-1.59,1.55-3.17,2.38-4.72,1.77-3.11,6.19-.37,4.57,2.46-.8,1.5-1.55,3.02-2.29,4.55h0Zm10.24-17.55c-1.98,2.77-6.21-.23-4.22-3.02,1.02-1.44,2.05-2.87,3.12-4.27,2.34-2.81,6.15,.73,4.11,3.18-1.03,1.35-2.02,2.72-3,4.11h0Zm12.96-15.68c-2.46,2.47-6.08-1.26-3.7-3.64,1.23-1.27,2.48-2.5,3.76-3.72,2.29-2.29,6.12,1.23,3.57,3.77-1.23,1.18-2.44,2.36-3.62,3.59h0Zm15.24-13.49c-2.37,1.98-5.99-1.75-3.11-4.15,1.4-1.06,2.83-2.11,4.27-3.12,2.71-1.94,5.81,2.22,2.96,4.26-1.39,.98-2.76,1.98-4.11,3.01h0Zm17.05-11.2c-2.91,1.66-5.56-2.81-2.52-4.54,1.52-.87,3.07-1.72,4.63-2.53,2.71-1.55,5.6,2.78,2.37,4.62-1.5,.77-3,1.62-4.48,2.45h0Zm18.38-8.98c-3.07,1.31-5.21-3.41-1.98-4.8,1.62-.68,3.26-1.34,4.9-1.97,3.2-1.2,5.03,3.66,1.82,4.86-1.58,.59-3.18,1.25-4.73,1.9h0Zm19.28-6.88c-3.55,.89-4.53-4.21-1.45-4.98l5.04-1.45c3.44-.86,4.54,4.22,1.35,5.01l-4.94,1.42h0Zm19.92-5.01c-3.05,.76-4.63-4.19-1.03-5.09,1.71-.36,3.42-.68,5.14-1,3.77-.47,3.96,4.72,.94,5.1-1.69,.32-3.37,.64-5.05,.99Z" style="fill:#859ac6; fill-rule:evenodd;"/><path d="M879.84,1431.08c292.65,0,529.88,21.4,529.88,47.79s-237.23,47.78-529.88,47.78-529.89-21.39-529.89-47.78,237.24-47.79,529.89-47.79Z" style="fill:#c4d1eb; fill-rule:evenodd;"/><path d="M518.99,765.13c1.75-6.25,3.35-12.82,4.62-16.66,55.77-3.22,51.63-17.34,50.18-23.72-8.41-30.54-13.41-49.8-4.62-57.94,3.92,2.31,12.15,7.58,14.34,20.88,3.66-1.77,8.33-4.14,9.27-8.04,2.39-11.68,4.24-36.32,17.94-37.14,1.68,11.05,3,22.74,3.96,35.07,7.17,6.89,5.68,31.84-1.66,60.47,3.01,16.44-7.29,25.15-30.89,26.14l.4,5.06c-21.1-4.64-45.5-5.83-63.53-4.12Z" style="fill:#f9af79; fill-rule:evenodd;"/><path d="M573.78,724.75c1.45,6.38,5.6,20.49-50.17,23.72-24.26-5.99-44.19-28.23-46.86-37.73-27.23-56.66,4.99-79.65,22.15-87.92,8.68-55.35,88.23-4.55,129.19-30.44,15.57,22.52-4.87,49.9-17.39,50.12-13.7,.82-15.55,25.45-17.94,37.14-.93,3.9-5.61,6.27-9.27,8.04-2.19-13.29-10.42-18.57-14.34-20.88-8.78,8.14-3.78,27.4,4.62,57.94Z" style="fill:#20386f; fill-rule:evenodd;"/><path d="M1038.87,982.3h-280.41c-14.44,0-21.97-9.31-21.97-24.98h316.57c3.05,.01,7.24,1.71,4.33,11.04-2.52,7.67-10.86,13.94-18.52,13.94Z" style="fill:#859ac6; fill-rule:evenodd;"/><path d="M489.74,982.3h817.83c21.43,0-.47,42.84-10.85,42.84h-43.29l25.09,423.32c2.04,34.4-19.91,28.64-22.69,0l-41.04-423.32H582.53l-39.92,423.32c-2.68,28.45-24.64,34.59-22.69,0l23.96-423.32h-43.3c-9.1,0-33.2-42.84-10.85-42.84Z" style="fill:#bf9071; fill-rule:evenodd;"/><path d="M1114.16,792.37h-179.31c-5.33,0-11.54,4.37-13.79,9.7l-61.57,145.57c-2.26,5.33,.26,9.69,5.59,9.69h179.31c5.33,0,11.53-4.36,13.79-9.69l61.57-145.57c2.26-5.33-.26-9.7-5.59-9.7Z" style="fill:#b0c2e4; fill-rule:evenodd;"/><path d="M1103.61,805.79h-168.38c-.6,.23-1.56,1.02-1.81,1.5l-57.79,136.62h168.38c.6-.24,1.57-1.03,1.81-1.5l57.79-136.61Z" style="fill:#fff; fill-rule:evenodd;"/><path d="M629.32,799.02c-55.77-11.23-101.87-13.37-138.3-6.4-26.99,2.49-42.07,16.88-45.2,43.18-18.28,104.94-10.16,213.4,28.8,340.09,3.5,9.83,34.97,17.41,81.85,11.41,105.14-8.96,142.08-25.88,141.85-86.19-3.3-42.4-23.32-105.88-60.05-190.43-27.3-23.53-53.45-93.47-8.94-111.66Z" style="fill:#6d96ce; fill-rule:evenodd;"/><path d="M491.02,792.61c31.58-5.71,70.28-4.71,116.12,3-5.24-8.67-9.83-16.53-13.79-23.58-37.38-11.2-92.93-9.51-99.85,1.18-1.6,8.91-2.21,14.74-2.47,19.39Z" style="fill:#466fb5; fill-rule:evenodd;"/><path d="M879.97,1145.12c-46.7-8.7-108.15-15.03-184.35-19-10.16,40.35-50.3,53.61-139.17,61.18-24.57,3.14-44.91,2.56-59.2-.13,33.13,60.9,145.27,71.17,336.42,30.82,15.5,57.07,26.21,62.07,67.99,213.21,20.31,7.98,49.86-9.04,45.4-26.68-19.87-67.71-10.53-130.23-25.21-201.57-6.32-30.73-16.39-52.66-41.88-57.83Z" style="fill:#223f81; fill-rule:evenodd;"/><path d="M665.12,1241.63c-3.04,60.94,12.76,84.77,14.11,184.8,14.43,8.22,39.06,10.21,48.86-7.12,2.36-80.41,4.96-140.52,7.8-184.16-25.55,3.42-49.15,5.58-70.76,6.47Z" style="fill:#20386f; fill-rule:evenodd;"/><path d="M766.72,935.28c-69.53-85.25-115.32-130.67-137.4-136.27-44.51,18.2-18.37,88.14,8.94,111.66,25.25,29.26,61.94,55.68,110.08,79.27,22.69,9.24,79.14,7.89,169.34-4.05,6.08-13.83,4.33-24.4-5.23-31.7-80.06-10.31-128.64-16.6-145.73-18.9Z" style="fill:#6d96ce; fill-rule:evenodd;"/><path d="M804.01,927.63c-11.89,2.08-25.39,3.32-40.5,3.74,1.06,1.3,2.13,2.61,3.2,3.92,8.08,1.09,23.19,3.06,45.33,5.94-1.5-6.88-4.18-11.41-8.04-13.59Z" style="fill:#466fb5; fill-rule:evenodd;"/><path d="M669.68,988.92c26.09-2.51,45.33-5.78,57.73-9.81-37.98-20.77-67.69-43.58-89.15-68.44,12.37,28.48,22.85,54.56,31.42,78.25Z" style="fill:#466fb5; fill-rule:evenodd;"/><path d="M918.82,983.08c5.77,1.69,11.29,2.32,16.57,1.89,16.55-5.85,22.17-19.46,31.04-22.6,6.33,.42,12.8,1.38,19.39,2.87,11.66-1.34,3.17-7.58-25.46-18.72-17.21,.37-32.41,3.59-45.59,9.66,6.92,6.65,8.27,15.62,4.05,26.91h0Zm-84.38-57.99c-8.18,.78-17.31,2.44-27.4,5.01,2.26,2.52,3.93,6.23,5,11.13,8.15,1.05,17.24,2.23,27.28,3.53,2.11-2.36,3.99-4.2,5.61-5.54,16.71,3.67,24.54,5.03,23.74,2.4-6.9-5.78-18.31-11.29-34.24-16.52Z" style="fill:#f9af79; fill-rule:evenodd;"/><path d="M930.2,1470.12c60.13,2.88,90.15,1.08,90.07-5.4-.24-16.02-35.48-10.33-63.59-37.28-.66,17.19-21.05,22.35-35.42,16.7-6.8-5.14-12.25-6.27-16.36-3.38-3.2,5.41-4.27,12.61-3.2,21.6,3.34,5.61,12.84,8.2,28.5,7.76h0Zm-228.8-5.58c60.13,2.88,67.8-7.5,67.72-13.98-.91-11.21-18.73-3.18-43.51-23.78-.65,17.18-12.78,20.83-27.15,15.18-6.8-5.14-11.24-8.8-21.42-.67-3.2,5.41-4.27,10.05-3.21,19.04,3.35,5.61,11.92,4.66,27.58,4.22Z" style="fill:#0e2952; fill-rule:evenodd;"/><path d="M906.55,1432.61c.38,2.37,.65,4.68,.8,6.96,3.75-1.14,8.39,.39,13.92,4.57,13.06,5.14,31.08,1.34,34.76-12.28-4.27-3.89-7.68-9.42-10.23-16.57-5.62,11.63-23.93,20.35-39.24,17.33h0Zm-222.8-3.96c-.26,3.02-.74,6.08-1.46,9.19,6.71-3.24,10.66-.05,16.16,4.11,13.14,5.16,24.41,2.55,26.74-11.07-1.03-1.6-1.88-3.26-2.54-4.95-10.3,8.79-26.77,7.87-38.91,2.72Z" style="fill:#f9af79; fill-rule:evenodd;"/><path d="M443.14,1208.53h17.26l-15.21-128.86h-27.82c-22.36,0-42.82-18.3-45.46-40.66l-11.9-100.86c-2.64-22.36,13.5-40.65,35.86-40.65h91.41c22.36,0,42.82,18.3,45.45,40.65l11.91,100.86c2.63,22.36-13.5,40.66-35.87,40.66h-27.82l15.21,128.86h264.76c11.88,0,21.59,9.72,21.59,21.59h0c0,11.88-9.72,21.58-21.59,21.58h-152.73v61.15h8.77v93.78l92.94,6.37c3.98,.27,7.26,3.28,7.26,7.26v7.25h-238.84v-8.44c0-3.33,2.74-5.84,6.07-6.07l94.12-6.37v-93.78h8.77v-61.15h-144.13c-11.87,0-21.58-9.71-21.58-21.58h0c0-11.88,9.72-21.59,21.58-21.59h0Zm272.99,260c8.57,0,15.52-6.95,15.52-15.51s-6.95-15.52-15.52-15.52-15.51,6.95-15.51,15.52,6.95,15.51,15.51,15.51h0Zm-160.07-31.03c8.57,0,15.52,6.95,15.52,15.52s-6.95,15.51-15.52,15.51-15.52-6.95-15.52-15.51,6.95-15.52,15.52-15.52h0Zm87.72,0c8.57,0,15.52,6.95,15.52,15.52s-6.95,15.51-15.52,15.51-15.51-6.95-15.51-15.51,6.94-15.52,15.51-15.52h0Zm-160.07,0c8.57,0,15.51,6.95,15.51,15.52s-6.95,15.51-15.51,15.51-15.52-6.95-15.52-15.51,6.95-15.52,15.52-15.52Z" style="fill:#9c7357; fill-rule:evenodd;"/><path d="M532.73,938.16l11.91,100.85c2.63,22.36-13.5,40.66-35.87,40.66h-27.82l12.6,106.73c1.18,.27,2.42,.53,3.7,.77,1.64,.31,3.35,.58,5.15,.84l-11.73-99.42h20.65c26.26,0,45.26-21.79,42.19-47.79l-11.9-100.85c-3.01-25.46-26.29-43.72-51.99-43.72h-51.35c-.1,1.28,0,0-.1,1.27h49.1c22.36,0,42.81,18.3,45.45,40.66Z" style="fill:#1b2452; fill-rule:evenodd;"/><path d="M790.73,1226.44c-2.85-12.42-14.01-21.74-27.27-21.74h-253.14c1.3,1.31,2.65,2.59,4.05,3.83h246.54c11.14,0,20.37,8.54,21.48,19.4,2.76-.48,5.53-.97,8.33-1.49Z" style="fill:#20386f; fill-rule:evenodd;"/><path d="M921.89,888.81h17.28l-17.71,43.58h-17.28l17.72-43.58h0Zm109.48-10.03h17.28l-21.8,53.61h-17.28l21.79-53.61h0Zm-14.54-29.05l-33.6,82.66h17.28l33.6-82.66h-17.28Zm-40.01,33.59h17.28l-19.94,49.07h-17.28l19.95-49.07h0Zm-21.23-12.58l-25.07,61.65h17.28l25.06-61.65h-17.28Z" style="fill:#9db2d9; fill-rule:evenodd;"/></svg>