<?xml version="1.0" encoding="UTF-8"?><svg id="a" xmlns="http://www.w3.org/2000/svg" viewBox="0 0 1892.23 1585.73"><polygon points="1583.68 175.15 1687.9 256.63 1643.91 288.84 1583.68 175.15" style="fill:#d0d9ee; fill-rule:evenodd;"/><polygon points="1710 241.84 1587.21 176.43 1746.73 234.2 1710 241.84" style="fill:#d0d9ee; fill-rule:evenodd;"/><polygon points="1710 241.84 1691.66 295.22 1687.9 256.63 1583.68 175.15 1587.21 176.43 1710 241.84" style="fill:#aab9de; fill-rule:evenodd;"/><polygon points="1691.66 295.22 1668.41 270.9 1687.9 256.63 1691.66 295.22" style="fill:#8d9fca; fill-rule:evenodd;"/><path d="M1723.09,299.73c-3.7-1.56-1.26-6.9,2.17-5.45l5.47,2.2c3.64,1.54,1.27,6.9-2.21,5.44l-5.42-2.18h0Zm129.9,279.02c2.5,.71,2.88,4.13,.7,5.35-.56,.38-1.51,.52-2.29,.3l-3.65-1.05c-3.66-1.03-2.15-6.7,1.65-5.63l3.6,1.03h0Zm-20.27-6.26c3.33,.94,2.21,6.71-1.91,5.55l-5.59-1.96c-3.91-1.65-1.23-6.88,2-5.52l5.49,1.92h0Zm-21.63-8.37c3.38,1.43,1.31,6.92-2.42,5.34l2.42-5.34h0Zm-20.25-10.84c3.02,2.22,.25,6.89-3.28,4.87-1.69-1.12-3.33-2.28-4.95-3.5-3.03-2.45,.45-6.95,3.58-4.66,1.5,1.15,3.07,2.24,4.64,3.28h0Zm-16.45-15.05c2.25,3.28-2.66,6.49-4.78,3.39-1.23-1.76-2.32-3.53-3.27-5.45-1.66-3.72,3.79-5.89,5.29-2.55,.8,1.62,1.74,3.12,2.77,4.61h0Zm-5.75-20.11c-.63,4.17-6.37,2.88-5.84-.61,.21-2.12,.54-4.14,1.04-6.21,1.1-3.89,6.69-2.1,5.69,1.45-.44,1.78-.71,3.54-.89,5.36h0Zm7.47-20.7c-1.82,3.2-7.03,.48-5.03-3.03,1.02-1.71,2.11-3.47,3.24-5.1,2.43-3.31,7,.39,4.84,3.32-1.07,1.56-2.09,3.18-3.06,4.81h0Zm13.63-18.51c-2.32,2.86-7.02-.65-4.47-3.81,1.28-1.5,2.58-3.01,3.9-4.48,3.09-3.04,6.81,1.52,4.37,3.92-1.29,1.43-2.56,2.9-3.81,4.37h0Zm15.73-17.21c-2.93,2.88-6.84-1.5-4.25-4.05l4.05-4.25c2.92-2.87,6.85,1.5,4.25,4.06-1.36,1.37-2.73,2.83-4.05,4.24h0Zm16.18-17.11c-3.05,3-6.81-1.52-4.34-3.95l3.88-4.33c2.88-2.83,6.79,.93,4.42,3.87l-3.96,4.41h0Zm15.11-18.51c-2.22,3.02-6.89,.25-4.87-3.27,1.07-1.58,2.06-3.14,3.02-4.79,1.91-3.35,7.02-.45,5.09,2.93-1.03,1.76-2.1,3.44-3.24,5.14h0Zm9.44-22.66c-.58,3.82-6.38,2.94-5.8-.88,.29-1.8,.46-3.65,.51-5.47,.12-3.91,5.98-3.67,5.88,.14-.07,2.08-.25,4.15-.58,6.21h0Zm-2.45-24.57c1.33,3.71-4.22,5.62-5.51,2.04-.65-1.76-1.35-3.44-2.17-5.12-1.7-3.8,3.79-5.87,5.25-2.61,.92,1.81,1.73,3.78,2.43,5.68h0Zm-12.53-20.91c2.33,2.9-1.61,6.71-4.48,3.8-1.23-1.46-2.5-2.86-3.81-4.24-2.63-2.67,1.45-6.89,4.25-4.05,1.39,1.46,2.73,2.95,4.04,4.49h0Zm-17.37-16.6c3.05,2.47-.69,6.99-3.65,4.6-1.5-1.21-3.03-2.37-4.58-3.52-3.09-2.27,.35-7.03,3.49-4.71,1.6,1.19,3.18,2.39,4.74,3.63h0Zm-19.53-13.63c3.15,1.8,.49,7.04-3.08,5l-4.97-3c-3.28-1.88-.46-7.03,2.97-5.06l5.08,3.07h0Zm-20.64-11.66c3.63,2.08,.4,6.98-2.69,5.21l-5.2-2.64c-3.34-1.91-1.04-6.8,2.62-5.25l5.27,2.68h0Zm-21.28-10.29c3.39,1.43,1.31,6.92-2.42,5.35l-5.33-2.38c-3.44-1.45-1.31-6.93,2.37-5.38l5.39,2.4Z" style="fill:#8d9fca; fill-rule:evenodd;"/><path d="M1433.72,320.46c197.23,70.82,252.01,217.78,322.91,329.37,93.85,147.69,153.12,267.8-9.23,405.13-285.01,241.09-931.76,340.54-1390.01,175.97C-100.85,1066.37-75.11,678.76,209.89,437.67c285-241.09,765.58-281.77,1223.83-117.21Z" style="fill:#e9eff8; fill-rule:evenodd;"/><path d="M177.78,917.58s-75.29-38.83-61.49-134.18c13.8-95.34-44.5-125.49-59.3-153.86-14.8-28.36,18.37-74.1,14.6-114.15-3.77-40.05-49.96-50.77-28.32-105.71,21.64-54.93,3.34-75.8-25.16-134.65C-10.39,216.18,31.84,126.25,51.91,126.75c20.08,.49-4.4,21.53,13.25,60.65,17.64,39.12,92.05,51.03,115.33,83.74,23.29,32.71-17.64,76.05,8.93,120.21,26.56,44.15,105.72,30.46,126.66,73.31,20.93,42.85-28.97,94.2-14.45,139.12,14.51,44.92,67.97,70.38,90.47,106.47,22.5,36.08,64.64,105.22-4.37,187.76-69.01,82.54-209.93,19.58-209.93,19.58Z" style="fill:#e9eff8; fill-rule:evenodd;"/><path d="M115.36,820.89c-.39-3.76-.64-7.64-.72-11.65l204.57,114.97-18.1-47.02c-.09-.19-.17-.4-.24-.6l-9.28-24.11-173.22-97.34c-.01-3.96-.16-7.79-.43-11.49l168.13,94.48-16.37-42.52-160.03-89.93c-2.06-5.41-4.39-10.44-6.91-15.14l161.42,90.72-8.13-21.11c-.09-.22-.18-.43-.25-.65l-35.54-92.35-160.19-90.02c.95-3.17,1.93-6.38,2.9-9.61l151.76,85.29-17.75-46.1-126.2-70.92c.54-3.57,.9-7.13,1.04-10.66l119.64,67.23-13.35-34.68c-.07-.16-.13-.33-.19-.49l-38.78-100.76-93.65-52.63c1.18-3.29,2.2-6.45,3.07-9.52l85.06,47.8-33.87-87.98c-.07-.17-.14-.34-.2-.51L43.65,208.37c-.97-2.53,.28-5.36,2.81-6.33,2.53-.97,5.36,.28,6.33,2.8l50.79,131.97,29.04-99.17c3,1.51,5.97,3.02,8.89,4.54l-32.12,109.71,38.17,99.16c.05,.13,.1,.27,.14,.4l35.31,91.69,55.73-119.49c3.14,1.01,6.3,1.97,9.48,2.9l-60.31,129.32,13.45,34.95,73.44-156.21c3.16,1.08,6.24,2.23,9.22,3.46l-76.72,163.19,1.17,.65c2.36,1.32,3.2,4.31,1.88,6.67-.38,.68-.9,1.24-1.51,1.66l19.83,51.51c.07,.15,.12,.3,.17,.45l32.1,83.38,54.4-115.7c2.14,2.92,4.42,5.77,6.82,8.56l-56.33,119.83,8.26,21.44,60.32-128.32c2.46,2.41,4.97,4.77,7.5,7.12l-62.95,133.88,21.06,54.69c.05,.14,.1,.28,.16,.42l5.83,15.14,77.28-164.38c2.41,2.87,4.67,5.79,6.71,8.79l-79.11,168.28,22.27,57.83c.05,.13,.11,.27,.15,.41l.07,.17c-3.86,1.2-7.76,2.23-11.69,3.09l-206.33-115.95Z" style="fill:#fff; fill-rule:evenodd;"/><path d="M195.87,799.17s-64.69-54.7-29.9-144.53c34.78-89.84-15.29-132.27-23.36-163.23-8.07-30.95,34.49-68.11,39.78-107.99,5.29-39.88-37.33-60.66-3.95-109.37,33.4-48.69,20.22-73.13,5.62-136.87C169.46,73.45,230.74-4.75,250.19,.23c19.45,4.98-9.1,20-.67,62.08,8.44,42.07,78.29,70.33,93.66,107.42,15.37,37.09-34.21,70.17-18.21,119.16,16.01,48.98,96.23,53.35,107.04,99.79,10.8,46.45-49.32,85.33-45.23,132.35,4.09,47.03,50.49,83.81,64.34,124.02,13.86,40.2,39.45,117.02-46.28,182.02-85.73,65-208.99-27.91-208.99-27.91Z" style="fill:#d0d9ee; fill-rule:evenodd;"/><path d="M156.67,690.96c.46-3.75,1.09-7.59,1.9-11.51l173.66,157.84-7.12-49.88c-.04-.21-.07-.43-.1-.64l-3.64-25.57-147.04-133.65c.87-3.86,1.59-7.63,2.15-11.29l142.72,129.72-6.44-45.11-135.84-123.46c-.8-5.73-1.95-11.15-3.36-16.29l137.03,124.54-3.2-22.39c-.04-.23-.08-.46-.1-.69l-13.98-97.96-135.97-123.59c1.63-2.88,3.31-5.78,4.98-8.71l128.82,117.09-6.97-48.91-107.13-97.36c1.32-3.36,2.47-6.75,3.4-10.16l101.56,92.3-5.25-36.78c-.04-.17-.05-.36-.07-.52l-15.25-106.89-79.5-72.25c1.89-2.94,3.59-5.8,5.13-8.59l72.21,65.62-13.31-93.32c-.04-.18-.07-.36-.08-.54l-21.98-154.05c-.38-2.68,1.47-5.16,4.14-5.54,2.69-.38,5.16,1.48,5.55,4.15l19.97,139.99,50.49-90.16c2.59,2.14,5.15,4.28,7.66,6.42l-55.86,99.74,15.01,105.18c.03,.14,.04,.29,.06,.42l13.88,97.27,81.07-103.99c2.83,1.69,5.7,3.33,8.58,4.95l-87.73,112.53,5.29,37.07,106.53-135.81c2.84,1.76,5.59,3.57,8.22,5.44l-111.3,141.88,.99,.9c2.01,1.82,2.16,4.92,.34,6.92-.52,.58-1.16,1.01-1.85,1.28l7.8,54.64c.02,.17,.05,.32,.07,.48l12.63,88.45,78.91-100.6c1.44,3.33,3.02,6.62,4.73,9.87l-81.73,104.18,3.25,22.75,87.51-111.56c1.86,2.9,3.77,5.77,5.72,8.62l-91.31,116.4,8.28,58.01c.02,.15,.04,.29,.06,.45l2.29,16.06,112.11-142.91c1.71,3.34,3.25,6.69,4.58,10.07l-114.77,146.3,8.75,61.34c.03,.14,.05,.29,.06,.43l.03,.18c-4.03,.31-8.07,.44-12.08,.4l-175.15-159.19Z" style="fill:#e9eff8; fill-rule:evenodd;"/><ellipse cx="206.19" cy="1472.12" rx="206.19" ry="28.66" style="fill:#d0d9ee;"/><path d="M1575.91,1433.08c119.7,0,216.73,12.83,216.73,28.66s-97.04,28.66-216.73,28.66-216.74-12.83-216.74-28.66,97.04-28.66,216.74-28.66Z" style="fill:#d0d9ee; fill-rule:evenodd;"/><path d="M312.87,452.98h1023.29c49.51,0,91.5,40.58,90.01,90.01l-18.68,616.54c-1.49,49.43-40.57,90.01-90.01,90.01H331.56c-49.18,0-88.52-40.52-90.02-90.01l-18.68-616.54c-1.49-49.49,40.5-90.01,90.01-90.01h0Zm.01,49.17c-22.47,0-41.52,18.37-40.85,40.84l18.69,616.54c.66,22.47,18.77,40.85,40.85,40.85h985.93c22.07,0,40.19-18.78,40.85-40.85l18.68-616.54c.68-22.4-18.38-40.84-40.85-40.84H312.88Z" style="fill:#bcc9e7; fill-rule:evenodd;"/><path d="M1377.02,543h0c0-19.66-14.07-36.19-32.64-40.01l-.98-.19h-.02s-1-.17-1-.17h-.02s-1-.14-1-.14h-.01l-1.01-.12h0s-1.03-.1-1.03-.1h0l-1.04-.07h0l-1.04-.04h-1.05s-1023.3-.01-1023.3-.01h-1.05s-1.04,.05-1.04,.05h0l-1.04,.07h0l-1.03,.09h0l-1.01,.12h-.02l-1,.14h-.02c-19.54,3.02-34.63,20.02-34.63,40.37h0s18.69,616.54,18.69,616.54c.67,22.47,18.78,40.85,40.85,40.85h985.93c22.07,0,40.19-18.78,40.85-40.85l18.68-616.53Z" style="fill:#e9eff8; fill-rule:evenodd;"/><path d="M385.75,299.13h877.52c26.17,0,47.58,21.41,47.58,47.58v697.89c0,26.16-21.41,47.58-47.58,47.58H385.75c-26.17,0-47.57-21.41-47.57-47.58V346.71c0-26.17,21.4-47.58,47.57-47.58Z" style="fill:#fff; fill-rule:evenodd;"/><path d="M1263.27,299.13H385.75c-26.17,0-47.58,21.41-47.58,47.58v25.11h972.67v-25.11c0-26.17-21.41-47.58-47.58-47.58Z" style="fill:#d0d9ee; fill-rule:evenodd;"/><path d="M406.85,318.95c10.21,0,18.5,8.28,18.5,18.5s-8.29,18.5-18.5,18.5-18.5-8.28-18.5-18.5,8.28-18.5,18.5-18.5h0Zm161.23,0c10.22,0,18.5,8.28,18.5,18.5s-8.28,18.5-18.5,18.5-18.5-8.28-18.5-18.5,8.28-18.5,18.5-18.5h0Zm-80.61,0c10.22,0,18.5,8.28,18.5,18.5s-8.28,18.5-18.5,18.5-18.5-8.28-18.5-18.5,8.28-18.5,18.5-18.5Z" style="fill:#fff; fill-rule:evenodd;"/><rect x="402.09" y="427.95" width="409.37" height="34.99" style="fill:#d0d9ee;"/><rect x="404.42" y="544.56" width="825.74" height="214.6" style="fill:#d0d9ee;"/><path d="M439.41,576.05h755.76v26.83H439.41v-26.83h0Zm0,105.55h333.57v26.82H439.41v-26.82h0Zm0-54.22h333.57v26.82H439.41v-26.82Z" style="fill:#fff; fill-rule:evenodd;"/><path d="M407.65,841.07h824.52v26.83H407.65v-26.83h0Zm0,105.55h714.41v26.83H407.65v-26.83h0Zm0-54.22h508.12v26.82H407.65v-26.82Z" style="fill:#d0d9ee; fill-rule:evenodd;"/><path d="M161.13,547.07c6.06,.43,11.89-6.75,13.57-8.89,6.44-8.17,10.54-17.77,12.2-23.14-1.25-3.57-2.57-8.09-3.95-13.55-23.32-15.84-26.5-27.55-9.56-35.15,3.41,1.92,7.65,7.81,12.71,17.69,4.04-.16,7.11-2.23,9.19-6.2-4.81-16.68-7.94-30.21-9.4-40.63,11.49-17.08,38.36-19.51,73.94-14.9,1.65,9.47,3,19.5,4.06,30.09,6.29,5.8,5.48,27.28-.32,52.04,2.9,14.08-5.8,21.77-26.08,23.05-.2,3.4,.11,7.31,.17,9.69,.05,2.16,.13,6.38,2.39,7.04l3.76,.93c-.37,50.35-26.15,60.02-82.7,1.93Z" style="fill:#f4ae7c; fill-rule:evenodd;"/><path d="M259.85,422.3c-35.58-4.61-62.46-2.17-73.94,14.9,1.45,10.41,4.58,23.95,9.4,40.63-2.08,3.97-5.15,6.04-9.19,6.2-5.06-9.88-9.3-15.77-12.72-17.69-16.94,7.6-13.75,19.32,9.57,35.15,1.36,5.46,2.68,9.98,3.94,13.56-20.98-4.7-38.53-23.46-41-31.58-24.47-48.23,2.82-68.6,17.42-76.03,6.44-47.76,76.07-6.47,94.39-35.62,38.33,21.87,12.9,50.06,2.14,50.49Z" style="fill:#0f3970; fill-rule:evenodd;"/><path d="M214.13,522.58c5.69,2.81,13.48,4.45,23.38,4.9-.2,3.35-.05,7.21,.16,9.6-9.95-1.92-17.8-6.75-23.55-14.51Z" style="fill:#ed7d5b; fill-rule:evenodd;"/><path d="M118.71,1489.95c-22.1-7.78-23.88-19.17-35.79-24.72-11.99-5.6-13.37-15.58-1.64-26.41,8.66,6.91,19.4,15.42,25.1,10.92,3.8-3,16.69-2.81,19.24,1.57,11.23,26.09,26.84,17.83,29.92,29.7,.36,15.81-26.69,12.51-36.84,8.94Z" style="fill:#142d4d; fill-rule:evenodd;"/><path d="M310.2,1464c-38.92-.63-68.01-1.09-81.45-5.33-14.5-4.58-11.5-13.42-3.17-27.57,36.68,16.87,26.91-3.47,44.07-.89,12.06,9.71,29.92,16.21,53.56,19.52,10,7.37,5.94,13.95-13,14.27Z" style="fill:#142d4d; fill-rule:evenodd;"/><path d="M290.76,552.77c-19.43-5.64-36.87-9.06-52.33-10.26-2.8,42.68-25.07,42.39-66.8-.89-40.19,3.37-48.06,3.89-70.36,11.13-48.25,46.09-52.69,99.28-77.91,160.07,27.92,1.25,40.46,4.61,59.43,11.38,4.08-14.57,7.49-26.29,10.24-35.17-.77,80.16-1.07,135.08-.89,164.77,92.35,36.59,168.43,24.06,199.5-4.45,.43-71.25,1.03-127.66,1.77-169.21,11.05,13.02,21.29,23.11,30.73,30.28,22.64-25.96,37.98-36.41,50.82-51.72-28.42-46.67-69.15-90.1-84.22-105.92Z" style="fill:#6998d0; fill-rule:evenodd;"/><path d="M476.88,630.85c-48.51,20.16-82.48,36.81-101.9,49.97l-8.63-12.77c-8.02,8.04-17.18,15.92-28.36,27.36,10.33,10.81,21.42,19.71,34.34,27.22,33.71-3.6,70.97-29.13,111.79-76.59,12.69-2.53,22.03-7.13,28.02-13.79,.32-6.12-2.76-12.25-9.24-18.39,16.92-11.03,23.65-18.92,20.21-23.68-26.51,16.4-41.92,29.95-46.22,40.67Z" style="fill:#f4ae7c; fill-rule:evenodd;"/><path d="M291.66,849.34c-1.82,6.94,5.73,47.63,6.98,68.87,12.28,75.79,1.76,174.44-4.86,301.3-11.83,44.7-29.29,104.27-28.15,188.12-20.61,6.3-28.07,6.96-46.66,2.23-13-87.51-4.13-157.58,7.61-189.95-7.52-50.02-18.76-106.01-35.1-186.77-18.42,88-43.06,153.32-53.73,195.94-2.11,47.51-11.73,111.64-16.75,192.37-15.3,4.61-24.82,5.94-40.69,4.01-20.6-74.21-17.14-154.97-8.41-242.25,9.28-104.94-6.03-223.43,9.3-264.51,7.84-24.34,8.84-45.95,10.96-64.89,77.05,25.64,143.55,24.16,199.5-4.45Z" style="fill:#406fb5; fill-rule:evenodd;"/><path d="M106.36,772.37c-4.95,.74-9.62,1.39-14.03,1.98-.23,35.36-.29,61.85-.18,79.45,4.36,1.95,10.5,4.2,15.28,4.77-.02-2.27-.74-7.52-.76-9.75-.31-27.03-.42-52.51-.31-76.45h0Zm225.8-70.84c-13.59-11.32-26.54-29.72-38.83-55.17,1.38,8.87,1.94,20.73,1.65,35.59,10.45,12.14,20.18,21.62,29.17,28.46,2.77-3.18,5.44-6.13,8-8.88h0Zm-221.95-68.94c-5.99,19.28-11.72,38.09-17.17,56.44-.15,15.49-.28,30.04-.4,43.65,3.96-.37,8.6-.62,14.1-.75,.57-37.63,1.73-70.74,3.47-99.33Z" style="fill:#406fb5; fill-rule:evenodd;"/><path d="M232.11,660.32h101.67c4.66,0,7.87,3.81,7.13,8.47l-22.82,144.03c-.74,4.66-5.15,8.48-9.81,8.48h-101.67c-4.66,0-7.87-3.81-7.13-8.48l22.82-144.03c.74-4.66,5.16-8.47,9.81-8.47Z" style="fill:#0f3d86; fill-rule:evenodd;"/><path d="M32.73,713.37c-4.4,17.83-6.23,34.14-2.62,55.77,10.97,15.93,55.25,7.03,169.27-12.03,4.08,3.73,12.54,7.44,25.38,5.79,11.93-2.97,12.49-6.09,25.87-18.7,3.25-9.82,2.58-17.32-2-22.49-15.06,8.87-22.98,13.58-39.95,14.14,4.51-11.62,5.19-19.12,2.04-22.5-5.79,4.64-9.56,11.61-11.3,20.92-89.89-3.91-113.6-3.38-125.56,2.89,1.3-5.64,2.44-10.6,3.45-14.88-14-4.77-25.39-7.54-44.58-8.92Z" style="fill:#f4ae7c; fill-rule:evenodd;"/><path d="M228.17,1411.9c.92,7.63,1.05,14.48,.4,20.53,30.69,13.34,25.48-2.05,37.74-2.44-3.08-5.42-5.08-12.35-6-20.78-13.38,3.83-20.99,4.69-32.14,2.69h0Zm-143.01,14.06c0,5.56-.53,10.44-1.62,14.65,8.2,6.49,17.64,13.26,22.85,9.13,2.5-1.98,8.92-2.57,13.75-1.5-1.99-6.71-3.56-15.11-4.71-25.2-10.76,2.9-19.02,3.87-30.27,2.91Z" style="fill:#f4ae7c; fill-rule:evenodd;"/><path d="M298.64,918.21c-54.19,50.52-126.67,50.68-217.43,.48-15.33,41.08-.02,159.57-9.3,264.51-8.73,87.29-12.19,168.04,8.41,242.25,1.68,.21,3.29,.37,4.84,.5,11.25,.96,19.52,0,30.27-2.91,1.79-.48,3.64-1.01,5.58-1.6,5.02-80.73,14.64-144.86,16.75-192.37,10.67-42.62,35.31-107.93,53.73-195.94,16.35,80.76,27.58,136.75,35.1,186.77-11.75,32.37-20.61,102.44-7.61,189.95,3.38,.86,6.4,1.54,9.2,2.04,11.15,2.01,18.76,1.15,32.14-2.68,1.68-.48,3.44-1.01,5.32-1.58-1.14-83.84,16.32-143.42,28.15-188.12,6.61-126.86,17.13-225.51,4.86-301.3Z" style="fill:#0f3d86; fill-rule:evenodd;"/><path d="M213.1,1349.73c19.78,5.37,37.87,6.99,54.31,4.86,.36-4.34,.75-8.6,1.2-12.79-18.03,2.35-36.66,1.14-55.91-3.62,.09,3.79,.22,7.64,.4,11.55h0Zm-144.48,15.05c21.51,2.58,40.55,1.15,57.14-4.27,.42-4.51,.83-8.96,1.25-13.35-18.61,6.08-38.48,8.15-59.59,6.23,.36,3.81,.75,7.61,1.19,11.39h0Zm54.36,28.41c.34-4.48,.71-8.89,1.07-13.25-16.6,4.54-34.17,6-52.7,4.37,.63,3.85,1.31,7.68,2.04,11.5,18.33,2.06,34.87,1.19,49.59-2.62h0Zm143.47-24.73c-16.76,2.77-34.18,2.47-52.26-.91,.3,3.82,.63,7.7,1.01,11.62,18.48,3.9,35.38,4.6,50.68,2.09,.14-4.34,.33-8.61,.57-12.81Z" style="fill:#0f3d86; fill-rule:evenodd;"/><path d="M451.14,89.21h298.44c10.24,0,18.56,8.32,18.56,18.56v151.37c0,10.24-8.32,18.56-18.56,18.56H451.14c-10.25,0-18.56-8.32-18.56-18.56V107.77c0-10.24,8.32-18.56,18.56-18.56Z" style="fill:#bcc9e7;"/><path d="M465.06,113.49h169.57c1.57,0,2.86,1.29,2.86,2.85v16.78c0,1.57-1.29,2.86-2.86,2.86h-169.57c-1.57,0-2.86-1.29-2.86-2.86v-16.78c0-1.57,1.29-2.85,2.86-2.85h0Zm42.05,38.85h225.22c2.09,0,3.79,.98,3.79,2.19v12.83c0,1.2-1.71,2.19-3.79,2.19h-225.22c-2.09,0-3.79-.98-3.79-2.19v-12.83c0-1.2,1.71-2.19,3.79-2.19h0Zm0,70.69h225.22c2.09,0,3.79,.98,3.79,2.18v12.83c0,1.2-1.71,2.18-3.79,2.18h-225.22c-2.09,0-3.79-.98-3.79-2.18v-12.83c0-1.2,1.71-2.18,3.79-2.18h0Zm0-35.34h225.22c2.09,0,3.79,.98,3.79,2.18v12.83c0,1.2-1.71,2.18-3.79,2.18h-225.22c-2.09,0-3.79-.98-3.79-2.18v-12.83c0-1.2,1.71-2.18,3.79-2.18Z" style="fill:#fff; fill-rule:evenodd;"/><path d="M1559.75,752.99h-148.68c-32.95,109.56-71.2,174.63-144.68,174.63h476.65c73.48,0,111.73-65.07,144.68-174.63h-327.97Z" style="fill:#aab9de; fill-rule:evenodd;"/><path d="M876.45,213.03h655.29c-7.58-75.3-26.43-125.07-72.12-125.07h-485.83c-38.49,3.03-70.93,44.72-97.34,125.07Z" style="fill:#aab9de; fill-rule:evenodd;"/><path d="M1559.75,752.99c-60.95-246.03,32.45-665.03-100.13-665.03h-476.65c187.68,0-77.51,839.66,283.43,839.66,73.48,0,111.73-65.07,144.68-174.63h148.68Z" style="fill:#e9eff8; fill-rule:evenodd;"/><path d="M1282.71,926.48c-327.41-34.48-77.4-838.52-261.07-838.52h-38.67c187.68,0-77.51,839.66,283.43,839.66,5.64,0,11.08-.39,16.31-1.14Z" style="fill:#bcc9e7; fill-rule:evenodd;"/><path d="M1561.49,752.99c-60.95-246.03,32.46-665.03-100.13-665.03h-30.96c132.58,0,39.17,419,100.12,665.03h30.97Z" style="fill:#bcc9e7; fill-rule:evenodd;"/><path d="M1848.99,785.28c-30.83,89.93-68.39,142.34-134.33,142.34h28.39c73.48,0,111.73-65.07,144.68-174.63h-505.88c-28.38,94.37-60.69,155.73-116.06,170.93,5.46,1.09,11.1,1.94,16.92,2.56,56.01-8.1,89.83-58.96,118.02-141.2h448.26Z" style="fill:#bcc9e7; fill-rule:evenodd;"/><path d="M908.63,213.03c24.18-73.58,53.43-114.74,87.74-123.48-4.19-1.05-8.65-1.59-13.4-1.59h-9.18c-38.49,3.03-70.93,44.72-97.34,125.07h32.18Z" style="fill:#bcc9e7; fill-rule:evenodd;"/><path d="M1141.34,135.04h293.15c6,0,10.91,4.91,10.91,10.91h0c0,6-4.91,10.91-10.91,10.91h-293.15c-6,0-10.91-4.91-10.91-10.91h0c0-6.01,4.91-10.91,10.91-10.91h0Zm20.94,280.09h292.05c6,0,10.91,4.91,10.91,10.91h0c0,6-4.91,10.91-10.91,10.91h-292.05c-6,0-10.91-4.91-10.91-10.91h0c0-6,4.91-10.91,10.91-10.91h0Zm0-43.32h292.05c6,0,10.91,4.91,10.91,10.91h0c0,6-4.91,10.91-10.91,10.91h-292.05c-6,0-10.91-4.91-10.91-10.91h0c0-6,4.91-10.91,10.91-10.91h0Zm0-73.75h185.93c6,0,10.91,4.91,10.91,10.91h0c0,6-4.9,10.91-10.91,10.91h-185.93c-6,0-10.91-4.91-10.91-10.91h0c0-6,4.91-10.91,10.91-10.91h0Zm-3.29-40.75h293.15c6,0,10.91,4.91,10.91,10.91h0c0,6.01-4.91,10.91-10.91,10.91h-293.15c-6,0-10.91-4.91-10.91-10.91h0c0-6,4.91-10.91,10.91-10.91h0Zm-3.29-40.75h293.15c6,0,10.91,4.91,10.91,10.91h0c0,6.01-4.91,10.91-10.91,10.91h-293.15c-6,0-10.91-4.9-10.91-10.91h0c0-6,4.91-10.91,10.91-10.91h0Zm-7.17-40.76h293.15c6,0,10.91,4.91,10.91,10.91h0c0,6-4.9,10.91-10.91,10.91h-293.15c-6.01,0-10.91-4.91-10.91-10.91h0c0-6.01,4.9-10.91,10.91-10.91Z" style="fill:#fff; fill-rule:evenodd;"/><path d="M1284.01,1382.45c-52.42,30.27-137.45,30.27-189.9,0-24.64-14.23-37.71-32.63-39.19-51.27-.08-1.13-.12-36.68-.13-37.82-.07-19.9,13.03-5.36,39.32-20.55,52.45-30.28,137.47-30.28,189.9,0,26.05,15.05,39.17,.28,39.33,19.99,.02,1.11-.02,36.65-.08,37.76-1.24,18.85-14.32,37.49-39.24,51.88Z" style="fill:#aab9de; fill-rule:evenodd;"/><path d="M1056.41,1284.9c.56,.4,.92,1.06,.92,1.8v56c-1.3-3.81-2.11-7.66-2.41-11.52-.08-1.13-.12-36.68-.13-37.82-.02-4.09,.52-6.72,1.62-8.46Z" style="fill:#d0d9ee; fill-rule:evenodd;"/><path d="M1064.73,1293.38v63.57c-1.73-2.44-3.23-4.93-4.51-7.45v-56.12c0-1.23,1.01-2.24,2.24-2.24l.2,.02c1.15,.08,2.06,1.05,2.06,2.22Z" style="fill:#d0d9ee; fill-rule:evenodd;"/><path d="M1072.11,1300.06v64.77c0,.27-.05,.54-.14,.78-1.58-1.62-3.05-3.27-4.4-4.94v-60.61c0-1.24,1.01-2.26,2.24-2.26l.23,.02c1.16,.08,2.08,1.06,2.08,2.24Z" style="fill:#d0d9ee; fill-rule:evenodd;"/><path d="M1079.5,1306.74v64.74c0,.3-.05,.59-.17,.85-1.56-1.27-3.04-2.56-4.45-3.87v-61.71c0-1.25,1.03-2.27,2.27-2.27h.2c1.18,.1,2.13,1.07,2.13,2.27Z" style="fill:#d0d9ee; fill-rule:evenodd;"/><path d="M1086.9,1313.42v64.51c-1.62-1.1-3.17-2.21-4.67-3.34v-61.17c0-1.25,1.03-2.27,2.27-2.27h.23c1.2,.08,2.17,1.06,2.17,2.27Z" style="fill:#d0d9ee; fill-rule:evenodd;"/><path d="M1094.29,1320.11v62.43l-.18-.1c-1.56-.91-3.08-1.82-4.54-2.76v-59.58c0-1.27,1.02-2.29,2.29-2.29h.21c1.23,.08,2.23,1.06,2.23,2.29Z" style="fill:#d0d9ee; fill-rule:evenodd;"/><path d="M1101.67,1326.79v59.69c-1.62-.8-3.21-1.63-4.78-2.49v-57.21c0-1.27,1.05-2.31,2.32-2.31h.22c1.24,.07,2.24,1.06,2.24,2.31Z" style="fill:#d0d9ee; fill-rule:evenodd;"/><path d="M1109.06,1333.47v56.42c-1.63-.69-3.24-1.42-4.82-2.17v-54.26c0-1.28,1.04-2.32,2.3-2.32h.23c1.27,.07,2.29,1.06,2.29,2.32Z" style="fill:#d0d9ee; fill-rule:evenodd;"/><path d="M1111.55,1390.94v-50.79c0-1.28,1.06-2.34,2.35-2.34h.22c1.29,0,2.33,1.06,2.33,2.34v52.7c-1.65-.61-3.28-1.25-4.9-1.91Z" style="fill:#d0d9ee; fill-rule:evenodd;"/><path d="M1120.99,1394.47v-52.93c0-1.29,1.04-2.34,2.33-2.34h.24c1.29,0,2.34,1.06,2.34,2.34v54.52c-1.65-.51-3.29-1.03-4.91-1.59Z" style="fill:#d0d9ee; fill-rule:evenodd;"/><path d="M1130.42,1397.38v-54.46c0-1.28,1.06-2.34,2.34-2.34h.26c1.28,0,2.34,1.06,2.34,2.34v55.77c-1.66-.42-3.31-.86-4.95-1.32Z" style="fill:#d0d9ee; fill-rule:evenodd;"/><path d="M1139.86,1399.76v-55.43c0-1.3,1.06-2.37,2.34-2.37h.28c1.29,0,2.35,1.06,2.35,2.37v56.5c-1.67-.34-3.32-.7-4.96-1.07Z" style="fill:#d0d9ee; fill-rule:evenodd;"/><path d="M1149.29,1401.68v-55.95c0-1.29,1.06-2.37,2.36-2.37h.28c1.3,0,2.36,1.08,2.36,2.37v56.79c-1.67-.26-3.34-.54-4.99-.83Z" style="fill:#d0d9ee; fill-rule:evenodd;"/><path d="M1158.71,1403.14v-56.02c0-1.3,1.08-2.38,2.38-2.38h.29c1.3,0,2.37,1.08,2.37,2.38v56.63c-1.69-.18-3.36-.39-5.04-.62Z" style="fill:#d0d9ee; fill-rule:evenodd;"/><path d="M1168.15,1404.2v-55.68c0-1.3,1.06-2.38,2.36-2.38h.33c1.3,0,2.36,1.08,2.36,2.38v56.09c-1.69-.11-3.37-.25-5.05-.4Z" style="fill:#d0d9ee; fill-rule:evenodd;"/><path d="M1177.58,1404.86v-54.95c0-1.3,1.08-2.38,2.38-2.38h.33c1.32,0,2.38,1.07,2.38,2.38v55.15c-1.69-.04-3.39-.11-5.08-.2Z" style="fill:#d0d9ee; fill-rule:evenodd;"/><path d="M1187.02,1405.13v-53.82c0-1.32,1.08-2.39,2.38-2.39h.35c1.3,0,2.38,1.08,2.38,2.39v53.81c-1.7,.02-3.4,.02-5.1,.01Z" style="fill:#d0d9ee; fill-rule:evenodd;"/><path d="M1196.61,1405.02v-55.15c0-1.32,1.06-2.38,2.38-2.38h.33c1.3,0,2.38,1.06,2.38,2.38v54.93c-1.7,.09-3.39,.16-5.09,.22Z" style="fill:#d0d9ee; fill-rule:evenodd;"/><path d="M1206.21,1404.51v-56.08c0-1.3,1.06-2.38,2.36-2.38h.33c1.3,0,2.36,1.07,2.36,2.38v55.66c-1.68,.16-3.36,.3-5.05,.42Z" style="fill:#d0d9ee; fill-rule:evenodd;"/><path d="M1215.81,1403.6v-56.6c0-1.3,1.06-2.38,2.36-2.38h.3c1.3,0,2.38,1.07,2.38,2.38v55.96c-1.67,.24-3.35,.44-5.03,.64Z" style="fill:#d0d9ee; fill-rule:evenodd;"/><path d="M1225.41,1402.26v-56.73c0-1.29,1.06-2.34,2.36-2.34h.28c1.3,0,2.36,1.06,2.36,2.34v55.87c-1.66,.31-3.32,.59-5,.86Z" style="fill:#d0d9ee; fill-rule:evenodd;"/><path d="M1235,1400.48v-56.39c0-1.29,1.06-2.34,2.34-2.34h.28c1.29,0,2.35,1.06,2.35,2.34v55.29c-1.65,.39-3.31,.75-4.97,1.1Z" style="fill:#d0d9ee; fill-rule:evenodd;"/><path d="M1244.6,1398.22v-55.57c0-1.28,1.05-2.34,2.35-2.34h.26c1.28,0,2.34,1.06,2.34,2.34v54.21c-1.63,.48-3.29,.93-4.95,1.36Z" style="fill:#d0d9ee; fill-rule:evenodd;"/><path d="M1254.2,1395.44v-54.23c0-1.29,1.06-2.33,2.34-2.33h.25c1.29,0,2.32,1.04,2.32,2.33v52.57c-1.62,.57-3.26,1.13-4.91,1.66Z" style="fill:#d0d9ee; fill-rule:evenodd;"/><path d="M1263.79,1392.04v-52.27c0-1.29,1.04-2.32,2.32-2.32h.23c1.29,0,2.34,1.04,2.34,2.32v50.29c-1.6,.69-3.24,1.35-4.89,1.98Z" style="fill:#d0d9ee; fill-rule:evenodd;"/><path d="M1275.51,1333.61v53.34c-1.59,.78-3.2,1.53-4.84,2.25v-55.59c0-1.29,1.06-2.33,2.33-2.33h.22c1.27,.07,2.29,1.06,2.29,2.33Z" style="fill:#d0d9ee; fill-rule:evenodd;"/><path d="M1282.33,1327.43v55.96c-1.57,.87-3.16,1.71-4.78,2.53v-58.49c0-1.27,1.04-2.31,2.31-2.31h.22c1.23,.08,2.24,1.06,2.24,2.31Z" style="fill:#d0d9ee; fill-rule:evenodd;"/><path d="M1289.15,1321.26v58.05c-1.52,.98-3.09,1.95-4.72,2.89v-60.94c0-1.25,1.04-2.29,2.29-2.29h.23c1.21,.08,2.2,1.05,2.2,2.29Z" style="fill:#d0d9ee; fill-rule:evenodd;"/><path d="M1295.98,1315.09v59.45c-1.49,1.13-3.05,2.24-4.66,3.34v-62.79c0-1.25,1.03-2.27,2.27-2.27h.23c1.19,.08,2.16,1.05,2.16,2.27Z" style="fill:#d0d9ee; fill-rule:evenodd;"/><path d="M1302.81,1308.91v59.95c-1.46,1.34-3,2.66-4.62,3.96v-63.9c0-1.25,1.03-2.26,2.28-2.26h.21c1.18,.08,2.14,1.06,2.14,2.26Z" style="fill:#d0d9ee; fill-rule:evenodd;"/><path d="M1309.62,1302.75v59.06c-1.4,1.65-2.92,3.28-4.54,4.89v-63.95c0-1.24,1.01-2.25,2.24-2.25h.22c1.17,.1,2.08,1.06,2.08,2.25Z" style="fill:#d0d9ee; fill-rule:evenodd;"/><path d="M1316.45,1296.57v55.63c-1.31,2.27-2.8,4.51-4.49,6.72v-62.35c0-1.23,1.01-2.24,2.24-2.24l.21,.02c1.15,.11,2.04,1.06,2.04,2.22Z" style="fill:#d0d9ee; fill-rule:evenodd;"/><path d="M1318.83,1347.61v-57.22c0-1.21,1-2.22,2.24-2.22,.98,0,1.82,.66,2.11,1.55,.04,.42,.08,.86,.1,1.33v36.25c0,1.87-.02,3.08-.03,3.27-.37,5.74-1.85,11.46-4.42,17.04Z" style="fill:#d0d9ee; fill-rule:evenodd;"/><path d="M1284.01,1347.99c-52.42,30.28-137.45,30.28-189.9,0-52.42-30.27-52.42-79.36,0-109.63,52.45-30.28,137.47-30.28,189.9,0,52.45,30.27,52.45,79.36,0,109.63Z" style="fill:#bcc9e7; fill-rule:evenodd;"/><path d="M1279.45,1345.36c-49.92,28.82-130.84,28.82-180.77,0-49.92-28.81-49.92-75.55,0-104.36,49.93-28.83,130.85-28.83,180.77,0,49.91,28.81,49.91,75.55,0,104.36Z" style="fill:#e9eff8; fill-rule:evenodd;"/><path d="M1263.93,1336.4c-41.34,23.86-108.38,23.86-149.72,0-41.35-23.87-41.35-62.58,0-86.44,41.34-23.87,108.37-23.87,149.72,0,41.34,23.88,41.34,62.58,0,86.44Z" style="fill:#e68600; fill-rule:evenodd;"/><path d="M1263.93,1255.51c-41.35-23.87-108.38-23.87-149.72,0-19.46,11.23-29.75,25.74-30.89,40.44,1.15,14.71,11.44,29.23,30.89,40.46,41.34,23.86,108.38,23.86,149.72,0,19.44-11.23,29.75-25.74,30.89-40.44-1.15-14.72-11.46-29.23-30.89-40.46Z" style="fill:#f29919; fill-rule:evenodd;"/><path d="M1162.19,1319.99l19.9-11.5c7.11,8.72-7.06,15.94-19.9,11.5h0Zm53.21-45.32l-18.83,10.88c-6-7.28,5.43-14.67,18.83-10.88h0Zm25.28-14.42l-4.45,2.58c-38.2-20.05-92.57,6.45-62.26,35.76l-25.72,14.86c-3.53-3.03-5.99-6.32-7.38-9.86-1.76-4.41-8.78-7.43-16.59-6.93-7.52,.49-13.12,1.65-13.59,5.73-.11,.9,.05,4.2,.47,5.14,2.85,6.08,8.66,12.51,17.16,17.4l-5.1-.73c-.96,.55-.56,4.46-.56,5.18s.46,1.46,1.42,2l5.57,3.23c1.91,1.09,5,1.09,6.91,0l4.39-2.53c21.68,8.69,43.61,8.67,60.59-1.11,16.02-9.25,17.27-21.21,3.75-35.86l22.13-12.77c1.08,1.18,2.01,2.64,2.76,4.39,1.89,4.36,9.09,7.24,16.81,6.74,9.98-.63,16.71-6.99,13.31-12.45-2.5-4.02-6.51-7.28-11.52-10.76l4.6-2.65c.9-.52,1.33-1.19,1.3-1.87-.01-.65,.51-4.65-.34-5.14l-7.36-.33c-1.73-1.01-4.56-1.01-6.3,0Z" style="fill:#e68600; fill-rule:evenodd;"/><path d="M1162.19,1315.82l19.9-11.49c7.11,8.71-7.06,15.93-19.9,11.49h0Zm53.21-45.31l-18.83,10.88c-6-7.28,5.43-14.67,18.83-10.88h0Zm25.28-14.42l-4.45,2.57c-38.2-20.05-92.57,6.46-62.26,35.77l-25.72,14.85c-3.53-3.03-5.99-6.32-7.38-9.86-1.76-4.4-8.78-7.44-16.59-6.94-9.16,.6-15.5,5.73-13.12,10.88,2.85,6.07,8.66,12.51,17.16,17.4l-4.23,2.44c-1.91,1.11-1.91,2.9,0,3.99l5.57,3.23c1.91,1.09,5,1.09,6.91,0l4.39-2.53c21.68,8.69,43.61,8.68,60.59-1.11,16.02-9.25,17.27-21.21,3.75-35.85l22.13-12.78c1.08,1.18,2.01,2.64,2.76,4.39,1.89,4.36,9.09,7.22,16.81,6.73,9.98-.62,16.46-6.47,13.05-11.94-2.5-4.01-6.25-7.78-11.26-11.26l4.6-2.65c1.75-1.01,1.75-2.64,0-3.64l-6.41-3.7c-1.73-1.01-4.56-1.01-6.3,0Z" style="fill:#f6b039; fill-rule:evenodd;"/><path d="M1276.57,1334.93c-52.44,30.28-137.45,30.28-189.9,0-24.66-14.23-37.71-32.62-39.19-51.27-.08-1.13-.14-36.68-.14-37.81-.08-19.89,13.02-5.36,39.33-20.55,52.43-30.27,137.46-30.27,189.9,0,26.05,15.05,39.15,.29,39.33,20,0,1.1-.03,36.64-.1,37.75-1.21,18.85-14.3,37.48-39.22,51.87Z" style="fill:#aab9de; fill-rule:evenodd;"/><path d="M1048.96,1237.39c.55,.4,.91,1.06,.91,1.79v55.96c-1.29-3.79-2.09-7.63-2.4-11.48-.08-1.11-.14-36.68-.14-37.81-.02-4.09,.53-6.72,1.62-8.46Z" style="fill:#d0d9ee; fill-rule:evenodd;"/><path d="M1057.28,1245.86v63.57c-1.73-2.44-3.23-4.92-4.5-7.44v-56.13c0-1.23,1.01-2.23,2.24-2.23h.21c1.14,.12,2.05,1.07,2.05,2.23Z" style="fill:#d0d9ee; fill-rule:evenodd;"/><path d="M1064.67,1252.54v64.77c0,.28-.05,.54-.14,.78-1.59-1.63-3.06-3.28-4.42-4.95v-60.6c0-1.23,1.03-2.26,2.26-2.26l.21,.02c1.16,.09,2.1,1.06,2.1,2.24Z" style="fill:#d0d9ee; fill-rule:evenodd;"/><path d="M1072.06,1259.23v64.73c0,.3-.06,.59-.17,.86-1.56-1.27-3.04-2.56-4.45-3.87v-61.71c0-1.25,1.02-2.26,2.26-2.26h.22c1.18,.08,2.14,1.06,2.14,2.26Z" style="fill:#d0d9ee; fill-rule:evenodd;"/><path d="M1079.44,1265.91v64.51c-1.61-1.09-3.16-2.2-4.65-3.32v-61.18c0-1.25,1.02-2.27,2.27-2.27h.21c1.22,.09,2.17,1.06,2.17,2.27Z" style="fill:#d0d9ee; fill-rule:evenodd;"/><path d="M1086.83,1272.59v62.43l-.16-.09c-1.57-.91-3.09-1.83-4.56-2.76v-59.57c0-1.27,1.03-2.29,2.29-2.29h.22c1.21,.08,2.2,1.06,2.2,2.29Z" style="fill:#d0d9ee; fill-rule:evenodd;"/><path d="M1094.22,1279.27v59.7c-1.62-.8-3.21-1.63-4.77-2.49v-57.21c0-1.27,1.02-2.3,2.29-2.3h.23c1.25,.08,2.26,1.06,2.26,2.3Z" style="fill:#d0d9ee; fill-rule:evenodd;"/><path d="M1101.61,1285.95v56.43c-1.63-.71-3.25-1.43-4.84-2.18v-54.25c0-1.29,1.05-2.33,2.33-2.33h.23c1.25,.07,2.29,1.06,2.29,2.33Z" style="fill:#d0d9ee; fill-rule:evenodd;"/><path d="M1104.12,1343.43v-50.79c0-1.29,1.04-2.35,2.32-2.35h.22c1.28,0,2.35,1.06,2.35,2.35v52.7c-1.65-.62-3.28-1.25-4.89-1.91Z" style="fill:#d0d9ee; fill-rule:evenodd;"/><path d="M1113.54,1346.95v-52.93c0-1.29,1.06-2.33,2.34-2.33h.25c1.28,0,2.34,1.04,2.34,2.33v54.52c-1.66-.51-3.3-1.04-4.93-1.59Z" style="fill:#d0d9ee; fill-rule:evenodd;"/><path d="M1122.98,1349.87v-54.45c0-1.3,1.04-2.35,2.34-2.35h.26c1.29,0,2.35,1.04,2.35,2.35v55.76c-1.67-.42-3.31-.86-4.95-1.32Z" style="fill:#d0d9ee; fill-rule:evenodd;"/><path d="M1132.4,1352.26v-55.44c0-1.29,1.06-2.35,2.36-2.35h.26c1.3,0,2.36,1.06,2.36,2.35v56.51c-1.68-.34-3.34-.69-4.99-1.07Z" style="fill:#d0d9ee; fill-rule:evenodd;"/><path d="M1141.84,1354.17v-55.96c0-1.29,1.06-2.34,2.35-2.34h.3c1.3,0,2.36,1.06,2.36,2.34v56.8c-1.67-.25-3.34-.54-5-.83Z" style="fill:#d0d9ee; fill-rule:evenodd;"/><path d="M1151.27,1355.64v-56.03c0-1.3,1.06-2.36,2.36-2.36h.31c1.29,0,2.36,1.06,2.36,2.36v56.65c-1.68-.19-3.36-.4-5.03-.62Z" style="fill:#d0d9ee; fill-rule:evenodd;"/><path d="M1160.69,1356.69v-55.69c0-1.3,1.07-2.36,2.38-2.36h.31c1.3,0,2.38,1.06,2.38,2.36v56.1c-1.7-.12-3.38-.25-5.07-.41Z" style="fill:#d0d9ee; fill-rule:evenodd;"/><path d="M1170.13,1357.36v-54.95c0-1.33,1.07-2.38,2.38-2.38h.33c1.3,0,2.38,1.06,2.38,2.38v55.15c-1.7-.05-3.39-.12-5.08-.2Z" style="fill:#d0d9ee; fill-rule:evenodd;"/><path d="M1179.55,1357.63v-53.84c0-1.3,1.08-2.38,2.39-2.38h.33c1.32,0,2.4,1.08,2.4,2.38v53.83c-1.71,.02-3.42,.02-5.12,0Z" style="fill:#d0d9ee; fill-rule:evenodd;"/><path d="M1189.15,1357.51v-55.16c0-1.3,1.07-2.38,2.38-2.38h.33c1.32,0,2.38,1.08,2.38,2.38v54.95c-1.69,.1-3.38,.17-5.08,.22Z" style="fill:#d0d9ee; fill-rule:evenodd;"/><path d="M1198.75,1357.01v-56.09c0-1.3,1.07-2.38,2.38-2.38h.31c1.3,0,2.38,1.07,2.38,2.38v55.66c-1.68,.16-3.37,.31-5.07,.43Z" style="fill:#d0d9ee; fill-rule:evenodd;"/><path d="M1208.35,1356.09v-56.62c0-1.3,1.07-2.36,2.38-2.36h.3c1.3,0,2.36,1.06,2.36,2.36v55.98c-1.67,.24-3.35,.45-5.03,.65Z" style="fill:#d0d9ee; fill-rule:evenodd;"/><path d="M1217.94,1354.76v-56.73c0-1.3,1.08-2.36,2.37-2.36h.29c1.29,0,2.37,1.06,2.37,2.36v55.86c-1.67,.31-3.34,.59-5.02,.87Z" style="fill:#d0d9ee; fill-rule:evenodd;"/><path d="M1227.54,1352.98v-56.38c0-1.3,1.06-2.36,2.36-2.36h.28c1.28,0,2.34,1.06,2.34,2.36v55.28c-1.65,.39-3.31,.75-4.98,1.1Z" style="fill:#d0d9ee; fill-rule:evenodd;"/><path d="M1237.15,1350.71v-55.57c0-1.3,1.04-2.34,2.35-2.34h.24c1.3,0,2.34,1.04,2.34,2.34v54.2c-1.63,.48-3.28,.94-4.93,1.36Z" style="fill:#d0d9ee; fill-rule:evenodd;"/><path d="M1246.75,1347.93v-54.22c0-1.3,1.04-2.34,2.33-2.34h.24c1.28,0,2.34,1.04,2.34,2.34v52.56c-1.62,.57-3.26,1.13-4.91,1.66Z" style="fill:#d0d9ee; fill-rule:evenodd;"/><path d="M1256.35,1344.53v-52.28c0-1.27,1.04-2.32,2.32-2.32h.23c1.28,0,2.32,1.06,2.32,2.32v50.3c-1.6,.69-3.23,1.34-4.88,1.98Z" style="fill:#d0d9ee; fill-rule:evenodd;"/><path d="M1268.06,1286.09v53.34c-1.59,.77-3.2,1.53-4.84,2.25v-55.59c0-1.28,1.04-2.32,2.32-2.32h.23c1.25,.07,2.29,1.06,2.29,2.32Z" style="fill:#d0d9ee; fill-rule:evenodd;"/><path d="M1274.88,1279.91v55.96c-1.57,.87-3.17,1.72-4.78,2.55v-58.51c0-1.27,1.04-2.29,2.3-2.29h.23c1.25,.07,2.25,1.04,2.25,2.29Z" style="fill:#d0d9ee; fill-rule:evenodd;"/><path d="M1281.71,1273.75v58.03c-1.53,.98-3.09,1.95-4.72,2.9v-60.93c0-1.27,1.03-2.29,2.29-2.29h.22c1.22,.07,2.21,1.06,2.21,2.29Z" style="fill:#d0d9ee; fill-rule:evenodd;"/><path d="M1288.52,1267.58v59.46c-1.5,1.13-3.05,2.24-4.67,3.34v-62.79c0-1.25,1.03-2.28,2.27-2.28h.23c1.2,.09,2.17,1.06,2.17,2.28Z" style="fill:#d0d9ee; fill-rule:evenodd;"/><path d="M1295.34,1261.4v59.96c-1.45,1.33-2.99,2.65-4.6,3.94v-63.9c0-1.24,1.01-2.26,2.25-2.26h.23c1.18,.1,2.12,1.06,2.12,2.26Z" style="fill:#d0d9ee; fill-rule:evenodd;"/><path d="M1302.18,1255.23v59.05c-1.41,1.66-2.93,3.3-4.56,4.9v-63.96c0-1.23,1.01-2.26,2.26-2.26l.21,.02c1.16,.08,2.1,1.06,2.1,2.24Z" style="fill:#d0d9ee; fill-rule:evenodd;"/><path d="M1309,1249.06v55.63c-1.31,2.27-2.81,4.52-4.49,6.73v-62.35c0-1.23,1.01-2.24,2.22-2.24l.23,.02c1.15,.1,2.05,1.06,2.05,2.22Z" style="fill:#d0d9ee; fill-rule:evenodd;"/><path d="M1311.39,1300.09v-57.19c0-1.24,1-2.23,2.22-2.23,1.01,0,1.86,.67,2.13,1.59,.04,.35,.07,.72,.09,1.1v35.97c-.01,2.12-.02,3.51-.04,3.72-.37,5.73-1.84,11.45-4.4,17.03Z" style="fill:#d0d9ee; fill-rule:evenodd;"/><path d="M1276.57,1300.48c-52.44,30.28-137.45,30.28-189.9,0-52.45-30.27-52.45-79.35,0-109.63,52.43-30.27,137.46-30.27,189.9,0,52.43,30.28,52.43,79.36,0,109.63Z" style="fill:#bcc9e7; fill-rule:evenodd;"/><path d="M1272,1297.86c-49.91,28.81-130.86,28.81-180.77,0-49.92-28.83-49.92-75.55,0-104.38,49.91-28.82,130.84-28.81,180.77,0,49.91,28.82,49.91,75.55,0,104.38Z" style="fill:#fff; fill-rule:evenodd;"/><path d="M1256.47,1288.88c-41.34,23.88-108.37,23.88-149.72,0-41.34-23.87-41.34-62.56,0-86.44,41.34-23.87,108.38-23.87,149.72,0,41.35,23.88,41.35,62.58,0,86.44Z" style="fill:#d0d9ee; fill-rule:evenodd;"/><path d="M1256.47,1208.01c-41.34-23.88-108.38-23.88-149.72-.01-19.44,11.23-29.75,25.74-30.89,40.45,1.15,14.7,11.46,29.21,30.89,40.44,41.35,23.88,108.38,23.88,149.72,0,19.46-11.23,29.75-25.73,30.91-40.44-1.16-14.7-11.45-29.21-30.91-40.44Z" style="fill:#e9eff8; fill-rule:evenodd;"/><path d="M1154.72,1272.49l19.91-11.51c7.12,8.71-7.05,15.93-19.91,11.51h0Zm53.23-45.33l-18.85,10.88c-5.98-7.27,5.44-14.65,18.85-10.88h0Zm25.27-14.41l-4.44,2.55c-38.2-20.04-92.55,6.46-62.26,35.77l-25.74,14.85c-3.52-3.02-5.97-6.32-7.37-9.84-1.74-4.42-8.78-7.44-16.59-6.94-7.5,.49-13.13,1.65-13.57,5.74-.1,.89,.04,4.2,.46,5.12,2.83,6.09,8.66,12.52,17.16,17.43l-5.1-.75c-.95,.55-.57,4.46-.57,5.19s.48,1.44,1.44,2l5.57,3.21c1.91,1.09,5,1.09,6.91,0l4.39-2.53c21.68,8.69,43.62,8.69,60.57-1.11,16.04-9.25,17.28-21.21,3.75-35.85l22.15-12.78c1.07,1.18,2,2.65,2.76,4.41,1.89,4.34,9.08,7.22,16.8,6.73,10-.65,16.73-6.99,13.33-12.46-2.5-4.01-6.52-7.26-11.52-10.76l4.6-2.65c.9-.52,1.33-1.19,1.3-1.88-.03-.65,.49-4.64-.34-5.12l-7.36-.33c-1.75-1-4.56-1-6.32,0Z" style="fill:#d0d9ee; fill-rule:evenodd;"/><path d="M1154.72,1268.3l19.91-11.49c7.12,8.71-7.05,15.93-19.91,11.49h0Zm53.23-45.31l-18.85,10.88c-5.98-7.27,5.44-14.64,18.85-10.88h0Zm25.27-14.42l-4.44,2.57c-38.2-20.04-92.55,6.46-62.26,35.77l-25.74,14.86c-3.52-3.02-5.97-6.32-7.37-9.85-1.74-4.42-8.78-7.44-16.59-6.94-9.15,.59-15.5,5.72-13.11,10.86,2.83,6.08,8.66,12.51,17.16,17.42l-4.24,2.44c-1.91,1.1-1.91,2.88,0,3.99l5.57,3.21c1.91,1.1,5,1.1,6.91,0l4.39-2.53c21.68,8.69,43.62,8.68,60.57-1.12,16.04-9.25,17.28-21.21,3.75-35.85l22.15-12.77c1.07,1.18,2,2.65,2.76,4.39,1.89,4.36,9.08,7.23,16.8,6.75,10-.64,16.45-6.49,13.05-11.96-2.5-4.01-6.25-7.76-11.25-11.26l4.6-2.65c1.73-1.01,1.73-2.64,0-3.63l-6.41-3.72c-1.75-1.01-4.56-1.01-6.32,0Z" style="fill:#fff; fill-rule:evenodd;"/><path d="M1168,1283.3c-52.43,30.27-137.45,30.27-189.9,0-24.64-14.24-37.71-32.63-39.19-51.27-.08-1.13-.12-36.69-.14-37.82-.07-19.91,13.04-5.36,39.33-20.55,52.45-30.28,137.47-30.28,189.9,0,26.05,15.05,39.17,.28,39.32,19.99,.02,1.11-.01,36.66-.08,37.76-1.23,18.85-14.32,37.49-39.24,51.88Z" style="fill:#aab9de; fill-rule:evenodd;"/><path d="M940.41,1185.75c.56,.41,.92,1.06,.92,1.8v56.01c-1.3-3.81-2.11-7.66-2.41-11.52-.08-1.13-.12-36.69-.14-37.82-.01-4.09,.53-6.73,1.63-8.46Z" style="fill:#d0d9ee; fill-rule:evenodd;"/><path d="M948.72,1194.23v63.57c-1.73-2.45-3.23-4.93-4.51-7.46v-56.12c0-1.23,1-2.24,2.24-2.24l.21,.02c1.15,.08,2.06,1.06,2.06,2.22Z" style="fill:#d0d9ee; fill-rule:evenodd;"/><path d="M956.1,1200.92v64.77c0,.27-.05,.53-.14,.77-1.58-1.62-3.05-3.27-4.41-4.93v-60.6c0-1.24,1.01-2.26,2.24-2.26h.22c1.16,.1,2.08,1.07,2.08,2.26Z" style="fill:#d0d9ee; fill-rule:evenodd;"/><path d="M963.49,1207.59v64.74c0,.3-.06,.59-.17,.84-1.56-1.27-3.04-2.56-4.45-3.87v-61.71c0-1.25,1.03-2.27,2.27-2.27l.21,.02c1.18,.08,2.14,1.06,2.14,2.26Z" style="fill:#d0d9ee; fill-rule:evenodd;"/><path d="M970.88,1214.27v64.51c-1.62-1.09-3.17-2.21-4.67-3.34v-61.18c0-1.25,1.03-2.27,2.27-2.27h.23c1.19,.08,2.17,1.06,2.17,2.27Z" style="fill:#d0d9ee; fill-rule:evenodd;"/><path d="M978.28,1220.96v62.44l-.17-.1c-1.56-.9-3.08-1.82-4.55-2.76v-59.59c0-1.27,1.03-2.29,2.29-2.29h.21c1.24,.09,2.23,1.06,2.23,2.29Z" style="fill:#d0d9ee; fill-rule:evenodd;"/><path d="M985.65,1227.64v59.69c-1.62-.8-3.21-1.63-4.77-2.49v-57.21c0-1.27,1.04-2.31,2.31-2.31h.22c1.24,.07,2.24,1.06,2.24,2.31Z" style="fill:#d0d9ee; fill-rule:evenodd;"/><path d="M993.05,1234.32v56.42c-1.63-.7-3.24-1.42-4.83-2.17v-54.26c0-1.28,1.04-2.32,2.31-2.32h.22c1.27,.07,2.29,1.06,2.29,2.32Z" style="fill:#d0d9ee; fill-rule:evenodd;"/><path d="M995.54,1291.79v-50.78c0-1.29,1.06-2.35,2.34-2.35h.23c1.29,0,2.32,1.06,2.32,2.35v52.7c-1.65-.62-3.28-1.25-4.89-1.91Z" style="fill:#d0d9ee; fill-rule:evenodd;"/><path d="M1004.99,1295.32v-52.92c0-1.29,1.04-2.35,2.33-2.35h.24c1.29,0,2.34,1.06,2.34,2.35v54.52c-1.65-.51-3.29-1.04-4.91-1.59Z" style="fill:#d0d9ee; fill-rule:evenodd;"/><path d="M1014.41,1298.24v-54.46c0-1.29,1.06-2.35,2.34-2.35h.27c1.28,0,2.34,1.06,2.34,2.35v55.77c-1.66-.42-3.31-.86-4.95-1.31Z" style="fill:#d0d9ee; fill-rule:evenodd;"/><path d="M1023.85,1300.62v-55.44c0-1.3,1.06-2.36,2.35-2.36h.27c1.29,0,2.35,1.06,2.35,2.36v56.5c-1.67-.33-3.32-.69-4.96-1.06Z" style="fill:#d0d9ee; fill-rule:evenodd;"/><path d="M1033.27,1302.52v-55.95c0-1.29,1.06-2.36,2.36-2.36h.28c1.3,0,2.36,1.07,2.36,2.36v56.79c-1.68-.26-3.34-.54-5-.84Z" style="fill:#d0d9ee; fill-rule:evenodd;"/><path d="M1042.7,1304v-56.02c0-1.3,1.07-2.38,2.38-2.38h.29c1.3,0,2.37,1.08,2.37,2.38v56.63c-1.68-.19-3.36-.39-5.03-.62Z" style="fill:#d0d9ee; fill-rule:evenodd;"/><path d="M1052.14,1305.05v-55.68c0-1.3,1.06-2.38,2.36-2.38h.33c1.3,0,2.36,1.07,2.36,2.38v56.09c-1.69-.11-3.37-.26-5.05-.4Z" style="fill:#d0d9ee; fill-rule:evenodd;"/><path d="M1061.56,1305.7v-54.95c0-1.3,1.08-2.38,2.38-2.38h.33c1.32,0,2.38,1.08,2.38,2.38v55.15c-1.7-.05-3.4-.12-5.09-.21Z" style="fill:#d0d9ee; fill-rule:evenodd;"/><path d="M1071.01,1305.98v-53.82c0-1.32,1.07-2.39,2.37-2.39h.35c1.3,0,2.38,1.07,2.38,2.39v53.82c-1.7,.02-3.4,.02-5.1,0Z" style="fill:#d0d9ee; fill-rule:evenodd;"/><path d="M1080.6,1305.87v-55.15c0-1.32,1.06-2.38,2.38-2.38h.33c1.3,0,2.38,1.06,2.38,2.38v54.93c-1.69,.09-3.39,.16-5.09,.22Z" style="fill:#d0d9ee; fill-rule:evenodd;"/><path d="M1090.2,1305.36v-56.08c0-1.3,1.06-2.38,2.36-2.38h.33c1.3,0,2.36,1.07,2.36,2.38v55.65c-1.68,.16-3.36,.3-5.05,.43Z" style="fill:#d0d9ee; fill-rule:evenodd;"/><path d="M1099.8,1304.45v-56.61c0-1.3,1.06-2.38,2.36-2.38h.3c1.3,0,2.38,1.07,2.38,2.38v55.97c-1.67,.23-3.35,.44-5.03,.64Z" style="fill:#d0d9ee; fill-rule:evenodd;"/><path d="M1109.39,1303.11v-56.73c0-1.28,1.06-2.34,2.36-2.34h.28c1.3,0,2.36,1.06,2.36,2.34v55.88c-1.67,.31-3.33,.59-5,.86Z" style="fill:#d0d9ee; fill-rule:evenodd;"/><path d="M1118.99,1301.34v-56.39c0-1.29,1.06-2.34,2.34-2.34h.28c1.29,0,2.35,1.06,2.35,2.34v55.29c-1.65,.39-3.3,.75-4.96,1.1Z" style="fill:#d0d9ee; fill-rule:evenodd;"/><path d="M1128.59,1299.08v-55.58c0-1.28,1.06-2.34,2.34-2.34h.26c1.29,0,2.35,1.06,2.35,2.34v54.2c-1.63,.48-3.29,.94-4.95,1.38Z" style="fill:#d0d9ee; fill-rule:evenodd;"/><path d="M1138.18,1296.29v-54.23c0-1.28,1.06-2.32,2.35-2.32h.24c1.29,0,2.33,1.04,2.33,2.32v52.57c-1.62,.58-3.26,1.13-4.92,1.66Z" style="fill:#d0d9ee; fill-rule:evenodd;"/><path d="M1147.78,1292.9v-52.27c0-1.29,1.04-2.33,2.33-2.33h.22c1.29,0,2.35,1.04,2.35,2.33v50.29c-1.61,.69-3.25,1.35-4.9,1.99Z" style="fill:#d0d9ee; fill-rule:evenodd;"/><path d="M1159.5,1234.46v53.34c-1.59,.77-3.2,1.53-4.84,2.25v-55.59c0-1.28,1.06-2.32,2.32-2.32h.22c1.27,.07,2.29,1.06,2.29,2.32Z" style="fill:#d0d9ee; fill-rule:evenodd;"/><path d="M1166.32,1228.28v55.96c-1.56,.88-3.16,1.72-4.77,2.54v-58.5c0-1.27,1.04-2.3,2.3-2.3h.23c1.23,.08,2.24,1.06,2.24,2.3Z" style="fill:#d0d9ee; fill-rule:evenodd;"/><path d="M1173.14,1222.1v58.06c-1.53,.98-3.1,1.94-4.72,2.89v-60.95c0-1.25,1.04-2.29,2.29-2.29l.23,.02c1.21,.07,2.21,1.04,2.21,2.27Z" style="fill:#d0d9ee; fill-rule:evenodd;"/><path d="M1179.97,1215.94v59.45c-1.49,1.13-3.05,2.24-4.66,3.34v-62.78c0-1.25,1.03-2.27,2.27-2.27h.22c1.2,.08,2.17,1.06,2.17,2.27Z" style="fill:#d0d9ee; fill-rule:evenodd;"/><path d="M1186.79,1209.76v59.95c-1.46,1.34-3,2.66-4.62,3.96v-63.91c0-1.24,1.03-2.26,2.27-2.26h.21c1.18,.09,2.13,1.06,2.13,2.26Z" style="fill:#d0d9ee; fill-rule:evenodd;"/><path d="M1193.62,1203.61v59.05c-1.41,1.65-2.92,3.28-4.55,4.89v-63.93c0-1.25,1.01-2.26,2.24-2.26h.22c1.17,.1,2.09,1.06,2.09,2.26Z" style="fill:#d0d9ee; fill-rule:evenodd;"/><path d="M1200.43,1197.42v55.63c-1.31,2.27-2.8,4.52-4.49,6.73v-62.35c0-1.23,1-2.24,2.23-2.24l.21,.02c1.15,.1,2.04,1.06,2.04,2.22Z" style="fill:#d0d9ee; fill-rule:evenodd;"/><path d="M1202.82,1248.47v-57.22c0-1.21,1.01-2.23,2.24-2.23,.98,0,1.82,.66,2.11,1.56,.04,.42,.08,.86,.11,1.33v36.24c-.01,1.88-.02,3.08-.04,3.28-.37,5.74-1.85,11.46-4.42,17.04Z" style="fill:#d0d9ee; fill-rule:evenodd;"/><path d="M1168,1248.85c-52.43,30.28-137.45,30.28-189.9,0-52.43-30.27-52.43-79.36,0-109.63,52.45-30.28,137.47-30.28,189.9,0,52.45,30.27,52.45,79.37,0,109.63Z" style="fill:#bcc9e7; fill-rule:evenodd;"/><path d="M1163.43,1246.21c-49.92,28.82-130.84,28.82-180.77,0-49.92-28.81-49.92-75.55,0-104.35,49.93-28.83,130.85-28.83,180.77,0,49.91,28.81,49.91,75.54,0,104.35Z" style="fill:#e9eff8; fill-rule:evenodd;"/><path d="M1147.92,1237.26c-41.34,23.86-108.38,23.86-149.72,0-41.35-23.87-41.35-62.58,0-86.45,41.34-23.87,108.37-23.87,149.72,0,41.34,23.88,41.34,62.58,0,86.45Z" style="fill:#e68600; fill-rule:evenodd;"/><path d="M1147.92,1156.36c-41.35-23.87-108.38-23.87-149.72,0-19.46,11.23-29.75,25.74-30.89,40.44,1.15,14.71,11.44,29.22,30.89,40.46,41.34,23.86,108.38,23.86,149.72,0,19.44-11.23,29.75-25.74,30.89-40.44-1.15-14.71-11.45-29.22-30.89-40.45Z" style="fill:#f29919; fill-rule:evenodd;"/><path d="M1046.17,1220.84l19.9-11.49c7.12,8.71-7.06,15.93-19.9,11.49h0Zm53.21-45.32l-18.83,10.88c-6.01-7.27,5.43-14.66,18.83-10.88h0Zm25.28-14.42l-4.44,2.57c-38.2-20.05-92.57,6.46-62.27,35.77l-25.72,14.86c-3.52-3.04-5.99-6.32-7.38-9.86-1.75-4.42-8.78-7.43-16.59-6.93-7.52,.48-13.12,1.65-13.59,5.73-.1,.9,.05,4.2,.47,5.13,2.85,6.08,8.66,12.51,17.16,17.41l-5.1-.73c-.95,.55-.56,4.46-.56,5.17s.47,1.46,1.42,2l5.57,3.23c1.91,1.1,5,1.1,6.91,0l4.39-2.53c21.68,8.7,43.62,8.68,60.59-1.11,16.02-9.25,17.27-21.2,3.75-35.86l22.13-12.76c1.08,1.18,2.01,2.63,2.76,4.39,1.89,4.36,9.1,7.24,16.82,6.74,9.98-.63,16.71-7,13.31-12.45-2.5-4.02-6.51-7.26-11.52-10.76l4.6-2.65c.9-.52,1.33-1.2,1.3-1.88-.02-.64,.5-4.65-.35-5.14l-7.35-.33c-1.74-1.01-4.57-1.01-6.3,0Z" style="fill:#e68600; fill-rule:evenodd;"/><path d="M1046.17,1216.67l19.9-11.49c7.12,8.71-7.06,15.93-19.9,11.49h0Zm53.21-45.32l-18.83,10.88c-6.01-7.28,5.43-14.67,18.83-10.88h0Zm25.28-14.42l-4.44,2.57c-38.2-20.05-92.57,6.46-62.27,35.76l-25.72,14.86c-3.52-3.04-5.99-6.32-7.38-9.86-1.75-4.41-8.78-7.44-16.59-6.94-9.16,.61-15.5,5.73-13.12,10.88,2.85,6.07,8.66,12.51,17.16,17.41l-4.24,2.44c-1.91,1.11-1.91,2.9,0,3.99l5.57,3.23c1.91,1.09,5,1.09,6.91,0l4.39-2.53c21.68,8.69,43.62,8.67,60.59-1.11,16.02-9.25,17.27-21.21,3.75-35.86l22.13-12.77c1.08,1.18,2.01,2.64,2.76,4.39,1.89,4.36,9.1,7.22,16.82,6.73,9.98-.63,16.45-6.47,13.05-11.94-2.5-4.01-6.25-7.78-11.26-11.26l4.6-2.66c1.74-1,1.74-2.64,0-3.64l-6.41-3.69c-1.74-1.01-4.57-1.01-6.3,0Z" style="fill:#f6b039; fill-rule:evenodd;"/><path d="M1160.56,1235.78c-52.45,30.28-137.45,30.28-189.9,0-24.66-14.23-37.72-32.63-39.19-51.27-.08-1.13-.14-36.69-.14-37.82-.08-19.88,13.02-5.36,39.33-20.55,52.42-30.27,137.45-30.27,189.9,0,26.05,15.05,39.15,.3,39.32,20.01,0,1.09-.03,36.64-.1,37.75-1.21,18.85-14.3,37.49-39.22,51.88Z" style="fill:#aab9de; fill-rule:evenodd;"/><path d="M932.96,1138.24c.55,.41,.91,1.06,.91,1.8v55.96c-1.29-3.79-2.09-7.64-2.4-11.48-.08-1.11-.14-36.69-.14-37.82-.01-4.08,.53-6.72,1.63-8.46Z" style="fill:#d0d9ee; fill-rule:evenodd;"/><path d="M941.26,1146.71v63.56c-1.73-2.44-3.23-4.92-4.5-7.43v-56.13c0-1.23,1.01-2.24,2.24-2.24l.21,.02c1.15,.1,2.05,1.06,2.05,2.22Z" style="fill:#d0d9ee; fill-rule:evenodd;"/><path d="M948.65,1153.39v64.77c0,.27-.05,.54-.14,.78-1.58-1.62-3.06-3.28-4.42-4.95v-60.6c0-1.23,1.03-2.25,2.26-2.25l.21,.02c1.17,.08,2.1,1.06,2.1,2.23Z" style="fill:#d0d9ee; fill-rule:evenodd;"/><path d="M956.05,1160.07v64.74c0,.3-.06,.58-.17,.85-1.56-1.27-3.04-2.56-4.45-3.87v-61.72c0-1.25,1.03-2.26,2.26-2.26h.23c1.18,.08,2.14,1.06,2.14,2.26Z" style="fill:#d0d9ee; fill-rule:evenodd;"/><path d="M963.42,1166.76v64.5c-1.61-1.09-3.16-2.2-4.65-3.32v-61.18c0-1.25,1.03-2.27,2.27-2.27h.21c1.21,.09,2.17,1.06,2.17,2.27Z" style="fill:#d0d9ee; fill-rule:evenodd;"/><path d="M970.82,1173.44v62.43l-.16-.09c-1.57-.91-3.09-1.83-4.57-2.77v-59.57c0-1.27,1.03-2.29,2.29-2.29h.22c1.22,.08,2.21,1.06,2.21,2.29Z" style="fill:#d0d9ee; fill-rule:evenodd;"/><path d="M978.21,1180.12v59.7c-1.62-.8-3.21-1.63-4.78-2.49v-57.21c0-1.27,1.03-2.31,2.29-2.31h.22c1.25,.09,2.26,1.06,2.26,2.31Z" style="fill:#d0d9ee; fill-rule:evenodd;"/><path d="M985.6,1186.8v56.43c-1.63-.7-3.25-1.42-4.84-2.17v-54.26c0-1.28,1.04-2.32,2.32-2.32h.23c1.25,.07,2.29,1.06,2.29,2.32Z" style="fill:#d0d9ee; fill-rule:evenodd;"/><path d="M988.1,1244.28v-50.79c0-1.29,1.04-2.34,2.32-2.34h.22c1.29,0,2.35,1.06,2.35,2.34v52.7c-1.65-.62-3.28-1.25-4.89-1.91Z" style="fill:#d0d9ee; fill-rule:evenodd;"/><path d="M997.52,1247.8v-52.93c0-1.28,1.06-2.32,2.34-2.32h.25c1.28,0,2.34,1.04,2.34,2.32v54.52c-1.66-.51-3.3-1.04-4.93-1.59Z" style="fill:#d0d9ee; fill-rule:evenodd;"/><path d="M1006.96,1250.72v-54.45c0-1.3,1.04-2.34,2.34-2.34h.26c1.29,0,2.35,1.04,2.35,2.34v55.77c-1.66-.42-3.31-.86-4.95-1.32Z" style="fill:#d0d9ee; fill-rule:evenodd;"/><path d="M1016.39,1253.11v-55.44c0-1.29,1.06-2.35,2.36-2.35h.26c1.3,0,2.36,1.06,2.36,2.35v56.51c-1.67-.33-3.33-.69-4.98-1.07Z" style="fill:#d0d9ee; fill-rule:evenodd;"/><path d="M1025.83,1255.02v-55.96c0-1.29,1.06-2.35,2.35-2.35h.29c1.3,0,2.37,1.06,2.37,2.35v56.8c-1.68-.26-3.34-.54-5-.84Z" style="fill:#d0d9ee; fill-rule:evenodd;"/><path d="M1035.25,1256.49v-56.03c0-1.3,1.06-2.35,2.36-2.35h.31c1.29,0,2.37,1.06,2.37,2.35v56.65c-1.68-.18-3.36-.39-5.04-.62Z" style="fill:#d0d9ee; fill-rule:evenodd;"/><path d="M1044.67,1257.54v-55.69c0-1.3,1.08-2.36,2.38-2.36h.31c1.3,0,2.38,1.06,2.38,2.36v56.1c-1.69-.11-3.38-.25-5.07-.4Z" style="fill:#d0d9ee; fill-rule:evenodd;"/><path d="M1054.12,1258.2v-54.95c0-1.32,1.07-2.38,2.38-2.38h.33c1.3,0,2.38,1.06,2.38,2.38v55.14c-1.69-.04-3.39-.12-5.08-.2Z" style="fill:#d0d9ee; fill-rule:evenodd;"/><path d="M1063.54,1258.48v-53.84c0-1.3,1.08-2.38,2.39-2.38h.33c1.32,0,2.4,1.07,2.4,2.38v53.82c-1.71,.02-3.42,.02-5.12,.01Z" style="fill:#d0d9ee; fill-rule:evenodd;"/><path d="M1073.14,1258.37v-55.16c0-1.3,1.07-2.38,2.37-2.38h.33c1.32,0,2.38,1.07,2.38,2.38v54.95c-1.69,.09-3.38,.16-5.08,.22Z" style="fill:#d0d9ee; fill-rule:evenodd;"/><path d="M1082.74,1257.86v-56.1c0-1.3,1.07-2.38,2.38-2.38h.31c1.3,0,2.38,1.07,2.38,2.38v55.67c-1.68,.16-3.37,.3-5.07,.43Z" style="fill:#d0d9ee; fill-rule:evenodd;"/><path d="M1092.33,1256.94v-56.62c0-1.3,1.07-2.36,2.38-2.36h.3c1.3,0,2.36,1.06,2.36,2.36v55.98c-1.67,.24-3.35,.45-5.03,.64Z" style="fill:#d0d9ee; fill-rule:evenodd;"/><path d="M1101.93,1255.61v-56.73c0-1.3,1.07-2.36,2.36-2.36h.29c1.29,0,2.36,1.06,2.36,2.36v55.86c-1.66,.31-3.34,.6-5.01,.87Z" style="fill:#d0d9ee; fill-rule:evenodd;"/><path d="M1111.52,1253.83v-56.39c0-1.3,1.06-2.36,2.36-2.36h.28c1.29,0,2.35,1.06,2.35,2.36v55.28c-1.65,.39-3.32,.75-4.99,1.1Z" style="fill:#d0d9ee; fill-rule:evenodd;"/><path d="M1121.14,1251.57v-55.56c0-1.3,1.04-2.35,2.35-2.35h.24c1.3,0,2.35,1.04,2.35,2.35v54.2c-1.64,.47-3.28,.93-4.93,1.36Z" style="fill:#d0d9ee; fill-rule:evenodd;"/><path d="M1130.74,1248.78v-54.22c0-1.3,1.04-2.35,2.32-2.35h.24c1.28,0,2.34,1.04,2.34,2.35v52.55c-1.62,.58-3.25,1.13-4.9,1.67Z" style="fill:#d0d9ee; fill-rule:evenodd;"/><path d="M1140.34,1245.38v-52.28c0-1.27,1.04-2.32,2.33-2.32h.23c1.28,0,2.32,1.06,2.32,2.32v50.3c-1.6,.68-3.23,1.34-4.88,1.98Z" style="fill:#d0d9ee; fill-rule:evenodd;"/><path d="M1152.05,1186.94v53.34c-1.59,.77-3.2,1.52-4.84,2.24v-55.58c0-1.29,1.04-2.33,2.33-2.33h.22c1.25,.07,2.29,1.06,2.29,2.33Z" style="fill:#d0d9ee; fill-rule:evenodd;"/><path d="M1158.87,1180.77v55.96c-1.57,.88-3.16,1.73-4.78,2.55v-58.5c0-1.27,1.04-2.29,2.3-2.29h.23c1.25,.07,2.25,1.04,2.25,2.29Z" style="fill:#d0d9ee; fill-rule:evenodd;"/><path d="M1165.69,1174.6v58.04c-1.52,.98-3.09,1.95-4.72,2.89v-60.93c0-1.27,1.02-2.29,2.29-2.29h.23c1.21,.07,2.2,1.06,2.2,2.29Z" style="fill:#d0d9ee; fill-rule:evenodd;"/><path d="M1172.51,1168.42v59.46c-1.5,1.13-3.05,2.24-4.67,3.34v-62.8c0-1.25,1.03-2.27,2.27-2.27h.22c1.2,.09,2.17,1.06,2.17,2.27Z" style="fill:#d0d9ee; fill-rule:evenodd;"/><path d="M1179.33,1162.25v59.96c-1.45,1.33-2.99,2.64-4.6,3.94v-63.9c0-1.23,1.01-2.26,2.26-2.26h.22c1.18,.1,2.12,1.06,2.12,2.26Z" style="fill:#d0d9ee; fill-rule:evenodd;"/><path d="M1186.17,1156.08v59.06c-1.41,1.66-2.94,3.29-4.57,4.9v-63.96c0-1.23,1.01-2.26,2.26-2.26l.21,.02c1.16,.08,2.1,1.06,2.1,2.23Z" style="fill:#d0d9ee; fill-rule:evenodd;"/><path d="M1192.99,1149.9v55.63c-1.31,2.27-2.81,4.51-4.49,6.72v-62.35c0-1.23,1.01-2.23,2.22-2.23h.23c1.15,.12,2.04,1.07,2.04,2.23Z" style="fill:#d0d9ee; fill-rule:evenodd;"/><path d="M1195.37,1200.94v-57.2c0-1.23,1.01-2.22,2.23-2.22,1.01,0,1.86,.67,2.13,1.59,.04,.36,.07,.72,.09,1.1v35.97c0,2.12-.02,3.51-.04,3.72-.37,5.74-1.84,11.45-4.41,17.04Z" style="fill:#d0d9ee; fill-rule:evenodd;"/><path d="M1160.56,1201.33c-52.45,30.28-137.45,30.28-189.9,0-52.45-30.26-52.45-79.34,0-109.63,52.42-30.27,137.45-30.27,189.9,0,52.42,30.28,52.42,79.37,0,109.63Z" style="fill:#bcc9e7; fill-rule:evenodd;"/><path d="M1155.99,1198.71c-49.91,28.81-130.86,28.81-180.77,0-49.91-28.82-49.91-75.54,0-104.37,49.91-28.83,130.84-28.81,180.77,0,49.91,28.83,49.91,75.55,0,104.37Z" style="fill:#fff; fill-rule:evenodd;"/><path d="M1140.46,1189.73c-41.34,23.88-108.36,23.88-149.72,0-41.34-23.86-41.34-62.56,0-86.44,41.34-23.87,108.38-23.87,149.72,0,41.36,23.88,41.36,62.58,0,86.44Z" style="fill:#d0d9ee; fill-rule:evenodd;"/><path d="M1140.46,1108.86c-41.34-23.88-108.38-23.88-149.72-.02-19.44,11.23-29.75,25.74-30.89,40.46,1.14,14.7,11.45,29.2,30.89,40.43,41.36,23.88,108.38,23.88,149.72,0,19.46-11.23,29.75-25.74,30.91-40.43-1.16-14.7-11.45-29.21-30.91-40.44Z" style="fill:#e9eff8; fill-rule:evenodd;"/><path d="M1038.71,1173.33l19.91-11.5c7.11,8.71-7.05,15.93-19.91,11.5h0Zm53.23-45.33l-18.85,10.88c-5.99-7.28,5.43-14.65,18.85-10.88h0Zm25.27-14.41l-4.44,2.55c-38.2-20.05-92.55,6.45-62.25,35.77l-25.74,14.86c-3.53-3.02-5.97-6.32-7.38-9.84-1.74-4.43-8.78-7.44-16.59-6.94-7.5,.49-13.12,1.65-13.57,5.74-.1,.89,.04,4.2,.46,5.12,2.84,6.09,8.66,12.51,17.17,17.42l-5.1-.75c-.95,.55-.57,4.46-.57,5.19s.49,1.44,1.44,2l5.57,3.21c1.91,1.09,5,1.09,6.9,0l4.39-2.53c21.68,8.69,43.62,8.69,60.57-1.11,16.04-9.25,17.29-21.21,3.75-35.86l22.15-12.78c1.07,1.18,2,2.66,2.76,4.42,1.89,4.33,9.07,7.21,16.79,6.73,10-.65,16.74-7,13.33-12.46-2.5-4.01-6.53-7.25-11.52-10.76l4.6-2.65c.9-.52,1.34-1.19,1.3-1.87-.04-.65,.48-4.64-.34-5.13l-7.37-.33c-1.75-1-4.56-1-6.32,0Z" style="fill:#d0d9ee; fill-rule:evenodd;"/><path d="M1038.71,1169.15l19.91-11.49c7.11,8.71-7.05,15.94-19.91,11.49h0Zm53.23-45.31l-18.85,10.88c-5.99-7.27,5.43-14.64,18.85-10.88h0Zm25.27-14.42l-4.44,2.57c-38.2-20.05-92.55,6.45-62.25,35.77l-25.74,14.85c-3.53-3.02-5.97-6.32-7.38-9.84-1.74-4.42-8.78-7.44-16.59-6.94-9.15,.59-15.5,5.73-13.11,10.87,2.84,6.07,8.66,12.51,17.17,17.42l-4.24,2.44c-1.91,1.09-1.91,2.88,0,3.99l5.57,3.21c1.91,1.09,5,1.09,6.9,0l4.39-2.53c21.68,8.69,43.62,8.68,60.57-1.11,16.04-9.25,17.29-21.21,3.75-35.85l22.15-12.78c1.07,1.18,2,2.65,2.76,4.39,1.89,4.36,9.07,7.24,16.79,6.75,10-.65,16.46-6.49,13.06-11.96-2.5-4.01-6.25-7.76-11.25-11.26l4.6-2.65c1.74-1.01,1.74-2.64,0-3.63l-6.41-3.71c-1.75-1.01-4.56-1.01-6.32,0Z" style="fill:#fff; fill-rule:evenodd;"/><polygon points="1024.29 1498.15 1019.24 1585.73 1191.3 1441.79 1196.35 1354.21 1024.29 1498.15" style="fill:#aab9de; fill-rule:evenodd;"/><path d="M663.34,1214.1c-20.33-8-47.68-5.36-61.11,5.88-13.45,11.25-7.89,26.85,12.41,34.86,20.32,8,47.67,5.36,61.11-5.88,13.45-11.25,7.9-26.86-12.41-34.86Z" style="fill:#aab9de; fill-rule:evenodd;"/><polygon points="582.2 1112.22 410.14 1256.14 591.03 1327.42 601.56 1318.6 433.61 1252.42 584.58 1126.14 752.34 1192.24 762.88 1183.41 582.2 1112.22" style="fill:#d0d9ee; fill-rule:evenodd;"/><path d="M584.58,1126.14l-150.97,126.28,167.95,66.17,21.9-18.35-30.58-12.05c-2.52-13.66-15.28-26.81-36.88-35.32l-65.19-25.68,74.17-62.03,65.18,25.7c21.05,8.27,46.15,10.45,68.75,7.28l31.56,12.43,21.89-18.34-167.76-66.1Z" style="fill:#aab9de; fill-rule:evenodd;"/><path d="M614.66,1254.84c20.3,7.99,47.64,5.35,61.08-5.89,13.45-11.25,7.9-26.86-12.44-34.87-20.3-7.99-47.65-5.35-61.08,5.89-13.45,11.25-7.89,26.85,12.44,34.86h0Zm15.53-63.96c21,8.26,46.1,10.44,68.7,7.27l31.56,12.43-107,89.67-30.58-12.05c-2.52-13.66-15.28-26.81-36.88-35.32l-65.19-25.68,74.17-62.03,65.23,25.71Z" style="fill:#d0d9ee; fill-rule:evenodd;"/><polygon points="763.68 1182.73 762.88 1183.41 752.34 1192.24 730.45 1210.58 623.45 1300.25 601.56 1318.6 591.03 1327.42 589.7 1328.54 622.33 1341.36 796.32 1195.58 763.68 1182.73" style="fill:#8d9fca; fill-rule:evenodd;"/><path d="M995.47,1344.98c-20.32-8.01-47.66-5.38-61.12,5.89-13.45,11.24-7.88,26.83,12.43,34.85,20.33,8.01,47.67,5.36,61.11-5.88,13.45-11.25,7.9-26.86-12.43-34.86Z" style="fill:#aab9de; fill-rule:evenodd;"/><path d="M946.81,1385.72c20.3,8,47.64,5.35,61.08-5.89,13.45-11.25,7.9-26.86-12.45-34.87-20.3-7.99-47.64-5.37-61.09,5.9-13.45,11.24-7.88,26.83,12.46,34.86h0Zm-48.54-109.01l105.2,41.46c3.85,12.43,16.17,24.17,35.98,31.97l78.66,31.01-77.39,64.74-78.7-31.02c-20.4-8.02-44.69-10.3-66.78-7.52l-104.09-41.02c33.64-.37,68.51-11.05,91.15-29.98,22.63-18.96,27.45-41.49,15.97-59.64Z" style="fill:#d0d9ee; fill-rule:evenodd;"/><path d="M892.76,1269.65l-114.89,96.28c4.38,.32,8.83,.45,13.28,.39,33.64-.37,68.51-11.05,91.15-29.98,22.63-18.96,27.45-41.49,15.97-59.64-1.55-2.43-3.38-4.79-5.51-7.06Z" style="fill:#aab9de; fill-rule:evenodd;"/><polygon points="889.47 1232.23 715.49 1378.02 748.12 1390.86 922.1 1245.06 889.47 1232.23" style="fill:#8d9fca; fill-rule:evenodd;"/><polygon points="796.32 1195.58 622.33 1341.36 589.7 1328.54 748.12 1390.86 749.36 1389.82 759.9 1380.99 777.87 1365.93 892.76 1269.65 910.68 1254.63 921.22 1245.81 922.1 1245.06 748.12 1390.86 715.49 1378.02 889.47 1232.23 796.32 1195.58" style="fill:#fff; fill-rule:evenodd;"/><path d="M1021.92,1484.24l150.96-126.29-262.19-103.32-17.92,15.02c2.13,2.27,3.96,4.63,5.51,7.06l105.2,41.46c3.85,12.43,16.17,24.17,35.98,31.97l78.66,31.01-77.39,64.74-78.64-31c-20.46-8.04-44.75-10.32-66.84-7.53l-104.09-41.02c-4.45,.05-8.9-.07-13.28-.39l-17.97,15.06,262.02,103.24Z" style="fill:#aab9de; fill-rule:evenodd;"/><polygon points="1024.29 1498.15 1196.35 1354.21 921.22 1245.81 910.68 1254.63 1172.88 1357.95 1021.92 1484.24 759.9 1380.99 749.36 1389.82 1024.29 1498.15" style="fill:#d0d9ee; fill-rule:evenodd;"/><polygon points="410.14 1256.14 405.09 1343.72 585.97 1415 591.03 1327.42 410.14 1256.14" style="fill:#bcc9e7; fill-rule:evenodd;"/><polygon points="589.7 1328.54 584.65 1416.11 743.06 1478.44 748.12 1390.86 589.7 1328.54" style="fill:#d0d9ee; fill-rule:evenodd;"/><polygon points="749.36 1389.82 744.31 1477.4 1019.24 1585.73 1024.29 1498.15 749.36 1389.82" style="fill:#bcc9e7; fill-rule:evenodd;"/><polygon points="748.12 1390.86 715.49 1378.02 712.54 1466.68 743.06 1478.44 748.12 1390.86" style="fill:#8d9fca; fill-rule:evenodd;"/><polygon points="622.33 1341.36 589.7 1328.54 584.65 1416.11 615.62 1428.3 622.33 1341.36" style="fill:#8d9fca; fill-rule:evenodd;"/><path d="M1308.76,695.55c-2.81-.96-12.26-3.16-23.28-6.87-11.31,4.61-26.21,3.24-44.7-4.08-7.04-11.16-7.68-22.52-1.92-34.07,14.58,6.95,27.38,9.62,38.4,8.03-13.69-9.02-15.81-14.38-6.36-16.06,.91,2.12,2.87,3.88,5.88,5.25,9.52,1.54,16.34,7.98,20.43,19.33,5.08,1.37,10.33,2.62,13.02,3.47-2.76,6.55-3.29,14.41-1.47,25Z" style="fill:#f5b58b; fill-rule:evenodd;"/><path d="M1568.02,409.72c35.23-4.57,61.83-2.15,73.21,14.76-1.44,10.3-4.54,23.71-9.31,40.22,2.07,3.93,5.1,5.98,9.1,6.14,5.01-9.78,9.21-15.62,12.59-17.52,16.78,7.53,13.62,19.12-9.46,34.81-1.36,5.41-2.66,9.88-3.9,13.42,20.77-4.65,38.15-23.23,40.59-31.26,24.23-47.75-2.79-67.92-17.25-75.28-6.38-47.29-75.05-5.49-109.46-28.29-13.68,18.89,3.23,42.58,13.89,43Z" style="fill:#0f3970; fill-rule:evenodd;"/><path d="M1676.77,624.03c-22.14,26.57-40.71,45.78-55.72,57.62,13.69-48.59,28.34-100.91,43.97-156.97,5.51,4.64,9.93,9.25,13.26,13.81,1.23,22.73,1.53,40.07,.9,52.03-8.11,6.41-14.63,10.43-19.57,12.05,7.47,6.77,13.19,13.92,17.16,21.46Z" style="fill:#0f3970; fill-rule:evenodd;"/><path d="M1538.11,611.09c10.76,23.85,22.85,45.5,36.28,64.97-3.96-59.37-5.97-109.4-6.03-150.09-6.02,3.37-10.51,6.6-13.82,10.12-.64,.75-1.25,1.49-1.83,2.24-6.36,22.72-10.48,40.5-12.35,53.35,5.94,2.72,10.96,5.07,15.06,7.05-5.57,3.75-11.35,7.87-17.31,12.35Z" style="fill:#0f3970; fill-rule:evenodd;"/><path d="M1678.27,538.49c34.13,19.79,62.05,37.33,83.74,52.62,14.64,55.78,22.57,116.04,23.79,180.78-2,74.4-9.41,128.23-18.19,157.25-12.81,.57-26.44-.7-31.49-5.57-2.78-65.44-3.48-118.55-2.11-159.32-9.36-21.5-17.6-37.57-24.69-48.21-3.1,22.15-7.37,41.35-8.39,61.14,3.61,40.53,5.38,88.94,16.22,145.21-13.5,12.95-43.36,20.66-89.56,23.15-8.67-106.56-10.85-194.52-6.55-263.91,15.02-11.84,33.58-31.04,55.72-57.62-3.98-7.54-9.7-14.69-17.16-21.46,4.94-1.62,11.46-5.64,19.57-12.05,.63-11.96,.33-29.3-.9-52.03Z" style="fill:#0f3d86; fill-rule:evenodd;"/><path d="M1574.39,676.06c-13.24,141.3-18.78,233.17-26.57,265.02-22.15-2.43-39.21-12.82-49.53-23.07,2.77-80.39,12.16-131.73,16.12-178.72-7.15-77.16-21.8-148.11-6.01-181.07,16.96-11.42,31.73-18.04,44.31-19.87-6.36,22.72-10.48,40.5-12.35,53.35,5.94,2.71,10.96,5.07,15.06,7.05-5.57,3.75-11.35,7.87-17.31,12.35,10.76,23.85,22.85,45.5,36.28,64.96Z" style="fill:#0f3d86; fill-rule:evenodd;"/><path d="M1488.37,581.16c6.33-7.76,13.01-15.41,20.03-22.95-10.94,22.85-7.27,63.94-1.6,112.7-11.03,13.68-34.78,38.12-55.12,53.32-41.73,2.4-86.45-7.28-155.37-28.13-2.79-7.17-1.89-19.07,.89-29.01,67.13,3.88,108.15,3.22,135.07,10.15,17.45-43.44,39.56-69.2,56.1-96.08Z" style="fill:#0f3d86; fill-rule:evenodd;"/><path d="M1621.33,560.77c12.16-15.94,22.25-30.48,33.33-39.56-1.19-4.86-1.98-8.49-3.32-12.17-.63-1.74-4.4-3.78-9.41-4.72,.45,.8,1.46,4.18,.63,4.71-.21,.14-.39,.31-.58,.47-11.76,9.51-24.17,17.71-39.41,24.93,7.28,8.47,12.32,17.37,18.75,26.34Z" style="fill:#406fb5; fill-rule:evenodd;"/><path d="M1573.62,525.46c-.31,10.37-.06,18.87,.75,25.52,2.5-7.63,7.11-13.85,13.83-18.67,1.03-8.74,1.72-16.93,2.08-24.59-7.31,2.75-12.87,8.67-16.66,17.75Z" style="fill:#406fb5; fill-rule:evenodd;"/><path d="M1559.08,849.54c4.01-44.61,8.7-102.87,15.32-173.48-3.89-58.34-5.89-107.66-6.02-147.96,1.61-.6,3.35-1.15,5.21-1.64-.27,9.91,0,18.08,.78,24.51,2.5-7.63,7.11-13.85,13.83-18.67,2.09,4.02,2.73,8.4,6.08,13.31,3.61-3.75,7.02-7.33,9.25-10.07,6.78,8.14,11.66,16.65,17.81,25.23,12.02-15.77,22.04-30.17,32.97-39.27,3.74,1.92,7.09,3.75,10.05,5.51-15.38,55.18-29.81,106.72-43.31,154.63-2.96,47.77-2.85,104.36,.34,169.75-5.42,.83-10.96,1.38-16.64,1.63v-.56c0-1.29-1.08-2.38-2.41-2.42l-23.33-.66c-1.33-.04-2.41,.99-2.41,2.29v.43c-5.72-.6-11.56-1.47-17.51-2.57Z" style="fill:#6998d0; fill-rule:evenodd;"/><path d="M1579.9,557.45c4.13-6.66,8.93-10.61,14.38-11.83,4.06,1.78,8.41,5.91,13.07,12.39-3.63,6.27-7.48,10.64-11.55,13.13,7.64,48.15,11.18,115.2,10.61,201.14-5.8,12.8-11.48,22.04-17.04,27.73-6.71-9.91-10.88-20.14-12.5-30.69,5.3-90.2,8.46-156.01,9.47-197.45-3.83-5.03-5.98-9.84-6.44-14.42Z" style="fill:#0f3d86; fill-rule:evenodd;"/><path d="M1607.34,540.4c2.68,3.6,5.12,7.25,7.57,10.95-2.24,1.49-5.11,3.23-8.61,5.22-3.11-4.14-6.09-7.2-8.92-9.18,3.4-2.52,6.73-4.85,9.97-6.98h0Zm-22.07-5.79c1.27,4.44,3.01,8.55,5.25,12.33-3.09,1.51-5.94,4-8.55,7.47-1.47-2.32-2.7-6.24-3.68-11.78,1.89-2.97,4.22-5.65,6.99-8.03Z" style="fill:#0f3d86; fill-rule:evenodd;"/><path d="M1505.2,1191.2c-.31-72.31,2.12-157.43,7.31-255.35,9.71,5.8,22.16,10.25,38.13,13.69,3.84-10.13,7.34-34.15,12.49-78.09,4.42,1.19,8.9,2.14,13.46,2.87v2.49c0,1.29,1.09,2.38,2.41,2.42l23.33,.66c1.33,.04,2.41-.99,2.41-2.29v-1.77c4.23-.19,8.51-.56,12.83-1.11,2.43,36.95,3.37,61.68,5.26,79.74,38.34-4.78,61.38-8.94,79.9-16.69,9.47,72.84,14.71,151.4,15.74,235.67,15.69,33.66,19.97,115.86,12.87,246.63-13.36,2.97-28.51,2.97-45.45,0-13.36-58.83-24.98-136.23-34.85-232.2-13.9-45.95-28.29-110.54-43.18-193.75-3,56.44-11.09,120.29-24.25,191.54,4.43,52.62-3.26,129.9-23.11,231.84-10.42,1-26.83-.48-49.24-4.44,2.28-82.89,.26-156.84-6.07-221.85Z" style="fill:#0f3d86; fill-rule:evenodd;"/><path d="M1622.84,954.46c-1.89-18.06-2.84-42.79-5.26-79.74,1.67-.21,3.34-.45,5.01-.71,1.31,22.84,2.98,46.69,5.01,71.55,33.28-1.8,58.07-6.3,74.38-13.51,.25,1.91,.51,3.82,.76,5.73-18.52,7.75-41.57,11.91-79.9,16.69h0Zm-72.2-4.92c-15.96-3.43-28.42-7.88-38.13-13.69,.11-2.18,.24-4.37,.35-6.56,9.43,5.7,21.22,10.27,34.96,11.78,3.28-13.41,6.16-37.46,9.39-71.37,1.96,.63,3.93,1.21,5.92,1.74-5.15,43.94-8.65,67.96-12.49,78.09Z" style="fill:#142d4d; fill-rule:evenodd;"/><path d="M1732.81,1441.97c-2.15,2.06-2.85,1.47-4.36,.46-2.47-13.51-27.96-15.08-34.28-1.29-1.88-.74-3.21-1.91-3.98-3.51-4.44,8.74-14.51,17.3-11.84,32.54,6.78,9.74,41.63,14.57,58.14-5.36,4.68-7.58-1.09-17.19-3.69-22.83h0Zm-175.79-14.85c4.26,11.56,5.21,21.05,.19,24.77-12.82,2.58-39.08,2.26-79.54,7.58-28.56-2.05-40.94-10.18-33.71-19.23,24.82,1.54,47.24-4.94,67.23-19.41,3.72,15.12,19,17.21,45.83,6.29Z" style="fill:#0f3970; fill-rule:evenodd;"/><path d="M1730.19,1420.32c.69,8.08,1.37,15.47,2.03,22.17-1.71,1.42-2.41,.86-3.78-.06-2.47-13.51-27.96-15.08-34.28-1.29l-.05-.02-.04-.02h0l-.04-.02-.04-.02h-.05s-.04-.03-.04-.03h-.01s-.04-.02-.04-.02l-.04-.02h-.01s-.03-.02-.03-.02l-.04-.02h-.01s-.02-.02-.02-.02l-.04-.02h-.02s-.02-.02-.02-.02l-.04-.02h-.02s-.02-.01-.02-.01l-.04-.02h-.02s-.02-.02-.02-.02l-.04-.02h-.02s-.02-.02-.02-.02h-.04s-.02-.02-.02-.02h-.01s-.04-.03-.04-.03l-.02-.02h-.01l-.04-.02h-.02s-.01-.02-.01-.02l-.04-.02-.03-.02h0l-.04-.02-.03-.02h0l-.04-.02-.03-.02h0l-.04-.02-.04-.02h0l-.11-.07-.04-.02h0l-.03-.02-.04-.02h0s-.03-.02-.03-.02l-.03-.02h-.01s-.02-.02-.02-.02l-.04-.02h-.01s-.02-.02-.02-.02l-.03-.02h-.01s-.02-.02-.02-.02l-.03-.02h-.02s-.05-.05-.05-.05h-.01s-.02-.02-.02-.02l-.04-.02h-.02s-.01-.02-.01-.02l-.04-.02h-.02s-.01-.02-.01-.02l-.03-.02-.02-.02-.04-.03-.02-.02h0s-.04-.03-.04-.03l-.02-.02h0s-.04-.04-.04-.04l-.02-.02h0s-.03-.03-.03-.03l-.03-.02h0c1.12-5.43,2.06-11.56,2.84-18.4,12.98,1.53,24.82,1.18,35.53-1.04h0Zm-214.36-6.49c-.98,3.57-2.29,6.7-3.92,9.38,.14,.39,.3,.78,.46,1.15,.74,1.68,1.66,3.14,2.79,4.38h.02c.37,.42,.76,.81,1.18,1.17l.02,.02c.13,.12,.26,.22,.39,.33l.05,.04c1.44,1.14,3.11,2.02,5.01,2.64h.04c.17,.07,.34,.12,.52,.17l.1,.02c.17,.05,.35,.1,.53,.15h.05c.19,.06,.38,.11,.57,.14h.04c.19,.05,.39,.09,.58,.13l.1,.02,.56,.1h.05c1.93,.31,4.05,.4,6.36,.28h.1s.69-.05,.69-.05h.11s.69-.07,.69-.07h.15s.69-.08,.69-.08h.13s.75-.11,.75-.11h.02l.78-.11,.18-.02c1.91-.28,3.92-.69,6.03-1.22l.24-.06,.83-.21,.1-.04,.81-.22,.25-.07,.74-.21,.27-.07,.74-.22,.32-.1,.76-.24,.22-.06,.84-.28,.22-.07,.84-.28,.19-.06,.89-.3,.22-.08,.88-.31,1.09-.4c.69-.25,1.4-.52,2.11-.79l.16-.06,1.1-.43c-.04-3.25,.13-6.58,.5-9.99-9.59,.27-22.97-1.04-40.15-3.92Z" style="fill:#f5b58b; fill-rule:evenodd;"/><path d="M1501.5,592.94c-.84,21.59,1.86,48.36,5.3,77.96-11.03,13.68-34.78,38.12-55.12,53.32-41.73,2.4-86.45-7.28-155.37-28.13,50.1,11.33,101.31,18.05,153.65,20.14,10.6-7.63,26.89-23.71,48.86-48.25-.69-18.75,.2-43.77,2.68-75.04Z" style="fill:#142d4d; fill-rule:evenodd;"/><path d="M1695.52,775.49c2.41-30.08,4.68-55.97,6.81-77.65,1.53,6.17,3.85,12.24,6.99,18.2-3.1,22.15-7.37,41.35-8.39,61.14,3.61,40.53,5.38,88.94,16.22,145.21-1.23,1.18-2.6,2.32-4.11,3.41-8.83-34.68-14.67-84.78-17.53-150.32Z" style="fill:#142d4d; fill-rule:evenodd;"/><path d="M1622.59,874c-23.25,3.66-45.04,2.23-65.38-4.3,.6-6.38,1.22-13.1,1.86-20.17,22.41,4.17,43.18,4.79,62.31,1.86,.36,7.43,.76,14.96,1.21,22.61Z" style="fill:#9d7558; fill-rule:evenodd;"/><path d="M1602.34,850.05l-23.34-.66c-1.32-.04-2.4,1.01-2.4,2.34v25.02c0,1.33,1.08,2.44,2.4,2.48l23.34,.66c1.33,.04,2.41-1.02,2.41-2.34v-25.02c0-1.33-1.08-2.44-2.41-2.48Z" style="fill:#fff; fill-rule:evenodd;"/><polygon points="1600.11 854.52 1600.11 875.29 1581.23 874.76 1581.23 853.99 1600.11 854.52" style="fill:#9d7558; fill-rule:evenodd;"/><path d="M1669.78,526.26c-.88,.06-1.84,.09-2.84,.09l.84,.76,1.99-.84h0Zm-5.22,.02c-.55-.03-1.1-.07-1.65-.11,.49,.28,.97,.56,1.44,.84l.21-.74h0Zm-21.41-17.72c-11.39,9.32-23.32,17.4-37.8,24.54-.91,.45-1.83,.9-2.77,1.34,.32,.37,.63,.74,.94,1.12-1.96,2.39-4.8,5.44-7.9,8.67-1.01-.29-1.95-.63-2.82-1.03-2.13-3.94-2.87-7.54-4.6-10.88,.23-1.95,.44-3.87,.63-5.76,.22-2.28,.95-10.44,1.3-12.67-1.17-.08-2.29-.17-3.38-.29-1.34-.17-2.92-.43-4.72-.76l-.07,.07c-14.21-2.68-20.09-9.97-17.65-21.84-5.74-24.52-6.55-45.79-.31-51.53,1.04-10.49,2.38-20.41,4.02-29.8,35.23-4.56,61.83-2.15,73.21,14.76-1.44,10.3-4.54,23.71-9.31,40.22,2.07,3.93,5.1,5.98,9.1,6.14,5.02-9.78,9.21-15.62,12.59-17.52,16.78,7.52,13.62,19.12-9.46,34.8-1.36,5.41-2.66,9.88-3.9,13.42,.6,1.97,1.59,4.36,2.91,7.01Z" style="fill:#f5b58b; fill-rule:evenodd;"/><path d="M1590.13,513.87c6.27,.54,13.33,.33,21.2-.65-7.44,4.94-14.85,8.48-22.23,10.6,.14-1.45,.27-2.89,.39-4.32,.24-2.37,.48-4.62,.64-5.64Z" style="fill:#ed7d5b; fill-rule:evenodd;"/><polygon points="1640.51 987.24 1650.07 1209.22 1892.23 1183.72 1863.55 987.24 1640.51 987.24" style="fill:#e3bb9b; fill-rule:evenodd;"/><path d="M1609.7,1181.86c19.5,7.17,30.79,16.98,40.37,27.35l-9.56-221.98-10.88-.28-19.92,194.9Z" style="fill:#9d7558; fill-rule:evenodd;"/><path d="M1640.51,987.24l28.16,89.04c4.05,9.88,8.2,18.51,24.61,17.16l155.41-9.86c13.86-.88,14.19-7.88,14.3-17.37v-78.97h-222.49Z" style="fill:#9d7558; fill-rule:evenodd;"/><path d="M1752.69,1077.62l39.53-2.55c2.17-.14,4.35,1.38,4.68,3.55l5.38,35.11c.33,2.16-1.04,4.16-3.17,4.37l-41.12,4.16c-2.15,.22-4.46-1.36-4.68-3.55l-3.78-36.71c-.22-2.2,1-4.23,3.17-4.38Z" style="fill:#fff; fill-rule:evenodd;"/><polygon points="1760 1087.08 1762.55 1111.85 1791.52 1108.92 1787.9 1085.28 1760 1087.08" style="fill:#9d7558; fill-rule:evenodd;"/><path d="M1686.96,987.24c2.42-8.61,8.09-15.79,15.75-21.4,3.29-2.43,6.97-4.54,10.91-6.35,2.34-6.06,16.38-11.17,33.54-11.82,18.17-.7,33.24,3.85,34.72,10.28,1.15,.5,2.27,1.03,3.37,1.59,11.4,5.85,19.93,14.99,22.69,27.71h-8.36c-2.68-9.33-9.31-16.12-17.99-20.57-1.17-.6-2.38-1.15-3.62-1.67-5.69,4.07-16.88,7.11-29.85,7.61-13.58,.52-25.43-1.89-31.18-5.83-3.44,1.58-6.64,3.43-9.5,5.53-5.47,4.01-9.67,9.01-11.9,14.94h-8.58Z" style="fill:#9d7558; fill-rule:evenodd;"/><path d="M1726.64,957.63c-.13,5.33-2.05,13.39,1.35,17.24,8.93,10.07,30.77,10.77,40.16,4.3,4.04-2.78,4.51-11.87,4.62-17.69-4.83-12.34-7.45-23.75-7.84-34.24-9.56-6.35-24-6.96-28.81-3.66l-9.48,34.05Z" style="fill:#f5b58b; fill-rule:evenodd;"/></svg>