<?xml version="1.0" encoding="UTF-8"?><svg id="a" xmlns="http://www.w3.org/2000/svg" viewBox="0 0 2211.87 1476.77"><path d="M1126.63,0c257.53,0,365.96,180.97,551.87,321.71,246.02,186.21,492.01,64.99,531.4,694.2,35.08,560.06-402.4,60.68-1019.24,261.31C573.81,1477.77-54.32,1558.61,131.99,909.53,318.44,260.45,528.41,0,1126.63,0Z" style="fill:#e0e8f5; fill-rule:evenodd;"/><path d="M100.75,1157.86H2205.82c-53.62,321.85-462.34-60.47-1015.16,119.36-522.68,170-1053.42,253.85-1089.92-119.36Z" style="fill:#c4d1eb; fill-rule:evenodd;"/><path d="M245.73,1414.36c135.71,0,245.73,13.99,245.73,31.2s-110.01,31.21-245.73,31.21S0,1462.78,0,1445.56s109.94-31.2,245.73-31.2Z" style="fill:#c4d1eb; fill-rule:evenodd;"/><path d="M1854.19,1314.08c161.42,0,292.27,13.99,292.27,31.2s-130.86,31.2-292.27,31.2-292.23-13.91-292.23-31.2,130.86-31.2,292.23-31.2Z" style="fill:#c4d1eb; fill-rule:evenodd;"/><path d="M1764.5,436.55c90.13,0,163.2,71.8,163.2,160.39s-73.08,160.38-163.2,160.38-163.2-71.8-163.2-160.38,73.08-160.39,163.2-160.39Z" style="fill:#c4d1eb; fill-rule:evenodd;"/><path d="M1764.5,460.22c76.84,0,139.18,61.18,139.18,136.72s-62.34,136.79-139.18,136.79-139.18-61.26-139.18-136.79,62.31-136.72,139.18-136.72Z" style="fill:#fff; fill-rule:evenodd;"/><path d="M1764.5,469.61c71.55,0,129.58,57.03,129.58,127.32s-58.04,127.32-129.58,127.32-129.58-57.02-129.58-127.32,58-127.32,129.58-127.32Z" style="fill:#b0c2e4; fill-rule:evenodd;"/><path d="M1803.89,531.3c-6.65-3.37-16.1-6.74-28.95-7.17v-20.87h-19.68v22.45c-21.35,4.81-33.98,19.8-33.98,39.17s13.87,30.2,33.36,39.31c18.51,7.89,25.12,14.35,25.12,24.46s-7.05,17.58-21.5,17.58c-12.67,0-24.53-4.37-32.38-8.9l-6.03,22.17c7.66,4.31,20.7,8.25,33.59,8.68v22.45h19.71v-24.02c22.7-4.38,35.95-20.59,35.95-40.75s-10.84-31.56-34.57-42.03c-15.88-7.68-24.53-13.27-24.53-22.31,0-7.75,6.86-15.85,20.3-15.85,11.68,0,21.54,4.16,27.55,7.17l6.03-21.52Z" style="fill:#fff; fill-rule:evenodd;"/><path d="M245.87,311.52c72.5,0,131.26,57.74,131.26,128.97s-58.77,128.9-131.26,128.9-131.11-57.74-131.11-128.9,58.69-128.97,131.11-128.97Z" style="fill:#c4d1eb; fill-rule:evenodd;"/><path d="M245.87,330.53c61.84,0,111.92,49.21,111.92,109.96s-50.08,109.89-111.92,109.89-111.84-49.21-111.84-109.89,50.08-109.96,111.84-109.96Z" style="fill:#fff; fill-rule:evenodd;"/><path d="M245.87,338.13c57.53,0,104.25,45.83,104.25,102.36s-46.72,102.28-104.25,102.28-104.1-45.76-104.1-102.28,46.58-102.36,104.1-102.36Z" style="fill:#b0c2e4; fill-rule:evenodd;"/><path d="M277.56,387.7c-5.33-2.73-12.92-5.45-23.21-5.74v-16.86h-15.85v18.15c-17.16,3.8-27.37,15.85-27.37,31.42s11.25,24.32,26.86,31.56c14.89,6.38,20.15,11.62,20.15,19.72s-5.62,14.13-17.23,14.13c-10.23,0-19.71-3.51-25.99-7.17l-4.82,17.79c6.13,3.52,16.57,6.67,26.86,6.96v18.15h15.91v-19.37c18.25-3.52,28.91-16.5,28.91-32.71s-8.76-25.39-27.75-33.86c-12.85-6.17-19.71-10.62-19.71-17.93,0-6.17,5.41-12.69,16.28-12.69,9.35,0,17.3,3.37,22.12,5.74l4.82-17.29Z" style="fill:#fff; fill-rule:evenodd;"/><path d="M446.05,564.01c90.09,0,163.24,71.8,163.24,160.39s-73.15,160.39-163.24,160.39-163.24-71.8-163.24-160.39,73.15-160.39,163.24-160.39Z" style="fill:#c4d1eb; fill-rule:evenodd;"/><ellipse cx="446.05" cy="724.4" rx="139.15" ry="136.72" style="fill:#fff;"/><ellipse cx="446.05" cy="724.4" rx="129.59" ry="127.32" style="fill:#b0c2e4;"/><path d="M485.47,658.69c-6.72-3.3-16.06-6.67-28.91-7.1v-20.87h-19.71v22.45c-21.32,4.8-34.02,19.8-34.02,39.16s13.87,30.2,33.43,39.31c18.4,7.89,25.04,14.35,25.04,24.46s-7.01,17.58-21.54,17.58c-12.55,0-24.53-4.38-32.26-8.9l-6.06,22.1c7.67,4.37,20.66,8.32,33.51,8.75v22.45h19.71v-24.03c22.77-4.37,36.06-20.59,36.06-40.74s-10.95-31.56-34.61-42.04c-15.91-7.67-24.53-13.27-24.53-22.31,0-7.74,6.87-15.78,20.3-15.78,11.68,0,21.47,4.09,27.52,7.03l6.06-21.52Z" style="fill:#fff; fill-rule:evenodd;"/><polygon points="411.01 381.17 411.01 427.72 1627.19 427.72 1627.19 381.17 1019.13 79.4 411.01 381.17" style="fill:#fff; fill-rule:evenodd;"/><polygon points="1627.19 408 1019.13 106.16 411.01 408 411.01 381.17 1019.13 79.4 1627.19 381.17 1627.19 408" style="fill:#c4d1eb; fill-rule:evenodd;"/><polygon points="1019.13 38.37 411.01 340.14 411.01 381.17 1019.13 79.4 1627.19 381.17 1627.19 340.14 1019.13 38.37" style="fill:#fff; fill-rule:evenodd;"/><polygon points="1489.54 371.06 548.69 371.06 1019.13 137.58 1489.54 371.06" style="fill:#c4d1eb; fill-rule:evenodd;"/><polygon points="604.25 358.07 1019.13 152.14 1434.02 358.07 604.25 358.07" style="fill:#fff; fill-rule:evenodd;"/><rect x="490.8" y="427.72" width="1059.84" height="59.68" style="fill:#fff;"/><rect x="490.8" y="441.93" width="1059.84" height="15.64" style="fill:#b0c2e4;"/><rect x="480.37" y="427.72" width="1080.75" height="14.2" style="fill:#c4d1eb;"/><rect x="480.37" y="473.2" width="1080.75" height="14.2" style="fill:#c4d1eb;"/><rect x="480.37" y="1029.1" width="1080.75" height="38.95" style="fill:#fff;"/><rect x="458.83" y="1068.05" width="1123.75" height="38.95" style="fill:#fff;"/><rect x="435.69" y="1107" width="1170.04" height="39.02" style="fill:#fff;"/><rect x="480.37" y="1056.36" width="1080.75" height="11.69" style="fill:#c4d1eb;"/><rect x="458.83" y="1095.38" width="1123.75" height="11.62" style="fill:#c4d1eb;"/><rect x="435.69" y="1134.33" width="1170.04" height="11.69" style="fill:#c4d1eb;"/><rect x="586.08" y="487.4" width="869.3" height="541.7" style="fill:#b0c2e4;"/><path d="M1352.47,650.87h-127.36v-93.11c19.75,0,35.78-15.78,35.78-35.22v-.71h55.81v.71c0,19.44,16.02,35.22,35.77,35.22v93.11h0Zm-246.39,0h-170.76v-93.11c19.71,0,35.78-15.78,35.78-35.22v-.71h99.25v.71c0,19.44,15.99,35.22,35.74,35.22v93.11Z" style="fill:#9db2d9; fill-rule:evenodd;"/><path d="M816.33,650.87h-126.44v-93.11c19.79,0,35.78-15.78,35.78-35.22v-.71h54.9v.71c0,19.44,16.06,35.22,35.77,35.22v93.11Z" style="fill:#9db2d9; fill-rule:evenodd;"/><path d="M725.66,521.83c-.37-19.08-16.28-34.43-35.78-34.43h662.59c-19.49,0-35.37,15.35-35.77,34.43h-55.81c-.4-19.08-16.28-34.43-35.78-34.43h-119.03c-19.49,0-35.33,15.35-35.74,34.43h-99.25c-.44-19.08-16.28-34.43-35.78-34.43h-119c-19.49,0-35.34,15.35-35.77,34.43h-54.9Z" style="fill:#859ac6; fill-rule:evenodd;"/><rect x="435.69" y="1146.02" width="1170.04" height="21.09" style="fill:#9db2d9;"/><path d="M898.75,302.41v18h11.02c1.97,0,3.65-.21,5.26-.5,1.6-.36,2.92-.93,3.94-1.65l2.63-2.66c.58-1.15,.87-2.44,.87-3.94,0-3.01-.87-5.31-2.77-6.89-1.9-1.58-4.75-2.37-8.47-2.37h-12.48Zm0-27.11v16.78h15.84c.66-.93,1.31-2.08,1.89-3.59,.51-1.51,.88-3.16,.88-5.02,0-2.73-.95-4.73-2.78-6.1-1.9-1.36-4.53-2.08-8.11-2.08h-7.74Zm-15.18-11.48h23.72c4.01,0,7.6,.43,10.66,1.29,3.14,.86,5.7,2.08,7.96,3.73,2.11,1.58,3.8,3.52,4.97,5.74,1.09,2.22,1.68,4.73,1.68,7.46,0,1.94-.29,3.66-.73,5.31-.58,1.5-1.24,2.94-2.04,4.16-.73,1.22-1.68,2.22-2.63,3.16l-2.77,2.22c4.09,1.15,7.3,3.09,9.63,5.67,2.27,2.73,3.36,6.1,3.36,10.11,0,2.94-.58,5.52-1.82,7.89-1.24,2.37-3,4.38-5.26,6.1-2.26,1.65-5.04,2.94-8.32,3.87-3.29,.93-6.93,1.43-11.02,1.43h-27.37v-68.14Z" style="fill:#c4d1eb; fill-rule:evenodd;"/><path d="M968.32,306.64h17.81l-8.91-26.83-8.91,26.83h0Zm21.47,11.05h-25.04l-4.75,14.27h-14.97l23.95-68.14h16.57l23.95,68.14h-15.04l-4.67-14.27Z" style="fill:#c4d1eb; fill-rule:evenodd;"/><polygon points="1019.57 263.82 1034.76 263.82 1064.43 309.73 1064.43 263.82 1079.69 263.82 1079.69 331.96 1064.43 331.96 1034.76 285.92 1034.76 331.96 1019.57 331.96 1019.57 263.82" style="fill:#c4d1eb; fill-rule:evenodd;"/><polygon points="1117.95 303.56 1110.03 303.56 1110.03 331.96 1094.8 331.96 1094.8 263.82 1110.03 263.82 1110.03 292.44 1117.98 292.44 1132.92 263.82 1148.72 263.82 1130.83 297.53 1152.41 331.96 1135.65 331.96 1117.95 303.56" style="fill:#c4d1eb; fill-rule:evenodd;"/><path d="M1063.7,1029.1h-85.97c0-16.71-13.79-30.27-30.88-30.27v-40.1c0-6.24-5.11-11.33-11.53-11.33v-120.08c11.25-35.79,45.26-61.76,85.41-61.76s74.03,25.89,85.35,61.68v120.15c-6.36,0-11.57,5.09-11.57,11.33v40.1c-17.01,0-30.81,13.56-30.81,30.27Z" style="fill:#9db2d9; fill-rule:evenodd;"/><rect x="816.33" y="487.4" width="119" height="541.7" style="fill:#fff;"/><path d="M863.93,937.36h-23.8v-372.64c11.32-6.24,19.86-16.71,23.43-29.19h.37v401.83Z" style="fill:#c4d1eb; fill-rule:evenodd;"/><path d="M911.53,937.36h-23.8v-401.83h.44c3.51,12.48,12.11,22.95,23.36,29.19v372.64Z" style="fill:#c4d1eb; fill-rule:evenodd;"/><path d="M935.33,570.75c-8.61,0-16.79-2.22-23.8-6.02v-15.85c6.27,5.52,14.67,8.89,23.8,8.89v12.98h0Zm-119,0v-12.98c9.13,0,17.45-3.37,23.8-8.89v15.85c-7.01,3.8-15.18,6.02-23.8,6.02h0Zm71.4-35.22h-23.8v-12.99h23.8v12.99Z" style="fill:#b0c2e4; fill-rule:evenodd;"/><path d="M840.13,564.73v-15.85c7.37-6.46,12.05-15.86,12.05-26.33h11.75v12.99h-.37c-3.57,12.48-12.11,22.95-23.43,29.19Z" style="fill:#9db2d9; fill-rule:evenodd;"/><path d="M911.53,564.73c-11.25-6.24-19.86-16.71-23.36-29.19h-.44v-12.99h11.83c0,10.47,4.6,19.87,11.98,26.33v15.85Z" style="fill:#9db2d9; fill-rule:evenodd;"/><rect x="816.33" y="487.4" width="119" height="35.14" style="fill:#fff;"/><path d="M935.33,947.4h-119c-6.42,0-11.54,5.09-11.54,11.33v70.37h142.06v-70.37c0-6.24-5.11-11.33-11.53-11.33Z" style="fill:#fff; fill-rule:evenodd;"/><path d="M946.86,998.83h-142.06c-17.08,0-30.81,13.56-30.81,30.27h203.75c0-16.71-13.79-30.27-30.88-30.27Z" style="fill:#fff; fill-rule:evenodd;"/><path d="M859.33,988.22h-25.33v-29.48c0-6.24,3.06-11.33,6.72-11.33h21.32c-1.46,0-2.7,5.09-2.7,11.33v29.48Z" style="fill:#c4d1eb; fill-rule:evenodd;"/><path d="M917.66,988.22h-25.25v-29.48c0-6.24-1.32-11.33-2.78-11.33h21.32c3.72,0,6.71,5.09,6.71,11.33v29.48Z" style="fill:#c4d1eb; fill-rule:evenodd;"/><path d="M852.18,1029.1h-36.43c0-16.71,8.18-30.27,18.25-30.27h25.33c-4.01,0-7.15,13.56-7.15,30.27Z" style="fill:#c4d1eb; fill-rule:evenodd;"/><path d="M935.84,1029.1h-36.28c0-16.71-3.21-30.27-7.15-30.27h25.25c10.08,0,18.18,13.56,18.18,30.27Z" style="fill:#c4d1eb; fill-rule:evenodd;"/><path d="M935.33,947.4h-23.8v-10.04h23.8v10.04h0Zm-47.6,0h-23.8v-10.04h23.8v10.04h0Zm-47.59,0h-23.8v-10.04h23.8v10.04Z" style="fill:#c4d1eb; fill-rule:evenodd;"/><rect x="840.13" y="937.36" width="23.8" height="10.04" style="fill:#b0c2e4;"/><rect x="887.73" y="937.36" width="23.8" height="10.04" style="fill:#b0c2e4;"/><path d="M946.86,998.83h-29.2v-10.62h29.2v10.62h0Zm-54.46,0h-33.07v-10.62h33.07v10.62h0Zm-58.4,0h-29.2v-10.62h29.2v10.62Z" style="fill:#c4d1eb; fill-rule:evenodd;"/><rect x="834" y="988.22" width="25.33" height="10.62" style="fill:#b0c2e4;"/><rect x="892.4" y="988.22" width="25.25" height="10.62" style="fill:#b0c2e4;"/><path d="M971.1,522.55c0-19.37-16.07-35.14-35.78-35.14s-35.77,15.78-35.77,35.14,15.99,35.22,35.77,35.22,35.78-15.78,35.78-35.22Z" style="fill:#fff; fill-rule:evenodd;"/><path d="M933.14,540.41c-9.93,0-18.03-7.82-18.25-17.57h24.89v-.29h11.53c0,9.9-8.11,17.86-18.18,17.86h0Zm-18.25-17.72v-.14h0v.14Z" style="fill:#c4d1eb; fill-rule:evenodd;"/><path d="M951.31,522.55h-11.53c-.14-6.6-5.62-11.91-12.41-11.91s-12.27,5.31-12.48,11.91h-15.33c0-14.06,11.53-25.39,25.84-25.39s25.91,11.34,25.91,25.39Z" style="fill:#c4d1eb; fill-rule:evenodd;"/><path d="M939.78,522.84h-24.89v-.29h24.89v.29Z" style="fill:#9db2d9; fill-rule:evenodd;"/><path d="M939.78,522.55h-24.89c.22-6.6,5.69-11.91,12.48-11.91s12.26,5.31,12.41,11.91Z" style="fill:#9db2d9; fill-rule:evenodd;"/><path d="M780.56,522.55c0-19.37,16.06-35.14,35.77-35.14s35.85,15.78,35.85,35.14-16.06,35.22-35.85,35.22-35.77-15.78-35.77-35.22Z" style="fill:#fff; fill-rule:evenodd;"/><path d="M818.52,540.41c-10,0-18.1-7.96-18.1-17.86h11.54c-.08,.14-.08,.22-.08,.29h24.9c-.15,9.75-8.25,17.57-18.26,17.57h0Zm18.26-17.72v-.14h0v.14Z" style="fill:#c4d1eb; fill-rule:evenodd;"/><path d="M852.18,522.55h-15.41c-.15-6.6-5.7-11.91-12.48-11.91s-12.19,5.31-12.34,11.91h-11.54c0-14.06,11.54-25.39,25.84-25.39s25.92,11.34,25.92,25.39Z" style="fill:#c4d1eb; fill-rule:evenodd;"/><path d="M836.77,522.84h-24.9c0-.07,0-.15,.08-.29h24.82v.29Z" style="fill:#9db2d9; fill-rule:evenodd;"/><path d="M836.77,522.55h-24.82c.14-6.6,5.62-11.91,12.34-11.91s12.34,5.31,12.48,11.91Z" style="fill:#9db2d9; fill-rule:evenodd;"/><rect x="1106.09" y="487.4" width="119.03" height="541.7" style="fill:#fff;"/><path d="M1153.72,937.36h-23.8v-372.71c11.28-6.17,19.86-16.64,23.4-29.12h.4v401.83Z" style="fill:#c4d1eb; fill-rule:evenodd;"/><path d="M1201.28,937.36h-23.8v-401.83h.4c3.55,12.48,12.09,22.95,23.4,29.12v372.71Z" style="fill:#c4d1eb; fill-rule:evenodd;"/><path d="M1225.11,570.75c-8.65,0-16.79-2.22-23.83-6.1v-15.85c6.31,5.59,14.67,8.97,23.83,8.97v12.98h0Zm-119.03,0v-12.98c9.16,0,17.48-3.37,23.83-8.89v15.78c-7.05,3.88-15.18,6.1-23.83,6.1h0Zm71.39-35.22h-23.76v-12.99h23.76v12.99Z" style="fill:#b0c2e4; fill-rule:evenodd;"/><path d="M1129.92,564.65v-15.78c7.33-6.46,11.97-15.86,11.97-26.33h11.83v12.99h-.4c-3.54,12.48-12.12,22.95-23.4,29.12Z" style="fill:#9db2d9; fill-rule:evenodd;"/><path d="M1201.28,564.65c-11.31-6.17-19.85-16.64-23.4-29.12h-.4v-12.99h11.79c0,10.47,4.67,19.87,12.01,26.26v15.85Z" style="fill:#9db2d9; fill-rule:evenodd;"/><rect x="1106.09" y="487.4" width="119.03" height="35.14" style="fill:#fff;"/><path d="M1225.11,947.4h-119.03c-6.36,0-11.57,5.09-11.57,11.33v70.37h142.14v-70.37c0-6.24-5.18-11.33-11.54-11.33Z" style="fill:#fff; fill-rule:evenodd;"/><path d="M1236.65,998.83h-142.14c-17.01,0-30.81,13.56-30.81,30.27h203.79c0-16.71-13.8-30.27-30.85-30.27Z" style="fill:#fff; fill-rule:evenodd;"/><path d="M1149.08,988.22h-25.37v-29.48c0-6.24,3.06-11.33,6.82-11.33h21.21c-1.46,0-2.67,5.09-2.67,11.33v29.48Z" style="fill:#c4d1eb; fill-rule:evenodd;"/><path d="M1207.45,988.22h-25.33v-29.48c0-6.24-1.2-11.33-2.7-11.33h21.25c3.76,0,6.78,5.09,6.78,11.33v29.48Z" style="fill:#c4d1eb; fill-rule:evenodd;"/><path d="M1141.89,1029.1h-36.32c0-16.71,8.14-30.27,18.15-30.27h25.37c-3.97,0-7.19,13.56-7.19,30.27Z" style="fill:#c4d1eb; fill-rule:evenodd;"/><path d="M1225.63,1029.1h-36.36c0-16.71-3.18-30.27-7.15-30.27h25.33c10.04,0,18.18,13.56,18.18,30.27Z" style="fill:#c4d1eb; fill-rule:evenodd;"/><path d="M1225.11,947.4h-23.83v-10.04h23.83v10.04h0Zm-47.63,0h-23.76v-10.04h23.76v10.04h0Zm-47.56,0h-23.83v-10.04h23.83v10.04Z" style="fill:#c4d1eb; fill-rule:evenodd;"/><rect x="1129.92" y="937.36" width="23.8" height="10.04" style="fill:#b0c2e4;"/><rect x="1177.48" y="937.36" width="23.8" height="10.04" style="fill:#b0c2e4;"/><path d="M1236.65,998.83h-29.2v-10.62h29.2v10.62h0Zm-54.53,0h-33.04v-10.62h33.04v10.62h0Zm-58.4,0h-29.2v-10.62h29.2v10.62Z" style="fill:#c4d1eb; fill-rule:evenodd;"/><rect x="1123.72" y="988.22" width="25.37" height="10.62" style="fill:#b0c2e4;"/><rect x="1182.12" y="988.22" width="25.33" height="10.62" style="fill:#b0c2e4;"/><path d="M1260.89,522.55c0-19.37-16.03-35.14-35.78-35.14s-35.84,15.78-35.84,35.14,16.06,35.22,35.84,35.22,35.78-15.78,35.78-35.22Z" style="fill:#fff; fill-rule:evenodd;"/><path d="M1222.89,540.41c-9.97,0-18.03-7.82-18.18-17.57h24.82v-.29h11.5c0,9.9-8.11,17.86-18.14,17.86h0Zm-18.18-17.72v-.14h0v.14Z" style="fill:#c4d1eb; fill-rule:evenodd;"/><path d="M1241.03,522.55h-11.5c-.14-6.6-5.65-11.91-12.41-11.91s-12.26,5.31-12.41,11.91h-15.44c0-14.06,11.61-25.39,25.92-25.39s25.84,11.34,25.84,25.39Z" style="fill:#c4d1eb; fill-rule:evenodd;"/><path d="M1229.53,522.84h-24.82v-.29h24.82v.29Z" style="fill:#9db2d9; fill-rule:evenodd;"/><path d="M1229.53,522.55h-24.82c.15-6.6,5.65-11.91,12.41-11.91s12.27,5.31,12.41,11.91Z" style="fill:#9db2d9; fill-rule:evenodd;"/><path d="M1070.35,522.55c0-19.37,15.99-35.14,35.74-35.14s35.81,15.78,35.81,35.14-16.03,35.22-35.81,35.22-35.74-15.78-35.74-35.22Z" style="fill:#fff; fill-rule:evenodd;"/><path d="M1108.31,540.41c-10.04,0-18.14-7.96-18.14-17.86h11.46v.29h24.85c-.14,9.75-8.21,17.57-18.18,17.57h0Zm18.18-17.72v-.14h0v.14Z" style="fill:#c4d1eb; fill-rule:evenodd;"/><path d="M1141.89,522.55h-15.41c-.14-6.6-5.65-11.91-12.41-11.91s-12.26,5.31-12.45,11.91h-11.46c0-14.06,11.57-25.39,25.88-25.39s25.84,11.34,25.84,25.39Z" style="fill:#c4d1eb; fill-rule:evenodd;"/><path d="M1126.48,522.84h-24.85v-.29h24.85v.29Z" style="fill:#9db2d9; fill-rule:evenodd;"/><path d="M1126.48,522.55h-24.85c.18-6.6,5.65-11.91,12.45-11.91s12.27,5.31,12.41,11.91Z" style="fill:#9db2d9; fill-rule:evenodd;"/><path d="M732.3,1029.1h-44.31c0-16.71-13.87-30.27-30.81-30.27v-40.1c0-6.24-5.25-11.33-11.6-11.33v-296.53h44.31v296.53c6.43,0,11.53,5.09,11.53,11.33v40.1c17.09,0,30.88,13.56,30.88,30.27Z" style="fill:#9db2d9; fill-rule:evenodd;"/><path d="M689.89,650.87h-44.31v-93.11c19.78,0,35.85-15.78,35.85-35.22,0-.21,0-.5-.08-.71h44.32v.71c0,19.44-15.99,35.22-35.78,35.22v93.11Z" style="fill:#9db2d9; fill-rule:evenodd;"/><path d="M681.35,521.83c-.44-19.08-16.28-34.43-35.77-34.43h44.31c19.49,0,35.4,15.35,35.78,34.43h-44.32Z" style="fill:#859ac6; fill-rule:evenodd;"/><rect x="526.65" y="487.4" width="118.93" height="541.7" style="fill:#fff;"/><path d="M574.18,937.36h-23.8v-372.71c11.32-6.17,19.86-16.64,23.44-29.12h.36v401.83Z" style="fill:#c4d1eb; fill-rule:evenodd;"/><path d="M621.77,937.36h-23.87v-401.83h.44c3.57,12.48,12.11,22.95,23.43,29.12v372.71Z" style="fill:#c4d1eb; fill-rule:evenodd;"/><path d="M645.58,570.75c-8.69,0-16.72-2.22-23.8-6.1v-15.78c6.35,5.52,14.67,8.89,23.8,8.89v12.98h0Zm-118.93,0v-12.98c9.05,0,17.37-3.37,23.72-8.89v15.78c-7.08,3.88-15.11,6.1-23.72,6.1h0Zm71.25-35.22h-23.72v-12.99h23.72v12.99Z" style="fill:#b0c2e4; fill-rule:evenodd;"/><path d="M550.37,564.65v-15.78c7.37-6.46,12.05-15.86,12.05-26.33h11.76v12.99h-.36c-3.58,12.48-12.12,22.95-23.44,29.12Z" style="fill:#9db2d9; fill-rule:evenodd;"/><path d="M621.77,564.65c-11.32-6.17-19.86-16.64-23.43-29.12h-.44v-12.99h11.83c0,10.47,4.67,19.87,12.04,26.33v15.78Z" style="fill:#9db2d9; fill-rule:evenodd;"/><rect x="526.65" y="487.4" width="118.93" height="35.14" style="fill:#fff;"/><path d="M645.58,947.4h-118.93c-6.42,0-11.68,5.09-11.68,11.33v70.37h142.21v-70.37c0-6.24-5.25-11.33-11.6-11.33Z" style="fill:#fff; fill-rule:evenodd;"/><path d="M657.18,998.83h-142.21c-16.93,0-30.81,13.56-30.81,30.27h203.83c0-16.71-13.87-30.27-30.81-30.27Z" style="fill:#fff; fill-rule:evenodd;"/><path d="M569.57,988.22h-25.4v-29.48c0-6.24,3.06-11.33,6.86-11.33h21.17c-1.46,0-2.63,5.09-2.63,11.33v29.48Z" style="fill:#c4d1eb; fill-rule:evenodd;"/><path d="M627.98,988.22h-25.41v-29.48c0-6.24-1.17-11.33-2.63-11.33h21.17c3.8,0,6.86,5.09,6.86,11.33v29.48Z" style="fill:#c4d1eb; fill-rule:evenodd;"/><path d="M562.42,1029.1h-36.35c0-16.71,8.18-30.27,18.1-30.27h25.4c-3.94,0-7.15,13.56-7.15,30.27Z" style="fill:#c4d1eb; fill-rule:evenodd;"/><path d="M646.09,1029.1h-36.36c0-16.71-3.21-30.27-7.16-30.27h25.41c10,0,18.11,13.56,18.11,30.27Z" style="fill:#c4d1eb; fill-rule:evenodd;"/><path d="M645.58,947.4h-23.8v-10.04h23.8v10.04h0Zm-47.68,0h-23.72v-10.04h23.72v10.04h0Zm-47.53,0h-23.72v-10.04h23.72v10.04Z" style="fill:#c4d1eb; fill-rule:evenodd;"/><rect x="550.37" y="937.36" width="23.8" height="10.04" style="fill:#b0c2e4;"/><rect x="597.9" y="937.36" width="23.87" height="10.04" style="fill:#b0c2e4;"/><path d="M657.18,998.83h-29.2v-10.62h29.2v10.62h0Zm-54.61,0h-33v-10.62h33v10.62h0Zm-58.4,0h-29.2v-10.62h29.2v10.62Z" style="fill:#c4d1eb; fill-rule:evenodd;"/><rect x="544.17" y="988.22" width="25.4" height="10.62" style="fill:#b0c2e4;"/><rect x="602.57" y="988.22" width="25.41" height="10.62" style="fill:#b0c2e4;"/><path d="M681.42,522.55c0-19.37-16.07-35.14-35.85-35.14s-35.85,15.78-35.85,35.14,16.06,35.22,35.85,35.22,35.85-15.78,35.85-35.22Z" style="fill:#fff; fill-rule:evenodd;"/><path d="M643.39,540.41c-9.93,0-18.03-7.82-18.18-17.57h24.82v-.29h11.54c0,9.9-8.17,17.86-18.18,17.86h0Zm-18.18-17.72v-.14h0v.14Z" style="fill:#c4d1eb; fill-rule:evenodd;"/><path d="M661.56,522.55h-11.54c-.14-6.6-5.69-11.91-12.41-11.91s-12.26,5.31-12.41,11.91h-15.48c0-14.06,11.6-25.39,25.91-25.39s25.92,11.34,25.92,25.39Z" style="fill:#c4d1eb; fill-rule:evenodd;"/><path d="M650.02,522.84h-24.82v-.29h24.82v.29Z" style="fill:#9db2d9; fill-rule:evenodd;"/><path d="M650.02,522.55h-24.82c.15-6.6,5.7-11.91,12.41-11.91s12.27,5.31,12.41,11.91Z" style="fill:#9db2d9; fill-rule:evenodd;"/><path d="M490.8,522.55c0-19.37,15.99-35.14,35.85-35.14s35.77,15.78,35.77,35.14-16.06,35.22-35.77,35.22-35.85-15.78-35.85-35.22Z" style="fill:#fff; fill-rule:evenodd;"/><path d="M528.77,540.41c-10.01,0-18.18-7.96-18.18-17.86h11.53v.29h24.82c-.14,9.75-8.17,17.57-18.18,17.57h0Zm18.18-17.72v-.14h0v.14Z" style="fill:#c4d1eb; fill-rule:evenodd;"/><path d="M562.42,522.55h-15.47c-.14-6.6-5.69-11.91-12.41-11.91s-12.26,5.31-12.41,11.91h-11.53c0-14.06,11.6-25.39,25.91-25.39s25.92,11.34,25.92,25.39Z" style="fill:#c4d1eb; fill-rule:evenodd;"/><path d="M546.95,522.84h-24.82v-.29h24.82v.29Z" style="fill:#9db2d9; fill-rule:evenodd;"/><path d="M546.95,522.55h-24.82c.15-6.6,5.7-11.91,12.41-11.91s12.27,5.31,12.41,11.91Z" style="fill:#9db2d9; fill-rule:evenodd;"/><path d="M1353.46,1029.1h-43.36c0-16.71,13.83-30.27,30.84-30.27v-40.1c0-6.24,5.18-11.33,11.54-11.33v-296.53h43.4v296.53c-6.39,0-11.54,5.09-11.54,11.33v40.1c-17.04,0-30.88,13.56-30.88,30.27Z" style="fill:#9db2d9; fill-rule:evenodd;"/><path d="M1395.88,650.87h-43.4v-93.11c-19.75,0-35.77-15.78-35.77-35.22v-.71h43.4c0,.21-.03,.5-.03,.71,0,19.44,16.05,35.22,35.81,35.22v93.11Z" style="fill:#9db2d9; fill-rule:evenodd;"/><path d="M1316.7,521.83c.4-19.08,16.28-34.43,35.77-34.43h43.4c-19.49,0-35.38,15.35-35.78,34.43h-43.4Z" style="fill:#859ac6; fill-rule:evenodd;"/><rect x="1395.88" y="487.4" width="118.96" height="541.7" style="fill:#fff;"/><path d="M1443.43,937.36h-23.77v-372.71c11.32-6.17,19.86-16.64,23.44-29.12h.33v401.83Z" style="fill:#c4d1eb; fill-rule:evenodd;"/><path d="M1491.03,937.36h-23.8v-401.83h.41c3.58,12.48,12.11,22.95,23.4,29.19v372.64Z" style="fill:#c4d1eb; fill-rule:evenodd;"/><path d="M1514.83,570.75c-8.62,0-16.72-2.22-23.8-6.02v-15.85c6.35,5.52,14.67,8.89,23.8,8.89v12.98h0Zm-118.96,0v-12.98c9.12,0,17.48-3.37,23.79-8.89v15.78c-7.04,3.88-15.18,6.1-23.79,6.1h0Zm71.36-35.22h-23.8v-12.99h23.8v12.99Z" style="fill:#b0c2e4; fill-rule:evenodd;"/><path d="M1419.67,564.65v-15.78c7.38-6.46,11.97-15.86,11.97-26.33h11.79v12.99h-.33c-3.58,12.48-12.12,22.95-23.44,29.12Z" style="fill:#9db2d9; fill-rule:evenodd;"/><path d="M1491.03,564.73c-11.28-6.24-19.82-16.71-23.4-29.19h-.41v-12.99h11.83c0,10.47,4.63,19.87,11.97,26.33v15.85Z" style="fill:#9db2d9; fill-rule:evenodd;"/><rect x="1395.88" y="487.4" width="118.96" height="35.14" style="fill:#fff;"/><path d="M1514.83,947.4h-118.96c-6.39,0-11.54,5.09-11.54,11.33v70.37h142.07v-70.37c0-6.24-5.18-11.33-11.57-11.33Z" style="fill:#fff; fill-rule:evenodd;"/><path d="M1526.4,998.83h-142.07c-17.04,0-30.88,13.56-30.88,30.27h203.76c0-16.71-13.8-30.27-30.81-30.27Z" style="fill:#fff; fill-rule:evenodd;"/><path d="M1438.84,988.22h-25.33v-29.48c0-6.24,3.03-11.33,6.82-11.33h21.21c-1.5,0-2.7,5.09-2.7,11.33v29.48Z" style="fill:#c4d1eb; fill-rule:evenodd;"/><path d="M1497.24,988.22h-25.38v-29.48c0-6.24-1.2-11.33-2.7-11.33h21.24c3.76,0,6.83,5.09,6.83,11.33v29.48Z" style="fill:#c4d1eb; fill-rule:evenodd;"/><path d="M1431.64,1029.1h-36.32c0-16.71,8.1-30.27,18.18-30.27h25.33c-3.98,0-7.2,13.56-7.2,30.27Z" style="fill:#c4d1eb; fill-rule:evenodd;"/><path d="M1515.38,1029.1h-36.32c0-16.71-3.21-30.27-7.2-30.27h25.38c10,0,18.14,13.56,18.14,30.27Z" style="fill:#c4d1eb; fill-rule:evenodd;"/><path d="M1514.83,947.4h-23.8v-10.04h23.8v10.04h0Zm-47.6,0h-23.8v-10.04h23.8v10.04h0Zm-47.56,0h-23.79v-10.04h23.79v10.04Z" style="fill:#c4d1eb; fill-rule:evenodd;"/><rect x="1419.67" y="937.36" width="23.77" height="10.04" style="fill:#b0c2e4;"/><rect x="1467.23" y="937.36" width="23.8" height="10.04" style="fill:#b0c2e4;"/><path d="M1526.4,998.83h-29.16v-10.62h29.16v10.62h0Zm-54.54,0h-33.03v-10.62h33.03v10.62h0Zm-58.36,0h-29.17v-10.62h29.17v10.62Z" style="fill:#c4d1eb; fill-rule:evenodd;"/><rect x="1413.51" y="988.22" width="25.33" height="10.62" style="fill:#b0c2e4;"/><rect x="1471.87" y="988.22" width="25.38" height="10.62" style="fill:#b0c2e4;"/><path d="M1550.64,522.55c0-19.37-16.06-35.14-35.81-35.14s-35.77,15.78-35.77,35.14,16.02,35.22,35.77,35.22,35.81-15.78,35.81-35.22Z" style="fill:#fff; fill-rule:evenodd;"/><path d="M1512.65,540.41c-9.93,0-18.03-7.82-18.18-17.57h24.86v-.29h11.5c0,9.9-8.14,17.86-18.18,17.86h0Zm-18.18-17.72v-.14h0v.14Z" style="fill:#c4d1eb; fill-rule:evenodd;"/><path d="M1530.82,522.55h-11.5c-.18-6.6-5.66-11.91-12.45-11.91s-12.26,5.31-12.41,11.91h-15.4c0-14.06,11.57-25.39,25.84-25.39s25.91,11.34,25.91,25.39Z" style="fill:#c4d1eb; fill-rule:evenodd;"/><path d="M1519.32,522.84h-24.86v-.29h24.86v.29Z" style="fill:#b3b0a7; fill-rule:evenodd;"/><path d="M1519.32,522.55h-24.86c.15-6.6,5.66-11.91,12.41-11.91s12.26,5.31,12.45,11.91Z" style="fill:#9db2d9; fill-rule:evenodd;"/><path d="M1360.07,522.55c0-19.37,16.05-35.14,35.81-35.14s35.77,15.78,35.77,35.14-15.99,35.22-35.77,35.22-35.81-15.78-35.81-35.22Z" style="fill:#fff; fill-rule:evenodd;"/><path d="M1398.07,540.41c-10,0-18.18-7.96-18.18-17.86h11.53v.29h24.82c-.14,9.75-8.21,17.57-18.18,17.57h0Zm18.18-17.72v-.14h0v.14Z" style="fill:#c4d1eb; fill-rule:evenodd;"/><path d="M1431.64,522.55h-15.4c-.14-6.6-5.66-11.91-12.42-11.91s-12.26,5.31-12.41,11.91h-11.53c0-14.06,11.61-25.39,25.88-25.39s25.88,11.34,25.88,25.39Z" style="fill:#c4d1eb; fill-rule:evenodd;"/><path d="M1416.24,522.84h-24.82v-.29h24.82v.29Z" style="fill:#9db2d9; fill-rule:evenodd;"/><path d="M1416.24,522.55h-24.82c.15-6.6,5.66-11.91,12.41-11.91s12.27,5.31,12.42,11.91Z" style="fill:#9db2d9; fill-rule:evenodd;"/><path d="M166.81,1030.32c-35.7,14.78-47.23-17.43-46.36-16.57-.59-.72-5.98-3.09-9.49-4.81-14.31-7.03-22.92-23.45-22.64-39.88-20.51-12.55-19.27-33.14-5.1-47.84-4.39-16.36-1.61-50.21,14.96-48.49,21.61-37.73,60.74,1.58,60.08,55.02,17.67,7.39,25.99,24.89,22.06,44.55,23.72,19.58,22.92,42.96-13.51,58.03Z" style="fill:#20386f; fill-rule:evenodd;"/><path d="M36.36,1135.41l-6.13-1.58c.14-.43,11.68-46.62,24.02-92.6,7.23-26.97,13.36-48.63,18.18-64.34,9.34-30.92,11.39-31.78,13.29-32.57l2.33,5.88c.51-.15,.73-.43,.73-.43-1.53,1.72-7.37,14.42-29.2,95.9-12.04,44.98-23.14,89.3-23.21,89.74Z" style="fill:#9c7357; fill-rule:evenodd;"/><path d="M242.37,1134.04s-2.62-2.15-3.5-2.94c-1.02-.86-3.79-3.87-3.79-3.87,0,0-9.28-10.83-8.4-11.48,.88-.57,3.5,.43,4.31,.86,.87,.5,1.82,.93,2.63,1.44,.81,.5,1.83,.21,2.49-.72,.73-.93-2.19-3.52-3.29-4.16-3.58-2.22-14.38-6.17-15.4-6.6-1.39-.57-13.87-22.24-18.69-29.34h0c-7.66-11.91-14.89-24.46-15.77-25.75l-16.35-57.95-23.94-2.3s17.37,64.55,18.54,67.64c.58,1.5,20.44,27.69,20.44,27.69,10.66,12.26,20,23.02,21.76,25.18,0,0,3.51,7.74,5.4,12.76,1.9,5.02,5.69,8.89,6.43,10.26,.15,.21,2.55,4.95,7.37,9.32,4.16,3.8,1.97-1.72,1.97-1.72,0,0-6.43-8.39-5.69-8.82,.58-.29,3.79,4.52,8.39,8.75,1.24,1,2.41,2.08,3.43,3.08,2.85,2.58,5.26,1.51,2.78-1.58-.95-1.15-2.48-2.94-3.8-4.09-1.31-1.22-2.19-2.8-3.21-4.02-2.04-2.37-3.5-4.09-3.36-4.16,.22,0,.15-.71,1.46,.36,1.53,1.36,4.23,4.88,6.57,6.67,1.46,1.07,4.23,3.37,4.23,3.37,0,0,4.82,3.23,5.11,2.94,1.31-1.15-1.46-4.52-3.51-5.67-.95-1.36-3.94-3.73-3.94-3.73,0,0-4.89-6.02-4.09-6.74,.73-.65,15.33,11.62,16.65,10.33,1.09-1.15-3.22-5.02-3.22-5.02Z" style="fill:#f9af79; fill-rule:evenodd;"/><path d="M216.16,1116.83s7.38,2.73,10.44-1c0,0-.95,2.8-3.94,3.3-2.92,.5-6.5-2.3-6.5-2.3Z" style="fill:#f27458; fill-rule:evenodd;"/><path d="M113.81,1150.47l13.5,122.95s-6.57,26.04-5.84,33.42c.88,7.32,14.75,104.22,14.75,104.22l-.58,5.38-.36,15.71,51.97,.43s-10.95-4.95-26.28-14.85c-1.1-.72-3.73-3.08-4.39-7.75-4.08-29.84,4.02-129.4,4.02-129.4l6.43-129.75-53.22-.36Z" style="fill:#f9af79; fill-rule:evenodd;"/><path d="M84.25,1173.71c-2.92,.79-7.45,106.37-9.86,111.04-15.33,29.63-18.91,119.72-18.91,119.72l-6.42,12.69,1.46,12.12s11.53,6.67,19.49,2.16l-1.24-12.12-.95-16.28,38.63-112.33,21.17-114.55-43.37-2.44Z" style="fill:#f9af79; fill-rule:evenodd;"/><path d="M183.24,1230.95l1.76-72.8c.36-20.59-6.36-40.31-14.67-59.11l-17.52-29.91c-5.62,1.72-8.76-15.2-14.67-14.49-4.53,.43-7.6,1.51-11.68,1.79-7.89,.43-12.63,16.07-21.03,15.07,0,.5-5.26,2.44-5.41,2.8-3.94,10.98-14.23,22.74-19.71,55.45-6.13,37.09-6.13,100.86-5.4,105.23,59.35,2.58,73.51,4.74,108.34-4.02Z" style="fill:#20386f; fill-rule:evenodd;"/><path d="M135.05,1436.24h53.66c1.97-.14,2.41-1.79,1.83-2.87-1.46-2.08-7.74-3.59-14.75-6.96-12.41,1.29-38.25-7.89-40.15-10.83-1.17,5.81-1.76,20.37-.59,20.66Z" style="fill:#002923; fill-rule:evenodd;"/><path d="M49.13,1417.09s4.75,13.77,9.93,13.41c5.19-.43,9.71-11.26,9.71-11.26,0,0,1.9,9.11,1.02,14.13-.87,5.09-8.25,10.19-13.28,7.96-5.04-2.3-11.83-13.91-7.38-24.24Z" style="fill:#002923; fill-rule:evenodd;"/><path d="M148.92,1021.93s7.52-.93,14.67-3.44c4.31-1.5,11.46-4.87,11.46-4.87,0,0-4.01-34.29-14.16-55.02-4.16-8.61-8.39-12.77-14.31-13.77l2.34,77.11Z" style="fill:#466fb5; fill-rule:evenodd;"/><path d="M161.92,983.13c-1.45-5.53-4.82-12.84-6.79-17.86-3.29-8.61-4.31-16.64-7.23-20.01-1.46-1.87-21.54-1.58-23.95-1.87-1.02-.07-5.11,.22-8.91,.43h0c-2.34,.22-24.89,2.01-28.17,3.44-16.21,16-24.09,37.59-36.36,61.11,0,0,9.2,5.31,16.5,8.68,3.13,1.43,9.2,3.73,9.2,3.73l14.16-23.88c.14-.07,.87-.86,1.02-.36,.36,.79,10.66,75.1,10.66,75.1,0,0,41.75,3.44,51.53-1.29,0,0,1.75-49.57,5.41-64.12,1.32-5.38,5.4-14.13,2.92-23.1Z" style="fill:#6d96ce; fill-rule:evenodd;"/><path d="M112.28,921.01s3.06,17.29,2.48,24.17c-.59,6.74,2.41,28.76,15.91,28.83,13.51,.07,4.31-22.81,3.06-29.55-1.31-6.67-3.36-32.49-3.36-32.49l-18.1,9.04Z" style="fill:#f9af79; fill-rule:evenodd;"/><path d="M131.19,921.8c-.22-5.66-.8-9.83-.8-9.83l-18.1,9.04s.58,3.51,1.31,8.03c7.88,1.65,14.16-2.01,17.59-7.24Z" style="fill:#f27458; fill-rule:evenodd;"/><path d="M111.84,870.73s-7.59,2.72-11.68,11.05c-4.23,8.32-5.55,31.63,11.17,40.6,16.71,8.96,27.67-7.53,26.65-22.38-1.02-14.78-5.62-34.14-26.14-29.26Z" style="fill:#f9af79; fill-rule:evenodd;"/><path d="M141.19,895.04c-1.02,3.66-3.5,6.17-5.55,5.52-2.04-.57-2.78-4.09-1.76-7.82,1.02-3.66,3.51-6.24,5.55-5.59,2.04,.57,2.85,4.16,1.75,7.89Z" style="fill:#f9af79; fill-rule:evenodd;"/><path d="M101.62,902.36c1.46,3.73,.73,7.6-1.61,8.68-2.48,1.15-5.54-1-7.01-4.66-1.46-3.73-.73-7.68,1.61-8.75,2.41-1.07,5.55,1,7.01,4.74Z" style="fill:#f9af79; fill-rule:evenodd;"/><path d="M96.51,1135.12v23.6c0,12.27-8.76,22.31-19.63,22.31h-20.23v-55.09h31.76c2.11,0,4.16,.93,5.62,2.51,1.54,1.65,2.48,4.02,2.48,6.67Z" style="fill:#9c7357; fill-rule:evenodd;"/><path d="M94.03,1128.45h-.14c-4.24,0-7.6,3.8-7.6,8.54v17.36c0,14.71-10.51,26.69-23.51,26.69h-12.26c-13,0-23.51-11.98-23.51-26.69v-17.28c0-6.1,4.38-11.12,9.78-11.12h51.62c2.11,0,4.16,.93,5.62,2.51Z" style="fill:#e5bb9a; fill-rule:evenodd;"/><path d="M96.58,1134.62h-6.28c0-.43,.22-44.26-.36-88.95-.36-26.18-.95-47.63-1.68-63.55-1.25-27.26-2.85-32.07-3.29-32.93,0-1.43,.73-4.88,.73-4.88,1.17-.43,2.33-.29,3.35,.36,1.6,1.15,2.62,3.23,3.65,11.69,.58,5.23,1.17,12.63,1.6,22.02,.87,15.78,1.46,37.37,1.82,64.34,.66,45.69,.44,91.46,.44,91.89Z" style="fill:#9c7357; fill-rule:evenodd;"/><path d="M128.19,1092.73c.74,.07,6.28,.43,6.28,.43,0,0,8.17-4.8,9.34-2.51,.29,.64-8.47,5.59-8.47,5.59,0,0-8.47,.28-10.51,.15-3.8-.07-11.68-1.08-23.51-9.76-10.22-5.09-61.47-34.5-62.2-40.1-.51-3.3,7.3-20.59,14.9-36.22,3.35,1.86,8.46,4.66,13,6.74,2.11,.93,5.55,2.3,7.59,3.08-4.96,9.33-9.64,18.87-8.98,20.88,.51,1.72,44.32,34.57,44.32,34.57l8.76-1.22s15.48,1.87,15.77,3.66c.43,1.79-6.43,1.36-7.37,1.58-.51,.14-1.54,.5-2.41,1.08,2.55,1.22,6.57,3.08,8.83,3.23,5.18,.15,11.17-.65,11.83,.07,.81,.86-7.08,3.23-12.63,3.59-2.33,.14-3.65-.5-4.67-.36-1.31,.28,1.02,1.36,4.82,1.15,2.19-.22,5.99-1.29,8.32-1.73,3.94-.5,6.13-.21,6.43,.14,.58,.5-11.1,4.16-11.1,4.16,0,0-7.59,1-9.34,.93,0,0-1.02,.43,1.02,.86Z" style="fill:#f9af79; fill-rule:evenodd;"/><path d="M330.86,1174.43c3.72,2.22,4.82,3.01,6.05,4.3,.81,.79,1.68,1.87,3.21,3.66,1.39,1.58,1.68,1.94,2.19,2.58,.81,1.22,1.39,3.08,2.34,5.24,1.39,3.3,2.71,4.09,2.19,5.45-.29,.72-1.09,1.29-1.68,2.23-.58,.86-.73,1.86-1.17,3.23-.58,.07-1.16,.07-1.75,.14l-3.36-4.59-1.17,7.96,2.84,1.15c2.26-1.36,3.72-1.29,5.48,1.07-.74,.87-1.68,2.08-2.63,3.09-.8,.79-1.46,1.43-2.34,1.58-.44,.07-.87,.07-1.38-.07-2.12,1.22-3.88,1.43-5.92,1.87-1.46,.36-2.49,.86-3.94,.79-.59-.07-1.31-.14-2.05-.21,.59,1.43,.29,1.72-.8,2.44-1.82-.86-3.72-2.15-5.76-3.45-1.24-2.44-2.34-4.08-4.09-6.17-.14-3.3-.44-5.02-1.09-8.17-.59-3.09-.95-5.67-.95-9.47-.22-9.33-1.02-4.88,1.17-14.63,1.46-6.96,.95-8.39,1.31-18l13.36-.5c-1.75,5.02-1.68,12.63-.07,18.51Z" style="fill:#f9af79; fill-rule:evenodd;"/><path d="M344.43,1432.08c-.29,3.16,0,6.32-1.38,9.9-7.52,1.51-12.71,1.01-20.3,.65-4.89,3.37-8.54,6.17-19.86,8.1-6.64,1.15-18.61,.79-23.14-1.65-1.6-.86-2.7-2.08-2.62-3.73,0-2.01-.15-4.02,2.92-4.73,6.64-1.58,11.97-4.88,17.96-8.54-.88-2.94,2.26-4.95,5.62-7.74,2.27-1.87,5.11-5.31,6.87-6.74l25.77,5.67,8.17,8.82Z" style="fill:#0e2952; fill-rule:evenodd;"/><path d="M344.43,1432.08c-.29,3.16,0,6.32-1.38,9.9-7.52,1.51-12.71,1.01-20.3,.65-4.89,3.37-8.54,6.17-19.86,8.1-6.64,1.15-18.61,.79-23.14-1.65-1.6-.86-2.7-2.08-2.62-3.73,0-.29-.08-.57,0-.93,5.84,3.37,11.68,3.59,22.05,2.51,9.41-1,15.04-4.3,24.53-9.83,15.77,0,16.21,2.37,15.77-10.4l4.97,5.38Z" style="fill:#0e2952; fill-rule:evenodd;"/><path d="M421.38,1450.23c-1.6,4.02-4.97,5.74-12.99,8.04-4.53,1.22-13.51,1.29-16.06-1.36-2.04-2.22-3.06-7.67-2.55-11.55,.73-5.66,8.46-15.42,8.4-25.89l20.15,.94,4.09,7.1c-.87,5.96,.22,19.58-1.02,22.74Z" style="fill:#0e2952; fill-rule:evenodd;"/><path d="M421.38,1450.23c-1.6,4.02-4.97,5.74-12.99,8.04-4.38,1.22-13,1.29-15.77-1.22,8.91,1.87,23.51-1.87,24.82-14.06,.73-6.38,.14-15.35,.43-22.59h.44l4.09,7.1c-.87,5.96,.22,19.58-1.02,22.74Z" style="fill:#0e2952; fill-rule:evenodd;"/><path d="M427.07,1144.37c8.62,34.71,15.55,35,6.57,77.54l-21.47-29.91-.58-37.66,15.47-9.97Z" style="fill:#20386f; fill-rule:evenodd;"/><path d="M431.74,1190.35l-6.86-26.04,3.07-4.88,1.6-.36,6.86,21.88c-2.19,3.09-3.14,5.95-4.67,9.4Z" style="fill:#f9af79; fill-rule:evenodd;"/><path d="M403.13,951.71l-.88-11.27c1.68-1.65,2.92-2.72,3.79-4.09,2.34-3.66,3.94-4.52,5.41-3.44,.58,.43,.8,1.79,.43,3.58-.58,3.01-2.55,7.53-3.21,10.26-.44,2.15-3.36,9.47-5.55,4.95Z" style="fill:#f9af79; fill-rule:evenodd;"/><path d="M343.85,1003.21l16.64-.72,57.02-4.02,19.34-.15c-18.11,1.51-34.02-14.2-35.77-19.15-1.61-4.09-1.61-10.47-.66-14.63l-16.58,.29-16.5-.29c2.2,18.65-6.27,31.42-23.5,38.66Z" style="fill:#f9af79; fill-rule:evenodd;"/><path d="M404.51,982.19c-1.39-.71-2.99-1.58-3.43-3.01-1.61-4.09-1.61-10.47-.66-14.63l-16.58,.29-16.5-.29c0,.14,.15,.72,.22,1.36,.07,.58,.15,1.22,.22,1.43,.73,.86,1.46,1.72,2.34,2.37,.87,.79,1.75,1.51,2.48,2.37,1.31,1.58,2.33,3.87,3.65,4.95,2.63,2.3,6.64,3.58,11.24,4.59,5.62,1.29,13.14,1.79,17.01,.57Z" style="fill:#f27458; fill-rule:evenodd;"/><path d="M383.57,974.3h.29c3.5,0,5.18-.07,7.01-.79,1.9-.79,2.7-2.51,5.26-4.88,2.04-2.01,5.84-4.02,6.78-6.24,1.25-2.94,.8-6.31,1.54-10.9,.65-3.73,2.48-6.96,2.62-10.62,.22-4.01-.43-8.03-.29-12.55,.15-4.45,.29-8.11-.29-11.19-.59-3.09-1.75-5.74-4.38-7.96v-.07c-1.46-1.22-3.07-2.22-4.82-3.16h-.08c-.07-.07-.22-.14-.37-.14l-.15-.14c-.15,0-.29-.07-.29-.07-.15-.07-.22-.14-.29-.14-.14-.07-.23-.07-.29-.15q-.14-.07-.29-.14c-.15,0-.29-.07-.37-.07l-.22-.15c-.14-.07-.36-.07-.59-.21h0c-4.67-1.65-10.07-2.15-15.04-1.36-5.1,.72-9.85,2.65-13.43,5.74-2.48,2.29-3.8,4.88-4.39,7.96-.51,3.08-.43,6.74-.29,11.12,.15,4.52-.51,8.54-.29,12.48,.22,3.73,1.97,6.96,2.63,10.68,.73,4.59,.22,7.89,1.45,10.9,.95,2.16,4.67,4.16,6.87,6.24,2.41,2.37,3.28,4.09,5.11,4.88,1.75,.79,3.43,.86,6.57,.93Z" style="fill:#f9af79; fill-rule:evenodd;"/><path d="M401.01,972.72c1.25,3.73,2.49,6.96,3.95,10.55,8.39,3.01,17.44,8.25,23.51,9.54,23.36,4.95,26.93,13.77,27.81,35.08,4.09,20.37,7.16,40.1,10.23,60.47,1.39,9.61,1.6,9.25,.14,19.72-3.36,23.74-6.72,36.3-19.42,57.96l-9.93,18.29c-8.32-5.74-10.23-19.15-9.79-26.76l4.38-7.89c2.63-16.64,1.76-31.92,4.09-48.63-3.51-28.83-8.32-28.69-11.53-65.13l-19.72,7.53-31.1,11.9-33,33,1.61,19.37c-2.19,8.75-3.5,23.17-4.89,31.06-1.03,5.52-1.31,11.04-2.27,16.71-.44,2.94-2.7,5.67-2.99,7.75-.37,2.65-.81,5.38-1.24,8.18-11.4,4.23-8.03,3.08-17.09,11.12-.29-5.3-.51-10.54-.73-15.78,0-2.51-2.7-4.81-3.14-7.31-1.24-6.75,.95-12.77,.87-18.94-.15-15.28,.08-30.48,.66-46.12,.8-21.88,7.89-43.83,8.32-63.41-1.09-19.8,3.14-27.9,18.54-31.49,6.86-2.94,14.75-5.45,23.51-10.11l3.8-10.54c3.94,9.75,5.25,10.47,12.26,18.29,15.05-9.89,22.34-17.5,23.14-24.39Z" style="fill:#fff; fill-rule:evenodd;"/><path d="M428.97,1024.01l1.09,3.3c.08,13.13-1.98,26.18-.88,39.52,2.85,33.93-.59,49.5-2.27,69.44l-1.31,15.21-71.69,8.89c-2.48-6.81-5.4-12.91-7.45-19.87,.29-15.21-5.99-27.26-8.46-53.15-2.12-22.02-3.58-38.01,3.5-57.82l28.76-1.65,58.7-3.87Z" style="fill:#fff; fill-rule:evenodd;"/><path d="M346.48,1140.5c.14-9.82-2.34-18.29-4.82-30.05-1.83,8.75-3.06,21.23-4.3,28.33-1.03,5.52-1.31,11.04-2.27,16.71-.44,2.87-2.7,5.67-2.99,7.75-.37,2.65-.81,5.38-1.24,8.18-1.02,.43-1.9,.72-2.63,1,.14-3.16,.58-5.88,1.46-9.97-3.51,.79-4.24,.5-7.74,.5,13.8-3.3,8.98-16.28,11.02-30.49,2.27-16.43,4.24-30.92,4.45-51.29-1.75-18.94-2.33-33.71,4.09-51.65h2.04c-6.86,19.58-2.63,35.15-.44,56.96,.08,1,4.52,24.67,3.36,54.01Z" style="fill:#c4d1eb; fill-rule:evenodd;"/><path d="M426.92,1024.3l-1.09,12.48c.15,13.13,2.7,16.57,3.8,29.91,1.6,19.51,1.96,38.45,1.38,49.85-.44,8.32-4.23,13.7-4.09,19.73l-1.31,15.21-8.83-13.71c11.31-7.89,8.1-42.03,5.47-57.02-1.53-8.9-1.89-16.57-2.04-23.89-.15-8.82,.73-21.81,6.72-32.56Z" style="fill:#c4d1eb; fill-rule:evenodd;"/><path d="M427.22,1146.6c-4.89,18.86,6.58,41.24,9.34,50.21-.43,27.48-1.17,57.89-2.12,85.15-.8,25.32-.8,53.51-2.7,78.83-1.17,15.21-3.21,29.84-4.67,44.9-.87,9.9,.3,17.79-2.92,28.76-7.88-9.75-14.6-11.83-29.93-7.46-7.01-20.8,3.5-45.91,4.46-69,.36-8.11,1.17-26.97,1.1-35.22,0-15.71,1.9-17.43,.15-34.72-.74-4.09-1.46-8.11-2.2-11.98-4.16-21.74-8.83-44.19-15.62-66.49-8.4,27.98-18.18,58.96-25.99,87.08-.51,9.9,.15,19.44-1.61,32.78-1.89,13.34-6.56,36.73-7.37,49.85-.87,13.2,1.83,23.67,1.39,28.26-.66,7.25-3.65,14.85-3.07,25.25-14.89,1.15-16.65-10.54-36.93-14.42,5.69-15.06,2.92-8.17,3.36-21.59,1.02-28.69,4.08-61.26,7.01-89.88-.14-9.25-1.02-12.7,0-21.88l5.4-47.2c2.49-17.43,3.44-36.58,6.21-55.74,5.98-11.26,9.93-21.59,14.97-33.28l23.95,2.51,54.75-4.38,3.06-.36Z" style="fill:#223f81; fill-rule:evenodd;"/><path d="M382.25,1210.01l-.14-.43c-8.4,27.98-18.03,57.24-25.84,85.43-.59,9.9-.15,18.8-1.9,32.13-1.76,13.42-6.72,39.09-7.53,52.29-.8,13.13,2.41,22.6,1.97,27.19-.58,7.24-3.94,15.78-3.36,26.18-3.86,.29-6.86-.29-9.49-1.36,4.24-8.54,5.11-17.72,5.56-23.89,.88-9.75-2.99-14.92-2.92-19.29,.29-28.62,11.39-65.35,8.4-89.74,10.15-31.99,18.91-58.46,26.29-91.17,13.5-7.53,15.69-16.78,22.11-45.33-.14,4.02-.43,7.96-.73,11.55-1.61,20.66-4.82,33.64-12.41,36.44Z" style="fill:#20386f; fill-rule:evenodd;"/><path d="M401.09,973.15c2.47,5.24,5.25,10.04,7,11.69,.44,3.02-4.45,12.63-14.46,23.03,6.42-9.97,12.99-17.72,12.12-22.24-.88-1.93-3.65-6.89-5.55-9.97l.88-2.51Z" style="fill:#c4d1eb; fill-rule:evenodd;"/><path d="M393.93,1008.08c-4.52-5.3-6.43-8.54-12.12-12.98l-5.55,.5c-4.6,3.09-6.72,4.74-9.93,15.57l5.99-5.67,7.01-3.87,3.51,.5,3.72,1.93c2.41,1.07,5.04,2.66,7.38,4.02Z" style="fill:#c4d1eb; fill-rule:evenodd;"/><path d="M381.88,995.32c2.41,1.79,3.29,3.01,5.77,5.81-1.61,2.87-3.06,4.01-5.03,6.6l-.08,3.3c-.29,28.41,2.33,61.55,3.22,90.02l-11.53,13.06-7.74-14.71c-.66-25.18,4.09-63.05,7.66-90.81-.95-2.01-1.97-5.38-3.65-6.81,2.12-3.37,3.43-4.52,6.06-6.53,.14,0,4.81-.22,5.32,.07Z" style="fill:#203c73; fill-rule:evenodd;"/><path d="M427.22,1146.6c-4.89,18.86,6.58,41.24,9.34,50.21-.43,27.48-1.17,57.89-2.12,85.15-.8,25.32-.8,53.51-2.7,78.83-1.17,15.21-3.21,29.84-4.67,44.9-.87,9.9,.3,17.79-2.92,28.76-1.61-1.86-3.07-3.51-4.52-4.8,.43-8.97,1.09-17.79,2.19-27.12,3.35-28.33,5.84-55.01,5.84-84,.07-37.01-.15-79.47,1.31-116.99-5.33-27.18-7.96-29.12-3.36-54.8l1.6-.14Z" style="fill:#20386f; fill-rule:evenodd;"/><path d="M427.37,1135.84c.14,4.3,0,7.46,.29,11.76-30.22,9.54-66.73,9.4-81.91,1.37l.44-11.12c13.14,8.53,60.01,5.74,81.18-2.01Z" style="fill:#9c7357; fill-rule:evenodd;"/><path d="M376.26,916.85c5.1-.43,8.32-2.08,13.43,.14,4.24-.57,9.06-1.29,10.51,.36,1.02,1,1.9,2.79,.8,6.45l1.83-1.79c1.02,4.31,1.31,5.67,1.17,10.12l2.19-1.72c-.15,7.6-1.02,9.39-1.32,16.57,3.36-5.66,1.75-12.48,5.41-14.99,.73-8.89,.88-9.4-1.02-18.36l2.19,1.15c-.66-1.44-1.17-2.44-1.97-3.73,1.17,.14,2.12,.79,3.29,2.08-2.34-4.45-6.57-6.24-9.78-10.69,1.61-.22,2.84,.64,3.94,1.29-2.2-4.8-4.97-5.59-8.98-7.1,1.02-1.79,1.09-1.65,1.38-3.73-3.06,3.01-8.17,2.29-11.24,1.79,1.32-1.22,2.48-1.94,2.04-4.3-1.02,2.16-2.34,2.37-4.23,2.87l1.31-2.01c-3.57,2.37-6.5,3.16-10.51,4.59-2.62,1.08-11.68,6.09-12.34,1.94-.8,1.93-.51,2.87,.95,3.58-1.75,.07-2.63-.07-4.38-.28,.73,.36,1.53,.65,2.33,1-5.99,3.23-5.03,5.59-5.99,12.34,.66-2.94,1.02-3.52,2.63-6.17-.95,2.94-2.41,6.53-2.78,8.75-.58,3.37,.74,6.03,.95,8.54,.07,1.22-.66,2.44-.51,3.66,.58,3.15,.94,5.66,1.17,8.89,.36-2.08,.58-3.58,.73-5.74,.8,3.8,.59,8.82,3.5,16.71-.43-3.73-.14-6.89-.14-10.33,.08-3.87-.07-7.89,.59-12.62,1.02-8.68,4.09-10.54,6.5-10.4,2.26,.15,4.96,1.22,6.35,1.15Z" style="fill:#20386f; fill-rule:evenodd;"/><path d="M2005.53,789.53c4.02-10.83,8.15-21.59,20.48-28.48,9.97-5.52,20.91-5.45,30.63-.87,27.52,13.13,15.18,37.02,33.03,62.12,7.63,10.69,19.05,16.21,24.82,27.47,10.37,20.3,1.32,53.44-26.46,72.02-68.04,45.62-105.46-35.72-105.64-53.29-.14-13.05,20.51-72.02,23.14-78.97Z" style="fill:#20386f; fill-rule:evenodd;"/><path d="M1918.18,995.25c8.1-2.51,8.21-1,9.23-1.36,1.21-.43,11.83-13.92,11.83-13.92,0,0,31.47-39.52,33.07-41.75l12.74-50.64,27.12-.71s-15.29,54.73-16.61,57.52c-1.32,2.66-50.15,51.14-54.32,55.59,0,0-2.99,7.03-5,11.48-2.04,4.37-5.95,7.6-6.72,8.75-.11,.15-2.84,3.88-7.52,7.46-3.98,3.09-1.64-1.65-1.64-1.65,0,0,6.35-7.1,5.69-7.53-.51-.28-3.72,3.8-8.1,7.25-1.13,.93-2.23,1.79-3.29,2.58-2.66,2.08-4.78,1.08-2.29-1.58,.87-.94,2.38-2.44,3.58-3.37,1.31-1.08,2.19-2.37,3.18-3.44,1.93-1.94,3.36-3.44,3.25-3.44-.18-.07-.07-.71-1.31,.21-1.46,1.08-4.05,4.09-6.39,5.53-1.27,.86-3.87,2.73-3.87,2.73,0,0-4.6,2.58-4.78,2.37-1.17-1.15,1.57-3.95,3.46-4.81,.95-1.22,3.73-3.15,3.73-3.15,0,0,4.79-5.09,4.09-5.81-.58-.57-14.45,9.47-15.55,8.25-.87-1.08,3.14-4.23,3.14-4.23,0,0,2.63-1.79,3.43-2.44,.95-.79,3.62-3.3,3.62-3.3,0,0,8.94-9.11,8.21-9.68-.73-.57-3.25-1.36-3.98-1-.77,.43-1.79,1.79-2.52,2.15-.77,.36-2.08,.21-2.63-.65-.51-.94,2.41-4.09,2.41-4.09,0,0,2.37-2.58,4.74-3.3Z" style="fill:#f9af79; fill-rule:evenodd;"/><path d="M2068.86,923.52c2.01-1.65,28.73-24.46,40.71-34.65,0,0-11.94-8.75-19.31,4.02-7.38,12.77-21.39,30.63-21.39,30.63Z" style="fill:#233761; fill-rule:evenodd;"/><path d="M2026.52,925.17s2.92,9.97,17.16,27.4c16.46-.22-17.16-27.4-17.16-27.4Z" style="fill:#233761; fill-rule:evenodd;"/><path d="M1957.42,1191.35c4.56,11.4,27.74,34.86,51.69,56.95,28.54,26.47,58.11,51,58.11,51,0,0,13.51,4.09,7.59-15.49,0,0-32.56-58.82-46.58-76.18-3.97-5.02-8.1-9.54-12-13.49-9.68-9.82-17.67-15.99-17.67-15.99,0,0,1.79-2.94,4.78-7.89,14.57-24.53,56.32-99.49,43.44-132.77-15.56-40.1-54.14-58.17-54.14-58.17,0,0-12.23,50.78-22.59,102.93-9.49,47.99-17.38,97.12-12.63,109.1Z" style="fill:#223f81; fill-rule:evenodd;"/><path d="M1970.05,1082.25c7.12,32.14,19.46,77.54,33.28,88.01,14.57-24.53,56.32-99.49,43.44-132.77-15.56-40.1-54.14-58.17-54.14-58.17,0,0-12.23,50.78-22.59,102.93Z" style="fill:#20386f; fill-rule:evenodd;"/><path d="M2009.11,1248.31c28.54,26.47,58.11,51,58.11,51,0,0,13.51,4.09,7.59-15.49,0,0-32.56-58.82-46.58-76.18-3.97-5.02-8.1-9.54-12-13.49,.47,15.07,.04,40.53-7.12,54.16Z" style="fill:#20386f; fill-rule:evenodd;"/><path d="M2002.39,999.48l2.71-9.83c18.98,8.1,74.82-3.73,74.82-3.73,0,0,16.65,19.37,8.07,58.68-4.2,19.22-18.98,101.14-25.04,125.17-2.19,8.68-3.87,14.85-4.56,17.36h0c-.22,.79-.07,1.51,.22,2.23,2.59,6.24,4.53,12.69,5.92,19.15,13.83,63.62-24.02,133.85-24.02,133.85l-6.46-3.73s-2.52-84.78-9.2-123.01c-1.17-6.46-2.45-11.62-3.83-14.85-4.01-9.18-6.86-23.74-8.87-40.89-3.72-32.35-4.41-73.74-4.19-105.66-.66-.07-5.55-54.73-5.55-54.73Z" style="fill:#223f81; fill-rule:evenodd;"/><path d="M2088.06,1009.81c7.75-11.48-18.76-58.39-17.85-62.76,1.9-8.75,6.24-18.36,10.52-27.04,4.27-8.68,8.47-16.42,9.96-21.23-1.35-1.87-2.73-3.66-3.98-5.31-1.89-2.58-3.54-4.95-4.6-7.1-1.17-2.44-1.68-4.66-1.13-6.82,.44-1.65,1.02-3.3,1.75-4.88,.33-.72,.69-1.51,1.05-2.22,3.94-7.75,9.86-14.06,9.86-14.06-9.35-5.88-24.05-8.89-24.17-8.47-1.09-.36-2.08-.57-2.84-.79-.55-.14-1.09-.29-1.65-.36-1.86-.43-3.69-.86-5.33-1.15-3.32-3.3-7.33-15.5-6.13-33.57l-1.64,.21-27.16,3.59s.12,8.39-.36,16.21c-.36,6.1-1.09,11.91-2.44,13.2-2.12,.14-3.4,.29-3.4,.29h0l-.03,.07c-1.53,.07-2.96,.22-4.23,.36,0,0-.11,.07-.29,.07-2.41,.29-4.38,.58-6.02,.79l-.29,.07c-4.63,.86-6.2,1.65-6.2,1.65v.07c.22,8.39-13.62,23.1-12.63,42.17,.04,.72,7.09,50.57,7.01,51.29-.55,14.2-7.62,54.23-7.62,54.23-6.46,12.34,95.74,23.32,99.86,11.48Z" style="fill:#f9af79; fill-rule:evenodd;"/><path d="M2024.73,817.93s.12,8.32-.36,16.14c15.04,.5,23.8-12.48,27.53-19.73l-27.16,3.59Z" style="fill:#ed9760; fill-rule:evenodd;"/><path d="M2019.25,825.03s35.52,2.73,36.87-19.08c1.39-21.73,6.9-36.01-15.7-38.66-22.63-2.65-27.56,5.38-29.82,12.48-2.26,7.17-.54,43.97,8.65,45.26Z" style="fill:#f9af79; fill-rule:evenodd;"/><path d="M2012.43,767.72c5.88-6.17,9.96-4.45,12.19-2.37,20.04-9.32,31.61,6.96,31.61,6.96,1.39,15.78,12.3,25.39,12.3,25.39,0,0-6.71,3.52-21.43-1.15-4.49-1.44-8.36-4.88-11.57-8.96,5.41,10.33,13.18,18,13.18,18-17.34-9.18-22.96-34-23.54-36.58-2.26,1.79-6.83,5.67-8.36,9.68-2.11,5.45-3.61,16.78-6.97,16.14,0,0-6.28-17.79,2.59-27.11Z" style="fill:#20386f; fill-rule:evenodd;"/><path d="M1998.09,1344.35h55.12s2.04-8.61-1.57-14.49c-3.21-5.24-1.24-8.75,.15-13.2-2.53,1-5.48,2.65-9.02,2.44-2.78-.21-7.08-2.15-9.6-3.58-2.37,2.65-11.13,14.7-14.3,16.93-3.62,2.51-19.68,1.65-20.77,11.91Z" style="fill:#0e2952; fill-rule:evenodd;"/><path d="M2079.99,1343.06l20.73-50.14s-7.37-5.16-14.27-4.02c-6.13,.93-8.43-1.29-11.65-5.09,.04,2.65-.33,5.95-1.82,9.11-1.2,2.44-3.43,4.59-5.77,6.38,1.61,3.16,8.43,16.64,9.38,20.37,1.02,4.23-5.88,18.51,3.39,23.39Z" style="fill:#0e2952; fill-rule:evenodd;"/><path d="M1995.82,944.1c0-.36-2.15-16.07-4.08-29.98-4.24-.43-9.42-1.43-13.91-3.51,.25-6.02,4.38-58.03,26.57-60.97,1.1-.29,2.19-.51,3.25-.72,.11,0,.18,0,.29-.07,2.74-.5,5.14-.72,6.02-.79,.18,0,.29-.07,.29-.07,0,0-6.64,18.51-6.5,20.66,.15,2.22,21.43,2.94,35.41,3.09,13.87,.22,21.72-22.6,21.83-22.96,.55,.07,1.1,.22,1.65,.36,.76,.22,19.34,3.01,27.01,9.25,0,0-5.91,6.31-9.86,14.06-.36,.72-.73,1.51-1.05,2.22-.73,1.58-1.31,3.23-1.75,4.88-.55,2.15-.04,4.38,1.13,6.82,1.06,2.15,2.7,4.52,4.6,7.1,1.24,1.65,2.63,3.44,3.98,5.31-.51,1.65-1.35,3.66-2.37,5.88v.07c-2,4.3-4.79,9.54-7.59,15.28-4.27,8.68-8.62,18.29-10.52,27.04-.91,4.38,25.59,51.28,17.85,62.76-1.2,3.51-11.02,5.02-24.05,5.1-30.99,.14-80.38-7.82-75.82-16.57,0,0,7.08-40.02,7.62-54.23Z" style="fill:#fff; fill-rule:evenodd;"/><path d="M2064.01,1014.9c13.02-.07,22.85-1.58,24.05-5.1,7.75-11.48-18.76-58.39-17.85-62.76,1.9-8.75,6.24-18.36,10.52-27.04,2.81-5.74,5.59-10.97,7.59-15.28v-.07c-1.09-4.23-1.75-6.67-1.75-6.67,0,0-28.18,32.21-34.68,47.42-5.04,11.91,6.79,52.5,12.12,69.51Z" style="fill:#6d96ce; fill-rule:evenodd;"/><path d="M2077.43,993.1l5.59,9.47c35.85-13.99,58.66-45.41,58.66-45.41,1.27-17.86-7.23-38.37-17.42-56.09-1.71-2.94-3.43-5.74-5.14-8.54-7.22,6.09-17.27,13.98-26.86,19.72,1.5,2.44,3.29,5.31,5.22,8.47,7.92,12.84,18.21,29.33,19.52,30.62,2.23,2.22-39.57,41.75-39.57,41.75Z" style="fill:#f9af79; fill-rule:evenodd;"/><path d="M2095.98,924.52c17.67-1.08,30.7-23.67,30.7-23.67-13.8-23.96-33.04-42.46-33.04-42.46-48.95,18.36-5.62,60.97,2.33,66.13Z" style="fill:#fff; fill-rule:evenodd;"/><path d="M2077.43,993.1s-2.99-.51-4.99-2.16c-1.93-1.72-8.22-6.46-8.58-5.02-.4,1.51,4.53,3.8,1.98,4.16-2.59,.36-6.65-1.36-10.7-.72-4.05,.65-10.3,9.76-8.36,10.83,1.9,1.15,8.91-2.51,10.77-1.22,1.82,1.22,14.96,8.32,25.47,3.59,10.51-4.73-5.59-9.47-5.59-9.47Z" style="fill:#f9af79; fill-rule:evenodd;"/><path d="M1873.21,912.04c1.57-.5,6.9-1.72,13.11-3.8,6.35,2.58,14.7,1.8,25.11-2.22,3.94-6.17,4.31-12.48,1.06-18.79-8.17,3.8-15.36,5.31-21.57,4.37,7.7-4.95,8.87-7.89,3.58-8.82-.51,1.15-1.61,2.15-3.29,2.87-5.36,.86-9.2,4.44-11.5,10.69-2.85,.72-5.8,1.44-7.3,1.94,1.53,3.59,1.82,7.89,.8,13.77Z" style="fill:#fab688; fill-rule:evenodd;"/><path d="M1727.53,754.24c-19.78-2.51-34.71-1.15-41.13,8.18,.8,5.67,2.59,13.05,5.26,22.16-1.17,2.15-2.88,3.3-5.11,3.37-2.8-5.38-5.18-8.61-7.08-9.61-9.42,4.15-7.66,10.54,5.33,19.22,.77,2.94,1.46,5.45,2.15,7.39-11.64-2.58-21.43-12.84-22.78-17.28-13.62-26.33,1.57-37.44,9.67-41.53,3.61-26.11,42.16-3.08,61.5-15.64,7.71,10.4-1.82,23.53-7.81,23.74Z" style="fill:#20386f; fill-rule:evenodd;"/><path d="M1666.43,872.52c12.45,14.7,22.89,25.32,31.32,31.85-7.7-26.83-15.92-55.73-24.67-86.65-3.14,2.58-5.62,5.09-7.49,7.6-.69,12.55-.84,22.16-.51,28.76,4.56,3.51,8.25,5.74,11.02,6.6-4.2,3.73-7.41,7.67-9.67,11.84Z" style="fill:#20386f; fill-rule:evenodd;"/><path d="M1744.32,865.42c-6.02,13.2-12.81,25.1-20.37,35.87,2.23-32.78,3.36-60.4,3.4-82.85,3.39,1.87,5.91,3.66,7.77,5.59,.36,.43,.69,.79,1.02,1.22,3.57,12.55,5.88,22.38,6.93,29.48-3.36,1.5-6.17,2.79-8.46,3.87,3.13,2.08,6.38,4.38,9.7,6.81Z" style="fill:#20386f; fill-rule:evenodd;"/><path d="M1665.58,825.32c-19.16,10.9-34.86,20.59-47.05,29.05-8.21,30.85-12.66,64.06-13.36,99.85,1.13,41.03,5.29,70.73,10.22,86.79,7.2,.29,14.86-.43,17.71-3.08,1.57-36.15,1.94-65.42,1.17-87.94,5.25-11.91,9.89-20.73,13.91-26.61,1.71,12.19,4.12,22.81,4.67,33.71-2.01,22.38-3.03,49.14-9.09,80.19,7.59,7.18,24.34,11.41,50.33,12.77,4.85-58.82,6.06-107.38,3.65-145.68-8.43-6.52-18.87-17.14-31.32-31.85,2.26-4.16,5.47-8.1,9.67-11.84-2.77-.86-6.46-3.08-11.02-6.6-.33-6.6-.18-16.21,.51-28.76Z" style="fill:#223f81; fill-rule:evenodd;"/><path d="M1723.96,901.28c7.44,78.04,10.55,128.75,14.93,146.32,12.45-1.36,22.05-7.1,27.85-12.76-1.57-44.33-6.82-72.73-9.05-98.7,3.97-42.53,12.23-81.7,3.36-99.92-9.53-6.31-17.81-9.97-24.89-10.97,3.57,12.55,5.88,22.38,6.93,29.48-3.36,1.5-6.17,2.79-8.46,3.87,3.13,2.08,6.38,4.38,9.7,6.81-6.02,13.2-12.81,25.1-20.37,35.87Z" style="fill:#223f81; fill-rule:evenodd;"/><path d="M1772.28,848.92c-3.54-4.3-7.3-8.53-11.24-12.7,6.13,12.62,4.09,35.29,.91,62.19,6.2,7.61,19.53,21.09,30.95,29.48,23.47,1.29,48.58-4.02,87.31-15.57,1.57-3.94,1.06-10.47-.51-16-37.71,2.15-60.74,1.79-75.89,5.59-9.82-23.95-22.23-38.23-31.54-53Z" style="fill:#223f81; fill-rule:evenodd;"/><path d="M1697.6,837.65c-6.86-8.82-12.53-16.85-18.73-21.88,.66-2.65,1.1-4.66,1.86-6.74,.37-.93,2.44-2.08,5.25-2.58-.26,.43-.8,2.29-.32,2.58,.11,.14,.22,.22,.32,.29,6.61,5.24,13.58,9.75,22.12,13.77-4.09,4.66-6.9,9.61-10.51,14.56Z" style="fill:#c4d1eb; fill-rule:evenodd;"/><path d="M1724.39,818.15c.18,5.74,.07,10.4-.4,14.06-1.42-4.16-4.02-7.61-7.77-10.33-.58-4.81-.99-9.33-1.17-13.55,4.09,1.5,7.23,4.8,9.35,9.82Z" style="fill:#c4d1eb; fill-rule:evenodd;"/><path d="M1732.57,997.04c-2.26-24.6-4.89-56.81-8.61-95.76,2.19-32.21,3.32-59.47,3.4-81.7-.91-.29-1.9-.65-2.92-.93,.14,5.52,0,10.04-.44,13.56-1.42-4.16-4.02-7.61-7.77-10.33-1.17,2.3-1.53,4.66-3.43,7.39-2.04-2.08-3.94-4.02-5.18-5.59-3.84,4.52-6.57,9.25-10,13.98-6.75-8.75-12.41-16.71-18.54-21.66-2.12,1.01-3.98,2.01-5.63,3.02,8.62,30.49,16.72,58.89,24.31,85.36,1.68,26.4,1.61,57.6-.18,93.68,3.03,.5,6.17,.79,9.34,.93v-.28c0-.72,.62-1.37,1.35-1.37l13.1-.36c.77,0,1.35,.57,1.35,1.29v.22c3.24-.36,6.53-.79,9.85-1.43Z" style="fill:#fff; fill-rule:evenodd;"/><path d="M1720.85,835.79c-2.3-3.66-5.01-5.81-8.07-6.53-2.3,1-4.71,3.3-7.34,6.89,2.04,3.44,4.2,5.81,6.49,7.17-4.3,26.61-6.31,63.63-5.95,111.04,3.21,7.1,6.43,12.19,9.56,15.35,3.76-5.45,6.1-11.12,7.01-16.93-2.99-49.78-4.74-86.15-5.3-109.03,2.12-2.79,3.33-5.45,3.58-7.96Z" style="fill:#6d96ce; fill-rule:evenodd;"/><path d="M1705.45,826.4c-1.5,1.94-2.88,4.02-4.24,6.03,1.25,.86,2.85,1.79,4.82,2.87,1.75-2.3,3.43-3.95,5-5.02-1.9-1.43-3.77-2.72-5.59-3.87h0Zm12.41-3.23c-.73,2.44-1.72,4.73-2.95,6.81,1.75,.86,3.32,2.22,4.81,4.16,.84-1.29,1.5-3.44,2.05-6.52-1.06-1.65-2.38-3.09-3.91-4.45Z" style="fill:#466fb5; fill-rule:evenodd;"/><path d="M1762.82,1185.69c.19-39.95-1.17-86.94-4.09-140.95-5.44,3.15-12.44,5.67-21.42,7.53-2.15-5.59-4.12-18.87-7.01-43.11-2.48,.64-5,1.15-7.59,1.58v1.36c0,.72-.59,1.29-1.35,1.37l-13.1,.36c-.73,0-1.35-.57-1.35-1.29v-.93c-2.37-.14-4.78-.36-7.23-.65-1.35,20.37-1.87,34.07-2.92,44.04-21.56-2.66-34.49-4.95-44.93-9.25-5.3,40.24-8.25,83.63-8.83,130.11-8.8,18.58-11.21,63.99-7.23,136.14,7.52,1.65,16.03,1.65,25.55,0,7.52-32.42,14.01-75.17,19.57-128.18,7.81-25.32,15.91-61.04,24.28-106.95,1.68,31.13,6.24,66.42,13.61,105.73-2.48,29.05,1.83,71.73,13,128.04,5.87,.5,15.07-.29,27.66-2.51-1.28-45.76-.14-86.58,3.39-122.44Z" style="fill:#223f81; fill-rule:evenodd;"/><path d="M1696.76,1055c1.06-9.97,1.57-23.67,2.92-44.04-.91-.14-1.87-.21-2.81-.36-.73,12.55-1.68,25.75-2.78,39.45-18.73-1-32.67-3.45-41.83-7.46-.15,1.07-.25,2.15-.43,3.16,10.44,4.3,23.36,6.6,44.93,9.25h0Zm40.56-2.73c8.98-1.86,15.99-4.38,21.42-7.53-.08-1.22-.14-2.44-.18-3.66-5.33,3.16-11.93,5.67-19.67,6.52-1.82-7.39-3.47-20.73-5.26-39.38-1.09,.29-2.23,.65-3.32,.93,2.88,24.24,4.85,37.51,7.01,43.11Z" style="fill:#0e2952; fill-rule:evenodd;"/><path d="M1634.96,1324.13c1.2,1.15,1.57,.79,2.45,.29,1.38-7.46,15.69-8.39,19.24-.72,1.05-.43,1.82-1.08,2.26-1.94,2.48,4.8,8.14,9.54,6.64,17.93-3.8,5.38-23.4,8.04-32.67-2.94-2.63-4.23,.62-9.54,2.08-12.63h0Zm98.77-8.18c-2.41,6.39-2.92,11.62-.11,13.63,7.19,1.44,21.94,1.29,44.68,4.23,16.06-1.15,23-5.67,18.94-10.62-13.94,.86-26.53-2.72-37.78-10.76-2.08,8.39-10.69,9.54-25.73,3.51Z" style="fill:#0e2952; fill-rule:evenodd;"/><path d="M1636.42,1312.15c-.4,4.45-.76,8.54-1.17,12.26,.99,.79,1.39,.5,2.16,0,1.38-7.46,15.69-8.39,19.24-.72l.03-.07h.18l.04-.07h.11l.03-.07h.11v-.07h.15v-.07h.11l.03-.07h.11v-.07h.12v-.07h.07v-.07h.11v-.07h.08v-.07h.07c-.66-3.01-1.17-6.38-1.6-10.19-7.3,.86-13.95,.72-19.97-.57h0Zm120.46-3.59c.55,2.01,1.28,3.73,2.19,5.24-.07,.21-.18,.43-.26,.65-.4,.93-.91,1.72-1.57,2.36h0c-.21,.29-.43,.5-.65,.65h0c-.11,.07-.18,.14-.26,.22h0c-.84,.65-1.79,1.15-2.85,1.51h0c-.11,0-.18,.07-.29,.07h-.03c-.11,0-.22,.07-.33,.07h-.03c-.11,.07-.22,.07-.29,.07h-.04c-.11,.07-.22,.07-.33,.07h-.08l-.29,.07h-.03c-1.1,.21-2.31,.21-3.58,.14h-.51l-.36-.07h-.47l-.08-.07h-.43l-.44-.07h-.11c-1.06-.15-2.19-.43-3.4-.72h-.14l-.43-.15h-.04l-.48-.14h-.15l-.4-.14h-.14l-.44-.14-.18-.07-.44-.15h-.11l-.48-.14-.14-.07-.44-.15h-.11l-.51-.22h-.11l-.51-.21-.63-.22c-.36-.14-.77-.28-1.17-.43h-.11l-.62-.22c.04-1.79-.04-3.66-.25-5.52,5.4,.15,12.92-.57,22.56-2.22Z" style="fill:#fab688; fill-rule:evenodd;"/><path d="M1764.91,855.38c.51,11.9-1.02,26.68-2.95,43.03,6.2,7.61,19.53,21.09,30.95,29.48,23.47,1.29,48.58-4.02,87.31-15.57-28.14,6.24-56.91,9.97-86.33,11.12-5.95-4.23-15.11-13.05-27.49-26.61,.41-10.33-.08-24.17-1.5-41.46Z" style="fill:#0e2952; fill-rule:evenodd;"/><path d="M1655.87,956.15c-1.31-16.57-2.62-30.84-3.79-42.82-.88,3.37-2.16,6.75-3.9,10.04,1.71,12.19,4.12,22.81,4.67,33.71-2.01,22.38-3.03,49.14-9.09,80.19,.66,.65,1.46,1.29,2.3,1.87,4.96-19.15,8.25-46.77,9.81-82.99Z" style="fill:#0e2952; fill-rule:evenodd;"/><path d="M1696.87,1010.6c13.07,2.01,25.33,1.22,36.76-2.37-.33-3.59-.69-7.32-1.06-11.19-12.59,2.29-24.24,2.65-35,1-.18,4.16-.44,8.32-.69,12.55Z" style="fill:#9c7357; fill-rule:evenodd;"/><path d="M1708.26,997.33l13.1-.36c.77,0,1.35,.57,1.35,1.29v13.85c0,.72-.59,1.29-1.35,1.37l-13.1,.36c-.73,0-1.35-.57-1.35-1.29v-13.84c0-.72,.62-1.29,1.35-1.37Z" style="fill:#fff; fill-rule:evenodd;"/><polygon points="1709.49 999.84 1709.49 1011.24 1720.12 1010.95 1720.12 999.55 1709.49 999.84" style="fill:#9c7357; fill-rule:evenodd;"/><path d="M1670.37,818.58c.47,0,1.02,.07,1.57,.07l-.44,.36-1.13-.43h0Zm2.92,0c.33,0,.62,0,.91-.07-.26,.14-.55,.36-.77,.5l-.15-.43h0Zm12.05-9.75c6.39,5.16,13.1,9.61,21.21,13.56,.55,.22,1.06,.5,1.57,.72-.19,.21-.33,.43-.51,.57,1.09,1.36,2.7,3.01,4.42,4.8,.58-.14,1.09-.36,1.6-.57,1.2-2.15,1.61-4.16,2.59-6.02-.14-1.07-.26-2.08-.37-3.16-.11-1.21-.54-5.74-.72-6.95,.66-.07,1.28-.14,1.89-.14,.77-.15,1.65-.29,2.67-.43h.04c7.96-1.5,11.28-5.52,9.93-12.05,3.21-13.56,3.65-25.25,.15-28.48-.59-5.74-1.32-11.26-2.27-16.42-19.78-2.51-34.71-1.15-41.13,8.18,.8,5.67,2.59,13.05,5.26,22.16-1.17,2.15-2.88,3.3-5.11,3.37-2.8-5.38-5.18-8.61-7.08-9.61-9.42,4.15-7.66,10.54,5.33,19.22,.77,2.94,1.46,5.45,2.15,7.39-.33,1.08-.88,2.37-1.61,3.88Z" style="fill:#fab688; fill-rule:evenodd;"/><path d="M1715.12,811.76c-3.51,.28-7.52,.14-11.9-.36,4.16,2.72,8.32,4.66,12.48,5.81-.07-.79-.15-1.58-.22-2.37-.15-1.29-.29-2.58-.36-3.08Z" style="fill:#ed7d57; fill-rule:evenodd;"/><polygon points="1686.79 1073.07 1681.47 1195.59 1545.39 1181.53 1561.48 1073.07 1686.79 1073.07" style="fill:#e5bb9a; fill-rule:evenodd;"/><path d="M1704.13,1180.52c-10.95,3.94-17.3,9.4-22.67,15.06l5.33-122.52,6.13-.14,11.21,107.59Z" style="fill:#9c7357; fill-rule:evenodd;"/><path d="M1686.79,1073.07l-15.81,49.13c-2.3,5.45-4.6,10.26-13.83,9.47l-87.32-5.38c-7.77-.5-7.95-4.37-8.03-9.61v-43.61h124.98Z" style="fill:#9c7357; fill-rule:evenodd;"/><path d="M1623.8,1122.99l-22.23-1.43c-1.21-.07-2.44,.79-2.63,1.94l-3.03,19.44c-.18,1.15,.58,2.23,1.79,2.37l23.1,2.29c1.2,.14,2.52-.71,2.67-1.93l2.12-20.3c.11-1.15-.59-2.29-1.79-2.37Z" style="fill:#fff; fill-rule:evenodd;"/><polygon points="1619.66 1128.23 1618.24 1141.86 1601.96 1140.28 1604.01 1127.23 1619.66 1128.23" style="fill:#9c7357; fill-rule:evenodd;"/><path d="M1660.73,1073.07c-1.38-4.73-4.56-8.75-8.87-11.84-1.86-1.29-3.9-2.51-6.13-3.52-1.31-3.3-9.2-6.17-18.83-6.53-10.22-.36-18.69,2.15-19.54,5.74-.66,.29-1.24,.57-1.86,.86-6.43,3.22-11.2,8.25-12.78,15.28h4.71c1.49-5.17,5.22-8.89,10.11-11.33,.66-.36,1.32-.65,2-.93,3.22,2.23,9.49,3.95,16.79,4.16,7.63,.29,14.31-1,17.52-3.15,1.94,.86,3.72,1.86,5.37,3.01,3.07,2.23,5.4,4.95,6.64,8.25h4.86Z" style="fill:#9c7357; fill-rule:evenodd;"/><path d="M1638.39,1056.72c.11,2.94,1.17,7.39-.73,9.54-5.01,5.52-17.3,5.96-22.56,2.37-2.26-1.58-2.55-6.6-2.63-9.75,2.74-6.82,4.2-13.13,4.42-18.94,5.4-3.52,13.51-3.8,16.21-2.01l5.29,18.8Z" style="fill:#fab688; fill-rule:evenodd;"/><rect x="784.43" y="868.93" width="7" height="154.36" style="fill:#ebf1f9;"/><path d="M704.19,1259.93l-9.34-2.94s-1.97-24.97,2.19-54.95c2.63-18.94,7.45-39.45,16.21-55.95,4.01-7.46,8.76-14.13,14.46-19.36,0,0,7.23-16.43,16.79-38.31,10.51-24.39,76.8-31.56,38.98,19.51-7.74,10.47-16.06,28.91-26.06,40.1-17.01,19.15-29.13,41.46-37.31,61.11-11.82,28.12-15.91,50.78-15.91,50.78Z" style="fill:#f9af79; fill-rule:evenodd;"/><path d="M682.88,1261.36c-2.85,4.52,3.29,8.89,10.88,13.12,7.6,4.16,4.45,4.59,14.09,11.69,9.78,7.1,15.48,6.31,16.93,5.24,1.31-.93-2.62-5.31-6.78-10.04-.51-.65-1.1-1.29-1.53-1.87-4.67-5.45-5.41-12.33-7.6-19.44-2.05-6.74,1.24-23.53,1.24-23.53l-12.92-10.04s-2.63,15.21-4.09,21.52c-.88,3.8-3.94,6.88-6.43,9.18-1.46,1.29-2.78,2.58-3.8,4.16Z" style="fill:#f9af79; fill-rule:evenodd;"/><path d="M693.75,1274.49c7.6,4.16,4.45,4.59,14.09,11.69,9.78,7.1,15.48,6.31,16.93,5.24,1.31-.93-2.62-5.31-6.78-10.04h-.15s-8.69-1.15-16.21-7.68c-6.13-5.31-10.88-12.76-14.97-16.5-1.46,1.29-2.78,2.58-3.8,4.16-2.85,4.52,3.29,8.89,10.88,13.12Z" style="fill:#0e2952; fill-rule:evenodd;"/><path d="M769.03,781.06s-22.85-2.72-34.32,18.15c-11.53,20.88-10.51,51.14-21.75,65.42-11.1,14.27,1.9,27.76,1.9,27.76l86.73,2.87s6.06-15.93,0-35.08c-5.99-19.08,23.43-76.25-32.56-79.12Z" style="fill:#20386f; fill-rule:evenodd;"/><path d="M840.42,1034.63c.15,3.44,1.17,10.68-1.02,10.68-1.9,0-5.54-9.18-7.88-11.11-3.43-2.87-6.21-8.83-6.72-10.26-.87-2.94-1.76-3.58-1.76-3.58h0s-27.45-49.28-29.56-61.9c-.66-4.09-2.48-12.34-4.6-21.52-2.27-10.04-4.97-21.23-6.94-29.62,8.76-1.72,18.47-2.3,26.36-2.44,1.61,10.19,3.06,20.66,4.23,29.7,1.9,13.48,3.29,23.96,4.09,26.18,2.41,6.17,8.98,39.3,15.18,56.52,.73,1.72,1.6,5.16,3.36,7.17,2.19,2.37,5.04,5.52,5.25,10.18Z" style="fill:#f9af79; fill-rule:evenodd;"/><path d="M792.75,985.85c-15.11-47.55,15.33-46.98,13.79-70.72-1.6-23.81-20.37-49.42-20.37-49.42,0,0-.66-.07-1.83-.22-.73,0-1.17-.43-1.45-1.08-.74-1.87-.88-5.96-.88-10.26,0-6.53,.59-13.49,.59-13.49l-22.55-4.37-1.39-.29c.08,11.12-2.04,19.51-4.38,24.17-1.09,2.22-3.21,3.73-5.69,4.09-4.82,.65-13.43,2.08-19.13,4.44-2.77,1.15-4.89,2.51-5.62,4.09-6.21,13.34-12.34,47.05-16.72,71.08-2.33,13.34-4.24,23.74-5.26,25.97-2.63,6.17-10.8,39.95-17.81,56.67l8.91,2.66s29.49-48.13,32.19-60.61c.88-4.09,3-12.26,5.55-21.37,.37-1.36,.81-2.8,1.17-4.23,4.38,11.76,6.64,17.22,6.5,22.31-.15,7.24-5.11,13.77-15.62,36.8-5.7,12.7,85.49,32.35,70.01-16.21Z" style="fill:#f9af79; fill-rule:evenodd;"/><path d="M782.6,840.67s-.59,6.96-.59,13.49c-12.56-.36-19.27-11.62-21.97-17.86l22.55,4.37Z" style="fill:#e78f51; fill-rule:evenodd;"/><path d="M786.76,846.84s-29.86,.5-29.86-17.72-3.8-30.48,15.18-31.56c18.98-1.08,22.7,5.88,24.24,11.98,1.46,6.1-1.83,36.73-9.56,37.3Z" style="fill:#f9af79; fill-rule:evenodd;"/><path d="M828.31,1271.77l-9.56,2.3s-14.97-20.23-27.53-47.85c-7.89-17.43-14.82-37.44-16.21-55.95-.58-8.39-.14-16.5,1.9-23.96,0,0-2.63-17.72-6.28-41.24-4.08-26.18-9.34-59.61-13.43-84.28l2.48-.72,40.66-23.31s18.69,41.82,13.95,104.73c-1.02,12.91,1.75,32.92-.73,47.56-4.23,25.11-2.48,50.35,1.03,71.3,5.11,30.05,13.73,51.43,13.73,51.43Z" style="fill:#f9af79; fill-rule:evenodd;"/><path d="M795.45,799.42c-4.6-5.52-8.11-4.3-10.07-2.65-15.92-8.68-26.72,4.23-26.72,4.23-2.04,13.06-11.68,20.59-11.68,20.59,0,0,5.41,2.73,17.96,.07,15.04-3.08,19.13-19.72,19.71-21.88,1.9,1.58,5.41,5.1,6.57,8.54,1.45,4.59,2.11,14.2,4.96,13.84,0,0,6.13-14.56-.73-22.74Z" style="fill:#20386f; fill-rule:evenodd;"/><path d="M684.63,1025.01s-2.7,6.31-5.55,8.11c-2.77,1.72-6.87,5.95-6.13,9.33,.8,3.37,1.6,8.68,5.11,8.68s11.97-15.56,13-18.44c1.02-2.94,1.9-3.51,1.9-3.51l-8.32-4.16Z" style="fill:#f9af79; fill-rule:evenodd;"/><path d="M825.02,1163.38c-35.99,20.23-130.61-11.9-130.53-13.77,.51-9.9,9.56-69.43,20.22-126.17,6.57-34.93,24.09-47.99,21.32-50.21h0c-10.81-7.53-6.13-20.44-5.48-25.03-3.29,.86-13.95,2.8-26.21-3.8,4.97-24.17,12.19-58.1,19.42-71.58,.29-.64,.88-1.22,1.76-1.79l-.08-.07c6.72-4.87,20.51-6.31,20.51-6.31,0,0,7.45,17.86,9.64,20.59,14.75,18.07,41.03,9.9,37.53-1.29-1.31-4.09-8.03-17-8.77-18.43-.07-.07,1.83,.22,1.83,.22,4.45,.57,7.52,1,9.85,1.36,4.39,.79,5.48,1.29,6.58,2.08,3.94,3.87,8.91,13.34,9.35,30.27,.14,6.24,6.86,75.67-14.75,74.45-.43,0-.07,1.15,.88,3.3,3.06,6.89,11.68,24.1,14.16,46.27,8.17,72.02,12.77,139.94,12.77,139.94Z" style="fill:#fff; fill-rule:evenodd;"/><path d="M691.05,1032.69s-1.02,7.03-2.92,8.68c-1.9,1.65-2.19,4.59-4.09,3.01-1.97-1.58,7.01-11.69,7.01-11.69Z" style="fill:#f9af79; fill-rule:evenodd;"/><path d="M810.93,1283.96c0,5.3,7.59,5.95,16.28,5.52,8.69-.36,6.21,1.65,18.32,2.66,11.97,1,16.5-2.66,17.16-4.3,.65-1.44-5.04-3.08-11.17-5.02-.8-.29-1.61-.5-2.34-.79-6.86-2.22-11.1-7.68-16.79-12.62-5.4-4.66-11.54-20.59-11.54-20.59l-16.5-1.87s5.99,14.27,8.18,20.45c1.31,3.58,.29,7.89-.58,11.12-.59,1.79-1.02,3.59-1.02,5.45Z" style="fill:#f9af79; fill-rule:evenodd;"/><path d="M827.2,1289.48c8.69-.36,6.21,1.65,18.32,2.66,11.97,1,16.5-2.66,17.16-4.3,.65-1.44-5.04-3.08-11.17-5.02l-.15,.07s-8.03,3.59-17.88,1.87c-8.03-1.36-15.99-5.24-21.53-6.24-.59,1.79-1.02,3.59-1.02,5.45,0,5.3,7.59,5.95,16.28,5.52Z" style="fill:#0e2952; fill-rule:evenodd;"/><path d="M825.02,1163.38c-35.99,20.23-130.61-11.9-130.53-13.77,.51-9.9,9.56-69.43,20.22-126.17,6.57-34.93,24.09-47.99,21.32-50.21,.66,.57,10.8,8.61,29.42,7.53,16.65-1,29.42-3.01,32.64-3.59,3.06,6.89,11.68,24.1,14.16,46.27,8.17,72.02,12.77,139.94,12.77,139.94Z" style="fill:#223f81; fill-rule:evenodd;"/><path d="M736.03,973.23s29.42,12.05,61.17,.65l1.61,4.95s-32.7,11.12-64.1-1.58l1.31-4.02Z" style="fill:#466fb5; fill-rule:evenodd;"/><path d="M825.53,1025.66s3.21,13.91,4.16,12.91c.95-1,.95-6.45,.95-6.45l-5.11-6.46Z" style="fill:#e78f51; fill-rule:evenodd;"/><path d="M2121.35,258.37c-40.19,22.81-105.38,22.81-145.57,0-18.91-10.69-28.92-24.53-30.04-38.59-.08-.86-.08-27.69-.11-28.48-.04-14.99,10-4.09,30.15-15.49,40.19-22.81,105.38-22.81,145.57,0,19.96,11.33,30.04,.22,30.15,15.06,.03,.86,0,27.62-.07,28.48-.91,14.13-10.98,28.19-30.08,39.02Z" style="fill:#9db2d9; fill-rule:evenodd;"/><path d="M1946.86,184.92c.44,.29,.7,.79,.7,1.36v42.18c-.99-2.87-1.61-5.81-1.82-8.68-.08-.86-.08-27.69-.11-28.48,0-3.08,.4-5.09,1.23-6.38Z" style="fill:#c4d1eb; fill-rule:evenodd;"/><path d="M1953.26,191.3v47.85c-1.35-1.79-2.49-3.66-3.47-5.6v-42.25c0-.93,.77-1.72,1.71-1.72l.15,.07c.91,.07,1.61,.79,1.61,1.65Z" style="fill:#c4d1eb; fill-rule:evenodd;"/><path d="M1958.91,196.32v48.78c0,.21-.03,.43-.11,.57-1.24-1.22-2.34-2.44-3.4-3.73v-45.62c0-.93,.8-1.72,1.71-1.72l.19,.07c.88,0,1.6,.79,1.6,1.65Z" style="fill:#c4d1eb; fill-rule:evenodd;"/><path d="M1964.57,201.34v48.78c0,.22-.04,.43-.11,.65-1.21-.93-2.34-1.94-3.44-2.94v-46.48c0-.93,.77-1.72,1.76-1.72l.14,.07c.91,0,1.64,.79,1.64,1.65Z" style="fill:#c4d1eb; fill-rule:evenodd;"/><path d="M1970.27,206.37v48.63c-1.27-.86-2.44-1.65-3.61-2.51v-46.12c0-.93,.8-1.72,1.75-1.72h.19c.91,.07,1.67,.86,1.67,1.72Z" style="fill:#c4d1eb; fill-rule:evenodd;"/><path d="M1975.93,211.46v46.98l-.14-.07c-1.21-.65-2.37-1.36-3.5-2.08v-44.83c0-1,.8-1.79,1.79-1.79h.15c.94,.07,1.71,.79,1.71,1.79Z" style="fill:#c4d1eb; fill-rule:evenodd;"/><path d="M1981.58,216.48v44.97c-1.27-.65-2.48-1.29-3.69-1.94v-43.04c0-1,.8-1.79,1.79-1.79h.18c.95,.07,1.72,.79,1.72,1.79Z" style="fill:#c4d1eb; fill-rule:evenodd;"/><path d="M1987.24,221.5v42.46c-1.28-.5-2.48-1.08-3.68-1.58v-40.89c0-1,.77-1.79,1.75-1.79h.15c.98,.07,1.78,.86,1.78,1.79Z" style="fill:#c4d1eb; fill-rule:evenodd;"/><path d="M1989.14,264.75v-38.23c0-.93,.84-1.79,1.79-1.79h.22c.95,0,1.75,.86,1.75,1.79v39.66c-1.28-.43-2.52-.93-3.76-1.43Z" style="fill:#c4d1eb; fill-rule:evenodd;"/><path d="M1996.41,267.41v-39.88c0-.93,.76-1.72,1.75-1.72h.19c1.02,0,1.82,.79,1.82,1.72v41.1c-1.28-.36-2.52-.79-3.76-1.22Z" style="fill:#c4d1eb; fill-rule:evenodd;"/><path d="M2003.59,269.63v-41.03c0-.93,.84-1.72,1.83-1.72h.19c.98,0,1.78,.79,1.78,1.72v42.03c-1.24-.36-2.52-.65-3.8-1Z" style="fill:#c4d1eb; fill-rule:evenodd;"/><path d="M2010.86,271.42v-41.75c0-1,.8-1.79,1.79-1.79h.22c.98,0,1.79,.79,1.79,1.79v42.54c-1.27-.22-2.55-.5-3.8-.79Z" style="fill:#c4d1eb; fill-rule:evenodd;"/><path d="M2018.09,272.86v-42.11c0-1,.8-1.79,1.79-1.79h.22c.98,0,1.82,.79,1.82,1.79v42.75c-1.32-.22-2.55-.43-3.83-.65Z" style="fill:#c4d1eb; fill-rule:evenodd;"/><path d="M2025.31,274.01v-42.25c0-1,.81-1.79,1.83-1.79h.22c.98,0,1.82,.79,1.82,1.79v42.68c-1.32-.15-2.59-.29-3.87-.43Z" style="fill:#c4d1eb; fill-rule:evenodd;"/><path d="M2032.54,274.79v-41.96c0-1.01,.8-1.79,1.83-1.79h.25c.99,0,1.79,.79,1.79,1.79v42.25c-1.27-.07-2.59-.21-3.87-.29Z" style="fill:#c4d1eb; fill-rule:evenodd;"/><path d="M2039.77,275.3v-41.46c0-.93,.8-1.72,1.82-1.72h.26c1.02,0,1.82,.79,1.82,1.72v41.53c-1.31,0-2.62-.07-3.9-.07Z" style="fill:#c4d1eb; fill-rule:evenodd;"/><path d="M2046.99,275.44v-40.53c0-1,.84-1.79,1.83-1.79h.26c1.02,0,1.82,.79,1.82,1.79v40.53c-1.28,.07-2.59,.07-3.91,0Z" style="fill:#c4d1eb; fill-rule:evenodd;"/><path d="M2054.37,275.37v-41.53c0-1,.8-1.79,1.82-1.79h.26c.98,0,1.83,.79,1.83,1.79v41.39c-1.32,.07-2.63,.14-3.91,.14Z" style="fill:#c4d1eb; fill-rule:evenodd;"/><path d="M2061.71,275.01v-42.25c0-1,.8-1.79,1.82-1.79h.26c.99,0,1.82,.79,1.82,1.79v41.89c-1.31,.14-2.59,.29-3.9,.36Z" style="fill:#c4d1eb; fill-rule:evenodd;"/><path d="M2069.08,274.29v-42.61c0-1.01,.8-1.79,1.82-1.79h.18c1.02,0,1.83,.79,1.83,1.79v42.1c-1.28,.21-2.56,.36-3.83,.5Z" style="fill:#c4d1eb; fill-rule:evenodd;"/><path d="M2076.42,273.29v-42.68c0-1,.84-1.79,1.83-1.79h.21c.99,0,1.79,.79,1.79,1.79v42.03c-1.27,.22-2.52,.43-3.83,.65Z" style="fill:#c4d1eb; fill-rule:evenodd;"/><path d="M2083.79,272v-42.54c0-.93,.81-1.72,1.79-1.72h.22c.98,0,1.79,.79,1.79,1.72v41.68c-1.24,.29-2.52,.57-3.8,.86Z" style="fill:#c4d1eb; fill-rule:evenodd;"/><path d="M2091.16,270.28v-41.89c0-.93,.8-1.72,1.79-1.72h.18c.99,0,1.82,.79,1.82,1.72v40.89c-1.28,.36-2.55,.64-3.79,1Z" style="fill:#c4d1eb; fill-rule:evenodd;"/><path d="M2098.5,268.2v-40.88c0-.93,.8-1.72,1.79-1.72h.22c.95,0,1.75,.79,1.75,1.72v39.59c-1.24,.43-2.48,.86-3.76,1.29Z" style="fill:#c4d1eb; fill-rule:evenodd;"/><path d="M2105.84,265.61v-39.38c0-.93,.8-1.72,1.79-1.72h.18c.99,0,1.79,.79,1.79,1.72v37.87c-1.2,.5-2.48,1-3.76,1.5Z" style="fill:#c4d1eb; fill-rule:evenodd;"/><path d="M2114.85,221.57v40.17c-1.21,.65-2.48,1.15-3.72,1.72v-41.89c0-.93,.8-1.72,1.79-1.72h.14c.98,.07,1.79,.79,1.79,1.72Z" style="fill:#c4d1eb; fill-rule:evenodd;"/><path d="M2120.07,216.98v42.1c-1.21,.65-2.41,1.29-3.65,1.94v-44.04c0-1,.81-1.79,1.75-1.79h.18c.95,.07,1.72,.79,1.72,1.79Z" style="fill:#c4d1eb; fill-rule:evenodd;"/><path d="M2125.33,212.25v43.76c-1.17,.72-2.41,1.51-3.65,2.15v-45.91c0-.93,.8-1.65,1.75-1.65h.18c.95,.07,1.71,.79,1.71,1.65Z" style="fill:#c4d1eb; fill-rule:evenodd;"/><path d="M2130.55,207.66v44.76c-1.13,.86-2.34,1.72-3.58,2.51v-47.27c0-.93,.77-1.72,1.72-1.72h.19c.95,.07,1.68,.79,1.68,1.72Z" style="fill:#c4d1eb; fill-rule:evenodd;"/><path d="M2135.77,203v45.19c-1.1,.93-2.3,1.94-3.54,2.94v-48.13c0-.93,.8-1.72,1.75-1.72h.18c.88,.07,1.61,.86,1.61,1.72Z" style="fill:#c4d1eb; fill-rule:evenodd;"/><path d="M2140.99,198.33v44.55c-1.06,1.22-2.22,2.44-3.47,3.66v-48.2c0-.93,.76-1.65,1.72-1.65h.18c.88,.07,1.57,.79,1.57,1.65Z" style="fill:#c4d1eb; fill-rule:evenodd;"/><path d="M2146.2,193.74v41.89c-.98,1.65-2.11,3.37-3.43,5.02v-46.91c0-1,.77-1.72,1.71-1.72h.18c.88,.07,1.53,.79,1.53,1.72Z" style="fill:#c4d1eb; fill-rule:evenodd;"/><path d="M2148.03,232.12v-43.11c0-.86,.8-1.65,1.72-1.65,.77,0,1.42,.5,1.65,1.22,.03,.29,.07,.65,.07,.93v27.33c0,1.44,0,2.37-.04,2.51-.25,4.3-1.42,8.61-3.4,12.77Z" style="fill:#c4d1eb; fill-rule:evenodd;"/><path d="M2121.35,232.4c-40.19,22.88-105.38,22.88-145.57,0-40.19-22.74-40.19-59.75,0-82.56,40.19-22.81,105.38-22.81,145.57,0,40.23,22.81,40.23,59.82,0,82.56Z" style="fill:#b0c2e4; fill-rule:evenodd;"/><path d="M2117.89,230.47c-38.29,21.66-100.35,21.66-138.6,0-38.26-21.73-38.26-56.95,0-78.62,38.26-21.73,100.31-21.73,138.6,0,38.21,21.66,38.21,56.88,0,78.62Z" style="fill:#e0e8f5; fill-rule:evenodd;"/><path d="M2105.94,223.72c-31.65,17.93-83.08,17.93-114.76,0-31.68-18-31.68-47.12,0-65.13,31.69-18,83.08-18,114.76,0,31.72,18,31.72,47.13,0,65.13Z" style="fill:#e68724; fill-rule:evenodd;"/><path d="M2105.94,162.75c-31.68-17.93-83.08-17.93-114.76,0-14.93,8.46-22.81,19.37-23.69,30.49,.88,11.05,8.77,22.02,23.69,30.48,31.69,17.93,83.11,17.93,114.76,0,14.93-8.46,22.82-19.44,23.69-30.48-.87-11.12-8.75-22.02-23.69-30.49Z" style="fill:#f89a1c; fill-rule:evenodd;"/><path d="M2027.94,211.32l15.26-8.61c5.48,6.53-5.4,11.98-15.26,8.61h0Zm40.8-34.14l-14.45,8.25c-4.56-5.52,4.16-11.05,14.45-8.25h0Zm19.39-10.83l-3.4,1.94c-29.31-15.14-71,4.88-47.74,26.9l-19.71,11.26c-2.71-2.29-4.61-4.81-5.67-7.46-1.34-3.3-6.75-5.6-12.73-5.24-5.73,.36-10.04,1.29-10.4,4.38-.08,.64,.03,3.16,.36,3.8,2.15,4.59,6.64,9.47,13.14,13.13l-3.9-.5c-.74,.36-.4,3.3-.4,3.87s.36,1.08,1.06,1.51l4.3,2.44c1.46,.79,3.79,.79,5.3,0l3.32-1.94c16.65,6.53,33.48,6.53,46.47-.86,12.3-6.96,13.25-15.92,2.89-26.97l16.93-9.61c.85,.86,1.57,2.01,2.12,3.3,1.5,3.3,7.01,5.45,12.92,5.09,7.67-.5,12.82-5.31,10.18-9.4-1.9-3.01-4.96-5.52-8.83-8.11l3.54-2.01c.69-.36,1.02-.86,1.02-1.44-.04-.43,.37-3.44-.29-3.87l-5.62-.22c-1.35-.79-3.5-.79-4.85,0Z" style="fill:#e68724; fill-rule:evenodd;"/><path d="M2027.94,208.23l15.26-8.68c5.48,6.53-5.4,11.98-15.26,8.68h0Zm40.8-34.14l-14.45,8.18c-4.56-5.45,4.16-11.05,14.45-8.18h0Zm19.39-10.9l-3.4,1.94c-29.31-15.06-71,4.88-47.74,26.97l-19.71,11.19c-2.71-2.3-4.61-4.74-5.67-7.46-1.34-3.3-6.75-5.6-12.73-5.24-7.01,.5-11.86,4.38-10.04,8.25,2.15,4.52,6.64,9.4,13.14,13.13l-3.25,1.79c-1.46,.86-1.46,2.22,0,3.01l4.3,2.44c1.46,.79,3.79,.79,5.3,0l3.32-1.94c16.65,6.6,33.48,6.6,46.47-.79,12.3-6.96,13.25-16,2.89-27.04l16.93-9.61c.85,.86,1.57,2.01,2.12,3.3,1.5,3.3,7.01,5.45,12.92,5.09,7.67-.5,12.59-4.88,10-9.04-1.94-3.01-4.78-5.81-8.65-8.47l3.54-2.01c1.35-.72,1.35-1.94,0-2.73l-4.89-2.8c-1.35-.72-3.5-.72-4.85,0Z" style="fill:#fbb031; fill-rule:evenodd;"/><path d="M2115.66,222.58c-40.22,22.81-105.38,22.81-145.61,0-18.92-10.69-28.91-24.53-30.01-38.59-.07-.86-.11-27.69-.11-28.48-.08-14.99,9.96-4.09,30.12-15.49,40.22-22.81,105.38-22.81,145.61,0,19.96,11.33,30,.21,30.15,15.06,0,.86-.04,27.61-.12,28.4-.92,14.2-10.94,28.26-30.04,39.09Z" style="fill:#9db2d9; fill-rule:evenodd;"/><path d="M1941.14,149.13c.44,.29,.73,.79,.73,1.36v42.11c-.99-2.8-1.61-5.74-1.83-8.61-.07-.86-.11-27.69-.11-28.48-.04-3.08,.41-5.09,1.21-6.38Z" style="fill:#c4d1eb; fill-rule:evenodd;"/><path d="M1947.52,155.51v47.84c-1.31-1.79-2.48-3.66-3.43-5.59v-42.25c0-.93,.77-1.72,1.71-1.72l.14,.07c.88,.07,1.57,.79,1.57,1.65Z" style="fill:#c4d1eb; fill-rule:evenodd;"/><path d="M1953.19,160.53v48.78c0,.21,0,.43-.11,.57-1.2-1.22-2.34-2.44-3.39-3.73v-45.62c0-.93,.8-1.72,1.75-1.72l.15,.07c.88,.07,1.61,.79,1.61,1.65Z" style="fill:#c4d1eb; fill-rule:evenodd;"/><path d="M1958.88,165.55v48.78c0,.21-.04,.43-.15,.65-1.21-.93-2.34-1.94-3.4-2.94v-46.48c0-.93,.76-1.65,1.72-1.65h.18c.91,0,1.65,.79,1.65,1.65Z" style="fill:#c4d1eb; fill-rule:evenodd;"/><path d="M1964.54,170.57v48.63c-1.24-.86-2.44-1.65-3.58-2.51v-46.12c0-.93,.77-1.65,1.75-1.65h.15c.95,0,1.68,.79,1.68,1.65Z" style="fill:#c4d1eb; fill-rule:evenodd;"/><path d="M1970.19,175.67v46.98l-.14-.07c-1.17-.72-2.34-1.36-3.48-2.08v-44.83c0-1,.77-1.72,1.75-1.72h.15c.95,0,1.72,.72,1.72,1.72Z" style="fill:#c4d1eb; fill-rule:evenodd;"/><path d="M1975.89,180.69v44.98c-1.28-.65-2.48-1.29-3.69-1.94v-43.04c0-1,.77-1.79,1.75-1.79h.18c.95,.07,1.76,.79,1.76,1.79Z" style="fill:#c4d1eb; fill-rule:evenodd;"/><path d="M1981.51,185.71v42.46c-1.23-.5-2.47-1.08-3.68-1.58v-40.88c0-1,.8-1.79,1.79-1.79h.15c.94,.07,1.75,.86,1.75,1.79Z" style="fill:#c4d1eb; fill-rule:evenodd;"/><path d="M1983.45,229.03v-38.3c0-.93,.8-1.79,1.79-1.79h.18c.99,0,1.79,.86,1.79,1.79v39.74c-1.28-.5-2.52-1-3.76-1.44Z" style="fill:#c4d1eb; fill-rule:evenodd;"/><path d="M1990.67,231.61v-39.81c0-1.01,.8-1.79,1.79-1.79h.18c.98,0,1.83,.79,1.83,1.79v41.03c-1.28-.36-2.56-.79-3.8-1.22Z" style="fill:#c4d1eb; fill-rule:evenodd;"/><path d="M1997.9,233.84v-41.03c0-.93,.8-1.72,1.82-1.72h.19c.98,0,1.79,.79,1.79,1.72v42.03c-1.28-.36-2.52-.65-3.8-1Z" style="fill:#c4d1eb; fill-rule:evenodd;"/><path d="M2005.13,235.63v-41.75c0-.93,.8-1.79,1.79-1.79h.22c1.02,0,1.82,.86,1.82,1.79v42.54c-1.28-.21-2.55-.5-3.83-.79Z" style="fill:#c4d1eb; fill-rule:evenodd;"/><path d="M2012.36,237.07v-42.1c0-1.01,.84-1.79,1.79-1.79h.26c.98,0,1.79,.79,1.79,1.79v42.75c-1.28-.22-2.56-.43-3.83-.65Z" style="fill:#c4d1eb; fill-rule:evenodd;"/><path d="M2019.58,238.21v-42.25c0-.93,.84-1.79,1.82-1.79h.22c.99,0,1.83,.86,1.83,1.79v42.68c-1.32-.14-2.59-.29-3.87-.43Z" style="fill:#c4d1eb; fill-rule:evenodd;"/><path d="M2026.81,239v-41.96c0-1,.84-1.79,1.83-1.79h.25c.99,0,1.83,.79,1.83,1.79v42.25c-1.32-.07-2.62-.22-3.91-.29Z" style="fill:#c4d1eb; fill-rule:evenodd;"/><path d="M2034.07,239.5v-41.39c0-1,.81-1.79,1.79-1.79h.26c1.02,0,1.82,.79,1.82,1.79v41.53c-1.31-.07-2.59-.14-3.87-.14Z" style="fill:#c4d1eb; fill-rule:evenodd;"/><path d="M2041.3,239.65v-40.53c0-.93,.8-1.79,1.83-1.79h.21c1.02,0,1.86,.86,1.86,1.79v40.53c-1.32,.07-2.63,.07-3.9,0Z" style="fill:#c4d1eb; fill-rule:evenodd;"/><path d="M2048.64,239.58v-41.53c0-.93,.85-1.79,1.83-1.79h.25c1.02,0,1.83,.86,1.83,1.79v41.39c-1.32,.07-2.63,.14-3.91,.14Z" style="fill:#c4d1eb; fill-rule:evenodd;"/><path d="M2055.98,239.22v-42.25c0-1.01,.84-1.79,1.82-1.79h.25c.99,0,1.82,.79,1.82,1.79v41.89c-1.31,.14-2.59,.29-3.9,.36Z" style="fill:#c4d1eb; fill-rule:evenodd;"/><path d="M2063.35,238.5v-42.61c0-1,.84-1.79,1.83-1.79h.22c.98,0,1.82,.79,1.82,1.79v42.18c-1.28,.15-2.59,.29-3.87,.43Z" style="fill:#c4d1eb; fill-rule:evenodd;"/><path d="M2070.68,237.57v-42.75c0-1,.85-1.79,1.83-1.79h.26c.95,0,1.79,.79,1.79,1.79v42.03c-1.28,.21-2.56,.5-3.88,.72Z" style="fill:#c4d1eb; fill-rule:evenodd;"/><path d="M2078.06,236.21v-42.46c0-1,.8-1.79,1.82-1.79h.19c1.02,0,1.83,.79,1.83,1.79v41.6c-1.28,.29-2.55,.57-3.83,.86Z" style="fill:#c4d1eb; fill-rule:evenodd;"/><path d="M2085.43,234.48v-41.89c0-.93,.8-1.72,1.79-1.72h.18c1.02,0,1.82,.79,1.82,1.72v40.88c-1.27,.36-2.52,.72-3.79,1.01Z" style="fill:#c4d1eb; fill-rule:evenodd;"/><path d="M2092.81,232.4v-40.88c0-.93,.77-1.72,1.79-1.72h.19c.98,0,1.79,.79,1.79,1.72v39.59c-1.24,.43-2.49,.86-3.76,1.29Z" style="fill:#c4d1eb; fill-rule:evenodd;"/><path d="M2100.14,229.82v-39.38c0-.93,.8-1.72,1.79-1.72h.18c.98,0,1.76,.79,1.76,1.72v37.87c-1.21,.5-2.49,1-3.73,1.51Z" style="fill:#c4d1eb; fill-rule:evenodd;"/><path d="M2109.12,185.78v40.17c-1.21,.64-2.44,1.15-3.69,1.72v-41.89c0-.93,.77-1.72,1.79-1.72h.15c.95,.07,1.75,.79,1.75,1.72Z" style="fill:#c4d1eb; fill-rule:evenodd;"/><path d="M2114.34,181.12v42.18c-1.17,.65-2.41,1.29-3.65,1.94v-44.11c0-.93,.8-1.72,1.78-1.72h.15c.95,.07,1.72,.79,1.72,1.72Z" style="fill:#c4d1eb; fill-rule:evenodd;"/><path d="M2119.6,176.53v43.68c-1.17,.79-2.37,1.51-3.65,2.15v-45.83c0-1.01,.8-1.72,1.79-1.72h.18c.91,.07,1.68,.79,1.68,1.72Z" style="fill:#c4d1eb; fill-rule:evenodd;"/><path d="M2124.82,171.86v44.76c-1.13,.86-2.34,1.72-3.58,2.51v-47.27c0-.93,.77-1.72,1.75-1.72h.19c.91,.07,1.64,.79,1.64,1.72Z" style="fill:#c4d1eb; fill-rule:evenodd;"/><path d="M2130.07,167.2v45.19c-1.13,1-2.3,1.94-3.58,2.94v-48.13c0-.93,.8-1.72,1.75-1.72h.18c.91,.07,1.64,.86,1.64,1.72Z" style="fill:#c4d1eb; fill-rule:evenodd;"/><path d="M2135.3,162.54v44.47c-1.1,1.29-2.27,2.51-3.5,3.73v-48.2c0-.86,.77-1.72,1.75-1.72l.15,.07c.88,.07,1.61,.79,1.61,1.65Z" style="fill:#c4d1eb; fill-rule:evenodd;"/><path d="M2140.51,157.95v41.89c-1.02,1.65-2.15,3.37-3.43,5.02v-46.91c0-.93,.76-1.72,1.68-1.72h.17c.88,.07,1.57,.79,1.57,1.72Z" style="fill:#c4d1eb; fill-rule:evenodd;"/><path d="M2142.34,196.32v-43.04c0-.93,.77-1.72,1.68-1.72,.81,0,1.46,.5,1.64,1.22,.04,.29,.07,.57,.12,.86v27.04c-.04,1.65-.04,2.65-.08,2.8-.26,4.37-1.38,8.68-3.36,12.84Z" style="fill:#c4d1eb; fill-rule:evenodd;"/><path d="M2115.66,196.61c-40.22,22.88-105.38,22.88-145.61,0-40.19-22.74-40.19-59.75,0-82.56,40.22-22.81,105.38-22.81,145.61,0,40.19,22.81,40.19,59.82,0,82.56Z" style="fill:#b0c2e4; fill-rule:evenodd;"/><path d="M2112.15,194.67c-38.26,21.66-100.31,21.66-138.57,0-38.29-21.73-38.29-56.88,0-78.62,38.26-21.74,100.28-21.74,138.57,0,38.25,21.73,38.25,56.88,0,78.62Z" style="fill:#fff; fill-rule:evenodd;"/><path d="M2100.25,187.93c-31.69,17.93-83.08,17.93-114.8,0-31.69-18-31.69-47.13,0-65.13,31.68-18,83.11-18,114.8,0,31.72,18,31.72,47.13,0,65.13Z" style="fill:#c4d1eb; fill-rule:evenodd;"/><path d="M2100.25,127.03c-31.69-18-83.11-18-114.8-.07-14.89,8.46-22.78,19.37-23.66,30.48,.88,11.05,8.76,22.02,23.66,30.49,31.72,17.93,83.11,17.93,114.8,0,14.89-8.46,22.78-19.44,23.69-30.49-.91-11.05-8.79-22.02-23.69-30.41Z" style="fill:#e0e8f5; fill-rule:evenodd;"/><path d="M2022.25,175.52l15.26-8.61c5.44,6.53-5.4,11.98-15.26,8.61h0Zm40.81-34.14l-14.45,8.25c-4.6-5.52,4.16-11.05,14.45-8.25h0Zm19.34-10.83l-3.39,1.94c-29.27-15.13-70.96,4.88-47.71,26.97l-19.75,11.19c-2.7-2.3-4.56-4.81-5.66-7.46-1.31-3.3-6.72-5.59-12.71-5.23-5.76,.36-10.07,1.29-10.4,4.37-.11,.65,0,3.16,.37,3.87,2.15,4.52,6.6,9.4,13.13,13.05l-3.91-.57c-.73,.43-.43,3.37-.43,3.95s.36,1.08,1.09,1.5l4.27,2.44c1.46,.79,3.83,.79,5.3,0l3.36-1.94c16.65,6.53,33.47,6.53,46.43-.86,12.3-6.96,13.29-15.93,2.88-26.97l16.97-9.61c.84,.86,1.53,2.01,2.12,3.3,1.46,3.3,6.97,5.45,12.88,5.09,7.67-.5,12.81-5.31,10.22-9.4-1.93-3.01-5-5.45-8.83-8.11l3.5-2.01c.73-.36,1.06-.86,1.02-1.43-.04-.43,.36-3.44-.25-3.8l-5.66-.29c-1.35-.72-3.51-.72-4.86,0Z" style="fill:#c4d1eb; fill-rule:evenodd;"/><path d="M2022.25,172.44l15.26-8.68c5.44,6.53-5.4,11.98-15.26,8.68h0Zm40.81-34.14l-14.45,8.18c-4.6-5.45,4.16-11.05,14.45-8.18h0Zm19.34-10.9l-3.39,1.94c-29.27-15.06-70.96,4.88-47.71,26.97l-19.75,11.19c-2.7-2.3-4.56-4.73-5.66-7.46-1.31-3.3-6.72-5.59-12.71-5.16-7,.43-11.89,4.3-10.03,8.18,2.15,4.59,6.6,9.4,13.13,13.13l-3.25,1.79c-1.46,.86-1.46,2.22,0,3.01l4.27,2.44c1.46,.86,3.83,.86,5.3,0l3.36-1.94c16.65,6.6,33.47,6.6,46.43-.79,12.3-6.96,13.29-15.99,2.88-27.04l16.97-9.61c.84,.86,1.53,2.01,2.12,3.3,1.46,3.3,6.97,5.45,12.88,5.09,7.67-.5,12.62-4.88,10-8.97-1.93-3.08-4.78-5.88-8.61-8.54l3.5-2.01c1.35-.72,1.35-1.94,0-2.73l-4.89-2.8c-1.35-.72-3.51-.72-4.86,0Z" style="fill:#fff; fill-rule:evenodd;"/><path d="M2032.43,183.7c-40.19,22.81-105.38,22.81-145.57,0-18.91-10.76-28.95-24.6-30.04-38.59-.07-.86-.11-27.69-.11-28.55-.07-14.99,10.01-4.02,30.15-15.42,40.19-22.81,105.38-22.81,145.57,0,19.97,11.33,30.04,.21,30.11,15.06,.04,.79,0,27.62-.04,28.4-.95,14.2-10.98,28.26-30.07,39.09Z" style="fill:#9db2d9; fill-rule:evenodd;"/><path d="M1857.95,110.25c.4,.29,.69,.79,.69,1.29v42.25c-.98-2.87-1.6-5.81-1.82-8.68-.07-.86-.11-27.69-.11-28.55-.04-3.01,.37-5.02,1.24-6.31Z" style="fill:#c4d1eb; fill-rule:evenodd;"/><path d="M1864.34,116.63v47.84c-1.35-1.87-2.48-3.66-3.47-5.6v-42.25c0-.93,.77-1.72,1.72-1.72h.14c.88,.07,1.61,.86,1.61,1.72Z" style="fill:#c4d1eb; fill-rule:evenodd;"/><path d="M1870,121.65v48.78c0,.22-.07,.43-.11,.57-1.24-1.22-2.37-2.44-3.4-3.73v-45.62c0-.93,.77-1.72,1.71-1.72h.14c.91,.07,1.64,.79,1.64,1.72Z" style="fill:#c4d1eb; fill-rule:evenodd;"/><path d="M1875.66,126.68v48.78c0,.21-.07,.43-.15,.64-1.17-1-2.34-1.94-3.43-2.94v-46.48c0-.93,.8-1.72,1.75-1.72h.19c.91,.07,1.64,.79,1.64,1.72Z" style="fill:#c4d1eb; fill-rule:evenodd;"/><path d="M1881.31,131.7v48.63c-1.24-.86-2.45-1.72-3.58-2.51v-46.12c0-.93,.77-1.72,1.75-1.72h.15c.91,.07,1.68,.79,1.68,1.72Z" style="fill:#c4d1eb; fill-rule:evenodd;"/><path d="M1886.97,136.72v47.05l-.11-.07c-1.21-.65-2.38-1.36-3.5-2.08v-44.9c0-.93,.76-1.72,1.75-1.72h.19c.92,.07,1.68,.79,1.68,1.72Z" style="fill:#c4d1eb; fill-rule:evenodd;"/><path d="M1892.63,141.81v44.9c-1.24-.57-2.44-1.22-3.65-1.86v-43.04c0-1,.8-1.79,1.79-1.79h.15c.95,.07,1.71,.86,1.71,1.79Z" style="fill:#c4d1eb; fill-rule:evenodd;"/><path d="M1898.29,146.83v42.46c-1.24-.5-2.48-1.07-3.69-1.65v-40.81c0-1,.8-1.79,1.75-1.79h.18c.99,.07,1.75,.79,1.75,1.79Z" style="fill:#c4d1eb; fill-rule:evenodd;"/><path d="M1900.22,190.08v-38.23c0-1,.8-1.79,1.79-1.79h.18c.99,0,1.79,.79,1.79,1.79v39.67c-1.28-.43-2.52-.93-3.76-1.44Z" style="fill:#c4d1eb; fill-rule:evenodd;"/><path d="M1907.45,192.74v-39.88c0-.93,.8-1.72,1.79-1.72h.19c.98,0,1.79,.79,1.79,1.72v41.1c-1.28-.36-2.52-.79-3.76-1.22Z" style="fill:#c4d1eb; fill-rule:evenodd;"/><path d="M1914.67,194.96v-41.03c0-.93,.81-1.79,1.79-1.79h.22c.98,0,1.79,.86,1.79,1.79v42.03c-1.28-.36-2.55-.65-3.8-1Z" style="fill:#c4d1eb; fill-rule:evenodd;"/><path d="M1921.93,196.75v-41.75c0-1,.77-1.79,1.76-1.79h.22c.99,0,1.79,.79,1.79,1.79v42.54c-1.28-.29-2.52-.5-3.76-.79Z" style="fill:#c4d1eb; fill-rule:evenodd;"/><path d="M1929.13,198.19v-42.18c0-.93,.8-1.72,1.82-1.72h.22c.99,0,1.79,.79,1.79,1.72v42.82c-1.28-.21-2.55-.43-3.83-.65Z" style="fill:#c4d1eb; fill-rule:evenodd;"/><path d="M1936.36,199.27v-42.18c0-.93,.84-1.79,1.83-1.79h.22c.99,0,1.82,.86,1.82,1.79v42.68c-1.28-.14-2.59-.29-3.87-.5Z" style="fill:#c4d1eb; fill-rule:evenodd;"/><path d="M1943.58,200.05v-41.89c0-1,.8-1.79,1.83-1.79h.25c.99,0,1.83,.79,1.83,1.79v42.25c-1.31-.07-2.59-.22-3.91-.36Z" style="fill:#c4d1eb; fill-rule:evenodd;"/><path d="M1950.82,200.56v-41.39c0-.93,.84-1.79,1.82-1.79h.26c1.02,0,1.83,.86,1.83,1.79v41.53c-1.28,0-2.59-.07-3.91-.14Z" style="fill:#c4d1eb; fill-rule:evenodd;"/><path d="M1958.08,200.77v-40.53c0-1,.81-1.79,1.83-1.79h.25c.98,0,1.83,.79,1.83,1.79v40.53c-1.32,.07-2.63,.07-3.91,0Z" style="fill:#c4d1eb; fill-rule:evenodd;"/><path d="M1965.41,200.7v-41.53c0-1,.81-1.79,1.83-1.79h.25c.99,0,1.82,.79,1.82,1.79v41.39c-1.27,.07-2.59,.07-3.9,.14Z" style="fill:#c4d1eb; fill-rule:evenodd;"/><path d="M1972.79,200.34v-42.25c0-1,.8-1.79,1.79-1.79h.25c.98,0,1.83,.79,1.83,1.79v41.89c-1.27,.14-2.59,.21-3.87,.36Z" style="fill:#c4d1eb; fill-rule:evenodd;"/><path d="M1980.12,199.62v-42.61c0-1.01,.84-1.79,1.82-1.79h.22c.99,0,1.83,.79,1.83,1.79v42.1c-1.28,.21-2.55,.36-3.87,.5Z" style="fill:#c4d1eb; fill-rule:evenodd;"/><path d="M1987.49,198.62v-42.75c0-.93,.8-1.72,1.83-1.72h.19c.98,0,1.82,.79,1.82,1.72v42.1c-1.28,.21-2.56,.43-3.84,.65Z" style="fill:#c4d1eb; fill-rule:evenodd;"/><path d="M1994.87,197.26v-42.46c0-.93,.8-1.72,1.75-1.72h.22c.99,0,1.82,.79,1.82,1.72v41.67c-1.28,.29-2.52,.57-3.8,.79Z" style="fill:#c4d1eb; fill-rule:evenodd;"/><path d="M2002.21,195.61v-41.89c0-.93,.8-1.72,1.79-1.72h.22c.95,0,1.79,.79,1.79,1.72v40.81c-1.24,.36-2.52,.72-3.8,1.08Z" style="fill:#c4d1eb; fill-rule:evenodd;"/><path d="M2009.58,193.45v-40.81c0-1,.76-1.79,1.78-1.79h.19c.98,0,1.78,.79,1.78,1.79v39.59c-1.24,.43-2.52,.86-3.75,1.22Z" style="fill:#c4d1eb; fill-rule:evenodd;"/><path d="M2016.92,190.94v-39.38c0-1,.8-1.79,1.79-1.79h.18c.99,0,1.79,.79,1.79,1.79v37.87c-1.24,.5-2.48,1-3.76,1.51Z" style="fill:#c4d1eb; fill-rule:evenodd;"/><path d="M2025.89,146.9v40.17c-1.24,.57-2.44,1.15-3.72,1.72v-41.89c0-.93,.84-1.72,1.79-1.72h.19c.98,0,1.75,.79,1.75,1.72Z" style="fill:#c4d1eb; fill-rule:evenodd;"/><path d="M2031.12,142.24v42.18c-1.2,.65-2.41,1.29-3.65,1.87v-44.04c0-.93,.8-1.72,1.8-1.72h.14c.95,.07,1.72,.79,1.72,1.72Z" style="fill:#c4d1eb; fill-rule:evenodd;"/><path d="M2036.38,137.58v43.75c-1.21,.72-2.38,1.43-3.62,2.15v-45.91c0-.93,.77-1.65,1.75-1.65h.15c.95,0,1.72,.72,1.72,1.65Z" style="fill:#c4d1eb; fill-rule:evenodd;"/><path d="M2041.59,132.99v44.76c-1.13,.86-2.34,1.65-3.58,2.51v-47.27c0-1.01,.81-1.72,1.75-1.72h.14c.95,.07,1.68,.79,1.68,1.72Z" style="fill:#c4d1eb; fill-rule:evenodd;"/><path d="M2046.85,128.32v45.12c-1.13,1-2.34,2.01-3.55,3.01v-48.13c0-.93,.77-1.72,1.72-1.72h.15c.92,.07,1.68,.79,1.68,1.72Z" style="fill:#c4d1eb; fill-rule:evenodd;"/><path d="M2052.03,123.66v44.47c-1.06,1.22-2.19,2.51-3.46,3.66v-48.13c0-.93,.77-1.65,1.72-1.65h.18c.87,0,1.57,.79,1.57,1.65Z" style="fill:#c4d1eb; fill-rule:evenodd;"/><path d="M2057.29,119v41.89c-.98,1.72-2.15,3.44-3.43,5.09v-46.98c0-.93,.77-1.65,1.72-1.65h.14c.88,.07,1.57,.79,1.57,1.65Z" style="fill:#c4d1eb; fill-rule:evenodd;"/><path d="M2059.11,157.45v-43.11c0-.86,.77-1.65,1.71-1.65,.76,0,1.39,.5,1.64,1.15,0,.36,.03,.65,.03,1v29.77c-.29,4.3-1.42,8.68-3.39,12.84Z" style="fill:#c4d1eb; fill-rule:evenodd;"/><path d="M2032.43,157.73c-40.19,22.81-105.38,22.81-145.57,0-40.23-22.81-40.23-59.75,0-82.56,40.19-22.81,105.38-22.81,145.57,0,40.19,22.81,40.19,59.75,0,82.56Z" style="fill:#b0c2e4; fill-rule:evenodd;"/><path d="M2028.93,155.8c-38.25,21.66-100.3,21.66-138.6,0-38.25-21.73-38.25-56.95,0-78.62,38.3-21.73,100.35-21.73,138.6,0,38.25,21.66,38.25,56.88,0,78.62Z" style="fill:#e0e8f5; fill-rule:evenodd;"/><path d="M2017.03,149.05c-31.68,17.93-83.08,17.93-114.76,0-31.73-18.01-31.73-47.13,0-65.13,31.68-18.01,83.04-18.01,114.76,0,31.68,18,31.68,47.12,0,65.13Z" style="fill:#e68724; fill-rule:evenodd;"/><path d="M2017.03,88.08c-31.72-18-83.08-18-114.76,0-14.93,8.46-22.81,19.37-23.69,30.49,.88,11.05,8.76,21.95,23.69,30.48,31.68,17.93,83.08,17.93,114.76,0,14.93-8.54,22.81-19.44,23.69-30.48-.88-11.12-8.76-22.02-23.69-30.49Z" style="fill:#f89a1c; fill-rule:evenodd;"/><path d="M1939.02,136.64l15.25-8.68c5.48,6.6-5.4,12.05-15.25,8.68h0Zm40.77-34.14l-14.41,8.18c-4.6-5.45,4.17-11.05,14.41-8.18h0Zm19.42-10.83l-3.43,1.94c-29.27-15.13-70.96,4.88-47.74,26.97l-19.71,11.12c-2.66-2.22-4.6-4.73-5.65-7.39-1.31-3.3-6.72-5.6-12.7-5.24-5.77,.36-10.08,1.22-10.44,4.3-.07,.72,.07,3.16,.36,3.87,2.19,4.59,6.68,9.4,13.18,13.13l-3.91-.57c-.73,.43-.44,3.37-.44,3.94,0,.5,.37,1.08,1.1,1.51l4.27,2.37c1.46,.86,3.83,.86,5.29,0l3.36-1.87c16.65,6.53,33.44,6.53,46.46-.86,12.27-6.96,13.21-15.92,2.89-26.97l16.93-9.61c.84,.86,1.54,1.94,2.12,3.3,1.46,3.3,6.97,5.45,12.89,5.09,7.66-.5,12.81-5.31,10.22-9.4-1.9-3.01-5-5.52-8.83-8.11l3.54-2.01c.66-.43,1.02-.93,.98-1.43-.03-.5,.37-3.51-.29-3.87l-5.62-.21c-1.35-.79-3.5-.79-4.82,0Z" style="fill:#e68724; fill-rule:evenodd;"/><path d="M1939.02,133.49l15.25-8.61c5.48,6.53-5.4,11.98-15.25,8.61h0Zm40.77-34.07l-14.41,8.18c-4.6-5.52,4.17-11.05,14.41-8.18h0Zm19.42-10.9l-3.43,1.94c-29.27-15.06-70.96,4.88-47.74,26.97l-19.71,11.19c-2.66-2.3-4.6-4.81-5.65-7.46-1.31-3.3-6.72-5.6-12.7-5.24-7.05,.43-11.91,4.38-10.08,8.18,2.19,4.59,6.68,9.47,13.18,13.13l-3.25,1.86c-1.46,.86-1.46,2.15,0,3.01l4.27,2.44c1.46,.79,3.83,.79,5.29,0l3.36-1.94c16.65,6.53,33.44,6.53,46.46-.79,12.27-7.03,13.21-16,2.89-27.04l16.93-9.61c.84,.86,1.54,2.01,2.12,3.3,1.46,3.3,6.97,5.45,12.89,5.09,7.66-.5,12.63-4.88,10.04-9.04-1.94-3.01-4.82-5.81-8.65-8.47l3.54-2.01c1.32-.72,1.32-2.01,0-2.72l-4.93-2.8c-1.35-.79-3.5-.79-4.82,0Z" style="fill:#fbb031; fill-rule:evenodd;"/><path d="M2026.7,147.91c-40.19,22.81-105.34,22.81-145.56,0-18.91-10.76-28.91-24.6-30.05-38.59-.04-.86-.11-27.69-.11-28.55-.04-14.92,10-4.02,30.15-15.42,40.19-22.81,105.38-22.81,145.56,0,20,11.33,30.04,.22,30.16,15.06,0,.86,0,27.54-.08,28.4-.94,14.2-10.95,28.26-30.08,39.09Z" style="fill:#9db2d9; fill-rule:evenodd;"/><path d="M1852.22,74.46c.44,.29,.69,.79,.69,1.29v42.18c-.95-2.8-1.57-5.74-1.82-8.61-.04-.86-.11-27.69-.11-28.55,0-3.01,.4-5.02,1.24-6.31Z" style="fill:#c4d1eb; fill-rule:evenodd;"/><path d="M1858.61,80.84v47.85c-1.34-1.87-2.48-3.73-3.46-5.6v-42.25c0-.93,.8-1.72,1.72-1.72h.18c.88,.07,1.57,.86,1.57,1.72Z" style="fill:#c4d1eb; fill-rule:evenodd;"/><path d="M1864.27,85.86v48.78c0,.21-.04,.43-.12,.57-1.2-1.22-2.37-2.44-3.39-3.73v-45.62c0-.93,.8-1.72,1.75-1.72h.15c.87,.07,1.61,.79,1.61,1.72Z" style="fill:#c4d1eb; fill-rule:evenodd;"/><path d="M1869.93,90.88v48.78c0,.22-.03,.43-.11,.65-1.21-1-2.33-1.94-3.43-2.94v-46.48c0-.93,.8-1.72,1.71-1.72h.19c.91,.07,1.64,.79,1.64,1.72Z" style="fill:#c4d1eb; fill-rule:evenodd;"/><path d="M1875.58,95.9v48.63c-1.24-.86-2.41-1.72-3.58-2.51v-46.12c0-.93,.81-1.72,1.75-1.72h.14c.95,.07,1.68,.79,1.68,1.72Z" style="fill:#c4d1eb; fill-rule:evenodd;"/><path d="M1881.24,100.92v47.05l-.11-.07c-1.21-.72-2.38-1.36-3.51-2.08v-44.9c0-.93,.81-1.72,1.75-1.72h.18c.91,.07,1.68,.79,1.68,1.72Z" style="fill:#c4d1eb; fill-rule:evenodd;"/><path d="M1886.93,106.02v44.9c-1.23-.57-2.44-1.22-3.68-1.86v-43.04c0-1,.8-1.79,1.79-1.79h.14c.99,.07,1.75,.79,1.75,1.79Z" style="fill:#c4d1eb; fill-rule:evenodd;"/><path d="M1892.59,111.04v42.46c-1.24-.5-2.52-1.08-3.73-1.65v-40.82c0-1,.81-1.79,1.79-1.79h.19c.95,.07,1.75,.86,1.75,1.79Z" style="fill:#c4d1eb; fill-rule:evenodd;"/><path d="M1894.49,154.29v-38.23c0-.93,.8-1.79,1.83-1.79h.15c.98,0,1.79,.86,1.79,1.79v39.66c-1.24-.43-2.52-.93-3.76-1.43Z" style="fill:#c4d1eb; fill-rule:evenodd;"/><path d="M1901.72,156.94v-39.88c0-.93,.84-1.72,1.83-1.72h.19c.94,0,1.79,.79,1.79,1.72v41.1c-1.28-.36-2.55-.79-3.8-1.22Z" style="fill:#c4d1eb; fill-rule:evenodd;"/><path d="M1908.98,159.17v-41.03c0-1,.8-1.79,1.79-1.79h.18c.99,0,1.83,.79,1.83,1.79v42.03c-1.28-.36-2.56-.65-3.8-1Z" style="fill:#c4d1eb; fill-rule:evenodd;"/><path d="M1916.21,160.96v-41.75c0-1.01,.8-1.79,1.79-1.79h.22c.99,0,1.79,.79,1.79,1.79v42.53c-1.28-.21-2.55-.5-3.79-.79Z" style="fill:#c4d1eb; fill-rule:evenodd;"/><path d="M1923.44,162.4v-42.11c0-1,.8-1.79,1.79-1.79h.21c1.03,0,1.83,.79,1.83,1.79v42.75c-1.28-.21-2.59-.43-3.83-.65Z" style="fill:#c4d1eb; fill-rule:evenodd;"/><path d="M1930.66,163.47v-42.18c0-1,.8-1.79,1.79-1.79h.25c.99,0,1.8,.79,1.8,1.79v42.68c-1.28-.14-2.56-.29-3.84-.5Z" style="fill:#c4d1eb; fill-rule:evenodd;"/><path d="M1937.86,164.33v-41.96c0-1.01,.83-1.79,1.82-1.79h.25c1.02,0,1.83,.79,1.83,1.79v42.25c-1.32-.07-2.59-.22-3.91-.29Z" style="fill:#c4d1eb; fill-rule:evenodd;"/><path d="M1945.12,164.76v-41.32c0-1.01,.84-1.79,1.83-1.79h.26c.98,0,1.82,.79,1.82,1.79v41.53c-1.31-.07-2.63-.14-3.91-.21Z" style="fill:#c4d1eb; fill-rule:evenodd;"/><path d="M1952.35,164.98v-40.53c0-1,.84-1.79,1.82-1.79h.26c1.02,0,1.86,.79,1.86,1.79v40.53c-1.35,.07-2.67,.07-3.95,0Z" style="fill:#c4d1eb; fill-rule:evenodd;"/><path d="M1959.72,164.91v-41.53c0-1,.8-1.79,1.79-1.79h.29c.99,0,1.79,.79,1.79,1.79v41.39c-1.28,.07-2.59,.07-3.87,.14Z" style="fill:#c4d1eb; fill-rule:evenodd;"/><path d="M1967.06,164.55v-42.25c0-1,.84-1.79,1.83-1.79h.22c1.02,0,1.82,.79,1.82,1.79v41.89c-1.27,.14-2.59,.21-3.87,.36Z" style="fill:#c4d1eb; fill-rule:evenodd;"/><path d="M1974.39,163.83v-42.68c0-.93,.84-1.72,1.82-1.72h.26c.99,0,1.79,.79,1.79,1.72v42.25c-1.28,.14-2.55,.29-3.87,.43Z" style="fill:#c4d1eb; fill-rule:evenodd;"/><path d="M1981.76,162.83v-42.75c0-.93,.8-1.72,1.82-1.72h.23c.98,0,1.82,.79,1.82,1.72v42.1c-1.28,.22-2.59,.43-3.87,.65Z" style="fill:#c4d1eb; fill-rule:evenodd;"/><path d="M1989.14,161.46v-42.46c0-.93,.8-1.72,1.79-1.72h.22c.99,0,1.79,.79,1.79,1.72v41.68c-1.28,.29-2.52,.57-3.8,.79Z" style="fill:#c4d1eb; fill-rule:evenodd;"/><path d="M1996.48,159.81v-41.89c0-.93,.8-1.72,1.83-1.72h.18c.99,0,1.79,.79,1.79,1.72v40.81c-1.25,.36-2.53,.72-3.8,1.08Z" style="fill:#c4d1eb; fill-rule:evenodd;"/><path d="M2003.85,157.66v-40.81c0-1.01,.81-1.72,1.79-1.72h.18c.99,0,1.79,.72,1.79,1.72v39.59c-1.2,.43-2.48,.86-3.76,1.22Z" style="fill:#c4d1eb; fill-rule:evenodd;"/><path d="M2011.23,155.15v-39.38c0-1.01,.8-1.79,1.79-1.79h.14c.98,0,1.79,.79,1.79,1.79v37.87c-1.24,.5-2.48,1-3.72,1.5Z" style="fill:#c4d1eb; fill-rule:evenodd;"/><path d="M2020.2,111.11v40.17c-1.24,.57-2.45,1.15-3.73,1.72v-41.89c0-.93,.81-1.72,1.79-1.72h.18c.95,.07,1.75,.79,1.75,1.72Z" style="fill:#c4d1eb; fill-rule:evenodd;"/><path d="M2025.42,106.45v42.18c-1.21,.65-2.41,1.29-3.69,1.94v-44.11c0-.93,.8-1.72,1.79-1.72h.18c.95,.07,1.72,.79,1.72,1.72Z" style="fill:#c4d1eb; fill-rule:evenodd;"/><path d="M2030.64,101.86v43.68c-1.16,.72-2.38,1.43-3.61,2.15v-45.83c0-1,.76-1.79,1.74-1.79h.19c.92,.07,1.68,.79,1.68,1.79Z" style="fill:#c4d1eb; fill-rule:evenodd;"/><path d="M2035.86,97.19v44.76c-1.13,.86-2.3,1.72-3.58,2.51v-47.27c0-.93,.8-1.72,1.75-1.72h.18c.92,.07,1.64,.79,1.64,1.72Z" style="fill:#c4d1eb; fill-rule:evenodd;"/><path d="M2041.12,92.53v45.12c-1.13,1.08-2.3,2.01-3.54,3.01v-48.13c0-.93,.77-1.72,1.75-1.72h.14c.91,.07,1.64,.79,1.64,1.72Z" style="fill:#c4d1eb; fill-rule:evenodd;"/><path d="M2046.34,87.87v44.47c-1.06,1.29-2.23,2.51-3.47,3.73v-48.2c0-.93,.73-1.72,1.71-1.72l.15,.07c.88,.07,1.61,.79,1.61,1.65Z" style="fill:#c4d1eb; fill-rule:evenodd;"/><path d="M2051.59,83.21v41.89c-1.02,1.72-2.15,3.44-3.47,5.09v-46.98c0-.93,.8-1.65,1.72-1.65h.18c.84,.07,1.57,.79,1.57,1.65Z" style="fill:#c4d1eb; fill-rule:evenodd;"/><path d="M2053.42,121.65v-43.04c0-.93,.77-1.72,1.68-1.72,.81,0,1.46,.5,1.65,1.22,.03,.29,.03,.57,.07,.86v27.04c-.04,1.65-.04,2.65-.04,2.8-.29,4.3-1.39,8.68-3.36,12.84Z" style="fill:#c4d1eb; fill-rule:evenodd;"/><path d="M2026.7,121.94c-40.19,22.81-105.34,22.81-145.56,0-40.19-22.81-40.19-59.75,0-82.56,40.19-22.81,105.38-22.81,145.56,0,40.19,22.81,40.19,59.75,0,82.56Z" style="fill:#b0c2e4; fill-rule:evenodd;"/><path d="M2023.2,120c-38.21,21.66-100.31,21.66-138.56,0-38.26-21.73-38.26-56.95,0-78.62,38.25-21.73,100.31-21.73,138.56,0,38.29,21.66,38.29,56.88,0,78.62Z" style="fill:#fff; fill-rule:evenodd;"/><path d="M2011.3,113.26c-31.68,17.93-83.08,17.93-114.76,0-31.72-18-31.72-47.2,0-65.13,31.69-18,83.08-18,114.76,0,31.72,17.93,31.72,47.13,0,65.13Z" style="fill:#c4d1eb; fill-rule:evenodd;"/><path d="M2011.3,52.29c-31.68-17.93-83.08-17.93-114.76,0-14.89,8.46-22.81,19.37-23.69,30.49,.87,11.05,8.8,22.02,23.69,30.48,31.69,17.93,83.08,17.93,114.76,0,14.93-8.46,22.81-19.44,23.73-30.48-.91-11.05-8.8-22.02-23.73-30.49Z" style="fill:#e0e8f5; fill-rule:evenodd;"/><path d="M1933.29,100.85l15.25-8.68c5.48,6.6-5.4,12.05-15.25,8.68h0Zm40.81-34.14l-14.45,8.25c-4.6-5.52,4.19-11.05,14.45-8.25h0Zm19.38-10.83l-3.43,1.94c-29.27-15.14-70.92,4.88-47.71,26.9l-19.71,11.19c-2.7-2.22-4.6-4.73-5.65-7.39-1.36-3.3-6.72-5.6-12.74-5.24-5.74,.36-10.04,1.22-10.41,4.38-.07,.64,.04,3.08,.36,3.8,2.16,4.59,6.65,9.4,13.18,13.13l-3.94-.57c-.73,.43-.4,3.37-.4,3.95,0,.5,.33,1.07,1.1,1.51l4.23,2.37c1.46,.86,3.84,.86,5.33,0l3.36-1.86c16.61,6.53,33.43,6.53,46.43-.86,12.27-6.96,13.25-15.93,2.88-26.97l16.97-9.61c.8,.86,1.54,1.94,2.12,3.3,1.42,3.3,6.93,5.45,12.85,5.09,7.66-.5,12.85-5.31,10.26-9.4-1.93-3.01-5-5.45-8.83-8.11l3.51-2.01c.69-.43,1.02-.93,.99-1.43,0-.5,.4-3.44-.26-3.87l-5.65-.22c-1.32-.72-3.5-.72-4.82,0Z" style="fill:#c4d1eb; fill-rule:evenodd;"/><path d="M1933.29,97.7l15.25-8.61c5.48,6.53-5.4,11.98-15.25,8.61h0Zm40.81-34.07l-14.45,8.18c-4.6-5.52,4.19-11.05,14.45-8.18h0Zm19.38-10.9l-3.43,1.94c-29.27-15.06-70.92,4.88-47.71,26.97l-19.71,11.19c-2.7-2.3-4.6-4.81-5.65-7.46-1.36-3.3-6.72-5.6-12.74-5.24-7.01,.5-11.87,4.3-10.04,8.18,2.16,4.59,6.65,9.47,13.18,13.13l-3.24,1.86c-1.46,.86-1.46,2.15,0,3.01l4.23,2.44c1.46,.79,3.84,.79,5.33,0l3.36-1.94c16.61,6.53,33.43,6.53,46.43-.79,12.27-7.03,13.25-16,2.88-27.04l16.97-9.61c.8,.86,1.54,2.01,2.12,3.3,1.42,3.3,6.93,5.45,12.85,5.09,7.66-.5,12.63-4.88,10.04-9.04-1.94-3.01-4.79-5.81-8.62-8.47l3.51-2.01c1.35-.72,1.35-1.94,0-2.72l-4.93-2.8c-1.32-.79-3.5-.79-4.82,0Z" style="fill:#fff; fill-rule:evenodd;"/><polygon points="1922.27 345.52 1918.37 411.51 2050.28 303.06 2054.15 237.14 1922.27 345.52" style="fill:#9db2d9; fill-rule:evenodd;"/><path d="M1645.51,131.55c-15.55-6.03-36.5-4.02-46.83,4.45-10.3,8.47-6.06,20.23,9.53,26.25,15.59,6.03,36.54,4.02,46.83-4.45,10.33-8.46,6.06-20.23-9.53-26.25Z" style="fill:#9db2d9; fill-rule:evenodd;"/><polygon points="1583.35 54.8 1451.43 163.26 1590.1 216.98 1598.17 210.31 1469.42 160.46 1585.14 65.35 1713.77 115.13 1721.83 108.46 1583.35 54.8" style="fill:#c4d1eb; fill-rule:evenodd;"/><path d="M1585.14,65.35l-115.71,95.11,128.75,49.85,16.79-13.84-23.44-9.11c-1.93-10.26-11.72-20.16-28.29-26.54l-49.97-19.37,56.87-46.7,49.93,19.3c16.17,6.24,35.41,7.89,52.75,5.52l24.17,9.4,16.79-13.84-128.63-49.78Z" style="fill:#9db2d9; fill-rule:evenodd;"/><path d="M1608.21,162.25c15.59,6.03,36.54,4.02,46.83-4.45,10.33-8.46,6.06-20.23-9.53-26.25-15.55-6.03-36.5-4.02-46.83,4.45-10.3,8.47-6.06,20.23,9.53,26.25h0Zm11.94-48.13c16.1,6.17,35.33,7.82,52.67,5.45l24.17,9.4-82.02,67.5-23.44-9.11c-1.93-10.26-11.72-20.16-28.29-26.54l-49.97-19.37,56.87-46.7,50.01,19.37Z" style="fill:#c4d1eb; fill-rule:evenodd;"/><polygon points="1722.46 107.95 1721.83 108.46 1713.77 115.13 1696.98 128.97 1614.96 196.47 1598.17 210.31 1590.1 216.98 1589.08 217.77 1614.12 227.45 1747.46 117.64 1722.46 107.95" style="fill:#859ac6; fill-rule:evenodd;"/><path d="M1900.15,230.18c-15.59-6.02-36.53-4.09-46.83,4.45-10.33,8.39-6.06,20.16,9.53,26.25,15.59,6.02,36.53,4.02,46.83-4.45,10.33-8.46,6.06-20.23-9.53-26.25Z" style="fill:#9db2d9; fill-rule:evenodd;"/><path d="M1862.85,260.88c15.59,6.02,36.53,4.02,46.83-4.45,10.33-8.46,6.06-20.23-9.53-26.25-15.59-6.02-36.53-4.09-46.83,4.45-10.33,8.39-6.06,20.16,9.53,26.25h0Zm-37.24-82.13l80.67,31.2c2.95,9.4,12.41,18.22,27.59,24.1l60.31,23.39-59.31,48.7-60.34-23.31c-15.67-6.1-34.28-7.75-51.21-5.67l-79.79-30.91c25.77-.29,52.53-8.32,69.87-22.59,17.37-14.27,21.06-31.2,12.22-44.9Z" style="fill:#c4d1eb; fill-rule:evenodd;"/><path d="M1821.41,173.44l-88.08,72.52c3.36,.21,6.75,.29,10.19,.29,25.77-.29,52.53-8.32,69.87-22.59,17.37-14.27,21.06-31.2,12.22-44.9-1.17-1.86-2.56-3.59-4.19-5.31Z" style="fill:#9db2d9; fill-rule:evenodd;"/><polygon points="1818.89 145.25 1685.52 255.07 1710.52 264.75 1843.9 154.94 1818.89 145.25" style="fill:#859ac6; fill-rule:evenodd;"/><polygon points="1747.46 117.64 1614.12 227.45 1589.08 217.77 1710.52 264.75 1711.51 263.96 1719.58 257.29 1733.33 245.96 1821.41 173.44 1835.17 162.11 1843.24 155.44 1843.9 154.94 1710.52 264.75 1685.52 255.07 1818.89 145.25 1747.46 117.64" style="fill:#fff; fill-rule:evenodd;"/><path d="M1920.44,335.05l115.71-95.11-200.98-77.83-13.76,11.33c1.64,1.72,3.06,3.44,4.19,5.31l80.67,31.2c2.95,9.4,12.41,18.22,27.59,24.1l60.31,23.39-59.31,48.7-60.3-23.31c-15.7-6.1-34.31-7.75-51.25-5.67l-79.79-30.91c-3.43,0-6.82-.07-10.19-.29l-13.76,11.33,200.87,77.75Z" style="fill:#9db2d9; fill-rule:evenodd;"/><polygon points="1922.27 345.52 2054.15 237.14 1843.24 155.44 1835.17 162.11 2036.15 239.94 1920.44 335.05 1719.58 257.29 1711.51 263.96 1922.27 345.52" style="fill:#c4d1eb; fill-rule:evenodd;"/><polygon points="1451.43 163.26 1447.56 229.18 1586.23 282.9 1590.1 216.98 1451.43 163.26" style="fill:#b0c2e4; fill-rule:evenodd;"/><polygon points="1589.08 217.77 1585.21 283.76 1706.65 330.67 1710.52 264.75 1589.08 217.77" style="fill:#c4d1eb; fill-rule:evenodd;"/><polygon points="1711.51 263.96 1707.6 329.88 1918.37 411.51 1922.27 345.52 1711.51 263.96" style="fill:#b0c2e4; fill-rule:evenodd;"/><polygon points="1710.52 264.75 1685.52 255.07 1683.25 321.85 1706.65 330.67 1710.52 264.75" style="fill:#859ac6; fill-rule:evenodd;"/><polygon points="1614.12 227.45 1589.08 217.77 1585.21 283.76 1608.97 292.94 1614.12 227.45" style="fill:#859ac6; fill-rule:evenodd;"/></svg>