<?xml version="1.0" encoding="UTF-8"?><svg id="a" xmlns="http://www.w3.org/2000/svg" viewBox="0 0 2433.25 1550.51"><path d="M2017.21,1450.9c521.76-257.83,338.24-753.39,147.84-1034.47C1898.47,22.89,1268.51-118.56,1007.94,195.44,654.27,621.63,296.55,520.82,174.54,798.79c-122.02,277.96,101.82,549.69,227.75,652.68,215.63-9.08,504.45-14.62,814.33-14.62s586.63,5.29,800.58,14.04h0ZM749.18,354.19c-136.55,87.41-362.41,155.14-437.42,62.22-56.04-69.43,12.99-199.68,148.17-298.46C595.03,19.27,776.03-40.48,874.67,32.2c117.07,86.23-20.34,254.68-125.49,321.98Z" style="fill:#e9eff8; fill-rule:evenodd;"/><path d="M2257.57,704.14c3.15,8.6-1.27,18.14-9.87,21.29-8.6,3.16-18.14-1.26-21.31-9.86-15.93-43.3-35.11-85.7-56.24-126.24-23.41-44.95-48.96-87.19-74.95-125.57-22.92-33.83-48.93-65.65-77.41-95.28-29.47-30.65-61.58-58.94-95.6-84.65-42.26-31.92-87.94-60.26-135.82-84.32-47.75-24-97.9-43.86-149.22-58.91-8.8-2.59-13.81-11.81-11.25-20.6,2.59-8.77,11.81-13.81,20.6-11.23,53.04,15.56,105.02,36.16,154.69,61.12,49.99,25.11,97.41,54.5,141.01,87.45,35.28,26.67,68.71,56.11,99.5,88.16,29.61,30.8,56.8,64.09,80.92,99.69,27.06,39.94,53.34,83.33,77.03,128.8,21.68,41.6,41.43,85.3,57.94,130.15h0ZM1515.92,81.19c9.07,1.16,15.51,9.44,14.36,18.51-1.16,9.07-9.44,15.5-18.51,14.35-39.07-5.05-79.45-7.15-119.73-5.41-37.04,1.59-74,6.45-109.81,15.25-8.9,2.18-17.89-3.25-20.07-12.15-2.19-8.89,3.25-17.88,12.14-20.06,37.94-9.31,77.08-14.47,116.3-16.15,42.13-1.82,84.39,.37,125.3,5.66h0Zm-909.59,482.82c8.32-3.84,18.18-.21,22.02,8.11,3.83,8.33,.2,18.18-8.12,22.02-32.6,15.01-64.33,28.34-96.05,41.67-29.14,12.25-58.28,24.49-85.93,37.01-18.96,8.58-37.82,17.55-55.61,27.24-17.75,9.67-35.01,20.34-51.17,32.54-7.31,5.52-17.73,4.07-23.25-3.24-5.53-7.32-4.07-17.73,3.24-23.25,17.34-13.08,36.01-24.62,55.34-35.14,19.27-10.49,38.66-19.74,57.81-28.41,29.45-13.33,58.09-25.37,86.72-37.4,32.23-13.55,64.49-27.1,95.01-41.15h0Zm-345.46,190.31c5.77-7.1,16.22-8.18,23.32-2.41,7.1,5.77,8.17,16.22,2.4,23.31-6.91,8.48-13.25,17.53-19.08,27.16-5.86,9.71-11.07,19.79-15.68,30.29-3.65,8.38-13.43,12.23-21.82,8.57-8.39-3.65-12.23-13.42-8.57-21.81,5.32-12.13,11.18-23.5,17.62-34.18,6.48-10.75,13.73-21.03,21.8-30.93h0ZM866.93,104.7c2.04,8.92-3.54,17.82-12.47,19.87-8.93,2.04-17.83-3.54-19.87-12.47-.45-1.97-1.48-3.79-2.84-5.46-1.85-2.28-4.38-4.43-7.11-6.46-11.19-8.22-25.35-12.63-40.34-14.56-20.68-2.65-43.1-.6-62.25,2.78-27.12,4.79-54.59,13.25-81.27,24.04-30.43,12.3-59.91,27.65-86.74,44.03-7.82,4.78-18.02,2.3-22.79-5.52-4.77-7.81-2.3-18.02,5.52-22.8,28.24-17.24,59.38-33.44,91.68-46.5,28.82-11.66,58.53-20.81,87.89-25.99,21.62-3.81,47.35-6.08,72.11-2.91,20.23,2.59,39.69,8.81,55.79,20.66l.07,.07c4.71,3.48,9.27,7.45,13.16,12.22,4.38,5.41,7.78,11.63,9.46,18.98h0Zm-405.27,76.86c7.03-5.84,17.47-4.88,23.32,2.14,5.84,7.03,4.89,17.47-2.14,23.32-18.14,15.05-35.86,31.78-51.68,49.68-13.99,15.82-26.46,32.51-36.36,49.68-4.55,7.92-14.67,10.65-22.6,6.11-7.92-4.56-10.65-14.67-6.1-22.6,11.12-19.28,24.91-37.79,40.25-55.14,16.96-19.19,35.92-37.09,55.31-53.18Z" style="fill:#fff; fill-rule:evenodd;"/><path d="M1216.63,1436.85c671.92,0,1216.62,25.44,1216.62,56.83s-544.7,56.83-1216.62,56.83S0,1525.07,0,1493.68s544.7-56.83,1216.63-56.83Z" style="fill:#d0d9ee; fill-rule:evenodd;"/><path d="M452.71,1449.45c12.25-116.59-28.45-97.61-83.68-176.79-22.79-32.68-21.84-61.92-5.97-96.76,10.42-22.85,20.99-51.31,8.37-75.36-13.7-26.09-40.09-27.29-65.36-32.85-64.92-14.32-85.64-67.09-118.31-117.45-8.44-13.02-20.17-24.89-35.11-28.69-72.01-18.29-97.64,98.99-68.68,145.2,18.09,28.88,46.4,48.1,64.79,77.14,16.41,25.93,16.12,46.44,13.09,75.53-4.82,46.2,18.28,89.53,50.26,120.97,18.16,17.84,38.23,34.5,51.21,56.86,13.62,23.47,35.12,42.91,60.17,57.85,40.08-2.03,83.27-3.92,129.22-5.65Z" style="fill:#d0d9ee; fill-rule:evenodd;"/><path d="M423.06,1450.61c-25.48-25.61-46.6-50.01-64.43-73.41-.8-20.28,1.76-41.92,7.73-64.9-7.54,17.78-14.44,34.37-17.22,52.14-39.43-54.57-61.33-103.77-79.51-150.59,7.5-30.31,21.66-60.86,42.46-91.63-21.17,23.06-37.21,48.68-48.12,76.88-27.46-72.5-49.4-139.93-118.73-213.76,28.95,41.47,49.42,79.39,66.08,115.76-24.85-13.47-51.79-22.23-80.84-26.32,34.28,10.22,63.59,24.28,87.92,42.18,26.57,61.01,44.15,118.33,75.58,181.5-24.93-13.55-51.97-22.38-81.15-26.48,35.28,10.52,65.28,25.09,90.02,43.72,22.11,41.66,50.89,86.15,92.58,136.05,9.08-.39,18.3-.77,27.64-1.15Z" style="fill:#fff; fill-rule:evenodd;"/><path d="M403.77,1451.4c-25.95-74.69-48.87-51.76-109.2-88.1-25.77-15.5-34.03-36.06-33.68-65.13,.23-19.08-1.14-42.08-17.22-54.8-17.46-13.79-36.08-6.37-55.29-2.35-49.32,10.35-79.78-19.71-117.79-44.39-9.83-6.38-21.56-10.94-33.08-8.89-55.45,9.82-37.37,99.03-3.21,121.97,21.34,14.35,46.83,18.83,68.41,33.2,19.3,12.83,25.36,27.11,32.14,48.2,10.77,33.5,40.01,56.3,71.75,68.08,2.16,.8,4.33,1.58,6.51,2.36,54.82-3.73,118.87-7.14,190.67-10.15Z" style="fill:#bcc9e7; fill-rule:evenodd;"/><path d="M348.91,1453.85c-10.52-4.88-20.35-9.85-29.62-14.91-6.75-13.79-11.57-29.58-14.47-47.35,.21,14.66,.49,28.32,4,41.49-43.97-25.48-74.16-52.72-101.04-79.45-4.07-23.33-3.59-48.9,1.42-76.71-7.62,22.58-10.9,45.33-9.84,68.27-41.16-41.63-76.94-81.48-147.5-110.95,32.72,19.67,58.48,39.54,81.11,59.53-21.31-1.56-42.65,.77-64.01,7.01,26.86-3.62,51.44-3.05,73.76,1.75,37.03,33.96,66.71,68.16,107.77,102.09-21.4-1.6-42.84,.75-64.28,7,27.64-3.73,52.86-3,75.68,2.18,17.69,13.85,37.57,27.64,60.91,41.35,8.56-.44,17.28-.87,26.13-1.28Z" style="fill:#fff; fill-rule:evenodd;"/><path d="M2020.52,1449.36c-26.74-112.12,14.08-97.79,57.31-179.51,17.64-33.32,13.38-60.65-5.51-91.47-12.38-20.21-25.58-45.66-16.48-69.71,9.85-26.07,34.46-30.29,57.53-38.48,59.26-21.04,72.62-72.98,97.5-124.04,6.44-13.21,16.06-25.72,29.65-31.03,65.45-25.6,102.95,81.41,81.1,128.15-13.67,29.21-38.03,50.56-51.94,79.96-12.44,26.27-9.81,45.45-3.62,72.38,9.83,42.77-6.87,86.13-33.26,119.38-14.98,18.85-31.9,36.85-41.51,59.35-14.39,33.69-44.78,61.59-79.52,80.87-27.93-1.42-57.37-2.77-88.21-4.05l-3.02-1.79Z" style="fill:#d0d9ee; fill-rule:evenodd;"/><path d="M2040.67,1451.88c24.17-30.33,43.37-58.56,58.91-85.18-1.57-19.13-6.47-39.13-14.7-59.99,9.11,15.8,17.49,30.55,22.13,46.9,30.72-55.82,45.62-104.54,57.32-150.57-10.53-27.56-27.31-54.55-50.36-80.97,22.5,19.14,40.48,41.3,53.95,66.47,17.43-71.23,30.29-137.05,86.85-214.45-22.41,42.3-37.25,80.29-48.71,116.35,21.76-15.53,46.04-26.93,72.81-34.17-30.97,13.62-56.86,30.23-77.63,49.87-17.92,60.36-27.82,116.18-50.07,179.12,21.83-15.64,46.19-27.09,73.08-34.35-31.88,14-58.35,31.18-79.42,51.57-17.18,44.87-41.26,93.74-79.13,150.5-8.24-.37-16.59-.73-25.05-1.1Z" style="fill:#fff; fill-rule:evenodd;"/><path d="M2063.57,1452.56c15.73-85.98,39.62-63.32,94.5-106.4,22.39-17.57,27.79-37.82,24.12-65.05-2.42-17.87-3.77-39.61,9.86-53.43,14.8-14.98,33.12-10.22,51.59-8.68,47.46,3.92,72.58-27.86,105.41-55.45,8.48-7.14,18.97-12.79,30-12.23,53.14,2.7,46.43,88.51,17.01,114.04-18.37,15.97-41.76,23.15-60.37,39.15-16.63,14.31-20.68,28.42-24.62,48.99-6.25,32.69-31.07,57.5-59.5,72.28-16.13,8.38-33.35,15.57-46.86,28.14-2.34,2.15-4.79,4.2-7.35,6.13-40.23-2.55-84.93-4.94-133.56-7.15l-.24-.34Z" style="fill:#bcc9e7; fill-rule:evenodd;"/><path d="M2089.01,1454.07c20.72-11.31,38.69-22.68,54.55-34.07,4.74-13.73,7.47-29.12,8.14-46.13,1.48,13.79,2.78,26.61,1.01,39.39,38.32-29.06,63.52-58.14,85.67-86.38,1.13-22.36-2.25-46.3-10.14-71.79,9.74,20.28,15.42,41.24,17.06,62.88,33.84-43.87,62.83-85.44,125.63-121.38-28.42,22.29-50.3,43.95-69.25,65.35,19.81-3.96,40.09-4.27,60.85-.92-25.61-.26-48.61,3.17-68.99,10.29-30.84,36.2-54.74,71.75-89.37,108.4,19.89-4.01,40.25-4.33,61.09-.96-26.35-.26-49.92,3.38-70.73,10.91-21.27,21.38-46.7,43.16-79.69,65.69-8.45-.44-17.09-.86-25.82-1.28Z" style="fill:#fff; fill-rule:evenodd;"/><path d="M1990.33,1449.82c-3.96-18.09,5.66-32.07,5.34-65.59-.18-21.62-9.74-34.15-27.58-44.36-11.71-6.7-25.23-15.82-27.22-30.41-2.13-15.82,9.08-24.75,18.43-35.28,24.02-27,16.64-56.77,15.25-89.3-.36-8.42,1.08-17.37,6.46-23.8,25.89-31.02,73.76,12.28,75.46,41.8,1.09,18.44-5.34,35.92-4.34,54.54,.91,16.62,7.43,25.52,17.84,37.32,16.55,18.74,19.94,45.13,15.72,69.14-2.38,13.63-6,27.34-4.71,41.31,1.46,15.81-2.59,32.51-9.92,48.06-25.82-1.19-52.73-2.34-80.72-3.41Z" style="fill:#bcc9e7; fill-rule:evenodd;"/><path d="M2031.25,1451.47c.85-8.63,1.39-16.83,1.64-24.67-5.99-9.16-13.87-17.83-23.67-26.03,8.87,5.4,17.08,10.47,23.85,17.39,.26-36.54-5.49-65.12-12.13-91.47-12.76-10.9-28.51-19.79-47.25-26.66,16.48,3.36,31.54,9.49,45.13,18.37-10.6-40.59-22.02-77.18-14.65-131.71,.25,27.43,3.12,50.62,7.15,71.89,6.71-13.84,15.8-26.28,27.26-37.35-11.84,15.44-20.32,30.96-25.41,46.58,7.39,35.26,17.57,66.03,23.5,103.78,6.7-13.91,15.82-26.42,27.33-37.53-12.19,15.88-20.8,31.86-25.84,47.93,2.68,20.54,4.01,43.28,2.98,69.91l-9.9-.44Z" style="fill:#fff; fill-rule:evenodd;"/><path d="M2102.59,865.43c-29.17,0-52.76-23.7-52.76-52.77,.01-29.19,23.59-52.75,52.76-52.75s52.76,23.56,52.76,52.75-23.6,52.77-52.76,52.77h0Zm114.14-52.77c0-18.42,12.28-33.87,29.08-38.67-3.36-12.46-8.33-24.36-14.67-35.3-15.17,8.36-34.75,6.23-47.59-6.52l-.28-.29-.29-.38h-.09c-1.26-1.25-2.58-2.52-3.83-3.73,1.02,.95,2.18,1.99,3.25,3.04-12.11-12.83-14.14-31.91-5.84-46.7-10.95-6.33-22.76-11.33-35.24-14.66-4.88,16.77-20.32,29.05-38.65,29.05s-33.79-12.28-38.67-29.05c-12.45,3.33-24.25,8.33-35.3,14.66,8.36,14.97,6.33,34.16-6.12,47.1l3.23-3.08c-1.23,1.26-2.57,2.51-3.83,3.76l-.64,.69c-13.06,12.35-32.27,14.48-47.24,6.12-6.31,10.94-11.33,22.84-14.66,35.3,16.79,4.8,29.07,20.34,29.07,38.67s-12.28,33.76-29.07,38.56c3.33,12.49,8.35,24.36,14.66,35.32,15.19-8.35,34.55-6.22,47.53,6.41l.26,.4,.29,.18c12.75,12.97,14.97,32.41,6.52,47.57,11.05,6.33,22.85,11.33,35.3,14.66,4.79-16.28,19.47-28.36,37.14-29.05h3.07c17.66,.69,32.34,12.77,37.11,29.05,12.49-3.33,24.28-8.33,35.24-14.66-8.29-15.05-6.16-34.35,6.32-47.29l.09-.09,.87-.86c12.93-12.55,32.21-14.68,47.38-6.33,6.35-10.95,11.23-22.83,14.67-35.32-16.8-4.8-29.08-20.23-29.08-38.56Z" style="fill:#d0d9ee; fill-rule:evenodd;"/><path d="M2102.59,852.84c-22.27,0-40.21-18.02-40.21-40.18s17.94-40.21,40.21-40.21,40.18,17.93,40.18,40.21-17.94,40.18-40.18,40.18h0Zm0-92.93c-29.17,0-52.76,23.56-52.76,52.75,.01,29.07,23.59,52.77,52.76,52.77s52.76-23.7,52.76-52.77-23.6-52.75-52.76-52.75Z" style="fill:#f2f2f3; fill-rule:evenodd;"/><path d="M2021.81,731.88l-.55,.69,.64-.69h-.09Zm.69-.68l3.23-3.08c-1.23,1.26-2.57,2.51-3.83,3.76l.6-.68h0Zm78.57,195.51l1.52,.07,1.54-.07h-3.06Zm81.25-195.91c-1.08-1.04-2.23-2.08-3.25-3.04,1.25,1.21,2.57,2.49,3.83,3.73l-.57-.7Z" style="fill:#bac1c2; fill-rule:evenodd;"/><path d="M2102.59,896.21c-46.2,0-83.6-37.38-83.6-83.55s37.4-83.63,83.6-83.63,83.61,37.45,83.61,83.63-37.45,83.55-83.61,83.55h0Zm80.95-164.05l-.25-.23-.33-.39c-20.65-20.46-49.05-33.04-80.37-33.04s-60.07,12.74-80.73,33.43c-20.64,20.64-33.42,49.18-33.42,80.72s12.6,59.7,33.07,80.36l.36,.29,.24,.25c20.63,20.53,49.06,33.23,80.49,33.23s59.59-12.55,80.23-32.97l.09-.11,.38-.4,.4-.36,.09-.06c20.37-20.62,32.92-49,32.92-80.23s-12.7-59.85-33.16-80.49Z" style="fill:#bcc9e7; fill-rule:evenodd;"/><path d="M2102.59,852.84c-22.27,0-40.21-18.02-40.21-40.18s17.94-40.21,40.21-40.21,40.18,17.93,40.18,40.21-17.94,40.18-40.18,40.18h0Zm0-92.93c-29.17,0-52.76,23.56-52.76,52.75,.01,29.07,23.59,52.77,52.76,52.77s52.76-23.7,52.76-52.77-23.6-52.75-52.76-52.75Z" style="fill:#fff; fill-rule:evenodd;"/><path d="M337.91,1067.69l-118.66-185.74,239.62-153.07-120.96,338.81h0Zm-10.68-88.3l54.66-153.11-108.28,69.18,53.62,83.93Z" style="fill:#d0d9ee; fill-rule:evenodd;"/><path d="M245.66,888.85l-1.07,.69-8.67-13.57,1.07-.69,8.67,13.57h0Zm193.69-123.74l-1.06,.68-8.67-13.57,1.07-.66,8.66,13.56h0Zm-10.68-1.04l-1.06,.68-5.1-7.97,1.07-.68,5.1,7.97h0Zm-5.14,3.29l-5.1-7.97-1.07,.66,5.1,8,1.06-.69h0Zm-4.61,2.96l-1.07,.66-5.1-7.97,1.07-.69,5.1,8h0Zm-4.99,3.18l-5.1-8-1.07,.69,5.1,7.98,1.07-.68h0Zm-5.25,3.34l-1.07,.69-5.1-7.98,1.06-.68,5.1,7.97h0Zm-2.69,9.59l-8.67-13.57-1.06,.69,8.67,13.56,1.06-.68h0Zm-8.71-2.3l-1.07,.68-5.1-7.98,1.07-.68,5.1,7.98h0Zm-5.14,3.29l-5.1-7.98-1.07,.68,5.1,7.98,1.06-.68h0Zm-4.61,2.94l-1.07,.68-5.1-7.98,1.06-.68,5.1,7.98h0Zm-4.99,3.18l-5.1-7.98-1.07,.69,5.1,7.98,1.07-.69h0Zm-5.26,3.36l-1.06,.68-5.1-7.97,1.06-.69,5.1,7.98h0Zm-2.68,9.59l-8.67-13.57-1.06,.68,8.67,13.57,1.07-.68h0Zm-10.11-1.41l-1.06,.68-5.1-7.98,1.07-.68,5.1,7.98h0Zm-5.14,3.28l-5.1-7.97-1.06,.68,5.1,7.97,1.06-.68h0Zm-4.61,2.94l-1.07,.69-5.1-7.98,1.06-.68,5.1,7.97h0Zm-4.99,3.18l-5.1-7.97-1.07,.68,5.1,7.98,1.06-.69h0Zm-5.25,3.37l-1.07,.68-5.1-7.98,1.06-.68,5.1,7.98h0Zm-2.68,9.58l-8.67-13.56-1.06,.68,8.67,13.56,1.07-.68h0Zm-8.72-2.3l-1.07,.69-5.1-7.98,1.06-.69,5.1,7.98h0Zm-5.14,3.29l-5.1-7.98-1.07,.69,5.1,7.98,1.06-.69h0Zm-4.62,2.94l-1.06,.68-5.1-7.97,1.06-.69,5.1,7.98h0Zm-4.98,3.2l-5.1-7.98-1.07,.68,5.1,7.97,1.07-.66h0Zm-5.26,3.34l-1.06,.69-5.1-7.98,1.06-.69,5.1,7.98h0Zm-2.68,9.58l-8.67-13.55-1.06,.68,8.67,13.56,1.07-.69h0Zm-10.68-1.03l-1.07,.68-5.1-7.97,1.07-.69,5.1,7.98h0Zm-5.15,3.29l-5.1-7.98-1.07,.69,5.1,7.97,1.06-.68h0Zm-4.61,2.94l-1.06,.69-5.1-8,1.07-.68,5.1,7.98h0Zm-4.99,3.18l-5.1-7.98-1.07,.68,5.1,8,1.06-.69h0Zm-5.25,3.36l-1.06,.68-5.1-7.97,1.07-.69,5.1,7.98h0Zm-2.69,9.59l-8.67-13.57-1.06,.68,8.66,13.57,1.07-.68h0Zm-8.71-2.31l-1.06,.69-5.1-7.98,1.06-.68,5.1,7.97h0Zm-5.14,3.29l-5.1-7.98-1.06,.69,5.09,7.98,1.07-.69h0Zm-4.61,2.96l-1.07,.68-5.1-7.98,1.07-.68,5.1,7.98h0Zm-4.99,3.18l-5.1-7.98-1.06,.68,5.1,7.98,1.06-.68h0Zm-5.25,3.36l-5.1-7.98-1.07,.69,5.1,7.97,1.06-.68Z" style="fill:#8d9fca; fill-rule:evenodd;"/><path d="M847.14,311.85h707.82c55.26,0,100.47,45.2,100.47,100.46v972.97c0,55.26-45.21,100.47-100.47,100.47H847.14c-55.26,0-100.47-45.21-100.47-100.47V412.31c0-55.26,45.21-100.46,100.47-100.46Z" style="fill:#bcc9e7; fill-rule:evenodd;"/><path d="M847.14,340.25h707.82c39.63,0,72.07,32.43,72.07,72.06v972.97c0,39.63-32.44,72.07-72.07,72.07H847.14c-39.64,0-72.07-32.44-72.07-72.07V412.31c0-39.63,32.43-72.06,72.07-72.06Z" style="fill:#e9eff8; fill-rule:evenodd;"/><rect x="829.88" y="360.77" width="704.39" height="1003.72" transform="translate(-64.04 95.41) rotate(-4.5)" style="fill:#fff;"/><rect x="835" y="425.68" width="631.79" height="81.52" transform="translate(-33.05 91.75) rotate(-4.5)" style="fill:#d0d9ee;"/><path d="M864.09,596.81l80.01-6.3,6.29,80.01-80,6.29-6.3-80h0Zm51.12,649.49l80-6.3,6.3,80.01-80,6.29-6.3-80h0Zm-10.22-129.9l80-6.29,6.3,79.99-80,6.3-6.3-80h0Zm-10.22-129.9l80-6.3,6.29,80-80,6.3-6.29-80h0Zm-10.23-129.9l80-6.3,6.3,80-80,6.3-6.3-80h0Zm-10.22-129.9l80.01-6.3,6.3,80-80.01,6.3-6.29-80Z" style="fill:#d0d9ee; fill-rule:evenodd;"/><path d="M1007.18,588.48l434.28-34.18c7.33-.58,13.8,4.95,14.39,12.28h0c.57,7.33-4.95,13.8-12.29,14.39l-434.28,34.18c-7.33,.57-13.8-4.95-14.38-12.28h0c-.57-7.34,4.95-13.81,12.29-14.39h0Zm51.12,649.49l434.29-34.18c7.33-.58,13.8,4.95,14.39,12.28h0c.57,7.33-4.95,13.8-12.29,14.39l-434.28,34.18c-7.34,.57-13.81-4.95-14.38-12.29h0c-.58-7.33,4.95-13.8,12.28-14.38h0Zm3.75,47.5c-7.34,.57-12.86,7.04-12.29,14.38h0c.58,7.33,7.05,12.86,14.38,12.29l260.84-20.54c7.34-.57,12.86-7.04,12.29-14.38h0c-.58-7.33-7.06-12.86-14.39-12.29l-260.84,20.54h0Zm-13.97-177.4l434.28-34.18c7.33-.58,13.81,4.95,14.39,12.28h0c.57,7.33-4.95,13.8-12.28,14.39l-434.29,34.18c-7.34,.57-13.8-4.95-14.38-12.28h0c-.58-7.34,4.95-13.81,12.28-14.39h0Zm3.74,47.5c-7.33,.57-12.86,7.05-12.28,14.38h0c.57,7.34,7.04,12.86,14.38,12.29l260.83-20.53c7.34-.58,12.86-7.06,12.28-14.39h0c-.57-7.33-7.03-12.86-14.38-12.29l-260.84,20.54h0Zm-13.96-177.4l434.28-34.18c7.33-.58,13.8,4.95,14.39,12.28h0c.57,7.33-4.96,13.8-12.29,14.38l-434.28,34.19c-7.34,.57-13.8-4.95-14.38-12.29h0c-.58-7.33,4.94-13.8,12.29-14.38h0Zm3.73,47.5c-7.33,.57-12.86,7.04-12.29,14.38h0c.58,7.33,7.05,12.86,14.39,12.29l260.84-20.54c7.33-.57,12.86-7.04,12.28-14.38h0c-.57-7.33-7.05-12.86-14.39-12.29l-260.83,20.54h0Zm-13.96-177.4l434.29-34.18c7.33-.58,13.8,4.95,14.38,12.28h0c.58,7.33-4.95,13.8-12.29,14.39l-434.28,34.18c-7.33,.57-13.8-4.95-14.38-12.28h0c-.57-7.34,4.95-13.81,12.29-14.39h0Zm3.73,47.5c-7.33,.57-12.86,7.04-12.28,14.38h0c.57,7.34,7.05,12.86,14.38,12.29l260.85-20.54c7.33-.57,12.85-7.04,12.28-14.38h0c-.57-7.34-7.06-12.86-14.39-12.29l-260.84,20.54h0Zm-13.96-177.4l434.29-34.19c7.33-.57,13.8,4.96,14.38,12.29h0c.58,7.33-4.95,13.8-12.28,14.39l-434.29,34.18c-7.33,.57-13.8-4.95-14.38-12.29h0c-.57-7.33,4.95-13.8,12.29-14.38h0Zm3.74,47.5c-7.34,.58-12.86,7.04-12.29,14.38h0c.58,7.34,7.05,12.88,14.39,12.29l260.84-20.54c7.33-.57,12.86-7.04,12.28-14.38h0c-.58-7.33-7.04-12.86-14.38-12.28l-260.84,20.53h0Zm-10.22-129.9c-7.34,.57-12.86,7.04-12.29,14.38h0c.58,7.34,7.05,12.86,14.38,12.29l260.84-20.54c7.33-.57,12.85-7.04,12.28-14.38h0c-.57-7.34-7.04-12.86-14.38-12.29l-260.84,20.54Z" style="fill:#d0d9ee; fill-rule:evenodd;"/><path d="M1025.23,267.52h124.48v-26.23c0-28.24,23.1-51.34,51.34-51.34h0c28.24,0,51.34,23.1,51.34,51.34v26.23h124.48c17.07,0,31.03,13.96,31.03,31.03v59.1c0,17.07-13.96,31.03-31.03,31.03h-351.64c-17.07,0-31.03-13.96-31.03-31.03v-59.1c0-17.07,13.96-31.03,31.03-31.03h0Zm175.82-46.91c-12.54,0-22.71,10.17-22.71,22.71s10.17,22.72,22.71,22.72,22.72-10.17,22.72-22.72-10.17-22.71-22.72-22.71Z" style="fill:#aab9de; fill-rule:evenodd;"/><path d="M874.64,614.8c-2.47-3.43-1.71-8.19,1.7-10.66,3.42-2.47,8.19-1.72,10.66,1.7l20.24,27.84,37.21-61.05c2.19-3.59,6.89-4.73,10.49-2.53,3.59,2.19,4.73,6.88,2.54,10.48l-42.98,70.52c-.53,.96-1.27,1.83-2.22,2.52-3.42,2.47-8.19,1.71-10.67-1.71l-26.98-37.09h0Zm10.22,129.9c-2.47-3.41-1.71-8.19,1.71-10.66,3.41-2.47,8.19-1.71,10.66,1.7l20.23,27.84,37.21-61.05c2.19-3.59,6.9-4.73,10.49-2.53,3.58,2.19,4.73,6.88,2.53,10.48l-42.98,70.52c-.53,.97-1.27,1.83-2.22,2.52-3.42,2.47-8.2,1.71-10.67-1.71l-26.98-37.09h0Zm40.89,519.6c-2.47-3.42-1.71-8.2,1.71-10.66,3.41-2.49,8.19-1.71,10.66,1.7l20.23,27.82,37.21-61.04c2.19-3.6,6.9-4.73,10.49-2.53,3.59,2.19,4.73,6.88,2.53,10.48l-42.98,70.52c-.53,.96-1.27,1.82-2.22,2.52-3.42,2.46-8.19,1.71-10.67-1.71l-26.98-37.09h0Zm-10.22-129.91c-2.47-3.41-1.71-8.19,1.7-10.66,3.42-2.47,8.2-1.71,10.66,1.71l20.24,27.84,37.21-61.05c2.19-3.6,6.89-4.73,10.49-2.53,3.6,2.19,4.74,6.88,2.54,10.48l-42.98,70.52c-.53,.96-1.27,1.83-2.22,2.51-3.41,2.47-8.19,1.72-10.67-1.7l-26.98-37.1h0Zm-10.22-129.9c-2.47-3.41-1.71-8.19,1.71-10.66,3.41-2.47,8.19-1.71,10.66,1.71l20.25,27.82,37.21-61.04c2.19-3.6,6.89-4.73,10.49-2.53,3.59,2.19,4.73,6.88,2.53,10.48l-42.98,70.5c-.53,.97-1.27,1.83-2.22,2.52-3.41,2.47-8.19,1.72-10.66-1.71l-26.98-37.09h0Zm-10.22-129.9c-2.47-3.41-1.71-8.19,1.7-10.66,3.41-2.47,8.2-1.71,10.67,1.7l20.23,27.83,37.21-61.04c2.19-3.6,6.89-4.73,10.49-2.54,3.59,2.2,4.73,6.9,2.53,10.49l-42.98,70.5c-.52,.97-1.26,1.83-2.21,2.52-3.41,2.47-8.19,1.71-10.67-1.71l-26.98-37.09Z" style="fill:#99a9d4; fill-rule:evenodd;"/><path d="M1933.21,504.16s.01-.02,.01-.03c0,.01,0,.02-.01,.03h0Zm.01-.03c1.19-3.95,16.04-1.51,20.83-3.2-4.79,1.68-19.63-.76-20.83,3.2h0Zm21.36-3.41c4-2.06,24.46-14.24,25.58-14.91-1.12,.68-21.58,12.86-25.58,14.91h0Zm27.85-10.24c-1.72-1.53-2.22-4.67-2.22-4.7,0,.02,.5,3.15,2.24,4.69,.81-.7,1.44-1.26,1.81-1.63-.37,.37-1,.93-1.83,1.64h0Zm22.9-128.01h0Zm0-.03h0Zm0-.05h0Z" style="fill:#faddd6; fill-rule:evenodd;"/><path d="M2268.96,282.88v281.08c0,12.47-10.15,22.62-22.63,22.62h-494.72c-12.45,0-22.6-10.15-22.6-22.62V282.88c0-12.49,10.15-22.61,22.6-22.61h494.72c5.34,0,10.52,1.88,14.58,5.3,5.11,4.31,8.05,10.63,8.05,17.31Z" style="fill:#fff; fill-rule:evenodd;"/><path d="M1956.75,414.9c0,14.1-2.7,27.55-7.59,39.9-2.98,7.47-6.72,14.56-11.21,21.1-19.5,28.63-52.36,47.4-89.59,47.4-32.44,0-61.56-14.28-81.42-36.87-16.78-19.07-26.95-44.1-26.95-71.52,0-59.85,48.52-108.36,108.38-108.36s108.4,48.51,108.4,108.36Z" style="fill:#d0d9ee; fill-rule:evenodd;"/><path d="M1949.15,454.79c-2.98,7.47-6.72,14.56-11.21,21.1-19.5,28.63-52.36,47.4-89.59,47.4-32.44,0-61.56-14.28-81.42-36.87l81.42-71.52h67.55l33.25,39.9Z" style="fill:#aab9de; fill-rule:evenodd;"/><path d="M1956.75,414.9c0,14.1-2.7,27.55-7.59,39.9-2.98,7.47-6.72,14.56-11.21,21.1l-89.59-61v-108.36c59.88,0,108.4,48.51,108.4,108.36Z" style="fill:#bcc9e7; fill-rule:evenodd;"/><rect x="2206.28" y="344.12" width="30.39" height="183.21" style="fill:#bcc9e7;"/><rect x="2161.36" y="370.55" width="30.38" height="156.77" style="fill:#d0d9ee;"/><rect x="2116.41" y="397" width="30.38" height="130.32" style="fill:#bcc9e7;"/><rect x="2071.46" y="417.62" width="30.38" height="109.7" style="fill:#d0d9ee;"/><rect x="2026.51" y="449.87" width="30.4" height="77.46" style="fill:#bcc9e7;"/><rect x="1981.58" y="476.31" width="30.38" height="51.02" style="fill:#d0d9ee;"/><path d="M2014.6,451.21c0,.71-.58,1.32-1.33,1.32h-31.7v-2.65h31.71c.73,0,1.32,.58,1.32,1.33h0Zm182.75-107.08h-215.78v2.65h215.78c.76,0,1.33-.61,1.33-1.32s-.57-1.33-1.33-1.33h0Zm-134.53,74.81c0,.76-.58,1.33-1.33,1.33h-79.92v-2.65h79.92c.74,0,1.33,.58,1.33,1.32h0Zm43.17-20.62c0,.72-.61,1.33-1.33,1.33h-123.09v-2.65h123.09c.72,0,1.32,.58,1.33,1.32h0Zm50.07-26.44c0,.72-.58,1.33-1.33,1.33h-173.16v-2.65h173.16c.75,0,1.33,.58,1.33,1.32Z" style="fill:#d0d9ee; fill-rule:evenodd;"/><path d="M1729,282.88c0-12.49,10.15-22.62,22.6-22.62h494.72c5.34,0,10.52,1.89,14.57,5.32,5.12,4.31,8.05,10.63,8.05,17.31v281.08c0,7.84-4,14.75-10.07,18.81-3.6,2.42-7.9,3.81-12.55,3.81h-494.72c-1.05,0-2.1-.08-3.13-.23-10.97-1.52-19.47-10.99-19.47-22.39V282.88h0Zm543.01-30.49c-5.73-4.82-12.7-7.93-20.06-8.97-1.87-.27-3.73-.41-5.62-.41h-494.72c-21.97,0-39.84,17.89-39.84,39.87v281.08c0,11.55,4.94,21.98,12.81,29.26,4.78,4.42,10.63,7.69,17.12,9.36,3.16,.83,6.48,1.25,9.91,1.25h494.72c.41,0,.84-.01,1.24-.01,1.24-.03,2.44-.14,3.63-.27,2-.25,3.95-.64,5.85-1.17,1.15-.32,2.28-.7,3.37-1.11,1.48-.55,2.89-1.2,4.27-1.91,.74-.39,1.48-.8,2.21-1.23h0c2.15-1.31,4.18-2.82,6.04-4.5,5.21-4.67,9.19-10.71,11.36-17.53,.44-1.33,.79-2.7,1.09-4.09,.23-1.16,.42-2.33,.55-3.52,.16-1.48,.25-3,.25-4.52V282.88c0-11.78-5.16-22.89-14.18-30.49Z" style="fill:#bcc9e7; fill-rule:evenodd;"/><path d="M2277.58,547.72v16.24c0,17.24-14,31.25-31.25,31.25h-494.71c-17.25,0-31.23-14.01-31.23-31.25v-16.24h557.19Z" style="fill:#bcc9e7; fill-rule:evenodd;"/><path d="M2012.12,575.86c0,7.26-5.88,13.14-13.14,13.14s-13.14-5.88-13.14-13.14,5.89-13.14,13.14-13.14,13.14,5.89,13.14,13.14Z" style="fill:#fff; fill-rule:evenodd;"/><rect x="1956.75" y="277.96" width="285.23" height="33.46" style="fill:#d0d9ee;"/><polygon points="2203.39 326.52 2201.68 316.82 2128.71 378.96 2108.92 364.4 2034.76 436.27 1997.96 423.2 1951.64 488.3 1946.27 484.47 1995.47 415.32 2033.11 428.69 2108.33 355.78 2128.41 370.55 2198.26 311.06 2187.79 306.16 2216.16 300.59 2203.39 326.52" style="fill:#aab9de; fill-rule:evenodd;"/><path d="M1828.16,643.78c-5.53,.4-10.86-6.16-12.39-8.12-5.88-7.46-9.63-16.23-11.13-21.15,1.15-3.26,2.34-7.39,3.6-12.37,21.29-14.47,24.2-25.17,8.73-32.11-3.12,1.75-6.99,7.12-11.62,16.16-3.69-.15-6.48-2.04-8.4-5.67,4.4-15.23,7.25-27.59,8.59-37.11-10.49-15.59-35.04-17.81-67.55-13.61-1.5,8.65-2.74,17.81-3.7,27.48-5.75,5.29-5.01,24.93,.29,47.55-2.65,12.85,5.29,19.87,23.83,21.05,.18,3.1-.1,6.68-.16,8.85-.05,1.97-.12,5.82-2.18,6.43l-3.44,.85c.34,45.99,23.88,54.82,75.53,1.76Z" style="fill:#f4ae7c; fill-rule:evenodd;"/><path d="M1737.98,529.8c32.51-4.22,57.06-1.98,67.54,13.61-1.32,9.51-4.18,21.88-8.58,37.11,1.91,3.63,4.71,5.51,8.4,5.66,4.63-9.02,8.5-14.4,11.62-16.15,15.48,6.94,12.57,17.64-8.73,32.11-1.26,4.98-2.45,9.11-3.6,12.37,19.15-4.28,35.19-21.42,37.43-28.84,22.36-44.06-2.57-62.66-15.9-69.44-5.89-43.63-69.49-5.91-86.22-32.54-35.01,19.98-11.79,45.73-1.96,46.12Z" style="fill:#0f3970; fill-rule:evenodd;"/><path d="M1779.75,621.4c-5.19,2.57-12.3,4.06-21.35,4.48,.17,3.06,.05,6.59-.15,8.76,9.08-1.75,16.25-6.16,21.5-13.24Z" style="fill:#ed7d5b; fill-rule:evenodd;"/><path d="M1866.91,1505.03c20.18-7.11,21.81-17.51,32.68-22.59,10.96-5.12,12.22-14.23,1.51-24.12-7.92,6.32-17.73,14.09-22.93,9.98-3.46-2.75-15.23-2.57-17.57,1.43-10.26,23.84-24.51,16.29-27.33,27.12-.33,14.46,24.38,11.44,33.64,8.18Z" style="fill:#142d4d; fill-rule:evenodd;"/><path d="M1692,1481.32c35.54-.57,62.12-1,74.39-4.87,13.24-4.18,10.52-12.27,2.9-25.19-33.51,15.42-24.57-3.16-40.24-.8-11.02,8.85-27.33,14.8-48.92,17.82-9.13,6.74-5.42,12.74,11.88,13.04Z" style="fill:#142d4d; fill-rule:evenodd;"/><path d="M1709.76,648.98c17.73-5.14,33.68-8.27,47.79-9.36,2.55,38.98,22.9,38.71,61.02-.81,36.71,3.08,43.9,3.55,64.27,10.16,44.07,42.1,48.12,90.69,71.16,146.21-25.51,1.15-36.95,4.21-54.3,10.4-3.72-13.31-6.84-24.02-9.35-32.13,.71,73.21,.97,123.38,.8,150.49-84.35,33.43-153.84,21.98-182.22-4.07-.39-65.08-.94-116.6-1.62-154.56-10.09,11.89-19.45,21.11-28.08,27.66-20.68-23.71-34.69-33.27-46.42-47.25,25.96-42.62,63.16-82.29,76.93-96.75Z" style="fill:#6998d0; fill-rule:evenodd;"/><path d="M1539.75,720.29c44.32,18.42,75.34,33.63,93.08,45.65l7.88-11.66c7.33,7.34,15.69,14.54,25.91,24.99-9.44,9.87-19.57,18-31.36,24.86-30.8-3.28-64.83-26.61-102.11-69.94-11.59-2.31-20.14-6.52-25.6-12.61-.29-5.58,2.52-11.19,8.44-16.79-15.46-10.08-21.6-17.29-18.46-21.63,24.23,14.97,38.29,27.35,42.22,37.14Z" style="fill:#f4ae7c; fill-rule:evenodd;"/><path d="M1708.93,919.88c1.67,6.32-5.22,43.51-6.37,62.9-11.21,69.22-1.6,159.34,4.42,275.21,10.81,40.83,26.76,95.25,25.73,171.83,18.81,5.75,25.64,6.35,42.61,2.03,11.89-79.93,3.78-143.94-6.94-173.5,6.86-45.69,17.11-96.84,32.05-170.61,16.84,80.39,39.34,140.05,49.08,178.98,1.92,43.4,10.71,101.97,15.29,175.72,13.97,4.2,22.68,5.42,37.17,3.65,18.82-67.79,15.65-141.55,7.69-221.27-8.48-95.85,5.5-204.09-8.5-241.62-7.16-22.23-8.09-41.97-10.01-59.28-70.38,23.43-131.11,22.07-182.22-4.05Z" style="fill:#406fb5; fill-rule:evenodd;"/><path d="M1878.19,849.56c4.51,.68,8.8,1.27,12.81,1.81,.21,32.29,.26,56.48,.17,72.57-3.99,1.79-9.59,3.84-13.96,4.36,.02-2.07,.68-6.86,.7-8.91,.27-24.7,.38-47.96,.29-69.83h0Zm-206.26-64.7c12.42-10.36,24.25-27.15,35.46-50.4-1.26,8.1-1.76,18.95-1.5,32.51-9.55,11.09-18.43,19.75-26.66,26-2.52-2.91-4.96-5.6-7.31-8.11h0Zm202.74-62.98c5.46,17.61,10.71,34.8,15.68,51.55,.14,14.16,.25,27.45,.37,39.87-3.62-.34-7.86-.57-12.88-.69-.53-34.38-1.58-64.62-3.17-90.73Z" style="fill:#406fb5; fill-rule:evenodd;"/><path d="M1763.32,747.21h-92.85c-4.26,0-7.19,3.48-6.52,7.74l20.84,131.56c.68,4.26,4.71,7.74,8.97,7.74h92.86c4.26,0,7.19-3.48,6.52-7.74l-20.84-131.56c-.69-4.26-4.72-7.74-8.98-7.74Z" style="fill:#0f3d86; fill-rule:evenodd;"/><path d="M1945.44,795.67c4.02,16.29,5.69,31.19,2.41,50.95-10.02,14.55-50.48,6.41-154.62-11-3.73,3.41-11.46,6.8-23.18,5.29-10.89-2.71-11.42-5.57-23.63-17.08-2.96-8.97-2.36-15.82,1.83-20.55,13.75,8.1,20.99,12.41,36.48,12.92-4.12-10.62-4.74-17.47-1.87-20.55,5.29,4.24,8.74,10.61,10.33,19.11,82.11-3.56,103.76-3.09,114.69,2.65-1.19-5.15-2.23-9.68-3.15-13.6,12.77-4.35,23.18-6.88,40.71-8.14Z" style="fill:#f4ae7c; fill-rule:evenodd;"/><path d="M1766.93,1433.73c-.84,6.98-.95,13.23-.37,18.76-28.03,12.18-23.26-1.88-34.47-2.23,2.82-4.95,4.64-11.28,5.48-18.98,12.22,3.49,19.18,4.28,29.36,2.45h0Zm130.63,12.84c-.01,5.07,.48,9.53,1.48,13.39-7.49,5.92-16.11,12.11-20.87,8.34-2.28-1.81-8.14-2.35-12.55-1.38,1.81-6.12,3.25-13.79,4.31-23.01,9.82,2.65,17.37,3.54,27.64,2.66Z" style="fill:#f4ae7c; fill-rule:evenodd;"/><path d="M1702.57,982.78c49.5,46.15,115.69,46.3,198.6,.44,14,37.53,.02,145.76,8.5,241.62,7.96,79.73,11.13,153.48-7.69,221.27-1.54,.18-3.01,.34-4.42,.46-10.27,.88-17.82-.01-27.64-2.66-1.64-.43-3.32-.92-5.11-1.45-4.58-73.75-13.37-132.32-15.29-175.72-9.75-38.94-32.25-98.59-49.08-178.98-14.94,73.77-25.19,124.92-32.05,170.61,10.72,29.55,18.83,93.56,6.94,173.5-3.09,.79-5.84,1.41-8.4,1.87-10.18,1.83-17.14,1.04-29.36-2.45-1.54-.45-3.15-.93-4.86-1.44,1.03-76.59-14.91-131.01-25.73-171.83-6.03-115.88-15.64-205.99-4.42-275.21Z" style="fill:#0f3970; fill-rule:evenodd;"/><path d="M1780.69,1376.94c-18.05,4.9-34.59,6.38-49.6,4.43-.32-3.96-.7-7.86-1.1-11.67,16.46,2.13,33.49,1.03,51.07-3.31-.08,3.46-.21,6.98-.37,10.55h0Zm131.97,13.75c-19.65,2.35-37.03,1.05-52.19-3.91-.38-4.12-.77-8.19-1.16-12.19,17.01,5.55,35.14,7.43,54.45,5.69-.33,3.47-.7,6.94-1.1,10.4h0Zm-49.66,25.95c-.31-4.09-.64-8.12-.96-12.11,15.16,4.15,31.2,5.48,48.13,4-.57,3.52-1.19,7.02-1.87,10.5-16.75,1.88-31.84,1.09-45.3-2.39h0Zm-131.04-22.59c15.3,2.53,31.23,2.26,47.73-.83-.26,3.49-.57,7.03-.92,10.62-16.88,3.57-32.31,4.2-46.29,1.9-.14-3.96-.31-7.86-.53-11.7Z" style="fill:#142d4d; fill-rule:evenodd;"/><path d="M1764.38,596.56c-9.86,.06-15.33-.3-24.93-1.11-3.84-.34,4.05,10.36,25.46,1.67,.52-.19,.22-.57-.54-.56Z" style="fill:#e97850; fill-rule:evenodd;"/><path d="M1770.4,542.92c-4.79,.35-4.52,4.17-.99,5.07,37.75,9.47,12.85-5.97,.99-5.07Z" style="fill:#0f3970; fill-rule:evenodd;"/><path d="M1751.46,540.36c4.48,1.73,3.12,5.3-.55,5.14-38.88-1.9-10.55-9.45,.55-5.14Z" style="fill:#0f3970; fill-rule:evenodd;"/><path d="M1743.71,585.18l-.23-.06c-3.96-1.62-6.06-2.54-6.56-4.24-.48-1.54,.51-3.02,2.3-5.72,1.99-2.96,5.01-7.47,8.27-15.2,.23-.56,.89-.81,1.45-.58,.56,.23,.82,.88,.58,1.45-3.33,7.9-6.43,12.53-8.48,15.59-1.17,1.76-2.19,3.29-2.02,3.81,.23,.76,3.02,1.9,5.28,2.82,.56,.24,.84,.88,.61,1.47-.21,.47-.71,.74-1.21,.65Z" style="fill:#e97850; fill-rule:evenodd;"/><path d="M1741.18,561.07c-2.71-.27-3.76-10.9,2.86-10.18,3.53,.37,1.6,10.66-2.86,10.18Z" style="fill:#0f3970; fill-rule:evenodd;"/><path d="M1767.58,562.93c-2.73-.31-3.76-10.91,2.85-10.19,3.54,.38,1.62,10.66-2.85,10.19Z" style="fill:#0f3970; fill-rule:evenodd;"/><path d="M823,884.26s46.84-19.19,51.17,4.34c5.95,32.29-34.59,28.84-59.24,14.11-24.65-14.75,8.06-18.45,8.06-18.45Z" style="fill:#f4ae7c; fill-rule:evenodd;"/><path d="M831.52,912.22s-75.63,8.75-122.47,4.91c-8.97-.72-16.89-1.91-23.01-3.7-20.81-6.16-43.08-48.05-59.01-84.77-13.23-30.5-22.07-57.46-22.07-57.46l15.22-66.99s.23,.13,.64,.41l.43,.31,.1,.1c9.48,6.58,74.57,55.16,92.16,150.49l121.7,22s2.63,23.52-3.69,34.67Z" style="fill:#0f3d86; fill-rule:evenodd;"/><path d="M621.25,704.95l-.43-.31v-.13s.13,.13,.43,.44Z" style="fill:#002b4d; fill-rule:evenodd;"/><path d="M709.05,917.14c-8.97-.72-16.89-1.91-23.01-3.7-9.26-2.75-18.8-12.55-27.95-25.84-.94-41.97-1.93-86.27-1.93-87.85h0c0-1.58-18.82-39.56-34.28-70.48l-1.07-24.63,.43,.31,.1,.1c6.75,6.96,78.03,83.17,87.7,212.09Z" style="fill:#0f3970; fill-rule:evenodd;"/><path d="M654.07,1450.12s61.64,13.87,60.42,31.02c-1.22,17.14-94.71,8.57-94.71,8.57,0,0-4.5-17.56,2.45-26.93,6.94-9.4,31.84-12.66,31.84-12.66Z" style="fill:#142d4d; fill-rule:evenodd;"/><path d="M401.23,1427.05s46.27,43.02,36.59,57.22c-9.69,14.22-86.15-40.26-86.15-40.26,0,0,4.97-17.42,15.68-22.03,10.72-4.64,33.88,5.07,33.88,5.07Z" style="fill:#142d4d; fill-rule:evenodd;"/><path d="M677.1,1454.93s-18.62,20.43-63.4,9.06l-12.86-133.53-9.15-94.85-.73-7.66-4.78-49.84-7.18-29.99-2.33-9.62-1.33-5.5-39.26-163.51-6.66-27.67,3.36-5.83,40.33-69.31,3.39-5.88,42.29,23.2,23.67,12.97s.64,4.56,1.66,12.51c.47,3.29,.97,7.15,1.57,11.5,1.06,8.08,2.33,17.89,3.72,28.95,.67,5.34,1.4,10.91,2.1,16.72,4.69,36.85,10.21,82.89,14.39,124.32,.1,1.05,.2,2.12,.34,3.18,4.55,45.43,7.48,84.77,5.75,99.52-.1,.73,5.12,261.26,5.12,261.26Z" style="fill:#0f3970; fill-rule:evenodd;"/><path d="M655.62,932.73s-2.39,6.43-6.55,17.32v.06c-5.28,14.06-13.46,35.54-23.04,60.3-16.72,43.26-76.16,182.73-77.6,185.52-1.16,2.28-25.26,49.04-52.09,101.06-34.7,67.46-74,143.79-74,143.79,0,0-37.27,9-60.14-22.04l57.21-136.63,16.12-38.45,1.36-3.29,20.18-48.24,16.03-38.29,.64-2.44,27.49-104.69,32.11-122.31,1.46-5.61,38.93-23.95,40.89-25.17,.46,.72,20.12,30.94,20.41,31.41Z" style="fill:#0f3970; fill-rule:evenodd;"/><path d="M659.78,962.45c-2.66,1.58-5.42,2.98-8.28,4.19-4.52,1.99-9.31,3.63-14.23,4.93-7.61,2.02-15.56,3.31-23.6,4.01-14.99,1.38-30.25,.76-43.88-.7-13.36-1.38-25.2-3.57-33.71-5.38-8.71-1.89-14-3.42-14-3.42l27.23-245.02,2.33-20.94c.37-.08,.7-.1,1.07-.18,22.3-2.92,40.65-1.64,55.08,1.27l.04,.02c.33,.66,.66,1.34,1.03,2.07l.1,.23c2.19,4.32,4.75,9.4,7.54,14.96,16.06,32.04,39.67,79.5,39.67,81.26,0,2.71,3.62,162.7,3.62,162.7Z" style="fill:#fff; fill-rule:evenodd;"/><path d="M608.37,1067c.23-3.93,.53-9.03,.88-15.06,7.01-16.99,13-31.72,16.78-41.54,5.73-14.78,10.95-28.42,15.35-40,3.48-1.09,6.86-2.33,10.11-3.76h0c3.25,25.58,6.91,55.62,10.25,85.45-.07,0-.13,0-.19,.02-1.8,.15-3.29,1.24-4.03,2.74l-49.15,12.14Z" style="fill:#142d4d; fill-rule:evenodd;"/><path d="M609.26,1051.94c1.09-18.59,2.7-46.08,4.42-76.36h0c8.04-.7,15.99-1.99,23.6-4.01,1.39-.37,2.76-.76,4.12-1.17-4.4,11.58-9.63,25.22-15.35,40-3.79,9.82-9.77,24.55-16.78,41.54Z" style="fill:#0f3970; fill-rule:evenodd;"/><path d="M613.67,975.58c1.73-29.81,3.56-62.33,5.12-91.58,2.16-39.15,3.82-72.56,4.19-86.22,1.13-42.73-16.09-92.98-16.09-92.98l1.96-1.5,.1,.23c2.19,4.32,4.75,9.4,7.54,14.96,16.06,32.04,39.67,79.5,39.67,81.26,0,3.02,3.62,162.7,3.62,162.7-2.66,1.58-5.42,2.98-8.28,4.19h0c-3.25,1.43-6.63,2.67-10.11,3.76-1.36,.41-2.73,.8-4.12,1.17-7.61,2.02-15.56,3.31-23.6,4.01Z" style="fill:#fff; fill-rule:evenodd;"/><path d="M419.43,1282.1l16.12-38.45,1.36-3.29,20.18-48.24,16.03-38.29,.64-2.44,23.73-90.37c9.63,5.03,17.33,8.99,26.24,8.99,3.84,0,7.89-.72,12.42-2.44,3.82-1.42,7.82-7.3,11.86-16.41h.01s-4.79,13.16-13.79,34.18l-9.65,2.38c-10.84,2.67-17.49,13.67-14.79,24.49l4.28,17.38c-22.26,46.01-54.65,104.42-94.64,152.51Z" style="fill:#0f3970; fill-rule:evenodd;"/><path d="M569.79,974.88c-10.44,48.57-22.77,88.63-33.64,92.69-27.13,10.18-37.3-14.22-84.07-23.73l.03-.06c1-2.46,25.23-61.24,38.09-119.5,4.62-20.73,7.78-41.4,7.98-59.47,.67-69.81-9.51-121.36,.67-138.99,.56-.99,1.26-1.94,2.06-2.92,7.58-9.32,24.11-16.27,36.27-20.3,4.99-1.06,9.81-1.87,14.46-2.49,.37-.08,.7-.1,1.07-.18,1.66,3.16,5.65,10.74,10.57,20.58,10.3,20.71,24.56,51.27,29.15,70.4,4.46,18.72-6.95,111-22.64,183.97Z" style="fill:#0f3d86; fill-rule:evenodd;"/><path d="M606.96,699.52c.27,.56,.57,1.11,.86,1.71l-.03-.02c-.26-.6-.56-1.17-.83-1.68Z" style="fill:#1c2a7f; fill-rule:evenodd;"/><polygon points="600.84 1330.46 600.84 1330.46 591.7 1235.61 590.96 1227.95 586.45 1180.96 636.99 1168.48 600.84 1330.46" style="fill:#142d4d; fill-rule:evenodd;"/><path d="M686.91,1042.05s-21.71,12.63-52.46,8.1c0,0,1.33-34.49,2.82-78.58,2.39-70.58,5.18-165.8,3.52-183.59-1.56-16.67-14.26-46.88-24.74-69.46-2.59-5.59-5.01-10.66-7.11-14.99-.4-.8-.77-1.56-1.13-2.3,4.75,.93,9.11,2.07,13,3.31,2.59,4.02,5.45,8.57,8.44,13.49,15.59,25.56,34.87,61.42,39.57,88.97,8.14,47.89,18.08,235.05,18.08,235.05Z" style="fill:#0f3d86; fill-rule:evenodd;"/><path d="M588.74,555.45c45.37,0,54.51,67.47,40.46,117.81l-110.12,6.52s-25.54-124.33,69.66-124.33Z" style="fill:#0f3970; fill-rule:evenodd;"/><path d="M606.88,704.8c-19.51,13.75-49.59-.99-49.59-.99l3.69-53.99,22.87-8.1,12.27-4.35,4.23-1.5,.39,4.17,5.69,59.83,.46,4.93Z" style="fill:#f4ae7c; fill-rule:evenodd;"/><path d="M606.43,699.87c-40.13-8.3-45.66-42.69-45.84-43.86,8.71,11.26,20.25,15.61,31.15,15.61,4.1,0,8.11-.62,11.85-1.71l2.85,29.95Z" style="fill:#ed7d5b; fill-rule:evenodd;"/><path d="M684.54,1156.05l-118.91,29.39-18.52,4.58c-.4,.1-.84,.16-1.23,.25-10.41,1.92-20.68-4.6-23.27-15.06l-15.56-63c-2.7-10.83,3.95-21.82,14.79-24.49l137.43-33.98c6.38-1.55,12.8,.08,17.55,3.91,3.32,2.67,5.85,6.4,6.95,10.88l15.56,63c2.69,10.84-3.95,21.84-14.79,24.51Z" style="fill:#c19274; fill-rule:evenodd;"/><path d="M550.84,1067.18l3.26,13.24,12.92-3.2-3.27-13.23c-.24-.98-.19-2.02,.19-2.97,.56-1.48,1.85-2.62,3.41-2.99l42.95-10.64c2.65-.64,5.34,.96,5.99,3.61l3.28,13.23,12.91-3.18-3.27-13.23c-2.41-9.77-12.31-15.72-22.09-13.31l-42.96,10.61c-5.74,1.43-10.47,5.58-12.62,11.15-1.36,3.49-1.59,7.27-.69,10.92Z" style="fill:#a0785c; fill-rule:evenodd;"/><path d="M614.91,571.11s16.2,61.16,9.16,82.11c-7.03,20.97-60.1,34.8-74.22-20.46-14.12-55.25,23.19-67.76,23.19-67.76l41.86,6.11Z" style="fill:#f4ae7c; fill-rule:evenodd;"/><polygon points="614.91 571.11 578.65 565.83 586.66 560.65 614.91 571.11" style="fill:#0f3970; fill-rule:evenodd;"/><path d="M564.72,589.78s8.59,38.48-4.16,66.21c-12.74,27.73-25.38-30.17-25.38-30.17l3.09-39.59,26.46,3.55Z" style="fill:#0f3970; fill-rule:evenodd;"/><path d="M550.54,625.75c1.12,7.34,8.01,12.43,15.37,11.28,7.36-1.11,12.42-8,11.29-15.35-1.12-7.35-8-12.43-15.37-11.29-7.36,1.12-12.42,8.01-11.29,15.36Z" style="fill:#f4ae7c; fill-rule:evenodd;"/><path d="M614.91,571.11s-14.83,29.44-75.52,24.39l17.9-30.49s19.12-4.35,19.86-4.35,37.76,10.46,37.76,10.46Z" style="fill:#0f3970; fill-rule:evenodd;"/><path d="M452.11,1043.78c1-2.46,25.23-61.24,38.09-119.5l20.95,11.11,43.29,82.11-4.69,20.61s-26.8-15.88-54.39-15.88c-15.78,0-31.83,5.21-43.25,21.55Z" style="fill:#0f3970; fill-rule:evenodd;"/><path d="M581.41,1015.76l-17.05-17.14c.8-3.27,1.59-6.61,2.37-10,4.16,9.2,9.03,18.26,14.68,27.14Z" style="fill:#032541; fill-rule:evenodd;"/><polygon points="469.89 877.19 464.54 869.63 469.89 863.72 469.89 877.19" style="fill:#091936; fill-rule:evenodd;"/><path d="M493.15,910l-23.26-32.81v-13.47l27.91-30.84c.32,10.15,.49,20.81,.38,31.92-.15,13.91-2.06,29.34-5.03,45.19Z" style="fill:#002b4d; fill-rule:evenodd;"/><path d="M564.36,998.63l-29.18-29.34-42.03-59.29c2.97-15.85,4.88-31.28,5.03-45.19,.11-11.11-.06-21.78-.38-31.92l67.98-75.12s-48.09,122.76,.95,230.86c-.78,3.39-1.58,6.74-2.37,10Z" style="fill:#0f3970; fill-rule:evenodd;"/><path d="M572.1,1015.92s42.56,26.59,24.26,43.65c-25.27,23.59-43.5-28.35-43.5-28.35l19.24-15.3Z" style="fill:#f4ae7c; fill-rule:evenodd;"/><path d="M565.78,757.76l-56.15,125.27,71.78,132.73s-9.4,18.41-31.66,22.37c0,0-101.85-123.69-107.73-148.52-7.03-29.61,19.55-125.42,58.38-166.53l65.39,34.69Z" style="fill:#0f3d86; fill-rule:evenodd;"/><path d="M568.36,1185.44c129.45-36.15,111.2-127.79,111.2-127.79,3.32,2.67,5.85,6.4,6.94,10.88l15.56,63c.4,1.6,.59,3.23,.6,4.81,.03,9.12-6.16,17.42-15.39,19.7l-11.32,2.79-9.79,2.41-29.18,7.23-50.54,12.49-9.73,2.41-8.36,2.07Z" style="fill:#a0785c; fill-rule:evenodd;"/><path d="M587.3,617.79c-2.66,.32-5.97-9.94,.5-10.74,3.46-.41,3.86,10.18-.5,10.74Z" style="fill:#0f3970; fill-rule:evenodd;"/><path d="M620.98,614.28c2.66-.33,3.55-11.09-2.94-10.3-3.46,.42-1.45,10.85,2.94,10.3Z" style="fill:#0f3970; fill-rule:evenodd;"/><path d="M588.97,597.45c4.32-.38,4.6,3.2,1.59,4.54-.88,.4-17.93,5.98-17.28,4.81,1.22-2.42,7.51-8.64,15.69-9.35Z" style="fill:#0f3970; fill-rule:evenodd;"/><path d="M612.84,594.11c-4.32,.49-3.95,4.05-.72,4.77,1.52,.33,18.89,2.45,17.67,1.08-2.01-2.22-9.08-6.75-16.95-5.84Z" style="fill:#0f3970; fill-rule:evenodd;"/><path d="M613.13,632.68c-9.63,2.73-8.48-1.7-5.77-1.17,9,1.76,.38-3.44,1.87-19.05,.18-1.63,2.01-1.42,2.05-.06,.02,.94-.29,4.38-.18,5.39,1.17,12.46,5.11,14,2.03,14.88Z" style="fill:#ed7d5b; fill-rule:evenodd;"/><path d="M615.53,639.76c-12.54,24.02-26.05,2.46-22.33,1.83,18.96-3.23,23.88-4.77,22.33-1.83Z" style="fill:#fff; fill-rule:evenodd;"/><path d="M839.3,239.34c-8.28,122.09-37.67,257.39-172.21,292.4l-3.34,.87-3.34-.87c-134.54-35.01-163.92-170.31-172.21-292.4l-.8-11.75,11.59-2.18c56.11-10.52,107.55-31.55,159.23-55.27l5.53-2.54,5.53,2.54c51.68,23.72,103.12,44.75,159.23,55.27l11.59,2.18-.8,11.75Z" style="fill:#e9eff8; fill-rule:evenodd;"/><path d="M826.07,238c-55.44-10.39-104.9-29.89-162.32-56.24-57.42,26.36-106.87,45.85-162.32,56.24,11.32,166.75,60.76,254.03,162.32,280.45,101.55-26.41,151-113.7,162.32-280.45Z" style="fill:#aab9de; fill-rule:evenodd;"/><path d="M800.29,257.29c-47.48-11.12-91.95-28.81-136.53-48.95-44.58,20.14-89.06,37.82-136.53,48.95,6.67,74.16,24.74,165.87,85.68,211.22,15.39,11.47,32.57,19.46,50.85,24.83,18.28-5.37,35.45-13.37,50.85-24.83,60.93-45.35,79.02-137.06,85.68-211.22Z" style="fill:#d0d9ee; fill-rule:evenodd;"/><path d="M800.29,257.29c-47.48-11.12-91.95-28.81-136.53-48.95V493.34c18.28-5.37,35.46-13.37,50.85-24.83,60.93-45.35,79.01-137.06,85.68-211.22Z" style="fill:#bcc9e7; fill-rule:evenodd;"/><path d="M586.17,356.08c-4.74-6.62-3.22-15.83,3.4-20.57,6.61-4.73,15.82-3.21,20.56,3.4l29.46,41.07,77.77-109.05c4.71-6.61,13.89-8.16,20.51-3.45,6.62,4.7,8.17,13.88,3.46,20.5l-89.17,125.03c-1,1.63-2.33,3.08-3.97,4.26-6.62,4.74-15.83,3.22-20.57-3.4l-41.46-57.79Z" style="fill:#fff; fill-rule:evenodd;"/><path d="M1975.35,1036.79c-2.41-33.09-7.3-37.66-38.86-40.22,31.56-2.54,36.45-7.1,38.86-40.21,2.41,33.1,7.29,37.66,38.84,40.21-31.56,2.55-36.44,7.12-38.84,40.22h0Zm128.27-87.3c-1.28-17.66-3.89-20.1-20.74-21.47,16.85-1.36,19.46-3.79,20.74-21.47,1.28,17.67,3.89,20.1,20.73,21.47-16.84,1.36-19.45,3.8-20.73,21.47h0Zm-56.17,136c-1.31-17.9-3.94-20.37-21.01-21.74,17.07-1.39,19.7-3.85,21.01-21.74,1.31,17.89,3.94,20.36,21.01,21.74-17.07,1.38-19.7,3.84-21.01,21.74Z" style="fill:#fff; fill-rule:evenodd;"/><path d="M1515.21,186.34c-2.41,33.1-7.29,37.66-38.84,40.22,31.56,2.54,36.44,7.11,38.84,40.21,2.41-33.09,7.3-37.66,38.85-40.21-31.56-2.55-36.45-7.11-38.85-40.22h0Zm128.27,87.29c-1.28,17.67-3.89,20.11-20.73,21.48,16.84,1.35,19.45,3.79,20.73,21.47,1.28-17.67,3.89-20.11,20.74-21.47-16.85-1.36-19.46-3.8-20.74-21.48h0Zm-56.17-135.99c-1.31,17.89-3.94,20.37-21.01,21.74,17.07,1.39,19.7,3.85,21.01,21.75,1.31-17.9,3.94-20.37,21.01-21.75-17.07-1.37-19.7-3.85-21.01-21.74Z" style="fill:#fff; fill-rule:evenodd;"/></svg>