<?xml version="1.0" encoding="UTF-8"?><svg id="a" xmlns="http://www.w3.org/2000/svg" viewBox="0 0 2088.65 1505.2"><path d="M2019.94,1003.76c54.63,61.96,80.78,148.32,63.35,236.28-25.68,129.58-137.44,219.88-262.94,221.89h-.01s-.27,0-.27,0c-12.6,.19-25.34-.53-38.14-2.16-247.16-18.73-433.06-122.28-907.38,17.29h-.02c-91.5,29.59-192.39,36.94-294.45,16.72-309.22-61.29-512.05-352.33-453.04-650.05,41.91-211.48,204.68-369.4,406.27-421.22v-.05c149.18-40.91,394.79-19.95,626.43-92.86,200.94-63.25,346.8-251.52,558.19-211.61,5.58,.84,11.18,1.81,16.78,2.92,178.09,35.3,295.9,197.92,263.13,363.22-2.09,10.55-4.75,20.85-7.93,30.88h.01c-59.95,188.65-49.94,351.57,30.02,488.74h0Z" style="fill:#ede4f1; fill-rule:evenodd;"/><path d="M775.68,1299.91l68.15-17.59v203.74c-22.27,5.87-45.02,10.43-68.15,13.63v-199.78h0Zm885.45,144.84c-22.63-3.63-45.25-7.54-68.15-11.43V634.84l68.15-17.58v827.49h0Zm-272.43-37.38c-21.9-1.29-44.56-2.04-68.15-2.1V891.51l68.15-17.58v533.44h0Zm-272.44,14.22c-21.94,3.43-44.64,7.49-68.14,12.2v-320.58l68.14-17.58v325.96Z" style="fill:#fff; fill-rule:evenodd;"/><path d="M843.82,1282.33h210.72v150.18c-55.17,10.84-114.84,25.4-179.99,44.57h-.02c-10.13,3.27-20.37,6.27-30.71,8.99v-203.74h0Zm1028.03,173.75c-16.78,3.58-34,5.58-51.5,5.86h-.01s-.27,0-.27,0c-12.6,.19-25.34-.53-38.14-2.16-41.44-3.14-81.16-8.67-120.8-15.04V617.26h210.72v838.81h0Zm-272.44-21.66c-65.71-11.19-133.51-22.5-210.71-27.05V873.93h210.71v560.49h0Zm-272.43-29.1c-62.67-.47-131.85,3.94-210.72,16.27v-325.96h210.72v309.69Z" style="fill:#8071b3; fill-rule:evenodd;"/><path d="M1862.42,244.98c-2.97-2.94-3.01-7.74-.07-10.72,2.94-2.98,7.74-3.01,10.72-.07,60.97,60.32,91.53,129.54,91.69,207.61,0,4.18-3.39,7.56-7.56,7.56-4.17,0-7.56-3.38-7.56-7.56-.15-73.83-29.22-139.44-87.22-196.83h0Zm7.76,52.2c11.69,17.93,21.76,35.5,29.71,53.01,7.88,17.34,13.68,34.62,16.91,52.13,.76,4.11,4.7,6.83,8.81,6.08,4.1-.76,6.82-4.7,6.07-8.81-3.47-18.8-9.64-37.24-18-55.64-8.28-18.24-18.74-36.47-30.84-55.03-2.28-3.49-6.97-4.48-10.46-2.19-3.5,2.28-4.48,6.97-2.2,10.46Z" style="fill:#fff; fill-rule:evenodd;"/><path d="M2020.69,1145.09c-2.21-5.07,.13-10.98,5.21-13.18s10.97,.14,13.18,5.21c11.1,25.6,14.49,52.28,10.15,80.02-4.26,27.26-15.98,55.42-35.18,84.43-3.03,4.62-9.22,5.9-13.84,2.87-4.62-3.03-5.9-9.23-2.87-13.85,17.61-26.62,28.31-52.13,32.12-76.52,3.73-23.91,.81-46.91-8.77-68.99h0Zm-32.67,30.11c4.56,11.92,5.89,23.56,4,34.91-1.93,11.51-7.2,22.95-15.8,34.3-3.34,4.4-2.48,10.68,1.93,14.03,4.4,3.33,10.68,2.47,14.02-1.93,10.59-13.97,17.13-28.33,19.59-43.08,2.5-14.92,.82-30.05-5.04-45.35-1.97-5.16-7.75-7.75-12.91-5.78-5.17,1.97-7.76,7.76-5.78,12.91Z" style="fill:#fff; fill-rule:evenodd;"/><path d="M913.21,573.28c7.31-6.16,17.1,4.44,9.96,11.26-3.8,3.33-7.63,6.58-11.39,9.98-7.62,6.43-17.25-4.29-10.06-11.18,3.79-3.41,7.61-6.75,11.49-10.06h0Zm237.38,337.92c-9.63,1.77-12.98-12.05-3.21-14.7,4.67-.86,9.79-2.23,14.42-3.41,.28-.06,.52-.11,.78-.15,4.7-.72,7.85,2.65,8.43,6.4,.86,3.55-.64,7.44-5.55,8.33-4.93,1.26-9.91,2.44-14.88,3.53h0Zm-141.77,35.19c4.8,.11,9.74-.11,14.52-.44,9.16-.41,10.94,12.43,2.48,14.76-.52,.12-1,.23-1.55,.25-5.22,.36-10.38,.51-15.62,.46-9.65-.4-10-14.58,.17-15.04h0Zm535.4-216.74c7.39-4.81,15.77,4.67,9.58,11.49-.38,.37-.76,.71-1.2,1-4.2,2.82-8.45,5.59-12.7,8.33-7.68,4.99-16.19-5.93-8.79-12.18,4.12-2.96,8.84-5.76,13.11-8.64h0Zm-50.65,31.59c8.47-4.81,16.09,7.46,7.74,12.89-4.37,2.6-8.78,5.15-13.18,7.69-8.29,4.7-16.17-7.4-7.58-13,4.36-2.47,8.7-5.03,13.02-7.58h0Zm-52.15,29.41c7.43-4.22,15.65,6.24,8.17,12.57l-1.04,.68-13.34,7.1c-8.91,4.38-15.69-8.37-7-13.3l13.21-7.04h0Zm-53.22,27.37c8.43-4.14,15.73,8.34,6.68,13.47-4.56,2.2-9.12,4.5-13.71,6.62-7.78,3.82-15.31-7.17-7.43-13.02,4.47-2.54,9.78-4.74,14.46-7.06h0Zm-54.3,25.01c8.39-3.35,14.53,7.69,7.31,13.06-.46,.29-.88,.56-1.37,.76-4.64,2-9.29,3.96-13.95,5.89-6.44,2.58-12.58-3.91-9.61-10.28,.8-1.59,2.17-2.94,3.87-3.61,4.6-1.91,9.18-3.85,13.75-5.82h0Zm-55.46,21.95c5.4-1.79,10.69,2.48,9.94,8.18-.35,2.66-2.34,5.14-4.93,6-4.77,1.69-9.54,3.37-14.35,4.96-9.04,3-14.29-10.47-4.97-14.19,4.77-1.64,9.54-3.26,14.31-4.95h0Zm-56.79,17.53c9.57-2.33,13.34,11.95,3.67,14.58-4.94,1.26-9.91,2.44-14.88,3.53-9.63,1.78-12.98-12.05-3.21-14.69,4.68-.86,9.79-2.23,14.43-3.41h0Zm-114.92,6.25c8.37,2.26,6.65,15.5-2.97,14.69-.43-.05-.8-.13-1.22-.25-5.25-1.49-10.21-3.34-15.18-5.58-8.16-3.77-3.88-16.51,5.31-14.03l1.03,.39c4.26,1.92,8.52,3.5,13.02,4.78h0Zm-43.29-31.13c.52,.81,.81,1.71,1,2.62,1.24,8.24-9.26,12.23-13.81,5.25-2.86-4.5-5.38-9.68-7.35-14.63-3.36-8.42,8.95-14.77,13.7-6.15,2.05,4.57,3.74,8.63,6.46,12.91h0Zm-13.71-53.43c-.4,9.89-14.97,9.66-15.04-.27,.23-5.63,.55-10.47,1.41-16.07,1.69-9.6,16.13-7.66,14.84,2.42-.72,4.63-1.16,9.22-1.22,13.91h0Zm16.17-52.97c-4.59,7.52-17.07,1.89-13.12-7.3,2.58-4.61,6.23-9.5,9.48-13.68,5.09-6.26,15.04-1.55,13.18,6.58-.35,1.06-.65,1.84-1.36,2.71-2.96,3.79-5.63,7.61-8.18,11.69h0Zm39.26-41.01c-8.33,5.42-16.6-6.39-8.59-12.35,4.26-3,8.73-5.9,13.26-8.47,8.28-4.7,15.99,7.52,7.69,12.92-4.28,2.52-8.31,5.04-12.37,7.89h0Zm51.68-23.05c-4.89,.9-9.31-3.06-8.9-8.02,.29-3.35,2.8-6.16,6.1-6.76,5.27-1.03,10.68-1.75,16.05-1.94,9.15-.42,10.94,13.5,1.2,14.98-5.09,.4-9.39,.75-14.45,1.74h0Zm49.57,9.95c-6.6-6.89,3.36-17.34,10.63-10.63,4.27,4.3,7.49,9.29,10.02,14.78,3.81,9.05-9.28,15.21-13.73,6.14-1.78-3.89-3.95-7.21-6.92-10.28h0Zm10.19,50.36c1.7-9.62,16.13-7.65,14.84,2.4-.8,5.17-1.81,10.29-3.08,15.36-2.38,8.84-15.57,6.93-14.74-2.84,.99-5.05,2.18-9.77,2.98-14.92h0Zm-18.14,54.75c3.72-6.99,13.81-4.74,14.27,3.09,.07,1.14-.27,2.62-.78,3.57-2.41,4.59-4.68,9.1-7.22,13.65-.81,1.51-2.27,2.69-3.85,3.32-6.57,2.46-12.62-4.38-9.26-10.71,2.4-4.31,4.56-8.57,6.84-12.93h0Zm-31.23,49.5c6.03-7.39,17.21,.57,12.28,8.66-3.05,4.31-6.82,8.41-10.15,12.52-5.35,6.56-16.5-.15-12.39-8.35,.31-.57,.59-.97,.99-1.46,3.18-3.73,6.25-7.51,9.27-11.37h0Zm-40.25,42.57c-3.81,3.22-7.56,6.3-11.49,9.38-7.49,6.32,1.49,17.61,9.33,11.79,4.08-3.1,8.34-6.55,12.17-9.96,7.12-6.82-2.6-17.49-10.02-11.22h0Zm-48.12,32.72c8.74-4.29,15.62,8.41,6.95,13.34-4.68,2.38-9.4,4.59-14.24,6.64-8.78,3.51-14.85-8.8-6.42-13.58,4.61-2.17,9.15-4.05,13.71-6.4h0Zm-112.31,21.86c9.09,1.17,8.65,14.12-.09,14.96-.53,.03-1.02,.06-1.57-.01-5.21-.54-10.32-1.28-15.47-2.22-9.44-2.05-7.35-16.08,2.75-14.78,4.7,.92,9.6,1.55,14.38,2.05h0Zm-55.34-15.12c7.6,3.51,4.48,15.78-4.89,14.13-.6-.17-1.02-.3-1.57-.55-4.75-2.23-9.32-4.62-13.87-7.23-8.02-4.89-2-17.16,7.05-13.28,4.49,2.4,8.65,4.75,13.3,6.93h0Zm-46.88-32.85c2.41,2.52,2.88,6.22,1.08,9.18-2.52,4.14-8.42,4.89-11.78,1.38-3.67-3.68-7.31-7.6-10.6-11.62-5.71-6.75,3.63-17,11.25-9.96,3.35,3.8,6.47,7.41,10.06,11.02h0Zm-32.75-46.98c.79,1.59,.92,3.7,.34,5.45-2.13,6.47-10.92,7.12-13.99,.86-2.22-4.66-4.24-9.68-5.99-14.54-2.82-8.49,8.54-14.05,13.5-6.44,.27,.48,.5,.89,.68,1.42,1.61,4.44,3.44,8.99,5.47,13.25h0Zm-14.95-55.3c.86,8.97-12.55,11.71-14.86,2.19-.75-5.15-.92-11.24-1.01-16.47-.06-8.81,12.71-10.58,14.86-1.69,.1,.53,.17,.99,.18,1.56,.05,4.79,.37,9.64,.82,14.41h0Zm3.41-57.54c-.31,1.43-1.04,2.76-2.09,3.77-5.38,5.19-14.17,.27-12.6-6.98,1.09-5.08,2.34-10.06,3.75-15.06,2.32-8.59,15.9-6.48,14.66,3.27l-.21,.89c-1.32,4.69-2.49,9.34-3.51,14.11h0Zm19.51-54.72c-1.69,3.19-5.15,4.82-8.72,3.85-4.45-1.2-6.92-6.47-4.7-10.63,2.36-4.61,4.79-9.13,7.37-13.61,4.88-8.01,17.15-2,13.27,7.05-2.4,4.48-4.89,8.8-7.22,13.34h0Zm31.77-49.08c-5.82,7.13-17.25-.46-12.11-8.89,3.07-4.17,6.84-8.42,10.25-12.34,6.68-7.25,17.65,2.15,11.32,9.9-3.24,3.51-6.47,7.58-9.46,11.32Z" style="fill:#071023; fill-rule:evenodd;"/><path d="M469.1,1350.23c117.2,0,224.36,5.65,306.58,14.97v93.22c-82.22,9.33-189.38,14.97-306.58,14.97-259.08,0-469.1-27.57-469.1-61.58s210.02-61.58,469.1-61.58Z" style="fill:#d1c6e2; fill-rule:evenodd;"/><path d="M682.26,1394.83c-46.51-.74-81.27-1.3-97.33-6.38-17.33-5.47-13.75-16.04-3.79-32.94,43.84,20.16,32.15-4.14,52.66-1.06,14.41,11.6,35.74,19.37,64,23.32,11.95,8.81,7.09,16.66-15.53,17.06Z" style="fill:#071023; fill-rule:evenodd;"/><path d="M622.52,686.21H335.16c-5.66,0-11.51,4.63-13,10.29l-51.13,194.69c-1.49,5.66,1.93,10.3,7.59,10.3h287.36c5.66,0,11.51-4.64,13-10.3l51.13-194.69c1.49-5.66-1.93-10.29-7.59-10.29Z" style="fill:#ccced0; fill-rule:evenodd;"/><path d="M316.02,691.82l-34.71,132.17c-41.7-20.34-91.9-52.98-144.57-94.85-1.42-18.84-3.17-33.87-5.26-45.09,4.22-8.38,8.85-17.33,13.89-26.86-48.6-.31-78.24-10.77-88.92-31.36,13-38.04,31.18-76.89,54.52-116.53,16.34-24.16,48.32-38.35,95.94-42.59,5.57,63.88,103.54,60.6,80.5,5.62,35.55,9.54,65.66,27.16,90.34,52.89,21.23,52.31,34.18,88.82,38.84,109.52-23.05,16.15-44.89,26.6-65.52,31.36-.94,4.52-1.68,9.67-2.22,15.44h-19.84c-5.66,0-11.51,4.64-13,10.29Z" style="fill:#ec1c24; fill-rule:evenodd;"/><path d="M281.31,823.99l34.71-132.17c1.49-5.67,7.33-10.29,13-10.29h287.36c5.66,0,15.75,7.31,14.07,12.92,.27-4.69-2.96-8.24-7.92-8.24H335.16c-5.66,0-11.51,4.63-13,10.29l-51.13,194.69c-.89,3.39-.02,6.42,2.04,8.3-4.73-3.06-9.24-8.97-8.18-12.98l16.42-62.52Z" style="fill:#85868b; fill-rule:evenodd;"/><path d="M278.63,901.49h287.36c1.05,0,2.11-.16,3.15-.46-5.72,14.82-21.25,12.63-27.32,12.58H201.12c-18.46-.78-17.99-13.73-18.22-26.21h81.85c-.27,3.96,3.94,9.25,8.33,12.09,1.38,1.25,3.29,1.99,5.55,1.99Z" style="fill:#85868b; fill-rule:evenodd;"/><path d="M318.85,766.27c30.8,15.59,67.24,20.37,104.71,22.29-.42,1.35-.74,2.73-.96,4.13-2.5,15.79,8.63,29.24,24.71,29.24,15.15,0,28.89-11.99,31.25-26.9,.26-1.62,.37-3.21,.35-4.78,38.9,1.04,76.48,3.18,107.56,15.35l-21.37,81.39H287.15l31.7-120.72Z" style="fill:#a9abb1; fill-rule:evenodd;"/><path d="M453.53,775.2c-10.29,0-19.96,8.36-21.6,18.65-1.63,10.3,5.39,18.65,15.7,18.65s19.96-8.35,21.6-18.65c1.63-10.29-5.4-18.65-15.7-18.65Z" style="fill:#8d8f94; fill-rule:evenodd;"/><path d="M122.9,854.06c5.73-17.47,9.86-35.61,12.36-54.39,38.7,14.98,82.95,29.43,138.91,51.54l-7.56,28.78c-84.55,2.76-132.46-5.88-143.71-25.92Z" style="fill:#ec1c24; fill-rule:evenodd;"/><path d="M274.17,851.2c-55.95-22.1-100.21-36.55-138.91-51.54-34.1-13.21-63.89-26.83-93.57-46.46,1.24-37.9,6.88-74.56,22.56-117.06,14.41,13.77,41.44,20.79,81.13,21.04-11.48,21.72-20.84,40.43-28.08,56.16,59.69,49.49,117.22,87.82,164.02,110.65l-7.15,27.21Z" style="fill:#fab688; fill-rule:evenodd;"/><path d="M409.15,639.77c4.31,15.06,8.3,28.98,11.98,41.75h-72.27c.54-5.76,1.28-10.92,2.22-15.45,18.4-4.24,37.76-13.01,58.07-26.31Z" style="fill:#fab688; fill-rule:evenodd;"/><path d="M584.61,1340.2c-42.74-155.01-58.03-263.9-45.87-326.67-24.29,3.46-48.69,4.55-73.18,3.26,3.73-16.77,7.47-33.59,11.28-50.61-.43-23.12-12.25-40.27-54.13-52.57h119.1c4.05,.03,12.31,1.02,19.07-2.73,38.37,10.96,57.1,29.06,63.51,51.17,4.68,60.81-7.96,130.07,2.8,378.62-13.42,1.39-27.62,1.24-42.59-.46Z" style="fill:#071023; fill-rule:evenodd;"/><path d="M539.96,913.61h1.86c4.05,.03,12.31,1.02,19.07-2.73,38.37,10.96,57.1,29.06,63.51,51.16,4.68,60.82-7.96,130.08,2.81,378.62-8.01,.83-16.29,1.11-24.85,.84-22.09-86.4-74.61-298.33-15.44-389.66-13.89-14.73-29.54-27.47-46.96-38.24Z" style="fill:#1b2452; fill-rule:evenodd;"/><path d="M206.99,467.37c7.62-9.69,14.33-18.69,16.29-25.09-1.53-4.38-3.14-9.9-4.82-16.58-28.52-19.37-32.42-33.71-11.69-43,4.17,2.34,9.36,9.56,15.55,21.64,4.94-.19,8.69-2.73,11.24-7.58-5.9-20.4-9.72-36.96-11.5-49.7,14.05-20.88,46.92-23.86,90.44-18.22,2.01,11.58,3.67,23.85,4.96,36.81,7.7,7.09,6.7,33.37-.39,63.66,3.54,17.22-7.09,26.63-31.9,28.19-.36,6.12,2.05,13.91,2.23,14.82h0c.01,.07,.04,.13,.07,.2,22.64,54.59-74.31,57.95-80.5-5.15Z" style="fill:#fab688; fill-rule:evenodd;"/><path d="M312.51,328.84c-43.52-5.65-76.4-2.66-90.45,18.23,1.78,12.73,5.61,29.3,11.5,49.69-2.54,4.85-6.3,7.39-11.24,7.58-6.2-12.09-11.38-19.3-15.55-21.64-20.73,9.3-16.83,23.63,11.7,43,1.67,6.67,3.29,12.2,4.81,16.58-25.66-5.75-47.13-28.7-50.14-38.63-29.94-59,3.45-83.92,21.31-93,7.89-58.42,92.73-6.78,135.23-34.95,16.9,23.34-4,52.61-17.16,53.13Z" style="fill:#071023; fill-rule:evenodd;"/><path d="M252.95,456.75c12,.97,22.75,1.22,32.24,.75-.25,4.21,.81,9.21,1.55,12.22-15.37-.4-26.65-4.72-33.8-12.97Z" style="fill:#ed7d57; fill-rule:evenodd;"/><path d="M384.41,1005.8H125.15c-9.27,0-16.85,7.58-16.85,16.85h0c0,9.27,7.58,16.85,16.85,16.85H384.41c9.27,0,16.85-7.58,16.85-16.85h0c0-9.26-7.58-16.85-16.85-16.85Z" style="fill:#af9030; fill-rule:evenodd;"/><path d="M140.61,1324.89c12.39-12.39,29.51-20.09,48.34-20.09h131.65c18.83,0,35.95,7.7,48.35,20.09,12.39,12.4,20.09,29.51,20.09,48.35v13.8h5.27v17.08h-38.84v-17.08h5.27v-13.8c0-11.03-4.52-21.06-11.8-28.34-7.29-7.28-17.31-11.8-28.34-11.8H188.96c-11.02,0-21.05,4.52-28.33,11.8-7.28,7.28-11.8,17.31-11.8,28.34v13.8h5.27v17.08h-38.85v-17.08h5.27v-13.8c0-18.84,7.69-35.95,20.09-48.35Z" style="fill:#d6b429; fill-rule:evenodd;"/><rect x="240.63" y="1039.5" width="28.31" height="265.3" style="fill:#d6b429;"/><path d="M164.1,1004.74c-50.14-18-56.96-67.94-34.9-143.4,18.12,14.83,63.92,21.04,137.41,18.64l-1.71,6.54c-.08,.29-.13,.58-.15,.89h-81.85c.24,12.48-.24,25.43,18.22,26.21h221.59c41.89,12.31,53.7,29.46,54.13,52.57-26.53,118.5-50.12,227.15-82.25,377.29-10.83,6.08-25.66,5.61-44.47-1.39-15.08-145.61-10.94-251.5,12.4-317.67-62,.24-128.15-8.21-198.43-19.68Z" style="fill:#1b2452; fill-rule:evenodd;"/><path d="M164.1,1004.74c-50.14-18-56.96-67.94-34.9-143.4,3.85,3.15,8.96,5.92,15.32,8.29-18.27,77.54,1.59,120.02,60.52,124.1,68.74,10.2,125.74,15.1,170.96,14.71-19.94,129.27-23.36,241.98-10.25,338.14-4.85-.93-10.06-2.42-15.61-4.49-15.08-145.61-10.94-251.5,12.4-317.67-62,.24-128.15-8.2-198.43-19.68Z" style="fill:#071023; fill-rule:evenodd;"/><path d="M622.72,1341.07c1.24,4.67,3.27,9.07,6.08,13.18-13.42,1.26-8.24,18.54-44.48,2.68,1.55-4.57,2.42-10.07,2.6-16.48,12.48,1.29,24.41,1.5,35.8,.62Z" style="fill:#fab688; fill-rule:evenodd;"/><path d="M394.48,1422.04c-24.69-10.19-28.39-26.77-41.97-33.11-13.67-6.39-15.24-17.76-1.87-30.11,9.88,7.89,22.12,17.59,28.61,12.45,4.34-3.43,19.03-3.2,21.94,1.8,12.8,29.75,30.6,20.32,34.11,33.86,.41,18.03-25.28,21.53-40.83,15.12Z" style="fill:#071023; fill-rule:evenodd;"/><path d="M390.27,1345.49c-.21,7.9,.87,15.85,3.25,23.81-5.29-.83-11.66-.09-14.27,1.97-6.01,4.76-16.97-3.21-26.41-10.69,1.53-4.27,2.57-9.78,3.1-16.5,13.79,4.32,25.23,4.79,34.32,1.41Z" style="fill:#fab688; fill-rule:evenodd;"/><path d="M145.38,657.19c6.38-11.55,13.13-27.08,20.26-46.6-3.83,22.73-3.63,39.1-9.81,57.78,4.99,26.43,7.06,53.38,6.54,80.57-8.45-6.34-17.01-12.94-25.62-19.8-1.42-18.84-3.17-33.87-5.26-45.09,4.22-8.38,8.85-17.33,13.89-26.86h0Zm220.56,4.56c-5.02,1.77-9.98,3.21-14.86,4.34,1.86-28.92,3.07-52.83,3.65-71.71,5.57,27.89,9.3,50.35,11.22,67.37h0Zm-243.04,192.32c5.73-17.47,9.85-35.61,12.36-54.39,7.17,2.78,14.53,5.53,22.11,8.32-3.04,20.57-7.39,41.14-12.91,61.63-10.83-4.06-18.01-9.24-21.56-15.55Z" style="fill:#c8252c; fill-rule:evenodd;"/><path d="M569.53,31.36l-28.5,16.57c-9.61,5.59-12.9,18.01-7.31,27.62l6.29,10.81c7.41,12.76,4.18,18.53,1.88,20.59-6.34,5.68-12.22,11.84-18.12,17.97-1.73,1.81-7.23,7.97-21.72-.46l-9.94-5.76c-9.61-5.59-22.04-2.3-27.62,7.31l-16.57,28.5c-5.59,9.61-2.3,22.03,7.31,27.62l9.84,5.72c13.58,7.9,13.23,11.95,11.51,17.71-2.36,7.9-4.89,15.82-6.63,24-1.53,7.29-.84,12.49-19.32,12.49h-11.32c-11.13,0-20.2,9.07-20.2,20.2v32.97c0,11.13,9.07,20.2,20.2,20.2h11.32c18.48,0,17.79,5.21,19.32,12.5,1.73,8.18,4.27,16.09,6.63,24,1.72,5.76,2.07,9.81-11.51,17.71l-9.84,5.72c-9.61,5.59-12.9,18.02-7.31,27.62l16.57,28.5c5.59,9.61,18.01,12.9,27.62,7.31l9.94-5.76c14.49-8.43,19.99-2.26,21.72-.46,5.9,6.14,11.78,12.3,18.12,17.97,2.3,2.06,5.53,7.84-1.88,20.6l-6.29,10.81c-5.59,9.6-2.3,22.03,7.31,27.62l28.5,16.57c9.6,5.59,22.04,2.3,27.62-7.31l6.28-10.79c7.53-12.95,14.94-12.44,18.07-11.44,9.09,2.9,17.48,4.76,26.86,7.21,3.42,.89,9.29,3.38,9.29,18.81v11.56c0,11.13,9.07,20.21,20.2,20.21h32.97c11.13,0,20.2-9.08,20.2-20.21v-11.56c0-15.43,5.87-17.92,9.28-18.81,9.38-2.44,17.77-4.31,26.86-7.21,3.13-1,10.54-1.51,18.08,11.44l6.27,10.79c5.59,9.61,18.02,12.9,27.62,7.31l28.51-16.57c9.6-5.59,12.89-18.02,7.3-27.62l-6.29-10.81c-7.41-12.76-4.18-18.54-1.88-20.6,6.34-5.67,12.22-11.84,18.12-17.97,1.73-1.81,7.24-7.97,21.72,.46l9.94,5.76c9.61,5.59,22.04,2.3,27.62-7.31l16.58-28.5c5.59-9.6,2.3-22.03-7.31-27.62l-9.84-5.72c-13.58-7.9-13.23-11.94-11.51-17.71,2.36-7.91,4.9-15.82,6.63-24,1.53-7.29,.84-12.5,19.32-12.5h11.32c11.13,0,20.21-9.07,20.21-20.2v-32.97c0-11.13-9.08-20.2-20.21-20.2h-11.32c-18.48,0-17.79-5.21-19.32-12.49-1.73-8.18-4.27-16.1-6.63-24-1.72-5.76-2.07-9.82,11.51-17.71l9.84-5.72c9.61-5.59,12.9-18.01,7.31-27.62l-16.58-28.5c-5.59-9.6-18.01-12.89-27.62-7.31l-9.94,5.76c-14.49,8.43-19.99,2.26-21.72,.46-5.9-6.13-11.78-12.29-18.12-17.97-2.3-2.06-5.53-7.83,1.88-20.59l6.29-10.81c5.59-9.61,2.3-22.04-7.3-27.62l-28.51-16.57c-9.6-5.59-22.03-2.3-27.62,7.3l-6.27,10.79c-7.54,12.95-14.94,12.44-18.08,11.44-9.09-2.89-17.48-4.76-26.86-7.21-3.41-.88-9.28-3.37-9.28-18.81v-11.56c0-11.13-9.07-20.21-20.2-20.21h-32.97c-11.12,0-20.2,9.08-20.2,20.21v11.56c0,15.44-5.87,17.93-9.29,18.81-9.38,2.45-17.77,4.32-26.86,7.21-3.13,1-10.54,1.51-18.07-11.44l-6.28-10.79c-5.59-9.6-18.02-12.89-27.62-7.3h0Zm124.81,118.04c71.44,0,129.35,57.91,129.35,129.34s-57.91,129.35-129.35,129.35-129.34-57.91-129.34-129.35,57.91-129.34,129.34-129.34h0Zm0-32.32c89.29,0,161.67,72.39,161.67,161.67s-72.38,161.67-161.67,161.67-161.67-72.39-161.67-161.67,72.38-161.67,161.67-161.67Z" style="fill:#d1c6e2; fill-rule:evenodd;"/><path d="M694.33,117.08c-89.29,0-161.67,72.39-161.67,161.67s72.38,161.67,161.67,161.67,161.67-72.39,161.67-161.67-72.38-161.67-161.67-161.67h0Zm-129.34,161.67c0-71.44,57.91-129.34,129.34-129.34s129.35,57.91,129.35,129.34-57.91,129.35-129.35,129.35-129.34-57.91-129.34-129.35Z" style="fill:#ede4f1; fill-rule:evenodd;"/><path d="M1295.49,452c201.85-64.36,325.67-144.43,400.39-239.6L1571.31,8.08c-118.83,22.83-246.72,96.23-396.37,246.2l120.55,197.72Z" style="fill:#b6a9d2; fill-rule:evenodd;"/><path d="M1295.49,452c201.85-64.36,325.67-144.43,400.39-239.6l-36.91-60.54c-107.82,89.87-257.96,175.31-414.85,215.89l51.37,84.25Z" style="fill:#8071b3; fill-rule:evenodd;"/><path d="M1695.89,212.41c46.41-59.1,73.88-124.03,89.34-194.63-69.84-18.59-140.13-23.9-213.93-9.72l124.59,204.34Z" style="fill:#ec1c24; fill-rule:evenodd;"/><polygon points="1185.23 271.15 1285.2 435.13 1255.26 443.38 1164.17 293.99 1185.23 271.15" style="fill:#3f4979; fill-rule:evenodd;"/><path d="M1566.6,151.09c23.6,38.71,11.36,89.22-27.35,112.83-38.71,23.6-89.23,11.35-112.83-27.36-23.6-38.71-11.35-89.22,27.36-112.83,38.71-23.6,89.23-11.36,112.83,27.36Z" style="fill:#af9030; fill-rule:evenodd;"/><path d="M1544.13,164.79c16.04,26.3,7.72,60.63-18.58,76.66-26.31,16.05-60.64,7.72-76.67-18.58-16.04-26.31-7.72-60.63,18.58-76.67,26.31-16.04,60.64-7.72,76.67,18.59Z" style="fill:#eacb46; fill-rule:evenodd;"/><path d="M1536.23,16.24l136.34,223.61c8.26-9.01,16.02-18.16,23.32-27.45L1571.31,8.08c-11.6,2.22-23.3,4.94-35.08,8.16Z" style="fill:#eacb46; fill-rule:evenodd;"/><path d="M1695.89,212.41c46.41-59.1,73.88-124.03,89.34-194.63-28.31,42.36-71.91,88.78-126.25,134.08l36.91,60.55Z" style="fill:#c8252c; fill-rule:evenodd;"/><path d="M1695.88,212.4l-36.91-60.54c-8.69,7.25-17.65,14.46-26.87,21.62l40.46,66.36c8.26-9.01,16.03-18.16,23.32-27.45Z" style="fill:#af9030; fill-rule:evenodd;"/><path d="M1285.2,435.13l-29.22-47.92c-10.2,2.55-20.43,4.91-30.68,7.06l29.95,49.11,29.95-8.26Z" style="fill:#1b2452; fill-rule:evenodd;"/><path d="M1091.21,532.73c67.22-18.37,117.99-54.57,152.3-108.6l-33.87-55.55-33.86-55.54c-63.75,5.75-119.18,34.3-166.3,85.65,15.79-.15,29.18,.59,40.19,2.24-41.32,27.32-64.92,63.43-70.8,108.36,42.63,15.35,85.55,10.91,128.75-13.31-3.57,10.54-9.04,22.79-16.4,36.75Z" style="fill:#af9030; fill-rule:evenodd;"/><path d="M1043.1,385.71c2.91,.3,5.8,.66,8.68,1.1l36.84,5.51-31.08,20.54c-32.48,21.47-54.47,49.53-62.48,86.56,36.6,9.85,71.6,3.14,105.57-15.9l32.48-18.21-11.97,35.27c-.93,2.76-1.94,5.49-3.01,8.22,44.12-17.36,89.29-58.62,116.82-98.7l-51.52-84.49c-48.23,6.12-104.7,28.84-140.34,60.11Z" style="fill:#d6b429; fill-rule:evenodd;"/><path d="M1006.86,492.23c31.31,5.9,60.8-1.28,89.06-17.12l54.43-30.52-15.73,46.37c32.01-15.89,74.23-59.16,95.64-88.58l-41.08-67.37c-35.97,5.56-93.89,23.07-122.68,44.25l48.43,7.25-52.06,34.41c-27.02,17.87-46.92,40.79-56.01,71.32Z" style="fill:#eacb46; fill-rule:evenodd;"/><path d="M1514.45,360.55l-14.74,82.26c-1.28,7.14-7.52,15.93-14.29,21.49l-164.24,135.15c-6.77,5.57-13.34,2.36-12.97-4.87l7.44-149.14c77.71-25.86,143.38-54.16,198.81-84.88h0Zm-157.93-259.03l-79.88-24.57c-6.93-2.13-17.6-.6-25.65,2.86l-195.36,84.11c-8.06,3.47-8.21,10.77-1.61,13.77l135.99,61.69c58.57-57.24,113.82-102.66,166.51-137.86Z" style="fill:#ec1c24; fill-rule:evenodd;"/><path d="M1312.87,501.04c58.72-16.91,122.83-46.54,192.34-88.9l9.25-51.58c-55.42,30.72-121.09,59.02-198.81,84.87l-2.78,55.61Z" style="fill:#c8252c; fill-rule:evenodd;"/></svg>