<?xml version="1.0" encoding="UTF-8"?><svg id="a" xmlns="http://www.w3.org/2000/svg" viewBox="0 0 2223.45 1603.94"><g><path d="M1111.73,1464.63c258.59,0,496.57,3.87,685.43,10.35,462.17-264.17,302.14-779.09,136.19-1070.35C1702.39-.73,1156.67-146.42,930.94,176.99,624.56,615.99,328.99,462.8,169.39,796.2c-159.59,333.39,82.78,653.02,256.9,678.77,188.85-6.48,426.83-10.35,685.43-10.35Z" style="fill:#eaeff8; fill-rule:evenodd;"/><path d="M1111.73,1464.63c613.99,0,1111.72,21.8,1111.72,48.69s-497.74,48.68-1111.72,48.68S0,1540.21,0,1513.32s497.73-48.69,1111.73-48.69Z" style="fill:#d2dfee; fill-rule:evenodd;"/><path d="M1470.24,120.6c277.66,61.86,454.35,317.21,471.66,440.48,7.11,50.6-6.06-67.79-147.7-175.59-126.59-96.34-225.14-114.18-375.73-125.82-106.43-8.23-217.87-21.31-209.95-84.78,6.25-50.14,82.47-94.23,261.73-54.29Z" style="fill:#fff; fill-rule:evenodd;"/><path d="M395.59,1352.43c-12.68-15.87-30.52-28.98-35.75-48.61-6.18-23.16,7.42-47.54,4.05-71.28-4.23-29.88-33.01-49.24-48.63-75.06-15.29-25.29-8.13-33.79-9.52-63.31-2.1-44.47-38.58-100.61-87.18-85.56-49.35,15.31-41.29,61.18-32.6,95.69,6.19,24.57,2.15,28.11-3.87,52.73-7.26,29.74-30.68,58.49-20.88,87.49,6.05,17.93,23.64,30.05,30,47.88,7.21,20.2-1.52,42.12-4.88,63.31-7.08,44.61,3.08,81.72,35.49,118.55,3.49,3.32,7.1,6.39,10.86,9.24,45.4-2.57,96.48-4.93,152.48-7.05l.41-.44c29.66-32.38,38.51-87.94,10.02-123.58Z" style="fill:#d2dfee; fill-rule:evenodd;"/><path d="M240.97,1048.79c-.77-2.01-3.02-3.02-5.03-2.25-2.01,.77-3.02,3.02-2.25,5.04,3.85,10.08,7.09,20.64,9.87,31.62-1.11-1.01-2.27-2-3.46-2.95-5.29-4.26-11.3-7.98-18.03-11.16-1.95-.91-4.27-.08-5.18,1.86-.92,1.95-.08,4.27,1.86,5.19,6.17,2.92,11.67,6.31,16.49,10.18,4.55,3.66,8.51,7.75,11.87,12.29,4.98,23.79,8.24,49.39,11.18,76.37-4.51-7.02-9.34-13.32-14.46-18.89-8.91-9.68-18.77-17.21-29.58-22.56-1.92-.95-4.26-.17-5.21,1.76-.96,1.92-.17,4.26,1.75,5.21,9.91,4.91,19.01,11.87,27.3,20.88,8.23,8.95,15.65,19.89,22.23,32.84l.76,7.32c1.66,16.08,3.36,32.57,5.37,49.41,.01,.16,.03,.33,.06,.48,2.11,17.6,4.56,35.58,7.66,53.86-8.42-13.01-17.49-24.52-27.2-34.5-14.23-14.65-29.83-26.06-46.81-34.24-1.94-.93-4.27-.11-5.21,1.82-.93,1.95-.11,4.28,1.83,5.21,16.15,7.77,31.01,18.65,44.6,32.64,13.55,13.94,25.83,30.98,36.83,51.09,4.8,24.21,10.91,48.88,19.02,73.81v.02s.04,.1,.04,.1h0c3.98,12.24,8.45,24.52,13.48,36.87-11.8-10.13-24.33-18.89-37.58-26.27-18.46-10.27-38.3-17.87-59.49-22.79-2.1-.48-4.19,.82-4.69,2.93-.49,2.09,.82,4.2,2.92,4.69,20.53,4.75,39.69,12.07,57.47,21.98,17.6,9.8,33.9,22.14,48.9,37.02,3.46,7.68,7.15,15.37,11.09,23.07l8.58-.37c-13.81-26.54-24.59-53.01-33.13-79.19-1.46-19.02,.79-38.03,6.76-57.03,6.06-19.27,15.95-38.58,29.66-57.92,1.24-1.75,.83-4.19-.92-5.42-1.75-1.25-4.18-.84-5.43,.92-14.17,19.99-24.41,40.01-30.72,60.07-3.58,11.39-5.89,22.78-6.94,34.17-11.69-42.24-18.18-83.54-22.92-122.94,4.58-16.7,9.69-30.84,15.34-42.4,5.62-11.5,11.71-20.37,18.29-26.59,1.57-1.47,1.63-3.94,.16-5.5-1.47-1.56-3.94-1.63-5.5-.16-7.29,6.89-13.96,16.52-19.98,28.86-3.74,7.68-7.26,16.43-10.54,26.29-1.15-10.41-2.2-20.67-3.24-30.77l-.81-7.86c-.01-.14-.02-.29-.05-.43-5.55-53.55-11.14-102.28-26.98-143.67Z" style="fill:#fff; fill-rule:evenodd;"/><path d="M265.05,1373.36c-13.54-7.3-29.85-11.14-39.31-23.27-11.17-14.3-8.92-35.31-18.29-50.85-11.8-19.56-37.58-24.52-56.11-37.88-18.14-13.08-15.67-21.12-25.38-41.27-14.64-30.36-56.68-58.66-86.08-33.77-29.84,25.29-10.64,54.85,5.64,76.31,11.6,15.29,9.82,18.95,12.93,37.88,3.75,22.87-4.04,49.83,11.37,67.13,9.53,10.7,25.38,13.92,35.09,24.46,11.01,11.94,11.42,29.79,15.36,45.54,5.22,20.92,14.34,37.72,28.76,51.3,38.89-2.93,84.61-5.68,136.2-8.19,3.96-5.66,7.18-11.82,9.48-18.34,11.07-31.35,.77-72.67-29.64-89.06Z" style="fill:#c5def8; fill-rule:evenodd;"/><path d="M67.39,1207.66c-1.13-1.17-3-1.21-4.17-.08-1.17,1.13-1.21,3-.08,4.17,5.68,5.88,11.05,12.27,16.24,19.1-1.08-.37-2.17-.71-3.28-1.03-4.95-1.39-10.24-2.2-15.87-2.43-1.63-.06-3,1.21-3.06,2.84-.06,1.63,1.21,3,2.83,3.06,5.17,.2,10.01,.94,14.5,2.21,4.26,1.2,8.23,2.88,11.92,5.04,10.52,15.11,20.37,31.96,30.41,49.89-5.22-3.55-10.45-6.51-15.67-8.88-9.07-4.11-18.17-6.42-27.28-6.96-1.63-.09-3.02,1.15-3.12,2.77-.1,1.63,1.15,3.02,2.77,3.11,8.36,.48,16.76,2.64,25.2,6.46,8.39,3.8,16.79,9.23,25.22,16.3l2.69,4.87c5.93,10.71,12,21.69,18.39,32.84,.06,.1,.11,.21,.19,.32,6.68,11.64,13.71,23.43,21.29,35.24-9.72-6.57-19.44-11.88-29.16-15.97-14.25-5.99-28.51-9.31-42.75-9.98-1.63-.07-3.01,1.18-3.08,2.82-.08,1.63,1.19,3.01,2.82,3.09,13.55,.63,27.13,3.81,40.73,9.52,13.57,5.7,27.17,13.93,40.8,24.68,10.51,15.44,22.08,30.81,35.12,45.78h0s.05,.06,.05,.06h0c6.4,7.34,13.15,14.58,20.31,21.68-11.22-3.55-22.54-5.95-33.96-7.15-15.91-1.69-31.98-1.11-48.19,1.75-1.61,.28-2.68,1.82-2.4,3.42,.28,1.61,1.82,2.68,3.42,2.4,15.7-2.77,31.22-3.34,46.55-1.72,15.16,1.62,30.17,5.39,45.03,11.3,5.12,4.73,10.45,9.4,15.99,13.97l8.79-.45c-19.31-15.43-36.06-31.88-50.89-48.87-6.65-12.82-10.72-26.74-12.19-41.74-1.49-15.22-.33-31.6,3.5-49.13,.35-1.59-.66-3.17-2.25-3.51-1.59-.35-3.16,.66-3.51,2.24-3.95,18.12-5.15,35.11-3.6,50.95,.88,9,2.65,17.62,5.29,25.86-20.66-25.96-37.41-52.8-52.39-78.85-1.76-12.99-2.39-24.35-1.88-34.07,.5-9.68,2.12-17.66,4.87-23.95,.65-1.5-.03-3.24-1.52-3.89-1.49-.65-3.23,.03-3.88,1.52-3.04,6.96-4.83,15.64-5.37,26.02-.33,6.46-.19,13.6,.44,21.44-3.88-6.91-7.67-13.75-11.38-20.46l-2.89-5.24c-.05-.1-.1-.2-.16-.29-19.73-35.65-38.06-67.93-61.36-92.08Z" style="fill:#fff; fill-rule:evenodd;"/><path d="M1778.78,1337.39c13.84-17.32,33.3-31.63,39.02-53.05,6.74-25.28-8.11-51.87-4.43-77.79,4.62-32.6,36.03-53.73,53.07-81.9,16.7-27.59,8.86-36.88,10.39-69.08,2.29-48.53,42.09-109.8,95.14-93.37,53.84,16.7,45.05,66.76,35.57,104.42-6.76,26.83-2.34,30.68,4.21,57.54,7.93,32.46,33.49,63.83,22.79,95.48-6.6,19.58-25.79,32.79-32.74,52.25-7.87,22.04,1.67,45.96,5.33,69.08,7.73,48.68-3.36,89.18-38.73,129.37-4.28,4.08-8.75,7.82-13.4,11.25-48.91-2.5-103.51-4.77-162.87-6.78-.82-.84-1.62-1.69-2.42-2.55-32.37-35.34-42.02-95.97-10.93-134.87Z" style="fill:#d2dfee; fill-rule:evenodd;"/><path d="M1947.51,1006.03c.83-2.2,3.3-3.29,5.49-2.45,2.19,.83,3.3,3.3,2.46,5.49-4.2,11-7.74,22.52-10.77,34.5,1.22-1.1,2.47-2.17,3.78-3.22,5.77-4.64,12.34-8.7,19.67-12.17,2.13-1,4.66-.1,5.66,2.03,1,2.12,.09,4.66-2.03,5.66-6.74,3.18-12.74,6.88-17.99,11.1-4.97,4-9.3,8.47-12.96,13.41-5.44,25.97-8.99,53.89-12.2,83.34,4.93-7.66,10.18-14.54,15.78-20.62,9.72-10.57,20.48-18.77,32.28-24.62,2.09-1.04,4.64-.18,5.68,1.92,1.05,2.1,.19,4.65-1.91,5.69-10.81,5.36-20.74,12.96-29.78,22.79-8.99,9.76-17.08,21.72-24.26,35.84l-.83,7.99c-1.82,17.55-3.67,35.55-5.86,53.93-.02,.18-.03,.36-.06,.53-2.31,19.21-4.98,38.83-8.36,58.76,9.19-14.19,19.08-26.75,29.68-37.65,15.53-15.98,32.55-28.43,51.08-37.36,2.12-1.02,4.66-.13,5.68,1.99,1.02,2.12,.13,4.66-1.99,5.68-17.62,8.49-33.84,20.36-48.67,35.62-14.78,15.21-28.18,33.8-40.19,55.76-5.24,26.42-11.91,53.33-20.77,80.55h0s-.03,.11-.03,.11h-.02c-4.34,13.36-9.22,26.77-14.7,40.24,12.87-11.05,26.55-20.61,41.01-28.66,20.15-11.21,41.79-19.51,64.91-24.87,2.3-.53,4.58,.89,5.12,3.18,.53,2.29-.9,4.58-3.18,5.11-22.4,5.2-43.31,13.19-62.72,24-19.2,10.69-36.99,24.16-53.35,40.4-4.04,8.95-8.36,17.91-12.99,26.88l-9.4-.37c15.52-29.54,27.56-59.01,37.08-88.16,1.59-20.76-.86-41.51-7.38-62.24-6.61-21.04-17.39-42.1-32.36-63.2-1.35-1.91-.9-4.57,1.01-5.92,1.92-1.36,4.57-.91,5.93,1,15.47,21.82,26.63,43.68,33.52,65.56,3.91,12.43,6.42,24.87,7.57,37.29,12.77-46.1,19.85-91.16,25.02-134.16-5-18.23-10.57-33.65-16.74-46.26-6.12-12.56-12.79-22.23-19.97-29.03-1.7-1.61-1.78-4.3-.17-6,1.61-1.71,4.3-1.79,6-.17,7.96,7.53,15.23,18.03,21.8,31.49,4.09,8.38,7.93,17.94,11.52,28.69,1.25-11.36,2.4-22.56,3.54-33.57l.89-8.57c0-.16,.02-.32,.05-.47,6.06-58.44,12.17-111.61,29.44-156.78Z" style="fill:#fff; fill-rule:evenodd;"/><path d="M1921.23,1360.21c14.77-7.96,32.57-12.16,42.89-25.39,12.18-15.61,9.73-38.54,19.96-55.5,12.89-21.34,41.01-26.76,61.24-41.32,19.8-14.29,17.1-23.07,27.7-45.05,15.97-33.12,61.86-64.01,93.94-36.85,32.55,27.59,11.6,59.85-6.16,83.28-12.66,16.68-10.72,20.67-14.12,41.33-4.09,24.95,4.41,54.37-12.41,73.26-10.41,11.68-27.69,15.19-38.29,26.69-12.01,13.02-12.45,32.5-16.75,49.7-5.79,23.15-15.94,41.69-32.06,56.63-42.48-2.89-91.74-5.58-146.81-8-4.84-6.6-8.75-13.86-11.48-21.6-12.07-34.2-.83-79.3,32.34-97.19Z" style="fill:#c5def8; fill-rule:evenodd;"/><path d="M2136.93,1179.39c1.24-1.28,3.27-1.32,4.55-.08,1.28,1.24,1.32,3.28,.08,4.55-6.19,6.42-12.06,13.39-17.72,20.84,1.17-.4,2.37-.78,3.59-1.13,5.4-1.52,11.17-2.4,17.31-2.65,1.78-.06,3.27,1.32,3.35,3.09,.06,1.78-1.32,3.28-3.09,3.35-5.65,.22-10.92,1.02-15.83,2.4-4.65,1.31-8.98,3.15-12.99,5.5-11.48,16.48-22.24,34.88-33.19,54.44,5.7-3.88,11.4-7.11,17.1-9.68,9.9-4.48,19.83-7.01,29.78-7.59,1.77-.1,3.29,1.25,3.39,3.02,.1,1.77-1.25,3.3-3.03,3.4-9.11,.52-18.27,2.87-27.49,7.04-9.15,4.14-18.32,10.06-27.52,17.77l-2.93,5.32c-6.46,11.68-13.09,23.68-20.07,35.82-.06,.13-.13,.25-.21,.36-7.29,12.7-14.96,25.57-23.22,38.46,10.6-7.16,21.22-12.98,31.83-17.43,15.55-6.54,31.1-10.17,46.65-10.89,1.78-.08,3.28,1.29,3.36,3.07,.09,1.78-1.29,3.28-3.06,3.37-14.79,.68-29.61,4.15-44.46,10.39-14.81,6.22-29.64,15.2-44.52,26.93-11.47,16.85-24.1,33.63-38.33,49.96h0s-.06,.06-.06,.06h0c-6.98,8.02-14.35,15.92-22.16,23.68,12.25-3.89,24.6-6.49,37.06-7.81,17.36-1.85,34.9-1.21,52.59,1.91,1.76,.31,2.93,1.98,2.62,3.73-.3,1.76-1.98,2.93-3.73,2.62-17.14-3.02-34.07-3.65-50.79-1.87-16.55,1.76-32.92,5.87-49.14,12.33-6.08,5.62-12.43,11.14-19.04,16.55l-9.71-.45c21.79-17.22,40.63-35.64,57.25-54.69,7.27-13.98,11.69-29.17,13.29-45.54,1.63-16.61,.36-34.48-3.81-53.61-.38-1.73,.71-3.45,2.45-3.82,1.74-.38,3.45,.71,3.83,2.45,4.31,19.77,5.62,38.32,3.93,55.59-.97,9.82-2.89,19.23-5.78,28.22,22.55-28.32,40.82-57.62,57.18-86.04,1.92-14.17,2.6-26.57,2.05-37.18-.55-10.56-2.32-19.27-5.31-26.13-.71-1.63,.03-3.53,1.67-4.24,1.62-.71,3.52,.03,4.24,1.66,3.32,7.61,5.26,17.07,5.85,28.4,.36,7.04,.21,14.84-.48,23.4,4.24-7.54,8.36-15.01,12.41-22.34l3.16-5.71c.05-.11,.11-.21,.17-.32,21.53-38.91,41.54-74.14,66.96-100.49Z" style="fill:#fff; fill-rule:evenodd;"/><path d="M1031.01,298.56c-3.98,54.61-12.03,62.14-64.1,66.35,52.07,4.2,60.12,11.74,64.1,66.35,3.98-54.61,12.03-62.14,64.1-66.35-52.07-4.2-60.12-11.74-64.1-66.35h0Zm211.64,144.03c-2.13,29.16-6.42,33.18-34.22,35.42,27.79,2.24,32.09,6.27,34.22,35.42,2.12-29.16,6.42-33.18,34.22-35.42-27.8-2.24-32.1-6.27-34.22-35.42h0Zm-92.69-224.4c-2.15,29.53-6.5,33.61-34.66,35.88,28.15,2.28,32.51,6.35,34.66,35.87,2.16-29.52,6.5-33.6,34.66-35.87-28.16-2.28-32.5-6.35-34.66-35.88Z" style="fill:#fff; fill-rule:evenodd;"/><path d="M954.26,1193.91c3.22,44.24,9.75,50.35,51.93,53.76-42.18,3.4-48.71,9.5-51.93,53.74-3.22-44.24-9.75-50.34-51.93-53.74,42.18-3.41,48.71-9.52,51.93-53.76h0Zm-171.46,116.69c1.73,23.62,5.21,26.88,27.72,28.7-22.52,1.82-26,5.08-27.72,28.7-1.72-23.62-5.2-26.88-27.72-28.7,22.52-1.82,26-5.08,27.72-28.7h0Zm75.09-181.79c1.75,23.92,5.27,27.22,28.08,29.06-22.81,1.84-26.33,5.15-28.08,29.07-1.74-23.92-5.27-27.23-28.08-29.07,22.81-1.84,26.34-5.14,28.08-29.06Z" style="fill:#fff; fill-rule:evenodd;"/><path d="M1628.1,1084.85c-2.47,33.88-7.46,38.55-39.76,41.16,32.3,2.61,37.29,7.28,39.76,41.16,2.47-33.88,7.46-38.55,39.76-41.16-32.3-2.61-37.29-7.28-39.76-41.16h0Zm131.28,89.34c-1.32,18.08-3.98,20.58-21.22,21.97,17.24,1.4,19.91,3.89,21.22,21.97,1.32-18.08,3.99-20.57,21.23-21.97-17.24-1.39-19.92-3.89-21.23-21.97h0Zm-57.49-139.18c-1.33,18.31-4.04,20.84-21.49,22.25,17.46,1.41,20.16,3.94,21.49,22.26,1.33-18.31,4.04-20.84,21.5-22.26-17.46-1.4-20.16-3.93-21.5-22.25Z" style="fill:#fff; fill-rule:evenodd;"/></g><g><g><polygon points="903.1 1216.99 1109.39 1255.72 1107.71 1515.9 904.79 1473.8 903.1 1216.99" style="fill:#8bbae9; fill-rule:evenodd;"/><path d="M1107.71,1517.93c-.14,0-.27-.02-.41-.04l-202.92-42.1c-.94-.2-1.61-1.02-1.62-1.98l-1.69-256.81c0-.61,.26-1.18,.73-1.57,.46-.39,1.08-.56,1.67-.44l206.29,38.73c.97,.18,1.67,1.03,1.66,2.01l-1.68,260.18c0,.6-.28,1.18-.75,1.56-.36,.29-.82,.45-1.28,.45Zm-200.9-45.79l198.89,41.27,1.65-256.01-202.2-37.96,1.66,252.7Z" style="fill:#61a0e0;"/></g><g><polygon points="1279.48 1198.9 1109.39 1255.72 1107.71 1515.9 1281.16 1462.02 1279.48 1198.9" style="fill:#c3dffa; fill-rule:evenodd;"/><path d="M1107.71,1517.93c-.43,0-.86-.13-1.21-.4-.52-.39-.83-1-.82-1.65l1.68-260.18c0-.86,.56-1.63,1.39-1.91l170.08-56.83c.62-.21,1.3-.1,1.82,.28,.52,.38,.84,.98,.85,1.63l1.68,263.12c0,.9-.58,1.69-1.43,1.95l-173.45,53.89c-.2,.06-.4,.09-.6,.09Zm3.7-260.74l-1.65,255.95,169.36-52.62-1.65-258.81-166.06,55.48Z" style="fill:#61a0e0;"/></g><g><polygon points="1279.48 1198.9 1109.39 1255.72 903.1 1216.99 1088.34 1153.84 1279.48 1198.9" style="fill:#eff9fc; fill-rule:evenodd;"/><path d="M1109.53,1257.82l-.52-.09-206.29-38.73-.28-3.92,185.79-63.34,.57,.13,191.14,45.05,.17,3.9-170.58,57Zm-198.46-41.39l198.18,37.21,162.81-54.39-183.62-43.28-177.37,60.47Z" style="fill:#61a0e0;"/></g></g><g><g><polygon points="903.1 957.99 1109.39 996.73 1107.71 1256.9 904.79 1214.8 903.1 957.99" style="fill:#eff9fc; fill-rule:evenodd;"/><path d="M1107.71,1258.93c-.14,0-.27-.02-.41-.04l-202.92-42.1c-.94-.2-1.61-1.02-1.62-1.98l-1.69-256.81c0-.61,.26-1.18,.73-1.57,.46-.39,1.08-.56,1.67-.44l206.29,38.74c.97,.18,1.67,1.03,1.66,2.01l-1.68,260.17c0,.6-.28,1.18-.75,1.56-.36,.29-.82,.45-1.28,.45Zm-200.9-45.79l198.89,41.27,1.65-256-202.2-37.97,1.66,252.7Z" style="fill:#61a0e0;"/></g><g><polygon points="1279.48 939.89 1109.39 996.73 1107.71 1256.9 1281.16 1203.01 1279.48 939.89" style="fill:#c3dffa; fill-rule:evenodd;"/><path d="M1107.71,1258.93c-.43,0-.86-.13-1.21-.4-.52-.39-.83-1-.82-1.65l1.68-260.17c0-.86,.56-1.63,1.39-1.91l170.08-56.84c.62-.21,1.29-.11,1.82,.28,.52,.38,.84,.98,.85,1.63l1.68,263.12c0,.9-.58,1.69-1.43,1.95l-173.45,53.89c-.2,.06-.4,.09-.6,.09Zm3.7-260.73l-1.65,255.94,169.36-52.62-1.65-258.81-166.06,55.49Z" style="fill:#61a0e0;"/></g><g><polygon points="1279.48 939.89 1109.39 996.73 903.1 957.99 1088.34 894.84 1279.48 939.89" style="fill:#eff9fc; fill-rule:evenodd;"/><path d="M1109.53,998.82l-.52-.09-206.29-38.74-.28-3.92,185.79-63.34,.57,.14,191.14,45.05,.17,3.9-170.58,57Zm-198.47-41.4l198.18,37.21,162.81-54.4-183.62-43.28-177.38,60.47Z" style="fill:#61a0e0;"/></g></g><g><g><polygon points="346.66 1250.17 552.95 1288.91 551.26 1549.09 348.34 1506.98 346.66 1250.17" style="fill:#fc9774; fill-rule:evenodd;"/><path d="M551.26,1551.12c-.14,0-.28-.02-.41-.04l-202.92-42.11c-.94-.2-1.61-1.02-1.62-1.98l-1.69-256.81c0-.61,.26-1.18,.73-1.57,.46-.4,1.07-.56,1.67-.44l206.3,38.74c.96,.18,1.66,1.03,1.65,2.01l-1.69,260.18c0,.6-.28,1.18-.75,1.56-.37,.29-.82,.45-1.28,.45Zm-200.9-45.8l198.89,41.28,1.66-256.01-202.2-37.97,1.66,252.7Z" style="fill:#61a0e0;"/></g><g><polygon points="723.03 1232.07 552.95 1288.91 551.26 1549.09 724.71 1495.19 723.03 1232.07" style="fill:#c3dffa; fill-rule:evenodd;"/><path d="M551.26,1551.12c-.43,0-.86-.13-1.21-.4-.52-.39-.82-1-.82-1.65l1.69-260.18c0-.86,.56-1.63,1.39-1.91l170.08-56.84c.61-.21,1.29-.11,1.82,.28,.53,.38,.84,.98,.85,1.63l1.68,263.12c0,.9-.58,1.69-1.43,1.95l-173.45,53.89c-.2,.06-.4,.1-.6,.1Zm3.71-260.74l-1.66,255.95,169.36-52.63-1.65-258.81-166.05,55.49Z" style="fill:#61a0e0;"/></g><g><polygon points="723.03 1232.07 552.95 1288.91 346.66 1250.17 531.89 1187.02 723.03 1232.07" style="fill:#eff9fc; fill-rule:evenodd;"/><path d="M553.09,1291l-.52-.09-206.29-38.74-.28-3.92,185.79-63.34,.57,.13,191.13,45.05,.18,3.9-170.58,57Zm-198.47-41.4l198.18,37.21,162.81-54.4-183.62-43.28-177.37,60.47Z" style="fill:#61a0e0;"/></g></g><g><path d="M640.62,1330.57c37.24-6.83,67.43,17.83,67.43,55.07s-30.19,72.96-67.43,79.78c-37.24,6.83-67.43-17.83-67.43-55.07s30.19-72.96,67.43-79.78Z" style="fill:#8bbae9; fill-rule:evenodd;"/><path d="M640.25,1328.51c4.32-.79,8.55-1.17,12.61-1.17,14.27,0,27.05,4.63,36.91,12.74,9.86,8.11,16.77,19.67,19.31,33.53,.71,3.87,1.08,7.9,1.08,12.04,0,19.12-7.74,37.85-20.25,52.65-12.5,14.79-29.79,25.7-48.9,29.2-4.32,.79-8.55,1.17-12.61,1.17-13.72,0-26.06-4.28-35.75-11.81l-14.68,15.88-1.42,1.54-1.53-1.43-8.95-8.31-1.52-1.42,1.42-1.54,15.41-16.67c-4.47-6.47-7.63-14.06-9.18-22.5-.71-3.87-1.08-7.89-1.08-12.04,0-19.12,7.74-37.85,20.25-52.65,12.5-14.79,29.79-25.7,48.9-29.2h0Zm-50.81,125.64c-1.98-1.81-3.83-3.76-5.53-5.85l-13.48,14.58,5.88,5.47,13.12-14.2h0Zm2.84-3.08l37.74-40.82,1.43-1.55,1.53,1.43,8.74,8.12,20.97-49.28-47.49,24.63,8.83,8.22,1.53,1.41-1.42,1.54-37.37,40.42c1.68,2.12,3.52,4.08,5.5,5.89h0Zm39.39-36.45l-36.18,39.13c8.91,6.83,20.26,10.71,32.9,10.71,3.87,0,7.83-.37,11.86-1.09,18.13-3.32,34.55-13.7,46.46-27.78,11.89-14.07,19.25-31.83,19.25-49.95,0-3.93-.35-7.71-1-11.28-2.36-12.87-8.74-23.57-17.85-31.06-9.11-7.49-20.96-11.77-34.25-11.77-3.87,0-7.83,.37-11.86,1.09-18.12,3.32-34.55,13.7-46.46,27.78-11.89,14.07-19.25,31.84-19.25,49.95,0,3.94,.34,7.71,1,11.29,1.37,7.5,4.12,14.27,7.98,20.1l35.38-38.27-9.48-8.82-2.18-2.03,2.64-1.36,55.3-28.68,2.89,2.68-24.43,57.38-1.16,2.74-2.19-2.03-9.39-8.72Z" style="fill:#61a0e0; fill-rule:evenodd;"/><polygon points="576.42 1471.31 631.55 1411.67 642.48 1421.83 666.9 1364.43 611.6 1393.11 622.61 1403.35 567.48 1462.99 576.42 1471.31" style="fill:#fff; fill-rule:evenodd;"/></g><g><polygon points="458.75 1459.34 420.79 1453.31 420.79 1466.42 458.75 1472.46 458.75 1459.34" style="fill:#c3dffa; fill-rule:evenodd;"/><path d="M458.41,1451.99c2.29-.71,3.8-2.43,3.8-5.4v-.93c.45-25.61,23.03-29.22,24.85-57.35,.13-2.11,.12-4.19-.05-6.25-3.54-22.11-24.02-39.85-47.03-43.51-26.23-4.17-49.17,10.97-47.49,37.88,1.74,27.86,23.24,38.26,23.67,63.25,0,2.7,2.89,6.27,5.34,6.44l36.92,5.88Z" style="fill:#61a0e0; fill-rule:evenodd;"/><path d="M457.67,1448.94l-9.81,6.99-18.12-7.26-8.38-5.5-.11-.02c-.87-.16-2.15-2.17-2.16-3.05-.14-8.99-2.8-16.6-7.45-24.89-3.33-5.93-7.24-11.57-10.31-17.64-3.51-6.92-5.45-13.51-5.91-20.86-.55-8.87,1.75-16.88,6.9-23.2,8.59-10.51,23.24-14.32,37.65-12.02,20.33,3.24,40.6,18.89,44.12,40.47,.15,1.92,.15,3.82,.03,5.7-.49,7.52-2.57,13.71-6.3,19.72-3.27,5.27-7.42,9.83-10.93,14.92-4.74,6.88-7.47,13.78-7.63,22.9v.93c0,1.41-.5,2.32-1.59,2.82Z" style="fill:#c3dffa; fill-rule:evenodd;"/><path d="M444.92,1450.45l-3.6,2.85-11.57-4.63-8.38-5.5-.11-.02c-.87-.16-2.15-2.17-2.16-3.05-.14-8.99-2.8-16.6-7.45-24.89-3.33-5.93-7.24-11.57-10.31-17.64-3.51-6.92-5.45-13.51-5.91-20.86-.55-8.87,1.75-16.88,6.9-23.2,8.59-10.51,23.24-14.32,37.65-12.02,4.29,.68,8.58,1.92,12.7,3.65,9.51,7.74,16.69,18.76,18.65,31.88,.15,2.09,.15,4.17,.03,6.22-.49,8.2-2.57,14.99-6.3,21.6-3.28,5.8-7.42,10.83-10.93,16.43-4.74,7.58-7.47,15.14-7.63,25.1v1c0,1.54-.5,2.54-1.59,3.1Z" style="fill:#dfedfa; fill-rule:evenodd;"/><path d="M419.42,1469.23c.29,2.93,2.74,5.59,5.69,6.06l4.37,.7,1.71,3.05c.98,1.76,1.55,1.95,3.43,2.25l10.29,1.64c1.88,.29,2.45,.29,3.43-1.17l1.71-2.51,4.38,.7c2.91,.46,5.34-1.36,5.67-4.15v-2c-.15-.67-.75-1.26-1.44-1.37l-37.79-6.01c-.7-.11-1.3,.29-1.45,.92-.02,.06,.03,.19,0,.21v1.67h0Zm38.71-6.99c1.11,.17,2.01,1.23,2.01,2.34v3.13c0,1.11-.9,1.87-2.01,1.7l-36.72-5.85c-1.11-.17-2.01-1.23-2.01-2.34v-3.12c0-1.11,.91-1.87,2.01-1.7l36.72,5.85h0Zm-.08-10.31l-36.56-5.82c-1.15-.18-2.1,.62-2.1,1.77v3.26c0,1.15,.94,2.24,2.1,2.43l36.56,5.82c1.15,.18,2.1-.61,2.1-1.77v-3.25c0-1.16-.94-2.25-2.1-2.44Z" style="fill:#61a0e0; fill-rule:evenodd;"/><path d="M445.57,1449.95l3.89-46.41,5.63,.9c2.43,.39,4.64-.25,6.25-1.6h0c1.6-1.36,2.6-3.4,2.6-5.83s-1-4.8-2.59-6.65c-1.6-1.86-3.82-3.21-6.25-3.59-2.4-.38-4.48,.25-6.04,1.55-1.57,1.32-2.59,3.36-2.79,5.71l-.44,4.97-17.23-2.74-.44-5.11c-.21-2.42-1.22-4.78-2.8-6.6-1.55-1.8-3.63-3.09-6.03-3.47-2.43-.39-4.64,.25-6.24,1.6h0c-1.6,1.34-2.59,3.39-2.59,5.83s1,4.8,2.59,6.65c1.6,1.86,3.81,3.21,6.25,3.58l5.63,.9,3.89,47.64,3.97,.63-3.87-47.64,16.54,2.63-3.87,46.41,3.96,.63h0Zm4.24-50.33l.41-4.63c.12-1.43,.72-2.65,1.65-3.43,.83-.7,1.95-1.04,3.23-.83,1.34,.21,2.55,.95,3.44,1.98,.88,1.02,1.43,2.32,1.43,3.66s-.55,2.47-1.42,3.2h0c-.88,.75-2.1,1.09-3.44,.89l-5.29-.85h0Zm-25.19-4.01l-5.29-.84c-1.34-.21-2.56-.96-3.44-1.98-.88-1.02-1.43-2.32-1.43-3.66s.55-2.47,1.43-3.2h0c.88-.75,2.09-1.1,3.44-.89,1.28,.21,2.39,.9,3.22,1.86,.92,1.08,1.52,2.48,1.65,3.96l.41,4.76Z" style="fill:#fff; fill-rule:evenodd;"/><path d="M422.68,1352.32c1.26-.33,1.85-1.69,1.32-3.03-.53-1.35-1.98-2.17-3.24-1.84-1.03,.28-2,.59-2.92,.94-.94,.36-1.87,.76-2.77,1.21-1.14,.57-1.46,2.06-.7,3.32,.76,1.26,2.3,1.82,3.44,1.25,.77-.38,1.56-.73,2.38-1.04,.84-.32,1.67-.59,2.49-.81h0Zm-10.91,6.19c.9-.9,.79-2.48-.25-3.55-1.03-1.06-2.6-1.21-3.5-.31-2.63,2.59-4.72,5.74-6.15,9.31-1.38,3.45-2.13,7.28-2.13,11.39,0,1.37,1.11,2.67,2.48,2.88,1.38,.22,2.49-.71,2.49-2.09,0-3.51,.64-6.77,1.8-9.69,1.21-3.03,3.01-5.71,5.26-7.93Z" style="fill:#fff; fill-rule:evenodd;"/></g><g><g><polygon points="1108.02 1259.1 1314.3 1297.84 1312.62 1558.01 1109.7 1515.91 1108.02 1259.1" style="fill:#c3dffa; fill-rule:evenodd;"/><path d="M1312.62,1560.04c-.13,0-.27-.02-.41-.04l-202.92-42.1c-.94-.2-1.61-1.02-1.62-1.97l-1.69-256.81c0-.61,.26-1.18,.73-1.57,.47-.39,1.07-.57,1.67-.44l206.3,38.74c.97,.18,1.67,1.03,1.65,2.01l-1.68,260.17c0,.6-.28,1.18-.75,1.56-.37,.29-.83,.45-1.29,.45Zm-200.9-45.79l198.89,41.27,1.66-256-202.2-37.97,1.66,252.7Z" style="fill:#61a0e0;"/></g><g><polygon points="1484.39 1241 1314.3 1297.84 1312.62 1558.01 1486.07 1504.12 1484.39 1241" style="fill:#c3dffa; fill-rule:evenodd;"/><path d="M1312.62,1560.04c-.43,0-.86-.13-1.21-.4-.52-.39-.82-1-.82-1.65l1.68-260.17c0-.86,.57-1.63,1.4-1.91l170.08-56.84c.61-.21,1.29-.11,1.82,.28,.52,.38,.84,.98,.84,1.63l1.68,263.12c0,.9-.57,1.69-1.43,1.95l-173.45,53.89c-.19,.06-.4,.1-.6,.1Zm3.71-260.73l-1.66,255.94,169.36-52.62-1.66-258.81-166.05,55.49Z" style="fill:#61a0e0;"/></g><g><polygon points="1484.39 1241 1314.3 1297.84 1108.02 1259.1 1293.25 1195.95 1484.39 1241" style="fill:#eff9fc; fill-rule:evenodd;"/><path d="M1314.45,1299.94l-.52-.1-206.29-38.74-.28-3.92,185.8-63.34,.56,.13,191.13,45.05,.18,3.9-170.59,57Zm-198.46-41.4l198.18,37.21,162.82-54.4-183.62-43.28-177.38,60.47Z" style="fill:#61a0e0;"/></g></g><g><g><polygon points="1108.02 1000.11 1314.3 1038.83 1312.62 1299.02 1109.7 1256.91 1108.02 1000.11" style="fill:#8bbae9; fill-rule:evenodd;"/><path d="M1312.62,1301.05c-.13,0-.27-.02-.41-.04l-202.92-42.1c-.94-.2-1.61-1.02-1.62-1.97l-1.69-256.81c0-.61,.26-1.18,.73-1.57s1.07-.57,1.67-.44l206.3,38.72c.97,.18,1.67,1.03,1.65,2.01l-1.68,260.19c0,.6-.28,1.18-.75,1.56-.37,.29-.83,.45-1.29,.45Zm-200.9-45.79l198.89,41.27,1.66-256.01-202.2-37.95,1.66,252.7Z" style="fill:#61a0e0;"/></g><g><polygon points="1484.39 982 1314.3 1038.83 1312.62 1299.02 1486.07 1245.13 1484.39 982" style="fill:#c3dffa; fill-rule:evenodd;"/><path d="M1312.62,1301.05c-.43,0-.86-.13-1.21-.4-.52-.39-.82-1-.82-1.65l1.68-260.19c0-.86,.57-1.63,1.4-1.91l170.08-56.83c.6-.21,1.29-.11,1.82,.28,.52,.38,.84,.98,.84,1.63l1.68,263.13c0,.9-.57,1.69-1.43,1.95l-173.45,53.89c-.19,.06-.4,.1-.6,.1Zm3.71-260.75l-1.66,255.96,169.36-52.62-1.66-258.82-166.05,55.48Z" style="fill:#61a0e0;"/></g><g><polygon points="1484.39 982 1314.3 1038.83 1108.02 1000.11 1293.25 936.95 1484.39 982" style="fill:#eff9fc; fill-rule:evenodd;"/><path d="M1314.45,1040.92l-.51-.09-206.3-38.72-.28-3.92,185.8-63.34,.56,.13,191.13,45.04,.18,3.9-170.59,57Zm-198.46-41.39l198.18,37.2,162.81-54.39-183.61-43.27-177.38,60.47Z" style="fill:#61a0e0;"/></g></g><g><g><polygon points="1317.02 1303 1523.3 1341.73 1521.62 1601.9 1318.7 1559.8 1317.02 1303" style="fill:#eff9fc; fill-rule:evenodd;"/><path d="M1521.62,1603.94c-.14,0-.27-.02-.41-.04l-202.92-42.1c-.94-.2-1.61-1.02-1.62-1.98l-1.68-256.81c0-.61,.26-1.18,.73-1.57,.46-.39,1.08-.56,1.67-.44l206.29,38.74c.97,.18,1.67,1.03,1.65,2.01l-1.68,260.17c0,.6-.28,1.18-.75,1.56-.36,.29-.83,.45-1.28,.45Zm-200.91-45.79l198.89,41.27,1.66-256-202.2-37.97,1.65,252.7Z" style="fill:#61a0e0;"/></g><g><polygon points="1693.38 1284.9 1523.3 1341.73 1521.62 1601.9 1695.07 1548.02 1693.38 1284.9" style="fill:#c3dffa; fill-rule:evenodd;"/><path d="M1521.62,1603.94c-.43,0-.86-.13-1.21-.4-.52-.39-.83-1-.83-1.65l1.68-260.17c0-.86,.57-1.63,1.4-1.91l170.08-56.84c.6-.21,1.29-.11,1.82,.28,.52,.38,.84,.98,.84,1.63l1.68,263.12c0,.9-.57,1.69-1.43,1.95l-173.45,53.89c-.19,.06-.4,.09-.6,.09Zm3.71-260.73l-1.66,255.94,169.36-52.62-1.66-258.81-166.05,55.49Z" style="fill:#61a0e0;"/></g><g><polygon points="1693.38 1284.9 1523.3 1341.73 1317.02 1303 1502.25 1239.85 1693.38 1284.9" style="fill:#8bbae9; fill-rule:evenodd;"/><path d="M1523.44,1343.83l-.52-.09-206.28-38.74-.28-3.92,185.79-63.34,.56,.13,191.13,45.05,.18,3.9-170.59,57Zm-198.46-41.4l198.18,37.21,162.82-54.4-183.62-43.28-177.38,60.47Z" style="fill:#61a0e0;"/></g></g><g><g><polygon points="903.1 697.34 1109.39 736.07 1107.71 996.25 904.79 954.15 903.1 697.34" style="fill:#c3dffa; fill-rule:evenodd;"/><path d="M1107.71,998.28c-.14,0-.27-.02-.41-.04l-202.92-42.1c-.94-.2-1.61-1.02-1.62-1.97l-1.69-256.81c0-.61,.26-1.18,.73-1.57,.46-.39,1.08-.56,1.67-.44l206.29,38.73c.97,.18,1.67,1.03,1.66,2.01l-1.68,260.18c0,.6-.28,1.18-.75,1.56-.36,.29-.82,.45-1.28,.45Zm-200.9-45.79l198.89,41.27,1.65-256.01-202.2-37.96,1.66,252.7Z" style="fill:#61a0e0;"/></g><g><polygon points="1279.48 679.23 1109.39 736.07 1107.71 996.25 1281.16 942.36 1279.48 679.23" style="fill:#8bbae9; fill-rule:evenodd;"/><path d="M1107.71,998.28c-.43,0-.86-.13-1.21-.4-.52-.39-.83-1-.82-1.65l1.68-260.18c0-.86,.56-1.63,1.39-1.91l170.08-56.84c.62-.21,1.29-.11,1.82,.28,.52,.38,.84,.98,.85,1.63l1.68,263.13c0,.9-.58,1.69-1.43,1.95l-173.45,53.89c-.2,.06-.4,.09-.6,.09Zm3.7-260.74l-1.65,255.95,169.36-52.62-1.65-258.82-166.06,55.49Z" style="fill:#61a0e0;"/></g><g><polygon points="1279.48 679.23 1109.39 736.07 903.1 697.34 1088.34 634.19 1279.48 679.23" style="fill:#eff9fc; fill-rule:evenodd;"/><path d="M1109.53,738.17l-.52-.1-206.29-38.73-.28-3.92,185.79-63.34,.57,.13,191.14,45.04,.17,3.9-170.58,57Zm-198.46-41.4l198.18,37.21,162.81-54.4-183.62-43.27-177.37,60.47Z" style="fill:#61a0e0;"/></g></g><g><rect x="1010.54" y="592.04" width="139.78" height="48.29" style="fill:#c3dffa;"/><path d="M1149.04,565.16c8.43-3.93,13.99-11.18,13.99-22.11v-3.41c1.65-94.58,84.76-121.09,91.48-225.71,.5-7.85,.43-15.52-.17-22.99-13.02-79.36-88.44-132.64-173.18-132.64-96.56,0-181.03,69.19-174.84,167.3,6.4,101.5,85.58,127.22,87.15,218.98,0,9.93,10.62,21.38,19.67,20.58h135.91Z" style="fill:#61a0e0; fill-rule:evenodd;"/><path d="M1146.36,554.34l-36.14,31.47-66.7-16.09-30.86-15.38-.43,.04c-3.18-.09-7.9-6.77-7.95-9.97-.51-33.01-10.32-59.47-27.43-87.25-12.26-19.92-26.65-38.39-37.97-58.91-12.91-23.41-20.08-46.57-21.77-73.34-2.04-32.33,6.42-63.16,25.42-89.46,31.6-43.72,85.57-66.34,138.62-66.34,74.87,0,149.49,45.76,162.43,123.14,.55,6.98,.57,14,.12,20.98-1.79,27.96-9.46,51.99-23.18,76.29-12.06,21.35-27.32,40.54-40.24,61.33-17.47,28.12-27.49,55.12-28.08,88.79v3.41c0,5.18-1.83,8.8-5.85,11.29Z" style="fill:#c3dffa; fill-rule:evenodd;"/><path d="M1099.39,567.39l-13.27,12.61-42.6-10.28-30.86-15.38-.43,.04c-3.18-.09-7.9-6.77-7.95-9.97-.51-33.01-10.32-59.47-27.43-87.25-12.26-19.92-26.65-38.4-37.97-58.91-12.91-23.41-20.08-46.57-21.77-73.34-2.03-32.33,6.42-63.16,25.43-89.46,31.6-43.73,85.57-66.34,138.62-66.34,15.8,0,31.59,2.05,46.78,5.99,34.99,22.94,61.45,59.3,68.67,106.42,.55,7.61,.57,15.27,.13,22.89-1.79,30.49-9.46,56.7-23.19,83.21-12.06,23.28-27.32,44.2-40.23,66.88-17.46,30.69-27.49,60.11-28.08,96.85v3.71c0,5.66-1.84,9.61-5.86,12.33Z" style="fill:#dfedfa; fill-rule:evenodd;"/><path d="M1005.5,651.48c1.05,10.63,10.08,18.99,20.95,18.99h16.12l6.27,10.25c3.6,5.89,5.72,6.28,12.63,6.28h37.89c6.91,0,9.01-.36,12.64-6.28l6.27-10.25h16.12c10.72,0,19.67-8.15,20.9-18.58v-7.37c-.57-2.4-2.74-4.2-5.31-4.2h-139.13c-2.59,0-4.77,1.82-5.32,4.25-.05,.21,.09,.67-.04,.77v6.13h0Zm142.52-48.41h-135.19c-4.09,0-7.43,3.34-7.43,7.42v11.52c0,4.08,3.34,7.42,7.43,7.42h135.19c4.09,0,7.42-3.35,7.42-7.42v-11.52c0-4.08-3.34-7.42-7.42-7.42h0Zm-.3-37.91h-134.59c-4.25,0-7.73,3.48-7.73,7.73v11.99c0,4.25,3.48,7.73,7.73,7.73h134.59c4.24,0,7.73-3.47,7.73-7.73v-11.99c0-4.24-3.48-7.73-7.73-7.73Z" style="fill:#61a0e0; fill-rule:evenodd;"/><path d="M1101.78,565.16l14.31-173.13h20.73c8.96,0,17.1-3.66,23-9.55l-.02-.02c5.9-5.91,9.57-14.04,9.57-22.98s-3.66-17.09-9.55-22.99c-5.9-5.89-14.04-9.55-23-9.55s-16.51,3.54-22.22,9.26c-5.8,5.79-9.53,13.86-10.29,22.66l-1.61,18.54h-63.44l-1.62-18.54c-.77-8.79-4.49-16.85-10.3-22.66-5.71-5.71-13.38-9.26-22.21-9.26s-17.06,3.66-22.97,9.57v-.02c-5.9,5.89-9.57,14.03-9.57,22.99s3.66,17.1,9.55,22.99c5.89,5.89,14.03,9.55,22.99,9.55h20.74l14.32,173.13h14.6l-14.25-173.13h60.89l-14.25,173.13h14.6Zm15.59-187.75l1.51-17.29c.46-5.35,2.66-10.18,6.06-13.59,3.06-3.07,7.17-4.96,11.88-4.96s9.41,2.01,12.66,5.27c3.25,3.24,5.27,7.73,5.27,12.64s-2.01,9.42-5.24,12.66h-.03c-3.25,3.25-7.72,5.27-12.66,5.27h-19.46Zm-92.77,0h-19.47c-4.92,0-9.4-2.01-12.65-5.27-3.25-3.25-5.27-7.73-5.27-12.66s2.02-9.4,5.27-12.64v-.03c3.23-3.24,7.71-5.24,12.65-5.24s8.81,1.9,11.88,4.97c3.41,3.41,5.61,8.25,6.08,13.58l1.51,17.29Z" style="fill:#fff; fill-rule:evenodd;"/><path d="M1017.49,219.12c4.64-1.95,6.82-7.3,4.86-11.94-1.95-4.64-7.3-6.81-11.94-4.86-3.79,1.6-7.38,3.32-10.75,5.13-3.49,1.87-6.88,3.91-10.19,6.1-4.2,2.78-5.35,8.45-2.57,12.65,2.78,4.21,8.46,5.36,12.66,2.58,2.82-1.86,5.74-3.62,8.76-5.23,3.09-1.67,6.16-3.14,9.18-4.43h0Zm-40.16,29.14c3.32-3.81,2.91-9.59-.9-12.9-3.81-3.32-9.59-2.91-12.9,.9-9.66,11.1-17.39,23.9-22.65,37.89-5.08,13.51-7.86,28.05-7.86,43.19,0,5.05,4.1,9.15,9.15,9.15s9.15-4.1,9.15-9.15c0-12.96,2.35-25.33,6.65-36.75,4.47-11.87,11.07-22.79,19.36-32.31Z" style="fill:#fff; fill-rule:evenodd;"/><path d="M1074.88,0h0c4.3,0,7.81,3.51,7.81,7.81V106.34c0,4.3-3.51,7.81-7.81,7.81h0c-4.3,0-7.81-3.51-7.81-7.81V7.81c0-4.3,3.51-7.81,7.81-7.81h0Zm-290.3,512.09h0c2,3.81,6.75,5.27,10.54,3.27l87.16-45.95c3.8-2.01,5.27-6.75,3.27-10.55h0c-2-3.8-6.75-5.27-10.54-3.27l-87.16,45.95c-3.8,2.01-5.27,6.76-3.26,10.55h0Zm-53.33-164.02h0c.29,4.29,4.02,7.56,8.3,7.28l98.32-6.46c4.28-.28,7.56-4.01,7.28-8.3h0c-.29-4.28-4.02-7.56-8.3-7.28l-98.32,6.46c-4.28,.29-7.55,4.01-7.28,8.3h0Zm31.97-166.33h0c-1.49,4.04,.59,8.55,4.62,10.04l92.42,34.14c4.03,1.48,8.54-.59,10.03-4.62h0c1.49-4.04-.59-8.54-4.62-10.03l-92.42-34.15c-4.02-1.48-8.54,.59-10.03,4.62h0Zm120.85-132.47h0c-3.45,2.57-4.16,7.48-1.6,10.92l58.82,79.05c2.56,3.44,7.48,4.17,10.92,1.6h0c3.45-2.56,4.17-7.48,1.6-10.92l-58.82-79.05c-2.56-3.44-7.48-4.16-10.92-1.6h0Zm481.1,462.82h0c-2,3.81-6.74,5.27-10.55,3.27l-87.16-45.95c-3.8-2.01-5.27-6.75-3.26-10.55h0c2-3.8,6.74-5.27,10.55-3.27l87.15,45.95c3.81,2.01,5.27,6.76,3.27,10.55h0Zm53.33-164.02h0c-.29,4.29-4.01,7.56-8.3,7.28l-98.32-6.46c-4.29-.28-7.57-4.01-7.28-8.3h0c.29-4.28,4.01-7.56,8.3-7.28l98.33,6.46c4.29,.29,7.56,4.01,7.27,8.3h0Zm-31.96-166.33h0c1.49,4.04-.59,8.55-4.62,10.04l-92.43,34.14c-4.03,1.48-8.54-.59-10.03-4.62h0c-1.49-4.04,.59-8.54,4.62-10.03l92.43-34.15c4.02-1.48,8.53,.59,10.03,4.62h0Zm-120.86-132.47h0c3.46,2.57,4.17,7.48,1.6,10.92l-58.81,79.05c-2.56,3.44-7.48,4.17-10.92,1.6h0c-3.45-2.56-4.17-7.48-1.6-10.92l58.82-79.05c2.55-3.44,7.47-4.16,10.91-1.6Z" style="fill:#fc9774; fill-rule:evenodd;"/></g><g><path d="M1603.64,1233.39l-.21,31.56-33.81-12.38s-18.77-29.3-43.17-68.43c15.43-6.71,31.47-12.41,47.57-18.25,16.66,39.4,29.62,67.5,29.62,67.5Z" style="fill:#fcb88d; fill-rule:evenodd;"/><path d="M1567.51,1250.54s16.99-4.86,21.11-8.7c4.13-3.83,6.54-13.29,13.27-13,6.74,.29,30.72,22.38,32.69,29.22,2.06,7.19,1.67,16.67-2.55,20.5-4.2,3.9-78.54,51.62-93.65,56.4-15.08,4.78-28.01-6.27-17.64-20.88,10.36-14.6,36.82-63.91,46.76-63.54Z" style="fill:#284191; fill-rule:evenodd;"/><path d="M1700.62,843.83s-296.77,39.32-301.58,76.62c-11.27,87.2,153.48,316.33,153.48,316.33l46.32-20.22-83.14-240.71s132.56-13.1,144.4-21.38c11.87-8.26,40.51-110.65,40.51-110.65Z" style="fill:#3b5bb3; fill-rule:evenodd;"/><path d="M1813.23,1420.82l-5.43,31.12-31.3-17.78s-13.72-32-31.31-74.67c16.36-4.03,33.09-7.05,49.94-10.14,9.96,41.58,18.1,71.47,18.1,71.47Z" style="fill:#fcb88d; fill-rule:evenodd;"/><path d="M1774.75,1431.79s17.58-2.01,22.28-5.08c4.7-3.08,8.67-12.02,15.23-10.64,6.59,1.37,26.61,27.09,27.4,34.11,.87,7.46-1.09,16.75-5.88,19.88-4.81,3.14-102.2,42.24-117.89,44.47-15.69,2.24-18.02-13.94-5.38-26.6,12.61-12.74,54.5-58.19,64.23-56.14Z" style="fill:#284191; fill-rule:evenodd;"/><path d="M1646.92,872.3l27.95-36.56s85.41,12.83,96.46,51.36c11.06,38.52-6.77,281.79-6.77,281.79,0,0,33.22,166.6,47.68,227.05-16.85,3.09-40.38,7.92-56.75,11.96-30.45-73.86-93.12-234.62-93.12-234.62l-27.06-221.45,11.61-79.54Z" style="fill:#4567c6; fill-rule:evenodd;"/><path d="M1373.65,804.15c18.69-.9,18.12,2.33,20.52,2.09,2.8-.17,33.04-23.53,33.04-23.53,0,0,89.42-68.17,94.1-72l55.81-102.79,58.17,13.65s-63.64,110.11-67.96,115.31c-4.28,5.1-135.77,83-147.16,90.28,0,0-10.4,13.7-17.19,22.09-6.82,8.38-16.94,13.23-19.24,15.32-.33,.25-8.3,6.73-20.19,11.9-10.26,4.6-2.6-4.42-2.6-4.42,0,0,17.51-11.88,16.35-13.09-.89-.98-10.07,6.07-21.36,11.2-2.91,1.32-5.76,2.57-8.4,3.7-6.94,3.05-10.8-.33-4.03-4.75,2.39-1.54,6.42-3.97,9.53-5.3,3.39-1.51,6.01-3.95,8.65-5.59,5.24-3.28,9.14-5.67,8.88-5.78-.34-.15,.26-1.58-2.86-.25-3.78,1.54-11,6.66-16.74,8.53-3.24,1.08-9.83,3.68-9.83,3.68,0,0-11.21,3.07-11.52,2.44-1.79-3.18,5.62-7.72,10.16-8.52,2.66-2.13,9.67-4.65,9.67-4.65,0,0,13.09-8.43,11.96-10.32-.93-1.6-36.12,12.42-37.72,9.13-1.29-2.75,9.12-7.47,9.12-7.47,0,0,6.51-2.34,8.62-3.32,2.45-1.12,9.6-5.07,9.6-5.07,0,0,24.17-14.75,22.94-16.49-1.22-1.72-6.14-4.77-7.95-4.36-1.82,.39-4.78,2.89-6.54,3.21-1.83,.4-4.53-.68-5.19-2.86-.62-2.26,7.42-7.52,7.42-7.52,0,0,6.54-4.22,11.95-4.45Z" style="fill:#ffb27d; fill-rule:evenodd;"/><path d="M1554.93,636.59l59.83,33.81s25.62-50.79,36.49-75.65c13.15-30.12,26.52-69.92,22.57-70.65-11.09-2.05-26.1-2.44-39.09,5.25-44.93,26.71-79.8,107.24-79.8,107.24Z" style="fill:#61a0e0; fill-rule:evenodd;"/><path d="M1846.76,938.84c10.43-17.08,12.79-14.61,14.05-16.89,1.51-2.65-.17-43.28-.17-43.28,0,0-4.16-120-4.61-126.48l-53.43-110.77,46.18-43.46s54.97,122.09,56.73,129.03c1.8,6.94-10.91,169.95-11.58,184.38,0,0,5.34,17.44,8.34,28.49,3.01,10.95,1.1,22.92,1.47,26.12,.06,.55,.73,11.41-1.94,25.11-2.32,11.78-5.38-.46-5.38-.46,0,0,.45-22.55-1.25-22.28-1.35,.18-.9,12.6-3.3,25.66-.61,3.29-1.26,6.67-1.86,9.68-1.54,8.04-6.74,9.31-6.4,.73,.11-3.01,.45-8.13,1.18-11.69,.79-3.83,.29-7.58,.48-10.95,.33-6.58,.67-11.42,.39-11.33-.33,.18-1.18-1.19-1.94,2.37-.93,4.29-.93,13.79-2.75,19.91-1.03,3.47-2.76,10.96-2.76,10.96,0,0-4.66,10.77-5.36,10.68-3.79-.27-2.62-8.58-.62-13.15-.17-3.56,1.89-11.33,1.89-11.33,0,0,.7-16.62-1.61-16.8-.96,0-2.59,10.14-5.67,19.91-2.89,9.04-7.22,17.71-9.05,17.35-3.07-.45-.9-10.87-.9-10.87,0,0,1.88-7.12,2.34-9.59,.52-2.82,1.49-11.5,1.49-11.5,0,0,1.94-30.32-.25-30.24-2.17,.1-7.68,2.65-8.44,4.48-.75,1.82-.41,5.93-1.17,7.77-.76,1.82-3.27,3.55-5.51,2.82-2.28-.73-1.94-11.05-1.94-11.05,0,0,.35-8.3,3.35-13.33Z" style="fill:#ffb27d; fill-rule:evenodd;"/><path d="M1396.22,821.48c-7.79,3.09-15.15,2.95-22.26-1.35,5.31,7.91,16.78,7.23,22.26,1.35Z" style="fill:#f58b67; fill-rule:evenodd;"/><path d="M1744.34,512.38s36.19,5.03,45.72,12.06c10.71,7.85,43.92,44.65,43.92,44.65,0,0-69.13,197.99-66.47,233.24,2.7,35.25,10.29,87.49,10.29,87.49,0,0-135.22,8.58-186.07-11.51,0,0,17.01-80,17.01-100.91s9.03-230.58,15.43-241.53c6.43-10.96,19.36-17.17,43.9-22.56,24.53-5.39,76.27-.92,76.27-.92Z" style="fill:#8bbae9; fill-rule:evenodd;"/><path d="M1878.89,640.05l-60.5,47.22s-26.73-25.57-40.16-53.97c-13.56-28.67-1.65-112.41,12.79-108.57,32.35,8.76,87.87,115.33,87.87,115.33Z" style="fill:#61a0e0; fill-rule:evenodd;"/><path d="M1734.11,496.85c-3.19-3.97-.14-22.68-2.32-29.29,1.16-3.53,2.35-7.99,3.58-13.38,22.54-16.04,25.43-27.59,8.64-34.68-3.31,1.95-7.34,7.83-12.1,17.62-3.97-.07-.24-10.42-2.36-14.27,4.38-16.47,.37-21.44,1.59-31.67-11.64-16.51-39.86-20.93-74.66-15.66-2.96,32.08-12.86,107.77,25.93,105.32l4.65-.98c2.09,13.1,2.52,31.46,5.84,42.81l.72,1.6c12.56-7.31,19.92-5.92,40.51-27.41Z" style="fill:#ffb27d; fill-rule:evenodd;"/><path d="M1658.26,378.11c34.8-5.27,61.22-3.45,72.86,13.06-1.21,10.23,1.63,16.49-2.74,32.95,2.12,3.85-.44,12.92,3.52,12.99,4.76-9.8,8.79-15.67,12.1-17.62,16.79,7.1,13.9,18.65-8.64,34.68-1.23,5.39-2.42,9.85-3.58,13.38,39.6-23.26,56.93-79.62,20.85-106.06-7.32-46.72-74.47-3.84-109.05-25.7-13.14,19.01,4.12,42.12,14.68,42.31Z" style="fill:#284191; fill-rule:evenodd;"/><path d="M1756.38,377.57c-3.3-4.73-3.54-8.84-.75-12.33,7.87-1.65,14.27,.23,19.2,5.64-3.73-.94-9.88,1.29-18.45,6.69Z" style="fill:#284191; fill-rule:evenodd;"/><path d="M1748.24,362.96c3.25,3.64,6.23,4.44,8.95,2.41,1.67-6.85,.68-12.87-2.97-18.07,.46,3.49-1.53,8.71-5.98,15.66Z" style="fill:#284191; fill-rule:evenodd;"/><path d="M1682.77,375.62c-.29-10.11-4.22-16.16-11.82-18.17-12.82,5.88-19.88,15.21-21.17,27.97,4.27-5.22,15.27-8.49,32.99-9.8Z" style="fill:#284191; fill-rule:evenodd;"/><path d="M1706.03,340.03c-1.55,4.3,.47,9.92-5.61,11.23-4.03,18.54-18.66-6.47-18.37-13.39,2.6,1.95,10.59,2.66,23.98,2.16Z" style="fill:#284191; fill-rule:evenodd;"/><path d="M1731.17,456.22l8.77,57.57s-32.12,68.6-51.31,62.68c-16.08-5.02-6.18-65.64-6.18-65.64,0,0,8.78-32.64,6.15-48.96-2.65-16.23,42.56-5.65,42.56-5.65Z" style="fill:#ffb27d; fill-rule:evenodd;"/><path d="M1710.18,474.99c-5.62,2.79-13.34,4.4-23.14,4.86,.21,3.32,.06,7.14-.16,9.5,9.85-1.9,17.62-6.69,23.3-14.36Z" style="fill:#f08261; fill-rule:evenodd;"/><path d="M1744.54,512.28c-10.29,22.26-20.68,39.66-29.54,50.65-9.39,11.64-18.26,17.23-26.55,16.72l-.38-.05c-7.2-1.29-10.71-10.26-12.09-21.69-2.05-16.81-.9-38.78,.45-46.89l6.1-.49c-1.3,7.81-2.18,30.47-.22,46.64,1.05,8.59,3.06,15.25,6.69,16.12,6.08,.26,13.1-4.51,21.04-14.35,8.54-10.59,19.39-26.28,29.46-48.05l5.04,1.39Z" style="fill:#61a0e0; fill-rule:evenodd;"/><path d="M1691.91,568.38c4.24,0,7.69,3.44,7.69,7.69s-3.45,7.69-7.69,7.69-7.69-3.44-7.69-7.69,3.44-7.69,7.69-7.69Z" style="fill:#61a0e0; fill-rule:evenodd;"/><path d="M1690.53,583.79c2.86,0,5.17,2.32,5.17,5.17s-2.32,5.17-5.17,5.17-5.17-2.32-5.17-5.17,2.32-5.17,5.17-5.17Z" style="fill:#61a0e0; fill-rule:evenodd;"/><path d="M1689.45,594.51c1.71,0,3.1,1.39,3.1,3.1s-1.39,3.11-3.1,3.11-3.11-1.4-3.11-3.11,1.4-3.1,3.11-3.1Z" style="fill:#61a0e0; fill-rule:evenodd;"/><path d="M1734.24,378.29c4.98,4.76,5.97,9,2.99,12.74-9.76,2.05-18.22,.38-25.38-5,4.9,.81,12.37-1.77,22.39-7.73Z" style="fill:#284191; fill-rule:evenodd;"/></g><g><g><path d="M591.46,328.14c-3.27,0-5.92,6.5-5.92,14.52s-3.13,4.94,5.92,14.51c9.06,9.57,9.38-.77,5.92-14.51-3.46-13.75-2.65-14.52-5.92-14.52Z" style="fill:#284191; fill-rule:evenodd;"/><path d="M631.78,455.57c16.39,73.1-61.79,110.67-15.01,229.48-34.71,5.39-75.51,5.94-122.42,1.65,2.62,13.16,4.66,24.9,6.18,33.73-9.79-.38-19.22-3.29-30.01,10.29l-.34-.58-.34-.59-.27-.46-.08-.14-.35-.6-.34-.62-.19-.33-.17-.29-.71-1.27-.11-.19-.61-1.1-.36-.66-.02-.05-.34-.62-.36-.67-.31-.56-.06-.12-.06-.1-.68-1.28-.22-.42-.15-.28-.37-.71-.37-.71-.14-.27-.23-.46-.38-.72-.38-.74-.05-.1-.33-.64-.38-.75-.34-.67-.04-.08-.38-.75-.38-.76-.26-.52-.13-.25-.38-.78-.39-.79-.17-.34-.22-.44-.71-1.45-.07-.13-.08-.16-.31-.64-.39-.81-.38-.79-.02-.02-.39-.82-.4-.82-.29-.6-.11-.22-.39-.83-.39-.83-.2-.42-.59-1.27-.4-.85-.11-.22-.29-.63-.4-.86-.4-.86v-.03s-.79-1.71-.79-1.71l-.32-.7-.08-.17-.4-.87-.4-.88-.23-.51-.17-.38-.4-.89-.4-.89-.13-.3-.27-.6-.4-.9-.4-.9-.04-.09-.35-.81-.4-.91-.34-.79-.06-.12-.39-.91-.4-.91-.25-.58-.15-.34-.69-1.62-.25-.59-1.09-2.56-.05-.12-1.03-2.46-.35-.84-.69-1.65-.04-.1-.02-.06c-.66-1.6-1.32-3.22-1.97-4.83l-.12-.32-.54-1.36-.51-1.26-.16-.41-.88-2.21-.44-1.13-.58-1.48-.08-.19-.65-1.67-.29-.77-.35-.91-.64-1.67v-.03s-.13-.33-.13-.33l-.83-2.2-.04-.1-.26-.7-.62-1.67-.09-.25-.96-2.61-.17-.48-.6-1.66-.17-.48-.42-1.18-.5-1.41-.09-.25-.58-1.65-.24-.68-.34-.96-.56-1.6v-.03s-.57-1.63-.57-1.63l-.3-.89-.25-.73-.54-1.62-.06-.19-.47-1.42-.36-1.09-.17-.52-.51-1.59-.12-.39-.38-1.19-.4-1.28-.09-.29-.49-1.56-.18-.59-.29-.96-.44-1.45-.02-.09-.45-1.52-.23-.78-.21-.74-.43-1.5-.04-.11-.13-.48c-.36-1.29-.71-2.57-1.05-3.82l-.08-.3-.3-1.14-.29-1.1-.08-.32-.36-1.41-.12-.48-.05-.19-.48-1.98-.03-.13-.41-1.77-.06-.23-.15-.7-.29-1.32v-.06c-.29-1.29-.55-2.55-.79-3.8l-.04-.21-.06-.29-.26-1.4-.04-.23-.06-.33-.25-1.46-.04-.21c-.18-1.13-.34-2.25-.48-3.32l-.05-.36-.17-1.49v-.52s-.02-.52-.02-.52v-.52s-.01-.52-.01-.52v-.52s-.02-.52-.02-.52l-.06-4.63v-.51s-.02-.51-.02-.51v-.51s-.01-.51-.01-.51v-.25s0-.26,0-.26v-.5s-.01-.51-.01-.51v-.5s-.01-.51-.01-.51v-.5s-.01-.5-.01-.5v-.5s-.02-.5-.02-.5v-.49s-.01-.5-.01-.5l-.02-1.98v-.49s-.01-.49-.01-.49v-.49s-.01-.49-.01-.49v-.48s0,0,0,0v-.98s-.01-.48-.01-.48v-.48s-.01-.48-.01-.48v-.48s-.01-.48-.01-.48v-.96s-.01-.48-.01-.48l-.03-2.86v-.47s0-.48,0-.48v-.48s0-.21,0-.21v-.25s0-.47,0-.47v-.47s0-.47,0-.47v-.48s-.01-.46-.01-.46h0c-1.53-183.69,12.1-162.97,108.03-183.63,5.85,16.15,40.69,27.7,50.95,27.06,7.36-3.93,11.15-15.31,17.32-25.83,29.47,6.43,58.65,23.65,74.5,37.76-13.48-23.25-24.36-46.23-32.63-68.91,3.32-10.01,7.99-14.5,17.67-19.69,100.89,92.24,130.89,154.47,112.2,166.7-32.87,11.99-108.21-8.57-130.82-29.97h0Zm-164.13,93.25c-.11,1.09-.23,2.18-.35,3.27l-.06,.48v.02s-.06,.47-.06,.47v.07s-.06,.41-.06,.41l-.02,.12-.04,.36-.02,.17-.04,.31-.03,.21-.03,.27-.04,.27-.02,.21-.04,.33-.02,.16-.05,.37-.02,.11-.05,.41v.06s-.07,.47-.07,.47h0s-.06,.48-.06,.48v.05s-.06,.43-.06,.43l-.02,.1-.05,.39-.02,.13-.04,.33-.03,.19-.04,.29-.03,.24-.04,.24-.04,.29-.03,.19-.05,.33-.02,.14-.06,.38v.09s-.08,.44-.08,.44v.04s-.08,.47-.08,.47h0s-.07,.47-.07,.47v.06s-.08,.4-.08,.4l-.02,.11-.06,.36-.03,.16-.05,.31-.04,.2-.04,.26-.04,.25-.04,.21-.05,.3-.03,.16-.06,.35-.02,.11-.07,.4v.07s-.09,.44-.09,.44v.02l-.08,.45v.04s-.09,.42-.09,.42v.08s-.08,.38-.08,.38l-.02,.13-.06,.33-.03,.17-.05,.28-.04,.23-.04,.23-.05,.27-.04,.18-.06,.32-.02,.13-.07,.36-.02,.09-.08,.41v.04s-.1,.45-.1,.45h0l-.09,.44v.06s-.09,.4-.09,.4l-.02,.1-.07,.35-.03,.15-.06,.29-.04,.2-.05,.25-.05,.24-.04,.2-.06,.29-.03,.16-.08,.33-.02,.11-.08,.37v.07s-.11,.42-.11,.42v.02s-.1,.44-.1,.44v.02s-.1,.41-.1,.41l-.02,.07-.09,.36-.02,.11-.08,.33-.04,.16-.06,.28-.05,.2-.05,.23-.06,.25-.04,.17-.07,.3-.03,.13-.08,.34-.02,.09-.1,.39v.05s-.12,.42-.12,.42c5.54,10.33,10.49,22.84,14.85,36.22,2.94-16.33-.18-39.28-9.36-68.85Z" style="fill:#8bbae9; fill-rule:evenodd;"/><path d="M616.72,684.91h.05c31.16,81.83,40.19,156.61,38.71,246.42-74.91,19.77-145.68,13.82-230.07-13.41,5.55-77.66-21.73-117.51-3.2-183.38h.55c4.69-16.04,12.1-33.62,23.33-53.66,8.42,19.58,17.18,37.52,24.42,49.83,10.79-13.58,20.22-10.67,30.01-10.29-1.52-8.84-3.56-20.57-6.18-33.73l-.04-.22c-2.9-14.57-6.5-30.89-10.83-46.95,58.99,15.26,99.22,15.65,120.68,1.14,2.84,16.16,7.02,30.92,12.56,44.25Z" style="fill:#4567c6; fill-rule:evenodd;"/><path d="M573.56,395.52c-10.26,.63-45.1-10.91-50.95-27.06,7.13-10.24,11.4-21.92,12.33-28.39-1.65-3.07-3.49-6.99-5.52-11.76-23.47-11.07-28.04-21.26-13.72-30.6,3.37,1.25,8.07,6.01,14.09,14.27,14.96-2.96,6.29-26.33,2.48-38.87,8-17.16,22.73-26.9,55.74-27.79,2.86,8.38,5.52,17.3,7.99,26.78,6.55,4.37,8.88,24.02,7.15,47.37,4.65,12.39-2.16,20.62-20.42,24.69,.57,5.97,4.33,20.76,8.14,25.54-6.17,10.52-9.95,21.9-17.32,25.83Z" style="fill:#ffb27d; fill-rule:evenodd;"/><path d="M588.01,245.31c-33.02,.89-47.74,10.63-55.74,27.79,3.81,12.55,12.48,35.91-2.48,38.87-6.02-8.26-10.72-13.02-14.09-14.27-14.32,9.34-9.75,19.53,13.72,30.6,2.03,4.77,3.87,8.68,5.52,11.76-1.72,25.93,2.87,42.61-5.81,53.32-14.63,18.04-17.87,2.71-40.81-12.45-6.33-4.18-24.1,2.78-28.21,.46,7.44-5.85,28.73-61,27.25-67.62-4.47-20-20.46-81.13,29.64-80.85-2.75-23.37,103-38.14,77.4,33.19-2.01-7.28-4.14-14.22-6.39-20.81h0Zm.7,97.23c-1.83,.59-3.82,1.13-5.98,1.61,.32,3.24,1.57,9.1,3.26,14.54,1.42,4.55,3.15,8.82,4.88,11,7.82,15.73,14.34,5.33,22.04,6.7-3.34-4.96-4.49-9-4.57-9.12-8.03-12.2-7.75-20.09-10.56-22.86-2.58-2.55-5.11-2.14-9.07-1.87Z" style="fill:#284191; fill-rule:evenodd;"/><path d="M557.54,342.27c5.98,1.3,17,2.67,25.19,1.87,.32,3.24,1.57,9.1,3.26,14.54-8.9-.69-24.11-10.64-28.45-16.41Z" style="fill:#f08261; fill-rule:evenodd;"/><path d="M665.21,1213.24c-12.02,3.09,.97,10.31-6.51,14.03-19.2-5.97-33.96-29.83-43.15-39.83-4.84-5.26-5.94,2.9-6.01,11.78-.17,19.1,4.81,43.26,10.68,49.91,2.05-6.15,1.36-23.66,2.16-34.6,20.01,11.67,19.64,29.07,30.85,32.72,24.68-2.18,37.87-4.15,56.28-7.43,.89-16.39-29.93-4.72-44.29-26.57Z" style="fill:#284191; fill-rule:evenodd;"/><path d="M374.11,1208.17c-12.12-2.66-3.79,9.64-12.15,9.58-14.43-14.01-16.81-41.96-20.5-55.03-1.94-6.88-6.6-.11-10.69,7.79-8.77,16.96-15.25,40.76-13.02,49.34,4.61-4.56,11.91-20.49,17.56-29.89,12.57,19.46,4.39,34.81,12.75,43.13,23,9.2,35.65,13.41,53.57,18.81,8.2-14.22-24.57-17.73-27.51-43.73Z" style="fill:#284191; fill-rule:evenodd;"/><path d="M665.37,407.44c7.8,14.89,17.89,26.92,30.27,36.1-19.31-10.91-37.62-28.79-54.92-53.67,9.8,5.76,18.29,11.91,24.65,17.57h0Zm-180.65,236.78c-2.15-8.04-4.72-16.89-7.72-26.56,2.94-16.33-.18-39.28-9.36-68.85,2.08-14.74,3.6-27.25,4.55-37.53,12.3,41.24,16.6,84.14,12.9,128.66-.54-.13-1.08-.28-1.63-.42,.42,1.57,.84,3.13,1.25,4.7Z" style="fill:#61a0e0; fill-rule:evenodd;"/><path d="M367.72,1163.63c-2.36,13-1.54,27.74,2.45,44.22-6.2,.81-1,9.96-8.21,9.9-13.56-13.16-16.49-38.63-19.84-52.5,1.96-2.24,3.69-4.92,5.17-8.04,60.32-146.36,40.13-169.42,93-223.14-1.2-4.28-2.35-8.46-3.46-12.57,19.55,5.94,38.39,10.7,56.75,14.21l-1.16,3.72c-24.14,57.27-77.57,131.55-124.71,224.2h0Zm249.06-478.73c1.12,2.89,2.21,5.73,3.26,8.55l-3.26-8.55h0Zm33.56,247.74c7.69,58.81-13.03,153.21-7.24,249.58,4.04,10.45,10.22,21.27,18.53,32.46-5.33,3.52,3.56,9.37-2.92,12.59-18.04-5.62-32.17-27.04-41.44-37.89,1.68-2.53,3.07-5.62,4.17-9.27-12.46-106.12-40.13-152.21-24.91-238.41,17.88-1.56,35.74-4.56,53.81-9.06Z" style="fill:#ffb27d; fill-rule:evenodd;"/><path d="M627.6,293.55c22.36-7.42,18.92,8.75,22.7,25.34-8.28,4.47-12.88,8.42-16.11,15.82-6.19-4.76-10.91-3.58-15.05-10.1-6.94-8.63-15.55-25.27-6.56-26.25,2.66,7.3,6.06,8.95,10.2,11.96-.3-3.63-.98-7.23-2.04-10.79-1.22-4.66-3.94-9.57-8.17-14.72-8.26-2.28-11.56-4.86-9.91-7.73,10.32-1.64,18.63,3.85,24.93,16.47Z" style="fill:#ffb27d; fill-rule:evenodd;"/><path d="M497.81,720.35c3.44,12.1,5.76,23.87,6.96,35.29-6.15,15.88-13.69,24.71-22.62,26.51-10.2-.87-12.14-8.69-14.55-14.22,6.07-4.7,9.62-10.31,10.66-16.81-5.51-4.39-6.91-8.97-4.2-13.74-1.09-2.7-2.09-5.14-3.03-7.3,6.81-8.27,13.08-10.05,19.26-10.17,2.51,.04,5,.28,7.52,.44Z" style="fill:#ffb27d; fill-rule:evenodd;"/><path d="M640.73,389.88c5.91,3.47,11.35,7.09,16.12,10.66,3.14,2.34,6,4.67,8.52,6.91,7.8,14.89,17.89,26.92,30.27,36.1-13.42-7.57-26.35-18.53-38.8-32.84-5.46-6.29-10.84-13.23-16.12-20.82Z" style="fill:#61a0e0; fill-rule:evenodd;"/><path d="M522.29,237.22c-6.35,1.61-10.27,.27-11.77-4.03,3.27-8.89,8.89-14.86,16.85-17.92-3.13,3.55-4.82,10.86-5.07,21.95Z" style="fill:#284191; fill-rule:evenodd;"/><path d="M514.07,238.22c-1.57,1.03-2.76-.65-3.55-5.04,.09-8.5,1.07-13.9,2.96-16.2-.53,3.22-.33,10.3,.59,21.24Z" style="fill:#284191; fill-rule:evenodd;"/><path d="M581.07,234.92c6.33,1.69,9.1,4.77,8.32,9.26-7.2,6.17-15.01,8.65-23.45,7.42,4.46-1.56,9.51-7.13,15.13-16.68Z" style="fill:#284191; fill-rule:evenodd;"/><path d="M565.77,401.06c-8.48-1.39-18.81-5.16-27.86-10.26-1.88-1.06-3.7-2.17-5.44-3.34,.71-1.89,1.19-3.92,1.52-6.1,10.82,7.55,26.24,12.71,35.19,13.9,1.01-.72,2.17-1.13,3.4-1.13,.82,0,1.61,.18,2.35,.52,6.47-4.55,10.16-15.13,15.93-24.98,1.42,2.85,2.8,4.85,4.14,6.21-.3,.63-.27,.89-.58,.89-.4,0-8.33,16.08-15.58,22.38,.47,1.22,.74,2.59,.74,4.05,0,5.01-3.14,9.07-7.02,9.07s-7.02-4.05-7.02-9.07c0-.75,.07-1.46,.2-2.15h0Zm7.26,23.45c-1.18,0-2.14,1.24-2.14,2.76s.96,2.77,2.14,2.77,2.13-1.25,2.13-2.77-.96-2.76-2.13-2.76h0Zm.17-11.54c-2,0-3.63,2.1-3.63,4.7s1.63,4.69,3.63,4.69,3.63-2.1,3.63-4.69-1.63-4.7-3.63-4.7Z" style="fill:#4f8ecc; fill-rule:evenodd;"/></g><path d="M476.89,498.83c.4-.73,1.32-1,2.06-.6,.74,.4,1,1.32,.61,2.06-3.91,7.15-5.78,15.23-5.61,24.2,.17,9.06,2.41,19.06,6.73,30,.31,.79-.08,1.66-.86,1.98-.78,.3-1.66-.08-1.97-.86-4.45-11.28-6.76-21.64-6.94-31.07-.18-9.51,1.82-18.08,5.97-25.71Z" style="fill:#61a0e0; fill-rule:evenodd;"/></g><g><g><path d="M606.44,135.99h-49.04l2.26,28.26c.31,3.93-4.52,6.02-7.17,3.1l-28.47-31.36h-246.57c-12.73,0-23.05-10.32-23.05-23.05V23.05c0-12.72,10.32-23.05,23.05-23.05h328.98c12.73,0,23.05,10.33,23.05,23.05V112.94c0,12.73-10.32,23.05-23.05,23.05Z" style="fill:#8bbae9; fill-rule:evenodd;"/><path d="M596.27,45.37h-43.99c-2.66,0-4.81-2.14-4.81-4.8s2.15-4.8,4.81-4.8h43.99c2.65,0,4.8,2.15,4.8,4.8s-2.15,4.81-4.8,4.8h0Zm-186.4,54.85h-122.05c-2.65,0-4.8-2.16-4.8-4.81s2.15-4.8,4.8-4.8h122.05c2.65,0,4.8,2.15,4.8,4.8s-2.15,4.81-4.8,4.81h0Zm138.56,0h-118.88c-2.65,0-4.8-2.16-4.8-4.81s2.15-4.8,4.8-4.8h118.88c2.65,0,4.8,2.15,4.8,4.8s-2.15,4.81-4.8,4.81h0Zm-185.04-27.43h-75.57c-2.65,0-4.8-2.15-4.8-4.81s2.15-4.79,4.8-4.79h75.57c2.66,0,4.8,2.14,4.8,4.79s-2.15,4.81-4.8,4.81h0Zm232.88,0h-211.75c-2.66,0-4.81-2.15-4.81-4.81s2.15-4.79,4.81-4.79h211.75c2.65,0,4.8,2.14,4.8,4.79s-2.15,4.81-4.8,4.81h0Zm-64.35-27.43h-244.09c-2.65,0-4.8-2.14-4.8-4.8s2.15-4.8,4.8-4.8h244.09c2.66,0,4.8,2.15,4.8,4.8s-2.15,4.81-4.8,4.8Z" style="fill:#ffe2dc; fill-rule:evenodd;"/></g><path d="M596.27,45.37h-43.99c-2.66,0-4.81-2.14-4.81-4.8s2.15-4.8,4.81-4.8h43.99c2.65,0,4.8,2.15,4.8,4.8s-2.15,4.81-4.8,4.8h0Zm-186.4,54.85h-122.05c-2.65,0-4.8-2.16-4.8-4.81s2.15-4.8,4.8-4.8h122.05c2.65,0,4.8,2.15,4.8,4.8s-2.15,4.81-4.8,4.81h0Zm138.56,0h-118.88c-2.65,0-4.8-2.16-4.8-4.81s2.15-4.8,4.8-4.8h118.88c2.65,0,4.8,2.15,4.8,4.8s-2.15,4.81-4.8,4.81h0Zm-185.04-27.43h-75.57c-2.65,0-4.8-2.15-4.8-4.81s2.15-4.79,4.8-4.79h75.57c2.66,0,4.8,2.14,4.8,4.79s-2.15,4.81-4.8,4.81h0Zm232.88,0h-211.75c-2.66,0-4.81-2.15-4.81-4.81s2.15-4.79,4.81-4.79h211.75c2.65,0,4.8,2.14,4.8,4.79s-2.15,4.81-4.8,4.81h0Zm-64.35-27.43h-244.09c-2.65,0-4.8-2.14-4.8-4.8s2.15-4.8,4.8-4.8h244.09c2.66,0,4.8,2.15,4.8,4.8s-2.15,4.81-4.8,4.8Z" style="fill:#fff; fill-rule:evenodd;"/></g></svg>