<?xml version="1.0" encoding="UTF-8"?><svg id="a" xmlns="http://www.w3.org/2000/svg" viewBox="0 0 1955.69 1472.05"><path d="M129.37,0H1557.11c69.08,0,127.67,56.63,125.59,125.59l-26.07,860.22c-2.08,68.96-56.6,125.59-125.59,125.59H155.44c-68.62,0-123.51-56.54-125.59-125.59L3.78,125.59C1.7,56.54,60.28,0,129.37,0h0Zm.02,68.6c-31.35,0-57.94,25.64-57,56.99l26.07,860.21c.93,31.35,26.2,57,57,57H1531.05c30.79,0,56.07-26.2,57-57l26.07-860.21c.93-31.26-25.65-56.99-57-56.99H129.38Z" style="fill:#bcc9e7; fill-rule:evenodd;"/><path d="M1614.12,125.59h0c0-27.43-19.64-50.49-45.55-55.82l-1.37-.26h-.02s-1.39-.23-1.39-.23h-.02s-1.4-.2-1.4-.2h-.01l-1.42-.16h0s-1.43-.13-1.43-.13h0l-1.45-.09h0l-1.46-.06-1.46-.02H129.38l-1.47,.02-1.45,.06h0l-1.45,.09h0l-1.43,.12h-.01l-1.41,.17h-.02l-1.4,.2h-.02c-27.27,4.2-48.33,27.92-48.33,56.32h0s26.07,860.21,26.07,860.21c.93,31.35,26.2,57,57,57H1531.05c30.8,0,56.08-26.2,57-57l26.07-860.21Z" style="fill:#fff; fill-rule:evenodd;"/><path d="M551.3,572.89H104.81l12.5,412.34c.62,20.63,17.07,38.71,38.14,38.71h395.85v-451.04Z" style="fill:#e9eff8; fill-rule:evenodd;"/><path d="M104.02,546.7h447.28V87.46H128.64s-.95,.03-.95,.03l-1.03,.06-.88,.07-1,.12-1.17,.16c-18.47,2.85-32.36,18.96-32.36,37.11l12.78,421.69Z" style="fill:#e9eff8; fill-rule:evenodd;"/><rect x="577.49" y="87.46" width="531.51" height="459.24" style="fill:#e9eff8;"/><rect x="577.49" y="572.89" width="531.51" height="451.04" style="fill:#e9eff8;"/><path d="M1135.19,572.89v451.04h395.85c20.82,0,37.54-18.34,38.15-38.71l12.5-412.34h-446.5Z" style="fill:#e9eff8; fill-rule:evenodd;"/><path d="M1135.19,546.7h447.3l12.77-421.11c0-18.02-12.9-33.73-30.26-37.3l-.88-.18-1-.17-.91-.14-.96-.11-.99-.1-.95-.07-.96-.05-1.25-.02h-421.93v459.24Z" style="fill:#e9eff8; fill-rule:evenodd;"/><path d="M839.81,200.48c-8.83-9.94-2.8-27.08,18.07-51.4,3.19-29.02,18.71-42.16,45.73-42.01,9.1-3.31,21.94,1.58,27.08,4.67,17.16,8.63,28,27.09,29.23,49.78,15.86,15.2,20.32,39.26,13.38,72.18,14.09,14.36,19.89,31.48,17.42,51.33-7.11-3.24-13.43-2.52-18.98,2.18,1.23,8.32-2.7,15.79-11.83,22.4-21.85,5.92-32.12-4.66-30.79-31.74,1.1-3.05,2.17-8.81,3.2-17.26,.18-18.73-2.03-35.19,9.49-49.62,4.15-17.39-4.2-31.86-1.71-51.8-12.12-3.36-23.32-12.49-33.6-27.38-10.1,13.83-22.17,24.63-36.21,32.42,1.59,10.19,1.17,23.25-1.25,39.2-2.09,11.18,2.47,22.48,13.69,33.91,8.8,13.54,2.89,25.67-17.74,36.41-10.72,3.72-20.06,9.17-28.01,16.33-3.18-5.11-8.78-10.4-16.8-15.87,.92-14.01,9.53-21.48,25.82-22.4-10.06-19.61-12.13-36.72-6.22-51.34Z" style="fill:#8d9fca; fill-rule:evenodd;"/><path d="M959.92,309.61c-15.71,4.26-25.43-.02-29.16-12.84-30.25,9.69-54.56,2.97-72.94-20.17-7.76,3.47-14.69,7.97-20.82,13.48-3.18-5.11-8.78-10.4-16.8-15.87-13.07-.39-25.32-.81-36.72-1.25-6.09,23-12.41,42.9-18.99,59.73,40.11,8.05,63.55,22.46,70.31,43.24,.38,57.35,7.22,87.43,20.53,90.22,41.83,8.87,80.2,6.8,115.1-6.22,6.2-11.21,8.28-29.05,6.22-53.51,17.41,1.67,35.05,3.33,52.89,4.97-7.67-86.66-2.87-121.76-38.82-126.38-7.11-3.24-13.43-2.52-18.98,2.18,1.23,8.32-2.7,15.79-11.83,22.4Z" style="fill:#bcc9e7; fill-rule:evenodd;"/><path d="M1026.11,546.7c-2.89-53.16-7.99-94.28-15.27-123.34v-13.69c-11.44-1.07-22.79-2.14-34.06-3.23,1.18,11.73,2.53,22.51,4.04,32.33,4.16,36.01,14.29,64.15,23.4,107.94h21.89Z" style="fill:#d0d9ee; fill-rule:evenodd;"/><path d="M991.13,546.7c-4.91-34.28-11.81-63.21-20.7-86.76-34.9,13.02-73.27,15.09-115.1,6.22-1.36-.29-2.65-.85-3.88-1.71-13.21,19.77-23.54,47.19-31.01,82.25h170.69Z" style="fill:#aab9de; fill-rule:evenodd;"/><path d="M781.82,279.11c-14.84-7.24-31.85-15.37-51.01-24.38-9.28-18.65-37.8-54.32-85.56-107.02,5-13.97,4.99-26.1,0-36.4-4.78,2.9-6.55,9.54-5.29,19.91-2.2,.38-9.98-29.18-12.18-29-8.87,.76-28.8,4.88-21.26,27.75,3.2,10.66,11.34,19.84,20.37,25.04,39.5,61.17,57.07,101.2,76.37,115.11,22.54,22.37,44.36,39.45,65.46,51.25,4.49-12.6,8.86-26.7,13.11-42.28Z" style="fill:#d0d9ee; fill-rule:evenodd;"/><path d="M932.34,260.61c.18-18.73-2.03-35.19,9.49-49.62,4.15-17.39-4.2-31.86-1.71-51.8-12.12-3.36-23.32-12.49-33.6-27.38-10.1,13.83-22.17,24.63-36.21,32.42,1.59,10.19,1.17,23.25-1.25,39.2-2.09,11.18,2.47,22.48,13.69,33.91,8.8,13.54,2.89,25.67-17.74,36.41-2.47,.86-4.86,1.8-7.19,2.85,18.38,23.14,42.69,29.86,72.94,20.17-1.46-5-2-11.3-1.63-18.9,1.1-3.05,2.17-8.81,3.2-17.26Z" style="fill:#d0d9ee; fill-rule:evenodd;"/><path d="M934.18,226.51c-15.52,18.7-29.81,23.17-42.87,13.4,6.97,9.84,16.81,12.64,29.55,8.4,5.58,1.43,9.16,7.37,10.74,17.82,.24-1.7,.49-3.53,.74-5.52,.11-12.32-.79-23.67,1.85-34.1Z" style="fill:#bcc9e7; fill-rule:evenodd;"/><path d="M842.53,373.3c-3.84-16.57-29.13-32.01-75.85-46.33-.73,1.95-1.45,3.86-2.18,5.73,40.11,8.05,63.55,22.46,70.31,43.24,.34,51.49,5.89,80.99,16.66,88.51,1.22,.86,2.51,1.43,3.88,1.71,1.94,.41,3.87,.8,5.79,1.16-14.85-12.11-21.05-43.46-18.59-94.03h0Zm134.13,33.13c-2.19-28.82-6.09-47.2-1.43-72.41-16.53,45.24,7.29,97.33-19.39,130.67,4.94-1.37,9.8-2.96,14.6-4.75,6.2-11.21,8.28-29.05,6.22-53.51Z" style="fill:#aab9de; fill-rule:evenodd;"/><path d="M545.14,474.72h-215.95c-4.26,0-8.64,3.48-9.77,7.74l-16.87,64.24h231.42l16.87-64.24c1.12-4.26-1.45-7.74-5.71-7.74Z" style="fill:#d0d9ee; fill-rule:evenodd;"/><path d="M314.81,478.94l-17.79,67.76h-62.55c-17.39-11.53-35.68-24.85-54.38-39.71-1.06-14.16-2.38-25.46-3.95-33.88,3.17-6.3,6.65-13.03,10.44-20.2-36.53-.23-58.8-8.08-66.82-23.56,9.77-28.59,23.43-57.78,40.97-87.58,12.27-18.15,36.31-28.82,72.1-32.01,4.18,48.01,77.81,45.55,60.5,4.23,26.71,7.17,49.34,20.41,67.88,39.74,15.96,39.31,25.68,66.74,29.19,82.3-17.33,12.13-33.74,19.99-49.24,23.57-.7,3.4-1.26,7.26-1.66,11.6h-14.91c-4.25,0-8.64,3.48-9.77,7.74Z" style="fill:#bcc9e7; fill-rule:evenodd;"/><path d="M297.02,546.7l17.79-67.76c1.13-4.26,5.52-7.74,9.77-7.74h215.95c4.26,0,11.84,5.5,10.57,9.72,.2-3.52-2.23-6.2-5.96-6.2h-215.95c-4.26,0-8.64,3.48-9.77,7.74l-16.87,64.24h-5.54Z" style="fill:#8d9fca; fill-rule:evenodd;"/><path d="M316.94,534.89c10.96,5.55,22.87,9.27,35.37,11.82h-38.47l3.1-11.82Z" style="fill:#aab9de; fill-rule:evenodd;"/><path d="M418.15,541.6c-4.36,0-8.56,1.99-11.62,5.1h21.62c-2.08-3.11-5.65-5.1-10-5.1Z" style="fill:#aab9de; fill-rule:evenodd;"/><path d="M147.5,546.7c-13.37-6.26-26.12-13.21-38.84-21.63,.92-28.48,5.16-56.03,16.95-87.97,10.83,10.35,31.15,15.62,60.97,15.81-8.63,16.32-15.66,30.39-21.1,42.21,23.78,19.71,47.09,37.06,68.99,51.58h-86.97Z" style="fill:#d0d9ee; fill-rule:evenodd;"/><path d="M384.8,439.83c3.24,11.32,6.23,21.78,9,31.38h-54.31c.41-4.33,.96-8.2,1.66-11.6,13.83-3.19,28.38-9.78,43.65-19.78Z" style="fill:#d0d9ee; fill-rule:evenodd;"/><path d="M232.88,310.26c5.72-7.28,10.77-14.04,12.24-18.85-1.15-3.29-2.37-7.44-3.63-12.46-21.43-14.56-24.36-25.33-8.78-32.31,3.14,1.76,7.03,7.18,11.69,16.26,3.72-.14,6.54-2.05,8.46-5.69-4.43-15.33-7.31-27.78-8.64-37.34,10.56-15.7,35.26-17.94,67.97-13.7,1.51,8.71,2.75,17.92,3.72,27.66,5.79,5.32,5.04,25.08-.29,47.84,2.67,12.94-5.32,20.01-23.96,21.19-.28,4.59,1.53,10.45,1.67,11.14h0s.03,.09,.06,.15c17.01,41.02-55.85,43.54-60.5-3.88Z" style="fill:#d0d9ee; fill-rule:evenodd;"/><path d="M312.18,206.16c-32.71-4.24-57.42-2-67.97,13.7,1.33,9.57,4.21,22.02,8.64,37.34-1.92,3.65-4.74,5.55-8.46,5.69-4.66-9.08-8.55-14.5-11.69-16.26-15.58,6.99-12.65,17.76,8.78,32.32,1.26,5.02,2.48,9.17,3.63,12.46-19.28-4.32-35.42-21.57-37.69-29.03-22.5-44.33,2.59-63.06,16.01-69.88,5.93-43.91,69.68-5.1,101.63-26.26,12.7,17.54-3,39.54-12.9,39.93Z" style="fill:#8d9fca; fill-rule:evenodd;"/><path d="M267.41,302.29c9.03,.73,17.1,.92,24.24,.57-.19,3.16,.61,6.92,1.17,9.18-11.56-.3-20.03-3.55-25.41-9.75Z" style="fill:#bcc9e7; fill-rule:evenodd;"/><path d="M186.57,452.91c4.8-8.68,9.87-20.35,15.22-35.01-2.87,17.07-2.73,29.38-7.37,43.41,3.76,19.86,5.3,40.12,4.93,60.55-6.36-4.77-12.79-9.73-19.26-14.88-1.06-14.16-2.38-25.46-3.95-33.88,3.17-6.3,6.65-13.03,10.44-20.2h0Zm165.75,3.43c-3.77,1.33-7.49,2.42-11.17,3.26,1.4-21.74,2.31-39.7,2.74-53.89,4.18,20.96,7,37.84,8.43,50.63Z" style="fill:#aab9de; fill-rule:evenodd;"/><path d="M880.12,805.33c-3.71-5.9-7.08-10.14-10.11-12.71,14.39-7.81,22.36-16.37,23.93-25.7,2.1,1.85,3.88,4.09,5.33,6.69-5.35,12.75-11.73,23.33-19.16,31.73Z" style="fill:#aab9de; fill-rule:evenodd;"/><path d="M859.89,805.33c3.71-5.9,7.07-10.14,10.12-12.71-14.39-7.81-22.37-16.37-23.94-25.7-2.1,1.85-3.88,4.09-5.33,6.69,5.35,12.75,11.73,23.33,19.15,31.73Z" style="fill:#aab9de; fill-rule:evenodd;"/><path d="M987.06,817.64c-15.53-21.47-44.79-36.14-87.78-44.03-5.35,12.75-11.73,23.33-19.16,31.73-3.71-5.9-7.08-10.14-10.11-12.71-3.04,2.57-6.4,6.82-10.12,12.71-7.42-8.4-13.8-18.98-19.15-31.73-43,7.89-72.27,22.57-87.78,44.03-11.88,34.74-19.71,62.28-23.51,82.6,12.59,2.7,27.09,5.88,43.49,9.57-2.2,39.21-2.77,72.69-1.7,100.46,11.39,3.32,25.03,7.92,40.55,13.67h116.44c15.52-5.75,29.17-10.35,40.55-13.67,1.06-27.77,.49-61.25-1.71-100.46,16.4-3.68,30.9-6.87,43.5-9.57-3.81-20.31-11.64-47.85-23.51-82.6Z" style="fill:#bcc9e7; fill-rule:evenodd;"/><path d="M960.2,844.16c3.04,19.64,5.33,41.53,6.87,65.64,2.08-.46,4.12-.93,6.13-1.37-2.67-14.93-7.01-36.36-13.01-64.27Z" style="fill:#aab9de; fill-rule:evenodd;"/><path d="M779.82,844.16c-3.04,19.64-5.34,41.53-6.88,65.64-2.08-.46-4.13-.93-6.14-1.37,2.67-14.93,7.02-36.36,13.02-64.27Z" style="fill:#aab9de; fill-rule:evenodd;"/><path d="M677.63,1023.94c-.21-22.41,17.03-41.23,37.64-39.81,21.52,4.16,31.65,10.3,41.85,22.43,13.48,3.08,32.09,9.02,54.67,17.38h-134.16Z" style="fill:#bcc9e7; fill-rule:evenodd;"/><path d="M1006.74,965.69c2.53-20.7,1.9-42.11-1.89-64.23-9.55,2.07-20.09,4.39-31.64,6.97-2.02,.44-4.06,.91-6.13,1.37,2.13,37.98,2.73,70.6,1.8,97.85,18.81-15.16,31.43-29.13,37.86-41.96Z" style="fill:#d0d9ee; fill-rule:evenodd;"/><path d="M733.28,965.69c-2.54-20.7-1.91-42.11,1.9-64.23,9.54,2.07,20.09,4.39,31.63,6.97,2.01,.44,4.06,.91,6.14,1.37-2.13,37.98-2.72,70.6-1.8,97.85-18.81-15.16-31.43-29.13-37.86-41.96Z" style="fill:#d0d9ee; fill-rule:evenodd;"/><path d="M978.02,960.23c-.18-14.84-.72-32.34-1.62-52.52-1.06,.24-2.12,.48-3.19,.72-2.02,.44-4.06,.91-6.13,1.37,1.31,23.42,2.04,44.8,2.2,64.13,1.72-2,3.71-4.34,6-7,6.52-2.77,13.03-4.14,19.56-4.11-7.49-2.32-13.1-3.19-16.81-2.59h0Zm-216.02,0c.18-14.84,.71-32.34,1.62-52.52,1.06,.24,2.12,.48,3.19,.72,2.01,.44,4.06,.91,6.14,1.37-1.31,23.42-2.05,44.8-2.2,64.13-1.72-2-3.71-4.34-6-7-6.52-2.77-13.03-4.14-19.56-4.11,7.5-2.32,13.1-3.19,16.81-2.59Z" style="fill:#bcc9e7; fill-rule:evenodd;"/><path d="M774.07,920.49h191.87c1.83,0,3.34,1.5,3.34,3.34v86.3c-11.49,3.33-25.31,7.98-41.05,13.81h-116.46c-15.74-5.83-29.55-10.48-41.05-13.81v-86.3c0-1.83,1.5-3.34,3.34-3.34Z" style="fill:#aab9de; fill-rule:evenodd;"/><path d="M779.66,1012.83c9.5,2.99,20.27,6.71,32.13,11.11h116.44c11.86-4.39,22.62-8.11,32.12-11.11v-71.28c-12.6,15.99-37.69,29.18-69.81,37.09,.18,1.05,.25,2.12,.25,3.22,0,11.48-9.3,20.78-20.78,20.78-10.29,0-18.82-7.46-20.49-17.26-9.24,.83-18.78,1.26-28.55,1.26-14.34,0-28.2-.94-41.32-2.7v28.89Z" style="fill:#8d9fca; fill-rule:evenodd;"/><path d="M849.95,669.74c12.94,18,33.47,33.81,61.59,47.45-7.03,21.07-17.65,41.64-40.85,45.48-22.23-3.57-34.53-19.64-39.55-42.47,11.94-13.31,18.22-30.12,18.81-50.45Z" style="fill:#d0d9ee; fill-rule:evenodd;"/><path d="M934.26,681.17c0-35.5-29.05-64.54-64.54-64.54s-64.55,29.04-64.55,64.54v101.57c10.58-3.67,22.43-6.72,35.57-9.13,1.45-2.6,3.22-4.84,5.33-6.69,1.57,9.33,9.55,17.9,23.94,25.7,14.39-7.81,22.36-16.37,23.93-25.7,2.1,1.85,3.88,4.09,5.33,6.69,12.9,2.37,24.56,5.35,34.99,8.94v-101.38h0Zm-84.31-11.42c12.94,18,33.47,33.81,61.59,47.45-7.03,21.07-17.65,41.64-40.85,45.48-22.23-3.57-34.53-19.64-39.55-42.47,11.94-13.31,18.22-30.12,18.81-50.45Z" style="fill:#8d9fca; fill-rule:evenodd;"/><path d="M893.94,766.92c-1.62-2.54-2.75-7.03-3.41-13.49-5.37,4.62-11.86,7.92-19.84,9.24-9.33-1.5-16.9-5.2-22.92-10.67-.2,5.92-.77,10.89-1.7,14.92,1.57,9.33,9.55,17.9,23.94,25.7,14.39-7.81,22.36-16.37,23.93-25.7Z" style="fill:#d0d9ee; fill-rule:evenodd;"/><path d="M891.18,758.31c-.24-1.48-.47-3.1-.65-4.88-5.37,4.62-11.86,7.92-19.84,9.24-9.33-1.5-16.9-5.2-22.92-10.67-.07,2.1-.19,4.08-.36,5.95,5.55,3.77,13.38,6.99,23.48,9.64,6.4-1.72,13.15-4.11,20.29-9.28Z" style="fill:#bcc9e7; fill-rule:evenodd;"/><path d="M805.17,736.47h29.16v86.41h-36.26c6.79-27.91,9.43-56.67,7.11-86.41Z" style="fill:#8d9fca; fill-rule:evenodd;"/><path d="M905.11,736.47h29.16c-2,28.7,1.82,57.55,6.62,86.41h-35.78v-86.41Z" style="fill:#8d9fca; fill-rule:evenodd;"/><path d="M870.01,968.41c7.42,0,13.44,6.03,13.44,13.45s-6.02,13.44-13.44,13.44-13.45-6.02-13.45-13.44,6.02-13.45,13.45-13.45Z" style="fill:#8d9fca; fill-rule:evenodd;"/><path d="M1062.39,1023.94c.21-22.41-17.03-41.23-37.65-39.81-21.51,4.16-31.65,10.3-41.84,22.43-13.48,3.08-32.08,9.02-54.66,17.38h134.15Z" style="fill:#bcc9e7; fill-rule:evenodd;"/><path d="M1497.64,269.97c-5.58,.4-14.37-.67-15.93-2.65-5.93-7.54-10.04-15.39-11.56-20.35,1.15-3.3,2.37-7.46,3.63-12.49,21.49-14.6,24.43-25.39,8.81-32.4-3.14,1.77-7.05,7.2-11.71,16.3-3.72-.15-6.55-2.06-8.48-5.71,4.45-15.37,7.33-27.85,8.66-37.44-10.58-15.73-35.35-17.98-68.14-13.73-1.52,8.73-2.77,17.97-3.74,27.73-5.8,5.34-5.05,25.14,.29,47.96-2.67,12.98,5.35,20.06,24.04,21.25,.26,4.61-.16,10.25-.46,10.89-.47,1-2.13,1.96-4.43,2.78h0c-.63,21.42,25.71,20.71,79.02-2.14Z" style="fill:#d0d9ee; fill-rule:evenodd;"/><path d="M1402.92,161.51c32.78-4.25,57.56-2,68.14,13.73-1.34,9.59-4.22,22.07-8.66,37.44,1.92,3.66,4.75,5.57,8.48,5.71,4.66-9.1,8.57-14.54,11.72-16.3,15.61,7,12.68,17.8-8.81,32.4-1.26,5.03-2.48,9.19-3.63,12.49,19.33-4.33,35.51-21.62,37.78-29.1,22.56-44.45-2.6-63.22-16.06-70.07-5.94-44.02-69.86-5.11-101.88-26.33-12.73,17.58,3,39.64,12.93,40.03Z" style="fill:#8d9fca; fill-rule:evenodd;"/><path d="M1206.15,347.95c16.23,69.47,44.74,123.39,85.51,161.75,14.7-4.46,27.74-14.5,39.11-30.13-.27,22.43-.17,44.81,.3,67.14h146.21c-4.35-44.33,6.39-96.13,32.25-155.43,8.21,36.93,17.09,73.28,26.63,109.04-8.17,3.88-19.79,19.34-34.86,46.38h64.22c6.65-8.78,12.58-17.6,17.78-26.43l2.67-88.09c-6.08-49.14-15.06-90.04-26.94-122.71-8.71-13.39-29.17-26.56-61.37-39.5-53.32,22.85-79.66,23.56-79.02,2.14-15.68,5.14-36.48,14.25-62.41,27.32-21.6,16.41-40.01,60.91-55.21,133.49-24.74-30.99-50.4-63.85-76.99-98.58-5.91,1.68-11.87,6.21-17.87,13.61Z" style="fill:#bcc9e7; fill-rule:evenodd;"/><path d="M1330.77,479.56c1.63-48.8,5.55-88.82,11.74-120.04-15.79,66.29-31.09,110.28-45.9,131.98-9.35-.29-21.21-5.84-35.56-16.64,9.29,12.77,19.49,24.38,30.61,34.83,14.7-4.46,27.74-14.5,39.11-30.13Z" style="fill:#aab9de; fill-rule:evenodd;"/><path d="M1477.28,546.7c-4.35-44.33,6.39-96.13,32.25-155.43-34.77,49.42-51.28,101.23-49.57,155.43h17.33Z" style="fill:#aab9de; fill-rule:evenodd;"/><path d="M1445.06,253.92c-5.25,2.59-12.43,4.1-21.55,4.52,.17,3.09,.04,6.64-.16,8.85,9.18-1.77,16.41-6.22,21.7-13.37Z" style="fill:#bcc9e7; fill-rule:evenodd;"/><path d="M1206.15,347.95c-.99-2.48-5-10.19-8.93-19.86-9.74-5-17.52-15.94-23.33-32.8,3.48-11.32,10.84-18.39,22.05-21.22,3.79,13.99,9.45,24.25,16.96,30.83-1.85-14.59,.55-19.16,7.21-13.72-.91,1.86-.96,4.22-.14,7.07,4.51,7.38,4.11,15.77-1.21,25.19,2.03,4.26,4.25,8.56,5.25,10.89-6.06,1.95-11.72,6.18-17.87,13.61Z" style="fill:#d0d9ee; fill-rule:evenodd;"/><path d="M1218.4,248.05l-38.37-8.72c-3.89-.88-7.79,1.57-8.67,5.46l-18.35,80.77c-.88,3.89,1.57,7.79,5.46,8.67l38.37,8.72c3.89,.88,7.79-1.57,8.67-5.46l18.35-80.77c.88-3.89-1.57-7.79-5.46-8.67Z" style="fill:#8d9fca; fill-rule:evenodd;"/><path d="M1212.91,304.9c-4.67-11.27,.55-19.16,7.22-13.72-.91,1.86-.96,4.22-.14,7.08,2.86,4.67,3.74,9.75,2.66,15.24l-9.74-8.6Z" style="fill:#d0d9ee; fill-rule:evenodd;"/><path d="M1441.66,745.38c6.65-33.3-8.7-66.3-37.99-78.7,.19-18.93-7.12-37.94-19.76-50.9-24.9-25.59-71.13-39.56-89.46-6.94-24.21,14.01-43.23,44.39-36.02,72.07-23.46,24.87-14.56,69.89,19.64,91.15-.54,27.93,13.88,55.65,37.71,67.58,5.71,2.89,14.67,6.87,15.79,8.11-1.48-1.45,17.67,53.15,77.14,28.17,60.69-25.5,72.48-97.28,32.95-130.55Z" style="fill:#8d9fca; fill-rule:evenodd;"/><path d="M1385.93,891.01c3.4-2.84,49.74-43.09,70.4-61.04,0,0-20.63-15.47-33.4,7.08-12.76,22.53-37,53.96-37,53.96Z" style="fill:#133261; fill-rule:evenodd;"/><path d="M1312.58,893.96s5.04,17.57,29.67,48.27c28.5-.41-29.67-48.27-29.67-48.27Z" style="fill:#133261; fill-rule:evenodd;"/><path d="M1301.58,1023.94c-24.52-23.46-47.67-34.49-47.67-34.49,0,0-3.12,13.13-7.96,34.49h55.63Z" style="fill:#f29a3a; fill-rule:evenodd;"/><path d="M1301.58,1023.94c-24.52-23.46-47.67-34.49-47.67-34.49,0,0-3.12,13.13-7.96,34.49h55.63Z" style="fill:#ea7e08; fill-rule:evenodd;"/><path d="M1262.75,1023.94c10.32-27.64,18.37-50.7,17.18-52.34-1.9-2.66-5.62-82.88-8.16-143.17-1.54-36.67-2.66-65.98-2.66-65.98,0,0-25.95,9.25-32.16,72.4-1.21,12.21-1.91,23.66-2.35,34.37-1.71,44.81,1.55,76.39-5.14,91.32-4.38,9.75-5.62,37.8-6.19,63.4h39.49Z" style="fill:#d0d9ee; fill-rule:evenodd;"/><path d="M1271.03,1023.94l4.41-16.27c32.87,14.23,129.6-6.58,129.6-6.58,0,0,6.4,7.59,11.61,22.85h-145.62Z" style="fill:#f29a3a; fill-rule:evenodd;"/><path d="M1420.82,1023.94c-5.16-31.86-33.83-85.28-32.53-91.49,3.21-15.36,10.76-32.36,18.15-47.66,7.41-15.29,14.67-28.88,17.27-37.39-2.39-3.32-4.72-6.45-6.88-9.38-3.29-4.51-6.15-8.66-7.99-12.55-2.03-4.22-2.9-8.18-1.93-11.96,.74-2.88,1.76-5.76,3-8.58,.57-1.31,1.18-2.63,1.83-3.92,6.83-13.69,17.04-24.83,17.04-24.83-16.15-10.34-41.61-15.61-41.84-14.85-1.9-.63-3.57-1.08-4.92-1.41-.93-.25-1.88-.48-2.84-.68-3.19-.78-6.42-1.43-9.21-1.95-5.78-5.82-12.73-27.39-10.63-59.15l-2.82,.36-47.05,6.35s.15,14.72-.64,28.5c-.65,10.78-1.89,21-4.25,23.23-3.66,.29-5.86,.5-5.86,.5l-.02,.04-.06,.1c-2.65,.21-5.1,.44-7.33,.69,0,0-.17,.02-.53,.05-4.14,.48-7.58,.99-10.37,1.5l-.56,.11c-8.04,1.48-10.76,2.86-10.76,2.86v.14c.39,14.83-23.52,40.77-21.87,74.3,.08,1.26,12.26,89.16,12.19,90.45-.98,25.05-13.25,95.54-13.25,95.54-.18,.36-.31,.71-.39,1.05h175.04Z" style="fill:#d0d9ee; fill-rule:evenodd;"/><path d="M1309.48,704.89s.15,14.7-.66,28.47c26.07,.86,41.27-22.01,47.71-34.82l-47.05,6.35Z" style="fill:#bcc9e7; fill-rule:evenodd;"/><path d="M1299.99,717.43s61.47,4.78,63.89-33.57c2.38-38.34,11.93-63.55-27.23-68.22-39.16-4.67-47.71,9.49-51.62,22.08-3.92,12.61-1,77.48,14.96,79.71Z" style="fill:#d0d9ee; fill-rule:evenodd;"/><path d="M1288.17,616.5c10.21-10.93,17.24-7.96,21.08-4.23,34.76-16.45,54.77,12.23,54.77,12.23,2.42,27.76,21.31,44.73,21.31,44.73,0,0-11.65,6.24-37.1-2-7.78-2.52-14.47-8.55-20.05-15.74,9.4,18.2,22.87,31.72,22.87,31.72-30.05-16.18-39.8-59.92-40.78-64.53-3.95,3.13-11.82,10-14.52,17.06-3.65,9.58-6.25,29.59-12.09,28.54,0,0-10.82-31.36,4.51-47.78Z" style="fill:#8d9fca; fill-rule:evenodd;"/><path d="M1259.42,927.37c.03-.73-3.74-28.36-7.08-52.88-7.39-.81-16.33-2.55-24.07-6.17,.42-10.71,7.56-102.28,46.04-107.45,1.83-.5,3.74-.9,5.56-1.27,.17-.02,.36-.07,.56-.11,4.72-.89,8.92-1.34,10.37-1.48,.35-.05,.53-.07,.53-.07,0,0-11.48,32.6-11.25,36.42,.23,3.83,37.1,5.11,61.32,5.42,24.05,.32,37.6-39.9,37.8-40.52,.96,.2,1.92,.43,2.84,.68,1.35,.34,33.5,5.25,46.76,16.29,0,0-10.21,11.12-17.04,24.8-.66,1.29-1.26,2.6-1.83,3.94-1.23,2.8-2.25,5.68-3,8.56-.98,3.78-.11,7.74,1.93,11.96,1.83,3.88,4.7,8.04,7.99,12.55,2.16,2.93,4.49,6.06,6.88,9.38-.89,2.92-2.34,6.46-4.13,10.44v.02c-3.47,7.6-8.27,16.91-13.13,26.93-7.39,15.3-14.95,32.33-18.15,47.69-1.3,6.19,27.37,59.6,32.53,91.46h-175.03c.08-.34,.19-.69,.38-1.05,0,0,12.28-70.49,13.25-95.52Z" style="fill:#bcc9e7; fill-rule:evenodd;"/><path d="M1420.82,1023.94c-5.16-31.86-33.83-85.27-32.53-91.46,3.21-15.36,10.76-32.39,18.15-47.69,4.86-10.02,9.66-19.33,13.13-26.93v-.02c-1.92-7.49-3.02-11.85-3.02-11.85,0,0-48.82,56.77-60.03,83.56-6.63,15.86,3.44,60.56,12.77,94.39h51.52Z" style="fill:#aab9de; fill-rule:evenodd;"/><path d="M1400.74,1013.58l5.96,10.35h18.02c53.78-26.64,87.31-73.61,87.31-73.61,2.18-31.46-12.54-67.63-30.17-98.85-2.93-5.16-5.92-10.19-8.94-15.04-12.48,10.66-29.9,24.61-46.49,34.74,2.59,4.27,5.67,9.4,9.01,14.87,13.75,22.68,31.56,51.75,33.87,54.07,3.81,3.83-68.56,73.46-68.56,73.46Z" style="fill:#d0d9ee; fill-rule:evenodd;"/><path d="M1432.88,892.86c30.58-2.02,53.1-41.79,53.1-41.79-23.86-42.17-57.19-74.88-57.19-74.88-84.74,32.35-9.73,107.54,4.09,116.66Z" style="fill:#aab9de; fill-rule:evenodd;"/><path d="M1400.74,1013.58s-5.21-.75-8.64-3.72c-3.41-2.97-14.25-11.39-14.87-8.78-.65,2.6,7.86,6.65,3.39,7.27-4.48,.65-11.48-2.35-18.5-1.26-5.73,.87-13.99,11.84-15.01,16.84h14c2.17-.46,4.02-.63,5.06,0h50.36c-.59-5.76-15.8-10.35-15.8-10.35Z" style="fill:#d0d9ee; fill-rule:evenodd;"/><path d="M551.3,1000.21c-18.59-14.21-35.46-27.14-37.39-28.71l-53.1-97.81-55.35,12.99s60.56,104.79,64.67,109.73c1.53,1.82,20.11,13.4,43.31,27.53h37.85v-23.73Z" style="fill:#d0d9ee; fill-rule:evenodd;"/><path d="M481.93,900.99l-56.95,32.18s-24.38-48.34-34.71-71.99c-12.52-28.67-25.24-66.54-21.48-67.23,10.55-1.96,24.84-2.32,37.2,4.99,42.77,25.42,75.95,102.06,75.95,102.06Z" style="fill:#aab9de; fill-rule:evenodd;"/><path d="M194.83,1023.94c.27-7.04,.47-11.82,.54-12.95l50.84-105.41-43.94-41.36s-52.31,116.18-53.99,122.79c-.5,1.93,.18,16.49,1.4,36.48,1.88,.31,3.8,.46,5.77,.46h39.38Z" style="fill:#d0d9ee; fill-rule:evenodd;"/><path d="M301.68,782.79s-34.44,4.78-43.51,11.47c-10.19,7.47-41.8,42.49-41.8,42.49,0,0,42.62,122.08,57.92,187.19h156.18c-1.45-46.96-8.95-209.43-14.44-218.82-6.12-10.43-18.42-16.34-41.77-21.46-23.34-5.13-72.58-.88-72.58-.88Z" style="fill:#bcc9e7; fill-rule:evenodd;"/><path d="M311.07,729l-8.51,55.79s31.13,66.48,49.72,60.74c15.58-4.86,5.99-63.62,5.99-63.62,0,0-8.51-31.63-5.97-47.45,2.57-15.73-41.24-5.47-41.24-5.47Z" style="fill:#d0d9ee; fill-rule:evenodd;"/><path d="M352.31,734.47c2.57-15.73-41.24-5.47-41.24-5.47l-.69,4.6c1.28,3.13,2.83,5.83,4.76,7.82,9.76,10.43,25.07,16.78,38.27,17.21-1.31-8.52-2.13-17.64-1.1-24.16Z" style="fill:#bcc9e7; fill-rule:evenodd;"/><path d="M303.9,650.09c-1.23-.44-9.92,63.52,6.55,81.16,16.48,17.56,48.57,23.38,60.09,9.48,5.68-6.84,17.06-26.09,9.07-47.78-8.1-21.99-8.43-44.46-22.6-54.51-25.6-18.08-53.11,11.65-53.11,11.65Z" style="fill:#d0d9ee; fill-rule:evenodd;"/><path d="M355.7,584.26c-23.96,49.2-49.91,42.22-54.61,47.35-37.84,4.37-61.2,67.75-22.95,97.03,18.09,13.9,29.75,21.21,29.75,21.21l2.88-8.43c2.12-6.26,2.97-12.95,2.28-19.55-.43-3.91-1.28-8.17-2.94-11.73-4.33-9.21,9.33-15.38,13.19-23.12,2.94-5.91,3.07-19.55,7.73-29.28l5.56-7.56s12.81-9.91,25.35-7.04c12.54,2.79,20.95-29.43-6.24-58.87Z" style="fill:#8d9fca; fill-rule:evenodd;"/><path d="M322.43,698.41c.13,7.82-3.45,14.25-7.96,14.25-4.55,.09-8.34-6.17-8.46-13.99-.13-7.82,3.42-14.17,7.98-14.25,4.55-.08,8.31,6.17,8.44,13.99Z" style="fill:#d0d9ee; fill-rule:evenodd;"/><path d="M173.63,904.27l57.58,44.93s25.43-24.33,38.22-51.36c12.91-27.29,1.58-106.98-12.18-103.33-30.78,8.34-83.63,109.75-83.63,109.75Z" style="fill:#aab9de; fill-rule:evenodd;"/><rect x="704.32" y="1111.4" width="280.82" height="174.39" style="fill:#aab9de;"/><path d="M985.15,1285.8h151.06c7.57,0,11.93,6.5,13.74,13.72l16.76,67.17c1.8,7.26-6.27,13.74-13.74,13.74H536.5c-7.46,0-15.55-6.41-13.72-13.74l16.75-67.17c1.82-7.33,6.19-13.72,13.74-13.72h431.87Z" style="fill:#bcc9e7; fill-rule:evenodd;"/><path d="M977.85,1396.11c540.05,0,977.85,16.99,977.85,37.96s-437.8,37.97-977.85,37.97S0,1455.05,0,1434.07s437.79-37.96,977.85-37.96Z" style="fill:#d0d9ee; fill-rule:evenodd;"/><path d="M252.49,781.74c9.03-10.51,9.11-25.49,.25-44.95-9.2,4.67-12.33,11.7-17.31,21.14-54.26-17.43-40.54-72.17-18-72.81-55.17-10.49-88.51-4.51-113.7,24.79-8.49,27.04,1.62,90.59,8.11,114.56,6.87,27.68,16.18,43.16,9.88,84.65,29.32,21.1,37.57,43.03,115.41,19.66-1.74-23.94-7.62-29.77-7.31-86.78-1.99-18.79,12.69-40.88,22.66-60.27Z" style="fill:#6998d0; fill-rule:evenodd;"/><path d="M237.13,928.78c-53.37,5.13-77.59-7.69-115.41-19.66-49.73,73.75-6.84,111.79-28.22,208.6,35.28,35.4,88,41.67,158.17,18.81,1.65-57.18-4.33-141.25-14.54-207.75Z" style="fill:#1d2a53; fill-rule:evenodd;"/><path d="M122.23,1138.32c-.73,11.47-.95,21.62-2.49,28.76-17.34,46.52-3.41,92.1,.72,222.13-.61,1.64-1.26,3.21-1.97,4.69,8.7,3.83,7.62,12.23,12.8,14.1,24.18,8.73,14.17-6.7,18.14-11-1.08-2.69-2.04-5.31-2.86-7.85,.65-119.86,20.23-179.21,20.29-216.51,.23-5.68,1.75-17.49,2.23-22.85h-.15c-17.32-.92-32.88-4.73-46.71-11.47Z" style="fill:#f4ae7c; fill-rule:evenodd;"/><path d="M107.4,1417.4c5.44-12.9,2.83-24.66,8.68-24.36,11.34,3.24,9.61,12.94,15.21,14.97,27.4,9.9,10.89-11.24,20.59-12.06,21.16,8.71,31.79-1.65,34.3,14.33-1.88,4.07-15.98,19.12-64.74,21.96-11.01-4.31-15.69-9.26-14.04-14.85Z" style="fill:#1d2a53; fill-rule:evenodd;"/><path d="M179.46,1149.97c1.35,13.34,3.04,23.62,4.14,31.44-19.76,40.22,.9,92.16,11.11,221.85-.54,1.67-1.11,3.26-1.75,4.78,8.87,3.42,8.18,11.86,13.43,13.48,24.56,7.59,13.84-7.34,17.61-11.84-1.21-2.64-2.28-5.21-3.22-7.71,1.71-123.5,4.56-198.02,8.55-223.56-.07-12.02,1.38-24.5,2.77-36.16-18.95,4.91-36.5,7.47-52.65,7.71Z" style="fill:#f4ae7c; fill-rule:evenodd;"/><path d="M178.49,1432.27c4.83-13.14,6.16-25,12.02-24.97,11.48,2.7,10.2,12.48,15.89,14.24,27.84,8.61,10.35-11.73,20-13,29.91,10.43,50.83,4.16,50.86,19.84-6.24,9.7-34.26,15.72-84.05,18.07-11.2-3.78-16.1-8.51-14.72-14.17Z" style="fill:#1d2a53; fill-rule:evenodd;"/><path d="M235.44,757.93c-54.27-17.43-40.55-72.17-18-72.81,21.97-2.77,27.12-.96,60.52-4.78,12.15,13.3,12.73,30.09,1.77,50.38-32.93,2.75-36.15,11.74-44.28,27.2Z" style="fill:#406fb5; fill-rule:evenodd;"/><path d="M282.71,686.68c13.75,.5,29.42-.23,47.01-2.18,13.82-12.19,51.36-37.26,112.66-75.21,14.1-21.52,28.48-35.39,46.8-43.96,4.48,1.92,1.85,4.99-12.73,19,9.76,20.84,1.77,33.12-24.08,33.7-57.65,53.63-94.44,85.21-110.38,94.73-21.79,7.22-41.46,10.97-59.01,11.25,6.15-14.33,6.06-26.77-.27-37.33Z" style="fill:#f4ae7c; fill-rule:evenodd;"/><path d="M115.74,838.64c-21-3.37-27.61-12.7-25.77-43.17,3.94,1.57,10.44,3.5,16.65,4.63,1.74,9.82,3.6,18.35,5.23,24.38,.7,2.8,3.17,11.56,3.89,14.16Z" style="fill:#f4ae7c; fill-rule:evenodd;"/><path d="M106.62,800.1c-6.21-1.13-11.29-2.48-15.23-4.04-1.01-.39-1.94-.81-2.8-1.23-2.94-43.01,2.1-71.32,15.14-84.92-6.36,20.24-2.29,60.95,2.89,90.19Z" style="fill:#406fb5; fill-rule:evenodd;"/><path d="M168.05,661.2c-28.31,1.58-42.21-14.09-41.68-47.02-.87-3.32-1.45-6.49-1.73-9.52-1.72-18.41,7.56-31.49,27.81-39.21,47.39-16.42,67.77-9.28,61.13,14.96-4.48,9.94-11.24,17.49-20.31,22.66,2.61,4.69,3.47,9.97,2.57,15.82,.07,1.61-.43,3.82-1.5,6.63-1.45-11.82-5.37-19.3-11.76-22.44-4.16,7.27-2.89,16.82,3.85,28.64,2.91,17.06-3.22,26.89-18.39,29.49Z" style="fill:#0f3970; fill-rule:evenodd;"/><path d="M110.38,655.19c-6.02-1.08-7,8.54-8.67,12.19-4.54-17.06-.54-35.78,7.13-42.09-2.46,.34-5.1,1.69-7.91,4.06-1.05-19.29,21.77-24.83,27.78-25.46,3.05-.31,5.26,1.4,6.64,5.15,8.64,25.08,4.08,46.89-13.68,65.4,3.36-4.87,4.64-10.64,3.84-17.31-6.1,19.32-17,23.95-32.7,13.89,12.99,3.93,15.31-2.22,17.57-15.84Z" style="fill:#0f3970; fill-rule:evenodd;"/><path d="M129.17,603.92c2.13-3.09,5.33-5.48,9.82-4.71,7.1,2.22,8.1,11.64,2.94,14.59-1.45,1.05-3.12,1.41-4.65,1.56-.54-2.08-1.18-4.19-1.92-6.32-1.3-3.53-3.37-5.24-6.18-5.12Z" style="fill:#6998d0; fill-rule:evenodd;"/><path d="M149.03,682.66c2.34-7.15,1.94-15.19-1.18-24.12,5.63,2.21,12.36,3.09,20.2,2.65,15.17-2.61,21.3-12.44,18.39-29.49-6.74-11.82-8.01-21.37-3.85-28.64,6.39,3.14,10.3,10.62,11.76,22.44,1.07-2.81,1.56-5.02,1.5-6.63,.9-5.85,.04-11.12-2.57-15.82,5.54-3.15,10.22-7.2,14.05-12.14,6.08,6.33,8.14,13.08,6.16,20.26,7.64,11.12,9.84,20.96,6.63,29.49,.52,9.02-.19,15.24-2.13,18.65-3.09,5.42-19.03,2.87-24.58,2.52-2.34,5.88-2.77,12.39-1.28,19.5-16.45-1.68-30.63-1.32-43.08,1.33Z" style="fill:#f4ae7c; fill-rule:evenodd;"/><path d="M308.1,820.76l.11,11.38-15.4,12.29c.31-3.73-.44-6.99-2.23-9.78l17.52-13.88h0Zm-37.4,41.31l-24.9,19.86-14.8,.28c-.29-3.74-.55-7.9-.75-12.57l15.97,.17,23.71-18.79c.06,.76,.18,1.54,.34,2.34,.98,4.28,1.13,7.19,.42,8.72Z" style="fill:#88898d; fill-rule:evenodd;"/><path d="M308.1,820.76l-17.52,13.88c-.29-.46-.61-.9-.96-1.33-2.62-2.75-6.75,.66-14.96,6.57-3.49,3.09-5.06,6.8-4.73,11.13l-23.71,18.79-15.97-.17c-.2-4.78-.34-10.1-.41-16.09l20.7,.5,32.65-24.63h-52.55c.6-2.85,1.45-5.75,2.48-8.65h74.95Z" style="fill:#aaadb3; fill-rule:evenodd;"/><path d="M283.21,829.41l-32.65,24.63-20.7-.5c-.04-3.59-.04-7.44-.03-11.54-.43-4.06-.08-8.28,.83-12.6h52.55Z" style="fill:#88898d; fill-rule:evenodd;"/><path d="M308.1,820.76h-74.95c.97-2.74,2.1-5.5,3.35-8.27l64.77-.28,5.98-69.25h-51.95c-.75-2-1.6-4.06-2.56-6.17,.35-.18,.72-.36,1.1-.53l61.85-.46-7.59,84.96Z" style="fill:#cccdd0; fill-rule:evenodd;"/><path d="M301.26,812.21l-64.77,.28c4.68-10.42,10.94-20.93,15.99-30.75,8.05-9.37,8.98-22.3,2.81-38.78h51.95l-5.98,69.25Z" style="fill:#eeeeef; fill-rule:evenodd;"/><path d="M270.69,862.08c8.38,4.63,15.47,.28,21.28-13.06,1.75-6.37,.96-11.6-2.35-15.71-2.62-2.75-6.75,.66-14.96,6.57-4.09,3.64-5.55,8.12-4.38,13.46,.98,4.29,1.13,7.2,.41,8.73Z" style="fill:#f4ae7c; fill-rule:evenodd;"/><path d="M144.98,648.64c.6-10.47-.93-21.8-4.6-33.99-1.03,.42-2.1,.61-3.12,.72,3.31,12.7,3.09,24.52-.68,35.47,3.07,3.39,6.82,5.96,11.27,7.71,5.63,2.21,12.36,3.09,20.2,2.66,9.95-1.71,16-6.52,18.17-14.44-10.44,13.38-24.19,14.01-41.24,1.88Z" style="fill:#142d4d; fill-rule:evenodd;"/><path d="M862.74,790.45c2.34-.79,10.18-2.63,19.33-5.7,9.39,3.82,21.77,2.69,37.12-3.39,5.85-9.27,6.38-18.71,1.6-28.29-12.11,5.77-22.73,7.99-31.88,6.67,11.37-7.49,13.13-11.93,5.28-13.33-.75,1.77-2.38,3.22-4.88,4.36-7.91,1.28-13.57,6.62-16.97,16.04-4.22,1.14-8.57,2.18-10.81,2.88,2.29,5.43,2.73,11.96,1.21,20.76Z" style="fill:#f5b58b; fill-rule:evenodd;"/><path d="M647.48,553.12c-29.25-3.79-51.35-1.78-60.79,12.25,1.19,8.56,3.76,19.69,7.73,33.4-1.72,3.26-4.23,4.97-7.56,5.1-4.16-8.12-7.65-12.97-10.45-14.54-13.93,6.25-11.31,15.88,7.86,28.9,1.12,4.49,2.2,8.2,3.24,11.14-17.24-3.87-31.68-19.29-33.7-25.96-20.11-39.65,2.32-56.39,14.32-62.5,5.3-39.27,62.32-4.56,90.88-23.49,11.36,15.68-2.69,35.36-11.53,35.71Z" style="fill:#0f3970; fill-rule:evenodd;"/><path d="M557.18,731.06c18.39,22.07,33.8,38.02,46.27,47.85-11.37-40.35-23.53-83.79-36.5-130.34-4.58,3.86-8.24,7.68-11.01,11.47-1.02,18.87-1.27,33.27-.75,43.2,6.73,5.33,12.14,8.66,16.25,10.01-6.2,5.62-10.96,11.56-14.25,17.82Z" style="fill:#0f3970; fill-rule:evenodd;"/><path d="M672.31,720.32c-8.93,19.8-18.97,37.79-30.12,53.94,3.28-49.29,4.95-90.83,5-124.62,5.01,2.8,8.73,5.49,11.48,8.41,.53,.62,1.04,1.24,1.53,1.86,5.28,18.86,8.7,33.63,10.25,44.3-4.93,2.26-9.1,4.21-12.51,5.86,4.63,3.11,9.42,6.53,14.38,10.25Z" style="fill:#0f3970; fill-rule:evenodd;"/><path d="M555.94,660.04c-28.34,16.43-51.52,30.99-69.52,43.69-12.16,46.32-18.74,96.35-19.76,150.11,1.66,61.77,7.81,106.48,15.1,130.57,10.64,.46,21.95-.58,26.15-4.62,2.3-54.34,2.89-98.43,1.75-132.29,7.78-17.85,14.61-31.19,20.5-40.03,2.57,18.39,6.12,34.34,6.97,50.76-3,33.66-4.47,73.85-13.47,120.58,11.21,10.74,36,17.15,74.37,19.22,7.19-88.47,9.01-161.51,5.43-219.12-12.46-9.83-27.88-25.78-46.27-47.85,3.3-6.26,8.05-12.19,14.25-17.82-4.1-1.35-9.52-4.68-16.25-10.01-.53-9.93-.28-24.33,.75-43.2Z" style="fill:#0f3d86; fill-rule:evenodd;"/><path d="M642.19,774.26c10.99,117.33,15.59,193.6,22.06,220.04,18.39-2.02,32.56-10.64,41.13-19.16-2.3-66.75-10.1-109.38-13.39-148.39,5.94-64.07,18.1-122.97,5-150.35-14.09-9.48-26.35-14.98-36.79-16.5,5.28,18.86,8.7,33.63,10.25,44.3-4.93,2.26-9.1,4.21-12.51,5.86,4.63,3.11,9.42,6.53,14.38,10.25-8.93,19.8-18.97,37.79-30.12,53.94Z" style="fill:#0f3d86; fill-rule:evenodd;"/><path d="M713.61,695.46c-5.26-6.44-10.8-12.79-16.63-19.06,9.08,18.97,6.03,53.09,1.32,93.58,9.17,11.36,28.88,31.64,45.77,44.27,34.65,1.99,71.77-6.05,129-23.36,2.31-5.95,1.57-15.84-.75-24.09-55.74,3.22-89.79,2.68-112.14,8.43-14.49-36.07-32.84-57.46-46.58-79.77Z" style="fill:#0f3d86; fill-rule:evenodd;"/><path d="M603.21,678.54c-10.09-13.23-18.48-25.31-27.68-32.85,1-4.03,1.65-7.05,2.75-10.1,.53-1.45,3.65-3.14,7.81-3.92-.38,.66-1.21,3.47-.53,3.91,.18,.11,.32,.26,.48,.39,9.77,7.89,20.07,14.7,32.72,20.7-6.03,7.04-10.22,14.43-15.56,21.87Z" style="fill:#406fb5; fill-rule:evenodd;"/><path d="M642.83,649.22c.26,8.61,.05,15.67-.63,21.18-2.08-6.34-5.9-11.5-11.48-15.5-.85-7.26-1.43-14.06-1.73-20.42,6.08,2.29,10.69,7.2,13.84,14.74Z" style="fill:#406fb5; fill-rule:evenodd;"/><path d="M654.91,918.29c-3.33-37.02-7.23-85.4-12.72-144.03,3.23-48.43,4.9-89.38,5-122.85-1.33-.5-2.78-.95-4.33-1.36,.22,8.23,0,15.01-.65,20.35-2.08-6.34-5.9-11.5-11.48-15.5-1.73,3.34-2.26,6.97-5.05,11.06-3-3.11-5.83-6.09-7.68-8.36-5.63,6.76-9.68,13.83-14.79,20.95-9.98-13.09-18.3-25.05-27.38-32.61-3.1,1.59-5.88,3.12-8.34,4.58,12.77,45.81,24.76,88.61,35.96,128.4,2.46,39.66,2.37,86.64-.28,140.94,4.49,.69,9.1,1.14,13.81,1.35v-.46c0-1.08,.9-1.98,2-2.01l19.38-.54c1.1-.03,2,.83,2,1.9v.36c4.76-.5,9.6-1.21,14.55-2.14Z" style="fill:#6998d0; fill-rule:evenodd;"/><path d="M637.62,675.78c-3.43-5.53-7.41-8.8-11.94-9.82-3.37,1.47-6.99,4.9-10.86,10.29,3.01,5.2,6.21,8.84,9.59,10.9-6.35,39.98-9.28,95.66-8.81,167.01,4.82,10.63,9.53,18.3,14.15,23.02,5.57-8.23,9.03-16.72,10.37-25.48-4.4-74.9-7.02-129.54-7.86-163.94,3.19-4.18,4.96-8.17,5.35-11.98Z" style="fill:#0f3d86; fill-rule:evenodd;"/><path d="M614.83,661.63c-2.22,2.99-4.24,6.02-6.29,9.09,1.87,1.24,4.25,2.69,7.15,4.34,2.59-3.43,5.06-5.98,7.41-7.62-2.82-2.09-5.58-4.03-8.28-5.8h0Zm18.33-4.81c-1.05,3.69-2.5,7.11-4.36,10.24,2.57,1.25,4.93,3.32,7.11,6.2,1.22-1.93,2.24-5.19,3.05-9.78-1.57-2.46-3.5-4.69-5.79-6.67Z" style="fill:#0f3d86; fill-rule:evenodd;"/><path d="M699.63,1201.99c.26-60.03-1.77-130.71-6.06-212.02-8.06,4.83-18.4,8.52-31.66,11.37-3.19-8.41-6.1-28.35-10.38-64.84-3.67,.99-7.39,1.78-11.17,2.38v2.07c0,1.08-.9,1.98-2,2.02l-19.38,.54c-1.1,.04-2-.82-2-1.89v-1.48c-3.51-.16-7.06-.46-10.65-.92-2.01,30.68-2.79,51.21-4.37,66.21-31.83-3.98-50.96-7.43-66.34-13.86-7.86,60.49-12.22,125.7-13.06,195.68-13.03,27.94-16.59,96.21-10.69,204.77,11.1,2.46,23.68,2.46,37.74,0,11.09-48.85,20.73-113.11,28.93-192.8,11.54-38.16,23.49-91.78,35.85-160.87,2.49,46.86,9.2,99.88,20.13,159.03-3.69,43.7,2.7,107.86,19.19,192.49,8.65,.83,22.28-.39,40.88-3.68-1.9-68.82-.21-130.22,5.03-184.2Z" style="fill:#0f3d86; fill-rule:evenodd;"/><path d="M601.96,1005.42c1.58-15.01,2.36-35.53,4.37-66.21-1.38-.17-2.77-.37-4.16-.59-1.09,18.97-2.48,38.78-4.16,59.41-27.63-1.49-48.22-5.23-61.76-11.22-.21,1.58-.43,3.17-.63,4.76,15.38,6.43,34.51,9.88,66.34,13.86h0Zm59.95-4.09c13.25-2.85,23.59-6.54,31.66-11.37-.1-1.81-.19-3.62-.29-5.44-7.83,4.73-17.62,8.53-29.03,9.78-2.72-11.13-5.12-31.1-7.79-59.26-1.63,.53-3.27,1.01-4.92,1.45,4.28,36.48,7.19,56.43,10.38,64.84Z" style="fill:#142d4d; fill-rule:evenodd;"/><path d="M510.65,1410.2c1.79,1.71,2.37,1.23,3.62,.38,2.05-11.22,23.21-12.53,28.46-1.07,1.56-.61,2.65-1.59,3.29-2.92,3.69,7.25,12.06,14.37,9.83,27.02-5.62,8.08-34.56,12.1-48.27-4.45-3.89-6.3,.91-14.27,3.06-18.96h0Zm145.96-12.33c-3.55,9.6-4.33,17.48-.16,20.57,10.64,2.14,32.45,1.88,66.04,6.3,23.72-1.7,33.99-8.46,28-15.96-20.61,1.28-39.22-4.1-55.83-16.12-3.09,12.56-15.78,14.29-38.05,5.21Z" style="fill:#0f3970; fill-rule:evenodd;"/><path d="M512.83,1392.22c-.58,6.71-1.14,12.85-1.69,18.4,1.41,1.18,2,.71,3.14-.04,2.05-11.22,23.21-12.53,28.46-1.07l.03-.02,.04-.02h.03s.04-.03,.04-.03h.04s.03-.02,.03-.02h0s.03-.02,.03-.02h.03s0-.02,0-.02h.03s.03-.02,.03-.02h0s.02-.01,.02-.01l.04-.02h.01s.02-.01,.02-.01l.03-.02h.02s.02-.01,.02-.01h.03s.02-.03,.02-.03h.01s.04-.03,.04-.03h.01s.02-.01,.02-.01l.03-.02h.02s.01-.02,.01-.02h.03s.02-.03,.02-.03h.01s.03-.02,.03-.02h.02s0-.01,0-.01l.03-.02,.02-.02h.04s.03-.03,.03-.03h0s.03-.02,.03-.02l.02-.02h0l.03-.02,.03-.02h0l.09-.06h.03v-.02l.02-.02h.04v-.02l.02-.02h.03s0-.02,0-.02l.02-.02h.03s0-.03,0-.03h.02s.03-.03,.03-.03h0s.02-.02,.02-.02l.02-.02h.01s.04-.04,.04-.04h.01s.01-.01,.01-.01l.03-.03h.01s.01-.02,.01-.02l.02-.02h.02s.01-.03,.01-.03l.02-.02h.02s.03-.04,.03-.04h.02s.01-.02,.01-.02l.02-.02,.02-.02h0s.02-.03,.02-.03l.03-.02h0l.02-.02,.02-.03h0c-.93-4.5-1.71-9.59-2.35-15.27-10.77,1.28-20.61,.98-29.5-.86h0Zm177.98-5.38c.81,2.97,1.9,5.56,3.25,7.79-.11,.33-.24,.65-.38,.96-.61,1.39-1.38,2.6-2.32,3.63h-.01c-.31,.35-.63,.67-.98,.97l-.02,.02c-.11,.09-.21,.18-.33,.27l-.05,.04c-1.19,.95-2.57,1.67-4.16,2.18h-.03c-.14,.06-.28,.1-.43,.14l-.08,.02c-.15,.04-.29,.09-.44,.12h-.04c-.16,.05-.32,.09-.48,.12h-.03c-.16,.04-.32,.08-.48,.11h-.08s-.47,.09-.47,.09h-.04c-1.6,.26-3.37,.33-5.28,.23h-.08s-.58-.04-.58-.04h-.09l-.58-.05h-.12s-.58-.08-.58-.08h-.1s-.63-.09-.63-.09h-.01l-.66-.09-.15-.03c-1.58-.24-3.25-.58-5.01-1.01l-.2-.05-.68-.18-.09-.02-.68-.19-.21-.06-.61-.17-.22-.06-.62-.18-.26-.08-.63-.2-.18-.05-.7-.22-.19-.06-.7-.23-.16-.06-.74-.25-.18-.06-.73-.26-.91-.33c-.58-.21-1.16-.43-1.75-.66l-.14-.05-.91-.36c.04-2.69-.1-5.45-.41-8.29,7.96,.22,19.07-.86,33.34-3.25Z" style="fill:#f4ae7c; fill-rule:evenodd;"/><path d="M702.7,705.25c.71,17.92-1.54,40.16-4.4,64.74,9.17,11.36,28.88,31.64,45.77,44.27,34.65,1.99,71.77-6.05,129-23.36-41.59,9.41-84.12,14.99-127.58,16.73-8.8-6.33-22.32-19.69-40.57-40.06,.58-15.58-.17-36.34-2.23-62.31Z" style="fill:#142d4d; fill-rule:evenodd;"/><path d="M541.61,856.82c-2-24.98-3.89-46.46-5.66-64.47-1.26,5.12-3.19,10.17-5.8,15.11,2.57,18.39,6.12,34.33,6.97,50.76-3,33.66-4.47,73.85-13.47,120.58,1.03,.98,2.17,1.92,3.41,2.83,7.33-28.78,12.18-70.39,14.55-124.81Z" style="fill:#142d4d; fill-rule:evenodd;"/><path d="M602.17,938.61c19.3,3.04,37.39,1.85,54.28-3.57-.51-5.3-1.02-10.88-1.55-16.75-18.61,3.47-35.85,3.98-51.73,1.55-.3,6.16-.64,12.42-1,18.77Z" style="fill:#9d7558; fill-rule:evenodd;"/><path d="M618.99,918.72l19.38-.54c1.1-.03,2,.84,2,1.95v20.77c0,1.11-.9,2.03-2,2.07l-19.38,.54c-1.11,.04-2-.84-2-1.94v-20.77c0-1.1,.9-2.03,2-2.06Z" style="fill:#fff; fill-rule:evenodd;"/><polygon points="620.83 922.44 620.83 939.69 636.51 939.24 636.51 921.99 620.83 922.44" style="fill:#9d7558; fill-rule:evenodd;"/><path d="M562.98,649.88c.73,.05,1.53,.08,2.35,.08l-.7,.63-1.65-.7h0Zm4.33,.02c.46-.02,.91-.05,1.36-.09-.4,.23-.8,.47-1.2,.7l-.17-.61h0Zm17.78-14.71c9.46,7.74,19.36,14.45,31.38,20.37,.76,.37,1.53,.74,2.3,1.11-.26,.31-.52,.62-.78,.93,1.62,1.99,3.99,4.51,6.56,7.2,.84-.23,1.63-.52,2.35-.85,1.77-3.27,2.37-6.25,3.82-9.03-.19-1.62-.37-3.21-.53-4.79-.18-1.89-.78-8.67-1.08-10.52,.96-.06,1.9-.14,2.8-.24,1.11-.14,2.42-.36,3.92-.64l.06,.06c11.79-2.23,16.68-8.28,14.65-18.14,4.76-20.35,5.43-38.02,.26-42.78-.86-8.71-1.98-16.95-3.34-24.74-29.25-3.79-51.34-1.79-60.78,12.25,1.19,8.56,3.77,19.69,7.73,33.4-1.72,3.26-4.23,4.97-7.56,5.1-4.16-8.12-7.65-12.97-10.45-14.54-13.93,6.25-11.31,15.88,7.86,28.9,1.12,4.49,2.2,8.2,3.24,11.14-.5,1.63-1.32,3.62-2.42,5.82Z" style="fill:#f4ae7c; fill-rule:evenodd;"/><path d="M629.12,639.59c-5.2,.45-11.07,.27-17.6-.54,6.17,4.1,12.33,7.04,18.46,8.8-.12-1.21-.23-2.4-.33-3.58-.19-1.97-.39-3.84-.53-4.68Z" style="fill:#ed7d5b; fill-rule:evenodd;"/><polygon points="587.29 1032.63 579.35 1216.94 378.29 1195.78 402.1 1032.63 587.29 1032.63" style="fill:#e3bb9b; fill-rule:evenodd;"/><path d="M612.87,1194.23c-16.19,5.95-25.57,14.1-33.52,22.71l7.94-184.31,9.04-.23,16.54,161.83Z" style="fill:#9d7558; fill-rule:evenodd;"/><path d="M587.29,1032.63l-23.38,73.94c-3.36,8.19-6.81,15.36-20.44,14.24l-129.03-8.18c-11.5-.73-11.78-6.55-11.88-14.43v-65.57h184.73Z" style="fill:#9d7558; fill-rule:evenodd;"/><path d="M494.15,1107.69l-32.82-2.12c-1.81-.12-3.61,1.15-3.89,2.95l-4.46,29.15c-.28,1.79,.86,3.46,2.64,3.63l34.14,3.46c1.79,.18,3.7-1.13,3.89-2.96l3.14-30.47c.19-1.82-.83-3.52-2.63-3.63Z" style="fill:#fff; fill-rule:evenodd;"/><polygon points="488.08 1115.53 485.96 1136.09 461.91 1133.66 464.91 1114.03 488.08 1115.53" style="fill:#9d7558; fill-rule:evenodd;"/><path d="M548.72,1032.63c-2.02-7.15-6.72-13.11-13.07-17.77-2.74-2.02-5.79-3.77-9.07-5.26-1.94-5.04-13.6-9.27-27.84-9.82-15.09-.58-27.61,3.2-28.83,8.54-.95,.41-1.88,.85-2.79,1.31-9.47,4.85-16.55,12.45-18.84,23h6.95c2.22-7.74,7.72-13.38,14.93-17.07,.97-.5,1.97-.96,3-1.4,4.74,3.38,14.03,5.9,24.79,6.32,11.28,.43,21.12-1.57,25.89-4.84,2.86,1.31,5.52,2.84,7.89,4.59,4.53,3.33,8.03,7.48,9.88,12.4h7.12Z" style="fill:#9d7558; fill-rule:evenodd;"/><path d="M515.78,1008.05c.11,4.43,1.7,11.12-1.12,14.31-7.41,8.36-25.55,8.94-33.35,3.57-3.36-2.3-3.74-9.85-3.83-14.69,4.01-10.25,6.18-19.72,6.5-28.43,7.94-5.27,19.93-5.77,23.92-3.03l7.88,28.27Z" style="fill:#f5b58b; fill-rule:evenodd;"/><path d="M1791.77,1366.09s10.28,10.17,10.53,13.9c.23,3.74,.9,43.73-3.29,47.47-4.21,3.74-16.55,6.42-12.58,10.62,2.99,3.13,26.07,2.47,41.36,1.64,4.44-.3,10.05-36.33,11.83-41.64,2.55-7.7,11.8-24.51,9.48-29.82-1.15-2.62-9.6-8.6-17.26-13.61-8.05-5.31-15.78-17.04-15.78-17.04l-24.29,28.48Z" style="fill:#f4ae7c; fill-rule:evenodd;"/><path d="M1654.1,1391.06l9.23,26.47c.69,4.18,3.37,14.5,3.37,18.31,0,14.28-63.47-12.11-49.25-18.46,1.3-.6,5.34-5.16,5.75-10.02,.68-7.48-5.33-16.83-5.33-16.83l36.23,.53Z" style="fill:#f4ae7c; fill-rule:evenodd;"/><path d="M1566.52,890.49l-22.99,59.5s-14.99,142.04-6.28,227.04c3.66,35.58,82.7,225.91,82.7,225.91l39.28-5.61-52.58-225.39,19.34-86.2,27.39-170.44-86.87-24.82Z" style="fill:#142d4d; fill-rule:evenodd;"/><path d="M1674.78,893.55l19.72,66.24,29.97,200.05,101.41,187.11s-15.24,23.48-31.61,27.14l-143.95-189.14-78.01-236.75,2.74-52.63,99.73-2.02Z" style="fill:#0f3d86; fill-rule:evenodd;"/><path d="M1364.2,889.37c15.31-.74,14.83,1.9,16.8,1.71,2.3-.14,27.05-19.27,27.05-19.27,0,0,73.19-55.8,77.02-58.94l45.69-84.14,47.61,11.17s-52.1,90.15-55.63,94.39c-3.51,4.18-111.15,67.95-120.48,73.91,0,0-8.51,11.21-14.07,18.08-5.58,6.86-13.86,10.83-15.74,12.54-.27,.21-6.8,5.51-16.53,9.75-8.39,3.76-2.13-3.62-2.13-3.62,0,0,14.34-9.72,13.39-10.71-.73-.81-8.25,4.96-17.49,9.17-2.38,1.08-4.71,2.1-6.87,3.04-5.68,2.5-8.85-.27-3.31-3.89,1.97-1.26,5.26-3.25,7.8-4.34,2.78-1.23,4.93-3.23,7.09-4.57,4.3-2.69,7.48-4.65,7.27-4.74-.28-.12,.21-1.29-2.34-.21-3.09,1.26-9.01,5.45-13.7,6.99-2.64,.89-8.04,3.01-8.04,3.01,0,0-9.18,2.52-9.43,2-1.48-2.6,4.59-6.31,8.31-6.97,2.17-1.74,7.91-3.79,7.91-3.79,0,0,10.72-6.91,9.79-8.46-.76-1.31-29.57,10.17-30.88,7.48-1.04-2.25,7.47-6.12,7.47-6.12,0,0,5.33-1.92,7.06-2.7,2-.92,7.86-4.16,7.86-4.16,0,0,19.78-12.08,18.77-13.5-.99-1.42-5.01-3.91-6.5-3.57-1.5,.33-3.91,2.37-5.36,2.63-1.5,.33-3.71-.56-4.24-2.34-.51-1.85,6.07-6.16,6.07-6.16,0,0,5.35-3.46,9.77-3.64Z" style="fill:#f4ae7c; fill-rule:evenodd;"/><path d="M1512.6,752.2l48.99,27.68s20.98-41.58,29.86-61.92c10.77-24.66,21.72-57.25,18.49-57.84-9.08-1.68-21.37-1.99-32,4.29-36.79,21.87-65.33,87.79-65.33,87.79Z" style="fill:#406fb5; fill-rule:evenodd;"/><path d="M1751.5,999.64c8.54-13.98,10.47-11.96,11.51-13.83,1.24-2.17-.14-35.43-.14-35.43,0,0-3.41-98.23-3.77-103.54l-43.73-90.68,37.8-35.58s45,99.95,46.44,105.63c1.48,5.67-8.93,139.11-9.48,150.93,0,0,4.38,14.27,6.84,23.32,2.45,8.97,.9,18.76,1.2,21.38,.05,.45,.59,9.35-1.59,20.56-1.88,9.65-4.39-.37-4.39-.37,0,0,.36-18.47-1.03-18.24-1.11,.15-.75,10.32-2.7,21-.5,2.69-1.03,5.46-1.52,7.92-1.27,6.58-5.52,7.62-5.24,.6,.09-2.47,.36-6.66,.96-9.57,.65-3.14,.23-6.21,.39-8.98,.28-5.38,.55-9.34,.33-9.26-.28,.15-.97-.98-1.59,1.94-.76,3.51-.76,11.29-2.25,16.3-.85,2.84-2.25,8.96-2.25,8.96,0,0-3.82,8.83-4.39,8.75-3.1-.23-2.14-7.03-.51-10.77-.14-2.92,1.55-9.27,1.55-9.27,0,0,.58-13.6-1.31-13.75-.79,0-2.12,8.3-4.64,16.3-2.37,7.39-5.91,14.5-7.41,14.2-2.51-.38-.74-8.9-.74-8.9,0,0,1.53-5.83,1.91-7.85,.44-2.32,1.22-9.42,1.22-9.42,0,0,1.58-24.82-.21-24.74-1.78,.08-6.29,2.17-6.91,3.66-.62,1.5-.34,4.86-.96,6.35-.63,1.49-2.68,2.92-4.52,2.32-1.86-.59-1.58-9.04-1.58-9.04,0,0,.28-6.8,2.74-10.91Z" style="fill:#f4ae7c; fill-rule:evenodd;"/><path d="M1831.33,1354.35s-21.67,66.38-30.94,69.67c-2.49,.83-16.34,4.34-18.57,9.64l-.16,.53c-.71,3.37,2.12,6.44,5.55,6.44h44.03s6.25-29.84,8.74-42.91c0,0,13.07-32.07,11.62-34.91-1.45-2.92-20.27-8.45-20.27-8.45Z" style="fill:#142d4d; fill-rule:evenodd;"/><path d="M1670.32,1440.55l-7.27-23.33s-15.24,6.57-22.88,5.46c-7.64-1.05-22.55-5.46-22.55-5.46-30.46,10.17-55.42,15.1-50.9,23.33h103.6Z" style="fill:#142d4d; fill-rule:evenodd;"/><path d="M1382.68,903.56c-6.37,2.52-12.4,2.42-18.22-1.1,4.36,6.47,13.74,5.92,18.22,1.1Z" style="fill:#ef8857; fill-rule:evenodd;"/><path d="M1667.65,650.52s29.63,4.11,37.43,9.87c8.76,6.43,35.96,36.56,35.96,36.56,0,0-56.59,162.07-54.41,190.92,2.21,28.85,8.42,71.62,8.42,71.62,0,0-110.7,7.03-152.32-9.42,0,0,13.92-65.48,13.92-82.6s7.39-188.76,12.63-197.73c5.27-8.97,15.85-14.05,35.93-18.46,20.08-4.41,62.44-.75,62.44-.75Z" style="fill:#6998d0; fill-rule:evenodd;"/><path d="M1659.57,604.25l7.32,47.99s-26.77,57.19-42.77,52.26c-13.41-4.19-5.16-54.72-5.16-54.72,0,0,7.33-27.21,5.14-40.82-2.21-13.53,35.47-4.71,35.47-4.71Z" style="fill:#f4ae7c; fill-rule:evenodd;"/><path d="M1624.1,608.96c-2.21-13.53,35.47-4.71,35.47-4.71l.6,3.96c-1.11,2.69-2.44,5.01-4.1,6.73-8.39,8.97-21.56,14.43-32.92,14.8,1.13-7.32,1.84-15.17,.95-20.78Z" style="fill:#ef8857; fill-rule:evenodd;"/><path d="M1665.74,536.38c1.06-.38,8.53,54.64-5.63,69.82-14.17,15.1-41.78,20.11-51.69,8.15-4.89-5.88-14.68-22.44-7.81-41.1,6.97-18.91,7.25-38.24,19.44-46.89,22.02-15.55,45.69,10.02,45.69,10.02Z" style="fill:#f4ae7c; fill-rule:evenodd;"/><path d="M1621.18,479.75c20.62,42.32,42.94,36.32,46.98,40.73,32.55,3.76,52.65,58.28,19.74,83.47-15.56,11.96-25.6,18.24-25.6,18.24l-2.48-7.25c-1.82-5.38-2.55-11.14-1.96-16.82,.38-3.36,1.11-7.03,2.54-10.09,3.72-7.93-8.03-13.23-11.35-19.89-2.52-5.08-2.65-16.82-6.65-25.19l-4.78-6.5s-11.02-8.52-21.8-6.06c-10.79,2.39-18.02-25.32,5.36-50.64Z" style="fill:#0f3970; fill-rule:evenodd;"/><path d="M1649.79,577.94c-.11,6.73,2.97,12.26,6.86,12.26,3.91,.08,7.18-5.31,7.27-12.03,.11-6.73-2.94-12.19-6.86-12.26-3.91-.08-7.16,5.31-7.27,12.04Z" style="fill:#f4ae7c; fill-rule:evenodd;"/><path d="M1777.8,755.03l-49.54,38.64s-21.87-20.93-32.88-44.18c-11.11-23.47-1.35-92.02,10.48-88.88,26.47,7.18,71.93,94.42,71.93,94.42Z" style="fill:#406fb5; fill-rule:evenodd;"/><path d="M1171.01,1398.03c107.48,0,194.61,12.5,194.61,27.91s-87.13,27.9-194.61,27.9-194.61-12.49-194.61-27.9,87.13-27.91,194.61-27.91Z" style="fill:#d0d9ee; fill-rule:evenodd;"/><path d="M1206.08,947.78c-3.07-3.96-7.27-6.95-11.48-9.58-1.12-.69-2.74-.23-3.36,.93-3.26,6.08-6.28,12.31-10.02,18.12-1.23,1.92-2.98,4.45-4.54,5.58-.09,.07-.49,.26-.67,.36-.02-.02-.04-.06-.08-.1-.31-.46-.48-.95-.65-1.46-2.91-8.94,.62-18.5-1.68-27.51-1.21-4.76-4.23-9.72-7.66-13.2-3.73-3.78-8.73-5.53-11.05-10.62-.35-.76-.98-1.13-1.67-1.2h-.46c-.83,.08-1.67,.54-2.14,1.22-5.38,7.73-12.9,15.71-14.34,25.38-1.27,8.58,3.37,15.74,8.31,22.26,2.4,3.15,4.76,6.36,6.62,9.86,1.02,1.93,2.79,5.42,.93,7.31-1.95,1.98-4.91-1.55-6.45-3.14-3.16-3.26-5.83-6.98-8.56-10.59-4.53-5.97-11.69-15.04-20.2-13.39-3.76,.73-5.28,4.6-5.48,7.98-.31,5.37,2.32,11.16,4.96,15.66,6,10.22,18.16,13.19,25.97,21.44,1.8,1.89,6.72,8.39,3.9,11.06-.99,.93-3.29,.63-4.45,.44-2.87-.44-6.02-1.49-8.32-3.27-8.8-6.8-12-18.62-21.23-25.07-4.05-2.82-10.29-4.54-15.16-3.38-4.12,.98-6.02,4.86-6.21,8.78-.22,4.75,1.94,9.64,4.33,13.61,2.77,4.58,6.57,8.41,11.22,11.06,9.31,5.3,21.09,5.97,27.28,15.71,.85,1.34,1.77,3.07,1.35,4.7-.32,1.26-2.1,1.66-3.17,1.9-4.78,1.05-11.04-.71-15.22-2.94-5.07-2.7-8.76-7.58-12.65-11.66-4.11-4.31-8.68-7.82-14.44-9.58-4.18-1.26-9.31-1.06-12.01,2.84-2.47,3.59-1.97,8.41-.96,12.39,1.34,5.28,4.21,10.15,7.74,14.25,3.82,4.42,9.82,6.92,15.21,8.74,5.61,1.88,11.43,3.02,16.96,5.11,1.46,.55,2.6,.94,4.21,1.06,1.72,.12,3.44,.04,5.12,.48,1.41,.36,.48,1.85,0,2.88-1.15,2.47-4.82,2.36-7.14,2.55-2.2,.16-4.36,.73-6.56,.74-2.52,.02-5.05-.45-7.53-.83-4.93-.75-10.13-1.62-15.01-.14-4.71,1.43-8.04,5.87-8.88,10.62-1.77,10,9.39,16.09,17.68,17.36,5.32,.81,10.13-.34,14.8-2.99,5.75-3.25,10.28-7.95,16.93-8.76,.43,2.67-.52,4.79-2.88,6.79-3.25,2.74-7.74,4.22-11.67,5.68-7.72,2.87-19.04,5.43-23.17,13.43-.51,.97-.41,2.18,.41,2.97,3.66,3.5,7.88,6.24,13.04,6.65,4.27,.34,8.44-1.65,11.9-3.94,6.19-4.11,11.53-10.5,18.49-13.38-.96,1.76-2.56,2.95-4.51,4.47-3.47,2.7-5.25,6.45-6.22,10.66-1.46,6.39,.75,13.3,8.26,13.34,4.09,.03,8.19-2.04,11.61-4.09,3.91-2.34,7.04-5.75,9.46-9.57,3.01-4.74,4.68-10.2,5.62-15.79,6.27,12.21,19.89,24.98,32.74,14.42,10.98-9.03-7.11-15.95-14.25-23.05,1.41,.58,2.77,1.29,4.08,1.96,3.73,1.91,7.35,4.03,11.23,5.6,7.25,2.96,15.39,2.67,19.73-4.79,3.74-6.44-4.01-9.43-8.79-10.86-3.89-1.17-11.16-2.43-13.98-6.33,9.58,1.05,20.26,2.24,28.52-3.29,3.75-2.52,8.25-7.35,8.7-12.07,.36-3.86-3.81-5.22-6.81-5.52-8.18-.8-16.14,2.8-24.34,2.54-1.97-.06-3.92-.28-5.85-.7-.72-.16-1.45-.36-2.13-.66-.26-.12-.52-.34-.7-.47,.04-.12,.11-.26,.23-.39,.73-.85,1.68-1.48,2.6-2.09,2.1-1.38,4.3-2.18,6.8-2.44,4.76-.51,9.52,.09,14.27-.74,5.34-.93,9.68-4.02,13.2-8.01,3.14-3.53,6.16-8.01,6.66-12.83,.51-4.98-2.51-8.36-6.96-10.06-12.44-4.76-19.73,8.1-28.6,13.93-2.35,1.55-5.15,2.57-7.82,3.39-1.1,.34-4.3,1.44-5.37,.59-.63-.51,1.48-3.89,1.88-4.53,1.8-2.9,4.07-4.91,7-6.6,7.42-4.24,16.48-5.56,22.32-12.28,3.84-4.41,6.86-11.87,3.1-17.24-3.99-5.69-12.86-4.15-17.87-.84-6.3,4.17-9.48,12.61-17.07,14.62-.66-3.59,.74-6.9,3.16-10.1,3.54-4.68,8.11-8.51,12.31-12.56,4.03-3.88,8.16-8.1,10.26-13.38,2.15-5.41,.77-10.87-2.71-15.36Z" style="fill:#aab9de; fill-rule:evenodd;"/><path d="M1393.56,1120.82c1.21-4.86,.96-10.02,.42-14.95-.14-1.31-1.52-2.29-2.8-2.06-6.79,1.2-13.55,2.69-20.43,3.34-2.26,.22-5.34,.41-7.19-.12-.12-.04-.51-.22-.7-.3,.01-.04,.02-.08,.04-.14,.17-.51,.44-.95,.74-1.4,5.21-7.83,14.92-10.97,20.57-18.35,2.99-3.9,5.01-9.33,5.62-14.19,.66-5.26-1.06-10.27,1.5-15.24,.93-1.82-1-3.44-2.66-3.34-9.4,.56-20.33-.41-28.82,4.44-7.53,4.32-10.28,12.39-12.34,20.31-.99,3.83-2.05,7.67-3.66,11.31-.88,1.99-2.52,5.54-5.16,5.25-2.77-.29-1.83-4.82-1.53-7.01,.61-4.5,1.88-8.89,3.02-13.27,1.88-7.26,4.58-18.49-1.98-24.16-2.89-2.5-6.88-1.3-9.66,.64-4.42,3.08-7.32,8.71-9.23,13.59-4.32,11.04,.88,22.42-.76,33.66-.38,2.58-2.43,10.49-6.28,9.91-1.34-.2-2.52-2.19-3.1-3.22-1.43-2.53-2.55-5.65-2.57-8.57-.11-11.11,7.19-20.94,6.54-32.18-.29-4.93-2.79-10.9-6.72-14-3.32-2.63-7.55-1.73-10.74,.56-3.86,2.76-6.37,7.49-8.01,11.81-1.89,5.01-2.55,10.37-1.75,15.66,1.6,10.59,8.37,20.26,4.54,31.16-.52,1.49-1.33,3.28-2.85,3.96-1.18,.53-2.6-.63-3.44-1.32-3.78-3.09-6.28-9.11-7.12-13.77-1.01-5.65,.54-11.57,1.34-17.14,.84-5.9,.78-11.67-1.42-17.27-1.59-4.07-4.93-7.98-9.67-7.68-4.34,.28-7.82,3.66-10.33,6.91-3.31,4.31-5.37,9.6-6.4,14.9-1.11,5.73,.64,12,2.55,17.36,1.99,5.56,4.7,10.84,6.48,16.49,.47,1.48,.87,2.62,1.77,3.95,.97,1.42,2.1,2.73,2.8,4.31,.59,1.34-1.16,1.52-2.27,1.78-2.65,.63-4.84-2.32-6.42-4.03-1.5-1.62-3.27-2.98-4.64-4.68-1.57-1.98-2.77-4.25-4.01-6.44-2.45-4.33-5-8.96-9.18-11.88-4.04-2.82-9.58-2.69-13.84-.39-8.95,4.78-6.82,17.32-2.69,24.63,2.64,4.67,6.54,7.74,11.49,9.78,6.12,2.5,12.61,3.16,17.36,7.88-1.82,1.98-4.08,2.55-7.11,1.93-4.17-.85-8.11-3.47-11.69-5.65-7.03-4.29-16.04-11.59-24.88-9.9-1.08,.21-1.97,1.04-2.08,2.17-.48,5.04-.03,10.05,2.84,14.35,2.38,3.57,6.52,5.62,10.47,6.91,7.06,2.32,15.38,2.57,21.95,6.24-1.98,.34-3.91-.17-6.3-.78-4.27-1.06-8.32-.13-12.23,1.72-5.92,2.81-9.98,8.83-5.37,14.74,2.52,3.24,6.67,5.18,10.4,6.59,4.26,1.62,8.88,1.97,13.38,1.51,5.58-.57,10.91-2.63,15.86-5.36-5.71,12.48-7.31,31.08,8.94,34.64,13.88,3.04,8.13-15.44,9.29-25.45,.41,1.46,.7,2.98,.98,4.41,.81,4.11,1.39,8.26,2.55,12.29,2.17,7.53,7.42,13.74,15.98,12.53,7.37-1.04,4.92-8.99,3.09-13.62-1.49-3.78-5-10.27-3.67-14.91,5.11,8.19,10.78,17.3,20.24,20.37,4.29,1.39,10.88,1.93,14.87-.64,3.25-2.1,1.74-6.22,.11-8.76-4.43-6.92-12.18-10.94-17.05-17.55-1.18-1.58-2.22-3.25-3.07-5.03-.32-.66-.62-1.37-.79-2.08-.07-.27-.06-.62-.06-.84,.11-.03,.26-.06,.44-.05,1.12,.04,2.2,.4,3.26,.74,2.39,.8,4.38,2.03,6.13,3.83,3.34,3.44,5.82,7.54,9.41,10.77,4.03,3.61,9.15,5.11,14.46,5.41,4.72,.28,10.1-.12,14.2-2.72,4.24-2.67,5.01-7.14,3.6-11.68-3.96-12.72-18.57-10.48-28.64-13.85-2.67-.89-5.2-2.45-7.5-4.04-.94-.65-3.79-2.49-3.78-3.86,.01-.81,3.97-1.25,4.73-1.33,3.39-.39,6.38,.15,9.51,1.43,7.93,3.19,14.57,9.49,23.46,9.93,5.84,.29,13.57-1.95,15.46-8.23,2.01-6.65-4.69-12.68-10.4-14.55-7.17-2.38-15.77,.35-22.05-4.36,2.42-2.74,5.88-3.69,9.9-3.76,5.86-.12,11.7,1.09,17.48,1.88,5.55,.76,11.42,1.4,16.86-.23,5.58-1.66,9.01-6.12,10.39-11.63Z" style="fill:#aab9de; fill-rule:evenodd;"/><path d="M1060.37,985.39c-4.67-1.81-9.81-2.21-14.77-2.3-1.32-.03-2.46,1.21-2.4,2.52,.33,6.89,.95,13.78,.73,20.69-.07,2.27-.26,5.35-1.03,7.12-.05,.11-.29,.48-.39,.65-.04-.02-.08-.02-.12-.04-.5-.24-.9-.57-1.31-.93-7.09-6.16-8.99-16.19-15.59-22.72-3.49-3.46-8.63-6.15-13.37-7.38-5.14-1.31-10.32-.25-14.93-3.42-1.68-1.15-3.54,.56-3.65,2.22-.63,9.4-2.98,20.12,.77,29.15,3.32,8.01,10.99,11.77,18.58,14.8,3.67,1.48,7.34,3.02,10.75,5.06,1.87,1.13,5.18,3.21,4.56,5.8-.65,2.7-5.01,1.19-7.15,.62-4.39-1.17-8.59-2.99-12.8-4.68-6.95-2.78-17.75-6.88-24.21-1.09-2.84,2.55-2.16,6.67-.59,9.68,2.49,4.76,7.72,8.36,12.31,10.87,10.4,5.68,22.35,1.97,33.3,5.02,2.52,.7,10.08,3.74,9.03,7.47-.37,1.31-2.5,2.22-3.59,2.67-2.69,1.1-5.92,1.82-8.82,1.46-11.03-1.29-19.86-9.78-31.09-10.55-4.93-.34-11.17,1.39-14.74,4.9-3.03,2.97-2.67,7.27-.81,10.73,2.25,4.17,6.62,7.26,10.71,9.43,4.73,2.51,9.95,3.84,15.3,3.72,10.72-.24,21.16-5.74,31.49-.56,1.41,.71,3.09,1.72,3.57,3.32,.38,1.24-.95,2.5-1.74,3.25-3.56,3.36-9.83,5.08-14.57,5.31-5.73,.29-11.41-1.99-16.84-3.49-5.74-1.58-11.47-2.24-17.3-.78-4.24,1.05-8.53,3.88-8.84,8.61-.28,4.34,2.64,8.22,5.55,11.12,3.86,3.84,8.83,6.54,13.96,8.24,5.55,1.82,11.99,.88,17.54-.34,5.77-1.28,11.36-3.3,17.18-4.34,1.54-.28,2.72-.53,4.15-1.26,1.53-.78,2.97-1.74,4.63-2.23,1.4-.41,1.36,1.35,1.48,2.48,.29,2.7-2.92,4.51-4.81,5.85-1.8,1.28-3.37,2.87-5.25,4.01-2.15,1.32-4.56,2.22-6.88,3.17-4.61,1.88-9.53,3.83-12.95,7.6-3.31,3.66-3.87,9.17-2.15,13.68,3.62,9.48,16.33,8.96,24.09,5.78,4.98-2.03,8.51-5.51,11.16-10.17,3.26-5.75,4.72-12.11,10-16.23,1.74,2.05,2.02,4.37,1.03,7.3-1.38,4.02-4.47,7.61-7.09,10.87-5.15,6.44-13.53,14.44-12.97,23.43,.07,1.1,.78,2.08,1.89,2.34,4.94,1.11,9.97,1.29,14.6-1.01,3.84-1.91,6.39-5.75,8.18-9.51,3.2-6.7,4.49-14.92,8.96-20.98,.08,2-.68,3.86-1.57,6.16-1.6,4.11-1.2,8.24,.15,12.34,2.03,6.22,7.49,11.02,13.94,7.19,3.52-2.09,5.98-5.97,7.86-9.48,2.15-4.03,3.07-8.56,3.19-13.08,.15-5.61-1.23-11.16-3.3-16.43,11.66,7.25,29.91,11.19,35.49-4.48,4.77-13.38-14.3-10.01-24.08-12.43,1.51-.23,3.04-.31,4.51-.41,4.18-.28,8.37-.33,12.51-.98,7.74-1.19,14.57-5.63,14.46-14.26-.11-7.44-8.29-6.01-13.13-4.78-3.93,1-10.82,3.65-15.24,1.75,8.76-4.03,18.52-8.5,22.76-17.5,1.93-4.09,3.3-10.55,1.25-14.83-1.67-3.48-5.95-2.51-8.68-1.23-7.43,3.53-12.4,10.7-19.56,14.71-1.72,.95-3.51,1.78-5.38,2.4-.7,.23-1.43,.44-2.17,.53-.28,.04-.61-.02-.84-.04-.02-.12-.04-.27,0-.46,.18-1.1,.68-2.13,1.15-3.13,1.09-2.27,2.56-4.08,4.57-5.6,3.83-2.88,8.21-4.81,11.86-7.98,4.1-3.54,6.23-8.43,7.21-13.65,.87-4.64,1.15-10.05-.9-14.43-2.12-4.54-6.45-5.88-11.14-5.05-13.12,2.32-12.74,17.09-17.35,26.66-1.22,2.53-3.09,4.85-4.96,6.92-.76,.85-2.95,3.46-4.29,3.27-.81-.11-.74-4.1-.73-4.86,.04-3.41,.96-6.31,2.61-9.25,4.18-7.46,11.26-13.26,12.83-22.01,1.03-5.77-.23-13.72-6.21-16.39-6.35-2.83-13.16,3.05-15.76,8.48-3.25,6.81-1.64,15.69-7.11,21.32-2.42-2.74-2.91-6.3-2.49-10.29,.63-5.84,2.57-11.47,4.09-17.1,1.45-5.4,2.83-11.16,1.91-16.76-.95-5.73-4.93-9.72-10.23-11.78Z" style="fill:#aab9de; fill-rule:evenodd;"/><path d="M1299.07,1053.12c-.68-4.97-2.8-9.65-5.13-14.05-.61-1.17-2.26-1.57-3.37-.88-5.87,3.62-11.61,7.49-17.75,10.65-2.02,1.04-4.81,2.35-6.72,2.54-.12,.01-.56-.02-.76-.02,0-.04-.01-.08-.01-.13-.04-.55,.06-1.06,.17-1.6,1.97-9.18,9.82-15.69,12.35-24.63,1.34-4.73,1.21-10.52-.01-15.26-1.33-5.15-4.78-9.15-4.23-14.72,.2-2.04-2.19-2.83-3.7-2.13-8.53,3.99-19.05,7.13-25.14,14.77-5.4,6.79-4.98,15.31-3.97,23.43,.49,3.92,.92,7.89,.77,11.85-.08,2.18-.3,6.09-2.86,6.79-2.68,.73-3.47-3.81-4.01-5.96-1.1-4.41-1.54-8.95-2.1-13.45-.92-7.43-2.57-18.87-10.75-21.73-3.61-1.25-6.88,1.34-8.75,4.16-2.97,4.49-3.59,10.81-3.57,16.03,.06,11.86,9.08,20.51,11.71,31.57,.6,2.55,1.6,10.64-2.18,11.53-1.32,.31-3.16-1.11-4.07-1.85-2.26-1.83-4.45-4.31-5.55-7.01-4.2-10.29-1.04-22.11-5.8-32.32-2.08-4.48-6.62-9.1-11.41-10.54-4.06-1.22-7.65,1.19-9.78,4.48-2.57,3.99-3.16,9.31-3.08,13.94,.09,5.36,1.45,10.58,4.15,15.2,5.4,9.25,15.26,15.74,15.72,27.28,.06,1.58-.02,3.54-1.19,4.74-.91,.93-2.65,.38-3.69,.04-4.66-1.48-9.2-6.15-11.7-10.18-3.03-4.87-3.77-10.94-5.08-16.43-1.39-5.79-3.58-11.12-7.68-15.53-2.98-3.19-7.52-5.59-11.81-3.57-3.94,1.85-5.92,6.29-7.05,10.24-1.49,5.23-1.46,10.89-.46,16.19,1.08,5.74,5.03,10.92,8.78,15.19,3.9,4.43,8.37,8.34,12.11,12.93,.99,1.21,1.78,2.12,3.11,3.02,1.43,.97,2.96,1.76,4.19,2.97,1.04,1.03-.52,1.85-1.45,2.49-2.23,1.57-5.35-.38-7.45-1.38-1.99-.95-4.14-1.56-6.05-2.64-2.19-1.25-4.14-2.92-6.1-4.51-3.88-3.12-7.95-6.47-12.92-7.64-4.79-1.13-9.89,1.05-13.01,4.74-6.55,7.75,.05,18.62,6.59,23.88,4.19,3.38,8.93,4.78,14.3,4.84,6.61,.08,12.88-1.72,19.04,.91-.96,2.52-2.85,3.89-5.88,4.42-4.19,.75-8.83-.23-12.95-.93-8.12-1.4-19.19-4.86-26.79-.02-.92,.59-1.45,1.69-1.13,2.78,1.41,4.86,3.69,9.36,7.94,12.3,3.52,2.44,8.12,2.82,12.28,2.57,7.42-.45,15.23-3.3,22.71-2.31-1.72,1.04-3.71,1.28-6.15,1.61-4.36,.59-7.78,2.94-10.73,6.1-4.46,4.79-6.02,11.89,.46,15.69,3.53,2.07,8.11,2.34,12.1,2.29,4.56-.07,8.97-1.45,12.98-3.54,4.98-2.58,9.17-6.46,12.78-10.82-.7,13.7,4.68,31.58,21.09,28.89,14.02-2.3,1.85-17.36-.76-27.08,.93,1.2,1.75,2.5,2.54,3.74,2.27,3.52,4.34,7.16,6.91,10.48,4.79,6.2,11.97,10.03,19.47,5.75,6.47-3.69,1.25-10.17-2.15-13.8-2.78-2.96-8.44-7.71-8.91-12.5,7.76,5.71,16.4,12.09,26.32,11.46,4.5-.29,10.82-2.22,13.58-6.08,2.25-3.15-.67-6.42-3.12-8.18-6.67-4.79-15.36-5.68-22.33-10.02-1.67-1.04-3.25-2.2-4.71-3.54-.54-.49-1.08-1.04-1.51-1.64-.16-.23-.28-.55-.37-.76,.09-.07,.22-.15,.39-.21,1.06-.38,2.19-.44,3.3-.51,2.51-.14,4.82,.26,7.11,1.3,4.37,1.95,8.19,4.86,12.72,6.52,5.08,1.88,10.39,1.38,15.44-.3,4.48-1.49,9.35-3.84,12.19-7.76,2.95-4.06,2.02-8.49-.97-12.19-8.38-10.35-21.12-2.89-31.73-2.3-2.8,.16-5.74-.36-8.46-.98-1.11-.26-4.44-.93-4.94-2.19-.29-.75,3.23-2.63,3.91-2.99,3-1.6,5.99-2.21,9.37-2.18,8.55,.05,17.05,3.45,25.47,.58,5.53-1.88,11.89-6.82,11.34-13.36-.59-6.92-9.04-10.04-15.04-9.69-7.54,.45-14.53,6.15-22.1,4.08,1.23-3.43,4.1-5.6,7.81-7.14,5.4-2.27,11.28-3.3,16.95-4.7,5.43-1.33,11.12-2.92,15.59-6.43,4.58-3.6,6.12-9.01,5.36-14.65Z" style="fill:#d0d9ee; fill-rule:evenodd;"/><path d="M1262.75,1005.55c-2.85,12.37-5.32,24.83-8.87,37.03-3.65,12.53-8.84,24.1-15.99,35.01-14.76,22.53-33.55,42.06-48.76,64.27-.63,.93-.51,1.83-.02,2.49-2.93,5.55-4.63,11.83-5.85,17.85-2.13,10.48-2.77,21.23-3.2,31.91-.52,13.04-.42,26,.19,39.05,.71,15.31,1.73,30.66,1.08,46-.04,.89-.09,1.78-.14,2.67-.18,3.17,4.75,3.16,4.93,0,.85-14.97-.03-29.97-.76-44.94-.65-13.35-.95-26.62-.47-39.96,.37-10.32,.88-20.67,2.65-30.86,1.6-9.26,4.17-19.75,11.16-26.52,1-.97,.9-2.17,.28-3.04,14.21-19.32,30.51-37.07,43.66-57.16,7.05-10.75,12.07-22.36,15.77-34.66,3.73-12.43,6.2-25.19,9.1-37.83,.71-3.08-4.04-4.39-4.75-1.3Z" style="fill:#bcc9e7; fill-rule:evenodd;"/><path d="M1182.42,1282.57c-2.67-23.94-13.68-45.36-25.09-66.18-11.32-20.65-23.23-41.57-26.7-65.21-.46-3.14-5.2-1.8-4.75,1.31,6.92,47.18,46.3,82.46,51.62,130.09,.34,3.12,5.27,3.16,4.92,0Z" style="fill:#bcc9e7; fill-rule:evenodd;"/><path d="M1254.79,1170.39c-21.07,9.2-41.71,23.26-55.85,41.59-7.72,10-12.26,21.37-15.1,33.3-1.08-12.43-3.36-24.74-5.73-36.97-5.55-28.55-9.82-57.23-12.51-86.2-1.06-11.49-1.86-23.01-2.39-34.54-.14-3.16-5.07-3.17-4.92,0,1.48,32,5.16,63.84,10.12,95.49,3.36,21.4,9.03,42.54,10.67,64.17-1.85-11.69-4.65-23.23-8.24-34.48-5.13-16.08-12.04-31.72-21.01-46.05,.05-.61-.13-1.26-.64-1.83-.61-.69-1.23-1.36-1.85-2.02-2.22-3.36-4.56-6.62-7.01-9.8-1.1-1.41-2.68-.91-3.5,.24-3.77-2.89-7.79-5.46-12.13-7.71-10.12-5.23-22.72-8.63-27.56-20.09-1.23-2.92-5.48-.4-4.26,2.49,4.82,11.39,16.59,15.63,26.87,20.62,9.22,4.48,17.02,10.25,23.98,17.6,9.83,14.97,17.18,31.61,22.61,48.62,6.59,20.65,10.36,42.36,10.41,64.06,0,.11,0,.23,.02,.34-.34,1.6,.93,2.67,2.28,2.77,.66,2.23,4.62,1.92,4.84-.89,1.8-23.29,4.46-47.73,19.37-66.72,13.77-17.53,33.73-30.88,54.01-39.73,2.91-1.26,.39-5.52-2.49-4.26Z" style="fill:#aab9de; fill-rule:evenodd;"/><path d="M1107.46,1005.02c-4.47-2.26-9.54-3.16-14.48-3.72-1.31-.15-2.57,.98-2.64,2.27-.34,6.9-.39,13.82-1.26,20.67-.29,2.25-.79,5.3-1.72,6.99-.06,.1-.33,.45-.45,.61-.03-.02-.07-.04-.11-.06-.48-.28-.84-.65-1.21-1.05-6.47-6.82-7.39-16.97-13.32-24.12-3.15-3.78-8-6.96-12.6-8.63-4.98-1.81-10.25-1.24-14.53-4.84-1.56-1.32-3.58,.2-3.85,1.85-1.53,9.28-4.9,19.73-2.05,29.08,2.54,8.3,9.8,12.78,17.07,16.53,3.52,1.82,7.02,3.71,10.21,6.07,1.75,1.3,4.84,3.69,3.98,6.2-.91,2.63-5.1,.71-7.18-.06-4.24-1.6-8.25-3.81-12.27-5.88-6.65-3.46-17.01-8.57-24-3.43-3.08,2.27-2.79,6.44-1.52,9.57,2.02,4.99,6.88,9.08,11.2,12.02,9.8,6.65,22.05,4.11,32.65,8.2,2.44,.95,9.68,4.69,8.27,8.33-.49,1.26-2.7,1.97-3.83,2.3-2.79,.83-6.07,1.23-8.93,.61-10.85-2.36-18.82-11.66-29.92-13.51-4.87-.81-11.25,.31-15.14,3.44-3.3,2.66-3.36,6.99-1.84,10.6,1.83,4.38,5.89,7.88,9.75,10.42,4.46,2.96,9.54,4.79,14.87,5.18,10.69,.78,21.61-3.66,31.39,2.49,1.34,.83,2.91,2.01,3.24,3.66,.25,1.26-1.19,2.39-2.05,3.06-3.86,3-10.28,4.11-15.02,3.89-5.73-.26-11.16-3.09-16.42-5.11-5.56-2.13-11.19-3.34-17.14-2.44-4.33,.64-8.88,3.03-9.63,7.71-.7,4.3,1.83,8.44,4.45,11.61,3.47,4.19,8.16,7.36,13.1,9.54,5.34,2.35,11.84,2.04,17.49,1.36,5.87-.71,11.62-2.18,17.52-2.67,1.56-.13,2.75-.26,4.25-.85,1.6-.63,3.13-1.44,4.83-1.77,1.43-.28,1.22,1.47,1.23,2.6,.03,2.72-3.34,4.21-5.35,5.37-1.91,1.1-3.63,2.53-5.61,3.49-2.27,1.09-4.75,1.76-7.16,2.49-4.77,1.43-9.85,2.89-13.62,6.31-3.64,3.32-4.74,8.75-3.46,13.41,2.69,9.79,15.39,10.5,23.43,8.09,5.15-1.55,9-4.66,12.08-9.04,3.81-5.41,5.87-11.61,11.53-15.19,1.53,2.22,1.59,4.55,.31,7.36-1.75,3.88-5.18,7.14-8.1,10.13-5.75,5.91-14.86,13.08-15.17,22.07-.04,1.1,.58,2.15,1.65,2.51,4.81,1.58,9.8,2.26,14.63,.41,4.01-1.52,6.92-5.1,9.06-8.66,3.83-6.37,5.91-14.42,10.96-20.02-.11,2-1.04,3.78-2.16,5.97-1.98,3.93-1.98,8.08-1.04,12.3,1.43,6.4,6.39,11.7,13.18,8.51,3.71-1.74,6.53-5.37,8.73-8.68,2.53-3.79,3.89-8.21,4.44-12.71,.7-5.56-.14-11.22-1.7-16.66,10.91,8.33,28.69,14.02,35.76-1.03,6.04-12.87-13.26-11.35-22.76-14.71,1.52-.08,3.06-.02,4.53,.02,4.19,.14,8.36,.49,12.55,.25,7.82-.45,15.04-4.2,15.76-12.81,.62-7.41-7.67-6.79-12.6-6.03-4.01,.61-11.12,2.6-15.35,.28,9.12-3.17,19.26-6.68,24.35-15.22,2.3-3.88,4.3-10.18,2.67-14.64-1.32-3.63-5.68-3.08-8.52-2.05-7.73,2.79-13.37,9.45-20.89,12.75-1.81,.79-3.66,1.43-5.58,1.88-.72,.16-1.47,.29-2.21,.31-.28,0-.61-.09-.84-.14,0-.11,0-.26,.04-.44,.29-1.08,.88-2.07,1.45-3.01,1.3-2.15,2.95-3.82,5.09-5.13,4.09-2.5,8.64-4.01,12.58-6.79,4.42-3.14,7.01-7.8,8.49-12.9,1.31-4.54,2.12-9.88,.49-14.46-1.67-4.73-5.85-6.47-10.6-6.1-13.27,1.04-14.34,15.78-19.84,24.85-1.46,2.4-3.55,4.53-5.61,6.42-.84,.77-3.27,3.15-4.59,2.83-.79-.19-.34-4.15-.25-4.9,.38-3.39,1.56-6.19,3.49-8.96,4.88-7.02,12.49-12.1,14.89-20.66,1.58-5.63,1.09-13.67-4.59-16.91-6.05-3.43-13.4,1.77-16.51,6.92-3.91,6.46-3.15,15.45-9.13,20.53-2.14-2.96-2.3-6.55-1.48-10.47,1.19-5.75,3.66-11.18,5.72-16.64,1.97-5.23,3.89-10.82,3.52-16.49-.38-5.81-3.97-10.15-9.05-12.71Z" style="fill:#e9eff8; fill-rule:evenodd;"/><polygon points="1238.32 1427.26 1132.13 1427.26 1097.38 1289.97 1270.65 1289.97 1238.32 1427.26" style="fill:#bcc9e7; fill-rule:evenodd;"/><rect x="1085.8" y="1272.11" width="194.02" height="17.85" style="fill:#aab9de;"/><polygon points="1184.02 1289.97 1097.38 1289.97 1132.13 1427.26 1184.02 1427.26 1184.02 1289.97" style="fill:#aab9de; fill-rule:evenodd;"/><rect x="1085.8" y="1272.11" width="98.21" height="17.85" style="fill:#8d9fca;"/><polygon points="1238.32 1429.32 1132.13 1429.32 1097.38 1410.79 1270.65 1410.79 1238.32 1429.32" style="fill:#aab9de; fill-rule:evenodd;"/><polygon points="1184.02 1410.79 1097.38 1410.79 1132.13 1429.32 1184.02 1429.32 1184.02 1410.79" style="fill:#8d9fca; fill-rule:evenodd;"/></svg>