<?xml version="1.0" encoding="UTF-8"?><svg id="a" xmlns="http://www.w3.org/2000/svg" viewBox="0 0 2167.73 1481.91"><path d="M285.84,70.97c19.6,0,35.49-15.89,35.49-35.49S305.44,0,285.84,0s-35.49,15.89-35.49,35.48,15.89,35.49,35.49,35.49h0ZM1792.61,921.76h189.59c102.04,0,185.53,83.48,185.53,185.53h0c0,102.04-83.48,185.53-185.53,185.53H379.06c-165.23,0-300.42-135.19-300.42-300.42h0c0-165.23,135.18-300.42,300.42-300.42h0c69.86,0,127.02-57.16,127.02-127.03h0c0-69.87-57.16-127.02-127.02-127.02H226.18c-72.63,0-132.06-59.43-132.06-132.06h0c0-72.63,59.43-132.06,132.06-132.06h193.32c28.28,0,51.41-23.14,51.41-51.42h0c0-28.28-23.14-51.41-51.41-51.41h-34.07c-19.52,0-35.49-15.97-35.49-35.49h0c0-19.51,15.97-35.48,35.49-35.48h223.61c47.09,0,52.34,55.64,171.29,55.64h275.83c25.47,0,46.31,20.83,46.31,46.3h0c0,25.46-20.84,46.3-46.31,46.3h-44.46c-36.9,0-67.09,30.19-67.09,67.09h0c0,36.9,30.2,67.09,67.09,67.09h133.83c180.7,0,206.23,47.22,237.88,141.15,31.66,93.92,196.03,101.5,196.03,101.5h224.76c55.6,0,101.1,45.49,101.1,101.1h0c0,55.61-45.5,101.1-101.1,101.1h-11.57c-53.48,0-97.24,43.76-97.24,97.24h0c0,53.49,43.76,97.25,97.24,97.25h0Z" style="fill:#e0e8f5; fill-rule:evenodd;"/><ellipse cx="1051.65" cy="1413.31" rx="957.64" ry="68.6" style="fill:#c4d1eb;"/><path d="M1217.9,660.61s8.92-10.78,15.91-15.63c6.98-4.91,17.99-20.32,19.04-40.21,1.05-19.95-12.54-30.28-20.3-33.97-7.76-3.77-38.46-9.14-49.62-5.93-11.17,3.19-12.88,43.17-12.88,43.17l10.96,33.01,36.89,19.56Z" style="fill:#20386f; fill-rule:evenodd;"/><path d="M1137.63,1210.29l-.16,24.35-26.08-9.54s-14.48-22.61-33.31-52.8c11.91-5.18,24.29-9.56,36.7-14.08,12.85,30.4,22.85,52.07,22.85,52.07Z" style="fill:#f9af79; fill-rule:evenodd;"/><path d="M1109.76,1223.52s13.11-3.75,16.28-6.71c3.19-2.95,5.05-10.26,10.24-10.03,5.19,.22,23.7,17.25,25.21,22.54,1.6,5.55,1.3,12.87-1.95,15.81-3.25,3.01-60.6,39.83-72.25,43.51-11.64,3.7-21.62-4.83-13.62-16.09,8-11.27,28.41-49.31,36.09-49.03Z" style="fill:#0e2952; fill-rule:evenodd;"/><path d="M1212.45,909.75s-228.96,30.33-232.67,59.11c-8.7,67.28,118.41,244.05,118.41,244.05l35.74-15.61-64.15-185.71s102.28-10.1,111.41-16.49c9.16-6.37,31.26-85.36,31.26-85.36Z" style="fill:#20386f; fill-rule:evenodd;"/><path d="M1299.33,1354.89l-4.19,24.01-24.15-13.72s-10.58-24.68-24.15-57.61c12.61-3.11,25.53-5.44,38.53-7.83,7.68,32.09,13.96,55.14,13.96,55.14Z" style="fill:#f9af79; fill-rule:evenodd;"/><path d="M1269.64,1363.36s13.57-1.55,17.19-3.92c3.63-2.37,6.69-9.27,11.75-8.2,5.08,1.06,20.54,20.91,21.15,26.32,.67,5.75-.85,12.92-4.53,15.33-3.71,2.43-78.85,32.59-90.95,34.32-12.11,1.73-13.91-10.76-4.15-20.52,9.73-9.83,42.04-44.9,49.55-43.31Z" style="fill:#0e2952; fill-rule:evenodd;"/><path d="M1171.02,931.71l21.56-28.2s65.9,9.9,74.43,39.62c8.53,29.72-5.23,217.41-5.23,217.41,0,0,25.63,128.52,36.79,175.16-13,2.38-31.16,6.1-43.79,9.23-23.49-56.99-71.85-181-71.85-181l-20.88-170.85,8.95-61.37Z" style="fill:#223f81; fill-rule:evenodd;"/><path d="M1085.5,473.19c-4.6,14.63-6.79,13.28-7.31,15.17-.63,2.2,8.13,32.18,8.13,32.18,0,0,25.29,88.37,26.84,93.14l60.18,72.49-26.29,40.84s-63.43-80.64-66.03-85.46c-2.62-4.77-23.32-128.37-25.49-139.21,0,0-7.2-11.94-11.48-19.56-4.28-7.64-5.03-16.88-5.92-19.22-.14-.35-2.64-8.3-3.2-18.98-.46-9.19,4.07-.68,4.07-.68,0,0,3.83,16.85,5.06,16.36,.95-.4-1.67-9.53-2.29-19.72-.16-2.59-.31-5.19-.43-7.52-.3-6.21,3.31-8.2,4.64-1.73,.48,2.27,1.15,6.11,1.29,8.89,.13,2.98,1.18,5.73,1.68,8.26,.96,4.98,1.59,8.62,1.78,8.46,.24-.22,1.09,.64,1.01-2.13-.11-3.36-1.84-10.4-1.64-15.31,.13-2.8,.03-8.65,.03-8.65,0,0,1.47-8.85,2-8.94,2.88-.45,3.55,5.89,2.88,9.69,.79,2.65,.72,8.79,.72,8.79,0,0,2.57,12.46,4.28,12.12,.73-.12,.05-8.01,.56-15.81,.47-7.23,2.09-14.44,3.51-14.57,2.38-.22,2.69,7.92,2.69,7.92,0,0-.07,5.7,.04,7.58,.14,2.21,1.02,8.84,1.02,8.84,0,0,4.15,22.88,5.76,22.39,1.6-.48,5.24-3.36,5.45-4.86,.23-1.5-.78-4.5-.57-6,.23-1.5,1.77-3.28,3.59-3.15,1.81,.13,3.47,7.87,3.47,7.87,0,0,1.3,6.26-.03,10.52Z" style="fill:#f9af79; fill-rule:evenodd;"/><path d="M1142.59,644.88c2.91-.18,69.48,58.89,67.21,76.83-2.24,17.95-32.93,41.57-52.28,26.38-19.34-15.27-54.78-69.03-54.78-69.03,0,0,30.44-33.61,39.84-34.18Z" style="fill:#6d96ce; fill-rule:evenodd;"/><path d="M1172.46,691.6c-.82,.56-27.96,39.7-29.72,70.95-3.23,57.16,8.95,153.5,18.66,158.45,77.89,39.55,111.34,26.43,111.34,26.43,0,0-2.24-175.66-14.18-217.51-4.99-17.38-12.12-32.77-29.79-38.82-4.03-1.43-37.44-12.61-56.31,.5Z" style="fill:#6d96ce; fill-rule:evenodd;"/><path d="M1181.91,660.07l-9.66,32.91s-2.52,9.24,1.49,13.74c6.88,7.84,42.63-18.99,42.63-18.99l6.19-53.41-40.64,25.75Z" style="fill:#f9af79; fill-rule:evenodd;"/><path d="M1220.7,650.4c-11.26,20.12-32.85,26.9-43.74,26.55l4.95-16.88,40.64-25.75-1.86,16.09Z" style="fill:#ed7d57; fill-rule:evenodd;"/><path d="M1215.63,578.15c-14.5-9.07-33.73-2.44-39.87,13.26-2.68,6.77-5.68,15.47-8.1,25.11-5.8,23.27,1.04,48.81,11.64,51.22,10.59,2.47,43.39-5.89,52.11-38.78,5.39-20.33-.54-41.28-15.77-50.81Z" style="fill:#f9af79; fill-rule:evenodd;"/><path d="M1222.99,629.76c-1.2,5.17,1.26,10.11,5.47,11.12,4.21,.95,8.58-2.44,9.79-7.61,1.18-5.11-1.27-10.1-5.48-11.05-4.19-1.01-8.58,2.38-9.78,7.55Z" style="fill:#f9af79; fill-rule:evenodd;"/><path d="M1232.77,622.22s4.34-10.77,5.24-21.77c.87-10.94-5.34-27.71-15.9-31.91-10.54-4.19-36.84-4.61-38.9-12.16-2.06-7.56-2.18-6.87-3.13-8.13-2.13-2.95-19.29,4.57-21.85,22.97-2.59,18.4,13.65,20.66,16.67,21.72,3.04,1.12,33.72-5.83,42.32-3.71,8.62,2.06,15.55,33,15.55,33Z" style="fill:#20386f; fill-rule:evenodd;"/><path d="M1377.27,502.32c1.67,15.25,4.07,14.35,4.23,16.31,.19,2.28-14.23,29.99-14.23,29.99,0,0-41.99,81.77-44.42,86.14l-73.12,59.41,17.85,45.17s77.9-66.78,81.38-71.01c3.49-4.17,47.83-121.39,52.05-131.6,0,0,9.38-10.31,15.06-16.96,5.68-6.65,8.22-15.58,9.54-17.7,.21-.31,4.2-7.63,6.82-18,2.25-8.93-3.86-1.46-3.86-1.46,0,0-7.04,15.79-8.15,15.07-.85-.58,3.49-9.03,6.08-18.9,.67-2.51,1.31-5.03,1.89-7.29,1.5-6.04-1.66-8.68-4.23-2.6-.9,2.13-2.31,5.77-2.99,8.47-.71,2.89-2.27,5.39-3.25,7.78-1.91,4.7-3.24,8.15-3.39,7.96-.19-.25-1.19,.42-.58-2.28,.76-3.27,3.83-9.85,4.59-14.69,.42-2.77,1.65-8.5,1.65-8.5,0,0,.28-8.96-.22-9.16-2.74-1-4.62,5.09-4.71,8.95-1.3,2.44-2.42,8.48-2.42,8.48,0,0-4.93,11.72-6.55,11.06-.7-.26,1.5-7.87,2.52-15.61,.94-7.18,.75-14.57-.6-14.98-2.3-.67-4.17,7.25-4.17,7.25,0,0-1.04,5.6-1.52,7.43-.57,2.14-2.72,8.48-2.72,8.48,0,0-8.52,21.63-10,20.84-1.48-.78-4.48-4.31-4.4-5.83,.06-1.51,1.63-4.27,1.72-5.78,.07-1.52-1.1-3.56-2.91-3.78-1.8-.22-4.93,7.05-4.93,7.05,0,0-2.5,5.89-2.02,10.32Z" style="fill:#f9af79; fill-rule:evenodd;"/><path d="M1287.91,659.64c-2.83-.74-30.15,32.61-69.91,36.32-1.3,18.04,8.56,110.99,30.49,99.84,14.35-35.19,71.85-94.89,71.85-94.89,0,0-23.33-38.89-32.44-41.27Z" style="fill:#6d96ce; fill-rule:evenodd;"/><path d="M1193.1,648.25c-7.84,.04-12.19-.24-19.81-.89-3.05-.27,3.23,8.24,20.23,1.34,.4-.16,.18-.45-.42-.45Z" style="fill:#fff; fill-rule:evenodd;"/><path d="M1200.75,607.1c-3.8,.28-3.59,3.32-.78,4.04,30,7.52,10.21-4.75,.78-4.04Z" style="fill:#20386f; fill-rule:evenodd;"/><path d="M1184.24,604.53c3.57,1.37,2.48,4.21-.42,4.09-30.89-1.51-8.4-7.51,.42-4.09Z" style="fill:#20386f; fill-rule:evenodd;"/><path d="M1185.29,638.2l-.19-.02c-3.32-.73-5.08-1.18-5.71-2.44-.58-1.14,0-2.44,1.04-4.79,1.17-2.58,2.93-6.52,4.45-13.01,.11-.47,.59-.75,1.06-.66,.47,.11,.77,.58,.66,1.07-1.55,6.64-3.36,10.67-4.55,13.33-.69,1.54-1.28,2.87-1.08,3.27,.28,.56,2.63,1.08,4.52,1.5,.46,.11,.77,.58,.66,1.07-.08,.4-.45,.68-.86,.68Z" style="fill:#eb795b; fill-rule:evenodd;"/><path d="M1174.73,623.36c-2.17-.22-2.99-8.67,2.26-8.1,2.81,.3,1.27,8.48-2.26,8.1Z" style="fill:#20386f; fill-rule:evenodd;"/><path d="M1201.81,626.76c-2.17-.24-2.99-8.67,2.27-8.1,2.82,.3,1.28,8.48-2.27,8.1Z" style="fill:#20386f; fill-rule:evenodd;"/><path d="M254.56,1389.3c-9.68,.91-.52,8.11-6.77,10.06-14.12-7-22.6-27.29-28.48-36.16-3.09-4.67-4.95,1.5-6.11,8.37-2.44,14.46-1.65,33.31,1.88,39.57-4.11-2.45-8.01-5.99-10.37-12-8.46,.92-1.57,8.11-7.03,10.06-12.34-7-18.64-27.29-23.77-36.16-2.71-4.67-4.33,1.5-5.34,8.37-2.17,14.76-1.42,31.85,1.83,37.71,3.97-1.26,4.59-15.91,6.31-24.28,12.27,11.52,9.04,24.93,16.23,29.13,16.93,1.36,18.92,6.11,38.87,1.21,1.58-8.43-7.82-8.87-16.41-13.85,2.3-4.68,3.91-18.07,5.85-26.33,14.04,11.51,11.61,24.92,19.84,29.13,19.37,1.36,29.82,1.47,44.48,1.2,2.72-12.57-22.58-7.35-31-26.03Z" style="fill:#0e2952; fill-rule:evenodd;"/><path d="M158.81,714.49c-1.07,5.28-2.61,9.41-4.6,12.41-3.96,1.88-8.42,5.73-13.4,11.53-4.95-.97-10.26-2.85-15.92-5.6-22.45-37.16-43.25-69.97-62.39-98.43-.26,18.91-9.2,25.65-26.8,20.21,35.35,66.79,56.98,104.1,64.9,111.93,13.85,19.22,28.93,32.7,45.26,40.42,32.44,36.75,34.34,81.86,5.71,135.34,60.56,9.08,88.25-15.67,83.04-74.25-6.93-44.32-18.65-86.93-35.15-127.86-20.26-7.92-33.81-16.49-40.65-25.69Z" style="fill:#6d96ce; fill-rule:evenodd;"/><path d="M223.93,734.65c.24-7.42-2.33-21.99-16.47-36.47,5.95,1.5,11.99,3.61,18.12,6.31,1.89-.37,5.37-.77,10.44-1.2,7.65-8.88,13.29-21.29,16.92-37.24,5.27-28.01,9.26-59.97,11.97-95.89,9.52,5.81,27.6,6.5,32.07,3.95-5.5,66.91-14.55,113.1-27.14,138.57-4.89,13.66-1.16,26.48-4.83,45.03,19.49,24.19,26.82,46.02,21.97,65.47-10.62,24.13-3.37,60.82,21.75,110.06-42.73,6.61-63.23-12.5-61.51-57.33-4.55-57.5-14.07-110.29-23.29-141.26Z" style="fill:#6d96ce; fill-rule:evenodd;"/><path d="M229.6,913.66c7.39-.26,15.42-.23,24.09,.08-4.92-9.41-7.08-22.02-6.47-37.83-4.04-51.09-12.01-98.49-20.21-130.15-6.65,7.12-14.34,9.09-23.06,5.92,14.15,37.39,24.37,76.18,30.66,116.37,1.65,18.62-.02,33.82-5.01,45.61Z" style="fill:#fff; fill-rule:evenodd;"/><path d="M286.73,1200.39c20.43-101.2,30.8-190.94,11.98-266.04-22.13,1.37-37.14-5.51-45.03-20.61-8.68-.31-16.7-.34-24.09-.08-10,23.61-33.33,33.5-70.01,29.67-25.53,48.49-6.25,82.33,6.38,127.69,9.27,33.29,11.46,71.37,3.68,131.58-4.46,27.19-4.32,78.3,.43,153.34,14.04,2.83,25.61,1.14,34.71-5.05-2.75-48.96,1.78-97.58,13.62-145.88,11.45-50.05,16.72-103.95,15.82-161.69,9.26,71.35,9.12,124.52-.44,159.5-9.54,41.3-14.81,89.93-15.82,145.87,11.12,4.43,20.93,4.14,29.44-.88,11.39-63.71,14.98-110.65,39.32-147.41Z" style="fill:#20386f; fill-rule:evenodd;"/><path d="M205.92,700.42c-5.17,19.21-18.82,23.8-40.98,13.75l4.97,10.83c7.36,5.3,17.21,10.37,29.55,15.19,1.54,3.82,3.03,7.64,4.49,11.49,8.72,3.17,16.41,1.2,23.06-5.92-1.02-3.95-2.05-7.66-3.08-11.1,.18-5.6-1.24-15.28-8.04-25.92-2.9-1.32-6.23-4.1-9.97-8.31Z" style="fill:#f9af79; fill-rule:evenodd;"/><path d="M164.94,714.16c18.15,4.94,31.81,.36,40.98-13.75,.52-.8,1.02-1.63,1.52-2.5-.47-5.61,.36-13.95,2.48-25.01-8.33-4.78-15.73-16.5-22.19-35.15-5.37,2.25-10.5-.9-15.38-9.44-7.18,16.13-18.6,25.21-34.27,27.24,4.07,11.48,4.87,21.52,2.42,30.1,9.69,8.74,15.62,17.53,17.8,26.36,2.28,.86,4.49,1.58,6.65,2.16Z" style="fill:#f9af79; fill-rule:evenodd;"/><path d="M169.91,725l-4.97-10.83c-2.15-.58-4.37-1.3-6.65-2.16,.2,.83,.38,1.66,.51,2.49,2.68,3.6,6.37,7.1,11.1,10.5Z" style="fill:#466fb5; fill-rule:evenodd;"/><path d="M205.92,700.42c3.75,4.21,7.07,6.99,9.97,8.31-2.2-3.45-4.97-7-8.43-10.55,0-.08-.02-.17-.02-.26-.49,.86-1,1.69-1.52,2.5Z" style="fill:#466fb5; fill-rule:evenodd;"/><path d="M132.98,736.25c2.7,.96,5.31,1.69,7.83,2.18,4.97-5.8,9.44-9.65,13.4-11.53,1.99-2.99,3.53-7.13,4.6-12.41-.14-.83-.31-1.66-.51-2.49-2.18-8.83-8.11-17.61-17.8-26.36,2.45-8.58,1.65-18.62-2.42-30.1,15.66-2.03,27.09-11.11,34.27-27.24,4.88,8.55,10,11.69,15.38,9.44,6.46,18.66,13.86,30.37,22.19,35.15-2.12,11.06-2.95,19.4-2.48,25.01,0,.09,.02,.17,.02,.26,5.95,1.5,11.99,3.61,18.12,6.32,1.39-.27,3.63-.56,6.73-.87-3.01-3.68-6.39-9.34-10.14-16.98,2.48-6.18,1.97-14.17-1.53-23.95-6.72-42.03-23.57-57.92-50.53-47.68-25.49-9.32-41.82,5.69-48.99,45.04-12.88,9.96,8.97,38.08,10.1,55.8-.15,8.2,.44,15,1.76,20.39Z" style="fill:#20386f; fill-rule:evenodd;"/><path d="M223.93,734.65c5.25,3.41,9.56,6.9,12.95,10.43,.14-13.64-3.9-27.29-12.1-40.95-5.86-2.54-11.63-4.53-17.32-5.96,3.46,3.55,6.23,7.1,8.43,10.55,6.79,10.64,8.22,20.32,8.04,25.92Z" style="fill:#466fb5; fill-rule:evenodd;"/><path d="M190.2,762.55c2.59-9.8,5.68-17.25,9.26-22.36-12.34-4.82-22.19-9.89-29.55-15.19-4.73-3.4-8.42-6.91-11.1-10.5-1.07,5.28-2.61,9.41-4.6,12.41,11.83,18.99,23.82,30.87,35.99,35.65Z" style="fill:#466fb5; fill-rule:evenodd;"/><path d="M219.34,1363.24c5.88,8.9,14.35,29.13,28.45,36.12,5.23-1.63-.33-6.93,3.38-9.16-4.66-10.93-7.14-24.45-7.45-40.56-6.65,2.76-14.03,2.87-22.14,.33-.56,4.39-1.31,8.82-2.24,13.27h0Zm-43.19-6.35c.81,7.96,.65,14.45-.48,19.51,4.85,9.87,11.04,26.58,22.01,32.8,4.5-1.61,.61-6.77,3.83-9.05-3.78-11.31-4.91-26.55-3.39-45.72-6.37,2.57-13.69,3.39-21.97,2.46Z" style="fill:#f9af79; fill-rule:evenodd;"/><path d="M164.94,714.16c20.38,13.14,42.28,8.26,40.98-13.75-9.17,14.1-22.83,18.69-40.98,13.75Z" style="fill:#ed7d57; fill-rule:evenodd;"/><path d="M257.7,524.96c7.91,12.27,9.67,10.45,10.61,12.09,1.16,1.85,.28,31.46,.28,31.46l-.13,3.43c7.67,3.2,18.17,4.1,24.37,3.3-.01-10.47,.4-29.96,.33-31.04,0,0,3.85-12.71,6.01-20.77,2.14-8.07,.59-16.65,.84-19.04,.02-.33,.44-8.28-1.71-18.13-1.78-8.56-3.95,.32-3.95,.32,0,0,.52,16.42-.76,16.21-1.02-.12-.78-9.09-2.69-18.54-.5-2.44-1-4.8-1.49-6.98-1.24-5.76-5.11-6.71-4.79-.44,.12,2.21,.44,5.85,1.01,8.42,.59,2.83,.26,5.58,.44,7.99,.32,4.79,.6,8.33,.41,8.22-.24-.15-.86,.87-1.46-1.7-.74-3.08-.82-9.95-2.25-14.42-.79-2.54-2.16-7.88-2.16-7.88,0,0-3.17-8.48-3.7-8.4-2.81,.28-2.28,7.01-.72,10.25-.12,2.63,1.48,8.21,1.48,8.21,0,0,.66,12.07-1.03,12.19-1.42,.13-8.62-28.46-11.39-28-2.3,.42-.53,9.13-.53,9.13,0,0,1.49,5.17,1.84,6.94,.41,2.06,1.19,8.36,1.19,8.36,0,0,1.73,21.92,.09,21.91-1.63,0-5.76-1.76-6.33-3.09-.58-1.34-.36-4.33-.96-5.59-.58-1.33-2.48-2.57-4.14-2.01-1.69,.62-1.34,8.06-1.34,8.06,0,0,.32,6.03,2.63,9.56Z" style="fill:#f9af79; fill-rule:evenodd;"/><path d="M278.76,531.54c-1.61-6.31-5.03-10.92-10.94-13.51,7.35-.16,12.13,7.41,10.94,13.51Z" style="fill:#f48661; fill-rule:evenodd;"/><path d="M54.01,600c-1.67,14.5-4.05,13.65-4.17,15.53-.18,1.72,8.54,18.56,12.14,25.43-1.8,11.66-8.28,16.72-19.44,15.22-4.8-9.56-11.46-22.4-11.82-23.25,0,0-9.07-9.7-14.57-15.97-5.49-6.29-7.9-14.67-9.18-16.7-.16-.29-4.06-7.23-6.48-17.02-2.19-8.47,3.68-1.46,3.68-1.46,0,0,6.79,14.95,7.85,14.21,.86-.56-3.33-8.5-5.79-17.82-.63-2.4-1.22-4.75-1.75-6.92-1.43-5.72,1.61-8.28,4.11-2.52,.87,2.04,2.2,5.44,2.81,8,.72,2.79,2.23,5.12,3.14,7.35,1.83,4.44,3.15,7.73,3.27,7.55,.16-.24,1.16,.4,.55-2.17-.69-3.09-3.66-9.29-4.36-13.93-.41-2.62-1.55-8.02-1.55-8.02,0,0-.91-9.01-.4-9.16,2.64-1,5.13,5.27,5.17,8.87,1.28,2.31,2.31,8.02,2.31,8.02,0,0,4.74,11.12,6.32,10.48,1.33-.51-4.86-29.33-2.17-30.16,2.25-.64,4.51,7.95,4.51,7.95,0,0,.95,5.29,1.42,7.04,.54,2.02,2.63,8.02,2.63,8.02,0,0,8.14,20.42,9.61,19.69,1.46-.72,4.39-4.13,4.31-5.57-.08-1.46-1.6-4.04-1.62-5.44-.06-1.46,1.09-3.4,2.82-3.64,1.79-.19,4.77,6.64,4.77,6.64,0,0,2.37,5.55,1.86,9.74Z" style="fill:#f9af79; fill-rule:evenodd;"/><path d="M38.03,615.22c-1.35-6.37-.33-12.02,3.83-16.96-6.66,3.11-7.59,12.01-3.83,16.96Z" style="fill:#f48661; fill-rule:evenodd;"/><path d="M157.78,678.42c-2,.71-6.32-6.65-1.45-8.38,2.6-.91,4.72,7.2,1.45,8.38Z" style="fill:#20386f; fill-rule:evenodd;"/><path d="M192.16,666.22c2-.71,.84-9.16-4.03-7.44-2.6,.92,.74,8.62,4.03,7.44Z" style="fill:#20386f; fill-rule:evenodd;"/><path d="M155.59,662.44c3.27-1.02,4.1,1.68,2,3.23-.61,.46-12.81,7.68-12.51,6.67,.52-2.08,4.32-7.96,10.51-9.91Z" style="fill:#20386f; fill-rule:evenodd;"/><path d="M182.43,652.05c-3.25,1.12-2.35,3.81,.26,3.8,1.23,0,15-1.35,13.83-2.2-1.93-1.37-8.17-3.65-14.09-1.6Z" style="fill:#20386f; fill-rule:evenodd;"/><path d="M180.27,685.49c-6.96,3.76-6.83,.14-4.65,.09,7.24-.18-.3-2.72-1.82-15.02-.14-1.29,1.3-1.45,1.57-.4,.18,.72,.53,3.43,.79,4.2,3.04,9.41,6.35,9.92,4.11,11.13Z" style="fill:#ed7d57; fill-rule:evenodd;"/><path d="M190.69,693.81c-5.56,20.69-19.69,6.37-16.92,5.24,14.08-5.74,17.61-7.77,16.92-5.24Z" style="fill:#fff; fill-rule:evenodd;"/><path d="M712.14,1250.69s-37.48,27.04-43.37,35.07c-8.5,11.62,63.46,33.31,55.62,19.72-1.8-3.11-6.98-13.67-7.22-14.65-1.19-5.56,14.07-20.42,14.07-20.42l-19.09-19.71Z" style="fill:#f9af79; fill-rule:evenodd;"/><path d="M743.85,1328.23l-25.45-35.99s-15.86-3.66-32.19-22.04c0,0-14.65,5.56-23.66,17.74,0,0,17.04,18.31,43.28,39.02,0,0,15.56,13.73,37.04,21.06,21.52,7.25,.97-19.79,.97-19.79Z" style="fill:#0e2952; fill-rule:evenodd;"/><path d="M399.02,758.39s4.61,4.09,6.24,5.36c1.91,1.4,7.96,5.35,7.96,5.35,0,0,21.87,12.39,22.6,10.77,.74-1.62,.72-6.34-.36-7.6-1.09-1.2-4.23-2.54-5.31-3.73-1.08-1.27-1.45-3.74-.06-5.15,1.38-1.41,8.86,2.68,8.86,2.68,0,0,6.05,3.38,8.58,7.46,8.78,14.02,6.11,14.86,7.28,16.62,1.39,2.11,32.05,16.06,32.05,16.06,0,0,91.7,38.1,96.64,40.21h.07c.67,4.23-1.6,8.1-2.77,11.91-2.19,13.09-6.09,13.94-9.06,26.55-14.07-7.12-111.42-60.71-121.33-66.34,0,0-14.83-2.55-24.08-4.37-9.28-1.9-17.34-7.82-19.88-8.74-.39-.14-8.67-3.66-17.79-10.77-7.85-6.05,2.3-3.8,2.3-3.8,0,0,16.5,8.8,16.93,7.39,.32-1.06-8.96-5.35-17.71-11.97-2.26-1.69-4.47-3.38-6.5-5-5.31-4.08-4.38-8.45,1.84-4.99,2.21,1.26,5.81,3.38,8.18,5.2,2.56,2.05,5.52,3.11,7.93,4.44,4.77,2.75,8.21,4.79,8.21,4.58,0-.35,1.3-.49-1.04-2.39-2.79-2.26-9.8-5.78-13.67-9.44-2.21-2.04-7.06-6.13-7.06-6.13,0,0-6.23-7.4-5.93-7.88,1.65-2.68,7.31,1.26,9.93,4.43,2.7,1.2,7.69,5.63,7.69,5.63,0,0,12.03,6.69,12.96,4.99,.39-.7-6.52-5.63-12.55-11.54-5.61-5.5-10.4-11.91-9.51-13.17,1.51-2.05,8.36,3.38,8.36,3.38Z" style="fill:#f9af79; fill-rule:evenodd;"/><path d="M849.46,443.01s1.24,5.77,1.52,7.75c.3,2.33,.69,9.37,.69,9.37,0,0-.17,24.58-1.99,24.51-1.82-.07-5.98-2.19-6.52-3.67-.54-1.48-.06-4.86-.6-6.33-.54-1.48-2.58-2.89-4.51-2.33-1.93,.63-2.12,8.94-2.12,8.94,0,0-.13,6.76,2.17,10.78,7.95,13.87,10.04,11.97,10.99,13.73,1.15,2.18-2.19,35.14-2.19,35.14,0,0-13.09,96.98-13.76,102.19l-.04,.07c3.4,2.46,8.02,2.18,11.92,2.82,12.66,3.87,15.41,.84,28.07,3.87,.88-15.49,3.19-124.24,3.3-135.36,0,0,5.3-14.09,8.36-23.03,3.05-8.95,2-18.6,2.47-21.2,.07-.42,1.14-9.22-.45-20.28-1.36-9.58-4.51,.28-4.51,.28,0,0-.7,18.31-2.12,18.1-1.13-.21-.16-10.21-1.56-20.78-.34-2.75-.71-5.42-1.06-7.89-.96-6.48-5.25-7.61-5.35-.63-.05,2.46-.03,6.55,.43,9.44,.46,3.17-.14,6.2-.14,8.94-.02,5.35,.05,9.23-.19,9.16-.28-.14-1.04,.92-1.51-1.9-.57-3.52-.14-11.2-1.37-16.2-.69-2.82-1.8-8.88-1.8-8.88,0,0-3.41-8.73-3.99-8.66-3.19,.28-2.61,6.97-1.15,10.63-.3,2.89,1.03,9.23,1.03,9.23,0,0-.19,13.45-2.12,13.59-.82,0-1.69-8.24-3.84-16.13-1.99-7.32-5.23-14.37-6.76-14.08-2.6,.35-1.28,8.8-1.28,8.8Z" style="fill:#f9af79; fill-rule:evenodd;"/><path d="M654.83,973.05l5.91,29.3,148.99,135.5-106.63,107.97,28.78,29.37s157.51-115.65,163.18-130.79c8.76-23.31-112.89-177.9-112.89-177.9l-127.33,6.55Z" style="fill:#20386f; fill-rule:evenodd;"/><path d="M550.43,1328.65s-37.47,27.04-43.36,35.07c-8.5,11.62,63.45,33.32,55.61,19.72-1.79-3.1-6.98-13.59-7.22-14.65-1.19-5.55,14.07-20.42,14.07-20.42l-19.1-19.71Z" style="fill:#f9af79; fill-rule:evenodd;"/><path d="M582.19,1406.33l-25.45-35.99s-16.9-3.03-33.21-21.34c0,0-13.63,4.93-22.64,17.05,0,0,17.03,18.38,43.26,39.01,0,0,15.57,13.81,37.06,21.06,21.5,7.25,.98-19.79,.98-19.79Z" style="fill:#0e2952; fill-rule:evenodd;"/><path d="M659.93,986.65l6.69,184.94-125.96,154.45,29.52,27.19s146.25-125.51,162.3-160.44c9.96-21.77,43.47-217.69,43.47-217.69l-116.02,11.55Z" style="fill:#223f81; fill-rule:evenodd;"/><path d="M780.11,971.51c-12.12-27.4-10.73-223.4-57.89-269.32-16.58,2.75-28.42,4.37-31.19,5.07-2.45,20.22-5.16,94.3-6.83,162.2-1.11,45.28,.04,92.75-5.53,117.75-3.46,15.49,112.49,9.23,101.44-15.7Z" style="fill:#fff; fill-rule:evenodd;"/><path d="M652.45,717.4c-13.25,2.96-22.97,9.16-40.31,34.79-16.62,24.58-53.51,78.74-53.51,78.74l-97.17-43.17-4.53,49.23s109.91,57.12,125.4,51.98c15.53-5.15,55.14-61.98,58.37-66.28,.74-.98-2.77,68.67-2.77,79.73s-17.99,99.59-17.99,99.59c0,0,53.45,13.17,63.89-10.78,31.99-73.24,7.43-284.04,7.43-284.04,0,0-29.28,8.03-38.81,10.22Z" style="fill:#466fb5; fill-rule:evenodd;"/><path d="M733.16,713.6s21.67,57.96,37.43,50.15c15.76-7.89,101.71-101.56,102.6-105.93,.86-4.37,7-115.08,7-115.08l-35-7.05-23.47,89.87s-61.42,62.75-74.56,68.88c-13.13,6.13-14,19.16-14,19.16Z" style="fill:#466fb5; fill-rule:evenodd;"/><path d="M784.83,984.61c10.61,0,14.53-1.48,21.57-3.6,0,0-20.18-113.74-31.9-226.56-4.64-44.59-8.96-62.83-27.34-59.59-5.31,.91-19.7,6.41-24.93,7.32,46.19,130.65,46.34,231.29,52.89,260.45,3.27,14.65,6.13,22.04,9.7,21.98Z" style="fill:#466fb5; fill-rule:evenodd;"/><path d="M717.36,682.4l4.83,19.79s1.1,17.18-6.88,18.74c-9.62,1.83-23.93-12.54-23.93-12.54l-8.28-55.71,34.25,29.72Z" style="fill:#f7a390; fill-rule:evenodd;"/><path d="M717.36,682.4l4.83,19.79s1.1,17.18-6.88,18.74c-9.62,1.83-23.93-12.54-23.93-12.54l-8.28-55.71,34.25,29.72Z" style="fill:#f9af79; fill-rule:evenodd;"/><path d="M683.19,652.89l34.18,29.51,3.6,14.79c-13.05-3.17-31.66-17.54-37.78-44.3Z" style="fill:#ed7d57; fill-rule:evenodd;"/><path d="M717.47,601.69c8.26,0,15.69,5.7,18.6,13.94,2.4,6.83,5.5,16.98,7.45,28.6,3.62,21.41-8.58,40.99-19.18,42.61-10.62,1.55-35.9-5.49-41.48-35.85-2.41-12.96-5.55-30.07,5.13-39.02,8.32-6.97,19.98-10.28,29.48-10.28Z" style="fill:#f9af79; fill-rule:evenodd;"/><path d="M686.31,674.16s-37.41-33.38-39.04-59.44c-1.65-25.99,22.41-39.93,42.98-40.71,9.3-.28,15.59,.14,25.17,1.34,20.61,2.6,33.96,11.69,29.26,28.6-6.31,22.68-49.07,3.52-57.8,10.56-7.22,5.85,4.47,19.79-2.54,25.07-6.59,5.07-3.23,3.38-1.06,12.89,2.19,9.51,3.03,21.69,3.03,21.69Z" style="fill:#20386f; fill-rule:evenodd;"/><path d="M671.87,643.94c.93,6.2,4.75,10.84,8.54,10.28,3.77-.56,6.08-6.06,5.15-12.33-.93-6.27-4.75-10.84-8.51-10.28-3.8,.56-6.09,6.06-5.19,12.33Z" style="fill:#f9af79; fill-rule:evenodd;"/><path d="M710.54,646.78c-2.03,.62-6.02-6.91-1.1-8.42,2.65-.8,4.41,7.4,1.1,8.42Z" style="fill:#20386f; fill-rule:evenodd;"/><path d="M736.27,639.4c2.03-.62,1.23-9.12-3.71-7.6-2.64,.8,.37,8.64,3.71,7.6Z" style="fill:#20386f; fill-rule:evenodd;"/><path d="M709.04,630.73c3.31-.89,4.03,1.86,1.86,3.31-.63,.44-13.13,7.13-12.79,6.13,.61-2.05,4.65-7.76,10.92-9.44Z" style="fill:#20386f; fill-rule:evenodd;"/><path d="M727.15,624.82c-3.29,.98-2.51,3.7,.1,3.81,1.23,.04,15.04-.7,13.91-1.6-1.88-1.46-8-4-14.01-2.21Z" style="fill:#20386f; fill-rule:evenodd;"/><path d="M732.7,654.81c-7.12,3.45-6.83-.15-4.65-.11,7.25,.13-.18-2.73-1.17-15.09-.08-1.3,1.36-1.39,1.59-.33,.14,.73,.38,3.45,.6,4.23,2.64,9.53,5.91,10.18,3.63,11.3Z" style="fill:#ed7d57; fill-rule:evenodd;"/><path d="M735.56,659.98c-6.44,20.44-19.94,5.53-17.13,4.51,14.31-5.13,17.92-7.01,17.13-4.51Z" style="fill:#fff; fill-rule:evenodd;"/><path d="M1623.95,673.48c2.82-18.82,5.75-37.67,23.1-52.92,14.04-12.3,31.53-15.8,48.58-11.51,48.28,12.16,36.59,54.96,73.55,89.85,15.8,14.87,35.87,20,48.8,36.39,23.38,29.54,20.12,86.22-17.93,125.63-93.17,96.54-180.15-23.17-186.37-51.57-4.63-21.1,8.45-123.76,10.26-135.87Z" style="fill:#20386f; fill-rule:evenodd;"/><path d="M1606.69,1286.45c3.2,24.93,9.6,47.07,10.5,49.72,.45,1.25,4.9,6,5.38,7.24-3.95,29.95-23.13,46.77-40.96,58.5,4.46-14.94,13.6-31.88,12.69-35.31-1.47-5.44-6.96-30.37-19.67-61.99,14.41-.86,19.96-9.65,32.06-18.15Z" style="fill:#f9af79; fill-rule:evenodd;"/><path d="M1649.17,922.04l94.04,65.07s-41.34,47.4-56.86,65.02c-15.51,17.62-95.36,82.93-96.53,86.87-.26,.77,4.86,9.4,7.08,20.5,6,30.02,14.61,88.63,19.66,139-8.77,10.72-29.26,14.65-41.35,18.74-35.05-59.75-55.01-178.05-55.98-192.41-1.51-23.32,129.95-202.79,129.95-202.79Z" style="fill:#20386f; fill-rule:evenodd;"/><path d="M1919.47,1058.67c-3.31,2.42-28.02,38.49-38.28,58.34-9.74-8.77-15.05-18.22-26.36-24.85,11.44-12.76,34.67-44.2,37.34-52.16,6.29-18.78,10.92-20.93,10.92-20.93,0,0,59.2,31.81,62.5,38.7,3.28,6.8-32.83-9.17-46.12,.91Z" style="fill:#f9af79; fill-rule:evenodd;"/><path d="M1890.83,1044.2c-4.83-.72,3.59-22.71,5.47-27.74,2.06-5.71,5.57-6.99,6.43-7.09,2.3-.15,68.12,35.25,78.54,45.84,.73,.72,1.88,2.84,2.04,3.28,4.67,13.52-52.74,6.84-60.18,.04-6.62-5.95-10.55-10.88-32.29-14.33Z" style="fill:#0e2952; fill-rule:evenodd;"/><path d="M1631.44,944.22l75.86-38.1c-.29,.22,.7,3.32,.77,3.54,9.28,29.26,47.58,15.25,67.1,65.93,13.77,35.73,16.81,159.12,16.81,159.12,0,0,34.49-29.44,70.67-60.73,3.32-2.82,33.03,25.59,33.03,25.59-45.57,91.34-123.68,131.17-134.22,127.85-35.92-11.14-105.44-241.7-105.36-241.72-7.77-13.5-24.67-41.49-24.67-41.49Z" style="fill:#223f81; fill-rule:evenodd;"/><path d="M1743.37,737.37s94.52-26.46,115.65-31.07c21.13-4.54,93.84-34.03,96.62-35.23,2.79-1.29,11.49-41.05,15.79-38.4,4.31,2.65-5.47,20.11-.15,22.16,5.34,2.12,48.92-19.67,49.4-15.91,.91,6.98-26.14,14.4-25.14,17.58,1.02,3.18,27.51-10.42,31.04-5.73,3.54,4.78-26.3,10.5-26.7,13.25-.43,2.69,28.83-1.57,27.5,4.3-.72,3.15-26.12,3.13-24.89,6.74,1.23,3.6,20.73,6.73,19.58,10.35-1.18,3.55-16.04-4.87-25.92-2.03-9.85,2.83-18.54-.33-32.81,9.01-14.29,9.34-60.78,48.27-94.71,56.88-33.92,8.69-108.87,27.94-108.87,27.94l-16.38-39.84Z" style="fill:#f9af79; fill-rule:evenodd;"/><path d="M1632.01,735.43s-43.2-88.21-53.83-106.95c-10.66-18.81-37.04-92.72-37.97-95.67-.93-2.88,22.93-35.86,18.1-37.3-4.85-1.44-11.33,17.46-16.44,14.9-5.11-2.56-17.87-49.6-20.97-47.46-5.82,3.96,6.67,29.09,3.61,30.43-3.07,1.35-10.52-27.42-16.42-26.91-5.88,.51,9.71,26.57,7.93,28.67-1.75,2.18-18.07-22.55-21.52-17.66-1.89,2.67,15.05,21.61,11.52,23.05-3.53,1.52-18.83-10.9-20.71-7.68-1.89,3.23,14.3,8.69,18.73,18,4.42,9.24,12.57,13.62,15.13,30.49,2.55,16.87,4.42,77.43,20.56,108.49,16.14,31.14,51.62,99.85,51.62,99.85l40.67-14.26Z" style="fill:#f9af79; fill-rule:evenodd;"/><path d="M1611.29,846.66c-2.45-16.82-7.68-62.11-7.32-67.78-6.04-17.25-25.58-42.02-29.8-49.18,0,0,22.27-30.21,40.24-31.11,0,0,20.71,23.9,35.37,30.7,.2-.12,5.18,1.92,7.27,1.72,13.67-.94,61.31-5.63,70.41-3.43l.02,77.4c-2.26,4.64,.43,93.46-4.37,101.15-4.8,7.62-79.47,45.86-92.77,38.14-.52-.29-14.11-63.69-19.04-97.62Z" style="fill:#6d96ce; fill-rule:evenodd;"/><path d="M1703.19,730.43c2.06-1.29,7.04-2.8,14.35-3.37,21.63-1.81,58.04-5.11,58.04-5.11,0,0,11.95,45.8,5.5,57.45,0,0-56.4,12.56-54.46,17.35l-23.43-66.32Z" style="fill:#6d96ce; fill-rule:evenodd;"/><path d="M1686.34,700.62s-3.18,27.04-1.52,37.56c1.7,10.51-.82,44.82-22.2,46.34-21.34,1.51-6.9-42.98-5.57-53.49,1.35-10.44-.27-42.47-.27-42.47l29.56,12.06Z" style="fill:#f9af79; fill-rule:evenodd;"/><path d="M1657.36,704.58c-.22-8.78-.59-16.02-.59-16.02l29.56,12.06s-.65,5.49-1.22,12.54c-12.37,3.51-21.78-.76-27.75-8.58Z" style="fill:#f27458; fill-rule:evenodd;"/><path d="M1691.97,626.06s11.45,5.73,16.42,19.35c4.95,13.55,2.7,49.68-25.26,60.2-27.95,10.52-42.19-17-37.76-39.57,4.41-22.57,15.37-51.46,46.6-39.98Z" style="fill:#f9af79; fill-rule:evenodd;"/><path d="M1641.23,657.68c.93,5.87,4.39,10.28,7.68,9.67,3.31-.53,5.19-5.81,4.26-11.68-.96-5.94-4.4-10.27-7.71-9.74-3.28,.52-5.19,5.8-4.23,11.74Z" style="fill:#f9af79; fill-rule:evenodd;"/><path d="M1617.4,1336.92c2-4.67,19.5,11.46,23.66,14.77,4.68,3.75,4.86,7.65,4.69,8.48-.44,2.3-49.6,59.26-63.57,66.65-1.3,.74-4,.59-4.77,.28-7.39-3.51,7.19-51.57,17.52-60.65,6.69-5.79,13.33-8.74,22.47-29.53Z" style="fill:#0e2952; fill-rule:evenodd;"/><path d="M1688.48,624.5s7.81,39.64,20.65,46.04c12.84,6.39,8.82,24.39,8.82,24.39,0,0,8.5-41.85-2.14-54.44-10.64-12.52-27.33-15.99-27.33-15.99Z" style="fill:#20386f; fill-rule:evenodd;"/><path d="M1702.17,676.7c-2.99,5.43-2.59,11.56,.94,13.75,3.51,2.1,8.82-.57,11.81-5.99,3.01-5.43,2.59-11.57-.93-13.67-3.51-2.11-8.8,.49-11.83,5.92Z" style="fill:#f9af79; fill-rule:evenodd;"/><path d="M1684.79,655.05c1.44,2.12,7.28,2.26,10.2,3.38,1.47,.56,5.15,3.27,6.56,3.12,4.34-.46-8-9.91-15.8-8.96-.98,.12-1.56,1.58-.96,2.45Z" style="fill:#20386f; fill-rule:evenodd;"/><path d="M1669.31,648.34c-6.63-4.24-21.85-.83-18.12,1.42,1.24,.75,5.72-.17,7.28-.05,3.11,.22,8.48,2.56,10.68,1.26,.9-.54,1.09-2.03,.16-2.63Z" style="fill:#20386f; fill-rule:evenodd;"/><path d="M1688.78,670.98c2.17,.53,5.87-7.26,.63-8.55-2.8-.68-4.15,7.69-.63,8.55Z" style="fill:#20386f; fill-rule:evenodd;"/><path d="M1656.61,663.46c-2.15-.53-1.84-9.15,3.41-7.87,2.79,.69,.13,8.74-3.41,7.87Z" style="fill:#20386f; fill-rule:evenodd;"/><path d="M1673.09,681.32c.43-.87-1.09-1.32-2.02-1.78-3.36-1.66-3.95,.05,1.36-14.5,1.04-2.85,1.92-4.31,.9-4.64-.96-.29-.99,.93-2.18,4.17-5.76,15.82-5.31,13.81,1.02,17.05,.33,.16,.74,.04,.92-.29Z" style="fill:#ed7d57; fill-rule:evenodd;"/><path d="M1674.4,693.64c.93-1.47-.87-1.22-15.83-3.67-4.32-.71,7.48,16.93,15.83,3.67Z" style="fill:#fff; fill-rule:evenodd;"/><path d="M910.42,212.28c2.2-3.45,6.43-5.49,10.5-5.07,4.07,.42,7.8,3.29,9.25,7.12,4.95-4.39,14.77-4.32,19.87-.11,5.1,4.22,6.51,12.27,3.15,17.97,6.46,2.52,14.87,3.44,19.11,8.92,4.24,5.49,4.59,14.61-1.12,18.54,3.24,.42,7,1.74,7.12,5,.12,3.27-2.37,6.43-5.57,7.08,5.43,3.74,8.79,12.13,6.4,18.26-2.4,6.14-9.31,10.16-15.83,9.23l-52.89-86.94Z" style="fill:#c4d1eb; fill-rule:evenodd;"/><path d="M1231.8,46.94s1.81,5.07,6.59,7.84c4.84,2.72,11.56,1.74,12.04,4.67,.54,2.9-8.39,2.53-13.49,2.87-5.06,.3-30.21-12.22-30.21-12.22l25.07-3.16Z" style="fill:#f7a390; fill-rule:evenodd;"/><path d="M1458.1,209.48s-5.49,2.3-7.33,2.9c-2.23,.73-9.06,2.41-9.06,2.41,0,0-24.09,4.33-24.36,2.56-.29-1.8,1.06-6.26,2.42-7.07,1.34-.8,4.68-.94,6.03-1.75,1.36-.79,2.4-3.05,1.44-4.82-.95-1.78-9.12-.45-9.12-.45,0,0-6.69,1.14-10.2,4.12-12.12,10.34-9.78,12-11.4,13.28-1.86,1.5-34.78,4.31-34.78,4.31,0,0-97.35,5.01-102.57,5.29h-.08c-1.83,3.78-.68,8.23-.59,12.18-1.47,13.13,2.03,15.25,1.42,28.2,15.24-1.95,122.18-19.72,133.1-21.66,0,0,14.77,2.6,24.06,3.97,9.33,1.32,18.6-1.49,21.25-1.51,.38,.01,9.22-.56,19.79-4.15,9.11-3.11-1.17-4.36-1.17-4.36,0,0-17.99,2.67-18.06,1.25,0-1.15,9.96-2.03,20.08-5.36,2.61-.86,5.15-1.7,7.49-2.51,6.19-2.12,6.45-6.51-.38-5.35-2.41,.42-6.43,1.2-9.19,2.19-2.97,1.02-6.09,1.01-8.7,1.47-5.27,.98-9.12,1.78-9.04,1.54,.11-.33-1.11-.87,1.59-1.83,3.31-1.22,10.92-2.21,15.59-4.33,2.64-1.2,8.34-3.39,8.34-3.39,0,0,7.92-4.91,7.74-5.49-.82-3.1-7.26-1.28-10.59,.82-2.9,.23-8.82,2.69-8.82,2.69,0,0-13.23,2.28-13.7,.43-.16-.81,7.71-3.17,15.06-6.7,6.8-3.3,13.09-7.75,12.55-9.2-.84-2.5-8.82,.34-8.82,.34Z" style="fill:#f9af79; fill-rule:evenodd;"/><path d="M1243.32,118.81s21.14,7.33,8.33,26.77c0,0,8.83,6.47,2.91,16.52,0,0,11.87,13.55-9.88,28.05,0,0,5.19,7.39-3.92,12.84-9.13,5.43-17.76,3.49-17.76,3.49,0,0-1.33,6.06-11.11,8.03-8.28,1.66-12.26-4.03-12.26-4.03,0,0-13.4,4.09-19.74,.34-6.34-3.74-7.89-12.05-7.89-12.05,0,0-7.76,1.12-10.05-5.55-2.34-6.66,.16-17.37-5.84-23.29-6.02-5.92-11.59-25.85-11.59-25.85,0,0-.18-25.13,24.03-28.6,0,0,4.89-15.48,21.12-11.28,0,0,15.43-15.47,32.71-6.58,17.33,8.84,20.93,21.19,20.93,21.19Z" style="fill:#20386f; fill-rule:evenodd;"/><path d="M791.91,512.45s13.75,22.93,17.54,26.06c3.84,3.09-6.33,32.21-17.91,32.63-6.53,.24-9.06-7.26-9.06-7.26l3.02-8.38-20.36-27.79,26.77-15.25Z" style="fill:#f9af79; fill-rule:evenodd;"/><path d="M627.19,420.8s-14.95,22.17-16.2,26.96c-1.2,4.73-31.89,7.86-37.12-2.45-2.99-5.8,2.71-11.28,2.71-11.28l8.92-.83,16.51-30.2,25.18,17.8Z" style="fill:#f9af79; fill-rule:evenodd;"/><path d="M611.47,446.62s-12.69-3.07-18.2-5.37c-7.11-2.99-14.79-7.48-14.79-7.48,0,0-17.02-1.25-22.66-1.17-12.58,.26-26.69,.5-32.22,3.9-1.78,1.1-1.88,6.29,.86,9.32,11.23,12.7,62.95,34.72,74.35,35.29,13.23,.6,12.66-34.49,12.66-34.49Z" style="fill:#0e2952; fill-rule:evenodd;"/><path d="M878.39,195.08c4.48-.38,8.62-.68,12.51-.91,3.71,17.25,8.02,36.7,12.43,56.72l-65.81,32.62c5.15-2.36-112.56,37.98-112.56,37.98,0,0-57.38,67.79-92.1,112.86-16.97-4.29-25.87-9.46-40.87-20.03,27.96-58.15,85.62-142.46,98.4-150.74,7.38-4.79,134.5-63.92,188-68.51Z" style="fill:#20386f; fill-rule:evenodd;"/><path d="M922.86,344.01c-48.3,16.81-121.7,41.7-145.86,51.15,9.29,31.95,20.2,112.46,26.26,125.62-8.92,10.09-21.25,19.04-34.02,20.66-2.48,.31-74.34-142.79-67.77-189.09,1.71-12.07,79.95-54.63,147.38-85.5l54.48-15.95c7.36,33.33,13.73,64.17,19.53,93.12Z" style="fill:#223f81; fill-rule:evenodd;"/><path d="M1114.9,136.11l10.37,36.45s11.3,25.89,14.39,32.77c.27,.6-118.08,86.75-164.25,115.61-46.16,28.87-57.17,27.79-57.17,27.79,0,0-30.82-40.73-43.12-75.65-12.79-36.29-11.81-84.13-11.81-84.13,0,0,105.78-11,137.9-18.48,32.17-7.51,113.69-34.36,113.69-34.36Z" style="fill:#fff; fill-rule:evenodd;"/><path d="M1139.65,205.31s93.85,15.85,125.49,17.74c25.9,1.54,99.86-2,103.72-2.65,3.75-.59,19.63,26,19.61,36.41,.03,2.81-94.84,15.5-126.76,17.45-29.48,1.81-118.26,.98-118.26,.98,0,0-53.9,.76-87.21,19.63-55.34,31.33-133.85,79.29-137.49,77.98-16.58-10.94-38.13-59.21-33.84-65.66,47.43-71.1,254.73-101.88,254.73-101.88Z" style="fill:#6d96ce; fill-rule:evenodd;"/><path d="M1143.97,166.89l-19.98,6.05s-29.72,6.65-31.65,16.38c-1.89,9.68,47.33,16.01,47.33,16.01l46.58-24.23-42.27-14.21Z" style="fill:#f9af79; fill-rule:evenodd;"/><path d="M1171.15,188.94c-19.05,1.39-35.61-8.48-44.14-16.92l16.96-5.12,42.27,14.21-15.09,7.84Z" style="fill:#ed7d57; fill-rule:evenodd;"/><path d="M1236.41,205.27c-7.25,3.32-15.05,1.88-17.35-3.25-2.34-5.08,1.66-11.89,8.98-15.21,7.25-3.32,15-1.84,17.34,3.23,2.35,5.1-1.72,11.94-8.97,15.23Z" style="fill:#20386f; fill-rule:evenodd;"/><path d="M1252.12,164.69c-4.21,1.9-9.87-1.6-12.7-7.79-2.84-6.19-1.74-12.78,2.47-14.68,4.19-1.92,9.86,1.58,12.63,7.81,2.84,6.19,1.73,12.78-2.4,14.67Z" style="fill:#20386f; fill-rule:evenodd;"/><path d="M1228.73,141.34c-1.69-17.15-18.74-28.51-35.09-23.79-7.09,2.03-15.85,4.95-25.07,8.93-22.22,9.63-38.46,30.77-33.87,40.76,4.51,10,31.32,31.14,63.04,17.89,19.54-8.13,32.67-25.73,30.99-43.79Z" style="fill:#f9af79; fill-rule:evenodd;"/><path d="M1191.92,178.89c-4.85,2.21-7.33,7.22-5.55,11.2,1.86,3.97,7.23,5.39,12.09,3.19,4.85-2.21,7.33-7.21,5.49-11.16-1.78-4.01-7.16-5.43-12.02-3.22Z" style="fill:#f9af79; fill-rule:evenodd;"/><path d="M1219.98,93.07c-12.91-6.57-26.97-4.55-31.46,4.56-4.47,9.13,2.3,21.87,15.21,28.45,12.85,6.61,26.91,4.59,31.39-4.54,4.5-9.11-2.29-21.86-15.14-28.47Z" style="fill:#20386f; fill-rule:evenodd;"/><path d="M1225.51,123.12c-3.54,1.61-4.46,7.2-2.06,12.5,2.39,5.31,7.23,8.29,10.83,6.64,3.54-1.6,4.46-7.2,2.07-12.51-2.45-5.27-7.29-8.25-10.83-6.64Z" style="fill:#20386f; fill-rule:evenodd;"/><path d="M1185.2,107.06c-4.56,2.06-6.6,7.43-4.52,11.93,2.02,4.52,7.41,6.5,11.96,4.42,4.56-2.07,6.6-7.43,4.58-11.96-2.08-4.51-7.46-6.47-12.02-4.39Z" style="fill:#20386f; fill-rule:evenodd;"/><path d="M808.62,537.6s-8.12,10.17-12.53,14.2c-5.76,5.23-13.05,10.3-13.05,10.3,0,0-8.32,14.8-10.61,19.98-5.13,11.54-11.06,25.49-10.32,31.99,.28,2.06,4.16,6.52,8.15,4.65,15.37-7.21,58.96-44.94,64.29-55.09,6.12-11.66-25.93-26.03-25.93-26.03Z" style="fill:#0e2952; fill-rule:evenodd;"/><path d="M1175.92,31.59c13.66,.17,25.44,.1,30-.42,4.56-.48,15.14-4.73,19.71-5.46,4.7-.79,8.97-1.26,11.28-.95,.83,.13,24.57,8.79,26.64,10.79,2.52,2.5,9.42,8.79,8.35,11.64-1.14,2.88-13.16-7.4-13.16-7.4l-5.84-3.02c7.31,6.72,21.27,15.37,19.32,18.81-1.87,3.32-14.44-5.55-23.39-11.58,7.71,6.49,17.34,18.28,15.22,20.24-1.93,1.77-12.93-11.84-24.44-15.49-4.26-1.33-8.44,2.96-11.79,3.59-2.4,.44-6.18,1.37-8.64,.79l-12.45-3.04c-4.23,.55-8.88,1.29-13.12,2.34-4.91,1.19-12.4,2.15-18.66,3.9-.39,.11-.72,.18-1.1,.31-1.06-8.36-.46-16.85,2.06-25.05Z" style="fill:#f9af79; fill-rule:evenodd;"/><path d="M1182.37,26.64s-122.01,10.47-127.77,17.53c-8.44,10.28,4.88,91.39,4.88,91.39,0,0-121.08,22.13-168.05,28.95-4.69,.66-34.17,7.6-36.75,8.76-5.87,2.68-1.7,31.43,.09,34.26,1.67,2.48,126.96-22.32,189.29-33.63,21.12-3.83,41.75-8.76,62.85-4.79l18.46,3.47s-1.86-23.05-3.03-33.17c-1.67-15.15-14.25-64.96-14.25-64.96,0,0,77.64-13.13,84.99-14.96,1.94-.46-2.21-32.3-10.71-32.85Z" style="fill:#6d96ce; fill-rule:evenodd;"/><path d="M1159.39,167.54c-4.09-6.83-5.63-11.04-7.93-18.64-.91-3.06-18.31,14.39,7.06,19.64,.61,.13,1.2-.48,.87-1Z" style="fill:#eb795b; fill-rule:evenodd;"/><path d="M1200.8,152.5c-2.19-3.2-4.75-1.46-3.94,1.37,8.67,30.18,9.37,6.55,3.94-1.37Z" style="fill:#20386f; fill-rule:evenodd;"/><path d="M1193.7,134.64c.61,3.83-2.44,4.32-3.81,1.71-14.41-27.9,2.32-11.19,3.81-1.71Z" style="fill:#20386f; fill-rule:evenodd;"/><path d="M1162.98,150.76l-.04-.2c-.23-3.44-.29-5.29,.76-6.25,.94-.89,2.37-.7,4.95-.34,2.85,.4,7.19,1,13.95,.64,.49-.02,.9,.36,.94,.85,.02,.49-.34,.91-.86,.94-6.91,.37-11.35-.24-14.29-.65-1.7-.23-3.16-.43-3.49-.12-.47,.43-.31,2.87-.18,4.83,.03,.5-.34,.92-.85,.95-.41,.02-.78-.25-.9-.64Z" style="fill:#eb795b; fill-rule:evenodd;"/><path d="M1172.32,135.87c-.9-2.02,6.1-7.04,8.28-2.13,1.17,2.62-6.79,5.44-8.28,2.13Z" style="fill:#20386f; fill-rule:evenodd;"/><path d="M1184.08,163.44c-.9-2.02,6.08-7.04,8.27-2.13,1.17,2.62-6.79,5.44-8.27,2.13Z" style="fill:#20386f; fill-rule:evenodd;"/><path d="M1158.79,167.29c-1.18,3.83-10.52-11.83-9.6-16.03,.1-.46,.98-2.25,1.61-2.16,.62,.08,.91,2.36,1.08,2.92,1.58,5.49,3.71,10.27,6.91,15.27Z" style="fill:#fff; fill-rule:evenodd;"/><path d="M1422.07,98.59l55.82-5.1,1.09,56.9c.98,33.15-17.93,48.21-47.3,53.25-29.8,.38-51.13-11.01-56.18-43.78l-9.24-56.16,55.82-5.1Z" style="fill:#e5bb9a; fill-rule:evenodd;"/><path d="M1422.56,203.34c5.27,61.07-13.7,48.07-9.17,78.05l25.18-2.3,25.18-2.3c-.99-30.31-17.29-14.09-23.18-75.1-2.84,.76-5.81,1.4-8.9,1.93-3.14,.04-6.18-.05-9.11-.28Z" style="fill:#d0a382; fill-rule:evenodd;"/><polygon points="1439.55 289.87 1478.6 286.3 1488.78 327.05 1443.33 331.2 1397.89 335.36 1400.52 293.44 1439.55 289.87" style="fill:#d0a382; fill-rule:evenodd;"/><polygon points="1439.55 289.87 1463.01 287.73 1470.63 328.71 1443.33 331.2 1416.03 333.7 1416.1 292.02 1439.55 289.87" style="fill:#e5bb9a; fill-rule:evenodd;"/><path d="M1398,282.8l79.98-7.31c2.96-.27,5.61,1.93,5.88,4.9h0c.26,2.96-1.94,5.61-4.9,5.88l-79.98,7.31c-2.96,.27-5.61-1.93-5.87-4.9h0c-.27-2.97,1.93-5.61,4.89-5.88Z" style="fill:#fde3d0; fill-rule:evenodd;"/><path d="M1364.04,93.02l114.08-10.43c2.96-.27,5.6,1.93,5.87,4.9h0c.27,2.97-1.93,5.61-4.9,5.88l-114.07,10.43c-2.97,.27-5.61-1.93-5.88-4.89h0c-.27-2.97,1.93-5.61,4.9-5.88Z" style="fill:#e5bb9a; fill-rule:evenodd;"/><path d="M1477.94,96.63l33.09-3.03c8.39,49.18-5.56,75.75-37.39,84.25,2.48-4.84,4.15-10.42,4.9-16.84,20.95-10.48,29.25-31.06,25.93-59.26l-26.38,2.41-.15-7.54Z" style="fill:#d0a382; fill-rule:evenodd;"/><path d="M1366.76,106.8l-33.1,3.03c.67,49.88,19.22,73.49,52.06,76.07-3.32-4.31-5.98-9.5-7.88-15.67-22.5-6.51-34.4-25.24-36.24-53.57l26.38-2.41-1.22-7.44Z" style="fill:#d0a382; fill-rule:evenodd;"/><path d="M1367.98,114.24l7.51,45.6c.58,3.73,1.36,7.19,2.35,10.38,1.91,6.17,4.56,11.36,7.88,15.67,8.44,10.96,21.18,16.21,36.84,17.45,1.55,.12,3.15,.21,4.77,.25-19.22-4.42-32.48-16.98-36.31-41.89l-9.24-56.15,55.82-5.1,40.35-3.69v-.12s-.06-3.15-.06-3.15l-111.63,10.2,.51,3.11,1.22,7.44Z" style="fill:#d0a382; fill-rule:evenodd;"/><path d="M1463.7,103.82l.9,47.32c.78,26.35-12.51,38.48-36.18,43.41,.99,.02,1.99,.03,3.01,.03,25.5-4.54,39.94-16.56,39.12-43.99l-.9-47.32-5.95,.54Z" style="fill:#fde3d0; fill-rule:evenodd;"/><path d="M1410.78,135.2l-.72-7.85,1.61-.71,.39,.31c.09,.07,3.3-.38,6.33-2.5,1.95-1.37,3.27-3.04,3.83-5.14l1.6-.71,5.04,.11,3.87,42.33c.13,1.46,.6,2.4,1.42,2.8,.82,.4,3.76-1.98,5.16,.24l4.35,6.86-1.61,.72-27.72,2.53-.7-7.76,1.6-.71,.8,.49c2.4,1.46,4.59-.68,5.41-1.23,.82-.57,1.11-2.05,.9-4.43l-.03-.34-2.36-25.83-9.17,.84Z" style="fill:#d0a382; fill-rule:evenodd;"/><path d="M1412.38,134.48l-.71-7.85c3.55-.62,6.32-1.58,8.32-2.91,1.99-1.32,3.27-3.04,3.83-5.14l6.64-.6,3.87,42.32c.13,1.46,.61,2.4,1.42,2.81,.82,.4,2.54,.48,5.17,.24l2.02-.19,.71,7.76-27.72,2.54-.7-7.76,2.41-.22c2.79-.26,4.59-.67,5.4-1.24,.82-.56,1.12-2.04,.9-4.43l-.03-.34-2.36-25.83-9.17,.84Z" style="fill:#f1d3bc; fill-rule:evenodd;"/></svg>