<?xml version="1.0" encoding="UTF-8"?><svg id="a" xmlns="http://www.w3.org/2000/svg" viewBox="0 0 2152.02 1550.27"><path d="M1046.86,76.95c262.21,0,372.68,187.61,561.98,333.45,250.54,193.02,501.07,67.36,541.17,719.56,35.71,580.47-409.8,62.85-1037.96,270.77C483.89,1608.66-155.87,1692.39,33.96,1019.64,223.8,346.89,437.61,76.95,1046.86,76.95Z" style="fill:#e0e8f5; fill-rule:evenodd;"/><path d="M636.74,958.57H259.43c2.71-11.46,13-19.99,25.29-19.99,.59,0,1.18,.03,1.77,.07,5.96-14.59,20.29-24.87,37.02-24.87,7.32,0,14.17,1.98,20.07,5.4,7.2-23.72,29.23-40.99,55.31-40.99,5.3,0,10.44,.72,15.32,2.07,12.63-27.87,40.68-47.25,73.26-47.25,38.64,0,70.91,27.27,78.62,63.63,.65-.03,1.3-.04,1.95-.04,24.76,0,45.19,18.51,48.2,42.44,10.1,1.89,18.15,9.62,20.49,19.54Z" style="fill:#fff; fill-rule:evenodd;"/><path d="M962.76,583.27h-377.32c2.71-11.46,13-20,25.3-20,.58,0,1.18,.03,1.76,.07,5.96-14.59,20.29-24.87,37.02-24.87,7.32,0,14.17,1.98,20.07,5.41,7.2-23.73,29.23-41,55.31-41,5.3,0,10.45,.73,15.32,2.07,12.62-27.87,40.67-47.25,73.26-47.25,38.64,0,70.92,27.28,78.63,63.63,.65-.03,1.3-.04,1.95-.04,24.75,0,45.18,18.51,48.2,42.44,10.1,1.89,18.14,9.62,20.49,19.55Z" style="fill:#fff; fill-rule:evenodd;"/><path d="M1644.51,676.82h-278.62c2-8.47,9.6-14.77,18.68-14.77,.43,0,.88,.02,1.31,.05,4.39-10.77,14.99-18.37,27.33-18.37,5.41,0,10.47,1.46,14.83,4,5.31-17.52,21.58-30.27,40.83-30.27,3.92,0,7.72,.53,11.33,1.52,9.31-20.57,30.03-34.89,54.09-34.89,28.54,0,52.37,20.15,58.06,46.98,.49-.02,.96-.04,1.44-.04,18.28,0,33.37,13.68,35.61,31.34,7.45,1.4,13.39,7.1,15.12,14.44Z" style="fill:#fff; fill-rule:evenodd;"/><path d="M1505.67,1059.89h-278.61c2-8.46,9.6-14.76,18.68-14.76,.43,0,.87,.02,1.3,.04,4.41-10.77,14.99-18.36,27.34-18.36,5.4,0,10.47,1.46,14.82,3.99,5.32-17.52,21.59-30.27,40.84-30.27,3.91,0,7.71,.54,11.31,1.53,9.32-20.58,30.04-34.89,54.1-34.89,28.53,0,52.36,20.14,58.06,46.99,.49-.02,.96-.04,1.45-.04,18.28,0,33.36,13.67,35.59,31.34,7.46,1.4,13.4,7.1,15.12,14.43Z" style="fill:#fff; fill-rule:evenodd;"/><polygon points="969.9 1159.72 1314.04 1179.29 988.52 1143.06 1054.12 1122.3 1138.53 1116.99 1317.49 1179.71 1036 1227.59 935.4 1194.01 969.9 1159.72" style="fill:#c4d1eb; fill-rule:evenodd;"/><polygon points="1015.92 1263.69 1317.49 1179.71 1036 1227.59 1005.4 1217.38 1015.92 1263.69" style="fill:#9db2d9; fill-rule:evenodd;"/><polygon points="994.04 1161.1 1314.04 1179.29 988.52 1143.06 994.04 1161.1" style="fill:#b0c2e4; fill-rule:evenodd;"/><polygon points="345.34 1292.76 753.39 1315.96 367.41 1273 445.2 1248.39 545.28 1242.1 757.47 1316.45 423.71 1373.24 304.42 1333.42 345.34 1292.76" style="fill:#c4d1eb; fill-rule:evenodd;"/><polygon points="399.9 1416.03 757.47 1316.45 423.71 1373.24 387.43 1361.12 399.9 1416.03" style="fill:#9db2d9; fill-rule:evenodd;"/><polygon points="373.95 1294.38 753.39 1315.96 367.41 1273 373.95 1294.38" style="fill:#b0c2e4; fill-rule:evenodd;"/><polygon points="99.04 1064.18 412.42 1082 115.99 1049 175.73 1030.1 252.59 1025.27 415.56 1082.37 159.23 1125.98 67.62 1095.4 99.04 1064.18" style="fill:#c4d1eb; fill-rule:evenodd;"/><polygon points="140.95 1158.84 415.56 1082.37 159.23 1125.98 131.36 1116.69 140.95 1158.84" style="fill:#9db2d9; fill-rule:evenodd;"/><polygon points="121.02 1065.43 412.42 1082 115.99 1049 121.02 1065.43" style="fill:#b0c2e4; fill-rule:evenodd;"/><polygon points="1713.21 1177.01 2026.59 1194.83 1730.15 1161.83 1789.9 1142.93 1866.75 1138.1 2029.72 1195.2 1773.39 1238.81 1681.78 1208.23 1713.21 1177.01" style="fill:#c4d1eb; fill-rule:evenodd;"/><polygon points="1755.11 1271.67 2029.72 1195.2 1773.39 1238.81 1745.54 1229.51 1755.11 1271.67" style="fill:#9db2d9; fill-rule:evenodd;"/><polygon points="1735.18 1178.26 2026.59 1194.83 1730.15 1161.83 1735.18 1178.26" style="fill:#b0c2e4; fill-rule:evenodd;"/><polygon points="788.59 775.79 1377.68 809.29 820.46 747.26 932.76 711.73 1077.23 702.65 1383.57 810 901.73 891.97 729.52 834.48 788.59 775.79" style="fill:#c4d1eb; fill-rule:evenodd;"/><polygon points="867.37 953.75 1383.57 810 901.73 891.98 849.35 874.49 867.37 953.75" style="fill:#9db2d9; fill-rule:evenodd;"/><polygon points="829.9 778.14 1377.68 809.29 820.46 747.26 829.9 778.14" style="fill:#b0c2e4; fill-rule:evenodd;"/><polygon points="1551.74 781.26 1865.12 799.08 1568.68 766.07 1628.43 747.18 1705.28 742.35 1868.25 799.45 1611.92 843.06 1520.31 812.48 1551.74 781.26" style="fill:#c4d1eb; fill-rule:evenodd;"/><polygon points="1593.64 875.92 1868.25 799.45 1611.92 843.06 1584.06 833.76 1593.64 875.92" style="fill:#9db2d9; fill-rule:evenodd;"/><polygon points="1573.71 782.51 1865.12 799.08 1568.68 766.07 1573.71 782.51" style="fill:#b0c2e4; fill-rule:evenodd;"/><polygon points="285.95 703.46 522.99 716.94 298.77 691.98 343.96 677.69 402.09 674.03 525.36 717.22 331.47 750.21 262.18 727.07 285.95 703.46" style="fill:#c4d1eb; fill-rule:evenodd;"/><polygon points="317.64 775.07 525.36 717.22 331.47 750.21 310.4 743.18 317.64 775.07" style="fill:#9db2d9; fill-rule:evenodd;"/><polygon points="302.57 704.41 522.99 716.94 298.77 691.98 302.57 704.41" style="fill:#b0c2e4; fill-rule:evenodd;"/><polygon points="762.38 318.46 943.91 328.78 772.2 309.67 806.81 298.72 851.33 295.92 945.73 329.01 797.24 354.26 744.18 336.55 762.38 318.46" style="fill:#c4d1eb; fill-rule:evenodd;"/><polygon points="786.66 373.3 945.73 329.01 797.24 354.27 781.11 348.88 786.66 373.3" style="fill:#9db2d9; fill-rule:evenodd;"/><polygon points="775.11 319.19 943.91 328.78 772.2 309.67 775.11 319.19" style="fill:#b0c2e4; fill-rule:evenodd;"/><path d="M1075.04,192.92s-34.77-62.09-43.25-75.29c-8.46-13.2-30.52-65.66-31.31-67.72-.78-2.07,15.2-26.89,11.63-27.73-3.57-.86-7.52,13.09-11.31,11.43-3.81-1.67-14.92-35.23-17.1-33.55-4.05,3.1,6,20.81,3.82,21.92-2.16,1.11-8.7-19.48-12.95-18.87-4.25,.6,8.07,18.87,6.88,20.47-1.18,1.62-13.97-15.59-16.29-11.91-1.24,1.99,11.77,15.01,9.26,16.24-2.49,1.21-14.07-7.2-15.31-4.77-1.23,2.41,10.71,5.74,14.29,12.29,3.57,6.54,9.64,9.37,12.16,21.46,2.54,12.11,6.3,55.93,19.23,77.78,12.92,21.86,41.36,70.24,41.36,70.24l28.87-11.99Z" style="fill:#f9af79; fill-rule:evenodd;"/><path d="M1229.22,492.56s-2.82-3.52-3.67-4.77c-1-1.47-3.64-6.09-3.64-6.09,0,0-8.47-16.49-7.21-17.01,1.28-.52,4.31,1.5,5.19,2.32,.87,.83,2,1.73,2.87,2.56,.88,.84,2.22,.87,3.34-.15,1.11-1.01-1.67-5.1-2.91-6.33-3.88-3.82-16.29-11.89-17.57-12.8-1.52-1.08-10.94-32.4-15.03-42.87h0c-6.17-17.34-11.65-35.48-12.29-37.32l-3.88-78.73-29.41-9.81s3.08,87.45,3.73,91.81c.31,2.06,17.74,41.16,17.74,41.14,9.8,18.7,18.47,35.16,20.05,38.37,0,0,2.13,10.87,3.08,17.86,.96,6.99,4.65,13.05,5.21,14.98,.09,.29,1.68,7.02,6.54,14,4.18,6.02,2.98-1.65,2.98-1.65,0,0-5.76-12.57-4.68-12.87,.82-.23,3.56,6.82,8.11,13.52,1.17,1.73,2.34,3.43,3.42,4.98,2.84,4.05,6.15,3.44,3.86-1.31-.81-1.66-2.22-4.41-3.49-6.22-1.38-1.96-2.04-4.22-2.94-6.04-1.81-3.62-3.17-6.26-3-6.24,.26,0,.4-.99,1.7,.81,1.56,2.16,3.88,7.48,6.43,10.47,1.45,1.68,4.26,5.4,4.26,5.4,0,0,5.19,5.52,5.58,5.32,2.1-1.2-.5-6.24-2.76-8.28-.75-2.03-3.82-5.87-3.82-5.87,0,0-4.44-9.16-3.16-9.83,1.06-.55,15.94,19.27,17.95,17.93,1.65-1.11-2.57-7.28-2.57-7.28Z" style="fill:#f9af79; fill-rule:evenodd;"/><path d="M1176.62,185.84c.72-17.18-1.8-34.13-9.5-50.12-6.6-13.77-22.95-21.58-37.88-21.59-47.37-.06-53.38,62.52-83.54,86.66-9.22,7.38-19.51,13.39-28.23,21.35-32.19,29.37-17.69,83.75,11.85,109.48,20.53,17.9,52.76,28.03,78.06,14.07,13.19-7.28,23.19-19.42,30.35-32.69,10.12-18.85,16.65-40.59,23.87-60.69,7.66-21.39,14.08-43.64,15.02-66.47Z" style="fill:#20386f; fill-rule:evenodd;"/><path d="M1028.56,738.75s-3.34,23.09-9.07,30.55c-1.93,2.51-5.44,5.65-7.77,10.19-3.59,7.04-1.59,17.52,1.05,23.28,1.37,2.97-.09,2.97,3,3.91,9.19,2.84,18.96-1.92,22.87-10.71,2.19-4.91,4.1-11.43,4.48-19.69,.98-20.98,7.53-31.64,7.53-31.64l-22.1-5.91Z" style="fill:#f9af79; fill-rule:evenodd;"/><path d="M1128.99,749.3s2.07,26.05,.4,34.52c-.88,4.54-5.9,13.86-3.59,18.12,2.29,4.27,4.9,5.33,4.9,5.33l59.28,.95c3.23,.06,1.1-2.02-1.5-3.93-4.27-3.13-7.7-5.19-21.32-11.77-.9-.42-4.13-2.47-5.28-3.19-2.96-1.8-5.94-4.65-8.49-7.48-4.27-4.73-4.63-27.66-4.63-27.66l-19.77-4.91Z" style="fill:#f9af79; fill-rule:evenodd;"/><path d="M1175.34,403.05s7.47,42.29,2.57,70.03c-4.89,27.72-28.43,284.73-28.43,284.73l-26.15,1.47s-5.48-107.37-4.49-122.29c.99-14.93,8.74-39.91,8.74-39.91l-2.61-86.69,33.01-113.86,17.37,6.51Z" style="fill:#20386f; fill-rule:evenodd;"/><path d="M1098.5,394.17s-20.59,30.92-25.5,56.52c-4.9,25.58,3.6,104.24-5.84,137.79-5.1,18.15-24.44,46.18-27.39,69.65-2.93,23.46-14.48,84.92-14.48,84.92l26.14,5.18,60.74-153.49,47.64-138.73,12.21-71.44-73.52,9.61Z" style="fill:#223f81; fill-rule:evenodd;"/><path d="M1115.15,218.19s-27.25-1.73-38.03,10.01c-10.8,11.71,23.93,104.52,25.89,119.45,1.96,14.93-10.01,54.63-10.01,54.63,0,0,64.03,12.86,82.33,.76,0,0,1.98-107.35,0-118.03-1.96-10.66-18.3-54.04-22.22-58.3-3.93-4.26-37.97-8.52-37.97-8.52Z" style="fill:#6d96ce; fill-rule:evenodd;"/><path d="M1124.23,181.84s-.14,.81-.39,2.16c-1.21,6.55-5.9,28.24-9.05,34.2-3.83,7.21,13.08,30.2,29.35,27.39,4.84-.82-4.09-21.12-3.66-23.28,.82-4.1,1.92-9.71,3.07-15.47,.66-3.24,1.29-6.54,1.91-9.64,1.73-8.79,3.16-15.97,3.16-15.97l-24.38,.61Z" style="fill:#f9af79; fill-rule:evenodd;"/><path d="M1123.84,184c.25-1.35,.39-2.16,.39-2.16l24.38-.61s-1.42,7.18-3.16,15.97c-.61,3.08-1.25,6.36-1.89,9.58-3.76-.55-7.7-2.37-11.65-5.82-4.29-3.76-7.12-8.27-8.82-13.09,.3-1.55,.55-2.87,.75-3.88Z" style="fill:#ed7d57; fill-rule:evenodd;"/><path d="M1140.65,126.53s-11.5-1.32-18.7,7.98c-7.21,9.31-14.97,38.04,2.93,53.68,17.88,15.63,35.56-2.06,38.18-20.83,2.63-18.75,3.65-41.49-22.42-40.83Z" style="fill:#f9af79; fill-rule:evenodd;"/><path d="M1168.37,167.08c-2.13,4.15-5.72,6.44-8.01,5.14-2.28-1.33-2.39-5.74-.28-9.89,2.15-4.15,5.72-6.44,8.02-5.13,2.27,1.32,2.4,5.74,.27,9.88Z" style="fill:#f9af79; fill-rule:evenodd;"/><path d="M1141.93,123.47s-15.35,27.34-26.34,28.61c-10.98,1.25-12.42,15.78-12.42,15.78,0,0,3.93-33.47,14.8-39.93,10.87-6.45,23.95-4.47,23.95-4.47Z" style="fill:#20386f; fill-rule:evenodd;"/><path d="M1040.41,791.35c-14.23,2.59-23.71-5.71-28.65-11.95-3.61,7.07-5.39,17.59-2.71,23.37,2.34,5.12,9.2,4.97,14.59,5.16,5.71,.22,10.12-2.94,12.95-7.91,1.33-2.32,2.69-5.2,3.82-8.67Z" style="fill:#0e2952; fill-rule:evenodd;"/><path d="M1161.87,789.34c-15.69,4.02-27.26,1.29-33.76-1.33-1.68,4.73-3.89,10.68-2.71,14.09,1.44,4.19,3.49,5.12,5.3,5.18,14.32,.38,52.47,.89,63.38,1.03,1.52,.02,2.37-1.76,1.38-2.93-2.7-3.22-32.42-15.33-33.59-16.04Z" style="fill:#0e2952; fill-rule:evenodd;"/><path d="M1118.48,158.94c.88,4.85-.92,9.3-4.02,9.94-3.11,.64-6.36-2.77-7.26-7.63-.89-4.85,.92-9.31,4.02-9.95,3.1-.63,6.35,2.79,7.25,7.64Z" style="fill:#f9af79; fill-rule:evenodd;"/><path d="M1065.42,172.8s38.49,41.31,44.19,57.95c5.73,16.63-5.57,40.44-21.18,41.49-15.59,1.03-50.32-73.3-50.32-73.3l27.31-26.15Z" style="fill:#466fb5; fill-rule:evenodd;"/><path d="M1149.6,147.57c1.37,1.62,6.21,1.23,8.7,1.9,1.26,.34,4.54,2.25,5.68,2,3.54-.75-7.45-7.48-13.79-6.02-.81,.19-1.16,1.44-.59,2.12Z" style="fill:#20386f; fill-rule:evenodd;"/><path d="M1136.26,143.37c-5.83-2.93-18.07,1.2-14.8,2.73,1.08,.5,4.69-.63,5.99-.67,2.58-.09,7.2,1.38,8.91,.12,.68-.53,.73-1.77-.1-2.19Z" style="fill:#20386f; fill-rule:evenodd;"/><path d="M1154.26,160.35c1.84,.26,4.21-6.5-.22-7.09-2.37-.33-2.75,6.69,.22,7.09Z" style="fill:#20386f; fill-rule:evenodd;"/><path d="M1127.1,156.94c-1.82-.25-2.3-7.39,2.13-6.78,2.36,.32,.87,7.19-2.13,6.78Z" style="fill:#20386f; fill-rule:evenodd;"/><path d="M1142.23,170.24c.28-.75-1.01-1.01-1.81-1.3-2.92-1.08-3.25,.38-.13-12.07,.61-2.45,1.21-3.71,.33-3.9-.82-.16-.73,.85-1.43,3.62-3.39,13.53-3.19,11.84,2.32,13.96,.28,.1,.61-.03,.73-.31Z" style="fill:#ed7d57; fill-rule:evenodd;"/><path d="M1144.38,180.27c.63-1.29-.83-.93-13.37-1.66-3.62-.22,7.63,13.3,13.37,1.66Z" style="fill:#fff; fill-rule:evenodd;"/></svg>