<?xml version="1.0" encoding="UTF-8"?><svg id="a" xmlns="http://www.w3.org/2000/svg" viewBox="0 0 1776.8 1469.46"><path d="M991.5,210.63c-174.48,0-154.54,265.52-280.5,346.51-166.65,107.15-453.44,54.06-453.44,237.94,0,322.8,328.6,634.52,733.94,634.52s673.82-372.99,673.82-695.73S1396.77,210.63,991.5,210.63Z" style="fill:#e0e8f5; fill-rule:evenodd;"/><rect x="1378.09" y="380.79" width="82.73" height="28.54" style="fill:#b0c2e4;"/><path d="M1442.78,146.39l38.14,.19c2.83,0,5.22,2.32,5.22,5.22v38.14c0,2.84-2.39,5.22-5.22,5.22l-38.14-.13c-2.84-.06-5.28-2.38-5.28-5.28v-38.14c0-2.84,2.45-5.22,5.28-5.22Z" style="fill:#fff; fill-rule:evenodd;"/><path d="M1378.86,364.88c-5.03-2.32-8.31-6.64-8.31-13.08v-2c-.97-55.99-50.13-71.65-54.12-133.57-.32-4.64-.26-9.15,.13-13.59,7.67-46.97,52.32-78.48,102.44-78.48,57.15,0,107.15,40.91,103.41,98.97-3.73,60.05-50.58,75.26-51.54,129.57,0,5.86-6.25,12.63-11.6,12.18h-80.41Z" style="fill:#c4d1eb; fill-rule:evenodd;"/><path d="M1463.78,415.97c-.65,6.25-5.99,11.21-12.37,11.21h-9.53l-3.74,6.06c-2.19,3.48-3.42,3.74-7.47,3.74h-22.42c-4.12,0-5.35-.19-7.48-3.74l-3.73-6.06h-9.54c-6.31,0-11.6-4.83-12.37-10.95v-4.38c.39-1.42,1.68-2.51,3.16-2.51h82.28c1.55,0,2.84,1.1,3.22,2.51,0,.13-.07,.45,0,.45v3.67h0Zm-84.34-28.67h79.96c2.45,0,4.45,2,4.45,4.38v6.83c0,2.45-2,4.38-4.45,4.38h-79.96c-2.39,0-4.38-1.93-4.38-4.38v-6.83c0-2.38,2-4.38,4.38-4.38h0Zm.19-22.42h79.64c2.51,0,4.57,2.06,4.57,4.57v7.09c0,2.51-2.06,4.58-4.57,4.58h-79.64c-2.51,0-4.57-2.06-4.57-4.58v-7.09c0-2.51,2.06-4.57,4.57-4.57Z" style="fill:#9db2d9; fill-rule:evenodd;"/><path d="M1406.82,364.88l-8.5-102.45h-12.24c-5.28,0-10.12-2.13-13.6-5.61v-.06c-3.54-3.48-5.67-8.25-5.67-13.53s2.13-10.12,5.67-13.66c3.48-3.48,8.31-5.6,13.6-5.6s9.79,2.06,13.14,5.48c3.42,3.42,5.67,8.18,6.06,13.4l1.03,10.95h37.5l.9-10.95c.51-5.22,2.71-9.99,6.19-13.4,3.35-3.42,7.86-5.48,13.08-5.48s10.11,2.13,13.59,5.67v-.06c3.48,3.55,5.67,8.31,5.67,13.66s-2.19,10.05-5.67,13.59c-3.48,3.48-8.31,5.61-13.59,5.61h-12.24l-8.44,102.45h-8.63l8.37-102.45h-36.02l8.44,102.45h-8.64Zm-9.28-111.08l-.84-10.24c-.32-3.16-1.61-5.99-3.61-7.99-1.8-1.87-4.25-2.96-7.02-2.96-2.97,0-5.54,1.16-7.48,3.09-1.93,1.93-3.09,4.57-3.09,7.54s1.16,5.54,3.09,7.47h0c1.94,1.93,4.51,3.09,7.48,3.09h11.47Zm54.9,0h11.54c2.9,0,5.61-1.16,7.47-3.09,1.94-1.93,3.16-4.57,3.16-7.47s-1.22-5.61-3.16-7.54h0c-1.87-1.93-4.57-3.09-7.47-3.09s-5.22,1.09-7.03,2.96c-2.06,2-3.35,4.83-3.61,7.99l-.9,10.24Z" style="fill:#fff; fill-rule:evenodd;"/><path d="M310.85,1400.61c143.52,0,259.85,14.3,259.85,31.89s-116.33,31.96-259.85,31.96-259.82-14.3-259.82-31.96,116.33-31.89,259.82-31.89Z" style="fill:#c4d1eb; fill-rule:evenodd;"/><path d="M421.7,443.93c-26.96,25.45-39.21,55.86-36.72,91.36,63.72,43.43,96.68,84.08,98.87,121.97-74.9-66.62-131.15-66.43-156.47-25.51,18.68,22.62,31.77,100.64,27.25,136.59-7.99,63.46,9.28,120.36,57.25,141.81,11.02,24.61,22.55,37.63,34.63,38.92-11.6,71.13-21.39,143.23-29.32,216.49,8.12,4.19,19.68,3.73,25.87-.45,2.48-28.54,4.29-48.71,6.12-62.17,4.93-53.16,10.47-104.57,16.62-154.18,2.96-.39,5.9-.84,8.8-1.48,56.09-11.79,34.6-46.78,85.92-57.28,31.57-6.44,60.28-33.12,67.43-56.96-32.86-10.37-74.26-21.46-116.2-13.6,21.81-30.61,66.07-28.35,126.19-20.94,22.68-44.07,54.93-40.08,42.17-109.15-17.81-96.26,45.14-122.93,23.94-238.78-30.96-11.66-71.94-10.31-122.94,4.12,21.65-32.02,62.69-45.23,123.16-39.75-12.56-33.89-12.44-77.77-6.48-96.52-22.45-16.24-45.13-16.11-68.1,.26,10.24-17.59,23.55-27.64,39.88-30.15-.81-15.08-7.28-31.96-19.46-50.58-20.14,.52-42.43,4.96-66.91,13.4,11.15,7.35,14.76,20.55,10.82,39.69-13.4-15.79-33.21-21.07-59.44-15.79-5.54,68.75-66.49,96.65-67.52,126.28,35.89,31.64,56.89,66.11,63.05,103.41-36.56-31.38-72.71-51.67-108.41-61.02Z" style="fill:#b0c2e4; fill-rule:evenodd;"/><path d="M417.19,1165.56c7.93-73.26,17.72-145.36,29.32-216.49,41.4-268.49,113.72-545.8,176.64-661.84-83.99,197.93-141.94,469.83-173.97,815.7-1.84,13.47-3.64,33.63-6.12,62.17-6.19,4.19-17.75,4.64-25.87,.45Z" style="fill:#9db2d9; fill-rule:evenodd;"/><path d="M523.73,270.74c26,33.18,34.6,69.59,25.77,109.15-79.12,38.02-123.16,78.16-132.05,120.49,95.65-62.3,158.98-52.51,180.54-2.13-24.9,22.29-52.9,107.92-53.93,149.16-1.8,72.81-30.96,133.95-88.56,149.93-16.59,25.84-31.8,38.53-45.68,37.95,1,82.02-.26,164.88-3.77,248.71-9.83,3.35-22.81,.84-29.06-4.9,2.06-32.54,3.45-55.54,3.67-71.07,3.48-60.69,6.02-119.45,7.54-176.41-3.29-.9-6.51-1.93-9.67-3.15-61.14-22.81-31.02-58.57-86.98-79.12-34.44-12.63-62.24-47.55-66.2-75.58,38.72-6.12,87.21-11.53,133.11,4.51-19.33-38.27-69.59-43.17-138.53-45.1-18.07-53.54-55.03-54.51-28.9-130.02,36.44-105.35-29.93-146.13,13.63-272.93,36.85-7.92,82.76,.58,137.72,25.51-18.91-39.69-62.88-61.6-131.92-65.65,19.94-36.08,27.26-85.5,23.74-107.6,28.03-14.43,53.57-10.5,76.64,11.85-8.57-21.52-21.84-35.11-39.79-40.72,3.48-16.88,13.66-34.73,30.51-53.61,22.58,3.93,46.94,12.76,73.07,26.42-13.79,6.38-20.14,20.68-18.94,42.85,17.78-15.53,40.98-18.04,69.62-7.73-5.48,78.41,58.41,120.23,54.54,153.73-45.81,29.51-75.35,64.75-88.63,105.73,46.52-29.06,90.69-45.88,132.5-50.26Z" style="fill:#c4d1eb; fill-rule:evenodd;"/><path d="M406.05,1083.99c3.51-83.83,4.77-166.68,3.77-248.71-.93-309.33-35.18-633.87-86.27-775.24,60.86,237.11,79.9,553.08,57.12,947.98-.23,15.53-1.61,38.53-3.67,71.07,6.25,5.73,19.23,8.25,29.06,4.9Z" style="fill:#b0c2e4; fill-rule:evenodd;"/><path d="M441.16,1133.35c-115.14,0-208.5,21-208.5,46.91s93.36,46.91,208.5,46.91,208.53-21,208.53-46.91-93.36-46.91-208.53-46.91Z" style="fill:#c4d1eb; fill-rule:evenodd;"/><path d="M334.59,996.43h202.83c9.12,0,16.59,7.41,16.59,16.56v46.58c0,9.09-7.47,16.5-16.59,16.5h-202.83c-9.12,0-16.56-7.41-16.56-16.5v-46.58c0-9.15,7.44-16.56,16.56-16.56Z" style="fill:#b0c2e4; fill-rule:evenodd;"/><polygon points="336.4 1076.07 535.65 1076.07 516.06 1179.09 355.98 1179.09 336.4 1076.07" style="fill:#b0c2e4; fill-rule:evenodd;"/><polygon points="535.65 1076.07 336.4 1076.07 339.94 1094.75 532.07 1094.75 535.65 1076.07" style="fill:#9db2d9; fill-rule:evenodd;"/><rect x="859.16" y="340.84" width="192.71" height="504.56" style="fill:#fff;"/><rect x="888.8" y="367.9" width="133.37" height="450.5" style="fill:#e0e8f5;"/><polygon points="911.67 392.9 1022.17 392.9 1022.17 367.9 888.8 367.9 888.8 818.41 911.67 818.41 911.67 392.9" style="fill:#c4d1eb; fill-rule:evenodd;"/><rect x="1140.02" y="340.84" width="192.71" height="504.56" style="fill:#fff;"/><rect x="1169.66" y="367.9" width="133.44" height="450.5" style="fill:#e0e8f5;"/><polygon points="1192.53 392.9 1303.09 392.9 1303.09 367.9 1169.66 367.9 1169.66 818.41 1192.53 818.41 1192.53 392.9" style="fill:#c4d1eb; fill-rule:evenodd;"/><ellipse cx="957.1" cy="1358.15" rx="719.89" ry="71.45" style="fill:#c4d1eb;"/><path d="M1338.46,1374.45c272.03,4.58,437.17,9.92,438.33,31.44,1.16,21.52-101.99,61.34-405.4,63.4-303.34,2.06-518.8-14.69-519.93-36.21-1.16-21.52,214.91-63.21,487-58.63Z" style="fill:#c4d1eb; fill-rule:evenodd;"/><path d="M1226.68,576.34c-16.62,33.31-2.9,71.65,29.9,85.18,32.99,13.66,69.01,5.86,85.69-27.45,16.62-33.25,4.25-73.19-27.7-89.17-31.83-15.98-71.26-1.87-87.89,31.44Z" style="fill:#20386f; fill-rule:evenodd;"/><path d="M1265.46,705.91c-18.94,4.25-42.85,56.89-54.51,90.65-11.85,34.08-31.96,76.29-45.04,89.37-13.08,13.14-99.29,43.56-99.29,43.56,0,0,213.01,.45,208.63,0-4.38-.39-9.79-223.58-9.79-223.58Z" style="fill:#6d96ce; fill-rule:evenodd;"/><path d="M1152.45,912.6c11.6-1.67,53.74,3.74,35.82-3.8-17.91-7.47-15.46-17.07-15.46-17.07,0,0,25.45,21.26,30.03,2.71,3.93-16.04,5.41-72.55,20.43-129.25,12.43-28.09,28.67-56.25,42.2-59.28,0,0,.52,19.97,1.29,47.94-5.15,61.92-14.04,152.9-16.36,175.83-28.22,0-75.45,0-114.95-.07l-26.29-1.22s31.64-14.18,43.3-15.79Z" style="fill:#466fb5; fill-rule:evenodd;"/><path d="M1335.18,694.25s60.3,33.7,74.35,40.85c14.05,7.15-39.36,217.46-51.29,226.47-11.85,9.02-116.49,1.55-128.35-9.79-11.98-11.34,9.15-46.2-1.16-115.98-10.31-69.78,31.44-130.02,36.73-129.89,5.41,.13,40.4-11.66,40.4-11.66h29.32Z" style="fill:#6d96ce; fill-rule:evenodd;"/><path d="M1358.25,961.57c-11.85,9.02-86.72,9.22-118.55-.71-3.61-1.1-19.97-7.6-20.36-13.73,3.87-.71,19.14,1.1,25.39-.32,21.52-4.96,33.38-31.64,33.38-31.64,0,0,11.86-4.25,38.4-15.53,26.54-11.21,15.66-45.29,16.24-60.31,.64-14.95,26.29-63.98,74.35-101.16l4.44,1.93c3.42,34.21-42.2,213.14-53.28,221.45Z" style="fill:#466fb5; fill-rule:evenodd;"/><path d="M944.01,796.56h145.17l66.17,140.72h-159.98l-59.82-127.38c-2.9-6.19,1.61-13.34,8.47-13.34Z" style="fill:#709cd2; fill-rule:evenodd;"/><path d="M1146.65,939.28h87.37c5.48,0,9.79-4.38,9.79-9.79s-4.32-9.8-9.79-9.8h-81.05l-54.89-118.03c-2.26-4.9-8.12-7.02-13.02-4.77-4.9,2.32-7.02,8.12-4.77,13.02l57.47,123.71c1.61,3.48,5.09,5.67,8.89,5.67Z" style="fill:#2e65a9; fill-rule:evenodd;"/><path d="M1298.19,909.26c-37.88,7.09-47.23,15.78-67.91,19.14-23.39,3.73-20.62,8.89-3.22,8.89s61.08,.71,76.16-2.64c14.95-3.35-5.03-25.39-5.03-25.39Z" style="fill:#f9af79; fill-rule:evenodd;"/><path d="M1414.3,739.03c28.99,92.91,70.23,198.25,63.66,198.25s-173.32,6.77-179.89,1.16c-6.57-5.61-4.7-27.19-3.74-29.96,.9-2.83,94.78-19.52,94.78-19.52,0,0-12.31-24.1-17.07-71.13-4.64-47.1,36.73-96.39,42.27-78.8Z" style="fill:#6d96ce; fill-rule:evenodd;"/><path d="M1313.14,613.58l23.33,85.5s-39.5,61.66-50.38,56.19c-10.83-5.48,6.05-50.13,6.05-56.19s-16.88-68.75-16.88-68.75l37.88-16.75Z" style="fill:#f9af79; fill-rule:evenodd;"/><path d="M1291.36,703.4c.52-2,.77-3.54,.77-4.32,0-6.12-16.88-68.75-16.88-68.75l37.88-16.75,7.73,28.29c-6.83,29.19-18.94,48.65-29.51,61.53Z" style="fill:#f1944e; fill-rule:evenodd;"/><path d="M1225.58,612.1c-4.44,24.81-1.55,57.73,20.42,66.11,22.04,8.38,48.58-7.6,59.28-35.76,10.69-28.16,1.54-57.73-20.49-66.11-22.03-8.38-53.93,6.18-59.21,35.76Z" style="fill:#f9af79; fill-rule:evenodd;"/><path d="M1300.06,626.08c-3.03,8.63-.39,17.52,5.99,19.84,6.45,2.25,14.05-2.96,17.14-11.6,3.09-8.7,.45-17.53-5.93-19.84-6.44-2.25-14.11,2.9-17.2,11.6Z" style="fill:#f9af79; fill-rule:evenodd;"/><path d="M1225.32,580.98c7.47,58.18,78.15,50.64,78.15,50.64,0,0,14.56-19.14,21.13-9.09,6.57,10.05-9.08-58.95-49.61-61.15-13.4-.71-49.68,19.59-49.68,19.59Z" style="fill:#20386f; fill-rule:evenodd;"/><path d="M1325.13,636.84c0,19.85,17.14,35.89,38.27,35.89s38.33-16.04,38.33-35.89-17.2-35.95-38.33-35.95-38.27,16.11-38.27,35.95Z" style="fill:#20386f; fill-rule:evenodd;"/><polygon points="1411.72 1360.08 1402.96 1360.08 1346.39 1098.17 1365.72 1098.17 1411.72 1360.08" style="fill:#0b5396; fill-rule:evenodd;"/><polygon points="1139.5 1360.08 1148.26 1360.08 1214.05 1088.89 1194.78 1088.89 1139.5 1360.08" style="fill:#0b5396; fill-rule:evenodd;"/><path d="M1311.85,1107.96c35.05,0,57.22-6.31,71.39-20.1,17.66-17.14,21.26-43.68,21.26-78.22,.06-27.19,.77-44.91,2.19-59.21,.58-5.41-3.35-10.24-8.76-10.76-5.41-.58-10.18,3.35-10.7,8.7-1.61,15.08-2.25,33.38-2.32,61.21,0,35.05-4.51,53.67-15.33,64.17-11.08,10.89-31.19,15.33-65.21,14.5-32.73-.84-55.28-5.41-73.45-9.09-23.84-4.83-41.11-8.37-61.47,1.42-4.9,2.32-6.96,8.19-4.64,13.08,2.32,4.9,8.18,6.96,13.02,4.64,14.56-6.96,26.87-4.44,49.22,.06,18.82,3.86,42.4,8.63,76.87,9.47,2.71,.06,5.35,.13,7.93,.13Z" style="fill:#0b5396; fill-rule:evenodd;"/><path d="M1391.49,938.44l-53.74,2.26,14.31,148.19s40.08-25.58,39.43-53.03c-.64-27.51,0-97.42,0-97.42Z" style="fill:#0b5396; fill-rule:evenodd;"/><path d="M1126.42,952.23c-45.36-6.9-60.82-4.7-88.53,46.97-27.83,51.74-64.82,144.84-86.05,156.83-32.02,18.11-42.65,62.5-55.8,60.5-13.14-1.94-21.62,3.86-7.28,15.72,14.3,11.92,37.4,22.04,45.3,19.91,7.89-2.13,14.04-36.28,34.63-47.3,20.68-11.14,14.43-20.23,13.15-30.02-1.42-9.79,60.18-54.96,106.63-111.08,28.41-34.34,42.98-56.96,45.17-77.51,2.19-20.49-7.22-34.02-7.22-34.02Z" style="fill:#f9af79; fill-rule:evenodd;"/><path d="M1013.92,1139.73c10.57-26.74,21.13-70.88,31.05-111.34,14.18-57.6,28.99-71.26,38.4-77.38,11.34-2.84,24.74-1.55,43.04,1.23,0,0,9.41,13.53,7.22,34.02-2.19,20.55-16.75,43.17-45.17,77.51-24.42,29.51-53.09,56.05-74.55,75.97Z" style="fill:#f1944e; fill-rule:evenodd;"/><path d="M1112.63,997.72s12.11,91.17,23.32,100.45c8.05,6.58,13.79,7.03,19.39-20.1,5.61-27.19-8.76-128.67-8.76-128.67l-33.96,48.32Z" style="fill:#0b5396; fill-rule:evenodd;"/><polygon points="1122.3 1047.08 1234.02 1065.82 1170.94 975.36 1122.94 965.57 1094.08 972.21 1122.3 1047.08" style="fill:#f1944e; fill-rule:evenodd;"/><path d="M981.84,1174.84c3.61,14.62,3.16,25.38-3.09,30.8-6.32,5.41-30.12,45.62-30.12,45.62l-7.44-1.09,17.2-36.79,23.46-38.53Z" style="fill:#0e2952; fill-rule:evenodd;"/><path d="M934.06,1252.16c-7.89,2.13-30.99-7.99-45.3-19.91-14.34-11.86-5.86-17.66,7.28-15.72,.74,.13,1.48,.06,2.22-.13,6.54,14.69,28.16,25.71,35.12,10.24,6.93-15.4,36.47-45.94,48.45-52.51-.06,.26-.06,.45,0,.71,1.29,9.79,7.54,18.88-13.15,30.02-20.59,11.02-26.74,45.17-34.63,47.3Z" style="fill:#0e2952; fill-rule:evenodd;"/><path d="M1354.64,955.9c39.69,71.2,12.56,116.37-35.7,121-48.2,4.64-124.22-4.19-168.55-41.04-44.39-36.85-80.8-75.84-75.77-81.63,5.15-5.87,280.02,1.67,280.02,1.67Z" style="fill:#f1944e; fill-rule:evenodd;"/><path d="M1129.71,1008.99c-8.12-24.35-17.46-43.04-35.63-43.42-19.01-.32-30.73,9.6-31.57,40.78-.97,37.11-2.25,160.05-.51,214.75,1.29,41.37-10.83,54.64-9.8,97.74,.77,32.54-33.89,16.11-20.49,32.99,9.21,11.54,36.6,7.8,53.41,5.67,15.01-1.93-7.8-46.91,13.01-58.89,17.85-10.31,18.1-27.06,6.9-39.69-11.21-12.69-1.23-50.19,6.25-76.41,7.54-26.22,19.14-54.64,26.74-116.69,2.19-17.65-3.35-41.95-8.31-56.83Z" style="fill:#f9af79; fill-rule:evenodd;"/><path d="M1043.56,1338.56c5.8,1.74,12.82,3.67,19.01,3.86,12.5,.39,16.24-13.34,17.08-32.02,.71-16.3,12.56-41.95,24.74-52.38,.19,.32,.39,.58,.65,.9,11.21,12.63,10.95,29.38-6.9,39.69-20.81,11.98,2,56.96-13.01,58.89-16.82,2.13-44.2,5.87-53.41-5.67-8.7-11.02,2.13-11.86,11.85-13.27Z" style="fill:#0e2952; fill-rule:evenodd;"/><path d="M1102.2,1254.22s18.3,19.07,16.62,26.99c-1.68,7.93-7.34,27.9-8.25,43.3-.97,15.4-1.8,33.12-1.8,33.12,0,0-6.57,0-7.09-1.87-.51-1.87-4.12-62.63-4.12-62.63l4.64-38.91Z" style="fill:#0e2952; fill-rule:evenodd;"/><path d="M1373.71,949.4s23.58,99.87-6.19,127.51c-29.71,27.64-153.09,2.77-182.21,1.16-19.65-1.16-38.72,22.88-38.72,22.88,0,0,13.73-55.73,4.38-100.71-9.34-44.97-24.55-48-24.55-48l20.17-2.84h227.12Z" style="fill:#223f81; fill-rule:evenodd;"/><path d="M1379.05,923.3c-10.05,21.32,10.83,58.25,3.55,68.81-7.35,10.63-49.23,1.48-76.74-20.62-27.45-22.1-79.44-26.93-79.44-26.93l152.64-21.26Z" style="fill:#466fb5; fill-rule:evenodd;"/><path d="M1336.47,1105.19c-83.05,3.09-170.48,1.68-170.48-10.76s3.73-21.07,68.04-16.11c64.37,5.02,108.11,11.86,127.44,7.54,19.4-4.38-25,19.33-25,19.33Z" style="fill:#0b5396; fill-rule:evenodd;"/><path d="M372.51,663.19c-5.89-26.22,7.76-52.19,33.79-61.98-.16-14.88,6.35-29.83,17.59-40.01,22.16-20.17,63.27-31.12,79.57-5.48,21.55,11.02,38.46,34.92,32.06,56.7,20.87,19.59,12.95,55.03-17.49,71.71,.48,22.04-12.34,43.81-33.54,53.22-5.09,2.26-13.05,5.41-14.05,6.38,1.32-1.16-15.72,41.82-68.62,22.16-53.99-20.1-64.5-76.54-29.32-102.7Z" style="fill:#20386f; fill-rule:evenodd;"/><path d="M1489.04,609.78c5.54-20.17,4.77-40.34,25.39-52.77,16.62-10.11,52.83-15.46,70.36-6.38,49.68,25.71,26.29,65.85,86.47,118.94,9.66,25.77,2.19,68.62,1.55,69.97-24.62,57.41-89.5,66.94-121.91,50.13-60.37-31.31-62.56-54.51-64.43-77.45-2.06-24.55-1.03-89.5,2.58-102.44Z" style="fill:#20386f; fill-rule:evenodd;"/><path d="M408.4,1008.87c-2.19-53.93-6.93-100.84-12.56-133.57-9.02-52.13-17.14-82.15-17.24-82.47-1.19-4.57-18.36-23.13-56.54-22.55-38.14,.58-34.54,24.87-34.54,24.87h0c0,.84,.13,1.61,.29,2.19,.35,1.23,35.41,128.28,33.86,292.26,0,2.26-.26,6.25-.1,8.89,0,.06,88.43,2.32,88.46,0,3.09-14.3,1.58-54-1.64-89.62Z" style="fill:#d0a382; fill-rule:evenodd;"/><path d="M419.51,1088.76c-.03,2.32-1.23,4.12-2.67,4.12h-.06c-1.45-.06-2.64-1.87-2.64-4.12h-75.77c-.06,2.32-1.26,4.12-2.74,4.12h-.03c-1.48-.06-2.67-1.94-2.67-4.25,.45-46.91-2.22-90.78-6.28-129.44-10.08-96.45-28.71-160.95-28.93-161.85-.19-.58-.32-1.35-.32-2.19,0,0-3.58-24.29,34.54-24.87,38.18-.58,55.35,17.98,56.54,22.55,.07,.26,4.67,17.2,10.79,47.81,2,10.12,4.19,21.71,6.44,34.67,5.64,32.73,10.37,79.64,12.6,133.57,3.19,35.63,4.32,65.59,1.23,79.9Z" style="fill:#e5bb9a; fill-rule:evenodd;"/><path d="M419.51,1088.76c-.03,2.32-1.23,4.12-2.67,4.12h-.06c-1.45-.06-2.64-1.87-2.64-4.12h-75.77c-.06,2.32-1.26,4.12-2.74,4.12h-.03c-1.48-.06-2.67-1.94-2.67-4.25,.45-46.91-2.22-90.78-6.28-129.44,12.53-61.21,60.95-108.05,72.61-118.55,2,10.12,4.19,21.71,6.44,34.67,5.64,32.73,10.37,79.64,12.6,133.57,3.19,35.63,4.32,65.59,1.23,79.9Z" style="fill:#deb493; fill-rule:evenodd;"/><path d="M360.07,1082.7c-8.47,0-14.47,.39-16.56,2.58h0c-.03-2.19-.16-6.18-.35-13.85-.26-8.95-.71-22.94-1.32-38.72-1.1-27.64-2.96-65.65-5.8-89.82-3.29-28.03-22.84-142.2-22.97-142.52-.13-.45-.19-.97-.19-1.48,0-.13-.74-5.74,3.41-10.57,4.09-4.83,11.44-7.41,21.84-7.54h1.29c27,0,39.4,12.89,40.3,16.43,.23,.84,21.94,88.98,25.71,138.91l.42-.07-.42,.07c.35,4.64,1.13,12.5,2.09,22.49,3.87,39.04,11.89,120.29,3.87,121.71-15.66,2.77-31.41,2.58-44.07,2.45-2.58-.07-5.02-.07-7.25-.07h0Zm-16.94,5.28l.23-.13c.06-.07,.1-.07,.13-.39h.03c0-.65,.19-1.16,.65-1.61,2.38-2.45,11.53-2.38,23.16-2.25,12.69,.13,28.48,.32,44.23-2.39,8.12-1.48,2.64-64.11-3.16-122.68-.97-9.99-1.74-17.85-2.09-22.49-3.77-49.61-25.55-138.34-25.74-139.04-.97-3.74-14.05-17.59-42.43-17.14-10.66,.19-18.23,2.83-22.52,7.86-4.41,5.16-3.61,10.95-3.58,11.21-.03,.52,.06,1.16,.19,1.68,.13,.45,19.75,114.88,22.94,142.39,5.28,45.23,7.41,139.05,7.51,144.26v.45l.45,.26Z" style="fill:#d0a382; fill-rule:evenodd;"/><path d="M327.34,1092.89h297.09s-6.89-28.03-178.99-23.84c-121.78,2.96-118.1,23.84-118.1,23.84Z" style="fill:#e5bb9a; fill-rule:evenodd;"/><path d="M303.15,1385.34c34.44-174.35,25.58-281.37,25.55-282.72-.1-2.71,4.83-5.15,7.51-5.22,2.7-.06,14.59-.84,15.98,1.48,1.8,3.03,8.73,134.85-42.59,286.46h-6.44Z" style="fill:#d0a382; fill-rule:evenodd;"/><path d="M580.56,1385.34c-34.44-174.35-25.61-281.37-25.55-282.72,.06-2.71-4.86-5.15-7.51-5.22-2.71-.06-14.59-.84-15.98,1.48-1.8,3.03-8.73,134.85,42.59,286.46h6.44Z" style="fill:#d0a382; fill-rule:evenodd;"/><path d="M635.55,1385.34c-34.47-174.35-25.61-281.37-25.55-282.72,.1-2.71-4.86-5.15-7.54-5.22-2.71-.06-14.59-.84-15.95,1.48-1.84,3.03-8.73,134.85,42.59,286.46h6.44Z" style="fill:#9c7357; fill-rule:evenodd;"/><path d="M358.5,1385.34c34.44-174.35,25.61-281.37,25.55-282.72-.1-2.71,4.86-5.15,7.51-5.22,2.71-.06,14.59-.84,15.98,1.48,1.8,3.03,8.73,134.85-42.62,286.46h-6.41Z" style="fill:#9c7357; fill-rule:evenodd;"/><path d="M624.63,1101.84H327.5c-3.35,0-6.09-2.77-6.09-6.06v-4.06c0-3.35,2.74-6.05,6.09-6.05h297.13c3.35,0,6.09,2.7,6.09,6.05v4.06c0,3.29-2.74,6.06-6.09,6.06Z" style="fill:#d0a382; fill-rule:evenodd;"/><path d="M524.41,1279.61c-2.48,2.84-2.8,5.99-1.58,9.34q0,.06,.03,.06c2.26,6.25,9.76,13.27,18.43,20.23,1.13,.9,2.09,1.74,2.96,2.45,.23,.2,.45,.45,.68,.65,.16,.13,.32,.26,.48,.45,8.12,7.47,5.06,9.15,19.62,24.29,16.59,17.27,28.03,17.59,31.28,16.04,2.74-1.35-2.84-10.5-9.02-20.81-.32-.52-.61-.97-.9-1.48-.84-1.35-1.64-2.77-2.48-4.12-7.25-12.37-5.41-18.24-3.67-36.66,1.38-14.95,23.33-83.7,23.33-83.7l-31.83-5.48s-9.57,54.7-20.1,63.14c-5.67,4.51-11.95,4.57-17.4,7.86-.39,.26-.77,.45-1.13,.77-3.09,2-6.22,4.12-8.7,6.96Z" style="fill:#f9af79; fill-rule:evenodd;"/><path d="M524.41,1279.61c-2.48,2.84-2.8,5.99-1.58,9.34q0,.06,.03,.06c2.77,6.25,10.09,13.21,18.46,20.17,1.1,.9,2.06,1.74,2.93,2.51,.23,.2,.45,.45,.68,.65,.16,.13,.32,.26,.48,.45,8.12,7.47,5.06,9.15,19.62,24.29,16.59,17.27,28.03,17.59,31.28,16.04,2.74-1.35-2.84-10.5-9.02-20.81-3.25-1.16-18.23-7.28-29.6-21.78-9.99-12.76-16.66-29.12-23.45-38.66-.39,.26-.77,.45-1.13,.77-3.09,2-6.22,4.12-8.7,6.96Z" style="fill:#0e2952; fill-rule:evenodd;"/><path d="M780.88,1259.76c1.93,9.79,15.95,8.18,31.57,4.32,15.62-3.8,11.92,.77,34.18-1.74,22.26-2.45,28.99-10.76,29.67-14.05,.61-2.96-10.4-3.99-22.2-5.35-1.48-.13-2.96-.32-4.45-.52-13.31-1.67-23.07-10.31-35.15-17.33-11.47-6.7-28.58-33.89-28.58-33.89l-30.51,2.38s16.01,24.29,22.2,34.92c3.64,6.19,3.45,14.43,3,20.81-.22,3.41-.45,6.96,.26,10.44Z" style="fill:#f9af79; fill-rule:evenodd;"/><path d="M812.45,1264.08c15.62-3.8,11.92,.77,34.18-1.74,22.26-2.45,28.99-10.76,29.67-14.05,.61-2.96-10.4-3.99-22.2-5.35l-.1,.26s-13.34,9.41-31.86,9.86c-15.11,.39-31.12-3.93-41.53-3.74-.22,3.41-.45,6.96,.26,10.44,1.93,9.79,15.95,8.18,31.57,4.32Z" style="fill:#0e2952; fill-rule:evenodd;"/><path d="M712.96,811.51s7.28-17.78,15.24-18.56c8.02-.71,33.47-4.7,35.28-1.09,1.84,3.67,0,16.75-5.44,21.45-5.44,4.77-39.27,12.37-39.27,12.37l-5.8-14.18Z" style="fill:#f9af79; fill-rule:evenodd;"/><path d="M663.9,1064.6l-65.75,176.99s-10.11,.97-19.78-1.8c-8.92-2.58-19.13-9.34-19.13-9.34,0,0,16.3-169.91,46.23-205.28,29.9-35.31,58.44,39.43,58.44,39.43Z" style="fill:#20386f; fill-rule:evenodd;"/><path d="M403.79,993.01s188.98-63.92,231.12-50.32c42.14,13.6,168.68,265.39,168.68,265.39,0,0-2.84,3.74-10.63,6.7-7.28,2.71-24.81,2.58-24.81,2.58,0,0-114.2-97.94-127.8-126.48-13.59-28.54-19.04-55.73-32.64-53.03-13.59,2.71-175.38,66.62-212.11,28.54-36.69-38.08-27.09-87.5-27.09-87.5l35.27,14.11Z" style="fill:#223f81; fill-rule:evenodd;"/><path d="M511.75,700.95c.23,.06-18.94,9.99-33.38,6.06-13.56-3.67-22.45-21.26-22.26-21.33,5.77-1.16,7.41-9.02,7.28-42.98l2.61,.52,43.65,8.7s-.97,13.72-1,26.67c-.06,10.82,.61,21.13,3.09,22.36Z" style="fill:#f9af79; fill-rule:evenodd;"/><path d="M509.65,651.92s-.97,13.72-1,26.67c-24.45-.71-37.37-23-42.65-35.37l43.65,8.7Z" style="fill:#ec9355; fill-rule:evenodd;"/><path d="M461.49,638.45s-12.82-20.23-15.88-37.5c-2.19-12.37,4.09-58.12,50.1-51.54,0,0,13.37,1.29,25.93,9.79,9.99,6.77,24.39,21.33,8.28,61.27l-4.19,13.47-64.24,4.51Z" style="fill:#20386f; fill-rule:evenodd;"/><path d="M517.83,664.16s-57.83,.9-57.86-35.05c-.03-36.02-7.5-60.18,29.38-62.3,36.92-2.13,44.1,11.6,47.04,23.65,2.93,11.98-3.54,72.49-18.56,73.71Z" style="fill:#f9af79; fill-rule:evenodd;"/><path d="M515.68,565.9s-15.82,42.27-40.11,48.52c-24.32,6.25-34.83-.26-34.83-.26,0,0,18.62-14.82,22.49-40.66,0,0,40.5-27.7,52.45-7.6Z" style="fill:#20386f; fill-rule:evenodd;"/><path d="M511.75,569.38s11.82,9.41,14.72,18.56c2.9,9.21,4.19,28.09,9.67,27.45,0,0,11.95-28.74-1.45-44.97-14.24-17.2-22.94-1.03-22.94-1.03Z" style="fill:#20386f; fill-rule:evenodd;"/><path d="M359.43,993.98c3.12,8.7,12.69,10.89,25.52,9.41,24.45-2.83,60.73-19.26,86.88-30.6,39.88-17.33,58.02-1.1,70.71-12.05,12.69-11.02-14.5-35.5,9.09-149.1,7.96-38.53-42.65-121.13-42.65-121.13,0,0-4.41,23.97-52.86-4.83-1.71-1.03-20.78,27.25-39.14,62.05-20.26,38.4-39.63,84.86-33.96,108.76,10.89,45.55-32.63,112.37-23.58,137.5Z" style="fill:#6d96ce; fill-rule:evenodd;"/><path d="M508.97,690.51l29.83,122.55s3.74,6.64,9.57,16.04c13.66,22.1,39.01,59.73,55.22,63.53,7.99,1.87,25-4.77,43.78-14.3,35.6-17.98,77.67-46.13,77.67-46.13,2.71-16.3-11.47-29.64-11.47-29.64,0,0-85.24,32.02-93.68,32.67-18.43,1.29-37.21-87.69-54.44-117.39-12.47-21.45-56.47-27.32-56.47-27.32Z" style="fill:#6d96ce; fill-rule:evenodd;"/><path d="M359.43,993.98c3.12,8.7,12.69,10.89,25.52,9.41,16.91-7.41,89.98-35.69,89.17-54.89-1.23-28.35-14.05-29.25-4.99-64.3,7.28-28.16-60.24-80.47-71-91.88-20.26,38.4-20.78,40.27-15.11,64.17,10.89,45.55-32.63,112.37-23.58,137.5Z" style="fill:#466fb5; fill-rule:evenodd;"/><path d="M548.38,829.1c13.66,22.1,39.01,59.73,55.22,63.53,7.99,1.87,25-4.77,43.78-14.3-13.72,3.54-27.06,3.48-40.01,2.19-14.08-1.35-18.14-18.56-40.33-44.39-14.4-16.75-17.94-12.5-18.65-7.02Z" style="fill:#466fb5; fill-rule:evenodd;"/><path d="M480.66,883.48s12.27-9.54,23.84-7.28c11.53,2.25,17.2,10.24,16.75,13.85-.45,3.61-6.57,13.85-15.4,14.75-8.86,.91-34.02-5.48-34.02-5.48l8.83-15.85Z" style="fill:#f9af79; fill-rule:evenodd;"/><path d="M456.11,685.68s-47.13,2.9-63.4,25.64c-23,32.08-62.85,162.75-52,192.71l143.36-.64s3.48-16.17-1.35-24.03c-4.83-7.93-83.37-20.55-87.01-24.23-3.64-3.61,45.33-70.68,45.33-81.57s15.08-87.88,15.08-87.88Z" style="fill:#6d96ce; fill-rule:evenodd;"/><polygon points="493 937.03 666.54 937.03 697.86 827.94 524.54 827.94 493 937.03" style="fill:#1d417f; fill-rule:evenodd;"/><rect x="439.07" y="932.77" width="226.9" height="4.25" style="fill:#0e2952;"/><path d="M611.45,880.71c1.09-3.86-1.13-6.96-4.96-6.96s-7.83,3.09-8.96,6.96c-1.06,3.8,1.13,6.96,4.96,6.96s7.83-3.16,8.96-6.96Z" style="fill:#0e2952; fill-rule:evenodd;"/><path d="M1499.54,937.03H316.94c-4.29,0-7.8,3.54-7.8,7.8v.06c0,4.25,3.51,7.8,7.8,7.8H1499.54c4.31,0,7.8-3.54,7.8-7.8v-.06c0-4.25-3.48-7.8-7.8-7.8Z" style="fill:#9c7357; fill-rule:evenodd;"/><path d="M1618.16,1017.31c2.32-56.5,7.34-105.73,13.4-140.01,9.53-54.7,18.17-86.21,18.3-86.53,1.29-4.83,19.52-24.29,60.05-23.65,40.59,.58,36.72,26.1,36.72,26.1h0c0,.84-.13,1.68-.26,2.26-.39,1.35-37.63,134.53-36.02,306.5,0,2.45,.32,6.63,.07,9.41,0,0-93.94,2.38-94.01,0-3.29-15.08-1.68-56.7,1.74-94.07Z" style="fill:#d0a382; fill-rule:evenodd;"/><path d="M1606.31,1101.13c.07,2.45,1.29,4.32,2.9,4.32h.06c1.55,0,2.77-1.93,2.83-4.32h80.54c.06,2.45,1.29,4.32,2.84,4.32h.12c1.55,0,2.84-2,2.84-4.45-.52-49.23,2.32-95.16,6.7-135.76,10.63-101.22,30.41-168.81,30.8-169.78,.13-.58,.26-1.42,.26-2.26,0,0,3.86-25.52-36.73-26.1-40.59-.64-58.89,18.82-60.18,23.65,0,.26-4.9,18.04-11.4,50.12-2.13,10.63-4.45,22.75-6.9,36.34-5.93,34.34-11.02,83.57-13.34,140.07-3.41,37.37-4.57,68.81-1.35,83.83Z" style="fill:#e5bb9a; fill-rule:evenodd;"/><path d="M1606.31,1101.13c.07,2.45,1.29,4.32,2.9,4.32h.06c1.55,0,2.77-1.93,2.83-4.32h80.54c.06,2.45,1.29,4.32,2.84,4.32h.12c1.55,0,2.84-2,2.84-4.45-.52-49.23,2.32-95.16,6.7-135.76-13.4-64.24-64.88-113.34-77.25-124.35-2.13,10.63-4.45,22.75-6.9,36.34-5.93,34.34-11.02,83.57-13.34,140.07-3.41,37.37-4.57,68.81-1.35,83.83Z" style="fill:#deb493; fill-rule:evenodd;"/><path d="M1669.58,1094.75c9.02,0,15.33,.45,17.53,2.71h.07c.06-2.26,.19-6.51,.39-14.5,.19-9.41,.71-24.1,1.35-40.66,1.16-28.93,3.22-68.81,6.18-94.14,3.48-29.51,24.29-149.16,24.42-149.55,.06-.39,.19-.97,.19-1.55,0-.12,.77-5.86-3.48-10.95-4.38-5.15-12.24-7.86-23.32-7.99-29.71-.39-43.3,13.47-44.26,17.27-.2,.84-23.33,93.23-27.32,145.68-.39,4.83-1.22,13.08-2.25,23.52-4.12,40.98-12.63,126.22-4.12,127.7,16.69,2.83,33.44,2.7,46.91,2.51,2.71,0,5.28-.07,7.73-.07h0Zm17.98,5.61l-.19-.19q-.13-.06-.19-.39h-.07c0-.71-.13-1.22-.58-1.68-2.58-2.57-12.31-2.51-24.68-2.32-13.53,.13-30.28,.32-47.04-2.58-8.63-1.55-2.83-67.2,3.35-128.67,1.03-10.44,1.87-18.69,2.19-23.52,4.06-52.32,27.19-145.16,27.45-145.87,.97-3.93,14.88-18.43,45.1-17.91,11.34,.13,19.46,2.96,23.97,8.31,4.64,5.41,3.74,11.41,3.74,11.6,0,.58-.06,1.23-.26,1.81-.06,.45-20.94,120.49-24.35,149.35-5.61,47.49-7.86,145.74-7.99,151.22v.52l-.45,.32Z" style="fill:#d0a382; fill-rule:evenodd;"/><path d="M1704.37,1105.45h-315.91s7.35-29.38,190.27-25c129.51,3.09,125.64,25,125.64,25Z" style="fill:#e5bb9a; fill-rule:evenodd;"/><path d="M1730.08,1412.14c-36.66-182.86-27.26-295.09-27.13-296.51,0-2.83-5.22-5.35-8.05-5.48-2.9-.06-15.53-.84-16.95,1.61-1.94,3.16-9.28,141.43,45.23,300.38h6.89Z" style="fill:#d0a382; fill-rule:evenodd;"/><path d="M1435.11,1412.14c36.66-182.86,27.25-295.09,27.12-296.51-.07-2.83,5.22-5.35,7.99-5.48,2.9-.06,15.59-.84,17.01,1.61,1.93,3.16,9.28,141.43-45.3,300.38h-6.83Z" style="fill:#d0a382; fill-rule:evenodd;"/><path d="M1376.67,1412.14c36.6-182.86,27.19-295.09,27.19-296.51-.13-2.83,5.15-5.35,7.99-5.48,2.83-.06,15.46-.84,16.95,1.61,1.87,3.16,9.28,141.43-45.29,300.38h-6.83Z" style="fill:#9c7357; fill-rule:evenodd;"/><path d="M1671.25,1412.14c-36.66-182.86-27.19-295.09-27.19-296.51,.13-2.83-5.15-5.35-7.99-5.48-2.9-.06-15.46-.84-17.01,1.61-1.87,3.16-9.28,141.43,45.36,300.38h6.83Z" style="fill:#9c7357; fill-rule:evenodd;"/><path d="M1388.27,1114.86h315.97c3.48,0,6.38-2.9,6.38-6.45v-4.12c0-3.54-2.9-6.44-6.38-6.44h-315.97c-3.6,0-6.44,2.9-6.44,6.44v4.12c0,3.55,2.84,6.45,6.44,6.45Z" style="fill:#d0a382; fill-rule:evenodd;"/><path d="M1453.34,905.71s-57.73,65.98-69.52,64.88c-12.05-1.1-19.46-4.9-29.96,0-7.54,3.54-31.44,22.74-25,21.45,6.38-1.29,17.98-2.7,21.07-3.03,4.19-.39,10.95-.52,15.53-1.29,2.96-.52,13.4-.84,16.88-.91,15.2-.51,87.11-42.52,87.11-42.52l-16.11-38.59Z" style="fill:#f9af79; fill-rule:evenodd;"/><path d="M1231.51,1385.79c1.03,11.08-14.37,13.79-32.28,14.69-17.91,.84-12.5,4.51-36.98,8.95-24.49,4.45-34.28-2.25-36.08-5.61-1.55-2.9,9.86-7.47,21.97-12.69,1.49-.65,3.03-1.29,4.58-2,13.66-5.99,21.32-18.23,31.96-29.58,10.11-10.76,19.71-45.23,19.71-45.23l33.25-7.09s-9.34,30.99-12.63,44.26c-1.87,7.73,.9,16.43,3.48,23.06,1.29,3.61,2.71,7.28,3.03,11.21Z" style="fill:#f9af79; fill-rule:evenodd;"/><path d="M1199.23,1400.48c-17.91,.84-12.5,4.51-36.98,8.95-24.49,4.45-34.28-2.25-36.08-5.61-1.55-2.9,9.86-7.47,21.97-12.69l.19,.2s17.27,5.86,37.11,.45c16.23-4.38,31.83-14.05,43.04-17.21,1.29,3.61,2.71,7.28,3.03,11.21,1.03,11.08-14.37,13.79-32.28,14.69Z" style="fill:#0e2952; fill-rule:evenodd;"/><path d="M1526.15,966.21s-184.4,8.31-226.02,34.6c-41.62,26.29-108.37,332.27-108.37,332.27,0,0,4.12,3.35,13.27,4.31,8.63,.97,27.45-4.12,27.45-4.12,0,0,95.94-136.91,102.7-171.39,6.7-34.53,5.09-65.33,20.49-66.11,15.4-.84,207.21,23.33,236.27-27.84,28.99-51.09-65.79-101.74-65.79-101.74Z" style="fill:#20386f; fill-rule:evenodd;"/><path d="M1307.6,1387.01c1.03,11.08-14.43,13.79-32.28,14.69-17.85,.9-12.5,4.51-36.92,8.95-24.48,4.45-34.34-2.26-36.08-5.54-1.61-2.96,9.79-7.54,21.91-12.76,1.55-.64,3.03-1.29,4.57-1.94,13.66-6.06,21.32-18.3,31.96-29.64,10.11-10.76,19.65-45.17,19.65-45.17l33.31-7.09s-9.34,30.93-12.56,44.2c-1.94,7.73,.9,16.49,3.35,23.07,1.35,3.61,2.71,7.34,3.09,11.21Z" style="fill:#f9af79; fill-rule:evenodd;"/><path d="M1275.32,1401.71c-17.85,.9-12.5,4.51-36.92,8.95-24.48,4.45-34.34-2.26-36.08-5.54-1.61-2.96,9.79-7.54,21.91-12.76l.19,.26s17.2,5.8,37.05,.45c16.24-4.45,31.9-14.11,43.04-17.27,1.35,3.61,2.71,7.34,3.09,11.21,1.03,11.08-14.43,13.79-32.28,14.69Z" style="fill:#0e2952; fill-rule:evenodd;"/><path d="M1597.67,970.59s-196.45,9.34-236.98,37.18c-40.59,27.9-95.49,336.26-95.49,336.26,0,0,4.25,3.16,13.53,3.8,8.63,.58,27.19-5.15,27.19-5.15,0,0,90.59-140.59,96-175.32,5.41-34.73,2.58-65.4,17.91-66.88,15.34-1.42,207.99,15.27,234.98-36.92,27-52.25-57.15-92.97-57.15-92.97Z" style="fill:#223f81; fill-rule:evenodd;"/><path d="M1656.43,719.63c-.07-.13-.13-.19-.26-.32-1.54-1.74-3.41-3.35-5.41-4.77l-.13-.07h0c-16.04-11.21-44.72-13.59-44.72-13.59h0s-3.16-.32-8.12-.52c-3.74-9.79-7.99-24.23-9.41-45.29l-2.77,.77-47.81,12.82s2.13,15.21,3.16,29.57c.13,3.16,.32,6.18,.39,9.15-1.42,.45-31.12,4.64-37.57,11.6-6.51,6.96-19.39,53.28-22.62,61.47l184.02,3.03s4.57-48.13-8.76-63.85Z" style="fill:#f9af79; fill-rule:evenodd;"/><path d="M1663.26,1048.75c-21.78,2.06-95.23-42.27-119.71-56.7-.39-.26-.84-.51-1.22-.71-10.18-6-24.55-8.83-38.14-11.08-17.33-2.83-33.57-4.77-38.72-10.96-6.18-7.41,11.99-15.59,26.55-24.1,7.35-4.25,13.79-8.63,15.85-13.02,1.55-3.41,1.42-10.95,.39-20.55h0c-.13-1.8-.39-3.67-.65-5.67-1.22,2.51-2.71,5.03-4.38,7.6-4.32,6.44-9.92,12.89-15.59,18.24-6.96,6.57-13.85,11.47-18.17,12.5-2.83,.71-5.8,.32-8.63-.77-7.6-2.96-15.01-11.41-20.88-19.52-1.42-1.87-2.7-3.8-3.86-5.61-3.99-6.06-6.83-11.08-7.86-12.31-3.28-3.61,13.08-10.76,19.78-16.11,6.7-5.35,33.12-109.53,33.12-109.53,3.29-8.19,16.17-54.51,22.62-61.47,0,0,25.26,30.8,57.99,29.06,32.47-1.74,88.01-33.06,88.92-33.57,2.83,1.29,5.8,5.15,5.8,5.15,13.27,15.72,8.76,63.85,8.76,63.85,0,0-25.51,112.17-25.51,123.45,0,20.75,17.14,68.49,25.32,102.83,5.22,21.78,6.83,38.21-1.74,38.98Z" style="fill:#6d96ce; fill-rule:evenodd;"/><path d="M1537.81,668.67s2.13,15.21,3.16,29.57c27-2.58,39.69-28.29,44.65-42.4l-47.81,12.82Z" style="fill:#f29e63; fill-rule:evenodd;"/><path d="M1529.63,682.91s64.24-3.22,61.6-43.17c-2.58-39.95,3.93-67.27-37.18-66.94-41.11,.39-48.07,16.17-50.45,29.7-2.32,13.53,9.28,80.22,26.03,80.41Z" style="fill:#f9af79; fill-rule:evenodd;"/><path d="M1526.93,587.03s15.33-3.61,20.36,3.87c5.02,7.47,1.42,11.66,12.63,14.82,11.21,3.09,15.07,2.9,13.92,10.7-1.16,7.86,11.21,13.66,11.79,19.97,.51,6.25,5.6,9.41,10.63,9.86,4.9,.45,2.64-80.86-16.37-84.4-19.07-3.61-37.37,.64-43.04,5.15-5.54,4.44-9.92,20.04-9.92,20.04Z" style="fill:#20386f; fill-rule:evenodd;"/><path d="M1526.93,587.03s-14.89-1.03-17.53,7.47c-2.71,8.5,.83,10.5-2.97,15.66-3.8,5.15-1.61,14.3-1.61,14.3,0,0-29.51-54.38,1.61-57.92,31.12-3.61,30.29,2.71,20.49,20.49Z" style="fill:#20386f; fill-rule:evenodd;"/><path d="M1507.47,893.21c-4.25,12.82-11.85,26.87-19.84,38.59-6.96,6.57-13.85,11.47-18.17,12.5-2.83,.71-5.8,.32-8.63-.77-7.6-2.96-15.01-11.41-20.88-19.52-1.42-1.87-2.7-3.8-3.86-5.61,20.36-16.36,59.02-53.8,63.08-105.02,5.48-69.97,8.57,83.05,8.31,79.83Z" style="fill:#466fb5; fill-rule:evenodd;"/><path d="M1460.82,943.53c7.09-10.89,21.65-21.58,42.4-29.96-9.6,14.31-25.97,28.86-33.76,30.74-2.83,.71-5.8,.32-8.63-.77Z" style="fill:#529aaa; fill-rule:evenodd;"/><path d="M1630.53,808.87s-16.04,161.08-86.98,183.18c-.39-.26-.84-.51-1.22-.71-10.18-6-24.55-8.83-38.14-11.08-17.33-2.83-33.57-4.77-38.72-10.96-6.18-7.41,11.99-15.59,26.55-24.1,7.35-4.25,13.79-8.63,15.85-13.02,1.55-3.41,1.42-10.95,.39-20.55h0c68.81-25.51,122.29-102.77,122.29-102.77Z" style="fill:#466fb5; fill-rule:evenodd;"/><path d="M1648.57,761.19c-7.48-33.5-41.11-14.3-41.11-14.3-11.73-2.64-97.48,136.33-104.38,139.49-5.8,2.71-84.86-20.23-108.83-27.32-6.25-4.9-28.03-21.78-31.77-22.04-4.51-.39-34.28,7.28-34.02,11.99,.13,4.77,7.09,11.66,18.04,13.4,8.37,1.35,22.49,6.83,31.5,8.18h0s87.24,59.47,124.42,66.68c33.37,6.51,153.6-142.65,146.13-176.09Z" style="fill:#f9af79; fill-rule:evenodd;"/><path d="M1450.83,874.79s-20.17,51.67,3.93,71.32c24.16,19.65,76.41,13.02,133.69-66.81,57.28-79.9,80.6-123.39,50.84-136.08-29.7-12.69-54.25,7.22-69.52,38.27-15.91,32.28-45.04,76.99-62.56,78.73-17.53,1.68-56.38,14.56-56.38,14.56Z" style="fill:#6d96ce; fill-rule:evenodd;"/><path d="M392.03,778.01c-18.72-5.28-19.17-1.87-21.55-2.64-2.83-.84-25.74-31.25-25.74-31.25,0,0-68.17-88.98-71.68-93.94l-22.39-115.85-63.75,.06s27.93,125.12,30.57,131.31c2.67,6.25,110.4,114.62,119.52,124.48,0,0,6.02,16.24,10.15,26.16,4.12,9.99,12.82,17.33,14.43,19.84,.26,.39,6.22,8.7,16.56,16.69,8.92,6.9,4.12-3.93,4.12-3.93,0,0-13.82-15.91-12.24-16.88,1.22-.77,8.21,8.44,17.98,16.11,2.51,2.06,4.99,4,7.31,5.8,6.02,4.64,11.11,2.13,5.67-3.8-1.9-2.19-5.19-5.6-7.89-7.6-2.96-2.32-4.83-5.28-6.96-7.54-4.25-4.64-7.41-7.8-7.09-7.93,.39-.06,.26-1.68,3,.39,3.32,2.45,8.96,9.28,14.14,12.44,2.93,1.81,8.8,5.99,8.8,5.99,0,0,10.24,4.51,10.76,3.99,2.9-2.77-2.96-7.86-7.34-9.79-1.97-2.64-8.31-6.83-8.31-6.83,0,0-10.5-11.54-8.67-13.21,.74-.71,8.15,5.54,16.49,10.44,7.73,4.51,16.46,7.79,17.78,6.38,2.22-2.45-5.77-8.5-5.77-8.5,0,0-5.83-3.8-7.63-5.28-2.16-1.68-8.09-7.35-8.09-7.35,0,0-19.65-20.36-17.85-21.71,1.84-1.48,7.86-3.48,9.57-2.64,1.71,.77,3.9,4,5.61,4.77,1.71,.9,4.8,.39,6.22-1.68,1.39-2.06-5.02-9.28-5.02-9.28,0,0-5.25-5.74-10.7-7.22Z" style="fill:#f9af79; fill-rule:evenodd;"/><path d="M292.2,1361.56l-1.87,40.14c-.77,5.15-3.93,17.72-3.87,22.29,.16,17.4,77.12-15.46,59.73-23-1.58-.71-9.86-5.87-10.44-11.86-.87-9.02-3.09-27.38-3.09-27.38l-40.46-.2Z" style="fill:#f9af79; fill-rule:evenodd;"/><path d="M346,1400.8s-18.1,5.54-27.38,6.9c-9.28,1.48-21.65-9.54-28.19-6.51-7.18,3.42-6.12,36.08-6.12,36.08,0,0,96.91,4.83,124.19-4.38,10.79-3.48-25.29-20.1-62.5-32.09Z" style="fill:#0e2952; fill-rule:evenodd;"/><path d="M121.97,1367.11l-1.87,40.2c-.77,5.09-3.93,17.72-3.87,22.36,.16,17.4,77.12-15.59,59.73-23.13-1.58-.65-12.34-9.73-12.92-15.59-.87-9.15-.61-23.65-.61-23.65l-40.46-.19Z" style="fill:#f9af79; fill-rule:evenodd;"/><path d="M175.77,1406.34s-18.1,5.54-27.38,7.03c-9.28,1.42-21.65-9.66-28.19-6.64-7.18,3.41-7.18,33.37-7.18,33.37,0,0,103.64,6.44,127.9-.84,10.92-3.22-27.93-20.81-65.14-32.93Z" style="fill:#0e2952; fill-rule:evenodd;"/><path d="M238.53,787.61l32.83,13.72,72.07,327.57-.26,246.13-55.06,1.74s-27.86-214.88-28.03-231.57c-.16-16.68-121.71-290.78-121.71-290.78l100.16-66.81Z" style="fill:#20386f; fill-rule:evenodd;"/><path d="M213.49,805.91s-21.49,253.09-21.04,295.74c.42,42.65-16.65,281.5-16.65,281.5l-55.22,.19s-4.73-72.61-11.76-179.63c-1.1-16.75,.68-50.51-.71-67.91-9.86-124.61-28.06-241.94-20.43-288.59,1.26-7.54,3.48-27.12,8.21-32.09,35.79-37.75,117.59-9.21,117.59-9.21Z" style="fill:#20386f; fill-rule:evenodd;"/><path d="M278.79,605.66l-66.85-3.8s-3.93-59.73-4.22-88.21c-.35-34.6-11.4-85.44-7.28-84.53,11.6,2.64,31.67,12.95,41.07,25.84,32.51,44.33,37.27,150.71,37.27,150.71Z" style="fill:#466fb5; fill-rule:evenodd;"/><path d="M118.65,428.6s-38.05,5.8-48.03,13.21c-11.18,8.38-23.55,27.13-23.55,27.13,0,0,49.06,220.68,49.55,257.98,.36,28.67-9.15,99.48-9.15,99.48,0,0,141.52,7.54,194.84-14.24,0,0-17.78-83.82-18.01-105.99-.23-22.04-22.52-222.61-27.25-236.53-4.29-12.76-12.15-35.44-38.05-40.91-25.9-5.35-80.35-.13-80.35-.13Z" style="fill:#6d96ce; fill-rule:evenodd;"/><path d="M128.44,369l-8.8,61.85s35.18,73.19,55.7,66.56c17.2-5.48,5.93-70.42,5.93-70.42,0,0-9.76-34.86-7.15-52.45,2.64-17.46-45.68-5.54-45.68-5.54Z" style="fill:#f9af79; fill-rule:evenodd;"/><path d="M174.13,374.54c2.64-17.46-45.68-5.54-45.68-5.54l-.71,5.15c1.42,3.41,3.19,6.25,5.31,8.51,10.95,11.53,27.93,18.23,42.56,18.62-1.55-9.34-2.54-19.52-1.48-26.74Z" style="fill:#f27458; fill-rule:evenodd;"/><path d="M119.58,281.76c-1.35-.52-10.24,70.42,8.18,89.69,18.43,19.33,54.02,25.39,66.62,9.86,13.92-17.07,12.44-93.23-16.14-113.01-28.54-19.72-58.67,13.47-58.67,13.47Z" style="fill:#f9af79; fill-rule:evenodd;"/><path d="M167.07,230.21c-21.87,4.57-35.92,18.04-41.08,23.78-9.95,1.29-23.42,6.83-37.15,29.96-16.88,28.41-3.87,59.53,16.27,74.8,20.17,15.08,20.07,32.99,20.07,32.99l3.06-9.41c2.25-6.89,3.12-14.3,2.25-21.52-.52-4.44-1.48-9.21-3.35-13.01-4.9-10.24,10.15-17.2,14.3-25.77,3.19-6.64,3.22-21.65,8.25-32.47l6.06-8.38s14.08-11.15,27.99-8.25c13.88,3.03,11.37-48.77-16.69-42.72Z" style="fill:#20386f; fill-rule:evenodd;"/><path d="M140.65,334.98c.26,8.63-3.64,15.72-8.63,15.98-5.06,.06-9.31-6.83-9.54-15.46-.23-8.7,3.64-15.79,8.67-15.92,4.99-.06,9.28,6.77,9.51,15.4Z" style="fill:#f9af79; fill-rule:evenodd;"/><path d="M61.21,457.72c12.79-.52,25.03,84.02,16.98,92.4-8.05,8.38-8.54,112.63-8.54,112.63l120.94-4.32v.13c2.35-1.67,27.51-18.94,31.12-22.62,3.74-4.06,22.23-2.25,27.16,3.09,4.96,5.28-9.34,2.71-13.66,5.67-4.32,3.03,1.87,8.57,1.87,8.57,0,0,30.7,4.12,36.63-2.25,5.9-6.44,21.78-17.33,24-11.02,1.16,3.35-6.99,13.27-11.56,17.46,5.73-4.38,12.63-9.02,14.98-8.25,4.38,1.42,2.64,7.02,.26,8.63-2.29,1.61-26.45,20.43-30.25,21.78-3.7,1.35-60.27,3.35-70.07,5.54,0,0-159.11,38.02-168.2,35.82-7.99-1.93-16.46-52.9-16.88-92.01-.39-39.11,5.15-169.71,45.23-171.26Z" style="fill:#f9af79; fill-rule:evenodd;"/><path d="M77.61,438.26s-22.26,5.35-45.04,31.51C11.85,493.54,0,625.56,0,625.56l72.49,10.95,5.12-63.85c30.15-46.46,37.4-102,0-134.4Z" style="fill:#466fb5; fill-rule:evenodd;"/><polygon points="730.23 74.61 894.43 141.94 849.33 199.48 730.23 74.61" style="fill:#c4d1eb; fill-rule:evenodd;"/><polygon points="917.57 114.82 735.26 75 962.25 91.56 917.57 114.82" style="fill:#c4d1eb; fill-rule:evenodd;"/><polygon points="917.57 114.82 913.31 190.39 894.43 141.94 730.23 74.61 735.26 75 917.57 114.82" style="fill:#9db2d9; fill-rule:evenodd;"/><polygon points="913.31 190.39 874.46 167.46 894.43 141.94 913.31 190.39" style="fill:#859ac6; fill-rule:evenodd;"/><path d="M955.52,184.79c-5.32-.71-4.12-8.44,.84-7.86l7.83,.84c5.28,.71,4.12,8.5-.9,7.86l-7.76-.84h0Zm269.23,313.01c3.48,0,5.22,4.25,2.83,6.64-.58,.71-1.74,1.22-2.83,1.22h-5.09c-5.09,0-5.22-7.86,.06-7.86h5.03Zm-28.48-.71c4.64,0,5.28,7.86-.39,7.86l-7.99-.52c-5.61-.71-4.06-8.44,.64-7.86l7.73,.52h0Zm-30.93-2.96c4.9,.65,4.19,8.5-1.23,7.8l1.23-7.8h0Zm-30.15-6.64c4.77,1.8,2.83,8.83-2.45,7.47-2.58-.77-5.09-1.68-7.6-2.71-4.83-2.06-1.93-9.15,2.9-7.28,2.39,.9,4.77,1.74,7.15,2.51h0Zm-26.68-13.4c4.12,3.42-1.1,9.34-4.9,6.12-2.26-1.87-4.32-3.74-6.25-5.86-3.48-4.19,2.77-9.02,5.87-5.22,1.67,1.8,3.41,3.42,5.28,4.96h0Zm-14.75-23.9c.71,5.6-7.15,6.06-7.73,1.35-.51-2.84-.84-5.54-.97-8.38,0-5.48,7.92-5.15,7.92-.19,.07,2.45,.33,4.83,.78,7.22h0Zm2.13-29.45c-1.16,4.83-8.89,3.16-7.61-2.06,.71-2.58,1.48-5.28,2.32-7.8,1.93-5.15,9.21-2,7.48,2.58-.77,2.38-1.55,4.83-2.19,7.28h0Zm10.89-28.87c-2,4.57-9.34,1.74-7.16-3.29,1.1-2.38,2.19-4.77,3.35-7.15,2.96-5.09,9.41-.52,7.09,3.42-1.16,2.32-2.19,4.7-3.28,7.02h0Zm14.04-27.9c-2.77,4.77-9.34,.52-6.96-3.67l3.67-6.96c2.7-4.77,9.41-.58,6.96,3.67-1.29,2.25-2.45,4.64-3.67,6.96h0Zm14.63-27.96c-2.84,4.96-9.28,.52-7.02-3.54l3.41-7.02c2.71-4.7,9.15-1.29,7.15,3.41l-3.54,7.15h0Zm12.82-29.45c-1.74,4.7-8.83,2.83-7.47-2.45,.77-2.38,1.48-4.77,2.12-7.28,1.29-4.96,8.89-3.09,7.67,1.93-.71,2.64-1.49,5.22-2.32,7.8h0Zm3.93-32.67c.65,5.15-7.15,6.12-7.79,.97-.32-2.45-.71-4.83-1.36-7.22-1.29-5.15,6.45-6.96,7.61-2,.71,2.71,1.22,5.48,1.54,8.25h0Zm-12.11-30.86c3.09,4.32-3.35,8.83-6.32,4.7-1.55-2.06-3.03-3.99-4.7-5.86-3.54-4.25,2.77-8.96,5.86-5.28,1.8,2,3.61,4.25,5.15,6.44h0Zm-23.78-22.42c4.06,2.9,.39,9.28-4.38,6.51-2.13-1.42-4.32-2.77-6.51-4.06-4.31-2.51-.58-9.47,4.06-6.77,2.32,1.35,4.57,2.77,6.83,4.32h0Zm-28.41-15.14c4.83,2.13,1.61,9.28-3.09,7.28-2.32-.97-4.77-1.93-7.15-2.83-4.83-1.87-2.13-9.22,2.77-7.41,2.51,.97,5.02,1.93,7.47,2.96h0Zm-30.22-10.44c4.7,1.16,3.16,8.89-2.13,7.54l-7.54-2.06c-4.9-1.22-3.16-8.89,2-7.6l7.67,2.13h0Zm-30.86-7.6c5.41,1.42,3.03,8.89-1.55,7.73l-7.73-1.55c-5.02-1.22-3.8-8.38,1.48-7.73l7.8,1.55h0Zm-31.19-5.54c4.9,.64,4.12,8.5-1.22,7.79l-7.73-1.09c-4.96-.64-4.19-8.51,1.1-7.8l7.86,1.1Z" style="fill:#859ac6; fill-rule:evenodd;"/></svg>