<?xml version="1.0" encoding="UTF-8"?><svg id="a" xmlns="http://www.w3.org/2000/svg" viewBox="0 0 1947.64 1394.81"><path d="M1775.35,173.18c-16.3,0-29.5-13.22-29.5-29.52s13.2-29.51,29.5-29.51,29.52,13.22,29.52,29.51-13.2,29.52-29.52,29.52h0ZM522.49,880.6h-157.63c-84.85,0-154.28,69.41-154.28,154.24h0c0,84.86,69.43,154.3,154.28,154.3H1697.84c137.37,0,249.8-112.41,249.8-249.78v-.04c0-137.39-112.43-249.78-249.8-249.78h0c-58.09,0-105.62-47.53-105.62-105.62h0c0-58.09,47.53-105.62,105.62-105.62h127.12c60.4,0,109.79-49.43,109.79-109.81h0c0-60.4-49.39-109.81-109.79-109.81h-160.75c-23.51,0-42.74-19.24-42.74-42.75h0c0-23.53,19.23-42.75,42.74-42.75h28.34c16.22,0,29.5-13.29,29.5-29.52h0c0-16.21-13.27-29.51-29.5-29.51h-185.93c-39.14,0-43.51,46.27-142.42,46.27h-229.37c-21.15,0-38.48,17.3-38.48,38.51h0c0,21.16,17.33,38.49,38.48,38.49h36.98c30.68,0,55.77,25.09,55.77,55.81h0c0,30.68-25.09,55.77-55.77,55.77h-111.27c-150.26,0-171.5,39.25-197.81,117.37-26.31,78.08-163,84.38-163,84.38h-186.87c-46.24,0-84.05,37.83-84.05,84.07h0c0,46.24,37.81,84.07,84.05,84.07h9.62c44.49,0,80.86,36.39,80.86,80.84h0c0,44.47-36.38,80.86-80.86,80.86h0Z" style="fill:#e0e8f5; fill-rule:evenodd;"/><path d="M1153.02,1201.34c247.57,0,448.23,16.35,448.23,36.52s-200.66,36.52-448.23,36.52-448.2-16.35-448.2-36.52,200.66-36.52,448.2-36.52Z" style="fill:#c4d1eb; fill-rule:evenodd;"/><path d="M1374.58,663.47c-6.1,5.33-12.78,7.52-20.58,5.9,7.32,5.51,17.44,1.29,20.58-5.9Z" style="fill:#f48661; fill-rule:evenodd;"/><path d="M1347.09,1192.33c1.16-8.26-1.44-22.42-7.85-44.6,12.76,.04,23.49-5.62,36.54-5.44,3.58,20.87,9.09,55.09,9.09,55.09l.61,27.07-90.91,.7s.76,.41,27.56-16.54c1.97-1.25,23.86-8.33,24.96-16.28Z" style="fill:#f9af79; fill-rule:evenodd;"/><path d="M1385.88,1231.41h-93.81c-3.5-.33-4.33-3.15-3.13-4.89,2.51-3.61,20.8-12.24,33.11-17.96,21.57,2.27,59.49-6.6,62.91-11.6,5.9,16.54,2.86,34,.92,34.44Z" style="fill:#0e2952; fill-rule:evenodd;"/><path d="M1460.32,1192.33c1.14-8.26,3.1-18.57,.22-46.04,12.79,0,24.94-2.38,38.02-2.19,0,21.44-.44,53.28-.44,53.28l.55,27.07-90.89,.7s.77,.41,27.54-16.54c1.99-1.25,23.89-8.33,25-16.28Z" style="fill:#f9af79; fill-rule:evenodd;"/><path d="M1499.12,1231.41h-93.84c-3.47-.33-4.3-3.15-3.08-4.89,2.45-3.61,20.78-12.24,33.08-17.96,21.59,2.27,59.5-6.6,62.89-11.6,5.94,16.54,2.91,34,.96,34.44Z" style="fill:#0e2952; fill-rule:evenodd;"/><path d="M1394.27,407.39l-34.2-36.06s-36.58,20.13-79.24,39.34c-11.76-20.39-30.88-87.57-31.9-90.75-1.03-3.24,22.38-43.55,17.18-44.58-5.25-1-12.08,21.53-17.62,19.27-5.55-2.3-19.8-54.61-23.16-51.74-6.23,5.34,7.54,32.51,4.22,34.5-3.28,1.99-11.63-30.13-17.98-28.77-6.38,1.37,10.69,29.23,8.85,31.92-1.88,2.67-19.76-23.47-23.45-17.39-1.99,3.24,16.48,22.75,12.68,24.94-3.8,2.16-20.46-10.1-22.42-6.12-1.99,3.96,15.52,8.13,20.39,18.2,4.85,10.03,13.72,13.96,16.67,32.96,2.91,19.03,10.95,120.7,31.67,128.87,18.1,7.12,138.29-54.61,138.29-54.61Z" style="fill:#f9af79; fill-rule:evenodd;"/><path d="M1372.18,601.95l27.71,15.47,56.36,86.17-100.78,237.22s11.38,35.69,15.06,53.5c3.85,18.64,13.35,178.71,13.35,178.71l-43.01,.74s-40.84-170.41-47.75-225.72c-8.39-67.16,42.75-227.08,42.75-227.08,9.55-32.65,30.09-99.8,30.09-99.8,0,0,5.01-16.35,6.21-19.21Z" style="fill:#0e2952; fill-rule:evenodd;"/><path d="M1468.68,569.59s-2.88,20.24,8.61,43.36c6.97,14.12,19.06,25.18,27.73,42.42,16.37,32.69,25.22,79.11,19.1,108.94,0,0-33.83,129.17-32.49,176.38,.48,17.42,6.45,48.82,10.29,70,3.36,18.75,4.52,160.16,4.52,160.16l-48.05-1.44-36.75-228.13-15.56-202.77-33.91-136.58,96.5-32.36Z" style="fill:#0e2952; fill-rule:evenodd;"/><path d="M1367,271.89c4.24-20.04,8.63-40.18,28.56-54.61,16.11-11.68,33.42-15.04,51.79-8.38,52.07,18.89,24.08,60.2,88.66,104.19,20.06,13.68,27.67,18.46,42.05,36.69,20.17,25.52,31.19,59.73,21.05,87.94-20.94,58.24-85.88,75.09-119.84,62.74-63.24-22.99-115.89-103.19-119.4-125.06-3.76-23.43,4.37-90.6,7.12-103.52Z" style="fill:#20386f; fill-rule:evenodd;"/><path d="M1356.89,430.06c-15.28,7.04-43.01,17.66-43.01,17.66l-15.75-49.85c89.1-50.7,82.1-42.5,148.95-41.52,53.47,.77,75.87-9.44,121.87,114.79,0,0-35.01,15.73-47.57,20.8-5.4-15.38-15.14-46-20.83-28.54-8.59,26.36-14.86,53.01-19.1,80.42-2.65,16.24-8.48,37.04-5.42,53.58,0,0-36.39,7.5-64.18,8.74h-.26c-13.42-.37-27.16-1.55-39.42-4.18,0,0-5.44-115.21-8.35-120.04-3.25-5.29-16.85-22.49-5.27-48.23,2.07-4.55,1.51-5.07-1.66-3.61Z" style="fill:#6d96ce; fill-rule:evenodd;"/><path d="M1423.82,630.03c-.66,.11-3.5-.26-5.83-.22-3.21,.07-6.01,.55-6.01,.55,0,0-1.25-1.11-3.67-2.21-1.01-.46-2.64-.63-3.76-1.14-1.16-.55-2.12-1.53-3.21-2.01-2.84-1.24-5.44-1.53-6.31-.02-.74,1.22,15.06,10.88,15.06,10.88,14.64,.07,29.94,7.56,63.83-14.56,19.34-8.44,113.29-54.87,115.19-64.97,1.07-5.7-13.35-49.63-25.13-82.98-9.09,4.07-28.41,12.65-39.21,17.18,9.92,21.04,21.63,48.88,20.39,52.3-.33,.89-1.49,2.51-65.01,44.08-1.62,1.03-3.25,2.12-4.9,3.19-4.5,2.95-9.27,6.05-14.34,9.37l-18.1-1.9s-28.69,1.97-29.57,5.25c-.37,1.49,2.01,2.23,4.94,2.67h.09c.41,.04,.85,.09,1.31,.13h0c3.19,.41,6.51,.48,7.34,.74,.88,.33,2.73,1.05,4.31,2.12-17.92,7.32-16.54,4.7-22.46,4.33-1.47-.11-3.08,.33-4.5,.22-2.38-.22-4.31-1.66-6.16-1.77-2.73-.15-4.94,1.11-5.42,1.62-.64,.66,.55,1.57,2.84,2.6,13.81,5.99,25.26,3.71,28.95,4.59,2.43,.59-2.06,1.53-9.09,.77-1.75-.18-4.06,.44-6.36-.09-1.55-.35-2.97-1.35-4.48-1.71-1.42-.35-2.84-.33-4.04-.53-1.51-.29-3.69-1.49-4.9-1.6-4.59-.55-6.8,.29-7.34,.68-1.07,.96,19.76,8.94,19.76,8.94,0,0,14.38,2.08,17.59,2.08,0,0,1.92,.87-1.81,1.42Z" style="fill:#f9af79; fill-rule:evenodd;"/><path d="M1440.52,307.2s4.13,32.89,6.49,44.3c2.53,11.93,6.31,49.61-18.49,55.73-24.8,6.1-17.11-40.97-17.53-53.13-.37-12.15-7.41-54.5-7.41-54.5l36.95,7.6Z" style="fill:#f9af79; fill-rule:evenodd;"/><path d="M1441.87,317.69c-.22,.17-.48,.31-.72,.46-13.72,7.85-25.63,6.62-34.59,.52-1.59-10.53-2.99-19.06-2.99-19.06l36.95,7.6s.55,4.39,1.35,10.49Z" style="fill:#f27458; fill-rule:evenodd;"/><path d="M1433.08,221.52s14.53,4.07,22.92,18.5c8.35,14.42,12.54,55.83-18.27,73.53-30.83,17.66-52.71-10.66-51.77-37.13,.92-26.48,8.3-61.55,47.12-54.9Z" style="fill:#f9af79; fill-rule:evenodd;"/><path d="M1379.11,265.04c-.33,6.88,2.62,12.63,6.6,12.81,3.96,.22,7.47-5.2,7.8-12.09,.37-6.9-2.58-12.65-6.56-12.83-3.98-.18-7.49,5.24-7.84,12.11Z" style="fill:#f9af79; fill-rule:evenodd;"/><path d="M1428.72,220.42s16.63,43.34,32.89,47.95c16.26,4.61,14.95,25.92,14.95,25.92,0,0,2.1-49.25-12.78-61.33-14.86-12.07-35.07-12.55-35.07-12.55Z" style="fill:#20386f; fill-rule:evenodd;"/><path d="M1454.65,276.85c-2.53,6.78-.88,13.64,3.67,15.34,4.54,1.7,10.23-2.36,12.74-9.15,2.54-6.78,.88-13.68-3.65-15.38-4.54-1.7-10.25,2.4-12.76,9.18Z" style="fill:#f9af79; fill-rule:evenodd;"/><path d="M714.71,293.52H81.28c4.55-19.23,21.81-33.55,42.46-33.55,.98,0,1.99,.04,2.95,.11,10.03-24.49,34.07-41.75,62.17-41.75,12.32,0,23.8,3.32,33.7,9.08,12.09-39.82,49.08-68.81,92.85-68.81,8.9,0,17.53,1.21,25.72,3.45,21.18-46.78,68.31-79.31,122.99-79.31,64.88,0,119.06,45.79,132.01,106.8,1.09-.04,2.18-.07,3.26-.07,41.57,0,75.87,31.07,80.94,71.26,16.94,3.17,30.46,16.13,34.38,32.8Z" style="fill:#c4d1eb; fill-rule:evenodd;"/><path d="M978.8,210.8H345.35c4.54-19.24,21.83-33.55,42.46-33.55,.98,0,2.01,.04,2.97,.11,10.01-24.5,34.07-41.76,62.17-41.76,12.28,0,23.78,3.32,33.7,9.08,12.08-39.82,49.06-68.81,92.85-68.81,8.89,0,17.53,1.21,25.7,3.47C626.4,32.55,673.5,0,728.2,0c64.86,0,119.06,45.79,132.01,106.81,1.07-.04,2.16-.07,3.26-.07,41.57,0,75.87,31.08,80.94,71.25,16.94,3.17,30.44,16.14,34.38,32.81Z" style="fill:#e0e8f5; fill-rule:evenodd;"/><path d="M161.02,708.09c-18.1,17.09-26.33,37.55-24.67,61.41,42.83,29.15,64.97,56.47,66.43,81.93-50.31-44.78-88.11-44.65-105.13-17.17,12.56,15.19,21.35,67.64,18.31,91.78-5.36,42.61,6.25,80.86,38.46,95.23,7.39,16.58,15.15,25.28,23.3,26.2-7.82,47.73-14.38,96.22-19.73,145.39,5.46,2.8,13.24,2.51,17.39-.29,1.64-19.17,2.88-32.71,4.13-41.76,3.3-35.71,7.02-70.23,11.15-103.6,1.97-.22,3.95-.55,5.9-1,37.68-7.89,23.25-31.4,57.71-38.48,21.2-4.31,40.49-22.25,45.3-38.24-22.07-6.97-49.87-14.42-78.08-9.15,14.68-20.56,44.41-19.03,84.79-14.03,15.25-29.68,36.91-26.96,28.34-73.34-11.98-64.68,30.33-82.58,16.08-160.42-20.8-7.84-48.3-6.93-82.56,2.77,14.51-21.48,42.09-30.4,82.73-26.7-8.46-22.79-8.39-52.27-4.35-64.84-15.1-10.91-30.35-10.84-45.76,.18,6.9-11.82,15.82-18.57,26.79-20.28-.55-10.1-4.9-21.42-13.09-33.96-13.5,.31-28.48,3.32-44.93,9,7.48,4.92,9.92,13.83,7.28,26.64-9-10.6-22.35-14.14-39.93-10.6-3.72,46.2-44.67,64.93-45.37,84.86,24.12,21.22,38.24,44.38,42.35,69.47-24.54-21.07-48.84-34.75-72.82-41.02Z" style="fill:#b0c2e4; fill-rule:evenodd;"/><path d="M158,1192.86c5.35-49.17,11.91-97.66,19.73-145.39,27.8-180.37,76.36-366.67,118.64-444.62-56.4,132.95-95.37,315.6-116.85,547.96-1.25,9.05-2.49,22.59-4.13,41.76-4.15,2.8-11.93,3.1-17.39,.29Z" style="fill:#9db2d9; fill-rule:evenodd;"/><path d="M229.57,591.75c17.48,22.31,23.25,46.76,17.33,73.32-53.17,25.53-82.74,52.53-88.72,80.94,64.25-41.83,106.78-35.27,121.26-1.42-16.72,14.95-35.53,72.51-36.21,100.18-1.22,48.91-20.8,90.03-59.53,100.74-11.12,17.39-21.33,25.85-30.64,25.48,.66,55.09-.18,110.79-2.54,167.09-6.6,2.23-15.32,.54-19.52-3.3,1.4-21.87,2.34-37.3,2.45-47.71,2.36-40.78,4.06-80.27,5.09-118.53-2.21-.63-4.37-1.33-6.51-2.12-41.06-15.3-20.81-39.33-58.43-53.13-23.14-8.52-41.81-31.95-44.47-50.81,26.03-4.09,58.59-7.71,89.42,3.02-12.98-25.66-46.74-28.98-93.07-30.27-12.11-35.97-36.95-36.58-19.4-87.35,24.47-70.76-20.11-98.16,9.14-183.35,24.76-5.33,55.6,.41,92.53,17.16-12.7-26.7-42.24-41.39-88.62-44.12,13.38-24.24,18.33-57.43,15.93-72.25,18.84-9.75,36.01-7.08,51.51,7.96-5.77-14.49-14.68-23.62-26.73-27.4,2.32-11.32,9.14-23.3,20.48-36.01,15.17,2.65,31.54,8.57,49.1,17.75-9.29,4.3-13.53,13.9-12.72,28.78,11.93-10.4,27.54-12.11,46.76-5.18-3.69,52.69,39.25,80.75,36.61,103.28-30.73,19.8-50.59,43.49-59.48,71.02,31.21-19.54,60.88-30.81,88.98-33.78Z" style="fill:#c4d1eb; fill-rule:evenodd;"/><path d="M150.51,1138.08c2.36-56.31,3.21-112,2.54-167.09-.63-207.78-23.64-425.81-57.96-520.76,40.89,159.29,53.69,371.57,38.35,636.84-.11,10.42-1.05,25.85-2.45,47.71,4.2,3.83,12.92,5.53,19.52,3.3Z" style="fill:#b0c2e4; fill-rule:evenodd;"/><path d="M174.11,1171.2c-77.36,0-140.06,14.12-140.06,31.53s62.7,31.51,140.06,31.51,140.08-14.12,140.08-31.51-62.72-31.53-140.08-31.53Z" style="fill:#c4d1eb; fill-rule:evenodd;"/><path d="M102.5,1079.22H238.79c6.12,0,11.12,5.03,11.12,11.15v31.29c0,6.12-5,11.1-11.12,11.1H102.5c-6.12,0-11.12-4.98-11.12-11.1v-31.29c0-6.12,5-11.15,11.12-11.15Z" style="fill:#b0c2e4; fill-rule:evenodd;"/><polygon points="103.72 1132.76 237.57 1132.76 224.41 1201.97 116.88 1201.97 103.72 1132.76" style="fill:#b0c2e4; fill-rule:evenodd;"/><polygon points="237.57 1132.76 103.72 1132.76 106.12 1145.31 235.17 1145.31 237.57 1132.76" style="fill:#9db2d9; fill-rule:evenodd;"/><path d="M1036.76,668.45c-16.17-4.54-16.56-1.62-18.62-2.29-2.43-.74-22.2-26.95-22.2-26.95,0,0-58.91-76.88-61.91-81.16l-19.36-100.04-55.03,.07s24.12,108.08,26.4,113.37c2.3,5.38,95.34,99.02,103.23,107.52,0,0,5.18,14.01,8.74,22.58,3.58,8.59,11.06,14.93,12.46,17.11,.2,.35,5.38,7.5,14.31,14.42,7.67,5.97,3.56-3.37,3.56-3.37,0,0-11.96-13.74-10.58-14.58,1.05-.66,7.1,7.26,15.54,13.92,2.16,1.75,4.31,3.45,6.3,4.96,5.22,4.06,9.59,1.86,4.89-3.28-1.64-1.86-4.44-4.81-6.82-6.56-2.53-1.95-4.15-4.55-5.99-6.49-3.67-3.98-6.4-6.75-6.12-6.82,.33-.11,.22-1.44,2.6,.33,2.84,2.1,7.72,8,12.19,10.69,2.54,1.62,7.62,5.24,7.62,5.24,0,0,8.83,3.87,9.31,3.47,2.47-2.47-2.6-6.86-6.36-8.54-1.71-2.27-7.17-5.88-7.17-5.88,0,0-9.07-9.96-7.52-11.39,.66-.59,7.08,4.81,14.27,9,6.67,3.91,14.21,6.75,15.34,5.51,1.92-2.12-4.96-7.34-4.96-7.34,0,0-5.03-3.3-6.6-4.55-1.86-1.44-6.99-6.3-6.99-6.3,0,0-16.96-17.63-15.39-18.81,1.57-1.25,6.78-2.95,8.24-2.29,1.49,.7,3.36,3.47,4.85,4.13,1.49,.76,4.15,.33,5.37-1.42,1.2-1.79-4.35-8.02-4.35-8.02,0,0-4.54-4.98-9.22-6.23Z" style="fill:#f9af79; fill-rule:evenodd;"/><path d="M950.57,1172.32l-1.64,34.62c-.66,4.48-3.39,15.38-3.36,19.32,.18,15.01,66.63-13.42,51.6-19.91-1.35-.57-8.5-5.01-9-10.2-.77-7.84-2.67-23.65-2.67-23.65l-34.94-.18Z" style="fill:#f9af79; fill-rule:evenodd;"/><path d="M997.01,1206.21s-15.63,4.81-23.65,5.99c-7.98,1.24-18.68-8.26-24.32-5.66-6.23,2.93-5.29,31.18-5.29,31.18,0,0,83.67,4.15,107.21-3.78,9.33-3.04-21.83-17.39-53.95-27.73Z" style="fill:#0e2952; fill-rule:evenodd;"/><path d="M803.57,1177.13l-1.62,34.74c-.68,4.35-3.39,15.25-3.36,19.28,.15,15.01,66.59-13.5,51.59-19.99-1.36-.59-10.64-8.44-11.14-13.46-.77-7.93-.55-20.43-.55-20.43l-34.92-.15Z" style="fill:#f9af79; fill-rule:evenodd;"/><path d="M850.02,1211.02s-15.62,4.81-23.65,6.05c-8,1.18-18.69-8.32-24.34-5.72-6.21,2.93-6.19,28.82-6.19,28.82,0,0,89.49,5.55,110.44-.76,9.44-2.8-24.11-17.94-56.25-28.39Z" style="fill:#0e2952; fill-rule:evenodd;"/><path d="M904.2,676.71l28.36,11.87,62.24,282.82-.22,212.56-47.57,1.51s-24.04-185.57-24.19-199.98c-.15-14.42-105.09-251.03-105.09-251.03l86.47-57.74Z" style="fill:#0e2952; fill-rule:evenodd;"/><path d="M882.58,692.54s-18.53,218.53-18.16,255.35c.37,36.86-14.36,243.07-14.36,243.07l-47.7,.18s-4.07-62.7-10.14-155.09c-.96-14.49,.59-43.64-.61-58.65-8.54-107.63-24.21-208.92-17.64-249.19,1.07-6.53,3.02-23.45,7.1-27.77,30.9-32.6,101.51-7.91,101.51-7.91Z" style="fill:#0e2952; fill-rule:evenodd;"/><path d="M939.01,519.61l-57.78-3.28s-3.36-51.57-3.61-76.18c-.33-29.85-9.85-73.73-6.31-72.99,10.03,2.29,27.36,11.23,35.47,22.35,28.1,38.27,32.23,130.11,32.23,130.11Z" style="fill:#466fb5; fill-rule:evenodd;"/><path d="M800.7,366.75s-32.87,4.96-41.48,11.38c-9.66,7.25-20.32,23.43-20.32,23.43,0,0,42.35,190.52,42.75,222.73,.31,24.78-7.87,85.97-7.87,85.97,0,0,122.16,6.45,168.25-12.32,0,0-15.38-72.4-15.56-91.52-.2-19.04-19.43-192.26-23.54-204.3-3.71-10.93-10.51-30.59-32.85-35.31-22.36-4.63-69.38-.07-69.38-.07Z" style="fill:#6d96ce; fill-rule:evenodd;"/><path d="M809.14,315.26l-7.6,53.43s30.4,63.22,48.1,57.47c14.84-4.72,5.11-60.84,5.11-60.84,0,0-8.43-30.09-6.14-45.24,2.27-15.1-39.47-4.81-39.47-4.81Z" style="fill:#f9af79; fill-rule:evenodd;"/><path d="M848.61,320.07c2.27-15.1-39.47-4.81-39.47-4.81l-.61,4.44c1.23,2.99,2.77,5.42,4.59,7.34,9.46,9.96,24.12,15.78,36.78,16.11-1.36-8.09-2.23-16.85-1.29-23.08Z" style="fill:#f27458; fill-rule:evenodd;"/><path d="M801.51,239.91c-1.18-.41-8.85,60.84,7.06,77.45,15.91,16.69,46.64,21.92,57.52,8.52,12.04-14.75,10.73-80.49-13.92-97.59-24.67-17.03-50.66,11.62-50.66,11.62Z" style="fill:#f9af79; fill-rule:evenodd;"/><path d="M842.51,195.41c-18.88,3.96-31.03,15.61-35.47,20.58-8.59,1.1-20.21,5.9-32.06,25.85-14.58,24.55-3.36,51.43,14.05,64.56,17.39,13.09,17.33,28.48,17.33,28.48l2.62-8.09c1.94-5.97,2.71-12.37,1.97-18.6-.44-3.8-1.29-7.91-2.91-11.23-4.24-8.83,8.78-14.82,12.35-22.23,2.77-5.75,2.78-18.69,7.12-28.08l5.24-7.22s12.17-9.63,24.15-7.1c12.02,2.62,9.85-42.14-14.38-36.91Z" style="fill:#20386f; fill-rule:evenodd;"/><path d="M819.71,285.92c.2,7.41-3.15,13.57-7.49,13.72-4.33,.11-8.02-5.86-8.2-13.31-.22-7.49,3.13-13.64,7.47-13.72,4.33-.07,8.02,5.81,8.22,13.31Z" style="fill:#f9af79; fill-rule:evenodd;"/><path d="M751.07,391.84c11.08-.39,21.61,72.59,14.68,79.81-6.93,7.26-7.36,97.27-7.36,97.27l104.43-3.72,.02,.07c2.03-1.42,23.75-16.33,26.84-19.54,3.24-3.43,19.21-1.92,23.49,2.69,4.26,4.57-8.11,2.38-11.84,4.9-3.72,2.62,1.64,7.41,1.64,7.41,0,0,26.49,3.54,31.62-1.92,5.09-5.59,18.79-15.01,20.72-9.55,1,2.88-6.05,11.47-9.99,15.1,4.94-3.8,10.9-7.84,12.94-7.17,3.76,1.25,2.27,6.08,.26,7.5-2.05,1.35-22.86,17.61-26.14,18.79-3.21,1.18-52.06,2.88-60.51,4.81,0,0-137.41,32.78-145.24,30.92-6.9-1.68-14.23-45.67-14.56-79.46-.35-33.78,4.42-146.55,39.01-147.92Z" style="fill:#f9af79; fill-rule:evenodd;"/><path d="M765.26,375.08s-19.21,4.65-38.9,27.23c-17.88,20.48-28.12,134.5-28.12,134.5l62.59,9.44,4.44-55.13c26.01-40.15,32.28-88.05-.02-116.04Z" style="fill:#466fb5; fill-rule:evenodd;"/><rect x="984.88" y="444.11" width="114.36" height="39.53" style="fill:#d0a382;"/><path d="M985.91,422.13c-6.86-3.21-11.43-9.14-11.43-18.07v-2.8c-1.35-77.36-69.32-99.06-74.83-184.66-.42-6.43-.37-12.68,.15-18.81,10.64-64.92,72.33-108.52,141.67-108.52,79,0,148.1,56.6,143.05,136.88-5.24,83.03-70.02,104.08-71.31,179.14,0,8.13-8.68,17.5-16.08,16.83h-111.21Z" style="fill:#eac5a7; fill-rule:evenodd;"/><path d="M1103.35,492.75c-.85,8.7-8.24,15.56-17.15,15.56h-13.16l-5.14,8.37c-2.95,4.83-4.7,5.13-10.34,5.13h-30.97c-5.68,0-7.41-.29-10.36-5.13l-5.13-8.37h-13.2c-8.78,0-16.08-6.67-17.09-15.21v-6.03c.46-1.95,2.27-3.43,4.33-3.43h113.85c2.1,0,3.89,1.48,4.33,3.48,.04,.17-.07,.54,.04,.61v5.02h0Zm-116.59-39.58h110.62c3.32,0,6.05,2.73,6.05,6.07v9.44c0,3.32-2.73,6.08-6.05,6.08h-110.62c-3.34,0-6.07-2.77-6.07-6.08v-9.44c0-3.34,2.73-6.07,6.07-6.07h0Zm.24-31.03h110.12c3.47,0,6.31,2.88,6.31,6.34v9.81c0,3.47-2.84,6.31-6.31,6.31h-110.12c-3.47,0-6.3-2.84-6.3-6.31v-9.81c0-3.47,2.84-6.34,6.3-6.34Z" style="fill:#bf9071; fill-rule:evenodd;"/><path d="M1024.59,422.13l-11.73-141.63h-16.96c-7.34,0-13.97-3.01-18.79-7.82h0c-4.81-4.85-7.84-11.5-7.84-18.81s3.02-13.99,7.84-18.81c4.81-4.82,11.45-7.81,18.79-7.81s13.53,2.89,18.2,7.58c4.74,4.73,7.8,11.33,8.42,18.53l1.31,15.19h51.9l1.33-15.19c.61-7.18,3.69-13.78,8.43-18.53,4.66-4.68,10.93-7.58,18.16-7.58s13.97,3.01,18.8,7.83l.02-.02c4.81,4.82,7.8,11.49,7.8,18.81s-2.99,13.99-7.8,18.81c-4.81,4.81-11.49,7.82-18.82,7.82h-16.96l-11.71,141.63h-11.93l11.63-141.63h-49.8l11.65,141.63h-11.95Zm-12.74-153.58l-1.25-14.16c-.37-4.39-2.17-8.32-4.96-11.12-2.51-2.51-5.86-4.07-9.73-4.07s-7.67,1.65-10.32,4.31c-2.69,2.66-4.33,6.34-4.33,10.36s1.64,7.73,4.3,10.36h.04c2.65,2.64,6.3,4.31,10.32,4.31h15.95Zm75.87,0h15.93c4.06,0,7.71-1.68,10.36-4.31,2.65-2.65,4.31-6.32,4.31-10.36s-1.66-7.7-4.31-10.36v-.02c-2.66-2.64-6.31-4.29-10.36-4.29-3.83,0-7.19,1.56-9.7,4.07-2.8,2.81-4.59,6.75-4.98,11.12l-1.25,14.16Z" style="fill:#fff; fill-rule:evenodd;"/><path d="M1093.55,139.04c-3.8-1.59-5.57-5.97-3.98-9.77,1.62-3.8,5.99-5.57,9.79-3.97,3.1,1.32,6.03,2.71,8.78,4.19,2.86,1.54,5.66,3.21,8.35,4.99,3.43,2.3,4.39,6.91,2.1,10.36-2.27,3.45-6.91,4.38-10.34,2.11-2.3-1.54-4.7-2.96-7.19-4.3-2.51-1.36-5.02-2.56-7.5-3.61h0Zm32.87,23.84c-2.71-3.12-2.38-7.84,.72-10.56,3.13-2.71,7.83-2.38,10.54,.74,7.91,9.1,14.23,19.54,18.55,31.01,4.17,11.05,6.43,22.94,6.43,35.33,0,4.12-3.36,7.48-7.5,7.48s-7.49-3.36-7.49-7.48c0-10.62-1.9-20.74-5.44-30.08-3.65-9.72-9.05-18.64-15.82-26.44Z" style="fill:#fff; fill-rule:evenodd;"/><path d="M1496.37,1227.52s-15.8,21.75-43.25,36.89c-28.36,15.63-61.08,23.14-40.8,30.22,20.3,7.08,49.96,12.57,78.87,4.19,20.32-5.9,44.14-7.15,50.41-16.72,6.27-9.61-14.97-35.93-9.29-71.96,4.57-28.82-35.93,17.39-35.93,17.39Z" style="fill:#172b57; fill-rule:evenodd;"/><path d="M1599.56,923.39s-114.42-8.98-146.39-3.43c-31.97,5.57-102.08,5.53-56.23,134.94,35.97,101.44,80.35,197.68,80.35,197.68,23.86,5.86,41.04,22.29,71.5,17.55,0,0-38.4-227.51-69.47-260.21,24.82,4.07,70.39,12.06,133.59,30.14,117.18,33.48,164.27,16.72,164.27,16.72l17.48-61.17-195.1-72.22Z" style="fill:#20386f; fill-rule:evenodd;"/><rect x="680.34" y="843.04" width="95.76" height="11.12" style="fill:#20386f;"/><rect x="1286.8" y="843.04" width="95.76" height="11.12" style="fill:#223f81;"/><rect x="1286.8" y="843.04" width="95.76" height="11.12" style="fill:#20386f;"/><polygon points="1253.24 565.79 1370.32 564.39 1408.35 768.01 1296.83 799.09 1253.24 565.79" style="fill:#0b5396; fill-rule:evenodd;"/><polygon points="809.66 565.79 692.59 564.39 654.57 768.01 766.07 799.09 809.66 565.79" style="fill:#0b5396; fill-rule:evenodd;"/><polygon points="1262.24 573.17 1302.69 789.67 1399.74 762.64 1364.1 571.95 1262.24 573.17" style="fill:#e0e8f5; fill-rule:evenodd;"/><polygon points="800.66 573.17 760.21 789.67 663.16 762.64 698.78 571.95 800.66 573.17" style="fill:#e0e8f5; fill-rule:evenodd;"/><polygon points="1286.8 854.16 1313.97 854.16 1313.97 794.3 1296.83 799.09 1286.8 745.38 1286.8 854.16" style="fill:#223f81; fill-rule:evenodd;"/><polygon points="776.1 854.16 748.95 854.16 748.95 794.3 766.07 799.09 776.1 745.38 776.1 854.16" style="fill:#20386f; fill-rule:evenodd;"/><polygon points="1286.8 854.16 1313.97 854.16 1313.97 794.3 1296.83 799.09 1286.8 745.38 1286.8 854.16" style="fill:#20386f; fill-rule:evenodd;"/><path d="M1097.56,1300.94c467.18,0,845.93,21.02,845.93,46.94s-378.74,46.94-845.93,46.94-845.95-21-845.95-46.94,378.76-46.94,845.95-46.94Z" style="fill:#c4d1eb; fill-rule:evenodd;"/><path d="M1437.72,878.24H592.81c-3.61,0-6.53-4.31-6.53-9.64v-4.81c0-5.33,2.91-9.62,6.53-9.62h844.91c3.58,0,6.53,4.3,6.53,9.62v4.81c0,5.33-2.95,9.64-6.53,9.64Z" style="fill:#9c7357; fill-rule:evenodd;"/><path d="M409.14,547.3c-8.55,30.22,12.39,61.36,35.44,67.9,23.08,6.54,39.49-13.99,48.1-44.21,8.57-30.22-3.19-60.01-26.24-66.56-23.08-6.56-48.73,12.65-57.3,42.86Z" style="fill:#f9af79; fill-rule:evenodd;"/><path d="M538.44,1132.83s-59.09,91.8-67.07,95.8c-7.98,4-27.93,4.98-20.45,19.95,7.49,14.95,10.47,73.82,17.44,76.83,6.99,3,66.85,9.97,57.89,0-9-9.97-14.51-4.98-19.06-22.95-4.5-17.94-10.88-51.9-2.41-58.87,8.5-6.97,60.38-69.82,60.38-69.82l-26.71-40.93Z" style="fill:#f9af79; fill-rule:evenodd;"/><path d="M835.91,1172.27s71.83,118.4,85.14,129.04c13.31,10.64,57.19,26.62,21.31,29.28-35.95,2.67-53.25-11.96-75.87-18.64-22.62-6.64-50.55-10.64-39.92-27.95,10.66-17.28,6.23-55.03-16.7-78.98-22.97-23.95,26.03-32.74,26.03-32.74Z" style="fill:#f9af79; fill-rule:evenodd;"/><path d="M469.28,897.69s177.86-4.65,248.36,53.21c41.24,62.54,141.02,247.03,148.77,267.35-5.31,5.35-35.25,14.95-48.56,13.61-39.23-46.79-91.11-87.24-111.76-123.95-25.41-45.26-33.22-67.85-74.48-71.85-41.24-4-134.37-17.31-162.32-17.31s0-121.06,0-121.06Z" style="fill:#20386f; fill-rule:evenodd;"/><polygon points="314.21 1343.75 323.52 1343.75 390.37 1051.97 369.87 1051.97 314.21 1343.75" style="fill:#9c7357; fill-rule:evenodd;"/><polygon points="593.45 1330.9 584.1 1330.9 507.44 1042.14 527.95 1042.14 593.45 1330.9" style="fill:#9c7357; fill-rule:evenodd;"/><path d="M367.97,885.52l103.39,17.85s137.41,1.25,200.2,12.94c57.15,10.64,65.56,75.59,0,165.01-37.24,50.74-68.73,91.26-133.13,136.93-16.39-12-22.62-16.58-27.16-45.52,4.65-6.38,16.7-46.35,20.45-54.2,35.64-74.43,83.17-101.49,83.83-108.83-7.96-12.98-211.43,67.59-251.9,20.21-38.62-45.26,4.31-144.38,4.31-144.38Z" style="fill:#223f81; fill-rule:evenodd;"/><path d="M363.66,651.43c27.25-3.83,54.98,1.35,80.92,20.13,22.68,23.1,48.32,61.21,46.74,124.06-2.01,79.79,12.33,84.94-2.6,106.9-62.43,25.76-169.19,136.5-144.05,17.77,18.2-85.95-39.92-150.04,6.95-245.41,3.83-7.76,8.59-15.28,12.04-23.45Z" style="fill:#6d96ce; fill-rule:evenodd;"/><path d="M491.33,825.68c1.22,41.59,7.1,53.83,2.58,66.89-25.42,2.6-71.98,12.79-83.63,29.07-13.27,18.62-26.59,21.31-20.39,7.56,6.23-13.77,22.6-33.28-2.65-100.24-25.26-66.96-37.24-112.21-12.41-158.78l116.5,155.5Z" style="fill:#466fb5; fill-rule:evenodd;"/><path d="M363.66,651.43c16.78-39.71,20.89-84.29,20.89-84.29l43.92,12.96s-24.93,55.86-1.01,75.83c5.11,4.22,11.01,9.38,17.13,15.63-25.94-18.79-53.67-23.97-80.92-20.13Z" style="fill:#f9af79; fill-rule:evenodd;"/><path d="M383.26,577.7c2.58-2.32,5.83-5.2,9.26-8.22l35.8,10.58,.07,.18c-.87,1.99-9.97,23.27-11.19,43.73-10.67-6.47-22.35-17.04-35.69-35.47,.72-4.09,1.27-7.74,1.75-10.8Z" style="fill:#e3802f; fill-rule:evenodd;"/><path d="M417.81,1062.42c2.8,0,5.68,0,8.63-.07,36.76-.92,61.78-6.01,81.88-10.09,23.8-4.83,36.91-7.52,52.34-.11,5.18,2.45,11.43,.26,13.94-4.94,2.47-5.22,.26-11.45-4.94-13.94-21.76-10.38-40.1-6.67-65.49-1.51-19.3,3.93-43.33,8.81-78.25,9.68-39.31,.96-63.35-4.9-75.65-18.55-10.97-12.19-14.18-32.47-10.16-63.81,1.36-10.64,2.73-19.47,3.95-27.25,3.37-21.9,5.6-36.36,2.84-58.63-2.56-20.76-9.46-48.49-25.41-102.25-1.66-5.53-7.47-8.67-12.98-7.01-5.55,1.62-8.7,7.45-7.08,12.98,29.87,100.55,28.36,110.36,21.96,151.68-1.24,7.91-2.6,16.91-4,27.8-4.9,37.87,0,63.44,15.38,80.5,15.82,17.53,41.63,25.52,83.04,25.52Z" style="fill:#9c7357; fill-rule:evenodd;"/><path d="M831.01,1272.05c47.68,23.32,73.34,36.67,88.62,35.42,3.61-.33,6.6-.68,9.13-1.05,17,10.05,44.14,21.88,13.61,24.17-35.95,2.67-53.25-11.96-75.87-18.64-22.62-6.64-50.55-10.64-39.92-27.95,2.05-3.3,3.54-7.36,4.42-11.95Z" style="fill:#172b57; fill-rule:evenodd;"/><path d="M466.15,1230.56c1.18,37.74,6.38,75.15,29.46,82.23,6.1,1.86,11.69,2.12,16.61,1.46,3.65,4.48,8.09,4.55,14.03,11.15,8.96,9.97-50.9,3-57.89,0-6.97-3-9.96-61.87-17.44-76.83-6.14-12.28,6.23-15.16,15.23-18.01Z" style="fill:#172b57; fill-rule:evenodd;"/><path d="M618.1,827.68c30.6-.46,60.95-18.68,76.03-16.02,15.04,2.66,64.31,36.8,58.08,38.13-6.19,1.35-45.23-18.88-46.57-19.21-1.31-.31-9.73,14.03-30.61,19.29-20.81,5.24-.13-15.63-64.75,3.87-42,12.68,7.82-26.05,7.82-26.05Z" style="fill:#f1944e; fill-rule:evenodd;"/><path d="M368.17,615.2l-4.52,36.23s39.62,2.34,59.31,13.44c19.69,11.08,48.78,43.1,48.78,43.1l-23.75-40.89-3.43-26.16-76.4-25.72Z" style="fill:#c4d1eb; fill-rule:evenodd;"/><path d="M385.03,659.56c29.42-5.53,43.01,20.83,62.09,63.85,19.06,43.01,51.6,95.26,58.08,102.01,6.47,6.71,109.11,0,109.11,0,0,0,3.1,29.68,0,33.26-3.1,3.54-20.85,3.1-20.85,3.1,0,0-7.1,5.66-13.75,10.14-6.64,4.5-62.96,12.92-89.1,11.58-26.2-1.33-50.15-3.54-53.69-7.56-3.54-3.98-74.93-113.94-79.39-153.41-4.42-39.47,12.5-60.16,27.51-62.96Z" style="fill:#c4d1eb; fill-rule:evenodd;"/><path d="M471.75,478.62c55.64,2.65,46.9,86.32,46.9,86.32,0,0-14.45,4.46-44.69-.52,2.29-9,1.31-31.93,1.31-31.93,0,0-3.52,18.62-7.98,29.94-9.81,4.5-16.04,12.39-20.17,21.68-2.51,5.6-12.22,59.11-14.93,64.18l-90.93-1.42c64.42-63.86-10.32-186.91,130.49-168.25Z" style="fill:#20386f; fill-rule:evenodd;"/><path d="M1456.53,1273.98s-15.78,21.76-43.25,36.89c-28.36,15.63-61.1,23.14-40.78,30.22,20.28,7.08,49.94,12.59,78.87,4.19,20.3-5.9,44.1-7.15,50.41-16.72,6.27-9.61-7.41-33.67-1.73-69.67,4.57-28.83-43.51,15.1-43.51,15.1Z" style="fill:#172b57; fill-rule:evenodd;"/><path d="M1623.89,924.16s-148.71-5.53-180.68,0c-31.97,5.57-102.07,5.53-56.19,134.96,35.91,101.44,47.79,229.87,47.79,229.87l71.48,17.57s-2.84-230.97-36.95-292.44c24.83,4.07,70.41,12.08,133.61,30.14,117.18,33.54,181.45,16.74,181.45,16.74l17.44-61.17-177.95-75.66Z" style="fill:#223f81; fill-rule:evenodd;"/><polygon points="1748.07 540.26 1784.4 647.61 1738.5 677.85 1712.48 585.08 1748.07 540.26" style="fill:#f9af79; fill-rule:evenodd;"/><path d="M1734.4,663.18l-21.92-78.1,35.58-44.82,13.29,39.25c-4.57,35.49-15.67,64.8-26.95,83.67Z" style="fill:#e3802f; fill-rule:evenodd;"/><path d="M1655.38,558.42c-1.18,32.65,14.86,60.91,40.36,63.44,25.48,2.51,48.77-21.81,51.97-54.33,3.21-32.52-14.88-60.91-40.38-63.42-25.48-2.51-50.09,2.8-51.96,54.31Z" style="fill:#f9af79; fill-rule:evenodd;"/><path d="M1801.84,644.48c111.52,75.33,42.16,197.01,17.68,285.99-20.87,75.77-20.19,121.53-23.3,121.53s-79.85-11.47-123.62-51.09c-43.77-39.6-73.38-77.95-73.38-77.95,0,0,56.1-9.97,74.41-82.54,9.33-36.84,5.09-56.82,26.29-115.19,21.22-58.37,101.92-80.75,101.92-80.75Z" style="fill:#6d96ce; fill-rule:evenodd;"/><path d="M1801.84,644.48l-11.95-29.22s-37.87,25.02-52.99,36.82c-15.1,11.84-24.43,14.6-24.43,14.6,0,0-5.48,41.89-1.9,38.09,44.69-47.9,91.26-60.29,91.26-60.29Z" style="fill:#6d96ce; fill-rule:evenodd;"/><polygon points="1851.29 1360.76 1841.52 1360.76 1771.7 1069.43 1793.14 1069.43 1851.29 1360.76" style="fill:#9c7357; fill-rule:evenodd;"/><polygon points="1559.57 1360.76 1569.32 1360.76 1649.45 1059.12 1628.02 1059.12 1559.57 1360.76" style="fill:#9c7357; fill-rule:evenodd;"/><path d="M1742.81,1080.32c38.99,0,63.7-7.01,79.48-22.38,19.56-19.03,23.6-48.54,23.65-86.98,.13-80.79,4.61-97.49,27.34-146.85,2.53-5.48,.13-11.97-5.33-14.47-5.49-2.53-11.98-.15-14.49,5.35-24.04,52.16-29.2,71.31-29.35,155.97-.07,38.96-5,59.64-17.07,71.37-12.35,12.04-34.72,17.02-72.47,16.06-36.47-.87-61.56-6.01-81.73-10.08-26.51-5.42-45.69-9.31-68.42,1.59-5.44,2.56-7.74,9.09-5.14,14.53,2.62,5.46,9.11,7.73,14.55,5.16,16.15-7.74,29.83-4.96,54.68,.11,21,4.3,47.14,9.57,85.53,10.53,2.99,.07,5.9,.11,8.78,.11Z" style="fill:#9c7357; fill-rule:evenodd;"/><path d="M1797.71,754.14s-27.78,84.77-62.19,119.88c-34.4,35.07-103.63,46.87-125.3,45.52,17.28-6.95,50.18-26.71,63.4-79.11,9.33-36.84,5.09-56.82,26.29-115.19,15.76-43.33,64.27-66.83,88.24-76.05-29.92,21.48-67.29,56.86-78.8,83.78-12.76,29.88,88.35,21.18,88.35,21.18Z" style="fill:#466fb5; fill-rule:evenodd;"/><path d="M1414.08,828.55s-47.94-21.88-53.15-19.8c-5.22,2.08-58.35,34.18-58.35,39.49s46.9-19.84,46.9-19.84c0,0-5.24,13.94-2.1,20.58,3.12,6.67,39.2,6.67,71.7,4.59,32.52-2.08-5-25.02-5-25.02Z" style="fill:#f9af79; fill-rule:evenodd;"/><path d="M1796.18,688.64c44.19,90.6-107.39,182.43-197.36,190.58-89.93,8.19-196.79-21.26-196.79-21.26l12.06-29.41s180.2-23.53,184.74-26.81c4.57-3.28,181.18-146.28,197.36-113.11Z" style="fill:#6d96ce; fill-rule:evenodd;"/><path d="M635.73,878.24h25.52v462.02h-25.52v-462.02h0Zm733.52,0h25.52v462.02h-25.52v-462.02Z" style="fill:#9c7357; fill-rule:evenodd;"/><path d="M1755.99,473.15c14.95,14.47,39.77,47.12,5.36,123.95l-14.23-41.74-7.72-.37c-28,2.56-21.88-29.68-21.92-29.76-2.21-7.41-7.89-7.93-19.47-4.57-26.7,7.78-93.88,34.59-68.73-53.71,22.97,27.38,74.74-21.66,126.72,6.19Z" style="fill:#20386f; fill-rule:evenodd;"/><path d="M1743.18,525.6c6.14,0,11.1,7.93,11.1,17.72s-4.96,17.74-11.1,17.74-11.1-7.95-11.1-17.74,4.98-17.72,11.1-17.72Z" style="fill:#f9af79; fill-rule:evenodd;"/></svg>