<?xml version="1.0" encoding="UTF-8"?><svg id="a" xmlns="http://www.w3.org/2000/svg" viewBox="0 0 1954.17 1563.49"><path d="M1003.55,121.39c-238.09,0-338.44,170.35-510.3,302.8C265.74,599.47,38.22,485.34,1.82,1077.59c-32.39,527.15,372.13,57.1,942.56,245.88,570.39,188.78,1151.32,264.91,978.97-346.05C1750.98,366.53,1556.85,121.39,1003.55,121.39Z" style="fill:#e0e8f5; fill-rule:evenodd;"/><path d="M1641.58,770.87c-.07,.18-.14,.35-.21,.49-.07,.07-10.36,20.8-16,43.07,51.32-7.79,88.26-9.34,102.92-9.62-13.39-6.38-27.07-12.33-40.88-17.83-15.02-5.92-30.31-11.31-45.82-16.11h0Zm-96.29-21.01h0c30.1,3.81,60.13,10.26,89.6,19-1.76,3.63-11.77,24.74-16.99,46.74-28.34,4.55-60.77,10.96-96.01,20.05,5.78-43.07,23.12-84.77,23.12-84.91,.14-.28,.21-.56,.28-.88h0Zm-118.85-.14c0,.39,0,.77-.14,1.2,0,.25-17.13,83.04-16.07,120.12,36.51-13.89,71.62-24.81,104.4-33.55,5.08-41.24,21-81.91,23.62-88.43-16.08-1.8-32.08-2.85-48.08-3.07-21.43-.28-42.72,.92-63.73,3.74h0Zm-97.84,26.4h0c8.74-3.7,17.48-6.98,26.36-9.98,21.01-7.01,42.51-12.09,64.36-15.4-2.19,10.64-17.69,88.57-15.93,122.9-29.11,11.21-59,24.39-89.31,39.62-5.36-80.85,14.52-134.43,14.66-134.6,.28-.85,.21-1.76-.14-2.54h0Zm-70.56,39.83c.63,.88,.91,2.08,.49,3.21-15.65,45.68-20.16,115.61-21.29,137.18,23.47-14.59,46.95-27.77,70.21-39.69-5.36-72.68,9.59-124.56,13.67-137.28-21.85,9.83-42.93,21.92-63.09,36.59h0Zm-64.08,59.11h0c9.73-11.28,19.88-21.64,30.24-31.37,8.53-7.89,17.27-15.23,26.22-22.07-16.07,50.97-19.81,126.54-20.3,139.22-19.81,12.55-39.62,26.08-59.29,40.75,1.9-19.03,8.18-70.63,24.25-122.87,.42-1.34-.07-2.82-1.13-3.67h0Zm-54.63,79.23c1.34,.78,2.11,2.33,1.76,3.95-.14,.14-12.9,48.78-15.16,79.02,12.41-10.43,24.88-20.44,37.43-30.03,.85-9.87,5.92-65.07,22.77-122.87-16.85,20.65-32.5,43.92-46.81,69.93h0Zm-47.58,113.35h0c4.93-15.44,10.08-30.24,15.51-44.34,6.49-16.43,13.25-32,20.51-46.81,1.06-2.12,2.12-4.23,3.17-6.35-4.51,18.75-11.84,52.45-12.27,73.31-9.02,7.83-17.98,15.86-26.93,24.18h0Zm145.5,71.48c-46.1-26.58-103.2-78.32-115.19-89.31-9.8,8.46-19.53,17.2-29.18,26.36,50.33,33.55,98.55,53.5,144.37,62.95h0Zm92.91,5.21h0c-24.95,2.33-50.89,1.69-77.68-2.47,.14-1.41-.56-2.75-1.9-3.45-46.03-23.33-109.19-80.29-123.29-93.19,12.97-10.99,25.94-21.5,38.98-31.44,31.79,34.75,143.03,115.54,163.89,130.55h0Zm95.45-23.83c-17.06-13.46-167.35-132.39-192.45-153.46-20.44,13.11-41.03,27.21-61.33,42.58,34.96,37.78,165.37,131.26,165.73,131.54,.77,.56,1.27,1.34,1.41,2.26,30.31-3.73,59.21-11.7,86.63-22.91h0Zm78.32-42.51h0c-22.49,15.23-46.31,28.76-71.48,39.62-.21-.49-.56-.92-1.06-1.27-.42-.35-161.07-127.38-192.02-153.11,23.83-14.94,47.65-28.34,71.2-40.46l193.36,155.23h0Zm72.39-58.93c-19.03-21.29-154.66-127.17-170.03-139.15-28.9,11.14-58.72,24.25-88.96,39.48l191.81,153.96c.21,.14,.5,.42,.63,.56,14.81-10.29,28.9-21.43,42.44-32.99,8.32-7.05,16.35-14.38,24.11-21.85h0Zm72.61-79.94h0c-19.53,24.67-42.16,50.47-67.6,75.15-18.96-20.94-141.76-117.16-167.42-137.32,36.09-13.6,70.78-24.39,103.06-32.99l131.96,95.16h0Zm48.08-66.83h-.07c-18.33-14.95-69.29-45.54-76.91-50.05-27.84,4.37-59.64,10.71-94.32,19.53l127.52,91.85c17.13-21.99,31.79-43,43.78-61.33h0Zm36.23-60.66h0c-4.23,7.96-15.23,28.09-32.43,54.88-15.93-12.83-53.44-35.88-70.07-45.89,55.69-8.21,93.33-8.95,102.5-8.99h0Zm-650.65,260.29c5.43-17.83,11.35-34.96,17.76-51.32,6.49-16.64,13.4-32.43,20.73-47.37,27.35-55.9,60.69-100.38,98.06-135.06,40.39-37.36,85.65-63.16,133.44-79.16,44.34-14.8,90.79-21.15,137.74-20.55,50.33,.67,101.22,9.34,150.43,24.28,16.64,5.04,33.13,10.82,49.41,17.24,16.43,6.52,32.64,13.68,48.43,21.46h0c1.83,.85,3.1,2.36,3.73,4.12,.56,1.76,.5,3.73-.35,5.53l-.28,.42c-3.1,6.13-70.49,137.18-184.62,235.09-115.46,99.04-278.66,164.32-471.67,33.62-1.41-.99-2.33-2.26-2.82-3.81-.42-1.41-.42-2.96,0-4.51h0Z" style="fill:#fff; fill-rule:evenodd;"/><path d="M1524.98,401.6v.39s-2.26,16.74-.99,33.45c33.62-17.41,58.65-27.1,68.8-30.77-10.71-1.27-21.57-2.15-32.43-2.68-11.7-.6-23.55-.74-35.39-.39h0Zm-71.34,8.07c.07,.21,.14,.46,.07,.67,0,.11-2.19,32.92,3.88,63.94,22.27-14.52,43.14-26.54,61.61-36.3-1.55-16.39,.35-33.31,.7-36.2-22.35,.88-44.55,3.46-66.26,7.9h0Zm-81.98,27.74h0c13.89-6.87,28.27-12.69,43.14-17.52,11.07-3.59,22.34-6.63,33.84-9.16-.28,5.15-1.76,36.94,4.44,66.54-20.59,13.68-42.16,29.47-64.15,47.58-9.45-25.31-16.99-86.43-17.06-86.6,0-.32-.07-.6-.21-.85h0Zm-61.26,41.1c.42,.46,.71,1.09,.71,1.76,0,.11-1.2,41.7,21.43,96.22,17.34-17.62,34.89-33.66,52.3-48.22-9.31-23.3-16.78-80.68-17.76-88.5-14.38,7.4-27.98,15.93-40.81,25.69-5.43,4.12-10.71,8.46-15.86,13.04h0Zm-39.33,44.02h0c10.5-14.84,22.21-28.16,34.96-40,.14,9.73,1.97,48.96,22.7,97.84-13.25,13.68-26.36,28.27-39.05,43.81-4.37-15.12-17.55-64.4-17.48-99.57,0-.88-.42-1.66-1.13-2.08h0Zm-30.31,55.72c.92,.35,1.55,1.23,1.62,2.26,1.13,39.79,8.95,76.84,12.05,90.44,10.15-14.7,20.58-28.69,31.3-41.98-2.54-8.88-17.69-61.86-18.61-100.77-4.51,6.8-8.81,13.96-12.83,21.4-4.93,9.06-9.44,18.61-13.53,28.65h0Zm-19.17,67.46h0c3.81-21.29,9.16-40.99,15.93-59.21,1.97,43.81,11.35,83.07,13.11,90.09-6.41,9.55-12.69,19.35-18.75,29.5-5.57-21.39-8.18-57.95-8.18-58.05,0-1.2-.92-2.15-2.12-2.33h0Zm-6.2,89.28c4.23-7.79,8.53-15.44,12.9-22.95-4.58-14.52-7.4-39.44-8.67-53.43-.28,1.73-.56,3.42-.7,5.11-1.55,11.88-2.68,24.25-3.24,37.04-.42,11.03-.56,22.45-.28,34.22h0Zm117.02,15.23h0c-33.76,4.27-71.76,1.76-114.27-9.59,4.51-8.56,9.17-16.88,13.96-25.06,10.78,4.79,62.38,27.14,100.31,34.65h0Zm65.28-18.15c-17.91-5.5-113.5-35.14-143.52-51.64-6.7,9.94-13.18,20.16-19.46,30.77,12.69,5.6,69.58,30.14,106.72,35.42,1.13,.14,1.9,.95,2.12,1.9,19.46-3.38,37.5-8.99,54.14-16.46h0Zm60.27-38.77h0c-16.28,14.13-34.33,26.4-54.35,36.06-.28-.6-.85-1.02-1.48-1.23-.35-.1-112.15-33.94-145.14-51.88,10.43-15.33,21.29-29.89,32.43-43.67,22.13,8.63,153.67,55.44,168.55,60.73h0Zm44.06-47.65l-169.68-61.75c-13.46,13.89-26.72,28.73-39.69,44.55,27.49,10.5,167.92,60.45,168.34,60.62,.42,.14,.77,.35,.99,.63,14.88-13.39,28.13-28.3,40.04-44.06h0Zm36.16-57.59h0c-3.6,6.94-7.47,13.85-11.56,20.72-6.55,11.14-13.74,22.1-21.5,32.67-.14-.11-.42-.21-.56-.28l-168.34-61.22c17.27-17.55,34.82-33.55,52.17-48.04,13.32,4.62,131.68,45.92,149.79,56.15h0Zm31.3-72.15l-113.28-34.68c-20.3,13.46-41.66,29.04-63.3,46.91,22.42,7.82,129.57,45.43,147.61,55.44,11.7-22.98,21.29-46.07,28.97-67.67h0Zm17.55-57.31h0c-3.95,15.4-9.16,33.34-15.86,52.55l-109.47-33.52c21.85-14.24,42.3-25.98,60.48-35.53,6.35,1.34,48.64,10.47,64.71,16.46l.14,.04h0Zm10.71-50.33h0c-.99,6.49-3.88,22.95-9.45,45.43-14.03-5.11-45.33-12.23-59.07-15.26,36.44-18.68,62.24-28.02,68.52-30.17h0Zm-387.71,331.92c-.42-13.6-.28-26.82,.21-39.62,.63-12.97,1.62-25.48,3.17-37.5,5.85-44.97,18.4-83.46,36.09-116.03,19.1-35.32,44.27-63.69,73.45-85.93,27.07-20.58,57.66-35.85,90.16-46.42,34.89-11.31,71.97-17.23,109.47-18.47,12.55-.42,25.31-.32,38.07,.32,12.83,.64,25.73,1.8,38.42,3.42h0c1.48,.21,2.68,.95,3.53,2.01,.77,1.06,1.2,2.43,1.06,3.91l-.07,.32c-.7,4.97-16.42,111.13-72.25,205.34-56.39,95.38-153.67,178.56-317.36,133.66-1.2-.32-2.11-1.02-2.82-1.9-.7-.88-1.05-1.97-1.13-3.1h0Z" style="fill:#fff; fill-rule:evenodd;"/><path d="M306.7,604.76c.03,.18,.14,.35,.21,.53,0,.07,10.33,20.76,16,43.04-51.35-7.79-88.26-9.34-102.95-9.62,13.39-6.38,27.03-12.34,40.92-17.83,14.98-5.89,30.28-11.28,45.82-16.11h0Zm96.33-20.97h0c-30.17,3.77-60.2,10.26-89.67,18.96,1.76,3.63,11.77,24.78,16.95,46.74,28.37,4.55,60.8,10.96,96.08,20.05-5.78-43.04-23.09-84.77-23.16-84.87-.11-.28-.21-.6-.21-.88h0Zm118.85-.14c-.07,.39-.03,.77,.04,1.16,.07,.25,17.2,83.04,16.14,120.12-36.55-13.85-71.66-24.85-104.44-33.52-5.04-41.24-20.97-81.95-23.58-88.47,16-1.8,32.07-2.82,48.04-3.07,21.43-.28,42.75,.95,63.8,3.77h0Zm97.77,26.36h0c-8.67-3.7-17.45-6.98-26.33-9.94-21.01-7.05-42.54-12.12-64.4-15.44,2.18,10.64,17.69,88.57,15.97,122.94,29.04,11.24,58.97,24.36,89.24,39.58,5.39-80.89-14.52-134.4-14.56-134.57-.32-.88-.25-1.8,.07-2.57h0Zm70.6,39.83c-.67,.88-.91,2.08-.53,3.21,15.61,45.71,20.2,115.61,21.29,137.21-23.44-14.59-46.91-27.77-70.18-39.69,5.36-72.75-9.55-124.56-13.71-137.32,21.82,9.83,42.93,21.96,63.12,36.58h0Zm64.04,59.11h0c-9.73-11.24-19.81-21.68-30.24-31.3-8.53-7.9-17.27-15.3-26.22-22.13,16.07,51,19.81,126.5,20.34,139.22,19.77,12.55,39.58,26.12,59.25,40.78-1.9-19.07-8.11-70.67-24.21-122.91-.42-1.37,.07-2.78,1.09-3.67h0Zm54.67,79.23c-1.41,.78-2.15,2.36-1.73,3.95,.03,.14,12.87,48.75,15.12,79.06-12.41-10.43-24.92-20.44-37.47-30.03-.85-9.87-5.96-65.07-22.77-122.87,16.85,20.65,32.53,43.88,46.84,69.89h0Zm47.55,113.39h0c-4.86-15.51-10.05-30.24-15.54-44.34-6.38-16.5-13.22-32.01-20.48-46.81-1.02-2.12-2.08-4.23-3.17-6.35,4.48,18.75,11.81,52.45,12.27,73.31,9.02,7.83,18.01,15.86,26.93,24.18h0Zm-145.5,71.41c46.1-26.5,103.24-78.25,115.18-89.31,9.8,8.53,19.56,17.27,29.22,26.43-50.33,33.55-98.58,53.5-144.4,62.88h0Zm-92.87,5.22h0c24.99,2.4,50.9,1.69,77.68-2.47-.14-1.34,.56-2.75,1.87-3.38,46.03-23.33,109.23-80.29,123.26-93.26-12.9-10.93-25.87-21.43-38.95-31.44-31.76,34.75-142.99,115.54-163.86,130.55h0Zm-95.41-23.83c17.02-13.39,167.31-132.35,192.38-153.36,20.51,13.04,40.99,27.18,61.36,42.47-34.93,37.85-165.38,131.26-165.76,131.54-.77,.56-1.27,1.34-1.38,2.26-30.31-3.74-59.21-11.7-86.6-22.91h0Zm-78.35-42.43h0c22.45,15.23,46.31,28.76,71.48,39.62,.21-.49,.53-.92,.99-1.27,.49-.42,161.11-127.42,192.09-153.18-23.79-14.87-47.62-28.3-71.23-40.39l-193.33,155.23h0Zm-72.43-58.93c19.03-21.29,154.66-127.21,170.03-139.19,28.9,11.21,58.72,24.28,88.96,39.44l-191.81,153.96c-.25,.21-.46,.42-.6,.63-14.8-10.36-28.94-21.43-42.44-32.99-8.32-7.12-16.35-14.38-24.14-21.85h0Zm-72.61-79.98h0c19.53,24.67,42.19,50.51,67.64,75.18,18.96-21.01,141.73-117.19,167.42-137.29-36.09-13.64-70.77-24.43-103.13-32.99l-131.93,95.1h0Zm-48.08-66.79l.07-.03c18.33-14.91,69.36-45.47,76.94-50.02,27.85,4.37,59.64,10.65,94.32,19.49l-127.52,91.92c-17.17-22.06-31.83-43.04-43.81-61.37h0Zm-36.2-60.69h0c4.23,8,15.23,28.16,32.43,54.88,15.93-12.79,53.43-35.85,70.07-45.89-55.69-8.21-93.37-8.92-102.49-8.99h0Zm650.65,260.33c-5.46-17.9-11.38-34.96-17.73-51.39-6.48-16.57-13.39-32.39-20.76-47.33-27.42-55.9-60.69-100.42-98.06-134.99-40.43-37.43-85.68-63.23-133.48-79.2-44.3-14.84-90.79-21.18-137.74-20.58-50.33,.67-101.19,9.37-150.43,24.28-16.64,5.04-33.13,10.82-49.38,17.27-16.46,6.49-32.67,13.68-48.46,21.43h0c-1.8,.88-3.07,2.4-3.7,4.12-.6,1.76-.53,3.73,.35,5.53l.25,.46c3.1,6.13,70.46,137.18,184.62,235.09,115.5,99.04,278.66,164.25,471.7,33.56,1.34-.92,2.33-2.19,2.82-3.74,.46-1.41,.46-2.96,0-4.51h0Z" style="fill:#fff; fill-rule:evenodd;"/><rect x="811.03" y="1050.66" width="338.65" height="117.02" style="fill:#b0c2e4;"/><path d="M1146.58,985.59c20.44-9.52,33.84-27.14,33.84-53.57v-8.25c4.02-229.1,205.42-293.36,221.63-546.78,1.27-19.03,1.06-37.61-.42-55.69C1370.11,129.04,1187.47,0,982.16,0c-233.93,0-438.57,167.6-423.59,405.23,15.55,245.91,207.32,308.23,211.13,530.53,0,24.04,25.73,51.74,47.65,49.84h329.23Z" style="fill:#c4d1eb; fill-rule:evenodd;"/><path d="M798.88,1194.68c2.54,25.73,24.43,46.03,50.75,46.03h39.02l15.19,24.81c8.74,14.24,13.85,15.23,30.63,15.23h91.78c16.74,0,21.85-.92,30.6-15.23l15.16-24.81h39.12c25.94,0,47.58-19.74,50.61-44.98v-17.9c-1.41-5.78-6.7-10.15-12.9-10.15h-336.99c-6.27,0-11.56,4.37-12.9,10.29-.11,.56,.21,1.62-.07,1.83v14.87h0Zm345.24-117.23h-327.51c-9.91,0-17.98,8.03-17.98,17.9v27.92c0,9.94,8.07,18.05,17.98,18.05h327.51c9.94,0,17.98-8.1,17.98-18.05v-27.92c0-9.87-8.03-17.9-17.98-17.9h0Zm-.77-91.85h-326.03c-10.26,0-18.68,8.39-18.68,18.68v29.04c0,10.29,8.42,18.75,18.68,18.75h326.03c10.29,0,18.75-8.46,18.75-18.75v-29.04c0-10.29-8.46-18.68-18.75-18.68Z" style="fill:#9db2d9; fill-rule:evenodd;"/><path d="M1032.1,985.59l34.68-419.4h50.19c21.71,0,41.45-8.88,55.69-23.12v-.07c14.24-14.27,23.12-34.01,23.12-55.65s-8.81-41.38-23.12-55.65c-14.24-14.31-33.98-23.16-55.69-23.16s-39.97,8.57-53.78,22.42c-14.07,14.06-23.09,33.55-24.96,54.88l-3.91,44.94h-153.68l-3.91-44.94c-1.87-21.25-10.89-40.82-24.95-54.88-13.82-13.85-32.43-22.42-53.82-22.42s-41.34,8.88-55.62,23.19l-.03-.03c-14.31,14.27-23.16,33.98-23.16,55.65s8.85,41.41,23.16,55.72c14.27,14.24,33.98,23.12,55.65,23.12h50.23l34.68,419.4h35.39l-34.51-419.4h147.47l-34.47,419.4h35.35Zm37.78-454.82l3.67-41.87c1.13-12.97,6.42-24.67,14.66-32.92,7.4-7.44,17.34-12.05,28.76-12.05,11.99,0,22.84,4.9,30.67,12.79,7.83,7.86,12.76,18.72,12.76,30.63s-4.79,22.84-12.69,30.66h-.07c-7.83,7.86-18.68,12.76-30.67,12.76h-47.09Zm-224.77,0h-47.16c-11.91,0-22.77-4.9-30.63-12.76-7.89-7.86-12.79-18.72-12.79-30.66s4.9-22.77,12.79-30.63v-.07c7.83-7.86,18.68-12.72,30.63-12.72s21.36,4.65,28.8,12.05c8.25,8.28,13.57,19.98,14.7,32.92l3.67,41.87Z" style="fill:#fff; fill-rule:evenodd;"/><path d="M1713.34,1288.64c-106.51,0-192.87,7.75-192.87,17.34s86.36,17.34,192.87,17.34,192.73-7.76,192.73-17.34-86.28-17.34-192.73-17.34Z" style="fill:#c4d1eb; fill-rule:evenodd;"/><path d="M1460.69,1015.06c-106.44,0-192.79,7.82-192.79,17.41s86.35,17.34,192.79,17.34,192.87-7.76,192.87-17.34-86.35-17.41-192.87-17.41Z" style="fill:#c4d1eb; fill-rule:evenodd;"/><path d="M1351.57,1528.74c-118.29,0-214.3,7.76-214.3,17.41s96.01,17.34,214.3,17.34,214.3-7.83,214.3-17.34-96.01-17.41-214.3-17.41Z" style="fill:#c4d1eb; fill-rule:evenodd;"/><path d="M222.63,1144.69c-118.32,0-214.26,7.76-214.26,17.34s95.94,17.41,214.26,17.41,214.23-7.83,214.23-17.41-95.91-17.34-214.23-17.34Z" style="fill:#c4d1eb; fill-rule:evenodd;"/><path d="M463.37,1035.72c-56.36,0-102,7.75-102,17.41s45.64,17.34,102,17.34,101.97-7.76,101.97-17.34-45.64-17.41-101.97-17.41Z" style="fill:#c4d1eb; fill-rule:evenodd;"/><path d="M604.56,1246.77c-62.95,0-113.99,7.76-113.99,17.34s51.04,17.34,113.99,17.34,113.99-7.75,113.99-17.34-51.04-17.34-113.99-17.34Z" style="fill:#c4d1eb; fill-rule:evenodd;"/><path d="M773.01,1488.63c-86.71,0-157.02,7.76-157.02,17.34s70.32,17.41,157.02,17.41,157.09-7.76,157.09-17.41-70.35-17.34-157.09-17.34Z" style="fill:#c4d1eb; fill-rule:evenodd;"/><path d="M246.21,1129.54l-.95,17.13c-.35,2.12-1.76,7.47-1.76,9.45,0,7.4,32.85-6.27,25.52-9.59-.67-.28-5.22-4.16-5.43-6.7-.32-3.88-.18-10.01-.18-10.01l-17.2-.28Z" style="fill:#f9af79; fill-rule:evenodd;"/><path d="M268.91,1146.53s-7.72,2.26-11.67,2.82c-3.95,.56-9.16-4.23-11.95-2.96-3.07,1.41-3.28,17.76-3.28,17.76,0,0,40.43,3.03,50.82,.07,4.62-1.34-8.18-12.48-23.93-17.7Z" style="fill:#0e2952; fill-rule:evenodd;"/><path d="M309.59,1129.54l-.95,17.13c-.39,2.12-1.76,7.47-1.76,9.45,0,7.4,32.85-6.27,25.48-9.59-.64-.28-5.18-4.16-5.39-6.7-.35-3.88-.18-10.01-.18-10.01l-17.2-.28Z" style="fill:#f9af79; fill-rule:evenodd;"/><path d="M332.28,1146.53s-7.72,2.26-11.67,2.82c-3.95,.56-9.16-4.23-11.95-2.96-3.1,1.41-3.31,17.76-3.31,17.76,0,0,40.46,3.03,50.82,.07,4.65-1.34-8.14-12.48-23.9-17.7Z" style="fill:#0e2952; fill-rule:evenodd;"/><path d="M337.39,682.69c1.06,8.32,2.36,7.79,2.47,8.88,.14,1.23-7.47,16.53-7.47,16.53,0,0-22.13,45.12-23.4,47.55l-39.37,33.2,10.19,24.5s41.91-37.26,43.81-39.62c1.83-2.33,24.88-66.83,27.1-72.43,0,0,5-5.74,8.07-9.48,3.03-3.7,4.34-8.57,5-9.73,.11-.18,2.26-4.23,3.56-9.94,1.13-4.9-2.11-.74-2.11-.74,0,0-3.67,8.74-4.3,8.32-.49-.32,1.8-4.97,3.1-10.36,.35-1.41,.71-2.75,.99-4.05,.78-3.28-.99-4.72-2.33-1.34-.46,1.16-1.23,3.14-1.55,4.65-.39,1.59-1.2,2.96-1.69,4.27-1.02,2.61-1.73,4.51-1.8,4.37-.11-.11-.64,.28-.35-1.23,.39-1.76,2.01-5.39,2.4-8.07,.18-1.52,.81-4.65,.81-4.65,0,0,.07-4.9-.21-5.01-1.52-.49-2.5,2.86-2.5,4.93-.67,1.31-1.23,4.65-1.23,4.65,0,0-2.57,6.45-3.45,6.13-.39-.14,.74-4.34,1.23-8.56,.42-3.95,.25-8-.49-8.18-1.27-.35-2.22,3.98-2.22,3.98,0,0-.49,3.07-.77,4.05-.25,1.2-1.37,4.69-1.37,4.69,0,0-4.44,11.88-5.25,11.49-.81-.42-2.5-2.33-2.47-3.17,0-.77,.85-2.33,.88-3.1,.04-.88-.63-1.94-1.62-2.08-.99-.1-2.64,3.91-2.64,3.91,0,0-1.3,3.28-.99,5.64Z" style="fill:#f9af79; fill-rule:evenodd;"/><path d="M139.28,698.72c.46,8.39-.95,8.14-.85,9.2,.11,1.27,10.36,14.88,10.36,14.88,0,0,29.92,40.43,31.65,42.54l44.73,25.52-5.6,25.94s-47.97-29.08-50.19-31.02c-2.29-1.94-36.66-61.22-39.83-66.33,0,0-5.99-4.72-9.66-7.82-3.67-3.1-5.81-7.65-6.73-8.67-.14-.14-2.93-3.77-5.29-9.13-1.97-4.58,1.97-1.13,1.97-1.13,0,0,5.22,7.9,5.75,7.4,.39-.42-2.68-4.55-4.97-9.62-.56-1.31-1.16-2.61-1.66-3.81-1.37-3.1,.1-4.83,2.01-1.76,.67,1.09,1.8,2.89,2.4,4.3,.64,1.52,1.69,2.68,2.43,3.91,1.48,2.36,2.47,4.09,2.54,3.98,.1-.14,.7,.14,.1-1.3-.7-1.66-2.93-4.93-3.77-7.47-.46-1.44-1.66-4.44-1.66-4.44,0,0-.95-4.83-.67-4.97,1.37-.78,2.92,2.33,3.31,4.37,.92,1.2,2.04,4.37,2.04,4.37,0,0,3.74,5.88,4.55,5.39,.32-.18-1.52-4.09-2.75-8.18-1.16-3.81-1.73-7.83-1.02-8.14,1.16-.56,2.89,3.49,2.89,3.49,0,0,1.06,2.93,1.48,3.91,.49,1.13,2.22,4.3,2.22,4.3,0,0,6.52,10.93,7.26,10.4,.74-.56,2.04-2.75,1.87-3.56-.18-.81-1.27-2.15-1.48-2.96-.14-.81,.28-2.01,1.27-2.33,.95-.25,3.28,3.38,3.28,3.38,0,0,1.87,2.96,2.01,5.36Z" style="fill:#f9af79; fill-rule:evenodd;"/><path d="M255.73,912.78s49.77,118.43,51.64,129.14c1.34,7.82-.39,96.43-.39,96.43l23.54-.42,8.25-101.23-30.98-127.73-52.06,3.81Z" style="fill:#0e2952; fill-rule:evenodd;"/><polygon points="233.84 918.27 256.54 1049.95 241.7 1137.93 268.52 1137.93 289.6 1043.33 292.49 939.56 281.6 906.15 233.84 918.27" style="fill:#20386f; fill-rule:evenodd;"/><path d="M298.87,762.13s5.89,26.54,10.01,30.66c0,0-21.04,14.03-20.06,19.63,.95,5.57,23.3,109.65,23.3,109.65,0,0-45.96,23.97-74.55,20.16,0,0-21.54-118.64-27.1-124.21-5.6-5.57-22.87-14.38-22.87-14.38,0,0,12.93-24.85,12.93-29.26,0,0,30.7,14.31,35.85,19.46,5.22,5.21,15.23-1.34,17.66-2.4,0,0,41.13-27.03,44.83-29.32Z" style="fill:#6d96ce; fill-rule:evenodd;"/><path d="M240.43,769.71l-3.88,24.36s10.22,17.02,18.4,14.49c6.84-2.12,6.24-15.58,6.24-15.58,0,0-3.7-13.85-2.61-20.83,1.13-6.94-18.15-2.43-18.15-2.43Z" style="fill:#f9af79; fill-rule:evenodd;"/><path d="M258.58,772.14c1.13-6.94-18.15-2.43-18.15-2.43l-.28,2.04c.56,1.38,1.27,2.54,2.08,3.46,4.3,4.58,11.03,7.37,16.85,7.58-.6-3.77-.95-7.79-.49-10.64Z" style="fill:#f27458; fill-rule:evenodd;"/><path d="M237.3,734.99c-.56-.18-4.37,27.99,2.89,35.74,7.23,7.72,21.36,10.26,26.43,4.12,5.6-6.7,5.32-36.97-5.92-44.97-11.28-7.97-23.4,5.11-23.4,5.11Z" style="fill:#f9af79; fill-rule:evenodd;"/><path d="M237.93,719.48c-3.95,.46-10.86,5.96-16.43,15.08-6.8,11.24,1.76,25.03,9.73,31.12,7.93,6.06,7.79,13.18,7.79,13.18l1.3-3.67c.92-2.79,1.3-5.71,.99-8.6-.21-1.76-.56-3.6-1.27-5.18-1.94-4.09,4.09-6.77,5.78-10.19,1.27-2.57,1.34-8.56,3.38-12.9l2.47-3.28s6.91,.63,11.14-3.14c12.2-10.68-6.41-24.85-24.88-12.44Z" style="fill:#20386f; fill-rule:evenodd;"/><path d="M245.47,756.28c.04,3.42-1.52,6.24-3.52,6.27-2.01,.03-3.67-2.71-3.73-6.13-.04-3.45,1.51-6.27,3.52-6.31,1.97-.03,3.67,2.72,3.74,6.17Z" style="fill:#f9af79; fill-rule:evenodd;"/><path d="M1685.43,866.53c3.59-9.73,7.26-19.6,18.33-25.8,8.88-5.08,18.75-5.08,27.42-.85,24.6,11.99,13.53,33.7,29.54,56.61,6.84,9.73,17.06,14.73,22.2,25.03,9.24,18.47,1.2,48.64-23.69,65.56-60.91,41.59-94.32-32.57-94.53-48.5-.14-11.91,18.33-65.7,20.73-72.04Z" style="fill:#20386f; fill-rule:evenodd;"/><polygon points="1728.08 1246.91 1720.18 1280.04 1708.41 1279.97 1707.99 1246.91 1728.08 1246.91" style="fill:#f9af79; fill-rule:evenodd;"/><polygon points="1628.89 1248.32 1606.55 1280.04 1597.8 1268.83 1611.27 1243.95 1628.89 1248.32" style="fill:#f9af79; fill-rule:evenodd;"/><path d="M1697.13,912.92c-.14,0,9.45,5.01,16.64,3.1,6.77-1.9,11.14-10.71,11.07-10.71-2.89-.56-3.74-4.51-3.59-21.36l-1.34,.21-21.78,4.37s.56,6.84,.56,13.25c0,5.43-.35,10.57-1.55,11.14Z" style="fill:#f9af79; fill-rule:evenodd;"/><path d="M1732.02,844.96s-8.25-13.39-23.62-5.43c0,0,7.89,.21,23.62,5.43Z" style="fill:#6d96ce; fill-rule:evenodd;"/><path d="M1698.12,888.53s.56,6.84,.56,13.25c12.12-.35,18.61-11.42,21.22-17.62l-21.78,4.37Z" style="fill:#f27458; fill-rule:evenodd;"/><path d="M1724.34,885s8.32-8.67,11.49-16.78c2.33-5.85,3.74-28.83-19.38-30.17,0,0-6.63-.64-13.68,2.26-5.5,2.33-13.96,8.03-10.01,29.11l.7,6.98,30.88,8.6Z" style="fill:#20386f; fill-rule:evenodd;"/><path d="M1599.85,1261.57s5.85,.98,10.58,1.41c1.05,0,2.11,.07,2.96,.07,2.26,0,6.34-.85,9.16-1.48l.14-.07c1.27-.28,2.19-.49,2.54-.64h.14s28.83-32.14,44.98-83.6c.42-1.13,.85-2.33,1.2-3.6,8.88-25.73,27.21-58.16,36.87-87.48,1.55-4.65,2.96-9.02,4.23-13.25,.35-1.27,.71-2.61,1.13-3.95,7.12-24.67,9.17-40.96,11.07-58.37l-58.16,14.8s-24.39,105.81-66.83,236.15Z" style="fill:#223f81; fill-rule:evenodd;"/><path d="M1694.31,891.91s28.2,6.2,31.72-11.42c3.59-17.55,9.59-28.62-8.18-33.27-17.84-4.65-22.7,1.27-25.31,6.91-2.61,5.57-5.43,35.81,1.76,37.78Z" style="fill:#f9af79; fill-rule:evenodd;"/><path d="M1705.02,844.18s3.67,22.21,14.8,27.71c11.28,5.36,17.06,3.24,17.06,3.24,0,0-7.61-9.02-6.98-22.06,0,0-16.99-17.55-24.88-8.88Z" style="fill:#20386f; fill-rule:evenodd;"/><path d="M1706.65,846.23s-6.7,3.45-9.02,7.61c-2.33,4.23-4.79,13.32-7.4,12.48,0,0-3.03-15.16,5.08-21.78,8.74-7.05,11.35,1.69,11.35,1.69Z" style="fill:#20386f; fill-rule:evenodd;"/><path d="M1720.6,1278.21s-.92,6.49,1.48,13.53c0,0,1.97,8.81-6.77,9.02-8.6,.14-10.71-.71-9.73-6.06,.99-5.43,2.82-14.73,2.82-14.73l12.19-1.76Z" style="fill:#f9af7c; fill-rule:evenodd;"/><path d="M1722.08,1291.74s1.62,8.32,.63,12.69c0,0-2.61,1.97-8.95,1.97-5.92,0-9.02-1.97-9.02-1.97,0,0-.14-9.02,1.41-12.9,0,0,6.13,9.24,15.93,.21Z" style="fill:#0e2952; fill-rule:evenodd;"/><path d="M1576.94,1295.55s16-17.69,20.87-26.71l11.91,6.06-26.57,24.88-6.2-.77v-3.46Z" style="fill:#f9af7c; fill-rule:evenodd;"/><path d="M1566.86,1305.98s17.06,0,20.02-.42c2.96-.28,5.36-4.51,8.53-10.86,1.34-2.68,4.23-4.09,7.26-4.86v14.73h4.51l4.23-15.65c2.82-5.22,.28-9.94-1.69-14.03-2.4,0-8.6,1.62-20.37,14.87-3.88,4.37-8.11,5.92-12.41,5.78l-.21,.14c-9.73,4.37-9.87,10.29-9.87,10.29Z" style="fill:#0e2952; fill-rule:evenodd;"/><path d="M1610.42,1262.98c1.05,0,2.11,.07,2.96,.07,2.26,0,6.34-.85,9.16-1.48l.14-.07,2.54-.64h.14s28.83-32.14,44.98-83.6c.42-1.13,.85-2.33,1.2-3.6,8.88-25.73,27.21-58.16,36.87-87.48,1.55-4.65,2.96-9.02,4.23-13.25,.35-1.27,.71-2.61,1.13-3.95l-10.29-7.76s-30.88,49.98-40.46,97c-7.9,38.98-42.01,89.53-52.59,104.75Z" style="fill:#0e2952; fill-rule:evenodd;"/><path d="M1702.35,1162.6c-.14,22.91,.99,75.5,3.95,97.28,0,0,2.89,2.47,9.87,2.54,7.19,0,10.43-2.68,10.43-2.68,7.47-37.78,12.76-69.15,16.64-96.15,3.17-22.13,5.99-41.17,8.18-57.45,1.9-14.45,3.31-26.93,3.95-37.58,.14-1.55,.21-2.96,.28-4.3,.07-1.83,.14-3.6,.14-5.36,.07-1.76,.07-3.45,.07-5.08h-.21l-14.52-1.41-45.61-4.44c.78,40.04,6.98,101.37,6.84,114.62Z" style="fill:#223f81; fill-rule:evenodd;"/><path d="M1716.16,1262.42c6.13,.28,10.43-2.68,10.43-2.68,7.47-37.78,12.76-69.15,16.64-96.15,3.17-22.13,5.99-41.17,8.18-57.45,1.9-14.45,3.31-26.93,3.95-37.58,.14-5.36,.14-10.36,.28-14.73,0-4.44,.07-8.25,.21-10.78l-14.73,9.38-15.44,9.94s21.92,19.88,16.57,57.66c-5.36,37.71-18.61,137.04-26.08,142.4Z" style="fill:#0e2952; fill-rule:evenodd;"/><path d="M1704.18,904.6s-23.4-3.67-31.3,4.09c-9.59,9.59-27.78,64.64-27.07,70.92,.35,2.39,9.87,1.27,13.11-2.12,16.21-17.06,39.62-60.13,45.25-72.89Z" style="fill:#6d96ce; fill-rule:evenodd;"/><path d="M1658.64,1058.2c17.55,4.58,99.25,13.53,99.96-6.91,.14-5.01,0-11.07-.42-17.55-1.27-20.16-4.51-45.19-6.13-58.93-.71-6.35,1.69-34.47-.21-49.91-.21-2.26-.56-4.23-1.13-5.85-3.52-11.63-19.31-14.73-27.49-15.01l-24.53-.85s-25.38,28.34-28.9,37.08c-3.52,8.67-4.65,38.49-7.4,52.87-2.75,14.45-12.2,62.88-3.74,65.06Z" style="fill:#6d96ce; fill-rule:evenodd;"/><path d="M1706.93,989.05s13.6,41.94,51.25,44.69c-1.27-20.16-4.51-45.19-6.13-58.93-.71-6.35,1.69-34.47-.21-49.91-.42,.14-.85,.42-1.41,.49-41.45,7.96-47.23,54.91-43.49,63.65Z" style="fill:#466fb5; fill-rule:evenodd;"/><path d="M1647.08,980.59s24.67,8.11,54.7-4.86c0,0,8.1-.78,12.19,.28,0,0-.92-8.11-4.86-10.36-3.95-2.11-21.01,2.61-26.15,1.9-11.14-1.48-30.53-2.75-35.88,13.04Z" style="fill:#f09e68; fill-rule:evenodd;"/><path d="M1669.07,961.7s-2.4-20.02,5.5-32c0,0-2.82-.99-4.79,2.11-1.97,3.17-15.79,32.92-9.24,35.11,6.56,2.18,8.53-5.22,8.53-5.22Z" style="fill:#466fb5; fill-rule:evenodd;"/><path d="M1705.02,965.08c.35,0,11.56,1.48,13.6,2.89,2.05,1.41,.21,6.35-3.52,6.84-3.74,.42-10.08-9.73-10.08-9.73Z" style="fill:#f09e68; fill-rule:evenodd;"/><path d="M1735.9,972.69s-32.22-1.2-61.33-6.84c0,0-5.36,.07-4.72,4.72,.64,4.65,50.55,30.74,61.54,25.66l4.51-23.55Z" style="fill:#f9af79; fill-rule:evenodd;"/><path d="M1674.57,965.86s-3.45-4.16-5.5-4.16c-2.19,0-7.69,2.75-8.53,5.22-.77,2.47,6.56,.7,9.3,3.67,2.75,2.96,4.72-4.72,4.72-4.72Z" style="fill:#f9af7c; fill-rule:evenodd;"/><path d="M1723.21,904.03s27.07,.07,31.02,9.73c7.19,17.76-16.64,76.56-22.84,82.48-2.68,2.54-15.23-1.41-15.23-18.33,0-8.81,.63-60.13,7.05-73.88Z" style="fill:#6d96ce; fill-rule:evenodd;"/><path d="M1745.28,1031.91c7.68-2.18,7.96-.78,8.95-1.13,1.13-.28,10.57-12.83,10.57-12.83,0,0,28.2-36.8,29.61-38.84l9.3-47.87,26.29,.07s-11.56,51.67-12.62,54.21c-1.13,2.54-45.61,47.37-49.35,51.46,0,0-2.54,6.63-4.23,10.71-1.69,4.16-5.29,7.19-5.92,8.25-.14,.14-2.61,3.6-6.91,6.84-3.67,2.89-1.69-1.55-1.69-1.55,0,0,5.78-6.62,5.08-7.05-.56-.28-3.38,3.53-7.47,6.7-.99,.85-1.97,1.62-2.96,2.33-2.54,1.97-4.65,.99-2.4-1.55,.85-.85,2.11-2.25,3.24-3.1,1.27-.92,2.04-2.19,2.96-3.1,1.69-1.9,3.03-3.24,2.89-3.24-.14-.07-.07-.7-1.2,.14-1.41,.99-3.74,3.8-5.92,5.08-1.13,.85-3.6,2.54-3.6,2.54,0,0-4.16,1.83-4.44,1.69-1.2-1.2,1.27-3.31,3.03-4.09,.78-1.13,3.45-2.82,3.45-2.82,0,0,4.37-4.79,3.53-5.5-.28-.28-3.38,2.33-6.77,4.37-3.24,1.83-6.77,3.24-7.33,2.61-.99-1.06,2.4-3.53,2.4-3.53,0,0,2.4-1.55,3.1-2.19,.92-.7,3.38-3.03,3.38-3.03,0,0,8.11-8.39,7.33-8.95-.7-.64-3.24-1.41-3.95-1.13-.7,.28-1.55,1.69-2.26,1.97-.78,.42-2.04,.14-2.61-.71-.63-.85,2.04-3.81,2.04-3.81,0,0,2.19-2.4,4.44-2.96Z" style="fill:#f9af79; fill-rule:evenodd;"/><path d="M1786.51,1272.92l.71,16.57c.42,2.11,1.69,7.33,1.69,9.24-.14,7.12-31.86-6.42-24.67-9.52,.63-.28,4.09-2.4,4.23-4.94,.42-3.67,1.34-11.28,1.34-11.28l16.71-.07Z" style="fill:#f9af79; fill-rule:evenodd;"/><path d="M1764.31,1289.06s7.47,2.33,11.28,2.96c3.88,.56,8.95-4.02,11.63-2.75,2.96,1.41,2.54,14.88,2.54,14.88,0,0-40.04,1.97-51.32-1.76-4.44-1.48,10.5-8.32,25.87-13.33Z" style="fill:#0e2952; fill-rule:evenodd;"/><path d="M1856.79,1275.25l.78,16.57c.28,2.04,1.69,7.26,1.62,9.24-.07,7.19-31.86-6.49-24.67-9.59,.64-.28,5.08-4.02,5.29-6.42,.42-3.8,.28-9.8,.28-9.8h16.71Z" style="fill:#f9af79; fill-rule:evenodd;"/><path d="M1834.59,1291.39s7.47,2.33,11.28,2.89c3.88,.56,8.95-3.95,11.7-2.68,2.96,1.41,2.96,13.75,2.96,13.75,0,0-42.86,2.68-52.87-.35-4.51-1.34,11.56-8.6,26.93-13.6Z" style="fill:#0e2952; fill-rule:evenodd;"/><path d="M1808.65,1035.85l-13.53,5.64-29.75,135.35,.14,101.65,22.7,.7s11.49-88.75,11.56-95.66c.07-6.84,50.26-120.05,50.26-120.05l-41.38-27.63Z" style="fill:#20386f; fill-rule:evenodd;"/><path d="M1819.01,1043.47s8.88,104.47,8.67,122.09c-.14,17.62,6.91,116.24,6.91,116.24l22.84,.07s1.9-29.96,4.79-74.16c.42-6.91-.28-20.87,.28-28.06,4.09-51.46,11.56-99.96,8.46-119.13-.56-3.1-1.41-11.28-3.38-13.32-14.81-15.58-48.57-3.74-48.57-3.74Z" style="fill:#20386f; fill-rule:evenodd;"/><path d="M1792.01,960.71l27.63-1.55s1.62-24.67,1.69-36.44c.21-14.31,4.79-35.25,3.1-34.89-4.79,1.13-13.11,5.36-16.99,10.65-13.46,18.33-15.44,62.25-15.44,62.25Z" style="fill:#466fb5; fill-rule:evenodd;"/><path d="M1858.2,887.61s15.72,2.33,19.81,5.43c4.65,3.52,9.73,11.2,9.73,11.2,0,0-20.3,91.15-20.44,106.52-.14,11.84,3.8,41.17,3.8,41.17,0,0-58.51,3.1-80.5-5.92,0,0,7.33-34.61,7.4-43.78,.07-9.09,9.3-91.92,11.28-97.7,1.76-5.22,5-14.59,15.72-16.85,10.72-2.26,33.2-.07,33.2-.07Z" style="fill:#6d96ce; fill-rule:evenodd;"/><path d="M1854.19,863.01l3.6,25.52s-14.59,30.24-23.05,27.49c-7.05-2.26-2.4-29.11-2.4-29.11,0,0,4.02-14.38,2.96-21.64-1.13-7.19,18.89-2.26,18.89-2.26Z" style="fill:#f9af79; fill-rule:evenodd;"/><path d="M1835.29,865.26c-1.13-7.19,18.89-2.26,18.89-2.26l.28,2.12c-.63,1.41-1.34,2.54-2.26,3.52-4.51,4.72-11.56,7.47-17.62,7.69,.7-3.88,1.13-8.11,.7-11.07Z" style="fill:#f27458; fill-rule:evenodd;"/><path d="M1857.78,826.91c.56-.14,4.23,29.11-3.38,37.08-7.61,7.96-22.35,10.43-27.49,4.09-5.71-7.05-5.15-38.49,6.7-46.7,11.77-8.14,24.18,5.53,24.18,5.53Z" style="fill:#f9af79; fill-rule:evenodd;"/><path d="M1838.18,805.66c9.02,1.87,14.88,7.44,16.99,9.84,4.09,.53,9.66,2.82,15.37,12.41,6.91,11.7,1.55,24.53-6.77,30.87-8.32,6.2-8.32,13.61-8.32,13.61l-1.27-3.88c-.92-2.82-1.27-5.92-.92-8.88,.21-1.83,.63-3.8,1.41-5.36,2.04-4.23-4.16-7.12-5.92-10.71-1.34-2.68-1.34-8.88-3.38-13.39l-2.54-3.46s-5.85-4.61-11.49-3.38c-5.78,1.27-4.79-20.16,6.84-17.66Z" style="fill:#20386f; fill-rule:evenodd;"/><path d="M1849.11,848.91c-.14,3.6,1.48,6.49,3.53,6.63,2.11,0,3.87-2.82,3.95-6.35,.14-3.66-1.48-6.55-3.53-6.62-2.11,0-3.88,2.82-3.95,6.34Z" style="fill:#f9af79; fill-rule:evenodd;"/><path d="M1881.89,899.66c-5.29-.28-10.36,34.68-6.98,38.14,3.31,3.45,3.52,46.45,3.52,46.45l-49.91-1.69h-.07c-.92-.7-11.35-7.75-12.83-9.3-1.55-1.69-9.23-.99-11.21,1.27-2.12,2.11,3.8,1.13,5.64,2.33,1.76,1.2-.85,3.52-.85,3.52,0,0-12.62,1.69-15.09-.92-2.4-2.68-8.95-7.19-9.87-4.51-.49,1.34,2.82,5.43,4.79,7.19-2.4-1.83-5.21-3.81-6.2-3.38-1.83,.56-1.13,2.82-.14,3.52,.99,.64,10.92,8.46,12.55,9.02,1.48,.56,24.81,1.34,28.9,2.26,0,0,65.7,15.65,69.5,14.8,3.25-.85,6.77-21.85,6.91-38,.14-16.14-2.12-70.14-18.68-70.71Z" style="fill:#f9af79; fill-rule:evenodd;"/><path d="M1875.12,891.63s9.24,2.19,18.61,12.97c8.53,9.87,13.47,64.36,13.47,64.36l-29.96,4.51-2.12-26.37c-12.48-19.24-15.44-42.08,0-55.47Z" style="fill:#466fb5; fill-rule:evenodd;"/><path d="M198.49,925.46c-2.61,2.61-5.57,3.8-9.16,3.38,3.52,2.26,8-.07,9.16-3.38Z" style="fill:#f48661; fill-rule:evenodd;"/><path d="M58.67,766.75c-3.31-16,4.34-31.9,19-37.89-.11-9.13,2.89-20.69,9.2-26.93,12.44-12.34,36.2-16.67,45.4-.92,12.09,6.73,21.57,21.36,17.98,34.72,11.74,11.95,7.26,33.66-9.8,43.88,.25,13.43-6.94,26.79-18.86,32.53-2.85,1.41-7.33,3.31-7.9,3.91,.74-.71-8.81,25.66-38.56,13.54-30.31-12.23-36.23-46.81-16.46-62.85Z" style="fill:#20386f; fill-rule:evenodd;"/><path d="M201.49,921.37s-1.97-2.11-2.57-2.82c-.71-.85-2.61-3.67-2.61-3.67,0,0-6.17-9.94-5.39-10.29,.81-.42,2.85,.77,3.45,1.27,.6,.42,1.34,.99,1.94,1.48,.6,.49,1.52,.42,2.19-.21,.63-.71-1.34-3.1-2.19-3.81-2.64-2.26-11-6.77-11.84-7.33-1.02-.56-8.46-19.74-11.52-26.08h0c-4.76-10.58-9.06-21.57-9.55-22.7l-5.92-48.89-19.35-4.93s5.81,54.25,6.41,56.92c.28,1.27,13.22,24.96,13.22,24.96,7.12,11.28,13.43,21.15,14.56,23.05,0,0,1.87,6.69,2.79,11.07,.92,4.3,3.56,7.9,3.98,9.09,.07,.14,1.41,4.3,4.83,8.39,2.96,3.67,1.83-1.13,1.83-1.13,0,0-4.23-7.61-3.56-7.76,.49-.21,2.57,4.09,5.82,8.04,.81,.99,1.66,2.11,2.39,2.96,2.01,2.4,4.12,1.97,2.43-.92-.56-1.06-1.62-2.68-2.54-3.74-.95-1.2-1.48-2.54-2.15-3.67-1.3-2.19-2.33-3.81-2.18-3.81s.21-.56,1.13,.49c1.09,1.27,2.82,4.44,4.58,6.27,.99,.99,3,3.17,3,3.17,0,0,3.56,3.17,3.81,3.03,1.3-.78-.6-3.8-2.15-4.93-.56-1.27-2.71-3.53-2.71-3.53,0,0-3.24-5.57-2.47-6.06,.67-.36,11.1,11.42,12.34,10.5,1.02-.78-1.97-4.44-1.97-4.44Z" style="fill:#f9af79; fill-rule:evenodd;"/><path d="M182.14,904.1s5.67,3.17,8.71,.56c0,0-1.13,2.04-3.63,2.19-2.47,0-5.08-2.75-5.08-2.75Z" style="fill:#f27458; fill-rule:evenodd;"/><path d="M119.93,928.14l11.28,100.38s-5.5,21.22-4.86,27.35c.67,5.92,12.23,85.02,12.23,85.02l-.53,4.37-.25,12.83,43.28,.42s-9.13-4.09-21.92-12.19c-.92-.56-3.1-2.47-3.59-6.27-3.42-24.39,3.31-105.67,3.31-105.67l5.32-105.88-44.27-.35Z" style="fill:#f9af79; fill-rule:evenodd;"/><path d="M85.81,946.68c-2.4,.56-6.13,86.78-8.14,90.58-12.76,24.18-15.79,97.7-15.79,97.7l-5.25,10.36,1.2,9.94s9.52,5.43,16.18,1.69l-1.02-9.87-.77-13.25,32.14-91.71,17.59-93.54-36.13-1.9Z" style="fill:#f9af79; fill-rule:evenodd;"/><path d="M168.18,993.35l1.55-59.42c.25-16.78-5.36-32.92-12.27-48.22l-14.59-24.46c-4.69,1.48-7.26-12.41-12.2-11.84-3.74,.42-6.31,1.34-9.76,1.48-6.49,.42-10.47,13.11-17.45,12.34-.04,.35-1.37,3.6-1.48,3.88-3.35,9.02-14.84,16.99-19.38,43.64-5.18,30.24-5.15,82.26-4.51,85.86,49.38,2.19,61.12,3.88,90.09-3.25Z" style="fill:#20386f; fill-rule:evenodd;"/><path d="M137.55,1161.47h44.69c1.66-.14,2.08-1.55,1.48-2.4-1.16-1.69-6.38-2.96-12.23-5.64-10.29,1.13-31.79-5.78-33.45-8.18-.92,4.79-1.37,16-.49,16.21Z" style="fill:#0e2952; fill-rule:evenodd;"/><path d="M56.62,1145.26s3.98,11.28,8.28,10.93c4.27-.35,8.04-9.09,8.04-9.09,0,0,1.62,7.4,.85,11.49-.74,4.16-6.87,8.39-11.03,6.49-4.19-1.76-9.87-11.35-6.13-19.81Z" style="fill:#0e2952; fill-rule:evenodd;"/><path d="M139.7,822.79s6.2-.78,12.2-2.86c3.56-1.23,9.52-3.95,9.52-3.95,0,0-3.35-27.98-11.77-44.97-3.21-6.49-6.87-10.04-11.24-11.17-.35-.07,1.3,62.95,1.3,62.95Z" style="fill:#466fb5; fill-rule:evenodd;"/><path d="M150.52,791.1c-1.27-4.54-4.09-10.5-5.71-14.63-2.71-7.01-3.52-13.5-5.92-16.32-1.34-1.52-17.97-1.27-20.02-1.48-.85-.1-4.19,.14-7.4,.35v-.07c-1.9,.25-20.69,1.69-23.4,2.82-13.53,13.11-20.09,30.7-30.28,49.94,0,0,7.61,4.3,13.71,7.01,2.64,1.16,7.72,3.1,7.72,3.1,0,0,6.38-11.03,10.04-15.86l1.66-3.67c.14-.07,.74-.71,.92-.28,.28,.67,11.7,61.19,11.7,61.19,0,0,31.86,2.89,40-.92,0,0,1.48-40.53,4.48-52.38,1.13-4.41,4.51-11.49,2.5-18.82Z" style="fill:#6d96ce; fill-rule:evenodd;"/><path d="M109.17,740.35s2.61,14.13,2.08,19.67c-.53,5.64,1.97,23.58,13.22,23.61,11.24,.11,3.59-18.65,2.54-24.11-1.06-5.46-2.78-26.51-2.78-26.51l-15.05,7.33Z" style="fill:#f9af79; fill-rule:evenodd;"/><path d="M124.93,740.98c-.14-4.62-1.02-8.32-1.02-8.32l-14.73,7.68s.53,2.93,1.06,6.59c6.59,1.38,11.84-1.69,14.7-5.96Z" style="fill:#f27458; fill-rule:evenodd;"/><path d="M108.86,699.36s-6.34,2.22-9.8,9.02c-3.46,6.77-4.58,25.8,9.3,33.13,13.92,7.29,23.09-6.2,22.2-18.26-.88-12.09-4.72-27.92-21.71-23.9Z" style="fill:#f9af79; fill-rule:evenodd;"/><path d="M134.69,719.87c.39,3.14-.74,5.82-2.5,5.99-1.76,.14-3.46-2.26-3.81-5.39-.39-3.14,.74-5.82,2.5-5.96,1.73-.18,3.45,2.26,3.81,5.36Z" style="fill:#f9af79; fill-rule:evenodd;"/><path d="M100.29,725.12c1.2,3.07,.64,6.24-1.37,7.12-1.94,.92-4.55-.85-5.74-3.88-1.23-3-.64-6.2,1.34-7.12,1.97-.88,4.55,.85,5.78,3.88Z" style="fill:#f9af79; fill-rule:evenodd;"/><path d="M105.93,804.78l-.63,.88c.28,2.75-1.2,4.87-3.95,5.53l-34.54,48.64,41.56,28.62c2.36,1.62,5.64,1.06,7.29-1.2l33.34-46.95c1.52-2.19,.99-5.22-1.2-6.63l-41.87-28.9Z" style="fill:#466fb5; fill-rule:evenodd;"/><path d="M101.35,811.19h0l39.76,27.42c2.29,1.55,5.04,1.62,6.17,.14,.53-.85,.53-1.83,.14-2.89-.39-.99-1.23-2.04-2.4-2.82l-39.72-27.39h0c.25,2.71-1.23,4.83-3.95,5.53Z" style="fill:#eff8f7; fill-rule:evenodd;"/><path d="M60.68,813.27c2.79,1.52,7.09,3.81,10.82,5.46,1.76,.78,4.58,1.9,6.31,2.54-4.09,7.61-7.97,15.37-7.47,16.99,.46,1.48,36.94,28.27,36.94,28.27l7.26-.99s12.87,1.48,13.15,2.96c.32,1.48-5.39,1.13-6.17,1.34-.42,.07-1.27,.36-2.01,.92,1.16,.42,2.68,1.13,4.16,1.76-4.3,2.47-7.26,6.13-8.81,10.36-3.6-.85-8.53-2.82-14.77-7.33-8.5-4.16-51.18-28.2-51.85-32.71-.35-2.68,6.17-16.78,12.44-29.57Z" style="fill:#f9af79; fill-rule:evenodd;"/><path d="M128.28,869.49s1.62,3.1,1.09,5.36c-.56,2.33-1.13,2.96-1.73,5.08-.56,2.12-.64,2.54-2.78,4.37-2.12,1.83-12.41-2.12-12.41-2.12l7.05-11.42,4.09,1.48s2.54-.35,3.24-1.06c.71-.7,1.44-1.69,1.44-1.69Z" style="fill:#f9af79; fill-rule:evenodd;"/><path d="M1489.81,673.49s16.64-8.74,40.46-10.47c12.76-.95,24.6,6.91,28.62,19.1,.21,.67,.42,1.41,.63,2.19,5.64,20.12,2.54,81.07-16.28,96.96-18.82,15.9-53.43,9.2-53.43,9.2v-116.98Z" style="fill:#20386f; fill-rule:evenodd;"/><path d="M1437.86,815.57s2.11,25.17,4.44,55.48c3.24,41.17,15.51,143.66,15.51,143.66,0,0-2.61,4.09,10.08,1.41,0,0,15.44-34.96,18.61-75.14,.07-.64,.14-1.27,.14-1.97,3.03-40.89,7.69-126.96,7.69-126.96l-56.46,3.53Z" style="fill:#223f81; fill-rule:evenodd;"/><path d="M1437.22,806.86s2.75,33.87,5.08,64.18l44.2,69.93c.07-.64,.14-1.27,.14-1.97,3.03-40.89,7.69-126.96,7.69-126.96l-57.1-5.18Z" style="fill:#0e2952; fill-rule:evenodd;"/><path d="M1447.09,800.48l76.06,218.74s7.9-1.55,9.73-5.08c0,0,2.12-92.49-10.71-114.76-7.33-12.62-10.99-47.93-11.49-59.92-1.48-35.6-5.29-45.22-5.29-45.22l-58.3,6.24Z" style="fill:#223f81; fill-rule:evenodd;"/><path d="M1469.65,1032.61h-6.2c-2.04-.42-3.59-.99-5.71-1.27-3.24-.42-4.72,.91-5.01,1.27h-26.36c-.64-.92-.07-3.1,.63-4.72,.42-1.06,1.27-1.9,2.4-2.25,2.82-.78,8.32-1.48,13.39-6.13,2.82-2.54,13.68-9.31,13.68-9.31v-.07c.28,0,1.41,.35,6.34,4.58,2.54,2.12,6.91-3.1,6.91-3.1,0,0,.78,.71,1.41,1.97,.42,.99,.84,2.33,.56,4.02-.42,2.33,.84,6.77,1.83,9.8,.63,1.76,1.13,3.03,1.13,3.03,0,0,.28,1.48-5.01,2.19Z" style="fill:#172b57; fill-rule:evenodd;"/><path d="M1469.65,1032.68h-6.13c-2.11-.35-3.66-1.06-5.78-1.34-3.24-.42-4.72,.91-5.01,1.27h-26.36c-.64-.92-.07-3.1,.63-4.72,.71-.71,.99,3.1,1.41,3.74,.42,.56,21.43,.14,22.7-.7,1.2-.85,4.87-2.4,9.94-1.27,4.37,1.13,10.92-1.55,12.48-2.26,.63,1.76,1.13,3.03,1.13,3.03,0,0,.28,1.55-5.01,2.26Z" style="fill:#172b57; fill-rule:evenodd;"/><path d="M1532.88,1032.61h-6.2c-2.11-.42-3.59-.99-5.78-1.27-3.17-.42-4.65,.91-4.94,1.27h-26.36c-.71-.92,0-3.1,.56-4.72,.42-1.06,1.34-1.9,2.47-2.25,2.75-.78,8.25-1.48,13.32-6.13,2.82-2.54,13.68-9.31,13.68-9.31l.07-.07c.21,0,1.34,.35,6.27,4.58,2.54,2.12,6.91-3.1,6.91-3.1,0,0,.85,.71,1.41,1.97,.49,.99,.84,2.33,.56,4.02-.35,2.33,.92,6.77,1.9,9.8,.63,1.76,1.13,3.03,1.13,3.03,0,0,.35,1.48-5.01,2.19Z" style="fill:#172b57; fill-rule:evenodd;"/><path d="M1532.88,1032.68h-6.2c-2.11-.35-3.59-1.06-5.78-1.34-3.17-.42-4.65,.91-4.94,1.27h-26.36c-.71-.92,0-3.1,.56-4.72,.85-.71,.99,3.1,1.48,3.74,.42,.56,21.43,.14,22.63-.7,1.27-.85,4.87-2.4,9.94-1.27,4.44,1.13,10.92-1.55,12.55-2.26,.63,1.76,1.13,3.03,1.13,3.03,0,0,.28,1.55-5.01,2.26Z" style="fill:#172b57; fill-rule:evenodd;"/><path d="M1493.83,670s-24.67,12.12-38.91,7.65c0,0,3.52-4.51,9.59-7.86-.28-2.08-.56-3.95-.85-5.64-.71-6.1-.78-9.59-.78-9.59l15.16-12.16,3.31-2.75c-.07,2.89,.07,5.57,.49,8.04,0,.21,.07,.39,.07,.6,2.46,14.63,11.91,21.71,11.91,21.71Z" style="fill:#f9af79; fill-rule:evenodd;"/><path d="M1507.93,799c0,1.55-3.24,3.28-4.65,3.91-6.2,2.78-12.13,5.08-18.33,6.69-4.23,1.16-8.6,1.97-13.18,2.4-13.18,1.34-28.76-1.62-34.12-1.52-.56,0-1.06-.25-1.48-.6-.35-.28-.64-16.39-.35-36.73,0-.77,0-1.62,.07-2.4v-.28c0-7.93,.36-16.28,.71-24.57,.78-18.22,2.19-35.85,4.65-45.61,2.82-11.49,13.6-25.87,20.72-29.78,6.06-3.35,26.08-6.84,27.07-6.1,11.63,8.7,18.05,34.58,17.98,63.9v2.78c-.07,3.03-.21,6.1-.35,9.2-1.27,21.64,0,40.39,.77,51.32,.21,3.13,.36,5.64,.49,7.36Z" style="fill:#6d96ce; fill-rule:evenodd;"/><path d="M1482.05,648.04s-.07,.11-.14,.25c-.92,1.69-7.4,12.69-18.26,15.86-.71-6.1-.78-9.59-.78-9.59l15.16-12.16c1.97,2.33,3.31,4.48,3.81,5.29,.14,.25,.21,.35,.21,.35Z" style="fill:#f27458; fill-rule:evenodd;"/><path d="M1458.58,654.21s23.47,3.91,25.66-10.78c2.26-14.66,6.77-24.04-8.18-27.14-14.94-3.14-18.68,2.04-20.58,6.73-1.97,4.72-2.96,29.82,3.1,31.19Z" style="fill:#f9af79; fill-rule:evenodd;"/><path d="M1479.94,639.65s3.17-3.14,1.34-5.11c-1.83-2.01-2.82,1.02-4.23,.92-1.41-.11-4.02-4.26-4.23-8.04-.14-3.77-13.82,1.97-19.32,.18-5.5-1.76-11-4.9-10.15-15.65,13.46,8.35,27.63-8.07,41.88,1.34,17.2,13.36,2.25,30.77,.14,33.24-2.19,2.47-3.45,1.76-3.45,1.76,0,0-3.81-5.22-1.97-8.63Z" style="fill:#0e2952; fill-rule:evenodd;"/><path d="M1507.5,744.37l.71-4.48c-10.86-1.8-19.67-7.01-26.22-15.58-4.86-6.48-8.32-14.94-9.45-23.23-2.11-16.07,2.12-25.24,12.97-27.99,9.73-2.47,21.01,5.11,21.08,5.22l2.61-3.74c-.56-.35-13.11-8.88-24.81-5.89-9.16,2.33-19.45,9.9-16.35,32.99,.71,5.32,3.03,15.68,10.36,25.38,7.26,9.52,16.99,15.33,29.11,17.31Z" style="fill:#20386f; fill-rule:evenodd;"/><path d="M1464.64,771.16s-3.1-1.62-4.79-2.36c-1.69-.74-5.08-2.82-5.29-1.34-.28,1.44-1.62,4.23,1.48,4.72,3.17,.53,8.6-1.02,8.6-1.02Z" style="fill:#f9af79; fill-rule:evenodd;"/><path d="M1446.32,760.09l-2.12,.67c-1.13,.32-2.26-.32-2.54-1.38l-.42-1.37c-.29-1.06,.28-2.19,1.41-2.5l2.12-.64c1.06-.35,2.26,.28,2.54,1.34l.42,1.38c.29,1.06-.35,2.18-1.41,2.5Z" style="fill:#3255a1; fill-rule:evenodd;"/><path d="M1453.51,758.86l7.61,25.62c.49,1.72-.49,3.56-2.26,4.09l-9.73,2.89c-1.69,.49-3.53-.49-4.09-2.22l-7.61-25.62c-.49-1.73,.56-3.59,2.26-4.09l9.73-2.89c1.69-.53,3.53,.46,4.09,2.22Z" style="fill:#cbddf1; fill-rule:evenodd;"/><path d="M1453.79,759.88l7.33,24.6c.49,1.72-.49,3.56-2.26,4.09l-9.73,2.89c-1.69,.49-3.53-.49-4.09-2.22l-7.12-24.07c1.48-.49,4.72-1.48,7.12-1.34,2.33,.18,6.62-2.54,8.74-3.95Z" style="fill:#466fb5; fill-rule:evenodd;"/><polygon points="1459.29 778.24 1443.21 783 1438.42 766.93 1454.49 762.17 1459.29 778.24" style="fill:#223f81; fill-rule:evenodd;"/><path d="M1450.26,770.52c4.37-1.09,8.32,1.59,14.38,.64,0,0,30.03-21.11,35.32-26.4,3.88-3.81-11.49-21.01-19.46-34.36,.42-.07,.78-.21,1.2-.46,6.06-3.63,18.33-10.15,28.48-11.21,.42-.04,.7-.14,1.06-.28,6.49,13.99,13.18,32.08,15.16,50.44,.28,2.29-.64,4.62-2.4,6.13-7.47,6.42-27.78,17.73-52.23,24.78,0,0-5.43,3.7-10.64,4.69-5.21,.98-7.4-1.94-15.01,2.43-3.53,2.01-4.65-2.29-4.16-4.51,.56-3,3.38-10.65,8.32-11.88Z" style="fill:#f9af79; fill-rule:evenodd;"/><path d="M1497.21,673.88s12.48,12.16,18.33,29.32c0,0-11.63,10.19-33.48,12.23,0,0-8.95-16.49-2.46-24.85,6.62-8.39,17.62-16.71,17.62-16.71Z" style="fill:#466fb5; fill-rule:evenodd;"/><path d="M1543.88,740.84s.7,31.9-.85,41.17c-1.55,9.34,2.05,52.66,2.05,52.66l7.47-.99s18.68-70.7,16.78-79.76c-1.9-9.09-25.45-13.08-25.45-13.08Z" style="fill:#f9af79; fill-rule:evenodd;"/><path d="M1545.08,834.67s-2.89,9.59-2.19,11.49c.7,1.84,4.37,5.71,7.4,8.11,3.03,2.26,.36-6.2-.21-9.02-.56-2.82,3.88-2.96,3.17-7.26l-.71-4.3-7.47,.99Z" style="fill:#f9af79; fill-rule:evenodd;"/><path d="M1553.25,837.98s-.07,7.97,.07,9.66c.07,1.55-1.55,.07-1.83-1.27-.21-1.41-1.62-3.74-2.39-3.95-.7-.21,4.16-4.44,4.16-4.44Z" style="fill:#f9af79; fill-rule:evenodd;"/><path d="M1599,957.61c-2.68,27-12.41,68.52-12.41,68.52l-7.47-5.43s-13.32-93.19-15.5-100.74c-15.09-52.73-16.78-104.47-16.78-104.47l44.13-13.01c4.44,7.54,7.89,19.98,6.91,34.01-4.65,61.33,4.37,88.68,1.13,121.11Z" style="fill:#0e2952; fill-rule:evenodd;"/><path d="M1643.55,835.94s.14,3.03,2.4,5.92c.56,.71,2.04,2.4,2.61,1.83,.56-.64-1.62-5.36-.35-8.18,.49-1.13-4.65,.42-4.65,.42Z" style="fill:#f9af79; fill-rule:evenodd;"/><path d="M1554.31,1028.81c.42-.85,1.13-1.55,1.98-1.83,2.26-.56,6.77-1.2,10.85-4.87,2.26-2.04,11-7.61,11-7.61l.07-.07c.21,.07,1.06,.35,5.08,3.67,2.04,1.83,5.57-2.4,5.57-2.4,0,0,.71,.56,1.13,1.55,.42,.85,.71,1.9,.49,3.24-.35,1.97,.7,5.5,1.48,7.9,.56,1.41,.99,2.47,.99,2.47,0,0,.21,1.2-4.09,1.76h-5.01c-1.69-.28-2.89-.71-4.65-.99-2.61-.28-3.81,.71-4.02,.99l-.07,.07h-21.22c-.56-.78,0-2.54,.42-3.88Z" style="fill:#215088; fill-rule:evenodd;"/><path d="M1623.67,955.49c-2.68,27.07-11.77,69.51-11.77,69.51l-6.7,2.11s-14.66-101.65-16.85-109.26c-15.08-52.59-17.41-115.19-17.41-115.19l44.69-2.19c4.51,7.54,7.96,19.95,6.91,34.05-4.65,61.33,4.37,88.68,1.13,120.96Z" style="fill:#223f81; fill-rule:evenodd;"/><path d="M1579.55,1028.81c.28-.85,1.06-1.55,1.97-1.83,2.26-.56,6.7-1.2,10.78-4.87,2.26-2.04,11.07-7.61,11.07-7.61v-.07c.14,.07,1.13,.35,5.08,3.67,2.12,1.83,5.43-2.54,5.43-2.54,0,0,.77,.71,1.34,1.69,.42,.85,.71,1.9,.42,3.24-.28,1.97,.7,5.5,1.55,7.9,.42,1.41,.92,2.47,.92,2.47,0,0,.21,1.2-4.09,1.76h-5.01c-1.69-.28-2.96-.71-4.65-.99-2.54-.28-3.81,.71-4.02,.99l-.07,.07h-21.22c-.5-.78-.07-2.54,.49-3.88Z" style="fill:#3964a4; fill-rule:evenodd;"/><path d="M1546.27,824.52c3.81,4.51,37.79,3.67,45.47,1.97,5.22-1.2,9.3-6.7,12.19-16.57,.99,6.87,3.1,15.01,7.89,15.44,7.9,.85,11.14-.49,12.13-3.53,.14-.46-1.41-21.32-2.82-42.3-.99-14.45-1.83-28.94-1.98-36.87v-2.68c12.55-.7,17.48-.14,17.48-.14,0,0-5.92-19.28-19.67-34.93-12.62-14.45-42.79-10.15-55.05-6.55-7.69,2.29-14.95,10.54-11.14,28.05,2.12,10.33-.99,26.89-2.26,51.25-1.27,23.44-3.1,45.86-2.26,46.84Z" style="fill:#6d96ce; fill-rule:evenodd;"/><path d="M1555.58,701.83s-9.44,7.68-14.81,42.51c0,0,3.03,4.19,12.06,3.07,9.02-1.13,2.75-45.57,2.75-45.57Z" style="fill:#6d96ce; fill-rule:evenodd;"/><path d="M1566.08,641.24s21.92-24.88,32.71-8.28c0,0,8.25,3.73,10.93,18.05,2.68,14.63-7.33,25.41-12.26,22.56-3.1-1.83-5.71,3.7-5.71,3.7l-25.66-36.02Z" style="fill:#0e2952; fill-rule:evenodd;"/><path d="M1596.53,630.31s3.17-11.32,19.81-7.26c0,0-8.03-1.27-10.29,1.76,0,0,6.49-2.72,10.36-.18,3.87,2.57,4.3,10.75,3.67,13.25-.63,2.47-5.29,9.76-8.18,9.69-2.89-.07-6.28-2.75-6.28-2.75l-9.09-14.52Z" style="fill:#0e2952; fill-rule:evenodd;"/><path d="M1593.36,694.56c.42-2.47-2.04-6.8-1.62-20.58l-1.06,.14-18.05,3.07s-.42,14.66-.56,19.99c-.14,4.41,21.57,1.34,21.29-2.61Z" style="fill:#f9af79; fill-rule:evenodd;"/><path d="M1572.64,677.19s-.14,5.32-.29,10.65c10.01,0,16-8.67,18.33-13.71l-18.05,3.07Z" style="fill:#f27458; fill-rule:evenodd;"/><path d="M1592.59,672.22s5.43-8.14,6.91-15.19c1.05-5.08-.99-23.93-19.95-21.78,0,0-5.5,.39-10.71,3.77-4.23,2.64-10.29,8.46-4.16,25.06l1.55,5.57,26.36,2.57Z" style="fill:#0e2952; fill-rule:evenodd;"/><path d="M1569.11,682.12s23.76,1.09,24.18-13.71c.42-14.8,3.74-24.6-11.35-25.94-15.08-1.27-18.19,4.3-19.6,9.16-1.34,4.93,.63,29.85,6.77,30.49Z" style="fill:#f9af79; fill-rule:evenodd;"/><path d="M1571.09,641.84s6.06,17.52,15.93,20.37c9.94,2.85,14.38,.28,14.38,.28,0,0-7.47-6.31-8.81-16.95,0,0-16.28-11.84-21.5-3.7Z" style="fill:#0e2952; fill-rule:evenodd;"/><path d="M1572.71,643.28s-5,3.73-6.27,7.47c-1.27,3.7-1.98,11.49-4.23,11.14,0,0-4.58-11.91,1.13-18.47,5.99-6.91,9.38-.14,9.38-.14Z" style="fill:#172b57; fill-rule:evenodd;"/><path d="M1571.79,643.85s4.09,18.29,16.57,24.46c0,0-12.33-11.53-13.04-23.54-.71-12.02-3.53-.92-3.53-.92Z" style="fill:#172b57; fill-rule:evenodd;"/><path d="M1649.05,823.46s5.92,6.91,6.56,10.5c.63,3.6,.35,13.18-1.48,13.54-1.97,.35-3.1-6.34-3.74-7.61-2.18-4.37-6.27-2.33-6.84-3.95-.56-1.55-1.13-9.16-1.13-9.16l6.62-3.31Z" style="fill:#f9af79; fill-rule:evenodd;"/><path d="M1628.96,728.58s16,31.26,16.99,44.38c.84,13.08,3.1,50.51,3.1,50.51l-6.62,3.31s-13.75-49.31-14.59-56.78c-.91-8.32-28.12-35.92-28.12-35.92l29.25-5.5Z" style="fill:#f9af79; fill-rule:evenodd;"/><path d="M1600.41,716.56h23.97l12.26,23.3s-19.53,16.14-38.91,9.59c-19.45-6.56,2.68-32.89,2.68-32.89Z" style="fill:#6d96ce; fill-rule:evenodd;"/><path d="M1387.52,1012.17s.7,6.56,.7,7.68v1.06l-.56,1.13-.14,.49,3.88,5.5s15.72,.21,16.07,.21-2.12-3.8-2.12-3.8c0,0-5.15-3.95-6.13-6.63-.91-2.82,.85-8.46,.85-8.46l-12.55,2.82Z" style="fill:#f9af79; fill-rule:evenodd;"/><path d="M1311.68,972.98s-5.5,3.53-6.42,4.23l-.91,.71-.49,1.13-.21,.42-6.77,.28s-9.94-12.12-10.15-12.41c-.28-.28,2.82,.42,2.82,.42,0,0,6.35,.85,9.02-.14,2.75-.99,8.32-6.42,8.32-6.42l4.79,11.77Z" style="fill:#f9af79; fill-rule:evenodd;"/><path d="M1362.57,911.65l-60.27,51.32,9.23,13.11s62.03-38.42,65.28-38.91c3.24-.42,5.85,1.13,6.49,3.46,.56,2.33,2.11,73.38,2.11,73.38h16.15l8.39-89.38-47.37-12.97Z" style="fill:#223f81; fill-rule:evenodd;"/><path d="M1449.49,838.34c4.44-2.96,14.94-14.17,18.54-17.98,0-.46,.29-3.06,3.17-6.38,2.04-2.33,3.59-7.65,4.86-6.13,1.34,1.52-1.97,5.75-.42,5.75,1.48,.04,8.95-8.32,10.15-6.98,1.2,1.38-6.35,8.81-5.08,8.85,1.41,.04,7.54-7.54,9.23-5.57,1.62,1.9-8.1,8.18-7.12,9.24,.85,1.02,6.91-3.07,8.32-1.52,1.27,1.55-8.6,5.22-7.75,5.25,.71,0,6.49-.14,6.49,.92,.07,1.3-14.38,3.2-16.21,5.39-3.8,5.99-10.5,16.99-17.34,21.85-8.32,5.92-27.63,18.4-27.63,18.4l-9.59-12.34s25.1-15.23,30.38-18.75Z" style="fill:#f9af79; fill-rule:evenodd;"/><path d="M1475.64,816.27c.35,.74,.49,1.52,.56,2.33,0,.11,.28,2.71-1.9,4.69,.85-1.59,1.83-3.38,1.34-7.02Z" style="fill:#f48d80; fill-rule:evenodd;"/><path d="M1361.02,824.8c-3.53-3.98-10.71-17.59-13.11-22.21,.14-.46,.42-3.03-1.41-6.98-1.41-2.78-1.41-8.32-3.1-7.23-1.69,1.13,.42,6.06-1.05,5.71-1.48-.35-6.49-10.4-7.97-9.41-1.55,.99,3.81,10.19,2.54,9.87-1.34-.31-5.36-9.23-7.47-7.82-2.12,1.44,5.64,10.04,4.51,10.82-1.13,.77-5.92-4.79-7.61-3.66-1.69,1.16,6.84,7.29,6.06,7.08-.7-.18-6.2-1.83-6.55-.78-.35,1.2,13.18,6.84,14.24,9.38h0c2.11,6.8,5.71,19.17,11.07,25.66,6.49,7.9,21.85,24.95,21.85,24.95l12.41-9.44s-20.16-21.15-24.39-25.94Z" style="fill:#f9af79; fill-rule:evenodd;"/><path d="M1341.63,796.67c-.56,.6-.91,1.3-1.2,2.08,0,.14-.99,2.54,.56,5.01-.35-1.76-.85-3.74,.63-7.08Z" style="fill:#f48d80; fill-rule:evenodd;"/><path d="M1387.74,853h0c1.83-2.68,4.93-4.23,8.18-4.02,9.59,.64,28.97,2.19,30.8,4.02,2.54,2.39,9.87,18.47,2.82,40.89-6.98,22.42-10.85,20.16-16.57,20.16s-32.78-12.83-32.78-12.83l7.54-48.22Z" style="fill:#0e2952; fill-rule:evenodd;"/><path d="M1371.17,833.96l-11.28,14.66,14.03,20.8s-1.34,15.44-3.31,20.23c-2.04,4.86-13.68,24.67-13.68,24.67,0,0,28.27,17.34,55.97,14.8,0,0,7.83-40.11,10.01-43.99,2.19-3.81,23.26-22.98,23.26-22.98l-10.22-16.57-17.69,9.8s-32.36-5.21-33.91-6.77c-1.62-1.55-13.18-14.66-13.18-14.66Z" style="fill:#6d96ce; fill-rule:evenodd;"/><path d="M1407.68,803.9s-10.85-5.78-14.66,3.81c0,0-9.8-.99-8.1,9.16,0,0-9.87,4.97-3.6,17.8,0,0-2.82,11.98,11.28,12.83,0,0,2.11,4.23,8.6,3.24,6.35-.99,8.04-2.68,8.04-2.68,0,0,11.42,3.24,14.8-6.98,0,0,7.9-1.9,2.61-11.91,0,0,6.84-13.04-5.14-16.95,0,0-1.41-13.36-13.82-8.32Z" style="fill:#0e2952; fill-rule:evenodd;"/><path d="M1412.13,832.13c-.92,2.54-.21,4.93,1.48,5.57,1.62,.64,3.66-.92,4.58-3.38,.92-2.46,.21-5-1.41-5.57-1.69-.64-3.74,.92-4.65,3.38Z" style="fill:#f9af79; fill-rule:evenodd;"/><path d="M1382.66,826.07c-.14,2.61,1.2,4.79,3.03,4.94,1.69,0,3.24-1.97,3.38-4.65,.14-2.61-1.2-4.83-2.96-4.9-1.83-.11-3.38,1.97-3.45,4.62Z" style="fill:#f9af79; fill-rule:evenodd;"/><path d="M1395.14,843.48c0,.21-1.41,6.27-2.12,9.52-.28,1.13,.28,2.39,1.41,2.96,2.96,1.34,8.88,3.24,12.97-.42,.42-.42,.56-.85,.56-1.41l-.49-14.52-12.34,3.88Z" style="fill:#f9af79; fill-rule:evenodd;"/><path d="M1394.43,846.86c3.1,1.62,7.12,1.62,11.63-.99,.56-.35,1.05-.63,1.62-1.06l-.21-5.22-12.34,3.88c0,.07-.28,1.55-.71,3.38Z" style="fill:#f27458; fill-rule:evenodd;"/><path d="M1403.88,809.86s5.36,1.41,8.6,6.66c3.1,5.21,4.86,20.33-6.42,27.03-11.28,6.63-19.53-3.67-19.32-13.39,.21-9.69,4.51-22.1,17.13-20.3Z" style="fill:#f9af79; fill-rule:evenodd;"/><path d="M1385.41,849.19c-5.14,3.88-10.57,23.97-12.62,29.33l-1.69,9.59,21.15-37.36s-5.71-2.47-6.84-1.55Z" style="fill:#223f81; fill-rule:evenodd;"/><path d="M1411.21,854.27s-.71,24.81,1.2,33.27c1.83,8.6,6.7,11.56,6.7,11.56l2.47-9.94s-2.47-21.92-3.31-33.77c-.14-1.76-7.05-1.13-7.05-1.13Z" style="fill:#223f81; fill-rule:evenodd;"/><path d="M1384.64,1032.05c-2.4-.28,1.76-8.6,3.03-10.01l17.69,2.4s8.53,3.95,10.51,5.92c.56,.56,.56,1.41-1.55,1.69-6.63,.99-24.39,.7-29.68,0Z" style="fill:#223f81; fill-rule:evenodd;"/><path d="M1297.79,987.78c2.04,1.2,5.85-6.91,6.06-8.74l-14.31-11.28s-11-3.1-13.18-.99c-2.05,2.12,16.71,18.19,21.43,21.01Z" style="fill:#223f81; fill-rule:evenodd;"/><path d="M634.03,681.98s-2.75,.92-3.74,1.13c-1.09,.25-4.44,.78-4.44,.78,0,0-11.77,1.13-11.74,.14,0-.95,1.97-2.4,2.68-2.72,.71-.39,1.52-.85,2.22-1.2,.7-.39,1.06-1.27,.81-2.22-.32-.99-3.46-.28-4.44,.21-3.24,1.51-11.1,7.44-11.98,8.04-.99,.7-21.61-1.48-28.72-1.59h0c-11.67-.56-23.58-1.8-24.81-1.87l-46.74-18.33-19.31,25.73s57.66,11.95,60.34,12.65c1.27,.35,28.44-.63,28.44-.63,13.39-1.41,25.17-2.71,27.42-2.89,0,0,6.91,1.51,11.21,2.75,4.26,1.23,8.7,.39,10.01,.56,.18,0,4.51,.77,9.8-.56,4.58-1.13-.21-2.36-.21-2.36,0,0-8.78,.39-8.67-.35,.11-.6,4.9-.53,9.94-1.73,1.3-.28,2.61-.6,3.77-.88,3.07-.77,3.59-3.1,.25-2.85-1.16,.11-3.14,.28-4.51,.64-1.52,.39-2.96,.21-4.26,.32-2.61,.18-4.44,.42-4.41,.28,.04-.18-.46-.53,.92-.88,1.66-.46,5.32-.56,7.72-1.45,1.34-.46,4.23-1.3,4.23-1.3,0,0,4.51-1.9,4.51-2.22-.18-1.69-3.74-1.34-5.5-.39-1.37-.04-4.41,.92-4.41,.92,0,0-6.45,.46-6.49-.53-.07-.85,15.26-5.29,15.01-6.94-.25-1.38-4.9-.25-4.9-.25Z" style="fill:#f9af79; fill-rule:evenodd;"/><path d="M609.67,692.41s5.43-3.98,4.44-8.25c0,0,1.38,2.15,.32,4.58-1.16,2.47-4.76,3.67-4.76,3.67Z" style="fill:#f27458; fill-rule:evenodd;"/><path d="M513.8,696.89s5.43-9.83,6.77-16.64c.85-4.05,1.66-11.21,1.66-11.21,0,0-25.84-12.97-44.87-14.87-7.29-.7-12.3,.67-15.58,4.16-7.12,7.08,40.5,50.05,52.02,38.56Z" style="fill:#466fb5; fill-rule:evenodd;"/><path d="M456.14,655.9s-18.47-9.73-44.97-11.67c-14.2-1.06-27.32,7.72-31.79,21.25-.25,.78-.49,1.59-.74,2.43-6.2,22.38-2.82,90.12,18.12,107.82,20.94,17.66,59.39,10.19,59.39,10.19v-130.02Z" style="fill:#20386f; fill-rule:evenodd;"/><path d="M513.84,813.84s-2.22,28.02-4.86,61.65c-3.6,45.75-17.24,159.74-17.24,159.74,0,0,2.89,4.51-11.14,1.55,0,0-17.24-38.84-20.79-83.46-.04-.7-.11-1.48-.18-2.18-3.31-45.47-8.5-141.2-8.5-141.2l62.7,3.91Z" style="fill:#223f81; fill-rule:evenodd;"/><path d="M514.65,804.14s-3.03,37.71-5.67,71.34l-49.17,77.82c-.04-.7-.11-1.48-.18-2.18-3.31-45.47-8.5-141.2-8.5-141.2l63.51-5.78Z" style="fill:#0e2952; fill-rule:evenodd;"/><path d="M503.65,797.06l-84.52,243.16s-8.85-1.62-10.82-5.5c0,0-2.43-102.92,11.88-127.73,8.11-13.95,12.19-53.29,12.76-66.61,1.69-39.51,5.89-50.26,5.89-50.26l64.82,6.94Z" style="fill:#223f81; fill-rule:evenodd;"/><path d="M478.59,1055.1h6.87c2.29-.35,3.98-1.06,6.38-1.34,3.56-.42,5.22,.99,5.57,1.34l.04,.07h29.25c.74-.99,.04-3.45-.67-5.22-.46-1.27-1.48-2.11-2.71-2.54-3.14-.85-9.23-1.69-14.84-6.77-3.14-2.82-15.19-10.43-15.19-10.43h-.07c-.25,0-1.52,.35-7.01,5-2.85,2.33-7.68-3.38-7.68-3.38,0,0-.88,.78-1.55,2.19-.56,1.05-.95,2.54-.63,4.44,.42,2.61-.99,7.54-2.08,10.86-.71,1.97-1.3,3.45-1.3,3.45,0,0-.32,1.62,5.64,2.33Z" style="fill:#172b57; fill-rule:evenodd;"/><path d="M478.59,1055.17h6.84c2.33-.28,4.02-1.13,6.42-1.41,3.56-.42,5.22,.99,5.57,1.34l.04,.07h29.25c.74-.99,.04-3.45-.67-5.22-.88-.85-1.13,3.38-1.62,4.09-.49,.63-23.86,.21-25.2-.71-1.38-.99-5.39-2.75-11.03-1.41-4.9,1.2-12.16-1.83-13.92-2.61-.71,1.97-1.3,3.45-1.3,3.45,0,0-.28,1.69,5.64,2.4Z" style="fill:#172b57; fill-rule:evenodd;"/><path d="M408.28,1055.1h6.91c2.29-.35,4.02-1.06,6.38-1.34,3.59-.42,5.21,.99,5.57,1.34l.07,.07h29.22c.74-.99,.03-3.45-.67-5.22-.46-1.27-1.48-2.11-2.75-2.54-3.07-.85-9.2-1.69-14.77-6.77-3.17-2.82-15.23-10.43-15.23-10.43h-.07c-.25,0-1.52,.35-6.98,5-2.85,2.33-7.68-3.38-7.68-3.38,0,0-.92,.78-1.59,2.19-.56,1.05-.95,2.54-.63,4.44,.42,2.61-.99,7.54-2.12,10.86-.67,1.97-1.23,3.45-1.23,3.45,0,0-.32,1.62,5.57,2.33Z" style="fill:#172b57; fill-rule:evenodd;"/><path d="M408.31,1055.17h6.84c2.33-.28,4.05-1.13,6.42-1.41,3.59-.42,5.21,.99,5.57,1.34l.07,.07h29.22c.74-.99,.03-3.45-.67-5.22-.88-.85-1.13,3.38-1.62,4.09-.49,.63-23.82,.21-25.2-.71-1.34-.99-5.39-2.75-11.03-1.41-4.9,1.2-12.16-1.83-13.96-2.61-.67,1.97-1.23,3.45-1.23,3.45,0,0-.32,1.69,5.6,2.4Z" style="fill:#172b57; fill-rule:evenodd;"/><path d="M451.7,652.02s27.39,13.46,43.21,8.46c0,0-3.88-4.97-10.68-8.71,.39-2.29,.7-4.41,.95-6.27,.88-6.77,.92-10.64,.92-10.64l-16.78-13.57-3.77-3c.1,3.21-.11,6.17-.53,8.92-.03,.21-.07,.42-.11,.63-2.75,16.28-13.22,24.18-13.22,24.18Z" style="fill:#f9af79; fill-rule:evenodd;"/><path d="M436.08,795.4c-.07,1.76,3.49,3.67,5.08,4.37,6.91,3.1,13.57,5.68,20.37,7.47,4.76,1.27,9.59,2.15,14.66,2.64,14.7,1.52,32-1.8,37.96-1.72,.64,0,1.2-.25,1.66-.64,.42-.32,.7-18.22,.42-40.81,0-.88,0-1.8-.11-2.68v-.32c-.07-8.81-.39-18.08-.77-27.28-.88-20.3-2.47-39.86-5.18-50.75-3.14-12.73-15.16-28.73-23.12-33.1-6.73-3.7-28.87-7.58-29.96-6.8-13.04,9.69-20.2,38.45-20.06,71.09v3.1c.07,3.38,.18,6.77,.39,10.19,1.41,24.07-.03,44.94-.88,57.06-.21,3.49-.42,6.28-.46,8.18Z" style="fill:#6d96ce; fill-rule:evenodd;"/><path d="M464.78,627.6s.03,.1,.14,.25c1.09,1.9,8.28,14.14,20.27,17.66,.88-6.77,.92-10.64,.92-10.64l-16.78-13.57c-2.22,2.61-3.74,5-4.3,5.92-.14,.25-.25,.39-.25,.39Z" style="fill:#e78f51; fill-rule:evenodd;"/><path d="M490.93,634.47s-26.15,4.34-28.58-11.98c-2.47-16.32-7.51-26.75,9.09-30.21,16.6-3.49,20.8,2.26,22.95,7.51,2.11,5.25,3.28,33.13-3.45,34.68Z" style="fill:#f9af79; fill-rule:evenodd;"/><path d="M467.14,618.29s-3.49-3.52-1.48-5.71c2.01-2.22,3.14,1.13,4.72,1.02,1.55-.11,4.41-4.72,4.65-8.95,.18-4.19,15.37,2.22,21.46,.25,6.13-2.01,12.3-5.46,11.35-17.45-15.02,9.31-30.77-8.99-46.63,1.51-19.1,14.84-2.5,34.22-.11,36.97,2.43,2.71,3.81,1.9,3.81,1.9,0,0,4.3-5.78,2.22-9.55Z" style="fill:#0e2952; fill-rule:evenodd;"/><path d="M436.47,734.68l-.81-5c12.12-1.94,21.92-7.79,29.15-17.31,5.46-7.16,9.27-16.57,10.54-25.8,2.4-17.91-2.29-28.06-14.38-31.12-10.82-2.71-23.33,5.71-23.47,5.82l-2.85-4.16c.56-.42,14.49-9.83,27.53-6.56,10.22,2.57,21.64,11.03,18.19,36.69-.81,5.92-3.35,17.45-11.52,28.2-8.04,10.61-18.93,17.06-32.36,19.25Z" style="fill:#20386f; fill-rule:evenodd;"/><path d="M484.2,764.46s3.42-1.76,5.32-2.61c1.9-.85,5.57-3.1,5.85-1.52,.28,1.62,1.76,4.72-1.73,5.29-3.46,.56-9.45-1.16-9.45-1.16Z" style="fill:#f9af79; fill-rule:evenodd;"/><path d="M504.53,752.19l2.36,.7c1.2,.35,2.47-.32,2.82-1.51l.46-1.52c.35-1.2-.35-2.47-1.55-2.82l-2.4-.71c-1.16-.35-2.43,.32-2.79,1.55l-.46,1.48c-.35,1.2,.32,2.47,1.55,2.82Z" style="fill:#3255a1; fill-rule:evenodd;"/><path d="M496.53,750.78l-8.46,28.48c-.56,1.94,.56,3.98,2.47,4.55l10.82,3.21c1.9,.6,3.95-.53,4.55-2.43l8.42-28.52c.6-1.94-.53-3.98-2.43-4.55l-10.82-3.21c-1.9-.56-3.95,.56-4.55,2.47Z" style="fill:#cbddf1; fill-rule:evenodd;"/><path d="M496.22,751.95l-8.14,27.31c-.56,1.94,.56,3.98,2.47,4.55l10.82,3.21c1.9,.6,3.95-.53,4.55-2.43l7.93-26.79c-1.59-.53-5.25-1.66-7.9-1.48-2.57,.21-7.44-2.82-9.73-4.37Z" style="fill:#8cacd9; fill-rule:evenodd;"/><polygon points="490.12 772.35 507.95 777.64 513.27 759.77 495.44 754.48 490.12 772.35" style="fill:#f27458; fill-rule:evenodd;"/><path d="M500.16,763.75c-4.86-1.2-9.23,1.76-15.97,.71,0,0-33.45-23.47-39.34-29.32-4.23-4.23,12.79-23.4,21.64-38.24-.46-.07-.88-.25-1.34-.46-6.77-4.02-20.37-11.31-31.65-12.48-.42-.04-.81-.18-1.16-.32-7.23,15.54-14.63,35.67-16.88,56.04-.28,2.61,.74,5.11,2.72,6.84,8.25,7.12,30.84,19.77,58.01,27.56,0,0,6.1,4.12,11.88,5.18,5.81,1.09,8.25-2.15,16.71,2.72,3.91,2.25,5.11-2.54,4.62-5.01-.63-3.35-3.84-11.88-9.23-13.22Z" style="fill:#f9af79; fill-rule:evenodd;"/><path d="M447.89,656.32s-13.82,13.53-20.37,32.64c0,0,12.97,11.28,37.25,13.53,0,0,9.98-18.33,2.68-27.63-7.26-9.27-19.56-18.54-19.56-18.54Z" style="fill:#466fb5; fill-rule:evenodd;"/><path d="M761.37,904.17c1.3-.42,5.71-1.48,10.82-3.24,5.29,2.18,12.23,1.55,20.83-1.83,3.31-5.21,3.59-10.57,.92-15.93-6.8,3.24-12.76,4.51-17.91,3.74,6.38-4.16,7.37-6.7,2.96-7.47-.42,.99-1.34,1.83-2.75,2.47-4.44,.71-7.61,3.67-9.52,9.02-2.36,.64-4.79,1.2-6.06,1.55,1.27,3.1,1.52,6.77,.7,11.7Z" style="fill:#fab688; fill-rule:evenodd;"/><path d="M640.51,770.94c-16.43-2.15-28.83-1.02-34.12,6.87,.67,4.79,2.12,11.03,4.34,18.75-.99,1.83-2.4,2.78-4.26,2.86-2.33-4.55-4.26-7.3-5.85-8.18-7.83,3.52-6.35,8.95,4.41,16.25,.63,2.5,1.23,4.58,1.83,6.24-9.69-2.15-17.8-10.82-18.93-14.59-11.28-22.24,1.3-31.65,8.03-35.04,2.96-22.06,35-2.57,51-13.22,6.38,8.81-1.48,19.84-6.45,20.05Z" style="fill:#20386f; fill-rule:evenodd;"/><path d="M589.83,870.83c10.33,12.34,18.96,21.36,25.98,26.86-6.38-22.7-13.22-47.09-20.48-73.17-2.61,2.11-4.65,4.3-6.2,6.49-.6,10.57-.7,18.61-.42,24.18,3.77,3.03,6.8,4.87,9.13,5.64-3.49,3.17-6.17,6.49-8,10.01Z" style="fill:#20386f; fill-rule:evenodd;"/><path d="M654.44,864.84c-5,11.07-10.64,21.15-16.88,30.24,1.83-27.7,2.78-50.97,2.78-70,2.82,1.62,4.9,3.1,6.45,4.79,.28,.28,.56,.7,.88,.99,2.93,10.58,4.86,18.89,5.75,24.88-2.78,1.27-5.14,2.4-7.01,3.31,2.57,1.69,5.25,3.66,8.03,5.78Z" style="fill:#20386f; fill-rule:evenodd;"/><path d="M589.12,831c-15.9,9.16-28.94,17.34-39.02,24.53-6.84,25.94-10.54,54-11.1,84.17,.92,34.68,4.37,59.78,8.46,73.31,5.99,.28,12.34-.28,14.7-2.54,1.3-30.59,1.62-55.27,.99-74.3,4.37-10.01,8.21-17.48,11.49-22.42,1.45,10.29,3.46,19.24,3.91,28.48-1.66,18.89-2.5,41.45-7.54,67.67,6.27,6.06,20.2,9.59,41.73,10.79,4.02-49.7,5.08-90.72,3.07-123.01-7.01-5.5-15.65-14.52-25.98-26.86,1.83-3.52,4.51-6.84,8-10.01-2.33-.77-5.36-2.61-9.13-5.64-.28-5.57-.18-13.6,.42-24.18Z" style="fill:#223f81; fill-rule:evenodd;"/><path d="M637.55,895.08c6.13,65.91,8.74,108.63,12.37,123.57,10.33-1.2,18.29-6.06,23.09-10.85-1.3-37.43-5.67-61.33-7.51-83.25,3.31-36.02,10.15-69.01,2.78-84.38-7.9-5.36-14.77-8.46-20.62-9.31,2.93,10.58,4.86,18.89,5.75,24.88-2.78,1.27-5.14,2.33-7.01,3.31,2.57,1.69,5.25,3.66,8.03,5.78-5,11.07-10.64,21.15-16.88,30.24Z" style="fill:#223f81; fill-rule:evenodd;"/><path d="M677.63,850.88c-2.96-3.67-6.06-7.19-9.34-10.71,5.11,10.64,3.42,29.75,.74,52.52,5.15,6.41,16.25,17.76,25.69,24.88,19.46,1.13,40.32-3.45,72.43-13.11,1.3-3.38,.88-8.88-.42-13.54-31.26,1.83-50.4,1.48-62.95,4.72-8.11-20.23-18.43-32.28-26.15-44.76Z" style="fill:#223f81; fill-rule:evenodd;"/><path d="M615.66,841.36c-5.67-7.4-10.36-14.24-15.54-18.47,.56-2.26,.92-3.95,1.55-5.68,.28-.77,2.04-1.76,4.37-2.18-.21,.35-.67,1.94-.28,2.18,.07,.07,.18,.14,.28,.21,5.46,4.44,11.24,8.21,18.36,11.6-3.38,3.95-5.74,8.1-8.74,12.33Z" style="fill:#c4d1eb; fill-rule:evenodd;"/><path d="M637.91,824.87c.14,4.86,.04,8.81-.35,11.91-1.16-3.52-3.31-6.49-6.45-8.74-.46-4.05-.81-7.86-.95-11.42,3.42,1.27,5.99,4.02,7.75,8.25Z" style="fill:#c4d1eb; fill-rule:evenodd;"/><path d="M644.67,975.94c-1.87-20.8-4.05-47.93-7.12-80.86,1.8-27.14,2.75-50.19,2.78-69.01-.74-.28-1.55-.5-2.43-.7,.14,4.65,0,8.46-.35,11.42-1.16-3.52-3.31-6.49-6.45-8.74-.95,1.9-1.27,3.95-2.82,6.2-1.69-1.69-3.28-3.38-4.34-4.65-3.14,3.8-5.43,7.75-8.28,11.77-5.6-7.4-10.29-14.1-15.37-18.33-1.76,.92-3.31,1.76-4.69,2.61,7.16,25.66,13.89,49.7,20.2,72.04,1.38,22.28,1.3,48.64-.18,79.09,2.54,.42,5.11,.7,7.75,.77v-.21c0-.63,.53-1.13,1.13-1.13l10.89-.35c.6-.07,1.13,.49,1.13,1.06v.21c2.64-.28,5.36-.63,8.14-1.2Z" style="fill:#fff; fill-rule:evenodd;"/><path d="M634.98,839.75c-1.94-3.1-4.16-4.94-6.7-5.5-1.9,.85-3.95,2.82-6.1,5.78,1.69,2.96,3.46,5,5.36,6.13-3.52,22.49-5.21,53.72-4.9,93.76,2.68,5.99,5.32,10.29,7.93,12.9,3.14-4.58,5.08-9.3,5.82-14.24-2.47-42.01-3.95-72.75-4.41-92.06,1.76-2.33,2.79-4.58,3-6.77Z" style="fill:#6d96ce; fill-rule:evenodd;"/><path d="M622.18,831.85c-1.27,1.69-2.36,3.38-3.52,5.08,1.02,.7,2.36,1.55,4.02,2.46,1.44-1.9,2.82-3.31,4.16-4.3-1.59-1.13-3.14-2.26-4.65-3.24h0Zm10.29-2.68c-.6,2.04-1.41,3.95-2.47,5.78,1.45,.63,2.79,1.83,3.98,3.38,.7-.99,1.27-2.82,1.73-5.43-.88-1.41-1.97-2.61-3.24-3.74Z" style="fill:#466fb5; fill-rule:evenodd;"/><path d="M669.8,1135.18c.14-33.7-1.02-73.39-3.42-118.99-4.55,2.68-10.33,4.72-17.76,6.34-1.8-4.72-3.42-15.86-5.85-36.37-2.05,.56-4.13,.99-6.24,1.34v1.13c0,.63-.53,1.13-1.13,1.13l-10.89,.28c-.6,.07-1.13-.42-1.13-.99v-.85c-1.97-.14-3.95-.28-5.96-.56-1.13,17.27-1.59,28.76-2.47,37.22-17.87-2.26-28.62-4.23-37.25-7.75-4.41,33.91-6.84,70.49-7.33,109.83-7.3,15.65-9.3,54-5.99,114.9,6.24,1.41,13.29,1.41,21.18,0,6.24-27.35,11.67-63.44,16.25-108.21,6.49-21.36,13.18-51.53,20.13-90.3,1.41,26.29,5.18,56.11,11.31,89.24-2.08,24.53,1.52,60.62,10.75,108.14,4.86,.42,12.51-.28,22.95-2.12-1.06-38.63-.11-73.1,2.86-103.41Z" style="fill:#223f81; fill-rule:evenodd;"/><path d="M614.96,1024.86c.88-8.46,1.34-19.95,2.47-37.22-.81-.07-1.59-.14-2.36-.28-.6,10.58-1.38,21.71-2.33,33.35-15.51-.85-27.07-2.96-34.68-6.28-.11,.85-.21,1.76-.35,2.68,8.63,3.52,19.38,5.5,37.25,7.75h0Zm33.66-2.33c7.44-1.62,13.22-3.66,17.76-6.34-.03-1.06-.11-2.05-.18-3.1-4.37,2.68-9.87,4.8-16.28,5.57-1.51-6.34-2.85-17.48-4.37-33.27-.92,.28-1.83,.56-2.78,.78,2.43,20.51,4.05,31.65,5.85,36.37Z" style="fill:#0e2952; fill-rule:evenodd;"/><path d="M563.71,1252.13c.99,.92,1.3,.64,2.01,.14,1.16-6.27,13.04-7.05,16-.56,.85-.35,1.48-.92,1.83-1.69,2.08,4.09,6.77,8.11,5.53,15.23-3.17,4.51-19.42,6.77-27.1-2.54-2.19-3.53,.49-8.04,1.73-10.58h0Zm81.91-6.98c-1.97,5.43-2.43,9.8-.07,11.56,5.96,1.2,18.19,1.05,37.08,3.52,13.32-.91,19.07-4.72,15.72-8.95-11.6,.71-22.03-2.33-31.37-9.02-1.73,7.05-8.85,7.97-21.36,2.89Z" style="fill:#20386f; fill-rule:evenodd;"/><path d="M564.91,1241.97c-.32,3.81-.63,7.19-.95,10.29,.81,.7,1.13,.42,1.76,0,1.16-6.27,13.04-7.05,16-.56h.03v-.07h.1v-.07h.21v-.07h.07l.04-.07h.14l.07-.07h0l.04-.07h.14v-.07h.03l.03-.07h.11l.03-.07h0l.03-.07h0c-.53-2.46-.99-5.36-1.34-8.53-6.03,.71-11.56,.49-16.57-.5h0Zm99.92-3.03c.46,1.69,1.06,3.17,1.83,4.37-.07,.21-.14,.35-.21,.56-.35,.78-.81,1.48-1.31,2.04h0c-.18,.14-.39,.35-.56,.56h0c-.07,0-.14,.07-.21,.14h0c-.67,.56-1.44,.99-2.33,1.27h-.32c-.07,.07-.18,.14-.25,.14h-.32c-.1,.07-.18,.14-.25,.14h-.35c-.92,.14-1.9,.21-2.96,.14h-.81l-.32-.14h-.88c-.88-.21-1.8-.42-2.82-.63h-.11l-.39-.07-.03-.07-.35-.07h-.14l-.35-.14h-.11l-.35-.14h-.14l-.39-.14h-.07l-.39-.14-.11-.07-.39-.14-.11-.07-.42-.07-.11-.07-.39-.14-.53-.14c-.32-.14-.63-.28-.99-.42h-.03l-.53-.14c.04-1.55-.07-3.1-.25-4.72,4.48,.14,10.71-.49,18.71-1.83Z" style="fill:#fab688; fill-rule:evenodd;"/><path d="M671.53,856.38c.39,10.01-.88,22.48-2.5,36.3,5.15,6.41,16.25,17.76,25.69,24.88,19.46,1.13,40.32-3.45,72.43-13.11-23.33,5.22-47.23,8.32-71.62,9.3-4.93-3.52-12.51-11-22.77-22.42,.32-8.74-.1-20.44-1.23-34.96Z" style="fill:#0e2952; fill-rule:evenodd;"/><path d="M581.09,941.39c-1.13-13.95-2.18-26.08-3.21-36.16-.67,2.89-1.76,5.71-3.24,8.53,1.45,10.29,3.46,19.24,3.91,28.48-1.66,18.89-2.5,41.45-7.54,67.67,.56,.56,1.2,1.06,1.9,1.55,4.09-16.14,6.84-39.48,8.18-70.07Z" style="fill:#0e2952; fill-rule:evenodd;"/><path d="M615.07,987.35c10.82,1.69,21.01,.99,30.49-1.97-.28-2.96-.6-6.2-.88-9.44-10.43,1.97-20.13,2.26-29.04,.85-.18,3.52-.35,7.05-.56,10.57Z" style="fill:#9c7357; fill-rule:evenodd;"/><path d="M624.51,976.22l10.89-.35c.6-.07,1.13,.49,1.13,1.06v11.7c0,.63-.53,1.13-1.13,1.13l-10.89,.28c-.6,.07-1.13-.42-1.13-.99v-11.7c0-.63,.53-1.13,1.13-1.13Z" style="fill:#fff; fill-rule:evenodd;"/><polygon points="625.57 978.26 625.57 987.92 634.35 987.71 634.35 978.05 625.57 978.26" style="fill:#9c7357; fill-rule:evenodd;"/><path d="M593.07,825.22c.42,.07,.88,.07,1.3,.07l-.39,.35-.92-.42h0Zm2.43,0h.78c-.21,.14-.46,.28-.67,.42l-.11-.42h0Zm9.98-8.21c5.32,4.33,10.89,8.07,17.62,11.45,.42,.14,.85,.42,1.3,.56-.18,.21-.32,.42-.46,.56,.92,1.13,2.26,2.54,3.7,4.02,.46-.07,.92-.28,1.34-.49,.95-1.83,1.3-3.52,2.11-5.08-.11-.85-.21-1.76-.28-2.68-.11-1.02-.46-4.87-.64-5.89,.56-.03,1.09-.07,1.59-.14,.63-.07,1.38-.18,2.22-.35v.03c6.62-1.23,9.37-4.65,8.25-10.18,2.68-11.42,3.03-21.36,.14-24-.49-4.9-1.13-9.52-1.87-13.89-16.43-2.15-28.83-1.02-34.12,6.87,.67,4.79,2.12,11.03,4.34,18.75-.99,1.83-2.4,2.78-4.26,2.86-2.33-4.55-4.26-7.3-5.85-8.18-7.83,3.52-6.35,8.95,4.41,16.25,.63,2.5,1.23,4.58,1.83,6.24-.28,.92-.74,2.05-1.38,3.28Z" style="fill:#fab688; fill-rule:evenodd;"/><path d="M630.19,819.48c-2.93,.28-6.2,.18-9.87-.28,3.49,2.29,6.91,3.95,10.36,4.94-.07-.67-.14-1.38-.18-2.01-.11-1.13-.21-2.19-.32-2.64Z" style="fill:#ed7d57; fill-rule:evenodd;"/><polygon points="606.71 1040.08 602.27 1143.57 489.41 1131.72 502.77 1040.08 606.71 1040.08" style="fill:#e5bb9a; fill-rule:evenodd;"/><path d="M621.06,1130.88c-9.06,3.31-14.34,7.89-18.79,12.69l4.44-103.48,5.08-.14,9.27,90.93Z" style="fill:#9c7357; fill-rule:evenodd;"/><path d="M606.71,1040.08l-13.11,41.59c-1.9,4.51-3.84,8.6-11.46,7.9l-72.47-4.51c-6.45-.42-6.62-3.67-6.66-8.18v-36.8h103.7Z" style="fill:#9c7357; fill-rule:evenodd;"/><path d="M554.44,1082.24l-18.43-1.2c-1.02-.07-2.01,.63-2.18,1.69l-2.5,16.35c-.14,.99,.49,1.9,1.48,2.04l19.17,1.9c.99,.07,2.08-.64,2.15-1.62l1.8-17.13c.11-1.06-.46-1.97-1.48-2.04Z" style="fill:#fff; fill-rule:evenodd;"/><polygon points="551.02 1086.61 549.86 1098.17 536.33 1096.83 538.02 1085.76 551.02 1086.61" style="fill:#9c7357; fill-rule:evenodd;"/><path d="M585.07,1040.08c-1.13-3.95-3.77-7.33-7.33-9.94-1.55-1.13-3.24-2.11-5.11-2.96-1.06-2.82-7.61-5.21-15.61-5.5-8.46-.35-15.51,1.76-16.18,4.79-.56,.21-1.06,.49-1.59,.7-5.32,2.75-9.27,6.98-10.57,12.9h3.91c1.23-4.3,4.34-7.47,8.39-9.59,.53-.28,1.09-.49,1.66-.7,2.68,1.83,7.9,3.24,13.92,3.52,6.34,.21,11.88-.85,14.56-2.75,1.59,.78,3.07,1.62,4.41,2.61,2.57,1.83,4.51,4.16,5.57,6.91h3.98Z" style="fill:#9c7357; fill-rule:evenodd;"/><path d="M566.6,1026.34c.03,2.46,.92,6.27-.67,7.96-4.12,4.79-14.31,5.08-18.72,2.04-1.87-1.27-2.11-5.57-2.15-8.25,2.26-5.78,3.49-11.07,3.67-15.93,4.44-2.96,11.17-3.24,13.43-1.69l4.44,15.86Z" style="fill:#fab688; fill-rule:evenodd;"/><path d="M1445.05,1052.56c3.53-9.66,7.05-19.24,17.9-25.45,8.81-4.93,18.4-4.79,26.93-.7,24.18,11.7,13.25,32.99,29.04,55.48,6.62,9.51,16.71,14.45,21.71,24.53,9.16,18.19,1.2,47.72-23.19,64.36-59.71,40.74-92.56-31.93-92.7-47.65-.14-11.56,17.98-64.36,20.3-70.57Z" style="fill:#20386f; fill-rule:evenodd;"/><path d="M1368.35,1236.41c7.05-2.19,7.19-.92,8.03-1.2,1.13-.42,10.43-12.48,10.43-12.48,0,0,27.63-35.32,29.05-37.29l11.14-45.26,23.83-.56s-13.4,48.92-14.52,51.32c-1.2,2.4-44.06,45.68-47.72,49.63,0,0-2.61,6.35-4.44,10.29-1.76,3.95-5.14,6.84-5.85,7.89-.07,.14-2.47,3.38-6.55,6.62-3.53,2.75-1.48-1.48-1.48-1.48,0,0,5.57-6.34,5-6.7-.42-.28-3.24,3.38-7.12,6.49-.99,.78-1.97,1.55-2.89,2.26-2.4,1.9-4.23,.99-1.97-1.41,.7-.85,2.04-2.18,3.1-3.03,1.13-.92,1.9-2.12,2.82-3.03,1.69-1.83,2.89-3.1,2.82-3.1-.14,0-.07-.63-1.13,.14-1.34,.99-3.6,3.67-5.64,5.01-1.13,.78-3.38,2.47-3.38,2.47,0,0-4.02,2.26-4.23,2.11-.99-1.13,1.41-3.59,3.1-4.37,.78-1.13,3.24-2.75,3.24-2.75,0,0,4.23-4.58,3.53-5.21-.49-.49-12.62,8.46-13.6,7.33-.78-.92,2.75-3.74,2.75-3.74,0,0,2.33-1.62,3.03-2.18,.78-.71,3.17-2.89,3.17-2.89,0,0,7.9-8.18,7.19-8.74-.63-.56-2.82-1.2-3.53-.85-.63,.28-1.55,1.55-2.18,1.83-.64,.42-1.77,.28-2.33-.56-.42-.78,2.12-3.6,2.12-3.6,0,0,2.11-2.33,4.23-2.96Z" style="fill:#f9af79; fill-rule:evenodd;"/><path d="M1500.59,1172.33c1.76-1.48,25.24-21.85,35.74-31.02,0,0-10.5-7.75-16.99,3.67-6.41,11.42-18.75,27.35-18.75,27.35Z" style="fill:#233761; fill-rule:evenodd;"/><path d="M1463.44,1173.81s2.54,8.95,15.02,24.46c14.45-.21-15.02-24.46-15.02-24.46Z" style="fill:#233761; fill-rule:evenodd;"/><path d="M1402.75,1411.65c4.02,10.15,24.39,31.09,45.4,50.83,25.1,23.69,51.04,45.61,51.04,45.61,0,0,11.84,3.6,6.62-13.82,0,0-28.55-52.58-40.88-68.17-3.53-4.37-7.12-8.46-10.51-11.98-8.53-8.81-15.58-14.31-15.58-14.31,0,0,1.69-2.61,4.23-7.05,12.83-21.92,49.49-88.89,38.14-118.64-13.6-35.81-47.51-51.88-47.51-51.88,0,0-10.79,45.26-19.81,91.92-8.32,42.86-15.23,86.85-11.14,97.49Z" style="fill:#223f81; fill-rule:evenodd;"/><path d="M1413.89,1314.16c6.2,28.62,17.06,69.23,29.19,78.6,12.83-21.92,49.49-88.89,38.14-118.64-13.6-35.81-47.51-51.88-47.51-51.88,0,0-10.79,45.26-19.81,91.92Z" style="fill:#20386f; fill-rule:evenodd;"/><path d="M1448.15,1462.48c25.1,23.69,51.04,45.61,51.04,45.61,0,0,11.84,3.6,6.62-13.82,0,0-28.55-52.58-40.88-68.17-3.53-4.37-7.12-8.46-10.51-11.98,.42,13.46,0,36.23-6.27,48.36Z" style="fill:#20386f; fill-rule:evenodd;"/><path d="M1442.23,1240.14l2.4-8.74c16.63,7.26,65.7-3.31,65.7-3.31,0,0,14.59,17.27,7.05,52.45-3.67,17.13-16.64,90.37-21.99,111.8-1.83,7.82-3.38,13.32-3.95,15.51h0c-.21,.63-.07,1.34,.14,2.04,2.25,5.57,4.02,11.28,5.21,17.06,12.13,56.82-21.07,119.55-21.07,119.55l-5.71-3.31s-2.19-75.71-8.04-109.9c-.99-5.78-2.11-10.43-3.38-13.25-3.53-8.25-6.06-21.29-7.75-36.51-3.31-28.9-3.88-65.91-3.67-94.46-.56,0-4.93-48.92-4.93-48.92Z" style="fill:#223f81; fill-rule:evenodd;"/><path d="M1517.51,1249.45c6.77-10.29-16.49-52.17-15.65-56.11,1.55-7.83,5.36-16.42,9.17-24.18,3.74-7.75,7.47-14.66,8.74-18.96-1.2-1.69-2.39-3.24-3.52-4.79-1.62-2.26-3.11-4.37-3.95-6.35-1.13-2.11-1.55-4.09-.99-6.06,.35-1.41,.85-2.89,1.48-4.37,.28-.63,.64-1.27,.92-1.97,3.46-6.91,8.6-12.55,8.6-12.55-8.18-5.22-21.01-7.9-21.15-7.54-.99-.35-1.83-.49-2.54-.7-.42-.07-.92-.21-1.41-.35-1.62-.42-3.24-.7-4.65-.99-2.96-2.96-6.49-13.89-5.36-30.03l-1.48,.21-23.9,3.24s.14,7.47-.28,14.45c-.29,5.5-.99,10.65-2.12,11.77-1.83,.14-2.96,.21-2.96,.21v.07l-.07,.07c-1.34,.07-2.61,.21-3.74,.28,0,0-.07,.07-.28,.07-2.11,.21-3.8,.49-5.22,.78h-.28c-4.09,.78-5.5,1.48-5.5,1.48v.07c.28,7.47-11.91,20.73-11.07,37.64,.07,.7,6.27,45.25,6.13,45.89-.42,12.69-6.62,48.43-6.62,48.43-5.71,11.07,84.03,20.87,87.69,10.29Z" style="fill:#f9af79; fill-rule:evenodd;"/><path d="M1461.82,1077.94s.14,7.47-.28,14.45c13.25,.42,20.87-11.14,24.18-17.62l-23.9,3.17Z" style="fill:#ed9760; fill-rule:evenodd;"/><path d="M1457.03,1084.35s31.16,2.4,32.42-17.06c1.2-19.46,6.06-32.22-13.81-34.54-19.88-2.39-24.18,4.79-26.15,11.14-1.97,6.34-.49,39.26,7.54,40.46Z" style="fill:#f9af79; fill-rule:evenodd;"/><path d="M1451.11,1033.18c5.15-5.57,8.74-4.09,10.65-2.19,17.62-8.32,27.7,6.2,27.7,6.2,1.27,14.03,10.86,22.7,10.86,22.7,0,0-5.92,3.17-18.82-1.05-3.88-1.27-7.26-4.37-10.15-7.97,4.72,9.24,11.63,16.08,11.63,16.08-15.23-8.18-20.16-30.38-20.73-32.71-1.97,1.62-5.92,5.08-7.33,8.67-1.83,4.79-3.17,14.94-6.13,14.45,0,0-5.5-15.86,2.33-24.18Z" style="fill:#20386f; fill-rule:evenodd;"/><path d="M1438.49,1548.34h48.36s1.77-7.76-1.34-12.97c-2.82-4.65-1.13-7.76,.14-11.7-2.26,.85-4.79,2.26-7.96,2.12-2.47-.14-6.13-1.97-8.39-3.25-2.11,2.4-9.8,13.18-12.55,15.23-3.24,2.26-17.34,1.41-18.25,10.58Z" style="fill:#0e2952; fill-rule:evenodd;"/><path d="M1510.32,1547.21l18.26-44.83s-6.49-4.58-12.55-3.67c-5.36,.92-7.4-1.13-10.22-4.44,.07,2.33-.28,5.29-1.55,8.11-1.13,2.19-3.03,4.16-5.08,5.71,1.41,2.82,7.4,14.87,8.18,18.26,.99,3.74-5.08,16.49,2.96,20.87Z" style="fill:#0e2952; fill-rule:evenodd;"/><path d="M1436.45,1190.73c.07-.35-1.83-14.38-3.52-26.79-3.74-.42-8.32-1.34-12.27-3.17,.29-5.36,3.88-51.81,23.41-54.42,.92-.28,1.83-.49,2.82-.7h.28c2.4-.42,4.51-.71,5.22-.78,.21,0,.28-.07,.28-.07,0,0-5.78,16.57-5.64,18.47,0,1.97,18.75,2.61,31.02,2.82,12.19,.14,19.04-20.3,19.17-20.58,.49,.14,.99,.28,1.41,.35,.71,.21,17.06,2.68,23.69,8.25,0,0-5.15,5.64-8.6,12.55-.28,.71-.63,1.34-.92,1.97-.63,1.48-1.13,2.96-1.48,4.37-.56,1.97-.14,3.95,.99,6.06,.84,1.97,2.33,4.09,3.95,6.35,1.13,1.55,2.33,3.1,3.52,4.79-.42,1.48-1.2,3.24-2.12,5.29h0c-1.69,3.87-4.16,8.6-6.62,13.67-3.8,7.76-7.61,16.42-9.17,24.18-.84,3.95,22.42,45.82,15.65,56.11-1.13,3.1-9.73,4.44-21.15,4.51-27.21,.14-70.56-7.05-66.54-14.81,0,0,6.2-35.74,6.62-48.43Z" style="fill:#6d96ce; fill-rule:evenodd;"/><path d="M1496.37,1253.96c11.42-.07,20.02-1.41,21.15-4.51,6.77-10.29-16.49-52.17-15.65-56.11,1.55-7.76,5.36-16.42,9.17-24.18,2.47-5.08,4.93-9.8,6.62-13.67h0c-.92-3.81-1.55-5.99-1.55-5.99,0,0-24.67,28.76-30.38,42.37-4.44,10.64,5.99,46.88,10.65,62.1Z" style="fill:#466fb5; fill-rule:evenodd;"/><path d="M1508.14,1234.43l4.86,8.53c31.51-12.55,51.6-40.6,51.6-40.6,1.06-15.93-6.42-34.26-15.37-50.05-1.48-2.68-2.96-5.21-4.51-7.68-6.34,5.43-15.15,12.48-23.54,17.62,1.27,2.18,2.82,4.72,4.51,7.54,7.05,11.49,16.07,26.22,17.2,27.42,1.97,1.9-34.75,37.22-34.75,37.22Z" style="fill:#f9af79; fill-rule:evenodd;"/><path d="M1524.42,1173.25c15.51-1.06,26.93-21.22,26.93-21.22-12.12-21.36-29.04-37.92-29.04-37.92-42.86,16.35-4.93,54.49,2.11,59.14Z" style="fill:#6d96ce; fill-rule:evenodd;"/><path d="M1508.14,1234.43s-2.61-.35-4.37-1.9c-1.76-1.48-7.26-5.78-7.54-4.44-.28,1.34,3.95,3.38,1.69,3.74-2.26,.28-5.78-1.27-9.3-.7-3.6,.56-9.02,8.74-7.4,9.73,1.69,.99,7.83-2.26,9.52-1.13,1.55,1.13,13.11,7.47,22.28,3.24,9.23-4.23-4.86-8.53-4.86-8.53Z" style="fill:#f9af79; fill-rule:evenodd;"/><path d="M1305.54,1104.65c-2.75,.21-5.29-3.17-6.06-4.23-2.89-3.8-4.72-8.32-5.43-10.85,.56-1.69,1.13-3.74,1.76-6.35,10.36-7.4,11.84-12.9,4.23-16.49-1.48,.99-3.46,3.67-5.64,8.32-1.84,0-3.17-.99-4.16-2.89,2.19-7.83,3.52-14.17,4.23-19.03-5.15-8.04-17.2-9.16-33.06-6.98-.78,4.37-1.34,9.16-1.76,14.1-2.82,2.68-2.46,12.76,.14,24.39-1.34,6.63,2.54,10.22,11.63,10.86,.07,1.55-.07,3.38-.07,4.51,0,.99-.07,2.96-1.13,3.24l-1.62,.49c.14,23.62,11.63,28.13,36.94,.92Z" style="fill:#f9af79; fill-rule:evenodd;"/><path d="M1261.41,1046.15c15.86-2.26,27.92-1.06,33.06,6.98-.63,4.87-2.04,11.21-4.23,19.03,.99,1.9,2.33,2.89,4.16,2.89,2.18-4.65,4.16-7.33,5.71-8.32,7.54,3.6,6.06,9.09-4.3,16.49-.64,2.61-1.2,4.65-1.76,6.35,9.38-2.12,17.2-11,18.33-14.81,10.93-22.56-1.27-32.14-7.75-35.67-2.96-22.42-34.05-2.96-42.23-16.64-17.13,10.22-5.78,23.4-.99,23.69Z" style="fill:#20386f; fill-rule:evenodd;"/><path d="M1281.86,1093.17c-2.54,1.34-5.99,2.04-10.43,2.33,.07,1.55,0,3.38-.07,4.51,4.44-.99,7.89-3.24,10.5-6.84Z" style="fill:#ed7d57; fill-rule:evenodd;"/><path d="M1324.5,1546.93c9.87-3.67,10.71-9.02,16-11.56,5.36-2.68,5.99-7.33,.78-12.41-3.95,3.24-8.74,7.19-11.28,5.15-1.69-1.48-7.47-1.34-8.6,.71-5,12.26-11.98,8.39-13.39,13.96-.14,7.4,11.98,5.85,16.49,4.16Z" style="fill:#0e2952; fill-rule:evenodd;"/><path d="M1238.93,1534.8c17.34-.28,30.38-.56,36.37-2.54,6.49-2.11,5.21-6.27,1.41-12.97-16.35,7.96-11.99-1.55-19.67-.42-5.43,4.65-13.32,7.61-23.9,9.16-4.51,3.52-2.68,6.63,5.78,6.77Z" style="fill:#0e2952; fill-rule:evenodd;"/><path d="M1247.6,1107.34c8.67-2.68,16.49-4.23,23.4-4.79,1.2,20.02,11.21,19.88,29.82-.42,18.05,1.55,21.5,1.83,31.44,5.22,21.57,21.57,23.62,46.53,34.82,75.07-12.41,.56-18.05,2.19-26.5,5.29-1.83-6.77-3.38-12.27-4.58-16.5,.35,37.65,.49,63.44,.35,77.33-41.24,17.13-75.29,11.28-89.1-2.12-.21-33.41-.49-59.85-.85-79.37-4.93,6.13-9.44,10.85-13.67,14.17-10.15-12.12-17.06-17.06-22.77-24.25,12.76-21.85,30.95-42.23,37.64-49.63Z" style="fill:#6d96ce; fill-rule:evenodd;"/><path d="M1164.42,1143.92c21.64,9.51,36.86,17.27,45.54,23.47l3.88-5.99c3.6,3.74,7.68,7.4,12.69,12.83-4.65,5.08-9.59,9.24-15.37,12.76-15.08-1.69-31.72-13.67-49.91-35.95-5.78-1.13-9.87-3.31-12.55-6.41-.14-2.89,1.2-5.71,4.09-8.67-7.54-5.14-10.57-8.88-9.02-11.14,11.84,7.75,18.75,14.1,20.66,19.1Z" style="fill:#f9af79; fill-rule:evenodd;"/><path d="M1247.24,1246.42c.78,3.31-2.61,22.35-3.1,32.36-5.5,35.53-.85,81.77,2.12,141.27,5.29,21.01,13.11,48.92,12.55,88.26,9.24,2.96,12.55,3.31,20.87,1.06,5.85-41.03,1.83-73.95-3.38-89.03,3.38-23.55,8.39-49.77,15.72-87.69,8.25,41.31,19.24,71.9,24.04,91.92,.85,22.28,5.22,52.38,7.47,90.23,6.77,2.19,11.07,2.82,18.19,1.9,9.17-34.76,7.61-72.68,3.74-113.63-4.16-49.2,2.68-104.82-4.16-124.07-3.53-11.42-3.95-21.57-4.94-30.45-34.4,12.05-64.15,11.35-89.1-2.12Z" style="fill:#466fb5; fill-rule:evenodd;"/><path d="M1330,1210.32c2.26,.35,4.37,.63,6.34,.91,0,16.64,.07,29.04,0,37.29-1.9,.92-4.65,1.97-6.77,2.26,0-1.06,.28-3.53,.28-4.58,.14-12.69,.21-24.67,.14-35.88h0Zm-100.88-33.2c6.06-5.36,11.84-13.96,17.34-25.94-.64,4.23-.92,9.73-.78,16.78-4.65,5.64-9.02,10.15-12.97,13.25-1.27-1.41-2.47-2.82-3.6-4.09h0Zm99.18-32.35c2.68,9.02,5.21,17.83,7.68,26.43,.07,7.33,.07,14.1,.14,20.51-1.76-.21-3.81-.35-6.28-.35-.28-17.62-.77-33.13-1.55-46.59Z" style="fill:#466fb5; fill-rule:evenodd;"/><path d="M1362.92,1182.62c1.97,8.39,2.75,16.07,1.2,26.22-4.94,7.47-24.67,3.24-75.71-5.64-1.76,1.69-5.57,3.45-11.28,2.68-5.36-1.41-5.64-2.82-11.56-8.74-1.48-4.65-1.13-8.18,.85-10.57,6.77,4.16,10.29,6.34,17.91,6.62-2.04-5.5-2.4-8.95-.99-10.57,2.68,2.19,4.37,5.5,5.08,9.87,40.18-1.83,50.83-1.62,56.11,1.34-.56-2.68-1.05-5.01-1.55-6.98,6.34-2.26,11.42-3.53,19.95-4.23Z" style="fill:#f9af79; fill-rule:evenodd;"/><path d="M1275.58,1510.34c-.42,3.6-.42,6.77-.14,9.66-13.74,6.2-11.42-.99-16.92-1.2,1.41-2.54,2.26-5.78,2.68-9.73,5.99,1.76,9.44,2.18,14.38,1.27h0Zm63.94,6.56c0,2.68,.21,4.94,.7,6.91-3.67,3.03-7.9,6.2-10.22,4.3-1.13-.92-3.95-1.2-6.13-.77,.92-3.1,1.62-7.05,2.12-11.77,4.79,1.34,8.53,1.76,13.54,1.34Z" style="fill:#f9af79; fill-rule:evenodd;"/><path d="M1244.14,1278.77c24.18,23.69,56.54,23.76,97.14,.21,6.84,19.24,0,74.86,4.16,124.07,3.88,40.96,5.43,78.88-3.74,113.63-.77,.07-1.55,.21-2.18,.21-5.01,.42-8.74,0-13.54-1.34-.78-.21-1.62-.5-2.47-.78-2.26-37.85-6.63-67.96-7.47-90.23-4.79-20.02-15.79-50.61-24.04-91.92-7.33,37.93-12.34,64.15-15.72,87.69,5.22,15.09,9.24,48,3.38,89.03-1.48,.42-2.82,.77-4.09,.99-4.94,.92-8.39,.5-14.38-1.27-.71-.21-1.55-.49-2.4-.78,.56-39.34-7.26-67.25-12.55-88.26-2.96-59.5-7.61-105.74-2.12-141.27Z" style="fill:#20386f; fill-rule:evenodd;"/><path d="M1282.35,1481.16c-8.88,2.54-16.92,3.31-24.25,2.33-.21-2.12-.42-4.09-.56-6.06,8.04,1.13,16.35,.56,24.95-1.69,0,1.83-.14,3.6-.14,5.43h0Zm64.57,7.12c-9.66,1.13-18.19,.5-25.52-2.04-.21-2.12-.42-4.23-.56-6.27,8.32,2.82,17.2,3.81,26.58,2.96-.14,1.69-.35,3.52-.49,5.36h0Zm-24.32,13.25c-.14-2.12-.35-4.16-.49-6.2,7.47,2.12,15.3,2.82,23.54,2.12-.28,1.76-.56,3.52-.85,5.35-8.18,.99-15.65,.56-22.2-1.27h0Zm-64.08-11.56c7.47,1.27,15.23,1.13,23.26-.42-.07,1.76-.21,3.59-.42,5.43-8.25,1.83-15.79,2.18-22.63,.99-.07-2.04-.14-4.02-.21-5.99Z" style="fill:#0e2952; fill-rule:evenodd;"/><path d="M774.73,1231.75c8.53,5.99,15.65,50.12,16.35,132.46,.92,30.87-4.48,71.9-11.39,125.62-5.67,2.47-13.96,2.82-20.3,2.47-8.78-66.76-10.22-109.47-3.67-126.96-8.53-21.43-15.65-43.78-21.11-66.61-3.77,31.65-8.25,56.75-13.39,75.36-11.42,29.75-28.3,68.66-50.72,116.88-5.18,.71-14.41-.84-19.77-4.37,7.83-58.93,22.8-103.2,36.9-117.86-13.39-75.29-2.22-114.55,14.41-137.6,29.71,4.51,55.48,4.16,72.68,.63Z" style="fill:#0e2952; fill-rule:evenodd;"/><path d="M681.65,1208.7c-22.21-86.14,2.01-117.51,49.56-117.86,3.17,8.32,8.78,16.92,16.85,25.66,3.35-6.41,6.98-11.28,10.89-14.59,4.16,2.75,8.39,7.05,12.58,12.9,.7-8.88-.11-16.64-2.54-23.12,17.13,1.2,43.81,9.73,80.08,25.45,19.91-6.56,44.9-13.89,73-19.88l.07,.07-.18,.49c2.22,2.26,4.83,7.96,5.64,12.48,.46-.14,.74-.21,1.06-.28l.46,1.34c-23.44,14.73-46.24,23.47-78.74,32.36-20.62-.21-41.45,.63-62.46-6.77-.28,61.89-4.65,87.69-13.18,94.81-8.18,1.69-18.33,2.61-29.92,2.68-.78,1.41-1.34,3.74-1.87,5.92-5.46-1.69-11.49-4.44-18.08-6.63l-1.8-.78c-18.22-7.33-30.8-14.87-41.41-24.25Z" style="fill:#223f81; fill-rule:evenodd;"/><path d="M798.7,1510.98c-16.95,.84-29.64,1.41-35.63-.07-6.45-1.62-5.36-5.57-2.11-11.91,6.34,2.04,12.72,1.55,19.17-1.62,5.5,3.88,13.46,6.28,23.86,7.05,4.55,2.89,2.96,5.92-5.29,6.56h0Zm-132.1,2.53c-9.41-2.68-17.55-4.51-20.9-6.91-4.51-3.1-2.08-6.98,2.5-11.77,5.5,3.88,11.74,5.14,18.82,4.02,5,7.12,21.22,4.09,22.8,9.02,2.01,9.02-18.93,6.84-23.23,5.64Z" style="fill:#0e2952; fill-rule:evenodd;"/><path d="M751.12,1202.36c1.59-24.25,3.49-53.72,5.43-90.37-2.08-.98-3.49-2.68-3.95-3.1,1.94-2.68,3.98-4.93,6.1-6.77,2.4,1.55,4.79,3.66,7.23,6.35-.74,.99-2.04,2.19-3.88,3.52,1.76,22.56,3.59,53.29,5.5,92.13-1.02,3.6-4.12,7.26-8.18,10.08-2.64-2.12-7.01-6.06-8.25-11.84Z" style="fill:#38308d; fill-rule:evenodd;"/><path d="M748.05,1116.5c-8.07-8.74-13.67-17.34-16.85-25.66,1.76-3.38,4.55-6.69,6.52-7.61,9.41,9.8,15.4,15.3,21.11,18.61,.03,0,.07,.07,.11,.07,.07-.21,.18-.5,.21-.78,1.52-5.22,3.74-11.21,4.69-17.2,2.71,1.97,3.67,4.79,5.15,7.75,2.43,6.49,3.24,14.24,2.54,23.12-1.8-2.54-3.59-4.65-5.36-6.62-2.4-2.54-4.79-4.65-7.23-6.27-2.11,1.83-4.16,4.09-6.1,6.77-1.66,2.33-3.24,4.86-4.79,7.82Z" style="fill:#466fb5; fill-rule:evenodd;"/><path d="M737.79,1083.23c1.48-1.76,2.71-4.23,3.7-7.19-.53-1.69-1.06-3.67-1.62-6.2-10.33-7.26-11.63-12.55-3.95-15.79,1.52,.85,3.35,3.59,5.53,8.03,1.8,0,3.21-.92,4.16-2.68-1.97-7.47-3.24-13.61-3.81-18.33,5.32-7.47,17.38-8.32,33.27-5.92,.67,4.23,1.16,8.74,1.55,13.54,2.75,2.68,2.19,12.26-.63,23.26,1.13,6.35-2.82,9.73-11.95,10.15l-.11,1.9c-.95,5.99-3.17,11.99-4.69,17.13l-.32,.78c-5.71-3.31-11.74-8.81-21.15-18.68Z" style="fill:#f9af79; fill-rule:evenodd;"/><path d="M775.08,1035.15c-15.89-2.4-27.95-1.55-33.27,5.92,.56,4.72,1.83,10.85,3.81,18.33-.95,1.76-2.36,2.68-4.16,2.68-2.19-4.44-4.02-7.19-5.53-8.03-7.68,3.24-6.38,8.53,3.95,15.79,.56,2.54,1.09,4.51,1.62,6.2-9.34-2.33-17.02-10.93-18.05-14.59-10.54-21.85,1.94-30.67,8.53-33.91,3.35-21.29,12.37-.71,28.16-10.71,5.99,8.74,19.77,18.25,14.94,18.33Z" style="fill:#1b2452; fill-rule:evenodd;"/><path d="M752.03,1080.55c2.93,.85,8.67,1.62,12.02,1.55l-.11,1.9c-.21,1.2-.42,2.33-.71,3.45h-.07c-5.22-1.83-8.95-4.09-11.14-6.91Z" style="fill:#ed7d57; fill-rule:evenodd;"/><path d="M765.11,1109.45c.39-.42,.74-.85,1.06-1.27-3.49-3.66-5.99-5.78-7.47-6.06-1.06,1.9-2.4,4.87-3.84,8.39-1.02-.78-1.73-1.55-2.01-1.83,1.87-2.61,3.81-4.79,5.85-6.56,1.94,1.55,4.09,4.02,6.42,7.33Z" style="fill:#1b2452; fill-rule:evenodd;"/><path d="M666.6,1491.1c-.74,2.54-1.02,5.22-.88,7.96-5.78,.71-11.03-.35-15.72-3.1,1.3-2.46,2.33-5.21,3-8.1,4.05,1.97,9.31,3.1,13.61,3.24h0Zm95.73,8.32c.28-2.4,.42-4.79,.35-7.05,4.44,.07,9.41-.29,13.64-1.34,.49,2.89,1.34,5.15,2.57,6.91-5.57,2.47-11.07,2.89-16.56,1.48Z" style="fill:#f9af79; fill-rule:evenodd;"/><path d="M921.96,1097.82c2.08-5.57,4.65-8.81,7.65-9.66,6.77-3.1,12.79-6.42,18.05-10.22,2.08,2.61,.42,5.28-5.04,8.03-2.29,1.27-3.91,2.47-4.97,3.74,5.68,2.68,8.46,6.06,8.28,10.15-.81,3.17-1.83,4.94-3.03,5.43-.6,.21-1.9,.63-3.14-.71-3.07,6.13-7.09,6.42-10.22,5.22-.88,.21-1.16,.28-1.94,.49-.81-4.51-3.42-10.22-5.64-12.48Z" style="fill:#f9af79; fill-rule:evenodd;"/><path d="M747.7,1169.93l-35.42,30.87c9.38,6.2,21.36,14.38,38.38,26.22-.67,.56-1.3,1.2-1.9,1.83-.46-.14-.92-.35-1.34-.56-.78,.85-1.52,1.69-2.22,2.54-.77,.99-1.44,2.19-1.8,3.6-.32,1.27-.42,2.75-.14,4.58-.1,.42-.21,.85-.32,1.34-4.41-1.34-9.16-3.46-14.31-5.29-11.84-4.37-24.5-10.29-35.56-17.62l-8.74,7.61c-1.62,1.41-1.8,3.95-.39,5.57l36.87,42.44c1.45,1.62,3.95,1.76,5.6,.35l63.37-55.05c1.62-1.41,1.83-3.88,.39-5.57l-36.87-42.44c-1.44-1.62-3.95-1.83-5.6-.42Z" style="fill:#d0a382; fill-rule:evenodd;"/><path d="M746.04,1167.68l-39.26,29.46c10.15,6.56,23.37,15.65,43.88,29.89-.67,.56-1.3,1.2-1.9,1.83-.46-.14-.92-.35-1.34-.56-.78,.85-1.52,1.69-2.22,2.54-.77,.99-1.44,2.19-1.8,3.6-.32,1.27-.42,2.75-.14,4.58-.1,.42-.21,.85-.32,1.34-4.41-1.34-9.16-3.46-14.31-5.29-14.35-5.29-29.89-12.83-42.33-22.56l-7.4,5.57c-1.73,1.34-2.08,3.81-.78,5.57l33.73,44.98c1.3,1.69,3.81,2.11,5.57,.78l67.15-50.4c1.73-1.27,2.08-3.81,.77-5.5l-33.73-44.97c-1.34-1.76-3.81-2.12-5.57-.85Z" style="fill:#eac5a7; fill-rule:evenodd;"/><path d="M771.24,1118.61c-1.87-3.17-3.98-6.35-6.13-9.17,.42-.42,.77-.85,1.06-1.27,1.76,1.97,3.56,4.09,5.32,6.62-.04,1.27-.14,2.54-.25,3.81h0Zm16.67,18.33c.07-3.6-.18-8.6-.85-15.16,1.52,7.12,4.51,12.97,8.99,17.62-2.71-.71-5.43-1.48-8.14-2.47h0Zm-39.86-20.45c1.55-2.96,3.14-5.5,4.79-7.82,.28,.28,.99,1.06,2.01,1.83-1.55,3.73-3.24,8.25-4.86,12.97-8.04-10.08-15.65-22.91-18.79-32.64,3.17,8.32,8.78,16.92,16.85,25.66h0Zm-41.27,80.64c-1.66-1.05-3.24-2.11-4.76-3.03,3.35-14.03,5.99-33.49,5.04-50.33,3.52,19.1,3.95,35.39,1.27,48.78l2.4,1.62h0l-3.95,2.96Z" style="fill:#0e2952; fill-rule:evenodd;"/><path d="M747.42,1228.3c5.11,2.11,9.8,4.51,14.1,7.19,3.81,6.48,4.72,9.45,2.93,13.04-3.98,5.08-10.36,5-10.96,1.41,1.76-1.84,1.23-4.37-.74-6.49-3,.7-4.97-.07-5.89-2.33-1.23-.28-2.36-.56-3.35-.85-1.02-4.65,.07-7.33,1.69-9.44,.7-.85,1.44-1.69,2.22-2.54Z" style="fill:#f9af79; fill-rule:evenodd;"/><path d="M777.52,1092.74c4.79,7.9,8.28,22.63,10.4,44.2-.14,31.72-1.37,53.93-3.67,69.08l-17.62-20.3-13.32-15.37s-.07-.07-.14-.14c-.21-.28-.46-.42-.7-.56l-.85-1.13c-1.34-1.76-3.81-2.12-5.57-.85l-35.32,26.5-2.4-1.62c2.47-12.34,2.33-27-.49-44.2,8.95-24.11,6.45-41.17-7.47-51.11,6.91-3.45,14.94-5.43,23.97-6.13,11.84,21.43,22.73,34.19,31.23,38.77,2.92,1.55,5.6,2.11,7.9,1.69,8.07-1.41,11.98-14.73,9.23-39.48,1.55,.14,3.17,.35,4.83,.63h0Zm6.52,130.62c-.18,2.26-.18,4.51,.03,6.91-2.68,.85-5.64,1.55-8.85,1.83-.18-.14-.35-.21-.49-.35,.6-.5,1.2-1.13,1.76-1.83l7.54-6.56Z" style="fill:#6d96ce; fill-rule:evenodd;"/><path d="M787.74,1151.6c-1.55,.35-3.24,.7-5.08,.99,1.2-9.87,1.52-19.74,1.02-29.68-.39-7.4-1.23-14.88-2.57-22.21-1.09-3.24-2.29-5.78-3.59-7.96-1.66-.28-3.28-.49-4.83-.63,.25,1.97,.42,4.02,.56,5.92,1.73,8.39,2.78,16.85,3.21,25.23,.53,10.15,.14,20.23-1.2,30.45-5.25,.56-11.21,.92-17.84,1.06-6.49,.07-13.61,0-21.43-.35-1.13-17.91-3.35-32.43-6.66-43.28-2.61-8.6-5.99-15.08-10.12-19.46-3.07,.42-5.96,.99-8.74,1.76l-.18,.28c4.97,2.75,8.99,9.23,12.12,19.53,3.1,10.15,5.18,23.82,6.27,40.88-6.31-.35-13.04-.85-20.2-1.41,.35,2.47,.63,4.93,.88,7.33,18.68,1.55,34.72,2.11,48.15,1.9,12.23-.21,22.24-1.2,30.1-2.89,.04-2.46,.07-4.93,.11-7.47Z" style="fill:#bec1c7; fill-rule:evenodd;"/><path d="M786.61,1182.2c-6.7,1.27-13.53,2.19-20.51,2.89l.53,.63,5.22,5.99c4.83-.56,9.59-1.2,14.24-2.04,.21-2.4,.39-4.79,.53-7.47h0Zm-65.38,4.09c-3.91-.14-7.86-.28-11.81-.56-.28,2.33-.63,4.65-1.09,6.84l.49,.35c1.13,.07,2.26,.14,3.35,.21l9.06-6.84Z" style="fill:#bec1c7; fill-rule:evenodd;"/><path d="M717.63,1033.88c22.98-7.68,42.61-10.22,58.9-7.75,.39,1.27,.35,2.54-.18,3.8-17.8-1.13-36.06,1.83-54.84,8.88-3.81,1.13-5.08-.56-3.88-4.94Z" style="fill:#466fb5; fill-rule:evenodd;"/><path d="M725.28,1037.55c16.14,7.76,32.64,9.45,46.98,5.85,12.51-3.52,13.78-7.12,4.09-13.46-16.6-.99-33.62,1.48-51.07,7.61Z" style="fill:#223f81; fill-rule:evenodd;"/><path d="M706.99,1029.93c.81,1.83,4.37,3.1,10.64,3.95,22.98-7.68,42.61-10.22,58.9-7.75,14.73-8.53,15.54-24.6,.11-30.31-26.57-7.33-71.23,26.22-69.65,34.12Z" style="fill:#223f81; fill-rule:evenodd;"/><path d="M763.1,1010.19c.35,4.79,1.52,10.08,6.77,11.42l.14,.07,.14-.07c5.25-1.34,6.45-6.63,6.73-11.42l.03-.42-.42-.14c-2.22-.42-4.23-1.27-6.27-2.19l-.21-.07-.21,.07c-2.05,.92-4.05,1.76-6.24,2.19l-.46,.14v.42Z" style="fill:#6d96ce; fill-rule:evenodd;"/></svg>