<?xml version="1.0" encoding="UTF-8"?><svg id="a" xmlns="http://www.w3.org/2000/svg" viewBox="0 0 2429.75 1198.22"><g><path d="M1154.19,1130.63c196.36,0,377.06,2.94,520.48,7.85,350.95-200.59,229.43-591.6,103.42-812.77C1602.71,17.9,1188.32-92.73,1016.91,152.86c-232.65,333.35-457.09,217.03-578.28,470.2-121.19,253.17,62.86,495.88,195.08,515.43,143.4-4.92,324.11-7.85,520.48-7.85h0ZM846.68,277.03c-89.83,68.37-238.4,121.35-287.74,48.66-36.86-54.3,8.54-156.19,97.48-233.44C745.28,15.07,864.35-31.66,929.24,25.18c77.02,67.45-13.38,199.2-82.55,251.85Z" style="fill:#e0e8f5; fill-rule:evenodd;"/><path d="M1426.43,110.04c210.84,46.98,345.01,240.88,358.15,334.49,5.4,38.41-4.6-51.48-112.16-133.34-96.12-73.15-170.96-86.71-285.31-95.55-80.82-6.25-165.45-16.18-159.43-64.38,4.74-38.07,62.63-71.55,198.75-41.23h0ZM875.1,31.61c36.3,2.18,58.39,31.99,59.91,66.36,.65,14.62-10.83-23.61-51.08-28.93-24.96-3.3-28.71,4.06-37.65-6.25-8.94-10.3-.45-32.94,28.82-31.18Z" style="fill:#fff; fill-rule:evenodd;"/></g><g><path d="M957.98,271.53c-20.28,6.06-38.66,21.18-43.82,40.34-11.58-4.56-24.54-7.13-36.46-3.56-11.92,3.57-22.19,14.63-21.66,27.06-10.62-2.27-21.45-4.55-32.26-3.5-10.36,1-21.67,5.8-27.84,14.58-1.93,2.74-3.12,6.17-2.49,9.46-8.31-5.64-19.38-6.95-29.16-5.82-5.64,.65-11.37,2.31-15.69,5.99-4.32,3.69-6.95,9.73-5.42,15.2,2.67,9.56,14.88,11.97,24.79,12.63,18.33,1.21,36.65,2.42,54.97,3.64,50.83,3.36,101.98,6.72,152.61,1.06,4.14-.47,8.97-1.48,10.68-5.28,1.58-3.52-.6-7.82-3.85-9.91-3.25-2.08-7.26-2.52-11.1-2.89,23.2,.03,46.4,.06,69.6,.09,18.56,.03,37.13,.05,55.7-.16,19.5-.22,39.43-.79,57.72-7.56,3.56-1.31,7.49-3.4,8.16-7.14,.65-3.59-2.28-7.05-5.72-8.28-3.44-1.23-7.21-.79-10.84-.34,9.23-.44,12.48-14.42,6.28-21.28-6.19-6.86-16.9-7.38-25.88-5.15-8.97,2.22-17.37,6.64-26.52,7.98-6.69-12.72-20.29-22.1-34.71-22.86-8.61-.46-38.94,4.94-41.49,15.79,4.86-20.68-9.54-43.03-29.56-50.16-11.07-3.95-23.9-3.56-36.04,.06Z" style="fill:#fff; fill-rule:evenodd;"/><path d="M795.95,346.45c-1.93,2.74-3.12,6.17-2.49,9.46-8.31-5.64-19.38-6.95-29.16-5.82-5.64,.65-11.37,2.31-15.69,5.99-4.32,3.69-6.95,9.73-5.42,15.2,2.67,9.56,14.88,11.97,24.79,12.63,18.33,1.21,36.65,2.42,54.97,3.64,50.83,3.36,101.98,6.72,152.61,1.06,4.14-.47,8.97-1.48,10.68-5.28,1.58-3.52-.6-7.82-3.85-9.91-3.25-2.08-7.26-2.52-11.1-2.89,23.2,.03,46.4,.06,69.6,.09,18.56,.03,37.13,.05,55.7-.16,19.5-.22,39.43-.79,57.72-7.56,3.56-1.31,7.49-3.4,8.16-7.14,.65-3.59-2.28-7.05-5.72-8.28-3.44-1.23-7.21-.79-10.84-.34,9.23-.44,12.48-14.42,6.28-21.28-6.19-6.86-16.9-7.38-25.88-5.15-8.97,2.22-17.37,6.64-26.52,7.98-2.8-5.31-6.81-10.03-11.57-13.79-5.75,11.38-14.91,21.06-26.11,27.16-15.53,8.46-36.81,9.33-53.45,3.36,7.05-6.93,12.44-15.72,15.41-25.13-.2,.44-.37,.87-.48,1.33,1.8-7.66,.95-15.56-1.85-22.82-2.86,10.22-6.81,20.13-13.45,28.32-8.72,10.75-23.07,17.94-36.5,14.63-6.06-1.49-11.48-4.96-16.09-9.16-14.44-13.12-20.6-34.99-15.1-53.31-12.7,7.73-22.82,19.16-26.43,32.59,0,0,0,0-.02,0,.05,13.01,5.47,26.03,15.05,34.87-20.36,6.37-44.17,6.04-64.35-.88,6.02,8,14.66,13.99,24.26,16.82-20.3,7.18-43.21,6.73-63.22-1.24-5.57-2.22-11.39-5.5-13.37-11.16-2.01-5.74,.74-12.27,5.15-16.45,.46-.44,.95-.85,1.44-1.24-8.94,1.82-17.92,6.4-23.16,13.87Z" style="fill:#f0f3f9; fill-rule:evenodd;"/><path d="M1145.91,347.15c9.23-.44,12.48-14.42,6.28-21.28-6.19-6.86-16.9-7.38-25.88-5.15,2.98,.01,6.69,.37,9.3,1.8,2.61,1.42,4.75,3.94,5.15,6.89,.22,1.58-.06,3.19-.56,4.71-2.21,6.75-8.53,11.43-15.2,13.9-9.99,3.69-20.95,3.33-31.59,2.92,17.6,2.35,34.75-2.94,52.49-3.77Z" style="fill:#e3edf3; fill-rule:evenodd;"/><path d="M982.39,373.42c3.25,2.09,5.43,6.39,3.85,9.91-1.71,3.8-6.54,4.81-10.68,5.28-50.63,5.66-101.78,2.3-152.61-1.06-18.32-1.21-36.65-2.43-54.97-3.64-9.9-.65-22.11-3.07-24.79-12.63-1.53-5.47,1.1-11.51,5.42-15.2-2.01,3.95-.28,8.79,2.75,12.02,3.03,3.23,7.29,4.99,11.51,6.33,19.24,6.1,39.89,5.32,60.06,4.48-6.44-.88-12.34-5.01-15.37-10.75,25.56,11.39,54.38,12.34,82.35,13.1,17.01,.47,34.23,.91,50.79-2.93-7.94,.14-15.91-2.29-22.42-6.85,21.58,4.44,42.81,7.6,64.11,1.95Z" style="fill:#e3edf3; fill-rule:evenodd;"/><path d="M971.29,370.53c23.2,.03,46.4,.06,69.6,.09,18.56,.03,37.13,.05,55.7-.16,19.5-.22,39.43-.79,57.72-7.56,3.56-1.31,7.49-3.4,8.16-7.14,.65-3.59-2.28-7.05-5.72-8.28,.09,2.84-2.39,5.2-4.79,6.72-2.4,1.52-5.24,2.15-8.03,2.69-31.43,6.2-63.71,6.08-95.75,5.94-12.49-.06-25.81-.36-36.15-7.37-12.04,8.75-25.85,14.77-40.74,15.05Z" style="fill:#e3edf3; fill-rule:evenodd;"/></g><g><ellipse cx="1231.02" cy="1165.92" rx="1198.73" ry="32.29" style="fill:#b0c2e4;"/><g><polygon points="1818.79 872.76 1834.62 872.76 1754.33 1159.35 1738.5 1159.35 1818.79 872.76" style="fill:#9c7357; fill-rule:evenodd;"/><polygon points="1938.12 872.76 1953.96 872.76 1873.67 1159.35 1857.83 1159.35 1938.12 872.76" style="fill:#9c7357; fill-rule:evenodd;"/><polygon points="1827.67 897.59 1931.17 897.59 1928.21 908.16 1824.71 908.16 1827.67 897.59" style="fill:#9c7357; fill-rule:evenodd;"/><polygon points="1809.29 963.21 1912.78 963.21 1909.83 973.78 1806.32 973.78 1809.29 963.21" style="fill:#9c7357; fill-rule:evenodd;"/><polygon points="1790.9 1028.83 1894.4 1028.83 1891.44 1039.4 1787.94 1039.4 1790.9 1028.83" style="fill:#9c7357; fill-rule:evenodd;"/><polygon points="1772.52 1094.45 1876.01 1094.45 1873.06 1105.01 1769.55 1105.01 1772.52 1094.45" style="fill:#9c7357; fill-rule:evenodd;"/><polygon points="2250.33 872.76 2234.49 872.76 2314.78 1159.35 2330.62 1159.35 2250.33 872.76" style="fill:#9c7357; fill-rule:evenodd;"/><polygon points="2130.99 872.76 2115.15 872.76 2195.45 1159.35 2211.28 1159.35 2130.99 872.76" style="fill:#9c7357; fill-rule:evenodd;"/><polygon points="2259.83 963.21 2156.33 963.21 2159.29 973.78 2262.79 973.78 2259.83 963.21" style="fill:#9c7357; fill-rule:evenodd;"/><polygon points="2278.21 1028.83 2174.71 1028.83 2177.67 1039.4 2281.17 1039.4 2278.21 1028.83" style="fill:#9c7357; fill-rule:evenodd;"/><polygon points="2296.6 1094.45 2193.1 1094.45 2196.06 1105.01 2299.56 1105.01 2296.6 1094.45" style="fill:#9c7357; fill-rule:evenodd;"/><rect x="1794.23" y="847.93" width="463.16" height="24.83" style="fill:#9c7357;"/></g><path d="M1376.84,709.29c4.44-3.03,5.33-2.9,5.33-2.9,0,0,36.69,36.48,40.28,39.75,3.6,3.28,65.09,33.87,65.09,33.87l1.2,49.95s-75.88-55-84.82-63.47c-14.77-13.98-32.04-51.49-32.04-51.49,0,0,1.47-3.34,4.96-5.71Z" style="fill:#466fb5; fill-rule:evenodd;"/><path d="M1982.99,595.44c3.22-3.65,14.23-22.18,14.23-22.18l32.68,11.62s-25.65,30.12-30.84,35.93c-11.57,5.63-56.1,20.14-60.38,21.96-1.91,.79-5.12,2.37-6.88,4.13-3.91,3.87-5.31,5.85-9,9.7-4.2,4.34-18.09-8.21-16.8-12.75,.89-3.12,8.69-6.4,14.91-9.12,2.8-1.21,59.2-36.02,62.09-39.29Z" style="fill:#f9af79; fill-rule:evenodd;"/><path d="M2054.26,530.82c6.49,6.53,8.92,14.77-4.99,36.46-13.91,21.69-27.75,35.99-27.75,35.99,0,0-24.15-8.01-32.77-23.69,0,0,43.17-71.11,65.5-48.76Z" style="fill:#466fb5; fill-rule:evenodd;"/><path d="M2035.21,833.53l-16.68-9.22s-5.89-14.01-13.47-32.67c7.14-1.74,14.47-3,21.83-4.31,4.38,18.84,7.56,27.41,8.32,46.2Z" style="fill:#f9af79; fill-rule:evenodd;"/><path d="M2099.4,654.91s-130.76,1.13-134.84,17.04c-9.56,37.2,49.58,145.37,49.58,145.37l21.17-6.29-23.15-108.81s58.16,1.43,63.75-1.52c5.58-2.95,23.49-45.79,23.49-45.79Z" style="fill:#0e2952; fill-rule:evenodd;"/><path d="M2125.67,642.75c-40.68-4.61-54.68,13.6-41.97,54.61,44.72-2.55,57.26-25.11,41.97-54.61Z" style="fill:#20386f; fill-rule:evenodd;"/><path d="M2031.81,511.46s1.84-7.71,4.18-11.91c2.32-4.24,4.06-14.81-.36-25.19-4.45-10.4-13.94-12.25-18.81-12.2-4.87,.03-21.82,4.96-26.69,9.37-4.88,4.41,4.23,25.15,4.23,25.15l13.82,14.04,23.63,.73Z" style="fill:#20386f; fill-rule:evenodd;"/><path d="M2137.55,822.54l-18.91,2.35s-13.01-7.87-30.11-18.51c4.77-5.61,9.96-10.93,15.13-16.32,14.62,12.67,22.23,17.73,33.89,32.48Z" style="fill:#f9af79; fill-rule:evenodd;"/><path d="M2119.15,820.94s7.57,1.5,9.93,.83c2.38-.67,5.2-3.87,7.76-2.41,2.56,1.45,7.48,14.82,6.89,17.86-.64,3.21-2.68,6.82-5.07,7.46-2.41,.68-40.81,4.43-47.64,3.28-6.82-1.14-9.65-8.01-2.71-11.63,6.94-3.61,27.04-17.51,30.84-15.39Z" style="fill:#0e2952; fill-rule:evenodd;"/><path d="M2019.52,821.77s7.57,1.5,9.94,.82c2.38-.67,5.19-3.86,7.75-2.41,2.56,1.45,7.49,14.81,6.89,17.86-.63,3.21-2.67,6.82-5.07,7.47-2.41,.68-40.81,4.42-47.64,3.27-6.82-1.13-9.65-8.01-2.7-11.62,6.93-3.62,27.04-17.52,30.83-15.39Z" style="fill:#0e2952; fill-rule:evenodd;"/><path d="M2091.25,639.42s-108.76,72.58-103.46,88.13c12.38,36.35,121.11,94.44,121.11,94.44l14.26-16.86-78.96-78.34s54.9-29.03,57.95-34.55c3.06-5.53-10.9-52.83-10.9-52.83Z" style="fill:#20386f; fill-rule:evenodd;"/><path d="M2016.46,538.56c-.27,.49-4.3,27.15,2.61,43.47,12.63,29.84,42.88,75.76,49.05,75.85,49.45,.65,63.17-14.38,63.17-14.38,0,0-45-88.69-61.52-106.97-6.87-7.59-14.34-13.62-24.83-12.29-2.4,.28-22.18,2.94-28.49,14.32Z" style="fill:#6d96ce; fill-rule:evenodd;"/><path d="M2013.39,520.17l3.31,19.14s1.02,5.32,4.18,6.61c5.46,2.27,16.92-20.29,16.92-20.29l-10.18-28.68-14.23,23.23Z" style="fill:#f9af79; fill-rule:evenodd;"/><path d="M2030.69,505.58c-.7,13.03-9.97,21.87-15.6,24.41l-1.7-9.81,14.23-23.23,3.07,8.64Z" style="fill:#f27458; fill-rule:evenodd;"/><path d="M2010.07,470.14c-9.64-.99-17.75,7.18-16.96,16.69,.33,4.11,.98,9.28,2.16,14.78,2.86,13.28,12.71,24.54,18.7,23.12,5.99-1.38,20.58-13.83,16.8-32.72-2.35-11.67-10.59-20.84-20.7-21.87Z" style="fill:#f9af79; fill-rule:evenodd;"/><path d="M2026.7,494.52c.68,2.93,3.17,4.82,5.56,4.28,2.38-.57,3.75-3.38,3.07-6.31-.68-2.89-3.17-4.82-5.55-4.25-2.38,.54-3.76,3.35-3.09,6.28Z" style="fill:#f9af79; fill-rule:evenodd;"/><path d="M2029.79,488.24s-.49-6.56-2.78-12.37c-2.29-5.78-9.62-12.75-16.05-12.24-6.4,.5-19.86,6.85-22.8,3.53-2.94-3.32-2.83-2.94-3.62-3.35-1.82-.97-8.67,7.14-5.37,17.12,3.28,10,12.09,7.09,13.89,6.87,1.82-.19,15.68-11.38,20.58-12.45,4.89-1.1,16.14,12.89,16.14,12.89Z" style="fill:#20386f; fill-rule:evenodd;"/><path d="M2013.88,511.56c-3.59,1.31-5.71,1.65-9.51,2.05-1.53,.15,5.13,9.94,9.9-1.54,.11-.28-.11-.61-.39-.5Z" style="fill:#eb795b; fill-rule:evenodd;"/><path d="M2010.55,490.66c-1.7,.74-1.13,2.1,.29,1.98,15.02-1.35,3.94-3.82-.29-1.98Z" style="fill:#20386f; fill-rule:evenodd;"/><path d="M2001.48,492.38c1.86,.06,1.82,1.55,.46,1.95-14.47,4.26-5.06-2.11-.46-1.95Z" style="fill:#20386f; fill-rule:evenodd;"/><path d="M2006.29,508.34h-.09c-1.65-.2-2.53-.34-2.88-.93-.34-.53-.11-1.18,.29-2.37,.45-1.31,1.13-3.3,1.57-6.52,.03-.23,.26-.39,.48-.36,.23,.03,.4,.25,.37,.49-.46,3.29-1.15,5.33-1.61,6.68-.26,.78-.48,1.45-.37,1.63,.16,.26,1.32,.4,2.26,.52,.23,.03,.4,.25,.37,.49-.02,.2-.19,.35-.39,.37Z" style="fill:#eb795b; fill-rule:evenodd;"/><path d="M2000.12,502.58c-1.03,.24-2.76-3.51-.25-4.09,1.34-.31,1.94,3.7,.25,4.09Z" style="fill:#20386f; fill-rule:evenodd;"/><path d="M2014.19,499.54c-1.04,.23-2.77-3.51-.26-4.09,1.35-.31,1.95,3.7,.26,4.09Z" style="fill:#20386f; fill-rule:evenodd;"/><path d="M2013.71,511.82c1.7,.9-6.54,3.88-8.43,3.07-.2-.09-.97-.67-.88-.96,.09-.28,1.2-.22,1.48-.24,2.72-.25,5.18-.82,7.82-1.87Z" style="fill:#fff; fill-rule:evenodd;"/><path d="M1162.48,645.39l11.96-125.33,118.63,11.32,62.83,5.99,118.63,11.32-11.96,125.34c1.22,9.68,9.75,20.94,20.75,21.24,19.11,.55,35.74-31.22,65.9-30.25,33.43,1.07,57.32,36.56,53.7,74.58-3.62,38.01-33.81,68.34-66.83,63.07-29.82-4.75-40.14-39.1-59-42.18-10.87-1.77-21.38,7.66-24.39,16.93l-11.95,125.35-36.47-3.48c-118.03-11.26-145.59-13.89-263.62-25.15l11.96-125.33c-1.21-9.68-9.75-20.94-20.75-21.25-19.11-.54-35.73,31.22-65.91,30.25-33.43-1.07-57.32-36.56-53.7-74.57,3.63-38.01,33.8-68.35,66.83-63.07,29.82,4.77,40.13,39.1,59,42.17,10.86,1.78,21.37-7.65,24.39-16.93Z" style="fill:#eac5a7; fill-rule:evenodd;"/><g><path d="M153.34,810.62s2.88,1.91,3.89,2.49c1.17,.64,4.84,2.35,4.84,2.35,0,0,13.11,5.17,13.39,4.22,.28-.96-.1-3.58-.8-4.2-.7-.58-2.55-1.08-3.24-1.66-.7-.62-1.1-1.96-.44-2.84,.66-.89,5.13,.79,5.13,.79,0,0,3.62,1.41,5.35,3.48,5.97,7.1,4.56,7.77,5.34,8.66,.93,1.07,19.06,6.42,19.06,6.42,0,0,53.9,13.99,56.81,14.78h.04c.7,2.29-.26,4.62-.61,6.82-.19,7.45-2.29,8.22-2.96,15.46-8.37-2.85-66.62-25.01-72.56-27.37,0,0-8.43-.24-13.71-.54-5.3-.33-10.24-2.99-11.72-3.29-.22-.05-5.1-1.36-10.72-4.6-4.83-2.75,.98-2.29,.98-2.29,0,0,9.85,3.59,9.98,2.78,.1-.61-5.39-2.27-10.77-5.26-1.38-.77-2.74-1.53-4-2.27-3.27-1.86-3.09-4.36,.63-2.92,1.33,.53,3.49,1.42,4.95,2.25,1.58,.93,3.31,1.29,4.75,1.85,2.86,1.15,4.93,2.01,4.92,1.89-.03-.2,.68-.37-.77-1.24-1.73-1.04-5.89-2.44-8.33-4.18-1.39-.96-4.4-2.84-4.4-2.84,0,0-4.03-3.62-3.9-3.92,.7-1.62,4.16,.13,5.86,1.68,1.6,.45,4.71,2.53,4.71,2.53,0,0,7.2,2.78,7.58,1.76,.16-.42-4.06-2.62-7.87-5.43-3.54-2.62-6.7-5.8-6.31-6.57,.68-1.26,4.91,1.22,4.91,1.22Z" style="fill:#f9af79; fill-rule:evenodd;"/><path d="M412.1,567.31l-14.76-125.04-271.27,32.02c-45.08,5.32-77.61,46.56-72.29,91.64l32.02,271.27c258.6-30.53,94.64-11.18,353.24-41.71l-14.76-125.04c1-9.7,9.28-21.14,20.27-21.7,19.09-.97,36.43,30.42,66.57,28.78,33.4-1.82,56.49-37.84,52.02-75.76-4.48-37.92-35.32-67.58-68.23-61.56-29.7,5.43-39.24,39.98-58.04,43.48-10.82,2.03-21.53-7.17-24.77-16.37Z" style="fill:#d0a382; fill-rule:evenodd;"/><path d="M365.69,1059.54s-18.7,17.95-21.34,22.87c-3.81,7.12,37.84,13.54,32.43,6.61-1.24-1.58-4.94-7.04-5.15-7.57-1.1-3,6.21-12.44,6.21-12.44l-12.14-9.46Z" style="fill:#f9af79; fill-rule:evenodd;"/><path d="M389.36,1100.12l-16.94-18s-9.09-.8-19.6-9.72c0,0-7.7,4.24-11.75,11.7,0,0,10.89,8.84,27.08,18.29,0,0,9.72,6.41,22.22,8.8,12.52,2.35-1.01-11.06-1.01-11.06Z" style="fill:#0e2952; fill-rule:evenodd;"/><path d="M378.83,600.29s1.14,3.11,1.45,4.18c.35,1.26,1.12,5.14,1.12,5.14,0,0,1.83,13.66,.81,13.77-1.01,.1-3.49-.75-3.91-1.53-.42-.78-.42-2.69-.83-3.47-.42-.78-1.66-1.4-2.69-.94-1.02,.51-.48,5.14-.48,5.14,0,0,.46,3.76,2.05,5.81,5.5,7.08,6.51,5.86,7.17,6.76,.81,1.12,1.53,19.69,1.53,19.69,0,0,.31,54.88,.34,57.82l-.02,.05c2.08,1.1,4.62,.59,6.84,.63,7.34,1.16,8.63-.74,15.89-.04-.72-8.67-7.94-69.24-8.74-75.42,0,0,1.84-8.24,2.84-13.45,1-5.21-.34-10.47-.28-11.96,0-.23-.08-5.21-1.83-11.22-1.51-5.22-2.48,.5-2.48,.5,0,0,1.04,10.23,.23,10.22-.64-.03-.88-5.66-2.49-11.42-.4-1.5-.82-2.95-1.2-4.3-1.04-3.53-3.51-3.81-3.02,.07,.17,1.37,.5,3.64,.98,5.21,.5,1.72,.41,3.46,.62,4.98,.41,2.97,.75,5.12,.61,5.1-.17-.05-.51,.59-.99-.94-.59-1.91-.95-6.21-2.03-8.89-.61-1.51-1.69-4.78-1.69-4.78,0,0-2.57-4.59-2.89-4.5-1.74,.4-.9,4.08,.19,6,.06,1.62,1.3,5.04,1.3,5.04,0,0,.94,7.48-.12,7.71-.46,.07-1.58-4.44-3.39-8.65-1.68-3.92-4.03-7.57-4.85-7.29-1.42,.39-.03,4.99-.03,4.99Z" style="fill:#f9af79; fill-rule:evenodd;"/><path d="M312.17,909.84l5.57,15.81,93.32,63.6-50.77,68.29,18.28,14.06s78.43-76.53,80.4-85.38c3.04-13.63-76.6-89.97-76.6-89.97l-70.2,13.59Z" style="fill:#20386f; fill-rule:evenodd;"/><path d="M281.98,1115.47s-18.69,17.95-21.34,22.87c-3.81,7.12,37.84,13.54,32.43,6.61-1.24-1.58-4.94-7-5.16-7.57-1.1-3,6.22-12.44,6.22-12.44l-12.15-9.46Z" style="fill:#f9af79; fill-rule:evenodd;"/><path d="M305.69,1156.13l-16.95-18s-9.62-.36-20.11-9.25c0,0-7.18,3.8-11.24,11.23,0,0,10.9,8.88,27.07,18.29,0,0,9.72,6.45,22.23,8.79,12.51,2.35-1-11.06-1-11.06Z" style="fill:#0e2952; fill-rule:evenodd;"/><path d="M316.07,916.99l18.17,102.19-57.88,95.61,18.52,12.79s71.41-81.13,77.59-101.77c3.83-12.87,7.13-124.29,7.13-124.29l-63.52,15.48Z" style="fill:#223f81; fill-rule:evenodd;"/><path d="M381.62,899.19c-8.87-14.26-23.42-123.21-53.2-145.03-8.99,2.83-15.44,4.65-16.92,5.26,.22,11.42,4.5,52.78,8.88,90.61,2.92,25.23,7.27,51.5,6.13,65.81-.71,8.88,63.19-3.66,55.11-16.65Z" style="fill:#fff; fill-rule:evenodd;"/><path d="M290.87,768.05c-7.13,2.69-12.05,6.88-19.67,22.47-7.31,14.95-23.57,47.91-23.57,47.91l-57.19-13.63,1.2,24.94s65.5,23.12,73.7,19.06c8.22-4.06,25.77-38.72,27.24-41.37,.33-.61,3.82,38.35,4.69,44.49,.86,6.1-2.21,56.71-2.21,56.71,0,0,30.71,3.14,34.64-10.98,12.04-43.17-18.07-158.31-18.07-158.31,0,0-15.63,6.75-20.75,8.7Z" style="fill:#466fb5; fill-rule:evenodd;"/><path d="M335.39,759.64s16.56,30.49,24.71,24.92c8.13-5.61,48.55-64.35,48.7-66.84,.14-2.49-5.11-64.46-5.11-64.46l-19.99-1.17-6.01,51.74s-29.21,39.65-36.02,44.07c-6.81,4.43-6.28,11.74-6.28,11.74Z" style="fill:#466fb5; fill-rule:evenodd;"/><path d="M385.26,906.1c5.89-.83,7.95-1.96,11.7-3.68,0,0-20.09-61.58-35.42-123.32-6.06-24.39-9.88-34.19-19.84-30.95-2.88,.92-10.44,5.09-13.27,6.01,35.86,68.95,43.81,124.82,49.72,140.5,2.96,7.88,5.13,11.76,7.11,11.44Z" style="fill:#466fb5; fill-rule:evenodd;"/><path d="M324.18,743.55l4.23,10.61s1.96,9.46-2.35,10.94c-5.2,1.77-14.27-5.08-14.27-5.08l-8.95-30.3,21.34,13.83Z" style="fill:#f7a390; fill-rule:evenodd;"/><path d="M324.18,743.55l4.23,10.61s1.96,9.46-2.35,10.94c-5.2,1.77-14.27-5.08-14.27-5.08l-8.95-30.3,21.34,13.83Z" style="fill:#f9af79; fill-rule:evenodd;"/><path d="M302.9,729.84l21.28,13.71,3.16,7.93c-7.49-.74-18.96-7.26-24.44-21.64Z" style="fill:#ed7d57; fill-rule:evenodd;"/><path d="M317.93,698.72c4.59-.65,9.16,1.94,11.42,6.29,1.87,3.61,4.38,9,6.37,15.29,3.68,11.61-1.57,23.44-7.32,25.17-5.78,1.69-20.37-.24-25.84-16.67-2.35-7.01-5.43-16.26-.2-22.07,4.07-4.52,10.29-7.26,15.56-8Z" style="fill:#f9af79; fill-rule:evenodd;"/><path d="M306.29,741.4s-23.38-15.62-26.32-29.96c-2.95-14.3,9.32-23.92,20.69-25.96,5.14-.89,8.67-1.14,14.08-1.22,11.65-.17,19.78,3.84,18.48,13.59-1.73,13.09-26.97,5.79-31.27,10.38-3.55,3.81,4.03,10.64,.55,14.12-3.26,3.34-1.53,2.13,.42,7.25,1.96,5.1,3.38,11.8,3.38,11.8Z" style="fill:#20386f; fill-rule:evenodd;"/><path d="M295.92,725.75c1,3.37,3.48,5.64,5.55,5.04,2.05-.61,2.91-3.84,1.9-7.25-1.01-3.41-3.48-5.64-5.53-5.04-2.07,.61-2.91,3.84-1.91,7.25Z" style="fill:#f9af79; fill-rule:evenodd;"/><path d="M317.61,724.3c-1.08,.51-3.89-3.36-1.26-4.59,1.4-.66,3.03,3.75,1.26,4.59Z" style="fill:#20386f; fill-rule:evenodd;"/><path d="M331.32,718.19c1.08-.51-.03-5.16-2.65-3.93-1.4,.65,.88,4.77,2.65,3.93Z" style="fill:#20386f; fill-rule:evenodd;"/><path d="M315.52,715.51c1.77-.76,2.38,.71,1.29,1.69-.31,.29-6.73,4.98-6.62,4.4,.18-1.19,1.97-4.68,5.33-6.1Z" style="fill:#20386f; fill-rule:evenodd;"/><path d="M325.12,710.81c-1.75,.79-1.1,2.25,.35,2.1,.68-.07,8.3-1.57,7.6-1.97-1.16-.66-4.76-1.6-7.95-.13Z" style="fill:#20386f; fill-rule:evenodd;"/><path d="M330.54,727.03c-3.68,2.47-3.81,.45-2.59,.3,4.03-.49-.31-1.5-1.83-8.28-.15-.71,.65-.88,.85-.32,.14,.4,.48,1.89,.67,2.31,2.21,5.09,4.08,5.2,2.9,5.99Z" style="fill:#ed7d57; fill-rule:evenodd;"/><path d="M332.53,729.68c-1.98,11.85-10.64,4.62-9.16,3.84,7.55-3.96,9.41-5.29,9.16-3.84Z" style="fill:#fff; fill-rule:evenodd;"/></g><path d="M1610.25,497.54h380.07v355.69h-380.07v-125.91c2.13-9.53,11.69-19.92,22.68-19.18,19.07,1.27,32.6,34.47,62.73,36.38,33.38,2.11,60.54-30.96,60.54-69.14s-27.16-71.26-60.54-69.14c-30.14,1.91-43.67,35.11-62.73,36.37-10.99,.74-20.55-9.65-22.68-19.17v-125.91Z" style="fill:#f6ddc7; fill-rule:evenodd;"/><path d="M1563.73,1106.59s10.49,11.32,13.11,12.73c2.62,1.4-1.17,17.84-8.28,18.93-4.02,.63-6.24-3.23-6.24-3.23l1.14-4.77-14.98-13.42,15.25-10.24Z" style="fill:#f9af79; fill-rule:evenodd;"/><path d="M1413.49,1112.58s-1.31,15.12-.54,17.92c.74,2.82-14.23,11.02-19.91,6.59-3.21-2.51-1.85-6.69-1.85-6.69l4.34-2.3-.2-19.78,18.16,4.25Z" style="fill:#f9af79; fill-rule:evenodd;"/><path d="M1412.86,1129.78s-7.45,1.06-10.97,.98c-4.56-.08-9.83-.85-9.83-.85,0,0-9.14,2.88-12.04,4.15-6.45,2.82-13.65,5.92-15.55,8.95-.59,.96,.88,3.75,3.14,4.84,9.51,4.44,42.62,5.34,48.69,3.21,6.99-2.45-3.44-21.28-3.44-21.28Z" style="fill:#0e2952; fill-rule:evenodd;"/><path d="M1484.05,937.66c2.36-1.15,4.55-2.19,6.64-3.15,7.41,8.5,15.84,18.05,24.47,27.92l-18.79,39.35c2.12-2.37-59.23,34.91-59.23,34.91,0,0-13.94,49.8-19.17,81.44-10.71,1.28-12.92,.92-24.49-1.59-2.57-37.25,3.22-94.9,7.73-102.08,2.6-4.13,54.67-62.98,82.84-76.8Z" style="fill:#20386f; fill-rule:evenodd;"/><path d="M1546.22,958.48c-2.13,32.23-14.14,78.12-13.68,82.63,1.84,5.95,33.07,61.1,38.92,69.12-4.65,6.1-11.5,11.85-19.25,13.67-1.53,.36-54.28-65.43-57.22-70.69-3.31-6-8.82-38.6-8.93-78.98l-1.53-39.99c13.03-12.8,34.25-21.32,41.54-19.92,12.63,2.43,20.69,36,20.14,44.16Z" style="fill:#1d417f; fill-rule:evenodd;"/><path d="M1576.24,1118.89s-4.16,6.1-6.55,8.6c-3.09,3.25-7.17,6.51-7.17,6.51,0,0-3.9,8.62-4.87,11.6-2.17,6.59-4.62,14.54-3.6,17.98,.33,1.12,3.12,3.23,5.42,1.94,8.88-5.05,32.62-28.68,35.05-34.53,2.8-6.76-18.26-12.09-18.26-12.09Z" style="fill:#0e2952; fill-rule:evenodd;"/><path d="M1361.14,732.12s-3.07-15.1-4.28-17.33c-1.2-2.22-8.22-8.75-8.93-8.56-.7,.19-1.05,.82-.51,2.25,.54,1.43,3.2,5.74,2.51,5.71-.68-.05-9.26-12.06-11.99-11-2.72,1.06-4.37,10.52-1.94,16.78,2.44,6.27,14.99,15.04,15.55,16.03,4.72,8.39,9.59-3.88,9.59-3.88Z" style="fill:#f9af79; fill-rule:evenodd;"/><path d="M1504.39,773.34s-14.09,16.72-32.03,9.73c0,0-3.87-9.34-3.91-16.22,0-.85-.02-1.66-.03-2.45-.1-7.74-.36-12.09-.36-12.09,0,0,0,0,.02,0,.82-.34,27.43-11.26,27.4-10.36-.45,20.96,8.91,31.4,8.91,31.4Z" style="fill:#f9af79; fill-rule:evenodd;"/><path d="M1492.81,746.94c-2.57,4.76-11.37,14.06-24.39,17.46-.1-7.74-.36-12.09-.36-12.09,0,0,0,0,.02,0,.73-.2,25.49-6.76,24.73-5.36Z" style="fill:#ed7d57; fill-rule:evenodd;"/><path d="M1462.49,751.5s29.93,7.04,34.02-11.66c4.1-18.7,10.71-30.39-8.22-35.68-18.93-5.28-24.23,1.04-27.1,6.96-2.89,5.9-6.38,38.07,1.3,40.38Z" style="fill:#f9af79; fill-rule:evenodd;"/><path d="M1495.48,744.93c.42,.26,6.85,2.24,19.05-22.06,1.91-3.81,3.22-12.06-1.25-19.35-12.39-20.23-34.29-6.73-56.98-20.18-8.17,31.21,16.5,28.51,21.23,30,4.73,1.49,6.4,8.94,6.76,11.33,.36,2.39,.9,4.37,6.85,2.24,5.95-2.13,2.69,8.43,1.74,10.45,0,0-.81,5.38,2.6,7.57Z" style="fill:#20386f; fill-rule:evenodd;"/><path d="M1446.35,842.41c.17,9.91,.75,21.05,1.53,32.37,.05,.67,.1,1.35,.14,2.01,.5,7.01,1.04,14.04,1.65,20.89,.26,2.75,.51,5.46,.79,8.13l.04,.36c.02,1,.15,2.08,.26,3.06,2.53,25.67,5.17,45.94,5.66,46.25,.59,.39,1.25,.58,1.97,.51,6.73-.85,26.81,.68,43.25-2.9,13.87-2.93,25.83-8.47,38.48-15.96,1.68-.98,5.51-3.62,5.2-5.58-.31-2.16-.87-5.28-1.59-9.21-2.49-13.66-6.8-37.14-8.27-64.62-.29-5.12-.7-10.18-1.24-15.16-1.41-12.94-3.67-25.24-6.7-36.17-5.64-20.29-13.92-35.83-24.31-41.92-1.36-.76-8.66,3.89-15.37,8.19-6.2,3.97-12.73,5.08-19.08,4.52l-5.58,6.17c-6.76,7.86-13.97,18.33-15.94,33.2-.15,1.1-.27,2.27-.38,3.51-.54,6.06-.68,13.73-.52,22.32Z" style="fill:#6d96ce; fill-rule:evenodd;"/><path d="M1446.35,842.41c.17,9.91,.75,21.05,1.53,32.37,.05,.67,.1,1.35,.14,2.01,38.45-24.06,44.37-68.1,44.37-68.1-18.92,.83-33.94,5.18-45.52,11.39-.54,6.06-.68,13.73-.52,22.32Z" style="fill:#466fb5; fill-rule:evenodd;"/><path d="M1353.82,730c4.26-3.8,6.82-2.04,6.82-2.04,0,0,43.78,39.41,48.02,42.36,4.24,2.95,64.69,9.46,64.69,9.46,0,0,24.29,1.62,29.19,14.54,4.27,11.23-.06,20.26-5.89,26.7-6.93,7.66-17.9,10.22-27.57,6.56-21.7-8.22-64.84-24.91-72.71-30.61-17.52-12.69-47.22-60.23-47.22-60.23,0,0,1.3-3.74,4.66-6.73Z" style="fill:#6d96ce; fill-rule:evenodd;"/><path d="M1475.71,727.72c1.32,.16,2.97-4.94-.25-5.33-1.73-.21-1.91,5.05,.25,5.33Z" style="fill:#20386f; fill-rule:evenodd;"/><path d="M1461.32,726.57c-1.32-.16-1.76-5.5,1.46-5.11,1.72,.21,.72,5.38-1.46,5.11Z" style="fill:#20386f; fill-rule:evenodd;"/><path d="M1474.88,717.62c-2.15-.18-2.29,1.6-.79,2.26,.44,.2,8.9,2.97,8.58,2.38-.61-1.2-3.74-4.29-7.79-4.65Z" style="fill:#20386f; fill-rule:evenodd;"/><path d="M1465.36,716.55c2.15,.24,1.96,2.02,.36,2.38-.76,.16-9.38,1.21-8.78,.53,1-1.1,4.51-3.34,8.41-2.91Z" style="fill:#20386f; fill-rule:evenodd;"/><path d="M1460.45,733.48c3.34,3.68,4.02,1.51,2.74,1.03-4.25-1.63,.74-1.55,4.21-8.52,.36-.74-.47-1.14-.85-.57-.26,.39-1.03,1.92-1.34,2.32-3.77,4.94-5.83,4.56-4.76,5.74Z" style="fill:#ed7d57; fill-rule:evenodd;"/><path d="M1461.69,738.63c6.23,11.92,12.93,1.23,11.08,.91-9.41-1.6-11.85-2.37-11.08-.91Z" style="fill:#fff; fill-rule:evenodd;"/><path d="M2012.4,611.14c1.89-4.49,6.44-25.57,6.44-25.57l34.68,.63s-14.74,36.71-17.81,43.87c-9.18,9.01-46.78,36.93-50.26,40.03-31.68,27.69-43.33,19.74-19.42-1.98,2.28-2.03,44.67-52.97,46.37-56.98Z" style="fill:#f9af79; fill-rule:evenodd;"/><path d="M2057.23,529.12c8.23,4.13,13.15,11.17,6.87,36.15-6.29,24.98-14.86,42.95-14.86,42.95,0,0-25.44,.1-38.6-12.04,0,0,18.3-81.15,46.59-67.06Z" style="fill:#466fb5; fill-rule:evenodd;"/><path d="M1969.73,668.5s-16.43,4.16-18.83,5.65c-2.41,1.49-9.31,9.93-9.07,10.75,.23,.81,.92,1.21,2.47,.53,1.55-.69,6.18-3.96,6.17-3.16-.02,.8-12.88,11.28-11.63,14.42,1.26,3.13,11.69,4.72,18.46,1.63,6.77-3.09,15.96-18.08,17.02-18.77,9.03-5.83-4.59-11.06-4.59-11.06Z" style="fill:#f9af79; fill-rule:evenodd;"/><g><path d="M553.58,464.18h454.79v125.91c-2.13,9.53-11.69,19.91-22.67,19.17-19.08-1.26-32.61-34.47-62.74-36.37-33.38-2.1-60.54,30.95-60.54,69.14s27.16,71.25,60.54,69.13c30.13-1.9,43.66-35.11,62.74-36.39,10.98-.73,20.55,9.65,22.67,19.19v125.9h-454.79v-125.9c2.13-9.53,11.69-19.91,22.67-19.19,19.07,1.28,32.6,34.47,62.74,36.39,33.38,2.11,60.54-30.95,60.54-69.13s-27.16-71.26-60.54-69.14c-30.13,1.91-43.66,35.11-62.74,36.37-10.98,.74-20.55-9.65-22.67-19.17v-125.91Z" style="fill:#e5bb9a; fill-rule:evenodd;"/><path d="M732.06,752.64c6.06-5.67,22.96-11.91,33.02-15,10.52-1.36,22.01-1.95,34.48-1.76,21.08-.2,43.74,.02,67.97,.67-2.25-10.21-2.47-25.36-.66-45.46,3.79-1.8,8.48-2.29,14.05-1.44,7.96,42.18,6.02,61.71-.33,71.38-17.97,4.86-35.25,7.49-48.43,8.78-3.76,24.18-6.62,47.5-8.57,69.95,4,23.65,5.91,39.75,5.71,48.31-36.94,5.46-66.59,5.61-88.95,.43,.64-6.76,3.43-16.27,5.13-23.55-2.44-30.34-6.33-50.05-8.43-64.07-13.33,26.94-25.12,40.92-35.36,41.95-5.07-1.02-10.39-8.69-15.93-22.97h15.1c2-19.33,16.19-46.78,31.18-67.24Z" style="fill:#6d96ce; fill-rule:evenodd;"/><path d="M794.82,732c-2.26-1.06-14.61-.84-26.94,1.69,1.33-2,2.37-4.6,3.11-7.81,22-3.3,19.85-8.75,19.04-11.23-4.44-11.8-7.12-19.26-3.93-22.81,1.64,.77,5.09,2.57,6.44,7.76,1.38-.84,3.15-1.95,3.38-3.53,.52-4.72,.36-14.57,5.77-15.39,1.07,4.33,2.01,8.91,2.84,13.77,3.09,2.47,3.41,12.42,1.53,24.05,1.79,6.41-1.98,10.24-11.3,11.49l.05,2Z" style="fill:#f9af79; fill-rule:evenodd;"/><path d="M790.04,714.66c.81,2.48,2.96,7.93-19.04,11.23-9.84-1.5-18.55-9.59-19.95-13.26-12.85-21.49-.91-31.77,5.6-35.68,1.43-22.27,34.82-5,50.13-16.76,6.99,8.37-.12,19.97-5.08,20.51-5.41,.82-5.25,10.67-5.77,15.39-.23,1.57-2,2.69-3.38,3.53-1.35-5.2-4.8-6.99-6.44-7.76-3.19,3.55-.51,11,3.93,22.81Z" style="fill:#20386f; fill-rule:evenodd;"/><path d="M767.89,733.69c-1.23,1.15-2.44,2.54-3.56,4.19l.75-.24c10.23-1.32,21.39-1.92,33.47-1.77-1.21-1.59-2.52-2.94-3.73-3.87-2.26-1.06-14.61-.84-26.94,1.69Z" style="fill:#466fb5; fill-rule:evenodd;"/><path d="M879.92,689.52c-.31-8.34-.21-14.62-2.08-19.95-3.66-3.25-2.66-5.95-6.72-6.92-4.54-9.5-4.04-10.99-4.11-14.49-5.24,.72-4.53,7.99,.42,21.5,.9,8.08-1.12,10.45-6.05,7.11-2-5.51-5.16-6.84-7.39-6.46,.24,.72,1.83,3.93,4.05,9.38,2.99,4.51,6.06,8.19,8.17,9.03,.83,.49,1.34,1.13,1.77,1.88,3.34-1.3,7.32-1.67,11.93-1.08Z" style="fill:#f9af79; fill-rule:evenodd;"/><path d="M743.3,889.17c-4.42,29.93-6.49,77.12-6.2,122.64-4.26,21.6-4.04,56.14,.66,126.19,8.33,1.67,15.54,2,21.64,.98,10.83-65.36,14.96-99.42,12.41-124.76,3.3-18.2,7.84-51.6,13.61-77.61,5.77,26.01,10.31,59.41,13.62,77.61-2.55,25.34,1.59,59.4,12.41,124.76,6.09,1.01,13.31,.69,21.63-.98,4.7-70.05,4.92-104.59,.66-126.19,.29-45.93-1.82-93.55-6.32-123.45-34.49,4.96-62.53,5.23-84.13,.81Z" style="fill:#20386f; fill-rule:evenodd;"/><path d="M815.09,1151.58c-2.06,1.6-2.55,9.08-.89,14.75,6.79,3.03,13.42,2.23,19.88-.9,3.27-1.26,7.21-3.41,7.12-5.77-.15-4.45-.25-4.55-9.4-9.29,.14,.91,.29,1.74,.45,2.51h0c-.4,1.04-1.21,1.83-2.74,.85-1.67-1.1-1.11-4.65-5.87-4.72-3.94-.06-3.98,3.69-5.9,4.96-2.11,1.46-2.57-.73-2.66-2.38Z" style="fill:#0e2952; fill-rule:evenodd;"/><path d="M755.98,1151.56c2.06,1.6,2.56,9.08,.88,14.75-6.79,3.03-13.41,2.23-19.88-.9-1-.48-4.94-1.75-5.25-2.83-1.1-3.82-.16-8.91,7.52-12.24-.13,.91-.28,1.74-.45,2.5h0c.4,1.05,1.21,1.84,2.74,.85,1.68-1.1,1.11-4.65,5.87-4.72,3.93-.07,3.98,3.69,5.9,4.95,2.11,1.47,2.57-.73,2.66-2.38Z" style="fill:#0e2952; fill-rule:evenodd;"/><path d="M814.93,1139.41c.71,5.55,.91,10.31,.58,14.28,.37,.76,1.03,1.1,2.24,.27,1.92-1.26,1.96-5.02,5.9-4.96,4.76,.08,4.2,3.62,5.87,4.72,1.53,.98,2.33,.2,2.74-.85-.73-3.42-1.18-8.25-1.32-14.47-5.92,1.04-11.25,1.38-16,1Z" style="fill:#f9af79; fill-rule:evenodd;"/><path d="M756.13,1139.39c-.71,5.55-.91,10.31-.58,14.27-.37,.76-1.04,1.1-2.24,.27-1.92-1.26-1.96-5.02-5.9-4.95-4.76,.08-4.19,3.62-5.87,4.72-1.52,.98-2.33,.2-2.74-.85,.73-3.41,1.18-8.24,1.33-14.46,5.92,1.05,11.26,1.38,16,1Z" style="fill:#f9af79; fill-rule:evenodd;"/><path d="M832.17,769.82c-9.39,30.02-15.69,53.21-18.91,69.6-12.02,8.36-20.45,14.5-25.29,18.45,17.01-9.6,27.47-15.56,31.38-17.89,4.01,9.93,7.32,25.95,9.96,48.1,.2-8.56-1.71-24.66-5.71-48.31,1.94-22.46,4.8-45.77,8.57-69.95h0Zm-132.77,58.57c.44-3.19,.93-6.03,1.48-8.52h-1.78c-.17,3.15-.07,5.99,.31,8.52h0Zm168.12-91.84c4.73,1.72,8.36,3.68,10.87,5.86-4.36-3.9-8.24-7.26-11.63-10.08,.22,1.48,.48,2.89,.77,4.22h0Zm-132.21,52.81c.13,2.43,.72,6.27,1.75,11.54,2.09,14.02,5.98,33.73,8.42,64.07-1.7,7.28-4.49,16.78-5.13,23.55,.47,.11,.95,.22,1.42,.33,1.03-4.96,3.31-11.84,6.85-20.66,1.43,.99,5.52,2.47,12.27,4.47-2.96-2.62-5.91-5.16-8.84-7.61-5.19-29.55-10.76-54.79-16.73-75.69Z" style="fill:#466fb5; fill-rule:evenodd;"/></g></g><g><path d="M229.72,317.46c3.86-.95,7.97-.88,11.75,.35-3.03-23.29,19.46-47.81,42.89-34.05,1.62-10.46,6.79-20.74,15.58-26.65,8.79-5.9,21.43-6.48,29.66,.17,.25-11.49,7.55-22.13,17.33-28.16,9.78-6.03,21.72-7.87,33.18-7.04,12.64,.92,25.15,5.77,34.6,14.31,11.1,10.03,13.04,23.31,12.2,37.89,5.99-1.18,12.29-1.58,18.12,.23,16.59,5.15,19.56,27.88,15.39,42.3,10.48-2.13,21.59-3.92,31.66-.3,10.06,3.62,18.29,14.54,15.19,24.77,5.93-2.43,12.01-4.86,18.4-5.18,6.4-.32,13.29,1.85,17.02,7.06,5.04,7.03,2.75,17.13-2.26,24.17-6.71,9.42-17.55,15.33-28.85,17.81-19.49,4.29-40.91-1.38-55.73-14.76,2.77,2.5-20.62,15.79-22.86,16.52-9.39,3.1-18.94,6.33-28.89,3.9-10.71-2.62-19.98-9.79-26.46-18.71-22.55,18.08-58.1,17.29-79.81-1.79-21.02,17.32-54.97,16.07-74.67-2.74-8.18,3.23-18.46,4.66-24.97-1.26-4.98-4.53-5.92-12.86-2.07-18.39,3.85-5.53,11.99-7.54,17.97-4.43-1.88-7.38,.55-15.7,6.11-20.91,2.66-2.49,5.98-4.22,9.51-5.09Z" style="fill:#fff; fill-rule:evenodd;"/><path d="M426.92,274.28c.83-14.58-1.1-27.85-12.2-37.89-9.45-8.54-21.96-13.39-34.6-14.31-11.46-.83-23.4,1.01-33.18,7.04,19.39-2.79,40.79-1.87,56.27,10.14,3.95,3.06,7.43,6.79,9.78,11.2,2.64,4.95,3.77,10.64,3.66,16.26-.26,13.04-7.28,25.5-17.52,33.6-10.23,8.09-23.4,12.03-36.44,12.32,13.31,3.09,27.77,.92,39.58-5.95,11.81-6.87,23.88-18.78,24.66-32.41Z" style="fill:#f6fbfd; fill-rule:evenodd;"/><path d="M329.61,257.3c-8.24-6.65-20.88-6.08-29.66-.17-8.79,5.91-13.95,16.18-15.58,26.65-1.09,7.02,5.72,13.04,11.98,16.39,6.26,3.35,13.69,4.06,20.72,3.06-6.92-.7-12.54-6.36-15.23-12.77-3.45-8.19-2.8-18.16,2.3-25.44,5.1-7.27,16.83-9.84,25.46-7.71Z" style="fill:#f6fbfd; fill-rule:evenodd;"/><path d="M241.47,317.81c-3.78-1.23-7.89-1.3-11.75-.35-3.53,.87-6.85,2.6-9.51,5.09-5.56,5.21-7.99,13.53-6.11,20.91-5.98-3.11-14.12-1.1-17.97,4.43-3.85,5.53-2.91,13.86,2.07,18.39,6.51,5.92,16.79,4.49,24.97,1.26,19.7,18.81,53.65,20.05,74.67,2.74,21.71,19.08,57.26,19.87,79.81,1.79,6.48,8.92,15.75,16.09,26.46,18.71,9.94,2.44,19.5-.79,28.89-3.9,2.24-.73,25.63-14.02,22.86-16.52,14.81,13.38,36.24,19.05,55.73,14.76,11.29-2.48,22.14-8.39,28.85-17.81,5.02-7.04,7.3-17.15,2.26-24.17-3.73-5.2-10.62-7.38-17.02-7.06-6.39,.32-12.47,2.76-18.4,5.18,3.1-10.23-5.13-21.15-15.19-24.77-10.06-3.62-21.18-1.83-31.66,.3,4.17-14.42,1.2-37.15-15.39-42.3-3.45-1.07-7.06-1.35-10.68-1.17,2.43,12.24,1.22,25.56-5.72,35.88-7.34,10.9-21.95,17.28-34.26,12.7-12.39,11.22-29.84,16.62-46.41,14.38-16.56-2.24-31.94-12.1-40.9-26.21-9.33,6.31-23.32,5.66-30.86-2.71-7.8-8.66-3.93-17.42,.36-26.1,.11-.22,.19-.44,.28-.65-20.47-5.32-38.09,16.41-35.38,37.19Z" style="fill:#f0f3f9; fill-rule:evenodd;"/><path d="M229.72,317.46c3.86-.95,7.97-.88,11.75,.35-2.71-20.77,14.91-42.51,35.38-37.19-7.73,.48-15.2,4.31-20.12,10.29-4.92,5.98-7.48,13.76-7.6,21.5-.05,3.01,.27,6.07,1.39,8.86,2.98,7.38,10.85,11.4,18.26,14.29-7.03,1.6-14.13-2.14-19.91-6.45-5.77-4.31-12.2-9.75-19.15-11.66Z" style="fill:#e3edf3; fill-rule:evenodd;"/><path d="M455.86,370.38c14.81,13.38,36.24,19.05,55.73,14.76,11.29-2.48,22.14-8.39,28.85-17.81,5.02-7.04,7.3-17.15,2.26-24.17,.06,13.7-13.29,25.21-26.48,28.93-13.19,3.72-27.49,.52-39.85-5.38-5.94-2.83-11.69-6.38-15.82-11.5-4.12-5.12-6.41-12.04-4.77-18.41-4.9,9.97-3.1,22.95,.08,33.59Z" style="fill:#e3edf3; fill-rule:evenodd;"/><path d="M377.65,372.08c-22.55,18.08-58.1,17.29-79.81-1.79-21.02,17.32-54.97,16.07-74.67-2.74-8.18,3.23-18.46,4.66-24.97-1.26-4.98-4.53-5.92-12.86-2.07-18.39,3.41,11.33,19.71,16.02,29.32,9.11-2.94-4.28-4.46-9.51-4.27-14.7,10.5,11.92,27.13,18.13,42.88,16,15.74-2.12,30.13-12.51,37.1-26.79,.4,9.33-.91,18.73-3.87,27.58,20.67,20.8,54.24,26.29,80.37,12.98Z" style="fill:#e3edf3; fill-rule:evenodd;"/></g><g><path d="M1986.76,246.99c-14.71-4.87-31.86,1.2-41.69,13.18-9.31-12.95-26.8-19.43-42.3-15.68-15.51,3.75-28.09,17.51-30.46,33.29-8.13-2.38-16.98-3.15-24.97-.34-7.98,2.81-14.83,9.71-15.91,18.1-5.94-1.22-12.02-2.45-18.02-1.61-6,.84-12.02,4.18-14.4,9.76-3.52,8.27,2.69,18.28,11.14,21.36,8.44,3.08,17.96,.77,26.04-3.17,7.4,9.39,18.67,15.62,30.56,16.9,11.88,1.27,24.23-2.44,33.44-10.05,9.77,10.97,24.43,17.41,39.13,17.16,14.68-.25,29.13-7.17,38.51-18.47,9.99,7.79,32.93,17.07,43.66,5.95,4.52-4.69,5.83-12.22,3.13-18.16,6.58,.06,12.98-4.23,15.45-10.33,2.46-6.1,.82-13.63-3.95-18.16-9.66-9.15-19.99-2.85-27.04,5.36,.11-18.17-1.57-38.6-22.31-45.08Z" style="fill:#fff; fill-rule:evenodd;"/><path d="M1872.3,277.77c-8.13-2.38-16.98-3.15-24.97-.34-7.98,2.81-14.83,9.71-15.91,18.1-5.94-1.22-12.02-2.45-18.02-1.61-6,.84-12.02,4.18-14.4,9.76-3.52,8.27,2.69,18.28,11.14,21.36,8.44,3.08,17.96,.77,26.04-3.17,7.4,9.39,18.67,15.62,30.56,16.9,11.88,1.27,24.23-2.44,33.44-10.05,9.77,10.97,24.43,17.41,39.13,17.16,14.68-.25,29.13-7.17,38.51-18.47,9.99,7.79,32.93,17.07,43.66,5.95,4.52-4.69,5.83-12.22,3.13-18.16,6.58,.06,12.98-4.23,15.45-10.33,2.46-6.1,.82-13.63-3.95-18.16-9.66-9.15-19.99-2.85-27.04,5.36,.08-14.08-.92-29.52-11.02-38.77,.92,10.2-.9,20.72-6.45,29.26-6.45,9.91-18.42,16.54-30.12,14.85-4.63-.67-9.22-2.7-12.14-6.36-3.83-4.79-3.64-11.78-7.45-16.43-3.04-3.73-8.27-5.41-12.33-7.62,4.62,2.5,6.63,8.52,5.39,13.62-1.24,5.11-5.18,9.24-9.78,11.78-6.83,3.76-15.4,4.34-22.53,1.21-7.13-3.12-12.59-9.97-13.74-17.67-1.26-8.4,2.52-16.97,8.29-23.2,3.41-3.67,7.46-6.63,11.77-9.2-2.08,.15-4.16,.46-6.2,.96-15.51,3.75-28.09,17.51-30.46,33.29Z" style="fill:#f0f3f9; fill-rule:evenodd;"/><path d="M1977.81,327.39c9.99,7.79,32.93,17.07,43.66,5.95,4.52-4.69,5.83-12.22,3.13-18.16,6.58,.06,12.98-4.23,15.45-10.33,2.46-6.1,.82-13.63-3.95-18.16,.61,4.48-.41,8.46-2.53,12.46-2.12,4-6.14,7.13-10.66,7.43-4.52,.3-9.24-2.7-10.24-7.11-1.35,2.6-.04,5.8,1.7,8.16,1.75,2.35,4,4.48,4.79,7.31,1.2,4.27-1.5,8.89-5.27,11.21-3.78,2.33-8.37,2.85-12.79,3.02-8.31,.34-15.45,1-23.29-1.78Z" style="fill:#e3edf3; fill-rule:evenodd;"/><path d="M1939.3,345.86c-14.69,.25-29.36-6.19-39.13-17.16-9.21,7.62-21.56,11.32-33.44,10.05-11.89-1.27-23.16-7.51-30.56-16.9-8.07,3.95-17.59,6.25-26.04,3.17-8.44-3.08-14.66-13.09-11.14-21.36,.32,7.18,7.75,12.96,14.67,14.89,6.92,1.93,14.31,.74,21.3-.91-1.5-4.26-1.85-8.91-.98-13.34,5.39,7.5,11.85,14.85,20.55,17.93,5.14,1.82,10.7,2.01,16.15,2.08,6.67,.08,13.46-.03,19.84-1.99,6.38-1.96,12.39-6.04,15.24-12.08-4.27,9.03,8.81,20.92,14.95,25.32,6.27,4.48,13.35,7.68,20.41,10.75l-1.82-.46Z" style="fill:#e3edf3; fill-rule:evenodd;"/></g><g><path d="M1678.15,394.96c-6.47-4.53-15.36-5.33-22.53-2.02,.52-13.5-2.84-27.8-12.29-37.44-9.46-9.65-25.91-13-36.85-5.07-9.28-16.26-28.25-26.47-46.93-25.25-18.69,1.23-36.17,13.82-43.23,31.17-30.8-9.44-62.47,10.68-72.43,40.1-7.84-.9-16.12-1.74-23.3,1.5-7.19,3.24-12.45,12.14-8.91,19.18,1.15,2.3,3.08,4.13,5.09,5.74,14.64,11.7,34.51,13.83,53.21,15.16,12.37,.88,24.9,1.6,37.09-.67,12.2-2.27,24.19-7.84,31.91-17.54,5.36,8.06,16.26,9.81,25.89,10.72,29.15,2.75,58.88,4.59,87.85-.74,9.93-1.83,22.7-2.39,30.17-10.12,8.29-8.57,4.15-18.49-4.74-24.71Z" style="fill:#fff; fill-rule:evenodd;"/><path d="M1443.89,396.45c-7.84-.9-16.12-1.74-23.3,1.5-7.19,3.24-12.45,12.14-8.91,19.18,1.15,2.3,3.08,4.13,5.09,5.74,14.64,11.7,34.51,13.83,53.21,15.16,12.37,.88,24.9,1.6,37.09-.67,12.2-2.27,24.19-7.84,31.91-17.54,5.36,8.06,16.26,9.81,25.89,10.72,29.15,2.75,58.88,4.59,87.85-.74,9.93-1.83,22.7-2.39,30.17-10.12,8.29-8.57,4.15-18.49-4.74-24.71-6.47-4.53-15.36-5.33-22.53-2.02,.42-10.82-1.67-22.15-7.38-31.19,1.6,5.52,1.79,11.36-.14,16.73-4.21,11.7-16.75,15.92-27.34,10.31-9.24-4.89-15.19-14.96-16.22-25.36-2.26,20.13-19.54,37.56-39.65,40-20.1,2.44-41.05-10.37-48.05-29.37-1.72,9.81-8.07,18.7-16.79,23.5-8.72,4.8-19.64,5.42-28.84,1.63-4.71-1.94-9.16-5.21-11.09-9.93-2.71-6.65,.23-14.29,4.33-20.18,1.09-1.57,2.28-3.06,3.53-4.5-10.98,7.62-19.67,18.83-24.08,31.87Z" style="fill:#f0f3f9; fill-rule:evenodd;"/><path d="M1538.97,419.81c5.36,8.06,16.26,9.81,25.89,10.72,29.15,2.75,58.88,4.59,87.85-.74,9.93-1.83,22.7-2.39,30.17-10.12,8.29-8.57,4.15-18.49-4.74-24.71,1.82,8.01-4.11,16.32-11.56,19.77-7.46,3.45-16.03,3.27-24.21,2.77,5.41-3.11,9.47-8.49,10.96-14.55-14.29,14.15-38.38,17.1-55.65,6.81-2.63,5.22-8.04,8.44-13.43,10.69-14.6,6.11-31.26,6.72-45.28-.64Z" style="fill:#e3edf3; fill-rule:evenodd;"/><path d="M1411.67,417.13c1.15,2.3,3.08,4.13,5.09,5.74,14.64,11.7,34.51,13.83,53.21,15.16,12.37,.88,24.9,1.6,37.09-.67,12.2-2.27,24.19-7.84,31.91-17.54-8.38-3.32-16.33-10.78-19.94-19.04,1.7,6.84-2.76,14.08-8.89,17.57-6.12,3.49-13.49,3.97-20.54,3.72-14.25-.51-29.34-4.19-38.94-14.74,3.45,9.14,11.77,15.83,20.94,19.18,9.17,3.36,19.16,3.73,28.92,3.24-3.37,2.24-7.52,2.94-11.55,3.38-25.79,2.85-54.99-2.76-77.31-16Z" style="fill:#e3edf3; fill-rule:evenodd;"/></g><g><path d="M168.39,1070.77s-18.05-21.06-1.11-34.43c0,0,12.36-7.49,22.45-6.88,0,0-14.29,23.97-9.67,26.35,4.62,2.38,14-27.84,14-27.84,0,0,28.15-2.74,37.21,1.62,0,0-24.07,19.7-18.99,20.87,5.05,1.17,31.06-18.16,31.06-18.16,0,0,26.19,4.46,24.79,20.44-1.39,15.98-10.43,20.91-14.4,20.49-3.95-.42-27.16-9.29-27.67-6.04-.5,3.25,13.46,13.88,23.24,14.38,0,0-18.47,20.37-30.73,14.49-12.28-5.88-13.34-15.2-20.97-18.7-7.66-3.5-14.19-3.48-11.02,.08,3.16,3.57,17,7.04,21.38,14.78,4.37,7.73,8.31,12.96-4.41,11.04-12.69-1.91-33.33-11.2-34.25-21.84l-.9-10.64Z" style="fill:#b0c2e4; fill-rule:evenodd;"/><path d="M255.26,1053.15s-71.15-2.74-86.87,17.61c0,0-3.48,10.4-14.16,19.88l-1.68,4.55s12.32-13,16.74-13.79c0,0-6.9-25.21,85.97-28.25Z" style="fill:#9db2d9; fill-rule:evenodd;"/><path d="M154.24,1090.64s-15.28,11.3-16.35,31.48l2.77,.24s4.89-20.87,13.7-29.03c8.83-8.16-.12-2.7-.12-2.7Z" style="fill:#9db2d9; fill-rule:evenodd;"/><path d="M105.3,1044.28s28.71-16.07,15.32-37.89c0,0-10.74-13.39-22.21-16.84,0,0,6.13,32.54,0,33.3-6.11,.76-4.22-36.74-4.22-36.74,0,0-30.24-14.54-42.1-13.4,0,0,18.76,31.77,12.64,31.01-6.13-.76-27.18-32.92-27.18-32.92,0,0-31-5.74-35.99,12.64-4.97,18.37,3.08,27.56,7.66,28.7,4.58,1.15,34.08,.77,33.31,4.6-.78,3.83-20.68,9.95-31.78,6.51,0,0,12.24,30.24,28.32,28.71,16.08-1.54,21.05-11.49,31-12.26,9.95-.76,17.23,1.92,12.27,4.6-4.99,2.68-21.83,.88-29.88,7.72-8.02,6.83-14.54,11.04,.4,14.1,14.92,3.06,41.72,1.16,47.07-10.33l5.37-11.49Z" style="fill:#c4d1eb; fill-rule:evenodd;"/><path d="M15.74,989.16s80.37,26.04,89.56,55.12c0,0-.38,13.01,7.64,27.94v5.73s-8.4-19.51-13.01-22.19c0,0,17.99-25.26-84.2-66.61Z" style="fill:#b0c2e4; fill-rule:evenodd;"/><path d="M112.94,1072.23s12.41,18.82,5.35,41.74l-3.19-.86s3.09-25.24-3.4-37.93c-6.47-12.7,1.24-2.95,1.24-2.95Z" style="fill:#b0c2e4; fill-rule:evenodd;"/><path d="M150.97,1022.11s-37.84-21.19-20.19-49.95c0,0,14.13-17.66,29.26-22.2,0,0-8.06,42.89,0,43.9,8.08,1.01,5.56-48.44,5.56-48.44,0,0,39.86-19.17,55.51-17.66,0,0-24.73,41.89-16.65,40.87,8.06-1.01,35.81-43.39,35.81-43.39,0,0,40.88-7.57,47.43,16.65,6.55,24.21-4.03,36.32-10.09,37.83-6.06,1.52-44.91,1.01-43.89,6.05,.99,5.05,27.24,13.12,41.87,8.58,0,0-16.14,39.86-37.32,37.84-21.2-2.01-27.75-15.13-40.88-16.14-13.12-1.01-22.71,2.53-16.14,6.05,6.55,3.53,28.75,1.15,39.35,10.17,10.6,9,19.18,14.55-.52,18.58-19.67,4.04-54.99,1.51-62.06-13.61l-7.05-15.14Z" style="fill:#c4d1eb; fill-rule:evenodd;"/><path d="M269.04,949.46s-105.96,34.31-118.07,72.65c0,0,.5,17.15-10.1,36.83v7.57s11.12-25.73,17.15-29.26c0,0-23.71-33.3,111.02-87.79Z" style="fill:#b0c2e4; fill-rule:evenodd;"/><path d="M140.87,1058.95s-16.33,24.82-7.01,55.02l4.2-1.13s-4.09-33.27,4.47-50.01c8.54-16.73-1.66-3.88-1.66-3.88Z" style="fill:#b0c2e4; fill-rule:evenodd;"/><path d="M168.99,1176.92c31.58-8.49,54.84-37.32,54.84-71.59H75.57c0,34.27,23.26,63.1,54.83,71.59h38.59Z" style="fill:#b0c2e4; fill-rule:evenodd;"/><path d="M139.43,1176.92c-31.59-8.49-54.83-37.32-54.83-71.59h18.43c0,34.26,23.23,63.1,54.81,71.59h-18.41Z" style="fill:#e0e8f5; fill-rule:evenodd;"/><rect x="73.14" y="1105.34" width="152.38" height="2.28" style="fill:#9db2d9;"/></g><g><path d="M1163.73,1034.3c.05,2.61,.19,4.8,.39,6.33-.2-1.52-.35-3.71-.39-6.33Z" style="fill:#ecebe8; fill-rule:evenodd;"/><path d="M1084.07,840.76c-1.92-2.48-4.55-4.36-7.19-6.01-.7-.43-1.72-.14-2.1,.59-2.04,3.8-3.93,7.7-6.27,11.34-.77,1.2-1.87,2.79-2.85,3.5-.06,.04-.31,.17-.42,.23-.02-.02-.03-.04-.05-.07-.19-.29-.3-.59-.4-.92-1.83-5.6,.39-11.59-1.05-17.23-.76-2.98-2.65-6.09-4.8-8.26-2.33-2.37-5.46-3.47-6.92-6.66-.22-.48-.62-.7-1.04-.74h-.29c-.52,.05-1.05,.33-1.34,.76-3.37,4.84-8.08,9.85-8.98,15.9-.8,5.37,2.11,9.87,5.21,13.95,1.5,1.97,2.98,3.99,4.14,6.17,.64,1.21,1.75,3.4,.58,4.58-1.22,1.24-3.08-.97-4.04-1.97-1.97-2.04-3.65-4.37-5.36-6.63-2.83-3.74-7.32-9.43-12.65-8.39-2.35,.45-3.31,2.88-3.43,5-.2,3.36,1.45,6.98,3.11,9.81,3.75,6.4,11.36,8.26,16.26,13.43,1.13,1.19,4.21,5.26,2.44,6.92-.62,.58-2.06,.39-2.79,.27-1.8-.27-3.77-.94-5.21-2.04-5.51-4.27-7.51-11.67-13.29-15.7-2.54-1.76-6.44-2.85-9.5-2.13-2.58,.62-3.78,3.06-3.89,5.51-.14,2.97,1.21,6.04,2.71,8.52,1.73,2.87,4.11,5.27,7.02,6.93,5.83,3.31,13.21,3.73,17.09,9.84,.53,.83,1.1,1.92,.85,2.94-.2,.79-1.32,1.04-1.98,1.19-2.99,.65-6.92-.45-9.54-1.85-3.17-1.69-5.48-4.75-7.92-7.3-2.57-2.7-5.44-4.9-9.04-6-2.62-.79-5.84-.67-7.52,1.79-1.55,2.24-1.23,5.27-.6,7.76,.84,3.3,2.63,6.36,4.85,8.91,2.39,2.78,6.15,4.34,9.53,5.48,3.51,1.18,7.15,1.89,10.63,3.2,.92,.34,1.63,.59,2.63,.66,1.07,.08,2.16,.03,3.2,.3,.89,.23,.3,1.17,0,1.8-.72,1.54-3.02,1.48-4.47,1.6-1.38,.11-2.74,.45-4.11,.46-1.58,.01-3.16-.28-4.72-.51-3.08-.48-6.35-1.01-9.4-.09-2.95,.89-5.03,3.68-5.57,6.66-1.11,6.26,5.89,10.07,11.08,10.87,3.33,.51,6.34-.21,9.27-1.86,3.61-2.04,6.44-4.98,10.6-5.49,.27,1.66-.33,3-1.8,4.25-2.04,1.71-4.85,2.64-7.31,3.56-4.84,1.8-11.92,3.4-14.52,8.41-.31,.61-.25,1.37,.27,1.86,2.29,2.19,4.93,3.91,8.16,4.17,2.68,.21,5.29-1.03,7.46-2.47,3.88-2.57,7.22-6.58,11.58-8.38-.61,1.1-1.61,1.85-2.83,2.8-2.18,1.69-3.29,4.04-3.9,6.67-.91,4.01,.48,8.34,5.18,8.36,2.56,0,5.13-1.28,7.27-2.57,2.45-1.47,4.41-3.6,5.93-5.99,1.88-2.97,2.93-6.39,3.51-9.89,3.93,7.65,12.46,15.65,20.51,9.03,6.87-5.65-4.45-9.99-8.92-14.44,.88,.36,1.74,.82,2.55,1.23,2.33,1.2,4.6,2.52,7.03,3.5,4.54,1.86,9.64,1.68,12.36-3,2.35-4.03-2.52-5.9-5.5-6.79-2.43-.74-6.99-1.53-8.76-3.98,6,.67,12.69,1.41,17.86-2.06,2.35-1.57,5.17-4.6,5.45-7.56,.23-2.41-2.38-3.27-4.27-3.46-5.12-.5-10.11,1.76-15.24,1.6-1.24-.05-2.46-.17-3.67-.45-.45-.1-.91-.23-1.34-.42-.16-.07-.33-.21-.44-.3,.03-.07,.07-.15,.15-.24,.45-.53,1.05-.92,1.63-1.31,1.32-.86,2.69-1.37,4.26-1.54,2.98-.31,5.96,.06,8.94-.45,3.34-.58,6.06-2.52,8.27-5.02,1.96-2.21,3.86-5.02,4.16-8.04,.33-3.12-1.57-5.23-4.35-6.3-7.79-2.98-12.35,5.07-17.91,8.72-1.47,.97-3.22,1.61-4.9,2.13-.68,.2-2.69,.9-3.36,.37-.4-.33,.92-2.44,1.18-2.85,1.12-1.82,2.55-3.07,4.38-4.13,4.65-2.66,10.32-3.48,13.98-7.69,2.41-2.76,4.3-7.43,1.94-10.8-2.5-3.56-8.05-2.6-11.19-.53-3.95,2.62-5.94,7.91-10.69,9.17-.41-2.25,.47-4.33,1.99-6.33,2.22-2.94,5.07-5.34,7.71-7.87,2.52-2.44,5.11-5.08,6.43-8.39,1.34-3.38,.48-6.8-1.7-9.62Z" style="fill:#9db2d9; fill-rule:evenodd;"/><path d="M1201.51,949.15c.76-3.05,.6-6.27,.26-9.36-.09-.83-.95-1.44-1.76-1.3-4.26,.76-8.49,1.68-12.79,2.1-1.42,.14-3.35,.26-4.51-.07-.08-.03-.33-.14-.44-.2,0-.02,.01-.04,.02-.08,.11-.33,.28-.61,.47-.89,3.27-4.9,9.34-6.87,12.89-11.49,1.87-2.44,3.14-5.84,3.52-8.88,.41-3.3-.67-6.43,.94-9.55,.59-1.14-.62-2.16-1.66-2.1-5.89,.36-12.74-.25-18.05,2.79-4.71,2.7-6.44,7.75-7.73,12.71-.62,2.41-1.29,4.81-2.29,7.08-.55,1.25-1.58,3.47-3.23,3.29-1.73-.19-1.14-3.02-.95-4.4,.38-2.81,1.18-5.57,1.89-8.32,1.18-4.54,2.87-11.58-1.24-15.13-1.81-1.57-4.32-.81-6.05,.4-2.77,1.94-4.59,5.46-5.78,8.5-2.71,6.92,.54,14.04-.48,21.09-.23,1.63-1.52,6.57-3.93,6.21-.84-.13-1.57-1.37-1.94-2.01-.89-1.58-1.59-3.53-1.61-5.36-.06-6.96,4.51-13.12,4.1-20.16-.18-3.09-1.75-6.83-4.21-8.78-2.08-1.64-4.73-1.07-6.73,.35-2.42,1.73-3.99,4.69-5.01,7.41-1.18,3.14-1.6,6.48-1.1,9.81,1,6.64,5.24,12.69,2.84,19.51-.33,.94-.83,2.06-1.79,2.48-.75,.33-1.63-.39-2.16-.83-2.37-1.94-3.93-5.71-4.46-8.63-.64-3.54,.34-7.24,.84-10.74,.53-3.68,.48-7.3-.89-10.81-1-2.55-3.09-4.99-6.06-4.81-2.72,.17-4.9,2.29-6.47,4.34-2.08,2.7-3.37,6.01-4.01,9.33-.7,3.59,.4,7.52,1.6,10.87,1.24,3.48,2.94,6.79,4.06,10.33,.29,.93,.54,1.64,1.11,2.47,.61,.89,1.32,1.71,1.75,2.7,.37,.84-.73,.95-1.42,1.12-1.66,.39-3.03-1.46-4.02-2.53-.94-1.01-2.05-1.87-2.91-2.94-.99-1.24-1.74-2.66-2.51-4.03-1.54-2.72-3.13-5.62-5.75-7.45-2.53-1.77-6-1.68-8.67-.25-5.6,3-4.27,10.86-1.68,15.43,1.66,2.93,4.1,4.84,7.2,6.13,3.83,1.57,7.9,1.97,10.87,4.93-1.14,1.23-2.56,1.6-4.45,1.21-2.61-.54-5.08-2.18-7.32-3.54-4.41-2.69-10.05-7.26-15.59-6.21-.68,.14-1.24,.65-1.3,1.36-.3,3.16-.02,6.3,1.78,8.99,1.49,2.24,4.08,3.52,6.55,4.33,4.42,1.45,9.63,1.61,13.75,3.9-1.24,.21-2.45-.11-3.95-.48-2.68-.67-5.21-.08-7.66,1.07-3.71,1.75-6.25,5.52-3.36,9.23,1.57,2.03,4.18,3.25,6.51,4.13,2.67,1.01,5.56,1.23,8.38,.95,3.5-.36,6.83-1.65,9.94-3.36-3.58,7.82-4.58,19.47,5.6,21.7,8.69,1.89,5.09-9.68,5.81-15.95,.26,.92,.44,1.87,.61,2.77,.51,2.57,.87,5.18,1.6,7.7,1.36,4.71,4.65,8.6,10.01,7.85,4.62-.66,3.08-5.63,1.93-8.54-.93-2.37-3.13-6.43-2.3-9.34,3.2,5.12,6.75,10.84,12.67,12.76,2.69,.87,6.81,1.21,9.31-.4,2.04-1.31,1.1-3.89,.08-5.49-2.78-4.34-7.63-6.86-10.68-10.99-.73-.99-1.39-2.04-1.92-3.15-.2-.42-.39-.86-.5-1.3-.05-.17-.03-.39-.04-.53,.07-.02,.16-.05,.28-.03,.7,.01,1.38,.24,2.04,.46,1.49,.49,2.74,1.27,3.84,2.4,2.09,2.15,3.64,4.72,5.89,6.73,2.53,2.27,5.73,3.21,9.05,3.4,2.95,.17,6.33-.08,8.9-1.7,2.65-1.68,3.14-4.47,2.25-7.32-2.48-7.97-11.63-6.56-17.94-8.67-1.67-.56-3.26-1.54-4.7-2.53-.59-.41-2.38-1.56-2.37-2.41,0-.51,2.49-.78,2.96-.84,2.12-.23,3.99,.1,5.96,.89,4.96,2.01,9.12,5.95,14.69,6.22,3.66,.18,8.5-1.22,9.69-5.15,1.26-4.18-2.94-7.94-6.51-9.12-4.49-1.48-9.88,.22-13.81-2.72,1.51-1.73,3.68-2.32,6.2-2.36,3.67-.08,7.33,.69,10.95,1.18,3.47,.48,7.15,.88,10.57-.14,3.49-1.04,5.64-3.84,6.5-7.29Z" style="fill:#9db2d9; fill-rule:evenodd;"/><path d="M992.81,864.32c-2.93-1.13-6.14-1.39-9.25-1.44-.82-.02-1.54,.76-1.51,1.57,.21,4.31,.59,8.64,.46,12.96-.05,1.42-.17,3.35-.65,4.46-.03,.08-.18,.3-.25,.41-.02,0-.04-.02-.07-.03-.31-.14-.57-.35-.82-.58-4.45-3.86-5.63-10.14-9.77-14.24-2.19-2.16-5.4-3.84-8.37-4.62-3.22-.82-6.47-.15-9.35-2.13-1.06-.73-2.22,.35-2.29,1.38-.39,5.88-1.87,12.6,.48,18.26,2.08,5.02,6.88,7.37,11.64,9.27,2.3,.92,4.6,1.88,6.73,3.17,1.17,.7,3.25,2.01,2.86,3.63-.41,1.68-3.14,.74-4.48,.38-2.75-.73-5.38-1.86-8.01-2.92-4.35-1.74-11.13-4.31-15.17-.68-1.78,1.6-1.35,4.18-.37,6.05,1.56,2.99,4.84,5.24,7.71,6.81,6.51,3.56,13.99,1.24,20.85,3.15,1.58,.44,6.32,2.35,5.66,4.68-.23,.82-1.56,1.38-2.25,1.67-1.68,.68-3.71,1.13-5.52,.92-6.91-.81-12.44-6.13-19.48-6.61-3.08-.21-6.99,.87-9.23,3.06-1.9,1.86-1.67,4.55-.51,6.72,1.41,2.62,4.15,4.55,6.71,5.91,2.96,1.57,6.24,2.41,9.59,2.33,6.71-.16,13.25-3.59,19.72-.36,.88,.45,1.93,1.08,2.24,2.09,.23,.77-.6,1.57-1.09,2.03-2.22,2.12-6.16,3.18-9.12,3.34-3.59,.18-7.15-1.25-10.55-2.19-3.59-1-7.18-1.41-10.84-.49-2.65,.66-5.35,2.44-5.53,5.39-.18,2.72,1.65,5.15,3.48,6.96,2.42,2.41,5.53,4.1,8.75,5.16,3.47,1.15,7.51,.56,10.99-.21,3.61-.79,7.11-2.06,10.76-2.72,.96-.17,1.7-.33,2.6-.79,.96-.49,1.86-1.09,2.9-1.4,.87-.26,.85,.84,.93,1.55,.18,1.7-1.83,2.82-3.02,3.67-1.12,.8-2.11,1.79-3.28,2.51-1.35,.82-2.86,1.38-4.31,1.98-2.89,1.18-5.96,2.39-8.1,4.76-2.07,2.29-2.43,5.74-1.35,8.57,2.27,5.94,10.23,5.61,15.09,3.62,3.12-1.27,5.33-3.45,6.99-6.37,2.04-3.6,2.96-7.58,6.27-10.15,1.09,1.29,1.27,2.73,.64,4.57-.86,2.51-2.8,4.76-4.44,6.81-3.23,4.03-8.48,9.05-8.12,14.68,.04,.68,.49,1.3,1.18,1.46,3.09,.69,6.25,.81,9.15-.63,2.4-1.2,4-3.6,5.12-5.96,2-4.19,2.81-9.34,5.61-13.13,.05,1.25-.42,2.41-.98,3.85-1,2.57-.75,5.16,.1,7.73,1.27,3.9,4.69,6.9,8.74,4.5,2.21-1.3,3.75-3.74,4.92-5.93,1.34-2.53,1.92-5.37,2-8.2,.09-3.51-.78-6.98-2.07-10.28,7.3,4.53,18.73,7,22.23-2.81,2.99-8.38-8.95-6.27-15.08-7.79,.94-.14,1.91-.2,2.82-.26,2.62-.17,5.24-.21,7.84-.61,4.85-.76,9.13-3.53,9.05-8.94-.06-4.66-5.19-3.77-8.22-3-2.47,.64-6.78,2.29-9.55,1.1,5.49-2.52,11.6-5.33,14.26-10.96,1.2-2.56,2.06-6.61,.78-9.29-1.04-2.18-3.73-1.57-5.44-.77-4.65,2.21-7.77,6.7-12.25,9.22-1.08,.6-2.19,1.12-3.37,1.5-.44,.14-.9,.28-1.36,.33-.17,.02-.39-.01-.53-.03-.01-.08-.02-.17,0-.28,.12-.7,.43-1.33,.73-1.97,.68-1.42,1.6-2.56,2.86-3.51,2.4-1.8,5.15-3.01,7.43-4.99,2.57-2.21,3.9-5.27,4.51-8.55,.54-2.91,.72-6.29-.56-9.03-1.33-2.84-4.04-3.68-6.98-3.16-8.21,1.45-7.98,10.7-10.87,16.69-.76,1.59-1.94,3.04-3.11,4.34-.48,.53-1.85,2.16-2.69,2.04-.5-.07-.46-2.57-.45-3.04,.03-2.13,.6-3.95,1.63-5.8,2.62-4.68,7.06-8.3,8.03-13.79,.64-3.61-.14-8.6-3.89-10.27-3.98-1.77-8.24,1.91-9.87,5.31-2.04,4.27-1.03,9.83-4.45,13.35-1.51-1.72-1.83-3.94-1.56-6.45,.4-3.65,1.61-7.19,2.56-10.71,.91-3.38,1.77-6.98,1.2-10.5-.59-3.59-3.09-6.09-6.4-7.38Z" style="fill:#9db2d9; fill-rule:evenodd;"/><path d="M1142.32,906.74c-.42-3.11-1.76-6.05-3.21-8.79-.39-.73-1.42-.98-2.11-.56-3.68,2.27-7.27,4.7-11.12,6.67-1.27,.65-3.02,1.48-4.21,1.59-.08,.01-.35,0-.48-.02,0-.02,0-.04,0-.08-.02-.35,.04-.67,.11-1,1.23-5.76,6.15-9.84,7.74-15.44,.84-2.96,.76-6.6,0-9.55-.84-3.22-2.99-5.74-2.65-9.23,.12-1.27-1.38-1.77-2.32-1.33-5.34,2.5-11.93,4.46-15.75,9.26-3.38,4.25-3.12,9.59-2.49,14.66,.3,2.46,.57,4.95,.48,7.43-.05,1.36-.19,3.81-1.79,4.24-1.68,.46-2.18-2.38-2.51-3.73-.68-2.75-.96-5.61-1.31-8.43-.57-4.65-1.6-11.82-6.74-13.6-2.26-.79-4.31,.83-5.48,2.6-1.86,2.82-2.25,6.77-2.23,10.05,.03,7.42,5.69,12.85,7.34,19.78,.37,1.59,1,6.66-1.36,7.22-.83,.18-1.98-.7-2.55-1.17-1.42-1.14-2.79-2.7-3.48-4.39-2.63-6.45-.65-13.86-3.63-20.25-1.31-2.8-4.15-5.71-7.15-6.6-2.54-.77-4.79,.74-6.12,2.8-1.61,2.5-1.98,5.84-1.93,8.73,.06,3.36,.91,6.63,2.6,9.52,3.38,5.8,9.55,9.86,9.85,17.09,.04,1-.01,2.22-.75,2.97-.57,.58-1.66,.23-2.31,.03-2.92-.93-5.76-3.85-7.33-6.38-1.9-3.06-2.36-6.85-3.19-10.29-.87-3.62-2.25-6.96-4.81-9.71-1.87-2.01-4.71-3.51-7.4-2.24-2.46,1.16-3.71,3.93-4.42,6.41-.93,3.28-.91,6.83-.28,10.15,.67,3.6,3.14,6.84,5.5,9.52,2.45,2.78,5.24,5.22,7.59,8.1,.62,.76,1.11,1.33,1.95,1.9,.89,.61,1.85,1.1,2.62,1.86,.65,.64-.33,1.16-.91,1.56-1.4,.98-3.35-.23-4.67-.86-1.24-.6-2.59-.98-3.79-1.66-1.37-.78-2.59-1.83-3.82-2.81-2.43-1.95-4.98-4.06-8.09-4.79-3-.7-6.2,.65-8.15,2.97-4.11,4.86,.03,11.66,4.13,14.96,2.62,2.11,5.6,3,8.96,3.03,4.14,.05,8.07-1.08,11.92,.57-.6,1.57-1.79,2.44-3.69,2.77-2.62,.47-5.52-.14-8.11-.58-5.09-.88-12.02-3.05-16.78,0-.58,.36-.91,1.06-.71,1.74,.89,3.04,2.31,5.86,4.97,7.7,2.21,1.54,5.09,1.76,7.69,1.61,4.65-.28,9.54-2.07,14.22-1.45-1.07,.66-2.32,.8-3.85,1.01-2.73,.36-4.88,1.84-6.72,3.82-2.8,3-3.77,7.45,.28,9.83,2.21,1.29,5.08,1.47,7.57,1.43,2.86-.04,5.62-.92,8.14-2.22,3.12-1.62,5.74-4.06,8-6.78-.44,8.58,2.93,19.78,13.21,18.09,8.78-1.45,1.16-10.87-.48-16.96,.58,.75,1.1,1.57,1.59,2.35,1.42,2.2,2.72,4.49,4.32,6.57,3,3.88,7.5,6.28,12.2,3.6,4.05-2.32,.79-6.36-1.35-8.65-1.74-1.85-5.28-4.83-5.58-7.82,4.86,3.59,10.27,7.57,16.49,7.17,2.82-.18,6.78-1.38,8.5-3.8,1.41-1.98-.42-4.03-1.96-5.13-4.18-3.01-9.62-3.56-13.99-6.28-1.05-.65-2.04-1.38-2.95-2.21-.34-.32-.68-.66-.95-1.03-.1-.15-.17-.35-.23-.48,.06-.04,.14-.09,.24-.14,.67-.23,1.38-.27,2.07-.31,1.57-.1,3.02,.16,4.46,.81,2.74,1.23,5.13,3.04,7.96,4.09,3.19,1.17,6.51,.86,9.67-.19,2.81-.93,5.86-2.41,7.64-4.87,1.85-2.53,1.27-5.31-.61-7.63-5.25-6.48-13.23-1.81-19.87-1.44-1.76,.1-3.6-.23-5.3-.62-.7-.16-2.78-.58-3.09-1.37-.18-.47,2.02-1.65,2.44-1.87,1.88-1.01,3.75-1.38,5.87-1.37,5.35,.03,10.68,2.16,15.95,.36,3.47-1.18,7.45-4.28,7.1-8.37-.37-4.34-5.66-6.3-9.42-6.07-4.72,.27-9.1,3.84-13.84,2.56,.77-2.15,2.57-3.51,4.89-4.48,3.39-1.42,7.07-2.07,10.62-2.94,3.4-.84,6.97-1.83,9.77-4.03,2.86-2.26,3.83-5.66,3.36-9.19Z" style="fill:#b0c2e4; fill-rule:evenodd;"/><path d="M1119.58,876.94c-1.79,7.75-3.33,15.56-5.56,23.2-2.29,7.84-5.54,15.09-10.01,21.93-9.25,14.11-21.02,26.34-30.54,40.25-.4,.58-.32,1.14-.01,1.56-1.84,3.47-2.9,7.42-3.67,11.18-1.34,6.57-1.74,13.3-2.01,19.99-.32,8.17-.26,16.29,.12,24.46,.45,9.6,1.08,19.2,.68,28.81-.03,.56-.06,1.12-.09,1.68-.11,1.98,2.97,1.97,3.08,0,.53-9.38-.02-18.78-.47-28.15-.41-8.36-.6-16.68-.3-25.03,.23-6.47,.55-12.95,1.66-19.33,1.01-5.8,2.61-12.37,6.99-16.62,.62-.6,.56-1.36,.17-1.91,8.9-12.09,19.11-23.21,27.35-35.8,4.41-6.73,7.56-14,9.87-21.71,2.34-7.78,3.88-15.78,5.71-23.69,.44-1.94-2.53-2.75-2.97-.82Z" style="fill:#b0c2e4; fill-rule:evenodd;"/><path d="M1069.26,1050.46c-1.67-14.99-8.57-28.4-15.72-41.45-7.09-12.93-14.55-26.04-16.72-40.84-.29-1.97-3.26-1.13-2.97,.82,4.34,29.55,29,51.65,32.33,81.48,.22,1.96,3.31,1.98,3.09,0Z" style="fill:#b0c2e4; fill-rule:evenodd;"/><path d="M1114.59,980.2c-13.2,5.77-26.12,14.57-34.98,26.05-4.83,6.26-7.68,13.39-9.46,20.85-.67-7.79-2.1-15.49-3.59-23.15-3.47-17.88-6.15-35.84-7.83-53.99-.67-7.2-1.16-14.42-1.49-21.64-.09-1.98-3.18-1.98-3.09,0,.92,20.05,3.23,39.99,6.34,59.81,2.1,13.41,5.66,26.65,6.69,40.21-1.16-7.32-2.91-14.56-5.16-21.61-3.22-10.07-7.54-19.86-13.16-28.83,.03-.39-.08-.79-.4-1.15-.38-.43-.77-.86-1.16-1.26-1.39-2.1-2.85-4.15-4.4-6.14-.68-.89-1.68-.57-2.19,.15-2.36-1.81-4.88-3.42-7.6-4.83-6.34-3.28-14.23-5.4-17.26-12.59-.77-1.82-3.43-.25-2.66,1.56,3.02,7.14,10.39,9.79,16.82,12.92,5.78,2.81,10.66,6.42,15.03,11.02,6.16,9.38,10.76,19.8,14.16,30.46,4.13,12.94,6.49,26.53,6.52,40.12,0,.07,0,.14,.02,.21-.21,1.01,.59,1.67,1.43,1.73,.41,1.4,2.9,1.21,3.03-.56,1.13-14.59,2.79-29.9,12.13-41.78,8.63-10.99,21.13-19.35,33.83-24.89,1.82-.79,.25-3.45-1.56-2.66Z" style="fill:#9db2d9; fill-rule:evenodd;"/><path d="M1022.3,876.61c-2.8-1.41-5.98-1.98-9.07-2.33-.82-.09-1.61,.62-1.65,1.42-.21,4.32-.25,8.66-.79,12.95-.18,1.41-.49,3.31-1.07,4.37-.04,.06-.21,.28-.28,.39-.02-.01-.05-.02-.08-.04-.29-.17-.52-.4-.76-.65-4.05-4.27-4.62-10.63-8.34-15.11-1.97-2.37-5.01-4.36-7.89-5.4-3.12-1.13-6.42-.79-9.1-3.04-.98-.82-2.24,.14-2.41,1.17-.96,5.82-3.07,12.36-1.28,18.22,1.59,5.19,6.14,8,10.69,10.35,2.21,1.14,4.4,2.32,6.39,3.81,1.1,.81,3.04,2.31,2.49,3.88-.57,1.65-3.2,.45-4.5-.04-2.66-1-5.17-2.38-7.69-3.68-4.17-2.16-10.66-5.37-15.03-2.15-1.93,1.42-1.75,4.03-.95,5.99,1.27,3.12,4.31,5.69,7.01,7.53,6.14,4.17,13.82,2.57,20.46,5.14,1.53,.6,6.06,2.94,5.18,5.21-.31,.79-1.69,1.24-2.4,1.45-1.74,.51-3.8,.76-5.59,.37-6.8-1.48-11.79-7.3-18.75-8.46-3.05-.51-7.05,.19-9.48,2.16-2.07,1.67-2.1,4.37-1.15,6.64,1.15,2.74,3.69,4.93,6.11,6.52,2.8,1.86,5.97,3,9.31,3.25,6.7,.48,13.54-2.3,19.66,1.55,.84,.52,1.82,1.26,2.03,2.29,.16,.79-.75,1.5-1.28,1.92-2.42,1.88-6.44,2.56-9.41,2.43-3.59-.17-6.99-1.93-10.29-3.2-3.48-1.33-7.01-2.09-10.74-1.53-2.71,.4-5.56,1.9-6.03,4.84-.44,2.69,1.14,5.28,2.78,7.27,2.17,2.62,5.11,4.62,8.21,5.98,3.34,1.47,7.42,1.27,10.96,.85,3.67-.44,7.27-1.36,10.97-1.67,.98-.08,1.73-.16,2.66-.54,1-.39,1.96-.89,3.03-1.11,.89-.17,.76,.92,.77,1.63,.02,1.7-2.09,2.63-3.35,3.36-1.2,.68-2.27,1.58-3.51,2.18-1.42,.69-2.97,1.1-4.48,1.56-2.99,.89-6.17,1.82-8.53,3.95-2.28,2.09-2.97,5.49-2.17,8.41,1.68,6.13,9.64,6.58,14.67,5.06,3.22-.97,5.64-2.92,7.57-5.66,2.38-3.39,3.68-7.27,7.22-9.51,.96,1.38,1,2.84,.19,4.61-1.1,2.43-3.25,4.47-5.07,6.35-3.6,3.7-9.31,8.19-9.5,13.82-.03,.69,.36,1.35,1.03,1.57,3.02,.99,6.14,1.41,9.17,.26,2.51-.95,4.33-3.19,5.67-5.43,2.4-3.98,3.7-9.03,6.86-12.54-.07,1.25-.65,2.37-1.35,3.75-1.24,2.46-1.24,5.05-.65,7.7,.9,4.01,4.01,7.32,8.26,5.33,2.32-1.09,4.09-3.36,5.47-5.44,1.58-2.38,2.43-5.15,2.78-7.96,.43-3.49-.09-7.03-1.07-10.43,6.83,5.21,17.97,8.78,22.4-.65,3.79-8.06-8.3-7.11-14.26-9.21,.95-.05,1.92,0,2.83,0,2.62,.08,5.24,.3,7.86,.16,4.9-.28,9.42-2.63,9.87-8.02,.39-4.65-4.81-4.25-7.9-3.78-2.51,.38-6.96,1.62-9.61,.17,5.71-1.99,12.06-4.18,15.25-9.53,1.45-2.43,2.69-6.38,1.67-9.17-.82-2.28-3.55-1.93-5.33-1.29-4.84,1.75-8.38,5.92-13.09,7.98-1.13,.49-2.29,.89-3.5,1.18-.45,.09-.92,.18-1.39,.2-.17,0-.38-.06-.52-.09,0-.07,0-.17,.03-.27,.19-.68,.55-1.29,.91-1.89,.82-1.35,1.84-2.39,3.19-3.21,2.56-1.56,5.41-2.51,7.88-4.25,2.77-1.97,4.39-4.89,5.32-8.08,.82-2.84,1.33-6.19,.31-9.05-1.05-2.97-3.67-4.06-6.64-3.82-8.32,.66-8.98,9.88-12.44,15.56-.92,1.51-2.22,2.84-3.51,4.03-.53,.48-2.05,1.97-2.88,1.77-.49-.12-.21-2.6-.16-3.07,.23-2.12,.98-3.87,2.19-5.61,3.06-4.4,7.82-7.57,9.33-12.94,.99-3.53,.69-8.57-2.88-10.59-3.79-2.15-8.39,1.11-10.34,4.33-2.44,4.06-1.97,9.69-5.72,12.86-1.34-1.85-1.43-4.1-.92-6.57,.75-3.59,2.3-6.99,3.58-10.41,1.23-3.28,2.44-6.78,2.2-10.34-.23-3.63-2.48-6.36-5.66-7.96Z" style="fill:#c4d1eb; fill-rule:evenodd;"/><polygon points="1104.27 1141.1 1037.76 1141.1 1015.99 1055.1 1124.52 1055.1 1104.27 1141.1" style="fill:#b0c2e4; fill-rule:evenodd;"/><rect x="1008.74" y="1043.92" width="121.53" height="11.18" style="fill:#9db2d9;"/><polygon points="1070.26 1055.1 1015.99 1055.1 1037.76 1141.1 1070.26 1141.1 1070.26 1055.1" style="fill:#9db2d9; fill-rule:evenodd;"/><rect x="1008.74" y="1043.92" width="61.52" height="11.18" style="fill:#859ac6;"/><polygon points="1104.27 1142.39 1037.76 1142.39 1015.99 1130.78 1124.52 1130.78 1104.27 1142.39" style="fill:#9db2d9; fill-rule:evenodd;"/><polygon points="1070.26 1130.78 1015.99 1130.78 1037.76 1142.39 1070.26 1142.39 1070.26 1130.78" style="fill:#859ac6; fill-rule:evenodd;"/></g></svg>