<?xml version="1.0" encoding="UTF-8"?><svg id="a" xmlns="http://www.w3.org/2000/svg" viewBox="0 0 2181.73 1571.41"><path d="M1061.31,0c265.83,0,377.83,190.21,569.74,338.06,254,195.69,507.98,68.3,548.65,729.49,36.19,588.48-415.47,63.71-1052.3,274.51C490.57,1552.86-158.02,1637.75,34.43,955.71,226.89,273.67,443.64,0,1061.31,0Z" style="fill:#e0e8f5; fill-rule:evenodd;"/><path d="M1157.16,211.83h-433.29c3.11-13.16,14.93-22.95,29.04-22.95,.68,0,1.36,.02,2.03,.07,6.84-16.75,23.3-28.56,42.52-28.56,8.41,0,16.28,2.26,23.05,6.2,8.26-27.23,33.57-47.07,63.51-47.07,6.09,0,12,.83,17.6,2.37,14.5-32,46.71-54.26,84.13-54.26,44.37,0,81.43,31.32,90.29,73.07,.75-.03,1.49-.06,2.24-.06,28.43,0,51.89,21.26,55.36,48.74,11.59,2.17,20.83,11.05,23.52,22.45Z" style="fill:#fff; fill-rule:evenodd;"/><path d="M831.66,228.18s-10.38,9.35-11,8.38c-.47-.72,5.53-5.49,10.62-11.88,1.32-1.62,2.6-3.26,3.76-4.76,3.08-3.98,1.49-6.99-2.39-3.37-1.37,1.32-3.61,3.5-4.97,5.25-1.46,1.92-3.45,3.25-4.93,4.7-2.97,2.84-5.08,4.89-5.14,4.7-.05-.24-1.06-.06,.27-1.86,1.62-2.17,6.05-5.97,8.16-9.35,1.2-1.86,3.95-5.66,3.95-5.66,0,0,3.77-6.69,3.44-6.99-1.79-1.69-5.87,2.35-7.14,5.12-1.74,1.39-4.51,5.49-4.51,5.49,0,0-7.51,6.99-8.54,5.97-.85-.84,13.81-21.16,11.91-22.66-1.55-1.27-6.25,4.64-6.25,4.64,0,0-2.54,3.74-3.51,4.95-1.09,1.38-4.74,5.36-4.74,5.36,0,0-13.38,13.08-14.27,12.06-.89-1.08-2.07-4.7-1.54-5.84,.55-1.08,2.61-2.59,3.15-3.68,.54-1.08,.3-2.95-1.02-3.73-1.34-.79-6.02,3.49-6.02,3.49,0,0-3.76,3.56-4.8,6.94-3.54,11.87-1.41,12-1.9,13.5-.6,1.75-20.39,17.36-20.39,17.36l-50.31,39.25-74.76,19.17-.65,39.43s80.76-23.03,84.76-24.96c0,0,65.63-65.59,70.53-70.23,0,0,10.44-4.46,16.9-7.48,6.47-3.01,11.22-8.74,12.91-9.88,.24-.12,5.64-4.22,10.91-10.97,4.55-5.85-2.49-2.41-2.49-2.41Z" style="fill:#f9af79; fill-rule:evenodd;"/><path d="M794.52,243.38c3.25-4.53,4.33-9.23,2.75-14.47,4.2,4.64,1.95,11.87-2.75,14.47Z" style="fill:#f48661; fill-rule:evenodd;"/><path d="M1402.89,228.18s10.39,9.35,11.01,8.38c.47-.72-5.53-5.49-10.62-11.88-1.32-1.62-2.6-3.26-3.76-4.76-3.08-3.98-1.49-6.99,2.39-3.37,1.37,1.32,3.61,3.5,4.97,5.25,1.46,1.92,3.45,3.25,4.94,4.7,2.96,2.84,5.08,4.89,5.14,4.7,.06-.24,1.06-.06-.28-1.86-1.62-2.17-6.04-5.97-8.16-9.35-1.21-1.86-3.95-5.66-3.95-5.66,0,0-3.77-6.69-3.44-6.99,1.79-1.69,5.87,2.35,7.14,5.12,1.75,1.39,4.51,5.49,4.51,5.49,0,0,7.51,6.99,8.53,5.97,.86-.84-13.8-21.16-11.91-22.66,1.57-1.27,6.26,4.64,6.26,4.64,0,0,2.53,3.74,3.51,4.95,1.09,1.38,4.74,5.36,4.74,5.36,0,0,13.39,13.08,14.27,12.06,.89-1.08,2.08-4.7,1.54-5.84-.56-1.08-2.62-2.59-3.16-3.68-.53-1.08-.29-2.95,1.02-3.73,1.35-.79,6.03,3.49,6.03,3.49,0,0,3.75,3.56,4.8,6.94,3.55,11.87,1.41,12,1.91,13.5,.6,1.75,20.39,17.36,20.39,17.36l50.3,39.25,74.77,19.17,.65,39.43s-80.75-23.03-84.76-24.96c0,0-65.63-65.59-70.54-70.23,0,0-10.44-4.46-16.89-7.48-6.47-3.01-11.23-8.74-12.91-9.88-.24-.12-5.64-4.22-10.91-10.97-4.55-5.85,2.48-2.41,2.48-2.41Z" style="fill:#f9af79; fill-rule:evenodd;"/><path d="M1440.04,243.38c-3.25-4.53-4.33-9.23-2.75-14.47-4.2,4.64-1.95,11.87,2.75,14.47Z" style="fill:#f48661; fill-rule:evenodd;"/><path d="M455.64,1072.85H97.73c2.57-10.87,12.33-18.96,23.99-18.96,.55,0,1.12,.02,1.68,.06,5.65-13.83,19.25-23.59,35.12-23.59,6.95,0,13.45,1.87,19.04,5.13,6.83-22.5,27.73-38.89,52.46-38.89,5.03,0,9.91,.68,14.53,1.96,11.98-26.43,38.59-44.82,69.49-44.82,36.65,0,67.27,25.88,74.58,60.36,.62-.02,1.23-.05,1.85-.05,23.48,0,42.86,17.57,45.72,40.26,9.58,1.8,17.21,9.12,19.43,18.53Z" style="fill:#fff; fill-rule:evenodd;"/><path d="M1602.19,762.19h-357.92c2.57-10.87,12.34-18.97,24-18.97,.56,0,1.12,.02,1.68,.07,5.64-13.84,19.25-23.59,35.12-23.59,6.94,0,13.45,1.87,19.04,5.13,6.83-22.5,27.73-38.89,52.46-38.89,5.03,0,9.91,.69,14.54,1.96,11.97-26.43,38.58-44.83,69.49-44.83,36.67,0,67.27,25.88,74.59,60.36,.62-.02,1.23-.05,1.85-.05,23.49,0,42.87,17.57,45.73,40.26,9.57,1.8,17.2,9.12,19.43,18.54Z" style="fill:#fff; fill-rule:evenodd;"/><path d="M208.46,1367.88c-24.66,64.85-42.59,132.98-52.91,203.53H469.79c8.87-40.62,21.47-79.85,37.4-117.29,16.02-37.66,35.43-73.53,57.84-107.23l-73.08-47.08c-4.06-1.31-9.11-1.33-13.68,.06-3.89,1.19-7.32,3.42-9.17,6.77-3.41,6.16-1.63,16.24,.36,27.47,3,16.97,6.38,36.13-4.24,55.16l-2.01,3.36c-10.63,16.49-28.02,26.28-47.56,29.19-19.03,2.82-40.2-.92-59.01-11.42l-5.37-3.21-5.15-3.56c-17.35-12.79-29.53-30.53-34.82-49.05-5.42-18.97-3.7-38.84,6.92-55.33l2.23-3.21c12.92-17.53,31.8-22.37,48.53-26.66,11.01-2.82,20.91-5.36,25.14-11.06,2.27-3.06,2.88-7.11,2.36-11.16-.61-4.73-2.71-9.31-5.56-12.46l-85.94-55.37c-38.64,58.68-71.13,121.84-96.5,188.54Z" style="fill:#e5bb9a; fill-rule:evenodd;"/><path d="M856.63,443l33.78,83.29c11.84-4.09,23.93-7.88,36.25-11.35,14.31-4.03,28.88-7.61,43.66-10.71,22.18-4.65,44.79-8.19,67.75-10.56,22.74-2.34,45.7-3.55,68.79-3.55,41.96,0,83.09,3.92,123.03,11.42,38.48,7.22,75.77,17.77,111.59,31.32l36.43-89.88,.67-.85c4.58-5.85,11.96-10.72,19.86-12.8,7.33-1.93,15.24-1.59,22.16,2.28,10.63,5.95,15.33,17.73,20.56,30.84,5.49,13.76,11.69,29.29,26.22,37.37l2.67,1.36c13.7,6.52,29.36,5.76,43.78-.45,14.87-6.4,28.38-18.52,37.25-34.49l2.43-4.74,2.16-4.92c6.79-16.95,7.67-35.09,3.26-50.67-4.28-15.09-13.57-27.71-27.25-34.22l-2.75-1.22c-15.43-6.16-31.41-1.17-45.57,3.26-13.42,4.2-25.49,7.98-36.87,3.46-7.38-2.89-12.65-8.83-15.77-15.74-3.36-7.44-4.25-16.22-2.61-23.45l.13-.6,36.56-88.59c-54.98-21.79-112.41-38.71-171.74-50.22-60.22-11.68-122.47-17.8-186.2-17.8-22.75,0-45.19,.77-67.31,2.28-22.53,1.53-44.8,3.84-66.78,6.87-36.77,5.07-72.82,12.19-108.04,21.21-33.2,8.52-65.85,18.79-97.82,30.74l39.4,95.5,.14,.6c1.65,7.23,.76,16-2.61,23.44-3.12,6.92-8.38,12.86-15.76,15.78-11.39,4.48-23.45,.72-36.88-3.49-14.15-4.43-30.14-9.42-45.53-3.26l-2.75,1.22c-13.71,6.51-23,19.13-27.28,34.22-4.41,15.58-3.53,33.72,3.26,50.67l2.16,4.9,2.43,4.76c8.87,15.96,22.38,28.08,37.25,34.49,14.42,6.21,30.08,6.97,43.78,.46l2.67-1.37c14.53-8.08,20.73-23.6,26.21-37.37,5.22-13.11,9.92-24.89,20.56-30.84,6.91-3.87,14.84-4.21,22.16-2.28,7.9,2.08,15.28,6.94,19.85,12.8l.66,.85Z" style="fill:#bf9071; fill-rule:evenodd;"/><path d="M354.69,1391.92h0Zm-22.55-87.29h0Zm-6.87,45.97c4.44,15.55,14.73,30.5,29.44,41.35l4.38,3.01,4.58,2.76c15.95,8.9,33.84,12.1,49.85,9.71,15.52-2.31,29.22-9.91,37.43-22.65l1.55-2.56c8.09-14.49,5.17-30.99,2.59-45.6-2.45-13.85-4.65-26.31,1.29-37.03,3.84-6.93,10.39-11.37,17.65-13.6,7.83-2.38,16.64-2.15,23.58,.41l.75,.28,74.82,48.21c38.6-55.38,85.47-104.62,138.81-145.9,52.66-40.77,111.61-73.77,175.11-97.29l-32.8-80.88c-2.75-3.13-6.94-5.72-11.49-6.92-3.94-1.03-8.03-.95-11.36,.92-6.21,3.48-9.99,12.96-14.2,23.5-6.39,16.04-13.61,34.13-32.64,44.7l-3.47,1.82c-17.74,8.42-37.65,7.59-55.77-.22-17.68-7.62-33.72-21.95-44.18-40.8l-2.88-5.56c-.84-1.74-1.68-3.67-2.51-5.75-8-19.99-9.02-41.47-3.77-60,5.38-18.99,17.31-34.99,35.02-43.42l3.6-1.56c20.23-8.1,38.8-2.3,55.25,2.86,10.88,3.4,20.66,6.46,27.22,3.86,3.54-1.43,6.19-4.55,7.86-8.24,2-4.44,2.62-9.53,1.8-13.74l-39.05-94.66c-91.73,35.83-176.68,85.19-252.39,145.62-76.33,60.93-143.28,133.11-198.32,214.02l87.07,56.1,.6,.61c5.2,5.27,9.07,13.2,10.13,21.31,.98,7.51-.36,15.31-5.09,21.67-7.28,9.81-19.55,12.95-33.21,16.46-14.35,3.68-30.54,7.83-40.43,21.23l-1.68,2.45c-8.22,12.76-9.47,28.39-5.16,43.49Z" style="fill:#d0a382; fill-rule:evenodd;"/><path d="M1902.44,1304.65h0Zm-328.27-270.84c-10.47,18.84-26.5,33.18-44.19,40.8-18.12,7.81-38.04,8.64-55.74,.22l-3.5-1.82c-19.02-10.57-26.24-28.67-32.63-44.7-4.21-10.55-7.99-20.02-14.2-23.5-3.33-1.87-7.42-1.95-11.36-.92-4.55,1.2-8.74,3.79-11.49,6.92l-35.62,87.86c59.77,24.15,115.22,56.76,164.83,96.35,50.14,40,94.36,87.14,131.09,139.85l74.82-48.21,.76-.27c6.93-2.56,15.76-2.8,23.59-.41,7.24,2.21,13.79,6.66,17.63,13.6,5.94,10.72,3.75,23.18,1.3,37.02-2.58,14.62-5.5,31.11,2.59,45.6l1.56,2.56c8.21,12.75,21.91,20.35,37.43,22.65,16.02,2.38,33.9-.82,49.85-9.72l4.57-2.76,4.4-3.04c14.69-10.84,24.98-25.78,29.42-41.34,4.31-15.1,3.06-30.74-5.16-43.49l-1.7-2.47c-9.86-13.37-26.06-17.53-40.4-21.21-13.65-3.5-25.94-6.64-33.22-16.46-4.72-6.35-6.06-14.15-5.09-21.66,1.06-8.12,4.92-16.04,10.13-21.32l.58-.61,87.09-56.1c-53.25-78.27-117.63-148.37-190.85-208.01-72.67-59.18-154.08-108.08-242-144.46l-36.08,87.48c-.82,4.21-.21,9.31,1.8,13.74,1.67,3.7,4.31,6.81,7.86,8.21,6.55,2.63,16.33-.43,27.21-3.83,16.46-5.15,35.03-10.96,55.27-2.86l3.6,1.56c17.7,8.44,29.63,24.44,35.01,43.43,5.25,18.52,4.24,40-3.77,60l-2.5,5.72-2.88,5.59Z" style="fill:#d0a382; fill-rule:evenodd;"/><path d="M1877.93,1410.41c-18.81,10.49-39.97,14.25-59.01,11.42-19.54-2.91-36.92-12.69-47.56-29.19l-2.01-3.36c-10.62-19.02-7.23-38.18-4.24-55.16,1.99-11.22,3.77-21.31,.36-27.47-1.84-3.35-5.27-5.58-9.18-6.76-4.57-1.4-9.62-1.37-13.69-.07l-73.08,47.09c22.41,33.69,41.82,69.56,57.84,107.22,15.94,37.44,28.53,76.67,37.4,117.29h314.24c-10.32-70.55-28.25-138.69-52.92-203.53-25.37-66.71-57.85-129.87-96.49-188.54l-85.94,55.37c-2.85,3.15-4.95,7.72-5.56,12.45-.52,4.04,.08,8.08,2.36,11.15,4.23,5.69,14.13,8.23,25.14,11.06,16.72,4.3,35.6,9.14,48.52,26.66l2.23,3.21c10.62,16.49,12.34,36.35,6.91,55.33-5.3,18.53-17.47,36.27-34.82,49.06l-5.15,3.55-5.37,3.22Z" style="fill:#e5bb9a; fill-rule:evenodd;"/><path d="M1558.27,302.46l-7.14,46.59s75.17,41.72,96.76,24.54c21.61-17.24-2.97-59.25-11.26-62.99-8.3-3.8-78.36-8.13-78.36-8.13Z" style="fill:#466fb5; fill-rule:evenodd;"/><path d="M1692.16,901.9c-.5-4.46,1.14-10.49,.5-17.73-4.9-56.37-15.49-183.68-15.49-183.68,0,0-11.99-100.85-12.91-164.69,12.91-1.14,25.57-3.37,38.05-6.51,27.18-6.93,45.39-18.02,71.29-30.56,14.14,52.09,40.31,147.7,40.31,147.7,0,0-.05,20.37,27.05,20.37,23.79,0,122.61,82.71,142.16,95-2.53,5.97-8.92,11.87-11.82,17.78-31.4-25.68-193.19-84.76-193.19-84.76l-43.89-111.28s-13.19,136.42-2.56,147.09c10.65,10.61-18.87,163.48-18.87,171.26,0,.97-12.42-.18-20.63,0Z" style="fill:#f9af79; fill-rule:evenodd;"/><path d="M1737.46,554.55s-9.46,150.83-4.72,159.69c4.72,8.87,8.27,23.63,4.72,60.89-3.54,37.26-14.18,102.36-14.18,102.36l-34.9,1.15-14.19-178.01-12.14-165.06-.3-3.5,47.32-35.5,28.38,57.99Z" style="fill:#20386f; fill-rule:evenodd;"/><path d="M1962.21,737.87l-15.37,27.8s-139.32-45.88-168.56-67.41c-11.24-8.25-57.98-121.22-57.98-121.22l-36.86-43.77-.39-24.29,79.16-34.79s28.76,32.38,34.39,45.46c14.08,32.61,23.65,140.16,23.65,140.16,0,0-1.17-4.16,25.43,2.96,26.62,7.11,116.52,75.11,116.52,75.11Z" style="fill:#223f81; fill-rule:evenodd;"/><path d="M1616.21,307.58l31.56-10.31s15.17-.61,25.79,2.83c12.63,4.1,22.38,18.62,31.37,35.63,21.85,41.24,35.26,103.69,43.18,120.02,2.66,5.54,29.57,29.6,46.47,37.32-25.88,12.54-65.1,29.3-92.27,36.23-12.48,3.14-27.34,5.19-40.25,6.34-.1-6.27-6.48-40.09-19.82-71.32-16.42-38.34-40.66-76.26-43.88-97.05-5.8-37.74,17.85-59.68,17.85-59.68Z" style="fill:#6d96ce; fill-rule:evenodd;"/><path d="M1612.72,291.3l3.12,18.92s3.13,14.77,10.24,14.23c8.57-.72,22.1-26.88,22.1-26.88l-11.06-38.4-24.4,32.13Z" style="fill:#f9af79; fill-rule:evenodd;"/><path d="M1635.26,265.5c-.61,19.41-11.57,29.71-21.18,34.06l-1.36-8.26,22.67-29.84c-.03,1.38-.07,2.77-.13,4.04Z" style="fill:#f27458; fill-rule:evenodd;"/><path d="M1598.78,222.1c-7.16,1.08-12.67,3.98-14.1,11.45-1.18,6.27,.97,15.14,.78,25.44-.32,19.05,9.15,37.86,18.55,37.86,9.41-.06,30.41-9.47,31.25-36.47,.4-11.64,.88-26.83-9.57-33.22-8.13-4.95-18.67-6.27-26.91-5.06Z" style="fill:#f9af79; fill-rule:evenodd;"/><path d="M1641.02,272.73s16.83-26.04,14.83-48.83c-2-22.79-19.15-31.4-37.09-29.36-8.08,.97-53.78,12.96-47.49,27,8.45,18.82,47.25,2.71,55.76,7.66,7.01,4.1-1.31,17.73,5.49,21.46,6.36,3.5,3.22,2.41,2.6,10.97-.65,8.56,5.91,11.09,5.91,11.09Z" style="fill:#20386f; fill-rule:evenodd;"/><path d="M1643.85,252.78c.02,5.54-2.68,10.01-6.03,10.01-3.36,.06-6.08-4.46-6.1-9.95,0-5.54,2.69-10.07,6.05-10.07s6.08,4.46,6.08,10.01Z" style="fill:#f9af79; fill-rule:evenodd;"/><path d="M1956.69,771.03s9.31-6.03,10.41-9.47c1.1-3.5-1.54-12.18,2.31-14.17,3.85-2.05,28.46,6.09,32.14,8.87,4.52,3.43,6.29,8.8,5.18,12.36-1.13,3.5-33.88,62.81-40.81,70.35-6.93,7.54-15.54-9.11-10.39-19.47,5.12-10.37-.83-32.19,1.17-48.46Z" style="fill:#0e2952; fill-rule:evenodd;"/><path d="M1692.19,883.29s7.13,8.46,10.67,9.16c3.58,.65,11.89-3,14.34,.57,2.45,3.57-2.64,29.02-4.91,32.96-2.86,4.95-7.98,7.32-11.64,6.63-3.65-.67-66.49-26-74.79-31.95-8.33-5.96,7.17-16.54,18.08-12.71,10.9,3.84,31.85-4.73,48.26-4.66Z" style="fill:#0e2952; fill-rule:evenodd;"/><path d="M1483.9,515.3s12.19-6.84,11.47-7.73c-.53-.67-6.98,3.47-14.65,6.24-1.96,.72-3.92,1.42-5.72,2.03-4.75,1.64-7.1-.84-2.43-3.35,1.69-.87,4.47-2.29,6.56-3.03,2.3-.77,4.19-2.22,6.04-3.16,3.64-1.9,6.26-3.25,6.1-3.36-.21-.12,.28-1.02-1.86-.33-2.57,.83-7.59,3.8-11.47,4.73-2.15,.54-6.63,1.92-6.63,1.92,0,0-7.55,1.42-7.73,1.01-1.03-2.23,4.11-4.8,7.14-5.12,1.87-1.21,6.64-2.51,6.64-2.51,0,0,9.03-4.86,8.39-6.17-.53-1.07-24.47,6.29-25.29,4.01-.7-1.88,6.41-4.43,6.41-4.43,0,0,4.35-1.21,5.8-1.74,1.66-.59,6.6-2.77,6.6-2.77,0,0,16.69-8.47,16-9.64-.75-1.19-3.8-3.48-5.04-3.33-1.21,.17-3.3,1.64-4.5,1.8-1.2,.16-2.9-.67-3.21-2.16-.32-1.52,5.25-4.57,5.25-4.57,0,0,4.57-2.42,8.11-2.33,12.37,.47,11.81,2.51,13.39,2.53,1.85,0,23-13.74,23-13.74l53.31-35.05,42.15-64.66,37.55,12.04s-47.73,69.09-50.84,72.27c0,0-83.19,41.11-89.15,44.26,0,0-7.58,8.47-12.51,13.6-4.93,5.16-11.88,7.83-13.5,9.06-.2,.19-5.81,3.99-13.9,6.81-6.99,2.43-1.48-3.13-1.48-3.13Z" style="fill:#f9af79; fill-rule:evenodd;"/><path d="M1662.34,301.25c10.57-.31,29.16,2.65,29.16,30.62s-42.94,83.67-42.94,83.67l-40.22-32.74s23.56-80.78,54.01-81.56Z" style="fill:#466fb5; fill-rule:evenodd;"/><path d="M1607.27,238.16c7.01-1.54,19.04,6,15.13,6.79-1.27,.25-4.85-1.91-6.23-2.28-2.75-.76-8.07-.38-9.57-2.19-.62-.74-.22-2.11,.67-2.31Z" style="fill:#20386f; fill-rule:evenodd;"/><path d="M1596.61,240.35c-1.5,1.81-6.81,1.42-9.56,2.18-1.38,.37-4.96,2.52-6.24,2.25-3.9-.78,8.16-8.37,15.14-6.75,1,.24,1.28,1.59,.67,2.32Z" style="fill:#20386f; fill-rule:evenodd;"/><path d="M1613.56,254.93c2.02,0,3.61-7.72-1.31-7.72-2.63,0-2.01,7.72,1.31,7.72Z" style="fill:#20386f; fill-rule:evenodd;"/><path d="M1588.29,254.98c-2.03,0-3.62-7.72,1.3-7.72,2.63,0,2.02,7.72-1.3,7.72Z" style="fill:#20386f; fill-rule:evenodd;"/><path d="M1596.55,268.02c.5-.73-.85-1.32-1.63-1.83-2.88-1.87-3.6-.39,2.78-13,1.23-2.47,2.2-3.7,1.3-4.11-.84-.37-1,.72-2.42,3.53-6.92,13.74-6.29,11.96-.9,15.58,.28,.19,.68,.12,.87-.16Z" style="fill:#ed7d57; fill-rule:evenodd;"/><path d="M1606.02,279.56c.83-1.51-1.33-1.1-14.6-2.51-3.98-.41,7.72,15.04,14.6,2.51Z" style="fill:#ed7d57; fill-rule:evenodd;"/><path d="M676.29,302.46l7.14,46.59s-75.17,41.72-96.77,24.54c-21.61-17.24,2.97-59.25,11.26-62.99,8.3-3.8,78.36-8.13,78.36-8.13Z" style="fill:#466fb5; fill-rule:evenodd;"/><path d="M542.39,901.9c.51-4.46-1.13-10.49-.5-17.73,4.9-56.37,15.49-183.68,15.49-183.68,0,0,11.98-100.85,12.91-164.69-12.91-1.14-25.57-3.37-38.05-6.51-27.17-6.93-45.39-18.02-71.29-30.56-14.14,52.09-40.32,147.7-40.32,147.7,0,0,.05,20.37-27.05,20.37-23.78,0-122.6,82.71-142.16,95,2.53,5.97,8.93,11.87,11.82,17.78,31.4-25.68,193.19-84.76,193.19-84.76l43.89-111.28s13.19,136.42,2.56,147.09c-10.64,10.61,18.87,163.48,18.87,171.26,0,.97,12.43-.18,20.63,0Z" style="fill:#f9af79; fill-rule:evenodd;"/><path d="M497.09,554.55s9.46,150.83,4.73,159.69c-4.73,8.87-8.27,23.63-4.73,60.89,3.54,37.26,14.18,102.36,14.18,102.36l34.9,1.15,14.19-178.01,12.14-165.06,.29-3.5-47.32-35.5-28.38,57.99Z" style="fill:#20386f; fill-rule:evenodd;"/><path d="M272.33,737.87l15.38,27.8s139.32-45.88,168.56-67.41c11.24-8.25,57.97-121.22,57.97-121.22l36.87-43.77,.38-24.29-79.16-34.79s-28.75,32.38-34.39,45.46c-14.08,32.61-23.65,140.16-23.65,140.16,0,0,1.17-4.16-25.44,2.96-26.62,7.11-116.53,75.11-116.53,75.11Z" style="fill:#223f81; fill-rule:evenodd;"/><path d="M618.34,307.58l-31.56-10.31s-15.17-.61-25.79,2.83c-12.63,4.1-22.39,18.62-31.37,35.63-21.85,41.24-35.27,103.69-43.19,120.02-2.65,5.54-29.57,29.6-46.47,37.32,25.88,12.54,65.1,29.3,92.27,36.23,12.48,3.14,27.35,5.19,40.26,6.34,.1-6.27,6.47-40.09,19.81-71.32,16.41-38.34,40.66-76.26,43.87-97.05,5.81-37.74-17.85-59.68-17.85-59.68Z" style="fill:#6d96ce; fill-rule:evenodd;"/><path d="M621.83,291.3l-3.12,18.92s-3.13,14.77-10.24,14.23c-8.57-.72-22.09-26.88-22.09-26.88l11.06-38.4,24.4,32.13Z" style="fill:#f9af79; fill-rule:evenodd;"/><path d="M599.29,265.5c.61,19.41,11.57,29.71,21.18,34.06l1.36-8.26-22.67-29.84c.04,1.38,.08,2.77,.13,4.04Z" style="fill:#f27458; fill-rule:evenodd;"/><path d="M635.78,222.1c7.16,1.08,12.67,3.98,14.1,11.45,1.19,6.27-.96,15.14-.78,25.44,.32,19.05-9.15,37.86-18.55,37.86-9.41-.06-30.41-9.47-31.26-36.47-.39-11.64-.87-26.83,9.57-33.22,8.13-4.95,18.68-6.27,26.92-5.06Z" style="fill:#f9af79; fill-rule:evenodd;"/><path d="M593.54,272.73s-16.82-26.04-14.82-48.83c2-22.79,19.14-31.4,37.08-29.36,8.09,.97,53.78,12.96,47.49,27-8.45,18.82-47.25,2.71-55.75,7.66-7.01,4.1,1.3,17.73-5.49,21.46-6.36,3.5-3.22,2.41-2.6,10.97,.65,8.56-5.92,11.09-5.92,11.09Z" style="fill:#20386f; fill-rule:evenodd;"/><path d="M590.7,252.78c-.02,5.54,2.69,10.01,6.03,10.01,3.36,.06,6.08-4.46,6.1-9.95,0-5.54-2.69-10.07-6.05-10.07s-6.08,4.46-6.08,10.01Z" style="fill:#f9af79; fill-rule:evenodd;"/><path d="M277.87,771.03s-9.32-6.03-10.41-9.47c-1.09-3.5,1.54-12.18-2.32-14.17-3.84-2.05-28.46,6.09-32.13,8.87-4.52,3.43-6.29,8.8-5.17,12.36,1.12,3.5,33.87,62.81,40.81,70.35,6.92,7.54,15.53-9.11,10.39-19.47-5.12-10.37,.83-32.19-1.17-48.46Z" style="fill:#0e2952; fill-rule:evenodd;"/><path d="M542.35,883.29s-7.12,8.46-10.67,9.16c-3.57,.65-11.89-3-14.34,.57-2.45,3.57,2.64,29.02,4.92,32.96,2.85,4.95,7.98,7.32,11.64,6.63,3.64-.67,66.48-26,74.79-31.95,8.33-5.96-7.17-16.54-18.07-12.71-10.9,3.84-31.85-4.73-48.27-4.66Z" style="fill:#0e2952; fill-rule:evenodd;"/><path d="M750.65,515.3s-12.18-6.84-11.46-7.73c.54-.67,6.97,3.47,14.65,6.24,1.96,.72,3.92,1.42,5.72,2.03,4.76,1.64,7.1-.84,2.43-3.35-1.7-.87-4.47-2.29-6.56-3.03-2.29-.77-4.19-2.22-6.04-3.16-3.63-1.9-6.26-3.25-6.1-3.36,.21-.12-.28-1.02,1.86-.33,2.57,.83,7.59,3.8,11.47,4.73,2.16,.54,6.63,1.92,6.63,1.92,0,0,7.55,1.42,7.73,1.01,1.03-2.23-4.11-4.8-7.14-5.12-1.87-1.21-6.64-2.51-6.64-2.51,0,0-9.03-4.86-8.39-6.17,.52-1.07,24.47,6.29,25.29,4.01,.7-1.88-6.4-4.43-6.4-4.43,0,0-4.35-1.21-5.81-1.74-1.66-.59-6.6-2.77-6.6-2.77,0,0-16.68-8.47-16-9.64,.75-1.19,3.79-3.48,5.05-3.33,1.2,.17,3.29,1.64,4.5,1.8,1.2,.16,2.89-.67,3.21-2.16,.31-1.52-5.24-4.57-5.24-4.57,0,0-4.58-2.42-8.11-2.33-12.38,.47-11.81,2.51-13.4,2.53-1.85,0-22.98-13.74-22.98-13.74l-53.31-35.05-42.15-64.66-37.54,12.04s47.73,69.09,50.84,72.27c0,0,83.18,41.11,89.15,44.26,0,0,7.58,8.47,12.5,13.6,4.93,5.16,11.88,7.83,13.5,9.06,.2,.19,5.81,3.99,13.9,6.81,7,2.43,1.48-3.13,1.48-3.13Z" style="fill:#f9af79; fill-rule:evenodd;"/><path d="M572.22,301.25c-10.57-.31-29.17,2.65-29.17,30.62s42.95,83.67,42.95,83.67l40.21-32.74s-23.56-80.78-54-81.56Z" style="fill:#466fb5; fill-rule:evenodd;"/><path d="M627.28,238.16c-7.01-1.54-19.04,6-15.12,6.79,1.27,.25,4.85-1.91,6.22-2.28,2.75-.76,8.07-.38,9.56-2.19,.62-.74,.22-2.11-.66-2.31Z" style="fill:#20386f; fill-rule:evenodd;"/><path d="M637.94,240.35c1.49,1.81,6.81,1.42,9.56,2.18,1.38,.37,4.96,2.52,6.24,2.25,3.9-.78-8.16-8.37-15.14-6.75-1,.24-1.29,1.59-.67,2.32Z" style="fill:#20386f; fill-rule:evenodd;"/><path d="M621,254.93c-2.03,0-3.61-7.72,1.31-7.72,2.64,0,2.02,7.72-1.31,7.72Z" style="fill:#20386f; fill-rule:evenodd;"/><path d="M646.27,254.98c2.04,0,3.62-7.72-1.3-7.72-2.63,0-2.02,7.72,1.3,7.72Z" style="fill:#20386f; fill-rule:evenodd;"/><path d="M638.01,268.02c-.5-.73,.85-1.32,1.63-1.83,2.88-1.87,3.6-.39-2.77-13-1.24-2.47-2.2-3.7-1.3-4.11,.84-.37,1,.72,2.41,3.53,6.92,13.74,6.29,11.96,.9,15.58-.28,.19-.67,.12-.87-.16Z" style="fill:#ed7d57; fill-rule:evenodd;"/><path d="M628.53,279.56c-.83-1.51,1.33-1.1,14.61-2.51,3.97-.41-7.73,15.04-14.61,2.51Z" style="fill:#ed7d57; fill-rule:evenodd;"/></svg>