<?xml version="1.0" encoding="UTF-8"?><svg id="a" xmlns="http://www.w3.org/2000/svg" viewBox="0 0 1908.68 1544.36"><g><path d="M956.86,1521.38c248.83,0,477.84,3.72,659.57,9.97,444.72-254.2,290.73-749.7,131.05-1029.96C1525.24,111.32,1000.11-28.88,782.9,282.34,488.07,704.77,203.66,557.36,50.09,878.18c-153.57,320.82,79.65,628.38,247.21,653.17,181.73-6.25,410.72-9.97,659.56-9.97Z" style="fill:#e0e8f5; fill-rule:evenodd;"/><path d="M1301.84,228.07c267.18,59.52,437.19,305.23,453.87,423.86,6.83,48.68-5.84-65.24-142.14-168.97-121.8-92.7-216.64-109.88-361.55-121.08-102.42-7.91-209.66-20.5-202.04-81.58,6.02-48.24,79.35-90.67,251.85-52.24h0Zm-698.65-99.38c46,2.76,74,40.53,75.92,84.09,.82,18.53-13.73-29.92-64.73-36.66-31.63-4.18-36.38,5.14-47.72-7.92-11.33-13.05-.57-41.74,36.52-39.51Z" style="fill:#fff; fill-rule:evenodd;"/></g><g><path d="M1557.34,971.7c-24.95,0-45.18-20.23-45.18-45.18s20.24-45.19,45.18-45.19,45.19,20.24,45.19,45.19-20.23,45.18-45.19,45.18h0Zm67.58,26.87h0Zm-37.9-186.13h0Zm-100.96,40.58h0Zm2.1,141.21c6.36,6.5,13.65,12.12,21.65,16.64l-1.23,22.98,19.09,6.75,13.51-18.64,5.22,.74h22.06s12.5,19.32,12.5,19.32l17.08-4.86,.59-.21,1.76-.67-.03-23.01,3.8-2.01,18.69-13.47,2.06,.79,19.4,7.48c4.56-4.97,8.7-10.35,12.35-16.07l-13.53-18.58c4.18-8,7.28-16.65,9.12-25.76l22.2-5.91,.53-20.27-21.87-7.08c-1.34-9.21-3.99-18.02-7.74-26.2l14.49-17.84c-3.34-5.9-7.19-11.49-11.49-16.69l-21.87,7.14-21.63-16.65,1.23-22.97c-6.1-2.77-12.49-5.06-19.11-6.75l-13.5,18.62-27.3-.71-12.5-19.33-19.43,5.75,.02,23.01c-8.24,4.09-15.79,9.3-22.49,15.47l-5.78-2.22-15.69-6.05c-4.56,4.98-8.69,10.35-12.35,16.07l13.54,18.57c-4.18,7.98-7.29,16.62-9.12,25.76l-22.21,5.91-.54,20.27,21.87,7.07c1.35,9.2,4,17.99,7.75,26.2l-14.49,17.84c3.35,5.9,7.19,11.48,11.48,16.69l21.87-7.13Z" style="fill:#c4d1eb; fill-rule:evenodd;"/><path d="M1620.4,979.89c-.54,0-1.08-.18-1.52-.55-1.01-.85-1.16-2.34-.31-3.35,11.52-13.86,17.87-31.43,17.87-49.48,0-8.64-1.42-17.12-4.2-25.22-.43-1.24,.22-2.6,1.47-3.03,1.25-.42,2.6,.24,3.02,1.47,2.96,8.6,4.46,17.61,4.46,26.78,0,19.16-6.72,37.81-18.96,52.52-.47,.57-1.14,.87-1.83,.87Z" style="fill:#fff; fill-rule:evenodd;"/><path d="M1613.71,870.78c-.58,0-1.17-.22-1.63-.65-7.75-7.29-16.73-12.81-26.66-16.42-1.23-.44-1.87-1.82-1.43-3.05,.45-1.24,1.81-1.87,3.05-1.43,10.57,3.83,20.08,9.7,28.3,17.43,.96,.9,1,2.41,.09,3.37-.46,.5-1.09,.76-1.72,.76Z" style="fill:#fff; fill-rule:evenodd;"/><path d="M1539.42,851.51c-1.07,0-2.04-.72-2.3-1.81-.31-1.27,.45-2.56,1.72-2.89,6.56-1.65,13.35-2.49,20.16-2.49,1.33,0,2.39,1.07,2.39,2.38s-1.07,2.38-2.39,2.38c-6.43,0-12.81,.79-18.99,2.36-.2,.06-.39,.07-.59,.07Z" style="fill:#fff; fill-rule:evenodd;"/></g><path d="M149.2,1021.23l-19.6,11.4c-6.61,3.83-8.87,12.38-5.02,19l4.32,7.44c5.1,8.77,2.88,12.75,1.3,14.17-4.37,3.91-8.41,8.14-12.47,12.36-1.19,1.23-4.98,5.48-14.95-.31l-6.84-3.97c-6.61-3.84-15.16-1.59-19,5.03l-11.4,19.59c-3.85,6.61-1.58,15.16,5.03,19.01l6.77,3.92c9.35,5.44,9.1,8.23,7.92,12.19-1.63,5.44-3.38,10.88-4.56,16.52-1.06,5.01-.58,8.59-13.29,8.59h-7.79c-7.65,0-13.9,6.25-13.9,13.9v22.68c0,7.66,6.25,13.89,13.9,13.89h7.79c12.71,0,12.23,3.59,13.29,8.6,1.19,5.63,2.93,11.07,4.56,16.51,1.18,3.97,1.42,6.75-7.92,12.2l-6.77,3.92c-6.61,3.85-8.88,12.4-5.03,19l11.4,19.6c3.85,6.6,12.39,8.87,19,5.03l6.84-3.97c9.97-5.79,13.75-1.56,14.95-.31,4.06,4.22,8.1,8.46,12.47,12.36,1.58,1.42,3.8,5.39-1.3,14.17l-4.32,7.44c-3.85,6.6-1.58,15.15,5.02,18.99l19.6,11.41c6.61,3.84,15.16,1.58,19-5.03l4.32-7.42c5.18-8.9,10.28-8.55,12.44-7.87,6.25,1.99,12.03,3.28,18.48,4.96,2.35,.62,6.39,2.32,6.39,12.94v7.96c0,7.66,6.25,13.9,13.9,13.9h22.67c7.66,0,13.91-6.25,13.91-13.9v-7.96c0-10.62,4.03-12.33,6.39-12.94,6.45-1.68,12.22-2.97,18.48-4.96,2.16-.68,7.25-1.03,12.44,7.87l4.32,7.42c3.85,6.61,12.39,8.87,19,5.03l19.6-11.41c6.61-3.84,8.88-12.39,5.03-18.99l-4.33-7.44c-5.1-8.78-2.88-12.75-1.29-14.17,4.36-3.91,8.41-8.14,12.46-12.36,1.19-1.24,4.98-5.48,14.95,.31l6.83,3.97c6.61,3.84,15.16,1.58,19-5.03l11.4-19.6c3.85-6.6,1.58-15.15-5.03-19l-6.77-3.92c-9.35-5.44-9.11-8.23-7.92-12.2,1.62-5.43,3.37-10.88,4.56-16.51,1.06-5.01,.58-8.6,13.29-8.6h7.79c7.66,0,13.9-6.24,13.9-13.89v-22.68c0-7.66-6.24-13.9-13.9-13.9h-7.79c-12.71,0-12.23-3.58-13.29-8.59-1.19-5.64-2.94-11.07-4.56-16.52-1.19-3.96-1.42-6.75,7.92-12.19l6.77-3.92c6.61-3.85,8.88-12.4,5.03-19.01l-11.4-19.59c-3.85-6.62-12.39-8.87-19-5.03l-6.83,3.97c-9.97,5.79-13.75,1.55-14.95,.31-4.06-4.22-8.1-8.46-12.46-12.36-1.59-1.42-3.81-5.4,1.29-14.17l4.33-7.44c3.85-6.61,1.58-15.16-5.03-19l-19.6-11.4c-6.61-3.85-15.16-1.59-19,5.03l-4.32,7.42c-5.18,8.91-10.28,8.56-12.44,7.88-6.25-1.99-12.03-3.28-18.48-4.96-2.35-.62-6.39-2.33-6.39-12.95v-7.95c0-7.66-6.25-13.9-13.91-13.9h-22.67c-7.66,0-13.9,6.25-13.9,13.9v7.95c0,10.62-4.03,12.33-6.39,12.95-6.45,1.68-12.22,2.97-18.48,4.96-2.16,.68-7.25,1.03-12.44-7.88l-4.32-7.42c-3.84-6.61-12.39-8.88-19-5.03h0Zm85.86,140.24c16.54,0,29.94,13.41,29.94,29.95s-13.41,29.94-29.94,29.94-29.94-13.4-29.94-29.94,13.4-29.95,29.94-29.95h0Zm-93.86,29.95c0-3.54,2.87-6.4,6.4-6.4s6.41,2.87,6.41,6.4c0,22.38,9.07,42.64,23.74,57.31,14.67,14.67,34.93,23.75,57.31,23.75,3.54,0,6.41,2.86,6.41,6.4s-2.87,6.4-6.41,6.4c-25.92,0-49.38-10.5-66.37-27.49-16.99-16.99-27.49-40.46-27.49-66.37h0Zm186.49-15.12c.55,3.48-1.82,6.75-5.31,7.31-3.48,.55-6.76-1.81-7.31-5.31-2.75-16.98-10.8-32.2-22.39-43.9-11.6-11.73-26.76-19.92-43.71-22.85-3.49-.59-5.83-3.89-5.23-7.38,.59-3.48,3.9-5.82,7.38-5.22,19.64,3.39,37.18,12.88,50.62,26.44,13.42,13.57,22.75,31.21,25.95,50.92h0Zm-92.63-96.1c61.42,0,111.22,49.79,111.22,111.21s-49.79,111.21-111.22,111.21-111.22-49.79-111.22-111.21,49.79-111.21,111.22-111.21Z" style="fill:#c4d1eb; fill-rule:evenodd;"/><path d="M927.65,1510.89c-465.62,0-843.08,7.49-843.08,16.74s377.47,16.74,843.08,16.74,843.08-7.49,843.08-16.74-377.46-16.74-843.08-16.74Z" style="fill:#c4d1eb; fill-rule:evenodd;"/><path d="M1473.74,1281.39s-8.82-2.02-10.3-1.92c-1.48,.1-6.67,2.27-6.74,2.69-.07,.42,.17,.77,1.07,.83,.9,.06,3.85-.31,3.67,.04-.18,.35-8.7,2.03-8.79,3.74-.09,1.71,4.57,4.89,8.5,5.1,3.93,.22,11.68-4.36,12.34-4.42,5.63-.48,.25-6.06,.25-6.06Z" style="fill:#f9af79; fill-rule:evenodd;"/><path d="M1469.96,1283.63c-1.26-4.03-.96-4.67-.96-4.67,0,0,35.74-19.33,39.01-21.29,3.27-1.96,40.21-41.27,40.21-41.27l37.84,10.42s-58.56,44.61-66.95,49.39c-13.86,7.94-45.98,12.44-45.98,12.44,0,0-2.18-1.86-3.18-5.02Z" style="fill:#466fb5; fill-rule:evenodd;"/><path d="M529.75,612.46s4.27-11.07,5.48-12.6c1.2-1.54,7.36-5.6,7.87-5.36,.51,.23,.7,.75,.11,1.77-.59,1.02-3.17,3.95-2.64,4.01,.52,.06,8.58-7.96,10.51-6.81,1.93,1.15,1.97,8.55-.68,12.98-2.66,4.44-13.31,9.5-13.85,10.18-4.66,5.76-6.79-4.17-6.79-4.17Z" style="fill:#f9af79; fill-rule:evenodd;"/><path d="M534.49,610.73c-3.63-2.46-4.36-2.36-4.36-2.36,0,0-29.97,29.8-32.9,32.46-2.93,2.67-53.16,27.66-53.16,27.66l-.98,40.8s61.98-44.92,69.27-51.84c12.06-11.43,26.17-42.06,26.17-42.06,0,0-1.2-2.73-4.05-4.67Z" style="fill:#466fb5; fill-rule:evenodd;"/><path d="M1081.96,584.46c52.25-3.31,94.76,48.45,94.76,108.22s-42.51,111.52-94.76,108.22c-47.16-2.98-68.34-54.95-98.2-56.94-17.19-1.15-32.16,15.11-35.49,30.02v197.09h197.09c14.91,3.33,31.16,18.3,30.01,35.48-1.99,29.87-53.96,51.04-56.95,98.21-3.3,52.26,48.45,94.76,108.22,94.76s111.54-42.5,108.22-94.76c-2.98-47.17-54.96-68.34-56.94-98.21-1.15-17.19,15.1-32.16,30.02-35.48h197.08v-427.57c0-71.06-58.13-129.19-129.19-129.19h-427.57v197.08c3.33,14.91,18.3,31.17,35.49,30.01,29.86-1.99,51.03-53.95,98.2-56.94Z" style="fill:#e5bb9a; fill-rule:evenodd;"/><path d="M1334.62,1104.16c3.32,52.25-48.45,94.75-108.21,94.75s-111.53-42.5-108.23-94.75c2.99-47.17,54.96-68.35,56.95-98.22,1.15-17.19-15.11-32.15-30.01-35.48h-197.08v197.08c-3.33,14.91-18.3,31.17-35.49,30.02-29.86-1.98-51.04-53.95-98.21-56.94-52.25-3.32-94.76,48.45-94.76,108.22s42.5,111.52,94.76,108.22c47.16-2.99,68.35-54.96,98.21-56.95,17.19-1.14,32.16,15.11,35.49,30.01v197.09h427.56c71.06,0,129.19-58.13,129.19-129.19v-427.57h-197.08c-14.91,3.34-31.17,18.29-30.01,35.48,1.98,29.87,53.94,51.05,56.93,98.22Z" style="fill:#eac5a7; fill-rule:evenodd;"/><path d="M699.87,1248.84c0-59.77,42.5-111.54,94.76-108.22,47.16,2.98,68.35,54.96,98.2,56.94,17.19,1.15,32.16-15.11,35.49-30.02v-197.08h-197.08c-14.91-3.33-31.17-18.29-30.02-35.48,1.99-29.86,53.95-51.04,56.94-98.21,3.31-52.26-48.45-94.76-108.22-94.76s-111.53,42.5-108.22,94.76c2.98,47.17,54.95,68.34,56.94,98.21,1.15,17.19-15.1,32.16-30.01,35.48h-197.08v427.57c0,71.06,58.13,129.19,129.19,129.19h427.57v-197.09c-3.33-14.9-18.3-31.15-35.49-30.01-29.86,1.99-51.04,53.95-98.2,56.95-52.25,3.3-94.76-48.45-94.76-108.22Z" style="fill:#f6ddc7; fill-rule:evenodd;"/><path d="M757.97,353.1l36.6-193.65L374.43,80.04c-69.82-13.2-137.74,33.13-150.93,102.95l-79.4,420.13,193.66,36.6c15.27-.51,34.02-12.2,36.08-29.3,3.6-29.7-43.53-60.17-37.71-107.07,6.45-51.96,65.21-84.11,123.94-73.01,58.73,11.1,101.69,62.48,88.75,113.2-11.69,45.79-66.69,56.95-74.2,85.92-4.32,16.68,8.88,34.41,22.91,40.45l193.65,36.6,36.6-193.65c6.04-14.03,23.77-27.23,40.45-22.91,28.97,7.51,40.13,62.51,85.92,74.2,50.73,12.95,102.11-30.02,113.21-88.74,11.1-58.73-21.05-117.49-73.01-123.94-46.9-5.82-77.37,41.31-107.07,37.71-17.11-2.05-28.8-20.81-29.3-36.08Z" style="fill:#d0a382; fill-rule:evenodd;"/><path d="M381.84,935.22s-8.57,9.24-10.7,10.39c-2.14,1.14,.95,14.56,6.77,15.46,3.27,.52,5.09-2.63,5.09-2.63l-.94-3.9,12.23-10.96-12.46-8.36Z" style="fill:#f9af79; fill-rule:evenodd;"/><path d="M504.55,940.11s1.07,12.35,.44,14.64c-.6,2.31,11.62,9,16.27,5.38,2.62-2.05,1.51-5.46,1.51-5.46l-3.55-1.88,.16-16.15-14.83,3.47Z" style="fill:#f9af79; fill-rule:evenodd;"/><path d="M505.06,954.17s6.08,.86,8.96,.79c3.72-.06,8.03-.7,8.03-.7,0,0,7.46,2.36,9.83,3.4,5.27,2.29,11.15,4.84,12.69,7.3,.49,.79-.71,3.08-2.56,3.96-7.77,3.62-34.81,4.36-39.77,2.62-5.71-2,2.81-17.37,2.81-17.37Z" style="fill:#0e2952; fill-rule:evenodd;"/><path d="M446.92,797.25c-1.93-.95-3.72-1.79-5.43-2.58-6.06,6.95-12.94,14.75-19.99,22.8l15.35,32.14c-1.73-1.93,48.38,28.52,48.38,28.52,0,0,11.38,40.67,15.66,66.51,8.76,1.04,10.56,.76,20.01-1.31,2.09-30.42-2.63-77.5-6.32-83.36-2.12-3.38-44.65-51.45-67.66-62.72Z" style="fill:#20386f; fill-rule:evenodd;"/><path d="M396.15,814.26c1.74,26.33,11.55,63.8,11.17,67.49-1.5,4.86-27,49.89-31.79,56.45,3.8,4.97,9.4,9.67,15.72,11.16,1.25,.29,44.34-53.45,46.73-57.74,2.71-4.9,7.21-31.52,7.29-64.5l1.25-32.66c-10.64-10.46-27.97-17.42-33.92-16.27-10.32,1.98-16.89,29.4-16.45,36.06Z" style="fill:#1d417f; fill-rule:evenodd;"/><path d="M371.62,945.27s3.4,4.97,5.35,7c2.52,2.67,5.85,5.33,5.85,5.33,0,0,3.19,7.04,3.98,9.48,1.77,5.38,3.77,11.87,2.94,14.68-.27,.91-2.55,2.63-4.43,1.57-7.25-4.12-26.64-23.42-28.63-28.19-2.29-5.53,14.92-9.88,14.92-9.88Z" style="fill:#0e2952; fill-rule:evenodd;"/><path d="M547.3,629.38s2.51-12.33,3.5-14.15c.98-1.82,6.72-7.15,7.29-7,.57,.15,.87,.66,.42,1.83-.44,1.17-2.62,4.69-2.05,4.66,.56-.03,7.57-9.84,9.79-8.98,2.23,.87,3.57,8.6,1.58,13.71-1.99,5.11-12.24,12.28-12.69,13.09-3.86,6.85-7.84-3.17-7.84-3.17Z" style="fill:#f9af79; fill-rule:evenodd;"/><path d="M430.3,663.05s11.51,13.65,26.16,7.95c0,0,3.15-7.63,3.2-13.25,0-.69,.01-1.36,.03-2,.07-6.32,.29-9.88,.29-9.88,0,0,0,0-.02,0-.66-.28-22.4-9.2-22.38-8.46,.37,17.12-7.28,25.65-7.28,25.65Z" style="fill:#f9af79; fill-rule:evenodd;"/><path d="M439.77,641.49c2.09,3.89,9.29,11.49,19.92,14.26,.07-6.32,.29-9.88,.29-9.88,0,0,0,0-.02,0-.6-.16-20.82-5.52-20.2-4.38Z" style="fill:#ed7d57; fill-rule:evenodd;"/><path d="M464.53,645.21s-24.44,5.75-27.79-9.53c-3.34-15.27-8.75-24.82,6.71-29.13,15.46-4.32,19.78,.85,22.14,5.68,2.36,4.82,5.2,31.1-1.06,32.98Z" style="fill:#f9af79; fill-rule:evenodd;"/><path d="M437.58,639.85c-.34,.21-5.59,1.83-15.55-18.01-1.56-3.12-2.63-9.86,1.02-15.81,10.12-16.53,28-5.5,46.53-16.48,6.67,25.49-13.48,23.29-17.35,24.5-3.86,1.22-5.22,7.31-5.51,9.26-.29,1.95-.74,3.57-5.59,1.83-4.86-1.74-2.2,6.88-1.42,8.53,0,0,.66,4.4-2.12,6.18Z" style="fill:#20386f; fill-rule:evenodd;"/><path d="M477.71,719.46c-.15,8.09-.62,17.19-1.25,26.43-.04,.55-.08,1.1-.11,1.64-.41,5.73-.85,11.46-1.35,17.06-.2,2.25-.41,4.47-.64,6.64l-.03,.29c-.02,.81-.12,1.7-.21,2.51-2.06,20.97-4.22,37.52-4.62,37.77-.48,.33-1.02,.48-1.61,.41-5.5-.69-21.89,.56-35.32-2.37-11.33-2.4-21.09-6.91-31.43-13.03-1.37-.81-4.5-2.97-4.25-4.57,.25-1.77,.71-4.31,1.3-7.52,2.04-11.15,5.55-30.33,6.75-52.77,.23-4.19,.57-8.31,1.01-12.38,1.16-10.58,3-20.62,5.48-29.54,4.6-16.58,11.37-29.27,19.86-34.23,1.11-.63,7.08,3.17,12.56,6.69,5.06,3.24,10.39,4.14,15.57,3.69l4.56,5.04c5.52,6.42,11.4,14.97,13.01,27.12,.12,.9,.22,1.85,.31,2.87,.44,4.95,.55,11.22,.43,18.23Z" style="fill:#6d96ce; fill-rule:evenodd;"/><path d="M477.71,719.46c-.15,8.09-.62,17.19-1.25,26.43-.04,.55-.08,1.1-.11,1.64-31.4-19.65-36.23-55.62-36.23-55.62,15.44,.68,27.72,4.23,37.17,9.3,.44,4.95,.55,11.22,.43,18.23Z" style="fill:#466fb5; fill-rule:evenodd;"/><path d="M553.29,627.65c-3.49-3.1-5.57-1.67-5.57-1.67,0,0-35.76,32.19-39.22,34.6-3.46,2.41-52.84,7.72-52.84,7.72,0,0-19.84,1.33-23.85,11.88-3.49,9.17,.06,16.55,4.81,21.8,5.67,6.26,14.62,8.36,22.52,5.36,17.72-6.71,52.96-20.34,59.38-25.01,14.31-10.36,38.56-49.19,38.56-49.19,0,0-1.06-3.06-3.8-5.5Z" style="fill:#6d96ce; fill-rule:evenodd;"/><path d="M453.73,625.78c-1.08,.13-2.42-4.03,.2-4.35,1.4-.17,1.57,4.13-.2,4.35Z" style="fill:#20386f; fill-rule:evenodd;"/><path d="M465.48,624.85c1.08-.13,1.44-4.5-1.19-4.17-1.4,.17-.59,4.39,1.19,4.17Z" style="fill:#20386f; fill-rule:evenodd;"/><path d="M454.41,617.54c1.75-.15,1.87,1.3,.64,1.84-.36,.17-7.27,2.42-7.01,1.95,.49-.98,3.04-3.5,6.37-3.79Z" style="fill:#20386f; fill-rule:evenodd;"/><path d="M462.18,616.67c-1.75,.2-1.6,1.64-.3,1.93,.61,.13,7.66,.99,7.17,.44-.82-.91-3.68-2.74-6.87-2.37Z" style="fill:#20386f; fill-rule:evenodd;"/><path d="M466.2,630.5c-2.73,3-3.28,1.23-2.24,.83,3.47-1.32-.61-1.26-3.44-6.96-.29-.6,.38-.92,.69-.46,.21,.32,.84,1.58,1.1,1.9,3.08,4.03,4.76,3.72,3.89,4.68Z" style="fill:#ed7d57; fill-rule:evenodd;"/><path d="M465.18,634.69c-5.09,9.74-10.57,1-9.06,.74,7.69-1.3,9.68-1.93,9.06-.74Z" style="fill:#fff; fill-rule:evenodd;"/><path d="M498.41,961.46h-10.71l-18.05,57.08h-80.4l18.05-57.08h-10.71l-18.05,57.08-2.29,7.25-17.73,56.08-2.29,7.26-17.73,56.08-2.29,7.25-17.73,56.09-2.29,7.24-17.73,56.08-2.29,7.26-17.73,56.08-2.29,7.26-17.73,56.08-2.29,7.25-17.73,56.08-2.29,7.25-19.1,60.43h10.71l19.1-60.43h80.41l-19.11,60.43h10.71l19.1-60.43,2.29-7.25,17.73-56.08,2.29-7.25,17.73-56.08,2.29-7.26,17.74-56.08,2.29-7.26,17.73-56.08,2.29-7.24,17.73-56.09,2.29-7.25,17.73-56.08,2.29-7.26,17.73-56.08,2.29-7.25,18.05-57.08h0Zm-249.32,500.43l17.73-56.08h80.4l-17.73,56.08h-80.4Zm20.02-63.33l17.73-56.08h80.41l-17.73,56.08h-80.41Zm20.02-63.34l17.73-56.08h80.4l-17.73,56.08h-80.41Zm20.03-63.34l17.73-56.08h80.41l-17.73,56.08h-80.4Zm20.02-63.32l17.73-56.09h80.41l-17.73,56.09h-80.4Zm20.02-63.34l17.73-56.08h80.41l-17.73,56.08h-80.41Zm20.02-63.34l17.73-56.08h80.41l-17.73,56.08h-80.41Z" style="fill:#bf9071; fill-rule:evenodd;"/><path d="M1669.3,1498.42s6.09,5.64,4.9,9.64c-1.19,4.02-6.69,6.69-7.42,11.59-.74,4.89-3.7,7.56-6.37,7.56h-12.75s-1.96-3.44,2.78-4.49c4.75-1.04,6.55-6.8,6.25-12.14-.29-5.34,.44-12.46,.44-12.46l10.1-2.38,2.08,2.68Z" style="fill:#0e2952; fill-rule:evenodd;"/><path d="M1593.45,1526.54c-.62,.31-2.78,.53-5.77,.67h-28.81c.1-.86,.76-3.91,5.48-4.67,5.32-.87,14.54-3.96,16.59-10.77,.07-.21,.13-.43,.18-.66,1.63-7.27,13.5,2.22,13.5,2.22,0,0,.03,.29,.08,.79,.28,2.67,.98,11.3-1.27,12.42Z" style="fill:#0e2952; fill-rule:evenodd;"/><path d="M1565.77,1332s1.8,22.5,3.92,49.55c2.88,36.75,6.35,81.88,6.69,90.42,.6,14.85,2.96,38.6,2.96,38.6,0,0,5.64,5.65,16.92,3.27,0,0,10.06-33.92,12.93-69.78,.05-.58,.09-1.18,.13-1.77,2.67-36.52,6.83-113.42,6.83-113.42l-50.39,3.12Z" style="fill:#1d417f; fill-rule:evenodd;"/><path d="M1565.77,1332s1.8,22.5,3.92,49.55l39.51,62.51c.05-.58,.09-1.18,.13-1.77,2.67-36.52,6.83-113.42,6.83-113.42l-50.39,3.12Z" style="fill:#20386f; fill-rule:evenodd;"/><path d="M1574.01,1334.67s32.51,81.49,53.88,119.79c21.37,38.3,28.06,48.99,28.06,48.99,0,0,12.24-4.9,13.36-8.24,0,0-8.17-73.94-22.49-91.96-8.09-10.19-17.59-40.74-18.04-51.44-.44-10.69-2.89-31.84-2.89-31.84l-51.88,14.69Z" style="fill:#1d417f; fill-rule:evenodd;"/><path d="M1559.68,1206.38s-13.26,23.33-26.23,26.38c0,0,.54-7.84,3.69-13.2-1.29-1.53-2.42-2.93-3.41-4.18-3.26-4.18-4.81-6.74-4.81-6.74l4.4-11.83,2.98-8.02c1.44,2.61,3.01,4.82,4.67,6.72,8.49,9.76,18.7,10.87,18.7,10.87Z" style="fill:#f9af79; fill-rule:evenodd;"/><path d="M1540.98,1195.51s1.58,11.69-7.24,19.87c-3.26-4.18-4.81-6.74-4.81-6.74l4.4-11.83c4.72-1.44,7.65-1.3,7.65-1.3Z" style="fill:#ed7d57; fill-rule:evenodd;"/><path d="M1525.43,1210.37s19.82-7.73,14.81-19.99c-4.99-12.27-5.8-21.54-18.67-17.12-12.86,4.4-13.4,10.1-12.72,14.59,.66,4.5,11.29,24.21,16.58,22.51Z" style="fill:#f9af79; fill-rule:evenodd;"/><path d="M1627.81,1326.13c-8,11.51-67.77,26.85-67.06,18.89,.28-3.04,.64-8.41,0-15.69-.15-1.7-.36-3.51-.63-5.42-1.51-10.46-5.12-23.91-13.17-39.46-.61-1.17-1.23-2.34-1.88-3.54-3.32-6.02-6.13-12.4-8.29-18.62-4.15-11.97-5.8-23.42-3.72-30.91,0-.04,.02-.07,.04-.1,12.49-5.78,17.34-28.18,17.34-28.18,0,0,34.95-2.71,50.48,58.13,0,0,33.87,54.88,26.92,64.88Z" style="fill:#6d96ce; fill-rule:evenodd;"/><path d="M1560.74,1329.34c-.15-1.7-.36-3.51-.63-5.42-1.51-10.46-5.12-23.91-13.17-39.46,1.38-8.38,3.29-15.34,5.38-18.48,8.51-12.73,13.46-14.73,13.46-14.73,0,0,12.75,53.77-5.03,78.08Z" style="fill:#466fb5; fill-rule:evenodd;"/><path d="M1493.54,1316.55s-11.78,.62-13.62,1.28c-1.82,.66-7.57,5.24-7.5,5.79,.06,.55,.49,.89,1.64,.64,1.14-.24,4.72-1.77,4.62-1.25-.12,.52-10.2,5.66-9.7,7.83,.5,2.19,7.48,4.51,12.51,3.37,5.01-1.14,13.1-9.65,13.91-9.95,6.89-2.63-1.86-7.72-1.86-7.72Z" style="fill:#f9af79; fill-rule:evenodd;"/><path d="M1491.32,1321.02c-2.36-3.81-.65-5.56-.65-5.56,0,0,36.42-28.52,39.28-31.39,2.86-2.88,16.08-48.77,16.08-48.77,0,0,4.55-18.57,15.22-20.62,9.26-1.78,15.66,2.8,19.84,8.18,5,6.4,5.49,15.24,1.34,22.22-9.3,15.67-28.06,46.78-33.54,52.09-12.19,11.84-53,28.36-53,28.36,0,0-2.73-1.52-4.58-4.51Z" style="fill:#6d96ce; fill-rule:evenodd;"/><path d="M1533.3,1163.78c-8.08-1.12-16.19,1.09-23.53,5.76-3.57,2.27-5.31,4.47-8.77,3.64-10.32-2.49-7.61,14.06,5.77,14.48,3.22,.99,9.13-5.34,14.45-6.21,5.32-.87,8.2,6.55,10.23,7.17,2.02,.62,.88-1.07,2.99-2.76,2.13-1.69,3.34,2.28,3.3,5.08-.04,2.79,4.1,5.42,4.1,5.42l2.42-4.44c7.17-9.23,1.25-26.44-10.96-28.13Z" style="fill:#20386f; fill-rule:evenodd;"/><path d="M1528.86,1199.31c-2.86,2.09-4.51,3.14-7.48,4.92-1.18,.71,3.37,2.16,7.76-4.87,.1-.17-.05-.21-.28-.05Z" style="fill:#eb795b; fill-rule:evenodd;"/><path d="M1519.39,1184.08c-1.33,1.12-.44,2.17,.78,1.69,12.95-5.2,2.47-4.44-.78-1.69Z" style="fill:#20386f; fill-rule:evenodd;"/><path d="M1512.67,1187.52c1.68-.44,2.03,.89,.94,1.6-11.7,7.63-5.06-.52-.94-1.6Z" style="fill:#20386f; fill-rule:evenodd;"/><path d="M1521.98,1199.55l-.08,.05c-1.4,.61-2.17,.91-2.73,.62-.52-.27-.64-.89-.88-2.03-.26-1.24-.66-3.16-1.82-5.93-.09-.19,.02-.43,.21-.52,.19-.08,.43,0,.53,.21,1.18,2.84,1.6,4.79,1.86,6.08,.17,.75,.3,1.38,.48,1.47,.25,.14,1.25-.3,2.05-.65,.2-.08,.44,0,.53,.21,.06,.18,0,.38-.14,.48Z" style="fill:#eb795b; fill-rule:evenodd;"/><path d="M1514.19,1196.92c-.86,.5-3.39-2.38-1.32-3.56,1.11-.64,2.71,2.75,1.32,3.56Z" style="fill:#20386f; fill-rule:evenodd;"/><path d="M1524.98,1190.99c-.86,.48-3.39-2.38-1.32-3.56,1.1-.64,2.71,2.75,1.32,3.56Z" style="fill:#20386f; fill-rule:evenodd;"/><g><path d="M1326.01,393l3.33,10.7c.57,1.3,2.3,4.47,2.61,5.71,1.17,4.7-21.85,1.25-17.7-1.99,.38-.29,2.63-3.5,2.38-5.13-.4-2.53-1.49-6.39-1.49-6.39l10.88-2.9Z" style="fill:#f9af79; fill-rule:evenodd;"/><path d="M1314.28,407.33s5.26,.23,7.86-.04c2.6-.27,5.15-4.13,7.12-3.76,2.18,.42,5.16,10.2,5.16,10.2-16.1,8.27-28.21,10.37-35.24,10.12-3.17-.12,5.93-10.66,15.11-16.53Z" style="fill:#0e2952; fill-rule:evenodd;"/><path d="M1278.17,398.09l.39,11.2c.2,1.41,1.05,4.92,1.01,6.19-.1,4.85-21.41-4.54-16.54-6.57,.44-.19,3.46-2.69,3.64-4.32,.28-2.56,.25-6.56,.25-6.56l11.26,.07Z" style="fill:#f9af79; fill-rule:evenodd;"/><path d="M1263.08,408.84s5.02,1.61,7.59,2.03c2.58,.42,6.05-2.62,7.87-1.75,1.99,.98,2.29,11.19,2.29,11.19,0,0-29.95,2.58-36.67,.5-3.03-.95,8.53-8.72,18.92-11.97Z" style="fill:#0e2952; fill-rule:evenodd;"/><path d="M1179.01,74.24l-.59-1.08c-9.63,3.31-15.89,7.38-13.65,11.32,1.6,4.94,6.8,6.92,11.47,11.66,2.15-2.56,4.27-4.25,6.38-5.09,1.36-5.43,1.33-9.75-.13-12.97l-3.13-3.19-.35-.64Z" style="fill:#f9af79; fill-rule:evenodd;"/><path d="M1300.17,63.3c-2.38,.17-6.13-.29-6.8-1.13-2.52-3.21-4.27-6.56-4.92-8.67,.49-1.41,1-3.18,1.55-5.33,9.16-6.22,10.41-10.82,3.75-13.81-1.34,.75-3.01,3.07-4.99,6.95-1.59-.06-2.79-.88-3.62-2.44,1.9-6.55,3.13-11.87,3.7-15.96-4.51-6.71-15.07-7.66-29.05-5.85-.64,3.72-1.18,7.66-1.58,11.82-2.48,2.28-2.16,10.72,.11,20.45-1.12,5.53,2.28,8.55,10.25,9.06,.12,1.96-.06,4.37-.19,4.64-.2,.42-.91,.83-1.89,1.18h0c-.27,9.13,10.95,8.83,33.69-.91Z" style="fill:#f9af79; fill-rule:evenodd;"/><path d="M1259.78,17.06c13.98-1.81,24.54-.85,29.05,5.85-.57,4.09-1.81,9.41-3.69,15.96,.82,1.56,2.02,2.37,3.61,2.44,1.98-3.88,3.66-6.2,4.99-6.95,6.66,2.98,5.41,7.59-3.76,13.81-.53,2.14-1.05,3.91-1.54,5.32,8.23-1.85,15.12-9.22,16.1-12.41,9.61-18.95-1.1-26.95-6.85-29.87-2.52-18.76-29.77-2.18-43.42-11.22-5.43,7.49,1.28,16.9,5.51,17.06Z" style="fill:#20386f; fill-rule:evenodd;"/><path d="M1175.9,96.54c6.92,29.62,19.07,52.6,36.46,68.95,6.26-1.9,11.82-6.18,16.67-12.85-.26,21.43,.28,42.75,1.6,63.97,12.69,6.02,29.52,5.63,50.53-1.16l8.52-10.5c2.19-.42,7.16,1.99,9.54,5.68,19.94-15.22,33.39-31.58,41.33-47.84-2.15-34.92-6.89-62.48-14.23-82.65-3.72-5.71-12.44-11.32-26.16-16.84-22.73,9.74-33.96,10.04-33.69,.91-6.68,2.2-15.56,6.07-26.6,11.65-9.21,7-17.05,25.97-23.54,56.91-10.55-13.21-21.48-27.22-32.81-42.02-2.52,.71-5.07,2.65-7.63,5.8h0Zm118.37,98.95c-6.61-21.74-2.96-48.57,10.96-80.48,3.5,15.75,7.28,31.24,11.35,46.49-4.73,2.25-12.16,13.57-22.31,33.99Z" style="fill:#6d96ce; fill-rule:evenodd;"/><path d="M1296.75,223.83c-3.22-.25-8.42-3.04-15.59-8.38-21,6.79-37.84,7.18-50.53,1.16-2.27,35.72,6.52,73.17,17.66,114.91,10.92,18.32,10.45,31.21,16.26,73.49,3.23,2.3,8.57,1.97,16.01-1,2.36-36.05,.74-59.91-8.62-73.37,1.46-12.09-2.36-41.8-2.54-60.45,6.8,15.17,11.48,35.66,20.34,56.36,10.79,25.2,18.31,52.18,24.01,76.78,6.02,1.17,11.67,.48,16.94-2.07-6.05-40.44-12.75-68.27-20.11-83.49,.29-39.76-3.51-75.47-11.36-107.13-1.46,3.74-2.28,8.13-2.48,13.2Z" style="fill:#20386f; fill-rule:evenodd;"/><path d="M1281.16,215.45c7.17,5.33,12.36,8.13,15.59,8.38,.19-5.06,1.01-9.46,2.48-13.2-2.38-3.68-7.35-6.1-9.54-5.68l-8.52,10.5Z" style="fill:#f9af79; fill-rule:evenodd;"/><path d="M1229.03,152.65c.68-20.81,2.36-37.86,4.99-51.17-6.72,28.26-13.25,47.01-19.56,56.26-3.99-.12-9.05-2.49-15.16-7.09,3.96,5.44,8.31,10.39,13.05,14.85,6.26-1.9,11.82-6.18,16.67-12.85Z" style="fill:#466fb5; fill-rule:evenodd;"/><path d="M1289.68,204.95c1.22-3.02,2.75-6.18,4.59-9.47-6.61-21.74-2.96-48.57,10.96-80.48-20.25,28.77-25.98,59.44-17.23,92.01l1.68-2.06Z" style="fill:#466fb5; fill-rule:evenodd;"/><path d="M1277.74,56.46c-2.23,1.1-5.29,1.75-9.18,1.93,.08,1.32,.02,2.83-.06,3.77,3.91-.75,7-2.65,9.25-5.7Z" style="fill:#ed7d57; fill-rule:evenodd;"/><path d="M1296.96,228.91c-.22-1.84-.29-3.53-.21-5.08-3.22-.25-8.42-3.04-15.59-8.38-1.7,.55-3.38,1.06-5.02,1.52,5.04,5.25,11.98,9.23,20.82,11.93Z" style="fill:#223f81; fill-rule:evenodd;"/><path d="M1094.29,56.39c4.63-2.78,16.35,8.25,26.21,24.63,9.84,16.38,14.08,31.91,9.44,34.69-4.63,2.78-16.35-8.24-26.21-24.62-9.84-16.37-14.07-31.91-9.44-34.69Z" style="fill:#9c7357; fill-rule:evenodd;"/><path d="M1161.28,41.72l9.63-5.78c2.19-1.31,6.88,2.49,10.49,8.49,3.6,6,4.75,11.93,2.57,13.25l-9.63,5.78c2.18-1.31,1.04-7.25-2.57-13.25-3.61-6-8.31-9.8-10.49-8.49Z" style="fill:#bf9071; fill-rule:evenodd;"/><path d="M1171.77,50.2c-3.33-5.55-7.61-9.22-9.96-8.7-20.85,9.88-42.05,14.85-63.64,14.93,5.7,2.17,14.59,11.73,22.32,24.59,7.81,13,12.09,25.47,11.2,31.45,11.32-20.34,25.68-36.81,43.08-49.39,1.57-1.83,.33-7.32-3-12.87Z" style="fill:#e5bb9a; fill-rule:evenodd;"/><path d="M1111.2,81.48l6.61-4.73c.9,1.38,1.81,2.8,2.69,4.27,1.15,1.92,2.23,3.83,3.22,5.71l-7.35,3.35c-2.51,1.14-5.46,.65-6.89-1.72h0c-1.42-2.37-.52-5.28,1.72-6.89Z" style="fill:#bf9071; fill-rule:evenodd;"/><path d="M1183.08,72.65l-5.11,3.07c1.7,.46,3.23,1.28,4.59,2.49l2.84-1.7c1.58-.95,2.64-2.47,3.06-4.15,.41-1.68,.19-3.51-.76-5.1l-5.22-8.7-3.85,2.31,5.22,8.7c.31,.53,.39,1.14,.25,1.7-.15,.56-.5,1.06-1.01,1.38h0Zm-17.61,10.37h0c.72,1.19,1.57,1.82,2.55,1.9,2.98-.68,6.04-1.99,9.2-3.93,.53-.31,.95-.6,1.23-.86,.07,.13,.14,.27,.21,.41l-10.03,6.03c-1.58,.95-3.42,1.17-5.1,.75-1.68-.41-3.19-1.46-4.14-3.05l-3.11-5.18c1.09-1.1,2.17-2.2,3.28-3.27l3.68,6.13c.31,.53,.83,.88,1.38,1.02h0c.27,.08,.56,.09,.84,.05Z" style="fill:#9c7357; fill-rule:evenodd;"/><path d="M1271.75,46.51c-4.19,.06-6.52-.35-10.6-1.31-1.63-.39,1.73,12.16,10.83,1.98,.21-.24,.09-.67-.23-.66Z" style="fill:#eb795b; fill-rule:evenodd;"/><path d="M1275.85,23.64c-2.05,.15-1.93,1.77-.42,2.16,16.07,4.03,5.47-2.54,.42-2.16Z" style="fill:#20386f; fill-rule:evenodd;"/><path d="M1265.81,22.15c1.91,.74,1.33,2.26-.23,2.19-16.53-.81-4.49-4.02,.23-2.19Z" style="fill:#20386f; fill-rule:evenodd;"/><path d="M1265.04,40.43l-.1-.03c-1.62-.81-2.49-1.27-2.65-2-.15-.67,.31-1.27,1.16-2.35,.94-1.19,2.36-3.02,3.98-6.19,.11-.23,.41-.31,.63-.2,.24,.12,.33,.4,.2,.64-1.66,3.25-3.1,5.11-4.07,6.35-.55,.71-1.03,1.33-.98,1.56,.07,.33,1.23,.9,2.16,1.36,.24,.12,.33,.4,.21,.64-.1,.2-.32,.29-.53,.24Z" style="fill:#eb795b; fill-rule:evenodd;"/><path d="M1260.72,32.23c-1.16-.12-1.59-4.64,1.22-4.33,1.51,.16,.68,4.54-1.22,4.33Z" style="fill:#20386f; fill-rule:evenodd;"/><path d="M1276.41,34.16c-1.16-.13-1.59-4.64,1.21-4.34,1.51,.16,.69,4.54-1.21,4.34Z" style="fill:#20386f; fill-rule:evenodd;"/><path d="M1271.47,46.72c1.44,1.55-8.17,1.66-9.85,.13-.18-.16-.76-1.05-.55-1.3,.19-.26,1.31,.21,1.61,.28,2.92,.73,5.67,1.02,8.79,.89Z" style="fill:#fff; fill-rule:evenodd;"/></g><path d="M1560.44,710.05c-2.78,38.38-8.45,43.67-45.03,46.63,36.58,2.96,42.25,8.25,45.03,46.62,2.8-38.37,8.46-43.66,45.05-46.62-36.59-2.96-42.25-8.25-45.05-46.63h0Zm-1.11,328.51c-1.49,20.49-4.51,23.32-24.05,24.88,19.54,1.58,22.56,4.41,24.05,24.9,1.49-20.49,4.51-23.31,24.04-24.9-19.53-1.57-22.55-4.39-24.04-24.88h0Zm84.69-384.98c-1.5,20.75-4.57,23.61-24.35,25.21,19.78,1.6,22.84,4.46,24.35,25.21,1.51-20.75,4.58-23.61,24.37-25.21-19.79-1.6-22.85-4.46-24.37-25.21Z" style="fill:#fff; fill-rule:evenodd;"/><path d="M140.71,834.84c-2.8,38.37-8.46,43.66-45.04,46.62,36.58,2.96,42.24,8.24,45.04,46.62,2.8-38.38,8.45-43.66,45.04-46.62-36.59-2.96-42.24-8.25-45.04-46.62h0Zm-1.12,328.49c-1.49,20.49-4.51,23.32-24.04,24.89,19.53,1.59,22.55,4.4,24.04,24.89,1.49-20.49,4.51-23.3,24.05-24.89-19.53-1.57-22.56-4.4-24.05-24.89h0Zm84.71-384.97c-1.51,20.75-4.57,23.61-24.36,25.21,19.78,1.59,22.85,4.46,24.36,25.2,1.51-20.74,4.57-23.61,24.35-25.2-19.78-1.6-22.84-4.46-24.35-25.21Z" style="fill:#fff; fill-rule:evenodd;"/><g><path d="M1727.69,826.62c-12.56,0-22.75-10.19-22.75-22.75s10.19-22.75,22.75-22.75,22.75,10.19,22.75,22.75-10.19,22.75-22.75,22.75h0Zm34.03,13.52h0Zm-19.09-93.72h0Zm-50.83,20.43h0Zm1.05,71.1c3.21,3.28,6.87,6.11,10.91,8.38l-.62,11.57,9.61,3.4,6.8-9.39,2.63,.38h11.11s6.29,9.72,6.29,9.72l8.59-2.44,.29-.11,.88-.34v-11.59s1.91-1,1.91-1l9.41-6.78,1.04,.4,9.76,3.77c2.29-2.51,4.37-5.21,6.21-8.09l-6.81-9.35c2.11-4.03,3.67-8.38,4.6-12.97l11.17-2.97,.27-10.2-11.01-3.57c-.67-4.63-2.01-9.07-3.9-13.19l7.3-8.97c-1.69-2.98-3.63-5.79-5.78-8.41l-11.01,3.59-10.89-8.38,.62-11.56c-3.07-1.4-6.28-2.54-9.62-3.4l-6.8,9.38-13.74-.36-6.28-9.72-9.78,2.89v11.58c-4.14,2.06-7.94,4.69-11.31,7.78l-2.91-1.11-7.9-3.05c-2.28,2.5-4.37,5.21-6.21,8.08l6.81,9.36c-2.1,4.02-3.67,8.36-4.58,12.97l-11.18,2.97-.28,10.21,11.01,3.56c.68,4.64,2.01,9.06,3.9,13.19l-7.3,8.99c1.7,2.97,3.63,5.78,5.79,8.4l11-3.59Z" style="fill:#c4d1eb; fill-rule:evenodd;"/><path d="M1759.43,830.74c-.27,0-.54-.09-.77-.29-.51-.42-.58-1.18-.16-1.68,5.8-6.98,9-15.83,9-24.91,0-4.36-.71-8.62-2.12-12.7-.22-.63,.12-1.32,.75-1.52,.63-.22,1.31,.11,1.52,.74,1.49,4.33,2.25,8.86,2.25,13.49,0,9.64-3.39,19.03-9.55,26.44-.24,.28-.57,.43-.92,.43Z" style="fill:#fff; fill-rule:evenodd;"/><path d="M1756.06,775.81c-.29,0-.59-.11-.82-.33-3.9-3.67-8.41-6.45-13.42-8.27-.62-.22-.94-.9-.72-1.53,.23-.63,.92-.94,1.54-.72,5.31,1.94,10.1,4.89,14.25,8.77,.48,.46,.5,1.22,.05,1.7-.23,.26-.54,.39-.88,.39Z" style="fill:#fff; fill-rule:evenodd;"/><path d="M1718.66,766.1c-.53,0-1.02-.36-1.16-.9-.16-.64,.22-1.29,.87-1.46,3.31-.83,6.72-1.25,10.16-1.25,.66,0,1.21,.53,1.21,1.2s-.54,1.2-1.21,1.2c-3.23,0-6.46,.41-9.57,1.18-.09,.04-.19,.04-.29,.04Z" style="fill:#fff; fill-rule:evenodd;"/></g><path d="M1799.85,933.37c2.8,38.38,8.46,43.66,45.04,46.62-36.58,2.96-42.24,8.25-45.04,46.62-2.8-38.38-8.46-43.66-45.05-46.62,36.59-2.96,42.25-8.25,45.05-46.62h0Zm1.12,328.5c1.49,20.49,4.5,23.32,24.04,24.88-19.54,1.58-22.55,4.41-24.04,24.89-1.49-20.48-4.52-23.31-24.06-24.89,19.54-1.57,22.57-4.39,24.06-24.88h0Zm-84.71-384.97c1.51,20.75,4.57,23.6,24.35,25.2-19.79,1.6-22.84,4.46-24.35,25.21-1.51-20.75-4.57-23.61-24.36-25.21,19.79-1.6,22.84-4.46,24.36-25.2Z" style="fill:#fff; fill-rule:evenodd;"/></svg>