<?xml version="1.0" encoding="UTF-8"?><svg id="a" xmlns="http://www.w3.org/2000/svg" viewBox="0 0 1905.6 1444.65"><path d="M1015.42,0c-222.96,0-316.9,158.41-477.86,281.55-213.05,162.98-426.08,56.88-460.19,607.56-30.35,490.11,348.48,53.06,882.62,228.62,534.14,175.57,1078.15,246.27,916.73-321.77C1715.29,227.93,1533.49,0,1015.42,0Z" style="fill:#e9eff8; fill-rule:evenodd;"/><ellipse cx="1013.75" cy="1370.78" rx="883" ry="73.87" style="fill:#d0d9ee;"/><path d="M1282.66,1259.31s12.5,12.35,12.8,16.9c.28,4.54,1.09,53.15-4,57.69-5.11,4.54-20.1,7.81-15.29,12.9,3.64,3.82,31.68,3,50.27,2,5.4-.36,12.22-44.16,14.38-50.6,3.1-9.36,14.34-29.8,11.52-36.26-1.4-3.18-11.66-10.44-20.97-16.53-9.79-6.45-19.18-20.71-19.18-20.71l-29.52,34.61Z" style="fill:#f4ae7c; fill-rule:evenodd;"/><path d="M1115.36,1289.65l11.21,32.16c.84,5.08,4.11,17.62,4.11,22.26,0,17.35-77.15-14.72-59.86-22.44,1.57-.73,6.49-6.27,6.99-12.17,.82-9.09-6.48-20.44-6.48-20.44l44.04,.63Z" style="fill:#f4ae7c; fill-rule:evenodd;"/><path d="M1008.92,681.32l-27.93,72.32s-18.23,172.62-7.63,275.91c4.45,43.24,100.5,274.55,100.5,274.55l47.73-6.81-63.91-273.91,23.51-104.75,33.3-207.14-105.57-30.16Z" style="fill:#142d4d; fill-rule:evenodd;"/><path d="M1140.49,685.04l23.96,80.49,36.42,243.12,123.25,227.4s-18.52,28.52-38.42,32.97l-174.93-229.85-94.81-287.72,3.32-63.96,121.21-2.45Z" style="fill:#0f3970; fill-rule:evenodd;"/><path d="M763.04,679.95c18.6-.89,18.02,2.32,20.42,2.08,2.79-.17,32.87-23.41,32.87-23.41,0,0,88.95-67.82,93.62-71.63l55.51-102.25,57.87,13.58s-63.32,109.55-67.62,114.71c-4.26,5.08-135.07,82.57-146.41,89.82,0,0-10.34,13.62-17.1,21.97-6.78,8.34-16.85,13.16-19.14,15.24-.33,.26-8.26,6.7-20.09,11.85-10.2,4.56-2.58-4.4-2.58-4.4,0,0,17.42-11.82,16.27-13.02-.89-.98-10.02,6.03-21.26,11.14-2.89,1.32-5.73,2.56-8.35,3.69-6.91,3.04-10.75-.33-4.01-4.73,2.39-1.53,6.39-3.94,9.48-5.27,3.38-1.5,5.99-3.93,8.62-5.56,5.21-3.27,9.09-5.65,8.84-5.75-.34-.15,.26-1.57-2.85-.26-3.76,1.53-10.94,6.63-16.65,8.5-3.22,1.08-9.78,3.66-9.78,3.66,0,0-11.16,3.05-11.46,2.43-1.79-3.16,5.58-7.67,10.11-8.48,2.64-2.12,9.62-4.62,9.62-4.62,0,0,13.02-8.39,11.89-10.27-.92-1.59-35.94,12.36-37.53,9.09-1.27-2.74,9.08-7.44,9.08-7.44,0,0,6.48-2.33,8.58-3.3,2.44-1.12,9.56-5.05,9.56-5.05,0,0,24.04-14.68,22.81-16.41-1.21-1.72-6.1-4.75-7.9-4.34-1.82,.4-4.76,2.88-6.52,3.2-1.82,.4-4.5-.68-5.16-2.85-.62-2.25,7.38-7.48,7.38-7.48,0,0,6.49-4.2,11.88-4.43Z" style="fill:#f4ae7c; fill-rule:evenodd;"/><path d="M943.39,513.26l59.53,33.64s25.49-50.53,36.29-75.26c13.09-29.97,26.39-69.57,22.46-70.29-11.04-2.04-25.97-2.42-38.9,5.22-44.7,26.57-79.39,106.7-79.39,106.7Z" style="fill:#406fb5; fill-rule:evenodd;"/><path d="M1233.73,813.96c10.38-16.99,12.71-14.53,13.98-16.81,1.51-2.63-.17-43.06-.17-43.06,0,0-4.14-119.37-4.59-125.83l-53.14-110.2,45.93-43.24s54.68,121.47,56.44,128.37c1.79,6.9-10.85,169.07-11.52,183.43,0,0,5.31,17.35,8.3,28.34,2.99,10.9,1.09,22.8,1.46,25.98,.06,.54,.73,11.36-1.93,24.99-2.29,11.72-5.34-.45-5.34-.45,0,0,.44-22.44-1.25-22.17-1.35,.19-.9,12.54-3.28,25.53-.61,3.27-1.26,6.63-1.84,9.63-1.54,8-6.71,9.27-6.37,.72,.1-2.99,.44-8.09,1.17-11.62,.79-3.82,.28-7.54,.48-10.91,.33-6.54,.67-11.35,.39-11.27-.33,.19-1.17-1.17-1.93,2.36-.93,4.27-.93,13.72-2.74,19.81-1.03,3.45-2.74,10.9-2.74,10.9,0,0-4.64,10.71-5.34,10.63-3.77-.27-2.6-8.54-.61-13.08-.17-3.54,1.88-11.26,1.88-11.26,0,0,.7-16.53-1.6-16.72-.95,0-2.57,10.09-5.64,19.81-2.88,8.99-7.18,17.62-9,17.26-3.05-.46-.9-10.81-.9-10.81,0,0,1.87-7.09,2.33-9.54,.53-2.82,1.48-11.45,1.48-11.45,0,0,1.92-30.16-.26-30.07-2.15,.09-7.63,2.63-8.38,4.45-.75,1.82-.41,5.91-1.17,7.72-.76,1.82-3.25,3.54-5.48,2.82-2.26-.73-1.93-10.99-1.93-10.99,0,0,.33-8.27,3.33-13.27Z" style="fill:#f4ae7c; fill-rule:evenodd;"/><path d="M1330.75,1245.05s-26.34,80.68-37.6,84.67c-3.02,1-19.85,5.27-22.57,11.72l-.19,.63c-.87,4.09,2.57,7.81,6.73,7.81h53.52s7.6-36.25,10.62-52.15c0,0,15.88-38.98,14.12-42.43-1.76-3.54-24.63-10.26-24.63-10.26Z" style="fill:#142d4d; fill-rule:evenodd;"/><path d="M1135.07,1349.8l-8.84-28.35s-18.53,8-27.81,6.63c-9.29-1.27-27.4-6.63-27.4-6.63-37.02,12.35-67.35,18.35-61.85,28.35h125.9Z" style="fill:#142d4d; fill-rule:evenodd;"/><path d="M785.5,697.2c-7.74,3.06-15.07,2.93-22.15-1.34,5.3,7.87,16.7,7.19,22.15,1.34Z" style="fill:#ef8857; fill-rule:evenodd;"/><path d="M1131.83,389.69s36.01,5,45.48,11.99c10.65,7.82,43.7,44.42,43.7,44.42,0,0-68.77,196.96-66.12,232.03,2.68,35.07,10.23,87.03,10.23,87.03,0,0-134.53,8.54-185.11-11.45,0,0,16.91-79.58,16.91-100.39s8.98-229.4,15.35-240.3c6.41-10.9,19.26-17.08,43.68-22.44,24.4-5.36,75.88-.91,75.88-.91Z" style="fill:#6998d0; fill-rule:evenodd;"/><path d="M1122.01,333.45l8.89,58.33s-32.54,69.5-51.98,63.51c-16.29-5.09-6.26-66.5-6.26-66.5,0,0,8.9-33.07,6.25-49.6-2.69-16.45,43.11-5.73,43.11-5.73Z" style="fill:#f4ae7c; fill-rule:evenodd;"/><path d="M1078.91,339.18c-2.69-16.45,43.11-5.73,43.11-5.73l.72,4.82c-1.34,3.27-2.96,6.09-4.98,8.17-10.2,10.9-26.2,17.54-40,17.99,1.36-8.9,2.23-18.44,1.14-25.25Z" style="fill:#ef8857; fill-rule:evenodd;"/><path d="M1129.51,250.96c1.28-.46,10.36,66.41-6.84,84.85-17.23,18.36-50.78,24.44-62.83,9.9-5.94-7.14-17.83-27.27-9.48-49.94,8.47-22.99,8.8-46.48,23.63-56.99,26.76-18.9,55.53,12.17,55.53,12.17Z" style="fill:#f4ae7c; fill-rule:evenodd;"/><path d="M1075.35,182.14c25.06,51.43,52.18,44.14,57.1,49.5,39.55,4.57,63.99,70.83,24,101.44-18.91,14.54-31.11,22.17-31.11,22.17l-3.02-8.81c-2.2-6.54-3.1-13.53-2.37-20.44,.45-4.09,1.34-8.54,3.08-12.26,4.53-9.63-9.76-16.08-13.79-24.17-3.07-6.18-3.22-20.44-8.08-30.61l-5.81-7.91s-13.39-10.36-26.5-7.36c-13.11,2.91-21.91-30.77,6.51-61.55Z" style="fill:#0f3970; fill-rule:evenodd;"/><path d="M1110.13,301.47c-.14,8.18,3.6,14.9,8.33,14.9,4.75,.09,8.72-6.45,8.84-14.63,.14-8.18-3.58-14.81-8.34-14.9-4.75-.09-8.69,6.45-8.83,14.63Z" style="fill:#f4ae7c; fill-rule:evenodd;"/><path d="M1265.69,516.7l-60.2,46.97s-26.59-25.44-39.96-53.69c-13.5-28.53-1.64-111.84,12.73-108.02,32.18,8.72,87.43,114.74,87.43,114.74Z" style="fill:#406fb5; fill-rule:evenodd;"/><path d="M1406.23,459.96c-3.44-7.12-7.3-19.78-9.19-42.32,.29,2.23,4.19,30.68,15.13,46.79,44.93,29.49,131.04,128,129.33,146.66,0,0,30.35-51.45,30.87-51.76,0,0,55.95-71.15-10.37-111.91-33.7-20.72-33.52-47.31-32.11-70.4,1.41-23.1-9.2-122.52-76.71-96.5,0,0-10.84-4.82-15.71-4.09,0,0,3.96,.76,5.99,2.84-7.83-.46-19.03,.12-28.36,5.43-24.76,14.07-46.9,140.25-8.87,175.27Z" style="fill:#0f3970; fill-rule:evenodd;"/><path d="M1418.47,469.92c30.66,9.54,113.7,36.43,117.86,35.4l75.68-60.22,46.55,40.89s-103.87,76.89-109.77,79.73c-4.36,2.06-95.82-45.02-138.94-66.06,.62-14.09,1.74-17.44,8.62-29.73Z" style="fill:#f4ae7c; fill-rule:evenodd;"/><path d="M1556.93,478.86l47.41,61.43s49.98-38.4,68.41-59.11c22.36-25.09,46.82-78.95,43.21-80.93-10.12-5.5-31.98-9.88-47.05-6.53-52.15,11.6-111.97,85.13-111.97,85.13Z" style="fill:#406fb5; fill-rule:evenodd;"/><path d="M1438.49,483.24l5.85-30.5s-17.27,4.12-28.26,21.22c-10.99,17.1-29.38,74.74-32.52,76.46-3.14,1.72-37.91-51.8-43.99-60.31-7.51-10.4-10.31-22.42-15.02-31.53-4.71-9.11-21.28-12.2-27.58-11-6.26,1.12,8.62,27.75,8.62,27.75,0,0,37.67,65.38,50.23,101.29,12.55,35.82,51.8,52.92,58.07,47.85,6.28-5.15,24.59-141.23,24.59-141.23Z" style="fill:#f3a992; fill-rule:evenodd;"/><path d="M1431.68,574.91l-47.99-27.32s21.8-91.92,60.65-94.84l-12.66,122.16Z" style="fill:#6998d0; fill-rule:evenodd;"/><path d="M1324.13,463.66s-1.56-6.96-5.79-8.33c-4.23-1.37-11.61-.17-12.06,0-.48,.17-8.62-4.21-8.62-4.21l6.72,12.54s13.17,15.46,17.55,9.71c4.39-5.84,2.2-9.71,2.2-9.71Z" style="fill:#f5b58b; fill-rule:evenodd;"/><path d="M1295.32,451.63s-4.76,24.23-3.55,29.3c1.19,5.07,4.24,2.32,4.79,1.29,2.35-4.55,3.97-20.1,3.97-20.1l-5.21-10.48Z" style="fill:#ef8f7d; fill-rule:evenodd;"/><path d="M1305.54,471.73s-2.28,15.03-4.6,16.75c-1.5,1.2-3.44,.52-4.08-2.49-.64-3.09,3.04-21.56,3.04-21.56l5.63,7.3Z" style="fill:#ef8f7d; fill-rule:evenodd;"/><path d="M1319.39,514.34l7.88-3.87-33.49-68.73c-4.36,2.15-6.16,7.39-4.04,11.77l29.66,60.83Z" style="fill:#002922; fill-rule:evenodd;"/><path d="M1632.13,1276.8s4.08,41.32,14.54,48.88c10.46,7.65,24.42,35.65,17.44,50.86-2.17,4.72-6.53,7.47-11.5,9.03-14.7,4.55-30.34-3.1-36.6-17.19-3.49-7.82-6.56-18.29-7.18-31.53-1.58-33.51-12.03-50.6-12.03-50.6l35.33-9.45Z" style="fill:#f4ae7c; fill-rule:evenodd;"/><path d="M1471.35,1293.72s-3.3,41.67-.62,55.24c1.43,7.22,9.42,22.17,5.75,29.04-3.66,6.78-7.85,8.5-7.85,8.5l-94.91,1.55c-5.17,.09-1.77-3.26,2.41-6.27,6.83-5.07,12.32-8.34,34.13-18.9,1.42-.69,6.59-3.95,8.47-5.06,4.73-2.92,9.49-7.48,13.57-11.95,6.81-7.64,7.41-44.33,7.41-44.33l31.64-7.82Z" style="fill:#f4ae7c; fill-rule:evenodd;"/><path d="M1397.15,739.43s-11.95,67.69-4.09,112.02c7.85,44.42,45.51,455.85,45.51,455.85l41.85,2.4s8.78-171.9,7.21-195.78c-1.57-23.88-13.99-63.92-13.99-63.92l4.16-138.75-52.82-182.31-27.84,10.49Z" style="fill:#142d4d; fill-rule:evenodd;"/><path d="M1520.19,725.16s32.96,49.48,40.81,90.46c7.85,40.98-5.76,166.93,9.34,220.62,8.16,29.04,39.14,73.97,43.85,111.51,4.71,37.54,23.18,135.91,23.18,135.91l-41.84,8.25-97.23-245.61-76.27-222.17-19.55-114.34,117.72,15.37Z" style="fill:#0f3970; fill-rule:evenodd;"/><path d="M1493.51,443.47s22.6,3.69,39.43,20.19c36.1,35.31-21.21,171.56-24.35,195.53-3.14,23.88,25.72,79.64,25.72,79.64,0,0-107.84,19.93-137.16,.61,0,0-3.43-191.84-.29-208.94,3.13-17.01,38.25-69.76,44.53-76.54,6.28-6.87,52.12-10.48,52.12-10.48Z" style="fill:#406fb5; fill-rule:evenodd;"/><path d="M1534.32,479.72c-2.79-8.42-12.32-12.54-20.45-9.02-11.14,4.89-26.53,14-34.05,29.64-12.56,26.2-56.5,116.15-70.11,119.59-13.59,3.35-69.06-93.38-69.06-93.38,0,0,1.56-17.1-3.15-26.81-4.71-9.62-18.82-19.84-20.9-16.49-2.09,3.43,7.85,12.03,7.85,13.74s-4.2,2.75-9.94-.6c-5.76-3.44-8.88-10.31-8.88-10.31,0,0-9.44,17.1,.5,32.48,9.94,15.38,14.12,21.65,14.12,21.65,0,0,64.35,142.87,87.9,144.5,21.92,1.63,148.21-138.4,126.17-204.98Z" style="fill:#f5b58b; fill-rule:evenodd;"/><path d="M1478.98,385.22s.23,1.29,.63,3.52c1.94,10.48,9.45,45.19,14.49,54.73,6.13,11.51-20.94,48.37-46.98,43.9-7.75-1.38,6.55-33.85,5.86-37.29-1.31-6.61-3.1-15.55-4.92-24.83-1.03-5.16-2.08-10.4-3.05-15.38-2.78-14.09-5.06-25.6-5.06-25.6l39.03,.95Z" style="fill:#f5b58b; fill-rule:evenodd;"/><path d="M1479.61,388.74c-.4-2.23-.63-3.52-.63-3.52l-39.03-.95s2.28,11.52,5.06,25.6c.98,4.9,2.02,10.14,3.03,15.29,6.03-.86,12.33-3.78,18.65-9.28,6.88-6.01,11.39-13.23,14.1-20.96-.48-2.49-.88-4.55-1.18-6.19Z" style="fill:#ec724c; fill-rule:evenodd;"/><path d="M1455.5,292.52s15.91,2.15,27.44,17.1c11.52,14.86,23.96,60.91-4.69,85.91-28.64,25-56.94-3.26-61.14-33.33-4.19-30.07-3.34-70.79,38.38-69.67Z" style="fill:#f4ae7c; fill-rule:evenodd;"/><path d="M1407.96,351.89c3.41,6.7,9.16,10.31,12.81,8.25,3.66-2.06,3.86-9.19,.44-15.81-3.42-6.62-9.16-10.31-12.82-8.25-3.66,2.15-3.85,9.19-.43,15.81Z" style="fill:#f4ae7c; fill-rule:evenodd;"/><path d="M1436.62,294.3s36.66,40.76,55.9,38.75c19.22-2.1,27.25,22.18,27.25,22.18,0,0-19.52-55.66-40.54-62.5-21.02-6.83-42.61,1.57-42.61,1.57Z" style="fill:#0f3970; fill-rule:evenodd;"/><path d="M1487.06,348.02c-1.43,7.82,1.45,14.95,6.42,15.89,4.98,1.03,10.17-4.38,11.61-12.2,1.43-7.73-1.45-14.86-6.42-15.89-4.98-1.03-10.17,4.47-11.6,12.2Z" style="fill:#f4ae7c; fill-rule:evenodd;"/><path d="M1613.16,1360.99c22.81,4.2,37.98-9.11,45.87-19.08,5.8,11.25,9.35,25.34,5.08,34.62-3.75,8.16-13.97,10.4-22.61,10.75-9.14,.34-17.68-4.47-22.22-12.38-2.11-3.69-4.29-8.34-6.12-13.91Z" style="fill:#142d4d; fill-rule:evenodd;"/><path d="M1418.73,1357.81c25.1,6.44,43.66,2.06,54.03-2.15,2.68,7.56,6.23,17.1,4.34,22.51-2.3,6.79-5.58,8.25-8.48,8.33-22.93,.61-83.99,1.46-101.46,1.63-2.46,.09-3.8-2.75-2.22-4.64,4.33-5.16,51.91-24.57,53.79-25.68Z" style="fill:#142d4d; fill-rule:evenodd;"/><path d="M1499.08,605.24l-56.51-37.11s23.55-66.5,49.45-90.03c25.91-23.54,38.15-17.87,43.57-12.97,15.01,13.57,12.35,46.48-4.71,87.11-17.07,40.63-31.79,53.01-31.79,53.01Z" style="fill:#6998d0; fill-rule:evenodd;"/><path d="M1587.85,1301.02l2.22,39.01c.81,4.9,4,17.18,4,21.65,0,16.84-75.11-14.35-58.28-21.82,1.53-.69,9.51-5.76,10.01-11.51,.77-8.85,2.73-26.81,2.73-26.81l39.32-.51Z" style="fill:#f4ae7c; fill-rule:evenodd;"/><path d="M1535.98,1339.69s17.63,5.16,26.67,6.44c9.03,1.29,20.94-9.53,27.33-6.62,7.02,3.18,5.66,41.32,5.66,41.32,0,0-98.36,7.65-124.95-.86-10.54-3.44,29.25-28.26,65.29-40.29Z" style="fill:#0f3970; fill-rule:evenodd;"/><path d="M1753.34,1304.71l2.21,39.09c.81,4.9,4,17.1,4,21.57,0,16.93-75.11-14.26-58.28-21.74,1.53-.68,11.87-9.62,12.38-15.37,.78-8.94,.36-22.94,.36-22.94l39.33-.61Z" style="fill:#f4ae7c; fill-rule:evenodd;"/><path d="M1701.46,1343.38s17.63,5.24,26.67,6.53c9.03,1.29,20.94-9.62,27.33-6.7,7.02,3.26,8.84,38.92,8.84,38.92,0,0-104.37,11.25-128.04,4.46-10.64-3.09,29.15-31.1,65.21-43.21Z" style="fill:#0f3970; fill-rule:evenodd;"/><path d="M1634.31,742.69l-31.76,13.75-66.79,318.99,2.7,239.08,53.55,1.29s24.91-209.19,24.91-225.43,115.36-283.67,115.36-283.67l-97.96-64.01Z" style="fill:#142d4d; fill-rule:evenodd;"/><path d="M1658.82,760.3s8.87,241.93,8.87,283.42,12.64,274.31,12.64,274.31l74.53,2.41s3.86-70.62,9.61-174.65c.92-16.24-1.15-49.14,0-65.98,8.36-121.22,24.87-235.39,16.99-280.67-1.27-7.21-3.67-26.28-8.3-31.1-35.15-36.33-114.33-7.73-114.33-7.73Z" style="fill:#0f3970; fill-rule:evenodd;"/><path d="M1747.22,392.69s37.04,5.15,46.79,12.29c10.98,8.07,23.17,26.12,23.17,26.12,0,0-45.48,215.03-45.56,251.2-.06,27.92,9.85,96.65,9.85,96.65,0,0-137.42,8.67-189.46-11.86,0,0,16.43-81.7,16.43-103.18s19.66-216.58,24.13-230.24c4.06-12.37,11.48-34.54,36.59-40.03,25.12-5.5,78.07-.95,78.07-.95Z" style="fill:#6998d0; fill-rule:evenodd;"/><path d="M1737.11,334.88l8.86,57.99s-27.86,49.66-47.84,43.47c-16.78-5.24-11.78-44.67-11.78-44.67,0,0,9.14-33.93,6.4-50.94-2.74-17.01,44.36-5.84,44.36-5.84Z" style="fill:#f4ae7c; fill-rule:evenodd;"/><path d="M1692.75,340.72c-2.74-17.01,44.36-5.84,44.36-5.84l.75,4.98c-1.37,3.26-3.06,6.1-5.1,8.34-10.52,11.25-26.97,17.96-41.18,18.47,1.42-9.11,2.29-18.99,1.17-25.94Z" style="fill:#ec724c; fill-rule:evenodd;"/><path d="M1744.83,249.91c1.34-.43,10.67,68.38-7.05,87.29-17.72,18.98-52.25,25.17-64.64,10.22-13.7-16.49-13-90.46,14.55-109.96,27.55-19.5,57.14,12.46,57.14,12.46Z" style="fill:#f4ae7c; fill-rule:evenodd;"/><path d="M1698.18,200.69c4.56,26.83,50.63,8.83,76.54,51.45,16.69,27.49,4.37,57.91-15.06,72.77-19.43,14.95-19.09,32.39-19.09,32.39l-3.13-9.1c-2.27-6.79-3.2-13.92-2.44-21.05,.46-4.2,1.37-8.84,3.15-12.63,4.67-9.97-10.04-16.58-14.16-24.83-3.18-6.36-3.33-20.96-8.34-31.53l-5.97-8.08s-13.78-10.65-27.27-7.64c-13.49,3-11.55-47.34,15.78-41.75Z" style="fill:#0f3970; fill-rule:evenodd;"/><path d="M1724.89,301.89c-.14,8.42,3.7,15.29,8.58,15.38,4.88,.09,8.95-6.62,9.09-15.03,.14-8.42-3.71-15.29-8.59-15.38-4.88-.09-8.95,6.7-9.09,15.03Z" style="fill:#f4ae7c; fill-rule:evenodd;"/><path d="M1803.35,420.36c-12.46-.34-23.49,81.87-15.59,89.95,7.9,8.16,9.41,109.37,9.41,109.37l-117.57-2.92v.09c-2.3-1.55-26.93-18.13-30.46-21.73-3.69-3.78-21.64-1.89-26.39,3.35-4.75,5.24,10.56,.95,14.78,3.78,4.22,2.84-3.17,9.97-3.17,9.97,0,0-29.79,4.29-35.6-1.89-5.81-6.1-21.32-16.58-23.43-10.39-1.09,3.18,6.91,12.8,11.41,16.84-5.61-4.21-12.36-8.67-14.66-7.9-4.23,1.46-2.47,6.79-.18,8.42,2.28,1.55,25.94,19.59,29.63,20.88,3.62,1.2,58.63,2.58,68.14,4.72,0,0,155.02,35.31,163.84,33.08,7.73-1.89,15.46-51.55,15.46-89.61s-6.68-164.78-45.62-165.98Z" style="fill:#f4ae7c; fill-rule:evenodd;"/><path d="M1787.17,401.63s21.7,4.98,44.09,30.15c20.38,22.94,33.22,151.12,33.22,151.12l-70.36,11.34-5.61-61.94c-16.32-36.34-20.82-78.05-1.35-130.67Z" style="fill:#406fb5; fill-rule:evenodd;"/><path d="M1447.97,450.6s-4.9-5.33-14.06-4.64c-9.16,.6-21.16,12.2-22.83,16.41-.87,2.06,4.88,18.99,7.39,22.68,1.48,2.23,4.88,3.35,6.07,2.15,.79-.77-.03-4.64-.26-5.41-.42-1.64-3.46-12.03-3.46-12.03,0,0,5.92,10.48,8.67,11.08,2.76,.69,4.29-1.55,4.12-2.41-.84-4.47-5.45-13.06-5.45-13.06,0,0,6.94,10.22,10.34,9.1,3.41-1.03,2-4.64,1.49-5.93-.51-1.2-5.25-8.25-5.25-8.25,0,0,7.51,10.48,8.98,6.7,.9-2.23-4.02-12.11-4.02-12.11l8.27-4.3Z" style="fill:#f5b58b; fill-rule:evenodd;"/><path d="M651.65,1281.83l-2.31,40.6c-.82,5.13-4.14,17.82-4.14,22.52,0,17.56,78.12-14.87,60.63-22.69-1.61-.7-12.37-10-12.87-16-.8-9.21-.4-23.82-.4-23.82l-40.91-.61Z" style="fill:#f4ae7c; fill-rule:evenodd;"/><path d="M705.61,1322.09s-18.33,5.39-27.72,6.69c-9.39,1.39-21.8-9.91-28.44-6.86-7.3,3.39-7.81,42.08-7.81,42.08,0,0,96.18,7.3,120.8,.27,11.05-3.22-19.32-29.65-56.83-42.17Z" style="fill:#142d4d; fill-rule:evenodd;"/><path d="M802.31,1281.83l-2.3,40.6c-.85,5.13-4.18,17.82-4.18,22.52,0,17.56,78.15-14.87,60.64-22.69-1.58-.7-12.33-10-12.88-16-.8-9.21-.37-23.82-.37-23.82l-40.91-.61Z" style="fill:#f4ae7c; fill-rule:evenodd;"/><path d="M856.27,1322.09s-18.35,5.39-27.74,6.69c-9.39,1.39-21.78-9.91-28.42-6.86-7.33,3.39-7.8,42.08-7.8,42.08,0,0,96.16,7.3,120.77,.27,11.08-3.22-19.28-29.65-56.8-42.17Z" style="fill:#142d4d; fill-rule:evenodd;"/><path d="M868.42,219.41c2.52,19.82,5.65,18.52,5.89,21.12,.32,2.96-17.76,39.3-17.76,39.3,0,0-52.64,107.29-55.65,113.03l-93.62,78.94,24.26,58.25s99.63-88.59,104.08-94.16c4.41-5.56,59.25-158.93,64.48-172.23,0,0,11.93-13.65,19.15-22.52,7.22-8.78,10.33-20.34,11.99-23.21,.24-.35,5.27-10,8.43-23.56,2.7-11.65-5.03-1.74-5.03-1.74,0,0-8.78,20.69-10.25,19.74-1.12-.79,4.31-11.83,7.44-24.69,.8-3.3,1.57-6.52,2.29-9.56,1.83-7.82-2.36-11.22-5.54-3.22-1.12,2.78-2.88,7.48-3.7,11.04-.85,3.83-2.83,7.04-4.03,10.17-2.38,6.17-4.01,10.69-4.22,10.43-.24-.26-1.56,.61-.81-2.96,.92-4.17,4.77-12.87,5.63-19.21,.48-3.56,1.92-11.04,1.92-11.04,0,0,.15-11.65-.51-11.91-3.59-1.21-5.88,6.78-5.91,11.74-1.61,3.13-2.92,11.04-2.92,11.04,0,0-6.11,15.39-8.27,14.61-.91-.35,1.77-10.26,2.92-20.35,1.04-9.39,.63-19.04-1.13-19.47-3.02-.87-5.27,9.48-5.27,9.48,0,0-1.19,7.31-1.79,9.65-.67,2.87-3.32,11.13-3.32,11.13,0,0-10.56,28.26-12.52,27.3-1.93-.96-5.94-5.48-5.86-7.48,.06-1.91,2.03-5.56,2.09-7.48,.08-2-1.5-4.61-3.85-4.87-2.36-.26-6.23,9.3-6.23,9.3,0,0-3.1,7.74-2.39,13.39Z" style="fill:#f4ae7c; fill-rule:evenodd;"/><path d="M397.39,257.57c1.1,19.91-2.19,19.3-1.97,21.82,.23,3.04,24.61,35.39,24.61,35.39,0,0,71.2,96.07,75.23,101.11l106.35,60.68-13.3,61.73s-114.05-69.12-119.41-73.82c-5.37-4.61-87.06-145.54-94.63-157.71,0,0-14.23-11.22-22.93-18.61-8.69-7.3-13.86-18.17-16-20.6-.32-.35-7-8.96-12.54-21.65-4.79-10.96,4.62-2.7,4.62-2.7,0,0,12.39,18.78,13.65,17.56,.96-.95-6.37-10.78-11.8-22.86-1.4-3.13-2.73-6.17-3.96-9.04-3.25-7.39,.26-11.48,4.84-4.17,1.6,2.52,4.2,6.87,5.61,10.17,1.56,3.65,4.07,6.43,5.81,9.3,3.48,5.65,5.92,9.74,6.08,9.48,.18-.35,1.62,.35,.23-3.04-1.66-4-6.98-11.74-8.99-17.83-1.12-3.48-3.9-10.52-3.9-10.52,0,0-2.28-11.48-1.66-11.83,3.29-1.91,7,5.56,7.94,10.43,2.13,2.78,4.87,10.35,4.87,10.35,0,0,8.84,14,10.76,12.87,.83-.52-3.59-9.82-6.55-19.48-2.73-9.04-4.07-18.6-2.41-19.39,2.81-1.3,6.9,8.35,6.9,8.35,0,0,2.5,6.96,3.51,9.22,1.18,2.7,5.31,10.26,5.31,10.26,0,0,15.51,26,17.26,24.69,1.74-1.3,4.84-6.52,4.41-8.43-.43-1.91-3.02-5.13-3.46-7.04-.4-1.91,.64-4.78,2.95-5.48,2.27-.61,7.82,8,7.82,8,0,0,4.45,7.04,4.75,12.78Z" style="fill:#f4ae7c; fill-rule:evenodd;"/><path d="M674.28,766.44s118.37,281.69,122.76,306.99c3.18,18.6-.93,229.26-.93,229.26l55.97-.87,19.64-240.73-73.66-303.61-123.78,8.96Z" style="fill:#142d4d; fill-rule:evenodd;"/><polygon points="622.25 779.65 676.18 1092.48 640.95 1301.83 704.67 1301.83 754.76 1076.73 761.64 830.08 735.82 750.71 622.25 779.65" style="fill:#0f3970; fill-rule:evenodd;"/><path d="M776.84,408.33s14,63.03,23.82,72.86c0,0-50.04,33.38-47.71,46.68,2.33,13.22,55.41,260.83,55.41,260.83,0,0-109.3,56.95-177.28,47.81,0,0-51.18-282.12-64.43-295.34-13.24-13.22-54.37-34.17-54.37-34.17,0,0,30.75-59.04,30.75-69.56,0,0,72.99,34,85.29,46.25,12.33,12.34,36.2-3.22,41.95-5.74,0,0,97.79-64.25,106.56-69.64Z" style="fill:#406fb5; fill-rule:evenodd;"/><path d="M637.95,426.33l-9.25,57.9s24.29,40.43,43.71,34.43c16.32-5.05,14.9-37.04,14.9-37.04,0,0-8.88-32.95-6.21-49.56,2.65-16.52-43.16-5.74-43.16-5.74Z" style="fill:#f4ae7c; fill-rule:evenodd;"/><path d="M681.11,432.07c2.65-16.52-43.16-5.74-43.16-5.74l-.72,4.87c1.34,3.22,2.97,6,4.96,8.17,10.24,10.87,26.21,17.47,40.04,18-1.36-8.96-2.21-18.52-1.12-25.3Z" style="fill:#ec724c; fill-rule:evenodd;"/><path d="M630.44,343.73c-1.29-.44-10.35,66.51,6.88,84.94,17.23,18.43,50.8,24.43,62.84,9.91,13.33-16,12.66-87.99-14.13-106.94-26.8-18.95-55.59,12.08-55.59,12.08Z" style="fill:#f4ae7c; fill-rule:evenodd;"/><path d="M631.98,306.87c-9.39,1.13-25.81,14.17-39.03,35.9-16.22,26.69,4.17,59.47,23.07,73.99,18.91,14.43,18.51,31.3,18.51,31.3l3.1-8.69c2.23-6.61,3.1-13.56,2.38-20.43-.45-4.17-1.34-8.61-3.05-12.34-4.54-9.65,9.78-16.09,13.76-24.17,3.1-6.17,3.25-20.43,8.11-30.69l5.82-7.82s16.41,1.48,26.52-7.39c29-25.47-15.3-59.12-59.18-29.64Z" style="fill:#0f3970; fill-rule:evenodd;"/><path d="M649.83,394.33c.15,8.17-3.59,14.87-8.35,14.95-4.74,.09-8.7-6.43-8.83-14.6-.14-8.17,3.59-14.87,8.34-14.95,4.74-.09,8.69,6.43,8.84,14.6Z" style="fill:#f4ae7c; fill-rule:evenodd;"/><path d="M207.07,1210.17c114.36,0,207.07,13.29,207.07,29.69s-92.71,29.69-207.07,29.69S0,1256.26,0,1239.86s92.71-29.69,207.07-29.69Z" style="fill:#d0d9ee; fill-rule:evenodd;"/><path d="M244.38,731.07c-3.26-4.22-7.73-7.4-12.21-10.19-1.19-.75-2.92-.24-3.57,.98-3.47,6.46-6.68,13.09-10.66,19.28-1.3,2.04-3.17,4.74-4.84,5.94-.1,.07-.53,.28-.71,.38-.03-.03-.05-.06-.09-.11-.32-.48-.51-1-.69-1.56-3.1-9.51,.66-19.69-1.78-29.26-1.29-5.07-4.5-10.35-8.16-14.04-3.97-4.02-9.29-5.89-11.75-11.3-.38-.82-1.04-1.2-1.77-1.27h-.49c-.89,.08-1.78,.57-2.29,1.29-5.71,8.23-13.73,16.73-15.25,27.02-1.35,9.13,3.59,16.76,8.84,23.68,2.55,3.35,5.06,6.77,7.04,10.5,1.09,2.05,2.97,5.76,.99,7.78-2.07,2.1-5.22-1.66-6.87-3.35-3.36-3.47-6.2-7.43-9.11-11.27-4.82-6.35-12.43-16-21.5-14.25-3.99,.77-5.62,4.9-5.83,8.5-.33,5.72,2.47,11.87,5.27,16.66,6.38,10.88,19.32,14.03,27.64,22.81,1.91,2.01,7.15,8.93,4.14,11.76-1.05,.99-3.49,.67-4.74,.47-3.05-.47-6.39-1.6-8.85-3.49-9.35-7.23-12.76-19.8-22.58-26.66-4.31-3-10.95-4.84-16.13-3.6-4.39,1.04-6.41,5.17-6.61,9.34-.23,5.05,2.07,10.26,4.61,14.48,2.94,4.87,6.98,8.95,11.93,11.77,9.91,5.63,22.44,6.34,29.04,16.71,.9,1.42,1.87,3.27,1.43,5-.34,1.34-2.24,1.76-3.37,2.02-5.08,1.11-11.75-.77-16.2-3.13-5.39-2.87-9.32-8.07-13.45-12.4-4.37-4.59-9.23-8.33-15.36-10.2-4.45-1.34-9.91-1.12-12.78,3.03-2.63,3.81-2.1,8.94-1.02,13.18,1.42,5.61,4.48,10.81,8.23,15.16,4.06,4.71,10.45,7.37,16.19,9.29,5.97,2,12.16,3.21,18.05,5.44,1.56,.59,2.76,1,4.48,1.13,1.82,.13,3.66,.04,5.45,.5,1.5,.39,.5,1.98,0,3.07-1.22,2.63-5.13,2.52-7.59,2.71-2.34,.19-4.65,.78-6.99,.79-2.68,.02-5.37-.48-8.01-.89-5.24-.79-10.78-1.72-15.97-.15-5.01,1.53-8.55,6.25-9.45,11.31-1.89,10.63,10,17.11,18.82,18.47,5.66,.86,10.78-.37,15.74-3.18,6.13-3.45,10.94-8.45,18.02-9.31,.46,2.83-.55,5.09-3.07,7.21-3.46,2.92-8.24,4.49-12.42,6.05-8.22,3.05-20.25,5.77-24.66,14.28-.54,1.04-.43,2.33,.44,3.17,3.9,3.72,8.39,6.63,13.87,7.07,4.55,.36,8.98-1.75,12.66-4.19,6.59-4.37,12.27-11.17,19.67-14.24-1.02,1.87-2.73,3.15-4.8,4.76-3.7,2.87-5.6,6.86-6.62,11.34-1.55,6.8,.8,14.15,8.79,14.2,4.35,.02,8.72-2.17,12.35-4.35,4.17-2.49,7.49-6.13,10.08-10.18,3.2-5.04,4.98-10.86,5.97-16.8,6.67,13,21.16,26.58,34.83,15.35,11.69-9.6-7.56-16.97-15.16-24.53,1.5,.61,2.95,1.38,4.34,2.09,3.97,2.03,7.82,4.28,11.95,5.96,7.72,3.15,16.38,2.84,20.99-5.09,3.98-6.85-4.27-10.03-9.35-11.56-4.14-1.25-11.88-2.58-14.88-6.75,10.2,1.12,21.55,2.39,30.35-3.51,3.99-2.67,8.78-7.82,9.26-12.84,.38-4.1-4.06-5.55-7.25-5.87-8.7-.85-17.17,2.98-25.89,2.71-2.1-.07-4.18-.29-6.23-.74-.77-.17-1.55-.39-2.27-.72-.27-.12-.55-.36-.74-.5,.04-.12,.12-.27,.24-.42,.78-.9,1.79-1.57,2.77-2.22,2.24-1.47,4.58-2.33,7.24-2.6,5.07-.54,10.13,.1,15.19-.78,5.68-.99,10.29-4.29,14.05-8.52,3.33-3.76,6.55-8.53,7.08-13.66,.55-5.3-2.66-8.88-7.4-10.7-13.23-5.06-20.98,8.61-30.43,14.81-2.5,1.65-5.48,2.73-8.33,3.61-1.16,.36-4.58,1.54-5.7,.63-.67-.55,1.57-4.14,2-4.83,1.9-3.08,4.33-5.23,7.45-7.02,7.9-4.51,17.53-5.92,23.75-13.06,4.08-4.69,7.3-12.63,3.3-18.35-4.24-6.05-13.68-4.42-19.02-.89-6.7,4.43-10.09,13.42-18.16,15.57-.7-3.83,.79-7.35,3.37-10.75,3.77-4.98,8.62-9.06,13.1-13.37,4.28-4.12,8.68-8.62,10.92-14.25,2.28-5.75,.82-11.56-2.89-16.34Z" style="fill:#aab9de; fill-rule:evenodd;"/><path d="M443.88,915.2c1.29-5.18,1.02-10.66,.45-15.91-.15-1.39-1.63-2.44-2.99-2.2-7.23,1.27-14.42,2.86-21.74,3.56-2.41,.24-5.69,.43-7.65-.12-.12-.04-.54-.25-.74-.33,0-.04,.02-.08,.04-.14,.18-.55,.48-1.01,.79-1.5,5.56-8.33,15.88-11.67,21.89-19.53,3.18-4.14,5.33-9.93,5.98-15.09,.7-5.6-1.13-10.94,1.6-16.23,.99-1.93-1.06-3.66-2.83-3.55-10,.61-21.63-.43-30.66,4.74-8.01,4.59-10.94,13.19-13.13,21.61-1.06,4.07-2.19,8.17-3.89,12.03-.94,2.12-2.69,5.9-5.5,5.59-2.94-.32-1.94-5.13-1.63-7.46,.65-4.79,2-9.47,3.22-14.13,2.01-7.72,4.87-19.67-2.11-25.71-3.08-2.66-7.33-1.38-10.29,.68-4.69,3.28-7.79,9.27-9.82,14.45-4.59,11.75,.93,23.86-.82,35.82-.4,2.76-2.59,11.15-6.68,10.55-1.43-.21-2.68-2.34-3.3-3.43-1.52-2.7-2.71-6.01-2.74-9.11-.11-11.83,7.65-22.28,6.96-34.24-.31-5.24-2.97-11.61-7.15-14.91-3.54-2.8-8.04-1.84-11.43,.6-4.11,2.93-6.78,7.96-8.52,12.57-2.01,5.34-2.71,11.02-1.86,16.66,1.7,11.27,8.9,21.55,4.83,33.15-.55,1.58-1.41,3.49-3.04,4.22-1.26,.56-2.77-.67-3.66-1.4-4.02-3.29-6.68-9.7-7.57-14.66-1.08-6,.57-12.3,1.42-18.24,.9-6.27,.82-12.41-1.5-18.37-1.69-4.33-5.25-8.49-10.29-8.17-4.62,.3-8.32,3.9-10.99,7.36-3.53,4.59-5.71,10.21-6.81,15.85-1.19,6.1,.68,12.77,2.71,18.46,2.12,5.92,5,11.54,6.89,17.55,.51,1.58,.93,2.79,1.89,4.22,1.03,1.5,2.23,2.89,2.97,4.59,.62,1.42-1.24,1.61-2.41,1.89-2.82,.67-5.15-2.47-6.83-4.29-1.6-1.72-3.48-3.17-4.94-4.99-1.68-2.11-2.95-4.52-4.27-6.84-2.61-4.61-5.32-9.53-9.77-12.64-4.3-3-10.19-2.86-14.73-.42-9.52,5.09-7.26,18.44-2.86,26.2,2.82,4.98,6.96,8.24,12.24,10.41,6.51,2.67,13.42,3.36,18.47,8.38-1.94,2.11-4.34,2.72-7.57,2.06-4.43-.9-8.63-3.69-12.43-6.01-7.49-4.57-17.06-12.34-26.48-10.53-1.14,.22-2.1,1.1-2.21,2.3-.51,5.37-.03,10.7,3.02,15.27,2.53,3.8,6.93,5.98,11.13,7.36,7.51,2.47,16.36,2.73,23.36,6.64-2.1,.36-4.16-.19-6.71-.83-4.55-1.13-8.85-.15-13.01,1.82-6.3,2.99-10.62,9.4-5.71,15.69,2.68,3.44,7.1,5.51,11.07,7.02,4.53,1.73,9.45,2.08,14.24,1.61,5.94-.6,11.61-2.8,16.89-5.7-6.08,13.29-7.78,33.07,9.51,36.86,14.77,3.23,8.64-16.43,9.88-27.09,.45,1.56,.75,3.17,1.04,4.69,.86,4.38,1.48,8.79,2.71,13.09,2.3,8.01,7.9,14.62,17,13.34,7.85-1.11,5.24-9.57,3.29-14.5-1.58-4.03-5.32-10.92-3.91-15.86,5.43,8.71,11.48,18.4,21.54,21.67,4.56,1.48,11.57,2.06,15.82-.67,3.46-2.24,1.85-6.63,.12-9.33-4.72-7.36-12.97-11.64-18.15-18.67-1.25-1.69-2.36-3.46-3.27-5.35-.34-.71-.66-1.45-.85-2.22-.07-.28-.06-.66-.06-.9,.12-.04,.28-.06,.47-.06,1.19,.04,2.34,.43,3.46,.79,2.54,.85,4.66,2.16,6.53,4.08,3.56,3.65,6.19,8.01,10.01,11.45,4.3,3.85,9.73,5.43,15.38,5.76,5.02,.3,10.76-.14,15.11-2.89,4.51-2.84,5.34-7.6,3.83-12.44-4.21-13.52-19.75-11.14-30.47-14.72-2.84-.95-5.53-2.62-7.98-4.31-1-.69-4.04-2.65-4.02-4.1,0-.86,4.22-1.33,5.03-1.42,3.6-.41,6.78,.16,10.12,1.51,8.43,3.4,15.5,10.1,24.95,10.57,6.22,.31,14.45-2.08,16.46-8.75,2.14-7.07-4.99-13.48-11.07-15.49-7.63-2.52-16.78,.38-23.46-4.62,2.57-2.92,6.26-3.93,10.53-4.01,6.24-.12,12.45,1.16,18.6,2,5.89,.82,12.15,1.5,17.94-.24,5.94-1.77,9.6-6.52,11.06-12.38Z" style="fill:#aab9de; fill-rule:evenodd;"/><path d="M89.34,771.1c-4.96-1.93-10.44-2.36-15.72-2.45-1.4-.03-2.62,1.3-2.56,2.68,.36,7.33,1.01,14.67,.79,22.01-.07,2.41-.28,5.69-1.09,7.58-.06,.11-.31,.51-.42,.69-.04-.02-.07-.02-.12-.05-.53-.25-.96-.61-1.4-.99-7.54-6.55-9.56-17.22-16.59-24.18-3.72-3.68-9.18-6.55-14.21-7.84-5.47-1.41-10.99-.27-15.89-3.64-1.79-1.23-3.77,.59-3.89,2.36-.67,10-3.17,21.41,.82,31.01,3.54,8.53,11.69,12.52,19.77,15.75,3.91,1.56,7.82,3.2,11.43,5.38,1.99,1.2,5.52,3.41,4.85,6.16-.69,2.88-5.33,1.27-7.61,.67-4.67-1.25-9.14-3.18-13.61-4.98-7.39-2.96-18.9-7.32-25.77-1.16-3.02,2.71-2.29,7.09-.62,10.29,2.66,5.07,8.22,8.9,13.1,11.58,11.07,6.03,23.78,2.09,35.43,5.34,2.68,.75,10.73,3.98,9.61,7.96-.39,1.38-2.66,2.36-3.82,2.84-2.86,1.16-6.3,1.92-9.39,1.55-11.73-1.38-21.13-10.41-33.08-11.23-5.24-.36-11.88,1.48-15.69,5.21-3.22,3.16-2.83,7.74-.85,11.42,2.39,4.45,7.04,7.73,11.4,10.04,5.03,2.67,10.59,4.09,16.28,3.96,11.4-.26,22.52-6.11,33.5-.59,1.5,.75,3.29,1.83,3.81,3.54,.4,1.32-1.02,2.67-1.86,3.46-3.78,3.58-10.46,5.4-15.5,5.66-6.1,.31-12.13-2.12-17.92-3.72-6.1-1.69-12.2-2.39-18.41-.83-4.51,1.12-9.08,4.14-9.4,9.17-.3,4.62,2.8,8.75,5.9,11.83,4.11,4.09,9.4,6.96,14.86,8.77,5.9,1.94,12.76,.94,18.66-.36,6.15-1.35,12.08-3.51,18.28-4.62,1.64-.3,2.89-.56,4.41-1.34,1.63-.83,3.17-1.85,4.93-2.37,1.49-.44,1.45,1.43,1.58,2.63,.3,2.88-3.11,4.8-5.12,6.23-1.91,1.36-3.59,3.05-5.58,4.27-2.29,1.4-4.85,2.35-7.32,3.36-4.91,2-10.13,4.07-13.77,8.09-3.52,3.89-4.12,9.76-2.29,14.55,3.85,10.09,17.37,9.53,25.63,6.16,5.3-2.17,9.06-5.86,11.87-10.82,3.47-6.12,5.03-12.89,10.65-17.26,1.84,2.19,2.15,4.65,1.08,7.77-1.46,4.28-4.75,8.09-7.54,11.57-5.48,6.84-14.4,15.37-13.8,24.94,.07,1.16,.83,2.21,2,2.49,5.26,1.18,10.62,1.38,15.54-1.07,4.08-2.03,6.8-6.12,8.71-10.12,3.4-7.14,4.77-15.88,9.53-22.32,.09,2.13-.72,4.1-1.67,6.54-1.69,4.38-1.27,8.77,.16,13.14,2.17,6.63,7.98,11.73,14.84,7.65,3.75-2.21,6.36-6.35,8.36-10.08,2.29-4.28,3.27-9.11,3.39-13.92,.15-5.97-1.31-11.87-3.52-17.47,12.41,7.7,31.82,11.9,37.77-4.77,5.08-14.25-15.21-10.66-25.62-13.23,1.61-.25,3.25-.33,4.8-.45,4.45-.29,8.9-.35,13.32-1.03,8.24-1.27,15.5-5.99,15.38-15.17-.1-7.92-8.82-6.4-13.97-5.09-4.18,1.07-11.51,3.89-16.22,1.87,9.32-4.29,19.71-9.05,24.22-18.62,2.05-4.35,3.51-11.22,1.33-15.78-1.77-3.71-6.33-2.67-9.24-1.3-7.9,3.75-13.19,11.4-20.81,15.65-1.84,1.01-3.73,1.9-5.72,2.56-.75,.25-1.53,.47-2.31,.56-.3,.03-.66-.03-.9-.05-.02-.13-.03-.28,0-.48,.2-1.17,.72-2.27,1.24-3.33,1.16-2.41,2.72-4.35,4.86-5.96,4.07-3.06,8.74-5.12,12.63-8.48,4.37-3.76,6.63-8.96,7.67-14.53,.92-4.94,1.22-10.68-.96-15.35-2.26-4.83-6.86-6.25-11.85-5.37-13.96,2.47-13.56,18.18-18.46,28.37-1.3,2.69-3.3,5.16-5.29,7.37-.82,.9-3.13,3.67-4.57,3.48-.85-.12-.79-4.37-.77-5.17,.05-3.63,1.02-6.71,2.78-9.85,4.45-7.93,11.98-14.1,13.65-23.42,1.09-6.13-.24-14.59-6.61-17.44-6.76-3-14.01,3.25-16.77,9.03-3.47,7.25-1.75,16.69-7.56,22.69-2.57-2.92-3.1-6.7-2.65-10.95,.67-6.21,2.74-12.21,4.35-18.2,1.55-5.74,3.01-11.86,2.03-17.83-1-6.1-5.24-10.34-10.88-12.53Z" style="fill:#aab9de; fill-rule:evenodd;"/><path d="M343.33,843.15c-.71-5.28-2.98-10.27-5.45-14.94-.66-1.24-2.41-1.67-3.59-.94-6.25,3.86-12.35,7.98-18.89,11.33-2.15,1.1-5.13,2.5-7.16,2.7-.13,.01-.6-.02-.81-.03,0-.05-.01-.09-.02-.14-.04-.58,.06-1.13,.19-1.7,2.09-9.77,10.44-16.69,13.14-26.22,1.43-5.03,1.29-11.2-.01-16.23-1.41-5.47-5.08-9.74-4.5-15.67,.22-2.16-2.34-3-3.94-2.26-9.08,4.25-20.27,7.59-26.75,15.72-5.75,7.22-5.31,16.29-4.23,24.92,.53,4.17,.98,8.39,.82,12.61-.09,2.32-.32,6.48-3.04,7.22-2.86,.79-3.7-4.04-4.27-6.33-1.16-4.69-1.64-9.53-2.23-14.32-.98-7.91-2.73-20.08-11.45-23.11-3.84-1.34-7.32,1.42-9.31,4.43-3.16,4.77-3.82,11.49-3.79,17.05,.06,12.61,9.66,21.83,12.46,33.6,.64,2.71,1.71,11.32-2.32,12.26-1.4,.33-3.35-1.18-4.33-1.97-2.41-1.94-4.74-4.59-5.91-7.46-4.46-10.94-1.11-23.53-6.16-34.38-2.22-4.76-7.04-9.68-12.14-11.22-4.32-1.3-8.14,1.26-10.41,4.77-2.73,4.25-3.36,9.91-3.28,14.83,.1,5.7,1.55,11.25,4.41,16.16,5.74,9.86,16.23,16.76,16.73,29.04,.07,1.68-.02,3.77-1.26,5.04-.96,.99-2.83,.4-3.93,.05-4.95-1.58-9.78-6.55-12.45-10.84-3.22-5.19-4.01-11.64-5.41-17.48-1.48-6.16-3.81-11.83-8.17-16.51-3.17-3.41-8.01-5.96-12.58-3.8-4.19,1.97-6.3,6.68-7.49,10.89-1.59,5.58-1.55,11.6-.49,17.24,1.15,6.11,5.35,11.62,9.34,16.16,4.15,4.72,8.91,8.88,12.89,13.76,1.05,1.3,1.89,2.26,3.31,3.23,1.52,1.03,3.15,1.87,4.46,3.16,1.11,1.09-.55,1.96-1.55,2.65-2.37,1.66-5.69-.4-7.93-1.47-2.11-1.01-4.4-1.66-6.43-2.81-2.33-1.33-4.41-3.1-6.49-4.79-4.13-3.32-8.46-6.9-13.74-8.14-5.1-1.2-10.53,1.11-13.84,5.04-6.97,8.25,.06,19.81,7.01,25.41,4.46,3.59,9.5,5.09,15.21,5.16,7.04,.08,13.71-1.83,20.26,.97-1.03,2.68-3.03,4.14-6.27,4.71-4.46,.79-9.39-.25-13.78-1-8.64-1.49-20.42-5.17-28.5-.02-.98,.62-1.54,1.8-1.21,2.96,1.51,5.17,3.93,9.95,8.45,13.08,3.75,2.6,8.64,3,13.06,2.73,7.9-.48,16.21-3.51,24.16-2.46-1.82,1.11-3.94,1.36-6.54,1.71-4.64,.63-8.29,3.13-11.42,6.49-4.75,5.11-6.41,12.66,.48,16.69,3.76,2.2,8.63,2.5,12.87,2.44,4.85-.07,9.55-1.55,13.82-3.77,5.3-2.75,9.75-6.88,13.59-11.52-.74,14.58,4.97,33.6,22.44,30.74,14.92-2.45,1.97-18.48-.82-28.82,.99,1.28,1.87,2.67,2.71,3.98,2.41,3.75,4.61,7.63,7.35,11.15,5.1,6.6,12.74,10.67,20.72,6.13,6.88-3.93,1.34-10.82-2.29-14.7-2.96-3.14-8.98-8.19-9.48-13.29,8.26,6.08,17.45,12.87,28.02,12.19,4.79-.31,11.51-2.35,14.45-6.47,2.39-3.35-.72-6.83-3.33-8.71-7.1-5.1-16.35-6.04-23.76-10.66-1.78-1.1-3.47-2.35-5.01-3.76-.58-.53-1.15-1.11-1.61-1.75-.17-.24-.3-.59-.39-.82,.1-.07,.23-.17,.41-.23,1.13-.4,2.34-.47,3.52-.54,2.67-.15,5.12,.28,7.57,1.38,4.65,2.08,8.71,5.17,13.53,6.94,5.42,2,11.06,1.47,16.42-.32,4.78-1.58,9.95-4.09,12.98-8.26,3.13-4.31,2.15-9.03-1.03-12.97-8.91-11.01-22.48-3.07-33.76-2.45-2.99,.17-6.11-.38-9.01-1.05-1.19-.28-4.73-.98-5.25-2.32-.31-.81,3.44-2.8,4.15-3.18,3.2-1.7,6.37-2.35,9.97-2.33,9.1,.05,18.14,3.67,27.1,.61,5.89-2,12.66-7.27,12.06-14.21-.63-7.37-9.61-10.7-16-10.32-8.03,.48-15.46,6.55-23.51,4.35,1.31-3.65,4.37-5.95,8.3-7.6,5.75-2.42,12.01-3.51,18.04-5,5.78-1.42,11.84-3.1,16.59-6.84,4.87-3.83,6.51-9.6,5.7-15.59Z" style="fill:#bcc9e7; fill-rule:evenodd;"/><path d="M304.69,792.54c-3.03,13.16-5.66,26.41-9.44,39.4-3.88,13.33-9.4,25.65-17.01,37.26-15.7,23.97-35.71,44.75-51.89,68.38-.67,.98-.54,1.94-.02,2.65-3.12,5.9-4.93,12.59-6.23,18.99-2.26,11.15-2.96,22.6-3.4,33.96-.56,13.88-.45,27.67,.2,41.55,.75,16.3,1.84,32.62,1.14,48.95-.04,.94-.09,1.89-.14,2.83-.19,3.38,5.05,3.36,5.24,0,.9-15.93-.03-31.89-.81-47.81-.69-14.2-1.01-28.32-.5-42.53,.39-10.98,.94-21.99,2.81-32.83,1.71-9.86,4.44-21.02,11.88-28.23,1.06-1.03,.95-2.32,.29-3.24,15.12-20.55,32.45-39.44,46.46-60.83,7.5-11.44,12.84-23.79,16.77-36.88,3.97-13.21,6.6-26.8,9.69-40.25,.75-3.29-4.3-4.68-5.05-1.38Z" style="fill:#bcc9e7; fill-rule:evenodd;"/><path d="M219.22,1087.31c-2.84-25.47-14.57-48.26-26.7-70.42-12.04-21.96-24.71-44.23-28.41-69.38-.49-3.34-5.53-1.91-5.05,1.39,7.37,50.2,49.27,87.74,54.92,138.42,.37,3.31,5.61,3.35,5.24,0Z" style="fill:#bcc9e7; fill-rule:evenodd;"/><path d="M296.23,967.94c-22.42,9.78-44.38,24.76-59.43,44.25-8.21,10.65-13.04,22.74-16.07,35.43-1.14-13.23-3.57-26.32-6.1-39.34-5.9-30.38-10.45-60.9-13.31-91.71-1.13-12.23-1.98-24.48-2.55-36.75-.15-3.37-5.39-3.38-5.24,0,1.57,34.05,5.48,67.93,10.77,101.6,3.58,22.77,9.61,45.27,11.36,68.28-1.97-12.44-4.94-24.72-8.76-36.69-5.47-17.11-12.82-33.75-22.36-48.99,.06-.66-.14-1.34-.69-1.96-.64-.72-1.3-1.44-1.97-2.15-2.36-3.56-4.85-7.04-7.46-10.42-1.17-1.51-2.85-.98-3.72,.25-4.01-3.07-8.29-5.81-12.9-8.2-10.77-5.57-24.18-9.19-29.33-21.39-1.31-3.1-5.82-.42-4.53,2.65,5.13,12.12,17.65,16.64,28.58,21.95,9.82,4.77,18.11,10.9,25.52,18.73,10.47,15.93,18.28,33.64,24.06,51.74,7.01,21.97,11.02,45.07,11.07,68.16,0,.12,0,.25,.02,.36-.36,1.71,1,2.84,2.42,2.95,.7,2.38,4.92,2.05,5.15-.95,1.92-24.78,4.74-50.78,20.61-70.99,14.65-18.65,35.89-32.86,57.47-42.28,3.09-1.35,.42-5.86-2.64-4.53Z" style="fill:#aab9de; fill-rule:evenodd;"/><path d="M139.46,791.98c-4.76-2.41-10.16-3.36-15.41-3.96-1.4-.16-2.74,1.04-2.81,2.42-.36,7.33-.41,14.7-1.35,21.99-.31,2.4-.83,5.64-1.82,7.43-.06,.11-.36,.48-.48,.66-.04-.02-.07-.04-.12-.07-.5-.3-.9-.69-1.29-1.11-6.88-7.26-7.86-18.07-14.18-25.67-3.34-4.02-8.51-7.41-13.39-9.18-5.31-1.92-10.91-1.32-15.47-5.15-1.66-1.41-3.8,.22-4.09,1.97-1.63,9.89-5.22,21-2.18,30.95,2.7,8.83,10.43,13.59,18.15,17.59,3.75,1.94,7.48,3.94,10.86,6.47,1.87,1.39,5.16,3.93,4.24,6.59-.96,2.8-5.43,.76-7.64-.07-4.52-1.69-8.78-4.04-13.06-6.26-7.07-3.67-18.1-9.11-25.54-3.65-3.28,2.42-2.97,6.84-1.62,10.18,2.15,5.31,7.32,9.66,11.92,12.79,10.43,7.09,23.46,4.38,34.75,8.73,2.59,1,10.29,5,8.79,8.85-.52,1.35-2.87,2.1-4.07,2.46-2.96,.88-6.46,1.3-9.49,.64-11.55-2.51-20.03-12.4-31.84-14.38-5.18-.86-11.97,.33-16.12,3.67-3.52,2.83-3.57,7.44-1.95,11.28,1.95,4.66,6.26,8.37,10.37,11.09,4.75,3.14,10.15,5.09,15.83,5.51,11.37,.84,23-3.9,33.4,2.64,1.42,.89,3.1,2.15,3.44,3.89,.27,1.35-1.27,2.55-2.18,3.26-4.11,3.2-10.93,4.37-15.98,4.14-6.1-.28-11.87-3.28-17.47-5.43-5.91-2.27-11.91-3.56-18.24-2.6-4.6,.69-9.44,3.23-10.25,8.21-.74,4.58,1.95,8.98,4.74,12.35,3.7,4.45,8.69,7.84,13.95,10.15,5.68,2.5,12.6,2.17,18.6,1.45,6.24-.75,12.36-2.32,18.64-2.84,1.66-.12,2.93-.27,4.53-.9,1.7-.67,3.33-1.53,5.13-1.88,1.52-.3,1.3,1.56,1.31,2.77,.02,2.89-3.56,4.48-5.69,5.71-2.03,1.16-3.86,2.68-5.97,3.71-2.41,1.16-5.05,1.87-7.61,2.63-5.08,1.53-10.48,3.08-14.49,6.73-3.87,3.52-5.04,9.31-3.68,14.26,2.86,10.41,16.37,11.17,24.92,8.6,5.48-1.64,9.58-4.96,12.85-9.62,4.05-5.76,6.25-12.34,12.27-16.15,1.63,2.36,1.69,4.83,.33,7.83-1.87,4.12-5.52,7.6-8.62,10.78-6.11,6.29-15.82,13.91-16.14,23.48-.04,1.17,.61,2.29,1.76,2.67,5.11,1.68,10.42,2.41,15.56,.44,4.26-1.63,7.36-5.44,9.64-9.22,4.08-6.78,6.29-15.35,11.65-21.31-.12,2.13-1.11,4.02-2.29,6.36-2.11,4.18-2.11,8.59-1.11,13.09,1.51,6.81,6.8,12.45,14.03,9.05,3.94-1.85,6.94-5.7,9.29-9.24,2.69-4.03,4.14-8.74,4.72-13.53,.73-5.91-.16-11.93-1.81-17.72,11.6,8.86,30.52,14.91,38.05-1.1,6.42-13.7-14.12-12.08-24.22-15.65,1.62-.08,3.26-.02,4.82,.02,4.46,.14,8.9,.51,13.36,.26,8.32-.48,16.01-4.47,16.77-13.62,.66-7.9-8.16-7.23-13.41-6.42-4.27,.65-11.83,2.76-16.32,.3,9.69-3.38,20.48-7.11,25.91-16.2,2.45-4.13,4.57-10.83,2.84-15.58-1.41-3.86-6.04-3.28-9.06-2.18-8.23,2.97-14.23,10.06-22.23,13.55-1.92,.84-3.9,1.53-5.94,2-.77,.17-1.57,.32-2.36,.33-.3,0-.66-.09-.88-.14-.01-.12,0-.29,.04-.48,.31-1.15,.93-2.19,1.55-3.2,1.38-2.28,3.13-4.06,5.42-5.46,4.35-2.66,9.19-4.26,13.38-7.22,4.71-3.33,7.46-8.29,9.03-13.73,1.4-4.83,2.26-10.51,.53-15.37-1.78-5.03-6.23-6.89-11.28-6.49-14.12,1.11-15.25,16.79-21.12,26.44-1.55,2.56-3.77,4.82-5.96,6.84-.9,.82-3.48,3.35-4.89,3.02-.84-.21-.36-4.43-.27-5.22,.4-3.61,1.66-6.58,3.72-9.55,5.19-7.47,13.29-12.87,15.85-21.99,1.68-6,1.17-14.55-4.9-17.99-6.43-3.66-14.26,1.88-17.56,7.36-4.15,6.88-3.35,16.45-9.72,21.84-2.28-3.15-2.44-6.96-1.57-11.15,1.27-6.11,3.89-11.88,6.08-17.7,2.1-5.58,4.14-11.52,3.75-17.55-.41-6.18-4.22-10.8-9.62-13.52Z" style="fill:#d0d9ee; fill-rule:evenodd;"/><polygon points="278.69 1241.28 165.71 1241.28 128.74 1095.17 313.1 1095.17 278.69 1241.28" style="fill:#bcc9e7; fill-rule:evenodd;"/><rect x="116.41" y="1076.19" width="206.45" height="18.99" style="fill:#aab9de;"/><polygon points="220.91 1095.17 128.74 1095.17 165.71 1241.28 220.91 1241.28 220.91 1095.17" style="fill:#aab9de; fill-rule:evenodd;"/><rect x="116.41" y="1076.19" width="104.51" height="18.99" style="fill:#8d9fca;"/><polygon points="278.69 1243.47 165.71 1243.47 128.74 1223.74 313.1 1223.74 278.69 1243.47" style="fill:#aab9de; fill-rule:evenodd;"/><polygon points="220.91 1223.74 128.74 1223.74 165.71 1243.47 220.91 1243.47 220.91 1223.74" style="fill:#8d9fca; fill-rule:evenodd;"/><path d="M533.51,1323.78c-12.61,3.5,1.23,10.86-6.59,14.93-20.37-5.94-36.4-30.8-46.29-41.17-5.21-5.45-6.21,3.16-6.12,12.54,.2,20.14,5.92,45.53,12.23,52.42,2.05-6.52,.98-24.97,1.6-36.53,21.33,11.93,21.28,30.28,33.18,33.91,25.99-2.78,39.86-5.11,59.21-8.93,.62-17.31-31.66-4.4-47.23-27.17Z" style="fill:#142d4d; fill-rule:evenodd;"/><path d="M341.55,1338.76c-13.08,.7-1.14,10.88-9.65,13.16-18.61-10.18-28.92-37.92-36.34-50.17-3.91-6.44-6.74,1.76-8.67,10.93-4.14,19.71-4.01,45.73,.67,53.82,3.4-5.93,6.33-24.18,9.42-35.33,18.26,16.24,14.27,34.15,25.1,40.25,25.98,2.88,40.03,3.59,59.75,4.03,4.33-16.77-29.98-11.1-40.28-36.7Z" style="fill:#142d4d; fill-rule:evenodd;"/><path d="M358.16,435.77c3.88-3.3,6.27-14.49,6.55-24.39-.48-3.68-.8-8.28-1.01-13.8-19.11-19.95-19.77-31.82-1.98-35.65,2.87,2.53,5.73,9.05,8.57,19.55,3.91,.67,7.27-.69,10.08-4.07-1.21-16.97-1.45-30.59-.72-40.86,14.51-14.02,40.76-10.87,73.92,.81-.35,9.42-1.11,19.31-2.26,29.68,4.85,6.84-.32,27.27-10.93,49.82-.1,14.09-10,19.68-29.71,16.77l1.56,4.96c6.15,.86,12.4,1.87,18.73,3.03,32.69,66.25-30.02,93.15-90.06-2.6,4.75-.82,10.49-1.9,17.24-3.26Z" style="fill:#f5b58b; fill-rule:evenodd;"/><path d="M457.65,352.74c-29.69-1.54-51.43-26.14-78.4-3.42-.72,10.27-.08,11.14,1.13,28.1-2.81,3.38-6.17,4.74-10.08,4.07-2.84-10.5-5.69-17.02-8.57-19.55-17.8,3.82-17.13,15.7,1.98,35.65,.2,5.52,.53,10.12,1.01,13.8-.28,9.9-2.68,21.1-6.55,24.4-6.75,1.35-12.49,2.43-17.24,3.25-8.1,1.79-15.8,3.91-22.98,6.35-17.63,5.98-32.1,13.89-41.43,23.74-9.43,29.24-16.91,64.48-22.43,105.71-7.21-3.88-13.99-9.48-20.85-18.77-28.21-38.17,22.23-10.29,16.51-70.72-4.14-43.7,51.92-28.9,55.17-82.8,5.3-87.99,41.7-97.75,59.2-99.11,20.99-19.39,76.82-33.62,101.17-8.15,21.61,22.6,15.25,56.37-7.64,57.47h0Zm-144.59,193.56c-1.19,17.47-3.05,33.4-5.57,47.8,1.25,.58,2.51,1.2,3.8,1.85,6.95,3.5,14.51,3.65,21.99,1.81-4.12-19.73-10.86-36.88-20.21-51.46h0Zm139.65-165.75c-1.38,9.58-5.83,22.56-12.31,36.33-.1,14.09-10,19.68-29.71,16.77l1.56,4.96c6.15,.86,12.4,1.87,18.73,3.03,15.33,2.71,23.8,7.77,26.41,11.3,5.31,2.87,9.83,5.63,13.71,8.29-1.17-7.36-4.51-14.47-8.67-21.31-9.84-16.2,16.36-4.86,4.85-30.13-6.6-14.48-10.26-20.26-14.58-29.23Z" style="fill:#0f3970; fill-rule:evenodd;"/><path d="M363.21,908.25c20.49,39.77,39.52,76.85,57.08,111.23-25.85,28.61-51.13,87.92-75.83,177.91h-41.42c9.52-120.95,22.32-188.69,47.86-203.53,3.39-28.93,7.5-57.47,12.32-85.62Z" style="fill:#0f3970; fill-rule:evenodd;"/><path d="M427.83,816.75c15.82,25.9,28.84,55.45,39.06,88.63,10.32,33.49,17.78,70.7,22.39,111.62-4.62,36.51-3.56,108.46,7.02,214.22h-34.41c-25.22-85.82-39.09-156.41-41.6-211.74-17.56-34.38-36.58-71.46-57.08-111.23-5.84-11.33-15.4-34.13-23.9-42.14-13.38-12.6-24.53-25.18-33.46-37.74,32.7-29.14,73.35-33.02,121.97-11.62Z" style="fill:#0f3970; fill-rule:evenodd;"/><path d="M462.03,643.52c53.28,90.92,53.51,131.01,24.25,208.27-66.28-32.1-117.75-29.74-154.41,7.07-10.46-10.57-19.14-20.74-26.01-30.49-44.47-62.52-33.73-124.41,32.21-185.67,74.83,33.08,116.15,33.35,123.96,.82Z" style="fill:#0f3970; fill-rule:evenodd;"/><path d="M347.98,846.13c-4.96,3.48-9.68,7.48-14.18,12-10.46-10.57-19.14-20.74-26.02-30.48-44.47-62.52-33.73-124.42,32.22-185.67,4.85,2.14,9.55,4.15,14.12,6.01-53.27,51.71-58.05,120.91-6.14,198.14h0Z" style="fill:#142d4d; fill-rule:evenodd;"/><path d="M215.46,609.21c13.73,15.06,24.26,26.57,31.59,34.56,5.32-72.03,15.14-130.25,29.46-174.66,9.34-9.84,23.8-17.75,41.43-23.73,18.84,4.14,19.5,123.18-4.89,100.92-5.16,75.4-22.63,122.2-52.41,140.41-17.42,3.19-35.05-6.19-52.89-28.12l13.37-8.2-5.65-41.18Z" style="fill:#6998d0; fill-rule:evenodd;"/><path d="M461.11,606.76c7.98-58.41,57.17-86.98-3.03-152.63-.14-.38-.38-.78-.69-1.21,25.51,13.81,32.96,24.84,36.52,37.09,14.39,49.5,19.78,107.11,24.44,170.69,18.43,16.93,36.76,37.22,57.93,72.87l-32.21,11.02-5.27,4.31c-20.77-18.9-39.82-36.74-56.75-68.85-9.73-21.62-16.5-45.98-20.94-73.28Z" style="fill:#6998d0; fill-rule:evenodd;"/><path d="M470.46,572.61c2.54,66.38,16.85,116.96,42.94,151.73-11.1-11.97-21.59-25.75-31.35-44.29-9.73-21.62-16.5-45.98-20.94-73.28,1.71-12.54,5.32-23.71,9.35-34.15Z" style="fill:#406fb5; fill-rule:evenodd;"/><path d="M488.56,1133.35c-18.89,5.24-35.84,6.94-50.84,5.12,6.08,22.99,15.53,67.04,28.34,132.14,12.42,1.68,26.18-.14,36.44-4.37-4.99-43.15-11.24-87.08-13.94-132.89Z" style="fill:#0f3970; fill-rule:evenodd;"/><path d="M500.09,1266.79c-8,3.29-16.64,4.79-25.95,4.5,1.84,5.79,3.72,11.65,5.65,17.56,.27,2.38,.02,4.83-.72,7.38,.48,.28,1,.71,1.58,1.31,9.89,10.36,25.92,35.24,46.29,41.17,6.79-3.54-2.78-9.56,2.89-13.38-11.1-9.99-20.26-22.95-27.46-38.89-.79-6.65-1.55-13.21-2.27-19.65Z" style="fill:#f4ae7c; fill-rule:evenodd;"/><path d="M368.01,1121.36c-20.15-15.61-38.91-19.22-56.3-10.83-4.58,50.34-10.5,101.87-17.78,154.61,10.44,4.98,22.23,6.39,35.35,4.23,9.8-55.36,22.71-104.7,38.72-148.01Z" style="fill:#0f3970; fill-rule:evenodd;"/><path d="M326.22,1269.82c-10.17,1.26-19.51,.3-28.01-2.87-.53,8.39-1.04,16.97-1.55,25.75-.07,2.59-.74,5.19-2,7.83,.29,.32,.59,.74,.89,1.24,7.43,12.24,17.73,39.99,36.34,50.17,7.38-1.99-.61-9.89,5.66-12.43-12.22-19.3-17.97-33.85-17.24-43.63,1.96-8.89,3.93-17.57,5.9-26.06Z" style="fill:#f4ae7c; fill-rule:evenodd;"/><path d="M430.98,441.63c32.69,66.25-30.02,93.15-90.06-2.6-8.1,1.8-15.8,3.91-22.98,6.35,5.66,1.25,9.69,12.88,11.88,27.94,5.08,33.28,6.6,60.88,4.59,82.78,11.47,24.63,18.04,55.26,19.71,91.89-.36,.36-.73,.71-1.09,1.07,65.4,26.61,101.73,24.76,109.01-5.53-2.45-13.62-2.42-25.72-.91-36.76,1.71-12.54,5.32-23.71,9.35-34.15,14.71-38.23,34.9-66.92-12.38-118.48-.14-.38-.38-.78-.69-1.21-2.62-3.53-11.09-8.58-26.41-11.29Z" style="fill:#406fb5; fill-rule:evenodd;"/><path d="M354.12,647.99c-1.68-36.62-8.24-67.25-19.71-91.89,2.02-21.9,.49-49.5-4.59-82.78,5.09,35.02,.29,88.54-16.77,72.98,9.36,14.58,16.1,31.73,20.22,51.46,2.87,13.73,4.46,28.71,4.8,44.94,5.14,2.28,10.13,4.39,14.96,6.36,.36-.36,.73-.71,1.09-1.07Z" style="fill:#406fb5; fill-rule:evenodd;"/><path d="M408,453.46c-12.99,2.58-34.57-5.9-49.83-17.68-6.75,1.35-12.49,2.43-17.24,3.25,60.04,95.75,122.74,68.85,90.06,2.6-6.34-1.15-12.58-2.16-18.73-3.03-1.04,6.7-2.03,11.9-4.25,14.86Z" style="fill:#406fb5; fill-rule:evenodd;"/><path d="M215.46,609.21c15.9,27.64,20.16,50.67,12.75,69.09-14.93-8.72-28.24-20.75-39.95-36.07,19.43-8.94,28.5-19.95,27.2-33.03Z" style="fill:#6998d0; fill-rule:evenodd;"/><path d="M576.28,733.57c-29.86-15.98-47.63-15.8-53.33,.54,6.37,4.37,14.57,13.03,23.87,28.73,8.18-4.07,18.71-11.9,29.46-29.27Z" style="fill:#6998d0; fill-rule:evenodd;"/><path d="M576.28,733.57c-8.87,14.34-17.6,22.18-24.97,26.77,11.45,10.63,23.37,22.42,35.69,37.72-7.69,15.46-2.81,19.96,5.06,23.69,3.41,1.69,20.69,5,27.55-1.24,7.65-4.1,.55-30.59-14.22-31.48-10.38-21.97-20.01-40.13-29.11-55.47Z" style="fill:#f4ae7c; fill-rule:evenodd;"/><path d="M194.04,639.35c15.45-8.39,22.59-18.43,21.42-30.14-12.11-13.27-26.7-29.31-43.78-48.09-10.13-9.11-20.91-13.38-32.33-12.82,1.15,3.18,3.83,6.05,8.04,8.61-13.97,1.94-23.27-1.09-27.93-9.09-5.85-3.7-15.85,20.26-5.95,31.2,12.08,13.33,26.44,13.37,49.95,.36,10.26,23.98,20.46,43.97,30.59,59.96Z" style="fill:#f4ae7c; fill-rule:evenodd;"/><path d="M489.59,842.86c-6.88,19.34-14.44,40.18-22.7,62.53-17.08-44.48-34.1-85.21-51.06-122.2,24.32,30.83,48.91,50.72,73.76,59.67Z" style="fill:#142d4d; fill-rule:evenodd;"/><path d="M430.73,1012.7c-24.81-53.3-53.03-108.58-84.68-165.85-4.95,3.48-9.67,7.49-14.18,12,2.41,2.42,4.89,4.83,7.45,7.25,8.5,8.01,18.06,30.82,23.9,42.14,20.49,39.77,39.52,76.85,57.08,111.23,1.54,33.92,7.35,73.56,17.42,118.94-9.34-45.98-11.67-87.88-6.98-125.71Z" style="fill:#142d4d; fill-rule:evenodd;"/><path d="M410.69,433.64c-10.07-2.03-18.19-5.59-24.37-10.67,8.23,8.86,16.87,14.07,25.93,15.62l-1.56-4.96Z" style="fill:#ed7d5b; fill-rule:evenodd;"/><path d="M195.9,353.72c-10.38,4.74-20.97,6.88-32.08,6.88-38.12,0-69.05-26.93-69.05-60.14s30.93-60.14,69.05-60.14,69.06,26.93,69.06,60.14c0,14.69-5.96,28.01-16.02,38.51,16.85,7.97,33.7,15.95,50.55,23.93-71.51-9.18-47.67-6.12-71.51-9.18Z" style="fill:#d0d9ee; fill-rule:evenodd;"/><path d="M587.91,191.82v-58.76c0-10.82-8.77-19.59-19.59-19.59h-114.4c-10.81,0-19.58,8.77-19.58,19.59v58.76c0,10.82,8.77,19.59,19.58,19.59h68.72l89.83,73.69-55.28-73.69h11.12c10.82,0,19.59-8.77,19.59-19.59Z" style="fill:#d0d9ee; fill-rule:evenodd;"/><path d="M1347.88,163.27c25.07-12.54,6.26-33.45-12.54-29.27,0-12.55-31.33-16.73-43.87-4.18,0-16.73-37.61-16.73-37.61,0-18.81-12.55-50.14,4.18-37.6,16.72-18.8,4.19-12.53,25.09,0,25.09-18.8,4.19-12.53,25.09,0,25.09-12.53,12.55,18.8,29.27,37.6,12.55,6.27,16.72,43.87,16.72,43.87,0,12.54,12.54,37.61,8.37,31.35-4.18,18.8,4.18,31.34-12.55,18.8-20.91,12.53,0,18.8-20.91,0-20.91h0Zm-9.9,64.12c0-7.79,6.32-14.1,14.1-14.1s14.1,6.31,14.1,14.1-6.31,14.1-14.1,14.1-14.1-6.32-14.1-14.1h0Zm31.4,22.06c0-5.19,4.22-9.4,9.4-9.4s9.4,4.21,9.4,9.4-4.2,9.4-9.4,9.4-9.4-4.21-9.4-9.4h0Zm25.5,17.18c0-2.59,2.11-4.7,4.7-4.7s4.71,2.1,4.71,4.7-2.11,4.7-4.71,4.7-4.7-2.11-4.7-4.7Z" style="fill:#d0d9ee; fill-rule:evenodd;"/><path d="M1614.86,199.06v-54.08c0-9.95-8.07-18.03-18.02-18.03h-103.15c-9.95,0-18.03,8.07-18.03,18.03v54.08c0,9.96,8.08,18.03,18.03,18.03h62.01l76.28,36.8-44.95-36.8h9.81c9.95,0,18.02-8.07,18.02-18.03Z" style="fill:#d0d9ee; fill-rule:evenodd;"/><polygon points="1051.42 158.23 1051.42 76.63 927.09 76.63 927.09 158.23 998.58 158.23 1053.59 193.2 1026.55 158.23 1051.42 158.23" style="fill:#d0d9ee; fill-rule:evenodd;"/></svg>