<?xml version="1.0" encoding="UTF-8"?><svg id="a" xmlns="http://www.w3.org/2000/svg" viewBox="0 0 2176.99 1557.65"><path d="M1117.98,67.23c-265.25,0-377.01,189.79-568.5,337.32C296.03,599.81,42.6,472.7,2.03,1132.45c-36.11,587.2,414.56,63.57,1050.01,273.92,635.45,210.35,1282.63,295.05,1090.6-385.51C1950.58,340.31,1734.3,67.23,1117.98,67.23Z" style="fill:#e0e8f5; fill-rule:evenodd;"/><path d="M.09,1196.19H801.37l1279.05-377.75c9.73,28.83,19.34,58.6,28.82,89.28l-737.96,217.96,765.96-123.71c1.8,6.29,3.6,12.54,5.4,18.89,7.11,25.21,12.93,49.24,17.79,72.38l-637.4,102.95h652.4c3.48,48.53,.86,91.38-7.28,128.98h-895.18l390.68,115.38,451.88-1.12c-76.02,94.8-217.09,125.84-391.93,116.64l-781.8-230.9H16.8C5.95,1292.74,.26,1250.5,.09,1196.19Z" style="fill:#eac5a7; fill-rule:evenodd;"/><path d="M1532.48,412.73H993.45c3.87-16.38,18.58-28.56,36.13-28.56,.84,0,1.69,.03,2.52,.1,8.51-20.84,28.99-35.53,52.89-35.53,10.46,0,20.25,2.82,28.68,7.72,10.28-33.89,41.76-58.56,79.01-58.56,7.57,0,14.92,1.03,21.89,2.95,18.03-39.81,58.11-67.5,104.65-67.5,55.21,0,101.31,38.97,112.32,90.89,.94-.04,1.86-.07,2.79-.07,35.37,0,64.56,26.45,68.87,60.63,14.43,2.7,25.92,13.74,29.27,27.92Z" style="fill:#fff; fill-rule:evenodd;"/><path d="M469.46,908.15H196.8c1.96-8.29,9.4-14.45,18.28-14.45,.42,0,.85,.02,1.28,.05,4.31-10.54,14.66-17.97,26.76-17.97,5.29,0,10.24,1.43,14.51,3.91,5.2-17.15,21.12-29.63,39.96-29.63,3.83,0,7.55,.52,11.07,1.49,9.12-20.14,29.39-34.14,52.94-34.14,27.93,0,51.25,19.71,56.82,45.98,.47-.02,.94-.03,1.41-.03,17.89,0,32.65,13.38,34.83,30.67,7.3,1.37,13.12,6.96,14.81,14.13Z" style="fill:#fff; fill-rule:evenodd;"/><path d="M1808.67,812.31h-272.66c1.96-8.29,9.39-14.45,18.27-14.45,.43,0,.86,.02,1.28,.05,4.31-10.54,14.67-17.97,26.76-17.97,5.3,0,10.24,1.43,14.5,3.91,5.21-17.14,21.13-29.62,39.97-29.62,3.83,0,7.54,.52,11.07,1.49,9.12-20.14,29.39-34.14,52.93-34.14,27.93,0,51.25,19.71,56.83,45.98,.46-.02,.93-.03,1.41-.03,17.88,0,32.64,13.37,34.82,30.67,7.3,1.37,13.12,6.95,14.81,14.12Z" style="fill:#fff; fill-rule:evenodd;"/><ellipse cx="748.27" cy="1267.17" rx="362.4" ry="41.31" style="fill:#e5bb9a;"/><path d="M551.33,1198.41l-18.88,46.18c-.74,5.02-3.86,17.64-3.74,22.24,.41,17.21,79.88-16.55,61.72-23.8-1.65-.63-6.9-6.02-7.55-11.94-1.06-9,6.25-20.55,6.25-20.55l-37.79-12.13Z" style="fill:#f9af79; fill-rule:evenodd;"/><path d="M524.27,1272.61s1.24-25.94,7.91-29.11c6.28-2.99,18,8.26,26.91,6.71,8.9-1.55,28.88-9.14,28.88-9.14,35.96,11.43,62.68,18.56,57.61,28.62l-121.31,2.92Z" style="fill:#0e2952; fill-rule:evenodd;"/><path d="M674.55,1209.15l-10.87,32.28c-.75,5.03-3.86,17.64-3.74,22.24,.41,17.2,79.88-16.55,61.72-23.81-1.64-.63-6.89-6.02-7.55-11.94-1.06-9,6.25-20.55,6.25-20.55l-45.8,1.77Z" style="fill:#f9af79; fill-rule:evenodd;"/><path d="M770.74,601.41l30.79,71.23s23.08,171.21,14.51,274.24c-3.59,43.13-97.97,275.61-97.97,275.61l-49.8-5.57,45.01-270.74-12.06-106.95-39.59-205.17,109.11-32.64Z" style="fill:#20386f; fill-rule:evenodd;"/><path d="M736.12,610.69l19.6,74.76s-3.24,172.69-27.39,273.48c-10.12,42.2-138.87,259.37-138.87,259.37l-48.42-12.3,85.76-261.93-14.73-255.59,11.17-60.37,112.89-17.43Z" style="fill:#223f81; fill-rule:evenodd;"/><path d="M655.49,1269.46s1.3-25.7,8.43-28.88c6.75-3.18,19.56,7.97,29.2,6.4,9.6-1.57,28.32-7.28,28.32-7.28,38.8,11.35,70.49,16.53,65,26.6l-130.96,3.16Z" style="fill:#0e2952; fill-rule:evenodd;"/><path d="M746.95,240.69c24.79-11.81,23.13,7.4,29.9,26.04-8.94,6.36-13.68,11.59-16.35,20.62-7.84-4.61-13.13-2.57-18.86-9.52-9.27-8.99-21.62-26.99-11.37-29.41,4.12,8.06,8.3,9.48,13.53,12.35-.87-4.15-2.17-8.22-3.92-12.18-2.08-5.21-5.93-10.49-11.56-15.86-9.88-1.45-14.08-3.95-12.58-7.51,11.7-3.38,22.1,1.77,31.21,15.46Z" style="fill:#f9af79; fill-rule:evenodd;"/><path d="M776.31,410.76c18.29,94.68,10.87,128.45,25.21,261.89-36.91,44.32-100.02,2.3-122.22,10.43-9.63,.94-24.58,2.27-33.31,17-11.43-14.51-21.48-28-30.28-40.63-27.89-39.99-43.23-71.17-49.86-97.81-40.74-157.12-7.81-213.24,87.84-225.93,7.89,15.02,43.53,21.65,53.48,19.65,6.68-4.84,8.86-16.47,13.49-27.6,29.7,2.35,60.56,15.28,77.96,26.96-16.31-20.95-30.03-41.97-41.18-63.05,1.91-10.24,9.14-19.02,21.7-26.31,111.09,76.73,152.79,127.63,125.09,152.74-30.55,16.14-73.19,13.69-127.92-7.34Z" style="fill:#6d96ce; fill-rule:evenodd;"/><path d="M679.3,683.08c-11.17-32.34-37.88-105.67-56.19-130.83,3.23-28.98-.6-64.66-6.72-98.26,10.3,24.26,19.98,58.8,22.31,96.35,15.79,26.11,32.41,91.83,42.78,132.02-2.89,.16,.77,.59-2.18,.73h0Zm145.27-297.46c-23.46-23.3-45.92-40.07-67.38-50.3,16.46,5.32,31.24,12.58,41.42,19.41,8.03,10.32,16.68,20.62,25.96,30.89Z" style="fill:#466fb5; fill-rule:evenodd;"/><path d="M707.17,355.37c-9.95,2-45.59-4.63-53.48-19.65,5.61-10.97,8.22-22.97,8.26-29.43-2.03-2.79-4.36-6.37-6.98-10.77-24.45-7.69-30.29-17.05-17.53-28.1,3.47,.78,8.71,4.8,15.7,12.07,3.48-1.2,5.6-3.8,6.38-7.8-8.56-13.25-14.83-24.23-18.82-32.9,5.53-17.87,28.29-27.03,60.47-32.34,3.92,7.81,7.72,16.19,11.41,25.14,7,3.4,11.91,22.31,13.35,45.39,6.21,11.5,.66,20.47-16.67,26.9,1.36,5.76,7.02,19.73,11.38,23.9-4.62,11.13-6.8,22.76-13.48,27.6Z" style="fill:#f9af79; fill-rule:evenodd;"/><path d="M701.17,206.45c-32.18,5.3-54.94,14.46-60.47,32.34,3.99,8.68,10.26,19.65,18.82,32.9-.78,4-2.9,6.6-6.38,7.8-6.99-7.28-12.23-11.3-15.7-12.07-12.76,11.05-6.92,20.41,17.53,28.1,2.62,4.39,4.95,7.98,6.98,10.77-19.49,1.4-39.68-10.34-43.96-16.75-33.93-35.58-15.51-60.46-4.74-70.75-6.89-43.27,64.54-24.68,88.76-53.82,17.02,12.99,8.42,38.29-.84,41.49Z" style="fill:#20386f; fill-rule:evenodd;"/><path d="M684.36,305.42c6.03,.47,16.99,.34,24.9-1.55,.74,3.13,2.75,8.69,5.13,13.78-8.8,.52-25.02-7.17-30.04-12.24Z" style="fill:#ed7d57; fill-rule:evenodd;"/><path d="M677.04,683.3c5.9,13.91,10.41,27.58,13.53,41.02-4.98,19.82-12.65,31.47-23.02,34.93-12.28,.47-15.75-8.54-19.44-14.79,6.53-6.5,9.93-13.71,10.21-21.6-7.22-4.41-9.57-9.66-7.04-15.75-1.7-3.06-3.26-5.82-4.69-8.25,6.88-10.87,14.09-13.92,21.43-14.97,2.99-.32,6-.41,9.02-.58Z" style="fill:#f9af79; fill-rule:evenodd;"/><path d="M638.02,541.53c62.79-8.81,111.41-21.11,145.87-36.93,.22-5.6,.4-11.04,.46-16.58-34.38,14.53-83.82,26.91-148.32,37.12,.8,5.36,1.47,10.84,1.99,16.39Z" style="fill:#466fb5; fill-rule:evenodd;"/><path d="M631.54,501.42c71.99-7.99,122.74-20.04,152.26-36.14-.32-4.98-.77-10.24-1.41-15.94-33.38,17.58-85.13,29.29-155.25,35.13,1.58,5.43,3.05,11.09,4.4,16.95h0Zm75.63-146.05c-9.95,2-45.59-4.63-53.48-19.65-2.29,.3-4.54,.63-6.76,.99,7.61,16.35,28.22,24.97,61.82,25.88,8.81-9.2,14.48-20.63,16.99-34.32-1.7-.2-3.39-.36-5.08-.5-4.62,11.13-6.8,22.76-13.48,27.6Z" style="fill:#466fb5; fill-rule:evenodd;"/><path d="M694.96,281.2c9.18-5.58,14.49-8.33,23.89-12.94,3.78-1.84-9.6-7.4-24.71,12.72-.36,.48,.11,.66,.82,.22Z" style="fill:#eb795b; fill-rule:evenodd;"/><path d="M670.38,224.44c5.17-.8,5.82,3.32,2.28,5.15-37.76,19.29-15.1-3.19-2.28-5.15Z" style="fill:#20386f; fill-rule:evenodd;"/><path d="M691.64,215.92c-4.34,2.93-2.01,6.4,1.83,5.33,40.8-11.54,8.89-12.61-1.83-5.33Z" style="fill:#20386f; fill-rule:evenodd;"/><path d="M700.61,261.22l.25-.09c4.21-2,6.42-3.15,6.87-5.02,.42-1.71-.75-3.25-2.87-6.07-2.35-3.09-5.92-7.82-9.95-16.02-.29-.6-1.02-.82-1.62-.55-.6,.29-.85,1.01-.55,1.63,4.12,8.39,7.77,13.22,10.19,16.41,1.39,1.84,2.59,3.44,2.44,4.03-.2,.83-3.18,2.26-5.57,3.39-.6,.29-.86,1.01-.56,1.63,.24,.5,.82,.76,1.36,.64Z" style="fill:#eb795b; fill-rule:evenodd;"/><path d="M710.15,238.14c2.83-.97,1.32-12.5-5.53-10.12-3.66,1.26,.91,11.72,5.53,10.12Z" style="fill:#20386f; fill-rule:evenodd;"/><path d="M675.03,251.02c2.82-.99,1.32-12.5-5.53-10.12-3.66,1.27,.9,11.72,5.53,10.12Z" style="fill:#20386f; fill-rule:evenodd;"/><path d="M732.52,78.22c-1.08-10.39,1.19-21.31,6.76-32.73,5.57-11.37,14.43-21.27,26.51-29.63,12.13-8.37,26.71-13.41,43.85-15.19,15.91-1.66,30.26-.2,43.06,4.43,12.75,4.58,22.96,11.58,30.65,21.01,7.68,9.37,12.14,20.03,13.37,31.83,.97,9.33-.08,17.73-3.12,25.15s-6.9,13.95-11.59,19.56c-4.63,5.65-13.07,15.22-25.3,28.71-3.42,3.76-6.08,7.05-8.06,9.87-1.98,2.82-3.42,5.36-4.26,7.6-.9,2.26-1.52,4.48-1.92,6.68-.34,2.19-.9,6.06-1.52,11.57-.89,11.62-6.82,17.98-17.83,19.13-5.68,.59-10.7-.75-14.97-4.07-4.33-3.35-6.81-8.66-7.57-16.02-.96-9.21-.39-17.34,1.77-24.38,2.16-7.04,5.31-13.33,9.5-18.94,4.19-5.6,9.96-12.34,17.21-20.19,6.38-6.86,11.01-12.05,13.78-15.47,2.82-3.47,5.1-7.23,6.84-11.27,1.73-4.05,2.36-8.37,1.89-12.87-.91-8.76-4.94-15.84-12.08-21.18-7.2-5.33-15.89-7.49-26.23-6.41-12.08,1.26-20.64,5.22-25.74,11.94-5.04,6.66-8.93,16.16-11.63,28.42-2.48,12.76-8.91,19.68-19.31,20.76-6.19,.64-11.57-.95-16.25-4.9-4.66-3.88-7.29-8.33-7.81-13.39h0Zm99.09,172.01c-6.69,.7-12.76-.89-18.21-4.69-5.45-3.8-8.56-9.61-9.37-17.43-.72-6.91,1.09-12.95,5.43-18.17,4.34-5.22,10-8.2,17.02-8.93,6.91-.72,13,1.03,18.22,5.26,5.21,4.23,8.18,9.77,8.89,16.68,.8,7.7-1.04,14.02-5.53,18.92-4.49,4.9-9.93,7.68-16.45,8.36Z" style="fill:#c4d1eb; fill-rule:evenodd;"/></svg>