<?xml version="1.0" encoding="UTF-8"?><svg id="a" xmlns="http://www.w3.org/2000/svg" viewBox="0 0 1903.49 1567.74"><path d="M1864.28,1015.33c42.38-316.6-287.55-238.9-381.03-397.58-123.72-210.03,135.68-426.46-327.84-562.28C696.62-78.96,443.38,312.65,365.01,742.2c-78.38,429.55,115.35,851.86,607.32,824.25,491.97-27.6,834.13-119.06,891.95-551.12Z" style="fill:#ede4f1; fill-rule:evenodd;"/><path d="M928.82,1564.84c399.44,0,725.22-23.13,725.22-51.5s-325.78-51.49-725.22-51.49-725.22,23.13-725.22,51.49,325.78,51.5,725.22,51.5Z" style="fill:#d1c6e2; fill-rule:evenodd;"/><path d="M72.37,0C36-.1,0,27.61,0,66.23V1318.01c0,35.66,31.48,59.46,65.36,59.56l960.27,2.71c36.36,.1,72.37-27.61,72.37-66.22V62.27c0-35.66-31.48-59.47-65.36-59.56L72.37,0Z" style="fill:#2b2870; fill-rule:evenodd;"/><path d="M1098,508.87V210.69c-6.08-1.95-12.36-3.55-18.8-4.76-84.96-16.02-166.83,39.86-182.85,124.82-16.03,84.96,39.86,166.83,124.82,182.85,26.55,5.01,52.8,2.99,76.83-4.73Z" style="fill:#2b2870; fill-rule:evenodd;"/><path d="M68.87,29.06l960.26,2.71c22.01,.06,40.01,15.33,40.01,33.94V1317.5c0,18.61-18,33.78-40.01,33.72l-960.26-2.71c-22.01-.06-40.01-15.33-40.01-33.94V62.78c0-18.61,18-33.78,40.01-33.72Z" style="fill:#f1e1ee; fill-rule:evenodd;"/><path d="M525.79,803.34l-357.36,.22c-9.89,0-17.97-8.08-17.97-17.96h0c0-9.89,8.09-17.98,17.97-17.99l357.36-.22c9.89,0,17.97,8.07,17.97,17.96h0c0,9.89-8.08,17.98-17.97,17.99h0Zm403.77-126.32l-761.13,.54c-9.89,0-17.97-8.08-17.97-17.96h0c0-9.89,8.08-17.98,17.97-17.99l761.13-.54c9.89-.01,17.97,8.07,17.97,17.96h0c0,9.89-8.09,17.98-17.97,17.99h0Zm0,63l-761.13,.54c-9.89,.01-17.97-8.07-17.97-17.96h0c0-9.89,8.08-17.98,17.97-17.99l761.13-.54c9.89,0,17.97,8.07,17.97,17.96h0c0,9.89-8.09,17.98-17.97,17.99Z" style="fill:#c2b5d9; fill-rule:evenodd;"/><path d="M151.25,97.69l795.5-.56c20.24-.01,36.79,16.53,36.79,36.77v418.12c0,20.24-16.55,36.81-36.79,36.83l-795.5,.55c-20.24,.01-36.79-16.53-36.79-36.77V134.51c0-20.24,16.56-36.81,36.79-36.82Z" style="fill:#c2b5d9; fill-rule:evenodd;"/><polygon points="223.12 381.85 410.17 293.69 501.05 327.35 594.59 218.06 687.05 298.2 778.55 186.98 875.16 239.26 869.58 247.34 781.4 199.61 688.41 312.63 595.79 232.35 504.56 338.94 410.66 304.16 228.15 390.18 223.12 381.85" style="fill:#2b2870; fill-rule:evenodd;"/><rect x="195.34" y="452.79" width="60.59" height="102.02" style="fill:#8071b3;"/><rect x="287.73" y="419.77" width="60.59" height="134.98" style="fill:#8071b3;"/><rect x="380.12" y="363.75" width="60.59" height="190.94" style="fill:#47459b;"/><rect x="472.51" y="402.65" width="60.59" height="151.97" style="fill:#8071b3;"/><rect x="564.9" y="298.54" width="60.59" height="256.01" style="fill:#47459b;"/><rect x="657.29" y="388.45" width="60.59" height="166.04" style="fill:#8071b3;"/><rect x="749.68" y="264.38" width="60.59" height="290.05" style="fill:#47459b;"/><path d="M225.63,370.03c10,0,18.1,7.14,18.1,15.98s-8.11,16-18.1,16.01c-10,0-18.11-7.15-18.11-15.98s8.1-16,18.11-16Z" style="fill:#fff; fill-rule:evenodd;"/><path d="M410.42,282.93c10,0,18.1,7.15,18.1,15.98s-8.1,16-18.1,16.01c-10,0-18.11-7.15-18.11-15.98s8.1-16,18.11-16Z" style="fill:#fff; fill-rule:evenodd;"/><path d="M502.81,317.15c10,0,18.1,7.15,18.1,15.98s-8.11,16-18.1,16.01c-10,0-18.11-7.15-18.11-15.98s8.1-16,18.11-16.01Z" style="fill:#fff; fill-rule:evenodd;"/><path d="M595.2,209.21c10-.01,18.1,7.14,18.1,15.98s-8.1,16-18.1,16c-10,.01-18.11-7.14-18.11-15.98s8.1-16,18.11-16Z" style="fill:#fff; fill-rule:evenodd;"/><path d="M687.73,289.42c10,0,18.1,7.14,18.1,15.98s-8.1,16-18.1,16.01c-10,0-18.11-7.15-18.11-15.98s8.1-16,18.11-16Z" style="fill:#fff; fill-rule:evenodd;"/><path d="M779.98,177.3c10-.01,18.1,7.14,18.1,15.98s-8.11,16-18.1,16.01c-10,0-18.11-7.15-18.11-15.98s8.1-16,18.11-16Z" style="fill:#fff; fill-rule:evenodd;"/><path d="M817.85,1088.66l-266.84-31.41-215.19,90.56c50.02,34.24,127.81,56.2,215.19,56.13,130.66-.1,239.91-49.45,266.84-115.29Z" style="fill:#9588c0; fill-rule:evenodd;"/><path d="M291.2,1098.73l215.18-90.57-114.96-133.02c-93.44,23.38-158.23,74.27-158.23,133.24,0,34.1,21.67,65.47,58.02,90.35Z" style="fill:#38308d; fill-rule:evenodd;"/><path d="M579.05,987.24l266.84,31.41c4.17-10.19,6.36-20.77,6.36-31.63,0-73.46-100.55-134.22-231.77-144.83l-41.43,145.05Z" style="fill:#47459b; fill-rule:evenodd;"/><path d="M540.03,1020.24l41.43-145.05c-13.51-1.09-27.34-1.65-41.43-1.64-41.07,.03-80.02,4.93-114.97,13.67l114.97,133.02Z" style="fill:#5a53a2; fill-rule:evenodd;"/><path d="M291.2,1098.73c-36.35-24.89-58.02-56.25-58.02-90.35v53.41c0,34.11,21.67,65.47,58.02,90.35v-53.41Z" style="fill:#8071b3; fill-rule:evenodd;"/><path d="M817.85,1088.66c-26.93,65.84-136.18,115.18-266.84,115.29-87.38,.07-165.17-21.89-215.19-56.13v53.41c50.02,34.23,127.81,56.19,215.19,56.12,130.66-.1,239.91-49.44,266.84-115.28v-53.41Z" style="fill:#c2b5d9; fill-rule:evenodd;"/><path d="M845.89,1018.65v53.41c4.17-10.19,6.36-20.77,6.36-31.63v-53.41c0,10.86-2.2,21.44-6.36,31.63Z" style="fill:#9588c0; fill-rule:evenodd;"/><polygon points="845.89 1018.65 579.05 987.24 579.05 1037.17 845.89 1072.06 845.89 1018.65" style="fill:#c2b5d9; fill-rule:evenodd;"/><polygon points="291.2 1152.13 506.38 1058.77 506.38 1008.16 291.2 1098.73 291.2 1152.13" style="fill:#c2b5d9; fill-rule:evenodd;"/><polygon points="559.46 1058.24 579.05 987.5 579.05 987.24 581.46 978.83 581.46 875.19 540.03 1020.24 540.03 1061.87 551.01 1057.25 559.46 1058.24" style="fill:#9588c0; fill-rule:evenodd;"/><polygon points="540.03 1020.24 425.06 887.22 425.06 914.07 506.38 1008.16 506.38 1034.33 534.11 1064.36 540.03 1061.87 540.03 1020.24" style="fill:#8071b3; fill-rule:evenodd;"/><path d="M1458.03,705.35h0c23.96-28.46,66.85-32.14,95.3-8.18l5.35,4.5,310.64,226.82c41.85,30.56,44.77,93.12,11.38,132.76-33.37,39.64-95.48,47.38-132.76,11.39l-281.75-271.98h0c-28.46-23.97-32.14-66.85-8.18-95.31Z" style="fill:#2b2870; fill-rule:evenodd;"/><path d="M1352.9,1070.77h0c86.26,0,156.84,70.58,156.84,156.84v187h-313.67v-187c0-86.26,70.58-156.84,156.83-156.84Z" style="fill:#2b2870; fill-rule:evenodd;"/><path d="M853.83,322.73c20.45-108.44,124.94-179.77,233.39-159.32,97.87,18.46,165.5,105.37,162.72,201.86l1.51,.29c6.13,1.16,10.2,7.13,9.05,13.26l-7.51,39.81c-1.16,6.13-7.12,10.21-13.25,9.05l-1.51-.29c-32.56,90.88-127.2,147.18-225.07,128.72-108.44-20.45-179.77-124.94-159.32-233.39Z" style="fill:#8071b3; fill-rule:evenodd;"/><path d="M896.36,330.75c16.02-84.95,97.89-140.84,182.85-124.82,84.96,16.02,140.84,97.89,124.82,182.85-16.03,84.96-97.89,140.84-182.85,124.82-84.96-16.03-140.84-97.89-124.82-182.85Z" style="fill:#ede4f1; fill-rule:evenodd;"/><rect x="1286.59" y="357.19" width="40.51" height="101.96" transform="translate(663.52 1616.71) rotate(-79.32)" style="fill:#2b2870;"/><path d="M1353.19,437.52l7.51-39.81c1.16-6.13,7.12-10.2,13.26-9.05l252.04,47.54c6.13,1.16,10.2,7.11,9.04,13.25l-7.51,39.81c-1.16,6.13-7.12,10.2-13.25,9.05l-252.04-47.53c-6.13-1.16-10.2-7.12-9.05-13.26Z" style="fill:#2b2870; fill-rule:evenodd;"/><path d="M1886.35,962.27h0c20.73,43.41,2.18,95.89-41.23,116.62l-8.15,3.89-432.93,244.85c-58.32,32.99-133.56,3.04-162.44-57.43-28.88-60.47-4.86-137.74,57.43-162.45l470.7-186.72h0c43.41-20.74,95.89-2.18,116.62,41.23Z" style="fill:#8071b3; fill-rule:evenodd;"/><path d="M1857.08,976.25c13.02,27.25,1.48,59.88-25.77,72.89-27.24,13.02-59.88,1.48-72.89-25.77-13.01-27.24-1.47-59.88,25.77-72.89,27.25-13.01,59.88-1.47,72.89,25.77Z" style="fill:#c2b5d9; fill-rule:evenodd;"/><path d="M1387.09,371.29h0c30.72-9.97,64,7.01,73.97,37.73l1.87,5.77,124.73,309.67c16.81,41.72-9.77,89.15-52.55,103.03-42.78,13.88-92.08-8.92-103.03-52.55l-82.71-329.68h0c-9.97-30.72,7.01-63.99,37.72-73.96Z" style="fill:#8071b3; fill-rule:evenodd;"/><path d="M1493.94,700.59c26.59-8.63,55.14,5.93,63.76,32.52,8.63,26.59-5.93,55.13-32.52,63.76-26.58,8.63-55.13-5.93-63.75-32.52-8.63-26.59,5.93-55.13,32.52-63.76Z" style="fill:#c2b5d9; fill-rule:evenodd;"/><rect x="1117.55" y="1414.6" width="482.57" height="93.5" style="fill:#5a53a2;"/><circle cx="1352.9" cy="1217.05" r="75.4" transform="translate(-234.96 328.08) rotate(-12.73)" style="fill:#c2b5d9;"/><path d="M1107.04,213.89V505.64c-15.17,5.93-31.37,9.53-48.08,10.45V203.46c6.71,.38,13.47,1.2,20.24,2.48,9.68,1.83,18.98,4.51,27.84,7.95Z" style="fill:#2b2870; fill-rule:evenodd;"/><path d="M957.94,486.28V233.3c-31.06,22.65-53.9,56.7-61.58,97.45-11.57,61.32,14.33,121.03,61.58,155.53Z" style="fill:#c2b5d9; fill-rule:evenodd;"/></svg>