<?xml version="1.0" encoding="UTF-8"?><svg id="a" xmlns="http://www.w3.org/2000/svg" viewBox="0 0 2274.17 1564.25"><path d="M428.45,1564.25c53.96,0,97.97-5.21,97.97-11.59s-44.01-11.59-97.97-11.59-97.97,5.21-97.97,11.59,44.01,11.59,97.97,11.59Z" style="fill:#9db2d9; fill-rule:evenodd;"/><path d="M1201.46,0c-268.68,0-381.88,192.25-575.85,341.68C368.88,539.48,112.18,410.72,71.07,1079.01c-36.58,594.8,419.93,64.4,1063.6,277.46,643.67,213.07,1299.23,298.87,1104.7-390.5C2044.85,276.61,1825.76,0,1201.46,0Z" style="fill:#e0e8f5; fill-rule:evenodd;"/><path d="M922.46,460.43l-10.01,5.82c-3.38,1.96-4.53,6.33-2.57,9.7l2.21,3.8c2.6,4.48,1.47,6.51,.66,7.23-2.23,1.99-4.3,4.16-6.37,6.31-.61,.64-2.54,2.8-7.63-.16l-3.49-2.03c-3.37-1.97-7.74-.81-9.71,2.57l-5.82,10.01c-1.96,3.38-.8,7.74,2.57,9.7l3.46,2.01c4.77,2.77,4.65,4.2,4.05,6.23-.83,2.78-1.72,5.56-2.33,8.43-.54,2.56-.3,4.39-6.79,4.39h-3.98c-3.91,0-7.1,3.19-7.1,7.1v11.58c0,3.91,3.19,7.1,7.1,7.1h3.98c6.49,0,6.25,1.83,6.79,4.39,.61,2.88,1.5,5.66,2.33,8.44,.6,2.02,.73,3.44-4.05,6.22l-3.46,2.01c-3.38,1.96-4.53,6.33-2.57,9.71l5.82,10.01c1.97,3.38,6.33,4.53,9.71,2.57l3.49-2.03c5.09-2.96,7.02-.8,7.63-.16,2.07,2.15,4.14,4.32,6.37,6.31,.81,.72,1.94,2.75-.66,7.24l-2.21,3.8c-1.97,3.38-.81,7.74,2.57,9.7l10.01,5.82c3.38,1.96,7.74,.81,9.71-2.57l2.2-3.79c2.64-4.55,5.25-4.37,6.35-4.02,3.19,1.01,6.14,1.67,9.44,2.53,1.21,.31,3.27,1.19,3.27,6.61v4.06c0,3.91,3.19,7.1,7.1,7.1h11.58c3.91,0,7.1-3.19,7.1-7.1v-4.06c0-5.42,2.06-6.3,3.26-6.61,3.3-.86,6.24-1.52,9.44-2.53,1.1-.35,3.71-.53,6.35,4.02l2.21,3.79c1.97,3.38,6.33,4.53,9.71,2.57l10.01-5.82c3.38-1.96,4.53-6.33,2.56-9.7l-2.21-3.8c-2.6-4.48-1.47-6.51-.66-7.24,2.23-1.99,4.29-4.16,6.37-6.31,.61-.63,2.54-2.8,7.63,.16l3.49,2.03c3.38,1.96,7.74,.8,9.71-2.57l5.82-10.01c1.96-3.38,.81-7.74-2.57-9.71l-3.46-2.01c-4.77-2.78-4.65-4.2-4.04-6.22,.83-2.78,1.72-5.56,2.33-8.44,.54-2.56,.29-4.39,6.79-4.39h3.98c3.91,0,7.1-3.19,7.1-7.1v-11.58c0-3.91-3.19-7.1-7.1-7.1h-3.98c-6.49,0-6.25-1.83-6.79-4.39-.61-2.87-1.5-5.65-2.33-8.43-.61-2.03-.73-3.45,4.04-6.23l3.46-2.01c3.38-1.96,4.53-6.33,2.57-9.7l-5.82-10.01c-1.96-3.38-6.33-4.53-9.71-2.57l-3.49,2.03c-5.09,2.96-7.02,.8-7.63,.16-2.07-2.15-4.14-4.32-6.37-6.31-.81-.72-1.94-2.75,.66-7.23l2.21-3.8c1.97-3.38,.81-7.74-2.56-9.7l-10.01-5.82c-3.38-1.96-7.74-.81-9.71,2.57l-2.21,3.79c-2.64,4.55-5.25,4.37-6.35,4.02-3.19-1.01-6.14-1.67-9.44-2.53-1.21-.31-3.26-1.19-3.26-6.61v-4.06c0-3.91-3.19-7.1-7.1-7.1h-11.58c-3.91,0-7.1,3.19-7.1,7.1v4.06c0,5.42-2.06,6.3-3.27,6.61-3.29,.86-6.24,1.52-9.44,2.53-1.1,.35-3.71,.53-6.35-4.02l-2.2-3.79c-1.97-3.38-6.33-4.53-9.71-2.57h0Zm43.85,71.63c8.45,0,15.3,6.84,15.3,15.29s-6.85,15.29-15.3,15.29-15.29-6.84-15.29-15.29,6.85-15.29,15.29-15.29h0Zm-47.94,15.29c0-1.81,1.47-3.27,3.28-3.27s3.27,1.46,3.27,3.27c0,11.43,4.63,21.78,12.12,29.27,7.49,7.49,17.84,12.12,29.27,12.12,1.81,0,3.27,1.46,3.27,3.27s-1.46,3.27-3.27,3.27c-13.23,0-25.22-5.37-33.89-14.04-8.68-8.67-14.05-20.66-14.05-33.9h0Zm95.25-7.72c.29,1.78-.93,3.45-2.71,3.73-1.78,.29-3.45-.93-3.73-2.7-1.41-8.67-5.52-16.45-11.43-22.43-5.93-5.98-13.67-10.17-22.33-11.67-1.78-.3-2.97-1.99-2.67-3.77,.3-1.78,1.99-2.97,3.77-2.67,10.03,1.73,18.99,6.58,25.85,13.51,6.86,6.92,11.62,15.94,13.25,26h0Zm-47.31-49.08c31.37,0,56.8,25.43,56.8,56.8s-25.43,56.81-56.8,56.81-56.8-25.44-56.8-56.81,25.43-56.8,56.8-56.8Z" style="fill:#c4d1eb; fill-rule:evenodd;"/><path d="M1592.62,235.57l-20.29,11.79c-6.83,3.98-9.17,12.82-5.19,19.66l4.47,7.69c5.29,9.08,2.98,13.19,1.34,14.66-4.51,4.04-8.7,8.42-12.89,12.79-1.24,1.29-5.15,5.67-15.46-.33l-7.06-4.1c-6.85-3.98-15.69-1.64-19.66,5.2l-11.8,20.28c-3.97,6.84-1.64,15.68,5.2,19.66l7,4.07c9.68,5.62,9.42,8.5,8.2,12.6-1.68,5.63-3.49,11.26-4.72,17.08-1.09,5.19-.6,8.89-13.75,8.89h-8.05c-7.92,0-14.39,6.46-14.39,14.38v23.46c0,7.92,6.46,14.38,14.39,14.38h8.05c13.15,0,12.66,3.71,13.75,8.89,1.23,5.82,3.04,11.46,4.72,17.08,1.22,4.1,1.48,6.98-8.2,12.6l-7,4.07c-6.84,3.98-9.17,12.82-5.2,19.66l11.8,20.28c3.97,6.84,12.81,9.18,19.66,5.2l7.06-4.1c10.31-6,14.23-1.61,15.46-.33,4.2,4.37,8.38,8.75,12.89,12.79,1.64,1.47,3.95,5.57-1.34,14.66l-4.47,7.69c-3.98,6.84-1.64,15.68,5.19,19.66l20.29,11.79c6.83,3.97,15.67,1.64,19.66-5.2l4.46-7.68c5.36-9.22,10.63-8.85,12.87-8.14,6.46,2.06,12.44,3.39,19.11,5.13,2.43,.63,6.61,2.41,6.61,13.39v8.23c0,7.92,6.46,14.38,14.39,14.38h23.45c7.92,0,14.39-6.46,14.39-14.38v-8.23c0-10.98,4.17-12.75,6.61-13.39,6.67-1.74,12.65-3.07,19.11-5.13,2.23-.71,7.51-1.07,12.87,8.14l4.46,7.68c3.98,6.84,12.83,9.17,19.66,5.2l20.28-11.79c6.84-3.98,9.18-12.82,5.2-19.66l-4.47-7.69c-5.29-9.08-2.98-13.19-1.34-14.66,4.51-4.04,8.69-8.42,12.89-12.79,1.23-1.29,5.15-5.67,15.46,.33l7.07,4.1c6.85,3.98,15.69,1.64,19.66-5.2l11.8-20.28c3.97-6.84,1.64-15.68-5.21-19.66l-7-4.07c-9.67-5.62-9.42-8.5-8.19-12.6,1.68-5.63,3.49-11.26,4.72-17.08,1.09-5.19,.6-8.89,13.75-8.89h8.05c7.93,0,14.38-6.46,14.38-14.38v-23.46c0-7.92-6.45-14.38-14.38-14.38h-8.05c-13.15,0-12.66-3.71-13.75-8.89-1.23-5.83-3.04-11.46-4.72-17.08-1.23-4.1-1.48-6.98,8.19-12.6l7-4.07c6.85-3.98,9.18-12.82,5.21-19.66l-11.8-20.28c-3.97-6.84-12.81-9.18-19.66-5.2l-7.07,4.1c-10.31,6-14.23,1.61-15.46,.33-4.2-4.37-8.38-8.75-12.89-12.79-1.64-1.47-3.95-5.57,1.34-14.66l4.47-7.69c3.98-6.84,1.64-15.68-5.2-19.66l-20.28-11.79c-6.83-3.98-15.68-1.64-19.66,5.2l-4.46,7.68c-5.36,9.21-10.63,8.85-12.87,8.14-6.46-2.06-12.44-3.39-19.11-5.13-2.44-.64-6.61-2.41-6.61-13.39v-8.23c0-7.92-6.46-14.38-14.39-14.38h-23.45c-7.92,0-14.39,6.46-14.39,14.38v8.23c0,10.98-4.17,12.76-6.61,13.39-6.67,1.74-12.65,3.07-19.11,5.13-2.23,.71-7.51,1.07-12.87-8.14l-4.46-7.68c-3.99-6.84-12.83-9.18-19.66-5.2h0Zm88.82,145.09c17.11,0,30.98,13.87,30.98,30.98s-13.87,30.97-30.98,30.97-30.98-13.86-30.98-30.97,13.86-30.98,30.98-30.98h0Zm-97.1,30.98c0-3.66,2.97-6.63,6.62-6.63s6.63,2.97,6.63,6.63c0,23.15,9.38,44.12,24.55,59.29,15.17,15.18,36.14,24.56,59.29,24.56,3.66,0,6.63,2.97,6.63,6.63s-2.97,6.63-6.63,6.63c-26.81,0-51.09-10.87-68.66-28.44-17.57-17.57-28.44-41.85-28.44-68.66h0Zm192.92-15.64c.57,3.6-1.89,6.99-5.49,7.56-3.6,.57-6.99-1.88-7.56-5.49-2.85-17.57-11.17-33.31-23.16-45.42-12.01-12.12-27.68-20.61-45.22-23.63-3.6-.61-6.03-4.04-5.42-7.64,.61-3.6,4.04-6.02,7.64-5.41,20.32,3.51,38.48,13.33,52.37,27.36,13.89,14.03,23.53,32.29,26.84,52.67h0Zm-95.82-99.42c63.54,0,115.06,51.51,115.06,115.06s-51.51,115.06-115.06,115.06-115.06-51.51-115.06-115.06,51.51-115.06,115.06-115.06Z" style="fill:#c4d1eb; fill-rule:evenodd;"/><path d="M276.33,366.01c-63.8,304.27,115.22,541.05,462.19,530.91,45.8-333.01-133.25-539.68-462.19-530.91Z" style="fill:#c4d1eb; fill-rule:evenodd;"/><path d="M292.77,398.61c-1.67-1.89-1.49-4.77,.4-6.44,1.89-1.67,4.78-1.49,6.45,.4l157.5,178.51,48.73-128.1c.9-2.36,3.54-3.54,5.9-2.64,2.35,.9,3.54,3.54,2.64,5.89l-50.44,132.59,43.74,49.58c1.32,.52,2.37,1.65,2.75,3.11l33.54,38.01,75.64-133.68c1.24-2.19,4.03-2.97,6.22-1.72,2.19,1.24,2.97,4.03,1.72,6.22l-77.2,136.42,39.31,44.55c.14,.14,.27,.29,.39,.44l39.92,45.25,59.41-96.63c1.33-2.14,4.14-2.81,6.28-1.49,2.14,1.33,2.81,4.14,1.49,6.28l-60.87,99,105.65,119.74c1.66,1.9,1.49,4.78-.41,6.45-1.89,1.67-4.78,1.49-6.44-.4l-71.04-80.51-85.58,27.51c-2.4,.77-4.97-.54-5.74-2.93-.78-2.4,.54-4.97,2.93-5.75l81.81-26.3-72.36-82.02-146.97,55.32c-2.37,.89-5.01-.31-5.9-2.67-.89-2.36,.31-5.01,2.67-5.9l143.72-54.1-37.19-42.15-.15-.17-37.44-42.43-156.12,36.98c-2.46,.58-4.92-.94-5.5-3.4-.58-2.46,.94-4.92,3.4-5.5l151.37-35.85-41.62-47.17-.21-.24-44.49-50.43-117.95,13.82c-2.5,.3-4.77-1.49-5.07-3.99-.3-2.5,1.49-4.77,3.99-5.06l111.68-13.09-110.57-125.32Z" style="fill:#fff; fill-rule:evenodd;"/><path d="M79.51,615.23c64.41,304.14,323.76,448.54,637.14,299.24-92.49-323.17-339.71-440.01-637.14-299.24Z" style="fill:#e0e8f5; fill-rule:evenodd;"/><path d="M107.71,638.42c-2.29-1.06-3.29-3.77-2.23-6.06,1.06-2.29,3.77-3.29,6.06-2.23l216.15,99.77-7.11-136.88c-.13-2.52,1.81-4.66,4.33-4.79,2.52-.13,4.67,1.81,4.8,4.32l7.36,141.67,60.03,27.71c1.41-.06,2.83,.55,3.77,1.74l46.03,21.25,15.26-152.83c.25-2.51,2.49-4.34,5-4.09,2.51,.26,4.34,2.49,4.09,5l-15.58,155.97,53.94,24.9c.18,.07,.36,.15,.53,.25l54.79,25.29,15.36-112.39c.35-2.5,2.65-4.24,5.14-3.9,2.5,.34,4.24,2.65,3.9,5.14l-15.75,115.15,144.98,66.92c2.29,1.05,3.29,3.77,2.23,6.06-1.06,2.29-3.77,3.29-6.06,2.23l-97.49-44.99-67.2,59.71c-1.88,1.68-4.77,1.51-6.44-.37-1.68-1.88-1.51-4.77,.37-6.44l64.23-57.08-99.3-45.83-112.15,109.92c-1.8,1.77-4.7,1.74-6.47-.06-1.77-1.8-1.74-4.69,.06-6.46l109.66-107.5-51.03-23.55-.21-.1-51.37-23.71-127.92,96.84c-2.01,1.52-4.88,1.12-6.41-.89-1.52-2.01-1.12-4.88,.89-6.4l124.03-93.89-57.11-26.36-.29-.14-61.06-28.18-102.34,60.25c-2.17,1.28-4.97,.56-6.25-1.61-1.28-2.17-.55-4.97,1.61-6.25l96.9-57.04-151.74-70.04Z" style="fill:#fff; fill-rule:evenodd;"/><path d="M0,922.68c181.67,252.27,477.24,279.73,703.71,16.67C488.67,680.98,215.33,673.84,0,922.68Z" style="fill:#c4d1eb; fill-rule:evenodd;"/><path d="M35.16,932.52c-2.52-.05-4.53-2.12-4.49-4.65,.04-2.52,2.13-4.53,4.65-4.49l238.03,4.05-61.74-122.36c-1.14-2.25-.23-5,2.02-6.13,2.25-1.13,5-.23,6.14,2.02l63.9,126.64,66.1,1.13c1.27-.62,2.82-.64,4.16,.07l50.68,.86-47.71-145.99c-.78-2.4,.53-4.98,2.92-5.75,2.4-.78,4.98,.53,5.76,2.92l48.69,149,59.41,1.01c.19-.02,.39,0,.59,0l60.33,1.03-31.29-109.03c-.69-2.42,.71-4.95,3.13-5.64,2.43-.69,4.95,.71,5.64,3.13l32.06,111.7,159.66,2.72c2.52,.04,4.53,2.12,4.49,4.65-.05,2.52-2.13,4.53-4.65,4.49l-107.36-1.83-37.39,81.76c-1.04,2.29-3.75,3.3-6.04,2.26-2.29-1.04-3.31-3.75-2.26-6.04l35.74-78.14-109.36-1.86-58.25,145.83c-.93,2.35-3.6,3.49-5.94,2.56-2.35-.94-3.49-3.6-2.55-5.95l56.96-142.61-56.2-.96h-.23s-56.57-.97-56.57-.97l-77.96,140.23c-1.23,2.2-4.01,3-6.22,1.77-2.21-1.22-3-4.01-1.77-6.21l75.58-135.96-62.89-1.07h-.32s-67.24-1.15-67.24-1.15l-69.33,96.42c-1.47,2.05-4.32,2.52-6.37,1.05-2.05-1.47-2.52-4.32-1.05-6.37l65.64-91.3-167.1-2.84Z" style="fill:#fff; fill-rule:evenodd;"/><g><path d="M855.18,760.42H462.77c-6.08,0-11.06-4.98-11.06-11.06V153.26c0-6.08,4.98-11.05,11.06-11.05h392.42c6.08,0,11.06,4.97,11.06,11.05V749.36c0,6.08-4.98,11.06-11.06,11.06h0Zm-392.41-45.96h392.41c1.81,0,3.29-1.48,3.29-3.29V153.26c0-1.81-1.48-3.29-3.29-3.29H462.77c-1.81,0-3.29,1.48-3.29,3.29V711.17c0,1.81,1.48,3.29,3.29,3.29Z" style="fill:#223f81; fill-rule:evenodd;"/><path d="M855.18,714.46H462.77c-1.81,0-3.29-1.48-3.29-3.29V153.26c0-1.81,1.48-3.29,3.29-3.29h392.41c1.81,0,3.29,1.48,3.29,3.29V711.17c0,1.81-1.48,3.29-3.29,3.29Z" style="fill:#fff; fill-rule:evenodd;"/><path d="M855.18,714.46H462.77c-1.81,0-3.29-1.48-3.29-3.29V153.26c0-1.81,1.48-3.29,3.29-3.29h392.41c1.81,0,3.29,1.48,3.29,3.29V711.17c0,1.81-1.48,3.29-3.29,3.29Z" style="fill:#f6eae0; fill-rule:evenodd;"/><rect x="462.89" y="153.38" width="392.17" height="557.67" style="fill:#e0e8f5;"/><rect x="462.89" y="153.38" width="392.17" height="29.72" style="fill:#6d96ce;"/><path d="M532.62,163.99c-3.03,0-5.48,2.45-5.48,5.48s2.46,5.48,5.48,5.48,5.48-2.46,5.48-5.48-2.45-5.48-5.48-5.48h0Zm-50.69,0c-3.03,0-5.48,2.45-5.48,5.48s2.45,5.48,5.48,5.48,5.48-2.46,5.48-5.48-2.45-5.48-5.48-5.48h0Zm25.35,0c-3.03,0-5.48,2.45-5.48,5.48s2.45,5.48,5.48,5.48,5.48-2.46,5.48-5.48-2.46-5.48-5.48-5.48Z" style="fill:#fff; fill-rule:evenodd;"/><path d="M641.39,735.97c0,10,8.11,18.1,18.11,18.1s18.1-8.11,18.1-18.1-8.11-18.1-18.1-18.1-18.11,8.11-18.11,18.1Z" style="fill:#929497; fill-rule:evenodd;"/><path d="M641.16,735.97c0,9.84,7.97,17.81,17.81,17.81s17.81-7.97,17.81-17.81-7.98-17.81-17.81-17.81-17.81,7.97-17.81,17.81Z" style="fill:#e0e8f5; fill-rule:evenodd;"/><path d="M450.83,193.34h0c1.15,0,2.08,.93,2.08,2.08v90.11c0,1.15-.93,2.08-2.08,2.08h0c-1.15,0-2.08-.93-2.08-2.08v-90.1c0-1.15,.93-2.08,2.08-2.08Z" style="fill:#223f81;"/><path d="M450.83,290.75h0c1.15,0,2.08,.93,2.08,2.08v90.1c0,1.15-.93,2.08-2.08,2.08h0c-1.15,0-2.08-.93-2.08-2.08v-90.1c0-1.15,.93-2.08,2.08-2.08Z" style="fill:#223f81;"/><path d="M867.82,272.31h0c1.15,0,2.08,.93,2.08,2.08v90.1c0,1.15-.93,2.08-2.08,2.08h0c-1.15,0-2.08-.93-2.08-2.08v-90.1c0-1.15,.93-2.08,2.08-2.08Z" style="fill:#223f81;"/></g><g><path d="M412.24,1037.52c39.54,0,77.27,6.46,111.78,18.13-3.69-18.09-5.64-36.76-5.64-55.86,0-164.15,142.57-297.22,318.44-297.22,31.18,0,61.31,4.21,89.79,12,44.51-210.05,238.74-368.18,471.61-368.18,265.76,0,481.21,205.94,481.21,459.97,0,43.66-6.37,85.91-18.26,125.92,173.88,11.75,310.76,133.94,310.76,291.59s-150.74,283.06-243.48,309c-13.9,3.9-32.89,3.66-55.14,0h-616.01v-216.64h202.42l-343.77-343.77-343.77,343.77h202.41v216.64H412.24c-164.15,0-297.21-110.89-297.21-247.68s133.07-247.69,297.21-247.69Z" style="fill:#84a8d8; fill-rule:evenodd;"/><g style="opacity:.17;"><path d="M1972.44,1019.4c58.54,52.08,94.54,123.62,94.54,204.47s-41.6,156.75-94.54,212.02c-47.82,49.94-104.92,84.66-148.94,96.98h49.78c22.25,3.66,41.24,3.89,55.14,0,13.64-3.82,28.53-9.78,44.01-17.69,89.8-45.84,199.47-156.84,199.47-291.31,0-121.95-81.89-222.67-199.47-267.49-34.42-13.12-71.9-21.44-111.29-24.1,11.9-40.01,18.26-82.26,18.26-125.92,0-254.03-215.45-459.97-481.21-459.97-17.73,0-35.24,.92-52.46,2.7,241.08,24.98,428.75,220.18,428.75,457.27,0,31.04-3.22,61.35-9.35,90.66-2.49,11.93-5.47,23.69-8.91,35.26,84.7,5.72,160.62,37.66,216.21,87.12Z" style="fill:#fff; fill-rule:evenodd;"/></g><path d="M397.3,1037.52c2.54,0,5.06,.03,7.58,.08-160.75,3.25-289.86,112.86-289.86,247.6s133.07,247.68,297.21,247.68h-14.93c-164.15,0-297.22-110.89-297.22-247.68s133.07-247.69,297.22-247.69h0Zm110.82,13.2c-3.06-16.55-4.69-33.56-4.69-50.93,0-164.15,142.57-297.22,318.44-297.22,2.56,0,5.12,.03,7.67,.09-172.51,3.61-311.17,135.25-311.17,297.13,0,19.1,1.95,37.77,5.64,55.86-5.22-1.76-10.52-3.41-15.89-4.93h0Zm404.34-339.68c45.93-208.29,239.26-364.64,470.82-364.64,2.32,0,4.63,.05,6.94,.08-229.31,3.57-419.62,160.45-463.62,368.1-4.67-1.28-9.39-2.46-14.14-3.54h0Zm984.23,824.47c-11.12,.66-24.06-.28-38.34-2.63h14.94c8.28,1.36,16.12,2.25,23.4,2.63h0Zm-639.41-2.63h-14.93v-216.64h14.93v216.64h0Zm187.48-216.64h14.94l-343.77-343.77-7.47,7.47,336.3,336.3Z" style="fill:#466fb5; fill-rule:evenodd;"/></g><path d="M779.76,802.28h880.76c11.47,0,21.02,9.33,20.85,20.71l-7.88,543.35c-.16,11.37-9.4,20.71-20.85,20.71H787.65c-11.45,0-20.69-9.32-20.85-20.71l-7.88-543.35c-.16-11.39,9.38-20.71,20.85-20.71Z" style="fill:#20386f; fill-rule:evenodd;"/><polygon points="786.54 829.81 794.23 1359.53 1646.06 1359.53 1653.75 829.81 786.54 829.81" style="fill:#fff; fill-rule:evenodd;"/><polygon points="805.24 848.24 812.39 1341.1 1627.89 1341.1 1635.04 848.24 805.24 848.24" style="fill:#c4d1eb; fill-rule:evenodd;"/><polygon points="1634.15 910.57 806.15 910.57 805.24 848.24 1635.04 848.24 1634.15 910.57" style="fill:#6d96ce; fill-rule:evenodd;"/><path d="M846.7,861.76h431.56c9.71,0,17.65,7.94,17.65,17.65h0c0,9.71-7.94,17.64-17.65,17.64h-431.56c-9.71,0-17.65-7.93-17.65-17.64h0c0-9.71,7.94-17.65,17.65-17.65Z" style="fill:#fff; fill-rule:evenodd;"/><path d="M1582.27,897.05c9.73,0,17.65-7.92,17.65-17.64s-7.92-17.65-17.65-17.65-17.64,7.93-17.64,17.65,7.92,17.64,17.64,17.64Z" style="fill:#fff; fill-rule:evenodd;"/><polygon points="598.68 1519.2 885.44 1519.2 1554.85 1519.2 1841.61 1519.2 1678.37 1387.06 1554.85 1387.06 885.44 1387.06 761.92 1387.06 598.68 1519.2" style="fill:#859ac6; fill-rule:evenodd;"/><path d="M598.68,1519.2H1841.61c0,11.22-7.99,21.19-18.55,23.46H617.23c-10.57-2.27-18.55-12.24-18.55-23.46Z" style="fill:#20386f; fill-rule:evenodd;"/><polygon points="1054.89 1470.41 1096.71 1470.41 1343.57 1470.41 1385.4 1470.41 1396.31 1490.47 1343.57 1490.47 1096.71 1490.47 1043.97 1490.47 1054.89 1470.41" style="fill:#fff; fill-rule:evenodd;"/><path d="M1103.79,1133.52h250.79c4.22,0,8.06-1.74,10.84-4.52,2.78-2.78,4.51-6.62,4.51-10.83l-25.1-122.06c0-4.22-1.73-8.06-4.51-10.84-2.78-2.79-6.62-4.51-10.84-4.51h-231.31c-4.22,0-8.06,1.72-10.84,4.51-2.78,2.78-4.51,6.62-4.51,10.84l5.62,122.06c0,4.21,1.73,8.05,4.51,10.83,2.78,2.78,6.62,4.52,10.84,4.52Z" style="fill:#835e42; fill-rule:evenodd;"/><path d="M1374.32,980.31v-1.09l-44.29,9.84c0-22.97-.41-29.25-5.22-44.29-1.16-3.62-2.57-7.76-4.31-12.77l-.67-1.23c2.03,5.89,3.1,11.19,4.4,15.27,4.82,15.05,5.22,21.32,5.22,44.3l44.87-10.01Z" style="fill:#b2b1b1; fill-rule:evenodd;"/><path d="M1130.73,930h189.1c9.56,27.62,10.22,29.82,10.22,59.05l44.29-9.84v157.47h-243.6v-206.69Z" style="fill:#f6eae0; fill-rule:evenodd;"/><g><rect x="1149.18" y="956.79" width="95.96" height="22.15" rx="5.13" ry="5.13" style="fill:#d0a382;"/><path d="M1150.46,999.24h138.28c.71,0,1.29,.58,1.29,1.28v2.97c0,.7-.58,1.28-1.29,1.28h-138.28c-.71,0-1.28-.58-1.28-1.28v-2.97c0-.7,.58-1.28,1.28-1.28Z" style="fill:#d0a382; fill-rule:evenodd;"/><path d="M1150.46,1023.23h204.12c.71,0,1.29,.58,1.29,1.29v2.97c0,.7-.58,1.28-1.29,1.28h-204.12c-.71,0-1.28-.58-1.28-1.28v-2.97c0-.71,.58-1.29,1.28-1.29Z" style="fill:#d0a382; fill-rule:evenodd;"/><path d="M1150.46,1042.61h204.12c.71,0,1.29,.58,1.29,1.28v2.97c0,.71-.58,1.29-1.29,1.29h-204.12c-.71,0-1.28-.58-1.28-1.29v-2.97c0-.7,.58-1.28,1.28-1.28Z" style="fill:#d0a382; fill-rule:evenodd;"/><path d="M1150.46,1061.98h204.12c.71,0,1.29,.58,1.29,1.29v2.97c0,.71-.58,1.28-1.29,1.28h-204.12c-.71,0-1.28-.57-1.28-1.28v-2.97c0-.71,.58-1.29,1.28-1.29Z" style="fill:#d0a382; fill-rule:evenodd;"/><path d="M1150.46,1081.36h204.12c.71,0,1.29,.57,1.29,1.28v2.97c0,.71-.58,1.29-1.29,1.29h-204.12c-.71,0-1.28-.58-1.28-1.29v-2.97c0-.71,.58-1.28,1.28-1.28Z" style="fill:#d0a382; fill-rule:evenodd;"/><path d="M1150.46,1100.73h204.12c.71,0,1.29,.58,1.29,1.29v2.97c0,.71-.58,1.28-1.29,1.28h-204.12c-.71,0-1.28-.57-1.28-1.28v-2.97c0-.71,.58-1.29,1.28-1.29Z" style="fill:#d0a382; fill-rule:evenodd;"/></g><path d="M1336.42,1060.3h-250.8c-4.22,0-8.06,1.73-10.84,4.51-2.78,2.78-4.51,6.62-4.51,10.84l25.11,122.06c0,4.22,1.73,8.06,4.51,10.84,2.78,2.78,6.62,4.51,10.84,4.51h215.98c4.22,0,8.06-1.73,10.84-4.51,2.78-2.78,4.51-6.62,4.51-10.84l9.72-122.06c0-4.22-1.73-8.06-4.52-10.84-2.78-2.78-6.61-4.51-10.83-4.51Z" style="fill:#d0a382; fill-rule:evenodd;"/><g><path d="M1394.21,980.52s-5.8-15.01-7.43-17.09c-1.62-2.09-9.99-7.59-10.67-7.27-.69,.31-.95,1.01-.15,2.4,.8,1.38,4.3,5.36,3.58,5.43-.72,.09-11.63-10.79-14.25-9.23-2.62,1.56-2.67,11.61,.92,17.61,3.6,6.02,18.04,12.88,18.78,13.8,6.33,7.81,9.21-5.66,9.21-5.66Z" style="fill:#f9af79; fill-rule:evenodd;"/><path d="M1387.79,978.16c4.93-3.34,5.91-3.21,5.91-3.21,0,0,40.64,40.41,44.62,44.03,3.97,3.62,72.08,37.51,72.08,37.51l1.33,55.33s-84.05-60.92-93.94-70.3c-16.37-15.49-35.49-57.03-35.49-57.03,0,0,1.62-3.71,5.49-6.33Z" style="fill:#466fb5; fill-rule:evenodd;"/><path d="M1594.79,1418.22s11.61,12.54,14.52,14.09c2.89,1.55-1.29,19.76-9.18,20.96-4.44,.71-6.91-3.57-6.91-3.57l1.27-5.28-16.59-14.87,16.89-11.33Z" style="fill:#f9af79; fill-rule:evenodd;"/><path d="M1428.38,1424.86s-1.45,16.75-.59,19.84c.82,3.13-15.76,12.21-22.07,7.3-3.55-2.78-2.04-7.4-2.04-7.4l4.81-2.55-.21-21.91,20.11,4.72Z" style="fill:#f9af79; fill-rule:evenodd;"/><path d="M1427.69,1443.91s-8.26,1.16-12.15,1.08c-5.05-.09-10.88-.94-10.88-.94,0,0-10.13,3.2-13.34,4.6-7.14,3.12-15.11,6.56-17.22,9.92-.66,1.06,.96,4.16,3.47,5.36,10.54,4.91,47.21,5.91,53.93,3.55,7.75-2.71-3.81-23.57-3.81-23.57Z" style="fill:#0e2952; fill-rule:evenodd;"/><path d="M1506.54,1231.11c2.62-1.29,5.04-2.42,7.36-3.49,8.21,9.4,17.54,20,27.1,30.92l-20.82,43.58c2.35-2.62-65.6,38.67-65.6,38.67,0,0-15.43,55.17-21.23,90.2-11.87,1.42-14.31,1.03-27.13-1.75-2.83-41.26,3.57-105.12,8.57-113.06,2.88-4.59,60.55-69.77,91.76-85.07Z" style="fill:#20386f; fill-rule:evenodd;"/><path d="M1575.39,1254.18c-2.36,35.7-15.66,86.52-15.14,91.52,2.03,6.6,36.62,67.67,43.11,76.56-5.16,6.76-12.75,13.12-21.32,15.14-1.7,.39-60.13-72.48-63.38-78.3-3.67-6.64-9.77-42.74-9.89-87.46l-1.69-44.29c14.43-14.18,37.92-23.62,46-22.06,13.99,2.68,22.91,39.87,22.3,48.91Z" style="fill:#1d417f; fill-rule:evenodd;"/><path d="M1608.65,1431.84s-4.61,6.75-7.26,9.52c-3.42,3.61-7.94,7.22-7.94,7.22,0,0-4.32,9.55-5.39,12.85-2.41,7.3-5.13,16.11-4,19.91,.37,1.25,3.46,3.58,6,2.14,9.85-5.59,36.13-31.76,38.82-38.23,3.11-7.5-20.23-13.4-20.23-13.4Z" style="fill:#0e2952; fill-rule:evenodd;"/><path d="M1370.42,1003.46s-3.41-16.73-4.74-19.19c-1.33-2.48-9.11-9.71-9.89-9.49-.78,.21-1.17,.9-.57,2.48,.59,1.59,3.54,6.37,2.78,6.33-.75-.05-10.26-13.35-13.28-12.18-3.01,1.18-4.84,11.66-2.14,18.59,2.7,6.94,16.59,16.66,17.22,17.76,5.22,9.28,10.62-4.3,10.62-4.3Z" style="fill:#f9af79; fill-rule:evenodd;"/><path d="M1529.07,1049.12s-15.6,18.51-35.48,10.77c0,0-4.27-10.34-4.33-17.96,0-.94-.02-1.85-.03-2.72-.11-8.58-.4-13.4-.4-13.4h.02c.91-.37,30.37-12.47,30.36-11.48-.51,23.22,9.86,34.79,9.86,34.79Z" style="fill:#f9af79; fill-rule:evenodd;"/><path d="M1516.24,1019.88c-2.84,5.27-12.59,15.58-27.01,19.34-.11-8.58-.4-13.4-.4-13.4h.02c.81-.22,28.24-7.49,27.39-5.94Z" style="fill:#ed7d57; fill-rule:evenodd;"/><path d="M1482.65,1024.92s33.15,7.8,37.68-12.92c4.54-20.72,11.87-33.66-9.1-39.51-20.97-5.85-26.83,1.15-30.03,7.7-3.19,6.54-7.06,42.17,1.45,44.73Z" style="fill:#f9af79; fill-rule:evenodd;"/><path d="M1519.21,1017.65c.45,.29,7.58,2.48,21.09-24.43,2.12-4.22,3.56-13.37-1.38-21.44-13.73-22.42-37.98-7.47-63.11-22.36-9.05,34.57,18.29,31.59,23.52,33.23,5.24,1.66,7.09,9.91,7.49,12.56,.39,2.64,1,4.85,7.59,2.48,6.58-2.36,2.97,9.33,1.92,11.57,0,0-.89,5.96,2.88,8.38Z" style="fill:#20386f; fill-rule:evenodd;"/><path d="M1464.78,1125.62c.2,10.98,.84,23.32,1.7,35.85,.05,.74,.1,1.49,.15,2.23,.55,7.77,1.15,15.54,1.83,23.14,.27,3.05,.57,6.05,.88,9l.04,.4c.02,1.11,.16,2.31,.28,3.4,2.8,28.43,5.73,50.89,6.27,51.23,.66,.43,1.38,.64,2.19,.55,7.46-.94,29.7,.76,47.9-3.21,15.37-3.25,28.6-9.39,42.61-17.67,1.87-1.1,6.11-4.02,5.76-6.19-.35-2.4-.96-5.86-1.76-10.21-2.76-15.12-7.54-41.13-9.16-71.57-.31-5.67-.77-11.28-1.37-16.78-1.57-14.34-4.07-27.96-7.43-40.06-6.25-22.48-15.42-39.7-26.93-46.42-1.5-.85-9.59,4.31-17.03,9.07-6.86,4.4-14.08,5.63-21.11,5.01l-6.18,6.84c-7.49,8.7-15.46,20.29-17.64,36.77-.17,1.22-.31,2.52-.43,3.88-.6,6.72-.74,15.21-.58,24.73Z" style="fill:#6d96ce; fill-rule:evenodd;"/><path d="M1464.78,1125.62c.2,10.98,.84,23.32,1.7,35.85,.05,.74,.1,1.49,.15,2.23,42.58-26.64,49.14-75.42,49.14-75.42-20.95,.92-37.59,5.74-50.42,12.62-.6,6.72-.74,15.21-.58,24.73Z" style="fill:#466fb5; fill-rule:evenodd;"/><path d="M1362.29,1001.12c4.73-4.21,7.56-2.27,7.56-2.27,0,0,48.49,43.65,53.18,46.91,4.7,3.28,71.66,10.47,71.66,10.47,0,0,26.89,1.8,32.34,16.12,4.73,12.43-.08,22.44-6.52,29.57-7.68,8.5-19.84,11.33-30.54,7.27-24.03-9.11-71.82-27.59-80.54-33.92-19.4-14.05-52.29-66.71-52.29-66.71,0,0,1.44-4.14,5.15-7.45Z" style="fill:#6d96ce; fill-rule:evenodd;"/><path d="M1497.3,998.58c1.47,.18,3.3-5.47-.27-5.91-1.9-.23-2.12,5.61,.27,5.91Z" style="fill:#20386f; fill-rule:evenodd;"/><path d="M1481.37,997.31c-1.46-.18-1.94-6.1,1.62-5.66,1.9,.23,.8,5.96-1.62,5.66Z" style="fill:#20386f; fill-rule:evenodd;"/><path d="M1496.38,987.4c-2.38-.2-2.53,1.77-.87,2.5,.48,.22,9.85,3.29,9.5,2.64-.67-1.33-4.13-4.76-8.63-5.14Z" style="fill:#20386f; fill-rule:evenodd;"/><path d="M1485.84,986.22c2.37,.26,2.17,2.23,.39,2.62-.84,.18-10.38,1.35-9.72,.59,1.1-1.23,4.99-3.71,9.32-3.21Z" style="fill:#20386f; fill-rule:evenodd;"/><path d="M1480.39,1004.97c3.71,4.08,4.45,1.67,3.04,1.14-4.71-1.8,.82-1.72,4.66-9.44,.4-.82-.51-1.25-.93-.63-.29,.43-1.14,2.12-1.49,2.57-4.17,5.47-6.46,5.05-5.28,6.35Z" style="fill:#ed7d57; fill-rule:evenodd;"/><path d="M1481.78,1010.66c6.9,13.21,14.33,1.36,12.28,1-10.42-1.77-13.12-2.62-12.28-1Z" style="fill:#fff; fill-rule:evenodd;"/></g><path d="M1336.56,944.76l-16.74-14.76c2.03,5.89,3.69,10.67,4.99,14.76,4.81,15.05,5.22,21.32,5.22,44.29l44.29-9.84-37.76-34.46Z" style="fill:#d0a382; fill-rule:evenodd;"/><g><path d="M2095.93,457.04h-206.36c-19.88,0-36.14,16.24-36.14,36.14v62.37h0c-3.29,0-5.99,2.69-5.99,5.99v50.76c0,3.3,2.69,5.99,5.99,5.99h0v322.11c0,19.89,16.25,36.14,36.14,36.14h206.36c19.88,0,36.14-16.24,36.14-36.14v-273.14c.16,.01,.33,.02,.51,.02h0c3.3,0,5.99-2.69,5.99-5.99v-50.76c0-3.3-2.69-5.99-5.99-5.99h0c-.18,0-.35,0-.51,.02v-17.27c.16,.01,.33,.02,.51,.02h0c3.3,0,5.99-2.69,5.99-5.99v-50.76c0-3.3-2.69-5.99-5.99-5.99h0c-.18,0-.35,0-.51,.02v-31.43c0-19.89-16.25-36.14-36.14-36.14Z" style="fill:#466fb5; fill-rule:evenodd;"/><path d="M2095.93,466.68h-206.36c-14.57,0-26.49,11.92-26.49,26.5v447.22c0,14.58,11.92,26.5,26.49,26.5h206.36c14.57,0,26.49-11.92,26.49-26.5V493.18c0-14.57-11.92-26.5-26.49-26.5Z" style="fill:#6d96ce; fill-rule:evenodd;"/><rect x="1873.95" y="477.55" width="237.61" height="443.68" rx="15.62" ry="15.62" style="fill:#e0e8f5;"/><circle cx="1992.04" cy="942.77" r="18.55" style="fill:#b0c2e4;"/><path d="M1993.47,923.51c10.25,0,18.55,8.3,18.55,18.56s-8.3,18.55-18.55,18.55-18.55-8.31-18.55-18.55,8.3-18.56,18.55-18.56Z" style="fill:#466fb5; fill-rule:evenodd;"/><path d="M1890.98,497.5c2.56,0,4.65-2.09,4.65-4.64s-2.09-4.64-4.65-4.64-4.63,2.09-4.63,4.64,2.08,4.64,4.63,4.64Z" style="fill:#466fb5; fill-rule:evenodd;"/><path d="M1945.82,471.36h113.96c.78,0,1.41,.63,1.41,1.41h0c0,.78-.63,1.41-1.41,1.41h-113.96c-.77,0-1.41-.63-1.41-1.41h0c0-.78,.64-1.41,1.41-1.41h0Zm-8.41,0h-11.19c-.77,0-1.41,.63-1.41,1.41h0c0,.78,.64,1.41,1.41,1.41h11.19c.77,0,1.41-.63,1.41-1.41h0c0-.78-.63-1.41-1.41-1.41Z" style="fill:#466fb5; fill-rule:evenodd;"/></g><g><path d="M1557.13,537.97c-21.03-.33-36.73-.59-44-2.88-7.83-2.48-6.2-7.25-1.71-14.89,19.81,9.11,14.54-1.87,23.8-.47,6.52,5.24,16.16,8.75,28.94,10.54,5.4,3.99,3.21,7.54-7.03,7.71Z" style="fill:#0e2952; fill-rule:evenodd;"/><path d="M1530.12,217.64h-129.89c-2.56,0-5.21,2.1-5.88,4.65l-23.12,88.02c-.67,2.56,.88,4.65,3.43,4.65h129.9c2.56,0,5.2-2.09,5.88-4.65l23.12-88.02c.67-2.56-.88-4.65-3.44-4.65Z" style="fill:#c4d1eb; fill-rule:evenodd;"/><path d="M1391.57,220.18l-15.69,59.75c-18.84-9.19-41.55-23.95-65.35-42.88-.63-8.52-1.43-15.31-2.37-20.38,1.91-3.79,4-7.84,6.28-12.14-21.97-.14-35.37-4.86-40.2-14.17,5.88-17.2,14.1-34.76,24.64-52.68,7.38-10.92,21.85-17.34,43.37-19.25,2.52,28.88,46.81,27.4,36.39,2.54,16.07,4.31,29.68,12.28,40.84,23.9,9.6,23.65,15.45,40.15,17.55,49.51-10.42,7.3-20.29,12.02-29.61,14.17-.43,2.05-.76,4.37-1.01,6.98h-8.96c-2.56,0-5.2,2.09-5.88,4.65Z" style="fill:#6d96ce; fill-rule:evenodd;"/><path d="M1375.88,279.93l15.69-59.75c.67-2.56,3.31-4.65,5.88-4.65h129.89c2.57,0,7.12,3.3,6.37,5.84,.13-2.12-1.34-3.73-3.58-3.73h-129.89c-2.56,0-5.2,2.1-5.88,4.65l-23.12,88.02c-.4,1.53,0,2.9,.92,3.75-2.14-1.38-4.18-4.05-3.71-5.87l7.43-28.26Z" style="fill:#859ac6; fill-rule:evenodd;"/><path d="M1374.67,314.96h129.9c.47,0,.96-.07,1.42-.21-2.59,6.7-9.61,5.71-12.35,5.69h-154.01c-8.34-.35-8.13-6.21-8.24-11.85h37c-.11,1.79,1.78,4.18,3.77,5.47,.62,.57,1.49,.9,2.51,.9Z" style="fill:#859ac6; fill-rule:evenodd;"/><path d="M1392.85,253.83c13.93,7.04,30.4,9.21,47.33,10.08-.19,.61-.33,1.23-.43,1.86-1.12,7.14,3.91,13.22,11.17,13.22,6.85,0,13.05-5.42,14.13-12.17,.11-.73,.16-1.45,.15-2.15,17.59,.47,34.57,1.43,48.62,6.94l-9.66,36.79h-125.64l14.33-54.57Z" style="fill:#9db2d9; fill-rule:evenodd;"/><path d="M1453.73,257.87c-4.65,0-9.03,3.77-9.77,8.43-.73,4.66,2.44,8.43,7.1,8.43s9.03-3.77,9.76-8.43c.74-4.65-2.43-8.43-7.09-8.43Z" style="fill:#9db2d9; fill-rule:evenodd;"/><path d="M1304.27,293.52c2.6-7.9,4.46-16.1,5.59-24.59,17.49,6.78,37.5,13.31,62.79,23.3l-3.42,13c-38.22,1.25-59.87-2.66-64.97-11.71Z" style="fill:#6d96ce; fill-rule:evenodd;"/><path d="M1372.65,292.23c-25.29-9.99-45.3-16.52-62.79-23.3-15.42-5.97-28.89-12.12-42.29-21,.55-17.13,3.1-33.71,10.19-52.92,6.51,6.23,18.74,9.4,36.67,9.51-5.19,9.82-9.43,18.28-12.69,25.39,26.97,22.37,52.98,39.7,74.14,50.02l-3.23,12.3Z" style="fill:#f9af79; fill-rule:evenodd;"/><path d="M1433.67,196.65c1.95,6.81,3.75,13.1,5.42,18.88h-32.67c.24-2.61,.58-4.93,1-6.98,8.31-1.92,17.06-5.88,26.25-11.9Z" style="fill:#f9af79; fill-rule:evenodd;"/><path d="M1512.99,513.27c-19.32-70.07-26.23-119.29-20.74-147.67-10.98,1.56-22.01,2.05-33.08,1.47,1.69-7.58,3.38-15.18,5.1-22.87-.19-10.45-5.54-18.21-24.47-23.77h53.84c1.83,.02,5.56,.46,8.62-1.23,17.34,4.96,25.81,13.13,28.71,23.13,2.11,27.49-3.6,58.8,1.27,171.15-6.08,.63-12.49,.56-19.26-.21Z" style="fill:#20386f; fill-rule:evenodd;"/><path d="M1492.8,320.44h.84c1.83,.02,5.56,.46,8.62-1.23,17.34,4.96,25.81,13.13,28.71,23.13,2.11,27.49-3.6,58.8,1.27,171.15-3.62,.37-7.37,.5-11.24,.38-9.98-39.05-33.73-134.85-6.98-176.14-6.28-6.66-13.36-12.42-21.23-17.28Z" style="fill:#1d417f; fill-rule:evenodd;"/><path d="M1342.29,118.71c3.44-4.38,6.48-8.45,7.36-11.34-.69-1.98-1.42-4.47-2.18-7.5-12.89-8.76-14.65-15.24-5.28-19.44,1.88,1.06,4.23,4.32,7.03,9.79,2.23-.09,3.93-1.23,5.08-3.43-2.65-9.22-4.39-16.71-5.19-22.47,6.35-9.44,21.21-10.79,40.89-8.24,.91,5.24,1.66,10.79,2.24,16.64,3.48,3.2,3.03,15.08-.18,28.77,1.61,7.78-3.2,12.04-14.42,12.75-.16,2.76,.92,6.28,1,6.7h0s.02,.06,.03,.09c10.22,24.68-33.6,26.19-36.39-2.33Z" style="fill:#f9af79; fill-rule:evenodd;"/><path d="M1389.99,56.09c-19.68-2.55-34.54-1.2-40.89,8.24,.8,5.75,2.54,13.24,5.19,22.47-1.15,2.19-2.84,3.34-5.08,3.43-2.8-5.47-5.14-8.72-7.03-9.79-9.37,4.2-7.61,10.68,5.28,19.44,.75,3.02,1.49,5.52,2.18,7.5-11.6-2.6-21.3-12.97-22.67-17.46-13.54-26.67,1.56-37.93,9.63-42.04,3.57-26.41,41.92-3.07,61.13-15.8,7.64,10.55-1.8,23.78-7.76,24.02Z" style="fill:#20386f; fill-rule:evenodd;"/><path d="M1322.9,361.63c-22.67-8.14-25.75-30.71-15.78-64.82,8.19,6.7,28.89,9.51,62.11,8.42l-.78,2.96c-.03,.13-.05,.27-.06,.4h-37c.1,5.64-.1,11.49,8.24,11.85h100.17c18.93,5.56,24.27,13.31,24.47,23.77-11.98,53.56-22.66,102.68-37.17,170.55-4.9,2.75-11.61,2.54-20.11-.63-6.82-65.82-4.94-113.69,5.61-143.59-28.03,.11-57.93-3.71-89.7-8.9Z" style="fill:#1d417f; fill-rule:evenodd;"/><path d="M1322.9,361.63c-22.67-8.14-25.75-30.71-15.78-64.82,1.74,1.42,4.04,2.68,6.92,3.75-8.25,35.05,.72,54.26,27.36,56.1,31.07,4.61,56.83,6.82,77.28,6.65-9.01,58.44-10.55,109.39-4.64,152.85-2.19-.42-4.55-1.1-7.06-2.03-6.82-65.82-4.94-113.69,5.61-143.59-28.03,.11-57.93-3.71-89.7-8.9Z" style="fill:#20386f; fill-rule:evenodd;"/><path d="M1530.21,513.67c.56,2.11,1.48,4.1,2.75,5.96-6.07,.57-3.72,8.38-20.1,1.21,.69-2.07,1.08-4.55,1.17-7.45,5.64,.58,11.03,.67,16.18,.28Z" style="fill:#f9af79; fill-rule:evenodd;"/><path d="M1427.04,550.27c-11.16-4.6-12.84-12.1-18.98-14.96-6.17-2.89-6.88-8.03-.84-13.61,4.46,3.57,10.01,7.95,12.93,5.63,1.96-1.55,8.6-1.45,9.92,.81,5.79,13.45,13.84,9.19,15.42,15.3,.18,8.15-11.43,9.73-18.45,6.83Z" style="fill:#0e2952; fill-rule:evenodd;"/><path d="M1425.14,515.66c-.1,3.58,.39,7.17,1.47,10.76-2.39-.37-5.26-.04-6.45,.9-2.72,2.15-7.67-1.46-11.93-4.84,.69-1.93,1.16-4.42,1.4-7.46,6.23,1.95,11.4,2.17,15.51,.63Z" style="fill:#f9af79; fill-rule:evenodd;"/><path d="M1314.44,204.52c2.89-5.22,5.93-12.24,9.16-21.06-1.74,10.27-1.64,17.67-4.44,26.12,2.26,11.94,3.19,24.13,2.96,36.42-3.83-2.87-7.68-5.85-11.58-8.95-.63-8.52-1.43-15.31-2.37-20.38,1.91-3.79,4-7.84,6.28-12.14h0Zm99.71,2.06c-2.27,.8-4.52,1.45-6.72,1.97,.84-13.07,1.38-23.88,1.64-32.42,2.52,12.61,4.21,22.76,5.08,30.45h0Zm-109.87,86.94c2.6-7.9,4.46-16.1,5.59-24.59,3.24,1.25,6.57,2.5,10,3.76-1.38,9.3-3.34,18.6-5.83,27.85-4.9-1.83-8.15-4.17-9.76-7.03Z" style="fill:#466fb5; fill-rule:evenodd;"/><path d="M1371.82,63.94c-5.83-1.28-15.83,4.99-12.57,5.64,1.05,.21,4.03-1.58,5.18-1.9,2.28-.63,6.7-.31,7.95-1.82,.51-.62,.19-1.76-.55-1.92Z" style="fill:#20386f; fill-rule:evenodd;"/><path d="M1380.69,65.77c1.24,1.49,5.66,1.17,7.94,1.81,1.15,.31,4.13,2.09,5.19,1.87,3.25-.66-6.78-6.96-12.59-5.61-.82,.2-1.06,1.32-.55,1.93Z" style="fill:#20386f; fill-rule:evenodd;"/><path d="M1366.59,77.88c-1.69,0-3.01-6.42,1.09-6.42,2.19,0,1.67,6.42-1.09,6.42Z" style="fill:#20386f; fill-rule:evenodd;"/><path d="M1387.6,77.93c1.7,0,3.02-6.42-1.08-6.42-2.19,0-1.68,6.42,1.08,6.42Z" style="fill:#20386f; fill-rule:evenodd;"/><path d="M1380.74,88.77c-.41-.61,.71-1.09,1.36-1.52,2.4-1.55,2.98-.33-2.31-10.82-1.03-2.06-1.83-3.07-1.08-3.42,.69-.31,.82,.6,1.99,2.94,5.76,11.43,5.24,9.95,.76,12.96-.23,.15-.56,.1-.72-.14Z" style="fill:#ed7d57; fill-rule:evenodd;"/><path d="M1372.86,98.38c-.69-1.26,1.11-.91,12.15-2.09,3.29-.34-6.43,12.51-12.15,2.09Z" style="fill:#ed7d57; fill-rule:evenodd;"/></g><g><rect x="1930.88" y="255.97" width="112.73" height="59.69" style="fill:#fff;"/><rect x="1930.88" y="332.7" width="112.73" height="25.61" style="fill:#fff;"/><path d="M1990.71,262.23c-2.32-3.68-4.41-6.33-6.3-7.93,8.97-4.87,13.94-10.2,14.92-16.03,1.31,1.16,2.42,2.55,3.33,4.18-3.34,7.94-7.31,14.54-11.94,19.78Z" style="fill:#466fb5; fill-rule:evenodd;"/><path d="M1978.1,262.23c2.31-3.68,4.41-6.33,6.31-7.93-8.97-4.87-13.95-10.2-14.93-16.03-1.31,1.16-2.42,2.55-3.32,4.18,3.33,7.94,7.31,14.54,11.94,19.78Z" style="fill:#466fb5; fill-rule:evenodd;"/><path d="M2057.37,269.89c-9.68-13.38-27.92-22.52-54.72-27.44-3.34,7.94-7.31,14.54-11.94,19.78-2.32-3.68-4.41-6.33-6.3-7.93-1.9,1.6-4,4.25-6.31,7.93-4.63-5.24-8.61-11.83-11.94-19.78-26.81,4.92-45.04,14.07-54.72,27.44-7.4,21.66-12.29,38.83-14.66,51.48,7.85,1.69,16.89,3.68,27.12,5.97-1.38,24.44-1.74,45.32-1.07,62.63,14.29,4.16,34.26,11.57,58.05,21.52,1.23-.04,2.41-.1,3.53-.18,1.11,.08,2.29,.14,3.52,.18,23.79-9.95,43.76-17.37,58.05-21.52,.66-17.31,.31-38.19-1.06-62.63,10.22-2.29,19.26-4.28,27.11-5.97-2.37-12.66-7.26-29.82-14.65-51.48Z" style="fill:#6d96ce; fill-rule:evenodd;"/><path d="M2040.62,286.43c1.9,12.25,3.33,25.89,4.29,40.92,1.29-.29,2.57-.57,3.83-.85-1.67-9.31-4.37-22.67-8.12-40.07Z" style="fill:#466fb5; fill-rule:evenodd;"/><path d="M1928.17,286.43c-1.9,12.25-3.33,25.89-4.28,40.92-1.3-.29-2.57-.57-3.83-.85,1.66-9.31,4.37-22.67,8.1-40.07Z" style="fill:#466fb5; fill-rule:evenodd;"/><path d="M2039.85,437.78c2.88,7.33-2.42,19.17-6.01,21.54-65.47-6.57-106.35-15.77-131.57-28.53-7.52-4.16-20.64-5.96-28.65-11.25-19.34-20.41-4.85-47.18,14.32-45.86,13.42,2.59,19.74,6.42,26.09,13.98,22.95,5.24,69.66,23.77,125.82,50.12Z" style="fill:#1d417f; fill-rule:evenodd;"/><path d="M2109.5,448.72c2.64,17.88-19.68,20.71-65.57,12.92,19.3-6.37,21.85-11.99,7.47-20.95,39.93-7.24,58.16-7.17,58.09,8.04h0Zm-250.19,0c-2.64,17.88,19.67,20.71,65.56,12.92-19.3-6.37-21.85-11.99-7.47-20.95-39.92-7.24-58.15-7.17-58.09,8.04Z" style="fill:#0e2952; fill-rule:evenodd;"/><path d="M2034.69,458.61c3.84,.73,6.93,1.74,9.24,3.02,19.3-6.37,21.85-11.99,7.47-20.95-3.25,.16-6.94-.27-11.07-1.27,1.5,6.74-2.42,16.02-5.65,19.2h0Zm-100.57,0c-3.86,.73-6.94,1.74-9.25,3.02-19.3-6.37-21.85-11.99-7.47-20.95,3.25,.16,6.94-.27,11.07-1.27-1.5,6.74,2.42,16.02,5.66,19.2Z" style="fill:#f9af79; fill-rule:evenodd;"/><path d="M2069.63,362.19c1.58-12.9,1.19-26.25-1.18-40.04-5.95,1.29-12.52,2.73-19.72,4.34-1.25,.28-2.54,.56-3.83,.85,1.33,23.68,1.7,44.01,1.12,61,11.72-9.45,19.59-18.17,23.6-26.15Z" style="fill:#f9af79; fill-rule:evenodd;"/><path d="M1899.17,362.19c-1.58-12.9-1.18-26.25,1.18-40.04,5.95,1.29,12.52,2.73,19.72,4.34,1.25,.28,2.52,.56,3.83,.85-1.33,23.68-1.7,44.01-1.12,61-11.74-9.45-19.6-18.17-23.61-26.15Z" style="fill:#f9af79; fill-rule:evenodd;"/><path d="M2051.73,358.78c-.11-9.24-.44-20.16-1-32.73-.65,.15-1.32,.29-1.99,.45-1.25,.28-2.54,.56-3.83,.85,.82,14.6,1.27,27.93,1.37,39.98,1.07-1.25,2.31-2.7,3.75-4.36,4.06-1.73,8.12-2.58,12.19-2.56-4.68-1.45-8.17-1.99-10.48-1.62h0Zm-134.66,0c.11-9.24,.45-20.16,1.01-32.73,.66,.15,1.32,.29,1.99,.45,1.25,.28,2.52,.56,3.83,.85-.82,14.6-1.29,27.93-1.38,39.98-1.07-1.25-2.31-2.7-3.74-4.36-4.07-1.73-8.13-2.58-12.19-2.56,4.68-1.45,8.17-1.99,10.47-1.62Z" style="fill:#ed7d57; fill-rule:evenodd;"/><path d="M1924.61,334.01h119.6c1.14,0,2.08,.94,2.08,2.08v53.79c-14.28,4.14-34.3,11.55-58.18,21.54h-7.41c-23.87-9.99-43.9-17.41-58.18-21.54v-53.8c0-1.15,.94-2.08,2.09-2.08Z" style="fill:#c4d1eb; fill-rule:evenodd;"/><path d="M1928.09,391.57c13.73,4.32,31.69,11.1,52.61,19.85l.19,.08,1.44-.08h4.17l1.44,.08c21-8.79,39.03-15.59,52.79-19.93v-44.43c-7.85,9.96-23.49,18.19-43.51,23.12,.1,.66,.16,1.32,.16,2.01,0,7.16-5.8,12.96-12.96,12.96-6.41,0-11.74-4.65-12.77-10.77-5.76,.52-11.71,.79-17.8,.79-8.94,0-17.57-.59-25.74-1.68v18Z" style="fill:#9db2d9; fill-rule:evenodd;"/><path d="M1971.9,177.7c8.07,11.22,20.87,21.08,38.4,29.57-4.38,13.14-11,25.96-25.46,28.35-13.86-2.22-21.53-12.24-24.65-26.47,7.44-8.29,11.35-18.78,11.72-31.45Z" style="fill:#f9af79; fill-rule:evenodd;"/><path d="M2024.46,184.82c0-22.13-18.11-40.24-40.24-40.24s-40.23,18.1-40.23,40.24v63.32c6.59-2.29,13.98-4.19,22.17-5.69,.9-1.63,2.01-3.02,3.32-4.18,.98,5.82,5.96,11.16,14.93,16.03,8.97-4.87,13.94-10.2,14.92-16.03,1.31,1.16,2.42,2.55,3.33,4.18,8.04,1.47,15.3,3.33,21.81,5.57v-63.19h0Zm-52.56-7.12c8.07,11.22,20.87,21.08,38.4,29.57-4.38,13.14-11,25.96-25.46,28.35-13.86-2.22-21.53-12.24-24.65-26.47,7.44-8.29,11.35-18.78,11.72-31.45Z" style="fill:#20386f; fill-rule:evenodd;"/><path d="M1999.32,238.27c-1.01-1.58-1.72-4.38-2.12-8.4-3.35,2.88-7.39,4.93-12.37,5.75-5.81-.93-10.54-3.23-14.29-6.65-.13,3.69-.48,6.79-1.06,9.3,.98,5.82,5.96,11.16,14.93,16.03,8.97-4.87,13.94-10.2,14.92-16.03Z" style="fill:#f9af79; fill-rule:evenodd;"/><path d="M1997.6,232.91c-.16-.92-.29-1.94-.4-3.05-3.35,2.88-7.39,4.93-12.37,5.75-5.81-.93-10.54-3.23-14.29-6.65-.05,1.31-.12,2.54-.22,3.71,3.46,2.35,8.33,4.36,14.63,6.01,3.99-1.07,8.2-2.56,12.65-5.78Z" style="fill:#ed7d57; fill-rule:evenodd;"/><path d="M1943.99,219.3h18.17v53.87h-22.6c4.24-17.41,5.88-35.33,4.44-53.87Z" style="fill:#20386f; fill-rule:evenodd;"/><path d="M2006.28,219.3h18.17c-1.25,17.89,1.13,35.87,4.12,53.87h-22.3v-53.87Z" style="fill:#20386f; fill-rule:evenodd;"/><path d="M1984.4,363.88c4.63,0,8.38,3.75,8.38,8.38s-3.75,8.38-8.38,8.38-8.39-3.75-8.39-8.38,3.76-8.38,8.39-8.38Z" style="fill:#9db2d9; fill-rule:evenodd;"/><path d="M1928.96,437.78c-2.89,7.33,2.41,19.17,6.01,21.54,65.47-6.57,106.34-15.77,131.57-28.53,7.51-4.16,20.64-5.96,28.64-11.25,19.35-20.41,4.86-47.18-14.32-45.86-13.41,2.59-19.72,6.42-26.07,13.98-22.96,5.24-69.67,23.77-125.82,50.12Z" style="fill:#1d417f; fill-rule:evenodd;"/><path d="M1980.03,411.14c-35.78,13.94-63.98,19.53-84.56,16.78,2.52,.86,4.85,1.78,6.79,2.86,6.59,3.33,14.24,6.42,23.12,9.28,1-.18,2.03-.4,3.08-.66,.13-.56,.29-1.11,.5-1.64,19.87-9.33,38.56-17.67,55.44-24.8-1.19-.5-2.36-.99-3.53-1.48-.06-.03-.12-.05-.18-.08-.22-.09-.44-.19-.67-.28Z" style="fill:#0e2952; fill-rule:evenodd;"/><path d="M2040.59,440.96c-15.09,4.65-33.58,8.69-56.18,12.19,14.68,2.27,31.09,4.32,49.43,6.16,.27-.18,.56-.42,.85-.7,2.99-2.94,6.58-11.11,5.9-17.66Z" style="fill:#0e2952; fill-rule:evenodd;"/><path d="M1978.19,189.97c-5.78-1.27-15.68,4.94-12.47,5.59,1.04,.21,4-1.57,5.13-1.88,2.27-.62,6.66-.31,7.88-1.8,.51-.61,.19-1.74-.55-1.9Z" style="fill:#20386f; fill-rule:evenodd;"/><path d="M1991,191.98c1.24,1.49,5.61,1.17,7.88,1.8,1.13,.31,4.08,2.07,5.14,1.85,3.21-.65-6.72-6.9-12.47-5.56-.82,.2-1.06,1.31-.55,1.91Z" style="fill:#20386f; fill-rule:evenodd;"/><path d="M1973.02,203.78c-1.67,0-2.98-6.36,1.08-6.36,2.17,0,1.66,6.36-1.08,6.36Z" style="fill:#20386f; fill-rule:evenodd;"/><path d="M1997.86,204.03c1.67,0,2.98-6.36-1.08-6.36-2.16,0-1.67,6.36,1.08,6.36Z" style="fill:#20386f; fill-rule:evenodd;"/><path d="M1982.64,214.14c-.18-.71,1.04-.77,1.79-.94,2.76-.61,2.88,.74,1.6-10.84-.24-2.27-.63-3.48,.18-3.55,.76-.05,.56,.85,.84,3.42,1.39,12.59,1.42,11.04-3.79,12.29-.27,.06-.55-.1-.62-.37Z" style="fill:#ed7d57; fill-rule:evenodd;"/><path d="M1979.22,224.08c-.68-1.25,1.1-.9,12.03-2.07,3.28-.34-6.36,12.4-12.03,2.07Z" style="fill:#ed7d57; fill-rule:evenodd;"/></g><g><path d="M490.28,1003.02c-3.31-11.12-6.68-22.26-18.46-29.98-9.53-6.23-20.39-6.85-30.32-2.81-28.12,11.47-17.41,36.31-36.74,60.53-8.27,10.34-19.96,15.14-26.36,26.15-11.59,19.83-4.79,53.78,21.55,74.32,64.51,50.35,106.81-29.38,108.14-47.05,1-13.14-15.67-74.01-17.8-81.17Z" style="fill:#20386f; fill-rule:evenodd;"/><path d="M465.37,1078.36l-3.08-16.09s9.11,2.18,14.91,11.2c5.8,9.02,15.5,39.43,17.16,40.34,1.66,.91,20-27.33,23.21-31.82,3.96-5.48,5.44-11.83,7.92-16.64,2.49-4.81,11.23-6.43,14.55-5.8,3.3,.59-4.55,14.64-4.55,14.64,0,0-19.88,34.5-26.5,53.44-6.62,18.9-27.33,27.92-30.64,25.25-3.31-2.72-12.98-74.52-12.98-74.52Z" style="fill:#f48d80; fill-rule:evenodd;"/><path d="M468.96,1126.72l25.32-14.41s-11.5-48.51-32-50.04l6.67,64.45Z" style="fill:#466fb5; fill-rule:evenodd;"/><path d="M525.71,1068.02s.82-3.67,3.05-4.4c2.23-.72,6.12-.09,6.36,0,.25,.09,4.55-2.22,4.55-2.22l-3.54,6.62s-6.95,8.16-9.26,5.12c-2.31-3.08-1.16-5.12-1.16-5.12Z" style="fill:#f9af79; fill-rule:evenodd;"/><path d="M540.91,1061.68s2.51,12.78,1.87,15.45c-.63,2.68-2.23,1.23-2.53,.68-1.24-2.4-2.09-10.6-2.09-10.6l2.75-5.53Z" style="fill:#f48d80; fill-rule:evenodd;"/><path d="M535.52,1072.28s1.2,7.93,2.43,8.84c.79,.63,1.81,.27,2.15-1.31,.33-1.64-1.61-11.38-1.61-11.38l-2.97,3.85Z" style="fill:#f48d80; fill-rule:evenodd;"/><path d="M528.21,1094.76l-4.16-2.03,17.67-36.26c2.3,1.13,3.25,3.9,2.14,6.21l-15.65,32.09Z" style="fill:#223f81; fill-rule:evenodd;"/><path d="M363.2,1497.06s-2.15,21.8-7.67,25.79c-5.52,4.03-12.88,18.81-9.2,26.83,1.15,2.49,3.45,3.95,6.07,4.77,7.76,2.4,16.01-1.64,19.31-9.07,1.84-4.13,3.46-9.66,3.79-16.64,.83-17.68,6.35-26.7,6.35-26.7l-18.64-4.98Z" style="fill:#f9af79; fill-rule:evenodd;"/><path d="M448.04,1505.99s1.74,21.98,.33,29.14c-.76,3.81-4.97,11.7-3.03,15.32,1.93,3.58,4.14,4.48,4.14,4.48l50.07,.82c2.73,.04,.94-1.72-1.27-3.31-3.6-2.68-6.5-4.4-18-9.97-.76-.35-3.48-2.08-4.47-2.67-2.5-1.54-5-3.95-7.16-6.3-3.6-4.04-3.91-23.39-3.91-23.39l-16.69-4.12Z" style="fill:#f9af79; fill-rule:evenodd;"/><path d="M487.18,1213.52s6.3,35.72,2.16,59.11c-4.14,23.44-24.01,240.52-24.01,240.52l-22.08,1.27s-4.63-90.7-3.81-103.31c.83-12.6,7.38-33.72,7.38-33.72l-2.19-73.21,27.87-96.19,14.69,5.53Z" style="fill:#20386f; fill-rule:evenodd;"/><path d="M422.26,1206s-17.39,26.11-21.53,47.73c-4.14,21.62,3.04,88.08-4.93,116.41-4.31,15.32-20.65,39.02-23.14,58.84-2.48,19.81-12.23,71.71-12.23,71.71l22.08,4.35,51.3-129.59,40.24-117.22,10.31-60.34-62.11,8.12Z" style="fill:#223f81; fill-rule:evenodd;"/><path d="M436.35,1057.37s-11.93,1.94-20.81,10.65c-19.05,18.63,11.19,90.52,12.84,103.17,1.66,12.59-13.57,42.02-13.57,42.02,0,0,56.9,10.51,72.37,.31,0,0,1.81-101.22,.15-110.24-1.66-8.98-20.19-36.81-23.49-40.39-3.32-3.63-27.5-5.53-27.5-5.53Z" style="fill:#6d96ce; fill-rule:evenodd;"/><path d="M414.81,1076.5c1.47-4.44,6.5-6.62,10.79-4.77,5.88,2.59,14,7.39,17.96,15.64,6.63,13.82,29.81,61.29,36.99,63.09,7.17,1.77,36.44-49.27,36.44-49.27,0,0-.83-9.02,1.66-14.14,2.48-5.08,9.93-10.47,11.03-8.71,1.1,1.81-4.14,6.34-4.14,7.25,0,.86,2.21,1.46,5.24-.31,3.04-1.82,4.69-5.44,4.69-5.44,0,0,4.98,9.02-.26,17.14-5.24,8.11-7.45,11.42-7.45,11.42,0,0-33.95,75.38-46.38,76.24-11.57,.86-78.2-73.03-66.57-108.15Z" style="fill:#f9af79; fill-rule:evenodd;"/><path d="M444.01,1026.63s-.12,.68-.34,1.86c-1.02,5.53-4.98,23.85-7.65,28.88-3.23,6.08,11.05,25.52,24.79,23.16,4.09-.71-3.46-17.85-3.1-19.67,.7-3.49,1.64-8.21,2.6-13.1,.55-2.72,1.1-5.48,1.62-8.11,1.47-7.43,2.67-13.51,2.67-13.51l-20.59,.5Z" style="fill:#f9af79; fill-rule:evenodd;"/><path d="M443.68,1028.49c.21-1.17,.34-1.86,.34-1.86l20.59-.5s-1.2,6.08-2.67,13.51c-.52,2.58-1.06,5.35-1.6,8.06-3.18-.45-6.51-1.99-9.84-4.89-3.63-3.18-6.01-6.99-7.44-11.06,.25-1.32,.46-2.41,.62-3.27Z" style="fill:#ed7d57; fill-rule:evenodd;"/><path d="M456.39,977.73s-8.39,1.13-14.48,9.02c-6.08,7.84-12.64,32.14,2.47,45.33,15.11,13.19,30.04-1.73,32.26-17.59,2.21-15.87,1.76-37.35-20.25-36.76Z" style="fill:#f9af79; fill-rule:evenodd;"/><path d="M481.48,1009.05c-1.8,3.54-4.83,5.44-6.76,4.35-1.93-1.08-2.04-4.85-.23-8.33,1.8-3.49,4.83-5.44,6.76-4.36,1.93,1.13,2.03,4.85,.23,8.34Z" style="fill:#f9af79; fill-rule:evenodd;"/><path d="M458.96,977.37s-12.97,23.07-22.24,24.16c-9.28,1.05-10.49,13.33-10.49,13.33,0,0,3.32-28.29,12.5-33.73,9.18-5.44,20.24-3.76,20.24-3.76Z" style="fill:#20386f; fill-rule:evenodd;"/><path d="M439.75,1007.01c.76,4.13-.76,7.88-3.39,8.39-2.63,.54-5.37-2.31-6.12-6.45-.75-4.07,.77-7.84,3.39-8.38,2.62-.55,5.37,2.35,6.12,6.43Z" style="fill:#f9af79; fill-rule:evenodd;"/><path d="M373.22,1541.47c-12.04,2.23-20.04-4.81-24.21-10.05-3.06,5.93-4.93,13.37-2.68,18.26,1.98,4.31,7.37,5.49,11.93,5.67,4.82,.18,9.33-2.36,11.72-6.53,1.11-1.95,2.27-4.4,3.24-7.35Z" style="fill:#0e2952; fill-rule:evenodd;"/><path d="M475.79,1539.8c-13.25,3.4-23.04,1.08-28.51-1.13-1.41,3.99-3.28,9.02-2.29,11.87,1.21,3.59,2.95,4.36,4.47,4.4,12.1,.32,44.31,.77,53.53,.86,1.3,.05,2.01-1.45,1.17-2.44-2.29-2.72-27.39-12.96-28.38-13.55Z" style="fill:#0e2952; fill-rule:evenodd;"/><path d="M433.4,1142.72l29.82-19.58s-12.42-35.08-26.09-47.51c-13.67-12.42-20.13-9.42-22.99-6.84-7.92,7.16-6.52,24.52,2.49,45.96,9.01,21.44,16.77,27.97,16.77,27.97Z" style="fill:#466fb5; fill-rule:evenodd;"/><path d="M450.29,994.5c-1.34,1.21-5.36,.32-7.54,.6-1.1,.15-4.07,1.38-5.02,1.04-2.89-1.04,7.13-5.43,12.31-3.48,.65,.25,.8,1.34,.25,1.84Z" style="fill:#20386f; fill-rule:evenodd;"/><path d="M462,992.5c5.24-1.79,15.08,3.09,12.15,3.99-.97,.31-3.88-1.08-4.96-1.25-2.17-.38-6.22,.34-7.52-.92-.53-.52-.41-1.58,.33-1.82Z" style="fill:#20386f; fill-rule:evenodd;"/><path d="M444.89,1004.73c-1.57,0-2.8-5.96,1-5.96,2.03,0,1.55,5.96-1,5.96Z" style="fill:#20386f; fill-rule:evenodd;"/><path d="M468.15,1004.97c1.56,0,2.78-5.95-1.01-5.95-2.03,0-1.55,5.95,1.01,5.95Z" style="fill:#20386f; fill-rule:evenodd;"/><path d="M453.9,1014.43c-.15-.68,.96-.72,1.68-.89,2.58-.57,2.69,.7,1.49-10.15-.24-2.12-.59-3.26,.16-3.31,.71-.05,.52,.8,.79,3.21,1.3,11.78,1.33,10.33-3.54,11.49-.25,.06-.51-.09-.58-.35Z" style="fill:#ed7d57; fill-rule:evenodd;"/><path d="M450.94,1022.63c-.39-1.17,.8-.68,11.45,.14,3.07,.22-7.95,10.32-11.45-.14Z" style="fill:#fff; fill-rule:evenodd;"/></g><g><path d="M546.98,264.58l360.36-43.38c8.79-1.06,16.83,5.26,17.89,14.05l24.27,201.58c1.06,8.79-5.26,16.83-14.05,17.89l-360.36,43.38c-8.79,1.06-16.83-5.26-17.89-14.05l-24.27-201.58c-1.06-8.78,5.26-16.83,14.05-17.89Z" style="fill:#d0a382; fill-rule:evenodd;"/><path d="M750.71,348.63l126.49,62.33,70.75,34.86c-2.33,4.72-6.92,8.22-12.51,8.89l-360.36,43.38c-5.59,.67-10.87-1.64-14.26-5.67l60.45-50.66,108.01-90.5c7.95-6.79,12.18-7.1,21.41-2.63Z" style="fill:#a1775a; fill-rule:evenodd;"/><path d="M753.72,373.65l108.09-90.57,62.27-52.18c-2.73-6.43-9.48-10.59-16.74-9.71l-360.36,43.38c-7.25,.87-12.83,6.52-13.95,13.41l72.87,35.9,126.41,62.29c9.33,4.71,13.52,4,21.42-2.52Z" style="fill:#f5d1b5; fill-rule:evenodd;"/></g><g><polygon points="1902.1 558.17 2050.63 558.17 2058.64 580.29 2083.92 583.52 2083.92 827.83 1902.1 827.83 1902.1 558.17" style="fill:#fff; fill-rule:evenodd;"/><path d="M1943.8,613.17c-.97,0-1.75-.78-1.75-1.76s.78-1.75,1.75-1.75h98.42c.97,0,1.76,.78,1.76,1.75s-.79,1.76-1.76,1.76h-98.42Z" style="fill:#c4d2ec; fill-rule:evenodd;"/><path d="M1933.49,641.61c-.97,0-1.75-.79-1.75-1.75s.78-1.76,1.75-1.76h119.04c.96,0,1.75,.79,1.75,1.76s-.79,1.75-1.75,1.75h-119.04Z" style="fill:#c4d2ec; fill-rule:evenodd;"/><path d="M1933.49,659.29c-.97,0-1.75-.79-1.75-1.76s.78-1.76,1.75-1.76h119.04c.96,0,1.75,.79,1.75,1.76s-.79,1.76-1.75,1.76h-119.04Z" style="fill:#c4d2ec; fill-rule:evenodd;"/><path d="M1933.49,676.97c-.97,0-1.75-.79-1.75-1.76s.78-1.75,1.75-1.75h119.04c.96,0,1.75,.79,1.75,1.75s-.79,1.76-1.75,1.76h-119.04Z" style="fill:#c4d2ec; fill-rule:evenodd;"/><path d="M1933.49,694.64c-.97,0-1.75-.78-1.75-1.76s.78-1.76,1.75-1.76h119.04c.96,0,1.75,.79,1.75,1.76s-.79,1.76-1.75,1.76h-119.04Z" style="fill:#c4d2ec; fill-rule:evenodd;"/><path d="M1933.49,712.32c-.97,0-1.75-.78-1.75-1.76s.78-1.76,1.75-1.76h119.04c.96,0,1.75,.79,1.75,1.76s-.79,1.76-1.75,1.76h-119.04Z" style="fill:#c4d2ec; fill-rule:evenodd;"/><path d="M1933.49,730c-.97,0-1.75-.79-1.75-1.76s.78-1.76,1.75-1.76h119.04c.96,0,1.75,.78,1.75,1.76s-.79,1.76-1.75,1.76h-119.04Z" style="fill:#c4d2ec; fill-rule:evenodd;"/><path d="M1933.49,747.68c-.97,0-1.75-.79-1.75-1.76s.78-1.76,1.75-1.76h119.04c.96,0,1.75,.79,1.75,1.76s-.79,1.76-1.75,1.76h-119.04Z" style="fill:#c4d2ec; fill-rule:evenodd;"/><path d="M1933.49,765.35c-.97,0-1.75-.78-1.75-1.75s.78-1.76,1.75-1.76h119.04c.96,0,1.75,.78,1.75,1.76s-.79,1.75-1.75,1.75h-119.04Z" style="fill:#c4d2ec; fill-rule:evenodd;"/><path d="M1933.49,783.03c-.97,0-1.75-.78-1.75-1.75s.78-1.76,1.75-1.76h119.04c.96,0,1.75,.78,1.75,1.76s-.79,1.75-1.75,1.75h-119.04Z" style="fill:#c4d2ec; fill-rule:evenodd;"/></g><path d="M707.77,1288.14c2.5,1.12,3.62,4.08,2.5,6.57-1.13,2.51-4.07,3.62-6.58,2.51l-9.1-4.03c-2.51-1.13-3.63-4.07-2.51-6.58,1.13-2.51,4.07-3.62,6.58-2.51l9.1,4.04h0Zm-36.22-16.31c2.49,1.17,3.55,4.13,2.38,6.62-1.17,2.48-4.14,3.55-6.62,2.38l-9.03-4.19c-2.48-1.17-3.55-4.14-2.38-6.62,1.17-2.48,4.14-3.55,6.62-2.39l9.03,4.2h0Zm-35.89-17.03c2.47,1.21,3.48,4.2,2.26,6.67-1.21,2.46-4.2,3.47-6.66,2.26l-8.06-3.93-.93-.46c-2.45-1.25-3.43-4.24-2.19-6.69,1.24-2.46,4.24-3.44,6.69-2.2l.84,.42,8.06,3.93h0Zm-35.51-17.79c2.44,1.26,3.4,4.27,2.13,6.7-1.26,2.44-4.27,3.4-6.71,2.14l-2.96-1.51-5.92-3.11c-2.43-1.29-3.35-4.3-2.06-6.73,1.29-2.43,4.3-3.35,6.73-2.07l5.83,3.06,2.95,1.51h0Zm-35.02-18.61c2.4,1.34,3.26,4.37,1.92,6.78-1.34,2.39-4.37,3.25-6.77,1.92l-8.71-4.81c-2.4-1.34-3.26-4.38-1.92-6.78,1.34-2.4,4.37-3.26,6.77-1.92l8.72,4.81h0Zm-34.57-19.52c2.37,1.39,3.16,4.44,1.77,6.81-1.39,2.37-4.44,3.17-6.81,1.78l-4.13-2.4-4.5-2.68c-2.35-1.41-3.11-4.48-1.7-6.82,1.42-2.36,4.48-3.11,6.83-1.7l4.4,2.62,4.13,2.4h0Zm-162.06-113.55c2.08,1.8,2.3,4.94,.51,7.02-1.8,2.08-4.94,2.31-7.02,.51l-1.84-1.57-5.72-5.02c-2.05-1.83-2.23-4.98-.4-7.03,1.83-2.05,4.98-2.23,7.03-.4l5.6,4.93,1.84,1.57h0Zm-29.31-26.48c1.96,1.92,1.99,5.07,.06,7.03-1.92,1.96-5.08,1.99-7.04,.06l-7.16-6.91c-1.96-1.93-1.99-5.08-.06-7.04,1.92-1.95,5.08-1.99,7.04-.06l7.15,6.93h0Zm-27.87-28.08c1.86,2.02,1.73,5.17-.29,7.03-2.03,1.86-5.17,1.72-7.03-.3l-4.4-4.71-2.41-2.66c-1.82-2.06-1.64-5.21,.42-7.03,2.06-1.83,5.2-1.64,7.02,.42l2.29,2.53,4.4,4.71h0Zm-26.09-29.59c1.71,2.15,1.35,5.28-.8,6.98-2.15,1.71-5.29,1.35-6.99-.8l-6.26-7.74c-1.71-2.15-1.35-5.28,.8-6.99,2.15-1.71,5.28-1.35,6.99,.8l6.26,7.74h0Zm-24.02-31.38c1.58,2.25,1.04,5.35-1.21,6.94-2.25,1.58-5.36,1.04-6.93-1.21l-1.35-1.88-4.38-6.38c-1.53-2.27-.93-5.37,1.35-6.9,2.28-1.54,5.37-.93,6.91,1.35l4.27,6.21,1.35,1.88h0Zm-21.47-33.02c1.38,2.37,.59,5.42-1.78,6.81-2.37,1.39-5.42,.59-6.81-1.78l-1.3-2.17-3.73-6.54c-1.34-2.4-.47-5.43,1.93-6.77,2.4-1.33,5.43-.47,6.77,1.93l3.63,6.35,1.3,2.17h0Zm-18.53-34.72c1.17,2.48,.11,5.45-2.37,6.62-2.49,1.17-5.46,.11-6.63-2.37l-.35-.73-3.86-8.42c-1.12-2.51,.02-5.45,2.52-6.57,2.51-1.12,5.45,.02,6.57,2.52l3.77,8.21,.35,.73h0Zm-15.02-36.23c.88,2.6-.53,5.43-3.13,6.3-2.6,.88-5.43-.52-6.31-3.13l-2.1-6.01-1.14-3.53c-.81-2.62,.66-5.41,3.28-6.23,2.62-.8,5.41,.66,6.23,3.28l1.07,3.3,2.1,6.01h0Zm-11.14-37.7c.62,2.68-1.05,5.35-3.73,5.97-2.68,.61-5.35-1.05-5.97-3.73l-.33-1.37-1.84-8.47c-.55-2.69,1.19-5.32,3.88-5.88,2.69-.55,5.32,1.19,5.88,3.88l1.79,8.23,.33,1.37h0Zm-6.73-38.59c.28,2.73-1.71,5.18-4.44,5.46-2.73,.28-5.18-1.71-5.46-4.44l-.44-3.85-.55-6.18c-.21-2.74,1.84-5.14,4.57-5.35,2.74-.21,5.14,1.84,5.35,4.58l.53,5.94,.44,3.84h0Zm-2.12-39.11c-.06,2.75-2.34,4.92-5.09,4.86-2.74-.06-4.92-2.34-4.86-5.09l.05-5.43,.16-4.65c.13-2.75,2.46-4.86,5.21-4.73,2.74,.13,4.86,2.46,4.73,5.21l-.16,4.4-.06,5.43h0Zm2.57-39.1c-.39,2.72-2.92,4.61-5.64,4.21-2.72-.4-4.61-2.92-4.21-5.65l.88-6.56,.54-3.41c.46-2.7,3.03-4.53,5.74-4.07,2.71,.46,4.53,3.03,4.07,5.74l-.5,3.17-.88,6.57h0Zm7.12-38.56c-.71,2.66-3.44,4.23-6.1,3.52-2.65-.72-4.23-3.44-3.52-6.1l1.97-7.69,.57-2.04c.77-2.64,3.54-4.15,6.17-3.38,2.64,.77,4.15,3.54,3.38,6.17l-.51,1.83-1.97,7.69h0Zm11.42-37.66c-.94,2.58-3.8,3.91-6.38,2.96-2.58-.94-3.91-3.81-2.97-6.38l.47-1.33,3.01-7.95,.1-.25c1.05-2.54,3.97-3.74,6.5-2.69,2.54,1.06,3.74,3.97,2.69,6.51l-.02,.04-2.93,7.75-.47,1.33h0Zm15.2-36.22c-1.21,2.47-4.19,3.49-6.66,2.28-2.47-1.21-3.49-4.19-2.29-6.65l1.69-3.55,2.75-5.47c1.25-2.44,4.26-3.41,6.7-2.15,2.45,1.25,3.41,4.26,2.15,6.7l-2.66,5.29-1.69,3.56h0Zm18.53-34.69c-1.44,2.34-4.5,3.08-6.85,1.64-2.34-1.44-3.07-4.5-1.64-6.85l3.89-6.47,1.33-2.11c1.48-2.31,4.56-2.99,6.87-1.51,2.31,1.48,2.99,4.56,1.51,6.87l-1.23,1.96-3.89,6.47h0Zm21.48-33.09c-1.6,2.23-4.71,2.75-6.95,1.15-2.23-1.6-2.75-4.71-1.15-6.94l1.96-2.78,3.91-5.36c1.64-2.21,4.75-2.67,6.96-1.03,2.2,1.64,2.66,4.76,1.03,6.96l-3.81,5.22-1.95,2.79h0Zm23.93-31.4c-1.74,2.13-4.88,2.43-7,.69-2.13-1.74-2.43-4.88-.69-7l.1-.12,6-7.19,.38-.43c1.81-2.07,4.96-2.28,7.02-.47,2.07,1.81,2.28,4.96,.47,7.02l-.28,.32-5.9,7.07-.1,.12h0Zm26.02-29.62c-1.9,1.98-5.06,2.05-7.04,.15-1.99-1.9-2.05-5.06-.15-7.04l5.08-5.39,1.83-1.88c1.93-1.95,5.08-1.98,7.04-.05,1.96,1.93,1.98,5.08,.05,7.04l-1.73,1.78-5.08,5.39h0Zm27.87-28.03c-2.01,1.87-5.16,1.76-7.03-.24-1.87-2.01-1.76-5.16,.25-7.04l4.61-4.36,2.7-2.49c2.04-1.84,5.19-1.69,7.03,.34,1.85,2.03,1.69,5.19-.34,7.03l-2.6,2.4-4.61,4.36h0Zm29.42-26.43c-2.11,1.76-5.25,1.49-7.01-.62-1.76-2.11-1.49-5.24,.62-7.01l4.79-4.08,2.87-2.37c2.13-1.74,5.26-1.42,7,.71,1.74,2.13,1.42,5.26-.71,7l-2.77,2.29-4.79,4.07h0Zm30.75-24.88c-2.19,1.65-5.32,1.22-6.97-.97-1.66-2.19-1.23-5.32,.96-6.97l5.75-4.4,2.22-1.66c2.21-1.63,5.33-1.16,6.96,1.05,1.63,2.21,1.16,5.33-1.05,6.96l-2.13,1.59-5.75,4.4h0ZM946.97,171.91c-2.71,.4-5.25-1.48-5.65-4.19-.4-2.72,1.47-5.25,4.19-5.65l2.75-.42,7.14-1.03c2.72-.38,5.24,1.52,5.62,4.24,.38,2.72-1.52,5.24-4.24,5.62l-7.06,1.02-2.74,.42h0Zm39.32-5.37c-2.73,.33-5.21-1.62-5.54-4.34-.33-2.73,1.62-5.21,4.34-5.54l.9-.11,9.03-1.06c2.73-.31,5.2,1.66,5.5,4.39,.31,2.73-1.66,5.19-4.39,5.5l-8.94,1.05-.9,.12h0Zm39.4-4.25c-2.74,.23-5.15-1.8-5.38-4.54-.23-2.74,1.8-5.15,4.54-5.38l9.91-.88c2.74-.23,5.15,1.8,5.38,4.54,.23,2.74-1.8,5.15-4.54,5.38l-9.92,.88h0Zm39.56-3.12c-2.75,.16-5.1-1.94-5.25-4.68-.16-2.75,1.94-5.1,4.68-5.25l9.93-.61c2.74-.16,5.1,1.94,5.25,4.69,.15,2.74-1.94,5.1-4.69,5.25l-9.93,.61h0Zm39.62-1.99c-2.75,.08-5.04-2.08-5.12-4.83-.08-2.75,2.08-5.04,4.83-5.12l9.38-.31,.61-.02c2.75-.05,5.02,2.13,5.07,4.88,.06,2.75-2.13,5.02-4.87,5.08h-.52s-9.38,.33-9.38,.33h0Zm39.66-.85c-2.75,0-4.98-2.22-4.98-4.97,0-2.74,2.22-4.98,4.97-4.98l8.32-.05h1.68c2.75,.03,4.96,2.28,4.94,5.03-.02,2.74-2.27,4.96-5.02,4.93h-1.59s-8.31,.04-8.31,.04h0Zm39.66,.31c-2.74-.08-4.91-2.37-4.83-5.12,.08-2.75,2.37-4.91,5.12-4.83l7.39,.17,2.6,.08c2.75,.1,4.89,2.42,4.79,5.16-.1,2.75-2.41,4.89-5.16,4.79l-2.51-.08-7.39-.17h0Zm39.64,1.47c-2.74-.16-4.84-2.51-4.68-5.25,.15-2.74,2.51-4.84,5.25-4.69l6.6,.34,3.39,.21c2.74,.18,4.81,2.56,4.63,5.3-.18,2.74-2.56,4.81-5.3,4.63l-3.3-.2-6.6-.34h0Zm39.58,2.66c-2.73-.24-4.76-2.65-4.52-5.39,.23-2.73,2.64-4.77,5.38-4.53l5.92,.48,4.05,.38c2.73,.26,4.73,2.7,4.47,5.43-.27,2.73-2.7,4.74-5.43,4.47l-3.95-.36-5.92-.48h0Zm195.57,31.48c-2.67-.66-4.3-3.36-3.63-6.03,.66-2.67,3.36-4.29,6.03-3.63l4.16,1.01,5.55,1.41c2.65,.69,4.26,3.41,3.57,6.07-.69,2.66-3.41,4.25-6.07,3.57l-5.45-1.38-4.16-1h0Zm38.35,10.04c-2.64-.75-4.18-3.5-3.43-6.15,.76-2.64,3.5-4.18,6.15-3.43l4.12,1.15,5.51,1.6c2.63,.78,4.14,3.55,3.36,6.18-.78,2.64-3.55,4.14-6.18,3.36l-5.4-1.56-4.12-1.14h0Zm37.99,11.31c-2.61-.84-4.05-3.64-3.21-6.26,.84-2.62,3.64-4.06,6.25-3.22l4.2,1.32,5.33,1.74c2.6,.87,4.02,3.69,3.15,6.29-.87,2.6-3.69,4.02-6.3,3.15l-5.22-1.7-4.2-1.32h0Zm37.58,12.6c-2.59-.93-3.93-3.78-3.01-6.37,.93-2.59,3.79-3.93,6.37-3.01l4.4,1.55,5.02,1.84c2.58,.96,3.88,3.83,2.93,6.4-.96,2.58-3.83,3.89-6.41,2.93l-4.91-1.8-4.4-1.55h0Zm37.12,13.89c-2.55-1.02-3.79-3.91-2.77-6.47,1.01-2.55,3.91-3.79,6.46-2.77l4.73,1.85,4.57,1.86c2.54,1.05,3.75,3.96,2.7,6.5-1.05,2.54-3.96,3.75-6.5,2.7l-4.47-1.82-4.72-1.85h0Zm36.61,15.18c-2.52-1.11-3.65-4.05-2.54-6.56,1.1-2.51,4.04-3.65,6.56-2.54l5.18,2.25,3.99,1.79c2.49,1.14,3.6,4.09,2.46,6.59-1.14,2.5-4.1,3.6-6.59,2.46l-3.87-1.74-5.18-2.25h0Zm36.04,16.47c-2.48-1.2-3.5-4.18-2.3-6.65,1.2-2.47,4.18-3.5,6.66-2.3l5.77,2.77,3.23,1.6c2.46,1.23,3.46,4.22,2.23,6.68-1.23,2.46-4.22,3.45-6.68,2.22l-3.13-1.55-5.77-2.77h0Zm35.42,17.76c-2.42-1.29-3.34-4.31-2.05-6.73,1.29-2.43,4.31-3.34,6.74-2.05l6.53,3.42,2.32,1.26c2.4,1.32,3.29,4.35,1.97,6.75-1.33,2.41-4.36,3.29-6.76,1.97l-2.21-1.2-6.53-3.43h0Zm34.75,19.03c-2.37-1.38-3.17-4.43-1.79-6.8,1.38-2.37,4.43-3.17,6.8-1.79l7.45,4.27,1.23,.73c2.36,1.41,3.12,4.47,1.7,6.82-1.41,2.36-4.47,3.12-6.82,1.71l-1.12-.66-7.45-4.28h0Zm34.02,20.29c-2.32-1.48-3.01-4.55-1.53-6.87,1.47-2.32,4.55-3.01,6.86-1.54l8.44,5.28c2.32,1.47,3.01,4.55,1.54,6.87-1.47,2.32-4.55,3.01-6.87,1.54l-8.44-5.28h0Zm33.26,21.53c-2.26-1.56-2.83-4.66-1.27-6.92,1.56-2.26,4.66-2.83,6.93-1.27l8.23,5.6c2.26,1.56,2.82,4.66,1.26,6.92-1.56,2.26-4.66,2.83-6.92,1.27l-8.23-5.61h0Zm32.44,22.75c-2.2-1.65-2.64-4.77-1-6.97,1.65-2.2,4.78-2.64,6.97-.99l8,5.92c2.2,1.65,2.64,4.77,1,6.96-1.65,2.2-4.77,2.65-6.97,1l-8-5.92h0Zm298.26,356.36c.18-.08,.37-.16,.56-.22,2.6-.86,5.43,.56,6.29,3.17l.42,1.25,1.44,4.46,1.2,3.87c.8,2.62-.68,5.41-3.3,6.21-2.63,.8-5.42-.68-6.22-3.3l-.39-1.24v-14.2h0Zm8.09,43.91c-.6-2.68,1.08-5.35,3.75-5.96,2.68-.61,5.35,1.07,5.96,3.75l.58,2.47,.97,4.41,.62,2.94c.55,2.69-1.18,5.33-3.87,5.88-2.69,.55-5.32-1.18-5.88-3.87l-.6-2.84-.95-4.31-.58-2.47h0Zm7.09,38.67c-.34-2.73,1.59-5.22,4.31-5.57,2.73-.34,5.22,1.59,5.56,4.31l.31,2.29,.53,4.34,.37,3.36c.28,2.73-1.7,5.18-4.44,5.46-2.73,.29-5.18-1.7-5.47-4.43l-.35-3.24-.51-4.24-.31-2.28h0Zm3.18,39.17c-.08-2.75,2.09-5.04,4.84-5.11,2.75-.08,5.03,2.09,5.11,4.84l.03,.98,.08,4.28,.05,4.27v.59c-.02,2.75-2.27,4.96-5.01,4.94-2.75-.02-4.95-2.27-4.94-5.02v-.48l-.05-4.16-.08-4.16-.03-.97h0Zm-.92,39.23c.23-2.74,2.64-4.77,5.38-4.54,2.74,.22,4.77,2.64,4.54,5.37l-.24,3.02-.37,4.19-.29,2.82c-.29,2.72-2.75,4.71-5.47,4.42-2.73-.29-4.72-2.75-4.43-5.48l.28-2.7,.37-4.08,.23-3.01h0Zm-5.05,38.97c.5-2.7,3.09-4.48,5.79-3.99,2.7,.5,4.48,3.09,3.99,5.8l-.08,.43-.78,4.1-.83,4.09-.27,1.31c-.59,2.68-3.25,4.38-5.93,3.79-2.68-.58-4.38-3.23-3.79-5.92l.26-1.2,.8-3.99,.75-4,.08-.42h0Zm-9.08,38.2c.78-2.63,3.55-4.13,6.19-3.35,2.63,.79,4.13,3.55,3.34,6.19l-.51,1.74-1.21,4-1.22,3.87c-.84,2.62-3.64,4.07-6.26,3.23-2.62-.84-4.06-3.65-3.21-6.27l1.19-3.78,1.17-3.9,.51-1.74h0Zm-12.88,37.12c1.04-2.54,3.95-3.75,6.49-2.71,2.55,1.05,3.75,3.96,2.71,6.5l-1.27,3.12-1.62,3.88-.98,2.28c-1.09,2.51-4.03,3.67-6.54,2.57-2.52-1.1-3.68-4.04-2.58-6.55l.94-2.19,1.58-3.79,1.27-3.12h0Zm-16.4,35.79c1.27-2.44,4.27-3.4,6.71-2.14,2.44,1.27,3.39,4.28,2.13,6.71l-.53,1.04-1.98,3.78-2.02,3.75-.19,.35c-1.33,2.4-4.37,3.27-6.76,1.94-2.41-1.33-3.28-4.36-1.95-6.76l.14-.27,1.98-3.68,1.93-3.69,.53-1.04h0Zm-19.5,34.18c1.48-2.31,4.55-3,6.86-1.52,2.32,1.48,3,4.56,1.52,6.87l-2.03,3.22-2.35,3.65-1.04,1.58c-1.53,2.29-4.61,2.91-6.9,1.39-2.29-1.52-2.92-4.61-1.39-6.9l1-1.52,2.3-3.56,2.04-3.21h0Zm-22.3,32.51c1.66-2.19,4.78-2.64,6.98-.98,2.19,1.65,2.64,4.77,.98,6.97l-1.75,2.35-2.67,3.51-1.64,2.12c-1.69,2.17-4.82,2.56-6.99,.88-2.16-1.69-2.56-4.81-.87-6.98l1.59-2.07,2.62-3.45,1.75-2.36h0Zm-24.68,30.77c1.8-2.07,4.94-2.28,7.02-.48,2.07,1.81,2.29,4.95,.48,7.03l-1.86,2.16-2.98,3.39-1.76,1.98c-1.84,2.05-4.98,2.21-7.03,.38-2.05-1.83-2.21-4.98-.38-7.02l1.72-1.93,2.93-3.33,1.87-2.17h0Zm-26.77,29.01c1.95-1.95,5.1-1.95,7.04,0,1.95,1.94,1.95,5.09,.02,7.03l-2.59,2.62-3.26,3.25-1.25,1.22c-1.97,1.92-5.12,1.88-7.03-.09-1.92-1.97-1.88-5.12,.09-7.03l1.19-1.17,3.21-3.2,2.59-2.62h0Zm-28.59,27.29c2.05-1.83,5.2-1.66,7.03,.39,1.83,2.04,1.66,5.19-.39,7.02l-.56,.51-3.5,3.13-3.43,3.01c-2.07,1.81-5.22,1.59-7.02-.47-1.81-2.07-1.59-5.22,.47-7.03l3.38-2.97,3.46-3.08,.55-.51h0Zm-30.12,25.58c2.15-1.71,5.28-1.35,6.99,.8,1.7,2.15,1.35,5.28-.8,6.99l-2.6,2.08-3.76,2.97-1.48,1.16c-2.17,1.68-5.3,1.29-6.98-.88-1.68-2.18-1.29-5.3,.88-6.98l1.43-1.12,3.72-2.94,2.6-2.08h0Zm-31.49,23.95c2.23-1.6,5.34-1.09,6.94,1.14,1.6,2.23,1.09,5.34-1.14,6.94l-1.63,1.17-3.99,2.84-2.55,1.79c-2.25,1.57-5.35,1.02-6.93-1.23-1.57-2.25-1.02-5.35,1.23-6.93l2.5-1.75,3.93-2.81,1.63-1.18h0Zm-32.65,22.36c2.3-1.5,5.38-.84,6.88,1.47,1.5,2.31,.84,5.38-1.47,6.88l-1.21,.78-4.19,2.7-3.04,1.93c-2.31,1.46-5.39,.77-6.86-1.55-1.46-2.32-.77-5.4,1.56-6.86l2.97-1.9,4.15-2.67,1.21-.78h0Zm-33.68,20.82c2.38-1.39,5.43-.59,6.82,1.79,1.38,2.36,.59,5.42-1.79,6.81l-1.38,.81-4.38,2.55-2.89,1.66c-2.39,1.36-5.43,.53-6.79-1.86-1.36-2.39-.53-5.43,1.86-6.79l2.84-1.62,4.33-2.52,1.38-.82h0Zm-34.54,19.33c2.43-1.28,5.43-.35,6.72,2.07,1.29,2.43,.35,5.44-2.07,6.73l-2.19,1.17-4.57,2.4-2.08,1.08c-2.44,1.26-5.44,.31-6.71-2.14-1.25-2.44-.29-5.45,2.15-6.7l2.05-1.06,4.52-2.38,2.2-1.17h0Zm-35.33,17.9c2.48-1.18,5.45-.13,6.64,2.35,1.17,2.48,.13,5.46-2.35,6.64l-3.67,1.75-4.73,2.25-.63,.29c-2.49,1.16-5.45,.08-6.61-2.41-1.16-2.49-.07-5.46,2.42-6.61l.58-.27,4.69-2.23,3.66-1.75h0Zm-36.03,16.51c2.52-1.09,5.45,.06,6.55,2.58,1.09,2.52-.06,5.46-2.59,6.55l-.92,.4-4.89,2.11-3.39,1.44c-2.52,1.07-5.45-.11-6.51-2.64-1.08-2.53,.11-5.45,2.64-6.53l3.34-1.42,4.83-2.08,.92-.4h0Zm-36.61,15.14c2.56-1,5.45,.27,6.44,2.83,1,2.56-.27,5.45-2.84,6.45l-3.52,1.37-5.03,1.94-.77,.3c-2.57,.97-5.45-.33-6.41-2.9-.96-2.56,.33-5.44,2.9-6.41l.73-.27,4.98-1.92,3.52-1.38Z" style="fill:#0e2952; fill-rule:evenodd;"/><polygon points="703.22 1306.11 726.4 1305.94 714.66 1285.95 702.92 1265.96 691.48 1286.12 680.03 1306.28 703.22 1306.11" style="fill:#0e2952; fill-rule:evenodd;"/><polygon points="936.36 168.47 931.74 149.56 917.67 163.02 903.61 176.47 922.29 181.92 940.98 187.37 936.36 168.47" style="fill:#0e2952; fill-rule:evenodd;"/><polygon points="2162.65 734.06 2149.05 720.13 2143.78 738.87 2138.52 757.6 2157.37 752.79 2176.23 747.98 2162.65 734.06" style="fill:#0e2952; fill-rule:evenodd;"/><path d="M893.11,267.8l203.81-7.41c4.97-.19,9.18,3.73,9.36,8.7l4.14,114c.19,4.97-3.73,9.18-8.7,9.36l-203.81,7.41c-4.97,.18-9.18-3.74-9.36-8.7l-4.15-114c-.18-4.97,3.74-9.18,8.71-9.36Z" style="fill:#9db2d9; fill-rule:evenodd;"/><path d="M1003.25,324.41l67.91,40.82,37.99,22.84c-1.53,2.53-4.26,4.28-7.42,4.39l-203.81,7.41c-3.16,.12-6.01-1.43-7.72-3.84l36.23-25.54,64.71-45.62c4.77-3.43,7.15-3.4,12.11-.47Z" style="fill:#8fa3cf; fill-rule:evenodd;"/><path d="M1003.76,338.56l64.76-45.65,37.31-26.3c-1.23-3.73-4.81-6.37-8.92-6.22l-203.81,7.41c-4.1,.15-7.49,3.05-8.44,6.86l39.12,23.52,67.86,40.79c5,3.07,7.38,2.87,12.11-.41Z" style="fill:#c4d1eb; fill-rule:evenodd;"/></svg>