<?xml version="1.0" encoding="UTF-8"?><svg id="a" xmlns="http://www.w3.org/2000/svg" viewBox="0 0 2061.85 1471.02"><g><path d="M1030.92,1380.73c239.8,0,460.48,3.58,635.61,9.59,428.58-244.97,280.17-722.46,126.29-992.56C1578.67,21.87,1072.6-113.24,863.28,186.68,579.16,593.77,305.08,451.71,157.08,760.87c-148,309.17,76.76,605.56,238.23,629.45,175.13-6.01,395.81-9.59,635.61-9.59h0ZM655.4,338.31c-109.7,83.49-291.14,148.19-351.39,59.43-45.02-66.31,10.43-190.73,119.03-285.07C531.57,18.4,676.97-38.66,756.22,30.75c94.05,82.37-16.33,243.26-100.81,307.56Z" style="fill:#e9eef8; fill-rule:evenodd;"/><ellipse cx="1030.92" cy="1425.87" rx="1030.92" ry="45.15" style="fill:#d2deec;"/><path d="M1363.37,134.38c257.48,57.37,421.33,294.15,437.38,408.48,6.59,46.91-5.62-62.87-136.97-162.83-117.39-89.33-208.78-105.88-348.43-116.68-98.69-7.63-202.04-19.76-194.69-78.62,5.79-46.49,76.47-87.37,242.7-50.34h0ZM690.1,38.6c44.33,2.67,71.31,39.06,73.17,81.04,.79,17.86-13.23-28.83-62.37-35.33-30.48-4.03-35.06,4.95-45.98-7.63-10.92-12.58-.55-40.22,35.19-38.08Z" style="fill:#fff; fill-rule:evenodd;"/><path d="M366.84,1276.68c-11.76-14.72-28.3-26.88-33.16-45.07-5.73-21.49,6.89-44.09,3.76-66.11-3.92-27.69-30.61-45.66-45.09-69.6-14.18-23.45-7.54-31.33-8.83-58.7-1.95-41.24-35.77-93.3-80.84-79.35-45.76,14.2-38.29,56.73-30.23,88.74,5.74,22.79,1.99,26.07-3.58,48.9-6.73,27.58-28.45,54.24-19.37,81.13,5.61,16.63,21.92,27.86,27.82,44.39,6.69,18.74-1.41,39.06-4.52,58.71-6.57,41.36,2.85,75.77,32.91,109.93,3.22,3.08,6.59,5.92,10.07,8.57,42.1-2.38,89.47-4.57,141.4-6.54l.38-.41c27.5-30.02,35.71-81.55,9.29-114.6Z" style="fill:#d2deec; fill-rule:evenodd;"/><path d="M223.46,995.1c-.71-1.86-2.81-2.79-4.67-2.09-1.86,.71-2.8,2.8-2.09,4.67,3.57,9.35,6.58,19.14,9.16,29.33-1.04-.94-2.11-1.85-3.22-2.74-4.91-3.94-10.48-7.39-16.71-10.34-1.81-.85-3.96-.08-4.81,1.73-.85,1.8-.07,3.95,1.74,4.8,5.73,2.71,10.82,5.87,15.28,9.45,4.22,3.39,7.89,7.19,11.01,11.39,4.63,22.07,7.65,45.8,10.37,70.83-4.19-6.52-8.66-12.36-13.42-17.52-8.26-8.98-17.4-15.96-27.42-20.92-1.79-.88-3.95-.16-4.84,1.63-.88,1.78-.15,3.95,1.63,4.83,9.18,4.55,17.63,11.02,25.31,19.36,7.64,8.3,14.51,18.46,20.62,30.46l.7,6.79c1.54,14.91,3.12,30.2,4.98,45.82,.01,.15,.03,.3,.06,.45,1.95,16.33,4.22,32.99,7.1,49.95-7.81-12.07-16.22-22.73-25.22-32-13.2-13.58-27.66-24.16-43.41-31.75-1.8-.86-3.96-.1-4.83,1.69-.86,1.8-.1,3.96,1.69,4.83,14.98,7.21,28.76,17.3,41.36,30.26,12.56,12.93,23.95,28.73,34.16,47.39,4.45,22.44,10.12,45.32,17.64,68.45h0s.04,.09,.04,.09h0c3.69,11.34,7.84,22.75,12.49,34.19-10.94-9.4-22.56-17.51-34.84-24.35-17.12-9.54-35.52-16.58-55.17-21.14-1.94-.45-3.89,.76-4.35,2.71-.45,1.94,.76,3.9,2.71,4.35,19.03,4.41,36.81,11.21,53.29,20.38,16.32,9.09,31.44,20.53,45.34,34.33,3.21,7.11,6.63,14.24,10.29,21.38l7.96-.34c-12.81-24.6-22.81-49.15-30.73-73.42-1.36-17.64,.73-35.28,6.27-52.89,5.62-17.87,14.79-35.78,27.5-53.7,1.15-1.63,.77-3.89-.86-5.04-1.63-1.15-3.87-.77-5.03,.86-13.14,18.53-22.64,37.1-28.49,55.71-3.32,10.56-5.46,21.13-6.43,31.68-10.85-39.17-16.86-77.46-21.26-114.01,4.25-15.48,8.99-28.58,14.22-39.31,5.21-10.67,10.87-18.9,16.97-24.67,1.45-1.37,1.52-3.65,.15-5.11-1.36-1.44-3.66-1.51-5.11-.14-6.76,6.4-12.93,15.32-18.52,26.75-3.47,7.12-6.74,15.25-9.78,24.38-1.06-9.64-2.04-19.17-3.01-28.53l-.75-7.29c0-.14-.01-.27-.04-.4-5.15-49.65-10.33-94.84-25.02-133.23Z" style="fill:#fff; fill-rule:evenodd;"/><path d="M245.79,1296.09c-12.56-6.77-27.68-10.35-36.45-21.58-10.36-13.26-8.27-32.75-16.97-47.16-10.94-18.14-34.85-22.73-52.03-35.12-16.82-12.13-14.53-19.6-23.54-38.27-13.58-28.15-52.56-54.4-79.82-31.32-27.66,23.44-9.86,50.86,5.23,70.77,10.75,14.17,9.1,17.57,11.99,35.13,3.47,21.2-3.75,46.2,10.54,62.25,8.83,9.92,23.53,12.91,32.53,22.69,10.21,11.07,10.59,27.62,14.24,42.23,4.84,19.39,13.3,34.98,26.67,47.58,36.06-2.73,78.46-5.28,126.3-7.6,3.67-5.24,6.65-10.96,8.79-17.01,10.27-29.07,.71-67.39-27.48-82.58Z" style="fill:#c4def3; fill-rule:evenodd;"/><path d="M62.49,1142.43c-1.05-1.09-2.78-1.12-3.87-.07-1.09,1.05-1.12,2.79-.07,3.87,5.26,5.46,10.25,11.38,15.07,17.71-1-.35-2.01-.66-3.05-.96-4.59-1.29-9.5-2.04-14.71-2.25-1.51-.06-2.79,1.12-2.84,2.63-.06,1.51,1.12,2.78,2.63,2.84,4.79,.19,9.27,.88,13.45,2.04,3.95,1.12,7.63,2.68,11.05,4.68,9.76,14,18.9,29.64,28.2,46.26-4.84-3.3-9.69-6.04-14.54-8.23-8.41-3.81-16.85-5.96-25.29-6.45-1.51-.09-2.8,1.06-2.89,2.57-.09,1.5,1.06,2.8,2.57,2.88,7.75,.45,15.54,2.45,23.36,5.99,7.78,3.52,15.58,8.56,23.39,15.11l2.5,4.52c5.49,9.94,11.13,20.12,17.05,30.45,.05,.1,.11,.2,.18,.29,6.19,10.79,12.72,21.73,19.74,32.68-9.02-6.09-18.03-11.02-27.04-14.81-13.22-5.56-26.44-8.64-39.64-9.26-1.52-.07-2.79,1.1-2.86,2.61-.07,1.51,1.09,2.79,2.6,2.86,12.57,.58,25.16,3.53,37.78,8.83,12.58,5.29,25.19,12.92,37.83,22.89,9.75,14.33,20.48,28.58,32.57,42.45h0s.04,.06,.04,.06h0c5.93,6.81,12.2,13.52,18.83,20.11-10.4-3.3-20.9-5.52-31.49-6.64-14.75-1.56-29.65-1.02-44.69,1.63-1.5,.26-2.49,1.69-2.23,3.17,.26,1.49,1.69,2.48,3.18,2.22,14.56-2.57,28.95-3.1,43.16-1.59,14.06,1.5,27.98,4.99,41.75,10.48,4.75,4.38,9.69,8.7,14.82,12.94l8.16-.42c-17.9-14.3-33.44-29.55-47.2-45.31-6.17-11.88-9.94-24.78-11.3-38.7-1.39-14.12-.31-29.31,3.24-45.56,.33-1.47-.61-2.93-2.09-3.25-1.47-.32-2.93,.61-3.25,2.09-3.66,16.81-4.78,32.56-3.34,47.25,.82,8.35,2.46,16.33,4.91,23.98-19.16-24.07-34.69-48.96-48.59-73.12-1.63-12.05-2.2-22.58-1.74-31.6,.47-8.97,1.97-16.39,4.51-22.21,.61-1.39-.03-3-1.41-3.6-1.39-.6-3,.03-3.6,1.42-2.82,6.46-4.47,14.5-4.98,24.13-.31,5.98-.17,12.61,.41,19.88-3.6-6.41-7.11-12.75-10.55-18.98l-2.68-4.86c-.04-.09-.09-.17-.15-.26-18.3-33.06-35.3-63-56.9-85.39Z" style="fill:#fff; fill-rule:evenodd;"/><path d="M1649.5,1262.74c12.83-16.07,30.88-29.34,36.18-49.2,6.25-23.44-7.52-48.11-4.11-72.12,4.29-30.24,33.41-49.83,49.21-75.96,15.47-25.59,8.21-34.19,9.63-64.06,2.12-45.01,39.05-101.82,88.22-86.58,49.93,15.49,41.78,61.91,32.99,96.83-6.27,24.88-2.17,28.45,3.9,53.36,7.35,30.1,31.05,59.18,21.15,88.54-6.13,18.15-23.93,30.41-30.37,48.46-7.3,20.44,1.55,42.62,4.95,64.05,7.16,45.15-3.12,82.7-35.92,119.98-3.98,3.77-8.11,7.24-12.43,10.42-45.36-2.31-95.99-4.41-151.03-6.28-.77-.78-1.51-1.57-2.25-2.37-30.01-32.77-38.97-88.99-10.13-125.06Z" style="fill:#d2deec; fill-rule:evenodd;"/><path d="M1805.96,955.46c.77-2.04,3.06-3.06,5.09-2.28,2.04,.77,3.06,3.06,2.28,5.09-3.9,10.2-7.18,20.88-9.99,31.99,1.13-1.01,2.3-2.01,3.51-2.98,5.35-4.3,11.44-8.07,18.24-11.29,1.97-.93,4.32-.08,5.25,1.89,.93,1.97,.09,4.32-1.88,5.25-6.25,2.96-11.81,6.39-16.68,10.3-4.61,3.7-8.62,7.85-12.02,12.44-5.04,24.08-8.34,49.98-11.31,77.28,4.57-7.11,9.45-13.48,14.64-19.11,9.01-9.81,18.98-17.42,29.93-22.84,1.95-.97,4.3-.17,5.27,1.78,.96,1.95,.17,4.31-1.78,5.27-10.03,4.97-19.24,12.02-27.62,21.13-8.33,9.05-15.83,20.14-22.5,33.24l-.77,7.41c-1.68,16.27-3.4,32.96-5.44,50,0,.17-.03,.33-.06,.5-2.14,17.81-4.62,36-7.76,54.5,8.54-13.16,17.7-24.8,27.53-34.92,14.4-14.82,30.2-26.37,47.37-34.64,1.96-.95,4.33-.12,5.27,1.84,.94,1.97,.12,4.33-1.85,5.27-16.34,7.88-31.39,18.88-45.13,33.03-13.71,14.11-26.13,31.36-37.27,51.7-4.86,24.51-11.04,49.46-19.25,74.7h0s-.04,.1-.04,.1h0c-4.03,12.39-8.55,24.83-13.63,37.31,11.94-10.24,24.62-19.1,38.03-26.57,18.68-10.4,38.75-18.09,60.2-23.05,2.13-.5,4.25,.82,4.74,2.95,.5,2.12-.82,4.25-2.96,4.74-20.77,4.81-40.15,12.23-58.15,22.25-17.81,9.92-34.3,22.4-49.48,37.46-3.74,8.3-7.75,16.6-12.04,24.94l-8.71-.34c14.39-27.39,25.56-54.72,34.38-81.75,1.48-19.25-.79-38.49-6.84-57.72-6.13-19.5-16.13-39.04-30.01-58.6-1.25-1.77-.84-4.24,.93-5.49,1.77-1.26,4.24-.85,5.49,.93,14.34,20.23,24.71,40.5,31.09,60.79,3.63,11.53,5.97,23.05,7.02,34.58,11.84-42.74,18.41-84.53,23.19-124.4-4.63-16.9-9.8-31.21-15.51-42.91-5.68-11.64-11.86-20.62-18.52-26.92-1.58-1.5-1.66-3.99-.16-5.57,1.49-1.58,3.98-1.65,5.57-.16,7.38,6.97,14.12,16.72,20.22,29.2,3.79,7.77,7.35,16.63,10.67,26.61,1.16-10.53,2.23-20.92,3.28-31.13l.82-7.95c0-.15,.02-.29,.04-.44,5.62-54.19,11.28-103.5,27.3-145.39Z" style="fill:#fff; fill-rule:evenodd;"/><path d="M1781.59,1283.9c13.69-7.38,30.2-11.27,39.78-23.54,11.29-14.47,9.02-35.74,18.51-51.46,11.94-19.79,38.03-24.81,56.79-38.33,18.36-13.23,15.85-21.38,25.69-41.76,14.81-30.72,57.36-59.36,87.11-34.18,30.19,25.59,10.75,55.5-5.71,77.22-11.74,15.47-9.94,19.17-13.09,38.33-3.8,23.14,4.09,50.43-11.5,67.94-9.64,10.83-25.67,14.09-35.5,24.75-11.15,12.08-11.56,30.14-15.54,46.09-5.37,21.46-14.78,38.66-29.74,52.51-39.38-2.68-85.07-5.16-136.14-7.41-4.49-6.13-8.11-12.87-10.64-20.03-11.21-31.72-.78-73.54,29.99-90.12Z" style="fill:#c4def3; fill-rule:evenodd;"/><path d="M1981.62,1116.22c1.14-1.19,3.03-1.22,4.22-.07,1.18,1.15,1.22,3.04,.07,4.22-5.74,5.95-11.18,12.42-16.44,19.33,1.09-.38,2.2-.72,3.33-1.04,5.01-1.41,10.36-2.23,16.06-2.45,1.64-.07,3.03,1.22,3.09,2.87,.06,1.64-1.23,3.03-2.87,3.1-5.23,.21-10.13,.95-14.68,2.23-4.3,1.21-8.32,2.91-12.05,5.09-10.65,15.28-20.62,32.35-30.77,50.49,5.29-3.6,10.57-6.59,15.86-8.99,9.18-4.15,18.39-6.49,27.61-7.03,1.64-.09,3.06,1.17,3.16,2.8,.09,1.65-1.17,3.06-2.81,3.15-8.46,.49-16.96,2.67-25.5,6.54-8.49,3.84-17,9.34-25.52,16.48l-2.73,4.93c-5.98,10.84-12.14,21.96-18.6,33.22-.06,.11-.12,.23-.19,.33-6.76,11.78-13.88,23.71-21.54,35.66,9.84-6.64,19.68-12.02,29.52-16.17,14.42-6.06,28.85-9.43,43.26-10.1,1.65-.07,3.04,1.2,3.12,2.85,.07,1.65-1.2,3.05-2.85,3.12-13.72,.64-27.45,3.86-41.23,9.65-13.73,5.76-27.49,14.09-41.28,24.97-10.64,15.63-22.35,31.17-35.54,46.33h0l-.06,.06h0c-6.48,7.43-13.31,14.76-20.55,21.95,11.34-3.6,22.81-6.02,34.36-7.25,16.1-1.71,32.36-1.12,48.77,1.77,1.63,.29,2.71,1.84,2.42,3.46-.28,1.63-1.83,2.71-3.46,2.44-15.9-2.81-31.6-3.39-47.1-1.74-15.34,1.63-30.53,5.44-45.57,11.43-5.65,5.21-11.52,10.32-17.66,15.36l-9-.42c20.2-15.97,37.67-33.06,53.08-50.72,6.74-12.96,10.85-27.05,12.34-42.23,1.51-15.4,.33-31.97-3.54-49.71-.35-1.6,.66-3.2,2.28-3.55,1.6-.34,3.2,.66,3.55,2.28,4,18.34,5.21,35.53,3.64,51.56-.89,9.11-2.67,17.83-5.35,26.16,20.91-26.26,37.86-53.43,53.02-79.78,1.78-13.15,2.42-24.64,1.9-34.48-.51-9.79-2.15-17.87-4.92-24.24-.66-1.5,.03-3.27,1.54-3.92,1.5-.66,3.27,.03,3.93,1.53,3.07,7.05,4.88,15.83,5.43,26.34,.33,6.53,.19,13.76-.45,21.7,3.93-7,7.75-13.92,11.51-20.72l2.93-5.3c.05-.1,.1-.2,.16-.29,19.97-36.08,38.52-68.75,62.09-93.19Z" style="fill:#fff; fill-rule:evenodd;"/><path d="M956.07,299.41c-3.69,50.64-11.16,57.63-59.44,61.53,48.28,3.9,55.75,10.89,59.44,61.53,3.68-50.64,11.15-57.63,59.44-61.53-48.28-3.9-55.75-10.88-59.44-61.53h0Zm196.27,133.56c-1.97,27.04-5.96,30.77-31.74,32.85,25.78,2.08,29.77,5.81,31.74,32.85,1.97-27.04,5.95-30.77,31.74-32.85-25.78-2.08-29.77-5.81-31.74-32.85h0Zm-85.96-208.08c-1.99,27.38-6.03,31.16-32.14,33.27,26.1,2.11,30.15,5.89,32.14,33.27,2-27.38,6.03-31.16,32.14-33.27-26.11-2.11-30.15-5.89-32.14-33.27Z" style="fill:#fff; fill-rule:evenodd;"/><path d="M884.89,1129.68c2.99,41.03,9.05,46.69,48.16,49.85-39.11,3.16-45.17,8.82-48.16,49.84-2.98-41.02-9.03-46.68-48.15-49.84,39.12-3.16,45.17-8.82,48.15-49.85h0Zm-158.99,108.21c1.59,21.9,4.82,24.92,25.7,26.61-20.88,1.68-24.11,4.71-25.7,26.61-1.6-21.9-4.83-24.93-25.72-26.61,20.89-1.69,24.12-4.71,25.72-26.61h0Zm69.63-168.59c1.61,22.19,4.89,25.25,26.04,26.96-21.15,1.71-24.43,4.77-26.04,26.96-1.61-22.19-4.89-25.24-26.04-26.96,21.15-1.71,24.43-4.76,26.04-26.96Z" style="fill:#fff; fill-rule:evenodd;"/><path d="M1509.77,1028.55c-2.29,31.42-6.92,35.75-36.87,38.17,29.95,2.42,34.58,6.74,36.87,38.16,2.28-31.41,6.92-35.74,36.86-38.16-29.94-2.42-34.58-6.76-36.86-38.17h0Zm121.73,82.85c-1.22,16.77-3.7,19.08-19.68,20.37,15.98,1.3,18.46,3.6,19.68,20.38,1.22-16.78,3.7-19.09,19.69-20.38-15.99-1.28-18.47-3.6-19.69-20.37h0Zm-53.31-129.07c-1.24,16.98-3.74,19.33-19.94,20.63,16.2,1.31,18.7,3.66,19.94,20.64,1.23-16.98,3.74-19.33,19.93-20.64-16.2-1.3-18.7-3.65-19.93-20.63Z" style="fill:#fff; fill-rule:evenodd;"/></g><g><g><g><g><path d="M1629.52,351.08h0Zm-910.8,940.78c-6.23,10.33-12.56,20.66-18.99,31,181,7.39,336.06,17.55,465.14,30.45,129.26,12.92,232.54,28.62,309.81,47.09,25.34-33.84,49.16-70.01,71.46-108.54,57.47-99.28,104.84-214.17,142.13-344.64,51.88-181.59,84.21-393.35,96.97-635.27-28.21-30.67-54.77-42.89-79.68-36.66-25.33,6.33-49.3,31.62-71.92,75.86-.57,1.12-1.96,1.57-3.08,1-.47-.24-.82-.62-1.04-1.06-39.13-82.89-95.54-141.55-169.21-175.96-73.77-34.46-164.94-44.68-273.47-30.65l-.18,.02c-16.66,.79-39.95,2.27-69.84,4.43-29.16,2.1-64.7,4.88-106.61,8.31,20.19,189.77,4.36,381.88-47.49,576.33-49.07,184.01-130.4,370.12-243.99,558.3Z" style="fill:#fafdff; fill-rule:evenodd;"/><path d="M1192.99,144.49c-16.67,.79-39.96,2.27-69.85,4.43-29.15,2.1-64.7,4.88-106.6,8.31,20.18,189.77,4.35,381.88-47.49,576.33-51.77,194.11-139.43,390.55-262.98,589.3,181,7.39,336.05,17.55,465.14,30.45,129.26,12.92,232.53,28.62,309.81,47.09,90.63-121.02,161.84-272.08,213.59-453.19,51.87-181.59,84.2-393.35,96.97-635.27-28.21-30.67-54.77-42.89-79.68-36.66-25.33,6.33-49.3,31.62-71.92,75.86-.58,1.12-1.95,1.57-3.09,1-.47-.24-.82-.62-1.03-1.06h0c-39.13-82.89-95.54-141.55-169.21-175.96-73.77-34.46-164.94-44.68-273.48-30.65h-.17v.02h0Zm-70.17-.16c29.72-2.14,53.02-3.63,69.9-4.43,109.36-14.12,201.32-3.76,275.87,31.06,73.44,34.3,129.92,92.3,169.43,173.99,22.64-42.96,46.9-67.67,72.76-74.13,26.88-6.72,55.16,6.19,84.84,38.73h0c.39,.44,.63,1.03,.59,1.67-12.75,242.69-45.14,455.12-97.18,637.25-52.06,182.24-123.82,334.21-215.23,455.89-.54,.71-1.46,1.07-2.37,.85-77.22-18.57-180.78-34.35-310.67-47.33-129.91-12.99-286.15-23.19-468.69-30.59-.42,0-.85-.1-1.24-.34-1.07-.67-1.41-2.09-.74-3.17,124.4-199.51,212.58-396.65,264.51-591.39,51.92-194.67,67.62-386.98,47.14-576.9l-.02-.18c-.09-1.27,.85-2.38,2.12-2.47,42.75-3.5,79.08-6.34,109-8.5Z" style="fill:#5e9bd3; fill-rule:evenodd;"/></g><path d="M1428.12,157.43c107.99,94.79,164.92,185.02,170.81,270.66,12.08-38.49,21.47-71.66,28.15-99.52-45.93-85.59-112.26-142.64-198.96-171.14Z" style="fill:#deecf8; fill-rule:evenodd;"/><path d="M1793.92,311.1c-98.96-145.96-260.71-194.01-514.19-175.01,54.75-.3,104.22,6.81,148.4,21.34,86.7,28.5,153.03,85.55,198.96,171.14,3.75,6.99,7.37,14.16,10.84,21.53,45.88-89.73,97.87-102.73,155.99-38.99Z" style="fill:#deecf8; fill-rule:evenodd;"/><path d="M1776.87,291.46c-47.11-60.99-107.18-102.57-182.82-127.53-73.27-24.18-161.18-32.79-266.09-28.37,10.3,.83,20.38,1.96,30.26,3.38,24.86,3.57,48.41,9.01,70.61,16.31,43.64,14.34,82.16,35.88,115.55,64.6,33.38,28.71,61.63,64.59,84.73,107.64,1.87,3.49,3.73,7.07,5.56,10.7,1.12,2.23,2.24,4.49,3.34,6.77,22.64-42.96,46.9-67.67,72.76-74.13,21.16-5.29,43.2,1.59,66.09,20.64h0Zm-181.38-131.9c84.93,28.03,150.46,76.77,200.22,150.12,.75,.94,.65,2.31-.25,3.13-.94,.85-2.39,.78-3.25-.15-28.44-31.19-55.22-43.64-80.32-37.36-25.32,6.33-49.28,31.58-71.88,75.77-.22,.47-.6,.88-1.1,1.12-1.14,.54-2.52,.05-3.06-1.09-1.72-3.65-3.49-7.26-5.28-10.83-1.8-3.55-3.63-7.09-5.51-10.59-22.84-42.55-50.73-77.99-83.67-106.32-32.93-28.32-70.94-49.57-113.99-63.72-21.96-7.22-45.25-12.6-69.85-16.13-24.59-3.53-50.48-5.23-77.66-5.09h0c-1.27,.09-2.37-.86-2.47-2.12-.09-1.27,.86-2.37,2.12-2.47,127.04-9.52,231.15-2.23,315.94,25.75Z" style="fill:#5e9bd3; fill-rule:evenodd;"/><g><path d="M1125,349.61c-1.58,.06-2.91-1.18-2.97-2.77s1.18-2.91,2.76-2.97l366.52-13.49c1.58-.05,2.92,1.19,2.97,2.77,.06,1.59-1.18,2.91-2.77,2.97l-366.52,13.49Z" style="fill:#88b9e3; fill-rule:evenodd;"/><path d="M1251.37,477.57c-1.58,.03-2.89-1.24-2.91-2.82-.03-1.58,1.23-2.89,2.82-2.91l257.43-4.57c1.58-.03,2.89,1.24,2.92,2.82,.02,1.58-1.24,2.89-2.82,2.91l-257.43,4.57Z" style="fill:#88b9e3; fill-rule:evenodd;"/><path d="M1118.41,531.1c-1.58,.04-2.9-1.21-2.95-2.79-.04-1.58,1.2-2.9,2.79-2.94l541.24-15.46c1.58-.04,2.9,1.21,2.94,2.79,.04,1.58-1.2,2.9-2.79,2.95l-541.23,15.45Z" style="fill:#88b9e3; fill-rule:evenodd;"/><path d="M1111.33,584.51c-1.58,.03-2.89-1.23-2.92-2.81s1.23-2.89,2.81-2.92l214.65-4.57c1.58-.03,2.89,1.23,2.93,2.81,.03,1.58-1.23,2.89-2.82,2.92l-214.65,4.57Z" style="fill:#88b9e3; fill-rule:evenodd;"/><path d="M1104.45,611.61c-1.58,.03-2.89-1.23-2.92-2.81-.03-1.58,1.23-2.89,2.81-2.92l114.06-2.52c1.58-.03,2.89,1.23,2.93,2.81,.03,1.58-1.23,2.89-2.82,2.92l-114.06,2.52Z" style="fill:#88b9e3; fill-rule:evenodd;"/><path d="M1094.94,667.97c-1.58,.02-2.88-1.25-2.9-2.83-.02-1.58,1.25-2.89,2.83-2.9l231.06-3.05c1.58-.02,2.88,1.25,2.9,2.83,.02,1.58-1.25,2.89-2.83,2.9l-231.06,3.05Z" style="fill:#88b9e3; fill-rule:evenodd;"/><path d="M1367.89,667.97c-1.58,.02-2.88-1.25-2.9-2.83-.01-1.58,1.25-2.89,2.83-2.9l220.88-3.05c1.58-.02,2.87,1.25,2.9,2.83,.02,1.58-1.25,2.89-2.83,2.9l-220.87,3.05Z" style="fill:#88b9e3; fill-rule:evenodd;"/><path d="M1084.53,709.23c-1.58,0-2.88-1.27-2.88-2.85,0-1.58,1.28-2.87,2.85-2.88l394.55-3.04c1.58,0,2.87,1.28,2.87,2.85s-1.27,2.87-2.85,2.88l-394.54,3.04Z" style="fill:#88b9e3; fill-rule:evenodd;"/><path d="M1073.94,750.45c-1.58,.02-2.88-1.25-2.9-2.84-.01-1.58,1.25-2.88,2.84-2.9l220.87-3.05c1.58-.01,2.88,1.25,2.9,2.84,.01,1.58-1.25,2.88-2.84,2.9l-220.87,3.04Z" style="fill:#88b9e3; fill-rule:evenodd;"/><path d="M1062.89,791.76c-1.58,.01-2.88-1.25-2.89-2.84-.02-1.58,1.26-2.88,2.84-2.89l262.91-3.05c1.58,0,2.87,1.27,2.89,2.84,0,1.59-1.26,2.89-2.85,2.9l-262.91,3.04Z" style="fill:#88b9e3; fill-rule:evenodd;"/><path d="M1051.69,833.03c-1.58,0-2.87-1.27-2.87-2.86,0-1.58,1.28-2.87,2.86-2.88l556.72-3.05c1.58,0,2.88,1.28,2.88,2.86,0,1.58-1.27,2.88-2.85,2.88l-556.73,3.05Z" style="fill:#88b9e3; fill-rule:evenodd;"/><path d="M1506.92,709.23c-1.58,.05-2.91-1.19-2.96-2.77-.04-1.58,1.2-2.91,2.78-2.96l94.11-3.04c1.58-.05,2.91,1.2,2.96,2.78,.04,1.58-1.2,2.9-2.78,2.96l-94.11,3.04Z" style="fill:#88b9e3; fill-rule:evenodd;"/><path d="M1337.41,746.43c-1.58,.01-2.87-1.26-2.89-2.85,0-1.58,1.26-2.87,2.84-2.89l265.81-3.05c1.58-.01,2.88,1.26,2.89,2.84,.01,1.58-1.26,2.88-2.85,2.89l-265.81,3.05Z" style="fill:#88b9e3; fill-rule:evenodd;"/><path d="M1366.97,788.38c-1.59,.02-2.89-1.25-2.9-2.83-.02-1.58,1.25-2.88,2.83-2.9l220.87-3.04c1.58-.02,2.88,1.25,2.9,2.83,.02,1.58-1.25,2.88-2.84,2.9l-220.87,3.05Z" style="fill:#88b9e3; fill-rule:evenodd;"/><path d="M1027.51,901.05c-1.58,0-2.87-1.28-2.88-2.86,0-1.58,1.28-2.87,2.86-2.87l547.96-3.05c1.58,0,2.87,1.27,2.88,2.85,0,1.58-1.28,2.88-2.86,2.88l-547.96,3.05Z" style="fill:#88b9e3; fill-rule:evenodd;"/><path d="M997.27,985.72c-1.58,.03-2.89-1.24-2.91-2.82-.03-1.59,1.24-2.89,2.82-2.92l239.27-4.57c1.58-.03,2.88,1.24,2.91,2.82,.02,1.59-1.24,2.89-2.82,2.92l-239.26,4.57Z" style="fill:#88b9e3; fill-rule:evenodd;"/><path d="M983.29,1016.19c-1.58,.03-2.89-1.24-2.91-2.82-.03-1.59,1.24-2.89,2.82-2.92l142.59-2.52c1.58-.02,2.89,1.24,2.92,2.82,.02,1.58-1.24,2.89-2.82,2.91l-142.58,2.52Z" style="fill:#88b9e3; fill-rule:evenodd;"/></g></g><g><path d="M1435.13,943.82l15.8,20.35,25.39-4.68c4.67-.86,9.19,2.04,10.41,6.55l7.33,24.5,25.32,4.8c4.6,.87,7.73,5.08,7.36,9.64l-2.03,25.7,21.88,13.62c3.98,2.47,5.37,7.52,3.38,11.64l-11.17,23.24,15.47,20.61c2.8,3.72,2.28,8.93-1.05,12.05l-18.79,17.63,7,24.82c1.31,4.69-1.29,9.58-5.87,11.1l-23.38,9.43-2.45,25.68c-.47,4.82-4.63,8.39-9.4,8.21l-25.32,.35-11.54,23.04c-2.09,4.17-6.97,6.03-11.26,4.46l-24.21-8.98-19.06,17.28c-3.47,3.16-8.74,3.14-12.17,.08l-19.26-17.1-24.05,9.25c-4.49,1.74-9.53-.35-11.53-4.66l-11.63-22.57-25.82-.07c-4.84-.04-8.8-3.85-9.03-8.63l-2.66-25.13-24.02-9.38c-4.36-1.69-6.66-6.4-5.48-10.82l6.72-24.91-18.99-17.4c-3.45-3.16-3.9-8.38-1.19-12.07l15.25-20.8-11.43-23.09c-2.15-4.36-.47-9.61,3.72-11.95l21.27-13.58-2.31-25.69c-.44-4.8,2.96-9.09,7.66-9.8l24.87-4.99,7.12-24.78c1.32-4.63,6.03-7.4,10.68-6.38l24.99,4.32,15.58-20.52c2.82-3.74,8-4.68,11.92-2.33l22.13,13.29,21.95-13.51c3.96-2.44,9.1-1.45,11.9,2.16Z" style="fill:#f37637; fill-rule:evenodd;"/><path d="M1422.2,981.13c60.9,11.03,101.34,69.35,90.29,130.25-11.03,60.9-69.35,101.33-130.25,90.29-60.9-11.04-101.33-69.35-90.29-130.25,11.04-60.9,69.36-101.34,130.25-90.29Z" style="fill:#fff; fill-rule:evenodd;"/><path d="M1420.01,993.22c54.22,9.83,90.2,61.75,80.38,115.96-9.83,54.22-61.75,90.21-115.96,80.38-54.22-9.83-90.21-61.74-80.38-115.96,9.83-54.22,61.74-90.2,115.96-80.38Z" style="fill:#f5916f; fill-rule:evenodd;"/><path d="M1473.31,1212.46l27.31,141.75-51.55-36.35-36.23,50.14-12.32-121.04c2.88,.74,6.06,.05,8.41-2.09l19.07-17.28,24.2,8.98c4.29,1.58,9.17-.28,11.26-4.46l9.85-19.65h0Zm-124.1,25.19l-54.01,109.03-16.33-59.66-61.02,15.95,75.33-123.17,2.27,21.38c.23,4.78,4.2,8.59,9.03,8.63l25.82,.07,11.63,22.57c1.37,2.96,4.19,4.87,7.28,5.21Z" style="fill:#5e9bd3; fill-rule:evenodd;"/></g></g><g><path d="M600.41,353.9c3.8-4.72,7.01-11.01,9.62-18.88-1.39-4.2-2.8-9.51-4.27-15.92-26.81-19.07-30.24-32.82-10.27-41.26,3.93,2.32,8.73,9.32,14.39,20.97,4.71-.1,.28-12.4,2.81-16.98-5.2-19.57-.44-25.49-1.88-37.66,13.85-19.64,47.4-24.9,88.8-18.64,3.52,38.16,15.3,128.19-30.84,125.28l-.34,5.02c-2.48,15.58-2.48,32.2-6.42,45.7l-1.83,3.44c-14.94-8.69-35.27-25.5-59.77-51.07Z" style="fill:#f9af79; fill-rule:evenodd;"/><path d="M697.47,228.62c-41.41-6.26-72.82-4.09-86.66,15.55,1.44,12.17-1.94,19.61,3.26,39.19-2.53,4.58,.52,15.36-4.19,15.46-5.66-11.65-10.46-18.65-14.39-20.97-19.96,8.44-16.54,22.19,10.27,41.26,1.47,6.41,2.88,11.72,4.26,15.92-47.1-27.67-67.72-94.71-24.8-126.15,8.7-55.57,88.58-4.57,129.71-30.57,15.64,22.62-4.89,50.1-17.45,50.33Z" style="fill:#263c84; fill-rule:evenodd;"/><path d="M637.45,346.92c7.59,2.1,22.56,4.16,31.32,3.88l.32,5.52c-.48,3.02-.35,6.95-1.04,9.96-.1-.03-1.58-1.46-1.67-1.49-13.55-4.73-23.19-10.7-28.93-17.87Z" style="fill:#ed7d57; fill-rule:evenodd;"/><path d="M580.76,227.98c3.92-5.62,4.22-10.51,.89-14.67-9.36-1.96-16.97,.27-22.83,6.71,4.44-1.12,11.75,1.54,21.94,7.96Z" style="fill:#263c84; fill-rule:evenodd;"/><path d="M590.45,210.59c-3.87,4.33-7.41,5.28-10.64,2.87-2-8.15-.82-15.32,3.52-21.49-.55,4.15,1.82,10.36,7.12,18.63Z" style="fill:#263c84; fill-rule:evenodd;"/><path d="M668.32,225.66c.34-12.03,5.02-19.23,14.05-21.61,15.25,7,23.64,18.09,25.18,33.28-5.09-6.21-18.17-10.09-39.24-11.66Z" style="fill:#263c84; fill-rule:evenodd;"/><path d="M640.64,183.32c1.84,5.11-.55,11.8,6.68,13.36,4.79,22.05,22.18-7.7,21.84-15.93-3.09,2.32-12.59,3.17-28.52,2.57Z" style="fill:#263c84; fill-rule:evenodd;"/><path d="M985,568.41c3.22-1.1,14.07-3.63,26.72-7.88,12.98,5.29,30.08,3.72,51.29-4.68,8.08-12.81,8.81-25.85,2.21-39.1-16.73,7.97-31.42,11.04-44.07,9.22,15.71-10.35,18.14-16.5,7.3-18.43-1.05,2.44-3.3,4.45-6.75,6.03-10.92,1.76-18.74,9.16-23.45,22.17-5.83,1.58-11.85,3.01-14.95,3.98,3.17,7.51,3.78,16.53,1.68,28.69Z" style="fill:#f9af79; fill-rule:evenodd;"/><path d="M562.69,486.34c25.4,30.5,46.71,52.54,63.94,66.12-15.71-55.76-32.52-115.81-50.45-180.13-6.33,5.33-11.4,10.61-15.22,15.85-1.42,26.08-1.76,45.98-1.04,59.71,9.3,7.36,16.79,11.97,22.46,13.83-8.57,7.77-15.14,15.98-19.69,24.63Z" style="fill:#4189c9; fill-rule:evenodd;"/><path d="M721.8,471.49c-12.34,27.37-26.22,52.22-41.63,74.55,4.54-68.13,6.84-125.54,6.91-172.24,6.92,3.87,12.07,7.58,15.86,11.62,.73,.86,1.44,1.71,2.11,2.58,7.3,26.07,12.02,46.48,14.17,61.22-6.81,3.12-12.58,5.82-17.28,8.1,6.4,4.3,13.02,9.02,19.87,14.17Z" style="fill:#4189c9; fill-rule:evenodd;"/><path d="M560.96,388.17c-39.17,22.71-71.21,42.84-96.1,60.38-16.79,64.02-25.9,133.17-27.31,207.46,2.3,85.37,10.8,147.15,20.87,180.46,14.7,.64,30.34-.8,36.14-6.39,3.19-75.1,3.99-136.04,2.42-182.83,10.75-24.67,20.19-43.11,28.33-55.32,3.56,25.42,8.46,47.45,9.63,70.16-4.16,46.51-6.18,102.06-18.62,166.64,15.5,14.85,49.76,23.71,102.78,26.57,9.95-122.27,12.45-223.23,7.51-302.85-17.23-13.58-38.54-35.62-63.94-66.12,4.55-8.65,11.12-16.86,19.69-24.63-5.67-1.86-13.15-6.47-22.46-13.83-.72-13.72-.38-33.62,1.04-59.71Z" style="fill:#5e9bd3; fill-rule:evenodd;"/><path d="M680.17,546.05c15.18,162.15,21.54,267.57,30.49,304.12,25.42-2.79,45-14.71,56.84-26.48-3.18-92.25-13.96-151.16-18.5-205.09,8.21-88.55,25.02-169.96,6.9-207.8-19.46-13.11-36.41-20.7-50.85-22.79,7.3,26.07,12.02,46.48,14.17,61.23-6.81,3.12-12.58,5.81-17.28,8.09,6.4,4.3,13.02,9.02,19.87,14.17-12.34,27.37-26.22,52.22-41.63,74.55Z" style="fill:#5e9bd3; fill-rule:evenodd;"/><path d="M778.88,437.14c-7.27-8.9-14.93-17.68-22.98-26.34,12.56,26.22,8.34,73.38,1.83,129.34,12.67,15.7,39.92,43.74,63.25,61.19,47.9,2.76,99.21-8.35,178.3-32.29,3.2-8.23,2.17-21.89-1.03-33.29-77.03,4.45-124.1,3.7-155,11.65-20.01-49.86-45.39-79.41-64.38-110.26Z" style="fill:#5e9bd3; fill-rule:evenodd;"/><path d="M626.3,413.75c-13.95-18.29-25.54-34.98-38.25-45.4,1.37-5.57,2.28-9.74,3.81-13.96,.73-2,5.05-4.34,10.8-5.41-.52,.92-1.68,4.8-.73,5.4,.24,.15,.45,.36,.66,.54,13.5,10.91,27.74,20.32,45.23,28.6-8.35,9.73-14.14,19.94-21.51,30.23Z" style="fill:#4189c9; fill-rule:evenodd;"/><path d="M681.06,373.23c.36,11.89,.07,21.65-.86,29.28-2.87-8.75-8.16-15.9-15.87-21.43,.64-9.02,4.46-16.03,4.03-24.82,8.4,3.16,8.35,6.54,12.69,16.97Z" style="fill:#4189c9; fill-rule:evenodd;"/><path d="M697.75,745.11c-4.6-51.18-9.99-118.04-17.58-199.07,4.46-66.95,6.76-123.54,6.9-169.79-1.85-.69-3.84-1.32-5.98-1.88,.31,11.37,0,20.75-.9,28.13-2.87-8.75-8.16-15.9-15.87-21.43-2.4,4.61-3.13,9.64-6.97,15.28-4.14-4.3-8.05-8.42-10.62-11.56-7.78,9.34-13.38,19.11-20.43,28.95-13.8-18.09-25.29-34.62-37.84-45.06-4.29,2.19-8.13,4.3-11.53,6.32,17.65,63.31,34.22,122.46,49.71,177.45,3.4,54.82,3.27,119.75-.38,194.8,6.21,.95,12.57,1.58,19.09,1.87v-.64c0-1.49,1.24-2.74,2.76-2.77l26.79-.76c1.52-.04,2.76,1.14,2.76,2.63v.49c6.57-.69,13.27-1.68,20.1-2.95Z" style="fill:#bcdbf3; fill-rule:evenodd;"/><path d="M673.86,409.93c-4.75-7.65-10.25-12.17-16.5-13.58-4.66,2.04-9.66,6.78-15.01,14.22,4.17,7.2,8.59,12.22,13.26,15.07-8.78,55.26-12.83,132.2-12.17,230.83,6.65,14.69,13.17,25.29,19.55,31.82,7.7-11.37,12.49-23.11,14.34-35.22-6.08-103.51-9.71-179.04-10.86-226.58,4.39-5.77,6.86-11.29,7.38-16.55Z" style="fill:#4189c9; fill-rule:evenodd;"/><path d="M642.36,390.37c-3.07,4.13-5.87,8.33-8.68,12.56,2.58,1.71,5.87,3.71,9.88,5.99,3.57-4.75,6.99-8.26,10.24-10.54-3.9-2.89-7.72-5.56-11.44-8.01h0Zm25.33-6.65c-1.45,5.1-3.46,9.82-6.02,14.16,3.54,1.73,6.81,4.59,9.81,8.57,1.7-2.66,3.1-7.16,4.22-13.51-2.17-3.41-4.84-6.48-8.01-9.22Z" style="fill:#4189c9; fill-rule:evenodd;"/><path d="M759.56,1137.2c.36-82.97-2.44-180.65-8.38-293.03-11.13,6.67-25.43,11.78-43.75,15.71-4.41-11.62-8.43-39.19-14.34-89.61-5.07,1.36-10.22,2.46-15.44,3.28v2.86c0,1.49-1.25,2.74-2.76,2.79l-26.79,.75c-1.52,.04-2.76-1.14-2.76-2.62v-2.04c-4.85-.22-9.76-.64-14.72-1.27-2.78,42.4-3.86,70.77-6.04,91.51-43.99-5.49-70.43-10.26-91.68-19.15-10.87,83.58-16.9,173.74-18.06,270.45-18.01,38.62-22.93,132.96-14.77,283.02,15.33,3.41,32.73,3.41,52.16,0,15.32-67.51,28.66-156.33,39.99-266.47,15.95-52.73,32.47-126.84,49.55-222.34,3.44,64.77,12.71,138.04,27.82,219.8-5.09,60.39,3.74,149.07,26.52,266.04,11.96,1.15,30.79-.55,56.5-5.09-2.62-95.12-.3-179.98,6.96-254.58Z" style="fill:#4361ac; fill-rule:evenodd;"/><path d="M624.57,865.53c2.18-20.73,3.26-49.11,6.04-91.51-1.91-.25-3.82-.51-5.75-.82-1.51,26.21-3.43,53.58-5.75,82.1-38.19-2.06-66.64-7.23-85.36-15.51-.29,2.19-.58,4.38-.87,6.58,21.25,8.89,47.69,13.66,91.68,19.15h0Zm82.86-5.65c18.32-3.93,32.62-9.05,43.75-15.71-.13-2.5-.26-5.01-.4-7.52-10.82,6.54-24.35,11.79-40.12,13.53-3.76-15.39-7.07-42.99-10.78-81.9-2.25,.71-4.52,1.39-6.79,2,5.91,50.42,9.93,77.99,14.34,89.61Z" style="fill:#4189c9; fill-rule:evenodd;"/><path d="M498.37,1424.97c2.47,2.37,3.27,1.7,5,.53,2.85-15.5,32.08-17.31,39.34-1.49,2.16-.84,3.68-2.19,4.57-4.03,5.09,10.02,16.65,19.86,13.58,37.34-7.77,11.18-47.77,16.72-66.72-6.16-5.37-8.7,1.25-19.71,4.23-26.2h0Zm201.73-17.04c-4.9,13.26-5.99,24.16-.22,28.43,14.71,2.95,44.85,2.6,91.27,8.7,32.78-2.36,46.98-11.69,38.69-22.06-28.48,1.77-54.2-5.65-77.15-22.27-4.28,17.35-21.81,19.76-52.59,7.21Z" style="fill:#263c84; fill-rule:evenodd;"/><path d="M501.38,1400.12c-.79,9.28-1.57,17.76-2.33,25.44,1.95,1.63,2.76,.99,4.33-.07,2.85-15.5,32.08-17.31,39.34-1.49h.05s.05-.04,.05-.04h0l.04-.02,.05-.02h0l.04-.02,.05-.02h.05s.04-.04,.04-.04h.01s.04-.02,.04-.02l.04-.02h.01s.03-.02,.03-.02h.05s.01-.03,.01-.03h.03s.05-.03,.05-.03h.01s.03-.03,.03-.03l.04-.02h.02s.02-.03,.02-.03h.04s.03-.03,.03-.03h.02s.04-.03,.04-.03h.02s.02-.03,.02-.03l.04-.02h.03s.01-.02,.01-.02l.04-.02,.03-.02h.01l.04-.03,.04-.02h0s.04-.03,.04-.03l.04-.02h0s.04-.03,.04-.03l.04-.02h0l.04-.03,.04-.02h0l.12-.07,.04-.02h0s.04-.03,.04-.03l.04-.03h0l.03-.03,.04-.02h0s.03-.02,.03-.02l.04-.03h0s.03-.03,.03-.03l.04-.03h.01s.03-.03,.03-.03l.04-.02h.01s.07-.05,.07-.05h.01s.02-.03,.02-.03l.04-.03h.02s.01-.03,.01-.03l.04-.03h.03s.01-.03,.01-.03l.04-.03h.02s.05-.06,.05-.06h.02s.01-.03,.01-.03l.03-.03,.03-.02h.01s.03-.04,.03-.04l.03-.03h0l.04-.03,.04-.03h0c-1.28-6.22-2.36-13.26-3.25-21.11-14.89,1.75-28.48,1.36-40.77-1.2h0Zm245.99-7.44c1.12,4.1,2.62,7.69,4.49,10.77-.17,.45-.34,.89-.53,1.33-.85,1.92-1.91,3.6-3.21,5.02h-.01c-.42,.48-.88,.93-1.35,1.34l-.03,.02c-.15,.12-.3,.26-.44,.37l-.07,.06c-1.65,1.31-3.56,2.32-5.74,3.02h-.06c-.19,.08-.39,.14-.59,.19l-.11,.04c-.2,.05-.4,.11-.61,.16l-.07,.02c-.22,.05-.44,.1-.66,.15h-.04c-.22,.06-.44,.1-.66,.15l-.11,.02-.64,.11h-.07c-2.21,.36-4.65,.46-7.3,.32h-.11s-.8-.06-.8-.06h-.12s-.79-.08-.79-.08l-.17-.02-.79-.07h-.14s-.87-.12-.87-.12h-.01s-.9-.12-.9-.12l-.21-.03c-2.18-.33-4.49-.79-6.92-1.4l-.27-.07-.94-.24-.12-.04-.93-.25-.29-.07-.85-.25-.3-.09-.86-.25-.36-.11-.87-.27-.25-.07-.97-.31-.26-.09-.97-.32-.23-.07-1.01-.35-.25-.09-1.01-.35-1.26-.45c-.8-.29-1.6-.6-2.42-.91l-.18-.07-1.26-.5c.04-3.72-.15-7.54-.58-11.46,10.99,.3,26.35-1.2,46.07-4.5Z" style="fill:#f9af79; fill-rule:evenodd;"/><path d="M763.81,450.66c.98,24.77-2.13,55.5-6.08,89.47,12.67,15.7,39.92,43.74,63.25,61.19,47.9,2.76,99.21-8.35,178.3-32.29-57.49,13.01-116.26,20.71-176.33,23.12-12.16-8.75-30.85-27.21-56.07-55.37,.79-21.52-.23-50.22-3.09-86.12Z" style="fill:#4189c9; fill-rule:evenodd;"/><path d="M541.16,660.15c-2.77-34.52-5.37-64.22-7.82-89.1-1.74,7.09-4.41,14.05-8.02,20.89,3.56,25.42,8.46,47.45,9.63,70.16-4.16,46.52-6.18,102.06-18.62,166.64,1.41,1.36,2.98,2.66,4.71,3.92,10.13-39.79,16.83-97.29,20.11-172.51Z" style="fill:#4189c9; fill-rule:evenodd;"/><path d="M624.87,773.2c26.67,4.19,51.68,2.55,75.02-4.93-.69-7.33-1.41-15.04-2.14-23.16-25.72,4.79-49.55,5.5-71.5,2.14-.42,8.51-.87,17.16-1.38,25.94Z" style="fill:#9c7357; fill-rule:evenodd;"/><path d="M648.09,745.71l26.79-.76c1.52-.04,2.76,1.16,2.76,2.69v28.71c0,1.52-1.24,2.8-2.76,2.84l-26.79,.75c-1.52,.04-2.76-1.15-2.76-2.68v-28.72c0-1.52,1.24-2.79,2.76-2.83Z" style="fill:#fff; fill-rule:evenodd;"/><polygon points="650.66 750.83 650.66 774.68 672.32 774.06 672.32 750.22 650.66 750.83" style="fill:#9c7357; fill-rule:evenodd;"/><polygon points="604.3 903.14 593.33 1157.87 315.44 1128.62 348.35 903.14 604.3 903.14" style="fill:#fabda5; fill-rule:evenodd;"/><path d="M639.65,1126.48c-22.38,8.23-35.34,19.49-46.31,31.39l10.96-254.73,12.5-.31,22.85,223.65Z" style="fill:#f5916f; fill-rule:evenodd;"/><path d="M604.3,903.14l-32.31,102.19c-4.65,11.33-9.42,21.25-28.25,19.68l-178.34-11.31c-15.9-1.01-16.28-9.05-16.41-19.94v-90.62h255.32Z" style="fill:#f37637; fill-rule:evenodd;"/><path d="M475.56,1006.86l-45.36-2.93c-2.5-.16-4.99,1.59-5.37,4.08l-6.17,40.29c-.39,2.48,1.19,4.77,3.64,5.02l47.19,4.77c2.47,.25,5.11-1.55,5.38-4.08l4.33-42.12c.26-2.51-1.15-4.86-3.64-5.02Z" style="fill:#fff; fill-rule:evenodd;"/><polygon points="467.18 1017.71 464.25 1046.14 431.01 1042.77 435.16 1015.65 467.18 1017.71" style="fill:#f37637; fill-rule:evenodd;"/><path d="M550.99,903.14c-2.78-9.89-9.28-18.12-18.06-24.56-3.78-2.77-8-5.2-12.52-7.27-2.69-6.96-18.81-12.82-38.49-13.57-20.86-.8-38.15,4.41-39.85,11.8-1.31,.57-2.6,1.17-3.85,1.81-13.09,6.71-22.88,17.2-26.05,31.8h9.6c3.07-10.7,10.68-18.5,20.64-23.59,1.34-.69,2.73-1.33,4.15-1.93,6.54,4.67,19.38,8.16,34.26,8.73,15.58,.6,29.19-2.17,35.77-6.68,3.95,1.81,7.62,3.93,10.91,6.34,6.27,4.6,11.1,10.34,13.66,17.14h9.84Z" style="fill:#f37637; fill-rule:evenodd;"/><path d="M505.46,869.17c.15,6.11,2.35,15.36-1.55,19.77-10.24,11.56-35.31,12.36-46.09,4.93-4.63-3.19-5.17-13.61-5.29-20.3,5.54-14.16,8.54-27.26,8.99-39.29,10.97-7.28,27.55-7.98,33.06-4.19l10.88,39.08Z" style="fill:#f9af79; fill-rule:evenodd;"/></g><g><path d="M292.93,776.28c0-31.06,25.17-56.23,56.23-56.23s56.23,25.18,56.23,56.23-25.17,56.22-56.23,56.22-56.23-25.17-56.23-56.22h0Zm56.23,65.92c36.41,0,65.93-29.51,65.93-65.92s-29.52-65.94-65.93-65.94-65.93,29.52-65.93,65.94,29.52,65.92,65.93,65.92Z" style="fill:#fff; fill-rule:evenodd;"/><path d="M349.16,745.88c-16.79,0-30.39,13.61-30.39,30.4s13.61,30.39,30.39,30.39,30.4-13.61,30.4-30.39-13.61-30.4-30.4-30.4Z" style="fill:#fff; fill-rule:evenodd;"/></g><g><path d="M787.48,783.66c0-24.4,19.78-44.17,44.17-44.17s44.17,19.77,44.17,44.17-19.78,44.17-44.17,44.17-44.17-19.78-44.17-44.17h0Zm44.17,51.78c28.6,0,51.78-23.19,51.78-51.78s-23.19-51.79-51.78-51.79-51.78,23.19-51.78,51.79,23.18,51.78,51.78,51.78Z" style="fill:#fff; fill-rule:evenodd;"/><path d="M831.65,759.79c-13.18,0-23.87,10.69-23.87,23.88s10.69,23.87,23.87,23.87,23.87-10.69,23.87-23.87-10.69-23.88-23.87-23.88Z" style="fill:#fff; fill-rule:evenodd;"/></g><g><path d="M1794.35,800.82c0-21.97,17.81-39.78,39.78-39.78s39.78,17.81,39.78,39.78-17.82,39.78-39.78,39.78-39.78-17.81-39.78-39.78h0Zm39.78,46.64c25.76,0,46.64-20.88,46.64-46.64s-20.88-46.65-46.64-46.65-46.64,20.89-46.64,46.65,20.88,46.64,46.64,46.64Z" style="fill:#fff; fill-rule:evenodd;"/><path d="M1834.13,779.32c-11.87,0-21.5,9.63-21.5,21.51s9.63,21.51,21.5,21.51,21.51-9.63,21.51-21.51-9.63-21.51-21.51-21.51Z" style="fill:#fff; fill-rule:evenodd;"/></g><g><path d="M885.42,219.45c0-24.39,19.77-44.16,44.17-44.16s44.16,19.77,44.16,44.16-19.78,44.16-44.16,44.16-44.17-19.77-44.17-44.16h0Zm44.17,51.79c28.6,0,51.78-23.19,51.78-51.79s-23.19-51.79-51.78-51.79-51.79,23.19-51.79,51.79,23.19,51.79,51.79,51.79Z" style="fill:#fff; fill-rule:evenodd;"/><path d="M929.59,195.58c-13.19,0-23.88,10.69-23.88,23.87s10.69,23.88,23.88,23.88,23.87-10.69,23.87-23.88-10.69-23.87-23.87-23.87Z" style="fill:#fff; fill-rule:evenodd;"/></g></g></svg>