<?xml version="1.0" encoding="UTF-8"?><svg id="a" xmlns="http://www.w3.org/2000/svg" viewBox="0 0 2135.23 1570.17"><path d="M1065.04,0c253.91,0,360.89,193.61,544.19,344.12,242.62,199.21,485.2,69.53,524.06,742.59,34.56,599.04-396.84,64.85-1005.13,279.43C519.89,1580.74-99.63,1667.14,84.2,972.86,268.03,278.58,475.07,0,1065.04,0Z" style="fill:#e0e8f5; fill-rule:evenodd;"/><path d="M594.61,1457.97c120.1,0,217.46,11.1,217.46,24.79s-97.36,24.78-217.46,24.78-217.45-11.09-217.45-24.78,97.36-24.79,217.45-24.79Z" style="fill:#c4d1eb; fill-rule:evenodd;"/><path d="M1338.24,1509.49c147,0,266.18,13.59,266.18,30.34s-119.17,30.34-266.18,30.34-266.16-13.58-266.16-30.34,119.16-30.34,266.16-30.34Z" style="fill:#c4d1eb; fill-rule:evenodd;"/><path d="M1654.16,605.4c10.89-.52,10.55,1.34,11.95,1.2,1.63-.1,19.24-13.5,19.24-13.5,0,0,52.07-39.09,54.8-41.29l32.49-58.94,33.87,7.83s-37.05,63.15-39.57,66.13c-2.49,2.92-79.06,47.6-85.69,51.78,0,0-6.05,7.86-10.01,12.67-3.97,4.81-9.87,7.58-11.2,8.78-.2,.15-4.84,3.86-11.76,6.82-5.97,2.63-1.52-2.54-1.52-2.54,0,0,10.2-6.81,9.53-7.5-.52-.57-5.87,3.48-12.44,6.42-1.69,.76-3.35,1.47-4.89,2.12-4.05,1.75-6.3-.19-2.35-2.72,1.39-.89,3.74-2.28,5.55-3.04,1.97-.87,3.5-2.27,5.04-3.2,3.05-1.88,5.32-3.26,5.17-3.32-.19-.09,.15-.91-1.67-.15-2.2,.89-6.41,3.82-9.74,4.9-1.88,.61-5.73,2.11-5.73,2.11,0,0-6.53,1.76-6.71,1.4-1.04-1.83,3.27-4.43,5.91-4.89,1.54-1.22,5.63-2.67,5.63-2.67,0,0,7.62-4.83,6.96-5.92-.53-.92-21.03,7.12-21.96,5.24-.74-1.58,5.31-4.29,5.31-4.29,0,0,3.79-1.34,5.02-1.9,1.43-.65,5.59-2.91,5.59-2.91,0,0,14.08-8.46,13.36-9.46-.7-.99-3.57-2.74-4.63-2.5-1.06,.23-2.78,1.66-3.81,1.84-1.07,.23-2.64-.39-3.03-1.64-.36-1.29,4.32-4.31,4.32-4.31,0,0,3.8-2.42,6.96-2.55Z" style="fill:#f9af79; fill-rule:evenodd;"/><path d="M1759.72,509.31l34.84,19.39s14.92-29.13,21.25-43.38c7.66-17.28,15.45-40.1,13.16-40.53-6.46-1.17-15.21-1.39-22.77,3.01-26.16,15.32-46.47,61.5-46.47,61.5Z" style="fill:#466fb5; fill-rule:evenodd;"/><path d="M1214.42,875.45s-7.71-19.95-9.87-22.72c-2.17-2.78-13.28-10.08-14.19-9.66-.92,.41-1.27,1.35-.2,3.19,1.07,1.84,5.71,7.13,4.76,7.23-.95,.11-15.47-14.36-18.95-12.28-3.48,2.08-3.55,15.43,1.23,23.41,4.79,8.01,23.99,17.13,24.98,18.35,8.41,10.39,12.24-7.52,12.24-7.52Z" style="fill:#f9af79; fill-rule:evenodd;"/><path d="M1205.88,872.33c6.55-4.45,7.86-4.27,7.86-4.27,0,0,54.02,53.72,59.3,58.54,5.29,4.81,95.83,49.86,95.83,49.86l1.77,73.55s-111.73-80.98-124.88-93.45c-21.75-20.6-47.18-75.82-47.18-75.82,0,0,2.15-4.92,7.29-8.41Z" style="fill:#466fb5; fill-rule:evenodd;"/><path d="M593.99,865.18s-7.22-8.73-12.88-12.65c-5.65-3.98-14.56-16.46-15.41-32.56-.85-16.15,10.15-24.51,16.44-27.51,6.28-3.04,31.14-7.39,40.16-4.8,9.04,2.59,10.42,34.95,10.42,34.95l-8.88,26.73-29.86,15.83Z" style="fill:#20386f; fill-rule:evenodd;"/><path d="M658.97,1310.16l.13,19.71,21.12-7.73s11.72-18.3,26.96-42.73c-9.64-4.2-19.66-7.75-29.71-11.4-10.4,24.6-18.5,42.15-18.5,42.15Z" style="fill:#f9af79; fill-rule:evenodd;"/><path d="M681.53,1320.87s-10.61-3.03-13.18-5.44c-2.59-2.4-4.09-8.3-8.3-8.12-4.2,.19-19.18,13.98-20.41,18.25-1.29,4.49-1.05,10.42,1.59,12.8,2.62,2.44,49.05,32.25,58.48,35.23,9.42,2.99,17.5-3.92,11.02-13.03-6.47-9.13-23-39.91-29.21-39.68Z" style="fill:#0e2952; fill-rule:evenodd;"/><path d="M598.4,1066.86s185.34,24.56,188.35,47.86c7.04,54.46-95.86,197.56-95.86,197.56l-28.93-12.62,51.93-150.34s-82.79-8.19-90.19-13.35c-7.41-5.16-25.3-69.11-25.3-69.11Z" style="fill:#20386f; fill-rule:evenodd;"/><path d="M528.07,1427.22l3.39,19.43,19.54-11.11s8.57-19.98,19.55-46.63c-10.21-2.52-20.67-4.4-31.19-6.33-6.23,25.97-11.3,44.63-11.3,44.63Z" style="fill:#f9af79; fill-rule:evenodd;"/><path d="M552.11,1434.07s-10.99-1.26-13.92-3.17c-2.94-1.93-5.42-7.51-9.51-6.64-4.11,.85-16.62,16.92-17.11,21.3-.54,4.65,.68,10.45,3.67,12.41,3,1.96,63.82,26.38,73.62,27.77,9.8,1.41,11.25-8.71,3.36-16.61-7.88-7.95-34.04-36.33-40.11-35.06Z" style="fill:#0e2952; fill-rule:evenodd;"/><path d="M631.94,1084.64l-17.46-22.83s-53.34,8.01-60.25,32.08c-6.91,24.05,4.23,175.99,4.23,175.99,0,0-20.74,104.04-29.78,141.79,10.53,1.93,25.22,4.94,35.44,7.48,19.02-46.13,58.15-146.53,58.15-146.53l16.91-138.31-7.25-49.68Z" style="fill:#223f81; fill-rule:evenodd;"/><path d="M701.17,713.47c3.72,11.85,5.49,10.75,5.93,12.29,.51,1.78-6.59,26.05-6.59,26.05,0,0-20.47,71.54-21.72,75.4l-48.72,58.68,21.28,33.06s51.35-65.28,53.45-69.18c2.12-3.86,18.88-103.91,20.63-112.7,0,0,5.83-9.66,9.3-15.84,3.46-6.18,4.08-13.66,4.79-15.55,.11-.28,2.14-6.72,2.59-15.37,.38-7.44-3.3-.55-3.3-.55,0,0-3.11,13.64-4.1,13.25-.77-.33,1.35-7.72,1.85-15.96,.13-2.1,.25-4.2,.35-6.08,.25-5.03-2.68-6.63-3.76-1.4-.39,1.83-.93,4.94-1.04,7.2-.11,2.41-.95,4.64-1.36,6.68-.78,4.03-1.29,6.98-1.44,6.85-.19-.17-.88,.52-.82-1.72,.09-2.72,1.49-8.42,1.33-12.39-.11-2.27-.02-7.01-.02-7.01,0,0-1.19-7.16-1.62-7.24-2.33-.36-2.87,4.77-2.33,7.84-.64,2.14-.58,7.11-.58,7.11,0,0-2.08,10.09-3.47,9.81-.59-.1-.04-6.48-.46-12.8-.38-5.85-1.69-11.69-2.83-11.8-1.93-.17-2.18,6.41-2.18,6.41,0,0,.06,4.61-.03,6.13-.12,1.79-.83,7.16-.83,7.16,0,0-3.36,18.52-4.66,18.13-1.3-.39-4.24-2.72-4.41-3.94-.19-1.21,.63-3.64,.46-4.86-.18-1.21-1.43-2.65-2.9-2.54-1.46,.11-2.81,6.37-2.81,6.37,0,0-1.06,5.07,.02,8.51Z" style="fill:#f9af79; fill-rule:evenodd;"/><path d="M654.96,852.44c-2.36-.15-56.25,47.67-54.41,62.2,1.81,14.52,26.65,33.66,42.31,21.34,15.65-12.36,44.35-55.87,44.35-55.87,0,0-24.64-27.21-32.25-27.67Z" style="fill:#6d96ce; fill-rule:evenodd;"/><path d="M630.78,890.27c.66,.45,22.63,32.13,24.06,57.43,2.61,46.27-7.24,124.26-15.11,128.27-63.05,32.01-90.14,21.38-90.14,21.38,0,0,1.82-142.19,11.49-176.07,4.03-14.07,9.81-26.53,24.12-31.42,3.26-1.16,30.31-10.21,45.58,.41Z" style="fill:#6d96ce; fill-rule:evenodd;"/><path d="M623.12,864.74l7.82,26.65s2.04,7.47-1.21,11.12c-5.57,6.34-34.51-15.37-34.51-15.37l-5.01-43.24,32.9,20.85Z" style="fill:#f9af79; fill-rule:evenodd;"/><path d="M591.73,856.92c9.12,16.29,26.59,21.77,35.41,21.5l-4.01-13.67-32.9-20.85,1.5,13.03Z" style="fill:#ed7d57; fill-rule:evenodd;"/><path d="M595.82,798.44c11.74-7.35,27.31-1.98,32.29,10.73,2.16,5.49,4.59,12.53,6.54,20.33,4.7,18.83-.83,39.51-9.41,41.46-8.58,2.01-35.13-4.77-42.18-31.39-4.36-16.46,.44-33.42,12.76-41.13Z" style="fill:#f9af79; fill-rule:evenodd;"/><path d="M589.87,840.22c.97,4.18-1.03,8.18-4.43,9-3.41,.77-6.95-1.97-7.92-6.16-.95-4.15,1.03-8.18,4.44-8.95,3.4-.82,6.94,1.93,7.92,6.11Z" style="fill:#f9af79; fill-rule:evenodd;"/><path d="M581.95,834.1s-3.51-8.72-4.24-17.62c-.71-8.86,4.32-22.43,12.88-25.83,8.53-3.4,29.82-3.73,31.49-9.85,1.67-6.12,1.76-5.56,2.53-6.58,1.73-2.39,15.61,3.69,17.69,18.59,2.09,14.89-11.05,16.73-13.5,17.58-2.46,.91-27.3-4.72-34.26-3-6.97,1.66-12.58,26.71-12.58,26.71Z" style="fill:#20386f; fill-rule:evenodd;"/><path d="M464.98,737.05c-1.35,12.35-3.3,11.61-3.42,13.2-.15,1.84,11.52,24.28,11.52,24.28,0,0,33.98,66.19,35.96,69.74l59.19,48.1-14.45,36.55s-63.06-54.05-65.87-57.47c-2.83-3.37-38.71-98.26-42.14-106.54,0,0-7.6-8.35-12.2-13.73-4.6-5.39-6.65-12.61-7.72-14.33-.16-.25-3.4-6.17-5.52-14.57-1.82-7.23,3.13-1.18,3.13-1.18,0,0,5.69,12.78,6.59,12.2,.69-.47-2.82-7.31-4.92-15.3-.54-2.03-1.06-4.07-1.53-5.9-1.22-4.89,1.33-7.03,3.41-2.11,.73,1.72,1.87,4.67,2.42,6.86,.57,2.34,1.84,4.36,2.63,6.29,1.55,3.8,2.62,6.6,2.75,6.44,.15-.2,.96,.34,.47-1.84-.61-2.65-3.1-7.97-3.71-11.9-.34-2.25-1.33-6.88-1.33-6.88,0,0-.23-7.25,.18-7.41,2.22-.81,3.74,4.12,3.81,7.24,1.04,1.98,1.95,6.87,1.95,6.87,0,0,4,9.49,5.31,8.95,.56-.22-1.22-6.37-2.04-12.64-.76-5.81-.61-11.8,.49-12.12,1.86-.55,3.38,5.87,3.38,5.87,0,0,.84,4.53,1.23,6.01,.46,1.73,2.2,6.86,2.2,6.86,0,0,6.9,17.51,8.1,16.88,1.2-.64,3.63-3.5,3.56-4.72-.06-1.23-1.32-3.45-1.4-4.68-.05-1.23,.89-2.88,2.35-3.06,1.46-.18,4,5.7,4,5.7,0,0,2.02,4.77,1.63,8.36Z" style="fill:#f9af79; fill-rule:evenodd;"/><path d="M537.32,864.4c2.29-.61,24.41,26.39,56.59,29.4,1.05,14.59-6.93,89.84-24.68,80.81-11.61-28.48-58.17-76.81-58.17-76.81,0,0,18.89-31.47,26.26-33.4Z" style="fill:#6d96ce; fill-rule:evenodd;"/><path d="M614.07,855.18c6.35,.03,9.86-.19,16.03-.71,2.47-.22-2.61,6.67-16.38,1.08-.33-.13-.15-.36,.34-.36Z" style="fill:#eb795b; fill-rule:evenodd;"/><path d="M607.87,821.87c3.08,.23,2.9,2.68,.63,3.26-24.29,6.09-8.26-3.84-.63-3.26Z" style="fill:#20386f; fill-rule:evenodd;"/><path d="M621.24,819.79c-2.88,1.11-2,3.41,.35,3.31,25.01-1.22,6.79-6.08-.35-3.31Z" style="fill:#20386f; fill-rule:evenodd;"/><path d="M620.39,847.05l.16-.02c2.69-.59,4.11-.96,4.62-1.97,.47-.93,0-1.97-.85-3.88-.94-2.09-2.37-5.28-3.6-10.54-.09-.38-.48-.61-.86-.53-.38,.08-.62,.47-.53,.86,1.26,5.37,2.71,8.64,3.68,10.8,.56,1.25,1.04,2.32,.87,2.64-.23,.45-2.13,.88-3.65,1.21-.38,.1-.63,.47-.54,.87,.07,.32,.37,.55,.7,.55Z" style="fill:#eb795b; fill-rule:evenodd;"/><path d="M628.94,835.03c1.76-.18,2.42-7.02-1.84-6.56-2.27,.24-1.03,6.87,1.84,6.56Z" style="fill:#20386f; fill-rule:evenodd;"/><path d="M607.02,837.78c1.76-.2,2.42-7.01-1.84-6.56-2.27,.24-1.04,6.86,1.84,6.56Z" style="fill:#20386f; fill-rule:evenodd;"/><path d="M460.59,252.64l-29.53,17.18c-9.96,5.78-13.36,18.67-7.57,28.62l6.52,11.21c7.69,13.22,4.34,19.2,1.95,21.34-6.57,5.88-12.66,12.27-18.77,18.62-1.8,1.87-7.5,8.25-22.51-.48l-10.3-5.97c-9.95-5.79-22.83-2.38-28.62,7.57l-17.18,29.53c-5.79,9.95-2.38,22.84,7.58,28.62l10.19,5.92c14.08,8.19,13.72,12.38,11.93,18.35-2.45,8.19-5.08,16.39-6.87,24.87-1.59,7.55-.87,12.95-20.02,12.95h-11.73c-11.53,0-20.94,9.41-20.94,20.94v34.15c0,11.54,9.41,20.94,20.94,20.94h11.73c19.15,0,18.43,5.4,20.02,12.95,1.79,8.48,4.42,16.68,6.87,24.87,1.78,5.97,2.15,10.17-11.93,18.35l-10.19,5.92c-9.95,5.79-13.37,18.67-7.58,28.62l17.18,29.53c5.79,9.96,18.67,13.37,28.62,7.57l10.3-5.97c15.01-8.73,20.72-2.34,22.51-.47,6.11,6.36,12.2,12.74,18.77,18.62,2.39,2.14,5.74,8.11-1.95,21.33l-6.52,11.21c-5.79,9.96-2.38,22.83,7.57,28.62l29.53,17.17c9.96,5.79,22.84,2.39,28.62-7.57l6.5-11.18c7.81-13.42,15.49-12.89,18.73-11.86,9.42,3,18.11,4.94,27.83,7.47,3.55,.92,9.63,3.51,9.63,19.49v11.98c0,11.53,9.4,20.94,20.94,20.94h34.15c11.53,0,20.94-9.41,20.94-20.94v-11.98c0-15.99,6.08-18.57,9.63-19.49,9.72-2.53,18.41-4.47,27.83-7.47,3.24-1.04,10.93-1.57,18.73,11.86l6.5,11.18c5.79,9.96,18.67,13.36,28.62,7.57l29.53-17.17c9.96-5.79,13.37-18.67,7.57-28.62l-6.52-11.21c-7.69-13.22-4.34-19.2-1.95-21.33,6.57-5.88,12.66-12.27,18.77-18.62,1.8-1.87,7.5-8.26,22.51,.47l10.3,5.97c9.95,5.79,22.83,2.39,28.62-7.57l17.17-29.53c5.79-9.96,2.38-22.84-7.57-28.62l-10.2-5.92c-14.07-8.18-13.72-12.38-11.93-18.35,2.44-8.19,5.08-16.39,6.87-24.87,1.59-7.55,.87-12.95,20.02-12.95h11.73c11.53,0,20.94-9.4,20.94-20.94v-34.15c0-11.53-9.41-20.94-20.94-20.94h-11.73c-19.15,0-18.43-5.4-20.02-12.95-1.79-8.48-4.43-16.68-6.87-24.87-1.79-5.97-2.14-10.17,11.93-18.35l10.2-5.92c9.95-5.79,13.37-18.67,7.57-28.62l-17.17-29.53c-5.79-9.96-18.67-13.36-28.62-7.57l-10.3,5.97c-15.01,8.73-20.72,2.35-22.51,.48-6.12-6.36-12.2-12.74-18.77-18.62-2.39-2.14-5.74-8.12,1.95-21.34l6.52-11.21c5.79-9.95,2.38-22.83-7.57-28.62l-29.53-17.18c-9.96-5.79-22.84-2.39-28.62,7.57l-6.5,11.18c-7.81,13.42-15.49,12.89-18.73,11.86-9.42-3-18.11-4.94-27.83-7.47-3.55-.92-9.63-3.5-9.63-19.49v-11.99c0-11.53-9.41-20.93-20.94-20.93h-34.15c-11.53,0-20.94,9.41-20.94,20.93v11.99c0,15.99-6.08,18.57-9.63,19.49-9.72,2.53-18.41,4.47-27.83,7.47-3.25,1.04-10.93,1.57-18.73-11.86l-6.5-11.18c-5.79-9.96-18.67-13.37-28.62-7.57h0Zm129.34,211.25c24.91,0,45.1,20.19,45.1,45.1s-20.19,45.1-45.1,45.1-45.1-20.19-45.1-45.1,20.19-45.1,45.1-45.1h0Zm-141.39,45.1c0-5.33,4.32-9.65,9.65-9.65s9.65,4.32,9.65,9.65c0,33.72,13.66,64.24,35.76,86.33,22.09,22.09,52.61,35.76,86.33,35.76,5.32,0,9.64,4.32,9.64,9.65s-4.32,9.65-9.64,9.65c-39.04,0-74.39-15.83-99.97-41.41-25.58-25.58-41.41-60.93-41.41-99.97h0Zm280.91-22.77c.83,5.25-2.75,10.17-7.99,11.01-5.24,.83-10.17-2.75-11-7.99-4.15-25.57-16.27-48.5-33.73-66.14-17.48-17.65-40.31-30.01-65.85-34.41-5.24-.89-8.77-5.88-7.88-11.12,.89-5.25,5.87-8.77,11.12-7.88,29.58,5.1,56.01,19.41,76.25,39.85,20.22,20.42,34.27,47.01,39.08,76.69h0Zm-139.52-144.76c92.52,0,167.52,75,167.52,167.52s-75,167.53-167.52,167.53-167.53-75.01-167.53-167.53,75-167.52,167.53-167.52Z" style="fill:#b0c2e4; fill-rule:evenodd;"/><path d="M963.43,475.78l-26.18,15.23c-8.83,5.13-11.85,16.55-6.71,25.38l5.78,9.94c6.82,11.73,3.85,17.03,1.73,18.92-5.83,5.22-11.23,10.88-16.65,16.52-1.59,1.65-6.65,7.32-19.96-.42l-9.13-5.3c-8.83-5.13-20.25-2.11-25.38,6.72l-15.23,26.19c-5.14,8.83-2.12,20.25,6.71,25.39l9.05,5.25c12.49,7.26,12.16,10.98,10.58,16.28-2.17,7.27-4.51,14.54-6.09,22.06-1.42,6.69-.78,11.48-17.76,11.48h-10.41c-10.23,0-18.57,8.34-18.57,18.57v30.3c0,10.23,8.34,18.57,18.57,18.57h10.41c16.98,0,16.34,4.79,17.76,11.48,1.59,7.52,3.92,14.79,6.09,22.06,1.58,5.3,1.91,9.02-10.58,16.28l-9.05,5.25c-8.83,5.14-11.85,16.56-6.71,25.39l15.23,26.19c5.13,8.83,16.55,11.85,25.38,6.71l9.13-5.3c13.31-7.75,18.37-2.09,19.96-.42,5.42,5.64,10.83,11.29,16.65,16.51,2.12,1.9,5.09,7.2-1.73,18.92l-5.78,9.93c-5.14,8.83-2.12,20.26,6.71,25.39l26.18,15.23c8.83,5.14,20.25,2.11,25.39-6.72l5.76-9.9c6.92-11.91,13.73-11.44,16.61-10.52,8.35,2.65,16.06,4.37,24.68,6.62,3.15,.83,8.54,3.11,8.54,17.29v10.63c0,10.23,8.34,18.57,18.58,18.57h30.29c10.23,0,18.56-8.34,18.56-18.57v-10.63c0-14.18,5.4-16.46,8.54-17.29,8.62-2.25,16.33-3.96,24.68-6.62,2.87-.92,9.68-1.39,16.61,10.52l5.77,9.9c5.14,8.83,16.56,11.86,25.39,6.72l26.19-15.23c8.83-5.13,11.84-16.55,6.71-25.39l-5.78-9.93c-6.83-11.72-3.85-17.02-1.73-18.92,5.83-5.22,11.23-10.87,16.65-16.51,1.59-1.67,6.65-7.33,19.97,.42l9.13,5.3c8.83,5.14,20.26,2.11,25.39-6.71l15.23-26.19c5.14-8.83,2.12-20.25-6.71-25.39l-9.05-5.25c-12.48-7.26-12.16-10.98-10.58-16.28,2.17-7.27,4.51-14.54,6.1-22.06,1.41-6.7,.77-11.48,17.75-11.48h10.4c10.23,0,18.58-8.34,18.58-18.57v-30.3c0-10.23-8.34-18.57-18.58-18.57h-10.4c-16.98,0-16.34-4.79-17.75-11.48-1.59-7.52-3.93-14.79-6.1-22.06-1.58-5.3-1.9-9.02,10.58-16.28l9.05-5.25c8.83-5.14,11.85-16.56,6.71-25.39l-15.23-26.19c-5.13-8.83-16.55-11.85-25.39-6.72l-9.13,5.3c-13.32,7.74-18.38,2.08-19.97,.42-5.42-5.64-10.83-11.3-16.65-16.52-2.12-1.89-5.1-7.2,1.73-18.92l5.78-9.94c5.13-8.83,2.11-20.25-6.71-25.38l-26.19-15.23c-8.83-5.13-20.25-2.12-25.39,6.71l-5.77,9.92c-6.93,11.91-13.74,11.44-16.61,10.51-8.36-2.66-16.06-4.38-24.68-6.62-3.15-.82-8.54-3.11-8.54-17.29v-10.63c0-10.23-8.33-18.57-18.56-18.57h-30.29c-10.23,0-18.58,8.34-18.58,18.57v10.63c0,14.18-5.39,16.47-8.54,17.29-8.62,2.24-16.33,3.96-24.68,6.62-2.88,.92-9.69,1.39-16.61-10.51l-5.76-9.92c-5.14-8.83-16.56-11.85-25.39-6.71h0Zm114.71,187.35c22.09,0,40,17.91,40,40s-17.91,40-40,40-40.01-17.91-40.01-40,17.9-40,40.01-40h0Zm-125.4,40.01c0-4.73,3.83-8.56,8.56-8.56s8.56,3.83,8.56,8.56c0,29.89,12.12,56.97,31.71,76.56,19.59,19.59,46.67,31.71,76.57,31.71,4.72,0,8.55,3.83,8.55,8.56s-3.83,8.56-8.55,8.56c-34.63,0-65.98-14.04-88.67-36.73-22.69-22.69-36.73-54.04-36.73-88.66h0Zm249.13-20.2c.74,4.65-2.43,9.02-7.09,9.76-4.65,.74-9.03-2.44-9.76-7.09-3.69-22.68-14.43-43.01-29.92-58.65-15.5-15.66-35.74-26.61-58.4-30.53-4.64-.79-7.78-5.21-6.98-9.86,.79-4.65,5.2-7.78,9.86-6.99,26.23,4.53,49.68,17.21,67.62,35.34,17.94,18.12,30.39,41.69,34.66,68.02h0Zm-123.74-128.38c82.05,0,148.57,66.52,148.57,148.58s-66.52,148.57-148.57,148.57-148.58-66.52-148.58-148.57,66.52-148.58,148.58-148.58Z" style="fill:#b0c2e4; fill-rule:evenodd;"/><path d="M1410.52,319.71l-24.33,13.59c-8.2,4.58-11.17,15.04-6.58,23.24l5.16,9.24c6.08,10.89,3.26,15.73,1.28,17.44-5.44,4.7-10.5,9.83-15.58,14.93-1.49,1.5-6.23,6.63-18.35-.7l-8.32-5.02c-8.04-4.86-18.6-2.27-23.46,5.78l-14.43,23.85c-4.86,8.04-2.27,18.59,5.77,23.46l8.24,4.97c11.38,6.88,11.02,10.3,9.48,15.15-2.12,6.65-4.38,13.3-5.96,20.19-1.41,6.14-.9,10.55-16.52,10.28l-9.58-.17c-9.4-.16-17.21,7.38-17.37,16.79l-.49,27.87c-.16,9.41,7.38,17.22,16.79,17.38l9.58,.17c15.62,.27,14.95,4.66,16.15,10.85,1.34,6.94,3.37,13.67,5.26,20.39,1.36,4.9,1.6,8.33-10,14.81l-8.4,4.69c-8.2,4.58-11.17,15.04-6.59,23.24l13.59,24.34c4.58,8.2,15.04,11.16,23.25,6.58l8.48-4.73c12.37-6.91,16.93-1.62,18.37-.07,4.89,5.27,9.78,10.57,15.06,15.46,1.92,1.78,4.56,6.7-1.89,17.38l-5.48,9.05c-4.86,8.04-2.26,18.6,5.78,23.46l23.84,14.43c8.04,4.86,18.6,2.27,23.46-5.78l5.47-9.03c6.55-10.84,12.82-10.3,15.44-9.41,7.65,2.58,14.71,4.29,22.6,6.48,2.89,.81,7.81,3,7.59,16.04l-.18,9.78c-.16,9.41,7.38,17.21,16.8,17.37l27.86,.48c9.41,.17,17.22-7.37,17.38-16.79l.16-9.77c.23-13.05,5.23-15.06,8.14-15.77,7.96-1.93,15.08-3.39,22.81-5.7,2.66-.8,8.94-1.12,15.12,9.94l5.15,9.22c4.58,8.2,15.04,11.16,23.24,6.58l24.33-13.6c8.2-4.58,11.16-15.04,6.59-23.24l-5.16-9.24c-6.08-10.89-3.27-15.73-1.29-17.44,5.45-4.71,10.51-9.83,15.58-14.93,1.5-1.5,6.25-6.63,18.37,.7l8.32,5.02c8.04,4.87,18.59,2.27,23.46-5.77l14.42-23.85c4.86-8.04,2.27-18.6-5.78-23.46l-8.24-4.98c-11.37-6.88-11.02-10.3-9.47-15.14,2.11-6.65,4.37-13.3,5.95-20.19,1.41-6.14,.89-10.55,16.52-10.28l9.56,.17c9.42,.16,17.22-7.38,17.38-16.79l.49-27.87c.16-9.41-7.38-17.22-16.79-17.38l-9.57-.16c-15.62-.27-14.96-4.66-16.15-10.85-1.34-6.94-3.37-13.67-5.26-20.39-1.38-4.9-1.6-8.33,10-14.81l8.4-4.69c8.2-4.58,11.17-15.04,6.59-23.25l-13.59-24.33c-4.58-8.21-15.05-11.17-23.25-6.59l-8.48,4.73c-12.38,6.91-16.94,1.62-18.38,.07-4.89-5.27-9.77-10.57-15.05-15.46-1.93-1.78-4.56-6.7,1.89-17.38l5.47-9.05c4.87-8.05,2.27-18.6-5.78-23.46l-23.84-14.43c-8.04-4.87-18.6-2.27-23.46,5.77l-5.46,9.03c-6.55,10.84-12.82,10.3-15.45,9.41-7.64-2.58-14.71-4.28-22.6-6.48-2.89-.8-7.81-3-7.58-16.04l.17-9.77c.16-9.41-7.37-17.22-16.79-17.38l-27.86-.48c-9.42-.17-17.22,7.37-17.38,16.78l-.17,9.78c-.23,13.05-5.22,15.06-8.13,15.77-7.96,1.93-15.08,3.38-22.82,5.7-2.66,.8-8.93,1.12-15.11-9.94l-5.14-9.21c-4.58-8.2-15.05-11.16-23.25-6.58h0Zm102.54,174.17c20.32,.35,36.52,17.11,36.16,37.43-.36,20.32-17.11,36.51-37.43,36.16-20.32-.35-36.51-17.12-36.16-37.43,.35-20.32,17.1-36.51,37.43-36.16h0Zm-115.99,34.81c.08-4.35,3.66-7.81,8.01-7.74,4.35,.08,7.82,3.66,7.73,8.01-.47,27.5,10.24,52.6,27.96,70.93,17.71,18.34,42.42,29.92,69.93,30.39,4.34,.08,7.81,3.66,7.73,8.01-.07,4.35-3.67,7.81-8.01,7.73-31.85-.55-60.46-13.96-80.98-35.19-20.52-21.23-32.93-50.3-32.38-82.15h0Zm229.51-14.62c.6,4.29-2.39,8.26-6.68,8.87-4.29,.6-8.26-2.39-8.87-6.68-3.03-20.92-12.59-39.79-26.59-54.43-14.01-14.65-32.46-25.05-53.24-29-4.26-.8-7.07-4.92-6.26-9.18,.8-4.27,4.91-7.08,9.17-6.27,24.07,4.58,45.44,16.62,61.65,33.58,16.21,16.95,27.3,38.84,30.81,63.12h0Zm-111.8-120.07c75.49,1.31,135.62,63.56,134.32,139.04-1.31,75.48-63.56,135.62-139.04,134.32-75.48-1.3-135.63-63.56-134.32-139.04,1.31-75.48,63.56-135.62,139.04-134.31Z" style="fill:#b0c2e4; fill-rule:evenodd;"/><path d="M1286.93,270.22h-432.33c3.11-13.14,14.9-22.91,28.98-22.91,.67,0,1.36,.03,2.02,.08,6.83-16.71,23.25-28.5,42.43-28.5,8.39,0,16.24,2.27,23,6.19,8.24-27.18,33.49-46.97,63.37-46.97,6.08,0,11.97,.83,17.56,2.37,14.46-31.93,46.61-54.14,83.94-54.14,44.28,0,81.26,31.25,90.1,72.9,.74-.03,1.49-.05,2.23-.05,28.37,0,51.78,21.21,55.23,48.63,11.58,2.17,20.79,11.02,23.47,22.39Z" style="fill:#fff; fill-rule:evenodd;"/><path d="M1667.46,909.59h-281.11c2.02-8.54,9.68-14.89,18.84-14.89,.44,0,.88,.02,1.32,.06,4.43-10.87,15.11-18.53,27.58-18.53,5.46,0,10.56,1.46,14.96,4.02,5.36-17.68,21.78-30.54,41.2-30.54,3.96,0,7.78,.53,11.42,1.54,9.4-20.76,30.3-35.2,54.58-35.2,28.79,0,52.83,20.32,58.58,47.4,.49-.02,.97-.03,1.46-.03,18.45,0,33.66,13.79,35.91,31.62,7.52,1.42,13.53,7.17,15.28,14.56Z" style="fill:#fff; fill-rule:evenodd;"/><path d="M544.26,981.28H185.81c2.58-10.89,12.35-19,24.03-19,.55,0,1.12,.02,1.68,.07,5.66-13.85,19.28-23.62,35.17-23.62,6.96,0,13.46,1.88,19.07,5.13,6.84-22.53,27.77-38.94,52.54-38.94,5.04,0,9.92,.69,14.55,1.96,11.99-26.47,38.64-44.89,69.6-44.89,36.71,0,67.37,25.91,74.69,60.44,.62-.02,1.24-.04,1.86-.04,23.52,0,42.92,17.58,45.79,40.32,9.6,1.8,17.24,9.14,19.46,18.58Z" style="fill:#fff; fill-rule:evenodd;"/><path d="M242.1,1311.47c70.82,0,128.23,6.55,128.23,14.62s-57.41,14.62-128.23,14.62-128.23-6.55-128.23-14.62,57.41-14.62,128.23-14.62Z" style="fill:#c4d1eb; fill-rule:evenodd;"/><path d="M1885.03,974.79c84.69,0,153.35,7.83,153.35,17.48s-68.66,17.49-153.35,17.49-153.33-7.83-153.33-17.49,68.65-17.48,153.33-17.48Z" style="fill:#c4d1eb; fill-rule:evenodd;"/><path d="M258.29,1301.73c-7.21,.68-.39,6.04-5.04,7.49-10.52-5.21-16.83-20.32-21.21-26.93-2.31-3.47-3.69,1.12-4.55,6.24-1.82,10.78-1.23,24.81,1.4,29.48-3.06-1.83-5.96-4.47-7.73-8.94-6.31,.68-1.17,6.04-5.23,7.49-9.19-5.21-13.88-20.33-17.71-26.93-2.01-3.48-3.23,1.12-3.98,6.24-1.62,10.99-1.06,23.71,1.36,28.09,2.95-.95,3.42-11.85,4.7-18.09,9.14,8.58,6.73,18.57,12.08,21.71,12.61,1.01,14.09,4.55,28.95,.89,1.18-6.28-5.83-6.6-12.22-10.32,1.71-3.48,2.91-13.46,4.36-19.61,10.46,8.58,8.65,18.58,14.77,21.71,14.43,1.01,22.21,1.09,33.13,.9,2.02-9.37-16.82-5.48-23.09-19.4Z" style="fill:#0e2952; fill-rule:evenodd;"/><path d="M186.97,799.08c-.8,3.94-1.95,7.01-3.43,9.24-2.95,1.4-6.28,4.26-9.98,8.59-3.69-.72-7.64-2.12-11.86-4.17-16.72-27.68-32.22-52.12-46.48-73.32-.19,14.09-6.85,19.11-19.96,15.06,26.33,49.75,42.44,77.54,48.35,83.38,10.31,14.32,21.55,24.37,33.71,30.11,24.16,27.37,25.58,60.98,4.26,100.81,45.11,6.76,65.73-11.67,61.86-55.32-5.17-33.01-13.89-64.76-26.18-95.24-15.09-5.9-25.19-12.28-30.28-19.14Z" style="fill:#6d96ce; fill-rule:evenodd;"/><path d="M235.47,814.1c.17-5.52-1.74-16.38-12.27-27.16,4.43,1.12,8.93,2.69,13.5,4.7,1.41-.27,4-.57,7.77-.9,5.7-6.61,9.89-15.86,12.6-27.74,3.92-20.86,6.9-44.67,8.92-71.43,7.09,4.33,20.55,4.84,23.89,2.94-4.1,49.84-10.84,84.25-20.21,103.22-3.65,10.17-.87,19.72-3.6,33.55,14.52,18.02,19.98,34.28,16.36,48.77-7.91,17.97-2.51,45.3,16.21,81.98-31.83,4.93-47.1-9.31-45.82-42.71-3.39-42.82-10.48-82.15-17.35-105.22Z" style="fill:#6d96ce; fill-rule:evenodd;"/><path d="M239.7,947.44c5.5-.19,11.48-.18,17.94,.06-3.67-7.01-5.27-16.4-4.82-28.18-3.01-38.06-8.95-73.37-15.05-96.94-4.96,5.3-10.68,6.77-17.18,4.4,10.54,27.86,18.16,56.75,22.84,86.68,1.23,13.88-.01,25.19-3.73,33.98Z" style="fill:#fff; fill-rule:evenodd;"/><path d="M282.25,1161.02c15.22-75.39,22.94-142.22,8.93-198.17-16.48,1.02-27.66-4.09-33.54-15.35-6.46-.23-12.44-.25-17.94-.06-7.45,17.59-24.83,24.95-52.15,22.1-19.01,36.12-4.65,61.33,4.75,95.11,6.9,24.79,8.54,53.16,2.73,98.01-3.32,20.25-3.21,58.32,.33,114.21,10.46,2.11,19.07,.86,25.85-3.75-2.05-36.47,1.33-72.69,10.15-108.66,8.53-37.29,12.46-77.43,11.78-120.45,6.9,53.16,6.79,92.75-.33,118.81-7.11,30.77-11.04,66.98-11.78,108.66,8.28,3.29,15.59,3.08,21.93-.66,8.48-47.46,11.16-82.42,29.29-109.8Z" style="fill:#20386f; fill-rule:evenodd;"/><path d="M222.06,788.6c-3.85,14.31-14.02,17.73-30.53,10.24l3.7,8.07c5.48,3.95,12.82,7.72,22.01,11.31,1.14,2.84,2.26,5.69,3.34,8.56,6.5,2.37,12.22,.9,17.18-4.4-.76-2.95-1.53-5.72-2.29-8.28,.13-4.17-.92-11.38-5.99-19.31-2.16-.99-4.64-3.05-7.43-6.19Z" style="fill:#f9af79; fill-rule:evenodd;"/><path d="M191.54,798.84c13.52,3.68,23.69,.26,30.53-10.24,.38-.6,.76-1.22,1.13-1.86-.35-4.18,.27-10.39,1.85-18.63-6.21-3.56-11.72-12.29-16.53-26.19-4,1.68-7.82-.67-11.46-7.03-5.35,12.01-13.86,18.78-25.53,20.29,3.03,8.56,3.63,16.03,1.8,22.42,7.22,6.51,11.63,13.06,13.26,19.64,1.7,.64,3.35,1.17,4.95,1.61Z" style="fill:#f9af79; fill-rule:evenodd;"/><path d="M195.24,806.91l-3.7-8.07c-1.6-.44-3.25-.97-4.95-1.61,.15,.62,.28,1.23,.38,1.85,1.99,2.68,4.75,5.29,8.27,7.83Z" style="fill:#466fb5; fill-rule:evenodd;"/><path d="M222.06,788.6c2.79,3.14,5.26,5.2,7.43,6.19-1.64-2.57-3.7-5.22-6.28-7.86,0-.06,0-.13-.02-.19-.37,.64-.74,1.26-1.13,1.86Z" style="fill:#466fb5; fill-rule:evenodd;"/><path d="M167.73,815.29c2.01,.71,3.96,1.25,5.83,1.62,3.7-4.32,7.03-7.18,9.98-8.59,1.48-2.23,2.63-5.31,3.43-9.24-.1-.62-.23-1.23-.38-1.85-1.62-6.57-6.04-13.12-13.26-19.63,1.83-6.39,1.23-13.86-1.8-22.42,11.67-1.51,20.18-8.28,25.53-20.29,3.63,6.37,7.45,8.71,11.45,7.03,4.81,13.9,10.32,22.63,16.53,26.19-1.58,8.24-2.2,14.45-1.85,18.63,0,.06,.01,.13,.02,.19,4.43,1.12,8.93,2.69,13.5,4.7,1.03-.2,2.7-.42,5.01-.65-2.24-2.73-4.76-6.95-7.55-12.65,1.85-4.6,1.47-10.55-1.14-17.84-5-31.3-17.55-43.14-37.64-35.51-18.98-6.95-31.15,4.24-36.49,33.54-9.59,7.43,6.69,28.37,7.53,41.56-.11,6.11,.32,11.17,1.31,15.19Z" style="fill:#20386f; fill-rule:evenodd;"/><path d="M235.47,814.1c3.91,2.54,7.12,5.14,9.64,7.77,.1-10.16-2.9-20.33-9.02-30.5-4.36-1.89-8.66-3.37-12.9-4.44,2.58,2.64,4.64,5.29,6.28,7.86,5.06,7.92,6.12,15.13,5.99,19.31Z" style="fill:#466fb5; fill-rule:evenodd;"/><path d="M210.35,834.88c1.93-7.3,4.23-12.85,6.9-16.66-9.19-3.59-16.53-7.37-22.01-11.31-3.52-2.54-6.27-5.15-8.27-7.83-.8,3.94-1.95,7.01-3.43,9.24,8.81,14.14,17.74,22.99,26.81,26.56Z" style="fill:#466fb5; fill-rule:evenodd;"/><path d="M232.06,1282.32c4.38,6.63,10.69,21.69,21.19,26.89,3.9-1.21-.24-5.16,2.52-6.81-3.47-8.14-5.32-18.22-5.55-30.21-4.96,2.05-10.45,2.14-16.49,.24-.42,3.27-.98,6.57-1.67,9.89h0Zm-32.17-4.73c.61,5.92,.49,10.77-.36,14.53,3.61,7.35,8.22,19.8,16.39,24.43,3.35-1.2,.45-5.04,2.86-6.74-2.82-8.43-3.66-19.78-2.52-34.05-4.74,1.91-10.2,2.52-16.37,1.83Z" style="fill:#f9af79; fill-rule:evenodd;"/><path d="M191.54,798.84c15.19,9.79,31.5,6.15,30.53-10.24-6.83,10.5-17.01,13.92-30.53,10.24Z" style="fill:#ed7d57; fill-rule:evenodd;"/><path d="M260.63,657.91c5.89,9.14,7.21,7.79,7.9,9,.86,1.38,.2,23.44,.2,23.44l-.1,2.55c5.71,2.39,13.54,3.05,18.15,2.46,0-7.8,.29-22.32,.25-23.12,0,0,2.86-9.47,4.47-15.47,1.6-6.01,.44-12.4,.63-14.18,0-.24,.33-6.16-1.28-13.5-1.33-6.38-2.94,.24-2.94,.24,0,0,.39,12.22-.56,12.08-.76-.09-.58-6.77-2-13.81-.37-1.82-.75-3.58-1.11-5.2-.93-4.29-3.8-5-3.57-.33,.09,1.65,.32,4.36,.75,6.27,.44,2.1,.19,4.15,.32,5.95,.24,3.57,.44,6.21,.31,6.12-.19-.11-.65,.65-1.09-1.27-.55-2.29-.61-7.41-1.68-10.74-.59-1.89-1.61-5.87-1.61-5.87,0,0-2.36-6.32-2.75-6.25-2.09,.2-1.69,5.21-.54,7.63-.09,1.96,1.11,6.11,1.11,6.11,0,0,.49,8.99-.77,9.08-1.06,.1-6.42-21.2-8.48-20.86-1.72,.31-.4,6.8-.4,6.8,0,0,1.11,3.85,1.37,5.17,.31,1.53,.89,6.23,.89,6.23,0,0,1.29,16.33,.07,16.32-1.21,0-4.29-1.31-4.72-2.3-.43-1-.27-3.22-.71-4.16-.43-1-1.84-1.91-3.08-1.5-1.26,.46-1,6-1,6,0,0,.24,4.49,1.96,7.12Z" style="fill:#f9af79; fill-rule:evenodd;"/><path d="M276.32,662.81c-1.2-4.7-3.74-8.13-8.15-10.06,5.48-.12,9.04,5.52,8.15,10.06Z" style="fill:#f48661; fill-rule:evenodd;"/><path d="M108.91,713.8c-1.25,10.8-3.02,10.17-3.1,11.57-.13,1.28,6.36,13.82,9.04,18.94-1.34,8.68-6.17,12.45-14.48,11.34-3.58-7.12-8.53-16.68-8.8-17.32,0,0-6.76-7.23-10.85-11.89-4.09-4.69-5.88-10.93-6.84-12.44-.11-.21-3.03-5.38-4.83-12.67-1.63-6.31,2.75-1.08,2.75-1.08,0,0,5.06,11.13,5.85,10.58,.64-.42-2.48-6.33-4.32-13.28-.47-1.79-.91-3.54-1.31-5.16-1.07-4.26,1.2-6.16,3.06-1.87,.65,1.52,1.63,4.05,2.1,5.96,.54,2.08,1.67,3.81,2.34,5.48,1.37,3.31,2.35,5.76,2.43,5.62,.12-.19,.86,.3,.41-1.62-.52-2.31-2.73-6.92-3.25-10.38-.31-1.95-1.16-5.98-1.16-5.98,0,0-.68-6.71-.3-6.82,1.96-.74,3.83,3.93,3.85,6.61,.95,1.72,1.72,5.97,1.72,5.97,0,0,3.54,8.28,4.71,7.8,.99-.38-3.63-21.85-1.62-22.46,1.67-.48,3.37,5.92,3.37,5.92,0,0,.71,3.94,1.06,5.24,.4,1.51,1.96,5.98,1.96,5.98,0,0,6.06,15.21,7.16,14.67,1.09-.54,3.27-3.07,3.21-4.15-.06-1.08-1.19-3.01-1.21-4.05-.04-1.08,.81-2.53,2.1-2.71,1.33-.14,3.55,4.94,3.55,4.94,0,0,1.77,4.14,1.39,7.26Z" style="fill:#f9af79; fill-rule:evenodd;"/><path d="M97.01,725.14c-1.01-4.75-.24-8.96,2.85-12.63-4.96,2.31-5.66,8.94-2.85,12.63Z" style="fill:#f48661; fill-rule:evenodd;"/><path d="M186.2,772.21c-1.49,.53-4.7-4.95-1.08-6.23,1.94-.68,3.52,5.36,1.08,6.23Z" style="fill:#20386f; fill-rule:evenodd;"/><path d="M211.81,763.13c1.49-.53,.62-6.83-3-5.54-1.94,.68,.55,6.42,3,5.54Z" style="fill:#20386f; fill-rule:evenodd;"/><path d="M184.57,760.32c2.44-.77,3.06,1.25,1.49,2.41-.46,.34-9.54,5.72-9.32,4.97,.39-1.55,3.22-5.93,7.83-7.37Z" style="fill:#20386f; fill-rule:evenodd;"/><path d="M204.56,752.57c-2.42,.83-1.75,2.84,.19,2.83,.91,0,11.17-1,10.3-1.63-1.44-1.02-6.08-2.72-10.49-1.2Z" style="fill:#20386f; fill-rule:evenodd;"/><path d="M202.95,777.48c-5.18,2.8-5.09,.11-3.47,.06,5.4-.13-.22-2.02-1.35-11.19-.11-.96,.97-1.08,1.17-.3,.13,.54,.39,2.56,.59,3.13,2.27,7.01,4.72,7.39,3.06,8.29Z" style="fill:#ed7d57; fill-rule:evenodd;"/><path d="M210.72,783.68c-4.14,15.41-14.66,4.75-12.6,3.91,10.49-4.28,13.11-5.79,12.6-3.91Z" style="fill:#fff; fill-rule:evenodd;"/><path d="M1481.07,1457.3s15.44,16.67,19.29,18.73c3.85,2.07-1.72,26.27-12.2,27.87-5.91,.93-9.18-4.75-9.18-4.75l1.69-7.02-22.06-19.76,22.47-15.07Z" style="fill:#f9af79; fill-rule:evenodd;"/><path d="M1259.86,1466.12s-1.93,22.27-.8,26.38c1.09,4.16-20.95,16.23-29.34,9.7-4.72-3.7-2.71-9.84-2.71-9.84l6.39-3.39-.28-29.12,26.74,6.26Z" style="fill:#f9af79; fill-rule:evenodd;"/><path d="M1258.93,1491.46s-10.97,1.55-16.16,1.44c-6.7-.12-14.47-1.25-14.47-1.25,0,0-13.45,4.25-17.73,6.12-9.5,4.14-20.1,8.7-22.89,13.17-.88,1.42,1.28,5.53,4.61,7.14,14.01,6.53,62.76,7.86,71.7,4.72,10.29-3.61-5.07-31.33-5.07-31.33Z" style="fill:#0e2952; fill-rule:evenodd;"/><path d="M1363.74,1208.58c3.49-1.71,6.71-3.23,9.79-4.64,10.92,12.52,23.32,26.59,36.04,41.11l-27.68,57.93c3.12-3.48-87.21,51.41-87.21,51.41,0,0-20.52,73.33-28.23,119.9-15.79,1.89-19.02,1.36-36.07-2.33-3.76-54.85,4.75-139.72,11.38-150.29,3.83-6.1,80.48-92.75,121.97-113.08Z" style="fill:#20386f; fill-rule:evenodd;"/><path d="M1455.28,1239.23c-3.14,47.46-20.83,115.02-20.14,121.67,2.71,8.77,48.68,89.95,57.31,101.76-6.85,8.98-16.95,17.45-28.35,20.13-2.25,.52-79.93-96.35-84.24-104.09-4.88-8.82-13-56.81-13.15-116.26l-2.25-58.88c19.19-18.85,50.42-31.39,61.15-29.34,18.6,3.58,30.45,53,29.66,65.02Z" style="fill:#1d417f; fill-rule:evenodd;"/><path d="M1499.48,1475.41s-6.12,8.98-9.65,12.65c-4.54,4.8-10.55,9.6-10.55,9.6,0,0-5.74,12.69-7.18,17.08-3.2,9.7-6.81,21.42-5.31,26.47,.48,1.65,4.59,4.75,7.98,2.84,13.07-7.44,48.03-42.22,51.6-50.83,4.13-9.96-26.89-17.81-26.89-17.81Z" style="fill:#0e2952; fill-rule:evenodd;"/><path d="M1182.79,905.95s-4.53-22.22-6.3-25.5c-1.77-3.29-12.11-12.9-13.15-12.62-1.04,.27-1.55,1.2-.76,3.31,.79,2.11,4.71,8.46,3.71,8.41-1.02-.06-13.65-17.75-17.65-16.2-4.01,1.57-6.44,15.5-2.85,24.72,3.59,9.21,22.06,22.14,22.88,23.6,6.96,12.35,14.13-5.71,14.13-5.71Z" style="fill:#f9af79; fill-rule:evenodd;"/><path d="M1393.69,966.65s-20.74,24.61-47.15,14.32c0,0-5.69-13.75-5.76-23.88-.02-1.24-.03-2.44-.05-3.6-.15-11.41-.53-17.81-.53-17.81,0,0,0,0,.02-.02,1.2-.49,40.39-16.57,40.36-15.24-.68,30.86,13.11,46.23,13.11,46.23Z" style="fill:#f9af79; fill-rule:evenodd;"/><path d="M1376.64,927.77c-3.78,7.01-16.74,20.7-35.91,25.71-.15-11.41-.53-17.81-.53-17.81,0,0,0,0,.02-.02,1.08-.28,37.54-9.94,36.42-7.89Z" style="fill:#ed7d57; fill-rule:evenodd;"/><path d="M1331.99,934.49s44.06,10.36,50.1-17.18c6.03-27.54,15.78-44.74-12.1-52.52-27.88-7.78-35.66,1.53-39.91,10.23-4.25,8.7-9.38,56.06,1.92,59.46Z" style="fill:#f9af79; fill-rule:evenodd;"/><path d="M1380.58,924.81c.61,.39,10.09,3.3,28.04-32.47,2.82-5.62,4.73-17.77-1.84-28.5-18.24-29.8-50.49-9.92-83.88-29.72-12.03,45.95,24.3,41.98,31.26,44.17,6.96,2.19,9.42,13.17,9.95,16.7,.52,3.51,1.32,6.43,10.08,3.29,8.75-3.14,3.96,12.4,2.56,15.38,0,0-1.2,7.93,3.83,11.14Z" style="fill:#20386f; fill-rule:evenodd;"/><path d="M1308.24,1068.34c.26,14.59,1.1,30.99,2.25,47.66,.07,.98,.15,1.97,.21,2.96,.73,10.32,1.52,20.66,2.43,30.76,.36,4.05,.75,8.03,1.16,11.97l.06,.53c.03,1.46,.21,3.07,.37,4.51,3.72,37.79,7.62,67.64,8.33,68.1,.87,.58,1.84,.86,2.91,.75,9.9-1.25,39.47,1,63.67-4.27,20.43-4.3,38.02-12.48,56.66-23.48,2.47-1.46,8.12-5.35,7.65-8.24-.45-3.19-1.29-7.77-2.35-13.56-3.66-20.1-10.01-54.68-12.17-95.13-.43-7.56-1.04-14.99-1.83-22.31-2.08-19.06-5.41-37.17-9.87-53.26-8.3-29.88-20.49-52.76-35.8-61.71-2-1.12-12.75,5.73-22.64,12.06-9.12,5.85-18.72,7.48-28.07,6.65l-8.22,9.09c-9.95,11.57-20.55,26.98-23.45,48.88-.23,1.62-.41,3.34-.57,5.16-.79,8.93-.99,20.23-.76,32.87Z" style="fill:#6d96ce; fill-rule:evenodd;"/><path d="M1308.24,1068.34c.26,14.59,1.1,30.99,2.25,47.66,.07,.98,.15,1.97,.21,2.96,56.6-35.44,65.32-100.27,65.32-100.27-27.85,1.22-49.97,7.62-67.02,16.77-.79,8.93-.99,20.23-.76,32.87Z" style="fill:#466fb5; fill-rule:evenodd;"/><path d="M1171.99,902.84c6.28-5.6,10.05-3.01,10.05-3.01,0,0,64.46,58.03,70.7,62.37,6.25,4.34,95.26,13.92,95.26,13.92,0,0,35.76,2.4,42.99,21.42,6.28,16.54-.11,29.84-8.67,39.31-10.21,11.29-26.36,15.06-40.6,9.66-31.95-12.1-95.47-36.67-107.05-45.08-25.79-18.67-69.53-88.67-69.53-88.67,0,0,1.93-5.51,6.86-9.91Z" style="fill:#6d96ce; fill-rule:evenodd;"/><path d="M1351.47,899.46c1.95,.24,4.37-7.27-.36-7.85-2.54-.31-2.82,7.44,.36,7.85Z" style="fill:#20386f; fill-rule:evenodd;"/><path d="M1330.29,897.78c-1.95-.24-2.6-8.11,2.14-7.52,2.53,.31,1.07,7.93-2.14,7.52Z" style="fill:#20386f; fill-rule:evenodd;"/><path d="M1350.24,884.6c-3.16-.28-3.37,2.34-1.17,3.32,.65,.3,13.11,4.37,12.64,3.52-.89-1.77-5.49-6.32-11.47-6.84Z" style="fill:#20386f; fill-rule:evenodd;"/><path d="M1336.23,883.04c3.16,.36,2.89,2.96,.53,3.48-1.12,.24-13.81,1.79-12.93,.79,1.47-1.63,6.64-4.93,12.39-4.27Z" style="fill:#20386f; fill-rule:evenodd;"/><path d="M1328.98,907.96c4.92,5.42,5.92,2.22,4.04,1.5-6.27-2.38,1.09-2.28,6.21-12.54,.52-1.09-.7-1.67-1.25-.83-.39,.58-1.52,2.83-1.98,3.42-5.54,7.27-8.58,6.7-7.01,8.45Z" style="fill:#ed7d57; fill-rule:evenodd;"/><path d="M1330.83,915.52c9.17,17.56,19.05,1.8,16.33,1.34-13.87-2.35-17.46-3.49-16.33-1.34Z" style="fill:#fff; fill-rule:evenodd;"/><path d="M1958.3,939.37s7.31,7.13,7.49,9.74c.17,2.61,.65,30.64-2.33,33.26-2.99,2.61-11.77,4.5-8.95,7.43,2.12,2.2,18.54,1.73,29.42,1.16,3.16-.21,7.15-25.45,8.41-29.17,1.81-5.4,8.4-17.18,6.74-20.9-.82-1.84-6.82-6.03-12.27-9.54-5.73-3.71-11.23-11.94-11.23-11.94l-17.28,19.96Z" style="fill:#f9af79; fill-rule:evenodd;"/><path d="M1860.38,956.87l6.56,18.54c.49,2.94,2.41,10.16,2.41,12.83,0,10.01-45.16-8.48-35.05-12.93,.92-.42,3.8-3.62,4.09-7.02,.48-5.23-3.79-11.78-3.79-11.78l25.77,.36Z" style="fill:#f9af79; fill-rule:evenodd;"/><path d="M1798.07,606.19l-16.34,41.69s-10.67,99.51-4.47,159.05c2.6,24.93,58.82,158.27,58.82,158.27l27.95-3.92-37.41-157.9,13.76-60.38,19.49-119.4-61.8-17.39Z" style="fill:#20386f; fill-rule:evenodd;"/><path d="M1875.08,608.33l14.03,46.4,21.32,140.14,72.13,131.09s-10.83,16.44-22.48,19.01l-102.39-132.51-55.49-165.86,1.94-36.87,70.95-1.41Z" style="fill:#223f81; fill-rule:evenodd;"/><path d="M1986.45,931.15s-15.42,46.51-22.01,48.82c-1.77,.57-11.62,3.03-13.21,6.75l-.11,.36c-.5,2.35,1.51,4.51,3.95,4.51h31.33s4.44-20.9,6.21-30.06c0,0,9.3-22.47,8.27-24.46-1.04-2.04-14.42-5.92-14.42-5.92Z" style="fill:#0e2952; fill-rule:evenodd;"/><path d="M1871.91,991.53l-5.17-16.34s-10.85,4.61-16.27,3.83c-5.44-.74-16.04-3.83-16.04-3.83-21.67,7.13-39.42,10.58-36.21,16.34h73.69Z" style="fill:#0e2952; fill-rule:evenodd;"/><path d="M1870.01,438.08c41.96,5.73,49.14,40.29,37.11,76.88-11.25,34.21-24.51,77.62-23.61,89.39,1.56,20.22,5.99,50.17,5.99,50.17,0,0-78.74,4.92-108.35-6.6,0,0,9.9-45.88,9.9-57.87s5.25-132.24,8.98-138.52c3.75-6.29,11.27-9.85,25.56-12.94,14.29-3.09,44.42-.52,44.42-.52Z" style="fill:#6d96ce; fill-rule:evenodd;"/><path d="M1864.27,405.66l5.21,33.62s-19.05,40.06-30.43,36.61c-9.54-2.93-3.66-38.34-3.66-38.34,0,0,5.21-19.06,3.66-28.59-1.58-9.48,25.23-3.3,25.23-3.3Z" style="fill:#f9af79; fill-rule:evenodd;"/><path d="M1839.04,408.96c-1.58-9.48,25.23-3.3,25.23-3.3l.43,2.78c-.79,1.88-1.73,3.51-2.92,4.71-5.97,6.29-15.33,10.11-23.41,10.37,.81-5.13,1.31-10.63,.68-14.55Z" style="fill:#f48661; fill-rule:evenodd;"/><path d="M1868.65,358.1c.75-.26,6.07,38.28-4,48.92-10.09,10.58-29.72,14.09-36.77,5.71-3.48-4.11-10.44-15.72-5.55-28.79,4.96-13.25,5.15-26.79,13.84-32.85,15.65-10.9,32.49,7.01,32.49,7.01Z" style="fill:#f9af79; fill-rule:evenodd;"/><path d="M1836.95,318.43c14.68,29.65,30.55,25.44,33.43,28.54,23.15,2.64,37.44,40.83,14.04,58.48-11.06,8.38-18.2,12.78-18.2,12.78l-1.77-5.08c-1.29-3.77-1.81-7.8-1.39-11.78,.27-2.35,.79-4.92,1.8-7.07,2.65-5.55-5.7-9.27-8.07-13.93-1.8-3.56-1.88-11.78-4.73-17.65l-3.41-4.55s-7.83-5.97-15.51-4.25c-7.67,1.68-12.82-17.73,3.81-35.48Z" style="fill:#20386f; fill-rule:evenodd;"/><path d="M1857.31,387.22c-.07,4.71,2.12,8.59,4.88,8.59,2.78,.05,5.11-3.72,5.17-8.43,.08-4.72-2.09-8.54-4.87-8.59-2.78-.05-5.1,3.72-5.18,8.43Z" style="fill:#f9af79; fill-rule:evenodd;"/><path d="M1721.21,625.19c11.65,.06,11.13,1.95,12.65,1.9,1.77-.04,21.55-12.9,21.55-12.9,0,0,58.59-37.56,61.68-39.7l39.19-59.03,35.57,9.81s-44.38,63.14-47.31,66.07c-2.92,2.94-88.03,44.95-95.44,48.9,0,0-7.1,7.79-11.7,12.53-4.56,4.72-11.11,7.32-12.59,8.45-.25,.2-5.48,3.74-13.11,6.49-6.57,2.35-1.38-2.77-1.38-2.77,0,0,11.38-6.46,10.73-7.22-.49-.61-6.55,3.29-13.79,5.98-1.82,.67-3.71,1.35-5.39,1.95-4.47,1.62-6.67-.55-2.28-2.92,1.54-.84,4.19-2.19,6.18-2.88,2.15-.75,3.87-2.11,5.62-3.01,3.37-1.78,5.89-3.04,5.76-3.16-.2-.11,.24-.93-1.76-.25-2.43,.81-7.16,3.62-10.76,4.53-2.04,.52-6.29,1.9-6.29,1.9,0,0-6.78,.89-6.94,.53-1-1.95,3.5-3.83,6.38-4.2,1.72-1.14,6.21-2.42,6.21-2.42,0,0,8.5-4.58,7.9-5.76-.29-.47-5.83,1.73-11.63,3.11-5.37,1.25-11,1.7-11.38,.69-.7-1.64,5.15-3.66,5.15-3.66,0,0,4.12-1.19,5.48-1.69,1.58-.58,6.19-2.67,6.19-2.67,0,0,15.7-8.03,15-9.07-.7-1.04-3.62-2.99-4.77-2.82-1.13,.17-3.09,1.55-4.22,1.72-1.14,.16-2.76-.55-3.08-1.87-.32-1.33,4.94-4.22,4.94-4.22,0,0,4.24-2.29,7.65-2.3Z" style="fill:#f9af79; fill-rule:evenodd;"/><path d="M1879.88,552.51l-41.73-15.74s4.72-20.69,14.85-35.7c25.59-56.11,54.21-48.9,58-25.86,5.34,18.48-31.12,77.31-31.12,77.31Z" style="fill:#466fb5; fill-rule:evenodd;"/><path d="M1844.46,382.82c1.62,.37,4.3-5.72,.37-6.63-2.1-.47-3.01,6.01-.37,6.63Z" style="fill:#20386f; fill-rule:evenodd;"/><path d="M1826.7,378.44c-1.62-.38-1.47-7.03,2.46-6.13,2.09,.47,.19,6.75-2.46,6.13Z" style="fill:#20386f; fill-rule:evenodd;"/><path d="M1844.73,370.23c-2.63-.5-3.03,1.67-1.26,2.69,.51,.3,10.62,4.81,10.3,4.05-.6-1.56-4.06-5.78-9.04-6.74Z" style="fill:#20386f; fill-rule:evenodd;"/><path d="M1832.97,366.58c2.62,.57,2.16,2.74,.14,2.97-.95,.1-11.75,.3-10.91-.46,1.38-1.24,6-3.56,10.78-2.51Z" style="fill:#20386f; fill-rule:evenodd;"/><path d="M1825.72,391.48c4.13,4.58,4.99,1.89,3.41,1.28-5.28-2.02,.92-1.92,5.26-10.57,.44-.91-.58-1.41-1.05-.71-.32,.49-1.29,2.39-1.67,2.88-4.7,6.12-7.26,5.64-5.94,7.11Z" style="fill:#ed7d57; fill-rule:evenodd;"/><path d="M1826.4,398.76c6.17,15.54,15.84,3.17,13.59,2.54-11.43-3.18-14.34-4.44-13.59-2.54Z" style="fill:#fff; fill-rule:evenodd;"/><path d="M85.82,428.98l-16.26,9.46c-5.48,3.19-7.35,10.28-4.17,15.76l3.59,6.17c4.23,7.28,2.39,10.57,1.07,11.75-3.62,3.24-6.97,6.75-10.34,10.25-.98,1.03-4.13,4.55-12.39-.26l-5.67-3.29c-5.48-3.19-12.57-1.31-15.76,4.17l-9.45,16.26c-3.19,5.48-1.31,12.57,4.17,15.76l5.61,3.26c7.75,4.51,7.55,6.82,6.57,10.1-1.35,4.51-2.8,9.02-3.78,13.69-.88,4.16-.48,7.13-11.02,7.13h-6.46c-6.35,0-11.53,5.18-11.53,11.53v18.8c0,6.35,5.18,11.53,11.53,11.53h6.46c10.54,0,10.15,2.97,11.02,7.13,.99,4.67,2.43,9.18,3.78,13.69,.98,3.28,1.18,5.6-6.57,10.1l-5.61,3.26c-5.48,3.19-7.36,10.28-4.17,15.76l9.45,16.26c3.19,5.48,10.28,7.36,15.76,4.17l5.67-3.29c8.26-4.81,11.41-1.29,12.39-.26,3.37,3.5,6.72,7.01,10.34,10.25,1.31,1.18,3.16,4.47-1.07,11.75l-3.59,6.17c-3.19,5.48-1.31,12.57,4.17,15.76l16.26,9.45c5.48,3.19,12.57,1.31,15.76-4.17l3.58-6.15c4.3-7.39,8.53-7.1,10.31-6.53,5.19,1.65,9.98,2.72,15.33,4.11,1.95,.51,5.3,1.93,5.3,10.73v6.6c0,6.35,5.18,11.53,11.53,11.53h18.81c6.35,0,11.52-5.18,11.52-11.53v-6.6c0-8.8,3.35-10.22,5.3-10.73,5.35-1.39,10.14-2.46,15.32-4.11,1.78-.57,6.02-.86,10.31,6.53l3.58,6.15c3.19,5.49,10.28,7.36,15.76,4.17l16.26-9.45c5.48-3.19,7.36-10.28,4.17-15.76l-3.59-6.17c-4.23-7.28-2.39-10.57-1.07-11.75,3.62-3.24,6.97-6.76,10.34-10.25,.99-1.03,4.13-4.55,12.39,.26l5.67,3.29c5.48,3.19,12.57,1.31,15.76-4.17l9.45-16.26c3.19-5.48,1.31-12.57-4.17-15.76l-5.61-3.26c-7.75-4.51-7.55-6.82-6.57-10.1,1.35-4.51,2.8-9.02,3.78-13.69,.88-4.16,.48-7.13,11.03-7.13h6.46c6.35,0,11.52-5.18,11.52-11.53v-18.8c0-6.36-5.17-11.53-11.52-11.53h-6.46c-10.55,0-10.15-2.97-11.03-7.13-.98-4.67-2.43-9.18-3.78-13.69-.98-3.29-1.18-5.6,6.57-10.1l5.61-3.26c5.49-3.19,7.36-10.28,4.17-15.76l-9.45-16.26c-3.19-5.48-10.28-7.35-15.76-4.17l-5.67,3.29c-8.27,4.81-11.41,1.29-12.39,.26-3.37-3.5-6.72-7.01-10.34-10.25-1.31-1.18-3.16-4.47,1.07-11.75l3.59-6.17c3.19-5.48,1.31-12.57-4.17-15.76l-16.26-9.46c-5.48-3.18-12.57-1.31-15.76,4.17l-3.58,6.15c-4.3,7.39-8.53,7.1-10.31,6.53-5.19-1.65-9.97-2.72-15.32-4.11-1.96-.51-5.3-1.93-5.3-10.73v-6.6c0-6.35-5.18-11.53-11.52-11.53h-18.81c-6.35,0-11.53,5.18-11.53,11.53v6.6c0,8.81-3.35,10.23-5.3,10.73-5.35,1.39-10.14,2.46-15.33,4.11-1.78,.57-6.02,.86-10.31-6.53l-3.58-6.15c-3.19-5.48-10.28-7.35-15.76-4.17h0Zm71.21,116.31c13.71,0,24.83,11.12,24.83,24.83s-11.12,24.83-24.83,24.83-24.83-11.12-24.83-24.83,11.12-24.83,24.83-24.83h0Zm-77.84,24.83c0-2.93,2.38-5.31,5.31-5.31s5.32,2.38,5.32,5.31c0,18.56,7.52,35.37,19.69,47.53,12.16,12.17,28.96,19.69,47.53,19.69,2.93,0,5.31,2.38,5.31,5.32s-2.38,5.31-5.31,5.31c-21.49,0-40.95-8.72-55.04-22.8-14.09-14.09-22.8-33.55-22.8-55.04h0Zm154.67-12.54c.46,2.89-1.51,5.61-4.4,6.06-2.89,.46-5.6-1.51-6.06-4.4-2.29-14.08-8.96-26.7-18.57-36.41-9.62-9.72-22.19-16.52-36.25-18.95-2.89-.49-4.83-3.24-4.34-6.12,.49-2.89,3.23-4.83,6.12-4.34,16.29,2.81,30.85,10.68,41.98,21.93,11.13,11.25,18.87,25.88,21.52,42.22h0Zm-76.82-79.7c50.94,0,92.24,41.3,92.24,92.24s-41.3,92.24-92.24,92.24-92.24-41.3-92.24-92.24,41.3-92.24,92.24-92.24Z" style="fill:#b0c2e4; fill-rule:evenodd;"/></svg>