<?xml version="1.0" encoding="UTF-8"?><svg id="a" xmlns="http://www.w3.org/2000/svg" viewBox="0 0 1946.34 1386.81"><path d="M1726.89,93.17c-293.15-108.84-591.06-12.6-793.14,196.92-101.06,104.83-257.66,68.62-417.11,32.41-159.35-36.21-321.52-72.39-433.95,32.2C-70.78,497.47-.5,864.57,209.97,1023.54c286.09,216.11,1351.76,222.63,1528.61,148.45,302.12-126.77,1.9-361.43,142.94-586.37,166.38-265.37-25.07-444.38-154.63-492.45Z" style="fill:#e0e8f5; fill-rule:evenodd;"/><path d="M1059.74,1048.21c-92.5,0-167.5,12.37-167.5,27.72s75,27.65,167.5,27.65,167.47-12.43,167.47-27.65-74.94-27.72-167.47-27.72Z" style="fill:#c4d1eb; fill-rule:evenodd;"/><path d="M981.51,30.46c-40.12,0-72.66,32.54-72.66,72.66s32.54,72.69,72.66,72.69,72.73-32.54,72.73-72.69-32.57-72.66-72.73-72.66Z" style="fill:#c4d1eb; fill-rule:evenodd;"/><path d="M1024.11,73.7h-85.13c-1.36,0-2.44,1.09-2.44,2.45v53.98c0,1.36,1.09,2.41,2.44,2.41h85.13c1.32,0,2.41-1.05,2.41-2.41v-53.98c0-1.36-1.09-2.45-2.41-2.45Z" style="fill:#fff; fill-rule:evenodd;"/><path d="M945.61,79.62c-.85-.75-2.14-.68-2.92,.17-.75,.85-.68,2.14,.17,2.92l37.3,33.29c.82,.71,2.01,.68,2.79-.04l37.26-33.26c.85-.78,.92-2.07,.13-2.92-.75-.85-2.04-.92-2.89-.17l-35.94,32.07-35.9-32.07Z" style="fill:#c4d1eb; fill-rule:evenodd;"/><path d="M77.8,471.75c39,0,70.62,6.59,70.62,14.67s-31.62,14.71-70.62,14.71-70.66-6.59-70.66-14.71,31.62-14.67,70.66-14.67Z" style="fill:#c4d1eb; fill-rule:evenodd;"/><path d="M99.61,331.87c-.24-1.05,.41-2.07,1.46-2.31,1.05-.24,2.11,.41,2.34,1.43,3.23,13.93,3.43,28.26-.14,43.14-3.53,14.78-10.77,30.1-22.45,46.03-.61,.88-1.83,1.05-2.72,.41-.88-.61-1.05-1.83-.41-2.72,11.35-15.52,18.38-30.33,21.81-44.64,3.4-14.23,3.19-27.96,.1-41.34Z" style="fill:#9db2d9; fill-rule:evenodd;"/><path d="M101.95,334.11c-17.6-40.02-16.54-77.79,3.09-113.46-44.8,37.09-45.82,74.9-3.09,113.46Z" style="fill:#c4d1eb; fill-rule:evenodd;"/><path d="M105.04,220.65c-19.63,35.67-20.69,73.44-3.09,113.46,40.42-31.05-10.12-64.75,3.09-113.46Z" style="fill:#9db2d9; fill-rule:evenodd;"/><path d="M78.28,383.71c-.1-1.05,.64-2,1.73-2.11,1.09-.1,2,.68,2.11,1.73,.48,4.72,.58,11.55,.17,19.29-.31,6.69-.99,14.13-2.14,21.5-.17,1.05-1.16,1.77-2.24,1.6-1.05-.14-1.77-1.16-1.63-2.21,1.16-7.2,1.8-14.47,2.14-21.06,.37-7.58,.27-14.23-.13-18.75Z" style="fill:#9db2d9; fill-rule:evenodd;"/><path d="M80.62,387.37c18.61-33.83,5.2-65.8-40.22-95.9,24.02,34.85,37.43,66.82,40.22,95.9Z" style="fill:#c4d1eb; fill-rule:evenodd;"/><path d="M80.62,387.37c-2.79-29.08-16.2-61.04-40.22-95.9,14.27,47.45-16.68,65.02,40.22,95.9Z" style="fill:#9db2d9; fill-rule:evenodd;"/><path d="M79.64,422.29c.03,1.09-.82,1.97-1.9,2-1.05,.03-1.94-.82-2-1.87-.14-4.99-1.29-9.99-2.79-14.5-2.38-7.17-5.64-13.01-7.2-15.56-.58-.92-.31-2.11,.65-2.68,.88-.58,2.11-.27,2.65,.61,1.66,2.68,5.1,8.87,7.57,16.41,1.6,4.82,2.82,10.19,3.02,15.59Z" style="fill:#7bb173; fill-rule:evenodd;"/><path d="M26.2,396.14c11.72,27.04,36.86-5.84,45.86-.41-2.68-6.12-6.45-10.46-10.7-12.67-12.4-6.49-22.66,16.1-35.16,13.08Z" style="fill:#9db2d9; fill-rule:evenodd;"/><path d="M137.72,414.45v35.26c0,22.18-18.17,40.39-40.35,40.39h-31.96c-22.22,0-40.42-18.21-40.42-40.39v-35.26h112.74Z" style="fill:#9db2d9; fill-rule:evenodd;"/><path d="M126.31,477.8c-55.13,17.7-81.63-6.66-76.36-63.35H24.98v35.26c0,22.18,18.21,40.39,40.42,40.39h31.96c11.31,0,21.6-4.76,28.94-12.3Z" style="fill:#b0c2e4; fill-rule:evenodd;"/><path d="M1037.15,952.42s21.84-25.55,1.32-41.72c0,0-14.91-8.97-27.14-8.29,0,0,17.29,28.94,11.68,31.86-5.57,2.92-16.91-33.63-16.91-33.63,0,0-34.04-3.33-44.98,1.9,0,0,29.08,23.78,22.93,25.27-6.08,1.36-37.54-22.01-37.54-22.01,0,0-31.66,5.44-29.96,24.73,1.66,19.29,12.6,25.27,17.39,24.8,4.79-.48,32.85-11.21,33.46-7.27,.61,3.94-16.27,16.71-28.09,17.39,0,0,22.32,24.59,37.16,17.46,14.84-7.13,16.1-18.41,25.34-22.62,9.27-4.21,17.16-4.21,13.35,.14-3.84,4.35-20.59,8.49-25.85,17.8-5.3,9.38-10.05,15.76,5.33,13.38,15.32-2.31,40.29-13.52,41.41-26.43l1.09-12.77Z" style="fill:#c4d1eb; fill-rule:evenodd;"/><path d="M932.09,931.08s86.08-3.33,105.07,21.33c0,0,4.21,12.5,17.09,23.98l2.04,5.5s-14.88-15.76-20.21-16.71c0,0,8.32-30.44-103.98-34.1Z" style="fill:#9db2d9; fill-rule:evenodd;"/><path d="M1054.24,976.4s18.48,13.65,19.84,38.11l-3.4,.27s-5.91-25.28-16.58-35.12c-10.67-9.85,.13-3.26,.13-3.26Z" style="fill:#9db2d9; fill-rule:evenodd;"/><path d="M1113.48,920.35s-34.78-19.43-18.61-45.79c0,0,13.04-16.17,26.9-20.38,0,0-7.47,39.34,0,40.22,7.34,.95,5.09-44.43,5.09-44.43,0,0,36.55-17.53,50.89-16.17,0,0-22.69,38.45-15.29,37.5,7.41-.95,32.88-39.81,32.88-39.81,0,0,37.43-6.93,43.55,15.29,5.98,22.22-3.8,33.36-9.31,34.72-5.5,1.36-41.24,.95-40.29,5.57,.95,4.62,25,11.96,38.45,7.88,0,0-14.81,36.55-34.24,34.65-19.43-1.83-25.47-13.86-37.5-14.81-12.02-.95-20.79,2.31-14.81,5.57,5.98,3.26,26.36,1.09,36.15,9.31,9.65,8.29,17.53,13.38-.54,17.05-18.01,3.74-50.41,1.43-56.86-12.5l-6.46-13.86Z" style="fill:#fff; fill-rule:evenodd;"/><path d="M1221.71,853.7s-97.15,31.45-108.23,66.65c0,0,.41,15.76-9.31,33.83v6.93s10.12-23.64,15.76-26.91c0,0-21.81-30.57,101.77-80.5Z" style="fill:#9db2d9; fill-rule:evenodd;"/><path d="M1104.17,954.18s-15.01,22.69-6.46,50.41l3.87-1.02s-3.74-30.5,4.08-45.86c7.81-15.35-1.49-3.53-1.49-3.53Z" style="fill:#9db2d9; fill-rule:evenodd;"/><path d="M1058.18,893.58s45.79-25.68,24.46-60.46c0,0-17.12-21.33-35.39-26.77,0,0,9.71,51.77,0,52.99-9.78,1.22-6.73-58.56-6.73-58.56,0,0-48.2-23.17-67.12-21.33,0,0,29.93,50.68,20.14,49.46-9.75-1.22-43.31-52.45-43.31-52.45,0,0-49.42-9.17-57.34,20.11-7.92,29.22,4.89,43.89,12.19,45.79,7.34,1.77,54.32,1.15,53.09,7.27-1.22,6.05-32.95,15.83-50.65,10.4,0,0,19.53,48.17,45.15,45.72,25.61-2.45,33.56-18.28,49.43-19.5,15.86-1.22,27.45,2.99,19.5,7.34-7.91,4.21-34.75,1.36-47.56,12.23-12.84,10.87-23.2,17.67,.61,22.49,23.81,4.89,66.48,1.84,75.04-16.44l8.49-18.28Z" style="fill:#fff; fill-rule:evenodd;"/><path d="M915.48,805.67s128.1,41.51,142.7,87.91c0,0-.54,20.72,12.23,44.5v9.17s-13.46-31.12-20.72-35.39c0,0,28.67-40.29-134.21-106.19Z" style="fill:#9db2d9; fill-rule:evenodd;"/><path d="M1070.41,938.08s19.77,29.96,8.49,66.51l-5.1-1.36s4.96-40.22-5.43-60.47c-10.26-20.24,2.04-4.69,2.04-4.69Z" style="fill:#9db2d9; fill-rule:evenodd;"/><path d="M1024.79,1076.74c-32.1-13.66-54.66-45.52-54.66-82.61h179.22c0,37.09-22.55,68.96-54.62,82.61h-69.94Z" style="fill:#9db2d9; fill-rule:evenodd;"/><path d="M1083.86,1076.74c32.07-13.66,54.62-45.52,54.62-82.61h-22.28c0,37.09-22.55,68.96-54.62,82.61h22.28Z" style="fill:#c4d1eb; fill-rule:evenodd;"/><rect x="968.09" y="994.13" width="184.25" height="2.78" style="fill:#859ac6;"/><path d="M1411.59,1060.71s-.34-8.56-8.15-12.91c-6.93-3.94-15.36-.14-19.7,7.47-4.96,8.77-4.35,22.83,7.41,41.51,22.08,.55,34.44-6.18,39.47-15.01,4.28-7.61,3.19-16.85-3.74-20.79-7.81-4.35-15.28-.27-15.28-.27Z" style="fill:#c4d1eb; fill-rule:evenodd;"/><path d="M1330.81,1028.78s2.11-9.65,11.75-13.04c8.56-3.12,17.39,2.85,20.79,12.3,3.94,10.94,.47,26.77-16.51,45.59-25-3.8-37.7-13.86-41.64-24.73-3.4-9.51-.41-19.7,8.22-22.83,9.72-3.4,17.39,2.72,17.39,2.72Z" style="fill:#c4d1eb; fill-rule:evenodd;"/><path d="M1371.17,960.97s-7.27-8.08-18.28-6.04c-9.92,1.76-15.08,12.29-13.04,23.16,2.24,12.5,14.27,25.68,40.69,34.24,21.74-17.32,28.33-33.83,26.02-46.4-1.97-10.8-10.46-18.89-20.38-17.05-11.08,1.97-15.01,12.09-15.01,12.09Z" style="fill:#c4d1eb; fill-rule:evenodd;"/><path d="M400.71,145.62l100.86-9c11.89-1.09,20.69-11.58,19.6-23.47l-5.03-56.8c-1.09-11.89-11.58-20.69-23.47-19.6l-100.89,9c-11.89,1.05-20.65,11.55-19.6,23.44l1.8,20.04-30.91,45.21,33.8-12.77,.37,4.31c1.09,11.92,11.58,20.69,23.47,19.63Z" style="fill:#c4d1eb; fill-rule:evenodd;"/><path d="M474.97,81.65l-12.94,.82s-17.29-10.84-18.14-15.12c-.85-4.21,1.05-13.55-1.56-14.47-2.62-.95-8.05-1.43-10.94,4.55-2.11,4.31,1.16,19.23-.31,20.38-.88,.71-8.32,1.39-13.76,1.8-3.57,.27-6.69,2.51-8.12,5.81h0c-.95,2.24-.2,4.82,1.77,6.22l3.09,2.17-2.04,3.19c-1.5,2.41-.78,5.54,1.6,7.07l2.38,1.56-1.39,1.87c-1.84,2.45-1.12,5.95,1.53,7.47l2.14,1.29-.27,.58c-1.05,2.45-.1,5.27,2.24,6.56l2.11,1.16,34.51-2.17c3.23-.2,6.39-1.09,9.27-2.55l11.99-2.79c1.26-.27,2.14-1.46,2.04-2.82l-2.38-30.13c-.1-1.46-1.36-2.55-2.82-2.45Z" style="fill:#fff; fill-rule:evenodd;"/><path d="M1489.86,.03c-33.29-.75-60.6,15.18-61.01,35.6-.27,10.23,6.25,19.6,16.99,26.56l-14.2,29.79,28.94-22.76c8.22,2.85,17.6,4.55,27.58,4.76,33.22,.78,60.54-15.15,61.08-35.57,.41-20.45-26.09-37.64-59.38-38.39Z" style="fill:#c4d1eb; fill-rule:evenodd;"/><path d="M1461.19,41.37c3.39,13.99,17.53,22.56,31.52,19.12,14-3.43,22.55-17.6,19.16-31.56-3.46-13.99-17.6-22.59-31.59-19.12-13.99,3.43-22.56,17.56-19.09,31.56Z" style="fill:#859ac6; fill-rule:evenodd;"/><path d="M1501,35.83c1.9,7.51-2.72,15.05-10.19,16.88-7.47,1.83-15.08-2.75-16.85-10.23l27.04-6.66Z" style="fill:#fff; fill-rule:evenodd;"/><path d="M293.64,710.96v-56.52c0-10.4,8.46-18.82,18.85-18.82h107.75c10.39,0,18.82,8.42,18.82,18.82v56.52c0,10.39-8.43,18.82-18.82,18.82h-64.78l-79.69,38.45,46.98-38.45h-10.26c-10.39,0-18.85-8.43-18.85-18.82Z" style="fill:#c4d1eb; fill-rule:evenodd;"/><path d="M1258.33,645.23c-113.05,0-204.7,10.56-204.7,23.57s91.65,23.57,204.7,23.57,204.63-10.56,204.63-23.57-91.58-23.57-204.63-23.57Z" style="fill:#c4d1eb; fill-rule:evenodd;"/><path d="M794,529.84c-125.99,0-228.13,10.56-228.13,23.57s102.14,23.58,228.13,23.58,228.17-10.56,228.17-23.58-102.14-23.57-228.17-23.57Z" style="fill:#c4d1eb; fill-rule:evenodd;"/><path d="M303.63,522.67c-109.96,0-199.09,10.56-199.09,23.57s89.13,23.58,199.09,23.58,199.13-10.56,199.13-23.58-89.17-23.57-199.13-23.57Z" style="fill:#c4d1eb; fill-rule:evenodd;"/><path d="M217.52,1334.77c-103.47,0-187.41,11.68-187.41,26.02s83.94,26.02,187.41,26.02,187.37-11.68,187.37-26.02-83.9-26.02-187.37-26.02Z" style="fill:#c4d1eb; fill-rule:evenodd;"/><path d="M764.42,1327.64c118.86,0,215.2,11.75,215.2,26.29s-96.34,26.36-215.2,26.36-215.16-11.82-215.16-26.36,96.3-26.29,215.16-26.29Z" style="fill:#c4d1eb; fill-rule:evenodd;"/><path d="M1089.16,663.34c27.31-.44,47.69-.75,57.2-3.74,10.19-3.23,8.02-9.41,2.17-19.36-25.68,11.86-18.89-2.41-30.91-.61-8.49,6.83-20.99,11.38-37.57,13.69-7,5.2-4.21,9.82,9.1,10.02Z" style="fill:#0e2952; fill-rule:evenodd;"/><path d="M1124.22,247.18h168.83c3.33,0,6.73,2.72,7.61,6.05l30.03,114.34c.88,3.33-1.15,6.05-4.41,6.05h-168.76c-3.39,0-6.79-2.72-7.68-6.05l-30.03-114.34c-.88-3.33,1.16-6.05,4.42-6.05Z" style="fill:#c4d1eb; fill-rule:evenodd;"/><path d="M1304.25,250.48l20.38,77.62c24.52-11.96,54.01-31.11,84.92-55.71,.81-11.04,1.9-19.91,3.12-26.46-2.45-4.92-5.23-10.19-8.15-15.79,28.53-.17,45.92-6.32,52.18-18.41-7.61-22.35-18.34-45.18-32-68.45-9.58-14.2-28.4-22.52-56.32-25-3.26,37.5-60.87,35.6-47.28,3.29-20.92,5.61-38.59,15.93-53.06,31.05-12.5,30.74-20.11,52.18-22.83,64.34,13.52,9.48,26.36,15.59,38.45,18.41,.61,2.65,1.02,5.67,1.29,9.07h11.68c3.33,0,6.8,2.72,7.61,6.04Z" style="fill:#6d96ce; fill-rule:evenodd;"/><path d="M1324.63,328.1l-20.38-77.62c-.81-3.33-4.28-6.04-7.61-6.04h-168.76c-3.33,0-9.24,4.28-8.29,7.61-.14-2.79,1.77-4.86,4.62-4.86h168.83c3.33,0,6.73,2.72,7.61,6.05l30.03,114.34c.54,1.97,.07,3.77-1.15,4.86,2.72-1.8,5.43-5.26,4.75-7.61l-9.65-36.72Z" style="fill:#859ac6; fill-rule:evenodd;"/><path d="M1326.26,373.62h-168.76c-.68,0-1.29-.1-1.9-.27,3.4,8.7,12.5,7.4,16.03,7.4h200.15c10.8-.48,10.53-8.08,10.67-15.42h-48.03c.14,2.34-2.31,5.44-4.89,7.1-.82,.75-1.97,1.19-3.26,1.19Z" style="fill:#859ac6; fill-rule:evenodd;"/><path d="M1302.62,294.2c-18.07,9.17-39.47,11.96-61.48,13.08,.2,.78,.41,1.6,.54,2.45,1.43,9.27-5.09,17.16-14.54,17.16-8.9,0-16.92-7.03-18.28-15.8-.2-.95-.27-1.9-.27-2.79-22.83,.61-44.9,1.84-63.18,9l12.63,47.79h163.19l-18.62-70.89Z" style="fill:#9db2d9; fill-rule:evenodd;"/><path d="M1223.54,299.46c5.98,0,11.68,4.89,12.64,10.94,.95,6.05-3.13,10.94-9.24,10.94s-11.69-4.89-12.64-10.94c-.95-6.05,3.12-10.94,9.24-10.94Z" style="fill:#9db2d9; fill-rule:evenodd;"/><path d="M1417.71,345.76c-3.4-10.26-5.85-20.92-7.27-31.96-22.76,8.8-48.71,17.32-81.6,30.27l4.49,16.92c49.6,1.6,77.72-3.46,84.38-15.22Z" style="fill:#6d96ce; fill-rule:evenodd;"/><path d="M1328.84,344.06c32.88-12.94,58.84-21.47,81.6-30.27,20.04-7.74,37.57-15.76,54.96-27.28-.68-22.25-4.08-43.79-13.32-68.75-8.42,8.08-24.32,12.2-47.55,12.37,6.72,12.77,12.23,23.74,16.44,32.98-35.06,29.04-68.82,51.56-96.34,64.98l4.21,15.96Z" style="fill:#f9af79; fill-rule:evenodd;"/><path d="M1249.63,219.91c-2.58,8.83-4.89,17.02-7.07,24.53h42.39c-.27-3.4-.68-6.42-1.29-9.07-10.8-2.51-22.15-7.64-34.04-15.45Z" style="fill:#f9af79; fill-rule:evenodd;"/><path d="M1146.5,631.27c25.13-91.04,34.1-155,26.97-191.86,14.26,2.04,28.6,2.68,43,1.94-2.17-9.88-4.42-19.73-6.66-29.76,.27-13.55,7.2-23.64,31.8-30.84h-69.98c-2.31,0-7.2,.58-11.14-1.63-22.56,6.46-33.56,17.09-37.36,30.06-2.72,35.7,4.69,76.4-1.63,222.36,7.88,.81,16.24,.71,25-.27Z" style="fill:#0e2952; fill-rule:evenodd;"/><path d="M1172.72,380.75h-1.09c-2.31,0-7.2,.58-11.14-1.63-22.56,6.46-33.56,17.09-37.36,30.06-2.72,35.7,4.69,76.4-1.63,222.36,4.75,.48,9.58,.65,14.6,.48,12.98-50.72,43.82-175.21,9.04-228.85,8.15-8.63,17.39-16.13,27.58-22.42Z" style="fill:#1d417f; fill-rule:evenodd;"/><path d="M1368.32,118.65c-4.48-5.67-8.43-10.97-9.58-14.71,.88-2.58,1.9-5.84,2.85-9.75,16.71-11.38,19.02-19.8,6.86-25.27-2.45,1.39-5.5,5.64-9.17,12.74-2.85-.13-5.09-1.6-6.59-4.48,3.46-11.96,5.7-21.71,6.73-29.18-8.22-12.26-27.52-14.03-53.13-10.7-1.16,6.79-2.11,14.03-2.85,21.6-4.49,4.18-3.94,19.6,.2,37.4-2.11,10.12,4.14,15.63,18.75,16.58,.2,3.57-1.16,8.15-1.29,8.7h0s-.07,.07-.07,.1c-13.25,32.07,43.68,34.04,47.29-3.02Z" style="fill:#f9af79; fill-rule:evenodd;"/><path d="M1306.29,37.29c25.61-3.33,44.9-1.56,53.13,10.7-.95,7.47-3.26,17.22-6.73,29.18,1.49,2.89,3.73,4.35,6.59,4.48,3.67-7.1,6.73-11.35,9.17-12.74,12.16,5.47,9.85,13.89-6.86,25.27-.95,3.91-1.97,7.17-2.85,9.75,15.08-3.4,27.72-16.88,29.49-22.69,17.53-34.68-2.04-49.29-12.5-54.62-4.69-34.31-54.49-3.97-79.49-20.52-9.92,13.69,2.38,30.88,10.06,31.18Z" style="fill:#20386f; fill-rule:evenodd;"/><path d="M1341.35,112.43c-7.07,.54-13.38,.71-18.95,.44,.13,2.45-.48,5.4-.88,7.17,8.97-.24,15.62-2.78,19.84-7.61Z" style="fill:#ed7d57; fill-rule:evenodd;"/><path d="M1264.1,434.86h152.25c5.43,0,9.92,4.45,9.92,9.92h0c0,5.44-4.48,9.88-9.92,9.88h-152.25c-5.44,0-9.85-4.45-9.85-9.88h0c0-5.47,4.42-9.92,9.85-9.92Z" style="fill:#9c7357; fill-rule:evenodd;"/><path d="M1407.25,622.27c-7.2-7.27-17.25-11.79-28.4-11.79h-77.31c-11,0-21.06,4.52-28.4,11.79-7.2,7.27-11.75,17.32-11.75,28.4v8.12h-3.06v10.02h22.83v-10.02h-3.12v-8.12c0-6.45,2.65-12.36,6.93-16.64,4.28-4.28,10.19-6.93,16.58-6.93h77.31c6.52,0,12.43,2.65,16.71,6.93,4.21,4.28,6.93,10.19,6.93,16.64v8.12h-3.13v10.02h22.83v-10.02h-3.12v-8.12c0-11.07-4.48-21.13-11.82-28.4Z" style="fill:#d0a382; fill-rule:evenodd;"/><rect x="1331.97" y="454.67" width="16.58" height="155.82" style="fill:#d0a382;"/><path d="M1393.52,434.25c29.42-10.56,33.43-39.91,20.52-84.21-10.67,8.7-37.57,12.37-80.71,10.94l.95,3.84c.07,.17,.14,.34,.14,.51h48.03c-.14,7.34,.14,14.95-10.67,15.42h-130.17c-24.59,7.2-31.52,17.29-31.8,30.84,15.62,69.6,29.42,133.4,48.31,221.61,6.32,3.57,15.01,3.3,26.16-.85,8.83-85.5,6.38-147.7-7.34-186.56,36.41,.17,75.27-4.82,116.58-11.55Z" style="fill:#1d417f; fill-rule:evenodd;"/><path d="M1393.52,434.25c29.42-10.56,33.43-39.91,20.52-84.21-2.31,1.84-5.3,3.47-9.03,4.86,10.73,45.55-.88,70.49-35.53,72.9-40.35,5.98-73.85,8.87-100.41,8.63,11.69,75.92,13.72,142.09,5.98,198.58,2.85-.54,5.98-1.43,9.24-2.65,8.83-85.5,6.38-147.7-7.34-186.56,36.41,.17,75.27-4.82,116.58-11.55Z" style="fill:#0e2952; fill-rule:evenodd;"/><path d="M1124.15,631.78c-.75,2.72-1.9,5.33-3.6,7.74,7.88,.71,4.89,10.87,26.16,1.56-.88-2.65-1.43-5.91-1.56-9.68-7.33,.75-14.27,.88-20.99,.37Z" style="fill:#f9af79; fill-rule:evenodd;"/><path d="M1258.19,679.34c14.54-5.98,16.71-15.73,24.66-19.43,8.02-3.77,8.9-10.43,1.09-17.7-5.77,4.62-12.97,10.33-16.78,7.3-2.58-2-11.14-1.87-12.91,1.05-7.47,17.46-17.94,11.92-20.04,19.87-.2,10.6,14.88,12.64,23.98,8.9Z" style="fill:#0e2952; fill-rule:evenodd;"/><path d="M1260.64,634.4c.13,4.62-.48,9.27-1.9,13.96,3.12-.51,6.86-.07,8.43,1.15,3.53,2.79,9.92-1.87,15.49-6.28-.88-2.51-1.49-5.74-1.83-9.68-8.09,2.51-14.81,2.82-20.18,.85Z" style="fill:#f9af79; fill-rule:evenodd;"/><path d="M1404.53,230.13c-3.8-6.79-7.75-15.9-11.96-27.38,2.31,13.35,2.17,23,5.78,33.94-2.92,15.52-4.14,31.35-3.87,47.32,5.03-3.7,10.06-7.57,15.08-11.62,.81-11.04,1.9-19.91,3.12-26.46-2.45-4.92-5.23-10.19-8.15-15.79h0Zm-129.56,2.68c2.92,1.02,5.84,1.87,8.7,2.55-1.09-17.02-1.83-31.01-2.11-42.12-3.26,16.37-5.44,29.59-6.59,39.57h0Zm142.74,112.95c-3.4-10.26-5.85-20.92-7.27-31.96-4.21,1.63-8.49,3.26-12.98,4.89,1.77,12.06,4.35,24.15,7.61,36.21,6.32-2.38,10.53-5.43,12.64-9.14Z" style="fill:#466fb5; fill-rule:evenodd;"/><path d="M1742.86,733.62c-84.65,0-153.34,10.63-153.34,23.61s68.68,23.57,153.34,23.57,153.4-10.6,153.4-23.57-68.62-23.61-153.4-23.61Z" style="fill:#c4d1eb; fill-rule:evenodd;"/><path d="M784.25,240.19c3.57-5.71,6.83-9.78,9.75-12.26-13.89-7.54-21.57-15.79-23.1-24.8-2,1.77-3.74,3.91-5.13,6.45,5.16,12.3,11.31,22.49,18.48,30.61Z" style="fill:#466fb5; fill-rule:evenodd;"/><path d="M803.75,240.19c-3.57-5.71-6.8-9.78-9.75-12.26,13.89-7.54,21.6-15.79,23.1-24.8,2.04,1.77,3.74,3.91,5.13,6.45-5.13,12.3-11.31,22.49-18.48,30.61Z" style="fill:#466fb5; fill-rule:evenodd;"/><path d="M681.09,252.08c14.98-20.72,43.17-34.89,84.68-42.49,5.16,12.3,11.31,22.49,18.48,30.61,3.57-5.71,6.83-9.78,9.75-12.26,2.95,2.48,6.18,6.56,9.75,12.26,7.17-8.12,13.35-18.31,18.48-30.61,41.51,7.61,69.74,21.77,84.72,42.49,11.45,33.53,19.02,60.06,22.66,79.66-12.13,2.62-26.12,5.71-41.95,9.24,2.14,37.84,2.68,70.15,1.66,96.95-22.11,6.42-53.02,17.9-89.85,33.29-1.9-.07-3.74-.17-5.47-.27-1.7,.1-3.53,.2-5.44,.27-36.82-15.39-67.73-26.87-89.85-33.29-1.02-26.8-.48-59.11,1.63-96.95-15.83-3.53-29.82-6.62-41.95-9.24,3.67-19.6,11.24-46.13,22.69-79.66Z" style="fill:#6d96ce; fill-rule:evenodd;"/><path d="M707.01,277.65c-2.96,18.92-5.16,40.05-6.66,63.32-2-.44-3.94-.88-5.91-1.32,2.58-14.4,6.76-35.06,12.57-61.99Z" style="fill:#466fb5; fill-rule:evenodd;"/><path d="M881.03,277.65c2.95,18.92,5.13,40.05,6.62,63.32,2-.44,3.97-.88,5.91-1.32-2.55-14.4-6.76-35.06-12.53-61.99Z" style="fill:#466fb5; fill-rule:evenodd;"/><path d="M708.2,511.9c-4.48,11.35,3.74,29.66,9.31,33.32,101.33-10.19,164.58-24.42,203.64-44.16,11.62-6.42,31.93-9.21,44.33-17.43,29.96-31.59,7.51-73-22.18-70.96-20.75,4.01-30.54,9.95-40.36,21.64-35.53,8.12-107.82,36.79-194.74,77.58Z" style="fill:#1d417f; fill-rule:evenodd;"/><path d="M600.38,528.85c-4.07,27.65,30.47,32.03,101.5,19.97-29.89-9.85-33.83-18.55-11.58-32.44-61.79-11.21-89.98-11.11-89.92,12.47h0Zm387.25,0c4.07,27.65-30.47,32.03-101.47,19.97,29.86-9.85,33.8-18.55,11.55-32.44,61.79-11.21,90.02-11.11,89.92,12.47Z" style="fill:#0e2952; fill-rule:evenodd;"/><path d="M716.18,544.14c-5.94,1.16-10.7,2.72-14.3,4.69-29.89-9.85-33.83-18.55-11.58-32.44,5.03,.24,10.73-.41,17.12-1.97-2.31,10.43,3.77,24.8,8.76,29.72h0Zm155.68,0c5.94,1.16,10.7,2.72,14.3,4.69,29.86-9.85,33.8-18.55,11.55-32.44-5.03,.24-10.73-.41-17.12-1.97,2.34,10.43-3.74,24.8-8.73,29.72Z" style="fill:#f9af79; fill-rule:evenodd;"/><path d="M662.1,394.92c-2.48-19.97-1.87-40.66,1.8-61.99,9.2,2,19.4,4.25,30.54,6.73,1.97,.44,3.91,.88,5.91,1.32-2.04,36.65-2.62,68.14-1.73,94.4-18.14-14.61-30.33-28.13-36.52-40.46Z" style="fill:#f9af79; fill-rule:evenodd;"/><path d="M925.94,394.92c2.45-19.97,1.84-40.66-1.83-61.99-9.21,2-19.4,4.25-30.54,6.73-1.94,.44-3.91,.88-5.91,1.32,2.04,36.65,2.65,68.14,1.73,94.4,18.17-14.61,30.33-28.13,36.55-40.46Z" style="fill:#f9af79; fill-rule:evenodd;"/><path d="M689.82,389.62c.13-14.3,.68-31.18,1.53-50.65,1.02,.2,2.07,.44,3.09,.68,1.97,.44,3.91,.88,5.91,1.32-1.26,22.62-1.97,43.21-2.11,61.89-1.67-1.94-3.6-4.21-5.81-6.76-6.29-2.68-12.57-4.01-18.85-3.97,7.24-2.24,12.64-3.06,16.24-2.51h0Zm208.4,0c-.17-14.3-.68-31.18-1.56-50.65-1.02,.2-2.04,.44-3.09,.68-1.94,.44-3.91,.88-5.91,1.32,1.29,22.62,1.97,43.21,2.14,61.89,1.63-1.94,3.57-4.21,5.77-6.76,6.28-2.68,12.57-4.01,18.85-3.97-7.23-2.24-12.64-3.06-16.2-2.51Z" style="fill:#ed7d57; fill-rule:evenodd;"/><path d="M886.57,351.3h-185.1c-1.8,0-3.26,1.43-3.26,3.19v83.29c22.11,6.39,53.09,17.87,90.09,33.32h11.45c36.96-15.46,67.94-26.94,90.05-33.32v-83.29c0-1.77-1.46-3.19-3.23-3.19Z" style="fill:#c4d1eb; fill-rule:evenodd;"/><path d="M881.17,440.36c-21.23,6.73-49.05,17.19-81.42,30.74l-.27,.1-2.24-.1h-6.45l-2.21,.1c-32.51-13.59-60.4-24.12-81.73-30.84v-68.75c12.16,15.42,36.38,28.16,67.36,35.8-.13,.99-.24,2.04-.24,3.09,0,11.07,8.97,20.04,20.04,20.04,9.92,0,18.17-7.2,19.77-16.68,8.93,.81,18.14,1.22,27.55,1.22,13.83,0,27.21-.88,39.85-2.58v27.85Z" style="fill:#9db2d9; fill-rule:evenodd;"/><path d="M813.37,109.37c-12.5,17.36-32.31,32.61-59.45,45.76,6.79,20.35,17.05,40.18,39.44,43.89,21.47-3.46,33.29-18.95,38.15-40.97-11.52-12.84-17.6-29.08-18.14-48.68Z" style="fill:#f9af79; fill-rule:evenodd;"/><path d="M732.01,120.38c0-34.24,28.02-62.26,62.26-62.26s62.3,28.02,62.3,62.26v98c-10.22-3.57-21.64-6.49-34.34-8.8-1.39-2.55-3.09-4.69-5.13-6.45-1.5,9-9.21,17.26-23.1,24.8-13.89-7.54-21.57-15.79-23.1-24.8-2,1.77-3.74,3.91-5.13,6.45-12.47,2.28-23.68,5.16-33.76,8.63V120.38h0Zm81.36-11.01c-12.5,17.36-32.31,32.61-59.45,45.76,6.79,20.35,17.05,40.18,39.44,43.89,21.47-3.46,33.29-18.95,38.15-40.97-11.52-12.84-17.6-29.08-18.14-48.68Z" style="fill:#20386f; fill-rule:evenodd;"/><path d="M770.9,203.13c1.56-2.45,2.68-6.8,3.29-13.01,5.2,4.45,11.45,7.61,19.16,8.9,9-1.43,16.31-4.99,22.11-10.29,.2,5.71,.75,10.5,1.63,14.4-1.5,9-9.21,17.26-23.1,24.8-13.89-7.54-21.57-15.79-23.1-24.8Z" style="fill:#f9af79; fill-rule:evenodd;"/><path d="M773.59,194.8c.24-1.43,.44-2.99,.61-4.69,5.2,4.45,11.45,7.61,19.16,8.9,9-1.43,16.31-4.99,22.11-10.29,.07,2.04,.2,3.94,.34,5.74-5.37,3.63-12.91,6.73-22.66,9.31-6.18-1.7-12.67-3.97-19.57-8.97Z" style="fill:#ed7d57; fill-rule:evenodd;"/><path d="M856.57,173.74h-28.13v83.39h34.99c-6.56-26.94-9.14-54.69-6.86-83.39Z" style="fill:#20386f; fill-rule:evenodd;"/><path d="M760.14,173.74h-28.13c1.94,27.69-1.77,55.51-6.39,83.39h34.51v-83.39Z" style="fill:#20386f; fill-rule:evenodd;"/><path d="M794,397.53c-7.17,0-12.98,5.81-12.98,12.98s5.81,12.98,12.98,12.98,12.98-5.84,12.98-12.98-5.81-12.98-12.98-12.98Z" style="fill:#9db2d9; fill-rule:evenodd;"/><path d="M879.84,511.9c4.45,11.35-3.77,29.66-9.31,33.32-101.36-10.19-164.61-24.42-203.64-44.16-11.65-6.42-31.97-9.21-44.33-17.43-29.96-31.59-7.54-73,22.15-70.96,20.75,4.01,30.54,9.95,40.39,21.64,35.5,8.12,107.82,36.79,194.74,77.58Z" style="fill:#1d417f; fill-rule:evenodd;"/><path d="M800.76,470.67c55.4,21.57,99.02,30.23,130.88,25.99-3.91,1.32-7.47,2.75-10.5,4.42-10.19,5.16-22.05,9.95-35.8,14.37-1.53-.27-3.12-.61-4.75-1.02-.2-.85-.44-1.7-.75-2.51-30.78-14.44-59.72-27.35-85.84-38.39,1.83-.78,3.67-1.53,5.47-2.31,.1-.03,.17-.07,.27-.1,.34-.14,.68-.31,1.02-.44Z" style="fill:#0e2952; fill-rule:evenodd;"/><path d="M707.04,516.83c23.37,7.2,51.97,13.45,86.96,18.85-22.73,3.53-48.1,6.69-76.5,9.55-.44-.27-.85-.65-1.33-1.09-4.62-4.55-10.19-17.19-9.14-27.31Z" style="fill:#0e2952; fill-rule:evenodd;"/><path d="M794,473.52c-1.83-.78-3.63-1.53-5.44-2.31l2.21-.1h6.45l2.24,.1c-1.8,.78-3.63,1.53-5.47,2.31Z" style="fill:#0e2952; fill-rule:evenodd;"/><path d="M1796.87,1153.37c.07,4.01,.34,7.47,.61,9.78-.27-2.31-.54-5.77-.61-9.78Z" style="fill:#ecebe8; fill-rule:evenodd;"/><path d="M1467.5,1292.51c199.33,0,360.96,12.16,360.96,27.17s-161.62,27.17-360.96,27.17-360.89-12.23-360.89-27.17,161.56-27.17,360.89-27.17Z" style="fill:#c4d1eb; fill-rule:evenodd;"/><path d="M1673.09,852.54c-2.99-3.8-7.07-6.79-11.21-9.31-1.09-.68-2.58-.2-3.26,.88-3.12,5.98-6.11,11.96-9.71,17.66-1.22,1.9-2.92,4.35-4.42,5.43-.13,.07-.54,.27-.68,.34q0-.07-.07-.07c-.27-.48-.47-.95-.61-1.49-2.85-8.7,.54-18.01-1.63-26.77-1.22-4.62-4.15-9.44-7.47-12.77-3.67-3.73-8.49-5.43-10.74-10.39-.41-.75-.95-1.15-1.63-1.15h-.47c-.82,.07-1.63,.54-2.11,1.15-5.16,7.54-12.5,15.29-13.93,24.8-1.22,8.29,3.33,15.29,8.09,21.6,2.31,3.06,4.62,6.25,6.45,9.65,1.02,1.83,2.72,5.23,.88,7.07-1.9,1.9-4.75-1.49-6.25-3.06-3.12-3.19-5.71-6.79-8.36-10.26-4.42-5.84-11.35-14.67-19.64-13.04-3.67,.68-5.16,4.49-5.37,7.75-.34,5.16,2.24,10.87,4.82,15.22,5.84,9.99,17.67,12.84,25.27,20.92,1.77,1.77,6.52,8.15,3.8,10.73-.95,.88-3.19,.61-4.35,.41-2.79-.41-5.84-1.5-8.09-3.19-8.56-6.59-11.62-18.14-20.65-24.39-3.94-2.72-9.99-4.41-14.74-3.26-4.08,.95-5.84,4.76-6.12,8.56-.14,4.62,1.9,9.37,4.28,13.18,2.65,4.48,6.39,8.22,10.94,10.8,9.04,5.16,20.52,5.77,26.49,15.28,.82,1.29,1.77,2.99,1.36,4.62-.34,1.22-2.04,1.56-3.12,1.77-4.62,1.09-10.74-.68-14.81-2.85-4.89-2.58-8.56-7.34-12.3-11.28-4.01-4.21-8.43-7.68-14.06-9.38-4.07-1.22-9.03-1.02-11.68,2.72-2.45,3.53-1.9,8.22-.95,12.09,1.36,5.16,4.07,9.92,7.54,13.86,3.74,4.35,9.58,6.79,14.81,8.56,5.5,1.77,11.14,2.92,16.51,4.96,1.49,.54,2.58,.88,4.08,1.02,1.7,.14,3.39,0,5.02,.41,1.36,.41,.41,1.9,0,2.85-1.09,2.45-4.69,2.31-6.93,2.45-2.17,.2-4.28,.75-6.39,.81-2.45,0-4.96-.47-7.34-.81-4.82-.82-9.92-1.63-14.67-.14-4.55,1.36-7.74,5.71-8.63,10.33-1.7,9.72,9.17,15.62,17.19,16.85,5.23,.82,9.92-.27,14.47-2.85,5.57-3.19,9.99-7.74,16.51-8.56,.41,2.58-.54,4.62-2.85,6.59-3.12,2.65-7.54,4.14-11.35,5.5-7.54,2.85-18.55,5.3-22.62,13.11-.41,.95-.34,2.11,.48,2.92,3.6,3.4,7.68,6.05,12.7,6.46,4.08,.34,8.15-1.63,11.55-3.87,6.04-3.94,11.28-10.19,18-13.05-.95,1.76-2.51,2.92-4.41,4.35-3.4,2.72-5.09,6.32-6.05,10.46-1.42,6.18,.75,12.91,8.08,12.91,3.94,.07,7.95-1.9,11.28-3.94,3.8-2.31,6.86-5.57,9.24-9.38,2.92-4.55,4.48-9.92,5.43-15.35,6.12,11.96,19.36,24.32,31.86,14.06,10.67-8.76-6.86-15.49-13.86-22.42,1.43,.54,2.72,1.29,4.01,1.9,3.6,1.83,7.07,3.87,10.87,5.43,7.07,2.92,15.01,2.65,19.23-4.62,3.67-6.32-3.87-9.17-8.56-10.6-3.74-1.16-10.87-2.38-13.59-6.18,9.31,1.09,19.7,2.17,27.79-3.19,3.67-2.45,8.02-7.13,8.43-11.75,.41-3.74-3.67-5.03-6.66-5.37-7.88-.75-15.62,2.71-23.64,2.51-1.9-.13-3.8-.27-5.7-.68-.68-.21-1.43-.41-2.04-.68-.27-.14-.54-.34-.68-.48,0-.07,.07-.2,.14-.34,.75-.81,1.7-1.49,2.58-2.04,2.04-1.36,4.21-2.17,6.66-2.44,4.62-.41,9.24,.13,13.86-.68,5.17-.88,9.38-3.94,12.84-7.81,3.06-3.46,6.04-7.81,6.52-12.43,.48-4.89-2.44-8.15-6.79-9.85-12.16-4.62-19.23,7.95-27.79,13.59-2.31,1.49-5.03,2.51-7.68,3.33-1.02,.27-4.14,1.36-5.23,.54-.61-.54,1.49-3.8,1.83-4.41,1.77-2.79,4.01-4.82,6.86-6.46,7.2-4.07,16.03-5.43,21.74-11.96,3.67-4.21,6.66-11.55,2.99-16.71-3.87-5.57-12.5-4.08-17.39-.82-6.11,4.01-9.24,12.23-16.64,14.2-.61-3.46,.75-6.72,3.05-9.85,3.53-4.55,7.95-8.29,12.03-12.23,3.87-3.8,7.95-7.88,9.99-13.04,2.04-5.23,.75-10.6-2.65-14.95Z" style="fill:#b0c2e4; fill-rule:evenodd;"/><path d="M1855.64,1021.03c1.15-4.75,.88-9.78,.41-14.54-.14-1.36-1.49-2.31-2.78-2.04-6.59,1.15-13.18,2.58-19.91,3.26-2.17,.2-5.16,.41-6.93-.14-.14,0-.54-.2-.68-.27v-.14c.14-.54,.41-.95,.75-1.36,5.09-7.61,14.47-10.73,20.04-17.87,2.85-3.8,4.89-9.1,5.44-13.79,.68-5.16-1.02-10.06,1.49-14.88,.88-1.77-.95-3.33-2.58-3.26-9.24,.61-19.84-.34-28.13,4.35-7.27,4.21-9.99,12.02-11.96,19.77-.95,3.74-2.04,7.47-3.53,11-.88,1.9-2.51,5.44-5.03,5.1-2.72-.27-1.77-4.69-1.49-6.8,.54-4.41,1.77-8.63,2.85-12.98,1.9-7.07,4.48-17.94-1.9-23.5-2.78-2.45-6.66-1.22-9.38,.68-4.35,2.99-7.13,8.43-8.97,13.18-4.21,10.73,.81,21.88-.82,32.75-.34,2.58-2.31,10.19-6.11,9.65-1.22-.14-2.45-2.1-2.99-3.12-1.36-2.45-2.44-5.44-2.44-8.29-.14-10.87,6.93-20.38,6.32-31.39-.27-4.75-2.71-10.6-6.52-13.59-3.26-2.58-7.34-1.7-10.46,.54-3.74,2.65-6.18,7.27-7.81,11.48-1.83,4.89-2.45,10.12-1.7,15.29,1.56,10.26,8.15,19.7,4.42,30.3-.48,1.43-1.29,3.19-2.72,3.8-1.22,.54-2.58-.54-3.4-1.22-3.67-2.99-6.12-8.9-6.93-13.45-.95-5.43,.54-11.21,1.29-16.71,.81-5.71,.75-11.28-1.36-16.71-1.56-4.01-4.82-7.81-9.44-7.47-4.21,.2-7.61,3.53-10.05,6.66-3.19,4.21-5.16,9.38-6.18,14.54-1.09,5.57,.61,11.69,2.51,16.85,1.9,5.43,4.55,10.6,6.25,16.03,.48,1.49,.88,2.58,1.77,3.94,.95,1.36,2.04,2.58,2.72,4.21,.54,1.22-1.16,1.43-2.17,1.63-2.58,.68-4.76-2.17-6.25-3.87-1.49-1.56-3.26-2.92-4.55-4.55-1.56-1.9-2.72-4.14-3.87-6.25-2.45-4.21-4.89-8.77-8.97-11.55-3.94-2.79-9.38-2.65-13.45-.41-8.7,4.62-6.66,16.85-2.65,23.91,2.58,4.62,6.32,7.61,11.21,9.51,5.91,2.51,12.23,3.12,16.85,7.75-1.77,1.9-3.94,2.44-6.93,1.83-4.01-.82-7.88-3.33-11.35-5.5-6.86-4.14-15.56-11.28-24.25-9.65-1.02,.27-1.9,1.09-1.97,2.17-.48,4.89-.07,9.78,2.78,14,2.31,3.39,6.32,5.43,10.19,6.66,6.79,2.31,14.95,2.51,21.33,6.12-1.9,.27-3.8-.14-6.12-.81-4.21-1.02-8.15-.14-11.96,1.7-5.71,2.78-9.65,8.63-5.16,14.33,2.44,3.12,6.52,5.03,10.05,6.46,4.21,1.56,8.7,1.9,13.04,1.43,5.44-.54,10.67-2.58,15.49-5.17-5.57,12.09-7.14,30.23,8.7,33.7,13.45,2.99,7.88-15.08,9.04-24.8,.41,1.43,.68,2.92,.95,4.28,.75,4.08,1.36,8.09,2.51,11.96,2.04,7.34,7.2,13.45,15.49,12.23,7.2-.95,4.83-8.7,2.99-13.25-1.36-3.67-4.83-9.99-3.54-14.47,4.96,7.88,10.46,16.85,19.7,19.84,4.21,1.29,10.6,1.83,14.47-.68,3.19-2.04,1.7-6.04,.07-8.56-4.28-6.66-11.82-10.6-16.58-17.05-1.09-1.56-2.17-3.19-2.99-4.89-.27-.61-.54-1.29-.75-2.04-.07-.21-.07-.61-.07-.75,.13-.13,.27-.13,.41-.13,1.09,.07,2.17,.41,3.2,.75,2.31,.75,4.28,1.97,5.97,3.73,3.19,3.33,5.64,7.34,9.17,10.46,3.94,3.54,8.83,4.96,14.06,5.3,4.55,.27,9.85-.13,13.79-2.72,4.14-2.58,4.89-6.93,3.53-11.34-3.87-12.37-18.07-10.19-27.85-13.45-2.58-.88-5.1-2.38-7.34-3.94-.95-.61-3.67-2.38-3.67-3.74,0-.81,3.87-1.22,4.62-1.36,3.26-.34,6.19,.2,9.24,1.42,7.75,3.13,14.2,9.24,22.83,9.72,5.71,.27,13.18-1.9,15.08-8.02,1.9-6.52-4.62-12.36-10.12-14.2-7-2.31-15.42,.34-21.54-4.28,2.38-2.58,5.78-3.53,9.65-3.67,5.71-.07,11.41,1.09,17.05,1.9,5.37,.68,11.07,1.36,16.38-.27,5.5-1.63,8.83-5.98,10.19-11.28Z" style="fill:#9db2d9; fill-rule:evenodd;"/><path d="M1531.23,889.23c-4.55-1.77-9.51-2.17-14.33-2.31-1.36,0-2.44,1.22-2.38,2.45,.34,6.73,.88,13.45,.75,20.18-.14,2.24-.27,5.23-1.09,6.93,0,.07-.27,.48-.34,.61h-.07c-.54-.27-.95-.54-1.36-.95-6.86-5.98-8.7-15.76-15.08-22.15-3.46-3.33-8.42-5.98-13.04-7.13-5.03-1.29-10.05-.2-14.54-3.33-1.63-1.09-3.46,.54-3.53,2.17-.68,9.11-2.92,19.57,.68,28.33,3.26,7.81,10.73,11.48,18.14,14.47,3.6,1.36,7.14,2.85,10.46,4.89,1.83,1.09,5.03,3.12,4.41,5.64-.68,2.65-4.89,1.15-6.93,.61-4.28-1.15-8.36-2.92-12.5-4.55-6.73-2.72-17.25-6.73-23.51-1.02-2.85,2.45-2.17,6.46-.61,9.38,2.44,4.62,7.54,8.15,11.96,10.6,10.12,5.5,21.81,1.9,32.41,4.89,2.44,.68,9.85,3.67,8.83,7.2-.41,1.36-2.45,2.17-3.53,2.65-2.58,1.09-5.7,1.77-8.56,1.43-10.73-1.22-19.3-9.51-30.3-10.26-4.76-.34-10.87,1.36-14.27,4.76-2.99,2.92-2.65,7.06-.82,10.39,2.17,4.07,6.39,7.13,10.46,9.24,4.55,2.44,9.65,3.67,14.81,3.6,10.46-.2,20.65-5.57,30.71-.54,1.36,.68,2.99,1.7,3.47,3.19,.34,1.22-.95,2.45-1.7,3.19-3.46,3.33-9.58,4.96-14.2,5.23-5.57,.27-11.07-1.97-16.38-3.4-5.57-1.63-11.14-2.24-16.85-.81-4.14,1.09-8.29,3.8-8.56,8.42-.34,4.21,2.51,8.02,5.37,10.8,3.73,3.73,8.63,6.38,13.59,8.02,5.37,1.77,11.62,.88,17.05-.34,5.64-1.22,11.07-3.19,16.71-4.21,1.49-.27,2.65-.54,4.08-1.22,1.49-.75,2.85-1.7,4.48-2.17,1.36-.41,1.36,1.29,1.5,2.38,.27,2.65-2.85,4.42-4.76,5.71-1.76,1.29-3.26,2.78-5.02,3.87-2.17,1.36-4.49,2.17-6.8,3.12-4.48,1.84-9.24,3.74-12.57,7.41-3.19,3.53-3.74,8.9-2.11,13.32,3.54,9.24,15.9,8.7,23.51,5.64,4.82-2.04,8.29-5.37,10.87-9.92,3.12-5.57,4.62-11.82,9.71-15.76,1.7,1.97,1.97,4.21,1.02,7.07-1.36,3.94-4.35,7.41-6.93,10.6-5.03,6.25-13.18,14.06-12.64,22.83,.07,1.09,.82,2.04,1.83,2.31,4.82,1.09,9.72,1.22,14.2-1.02,3.8-1.83,6.25-5.64,8.02-9.31,3.12-6.52,4.35-14.47,8.7-20.38,.14,1.97-.68,3.73-1.49,5.98-1.56,4.01-1.22,8.02,.13,12.02,1.97,6.05,7.27,10.73,13.59,7,3.4-2.04,5.84-5.84,7.61-9.24,2.11-3.94,2.99-8.29,3.13-12.77,.13-5.43-1.22-10.8-3.26-15.89,11.41,7,29.14,10.87,34.58-4.42,4.69-12.97-13.92-9.71-23.44-12.09,1.49-.21,2.99-.34,4.42-.41,4.01-.27,8.08-.34,12.16-.95,7.54-1.15,14.2-5.5,14.06-13.86-.07-7.27-8.08-5.91-12.77-4.69-3.88,.95-10.53,3.53-14.88,1.76,8.56-3.94,18.07-8.29,22.21-17.05,1.83-4.01,3.19-10.26,1.16-14.47-1.63-3.39-5.71-2.44-8.43-1.22-7.2,3.46-12.09,10.46-19.02,14.4-1.63,.88-3.4,1.7-5.23,2.31-.68,.2-1.43,.41-2.1,.54-.27,0-.61-.07-.82-.07v-.48c.14-1.09,.68-2.04,1.09-2.99,1.09-2.24,2.51-4.01,4.48-5.5,3.67-2.78,8.02-4.69,11.55-7.75,3.94-3.46,6.04-8.22,7-13.25,.88-4.62,1.16-9.78-.88-14.13-2.04-4.35-6.25-5.7-10.87-4.89-12.77,2.31-12.36,16.65-16.85,25.95-1.22,2.45-2.99,4.76-4.89,6.8-.68,.81-2.85,3.33-4.14,3.12-.75-.14-.75-3.94-.75-4.75,.14-3.26,.95-6.12,2.58-8.97,4.07-7.27,11-12.91,12.5-21.47,.95-5.57-.27-13.32-6.05-15.9-6.18-2.78-12.84,2.99-15.36,8.29-3.19,6.59-1.56,15.22-6.86,20.65-2.45-2.65-2.85-6.12-2.45-9.99,.61-5.64,2.45-11.14,3.94-16.65,1.43-5.23,2.79-10.87,1.9-16.31-.95-5.57-4.82-9.44-9.99-11.41Z" style="fill:#9db2d9; fill-rule:evenodd;"/><path d="M1763.65,955.13c-.68-4.89-2.72-9.45-5.03-13.72-.54-1.09-2.17-1.49-3.26-.82-5.71,3.53-11.28,7.27-17.25,10.33-2.04,1.02-4.75,2.31-6.59,2.45-.14,.07-.54,0-.75,0v-.14c0-.47,0-1.02,.13-1.49,1.9-8.97,9.58-15.29,12.03-23.98,1.29-4.62,1.15-10.26,0-14.88-1.29-5.02-4.69-8.9-4.14-14.33,.27-1.97-2.11-2.78-3.54-2.1-8.36,3.94-18.61,7-24.52,14.4-5.23,6.66-4.82,14.95-3.87,22.83,.54,3.8,.95,7.68,.81,11.55-.14,2.11-.34,5.91-2.85,6.59-2.58,.75-3.39-3.73-3.87-5.77-1.02-4.35-1.49-8.7-2.04-13.11-.88-7.27-2.51-18.41-10.46-21.13-3.53-1.22-6.73,1.29-8.49,4.01-2.92,4.41-3.53,10.53-3.53,15.62,.13,11.55,8.83,19.91,11.41,30.71,.61,2.51,1.56,10.4-2.11,11.21-1.29,.34-3.06-1.09-3.94-1.77-2.24-1.76-4.35-4.21-5.43-6.79-4.08-10.06-1.02-21.6-5.64-31.52-2.04-4.35-6.39-8.83-11.14-10.19-3.94-1.22-7.41,1.09-9.51,4.35-2.44,3.8-3.06,9.04-2.99,13.52,.13,5.23,1.43,10.33,4.07,14.81,5.23,9.04,14.81,15.29,15.29,26.57,.07,1.49-.07,3.39-1.15,4.62-.88,.88-2.58,.41-3.6,0-4.55-1.43-8.97-5.98-11.34-9.92-2.99-4.68-3.67-10.6-5.03-15.9-1.36-5.71-3.4-10.87-7.47-15.15-2.85-3.12-7.34-5.5-11.48-3.46-3.8,1.77-5.77,6.12-6.86,9.92-1.42,5.16-1.36,10.6-.41,15.76,1.02,5.64,4.89,10.67,8.56,14.81,3.8,4.35,8.15,8.15,11.75,12.64,1.02,1.15,1.7,2.04,3.06,2.92,1.36,.88,2.85,1.7,4.08,2.92,.95,.95-.54,1.77-1.43,2.38-2.17,1.56-5.23-.34-7.27-1.29-1.9-.95-4.01-1.56-5.85-2.58-2.17-1.22-4.07-2.85-5.98-4.42-3.8-3.06-7.74-6.32-12.57-7.41-4.69-1.09-9.58,.95-12.64,4.55-6.39,7.54,.07,18.14,6.39,23.3,4.07,3.26,8.7,4.62,13.92,4.68,6.39,.07,12.5-1.7,18.55,.88-.95,2.45-2.79,3.8-5.78,4.35-4.08,.68-8.56-.27-12.57-.95-7.95-1.36-18.69-4.75-26.09,0-.88,.54-1.43,1.63-1.09,2.72,1.36,4.69,3.6,9.1,7.68,11.96,3.46,2.31,7.95,2.72,11.96,2.45,7.27-.41,14.88-3.19,22.15-2.17-1.63,.95-3.6,1.22-5.98,1.49-4.21,.61-7.61,2.85-10.46,5.98-4.35,4.62-5.84,11.55,.41,15.22,3.46,2.04,7.88,2.31,11.82,2.31,4.41-.14,8.7-1.5,12.64-3.46,4.89-2.51,8.97-6.32,12.43-10.53-.68,13.32,4.55,30.71,20.52,28.13,13.66-2.31,1.84-16.92-.75-26.36,.95,1.09,1.77,2.45,2.51,3.6,2.24,3.46,4.21,7,6.72,10.26,4.62,5.98,11.69,9.71,18.89,5.57,6.39-3.67,1.22-9.92-2.04-13.45-2.72-2.85-8.22-7.47-8.7-12.16,7.61,5.57,15.96,11.75,25.61,11.14,4.42-.27,10.53-2.1,13.25-5.91,2.17-3.06-.68-6.25-3.06-8.02-6.46-4.62-14.94-5.44-21.74-9.72-1.63-1.02-3.19-2.11-4.55-3.46-.54-.41-1.09-.95-1.49-1.56-.14-.2-.27-.54-.34-.75,.07-.07,.2-.14,.34-.2,1.09-.34,2.17-.48,3.26-.48,2.44-.13,4.68,.27,6.93,1.22,4.21,1.9,7.95,4.75,12.36,6.38,4.96,1.77,10.06,1.36,15.01-.27,4.42-1.49,9.1-3.8,11.89-7.61,2.85-3.94,1.97-8.29-.95-11.82-8.15-10.12-20.52-2.85-30.91-2.31-2.72,.2-5.57-.34-8.22-.95-1.09-.27-4.35-.88-4.75-2.11-.34-.75,3.12-2.51,3.74-2.92,2.92-1.49,5.84-2.17,9.17-2.11,8.29,.07,16.58,3.33,24.73,.54,5.43-1.83,11.55-6.66,11.07-12.97-.61-6.79-8.83-9.78-14.61-9.44-7.4,.41-14.2,5.97-21.6,4.01,1.22-3.4,4.08-5.51,7.61-7,5.3-2.24,11.01-3.19,16.58-4.55,5.23-1.36,10.8-2.85,15.15-6.25,4.42-3.53,5.91-8.83,5.23-14.26Z" style="fill:#c4d1eb; fill-rule:evenodd;"/><path d="M1728.25,908.8c-2.79,12.02-5.16,24.18-8.63,36.01-3.53,12.23-8.56,23.5-15.56,34.1-14.33,21.94-32.68,40.97-47.49,62.64-.61,.81-.47,1.76,0,2.38-2.85,5.37-4.49,11.48-5.71,17.39-2.04,10.19-2.72,20.65-3.13,31.05-.47,12.7-.41,25.27,.2,38.05,.68,14.88,1.7,29.76,1.02,44.7,0,.95-.07,1.77-.14,2.58-.13,3.12,4.62,3.12,4.83,0,.81-14.54-.07-29.08-.75-43.68-.61-12.98-.95-25.88-.48-38.93,.34-10.05,.88-20.11,2.58-30.03,1.56-8.97,4.07-19.23,10.87-25.82,1.02-.95,.88-2.11,.27-2.99,13.79-18.75,29.69-36.08,42.53-55.64,6.86-10.46,11.75-21.74,15.29-33.76,3.67-12.09,6.12-24.46,8.9-36.82,.75-2.99-3.87-4.21-4.62-1.22Z" style="fill:#c4d1eb; fill-rule:evenodd;"/><path d="M1650.06,1178.51c-2.58-23.37-13.31-44.16-24.46-64.47-11.01-20.04-22.55-40.42-25.95-63.45-.41-3.06-5.03-1.77-4.62,1.29,6.73,45.92,45.11,80.24,50.28,126.64,.27,2.99,5.09,2.99,4.75,0Z" style="fill:#b0c2e4; fill-rule:evenodd;"/><path d="M1720.51,1069.27c-20.45,8.97-40.56,22.62-54.35,40.49-7.54,9.78-11.89,20.79-14.74,32.41-1.02-12.09-3.26-24.12-5.57-35.94-5.44-27.86-9.51-55.71-12.16-83.97-1.02-11.14-1.83-22.42-2.31-33.56-.14-3.12-4.96-3.12-4.82,0,1.5,31.12,5.03,62.1,9.92,92.94,3.26,20.79,8.77,41.37,10.33,62.44-1.77-11.35-4.49-22.62-8.02-33.56-4.96-15.69-11.69-30.91-20.38-44.84,0-.61-.13-1.22-.68-1.77-.54-.68-1.22-1.29-1.77-1.97-2.17-3.26-4.49-6.46-6.86-9.51-1.09-1.43-2.65-.95-3.4,.2-3.67-2.79-7.61-5.37-11.82-7.54-9.85-5.03-22.08-8.36-26.84-19.57-1.22-2.85-5.3-.41-4.14,2.45,4.69,11.14,16.17,15.22,26.16,20.11,8.97,4.35,16.58,9.92,23.37,17.12,9.58,14.54,16.72,30.71,22.01,47.28,6.39,20.11,10.05,41.31,10.12,62.37,0,.14,0,.27,.07,.41-.41,1.49,.88,2.58,2.17,2.65,.68,2.17,4.48,1.83,4.69-.88,1.77-22.69,4.35-46.47,18.89-64.95,13.38-17.05,32.81-30.03,52.52-38.66,2.85-1.29,.41-5.37-2.38-4.14Z" style="fill:#b0c2e4; fill-rule:evenodd;"/><path d="M1577.09,908.25c-4.35-2.17-9.24-2.99-14.13-3.6-1.22-.14-2.44,.95-2.51,2.24-.34,6.66-.34,13.45-1.29,20.11-.27,2.17-.68,5.17-1.63,6.8,0,.14-.34,.41-.41,.61-.07-.07-.14-.07-.14-.07-.41-.27-.81-.68-1.22-1.02-6.25-6.66-7.2-16.51-12.91-23.51-3.12-3.67-7.81-6.73-12.23-8.36-4.89-1.76-10.06-1.22-14.2-4.75-1.56-1.22-3.46,.2-3.73,1.77-1.49,9.1-4.75,19.29-2.04,28.4,2.44,8.02,9.58,12.36,16.64,16.03,3.47,1.77,6.86,3.67,9.99,5.98,1.63,1.22,4.69,3.54,3.8,5.98-.88,2.58-4.96,.68-6.93,0-4.21-1.63-8.08-3.8-11.96-5.77-6.52-3.33-16.58-8.36-23.37-3.33-2.99,2.17-2.72,6.25-1.49,9.31,1.97,4.82,6.66,8.83,10.87,11.69,9.58,6.45,21.47,4.01,31.8,7.95,2.38,.95,9.44,4.62,8.08,8.15-.47,1.22-2.65,1.9-3.73,2.24-2.72,.75-5.91,1.15-8.7,.61-10.6-2.31-18.35-11.41-29.15-13.18-4.69-.82-10.94,.27-14.74,3.39-3.19,2.58-3.26,6.79-1.76,10.26,1.76,4.28,5.71,7.68,9.51,10.12,4.35,2.92,9.24,4.69,14.41,5.09,10.46,.75,21.06-3.6,30.57,2.38,1.36,.82,2.85,2.04,3.13,3.6,.27,1.22-1.09,2.31-1.9,2.92-3.8,2.99-10.05,4.08-14.67,3.8-5.57-.27-10.87-2.99-15.96-4.89-5.37-2.1-10.94-3.26-16.65-2.44-4.21,.68-8.7,2.99-9.38,7.47-.68,4.21,1.77,8.29,4.28,11.35,3.4,4.08,7.95,7.13,12.77,9.31,5.23,2.31,11.48,1.97,17.05,1.29,5.71-.68,11.28-2.11,16.98-2.58,1.56-.14,2.72-.2,4.21-.88,1.49-.54,2.99-1.36,4.62-1.63,1.43-.27,1.22,1.36,1.22,2.51,0,2.65-3.26,4.08-5.17,5.23-1.9,1.09-3.53,2.44-5.5,3.39-2.24,1.09-4.62,1.7-7,2.38-4.62,1.43-9.51,2.79-13.18,6.19-3.53,3.26-4.62,8.49-3.4,13.04,2.58,9.51,14.94,10.19,22.83,7.88,5.03-1.49,8.7-4.55,11.75-8.83,3.73-5.3,5.71-11.28,11.21-14.81,1.49,2.17,1.49,4.48,.27,7.2-1.63,3.8-5.03,6.93-7.88,9.92-5.57,5.71-14.4,12.64-14.74,21.47-.07,1.02,.54,2.04,1.56,2.44,4.75,1.49,9.58,2.17,14.27,.41,3.94-1.49,6.79-5.02,8.83-8.42,3.74-6.25,5.71-14.13,10.67-19.57-.07,1.97-1.02,3.67-2.1,5.84-1.9,3.8-1.9,7.88-1.02,11.96,1.43,6.25,6.25,11.41,12.84,8.29,3.6-1.7,6.38-5.23,8.49-8.43,2.51-3.73,3.8-8.02,4.28-12.36,.68-5.43-.13-11.01-1.63-16.23,10.67,8.08,27.99,13.65,34.85-1.02,5.91-12.5-12.91-11.07-22.22-14.27,1.49-.14,2.99-.07,4.48,0,4.08,.14,8.15,.41,12.23,.2,7.61-.47,14.61-4.08,15.29-12.43,.61-7.2-7.48-6.66-12.3-5.91-3.88,.61-10.73,2.51-14.95,.27,8.97-3.05,18.75-6.45,23.78-14.81,2.17-3.74,4.15-9.92,2.58-14.2-1.29-3.53-5.57-3.05-8.29-2.04-7.54,2.72-13.04,9.24-20.38,12.36-1.77,.82-3.53,1.43-5.43,1.9-.68,.14-1.36,.27-2.11,.27-.27,0-.61-.07-.82-.13,0-.14,0-.27,.07-.41,.27-1.09,.81-2.04,1.36-2.99,1.29-2.04,2.85-3.67,5.03-4.96,3.94-2.44,8.36-3.87,12.23-6.59,4.28-3.06,6.79-7.61,8.22-12.57,1.29-4.42,2.11-9.58,.48-14.06-1.63-4.62-5.71-6.32-10.33-5.98-12.91,1.09-13.93,15.35-19.3,24.19-1.43,2.38-3.46,4.48-5.44,6.25-.81,.82-3.19,3.12-4.48,2.79-.81-.21-.34-4.01-.27-4.76,.41-3.33,1.49-6.04,3.4-8.76,4.75-6.79,12.16-11.75,14.54-20.11,1.49-5.43,1.09-13.32-4.49-16.44-5.91-3.33-13.04,1.77-16.03,6.73-3.88,6.32-3.13,15.01-8.97,19.97-2.04-2.85-2.17-6.32-1.43-10.19,1.16-5.64,3.6-10.87,5.64-16.17,1.9-5.09,3.74-10.53,3.4-16.1-.41-5.57-3.94-9.85-8.83-12.36Z" style="fill:#fff; fill-rule:evenodd;"/><polygon points="1704.47 1319.35 1601.14 1319.35 1567.31 1185.71 1735.93 1185.71 1704.47 1319.35" style="fill:#b0c2e4; fill-rule:evenodd;"/><rect x="1556.03" y="1168.32" width="188.87" height="17.39" style="fill:#9db2d9;"/><polygon points="1651.62 1185.71 1567.31 1185.71 1601.14 1319.35 1651.62 1319.35 1651.62 1185.71" style="fill:#9db2d9; fill-rule:evenodd;"/><rect x="1556.03" y="1168.32" width="95.59" height="17.39" style="fill:#859ac6;"/><polygon points="1704.47 1321.32 1601.14 1321.32 1567.31 1303.31 1735.93 1303.31 1704.47 1321.32" style="fill:#9db2d9; fill-rule:evenodd;"/><polygon points="1651.62 1303.31 1567.31 1303.31 1601.14 1321.32 1651.62 1321.32 1651.62 1303.31" style="fill:#859ac6; fill-rule:evenodd;"/><path d="M732.93,1147.12h-135.1c-4.82,0-8.76,3.94-8.76,8.83h0c0,4.75,3.94,8.7,8.76,8.7h135.1c4.82,0,8.8-3.94,8.8-8.7h0c0-4.89-3.97-8.83-8.8-8.83Z" style="fill:#9c7357; fill-rule:evenodd;"/><path d="M605.92,1313.37c6.45-6.46,15.35-10.4,25.17-10.4h68.58c9.85,0,18.75,3.94,25.21,10.4,6.45,6.46,10.5,15.42,10.5,25.2v7.2h2.72v8.9h-20.21v-8.9h2.72v-7.2c0-5.71-2.34-11.01-6.15-14.74-3.77-3.8-9-6.18-14.78-6.18h-68.58c-5.74,0-10.97,2.38-14.78,6.18-3.77,3.73-6.11,9.04-6.11,14.74v7.2h2.75v8.9h-20.28v-8.9h2.79v-7.2c0-9.78,4.01-18.75,10.46-25.2Z" style="fill:#d0a382; fill-rule:evenodd;"/><rect x="658.03" y="1164.65" width="14.74" height="138.25" style="fill:#d0a382;"/><path d="M728.21,1314.18c-2,2.24-2.24,4.82-1.26,7.54h0c1.83,5.03,7.81,10.6,14.78,16.24,.88,.75,1.7,1.36,2.38,1.97,.17,.14,.37,.27,.51,.48,.14,.14,.31,.2,.44,.34,6.45,5.98,4.04,7.34,15.69,19.5,13.32,13.86,22.49,14.13,25.07,12.84,2.21-1.09-2.28-8.43-7.24-16.65-.24-.41-.48-.75-.71-1.22-.68-1.09-1.33-2.24-1.97-3.33-5.84-9.92-4.35-14.54-2.95-29.35,1.12-11.96,18.68-67.05,18.68-67.05l-25.51-4.42s-7.64,43.89-16.1,50.61c-4.55,3.6-9.58,3.67-13.96,6.32-.27,.2-.61,.41-.88,.54-2.48,1.7-4.99,3.4-6.96,5.64Z" style="fill:#f9af79; fill-rule:evenodd;"/><path d="M728.21,1314.18c-2,2.24-2.24,4.82-1.26,7.54h0c2.24,5.03,8.08,10.6,14.81,16.17,.88,.68,1.67,1.36,2.34,2.04,.17,.14,.37,.27,.51,.48,.14,.14,.31,.2,.44,.34,6.45,5.98,4.04,7.34,15.69,19.5,13.32,13.86,22.49,14.13,25.07,12.84,2.21-1.09-2.28-8.43-7.24-16.65-2.58-.95-14.61-5.85-23.71-17.46-8.02-10.19-13.35-23.37-18.82-30.98-.27,.2-.61,.41-.88,.54-2.48,1.7-4.99,3.4-6.96,5.64Z" style="fill:#172b57; fill-rule:evenodd;"/><path d="M933.72,1298.29c1.56,7.81,12.77,6.59,25.31,3.46,12.53-3.06,9.54,.54,27.38-1.36,17.83-2.04,23.23-8.63,23.81-11.28,.48-2.38-8.36-3.19-17.8-4.35-1.19-.07-2.38-.2-3.57-.41-10.66-1.29-18.51-8.15-28.19-13.86-9.17-5.3-22.86-27.18-22.86-27.18l-24.46,1.9s12.81,19.57,17.8,27.99c2.89,5.03,2.75,11.55,2.38,16.71-.17,2.72-.37,5.57,.2,8.36Z" style="fill:#f9af79; fill-rule:evenodd;"/><path d="M959.03,1301.75c12.53-3.06,9.54,.54,27.38-1.36,17.83-2.04,23.23-8.63,23.81-11.28,.48-2.38-8.36-3.19-17.8-4.35l-.07,.27s-10.74,7.54-25.54,7.88c-12.13,.27-24.93-3.12-33.29-2.99-.17,2.72-.37,5.57,.2,8.36,1.56,7.81,12.77,6.59,25.31,3.46Z" style="fill:#172b57; fill-rule:evenodd;"/><path d="M879.3,939.1s5.81-14.27,12.23-14.81c6.42-.68,26.8-3.8,28.26-.95,1.46,2.99,0,13.45-4.38,17.25-4.35,3.74-31.45,9.85-31.45,9.85l-4.65-11.35Z" style="fill:#f9af79; fill-rule:evenodd;"/><path d="M840,1141.9l-52.72,141.78s-8.09,.81-15.86-1.36c-7.13-2.1-15.32-7.47-15.32-7.47,0,0,13.08-136.21,37.06-164.54,23.98-28.33,46.84,31.59,46.84,31.59Z" style="fill:#172b57; fill-rule:evenodd;"/><path d="M631.56,1084.49s151.43-51.23,185.17-40.29c33.8,10.94,135.2,212.71,135.2,212.71,0,0-2.28,2.99-8.53,5.3-5.81,2.17-19.87,2.1-19.87,2.1,0,0-91.51-78.47-102.42-101.36-10.9-22.9-15.25-44.64-26.12-42.46-10.91,2.17-140.56,53.4-170.02,22.83-29.38-30.44-21.71-70.11-21.71-70.11l28.3,11.28Z" style="fill:#223f81; fill-rule:evenodd;"/><path d="M724.09,846.3c2.41-5.03,5.13-13.86,6.42-29.62-.2,1.5-2.92,21.47-10.56,32.75-31.52,20.65-91.89,89.75-90.7,102.79,0,0-21.23-36.08-21.64-36.28,0,0-39.2-49.87,7.3-78.4,23.61-14.54,23.47-33.22,22.49-49.39-.99-16.17,6.45-85.87,53.77-67.63,0,0,7.61-3.36,11-2.89,0,0-2.78,.54-4.21,2,5.5-.31,13.35,.1,19.91,3.8,17.32,9.85,32.88,98.34,6.22,122.87Z" style="fill:#172b57; fill-rule:evenodd;"/><path d="M718.05,850.44c.17,.07-15.19,8.08-26.74,4.89-10.87-2.92-17.97-17.05-17.83-17.05,4.62-.95,5.94-7.27,5.84-34.44l2.07,.41,34.99,6.93s-.78,11.01-.82,21.4c-.03,8.7,.51,16.99,2.48,17.87Z" style="fill:#f9af79; fill-rule:evenodd;"/><path d="M716.38,811.17s-.78,11.01-.82,21.4c-19.6-.54-29.96-18.41-34.17-28.33l34.99,6.93Z" style="fill:#ec9355; fill-rule:evenodd;"/><path d="M677.76,800.44s-10.23-16.24-12.71-30.1c-1.77-9.92,3.3-46.61,40.15-41.31,0,0,10.7,1.05,20.79,7.88,7.98,5.43,19.53,17.05,6.62,49.05l-3.36,10.87-51.5,3.6Z" style="fill:#172b57; fill-rule:evenodd;"/><path d="M722.94,821.02s-46.33,.75-46.37-28.13c-.03-28.87-6.05-48.24,23.54-49.94,29.55-1.7,35.33,9.31,37.71,18.96,2.34,9.65-2.82,58.16-14.88,59.11Z" style="fill:#f9af79; fill-rule:evenodd;"/><path d="M721.21,742.28s-12.7,33.9-32.17,38.86c-19.43,4.96-27.89-.2-27.89-.2,0,0,14.95-11.89,18.04-32.61,0,0,32.44-22.18,42.02-6.04Z" style="fill:#172b57; fill-rule:evenodd;"/><path d="M718.05,745.07s9.51,7.47,11.82,14.88c2.31,7.34,3.33,22.49,7.75,21.94,0,0,9.54-22.96-1.19-36-11.38-13.83-18.38-.82-18.38-.82Z" style="fill:#172b57; fill-rule:evenodd;"/><path d="M596,1085.3c2.51,6.93,10.16,8.7,20.45,7.54,19.57-2.31,48.68-15.42,69.64-24.53,31.97-13.86,46.47-.81,56.66-9.65,10.16-8.83-11.62-28.4,7.27-119.43,6.39-30.91-34.17-97.08-34.17-97.08,0,0-3.53,19.16-42.36-3.87-1.36-.82-16.68,21.81-31.39,49.73-16.24,30.71-31.76,67.94-27.18,87.1,8.7,36.55-26.19,90.08-18.92,110.19Z" style="fill:#6d96ce; fill-rule:evenodd;"/><path d="M715.84,842.15l23.91,98.17s2.99,5.3,7.64,12.91c10.97,17.67,31.25,47.83,44.26,50.82,6.39,1.49,20.01-3.8,35.09-11.41,28.53-14.4,62.23-36.96,62.23-36.96,2.17-13.04-9.2-23.78-9.2-23.78,0,0-68.28,25.68-75.04,26.23-14.81,1.02-29.82-70.32-43.65-94.09-9.99-17.19-45.25-21.88-45.25-21.88Z" style="fill:#6d96ce; fill-rule:evenodd;"/><path d="M596,1085.3c2.51,6.93,10.16,8.7,20.45,7.54,13.55-5.91,72.12-28.6,71.44-43.96-.95-22.76-11.24-23.51-3.97-51.56,5.81-22.56-48.27-64.47-56.9-73.58-16.24,30.71-16.68,32.2-12.09,51.36,8.7,36.55-26.19,90.08-18.92,110.19Z" style="fill:#466fb5; fill-rule:evenodd;"/><path d="M747.4,953.23c10.97,17.67,31.25,47.83,44.26,50.82,6.39,1.49,20.01-3.8,35.09-11.41-11.01,2.85-21.67,2.72-32.07,1.76-11.28-1.09-14.54-14.94-32.34-35.6-11.55-13.45-14.37-10.06-14.94-5.57Z" style="fill:#466fb5; fill-rule:evenodd;"/><path d="M693.15,996.71s9.82-7.61,19.09-5.78c9.24,1.83,13.79,8.22,13.42,11.07-.34,2.92-5.27,11.14-12.33,11.82-7.1,.68-27.24-4.35-27.24-4.35l7.07-12.77Z" style="fill:#f9af79; fill-rule:evenodd;"/><path d="M673.48,838.28s-37.78,2.31-50.82,20.52c-18.41,25.68-50.38,130.44-41.68,154.42l114.88-.47s2.82-13.04-1.09-19.3c-3.84-6.32-66.78-16.51-69.7-19.43-2.92-2.85,36.31-56.66,36.31-65.36s12.09-70.38,12.09-70.38Z" style="fill:#6d96ce; fill-rule:evenodd;"/><polygon points="703.03 1039.65 842.1 1039.65 867.21 952.21 728.31 952.21 703.03 1039.65" style="fill:#c4d1eb; fill-rule:evenodd;"/><rect x="659.83" y="1036.25" width="181.8" height="3.4" style="fill:#859ac6;"/><path d="M797.94,994.54c.88-3.12-.88-5.57-3.97-5.57s-6.29,2.45-7.17,5.57c-.85,3.06,.92,5.57,3.97,5.57s6.29-2.51,7.17-5.57Z" style="fill:#859ac6; fill-rule:evenodd;"/><path d="M142.27,741.4c4.08,.27,7.98-4.55,9.1-5.98,4.35-5.5,7.1-11.96,8.22-15.56-.85-2.41-1.73-5.47-2.68-9.14-15.63-10.63-17.77-18.48-6.39-23.61,2.28,1.29,5.13,5.27,8.53,11.92,2.72-.14,4.76-1.53,6.18-4.18-3.23-11.21-5.33-20.31-6.32-27.31,7.71-11.45,25.78-13.11,49.66-9.99,1.12,6.32,2,13.08,2.72,20.21,4.25,3.87,3.7,18.31-.2,34.96,1.97,9.44-3.87,14.6-17.49,15.49-.14,2.28,.03,4.89,.1,6.49,.03,1.46,.07,4.25,1.6,4.79l2.51,.54c-.24,33.83-17.56,40.36-55.54,1.36Z" style="fill:#f9af79; fill-rule:evenodd;"/><path d="M208.58,657.56c-23.88-3.12-41.95-1.46-49.66,9.99,.95,7,3.09,16.1,6.32,27.28-1.43,2.68-3.47,4.07-6.18,4.21-3.4-6.66-6.25-10.63-8.53-11.92-11.38,5.13-9.24,12.98,6.42,23.61,.92,3.67,1.8,6.73,2.65,9.14-14.1-3.16-25.92-15.76-27.55-21.23-16.44-32.37,1.87-46.06,11.72-51.06,4.31-32.1,51.09-4.38,63.39-23.95,25.71,14.67,8.66,33.63,1.43,33.93Z" style="fill:#172b57; fill-rule:evenodd;"/><path d="M177.87,724.92c3.84,1.9,9.04,2.95,15.73,3.29-.14,2.24-.07,4.83,.07,6.46-6.66-1.29-11.92-4.55-15.79-9.75Z" style="fill:#ed7d57; fill-rule:evenodd;"/><path d="M113.77,1374.71c-14.84-5.16-16.03-12.91-24.05-16.58-8.05-3.8-8.97-10.46-1.09-17.8,5.81,4.69,13.04,10.46,16.85,7.34,2.55-1.97,11.21-1.83,12.91,1.09,7.57,17.53,18.07,11.96,20.14,19.98,.24,10.6-17.97,8.42-24.76,5.98Z" style="fill:#0e2952; fill-rule:evenodd;"/><path d="M242.42,1357.32c-26.16-.41-45.69-.75-54.73-3.6-9.75-3.06-7.74-9.04-2.14-18.55,24.66,11.35,18.11-2.31,29.62-.54,8.08,6.52,20.08,10.87,35.97,13.04,6.73,5.03,3.97,9.38-8.73,9.65Z" style="fill:#0e2952; fill-rule:evenodd;"/><path d="M229.37,745.2c-13.08-3.8-24.76-6.12-35.16-6.93-1.9,28.67-16.85,28.53-44.87-.54-27,2.24-32.27,2.58-47.28,7.47-32.41,30.98-35.4,66.71-52.34,107.48,18.78,.88,27.18,3.12,39.95,7.68,2.75-9.78,5.03-17.67,6.9-23.64-.54,53.87-.75,90.7-.61,110.67,62.03,24.59,113.15,16.17,134.01-2.99,.31-47.83,.68-85.74,1.19-113.66,7.44,8.76,14.3,15.56,20.65,20.31,15.18-17.39,25.51-24.46,34.14-34.72-19.09-31.32-46.47-60.53-56.56-71.13Z" style="fill:#6d96ce; fill-rule:evenodd;"/><path d="M354.38,797.65c-32.58,13.59-55.4,24.73-68.45,33.56l-5.81-8.56c-5.4,5.37-11.55,10.67-19.06,18.35,6.93,7.34,14.4,13.25,23.07,18.34,22.66-2.45,47.69-19.57,75.11-51.5,8.53-1.7,14.78-4.76,18.82-9.24,.2-4.15-1.87-8.22-6.22-12.37,11.38-7.4,15.9-12.7,13.59-15.9-17.8,11-28.16,20.11-31.05,27.31Z" style="fill:#f9af79; fill-rule:evenodd;"/><path d="M229.95,944.4c-1.22,4.69,3.84,32,4.69,46.27,8.25,50.89,1.19,117.19-3.26,202.39-7.95,30.03-19.67,70.11-18.92,126.36-13.83,4.21-18.85,4.69-31.32,1.5-8.73-58.77-2.78-105.85,5.1-127.59-5.06-33.56-12.57-71.2-23.57-125.41-12.36,59.11-28.91,103-36.11,131.6-1.39,31.86-7.85,74.93-11.24,129.22-10.26,3.06-16.64,4.01-27.31,2.65-13.86-49.87-11.52-104.08-5.67-162.71,6.25-70.45-4.04-150.07,6.25-177.66,5.27-16.31,5.95-30.85,7.37-43.62,51.77,17.25,96.44,16.24,134.01-2.99Z" style="fill:#466fb5; fill-rule:evenodd;"/><path d="M105.49,892.7c-3.33,.48-6.49,.95-9.44,1.29-.14,23.78-.17,41.58-.1,53.4,2.92,1.36,7.03,2.85,10.26,3.26,0-1.56-.48-5.09-.51-6.59-.21-18.14-.27-35.26-.21-51.36h0Zm151.67-47.56c-9.14-7.61-17.84-19.98-26.09-37.09,.92,5.91,1.32,13.93,1.12,23.91,7.03,8.15,13.55,14.54,19.6,19.09,1.87-2.11,3.63-4.08,5.37-5.91h0Zm-149.09-46.33c-4.04,12.97-7.88,25.61-11.55,37.91-.1,10.39-.17,20.18-.24,29.28,2.65-.2,5.77-.41,9.44-.48,.41-25.27,1.19-47.49,2.34-66.71Z" style="fill:#466fb5; fill-rule:evenodd;"/><path d="M189.97,817.49h68.28c3.12,0,5.3,2.51,4.79,5.64l-15.32,96.81c-.51,3.06-3.46,5.64-6.59,5.64h-68.31c-3.12,0-5.27-2.59-4.79-5.64l15.32-96.81c.51-3.12,3.47-5.64,6.63-5.64Z" style="fill:#223f81; fill-rule:evenodd;"/><path d="M56.03,853.09c-2.96,11.96-4.18,22.96-1.77,37.5,7.37,10.6,37.13,4.62,113.73-8.15,2.72,2.51,8.39,5.03,17.02,3.94,8.02-2.04,8.39-4.14,17.36-12.64,2.21-6.52,1.77-11.55-1.32-15.08-10.12,5.98-15.46,9.1-26.83,9.51,3.02-7.81,3.5-12.84,1.39-15.09-3.91,3.13-6.45,7.75-7.61,14-60.4-2.59-76.29-2.24-84.34,1.97,.85-3.81,1.63-7.13,2.34-9.99-9.41-3.26-17.09-5.03-29.96-5.98Z" style="fill:#f9af79; fill-rule:evenodd;"/><path d="M187.28,1322.27c.64,5.16,.71,9.78,.27,13.86,20.62,8.97,17.12-1.36,25.34-1.7-2.04-3.6-3.4-8.22-4.01-13.93-9,2.58-14.1,3.12-21.6,1.77h0Zm-96.03,9.51c0,3.67-.37,7-1.09,9.78,5.5,4.35,11.82,8.97,15.32,6.11,1.7-1.29,6.01-1.63,9.24-.95-1.33-4.48-2.38-10.19-3.16-16.98-7.24,2.04-12.77,2.65-20.31,2.04Z" style="fill:#f9af79; fill-rule:evenodd;"/><path d="M234.64,990.66c-36.38,33.9-85.09,34.04-146.07,.34-10.29,27.58,0,107.2-6.25,177.66-5.84,58.63-8.19,112.85,5.67,162.71,1.12,.14,2.21,.27,3.26,.41,7.54,.61,13.11,0,20.31-2.04,1.19-.27,2.45-.61,3.74-1.02,3.4-54.28,9.85-97.36,11.24-129.22,7.2-28.6,23.74-72.49,36.11-131.6,11.01,54.21,18.51,91.85,23.57,125.41-7.88,21.74-13.82,68.82-5.1,127.59,2.24,.61,4.28,1.09,6.15,1.36,7.51,1.36,12.6,.82,21.6-1.77,1.12-.34,2.34-.68,3.57-1.09-.75-56.25,10.97-96.33,18.92-126.36,4.45-85.19,11.52-151.5,3.26-202.39Z" style="fill:#223f81; fill-rule:evenodd;"/><path d="M177.16,1280.56c13.32,3.53,25.44,4.69,36.52,3.26,.24-2.92,.51-5.78,.78-8.63-12.09,1.56-24.63,.75-37.57-2.38,.1,2.51,.17,5.09,.27,7.75h0Zm-97.01,10.05c14.44,1.77,27.24,.82,38.35-2.85,.31-2.99,.58-5.97,.85-8.97-12.5,4.08-25.85,5.5-40.02,4.21,.24,2.58,.51,5.1,.82,7.61h0Zm36.48,19.16c.24-3.06,.48-5.98,.75-8.97-11.18,3.13-22.96,4.08-35.39,2.99,.41,2.58,.85,5.16,1.36,7.75,12.33,1.36,23.4,.75,33.29-1.77h0Zm96.4-16.65c-11.28,1.83-22.96,1.7-35.12-.61,.21,2.58,.44,5.16,.68,7.81,12.43,2.65,23.78,3.06,34.04,1.43,.1-2.99,.24-5.84,.41-8.63Z" style="fill:#0e2952; fill-rule:evenodd;"/><path d="M1532.59,1194.82c-21.94,4.21-49.6,12.77-82.82,25.68,2.31,.61,4.41,1.36,6.39,2.17,45.79-16.58,76.23-25,91.1-25-2.65-.95-5.3-1.63-7.95-1.9,.27-24.46,1.49-45.99,3.8-64.81-5.64,29.15-9.1,50.41-10.53,63.86Z" style="fill:#466fb5; fill-rule:evenodd;"/><path d="M1449.78,1220.5c-10.19-2.99-19.16-2.31-27.04,2.04l6.59,22.96c.75,2.65-.75,4.69-3.33,4.62l6.12,.27c2.79-1.63,5.71-2.58,8.56-2.99,5.64,3.53,12.91,2.78,22.08-2.31,.61-9.1-1.7-16.58-7-22.28,.13,0,.27-.07,.41-.14-1.97-.81-4.08-1.56-6.39-2.17Z" style="fill:#f9af79; fill-rule:evenodd;"/><path d="M1525.73,1261.6c1.43-8.22,2.78-17.19,4.14-26.63-17.26,4.55-39.75,8.77-67.46,12.84,.14-.95,.27-1.83,.34-2.72-9.17,5.09-16.44,5.84-22.08,2.31-2.85,.41-5.77,1.36-8.56,2.99l62.03,2.58c-.75,4.14-2.58,7.34-5.37,9.24,13.04,.54,25.34,.41,36.96-.61Z" style="fill:#466fb5; fill-rule:evenodd;"/><path d="M1422.73,1222.53c5.85-3.26,12.43-4.48,19.7-3.6,11.82-25.61,4.48-62.03,21.2-117.6-12.09,6.04-26.09,35.26-42.12,87.71-1.7,1.43-4.08,3.12-7.07,4.96l8.29,28.53Z" style="fill:#6d96ce; fill-rule:evenodd;"/><path d="M1463.63,1101.34c-16.71,55.57-9.38,91.99-21.26,117.6,2.38,.27,4.96,.81,7.41,1.56,33.22-12.91,60.87-21.47,82.82-25.68,1.43-13.45,4.89-34.72,10.53-63.86-2.31,18.82-3.53,40.36-3.8,64.81,2.65,.27,5.3,.95,7.95,1.9-14.88,0-45.31,8.43-91.1,25l-.41,.14c5.3,5.71,7.61,13.18,7,22.28-.07,.88-.2,1.77-.34,2.72,27.72-4.08,50.21-8.29,67.46-12.84,14.2-3.74,24.93-7.61,32.07-11.68,18.68-31.12,21.67-71.27,8.76-120.59-6.93-8.83-22.49-12.16-46.6-9.92-25.14,21.2-36.69,22.28-34.51,3.13-11,.27-19.63,2.04-25.95,5.44Z" style="fill:#6d96ce; fill-rule:evenodd;"/><path d="M1462.82,1101.74c-14.95,30.91-17.46,93.69-24.32,100.48-2.58,3.13-8.7,6.93-18.34,11.48l.14,.61,2.44,8.22c5.85-3.26,12.43-4.48,19.7-3.6,11.82-25.61,4.48-62.03,21.2-117.6-.27,.13-.54,.27-.81,.41Z" style="fill:#466fb5; fill-rule:evenodd;"/><path d="M1330.61,1258.13l149.67,6.25c7.68,.34,12.57-3.94,13.86-11.42l-168.49-7.06h-.48c-1.63-.14-4.01,.61-3.26,5.16,.68,3.74,4.62,6.93,8.7,7.07Z" style="fill:#859ac6; fill-rule:evenodd;"/><path d="M1306.09,1165.47l96.67,4.08c2.58,.07,5.3,2.31,6.12,4.89l20.45,71.06c.75,2.65-.75,4.69-3.33,4.62l-96.67-4.08c-2.58-.13-5.3-2.31-6.05-4.89l-20.45-71.13c-.75-2.65,.75-4.62,3.26-4.55Z" style="fill:#c4d1eb; fill-rule:evenodd;"/><path d="M1314.71,1194.41l12.64,43.68c.61,2.17,2.92,4.14,5.16,4.28l88.25,3.67c2.24,.14,3.33-1.63,2.72-3.67l-8.43-29.21c-7.27,.88-14.88,1.36-22.62,1.36-5.84,0-11.55-.27-17.12-.81-1.09,2.99-3.94,5.03-7.61,5.03-4.55,0-8.97-3.26-10.46-7.61-16.92-3.47-31.52-9.31-42.53-16.71Z" style="fill:#859ac6; fill-rule:evenodd;"/><path d="M1285.77,1270.64c7.41-4.89,13.04-9.31,17.12-13.45,6.25,2.85,12.23,5.44,17.94,7.68,13.72-1.77,29.76-3.46,48.24-5.09l-38.45-1.63c-4.08-.14-8.02-3.33-8.7-7.07-.75-4.55,1.63-5.3,3.26-5.16h.48l3.67,.13c-2.58-.13-5.3-2.31-6.05-4.89l-10.12-35.19c-6.18-.34-11.62-.41-16.37-.34-27.17,9.85-50.55,50.21-101.03,83.77,.88,8.83,5.17,14.4,11.89,19.97,26.5-11.28,53.13-23.92,68.75-33.02,3.39-1.97,6.52-3.94,9.37-5.71Z" style="fill:#223f81; fill-rule:evenodd;"/><path d="M1141.81,1293.12c20.04,17.73,34.99,28.4,43.75,32.41,9.51,4.48,12.16,1.09,14.47-9.92-26.43-8.42-12.02-14.26-21.94-20.92-10.67-.61-22.76-5.57-36.28-14.81-8.49-.95-9.44,4.35,0,13.25Z" style="fill:#223f81; fill-rule:evenodd;"/><path d="M1147.04,1270.09c.88,6.12,1.49,9.1,2.24,14.54h0l.41,.2,.2,.07,.2,.14,.41,.27h0l.41,.27,.2,.07,.2,.14,.34,.2h.14l.34,.27h.2l1.02,.61,.14,.07,.27,.14,.34,.2,.07,.07,.41,.14,.07,.14,.27,.13,.34,.14h.07l.41,.27h.13l.27,.14,.27,.13,.14,.07,.41,.2h.07l.34,.13,.27,.14,.14,.14,.34,.14h.07l.34,.14,.2,.13,.54,.27h.07l.61,.27h.14l.41,.2h0l.34,.21h.2l.2,.13,.34,.14h0l.41,.14,.2,.07,.2,.07,.34,.14h0l.41,.14,.14,.14,.2,.07,.41,.07v.07l.41,.14,.14,.07,.2,.07,.34,.07h0l.41,.13,.14,.07,.27,.07,.34,.14,.34,.14h.14l.27,.14,.27,.07h.13l.27,.07,.14,.07,.27,.07,.27,.14h.13l.34,.07,.07,.07h.27l.27,.14h.13l.34,.07,.75,.2,.34,.07h0l.34,.07,.14,.07,.27,.07h.27l.41,.14h.34l.34,.14h.34l.2,.07,.14,.07c0-.68-.14-1.42-.41-2.17-7.61-7.47-14.4-15.49-18.61-31.32-5.84-6.18-8.97-3.67-7.61,9.31h0Zm4.89,31.79c1.63,8.49,3.53,16.38,5.3,20.52,4.01,8.56,11.34,4.14,19.43-1.9-6.59-4.21-14.88-10.46-24.73-18.62Z" style="fill:#0e2952; fill-rule:evenodd;"/><path d="M1163.62,1291.56h.2l.07,.07,.41,.14,.14,.07h.2l.34,.14h0l.41,.13,.14,.07,.27,.07,.34,.14,.34,.14h.14l.27,.14,.27,.07h.13l.27,.07,.14,.07,.27,.07,.27,.14h.13l.34,.07,.07,.07h.27l.27,.14h.13l.34,.07,.75,.2,.34,.07h0l.34,.07,.14,.07,.27,.07h.27l.41,.14h.34l.34,.14h.34l.2,.07,.14,.07c0-.68-.14-1.42-.41-2.17-7.61-7.47-14.4-15.49-18.61-31.32-1.5-1.63-2.85-2.65-3.94-3.06,.81,13.04,5.16,24.32,12.91,33.83Z" style="fill:#223f81; fill-rule:evenodd;"/><path d="M1197.45,1314.73c2.44-3.19,5.03-5.64,7.95-7.33-4.62-4.21-7.81-8.63-9.17-14.61-5.16,2.72-10.26,4.35-15.22,4.75,3.54,5.3-3.06,10.4,16.44,17.19Z" style="fill:#f9af79; fill-rule:evenodd;"/><path d="M1477.63,1318.26c32.34-2.11,45.52-26.16,44.84-56.46-10.67,.82-21.88,.95-33.7,.41-2.24,1.56-5.1,2.31-8.49,2.17l-111.21-4.62c-18.48,1.63-34.51,3.33-48.24,5.09-8.43,1.09-16.04,2.24-22.69,3.33-4.76,1.36-11.89,3.94-21.4,7.95l-.34,.21c-15.63,9.1-42.26,21.74-68.75,33.02-.75-.68-1.49-1.29-2.24-1.97-2.92,1.7-5.51,4.14-7.95,7.33,.81,.27,1.7,.61,2.58,.88,0,.14,0,.34-.14,.54,75.41,6.79,100.28-4.62,120.25-10.67,65.49,11.69,97.02,15.96,157.48,12.77Z" style="fill:#223f81; fill-rule:evenodd;"/><path d="M1514.86,1055c-2.45-10.19-2.99-21.88-6.32-26.36-27.24-9.51-30.23,5.57-42.19,8.43-.14,3.67,.95,7.88,3.4,12.5-.95,16.44,2.99,26.63,11.55,30.57,2.24,2.31,5.84,3.67,10.87,4.01-.54,2.1-1.97,9.71-2.58,11.75h0c-2.17,19.16,9.38,18.07,34.51-3.13h.14c-.14-6.79-.75-11.96-.68-16.98,.14-3.46,.27-6.52,.41-9.24,9.04-9.38,10.8-16.99,5.37-22.83-7.13-3.4-11.21,1.43-12.43,14.4-2.04-.81-.61-.14-2.04-3.12Z" style="fill:#f9af79; fill-rule:evenodd;"/><path d="M1466.35,1037.07c11.96-2.85,14.95-17.94,42.19-8.43,3.33,4.48,3.87,16.17,6.32,26.36,1.43,2.99-.07,2.31,2.04,3.12,1.22-12.97,5.3-17.8,12.43-14.4,5.44,5.84,3.67,13.45-5.37,22.83-.14,2.72-.27,5.77-.41,9.24,25.34-23.37,20.25-55.03,4.82-65.49,3.74,.41,7.54,1.83,11.48,4.35-5.64-7.47-13.18-10.12-22.69-7.81,1.02-5.37,.81-9.31-.54-11.82-.48,3.6-1.22,6.32-2.17,8.36-6.12-5.57-17.87-6.93-29.89-2.38-15.49,5.84-31.59,20.11-37.71,15.83,.95,14.67,9.31,23.64,19.5,20.25Z" style="fill:#20386f; fill-rule:evenodd;"/><path d="M1508.2,1079.53c-4.55,2.92-9.92,4.49-16.03,4.62-.27,1.15-.88,4.01-1.43,6.72,7.81-2.11,13.59-5.84,17.46-11.35Z" style="fill:#ed7d57; fill-rule:evenodd;"/><path d="M1322.19,1247.47c-8.56-2.92-15.83-6.59-21.94-10.8-2.92,2.79-5.71,5.5-8.56,8.16-27.72,25.82-54.49,45.58-80.24,57.75-2.51,1.22-5.03,2.31-7.61,3.4,.54,.48,1.02,.95,1.56,1.43l2.24,1.97c5.3-2.17,10.46-4.49,15.62-6.8,20.93-9.38,40.63-18.89,53.13-26.22,.13-.07,.27-.14,.34-.21,3.19-1.9,6.25-3.74,9.03-5.5,2.11-1.43,4.08-2.72,5.91-4.08,4.55-3.26,8.36-6.39,11.21-9.38,6.25,2.85,12.23,5.44,17.94,7.68,7.75-1.02,16.24-1.97,25.48-2.92,7.13-.75,14.74-1.49,22.76-2.17l-22.76-.95-15.7-.68c-4.08-.14-8.02-3.33-8.7-7.07-.27-1.63-.14-2.78,.27-3.6Z" style="fill:#0e2952; fill-rule:evenodd;"/><path d="M1473.01,1302.57c-18.75,5.3-44.97,5.98-78.47,1.97-5.71-.61-11.21-1.29-16.58-1.97-11.48-1.36-22.01-2.85-31.66-4.35-9.65-1.43-18.41-2.92-26.16-4.41-5.78,3.33-12.36,6.32-19.84,8.76-2.72,.95-5.57,1.77-8.63,2.58-23.51,6.25-54.42,8.83-92.6,7.61-.54,.61-1.09,1.29-1.63,1.97,.81,.27,1.7,.61,2.58,.88l-.14,.54c45.93,4.14,73.03,1.56,91.79-2.44,12.02-2.65,20.65-5.84,28.47-8.22,9.38,1.7,18,3.19,26.16,4.55,48.84,8.15,79.42,10.94,131.32,8.22,14.54-.88,25.14-6.32,32.34-14.61,8.97-10.33,12.84-25.13,12.5-41.85-1.43,.14-2.85,.27-4.35,.34-2.99,.14-5.98,.27-9.04,.34-1.02,20.25-13.11,33.63-36.07,40.08Z" style="fill:#0e2952; fill-rule:evenodd;"/><path d="M1365.12,1202.7c3.67,0,7.07,2.99,7.61,6.59,.61,3.6-1.9,6.52-5.44,6.52s-7.07-2.92-7.61-6.52c-.61-3.6,1.84-6.59,5.43-6.59Z" style="fill:#859ac6; fill-rule:evenodd;"/><path d="M265.11,133.86c1.29-2.72,2.82-7.58,3.53-16.24-.1,.88-1.63,11.79-5.81,17.97-17.26,11.31-50.27,49.09-49.63,56.25,0,0-11.62-19.74-11.82-19.84,0,0-21.47-27.31,3.97-42.94,12.91-7.95,12.87-18.14,12.3-27.04-.51-8.83,3.53-46.98,29.45-36.99,0,0,4.14-1.83,6.01-1.56,0,0-1.53,.27-2.28,1.09,2.99-.17,7.3,.03,10.87,2.07,9.48,5.4,17.97,53.81,3.4,67.22Z" style="fill:#20386f; fill-rule:evenodd;"/><path d="M306.41,76.18c10.16,20.28,1.77,43.62-18.17,51.87-20.04,8.29-41.98,3.57-52.11-16.71-10.12-20.24-2.62-44.53,16.81-54.25,19.4-9.71,43.35-1.15,53.47,19.09Z" style="fill:#20386f; fill-rule:evenodd;"/><path d="M282.8,155.03c11.55,2.58,26.09,34.65,33.19,55.17,7.2,20.69,19.4,46.37,27.38,54.35,7.98,7.98,60.4,26.5,60.4,26.5,0,0-129.56,.24-126.87,0,2.65-.27,5.91-136.01,5.91-136.01Z" style="fill:#6d96ce; fill-rule:evenodd;"/><path d="M351.59,280.75c-7.1-1.02-32.68,2.28-21.81-2.31,10.91-4.55,9.38-10.36,9.38-10.36,0,0-15.42,12.91-18.21,1.63-2.41-9.75-3.33-44.16-12.47-78.6-7.51-17.12-17.39-34.21-25.68-36.08,0,0-.31,12.13-.78,29.15,3.19,37.67,8.59,93.01,9.95,106.97,17.19,0,45.93,0,69.98-.03l15.97-.78s-19.23-8.59-26.33-9.58Z" style="fill:#466fb5; fill-rule:evenodd;"/><path d="M240.41,147.93s-36.68,20.52-45.25,24.87c-8.53,4.35,23.98,132.27,31.18,137.78,7.24,5.47,70.89,.92,78.13-5.98,7.27-6.93-5.57-28.13,.71-70.55,6.28-42.43-19.13-79.08-22.39-79.01-3.26,.1-24.56-7.1-24.56-7.1h-17.84Z" style="fill:#6d96ce; fill-rule:evenodd;"/><path d="M226.35,310.57c7.24,5.47,52.79,5.57,72.18-.44,2.17-.68,12.13-4.65,12.33-8.36-2.31-.44-11.62,.68-15.39-.2-13.11-3.02-20.35-19.26-20.35-19.26,0,0-7.2-2.58-23.34-9.41-16.17-6.86-9.51-27.55-9.88-36.69-.41-9.1-15.96-38.96-45.21-61.55l-2.68,1.19c-2.11,20.79,25.68,129.63,32.34,134.72Z" style="fill:#466fb5; fill-rule:evenodd;"/><path d="M478.33,210.19h-88.29l-40.22,85.6h97.25l36.41-77.48c1.77-3.8-.99-8.12-5.16-8.12Z" style="fill:#e5bb9a; fill-rule:evenodd;"/><path d="M355.09,296.98h-53.16c-3.3,0-5.98-2.65-5.98-5.95s2.68-5.98,5.98-5.98h49.36l33.32-71.78c1.39-2.99,4.96-4.28,7.95-2.92,2.99,1.43,4.28,4.93,2.89,7.95l-34.99,75.24c-.95,2.11-3.06,3.43-5.37,3.43Z" style="fill:#d0a382; fill-rule:evenodd;"/><path d="M262.93,278.71c23.03,4.31,28.7,9.61,41.27,11.62,14.27,2.31,12.57,5.47,1.97,5.47s-37.16,.41-46.3-1.63c-9.14-2.04,3.06-15.45,3.06-15.45Z" style="fill:#f9af79; fill-rule:evenodd;"/><path d="M192.31,175.2c-17.67,56.46-42.73,120.59-38.73,120.59s105.44,4.08,109.41,.68c4.01-3.43,2.85-16.54,2.28-18.24-.58-1.73-57.68-11.86-57.68-11.86,0,0,7.54-14.64,10.39-43.28,2.85-28.67-22.35-58.6-25.68-47.9Z" style="fill:#6d96ce; fill-rule:evenodd;"/><path d="M253.86,98.84l-14.27,52.01s24.05,37.57,30.67,34.21c6.62-3.33-3.7-30.5-3.7-34.21s10.33-41.81,10.33-41.81l-23.03-10.19Z" style="fill:#f9af79; fill-rule:evenodd;"/><path d="M267.08,153.5c-.31-1.22-.51-2.14-.51-2.65,0-3.67,10.33-41.81,10.33-41.81l-23.03-10.19-4.72,17.22c4.11,17.77,11.52,29.62,17.94,37.44Z" style="fill:#f29e63; fill-rule:evenodd;"/><path d="M307.09,97.99c2.72,15.08,.92,35.12-12.47,40.22-13.38,5.06-29.52-4.65-36.01-21.78-6.52-17.12-.95-35.12,12.43-40.22,13.42-5.09,32.81,3.74,36.04,21.78Z" style="fill:#f9af79; fill-rule:evenodd;"/><path d="M261.78,106.45c1.87,5.3,.24,10.7-3.63,12.09-3.91,1.36-8.56-1.77-10.46-7.07-1.87-5.27-.24-10.67,3.63-12.06,3.91-1.36,8.59,1.77,10.46,7.03Z" style="fill:#f9af79; fill-rule:evenodd;"/><path d="M307.26,79.04c-4.55,35.39-47.55,30.84-47.55,30.84,0,0-8.87-11.69-12.87-5.54-3.97,6.11,5.54-35.9,30.2-37.23,8.12-.41,30.23,11.92,30.23,11.92Z" style="fill:#20386f; fill-rule:evenodd;"/><polygon points="193.87 552.94 199.21 552.94 233.58 393.59 221.86 393.59 193.87 552.94" style="fill:#9c7357; fill-rule:evenodd;"/><polygon points="359.44 552.94 354.11 552.94 314.09 387.99 325.81 387.99 359.44 552.94" style="fill:#9c7357; fill-rule:evenodd;"/><path d="M254.64,399.57c-21.33,0-34.85-3.84-43.48-12.23-10.7-10.43-12.91-26.53-12.94-47.56-.04-16.54-.41-27.31-1.29-36.04-.34-3.26,2.04-6.22,5.3-6.52,3.3-.34,6.22,2.04,6.56,5.3,.92,9.14,1.36,20.28,1.39,37.23,0,21.3,2.72,32.61,9.31,39.03,6.79,6.59,18.99,9.31,39.64,8.8,19.94-.48,33.66-3.26,44.7-5.54,14.5-2.96,24.97-5.06,37.43,.85,2.95,1.46,4.21,4.99,2.79,7.98-1.43,2.99-4.99,4.25-7.95,2.82-8.83-4.21-16.31-2.72-29.89,.07-11.48,2.34-25.78,5.23-46.78,5.74-1.63,.07-3.23,.07-4.79,.07Z" style="fill:#9c7357; fill-rule:evenodd;"/><path d="M206.17,296.47l32.65,1.36-8.7,90.15s-24.32-15.56-23.95-32.27c.41-16.71,0-59.24,0-59.24Z" style="fill:#9c7357; fill-rule:evenodd;"/><path d="M367.35,304.86c27.62-4.18,36.99-2.85,53.91,28.57,16.88,31.45,39.4,88.08,52.35,95.42,19.46,11.01,25.92,37.98,33.9,36.79,8.02-1.22,13.15,2.31,4.45,9.54-8.7,7.24-22.76,13.38-27.55,12.09-4.82-1.26-8.56-22.05-21.09-28.77-12.57-6.76-8.8-12.26-7.95-18.24,.81-5.98-36.65-33.43-64.88-67.56-17.26-20.89-26.16-34.65-27.48-47.15-1.29-12.47,4.35-20.69,4.35-20.69Z" style="fill:#f9af79; fill-rule:evenodd;"/><path d="M435.8,418.9c-6.39-16.27-12.84-43.11-18.89-67.73-8.59-35.02-17.6-43.31-23.3-47.05-6.9-1.77-15.08-.95-26.26,.75,0,0-5.64,8.22-4.35,20.69,1.32,12.5,10.23,26.26,27.48,47.15,14.84,17.97,32.27,34.1,45.32,46.2Z" style="fill:#f29e63; fill-rule:evenodd;"/><path d="M375.78,332.55s-7.34,55.44-14.2,61.08c-4.89,4.01-8.36,4.28-11.75-12.26-3.43-16.51,5.3-78.23,5.3-78.23l20.65,29.42Z" style="fill:#0e2952; fill-rule:evenodd;"/><polygon points="369.93 362.54 301.93 373.96 340.31 318.93 369.53 312.98 387.06 316.99 369.93 362.54" style="fill:#f1944e; fill-rule:evenodd;"/><path d="M455.37,440.26c-2.24,8.9-1.94,15.46,1.87,18.72,3.84,3.29,18.31,27.75,18.31,27.75l4.52-.68-10.46-22.39-14.23-23.41Z" style="fill:#0e2952; fill-rule:evenodd;"/><path d="M484.41,487.28c4.79,1.29,18.85-4.86,27.55-12.09,8.7-7.24,3.57-10.77-4.45-9.54-.44,.07-.88,.03-1.33-.1-4.01,8.93-17.15,15.63-21.36,6.22-4.21-9.34-22.22-27.92-29.45-31.9v.41c-.85,5.98-4.62,11.48,7.95,18.24,12.54,6.73,16.27,27.51,21.09,28.77Z" style="fill:#0e2952; fill-rule:evenodd;"/><path d="M228.59,307.07c-24.12,43.31-7.64,70.79,21.67,73.65,29.32,2.79,75.62-2.58,102.59-25,26.97-22.42,49.12-46.13,46.03-49.66-3.09-3.53-170.29,1.02-170.29,1.02Z" style="fill:#f29e63; fill-rule:evenodd;"/><path d="M365.38,339.38c4.92-14.81,10.63-26.19,21.67-26.4,11.58-.24,18.72,5.81,19.23,24.8,.58,22.56,1.36,97.36,.34,130.61-.82,25.17,6.52,33.22,5.91,59.48-.48,19.77,20.62,9.75,12.47,20.01-5.6,7.07-22.25,4.76-32.51,3.47-9.1-1.16,4.75-28.5-7.88-35.8-10.84-6.25-11.04-16.44-4.18-24.15,6.79-7.71,.75-30.5-3.84-46.47-4.55-15.93-11.62-33.22-16.27-70.96-1.32-10.77,2.04-25.51,5.06-34.58Z" style="fill:#f9af79; fill-rule:evenodd;"/><path d="M417.8,539.83c-3.5,1.05-7.81,2.24-11.55,2.38-7.61,.24-9.88-8.12-10.39-19.5-.44-9.92-7.64-25.51-15.01-31.86-.14,.2-.27,.37-.41,.54-6.86,7.71-6.66,17.9,4.18,24.15,12.64,7.3-1.22,34.65,7.88,35.8,10.26,1.29,26.9,3.6,32.51-3.47,5.3-6.62-1.29-7.17-7.2-8.05Z" style="fill:#0e2952; fill-rule:evenodd;"/><path d="M382.1,488.57s-11.08,11.58-10.06,16.37c1.02,4.82,4.41,16.99,4.99,26.36,.58,9.38,1.09,20.14,1.09,20.14,0,0,3.97,0,4.31-1.16,.31-1.12,2.55-38.11,2.55-38.11l-2.89-23.61Z" style="fill:#0e2952; fill-rule:evenodd;"/><path d="M216.97,303.13s-14.3,60.74,3.77,77.58c18.07,16.81,93.14,1.66,110.84,.65,11.96-.65,23.54,13.96,23.54,13.96,0,0-8.36-33.9-2.65-61.25,5.71-27.38,14.88-29.21,14.88-29.21l-12.23-1.73H216.97Z" style="fill:#1d417f; fill-rule:evenodd;"/><path d="M213.74,287.27c6.12,12.98-6.59,35.4-2.14,41.85,4.45,6.46,29.93,.92,46.64-12.53,16.71-13.45,48.34-16.41,48.34-16.41l-92.84-12.91Z" style="fill:#6d96ce; fill-rule:evenodd;"/><path d="M239.6,397.9c50.55,1.9,103.74,.99,103.74-6.56s-2.28-12.81-41.41-9.78c-39.13,3.02-65.73,7.24-77.52,4.55-11.79-2.65,15.18,11.79,15.18,11.79Z" style="fill:#9c7357; fill-rule:evenodd;"/><path d="M123.79,309.52H459.95c1.46,0,2.62-2.45,2.62-5.5v-2.72c0-3.06-1.16-5.5-2.62-5.5H123.79c-1.43,0-2.62,2.45-2.62,5.5v2.72c0,3.06,1.19,5.5,2.62,5.5Z" style="fill:#9c7357; fill-rule:evenodd;"/><path d="M1734.71,102.95c-5.3-13.01-8.22-28.26-13.59-33.53-37.77-7.24-38.86,13.25-54.14,19.43,.61,4.92,2.92,10.23,7,15.86,2.04,21.98,9.24,34.65,21.4,38.05,3.33,2.65,8.36,3.7,15.01,3.26-.14,2.85-.54,5.64-.95,8.36h0c5.03,24.08,29.21,27.82,43.48,2.38,.54-.85,.95-1.7,1.36-2.55,0-.17,0-.41-.07-.61v-.04c-1.7-9.48-2.92-17.77-3.87-24.86-.54-4.62-.95-8.7-1.22-12.26,10.05-14.2,10.87-24.59,2.51-31.22-10.12-3.06-14.61,4.08-13.52,21.43-2.99-.65-.95,0-3.4-3.7Z" style="fill:#f9af79; fill-rule:evenodd;"/><path d="M1666.97,88.85c15.28-6.18,16.37-26.67,54.14-19.43,5.37,5.27,8.29,20.52,13.59,33.53,2.45,3.7,.41,3.06,3.4,3.7-1.09-17.36,3.4-24.49,13.52-21.43,8.36,6.62,7.54,17.02-2.51,31.22,.27,3.57,.68,7.64,1.22,12.26,28.94-35.87,15.9-76.77-6.59-87.5,5.03-.2,10.4,.95,16.04,3.5-8.9-8.83-19.43-10.8-31.59-5.88,.34-7.24-.68-12.43-3.12-15.52,.2,4.86-.2,8.7-1.15,11.48-9.17-6.18-24.93-5.57-39.88,2.79-19.43,10.8-37.78,32.85-46.74,28.43,4.08,19.19,16.92,29.31,29.69,22.86Z" style="fill:#20386f; fill-rule:evenodd;"/><path d="M1798.84,222.08c3.4,5.4,7.07,10.94,11.01,16.61,4.49,6.35,9.38,12.91,14.61,19.63,5.37-12.74,22.08-25.37,36.62-21.33-17.67-36.55-34.85-61.62-47.01-72.18-13.04-6.42-33.02-10.19-59.85-11.24,.07,.24,.07,.44,.07,.65-14,28.23-39.68,25.03-44.84,.17-17.87,1.84-38.73,8.49-50.14,16.03-11.14,11.01-30.71,36.52-50.55,73.65,4.35,3.97,26.09,13.59,35.19,15.22,6.66-8.53,11.14-15.18,16.72-23.71,.68,40.56,.68,69.91-.41,90.05-.61,13.35-1.76,29.79-3.46,35.67,27.38,37.71,113.87,38.69,153.06,9-7.47-50.95-11.48-100.52-11.01-148.21Z" style="fill:#6d96ce; fill-rule:evenodd;"/><path d="M1797.68,258.73c-17.6-3.67-30.5-5.4-53.33-13.42-1.36-7.3-14.13-22.45-20.11-30.67-11.62,1.66,.34,16.24-.27,19.09-8.63-1.19-12.64-4.14-15.69-6.59-12.3-4.55-16.71,19.53-6.05,29.08,6.12,5.44,22.83,10.84,31.05,10.73,28.74,13.52,45.79,21.16,66.92,28.23,2.65,.85,5.16,1.7,7.68,2.45,35.12,10.9,58.9,12.09,71.4,3.53,2.72-18.58-12.5-52.14-18.21-64.17-20.11-5.37-33.22,13.52-36.48,20.82,1.29,2.96,3.19,5.88,5.57,8.7-6.59-2.14-14.2-3.91-22.69-5.71-3.12-.68-6.46-1.36-9.78-2.07Z" style="fill:#f9af79; fill-rule:evenodd;"/><path d="M1629.81,254.76c4.89-3.97,27.04-18.55,33.29-24.56-.95-7.27,5.16-25.95,7.61-35.73,9.78-2.55,4.21,15.29,5.43,17.73,6.66-4.18,9.04-8.36,10.8-11.69,8.56-8.59,18.68,12.33,12.7,25-3.4,7.23-15.29,18.17-21.88,21.03-5.03,5.88-15.76,21.91-19.97,26.7-29.08,47.59-71.06,58.42-73.03,32.58,.88-13.11,14.2-39.88,26.83-59.75,3.19,1.94,8.22,4.41,13.52,6.69-8.42,5.47-14.88,12.71-19.23,21.78,7.07-9.44,12.37-12.64,23.91-19.77Z" style="fill:#f9af79; fill-rule:evenodd;"/><path d="M1832.67,264.3c-2.38-3.53-4.48-6.96-6.32-10.36-.68,1.29-1.29,2.58-1.76,3.91,1.36,3.09,3.33,6.15,5.91,9.07,9.92,3.23,17.33,7.34,21.74,13.65-2.17-7.3-8.7-12.7-19.57-16.27h0Zm-207.55-11.55c-8.42,5.47-14.88,12.71-19.23,21.78,7.07-9.44,12.37-12.64,23.91-19.77-1.49-.65-3.12-1.33-4.69-2.01Z" style="fill:#ed7d57; fill-rule:evenodd;"/><path d="M1806.99,260.7c.41-8.42,1.16-16.07,2.31-22.93-3.8-5.37-7.2-10.56-10.46-15.69-.13,12.23,.07,24.56,.54,37.03,2.58,.54,5.16,1.05,7.61,1.6h0Zm8.29,105.85c-4.01-25.92-6.66-48.91-7.81-69.02-1.97-.61-4.01-1.26-6.05-1.94,1.9,24.53,4.76,49.43,8.42,74.7,1.77-1.19,3.53-2.45,5.44-3.74Z" style="fill:#466fb5; fill-rule:evenodd;"/><path d="M1686.95,200.51c8.56-8.59,18.68,12.33,12.7,25-.2,.41-.41,.81-.68,1.22-3.33,5.95-11.28,13.72-17.53,17.77-.68,.44-1.36,.85-1.97,1.19l.75,12.94c.13,2.65,2.44,4.79,5.03,4.76l28.94-.04h1.97c-5.64-1.97-10.94-4.55-13.93-7.13-8.42-7.51-7.47-23.98-.68-28.5,1.83-1.22,4.08-1.56,6.73-.58,1.42,1.15,3.05,2.38,5.23,3.5,1.77,.92,3.94,1.73,6.66,2.38l-.61-10.6c-.41-1.56-.54-3.02-.2-4.24l-.14-2.41-1.43-24.53c-.2-2.65-2.45-4.79-5.09-4.79l-31.86,.04c-2.65,0-4.69,2.17-4.55,4.79l1.22,20.07c5.57-3.91,7.74-7.74,9.44-10.84Z" style="fill:#1d417f; fill-rule:evenodd;"/><path d="M1713.38,719.93c4.35-104.22,13.04-212.68,25.54-312.21,7,63.25,21.74,165.5,43.75,311.26,6.73,3.84,17.12,4.38,31.25,1.77,14.67-119.84,14-235.78-1.36-352.33l-2.72,1.87c-35.73,27.04-110.6,28.64-144.43,.2-10.67,107.51-4.14,224.06,19.57,349.68,6.45,2.48,15.9,2.41,28.4-.24Z" style="fill:#20386f; fill-rule:evenodd;"/><path d="M1785.52,747.1c13.04,.27,15.76,3.26,26.5,6.25,15.28,4.21,25.34,.88,21.94-6.66-10.8-6.79-18.55-12.98-23.17-18.58-4.07-2.17-13.04-1.19-14.4,6.18-5.71,.78-7.61-.68-8.7-4.35-1.63,4.38-2.45,10.09-2.17,17.15h0Zm-70.45,1.77c-16.78,.27-19.09,3.12-27.92,4.89-21.74,6.12-36.28,2.99-31.66-5.3,13.25-6.79,22.76-12.98,28.46-18.62,5.1-2.17,10.4-.1,15.83,6.25,7.07,.75,11.21-.68,12.63-4.42,2.04,4.42,2.92,10.12,2.65,17.19Z" style="fill:#0e2952; fill-rule:evenodd;"/><path d="M1687.56,721.02c.14,2.85-.2,5.6-.95,8.09,4.21-.61,8.7,1.7,13.18,7,6.39,.68,10.46-.48,12.23-3.5-1.09-3.87-1.7-7.88-1.9-12.02-9.38,1.7-16.92,1.87-22.56,.44h0Zm100.21,.07c.07,3.12,.07,6.08-.07,8.87,1.09,3.67,2.99,5.13,8.7,4.35,1.22-6.69,8.7-8.12,13.11-6.73-.2-2.07-.2-4.11-.13-6.08-8.83,1.29-16.03,1.15-21.61-.41Z" style="fill:#f9af79; fill-rule:evenodd;"/><path d="M1731.24,132.64c-3.8,6.08-10.73,10.53-20.86,13.38-.14,2.85-.54,5.64-.95,8.36,11.68-4.01,19.02-11.24,21.81-21.74Z" style="fill:#ed7d57; fill-rule:evenodd;"/><path d="M1801.76,299.8c-52.52,5.4-99.39,5.09-140.7-.88,0-4.62,.07-9.58,.07-14.84,43.55,3.6,81.19,4.01,112.84,1.29,8.83,3.64,17.12,6.76,26.23,9.82l1.22,.41v-.03l6.05,1.97c.07,.54,.07,1.09,.07,1.66-1.9,.2-3.8,.41-5.77,.61Z" style="fill:#466fb5; fill-rule:evenodd;"/><path d="M1742.31,271.2c-28.33,.85-54.82-.65-79.42-4.52,3.6-4.89,7.95-11.14,11.48-15.76,1.77,.14,3.53,.27,5.43,.41l.41,7.3c.13,2.65,2.44,4.79,5.03,4.76l28.94-.04h1.97c.48,.17,1.02,.34,1.43,.51,5.78,1.9,11.68,3.12,15.7,3.09,3.19,1.46,6.18,2.89,9.03,4.25h0Zm56.8-21.2c2.85-.2,5.71-.44,8.7-.68-.27,2.41-.41,4.86-.54,7.4-.14,1.53-.2,2.85-.27,3.97l-7.61-1.6-1.7-.38c-11.21-2.34-20.59-3.91-31.73-6.83,10.67-.44,21.74-1.09,33.15-1.9Z" style="fill:#466fb5; fill-rule:evenodd;"/><path d="M372.65,667.11c-.03,7.2,5.74,13.08,12.94,13.11,7.2,.04,13.04-5.74,13.11-12.94,.07-7.2-5.74-13.04-12.94-13.11-7.17-.04-13.04,5.74-13.11,12.94Z" style="fill:#fff; fill-rule:evenodd;"/><path d="M385.56,684.67h0c13.32,.1,24.08,11,23.98,24.36h0c-.04,3.46-2.89,6.32-6.39,6.29l-35.63-.27c-3.5,0-6.32-2.85-6.32-6.39h0c.1-13.32,11.01-24.05,24.36-23.98Z" style="fill:#fff; fill-rule:evenodd;"/><path d="M328.63,666.7c-.03,5.88,4.69,10.67,10.56,10.7,5.84,.04,10.63-4.65,10.7-10.53,.03-5.91-4.69-10.67-10.56-10.74-5.88-.03-10.66,4.72-10.7,10.57Z" style="fill:#fff; fill-rule:evenodd;"/><path d="M339.16,681.04h0c10.9,.07,19.63,8.97,19.57,19.87h0c-.03,2.85-2.34,5.13-5.2,5.13l-29.11-.21c-2.85-.03-5.13-2.34-5.13-5.23h0c.1-10.87,8.97-19.64,19.87-19.57Z" style="fill:#fff; fill-rule:evenodd;"/></svg>