<?xml version="1.0" encoding="UTF-8"?><svg id="a" xmlns="http://www.w3.org/2000/svg" xmlns:xlink="http://www.w3.org/1999/xlink" viewBox="0 0 2071.35 1420.03"><defs><linearGradient id="b" x1="756.29" y1="1099.57" x2="756.18" y2="1101.44" gradientUnits="userSpaceOnUse"><stop offset="0" stop-color="#8bbe3f"/><stop offset="1" stop-color="#76a942"/></linearGradient></defs><path d="M1039.67,81.46c-223.43,0-317.54,159.85-478.83,284.1-213.45,164.47-426.85,57.41-461.03,613.08-30.45,494.51,349.13,53.56,884.3,230.68,535.17,177.12,1080.29,248.44,918.56-324.65C1740.93,311.48,1558.78,81.46,1039.67,81.46Z" style="fill:#e0e8f5; fill-rule:evenodd;"/><path d="M1014.81,1287c-322.91,0-584.66,29.74-584.66,66.44s261.76,66.59,584.66,66.59,584.66-29.82,584.66-66.59-261.76-66.44-584.66-66.44Z" style="fill:#c4d1eb; fill-rule:evenodd;"/><path d="M1305.75,1253.12s79.39-40.91,64.81-141.39c-14.5-100.47,46.91-132.21,62.52-162.1,15.61-29.89-19.31-78.13-15.39-120.3,3.92-42.24,52.6-53.57,29.82-111.42-22.79-57.89-3.55-79.9,26.56-141.9,29.96-62-14.5-156.81-35.66-156.26-21.09,.52,4.66,22.68-13.91,63.88-18.57,41.25-96.99,53.79-121.56,88.26-24.56,34.48,18.65,80.12-9.4,126.66-28.04,46.57-111.42,32.07-133.47,77.28-22.12,45.13,30.56,99.21,15.17,146.56-15.24,47.35-71.58,74.13-95.29,112.23-23.71,38.03-68.1,110.91,4.59,197.91,72.8,86.93,221.21,20.57,221.21,20.57Z" style="fill:#c4d1eb; fill-rule:evenodd;"/><path d="M1371.6,1151.16c.37-3.92,.59-7.99,.74-12.21l-215.59,121.11,19.09-49.57c.07-.15,.15-.37,.22-.59l9.84-25.38,182.52-102.62c0-4.14,.15-8.14,.44-12.06l-177.19,99.51,17.24-44.76,168.61-94.77c2.22-5.7,4.66-11.02,7.32-15.98l-170.09,95.59,8.58-22.2c.07-.22,.15-.44,.22-.74l37.51-97.29,168.76-94.85c-.96-3.33-2-6.74-3.03-10.14l-159.96,89.89,18.72-48.61,132.95-74.72c-.52-3.7-.89-7.55-1.04-11.25l-126.07,70.88,14.06-36.55c.07-.15,.15-.37,.15-.52l40.92-106.17,98.69-55.49c-1.26-3.44-2.29-6.81-3.25-10.03l-89.59,50.42,35.66-92.74c.08-.18,.15-.37,.15-.56l58.97-153.04c.96-2.66-.29-5.62-2.96-6.66-2.67-1.04-5.7,.3-6.73,2.92l-53.49,139.09-30.56-104.5c-3.18,1.59-6.29,3.18-9.4,4.77l33.89,115.6-40.25,104.5c-.08,.15-.08,.3-.15,.37l-37.21,96.7-58.75-125.92c-3.26,1.11-6.66,2.07-9.99,3.03l63.55,136.28-14.13,36.85-77.46-164.62c-3.26,1.11-6.51,2.29-9.69,3.63l80.87,172.01-1.18,.67c-2.52,1.41-3.41,4.59-2.07,7.03,.45,.74,1.04,1.26,1.63,1.7l-20.86,54.3c-.15,.15-.15,.3-.22,.45l-33.81,87.89-57.26-121.93c-2.37,3.11-4.74,6.07-7.25,9.03l59.34,126.29-8.66,22.56-63.55-135.17c-2.66,2.52-5.25,4.96-7.99,7.47l66.44,141.09-22.19,57.63c-.15,.15-.15,.3-.22,.45l-6.14,15.98-81.42-173.27c-2.55,3.11-4.92,6.14-7.06,9.32l83.31,177.27-23.45,60.96c-.07,.15-.07,.3-.07,.44l-.15,.15c4.14,1.33,8.14,2.37,12.28,3.26l217.52-122.22Z" style="fill:#e0e8f5; fill-rule:evenodd;"/><path d="M765.56,1253.12s-79.35-40.91-64.77-141.39c14.54-100.47-46.91-132.21-62.52-162.1-15.57-29.89,19.35-78.13,15.39-120.3-3.96-42.24-52.64-53.57-29.82-111.42,22.79-57.89,3.51-79.9-26.52-141.9-30.04-62,14.46-156.81,35.62-156.26,21.12,.52-4.66,22.68,13.95,63.88,18.57,41.25,97,53.79,121.52,88.26,24.53,34.48-18.57,80.12,9.43,126.66,27.97,46.57,111.38,32.07,133.47,77.28,22.05,45.13-30.56,99.21-15.24,146.56,15.32,47.35,71.62,74.13,95.33,112.23,23.71,38.03,68.14,110.91-4.59,197.91-72.73,86.93-221.25,20.57-221.25,20.57Z" style="fill:#c4d1eb; fill-rule:evenodd;"/><path d="M699.78,1151.24c-.41-4-.67-8.07-.74-12.28l215.55,121.11-19.09-49.57c-.07-.15-.15-.37-.22-.59l-9.77-25.38-182.56-102.62c0-4.14-.19-8.14-.44-12.06l177.16,99.51-17.24-44.76-168.65-94.77c-2.18-5.7-4.62-11.02-7.29-15.98l170.13,95.59-8.58-22.2c-.11-.22-.19-.44-.26-.74l-37.44-97.29-168.83-94.85c1-3.33,2.04-6.74,3.07-10.14l159.92,89.89-18.68-48.61-133.03-74.72c.56-3.7,.96-7.55,1.11-11.25l126.07,70.88-14.06-36.55c-.07-.15-.15-.37-.22-.52l-40.84-106.17-98.73-55.49c1.26-3.44,2.33-6.81,3.26-10.03l89.63,50.42-35.7-92.74c-.04-.18-.15-.37-.19-.56l-58.93-153.04c-1-2.66,.29-5.62,2.96-6.66,2.66-1.04,5.66,.3,6.69,2.96l53.53,139.05,30.59-104.5c3.14,1.59,6.29,3.18,9.36,4.77l-33.85,115.6,40.21,104.5c.07,.15,.15,.3,.18,.37l37.18,96.7,58.74-125.92c3.33,1.11,6.62,2.07,9.99,3.03l-63.55,136.28,14.17,36.85,77.39-164.62c3.33,1.11,6.59,2.29,9.73,3.63l-80.87,172.01,1.22,.67c2.52,1.41,3.4,4.59,2.04,7.03-.44,.74-1,1.26-1.63,1.7l20.9,54.3c.07,.15,.11,.3,.19,.45l33.81,87.89,57.34-121.93c2.26,3.11,4.66,6.07,7.18,9.03l-59.34,126.29,8.69,22.56,63.55-135.17c2.59,2.52,5.25,4.96,7.92,7.47l-66.33,141.09,22.19,57.63c.04,.15,.11,.3,.15,.45l6.14,15.98,81.42-173.27c2.55,3.11,4.92,6.14,7.1,9.32l-83.38,177.27,23.45,60.96c.07,.15,.15,.3,.19,.44l.07,.15c-4.07,1.33-8.18,2.37-12.32,3.26l-217.44-122.15Z" style="fill:#e0e8f5; fill-rule:evenodd;"/><path d="M792.23,1229.66c-25.34-16.65-67.66-51.71-110.61-119.63-67.88-107.43-156.4-188-206.75-150.49-49.42,36.84,51.42,194.14,297.23,321.02,9.73-19.75,16.24-36.62,20.12-50.9Z" style="fill:#c4d1eb; fill-rule:evenodd;"/><path d="M770.59,1251.49c-.22-3.04-.44-11.02,2.41-21.6,.22-.74-.22-1.48-.96-1.63-.74-.3-1.48,.22-1.7,.89-2.48,9.33-2.74,16.72-2.59,20.72-4.07-2.22-8.06-4.44-11.98-6.8-.22-4.74-.89-20.27-.74-26.12,.04-.74-.59-1.41-1.33-1.41-.78,0-1.41,.59-1.44,1.33-.15,5.33,.37,18.5,.67,24.56-7.36-4.22-14.5-8.43-21.45-12.73-.04-4.59,.04-19.09,1.81-35.07,.07-.81-.44-1.48-1.22-1.63-.74,0-1.44,.52-1.52,1.26-1.63,14.58-1.85,27.82-1.85,33.81-6.99-4.29-13.76-8.66-20.38-12.95-.04-6.44,.07-27.15,2.63-50.16,.07-.81-.48-1.48-1.22-1.55-.78-.15-1.44,.44-1.55,1.18-2.33,21.31-2.63,40.69-2.59,48.68-8.65-5.62-16.9-11.25-24.9-16.94-.44-6.66-1.81-34.33,4.36-55.27,.22-.74-.18-1.48-.92-1.7-.74-.22-1.52,.22-1.74,.96-5.73,19.46-5.07,44.61-4.59,54.01-9.73-6.95-18.94-13.91-27.71-20.72,.3-9.1,2.18-45.8,13.95-63.18,.41-.67,.22-1.55-.41-1.92-.63-.44-1.48-.3-1.92,.29-11.36,16.94-13.8,50.9-14.32,62.74-9.25-7.32-17.94-14.5-26.15-21.6,1.33-6.66,7.43-34.63,19.94-61.11,.33-.66,.04-1.48-.67-1.78-.67-.37-1.48-.07-1.81,.59-11.87,25.08-18.01,51.49-19.86,60.22-4.85-4.22-9.47-8.43-13.95-12.5,1.15-6.44,6.7-33.66,23.16-69.91,.33-.74,.04-1.48-.67-1.78-.7-.37-1.52,0-1.85,.59-15.39,33.88-21.35,60-23.05,68.8-10.54-9.76-20.16-19.38-28.85-28.7,2.48-8.14,15.32-49.13,28.41-70.88,.41-.67,.19-1.48-.44-1.92-.67-.37-1.52-.15-1.92,.44-12.58,20.94-24.86,59.12-28.22,69.99-5.03-5.4-9.73-10.73-14.2-15.91,2.18-6.95,12.54-38.77,28.56-67.99,.41-.67,.15-1.48-.56-1.92-.66-.3-1.48-.07-1.85,.59-15.09,27.52-25.19,57.34-28.23,66.88-10.32-12.28-19.01-23.68-26.38-34.33,1.41-6.81,8.4-37.73,21.23-61.26,.41-.59,.15-1.48-.52-1.78-.67-.44-1.52-.15-1.89,.52-11.84,21.53-18.72,49.2-20.98,59.41-3.03-4.44-5.77-8.58-8.29-12.72,.41-5.48,2.55-25.97,12.06-52.68,.26-.74-.07-1.48-.81-1.78-.7-.22-1.52,.15-1.78,.89-8.1,22.71-10.95,41.14-11.91,49.72-19.9-32.7-25.27-53.2-25.3-53.42-.33-1.04-1.48-1.7-2.59-1.41-1.11,.3-1.74,1.41-1.44,2.59,.04,.08,2.4,9.1,9.73,24.71-5.55-4.22-13.21-10.21-14.21-11.77-.44-.66-1.3-.81-1.92-.37-.63,.37-.81,1.26-.41,1.92,1.59,2.37,14.65,12.28,19.16,15.61,3.14,6.29,6.99,13.46,11.76,21.38l-27.49-13.02c-.7-.29-1.55,0-1.85,.67-.33,.67-.04,1.55,.63,1.85l31.3,14.8c3.37,5.48,7.1,11.25,11.28,17.31l-32.55-14.06c-.7-.3-1.52,.07-1.81,.74-.3,.74,.04,1.55,.7,1.85l36.7,15.76c6.4,9.02,13.72,18.64,22.16,28.78l-33.7-11.99c-.7-.22-1.48,.07-1.74,.81-.26,.74,.11,1.48,.85,1.78l38.14,13.61c3.92,4.59,8.06,9.32,12.47,14.13l-30.33-10.13c-.74-.3-1.52,.15-1.78,.89-.22,.74,.15,1.48,.89,1.78l35.11,11.69c8.25,8.88,17.35,18.05,27.26,27.38l-29.56-7.4c-.74-.22-1.48,.22-1.66,.96-.22,.81,.22,1.55,1,1.7l34.4,8.65c4.03,3.78,8.18,7.47,12.43,11.25l-22.53-4.07c-.74-.08-1.48,.44-1.59,1.18-.15,.74,.33,1.48,1.11,1.63l27.04,4.81c8.06,7.03,16.65,14.13,25.71,21.23l-25.12-3.62c-.78-.08-1.44,.37-1.59,1.18-.11,.74,.44,1.41,1.18,1.55l29.85,4.37c8.06,6.29,16.5,12.65,25.34,19.01l-22.27-2.29c-.78-.08-1.44,.52-1.52,1.26-.07,.74,.48,1.41,1.22,1.48l27.12,2.74c7.84,5.55,15.98,11.17,24.41,16.72l-20.05,.37c-.78,0-1.37,.59-1.37,1.33,.04,.81,.63,1.41,1.41,1.41l24.12-.37c6.18,3.99,12.54,7.99,19.05,12.06l-17.02,2.59c-.78,.07-1.29,.74-1.18,1.55,.11,.74,.82,1.26,1.59,1.11l20.31-2.96c6.03,3.7,12.24,7.4,18.57,11.1l-10.99,2.22c-.74,.22-1.22,.96-1.07,1.7,.15,.74,.89,1.26,1.63,1.11l14.02-2.96c4.81,2.81,9.69,5.55,14.65,8.29l-8.99,4.81c-.67,.37-.92,1.26-.52,1.85,.33,.74,1.15,.96,1.85,.59l10.51-5.62c4.07,2.22,8.18,4.51,12.35,6.73,.56-1.26,1.11-2.59,1.63-3.85-4-2.15-7.92-4.29-11.8-6.44Z" style="fill:#e0e8f5; fill-rule:evenodd;"/><path d="M779.87,1161.15c-20.05-22.71-51.6-67.7-75.02-144.64-37.03-121.56-101.1-222.7-159.55-199.83-57.41,22.42-1.81,200.87,201.65,388.2,14.61-16.42,25.34-30.92,32.92-43.72Z" style="fill:#b0c2e4; fill-rule:evenodd;"/><path d="M753.2,1176.47c.56-2.96,2.52-10.73,8.03-20.12,.41-.74,.19-1.55-.48-1.92-.67-.45-1.48-.15-1.89,.44-4.85,8.29-7.06,15.39-8.03,19.38-3.29-3.33-6.55-6.51-9.73-9.76,1.04-4.73,4.51-19.83,6.22-25.45,.22-.74-.19-1.48-.93-1.7-.7-.22-1.48,.22-1.74,.96-1.55,5.03-4.51,17.91-5.88,23.82-5.96-6.07-11.73-11.99-17.31-17.98,1.22-4.51,5.11-18.42,11.06-33.37,.29-.74-.04-1.55-.78-1.78-.7-.29-1.52,0-1.78,.74-5.4,13.61-9.14,26.34-10.73,32.04-5.59-5.99-10.99-11.91-16.2-17.83,1.63-6.21,7.21-26.19,15.76-47.64,.29-.74-.04-1.55-.78-1.78-.7-.37-1.52,0-1.78,.74-7.92,19.9-13.32,38.47-15.39,46.17-6.84-7.7-13.32-15.39-19.53-22.94,1.33-6.51,7.36-33.59,18.87-52.08,.41-.66,.19-1.48-.48-1.92-.63-.44-1.48-.22-1.89,.45-10.73,17.31-16.76,41.73-18.75,50.9-7.51-9.32-14.58-18.35-21.23-27.3,2.7-8.66,14.24-43.58,30.19-57.26,.59-.52,.63-1.41,.11-2-.48-.59-1.37-.59-1.96-.15-15.43,13.32-26.75,45.43-30.37,56.67-6.99-9.47-13.5-18.72-19.53-27.67,3.07-6.14,16.35-31.52,35.4-53.71,.52-.59,.44-1.48-.11-1.92-.59-.52-1.48-.44-1.96,.15-18.09,21.01-30.96,44.83-35.11,52.83-3.52-5.33-6.92-10.65-10.14-15.83,2.81-5.77,15.35-30.63,40.88-61.26,.48-.59,.41-1.41-.18-1.92-.59-.44-1.44-.37-1.96,.15-23.79,28.56-36.44,52.23-40.43,60.22-7.58-12.21-14.28-23.97-20.23-35.29,4.55-7.17,27.78-43.35,46.2-60.89,.52-.45,.56-1.33,.04-1.92-.52-.59-1.41-.59-1.96,0-17.68,16.72-39.62,50.31-45.76,59.93-3.37-6.51-6.55-12.88-9.47-19.09,3.96-6.07,22.38-34.04,45.54-58,.56-.59,.52-1.41,0-1.92-.59-.59-1.44-.59-2,0-21.82,22.49-39.43,48.61-44.91,56.97-6.66-14.5-12.06-27.82-16.35-40.03,3.18-6.22,18.13-34.26,36.7-53.34,.52-.59,.52-1.48-.04-2-.56-.52-1.41-.52-1.92,0-17.13,17.68-31.07,42.54-35.99,51.71-1.7-4.96-3.26-9.77-4.62-14.35,1.85-5.18,9.36-24.42,25.6-47.65,.44-.59,.3-1.48-.33-1.92-.63-.45-1.48-.3-1.92,.29-13.87,19.83-21.45,36.84-24.64,44.83-10.58-36.77-10.32-58-10.32-58.15,0-1.11-.93-2.07-2.07-2.07s-2.07,.96-2.07,2.07c0,.15-.11,9.47,2.81,26.41-4.22-5.48-10.02-13.25-10.58-15.02-.22-.74-1-1.18-1.74-.89-.74,.15-1.15,.96-.92,1.63,.89,2.81,10.88,15.76,14.35,20.27,1.37,6.88,3.22,14.8,5.7,23.67l-23.08-19.83c-.56-.44-1.44-.44-1.96,.15-.52,.59-.44,1.48,.15,1.92l26.26,22.64c1.78,6.06,3.88,12.65,6.33,19.6l-27.71-22.12c-.63-.44-1.48-.37-1.96,.22-.48,.66-.41,1.48,.22,1.92l31.18,24.93c3.81,10.36,8.32,21.61,13.76,33.59l-29.3-20.42c-.63-.44-1.48-.3-1.92,.3-.44,.67-.3,1.48,.33,1.92l33.22,23.23c2.55,5.48,5.29,11.1,8.25,16.87l-26.56-17.76c-.67-.44-1.52-.22-1.92,.37-.44,.67-.26,1.55,.37,2l30.74,20.57c5.66,10.73,11.99,21.97,19.09,33.59l-26.56-14.95c-.66-.44-1.52-.15-1.89,.44-.37,.74-.15,1.55,.52,1.92l30.89,17.46c2.88,4.66,5.92,9.39,9.03,14.21l-20.68-9.92c-.66-.29-1.52,0-1.85,.67-.3,.66-.04,1.55,.66,1.85l24.82,11.84c5.92,8.88,12.32,18.05,19.13,27.38l-23.23-10.21c-.7-.3-1.52,0-1.81,.74-.33,.67,0,1.48,.7,1.78l27.63,12.13c6.1,8.14,12.58,16.5,19.42,25.01l-20.86-8.14c-.74-.3-1.55,.15-1.81,.81-.3,.74,.07,1.55,.78,1.85l25.45,9.77c6.07,7.4,12.43,14.95,19.09,22.56l-19.42-4.96c-.74-.22-1.48,.22-1.67,.96-.22,.74,.22,1.55,.96,1.7l23.38,5.99c4.88,5.55,9.95,11.02,15.17,16.64l-17.09-2c-.78-.07-1.44,.45-1.55,1.26-.07,.74,.44,1.41,1.22,1.48l20.35,2.44c4.88,5.25,9.88,10.43,15.02,15.68l-11.21-.67c-.78-.15-1.41,.44-1.48,1.26-.04,.74,.52,1.41,1.33,1.41l14.28,.96c3.88,3.92,7.84,7.92,11.88,11.91l-9.92,2.22c-.74,.15-1.18,.89-1,1.63,.15,.74,.89,1.18,1.63,1.04l11.65-2.66c3.29,3.25,6.66,6.51,10.1,9.76,.89-1.04,1.78-2.15,2.63-3.25-3.29-3.11-6.51-6.22-9.69-9.32Z" style="fill:#fff; fill-rule:evenodd;"/><path d="M918.41,1341.08c8.73-1.55,13.58-5.7,14.46-12.36-38.06-.15-73.98-2.96-107.83-8.44,9.03-14.5,5.88-28.56-9.47-42.17-7.55,14.06-5.96,27.89,4.81,41.36-10.8-1.85-21.38-3.92-31.74-6.29,14.57-7.1,10.47-29.74-12.39-68.07-9.84,21.53-10.06,43.13-.74,64.81-11.47-2.96-22.68-6.22-33.62-9.91,21.57-6.73,18.53-31.37-9.21-73.84-13.65,29.45-13.69,52.97,0,70.58-13.39-4.73-26.34-10.06-38.84-15.91,20.53-3.18,16.35-29.07-12.47-77.9-14.02,27.08-14.13,50.9-.3,71.62-11.91-6.07-23.45-12.58-34.55-19.68,17.61-4,16.53-29.45-3.18-76.5-17.53,26.04-21.6,48.09-12.28,66.07-10.28-7.32-20.2-15.02-29.78-23.16,14.39-7.25,16.57-28.71,6.58-64.51-15.65,17.83-20.72,36.77-15.2,56.82-8.73-7.99-17.16-16.28-25.27-25.16,12.69-4.59,15.5-20.64,8.4-48.09-12.02,14.28-16.54,28.41-13.54,42.47-6.14-6.96-12.1-14.21-17.87-21.61,13.1-5.33,15.91-17.31,8.47-36.1-9.25,11.25-13.32,21.68-12.32,31.08-4.74-6.22-9.32-12.73-13.8-19.39,10.32-3.25,14.06-14.35,11.25-33.44-9.88,4.88-14.35,14.95-13.35,30.33-4.11-6.22-8.1-12.58-11.95-19.09,8.84-3.85,10.36-13.76,4.55-29.74-6.7,5.48-8.77,14.5-6.25,26.93-1.11-1.92-2.22-3.85-3.29-5.77,1.33,3.04,2.63,6.07,4.03,9.03h0c17.76,38.03,41.21,71.25,70.4,99.81-18.87-3.7-39.1-.07-60.67,11.02,28.78,21.53,50.83,19.53,66.18-5.77,10.73,10.06,22.2,19.46,34.37,28.26-27.45-2.81-52.16,6.29-74.13,27.38,52.38,10.65,79.46,3.1,81.16-22.42,15.32,10.58,31.74,20.2,49.27,28.93-30.3-3.7-59.67,5.62-88.15,27.96,52.38,13.76,85.68,6.37,99.88-22.42,13.58,6.29,27.82,11.98,42.65,17.24-38.47,2.44-64.63,17.76-78.39,46.02,38.77,7.55,67.88-6.81,87.34-42.99,12.06,4,24.53,7.62,37.36,10.95-22.79,7.62-40.77,25.3-53.93,53.05,42.21-5.03,62.22-22.2,59.96-51.49,9.17,2.3,18.57,4.36,28.15,6.36-13.83,11.32-21.2,26.19-22.08,44.54,29.11-12.28,38.99-26.63,29.74-43.06,30.52,5.92,63.07,10.06,97.59,12.65h0Zm-415.35-150.12c19.13-10.43,37.25-11.39,54.45-2.96-12.58,18.79-30.74,19.75-54.45,2.96h0Zm-7.43-32.55c17.57-6.44,31.33-5.92,41.17,1.55-16.2,16.42-29.93,15.9-41.17-1.55h0Zm-7.1-30.78c11.73-1.78,23.3,1.63,34.85,10.21-15.54,5.18-27.15,1.78-34.85-10.21h0Zm-11.39-31.08c10.62-.29,22.05,5.62,34.33,17.91-13.65,2.52-25.08-3.4-34.33-17.91Z" style="fill:#b0c2e4; fill-rule:evenodd;"/><path d="M1279.12,1229.66c25.3-16.65,67.62-51.71,110.61-119.63,67.84-107.43,156.4-188,206.79-150.49,49.42,36.84-51.49,194.14-297.27,320.95-9.69-19.68-16.2-36.55-20.12-50.83Z" style="fill:#c4d1eb; fill-rule:evenodd;"/><path d="M1300.8,1251.49c.22-3.04,.37-11.02-2.44-21.6-.22-.74,.22-1.48,.96-1.63,.74-.3,1.48,.15,1.7,.89,2.52,9.33,2.74,16.72,2.59,20.72,4.07-2.22,8.06-4.51,12.06-6.8,.15-4.74,.89-20.27,.66-26.12,0-.74,.59-1.41,1.33-1.41,.81,0,1.41,.59,1.41,1.33,.22,5.33-.3,18.5-.59,24.56,7.4-4.22,14.5-8.43,21.45-12.73,0-4.59-.07-19.09-1.85-35.07-.07-.81,.44-1.48,1.26-1.63,.74,0,1.41,.52,1.48,1.26,1.63,14.58,1.85,27.82,1.85,33.81,7.03-4.29,13.84-8.66,20.35-12.95,.07-6.44,0-27.15-2.52-50.23-.15-.74,.44-1.41,1.18-1.48,.74-.15,1.48,.44,1.48,1.18,2.37,21.31,2.67,40.69,2.67,48.68,8.58-5.62,16.87-11.25,24.86-16.94,.44-6.66,1.78-34.33-4.36-55.27-.22-.74,.22-1.48,.96-1.7,.74-.22,1.48,.22,1.7,.96,5.77,19.46,5.11,44.61,4.59,54.01,9.69-6.95,18.94-13.91,27.74-20.72-.29-9.1-2.22-45.8-13.91-63.18-.45-.67-.3-1.55,.29-1.92,.66-.44,1.55-.3,1.92,.29,11.39,16.94,13.83,50.9,14.35,62.74,9.25-7.32,17.98-14.5,26.19-21.6-1.33-6.66-7.4-34.63-19.98-61.11-.29-.66,0-1.48,.67-1.78,.67-.37,1.55-.07,1.85,.59,11.84,25.08,18.05,51.49,19.83,60.22,4.88-4.22,9.47-8.43,13.98-12.5-1.11-6.44-6.73-33.66-23.16-69.91-.37-.74-.07-1.48,.59-1.78,.74-.37,1.55,0,1.92,.59,15.39,33.88,21.31,60,23.01,68.8,10.58-9.76,20.2-19.38,28.86-28.7-2.44-8.14-15.32-49.13-28.41-70.88-.37-.67-.22-1.48,.52-1.92,.59-.37,1.48-.15,1.85,.44,12.65,20.94,24.86,59.12,28.19,69.99,5.03-5.4,9.77-10.73,14.21-15.91-2.14-6.95-12.5-38.77-28.56-67.99-.3-.67-.15-1.48,.59-1.92,.66-.3,1.48-.07,1.85,.59,15.09,27.52,25.23,57.34,28.26,66.88,10.28-12.28,19.02-23.68,26.41-34.33-1.48-6.81-8.44-37.73-21.31-61.26-.37-.59-.15-1.48,.59-1.78,.59-.44,1.48-.15,1.85,.52,11.76,21.53,18.72,49.2,20.94,59.41,3.03-4.44,5.77-8.58,8.29-12.72-.45-5.48-2.52-25.97-12.06-52.68-.22-.74,.08-1.48,.82-1.78,.74-.22,1.48,.15,1.78,.89,8.14,22.71,10.95,41.14,11.91,49.72,19.9-32.7,25.3-53.2,25.38-53.42,.29-1.04,1.41-1.7,2.51-1.41,1.11,.3,1.78,1.41,1.48,2.59-.08,.08-2.44,9.1-9.77,24.71,5.55-4.22,13.17-10.21,14.21-11.77,.45-.66,1.33-.81,1.92-.37,.67,.37,.89,1.26,.44,1.92-1.63,2.37-14.65,12.28-19.23,15.61-3.11,6.29-6.95,13.46-11.69,21.38l27.52-13.02c.59-.29,1.48,0,1.78,.67,.3,.67,.08,1.55-.59,1.85l-31.37,14.8c-3.33,5.48-7.1,11.25-11.25,17.31l32.55-14.06c.74-.3,1.48,.07,1.78,.74,.37,.74,0,1.55-.66,1.85l-36.62,15.76c-6.51,9.02-13.76,18.64-22.19,28.78l33.66-11.99c.74-.22,1.48,.07,1.78,.81,.22,.74-.07,1.48-.81,1.78l-38.17,13.61c-4,4.59-8.14,9.32-12.5,14.06l30.41-10.06c.67-.3,1.48,.15,1.7,.89,.22,.74-.15,1.48-.81,1.78l-35.22,11.69c-8.21,8.88-17.31,18.05-27.23,27.38l29.59-7.4c.74-.22,1.48,.22,1.63,.96,.22,.81-.22,1.55-1.04,1.7l-34.33,8.65c-4,3.78-8.14,7.47-12.43,11.25l22.49-4.07c.74-.08,1.48,.44,1.63,1.18,.15,.74-.37,1.48-1.11,1.63l-27.08,4.74c-8.06,7.1-16.65,14.21-25.67,21.31l25.08-3.62c.81-.08,1.41,.37,1.55,1.11,.15,.81-.45,1.48-1.18,1.63l-29.82,4.37c-8.06,6.29-16.5,12.65-25.38,19.01l22.34-2.29c.74-.08,1.48,.52,1.48,1.26,.15,.74-.45,1.41-1.18,1.48l-27.15,2.74c-7.77,5.55-15.91,11.17-24.42,16.72l20.05,.37c.74,0,1.33,.59,1.33,1.33,0,.81-.59,1.41-1.33,1.41l-24.12-.37c-6.22,3.99-12.58,7.99-19.09,12.06l17.02,2.59c.74,.07,1.33,.74,1.18,1.55-.15,.74-.81,1.26-1.63,1.11l-20.27-2.96c-6.07,3.7-12.21,7.4-18.57,11.1l11.02,2.22c.74,.22,1.18,.96,1.04,1.7-.15,.74-.89,1.26-1.63,1.11l-14.06-2.96c-4.74,2.81-9.62,5.55-14.58,8.29l8.95,4.81c.67,.37,.89,1.26,.59,1.85-.37,.74-1.18,.96-1.92,.59l-10.51-5.62c-4.07,2.22-8.14,4.51-12.36,6.73-.52-1.26-1.11-2.59-1.55-3.85,3.92-2.15,7.84-4.29,11.76-6.44Z" style="fill:#e0e8f5; fill-rule:evenodd;"/><path d="M1291.55,1161.15c19.98-22.71,51.49-67.7,74.95-144.64,37.07-121.56,101.14-222.7,159.59-199.83,57.41,22.42,1.78,200.87-201.68,388.2-14.65-16.42-25.3-30.92-32.85-43.72Z" style="fill:#b0c2e4; fill-rule:evenodd;"/><path d="M1318.18,1176.47c-.59-2.96-2.51-10.73-8.06-20.12-.37-.74-.22-1.55,.52-1.92,.59-.45,1.48-.15,1.85,.44,4.88,8.29,7.03,15.39,8.07,19.31,3.26-3.26,6.51-6.44,9.69-9.69-1.04-4.73-4.51-19.83-6.21-25.45-.22-.74,.22-1.48,.96-1.7,.74-.22,1.48,.15,1.7,.89,1.55,5.1,4.51,17.98,5.92,23.9,5.92-6.07,11.69-11.99,17.24-17.98-1.18-4.51-5.03-18.42-11.02-33.37-.3-.74,.07-1.55,.81-1.78,.66-.29,1.48,0,1.78,.74,5.33,13.61,9.1,26.34,10.65,32.04,5.62-5.99,11.1-11.91,16.28-17.83-1.63-6.21-7.25-26.19-15.83-47.64-.29-.74,.15-1.55,.82-1.85,.67-.29,1.55,.08,1.85,.81,7.84,19.9,13.24,38.47,15.39,46.17,6.8-7.7,13.32-15.39,19.46-22.94-1.33-6.51-7.33-33.59-18.87-52.08-.37-.66-.15-1.48,.44-1.92,.74-.44,1.55-.22,1.92,.45,10.73,17.31,16.72,41.73,18.79,50.9,7.55-9.32,14.58-18.35,21.23-27.3-2.74-8.66-14.28-43.58-30.26-57.26-.52-.52-.59-1.41-.07-2,.52-.59,1.41-.59,2-.15,15.39,13.32,26.78,45.43,30.33,56.67,7.03-9.47,13.46-18.72,19.53-27.67-3.04-6.14-16.35-31.52-35.36-53.71-.59-.59-.45-1.48,.15-1.92,.52-.52,1.41-.44,1.92,.15,18.05,21.01,30.93,44.83,35.07,52.83,3.55-5.33,6.95-10.65,10.13-15.83-2.74-5.77-15.31-30.63-40.91-61.26-.44-.59-.37-1.41,.22-1.92,.59-.44,1.41-.37,2,.15,23.75,28.56,36.4,52.23,40.4,60.22,7.55-12.21,14.35-23.97,20.27-35.29-4.59-7.17-27.82-43.35-46.17-60.89-.59-.45-.59-1.33-.08-1.92,.52-.59,1.41-.59,1.92-.08,17.68,16.8,39.58,50.39,45.8,60,3.4-6.51,6.51-12.88,9.47-19.09-3.99-6.07-22.34-34.04-45.57-58-.52-.59-.52-1.41,0-1.92,.59-.59,1.48-.59,2,0,21.83,22.49,39.43,48.61,44.91,56.97,6.66-14.5,12.06-27.82,16.42-40.03-3.25-6.22-18.2-34.26-36.77-53.34-.52-.59-.52-1.48,.07-2,.52-.52,1.33-.52,1.92,0,17.09,17.68,31.07,42.54,35.96,51.71,1.78-4.96,3.26-9.77,4.66-14.35-1.85-5.18-9.4-24.42-25.67-47.65-.45-.59-.22-1.48,.37-1.92,.67-.45,1.48-.3,1.92,.29,13.83,19.83,21.46,36.84,24.64,44.83,10.58-36.77,10.36-58,10.36-58.15,0-1.11,.89-2.07,2.07-2.07s2.07,.96,2.07,2.07c0,.15,.15,9.47-2.81,26.41,4.14-5.48,9.99-13.25,10.58-15.02,.22-.74,.96-1.18,1.7-.89,.74,.15,1.18,.96,.89,1.63-.81,2.81-10.8,15.76-14.35,20.27-1.33,6.88-3.18,14.8-5.62,23.67l23.08-19.83c.59-.44,1.48-.44,1.92,.15,.52,.59,.44,1.48-.15,1.92l-26.26,22.64c-1.78,6.06-3.92,12.65-6.29,19.6l27.67-22.12c.59-.44,1.48-.37,2,.22,.45,.66,.37,1.48-.22,1.92l-31.22,24.93c-3.85,10.36-8.29,21.61-13.76,33.59l29.3-20.42c.59-.44,1.48-.3,1.92,.3,.45,.67,.3,1.48-.29,1.92l-33.29,23.23c-2.52,5.48-5.25,11.1-8.21,16.87l26.56-17.76c.67-.44,1.48-.22,1.92,.37,.44,.67,.29,1.55-.37,2l-30.7,20.57c-5.7,10.73-11.98,21.97-19.09,33.59l26.49-14.95c.74-.44,1.55-.15,1.92,.44,.37,.74,.15,1.55-.52,1.92l-30.85,17.46c-2.89,4.66-5.92,9.39-9.03,14.21l20.64-9.92c.67-.29,1.55,0,1.85,.67,.29,.66,0,1.55-.67,1.85l-24.78,11.84c-5.92,8.88-12.28,18.05-19.16,27.38l23.23-10.21c.66-.3,1.55,0,1.85,.74,.29,.67,0,1.48-.74,1.78l-27.67,12.13c-6.07,8.14-12.58,16.5-19.38,25.01l20.86-8.14c.74-.3,1.55,.15,1.85,.81,.22,.74-.08,1.55-.81,1.85l-25.45,9.77c-6.07,7.4-12.43,14.95-19.09,22.49l19.38-4.88c.74-.22,1.55,.22,1.78,.96,.15,.74-.29,1.48-1.03,1.7l-23.38,5.99c-4.88,5.55-9.91,11.02-15.17,16.64l17.09-2c.74-.07,1.48,.45,1.55,1.26,.07,.74-.44,1.41-1.26,1.48l-20.27,2.44c-4.88,5.25-9.92,10.43-15.09,15.68l11.25-.74c.74-.07,1.48,.52,1.48,1.33,.07,.74-.52,1.41-1.33,1.41l-14.21,.96c-3.92,3.92-7.92,7.92-11.99,11.91l9.92,2.22c.74,.15,1.18,.89,1.04,1.63-.15,.74-.89,1.18-1.63,1.04l-11.69-2.66c-3.25,3.25-6.66,6.51-10.06,9.76-.89-1.04-1.78-2.15-2.59-3.25,3.33-3.11,6.51-6.22,9.69-9.32Z" style="fill:#fff; fill-rule:evenodd;"/><path d="M1152.9,1341.08c-8.73-1.55-13.46-5.7-14.43-12.36,38.1-.15,74.06-2.96,107.87-8.44-9.1-14.5-5.85-28.56,9.47-42.17,7.47,14.06,5.92,27.89-4.81,41.36,10.8-1.85,21.31-3.92,31.66-6.29-14.5-7.1-10.43-29.74,12.43-68.07,9.84,21.53,10.06,43.13,.74,64.81,11.47-2.96,22.64-6.22,33.59-9.91-21.53-6.73-18.49-31.37,9.25-73.84,13.69,29.45,13.69,52.97,0,70.58,13.39-4.73,26.34-10.06,38.84-15.91-20.49-3.18-16.35-29.07,12.43-77.9,14.06,27.08,14.21,50.9,.37,71.62,11.91-6.07,23.45-12.58,34.55-19.68-17.61-4-16.57-29.45,3.11-76.5,17.61,26.04,21.68,48.09,12.28,66.07,10.36-7.32,20.27-15.02,29.82-23.16-14.35-7.25-16.5-28.71-6.58-64.51,15.68,17.83,20.72,36.77,15.24,56.82,8.73-7.99,17.16-16.35,25.23-25.16-12.65-4.59-15.46-20.64-8.36-48.09,11.98,14.28,16.5,28.41,13.54,42.39,6.14-6.88,12.06-14.13,17.83-21.53-13.1-5.33-15.91-17.31-8.43-36.1,9.17,11.25,13.32,21.68,12.28,31.08,4.74-6.22,9.32-12.73,13.76-19.39-10.21-3.25-13.98-14.35-11.17-33.44,9.84,4.88,14.28,14.95,13.32,30.33,4.07-6.22,8.06-12.58,11.91-19.09-8.8-3.85-10.36-13.76-4.51-29.74,6.73,5.48,8.81,14.5,6.29,26.93,1.04-1.92,2.22-3.85,3.26-5.77-1.33,3.04-2.67,6.07-4,9.03h0c-17.76,38.03-41.28,71.25-70.43,99.81,18.87-3.77,39.06-.07,60.67,11.02-28.78,21.53-50.83,19.53-66.14-5.77-10.73,10.06-22.2,19.46-34.33,28.26,27.37-2.81,52.08,6.29,74.06,27.38-52.38,10.65-79.38,3.1-81.16-22.42-15.32,10.58-31.74,20.2-49.27,28.93,30.34-3.7,59.63,5.62,88.19,27.96-52.38,13.76-85.67,6.37-99.88-22.42-13.61,6.29-27.82,11.98-42.69,17.24,38.55,2.44,64.59,17.76,78.43,46.02-38.84,7.55-67.92-6.81-87.38-42.99-12.06,4-24.56,7.62-37.36,10.95,22.79,7.62,40.77,25.3,53.94,53.05-42.17-5.03-62.22-22.2-59.93-51.49-9.18,2.3-18.57,4.36-28.12,6.36,13.76,11.32,21.16,26.19,22.05,44.54-29.15-12.28-39.06-26.63-29.74-43.06-30.56,5.92-63.11,10.06-97.66,12.65h0Zm415.35-150.12c-19.09-10.43-37.22-11.39-54.45-2.96,12.65,18.79,30.78,19.75,54.45,2.96h0Zm7.47-32.55c-17.54-6.44-31.3-5.92-41.21,1.55,16.28,16.42,29.96,15.9,41.21-1.55h0Zm7.18-30.78c-11.76-1.78-23.38,1.63-34.92,10.21,15.54,5.18,27.23,1.78,34.92-10.21h0Zm11.32-31.08c-10.58-.29-22.05,5.62-34.25,17.91,13.61,2.52,25.01-3.4,34.25-17.91Z" style="fill:#b0c2e4; fill-rule:evenodd;"/><path d="M880.86,1184.9c15.65-33.52,26.56-64.96,32.7-94.4,101.8-32.41,203.24,8.58,203.24,8.58,4.74,38.18,11.69,68.81,20.64,91.89,3.92,10.06,8.21,18.57,12.95,25.75-12.14,14.35-26.04,25.45-41.65,33.14-6.33,3.18-12.91,5.77-19.83,7.77-33.07,9.84-72.87,7.18-119.37-7.77-30.08-9.76-62.96-24.56-98.62-44.68,3.48-6.81,6.81-13.61,9.95-20.27Z" style="fill:#6d96ce; fill-rule:evenodd;"/><path d="M759.86,1080.29c-.19,0-.41-.15-.63-.22-1.74-.81-2.85-1.7-4.11-2.15h0c1.26,.44,2.37,1.33,4.11,2.15,.22,.07,.44,.22,.63,.22Z" style="fill:url(#b); fill-rule:evenodd;"/><path d="M908.13,747.5c-23.56-27.38-19.57-61.52,11.28-82.05-8.91-16.68-2.33-31.89,7.47-47.46,7.62-16.16,50.79-45.91,102.25-39.21,36.66,4.51,74.32,25.19,77.98,52.05,40.69,14.35,50.24,57.08,17.31,87.01,13.46,24.49,8.21,53.79-16.05,72.06-5.81,4.36-15.13,10.88-15.98,12.28,1.18-1.7,2.37,52.83-83.31,50.09-87.38-2.81-135.02-62.59-100.95-104.76Z" style="fill:#20386f; fill-rule:evenodd;"/><path d="M613.63,1237.58c2.63-7.1,19.31-3.48,19.13,0-.19,3.48-10.1,16.13-14.61,17.02,0,0-7.1-9.91-4.51-17.02h0Zm839.58,44.24c-4.51-.89-14.43-13.61-14.58-17.02-.22-3.55,16.5-7.18,19.09,0,2.66,7.1-4.51,17.02-4.51,17.02h0Zm-862.88,18.2s-1.04,9.39,8.88,7.47c0,0,7.47-2.59,8.88-4.22,0,0-.89,9.62,11.99,2.52,12.87-7.18,23.75-11.32,32.55-24.42,7.77-11.39,32.29-37.29,40.47-44.98,4.03-3.11,115.27-87.38,127.1-108.31,12.06-21.38,64.66-163.36,70.69-173.12,.48-.82,1.48-1.55,2.96-2.29,16.42-8.21,88.19-12.43,88.19-12.43l146.6,14.87s.29,.45,.74,1.48c4.74,8.66,29,53.71,34.48,67.18,6.07,14.8,37.14,95.96,44.54,108.02,7.4,11.99,163.51,127.55,167.5,129.62h0c3.55,2.52,34.03,34.18,42.84,47.2,8.8,13.02,19.68,17.16,32.55,24.27,12.95,7.25,12.06-2.37,12.06-2.37,1.33,1.55,8.88,4.14,8.88,4.14,9.91,1.92,8.81-7.47,8.81-7.47,0,0,10.8,5.55,10.43-2.88-.3-8.58-32.33-28.26-26.63-33.15,5.77-4.81,6.51-22.57,6.51-26.93s-5.4-9.17-10.8-14.8c-5.4-5.55-33,.37-38.47,0-5.33-.29-18.94-7.84-18.94-7.84h0c-5.99-8.29-120.08-123.7-133.99-137.61-13.91-13.91-65.85-131.25-69.1-145.16-3.25-13.91-12.95-84.93-38.03-103.87-9.55-7.25-28.93-17.98-49.24-26.63-.56-.3-1.11-.52-1.7-.74-15.09-6.36-29.56-11.39-41.84-15.98-.4-.15-.85-.3-1.26-.44-13.5-5.03-23.79-7.69-23.79-7.69l-63.66-4.14s-15.09,2.81-24.79,5.62c-.22,0-.44,.15-.7,.22-14.61,4.14-34.4,9.99-43.47,13.54-.22,.15-.44,.22-.66,.29-.92,.37-1.96,.74-3.03,1.18-16.79,6.51-48.57,18.65-52.86,31.52-4.7,13.91-18.61,50.46-22.31,77.39-3.7,26.93-39.88,118.82-45.91,133.17-5.99,14.35-23.2,33.81-33.37,50.53-10.21,16.65-78.05,97.51-85.23,101.66,0,0-13.54,7.47-18.9,7.84-5.4,.37-33.03-5.55-38.44,0-5.4,5.55-10.76,10.43-10.76,14.79s.67,22.12,6.4,26.93c5.73,4.88-26.26,24.49-26.6,33.07-.33,8.51,10.43,2.96,10.43,2.96Z" style="fill:#f9af79; fill-rule:evenodd;"/><path d="M1007.97,590.29s-60.52,8.73-51.64,98.07c8.84,89.34,62.26,82.23,65.85,82.23,3.55-.15,53.56,1.78,57.93-107.2,0,0,2-80.61-72.14-73.1Z" style="fill:#f9af79; fill-rule:evenodd;"/><path d="M981.11,754.68s3.7,46.53-5.25,60.44c-8.95,13.91,7.69,32.78,41.88,26.34,34.22-6.51,32.26-25.89,32.26-25.89,0,0-9.62-28.7-6.81-51.64,2.81-22.93-62.07-9.25-62.07-9.25Z" style="fill:#f9af79; fill-rule:evenodd;"/><path d="M1014.88,622.66s-28.26,29.74-41.4,44.8c-13.13,15.05-14.65,44.13-14.65,44.13,0,0-22.16-27.04-12.87-58.52,9.25-31.48,31.11-92.7,86.56-73.87,55.41,18.79,57.49,101.62,50.98,142.64,0,0-24.86-90.63-68.62-99.18Z" style="fill:#20386f; fill-rule:evenodd;"/><path d="M1038.75,766.52s-25.78,12.21-50.9-5.85c0,0,6.99,14.35,25.45,16.42,18.5,2.07,25.45-10.58,25.45-10.58Z" style="fill:#ed7d57; fill-rule:evenodd;"/><path d="M894.99,957.47l-68.29-17.31c1.52-17.91,19.38-72.66,26.63-89.67,7.07-16.42,51.27-30.93,101.69-45.35,.37,20.05,5.03,114.45,57.15,112.38,51.72-2.07,55.56-87.23,55.79-106.39,.41,.15,.85,.29,1.26,.44,61.78,23.08,94.48,30.78,108.76,56.38,15.61,28.04,24.19,79.75,24.19,79.75l-73.02,9.76c-2.81,10.51-6.95,20.64-10.28,32.41-6.14,21.45-6.07,77.24-2.07,109.2,0,0-101.43-40.99-203.24-8.58h0c2.48-8.29,4.03-15.69,4.03-21.31,0-26.49-5.81-71.32-16.72-94.7-2.37-5.03-4.36-10.88-5.88-17.02Z" style="fill:#6d96ce; fill-rule:evenodd;"/><path d="M855.48,1294.62c-8.51,18.72,7.1,48.83,17.72,54.82,193.14-16.72,313.73-40.1,388.09-72.65,22.19-10.58,60.89-15.09,84.49-28.63,57.04-52.01,14.28-120.23-42.25-116.82-39.58,6.58-58.22,16.35-76.94,35.58-67.7,13.39-205.49,60.59-371.11,127.7Z" style="fill:#223f81; fill-rule:evenodd;"/><path d="M650.03,1322.51c-7.77,45.5,58.04,52.68,193.4,32.85-56.93-16.2-64.44-30.48-22.05-53.34-117.78-18.42-171.53-18.28-171.35,20.49h0Zm738,0c7.77,45.5-58,52.68-193.4,32.85,56.89-16.2,64.37-30.48,22.05-53.34,117.78-18.42,171.5-18.28,171.35,20.49Z" style="fill:#0e2952; fill-rule:evenodd;"/><path d="M870.72,1347.67c-11.39,1.92-20.49,4.44-27.3,7.69-56.93-16.2-64.44-30.48-22.05-53.34,9.58,.37,20.46-.67,32.63-3.18-4.44,17.17,7.14,40.76,16.72,48.83h0Zm296.61,0c11.32,1.92,20.42,4.44,27.3,7.69,56.89-16.2,64.37-30.48,22.05-53.34-9.62,.37-20.49-.67-32.7-3.18,4.44,17.17-7.1,40.76-16.65,48.83Z" style="fill:#f9af79; fill-rule:evenodd;"/><path d="M1182.57,1294.62c8.51,18.72-7.18,48.83-17.76,54.82-193.14-16.72-313.69-40.1-388.09-72.65-22.16-10.58-60.89-15.09-84.49-28.63-57.04-52.01-14.32-120.23,42.25-116.82,39.58,6.58,58.19,16.35,76.94,35.58,67.7,13.39,205.49,60.59,371.15,127.7Z" style="fill:#223f81; fill-rule:evenodd;"/><path d="M1031.9,1226.78c105.54,35.51,188.7,49.72,249.44,42.76-7.4,2.22-14.35,4.51-20.05,7.25-19.46,8.51-42.02,16.42-68.21,23.67-2.96-.44-5.99-1.04-9.1-1.63-.37-1.48-.81-2.89-1.41-4.22-58.67-23.75-113.79-45.06-163.54-63.18,3.48-1.26,6.96-2.52,10.39-3.77,.15-.08,.33-.15,.52-.15,.67-.29,1.3-.52,1.96-.74Z" style="fill:#20386f; fill-rule:evenodd;"/><path d="M853.3,1302.68c44.5,11.84,99.07,22.2,165.73,31.08-43.32,5.77-91.7,11.02-145.82,15.68-.81-.44-1.66-1.04-2.48-1.78-8.88-7.47-19.42-28.26-17.42-44.98Z" style="fill:#20386f; fill-rule:evenodd;"/><path d="M1019.03,1231.44c-3.52-1.26-6.96-2.52-10.43-3.77l4.29-.15h12.28l4.25,.15c-3.44,1.26-6.92,2.52-10.39,3.77Z" style="fill:#0e2952; fill-rule:evenodd;"/><polygon points="516.86 88.52 640.93 186.92 587.99 225.14 516.86 88.52" style="fill:#c4d1eb; fill-rule:evenodd;"/><polygon points="667.49 169.42 521.07 90.08 711.55 160.58 667.49 169.42" style="fill:#c4d1eb; fill-rule:evenodd;"/><polygon points="667.49 169.42 645.11 233.16 640.93 186.92 516.86 88.52 521.07 90.08 667.49 169.42" style="fill:#9db2d9; fill-rule:evenodd;"/><polygon points="645.11 233.16 617.48 203.86 640.93 186.92 645.11 233.16" style="fill:#859ac6; fill-rule:evenodd;"/><path d="M678.03,207.79c-3.44-1.96-5.99,3.07-2.96,4.81,1.59,1,3.14,1.96,4.7,3,3.59,2.07,5.96-3.07,3.11-4.73-1.59-1.04-3.22-2.07-4.85-3.07h0Zm-161.4,292.79c.85,3.55,6.4,2.26,5.47-1.44-.48-1.78-.89-3.55-1.29-5.36-.96-3.85-6.4-2.18-5.51,1.18,.41,1.89,.81,3.74,1.33,5.62h0Zm-3.74-22.86c0,3.37,5.66,3.81,5.66-.26-.11-1.85-.18-3.7-.18-5.51,0-3.77-5.62-3.7-5.62-.04,0,1.96,.04,3.89,.15,5.81h0Zm1.44-23.19c-.48,3.85,4.66,4.66,5.55,1.07,.3-1.78,.74-3.59,1.18-5.33,.92-3.74-4.59-4.96-5.48-1.44-.48,1.85-.92,3.81-1.26,5.7h0Zm7.36-22.12c-1.66,2.92,3.03,6.1,5.07,2.55,.74-1.55,1.63-3.44,2.55-4.85,1.89-3.29-3.07-5.99-4.88-2.85-1,1.63-1.92,3.44-2.74,5.14h0Zm12.8-19.38c-2.48,2.96,2,6.44,4.29,3.66,1.18-1.37,2.4-2.7,3.66-4.03,2.55-2.59-1.33-6.66-4.07-3.96-1.33,1.44-2.63,2.81-3.89,4.33h0Zm16.8-15.94c-3.07,2.55,.81,6.7,3.48,4.48,1.44-1.11,2.92-2.22,4.44-3.26,3.07-2.22-.3-6.77-3.26-4.66-1.55,1.15-3.14,2.26-4.66,3.44h0Zm19.38-12.5c-3.44,1.96-.41,6.73,2.66,4.96,1.63-.85,3.29-1.7,4.92-2.51,3.62-2.07,.37-6.7-2.48-5.07-1.7,.85-3.4,1.7-5.11,2.63h0Zm20.94-9.43c-3.51,1.3-1.52,6.58,1.96,5.29l5.25-1.89c3.7-1.37,1.44-6.59-1.81-5.37-1.81,.63-3.59,1.26-5.4,1.96h0Zm21.9-6.77c-3.62,.92-2.22,6.36,1.33,5.51l5.47-1.26c3.81-1,2.18-6.4-1.18-5.55l-5.62,1.29h0Zm22.53-4.22c-3.66,.44-3,6.07,.74,5.59l5.51-.67c3.88-.44,3-6.03-.56-5.62-1.92,.22-3.81,.44-5.7,.7h0Zm22.71-1.85c-3.77,.48-3.4,5.66,.37,5.66,1.85-.11,3.77-.22,5.66-.37,4.03-.52,2.96-6.07-.41-5.62l-5.62,.33h0Zm22.31-2.03c-3.63,.44-3,6.1,.78,5.62,1.89-.26,3.77-.52,5.62-.81,3.55-.41,3.03-6.07-.82-5.59-1.85,.3-3.7,.55-5.59,.78h0Zm21.94-3.96c-3.59,.89-2.22,6.4,1.41,5.47,1.85-.44,3.7-.92,5.55-1.44,3.37-.85,2.29-6.4-1.59-5.44-1.74,.56-3.59,.96-5.36,1.41h0Zm20.98-6.96c-3.29,1.41-1.22,6.66,2.29,5.14,1.81-.78,3.55-1.67,5.29-2.59,3.33-1.89,.41-6.73-2.74-4.96-1.48,.89-3.26,1.7-4.85,2.4h0Zm17.94-11.76c-2.59,2.59,1.37,6.66,4.03,3.99,1.41-1.44,2.74-2.92,3.99-4.51,2.15-2.59-1.92-6.55-4.51-3.4-1.07,1.41-2.26,2.7-3.51,3.92h0Zm10.06-18.05c-.82,3.33,4.55,5.03,5.51,1.15,.41-2.07,.66-3.99,.78-6.03,0-4.1-5.62-3.66-5.62-.3-.11,1.78-.33,3.44-.67,5.18h0Zm-1.26-21.01c.85,3.37,6.36,2.29,5.4-1.55-.52-1.89-1.11-3.74-1.78-5.59-1.33-3.51-6.62-1.52-5.33,1.96,.63,1.7,1.22,3.44,1.7,5.18h0Zm-8.77-20.01c1.78,3.14,6.73,.44,4.85-2.85-.74-1.55-2.07-3.44-3-4.96-1.66-2.85-6.81-.52-4.77,3.11,.89,1.22,2.26,3.4,2.92,4.7h0Zm-12.69-18.2c2.44,2.96,6.7-.78,4.4-3.51-1.18-1.52-2.44-3-3.7-4.44-2.29-2.77-6.73,.74-4.26,3.7,1.18,1.41,2.41,2.81,3.55,4.25h0Zm-14.98-16.5c2.59,2.63,6.62-1.37,3.96-4.03-1.29-1.29-2.74-2.74-4.11-3.96-2.48-2.48-6.66,1.33-3.88,4.11,1.37,1.29,2.7,2.59,4.03,3.88h0Zm-16.57-14.94c2.77,2.33,6.47-1.96,3.55-4.4l-4.48-3.55c-2.66-2.22-6.51,1.92-3.44,4.44,1.44,1.07,2.92,2.37,4.37,3.51Z" style="fill:#859ac6; fill-rule:evenodd;"/><polygon points="1790.36 93.44 1641.2 154.55 1682.19 206.86 1790.36 93.44" style="fill:#c4d1eb; fill-rule:evenodd;"/><polygon points="1620.19 129.92 1785.77 93.74 1579.65 108.79 1620.19 129.92" style="fill:#c4d1eb; fill-rule:evenodd;"/><polygon points="1620.19 129.92 1624.04 198.57 1641.2 154.55 1790.36 93.44 1785.77 93.74 1620.19 129.92" style="fill:#9db2d9; fill-rule:evenodd;"/><polygon points="1624.04 198.57 1659.4 177.75 1641.2 154.55 1624.04 198.57" style="fill:#859ac6; fill-rule:evenodd;"/><path d="M1585.71,193.47c4.88-.59,3.77-7.66-.74-7.1l-7.1,.78c-4.81,.59-3.85,7.69,.74,7.1l7.1-.78h0Zm-244.52,284.36c-3.18,0-4.74,3.88-2.59,6.03,.52,.66,1.63,1.15,2.59,1.15l4.66-.04c4.59,0,4.74-7.14-.15-7.14h-4.51Zm25.82-.63c-4.14,0-4.81,7.1,.44,7.1l7.18-.44c5.1-.63,3.7-7.66-.52-7.14l-7.1,.48h0Zm28.11-2.7c-4.44,.55-3.85,7.69,1.11,7.06l-1.11-7.06h0Zm27.38-6.03c-4.29,1.59-2.59,8.03,2.22,6.81,2.37-.74,4.66-1.55,6.96-2.48,4.36-1.85,1.78-8.29-2.66-6.62-2.15,.85-4.29,1.59-6.51,2.29h0Zm24.27-12.21c-3.7,3.11,1.04,8.47,4.44,5.58,2.07-1.66,3.92-3.4,5.69-5.33,3.18-3.81-2.51-8.18-5.4-4.74-1.48,1.63-3.03,3.07-4.74,4.48h0Zm13.32-21.68c-.59,5.11,6.58,5.47,7.1,1.22,.44-2.55,.74-5.03,.81-7.62,0-4.96-7.18-4.7-7.18-.19,0,2.26-.29,4.4-.74,6.58h0Zm-1.85-26.75c1.11,4.33,8.06,2.88,6.88-1.92-.59-2.33-1.33-4.74-2.07-7.03-1.78-4.66-8.43-1.85-6.81,2.29,.74,2.18,1.33,4.44,2,6.66h0Zm-9.84-26.23c1.7,4.14,8.44,1.59,6.51-2.96-1.03-2.18-2.07-4.4-3.18-6.55-2.59-4.59-8.51-.48-6.43,3.14,1.04,2.11,2.07,4.25,3.1,6.36h0Zm-12.8-25.34c2.44,4.33,8.51,.48,6.29-3.37l-3.33-6.33c-2.44-4.33-8.51-.52-6.29,3.37,1.11,2.04,2.22,4.22,3.33,6.33h0Zm-13.39-25.45c2.66,4.55,8.58,.48,6.43-3.18l-3.11-6.36c-2.44-4.29-8.21-1.15-6.44,3.11l3.11,6.44h0Zm-11.54-26.67c1.63,4.25,7.99,2.55,6.81-2.26-.74-2.22-1.41-4.33-1.92-6.58-1.18-4.59-8.14-2.88-6.95,1.74,.59,2.4,1.33,4.73,2.07,7.1h0Zm-3.55-29.7c-.59,4.66,6.51,5.55,7.03,.89,.22-2.22,.66-4.44,1.26-6.59,1.18-4.62-5.77-6.29-6.95-1.78-.59,2.48-1.04,4.92-1.33,7.47h0Zm10.95-28c-2.81,3.88,3.11,7.95,5.77,4.22,1.33-1.85,2.74-3.59,4.29-5.29,3.25-3.92-2.52-8.14-5.33-4.81-1.7,1.81-3.26,3.85-4.74,5.88h0Zm21.6-20.42c-3.7,2.66-.29,8.4,3.99,5.96,1.92-1.29,3.85-2.55,5.92-3.74,3.92-2.26,.52-8.58-3.7-6.14-2.07,1.26-4.14,2.55-6.22,3.92h0Zm25.89-13.72c-4.44,1.92-1.55,8.43,2.67,6.62,2.22-.93,4.44-1.78,6.58-2.63,4.37-1.63,1.92-8.32-2.52-6.7-2.29,.89-4.51,1.78-6.73,2.7h0Zm27.38-9.51c-4.29,1.07-2.89,8.06,1.92,6.84l6.8-1.89c4.51-1.11,2.96-8.06-1.78-6.92l-6.95,1.96h0Zm28.04-6.88c-4.96,1.26-2.74,8.06,1.41,7.03l6.96-1.41c4.59-1.15,3.55-7.62-1.33-7.03l-7.03,1.41h0Zm28.34-5.03c-4.44,.56-3.85,7.69,1.04,7.1l7.1-1.03c4.51-.59,3.85-7.69-1.04-7.1l-7.1,1.03Z" style="fill:#859ac6; fill-rule:evenodd;"/><path d="M912.86,1017.92c68.18-7.03,135.43-5.4,201.72,4.59-1.33,24.93-.37,55.79,2.18,76.57,0,0-101.4-40.99-203.2-8.58,2.44-8.29,3.99-15.69,3.99-21.31,0-13.91-1.59-33-4.7-51.27Z" style="fill:#466fb5; fill-rule:evenodd;"/><path d="M779.95,255.76c0,141.2,114.49,255.73,255.73,255.73s255.73-114.53,255.73-255.73S1176.87,0,1035.67,0s-255.73,114.53-255.73,255.76Z" style="fill:#859ac6; fill-rule:evenodd;"/><path d="M1041.19,488.11c.59-.04,1.15-.07,1.74-.07,1.29-.04,2.55-.07,3.81-.15,.67-.04,1.29-.04,1.92-.11,1.26-.04,2.48-.15,3.7-.22,.59-.04,1.22-.07,1.85-.11,1.44-.11,2.89-.26,4.33-.41,.37-.04,.74-.07,1.07-.11,1.81-.15,3.59-.37,5.36-.59,.48-.07,.96-.15,1.44-.19,1.29-.19,2.63-.37,3.92-.56,.59-.11,1.22-.18,1.81-.3,1.22-.18,2.4-.37,3.59-.59,.63-.11,1.22-.18,1.81-.3,1.33-.26,2.63-.52,3.92-.78,.44-.07,.89-.15,1.33-.26,1.74-.33,3.51-.74,5.22-1.15,.29-.07,.59-.11,.89-.19,1.44-.33,2.85-.7,4.29-1.07,.55-.15,1.07-.26,1.63-.41,1.22-.33,2.41-.66,3.59-.96,.59-.18,1.11-.33,1.66-.48,1.26-.37,2.48-.74,3.74-1.11,.45-.15,.92-.3,1.37-.41,3.37-1.07,6.73-2.22,10.06-3.4,.44-.19,.85-.33,1.33-.52,1.18-.44,2.41-.89,3.63-1.37,.52-.18,1.04-.41,1.48-.59,1.18-.48,2.37-.96,3.55-1.44,.44-.22,.89-.41,1.41-.59,1.41-.63,2.89-1.26,4.29-1.89l.52-.22c1.63-.74,3.18-1.48,4.81-2.26l.89-.44c1.26-.59,2.59-1.26,3.77-1.85,.44-.26,.89-.48,1.33-.7,1.18-.59,2.37-1.22,3.48-1.81,.44-.22,.81-.44,1.26-.7,1.26-.67,2.52-1.37,3.78-2.11,.22-.15,.52-.26,.81-.44,1.55-.89,3.11-1.81,4.59-2.74l.15-.04c1.48-.89,2.81-1.81,4.29-2.7,.3-.22,.74-.44,1.04-.7,1.18-.7,2.22-1.44,3.4-2.18l1.18-.81c1.11-.78,2.22-1.55,3.4-2.37,.3-.22,.59-.41,.89-.63,2.81-2.04,5.62-4.14,8.43-6.33,.3-.22,.6-.41,.82-.63,1.11-.89,2.15-1.74,3.25-2.63,.37-.3,.66-.59,1.11-.89,1.04-.89,2.07-1.74,3.03-2.63,.37-.26,.67-.52,.96-.78,1.26-1.11,2.52-2.26,3.77-3.37l.07-.07c1.33-1.22,2.66-2.44,4-3.74,.15-.11,.29-.22,.44-.37,1.03-1.07,2.15-2.14,3.26-3.22,.29-.3,.59-.59,.89-.93,.96-.96,1.92-1.92,2.81-2.88,.3-.33,.59-.63,.89-.92,1.04-1.11,2.07-2.22,3.1-3.33l.45-.48c2.37-2.63,4.73-5.29,6.95-8.03,.3-.3,.52-.59,.74-.89,.89-1.07,1.78-2.15,2.59-3.22,.29-.37,.52-.7,.81-1.04,.89-1.11,1.78-2.22,2.52-3.33,.29-.3,.44-.56,.74-.85,2.07-2.81,4.14-5.7,6.06-8.66,.22-.26,.44-.56,.59-.81,.74-1.18,1.55-2.33,2.37-3.51,.22-.41,.45-.82,.74-1.18,.74-1.15,1.41-2.3,2.07-3.44,.29-.37,.44-.7,.67-1.07,.89-1.41,1.7-2.81,2.52-4.25l.15-.22c.96-1.55,1.78-3.14,2.67-4.73,.07-.22,.22-.48,.37-.7,.74-1.29,1.33-2.59,2.07-3.92,.22-.41,.44-.85,.67-1.26,.52-1.18,1.11-2.33,1.7-3.52,.22-.44,.44-.85,.59-1.29,.74-1.33,1.33-2.63,1.92-3.96,.15-.26,.22-.56,.29-.81,.74-1.67,1.48-3.29,2.22-4.96l.15-.3c.6-1.52,1.18-3.03,1.85-4.55,.15-.44,.37-.89,.52-1.33,.45-1.18,.89-2.41,1.33-3.63,.22-.52,.45-1,.59-1.52,.44-1.22,.89-2.48,1.33-3.74,.15-.41,.29-.85,.44-1.29,.59-1.66,1.11-3.37,1.63-5.11h0c6.8-21.82,10.43-45.02,10.43-69.06,0-66.59-28.04-126.62-72.87-168.98v-.04c-1.03-.92-2-1.85-3.03-2.77l-.37-.37c-1.33-1.15-2.52-2.26-3.77-3.33l-.45-.37c-1.26-1.11-2.59-2.22-3.92-3.29l-.29-.26c-1.33-1.11-2.66-2.22-4.07-3.29l-.22-.19c-1.41-1.11-2.81-2.18-4.29-3.26l-.15-.11c-1.48-1.11-2.89-2.18-4.44-3.22l-.07-.11c-1.48-1.03-2.96-2.07-4.44-3.07l-.22-.19c-1.48-.96-2.96-1.92-4.36-2.85l-.44-.26c-1.41-.89-2.89-1.81-4.29-2.7l-.52-.3c-1.41-.85-2.81-1.7-4.29-2.52l-.52-.33c-1.41-.81-2.89-1.63-4.36-2.4l-.52-.3c-1.41-.81-2.88-1.59-4.36-2.33l-.59-.3c-1.48-.74-2.96-1.48-4.44-2.18l-.59-.3c-1.48-.74-3.04-1.44-4.59-2.11l-.44-.26c-1.63-.7-3.11-1.37-4.73-2.04l-.44-.22c-1.63-.66-3.18-1.33-4.81-1.96l-.37-.15c-1.7-.63-3.37-1.29-5.03-1.92l-.22-.07c-1.78-.63-3.51-1.26-5.29-1.85l-.04-.04c-1.78-.59-3.55-1.18-5.36-1.74l-.18-.04c-1.74-.56-3.48-1.07-5.25-1.55l-.33-.07c-1.7-.52-3.4-1-5.14-1.41l-.48-.15c-1.66-.41-3.37-.81-5.07-1.22l-.56-.11c-1.67-.41-3.33-.78-5.03-1.11l-.63-.11c-1.66-.37-3.37-.66-5.03-.96l-.66-.15c-1.67-.3-3.37-.59-5.07-.85l-.66-.11c-1.7-.22-3.41-.48-5.07-.7l-.7-.07c-1.7-.22-3.44-.41-5.18-.59l-.59-.04c-1.78-.22-3.51-.37-5.33-.48l-.48-.04c-1.85-.15-3.66-.26-5.51-.37h-.37c-1.89-.11-3.77-.19-5.66-.22l-.26-.04c-1.96-.04-3.92-.04-5.92-.04s-3.96,0-5.92,.04l-.22,.04c-1.92,.04-3.81,.11-5.7,.22h-.37c-1.81,.11-3.66,.22-5.48,.37l-.52,.04c-1.78,.11-3.55,.26-5.33,.48l-.59,.04c-1.74,.19-3.44,.37-5.18,.59l-.67,.07c-1.7,.26-3.4,.48-5.11,.7l-.66,.11c-1.7,.26-3.37,.55-5.07,.85l-.67,.15c-1.66,.3-3.33,.59-4.99,.96l-.67,.11c-1.66,.33-3.37,.7-4.99,1.11l-.59,.11c-1.7,.41-3.4,.81-5.07,1.22l-.44,.15c-1.74,.41-3.48,.89-5.18,1.41l-.33,.07c-1.74,.48-3.48,1-5.25,1.55l-.18,.04c-1.78,.56-3.59,1.15-5.36,1.74l-.04,.04c-1.74,.59-3.52,1.22-5.25,1.85l-.26,.07c-1.66,.63-3.33,1.29-4.99,1.92l-.41,.15c-1.63,.63-3.18,1.3-4.77,1.96l-.52,.22c-1.55,.67-3.11,1.33-4.62,2.04l-.56,.26c-1.52,.66-3.03,1.37-4.51,2.11l-.59,.3c-1.52,.7-2.96,1.44-4.48,2.18l-.56,.3c-1.48,.74-2.92,1.52-4.36,2.33l-.59,.3c-1.44,.78-2.88,1.59-4.29,2.4l-.59,.33c-1.41,.81-2.85,1.66-4.25,2.52l-.52,.3c-1.44,.89-2.88,1.81-4.29,2.7l-.41,.26c-1.48,.93-2.92,1.89-4.36,2.85l-.26,.19c-1.48,1-2.96,2.04-4.44,3.07l-.11,.11c-1.48,1.04-2.96,2.11-4.44,3.22l-.15,.11c-1.44,1.07-2.85,2.15-4.25,3.26l-.22,.19c-1.37,1.07-2.74,2.18-4.07,3.29l-.33,.26c-1.33,1.07-2.59,2.18-3.89,3.29l-.44,.37c-1.22,1.07-2.48,2.18-3.7,3.33l-.44,.37c-1,.93-2,1.85-3.03,2.77v.04c-44.83,42.36-72.88,102.39-72.88,168.98,0,24.05,3.66,47.24,10.43,69.06h0c.56,1.74,1.11,3.44,1.67,5.11,.15,.44,.3,.89,.44,1.29,.44,1.26,.85,2.52,1.29,3.74,.22,.52,.37,1,.59,1.52,.44,1.22,.89,2.44,1.37,3.63,.15,.44,.33,.89,.52,1.33,.63,1.52,1.22,3.03,1.85,4.55l.15,.3c.7,1.66,1.41,3.29,2.15,4.96,.11,.26,.26,.55,.37,.81,.59,1.33,1.22,2.63,1.85,3.96,.22,.44,.44,.85,.63,1.29,.59,1.18,1.15,2.33,1.74,3.52,.22,.41,.44,.85,.66,1.26,.67,1.33,1.37,2.63,2.07,3.92,.11,.22,.22,.48,.37,.7,.85,1.59,1.74,3.18,2.63,4.73l.15,.22c.81,1.44,1.66,2.85,2.52,4.25,.22,.37,.44,.7,.66,1.07,.67,1.15,1.41,2.29,2.11,3.44,.26,.37,.52,.78,.78,1.18,.74,1.18,1.52,2.33,2.29,3.51,.22,.26,.37,.56,.59,.81,1.96,2.92,4.03,5.84,6.14,8.66,.19,.3,.41,.56,.63,.85,.85,1.11,1.7,2.22,2.55,3.33,.26,.33,.56,.67,.81,1.04,.85,1.07,1.74,2.15,2.59,3.22,.26,.3,.48,.59,.7,.89,2.29,2.7,4.62,5.4,6.99,8.03,.15,.15,.3,.33,.44,.48,1.04,1.11,2.07,2.22,3.07,3.33,.3,.3,.59,.59,.89,.92,.96,.96,1.89,1.92,2.85,2.88,.3,.33,.59,.63,.89,.93,1.11,1.07,2.18,2.15,3.33,3.22,.11,.15,.26,.26,.41,.37,1.29,1.29,2.63,2.52,4,3.74l.04,.07c1.26,1.11,2.51,2.26,3.81,3.37,.3,.26,.59,.52,.92,.78,1,.89,2.04,1.74,3.07,2.63,.37,.3,.74,.59,1.07,.89,1.07,.89,2.18,1.74,3.26,2.63,.26,.22,.56,.41,.81,.63,2.78,2.18,5.59,4.29,8.47,6.33,.3,.22,.59,.41,.89,.63,1.15,.81,2.26,1.59,3.4,2.37l1.18,.81c1.11,.74,2.25,1.48,3.37,2.18,.37,.26,.7,.48,1.03,.7,1.44,.89,2.85,1.81,4.33,2.7l.11,.04c1.52,.93,3.07,1.85,4.62,2.74,.26,.19,.56,.3,.81,.44,1.22,.74,2.48,1.44,3.73,2.11,.44,.26,.85,.48,1.29,.7,1.11,.59,2.29,1.22,3.44,1.81,.44,.22,.89,.44,1.3,.7,1.29,.59,2.55,1.26,3.81,1.85,.3,.15,.59,.3,.92,.44,1.59,.78,3.22,1.52,4.85,2.26l.44,.22c1.44,.63,2.88,1.26,4.33,1.89,.44,.18,.92,.37,1.37,.59,1.18,.48,2.37,.96,3.55,1.44,.52,.18,1,.41,1.52,.59,1.18,.48,2.4,.92,3.63,1.37,.44,.19,.89,.33,1.33,.52,3.29,1.18,6.66,2.33,10.02,3.4,.48,.11,.92,.26,1.37,.41,1.26,.37,2.48,.74,3.74,1.11,.55,.15,1.11,.3,1.66,.48,1.18,.3,2.4,.63,3.59,.96,.56,.15,1.07,.26,1.63,.41,1.44,.37,2.88,.74,4.33,1.07,.26,.07,.56,.11,.85,.19,1.74,.41,3.48,.81,5.22,1.15,.44,.11,.89,.18,1.37,.26,1.26,.26,2.59,.52,3.88,.78,.59,.11,1.22,.19,1.81,.3,1.18,.22,2.37,.41,3.59,.59,.63,.11,1.22,.19,1.85,.3,1.29,.19,2.59,.37,3.88,.56,.48,.04,1,.11,1.44,.19,1.78,.22,3.59,.44,5.4,.59,.33,.04,.66,.07,1.03,.11,1.44,.15,2.89,.3,4.36,.41,.59,.04,1.22,.07,1.81,.11,1.22,.07,2.48,.19,3.7,.22,.63,.07,1.29,.07,1.92,.11,1.26,.07,2.55,.11,3.85,.15,.55,0,1.15,.04,1.74,.07,1.81,.04,3.63,.04,5.48,.04s3.66,0,5.51-.04h0Zm-193.91-322.24c.15-.33,.33-.7,.48-1.07,1.33-2.7,2.74-5.44,4.18-8.1,.19-.37,.41-.7,.59-1.07,.56-1.04,1.15-2.07,1.74-3.11,.15-.33,.37-.63,.52-.96,.78-1.29,1.52-2.59,2.29-3.89,.15-.22,.3-.44,.41-.66,.67-1.07,1.33-2.15,2-3.18,.26-.41,.48-.74,.74-1.15,.67-1,1.33-2.04,2-3.03,.19-.26,.33-.52,.52-.78,.81-1.22,1.66-2.44,2.51-3.63,.22-.33,.48-.63,.7-.96,.67-.93,1.33-1.85,2-2.77,.26-.33,.55-.7,.81-1.07,.89-1.15,1.78-2.33,2.7-3.52l.22-.3c.85-1.04,1.67-2.11,2.55-3.14,.3-.41,.63-.78,.93-1.15,.7-.81,1.37-1.63,2.11-2.44,.26-.37,.55-.7,.85-1.04,.96-1.07,1.89-2.14,2.89-3.22,.26-.3,.56-.63,.81-.93,.74-.78,1.48-1.55,2.22-2.37,.37-.37,.74-.74,1.11-1.15,.78-.81,1.55-1.59,2.33-2.41,.26-.26,.52-.52,.78-.78,1-1.03,2.04-2,3.07-3,.37-.33,.7-.67,1.07-1.04,.74-.7,1.48-1.41,2.22-2.07,.41-.33,.78-.7,1.15-1.07,1.07-.93,2.14-1.89,3.22-2.81,.22-.19,.44-.37,.67-.55,.89-.78,1.81-1.55,2.74-2.33,.41-.33,.81-.67,1.22-1,.81-.67,1.59-1.29,2.4-1.96,.37-.3,.74-.59,1.15-.89,1.11-.85,2.22-1.74,3.37-2.59,.37-.26,.74-.56,1.11-.81,.85-.59,1.66-1.22,2.48-1.81,.48-.33,.92-.67,1.37-.96,.96-.66,1.85-1.29,2.81-1.96,.3-.18,.56-.37,.85-.59,1.18-.78,2.37-1.59,3.59-2.37,.41-.26,.85-.52,1.26-.78,.89-.59,1.74-1.11,2.63-1.66,.44-.26,.89-.52,1.33-.78,1.22-.74,2.44-1.48,3.7-2.22,.26-.15,.56-.3,.78-.44,1.03-.59,2.07-1.15,3.11-1.74,.48-.26,.96-.48,1.44-.74,.93-.52,1.89-1.04,2.85-1.52,.37-.19,.78-.41,1.15-.59,1.29-.66,2.59-1.33,3.88-1.96,.41-.18,.81-.37,1.18-.55,1-.44,2-.92,2.96-1.37,.48-.22,.92-.44,1.41-.63,1.15-.52,2.29-1.04,3.44-1.52,.26-.11,.48-.22,.7-.33,1.37-.56,2.74-1.11,4.07-1.63,.48-.22,.92-.37,1.41-.55,1-.41,2-.78,3.03-1.15,.44-.19,.89-.33,1.33-.52,1.41-.48,2.77-.96,4.14-1.44,.33-.11,.63-.22,.92-.33,1.15-.37,2.3-.74,3.48-1.11,.48-.15,.96-.3,1.44-.44,1.11-.33,2.22-.67,3.33-1,.37-.11,.74-.22,1.11-.33,1.44-.41,2.89-.78,4.36-1.18,.37-.07,.78-.19,1.18-.3,1.11-.26,2.26-.56,3.4-.81,.44-.11,.93-.19,1.37-.3,1.37-.33,2.74-.63,4.11-.92,.15,0,.3-.04,.44-.07,1.48-.33,3-.59,4.51-.89,.44-.07,.92-.15,1.37-.22,1.15-.22,2.29-.41,3.48-.59,.41-.07,.85-.11,1.29-.19,1.52-.26,3.03-.44,4.55-.67,.3-.04,.59-.04,.89-.11,1.29-.11,2.59-.3,3.89-.41,.44-.07,.92-.11,1.37-.15,1.29-.15,2.59-.22,3.92-.33,.26-.04,.59-.07,.89-.07,1.55-.15,3.11-.26,4.7-.29,.44-.04,.85-.04,1.26-.07,1.22-.07,2.44-.11,3.7-.15,.44,0,.89-.04,1.37-.04,1.59-.04,3.22-.04,4.81-.04s3.22,0,4.85,.04c.44,0,.89,.04,1.33,.04,1.26,.04,2.48,.07,3.7,.15,.45,.04,.85,.04,1.26,.07,1.59,.04,3.14,.15,4.74,.29,.29,0,.59,.04,.89,.07,1.29,.11,2.59,.19,3.88,.33,.48,.04,.93,.07,1.37,.15,1.33,.11,2.59,.3,3.88,.41,.33,.07,.59,.07,.89,.11,1.52,.22,3.07,.41,4.59,.67,.41,.07,.85,.11,1.29,.19,1.15,.19,2.29,.37,3.48,.59,.44,.07,.89,.15,1.37,.22,1.48,.3,3,.56,4.51,.89l.41,.07c1.37,.3,2.74,.59,4.11,.92,.48,.11,.92,.19,1.37,.3,1.18,.26,2.29,.56,3.44,.81,.41,.11,.78,.22,1.18,.3,1.44,.41,2.92,.78,4.36,1.18,.33,.11,.7,.22,1.07,.33,1.11,.33,2.22,.67,3.33,1,.48,.15,.96,.3,1.44,.44,1.18,.37,2.33,.74,3.48,1.11,.29,.11,.63,.22,.92,.33,1.41,.48,2.77,.93,4.14,1.44,.48,.19,.92,.33,1.33,.52,1.04,.37,2.04,.74,3.04,1.15,.48,.19,.92,.33,1.41,.55,1.37,.52,2.7,1.07,4.07,1.63,.22,.11,.48,.22,.7,.33,1.15,.48,2.33,1,3.44,1.52,.45,.18,.96,.41,1.41,.63,.96,.44,2,.92,2.96,1.37,.37,.19,.81,.37,1.18,.55,1.33,.63,2.59,1.3,3.92,1.96,.37,.18,.74,.41,1.18,.59,.89,.48,1.85,1,2.81,1.52,.44,.26,.89,.48,1.41,.74,1.04,.59,2.07,1.15,3.11,1.74,.22,.15,.52,.3,.81,.44,1.18,.74,2.51,1.48,3.7,2.22,.45,.26,.89,.52,1.33,.78,.89,.55,1.78,1.07,2.59,1.66,.45,.26,.81,.52,1.26,.78,1.18,.78,2.37,1.59,3.55,2.37,.29,.22,.59,.41,.89,.59,.96,.67,1.92,1.3,2.81,1.96,.44,.3,.89,.63,1.33,.96,.89,.59,1.7,1.22,2.52,1.81,.37,.26,.74,.56,1.18,.81,1.03,.85,2.22,1.74,3.33,2.59,.37,.3,.74,.59,1.11,.89,.81,.67,1.63,1.29,2.37,1.96,.44,.33,.89,.67,1.33,1,.89,.78,1.78,1.55,2.67,2.33,.29,.19,.44,.37,.67,.55,1.11,.93,2.15,1.89,3.18,2.81,.45,.37,.81,.74,1.18,1.07,.74,.66,1.48,1.37,2.22,2.07,.37,.37,.74,.7,1.11,1.04,.96,1,2,1.96,3.04,3,.29,.26,.52,.52,.74,.78,.89,.81,1.63,1.59,2.37,2.41,.37,.41,.74,.78,1.11,1.15,.81,.81,1.48,1.59,2.29,2.37,.22,.3,.45,.63,.74,.93,1.04,1.07,1.92,2.15,2.89,3.22,.29,.33,.59,.67,.89,1.04,.67,.81,1.41,1.63,2.07,2.44,.29,.37,.66,.74,.96,1.15,.89,1.04,1.63,2.11,2.52,3.14l.29,.3c.89,1.18,1.78,2.37,2.66,3.52,.3,.37,.52,.74,.74,1.07,.74,.92,1.41,1.85,2.07,2.77,.22,.33,.44,.63,.67,.96,.89,1.18,1.7,2.41,2.52,3.63,.22,.26,.37,.52,.52,.78,.67,1,1.33,2.04,2.07,3.03,.15,.41,.44,.74,.66,1.15,.67,1.03,1.33,2.11,2,3.18,.15,.22,.29,.44,.44,.66,.74,1.3,1.48,2.59,2.22,3.89,.22,.33,.44,.63,.59,.96,.59,1.04,1.18,2.07,1.78,3.11,.15,.37,.29,.7,.52,1.07,1.48,2.66,2.88,5.4,4.22,8.1,.15,.37,.3,.74,.44,1.07,13.02,27.23,20.27,57.67,20.27,89.85,0,23.3-3.77,45.69-10.8,66.59-.15,.44-.29,.85-.44,1.26-.37,1.07-.74,2.14-1.11,3.22-.22,.48-.37,.96-.52,1.44-.45,1.03-.81,2.11-1.18,3.14-.15,.44-.37,.89-.59,1.29-.52,1.41-1.04,2.81-1.63,4.18l-.08,.11-.07,.07c-.59,1.41-1.18,2.81-1.78,4.22-.22,.44-.44,.89-.59,1.29-.45,1-.89,1.96-1.41,2.92-.22,.52-.52,1.03-.67,1.52-.52,.92-.96,1.89-1.48,2.81-.15,.44-.45,.92-.67,1.41-.67,1.22-1.26,2.48-2,3.7l-.22,.44c-.67,1.33-1.41,2.59-2.15,3.88-.29,.48-.52,.92-.81,1.41-.52,.85-1.04,1.74-1.55,2.59-.29,.52-.59,1-.89,1.48-.52,.89-1.04,1.7-1.63,2.59-.29,.44-.59,.92-.89,1.37-.67,1.11-1.41,2.18-2.15,3.29l-.52,.85c-.81,1.15-1.63,2.26-2.37,3.37-.29,.44-.66,.89-1.04,1.33-.52,.82-1.03,1.59-1.63,2.37-.44,.52-.74,1-1.18,1.48-.52,.78-1.18,1.55-1.7,2.29-.37,.44-.67,.92-1.11,1.37-.74,.96-1.48,1.89-2.22,2.81-.37,.44-.74,.85-1.04,1.29-.81,.93-1.63,1.85-2.37,2.77-.44,.48-.89,.96-1.26,1.41-.59,.7-1.26,1.37-1.85,2.07-.44,.48-.81,.92-1.26,1.41-.67,.7-1.26,1.37-1.92,2.03-.37,.48-.81,.89-1.26,1.33-.74,.85-1.63,1.7-2.52,2.55-.37,.41-.74,.78-1.18,1.18-.81,.85-1.63,1.7-2.52,2.55-.52,.44-.96,.89-1.41,1.29-.67,.63-1.33,1.22-2,1.85-.44,.44-.96,.89-1.48,1.33-.67,.59-1.33,1.22-2.07,1.81-.44,.37-.89,.78-1.33,1.18-.89,.78-1.77,1.55-2.66,2.29-.44,.37-.89,.74-1.41,1.15-.96,.74-1.85,1.48-2.81,2.26-.52,.37-.96,.78-1.48,1.11-.67,.59-1.41,1.15-2.15,1.7-.52,.37-1.04,.78-1.55,1.15-.81,.56-1.55,1.11-2.29,1.63-.44,.37-.96,.7-1.48,1.07-.96,.7-1.92,1.37-2.96,2.03-.44,.33-.89,.67-1.33,.96-1.04,.67-2.07,1.33-3.11,2-.45,.33-1.04,.7-1.48,1-.81,.52-1.63,1-2.37,1.48-.59,.33-1.18,.67-1.7,1-.82,.48-1.63,.96-2.44,1.44-.44,.3-1.04,.59-1.48,.89-1.18,.63-2.22,1.22-3.26,1.85-.44,.22-.89,.44-1.33,.67-1.11,.63-2.22,1.22-3.41,1.81-.52,.26-1.04,.52-1.55,.78-.81,.44-1.7,.89-2.59,1.29-.59,.26-1.18,.56-1.7,.81-.89,.41-1.78,.81-2.66,1.22-.52,.26-.96,.48-1.55,.74-1.18,.56-2.48,1.11-3.74,1.63l-.81,.37c-1.26,.52-2.59,1.04-3.89,1.55-.48,.22-1,.41-1.52,.59-.96,.37-1.89,.74-2.88,1.11-.56,.22-1.11,.41-1.67,.59-.92,.33-1.92,.7-2.89,1.03-.52,.19-1.04,.37-1.55,.52-1.33,.48-2.66,.89-3.99,1.29l-.74,.26c-1.37,.41-2.74,.81-4.11,1.22-.55,.15-1.07,.3-1.59,.41-1,.29-2.03,.55-3.03,.85-.55,.11-1.11,.3-1.66,.44-1.07,.26-2.11,.52-3.14,.74-.52,.11-1,.26-1.52,.37-1.48,.33-2.96,.67-4.44,.96l-.18,.04h0l-.11,.04c-1.52,.3-3.03,.59-4.55,.85-.52,.11-1,.18-1.52,.26-1.07,.19-2.15,.37-3.22,.55-.59,.07-1.15,.19-1.74,.26-1.07,.15-2.18,.3-3.26,.44-.52,.07-1.03,.15-1.52,.22-1.59,.18-3.22,.37-4.81,.52h0c-1.59,.19-3.22,.33-4.81,.44-.52,.04-1.04,.07-1.55,.11-1.11,.07-2.26,.15-3.36,.22-.56,.04-1.18,.07-1.74,.07-1.15,.07-2.26,.11-3.4,.15-.52,0-1.04,.04-1.52,.04-1.66,.04-3.29,.04-4.96,.04s-3.29,0-4.92-.04c-.52,0-1.04-.04-1.55-.04-1.11-.04-2.26-.07-3.37-.15-.59,0-1.18-.04-1.78-.07-1.11-.07-2.26-.15-3.37-.22-.52-.04-1-.07-1.52-.11-1.63-.11-3.22-.26-4.81-.44h-.04l-167.06-297.49h0Zm171.9,297.94c-1.63-.11-3.22-.26-4.81-.44l4.81,.44h0Zm-9.62-.96c-.52-.07-1.04-.15-1.55-.22-1.07-.15-2.14-.3-3.26-.44-.55-.07-1.15-.18-1.7-.26-1.07-.19-2.15-.37-3.25-.55-.48-.07-1-.15-1.52-.26-1.52-.26-3.03-.56-4.55-.85l-.11-.04h0l-.18-.04c-1.48-.3-2.96-.63-4.44-.96-.48-.11-1-.26-1.52-.37-1.04-.22-2.07-.48-3.11-.74-.55-.15-1.15-.3-1.7-.44-1-.3-2-.56-3-.85-.56-.11-1.07-.26-1.59-.41-1.37-.41-2.74-.81-4.11-1.22l-.78-.26c-1.33-.41-2.66-.81-3.99-1.29-.52-.15-1.04-.33-1.55-.52-.96-.33-1.92-.7-2.88-1.03-.56-.19-1.11-.37-1.67-.59-.96-.37-1.92-.74-2.88-1.11-.48-.18-1-.37-1.52-.59-1.29-.52-2.59-1.04-3.88-1.55l-.81-.37c-1.26-.52-2.48-1.07-3.74-1.63-.52-.26-1.04-.48-1.52-.74-.92-.41-1.81-.82-2.7-1.22-.55-.26-1.11-.55-1.7-.81-.85-.41-1.7-.85-2.59-1.29-.52-.26-1.04-.52-1.55-.78-1.15-.59-2.26-1.18-3.4-1.81-.44-.22-.85-.44-1.26-.67-1.07-.63-2.18-1.22-3.26-1.85-.55-.3-1.04-.59-1.55-.89-.81-.48-1.63-.96-2.44-1.44-.55-.33-1.11-.66-1.63-1-.81-.48-1.59-.96-2.41-1.48-.52-.3-1.04-.66-1.52-1-1.04-.67-2.07-1.33-3.07-2-.48-.3-.93-.63-1.41-.96-.96-.67-1.96-1.33-2.96-2.03-.48-.37-.96-.7-1.48-1.07-.74-.52-1.48-1.07-2.22-1.63-.52-.37-1.04-.78-1.59-1.15-.7-.56-1.41-1.11-2.15-1.7-.52-.33-1-.74-1.48-1.11-.92-.78-1.89-1.52-2.81-2.26-.44-.41-.93-.78-1.37-1.15-.89-.74-1.81-1.52-2.66-2.29-.48-.41-.93-.81-1.41-1.18-.7-.59-1.37-1.22-2.04-1.81-.52-.44-1-.89-1.48-1.33-.67-.63-1.29-1.22-1.96-1.85-.44-.41-.92-.85-1.37-1.29-.89-.85-1.74-1.7-2.63-2.55-.41-.41-.78-.78-1.18-1.18-.85-.85-1.66-1.7-2.48-2.55-.41-.44-.81-.85-1.26-1.33-.63-.67-1.26-1.33-1.89-2.03-.44-.48-.89-.93-1.33-1.41-.59-.7-1.18-1.37-1.78-2.07-.41-.44-.81-.92-1.26-1.41-.78-.92-1.59-1.85-2.37-2.77-.33-.44-.66-.85-1.03-1.29-.78-.92-1.52-1.85-2.26-2.81-.37-.44-.74-.92-1.07-1.37-.59-.74-1.18-1.52-1.78-2.29-.37-.48-.74-.96-1.11-1.48-.56-.78-1.11-1.55-1.7-2.37-.33-.44-.67-.89-1-1.33-.78-1.11-1.55-2.22-2.29-3.37l-.59-.85c-.74-1.11-1.44-2.18-2.18-3.29-.26-.44-.56-.93-.85-1.37-.55-.89-1.11-1.7-1.63-2.59-.3-.48-.59-.96-.89-1.48-.52-.85-1.04-1.74-1.55-2.59-.26-.48-.52-.92-.81-1.41-.7-1.29-1.44-2.55-2.15-3.88l-.22-.44c-.7-1.22-1.33-2.48-2-3.7-.22-.48-.44-.96-.7-1.41-.44-.93-.92-1.89-1.37-2.81-.26-.48-.48-1-.74-1.52-.44-.96-.89-1.92-1.37-2.92-.19-.41-.41-.85-.59-1.29-.63-1.41-1.26-2.81-1.85-4.22l-.04-.07-.04-.11c-.59-1.37-1.15-2.77-1.7-4.18-.18-.41-.33-.85-.52-1.29-.37-1.04-.78-2.11-1.18-3.14-.19-.48-.37-.96-.52-1.44-.41-1.07-.78-2.15-1.15-3.22-.15-.41-.3-.82-.41-1.26-7.06-20.9-10.88-43.28-10.88-66.59,0-32.18,7.29-62.63,20.31-89.85l162.29,296.98h0Zm-164.32-121.59c-.63-1.41-1.26-2.81-1.85-4.22l1.85,4.22Z" style="fill:#b0c2e4; fill-rule:evenodd;"/><path d="M826.96,255.76c0,115.23,93.44,208.67,208.71,208.67s208.67-93.44,208.67-208.67-93.37-208.71-208.67-208.71-208.71,93.41-208.71,208.71Z" style="fill:#fff; fill-rule:evenodd;"/><path d="M1035.82,94.18h.41c3.03,0,5.44-2.44,5.44-5.44v-27.15c0-3-2.41-5.44-5.44-5.44h-.41c-3,0-5.44,2.44-5.44,5.44v27.15c0,3,2.44,5.44,5.44,5.44Z" style="fill:#9db2d9; fill-rule:evenodd;"/><path d="M1197.22,255.88v.44c0,3,2.44,5.4,5.48,5.4h27.15c2.96,0,5.4-2.41,5.4-5.4v-.44c0-2.96-2.44-5.4-5.4-5.4h-27.15c-3.03,0-5.48,2.44-5.48,5.4h0Zm-361.12-.7v.44c0,2.96,2.44,5.4,5.4,5.4h27.19c3,0,5.44-2.44,5.44-5.4v-.44c0-3-2.44-5.4-5.44-5.4h-27.19c-2.96,0-5.4,2.4-5.4,5.4Z" style="fill:#9db2d9; fill-rule:evenodd;"/><path d="M1150.02,141.61l.29,.3c2.15,2.11,5.55,2.11,7.62,0l19.24-19.2c2.14-2.14,2.14-5.58,0-7.69l-.3-.3c-2.07-2.11-5.48-2.11-7.62,0l-19.23,19.2c-2.15,2.15-2.15,5.59,0,7.69h0Zm-255.88,254.84l.33,.33c2.11,2.11,5.51,2.11,7.66,0l19.2-19.2c2.11-2.15,2.11-5.59,0-7.69l-.3-.3c-2.11-2.11-5.55-2.11-7.66,0l-19.24,19.2c-2.11,2.14-2.11,5.55,0,7.66Z" style="fill:#9db2d9; fill-rule:evenodd;"/><path d="M921.33,141.61l-.3,.3c-2.11,2.11-5.55,2.11-7.66,0l-19.24-19.2c-2.11-2.14-2.11-5.58,0-7.69l.33-.3c2.11-2.11,5.51-2.11,7.66,0l19.2,19.2c2.11,2.15,2.11,5.59,0,7.69h0Zm255.84,254.84l-.3,.33c-2.07,2.11-5.48,2.11-7.62,0l-19.23-19.2c-2.15-2.15-2.15-5.59,.07-7.69l.22-.3c2.15-2.11,5.55-2.11,7.62,0l19.24,19.2c2.14,2.14,2.14,5.55,0,7.66Z" style="fill:#9db2d9; fill-rule:evenodd;"/><path d="M1035.12,455.34h.41c3,0,5.44-2.44,5.44-5.44v-27.19c0-2.96-2.44-5.4-5.44-5.4h-.41c-3,0-5.44,2.44-5.44,5.4v27.19c0,3,2.44,5.44,5.44,5.44Z" style="fill:#9db2d9; fill-rule:evenodd;"/><path d="M1035.53,258.98h.44c3.33,0,5.99-2.7,5.99-5.99V121.93c0-3.29-2.67-5.99-5.99-5.99h-.44c-3.29,0-5.99,2.7-5.99,5.99V252.99c0,3.29,2.7,5.99,5.99,5.99Z" style="fill:#b0c2e4; fill-rule:evenodd;"/><path d="M1041.96,263.87v-.44c0-3.33-2.67-5.99-5.99-5.99h-90.63c-3.29,0-5.99,2.66-5.99,5.99v.44c0,3.33,2.7,5.99,5.99,5.99h90.63c3.33,0,5.99-2.66,5.99-5.99Z" style="fill:#b0c2e4; fill-rule:evenodd;"/><path d="M942.79,169.91l93.3,83.97c.67,.59,.7,1.63,.11,2.29-.59,.67-1.63,.74-2.33,.11l-93.26-83.94c-.67-.59-.74-1.63-.11-2.33,.59-.67,1.63-.7,2.29-.11Z" style="fill:#859ac6; fill-rule:evenodd;"/><path d="M873.61,257.87c.74-.04,1.33-.11,1.89-.15,.44-.07,.78-.44,.74-.89,0-.07,0-.15-.04-.19-.22,.15-.48,.22-.78,.26-.44,.04-.92,.07-1.48,.11-.11,.3-.19,.59-.33,.85Z" style="fill:#f6fbfd; fill-rule:evenodd;"/><path d="M876.05,243.48v-.19c.04-.44-.33-.85-.78-.85-4.73-.19-17.68-.78-30.15-1.41l-.11,.81c12.47,.63,25.49,1.22,30.22,1.41,.3,.04,.56,.07,.81,.22Z" style="fill:#f6fbfd; fill-rule:evenodd;"/><path d="M0,574.68c0,141.24,114.53,255.69,255.73,255.69s255.77-114.45,255.77-255.69-114.53-255.77-255.77-255.77S0,433.44,0,574.68Z" style="fill:#859ac6; fill-rule:evenodd;"/><path d="M261.24,806.99h1.78c1.26-.08,2.52-.15,3.81-.15,.63-.07,1.26-.07,1.92-.15,1.22,0,2.44-.15,3.66-.22,.63-.07,1.26-.07,1.85-.15,1.44-.07,2.92-.22,4.36-.37,.33,0,.7-.07,1.04-.07,1.81-.22,3.59-.37,5.36-.67,.48,0,.96-.08,1.48-.15,1.26-.15,2.59-.37,3.89-.59,.59-.07,1.22-.15,1.85-.3,1.18-.15,2.41-.29,3.59-.59,.59,0,1.18-.15,1.78-.29,1.33-.22,2.63-.44,3.96-.74,.44-.07,.85-.15,1.33-.29,1.74-.3,3.48-.74,5.22-1.04,.3-.15,.56-.15,.85-.29,1.44-.3,2.88-.67,4.33-1.03,.52-.15,1.04-.3,1.59-.45,1.22-.29,2.4-.59,3.62-.89,.56-.15,1.11-.37,1.63-.52,1.29-.37,2.51-.74,3.74-1.11,.48-.15,.92-.3,1.37-.45,3.4-1.04,6.73-2.22,10.06-3.4,.44-.15,.89-.29,1.33-.44,1.22-.44,2.41-.89,3.63-1.33,.52-.29,1.04-.44,1.52-.66,1.18-.52,2.37-.96,3.55-1.41,.44-.22,.93-.45,1.37-.59,1.44-.59,2.89-1.33,4.29-1.92l.48-.15c1.63-.74,3.22-1.55,4.85-2.29,.3-.15,.63-.3,.92-.45,1.26-.67,2.52-1.26,3.81-1.92,.41-.22,.85-.45,1.29-.67,1.15-.59,2.29-1.18,3.44-1.78,.44-.29,.85-.52,1.26-.74,1.26-.67,2.55-1.33,3.77-2.07,.26-.15,.52-.3,.81-.44,1.55-.89,3.11-1.85,4.62-2.81h.11c1.44-.89,2.89-1.78,4.29-2.66,.37-.3,.7-.44,1.07-.74,1.11-.74,2.26-1.48,3.37-2.22l1.15-.74c1.15-.81,2.29-1.63,3.4-2.37,.3-.22,.59-.44,.89-.67,2.88-2,5.73-4.14,8.51-6.29,.22-.3,.52-.44,.81-.66,1.07-.82,2.15-1.7,3.22-2.59,.37-.29,.74-.59,1.07-.89,1.03-.89,2.07-1.78,3.11-2.67,.3-.29,.63-.52,.93-.74,1.26-1.18,2.55-2.29,3.81-3.41l.04-.07c1.33-1.26,2.67-2.44,4-3.7,.15-.15,.26-.29,.41-.37,1.11-1.11,2.22-2.14,3.29-3.25,.3-.3,.59-.59,.93-.89,.92-1.04,1.89-1.92,2.81-2.96,.3-.3,.63-.59,.89-.89,1.04-1.04,2.07-2.22,3.11-3.33l.44-.52c2.37-2.59,4.7-5.25,6.96-7.99,.22-.3,.48-.59,.74-.89,.85-1.04,1.74-2.15,2.55-3.22,.3-.34,.56-.7,.85-1.04,.85-1.11,1.74-2.22,2.55-3.33,.22-.29,.44-.55,.63-.85,2.11-2.81,4.18-5.7,6.14-8.66,.19-.26,.37-.56,.59-.81,.78-1.18,1.52-2.37,2.29-3.55,.26-.37,.52-.74,.74-1.15,.74-1.15,1.44-2.26,2.15-3.44,.22-.37,.44-.7,.66-1.07,.85-1.41,1.67-2.81,2.52-4.25l.11-.22c.92-1.55,1.81-3.14,2.66-4.73,.11-.22,.26-.44,.37-.7,.7-1.29,1.41-2.59,2.07-3.92,.22-.41,.44-.81,.67-1.26,.55-1.15,1.15-2.33,1.7-3.52,.22-.44,.44-.85,.67-1.29,.63-1.33,1.26-2.63,1.85-3.96,.11-.26,.22-.52,.37-.81,.74-1.63,1.44-3.29,2.15-4.96l.15-.3c.63-1.52,1.26-3,1.85-4.51,.15-.48,.33-.93,.52-1.33,.44-1.26,.93-2.44,1.41-3.66,.15-.48,.33-1,.52-1.48,.44-1.26,.89-2.51,1.33-3.77,.11-.41,.26-.85,.44-1.29,.55-1.66,1.11-3.37,1.63-5.07h0c6.81-21.83,10.43-45.02,10.43-69.06,0-66.59-28-126.66-72.87-169.02v-.04c-1-.92-2-1.85-3.03-2.77l-.41-.41c-1.26-1.11-2.48-2.18-3.74-3.29l-.41-.37c-1.29-1.11-2.55-2.22-3.89-3.29l-.33-.26c-1.37-1.11-2.7-2.22-4.07-3.29l-.22-.19c-1.44-1.07-2.85-2.18-4.25-3.26l-.15-.11c-1.48-1.07-2.96-2.18-4.48-3.26l-.07-.07c-1.48-1.04-2.96-2.07-4.48-3.07l-.26-.15c-1.41-1-2.85-1.96-4.33-2.88l-.41-.26c-1.44-.92-2.85-1.81-4.29-2.66l-.52-.33c-1.41-.85-2.85-1.7-4.29-2.52l-.55-.33c-1.41-.81-2.85-1.63-4.29-2.4l-.59-.3c-1.44-.81-2.92-1.59-4.36-2.33l-.59-.3c-1.48-.74-2.92-1.48-4.44-2.18l-.59-.33c-1.52-.7-3.03-1.41-4.51-2.07l-.56-.26c-1.55-.7-3.07-1.37-4.66-2.04l-.48-.22c-1.55-.67-3.18-1.29-4.77-1.92l-.44-.19c-1.63-.67-3.33-1.29-4.99-1.89l-.22-.11c-1.74-.63-3.51-1.26-5.29-1.85h-.04c-1.78-.59-3.55-1.18-5.36-1.78l-.18-.04c-1.7-.52-3.48-1.07-5.25-1.55l-.3-.11c-1.7-.48-3.44-.93-5.18-1.37l-.44-.15c-1.7-.41-3.4-.81-5.07-1.22l-.59-.11c-1.66-.41-3.33-.78-4.99-1.11l-.67-.11c-1.66-.37-3.33-.66-5.03-1l-.66-.07c-1.66-.33-3.33-.59-5.03-.85l-.7-.11c-1.66-.26-3.36-.48-5.07-.7l-.7-.11c-1.7-.22-3.44-.41-5.14-.59l-.63-.04c-1.78-.19-3.52-.37-5.29-.48l-.52-.04c-1.85-.15-3.66-.26-5.48-.37h-.41c-1.85-.11-3.74-.19-5.66-.22h-.22c-1.96-.07-3.96-.07-5.96-.07s-3.96,0-5.92,.07h-.22c-1.89,.04-3.81,.11-5.66,.22h-.41c-1.81,.11-3.66,.22-5.44,.37l-.56,.04c-1.78,.11-3.55,.3-5.29,.48l-.63,.04c-1.7,.19-3.44,.37-5.18,.59l-.67,.11c-1.7,.22-3.4,.44-5.07,.7l-.7,.11c-1.7,.26-3.37,.52-5.03,.85l-.67,.07c-1.66,.33-3.37,.63-5.03,1l-.63,.11c-1.7,.33-3.37,.7-5.03,1.11l-.56,.11c-1.7,.41-3.4,.81-5.11,1.22l-.44,.15c-1.74,.44-3.48,.89-5.18,1.37l-.3,.11c-1.78,.48-3.51,1.04-5.25,1.55l-.18,.04c-1.81,.59-3.59,1.18-5.36,1.78h-.04c-1.78,.59-3.55,1.22-5.29,1.85l-.22,.11c-1.67,.59-3.37,1.22-4.99,1.89l-.44,.19c-1.59,.63-3.18,1.26-4.77,1.92l-.48,.22c-1.55,.67-3.11,1.33-4.66,2.04l-.52,.26c-1.55,.66-3.03,1.37-4.55,2.07l-.59,.33c-1.48,.7-2.96,1.44-4.44,2.18l-.56,.3c-1.52,.74-2.96,1.52-4.4,2.33l-.59,.3c-1.44,.78-2.85,1.59-4.29,2.4l-.56,.33c-1.44,.82-2.88,1.67-4.29,2.52l-.52,.33c-1.44,.85-2.85,1.74-4.25,2.66l-.44,.26c-1.44,.92-2.89,1.89-4.33,2.88l-.26,.15c-1.52,1-3,2.03-4.44,3.07l-.11,.07c-1.52,1.07-3,2.18-4.48,3.26l-.15,.11c-1.44,1.07-2.85,2.18-4.25,3.26l-.18,.19c-1.41,1.07-2.74,2.18-4.1,3.29l-.33,.26c-1.29,1.07-2.59,2.18-3.88,3.29l-.41,.37c-1.26,1.11-2.52,2.18-3.74,3.29l-.44,.41c-1,.93-2,1.85-3,2.77v.04c-44.87,42.36-72.88,102.43-72.88,169.02,0,24.05,3.63,47.24,10.43,69.06h0c.52,1.7,1.07,3.4,1.66,5.07,.11,.44,.26,.89,.41,1.29,.44,1.26,.89,2.51,1.33,3.77,.18,.48,.37,1,.55,1.48,.44,1.22,.92,2.4,1.41,3.66,.15,.41,.33,.85,.48,1.33,.63,1.52,1.22,3,1.85,4.51l.15,.3c.7,1.66,1.44,3.33,2.15,4.96,.15,.3,.26,.55,.37,.81,.59,1.33,1.22,2.63,1.85,3.96,.22,.44,.44,.85,.67,1.29,.55,1.18,1.11,2.37,1.74,3.52,.22,.44,.41,.85,.63,1.26,.66,1.33,1.37,2.63,2.07,3.92,.11,.26,.26,.48,.37,.7,.85,1.59,1.74,3.18,2.66,4.73l.11,.22c.81,1.44,1.66,2.85,2.51,4.25,.22,.37,.44,.7,.67,1.07,.7,1.18,1.41,2.29,2.11,3.44,.26,.41,.52,.78,.78,1.15,.78,1.18,1.55,2.37,2.33,3.55,.18,.26,.37,.56,.55,.81,2,2.96,4.03,5.84,6.14,8.66,.22,.29,.41,.55,.63,.85,.85,1.11,1.7,2.22,2.55,3.33,.3,.33,.55,.7,.81,1.04,.89,1.07,1.74,2.18,2.59,3.22,.26,.3,.48,.59,.74,.89,2.26,2.74,4.59,5.4,6.95,7.99,.15,.15,.3,.3,.44,.52,1.04,1.11,2.07,2.29,3.11,3.33,.3,.3,.59,.59,.85,.89,.96,1.04,1.89,1.92,2.85,2.96,.33,.3,.63,.59,.92,.89,1.07,1.11,2.18,2.15,3.29,3.25,.15,.08,.26,.22,.41,.37,1.33,1.26,2.66,2.44,4,3.7l.07,.07c1.22,1.11,2.48,2.22,3.77,3.41,.3,.22,.63,.44,.92,.74,1.04,.89,2.07,1.78,3.11,2.67,.33,.29,.7,.59,1.07,.89,1.07,.89,2.15,1.78,3.22,2.59,.29,.22,.55,.37,.85,.66,2.74,2.15,5.59,4.29,8.47,6.29,.26,.22,.59,.44,.89,.67,1.11,.74,2.26,1.55,3.4,2.37l1.15,.74c1.15,.74,2.26,1.48,3.4,2.22,.33,.3,.7,.44,1.04,.74,1.41,.89,2.85,1.78,4.29,2.66h.11c1.55,.96,3.11,1.92,4.62,2.81,.3,.15,.56,.29,.81,.44,1.22,.74,2.51,1.41,3.77,2.07,.41,.22,.85,.45,1.26,.74,1.15,.59,2.29,1.18,3.44,1.78,.44,.22,.89,.44,1.29,.67,1.29,.66,2.55,1.26,3.81,1.92,.29,.15,.59,.3,.92,.45,1.59,.74,3.22,1.55,4.85,2.29l.48,.15c1.41,.59,2.85,1.33,4.29,1.92,.44,.15,.93,.37,1.37,.59,1.18,.44,2.37,.89,3.55,1.41,.52,.22,1.04,.37,1.52,.66,1.22,.44,2.44,.89,3.66,1.33,.41,.15,.85,.29,1.33,.44,3.29,1.18,6.66,2.37,10.03,3.4,.44,.15,.92,.3,1.37,.45,1.22,.37,2.48,.74,3.7,1.11,.56,.15,1.11,.37,1.7,.52,1.18,.29,2.41,.59,3.59,.89,.55,.15,1.07,.3,1.59,.45,1.44,.37,2.88,.74,4.33,1.03,.3,.15,.55,.15,.89,.29,1.7,.3,3.44,.74,5.22,1.04,.41,.15,.85,.22,1.33,.29,1.29,.3,2.59,.52,3.88,.74,.63,.15,1.22,.29,1.85,.29,1.15,.3,2.37,.45,3.55,.59,.63,.15,1.26,.22,1.85,.3,1.29,.22,2.59,.44,3.88,.59,.52,.07,1,.15,1.48,.15,1.78,.29,3.55,.44,5.36,.67,.33,0,.7,.07,1.04,.07,1.48,.15,2.92,.3,4.37,.37,.63,.08,1.22,.08,1.81,.15,1.26,.07,2.48,.22,3.74,.22,.63,.08,1.26,.15,1.89,.15,1.29,0,2.55,.07,3.85,.15h1.74c1.81,.07,3.66,.07,5.47,.07s3.7,0,5.51-.07h0ZM67.33,484.78c.19-.33,.33-.7,.52-1.04,1.33-2.77,2.7-5.47,4.14-8.14,.18-.33,.41-.74,.59-1.07,.59-1.03,1.15-2.07,1.74-3.11,.19-.33,.37-.63,.56-.96,.74-1.33,1.52-2.59,2.29-3.89,.15-.22,.26-.44,.41-.66,.67-1.04,1.29-2.15,1.96-3.18,.26-.37,.52-.74,.74-1.11,.67-1.04,1.33-2.07,2.03-3.07,.15-.26,.33-.52,.48-.78,.85-1.22,1.66-2.4,2.52-3.63,.22-.29,.48-.63,.7-.96,.67-.93,1.33-1.85,2-2.77,.3-.37,.56-.7,.81-1.07,.89-1.18,1.81-2.33,2.7-3.48l.22-.3c.85-1.11,1.7-2.14,2.55-3.18,.3-.37,.63-.78,.96-1.15,.7-.81,1.37-1.63,2.07-2.44,.3-.37,.59-.7,.89-1.04,.93-1.07,1.89-2.14,2.85-3.22,.26-.3,.56-.59,.81-.89,.74-.81,1.48-1.63,2.22-2.41,.37-.37,.74-.74,1.11-1.15,.78-.78,1.55-1.59,2.33-2.41,.3-.26,.56-.52,.81-.78,1-1.04,2-2,3.03-3,.37-.33,.74-.7,1.11-1,.7-.7,1.44-1.41,2.22-2.11,.37-.37,.78-.7,1.15-1.07,1.07-.93,2.11-1.89,3.18-2.81,.22-.19,.44-.37,.67-.56,.93-.78,1.85-1.55,2.74-2.33,.44-.33,.85-.67,1.22-1,.81-.67,1.59-1.29,2.44-1.96,.33-.3,.74-.59,1.11-.89,1.11-.85,2.22-1.7,3.37-2.59,.37-.26,.74-.56,1.15-.81,.81-.63,1.63-1.22,2.48-1.81,.44-.33,.92-.63,1.37-.96,.93-.67,1.85-1.33,2.77-1.96,.3-.18,.59-.37,.85-.59,1.18-.78,2.4-1.59,3.59-2.37,.44-.26,.89-.52,1.29-.81,.85-.52,1.74-1.07,2.59-1.63,.48-.26,.89-.52,1.33-.78,1.22-.78,2.44-1.48,3.7-2.18,.3-.19,.56-.33,.81-.48,1.04-.59,2.03-1.15,3.11-1.74,.48-.26,.93-.52,1.41-.78,.96-.48,1.89-1,2.85-1.48,.37-.19,.78-.41,1.18-.59,1.26-.67,2.55-1.29,3.85-1.96,.41-.18,.81-.37,1.22-.55,.96-.48,1.96-.93,2.96-1.41,.44-.19,.92-.37,1.37-.59,1.15-.52,2.33-1.04,3.48-1.52,.22-.11,.44-.22,.7-.3,1.33-.59,2.7-1.15,4.07-1.66,.44-.19,.93-.37,1.37-.55,1-.37,2.04-.78,3.03-1.15,.44-.15,.89-.33,1.37-.52,1.37-.48,2.74-.96,4.14-1.44,.3-.11,.59-.22,.92-.3,1.15-.41,2.29-.78,3.48-1.15,.44-.15,.93-.29,1.41-.44,1.15-.33,2.22-.67,3.33-1,.41-.11,.74-.22,1.15-.33,1.41-.41,2.85-.78,4.33-1.15,.37-.11,.78-.22,1.18-.3,1.15-.3,2.26-.59,3.4-.85,.44-.11,.93-.22,1.37-.3,1.37-.33,2.77-.63,4.14-.92,.11,0,.26-.07,.41-.07,1.52-.3,3.03-.59,4.51-.85,.44-.11,.92-.19,1.37-.26,1.18-.19,2.33-.41,3.48-.56,.44-.07,.85-.15,1.29-.22,1.52-.22,3.03-.44,4.59-.67,.3,0,.59-.04,.85-.07,1.3-.19,2.59-.33,3.89-.44,.44-.04,.92-.07,1.37-.15,1.33-.15,2.63-.26,3.92-.33,.29-.04,.59-.07,.89-.07,1.55-.15,3.15-.22,4.7-.3,.44-.04,.85-.07,1.26-.07,1.22-.04,2.48-.11,3.7-.15,.44,0,.89-.04,1.37-.04,1.59-.04,3.22-.07,4.81-.07s3.25,.04,4.85,.07c.48,0,.93,.04,1.37,.04,1.22,.04,2.48,.11,3.7,.15,.41,0,.81,.04,1.26,.07,1.55,.07,3.11,.15,4.7,.3,.3,0,.59,.04,.89,.07,1.33,.07,2.59,.19,3.92,.33,.44,.07,.89,.11,1.37,.15,1.3,.11,2.59,.26,3.89,.44,.3,.04,.59,.07,.85,.07,1.55,.22,3.07,.44,4.59,.67,.44,.07,.85,.15,1.29,.22,1.15,.15,2.29,.37,3.48,.56,.44,.07,.93,.15,1.37,.26,1.48,.26,3,.55,4.51,.85l.41,.07c1.41,.3,2.77,.59,4.11,.92,.48,.07,.92,.19,1.41,.3,1.15,.26,2.29,.56,3.4,.85,.41,.07,.78,.19,1.18,.3,1.48,.37,2.92,.74,4.36,1.15,.33,.11,.7,.22,1.07,.33,1.11,.33,2.22,.67,3.37,1,.48,.15,.96,.3,1.44,.44,1.15,.37,2.29,.74,3.48,1.15,.3,.07,.59,.19,.89,.3,1.41,.48,2.77,.96,4.18,1.44,.44,.19,.89,.37,1.33,.52,1.04,.37,2.03,.78,3.03,1.15,.44,.18,.93,.37,1.37,.55,1.37,.52,2.74,1.07,4.11,1.66,.22,.07,.44,.19,.7,.3,1.15,.48,2.29,1,3.44,1.52,.44,.22,.92,.41,1.37,.59,1,.48,2,.92,2.96,1.41,.41,.19,.81,.37,1.22,.55,1.29,.67,2.59,1.29,3.88,1.96,.37,.19,.78,.41,1.15,.59,.96,.48,1.89,1,2.85,1.48,.48,.26,.96,.52,1.41,.78,1.07,.59,2.11,1.15,3.11,1.74,.3,.15,.52,.3,.78,.48,1.29,.7,2.51,1.41,3.73,2.18,.44,.26,.89,.52,1.33,.78,.85,.55,1.74,1.11,2.59,1.63,.44,.3,.85,.56,1.29,.81,1.18,.78,2.41,1.59,3.59,2.37,.26,.22,.55,.41,.85,.59,.93,.63,1.89,1.3,2.77,1.96,.48,.33,.93,.63,1.37,.96,.85,.59,1.66,1.18,2.52,1.81,.37,.26,.74,.56,1.11,.81,1.15,.89,2.26,1.74,3.37,2.59,.37,.3,.78,.59,1.11,.89,.85,.67,1.63,1.29,2.44,1.96,.41,.33,.81,.67,1.22,1,.93,.78,1.85,1.55,2.74,2.33,.22,.19,.44,.37,.67,.56,1.07,.93,2.11,1.89,3.18,2.81,.37,.37,.78,.7,1.15,1.07,.78,.7,1.52,1.41,2.26,2.11,.37,.3,.7,.67,1.07,1,1.04,1,2.03,1.96,3.07,3,.26,.26,.52,.52,.78,.78,.78,.81,1.55,1.63,2.33,2.41,.37,.41,.74,.78,1.11,1.15,.74,.78,1.48,1.59,2.22,2.41,.26,.3,.56,.59,.85,.89,.92,1.07,1.89,2.14,2.81,3.22,.3,.33,.59,.67,.93,1.04,.67,.81,1.37,1.63,2.03,2.44,.33,.37,.63,.78,.96,1.15,.85,1.04,1.7,2.07,2.55,3.18l.22,.3c.92,1.15,1.81,2.29,2.7,3.48,.26,.37,.52,.7,.78,1.07,.7,.92,1.37,1.85,2.04,2.77,.22,.33,.48,.67,.67,.96,.89,1.22,1.7,2.41,2.55,3.63,.19,.26,.33,.52,.48,.78,.7,1,1.37,2.04,2.04,3.07,.22,.37,.48,.74,.74,1.11,.66,1.03,1.33,2.14,1.96,3.18,.15,.22,.3,.44,.41,.66,.81,1.3,1.55,2.55,2.29,3.89,.19,.33,.37,.63,.56,.96,.59,1.04,1.18,2.07,1.74,3.11,.22,.33,.41,.74,.59,1.07,1.44,2.66,2.85,5.36,4.14,8.14,.19,.33,.33,.7,.52,1.04,13.02,27.23,20.31,57.71,20.31,89.89,0,23.27-3.81,45.65-10.88,66.59-.15,.37-.26,.78-.41,1.22-.37,1.07-.78,2.14-1.15,3.22-.19,.48-.33,.96-.52,1.44-.41,1.07-.81,2.11-1.22,3.14-.15,.44-.33,.89-.48,1.29-.56,1.41-1.15,2.81-1.7,4.22l-.07,.11h0c-.59,1.44-1.22,2.85-1.85,4.25-.22,.44-.41,.89-.63,1.29-.41,1-.89,1.96-1.33,2.96-.26,.48-.52,1-.74,1.52-.44,.93-.92,1.85-1.41,2.78-.22,.48-.44,.92-.7,1.41-.63,1.22-1.29,2.48-1.96,3.7l-.26,.48c-.67,1.29-1.41,2.55-2.15,3.85-.26,.48-.52,.92-.81,1.41-.48,.85-1,1.7-1.55,2.59-.26,.52-.56,1-.85,1.48-.55,.85-1.11,1.74-1.63,2.55-.3,.48-.59,.93-.89,1.41-.7,1.11-1.44,2.18-2.15,3.29l-.59,.85c-.74,1.11-1.52,2.26-2.33,3.37-.33,.44-.63,.89-.96,1.33-.59,.81-1.15,1.59-1.74,2.41-.37,.48-.74,.96-1.11,1.44-.56,.78-1.15,1.52-1.74,2.29-.37,.48-.7,.92-1.07,1.37-.74,.96-1.52,1.89-2.26,2.85-.37,.41-.7,.81-1.07,1.26-.78,.93-1.55,1.85-2.37,2.81-.41,.44-.81,.92-1.22,1.37-.59,.7-1.18,1.37-1.81,2.07-.41,.44-.85,.92-1.29,1.41-.63,.7-1.26,1.37-1.89,2.07-.41,.41-.85,.85-1.26,1.29-.81,.89-1.67,1.7-2.48,2.55-.41,.41-.81,.81-1.18,1.18-.89,.89-1.74,1.7-2.63,2.55-.44,.45-.92,.89-1.37,1.29-.66,.59-1.33,1.18-1.96,1.85-.52,.44-1,.89-1.48,1.33-.66,.59-1.37,1.26-2.03,1.85-.48,.37-.93,.74-1.41,1.18-.89,.74-1.78,1.48-2.7,2.29-.44,.37-.89,.67-1.33,1.11-.96,.74-1.89,1.48-2.81,2.22-.52,.45-1,.82-1.48,1.18-.74,.59-1.44,1.11-2.18,1.63-.52,.44-1.04,.81-1.55,1.18-.74,.59-1.48,1.11-2.22,1.63-.52,.37-1,.74-1.52,1.03-.96,.74-1.96,1.41-2.92,2.07-.48,.29-.96,.67-1.41,.96-1.03,.67-2.03,1.33-3.07,2-.52,.37-1.04,.74-1.55,1.03-.78,.44-1.55,.96-2.37,1.48-.55,.3-1.07,.59-1.63,.96-.81,.52-1.63,.96-2.44,1.41-.52,.3-1.03,.59-1.55,.89-1.07,.67-2.18,1.26-3.26,1.92-.41,.15-.85,.44-1.26,.59-1.15,.59-2.26,1.26-3.44,1.85-.52,.22-1.03,.52-1.55,.81-.85,.44-1.7,.89-2.59,1.26-.56,.22-1.11,.52-1.66,.82-.89,.44-1.81,.89-2.7,1.26-.48,.22-1,.52-1.52,.66-1.22,.59-2.51,1.18-3.74,1.63l-.81,.37c-1.29,.52-2.59,1.11-3.88,1.55-.52,.3-1.04,.45-1.55,.59-.92,.45-1.89,.82-2.85,1.18-.55,.15-1.11,.37-1.7,.59-.93,.3-1.92,.67-2.85,1.04-.52,.15-1.04,.29-1.59,.44-1.29,.52-2.63,.89-3.96,1.33l-.78,.29c-1.37,.37-2.74,.74-4.11,1.18-.52,.15-1.07,.3-1.59,.44-1,.3-2,.59-3.03,.81-.56,.15-1.11,.22-1.66,.45-1.04,.22-2.07,.52-3.14,.74-.48,.08-1,.22-1.52,.37-1.48,.3-2.92,.67-4.44,.96l-.15,.08h-.15c-1.52,.29-3,.59-4.51,.89-.52,.07-1.03,.15-1.55,.22-1.07,.22-2.15,.37-3.22,.52-.56,.15-1.15,.15-1.7,.29-1.11,.15-2.18,.3-3.29,.45-.52,.07-1,.15-1.52,.22-1.59,.22-3.18,.37-4.81,.52h0c-1.59,.15-3.22,.3-4.81,.45-.52,0-1.04,.07-1.52,.15-1.15,0-2.26,.15-3.4,.15-.56,.08-1.15,.08-1.74,.15-1.15,0-2.26,.07-3.37,.07-.52,.08-1.04,.08-1.55,.08h-9.88c-.52,0-1,0-1.55-.08-1.11,0-2.22-.07-3.37-.07-.59-.07-1.15-.07-1.74-.15-1.15,0-2.26-.15-3.4-.15-.48-.07-1-.15-1.52-.15-1.63-.15-3.22-.3-4.81-.45h0L67.33,484.78h0Zm171.9,297.94c-1.63-.15-3.22-.3-4.81-.45l4.81,.45h0Zm-9.62-.96c-.52-.08-1-.15-1.52-.22-1.07-.15-2.18-.3-3.29-.45-.56-.15-1.11-.15-1.7-.29-1.07-.15-2.15-.3-3.22-.52-.52-.07-1.04-.15-1.52-.22-1.55-.29-3.03-.59-4.55-.89h-.15l-.15-.08c-1.52-.29-3-.67-4.44-.96-.52-.15-1-.29-1.52-.37-1.04-.22-2.11-.52-3.14-.74-.56-.22-1.11-.3-1.66-.45-1.04-.22-2.04-.52-3.03-.81-.52-.15-1.07-.29-1.59-.44-1.37-.44-2.74-.81-4.1-1.18l-.74-.29c-1.33-.45-2.7-.82-3.99-1.33-.56-.15-1.04-.3-1.59-.44-.92-.37-1.92-.74-2.88-1.04-.56-.22-1.11-.44-1.66-.59-.92-.37-1.92-.74-2.85-1.18-.52-.15-1.04-.29-1.52-.59-1.33-.44-2.63-1.04-3.88-1.55l-.81-.37c-1.29-.45-2.51-1.04-3.77-1.63-.52-.15-1-.44-1.52-.66-.92-.37-1.78-.81-2.66-1.26-.59-.3-1.15-.59-1.7-.82-.89-.37-1.74-.81-2.59-1.26-.52-.29-1.04-.59-1.55-.81-1.15-.59-2.29-1.26-3.44-1.85-.41-.15-.85-.45-1.26-.59-1.07-.67-2.18-1.26-3.26-1.92-.52-.3-1.04-.59-1.55-.89-.81-.44-1.63-.89-2.44-1.41-.52-.37-1.07-.66-1.63-.96-.81-.52-1.59-1.04-2.37-1.48-.52-.3-1.04-.67-1.55-1.03-1.04-.67-2.07-1.33-3.07-2-.44-.29-.92-.66-1.37-.96-1-.67-2-1.33-2.96-2.07-.52-.29-1-.66-1.52-1.03-.7-.52-1.48-1.04-2.18-1.63-.56-.37-1.07-.74-1.59-1.18-.74-.52-1.44-1.04-2.18-1.63-.48-.37-.96-.74-1.48-1.18-.93-.74-1.89-1.48-2.81-2.22-.44-.44-.89-.74-1.33-1.11-.93-.81-1.81-1.55-2.7-2.29-.44-.44-.92-.81-1.37-1.18-.7-.59-1.41-1.26-2.07-1.85-.48-.45-.96-.89-1.48-1.33-.66-.67-1.29-1.26-1.92-1.85-.48-.4-.93-.85-1.41-1.29-.89-.85-1.74-1.67-2.59-2.55-.41-.37-.81-.78-1.18-1.18-.85-.85-1.7-1.66-2.51-2.55-.41-.44-.81-.89-1.26-1.29-.63-.7-1.26-1.37-1.89-2.07-.44-.48-.85-.96-1.29-1.41-.63-.7-1.22-1.37-1.81-2.07-.41-.44-.81-.92-1.22-1.37-.81-.96-1.59-1.89-2.37-2.81-.37-.44-.7-.85-1.07-1.26-.78-.96-1.52-1.89-2.26-2.85-.37-.44-.7-.89-1.07-1.37-.59-.78-1.15-1.52-1.74-2.29-.37-.48-.74-.96-1.11-1.44-.59-.82-1.15-1.59-1.74-2.41-.33-.44-.63-.89-.96-1.33-.81-1.11-1.55-2.26-2.33-3.37l-.55-.85c-.74-1.11-1.48-2.18-2.18-3.29-.3-.48-.59-.93-.89-1.41-.52-.81-1.07-1.7-1.59-2.55-.29-.48-.63-.96-.92-1.48-.52-.89-1.03-1.74-1.52-2.59-.3-.48-.56-.92-.85-1.41-.7-1.29-1.41-2.55-2.15-3.85l-.22-.48c-.66-1.22-1.33-2.48-2-3.7-.22-.48-.44-.93-.67-1.41-.48-.93-.96-1.89-1.41-2.78-.26-.52-.48-1.03-.7-1.52-.48-1-.93-1.96-1.41-2.96-.18-.41-.37-.85-.59-1.29-.63-1.41-1.22-2.81-1.85-4.25h0l-.07-.11c-.56-1.41-1.15-2.81-1.7-4.22-.15-.41-.33-.85-.48-1.29-.41-1.04-.81-2.07-1.22-3.14-.18-.48-.33-.96-.52-1.44-.37-1.07-.78-2.15-1.15-3.22-.15-.44-.3-.85-.41-1.22-7.07-20.94-10.84-43.32-10.84-66.59,0-32.18,7.29-62.66,20.27-89.89l162.29,296.98h0Zm-164.32-121.59c-.63-1.41-1.22-2.81-1.85-4.25l1.85,4.25Z" style="fill:#b0c2e4; fill-rule:evenodd;"/><path d="M47.05,574.68c0,115.27,93.44,208.64,208.67,208.64s208.75-93.37,208.75-208.64-93.44-208.75-208.75-208.75S47.05,459.37,47.05,574.68Z" style="fill:#fff; fill-rule:evenodd;"/><path d="M255.87,413.09h.41c3.03,0,5.44-2.44,5.44-5.4v-27.19c0-3-2.41-5.44-5.44-5.44h-.41c-2.96,0-5.4,2.44-5.4,5.44v27.19c0,2.96,2.44,5.4,5.4,5.4Z" style="fill:#9db2d9; fill-rule:evenodd;"/><path d="M417.31,574.79v.44c0,3,2.44,5.4,5.44,5.4h27.15c3,0,5.44-2.41,5.44-5.4v-.44c0-2.96-2.44-5.4-5.44-5.4h-27.15c-3,0-5.44,2.44-5.44,5.4h0Zm-361.16-.66v.41c0,3,2.44,5.4,5.44,5.4h27.19c2.96,0,5.4-2.41,5.4-5.4v-.41c0-3.03-2.44-5.44-5.4-5.44h-27.19c-3,0-5.44,2.4-5.44,5.44Z" style="fill:#9db2d9; fill-rule:evenodd;"/><path d="M370.11,460.52l.3,.3c2.11,2.11,5.51,2.11,7.66,0l19.2-19.2c2.15-2.15,2.15-5.59,0-7.66l-.3-.33c-2.11-2.11-5.55-2.11-7.66,0l-19.2,19.24c-2.14,2.11-2.14,5.55,0,7.66h0Zm-255.87,254.88l.3,.26c2.11,2.15,5.55,2.15,7.69,0l19.16-19.2c2.15-2.11,2.15-5.55,0-7.66l-.3-.3c-2.07-2.11-5.51-2.11-7.66,0l-19.2,19.24c-2.11,2.11-2.11,5.55,0,7.66Z" style="fill:#9db2d9; fill-rule:evenodd;"/><path d="M141.38,460.52l-.3,.3c-2.07,2.11-5.51,2.11-7.66,0l-19.2-19.2c-2.11-2.15-2.11-5.59,0-7.66l.3-.33c2.11-2.11,5.55-2.11,7.66,0l19.2,19.24c2.15,2.11,2.15,5.55,0,7.66h0Zm255.88,254.88l-.3,.26c-2.11,2.15-5.55,2.15-7.66,0l-19.2-19.2c-2.14-2.11-2.14-5.55,0-7.66l.3-.3c2.11-2.11,5.51-2.11,7.66,0l19.2,19.24c2.15,2.11,2.15,5.55,0,7.66Z" style="fill:#9db2d9; fill-rule:evenodd;"/><path d="M255.17,774.29h.44c3,0,5.4-2.52,5.4-5.48v-27.23c0-2.96-2.41-5.33-5.4-5.33h-.44c-2.96,0-5.4,2.37-5.4,5.33v27.23c0,2.96,2.44,5.48,5.4,5.48Z" style="fill:#9db2d9; fill-rule:evenodd;"/><path d="M257.5,577.75l.44-.18c3.07-1.22,4.59-4.7,3.37-7.77l-48.39-121.82c-1.22-3.07-4.7-4.55-7.8-3.33l-.41,.15c-3.07,1.22-4.59,4.7-3.37,7.77l48.39,121.82c1.22,3.07,4.73,4.55,7.77,3.37Z" style="fill:#b0c2e4; fill-rule:evenodd;"/><path d="M260.35,577.71l-.37-.26c-2.63-2-6.4-1.48-8.4,1.11l-54.93,72.1c-2.03,2.63-1.52,6.36,1.11,8.4l.37,.26c2.63,2,6.4,1.48,8.4-1.15l54.93-72.06c2.04-2.63,1.52-6.36-1.11-8.4Z" style="fill:#b0c2e4; fill-rule:evenodd;"/><path d="M362.64,505.46l-104.1,70.06c-.74,.52-1.78,.33-2.26-.44-.52-.74-.33-1.74,.41-2.26l104.13-70.1c.74-.48,1.74-.3,2.25,.44,.52,.78,.33,1.78-.44,2.29Z" style="fill:#859ac6; fill-rule:evenodd;"/><path d="M93.66,576.78c.74-.07,1.37-.11,1.89-.15,.44-.04,.81-.44,.74-.89,0-.07,0-.11-.04-.19-.22,.15-.48,.22-.78,.22-.41,.07-.92,.11-1.48,.15-.07,.3-.19,.59-.33,.85Z" style="fill:#f6fbfd; fill-rule:evenodd;"/><path d="M96.11,562.39s.04-.11,.04-.19c0-.44-.37-.85-.81-.85-4.7-.19-17.65-.78-30.11-1.41l-.15,.81c12.5,.63,25.49,1.22,30.26,1.41,.26,0,.52,.07,.78,.22Z" style="fill:#f6fbfd; fill-rule:evenodd;"/><path d="M1559.82,574.68c0,141.24,114.53,255.69,255.84,255.69s255.69-114.45,255.69-255.69-114.53-255.77-255.69-255.77-255.84,114.53-255.84,255.77Z" style="fill:#859ac6; fill-rule:evenodd;"/><path d="M1821.13,806.99h1.78c1.18-.08,2.51-.15,3.77-.15,.67-.07,1.26-.07,1.92-.15,1.26,0,2.44-.15,3.7-.22,.59-.07,1.26-.07,1.85-.15,1.48-.07,2.88-.22,4.29-.37,.45,0,.74-.07,1.11-.07,1.85-.22,3.62-.37,5.33-.67,.52,0,.96-.08,1.48-.15,1.26-.15,2.59-.37,3.92-.59,.59-.07,1.18-.15,1.78-.3,1.18-.15,2.44-.29,3.63-.59,.66,0,1.26-.15,1.85-.29,1.33-.22,2.52-.44,3.85-.74,.44-.07,.89-.15,1.33-.29,1.78-.3,3.55-.74,5.25-1.04,.3-.15,.59-.15,.89-.29,1.41-.3,2.89-.67,4.29-1.03,.52-.15,1.11-.3,1.55-.45,1.26-.29,2.52-.59,3.7-.89,.52-.15,1.04-.37,1.63-.52,1.26-.37,2.52-.74,3.7-1.11,.44-.15,.89-.3,1.41-.45,3.33-1.04,6.73-2.22,9.99-3.4,.44-.15,.89-.29,1.33-.44,1.26-.44,2.44-.89,3.7-1.33,.44-.29,1.04-.44,1.48-.66,1.18-.52,2.37-.96,3.55-1.41,.44-.22,.89-.45,1.41-.59,1.41-.59,2.88-1.33,4.29-1.92l.44-.15c1.7-.74,3.25-1.55,4.81-2.29,.37-.15,.67-.3,.96-.45,1.26-.67,2.59-1.26,3.77-1.92,.44-.22,.89-.45,1.33-.67,1.18-.59,2.29-1.18,3.48-1.78,.37-.29,.82-.52,1.26-.74,1.26-.67,2.52-1.33,3.77-2.07,.22-.15,.52-.3,.81-.44,1.48-.89,3.11-1.85,4.59-2.81h.15c1.41-.89,2.81-1.78,4.29-2.66,.29-.3,.74-.44,1.04-.74,1.18-.74,2.22-1.48,3.4-2.22l1.11-.74c1.18-.81,2.29-1.63,3.48-2.37,.29-.22,.59-.44,.89-.67,2.81-2,5.62-4.14,8.43-6.29,.29-.3,.52-.44,.81-.66,1.11-.82,2.15-1.7,3.26-2.59,.37-.29,.67-.59,1.04-.89,1.11-.89,2.15-1.78,3.11-2.67,.3-.29,.67-.52,.96-.74,1.26-1.18,2.52-2.29,3.77-3.41l.08-.07c1.33-1.26,2.66-2.44,3.99-3.7,.15-.15,.3-.29,.44-.37,1.04-1.11,2.15-2.14,3.26-3.25,.29-.3,.59-.59,.89-.89,.96-1.04,1.92-1.92,2.81-2.96,.29-.3,.59-.59,.89-.89,1.03-1.04,2.07-2.22,3.11-3.33l.44-.52c2.37-2.59,4.73-5.25,6.95-7.99,.3-.3,.45-.59,.74-.89,.89-1.04,1.78-2.15,2.59-3.22,.3-.34,.52-.7,.81-1.04,.89-1.11,1.78-2.22,2.52-3.33,.3-.29,.44-.55,.74-.85,2.07-2.81,4.14-5.7,6.07-8.66,.14-.26,.37-.56,.59-.81,.74-1.18,1.55-2.37,2.29-3.55,.22-.37,.52-.74,.81-1.15,.67-1.15,1.41-2.26,2.07-3.44,.29-.37,.44-.7,.66-1.07,.81-1.41,1.7-2.81,2.52-4.25l.15-.22c.89-1.55,1.78-3.14,2.59-4.73,.15-.22,.29-.44,.44-.7,.74-1.29,1.33-2.59,2.07-3.92,.14-.41,.44-.81,.59-1.26,.59-1.15,1.18-2.33,1.78-3.52,.15-.44,.44-.85,.59-1.29,.66-1.33,1.33-2.63,1.92-3.96,.15-.26,.15-.52,.3-.81,.74-1.63,1.48-3.29,2.22-4.96l.15-.3c.59-1.52,1.18-3,1.78-4.51,.22-.48,.37-.93,.59-1.33,.44-1.26,.89-2.44,1.33-3.66,.15-.48,.44-1,.59-1.48,.44-1.26,.89-2.51,1.33-3.77,.15-.41,.3-.85,.45-1.29,.52-1.66,1.11-3.37,1.63-5.07h0c6.81-21.83,10.43-45.02,10.43-69.06,0-66.59-28.04-126.66-72.88-169.02v-.04c-1.04-.92-2.07-1.85-3.03-2.77l-.44-.41c-1.26-1.11-2.44-2.18-3.77-3.29l-.37-.37c-1.26-1.11-2.59-2.22-3.92-3.29l-.3-.26c-1.33-1.11-2.66-2.22-4.07-3.29l-.22-.19c-1.41-1.07-2.81-2.18-4.29-3.26l-.15-.11c-1.48-1.07-2.96-2.18-4.44-3.26l-.08-.07c-1.48-1.04-2.96-2.07-4.44-3.07l-.22-.15c-1.48-1-2.96-1.96-4.44-2.88l-.37-.26c-1.41-.92-2.88-1.81-4.29-2.66l-.52-.33c-1.41-.85-2.81-1.7-4.29-2.52l-.52-.33c-1.41-.81-2.89-1.63-4.37-2.4l-.59-.3c-1.33-.81-2.81-1.59-4.29-2.33l-.59-.3c-1.48-.74-2.96-1.48-4.44-2.18l-.59-.33c-1.48-.7-3.03-1.41-4.59-2.07l-.52-.26c-1.55-.7-3.03-1.37-4.66-2.04l-.45-.22c-1.63-.67-3.18-1.29-4.81-1.92l-.37-.19c-1.7-.67-3.4-1.29-5.03-1.89l-.3-.11c-1.7-.63-3.48-1.26-5.18-1.85h-.15c-1.7-.59-3.55-1.18-5.33-1.78l-.15-.04c-1.78-.52-3.55-1.07-5.33-1.55l-.29-.11c-1.63-.48-3.4-.93-5.11-1.37l-.52-.15c-1.63-.41-3.33-.81-5.03-1.22l-.59-.11c-1.63-.41-3.33-.78-5.03-1.11l-.59-.11c-1.7-.37-3.4-.66-5.03-1l-.66-.07c-1.7-.33-3.33-.59-5.11-.85l-.67-.11c-1.7-.26-3.33-.48-5.11-.7l-.59-.11c-1.78-.22-3.48-.41-5.18-.59l-.59-.04c-1.78-.19-3.55-.37-5.33-.48l-.59-.04c-1.78-.15-3.55-.26-5.48-.37h-.29c-1.92-.11-3.85-.19-5.7-.22h-.22c-2-.07-3.99-.07-5.92-.07-2.07,0-3.99,0-5.92,.07h-.3c-1.92,.04-3.77,.11-5.62,.22h-.44c-1.78,.11-3.63,.22-5.48,.37l-.52,.04c-1.7,.11-3.47,.3-5.25,.48l-.59,.04c-1.78,.19-3.48,.37-5.18,.59l-.74,.11c-1.63,.22-3.41,.44-5.03,.7l-.74,.11c-1.63,.26-3.4,.52-5.03,.85l-.67,.07c-1.7,.33-3.33,.63-5.03,1l-.66,.11c-1.63,.33-3.33,.7-4.96,1.11l-.59,.11c-1.7,.41-3.41,.81-5.11,1.22l-.45,.15c-1.7,.44-3.4,.89-5.18,1.37l-.29,.11c-1.78,.48-3.55,1.04-5.25,1.55l-.22,.04c-1.78,.59-3.55,1.18-5.33,1.78h0c-1.78,.59-3.55,1.22-5.33,1.85l-.22,.11c-1.7,.59-3.33,1.22-4.96,1.89l-.45,.19c-1.63,.63-3.25,1.26-4.81,1.92l-.52,.22c-1.48,.67-3.1,1.33-4.59,2.04l-.59,.26c-1.48,.66-2.96,1.37-4.51,2.07l-.59,.33c-1.48,.7-2.96,1.44-4.44,2.18l-.52,.3c-1.48,.74-2.96,1.52-4.44,2.33l-.59,.3c-1.41,.78-2.81,1.59-4.29,2.4l-.59,.33c-1.41,.82-2.81,1.67-4.29,2.52l-.44,.33c-1.48,.85-2.89,1.74-4.29,2.66l-.44,.26c-1.48,.92-2.89,1.89-4.29,2.88l-.29,.15c-1.48,1-2.96,2.03-4.44,3.07l-.15,.07c-1.48,1.07-2.96,2.18-4.44,3.26l-.15,.11c-1.4,1.07-2.81,2.18-4.21,3.26l-.22,.19c-1.33,1.07-2.74,2.18-4.07,3.29l-.37,.26c-1.33,1.07-2.59,2.18-3.85,3.29l-.45,.37c-1.18,1.11-2.51,2.18-3.7,3.29l-.45,.41c-1.04,.93-2.07,1.85-3.03,2.77v.04c-44.91,42.36-72.87,102.43-72.87,169.02,0,24.05,3.7,47.24,10.43,69.06h0c.52,1.7,1.11,3.4,1.7,5.07,.15,.44,.3,.89,.44,1.29,.45,1.26,.81,2.51,1.26,3.77,.22,.48,.37,1,.52,1.48,.52,1.22,.96,2.4,1.48,3.66,.15,.41,.29,.85,.44,1.33,.59,1.52,1.26,3,1.92,4.51l.07,.3c.67,1.66,1.41,3.33,2.15,4.96,.15,.3,.3,.55,.44,.81,.59,1.33,1.18,2.63,1.78,3.96,.22,.44,.45,.85,.67,1.29,.59,1.18,1.11,2.37,1.7,3.52,.3,.44,.45,.85,.67,1.26,.67,1.33,1.41,2.63,2.07,3.92,.08,.26,.22,.48,.37,.7,.89,1.59,1.78,3.18,2.66,4.73l.15,.22c.82,1.44,1.63,2.85,2.52,4.25,.22,.37,.44,.7,.59,1.07,.74,1.18,1.48,2.29,2.22,3.44,.22,.41,.45,.78,.74,1.15,.74,1.18,1.48,2.37,2.29,3.55,.22,.26,.37,.56,.52,.81,2.07,2.96,4.14,5.84,6.22,8.66,.15,.29,.44,.55,.59,.85,.89,1.11,1.7,2.22,2.52,3.33,.29,.33,.59,.7,.89,1.04,.89,1.07,1.7,2.18,2.59,3.22,.22,.3,.52,.59,.67,.89,2.29,2.74,4.59,5.4,7.03,7.99,.08,.15,.3,.3,.44,.52,.96,1.11,2,2.29,3.04,3.33,.29,.3,.59,.59,.89,.89,.96,1.04,1.92,1.92,2.89,2.96,.29,.3,.59,.59,.89,.89,1.11,1.11,2.14,2.15,3.33,3.25,.15,.08,.22,.22,.37,.37,1.33,1.26,2.67,2.44,4,3.7l.08,.07c1.26,1.11,2.52,2.22,3.77,3.41,.37,.22,.66,.44,.96,.74,1.04,.89,2.07,1.78,3.11,2.67,.29,.29,.66,.59,1.04,.89,1.04,.89,2.22,1.78,3.25,2.59,.3,.22,.59,.37,.81,.66,2.74,2.15,5.55,4.29,8.51,6.29,.29,.22,.59,.44,.89,.67,1.11,.74,2.22,1.55,3.4,2.37l1.18,.74c1.04,.74,2.22,1.48,3.33,2.22,.37,.3,.67,.44,1.04,.74,1.41,.89,2.88,1.78,4.29,2.66h.15c1.55,.96,3.03,1.92,4.66,2.81,.22,.15,.44,.29,.74,.44,1.26,.74,2.52,1.41,3.77,2.07,.45,.22,.82,.45,1.26,.74,1.18,.59,2.37,1.18,3.48,1.78,.37,.22,.82,.44,1.26,.67,1.33,.66,2.52,1.26,3.85,1.92,.3,.15,.59,.3,.89,.45,1.63,.74,3.25,1.55,4.88,2.29l.44,.15c1.48,.59,2.88,1.33,4.29,1.92,.44,.15,.89,.37,1.41,.59,1.18,.44,2.29,.89,3.48,1.41,.59,.22,1.04,.37,1.63,.66,1.18,.44,2.37,.89,3.55,1.33,.44,.15,.89,.29,1.33,.44,3.33,1.18,6.66,2.37,10.06,3.4,.45,.15,.89,.3,1.33,.45,1.33,.37,2.52,.74,3.77,1.11,.52,.15,1.11,.37,1.7,.52,1.18,.29,2.37,.59,3.55,.89,.59,.15,1.04,.3,1.63,.45,1.41,.37,2.81,.74,4.29,1.03,.29,.15,.59,.15,.89,.29,1.78,.3,3.48,.74,5.18,1.04,.44,.15,.89,.22,1.33,.29,1.33,.3,2.67,.52,4,.74,.59,.15,1.18,.29,1.78,.29,1.18,.3,2.37,.45,3.55,.59,.59,.15,1.26,.22,1.85,.3,1.33,.22,2.59,.44,3.92,.59,.44,.07,.96,.15,1.48,.15,1.78,.29,3.55,.44,5.33,.67,.37,0,.74,.07,1.04,.07,1.48,.15,2.96,.3,4.44,.37,.59,.08,1.18,.08,1.78,.15,1.18,.07,2.52,.22,3.7,.22,.59,.08,1.33,.15,1.92,.15,1.26,0,2.51,.07,3.85,.15h1.7c1.85,.07,3.62,.07,5.55,.07,1.78,0,3.62,0,5.48-.07h0Zm-193.99-322.2c.22-.33,.45-.7,.59-1.04,1.33-2.77,2.66-5.47,4.14-8.14,.15-.33,.37-.74,.59-1.07,.59-1.03,1.18-2.07,1.78-3.11,.15-.33,.3-.63,.45-.96,.81-1.33,1.55-2.59,2.37-3.89,.15-.22,.29-.44,.37-.66,.66-1.04,1.33-2.15,2-3.18,.3-.37,.44-.74,.74-1.11,.67-1.04,1.33-2.07,2-3.07,.22-.26,.37-.52,.52-.78,.81-1.22,1.63-2.4,2.52-3.63,.22-.29,.44-.63,.66-.96,.67-.93,1.41-1.85,2-2.77,.3-.37,.59-.7,.81-1.07,.89-1.18,1.85-2.33,2.74-3.48l.22-.3c.81-1.11,1.7-2.14,2.59-3.18,.29-.37,.59-.78,.89-1.15,.74-.81,1.33-1.63,2.07-2.44,.29-.37,.59-.7,.89-1.04,.96-1.07,1.92-2.14,2.81-3.22,.3-.3,.59-.59,.89-.89,.74-.81,1.48-1.63,2.22-2.41,.3-.37,.74-.74,1.03-1.15,.82-.78,1.63-1.59,2.37-2.41,.3-.26,.59-.52,.82-.78,.96-1.04,2-2,3.03-3,.37-.33,.74-.7,1.11-1,.74-.7,1.48-1.41,2.22-2.11,.37-.37,.81-.7,1.11-1.07,1.11-.93,2.15-1.89,3.26-2.81,.22-.19,.44-.37,.59-.56,.96-.78,1.92-1.55,2.81-2.33,.44-.33,.81-.67,1.18-1,.81-.67,1.63-1.29,2.44-1.96,.37-.3,.74-.59,1.11-.89,1.18-.85,2.22-1.7,3.4-2.59,.37-.26,.74-.56,1.11-.81,.81-.63,1.63-1.22,2.44-1.81,.45-.33,.96-.63,1.41-.96,.96-.67,1.85-1.33,2.73-1.96,.3-.18,.59-.37,.89-.59,1.18-.78,2.37-1.59,3.55-2.37,.44-.26,.89-.52,1.33-.81,.89-.52,1.78-1.07,2.66-1.63,.44-.26,.81-.52,1.33-.78,1.18-.78,2.37-1.48,3.7-2.18,.22-.19,.44-.33,.74-.48,1.04-.59,2.07-1.15,3.11-1.74,.44-.26,.96-.52,1.41-.78,.96-.48,1.92-1,2.89-1.48,.29-.19,.74-.41,1.18-.59,1.26-.67,2.52-1.29,3.85-1.96,.37-.18,.74-.37,1.18-.55,1.04-.48,1.92-.93,2.96-1.41,.45-.19,.89-.37,1.4-.59,1.11-.52,2.29-1.04,3.48-1.52,.22-.11,.44-.22,.67-.3,1.33-.59,2.74-1.15,4.07-1.66,.44-.19,.89-.37,1.41-.55,.96-.37,2-.78,3.04-1.15,.44-.15,.89-.33,1.33-.52,1.33-.48,2.81-.96,4.14-1.44,.3-.11,.59-.22,.89-.3,1.18-.41,2.37-.78,3.55-1.15,.44-.15,.89-.29,1.4-.44,1.11-.33,2.22-.67,3.33-1,.37-.11,.74-.22,1.11-.33,1.41-.41,2.89-.78,4.37-1.15,.37-.11,.74-.22,1.18-.3,1.11-.3,2.22-.59,3.4-.85,.44-.11,.89-.22,1.33-.3,1.41-.33,2.81-.63,4.14-.92,.15,0,.29-.07,.44-.07,1.48-.3,2.96-.59,4.51-.85,.44-.11,.89-.19,1.41-.26,1.11-.19,2.22-.41,3.4-.56,.44-.07,.89-.15,1.33-.22,1.48-.22,3.03-.44,4.59-.67,.3,0,.59-.04,.81-.07,1.33-.19,2.59-.33,3.92-.44,.44-.04,.89-.07,1.33-.15,1.33-.15,2.66-.26,3.92-.33,.29-.04,.59-.07,.96-.07,1.48-.15,3.11-.22,4.66-.3,.37-.04,.81-.07,1.26-.07,1.18-.04,2.44-.11,3.7-.15,.45,0,.89-.04,1.33-.04,1.63-.04,3.26-.07,4.88-.07s3.18,.04,4.81,.07c.45,0,.89,.04,1.33,.04,1.26,.04,2.44,.11,3.7,.15,.37,0,.81,.04,1.26,.07,1.55,.07,3.11,.15,4.73,.3,.3,0,.59,.04,.89,.07,1.33,.07,2.59,.19,3.85,.33,.44,.07,.96,.11,1.41,.15,1.26,.11,2.59,.26,3.92,.44,.3,.04,.59,.07,.81,.07,1.55,.22,3.04,.44,4.66,.67,.37,.07,.81,.15,1.26,.22,1.11,.15,2.29,.37,3.48,.56,.44,.07,.89,.15,1.33,.26,1.48,.26,3.03,.55,4.51,.85l.44,.07c1.41,.3,2.74,.59,4.07,.92,.45,.07,.96,.19,1.41,.3,1.11,.26,2.29,.56,3.48,.85,.3,.07,.74,.19,1.11,.3,1.48,.37,2.88,.74,4.36,1.15,.37,.11,.74,.22,1.11,.33,1.11,.33,2.22,.67,3.33,1,.45,.15,.96,.3,1.48,.44,1.18,.37,2.22,.74,3.4,1.15,.3,.07,.59,.19,.89,.3,1.48,.48,2.81,.96,4.22,1.44,.44,.19,.89,.37,1.33,.52,1.03,.37,2,.78,3.03,1.15,.44,.18,.89,.37,1.41,.55,1.4,.52,2.74,1.07,4.07,1.66,.22,.07,.44,.19,.74,.3,1.11,.48,2.22,1,3.4,1.52,.44,.22,.89,.41,1.41,.59,.96,.48,2,.92,2.89,1.41,.44,.19,.89,.37,1.26,.55,1.26,.67,2.59,1.29,3.92,1.96,.37,.19,.74,.41,1.18,.59,.89,.48,1.85,1,2.81,1.48,.44,.26,.89,.52,1.41,.78,1.04,.59,2.07,1.15,3.11,1.74,.22,.15,.52,.3,.81,.48,1.18,.7,2.44,1.41,3.7,2.18,.44,.26,.89,.52,1.33,.78,.89,.55,1.7,1.11,2.51,1.63,.45,.3,.89,.56,1.33,.81,1.18,.78,2.37,1.59,3.55,2.37,.3,.22,.59,.41,.89,.59,.96,.63,1.92,1.3,2.81,1.96,.44,.33,.89,.63,1.33,.96,.89,.59,1.7,1.18,2.51,1.81,.37,.26,.74,.56,1.11,.81,1.11,.89,2.3,1.74,3.33,2.59,.44,.3,.81,.59,1.18,.89,.81,.67,1.63,1.29,2.37,1.96,.44,.33,.89,.67,1.26,1,.96,.78,1.85,1.55,2.74,2.33,.22,.19,.44,.37,.67,.56,1.11,.93,2.14,1.89,3.18,2.81,.44,.37,.74,.7,1.18,1.07,.74,.7,1.48,1.41,2.22,2.11,.37,.3,.74,.67,1.11,1,.96,1,2,1.96,3.04,3,.29,.26,.52,.52,.74,.78,.81,.81,1.63,1.63,2.37,2.41,.37,.41,.74,.78,1.11,1.15,.81,.78,1.48,1.59,2.22,2.41,.3,.3,.52,.59,.82,.89,1.04,1.07,1.92,2.14,2.88,3.22,.3,.33,.59,.67,.89,1.04,.66,.81,1.4,1.63,2,2.44,.37,.37,.74,.78,1.04,1.15,.81,1.04,1.63,2.07,2.52,3.18l.22,.3c.96,1.15,1.85,2.29,2.74,3.48,.29,.37,.52,.7,.74,1.07,.74,.92,1.33,1.85,2.07,2.77,.15,.33,.44,.67,.66,.96,.82,1.22,1.7,2.41,2.52,3.63,.22,.26,.37,.52,.52,.78,.67,1,1.33,2.04,2,3.07,.22,.37,.52,.74,.74,1.11,.66,1.03,1.33,2.14,2,3.18,.15,.22,.29,.44,.44,.66,.74,1.3,1.48,2.55,2.22,3.89,.22,.33,.37,.63,.59,.96,.59,1.04,1.18,2.07,1.7,3.11,.22,.33,.37,.74,.59,1.07,1.41,2.66,2.89,5.36,4.22,8.14,.15,.33,.3,.7,.45,1.04,13.02,27.23,20.27,57.71,20.27,89.89,0,23.27-3.77,45.65-10.8,66.59-.15,.37-.3,.78-.45,1.22-.37,1.07-.74,2.14-1.18,3.22-.15,.48-.29,.96-.44,1.44-.44,1.07-.81,2.11-1.18,3.14-.22,.44-.37,.89-.59,1.29-.52,1.41-1.11,2.81-1.63,4.22l-.07,.11h-.08c-.59,1.44-1.18,2.85-1.78,4.25-.22,.44-.44,.89-.59,1.29-.44,1-.89,1.96-1.41,2.96-.22,.48-.52,1-.74,1.52-.44,.93-.96,1.85-1.41,2.78-.15,.48-.44,.92-.67,1.41-.67,1.22-1.33,2.48-2,3.7l-.22,.48c-.66,1.29-1.41,2.55-2.14,3.85-.3,.48-.59,.92-.81,1.41-.52,.85-1.04,1.7-1.55,2.59-.3,.52-.59,1-.89,1.48-.59,.85-1.04,1.74-1.63,2.55-.3,.48-.59,.93-.89,1.41-.74,1.11-1.41,2.18-2.14,3.29l-.52,.85c-.81,1.11-1.63,2.26-2.37,3.37-.3,.44-.66,.89-1.04,1.33-.59,.81-1.11,1.59-1.7,2.41-.37,.48-.74,.96-1.11,1.44-.59,.78-1.18,1.52-1.7,2.29-.37,.48-.74,.92-1.11,1.37-.74,.96-1.48,1.89-2.22,2.85-.37,.41-.74,.81-1.04,1.26-.82,.93-1.63,1.85-2.37,2.81-.45,.44-.89,.92-1.26,1.37-.67,.7-1.26,1.37-1.85,2.07-.44,.44-.89,.92-1.26,1.41-.66,.7-1.26,1.37-1.92,2.07-.37,.41-.81,.85-1.26,1.29-.81,.89-1.63,1.7-2.51,2.55-.37,.41-.74,.81-1.18,1.18-.81,.89-1.7,1.7-2.52,2.55-.52,.45-.96,.89-1.48,1.29-.59,.59-1.26,1.18-1.92,1.85-.45,.44-.96,.89-1.48,1.33-.67,.59-1.33,1.26-2.07,1.85-.45,.37-.89,.74-1.33,1.18-.89,.74-1.78,1.48-2.67,2.29-.52,.37-.96,.67-1.41,1.11-.96,.74-1.85,1.48-2.81,2.22-.52,.45-.96,.82-1.48,1.18-.66,.59-1.41,1.11-2.14,1.63-.59,.44-1.04,.81-1.63,1.18-.74,.59-1.48,1.11-2.22,1.63-.44,.37-.96,.74-1.48,1.03-.96,.74-1.92,1.41-2.96,2.07-.45,.29-.89,.67-1.33,.96-1.04,.67-2.07,1.33-3.11,2-.52,.37-1.04,.74-1.55,1.03-.81,.44-1.55,.96-2.29,1.48-.59,.3-1.18,.59-1.7,.96-.81,.52-1.63,.96-2.44,1.41-.52,.3-1.04,.59-1.55,.89-1.11,.67-2.15,1.26-3.26,1.92-.37,.15-.81,.44-1.26,.59-1.11,.59-2.22,1.26-3.4,1.85-.52,.22-1.04,.52-1.55,.81-.81,.44-1.7,.89-2.59,1.26-.59,.22-1.18,.52-1.7,.82-.89,.44-1.78,.89-2.66,1.26-.52,.22-1.04,.52-1.55,.66-1.18,.59-2.52,1.18-3.7,1.63l-.89,.37c-1.26,.52-2.51,1.11-3.85,1.55-.52,.3-1.04,.45-1.55,.59-.96,.45-1.85,.82-2.89,1.18-.52,.15-1.04,.37-1.63,.59-.96,.3-1.92,.67-2.88,1.04-.52,.15-1.04,.29-1.55,.44-1.33,.52-2.67,.89-4,1.33l-.74,.29c-1.41,.37-2.81,.74-4.14,1.18-.52,.15-1.04,.3-1.55,.44-1.04,.3-2,.59-3.04,.81-.59,.15-1.11,.22-1.7,.45-1.03,.22-2.07,.52-3.11,.74-.52,.08-.96,.22-1.55,.37-1.48,.3-2.96,.67-4.44,.96l-.15,.08h-.15c-1.48,.29-2.96,.59-4.51,.89-.52,.07-1.04,.15-1.55,.22-1.03,.22-2.14,.37-3.25,.52-.52,.15-1.11,.15-1.63,.29-1.18,.15-2.22,.3-3.33,.45-.52,.07-.96,.15-1.55,.22-1.55,.22-3.11,.37-4.74,.52h0c-1.63,.15-3.26,.3-4.81,.45-.52,0-1.04,.07-1.55,.15-1.18,0-2.22,.15-3.41,.15-.59,.08-1.18,.08-1.7,.15-1.11,0-2.29,.07-3.4,.07-.52,.08-1.04,.08-1.55,.08h-9.84c-.52,0-1.04,0-1.55-.08-1.11,0-2.22-.07-3.4-.07-.59-.07-1.18-.07-1.78-.15-1.11,0-2.22-.15-3.33-.15-.52-.07-1.03-.15-1.55-.15-1.63-.15-3.18-.3-4.81-.45h0l-167.13-297.49h0Zm171.94,297.94c-1.63-.15-3.18-.3-4.81-.45l4.81,.45h0Zm-9.62-.96c-.44-.08-1.04-.15-1.48-.22-1.11-.15-2.22-.3-3.26-.45-.59-.15-1.18-.15-1.78-.29-1.03-.15-2.15-.3-3.25-.52-.45-.07-.96-.15-1.48-.22-1.48-.29-3.03-.59-4.59-.89h-.07l-.22-.08c-1.48-.29-2.96-.67-4.44-.96-.44-.15-.96-.29-1.48-.37-1.04-.22-2.07-.52-3.1-.74-.59-.22-1.18-.3-1.7-.45-1.04-.22-2-.52-3.03-.81-.52-.15-1.04-.29-1.55-.44-1.41-.44-2.74-.81-4.07-1.18l-.81-.29c-1.33-.45-2.67-.82-3.99-1.33-.52-.15-1.04-.3-1.55-.44-.96-.37-1.92-.74-2.89-1.04-.52-.22-1.11-.44-1.7-.59-.89-.37-1.92-.74-2.81-1.18-.59-.15-1.04-.29-1.55-.59-1.33-.44-2.59-1.04-3.92-1.55l-.74-.37c-1.33-.45-2.52-1.04-3.77-1.63-.52-.15-1.04-.44-1.55-.66-.89-.37-1.78-.81-2.67-1.26-.59-.3-1.18-.59-1.7-.82-.81-.37-1.7-.81-2.59-1.26-.52-.29-1.04-.59-1.55-.81-1.11-.59-2.29-1.26-3.48-1.85-.37-.15-.74-.45-1.18-.59-1.11-.67-2.22-1.26-3.25-1.92-.59-.3-1.04-.59-1.63-.89-.74-.44-1.55-.89-2.37-1.41-.59-.37-1.11-.66-1.63-.96-.81-.52-1.63-1.04-2.37-1.48-.59-.3-1.04-.67-1.63-1.03-.96-.67-2-1.33-3.04-2-.44-.29-.89-.66-1.41-.96-.96-.67-1.92-1.33-2.96-2.07-.44-.29-.96-.66-1.48-1.03-.74-.52-1.48-1.04-2.22-1.63-.45-.37-1.04-.74-1.55-1.18-.67-.52-1.41-1.04-2.15-1.63-.52-.37-1.04-.74-1.48-1.18-.96-.74-1.92-1.48-2.81-2.22-.44-.44-.89-.74-1.33-1.11-.89-.81-1.85-1.55-2.74-2.29-.44-.44-.96-.81-1.41-1.18-.66-.59-1.33-1.26-2-1.85-.52-.45-.96-.89-1.55-1.33-.59-.67-1.26-1.26-1.92-1.85-.45-.4-.89-.85-1.33-1.29-.89-.85-1.78-1.67-2.66-2.55-.37-.37-.74-.78-1.18-1.18-.81-.85-1.63-1.66-2.51-2.55-.37-.44-.74-.89-1.18-1.29-.67-.7-1.26-1.37-1.92-2.07-.44-.48-.89-.96-1.33-1.41-.59-.7-1.18-1.37-1.78-2.07-.44-.44-.81-.92-1.18-1.37-.89-.96-1.63-1.89-2.37-2.81-.37-.44-.74-.85-1.11-1.26-.74-.96-1.55-1.89-2.29-2.85-.3-.44-.67-.89-1.03-1.37-.59-.78-1.18-1.52-1.78-2.29-.3-.48-.74-.96-1.04-1.44-.59-.82-1.18-1.59-1.78-2.41-.29-.44-.59-.89-.96-1.33-.81-1.11-1.55-2.26-2.29-3.37l-.59-.85c-.74-1.11-1.48-2.18-2.22-3.29-.3-.48-.59-.93-.89-1.41-.44-.81-1.03-1.7-1.55-2.55-.29-.48-.59-.96-.89-1.48-.52-.89-1.04-1.74-1.55-2.59-.3-.48-.59-.92-.81-1.41-.67-1.29-1.41-2.55-2.15-3.85l-.3-.48c-.59-1.22-1.26-2.48-1.92-3.7-.23-.48-.45-.93-.74-1.41-.44-.93-.89-1.89-1.33-2.78-.29-.52-.52-1.03-.74-1.52-.44-1-.89-1.96-1.33-2.96-.3-.41-.45-.85-.59-1.29-.74-1.41-1.33-2.81-1.92-4.25h0v-.11c-.59-1.41-1.18-2.81-1.78-4.22-.15-.41-.3-.85-.44-1.29-.45-1.04-.89-2.07-1.18-3.14-.22-.48-.45-.96-.59-1.44-.37-1.07-.74-2.15-1.11-3.22-.22-.44-.3-.85-.44-1.22-7.03-20.94-10.88-43.32-10.88-66.59,0-32.18,7.32-62.66,20.27-89.89l162.32,296.98h0Zm-164.24-121.59c-.74-1.41-1.33-2.81-1.92-4.25l1.92,4.25Z" style="fill:#b0c2e4; fill-rule:evenodd;"/><path d="M1606.88,574.68c0,115.27,93.52,208.64,208.78,208.64s208.64-93.37,208.64-208.64-93.37-208.75-208.64-208.75-208.78,93.44-208.78,208.75Z" style="fill:#fff; fill-rule:evenodd;"/><path d="M1815.81,413.09h.37c3.03,0,5.4-2.44,5.4-5.4v-27.19c0-3-2.37-5.44-5.4-5.44h-.37c-3.04,0-5.47,2.44-5.47,5.44v27.19c0,2.96,2.44,5.4,5.47,5.4Z" style="fill:#9db2d9; fill-rule:evenodd;"/><path d="M1977.17,574.79v.44c0,3,2.44,5.4,5.4,5.4h27.23c2.96,0,5.4-2.41,5.4-5.4v-.44c0-2.96-2.44-5.4-5.4-5.4h-27.23c-2.96,0-5.4,2.44-5.4,5.4h0Zm-361.12-.66v.41c0,3,2.37,5.4,5.4,5.4h27.15c3.04,0,5.48-2.41,5.48-5.4v-.41c0-3.03-2.44-5.44-5.48-5.44h-27.15c-3.03,0-5.4,2.4-5.4,5.44Z" style="fill:#9db2d9; fill-rule:evenodd;"/><path d="M1929.96,460.52l.3,.3c2.15,2.11,5.55,2.11,7.62,0l19.24-19.2c2.15-2.15,2.15-5.59,0-7.66l-.3-.33c-2.07-2.11-5.55-2.11-7.69,0l-19.16,19.24c-2.15,2.11-2.15,5.55,0,7.66h0Zm-255.91,254.88l.3,.26c2.15,2.15,5.62,2.15,7.69,0l19.23-19.2c2.07-2.11,2.07-5.55,0-7.66l-.3-.3c-2.07-2.11-5.55-2.11-7.69,0l-19.24,19.24c-2.07,2.11-2.07,5.55,0,7.66Z" style="fill:#9db2d9; fill-rule:evenodd;"/><path d="M1701.28,460.52l-.3,.3c-2.07,2.11-5.55,2.11-7.69,0l-19.24-19.2c-2.07-2.15-2.07-5.59,0-7.66l.3-.33c2.15-2.11,5.62-2.11,7.69,0l19.23,19.24c2.07,2.11,2.07,5.55,0,7.66h0Zm255.84,254.88l-.3,.26c-2.07,2.15-5.55,2.15-7.69,0l-19.16-19.2c-2.15-2.11-2.15-5.55,0-7.66l.3-.3c2.15-2.11,5.55-2.11,7.62,0l19.24,19.24c2.15,2.11,2.15,5.55,0,7.66Z" style="fill:#9db2d9; fill-rule:evenodd;"/><path d="M1815.07,774.29h.44c2.96,0,5.4-2.52,5.4-5.48v-27.23c0-2.96-2.44-5.33-5.4-5.33h-.44c-2.96,0-5.48,2.37-5.48,5.33v27.23c0,2.96,2.52,5.48,5.48,5.48Z" style="fill:#9db2d9; fill-rule:evenodd;"/><path d="M1815.51,577.89h.44c3.26,0,5.92-2.7,5.92-5.99v-131.06c0-3.29-2.66-5.96-5.92-5.96h-.44c-3.33,0-6.07,2.66-6.07,5.96v131.06c0,3.29,2.74,5.99,6.07,5.99Z" style="fill:#b0c2e4; fill-rule:evenodd;"/><path d="M1810.11,581.59l-.15,.41c-.96,3.18,.81,6.55,3.92,7.55l86.49,27.12c3.18,1,6.51-.78,7.47-3.89l.15-.48c1.04-3.14-.74-6.51-3.85-7.47l-86.56-27.19c-3.11-.96-6.51,.78-7.47,3.96Z" style="fill:#b0c2e4; fill-rule:evenodd;"/><path d="M1692.55,605.08l121.63-31.18c.89-.19,1.78,.33,1.92,1.18,.3,.89-.29,1.78-1.18,2l-121.48,31.18c-.89,.22-1.78-.3-2.07-1.18-.15-.89,.29-1.78,1.18-2Z" style="fill:#859ac6; fill-rule:evenodd;"/><path d="M1653.56,576.78c.67-.07,1.33-.11,1.85-.15,.44-.04,.81-.44,.74-.89v-.19c-.22,.15-.52,.22-.81,.22-.37,.07-.89,.11-1.48,.15-.08,.3-.22,.59-.3,.85Z" style="fill:#f6fbfd; fill-rule:evenodd;"/><path d="M1656,562.39v-.19c0-.44-.3-.85-.74-.85-4.74-.19-17.76-.78-30.19-1.41l-.15,.81c12.51,.63,25.53,1.22,30.26,1.41,.22,0,.52,.07,.81,.22Z" style="fill:#f6fbfd; fill-rule:evenodd;"/></svg>