<?xml version="1.0" encoding="UTF-8"?><svg id="a" xmlns="http://www.w3.org/2000/svg" viewBox="0 0 2042.63 1434.69"><path d="M973.85,0c240.02,0,341.15,171.74,514.42,305.24,229.34,176.69,458.66,61.67,495.38,658.67,32.68,531.34-375.13,57.52-950.14,247.86C458.52,1402.1-127.11,1478.75,46.66,862.92,220.44,247.1,416.15,0,973.85,0Z" style="fill:#e0e8f5; fill-rule:evenodd;"/><path d="M1058.73,874.47H64.31c7.15-30.22,34.27-52.69,66.67-52.69,1.55,0,3.12,.06,4.66,.18,15.7-38.44,53.47-65.55,97.58-65.55,19.3,0,37.36,5.21,52.9,14.25,18.97-62.52,77.04-108.04,145.76-108.04,13.97,0,27.53,1.9,40.39,5.44,33.26-73.45,107.2-124.53,193.07-124.53,101.84,0,186.9,71.89,207.22,167.69,1.73-.06,3.43-.12,5.15-.12,65.24,0,119.08,48.79,127.04,111.86,26.61,4.98,47.82,25.34,53.99,51.51Z" style="fill:#fff; fill-rule:evenodd;"/><path d="M1097.57,220.99H573.88c3.76-15.92,18.05-27.75,35.11-27.75,.82,0,1.64,.04,2.45,.09,8.27-20.24,28.16-34.52,51.39-34.52,10.16,0,19.67,2.74,27.86,7.5,9.99-32.92,40.57-56.89,76.76-56.89,7.36,0,14.5,1,21.27,2.86,17.52-38.68,56.46-65.58,101.68-65.58,53.63,0,98.43,37.86,109.12,88.31,.92-.03,1.81-.07,2.71-.07,34.36,0,62.72,25.7,66.9,58.91,14.02,2.63,25.19,13.35,28.44,27.13Z" style="fill:#fff; fill-rule:evenodd;"/><polygon points="672.44 319.6 756.85 319.6 768.64 403.94 670.38 403.94 572.12 403.94 588.02 319.6 672.44 319.6" style="fill:#d0a382; fill-rule:evenodd;"/><polygon points="672.44 319.6 723.16 319.6 729.42 403.94 670.38 403.94 611.34 403.94 621.72 319.6 672.44 319.6" style="fill:#e5bb9a; fill-rule:evenodd;"/><path d="M1513.06,147.9h345.29l-33.26,330.02c-17.3,192.45-143.62,269.66-327,283.26-182.73-13.6-305.27-90.81-313.17-283.26l-17.16-330.02h345.3Z" style="fill:#b0c2e4; fill-rule:evenodd;"/><path d="M1442.52,754.71c-10.63,356.37-117.59,271.09-110.94,447.11h311.52c15.24-176.02-95.88-90.74-89.12-447.1-17.96,2.89-36.61,5.03-55.88,6.46-19.22-1.43-37.76-3.57-55.57-6.47Z" style="fill:#9db2d9; fill-rule:evenodd;"/><path d="M1236.38,1201.83h494.75c18.32,0,32.99,14.15,32.57,31.47h0c-.42,17.32-15.78,31.47-34.11,31.47h-494.75c-18.33,0-32.99-14.15-32.56-31.47h0c.42-17.32,15.77-31.47,34.1-31.47Z" style="fill:#b0c2e4; fill-rule:evenodd;"/><path d="M1161.75,84.96h705.7c18.35,0,32.99,14.15,32.57,31.47h0c-.42,17.32-15.76,31.48-34.11,31.48h-705.7c-18.36,0-33-14.16-32.58-31.47h0c.42-17.32,15.76-31.48,34.12-31.48Z" style="fill:#b0c2e4; fill-rule:evenodd;"/><path d="M1168.72,166.17h-204.75c-30.93,289.18,66.03,435.68,265.3,468.04-17.29-26.69-29.89-58.15-37.24-94.91-133.16-49.62-192.85-164.36-184.22-329.38h163.19l-2.27-43.75Z" style="fill:#9db2d9; fill-rule:evenodd;"/><path d="M1856.52,166.17h180.46c30.84,288.38-65.5,434.86-263.66,467.76,18.93-27.27,33.25-59.47,42.33-97.22,128.43-50.95,185.98-164.57,177.5-326.79h-141.03l4.41-43.75Z" style="fill:#9db2d9; fill-rule:evenodd;"/><path d="M1170.99,209.92l13.93,268c.9,21.93,3.29,42.36,7.1,61.38,7.33,36.77,19.93,68.22,37.24,94.91,43.96,67.94,118.26,105.08,213.26,120.51,9.48,1.55,19.17,2.88,29.05,3.99-114.61-35.78-186.87-115.49-192.88-261.8l-17.15-330.02h594.9l.07-.71,1.84-18.27h-690.6l.95,18.27,2.27,43.75Z" style="fill:#9db2d9; fill-rule:evenodd;"/><path d="M1764.27,200.24l-27.66,274.45c-13.75,152.98-103.64,216.18-252,232.24,6.02,.65,12.14,1.23,18.37,1.73,159.34-12.79,256.14-74.75,270.45-233.98l27.66-274.45h-36.82Z" style="fill:#c4d1eb; fill-rule:evenodd;"/><path d="M1418.23,353.92l1.12-45.82,10.32-3.28,2.21,2c.5,.46,20.44-.45,40.5-11.16,12.91-6.88,22.12-15.88,27.05-27.71l10.32-3.28,30.77,3.28-6.04,247.12c-.21,8.53,2.03,14.21,6.77,16.99,4.7,2.75,24.41-9.48,31.45,4.12l21.75,42.03-10.32,3.28h-171.46l1.11-45.31,10.32-3.28,4.6,3.28c13.62,9.72,28.57-1.47,33.92-4.28,5.43-2.85,8.28-11.25,8.62-25.15l.05-1.97,3.68-150.85h-56.73Z" style="fill:#9db2d9; fill-rule:evenodd;"/><path d="M1428.54,350.64l1.12-45.82c22.23-1.71,39.87-5.84,53.04-12.44,13.07-6.61,22.11-15.87,27.04-27.71h41.09l-6.03,247.13c-.21,8.52,2.02,14.22,6.77,16.99,4.7,2.75,15.26,4.12,31.45,4.12h12.54l-1.11,45.31h-171.46l1.11-45.31h14.91c17.27,0,28.58-1.46,33.92-4.29,5.44-2.83,8.28-11.25,8.62-25.15l.05-1.97,3.68-150.86h-56.74Z" style="fill:#fff; fill-rule:evenodd;"/><ellipse cx="981.99" cy="1387.9" rx="975.12" ry="46.79" style="fill:#c4d1eb;"/><path d="M1358.47,530.66c-414.19-34.35-814.68-23.09-1201.46,33.8,16.14-98.26,7.99-183.61-24.43-256.05,414.86-69.02,826.17-71.66,1233.93-7.89-23.19,101.82-25.86,178.53-8.04,230.14Z" style="fill:#859ac6; fill-rule:evenodd;"/><polygon points="113.13 289.65 130.69 288.54 225.44 1281.67 207.88 1282.79 113.13 289.65" style="fill:#9c7357; fill-rule:evenodd;"/><polygon points="1367.07 284.58 1384.63 285.75 1349.78 1282.79 1332.23 1281.61 1367.07 284.58" style="fill:#9c7357; fill-rule:evenodd;"/><path d="M541.58,992.44c4.34,3.81,9.09,5.36,14.63,4.2-5.19,3.95-12.41,.92-14.63-4.2Z" style="fill:#f48661; fill-rule:evenodd;"/><path d="M561.16,1369.16c-.83-5.87,1.01-15.97,5.6-31.76-9.09,.02-16.75-4.01-26.04-3.87-2.54,14.86-6.48,39.24-6.48,39.24l-.42,19.28,64.76,.49s-.55,.28-19.64-11.79c-1.41-.9-17-5.94-17.78-11.6Z" style="fill:#f9af79; fill-rule:evenodd;"/><path d="M533.52,1397h66.83c2.47-.22,3.08-2.24,2.22-3.48-1.77-2.57-14.81-8.7-23.57-12.78-15.37,1.61-42.39-4.72-44.82-8.26-4.21,11.78-2.03,24.22-.66,24.52Z" style="fill:#0e2952; fill-rule:evenodd;"/><path d="M480.5,1369.16c-.83-5.87-2.22-13.22-.17-32.79-9.11,.02-17.77-1.68-27.06-1.55,0,15.28,.32,37.95,.32,37.95l-.41,19.28,64.75,.49s-.55,.28-19.63-11.79c-1.42-.9-17.01-5.94-17.79-11.6Z" style="fill:#f9af79; fill-rule:evenodd;"/><path d="M452.86,1397h66.84c2.47-.22,3.07-2.24,2.21-3.48-1.76-2.57-14.8-8.7-23.57-12.78-15.37,1.61-42.38-4.72-44.8-8.26-4.23,11.78-2.05,24.22-.68,24.52Z" style="fill:#0e2952; fill-rule:evenodd;"/><path d="M527.54,810.03l24.36-25.68s26.06,14.34,56.45,28.03c8.36-14.54,21.99-62.38,22.73-64.65,.73-2.3-15.97-31.02-12.24-31.74,3.74-.72,8.59,15.34,12.55,13.7,3.95-1.63,14.1-38.89,16.48-36.85,4.45,3.8-5.35,23.18-3,24.59,2.35,1.41,8.3-21.47,12.81-20.5,4.54,.96-7.63,20.83-6.31,22.74,1.35,1.91,14.07-16.71,16.7-12.39,1.43,2.34-11.74,16.22-9.03,17.78,2.71,1.55,14.57-7.2,15.98-4.36,1.43,2.83-11.06,5.79-14.53,12.96-3.46,7.15-9.76,9.95-11.87,23.5-2.08,13.54-7.81,85.97-22.56,91.79-12.9,5.08-98.51-38.91-98.51-38.91Z" style="fill:#f9af79; fill-rule:evenodd;"/><path d="M543.28,948.62l-19.75,11.02-40.14,61.37,71.78,168.99s-8.09,25.42-10.72,38.11c-2.75,13.28-9.51,127.29-9.51,127.29l30.63,.52s29.1-121.38,34.02-160.78c5.98-47.84-30.46-161.77-30.46-161.77-6.78-23.24-21.42-71.07-21.42-71.07,0,0-3.58-11.66-4.43-13.7Z" style="fill:#20386f; fill-rule:evenodd;"/><path d="M474.54,925.57s2.05,14.43-6.12,30.91c-4.98,10.04-13.59,17.92-19.75,30.2-11.66,23.29-17.98,56.34-13.62,77.59,0,0,24.1,92.02,23.15,125.66-.34,12.41-4.6,34.76-7.33,49.86-2.41,13.35-3.22,114.09-3.22,114.09l34.2-1.03,26.18-162.5,11.08-144.43,24.16-97.3-68.75-23.05Z" style="fill:#223f81; fill-rule:evenodd;"/><path d="M546.96,713.51c-3.02-14.27-6.14-28.61-20.33-38.89-11.49-8.33-23.82-10.7-36.9-5.97-37.08,13.45-17.14,42.87-63.15,74.21-14.28,9.75-19.71,13.15-29.97,26.14-14.36,18.17-22.2,42.55-14.99,62.63,14.93,41.5,61.17,53.51,85.37,44.7,45.04-16.37,82.55-73.5,85.06-89.09,2.65-16.68-3.13-64.54-5.09-73.74Z" style="fill:#20386f; fill-rule:evenodd;"/><path d="M554.16,826.18c10.89,5.04,30.65,12.59,30.65,12.59l11.21-35.51c-63.47-36.12-58.48-30.28-106.11-29.58-38.06,.55-54.03-6.72-86.8,81.75,0,0,24.95,11.21,33.88,14.81,3.85-10.94,10.78-32.75,14.83-20.32,6.12,18.78,10.6,37.75,13.6,57.28,1.91,11.57,6.05,26.39,3.88,38.17,0,0,25.91,5.34,45.71,6.22h.17c9.56-.25,19.36-1.09,28.09-2.98,0,0,3.88-82.06,5.95-85.49,2.3-3.79,12-16.04,3.76-34.37-1.48-3.24-1.09-3.61,1.17-2.58Z" style="fill:#6d96ce; fill-rule:evenodd;"/><path d="M506.51,968.64c.45,.06,2.47-.2,4.13-.17,2.28,.05,4.28,.39,4.28,.39,0,0,.9-.78,2.62-1.57,.72-.33,1.87-.45,2.67-.82,.82-.38,1.52-1.09,2.29-1.43,2.02-.88,3.88-1.09,4.49-.02,.52,.88-10.74,7.75-10.74,7.75-10.42,.06-21.31,5.38-45.46-10.37-13.77-6.02-80.7-39.09-82.06-46.29-.77-4.06,9.52-35.36,17.91-59.12,6.46,2.9,20.24,9.01,27.94,12.24-7.07,14.98-15.41,34.82-14.53,37.25,.22,.64,1.06,1.78,46.31,31.41,1.14,.74,2.32,1.51,3.49,2.29,3.2,2.08,6.61,4.3,10.22,6.66l12.9-1.35s20.44,1.41,21.07,3.74c.26,1.07-1.44,1.6-3.52,1.91h-.07c-.29,.03-.61,.07-.92,.1h-.03c-2.26,.27-4.62,.32-5.19,.52-.65,.21-1.96,.74-3.08,1.5,12.76,5.21,11.77,3.35,15.99,3.08,1.07-.08,2.19,.23,3.2,.16,1.71-.16,3.09-1.17,4.39-1.25,1.95-.11,3.53,.79,3.87,1.16,.46,.45-.39,1.11-2.02,1.84-9.84,4.28-18,2.63-20.61,3.28-1.75,.42,1.46,1.08,6.46,.55,1.24-.12,2.88,.33,4.52-.07,1.11-.25,2.11-.95,3.19-1.21,1-.26,2.02-.24,2.87-.39,1.09-.2,2.63-1.06,3.5-1.14,3.27-.38,4.85,.2,5.23,.5,.75,.68-14.09,6.37-14.09,6.37,0,0-10.23,1.47-12.52,1.47,0,0-1.37,.63,1.3,1.03Z" style="fill:#f9af79; fill-rule:evenodd;"/><path d="M494.58,738.66s-2.91,23.44-4.62,31.57c-1.79,8.51-4.47,35.34,13.18,39.69,17.65,4.35,12.19-29.17,12.49-37.83,.28-8.67,5.29-38.84,5.29-38.84l-26.34,5.41Z" style="fill:#f9af79; fill-rule:evenodd;"/><path d="M493.63,746.14c.17,.11,.34,.22,.53,.33,9.75,5.59,18.25,4.71,24.62,.36,1.14-7.5,2.14-13.58,2.14-13.58l-26.34,5.41s-.39,3.13-.95,7.48Z" style="fill:#f27458; fill-rule:evenodd;"/><path d="M499.89,677.63s-10.34,2.91-16.31,13.19c-5.95,10.27-8.94,39.77,13.03,52.37,21.95,12.58,37.55-7.59,36.86-26.45-.65-18.87-5.91-43.84-33.58-39.11Z" style="fill:#f9af79; fill-rule:evenodd;"/><path d="M538.34,708.63c.23,4.89-1.87,9-4.69,9.14-2.83,.14-5.34-3.71-5.57-8.62-.25-4.9,1.84-9,4.68-9.14,2.85-.14,5.34,3.72,5.59,8.62Z" style="fill:#f9af79; fill-rule:evenodd;"/><path d="M503,676.86s-11.85,30.86-23.43,34.15c-11.58,3.29-10.65,18.47-10.65,18.47,0,0-1.49-35.09,9.11-43.7,10.58-8.58,24.97-8.92,24.97-8.92Z" style="fill:#20386f; fill-rule:evenodd;"/><path d="M484.55,717.05c1.78,4.82,.61,9.71-2.63,10.94-3.23,1.2-7.29-1.7-9.08-6.54-1.8-4.82-.62-9.72,2.62-10.94,3.23-1.2,7.29,1.7,9.09,6.54Z" style="fill:#f9af79; fill-rule:evenodd;"/><path d="M1263.76,968.9c-5.08,2.01-9.89,1.93-14.53-.88,3.48,5.16,10.95,4.72,14.53,.88Z" style="fill:#f48661; fill-rule:evenodd;"/><path d="M1862.21,1337.59s8.19,8.1,8.39,11.08c.18,2.98,.72,34.86-2.62,37.84-3.35,2.98-13.19,5.12-10.03,8.46,2.38,2.5,20.78,1.97,32.97,1.31,3.54-.24,8.01-28.96,9.43-33.19,2.03-6.14,9.41-19.55,7.56-23.78-.92-2.09-7.66-6.85-13.77-10.85-6.42-4.23-12.58-13.59-12.58-13.59l-19.36,22.71Z" style="fill:#f9af79; fill-rule:evenodd;"/><path d="M1752.48,1357.49l7.36,21.1c.55,3.34,2.69,11.56,2.69,14.6,0,11.38-50.59-9.65-39.26-14.72,1.03-.48,4.25-4.12,4.58-7.99,.54-5.96-4.25-13.4-4.25-13.4l28.88,.41Z" style="fill:#f9af79; fill-rule:evenodd;"/><path d="M1682.66,958.48l-18.32,47.43s-11.96,113.22-5.01,180.97c2.92,28.37,65.92,180.08,65.92,180.08l31.3-4.47-41.92-179.66,15.42-68.71,21.84-135.86-69.24-19.79Z" style="fill:#0e2952; fill-rule:evenodd;"/><path d="M1768.96,960.93l15.72,52.79,23.89,159.46,80.84,149.15s-12.14,18.71-25.2,21.63l-114.74-150.76-62.19-188.72,2.18-41.95,79.49-1.61Z" style="fill:#223f81; fill-rule:evenodd;"/><path d="M1521.39,957.59c12.2-.59,11.82,1.52,13.4,1.36,1.83-.11,21.56-15.36,21.56-15.36,0,0,58.35-44.48,61.4-46.98l36.41-67.07,37.96,8.9s-41.53,71.85-44.35,75.24c-2.8,3.33-88.59,54.16-96.03,58.91,0,0-6.78,8.94-11.21,14.42-4.45,5.47-11.05,8.63-12.55,9.99-.22,.17-5.42,4.39-13.18,7.77-6.69,2.99-1.7-2.89-1.7-2.89,0,0,11.43-7.75,10.67-8.54-.58-.65-6.57,3.96-13.94,7.31-1.9,.86-3.75,1.68-5.47,2.42-4.53,1.98-7.05-.22-2.64-3.1,1.57-1.01,4.2-2.59,6.22-3.46,2.21-.98,3.93-2.57,5.65-3.64,3.42-2.15,5.96-3.71,5.79-3.78-.22-.09,.17-1.03-1.87-.17-2.46,1.01-7.18,4.34-10.92,5.57-2.11,.7-6.42,2.4-6.42,2.4,0,0-7.32,2-7.52,1.59-1.17-2.08,3.66-5.03,6.63-5.56,1.73-1.39,6.31-3.03,6.31-3.03,0,0,8.54-5.5,7.8-6.73-.6-1.04-23.57,8.11-24.61,5.95-.84-1.79,5.95-4.87,5.95-4.87,0,0,4.25-1.52,5.63-2.16,1.6-.73,6.27-3.31,6.27-3.31,0,0,15.77-9.63,14.96-10.76-.79-1.12-4-3.12-5.18-2.85-1.19,.26-3.12,1.89-4.28,2.1-1.19,.26-2.95-.44-3.39-1.87-.4-1.48,4.85-4.9,4.85-4.9,0,0,4.26-2.76,7.79-2.91Z" style="fill:#f9af79; fill-rule:evenodd;"/><path d="M1639.69,848.26l39.05,22.06s16.72-33.14,23.81-49.36c8.58-19.66,17.3-45.63,14.73-46.1-7.24-1.34-17.03-1.58-25.51,3.42-29.33,17.43-52.07,69.98-52.07,69.98Z" style="fill:#466fb5; fill-rule:evenodd;"/><path d="M1830.12,1045.48c6.8-11.15,8.34-9.54,9.17-11.02,.99-1.73-.1-28.25-.1-28.25,0,0-2.72-78.29-3.01-82.53l-34.85-72.28,30.13-28.37s35.86,79.67,37.02,84.2c1.17,4.53-7.12,110.9-7.56,120.31,0,0,3.49,11.38,5.45,18.59,1.96,7.15,.71,14.96,.95,17.05,.04,.36,.48,7.45-1.27,16.38-1.51,7.69-3.5-.29-3.5-.29,0,0,.29-14.72-.82-14.54-.88,.12-.59,8.22-2.16,16.75-.4,2.14-.82,4.34-1.21,6.31-1,5.25-4.39,6.08-4.17,.48,.07-1.97,.29-5.3,.77-7.63,.51-2.5,.18-4.95,.31-7.15,.22-4.29,.44-7.45,.26-7.39-.21,.12-.77-.77-1.27,1.55-.61,2.8-.61,9-1.79,12.99-.68,2.26-1.79,7.15-1.79,7.15,0,0-3.05,7.04-3.5,6.98-2.48-.18-1.71-5.6-.41-8.58-.11-2.32,1.23-7.39,1.23-7.39,0,0,.46-10.84-1.04-10.96-.63,0-1.69,6.61-3.71,12.99-1.89,5.9-4.71,11.56-5.91,11.32-2-.29-.58-7.09-.58-7.09,0,0,1.22-4.65,1.52-6.26,.34-1.84,.97-7.51,.97-7.51,0,0,1.26-19.78-.17-19.72-1.41,.05-5.01,1.73-5.51,2.92-.49,1.19-.27,3.87-.76,5.06-.5,1.19-2.14,2.32-3.6,1.85-1.49-.48-1.27-7.21-1.27-7.21,0,0,.22-5.43,2.18-8.7Z" style="fill:#f9af79; fill-rule:evenodd;"/><path d="M1893.75,1328.23s-17.27,52.92-24.66,55.54c-1.99,.65-13.02,3.45-14.8,7.69l-.12,.42c-.57,2.68,1.68,5.12,4.41,5.12h35.11s4.98-23.78,6.96-34.2c0,0,10.42-25.57,9.26-27.83-1.15-2.32-16.16-6.74-16.16-6.74Z" style="fill:#0e2952; fill-rule:evenodd;"/><path d="M1765.4,1396.94l-5.8-18.6s-12.16,5.25-18.24,4.35c-6.09-.83-17.97-4.35-17.97-4.35-24.28,8.11-44.18,12.04-40.56,18.6h82.57Z" style="fill:#0e2952; fill-rule:evenodd;"/><path d="M1763.28,767.21s23.62,3.28,29.84,7.86c6.98,5.13,28.66,29.14,28.66,29.14,0,0-45.11,129.19-43.37,152.19,1.76,23,6.71,57.08,6.71,57.08,0,0-88.24,5.6-121.41-7.5,0,0,11.09-52.2,11.09-65.84s5.89-150.46,10.07-157.62c4.2-7.15,12.63-11.2,28.64-14.72,16.01-3.51,49.77-.59,49.77-.59Z" style="fill:#6d96ce; fill-rule:evenodd;"/><path d="M1756.84,730.32l5.83,38.25s-21.34,45.59-34.09,41.65c-10.69-3.33-4.11-43.62-4.11-43.62,0,0,5.83-21.69,4.09-32.53-1.76-10.78,28.27-3.75,28.27-3.75Z" style="fill:#f9af79; fill-rule:evenodd;"/><path d="M1728.57,734.07c-1.76-10.78,28.27-3.75,28.27-3.75l.47,3.16c-.88,2.14-1.94,3.99-3.26,5.36-6.69,7.15-17.18,11.5-26.23,11.8,.89-5.84,1.46-12.1,.75-16.57Z" style="fill:#f48661; fill-rule:evenodd;"/><path d="M1761.76,676.21c.84-.29,6.8,43.56-4.49,55.66-11.3,12.04-33.31,16.03-41.21,6.5-3.9-4.68-11.69-17.89-6.21-32.76,5.55-15.07,5.78-30.48,15.49-37.37,17.55-12.4,36.42,7.98,36.42,7.98Z" style="fill:#f9af79; fill-rule:evenodd;"/><path d="M1726.23,631.08c16.44,33.74,34.23,28.96,37.46,32.46,25.94,3.01,41.97,46.46,15.74,66.54-12.4,9.54-20.4,14.54-20.4,14.54l-1.98-5.78c-1.45-4.29-2.04-8.88-1.56-13.41,.29-2.68,.88-5.6,2.02-8.04,2.97-6.32-6.4-10.55-9.05-15.85-2.02-4.06-2.11-13.41-5.3-20.08l-3.82-5.19s-8.78-6.8-17.38-4.83c-8.6,1.91-14.36-20.18,4.27-40.37Z" style="fill:#20386f; fill-rule:evenodd;"/><path d="M1749.04,709.35c-.09,5.36,2.37,9.77,5.47,9.77,3.12,.06,5.72-4.23,5.79-9.59,.09-5.36-2.35-9.72-5.47-9.77-3.12-.06-5.7,4.23-5.79,9.59Z" style="fill:#f9af79; fill-rule:evenodd;"/><path d="M1851.08,850.51l-39.48,30.81s-17.44-16.68-26.21-35.22c-8.85-18.71-1.08-73.35,8.35-70.85,21.11,5.73,57.35,75.27,57.35,75.27Z" style="fill:#466fb5; fill-rule:evenodd;"/><path d="M183.72,741.87s-7.62-9.22-13.59-13.35c-5.96-4.2-15.37-17.36-16.27-34.36-.9-17.05,10.72-25.87,17.35-29.04,6.62-3.21,32.86-7.8,42.39-5.07,9.54,2.73,11.01,36.9,11.01,36.9l-9.37,28.21-31.52,16.71Z" style="fill:#20386f; fill-rule:evenodd;"/><path d="M252.31,1211.53l.14,20.81,22.29-8.16s12.38-19.31,28.46-45.11c-10.18-4.42-20.75-8.18-31.36-12.03-10.98,25.97-19.52,44.49-19.52,44.49Z" style="fill:#fab688; fill-rule:evenodd;"/><path d="M276.13,1222.83s-11.2-3.2-13.91-5.73c-2.73-2.53-4.32-8.76-8.76-8.57-4.44,.19-20.25,14.75-21.54,19.26-1.36,4.74-1.11,10.99,1.68,13.51,2.77,2.58,51.77,34.03,61.73,37.18,9.94,3.15,18.47-4.13,11.63-13.76-6.83-9.63-24.27-42.13-30.82-41.89Z" style="fill:#0e2952; fill-rule:evenodd;"/><path d="M188.38,954.73s195.63,25.92,198.81,50.51c7.42,57.48-101.17,208.53-101.17,208.53l-30.54-13.33,54.81-158.68s-87.38-8.63-95.19-14.08c-7.83-5.45-26.71-72.94-26.71-72.94Z" style="fill:#20386f; fill-rule:evenodd;"/><path d="M114.15,1335.08l3.58,20.51,20.63-11.72s9.05-21.1,20.64-49.22c-10.78-2.66-21.82-4.65-32.91-6.69-6.58,27.42-11.93,47.11-11.93,47.11Z" style="fill:#fab688; fill-rule:evenodd;"/><path d="M139.52,1342.31s-11.59-1.32-14.69-3.35c-3.1-2.02-5.71-7.92-10.04-7-4.34,.9-17.54,17.86-18.06,22.48-.57,4.92,.72,11.04,3.87,13.1,3.17,2.07,67.37,27.84,77.71,29.32,10.34,1.47,11.88-9.19,3.55-17.53-8.31-8.4-35.92-38.36-42.34-37.01Z" style="fill:#0e2952; fill-rule:evenodd;"/><path d="M223.78,973.5l-18.42-24.1s-56.3,8.45-63.59,33.86c-7.29,25.39,4.46,185.75,4.46,185.75,0,0-21.89,109.82-31.43,149.67,11.11,2.03,26.62,5.21,37.41,7.88,20.08-48.69,61.38-154.65,61.38-154.65l17.85-145.98-7.66-52.43Z" style="fill:#223f81; fill-rule:evenodd;"/><path d="M296.85,581.73c3.93,12.51,5.79,11.35,6.25,12.97,.54,1.87-6.94,27.5-6.94,27.5,0,0-21.61,75.51-22.93,79.58l-51.42,61.93,22.46,34.9s54.21-68.91,56.42-73.03c2.24-4.07,19.93-109.68,21.77-118.95,0,0,6.16-10.2,9.81-16.72,3.66-6.52,4.3-14.42,5.06-16.41,.12-.3,2.26-7.09,2.73-16.22,.4-7.85-3.48-.58-3.48-.58,0,0-3.27,14.4-4.32,13.98-.81-.34,1.42-8.15,1.96-16.85,.14-2.22,.26-4.43,.36-6.42,.26-5.31-2.83-7.01-3.96-1.48-.41,1.94-.98,5.22-1.1,7.6-.12,2.54-1.01,4.89-1.43,7.05-.82,4.25-1.36,7.37-1.52,7.23-.2-.18-.93,.55-.86-1.82,.09-2.87,1.57-8.89,1.4-13.08-.11-2.39-.02-7.39-.02-7.39,0,0-1.25-7.56-1.71-7.64-2.46-.38-3.03,5.04-2.46,8.28-.68,2.26-.61,7.51-.61,7.51,0,0-2.19,10.64-3.66,10.35-.63-.1-.05-6.84-.48-13.5-.4-6.18-1.79-12.35-2.99-12.46-2.04-.18-2.3,6.77-2.3,6.77,0,0,.06,4.86-.03,6.47-.12,1.89-.88,7.55-.88,7.55,0,0-3.55,19.55-4.92,19.14-1.38-.41-4.48-2.87-4.66-4.15-.2-1.28,.66-3.84,.49-5.12-.2-1.28-1.52-2.8-3.06-2.69-1.55,.12-2.97,6.73-2.97,6.73,0,0-1.12,5.35,.02,8.98Z" style="fill:#fab688; fill-rule:evenodd;"/><path d="M248.08,728.42c-2.49-.16-59.37,50.32-57.43,65.64,1.92,15.34,28.13,35.53,44.67,22.53,16.52-13.05,46.8-58.97,46.8-58.97,0,0-26.01-28.72-34.04-29.2Z" style="fill:#6d96ce; fill-rule:evenodd;"/><path d="M222.56,768.34c.69,.48,23.89,33.92,25.4,60.62,2.75,48.84-7.65,131.16-15.95,135.38-66.55,33.79-95.14,22.58-95.14,22.58,0,0,1.92-150.08,12.12-185.84,4.26-14.85,10.35-28,25.45-33.17,3.44-1.22,31.99-10.77,48.12,.43Z" style="fill:#6d96ce; fill-rule:evenodd;"/><path d="M214.47,741.4l8.26,28.12s2.15,7.89-1.28,11.74c-5.88,6.7-36.42-16.22-36.42-16.22l-5.28-45.65,34.73,22.01Z" style="fill:#fab688; fill-rule:evenodd;"/><path d="M181.33,733.14c9.62,17.18,28.07,22.98,37.37,22.68l-4.23-14.42-34.73-22.01,1.59,13.75Z" style="fill:#f27458; fill-rule:evenodd;"/><path d="M185.66,671.41c12.39-7.76,28.82-2.09,34.07,11.33,2.29,5.78,4.85,13.22,6.91,21.45,4.97,19.88-.88,41.7-9.94,43.77-9.05,2.11-37.08-5.04-44.53-33.13-4.6-17.38,.47-35.27,13.48-43.42Z" style="fill:#fab688; fill-rule:evenodd;"/><path d="M179.37,715.51c1.03,4.42-1.09,8.63-4.68,9.5-3.59,.8-7.34-2.08-8.36-6.51-1-4.37,1.08-8.63,4.68-9.44,3.59-.87,7.33,2.03,8.36,6.45Z" style="fill:#fab688; fill-rule:evenodd;"/><path d="M171.02,709.06s-3.71-9.21-4.48-18.61c-.74-9.35,4.57-23.67,13.59-27.26,9-3.59,31.48-3.94,33.24-10.39,1.76-6.45,1.86-5.87,2.67-6.95,1.83-2.51,16.49,3.9,18.68,19.63,2.21,15.72-11.66,17.65-14.24,18.56-2.6,.95-28.81-4.98-36.16-3.18-7.36,1.76-13.29,28.2-13.29,28.2Z" style="fill:#20386f; fill-rule:evenodd;"/><path d="M47.56,606.62c-1.43,13.03-3.48,12.26-3.61,13.93-.17,1.95,12.16,25.62,12.16,25.62,0,0,35.87,69.87,37.95,73.61l62.48,50.77-15.26,38.59s-66.56-57.06-69.53-60.67c-2.98-3.56-40.86-103.72-44.47-112.45,0,0-8.02-8.81-12.87-14.49-4.85-5.68-7.02-13.31-8.15-15.12-.17-.27-3.59-6.51-5.83-15.38-1.91-7.63,3.31-1.25,3.31-1.25,0,0,6.01,13.49,6.96,12.88,.73-.5-2.98-7.72-5.19-16.15-.57-2.15-1.12-4.3-1.61-6.23-1.29-5.16,1.41-7.42,3.6-2.22,.78,1.83,1.98,4.93,2.56,7.24,.61,2.47,1.94,4.61,2.78,6.64,1.63,4.02,2.77,6.97,2.9,6.8,.16-.22,1.01,.36,.49-1.95-.65-2.8-3.28-8.41-3.92-12.55-.36-2.37-1.41-7.26-1.41-7.26,0,0-.24-7.66,.18-7.82,2.35-.85,3.95,4.35,4.03,7.64,1.1,2.08,2.06,7.25,2.06,7.25,0,0,4.22,10.02,5.6,9.45,.59-.23-1.28-6.72-2.16-13.34-.81-6.14-.65-12.46,.52-12.8,1.96-.58,3.56,6.19,3.56,6.19,0,0,.89,4.79,1.29,6.34,.49,1.82,2.33,7.25,2.33,7.25,0,0,7.28,18.48,8.55,17.81,1.27-.67,3.83-3.68,3.76-4.98-.06-1.3-1.39-3.64-1.47-4.93-.06-1.3,.94-3.04,2.48-3.23,1.54-.19,4.22,6.02,4.22,6.02,0,0,2.13,5.03,1.72,8.82Z" style="fill:#fab688; fill-rule:evenodd;"/><path d="M123.91,741.03c2.41-.63,25.76,27.86,59.74,31.03,1.1,15.41-7.32,94.84-26.06,85.31-12.25-30.07-61.39-81.08-61.39-81.08,0,0,19.93-33.23,27.71-35.26Z" style="fill:#6d96ce; fill-rule:evenodd;"/><path d="M1232.27,1364.87c-8.18,.77-.44,6.85-5.72,8.49-11.92-5.91-19.07-23.04-24.04-30.53-2.61-3.94-4.18,1.27-5.16,7.07-2.06,12.21-1.39,28.11,1.59,33.41-3.47-2.07-6.76-5.05-8.76-10.13-7.15,.77-1.32,6.85-5.94,8.49-10.42-5.91-15.73-23.04-20.06-30.53-2.28-3.94-3.66,1.27-4.51,7.07-1.83,12.46-1.19,26.88,1.55,31.83,3.35-1.06,3.87-13.43,5.32-20.49,10.36,9.71,7.63,21.04,13.7,24.59,14.29,1.15,15.97,5.16,32.81,1.02,1.35-7.12-6.6-7.48-13.85-11.7,1.94-3.95,3.3-15.26,4.94-22.23,11.85,9.72,9.8,21.05,16.75,24.6,16.35,1.15,25.18,1.24,37.55,1.01,2.29-10.61-19.07-6.21-26.17-21.98Z" style="fill:#0e2952; fill-rule:evenodd;"/><path d="M1151.43,795.16c-.91,4.46-2.21,7.95-3.88,10.48-3.34,1.59-7.12,4.84-11.31,9.73-4.18-.82-8.66-2.4-13.44-4.73-18.96-31.37-36.51-59.07-52.68-83.09-.22,15.96-7.77,21.66-22.63,17.06,29.84,56.38,48.1,87.88,54.8,94.49,11.69,16.24,24.42,27.62,38.2,34.13,27.39,31.03,28.99,69.11,4.82,114.25,51.13,7.67,74.5-13.23,70.1-62.69-5.85-37.42-15.74-73.4-29.67-107.95-17.1-6.69-28.54-13.92-34.31-21.7Z" style="fill:#6d96ce; fill-rule:evenodd;"/><path d="M1206.41,812.18c.2-6.26-1.97-18.56-13.91-30.79,5.02,1.27,10.12,3.05,15.3,5.33,1.6-.31,4.54-.65,8.81-1.02,6.45-7.49,11.21-17.97,14.28-31.44,4.44-23.65,7.82-50.63,10.11-80.96,8.04,4.91,23.3,5.49,27.08,3.34-4.65,56.49-12.28,95.49-22.91,116.98-4.14,11.54-.98,22.36-4.08,38.03,16.46,20.43,22.64,38.85,18.55,55.27-8.97,20.37-2.85,51.34,18.36,92.92-36.07,5.58-53.38-10.56-51.93-48.41-3.85-48.53-11.88-93.11-19.66-119.26Z" style="fill:#6d96ce; fill-rule:evenodd;"/><path d="M1211.19,963.31c6.24-.22,13.02-.2,20.34,.07-4.15-7.95-5.97-18.59-5.46-31.94-3.42-43.15-10.15-83.16-17.06-109.88-5.62,6.01-12.11,7.67-19.47,4.99,11.95,31.57,20.58,64.32,25.88,98.25,1.4,15.72-.01,28.56-4.23,38.5Z" style="fill:#fff; fill-rule:evenodd;"/><path d="M1259.42,1205.38c17.25-85.45,26.01-161.19,10.12-224.6-18.68,1.15-31.35-4.65-38.01-17.4-7.32-.26-14.1-.29-20.34-.07-8.44,19.93-28.14,28.29-59.1,25.05-21.55,40.94-5.27,69.51,5.39,107.8,7.82,28.1,9.68,60.26,3.1,111.09-3.77,22.95-3.64,66.1,.37,129.46,11.85,2.38,21.62,.96,29.3-4.26-2.32-41.34,1.51-82.39,11.5-123.16,9.67-42.25,14.12-87.75,13.36-136.5,7.82,60.23,7.69,105.12-.37,134.65-8.06,34.87-12.51,75.92-13.35,123.16,9.38,3.74,17.67,3.49,24.85-.74,9.62-53.78,12.65-93.41,33.2-124.45Z" style="fill:#20386f; fill-rule:evenodd;"/><path d="M1191.2,783.28c-4.36,16.22-15.89,20.09-34.59,11.61l4.19,9.14c6.21,4.48,14.53,8.75,24.94,12.83,1.3,3.22,2.56,6.45,3.79,9.7,7.36,2.68,13.85,1.02,19.47-4.99-.87-3.34-1.73-6.48-2.59-9.38,.15-4.73-1.05-12.9-6.79-21.88-2.45-1.12-5.25-3.46-8.42-7.02Z" style="fill:#f9af79; fill-rule:evenodd;"/><path d="M1156.61,794.89c15.31,4.17,26.85,.3,34.59-11.61,.44-.68,.87-1.38,1.28-2.11-.4-4.74,.3-11.77,2.09-21.12-7.03-4.03-13.27-13.92-18.73-29.67-4.54,1.9-8.86-.75-12.98-7.98-6.07,13.62-15.71,21.29-28.93,23,3.43,9.7,4.11,18.17,2.04,25.41,8.18,7.38,13.19,14.8,15.02,22.25,1.92,.72,3.8,1.33,5.62,1.83Z" style="fill:#f9af79; fill-rule:evenodd;"/><path d="M1160.8,804.04l-4.19-9.14c-1.82-.5-3.69-1.11-5.62-1.83,.17,.7,.32,1.4,.44,2.1,2.26,3.04,5.38,6,9.37,8.87Z" style="fill:#466fb5; fill-rule:evenodd;"/><path d="M1191.2,783.28c3.17,3.56,5.97,5.9,8.42,7.02-1.86-2.91-4.19-5.91-7.12-8.91,0-.07-.01-.14-.02-.21-.42,.73-.84,1.43-1.28,2.11Z" style="fill:#466fb5; fill-rule:evenodd;"/><path d="M1129.62,813.54c2.28,.81,4.49,1.42,6.61,1.84,4.2-4.9,7.97-8.14,11.31-9.73,1.68-2.53,2.97-6.02,3.88-10.48-.12-.69-.26-1.39-.44-2.1-1.84-7.45-6.85-14.87-15.02-22.25,2.07-7.25,1.39-15.71-2.04-25.41,13.22-1.71,22.87-9.38,28.93-23,4.12,7.22,8.45,9.88,12.98,7.98,5.46,15.75,11.7,25.64,18.73,29.67-1.79,9.35-2.49,16.38-2.09,21.12,0,.07,.01,.15,.02,.21,5.02,1.27,10.12,3.05,15.3,5.33,1.17-.23,3.07-.47,5.68-.73-2.54-3.1-5.39-7.88-8.56-14.34,2.1-5.22,1.67-11.96-1.29-20.22-5.68-35.48-19.9-48.9-42.66-40.25-21.52-7.87-35.31,4.81-41.36,38.02-10.86,8.41,7.58,32.16,8.53,47.12-.12,6.92,.37,12.66,1.48,17.21Z" style="fill:#1b2452; fill-rule:evenodd;"/><path d="M1206.41,812.18c4.42,2.88,8.07,5.82,10.93,8.81,.12-11.52-3.29-23.04-10.23-34.57-4.94-2.14-9.81-3.82-14.61-5.03,2.92,3,5.26,6,7.12,8.91,5.74,8.98,6.94,17.16,6.79,21.88Z" style="fill:#466fb5; fill-rule:evenodd;"/><path d="M1177.93,835.74c2.19-8.27,4.8-14.56,7.82-18.88-10.42-4.07-18.73-8.35-24.94-12.83-3.99-2.88-7.12-5.83-9.37-8.87-.91,4.46-2.21,7.95-3.88,10.48,9.98,16.03,20.11,26.06,30.38,30.1Z" style="fill:#466fb5; fill-rule:evenodd;"/><path d="M1202.53,1342.87c4.96,7.52,12.12,24.59,24.01,30.49,4.42-1.38-.27-5.85,2.86-7.73-3.93-9.22-6.03-20.64-6.29-34.24-5.61,2.33-11.84,2.42-18.69,.28-.48,3.71-1.11,7.45-1.89,11.2h0Zm-36.46-5.36c.69,6.72,.55,12.2-.4,16.47,4.09,8.33,9.32,22.44,18.57,27.69,3.8-1.36,.52-5.72,3.24-7.64-3.2-9.55-4.15-22.41-2.86-38.59-5.38,2.16-11.57,2.85-18.55,2.07Z" style="fill:#f9af79; fill-rule:evenodd;"/><path d="M1156.6,794.89c17.21,11.09,35.7,6.98,34.6-11.61-7.74,11.91-19.28,15.77-34.6,11.61Z" style="fill:#ed7d57; fill-rule:evenodd;"/><path d="M1234.92,635.16c6.68,10.35,8.17,8.82,8.96,10.21,.98,1.56,.23,26.56,.23,26.56l-.11,2.89c6.47,2.7,15.34,3.46,20.57,2.78-.01-8.84,.33-25.29,.28-26.2,0,0,3.25-10.74,5.07-17.54,1.81-6.81,.49-14.05,.71-16.07,.01-.28,.37-6.99-1.45-15.31-1.5-7.22-3.33,.28-3.33,.28,0,0,.44,13.86-.64,13.69-.86-.1-.66-7.68-2.27-15.66-.42-2.06-.85-4.06-1.26-5.89-1.05-4.87-4.31-5.67-4.05-.38,.1,1.87,.37,4.94,.85,7.1,.5,2.39,.23,4.71,.37,6.75,.27,4.04,.5,7.02,.34,6.93-.2-.13-.73,.74-1.23-1.43-.63-2.61-.69-8.4-1.9-12.18-.67-2.14-1.82-6.65-1.82-6.65,0,0-2.67-7.16-3.12-7.09-2.37,.23-1.92,5.91-.61,8.65-.1,2.22,1.25,6.93,1.25,6.93,0,0,.56,10.19-.87,10.29-1.2,.11-7.27-24.03-9.62-23.65-1.94,.36-.45,7.71-.45,7.71,0,0,1.26,4.37,1.55,5.86,.35,1.74,1.01,7.06,1.01,7.06,0,0,1.46,18.5,.08,18.5-1.38,0-4.87-1.49-5.35-2.61-.49-1.12-.3-3.65-.81-4.72-.49-1.12-2.1-2.16-3.5-1.7-1.43,.52-1.13,6.8-1.13,6.8,0,0,.28,5.09,2.22,8.07Z" style="fill:#f9af79; fill-rule:evenodd;"/><path d="M1252.7,640.71c-1.36-5.32-4.25-9.22-9.24-11.41,6.21-.14,10.24,6.26,9.24,11.41Z" style="fill:#f48661; fill-rule:evenodd;"/><path d="M1062.95,698.51c-1.41,12.24-3.42,11.52-3.51,13.11-.15,1.46,7.21,15.66,10.25,21.47-1.52,9.83-6.99,14.12-16.41,12.84-4.06-8.07-9.68-18.91-9.98-19.63,0,0-7.66-8.19-12.3-13.48-4.64-5.32-6.66-12.39-7.75-14.1-.13-.25-3.43-6.1-5.48-14.37-1.84-7.15,3.11-1.23,3.11-1.23,0,0,5.73,12.62,6.63,12,.73-.48-2.81-7.18-4.89-15.05-.53-2.03-1.03-4.01-1.47-5.84-1.22-4.83,1.36-6.99,3.47-2.12,.73,1.72,1.86,4.59,2.37,6.75,.61,2.36,1.89,4.32,2.66,6.21,1.55,3.75,2.66,6.53,2.75,6.38,.13-.21,.98,.33,.47-1.84-.58-2.61-3.08-7.84-3.68-11.76-.34-2.22-1.31-6.77-1.31-6.77,0,0-.77-7.61-.33-7.74,2.22-.84,4.33,4.45,4.36,7.49,1.08,1.95,1.95,6.77,1.95,6.77,0,0,4,9.39,5.33,8.85,1.12-.44-4.1-24.77-1.84-25.47,1.9-.54,3.82,6.72,3.82,6.72,0,0,.81,4.47,1.2,5.94,.46,1.71,2.22,6.77,2.22,6.77,0,0,6.87,17.24,8.1,16.63,1.24-.61,3.71-3.48,3.64-4.71-.06-1.23-1.35-3.41-1.36-4.59-.06-1.23,.92-2.87,2.38-3.07,1.51-.17,4.02,5.6,4.02,5.6,0,0,2,4.68,1.57,8.22Z" style="fill:#f9af79; fill-rule:evenodd;"/><path d="M1049.46,711.35c-1.14-5.38-.28-10.15,3.23-14.31-5.62,2.62-6.4,10.13-3.23,14.31Z" style="fill:#f48661; fill-rule:evenodd;"/><path d="M888.67,1339.13l1.56,27.48c.56,3.47,2.81,12.07,2.81,15.25,0,11.89-52.89-10.07-41.05-15.36,1.09-.47,8.37-6.77,8.72-10.83,.54-6.24,.27-16.12,.27-16.12l27.69-.41Z" style="fill:#f9af79; fill-rule:evenodd;"/><path d="M852.14,1366.38s12.41,3.65,18.77,4.54c6.35,.94,14.76-6.71,19.25-4.65,4.94,2.29,5.28,28.48,5.28,28.48,0,0-65.11,4.95-81.77,.18-7.48-2.18,13.08-20.07,38.47-28.54Z" style="fill:#0e2952; fill-rule:evenodd;"/><path d="M786.68,1339.13l1.56,27.48c.58,3.47,2.83,12.07,2.83,15.25,0,11.89-52.9-10.07-41.04-15.36,1.07-.47,8.35-6.77,8.71-10.83,.54-6.24,.25-16.12,.25-16.12l27.69-.41Z" style="fill:#f9af79; fill-rule:evenodd;"/><path d="M750.15,1366.38s12.42,3.65,18.78,4.54c6.35,.94,14.74-6.71,19.24-4.65,4.96,2.29,5.28,28.48,5.28,28.48,0,0-65.09,4.95-81.75,.18-7.5-2.18,13.05-20.07,38.45-28.54Z" style="fill:#0e2952; fill-rule:evenodd;"/><path d="M741.93,619.93c-1.7,13.42-3.83,12.54-3.99,14.3-.22,2,12.03,26.6,12.03,26.6,0,0,35.63,72.62,37.67,76.51l63.38,53.44-16.43,39.44s-67.44-59.98-70.45-63.74c-2.99-3.77-40.1-107.58-43.65-116.59,0,0-8.07-9.24-12.97-15.24-4.89-5.95-6.99-13.77-8.12-15.71-.17-.24-3.56-6.77-5.7-15.95-1.83-7.88,3.4-1.17,3.4-1.17,0,0,5.95,14,6.94,13.36,.76-.53-2.92-8.01-5.04-16.71-.54-2.24-1.06-4.42-1.55-6.48-1.24-5.3,1.6-7.59,3.75-2.18,.76,1.88,1.95,5.06,2.5,7.47,.58,2.59,1.92,4.77,2.73,6.89,1.61,4.18,2.72,7.24,2.86,7.06,.17-.18,1.06,.41,.55-2-.61-2.82-3.23-8.71-3.8-13-.33-2.41-1.3-7.47-1.3-7.47,0,0-.1-7.89,.34-8.07,2.43-.82,3.98,4.59,4.01,7.95,1.08,2.12,1.97,7.48,1.97,7.48,0,0,4.15,10.42,5.6,9.89,.62-.24-1.19-6.94-1.98-13.78-.71-6.35-.43-12.89,.77-13.18,2.04-.58,3.56,6.42,3.56,6.42,0,0,.81,4.95,1.22,6.53,.45,1.94,2.25,7.53,2.25,7.53,0,0,7.15,19.13,8.47,18.48,1.3-.64,4.02-3.71,3.96-5.06-.04-1.3-1.38-3.77-1.41-5.06-.05-1.35,1.01-3.12,2.61-3.29,1.59-.18,4.22,6.3,4.22,6.3,0,0,2.1,5.24,1.62,9.06Z" style="fill:#f9af79; fill-rule:evenodd;"/><path d="M1060.79,645.77c-.74,13.48,1.48,13.06,1.33,14.77-.16,2.06-16.66,23.95-16.66,23.95,0,0-48.2,65.03-50.92,68.44l-72,41.08,9,41.79s77.21-46.79,80.84-49.97c3.64-3.12,58.93-98.52,64.06-106.76,0,0,9.63-7.6,15.52-12.6,5.89-4.95,9.38-12.3,10.83-13.95,.22-.23,4.74-6.06,8.49-14.66,3.25-7.41-3.13-1.82-3.13-1.82,0,0-8.39,12.71-9.24,11.88-.64-.65,4.31-7.29,8-15.47,.94-2.12,1.84-4.18,2.68-6.13,2.19-5-.18-7.77-3.28-2.82-1.08,1.7-2.84,4.65-3.8,6.88-1.05,2.47-2.75,4.36-3.93,6.3-2.36,3.83-4.01,6.59-4.12,6.42-.12-.23-1.1,.23-.16-2.06,1.12-2.71,4.73-7.95,6.09-12.07,.76-2.35,2.64-7.12,2.64-7.12,0,0,1.55-7.77,1.13-8.01-2.24-1.3-4.75,3.77-5.38,7.06-1.45,1.89-3.29,7.01-3.29,7.01,0,0-5.98,9.48-7.28,8.71-.57-.35,2.43-6.65,4.44-13.18,1.85-6.12,2.75-12.59,1.63-13.13-1.91-.88-4.68,5.65-4.68,5.65,0,0-1.69,4.71-2.37,6.24-.8,1.82-3.59,6.94-3.59,6.94,0,0-10.51,17.6-11.68,16.71-1.18-.88-3.28-4.41-2.99-5.71,.29-1.3,2.05-3.47,2.33-4.77,.28-1.29-.43-3.23-1.99-3.71-1.54-.41-5.29,5.41-5.29,5.41,0,0-3.01,4.77-3.22,8.65Z" style="fill:#f9af79; fill-rule:evenodd;"/><path d="M873.35,990.24s-80.13,190.69-83.09,207.82c-2.16,12.6,.63,155.2,.63,155.2l-37.89-.59-13.29-162.96,49.86-205.52,83.79,6.06Z" style="fill:#0e2952; fill-rule:evenodd;"/><polygon points="908.57 999.19 872.06 1210.94 895.91 1352.66 852.78 1352.66 818.87 1200.29 814.22 1033.32 831.69 979.59 908.57 999.19" style="fill:#20386f; fill-rule:evenodd;"/><path d="M803.92,747.82s-9.48,42.67-16.12,49.32c0,0,33.87,22.6,32.29,31.6-1.57,8.95-37.5,176.56-37.5,176.56,0,0,73.99,38.55,120.01,32.37,0,0,34.65-190.98,43.61-199.93,8.96-8.94,36.8-23.13,36.8-23.13,0,0-20.81-39.96-20.81-47.08,0,0-49.41,23.01-57.75,31.31-8.35,8.36-24.49-2.18-28.4-3.88,0,0-66.2-43.5-72.14-47.15Z" style="fill:#6d96ce; fill-rule:evenodd;"/><path d="M897.94,760.01l6.26,39.19s-16.44,27.37-29.59,23.31c-11.05-3.42-10.09-25.07-10.09-25.07,0,0,6.01-22.31,4.2-33.55-1.79-11.18,29.21-3.88,29.21-3.88Z" style="fill:#f9af79; fill-rule:evenodd;"/><path d="M868.73,763.89c-1.79-11.18,29.21-3.88,29.21-3.88l.49,3.29c-.91,2.18-2.02,4.06-3.36,5.53-6.93,7.36-17.75,11.83-27.11,12.19,.93-6.07,1.51-12.54,.76-17.13Z" style="fill:#f27458; fill-rule:evenodd;"/><path d="M903.03,704.09c.87-.29,7.01,45.03-4.66,57.5-11.66,12.48-34.39,16.54-42.54,6.71-9.02-10.83-8.57-59.56,9.56-72.39,18.15-12.83,37.63,8.18,37.63,8.18Z" style="fill:#f9af79; fill-rule:evenodd;"/><path d="M901.98,679.14c6.35,.77,17.48,9.59,26.43,24.31,10.98,18.07-2.83,40.26-15.61,50.08-12.81,9.77-12.53,21.19-12.53,21.19l-2.1-5.89c-1.51-4.47-2.1-9.18-1.62-13.83,.31-2.82,.91-5.83,2.07-8.35,3.07-6.54-6.62-10.89-9.32-16.36-2.1-4.18-2.19-13.83-5.49-20.78l-3.95-5.3s-11.1,1-17.95-5c-19.63-17.24,10.36-40.02,40.06-20.07Z" style="fill:#0e2952; fill-rule:evenodd;"/><path d="M889.9,738.34c-.1,5.53,2.43,10.07,5.65,10.12,3.2,.06,5.89-4.35,5.98-9.88,.09-5.54-2.43-10.07-5.65-10.13-3.21-.06-5.89,4.36-5.98,9.89Z" style="fill:#f9af79; fill-rule:evenodd;"/><path d="M379.51,455.71c2.54-17.25,5.07-34.48,7.6-51.72,2.53-17.25,5.07-34.49,7.61-51.74,25.21-2.93,50.49-5.71,75.58-8.37-.57,5.94-1.27,11.87-1.9,17.79-17.93,1.79-35.86,3.59-53.79,5.56-1.08,8.23-2.28,16.46-3.35,24.71,15.65-1.64,31.36-3.12,46.94-4.57-.63,5.91-1.33,11.82-1.96,17.75-15.71,1.39-31.56,2.8-47.33,4.39-1.01,7.36-2.06,14.72-3.04,22.09-.98,7.35-1.96,14.73-2.97,22.07-7.86,.69-15.65,1.39-23.38,2.05h0Zm123.93-9.52c1.59-17.71,3.13-35.41,4.75-53.14,1.62-17.7,3.1-35.42,4.76-53.14,7.34-.62,14.69-1.25,22.1-1.87-1.46,17.81-2.81,35.63-4.24,53.45-1.43,17.81-2.73,35.62-4.18,53.43-7.79,.44-15.52,.85-23.19,1.27h0Zm71.47-3.61c1.08-18,2.06-36.02,3.04-54.02,.98-18,2.09-36,3.04-54.02,7.1-.47,14.13-.9,21.29-1.34,6.97,11.68,13.91,23.43,21.04,35.19,7.19,11.88,14.51,23.77,21.92,35.7,.25-12.22,.63-24.46,.89-36.67,.26-12.21,.51-24.46,.89-36.69,6.71-.34,13.49-.66,20.27-.93-.25,18.32-.45,36.63-.7,54.94-.25,18.32-.5,36.62-.76,54.93-7.73,.16-15.46,.39-23.13,.6-7.47-11.74-14.74-23.49-21.92-35.17-7.13-11.61-14.26-23.14-21.1-34.65-.63,11.88-1.14,23.76-1.71,35.65-.57,11.88-1.08,23.77-1.65,35.65-7.1,.26-14.26,.53-21.42,.83h0Zm140.84-3.83c-.13-18.44-.35-36.86-.51-55.28-.15-18.44-.38-36.85-.57-55.28,7.29-.2,14.64-.41,21.99-.58,.32,18.49,.76,36.96,1.14,55.42,.38,18.48,.76,36.95,1.14,55.41-7.8,.08-15.46,.2-23.19,.31h0Zm63.99-36.62c7.29-.74,14.7-1.49,22.05-2.24,1.71,7.28,4.64,12.61,8.94,16.05,4.25,3.41,9.82,5.13,16.86,5.13,7.41,0,12.86-1.52,16.35-4.54,3.48-3.03,5.16-6.57,4.81-10.62-.22-2.63-1.12-4.86-2.79-6.7-1.69-1.86-4.5-3.43-8.49-4.79-2.73-.93-8.81-2.55-18.37-4.92-12.17-3.01-20.88-6.61-25.98-10.99-7.07-6.08-10.66-13.58-11.09-22.37-.27-5.65,1.06-10.99,3.99-15.91,2.96-4.95,7.29-8.69,13.05-11.29,5.7-2.57,12.86-3.85,21.16-3.75,13.49,.17,24,3.4,31.36,9.62,7.46,6.3,11.66,14.53,12.92,24.72-7.53,.15-14.95,.26-22.43,.46-1.27-5.7-3.62-9.79-6.91-12.34-3.24-2.51-7.98-3.84-14.19-3.91-6.27-.07-11.29,1.23-14.76,3.94-2.17,1.7-3.18,4.01-3.04,6.91,.12,2.64,1.36,4.86,3.67,6.72,2.94,2.37,9.89,4.93,20.97,7.58,10.96,2.62,19.19,5.36,24.58,8.1,5.57,2.84,9.9,6.62,13.3,11.37,3.44,4.81,5.42,10.64,6.02,17.57,.55,6.29-.8,12.21-3.99,17.69-3.21,5.51-8,9.55-14.51,12.26-6.47,2.69-14.7,4.04-24.65,4.06-14.51,.02-25.89-3.16-33.9-9.59-8.02-6.44-12.98-15.82-14.95-28.21h0Zm140.72,35.86c-1.84-18.09-3.8-36.18-5.7-54.26-1.9-18.1-3.87-36.17-5.7-54.28,7.35,.29,14.76,.6,22.18,1.04,.82,7.07,1.65,14.13,2.47,21.18,.82,7.07,1.65,14.12,2.41,21.17,14.76,.5,29.46,.99,44.22,1.63-.95-6.9-1.87-13.8-2.85-20.67-.98-6.89-1.9-13.8-2.79-20.7,7.42,.51,14.96,1.06,22.44,1.55,2.53,17.27,5.12,34.52,7.66,51.77,2.53,17.27,5.13,34.52,7.66,51.78-7.79-.01-15.65-.04-23.38-.04-1.08-7.66-2.16-15.31-3.17-22.97-1.01-7.65-2.09-15.3-3.1-22.96-14.89-.47-29.71-.84-44.6-1.21,1.01,7.84,1.91,15.66,2.79,23.52,.88,7.84,1.77,15.67,2.78,23.51-7.85-.01-15.58-.04-23.31-.06Z" style="fill:#fff; fill-rule:evenodd;"/></svg>