<?xml version="1.0" encoding="UTF-8"?><svg id="a" xmlns="http://www.w3.org/2000/svg" viewBox="0 0 1883.4 1638.81"><path d="M916.19,63.81c229.49,0,326.17,164.19,491.84,291.83,219.27,168.93,438.52,58.96,473.63,629.75,31.25,508.01-358.66,55-908.41,236.97C423.49,1404.34-136.42,1477.62,29.73,888.84,195.86,300.06,382.98,63.81,916.19,63.81Z" style="fill:#e0e8f5; fill-rule:evenodd;"/><path d="M296.01,1112.35H40.07c1.84-7.77,8.82-13.56,17.15-13.56,.4,0,.8,.02,1.2,.05,4.04-9.89,13.76-16.87,25.11-16.87,4.97,0,9.62,1.33,13.62,3.66,4.88-16.09,19.83-27.81,37.52-27.81,3.6,0,7.08,.49,10.39,1.4,8.56-18.9,27.59-32.05,49.69-32.05,26.21,0,48.1,18.5,53.33,43.17,.44-.02,.88-.03,1.32-.03,16.79,0,30.64,12.55,32.69,28.79,6.85,1.29,12.31,6.52,13.9,13.26Z" style="fill:#fff; fill-rule:evenodd;"/><path d="M822.6,604.39h-255.94c1.84-7.78,8.82-13.56,17.16-13.56,.4,0,.81,.02,1.2,.05,4.04-9.89,13.76-16.88,25.12-16.88,4.96,0,9.61,1.35,13.61,3.67,4.88-16.09,19.83-27.81,37.51-27.81,3.6,0,7.09,.49,10.39,1.4,8.56-18.91,27.59-32.05,49.69-32.05,26.21,0,48.1,18.51,53.33,43.17,.45-.02,.88-.03,1.33-.03,16.79,0,30.65,12.55,32.7,28.78,6.85,1.29,12.3,6.52,13.9,13.26Z" style="fill:#fff; fill-rule:evenodd;"/><path d="M1310.12,1004.21h-255.93c1.84-7.78,8.82-13.57,17.16-13.57,.4,0,.81,.01,1.2,.05,4.04-9.89,13.76-16.87,25.11-16.87,4.97,0,9.62,1.34,13.61,3.67,4.89-16.08,19.83-27.8,37.52-27.8,3.6,0,7.09,.49,10.4,1.4,8.56-18.91,27.58-32.05,49.69-32.05,26.21,0,48.1,18.5,53.33,43.16,.45-.02,.88-.03,1.33-.03,16.79,0,30.65,12.56,32.7,28.79,6.85,1.28,12.31,6.52,13.89,13.26Z" style="fill:#fff; fill-rule:evenodd;"/><path d="M885.95,1638.81c372.95,0,677.13-23.25,677.13-51.75s-304.18-51.75-677.13-51.75-677.12,23.25-677.12,51.75,304.18,51.75,677.12,51.75Z" style="fill:#c4d1eb; fill-rule:evenodd;"/><path d="M991.88,795.12c16.28,72.59-61.37,109.91-14.91,227.9-34.47,5.35-75,5.9-121.58,1.64,2.6,13.06,4.63,24.72,6.14,33.5-9.72-.38-19.09-3.27-29.81,10.22l-.34-.57-.34-.59-.26-.46-.08-.14-.34-.6-.35-.6-.19-.33-.16-.29-.7-1.25-.1-.19-.6-1.09-.36-.66-.02-.04-.34-.62-.36-.67-.31-.56-.05-.12-.05-.09-.67-1.28-.22-.42-.15-.28-.36-.7-.38-.71-.13-.26-.23-.45-.38-.73-.37-.73-.05-.09-.33-.64-.37-.74-.35-.67-.03-.08-.38-.75-.39-.76-.25-.51-.13-.26-.38-.77-.38-.78-.17-.34-.22-.44-.71-1.44-.06-.14-.08-.15-.31-.64-.39-.81-.38-.77v-.03s-.4-.81-.4-.81l-.39-.82-.29-.6-.1-.22-.4-.82-.39-.84-.2-.42-.59-1.25-.4-.84-.1-.23-.29-.62-.39-.85-.39-.85-.02-.03-.77-1.69-.32-.7-.08-.17-.4-.88-.4-.88-.22-.5-.17-.38-.4-.88-.4-.88-.13-.29-.26-.6-.4-.88-.39-.9-.04-.09-.35-.81-.4-.9-.34-.77-.05-.12-.4-.91-.4-.91-.25-.57-.14-.33-.69-1.62-.25-.58-1.08-2.54-.05-.12-1.02-2.43-.35-.84-.68-1.64-.04-.09-.02-.06c-.66-1.6-1.31-3.19-1.96-4.8l-.12-.32-.54-1.34-.5-1.25-.16-.41-.87-2.19-.44-1.13-.58-1.47-.07-.19-.64-1.67-.29-.75-.35-.91-.64-1.67v-.02s-.13-.32-.13-.32l-.83-2.19-.04-.11-.26-.68-.62-1.67-.09-.25-.95-2.6-.17-.46-.6-1.65-.17-.47-.42-1.18-.5-1.39-.09-.25-.58-1.63-.24-.68-.33-.95-.55-1.6v-.03s-.56-1.62-.56-1.62l-.3-.88-.24-.74-.54-1.6-.06-.18-.47-1.42-.36-1.08-.16-.51-.51-1.57-.12-.39-.38-1.18-.4-1.26-.09-.29-.48-1.55-.18-.59-.29-.95-.43-1.44-.02-.08-.45-1.52-.22-.77-.22-.74-.42-1.49-.03-.11-.14-.48c-.36-1.29-.71-2.55-1.05-3.8l-.08-.29-.3-1.13-.29-1.1-.08-.33-.35-1.39-.12-.47-.05-.19-.48-1.97-.03-.12-.41-1.76-.05-.22-.16-.71-.29-1.31v-.05c-.29-1.29-.55-2.54-.78-3.77l-.04-.22-.05-.29-.26-1.39-.05-.24-.05-.31-.25-1.46-.03-.22c-.18-1.13-.34-2.23-.48-3.3l-.05-.36-.17-1.49v-.52s-.02-.52-.02-.52v-.52s-.02-.52-.02-.52v-.51s-.01-.52-.01-.52l-.07-4.6v-.5s-.01-.5-.01-.5v-.5s-.02-.5-.02-.5v-.5s-.01-.5-.01-.5v-.5s-.01-.5-.01-.5v-.5s-.01-.5-.01-.5v-.5s-.02-.5-.02-.5v-.5s-.01-.5-.01-.5v-.49s-.03-1.97-.03-1.97v-.49s-.02-.49-.02-.49v-.49s0-.49,0-.49v-.46s0-.01,0-.01v-.48s-.01-.49-.01-.49v-.96s-.01-.48-.01-.48v-.48s-.01-.48-.01-.48v-.95s-.01-.48-.01-.48l-.03-2.84v-.46s0-.47,0-.47v-.47s0-.22,0-.22v-.25s0-.46,0-.46v-.46s-.01-.46-.01-.46v-.46s0-.46,0-.46h0c-1.52-182.42,12.02-161.85,107.29-182.37,5.81,16.04,40.41,27.51,50.6,26.88,7.31-3.91,11.07-15.2,17.2-25.65,29.26,6.39,58.25,23.48,73.99,37.51-13.38-23.11-24.19-45.92-32.4-68.45,3.29-9.94,7.93-14.4,17.54-19.56,100.2,91.6,129.99,153.41,111.43,165.56-32.64,11.91-107.47-8.52-129.92-29.77h0Zm-163,92.61c-.11,1.08-.22,2.17-.35,3.25l-.05,.48v.02l-.05,.46v.07s-.05,.41-.05,.41l-.02,.12-.04,.36-.02,.17-.04,.31-.02,.22-.04,.26-.03,.27-.02,.21-.05,.32-.02,.16-.05,.36-.02,.11-.05,.42v.05s-.06,.46-.06,.46v.02s-.07,.47-.07,.47v.04s-.06,.43-.06,.43l-.02,.09-.05,.39-.02,.14-.05,.33-.02,.19-.04,.28-.04,.24-.03,.23-.04,.29-.03,.19-.05,.33-.02,.13-.05,.38-.02,.09-.06,.43v.04s-.08,.46-.08,.46h0s-.07,.47-.07,.47v.05s-.08,.4-.08,.4l-.02,.11-.05,.36-.02,.15-.05,.31-.04,.2-.04,.26-.04,.26-.04,.21-.05,.3-.03,.16-.05,.35-.02,.11-.06,.4-.02,.06-.08,.44v.02l-.08,.46v.03s-.09,.42-.09,.42v.08s-.08,.38-.08,.38l-.02,.13-.06,.33-.03,.17-.05,.28-.05,.22-.04,.23-.05,.27-.03,.18-.06,.32-.02,.13-.07,.36-.02,.09-.09,.4v.04s-.09,.45-.09,.45h0s-.09,.45-.09,.45v.05s-.09,.39-.09,.39l-.02,.1-.07,.34-.03,.15-.06,.3-.04,.19-.05,.26-.05,.23-.05,.21-.06,.28-.03,.16-.07,.33-.02,.12-.09,.37-.02,.07-.09,.42h0s-.1,.45-.1,.45v.03l-.09,.4-.02,.08-.08,.36-.02,.12-.08,.32-.04,.16-.06,.27-.05,.2-.05,.23-.05,.25-.05,.18-.07,.29-.03,.13-.09,.34-.02,.09-.09,.38v.05s-.12,.43-.12,.43c5.51,10.26,10.41,22.68,14.75,35.97,2.92-16.22-.18-39.01-9.29-68.39Z" style="fill:#6d96ce; fill-rule:evenodd;"/><path d="M976.92,1022.89l.05-.02c30.94,81.28,39.91,155.55,38.45,244.74-74.39,19.63-144.68,13.71-228.48-13.32,5.51-77.13-21.58-116.7-3.18-182.12h.55c4.66-15.92,12.02-33.39,23.17-53.28,8.36,19.43,17.07,37.25,24.25,49.49,10.72-13.49,20.08-10.6,29.81-10.22-1.51-8.78-3.54-20.43-6.14-33.5l-.05-.22c-2.87-14.47-6.45-30.68-10.75-46.62,58.58,15.16,98.53,15.54,119.85,1.13,2.81,16.05,6.97,30.7,12.47,43.95Z" style="fill:#20386f; fill-rule:evenodd;"/><path d="M934.05,735.48c-10.18,.64-44.79-10.84-50.6-26.88,7.08-10.17,11.33-21.76,12.25-28.19-1.64-3.05-3.48-6.94-5.49-11.68-23.31-11-27.85-21.12-13.63-30.39,3.35,1.24,8.02,5.97,14,14.16,14.85-2.94,6.25-26.14,2.46-38.6,7.95-17.05,22.58-26.72,55.36-27.61,2.84,8.31,5.48,17.19,7.93,26.6,6.51,4.34,8.83,23.86,7.11,47.04,4.61,12.3-2.15,20.48-20.28,24.52,.57,5.93,4.3,20.61,8.08,25.36-6.13,10.45-9.89,21.75-17.2,25.65Z" style="fill:#f9af79; fill-rule:evenodd;"/><path d="M948.4,586.3c-32.78,.89-47.41,10.55-55.36,27.61,3.79,12.46,12.4,35.66-2.46,38.6-5.98-8.2-10.65-12.92-14-14.16-14.22,9.27-9.68,19.39,13.63,30.39,2.01,4.73,3.84,8.62,5.49,11.68-.92,6.42-5.17,18.02-12.25,28.19-29.13,31.47-38.6,16.19-62.06,12.86-12.86-23.43,6.56-14.88,6.48-32.71-.07-15.19,25.12-14.18,20.58-34.45-4.44-19.85-20.32-80.57,29.44-80.3,14.4-27.34,121.76-42.58,76.87,32.96-2-7.23-4.11-14.13-6.35-20.67h0Zm.7,96.56c-1.82,.59-3.8,1.12-5.94,1.6,.31,3.22,1.56,9.03,3.23,14.43,1.41,4.52,3.13,8.76,4.85,10.93,7.76,15.62,14.24,5.29,21.89,6.66-3.32-4.92-6.76-8.8-6.79-8.94-3.19-13.69-11.98-16.97-17.25-24.68Z" style="fill:#20386f; fill-rule:evenodd;"/><path d="M918.15,682.6c5.94,1.29,16.88,2.65,25.02,1.86,.31,3.22,1.56,9.03,3.23,14.43-8.83-.68-23.94-10.56-28.25-16.29Z" style="fill:#ed7d57; fill-rule:evenodd;"/><path d="M1025.07,1547.58c-11.93,3.08,.97,10.25-6.46,13.94-19.07-5.94-33.73-29.63-42.86-39.56-4.8-5.22-5.9,2.87-5.97,11.71-.16,18.96,4.78,42.96,10.61,49.55,2.04-6.1,1.35-23.49,2.14-34.36,19.87,11.61,19.51,28.87,30.64,32.5,24.51-2.17,37.61-4.12,55.9-7.38,.88-16.28-29.73-4.69-43.99-26.39Z" style="fill:#0e2952; fill-rule:evenodd;"/><path d="M735.97,1542.55c-12.04-2.65-3.77,9.58-12.07,9.51-14.33-13.92-16.7-41.68-20.35-54.66-1.93-6.83-6.56-.11-10.62,7.73-8.71,16.84-15.14,40.48-12.94,49,4.58-4.52,11.82-20.35,17.44-29.68,12.48,19.33,4.36,34.57,12.65,42.84,22.85,9.14,35.41,13.32,53.2,18.67,8.14-14.12-24.4-17.62-27.32-43.42Z" style="fill:#0e2952; fill-rule:evenodd;"/><path d="M1025.24,747.33c7.75,14.78,17.77,26.73,30.07,35.84-19.18-10.83-37.36-28.6-54.54-53.3,9.72,5.73,18.16,11.83,24.47,17.46h0Zm-179.4,235.14c-2.13-7.99-4.69-16.78-7.66-26.37,2.92-16.22-.18-39.01-9.29-68.39,2.07-14.64,3.57-27.07,4.52-37.27,12.22,40.96,16.49,83.55,12.82,127.77-.53-.13-1.08-.27-1.61-.41,.42,1.55,.83,3.11,1.23,4.66Z" style="fill:#466fb5; fill-rule:evenodd;"/><path d="M729.62,1498.32c-2.34,12.92-1.53,27.54,2.44,43.91-6.16,.81-1,9.89-8.15,9.84-13.46-13.07-16.37-38.36-19.7-52.15,1.95-2.22,3.66-4.88,5.13-7.98,59.9-145.36,39.86-168.26,92.37-221.62-1.19-4.25-2.34-8.4-3.44-12.48,19.41,5.9,38.12,10.62,56.36,14.12l-1.16,3.7c-23.97,56.89-77.03,130.65-123.85,222.66h0Zm247.35-475.44c1.12,2.87,2.19,5.7,3.23,8.49l-3.23-8.49h0Zm33.33,246.04c7.64,58.41-12.94,152.16-7.18,247.87,4.01,10.39,10.14,21.14,18.39,32.23-5.28,3.5,3.54,9.31-2.9,12.51-17.92-5.59-31.95-26.86-41.16-37.63,1.67-2.51,3.05-5.59,4.15-9.21-12.37-105.39-39.86-151.16-24.74-236.76,17.77-1.55,35.5-4.53,53.44-9Z" style="fill:#f9af79; fill-rule:evenodd;"/><path d="M987.72,634.22c22.21-7.37,18.79,8.69,22.55,25.17-8.23,4.43-12.79,8.35-16,15.71-6.14-4.73-10.83-3.56-14.94-10.04-6.89-8.58-15.44-25.1-6.52-26.06,2.63,7.24,6.01,8.88,10.13,11.87-.29-3.61-.97-7.17-2.03-10.72-1.21-4.63-3.91-9.49-8.1-14.62-8.21-2.26-11.49-4.83-9.85-7.67,10.25-1.63,18.5,3.82,24.76,16.36Z" style="fill:#f9af79; fill-rule:evenodd;"/><path d="M858.83,1058.08c3.42,12.02,5.73,23.7,6.91,35.05-6.11,15.76-13.6,24.53-22.46,26.31-10.13-.87-12.06-8.62-14.45-14.12,6.03-4.68,9.56-10.24,10.6-16.7-5.48-4.35-6.87-8.9-4.18-13.64-1.08-2.69-2.08-5.11-3.01-7.26,6.76-8.21,12.99-9.98,19.12-10.1,2.49,.04,4.97,.28,7.46,.44Z" style="fill:#f9af79; fill-rule:evenodd;"/><path d="M1000.77,729.88c5.87,3.45,11.27,7.04,16.01,10.59,3.12,2.32,5.96,4.63,8.46,6.87,7.75,14.78,17.77,26.73,30.07,35.84-13.33-7.53-26.17-18.4-38.53-32.62-5.43-6.25-10.77-13.14-16.01-20.68Z" style="fill:#466fb5; fill-rule:evenodd;"/><path d="M931.03,659.67c10.19-2.96,15.95-4.21,26.11-6.18,4.08-.79-7.25-9.53-26.83,5.76-.46,.36-.06,.66,.72,.43Z" style="fill:#eb795b; fill-rule:evenodd;"/><path d="M923.08,601.22c5.16,.38,4.87,4.49,1.05,5.46-40.61,10.18-13.82-6.42-1.05-5.46Z" style="fill:#20386f; fill-rule:evenodd;"/><path d="M939.77,597.98c-4.83,1.86-3.35,5.7,.57,5.53,41.83-2.05,11.36-10.17-.57-5.53Z" style="fill:#20386f; fill-rule:evenodd;"/><path d="M950.33,648.03l.24-.11c3.97-2.32,6.05-3.63,6.33-5.52,.27-1.71-1.02-3.14-3.33-5.73-2.58-2.84-6.49-7.18-11.15-14.92-.34-.56-1.07-.72-1.64-.4-.56,.33-.74,1.06-.4,1.65,4.77,7.9,8.77,12.34,11.41,15.27,1.53,1.7,2.85,3.17,2.75,3.76-.12,.84-2.94,2.49-5.19,3.81-.57,.34-.76,1.07-.42,1.66,.29,.47,.87,.68,1.39,.51Z" style="fill:#eb795b; fill-rule:evenodd;"/><path d="M952.64,623.47c2.93-.31,4.04-11.74-3.08-10.97-3.8,.4-1.73,11.48,3.08,10.97Z" style="fill:#20386f; fill-rule:evenodd;"/><path d="M921.66,627.82c2.94-.33,4.04-11.73-3.07-10.96-3.8,.4-1.74,11.48,3.07,10.96Z" style="fill:#20386f; fill-rule:evenodd;"/><path d="M467.28,606.33l-.05,7.48s2.03,23.36-26.73,26.77c-28.77,3.42-52.37,2.98-51.58-15.06,2.58-13.95,7.23-35.62,7.42-47.17,.07-4.29-.22-8.85-1.02-13.99l55.73-1.11,16.42,2.68-.2,40.41Z" style="fill:#f9af79; fill-rule:evenodd;"/><path d="M467.48,565.92l-.2,40.41c-5.92,2.76-12.6,4.44-20.1,4.44-25.62,0-42.19-18.79-50.84-32.43,.07-4.29-.22-8.85-1.02-13.99l55.73-1.11,16.42,2.68Z" style="fill:#ed7d57; fill-rule:evenodd;"/><path d="M391.06,555.39c6.46,34.8,51.38,33.67,70.79,31.48,5.46-.61,8.9-1.31,8.9-1.31,6.16-1.64,9.6-11.34,11.19-24.05,3.17-25.15-.84-62.07-5.08-71.51-6.4-14.21-18.44-29.57-63.67-18.49-45.24,11.1-30.43,39.28-22.13,83.88Z" style="fill:#f9af79; fill-rule:evenodd;"/><path d="M354.3,1585.97h63.65c-.48-3.33-2.09-13.49-5.08-22.84-1.03-3.27-2.24-6.42-3.6-9.17-6.19-12.36-45.5-4.49-45.5-4.49,0,0-3.66,3.12-6.51,15.07-1.26,5.27-2.38,12.26-2.96,21.43Z" style="fill:#172b57; fill-rule:evenodd;"/><path d="M546.64,1565.89c.17,8.66,1.26,16.85,4.4,20.08h125.89c-1.6-4.55-6.12-11.41-19.04-13.5-14.69-2.36-37.59-9.44-50.94-23.58-4.76-5.01-8.32-10.93-9.87-17.85-5.93-26.38-48.97,8.08-48.97,8.08,0,0-1.74,13.88-1.45,26.77Z" style="fill:#172b57; fill-rule:evenodd;"/><path d="M462.9,1280.84c1.75,9.65,2.86,17.58,3.17,23.26,3.99,78.06,65.71,256.55,76.74,260.7,17.09,6.45,43.98-7.25,58.05-11.73,5.84-1.86,9.77-7.74,8.47-13.71-30.55-140.5-41.79-342.79-45.88-462.55-2.06-60.34-12.42-102.01-12.42-102.01,0,0-150.51-40.15-151.4,10.65-.79,44.94,49.86,221.24,63.27,295.39Z" style="fill:#223f81; fill-rule:evenodd;"/><path d="M462.9,1280.84l100.54-204.03c-2.06-60.34-12.42-102.01-12.42-102.01,0,0-150.51-40.15-151.4,10.65-.79,44.94,49.86,221.24,63.27,295.39Z" style="fill:#172b57; fill-rule:evenodd;"/><path d="M496.39,985.62l-79.57,576.65s-34.93,8.44-62.11,1.69c0,0-23.29-306.68-21.36-380.83,1.94-74.14-16.71-198.4,4.27-212.11,20.97-13.69,158.77,14.61,158.77,14.61Z" style="fill:#223f81; fill-rule:evenodd;"/><path d="M490.74,456.87s-19.92-1.53-43.39-11.75c-19.06-8.28-43.1,.84-50.92,4.95,.22-1.25,.71-2.97,1.9-4.69,0,0-3.5,2.48-4.02,5.95-.36,.27-.53,.45-.42,.51,0,0-3.98-.72-6.53,.43,0,0,1.79-.26,2.42,.89,.07,.12,.17,.22,.29,.32-29.73,14.37-32.48,61.35-22.91,72.22,11.51,13.08,25.32,42.54,25.32,42.54,0,0,5.02-6.96,2.93-18.46-2.09-11.51,7.86-11.51,20.41-16.74,12.56-5.23,2.09-19.89,13.08-28.78,10.98-8.89,51.26-3.66,50.74-10.47,14.96-5.45,11.09-35.39,11.09-36.92Z" style="fill:#20386f; fill-rule:evenodd;"/><path d="M382.13,635.54l18.32,393.04s152.9,2.5,148.52-32.09c-4.35-34.6-55.1-348.91-55.1-348.91l-111.75-12.03Z" style="fill:#fff; fill-rule:evenodd;"/><path d="M327.55,858.33c9.09,27.28-8.05,118.85-14.16,149.87-1.36,6.56-2.24,10.44-2.24,10.44,21.16,34.43,98.7,34,98.7,34,14.93-65.91,22.68-170.9,22.68-170.9l-59.51-260.82-74.86,69.2s5.66,42.2,12.68,85.15c5.52,34.01,11.79,68.6,16.7,83.06Z" style="fill:#20386f; fill-rule:evenodd;"/><path d="M601.48,799.73c.15-.16,.15-.45,.15-.6,0-5.66-21.62-18.19-45.02-32.95-.3-.29-.45-.45-.45-.45-.02,0-.03-.02-.06-.03,.42,12.06,.38,23.9-.33,34.91-1.34,20.43,.15,44.85,2.63,69.72,11.13-17.41,40.91-64.19,43.08-70.59h0Zm-60.77-158.58s.02,.07,.04,.16c3.61,3.5,105.67,102.6,125.45,141.42,20.14,39.36-92,117.8-92,117.8,0,0-7.23,2.84-12.23,1.73,5.29,43.54,11.21,83.7,7.7,100.84-6.35,30.99-35.02,41.41-35.02,39.01,0-.75-10.48-112.6-16.17-170.97-12.21-125.13-42.79-249.42-42.79-249.42,33.38,3.46,65.02,19.42,65.02,19.42Z" style="fill:#20386f; fill-rule:evenodd;"/><path d="M377.8,620.45c-.19-3.74,17.58-8.93,17.58-8.93,0,0,20.34,28.19,53.83,28.68,0,0-9.54,18.58-20.79,23.39,0,0-49.52-20.87-50.63-43.15Z" style="fill:#d8e8f7; fill-rule:evenodd;"/><path d="M449.22,639.55s17.76-10.53,17.82-21.94c0,0,11.47-1.43,16.46,4.13,0,0,4.21,19.54-1.36,30.9,0,0-25.57-3.9-32.92-13.09Z" style="fill:#d8e8f7; fill-rule:evenodd;"/><path d="M437.17,637.85l24.07-5.76s3.15,.27,3.07,4.18c-.09,3.93-6.78,15.38-9.74,16.3-2.96,.91-23.09-6.79-17.39-14.72Z" style="fill:#466fb5; fill-rule:evenodd;"/><path d="M380.61,618.52c-.19-3.76,11.83-11.48,11.83-11.48,0,0,23.28,27.2,56.78,27.69,0,0-9.54,18.58-20.79,23.39,0,0-46.72-17.33-47.82-39.6Z" style="fill:#e9f0f9; fill-rule:evenodd;"/><path d="M449.22,634.73s17.96-9.51,18.02-20.92c0,0,10.83,4.77,15.84,10.33,0,0,4.63,12.33-.94,23.69,0,0-25.57-3.9-32.92-13.1Z" style="fill:#e9f0f9; fill-rule:evenodd;"/><path d="M496.27,905.85c-.81,9.19-5.02,17.74-11.82,23.99l-10.65,9.81c-2.67,2.46-6.88,2.14-9.13-.73l-13.21-16.77c-3.54-4.5-5.2-10.19-4.66-15.88,1.23-12.69,3.54-37.14,5.37-60.75,1.51-19.12,2.7-37.7,2.8-49,.29-36.08-6.87-151.14-6.87-151.14l8.64,.45s21.49,44.67,32.74,105.44c2.77,14.95,4.92,30.88,5.98,47.37,0,0,4.5,65.71,.81,107.21Z" style="fill:#6d96ce; fill-rule:evenodd;"/><path d="M496.27,905.85c-.81,9.19-5.02,17.74-11.82,23.99l-10.65,9.81c-2.67,2.46-6.88,2.14-9.13-.73l-13.21-16.77c-3.54-4.5-5.2-10.19-4.66-15.88,1.23-12.69,3.54-37.14,5.37-60.75,23.91-26.86,33.59-63.97,37.31-94.25,2.77,14.95,4.92,30.88,5.98,47.37,0,0,4.5,65.71,.81,107.21Z" style="fill:#466fb5; fill-rule:evenodd;"/><path d="M581.35,906.91c0-10.02-8.81-18.06-18.71-16.55-2.76,.42-5.23,1.55-6.96,3.83-6.81,9.07-13.3,35.48-1.22,36.72,4.92,.5,11.24-2.94,16.1-6.65,4.94-3.75,10.79-9.64,10.79-15.84v-1.51Z" style="fill:#f9af79; fill-rule:evenodd;"/><path d="M313.39,1008.2c21.92-22.83,59.8-67.7,58.45-104.55-1.79-51.6-60.99-128.39-60.99-128.39,5.52,34.01,11.79,68.6,16.7,83.06,9.09,27.28-8.05,118.85-14.16,149.87Z" style="fill:#172b57; fill-rule:evenodd;"/><path d="M314.07,918.45s15.77,7.89,25.34,3.94c9.57-3.94,20.82-6.9,31.5,5.28,10.7,12.17,12.95,20.62,10.7,25.12-2.25,4.5-27.18,2.82-31.32,0-4.14-2.82-10.68-9.75-14.84-8.54-11.44,3.32-21.09-5.42-26.5-12.37-3.25-4.19,5.53-6.22,5.11-13.43Z" style="fill:#f9af79; fill-rule:evenodd;"/><path d="M373.03,620.92s-62.76,6.95-77.56,34.29c-14.81,27.34-91.79,138.11-89.26,184.14,2.51,46.04,105,97.65,105,97.65,0,0,22.69-9.59,23.04-19.91,.34-10.32-70.85-72-66.53-83.51,4.31-11.5,82.71-102.53,90.26-132.54,7.56-30.02,15.05-80.12,15.05-80.12Z" style="fill:#20386f; fill-rule:evenodd;"/><path d="M556.16,765.72s.15,.16,.45,.45c23.4,14.76,45.02,27.29,45.02,32.95,3.14-9.99-27.28-51.74-37.12-60.24-9.99-8.65-8.35,26.84-8.35,26.84Z" style="fill:#172b57; fill-rule:evenodd;"/><path d="M392.44,607.04s47.66,199.58,40.07,274.75c0,0-17.53-80.33-59.67-146.14,0,0,15.38-13.53,14.55-18.52,0,0-11.42-3.39-22.5-1.11,0,0,1.22-86.03,8.13-95.12,6.91-9.09,19.43-13.87,19.43-13.87Z" style="fill:#172b57; fill-rule:evenodd;"/><path d="M467.23,613.81c-.97-.57,47.21,195.02,51.25,257.33,0,0-4.78-111.21-4.31-143.26,0,0-19.79-10.48-19.79-14.16s21.11-13.61,21.11-13.61c0,0-13.36-68.49-20.66-76.04-7.3-7.55-27.6-10.26-27.6-10.26Z" style="fill:#172b57; fill-rule:evenodd;"/><path d="M446.89,560.56c9.47,.13,14.72-.8,23.92-2.97,3.69-.88-3.89,27.44-24.44,4.46-.49-.54-.21-1.52,.52-1.5Z" style="fill:#eb795b; fill-rule:evenodd;"/><path d="M442.25,509.54c4.6,.34,4.34,4.01,.94,4.87-36.24,9.09-12.33-5.73-.94-4.87Z" style="fill:#20386f; fill-rule:evenodd;"/><path d="M463.5,506.27c-4.3,1.67-2.99,5.1,.52,4.94,37.32-1.83,10.13-9.07-.52-4.94Z" style="fill:#20386f; fill-rule:evenodd;"/><path d="M468.44,548.26l.22-.07c3.74-1.69,5.71-2.66,6.14-4.3,.4-1.5-.6-2.88-2.42-5.4-2.01-2.76-5.07-6.99-8.48-14.29-.25-.53-.88-.74-1.42-.5-.53,.24-.76,.87-.51,1.42,3.48,7.46,6.61,11.79,8.68,14.64,1.19,1.65,2.22,3.07,2.08,3.6-.19,.73-2.84,1.93-4.97,2.89-.53,.25-.77,.88-.53,1.43,.21,.44,.71,.69,1.19,.59Z" style="fill:#eb795b; fill-rule:evenodd;"/><path d="M475,529.02c2.62-.27,3.61-10.47-2.75-9.79-3.39,.36-1.54,10.24,2.75,9.79Z" style="fill:#20386f; fill-rule:evenodd;"/><path d="M440.97,533.28c2.62-.29,3.61-10.47-2.74-9.78-3.39,.36-1.55,10.24,2.74,9.78Z" style="fill:#20386f; fill-rule:evenodd;"/><path d="M447.52,561.04c-3.25,3.5,18.45,3.75,22.22,.3,.41-.36,1.72-2.36,1.26-2.94-.45-.59-2.97,.47-3.65,.64-6.59,1.66-12.79,2.31-19.84,2.01Z" style="fill:#fff; fill-rule:evenodd;"/><path d="M1438.16,580.2s26.64,22.68,2.2,48.8c0,0,20.37,2,27.25-3.63,0,0-1.35,2.74-2.62,3.98,0,0,22.77,.82,32.16-6.28,9.4-7.1,3.37-123.56-59.81-110.54,0,0-53.55-4.04-48.57,57.92,5.01,61.95-15.22,61.95-15.22,61.95,0,0,5.63,2.77,8.34,2.77,0,0,3.97-1.52,4.76-3.7,0,0-.79,3.44-1.81,4.54,0,0,21.82,2.06,32.72-6.17,10.9-8.24,23.69-36.87,20.59-49.64Z" style="fill:#20386f; fill-rule:evenodd;"/><path d="M1357.89,716.06h145.98c-10.45-26.17-25.41-45.09-36.76-47.41-6.04-1.6-16.33-23.48-16.19-58.74l-2.73,.54-45.84,9.07s1.03,14.44,1.07,28.03c.04,11.33-.57,22.86-3.15,24.21-3.29,.29-6.3,.9-6.3,.9,0,0-24.87,17.46-36.07,43.41Z" style="fill:#f9af79; fill-rule:evenodd;"/><path d="M1402.34,619.53s1.03,14.43,1.07,28.03c25.66-.73,39.22-24.13,44.77-37.11l-45.84,9.08Z" style="fill:#ed7d57; fill-rule:evenodd;"/><path d="M1452.92,605.46s13.44-21.25,16.67-39.41c2.32-12.97-4.28-61.04-52.59-54.12,0,0-14.03,1.38-27.21,10.29-10.5,7.08-25.64,22.38-8.7,64.33l4.39,14.17,67.46,4.74Z" style="fill:#20386f; fill-rule:evenodd;"/><path d="M1393.78,632.4s60.68,1,60.72-36.81c.06-37.81,7.91-63.15-30.84-65.39-38.76-2.24-46.3,12.19-49.39,24.8-3.09,12.61,3.71,76.17,19.5,77.4Z" style="fill:#f9af79; fill-rule:evenodd;"/><path d="M1396.02,529.27s16.6,44.36,42.13,50.92c25.51,6.56,36.56-.28,36.56-.28,0,0-19.56-15.54-23.62-42.67,0,0-42.53-29.09-55.07-7.97Z" style="fill:#20386f; fill-rule:evenodd;"/><path d="M1400.14,532.88s-12.41,9.9-15.43,19.53c-3.04,9.63-4.4,29.46-10.17,28.78,0,0-12.52-30.15,1.55-47.2,14.92-18.09,24.06-1.1,24.06-1.1Z" style="fill:#20386f; fill-rule:evenodd;"/><path d="M1397.83,534.37s11.85,46.45,44.03,61.34c0,0-32.19-28.54-34.92-59.21-2.74-30.67-9.11-2.12-9.11-2.12Z" style="fill:#20386f; fill-rule:evenodd;"/><path d="M1230.42,827.31s-20.24-16.54-27.51-16.63c-7.28-.08-21.09-3.71-20.55-1.35,.55,2.36,12.18,5.44,10.18,6.54-2,1.09-18.91-3.46-23.63-.73-4.73,2.72-15.81,13.99-6.9,18.91,8.91,4.91,35.63,12.72,42.54,11.82,6.9-.91,22.54-2.01,22.54-2.01l3.33-16.56Z" style="fill:#f9af79; fill-rule:evenodd;"/><polygon points="1488.9 1442.38 1471.92 1513.88 1446.49 1513.74 1445.56 1442.38 1488.9 1442.38" style="fill:#f9af79; fill-rule:evenodd;"/><polygon points="1275.03 1445.44 1226.74 1513.88 1207.91 1489.72 1236.98 1436.02 1275.03 1445.44" style="fill:#f9af79; fill-rule:evenodd;"/><path d="M1215.57,1470.96l24.87,.76,26.92,.82s62.18-69.24,97.06-180.22c.81-2.57,1.67-5.19,2.58-7.84,19.09-55.65,58.66-125.53,79.52-188.77,3.32-10.07,6.3-19.55,8.97-28.52,.86-2.88,1.7-5.7,2.49-8.48,15.37-53.4,19.82-88.45,23.92-125.92l-150.59,1.22s-24.31,255.79-115.74,536.96Z" style="fill:#223f81; fill-rule:evenodd;"/><path d="M1352.4,847.46c.38,71.66-10.51,102.4-10.51,102.4,0,0,64.47,32.76,141.11,8.65,.9-.29,63.45-14.56,63.45-14.56-1.29-2.91-12.69-51.19-13.94-53.86-16.18-34.74-28.47-49.98-30.39-60.66-3.56-19.94-3.63-40.57-1.86-60.03,4.68-51.52,18.58-94.29,18.58-94.29-20.88-4.75-40.43-13.09-62.16-21.25-5,6.23-20.28,12.74-33.53,12.44-15.26-.34-20.21-6.87-19.42-14.01-16.27,9.05-29.24,17.6-29.24,17.6-13.83,24.01-41.87,47.33-43.9,84.18-.5,9.05,21.8,91.37,21.82,93.38Z" style="fill:#e9f0f9; fill-rule:evenodd;"/><path d="M1472.77,1509.88s-2.05,14.16,3.24,29.3c0,0,4.16,18.98-14.51,19.32-18.67,.35-23.25-1.42-21.14-13.04,2.11-11.62,6.13-31.74,6.13-31.74l26.28-3.85Z" style="fill:#f9af79; fill-rule:evenodd;"/><path d="M1437.89,1569.76c11.87,22.4,28.79,20.8,40.9,0,1.67-8.41-2.03-26.34-2.64-29.8-.04-.26-.08-.44-.12-.57,0-.12-.02-.19-.02-.19-21.14,19.36-34.37-.5-34.37-.5,0,.03-.02,.06-.04,.11-3.1,7.59-3.76,28-3.71,30.96Z" style="fill:#0e2952; fill-rule:evenodd;"/><path d="M1162.91,1547.37s34.43-38.21,44.99-57.66l25.6,13.11-57.22,53.73-13.39-1.75,.02-7.44Z" style="fill:#f9af79; fill-rule:evenodd;"/><path d="M1141.05,1569.76h43.3c6.38,0,11.48-10.57,18.35-24.31,2.81-5.63,9.12-8.72,15.59-10.42l-.18,34.73h10l9.2-36.72c6.11-11.21,.49-21.38-3.8-30.22-4.99-.02-18.41,3.41-43.85,32.05-8.36,9.42-17.59,12.77-26.75,12.49-.13,.08-.26,.14-.38,.2-21.14,9.51-21.49,22.19-21.49,22.19Z" style="fill:#0e2952; fill-rule:evenodd;"/><path d="M1240.44,1471.72l26.92,.82s62.18-69.24,97.06-180.22c.81-2.57,1.67-5.19,2.58-7.84,19.09-55.65,58.66-125.53,79.52-188.77,3.32-10.07,6.3-19.55,8.97-28.52,.86-2.88,1.7-5.7,2.49-8.48l-22.18-16.83s-66.57,107.83-87.19,209.28c-17.91,88.14-89.61,194.18-108.17,220.56Z" style="fill:#20386f; fill-rule:evenodd;"/><path d="M1433.5,1260.61c-.38,49.33,2.12,162.78,8.54,209.74h23.85c13.18,0,19.76-.18,19.76-.18,16.12-81.66,27.58-149.22,35.94-207.45,6.85-47.78,12.94-88.73,17.62-123.99,4.71-35.5,7.99-65.21,9.17-90.31,.18-3.95,.32-7.8,.39-11.53,.08-3.76,.09-7.39,.06-10.94l-130.12-12.69c1.63,86.47,15.01,218.67,14.8,247.35Z" style="fill:#223f81; fill-rule:evenodd;"/><path d="M1465.89,1470.35c13.18,0,19.76-.18,19.76-.18,16.12-81.66,27.58-149.22,35.94-207.45,6.85-47.78,12.94-88.73,17.62-123.99,4.71-35.5,7.99-65.21,9.17-90.31l-47.75,28.09s30.47,10.75,18.84,92.13c-11.63,81.4-37.4,290.19-53.58,301.71Z" style="fill:#20386f; fill-rule:evenodd;"/><path d="M1459.74,1047.61s9.16,33.12,40.87,28.89c31.71-4.23,76.81-23.24,76.81-23.24,0,0-13.55-42.82-30.4-99.08-20.4-68.11-25.48-163.82-37.38-219.2-3.34-15.52-25.8-20.56-26.65-29.84l-26.31-51.04s-39.23,88.04-41.34,110.23c-2.12,22.2,44.4,283.27,44.4,283.27Z" style="fill:#6d96ce; fill-rule:evenodd;"/><path d="M1481.91,829.7c1.42,35.95,13.99,97.25,64.5,124.2,.19,.1,.4,.2,.6,.29-20.4-68.11-20.14-133.44-32.04-188.82-27.16-5.66-33.84,44.57-33.07,64.34Z" style="fill:#466fb5; fill-rule:evenodd;"/><path d="M1537.39,909.5s-22.66-4.9-28.48,1.57c-5.83,6.46-9.09,16.75-3.27,20.35,5.81,3.62,22.66-6.3,28.72-2.3,4.33,2.87,5.71,10.15,10.06,7.61,4.35-2.56,8.96-19.25,8.96-19.25l-15.99-7.99Z" style="fill:#f9af79; fill-rule:evenodd;"/><path d="M1456.69,654.11s61.13,2.68,75.82,16.33c14.69,13.64,102.67,119.08,104.13,146.72,1.46,27.62-77.07,106.16-77.07,106.16,0,0-21.82-5.27-31.27-18.98,0,0,48.72-86.87,45.81-90.66-2.91-3.79-85.43-71.42-92.2-56.42-5.83,12.94-25.22-103.14-25.22-103.14Z" style="fill:#6d96ce; fill-rule:evenodd;"/><path d="M1224.12,818.35s69.8,23.28,78.53,21.32c8.72-1.93,21.19-96.51,27.92-128.94,8.67-41.75,41.76-50.05,41.76-50.05l31.39-8.4s-35.94,88.79-37,106.75c-1.06,17.97-4.23,293.86-4.23,293.86,0,0,2.12,12.68-22.2,7.39-24.31-5.28-30.64-10.58-30.64-10.58,0,0,10.53-77.12,15.48-145.58-24.76-4.23-104.41-44.59-104.41-44.59-12.36-19.41,3.39-41.2,3.39-41.2Z" style="fill:#6d96ce; fill-rule:evenodd;"/><path d="M1409.46,606.82c-8.73,1.88-13.77,2-22.69,1.7-3.58-.13,8.69,24.67,23.45-.41,.35-.6-.09-1.44-.76-1.29Z" style="fill:#eb795b; fill-rule:evenodd;"/><path d="M1408.44,557.35c-4.19,1.16-3.27,4.51,.04,4.68,35.22,1.69,10.34-7.59-.04-4.68Z" style="fill:#20386f; fill-rule:evenodd;"/><path d="M1386.88,558.44c4.29,.74,3.72,4.16,.44,4.66-34.88,5.24-11.06-6.51-.44-4.66Z" style="fill:#20386f; fill-rule:evenodd;"/><path d="M1392.91,596.93l-.22-.03c-3.74-1-5.73-1.6-6.38-3.06-.6-1.33,.12-2.78,1.43-5.4,1.46-2.88,3.66-7.29,5.72-14.61,.15-.53,.71-.82,1.24-.69,.53,.15,.84,.7,.7,1.25-2.11,7.48-4.36,11.99-5.86,14.96-.86,1.73-1.6,3.21-1.39,3.66,.29,.66,2.94,1.37,5.07,1.94,.54,.15,.85,.7,.7,1.25-.12,.45-.55,.75-1.01,.73Z" style="fill:#eb795b; fill-rule:evenodd;"/><path d="M1380.46,581.62c-2.47,.23-5.28-9.02,.73-9.57,3.2-.29,3.32,9.2-.73,9.57Z" style="fill:#20386f; fill-rule:evenodd;"/><path d="M1414.03,579.08c-2.48,.22-5.28-9.02,.72-9.57,3.21-.29,3.33,9.2-.72,9.57Z" style="fill:#20386f; fill-rule:evenodd;"/><path d="M1408.98,607.37c3.65,2.63-16.38,6.9-20.51,4.41-.44-.27-2.03-1.86-1.71-2.5,.3-.63,2.84-.12,3.5-.09,6.41,.31,12.26-.24,18.73-1.83Z" style="fill:#fff; fill-rule:evenodd;"/><path d="M784.54,114.81c0-17.36,5.63-34.99,16.79-52.9,11.16-17.82,27.49-32.64,48.87-44.37,21.49-11.73,46.44-17.54,75.05-17.54,26.55,0,49.99,4.88,70.35,14.73,20.26,9.76,35.93,23.07,47,39.96,11.06,16.79,16.6,35.18,16.6,54.87,0,15.57-3.19,29.27-9.48,41-6.29,11.72-13.79,21.86-22.52,30.3-8.62,8.53-24.2,22.88-46.71,43.05-6.29,5.62-11.27,10.6-15.02,14.91-3.75,4.32-6.56,8.26-8.34,11.82-1.88,3.56-3.29,7.13-4.32,10.69-.94,3.56-2.53,9.86-4.51,18.86-3.46,19.05-14.35,28.51-32.73,28.51-9.48,0-17.54-3.09-24.02-9.29-6.56-6.28-9.75-15.47-9.75-27.76,0-15.39,2.34-28.71,7.12-39.97,4.79-11.25,11.07-21.1,18.95-29.64,7.88-8.53,18.57-18.67,31.89-30.39,11.72-10.23,20.26-18.01,25.41-23.18,5.26-5.25,9.67-11.06,13.23-17.44,3.56-6.38,5.34-13.41,5.34-20.92,0-14.64-5.43-27.02-16.32-37.05-10.97-10.03-24.94-15.1-42.2-15.1-20.17,0-34.99,5.07-44.56,15.29-9.48,10.13-17.54,25.14-24.11,44.93-6.29,20.64-18.11,30.95-35.46,30.95-10.32,0-18.95-3.56-25.99-10.89-7.03-7.21-10.6-15.01-10.6-23.45h0Zm134.04,301.1c-11.17,0-20.92-3.65-29.27-10.88-8.34-7.22-12.47-17.35-12.47-30.4,0-11.53,4.04-21.2,12.1-29.07,8.07-7.88,17.92-11.82,29.64-11.82s21.29,3.94,29.17,11.82c7.88,7.87,11.82,17.54,11.82,29.07,0,12.86-4.13,22.99-12.39,30.3-8.25,7.32-17.73,10.97-28.61,10.97Z" style="fill:#9db2d9; fill-rule:evenodd;"/><path d="M1081.3,257.02c5.1-12.27,14.26-23.07,27.42-32.45,13.13-9.31,29.03-14.98,47.59-16.98,18.63-1.97,37.97,1.26,58.2,9.66,18.76,7.81,33.9,18.15,45.38,31.1,11.45,12.85,18.61,26.87,21.47,42.06,2.88,15.12,1.39,29.75-4.4,43.67-4.59,11-10.86,19.74-18.75,26.19-7.9,6.43-16.18,11.39-24.83,14.79-8.61,3.49-23.83,9.06-45.68,16.69-6.1,2.13-11.07,4.18-14.99,6.13-3.92,1.94-7.07,3.9-9.38,5.9-2.37,1.97-4.42,4.08-6.19,6.28-1.71,2.25-4.69,6.22-8.73,12-8.05,12.44-18.53,15.94-31.51,10.53-6.7-2.79-11.49-7.35-14.25-13.62-2.79-6.37-2.34-13.81,1.28-22.49,4.52-10.87,10.09-19.6,16.78-26.14,6.69-6.55,14.03-11.66,22.11-15.38,8.07-3.71,18.61-7.73,31.47-12.1,11.29-3.77,19.61-6.76,24.78-8.9,5.26-2.17,10.08-4.98,14.47-8.45,4.4-3.46,7.73-7.9,9.93-13.21,4.3-10.34,4.1-20.7-.64-30.98-4.8-10.32-13.19-18.01-25.39-23.08-14.25-5.94-26.21-6.71-35.98-2.3-9.68,4.37-19.79,12.61-30.25,24.66-10.51,12.75-21.9,16.56-34.16,11.45-7.3-3.03-12.34-8.09-15.16-15.33-2.85-7.17-3.08-13.73-.6-19.7h0Zm6.19,252.23c-7.89-3.29-13.71-8.74-17.48-16.3-3.78-7.55-3.72-15.93,.12-25.14,3.39-8.15,9.09-13.8,17.1-16.99,8.02-3.19,16.14-3.08,24.42,.36,8.16,3.39,13.89,9.04,17.15,16.93,3.25,7.89,3.19,15.87-.19,24.02-3.78,9.09-9.68,15.04-17.67,17.77-7.99,2.74-15.75,2.54-23.45-.65Z" style="fill:#b0c2e4; fill-rule:evenodd;"/><path d="M537.65,293.32c-6.14-11.78-8.55-25.74-7.31-41.86,1.27-16.04,7.12-31.88,17.48-47.4,10.44-15.56,25.32-28.33,44.74-38.45,18.02-9.39,35.67-14.37,52.97-14.88,17.21-.54,32.55,2.96,46.04,10.51,13.45,7.48,23.71,18.01,30.68,31.38,5.51,10.58,8.18,21,8.07,31.18-.12,10.18-1.63,19.72-4.57,28.53-2.84,8.85-8.34,24.1-16.48,45.75-2.28,6.04-3.9,11.17-4.92,15.43-1.02,4.27-1.54,7.93-1.49,10.98-.01,3.08,.29,6,.86,8.79,.62,2.75,1.76,7.59,3.61,14.4,4.38,14.15,.34,24.43-12.14,30.93-6.43,3.35-13,4.11-19.59,2.19-6.68-1.94-12.1-7.06-16.44-15.4-5.44-10.44-8.57-20.31-9.3-29.65-.73-9.34,.05-18.24,2.38-26.82,2.33-8.58,6.01-19.24,10.9-31.91,4.35-11.09,7.39-19.39,9.06-24.72,1.71-5.42,2.65-10.93,2.81-16.52,.16-5.59-1.12-10.99-3.77-16.09-5.18-9.93-13.25-16.42-24.18-19.39-11-2.93-22.28-1.43-34,4.68-13.69,7.14-21.96,15.81-24.84,26.13-2.85,10.23-3.01,23.28-.47,39.03,3.03,16.24-1.34,27.42-13.12,33.56-7.01,3.65-14.13,4.28-21.49,1.8-7.33-2.41-12.51-6.43-15.49-12.16h0Zm197.49,157c-7.57,3.95-15.49,4.92-23.71,2.97-8.22-1.95-14.61-7.37-19.22-16.23-4.08-7.83-4.76-15.81-2.07-24.02,2.69-8.2,7.98-14.36,15.94-18.5,7.83-4.08,15.85-4.85,23.99-2.29,8.14,2.56,14.23,7.73,18.31,15.56,4.55,8.72,5.33,17.06,2.31,24.95-3.02,7.89-8.16,13.71-15.55,17.57Z" style="fill:#b0c2e4; fill-rule:evenodd;"/></svg>