<?xml version="1.0" encoding="UTF-8"?><svg id="b" xmlns="http://www.w3.org/2000/svg" viewBox="0 0 2564.04 2205.03"><path d="M2375.77,736.68c-5.2-6.74-5.73-17.9-1.21-24.88,4.46-6.94,12.32-7.13,17.51-.34,106.15,138.75,163.45,298.75,171.94,479.92,.48,9.69-4.71,17.61-11.55,17.69-6.84,.11-12.76-7.71-13.2-17.36-8-171.31-62.53-323.02-163.49-455.02h0Zm18.2,120.99c-4.08-8.1-2.96-18.97,2.52-24.36,5.48-5.33,13.25-3.14,17.32,4.91,21.78,42.84,40.8,84.91,56.27,127.06,15.62,42.55,27.7,85.25,35.37,128.76,1.65,9.51-2.38,18.72-9.03,20.57-6.65,1.84-13.39-4.42-15.04-13.92-7.13-40.56-18.48-80.54-33.18-120.61-14.9-40.51-33.23-81.07-54.24-122.41h0Zm0,0" style="fill:#eee5f4; fill-rule:evenodd;"/><path d="M1283.03,127.83c-304.97,0-270.13,538.61-490.29,702.78C501.31,1047.91,0,940.3,0,1313.18c0,654.66,650.24,891.85,1358.85,891.85s1313.24-363.09,1102.25-1016C2250.12,536.07,1991.63,127.83,1283.03,127.83h0Zm0,0" style="fill:#eee5f4; fill-rule:evenodd;"/><path d="M1395.44,1514.81c51.13,174.7,20.95,406.46-75.25,689.98-45.17-.59-89.99-2.09-134.42-4.66-71.9-199.2-40.62-401.07,86.15-630.65,25.23-45.65,90.48-167.41,123.52-54.67h0Zm0,0" style="fill:#c8bce8; fill-rule:evenodd;"/><path d="M1344.01,1537.12c-65.84,182.66-96.69,404.67-92.62,666.06-2.81-.1-5.62-.24-8.44-.34-21.93-246.84,11.75-468.8,101.06-665.72h0Zm0,0" style="fill:#fff; fill-rule:evenodd;"/><path d="M1683.08,1906.37c-18.1,92.81-62.78,189.21-131.72,289.49-62.92,6.11-127.25,9.17-192.5,9.17-36.19,0-72.18-.63-108-1.9,61.13-113.62,159.9-213.08,297.4-304.96,43.41-28.96,157.33-107.12,134.82,8.2h0Zm0,0" style="fill:#998cce; fill-rule:evenodd;"/><path d="M1627.19,1902.54c-87.81,81.41-170.67,182.17-248.64,302.39-6.55,.05-13.1,.1-19.7,.1h-2.81c75.92-119.01,166.3-219.82,271.15-302.49h0Zm0,0" style="fill:#fff; fill-rule:evenodd;"/><path d="M1805.82,1014.09c-40.7,181.73,153.64,275.18,37.35,570.54,86.31,13.39,187.75,14.8,304.33,4.13-6.5,32.69-11.59,61.9-15.32,83.83,24.3-.92,47.79-8.15,74.61,25.62l.82-1.45,.88-1.46,.63-1.17,.19-.33,1.74-3.02,.49-.82,.39-.72,1.74-3.15,.3-.49,1.5-2.72,.88-1.64,.09-.1,.88-1.55,.88-1.7,.78-1.4,.14-.29,.14-.24,1.7-3.15,.53-1.07,.39-.69,.92-1.8,.92-1.74,.34-.68,.59-1.11,.92-1.8,.97-1.84,.1-.24,.82-1.6,.92-1.84,.88-1.7,.1-.19,.97-1.9,.92-1.9,.63-1.26,.34-.63,1.93-3.88,.39-.82,.53-1.11,1.8-3.64,.15-.34,.2-.4,.78-1.6,.97-1.99,.97-1.94v-.09l.97-2,.97-2.09,.68-1.5,.29-.53,.98-2.09,.97-2.03,.49-1.07,1.5-3.15,.97-2.09,.24-.59,.72-1.55,1.02-2.14,.97-2.13v-.1l1.94-4.22,.97-2.18,1.02-2.19,.97-2.18,.58-1.21,.43-.97,.97-2.24,.97-2.18,.34-.73,.63-1.5,1.01-2.23,.97-2.23,.09-.24,.92-1.99,.97-2.29,.87-1.93,.1-.29,1.02-2.28,.97-2.29,.63-1.45,.34-.82,1.74-4.04,.63-1.45,2.67-6.36,.14-.34,2.57-6.06,.88-2.09,1.69-4.12,.1-.24,.1-.14c1.65-3.98,3.25-8.01,4.9-12.04l.3-.78,1.36-3.34,1.26-3.15,.38-1.01,2.19-5.48,1.12-2.86,1.45-3.69,.19-.49,1.6-4.13,.73-1.89,.87-2.33,1.61-4.12v-.1l.29-.78,2.09-5.48,.1-.24,.62-1.74,1.55-4.17,.24-.59,2.38-6.5,.43-1.17,1.51-4.17,.39-1.16,1.07-2.96,1.26-3.5,.19-.59,1.45-4.12,.59-1.7,.82-2.38,1.41-3.98v-.1l1.36-4.08,.78-2.18,.63-1.84,1.31-4.04,.14-.43,1.16-3.55,.93-2.71,.38-1.26,1.26-3.93,.34-.97,.92-2.96,1.02-3.2,.19-.73,1.21-3.88,.44-1.45,.72-2.38,1.12-3.64,.09-.2,1.12-3.78,.58-1.95,.53-1.84,1.07-3.73,.09-.24,.29-1.21c.93-3.2,1.8-6.41,2.62-9.51l.2-.72,.78-2.86,.72-2.73,.2-.82,.88-3.49,.33-1.22,.1-.43,1.21-4.9,.1-.34,1.02-4.42,.11-.53,.43-1.8,.72-3.25v-.15c.68-3.2,1.31-6.35,1.9-9.46l.15-.49,.09-.78,.69-3.44,.09-.58,.14-.82,.59-3.64,.1-.53c.48-2.82,.87-5.58,1.21-8.25l.1-.92,.43-3.73v-7.77l.19-11.5v-18.72l.1-4.95v-18.1l.1-7.13v-10.48c3.83-456.71-30.08-405.2-268.58-456.56-14.56,40.11-101.2,68.84-126.67,67.28-18.33-9.79-27.75-38.08-43.08-64.23-73.26,16.01-145.84,58.8-185.23,93.88,33.53-57.83,60.54-114.94,81.12-171.31-8.25-24.89-19.84-36.04-43.9-49-250.87,229.33-325.44,384.09-278.96,414.46,81.74,29.83,269.06-21.3,325.24-74.52h.59Zm408.1,231.85c-22.85,73.5-30.57,130.6-23.28,171.21,10.87-33.28,23.14-64.38,36.92-90.04l-.24-1.07v-.09l-.24-.98-.09-.24-.2-.82-.1-.34-.18-.73-.11-.44-.14-.62-.14-.58-.1-.53-.19-.69-.1-.39-.14-.77-.08-.3-.26-.92v-.2l-.19-1.01v-.05l-.24-1.11v-.05l-.24-1.02v-.2l-.19-.91-.1-.3-.2-.78-.09-.43-.14-.69-.1-.53-.14-.58-.1-.62-.1-.49-.19-.73-.1-.39-.14-.82-.1-.3-.19-.96v-.15l-.24-1.07v-.05l-.2-1.12v-.1l-.24-1.02v-.19l-.14-.92-.11-.34-.14-.78-.1-.49-.1-.63-.14-.58-.1-.59-.14-.68-.05-.43-.2-.82-.04-.34-.2-.92v-.2l-.19-1.07v-.09l-.19-1.12v-.04l-.2-1.12v-.14l-.14-.97-.1-.29-.14-.88-.1-.39-.14-.78-.1-.48-.09-.62-.1-.69-.1-.49-.14-.78-.1-.38-.09-.92v-.25l-.2-1.02v-.14l-.14-1.17-.19-1.17v-.1l-.15-1.07v-.23l-.14-.93-.09-.33-.14-.87-.1-.44-.1-.73-.19-1.17-.1-.72-.05-.44-.14-.88v-.33l-.14-.93v-.24l-.14-1.11v-.09l-.15-1.17v-.04l-.14-1.17v-.14l-.14-1.02v-.3l-.1-.92-.1-.38-.09-.78-.1-.53-.1-.69-.1-.62-.09-.59-.1-.78-.1-.39-.1-.92v-.3l-.15-1.07v-.14l-.09-1.16v-.05l-.15-1.22c-.34-2.66-.62-5.38-.87-8.1h.05Zm0,0" style="fill:#f89e0e; fill-rule:evenodd;"/><path d="M1843.27,1584.33l-.1-.05c-73.89,194.06-97.71,372.15-96.59,581.88,247.28-52.01,459.19-155.59,595.43-306.62,3.05-47.25,.68-95.76-15.14-151.85h-1.36c-11.65-39.88-30.08-83.59-58.02-133.41-20.91,48.66-42.74,93.24-60.69,123.9-26.83-33.76-50.31-26.54-74.61-25.62,3.73-21.93,8.83-51.14,15.32-83.83l.14-.53c7.18-36.24,16.16-76.81,26.92-116.73-146.66,37.94-246.7,38.86-300.06,2.82-7.04,40.17-17.46,76.84-31.24,110.03h0Zm0,0" style="fill:#2f365c; fill-rule:evenodd;"/><path d="M1950.64,864.81c25.47,1.56,112.12-27.17,126.67-67.28-17.76-25.49-28.39-54.54-30.67-70.6,4.08-7.67,8.68-17.42,13.73-29.25,58.31-27.52,69.71-52.88,34.1-76.07-8.39,3.1-20.08,14.94-35.02,35.46-37.21-7.38-15.67-65.45-6.16-96.65-19.94-42.68-56.52-66.9-138.61-69.08-7.08,20.82-13.73,42.99-19.89,66.57-16.25,10.87-22.07,59.71-17.75,117.78-11.55,30.76,5.38,51.24,50.75,61.38-1.41,14.84-10.77,51.63-20.24,63.51,15.33,26.15,24.75,54.44,43.09,64.23h0Zm0,0" style="fill:#fcb88d; fill-rule:evenodd;"/><path d="M1914.69,491.34c82.08,2.19,118.67,26.4,138.61,69.08-9.51,31.2-31.05,89.27,6.16,96.65,14.94-20.52,26.63-32.36,35.02-35.46,35.62,23.18,24.21,48.55-34.1,76.07-5.05,11.83-9.66,21.58-13.73,29.25,2.28,16.06,12.9,45.11,30.67,70.6,72.91,78.73,96.64,40.49,155.34,32.15,32.21-58.65-16.4-37.26-16.21-81.83,.2-38.04-62.88-35.52-51.52-86.27,11.11-49.73,50.84-201.73-73.69-201-36.05-68.46-304.82-106.63-192.41,82.47,5-18.1,10.28-35.31,15.87-51.72h0Zm-1.74,241.71c-13.2,19.3-35.23,27.5-43.18,61.8-.1,.34-8.69,10.04-16.99,22.38,19.12-3.41,35.37,22.45,54.77-16.65,4.32-5.44,8.64-16.06,12.13-27.36,4.22-13.54,7.33-28.09,8.1-36.15-5.34-1.21-10.29-2.52-14.85-4.02h0Zm0,0" style="fill:#151e40; fill-rule:evenodd;"/><path d="M1990.42,732.41c-14.85,3.21-42.26,6.66-62.63,4.66-.78,8.06-3.88,22.61-8.1,36.15,22.12-1.71,59.97-26.44,70.74-40.81h0Zm0,0" style="fill:#f08261; fill-rule:evenodd;"/><path d="M1722.33,894.45c-19.41,37.02-44.49,66.95-75.3,89.75,48.03-27.12,93.54-71.6,136.57-133.41-24.35,14.31-45.46,29.58-61.27,43.66h0Zm449.15,588.68c5.34-19.99,11.74-41.96,19.16-65.98-7.28-40.6,.43-97.71,23.28-171.21-5.19-36.67-8.97-67.77-11.35-93.3-30.57,102.57-41.24,209.15-32.07,319.86,1.36-.34,2.72-.68,4.07-1.02-1.07,3.88-2.08,7.77-3.1,11.65h0Zm0,0" style="fill:#ee7c15; fill-rule:evenodd;"/><path d="M1843.17,1584.29c-2.81,7.18-5.48,14.26-8.1,21.25l8.1-21.25Zm0,0" style="fill:#fcb88d; fill-rule:evenodd;"/><path d="M1816.25,611.27c-55.59-18.43-47.01,21.78-56.42,63.02,20.57,11.1,32.02,20.9,40.03,39.35,15.38-11.84,27.12-8.93,37.41-25.13,17.27-21.5,38.67-62.82,16.35-65.26-6.6,18.16-15.09,22.22-25.38,29.71,.73-9.03,2.43-17.95,5.05-26.83,3.05-11.55,9.79-23.77,20.33-36.58,20.52-5.69,28.71-12.09,24.64-19.21-25.66-4.08-46.33,9.55-62,40.94h0Zm0,0" style="fill:#fcb88d; fill-rule:evenodd;"/><path d="M2138.92,1672.43c-8.54,30.08-14.31,59.33-17.27,87.76,15.29,39.45,34.01,61.42,56.23,65.88,25.37-2.18,30.17-21.59,36.14-35.36-15.09-11.69-23.92-25.62-26.49-41.77,13.68-10.92,17.18-22.32,10.44-34.15,2.71-6.75,5.25-12.81,7.52-18.2-16.93-20.57-32.51-24.99-47.83-25.28-6.26,.1-12.47,.73-18.73,1.12h0Zm0,0" style="fill:#fcb88d; fill-rule:evenodd;"/><path d="M1783.6,850.79c-14.7,8.63-28.18,17.62-40.07,26.48-7.81,5.82-14.94,11.59-21.2,17.18-19.41,37.02-44.49,66.95-75.3,89.75,33.38-18.87,65.54-46.08,96.5-81.64,13.59-15.67,26.92-32.95,40.07-51.77h0Zm0,0" style="fill:#ee7c15; fill-rule:evenodd;"/><path d="M792.93,96.14l141.18,2077.2c32.46,3.21,65.24,5.83,98.34,7.86L890.31,89.5c23.24-10.63,37.88-27.18,36.72-44.73-1.89-27.85-42.93-47.75-91.69-44.4-48.72,3.31-86.7,28.53-84.8,56.38,1.2,17.56,17.95,31.97,42.39,39.39h0Zm0,0" style="fill:#362d7b; fill-rule:evenodd;"/><path d="M1013.76,135.34L184.12,63.01,25.87,190.4l133.8,152.92,829.65,72.38,24.45-280.37Zm0,0" style="fill:#8477ba; fill-rule:evenodd;"/><path d="M860.84,193.9L178.59,134.38c-12.42-1.07-23.48,8.2-24.56,20.61-1.06,12.42,8.2,23.44,20.59,24.5l682.26,59.52c12.42,1.07,23.47-8.2,24.54-20.61,1.07-12.37-8.2-23.44-20.57-24.5h0Zm-8.1,92.52l-408.49-35.62c-12.42-1.11-23.44,8.2-24.55,20.56-1.07,12.42,8.2,23.49,20.61,24.56l408.5,35.66c12.42,1.07,23.43-8.2,24.55-20.63,1.07-12.42-8.2-23.43-20.62-24.54h0Zm0,0" style="fill:#b9acdc; fill-rule:evenodd;"/><path d="M649.67,502.6l827.17-96.45,161.89,122.8-129.29,156.69-827.17,96.44-32.6-279.48Zm0,0" style="fill:#998cce; fill-rule:evenodd;"/><path d="M804.23,556.64l680.28-79.33c12.37-1.4,23.67,7.53,25.08,19.9,1.46,12.38-7.47,23.68-19.84,25.13l-680.27,79.33c-12.37,1.39-23.67-7.52-25.13-19.89-1.41-12.38,7.52-23.68,19.89-25.13h0Zm10.77,92.27l407.29-47.48c12.37-1.47,23.67,7.51,25.14,19.88,1.45,12.37-7.53,23.67-19.91,25.13l-407.28,47.44c-12.37,1.45-23.67-7.47-25.12-19.84-1.46-12.37,7.51-23.72,19.88-25.13h0Zm0,0" style="fill:#c3b7eb; fill-rule:evenodd;"/><path d="M1260.56,818.48l-832.17,31.84-141.14,146.16,151.85,135.01,832.18-31.82-10.72-281.19Zm0,0" style="fill:#6758b1; fill-rule:evenodd;"/><path d="M1116.13,895.66l-684.34,26.14c-12.48,.49-22.27,11.07-21.78,23.49,.48,12.47,11.06,22.27,23.47,21.78l684.35-26.16c12.47-.49,22.27-11.06,21.78-23.47-.48-12.47-11.06-22.27-23.48-21.78h0Zm3.54,92.82l-409.75,15.66c-12.47,.49-22.27,11.06-21.78,23.54,.49,12.42,11.06,22.22,23.54,21.73l409.75-15.62c12.42-.49,22.23-11.07,21.74-23.52-.44-12.42-11.01-22.23-23.48-21.78h0Zm0,0" style="fill:#b9acdc; fill-rule:evenodd;"/><path d="M579.13,1815.99c54,120.22,157.04,235.74,303.98,348.58,104.52,19.25,214.06,31.24,326.22,36.82-81.79-197.65-243.01-332.09-493.49-426.2-51.57-19.36-187.56-72.43-136.71,40.79h0Zm0,0" style="fill:#998cce; fill-rule:evenodd;"/><path d="M635.75,1798.67c156.22,89.03,311.6,220.79,466.18,395.35,6.83,.58,13.72,1.17,20.61,1.74-140.45-178.48-302.68-310.88-486.79-397.09h0Zm0,0" style="fill:#fff; fill-rule:evenodd;"/><path d="M879.73,1491.67c-2.09,198.43,104.1,434.79,298.8,708.02,28.87,1.74,57.87,3.05,87.08,3.93,50.4-256.21-32.74-473.65-248.45-692.21-37.64-38.17-136.17-140.54-137.43-19.74h0Zm0,0" style="fill:#b6a8e6; fill-rule:evenodd;"/><path d="M936.78,1499.43c126.24,176.75,224.43,411.06,294.67,702.98l2.82,.09c-41.48-282.55-140.59-516.87-297.49-703.07h0Zm0,0" style="fill:#fff; fill-rule:evenodd;"/><path d="M314.57,1899.92c119.54,0,216.43,20.13,216.43,44.97s-96.88,45.02-216.43,45.02-216.42-20.13-216.42-45.02,96.88-44.97,216.42-44.97h0Zm0,0" style="fill:#d2c9e9; fill-rule:evenodd;"/><path d="M381.47,1471.24c-.73-3.2,1.26-6.4,4.46-7.13,3.2-.73,6.41,1.26,7.18,4.46,9.85,42.7,10.48,86.56-.39,132.1-10.87,45.32-33.04,92.23-68.84,141.13-1.94,2.62-5.68,3.21-8.35,1.26s-3.21-5.67-1.26-8.35c34.84-47.54,56.43-93,66.87-136.8,10.42-43.62,9.79-85.69,.33-126.68h0Zm0,0" style="fill:#2f365c; fill-rule:evenodd;"/><path d="M388.6,1478.08c-53.85-122.54-50.7-238.4,9.46-347.6-137.24,113.62-140.4,229.47-9.46,347.6h0Zm0,0" style="fill:#c3b7eb; fill-rule:evenodd;"/><path d="M398.06,1130.48c-60.16,109.2-63.31,225.06-9.46,347.6,123.86-95.13-30.95-198.37,9.46-347.6h0Zm0,0" style="fill:#998cce; fill-rule:evenodd;"/><path d="M316.03,1630.12c-.29-3.29,2.09-6.2,5.38-6.5,3.25-.29,6.16,2.09,6.45,5.38,1.36,14.41,1.7,35.32,.53,59.04-1.02,20.56-3.14,43.32-6.64,65.88-.49,3.25-3.55,5.48-6.79,4.94-3.2-.48-5.44-3.54-4.95-6.79,3.4-22.03,5.48-44.34,6.5-64.57,1.11-23.24,.82-43.52-.49-57.4h0Zm0,0" style="fill:#2f365c; fill-rule:evenodd;"/><path d="M323.26,1641.38c57.06-103.68,15.96-201.67-123.23-293.9,73.55,106.78,114.65,204.73,123.23,293.9h0Zm0,0" style="fill:#998cce; fill-rule:evenodd;"/><path d="M323.26,1641.38c-8.58-89.17-49.68-187.12-123.23-293.9,43.67,145.45-51.14,199.15,123.23,293.9h0Zm0,0" style="fill:#6158b3; fill-rule:evenodd;"/><path d="M320.21,1748.36c.09,3.3-2.48,6.02-5.77,6.12-3.25,.14-6.02-2.48-6.12-5.73-.49-15.33-3.98-30.66-8.53-44.39-7.27-21.93-17.28-39.93-22.13-47.74-1.75-2.76-.88-6.44,1.93-8.2,2.77-1.75,6.46-.87,8.2,1.94,5.1,8.15,15.58,27.07,23.25,50.26,4.9,14.7,8.64,31.19,9.17,47.73h0Zm0,0" style="fill:#2f365c; fill-rule:evenodd;"/><path d="M156.52,1668.21c35.89,82.86,112.93-18,140.49-1.26-8.2-18.68-19.8-32.07-32.74-38.86-37.98-19.84-69.47,49.34-107.75,40.12h0Zm0,0" style="fill:#998cce; fill-rule:evenodd;"/><path d="M498.3,1724.34v108c0,68.06-55.69,123.76-123.75,123.76h-97.95c-68.07,0-123.81-55.7-123.81-123.76v-108H498.3Zm0,0" style="fill:#4b537d; fill-rule:evenodd;"/><path d="M463.32,1918.35c-169.03,54.34-250.24-20.38-234.04-194.01h-76.5v108c0,68.06,55.74,123.76,123.81,123.76h97.95c34.69,0,66.22-14.51,88.78-37.75h0Zm0,0" style="fill:#2f365c; fill-rule:evenodd;"/><path d="M2030.1,251.59c.97-6.85,4.22-13.44,9.6-19.85,5.38-6.36,12.67-11.3,21.74-14.71,9.12-3.34,19.25-4.22,30.51-2.62,10.44,1.51,19.36,4.77,26.78,9.8,7.43,4.96,12.86,11.11,16.25,18.35,3.4,7.22,4.51,14.79,3.4,22.51-.88,6.15-2.91,11.35-6.06,15.61-3.11,4.23-6.66,7.82-10.59,10.63-3.88,2.86-10.77,7.62-20.76,14.27-2.82,1.84-5.05,3.53-6.79,5-1.7,1.51-3.01,2.91-3.93,4.17-.92,1.31-1.7,2.61-2.28,3.98-.59,1.36-1.6,3.74-2.86,7.17-2.42,7.28-7.27,10.39-14.5,9.31-3.69-.53-6.69-2.19-8.88-4.99-2.23-2.86-2.96-6.66-2.28-11.46,.87-6.07,2.57-11.16,5.09-15.34,2.48-4.12,5.53-7.65,9.12-10.57,3.59-2.91,8.34-6.25,14.26-10.15,5.19-3.34,8.98-5.91,11.31-7.66,2.32-1.74,4.41-3.78,6.17-6.12,1.78-2.29,2.85-4.94,3.29-7.91,.82-5.77-.59-10.92-4.31-15.48-3.75-4.61-8.93-7.37-15.73-8.35-7.96-1.16-14.07,0-18.39,3.5-4.32,3.44-8.35,8.87-12.03,16.3-3.63,7.71-8.87,11.11-15.71,10.13-4.03-.57-7.23-2.47-9.56-5.76-2.38-3.21-3.35-6.5-2.86-9.8h0Zm35.61,125.99c-4.36-.64-8-2.62-10.87-5.96-2.86-3.3-3.93-7.53-3.2-12.67,.68-4.51,2.82-8.1,6.41-10.72,3.64-2.62,7.72-3.64,12.32-2.96,4.55,.62,8.15,2.76,10.82,6.3,2.67,3.56,3.64,7.58,3.01,12.09-.73,5.04-2.96,8.83-6.6,11.2-3.64,2.44-7.57,3.31-11.89,2.73h0Zm0,0" style="fill:#b6a8e6; fill-rule:evenodd;"/><path d="M2306.25,430.45c6.12-6.84,14.51-11.84,25.18-15.04,10.67-3.11,22.32-3.24,34.88-.39,12.57,2.92,24.45,9.37,35.75,19.35,10.53,9.31,18.05,19.46,22.66,30.47,4.56,10.97,6.11,21.74,4.56,32.26-1.51,10.53-5.77,19.75-12.67,27.51-5.48,6.16-11.55,10.43-18.14,12.86-6.6,2.47-13.1,3.83-19.51,4.13-6.4,.33-17.56,.53-33.52,.62-4.46,0-8.15,.24-11.16,.63-3.01,.39-5.48,.92-7.43,1.74-2.03,.73-3.83,1.65-5.48,2.72-1.61,1.07-4.46,2.95-8.39,5.87-8.06,6.31-15.67,6.21-22.9-.24-3.73-3.29-5.86-7.38-6.25-12.08-.39-4.75,1.6-9.51,5.86-14.37,5.44-6.11,11.01-10.52,16.84-13.29,5.82-2.77,11.78-4.46,17.85-5.1,6.11-.58,13.92-.87,23.28-.83,8.21,.1,14.31,0,18.14-.24,3.93-.24,7.72-.97,11.36-2.23,3.63-1.31,6.79-3.44,9.41-6.4,5.15-5.78,7.33-12.58,6.57-20.38-.84-7.81-4.58-14.71-11.36-20.76-8-7.03-15.62-10.24-22.99-9.55-7.28,.68-15.72,3.78-25.28,9.32-9.7,5.91-18,5.87-24.84-.2-4.08-3.64-6.21-8.06-6.45-13.44-.24-5.29,1.07-9.61,4.02-12.96h0Zm-52.54,165.92c-4.41-3.93-6.98-8.77-7.76-14.56-.78-5.77,1.17-11.2,5.73-16.4,4.02-4.55,9.02-6.93,14.94-7.22,5.96-.29,11.25,1.6,15.86,5.72,4.58,4.03,7.04,9.03,7.37,14.89,.39,5.88-1.46,11.07-5.48,15.63-4.52,5.09-9.7,7.61-15.53,7.61s-10.86-1.84-15.13-5.67h0Zm0,0" style="fill:#b6a8e6; fill-rule:evenodd;"/><path d="M1623.26,53.79c126.57,0,229.23,67.09,229.23,149.86,0,44.58-29.89,84.66-77.19,112.12,23.48,19.88,54.83,36.13,93.97,48.85-72.19,7.08-131.96,1.17-179.26-17.61-21.11,4.17-43.52,6.45-66.76,6.45-126.57,0-229.23-67.1-229.23-149.81s102.66-149.86,229.23-149.86h0Zm0,0" style="fill:#b6a8e6; fill-rule:evenodd;"/><path d="M1760.36,176c-14.36,0-26,11.64-26,26s11.65,26,26,26,26-11.64,26-26-11.63-26-26-26h0Zm-278.66,0c-14.35,0-26,11.64-26,26s11.65,26,26,26,26-11.64,26-26-11.65-26-26-26h0Zm92.9,0c-14.36,0-26,11.64-26,26s11.65,26,26,26,26-11.64,26-26-11.64-26-26-26h0Zm92.86,0c-14.37,0-26,11.64-26,26s11.64,26,26,26,26.05-11.64,26.05-26-11.65-26-26.05-26h0Zm0,0" style="fill:#eee5f4; fill-rule:evenodd;"/></svg>