<?xml version="1.0" encoding="UTF-8"?><svg id="a" xmlns="http://www.w3.org/2000/svg" viewBox="0 0 2206.27 1554.46"><path d="M1429.77,0c181.82,0,161.07,331.77,292.33,432.91,173.74,133.85,472.64,67.58,472.64,297.3,0,403.28-342.49,792.79-764.97,792.79s-702.4-466.01-702.4-869.29S1007.28,0,1429.77,0Z" style="fill:#e0e8f5; fill-rule:evenodd;"/><path d="M1051.87,1354.75c580.93,0,1051.87,41.52,1051.87,92.73s-470.93,92.72-1051.87,92.72S0,1498.69,0,1447.48s470.94-92.73,1051.87-92.73Z" style="fill:#b0c2e4; fill-rule:evenodd;"/><path d="M1207.15,1363.62c96.52,0,174.76,4.53,174.76,10.13s-78.24,10.13-174.76,10.13-174.77-4.53-174.77-10.13,78.25-10.13,174.77-10.13Z" style="fill:#466fb5; fill-rule:evenodd;"/><g><path d="M449.47,1288.73c133.52-16.58,255.88-23.4,367.09-20.45-21.91-66.1-40.18-144.05-56.78-217.53-50.96-225.55-87.19-466.17-145.79-464.94-149.71-18.91-320.77-15.3-513.19,10.82,58.41-.31,94.59,239.82,145.46,464.94,42.78,189.35,96.64,408.36,195.34,378,56.89-15.5-81.17-134.07,5.17-150.52,.91-.14,1.81-.26,2.7-.33Z" style="fill:#f6eae0; fill-rule:evenodd;"/><path d="M816.55,1268.27c-111.2-2.95-233.56,3.87-367.09,20.45,43.26-3.89,62.18,67.48,67.55,128.29,5.81,65.74,7.69,133.15,95.51,137.44,120.4-18.92,291.13-22.55,512.2-10.89,0,0-.02,0-.04,0-86.47-4.93-88.36-71.98-94.14-137.37-5.48-62.07-25.07-135.12-70.26-127.96-45.63-5.31-93.53-8.63-143.71-9.96h-.03Z" style="fill:#f6e1ce; fill-rule:evenodd;"/><path d="M432.3,1441.72c24.49-2.42,53.09-6.54,85.78-12.34-.35-4.12-.7-8.25-1.07-12.36-5.37-60.81-24.29-132.18-67.55-128.29-.9,.11-1.8,.23-2.7,.33-86.34,16.44,51.72,135.01-5.17,150.52-3.14,.96-6.24,1.68-9.29,2.14Z" style="fill:#e5bb9a; fill-rule:evenodd;"/><path d="M99.24,742.24c-29,4.84-55.83,7.69-80.5,8.56,30.19,56.68,57.27,74.26,81.24,52.77,12.62-12.61,8.19-35.24-.74-61.32Z" style="fill:#eac5a7; fill-rule:evenodd;"/><path d="M83.42,812.13c40.67-1.4,76.49-3.83,107.45-7.31-27.34-119.92-54.61-208.37-90.08-208.19-6.62,.04-13.53,3.16-20.77,9.75-27.44,31.02,3.17,89.01,19.22,135.87,8.93,26.08,13.36,48.72,.74,61.32-5.37,4.81-10.89,7.66-16.56,8.56Z" style="fill:#e5bb9a; fill-rule:evenodd;"/><path d="M213.93,670.43c-2.86,.37-5.49-1.65-5.86-4.51-.38-2.87,1.64-5.49,4.51-5.87,65.77-8.72,134.67-13.9,199.84-16.47,78.3-3.09,151.23-2.39,206.94,.46,2.88,.15,5.11,2.61,4.96,5.49-.15,2.89-2.61,5.11-5.5,4.97-55.46-2.84-128.07-3.53-205.99-.47-64.89,2.55-133.47,7.71-198.9,16.39h0Zm161.86,608.94c-2.84,.51-5.56-1.38-6.07-4.22-.51-2.84,1.38-5.56,4.22-6.07,63.06-11.37,129.15-19.44,191.69-24.82,75.08-6.46,145.35-9.05,199.25-8.8,2.88,.02,5.22,2.36,5.21,5.25-.01,2.88-2.36,5.21-5.25,5.2-53.39-.25-123.3,2.35-198.34,8.8-62.45,5.37-128.24,13.4-190.71,24.66h0Zm-23.4-65.99c-2.86,.41-5.53-1.57-5.94-4.43-.42-2.87,1.56-5.53,4.43-5.95,64.11-9.49,131.41-15.57,195.15-19.03,76.44-4.15,147.75-4.55,202.3-2.57,2.88,.1,5.14,2.53,5.04,5.41-.1,2.88-2.53,5.14-5.41,5.04-54.22-1.96-125.2-1.57-201.39,2.58-63.33,3.44-130.27,9.49-194.16,18.95h0Zm-17.07-61.18c-2.86,.37-5.49-1.64-5.86-4.51-.38-2.87,1.64-5.49,4.51-5.87,64.82-8.59,132.71-13.7,196.94-16.23,77.17-3.03,149.05-2.35,203.94,.46,2.89,.15,5.11,2.61,4.96,5.49-.15,2.88-2.61,5.11-5.49,4.96-54.65-2.79-126.21-3.47-202.99-.45-63.95,2.52-131.53,7.59-196,16.15h0Zm-18.43-56.04c-2.86,.37-5.49-1.64-5.87-4.51-.37-2.86,1.65-5.49,4.51-5.86,65.77-8.73,134.67-13.91,199.84-16.47,78.3-3.08,151.24-2.39,206.94,.47,2.89,.14,5.11,2.6,4.96,5.49-.15,2.89-2.61,5.11-5.49,4.97-55.46-2.84-128.08-3.53-206-.46-64.89,2.55-133.47,7.7-198.9,16.38h0Zm-9.91-60.81c-2.86,.37-5.49-1.65-5.86-4.51-.38-2.86,1.64-5.49,4.51-5.86,65.77-8.73,134.67-13.91,199.84-16.47,78.3-3.08,151.24-2.39,206.94,.47,2.89,.15,5.11,2.6,4.96,5.49-.15,2.89-2.61,5.11-5.49,4.97-55.46-2.84-128.07-3.53-205.99-.46-64.89,2.55-133.47,7.7-198.9,16.39h0Zm-8.86-60.82c-2.86,.37-5.49-1.65-5.86-4.51-.37-2.86,1.65-5.49,4.51-5.86,65.77-8.73,134.67-13.91,199.84-16.47,78.3-3.08,151.24-2.39,206.94,.47,2.89,.15,5.11,2.6,4.96,5.49-.15,2.88-2.61,5.11-5.49,4.96-55.46-2.84-128.07-3.53-205.99-.46-64.89,2.55-133.47,7.71-198.9,16.39h0Zm-14.1-60.82c-2.87,.37-5.49-1.65-5.87-4.51-.37-2.87,1.65-5.5,4.51-5.87,65.77-8.73,134.67-13.91,199.84-16.47,78.3-3.08,151.24-2.39,206.94,.47,2.89,.15,5.11,2.6,4.96,5.49-.14,2.88-2.61,5.11-5.49,4.96-55.46-2.84-128.08-3.53-206-.46-64.89,2.55-133.47,7.71-198.89,16.39h0Zm-13.06-60.82c-2.86,.37-5.49-1.65-5.86-4.51-.37-2.87,1.64-5.5,4.51-5.87,65.77-8.73,134.67-13.91,199.84-16.48,78.3-3.08,151.23-2.39,206.93,.47,2.89,.15,5.11,2.61,4.96,5.49-.14,2.88-2.61,5.11-5.49,4.96-55.46-2.84-128.07-3.53-205.99-.46-64.89,2.55-133.47,7.71-198.9,16.39h0Zm-13.06-60.82c-2.86,.37-5.49-1.65-5.86-4.51-.37-2.87,1.64-5.5,4.51-5.87,65.77-8.73,134.67-13.9,199.84-16.47,78.3-3.09,151.24-2.39,206.94,.46,2.89,.15,5.11,2.61,4.96,5.49-.15,2.88-2.61,5.11-5.49,4.96-55.46-2.84-128.07-3.52-206-.46-64.89,2.55-133.47,7.71-198.9,16.39h0Zm-17.26-60.82c-2.86,.37-5.49-1.65-5.86-4.51-.37-2.87,1.64-5.49,4.51-5.87,65.77-8.73,134.67-13.9,199.84-16.47,78.3-3.09,151.24-2.39,206.94,.46,2.89,.15,5.11,2.61,4.96,5.49-.15,2.88-2.61,5.11-5.49,4.97-55.46-2.84-128.07-3.53-205.99-.47-64.89,2.55-133.47,7.71-198.9,16.39Z" style="fill:#eac5a7; fill-rule:evenodd;"/><path d="M562.4,1334.89c-2.86,.37-5.49-1.65-5.86-4.51-.38-2.87,1.64-5.49,4.51-5.87,63.38-8.46,129.78-13.51,192.6-16.02,75.46-3.02,145.75-2.42,199.44,.29,2.89,.14,5.12,2.59,4.98,5.47-.14,2.89-2.58,5.12-5.47,4.99-53.46-2.7-123.44-3.3-198.55-.3-62.52,2.51-128.6,7.54-191.65,15.95h0Zm32.34,107.53c-2.86,.47-5.54-1.47-6.01-4.33-.47-2.85,1.47-5.54,4.32-6,63.13-10.38,129.35-17.42,192.04-21.84,75.23-5.29,145.53-6.8,199.36-5.71,2.89,.05,5.18,2.44,5.13,5.33-.05,2.88-2.44,5.18-5.33,5.12-53.42-1.08-123.37,.43-198.46,5.72-62.44,4.4-128.33,11.41-191.06,21.71h0Zm-12.72-58.61c-2.86,.39-5.5-1.62-5.88-4.48-.38-2.87,1.63-5.5,4.49-5.88,63.35-8.61,129.75-13.82,192.58-16.48,75.44-3.21,145.74-2.77,199.44-.19,2.89,.14,5.12,2.59,4.98,5.47-.13,2.89-2.59,5.12-5.47,4.99-53.46-2.57-123.44-3.02-198.54,.18-62.5,2.66-128.56,7.83-191.6,16.4Z" style="fill:#eac5a7; fill-rule:evenodd;"/><path d="M654.4,740.96c-29.8-1.51-60.17-2.23-90.51-2.33l-.86-10.46c30.79,.09,61.62,.82,91.87,2.34,2.88,.14,5.11,2.6,4.97,5.48-.14,2.88-2.59,5.11-5.48,4.97h0Zm-110.18-2.3c-8.44,.05-16.86,.14-25.26,.28l-.86-10.45c8.4-.14,16.83-.24,25.26-.29l.85,10.46h0Zm-44.9,.68c-14.98,.37-29.84,.87-44.5,1.49-39.3,1.66-77.17,4.17-112.12,7.18l-.85-10.43c35.08-3.03,73.08-5.54,112.52-7.21,14.53-.61,29.25-1.11,44.09-1.48l.85,10.44h0Zm-176.14,10.44c-26.81,2.54-51.61,5.36-73.64,8.31-2.86,.38-5.5-1.64-5.88-4.5-.38-2.87,1.63-5.5,4.5-5.88,22.18-2.96,47.16-5.8,74.17-8.35l.85,10.43Z" style="fill:#835e42; fill-rule:evenodd;"/><path d="M1050.3,1373.26h36.11c5.32,0,9.57-8.81,15.3-20.27,2.34-4.69,7.6-7.27,13-8.7l-.14,28.96h8.34l7.67-30.62c5.08-9.35,.4-17.83-3.17-25.2-4.17-.02-15.36,2.84-36.56,26.73-6.98,7.86-14.67,10.65-22.31,10.41-.1,.07-.21,.12-.32,.17-17.62,7.93-17.91,18.5-17.91,18.5Z" style="fill:#0e2952; fill-rule:evenodd;"/><path d="M226.68,700.65c29.57-3.92,59.79-7.13,90.02-9.7v-10.5c-30.68,2.6-61.35,5.84-91.37,9.82-2.86,.37-4.88,3-4.51,5.86,.37,2.87,3,4.89,5.86,4.52h0Zm109.62-11.28c8.41-.64,16.82-1.24,25.2-1.78v-10.48c-8.38,.54-16.79,1.13-25.2,1.77v10.49h0Zm44.8-2.98c14.96-.86,29.81-1.56,44.48-2.15,39.3-1.54,77.25-2.13,112.32-1.97v-10.47c-35.2-.16-73.29,.44-112.73,1.99-14.53,.58-29.24,1.27-44.07,2.12v10.48h0Zm176.4-3.95c26.93,.34,51.87,1.13,74.07,2.27,2.88,.15,5.35-2.07,5.49-4.96,.14-2.89-2.07-5.35-4.96-5.49-22.35-1.14-47.48-1.94-74.6-2.28v10.47Z" style="fill:#835e42; fill-rule:evenodd;"/><path d="M266.33,827.19c29.57-3.92,59.79-7.13,90.02-9.69v-10.5c-30.67,2.6-61.35,5.84-91.38,9.82-2.86,.38-4.88,3.01-4.51,5.87,.37,2.86,3,4.89,5.86,4.51h0Zm109.62-11.27c8.41-.65,16.82-1.24,25.2-1.78v-10.48c-8.38,.54-16.79,1.13-25.2,1.76v10.5h0Zm44.8-2.98c14.96-.86,29.81-1.56,44.48-2.14,39.3-1.55,46.76-2.08,81.84-1.93v-10.46c-35.2-.16-42.8,.39-82.24,1.93-14.53,.58-29.24,1.27-44.07,2.11v10.48Z" style="fill:#835e42; fill-rule:evenodd;"/></g><path d="M1503.19,1376.01c36.91,0,66.84,1.76,66.84,3.92s-29.93,3.92-66.84,3.92-66.85-1.76-66.85-3.92,29.93-3.92,66.85-3.92Z" style="fill:#466fb5; fill-rule:evenodd;"/><path d="M1235.7,686.98c-2.77-20.21-4.23-38.73-4.35-55.57-15.71,3.82-29.06,6.33-30.56,6.29-3.15-.09-22.95-48.33-31.11-68.55-.05-.14-.11-.28-.17-.42v-.02c-2.07-5.11-3.33-8.31-3.33-8.31-1.52-.12-3.05-.09-4.58,.05-1.82,.18-3.64,.53-5.39,.99-.03,0-.06,.02-.09,.03-.62,.16-1.24,.34-1.84,.53-4.46,1.41-8.51,3.45-11.51,5.19-3.26,1.91-5.31,3.47-5.31,3.47,0,0,9.57,92.11,28.22,105.69,8.8,6.41,38.92,9.45,70.04,10.63Z" style="fill:#6d96ce; fill-rule:evenodd;"/><g><path d="M1850.07,388.9h0c7.6,24.22-6.01,50.23-30.22,57.83L715.11,793.02c-15.52,4.86-50.14-80.99-27.6-88.06L1792.25,358.67c24.22-7.59,50.23,6.01,57.82,30.23Z" style="fill:#9c7357; fill-rule:evenodd;"/><path d="M655.17,749.33c13.58-22.39,30.07-43.66,32.33-44.37L1792.25,358.67c19.74-6.19,40.69,1.72,51.87,17.98,.11,19.73-12.57,38.19-32.33,44.37L707.05,767.31c-19.75,6.19-40.7-1.72-51.87-17.98Z" style="fill:#e5bb9a; fill-rule:evenodd;"/><path d="M708.39,768.92c2.86,16.16,4.29,24.24,4.29,24.24-99.86,5.18-153.45,6.64-160.78,4.36,8.72-7.12,53.48-37.87,134.26-92.25,12.77,19.34,19.16,29.01,19.16,29.01-15.26,11.94-14.24,23.49,3.08,34.64Z" style="fill:#f1cfb5; fill-rule:evenodd;"/><path d="M554.47,796.62c4.48,1.39,26.24,1.39,65.29,0-4.99-11.49-8.29-24.44-9.9-38.86-31.65,21.6-50.12,34.56-55.4,38.86Z" style="fill:#835e42; fill-rule:evenodd;"/><path d="M1737.67,375.77c11.24,33.83,20.59,63.13,28.05,87.92l54.13-16.96c24.22-7.59,37.82-33.61,30.22-57.83-7.58-24.22-33.6-37.82-57.82-30.23l-54.59,17.1Z" style="fill:#fff; fill-rule:evenodd;"/><g style="opacity:.31;"><path d="M1811.79,421.02l-54,16.93c2.84,9.06,5.49,17.65,7.93,25.75l54.13-16.96c24.22-7.59,37.82-33.61,30.22-57.83-1.4-4.47-3.42-8.58-5.95-12.26,.11,19.73-12.57,38.19-32.33,44.37Z" style="fill:#e5bb9a; fill-rule:evenodd;"/></g></g><path d="M1137.83,563.8s1.91-6.05,8.75-11.81c7.72-6.5,20.66-12.78,23.84-12.33,5.99,.9,17.85-.28,17.09,1.59-.76,1.87-10.75,2.88-9.24,4.05,1.5,1.17,16.02-.37,19.55,2.5,3.53,2.86,11.18,13.6,3.2,16.48-7.97,2.88-31.01,5.8-36.58,4.15-5.56-1.66-18.29-4.62-18.29-4.62l-8.32-.02Z" style="fill:#f9af79; fill-rule:evenodd;"/><g><polygon points="836.33 72.06 945.51 116.81 915.54 155.11 836.33 72.06" style="fill:#c4d1eb; fill-rule:evenodd;"/><polygon points="960.92 98.77 839.66 72.3 990.61 83.32 960.92 98.77" style="fill:#c4d1eb; fill-rule:evenodd;"/><polygon points="960.92 98.77 958.08 149.04 945.51 116.81 836.33 72.06 839.66 72.3 960.92 98.77" style="fill:#9db2d9; fill-rule:evenodd;"/><polygon points="958.08 149.04 932.23 133.78 945.51 116.81 958.08 149.04" style="fill:#859ac6; fill-rule:evenodd;"/><path d="M986.16,145.32c-3.56-.44-2.75-5.62,.54-5.21l5.23,.57c3.5,.44,2.76,5.63-.58,5.21l-5.18-.57h0Zm179.02,208.17c2.32,0,3.47,2.84,1.9,4.42-.39,.47-1.17,.81-1.9,.81h-3.38c-3.39,0-3.47-5.25,.05-5.25l3.33,.02h0Zm-18.92-.47c3.08,0,3.52,5.22-.3,5.22l-5.28-.33c-3.75-.47-2.72-5.61,.39-5.22l5.18,.33h0Zm-20.6-1.96c3.25,.4,2.81,5.63-.78,5.18l.78-5.18h0Zm-20-4.41c3.12,1.17,1.88,5.86-1.64,4.97-1.72-.54-3.41-1.15-5.09-1.8-3.19-1.37-1.29-6.08,1.95-4.86,1.57,.62,3.17,1.18,4.78,1.69h0Zm-17.77-8.94c2.73,2.27-.72,6.22-3.29,4.07-1.48-1.21-2.84-2.47-4.13-3.89-2.33-2.8,1.83-5.98,3.92-3.47,1.08,1.2,2.25,2.25,3.49,3.29h0Zm-9.8-15.88c.47,3.73-4.78,4.01-5.16,.89-.34-1.88-.54-3.68-.61-5.59,0-3.61,5.24-3.42,5.24-.12,.05,1.63,.24,3.21,.54,4.82h0Zm1.41-19.58c-.8,3.19-5.93,2.11-5.05-1.38,.46-1.72,.97-3.49,1.55-5.17,1.29-3.42,6.1-1.35,4.96,1.69-.54,1.59-1.03,3.23-1.46,4.86h0Zm7.22-19.19c-1.29,3.02-6.19,1.14-4.76-2.18,.73-1.59,1.49-3.21,2.27-4.79,1.92-3.36,6.21-.34,4.7,2.3-.76,1.55-1.5,3.12-2.22,4.67h0Zm9.34-18.57c-1.81,3.17-6.24,.37-4.63-2.46l2.46-4.62c1.81-3.17,6.24-.37,4.62,2.46-.84,1.5-1.65,3.09-2.46,4.62h0Zm9.76-18.61c-1.89,3.32-6.22,.35-4.68-2.34l2.28-4.65c1.79-3.13,6.06-.85,4.73,2.25l-2.33,4.74h0Zm8.49-19.54c-1.17,3.13-5.84,1.88-4.97-1.63,.53-1.62,1.01-3.19,1.44-4.85,.83-3.33,5.91-2.07,5.08,1.28-.45,1.76-.96,3.47-1.54,5.2h0Zm2.63-21.74c.43,3.43-4.77,4.07-5.2,.65-.19-1.62-.49-3.25-.89-4.83-.85-3.39,4.24-4.6,5.07-1.3,.44,1.81,.79,3.62,1.01,5.47h0Zm-8.06-20.51c2.05,2.87-2.25,5.84-4.23,3.08-.97-1.34-1.99-2.63-3.1-3.87-2.38-2.84,1.84-5.95,3.88-3.5,1.23,1.33,2.39,2.82,3.45,4.29h0Zm-15.81-14.93c2.7,1.94,.25,6.15-2.92,4.35-1.41-.96-2.83-1.86-4.3-2.73-2.9-1.66-.42-6.27,2.67-4.5,1.55,.92,3.06,1.87,4.55,2.88h0Zm-18.92-10.04c3.22,1.38,1.1,6.17-2.02,4.83-1.58-.67-3.18-1.3-4.78-1.91-3.2-1.2-1.4-6.12,1.86-4.9,1.66,.64,3.31,1.28,4.95,1.98h0Zm-20.07-6.99c3.14,.78,2.12,5.93-1.44,5.04l-4.99-1.38c-3.26-.82-2.1-5.91,1.33-5.06l5.1,1.41h0Zm-20.54-5.02c3.62,.91,2.03,5.9-1.05,5.13l-5.11-1.01c-3.33-.83-2.54-5.59,.98-5.14l5.17,1.03h0Zm-20.76-3.68c3.26,.4,2.8,5.63-.78,5.18l-5.16-.75c-3.31-.41-2.81-5.63,.73-5.19l5.21,.76Z" style="fill:#859ac6; fill-rule:evenodd;"/></g><g><polygon points="2113.26 339.3 1997.97 386.57 2029.62 427 2113.26 339.3" style="fill:#c4d1eb; fill-rule:evenodd;"/><polygon points="1981.7 367.51 2109.74 339.56 1950.35 351.2 1981.7 367.51" style="fill:#c4d1eb; fill-rule:evenodd;"/><polygon points="1981.7 367.51 1984.69 420.6 1997.97 386.57 2113.26 339.3 2109.74 339.56 1981.7 367.51" style="fill:#9db2d9; fill-rule:evenodd;"/><polygon points="1984.69 420.6 2011.99 404.48 1997.97 386.57 1984.69 420.6" style="fill:#859ac6; fill-rule:evenodd;"/><path d="M1963.81,395.08c2.7-.33,3.33,3.88,.46,4.24l-4.2,.49c-2.74,.34-3.31-3.87-.5-4.22l4.24-.5h0Zm-240.51,272.35c-2.53-1.45-.69-4.92,1.84-3.83,1.26,.58,2.5,1.17,3.78,1.73,2.58,1.11,.9,5.01-1.66,3.91l-3.96-1.8h0Zm16.2,6.22c-2.55-.64-1.72-4.81,1.17-4.09,1.34,.37,2.66,.71,4.01,1.04,2.8,.71,1.68,4.8-.96,4.14-1.42-.33-2.8-.71-4.21-1.1h0Zm17.16,3.09c-2.8-.35-2.59-4.24,.27-4.24,1.38,.09,2.74,.15,4.13,.16,2.77,0,2.8,4.26-.03,4.26-1.43-.09-2.91-.09-4.37-.18h0Zm17.47-.91c-2.81,.35-3.53-3.5-.78-4.18,1.35-.24,2.69-.55,4.03-.87,2.72-.68,3.75,3.44,1.03,4.12-1.41,.36-2.85,.68-4.28,.93h0Zm16.66-5.47c-2.16,1.24-4.59-2.27-1.88-3.82,1.24-.6,2.42-1.27,3.61-1.94,2.49-1.42,4.53,2.32,2.15,3.67-1.26,.73-2.56,1.45-3.89,2.08h0Zm14.53-9.84c-2.31,1.92-4.84-1.5-2.84-3.16,.98-.88,2.08-1.88,2.97-2.84,2.04-2.04,4.98,1.03,3.05,2.96-1.04,1.04-2.08,2.05-3.18,3.04h0Zm11.46-13.21c-1.56,2.19-5,.2-3.52-2.37,.77-1.16,1.52-2.31,2.23-3.49,1.33-2.33,5.09-.35,3.64,2.18-.75,1.25-1.54,2.47-2.35,3.68h0Zm8.13-15.43c-.95,2.53-4.97,1.16-3.95-1.55,.51-1.29,1-2.6,1.45-3.9,1.03-2.76,4.95-1.11,4.02,1.38-.48,1.37-.98,2.73-1.52,4.07h0Zm5.18-16.5c-.68,2.75-4.8,1.69-4.13-1.01l.97-4.09c.71-2.86,4.79-1.66,4.15,.92l-.99,4.18h0Zm3.52-16.76c-.31,2.48-4.57,2.32-4.18-.77l.75-4.17c.31-2.51,4.57-2.31,4.19,.75l-.76,4.2h0Zm2.99-16.75c-.31,2.49-4.57,2.31-4.18-.76l.78-4.2c.68-2.68,4.54-2.08,4.18,.8l-.78,4.17h0Zm3.43-16.53c-.68,2.74-4.8,1.69-4.13-1.02,.34-1.39,.68-2.8,1.07-4.18,.65-2.58,4.82-1.71,4.1,1.14-.4,1.27-.73,2.75-1.05,4.06h0Zm4.24-15c-1.5,1.1-4.05-.33-3.22-2.53,.35-.9,.72-1.79,1.12-2.67-.19-1.05,.47-1.9,1.34-2.25,1.45-.96,3.89,.34,3.21,2.44,.33,.91,.67,1.82,1.03,2.7,.86,2.32-2.04,3.81-3.48,2.31h0Zm8.53-15.4c-1.88,2.26-4.99-.33-3.42-2.53,.87-1.19,1.8-2.35,2.77-3.46,1.71-2.05,5.08,.54,3.2,2.81-.9,1.02-1.74,2.09-2.55,3.18h0Zm11.65-11.21c-2.7,1.54-4.49-2.32-2.32-3.57,1.25-.82,2.5-1.57,3.8-2.28,2.3-1.32,4.57,2.28,2.01,3.75-1.2,.65-2.35,1.36-3.49,2.11h0Zm14.87-6.62c-2.81,.71-3.72-3.45-1.09-4.1,1.41-.39,2.82-.72,4.26-1.03,2.48-.62,3.8,3.43,.84,4.17-1.35,.27-2.69,.6-4.01,.96h0Zm16.37-2.61c-2.5,.31-3.37-3.86-.29-4.24,1.45-.1,2.88-.18,4.33-.23,2.97,0,2.77,4.25,.13,4.25-1.39,.05-2.77,.12-4.17,.22h0Zm16.54,.33c-2.72-.34-2.27-4.58,.58-4.22,1.45,.19,2.88,.41,4.32,.68,2.67,.67,2.08,4.54-.81,4.18-1.37-.26-2.71-.47-4.09-.65h0Zm15.78,4.25c-2.47-1.06-.93-5.02,1.75-3.87,1.39,.62,2.65,1.31,3.99,2.03,2.38,1.36,.34,5.09-2.14,3.67l2.14-3.67-2.14,3.67c-1.18-.66-2.35-1.27-3.59-1.83h0Zm12.92,9.38c-1.85-2.22,1.48-4.86,3.22-2.77,.98,1.11,1.92,2.36,2.74,3.6,1.55,2.71-2.32,4.48-3.56,2.33-.73-1.1-1.54-2.17-2.41-3.16h0Zm6.95,14.1c-.36-2.84,3.5-3.51,4.18-.79,.3,1.49,.48,2.97,.59,4.48,0,2.83-3.9,3.08-4.24,.26-.1-1.34-.26-2.63-.53-3.95h0Zm-.87,15.78c.6-2.42,4.81-1.76,4.06,1.27-.45,1.44-.95,2.81-1.55,4.2-1.09,2.55-5.01,.91-3.9-1.69,.54-1.25,1-2.48,1.4-3.78h0Zm-7.86,13.93c1.69-2.04,5.08,.54,3.19,2.81-.97,1.11-2.02,2.21-3.1,3.21-2.21,1.84-4.86-1.15-2.9-3.12,.98-.91,1.93-1.9,2.81-2.91h0Zm-12.7,10.02c2.32-1.33,4.56,2.28,2.02,3.74-1.31,.7-2.63,1.36-3.97,1.96-2.63,1.13-4.24-2.81-1.72-3.89,1.26-.56,2.46-1.16,3.67-1.8h0Zm-15.31,5.73c2.51-.63,3.79,3.44,.86,4.17-1.44,.31-2.88,.59-4.34,.81-2.81,.35-3.3-3.87-.55-4.22,1.37-.24,2.67-.46,4.03-.75h0Zm-16.25,1.06c2.88,.36,2.23,4.57-.44,4.23-1.45-.12-2.99-.37-4.41-.65-2.94-.73-1.65-4.79,.85-4.16,1.29,.26,2.69,.48,4,.59h0Zm-15.58-4.42c2.52,1.44,.7,4.92-1.85,3.82-1.34-.63-2.64-1.34-3.92-2.08-2.35-1.34-.34-5.09,2.18-3.65,1.14,.68,2.38,1.34,3.58,1.91h0Zm-13.41-9.26c2.1,2.1-1.06,4.97-2.92,3.1-1.06-.99-2.13-2.04-3.12-3.12-1.95-2.34,1.5-4.83,3.14-2.87,.92,.99,1.91,1.96,2.91,2.88h0Zm-10.55-12.64c1.54,2.69-2.32,4.49-3.57,2.32-.8-1.22-1.55-2.46-2.28-3.71-1.41-2.46,2.31-4.54,3.68-2.13,.7,1.19,1.41,2.37,2.17,3.53h0Zm-12.34-30.63c.61,2.47-3.43,3.79-4.17,.82-.29-1.42-.55-2.84-.79-4.27-.37-2.93,3.87-3.28,4.2-.65,.25,1.37,.48,2.73,.76,4.1h0Zm-2.04-16.52c0,2.97-4.24,2.77-4.24,.13-.06-1.45-.09-2.88-.09-4.33,0-2.78,4.25-2.8,4.25,.02,0,1.4,.04,2.78,.09,4.18h0Zm.65-16.65c-.34,2.78-4.57,2.26-4.21-.53,.17-1.44,.37-2.88,.6-4.31,.32-2.54,4.57-2.3,4.19,.72-.25,1.29-.41,2.79-.58,4.11h0Zm3.31-16.31c-.62,2.5-4.81,1.73-4.07-1.2,.4-1.39,.83-2.76,1.28-4.13,1.05-2.8,4.95-1.1,4.03,1.35-.44,1.33-.86,2.64-1.24,3.99h0Zm5.91-15.55c-1.55,2.72-5.04,.28-3.82-1.87,.63-1.31,1.27-2.6,1.94-3.87,1.46-2.55,5.07-.3,3.75,2.02-.65,1.23-1.27,2.47-1.87,3.72h0Zm8.39-14.38c-1.62,2.27-5.09-.19-3.46-2.47,.83-1.18,1.68-2.35,2.56-3.5,1.91-2.3,5.04,.59,3.36,2.6-.84,1.11-1.65,2.23-2.46,3.36h0Zm10.63-12.84c-2.02,2.02-4.99-1.03-3.05-2.98,1.01-1.04,2.04-2.05,3.08-3.05,1.88-1.87,5.01,1,2.92,3.09-1,.96-1.99,1.94-2.95,2.94h0Zm12.48-11.05c-1.94,1.62-4.91-1.43-2.55-3.4,1.14-.87,2.31-1.73,3.49-2.56,2.22-1.59,4.76,1.82,2.42,3.49-1.14,.8-2.26,1.63-3.36,2.47h0Zm13.96-9.18c-2.39,1.36-4.55-2.3-2.08-3.71,1.26-.71,2.53-1.41,3.81-2.07,2.22-1.27,4.58,2.27,1.93,3.78-1.23,.63-2.46,1.32-3.66,2h0Zm15.05-7.35c-2.51,1.08-4.26-2.8-1.62-3.93,1.32-.56,2.66-1.1,4-1.61,2.63-.99,4.12,3,1.5,3.98-1.31,.49-2.61,1.03-3.89,1.56h0Zm15.8-5.64c-2.91,.73-3.71-3.45-1.19-4.08l4.13-1.19c2.81-.71,3.71,3.45,1.1,4.1l-4.04,1.17h0Zm16.33-4.1c-2.5,.62-3.8-3.44-.86-4.17,1.4-.3,2.81-.56,4.21-.82,3.09-.39,3.25,3.87,.78,4.18-1.38,.26-2.77,.52-4.13,.81Z" style="fill:#859ac6; fill-rule:evenodd;"/></g><g><path d="M1009.3,232.59c-11-3.64-23.82,.9-31.16,9.85-6.96-9.68-20.03-14.52-31.62-11.72-11.59,2.81-20.99,13.09-22.77,24.88-6.07-1.78-12.69-2.36-18.66-.26-5.96,2.1-11.09,7.26-11.9,13.53-4.44-.92-8.98-1.83-13.47-1.2-4.49,.64-8.98,3.12-10.76,7.3-2.63,6.18,2.01,13.66,8.32,15.96,6.31,2.3,13.43,.58,19.46-2.37,5.53,7.02,13.96,11.67,22.84,12.63,8.89,.95,18.11-1.83,25-7.52,7.3,8.2,18.26,13.01,29.24,12.82,10.98-.19,21.77-5.35,28.79-13.8,7.47,5.82,24.62,12.75,32.63,4.45,3.38-3.5,4.36-9.12,2.35-13.57,4.92,.05,9.7-3.16,11.54-7.72,1.84-4.56,.61-10.19-2.96-13.58-7.22-6.83-14.93-2.12-20.21,4.01,.08-13.58-1.18-28.85-16.67-33.7Z" style="fill:#fff; fill-rule:evenodd;"/><path d="M923.75,255.61c-6.07-1.78-12.69-2.36-18.66-.26-5.96,2.1-11.09,7.26-11.9,13.53-4.44-.92-8.98-1.83-13.47-1.2-4.49,.64-8.98,3.12-10.76,7.3-2.63,6.18,2.01,13.66,8.32,15.96,6.31,2.3,13.43,.58,19.46-2.37,5.53,7.02,13.96,11.67,22.84,12.63,8.89,.95,18.11-1.83,25-7.52,7.3,8.2,18.26,13.01,29.24,12.82,10.98-.19,21.77-5.35,28.79-13.8,7.47,5.82,24.62,12.75,32.63,4.45,3.38-3.5,4.36-9.12,2.35-13.57,4.92,.05,9.7-3.16,11.54-7.72,1.84-4.56,.61-10.19-2.96-13.58-7.22-6.83-14.93-2.12-20.21,4.01,.07-10.52-.68-22.06-8.24-28.98,.68,7.62-.68,15.49-4.82,21.86-4.82,7.41-13.77,12.37-22.51,11.11-3.46-.5-6.89-2.02-9.07-4.75-2.86-3.58-2.72-8.81-5.56-12.29-2.28-2.78-6.18-4.04-9.22-5.69,3.45,1.87,4.95,6.36,4.03,10.18-.92,3.82-3.87,6.91-7.31,8.81-5.09,2.81-11.51,3.24-16.84,.9-5.33-2.33-9.42-7.44-10.27-13.21-.94-6.28,1.88-12.68,6.2-17.34,2.54-2.74,5.57-4.96,8.8-6.88-1.56,.11-3.11,.34-4.64,.71-11.59,2.81-20.99,13.09-22.77,24.88Z" style="fill:#f0f3f9; fill-rule:evenodd;"/><path d="M1002.61,292.69c7.47,5.82,24.62,12.75,32.63,4.45,3.38-3.5,4.36-9.12,2.35-13.57,4.92,.05,9.7-3.16,11.54-7.72,1.84-4.56,.61-10.19-2.96-13.58,.46,3.36-.3,6.33-1.88,9.32-1.58,2.98-4.59,5.33-7.97,5.55-3.38,.23-6.91-2.02-7.65-5.32-1.02,1.94-.04,4.34,1.27,6.09,1.31,1.76,2.99,3.35,3.58,5.46,.89,3.19-1.12,6.64-3.94,8.39-2.82,1.74-6.25,2.12-9.57,2.25-6.21,.26-11.55,.75-17.4-1.33Z" style="fill:#e3edf3; fill-rule:evenodd;"/><path d="M973.82,306.49c-10.98,.19-21.94-4.62-29.24-12.82-6.89,5.69-16.11,8.46-25,7.52-8.88-.96-17.31-5.61-22.84-12.63-6.03,2.95-13.15,4.67-19.46,2.37-6.31-2.3-10.95-9.78-8.32-15.96,.23,5.36,5.79,9.68,10.96,11.13,5.18,1.45,10.69,.55,15.92-.68-1.12-3.18-1.38-6.66-.73-9.97,4.03,5.61,8.85,11.1,15.36,13.41,3.84,1.36,7.99,1.5,12.07,1.55,4.99,.06,10.06-.02,14.83-1.48,4.76-1.46,9.26-4.52,11.39-9.03-3.18,6.75,6.58,15.64,11.18,18.92,4.69,3.35,9.97,5.74,15.25,8.04l-1.37-.35Z" style="fill:#e3edf3; fill-rule:evenodd;"/></g><g><path d="M1349.8,188.8c-32.72-18.04-35.61-70.1-1.17-87.57,4.23-2.15,10.54-5.47,15.25-6.15,2.39-.35,18,1.66,17.83,5.18,.58-11.93,9.43-22.1,19.74-28.16,25.86-15.22,62.82-7.21,80.08,17.34,17.25,24.55,12.27,62.03-10.8,81.23,9.18-4.11,20.94-1.39,27.37,6.33,6.45,7.72,7.02,19.77,1.34,28.06,12.13-7.01,29.47-2.72,36.91,9.15,18.4-3.97,37.97-2.35,55.46,4.6,3.91,1.55,7.86,3.48,10.38,6.85,2.52,3.36,3.09,8.52,.25,11.6-1.83,1.98-4.61,2.74-7.24,3.26-10.1,2.01-20.47,2.07-30.77,2.11-48.12,.23-96.24,.46-144.37,.69-4.84,.02-9.85,0-14.28-1.98-4.42-2-8.07-6.55-7.4-11.35-7.03,5.57-15.33,9.88-24.25,10.85-8.92,.97-18.5-1.76-24.56-8.38-28.05,7.6-57.66,9.36-86.42,5.13-4.73-.69-9.59-1.61-13.58-4.24-3.99-2.63-6.95-7.4-6.06-12.1,.89-4.72,5.39-8.09,10.07-9.12,4.69-1.03,9.56-.16,14.27,.79-1.85-9.15,3.68-18.64,11.5-23.75,7.82-5.11,17.46-6.59,26.79-6.89,14.79-.46,29.66,1.76,43.66,6.52Z" style="fill:#fff; fill-rule:evenodd;"/><path d="M1253.58,212.13c-4.69,1.03-9.19,4.4-10.07,9.12-.89,4.7,2.07,9.47,6.06,12.1,3.99,2.63,8.85,3.55,13.58,4.24,28.75,4.23,58.37,2.47,86.42-5.13,6.06,6.62,15.64,9.35,24.56,8.38,8.92-.97,17.22-5.28,24.25-10.85-.68,4.8,2.98,9.36,7.4,11.35,4.42,1.99,9.43,2,14.28,1.98,48.13-.23,96.25-.46,144.37-.69,10.3-.05,20.66-.1,30.77-2.11,2.63-.53,5.41-1.28,7.24-3.26,2.84-3.08,2.27-8.24-.25-11.6-.93-1.24-2.07-2.29-3.31-3.19-14.64,4.26-30.79,2.72-45.99,0-5.21-.93-10.75-2.18-14.31-6.08-.62-.68-1.13-1.47-1.54-2.32-.23,.05-.45,.09-.68,.14-7.45-11.87-24.78-16.16-36.91-9.15,5.68-8.29,5.11-20.35-1.34-28.06-6.43-7.72-18.19-10.44-27.37-6.33,17.24-14.35,24.38-38.9,19.68-60.65-2.21,14.97-7.42,29.56-16.72,41.42-10.99,14.01-28.15,23.73-45.94,23.24-2.4-18.31-14.26-35.13-30.7-43.53,8.91,6.81,9.14,21.63,1.51,29.85-7.63,8.22-20.96,9.64-31.05,4.75-10.09-4.89-16.94-15.11-19.59-26.01-3.93-16.2,1.61-29.83,10.08-42.92-3.33,1.32-6.75,3.09-9.36,4.42-34.44,17.48-31.55,69.53,1.17,87.57-3.51-1.19-7.07-2.22-10.67-3.09-11.85,3.12-24.99,5.08-36.7,8.27-12.38,3.37-24.82,11.01-28.58,23.29-1.89-1.57-3.91-3.03-6.01-4.36h0c-4.71-.94-9.57-1.81-14.27-.79Z" style="fill:#f0f3f9; fill-rule:evenodd;"/><path d="M1349.8,188.8c-32.72-18.04-35.61-70.1-1.17-87.57,2.61-1.33,6.02-3.1,9.36-4.42-17.24,8.38-26.16,28.26-26.46,47.42-.16,9.92,1.56,20.45,8.04,27.97,5.84,6.77,14.89,10.16,23.81,10.7,8.93,.54,17.81-1.5,26.37-4.09-10.11,9.54-27.77,16.72-39.95,9.99Z" style="fill:#e3edf3; fill-rule:evenodd;"/><path d="M1499.43,205.05c5.68-8.29,5.11-20.35-1.34-28.06-6.43-7.72-18.19-10.44-27.37-6.33,6.78-1.25,13.24,5.13,14.59,11.88,1.35,6.76-1.45,13.74-5.51,19.3-1.69,2.32-3.66,4.51-6.16,5.91-3.79,2.13-8.36,2.23-12.71,2.02-9.95-.48-21.22-3.26-25.79-12.11-.87,6.82,3.79,13.44,9.82,16.76,6.02,3.33,13.13,3.99,20.01,4.13,6.5,.13,13.09-.15,19.3-2.04,6.22-1.9,11.48-6.11,15.15-11.47Z" style="fill:#e3edf3; fill-rule:evenodd;"/><path d="M1602.18,225.65c2.52,3.36,3.09,8.52,.25,11.6-1.83,1.98-4.61,2.74-7.24,3.26-10.1,2.01-20.47,2.07-30.77,2.11-48.12,.23-96.24,.46-144.37,.69-4.84,.02-9.85,0-14.28-1.98-4.42-2-8.07-6.55-7.4-11.35,7.63,5.36,16.73,6.42,26.05,6.76,11.28,.41,22.7,.4,33.69-2.22,10.97-2.63,21.58-8.13,28.54-17.01,.87,7.37-2.8,15.09-9.05,19.07,32.56-4,65.54-.24,98.35-.88,9.55-.18,22.71-1.17,26.24-10.06Z" style="fill:#e3edf3; fill-rule:evenodd;"/><path d="M1398.38,229.98c-7.03,5.57-15.33,9.88-24.25,10.85-8.92,.97-18.5-1.76-24.56-8.38-28.05,7.6-57.66,9.36-86.42,5.13-4.73-.69-9.59-1.61-13.58-4.24-3.99-2.63-6.95-7.4-6.06-12.1,3.83,7.41,13.89,9.01,22.22,9.71,9.58,.82,19.3,.12,28.67-2.06-4.39-.92-8.47-3.24-11.49-6.55,25.64,6.27,53.3,3.98,77.56-6.45-1.03,4.69,1.93,9.64,6.12,11.99,4.2,2.35,9.32,2.48,14.04,1.57,15.64-3.01,28.15-17.85,28.47-33.77,2.51,11.63-1.38,26.92-10.71,34.3Z" style="fill:#e3edf3; fill-rule:evenodd;"/></g><g><path d="M1939.35,922.42c34.25,31.26,19.36,62.54-5.95,120.61-25.31,58.07-29.77,272.49-29.77,272.49l20.84-2.98s-2.99-220.38,25.3-279.95c28.29-59.57,40.22-89.34,65.53-69.98,25.3,19.37-75.95-40.2-75.95-40.2Z" style="fill:#b0c2e4; fill-rule:evenodd;"/><path d="M1920.56,881.93c4.13-18.54,28.85-38.58,61.88-55.6-4.93,27.33-20.63,72.02-4.37,81.2,21.99,12.36,2.14-50.04,10.62-84.33,31.02-15.15,68.36-27.53,102.7-33.69-.07,.12-.1,.25-.13,.38-19.35,49.14-44.66,68.5-34.24,75.93,7.82,5.6,33.35-51.15,67.1-80.25,25.31-1.35,46.74,2.08,59.39,12.12,19.58,15.5,32.73,29.25,13.05,76.46-11.24,8.04-25.82,13.79-42.75,15.5-44.67,4.48-65.54,5.95-34.25,20.85,15.32,7.3,40.95-.4,61.79-5.11-6.75,12.43-15.06,26.52-25.15,42.56-6.4,10.17-13.45,18.99-20.94,26.63-14.39,2.77-26.94,2.79-33.59-.05-20.83-8.94-74.43-37.23-87.84-25.31-13.11,11.66,99.28,19.05,91.49,48.67-54.49,31.38-116.83,16.45-127.84-12.37-14.83-38.69-69.44-47.81-56.92-103.59Z" style="fill:#c4d1eb; fill-rule:evenodd;"/><path d="M2033.18,1093.66c-59.58-44.68-120.61-2.98-151.9,44.67-31.26,47.65-8.94,154.85-8.94,154.85,0,0,11.93,0,11.93-4.46s-32.77-126.56,44.66-181.67c48.44-34.46,83.37-17.86,87.85-1.48,4.46,16.37-19.37,46.16-19.37,46.16l35.76-58.08Z" style="fill:#b0c2e4; fill-rule:evenodd;"/><path d="M1896.17,1001.83c59.58,0,78.94,92.32,62.54,145.92-16.37,53.61-38.71,153.37-38.71,153.37l-14.89-14.88s56.59-139.97,43.18-202.51c-13.4-62.54-46.14-72.96-52.12-72.96s0-8.93,0-8.93Z" style="fill:#b0c2e4; fill-rule:evenodd;"/><path d="M1946.12,1148.17c4.2-5.56,9.36-10.13,15.67-13.19-.82,4.45-1.84,8.71-3.09,12.77-7.46,24.43-16.13,58.42-23.43,88.21-.62-3.81-1.68-9.69-3.22-18.75-.4-2.14-.66-4.48-.89-6.93,5.84-19.84,11.36-41.46,14.95-62.11Z" style="fill:#b0c2e4; fill-rule:evenodd;"/><path d="M1962.42,1148.62c113.14-47.65,53.54-113.03,153.3-69.86,7.04,3.04,15.58,10.72,24.15,21.29-8.87,2.53-19.62,4.34-31.61,2.54-29.77-4.47-19.35,19.36,29.81,25.32,9.23,1.12,16.75,2.67,23,4.85,23.44,44.97,33.98,104.13-15.57,124.68-9.76,4.06-21.82,6.38-35.27,7.24-15.28-12.15,3.75-82.46-19.85-72.76-22.61,9.33,7.13,60.27,3.06,73.11-22.35-.4-47.09-4.06-70.7-9.91-9.37-5.25-16.53-12.27-18.7-21.5-7.46-31.28,41.67-50.63,43.18-77.44,1.34-24.63-18.04,54.22-69.35,65.82-46.43-21.68-68.39-51.12-15.47-73.39Z" style="fill:#c4d1eb; fill-rule:evenodd;"/><path d="M1881.78,1064.38c11.92-25.31-19.36-31.28-17.85-11.93,1.28,17.17,1.45,58.86-16.13,70.21-30.33-3.3-71.61-15.52-102.84-34.15-.39-2.52,0-5.11,1.32-7.76,13.41-26.8,99.78-49.14,72.96-58.07-21.32-7.13-58.76,34.88-88.9,56.03-18.11-13.74-30.24-30.11-30.24-48.38,0-24.74,30.08-52.74,68.95-66.13,17.49,1.77,33.76,11.32,59.12,25.72,37.5,21.25,28.82-13.11-6.64-33.5,30.63,1.59,61.13,14.66,83.64,45.9,0,0-2.13,13.36,12,34.02,38.55,56.34-5.95,89.24-59.12,87.11,3.03-14.85,15.51-41.58,23.73-59.07Z" style="fill:#c4d1eb; fill-rule:evenodd;"/><path d="M2029.6,1091.12c29.12,22.51,61.45,48.82,101.15,66.68,39.73,17.87,31.78,76.11,31.78,76.11,0,0,5.95-50.3-27.15-67.51-33.09-17.2-54.91-37.72-80.05-41.69-25.18-3.98-39.07-7.94-39.07-7.94,0,0,7.95-15.88,3.32-21.84-4.64-5.96,10.02-3.82,10.02-3.82Z" style="fill:#b0c2e4; fill-rule:evenodd;"/><path d="M2173.11,826.9c-106.54,28.45-184.63,96.62-199.22,113.17-14.56,16.54-14.56,21.18-14.56,21.18l11.27,21.18,5.29-2.66s-8.61-17.86,13.9-41.03c38.81-39.95,86.03-71.49,118.47-85.38,32.44-13.9,64.84-26.47,64.84-26.47Z" style="fill:#b0c2e4; fill-rule:evenodd;"/><path d="M1878.98,1416.7h40.72c28.95,0,52.41-23.47,52.41-52.42v-93.53h-145.55v93.53c0,28.95,23.46,52.42,52.42,52.42Z" style="fill:#9db2d9; fill-rule:evenodd;"/><rect x="1826.56" y="1287.47" width="145.55" height="10.24" style="fill:#fff;"/><rect x="1826.56" y="1306.15" width="145.55" height="6.02" style="fill:#fff;"/></g><g><path d="M1792.05,502.29c-10.99-3.64-23.81,.89-31.16,9.85-6.96-9.68-20.03-14.52-31.61-11.72-11.59,2.81-21,13.09-22.77,24.88-6.06-1.78-12.69-2.35-18.65-.26-5.97,2.09-11.1,7.25-11.91,13.53-4.44-.92-8.98-1.84-13.47-1.2-4.48,.63-8.99,3.12-10.76,7.29-2.63,6.18,2.02,13.66,8.33,15.96,6.31,2.31,13.42,.58,19.46-2.37,5.53,7.02,13.96,11.68,22.83,12.63,8.89,.95,18.11-1.82,25-7.52,7.3,8.2,18.26,13.01,29.24,12.82,10.97-.18,21.77-5.35,28.79-13.8,7.47,5.83,24.62,12.76,32.63,4.45,3.38-3.5,4.35-9.12,2.34-13.56,4.93,.04,9.71-3.16,11.55-7.72,1.84-4.56,.62-10.19-2.95-13.57-7.21-6.84-14.94-2.13-20.21,4.01,.08-13.58-1.18-28.85-16.68-33.7Z" style="fill:#fff; fill-rule:evenodd;"/><path d="M1706.5,525.3c-6.06-1.78-12.69-2.35-18.65-.26-5.97,2.09-11.1,7.25-11.91,13.53-4.44-.92-8.98-1.84-13.47-1.2-4.48,.63-8.99,3.12-10.76,7.29-2.63,6.18,2.02,13.66,8.33,15.96,6.31,2.31,13.42,.58,19.46-2.37,5.53,7.02,13.96,11.68,22.83,12.63,8.89,.95,18.11-1.82,25-7.52,7.3,8.2,18.26,13.01,29.24,12.82,10.97-.18,21.77-5.35,28.79-13.8,7.47,5.83,24.62,12.76,32.63,4.45,3.38-3.5,4.35-9.12,2.34-13.56,4.93,.04,9.71-3.16,11.55-7.72,1.84-4.56,.62-10.19-2.95-13.57-7.21-6.84-14.94-2.13-20.21,4.01,.06-10.53-.68-22.07-8.24-28.99,.68,7.62-.68,15.49-4.83,21.87-4.81,7.41-13.76,12.36-22.51,11.1-3.46-.5-6.89-2.02-9.07-4.75-2.86-3.58-2.73-8.81-5.56-12.28-2.28-2.79-6.18-4.05-9.22-5.7,3.45,1.87,4.96,6.36,4.03,10.18-.92,3.82-3.87,6.91-7.31,8.81-5.1,2.81-11.5,3.24-16.83,.91-5.34-2.34-9.42-7.45-10.27-13.21-.93-6.29,1.88-12.69,6.2-17.35,2.54-2.74,5.56-4.96,8.8-6.88-1.56,.11-3.11,.35-4.63,.72-11.59,2.81-21,13.09-22.77,24.88Z" style="fill:#f0f3f9; fill-rule:evenodd;"/><path d="M1785.37,562.39c7.47,5.83,24.62,12.76,32.63,4.45,3.38-3.5,4.35-9.12,2.34-13.56,4.93,.04,9.71-3.16,11.55-7.72,1.84-4.56,.62-10.19-2.95-13.57,.45,3.35-.3,6.32-1.89,9.31-1.58,2.99-4.59,5.33-7.97,5.55-3.37,.23-6.9-2.01-7.65-5.32-1.02,1.94-.04,4.34,1.27,6.1,1.31,1.76,2.99,3.35,3.58,5.46,.89,3.19-1.12,6.64-3.95,8.39-2.81,1.74-6.25,2.12-9.56,2.26-6.21,.25-11.55,.75-17.41-1.34Z" style="fill:#e3edf3; fill-rule:evenodd;"/><path d="M1756.58,576.19c-10.98,.19-21.95-4.62-29.24-12.82-6.89,5.7-16.11,8.46-25,7.52-8.88-.95-17.31-5.61-22.83-12.63-6.04,2.95-13.15,4.68-19.46,2.37-6.31-2.3-10.96-9.78-8.33-15.96,.23,5.37,5.8,9.69,10.96,11.13,5.17,1.45,10.69,.55,15.92-.68-1.13-3.19-1.38-6.67-.74-9.98,4.03,5.61,8.85,11.11,15.36,13.41,3.84,1.36,8,1.5,12.08,1.55,4.98,.05,10.06-.02,14.82-1.48,4.76-1.47,9.26-4.52,11.38-9.03-3.19,6.75,6.58,15.63,11.18,18.92,4.69,3.35,9.97,5.74,15.25,8.04l-1.36-.35Z" style="fill:#e3edf3; fill-rule:evenodd;"/></g><g><path d="M1298.04,548.11s22.21,18.92,1.83,40.69c0,0,16.99,1.67,22.72-3.03,0,0-1.13,2.29-2.19,3.32,0,0,18.99,.68,26.83-5.24,7.83-5.92,2.81-103.02-49.88-92.17,0,0-44.65-3.37-40.5,48.29,4.18,51.66-12.69,51.66-12.69,51.66,0,0,4.69,2.32,6.96,2.32,0,0,3.31-1.27,3.97-3.09,0,0-.66,2.88-1.51,3.78,0,0,18.19,1.73,27.29-5.14,9.09-6.87,19.75-30.74,17.17-41.39Z" style="fill:#20386f; fill-rule:evenodd;"/><path d="M1231.11,661.4h121.72c-8.7-21.81-21.18-37.6-30.65-39.53-5.04-1.34-13.62-19.58-13.5-48.98l-2.28,.45-38.23,7.57s.86,12.04,.89,23.37c.03,9.45-.48,19.06-2.63,20.18-2.75,.25-5.25,.75-5.25,.75,0,0-20.75,14.56-30.08,36.19Z" style="fill:#f9af79; fill-rule:evenodd;"/><path d="M1268.18,580.91s.86,12.03,.89,23.37c21.4-.61,32.7-20.12,37.33-30.94l-38.23,7.57Z" style="fill:#ed7d57; fill-rule:evenodd;"/><path d="M1310.35,569.17s11.2-17.71,13.9-32.86c1.93-10.82-3.58-50.9-43.86-45.13,0,0-11.7,1.15-22.69,8.58-8.75,5.91-21.38,18.66-7.25,53.64l3.65,11.82,56.26,3.95Z" style="fill:#20386f; fill-rule:evenodd;"/><path d="M1261.04,591.64s50.61,.84,50.64-30.7c.05-31.53,6.59-52.65-25.71-54.52-32.32-1.87-38.6,10.16-41.18,20.68-2.58,10.51,3.09,63.51,16.26,64.53Z" style="fill:#f9af79; fill-rule:evenodd;"/><path d="M1262.9,505.65s13.85,36.99,35.14,42.46c21.26,5.46,30.48-.23,30.48-.23,0,0-16.3-12.97-19.69-35.59,0,0-35.47-24.25-45.93-6.65Z" style="fill:#20386f; fill-rule:evenodd;"/><path d="M1266.34,508.66s-10.34,8.25-12.88,16.28c-2.53,8.03-3.67,24.56-8.47,24,0,0-10.45-25.14,1.28-39.37,12.44-15.08,20.07-.91,20.07-.91Z" style="fill:#20386f; fill-rule:evenodd;"/><path d="M1264.41,509.9s9.89,38.74,36.72,51.14c0,0-26.83-23.8-29.12-49.37-2.28-25.57-7.6-1.77-7.6-1.77Z" style="fill:#20386f; fill-rule:evenodd;"/><polygon points="1340.35 1267.04 1326.2 1326.67 1304.99 1326.54 1304.21 1267.04 1340.35 1267.04" style="fill:#f9af79; fill-rule:evenodd;"/><polygon points="1162.01 1269.59 1121.74 1326.67 1106.05 1306.51 1130.29 1261.74 1162.01 1269.59" style="fill:#f9af79; fill-rule:evenodd;"/><path d="M1112.44,1290.87l20.73,.64,22.45,.68s51.85-57.74,80.95-150.28c.67-2.15,1.38-4.33,2.14-6.54,15.92-46.4,48.91-104.67,66.3-157.41,2.77-8.4,5.25-16.3,7.48-23.79,.71-2.4,1.41-4.74,2.07-7.06,12.82-44.53,16.52-73.76,19.94-105.01l-125.57,1.02s-20.27,213.29-96.51,447.74Z" style="fill:#223f81; fill-rule:evenodd;"/><path d="M1326.91,1323.33s-1.71,11.81,2.71,24.43c0,0,3.47,15.82-12.11,16.11-15.57,.3-19.38-1.17-17.62-10.87,1.76-9.69,5.11-26.46,5.11-26.46l21.91-3.21Z" style="fill:#f9af79; fill-rule:evenodd;"/><path d="M1297.83,1373.26c9.9,18.68,24,17.34,34.1,0,1.4-7.01-1.69-21.97-2.2-24.84-.04-.22-.07-.37-.1-.48,0-.1-.02-.16-.02-.16-17.62,16.15-28.65-.42-28.65-.42-.02,.02-.02,.05-.03,.09-2.59,6.33-3.14,23.34-3.09,25.82Z" style="fill:#0e2952; fill-rule:evenodd;"/><path d="M1068.53,1354.59s28.71-31.86,37.52-48.07l21.36,10.93-47.72,44.8-11.16-1.45v-6.21Z" style="fill:#f9af79; fill-rule:evenodd;"/><path d="M1133.18,1291.51l22.45,.68s51.85-57.74,80.95-150.28c.67-2.15,1.38-4.33,2.14-6.54,15.92-46.4,48.91-104.67,66.3-157.41,2.77-8.4,5.25-16.3,7.48-23.79,.71-2.4,1.41-4.74,2.07-7.06l-18.5-14.04s-55.52,89.91-72.71,174.51c-14.93,73.49-74.71,161.91-90.2,183.92Z" style="fill:#20386f; fill-rule:evenodd;"/><path d="M1294.16,1115.47c-.32,41.14,1.76,135.73,7.12,174.89h19.88c11,0,16.47-.15,16.47-.15,13.44-68.08,23.01-124.43,29.97-172.98,5.71-39.84,10.79-73.99,14.69-103.38,3.93-29.6,6.67-54.38,7.64-75.31,.16-3.29,.27-6.5,.34-9.61,.05-3.13,.07-6.16,.05-9.12l-108.5-10.58c1.37,72.09,12.51,182.34,12.34,206.25Z" style="fill:#223f81; fill-rule:evenodd;"/><path d="M1321.16,1290.36c11,0,16.47-.15,16.47-.15,13.44-68.08,23.01-124.43,29.97-172.98,5.71-39.84,10.79-73.99,14.69-103.38,3.93-29.6,6.67-54.38,7.64-75.31l-39.8,23.42s25.41,8.97,15.71,76.83c-9.7,67.87-31.19,241.98-44.68,251.57Z" style="fill:#20386f; fill-rule:evenodd;"/><path d="M1226.53,770.97c.31,59.75-8.77,85.38-8.77,85.38,0,0,53.76,27.32,117.66,7.21,.75-.24,52.92-12.15,52.92-12.15-1.07-2.42-10.58-42.68-11.63-44.9-13.49-28.96-23.73-41.68-25.33-50.58-2.97-16.63-3.04-33.83-1.55-50.05,3.9-42.96,15.5-78.62,15.5-78.62-17.42-3.96-33.72-10.93-51.84-17.72-4.17,5.19-16.92,10.62-27.97,10.38-12.73-.28-16.86-5.74-16.2-11.68-13.56,7.55-24.38,14.68-24.38,14.68-11.52,20.02-34.91,39.47-36.6,70.19-.42,7.55,18.18,76.19,18.19,77.87Z" style="fill:#e9f0f9; fill-rule:evenodd;"/><path d="M1316.04,937.87s7.64,27.62,34.08,24.09c26.45-3.53,64.04-19.38,64.04-19.38,0,0-11.3-35.72-25.35-82.62-17.01-56.79-21.25-136.6-31.16-182.78-2.78-12.94-21.52-17.14-22.23-24.88l-21.93-42.56s-32.71,73.42-34.47,91.92c-1.76,18.51,37.02,236.21,37.02,236.21Z" style="fill:#6d96ce; fill-rule:evenodd;"/><path d="M1334.52,756.16c1.18,29.98,11.67,81.09,53.79,103.56,.16,.09,.33,.16,.5,.24-17.01-56.79-16.79-111.27-26.72-157.46-22.64-4.71-28.21,37.16-27.57,53.65Z" style="fill:#466fb5; fill-rule:evenodd;"/><path d="M1380.79,822.7s-18.9-4.08-23.75,1.31c-4.86,5.39-7.58,13.96-2.74,16.97,4.85,3.02,18.9-5.25,23.95-1.91,3.62,2.39,4.76,8.46,8.39,6.34,3.64-2.13,7.48-16.05,7.48-16.05l-13.34-6.67Z" style="fill:#f9af79; fill-rule:evenodd;"/><path d="M1313.49,609.74s50.98,2.24,63.23,13.62c12.25,11.39,85.62,99.3,86.82,122.34,1.22,23.03-64.27,88.52-64.27,88.52,0,0-18.19-4.39-26.07-15.83,0,0,40.63-72.44,38.2-75.6-2.42-3.16-71.24-59.55-76.88-47.05-4.87,10.79-21.03-86.01-21.03-86.01Z" style="fill:#6d96ce; fill-rule:evenodd;"/><path d="M1274.12,570.31c-7.28,1.56-11.48,1.66-18.92,1.41-2.98-.11,7.25,20.57,19.54-.34,.3-.5-.06-1.2-.63-1.07Z" style="fill:#eb795b; fill-rule:evenodd;"/><path d="M1273.26,529.06c-3.49,.97-2.73,3.76,.03,3.91,29.38,1.4,8.63-6.33-.03-3.91Z" style="fill:#20386f; fill-rule:evenodd;"/><path d="M1255.29,529.97c3.58,.61,3.09,3.47,.37,3.89-29.08,4.37-9.22-5.42-.37-3.89Z" style="fill:#20386f; fill-rule:evenodd;"/><path d="M1260.32,562.07l-.19-.02c-3.12-.84-4.77-1.34-5.32-2.56-.5-1.11,.09-2.32,1.19-4.5,1.21-2.41,3.05-6.08,4.76-12.18,.12-.44,.59-.69,1.04-.57,.43,.12,.7,.58,.58,1.04-1.76,6.23-3.64,9.99-4.88,12.47-.72,1.43-1.34,2.67-1.17,3.05,.25,.54,2.46,1.14,4.23,1.62,.45,.12,.72,.58,.59,1.04-.1,.37-.47,.62-.84,.61Z" style="fill:#eb795b; fill-rule:evenodd;"/><path d="M1249.94,549.3c-2.07,.19-4.41-7.52,.6-7.97,2.67-.25,2.77,7.66-.6,7.97Z" style="fill:#20386f; fill-rule:evenodd;"/><path d="M1277.92,547.18c-2.07,.18-4.41-7.51,.6-7.97,2.67-.24,2.78,7.67-.6,7.97Z" style="fill:#20386f; fill-rule:evenodd;"/><path d="M1273.7,570.77c3.05,2.2-13.65,5.74-17.1,3.67-.37-.22-1.69-1.55-1.43-2.07,.26-.52,2.36-.09,2.91-.08,5.34,.26,10.23-.19,15.61-1.52Z" style="fill:#fff; fill-rule:evenodd;"/><path d="M1202.21,691.73c2.33-13.93,4.45-26.67,6.12-34.76,7.23-34.82,34.82-41.74,34.82-41.74l26.17-7s-29.97,74.04-30.84,89.02c-.89,14.98-3.52,245.03-3.52,245.03,0,0,1.76,10.58-18.51,6.16-20.28-4.4-25.57-8.81-25.57-8.81,0,0,8.8-64.31,12.92-121.4-.5-.08-1.03-.19-1.58-.31v-126.19Z" style="fill:#6d96ce; fill-rule:evenodd;"/><g><rect x="1269.17" y="425.15" width="14.32" height="41.45" transform="translate(637.02 1637.14) rotate(-81.04)" style="fill:#e5bb9a;"/><path d="M1258.58,427.76c-2.29-1.54-3.57-3.92-3.07-7.13l.16-.99c3.89-27.77-19.23-39.38-16.37-70.33,.22-2.32,.59-4.57,1.11-6.73,7.48-22.64,32.03-34.75,56.85-30.84,28.28,4.47,49.82,28.63,43.47,57.08-6.56,29.43-30.95,33.3-35.64,60.1-.46,2.91-4.1,5.77-6.71,5.12l-39.8-6.28Z" style="fill:#e5bb9a; fill-rule:evenodd;"/><path d="M1296.64,459.67c-.8,3.06-3.83,5.1-7.01,4.59l-4.73-.75-2.31,2.71c-1.33,1.56-1.97,1.58-3.99,1.26l-11.1-1.75c-2.02-.32-2.62-.53-3.4-2.42l-1.37-3.3-4.73-.74c-3.14-.5-5.38-3.3-5.25-6.41l.33-2.15c.28-.68,.99-1.1,1.75-.99l40.75,6.43c.75,.12,1.31,.75,1.36,1.49,0,.07-.05,.19-.02,.23l-.29,1.8h0Zm-39.5-20.76c-1.2-.19-2.33,.64-2.52,1.83l-.54,3.37c-.19,1.19,.64,2.32,1.84,2.52l39.59,6.24c1.2,.19,2.33-.64,2.52-1.83l.53-3.37c.19-1.2-.63-2.33-1.83-2.52l-39.59-6.25h0Zm1.83-11.09l39.42,6.22c1.25,.19,2.11,1.38,1.91,2.62l-.55,3.51c-.19,1.24-1.38,2.1-2.62,1.9l-39.42-6.22c-1.25-.19-2.11-1.38-1.91-2.62l.56-3.51c.19-1.24,1.37-2.1,2.61-1.9Z" style="fill:#9c7357; fill-rule:evenodd;"/><path d="M1272.43,429.95l3.81-51.37-6.08-.96c-2.62-.41-4.83-1.86-6.29-3.86h.01c-1.46-2-2.16-4.55-1.75-7.17,.41-2.62,1.87-4.83,3.86-6.29,2-1.46,4.55-2.15,7.17-1.74,2.59,.41,4.67,1.8,6.08,3.74,1.43,1.97,2.14,4.5,1.96,7.11l-.37,5.51,18.57,2.93,1.34-5.35c.62-2.54,2.09-4.73,4.06-6.16,1.94-1.41,4.35-2.09,6.93-1.69,2.61,.41,4.83,1.87,6.29,3.86h0c1.45,2,2.14,4.55,1.73,7.17-.41,2.63-1.86,4.84-3.86,6.29-2,1.45-4.55,2.14-7.16,1.73l-6.08-.96-12.19,50.05-4.27-.68,12.17-50.05-17.84-2.81-3.82,51.36-4.27-.68h0Zm4.1-55.7l.36-5.14c.11-1.59-.3-3.1-1.15-4.26-.75-1.04-1.87-1.79-3.25-2.01-1.44-.23-2.84,.16-3.95,.96-1.1,.81-1.9,2.03-2.13,3.47-.23,1.45,.16,2.85,.95,3.95h.02c.79,1.1,2.02,1.9,3.46,2.13l5.7,.9h0Zm27.17,4.29l5.7,.89c1.45,.23,2.84-.16,3.95-.96,1.1-.81,1.9-2.02,2.13-3.47,.23-1.44-.16-2.84-.96-3.95h0c-.8-1.1-2.01-1.9-3.46-2.13-1.38-.22-2.67,.16-3.71,.91-1.15,.84-2.02,2.15-2.41,3.69l-1.24,5Z" style="fill:#fff; fill-rule:evenodd;"/><path d="M1313.1,332.5c-1.27-.79-1.66-2.46-.87-3.72,.79-1.27,2.46-1.66,3.72-.87,1.03,.64,2,1.31,2.91,2,.94,.71,1.84,1.46,2.7,2.25,1.1,1.01,1.17,2.73,.16,3.83-1,1.1-2.72,1.17-3.82,.16-.73-.67-1.51-1.32-2.32-1.93-.83-.63-1.66-1.2-2.49-1.72h0Zm10.41,10.39c-.79-1.27-.41-2.95,.85-3.74,1.27-.79,2.95-.41,3.75,.85,2.32,3.7,3.99,7.8,4.88,12.15,.86,4.19,1.01,8.58,.31,13.01-.23,1.48-1.63,2.49-3.11,2.26-1.48-.24-2.49-1.63-2.25-3.11,.59-3.79,.48-7.52-.25-11.07-.76-3.68-2.19-7.19-4.18-10.36Z" style="fill:#fff; fill-rule:evenodd;"/></g><path d="M1313,269.35h0c1.19,.24,1.97,1.41,1.73,2.59l-5.44,27.24c-.23,1.19-1.4,1.97-2.6,1.73h0c-1.18-.24-1.96-1.41-1.73-2.59l5.44-27.25c.23-1.18,1.4-1.96,2.59-1.73h0Zm-108.5,125.55h0c.35,1.17,1.58,1.83,2.74,1.48l26.63-7.89c1.16-.35,1.83-1.58,1.48-2.74h0c-.35-1.17-1.58-1.83-2.74-1.49l-26.63,7.9c-1.17,.34-1.83,1.58-1.48,2.74h0Zm-5.7-48.28h0c-.16,1.2,.7,2.31,1.9,2.47l27.54,3.64c1.2,.16,2.3-.69,2.46-1.9h0c.16-1.2-.69-2.31-1.89-2.47l-27.54-3.64c-1.2-.16-2.32,.69-2.47,1.9h0Zm18.01-44.22h0c-.64,1.03-.31,2.39,.72,3.03l23.67,14.53c1.03,.64,2.39,.31,3.02-.72h0c.64-1.03,.31-2.39-.72-3.02l-23.66-14.54c-1.03-.64-2.39-.31-3.03,.72h0Zm40.72-29.96h0c-1.1,.52-1.57,1.84-1.04,2.94l11.89,25.09c.52,1.1,1.84,1.56,2.94,1.05h0c1.09-.52,1.56-1.84,1.04-2.94l-11.9-25.09c-.52-1.1-1.84-1.56-2.93-1.05h0Zm107.46,154.49h0c-.76,.94-2.15,1.08-3.09,.32l-21.56-17.51c-.94-.76-1.09-2.16-.33-3.1h0c.77-.94,2.16-1.08,3.1-.32l21.57,17.51c.93,.77,1.08,2.16,.31,3.1h0Zm23.8-42.4h0c-.31,1.17-1.52,1.87-2.7,1.55l-26.82-7.21c-1.17-.31-1.87-1.53-1.55-2.7h0c.31-1.17,1.52-1.87,2.69-1.55l26.83,7.21c1.17,.31,1.87,1.52,1.55,2.7h0Zm.34-47.75h0c.19,1.2-.64,2.33-1.83,2.52l-27.43,4.34c-1.2,.19-2.33-.64-2.52-1.83h0c-.19-1.2,.64-2.33,1.83-2.52l27.43-4.34c1.2-.19,2.33,.64,2.52,1.83h0Zm-26.1-43.29h0c.82,.89,.74,2.29-.16,3.11l-20.62,18.61c-.9,.81-2.3,.74-3.11-.16h0c-.81-.9-.73-2.3,.17-3.12l20.62-18.6c.89-.82,2.29-.74,3.11,.16Z" style="fill:#fff; fill-rule:evenodd;"/></g><g><path d="M1543.24,1313.54c2.21-1.02,3.88-1.59,6.66-.72,5.98,1.9,8.86,9.51,3.23,15.03-4.21,4.13-11.08,1.3-11.77-.3-.19-.41,.88-5.8,1.05-6.85,.38-2.37,.58-4.73,.82-7.17h0Zm-80.9-4.17c-.62-1.86,.83-8.5,1.47-10.11,1,3.61,1.7,7.26,2.84,10.78l3.34,10.24c.45,.35,.47,.68,.71,1.31l1.48,3.96c.36,.49,.92,1.86,1.2,2.55,.33,.81,1.05,2.03,1.03,2.8,.62,.54,1.06,1.88,1.29,2.63,.34,.42,2.39,4.74,2.56,5.28,.28,.41,2.31,4.37,2.46,5.11l2.67,5.5c.5,.54,3.16,6.59,3.22,6.78-1.71-.63-5.22-4.2-6.82-5.66-.75-.67-1.22-1.44-1.92-2.16-1.42-1.45-6.28-7.61-6.89-9.55-.96-.64-4.32-8.32-5.02-10.06-.75-1.86-1.35-3.71-1.91-5.7-.3-1.1-1.35-5.11-1.18-6.13-.04-.05-.06-.1-.08-.15l-.23-.76c-.05-.23-.06-.51-.09-.75,0-1.24-.5-3.09-.13-4.19-.09-.15-.25-.36-.22-.95l.16-.64c.02-.09,.05-.1,.07-.15h0Zm-10.49,4.49c.02,1.72,.4,4.38,.68,6.06,.19,1.17,.94,5.04,.83,5.88,.4,.37,.26,.43,.4,1.05,.09,.37,.16,.68,.22,1,.57,4.93,4.46,13.05,4.52,13.54,.56,.35,1.32,1.82,1.77,2.48,.42,.61,1.45,1.9,1.71,2.53,.69,.67,1.26,1.6,1.89,2.38,3.09,3.8,5.14,5.56,8.07,8.75,1.22,1.33,6.06,5.38,6.47,5.91h-27.97c-1.92,0-7.73-.37-8.82,.38,.25,1.1,1.48,1.7,2.27,2.45,.67,.2,3.22,1.87,4.17,2.37,7.86,4.25,20.52,8.91,29.08,10.24,.93,.14,5.38,.56,5.69,.68h30.4c.71-.36,4-.56,5.16-.77,1.73-.31,3.24-.66,4.91-1.09,3.2-.82,6.25-1.72,9.31-2.75,6.19-2.07,11.21-4.29,16.97-6.9,1.47-.59,4.35-2.16,5.75-3.11,.89-.61,1.9-1.24,.62-1.48l-39.29-.02c.4-.53,1.8-1.62,2.42-2.17,2.86-2.49,4.69-4.51,7.1-6.73,.29-.58,.05-.15,.58-.65,1.19-1.13,5.98-6.96,6.98-8.42,.33-.49,.5-.98,1.06-1.3l.32-.68c.75-1.31,1.78-2.48,2.25-4.13,.89,.15,1.72,.79,2.6,1.11,5.33,1.97,7.99,1.06,9.37,1.41,.19-.26-.33-.16,.41-.22,.89-.03,2.09-.3,2.88-.5,.81-.2,1.66-.67,2.42-.68l.71-.47c.28-.15,.48-.25,.68-.35,.49-.26,.91-.46,1.46-.65,.23-.34,1.24-.89,1.66-1.2,2.86-2.08,3.51-3.58,4.53-4.48,.35-.84,.98-1.56,1.45-2.43l1.18-2.43c.02-.07,.06-.08,.09-.12,0-.61,.56-2.16,.73-3.08,1.12-5.84-.47-8.94-.37-10.16-.4-.42-.98-2.19-1.12-2.68-.64-.93-1-1.85-1.65-2.79-1.19-1.7-2.66-3.27-4.27-4.58-.75-.61-2.05-1.29-2.6-1.83-.78-.24-2.03-.94-2.94-1.31-1.06-.42-2.13-.71-3.33-.93-4.45-.82-6.46,.05-7.65-.15-.08-2.32-.28-5.07-.79-7.18-.82-3.27-.87-3.4-4.59-3.4h-79.33c-3.99,0-5.37-.61-6.23,1.74-1.96,5.33-1.21,16.27-.85,21.83Z" style="fill:#835e42; fill-rule:evenodd;"/><path d="M1481.07,1226.76c-.19,.53-.08,.34-.37,.54-.4,.9-1.33,2.05-1.87,3.08-.59,1.11-1.04,1.94-1.57,3.19-.73,1.72-2.02,5.49-2.05,7.72-.05,.74,.04,.22-.22,.41,.22,1.07,.03,2.49,.05,3.65,0,1.11,.15,2.16,.34,3.2,.41,2.22,1.21,3.47,2,5.26l1.86,2.56c.76,.99,1.24,1.44,1.9,2.53,1.13,1.85,1.73,4.19,2.04,6.8,.02,1.91,.2,3.81,.17,5.85-.03,1.84-.34,3.68-.35,5.5-.05,.74,.04,.22-.22,.41,.32,1.28-.31,3.39-.31,4.84,.83-.56,1.28-1.54,1.94-2.25,.33-.77,.89-1.46,1.38-2.32,.46-.8,.89-1.61,1.28-2.45,1.81-3.47,2.77-7.95,2.67-12.76-.11-4.87-2.21-8.24-4.41-11-.69-.86-1.05-1.13-1.66-2.23-3.37-6.03-2.17-17.24-1.29-23.76-.52,.28-.33,.15-.8,.71-.23,.3-.19,.4-.51,.53Z" style="fill:#9c7357; fill-rule:evenodd;"/><path d="M1517.63,1227.43c-.09,.68-.25,.58-.67,1.41l-1.92,4.11-.85,2.37s-.05,.09-.08,.13c.1,.86-.37,2.08-.53,3.09-.89,5.68,.37,8.61,.33,9.84,.38,.31,.03-.29,.4,.57,.11,.26,.12,.47,.26,.79,.25,.58,.47,.89,.68,1.44,.9,1.58,1.45,2.53,2.55,3.82,.71,.82,2.29,2.65,2.3,4.06,2.32,1.99,1.37,14.8,.89,18.78l-.22,1.9c.03,.83-.1,.31,.24,.74,.33-.95,3.92-4.28,6.01-11.49,1.04-3.61,1.32-7.79,.48-11.67-.25-1.13-.92-2.54-1.03-3.39-.6-.47-.82-1.32-1.25-1.95-.42-.61-.9-1.23-1.36-1.83-1.06-1.37-1.93-2.04-2.61-3.93-.53-1.81-.94-2.75-1.24-4.97-.26-1.97-.28-3.81-.26-5.84,.02-3.74,.51-7.48,.82-11.15-.08-.64,.22-.26-.18-.5l-2.76,3.67Z" style="fill:#9c7357; fill-rule:evenodd;"/><path d="M1496.48,1237.37c1.3,.95,2.32,3.18,2.86,4.76,1.87,5.42,1.06,15.46,.14,20.92,.61-.44,1.13-1.17,1.66-1.87,.51-.68,.92-1.69,1.52-2.2,.39-.91,.89-1.59,1.32-2.56,.4-.86,.87-1.9,1.2-2.76l.68-2.11c.22-.47,.03-.14,.23-.38-.16-1.45,1.44-4.47,.5-10.11-.16-.93-.7-2.56-.65-3.18-.39-.31-.06,.14-.42-.54-.06-.13-.17-.42-.26-.63-.22-.49-.45-.87-.65-1.27-1.09-2.04-5-6-4.89-8.31-1.1-1.33-1.5-10.2-.91-11.25-.45-1.38,.6-7.73,.67-9.67-1.34,1.08-3.26,4.31-4.27,6.33-2.46,4.89-4.13,12.43-2.45,17.76,.5,1.55,.87,2.43,1.57,3.74,.33,.61,.58,1.09,1,1.66,.37,.53,.9,1.02,1.17,1.67Z" style="fill:#9c7357; fill-rule:evenodd;"/><polygon points="1486.19 1248.53 1486.19 1245.88 1483.54 1245.88 1483.54 1248.52 1486.19 1248.53" style="fill:#9c7357; fill-rule:evenodd;"/><path d="M1473.39,1328.09c-.28-.69-.84-2.06-1.2-2.55l-1.48-3.96c-.25-.63-.26-.96-.71-1.31l-3.34-10.24c-1.14-3.52-1.85-7.17-2.84-10.78-.64,1.61-2.09,8.25-1.47,10.11-.02,.05-.05,.06-.07,.15l-.16,.64c-.02,.59,.14,.8,.22,.95-.37,1.1,.13,2.95,.13,4.19,.03,.23,.05,.51,.09,.75l.23,.76s.04,.1,.08,.15c-.17,1.02,.88,5.03,1.18,6.13,.56,1.99,1.17,3.84,1.91,5.7,.7,1.73,4.06,9.41,5.02,10.06,.61,1.94,5.47,8.1,6.89,9.55,.7,.72,1.17,1.49,1.92,2.16,1.6,1.46,5.11,5.04,6.82,5.66-.05-.19-2.72-6.24-3.22-6.78l-2.67-5.5c-.16-.75-2.18-4.7-2.46-5.11-.17-.54-2.22-4.86-2.56-5.28-.23-.75-.67-2.08-1.29-2.63,.02-.77-.71-1.99-1.03-2.8Z" style="fill:#f6eae0; fill-rule:evenodd;"/></g></svg>