<?xml version="1.0" encoding="UTF-8"?><svg id="a" xmlns="http://www.w3.org/2000/svg" viewBox="0 0 1883.73 1425.18"><path d="M870.13,1344.91c449.14,0,813.23,17.97,813.23,40.14s-364.09,40.14-813.23,40.14-813.23-17.97-813.23-40.14,364.09-40.14,813.23-40.14Z" style="fill:#c4d1eb; fill-rule:evenodd;"/><path d="M1600.05,173.5h-521.35c3.75-15.84,17.97-27.63,34.95-27.63,.81,0,1.64,.03,2.44,.1,8.23-20.15,28.04-34.37,51.16-34.37,10.12,0,19.58,2.73,27.73,7.47,9.94-32.78,40.39-56.64,76.42-56.64,7.33,0,14.43,1,21.17,2.85C1310.02,26.78,1348.78,0,1393.8,0c53.39,0,97.98,37.69,108.64,87.91,.91-.03,1.8-.07,2.7-.07,34.21,0,62.43,25.58,66.6,58.64,13.95,2.62,25.07,13.29,28.31,27.01Z" style="fill:#e0e8f5; fill-rule:evenodd;"/><path d="M521.34,659.73H0c3.74-15.84,17.96-27.62,34.95-27.62,.81,0,1.63,.03,2.44,.09,8.23-20.15,28.03-34.36,51.15-34.36,10.12,0,19.58,2.73,27.73,7.47,9.95-32.77,40.39-56.64,76.42-56.64,7.33,0,14.43,1,21.17,2.85,17.44-38.5,56.2-65.29,101.22-65.29,53.4,0,97.99,37.69,108.64,87.92,.9-.03,1.79-.06,2.7-.06,34.21,0,62.43,25.58,66.6,58.64,13.95,2.62,25.07,13.29,28.31,27Z" style="fill:#e0e8f5; fill-rule:evenodd;"/><path d="M1614.97,1199.18c-.05,2.77-.21,5.11-.42,6.72,.21-1.61,.37-3.95,.42-6.72Z" style="fill:#ecebe8; fill-rule:evenodd;"/><path d="M1722.95,1293.21c-71.54,0-129.53,8.31-129.53,18.57s58,18.57,129.53,18.57,129.53-8.31,129.53-18.57-57.99-18.57-129.53-18.57Z" style="fill:#c4d1eb; fill-rule:evenodd;"/><path d="M1699.61,993.53c2.04-2.64,4.84-4.63,7.64-6.38,.75-.46,1.83-.15,2.23,.62,2.17,4.04,4.18,8.19,6.67,12.06,.82,1.28,1.99,2.97,3.03,3.71,.07,.05,.33,.18,.45,.24,.02-.02,.03-.04,.05-.08,.21-.3,.33-.62,.43-.97,1.94-5.95-.41-12.32,1.12-18.31,.8-3.17,2.82-6.47,5.1-8.78,2.49-2.52,5.81-3.69,7.35-7.07,.24-.51,.65-.75,1.11-.8h.3c.56,.05,1.11,.36,1.43,.81,3.58,5.15,8.58,10.46,9.54,16.9,.85,5.71-2.24,10.48-5.53,14.81-1.6,2.1-3.17,4.23-4.41,6.56-.68,1.29-1.86,3.61-.62,4.87,1.3,1.32,3.28-1.03,4.3-2.09,2.1-2.17,3.88-4.65,5.7-7.05,3.01-3.97,7.78-10.01,13.45-8.92,2.5,.48,3.52,3.07,3.65,5.31,.21,3.57-1.54,7.42-3.3,10.42-3.99,6.81-12.08,8.78-17.28,14.27-1.2,1.26-4.48,5.58-2.59,7.36,.65,.62,2.18,.42,2.96,.29,1.91-.29,4.01-1,5.54-2.18,5.85-4.53,7.98-12.39,14.13-16.68,2.7-1.88,6.85-3.03,10.09-2.25,2.74,.65,4.01,3.24,4.13,5.84,.15,3.16-1.29,6.42-2.88,9.06-1.84,3.05-4.37,5.6-7.46,7.36-6.2,3.53-14.04,3.97-18.16,10.46-.56,.89-1.17,2.04-.9,3.12,.21,.84,1.4,1.1,2.1,1.26,3.18,.7,7.35-.48,10.14-1.96,3.37-1.79,5.83-5.04,8.41-7.76,2.74-2.87,5.78-5.21,9.61-6.37,2.78-.84,6.2-.7,8,1.89,1.64,2.39,1.31,5.6,.64,8.25-.89,3.51-2.8,6.76-5.15,9.48-2.54,2.95-6.54,4.61-10.12,5.82-3.73,1.25-7.61,2.01-11.29,3.4-.97,.37-1.73,.63-2.8,.7-1.14,.09-2.29,.03-3.41,.32-.94,.24-.31,1.23,0,1.91,.76,1.64,3.21,1.57,4.75,1.7,1.46,.11,2.9,.48,4.36,.49,1.68,.01,3.36-.3,5.01-.55,3.28-.5,6.75-1.08,9.99-.09,3.14,.95,5.35,3.9,5.91,7.07,1.18,6.65-6.25,10.7-11.77,11.55-3.54,.54-6.74-.23-9.85-1.99-3.83-2.16-6.84-5.29-11.27-5.83-.29,1.77,.35,3.18,1.91,4.51,2.16,1.82,5.16,2.81,7.77,3.78,5.14,1.91,12.67,3.61,15.42,8.93,.33,.65,.26,1.45-.28,1.98-2.44,2.32-5.25,4.15-8.68,4.43-2.84,.22-5.62-1.1-7.92-2.62-4.12-2.74-7.67-6.99-12.3-8.92,.64,1.17,1.7,1.97,3,2.98,2.32,1.79,3.5,4.29,4.14,7.1,.97,4.25-.5,8.85-5.49,8.88-2.72,.02-5.46-1.36-7.73-2.72-2.61-1.56-4.68-3.83-6.3-6.37-2-3.15-3.11-6.79-3.74-10.5-4.17,8.13-13.24,16.62-21.79,9.6-7.3-6.01,4.73-10.61,9.49-15.34-.94,.38-1.85,.87-2.72,1.31-2.48,1.27-4.89,2.68-7.47,3.72-4.83,1.97-10.24,1.78-13.13-3.18-2.49-4.29,2.67-6.28,5.85-7.23,2.59-.78,7.43-1.62,9.3-4.22-6.38,.7-13.48,1.49-18.99-2.2-2.49-1.67-5.49-4.89-5.78-8.03-.25-2.56,2.53-3.47,4.53-3.67,5.44-.54,10.74,1.86,16.2,1.69,1.31-.04,2.62-.18,3.89-.47,.49-.1,.97-.24,1.42-.44,.17-.08,.35-.22,.46-.31-.03-.08-.07-.17-.15-.26-.49-.57-1.12-.98-1.74-1.4-1.4-.92-2.86-1.45-4.53-1.63-3.17-.33-6.34,.06-9.5-.49-3.56-.62-6.44-2.68-8.79-5.34-2.09-2.35-4.1-5.33-4.43-8.54-.34-3.31,1.67-5.56,4.63-6.69,8.28-3.17,13.13,5.38,19.04,9.27,1.56,1.03,3.43,1.71,5.21,2.25,.72,.22,2.86,.96,3.57,.39,.42-.35-.98-2.59-1.25-3.02-1.19-1.93-2.71-3.27-4.66-4.39-4.94-2.83-10.97-3.7-14.86-8.17-2.56-2.93-4.57-7.9-2.07-11.47,2.65-3.79,8.56-2.77,11.9-.56,4.2,2.77,6.31,8.4,11.35,9.74,.44-2.39-.49-4.59-2.1-6.72-2.36-3.11-5.39-5.67-8.19-8.37-2.68-2.58-5.43-5.39-6.83-8.91-1.43-3.6-.51-7.23,1.81-10.22Z" style="fill:#9db2d9; fill-rule:evenodd;"/><path d="M1574.82,1108.7c-.8-3.24-.64-6.67-.28-9.95,.1-.87,1.02-1.52,1.87-1.37,4.53,.79,9.03,1.79,13.6,2.23,1.5,.15,3.56,.28,4.79-.08,.08-.03,.34-.16,.46-.2,0-.03,0-.05-.02-.09-.11-.35-.3-.64-.5-.94-3.47-5.21-9.93-7.3-13.69-12.21-2-2.6-3.34-6.21-3.74-9.45-.44-3.5,.7-6.84-1-10.15-.63-1.21,.66-2.29,1.77-2.22,6.25,.38,13.53-.27,19.18,2.96,5.01,2.87,6.84,8.24,8.21,13.52,.67,2.55,1.37,5.1,2.44,7.53,.58,1.32,1.68,3.69,3.44,3.49,1.83-.2,1.21-3.21,1.01-4.67-.41-3-1.25-5.92-2-8.83-1.26-4.83-3.05-12.31,1.32-16.08,1.92-1.67,4.58-.86,6.43,.43,2.94,2.05,4.88,5.8,6.14,9.04,2.88,7.35-.58,14.92,.51,22.4,.25,1.72,1.62,6.98,4.18,6.6,.89-.13,1.68-1.46,2.06-2.14,.95-1.68,1.7-3.76,1.71-5.7,.07-7.4-4.79-13.93-4.35-21.41,.19-3.28,1.85-7.26,4.47-9.33,2.22-1.75,5.03-1.15,7.15,.37,2.57,1.84,4.24,4.98,5.33,7.87,1.26,3.34,1.7,6.89,1.16,10.42-1.06,7.05-5.57,13.49-3.02,20.74,.35,.99,.88,2.18,1.89,2.64,.79,.35,1.74-.42,2.29-.88,2.52-2.06,4.18-6.07,4.74-9.17,.68-3.76-.36-7.7-.89-11.41-.56-3.92-.51-7.76,.94-11.49,1.06-2.71,3.28-5.31,6.43-5.11,2.89,.18,5.21,2.43,6.88,4.6,2.21,2.87,3.57,6.38,4.26,9.92,.74,3.82-.43,7.99-1.7,11.55-1.33,3.7-3.13,7.22-4.31,10.97-.31,.99-.58,1.75-1.18,2.63-.64,.94-1.39,1.82-1.86,2.87-.39,.89,.77,1.01,1.51,1.18,1.76,.42,3.22-1.55,4.27-2.68,.99-1.08,2.17-1.98,3.09-3.12,1.05-1.31,1.84-2.82,2.67-4.28,1.64-2.89,3.33-5.97,6.11-7.9,2.69-1.88,6.38-1.79,9.22-.27,5.95,3.19,4.54,11.54,1.79,16.4-1.76,3.11-4.35,5.15-7.66,6.5-4.07,1.67-8.39,2.1-11.55,5.24,1.21,1.32,2.71,1.7,4.73,1.29,2.77-.57,5.4-2.31,7.77-3.76,4.68-2.87,10.68-7.72,16.57-6.59,.71,.14,1.31,.69,1.38,1.44,.32,3.36,.02,6.69-1.89,9.55-1.58,2.37-4.34,3.74-6.96,4.6-4.7,1.55-10.23,1.71-14.61,4.15,1.32,.22,2.61-.12,4.2-.51,2.84-.71,5.54-.1,8.14,1.14,3.94,1.87,6.64,5.88,3.57,9.81-1.68,2.15-4.44,3.45-6.93,4.39-2.83,1.08-5.91,1.31-8.9,1.01-3.71-.38-7.26-1.75-10.56-3.56,3.8,8.3,4.87,20.68-5.95,23.05-9.24,2.02-5.41-10.28-6.18-16.94-.28,.97-.46,1.98-.65,2.94-.54,2.74-.93,5.5-1.7,8.19-1.44,5.01-4.95,9.14-10.63,8.34-4.9-.69-3.28-5.98-2.05-9.07,.99-2.51,3.32-6.83,2.44-9.92-3.4,5.44-7.17,11.51-13.47,13.55-2.86,.92-7.24,1.29-9.89-.42-2.16-1.4-1.16-4.14-.08-5.83,2.95-4.61,8.11-7.28,11.35-11.68,.78-1.05,1.48-2.16,2.04-3.35,.22-.44,.42-.91,.54-1.38,.04-.18,.04-.41,.04-.56-.08-.02-.17-.04-.29-.04-.75,.03-1.47,.27-2.17,.5-1.59,.53-2.91,1.35-4.08,2.55-2.23,2.28-3.88,5.01-6.27,7.16-2.69,2.41-6.09,3.4-9.62,3.61-3.15,.18-6.73-.09-9.46-1.81-2.81-1.78-3.33-4.75-2.39-7.77,2.64-8.46,12.36-6.97,19.06-9.21,1.77-.6,3.46-1.64,4.99-2.69,.63-.44,2.53-1.66,2.51-2.57,0-.54-2.64-.83-3.14-.89-2.25-.25-4.24,.1-6.33,.95-5.28,2.13-9.7,6.32-15.61,6.61-3.89,.19-9.04-1.3-10.29-5.48-1.34-4.43,3.12-8.44,6.92-9.69,4.77-1.58,10.5,.24,14.67-2.9-1.61-1.82-3.91-2.46-6.58-2.5-3.9-.08-7.79,.73-11.63,1.25-3.69,.51-7.6,.94-11.22-.15-3.71-1.11-6-4.08-6.91-7.74Z" style="fill:#9db2d9; fill-rule:evenodd;"/><path d="M1796.59,1018.57c3.1-1.21,6.53-1.48,9.83-1.53,.88-.02,1.64,.81,1.6,1.68-.22,4.58-.63,9.17-.49,13.77,.04,1.51,.18,3.56,.69,4.74,.03,.07,.19,.31,.26,.43,.02,0,.04-.02,.08-.03,.33-.16,.59-.37,.87-.62,4.72-4.1,5.98-10.77,10.37-15.12,2.33-2.31,5.75-4.1,8.89-4.91,3.42-.88,6.88-.17,9.94-2.28,1.12-.77,2.36,.37,2.43,1.48,.42,6.25,1.98,13.39-.52,19.4-2.21,5.34-7.31,7.83-12.36,9.86-2.45,.98-4.89,2-7.15,3.36-1.24,.75-3.45,2.14-3.04,3.86,.44,1.79,3.34,.79,4.76,.41,2.92-.78,5.71-1.99,8.51-3.11,4.62-1.85,11.82-4.58,16.12-.73,1.89,1.7,1.44,4.44,.39,6.44-1.66,3.17-5.14,5.57-8.19,7.24-6.92,3.78-14.87,1.31-22.16,3.34-1.68,.46-6.71,2.49-6.01,4.98,.24,.86,1.66,1.47,2.38,1.77,1.79,.73,3.95,1.21,5.87,.97,7.35-.86,13.22-6.51,20.7-7.03,3.28-.22,7.43,.93,9.82,3.26,2.01,1.97,1.77,4.84,.54,7.14-1.5,2.78-4.41,4.83-7.13,6.28-3.15,1.66-6.63,2.56-10.19,2.48-7.13-.16-14.08-3.82-20.95-.37-.94,.47-2.05,1.15-2.38,2.21-.25,.83,.64,1.67,1.16,2.16,2.36,2.24,6.54,3.38,9.69,3.54,3.82,.19,7.59-1.32,11.21-2.33,3.82-1.05,7.63-1.5,11.51-.52,2.82,.71,5.68,2.59,5.88,5.74,.18,2.89-1.76,5.47-3.7,7.4-2.57,2.56-5.88,4.36-9.29,5.48-3.69,1.22-7.97,.59-11.67-.23-3.84-.84-7.56-2.19-11.43-2.89-1.02-.18-1.8-.36-2.76-.84-1.02-.52-1.98-1.16-3.08-1.49-.93-.28-.91,.89-.98,1.65-.2,1.8,1.94,3,3.2,3.9,1.2,.85,2.24,1.91,3.49,2.67,1.43,.88,3.03,1.48,4.58,2.11,3.07,1.25,6.34,2.55,8.61,5.06,2.2,2.43,2.58,6.1,1.43,9.1-2.41,6.31-10.87,5.96-16.04,3.85-3.31-1.36-5.66-3.67-7.42-6.77-2.17-3.83-3.14-8.06-6.66-10.8-1.15,1.37-1.35,2.91-.68,4.85,.91,2.68,2.97,5.07,4.71,7.24,3.43,4.28,9.01,9.61,8.63,15.6-.04,.73-.52,1.38-1.25,1.55-3.29,.74-6.64,.87-9.72-.67-2.55-1.27-4.25-3.83-5.44-6.33-2.12-4.46-2.98-9.94-5.96-13.96-.06,1.33,.44,2.57,1.04,4.1,1.07,2.73,.8,5.48-.1,8.22-1.36,4.14-4.99,7.33-9.28,4.78-2.35-1.38-3.98-3.97-5.23-6.31-1.43-2.68-2.04-5.69-2.12-8.7-.1-3.74,.82-7.43,2.2-10.93-7.76,4.82-19.91,7.44-23.62-2.98-3.17-8.91,9.52-6.67,16.03-8.28-1.01-.15-2.03-.21-3-.28-2.78-.18-5.57-.22-8.33-.65-5.15-.79-9.69-3.75-9.62-9.49,.07-4.95,5.52-4.01,8.74-3.19,2.62,.67,7.2,2.43,10.15,1.17-5.83-2.68-12.33-5.66-15.15-11.65-1.28-2.72-2.2-7.02-.83-9.87,1.11-2.33,3.96-1.68,5.77-.82,4.95,2.35,8.25,7.12,13.02,9.79,1.15,.64,2.33,1.19,3.58,1.6,.46,.16,.95,.3,1.44,.36,.18,.02,.41-.02,.56-.03,.02-.08,.02-.18,0-.3-.12-.74-.45-1.42-.77-2.09-.72-1.51-1.7-2.72-3.04-3.73-2.55-1.91-5.47-3.21-7.9-5.31-2.73-2.35-4.15-5.61-4.8-9.09-.58-3.09-.77-6.68,.6-9.6,1.41-3.03,4.29-3.91,7.41-3.36,8.73,1.55,8.48,11.37,11.55,17.74,.82,1.69,2.07,3.23,3.31,4.61,.51,.57,1.96,2.3,2.86,2.17,.54-.08,.49-2.73,.48-3.23-.03-2.27-.64-4.2-1.74-6.16-2.78-4.96-7.49-8.82-8.53-14.65-.69-3.84,.15-9.13,4.13-10.91,4.23-1.88,8.76,2.03,10.49,5.64,2.17,4.54,1.09,10.44,4.74,14.19,1.61-1.83,1.94-4.2,1.65-6.85-.42-3.88-1.71-7.63-2.72-11.39-.97-3.59-1.88-7.42-1.27-11.15,.62-3.82,3.28-6.47,6.81-7.84Z" style="fill:#9db2d9; fill-rule:evenodd;"/><path d="M1637.71,1063.64c.44-3.31,1.87-6.43,3.41-9.35,.41-.78,1.51-1.04,2.24-.59,3.9,2.41,7.72,4.99,11.82,7.09,1.34,.69,3.2,1.57,4.48,1.69,.08,.01,.37,0,.51-.01,0-.03,0-.05,.01-.09,.02-.36-.04-.7-.12-1.06-1.31-6.12-6.53-10.45-8.22-16.4-.89-3.15-.81-7.01,0-10.15,.89-3.42,3.18-6.1,2.82-9.8-.14-1.35,1.46-1.88,2.46-1.42,5.68,2.66,12.68,4.75,16.73,9.83,3.6,4.51,3.32,10.19,2.64,15.59-.32,2.61-.62,5.25-.51,7.89,.05,1.45,.2,4.05,1.9,4.52,1.78,.49,2.31-2.53,2.67-3.96,.73-2.94,1.03-5.96,1.4-8.96,.62-4.95,1.71-12.56,7.16-14.46,2.4-.83,4.58,.89,5.82,2.77,1.97,2.99,2.39,7.19,2.37,10.67-.04,7.89-6.04,13.66-7.8,21.01-.4,1.69-1.07,7.08,1.45,7.67,.88,.21,2.1-.74,2.71-1.23,1.5-1.22,2.96-2.87,3.69-4.67,2.8-6.84,.7-14.72,3.86-21.51,1.39-2.98,4.4-6.05,7.6-7.02,2.7-.81,5.09,.79,6.51,2.98,1.71,2.66,2.1,6.2,2.05,9.28-.06,3.56-.97,7.04-2.76,10.12-3.59,6.16-10.15,10.47-10.46,18.15-.04,1.05,.01,2.36,.79,3.16,.61,.62,1.77,.25,2.45,.03,3.1-.99,6.12-4.09,7.79-6.78,2.01-3.24,2.51-7.28,3.38-10.93,.92-3.85,2.38-7.4,5.11-10.33,1.98-2.12,5.01-3.72,7.87-2.38,2.62,1.24,3.94,4.18,4.69,6.82,.99,3.48,.97,7.25,.3,10.79-.72,3.82-3.35,7.27-5.84,10.1-2.6,2.95-5.57,5.56-8.06,8.61-.66,.81-1.18,1.41-2.07,2.01-.95,.64-1.97,1.17-2.79,1.98-.69,.69,.35,1.23,.97,1.66,1.48,1.04,3.56-.25,4.96-.92,1.32-.63,2.76-1.03,4.03-1.76,1.45-.83,2.75-1.95,4.05-3,2.58-2.08,5.29-4.31,8.6-5.09,3.19-.75,6.59,.7,8.66,3.16,4.36,5.16-.04,12.39-4.38,15.89-2.79,2.24-5.95,3.18-9.52,3.22-4.4,.05-8.58-1.15-12.67,.61,.64,1.68,1.9,2.59,3.92,2.95,2.79,.49,5.87-.16,8.62-.62,5.41-.94,12.77-3.24,17.82-.02,.62,.39,.96,1.13,.75,1.85-.94,3.24-2.46,6.23-5.29,8.18-2.35,1.63-5.41,1.88-8.16,1.71-4.94-.3-10.14-2.19-15.12-1.54,1.14,.69,2.47,.85,4.09,1.07,2.9,.39,5.18,1.95,7.14,4.06,2.97,3.19,4.01,7.91-.3,10.44-2.35,1.38-5.4,1.56-8.05,1.52-3.03-.05-5.97-.97-8.64-2.36-3.32-1.72-6.1-4.3-8.5-7.21,.46,9.12-3.11,21.02-14.04,19.23-9.33-1.53-1.23-11.55,.51-18.02-.62,.8-1.16,1.67-1.69,2.49-1.51,2.35-2.89,4.77-4.59,6.98-3.19,4.12-7.97,6.68-12.96,3.83-4.3-2.45-.84-6.77,1.43-9.19,1.85-1.97,5.62-5.12,5.94-8.31-5.17,3.81-10.92,8.05-17.52,7.63-3-.19-7.21-1.48-9.04-4.04-1.5-2.1,.44-4.28,2.08-5.45,4.44-3.19,10.23-3.78,14.86-6.67,1.11-.69,2.17-1.46,3.14-2.36,.36-.33,.72-.69,1.01-1.09,.11-.16,.18-.37,.24-.51-.06-.04-.15-.1-.26-.14-.7-.25-1.46-.3-2.19-.34-1.68-.09-3.21,.18-4.74,.87-2.91,1.3-5.45,3.23-8.47,4.34-3.38,1.25-6.91,.92-10.27-.2-2.99-.99-6.23-2.56-8.12-5.17-1.96-2.7-1.35-5.65,.65-8.12,5.57-6.89,14.06-1.92,21.11-1.53,1.87,.11,3.82-.24,5.64-.65,.74-.17,2.96-.62,3.28-1.45,.19-.51-2.15-1.75-2.59-1.99-2-1.07-3.98-1.47-6.23-1.45-5.69,.03-11.35,2.29-16.95,.38-3.68-1.25-7.92-4.54-7.55-8.89,.39-4.61,6.02-6.69,10.01-6.45,5.02,.29,9.67,4.09,14.71,2.72-.82-2.29-2.73-3.73-5.2-4.76-3.6-1.51-7.51-2.2-11.28-3.12-3.62-.89-7.41-1.95-10.38-4.28-3.04-2.4-4.08-6.01-3.57-9.75Z" style="fill:#b0c2e4; fill-rule:evenodd;"/><path d="M1661.89,1031.98c1.89,8.23,3.54,16.53,5.9,24.64,2.43,8.34,5.88,16.05,10.64,23.31,9.82,15,22.33,27.99,32.45,42.77,.42,.62,.34,1.22,.01,1.66,1.95,3.69,3.09,7.88,3.9,11.88,1.42,6.98,1.84,14.14,2.13,21.25,.35,8.68,.28,17.31-.13,25.99-.48,10.2-1.15,20.41-.71,30.62,.02,.59,.05,1.18,.09,1.77,.12,2.11-3.16,2.1-3.28,0-.56-9.97,.02-19.95,.51-29.91,.43-8.88,.63-17.72,.31-26.6-.25-6.87-.59-13.75-1.76-20.54-1.07-6.17-2.77-13.15-7.43-17.66-.66-.64-.59-1.45-.18-2.03-9.45-12.86-20.29-24.67-29.06-38.05-4.69-7.16-8.03-14.88-10.49-23.07-2.49-8.27-4.13-16.76-6.06-25.18-.48-2.05,2.69-2.93,3.16-.87Z" style="fill:#b0c2e4; fill-rule:evenodd;"/><path d="M1715.35,1216.36c1.78-15.93,9.11-30.19,16.7-44.05,7.53-13.74,15.46-27.67,17.77-43.4,.31-2.09,3.47-1.2,3.16,.87-4.61,31.4-30.82,54.88-34.36,86.58-.23,2.08-3.51,2.1-3.28,0Z" style="fill:#b0c2e4; fill-rule:evenodd;"/><path d="M1667.18,1141.69c14.02,6.12,27.76,15.48,37.17,27.68,5.14,6.66,8.16,14.22,10.05,22.16,.71-8.27,2.23-16.46,3.82-24.6,3.69-19,6.53-38.09,8.32-57.37,.71-7.65,1.24-15.32,1.59-22.99,.09-2.1,3.37-2.11,3.28,0-.98,21.3-3.43,42.49-6.74,63.55-2.23,14.25-6.01,28.32-7.1,42.72,1.23-7.79,3.09-15.47,5.48-22.95,3.42-10.71,8.02-21.11,13.99-30.65-.03-.41,.09-.84,.43-1.22,.41-.45,.82-.9,1.23-1.34,1.48-2.23,3.03-4.41,4.66-6.53,.73-.95,1.78-.61,2.33,.16,2.51-1.92,5.18-3.63,8.07-5.13,6.74-3.48,15.12-5.74,18.35-13.38,.82-1.94,3.64-.27,2.83,1.65-3.21,7.59-11.03,10.41-17.88,13.73-6.14,2.98-11.33,6.82-15.96,11.72-6.55,9.96-11.43,21.04-15.05,32.36-4.39,13.74-6.9,28.19-6.93,42.63,0,.08,0,.15-.01,.23,.22,1.07-.63,1.77-1.52,1.84-.44,1.49-3.08,1.28-3.22-.59-1.2-15.5-2.97-31.77-12.89-44.41-9.16-11.66-22.45-20.55-35.95-26.44-1.94-.84-.27-3.67,1.65-2.83Z" style="fill:#9db2d9; fill-rule:evenodd;"/><path d="M1765.24,1031.63c2.98-1.51,6.35-2.1,9.64-2.48,.87-.1,1.71,.65,1.75,1.52,.23,4.58,.26,9.2,.84,13.75,.19,1.5,.52,3.53,1.14,4.64,.04,.08,.22,.3,.3,.42,.02-.02,.04-.03,.08-.05,.31-.18,.56-.43,.81-.69,4.31-4.54,4.92-11.3,8.87-16.06,2.09-2.51,5.32-4.63,8.37-5.74,3.32-1.21,6.83-.83,9.68-3.22,1.04-.88,2.38,.13,2.56,1.23,1.02,6.18,3.26,13.13,1.36,19.35-1.69,5.53-6.53,8.5-11.36,11-2.34,1.22-4.68,2.47-6.8,4.04-1.17,.87-3.22,2.46-2.65,4.12,.61,1.75,3.4,.48,4.78-.04,2.83-1.06,5.5-2.53,8.17-3.91,4.42-2.3,11.32-5.7,15.97-2.28,2.05,1.51,1.86,4.28,1.02,6.36-1.35,3.32-4.58,6.04-7.46,8-6.52,4.43-14.67,2.74-21.73,5.46-1.62,.63-6.44,3.12-5.5,5.54,.33,.84,1.79,1.31,2.55,1.54,1.85,.55,4.04,.81,5.94,.4,7.22-1.57,12.53-7.76,19.92-8.99,3.24-.54,7.49,.2,10.08,2.29,2.2,1.77,2.23,4.66,1.22,7.06-1.22,2.91-3.92,5.24-6.48,6.94-2.97,1.97-6.35,3.18-9.9,3.45-7.11,.52-14.39-2.44-20.89,1.65-.89,.56-1.94,1.34-2.15,2.44-.17,.84,.79,1.59,1.36,2.04,2.57,2,6.84,2.74,9.99,2.58,3.82-.17,7.43-2.05,10.93-3.39,3.7-1.42,7.45-2.23,11.41-1.63,2.87,.43,5.9,2.02,6.41,5.14,.46,2.86-1.22,5.62-2.96,7.72-2.31,2.79-5.43,4.9-8.72,6.35-3.55,1.57-7.88,1.36-11.64,.91-3.9-.47-7.73-1.45-11.66-1.77-1.03-.09-1.83-.18-2.83-.57-1.07-.42-2.08-.96-3.21-1.18-.95-.18-.82,.98-.82,1.73-.02,1.81,2.22,2.81,3.56,3.57,1.27,.73,2.42,1.68,3.73,2.32,1.51,.73,3.16,1.17,4.76,1.65,3.18,.95,6.55,1.92,9.06,4.2,2.43,2.21,3.16,5.83,2.3,8.93-1.78,6.51-10.24,6.99-15.59,5.38-3.42-1.03-5.99-3.1-8.04-6.02-2.53-3.6-3.91-7.72-7.67-10.1-1.02,1.48-1.06,3.03-.21,4.9,1.17,2.58,3.45,4.75,5.4,6.75,3.82,3.93,9.89,8.7,10.09,14.69,.03,.73-.38,1.43-1.09,1.67-3.21,1.05-6.53,1.5-9.74,.28-2.66-1.02-4.61-3.4-6.03-5.77-2.55-4.24-3.93-9.6-7.29-13.33,.08,1.33,.7,2.51,1.44,3.97,1.32,2.62,1.32,5.38,.69,8.18-.95,4.26-4.26,7.79-8.78,5.67-2.47-1.16-4.34-3.57-5.81-5.78-1.68-2.52-2.59-5.47-2.95-8.46-.46-3.7,.1-7.47,1.13-11.09-7.26,5.54-19.09,9.33-23.8-.69-4.02-8.56,8.83-7.55,15.15-9.79-1.02-.05-2.04-.01-3.01,.02-2.79,.09-5.57,.32-8.36,.16-5.2-.3-10.01-2.79-10.49-8.53-.41-4.94,5.1-4.51,8.39-4.01,2.67,.41,7.4,1.73,10.21,.19-6.06-2.11-12.81-4.45-16.2-10.13-1.54-2.58-2.87-6.78-1.78-9.75,.88-2.42,3.77-2.05,5.67-1.36,5.15,1.85,8.9,6.29,13.91,8.48,1.2,.52,2.44,.95,3.71,1.25,.48,.1,.98,.2,1.47,.21,.19,0,.41-.05,.56-.09,0-.08,0-.18-.03-.29-.19-.72-.58-1.37-.97-2.01-.86-1.43-1.96-2.54-3.39-3.41-2.72-1.66-5.75-2.67-8.37-4.52-2.95-2.09-4.67-5.19-5.65-8.58-.87-3.02-1.41-6.58-.33-9.62,1.11-3.15,3.9-4.31,7.05-4.06,8.84,.69,9.54,10.5,13.21,16.54,.97,1.6,2.36,3.02,3.73,4.28,.56,.51,2.18,2.09,3.06,1.89,.52-.13,.22-2.77,.17-3.26-.25-2.25-1.04-4.11-2.33-5.97-3.24-4.67-8.31-8.05-9.9-13.75-1.05-3.75-.74-9.1,3.05-11.26,4.03-2.29,8.92,1.18,10.99,4.61,2.6,4.3,2.1,10.29,6.08,13.66,1.42-1.97,1.53-4.35,.98-6.97-.79-3.82-2.44-7.43-3.81-11.07-1.31-3.48-2.59-7.2-2.34-10.97,.25-3.87,2.64-6.75,6.02-8.46Z" style="fill:#c4d1eb; fill-rule:evenodd;"/><polygon points="1678.15 1312.67 1748.82 1312.67 1771.95 1221.28 1656.62 1221.28 1678.15 1312.67" style="fill:#b0c2e4; fill-rule:evenodd;"/><rect x="1650.52" y="1209.4" width="129.13" height="11.88" style="fill:#9db2d9;"/><polygon points="1714.29 1221.28 1771.95 1221.28 1748.82 1312.67 1714.29 1312.67 1714.29 1221.28" style="fill:#9db2d9; fill-rule:evenodd;"/><rect x="1714.29" y="1209.4" width="65.37" height="11.88" style="fill:#859ac6;"/><polygon points="1678.15 1314.04 1748.82 1314.04 1771.95 1301.7 1656.62 1301.7 1678.15 1314.04" style="fill:#9db2d9; fill-rule:evenodd;"/><polygon points="1714.29 1301.7 1771.95 1301.7 1748.82 1314.04 1714.29 1314.04 1714.29 1301.7" style="fill:#859ac6; fill-rule:evenodd;"/><path d="M1185.18,995.81c10.77-3.03,11.03-1.07,12.41-1.51,1.61-.5,14.79-17.95,14.79-17.95,0,0,39.2-51.17,41.21-54.03l12.88-66.6,36.64,.05s-16.05,71.93-17.57,75.47c-1.54,3.59-63.47,65.92-68.72,71.6,0,0-3.45,9.31-5.82,15.03-2.37,5.73-7.37,9.93-8.3,11.39-.13,.22-3.57,4.99-9.51,9.59-5.12,3.98-2.37-2.24-2.37-2.24,0,0,7.96-9.14,7.04-9.7-.7-.45-4.72,4.82-10.34,9.26-1.45,1.18-2.88,2.3-4.21,3.31-3.47,2.7-6.38,1.24-3.26-2.18,1.1-1.23,2.98-3.2,4.55-4.38,1.69-1.29,2.77-3.03,4-4.32,2.44-2.63,4.26-4.49,4.08-4.55-.23-.05-.16-.95-1.73,.23-1.9,1.41-5.15,5.33-8.13,7.13-1.69,1.06-5.05,3.48-5.05,3.48,0,0-5.88,2.58-6.19,2.3-1.66-1.63,1.71-4.55,4.23-5.67,1.14-1.51,4.77-3.93,4.77-3.93,0,0,6.04-6.62,5-7.57-.44-.39-4.69,3.2-9.49,6.01-4.44,2.58-9.46,4.49-10.22,3.64-1.28-1.4,3.3-4.88,3.3-4.88,0,0,3.36-2.19,4.39-3.03,1.23-.96,4.65-4.21,4.65-4.21,0,0,11.3-11.72,10.26-12.51-1.05-.84-4.51-1.96-5.5-1.51-.98,.45-2.23,2.3-3.22,2.75-.98,.5-2.77,.22-3.57-.96-.8-1.18,2.89-5.33,2.89-5.33,0,0,3.02-3.31,6.14-4.15Z" style="fill:#f9af79; fill-rule:evenodd;"/><path d="M1242.58,1331.28l1.08,23.06c.45,2.97,2.26,10.21,2.23,12.84-.1,9.99-44.34-8.92-34.34-13.24,.91-.39,5.66-3.37,5.99-6.79,.51-5.22,1.78-15.76,1.78-15.76l23.26-.11Z" style="fill:#f9af79; fill-rule:evenodd;"/><path d="M1211.65,1353.83s10.41,3.2,15.74,3.98c5.33,.84,12.45-5.5,16.2-3.76,4.14,1.96,3.52,20.76,3.52,20.76,0,0-55.72,2.75-71.4-2.52-6.21-2.02,14.53-11.56,35.92-18.46Z" style="fill:#0e2952; fill-rule:evenodd;"/><path d="M1340.44,1334.48l1.08,23.12c.45,2.91,2.26,10.15,2.23,12.85-.1,9.99-44.34-8.97-34.34-13.3,.9-.39,7.08-5.61,7.41-8.97,.51-5.27,.35-13.58,.35-13.58l23.26-.11Z" style="fill:#f9af79; fill-rule:evenodd;"/><path d="M1309.52,1357.04s10.4,3.2,15.74,4.04c5.34,.78,12.45-5.55,16.21-3.82,4.14,1.96,4.13,19.19,4.13,19.19,0,0-59.57,3.7-73.53-.51-6.28-1.85,16.06-11.95,37.45-18.91Z" style="fill:#0e2952; fill-rule:evenodd;"/><path d="M1273.44,1001.31l-18.87,7.91-41.45,188.29,.15,141.5,31.67,1.01s16-123.55,16.1-133.15c.1-9.59,69.96-167.14,69.96-167.14l-57.56-38.43Z" style="fill:#20386f; fill-rule:evenodd;"/><path d="M1287.83,1011.86s12.35,145.49,12.1,170.01c-.25,24.52,9.56,161.81,9.56,161.81l31.75,.11s2.73-41.75,6.76-103.24c.63-9.65-.39-29.06,.4-39.05,5.68-71.65,16.13-139.09,11.75-165.91-.71-4.33-2.01-15.6-4.73-18.46-20.58-21.71-67.59-5.28-67.59-5.28Z" style="fill:#20386f; fill-rule:evenodd;"/><path d="M1250.28,896.72l38.44-2.19s2.25-34.33,2.41-50.72c.21-19.86,6.56-49.09,4.2-48.59-6.67,1.51-18.2,7.46-23.6,14.87-18.7,25.47-21.45,86.63-21.45,86.63Z" style="fill:#466fb5; fill-rule:evenodd;"/><path d="M1342.36,794.95s21.88,3.31,27.6,7.57c6.44,4.83,13.54,15.6,13.54,15.6,0,0-28.2,126.86-28.47,148.29-.2,16.49,5.24,57.23,5.24,57.23,0,0-81.34,4.32-112.01-8.19,0,0,10.22-48.2,10.35-60.93,.13-12.68,12.94-127.98,15.67-136,2.47-7.29,7-20.37,21.89-23.51,14.88-3.08,46.18-.05,46.18-.05Z" style="fill:#6d96ce; fill-rule:evenodd;"/><path d="M1336.73,760.67l5.05,35.57s-20.24,42.08-32.02,38.26c-9.89-3.14-3.41-40.51-3.41-40.51,0,0,5.62-20.03,4.1-30.13-1.52-10.04,26.27-3.2,26.27-3.2Z" style="fill:#f9af79; fill-rule:evenodd;"/><path d="M1310.45,763.86c-1.52-10.04,26.27-3.2,26.27-3.2l.42,2.97c-.83,1.96-1.85,3.59-3.07,4.88-6.29,6.62-16.06,10.49-24.47,10.72,.9-5.38,1.48-11.22,.85-15.38Z" style="fill:#f27458; fill-rule:evenodd;"/><path d="M1341.81,710.5c.79-.28,5.9,40.51-4.7,51.56-10.59,11.11-31.05,14.59-38.29,5.67-8-9.82-7.15-53.58,9.27-64.97,16.42-11.33,33.72,7.74,33.72,7.74Z" style="fill:#f9af79; fill-rule:evenodd;"/><path d="M1314.52,680.88c12.57,2.63,20.65,10.38,23.61,13.69,5.71,.73,13.46,3.93,21.34,17.22,9.7,16.33,2.23,34.23-9.35,42.98-11.59,8.7-11.55,18.96-11.55,18.96l-1.74-5.38c-1.3-3.98-1.81-8.25-1.31-12.4,.29-2.52,.85-5.28,1.94-7.46,2.82-5.89-5.84-9.88-8.23-14.81-1.83-3.82-1.84-12.46-4.73-18.68l-3.49-4.83s-8.09-6.4-16.08-4.71c-8,1.74-6.55-28.05,9.58-24.57Z" style="fill:#20386f; fill-rule:evenodd;"/><path d="M1329.69,741.14c-.13,4.94,2.1,9.03,4.99,9.15,2.89,.05,5.34-3.93,5.47-8.87,.14-4.99-2.09-9.09-4.98-9.15-2.88-.05-5.34,3.87-5.47,8.87Z" style="fill:#f9af79; fill-rule:evenodd;"/><path d="M1375.38,811.67c-7.36-.28-14.39,48.3-9.76,53.13,4.62,4.82,4.9,64.75,4.9,64.75l-69.52-2.47v.05c-1.36-.95-15.83-10.88-17.89-13.02-2.16-2.3-12.79-1.29-15.63,1.8-2.84,3.03,5.38,1.57,7.86,3.25,2.48,1.74-1.08,4.94-1.08,4.94,0,0-17.65,2.36-21.05-1.29-3.4-3.7-12.52-9.99-13.8-6.34-.67,1.91,4.01,7.63,6.64,10.04-3.3-2.52-7.26-5.22-8.63-4.77-2.5,.84-1.5,4.04-.15,4.99,1.34,.9,15.22,11.73,17.4,12.52,2.13,.78,34.66,1.91,40.27,3.2,0,0,91.49,21.83,96.71,20.59,4.59-1.12,9.47-30.41,9.7-52.91,.23-22.5-2.96-97.57-25.99-98.47Z" style="fill:#f9af79; fill-rule:evenodd;"/><path d="M1365.94,800.5s12.8,3.09,25.89,18.13c11.92,13.63,18.73,89.54,18.73,89.54l-41.68,6.29-2.95-36.7c-17.33-26.72-21.51-58.63,0-77.26Z" style="fill:#466fb5; fill-rule:evenodd;"/><path d="M138.46,842.6c3.55,.25,6.97-3.96,7.95-5.21,3.77-4.79,6.18-10.41,7.15-13.56-.74-2.09-1.5-4.74-2.31-7.94-13.67-9.28-15.53-16.14-5.6-20.6,2,1.12,4.48,4.58,7.45,10.37,2.37-.1,4.16-1.31,5.38-3.63-2.82-9.77-4.65-17.71-5.51-23.81,6.73-10,22.48-11.43,43.33-8.73,.97,5.55,1.76,11.42,2.38,17.63,3.69,3.4,3.21,15.99-.19,30.5,1.7,8.24-3.4,12.75-15.28,13.5-.11,1.99,.07,4.28,.1,5.68,.03,1.26,.08,3.74,1.4,4.12l2.2,.55c-.22,29.5-15.32,35.17-48.46,1.14Z" style="fill:#f9af79; fill-rule:evenodd;"/><path d="M196.31,769.48c-20.85-2.7-36.6-1.27-43.33,8.73,.85,6.1,2.69,14.03,5.51,23.81-1.22,2.33-3.02,3.54-5.38,3.63-2.97-5.79-5.45-9.24-7.46-10.37-9.93,4.46-8.06,11.32,5.61,20.6,.8,3.2,1.57,5.85,2.31,7.94-12.29-2.75-22.58-13.75-24.02-18.5-14.34-28.26,1.65-40.2,10.21-44.55,3.78-27.98,44.57-3.79,55.31-20.87,22.46,12.81,7.56,29.33,1.25,29.58Z" style="fill:#172b57; fill-rule:evenodd;"/><path d="M169.52,828.24c3.33,1.65,7.89,2.61,13.7,2.88-.12,1.96-.03,4.23,.09,5.62-5.83-1.12-10.43-3.95-13.79-8.5Z" style="fill:#ed7d57; fill-rule:evenodd;"/><path d="M113.61,1395.09c-12.95-4.56-13.99-11.23-20.97-14.49-7.02-3.28-7.83-9.13-.96-15.48,5.08,4.05,11.37,9.04,14.71,6.4,2.23-1.76,9.78-1.64,11.27,.92,6.58,15.29,15.73,10.44,17.54,17.4,.21,9.27-15.65,7.34-21.59,5.24Z" style="fill:#0e2952; fill-rule:evenodd;"/><path d="M225.81,1379.88c-22.8-.37-39.85-.64-47.73-3.12-8.5-2.69-6.74-7.87-1.86-16.16,21.5,9.89,15.76-2.03,25.82-.51,7.07,5.68,17.53,9.5,31.38,11.43,5.86,4.33,3.48,8.17-7.62,8.37Z" style="fill:#0e2952; fill-rule:evenodd;"/><path d="M214.42,845.93c-11.38-3.3-21.6-5.3-30.66-6.01-1.64,25.01-14.69,24.83-39.14-.52-23.56,1.97-28.16,2.28-41.23,6.52-28.27,27.01-30.87,58.18-45.65,93.79,16.36,.74,23.71,2.7,34.83,6.67,2.39-8.54,4.39-15.41,6-20.61-.45,46.97-.62,79.15-.52,96.55,54.12,21.44,98.69,14.1,116.9-2.61,.25-41.75,.6-74.8,1.04-99.15,6.48,7.63,12.48,13.54,18.01,17.74,13.27-15.21,22.26-21.34,29.78-30.31-16.65-27.34-40.52-52.79-49.35-62.06Z" style="fill:#6d96ce; fill-rule:evenodd;"/><path d="M323.48,891.69c-28.43,11.81-48.33,21.57-59.71,29.28l-5.05-7.48c-4.7,4.71-10.07,9.33-16.62,16.03,6.06,6.34,12.55,11.55,20.12,15.95,19.75-2.11,41.58-17.07,65.5-44.88,7.43-1.49,12.91-4.18,16.42-8.08,.18-3.59-1.62-7.18-5.42-10.78,9.91-6.46,13.86-11.08,11.84-13.87-15.54,9.61-24.56,17.55-27.08,23.83Z" style="fill:#f9af79; fill-rule:evenodd;"/><path d="M214.95,1019.72c-1.07,4.06,3.36,27.91,4.09,40.35,7.2,44.41,1.03,102.22-2.84,176.55-6.93,26.19-17.16,61.1-16.49,110.23-12.07,3.69-16.45,4.07-27.34,1.3-7.62-51.27-2.42-92.33,4.47-111.29-4.41-29.31-10.99-62.12-20.57-109.44-10.79,51.57-25.23,89.84-31.49,114.81-1.23,27.84-6.87,65.42-9.81,112.73-8.96,2.7-14.54,3.48-23.85,2.35-12.07-43.49-10.04-90.8-4.93-141.95,5.44-61.49-3.52-130.92,5.46-155,4.59-14.26,5.18-26.92,6.42-38.02,45.15,15.02,84.12,14.15,116.9-2.61Z" style="fill:#466fb5; fill-rule:evenodd;"/><path d="M106.37,974.61c-2.9,.43-5.64,.81-8.22,1.16-.14,20.72-.17,36.24-.1,46.56,2.56,1.15,6.15,2.46,8.95,2.79-.02-1.33-.43-4.41-.44-5.71-.18-15.84-.24-30.77-.19-44.8h0Zm132.31-41.51c-7.97-6.63-15.55-17.41-22.75-32.32,.81,5.2,1.13,12.15,.97,20.85,6.12,7.11,11.82,12.67,17.09,16.68,1.62-1.86,3.18-3.59,4.69-5.21h0Zm-130.05-40.4c-3.51,11.3-6.87,22.32-10.06,33.07-.09,9.08-.17,17.6-.23,25.58,2.32-.22,5.04-.37,8.26-.44,.34-22.05,1.01-41.45,2.03-58.2Z" style="fill:#466fb5; fill-rule:evenodd;"/><path d="M180.06,908.95h59.58c2.73,0,4.61,2.23,4.17,4.96l-13.37,84.4c-.43,2.73-3.02,4.96-5.75,4.96h-59.58c-2.73,0-4.61-2.23-4.18-4.96l13.37-84.4c.43-2.73,3.02-4.96,5.75-4.96Z" style="fill:#223f81; fill-rule:evenodd;"/><path d="M63.23,940.03c-2.57,10.45-3.64,20-1.54,32.68,6.43,9.34,32.38,4.12,99.18-7.05,2.39,2.19,7.35,4.36,14.87,3.39,6.99-1.74,7.33-3.57,15.16-10.95,1.9-5.76,1.51-10.15-1.17-13.18-8.82,5.2-13.47,7.96-23.41,8.29,2.65-6.81,3.04-11.21,1.19-13.19-3.39,2.72-5.6,6.81-6.62,12.26-52.67-2.29-66.56-1.98-73.57,1.7,.76-3.31,1.43-6.21,2.02-8.72-8.2-2.8-14.88-4.42-26.12-5.23Z" style="fill:#f9af79; fill-rule:evenodd;"/><path d="M177.75,1349.35c.54,4.47,.61,8.49,.23,12.03,17.98,7.82,14.93-1.21,22.11-1.43-1.81-3.17-2.97-7.23-3.51-12.18-7.84,2.24-12.3,2.75-18.84,1.57h0Zm-83.8,8.24c0,3.25-.31,6.12-.95,8.58,4.81,3.81,10.34,7.77,13.39,5.35,1.46-1.16,5.23-1.5,8.06-.88-1.16-3.93-2.09-8.86-2.76-14.77-6.3,1.7-11.15,2.27-17.74,1.71Z" style="fill:#f9af79; fill-rule:evenodd;"/><path d="M219.03,1060.06c-31.75,29.61-74.22,29.7-127.4,.28-8.98,24.07-.01,93.51-5.46,155-5.11,51.15-7.14,98.46,4.93,141.95,.99,.12,1.93,.22,2.84,.29,6.59,.56,11.43,0,17.74-1.71,1.04-.28,2.13-.59,3.27-.93,2.94-47.31,8.57-84.88,9.81-112.73,6.26-24.97,20.7-63.24,31.49-114.81,9.58,47.32,16.16,80.13,20.57,109.44-6.88,18.96-12.08,60.02-4.47,111.29,1.99,.51,3.76,.91,5.4,1.2,6.54,1.18,10.99,.67,18.84-1.57,.98-.29,2.02-.59,3.11-.92-.66-49.13,9.56-84.04,16.49-110.23,3.88-74.34,10.04-132.14,2.84-176.55Z" style="fill:#223f81; fill-rule:evenodd;"/><path d="M168.92,1312.92c11.59,3.15,22.19,4.1,31.82,2.84,.21-2.54,.44-5.04,.7-7.49-10.56,1.37-21.48,.67-32.76-2.12,.05,2.22,.14,4.48,.24,6.77h0Zm-84.66,8.82c12.6,1.51,23.76,.68,33.48-2.5,.24-2.64,.49-5.25,.74-7.82-10.91,3.56-22.55,4.78-34.92,3.66,.21,2.23,.44,4.45,.7,6.67h0Zm31.85,16.65c.21-2.62,.41-5.21,.63-7.76-9.73,2.66-20.02,3.51-30.88,2.56,.37,2.26,.76,4.5,1.19,6.74,10.74,1.21,20.43,.7,29.06-1.54h0Zm84.07-14.49c-9.82,1.62-20.02,1.45-30.62-.53,.17,2.24,.37,4.51,.59,6.81,10.83,2.29,20.73,2.7,29.7,1.22,.09-2.54,.2-5.04,.33-7.5Z" style="fill:#0e2952; fill-rule:evenodd;"/><path d="M1045.79,832.62c9.35-13.69-10.86-17.21-10.67-32.18,.13-10.32-6.33-21.08-4.39-31.38,3.96-21.07-4.26-27.46-4.31-29.06-.49-15.96-10.04-16.38-19.55-21.75-16.87-9.56-31.54,2.13-36.32,2.44-24.39,1.59-10.88,12.07-21.8,21.52-9,7.79-4.74,13.68-3.82,18.36,.42,2.1,2.37,10.78-3.85,15.17-9.13,6.43,.22,23.61-5.16,25.24-20.72,6.28-12.38,8.87-11.82,23.34,.18,4.63,4.65,8.15,7.56,11.55,35.68-11.17,60.23,33.23,114.12-3.23Z" style="fill:#20386f; fill-rule:evenodd;"/><path d="M1014.05,813.39c-1.05-2.45-3.87-3.98-4.82-4.75-10.33,5.58-21.27,9.03-32.75,9.12,.41,6.56,1.38,13.46,2.69,20.84,18.98-14.76,30.6-23.16,34.88-25.2Z" style="fill:#fff; fill-rule:evenodd;"/><path d="M968.31,812.56c-2.79,5.89-4.69,11.4-5.68,16.52,3.01-5.42,6.37-8.73,13.84-11.32-2.38-2.5-2.19-5.76-3.15-8.37-2.68,1.65-4.35,2.71-5.01,3.17Z" style="fill:#fff; fill-rule:evenodd;"/><path d="M960.19,812.61c-28.67,72.88-4.5,67.22,57.6,1.58,3.64,.87,6.97,1.93,10,3.2-8.06,7.46-11.08,19.92-9.04,37.4,1.22,13.53,2.56,26.69,4.02,39.47-3.54,7.98-5.35,16.14-5.66,24.94-.27,7.69,.61,15.87,2.48,24.85,2.93,14.08,8.3,30.11,15.53,49.28-43.48,14.81-80.7,14.98-111.66,.5,17.95-39.47,15.56-51.71,13.53-78.12-2.03-42.86-28.16-29.4,15.27-101.48,2.97-.92,5.57-1.4,7.93-1.62Z" style="fill:#466fb5; fill-rule:evenodd;"/><path d="M976.47,817.76c.41,6.56,1.38,13.46,2.69,20.84,18.98-14.76,30.6-23.16,34.88-25.2,1.29,.24,2.54,.51,3.75,.8-62.1,65.64-86.28,71.3-57.6-1.58,2.98-.29,5.6-.17,8.12-.05-2.79,5.89-4.69,11.4-5.68,16.52,3.01-5.42,6.37-8.73,13.84-11.32Z" style="fill:#6d96ce; fill-rule:evenodd;"/><path d="M992.71,919.88c11.81,.03,22.83-.41,33.05-1.33-2.67-20.22-5.01-41.48-7.01-63.76-2.04-17.48,.98-29.95,9.04-37.4,10.74,4.5,17.58,11.57,20.49,21.2,6.35,20.48,5.57,96.76-1.33,103.65-8.72,3.82-27.13,3.04-55.25-2.34,1.95-5.73,2.28-12.4,1.01-20.03Z" style="fill:#6d96ce; fill-rule:evenodd;"/><path d="M985.59,922.73c1.6,.18,4.12,.34,7.58,.48,.54,5.03,.34,9.62-.64,13.76-3.01-.55-6.83-1.35-11.46-2.39-8.22,2.11-18.13,2-29.71-.33-8.06-3.1-10.5-8.77-7.35-17.03,12.6,1.47,20.13,1,22.62-1.42-4.4-2.24-5.96-4.83-4.67-7.76,12.38,4.54,20.25,9.43,23.62,14.69Z" style="fill:#f9af79; fill-rule:evenodd;"/><path d="M942.87,899.95l-88.13-13.35,19.02,38.05,88.29,13.86-1.41-2.83c-2.96-.3-6.06-.78-9.28-1.43-8.06-3.1-10.5-8.77-7.35-17.03,2.85,.34,5.45,.57,7.79,.7l-8.95-17.98Z" style="fill:#c4d1eb; fill-rule:evenodd;"/><path d="M944.05,909.91l3.87,7.72h0c-1.24-.11-2.54-.25-3.89-.41-2.74,7.17-1.25,12.39,4.45,15.67l-72.45-11.33-7.4-14.8c10.14,3.51,20.45,5.74,30.94,6.67,2.14,2.48,5.47,4.3,8.18,4.3,2.52,0,3.76-1.57,3.34-3.79,10.8,0,21.79-1.35,32.96-4.02Z" style="fill:#9db2d9; fill-rule:evenodd;"/><path d="M971.83,935.98l-9.77,2.53-1.41-2.83c3.96,.41,7.69,.51,11.18,.3Z" style="fill:#859ac6; fill-rule:evenodd;"/><path d="M962.06,938.51l9.77-2.53c3.29-.19,6.37-.66,9.25-1.4,3.1,.7,5.84,1.29,8.22,1.77l-24.4,8-24.08-4.1-67.22-11.43,.16-4.17,64.55,10.13h0l23.75,3.72Z" style="fill:#859ac6; fill-rule:evenodd;"/><path d="M921.37,896.69c3.42-3.21,6.31-6.97,8.68-11.29,1.39,3.89,3.08,8.01,4.45,13.28l-13.13-1.99Z" style="fill:#6d96ce; fill-rule:evenodd;"/><path d="M952.26,814.24c-10.19,16.92-16.55,29.12-20.3,38.45-3.69-28.93,1.6-35.44,20.3-38.45Z" style="fill:#6d96ce; fill-rule:evenodd;"/><path d="M1028.25,995.56c10.27,21.18,13.16,67.21,8.67,138.09-56.37,7.63-96.99,6.85-121.85-2.34,2.02-64.73,6.58-109.79,13.69-135.17,28.2,11.41,61.36,11.22,99.49-.58Z" style="fill:#0e2952; fill-rule:evenodd;"/><path d="M1009.22,808.64c-10.33,5.58-21.27,9.03-32.75,9.12-2.1-2.21-2.2-4.99-2.85-7.41-.04-.14-.08-.27-.11-.4,1.76-2.4,2.95-4.21,1.88-8.39-.02-.06-.03-.13-.05-.19-12.43-4.17-20.15-25.08-15.11-37.37-.25-4.11-.64-8.38-1.18-12.8,18.42,5.35,29.99,5.05,43.48-4.43,2.36,6.14,3.54,9.63,2.13,16.11-.31,2.24-1.45,7.02,1.54,7.46,1.38-7.78,4.22-12.08,9.47-10.22,4.68,7.49,1.89,16.92-9.35,18.87-3.3,6.82-4.72,11.48-4.27,13.98-.36,4.25,3.36,9.97,6.16,14.15,.36,.54,.7,1.04,1.01,1.52Z" style="fill:#f9af79; fill-rule:evenodd;"/><path d="M975.28,801.13c7.53,.85,10.94,.79,17.91-1.98-4.08,4.41-10.43,7.03-17.73,7.46,.39-1.83,.32-3.61-.17-5.48Z" style="fill:#ed7d57; fill-rule:evenodd;"/><path d="M923.56,1196.8c-1.45-19.97-2.31-41.15-2.58-63.54,12.4,3.61,28.06,5.47,46.99,5.58-4.55,19.18-11.44,40.16-15.03,60.86,19.09,51.76-7.19,94.54-3.47,128.4-5.2,8.29-13.84,27.05-26.86,33.93-4.34-1.12-1.09-5.08-2.54-7.34,6.72-6.98,10.92-17.92,12.61-32.82,1.55-35.42-1.5-77.1-9.13-125.07Z" style="fill:#f9af79; fill-rule:evenodd;"/><path d="M994.53,1189.4c-3.94-16.39-11.07-32.88-16.26-50.66,13.9-.35,29.37-1.52,46.4-3.54-.28,16.8-.49,34.33-.64,52.59,26.72,47.27,8.82,102.48,15.97,126.24-5.21,12.35-6.6,27.82-18.18,36.92-4.27-.34-2.06-4.5-3.66-6.46,3.64-8.21,5.63-18.57,5.96-31.07-4.1-35.64-13.97-76.99-29.59-124.04Z" style="fill:#f9af79; fill-rule:evenodd;"/><path d="M915.85,1353.13c9.16,.48,.8,7.36,6.76,8.9,13.03-6.88,20.25-25.65,25.45-33.95,2.74-4.36,4.72,1.19,6.07,7.4,2.15,9.89-.56,6.44-1.78,14.34-.3,1.97,2.24,12.57,2.66,18.46,.17,2.32-1.1,3.23-1.35,3.63-2.38-4.01-4.43-16.36-6.6-23.91-12.79,10.99-10,23.11-17.58,27.24-18.19,1.95-28.03,2.43-41.84,2.72-3.03-11.35,20.99-7.52,28.2-24.83Z" style="fill:#0e2952; fill-rule:evenodd;"/><path d="M1013.74,1343.61c8.83-1.1,2.11,6.89,8.08,7.36,11.19-8.8,14.66-27.96,18.11-36.76,1.82-4.63,4.72,.33,7.15,6.03,3.86,9.08,.64,6.24,.91,14,.07,1.94,4.44,11.62,5.91,17.18,.58,2.19-.47,3.27-.62,3.69-3.01-3.42-7.22-14.87-10.67-21.71-10.21,12.68-5.33,23.77-11.82,29.01-17.02,4.96-26.32,7.1-39.47,9.73-4.97-10.32,18.67-10.75,22.41-28.52Z" style="fill:#0e2952; fill-rule:evenodd;"/><path d="M902.11,907.97c-2.11,0-2.84,1.72-1.62,3.83,1.22,2.11,3.92,3.83,6.04,3.83s2.83-1.71,1.62-3.83c-1.22-2.11-3.92-3.83-6.04-3.83Z" style="fill:#9db2d9; fill-rule:evenodd;"/><rect x="490.51" y="1056.34" width="306.48" height="105.88" style="fill:#b0c2e4;"/><path d="M794.21,997.42c18.48-8.61,30.67-24.52,30.67-48.49v-7.48c3.61-207.36,185.85-265.49,200.57-494.89,1.11-17.21,.96-34.03-.37-50.4-28.54-173.99-193.9-290.82-379.7-290.82-211.73,0-396.92,151.68-383.36,366.81,14.02,222.55,187.65,278.95,191.08,480.14,0,21.77,23.28,46.89,43.11,45.13h298Z" style="fill:#c4d1eb; fill-rule:evenodd;"/><path d="M479.49,1186.68c2.29,23.3,22.11,41.63,45.93,41.63h35.35l13.75,22.47c7.89,12.92,12.54,13.78,27.7,13.78h83.08c15.16,0,19.77-.81,27.7-13.78l13.75-22.47h35.36c23.52,0,43.11-17.86,45.82-40.73v-16.15c-1.25-5.26-6.01-9.21-11.65-9.21H491.23c-5.67,0-10.46,4-11.68,9.32-.11,.48,.21,1.49-.07,1.69v13.45h0Zm312.49-106.13H495.55c-8.97,0-16.29,7.33-16.29,16.28v25.26c0,8.95,7.32,16.28,16.29,16.28h296.43c8.95,0,16.28-7.33,16.28-16.28v-25.26c0-8.95-7.33-16.28-16.28-16.28h0Zm-.67-83.13H496.2c-9.31,0-16.94,7.63-16.94,16.94v26.29c0,9.32,7.63,16.95,16.94,16.95h295.11c9.31,0,16.94-7.63,16.94-16.95v-26.29c0-9.32-7.63-16.94-16.94-16.94Z" style="fill:#9db2d9; fill-rule:evenodd;"/><path d="M505.75,238.69c10.17-4.29,14.94-16.01,10.66-26.18-4.29-10.17-16.02-14.95-26.19-10.66-8.31,3.52-16.18,7.29-23.57,11.26-7.64,4.1-15.1,8.57-22.34,13.36-9.22,6.1-11.75,18.53-5.64,27.75,6.1,9.22,18.53,11.74,27.75,5.64,6.17-4.09,12.58-7.93,19.2-11.48,6.78-3.64,13.5-6.89,20.13-9.69h0Zm-88.05,63.9c7.27-8.36,6.39-21.03-1.96-28.3-8.36-7.28-21.02-6.4-28.3,1.96-21.18,24.33-38.11,52.4-49.66,83.07-11.14,29.62-17.23,61.52-17.23,94.69,0,11.08,8.99,20.07,20.06,20.07s20.07-8.98,20.07-20.07c0-28.4,5.15-55.54,14.57-80.57,9.8-26.03,24.27-49.96,42.45-70.84Z" style="fill:#fff; fill-rule:evenodd;"/><path d="M643.75,350.06c-51.16,0-92.64,41.47-92.64,92.64,0,35.21,19.65,65.84,48.58,81.5l-37.29,250.63h162.69l-37.28-250.63c28.93-15.67,48.58-46.29,48.58-81.5,0-51.16-41.48-92.64-92.64-92.64Z" style="fill:#859ac6; fill-rule:evenodd;"/><path d="M654.04,415.88h775.86c-9.25,25.18-14.31,52.38-14.31,80.77s5.06,55.59,14.31,80.77H654.04v-161.54Z" style="fill:#d0a382; fill-rule:evenodd;"/><path d="M654.04,496.65h761.55c0,28.39,5.06,55.59,14.31,80.77h-487.39v98.42h-96.77v-98.42h-81.26v133.52h-110.44v-214.29Z" style="fill:#bf9071; fill-rule:evenodd;"/><circle cx="1649.66" cy="496.65" r="234.07" transform="translate(131.99 1311.95) rotate(-45)" style="fill:#eac5a7;"/><circle cx="1730.42" cy="507.36" r="89.01" transform="translate(1116.52 2202.91) rotate(-86.44)" style="fill:#fff;"/><path d="M1618.68,1333.97l1.48,26.13c.53,3.3,2.66,11.47,2.66,14.49,0,11.3-50.27-9.56-39.02-14.6,1.03-.44,7.96-6.43,8.29-10.29,.51-5.93,.26-15.33,.26-15.33l26.32-.39Z" style="fill:#f9af79; fill-rule:evenodd;"/><path d="M1583.95,1359.87s11.8,3.47,17.84,4.31c6.04,.89,14.04-6.38,18.31-4.42,4.7,2.18,5.03,27.08,5.03,27.08,0,0-61.9,4.7-77.74,.17-7.11-2.07,12.43-19.08,36.57-27.13Z" style="fill:#0e2952; fill-rule:evenodd;"/><path d="M1521.72,1333.97l1.48,26.13c.55,3.3,2.69,11.47,2.69,14.49,0,11.3-50.29-9.56-39.02-14.6,1.02-.44,7.94-6.43,8.29-10.29,.51-5.93,.24-15.33,.24-15.33l26.32-.39Z" style="fill:#f9af79; fill-rule:evenodd;"/><path d="M1487,1359.87s11.81,3.47,17.85,4.31c6.04,.89,14.01-6.38,18.29-4.42,4.71,2.18,5.02,27.08,5.02,27.08,0,0-61.88,4.7-77.72,.17-7.13-2.07,12.41-19.08,36.56-27.13Z" style="fill:#0e2952; fill-rule:evenodd;"/><path d="M1479.18,650.27c-1.62,12.75-3.64,11.92-3.79,13.6-.21,1.9,11.43,25.29,11.43,25.29,0,0,33.88,69.04,35.82,72.74l60.24,50.8-15.61,37.49s-64.12-57.01-66.98-60.59c-2.84-3.58-38.12-102.27-41.5-110.83,0,0-7.68-8.79-12.32-14.49-4.65-5.65-6.65-13.09-7.71-14.94-.16-.22-3.4-6.43-5.42-15.16-1.74-7.49,3.23-1.12,3.23-1.12,0,0,5.65,13.32,6.59,12.7,.72-.5-2.77-7.61-4.79-15.89-.51-2.13-1.01-4.2-1.48-6.16-1.18-5.03,1.51-7.22,3.56-2.07,.72,1.79,1.86,4.81,2.38,7.11,.55,2.46,1.82,4.53,2.6,6.54,1.54,3.97,2.58,6.88,2.72,6.72,.16-.17,1,.39,.52-1.9-.58-2.69-3.07-8.28-3.62-12.37-.31-2.29-1.24-7.1-1.24-7.1,0,0-.1-7.5,.33-7.67,2.31-.78,3.78,4.37,3.81,7.55,1.03,2.02,1.88,7.11,1.88,7.11,0,0,3.94,9.9,5.32,9.4,.58-.22-1.14-6.6-1.88-13.09-.67-6.04-.41-12.26,.73-12.53,1.94-.56,3.39,6.1,3.39,6.1,0,0,.77,4.7,1.15,6.21,.43,1.85,2.14,7.16,2.14,7.16,0,0,6.8,18.18,8.05,17.57,1.24-.62,3.82-3.52,3.77-4.81-.03-1.23-1.31-3.58-1.34-4.81-.05-1.29,.96-2.97,2.48-3.14,1.51-.17,4.01,5.98,4.01,5.98,0,0,2,4.98,1.54,8.62Z" style="fill:#f9af79; fill-rule:evenodd;"/><path d="M1782.3,674.83c-.7,12.81,1.41,12.42,1.27,14.05-.15,1.96-15.84,22.77-15.84,22.77,0,0-45.82,61.83-48.41,65.07l-68.44,39.05,8.56,39.73s73.4-44.48,76.84-47.5c3.45-2.97,56.02-93.66,60.9-101.49,0,0,9.16-7.22,14.75-11.97,5.6-4.7,8.92-11.69,10.29-13.26,.21-.22,4.51-5.76,8.07-13.93,3.09-7.05-2.97-1.74-2.97-1.74,0,0-7.97,12.09-8.79,11.3-.61-.62,4.1-6.94,7.6-14.72,.9-2.01,1.76-3.97,2.55-5.82,2.08-4.76-.17-7.39-3.12-2.69-1.03,1.62-2.7,4.42-3.62,6.55-1,2.35-2.62,4.14-3.74,5.99-2.24,3.63-3.8,6.27-3.91,6.09-.12-.22-1.05,.23-.15-1.96,1.06-2.57,4.49-7.55,5.78-11.47,.72-2.24,2.51-6.77,2.51-6.77,0,0,1.47-7.39,1.07-7.61-2.12-1.23-4.51,3.58-5.11,6.71-1.37,1.79-3.13,6.65-3.13,6.65,0,0-5.69,9.01-6.93,8.28-.54-.34,2.31-6.32,4.22-12.53,1.76-5.82,2.61-11.97,1.55-12.48-1.82-.84-4.44,5.37-4.44,5.37,0,0-1.61,4.48-2.26,5.93-.76,1.73-3.41,6.6-3.41,6.6,0,0-9.99,16.73-11.11,15.89-1.12-.84-3.11-4.2-2.84-5.43,.28-1.23,1.95-3.3,2.22-4.53,.26-1.23-.41-3.08-1.89-3.52-1.46-.39-5.03,5.15-5.03,5.15,0,0-2.85,4.53-3.06,8.22Z" style="fill:#f9af79; fill-rule:evenodd;"/><path d="M1604.11,1002.3s-76.17,181.27-79,197.55c-2.05,11.98,.6,147.54,.6,147.54l-36.02-.56-12.63-154.92,47.4-195.37,79.66,5.76Z" style="fill:#0e2952; fill-rule:evenodd;"/><polygon points="1637.6 1010.81 1602.88 1212.11 1625.56 1346.83 1584.55 1346.83 1552.32 1201.98 1547.89 1043.26 1564.51 992.17 1637.6 1010.81" style="fill:#20386f; fill-rule:evenodd;"/><path d="M1538.11,771.85s-9.01,40.56-15.33,46.89c0,0,32.2,21.48,30.7,30.04-1.5,8.5-35.65,167.85-35.65,167.85,0,0,70.33,36.64,114.08,30.77,0,0,32.94-181.55,41.46-190.06,8.52-8.5,34.98-21.99,34.98-21.99,0,0-19.78-37.99-19.78-44.76,0,0-46.97,21.88-54.9,29.77-7.93,7.95-23.29-2.07-26.99-3.69,0,0-62.93-41.35-68.58-44.82Z" style="fill:#6d96ce; fill-rule:evenodd;"/><path d="M1627.49,783.43l5.95,37.26s-15.63,26.01-28.13,22.15c-10.5-3.24-9.59-23.84-9.59-23.84,0,0,5.71-21.2,3.99-31.89-1.7-10.63,27.78-3.69,27.78-3.69Z" style="fill:#f9af79; fill-rule:evenodd;"/><path d="M1599.72,787.12c-1.7-10.63,27.78-3.69,27.78-3.69l.46,3.13c-.87,2.07-1.91,3.86-3.19,5.26-6.6,7-16.87,11.25-25.77,11.58,.88-5.76,1.43-11.92,.72-16.28Z" style="fill:#f27458; fill-rule:evenodd;"/><path d="M1632.33,730.28c.83-.28,6.66,42.8-4.43,54.66-11.08,11.86-32.69,15.72-40.44,6.38-8.58-10.29-8.15-56.62,9.09-68.82,17.25-12.2,35.77,7.77,35.77,7.77Z" style="fill:#f9af79; fill-rule:evenodd;"/><path d="M1631.33,706.55c6.04,.73,16.61,9.12,25.12,23.11,10.43,17.18-2.68,38.27-14.84,47.61-12.17,9.29-11.91,20.14-11.91,20.14l-2-5.6c-1.43-4.25-2-8.73-1.54-13.15,.29-2.69,.87-5.54,1.97-7.95,2.92-6.21-6.29-10.35-8.86-15.55-2-3.97-2.09-13.15-5.22-19.75l-3.75-5.03s-10.56,.95-17.07-4.76c-18.66-16.39,9.84-38.04,38.09-19.08Z" style="fill:#0e2952; fill-rule:evenodd;"/><path d="M1619.84,762.84c-.1,5.26,2.31,9.57,5.37,9.62,3.05,.05,5.6-4.14,5.69-9.4,.09-5.25-2.31-9.56-5.38-9.62-3.05-.05-5.59,4.14-5.68,9.4Z" style="fill:#f9af79; fill-rule:evenodd;"/><polygon points="526.37 5.97 383.87 64.39 423 114.37 526.37 5.97" style="fill:#c4d1eb; fill-rule:evenodd;"/><polygon points="363.77 40.84 522.02 6.29 325.01 20.68 363.77 40.84" style="fill:#c4d1eb; fill-rule:evenodd;"/><polygon points="363.77 40.84 367.46 106.45 383.87 64.39 526.37 5.97 522.02 6.29 363.77 40.84" style="fill:#9db2d9; fill-rule:evenodd;"/><polygon points="367.46 106.45 401.2 86.54 383.87 64.39 367.46 106.45" style="fill:#859ac6; fill-rule:evenodd;"/><path d="M341.65,74.92c3.34-.42,4.11,4.78,.57,5.23l-5.2,.61c-3.4,.42-4.1-4.79-.62-5.22l5.24-.62h0ZM44.37,411.53c-3.13-1.79-.85-6.08,2.28-4.74,1.56,.72,3.09,1.44,4.67,2.13,3.2,1.37,1.12,6.2-2.05,4.84l-4.89-2.23h0Zm20.03,7.68c-3.16-.79-2.12-5.94,1.44-5.06,1.65,.45,3.29,.89,4.96,1.3,3.47,.86,2.07,5.93-1.19,5.11-1.76-.41-3.47-.88-5.21-1.36h0Zm21.2,3.81c-3.45-.43-3.2-5.24,.34-5.24,1.7,.11,3.39,.19,5.1,.21,3.43,0,3.46,5.25-.03,5.25-1.77-.11-3.6-.1-5.41-.22h0Zm21.6-1.12c-3.48,.44-4.36-4.32-.96-5.17,1.68-.29,3.32-.67,4.98-1.08,3.36-.84,4.63,4.26,1.28,5.1-1.75,.44-3.52,.84-5.29,1.15h0Zm20.6-6.76c-2.67,1.53-5.68-2.8-2.33-4.71,1.52-.74,3-1.56,4.47-2.39,3.08-1.76,5.6,2.85,2.66,4.54-1.56,.9-3.17,1.79-4.8,2.57h0Zm17.95-12.16c-2.85,2.37-5.99-1.85-3.52-3.91,1.21-1.09,2.57-2.32,3.67-3.51,2.52-2.52,6.15,1.28,3.77,3.66-1.29,1.29-2.57,2.54-3.92,3.75h0Zm14.17-16.32c-1.94,2.71-6.18,.24-4.36-2.94,.96-1.42,1.87-2.84,2.76-4.31,1.65-2.88,6.29-.43,4.5,2.7-.92,1.55-1.9,3.05-2.9,4.55h0Zm10.05-19.07c-1.17,3.13-6.15,1.43-4.89-1.93,.64-1.59,1.23-3.2,1.8-4.82,1.28-3.41,6.13-1.37,4.97,1.71-.59,1.69-1.22,3.37-1.88,5.03h0Zm6.38-20.39c-.84,3.39-5.94,2.08-5.1-1.25l1.19-5.06c.88-3.52,5.93-2.05,5.13,1.14l-1.22,5.17h0Zm4.36-20.72c-.38,3.07-5.64,2.87-5.17-.95l.94-5.16c.38-3.1,5.65-2.86,5.17,.92l-.94,5.18h0Zm3.7-20.7c-.38,3.08-5.65,2.85-5.17-.95l.97-5.2c.83-3.31,5.61-2.57,5.16,1l-.96,5.14h0Zm4.24-20.43c-.84,3.38-5.94,2.08-5.1-1.26,.42-1.72,.85-3.46,1.33-5.16,.8-3.2,5.95-2.11,5.07,1.41-.5,1.57-.9,3.41-1.3,5.02h0Zm5.23-18.54c-1.85,1.37-5.01-.41-3.98-3.13,.43-1.11,.9-2.22,1.38-3.31-.23-1.29,.59-2.34,1.65-2.77,1.79-1.18,4.82,.42,3.97,3.02,.41,1.12,.82,2.24,1.27,3.34,1.08,2.87-2.5,4.7-4.29,2.85h0Zm10.55-19.04c-2.32,2.79-6.17-.4-4.22-3.12,1.07-1.47,2.22-2.91,3.42-4.28,2.11-2.53,6.28,.68,3.95,3.47-1.1,1.26-2.15,2.58-3.14,3.93h0Zm14.4-13.86c-3.33,1.9-5.55-2.87-2.86-4.41,1.55-1.01,3.08-1.93,4.69-2.82,2.85-1.63,5.65,2.83,2.48,4.64-1.48,.8-2.9,1.68-4.31,2.6h0Zm18.37-8.17c-3.47,.86-4.6-4.27-1.35-5.08,1.75-.48,3.49-.89,5.27-1.27,3.06-.76,4.69,4.24,1.03,5.16-1.66,.34-3.31,.75-4.95,1.19h0Zm20.24-3.23c-3.08,.38-4.16-4.77-.36-5.24,1.78-.13,3.56-.22,5.35-.28,3.67,0,3.43,5.25,.16,5.25-1.72,.06-3.43,.15-5.15,.27h0Zm20.46,.4c-3.37-.42-2.81-5.65,.7-5.21,1.8,.23,3.56,.51,5.34,.85,3.31,.82,2.57,5.61-.99,5.16-1.69-.32-3.35-.57-5.04-.79h0Zm19.49,5.26c-3.05-1.3-1.14-6.21,2.17-4.79,1.71,.78,3.28,1.62,4.92,2.51,2.94,1.68,.42,6.29-2.65,4.54l2.65-4.54-2.65,4.54c-1.46-.82-2.91-1.56-4.44-2.25h0Zm15.97,11.59c-2.29-2.74,1.83-6.01,3.98-3.43,1.22,1.37,2.38,2.92,3.39,4.44,1.92,3.36-2.88,5.55-4.4,2.89-.91-1.35-1.9-2.68-2.98-3.9h0Zm8.59,17.42c-.44-3.51,4.32-4.34,5.16-.97,.36,1.84,.59,3.67,.73,5.54,0,3.5-4.81,3.81-5.25,.32-.12-1.65-.32-3.25-.64-4.88h0Zm-1.08,19.51c.75-2.99,5.95-2.16,5.02,1.57-.56,1.78-1.18,3.48-1.91,5.19-1.35,3.15-6.2,1.12-4.82-2.09,.66-1.55,1.22-3.06,1.72-4.67h0Zm-9.71,17.22c2.09-2.51,6.28,.67,3.94,3.48-1.2,1.36-2.5,2.72-3.83,3.96-2.74,2.28-6.01-1.42-3.58-3.85,1.21-1.13,2.38-2.36,3.47-3.6h0Zm-15.7,12.39c2.87-1.64,5.64,2.83,2.5,4.63-1.61,.86-3.23,1.68-4.9,2.42-3.25,1.39-5.23-3.48-2.12-4.81,1.54-.69,3.04-1.43,4.52-2.23h0Zm-18.92,7.08c3.1-.77,4.68,4.24,1.06,5.15-1.78,.38-3.55,.73-5.36,.99-3.48,.43-4.08-4.78-.68-5.21,1.69-.3,3.29-.57,4.97-.94h0Zm-20.08,1.31c3.57,.44,2.76,5.64-.55,5.22-1.78-.15-3.7-.46-5.46-.81-3.63-.91-2.04-5.92,1.06-5.15,1.59,.31,3.33,.58,4.94,.73h0Zm-19.25-5.47c3.11,1.77,.85,6.08-2.29,4.73-1.64-.78-3.27-1.67-4.84-2.58-2.9-1.65-.41-6.29,2.7-4.51,1.42,.84,2.95,1.66,4.44,2.36h0Zm-16.59-11.45c2.59,2.6-1.3,6.14-3.6,3.83-1.32-1.23-2.64-2.52-3.87-3.85-2.42-2.89,1.85-5.97,3.88-3.55,1.13,1.23,2.37,2.43,3.59,3.56h0Zm-13.04-15.62c1.9,3.33-2.87,5.55-4.41,2.86-.98-1.5-1.91-3.04-2.82-4.59-1.74-3.04,2.85-5.61,4.55-2.63,.87,1.48,1.75,2.94,2.68,4.36h0Zm-15.26-37.86c.76,3.06-4.24,4.69-5.16,1.03-.36-1.76-.69-3.51-.98-5.28-.45-3.62,4.78-4.05,5.2-.8,.31,1.69,.59,3.37,.94,5.05h0Zm-2.51-20.41c0,3.67-5.25,3.42-5.25,.16-.07-1.78-.11-3.56-.11-5.34,0-3.45,5.26-3.47,5.26,.01,0,1.72,.04,3.44,.1,5.17h0Zm.81-20.58c-.43,3.43-5.65,2.79-5.22-.65,.21-1.77,.46-3.56,.75-5.33,.39-3.14,5.65-2.84,5.18,.89-.32,1.6-.51,3.45-.71,5.09h0Zm4.09-20.17c-.78,3.09-5.95,2.15-5.04-1.49,.49-1.71,1.03-3.41,1.59-5.1,1.3-3.47,6.12-1.36,4.98,1.66-.54,1.64-1.05,3.27-1.53,4.93h0Zm7.3-19.21c-1.92,3.36-6.24,.34-4.72-2.32,.78-1.62,1.57-3.21,2.41-4.78,1.79-3.15,6.27-.37,4.63,2.49-.81,1.52-1.57,3.06-2.32,4.61h0Zm10.37-17.77c-2.01,2.81-6.29-.24-4.28-3.06,1.03-1.46,2.08-2.9,3.16-4.33,2.37-2.84,6.23,.74,4.16,3.22-1.04,1.37-2.05,2.76-3.04,4.16h0Zm13.13-15.87c-2.49,2.5-6.16-1.28-3.75-3.68,1.24-1.29,2.51-2.53,3.8-3.77,2.32-2.32,6.19,1.24,3.61,3.82-1.24,1.19-2.47,2.39-3.66,3.63h0Zm15.43-13.66c-2.41,2-6.08-1.77-3.16-4.21,1.42-1.08,2.86-2.15,4.32-3.17,2.74-1.96,5.88,2.25,2.99,4.32-1.41,.99-2.79,2.01-4.16,3.05h0Zm17.26-11.35c-2.95,1.68-5.62-2.84-2.56-4.6,1.55-.88,3.12-1.74,4.7-2.56,2.75-1.57,5.67,2.81,2.39,4.68-1.52,.78-3.04,1.63-4.53,2.48h0Zm18.61-9.09c-3.1,1.33-5.27-3.46-2-4.85,1.64-.69,3.29-1.36,4.95-1.99,3.24-1.22,5.09,3.71,1.85,4.92-1.61,.6-3.22,1.26-4.8,1.92h0Zm19.53-6.97c-3.6,.9-4.58-4.27-1.46-5.05l5.1-1.47c3.48-.87,4.6,4.27,1.36,5.08l-5,1.44h0Zm20.18-5.08c-3.09,.77-4.69-4.24-1.05-5.15,1.73-.37,3.47-.69,5.21-1.02,3.82-.48,4.01,4.78,.96,5.17-1.71,.32-3.42,.64-5.11,1Z" style="fill:#859ac6; fill-rule:evenodd;"/></svg>