<?xml version="1.0" encoding="UTF-8"?><svg id="a" xmlns="http://www.w3.org/2000/svg" viewBox="0 0 1693.21 1432.59"><path d="M794.75,264.49H0c5.71-24.15,27.39-42.11,53.28-42.11,1.24,0,2.49,.05,3.72,.14,12.55-30.72,42.74-52.38,77.99-52.38,15.42,0,29.85,4.16,42.28,11.38,15.16-49.96,61.57-86.34,116.49-86.34,11.17,0,22,1.52,32.27,4.35C352.63,40.82,411.71,0,480.34,0c81.39,0,149.37,57.46,165.61,134.02,1.38-.05,2.74-.1,4.11-.1,52.14,0,95.17,38.99,101.53,89.4,21.27,3.98,38.22,20.26,43.15,41.17Z" style="fill:#e0e8f5; fill-rule:evenodd;"/><path d="M1608.41,219.76h-570.65c4.1-17.34,19.67-30.24,38.25-30.24,.89,0,1.79,.04,2.67,.11,9.01-22.06,30.69-37.62,56-37.62,11.08,0,21.44,2.98,30.36,8.18,10.89-35.88,44.21-62,83.65-62,8.02,0,15.79,1.09,23.17,3.13,19.09-42.15,61.52-71.46,110.8-71.46,58.44,0,107.25,41.25,118.92,96.23,.99-.04,1.96-.07,2.95-.07,37.44,0,68.33,28,72.9,64.19,15.27,2.86,27.44,14.55,30.98,29.56Z" style="fill:#e0e8f5; fill-rule:evenodd;"/><path d="M639.53,769.13H285.05c2.54-10.77,12.22-18.78,23.76-18.78,.55,0,1.11,.02,1.66,.06,5.6-13.7,19.06-23.37,34.78-23.37,6.88,0,13.31,1.86,18.86,5.08,6.76-22.29,27.46-38.51,51.96-38.51,4.98,0,9.81,.68,14.39,1.94,11.86-26.18,38.21-44.39,68.82-44.39,36.31,0,66.62,25.63,73.87,59.78,.62-.02,1.22-.04,1.83-.04,23.26,0,42.45,17.39,45.29,39.87,9.49,1.78,17.05,9.04,19.25,18.36Z" style="fill:#e0e8f5; fill-rule:evenodd;"/><path d="M1586.91,672.1h-354.48c2.55-10.77,12.21-18.78,23.76-18.78,.55,0,1.12,.02,1.66,.06,5.59-13.7,19.06-23.36,34.78-23.36,6.88,0,13.32,1.85,18.86,5.08,6.76-22.29,27.46-38.51,51.96-38.51,4.99,0,9.81,.68,14.4,1.94,11.86-26.18,38.21-44.39,68.82-44.39,36.31,0,66.63,25.63,73.87,59.77,.62-.02,1.22-.04,1.84-.04,23.25,0,42.45,17.39,45.28,39.87,9.49,1.78,17.05,9.04,19.25,18.37Z" style="fill:#e0e8f5; fill-rule:evenodd;"/><path d="M1218.11,1432.59c63.72,0,115.67-7.39,115.67-16.45s-51.96-16.44-115.67-16.44-115.67,7.38-115.67,16.44,51.96,16.45,115.67,16.45Z" style="fill:#c4d1eb; fill-rule:evenodd;"/><path d="M433.59,350.43s.69,3.2,.84,4.29c.17,1.29,.38,5.19,.38,5.19,0,0-.09,13.61-1.1,13.58-1.01-.04-3.31-1.21-3.61-2.03-.3-.82-.03-2.69-.34-3.51-.3-.82-1.43-1.6-2.5-1.29-1.07,.35-1.18,4.96-1.18,4.96,0,0-.07,3.74,1.2,5.96,4.41,7.69,5.56,6.63,6.09,7.61,.64,1.21-1.21,19.47-1.21,19.47,0,0-7.25,53.71-7.62,56.59l-.02,.04c1.89,1.37,4.44,1.21,6.6,1.56,7.01,2.14,8.54,.46,15.55,2.14,.49-8.58,1.76-68.8,1.83-74.96,0,0,2.94-7.8,4.63-12.76,1.69-4.95,1.11-10.3,1.37-11.74,.04-.24,.64-5.11-.25-11.24-.76-5.3-2.5,.15-2.5,.15,0,0-.39,10.14-1.18,10.03-.62-.12-.08-5.65-.87-11.5-.19-1.52-.39-3-.58-4.37-.53-3.59-2.91-4.21-2.96-.35-.03,1.37-.02,3.63,.24,5.23,.26,1.75-.07,3.43-.07,4.95-.01,2.96,.03,5.11-.11,5.07-.16-.08-.58,.51-.84-1.06-.32-1.95-.08-6.2-.76-8.97-.39-1.56-1-4.91-1-4.91,0,0-1.89-4.84-2.21-4.8-1.76,.16-1.44,3.86-.63,5.89-.17,1.6,.57,5.11,.57,5.11,0,0-.11,7.45-1.17,7.52-.46,0-.94-4.56-2.13-8.93-1.1-4.06-2.9-7.96-3.75-7.8-1.44,.2-.71,4.88-.71,4.88Z" style="fill:#f9af79; fill-rule:evenodd;"/><path d="M184.14,525.09s2.55,2.26,3.45,2.96c1.06,.78,4.41,2.96,4.41,2.96,0,0,12.11,6.86,12.52,5.96,.41-.89,.4-3.51-.2-4.21-.6-.66-2.34-1.41-2.94-2.07-.6-.7-.81-2.07-.04-2.85,.77-.78,4.91,1.48,4.91,1.48,0,0,3.35,1.88,4.75,4.14,4.86,7.77,3.39,8.23,4.03,9.2,.77,1.17,17.75,8.9,17.75,8.9,0,0,50.78,21.1,53.52,22.27h.04c.37,2.34-.89,4.48-1.54,6.59-1.21,7.26-3.37,7.72-5.02,14.71-7.79-3.94-61.7-33.62-67.19-36.74,0,0-8.21-1.41-13.34-2.41-5.14-1.06-9.6-4.33-11.01-4.84-.21-.08-4.8-2.03-9.85-5.97-4.35-3.35,1.27-2.11,1.27-2.11,0,0,9.13,4.88,9.38,4.1,.18-.59-4.96-2.97-9.81-6.63-1.25-.93-2.47-1.87-3.6-2.77-2.94-2.26-2.43-4.68,1.02-2.77,1.23,.7,3.22,1.87,4.53,2.88,1.42,1.13,3.06,1.72,4.39,2.46,2.64,1.52,4.55,2.65,4.55,2.54,0-.2,.72-.27-.58-1.33-1.54-1.25-5.42-3.2-7.57-5.23-1.23-1.13-3.91-3.39-3.91-3.39,0,0-3.45-4.09-3.28-4.37,.91-1.48,4.04,.7,5.5,2.46,1.5,.66,4.26,3.12,4.26,3.12,0,0,6.66,3.7,7.18,2.77,.22-.39-3.61-3.12-6.95-6.4-3.11-3.04-5.76-6.59-5.27-7.29,.84-1.13,4.63,1.88,4.63,1.88Z" style="fill:#f9af79; fill-rule:evenodd;"/><path d="M1001.35,1076.99c-105.14,0-190.37,19.22-190.37,42.91s85.23,42.91,190.37,42.91,190.38-19.22,190.38-42.91-85.24-42.91-190.38-42.91Z" style="fill:#c4d1eb; fill-rule:evenodd;"/><path d="M1005.41,953.28c105.14,0,190.38,19.21,190.38,42.91s-85.24,42.91-190.38,42.91-190.38-19.21-190.38-42.91,85.23-42.91,190.38-42.91Z" style="fill:#c4d1eb; fill-rule:evenodd;"/><path d="M994.76,837.54c105.14,0,190.38,19.21,190.38,42.91s-85.24,42.91-190.38,42.91-190.38-19.22-190.38-42.91,85.24-42.91,190.38-42.91Z" style="fill:#c4d1eb; fill-rule:evenodd;"/><path d="M1038.42,1019.29c-105.14,0-190.38,19.21-190.38,42.91s85.24,42.91,190.38,42.91,190.38-19.22,190.38-42.91-85.24-42.91-190.38-42.91Z" style="fill:#c4d1eb; fill-rule:evenodd;"/><path d="M968.34,895.57c105.14,0,190.38,19.22,190.38,42.91s-85.24,42.91-190.38,42.91-190.38-19.22-190.38-42.91,85.24-42.91,190.38-42.91Z" style="fill:#c4d1eb; fill-rule:evenodd;"/><path d="M957.7,779.84c105.14,0,190.38,19.21,190.38,42.91s-85.24,42.91-190.38,42.91-190.38-19.21-190.38-42.91,85.24-42.91,190.38-42.91Z" style="fill:#c4d1eb; fill-rule:evenodd;"/><path d="M1001.35,1211.24c-105.14,0-190.37-19.22-190.37-42.91v-48.42c0,23.7,85.23,42.91,190.37,42.91s190.38-19.21,190.38-42.91v48.42c0,23.7-85.24,42.91-190.38,42.91Z" style="fill:#9db2d9; fill-rule:evenodd;"/><path d="M1005.41,1087.52c105.14,0,190.38-19.21,190.38-42.91v-48.42c0,23.7-85.24,42.91-190.38,42.91s-190.38-19.22-190.38-42.91v48.42c0,23.7,85.23,42.91,190.38,42.91Z" style="fill:#9db2d9; fill-rule:evenodd;"/><path d="M994.76,971.79c105.14,0,190.38-19.21,190.38-42.91v-48.42c0,23.7-85.24,42.91-190.38,42.91s-190.38-19.21-190.38-42.91v48.42c0,23.7,85.24,42.91,190.38,42.91Z" style="fill:#9db2d9; fill-rule:evenodd;"/><path d="M1038.42,1153.53c-105.14,0-190.38-19.21-190.38-42.91v-48.42c0,23.7,85.24,42.91,190.38,42.91s190.38-19.21,190.38-42.91v48.42c0,23.7-85.24,42.91-190.38,42.91Z" style="fill:#9db2d9; fill-rule:evenodd;"/><path d="M968.34,1029.81c105.14,0,190.38-19.22,190.38-42.91v-48.42c0,23.7-85.24,42.91-190.38,42.91s-190.37-19.21-190.37-42.91v48.42c0,23.7,85.24,42.91,190.37,42.91Z" style="fill:#9db2d9; fill-rule:evenodd;"/><path d="M957.69,914.08c105.15,0,190.38-19.21,190.38-42.91v-48.42c0,23.7-85.23,42.91-190.38,42.91s-190.37-19.22-190.37-42.91v48.42c0,23.7,85.23,42.91,190.37,42.91Z" style="fill:#9db2d9; fill-rule:evenodd;"/><path d="M879.01,802.15c-4.68,3.9-9.58,9.41-11.05,16.81l-26.04,.53-1.5,11.31,28.01-.57c4.28,12.12,21.99,19.01,46.06,18.51,24.82-.51,38.66-8.74,51.44-20.16,11.24-10.82,19.86-14.8,32.39-15.05,12.29-.25,21.33,3.59,20.23,11.9-.97,7.27-7.27,14.19-13.53,18.81l27.07,2.91c5.99-4.5,11.9-12.11,13.36-19.5l28.02-.57,1.5-11.31-29.98,.61c-3.67-12.94-22.81-20.14-47.87-19.63-25.56,.52-40.15,7.04-54.98,20.93-10.79,9.32-18.33,14.42-29.63,14.65-9.58,.2-19.13-3.52-18.11-11.26,.89-6.69,6.8-12.46,10.94-15.99l-26.33-2.92Z" style="fill:#fff; fill-rule:evenodd;"/><path d="M1459.17,1203.61c105.14,0,190.38,19.22,190.38,42.91s-85.24,42.91-190.38,42.91-190.38-19.22-190.38-42.91,85.23-42.91,190.38-42.91Z" style="fill:#c4d1eb; fill-rule:evenodd;"/><path d="M1455.12,1079.89c-105.14,0-190.38,19.21-190.38,42.91s85.24,42.91,190.38,42.91,190.37-19.21,190.37-42.91-85.23-42.91-190.37-42.91Z" style="fill:#c4d1eb; fill-rule:evenodd;"/><path d="M1465.77,964.16c-105.14,0-190.38,19.21-190.38,42.91s85.24,42.91,190.38,42.91,190.38-19.21,190.38-42.91-85.24-42.91-190.38-42.91Z" style="fill:#c4d1eb; fill-rule:evenodd;"/><path d="M1422.1,1145.91c105.14,0,190.38,19.21,190.38,42.91s-85.24,42.9-190.38,42.9-190.38-19.21-190.38-42.9,85.23-42.91,190.38-42.91Z" style="fill:#c4d1eb; fill-rule:evenodd;"/><path d="M1492.19,1022.18c-105.15,0-190.38,19.22-190.38,42.91s85.23,42.91,190.38,42.91,190.38-19.22,190.38-42.91-85.24-42.91-190.38-42.91Z" style="fill:#c4d1eb; fill-rule:evenodd;"/><path d="M1502.83,906.45c-105.14,0-190.38,19.21-190.38,42.91s85.24,42.91,190.38,42.91,190.38-19.21,190.38-42.91-85.24-42.91-190.38-42.91Z" style="fill:#c4d1eb; fill-rule:evenodd;"/><path d="M1459.17,1337.86c105.15,0,190.38-19.22,190.38-42.91v-48.42c0,23.7-85.24,42.91-190.38,42.91s-190.38-19.21-190.38-42.91v48.42c0,23.7,85.23,42.91,190.38,42.91Z" style="fill:#9db2d9; fill-rule:evenodd;"/><path d="M1455.12,1214.13c-105.14,0-190.38-19.21-190.38-42.91v-48.42c0,23.7,85.24,42.91,190.38,42.91s190.38-19.22,190.38-42.91v48.42c0,23.7-85.23,42.91-190.38,42.91Z" style="fill:#9db2d9; fill-rule:evenodd;"/><path d="M1465.77,1098.4c-105.14,0-190.38-19.22-190.38-42.91v-48.42c0,23.7,85.24,42.91,190.38,42.91s190.38-19.21,190.38-42.91v48.42c0,23.7-85.24,42.91-190.38,42.91Z" style="fill:#9db2d9; fill-rule:evenodd;"/><path d="M1422.1,1280.15c105.14,0,190.38-19.21,190.38-42.91v-48.42c0,23.7-85.24,42.91-190.38,42.91s-190.38-19.21-190.38-42.91v48.42c0,23.7,85.24,42.91,190.38,42.91Z" style="fill:#9db2d9; fill-rule:evenodd;"/><path d="M1492.19,1156.43c-105.15,0-190.38-19.22-190.38-42.91v-48.42c0,23.7,85.23,42.91,190.38,42.91s190.38-19.21,190.38-42.91v48.42c0,23.7-85.24,42.91-190.38,42.91Z" style="fill:#9db2d9; fill-rule:evenodd;"/><path d="M1502.83,1040.69c-105.14,0-190.38-19.21-190.38-42.91v-48.42c0,23.7,85.24,42.91,190.38,42.91s190.38-19.22,190.38-42.91v48.42c0,23.7-85.24,42.91-190.38,42.91Z" style="fill:#9db2d9; fill-rule:evenodd;"/><path d="M1581.51,928.77c4.69,3.9,9.58,9.41,11.06,16.81l26.04,.53,1.5,11.31-28.01-.57c-4.28,12.12-21.99,19.01-46.06,18.51-24.82-.51-38.66-8.73-51.44-20.16-11.24-10.83-19.86-14.8-32.39-15.06-12.29-.25-21.33,3.6-20.23,11.91,.97,7.27,7.27,14.19,13.52,18.81l-27.06,2.91c-5.99-4.5-11.9-12.11-13.36-19.5l-28.02-.58-1.5-11.31,29.98,.61c3.68-12.94,22.81-20.14,47.87-19.63,25.56,.52,40.15,7.04,54.97,20.93,10.79,9.32,18.33,14.42,29.64,14.65,9.58,.2,19.13-3.53,18.11-11.26-.89-6.69-6.8-12.46-10.95-16l26.32-2.92Z" style="fill:#fff; fill-rule:evenodd;"/><path d="M978.4,717.66c-105.14,0-190.38,19.22-190.38,42.91s85.24,42.91,190.38,42.91,190.38-19.22,190.38-42.91-85.24-42.91-190.38-42.91Z" style="fill:#c4d1eb; fill-rule:evenodd;"/><path d="M1482.13,844.28c105.14,0,190.38,19.22,190.38,42.91s-85.24,42.91-190.38,42.91-190.38-19.22-190.38-42.91,85.24-42.91,190.38-42.91Z" style="fill:#c4d1eb; fill-rule:evenodd;"/><path d="M1015.46,659.95c-105.15,0-190.38,19.21-190.38,42.91s85.23,42.91,190.38,42.91,190.38-19.21,190.38-42.91-85.24-42.91-190.38-42.91Z" style="fill:#c4d1eb; fill-rule:evenodd;"/><path d="M1445.06,786.57c105.14,0,190.38,19.21,190.38,42.91s-85.24,42.91-190.38,42.91-190.38-19.21-190.38-42.91,85.24-42.91,190.38-42.91Z" style="fill:#c4d1eb; fill-rule:evenodd;"/><path d="M978.4,851.9c-105.14,0-190.38-19.21-190.38-42.91v-48.42c0,23.7,85.24,42.91,190.38,42.91s190.38-19.22,190.38-42.91v48.42c0,23.7-85.24,42.91-190.38,42.91Z" style="fill:#9db2d9; fill-rule:evenodd;"/><path d="M1482.13,978.52c105.14,0,190.38-19.21,190.38-42.91v-48.42c0,23.7-85.24,42.91-190.38,42.91s-190.38-19.22-190.38-42.91v48.42c0,23.7,85.24,42.91,190.38,42.91Z" style="fill:#9db2d9; fill-rule:evenodd;"/><path d="M1015.46,794.2c-105.15,0-190.38-19.22-190.38-42.91v-48.42c0,23.7,85.23,42.91,190.38,42.91s190.38-19.21,190.38-42.91v48.42c0,23.7-85.24,42.91-190.38,42.91Z" style="fill:#9db2d9; fill-rule:evenodd;"/><path d="M1445.06,920.82c105.14,0,190.38-19.22,190.38-42.91v-48.42c0,23.7-85.24,42.91-190.38,42.91s-190.38-19.21-190.38-42.91v48.42c0,23.7,85.24,42.91,190.38,42.91Z" style="fill:#9db2d9; fill-rule:evenodd;"/><path d="M936.79,682.28c-4.69,3.9-9.58,9.41-11.06,16.8l-26.05,.53-1.5,11.31,28.01-.57c4.27,12.12,21.98,19.01,46.07,18.51,24.82-.51,38.65-8.73,51.44-20.16,11.24-10.82,19.85-14.8,32.38-15.05,12.29-.25,21.33,3.6,20.23,11.91-.97,7.27-7.27,14.19-13.52,18.81l27.06,2.9c5.99-4.5,11.9-12.1,13.38-19.5l28.01-.58,1.5-11.31-29.97,.61c-3.68-12.93-22.81-20.14-47.88-19.62-25.56,.52-40.14,7.04-54.97,20.93-10.8,9.31-18.33,14.42-29.63,14.65-9.59,.2-19.14-3.52-18.11-11.26,.89-6.69,6.8-12.46,10.94-16l-26.32-2.92Z" style="fill:#fff; fill-rule:evenodd;"/><path d="M1366.38,808.89c-4.68,3.89-9.58,9.41-11.05,16.81l-26.05,.53-1.5,11.32,28.01-.57c4.27,12.11,21.98,19.01,46.06,18.51,24.82-.51,38.65-8.73,51.44-20.16,11.24-10.82,19.85-14.8,32.38-15.05,12.29-.25,21.33,3.59,20.23,11.91-.97,7.27-7.27,14.19-13.52,18.81l27.06,2.9c5.98-4.5,11.9-12.1,13.37-19.5l28.01-.58,1.5-11.31-29.98,.62c-3.68-12.94-22.81-20.15-47.87-19.63-25.56,.52-40.14,7.04-54.97,20.93-10.8,9.31-18.33,14.42-29.63,14.65-9.58,.2-19.14-3.52-18.11-11.26,.89-6.7,6.8-12.46,10.95-15.99l-26.32-2.92Z" style="fill:#fff; fill-rule:evenodd;"/><path d="M1234.02,1162.17c-2.73,2.39-5.71,3.37-9.19,2.64,3.26,2.48,7.79,.58,9.19-2.64Z" style="fill:#f48661; fill-rule:evenodd;"/><path d="M1221.73,1398.66c.52-3.68-.64-10.02-3.52-19.93,5.7,.01,10.51-2.52,16.35-2.43,1.59,9.33,4.07,24.63,4.07,24.63l.26,12.11-40.66,.3s.35,.18,12.33-7.4c.88-.56,10.67-3.72,11.16-7.28Z" style="fill:#f9af79; fill-rule:evenodd;"/><path d="M1239.09,1416.14h-41.96c-1.55-.14-1.93-1.41-1.39-2.18,1.11-1.62,9.3-5.46,14.8-8.03,9.65,1.01,26.61-2.96,28.14-5.19,2.64,7.4,1.27,15.2,.41,15.39Z" style="fill:#0e2952; fill-rule:evenodd;"/><path d="M1272.37,1398.66c.52-3.68,1.39-8.3,.11-20.59,5.73,.02,11.16-1.06,16.99-.97,0,9.59-.2,23.83-.2,23.83l.26,12.11-40.65,.3s.34,.18,12.32-7.4c.89-.56,10.68-3.72,11.17-7.28Z" style="fill:#f9af79; fill-rule:evenodd;"/><path d="M1289.72,1416.14h-41.96c-1.55-.14-1.93-1.41-1.39-2.18,1.11-1.62,9.3-5.46,14.8-8.03,9.65,1.01,26.6-2.96,28.12-5.19,2.66,7.4,1.29,15.2,.43,15.39Z" style="fill:#0e2952; fill-rule:evenodd;"/><path d="M1242.84,1047.65l-15.3-16.12s-16.36,9-35.44,17.6c-5.25-9.13-13.8-39.16-14.26-40.59-.46-1.44,10.02-19.47,7.68-19.93-2.34-.45-5.39,9.63-7.88,8.61-2.47-1.02-8.85-24.41-10.34-23.14-2.79,2.39,3.36,14.55,1.89,15.43-1.47,.89-5.2-13.47-8.04-12.87-2.85,.61,4.79,13.08,3.96,14.28-.85,1.19-8.84-10.5-10.49-7.79-.89,1.46,7.37,10.18,5.67,11.16-1.7,.97-9.15-4.52-10.03-2.74-.89,1.78,6.95,3.63,9.13,8.13,2.17,4.49,6.13,6.25,7.45,14.76,1.31,8.49,4.9,53.96,14.16,57.62,8.1,3.19,61.85-24.42,61.85-24.42Z" style="fill:#f9af79; fill-rule:evenodd;"/><path d="M1232.95,1134.66l12.4,6.92,25.2,38.53-45.06,106.09s5.08,15.96,6.73,23.93c1.73,8.34,5.97,79.91,5.97,79.91l-19.23,.33s-18.26-76.2-21.36-100.94c-3.75-30.04,19.12-101.56,19.12-101.56,4.26-14.59,13.45-44.62,13.45-44.62,0,0,2.25-7.32,2.78-8.6Z" style="fill:#20386f; fill-rule:evenodd;"/><path d="M1276.11,1120.18s-1.28,9.06,3.85,19.41c3.12,6.3,8.53,11.25,12.4,18.96,7.32,14.62,11.29,35.37,8.55,48.71,0,0-15.13,57.77-14.54,78.88,.22,7.79,2.89,21.82,4.6,31.3,1.52,8.38,2.03,71.62,2.03,71.62l-21.48-.64-16.44-102.01-6.95-90.68-15.17-61.08,43.16-14.47Z" style="fill:#223f81; fill-rule:evenodd;"/><path d="M1230.64,987.06c1.9-8.96,3.86-17.96,12.77-24.41,7.21-5.22,14.95-6.72,23.16-3.75,23.28,8.44,10.76,26.91,39.65,46.6,8.97,6.12,12.38,8.25,18.82,16.41,9.02,11.4,13.94,26.71,9.41,39.32-9.37,26.05-38.41,33.58-53.59,28.06-28.28-10.28-51.83-46.14-53.4-55.93-1.67-10.47,1.96-40.52,3.19-46.29Z" style="fill:#20386f; fill-rule:evenodd;"/><path d="M1226.13,1057.79c-6.84,3.16-19.24,7.91-19.24,7.91l-7.05-22.3c39.85-22.68,36.72-19.01,66.62-18.57,23.9,.34,33.92-4.23,54.49,51.32,0,0-15.67,7.04-21.27,9.3-2.42-6.87-6.77-20.56-9.31-12.75-3.85,11.79-6.66,23.7-8.54,35.96-1.2,7.26-3.8,16.57-2.43,23.96,0,0-16.27,3.35-28.7,3.9h-.11c-6-.16-12.15-.69-17.63-1.87,0,0-2.44-51.52-3.73-53.67-1.45-2.37-7.54-10.07-2.37-21.57,.93-2.03,.68-2.27-.73-1.62Z" style="fill:#6d96ce; fill-rule:evenodd;"/><path d="M1256.04,1147.22c-.28,.04-1.55-.13-2.59-.11-1.44,.03-2.69,.24-2.69,.24,0,0-.56-.49-1.64-.98-.45-.21-1.18-.29-1.68-.52-.52-.24-.96-.68-1.44-.89-1.27-.55-2.44-.68-2.82-.01-.32,.55,6.74,4.86,6.74,4.86,6.54,.04,13.38,3.38,28.54-6.5,8.65-3.78,50.67-24.54,51.52-29.06,.47-2.55-5.98-22.2-11.25-37.11-4.06,1.82-12.7,5.66-17.53,7.69,4.44,9.4,9.67,21.86,9.12,23.38-.14,.4-.67,1.12-29.07,19.71-.72,.46-1.46,.95-2.19,1.44-2.01,1.3-4.15,2.7-6.42,4.18l-8.09-.85s-12.84,.89-13.23,2.35c-.16,.67,.91,1,2.21,1.2h.04c.19,.02,.39,.05,.58,.07h.02c1.42,.17,2.89,.2,3.26,.32,.4,.14,1.23,.46,1.94,.95-8.01,3.27-7.4,2.1-10.04,1.94-.67-.05-1.38,.15-2.01,.09-1.07-.09-1.93-.74-2.76-.79-1.21-.07-2.21,.5-2.42,.73-.29,.28,.24,.7,1.27,1.16,6.17,2.68,11.29,1.65,12.94,2.05,1.1,.26-.91,.68-4.06,.34-.77-.08-1.81,.21-2.84-.04-.7-.16-1.33-.6-2-.76-.63-.16-1.27-.15-1.8-.25-.69-.13-1.65-.66-2.2-.72-2.05-.23-3.04,.13-3.28,.31-.47,.43,8.85,4,8.85,4,0,0,6.42,.92,7.86,.92,0,0,.86,.4-.82,.65Z" style="fill:#f9af79; fill-rule:evenodd;"/><path d="M1263.53,1002.85s1.83,14.72,2.89,19.82c1.12,5.34,2.81,22.19-8.27,24.92-11.08,2.73-7.65-18.31-7.84-23.75-.17-5.44-3.32-24.38-3.32-24.38l16.53,3.4Z" style="fill:#f9af79; fill-rule:evenodd;"/><path d="M1264.13,1007.54c-.11,.07-.22,.14-.34,.21-6.12,3.5-11.45,2.96-15.45,.22-.72-4.71-1.35-8.53-1.35-8.53l16.53,3.4s.24,1.96,.6,4.7Z" style="fill:#f27458; fill-rule:evenodd;"/><path d="M1260.2,964.53s6.49,1.82,10.24,8.28c3.74,6.44,5.61,24.97-8.18,32.88-13.78,7.9-23.57-4.76-23.15-16.61,.41-11.85,3.71-27.52,21.09-24.55Z" style="fill:#f9af79; fill-rule:evenodd;"/><path d="M1236.06,983.99c-.15,3.07,1.17,5.65,2.95,5.74,1.77,.09,3.35-2.33,3.5-5.41,.16-3.07-1.16-5.65-2.94-5.74-1.79-.09-3.35,2.34-3.51,5.41Z" style="fill:#f9af79; fill-rule:evenodd;"/><path d="M1258.24,964.05s7.44,19.38,14.71,21.44c7.27,2.06,6.69,11.59,6.69,11.59,0,0,.94-22.02-5.72-27.43-6.65-5.39-15.68-5.6-15.68-5.6Z" style="fill:#20386f; fill-rule:evenodd;"/><path d="M1269.82,989.28c-1.12,3.03-.38,6.11,1.65,6.87,2.02,.76,4.58-1.07,5.7-4.1,1.13-3.03,.39-6.11-1.64-6.87-2.02-.76-4.58,1.07-5.71,4.1Z" style="fill:#f9af79; fill-rule:evenodd;"/><path d="M1502.21,437.31c4.35,2.51,5.69,6.63,8.64,8.17,8.55,.81,16.98,1.46,20.99,4.25,15.7,18.97,28.38,35.75,38.04,50.33,3.91,8.07,3.13,15.87-2.36,23.4-6.72-6.21-14.02-7.79-21.88-4.71,.26-3.29,1.5-6.71,3.7-10.27-11.3-9.91-20.55-19-27.78-27.27,1.34,10.85-2.59,26.28-11.78,46.29-31.99,2.08-50.34,1.57-55.05-1.52-1.55-8.95-2.79-18.72-3.7-29.29-7.34,6.57-13.29,12.41-17.84,17.51-3.46,1.14-7.15,1.36-11.11,.68-2.79-6.57-5.6-12.51-8.42-17.84,1.94-1.75,5.31-3.15,10.1-4.21,13.06-18.63,24.34-33.66,33.83-45.11,7.37-1.72,12.87-2.62,16.5-2.69,1.55-1.84,3.86-3.41,6.9-4.71-1.77,9.78-2.45,21.5-2.36,29.79,13.97-10.24,21.83-23.61,23.57-32.79Z" style="fill:#6d96ce; fill-rule:evenodd;"/><path d="M1525.94,611.41c6.63-41.09,1.25-69.06-16.14-83.92-27.01,1.76-44.3,1.67-51.86-.26-.08,2.9-.27,6.3-.88,10.78-4.71,34.64-10.33,88.41-9.57,141.23,19.07,6.7,48.91,6.42,89.56-.84-4.64-20.55-8.35-42.88-11.11-67Z" style="fill:#20386f; fill-rule:evenodd;"/><path d="M1474.1,445.02c-1.64,4.82-2.52,8.81-2.63,11.95,1.88-1.5,3.27-2.52,4.16-3.07,.69,7.74,1.69,13.14,3.01,16.21-.09-8.29,.58-20.01,2.36-29.79-3.04,1.3-5.35,2.87-6.9,4.71Z" style="fill:#466fb5; fill-rule:evenodd;"/><path d="M1502.21,437.31c-1.74,9.18-9.6,22.54-23.57,32.79,8.35-2.96,17.47-10.22,22.7-19.87,.87,3.26,1.96,7.08,3.29,11.45,3.63-4.5,5.71-9.9,6.22-16.2-2.95-1.53-4.29-5.66-8.64-8.17Z" style="fill:#466fb5; fill-rule:evenodd;"/><path d="M1546.61,518.39c-5.58,11.38-12.1,22.74-18.59,31.77-1.49-1.6-2.93-5.06-5.04-6.38-.83-.53-2.18,.83-3.06,.41-4.26-2-8.98-2.58-12.8,.27-.96,.72-1.46,2.12-1.61,5.45,.16,4.56,3.99,5.44,9.3,3.28,7.12,7.76,11.85,10.29,15.73,7.57,17.57-15.76,29.2-28.84,34.88-39.21-5.85-4.45-12.13-5.51-18.82-3.17Z" style="fill:#f9af79; fill-rule:evenodd;"/><path d="M1365.48,516.44c26.32,.88,45.12,.18,56.39-2.09-2.72-6.36-5.45-12.14-8.2-17.33-20.98,3.12-38.95,5.41-53.9,6.87-5.38-3.68-9.87-5.2-13.47-4.55-.99,2.27,.07,3.92,3.2,4.97,.84,1.18,1.18,2.27,1.01,3.29-7.78,3.32-14.63,5.37-20.54,6.14-.7,7.01,3.63,11.47,12.99,13.38,9.54-2.47,17.05-6.03,22.52-10.68Z" style="fill:#f9af79; fill-rule:evenodd;"/><path d="M1528.68,794.32c-4.9,18.3-3.25,28.05,6,29.39,12.28,.89,15.6-11.24,10.79-36.24,.11,1.36,.19,2.62,.24,3.75,1.36,26.17-18.95,20.32-17.54,8.26,.2-1.68,.36-3.4,.51-5.16Z" style="fill:#0e2952; fill-rule:evenodd;"/><path d="M1528.17,799.48c-1.41,12.05,18.9,17.91,17.54-8.26-.05-1.13-.14-2.39-.24-3.75-.83-10.67-3.08-27.74-2.92-38.51,.43-27.5-2.01-50.92-7.33-70.23-9.85,1.72-19.05,3.03-27.61,3.92,4.63,16.07,8.64,30.77,12.04,44.11,4.17,16.38,11.95,40.61,10,57.24-.42,3.57-.68,7.01-.97,10.32-.15,1.76-.31,3.48-.51,5.16Z" style="fill:#f9af79; fill-rule:evenodd;"/><path d="M1446.97,802.64c7.08,.38,.61,5.89,5.22,7.13,10.08-5.52,15.67-20.54,19.69-27.18,2.12-3.49,3.66,.95,4.7,5.92,2.24,10.68,2.18,24.77-.36,29.16-1.85-3.21-3.43-13.1-5.11-19.14-9.89,8.8-7.73,18.5-13.6,21.81-14.07,1.56-21.68,1.94-32.37,2.18-2.34-9.08,16.24-6.02,21.83-19.88Z" style="fill:#0e2952; fill-rule:evenodd;"/><path d="M1452.22,680.71c1.34,52.79,6.21,99.84-2.59,122.59,2.45,1.58-1.21,5.46,2.57,6.48,10.08-5.52,15.67-20.54,19.69-27.18,.02-.04,.05-.07,.07-.11-.56-1.41-.97-3.02-1.21-4.84,.18-43.79,11.12-70.79,9.01-93.6-10.66-.15-19.83-1.27-27.53-3.34Z" style="fill:#f9af79; fill-rule:evenodd;"/><path d="M1432.25,514.48c-3.54-6.73-7.08-13.78-10.63-21.14-3.66,.98-6.31,2.21-7.95,3.68,2.75,5.19,5.48,10.97,8.2,17.33,.07,.17,.15,.34,.22,.52,3.6,.62,6.98,.5,10.16-.39Z" style="fill:#466fb5; fill-rule:evenodd;"/><path d="M1547.75,511.4c-1.2,2.52-1.9,4.97-2.09,7.34,.32-.12,.63-.24,.95-.35,6.69-2.34,12.96-1.28,18.82,3.17-.01,.03-.02,.05-.04,.07,.72,.55,1.44,1.16,2.15,1.82,2.01-2.75,3.39-5.55,4.14-8.37-8.93-5.2-16.91-6.42-23.92-3.68Z" style="fill:#466fb5; fill-rule:evenodd;"/><path d="M1480.79,434.58c.9,3.36,.8,6.24-.27,8.6-1.42,9.13-1.96,19.42-1.87,26.91,13.34-9.77,21.1-22.4,23.3-31.51-1.77-2.85-2.49-6.18-2.17-9.97-.33-1.78,.68-5.09,3.03-9.94,7.99-1.38,9.97-8.08,6.65-13.41-3.73-1.32-5.74,1.73-6.73,7.26-2.12-.31-1.31-3.71-1.09-5.3,.99-4.61,.16-7.09-1.52-11.45-9.58,6.74-17.8,6.95-30.88,3.15,.38,3.14,.66,6.17,.84,9.09-3.59,8.73,1.9,23.59,10.73,26.55Z" style="fill:#f9af79; fill-rule:evenodd;"/><path d="M1469.22,398.94c13.08,3.8,21.3,3.59,30.88-3.15,1.68,4.36,2.51,6.85,1.52,11.45-.22,1.59-1.04,4.99,1.09,5.3,.99-5.53,3-8.58,6.73-7.26,3.32,5.32,1.34,12.02-6.65,13.41-2.35,4.84-3.35,8.16-3.03,9.94-.32,3.8,.4,7.13,2.17,9.97,.11-.43,.19-.86,.27-1.28,4.35,2.51,5.69,6.63,8.64,8.17,8.55,.81,16.98,1.46,20.99,4.25,1.16,1.39,2.3,2.79,3.43,4.16,2.73-6.41,4.17-11.11,3.69-13.2-1.84-7.95-10.22-3.96-10.07-8.67,.22-7.33-10.13-13.08-8.76-20.4,2.82-14.97-3.02-19.51-3.06-20.65-.35-11.34-7.14-11.63-13.89-15.46-11.99-6.79-22.41,1.52-25.81,1.73-17.33,1.14-7.73,8.58-15.49,15.29-6.39,5.53-3.37,9.72-2.71,13.04,.3,1.5,1.68,7.66-2.74,10.78-6.49,4.57-.55,14.16-4.38,15.32-14.72,4.46-8.09,8.91-7.69,19.2,.13,3.29,1.68,6.24,3.75,8.66,3.33-4.29,6.49-8.24,9.46-11.83,7.37-1.72,12.87-2.62,16.5-2.69,1.55-1.84,3.86-3.41,6.9-4.71-.17,.94-.33,1.91-.49,2.88,1.08-2.37,1.17-5.24,.27-8.6-8.83-2.96-14.32-17.82-10.73-26.55-.18-2.92-.46-5.95-.84-9.09Z" style="fill:#20386f; fill-rule:evenodd;"/><path d="M1480.79,434.58c5.35,.6,7.78,.56,12.72-1.41-2.89,3.13-6.93,4.85-12.12,5.15-.05-1.17-.25-2.41-.6-3.74Z" style="fill:#ed7d57; fill-rule:evenodd;"/><path d="M845.85,425.68c7.59-.36,7.35,.93,8.33,.83,1.14-.07,13.41-9.41,13.41-9.41,0,0,36.3-27.25,38.2-28.78l22.65-41.09,23.61,5.46s-25.84,44.02-27.59,46.1c-1.73,2.04-55.11,33.18-59.73,36.09,0,0-4.23,5.48-6.98,8.83-2.77,3.35-6.88,5.29-7.81,6.12-.13,.1-3.37,2.69-8.2,4.76-4.16,1.83-1.06-1.77-1.06-1.77,0,0,7.11-4.75,6.64-5.23-.36-.4-4.09,2.42-8.67,4.47-1.18,.53-2.34,1.02-3.41,1.48-2.82,1.22-4.39-.13-1.64-1.9,.97-.62,2.61-1.58,3.87-2.12,1.38-.6,2.45-1.58,3.52-2.23,2.13-1.32,3.7-2.27,3.6-2.31-.14-.06,.11-.63-1.16-.1-1.53,.61-4.46,2.66-6.79,3.41-1.31,.43-3.99,1.47-3.99,1.47,0,0-4.55,1.23-4.68,.98-.73-1.27,2.28-3.08,4.12-3.4,1.08-.85,3.93-1.86,3.93-1.86,0,0,5.31-3.37,4.85-4.13-.38-.64-14.66,4.97-15.31,3.65-.52-1.1,3.7-2.99,3.7-2.99,0,0,2.64-.94,3.5-1.32,1-.45,3.9-2.03,3.9-2.03,0,0,9.81-5.9,9.31-6.59-.49-.69-2.49-1.91-3.22-1.74-.74,.15-1.94,1.16-2.66,1.28-.74,.16-1.84-.27-2.1-1.14-.25-.91,3.01-3.01,3.01-3.01,0,0,2.65-1.69,4.85-1.77Z" style="fill:#f9af79; fill-rule:evenodd;"/><path d="M1057.87,658.48s5.1,4.97,5.22,6.79c.12,1.83,.44,21.36-1.63,23.18-2.09,1.82-8.2,3.14-6.24,5.18,1.48,1.53,12.92,1.2,20.51,.8,2.21-.15,4.99-17.74,5.86-20.34,1.27-3.76,5.86-11.97,4.7-14.56-.57-1.28-4.75-4.2-8.56-6.65-3.99-2.59-7.82-8.32-7.82-8.32l-12.04,13.91Z" style="fill:#f9af79; fill-rule:evenodd;"/><path d="M989.61,670.68l4.58,12.92c.34,2.04,1.67,7.08,1.67,8.95,0,6.97-31.47-5.92-24.42-9.02,.64-.3,2.64-2.52,2.85-4.89,.33-3.66-2.65-8.22-2.65-8.22l17.97,.26Z" style="fill:#f9af79; fill-rule:evenodd;"/><path d="M946.17,426.23l-11.4,29.06s-7.43,69.37-3.11,110.88c1.82,17.38,41.01,110.33,41.01,110.33l19.48-2.74-26.08-110.07,9.6-42.09,13.58-83.24-43.07-12.12Z" style="fill:#20386f; fill-rule:evenodd;"/><path d="M999.86,427.72l9.78,32.35,14.86,97.69,50.29,91.38s-7.55,11.47-15.68,13.25l-71.38-92.37-38.69-115.62,1.36-25.7,49.45-.99Z" style="fill:#223f81; fill-rule:evenodd;"/><path d="M919.44,358.69l24.29,13.52s10.4-20.31,14.8-30.24c5.35-12.04,10.77-27.95,9.17-28.24-4.51-.82-10.6-.97-15.87,2.1-18.25,10.68-32.4,42.87-32.4,42.87Z" style="fill:#466fb5; fill-rule:evenodd;"/><path d="M1077.49,652.76s-10.75,32.42-15.35,34.02c-1.23,.41-8.09,2.12-9.2,4.71l-.08,.26c-.35,1.64,1.05,3.14,2.75,3.14h21.84s3.1-14.56,4.33-20.96c0,0,6.48-15.66,5.76-17.05-.72-1.42-10.05-4.12-10.05-4.12Z" style="fill:#0e2952; fill-rule:evenodd;"/><path d="M997.65,694.85l-3.6-11.39s-7.56,3.21-11.35,2.66c-3.79-.51-11.18-2.66-11.18-2.66-15.11,4.97-27.48,7.37-25.23,11.39h51.37Z" style="fill:#0e2952; fill-rule:evenodd;"/><path d="M855.01,432.61c-3.16,1.23-6.15,1.18-9.03-.54,2.16,3.16,6.81,2.89,9.03,.54Z" style="fill:#f48661; fill-rule:evenodd;"/><path d="M996.33,309.04c29.24,4,34.25,28.08,25.87,53.59-7.84,23.85-17.09,54.11-16.45,62.32,1.09,14.09,4.17,34.97,4.17,34.97,0,0-54.89,3.43-75.53-4.6,0,0,6.9-31.98,6.9-40.35s3.67-92.18,6.26-96.56c2.61-4.38,7.85-6.86,17.81-9.02,9.96-2.15,30.97-.36,30.97-.36Z" style="fill:#6d96ce; fill-rule:evenodd;"/><path d="M992.32,286.44l3.63,23.44c.29-.05-15.6,21.96-23.75,19.59-6.65-2.04-.01-20.79-.01-20.79,0,0,3.63-13.29,2.55-19.94-1.1-6.61,17.59-2.3,17.59-2.3Z" style="fill:#f9af79; fill-rule:evenodd;"/><path d="M974.73,288.74c-1.1-6.61,17.59-2.3,17.59-2.3l.29,1.93c-.55,1.32-1.21,2.45-2.03,3.29-4.16,4.38-10.69,7.05-16.32,7.23,.55-3.57,.91-7.41,.46-10.15Z" style="fill:#f48661; fill-rule:evenodd;"/><path d="M995.37,253.29c.53-.18,4.23,26.68-2.79,34.1-7.03,7.37-20.72,9.82-25.63,3.98-2.42-2.87-7.27-10.96-3.87-20.07,3.46-9.24,3.59-18.68,9.64-22.9,10.91-7.59,22.65,4.9,22.65,4.9Z" style="fill:#f9af79; fill-rule:evenodd;"/><path d="M996.58,245.53c16.14,1.84,26.11,28.46,9.79,40.76-7.72,5.84-12.7,8.91-12.7,8.91l-1.23-3.54c-.9-2.63-1.27-5.44-.97-8.21,.18-1.64,.55-3.43,1.26-4.93,1.85-3.87-3.98-6.46-5.63-9.71-1.25-2.48-1.31-8.21-3.3-12.31l-2.37-3.17s-5.47-4.16-10.82-2.96c12.86-1.38,16.12-9.45,25.96-4.84Z" style="fill:#20386f; fill-rule:evenodd;"/><path d="M987.47,273.59c-.05,3.29,1.47,5.99,3.4,5.99,1.93,.03,3.56-2.59,3.6-5.88,.05-3.29-1.46-5.95-3.4-5.99-1.94-.03-3.55,2.59-3.6,5.88Z" style="fill:#f9af79; fill-rule:evenodd;"/><path d="M942.71,379.17c-5.61,28.67-6.07,54.16-7.93,76.11,14.11,5.01,39.16,6.55,75.14,4.64-1.24-32.15,1.95-61.82,9.58-89-6.06,17.07-11.66,28.33-16.8,33.82-18.84-2.49-26.6-16.64-23.3-42.45,2.65-13.04,12.38-29.65,29.19-49.85-1.76-.83-3.95-1.6-6.57-2.3-24.91,44.74-50.65,28-34.85-1.07-5.05,.98-8.93,2.04-11.65,3.19-6.45,18.96-10.72,41.27-12.8,66.91Z" style="fill:#223f81; fill-rule:evenodd;"/><path d="M1017.22,269.39c4.6,2.77,11,7.1,19.21,12.99-18.2-6.31-41.23-16.13-68.32-28.93,0-13.62,14.63-19.87,28.96-15.32,15.14,4.93,21.86,15.35,20.15,31.26Z" style="fill:#6d96ce; fill-rule:evenodd;"/><rect x="165.22" y="424.66" width="38.34" height="110.98" transform="translate(-308.76 334.03) rotate(-52.49)" style="fill:#b0c2e4;"/><path d="M165.84,414.85c-3.41-6.54-3.4-13.81,1.88-20.69l1.65-2.14c44.69-60.37,5.16-117.24,51.51-186.38,3.47-5.19,7.23-9.99,11.22-14.4,46.56-43.68,119.82-40.78,173.19,.19,60.82,46.69,80.57,131.09,29.24,189.89-53.1,60.84-115.41,38.75-160.76,95.78-4.8,6.25-17.03,8.34-22.34,3.45l-85.6-65.71Z" style="fill:#c4d1eb; fill-rule:evenodd;"/><path d="M214.51,538.61c-5.79,6.19-15.53,7.08-22.37,1.83l-10.15-7.8-8.9,3.42c-5.12,1.97-6.64,1.19-11-2.15l-23.87-18.32c-4.35-3.34-5.5-4.58-4.92-10.07l1-9.48-10.16-7.8c-6.76-5.19-8.44-14.64-4.18-21.81l3.56-4.64c1.52-1.24,3.76-1.32,5.38-.08l87.62,67.27c1.63,1.25,2.12,3.45,1.3,5.25-.08,.16-.39,.38-.35,.5l-2.97,3.86h0Zm-66.36-99.39c-2.57-1.97-6.29-1.48-8.26,1.09l-5.57,7.26c-1.97,2.57-1.49,6.29,1.09,8.26l85.15,65.36c2.58,1.98,6.29,1.49,8.27-1.08l5.57-7.25c1.98-2.58,1.49-6.3-1.09-8.27l-85.15-65.36h0Zm18.52-23.73c-2.68-2.06-6.55-1.54-8.6,1.13l-5.79,7.55c-2.05,2.68-1.55,6.55,1.13,8.6l84.77,65.07c2.68,2.06,6.55,1.55,8.6-1.14l5.79-7.55c2.05-2.68,1.55-6.55-1.13-8.6l-84.77-65.07Z" style="fill:#9db2d9; fill-rule:evenodd;"/><path d="M195.6,437.7l74.69-115.96-13.06-10.02c-5.64-4.33-9-10.57-9.86-17.13h.02c-.86-6.58,.76-13.47,5.08-19.1,4.33-5.64,10.57-9,17.13-9.86,6.56-.86,13.46,.77,19.1,5.1,5.57,4.27,8.69,10.21,9.52,16.57,.85,6.46-.7,13.33-4.48,19.24l-7.95,12.47,39.96,30.67,9.99-10.9c4.73-5.17,10.98-8.44,17.44-9.29,6.35-.83,12.9,.64,18.46,4.91,5.62,4.32,8.97,10.56,9.84,17.13h.02c.86,6.56-.77,13.45-5.1,19.09-4.33,5.64-10.57,9-17.13,9.86-6.56,.86-13.45-.77-19.09-5.1l-13.06-10.03-92.72,102.12-9.19-7.06,92.67-102.15-38.35-29.44-74.73,115.93-9.2-7.06h0Zm80.95-125.78l7.41-11.62c2.29-3.6,3.25-7.7,2.75-11.49-.45-3.41-2.12-6.6-5.08-8.87-3.1-2.38-6.9-3.27-10.52-2.8-3.62,.48-7.06,2.32-9.44,5.42-2.39,3.11-3.29,6.9-2.82,10.5l.02,.02c.48,3.62,2.32,7.06,5.42,9.44l12.26,9.41h0Zm58.43,44.85l12.26,9.41c3.1,2.38,6.9,3.27,10.52,2.79,3.62-.48,7.05-2.32,9.44-5.42,2.38-3.1,3.27-6.9,2.8-10.52v-.02c-.46-3.6-2.31-7.03-5.42-9.41-2.97-2.28-6.47-3.06-9.89-2.61-3.8,.5-7.52,2.48-10.39,5.62l-9.31,10.16Z" style="fill:#fff; fill-rule:evenodd;"/><path d="M415.99,260.51c-1.98-3.47-.76-7.89,2.71-9.87,3.47-1.98,7.9-.76,9.87,2.71,1.61,2.84,3.04,5.66,4.29,8.43,1.29,2.86,2.45,5.79,3.47,8.76,1.3,3.79-.71,7.91-4.5,9.22-3.78,1.3-7.91-.72-9.21-4.5-.87-2.54-1.87-5.05-2.98-7.53-1.14-2.54-2.36-4.95-3.64-7.22h0Zm11.21,37.77c-.25-4,2.8-7.45,6.8-7.7,4-.24,7.45,2.8,7.7,6.8,.72,11.66-.61,23.45-4.05,34.81-3.33,10.97-8.62,21.47-15.93,31-2.44,3.18-7.01,3.78-10.19,1.34-3.18-2.44-3.78-7-1.34-10.19,6.26-8.16,10.77-17.09,13.58-26.35,2.92-9.64,4.04-19.7,3.43-29.71Z" style="fill:#fff; fill-rule:evenodd;"/><rect x="819.01" y="414.69" width="100.73" height="34.8" transform="translate(-96.81 337.28) rotate(-20.82)" style="fill:#b0c2e4;"/><path d="M810.09,415.3c-6.68-.49-12.29-3.95-15.09-11.31l-.87-2.3c-25.34-63.28-88.11-59.84-119.44-128.59-2.35-5.16-4.27-10.34-5.77-15.52-11.56-56.79,25.58-112,82.66-133.7,65.04-24.74,139.65,.22,160.63,67.89,21.69,70.01-25.05,107.62-2.6,169.82,2.55,6.69-1.67,17.12-7.97,18.9l-91.55,34.82Z" style="fill:#c4d1eb; fill-rule:evenodd;"/><path d="M928.88,436.67c2.02,7.43-1.93,15.37-9.24,18.16l-10.86,4.13-1.59,8.51c-.92,4.89-2.25,5.69-6.9,7.47l-25.52,9.7c-4.66,1.77-6.17,2.06-10.12-1l-6.85-5.29-10.86,4.13c-7.22,2.75-15.33-.45-18.83-7.16l-1.89-4.96c-.23-1.76,.77-3.53,2.5-4.19l93.71-35.64c1.74-.66,3.68,0,4.67,1.5,.09,.13,.12,.48,.22,.51l1.57,4.13h0Zm-108.4,3.9c-2.75,1.05-4.14,4.16-3.1,6.9l2.95,7.75c1.05,2.76,4.15,4.15,6.9,3.11l91.06-34.64c2.75-1.05,4.15-4.15,3.1-6.9l-2.95-7.76c-1.05-2.75-4.15-4.15-6.91-3.1l-91.06,34.63h0Zm-9.51-25.61c-2.86,1.09-4.31,4.32-3.22,7.19l3.07,8.07c1.09,2.86,4.32,4.32,7.18,3.23l90.65-34.48c2.86-1.09,4.32-4.32,3.23-7.18l-3.07-8.07c-1.09-2.86-4.32-4.32-7.18-3.23l-90.66,34.48Z" style="fill:#9db2d9; fill-rule:evenodd;"/><path d="M841.92,403.2l-53.99-112.95-13.97,5.31c-6.04,2.29-12.45,1.91-17.93-.54v-.02c-5.48-2.47-10.03-7.01-12.32-13.02-2.29-6.03-1.91-12.46,.54-17.93,2.46-5.48,7-10.03,13.04-12.33,5.95-2.26,12.03-1.84,17.34,.54,5.39,2.42,9.97,6.9,12.73,12.63l5.84,12.08,42.73-16.25-3.66-12.92c-1.74-6.11-1.29-12.5,1.13-17.9,2.38-5.31,6.64-9.66,12.59-11.92,6.01-2.29,12.43-1.91,17.93,.56v-.02c5.48,2.46,10.03,7,12.33,13.04,2.29,6.03,1.91,12.45-.55,17.93-2.46,5.48-7,10.03-13.03,12.32l-13.97,5.31,34.71,120.28-9.84,3.74-34.76-120.26-41.01,15.6,53.95,112.96-9.83,3.74h0Zm-58.59-122.47l-5.45-11.26c-1.68-3.49-4.4-6.18-7.56-7.6-2.85-1.28-6.11-1.51-9.28-.3-3.31,1.26-5.82,3.77-7.17,6.79-1.36,3.02-1.57,6.56-.31,9.87,1.27,3.33,3.77,5.83,6.77,7.18h.02c3.02,1.35,6.56,1.56,9.87,.3l13.11-4.99h0Zm62.48-23.77l13.11-4.99c3.32-1.26,5.81-3.77,7.17-6.79,1.35-3.02,1.56-6.55,.31-9.87-1.26-3.31-3.77-5.82-6.79-7.17v-.02c-3.01-1.35-6.54-1.56-9.87-.29-3.17,1.2-5.45,3.54-6.73,6.39-1.42,3.17-1.66,6.99-.61,10.71l3.42,12.03Z" style="fill:#fff; fill-rule:evenodd;"/><path d="M810.05,148.52c-3.62-.13-6.46-3.17-6.33-6.79,.13-3.63,3.17-6.47,6.8-6.34,2.96,.12,5.82,.35,8.55,.71,2.83,.37,5.64,.87,8.43,1.5,3.54,.8,5.77,4.32,4.97,7.87-.8,3.54-4.32,5.77-7.87,4.98-2.37-.53-4.79-.97-7.24-1.28-2.51-.33-4.96-.54-7.32-.63h0Zm34.51,9.34c-3.21-1.72-4.42-5.72-2.7-8.92,1.72-3.21,5.71-4.43,8.92-2.7,9.35,5,17.83,11.64,24.96,19.71,6.89,7.8,12.49,16.88,16.36,27.08,1.3,3.4-.42,7.22-3.82,8.51-3.4,1.29-7.22-.42-8.51-3.82-3.32-8.72-8.07-16.46-13.89-23.05-6.05-6.85-13.3-12.51-21.32-16.8Z" style="fill:#fff; fill-rule:evenodd;"/><path d="M276.33,1141.55c-105.14,0-190.37,19.22-190.37,42.91s85.23,42.91,190.37,42.91,190.38-19.22,190.38-42.91-85.24-42.91-190.38-42.91Z" style="fill:#c4d1eb; fill-rule:evenodd;"/><path d="M280.39,1017.84c105.14,0,190.38,19.21,190.38,42.9s-85.24,42.91-190.38,42.91-190.37-19.21-190.37-42.91,85.23-42.9,190.37-42.9Z" style="fill:#c4d1eb; fill-rule:evenodd;"/><path d="M269.74,902.11c105.14,0,190.38,19.21,190.38,42.91s-85.23,42.9-190.38,42.9-190.38-19.21-190.38-42.9,85.24-42.91,190.38-42.91Z" style="fill:#c4d1eb; fill-rule:evenodd;"/><path d="M313.4,1083.85c-105.14,0-190.38,19.22-190.38,42.91s85.24,42.91,190.38,42.91,190.38-19.21,190.38-42.91-85.24-42.91-190.38-42.91Z" style="fill:#c4d1eb; fill-rule:evenodd;"/><path d="M243.32,960.13c105.14,0,190.38,19.22,190.38,42.91s-85.23,42.91-190.38,42.91-190.38-19.22-190.38-42.91,85.24-42.91,190.38-42.91Z" style="fill:#c4d1eb; fill-rule:evenodd;"/><path d="M232.68,844.4c105.14,0,190.37,19.21,190.37,42.91s-85.24,42.91-190.37,42.91-190.38-19.21-190.38-42.91,85.23-42.91,190.38-42.91Z" style="fill:#c4d1eb; fill-rule:evenodd;"/><path d="M276.34,1275.8c-105.14,0-190.37-19.21-190.37-42.91v-48.42c0,23.7,85.23,42.91,190.37,42.91s190.38-19.22,190.38-42.91v48.42c0,23.7-85.23,42.91-190.38,42.91Z" style="fill:#9db2d9; fill-rule:evenodd;"/><path d="M280.39,1152.08c105.14,0,190.38-19.22,190.38-42.91v-48.42c0,23.7-85.24,42.91-190.38,42.91s-190.37-19.21-190.37-42.91v48.42c0,23.7,85.23,42.91,190.37,42.91Z" style="fill:#9db2d9; fill-rule:evenodd;"/><path d="M269.74,1036.35c105.15,0,190.38-19.21,190.38-42.91v-48.42c0,23.7-85.23,42.91-190.38,42.91s-190.38-19.21-190.38-42.91v48.42c0,23.7,85.23,42.91,190.38,42.91Z" style="fill:#9db2d9; fill-rule:evenodd;"/><path d="M313.4,1218.1c-105.14,0-190.38-19.22-190.38-42.91v-48.42c0,23.7,85.23,42.91,190.38,42.91s190.38-19.21,190.38-42.91v48.42c0,23.7-85.23,42.91-190.38,42.91Z" style="fill:#9db2d9; fill-rule:evenodd;"/><path d="M243.32,1094.37c105.14,0,190.38-19.21,190.38-42.91v-48.42c0,23.7-85.23,42.91-190.38,42.91s-190.38-19.22-190.38-42.91v48.42c0,23.7,85.24,42.91,190.38,42.91Z" style="fill:#9db2d9; fill-rule:evenodd;"/><path d="M232.67,978.64c105.14,0,190.38-19.22,190.38-42.91v-48.42c0,23.7-85.23,42.91-190.38,42.91s-190.38-19.21-190.38-42.91v48.42c0,23.7,85.23,42.91,190.38,42.91Z" style="fill:#9db2d9; fill-rule:evenodd;"/><path d="M154,866.72c-4.68,3.89-9.58,9.41-11.05,16.8l-26.04,.53-1.5,11.31,28.01-.58c4.28,12.12,21.98,19,46.06,18.51,24.82-.51,38.65-8.73,51.44-20.16,11.24-10.82,19.85-14.8,32.38-15.05,12.29-.25,21.33,3.59,20.23,11.91-.97,7.27-7.27,14.19-13.52,18.81l27.06,2.9c5.99-4.5,11.9-12.1,13.37-19.5l28.01-.57,1.5-11.31-29.98,.61c-3.67-12.93-22.81-20.14-47.87-19.63-25.56,.53-40.14,7.04-54.97,20.93-10.79,9.32-18.33,14.42-29.64,14.65-9.58,.2-19.14-3.52-18.11-11.26,.89-6.69,6.8-12.46,10.94-16l-26.32-2.92Z" style="fill:#fff; fill-rule:evenodd;"/><path d="M752.6,1287.61c-105.14,0-190.38,19.22-190.38,42.91s85.23,42.91,190.38,42.91,190.38-19.22,190.38-42.91-85.24-42.91-190.38-42.91Z" style="fill:#c4d1eb; fill-rule:evenodd;"/><path d="M756.64,1163.89c105.14,0,190.38,19.21,190.38,42.91s-85.24,42.91-190.38,42.91-190.38-19.21-190.38-42.91,85.23-42.91,190.38-42.91Z" style="fill:#c4d1eb; fill-rule:evenodd;"/><path d="M746,1048.16c105.14,0,190.38,19.21,190.38,42.91s-85.23,42.91-190.38,42.91-190.38-19.21-190.38-42.91,85.24-42.91,190.38-42.91Z" style="fill:#c4d1eb; fill-rule:evenodd;"/><path d="M789.66,1229.91c-105.14,0-190.38,19.21-190.38,42.91s85.24,42.91,190.38,42.91,190.38-19.22,190.38-42.91-85.24-42.91-190.38-42.91Z" style="fill:#c4d1eb; fill-rule:evenodd;"/><path d="M719.58,1106.18c105.14,0,190.37,19.22,190.37,42.91s-85.23,42.91-190.37,42.91-190.38-19.22-190.38-42.91,85.24-42.91,190.38-42.91Z" style="fill:#c4d1eb; fill-rule:evenodd;"/><path d="M708.93,990.45c105.14,0,190.38,19.21,190.38,42.91s-85.24,42.91-190.38,42.91-190.38-19.21-190.38-42.91,85.24-42.91,190.38-42.91Z" style="fill:#c4d1eb; fill-rule:evenodd;"/><path d="M752.6,1421.86c-105.14,0-190.38-19.22-190.38-42.91v-48.42c0,23.7,85.23,42.91,190.38,42.91s190.38-19.21,190.38-42.91v48.42c0,23.7-85.24,42.91-190.38,42.91Z" style="fill:#9db2d9; fill-rule:evenodd;"/><path d="M756.64,1298.13c105.14,0,190.38-19.21,190.38-42.91v-48.42c0,23.7-85.24,42.91-190.38,42.91s-190.38-19.22-190.38-42.91v48.42c0,23.7,85.23,42.91,190.38,42.91Z" style="fill:#9db2d9; fill-rule:evenodd;"/><path d="M746,1182.4c105.14,0,190.38-19.22,190.38-42.91v-48.42c0,23.7-85.23,42.91-190.38,42.91s-190.38-19.21-190.38-42.91v48.42c0,23.7,85.24,42.91,190.38,42.91Z" style="fill:#9db2d9; fill-rule:evenodd;"/><path d="M789.66,1364.15c-105.14,0-190.38-19.21-190.38-42.91v-48.42c0,23.7,85.23,42.91,190.38,42.91s190.38-19.22,190.38-42.91v48.42c0,23.7-85.23,42.91-190.38,42.91Z" style="fill:#9db2d9; fill-rule:evenodd;"/><path d="M719.58,1240.43c105.14,0,190.37-19.22,190.37-42.91v-48.42c0,23.7-85.23,42.91-190.37,42.91s-190.38-19.21-190.38-42.91v48.42c0,23.7,85.24,42.91,190.38,42.91Z" style="fill:#9db2d9; fill-rule:evenodd;"/><path d="M708.93,1124.69c105.14,0,190.38-19.21,190.38-42.91v-48.42c0,23.7-85.24,42.91-190.38,42.91s-190.38-19.22-190.38-42.91v48.42c0,23.7,85.23,42.91,190.38,42.91Z" style="fill:#9db2d9; fill-rule:evenodd;"/><path d="M630.26,1012.77c-4.68,3.9-9.58,9.41-11.05,16.81l-26.04,.53-1.5,11.31,28.01-.57c4.27,12.12,21.98,19.01,46.06,18.51,24.82-.51,38.65-8.73,51.44-20.16,11.24-10.82,19.85-14.8,32.38-15.06,12.29-.25,21.33,3.6,20.23,11.91-.97,7.27-7.27,14.19-13.53,18.81l27.06,2.91c5.98-4.5,11.89-12.11,13.37-19.5l28.01-.58,1.5-11.31-29.98,.61c-3.68-12.94-22.81-20.14-47.88-19.63-25.55,.52-40.14,7.04-54.97,20.93-10.79,9.32-18.33,14.42-29.64,14.65-9.58,.2-19.14-3.53-18.11-11.26,.89-6.69,6.8-12.46,10.95-15.99l-26.32-2.92Z" style="fill:#fff; fill-rule:evenodd;"/><path d="M357.55,797.72s-20.75,14.98-24.02,19.42c-4.7,6.43,35.15,18.45,30.8,10.92-1-1.72-3.87-7.57-4-8.11-.66-3.09,7.79-11.31,7.79-11.31l-10.57-10.92Z" style="fill:#f9af79; fill-rule:evenodd;"/><path d="M375.1,840.67l-14.09-19.93s-8.78-2.03-17.83-12.21c0,0-8.11,3.08-13.11,9.83,0,0,9.43,10.14,23.97,21.61,0,0,8.62,7.61,20.51,11.66,11.92,4.01,.54-10.96,.54-10.96Z" style="fill:#0e2952; fill-rule:evenodd;"/><path d="M325.81,643.97l3.28,16.23,82.51,75.04-59.05,59.8,15.94,16.26s87.23-64.04,90.37-72.43c4.85-12.91-62.52-98.52-62.52-98.52l-70.52,3.62Z" style="fill:#20386f; fill-rule:evenodd;"/><path d="M267.99,840.9s-20.75,14.97-24.01,19.42c-4.71,6.43,35.14,18.45,30.8,10.92-1-1.72-3.86-7.53-4-8.11-.66-3.08,7.79-11.31,7.79-11.31l-10.58-10.92Z" style="fill:#f9af79; fill-rule:evenodd;"/><path d="M285.58,883.92l-14.09-19.93s-9.36-1.67-18.39-11.82c0,0-7.55,2.73-12.54,9.44,0,0,9.43,10.18,23.96,21.61,0,0,8.62,7.65,20.52,11.66,11.91,4.02,.54-10.96,.54-10.96Z" style="fill:#0e2952; fill-rule:evenodd;"/><path d="M328.63,651.5l3.7,102.42-69.76,85.54,16.35,15.05s80.99-69.5,89.88-88.85c5.52-12.05,24.08-120.56,24.08-120.56l-64.25,6.4Z" style="fill:#223f81; fill-rule:evenodd;"/><path d="M395.19,643.11c-6.71-15.17-5.95-123.72-32.06-149.15-9.18,1.52-15.74,2.42-17.27,2.81-1.36,11.19-2.86,52.23-3.78,89.83-.62,25.08,.02,51.37-3.06,65.21-1.92,8.58,62.3,5.11,56.18-8.69Z" style="fill:#fff; fill-rule:evenodd;"/><path d="M324.49,502.39c-7.34,1.64-12.72,5.07-22.33,19.27-9.2,13.61-29.63,43.61-29.63,43.61l-53.81-23.91-2.51,27.26s60.87,31.63,69.44,28.78c8.6-2.85,30.54-34.32,32.33-36.7,.41-.55-1.54,38.03-1.54,44.15s-9.96,55.15-9.96,55.15c0,0,29.6,7.3,35.38-5.97,17.72-40.56,4.12-157.3,4.12-157.3,0,0-16.22,4.45-21.5,5.66Z" style="fill:#466fb5; fill-rule:evenodd;"/><path d="M369.19,500.28s12,32.1,20.73,27.77c8.73-4.37,56.33-56.25,56.82-58.67,.48-2.41,3.88-63.73,3.88-63.73l-19.38-3.9-13,49.77s-34.01,34.75-41.29,38.14c-7.27,3.39-7.75,10.61-7.75,10.61Z" style="fill:#466fb5; fill-rule:evenodd;"/><path d="M397.8,650.37c5.87,0,8.05-.82,11.95-1.99,0,0-11.17-62.99-17.67-125.47-2.57-24.69-4.96-34.79-15.14-33-2.94,.51-10.91,3.55-13.8,4.06,25.58,72.35,25.66,128.09,29.29,144.24,1.81,8.11,3.39,12.2,5.37,12.17Z" style="fill:#466fb5; fill-rule:evenodd;"/><path d="M360.44,483.01l2.68,10.96s.62,9.52-3.81,10.37c-5.33,1.01-13.25-6.94-13.25-6.94l-4.59-30.85,18.97,16.46Z" style="fill:#f7a390; fill-rule:evenodd;"/><path d="M360.44,483.01l2.68,10.96s.62,9.52-3.81,10.37c-5.33,1.01-13.25-6.94-13.25-6.94l-4.59-30.85,18.97,16.46Z" style="fill:#f9af79; fill-rule:evenodd;"/><path d="M341.51,466.66l18.93,16.34,1.99,8.19c-7.23-1.75-17.53-9.71-20.92-24.53Z" style="fill:#f27458; fill-rule:evenodd;"/><path d="M360.5,438.31c4.58,0,8.69,3.16,10.3,7.72,1.33,3.78,3.05,9.4,4.13,15.84,2,11.85-4.75,22.7-10.62,23.6-5.88,.86-19.88-3.04-22.97-19.86-1.33-7.17-3.07-16.65,2.84-21.6,4.61-3.86,11.07-5.69,16.32-5.69Z" style="fill:#f9af79; fill-rule:evenodd;"/><path d="M343.24,478.44s-20.72-18.49-21.62-32.92c-.91-14.39,12.41-22.12,23.8-22.54,5.15-.16,8.63,.07,13.94,.74,11.41,1.44,18.81,6.48,16.2,15.84-3.49,12.56-27.18,1.95-32.01,5.85-4,3.23,2.47,10.96-1.4,13.88-3.65,2.81-1.79,1.87-.59,7.14,1.21,5.27,1.68,12.02,1.68,12.02Z" style="fill:#20386f; fill-rule:evenodd;"/><path d="M335.24,461.71c.52,3.43,2.63,6.01,4.73,5.69,2.09-.31,3.37-3.35,2.86-6.82-.52-3.47-2.63-6.01-4.71-5.69-2.1,.31-3.37,3.35-2.87,6.82Z" style="fill:#f9af79; fill-rule:evenodd;"/><path d="M892.59,439.47c8.12,.05,7.76,1.36,8.82,1.33,1.24-.03,15.01-8.99,15.01-8.99,0,0,40.84-26.19,43.01-27.68l27.32-41.15,24.79,6.84s-30.93,44.02-32.97,46.06c-2.04,2.04-61.37,31.34-66.53,34.08,0,0-4.94,5.43-8.16,8.74-3.18,3.29-7.74,5.11-8.77,5.89-.18,.14-3.81,2.6-9.14,4.52-4.57,1.64-.96-1.93-.96-1.93,0,0,7.93-4.5,7.48-5.03-.35-.43-4.57,2.29-9.61,4.16-1.27,.47-2.58,.95-3.75,1.36-3.12,1.13-4.65-.39-1.59-2.04,1.07-.58,2.92-1.52,4.31-2.01,1.5-.52,2.69-1.47,3.91-2.1,2.36-1.24,4.11-2.12,4.02-2.2-.13-.07,.16-.64-1.23-.17-1.69,.57-4.99,2.52-7.5,3.16-1.42,.36-4.38,1.32-4.38,1.32,0,0-4.72,.62-4.84,.36-.7-1.35,2.44-2.67,4.44-2.93,1.2-.79,4.34-1.69,4.34-1.69,0,0,5.92-3.19,5.5-4.02-.2-.33-4.06,1.21-8.11,2.17-3.75,.88-7.68,1.19-7.93,.49-.49-1.15,3.59-2.55,3.59-2.55,0,0,2.87-.83,3.82-1.18,1.1-.4,4.31-1.87,4.31-1.87,0,0,10.94-5.59,10.46-6.32-.49-.72-2.53-2.08-3.33-1.96-.79,.12-2.14,1.08-2.94,1.19-.8,.12-1.92-.38-2.14-1.3-.22-.93,3.43-2.95,3.43-2.95,0,0,2.96-1.6,5.34-1.61Z" style="fill:#f9af79; fill-rule:evenodd;"/><path d="M1003.21,388.81l-29.1-10.98s3.29-14.43,10.35-24.89c17.84-39.11,37.79-34.08,40.43-18.02,3.73,12.88-21.68,53.89-21.68,53.89Z" style="fill:#466fb5; fill-rule:evenodd;"/></svg>