<?xml version="1.0" encoding="UTF-8"?><svg id="a" xmlns="http://www.w3.org/2000/svg" viewBox="0 0 2464.29 1525.01"><path d="M2219.87,83.71c-23.12,0-41.87-18.74-41.87-41.86s18.75-41.86,41.87-41.86,41.86,18.74,41.86,41.86-18.74,41.86-41.86,41.86h0ZM442.49,1087.31H218.85c-120.37,0-218.85,98.49-218.85,218.86H0c0,120.35,98.48,218.84,218.85,218.84h1891.07c194.9,0,354.37-159.46,354.37-354.38h0c0-194.9-159.46-354.38-354.37-354.38h0c-82.42,0-149.84-67.43-149.84-149.84h0c0-82.41,67.42-149.83,149.84-149.83h180.33c85.67,0,155.77-70.11,155.77-155.79h0c0-85.68-70.1-155.78-155.77-155.78h-228.04c-33.36,0-60.65-27.3-60.65-60.65h0c0-33.36,27.29-60.65,60.65-60.65h40.2c23.03,0,41.86-18.84,41.86-41.86h0c0-23.02-18.84-41.86-41.86-41.86h-263.77c-55.55,0-61.73,65.63-202.06,65.63h-325.36c-30.04,0-54.62,24.58-54.62,54.62h0c0,30.04,24.58,54.62,54.62,54.62h52.44c43.52,0,79.15,35.62,79.15,79.14h0c0,43.53-35.63,79.15-79.15,79.15h-157.86c-213.16,0-243.27,55.71-280.6,166.5-37.33,110.79-231.23,119.73-231.23,119.73H428.84c-65.59,0-119.26,53.66-119.26,119.26h0c0,65.59,53.67,119.26,119.26,119.26h13.65c63.09,0,114.71,51.63,114.71,114.71h0c0,63.1-51.62,114.71-114.71,114.71h0Z" style="fill:#eaeff8; fill-rule:evenodd;"/><g><g><path d="M1043.89,295.22c-25.6,19.45-30.59,55.96-11.14,81.57,19.45,25.59,55.96,30.58,81.56,11.13,25.6-19.45,30.58-55.96,11.14-81.56-19.45-25.6-55.96-30.59-81.56-11.14Z" style="fill:#a4d0fc; fill-rule:evenodd;"/><path d="M1024.94,362.93c20.24,20.59,53.09,23.42,76.68,5.49,21.25-16.15,28.29-44.05,18.95-67.71-20.23-20.59-53.09-23.42-76.68-5.5-21.25,16.15-28.3,44.05-18.95,67.71Z" style="fill:#c3dffa; fill-rule:evenodd;"/></g><g><path d="M1127.28,351.8c-25.6,19.45-30.59,55.96-11.14,81.56,19.44,25.6,55.96,30.59,81.56,11.14,25.6-19.45,30.58-55.96,11.13-81.56-19.45-25.6-55.96-30.59-81.56-11.14Z" style="fill:#a4d0fc; fill-rule:evenodd;"/><path d="M1108.33,419.51c20.23,20.58,53.09,23.41,76.68,5.49,21.25-16.15,28.29-44.05,18.95-67.71-20.23-20.59-53.09-23.41-76.68-5.49-21.25,16.15-28.3,44.05-18.95,67.71Z" style="fill:#c3dffa; fill-rule:evenodd;"/></g><path d="M1050.49,364.75l11.24-51.66,7.1-1.08,27.34,45.75-7.35,1.12-7.91-13.92-20.55,3.15-3.03,15.6-6.85,1.05h0Zm10.97-22.19l16.63-2.55-7.16-12.75c-2.16-3.88-3.84-7.09-5.06-9.65-.18,3.28-.6,6.54-1.25,9.8l-3.16,15.14Z" style="fill:#eff9fc; fill-rule:evenodd;"/><path d="M1132.39,408.11l10.08-45.27,16.99,3.78c3.46,.77,6.13,1.84,8.02,3.22,1.88,1.38,3.2,3.16,3.96,5.33,.77,2.16,.92,4.28,.45,6.37-.43,1.93-1.36,3.64-2.78,5.12-1.42,1.48-3.31,2.5-5.67,3.08,2.56,1.41,4.36,3.25,5.4,5.51,1.04,2.26,1.28,4.71,.69,7.35-.48,2.13-1.36,4-2.67,5.62-1.3,1.62-2.72,2.78-4.26,3.48-1.54,.69-3.36,1.07-5.45,1.13-2.1,.06-4.6-.23-7.48-.87l-17.28-3.84h0Zm11.84-24.91l9.8,2.18c2.66,.6,4.6,.84,5.83,.74,1.63-.11,2.95-.61,3.95-1.5,1-.88,1.69-2.12,2.04-3.7,.33-1.51,.27-2.92-.2-4.22-.46-1.31-1.32-2.32-2.56-3.04-1.25-.72-3.5-1.44-6.74-2.17l-9.05-2.01-3.06,13.72h0Zm-4.65,20.93l11.28,2.51c1.94,.43,3.32,.66,4.14,.69,1.43,.06,2.67-.09,3.73-.46,1.05-.38,2-1.05,2.85-2.02,.85-.97,1.43-2.18,1.75-3.63,.38-1.69,.27-3.26-.32-4.71-.59-1.45-1.59-2.59-3.02-3.43-1.42-.85-3.57-1.6-6.45-2.24l-10.47-2.33-3.48,15.62Z" style="fill:#eff9fc; fill-rule:evenodd;"/></g><path d="M1160.81,1037.09c12.84,11.77,41.96-29.56,66.62-30.56,16.72-.68,30.6,34.05,39.01,51.33,19.15-6.03,56.92-51.76,78.84-51.56,80.47,.77,114.18,5.28,138.78-56.62-17.68-13.56-35.37-18.47-45.61-21.09-9.98-2.59-20.55-4.85-29.35-6.48-14.12-14.22-30.9-66.87-25.66-144.36l-6.85,.86-114.84,15.22s.28,35.91-1.77,69.55c-1.62,26.26-4.7,51.16-10.44,56.61-8.9,.7-14.25,1.2-14.25,1.2l-.07,.11c-1.82,2.24-41.11,50.68-74.4,115.8Z" style="fill:#ffb27d; fill-rule:evenodd;"/><g><path d="M723.33,794.24l36.72-53.24c131.13,90.45,163.21,112.57,294.35,203.02,7.32,5.05,9.18,15.16,4.13,22.49l-18.36,26.61c-5.05,7.32-15.17,9.18-22.48,4.13-131.14-90.44-163.22-112.58-294.35-203.02Z" style="fill:#8bbae9; fill-rule:evenodd;"/><polygon points="760.05 741 723.33 794.24 669.55 717.86 760.05 741" style="fill:#ffb27d; fill-rule:evenodd;"/><rect x="865.42" y="697.05" width="21.14" height="326.16" transform="translate(-329.43 1092.85) rotate(-55.4)" style="fill:#4f8ecc;"/><path d="M1028.54,926.18l-36.72,53.24,25.86,17.84c7.32,5.05,17.44,3.19,22.48-4.13l18.36-26.61c5.05-7.33,3.19-17.44-4.13-22.49l-25.86-17.84Z" style="fill:#4f8ecc; fill-rule:evenodd;"/><path d="M689.39,746.03c17.36,2.13,21.69-4.46,12.99-19.78l-32.82-8.39,19.84,28.17Z" style="fill:#4f8ecc; fill-rule:evenodd;"/><path d="M929.37,956.11c5.75-36.95-12.4-49.42-12.89-70.35-18.24,4.39-25.02,17.4-20.36,39.02-6.64-7.55-13.08-15.6-19.31-24.16-22.61-15.59-40.28-27.78-53.02-36.56,4.56,23.74,11.83,51.53,21.82,83.38,6.05,14.85,8.6,24.77,23.24,39.2,8.03,7.92,25.36,94.76,43.13,117.38,67.5,85.92,166.21,148.66,17.4-147.91Z" style="fill:#ffb27d; fill-rule:evenodd;"/></g><path d="M1174.87,1361.24c93.44-189.93,100.46-249.13,30.27-350.84-52.66,27.7-100.53,120.64-133.26,310.4-72.82-223-100.87-264.27-112.3-329.19-33.04,18.35-53.98,28.6-82.36,36.67,64.68,272.8,104.36,380.4,137.25,408.25,18.53,15.69,56.83,22.2,79.4,9.88,33.29-18.19,54.6-57.79,81.01-85.17Z" style="fill:#fc9774; fill-rule:evenodd;"/><path d="M1129.84,1120.05c13.42-89.78,68.09-121.71,80.48-140.05,38.26,76.31,83.09,75.06,177.53-46.08,95.71-3.75,136.88,29.42,123.47,99.52-52.4,146.85-72.66,259.88-60.82,339.09,14.84,71.4,20.06,105.5,15.67,102.28-224.96,12.53-332.47,12.83-322.51,.92,.61-129.62,.92-194.41,.92-194.41-30.7-33.35-43.6-92.02-14.75-161.26Z" style="fill:#8bbae9; fill-rule:evenodd;"/><path d="M1276.74,529.18s1.02,36.38-12.21,43.5c-13.23,7.04-1.88,110.1-3.98,163.06-2.83,70.68,1.17,139.41-3.52,209.83l-45.24,40.27c.28-25.88,1.2-48.01,.71-69.19-.13,7.76-.94,39.45-2.55,70.82l-51.03,37.02c12.17-139.25-25.41-396.54,61.18-457.82,27.13-19.21,56.64-37.48,56.64-37.48Z" style="fill:#284191; fill-rule:evenodd;"/><path d="M1486.42,687.26c.95,37.54-7.35,110.01-8.5,154-1.24,47.33,4.12,116.84,.99,164.05l-44.6,28.45c-.3-17.31,.12-32.12-.84-46.27,.04,5.2-.04,26.4-.96,47.42l-50.49,26.48c12.01-123.41,4.52-154.42,7.6-303.07-1.08-10.06,96.81-71.06,96.81-71.06Z" style="fill:#284191; fill-rule:evenodd;"/><path d="M1228.54,564.75l154.1,233.81s17.63-34.5,37.19-22.13c30.53,19.29,88.02-47.86,74.34-141.12-21.76-147.19-162.75-154.02-230.17-114.27-16.99,10.02-31.5,30.52-35.46,43.71Z" style="fill:#284191; fill-rule:evenodd;"/><path d="M1261.72,793.87s.32,35.86-1.76,69.49c63.6,2.23,100.84-53.52,116.62-84.76l-114.86,15.27Z" style="fill:#f08261; fill-rule:evenodd;"/><path d="M1303.84,839.31c42.07-14.61,92.96-43.84,91.66-99.58,3.04-93.65,24.48-155.86-71.36-164.37-95.86-8.58-115.68,26.58-124.29,57.62-6.76,24.32-17.38,149.24,15.15,196.29,9.96,14.4,38.88,26.11,65.25,18.04,7.93-2.43,15.89-5.34,23.59-8.01Z" style="fill:#ffb27d; fill-rule:evenodd;"/><path d="M1210.24,578.12c25-26.72,42.16-19.41,51.44-10.31,84.95-39.9,133.62,30.2,133.62,30.2,5.75,67.74,51.72,109.27,51.72,109.27,0,0-28.44,15.14-90.52-5.07-18.94-6.21-35.29-20.98-48.87-38.53,22.83,44.41,55.62,77.49,55.62,77.49-73.17-39.67-96.75-146.43-99.07-157.71-58.41,46.24-39.86,63.64-65.2,111.18,0,0-26.23-76.58,11.27-116.51Z" style="fill:#284191; fill-rule:evenodd;"/><path d="M1256.37,899.02c-2.51,42.3,.23,105.14-4.39,147.32l-13.57,12.19c.28-15.82,1.2-29.35,.72-42.3-.13,4.76-.94,24.12-2.56,43.3l-51.36,22.63c9.7-67.39,9.05-118.66,10.2-160.71l60.96-22.43Z" style="fill:#284191; fill-rule:evenodd;"/><path d="M1234.18,571.91c10.76-6.04,14.37-12.98,10.84-20.8-16.04-7.89-31.47-8.74-46.3-2.56,8.88,.76,20.7,8.56,35.45,23.35Z" style="fill:#284191; fill-rule:evenodd;"/><path d="M1257.37,569.71c-8.76,8.71-16.41,10.29-22.97,4.76-3.22-17.58,.18-32.65,10.17-45.23-1.69,8.75,2.58,22.24,12.8,40.48Z" style="fill:#284191; fill-rule:evenodd;"/><polygon points="752.76 1097.38 1042.44 1030.36 1220.2 1486.48 930.66 1519.3 752.76 1097.38" style="fill:#4f8ecc; fill-rule:evenodd;"/><path d="M718.6,1011.11c175.36-13.19,251.92-.78,327.28,20.81-69.24-10.6-116.49,4.29-141.72,44.67-75.39,120.71-33.51,455.41-345.93,409.48-138.13-165.08-207.19-247.61-207.19-247.61,328.13,168.23,223.62-225.75,367.56-227.35Z" style="fill:#fff; fill-rule:evenodd;"/><path d="M1044.25,1031.24c-61.38-9.41-105.47,1.23-132.27,31.89l132.27-31.89Z" style="fill:#8bbae9; fill-rule:evenodd;"/><path d="M1314.7,1423c-.94-23.1-3.18-45.39-6.71-66.85-27.9,1.16-47.9,2-47.9,2,0,0-18.2,.85-36.66,1.37-17.83,.48-35.91,.64-38.11-.6-3.87-2.17,.26-6.24-29.35-24.05-8.6-5.16-23-5.63-23-5.63,0,0-17.82-.45-19.07,3.44-1.25,3.89,1.82,8.2,4.98,9.51,3.19,1.24,10.28,.64,13.45,1.93,3.17,1.26,7.55,10.74,7.76,14.51,.2,3.79-52.07,.76-52.07,.76,0,0-15-1.58-19.9-2.44-4.18-.75-16.61-3.92-16.61-3.92,0,0-17.97-3.65-18.77,1.69-.45,3.16,14.48,10.53,30.06,15.38,16.81,5.23,34.43,7.92,34.31,9.6-.18,3.93-28.8,2.96-28.8,2.96,0,0-13.41-3.41-19.62-3.09-7.96-3.45-22.19-5.35-22.74,1.19-.07,1.21,18.52,9.1,18.52,9.1,0,0,12.88,2.89,18.93,4.66,10.63,3.04,26.97,2.97,34.38,4.51,6.1,1.31,3.78,2.71,4.12,3.33,.25,.5-8.06-.05-19.48-.58-5.8-.25-12.37,.58-18.96-.7-6.16-1.17-14.93-1.73-20.15-1.88-14.85-.5-12.42,8.45,1.34,11.08l16.69,3.03c22.63,4.02,43.99,3.13,44.38,5.42,.41,2.95-38.51,2.42-38.51,2.42,0,0-21.04,5.43-.66,9.28,23.68,4.44,42.42,3.16,43.25,3.06,5.59-.7,26.23,2.54,45.19-2.79,12.99-3.64,31.13-9.23,41.27-12.38,4.67-1.45,7.65-2.39,7.65-2.39,9.46,.38,56.04,3.53,110.79,7.09Z" style="fill:#ffb27d; fill-rule:evenodd;"/><path d="M1499,1438.22c8.25-5.83,15.47-14.81,21.83-27.03,28.08-53.84,39.98-170.73,53.31-359-4.33-92.98-60.5-136.25-168.53-119.05-14.34,42.53-9.6,99.55,14.2,171.09-1.16,8.35-2.2,16.69-3.13,25-7.94,71.62-6.74,140.99,3.58,208.13-11.01,.29-22.75,.59-35.19,.86-51.76,1.15-116.34,16.72-192.85,17.47,28.43,33.7,21.35,46.27-1.4,77.06,50.56,5.38,257.77,13.31,308.17,5.48Z" style="fill:#fc9774; fill-rule:evenodd;"/><path d="M1482.14,723.3c-.32,34.33-11.07,100.29-13.7,140.44-2.83,43.22,.15,106.89-4.56,149.93l-45.54,24.61c.28-15.82,1.2-29.35,.72-42.29-.13,4.75-.94,24.12-2.56,43.29l-51.36,22.63c16.18-112.38,9.74-140.95,17.83-276.67-.74-9.23,99.16-61.94,99.16-61.94Z" style="fill:#284191; fill-rule:evenodd;"/><rect x="726.95" y="1468.4" width="1471.24" height="54.33" rx="14.65" ry="14.65" style="fill:#f87f4c;"/><path d="M1416.69,1129.23c-19.36,70.24-29.9,139.91-31.61,208.99,12.44-.27,24.18-.57,35.19-.86-10.32-67.14-11.52-136.51-3.58-208.13Z" style="fill:#61a0e0; fill-rule:evenodd;"/><g><path d="M2240.89,1122.19h-439.14c-8.65,0-17.58,7.08-19.86,15.73l-78.13,297.52c-2.27,8.66,2.95,15.73,11.6,15.73h439.14c8.65,0,17.59-7.08,19.87-15.73l78.13-297.52c2.27-8.66-2.95-15.73-11.61-15.73Z" style="fill:#a4d0fc; fill-rule:evenodd;"/><path d="M1719.46,1332.74l53.05-201.98c2.27-8.66,11.2-15.73,19.86-15.73h439.14c8.66,0,24.07,11.17,21.49,19.74,.43-7.16-4.52-12.59-12.11-12.59h-439.14c-8.65,0-17.58,7.08-19.86,15.73l-78.13,297.52c-1.36,5.19-.04,9.81,3.12,12.68-7.23-4.67-14.12-13.7-12.51-19.83l25.08-95.55Z" style="fill:#61a0e0; fill-rule:evenodd;"/><path d="M1715.36,1451.18h439.13c1.62,0,3.24-.25,4.83-.7-8.75,22.65-32.49,19.31-41.76,19.23h-520.64c-28.21-1.19-27.48-20.98-27.86-40.05h125.09c-.4,6.05,6.02,14.14,12.73,18.48,2.11,1.91,5.02,3.05,8.48,3.05Z" style="fill:#61a0e0; fill-rule:evenodd;"/><path d="M1776.82,1244.53c47.07,23.81,102.75,31.13,160.01,34.06-.64,2.05-1.14,4.16-1.48,6.31-3.82,24.13,13.19,44.67,37.77,44.67,23.15,0,44.15-18.33,47.75-41.12,.39-2.47,.56-4.91,.53-7.29,59.45,1.6,116.89,4.86,164.39,23.45l-32.67,124.39h-424.75l48.44-184.48Z" style="fill:#61a0e0; fill-rule:evenodd;"/><path d="M1982.63,1258.18c-15.73,0-30.51,12.75-33.01,28.5-2.49,15.73,8.25,28.5,24,28.5s30.51-12.76,32.99-28.5c2.51-15.74-8.24-28.5-23.98-28.5Z" style="fill:#61a0e0; fill-rule:evenodd;"/></g><path d="M888.53,1049.09c-54.7-1.62-98.91-2.2-132.64-1.74-20.68,.28-37.39,.96-50.15,2.04,68.12,12.84,113.81,24.19,137.06,34.02,7.66,3.24,13.04,6.39,16.11,9.42,4.01,3.97,4.7,7.9,2.09,11.79-1.46,2.16-4.1,4.16-7.91,5.96l-1.27,.29c-47.31,.72-87.27,2.47-119.86,5.25-26.15,2.21-47.43,5.08-63.83,8.62,50.75,15.62,88.86,31.1,114.32,46.43,28.16,16.96,41.23,34.04,39.21,51.24l-.44,3.74-3.57-1.17c-75.87-25-128.78-38.54-158.73-40.66-9.55-.68-16.61-.2-21.16,1.45-3.59,1.3-5.39,3.38-5.36,6.22h0c.01,2.09,.84,4.68,2.46,7.74,50.5,37.36,87.14,68.97,109.91,94.83,23.52,26.7,32.51,47.73,26.96,63.08l-1.12,3.09-3-1.34c-62.98-28.15-112.57-48.2-148.75-60.17-31.55-10.43-52.5-14.67-62.83-12.73,31.35,52.67,48.57,93.22,51.63,121.63,3.28,30.56-9.2,47.57-37.46,51.03l-.75-6.09c24.26-2.97,34.96-17.74,32.11-44.3-3.03-28.11-20.63-68.94-52.79-122.48l-1.76-2.94,3.13-1.42c10.09-4.59,33.65-.76,70.64,11.47,35.67,11.79,84.36,31.45,146.07,58.95,2.41-12.89-6.49-30.81-26.68-53.72-22.6-25.65-59.11-57.12-109.5-94.36l-.86-.99c-2.31-4.21-3.48-7.96-3.51-11.23h0c-.04-5.73,3.1-9.74,9.42-12.03,5.38-1.94,13.27-2.55,23.65-1.81,29.94,2.12,82.06,15.34,156.34,39.67-.65-13.39-12.79-27.21-36.42-41.44-26.8-16.14-68.05-32.51-123.72-49.1l.07-5.9c17.8-4.85,43.08-8.67,75.83-11.45,32.36-2.74,72.23-4.49,119.59-5.23,2.46-1.23,4.09-2.42,4.87-3.58,.72-1.06,.28-2.39-1.32-3.97-2.53-2.51-7.27-5.23-14.16-8.15-24.97-10.56-76.65-22.96-155.05-37.2l-.06-6.03c12.99-2.59,36.49-4.12,70.5-4.6,33.83-.47,78.12,.12,132.87,1.75l-.16,6.12Z" style="fill:#a4d0fc; fill-rule:evenodd;"/><g><rect x="684.11" y="480.79" width="114.05" height="39.4" transform="translate(-56.02 95.14) rotate(-7.08)" style="fill:#c3dffa;"/><path d="M791.56,452.29c6.43-4.03,10.2-10.47,9.1-19.31l-.34-2.76c-8.17-76.74,56.46-106.56,51.38-191.95-.38-6.4-1.21-12.61-2.45-18.6-18.52-62.95-84.94-98.51-153.55-89.99-78.19,9.71-139.62,74.22-124.75,153.04,15.38,81.54,82.08,94.41,92.58,168.54,1,8.04,10.75,16.25,17.99,14.69l110.04-13.66Z" style="fill:#8bbae9; fill-rule:evenodd;"/><path d="M788.3,443.8l-26.09,29.11-55.63-6.32-26.53-9.35-.34,.08c-2.59,.24-7.07-4.69-7.44-7.28-3.73-26.68-14.34-47.11-30.98-67.88-11.93-14.89-25.43-28.41-36.67-43.88-12.8-17.65-20.94-35.69-25-57.2-4.9-25.97-1.16-51.79,11.59-74.99,21.19-38.57,62.61-62.31,105.57-67.64,60.62-7.53,125.64,22.01,143.9,83.37,1.14,5.6,1.87,11.27,2.21,16.97,1.36,22.82-2.44,43.05-11.11,64.1-7.62,18.49-18.05,35.57-26.41,53.7-11.31,24.53-16.72,47.39-13.8,74.72l.34,2.76c.52,4.2-.6,7.31-3.61,9.74Z" style="fill:#c3dffa; fill-rule:evenodd;"/><path d="M751.57,459.08l-9.48,11.54-35.52-4.04-26.53-9.35-.34,.08c-2.59,.24-7.08-4.7-7.44-7.28-3.73-26.68-14.33-47.11-30.98-67.88-11.93-14.89-25.43-28.41-36.67-43.88-12.8-17.66-20.94-35.68-25-57.2-4.9-25.97-1.16-51.78,11.6-74.99,21.19-38.57,62.61-62.31,105.57-67.64,12.8-1.59,25.78-1.52,38.48,.14,30.64,15.06,55.71,41.84,66.3,79.27,1.2,6.11,2,12.3,2.4,18.52,1.61,24.87-1.96,46.87-10.41,69.71-7.42,20.06-17.68,38.54-25.85,58.19-11.05,26.6-16.22,51.44-13,81.24l.37,3.01c.57,4.58-.52,7.96-3.51,10.57Z" style="fill:#dfedfa; fill-rule:evenodd;"/><path d="M684.02,536.61c1.91,8.49,10.07,14.36,18.87,13.27l13.05-1.62,6.11,7.67c3.51,4.41,5.26,4.52,10.86,3.82l30.68-3.81c5.6-.69,7.27-1.2,9.6-6.36l4.05-8.92,13.06-1.62c8.68-1.08,15.1-8.57,15.05-17.14l-.74-5.96c-.71-1.89-2.64-3.13-4.72-2.87l-112.65,13.99c-2.09,.26-3.68,1.96-3.88,3.98-.02,.18,.14,.54,.05,.63l.62,4.97h0Zm110.53-53.52c3.31-.41,6.35,1.96,6.76,5.26l1.16,9.32c.41,3.31-1.96,6.35-5.26,6.76l-109.46,13.59c-3.31,.41-6.35-1.96-6.76-5.27l-1.16-9.32c-.41-3.31,1.96-6.35,5.27-6.76l109.46-13.59h0Zm-4.06-30.67l-108.98,13.53c-3.44,.43-5.91,3.59-5.48,7.04l1.21,9.71c.42,3.44,3.59,5.91,7.03,5.48l108.98-13.53c3.44-.42,5.91-3.59,5.48-7.03l-1.2-9.71c-.43-3.44-3.6-5.91-7.04-5.48Z" style="fill:#8bbae9; fill-rule:evenodd;"/><path d="M753.29,457.04l-5.82-141.62,16.79-2.08c7.25-.9,13.48-4.68,17.65-10.05h-.01c4.19-5.39,6.33-12.34,5.44-19.57-.9-7.25-4.68-13.47-10.04-17.65-5.36-4.17-12.32-6.32-19.57-5.42-7.16,.89-13.01,4.52-17.06,9.73-4.12,5.28-6.32,12.18-6.05,19.38l.56,15.18-51.37,6.38-3.17-14.86c-1.5-7.04-5.33-13.2-10.62-17.31-5.2-4.05-11.76-6.15-18.92-5.26-7.23,.9-13.45,4.69-17.64,10.06h-.01c-4.18,5.35-6.32,12.31-5.42,19.56,.9,7.25,4.68,13.48,10.05,17.65,5.36,4.18,12.32,6.32,19.57,5.43l16.79-2.08,29,138.74,11.82-1.47-28.94-138.75,49.3-6.12,5.88,141.61,11.82-1.47h0Zm-6.25-153.58l-.52-14.16c-.16-4.38,1.12-8.51,3.54-11.61,2.17-2.79,5.31-4.74,9.12-5.22,3.99-.49,7.82,.69,10.78,3,2.96,2.3,5.04,5.73,5.54,9.71,.5,4-.68,7.83-2.97,10.77h-.02c-2.31,2.96-5.73,5.04-9.72,5.54l-15.76,1.96h0Zm-75.11,9.32l-15.76,1.96c-3.98,.5-7.81-.69-10.77-3-2.96-2.3-5.04-5.73-5.54-9.71-.5-3.98,.69-7.82,2.99-10.77v-.02c2.29-2.94,5.72-5.02,9.72-5.52,3.81-.47,7.33,.66,10.12,2.83,3.1,2.42,5.37,6.12,6.28,10.39l2.96,13.85Z" style="fill:#fff; fill-rule:evenodd;"/><path d="M650.25,185.33c3.56-2.05,4.79-6.6,2.73-10.16-2.05-3.56-6.6-4.79-10.16-2.74-2.91,1.68-5.64,3.44-8.19,5.24-2.64,1.87-5.18,3.86-7.64,5.96-3.12,2.68-3.49,7.38-.81,10.51,2.68,3.12,7.38,3.48,10.51,.81,2.09-1.79,4.28-3.5,6.56-5.12,2.34-1.66,4.67-3.16,6.99-4.5h0Zm-29.59,27.63c2.3-3.42,1.4-8.06-2.02-10.36-3.42-2.3-8.06-1.4-10.36,2.02-6.7,9.95-11.67,21.1-14.52,32.95-2.76,11.45-3.55,23.51-2.02,35.75,.51,4.09,4.24,7,8.33,6.49,4.09-.51,7-4.24,6.49-8.33-1.3-10.49-.64-20.75,1.68-30.42,2.43-10.06,6.68-19.56,12.43-28.11Z" style="fill:#fff; fill-rule:evenodd;"/><path d="M674.69,2.14h0c3.48-.43,6.68,2.06,7.11,5.54l9.91,79.78c.44,3.48-2.06,6.68-5.54,7.11h0c-3.48,.44-6.68-2.06-7.11-5.54l-9.91-79.78c-.43-3.48,2.06-6.68,5.54-7.11h0Zm-183.57,443.82h0c2,2.88,5.99,3.59,8.87,1.59l65.95-45.97c2.88-2,3.59-6,1.58-8.87h0c-2-2.88-5.99-3.59-8.87-1.58l-65.96,45.96c-2.87,2.01-3.59,6-1.58,8.87h0Zm-59.67-127.44h0c.66,3.44,4.01,5.72,7.45,5.06l78.96-15.12c3.44-.66,5.71-4.01,5.06-7.45h0c-.66-3.44-4.01-5.72-7.45-5.06l-78.96,15.12c-3.44,.66-5.71,4.01-5.05,7.45h0Zm9.16-137.89h0c-.8,3.41,1.34,6.86,4.75,7.66l78.27,18.36c3.41,.8,6.85-1.34,7.65-4.75h0c.8-3.42-1.34-6.86-4.75-7.66l-78.27-18.36c-3.41-.8-6.85,1.33-7.65,4.75h0Zm84.53-119.42h0c-2.53,2.43-2.62,6.48-.2,9l55.57,58.1c2.42,2.53,6.47,2.62,9,.2h0c2.53-2.43,2.62-6.48,.2-9.01l-55.58-58.1c-2.42-2.53-6.47-2.62-9-.2h0Zm436.07,326.37h0c-1.24,3.28-4.93,4.95-8.21,3.71l-75.19-28.44c-3.28-1.24-4.94-4.94-3.71-8.21h0c1.24-3.28,4.93-4.95,8.21-3.71l75.19,28.44c3.28,1.24,4.95,4.94,3.7,8.21h0Zm26.69-138.17h0c.2,3.5-2.49,6.53-5.99,6.73l-80.26,4.65c-3.5,.21-6.52-2.49-6.73-5.99h0c-.2-3.5,2.49-6.53,5.99-6.73l80.26-4.65c3.5-.2,6.52,2.49,6.72,5.99h0Zm-42.61-131.46h0c1.61,3.12,.38,6.98-2.73,8.59l-71.4,36.94c-3.11,1.61-6.98,.38-8.58-2.73h0c-1.61-3.12-.38-6.98,2.73-8.59l71.4-36.94c3.11-1.61,6.97-.38,8.58,2.73h0Zm-111.17-95.11h0c3.05,1.73,4.13,5.64,2.4,8.68l-39.67,69.92c-1.73,3.04-5.64,4.12-8.68,2.4h0c-3.05-1.73-4.12-5.64-2.4-8.69l39.68-69.92c1.73-3.04,5.64-4.12,8.68-2.4Z" style="fill:#8bbae9; fill-rule:evenodd;"/></g><g><path d="M1608.29,131.25l21.12-49.08,106.48,45.81c17.7,7.61,25.95,28.32,18.33,46.01l-45.8,106.48-49.08-21.12c-3.36-2.43-5.8-7.9-3.67-12.05,3.69-7.22,18.91-6.93,24.7-18.35,6.42-12.66-1.92-28.79-16.8-35.19-14.88-6.4-32.32-1.36-37.1,12-4.31,12.07,6.37,22.91,3.66,30.56-1.55,4.4-7.21,6.39-11.28,5.62l-49.08-21.11,21.11-49.08c.76-4.07-1.22-9.72-5.63-11.28-7.65-2.7-18.49,7.97-30.56,3.66-13.36-4.78-18.4-22.22-12-37.11,6.4-14.88,22.54-23.22,35.2-16.8,11.42,5.8,11.13,21.01,18.34,24.7,4.16,2.13,9.64-.32,12.05-3.67Z" style="fill:#c3dffa; fill-rule:evenodd;"/><path d="M1606.77,116.01l20.62-47.94,105.34,45.31c8.52,3.67,14.78,10.5,17.99,18.55h0c3.2,8.04,3.36,17.3-.32,25.84l-45.32,105.33-47.82-20.57c-1.52-1.15-2.83-3.02-3.45-5.07-.54-1.79-.55-3.69,.28-5.32,1.43-2.81,5.13-4.45,9.24-6.27,5.65-2.51,12.03-5.33,15.45-12.09h0c.22-.43,.42-.84,.59-1.24,2.7-6.29,2.13-13.27-.85-19.53-2.94-6.19-8.27-11.71-15.12-15.18-.68-.34-1.35-.66-2.02-.95-.68-.28-1.37-.56-2.08-.81-7.24-2.59-14.9-2.66-21.43-.54-6.6,2.14-12.06,6.52-14.76,12.82-.18,.4-.34,.82-.5,1.26h0c-2.55,7.15-.21,13.72,1.85,19.54,1.51,4.24,2.86,8.06,1.81,11.03-.61,1.73-2.01,3.03-3.68,3.86-1.92,.96-4.18,1.3-6.04,.98l-47.82-20.58,20.62-47.94,.07-.26c.45-2.42,.04-5.33-1.17-7.77-1.1-2.21-2.86-4.07-5.26-4.91-3.79-1.34-8,.16-12.69,1.82h0c-5.43,1.93-11.55,4.1-17.86,1.84-.36-.13-.74-.27-1.12-.44-5.6-2.41-9.52-7.3-11.45-13.24-1.95-6.02-1.88-13.12,.53-19.83,.22-.63,.48-1.27,.76-1.93,.28-.66,.59-1.29,.89-1.88,3.22-6.36,8.32-11.29,14.04-14.01,5.64-2.68,11.88-3.2,17.47-.8,.39,.16,.76,.34,1.1,.51,5.97,3.03,8.6,8.97,10.94,14.23,2.02,4.54,3.82,8.63,7.4,10.46,2.26,1.16,4.83,1.16,7.18,.44,2.61-.8,5.01-2.5,6.45-4.49l.13-.23h0Zm18.83-50.06l-21.07,48.97c-1.16,1.52-3.02,2.82-5.08,3.44-1.79,.54-3.69,.56-5.33-.28-2.81-1.44-4.44-5.13-6.27-9.25-2.5-5.65-5.32-12.03-12.09-15.45h0c-.43-.21-.84-.41-1.23-.58-6.29-2.71-13.26-2.14-19.54,.84-6.19,2.95-11.71,8.27-15.18,15.12-.34,.68-.66,1.36-.94,2.03-.29,.67-.57,1.36-.82,2.07-2.59,7.24-2.67,14.91-.55,21.43,2.15,6.6,6.53,12.06,12.83,14.76,.39,.17,.82,.33,1.25,.49h.02c7.13,2.55,13.7,.22,19.52-1.84h0c4.25-1.51,8.06-2.86,11.04-1.81,1.72,.61,3.02,2,3.86,3.68,.96,1.92,1.3,4.17,.98,6.05l-21.07,48.97-.49,1.15,1.15,.49,49.08,21.12,.25,.08c2.43,.45,5.33,.04,7.78-1.17,2.21-1.1,4.06-2.87,4.91-5.26,1.33-3.8-.16-8.01-1.82-12.69-1.93-5.42-4.1-11.55-1.84-17.86,.12-.36,.27-.73,.44-1.12,2.41-5.6,7.3-9.52,13.24-11.44,6.02-1.95,13.11-1.88,19.83,.52,.62,.22,1.27,.48,1.92,.76,.66,.28,1.3,.58,1.89,.88,6.36,3.22,11.28,8.32,14.01,14.04,2.68,5.64,3.21,11.88,.8,17.48-.17,.38-.35,.75-.52,1.09-3.03,5.97-8.97,8.61-14.23,10.94-4.55,2.02-8.64,3.83-10.47,7.41-1.16,2.25-1.16,4.82-.44,7.18,.79,2.61,2.5,5,4.49,6.45l.24,.14,49.08,21.11,1.15,.49,.49-1.14,45.81-106.48c3.94-9.16,3.77-19.1,.34-27.74h0c-3.44-8.64-10.16-15.97-19.32-19.91l-106.48-45.81-1.15-.49-.48,1.15Z" style="fill:#fff; fill-rule:evenodd;"/></g><g><path d="M1776.68,832.09l33.98-41.23-89.46-73.72c-14.87-12.25-37.06-10.11-49.31,4.76l-73.71,89.46,41.23,33.97c3.7,1.88,9.68,1.55,12.4-2.25,4.74-6.59-2.49-19.97,5.02-30.36,8.31-11.5,26.47-11.48,38.97-1.17,12.52,10.3,16.01,28.12,6.31,38.48-8.76,9.36-23.28,4.83-28.84,10.73-3.21,3.4-2.38,9.33,.16,12.6l41.24,33.97,33.97-41.23c3.27-2.54,9.21-3.37,12.6-.17,5.9,5.56,1.38,20.09,10.73,28.84,10.36,9.71,28.18,6.21,38.48-6.3,10.31-12.51,10.34-30.66-1.16-38.98-10.38-7.51-23.78-.28-30.36-5.01-3.8-2.73-4.12-8.71-2.26-12.41Z" style="fill:#fc9774; fill-rule:evenodd;"/><path d="M1790.94,826.48l33.18-40.27-88.49-72.93c-7.17-5.91-16.11-8.35-24.73-7.52h0c-8.62,.83-16.92,4.93-22.83,12.1l-72.92,88.5,40.18,33.1c1.71,.83,3.98,1.14,6.09,.75,1.83-.34,3.53-1.19,4.61-2.69,1.84-2.56,1.6-6.59,1.34-11.09-.36-6.17-.76-13.13,3.68-19.27h0c.28-.39,.56-.75,.83-1.08,4.36-5.28,10.82-7.96,17.75-8.18,6.86-.21,14.2,1.99,20.43,6.49,.62,.45,1.21,.91,1.77,1.37,.56,.46,1.13,.96,1.68,1.48,5.61,5.24,9.18,12.03,10.28,18.81,1.12,6.85-.28,13.71-4.64,19-.28,.33-.58,.67-.9,1.01h0c-5.18,5.54-12.09,6.47-18.22,7.3-4.45,.6-8.46,1.14-10.63,3.43-1.25,1.34-1.78,3.18-1.75,5.05,.03,2.13,.76,4.3,1.89,5.83l40.18,33.1,33.19-40.27,.2-.2c1.94-1.51,4.71-2.47,7.45-2.51,2.46-.04,4.92,.68,6.77,2.42,2.93,2.76,3.53,7.19,4.2,12.12h0c.77,5.7,1.64,12.14,6.53,16.72,.28,.26,.59,.53,.91,.79,4.71,3.88,10.84,5.12,17.01,4.12,6.24-1.02,12.52-4.33,17.39-9.54,.46-.49,.92-1,1.37-1.56,.45-.56,.88-1.11,1.28-1.64,4.17-5.78,6.22-12.57,6.03-18.9-.2-6.24-2.58-12.03-7.29-15.9-.32-.27-.64-.52-.95-.74-5.43-3.93-11.92-3.56-17.66-3.22-4.96,.29-9.42,.55-12.69-1.8-2.06-1.48-3.24-3.76-3.68-6.19-.49-2.68-.07-5.59,1.05-7.79l.14-.23h0Zm35.89-39.64l-33.9,41.14c-.83,1.71-1.12,3.97-.75,6.08,.34,1.83,1.2,3.54,2.68,4.6,2.56,1.85,6.61,1.61,11.1,1.35,6.16-.36,13.13-.76,19.27,3.67h0c.38,.29,.76,.56,1.08,.84,5.29,4.36,7.98,10.81,8.19,17.75,.21,6.85-2,14.2-6.5,20.43-.44,.6-.91,1.21-1.37,1.77-.46,.56-.96,1.12-1.48,1.67-5.24,5.61-12.03,9.18-18.8,10.29-6.85,1.12-13.71-.28-19-4.64-.33-.27-.68-.57-1.01-.89h0c-5.54-5.18-6.47-12.1-7.3-18.21h0c-.6-4.47-1.15-8.48-3.44-10.64-1.33-1.26-3.17-1.78-5.04-1.76-2.14,.04-4.3,.76-5.82,1.9l-33.9,41.14-.8,.96-.96-.79-41.23-33.98-.19-.2c-1.51-1.94-2.48-4.71-2.51-7.44-.04-2.46,.68-4.93,2.42-6.77,2.77-2.92,7.2-3.53,12.12-4.2,5.71-.77,12.14-1.64,16.73-6.53,.26-.27,.52-.58,.78-.9,3.88-4.7,5.12-10.85,4.12-17.01-1.02-6.25-4.34-12.52-9.55-17.4-.48-.45-1-.91-1.55-1.37-.56-.45-1.11-.87-1.65-1.27-5.78-4.17-12.57-6.23-18.89-6.04-6.25,.2-12.03,2.59-15.9,7.29-.27,.33-.51,.65-.75,.96-3.93,5.42-3.55,11.91-3.22,17.66,.29,4.97,.55,9.42-1.79,12.69-1.48,2.06-3.75,3.25-6.18,3.68-2.68,.49-5.59,.06-7.79-1.05l-.23-.14-41.23-33.98-.96-.78,.79-.97,73.71-89.45c6.35-7.69,15.25-12.1,24.5-12.99h0c9.24-.9,18.84,1.72,26.54,8.07l89.46,73.71,.96,.8-.8,.96Z" style="fill:#fff; fill-rule:evenodd;"/></g><g><path d="M490.61,702.98l-21.11-49.08-106.48,45.81c-17.69,7.61-25.94,28.31-18.33,46.01l45.81,106.47,49.08-21.11c3.36-2.43,5.8-7.89,3.67-12.05-3.69-7.23-18.9-6.93-24.7-18.36-6.42-12.67,1.92-28.79,16.8-35.2,14.88-6.4,32.32-1.36,37.11,12.01,4.31,12.06-6.36,22.91-3.66,30.56,1.56,4.4,7.21,6.38,11.28,5.62l49.08-21.12-21.11-49.07c-.77-4.07,1.22-9.72,5.62-11.28,7.65-2.7,18.49,7.97,30.56,3.66,13.36-4.78,18.41-22.22,12-37.1-6.4-14.89-22.54-23.22-35.19-16.8-11.42,5.8-11.13,21-18.35,24.7-4.16,2.13-9.63-.32-12.05-3.67Z" style="fill:#c3dffa; fill-rule:evenodd;"/><path d="M492.13,687.73l-20.62-47.93-105.34,45.31c-8.53,3.67-14.79,10.5-17.99,18.54h0c-3.2,8.04-3.35,17.3,.31,25.84l45.32,105.34,47.82-20.58c1.52-1.14,2.83-3.02,3.45-5.07,.55-1.79,.56-3.69-.28-5.32-1.44-2.81-5.14-4.45-9.25-6.27-5.65-2.51-12.02-5.33-15.45-12.09h0c-.21-.43-.41-.84-.58-1.25-2.71-6.29-2.14-13.26,.84-19.52,2.95-6.19,8.27-11.71,15.12-15.19,.68-.34,1.36-.66,2.02-.95,.67-.29,1.36-.56,2.08-.81,7.24-2.59,14.91-2.66,21.43-.55,6.6,2.14,12.06,6.53,14.77,12.82,.17,.39,.33,.81,.49,1.26h0c2.55,7.14,.21,13.72-1.85,19.54-1.51,4.24-2.86,8.05-1.81,11.02,.61,1.73,2,3.04,3.68,3.88,1.92,.94,4.17,1.3,6.05,.98l47.83-20.59-20.62-47.93-.08-.26c-.46-2.42-.05-5.33,1.17-7.77,1.1-2.21,2.87-4.07,5.26-4.91,3.8-1.34,8.01,.16,12.69,1.81h0c5.42,1.93,11.55,4.1,17.86,1.85,.36-.13,.74-.28,1.12-.44,5.6-2.41,9.52-7.3,11.44-13.24,1.96-6.02,1.88-13.12-.52-19.83-.22-.63-.48-1.27-.76-1.93-.28-.65-.58-1.28-.88-1.88-3.23-6.36-8.32-11.29-14.04-14.01-5.64-2.68-11.88-3.21-17.47-.8-.39,.17-.76,.34-1.1,.52-5.97,3.03-8.61,8.97-10.94,14.23-2.01,4.55-3.83,8.63-7.41,10.47-2.26,1.16-4.82,1.16-7.18,.44-2.61-.8-5.01-2.5-6.45-4.49l-.14-.24h0Zm-18.83-50.06l21.07,48.96c1.15,1.52,3.02,2.83,5.07,3.45,1.79,.55,3.69,.56,5.33-.28,2.8-1.43,4.44-5.13,6.27-9.25,2.5-5.65,5.33-12.02,12.09-15.45h0c.43-.21,.84-.41,1.24-.58,6.29-2.71,13.26-2.14,19.52,.84,6.19,2.95,11.71,8.27,15.19,15.12,.34,.68,.66,1.36,.95,2.03,.28,.67,.56,1.36,.81,2.08,2.59,7.24,2.66,14.91,.54,21.43-2.14,6.6-6.52,12.06-12.82,14.76-.39,.17-.81,.33-1.26,.49h0c-7.14,2.55-13.71,.22-19.53-1.85h0c-4.24-1.5-8.06-2.86-11.03-1.81-1.73,.61-3.04,2-3.87,3.68-.96,1.92-1.3,4.17-.98,6.05l21.07,48.96,.49,1.15-1.14,.5-49.08,21.11-.26,.07c-2.42,.46-5.33,.05-7.77-1.16-2.21-1.1-4.07-2.87-4.92-5.25-1.34-3.8,.16-8.01,1.82-12.69,1.93-5.42,4.1-11.55,1.85-17.86-.13-.36-.28-.73-.44-1.12-2.4-5.6-7.3-9.52-13.24-11.44-6.02-1.96-13.12-1.88-19.83,.52-.63,.23-1.27,.48-1.93,.76-.66,.28-1.29,.58-1.89,.88-6.36,3.22-11.28,8.32-14.01,14.04-2.68,5.63-3.2,11.88-.8,17.47,.16,.39,.34,.75,.51,1.09,3.03,5.97,8.97,8.61,14.24,10.94,4.54,2.01,8.63,3.82,10.46,7.41,1.16,2.26,1.16,4.82,.44,7.17-.8,2.61-2.5,5-4.5,6.44l-.23,.14-49.08,21.12-1.14,.48-.49-1.14-45.81-106.48c-3.94-9.16-3.78-19.1-.34-27.73h0c3.44-8.64,10.16-15.97,19.32-19.91l106.48-45.81,1.14-.49,.49,1.15Z" style="fill:#fff; fill-rule:evenodd;"/></g><g><path d="M262.44,1372.35l33.98-41.24-89.46-73.71c-14.87-12.25-37.05-10.12-49.3,4.75l-73.71,89.46,41.23,33.98c3.7,1.88,9.68,1.55,12.4-2.25,4.73-6.59-2.49-19.98,5.01-30.36,8.32-11.5,26.48-11.47,38.98-1.17,12.51,10.31,16,28.12,6.31,38.49-8.76,9.35-23.28,4.83-28.85,10.73-3.2,3.4-2.38,9.33,.16,12.6l41.23,33.98,33.98-41.24c3.27-2.54,9.2-3.36,12.6-.16,5.9,5.56,1.37,20.09,10.73,28.85,10.36,9.69,28.18,6.2,38.48-6.31,10.31-12.51,10.34-30.67-1.16-38.98-10.38-7.51-23.77-.29-30.36-5.02-3.8-2.72-4.12-8.7-2.25-12.39Z" style="fill:#ffe2dc; fill-rule:evenodd;"/><path d="M276.69,1366.72l33.19-40.27-88.5-72.92c-7.16-5.9-16.1-8.34-24.72-7.5h0c-8.62,.82-16.92,4.92-22.83,12.09l-72.92,88.5,40.18,33.11c1.72,.83,3.97,1.13,6.08,.75,1.84-.33,3.53-1.19,4.6-2.68,1.84-2.56,1.6-6.6,1.34-11.1-.36-6.16-.76-13.12,3.68-19.26h0c.28-.38,.56-.76,.83-1.08,4.36-5.29,10.81-7.97,17.75-8.19,6.85-.21,14.19,2,20.42,6.51,.62,.44,1.21,.91,1.77,1.37,.56,.46,1.12,.95,1.67,1.47,5.61,5.25,9.19,12.04,10.29,18.81,1.12,6.85-.29,13.71-4.64,19-.27,.33-.57,.67-.9,1.01h0c-5.18,5.54-12.09,6.47-18.21,7.3-4.46,.6-8.48,1.15-10.64,3.44-1.26,1.33-1.78,3.17-1.75,5.03,.03,2.15,.75,4.3,1.89,5.83l40.18,33.11,33.18-40.27,.2-.18c1.95-1.52,4.72-2.49,7.45-2.52,2.47-.04,4.93,.69,6.77,2.44,2.93,2.75,3.52,7.18,4.19,12.11h0c.77,5.71,1.64,12.15,6.53,16.73,.28,.27,.59,.53,.91,.8,4.71,3.88,10.85,5.12,17.01,4.11,6.24-1.01,12.52-4.33,17.39-9.54,.45-.49,.91-1,1.36-1.55,.46-.55,.88-1.1,1.28-1.65,4.18-5.77,6.23-12.56,6.04-18.88-.2-6.25-2.59-12.04-7.29-15.91-.32-.27-.64-.52-.96-.74-5.43-3.92-11.92-3.55-17.66-3.22-4.96,.29-9.43,.55-12.7-1.79-2.06-1.48-3.24-3.76-3.68-6.19-.49-2.67-.07-5.59,1.04-7.79l.15-.23h0Zm35.9-39.65l-33.9,41.14c-.83,1.72-1.13,3.98-.75,6.09,.34,1.84,1.2,3.54,2.69,4.61,2.56,1.83,6.6,1.6,11.1,1.33,6.16-.35,13.12-.76,19.27,3.68h0c.38,.28,.75,.57,1.08,.83,5.29,4.36,7.97,10.81,8.19,17.75,.21,6.85-2,14.2-6.5,20.42-.44,.62-.9,1.21-1.36,1.78-.46,.56-.96,1.12-1.47,1.67-5.25,5.62-12.04,9.19-18.81,10.29-6.85,1.11-13.71-.29-19-4.64-.33-.28-.67-.58-1.01-.91h0c-5.53-5.17-6.46-12.09-7.29-18.2h0c-.6-4.46-1.15-8.48-3.44-10.64-1.33-1.25-3.17-1.78-5.04-1.75-2.15,.02-4.31,.75-5.83,1.89l-33.9,41.14-.8,.96-.96-.79-41.23-33.97-.19-.2c-1.52-1.95-2.48-4.72-2.52-7.45-.03-2.47,.69-4.93,2.43-6.77,2.76-2.93,7.19-3.53,12.12-4.2,5.7-.76,12.15-1.64,16.72-6.52,.26-.29,.53-.59,.8-.91,3.88-4.71,5.12-10.84,4.11-17.01-1.01-6.25-4.33-12.52-9.53-17.39-.49-.46-1.01-.92-1.56-1.37-.56-.46-1.1-.89-1.65-1.28-5.77-4.18-12.56-6.22-18.89-6.03-6.24,.19-12.03,2.58-15.91,7.28-.27,.33-.52,.65-.74,.96-3.93,5.43-3.55,11.92-3.21,17.66,.28,4.96,.55,9.42-1.8,12.69-1.48,2.06-3.75,3.24-6.18,3.68-2.69,.48-5.6,.07-7.79-1.05l-.23-.14-41.23-33.97-.96-.8,.79-.96,73.71-89.46c6.34-7.7,15.26-12.09,24.51-12.99h0c9.25-.9,18.84,1.72,26.54,8.06l89.46,73.72,.96,.78-.79,.96Z" style="fill:#fff; fill-rule:evenodd;"/></g><g><path d="M1572.4,395.04l7.15,2.32c2.81,.92,5,2.91,6.26,5.36,1.24,2.46,1.56,5.39,.64,8.21l-.61,1.87,140.21,45.69,5.53,1.8,1.59,.52c2.3,.75,4.09,2.37,5.11,4.38,1.01,2,1.28,4.4,.53,6.71l-11.31,34.66c-.75,2.3-2.36,4.09-4.37,5.11-2.01,1.02-4.41,1.28-6.7,.53l-7.13-2.32c-2.29-.75-4.09-2.37-5.1-4.38-1.02-2.01-1.28-4.41-.53-6.71l5.88-18.05-5.17-1.69-1.8,5.52c-.54,1.67-1.72,2.96-3.17,3.7-1.44,.74-3.18,.93-4.85,.38l-4.81-1.56c-1.66-.54-2.96-1.72-3.7-3.17-.74-1.45-.92-3.19-.38-4.85l1.8-5.52-109.76-35.76-1.32,4.08c-.92,2.82-2.91,5-5.36,6.25-2.45,1.25-5.4,1.56-8.21,.65l-7.15-2.32c-4.69,10.5-12.82,18.69-22.59,23.65-11.22,5.71-24.6,7.16-37.45,2.97-12.84-4.19-22.81-13.24-28.52-24.46-5.71-11.22-7.15-24.61-2.97-37.45l13.53-41.5c4.19-12.84,13.24-22.81,24.46-28.51,11.22-5.7,24.6-7.15,37.45-2.97,12.84,4.19,22.81,13.24,28.5,24.46,4.97,9.76,6.71,21.16,4.32,32.43h0Zm-32.02-14.9c-.78-2.6-2.17-5-4.07-6.96-1.81-1.88-4.12-3.36-6.77-4.22-4.37-1.43-8.92-.93-12.75,1.01-3.82,1.94-6.9,5.33-8.32,9.7l-13.53,41.5c-.9,2.76-1.03,5.6-.52,8.28,.53,2.78,1.76,5.39,3.57,7.57,.99,1.2,2.15,2.28,3.46,3.16,1.25,.86,2.66,1.56,4.21,2.06,4.37,1.42,8.92,.93,12.74-1.01h0c3.81-1.95,6.9-5.34,8.32-9.71l13.53-41.5c.54-1.64,.79-3.3,.81-4.93,.03-1.69-.22-3.37-.68-4.96h0Zm-2.19-8.78c-2.12-2.18-4.77-3.89-7.84-4.89-5.06-1.65-10.34-1.08-14.75,1.16-4.41,2.24-7.98,6.17-9.63,11.23l-13.53,41.5c-1.04,3.2-1.19,6.48-.6,9.58,.62,3.22,2.05,6.24,4.12,8.75,1.14,1.38,2.49,2.62,4.01,3.66,1.47,1,3.1,1.82,4.86,2.39,5.05,1.64,10.33,1.07,14.75-1.17h0c4.42-2.24,7.98-6.16,9.63-11.23l13.53-41.5c.62-1.88,.92-3.81,.94-5.71,.03-1.96-.25-3.9-.8-5.75-.89-3-2.51-5.77-4.69-8.03h0Zm15.38,73.29l.14-.34,.02-.03v-.03s.02-.03,.02-.03l.02-.03v-.03s.02-.03,.02-.03l.02-.03v-.03s.02-.03,.02-.03l.02-.03v-.02s.02-.03,.02-.03l.02-.03v-.03s.02-.03,.02-.03l.02-.03v-.03s.02-.03,.02-.03l.02-.03v-.03l.02-.03v-.03s.02-.03,.02-.03l.02-.03v-.03s.02-.03,.02-.03h0s.02-.03,.02-.03l.02-.05,.02-.03c.27-.71,.53-1.43,.78-2.16l.02-.03v-.03l.04-.12v-.03s.02-.03,.02-.03l.05-.12v-.03l.02-.03v-.03s.02-.03,.02-.03l.02-.03v-.03l13.53-41.5v-.04s.02-.03,.02-.03l.02-.03v-.03l.02-.03v-.03l.04-.09v-.03s.02-.03,.02-.03v-.03s.04-.12,.04-.12v-.03s.03-.03,.03-.03v-.03h0s.02-.03,.02-.03v-.03l.12-.4v-.03s.02-.05,.02-.05l.02-.03h0v-.03c.12-.41,.25-.82,.36-1.24v-.03s.02-.03,.02-.03l.03-.11v-.03s0-.03,0-.03l.02-.03v-.05s.02-.03,.02-.03v-.03l.02-.03v-.05h0v-.03s.02-.03,.02-.03v-.03s0-.03,0-.03l.02-.03v-.06s.02-.03,.02-.03v-.03s.02-.03,.02-.03v-.06s.02-.03,.02-.03v-.03s.02-.03,.02-.03v-.03l.02-.03v-.06h0v-.03s0-.03,0-.03l.02-.04v-.03l.02-.03v-.06s.09-.36,.09-.36c2.51-10.91,.89-21.99-3.91-31.44-5.4-10.63-14.83-19.2-26.99-23.16-12.16-3.96-24.83-2.59-35.45,2.81-10.62,5.4-19.2,14.83-23.16,26.98l-13.52,41.5c-3.96,12.16-2.59,24.83,2.81,35.44,5.4,10.62,14.83,19.2,26.99,23.16,12.15,3.96,24.82,2.59,35.45-2.81,9.46-4.81,17.3-12.82,21.69-23.09h0Zm18.21-47.04c-.13,.51-.28,1.02-.44,1.52l-.02,.03v.03l-.02,.03v.03l-.02,.03v.03l-.02,.03v.06s-.02,.03-.02,.03l-.02,.03h0v.06s-.02,.03-.02,.03l-.02,.03v.06s-.02,.03-.02,.03l-.02,.03v.03l-.02,.03v.03l-.02,.03v.03l-.02,.03v.05s-.02,.03-.02,.03v.03s-.02,.03-.02,.03v.03s-.02,.03-.02,.03v.03s-13.54,41.5-13.54,41.5v.02s-.02,.03-.02,.03v.03s-.02,.03-.02,.03v.02s-.02,.03-.02,.03v.03s-.03,.05-.03,.05v.03s-.02,.03-.02,.03v.03s-.02,.03-.02,.03v.03s-.02,.03-.02,.03l-.02,.03v.03l-.02,.03v.03s-.02,.03-.02,.03v.03s0,.01,0,.01v.02s-.02,.03-.02,.03v.03s-.03,.03-.03,.03v.03l-.02,.03v.03s-.02,.03-.02,.03l-.02,.03v.03l-.02,.03v.03l-.02,.03v.03s-.02,.03-.02,.03l-.02,.03c-.16,.46-.32,.92-.5,1.36l6.95,2.26c2.12,.69,4.35,.45,6.2-.49,1.86-.95,3.36-2.6,4.05-4.72l1.33-4.08,.41-1.25,7.32-22.48,.41-1.24,.6-1.87c.7-2.12,.45-4.35-.49-6.21-.94-1.86-2.6-3.36-4.73-4.05l-6.94-2.26h0Zm13.24,17.7l-6.51,19.97,111,36.17,1.25,.4-.41,1.25-2.2,6.77c-.32,.98-.2,2,.22,2.85,.44,.85,1.2,1.55,2.18,1.86l4.81,1.57c.98,.32,1.99,.2,2.84-.23,.85-.43,1.55-1.19,1.87-2.17l2.21-6.77,.41-1.25,1.24,.41,7.68,2.5,1.24,.41-.4,1.25-6.29,19.3c-.53,1.61-.35,3.29,.37,4.7,.71,1.41,1.96,2.55,3.57,3.08l7.12,2.32c1.61,.52,3.3,.34,4.7-.37,1.41-.72,2.54-1.97,3.08-3.58l11.29-34.66c.53-1.61,.35-3.29-.37-4.7-.71-1.41-1.96-2.55-3.57-3.07l-1.6-.52-5.52-1.8-140.22-45.69Z" style="fill:#fc9774; fill-rule:evenodd;"/><path d="M1539.17,339.4c23.75,7.74,37.38,32.61,31.68,56.51l8.28,2.7c4.94,1.61,7.67,6.97,6.06,11.91l-1.01,3.12,141.46,46.1,5.53,1.8,1.6,.52c3.91,1.28,6.06,5.52,4.79,9.43l-11.3,34.66c-1.28,3.92-5.51,6.07-9.43,4.8l-7.12-2.32c-3.91-1.28-6.06-5.52-4.79-9.43l6.28-19.3-7.67-2.5-2.21,6.77c-.85,2.64-3.72,4.1-6.36,3.24l-4.81-1.56c-2.64-.86-4.1-3.72-3.25-6.37l2.2-6.76-112.25-36.58-1.74,5.33c-1.6,4.95-6.97,7.67-11.91,6.06l-8.29-2.7c-9.48,22.67-35.15,34.73-58.9,27-25-8.15-38.79-35.26-30.64-60.26l13.52-41.5c8.15-25,35.26-38.79,60.27-30.64h0Zm-9.23,28.31c-9.43-3.08-19.66,2.12-22.72,11.55l-13.53,41.5c-3.08,9.43,2.12,19.65,11.56,22.73h0c9.42,3.07,19.64-2.13,22.72-11.56l13.53-41.5c3.07-9.42-2.13-19.65-11.55-22.72h0Z" style="fill:#fc9774; fill-rule:evenodd;"/><g style="opacity:.54;"><path d="M1539.17,339.4c13.42,4.37,23.61,14.22,28.91,26.27-5.75-9.07-14.54-16.28-25.49-19.84-25-8.15-52.11,5.64-60.25,30.64l-13.53,41.5c-3.77,11.58-2.84,23.62,1.74,34.02-7.39-11.65-9.74-26.38-5.16-40.44l13.52-41.5c8.15-25,35.26-38.79,60.27-30.64h0Zm31.68,56.51l8.28,2.7c3.68,1.2,6.12,4.47,6.48,8.1-.88-.72-1.91-1.3-3.05-1.68l-8.29-2.7c.39-1.67-3.64-4.75-3.43-6.42h0Zm13.33,17.73l141.46,46.1,5.53,1.8,1.6,.52c3.18,1.04,5.21,4.05,5.16,7.25-.53-.35-1.11-.63-1.74-.83l-1.59-.52-5.52-1.8-141.47-46.09c2.29-7.01-3.72-4.09-3.42-6.43h0Zm123.78,94.15c-2.77-1.8-4.12-5.31-3.05-8.6l6.28-19.3,3.43,6.42-6.29,19.3c-.23,.72-.36,1.46-.37,2.18h0Zm-17.63-21.91l-.19-.06c-2.64-.86-4.1-3.72-3.25-6.37l2.2-6.76,3.43,6.42-2.21,6.76h0Zm-148.7-106.12c1,3.38,1.04,7.09-.13,10.67l-13.53,41.5c-3.08,9.43-13.3,14.63-22.72,11.56h0c-3.35-1.1-6.17-3.09-8.27-5.64,1.64,5.5,5.85,10.15,11.69,12.06h0c9.43,3.07,19.65-2.13,22.73-11.56l13.51-41.5c1.99-6.08,.53-12.48-3.28-17.1Z" style="fill:#ffe2dc; fill-rule:evenodd;"/></g></g><g><polygon points="1863.1 466.33 1917.25 453.31 1917.03 514.18 1863.1 526.23 1863.1 466.33" style="fill:#fc9774; fill-rule:evenodd;"/><polygon points="1863.1 466.33 1816.33 453.1 1816.33 513.64 1863.1 526.23 1863.1 466.33" style="fill:#ffe2dc; fill-rule:evenodd;"/><polygon points="1863.1 466.33 1917.25 453.31 1871.71 438.56 1816.33 453.1 1863.1 466.33" style="fill:#fec0ac; fill-rule:evenodd;"/><path d="M1915.9,453.26l-44.2-14.33-53.98,14.17,45.39,12.85,52.8-12.69h0Zm1.37-.33l.39-.09v.47l-.22,60.87v.28l-.31,.07-53.62,11.97v.2l-.43-.11-.4,.09v-.2l-46.48-12.51-.28-.08v-61.31l.41,.12,55.27-14.51h.25s45.42,14.72,45.42,14.72h0Zm-.43,.85l-.22,60.12-53.11,11.86v-59.15l53.33-12.82h0Zm-67.66,8.99l13.5,3.83v59.14l-45.95-12.37v-59.79l32.44,9.18Z" style="fill:#1e77d1; fill-rule:evenodd;"/></g><g><polygon points="1890.28 382.72 1941.67 361.28 1951.12 421.41 1899.78 441.86 1890.28 382.72" style="fill:#d2e5f7; fill-rule:evenodd;"/><polygon points="1890.28 382.72 1842 377.08 1851.61 436.85 1899.78 441.86 1890.28 382.72" style="fill:#a4d0fc; fill-rule:evenodd;"/><polygon points="1890.28 382.72 1941.67 361.28 1894.38 353.93 1842 377.08 1890.28 382.72" style="fill:#eff9fc; fill-rule:evenodd;"/><path d="M1940.34,361.44l-45.92-7.13-51.05,22.56,46.85,5.48,50.12-20.92h0Zm1.3-.54l.37-.16,.07,.47,9.44,60.13,.04,.28-.29,.12-51.04,20.33,.04,.2-.44-.05-.37,.15-.04-.19-47.87-4.97-.3-.03-.04-.26-9.61-59.78-.08-.49,.43,.05,52.27-23.09,.25-.04,47.18,7.32h0Zm-.28,.91l9.32,59.39-50.56,20.14-9.39-58.41,50.63-21.12h0Zm-65.39,19.61l13.95,1.64,9.39,58.39-47.33-4.92-9.48-59.03,33.48,3.92Z" style="fill:#1e77d1; fill-rule:evenodd;"/></g><g><polygon points="1946.63 484.62 1993.65 454.75 2013.18 512.4 1966.07 541.28 1946.63 484.62" style="fill:#a4d0fc; fill-rule:evenodd;"/><polygon points="1946.63 484.62 1898.11 487.26 1917.74 544.54 1966.07 541.28 1946.63 484.62" style="fill:#c3dffa; fill-rule:evenodd;"/><polygon points="1946.63 484.62 1993.65 454.75 1945.78 455.55 1898.11 487.26 1946.63 484.62" style="fill:#eff9fc; fill-rule:evenodd;"/><path d="M1992.36,455.14l-46.46,.78-46.48,30.91,47.11-2.56,45.83-29.13h0Zm1.19-.75l.34-.22,.14,.45,19.54,57.65,.09,.27-.27,.16-46.84,28.71,.06,.2-.44,.03-.36,.21-.05-.19-48.03,3.23-.3,.02-.08-.25-19.64-57.27-.16-.47,.43-.02,47.58-31.64,.24-.08,47.74-.8h0Zm-.13,.95l19.28,56.94-46.4,28.44-19.18-55.96,46.3-29.42h0Zm-61.09,30.44l14.02-.76,19.17,55.95-47.47,3.2-19.39-56.55,33.67-1.83Z" style="fill:#1e77d1; fill-rule:evenodd;"/></g><g><rect x="2014.84" y="712.95" width="189.55" height="259.98" transform="translate(261.14 2163.6) rotate(-57.32)" style="fill:#99c5f2;"/><rect x="2019.8" y="717.91" width="179.62" height="250.06" transform="translate(261.12 2163.58) rotate(-57.32)" style="fill:#c3dffa;"/><path d="M1962.67,854.19c59.12,27.79,91.95,49.23,98.45,64.34l96.98-151.19c-6.51-15.12-39.33-36.56-98.46-64.34l-96.97,151.19Z" style="fill:#fff; fill-rule:evenodd;"/><path d="M2061.12,918.54c27.84,4.88,62.54,42.04,102.68,54.05l84.01-130.97,12.97-20.22c-40.15-12.03-74.84-49.18-102.68-54.06,33.58,34.26,58.99,56.8,76.22,67.64l-76.88,119.85c-35.89-.64-68.76-40.61-96.32-36.29Z" style="fill:#d2e5f7; fill-rule:evenodd;"/><path d="M2061.12,918.54c27.55-4.32,60.43,35.65,96.32,36.29l80.77-125.93,16.2-25.27c-35.89-.63-68.76-40.6-96.32-36.29l-96.98,151.19Z" style="fill:#fff; fill-rule:evenodd;"/><path d="M2125.33,770.27c-5.17-4.32-11.4-8.65-18.71-13-13.75-8.19-31.27-16.42-52.56-24.7l.89-2.24c21.4,8.32,39.05,16.62,52.91,24.87,7.31,4.35,13.56,8.69,18.79,13.03l-1.32,2.04h0Zm-48.55,104.2c-6.17-8.03-16.1-16.11-29.78-24.25-13.75-8.19-31.27-16.43-52.55-24.7l.87-2.25c21.42,8.33,39.06,16.62,52.92,24.87,13.93,8.3,24.09,16.59,30.44,24.85l-1.91,1.48h0Zm7.46-11.63l1.91-1.47c-6.37-8.27-16.52-16.55-30.45-24.84-13.87-8.27-31.5-16.55-52.92-24.87l-.87,2.24c21.28,8.28,38.81,16.51,52.55,24.69,13.68,8.15,23.61,16.23,29.79,24.25h0Zm7.45-11.61l1.91-1.48c-6.37-8.27-16.52-16.55-30.45-24.85-13.87-8.25-31.5-16.54-52.91-24.87l-.89,2.24c21.28,8.28,38.81,16.52,52.56,24.7,13.68,8.15,23.6,16.23,29.78,24.26h0Zm7.46-11.63l1.9-1.48c-6.36-8.27-16.51-16.54-30.45-24.84-13.87-8.26-31.5-16.54-52.91-24.87l-.89,2.25c21.3,8.27,38.81,16.5,52.57,24.69,13.67,8.14,23.6,16.23,29.78,24.25h0Zm-3.63-22.86c-5.16-4.32-11.4-8.66-18.7-13-13.76-8.19-31.27-16.43-52.56-24.7l.88-2.24c21.41,8.32,39.06,16.61,52.92,24.87,7.3,4.35,13.55,8.69,18.78,13.03l-1.32,2.04h0Zm7.46-11.63l1.31-2.04c-5.22-4.34-11.48-8.68-18.77-13.02-13.87-8.26-31.51-16.54-52.92-24.87l-.87,2.25c21.28,8.27,38.8,16.5,52.55,24.7,7.31,4.35,13.55,8.68,18.71,13h0Zm7.45-11.61l1.31-2.04c-5.22-4.34-11.49-8.69-18.77-13.03-13.87-8.26-31.5-16.55-52.92-24.88l-.87,2.25c21.28,8.27,38.8,16.51,52.55,24.69,7.31,4.36,13.55,8.69,18.71,13.01h0Zm7.46-11.63l1.31-2.04c-5.22-4.34-11.48-8.68-18.78-13.03-13.87-8.25-31.5-16.55-52.91-24.87l-.88,2.24c21.29,8.28,38.81,16.51,52.56,24.7,7.31,4.35,13.54,8.68,18.71,13Z" style="fill:#99c5f2; fill-rule:evenodd;"/><path d="M2143.7,750.84l-44.7,69.68,9.75,1.33,1.25,11.3,45.3-70.62c-2.61-3.6-6.47-7.49-11.59-11.69Z" style="fill:#99c5f2; fill-rule:evenodd;"/><path d="M2158.78,786.51c12.13,1.09,28.27,10.23,42.91,18.52,12.1,6.85,23.17,13.12,29.67,13.58l-.18,2.4c-7.06-.5-18.34-6.89-30.68-13.88-14.42-8.16-30.31-17.17-41.94-18.22l.22-2.4h0Zm-65.48,102.1c12.12,1.1,28.27,10.24,42.91,18.54,12.1,6.84,23.15,13.12,29.66,13.56l-.18,2.41c-7.06-.49-18.33-6.89-30.67-13.88-14.42-8.18-30.31-17.17-41.95-18.23l.23-2.41h0Zm6.54-10.21l-.21,2.4c11.63,1.06,27.52,10.06,41.94,18.22,12.34,7,23.63,13.4,30.68,13.88l.17-2.4c-6.52-.46-17.57-6.72-29.66-13.58-14.65-8.29-30.77-17.43-42.91-18.53h0Zm6.55-10.21l-.22,2.41c11.63,1.05,27.52,10.05,41.94,18.22,12.34,7,23.63,13.39,30.68,13.88l.18-2.41c-6.52-.45-17.57-6.72-29.67-13.57-14.63-8.3-30.77-17.44-42.91-18.53h0Zm6.55-10.21l-.22,2.41c11.63,1.06,27.53,10.05,41.94,18.23,12.35,6.99,23.63,13.39,30.68,13.88l.17-2.41c-6.51-.45-17.56-6.72-29.66-13.57-14.64-8.29-30.77-17.43-42.91-18.53h0Zm6.54-10.2c12.14,1.09,28.28,10.23,42.92,18.52,12.09,6.86,23.15,13.12,29.66,13.58l-.17,2.4c-7.06-.49-18.35-6.88-30.68-13.88-14.42-8.16-30.31-17.17-41.94-18.22l.21-2.4h0Zm6.55-10.21c12.14,1.09,28.27,10.23,42.91,18.53,12.11,6.85,23.16,13.12,29.67,13.57l-.18,2.41c-7.06-.5-18.34-6.9-30.68-13.89-14.42-8.17-30.3-17.17-41.94-18.22l.22-2.41h0Zm6.55-10.21c12.14,1.1,28.27,10.24,42.91,18.53,12.1,6.85,23.16,13.12,29.66,13.57l-.17,2.41c-7.05-.49-18.34-6.89-30.67-13.88-14.42-8.17-30.31-17.16-41.95-18.22l.22-2.41h0Zm6.55-10.2l-.22,2.4c11.63,1.05,27.52,10.06,41.94,18.22,12.34,7,23.62,13.4,30.68,13.88l.18-2.4c-6.52-.46-17.57-6.72-29.67-13.58-14.64-8.29-30.77-17.44-42.91-18.52h0Zm6.55-10.22l-.22,2.42c11.63,1.05,27.52,10.04,41.94,18.22,12.35,6.99,23.63,13.39,30.68,13.88l.18-2.41c-6.51-.45-17.56-6.73-29.66-13.57-14.64-8.3-30.77-17.44-42.9-18.54h0Zm6.54-10.21l-.21,2.41c11.63,1.05,27.52,10.05,41.94,18.22,12.34,7,23.62,13.4,30.68,13.88l.17-2.41c-6.51-.45-17.57-6.72-29.66-13.57-14.64-8.29-30.77-17.43-42.92-18.53Z" style="fill:#99c5f2; fill-rule:evenodd;"/></g><g><path d="M433.32,1030.97l-6.7-2.99c-2.64-1.18-5.52-1.17-8.04-.21-2.52,.96-4.67,2.87-5.85,5.51l-.78,1.76-131.46-58.76-5.18-2.31-1.49-.68c-2.16-.96-4.52-.96-6.57-.17-2.05,.78-3.81,2.35-4.78,4.51l-14.52,32.5c-.96,2.16-.96,4.52-.17,6.57,.79,2.05,2.36,3.81,4.51,4.77l6.68,2.99c2.16,.96,4.52,.96,6.57,.18,2.05-.79,3.81-2.36,4.78-4.52l7.56-16.92,4.85,2.17-2.31,5.17c-.7,1.56-.69,3.27-.13,4.75,.57,1.49,1.7,2.76,3.27,3.46l4.51,2.01c1.56,.71,3.27,.69,4.75,.13,1.49-.57,2.76-1.7,3.46-3.26l2.32-5.17,102.9,45.98-1.71,3.83c-1.18,2.63-1.17,5.52-.21,8.04,.96,2.51,2.88,4.66,5.52,5.85l6.69,2.99c-3.47,10.68-2.95,21.94,.87,31.93,4.39,11.48,13.13,21.3,25.18,26.68,12.04,5.38,25.19,5.34,36.67,.96,11.48-4.38,21.3-13.13,26.68-25.18l17.39-38.91c5.38-12.04,5.35-25.18,.96-36.67-4.39-11.48-13.13-21.3-25.17-26.68-12.04-5.37-25.19-5.34-36.67-.95-9.99,3.81-18.72,10.93-24.36,20.65h0Zm32.95,10.19c2.26-1.38,4.84-2.21,7.5-2.38,2.55-.16,5.18,.27,7.68,1.39,4.09,1.83,7.07,5.17,8.56,9.08,1.49,3.9,1.5,8.37-.32,12.47l-17.39,38.91c-1.16,2.59-2.92,4.75-5.05,6.35-2.2,1.65-4.81,2.74-7.54,3.14-1.51,.22-3.05,.24-4.57,.03-1.48-.2-2.96-.62-4.39-1.26-4.1-1.83-7.08-5.17-8.57-9.08h0c-1.49-3.92-1.51-8.39,.32-12.49l17.39-38.91c.68-1.54,1.58-2.91,2.64-4.11,1.09-1.23,2.36-2.29,3.75-3.14h0Zm7.33-4.92c2.96-.2,6,.3,8.88,1.58,4.74,2.12,8.19,5.99,9.92,10.51,1.73,4.52,1.74,9.71-.38,14.44l-17.39,38.91c-1.34,3-3.38,5.48-5.84,7.33-2.56,1.93-5.56,3.17-8.72,3.64-1.72,.25-3.51,.27-5.29,.02-1.73-.23-3.44-.71-5.09-1.45-4.74-2.12-8.18-5.98-9.91-10.51h0c-1.72-4.52-1.74-9.7,.38-14.44l17.39-38.91c.79-1.78,1.83-3.37,3.05-4.76,1.27-1.42,2.74-2.65,4.35-3.63,2.61-1.59,5.59-2.54,8.66-2.74h0Zm-59.14,42.98l.12-.34v-.03s.02-.03,.02-.03v-.04s.02-.02,.02-.02v-.04s.02-.04,.02-.04v-.02s.02-.04,.02-.04v-.03s.03-.03,.03-.03v-.04s.02-.02,.02-.02v-.03s.02-.03,.02-.03v-.03s.02-.04,.02-.04v-.02s.02-.04,.02-.04v-.02s.02-.04,.02-.04v-.03s.02-.03,.02-.03v-.04s.02-.02,.02-.02v-.04s.02-.02,.02-.02v-.02s.01-.02,.01-.02l.02-.05v-.03c.27-.69,.56-1.39,.85-2.07v-.04s.03-.03,.03-.03l.05-.12v-.02s.03-.04,.03-.04l.05-.11v-.04s.02-.03,.02-.03v-.03s.03-.04,.03-.04v-.02s.03-.04,.03-.04l17.39-38.92v-.02s.03-.04,.03-.04v-.03s.03-.03,.03-.03v-.04s.02-.02,.02-.02l.04-.09v-.03s.03-.03,.03-.03v-.04s.06-.11,.06-.11v-.03s.03-.03,.03-.03v-.03s.01,0,.01,0v-.02s.02-.03,.02-.03l.17-.36v-.03s.04-.05,.04-.05v-.03h.01v-.03c.19-.38,.38-.75,.57-1.12v-.03s.03-.03,.03-.03l.05-.1v-.04s.03-.02,.03-.02v-.03s.03-.03,.03-.03v-.03s.02-.03,.02-.03l.02-.02v-.03s.03-.02,.03-.02v-.03s.01,0,.01,0v-.02s.03-.04,.03-.04v-.02s.02-.03,.02-.03l.02-.03v-.03s.03-.03,.03-.03v-.03s.03-.03,.03-.03v-.03s.03-.03,.03-.03v-.03s.03-.03,.03-.03v-.03s.03-.03,.03-.03v-.03s.03-.03,.03-.03l.02-.03v-.03h.01v-.04s.03-.02,.03-.02v-.04s.03-.02,.03-.02l.02-.04v-.02s.03-.04,.03-.04l.17-.32c5.33-9.53,13.76-16.5,23.43-20.2,10.87-4.15,23.32-4.19,34.71,.91,11.39,5.09,19.67,14.38,23.83,25.25,4.16,10.87,4.19,23.32-.9,34.71l-17.39,38.91c-5.09,11.4-14.39,19.67-25.25,23.83-10.87,4.15-23.31,4.18-34.71-.91-11.4-5.09-19.67-14.38-23.82-25.26-3.7-9.67-4.13-20.6-.59-30.93h0Zm17.62-45.99c-.23,.46-.46,.92-.68,1.4v.03s-.03,.03-.03,.03v.03s-.02,.03-.02,.03v.03s-.03,.03-.03,.03v.03s-.02,.03-.02,.03l-.02,.03v.03s-.02,.02-.02,.02v.02s-.01,.02-.01,.02v.02s-.02,.03-.02,.03v.03s-.03,.03-.03,.03v.02s-.02,.03-.02,.03v.03s-.03,.03-.03,.03v.03s-.02,.03-.02,.03v.03s-.03,.03-.03,.03v.03s-.02,.02-.02,.02v.04s-.03,.02-.03,.02v.04s-.02,.02-.02,.02v.03s-.02,.03-.02,.03v.03s-17.4,38.91-17.4,38.91v.04s-.02,.02-.02,.02v.03s-.02,.03-.02,.03v.03s-.02,.03-.02,.03v.03s-.04,.05-.04,.05v.03s-.03,.02-.03,.02v.04s-.02,.03-.02,.03v.03s-.02,.03-.02,.03v.03s-.03,.03-.03,.03v.03s-.03,.03-.03,.03v.03s-.02,.03-.02,.03h0s0,.03,0,.03v.03s-.03,.03-.03,.03v.04s-.02,.02-.02,.02v.04s-.02,.03-.02,.03v.03s-.03,.04-.03,.04v.02s-.02,.04-.02,.04v.02s-.03,.04-.03,.04v.03s-.02,.03-.02,.03v.04c-.19,.44-.37,.87-.54,1.32l-6.51-2.92c-1.99-.89-3.44-2.52-4.17-4.43-.73-1.9-.74-4.07,.16-6.07l1.71-3.83,.52-1.16,9.42-21.08,.52-1.16,.78-1.75c.89-1.99,2.52-3.44,4.42-4.17,1.91-.73,4.08-.74,6.08,.15l6.51,2.92h0Zm-21.18,4.15l-8.37,18.73-104.07-46.51-1.17-.52-.52,1.17-2.84,6.35c-.41,.92-1.16,1.58-2.04,1.92-.87,.33-1.88,.34-2.79-.07l-4.51-2.03c-.92-.4-1.58-1.16-1.92-2.03-.33-.87-.34-1.88,.07-2.79l2.84-6.35,.52-1.17-1.17-.52-7.2-3.22-1.17-.53-.52,1.17-8.09,18.1c-.68,1.51-1.91,2.61-3.36,3.17-1.44,.55-3.09,.55-4.6-.12l-6.67-2.99c-1.51-.68-2.61-1.91-3.16-3.35-.55-1.44-.56-3.09,.12-4.61l14.52-32.5c.68-1.51,1.91-2.61,3.35-3.17,1.44-.55,3.1-.55,4.6,.12l1.49,.67,5.18,2.32,131.46,58.75Z" style="fill:#eaeff8; fill-rule:evenodd;"/><path d="M493.83,1012.45c-22.27-9.96-48.43-.87-59.96,20.18l-7.76-3.48c-4.64-2.07-10.12,.03-12.19,4.67l-1.31,2.92-132.63-59.27-5.18-2.31-1.49-.68c-3.67-1.63-8.01,.02-9.65,3.69l-14.52,32.5c-1.64,3.67,.02,8.01,3.69,9.64l6.68,2.99c3.67,1.64,8.01-.02,9.65-3.68l8.09-18.1,7.2,3.21-2.84,6.35c-1.11,2.48,.01,5.41,2.49,6.51l4.51,2.02c2.48,1.11,5.41,0,6.52-2.49l2.84-6.35,105.25,47.04-2.23,5c-2.07,4.64,.02,10.12,4.66,12.2l7.76,3.47c-7.98,22.63,2.7,48.18,24.97,58.13,23.44,10.47,51.18-.14,61.65-23.57l17.39-38.92c10.48-23.43-.13-51.18-23.57-61.65h0Zm-11.86,26.54c8.84,3.95,12.84,14.42,8.89,23.25l-17.39,38.91c-3.95,8.84-14.41,12.84-23.25,8.89h0c-8.84-3.96-12.84-14.42-8.89-23.25l17.39-38.92c3.95-8.84,14.41-12.83,23.25-8.89h0Z" style="fill:#8bbae9; fill-rule:evenodd;"/><g style="opacity:.54;"><path d="M493.83,1012.45c-12.58-5.62-26.41-5.16-38.14,.09,10.1-2.81,21.19-2.26,31.45,2.33,23.44,10.47,34.04,38.21,23.56,61.65l-17.39,38.91c-4.85,10.85-13.42,18.96-23.54,23.49,12.98-3.59,24.34-12.72,30.23-25.9l17.39-38.92c10.48-23.43-.13-51.18-23.57-61.65h0Zm-59.96,20.18l-7.76-3.48c-3.44-1.54-7.36-.77-9.99,1.63,1.11,.05,2.23,.3,3.31,.78l7.76,3.47c.8-1.47,5.74-1.06,6.68-2.4h0Zm-21.26,4.11l-132.63-59.27-5.18-2.31-1.49-.68c-3-1.33-6.43-.48-8.48,1.87,.6,.11,1.21,.29,1.8,.55l1.49,.66,5.18,2.32,132.63,59.27c2.94-6.58,5.37-.53,6.68-2.41h0Zm-151.31-12.9c.47-.53,.86-1.15,1.16-1.82l8.08-18.1,6.69-2.4-8.09,18.1c-1.38,3.08-4.66,4.75-7.85,4.22h0Zm27.13-4.31h0l2.84-6.35,6.68-2.42-2.84,6.35c-1.11,2.48-4.04,3.6-6.52,2.49l-.17-.08h0Zm177.19,20.54c-2.94,1.79-5.39,4.45-6.89,7.81l-17.39,38.92c-3.95,8.83,.05,19.3,8.89,23.25h0c3.14,1.4,6.49,1.79,9.68,1.33-4.79,2.92-10.89,3.52-16.36,1.07h0c-8.84-3.95-12.84-14.41-8.89-23.25l17.39-38.91c2.55-5.7,7.8-9.38,13.58-10.22Z" style="fill:#c3dffa; fill-rule:evenodd;"/></g></g><g><path d="M2217.76,379.51l-26.33-31.96,69.32-57.12c11.52-9.5,28.72-7.84,38.21,3.68l57.12,69.32-31.95,26.33c-2.86,1.45-7.5,1.2-9.62-1.75-3.66-5.11,1.94-15.48-3.88-23.53-6.44-8.92-20.52-8.89-30.21-.9-9.69,7.98-12.39,21.79-4.88,29.82,6.78,7.25,18.04,3.74,22.35,8.32,2.48,2.63,1.85,7.23-.12,9.76l-31.96,26.33-26.33-31.96c-2.52-1.97-7.13-2.6-9.76-.12-4.58,4.31-1.07,15.57-8.32,22.35-8.04,7.52-21.83,4.8-29.82-4.88-7.99-9.69-8.01-23.76,.91-30.21,8.04-5.82,18.43-.22,23.53-3.89,2.94-2.11,3.2-6.75,1.74-9.61Z" style="fill:#fc9774; fill-rule:evenodd;"/><path d="M2206.72,375.15l-25.72-31.21,68.59-56.51c5.55-4.58,12.48-6.47,19.16-5.82h0c6.67,.64,13.11,3.82,17.7,9.38l56.51,68.58-31.14,25.66c-1.33,.64-3.07,.88-4.71,.58-1.42-.26-2.74-.92-3.57-2.08-1.42-1.99-1.25-5.12-1.04-8.6,.28-4.78,.6-10.17-2.85-14.93h0c-.21-.3-.43-.58-.64-.84-3.38-4.09-8.38-6.17-13.76-6.34-5.32-.17-11,1.55-15.82,5.04-.48,.34-.94,.7-1.38,1.06-.44,.36-.86,.74-1.29,1.14-4.36,4.07-7.13,9.33-7.98,14.58-.86,5.31,.22,10.62,3.6,14.72,.2,.26,.44,.52,.69,.79h0c4.02,4.29,9.38,5.02,14.12,5.66,3.46,.47,6.57,.88,8.24,2.66,.98,1.04,1.39,2.46,1.36,3.9-.03,1.66-.58,3.34-1.47,4.52l-31.14,25.66-25.72-31.21-.16-.14c-1.5-1.18-3.64-1.92-5.76-1.95-1.92-.03-3.82,.53-5.25,1.88-2.27,2.14-2.74,5.57-3.25,9.39h0c-.6,4.42-1.28,9.41-5.07,12.96-.21,.2-.45,.41-.7,.61-3.64,3.01-8.4,3.97-13.18,3.19-4.84-.79-9.71-3.36-13.47-7.39-.36-.38-.71-.78-1.07-1.21-.35-.43-.68-.86-.99-1.28-3.24-4.48-4.83-9.74-4.68-14.64,.15-4.84,2-9.32,5.64-12.33,.26-.2,.51-.4,.75-.57,4.21-3.04,9.24-2.75,13.69-2.49,3.84,.23,7.31,.42,9.83-1.4,1.6-1.15,2.52-2.91,2.86-4.79,.37-2.08,.05-4.33-.82-6.04l-.11-.18h0Zm-27.82-30.73l26.28,31.88c.64,1.33,.87,3.08,.57,4.71-.26,1.43-.92,2.74-2.08,3.57-1.98,1.43-5.11,1.24-8.6,1.04-4.77-.28-10.18-.59-14.93,2.85h0c-.3,.22-.58,.44-.84,.64-4.1,3.38-6.18,8.38-6.35,13.76-.17,5.31,1.55,11,5.04,15.83,.34,.48,.69,.94,1.06,1.37,.36,.44,.74,.87,1.14,1.29,4.07,4.35,9.32,7.12,14.58,7.98,5.31,.86,10.62-.22,14.72-3.6,.26-.21,.53-.44,.79-.69h0c4.28-4.01,5.01-9.37,5.65-14.11h0c.46-3.47,.89-6.57,2.67-8.25,1.03-.97,2.45-1.38,3.89-1.35,1.67,.02,3.34,.58,4.52,1.47l26.27,31.88,.62,.75,.74-.61,31.96-26.33,.14-.15c1.17-1.51,1.92-3.66,1.96-5.77,.02-1.91-.53-3.82-1.88-5.25-2.13-2.27-5.56-2.73-9.39-3.25-4.43-.6-9.41-1.27-12.96-5.06-.21-.21-.41-.45-.62-.7-3-3.65-3.96-8.41-3.18-13.19,.78-4.84,3.35-9.7,7.4-13.48,.37-.35,.77-.71,1.21-1.06,.43-.35,.85-.68,1.26-.99,4.48-3.24,9.74-4.83,14.65-4.68,4.84,.15,9.32,2,12.32,5.65,.21,.25,.4,.5,.58,.74,3.04,4.21,2.75,9.24,2.49,13.69-.22,3.85-.43,7.31,1.4,9.84,1.15,1.6,2.92,2.51,4.79,2.85,2.08,.38,4.33,.05,6.04-.81l.18-.11,31.96-26.33,.74-.61-.6-.75-57.13-69.32c-4.92-5.96-11.83-9.37-19-10.07h0c-7.16-.69-14.6,1.34-20.57,6.25l-69.33,57.13-.75,.61,.62,.74Z" style="fill:#fff; fill-rule:evenodd;"/></g><g><path d="M981.25,712.55l-14.22-33.07-71.74,30.86c-11.92,5.13-17.48,19.08-12.35,31l30.86,71.74,33.07-14.22c2.26-1.63,3.91-5.32,2.47-8.12-2.48-4.86-12.73-4.67-16.64-12.36-4.33-8.53,1.29-19.4,11.32-23.71,10.03-4.32,21.78-.92,25,8.08,2.9,8.13-4.29,15.44-2.47,20.59,1.05,2.97,4.86,4.31,7.6,3.79l33.07-14.22-14.23-33.07c-.52-2.74,.82-6.55,3.79-7.6,5.15-1.82,12.46,5.37,20.59,2.47,9.01-3.22,12.4-14.97,8.09-25-4.32-10.03-15.19-15.64-23.72-11.31-7.7,3.9-7.5,14.15-12.36,16.64-2.8,1.44-6.49-.21-8.12-2.48Z" style="fill:#c3dffa; fill-rule:evenodd;"/><path d="M982.28,702.29l-13.9-32.3-70.97,30.53c-5.75,2.48-9.96,7.08-12.12,12.49h0c-2.16,5.42-2.26,11.66,.21,17.41l30.53,70.96,32.22-13.86c1.03-.77,1.91-2.04,2.33-3.41,.36-1.21,.37-2.49-.19-3.59-.97-1.88-3.46-3-6.24-4.23-3.8-1.68-8.1-3.58-10.41-8.14h0c-.14-.29-.28-.57-.39-.83-1.82-4.24-1.44-8.94,.57-13.16,1.99-4.17,5.57-7.89,10.19-10.23,.46-.23,.92-.45,1.36-.64,.45-.2,.92-.38,1.4-.55,4.88-1.74,10.04-1.79,14.44-.36,4.45,1.44,8.12,4.4,9.95,8.64,.12,.26,.22,.55,.33,.85h0c1.72,4.82,.15,9.24-1.24,13.16-1.01,2.86-1.93,5.43-1.22,7.43,.41,1.17,1.35,2.04,2.48,2.6,1.29,.64,2.81,.87,4.08,.66l32.22-13.86-13.89-32.29-.05-.18c-.31-1.63-.03-3.59,.79-5.24,.74-1.49,1.93-2.74,3.54-3.31,2.56-.91,5.4,.1,8.55,1.22h0c3.65,1.3,7.78,2.76,12.04,1.24,.24-.09,.49-.19,.75-.3,3.78-1.62,6.41-4.92,7.71-8.92,1.32-4.06,1.27-8.84-.35-13.36-.15-.42-.32-.85-.51-1.3-.19-.44-.39-.87-.6-1.27-2.17-4.28-5.61-7.6-9.46-9.44-3.79-1.81-8-2.16-11.77-.53-.26,.11-.51,.23-.74,.34-4.03,2.04-5.8,6.04-7.37,9.59-1.36,3.06-2.58,5.81-5,7.05-1.52,.78-3.25,.78-4.84,.3-1.76-.54-3.37-1.68-4.35-3.03l-.09-.16h0Zm-12.69-33.73l14.2,32.99c.77,1.03,2.04,1.9,3.41,2.32,1.2,.36,2.49,.37,3.59-.19,1.89-.97,3-3.46,4.22-6.24,1.69-3.8,3.59-8.1,8.15-10.41h0c.29-.15,.56-.28,.83-.39,4.24-1.82,8.93-1.44,13.15,.57,4.17,1.99,7.89,5.57,10.23,10.19,.23,.46,.45,.91,.64,1.36,.19,.45,.38,.92,.55,1.4,1.74,4.87,1.79,10.04,.36,14.44-1.44,4.45-4.4,8.12-8.64,9.95-.27,.12-.55,.23-.85,.33h0c-4.81,1.72-9.24,.15-13.16-1.24h0c-2.86-1.01-5.43-1.92-7.43-1.22-1.16,.41-2.04,1.35-2.6,2.48-.64,1.29-.88,2.81-.66,4.08l14.19,33,.33,.77-.77,.33-33.07,14.23-.18,.05c-1.63,.31-3.59,.03-5.23-.79-1.49-.75-2.74-1.93-3.31-3.54-.9-2.56,.1-5.39,1.23-8.55,1.3-3.66,2.76-7.79,1.24-12.04-.08-.24-.18-.5-.3-.75-1.62-3.78-4.92-6.41-8.92-7.71-4.06-1.32-8.84-1.27-13.36,.35-.43,.15-.86,.32-1.3,.51-.44,.19-.87,.39-1.28,.6-4.28,2.17-7.6,5.6-9.44,9.45-1.81,3.8-2.16,8-.54,11.78,.11,.26,.23,.51,.34,.74,2.04,4.03,6.04,5.8,9.59,7.37,3.06,1.36,5.82,2.58,7.05,5,.77,1.53,.78,3.25,.29,4.84-.53,1.76-1.68,3.38-3.03,4.35l-.16,.1-33.07,14.22-.77,.33-.33-.77-30.86-71.73c-2.66-6.17-2.55-12.87-.23-18.69h0c2.32-5.82,6.84-10.76,13.02-13.42l71.74-30.86,.77-.33,.33,.77Z" style="fill:#fff; fill-rule:evenodd;"/></g><g><path d="M1096.23,643.34l26.52-32.19-69.83-57.54c-11.6-9.56-28.92-7.89-38.48,3.72l-57.54,69.83,32.19,26.52c2.88,1.46,7.55,1.21,9.68-1.76,3.69-5.14-1.94-15.6,3.92-23.7,6.49-8.98,20.67-8.96,30.43-.91,9.76,8.04,12.49,21.95,4.92,30.03-6.84,7.3-18.17,3.77-22.51,8.37-2.5,2.66-1.86,7.29,.12,9.84l32.19,26.52,26.52-32.19c2.55-1.98,7.19-2.62,9.84-.12,4.61,4.34,1.08,15.68,8.37,22.52,8.09,7.57,22,4.84,30.04-4.92,8.04-9.76,8.07-23.94-.91-30.43-8.11-5.86-18.56-.22-23.7-3.92-2.96-2.12-3.22-6.79-1.76-9.68Z" style="fill:#ffe2dc; fill-rule:evenodd;"/><path d="M1107.36,638.95l25.9-31.44-69.07-56.92c-5.6-4.61-12.57-6.51-19.3-5.86h0c-6.73,.64-13.21,3.85-17.82,9.44l-56.92,69.07,31.36,25.84c1.34,.65,3.1,.88,4.75,.58,1.43-.26,2.76-.93,3.59-2.09,1.44-2,1.25-5.16,1.05-8.66-.28-4.81-.59-10.25,2.87-15.04h0c.22-.31,.44-.59,.64-.85,3.4-4.12,8.44-6.22,13.86-6.39,5.36-.16,11.08,1.56,15.94,5.08,.48,.35,.94,.7,1.38,1.07,.44,.36,.88,.74,1.31,1.15,4.38,4.1,7.17,9.39,8.03,14.68,.87,5.35-.22,10.7-3.62,14.83-.21,.26-.45,.52-.7,.8h0c-4.04,4.32-9.44,5.05-14.21,5.7-3.48,.47-6.62,.89-8.31,2.68-.98,1.04-1.39,2.48-1.36,3.93,.02,1.67,.59,3.36,1.48,4.55l31.36,25.84,25.91-31.44,.15-.14c1.52-1.18,3.68-1.94,5.81-1.96,1.93-.03,3.85,.53,5.29,1.89,2.29,2.16,2.76,5.61,3.28,9.46h0c.6,4.45,1.28,9.48,5.1,13.06,.22,.2,.45,.41,.7,.62,3.68,3.03,8.47,4,13.28,3.21,4.88-.8,9.77-3.38,13.58-7.45,.36-.38,.71-.79,1.07-1.22,.35-.43,.68-.86,.99-1.28,3.26-4.51,4.86-9.81,4.71-14.75-.15-4.87-2.02-9.39-5.69-12.41-.25-.21-.5-.4-.75-.58-4.24-3.06-9.3-2.77-13.79-2.51-3.87,.22-7.36,.43-9.91-1.4-1.61-1.16-2.53-2.93-2.87-4.83-.38-2.09-.06-4.36,.81-6.08l.12-.18h0Zm28.02-30.95l-26.46,32.11c-.65,1.33-.88,3.1-.58,4.75,.26,1.43,.93,2.76,2.09,3.6,2,1.44,5.15,1.25,8.66,1.05,4.81-.28,10.25-.6,15.04,2.87h0c.3,.22,.58,.44,.84,.65,4.13,3.4,6.22,8.44,6.39,13.86,.16,5.35-1.56,11.08-5.08,15.94-.35,.48-.71,.95-1.07,1.38-.36,.44-.75,.88-1.15,1.31-4.1,4.38-9.4,7.17-14.68,8.04-5.35,.87-10.7-.23-14.83-3.63-.26-.21-.52-.45-.8-.7h0c-4.32-4.04-5.04-9.44-5.69-14.22h0c-.48-3.48-.89-6.61-2.68-8.3-1.04-.98-2.48-1.39-3.93-1.37-1.68,.02-3.36,.59-4.55,1.48l-26.46,32.11-.61,.75-.75-.62-32.19-26.52-.15-.16c-1.18-1.52-1.93-3.68-1.96-5.81-.02-1.92,.54-3.84,1.9-5.28,2.15-2.29,5.61-2.76,9.45-3.28,4.45-.6,9.48-1.28,13.06-5.09,.21-.22,.41-.46,.62-.71,3.03-3.68,4-8.47,3.21-13.28-.8-4.88-3.38-9.78-7.44-13.58-.38-.36-.79-.72-1.22-1.07-.43-.36-.86-.68-1.28-1-4.51-3.26-9.81-4.86-14.75-4.71-4.87,.15-9.39,2.01-12.41,5.68-.21,.25-.4,.51-.58,.75-3.06,4.24-2.77,9.31-2.51,13.79,.23,3.87,.43,7.36-1.4,9.91-1.15,1.61-2.93,2.53-4.83,2.87-2.09,.38-4.36,.05-6.08-.82l-.18-.11-32.19-26.52-.75-.62,.62-.75,57.54-69.83c4.95-6.01,11.91-9.44,19.13-10.14h0c7.22-.7,14.71,1.35,20.72,6.3l69.83,57.54,.75,.62-.62,.75Z" style="fill:#fff; fill-rule:evenodd;"/></g><g><rect x="2329.3" y="1316.97" width="53.23" height="18.39" style="fill:#c3dffa;"/><path d="M2382.04,1306.73c3.22-1.5,5.33-4.27,5.33-8.43v-1.3c.62-36.02,32.28-46.11,34.84-85.97,.19-2.99,.16-5.9-.07-8.75-4.96-30.23-33.68-50.52-65.95-50.52-36.78,0-68.95,26.35-66.59,63.71,2.44,38.67,32.6,48.46,33.19,83.41,0,3.79,4.05,8.14,7.49,7.84h51.76Z" style="fill:#a4d0fc; fill-rule:evenodd;"/><path d="M2381.03,1302.61l-13.77,11.98-25.4-6.12-11.76-5.86-.16,.02c-1.21-.04-3-2.58-3.02-3.8-.2-12.57-3.93-22.65-10.45-33.23-4.67-7.58-10.15-14.62-14.45-22.43-4.92-8.92-7.65-17.74-8.3-27.93-.76-12.32,2.46-24.06,9.69-34.08,12.04-16.66,32.59-25.26,52.8-25.26,28.51,0,56.93,17.42,61.87,46.9,.2,2.66,.21,5.33,.04,7.99-.68,10.65-3.6,19.8-8.83,29.06-4.6,8.12-10.42,15.43-15.32,23.36-6.65,10.7-10.47,20.99-10.7,33.81v1.3c0,1.97-.69,3.36-2.22,4.3Z" style="fill:#c3dffa; fill-rule:evenodd;"/><path d="M2363.12,1307.59l-5.05,4.8-16.22-3.92-11.76-5.86-.16,.02c-1.21-.04-3-2.58-3.02-3.8-.2-12.57-3.94-22.65-10.45-33.23-4.67-7.58-10.15-14.62-14.45-22.43-4.92-8.92-7.65-17.74-8.3-27.93-.76-12.32,2.46-24.06,9.69-34.08,12.04-16.66,32.59-25.26,52.8-25.26,6.02,0,12.03,.78,17.81,2.28,13.33,8.74,23.41,22.59,26.16,40.53,.21,2.9,.22,5.81,.04,8.72-.68,11.62-3.6,21.59-8.83,31.69-4.59,8.87-10.41,16.84-15.32,25.48-6.66,11.69-10.48,22.9-10.69,36.89v1.41c0,2.16-.7,3.65-2.24,4.7Z" style="fill:#dfedfa; fill-rule:evenodd;"/><path d="M2327.37,1339.6c.4,4.05,3.84,7.24,7.98,7.24h6.13l2.4,3.9c1.37,2.25,2.17,2.39,4.8,2.39h14.44c2.63,0,3.43-.14,4.82-2.39l2.38-3.9h6.14c4.09,0,7.49-3.1,7.96-7.08v-2.81c-.21-.91-1.04-1.6-2.02-1.6h-52.99c-.99,0-1.82,.69-2.03,1.62-.03,.09,.04,.27-.02,.3v2.33h0Zm54.28-18.44h-51.49c-1.55,0-2.83,1.28-2.83,2.83v4.39c0,1.55,1.27,2.83,2.83,2.83h51.49c1.56,0,2.83-1.27,2.83-2.83v-4.39c0-1.55-1.27-2.83-2.83-2.83h0Zm-.12-14.44h-51.27c-1.62,0-2.93,1.33-2.93,2.94v4.56c0,1.62,1.32,2.95,2.93,2.95h51.27c1.62,0,2.94-1.33,2.94-2.95v-4.56c0-1.62-1.32-2.94-2.94-2.94Z" style="fill:#a4d0fc; fill-rule:evenodd;"/><path d="M2364.05,1306.73l5.44-65.95h7.9c3.41,0,6.51-1.4,8.75-3.64h0c2.24-2.26,3.64-5.35,3.64-8.75s-1.4-6.52-3.64-8.75c-2.24-2.24-5.34-3.65-8.75-3.65s-6.29,1.35-8.46,3.53c-2.21,2.21-3.63,5.28-3.92,8.63l-.61,7.07h-24.16l-.62-7.07c-.29-3.34-1.72-6.42-3.92-8.63-2.18-2.17-5.1-3.53-8.46-3.53s-6.5,1.4-8.75,3.65h0c-2.25,2.23-3.65,5.34-3.65,8.75s1.4,6.51,3.65,8.75c2.24,2.24,5.33,3.64,8.75,3.64h7.9l5.45,65.95h5.56l-5.42-65.95h23.18l-5.42,65.95h5.56Zm5.94-71.51l.57-6.59c.18-2.04,1.01-3.88,2.31-5.17,1.17-1.17,2.73-1.89,4.53-1.89s3.58,.77,4.83,2.01c1.24,1.24,2.01,2.94,2.01,4.82s-.76,3.59-2,4.83h0c-1.24,1.23-2.95,2-4.83,2h-7.41Zm-35.34,0h-7.41c-1.87,0-3.58-.77-4.82-2-1.23-1.25-2.01-2.95-2.01-4.83s.77-3.58,2.01-4.82h0c1.23-1.23,2.93-2.01,4.82-2.01s3.36,.72,4.53,1.89c1.3,1.3,2.13,3.15,2.31,5.17l.57,6.59Z" style="fill:#fff; fill-rule:evenodd;"/><path d="M2331.94,1174.93c1.76-.75,2.6-2.78,1.85-4.55-.75-1.76-2.78-2.59-4.55-1.85-1.44,.61-2.81,1.26-4.09,1.96-1.33,.71-2.63,1.49-3.89,2.33-1.59,1.05-2.03,3.22-.98,4.82,1.07,1.6,3.22,2.04,4.83,.98,1.08-.71,2.19-1.38,3.33-1.99,1.17-.64,2.35-1.2,3.5-1.69h0Zm-15.31,11.1c1.27-1.45,1.12-3.65-.34-4.92-1.45-1.26-3.65-1.11-4.91,.34-3.68,4.23-6.63,9.1-8.63,14.44-1.94,5.14-3,10.68-3,16.44,0,1.92,1.56,3.48,3.48,3.48s3.49-1.56,3.49-3.48c0-4.93,.9-9.65,2.53-13.99,1.7-4.53,4.22-8.68,7.37-12.31Z" style="fill:#fff; fill-rule:evenodd;"/></g></svg>