<?xml version="1.0" encoding="UTF-8"?><svg id="a" xmlns="http://www.w3.org/2000/svg" viewBox="0 0 2845.28 2601.79"><path d="M2206.2,228.04c272.6,142.11,348.34,436.98,446.31,660.9,129.72,296.34,211.68,537.34-12.74,812.94-393.91,483.77-1287.85,683.32-1921.27,353.08C85.13,1724.77,120.7,946.99,514.66,463.23,908.57-20.55,1572.83-102.21,2206.2,228.04h0Zm0,0" style="fill:#e9eef7; fill-rule:evenodd;"/><path d="M1281.84,2393.16c707.99,0,1281.88,46.69,1281.88,104.29s-573.89,104.34-1281.88,104.34S0,2555.09,0,2497.44s573.89-104.29,1281.84-104.29h0Zm0,0" style="fill:#cfdaee; fill-rule:evenodd;"/><path d="M569.35,654.47h1862.09c90.12,0,166.52,73.86,163.82,163.78l-34,1121.98c-2.7,89.91-73.81,163.77-163.82,163.77H603.35c-89.51,0-161.13-73.71-163.83-163.77l-34-1121.98c-2.7-90.08,73.71-163.78,163.83-163.78h0Zm0,89.46h1862.09c40.93,0,75.59,33.55,74.37,74.33l-34,1121.93c-1.22,40.16-34.2,74.37-74.37,74.37H603.35c-40.18,0-73.15-33.49-74.37-74.37l-34-1121.93c-1.22-40.89,33.44-74.33,74.37-74.33h0Zm0,0" style="fill:#becce7; fill-rule:evenodd;"/><rect x="1319.24" y="2104" width="366.23" height="227.43" style="fill:#aabcdd;"/><path d="M1685.48,2331.43h197.06c9.84,0,15.55,8.51,17.89,17.94l21.87,87.57c2.35,9.48-8.15,17.94-17.94,17.94h-804.03c-9.73,0-20.28-8.36-17.88-17.94l21.87-87.57c2.34-9.58,8.05-17.94,17.89-17.94h563.29Zm0,0" style="fill:#becce7; fill-rule:evenodd;"/><path d="M2505.81,818.25c0-35.79-25.59-65.87-59.38-72.8l-1.78-.35-1.84-.31-1.78-.25-1.89-.21-1.84-.2-1.88-.1-1.94-.1H567.52l-3.78,.21-1.88,.2-1.83,.21-1.83,.25c-35.54,5.51-63.01,36.39-63.01,73.46l34,1121.93c1.23,40.88,34.15,74.37,74.32,74.37h1794.15c40.16,0,73.14-34.2,74.32-74.37l33.84-1121.93Zm0,0" style="fill:#cfdaee; fill-rule:evenodd;"/><path d="M701.98,374.48h1596.84c47.61,0,86.6,38.94,86.6,86.59V1731.04c0,47.6-38.99,86.59-86.6,86.59H701.98c-47.66,0-86.6-38.94-86.6-86.59V461.08c0-47.65,38.94-86.59,86.6-86.59h0Zm0,0" style="fill:#fff; fill-rule:evenodd;"/><path d="M2298.82,374.48H701.98c-47.66,0-86.6,38.94-86.6,86.59v45.67h1770.04v-45.67c0-47.65-38.99-86.59-86.6-86.59h0Zm0,0" style="fill:#becce7; fill-rule:evenodd;"/><path d="M740.37,410.57c18.6,0,33.64,15.04,33.64,33.63s-15.04,33.71-33.64,33.71-33.71-15.09-33.71-33.71,15.09-33.63,33.71-33.63h0Zm293.38,0c18.61,0,33.64,15.04,33.64,33.63s-15.04,33.71-33.64,33.71-33.69-15.09-33.69-33.71,15.09-33.63,33.69-33.63h0Zm-146.7,0c18.6,0,33.64,15.04,33.64,33.63s-15.04,33.71-33.64,33.71-33.68-15.09-33.68-33.71,15.08-33.63,33.68-33.63h0Zm0,0" style="fill:#fff; fill-rule:evenodd;"/><rect x="731.69" y="608.91" width="744.96" height="63.66" style="fill:#cfdaee;"/><rect x="735.93" y="821.09" width="1502.63" height="390.55" style="fill:#cfdaee;"/><path d="M799.6,878.38h1375.31v48.83H799.6v-48.83Zm0,192.12h607.01v48.77H799.6v-48.77Zm0-98.69h607.01v48.78H799.6v-48.78Zm0,0" style="fill:#fff; fill-rule:evenodd;"/><path d="M741.79,1360.68h1500.45v48.83H741.79v-48.83Zm0,192.07H2041.87v48.82H741.79v-48.82Zm0-98.69h924.67v48.83H741.79v-48.83Zm0,0" style="fill:#cfdaee; fill-rule:evenodd;"/><path d="M2427.47,590.55c133.34,0,241.45,108.07,241.45,241.4s-108.11,241.45-241.45,241.45-241.45-108.11-241.45-241.45,108.11-241.4,241.45-241.4h0Zm0,0" style="fill:#aabcdd; fill-rule:evenodd;"/><path d="M2447.96,758.71c-6.78-8.1-13.66-15.65-20.49-22.63-6.83,6.98-13.71,14.53-20.49,22.63,13.66-.61,27.32-.61,40.98,0h0Zm17.94,1.07c21.92,1.73,42.41,4.94,60.76,9.33,2.04-6.22,3.77-12.28,5.15-18.09,7.54-31.15,5.76-54.74-7.08-63.36-12.84-8.67-35.38-1.43-61.36,17.23-8.63,6.17-17.5,13.56-26.47,21.97,9.68,9.88,19.47,20.95,29,32.93h0Zm39.91,58.47c6.49-12.6,11.93-24.94,16.41-36.66-13.91-3.26-29.21-5.86-45.41-7.6,10.45,14.22,20.13,29.01,29,44.25h0Zm7.7,13.7c8.67,16.25,15.9,32.11,21.51,47.15,6.32-1.79,12.28-3.77,17.89-5.82,30.02-11.16,48.63-25.84,48.63-41.34s-18.61-30.12-48.63-41.28c-5.61-2.09-11.57-4.03-17.89-5.81-5.61,15.04-12.84,30.89-21.51,47.1h0Zm25.89,59.54c2.04,6.32,3.77,12.44,5.2,18.35,8.87,36.65,5.4,65.34-12.49,77.42-17.94,12.04-45.83,4.48-76.46-17.48-9.17-6.57-18.6-14.42-28.19-23.45-9.53,9.02-19.01,16.87-28.19,23.45-29.62,21.26-56.68,29-74.62,18.61h-.15l-1.68-1.13c-17.89-12.08-21.36-40.78-12.49-77.42,1.43-5.91,3.16-12.03,5.25-18.35-6.42-1.78-12.44-3.77-18.14-5.91-35.32-13.1-57.19-32-57.19-53.62s21.87-40.47,57.19-53.57c5.71-2.14,11.72-4.13,18.14-5.91-2.09-6.32-3.82-12.43-5.25-18.36-8.87-36.64-5.4-65.34,12.49-77.42,17.94-12.03,45.82-4.49,76.46,17.48,9.17,6.58,18.6,14.42,28.19,23.46,9.58-9.03,19.01-16.88,28.19-23.46,30.63-21.97,58.52-29.51,76.46-17.48,17.89,12.08,21.36,40.78,12.49,77.42-1.43,5.93-3.16,12.04-5.25,18.36,6.42,1.78,12.44,3.77,18.15,5.91,35.32,13.1,57.19,32.01,57.19,53.57s-21.87,40.52-57.19,53.62c-5.71,2.14-11.72,4.13-18.15,5.91h.05Zm-121.36,45.57c-9.68-9.89-19.42-20.91-28.95-32.88-21.97-1.73-42.46-4.93-60.76-9.32-2.04,6.22-3.77,12.29-5.2,18.1-7.49,31.09-5.76,54.69,7.03,63.36,12.84,8.67,35.38,1.43,61.42-17.22,8.56-6.17,17.48-13.57,26.45-22.02h0Zm-39.86-47.1c-10.45-14.22-20.18-29-29.05-44.24-6.42,12.59-11.92,24.92-16.41,36.65,13.97,3.26,29.21,5.86,45.46,7.59h0Zm-36.7-58.01c-8.72-16.21-15.96-32.06-21.56-47.1-6.32,1.78-12.28,3.72-17.89,5.81-30.02,11.16-48.58,25.79-48.58,41.28s18.55,30.18,48.58,41.34c5.61,2.05,11.57,4.03,17.89,5.82,5.61-15.04,12.84-30.9,21.56-47.15h0Zm190.33,81c-1.38-5.81-3.11-11.88-5.15-18.1-18.35,4.39-38.84,7.59-60.76,9.32-9.53,11.98-19.32,23-29,32.88,8.97,8.45,17.84,15.85,26.47,22.02,25.98,18.65,48.51,25.89,61.36,17.22,12.84-8.66,14.63-32.21,7.08-63.36h0Zm-9.58-30.58c-4.48-11.73-9.92-24.07-16.41-36.65-8.87,15.24-18.55,30.02-29,44.24,16.21-1.73,31.5-4.33,45.41-7.59h0Zm-23.75-50.42c-11.57-20.7-24.82-40.73-39.35-59.48-21-1.37-42.26-1.37-63.31,0-14.53,18.76-27.78,38.79-39.35,59.48,11.57,20.75,24.82,40.72,39.35,59.49,21.05,1.42,42.31,1.42,63.31,0,14.48-18.66,27.88-38.9,39.35-59.49h0Zm-80.43-105.1c-8.97-8.41-17.84-15.8-26.4-21.97-26.05-18.66-48.58-25.9-61.42-17.23-12.84,8.61-14.63,32.21-7.08,63.36,1.43,5.82,3.16,11.88,5.2,18.09,18.3-4.38,38.79-7.6,60.76-9.33,9.53-11.98,19.27-23.05,28.95-32.93h0Zm-85.33,54.74c4.5,11.72,9.99,24.06,16.41,36.66,8.87-15.24,18.6-30.03,29.05-44.25-16.26,1.73-31.5,4.33-45.46,7.6h0Zm74.27,123.66c6.78,8.11,13.66,15.64,20.49,22.62,6.83-6.98,13.71-14.52,20.49-22.62-13.66,.55-27.32,.55-40.98,0h0Zm0,0" style="fill:#fff; fill-rule:evenodd;"/><path d="M2427.47,796.63c19.52,0,35.32,15.85,35.32,35.32s-15.8,35.38-35.32,35.38-35.32-15.86-35.32-35.38,15.8-35.32,35.32-35.32h0Zm0,0" style="fill:#fff; fill-rule:evenodd;"/><path d="M2175.77,1773.08c133.34,0,241.45,108.11,241.45,241.46s-108.11,241.4-241.45,241.4-241.45-108.06-241.45-241.4,108.11-241.46,241.45-241.46h0Zm0,0" style="fill:#aabcdd; fill-rule:evenodd;"/><path d="M2175.77,1830.12l79.82,46.14,79.82,46.07v184.36l-79.82,46.13-79.82,46.08-79.87-46.08-79.82-46.13v-184.36l79.82-46.07,79.87-46.14Zm0,0" style="fill:#fff; fill-rule:evenodd;"/><path d="M2175.77,2177.65l141.24-81.56v-163.11l-141.24-81.56v326.22Zm0,0" style="fill:#cfdaee; fill-rule:evenodd;"/><path d="M2603.88,1255.27c133.34,0,241.4,108.11,241.4,241.46s-108.06,241.45-241.4,241.45-241.45-108.12-241.45-241.45,108.11-241.46,241.45-241.46h0Zm0,0" style="fill:#aabcdd; fill-rule:evenodd;"/><path d="M2603.88,1421.84c41.34,0,74.87,33.49,74.87,74.89s-33.54,74.87-74.87,74.87-74.88-33.53-74.88-74.87,33.49-74.89,74.88-74.89h0Zm0,0" style="fill:#fff; fill-rule:evenodd;"/><path d="M2603.88,1335.65c44.45,0,84.71,18.04,113.87,47.2,29.15,29.11,47.15,69.37,47.15,113.88s-17.99,84.71-47.15,113.86c-29.16,29.16-69.42,47.14-113.87,47.14s-84.77-17.98-113.92-47.14c-29.11-29.16-47.15-69.42-47.15-113.86s18.04-84.77,47.15-113.88c29.16-29.16,69.42-47.2,113.92-47.2h0Zm104.49,56.58c-26.76-26.76-63.71-43.28-104.49-43.28s-77.78,16.52-104.5,43.28c-26.76,26.71-43.33,63.66-43.33,104.5s16.57,77.73,43.33,104.48c26.71,26.71,63.67,43.28,104.5,43.28s77.73-16.57,104.49-43.28c26.71-26.75,43.28-63.71,43.28-104.48s-16.57-77.79-43.28-104.5h0Zm0,0" style="fill:#fff; fill-rule:evenodd;"/><path d="M2709.44,1354.56c15.95,0,28.9,12.95,28.9,28.9s-12.95,28.9-28.9,28.9-28.9-12.95-28.9-28.9,12.95-28.9,28.9-28.9h0Zm0,0" style="fill:#fff; fill-rule:evenodd;"/><path d="M293.19,825.68c11.07,.76,21.66-12.29,24.73-16.21,11.72-14.83,19.16-32.32,22.17-42.1-2.25-6.47-4.64-14.73-7.14-24.67-42.46-28.8-48.26-50.1-17.43-63.96,6.21,3.52,13.92,14.22,23.14,32.21,7.39-.31,12.95-4.08,16.78-11.26-8.78-30.39-14.48-55-17.13-73.97,20.91-31.04,69.79-35.48,134.57-27.11,3,17.22,5.44,35.47,7.38,54.74,11.42,10.54,9.95,49.65-.61,94.7,5.3,25.63-10.56,39.65-47.46,41.94-.36,6.22,.2,13.31,.31,17.64,.1,3.93,.25,11.62,4.38,12.84l6.83,1.69c-.72,91.6-47.6,109.23-150.52,3.52h0Zm0,0" style="fill:#ffb27d; fill-rule:evenodd;"/><path d="M472.87,598.61c-64.79-8.37-113.66-3.93-134.57,27.11,2.65,18.96,8.36,43.58,17.08,73.97-3.77,7.17-9.33,10.95-16.72,11.26-9.17-17.99-16.93-28.7-23.14-32.21-30.83,13.86-25.03,35.16,17.43,63.96,2.5,9.95,4.89,18.2,7.14,24.67-38.18-8.56-70.08-42.66-74.57-57.44-44.55-87.77,5.1-124.83,31.71-138.39,11.71-86.91,138.43-11.72,171.71-64.79,69.77,39.76,23.51,91.09,3.93,91.86h0Zm0,0" style="fill:#22407a; fill-rule:evenodd;"/><path d="M389.68,781.08c10.33,5.14,24.51,8.1,42.5,8.91-.36,6.12-.1,13.16,.31,17.49-18.1-3.47-32.42-12.28-42.87-26.4h.05Zm0,0" style="fill:#f08261; fill-rule:evenodd;"/><path d="M216.02,2541.49c-40.22-14.17-43.43-34.87-65.14-45.01-21.82-10.2-24.32-28.34-2.96-48.07,15.75,12.59,35.27,28.09,45.67,19.88,6.89-5.45,30.33-5.1,35.02,2.86,20.44,47.5,48.83,32.47,54.44,54.08,.66,28.75-48.58,22.79-67.03,16.26h0Zm0,0" style="fill:#163560; fill-rule:evenodd;"/><path d="M564.46,2494.23c-70.8-1.12-123.76-1.99-148.23-9.68-26.35-8.36-20.9-24.41-5.76-50.16,66.77,30.69,48.98-6.32,80.18-1.63,21.97,17.64,54.44,29.51,97.46,35.53,18.19,13.41,10.81,25.38-23.66,25.94h0Zm0,0" style="fill:#163560; fill-rule:evenodd;"/><path d="M529.08,836.03c-35.32-10.25-67.08-16.46-95.22-18.66-5.09,77.68-45.62,77.12-121.57-1.63-73.15,6.17-87.41,7.09-128.05,20.29-87.76,83.85-95.87,180.65-141.75,291.25,50.83,2.29,73.61,8.41,108.16,20.75,7.43-26.5,13.61-47.86,18.65-64.02-1.43,145.87-1.99,245.79-1.63,299.81,168.05,66.57,306.49,43.78,363.02-8.1,.82-129.62,1.88-232.29,3.26-307.92,20.08,23.7,38.74,42.05,55.92,55.1,41.19-47.25,69.12-66.26,92.46-94.1-51.74-84.92-125.84-163.97-153.27-192.77h0Zm0,0" style="fill:#f89e0e; fill-rule:evenodd;"/><path d="M867.79,978.13c-88.28,36.66-150.11,66.99-185.43,90.94l-15.7-23.24c-14.63,14.63-31.3,28.95-51.64,49.8,18.8,19.67,38.99,35.83,62.49,49.54,61.37-6.57,129.17-53.01,203.43-139.4,23.09-4.59,40.11-12.96,51.02-25.08,.56-11.16-5.05-22.27-16.82-33.49,30.78-20.03,43.02-34.41,36.75-43.06-48.26,29.81-76.3,54.48-84.1,74h0Zm0,0" style="fill:#ffb27d; fill-rule:evenodd;"/><path d="M530.71,1375.72c-3.31,12.64,10.45,86.7,12.69,125.34,22.38,137.93,3.21,317.45-8.82,548.3-21.5,81.35-53.31,189.72-51.23,342.32-37.46,11.47-51.07,12.64-84.92,4.03-23.65-159.24-7.49-286.77,13.86-345.64-13.71-91.04-34.15-192.93-63.87-339.88-33.54,160.15-78.39,279.02-97.76,356.55-3.87,86.45-21.36,203.17-30.48,350.07-27.84,8.41-45.16,10.8-74.07,7.29-37.46-135.02-31.19-281.97-15.28-440.85,16.87-190.94-10.97-406.54,16.91-481.33,14.27-44.29,16.11-83.59,19.93-118.1,140.22,46.69,261.22,43.98,363.02-8.1h0Zm0,0" style="fill:#ee7c15; fill-rule:evenodd;"/><path d="M193.54,1235.64c-9.02,1.32-17.53,2.55-25.54,3.62-.41,64.32-.51,112.54-.31,144.55,7.95,3.57,19.12,7.65,27.79,8.71-.06-4.13-1.33-13.72-1.38-17.79-.56-49.19-.76-95.52-.56-139.1h0Zm410.89-128.91c-24.73-20.59-48.28-54.09-70.66-100.36,2.5,16.1,3.52,37.71,3.01,64.72,19.01,22.13,36.75,39.36,53.11,51.8,5.05-5.76,9.89-11.16,14.53-16.16h0Zm-403.91-125.44c-10.86,35.07-21.3,69.32-31.25,102.71-.25,28.19-.51,54.64-.71,79.41,7.24-.66,15.65-1.12,25.69-1.38,1.02-68.46,3.11-128.75,6.27-180.74h0Zm0,0" style="fill:#ee7c15; fill-rule:evenodd;"/><path d="M422.34,1031.76h185.03c8.47,0,14.32,6.93,13,15.4l-41.54,262.08c-1.33,8.52-9.38,15.45-17.84,15.45h-185.03c-8.46,0-14.32-6.93-12.99-15.45l41.54-262.08c1.33-8.47,9.38-15.4,17.83-15.4h0Zm0,0" style="fill:#22407a; fill-rule:evenodd;"/><path d="M59.54,1128.3c-8.02,32.42-11.31,62.13-4.75,101.49,19.93,29,100.52,12.79,308.02-21.92,7.44,6.83,22.79,13.56,46.18,10.56,21.72-5.42,22.73-11.07,47.05-34.05,5.92-17.84,4.69-31.5-3.62-40.94-27.42,16.16-41.85,24.73-72.68,25.75,8.2-21.15,9.42-34.76,3.72-40.93-10.55,8.46-17.43,21.15-20.59,38.08-163.56-7.09-206.69-6.17-228.46,5.25,2.35-10.24,4.44-19.27,6.28-27.07-25.49-8.66-46.19-13.71-81.15-16.2h0Zm0,0" style="fill:#ffb27d; fill-rule:evenodd;"/><path d="M415.22,2399.43c1.63,13.91,1.88,26.35,.71,37.36,55.82,24.26,46.33-3.72,68.66-4.43-5.61-9.89-9.23-22.48-10.91-37.82-24.37,6.98-38.18,8.56-58.46,4.89h0Zm-260.27,25.59c0,10.09-.97,19.01-2.96,26.66,14.94,11.83,32.12,24.11,41.59,16.62,4.54-3.57,16.2-4.69,25.03-2.7-3.62-12.23-6.47-27.52-8.61-45.88-19.57,5.3-34.61,7.03-55.05,5.3h0Zm0,0" style="fill:#ffb27d; fill-rule:evenodd;"/><path d="M543.41,1501.06c-98.58,91.96-230.49,92.2-395.64,.86-27.88,74.78,0,290.39-16.91,481.33-15.91,158.88-22.18,305.83,15.28,440.85,3.06,.36,5.96,.66,8.83,.92,20.44,1.73,35.48,0,55.1-5.3,3.21-.87,6.57-1.83,10.14-2.9,9.12-146.9,26.61-263.62,30.48-350.07,19.38-77.53,64.22-196.4,97.76-356.55,29.72,146.95,50.16,248.84,63.87,339.88-21.36,58.87-37.52,186.4-13.86,345.64,6.17,1.58,11.67,2.8,16.78,3.72,20.28,3.67,34.09,2.09,58.46-4.89,3.06-.87,6.28-1.84,9.68-2.86-2.09-152.61,29.72-260.97,51.23-342.32,12.03-230.85,31.2-410.37,8.82-548.3h0Zm0,0" style="fill:#2b478b; fill-rule:evenodd;"/><path d="M387.79,2286.32c35.99,9.74,68.91,12.69,98.83,8.82,.61-7.9,1.38-15.65,2.14-23.24-32.77,4.23-66.67,2.04-101.75-6.63,.21,6.93,.42,13.92,.77,21.05h0Zm-262.9,27.37c39.09,4.69,73.75,2.09,103.98-7.8,.71-8.21,1.49-16.31,2.29-24.26-33.9,11.06-70.04,14.83-108.46,11.31,.66,6.93,1.37,13.86,2.19,20.75h0Zm98.88,51.68c.65-8.15,1.32-16.16,1.93-24.11-30.17,8.26-62.14,10.91-95.89,7.95,1.13,6.98,2.4,13.96,3.73,20.95,33.33,3.72,63.45,2.14,90.22-4.79h0Zm261.12-45.01c-30.52,5.05-62.23,4.48-95.11-1.63,.52,6.98,1.13,14.02,1.84,21.15,33.64,7.09,64.38,8.36,92.2,3.77,.26-7.85,.62-15.65,1.07-23.29h0Zm0,0" style="fill:#2b478b; fill-rule:evenodd;"/><path d="M1165.72,0h414.4c33.23,0,60.45,27.21,60.45,60.5v206.33c0,33.29-27.22,60.5-60.45,60.5h-414.4c-33.28,0-60.46-27.21-60.46-60.5V60.5c0-33.29,27.17-60.5,60.46-60.5h0Zm0,0" style="fill:#aabcdd; fill-rule:evenodd;"/><path d="M1317.31,246.44l-147.21-63.97v-35.42l147.21-63.77v41.7l-102.71,39.3,102.71,40.78v41.39Zm13.51,28.18l53.36-221.92h30.9l-53.68,221.92h-30.58Zm97.71-27.87v-41.39l102.71-40.52-102.71-40.16v-41.08l147.21,63.76v35.23l-147.21,64.17Zm0,0" style="fill:#fff; fill-rule:evenodd;"/></svg>