<?xml version="1.0" encoding="UTF-8"?><svg id="a" xmlns="http://www.w3.org/2000/svg" viewBox="0 0 1732.48 1543.12"><path d="M842.78,0c211.09,0,300.03,151.04,452.42,268.44,201.7,155.39,403.38,54.24,435.67,579.28,28.74,467.31-329.92,50.59-835.62,217.99C389.56,1233.1-125.49,1300.51,27.34,758.92,180.17,217.31,352.29,0,842.78,0Z" style="fill:#e0e8f5; fill-rule:evenodd;"/><path d="M1242.26,1056.25s-38.97-45.46-2.4-74.32c0,0,26.68-16.16,48.45-14.86,0,0-30.84,51.73-20.87,56.88,9.98,5.15,30.22-60.11,30.22-60.11,0,0,60.78-5.9,80.32,3.5,0,0-51.95,42.51-40.98,45.04,10.89,2.53,67.05-39.2,67.05-39.2,0,0,56.52,9.64,53.52,44.13-3.01,34.5-22.51,45.13-31.09,44.23-8.54-.92-58.63-20.05-59.74-13.02-1.07,7.01,29.07,29.94,50.18,31.02,0,0-39.87,43.97-66.34,31.28-26.51-12.7-28.78-32.81-45.27-40.36-16.53-7.54-30.63-7.52-23.78,.17,6.8,7.69,36.69,15.18,46.13,31.88,9.45,16.69,17.94,27.98-9.52,23.84-27.38-4.12-71.94-24.17-73.93-47.15l-1.94-22.96Z" style="fill:#b0c2e4; fill-rule:evenodd;"/><path d="M1429.78,1018.24s-153.59-5.91-187.52,38.01c0,0-7.5,22.46-30.55,42.91l-3.63,9.81s26.6-28.05,36.12-29.76c0,0-14.89-54.42,185.58-60.97Z" style="fill:#9db2d9; fill-rule:evenodd;"/><path d="M1211.7,1099.15s-32.99,24.39-35.29,67.95l5.98,.53s10.55-45.04,29.56-62.66c19.05-17.61-.25-5.82-.25-5.82Z" style="fill:#9db2d9; fill-rule:evenodd;"/><path d="M1106.07,999.09s61.97-34.71,33.07-81.81c0,0-23.17-28.9-47.95-36.35,0,0,13.24,70.24,0,71.88-13.19,1.65-9.11-79.31-9.11-79.31,0,0-65.27-31.4-90.87-28.91,0,0,40.48,68.57,27.3,66.91-13.24-1.64-58.68-71.05-58.68-71.05,0,0-66.92-12.38-77.68,27.27-10.72,39.66,6.64,59.48,16.53,61.96,9.9,2.47,73.56,1.66,71.91,9.92-1.69,8.26-44.65,21.47-68.61,14.04,0,0,26.42,65.27,61.15,61.96,34.71-3.3,45.43-24.78,66.91-26.44,21.48-1.65,37.19,4.14,26.48,9.92-10.76,5.79-47.13,1.89-64.49,16.65-17.32,14.75-31.38,23.84,.87,30.44,32.19,6.62,90.04,2.49,101.59-22.3l11.58-24.78Z" style="fill:#c4d1eb; fill-rule:evenodd;"/><path d="M912.74,880.1s173.5,56.2,193.33,118.99c0,0-.82,28.09,16.5,60.32v12.38s-18.14-42.13-28.08-47.92c0,0,38.84-54.53-181.75-143.77Z" style="fill:#b0c2e4; fill-rule:evenodd;"/><path d="M1122.56,1059.4s26.8,40.62,11.54,90.09l-6.88-1.86s6.68-54.48-7.34-81.86c-13.98-27.41,2.68-6.37,2.68-6.37Z" style="fill:#b0c2e4; fill-rule:evenodd;"/><path d="M1204.65,951.23s-81.68-45.75-43.58-107.82c0,0,30.51-38.12,63.16-47.93,0,0-17.4,92.58,0,94.75,17.44,2.19,12-104.55,12-104.55,0,0,86.05-41.4,119.82-38.12,0,0-53.39,90.41-35.95,88.22,17.4-2.18,77.31-93.66,77.31-93.66,0,0,88.23-16.33,102.38,35.95,14.15,52.26-8.7,78.4-21.77,81.67-13.07,3.27-96.94,2.18-94.75,13.06,2.15,10.91,58.8,28.32,90.39,18.52,0,0-34.84,86.05-80.57,81.68-45.77-4.35-59.9-32.66-88.23-34.84-28.33-2.19-49.02,5.44-34.84,13.06,14.15,7.62,62.05,2.5,84.94,21.95,22.88,19.43,41.39,31.41-1.12,40.13-42.47,8.71-118.71,3.27-133.96-29.39l-15.21-32.68Z" style="fill:#c4d1eb; fill-rule:evenodd;"/><path d="M1459.5,794.4s-228.7,74.06-254.84,156.83c0,0,1.07,37.03-21.82,79.5v16.33s24-55.54,37.03-63.15c0,0-51.17-71.89,239.63-189.51Z" style="fill:#b0c2e4; fill-rule:evenodd;"/><path d="M1182.84,1030.73s-35.25,53.57-15.12,118.76l9.06-2.44s-8.82-71.81,9.65-107.93c18.43-36.11-3.59-8.39-3.59-8.39Z" style="fill:#b0c2e4; fill-rule:evenodd;"/><path d="M1243.53,1285.39c68.17-18.33,118.38-80.56,118.38-154.52h-320.04c0,73.96,50.2,136.19,118.37,154.52h83.29Z" style="fill:#b0c2e4; fill-rule:evenodd;"/><path d="M1179.73,1285.39c-68.18-18.33-118.36-80.56-118.36-154.52h39.79c0,73.96,50.14,136.2,118.31,154.52h-39.74Z" style="fill:#e0e8f5; fill-rule:evenodd;"/><rect x="1036.63" y="1130.87" width="328.91" height="4.92" style="fill:#9db2d9;"/><path d="M425.89,1543.12c229.96,0,417.51-23.67,417.51-52.7s-187.55-52.7-417.51-52.7-417.51,23.67-417.51,52.7,187.56,52.7,417.51,52.7Z" style="fill:#c4d1eb; fill-rule:evenodd;"/><path d="M879.57,521.19s-22.24-5.04-27.57-12.03c-5.33-6.97,11.67-24.65,11.67-24.65l16.43-2.45-.53,39.14Z" style="fill:#f9af79; fill-rule:evenodd;"/><path d="M870.66,487.48s16.13-14.78,18.67-16.95c2.53-2.18,12.47-3.18,23.09-1.58,10.33,1.55,25.02,2.15,26.1,3.66,1.07,1.52,2.71,2.35,2.76,7.11,.03,4.76-2.53,8.8-2.53,8.8,0,0,2.8,5.85-.76,10.59,0,0,2.39,5.62-2.53,10.36,0,0,2.18,5.54-1.68,8.68,0,0-9.29,1.12-12.61,2.53-3.32,1.41-22.79,2.41-41.61,.51,0,0-17.18-7.82-8.91-33.7Z" style="fill:#f9af79; fill-rule:evenodd;"/><path d="M901.64,490.01s-4.56,10-7.25,12.16c-2.71,2.16,17.42,15.95,17.42,15.95,0,0,1.84-22.26-10.17-28.11Z" style="fill:#ed7d57; fill-rule:evenodd;"/><path d="M935.55,472.4s-27.22,1.53-27.51,5.94c-.3,4.42,2.27,6.22,2.27,6.22l-10.92,5.7s-5.09,7.87,4.96,11.13c0,0-5.52,6.85,4.56,8.83,0,0-1.57,6.01,2.9,7.89,4.46,1.89,21.98,.03,21.98,.03,0,0,3.9-1.87,2.05-8.53,0,0,5.15-4.38,2.69-10.48,0,0,4.1-6.55,1.4-13.11,0,0,3.74-7.51-1.55-13.61,0,0-1.67-.09-2.82-.01Z" style="fill:#f9af79; fill-rule:evenodd;"/><path d="M890.17,470.39s17.11,7.58,24.63,15.81c1.71,1.87,3.02,3.98,1.92,6.26-1.08,2.29-5.78,3.61-13.35,.71-7.58-2.9-18.7-3.2-18.7-3.2,0,0-6.92-5.27,5.51-19.58Z" style="fill:#f9af79; fill-rule:evenodd;"/><path d="M939.93,486.03s-29.52-1.89-32.17-.47c-2.66,1.39-2.03-9.41,.31-10.45,2.36-1.05,26.94-3.37,29.41-3.03,2.47,.33,7.88,8.61,2.45,13.95Z" style="fill:#f9af79; fill-rule:evenodd;"/><polygon points="861.57 483.18 867.74 483.88 863.13 517.51 850.29 517.51 861.57 483.18" style="fill:#ddcac3; fill-rule:evenodd;"/><path d="M932.23,471.14s48.26,3.5,48.24,9.11c-.03,5.39-11.27,9.15-48.26,4.99-35.95-4.06,.02-14.09,.02-14.09Z" style="fill:#f9af79; fill-rule:evenodd;"/><path d="M598.12,1436.02s23.18,24.23,46.04,28.72c22.86,4.49,48.63,13.97,49.27,28.28,.63,14.32-74.2,22.57-100.66,8.98-39.47-20.28-43.18-13.67-47.84-24.29-4.66-10.63,3.87-39.75,3.48-43.16-.49-4.22,49.71,1.47,49.71,1.47Z" style="fill:#0e2952; fill-rule:evenodd;"/><path d="M595.22,1424.18l2.9,11.84c-.42,.27-50.93,7.97-49.71-1.47,.99-7.64,2.5-15.98,2.5-15.98l44.31,5.6Z" style="fill:#f9af79; fill-rule:evenodd;"/><path d="M126.84,1392.58s11.16,30.88,29.88,43.95c18.71,13.08,26.82,32.2,21.73,45.27-5.1,13.08-63.81,5.99-82.53-32.22-12.82-26.17-27.54-35.98-27.49-47.35,.05-11.37,13.45-27.44,14.45-30.67,1.23-3.97,43.96,21.02,43.96,21.02Z" style="fill:#0e2952; fill-rule:evenodd;"/><path d="M131.45,1381.39l-4.62,11.19c-.49,.07-48.25-12.74-43.96-21.02,3.41-6.57,9.96-13.62,9.96-13.62l38.61,23.45Z" style="fill:#f9af79; fill-rule:evenodd;"/><path d="M121.02,788.85s-2.75,15.38-3.32,30.93c-.56,15.56,1.91,21.45-2.7,28.86-3.48,5.57-11.93,7.7-12.98,5.14-1.04-2.55,6.46-26.39-3.33-29.74-9.79-3.35-7.41,30.19-12.46,26-5.05-4.19-23.06-24.35-17.45-35.71,5.62-11.37,17.59-16.78,23.3-34.71,5.17-16.26,12.57-21.2,12.57-21.2l16.37,30.44Z" style="fill:#f9af79; fill-rule:evenodd;"/><path d="M489.25,812.49s114.92,204.71,136.23,254.27c19.75,45.93,4.08,93.05,2.71,128.6-1.58,40.69-23.45,214.85-21.06,226.71,2.4,11.87-63.58,5.32-63.58,5.32,0,0,13.43-276.89-6.1-316.75-13.03-26.6-136.86-205.22-145.52-194.23-8.64,10.99-102.85,175-115.32,207.23-11.67,30.18-138.51,262.54-138.51,262.54,0,0-35.89-2.99-60.07-25.42,0,0,114.76-255.68,124.76-299.21,5.08-22.15,53.7-177.68,89.76-277.98,19.06-53.02,196.71,28.93,196.71,28.93Z" style="fill:#20386f; fill-rule:evenodd;"/><path d="M84.34,784.01s24.36,24.1,35.63,22.04c11.29-2.08,82.5-145.35,91.63-166.86,9.1-21.51,56.04-70.83,56.04-70.83l.03,.11v.07s.04,.09,.04,.09c1.26,4.62,18.5,68.62,19.1,99.37,.64,31.92,8.96,90.96,8.96,90.96l9.83,1.38,163.38,22.99,14.65,2.05s8.29-10.96,7.04-35.76c-.79-15.77-2.68-45.41-1.9-72.91v-.42s.04-1.05,.04-1.05l.02-.41c.5-15.09-8.67-27.96-5.85-38.83,7.85-30.41,2.61-57.62,2.49-58.82l1-59.82c1.57,3.42,108.3-6.82,117.14-3.58,8.99,3.31,158.69,6.52,168.11-2.26,10.04-9.39,6.84-24.49,6.84-24.49l-170.97-11.74-96.21-22.22c-1.35-1.07-21.29-.17-32.96-5.72-17.94-8.55-42.93-20.06-58.95-27.41-9.41-4.31-15.73-7.19-15.73-7.19,0,0-66.94-6.42-72.16-6.09-1.64,.1-9.64,2.88-20.15,6.88-22.72,8.63-57.15,22.93-64.14,27.95-10.23,7.33-79.12,157.52-85.15,168.16-6.03,10.64-77.83,174.35-77.83,174.35Z" style="fill:#fff; fill-rule:evenodd;"/><path d="M483.66,785.39s4.33,5.17,5.58,27.1c0,0-177.9-20.76-196.71-28.93,0,0-.73-24.16,3.25-24.58,4.38-.46,187.88,26.41,187.88,26.41Z" style="fill:#212956; fill-rule:evenodd;"/><path d="M331.96,400.64c.55,27.93,54.61,43.2,54.61,43.2,0,0,22.61-28.35,17.2-31.06-2.11-1.06-2.98-5.3-3.24-10.04-.25-4.51,.04-9.51,.31-12.67,.16-1.97,.31-3.24,.31-3.24,0,0-7.72-8.15-17.55-17.85-17.16-16.98-40.78-38.73-40.82-30.07,0,.45,.07,.99,.2,1.63,4.15,19.47-11.03,60.11-11.03,60.11Z" style="fill:#f9af79; fill-rule:evenodd;"/><path d="M336.44,763.26s-3.88,24.49-4.22,30.88l-8.23-1.65s2.26-25.91,3.6-30.26l8.85,1.02Z" style="fill:#556066; fill-rule:evenodd;"/><path d="M468.82,782.54s3.12,22.26,3.2,30.66l-8.72-1.12s-1.79-27.8-2.78-30.7l8.29,1.17Z" style="fill:#0e1538; fill-rule:evenodd;"/><path d="M211.61,639.2c-10.31,20.97-74.65,161.21-85.94,163.29-11.28,2.07-41.33-23.91-41.33-23.91,0,0,71.8-158.27,77.83-168.91,6.03-10.64,74.93-160.83,85.15-168.16,5.91-4.25,31.41-15.12,52.9-23.59,3.92-1.55,7.72-3.02,11.24-4.36,4.55,5.07,77.82,87.87,70.93,161.25-2.07,22.05-4.83,58.01-10.94,95.88-6.31,39.34-16.51,83.81-23.1,117.37-11.92,60.72-38.21,118.57-38.21,118.57l-68.6-34.34c-10.8-5.4-15.86-18.01-11.81-29.38,15.43-43.21,46.25-130.5,46.27-168.42,0,0-2.43-85.6-8.33-106.02,0,0-44.26,46.67-56.06,70.72Z" style="fill:#223f81; fill-rule:evenodd;"/><path d="M653.98,464.77l210.6,17.28s-2.95,27.41-5.57,36.85c-1.65,5.97-199.42,5.78-209.01,5.97-10.54,.2-152.29,5.07-153.85,1.66l-2.99,52.83c1.32,47.52-4.88,80.2-2.02,117.09,5.5,71.08,33.33,150.64,42.19,179.21,1.47,4.77,.09,9.97-3.59,13.35l-21.36,19.72s-29.71-91.53-33.22-124.58c-3.39-31.91-14.05-74.67-18.72-116.34v-.03c-5.92-52.85-12.08-105.23-16.46-136.01-11.47-80.1-20.89-111.48-20.89-111.48l.43-.33c5.19,2.38,11.31,5.2,17.82,8.2,13.63,6.3,69.68,16,82.95,18.17,0,0,116.92,14.09,133.7,18.45Z" style="fill:#223f81; fill-rule:evenodd;"/><path d="M326.47,482.85l26.3,14.83-11.23,11.47,29.92,161.53c6.1-37.87,8.87-73.83,10.94-95.88,6.89-73.38-66.38-156.18-70.93-161.25-3.52,1.34-7.32,2.82-11.24,4.36l26.24,64.93Z" style="fill:#20386f; fill-rule:evenodd;"/><path d="M418.68,419.58s9.82,32.09,21.29,112.2c4.38,30.78,10.54,83.16,16.46,136.01l6.12-151.28-12.53-13.57,11.13-13.92-23.83-60.85c-6.51-3-12.63-5.82-17.82-8.2l-.83-.38Z" style="fill:#20386f; fill-rule:evenodd;"/><path d="M300.23,417.92c-21.49,8.47-63.13,21.67-69.03,25.92-10.22,7.33-62.99,155.19-69.02,165.83l138.05-191.75Z" style="fill:#223f81; fill-rule:evenodd;"/><path d="M393.76,770.91s26.18,3.12,34.84,5.28l-1.14,29.34-34.28-3.65,.58-30.96Z" style="fill:#545b9c; fill-rule:evenodd;"/><path d="M407.71,467.79s-14.73,10.84-31.62,1.92c0,0,6.36-24.96,10.23-25.84,3.84-.87,23.27,19.39,21.4,23.92Z" style="fill:#6d96ce; fill-rule:evenodd;"/><path d="M310.15,413.89l21.81-13.25s.61,11.96,54.61,43.2l-15.34,43.2-61.09-73.14Z" style="fill:#c4d1eb; fill-rule:evenodd;"/><path d="M400.94,406.67s-.86,12.9-14.36,37.17l29.93,39.02,2.18-63.28-17.74-12.9Z" style="fill:#c4d1eb; fill-rule:evenodd;"/><path d="M387.52,466.75c1.39-4.06,3.81-4.2,7.24-.42,35.48,59.33,45.88,136.79,31.17,232.37-3.84,7.96-15.15,13.63-21.53,16.44-7.58-9.38-10.27-20.58-10.91-25.36,36.31-115.85,9.52-189.6-5.97-223.03Z" style="fill:#6d96ce; fill-rule:evenodd;"/><path d="M340.9,373.11s-11.63-18.49-21.45-27.4c-9.8-9.01-23.72-35.08-21.32-66.07,2.41-31.08,25.52-44.31,38.29-48.47,12.76-4.25,61.36-6.34,77.96,.86,16.63,7.2,11.2,69.4,11.2,69.4l-23.65,48.85-61.03,22.81Z" style="fill:#20386f; fill-rule:evenodd;"/><path d="M338.64,356.75c13.35,33.4,45.39,48.26,62.3,49.92l-4.25-27.12-57.66-48.07-.39,25.27Z" style="fill:#ed7d57; fill-rule:evenodd;"/><path d="M361.09,246c24.27-11.11,52.69,3.03,59.02,28.58,2.77,11.02,5.65,25.08,7.44,40.48,4.27,37.18-11.47,75.31-28.36,76.89-16.89,1.68-65.96-17.9-72.78-70.54-4.21-32.55,9.2-63.76,34.68-75.41Z" style="fill:#f9af79; fill-rule:evenodd;"/><path d="M339.26,324.36c.81,8.24-4.01,15.38-10.71,16.09-6.71,.61-12.79-5.51-13.61-13.76-.78-8.15,4.01-15.38,10.72-15.99,6.7-.71,12.79,5.41,13.6,13.66Z" style="fill:#f9af79; fill-rule:evenodd;"/><path d="M325.66,310.7s-4.53-17.54-3.7-34.74c.86-17.11,13.87-41.79,31.06-46.15,17.15-4.36,57.92,.33,62.65-10.94,4.72-11.27,4.77-10.19,6.48-11.95,3.9-4.13,28.92,10.97,29.17,39.95,.28,28.99-25.31,29.2-30.2,30.23-4.93,1.12-50.99-15.84-64.73-14.31-13.74,1.44-30.73,47.91-30.73,47.91Z" style="fill:#20386f; fill-rule:evenodd;"/><path d="M381.77,359.01c12.11,1.65,18.9,2.1,30.82,2.63,4.78,.21-6.65,12.09-31.57-2.02-.6-.33-.18-.74,.75-.61Z" style="fill:#eb795b; fill-rule:evenodd;"/><path d="M378.25,293.8c5.84,1.2,4.89,5.86,.38,6.39-47.94,5.57-14.83-9.41-.38-6.39Z" style="fill:#20386f; fill-rule:evenodd;"/><path d="M404.32,293.16c-5.78,1.4-4.68,6.02-.16,6.41,48.1,3.91,14.5-9.91,.16-6.41Z" style="fill:#20386f; fill-rule:evenodd;"/><path d="M395.88,345.04h.3c5.28-.45,8.1-.79,9.32-2.61,1.13-1.65,.5-3.77-.64-7.61-1.28-4.23-3.21-10.68-4.25-21.04-.07-.75-.76-1.28-1.51-1.22-.75,.07-1.3,.74-1.23,1.52,1.07,10.58,3.03,17.19,4.34,21.56,.75,2.52,1.4,4.7,1,5.27-.54,.81-4.28,1.15-7.29,1.41-.75,.07-1.31,.74-1.25,1.51,.06,.63,.57,1.14,1.19,1.23Z" style="fill:#eb795b; fill-rule:evenodd;"/><path d="M415.23,324.22c3.4,.09,6.37-12.81-1.87-12.99-4.41-.11-3.69,12.85,1.87,12.99Z" style="fill:#20386f; fill-rule:evenodd;"/><path d="M372.65,323.99c3.4,.07,6.37-12.8-1.87-12.99-4.4-.1-3.69,12.86,1.87,12.99Z" style="fill:#20386f; fill-rule:evenodd;"/><path d="M669.96,293.18l25.36,25.32-6.49,35.23c-.71,4.02,3.47,7.11,7.13,5.28l31.88-16.33,31.52,17.04c3.59,1.95,7.87-1.07,7.21-5.08l-5.65-35.42,25.95-24.7c2.97-2.79,1.39-7.78-2.65-8.43l-35.38-5.54-15.5-32.33c-1.76-3.68-6.99-3.73-8.83-.09l-16.23,31.93-35.53,4.74c-4.02,.54-5.71,5.5-2.8,8.38Z" style="fill:#9db2d9; fill-rule:evenodd;"/><path d="M729.12,245.43l-1.28,97.25,31.52,17.04c3.59,1.95,7.87-1.07,7.21-5.08l-5.65-35.42,25.95-24.7c2.96-2.79,1.39-7.78-2.65-8.43l-35.38-5.54-15.5-32.33c-.86-1.79-2.53-2.72-4.24-2.79Z" style="fill:#b0c2e4; fill-rule:evenodd;"/><path d="M820.87,293.18l25.36,25.32-6.49,35.23c-.72,4.02,3.47,7.11,7.12,5.28l31.89-16.33,31.52,17.04c3.58,1.95,7.88-1.07,7.21-5.08l-5.65-35.42,25.95-24.7c2.98-2.79,1.4-7.78-2.64-8.43l-35.39-5.54-15.49-32.33c-1.76-3.68-7-3.73-8.84-.09l-16.23,31.93-35.53,4.74c-4.03,.54-5.71,5.5-2.8,8.38Z" style="fill:#9db2d9; fill-rule:evenodd;"/><path d="M880.02,245.43l-1.28,97.25,31.52,17.04c3.59,1.95,7.88-1.07,7.21-5.08l-5.65-35.42,25.96-24.7c2.96-2.79,1.39-7.78-2.65-8.43l-35.38-5.54-15.5-32.33c-.86-1.79-2.53-2.72-4.24-2.79Z" style="fill:#b0c2e4; fill-rule:evenodd;"/><path d="M971.77,293.18l25.36,25.32-6.49,35.23c-.72,4.02,3.47,7.11,7.12,5.28l31.89-16.33,31.52,17.04c3.59,1.95,7.87-1.07,7.21-5.08l-5.65-35.42,25.95-24.7c2.97-2.79,1.4-7.78-2.65-8.43l-35.38-5.54-15.5-32.33c-1.76-3.68-6.99-3.73-8.83-.09l-16.23,31.93-35.53,4.74c-4.03,.54-5.72,5.5-2.8,8.38Z" style="fill:#9db2d9; fill-rule:evenodd;"/><path d="M1030.92,245.43l-1.27,97.25,31.52,17.04c3.59,1.95,7.87-1.07,7.21-5.08l-5.65-35.42,25.96-24.7c2.96-2.79,1.39-7.78-2.66-8.43l-35.37-5.54-15.5-32.33c-.86-1.79-2.53-2.72-4.24-2.79Z" style="fill:#b0c2e4; fill-rule:evenodd;"/><path d="M1122.67,293.18l25.36,25.32-6.48,35.23c-.72,4.02,3.46,7.11,7.12,5.28l31.88-16.33,31.53,17.04c3.59,1.95,7.87-1.07,7.21-5.08l-5.65-35.42,25.95-24.7c2.97-2.79,1.39-7.78-2.65-8.43l-35.38-5.54-15.49-32.33c-1.77-3.68-7-3.73-8.84-.09l-16.23,31.93-35.53,4.74c-4.03,.54-5.72,5.5-2.81,8.38Z" style="fill:#9db2d9; fill-rule:evenodd;"/><path d="M1181.83,245.43l-1.28,97.25,31.53,17.04c3.59,1.95,7.88-1.07,7.21-5.08l-5.65-35.42,25.95-24.7c2.97-2.79,1.39-7.78-2.65-8.43l-35.38-5.54-15.5-32.33c-.86-1.79-2.53-2.72-4.24-2.79Z" style="fill:#b0c2e4; fill-rule:evenodd;"/><path d="M1273.58,293.18l25.36,25.32-6.48,35.23c-.73,4.02,3.46,7.11,7.12,5.28l31.88-16.33,31.53,17.04c3.59,1.95,7.87-1.07,7.2-5.08l-5.64-35.42,25.95-24.7c2.97-2.79,1.39-7.78-2.65-8.43l-35.38-5.54-15.49-32.33c-1.76-3.68-6.99-3.73-8.83-.09l-16.23,31.93-35.53,4.74c-4.03,.54-5.72,5.5-2.81,8.38Z" style="fill:#9db2d9; fill-rule:evenodd;"/><path d="M1332.74,245.43l-1.28,97.25,31.53,17.04c3.59,1.95,7.87-1.07,7.2-5.08l-5.64-35.42,25.95-24.7c2.97-2.79,1.39-7.78-2.65-8.43l-35.38-5.54-15.49-32.33c-.86-1.79-2.53-2.72-4.24-2.79Z" style="fill:#b0c2e4; fill-rule:evenodd;"/></svg>