<?xml version="1.0" encoding="UTF-8"?><svg id="a" xmlns="http://www.w3.org/2000/svg" viewBox="0 0 2148.19 1439.23"><path d="M1840.35,288.97c-16.66,0-30.16-13.5-30.16-30.16s13.51-30.16,30.16-30.16,30.16,13.51,30.16,30.16-13.5,30.16-30.16,30.16h0ZM559.87,1012h-161.12c-86.72,0-157.67,70.95-157.67,157.67h0c0,86.71,70.95,157.67,157.67,157.67H1761.14c140.42,0,255.3-114.89,255.3-255.3h0c0-140.42-114.88-255.31-255.3-255.31h0c-59.37,0-107.95-48.58-107.95-107.95h0c0-59.37,48.57-107.95,107.95-107.95h129.92c61.73,0,112.23-50.5,112.23-112.23h0c0-61.73-50.5-112.23-112.23-112.23h-164.29c-24.03,0-43.69-19.66-43.69-43.7h0c0-24.03,19.66-43.69,43.69-43.69h28.96c16.59,0,30.16-13.57,30.16-30.16h0c0-16.58-13.57-30.16-30.16-30.16h-190.03c-40.02,0-44.47,47.28-145.56,47.28h-234.41c-21.64,0-39.35,17.71-39.35,39.35h0c0,21.64,17.7,39.35,39.35,39.35h37.79c31.35,0,57.01,25.66,57.01,57.01h0c0,31.35-25.66,57.01-57.01,57.01h-113.73c-153.57,0-175.26,40.13-202.16,119.96-26.9,79.82-166.58,86.25-166.58,86.25h-191c-47.25,0-85.92,38.66-85.92,85.91h0c0,47.26,38.67,85.93,85.92,85.93h9.84c45.45,0,82.63,37.18,82.63,82.64h0c0,45.45-37.19,82.64-82.63,82.64h0Z" style="fill:#e0e8f5; fill-rule:evenodd;"/><path d="M1188.42,266.16h-404.67c-39.02,0-70.87,31.85-70.87,70.87v122.31h0c-6.46,0-11.75,5.29-11.75,11.75v99.54c0,6.46,5.28,11.75,11.75,11.75h0v631.7c0,39.02,31.85,70.87,70.87,70.87h404.67c39.01,0,70.87-31.85,70.87-70.87V678.42c.33,.02,.66,.04,1,.04h0c6.47,0,11.75-5.28,11.75-11.75v-99.54c0-6.46-5.28-11.75-11.75-11.75h0c-.34,0-.67,.02-1,.05v-33.87c.33,.03,.66,.05,1,.05h0c6.47,0,11.75-5.29,11.75-11.75v-99.54c0-6.46-5.28-11.75-11.75-11.75h0c-.34,0-.67,.02-1,.04v-61.63c0-39.01-31.85-70.87-70.87-70.87Z" style="fill:#b0c2e4; fill-rule:evenodd;"/><path d="M1188.42,285.06h-404.67c-28.58,0-51.97,23.38-51.97,51.96v877.05c0,28.59,23.38,51.97,51.97,51.97h404.67c28.58,0,51.96-23.38,51.96-51.97V337.02c0-28.58-23.38-51.96-51.96-51.96Z" style="fill:#fff; fill-rule:evenodd;"/><path d="M1188.42,306.37h-404.67c-16.86,0-30.65,13.79-30.65,30.65v877.05c0,16.86,13.79,30.65,30.65,30.65h404.67c16.86,0,30.64-13.79,30.64-30.65V337.02c0-16.86-13.79-30.65-30.64-30.65Z" style="fill:#e0e8f5; fill-rule:evenodd;"/><path d="M186.52,1185.96s27.74-32.36,1.7-52.91c0,0-18.99-11.5-34.49-10.57,0,0,21.95,36.83,14.85,40.49-7.1,3.66-21.52-42.79-21.52-42.79,0,0-43.27-4.2-57.18,2.5,0,0,36.99,30.26,29.18,32.06-7.75,1.81-47.73-27.9-47.73-27.9,0,0-40.24,6.86-38.1,31.42,2.14,24.55,16.03,32.13,22.13,31.48,6.08-.65,41.74-14.28,42.53-9.26,.76,4.98-20.69,21.3-35.72,22.08,0,0,28.38,31.3,47.23,22.27,18.87-9.05,20.49-23.36,32.23-28.73,11.77-5.37,21.81-5.35,16.94,.12-4.84,5.48-26.13,10.81-32.85,22.71-6.72,11.88-12.77,19.91,6.78,16.97,19.49-2.93,51.22-17.21,52.63-33.56l1.38-16.35Z" style="fill:#b0c2e4; fill-rule:evenodd;"/><path d="M53.02,1158.91s109.34-4.21,133.5,27.06c0,0,5.34,16,21.75,30.55l2.58,6.98s-18.93-19.97-25.71-21.18c0,0,10.6-38.74-132.12-43.41Z" style="fill:#9db2d9; fill-rule:evenodd;"/><path d="M208.27,1216.52s23.48,17.36,25.13,48.38l-4.26,.37s-7.51-32.06-21.04-44.61c-13.56-12.54,.17-4.14,.17-4.14Z" style="fill:#9db2d9; fill-rule:evenodd;"/><path d="M283.47,1145.28s-44.12-24.71-23.54-58.25c0,0,16.49-20.57,34.14-25.87,0,0-9.42,50,0,51.17,9.39,1.17,6.49-56.46,6.49-56.46,0,0,46.46-22.35,64.69-20.59,0,0-28.83,48.82-19.43,47.64,9.42-1.17,41.77-50.58,41.77-50.58,0,0,47.64-8.82,55.3,19.41,7.63,28.23-4.73,42.35-11.77,44.11-7.04,1.77-52.36,1.18-51.19,7.06,1.21,5.88,31.79,15.29,48.84,10.01,0,0-18.82,46.46-43.53,44.11-24.72-2.36-32.35-17.64-47.64-18.83-15.29-1.17-26.47,2.94-18.84,7.07,7.66,4.11,33.55,1.34,45.91,11.85,12.33,10.49,22.34,16.96-.62,21.66-22.92,4.72-64.1,1.78-72.32-15.87l-8.25-17.64Z" style="fill:#c4d1eb; fill-rule:evenodd;"/><path d="M421.11,1060.56s-123.52,40.01-137.64,84.72c0,0,.59,19.99-11.74,42.93v8.81s12.91-29.99,19.99-34.1c0,0-27.65-38.82,129.39-102.36Z" style="fill:#b0c2e4; fill-rule:evenodd;"/><path d="M271.73,1188.21s-19.08,28.92-8.22,64.14l4.9-1.33s-4.76-38.78,5.22-58.28c9.95-19.51-1.9-4.54-1.9-4.54Z" style="fill:#b0c2e4; fill-rule:evenodd;"/><path d="M213.29,1111.21s58.15-32.57,31.03-76.76c0,0-21.72-27.15-44.97-34.13,0,0,12.39,65.91,0,67.46-12.42,1.57-8.55-74.43-8.55-74.43,0,0-61.26-29.46-85.3-27.14,0,0,38.01,64.36,25.6,62.8-12.39-1.54-55.04-66.68-55.04-66.68,0,0-62.82-11.62-72.88,25.6-10.07,37.2,6.19,55.81,15.5,58.14,9.3,2.33,69.01,1.55,67.45,9.3-1.53,7.77-41.86,20.16-64.35,13.19,0,0,24.81,61.25,57.36,58.15,32.58-3.1,42.65-23.26,62.82-24.8,20.16-1.56,34.9,3.87,24.8,9.3-10.07,5.42-44.18,1.77-60.47,15.62-16.29,13.83-29.47,22.36,.79,28.57,30.23,6.2,84.51,2.33,95.37-20.92l10.83-23.27Z" style="fill:#c4d1eb; fill-rule:evenodd;"/><path d="M31.85,999.55s162.83,52.72,181.43,111.65c0,0-.76,26.36,15.53,56.6v11.63s-17.08-39.54-26.36-44.96c0,0,36.42-51.18-170.6-134.92Z" style="fill:#b0c2e4; fill-rule:evenodd;"/><path d="M228.82,1167.8s25.1,38.14,10.77,84.55l-6.45-1.74s6.28-51.12-6.87-76.84c-13.12-25.72,2.55-5.97,2.55-5.97Z" style="fill:#b0c2e4; fill-rule:evenodd;"/><path d="M185.61,1349.1c-48.53-13.05-84.27-57.35-84.27-110.01h227.84c0,52.66-35.74,96.96-84.28,110.01h-59.29Z" style="fill:#b0c2e4; fill-rule:evenodd;"/><path d="M231.03,1349.1c48.54-13.05,84.26-57.35,84.26-110.01h-28.32c0,52.65-35.7,96.97-84.23,110.01h28.29Z" style="fill:#e0e8f5; fill-rule:evenodd;"/><rect x="98.74" y="1239.09" width="234.16" height="3.51" style="fill:#9db2d9;"/><path d="M1961.67,1185.96s-27.74-32.36-1.71-52.91c0,0,18.99-11.5,34.49-10.57,0,0-21.96,36.83-14.85,40.49,7.1,3.66,21.51-42.79,21.51-42.79,0,0,43.27-4.2,57.18,2.5,0,0-36.98,30.26-29.17,32.06,7.74,1.81,47.73-27.9,47.73-27.9,0,0,40.24,6.86,38.1,31.42-2.15,24.55-16.03,32.13-22.13,31.48-6.07-.65-41.74-14.28-42.54-9.26-.76,4.98,20.7,21.3,35.73,22.08,0,0-28.39,31.3-47.23,22.27-18.88-9.05-20.49-23.36-32.23-28.73-11.77-5.37-21.81-5.35-16.94,.12,4.84,5.48,26.12,10.81,32.85,22.71,6.72,11.88,12.77,19.91-6.78,16.97-19.5-2.93-51.23-17.21-52.63-33.56l-1.38-16.35Z" style="fill:#b0c2e4; fill-rule:evenodd;"/><path d="M2095.18,1158.91s-109.34-4.21-133.5,27.06c0,0-5.34,16-21.75,30.55l-2.58,6.98s18.94-19.97,25.72-21.18c0,0-10.6-38.74,132.12-43.41Z" style="fill:#9db2d9; fill-rule:evenodd;"/><path d="M1939.92,1216.52s-23.48,17.36-25.13,48.38l4.26,.37s7.52-32.06,21.05-44.61c13.56-12.54-.18-4.14-.18-4.14Z" style="fill:#9db2d9; fill-rule:evenodd;"/><path d="M1864.71,1145.28s44.12-24.71,23.55-58.25c0,0-16.49-20.57-34.13-25.87,0,0,9.42,50,0,51.17-9.39,1.17-6.49-56.46-6.49-56.46,0,0-46.46-22.35-64.69-20.59,0,0,28.83,48.82,19.43,47.64-9.42-1.17-41.77-50.58-41.77-50.58,0,0-47.64-8.82-55.3,19.41-7.63,28.23,4.72,42.35,11.77,44.11,7.04,1.77,52.37,1.18,51.2,7.06-1.21,5.88-31.79,15.29-48.84,10.01,0,0,18.81,46.46,43.53,44.11,24.72-2.36,32.34-17.64,47.64-18.83,15.29-1.17,26.47,2.94,18.84,7.07-7.66,4.11-33.55,1.34-45.9,11.85-12.33,10.49-22.34,16.96,.61,21.66,22.93,4.72,64.11,1.78,72.33-15.87l8.25-17.64Z" style="fill:#c4d1eb; fill-rule:evenodd;"/><path d="M1727.08,1060.56s123.52,40.01,137.64,84.72c0,0-.58,19.99,11.75,42.93v8.81s-12.92-29.99-19.99-34.1c0,0,27.65-38.82-129.39-102.36Z" style="fill:#b0c2e4; fill-rule:evenodd;"/><path d="M1876.46,1188.21s19.08,28.92,8.21,64.14l-4.9-1.33s4.76-38.78-5.22-58.28c-9.95-19.51,1.91-4.54,1.91-4.54Z" style="fill:#b0c2e4; fill-rule:evenodd;"/><path d="M1934.9,1111.21s-58.15-32.57-31.03-76.76c0,0,21.72-27.15,44.96-34.13,0,0-12.38,65.91,0,67.46,12.42,1.57,8.54-74.43,8.54-74.43,0,0,61.27-29.46,85.31-27.14,0,0-38.01,64.36-25.6,62.8,12.39-1.54,55.04-66.68,55.04-66.68,0,0,62.81-11.62,72.88,25.6,10.07,37.2-6.19,55.81-15.5,58.14-9.3,2.33-69.01,1.55-67.45,9.3,1.53,7.77,41.85,20.16,64.34,13.19,0,0-24.8,61.25-57.35,58.15-32.58-3.1-42.65-23.26-62.82-24.8-20.16-1.56-34.89,3.87-24.8,9.3,10.07,5.42,44.18,1.77,60.47,15.62,16.29,13.83,29.47,22.36-.79,28.57-30.23,6.2-84.51,2.33-95.37-20.92l-10.83-23.27Z" style="fill:#c4d1eb; fill-rule:evenodd;"/><path d="M2116.34,999.55s-162.83,52.72-181.44,111.65c0,0,.77,26.36-15.53,56.6v11.63s17.09-39.54,26.36-44.96c0,0-36.42-51.18,170.61-134.92Z" style="fill:#b0c2e4; fill-rule:evenodd;"/><path d="M1919.37,1167.8s-25.1,38.14-10.77,84.55l6.45-1.74s-6.28-51.12,6.87-76.84c13.12-25.72-2.56-5.97-2.56-5.97Z" style="fill:#b0c2e4; fill-rule:evenodd;"/><path d="M1962.58,1349.1c48.54-13.05,84.28-57.35,84.28-110.01h-227.85c0,52.66,35.74,96.96,84.28,110.01h59.29Z" style="fill:#b0c2e4; fill-rule:evenodd;"/><path d="M1917.16,1349.1c-48.54-13.05-84.26-57.35-84.26-110.01h28.32c0,52.65,35.7,96.97,84.23,110.01h-28.29Z" style="fill:#e0e8f5; fill-rule:evenodd;"/><rect x="1815.29" y="1239.09" width="234.16" height="3.51" style="fill:#9db2d9;"/><path d="M973.97,1383.45c477.4,0,864.4,12.49,864.4,27.89s-387,27.89-864.4,27.89-864.4-12.49-864.4-27.89,387.01-27.89,864.4-27.89Z" style="fill:#c4d1eb; fill-rule:evenodd;"/><path d="M914.58,423.86h608.01c14.85,0,27,12.15,27,27v93.96c0,14.85-12.15,27-27,27h-69.79v77.81l-86.59-77.81h-451.64c-14.84,0-27-12.15-27-27v-93.96c0-14.85,12.15-27,27-27Z" style="fill:#9db2d9; fill-rule:evenodd;"/><path d="M948.9,536.99l4.54-26.85-19.54-18.95c-2.21-2.17-.99-5.93,2.08-6.41l26.93-3.95,12.01-24.43c1.36-2.79,5.35-2.81,6.7-.04l12.12,24.41,26.95,3.86c3.07,.42,4.29,4.2,2.08,6.39l-19.46,19.02,4.65,26.85c.53,3.06-2.69,5.39-5.43,3.95l-24.12-12.62-24.09,12.72c-2.73,1.44-5.96-.88-5.43-3.95Z" style="fill:#c4d1eb; fill-rule:evenodd;"/><path d="M1069.02,536.99l4.54-26.85-19.54-18.95c-2.21-2.17-.99-5.93,2.08-6.41l26.93-3.95,12.01-24.43c1.37-2.79,5.34-2.81,6.7-.04l12.12,24.41,26.95,3.86c3.07,.42,4.29,4.2,2.08,6.39l-19.47,19.02,4.66,26.85c.53,3.06-2.68,5.39-5.43,3.95l-24.12-12.62-24.09,12.72c-2.73,1.44-5.96-.88-5.43-3.95Z" style="fill:#c4d1eb; fill-rule:evenodd;"/><path d="M1189.15,536.99l4.54-26.85-19.54-18.95c-2.22-2.17-.99-5.93,2.08-6.41l26.94-3.95,12.01-24.43c1.37-2.79,5.35-2.81,6.7-.04l12.11,24.41,26.96,3.86c3.07,.42,4.29,4.2,2.08,6.39l-19.47,19.02,4.66,26.85c.53,3.06-2.68,5.39-5.43,3.95l-24.12-12.62-24.09,12.72c-2.72,1.44-5.97-.88-5.42-3.95Z" style="fill:#c4d1eb; fill-rule:evenodd;"/><path d="M1309.28,536.99l4.54-26.85-19.54-18.95c-2.22-2.17-.99-5.93,2.08-6.41l26.94-3.95,12.01-24.43c1.37-2.79,5.35-2.81,6.7-.04l12.12,24.41,26.95,3.86c3.07,.42,4.29,4.2,2.08,6.39l-19.47,19.02,4.66,26.85c.53,3.06-2.69,5.39-5.43,3.95l-24.12-12.62-24.09,12.72c-2.72,1.44-5.97-.88-5.42-3.95Z" style="fill:#c4d1eb; fill-rule:evenodd;"/><path d="M1429.4,536.99l4.54-26.85-19.54-18.95c-2.22-2.17-.99-5.93,2.08-6.41l26.94-3.95,12.01-24.43c1.36-2.79,5.34-2.81,6.7-.04l12.12,24.41,26.95,3.86c3.07,.42,4.29,4.2,2.08,6.39l-19.47,19.02,4.65,26.85c.54,3.06-2.68,5.39-5.42,3.95l-24.12-12.62-24.08,12.72c-2.74,1.44-5.97-.88-5.43-3.95Z" style="fill:#c4d1eb; fill-rule:evenodd;"/><path d="M187.82,631.78H1020.54c20.34,0,36.98,16.64,36.98,36.97v128.68c0,20.34-16.64,36.98-36.98,36.98h-95.58v106.56l-118.59-106.56H187.82c-20.33,0-36.97-16.63-36.97-36.98v-128.68c0-20.33,16.63-36.97,36.97-36.97Z" style="fill:#9db2d9; fill-rule:evenodd;"/><path d="M234.82,786.73l6.23-36.77-26.77-25.96c-3.04-2.97-1.35-8.12,2.85-8.78l36.89-5.4,16.45-33.47c1.86-3.83,7.32-3.85,9.17-.05l16.59,33.44,36.92,5.28c4.21,.58,5.88,5.76,2.84,8.75l-26.66,26.05,6.38,36.76c.73,4.19-3.68,7.39-7.44,5.41l-33.03-17.28-32.99,17.42c-3.74,1.98-8.17-1.22-7.44-5.42Z" style="fill:#c4d1eb; fill-rule:evenodd;"/><path d="M399.34,786.73l6.22-36.77-26.77-25.96c-3.03-2.97-1.35-8.12,2.85-8.78l36.89-5.4,16.45-33.47c1.86-3.83,7.32-3.85,9.17-.05l16.59,33.44,36.92,5.28c4.2,.58,5.88,5.76,2.84,8.75l-26.66,26.05,6.38,36.76c.73,4.19-3.68,7.39-7.43,5.41l-33.04-17.28-32.99,17.42c-3.74,1.98-8.17-1.22-7.44-5.42Z" style="fill:#c4d1eb; fill-rule:evenodd;"/><path d="M563.86,786.73l6.22-36.77-26.76-25.96c-3.04-2.97-1.35-8.12,2.85-8.78l36.89-5.4,16.45-33.47c1.86-3.83,7.32-3.85,9.17-.05l16.59,33.44,36.91,5.28c4.2,.58,5.88,5.76,2.85,8.75l-26.66,26.05,6.37,36.76c.73,4.19-3.67,7.39-7.43,5.41l-33.04-17.28-32.99,17.42c-3.74,1.98-8.17-1.22-7.44-5.42Z" style="fill:#c4d1eb; fill-rule:evenodd;"/><path d="M728.39,786.73l6.22-36.77-26.77-25.96c-3.04-2.97-1.35-8.12,2.85-8.78l36.89-5.4,16.45-33.47c1.86-3.83,7.32-3.85,9.17-.05l16.59,33.44,36.92,5.28c4.2,.58,5.88,5.76,2.84,8.75l-26.66,26.05,6.38,36.76c.73,4.19-3.68,7.39-7.44,5.41l-33.03-17.28-32.99,17.42c-3.74,1.98-8.17-1.22-7.44-5.42Z" style="fill:#c4d1eb; fill-rule:evenodd;"/><path d="M892.91,786.73l6.22-36.77-26.77-25.96c-3.03-2.97-1.35-8.12,2.85-8.78l36.89-5.4,16.45-33.47c1.86-3.83,7.32-3.85,9.17-.05l16.59,33.44,36.92,5.28c4.2,.58,5.88,5.76,2.84,8.75l-26.66,26.05,6.38,36.76c.73,4.19-3.68,7.39-7.43,5.41l-33.04-17.28-32.99,17.42c-3.74,1.98-8.17-1.22-7.44-5.42Z" style="fill:#c4d1eb; fill-rule:evenodd;"/><path d="M1345.87,696.15h545.72c13.33,0,24.23,10.9,24.23,24.23v84.33c0,13.32-10.9,24.23-24.23,24.23h-62.64v69.84l-77.71-69.84h-405.37c-13.32,0-24.23-10.91-24.23-24.23v-84.33c0-13.33,10.9-24.23,24.23-24.23Z" style="fill:#9db2d9; fill-rule:evenodd;"/><path d="M1376.67,797.69l4.07-24.1-17.53-17.01c-1.99-1.95-.88-5.32,1.86-5.75l24.17-3.55,10.78-21.93c1.22-2.51,4.79-2.53,6.01-.03l10.88,21.91,24.19,3.46c2.75,.39,3.86,3.78,1.87,5.74l-17.47,17.07,4.17,24.1c.48,2.75-2.41,4.84-4.87,3.55l-21.65-11.32-21.62,11.42c-2.45,1.29-5.35-.8-4.87-3.55Z" style="fill:#c4d1eb; fill-rule:evenodd;"/><path d="M1484.48,797.69l4.08-24.1-17.53-17.01c-1.99-1.95-.88-5.32,1.86-5.75l24.17-3.55,10.78-21.93c1.22-2.51,4.8-2.53,6.01-.03l10.87,21.91,24.2,3.46c2.75,.39,3.86,3.78,1.87,5.74l-17.47,17.07,4.17,24.1c.48,2.75-2.41,4.84-4.87,3.55l-21.65-11.32-21.63,11.42c-2.44,1.29-5.35-.8-4.87-3.55Z" style="fill:#c4d1eb; fill-rule:evenodd;"/><path d="M1592.31,797.69l4.08-24.1-17.54-17.01c-1.99-1.95-.88-5.32,1.87-5.75l24.17-3.55,10.78-21.93c1.21-2.51,4.79-2.53,6-.03l10.88,21.91,24.2,3.46c2.75,.39,3.85,3.78,1.86,5.74l-17.47,17.07,4.18,24.1c.47,2.75-2.41,4.84-4.87,3.55l-21.65-11.32-21.63,11.42c-2.45,1.29-5.35-.8-4.87-3.55Z" style="fill:#c4d1eb; fill-rule:evenodd;"/><path d="M1700.13,797.69l4.08-24.1-17.54-17.01c-1.99-1.95-.88-5.32,1.86-5.75l24.18-3.55,10.78-21.93c1.22-2.51,4.79-2.53,6.01-.03l10.88,21.91,24.19,3.46c2.76,.39,3.86,3.78,1.87,5.74l-17.47,17.07,4.17,24.1c.48,2.75-2.41,4.84-4.87,3.55l-21.64-11.32-21.62,11.42c-2.45,1.29-5.35-.8-4.87-3.55Z" style="fill:#c4d1eb; fill-rule:evenodd;"/><path d="M1807.95,797.69l4.07-24.1-17.53-17.01c-1.99-1.95-.88-5.32,1.86-5.75l24.18-3.55,10.78-21.93c1.22-2.51,4.79-2.53,6.01-.03l10.88,21.91,24.19,3.46c2.75,.39,3.86,3.78,1.86,5.74l-17.47,17.07,4.18,24.1c.48,2.75-2.4,4.84-4.87,3.55l-21.65-11.32-21.62,11.42c-2.45,1.29-5.35-.8-4.87-3.55Z" style="fill:#c4d1eb; fill-rule:evenodd;"/><path d="M288.07,0h832.72c20.34,0,36.97,16.64,36.97,36.97V165.65c0,20.34-16.63,36.98-36.97,36.98h-95.58v106.56l-118.59-106.56H288.07c-20.32,0-36.97-16.64-36.97-36.98V36.97c0-20.34,16.64-36.97,36.97-36.97Z" style="fill:#9db2d9; fill-rule:evenodd;"/><path d="M335.07,154.94l6.23-36.78-26.77-25.95c-3.04-2.98-1.35-8.12,2.85-8.78l36.89-5.41,16.45-33.47c1.86-3.82,7.32-3.85,9.17-.05l16.59,33.44,36.91,5.28c4.21,.58,5.88,5.75,2.84,8.75l-26.65,26.05,6.38,36.77c.73,4.19-3.68,7.38-7.44,5.41l-33.04-17.28-32.99,17.43c-3.74,1.97-8.16-1.21-7.44-5.41Z" style="fill:#c4d1eb; fill-rule:evenodd;"/><path d="M499.59,154.94l6.22-36.78-26.76-25.95c-3.04-2.98-1.35-8.12,2.85-8.78l36.89-5.41,16.45-33.47c1.86-3.82,7.32-3.85,9.17-.05l16.59,33.44,36.92,5.28c4.2,.58,5.88,5.75,2.84,8.75l-26.66,26.05,6.38,36.77c.73,4.19-3.68,7.38-7.44,5.41l-33.03-17.28-32.99,17.43c-3.74,1.97-8.17-1.21-7.44-5.41Z" style="fill:#c4d1eb; fill-rule:evenodd;"/><path d="M664.11,154.94l6.23-36.78-26.77-25.95c-3.04-2.98-1.35-8.12,2.85-8.78l36.89-5.41,16.44-33.47c1.86-3.82,7.32-3.85,9.17-.05l16.59,33.44,36.92,5.28c4.2,.58,5.88,5.75,2.84,8.75l-26.66,26.05,6.38,36.77c.72,4.19-3.68,7.38-7.44,5.41l-33.04-17.28-32.99,17.43c-3.74,1.97-8.16-1.21-7.44-5.41Z" style="fill:#c4d1eb; fill-rule:evenodd;"/><path d="M828.63,154.94l6.23-36.78-26.77-25.95c-3.04-2.98-1.35-8.12,2.85-8.78l36.89-5.41,16.45-33.47c1.86-3.82,7.32-3.85,9.17-.05l16.59,33.44,36.91,5.28c4.21,.58,5.88,5.75,2.84,8.75l-26.65,26.05,6.38,36.77c.73,4.19-3.68,7.38-7.44,5.41l-33.04-17.28-32.99,17.43c-3.74,1.97-8.17-1.21-7.44-5.41Z" style="fill:#c4d1eb; fill-rule:evenodd;"/><path d="M993.16,154.94l6.22-36.78-26.76-25.95c-3.04-2.98-1.35-8.12,2.85-8.78l36.89-5.41,16.45-33.47c1.86-3.82,7.32-3.85,9.17-.05l16.59,33.44,36.92,5.28c4.21,.58,5.87,5.75,2.84,8.75l-26.66,26.05,6.38,36.77c.73,4.19-3.68,7.38-7.44,5.41l-33.03-17.28-32.99,17.43c-3.74,1.97-8.17-1.21-7.44-5.41Z" style="fill:#c4d1eb; fill-rule:evenodd;"/><rect x="658.69" y="388.4" width="153.97" height="81.53" style="fill:#fff;"/><rect x="658.69" y="493.2" width="153.97" height="34.98" style="fill:#fff;"/><path d="M740.4,396.94c-3.16-5.03-6.03-8.64-8.61-10.83,12.25-6.64,19.04-13.93,20.38-21.89,1.8,1.58,3.3,3.48,4.54,5.71-4.55,10.85-9.98,19.85-16.3,27.01Z" style="fill:#466fb5; fill-rule:evenodd;"/><path d="M723.17,396.94c3.16-5.03,6.02-8.64,8.61-10.83-12.25-6.64-19.04-13.93-20.38-21.89-1.79,1.58-3.31,3.48-4.54,5.71,4.55,10.85,9.99,19.85,16.31,27.01Z" style="fill:#466fb5; fill-rule:evenodd;"/><path d="M831.44,407.41c-13.21-18.27-38.13-30.77-74.74-37.48-4.55,10.85-9.98,19.85-16.3,27.01-3.16-5.03-6.03-8.64-8.61-10.83-2.59,2.19-5.45,5.8-8.61,10.83-6.32-7.16-11.76-16.16-16.31-27.01-36.61,6.71-61.53,19.21-74.74,37.48-10.11,29.58-16.78,53.03-20.02,70.32,10.72,2.3,23.06,5.02,37.03,8.15-1.87,33.38-2.35,61.89-1.45,85.54,19.52,5.68,46.8,15.81,79.29,29.4,1.68-.06,3.29-.14,4.81-.25,1.52,.11,3.13,.19,4.81,.25,32.49-13.59,59.76-23.72,79.28-29.4,.9-23.64,.42-52.15-1.45-85.54,13.97-3.13,26.31-5.85,37.03-8.15-3.24-17.3-9.91-40.74-20.02-70.32Z" style="fill:#6d96ce; fill-rule:evenodd;"/><path d="M808.58,430c2.59,16.73,4.54,35.35,5.85,55.89,1.77-.4,3.51-.78,5.22-1.17-2.27-12.72-5.97-30.96-11.07-54.72Z" style="fill:#466fb5; fill-rule:evenodd;"/><path d="M655,430c-2.59,16.73-4.55,35.35-5.86,55.89-1.77-.4-3.51-.78-5.22-1.17,2.28-12.72,5.97-30.96,11.08-54.72Z" style="fill:#466fb5; fill-rule:evenodd;"/><path d="M807.51,636.72c3.94,10.02-3.3,26.18-8.2,29.41-89.43-8.98-145.26-21.55-179.7-38.96-10.27-5.68-28.2-8.13-39.12-15.37-26.43-27.88-6.64-64.43,19.56-62.63,18.32,3.53,26.95,8.77,35.62,19.1,31.35,7.16,95.15,32.46,171.84,68.46Z" style="fill:#1d417f; fill-rule:evenodd;"/><path d="M902.65,651.66c3.6,24.41-26.87,28.27-89.55,17.64,26.35-8.7,29.84-16.37,10.21-28.62,54.53-9.88,79.43-9.79,79.34,10.98h0Zm-341.73,0c-3.6,24.41,26.87,28.27,89.56,17.64-26.35-8.7-29.84-16.37-10.21-28.62-54.53-9.88-79.43-9.79-79.34,10.98Z" style="fill:#0e2952; fill-rule:evenodd;"/><path d="M800.46,665.17c5.26,1,9.47,2.38,12.64,4.13,26.35-8.7,29.84-16.37,10.21-28.62-4.45,.21-9.48-.36-15.12-1.73,2.06,9.2-3.3,21.88-7.73,26.22h0Zm-137.35,0c-5.26,1-9.47,2.38-12.63,4.13-26.35-8.7-29.84-16.37-10.21-28.62,4.45,.21,9.49-.36,15.12-1.73-2.05,9.2,3.31,21.88,7.73,26.22Z" style="fill:#f9af79; fill-rule:evenodd;"/><path d="M848.2,533.48c2.16-17.63,1.62-35.86-1.62-54.69-8.12,1.76-17.1,3.74-26.94,5.93-1.71,.38-3.45,.77-5.22,1.17,1.82,32.34,2.32,60.11,1.54,83.31,16.01-12.9,26.76-24.81,32.24-35.71Z" style="fill:#f9af79; fill-rule:evenodd;"/><path d="M615.37,533.48c-2.16-17.63-1.62-35.86,1.61-54.69,8.12,1.76,17.1,3.74,26.94,5.93,1.71,.38,3.45,.77,5.22,1.17-1.81,32.34-2.32,60.11-1.53,83.31-16.02-12.9-26.77-24.81-32.24-35.71Z" style="fill:#f9af79; fill-rule:evenodd;"/><path d="M823.75,528.82c-.15-12.63-.61-27.53-1.37-44.71-.9,.2-1.81,.4-2.72,.61-1.71,.38-3.45,.77-5.22,1.17,1.12,19.94,1.74,38.14,1.87,54.6,1.46-1.7,3.17-3.69,5.11-5.97,5.55-2.36,11.1-3.52,16.65-3.49-6.38-1.98-11.16-2.71-14.31-2.21h0Zm-183.92,0c.15-12.63,.61-27.53,1.38-44.71,.9,.2,1.8,.4,2.72,.61,1.71,.38,3.45,.77,5.22,1.17-1.12,19.94-1.74,38.14-1.87,54.6-1.46-1.7-3.17-3.69-5.11-5.97-5.55-2.36-11.1-3.52-16.65-3.49,6.38-1.98,11.16-2.71,14.31-2.21Z" style="fill:#ed7d57; fill-rule:evenodd;"/><path d="M650.11,494.98h163.36c1.56,0,2.84,1.28,2.84,2.84v73.47c-19.5,5.65-46.85,15.78-79.47,29.42h-10.12c-32.62-13.64-59.96-23.77-79.46-29.42v-73.47c0-1.56,1.28-2.84,2.84-2.84Z" style="fill:#c4d1eb; fill-rule:evenodd;"/><path d="M654.87,573.6c18.75,5.91,43.29,15.17,71.86,27.11l.25,.11,1.97-.11h5.69l1.97,.11c28.68-12,53.3-21.3,72.11-27.22v-60.68c-10.73,13.6-32.1,24.85-59.44,31.58,.14,.9,.21,1.81,.21,2.74,0,9.77-7.92,17.7-17.69,17.7-8.76,0-16.02-6.36-17.44-14.71-7.87,.71-15.99,1.08-24.31,1.08-12.21,0-24-.8-35.17-2.3v24.59Z" style="fill:#9db2d9; fill-rule:evenodd;"/><path d="M714.71,281.49c11.02,15.32,28.5,28.78,52.44,40.4-5.99,17.94-15.03,35.45-34.78,38.72-18.93-3.04-29.4-16.72-33.68-36.16,10.17-11.33,15.51-25.65,16.01-42.96Z" style="fill:#f9af79; fill-rule:evenodd;"/><path d="M786.49,291.22c0-30.23-24.72-54.95-54.95-54.95s-54.95,24.72-54.95,54.95v86.48c9-3.13,19.1-5.72,30.28-7.77,1.23-2.23,2.75-4.13,4.54-5.71,1.34,7.95,8.13,15.24,20.38,21.89,12.25-6.64,19.04-13.93,20.38-21.89,1.8,1.58,3.3,3.48,4.54,5.71,10.99,2.01,20.92,4.55,29.79,7.6v-86.31h0Zm-71.79-9.73c11.02,15.32,28.5,28.78,52.44,40.4-5.99,17.94-15.03,35.45-34.78,38.72-18.93-3.04-29.4-16.72-33.68-36.16,10.17-11.33,15.51-25.65,16.01-42.96Z" style="fill:#20386f; fill-rule:evenodd;"/><path d="M752.16,364.22c-1.37-2.15-2.34-5.98-2.9-11.48-4.57,3.93-10.1,6.74-16.89,7.86-7.94-1.27-14.4-4.42-19.52-9.08-.17,5.04-.66,9.27-1.44,12.7,1.34,7.95,8.13,15.24,20.38,21.89,12.25-6.64,19.04-13.93,20.38-21.89Z" style="fill:#f9af79; fill-rule:evenodd;"/><path d="M749.82,356.91c-.22-1.26-.4-2.65-.55-4.16-4.57,3.93-10.1,6.74-16.89,7.86-7.94-1.27-14.4-4.42-19.52-9.08-.06,1.79-.16,3.47-.3,5.06,4.72,3.22,11.39,5.95,19.99,8.21,5.45-1.47,11.19-3.49,17.27-7.89Z" style="fill:#ed7d57; fill-rule:evenodd;"/><path d="M676.59,338.31h24.82v73.58h-30.88c5.79-23.77,8.04-48.25,6.06-73.58Z" style="fill:#20386f; fill-rule:evenodd;"/><path d="M761.67,338.31h24.82c-1.7,24.43,1.55,49,5.64,73.58h-30.46v-73.58Z" style="fill:#20386f; fill-rule:evenodd;"/><path d="M731.79,535.79c6.32,0,11.45,5.13,11.45,11.45s-5.13,11.45-11.45,11.45-11.45-5.13-11.45-11.45,5.12-11.45,11.45-11.45Z" style="fill:#9db2d9; fill-rule:evenodd;"/><path d="M656.06,636.72c-3.94,10.02,3.3,26.18,8.21,29.41,89.43-8.98,145.25-21.55,179.7-38.96,10.27-5.68,28.2-8.13,39.12-15.37,26.43-27.88,6.64-64.43-19.56-62.63-18.32,3.53-26.95,8.77-35.63,19.1-31.35,7.16-95.14,32.46-171.84,68.46Z" style="fill:#1d417f; fill-rule:evenodd;"/><path d="M725.82,600.34c-48.88,19.04-87.38,26.68-115.5,22.92,3.44,1.18,6.61,2.44,9.28,3.91,9,4.55,19.45,8.77,31.58,12.68,1.36-.24,2.76-.54,4.2-.89,.17-.77,.4-1.52,.68-2.23,27.15-12.74,52.68-24.14,75.73-33.88-1.62-.68-3.22-1.36-4.81-2.02-.08-.04-.16-.07-.24-.11-.3-.12-.61-.25-.91-.38Z" style="fill:#0e2952; fill-rule:evenodd;"/><path d="M808.53,641.06c-20.62,6.35-45.88,11.87-76.74,16.65,20.05,3.1,42.46,5.9,67.52,8.42,.37-.25,.76-.57,1.16-.96,4.09-4.02,8.99-15.17,8.07-24.11Z" style="fill:#0e2952; fill-rule:evenodd;"/><path d="M723.3,298.24c-7.89-1.73-21.43,6.75-17.02,7.64,1.43,.29,5.46-2.14,7-2.57,3.1-.85,9.08-.43,10.76-2.46,.69-.83,.26-2.38-.74-2.61Z" style="fill:#20386f; fill-rule:evenodd;"/><path d="M740.8,301c1.68,2.03,7.67,1.58,10.76,2.45,1.54,.42,5.58,2.83,7.02,2.53,4.39-.89-9.17-9.42-17.03-7.6-1.12,.27-1.45,1.78-.74,2.61Z" style="fill:#20386f; fill-rule:evenodd;"/><path d="M716.23,317.12c-2.28,0-4.07-8.69,1.47-8.69,2.96,0,2.27,8.69-1.47,8.69Z" style="fill:#20386f; fill-rule:evenodd;"/><path d="M750.16,317.45c2.29,0,4.08-8.68-1.47-8.68-2.95,0-2.28,8.68,1.47,8.68Z" style="fill:#20386f; fill-rule:evenodd;"/><path d="M729.39,331.26c-.24-.97,1.41-1.05,2.44-1.29,3.77-.83,3.94,1,2.19-14.81-.34-3.1-.87-4.76,.24-4.85,1.04-.07,.76,1.15,1.16,4.67,1.9,17.2,1.94,15.08-5.17,16.78-.37,.09-.76-.13-.85-.5Z" style="fill:#ed7d57; fill-rule:evenodd;"/><path d="M724.71,344.84c-.93-1.7,1.5-1.24,16.44-2.82,4.47-.46-8.69,16.93-16.44,2.82Z" style="fill:#ed7d57; fill-rule:evenodd;"/><path d="M397.75,609.5c-4.76-16-9.61-32.01-26.56-43.12-13.7-8.96-29.32-9.86-43.6-4.03-40.44,16.49-25.04,52.23-52.84,87.07-11.9,14.86-28.71,21.78-37.92,37.61-16.68,28.53-6.89,77.36,31,106.92,92.79,72.41,153.62-42.26,155.54-67.68,1.44-18.9-22.54-106.45-25.61-116.75Z" style="fill:#20386f; fill-rule:evenodd;"/><path d="M361.92,717.85l-4.44-23.14s13.11,3.13,21.45,16.1c8.34,12.98,22.29,56.72,24.68,58.03,2.39,1.31,28.77-39.31,33.39-45.76,5.7-7.89,7.82-17.02,11.39-23.93,3.58-6.91,16.15-9.26,20.93-8.35,4.75,.85-6.55,21.06-6.55,21.06,0,0-28.59,49.62-38.12,76.86-9.52,27.18-39.31,40.16-44.07,36.32-4.77-3.91-18.67-107.18-18.67-107.18Z" style="fill:#f48d80; fill-rule:evenodd;"/><path d="M367.09,787.42l36.42-20.73s-16.54-69.76-46.03-71.98l9.61,92.71Z" style="fill:#466fb5; fill-rule:evenodd;"/><path d="M448.71,702.99s1.19-5.28,4.39-6.32c3.21-1.04,8.81-.13,9.15,0,.36,.13,6.54-3.2,6.54-3.2l-5.1,9.52s-9.99,11.74-13.32,7.37c-3.33-4.43-1.67-7.37-1.67-7.37Z" style="fill:#f9af79; fill-rule:evenodd;"/><path d="M470.58,693.86s3.61,18.38,2.69,22.23c-.9,3.85-3.21,1.76-3.63,.98-1.78-3.46-3.01-15.26-3.01-15.26l3.95-7.95Z" style="fill:#f48d80; fill-rule:evenodd;"/><path d="M462.81,709.12s1.73,11.41,3.5,12.71c1.14,.92,2.61,.39,3.09-1.89,.48-2.35-2.31-16.37-2.31-16.37l-4.28,5.54Z" style="fill:#f48d80; fill-rule:evenodd;"/><path d="M452.3,741.46l-5.98-2.93,25.42-52.16c3.31,1.63,4.67,5.61,3.07,8.93l-22.51,46.16Z" style="fill:#223f81; fill-rule:evenodd;"/><path d="M214.97,1320.09s-3.1,31.36-11.04,37.09c-7.94,5.8-18.53,27.05-13.23,38.6,1.65,3.58,4.96,5.67,8.73,6.84,11.16,3.46,23.03-2.34,27.77-13.03,2.65-5.94,4.98-13.89,5.45-23.93,1.19-25.43,9.13-38.4,9.13-38.4l-26.82-7.17Z" style="fill:#f9af79; fill-rule:evenodd;"/><path d="M336.99,1332.92s2.51,31.62,.47,41.92c-1.09,5.48-7.15,16.82-4.36,22.04,2.78,5.14,5.95,6.46,5.95,6.46l72.02,1.17c3.93,.06,1.34-2.48-1.83-4.76-5.17-3.84-9.35-6.32-25.89-14.34-1.09-.53-5.01-3-6.43-3.85-3.59-2.22-7.2-5.67-10.3-9.06-5.17-5.8-5.62-33.64-5.62-33.64l-24.02-5.94Z" style="fill:#f9af79; fill-rule:evenodd;"/><path d="M393.29,912.28s9.07,51.37,3.11,85.01c-5.96,33.71-34.54,345.93-34.54,345.93l-31.77,1.83s-6.66-130.46-5.47-148.58c1.19-18.12,10.61-48.51,10.61-48.51l-3.15-105.29,40.08-138.35,21.12,7.96Z" style="fill:#20386f; fill-rule:evenodd;"/><path d="M299.92,901.45s-25.01,37.56-30.97,68.66c-5.95,31.09,4.38,126.67-7.09,167.42-6.19,22.04-29.71,56.14-33.28,84.62-3.57,28.5-17.59,103.15-17.59,103.15l31.75,6.25,73.79-186.4,57.88-168.6,14.83-86.78-89.33,11.67Z" style="fill:#223f81; fill-rule:evenodd;"/><path d="M320.18,687.67s-17.15,2.8-29.93,15.32c-27.39,26.8,16.1,130.2,18.48,148.39,2.39,18.12-19.52,60.43-19.52,60.43,0,0,81.84,15.13,104.09,.47,0,0,2.61-145.59,.22-158.56-2.38-12.91-29.03-52.95-33.79-58.09-4.77-5.22-39.55-7.96-39.55-7.96Z" style="fill:#6d96ce; fill-rule:evenodd;"/><path d="M289.2,715.18c2.11-6.39,9.35-9.52,15.52-6.85,8.46,3.72,20.13,10.63,25.84,22.49,9.53,19.88,42.88,88.15,53.2,90.75,10.31,2.54,52.41-70.87,52.41-70.87,0,0-1.19-12.98,2.39-20.34,3.57-7.3,14.29-15.06,15.87-12.52,1.59,2.61-5.96,9.13-5.96,10.43s3.19,2.09,7.54-.46c4.37-2.61,6.74-7.82,6.74-7.82,0,0,7.16,12.97-.38,24.65-7.54,11.67-10.72,16.42-10.72,16.42,0,0-48.83,108.42-66.71,109.66-16.64,1.24-112.47-105.03-95.75-155.56Z" style="fill:#f9af79; fill-rule:evenodd;"/><path d="M331.2,643.46s-.17,.98-.48,2.67c-1.47,7.96-7.17,34.29-11,41.53-4.65,8.74,15.89,36.71,35.66,33.32,5.88-1.04-4.97-25.69-4.45-28.3,1-5.02,2.35-11.8,3.74-18.84,.78-3.91,1.58-7.89,2.32-11.67,2.11-10.7,3.84-19.43,3.84-19.43l-29.62,.72Z" style="fill:#f9af79; fill-rule:evenodd;"/><path d="M330.72,646.14c.31-1.69,.48-2.67,.48-2.67l29.62-.72s-1.73,8.74-3.84,19.43c-.74,3.71-1.53,7.69-2.3,11.6-4.58-.65-9.36-2.87-14.15-7.04-5.22-4.56-8.65-10.04-10.71-15.91,.36-1.89,.67-3.46,.9-4.7Z" style="fill:#ed7d57; fill-rule:evenodd;"/><path d="M349.01,573.12s-12.08,1.63-20.82,12.97c-8.75,11.28-18.18,46.23,3.55,65.2,21.74,18.97,43.22-2.48,46.4-25.29,3.18-22.82,2.53-53.72-29.13-52.88Z" style="fill:#f9af79; fill-rule:evenodd;"/><path d="M385.09,618.17c-2.59,5.08-6.95,7.82-9.72,6.26-2.78-1.56-2.93-6.97-.34-11.99,2.6-5.02,6.96-7.82,9.73-6.26,2.78,1.63,2.92,6.97,.33,11.99Z" style="fill:#f9af79; fill-rule:evenodd;"/><path d="M352.7,572.59s-18.65,33.19-31.99,34.75c-13.34,1.5-15.09,19.17-15.09,19.17,0,0,4.77-40.68,17.98-48.5,13.21-7.82,29.11-5.42,29.11-5.42Z" style="fill:#20386f; fill-rule:evenodd;"/><path d="M325.07,615.24c1.09,5.93-1.1,11.34-4.87,12.06-3.78,.78-7.72-3.32-8.81-9.26-1.08-5.87,1.1-11.28,4.88-12.06,3.78-.78,7.72,3.39,8.81,9.26Z" style="fill:#f9af79; fill-rule:evenodd;"/><path d="M229.37,1383.97c-17.31,3.2-28.82-6.9-34.81-14.47-4.4,8.54-7.1,19.23-3.86,26.28,2.85,6.19,10.61,7.89,17.16,8.15,6.94,.26,13.42-3.38,16.86-9.39,1.6-2.8,3.26-6.32,4.65-10.57Z" style="fill:#0e2952; fill-rule:evenodd;"/><path d="M376.91,1381.56c-19.05,4.89-33.13,1.57-41.01-1.63-2.03,5.74-4.72,12.97-3.29,17.08,1.75,5.15,4.24,6.25,6.44,6.32,17.4,.46,63.74,1.11,76.99,1.23,1.87,.07,2.89-2.08,1.69-3.51-3.29-3.92-39.4-18.64-40.82-19.5Z" style="fill:#0e2952; fill-rule:evenodd;"/><path d="M315.94,810.44l42.88-28.17s-17.87-50.46-37.53-68.32c-19.66-17.86-28.95-13.56-33.06-9.84-11.39,10.3-9.38,35.26,3.58,66.11,12.96,30.83,24.13,40.23,24.13,40.23Z" style="fill:#466fb5; fill-rule:evenodd;"/><path d="M340.23,597.25c-1.93,1.74-7.71,.47-10.84,.87-1.58,.2-5.85,1.98-7.21,1.49-4.16-1.49,10.26-7.83,17.7-5.01,.94,.36,1.16,1.93,.35,2.65Z" style="fill:#20386f; fill-rule:evenodd;"/><path d="M357.07,594.36c7.54-2.58,21.7,4.44,17.48,5.76-1.39,.43-5.58-1.55-7.14-1.8-3.11-.54-8.94,.48-10.81-1.32-.75-.75-.59-2.26,.47-2.63Z" style="fill:#20386f; fill-rule:evenodd;"/><path d="M332.47,611.96c-2.27,0-4.03-8.57,1.44-8.57,2.92,0,2.23,8.57-1.44,8.57Z" style="fill:#20386f; fill-rule:evenodd;"/><path d="M365.92,612.3c2.25,0,4.01-8.56-1.46-8.56-2.92,0-2.23,8.56,1.46,8.56Z" style="fill:#20386f; fill-rule:evenodd;"/><path d="M345.42,625.91c-.22-.96,1.39-1.04,2.41-1.27,3.71-.82,3.87,1,2.15-14.6-.34-3.06-.85-4.69,.24-4.78,1.02-.05,.75,1.16,1.14,4.63,1.87,16.94,1.91,14.86-5.1,16.53-.36,.08-.73-.13-.83-.5Z" style="fill:#ed7d57; fill-rule:evenodd;"/><path d="M341.16,637.71c-.55-1.67,1.16-.99,16.46,.2,4.42,.34-11.44,14.85-16.46-.2Z" style="fill:#fff; fill-rule:evenodd;"/><path d="M1190.72,852.6c4.56-11.23,7.08-24.41,11.68-28.95,32.71-6.28,33.61,11.44,46.83,16.76-.5,4.28-2.51,8.85-6.05,13.72-1.78,18.98-7.94,29.95-18.49,32.89-2.89,2.27-7.24,3.2-13.03,2.79,.19,2.49,.53,4.89,.9,7.23h0c-4.39,20.82-25.31,24.07-37.66,2.08-.42-.73-.79-1.46-1.17-2.2,.02-.17,.05-.37,.09-.54v-.02c1.45-8.2,2.55-15.37,3.34-21.5,.5-3.97,.87-7.51,1.1-10.61-8.69-12.26-9.43-21.25-2.21-26.97,8.73-2.64,12.63,3.54,11.71,18.54,2.57-.58,.77-.03,2.94-3.23Z" style="fill:#f9af79; fill-rule:evenodd;"/><path d="M1249.23,840.41c-13.22-5.33-14.12-23.05-46.83-16.76-4.61,4.55-7.12,17.72-11.68,28.95-2.18,3.2-.37,2.65-2.94,3.23,.92-15-2.99-21.18-11.71-18.54-7.21,5.72-6.48,14.71,2.21,26.97-.23,3.1-.6,6.64-1.1,10.61-24.96-31.02-13.69-66.36,5.72-75.63-4.36-.19-8.98,.81-13.86,3.03,7.7-7.65,16.79-9.34,27.26-5.1-.26-6.25,.64-10.71,2.7-13.4-.12,4.19,.22,7.49,1.03,9.91,7.93-5.34,21.54-4.82,34.49,2.4,16.75,9.33,32.65,28.4,40.37,24.58-3.56,16.59-14.59,25.35-25.66,19.75Z" style="fill:#20386f; fill-rule:evenodd;"/><path d="M1135.25,955.57c-2.93,4.67-6.11,9.46-9.55,14.35-3.87,5.52-8.07,11.17-12.59,16.97-4.6-10.99-19.04-21.91-31.68-18.43,15.34-31.58,30.16-53.26,40.65-62.38,11.33-5.56,28.58-8.8,51.76-9.71-.03,.19-.07,.37-.1,.56,12.14,24.39,34.3,21.61,38.83,.12,15.41,1.58,33.45,7.37,43.27,13.87,9.67,9.5,26.62,31.57,43.7,63.65-3.79,3.43-22.56,11.77-30.4,13.14-5.74-7.34-9.64-13.11-14.46-20.47-.57,35.06-.57,60.4,.32,77.8,.59,11.58,1.58,25.79,3.03,30.85-23.66,32.62-98.39,33.44-132.27,7.79,6.41-44.03,9.9-86.88,9.5-128.12Z" style="fill:#6d96ce; fill-rule:evenodd;"/><path d="M1136.26,987.27c15.23-3.16,26.35-4.69,46.12-11.61,1.1-6.31,12.22-19.4,17.32-26.51,10.09,1.44-.26,14.04,.23,16.51,7.48-1.04,10.97-3.59,13.6-5.69,10.61-3.92,14.45,16.88,5.2,25.12-5.29,4.7-19.7,9.36-26.82,9.29-24.82,11.68-39.55,18.28-57.86,24.39-2.25,.74-4.45,1.46-6.61,2.12-30.38,9.41-50.95,10.43-61.71,3.04-2.37-16.07,10.8-45.06,15.69-55.46,17.47-4.62,28.76,11.69,31.58,17.99-1.12,2.57-2.73,5.07-4.83,7.53,5.66-1.83,12.23-3.37,19.6-4.93,2.72-.58,5.55-1.16,8.47-1.78Z" style="fill:#f9af79; fill-rule:evenodd;"/><path d="M1281.33,983.81c-4.24-3.42-23.35-16-28.74-21.21,.84-6.28-4.48-22.44-6.62-30.88-8.46-2.22-3.62,13.2-4.67,15.34-5.7-3.62-7.79-7.24-9.33-10.13-7.39-7.41-16.12,10.67-10.97,21.62,2.95,6.27,13.19,15.72,18.89,18.16,4.31,5.1,13.63,18.95,17.21,23.1,25.18,41.12,61.5,50.5,63.18,28.15-.76-11.33-12.3-34.48-23.18-51.65-2.79,1.69-7.14,3.84-11.71,5.82,7.29,4.7,12.83,10.97,16.62,18.81-6.11-8.15-10.65-10.92-20.68-17.11Z" style="fill:#f9af79; fill-rule:evenodd;"/><path d="M1106.04,992.08c2.02-3.04,3.84-6.02,5.44-8.95,.59,1.1,1.1,2.23,1.5,3.38-1.16,2.68-2.87,5.29-5.1,7.84-8.53,2.81-14.96,6.33-18.82,11.81,1.92-6.31,7.58-11,16.97-14.07h0Zm179.36-9.96c7.29,4.7,12.83,10.97,16.62,18.81-6.11-8.15-10.65-10.92-20.68-17.11,1.35-.54,2.71-1.11,4.07-1.69Z" style="fill:#ed7d57; fill-rule:evenodd;"/><path d="M1128.19,988.96c-.33-7.28-.98-13.88-1.96-19.81,3.23-4.63,6.24-9.15,9.02-13.58,.1,10.57-.05,21.24-.44,32.01-2.27,.47-4.48,.93-6.62,1.38h0Zm-7.11,91.5c3.44-22.39,5.68-42.28,6.7-59.67,1.71-.53,3.45-1.09,5.23-1.68-1.63,21.2-4.08,42.75-7.26,64.58-1.52-1.05-3.07-2.13-4.67-3.23Z" style="fill:#466fb5; fill-rule:evenodd;"/><path d="M1231.98,936.92c-7.39-7.41-16.12,10.67-10.97,21.62,.16,.35,.34,.7,.54,1.07,2.89,5.12,9.81,11.84,15.17,15.33,.59,.39,1.16,.74,1.71,1.04l-.64,11.19c-.13,2.27-2.1,4.13-4.38,4.13l-25.01-.03h-1.68c4.89-1.72,9.48-3.96,12-6.19,7.27-6.48,6.45-20.71,.62-24.61-1.59-1.06-3.55-1.36-5.82-.51-1.22,.98-2.63,2.05-4.54,3.03-1.54,.79-3.4,1.5-5.76,2.06l.53-9.19c.36-1.32,.5-2.58,.22-3.65l.12-2.09,1.22-21.2c.13-2.27,2.1-4.13,4.38-4.13l27.55,.04c2.28,0,4.03,1.87,3.9,4.15l-1,17.32c-4.84-3.36-6.75-6.68-8.18-9.37Z" style="fill:#1d417f; fill-rule:evenodd;"/><path d="M1209.1,1385.88c-3.72-90.06-11.25-183.81-22.09-269.85-6.03,54.66-18.79,143.03-37.8,269.03-5.79,3.3-14.79,3.8-26.97,1.51-12.71-103.58-12.16-203.76,1.16-304.51l2.34,1.61c30.87,23.37,95.61,24.76,124.8,.17,9.25,92.93,3.61,193.69-16.9,302.26-5.55,2.12-13.72,2.04-24.54-.23Z" style="fill:#20386f; fill-rule:evenodd;"/><path d="M1146.76,1409.38c-11.23,.26-13.62,2.82-22.89,5.38-13.23,3.66-21.91,.81-18.99-5.71,9.34-5.87,16.02-11.23,20.03-16.1,3.57-1.88,11.28-1.02,12.46,5.35,4.9,.69,6.53-.57,7.51-3.76,1.44,3.77,2.06,8.72,1.88,14.83h0Zm60.89,1.51c14.48,.26,16.47,2.69,24.1,4.2,18.81,5.33,31.37,2.58,27.46-4.54-11.5-5.87-19.72-11.23-24.66-16.1-4.4-1.87-8.97-.09-13.72,5.36-6.03,.68-9.65-.57-10.87-3.77-1.76,3.78-2.53,8.72-2.3,14.84Z" style="fill:#0e2952; fill-rule:evenodd;"/><path d="M1231.42,1386.82c-.09,2.5,.2,4.83,.88,7-3.7-.53-7.53,1.47-11.47,6-5.5,.62-9-.37-10.49-2.97,.88-3.36,1.42-6.83,1.62-10.4,8.1,1.47,14.59,1.6,19.46,.37h0Zm-86.59,.05c-.08,2.73-.07,5.29,.05,7.68-.98,3.19-2.61,4.45-7.51,3.76-1.07-5.78-7.5-7.02-11.36-5.81,.16-1.78,.2-3.54,.16-5.26,7.63,1.11,13.85,.99,18.66-.37Z" style="fill:#f9af79; fill-rule:evenodd;"/><path d="M1193.68,878.26c3.28,5.28,9.28,9.12,17.98,11.56,.19,2.49,.53,4.89,.9,7.23-10.15-3.45-16.44-9.71-18.88-18.79Z" style="fill:#ed7d57; fill-rule:evenodd;"/><path d="M1132.73,1022.77c45.35,4.65,85.89,4.4,121.62-.75-.05-4.03-.06-8.32-.07-12.86-37.68,3.1-70.19,3.48-97.54,1.1-7.63,3.17-14.82,5.88-22.68,8.5l-1.04,.34v.12s0-.12,0-.12l-5.23,1.68c-.03,.48-.06,.96-.09,1.44,1.69,.19,3.37,.36,5.04,.54Z" style="fill:#466fb5; fill-rule:evenodd;"/><path d="M1184.11,998.03c24.5,.74,47.39-.56,68.66-3.89-3.1-4.24-6.89-9.63-9.89-13.64-1.56,.12-3.13,.25-4.72,.36l-.36,6.32c-.13,2.28-2.1,4.13-4.38,4.13l-25.01-.03h-1.68c-.43,.14-.85,.29-1.28,.43-4.98,1.63-10.11,2.7-13.54,2.67-2.71,1.27-5.31,2.5-7.8,3.66h0Zm-49.06-18.32c-2.49-.18-5-.37-7.53-.57,.19,2.06,.37,4.19,.49,6.39,.09,1.31,.15,2.45,.19,3.42l6.62-1.38,1.45-.31c9.71-2.02,17.77-3.37,27.45-5.88-9.25-.4-18.81-.96-28.66-1.67Z" style="fill:#466fb5; fill-rule:evenodd;"/><path d="M1207.48,868.6c6.31,3.63,9.96,5.4,16.42,8.37,2.59,1.19-6.39,5.17-16.96-8.21-.26-.32,.06-.45,.54-.16Z" style="fill:#eb795b; fill-rule:evenodd;"/><path d="M1224.08,832.8c2.95,1.97,1.38,4.33-1.23,3.62-27.7-7.7-6.07-8.52,1.23-3.62Z" style="fill:#20386f; fill-rule:evenodd;"/><path d="M1238.59,838.31c-3.51-.53-3.93,2.26-1.53,3.49,25.65,12.97,10.22-2.21,1.53-3.49Z" style="fill:#20386f; fill-rule:evenodd;"/><path d="M1220.41,868.61l.16,.08c3.02,.93,4.65,1.38,5.73,.65,1-.67,1.12-1.97,1.36-4.34,.25-2.62,.64-6.63,2.39-12.57,.12-.43-.13-.87-.55-1.01-.43-.12-.89,.11-1.02,.56-1.79,6.08-2.19,10.16-2.45,12.86-.15,1.57-.28,2.91-.63,3.13-.48,.33-2.62-.33-4.34-.86-.43-.13-.89,.12-1.02,.56-.11,.37,.05,.75,.38,.94Z" style="fill:#eb795b; fill-rule:evenodd;"/><path d="M1237.64,857.89c1.85,.81,6.39-5.63,1.88-7.59-2.4-1.05-4.92,6.26-1.88,7.59Z" style="fill:#20386f; fill-rule:evenodd;"/><path d="M1214.19,848.2c1.86,.8,6.39-5.63,1.89-7.59-2.41-1.04-4.93,6.27-1.89,7.59Z" style="fill:#20386f; fill-rule:evenodd;"/><path d="M1725.25,712.06c-4.52,.32-8.87-5.04-10.12-6.64-4.8-6.1-7.87-13.26-9.1-17.27,.93-2.67,1.92-6.04,2.94-10.11,17.4-11.82,19.78-20.57,7.13-26.23-2.54,1.43-5.7,5.83-9.49,13.2-3.01-.12-5.3-1.66-6.86-4.63,3.6-12.44,5.93-22.55,7.01-30.32-8.57-12.74-28.63-14.56-55.17-11.12-1.23,7.06-2.24,14.55-3.03,22.46-4.7,4.33-4.08,20.36,.24,38.84-2.17,10.51,4.32,16.25,19.46,17.2,.15,2.53-.09,5.45-.13,7.23-.04,1.61-.09,4.76-1.78,5.25l-2.8,.69c.28,37.57,19.51,44.79,61.71,1.44Z" style="fill:#f9af79; fill-rule:evenodd;"/><path d="M1651.59,618.94c26.55-3.44,46.6-1.62,55.17,11.12-1.09,7.77-3.41,17.88-7.01,30.32,1.56,2.96,3.84,4.5,6.86,4.63,3.78-7.37,6.94-11.77,9.5-13.2,12.64,5.67,10.26,14.42-7.14,26.23-1.02,4.07-2.01,7.44-2.94,10.11,15.66-3.51,28.74-17.51,30.59-23.57,18.26-35.99-2.1-51.19-12.99-56.73-4.82-35.64-56.77-4.83-70.44-26.58-28.6,16.32-9.62,37.36-1.59,37.67Z" style="fill:#20386f; fill-rule:evenodd;"/><path d="M1685.7,693.78c-4.24,2.09-10.06,3.32-17.45,3.66,.14,2.5,.04,5.38-.12,7.16,7.43-1.43,13.29-5.04,17.57-10.82Z" style="fill:#ed7d57; fill-rule:evenodd;"/><path d="M1756.91,1415.68c16.49-5.81,17.81-14.31,26.7-18.46,8.95-4.18,9.98-11.63,1.23-19.71-6.46,5.17-14.48,11.51-18.73,8.15-2.84-2.24-12.45-2.09-14.36,1.17-8.38,19.47-20.03,13.31-22.33,22.16-.26,11.8,19.92,9.34,27.49,6.68Z" style="fill:#0e2952; fill-rule:evenodd;"/><path d="M1614.01,1396.31c29.04-.46,50.75-.81,60.78-3.98,10.82-3.41,8.59-10.02,2.38-20.57-27.38,12.59-20.08-2.59-32.89-.67-8.99,7.25-22.32,12.1-39.96,14.57-7.46,5.51-4.44,10.41,9.7,10.65Z" style="fill:#0e2952; fill-rule:evenodd;"/><path d="M1628.52,716.31c14.49-4.21,27.51-6.76,39.04-7.65,2.09,31.85,18.71,31.63,49.85-.67,29.99,2.52,35.87,2.91,52.51,8.31,36.01,34.39,39.32,74.09,58.14,119.45-20.84,.93-30.19,3.44-44.35,8.49-3.04-10.87-5.59-19.61-7.64-26.25,.57,59.81,.8,100.8,.66,122.95-68.91,27.31-125.69,17.96-148.87-3.31-.33-53.17-.77-95.27-1.33-126.28-8.25,9.71-15.89,17.25-22.93,22.6-16.9-19.38-28.34-27.18-37.93-38.6,21.22-34.82,51.61-67.23,62.86-79.03Z" style="fill:#6d96ce; fill-rule:evenodd;"/><path d="M1489.62,774.58c36.21,15.04,61.55,27.47,76.05,37.29l6.44-9.54c5.99,6,12.82,11.88,21.16,20.42-7.71,8.08-15.99,14.7-25.62,20.32-25.15-2.69-52.96-21.75-83.41-57.16-9.47-1.88-16.45-5.31-20.92-10.29-.23-4.57,2.06-9.14,6.9-13.73-12.62-8.22-17.65-14.12-15.08-17.66,19.79,12.23,31.29,22.35,34.48,30.35Z" style="fill:#f9af79; fill-rule:evenodd;"/><path d="M1627.85,937.63c1.36,5.17-4.28,35.55-5.21,51.39-9.15,56.56-1.3,130.17,3.62,224.84,8.83,33.35,21.85,77.81,21.01,140.38,15.38,4.7,20.95,5.19,34.83,1.66,9.7-65.3,3.08-117.59-5.69-141.74,5.62-37.33,14-79.12,26.19-139.38,13.75,65.68,32.14,114.42,40.1,146.22,1.58,35.45,8.75,83.31,12.5,143.56,11.41,3.44,18.52,4.43,30.36,2.98,15.38-55.38,12.79-115.63,6.29-180.77-6.94-78.31,4.49-166.73-6.94-197.39-5.85-18.17-6.6-34.29-8.18-48.43-57.5,19.13-107.12,18.03-148.87-3.32Z" style="fill:#466fb5; fill-rule:evenodd;"/><path d="M1766.12,880.18c3.69,.55,7.18,1.03,10.46,1.48,.17,26.38,.22,46.14,.14,59.29-3.26,1.46-7.84,3.13-11.41,3.55,.02-1.69,.55-5.6,.57-7.28,.22-20.17,.31-39.19,.23-57.04h0Zm-168.5-52.86c10.15-8.46,19.8-22.19,28.97-41.17-1.02,6.62-1.44,15.47-1.22,26.56-7.8,9.06-15.07,16.14-21.78,21.23-2.06-2.37-4.05-4.57-5.96-6.62h0Zm165.62-51.45c4.47,14.38,8.74,28.43,12.81,42.11,.12,11.57,.21,22.42,.29,32.58-2.96-.27-6.41-.47-10.52-.57-.43-28.08-1.28-52.79-2.58-74.12Z" style="fill:#466fb5; fill-rule:evenodd;"/><path d="M1672.28,796.57h-75.87c-3.48,0-5.87,2.84-5.32,6.31l17.02,107.48c.56,3.48,3.85,6.33,7.33,6.33h75.87c3.47,0,5.87-2.85,5.32-6.33l-17.03-107.48c-.55-3.48-3.84-6.31-7.32-6.31Z" style="fill:#223f81; fill-rule:evenodd;"/><path d="M1821.07,836.15c3.28,13.31,4.65,25.48,1.96,41.61-8.19,11.9-41.23,5.24-126.32-8.97-3.05,2.78-9.36,5.55-18.94,4.31-8.9-2.22-9.33-4.55-19.31-13.95-2.42-7.33-1.92-12.92,1.5-16.79,11.23,6.61,17.15,10.13,29.8,10.55-3.37-8.67-3.87-14.27-1.52-16.79,4.32,3.46,7.13,8.67,8.43,15.61,67.08-2.91,84.77-2.52,93.7,2.17-.97-4.21-1.82-7.91-2.58-11.1,10.44-3.56,18.94-5.62,33.26-6.66Z" style="fill:#f9af79; fill-rule:evenodd;"/><path d="M1675.22,1357.43c-.68,5.69-.78,10.81-.29,15.32-22.91,9.96-19.02-1.54-28.17-1.82,2.3-4.04,3.79-9.21,4.47-15.51,9.99,2.86,15.67,3.51,23.99,2.01h0Zm106.73,10.49c0,4.14,.4,7.79,1.21,10.93-6.12,4.85-13.17,9.9-17.05,6.82-1.86-1.47-6.66-1.92-10.26-1.12,1.49-5,2.66-11.27,3.51-18.8,8.03,2.16,14.2,2.88,22.59,2.16Z" style="fill:#f9af79; fill-rule:evenodd;"/><path d="M1622.64,989.02c40.44,37.7,94.52,37.82,162.26,.36,11.44,30.66,0,119.08,6.94,197.39,6.51,65.14,9.09,125.39-6.29,180.77-1.25,.16-2.45,.29-3.61,.38-8.39,.71-14.56,0-22.59-2.16-1.33-.36-2.71-.76-4.16-1.19-3.75-60.25-10.92-108.1-12.5-143.56-7.96-31.81-26.35-80.54-40.1-146.22-12.2,60.26-20.57,102.05-26.19,139.38,8.77,24.15,15.38,76.44,5.69,141.74-2.53,.64-4.79,1.15-6.87,1.53-8.32,1.5-14,.85-24-2.01-1.24-.36-2.56-.74-3.96-1.18,.85-62.57-12.18-107.02-21.01-140.38-4.93-94.67-12.78-168.29-3.62-224.84Z" style="fill:#20386f; fill-rule:evenodd;"/><path d="M1686.47,1311.02c-14.76,4.02-28.27,5.22-40.53,3.63-.26-3.24-.57-6.42-.9-9.54,13.45,1.75,27.36,.85,41.72-2.7-.07,2.82-.16,5.7-.29,8.61h0Zm107.81,11.23c-16.04,1.92-30.26,.86-42.64-3.18-.31-3.37-.63-6.7-.94-9.96,13.89,4.53,28.71,6.08,44.47,4.65-.26,2.85-.57,5.68-.89,8.5h0Zm-40.57,21.2c-.26-3.34-.53-6.63-.8-9.89,12.39,3.39,25.5,4.48,39.33,3.26-.46,2.88-.98,5.74-1.52,8.59-13.69,1.54-26.02,.88-37.01-1.95h0Zm-107.06-18.46c12.51,2.07,25.51,1.85,39-.67-.22,2.85-.47,5.74-.75,8.67-13.79,2.92-26.4,3.43-37.82,1.55-.11-3.24-.26-6.42-.43-9.56Z" style="fill:#0e2952; fill-rule:evenodd;"/><path d="M1673.14,673.49c-8.06,.04-12.53-.24-20.36-.91-3.15-.28,3.3,8.47,20.79,1.38,.42-.17,.19-.47-.44-.46Z" style="fill:#eb795b; fill-rule:evenodd;"/><path d="M1678.06,629.66c-3.91,.29-3.69,3.41-.8,4.15,30.85,7.73,10.5-4.88,.8-4.15Z" style="fill:#20386f; fill-rule:evenodd;"/><path d="M1662.58,627.57c3.66,1.41,2.54,4.34-.43,4.2-31.76-1.55-8.63-7.71,.43-4.2Z" style="fill:#20386f; fill-rule:evenodd;"/><path d="M1656.26,664.2l-.19-.05c-3.24-1.32-4.94-2.08-5.36-3.46-.39-1.26,.42-2.47,1.88-4.67,1.63-2.42,4.1-6.11,6.77-12.42,.19-.46,.72-.66,1.19-.48,.46,.19,.68,.72,.47,1.19-2.72,6.46-5.24,10.23-6.92,12.73-.96,1.44-1.79,2.69-1.65,3.12,.19,.62,2.47,1.56,4.31,2.3,.46,.19,.69,.72,.5,1.19-.16,.39-.58,.61-.98,.54Z" style="fill:#eb795b; fill-rule:evenodd;"/><path d="M1654.19,644.5c-2.23-.23-3.06-8.91,2.34-8.33,2.89,.31,1.31,8.72-2.34,8.33Z" style="fill:#20386f; fill-rule:evenodd;"/><path d="M1675.76,646.01c-2.23-.25-3.07-8.91,2.33-8.33,2.89,.31,1.31,8.72-2.33,8.33Z" style="fill:#20386f; fill-rule:evenodd;"/></svg>