<?xml version="1.0" encoding="UTF-8"?><svg id="a" xmlns="http://www.w3.org/2000/svg" viewBox="0 0 1815.73 1517.46"><path d="M1694.28,942.29c47.15,65.39,69.71,156.53,54.66,249.35-22.15,136.74-118.59,232.04-226.87,234.16v.02s-.25-.01-.25-.01c-10.87,.2-21.86-.55-32.9-2.27-213.25-19.77-373.67-129.04-782.92,18.25l-.02-.02c-78.95,31.24-166,38.99-254.07,17.65C185.12,1394.73,10.11,1087.6,61.03,773.41c36.17-223.17,176.6-389.83,350.53-444.51v-.04c128.72-43.18,340.64-21.06,540.51-98C1125.45,164.11,1251.31-34.57,1433.7,7.54c4.82,.88,9.65,1.91,14.48,3.08,153.66,37.25,255.31,208.86,227.04,383.3-1.8,11.13-4.1,22-6.84,32.59h.01c-51.73,199.08-43.09,371,25.9,515.76v.02Z" style="fill:#ede4f1; fill-rule:evenodd;"/><rect x="227.51" y="253.76" width="520.45" height="210.11" style="fill:#2b2870;"/><rect x="93" y="253.76" width="789.48" height="192.4" style="fill:#5a53a2;"/><path d="M120.32,266.22H855.16c7.45,0,13.55,6.5,13.55,14.44v138.6c0,7.94-6.1,14.44-13.55,14.44H120.32c-7.45,0-13.55-6.5-13.55-14.44v-138.6c0-7.94,6.1-14.44,13.55-14.44Z" style="fill:#b6a9d2; fill-rule:evenodd;"/><path d="M153.53,309.16c9.18,0,16.62,7.44,16.62,16.62s-7.44,16.61-16.62,16.61-16.61-7.44-16.61-16.61,7.44-16.62,16.61-16.62h0Zm0,48.37c9.18,0,16.62,7.44,16.62,16.61s-7.44,16.61-16.62,16.61-16.61-7.44-16.61-16.61,7.44-16.61,16.61-16.61h0Zm173.16,0c9.18,0,16.62,7.44,16.62,16.61s-7.44,16.61-16.62,16.61-16.62-7.44-16.62-16.61,7.44-16.61,16.62-16.61h0Zm-57.72,0c9.18,0,16.61,7.44,16.61,16.61s-7.44,16.61-16.61,16.61-16.61-7.44-16.61-16.61,7.44-16.61,16.61-16.61h0Zm-57.72,0c9.18,0,16.62,7.44,16.62,16.61s-7.44,16.61-16.62,16.61-16.62-7.44-16.62-16.61,7.44-16.61,16.62-16.61h0Zm115.44-48.37c9.18,0,16.62,7.44,16.62,16.62s-7.44,16.61-16.62,16.61-16.62-7.44-16.62-16.61,7.44-16.62,16.62-16.62h0Zm-57.72,0c9.18,0,16.61,7.44,16.61,16.62s-7.44,16.61-16.61,16.61-16.61-7.44-16.61-16.61,7.44-16.62,16.61-16.62h0Zm-57.72,0c9.18,0,16.62,7.44,16.62,16.62s-7.44,16.61-16.62,16.61-16.62-7.44-16.62-16.61,7.44-16.62,16.62-16.62Z" style="fill:#ede4f1; fill-rule:evenodd;"/><rect x="398.39" y="293.79" width="22.42" height="111.3" style="fill:#8071b3;"/><rect x="437.63" y="293.79" width="22.42" height="111.3" style="fill:#ede4f1;"/><rect x="476.86" y="293.79" width="22.42" height="111.3" style="fill:#8071b3;"/><rect x="516.1" y="293.79" width="22.43" height="111.3" style="fill:#ede4f1;"/><rect x="555.33" y="293.79" width="22.42" height="111.3" style="fill:#8071b3;"/><rect x="594.56" y="293.79" width="22.42" height="111.3" style="fill:#ede4f1;"/><rect x="633.8" y="293.79" width="22.42" height="111.3" style="fill:#8071b3;"/><rect x="673.04" y="293.79" width="22.42" height="111.3" style="fill:#ede4f1;"/><rect x="712.27" y="293.79" width="22.42" height="111.3" style="fill:#8071b3;"/><rect x="751.5" y="293.79" width="22.42" height="111.3" style="fill:#ede4f1;"/><rect x="790.74" y="293.79" width="22.42" height="111.3" style="fill:#8071b3;"/><rect x="227.51" y="463.87" width="520.45" height="210.11" style="fill:#2b2870;"/><rect x="93" y="463.87" width="789.48" height="192.39" style="fill:#5a53a2;"/><path d="M120.32,476.32H855.16c7.45,0,13.55,6.5,13.55,14.44v138.61c0,7.94-6.1,14.44-13.55,14.44H120.32c-7.45,0-13.55-6.5-13.55-14.44v-138.61c0-7.94,6.1-14.44,13.55-14.44Z" style="fill:#b6a9d2; fill-rule:evenodd;"/><path d="M153.53,519.27c9.18,0,16.62,7.44,16.62,16.62s-7.44,16.61-16.62,16.61-16.61-7.44-16.61-16.61,7.44-16.62,16.61-16.62h0Zm0,48.37c9.18,0,16.62,7.44,16.62,16.61s-7.44,16.62-16.62,16.62-16.61-7.44-16.61-16.62,7.44-16.61,16.61-16.61h0Zm173.16,0c9.18,0,16.62,7.44,16.62,16.61s-7.44,16.62-16.62,16.62-16.62-7.44-16.62-16.62,7.44-16.61,16.62-16.61h0Zm-57.72,0c9.18,0,16.61,7.44,16.61,16.61s-7.44,16.62-16.61,16.62-16.61-7.44-16.61-16.62,7.44-16.61,16.61-16.61h0Zm-57.72,0c9.18,0,16.62,7.44,16.62,16.61s-7.44,16.62-16.62,16.62-16.62-7.44-16.62-16.62,7.44-16.61,16.62-16.61h0Zm115.44-48.37c9.18,0,16.62,7.44,16.62,16.62s-7.44,16.61-16.62,16.61-16.62-7.44-16.62-16.61,7.44-16.62,16.62-16.62h0Zm-57.72,0c9.18,0,16.61,7.44,16.61,16.62s-7.44,16.61-16.61,16.61-16.61-7.44-16.61-16.61,7.44-16.62,16.61-16.62h0Zm-57.72,0c9.18,0,16.62,7.44,16.62,16.62s-7.44,16.61-16.62,16.61-16.62-7.44-16.62-16.61,7.44-16.62,16.62-16.62Z" style="fill:#ede4f1; fill-rule:evenodd;"/><rect x="398.39" y="503.89" width="22.42" height="111.3" style="fill:#8071b3;"/><rect x="437.63" y="503.89" width="22.42" height="111.3" style="fill:#ede4f1;"/><rect x="476.86" y="503.89" width="22.42" height="111.3" style="fill:#8071b3;"/><rect x="516.1" y="503.89" width="22.43" height="111.3" style="fill:#ede4f1;"/><rect x="555.33" y="503.89" width="22.42" height="111.3" style="fill:#8071b3;"/><rect x="594.56" y="503.89" width="22.42" height="111.3" style="fill:#ede4f1;"/><rect x="633.8" y="503.89" width="22.42" height="111.3" style="fill:#8071b3;"/><rect x="673.04" y="503.89" width="22.42" height="111.3" style="fill:#ede4f1;"/><rect x="712.27" y="503.89" width="22.42" height="111.3" style="fill:#8071b3;"/><rect x="751.5" y="503.89" width="22.42" height="111.3" style="fill:#ede4f1;"/><rect x="790.74" y="503.89" width="22.42" height="111.3" style="fill:#8071b3;"/><rect x="227.51" y="673.98" width="520.45" height="210.11" style="fill:#2b2870;"/><rect x="93" y="673.98" width="789.48" height="192.39" style="fill:#5a53a2;"/><path d="M120.32,686.43H855.16c7.45,0,13.55,6.5,13.55,14.44v138.6c0,7.94-6.1,14.44-13.55,14.44H120.32c-7.45,0-13.55-6.5-13.55-14.44v-138.6c0-7.94,6.1-14.44,13.55-14.44Z" style="fill:#b6a9d2; fill-rule:evenodd;"/><path d="M153.53,729.37c9.18,0,16.62,7.44,16.62,16.61s-7.44,16.62-16.62,16.62-16.61-7.44-16.61-16.62,7.44-16.61,16.61-16.61h0Zm0,48.37c9.18,0,16.62,7.44,16.62,16.62s-7.44,16.61-16.62,16.61-16.61-7.44-16.61-16.61,7.44-16.62,16.61-16.62h0Zm173.16,0c9.18,0,16.62,7.44,16.62,16.62s-7.44,16.61-16.62,16.61-16.62-7.44-16.62-16.61,7.44-16.62,16.62-16.62h0Zm-57.72,0c9.18,0,16.61,7.44,16.61,16.62s-7.44,16.61-16.61,16.61-16.61-7.44-16.61-16.61,7.44-16.62,16.61-16.62h0Zm-57.72,0c9.18,0,16.62,7.44,16.62,16.62s-7.44,16.61-16.62,16.61-16.62-7.44-16.62-16.61,7.44-16.62,16.62-16.62h0Zm115.44-48.37c9.18,0,16.62,7.44,16.62,16.61s-7.44,16.62-16.62,16.62-16.62-7.44-16.62-16.62,7.44-16.61,16.62-16.61h0Zm-57.72,0c9.18,0,16.61,7.44,16.61,16.61s-7.44,16.62-16.61,16.62-16.61-7.44-16.61-16.62,7.44-16.61,16.61-16.61h0Zm-57.72,0c9.18,0,16.62,7.44,16.62,16.61s-7.44,16.62-16.62,16.62-16.62-7.44-16.62-16.62,7.44-16.61,16.62-16.61Z" style="fill:#ede4f1; fill-rule:evenodd;"/><rect x="398.39" y="713.99" width="22.42" height="111.3" style="fill:#8071b3;"/><rect x="437.63" y="713.99" width="22.42" height="111.3" style="fill:#ede4f1;"/><rect x="476.86" y="713.99" width="22.42" height="111.3" style="fill:#8071b3;"/><rect x="516.1" y="713.99" width="22.43" height="111.3" style="fill:#ede4f1;"/><rect x="555.33" y="713.99" width="22.42" height="111.3" style="fill:#8071b3;"/><rect x="594.56" y="713.99" width="22.42" height="111.3" style="fill:#ede4f1;"/><rect x="633.8" y="713.99" width="22.42" height="111.3" style="fill:#8071b3;"/><rect x="673.04" y="713.99" width="22.42" height="111.3" style="fill:#ede4f1;"/><rect x="712.27" y="713.99" width="22.42" height="111.3" style="fill:#8071b3;"/><rect x="751.5" y="713.99" width="22.42" height="111.3" style="fill:#ede4f1;"/><rect x="790.74" y="713.99" width="22.42" height="111.3" style="fill:#8071b3;"/><rect x="227.51" y="884.08" width="520.45" height="210.11" style="fill:#2b2870;"/><rect x="93" y="884.08" width="789.48" height="192.39" style="fill:#5a53a2;"/><path d="M120.32,896.54H855.16c7.45,0,13.55,6.5,13.55,14.44v138.6c0,7.94-6.1,14.44-13.55,14.44H120.32c-7.45,0-13.55-6.5-13.55-14.44v-138.6c0-7.94,6.1-14.44,13.55-14.44Z" style="fill:#b6a9d2; fill-rule:evenodd;"/><path d="M153.53,939.48c9.18,0,16.62,7.44,16.62,16.61s-7.44,16.62-16.62,16.62-16.61-7.44-16.61-16.62,7.44-16.61,16.61-16.61h0Zm0,48.37c9.18,0,16.62,7.44,16.62,16.62s-7.44,16.61-16.62,16.61-16.61-7.44-16.61-16.61,7.44-16.62,16.61-16.62h0Zm173.16,0c9.18,0,16.62,7.44,16.62,16.62s-7.44,16.61-16.62,16.61-16.62-7.44-16.62-16.61,7.44-16.62,16.62-16.62h0Zm-57.72,0c9.18,0,16.61,7.44,16.61,16.62s-7.44,16.61-16.61,16.61-16.61-7.44-16.61-16.61,7.44-16.62,16.61-16.62h0Zm-57.72,0c9.18,0,16.62,7.44,16.62,16.62s-7.44,16.61-16.62,16.61-16.62-7.44-16.62-16.61,7.44-16.62,16.62-16.62h0Zm115.44-48.37c9.18,0,16.62,7.44,16.62,16.61s-7.44,16.62-16.62,16.62-16.62-7.44-16.62-16.62,7.44-16.61,16.62-16.61h0Zm-57.72,0c9.18,0,16.61,7.44,16.61,16.61s-7.44,16.62-16.61,16.62-16.61-7.44-16.61-16.62,7.44-16.61,16.61-16.61h0Zm-57.72,0c9.18,0,16.62,7.44,16.62,16.61s-7.44,16.62-16.62,16.62-16.62-7.44-16.62-16.62,7.44-16.61,16.62-16.61Z" style="fill:#ede4f1; fill-rule:evenodd;"/><rect x="398.39" y="924.1" width="22.42" height="111.3" style="fill:#8071b3;"/><rect x="437.63" y="924.1" width="22.42" height="111.3" style="fill:#ede4f1;"/><rect x="476.86" y="924.1" width="22.42" height="111.3" style="fill:#8071b3;"/><rect x="516.1" y="924.1" width="22.43" height="111.3" style="fill:#ede4f1;"/><rect x="555.33" y="924.1" width="22.42" height="111.3" style="fill:#8071b3;"/><rect x="594.56" y="924.1" width="22.42" height="111.3" style="fill:#ede4f1;"/><rect x="633.8" y="924.1" width="22.42" height="111.3" style="fill:#8071b3;"/><rect x="673.04" y="924.1" width="22.42" height="111.3" style="fill:#ede4f1;"/><rect x="712.27" y="924.1" width="22.42" height="111.3" style="fill:#8071b3;"/><rect x="751.5" y="924.1" width="22.42" height="111.3" style="fill:#ede4f1;"/><rect x="790.74" y="924.1" width="22.42" height="111.3" style="fill:#8071b3;"/><path d="M181.99,1251.18c100.24,0,181.99-15.51,181.99-34.53s-81.75-34.52-181.99-34.52S0,1197.64,0,1216.66s81.75,34.53,181.99,34.53Z" style="fill:#d1c6e2; fill-rule:evenodd;"/><path d="M1321.64,48.26l-16.24,9.44c-5.47,3.18-7.35,10.27-4.16,15.74l3.58,6.15c4.23,7.27,2.39,10.56,1.08,11.73-3.61,3.23-6.96,6.74-10.32,10.24-.99,1.03-4.12,4.54-12.38-.26l-5.66-3.29c-5.47-3.18-12.55-1.3-15.74,4.16l-9.44,16.23c-3.19,5.48-1.32,12.55,4.16,15.74l5.61,3.26c7.74,4.5,7.54,6.81,6.56,10.09-1.34,4.5-2.79,9.01-3.77,13.67-.88,4.15-.48,7.12-11.01,7.12h-6.44c-6.34,0-11.52,5.17-11.52,11.51v18.78c0,6.34,5.17,11.51,11.52,11.51h6.44c10.54,0,10.13,2.97,11.01,7.12,.98,4.66,2.43,9.17,3.77,13.67,.98,3.28,1.18,5.59-6.56,10.09l-5.61,3.26c-5.47,3.18-7.35,10.26-4.16,15.74l9.44,16.24c3.18,5.47,10.26,7.34,15.74,4.16l5.66-3.28c8.25-4.8,11.38-1.29,12.38-.26,3.36,3.5,6.71,7.01,10.32,10.24,1.31,1.17,3.15,4.46-1.08,11.73l-3.58,6.16c-3.18,5.47-1.3,12.55,4.16,15.74l16.24,9.44c5.47,3.19,12.55,1.32,15.74-4.16l3.57-6.14c4.29-7.38,8.51-7.09,10.3-6.52,5.17,1.66,9.96,2.71,15.3,4.11,1.95,.51,5.29,1.93,5.29,10.71v6.59c0,6.34,5.17,11.51,11.51,11.51h18.79c6.34,0,11.5-5.17,11.5-11.51v-6.59c0-8.79,3.34-10.21,5.3-10.71,5.34-1.39,10.12-2.45,15.3-4.11,1.79-.56,6.01-.86,10.3,6.52l3.57,6.14c3.18,5.48,10.26,7.35,15.74,4.16l16.23-9.44c5.47-3.18,7.35-10.26,4.17-15.74l-3.59-6.16c-4.23-7.26-2.38-10.56-1.07-11.73,3.61-3.23,6.96-6.75,10.32-10.24,.99-1.03,4.12-4.54,12.38,.26l5.66,3.28c5.47,3.18,12.55,1.31,15.73-4.16l9.44-16.24c3.19-5.47,1.32-12.55-4.16-15.74l-5.6-3.26c-7.74-4.5-7.54-6.81-6.56-10.09,1.34-4.5,2.79-9.01,3.77-13.67,.88-4.15,.48-7.12,11.01-7.12h6.45c6.34,0,11.52-5.17,11.52-11.51v-18.78c0-6.34-5.17-11.51-11.52-11.51h-6.45c-10.52,0-10.13-2.97-11.01-7.12-.98-4.66-2.43-9.17-3.77-13.67-.98-3.28-1.18-5.59,6.56-10.09l5.6-3.26c5.48-3.19,7.35-10.26,4.16-15.74l-9.44-16.23c-3.18-5.47-10.26-7.35-15.73-4.16l-5.66,3.29c-8.25,4.8-11.39,1.29-12.38,.26-3.36-3.5-6.71-7.01-10.32-10.24-1.31-1.18-3.16-4.47,1.07-11.73l3.59-6.15c3.18-5.47,1.3-12.56-4.17-15.74l-16.23-9.44c-5.47-3.18-12.55-1.32-15.74,4.16l-3.57,6.14c-4.29,7.38-8.51,7.08-10.3,6.52-5.17-1.64-9.96-2.71-15.3-4.1-1.95-.51-5.3-1.93-5.3-10.72v-6.59c0-6.34-5.17-11.51-11.5-11.51h-18.79c-6.34,0-11.51,5.17-11.51,11.51v6.59c0,8.79-3.34,10.21-5.29,10.72-5.34,1.39-10.12,2.46-15.3,4.1-1.79,.57-6.01,.86-10.3-6.52l-3.57-6.14c-3.18-5.48-10.26-7.35-15.74-4.16h0Zm71.1,67.24c40.7,0,73.69,32.99,73.69,73.69s-32.99,73.69-73.69,73.69-73.69-32.99-73.69-73.69,32.99-73.69,73.69-73.69h0Zm0-18.41c50.87,0,92.1,41.23,92.1,92.1s-41.23,92.1-92.1,92.1-92.1-41.24-92.1-92.1,41.24-92.1,92.1-92.1Z" style="fill:#d1c6e2; fill-rule:evenodd;"/><path d="M1068.49,9.73l-9.81,5.7c-3.31,1.93-4.44,6.2-2.51,9.52l2.16,3.72c2.55,4.39,1.44,6.38,.65,7.09-2.18,1.96-4.21,4.08-6.24,6.19-.59,.62-2.49,2.74-7.48-.16l-3.42-1.98c-3.31-1.92-7.59-.79-9.51,2.52l-5.7,9.81c-1.93,3.31-.8,7.59,2.51,9.52l3.38,1.96c4.68,2.72,4.56,4.11,3.97,6.1-.81,2.72-1.69,5.45-2.29,8.27-.52,2.51-.29,4.3-6.65,4.3h-3.9c-3.83,0-6.96,3.12-6.96,6.95v11.35c0,3.83,3.12,6.96,6.96,6.96h3.9c6.36,0,6.13,1.79,6.65,4.3,.6,2.82,1.47,5.54,2.29,8.27,.59,1.98,.71,3.38-3.97,6.09l-3.38,1.97c-3.31,1.92-4.44,6.2-2.51,9.51l5.7,9.81c1.92,3.31,6.2,4.44,9.51,2.51l3.42-1.98c4.99-2.9,6.89-.78,7.48-.16,2.03,2.11,4.06,4.23,6.24,6.19,.79,.71,1.9,2.7-.65,7.08l-2.16,3.72c-1.92,3.31-.8,7.59,2.51,9.52l9.81,5.7c3.31,1.92,7.59,.79,9.51-2.52l2.16-3.71c2.59-4.46,5.14-4.28,6.22-3.94,3.13,1,6.02,1.64,9.25,2.48,1.18,.31,3.2,1.17,3.2,6.48v3.98c0,3.83,3.13,6.96,6.95,6.96h11.35c3.83,0,6.96-3.13,6.96-6.96v-3.98c0-5.31,2.02-6.17,3.2-6.48,3.23-.84,6.12-1.48,9.25-2.48,1.08-.35,3.62-.52,6.22,3.94l2.16,3.71c1.92,3.31,6.21,4.44,9.52,2.52l9.81-5.7c3.31-1.93,4.44-6.2,2.51-9.52l-2.16-3.72c-2.55-4.39-1.44-6.38-.65-7.08,2.19-1.96,4.21-4.07,6.24-6.19,.6-.62,2.49-2.74,7.48,.16l3.42,1.98c3.31,1.92,7.59,.79,9.51-2.51l5.71-9.81c1.93-3.31,.79-7.59-2.52-9.51l-3.38-1.97c-4.68-2.71-4.55-4.11-3.96-6.09,.81-2.73,1.69-5.45,2.29-8.27,.52-2.51,.29-4.3,6.65-4.3h3.9c3.84,0,6.96-3.12,6.96-6.96v-11.35c0-3.83-3.12-6.95-6.96-6.95h-3.9c-6.36,0-6.13-1.79-6.65-4.3-.6-2.82-1.47-5.55-2.29-8.27-.59-1.98-.71-3.38,3.96-6.1l3.38-1.96c3.31-1.93,4.45-6.2,2.52-9.52l-5.71-9.81c-1.92-3.31-6.2-4.44-9.51-2.52l-3.42,1.98c-4.99,2.9-6.88,.78-7.48,.16-2.03-2.11-4.05-4.24-6.24-6.19-.79-.71-1.91-2.7,.65-7.09l2.16-3.72c1.93-3.31,.8-7.59-2.51-9.52l-9.81-5.7c-3.31-1.92-7.59-.79-9.52,2.51l-2.16,3.72c-2.6,4.45-5.14,4.28-6.22,3.94-3.13-.99-6.02-1.64-9.25-2.48-1.18-.3-3.2-1.16-3.2-6.48v-3.98c0-3.83-3.12-6.96-6.96-6.96h-11.35c-3.82,0-6.95,3.12-6.95,6.96v3.98c0,5.32-2.02,6.18-3.2,6.48-3.23,.84-6.12,1.49-9.25,2.48-1.08,.35-3.63,.52-6.22-3.94l-2.16-3.72c-1.92-3.31-6.2-4.44-9.51-2.51h0Zm42.97,40.64c24.59,0,44.53,19.93,44.53,44.53s-19.94,44.53-44.53,44.53-44.53-19.94-44.53-44.53,19.93-44.53,44.53-44.53h0Zm0-11.13c30.74,0,55.66,24.92,55.66,55.66s-24.92,55.66-55.66,55.66-55.66-24.92-55.66-55.66,24.92-55.66,55.66-55.66Z" style="fill:#d1c6e2; fill-rule:evenodd;"/><path d="M102.81,1228.97c-23.35-8.22-25.22-20.26-37.81-26.13-12.68-5.91-14.13-16.46-1.74-27.9,9.15,7.31,20.5,16.3,26.52,11.54,4.01-3.18,17.63-2.97,20.33,1.67,11.86,27.57,28.36,18.84,31.62,31.38,.37,16.71-28.21,13.23-38.93,9.45Z" style="fill:#071023; fill-rule:evenodd;"/><path d="M303.33,1229.8c-43.1-.69-75.32-1.21-90.2-5.91-16.06-5.07-12.74-14.87-3.52-30.53,40.63,18.69,29.8-3.84,48.8-.98,13.36,10.75,33.13,17.96,59.32,21.61,11.08,8.17,6.57,15.45-14.4,15.81Z" style="fill:#071023; fill-rule:evenodd;"/><path d="M154.38,183.74c6.88,.49,17.74-.83,19.66-3.27,7.32-9.3,12.4-19,14.27-25.11-1.42-4.07-2.92-9.2-4.48-15.42-26.52-18.02-30.15-31.34-10.87-39.98,3.88,2.18,8.7,8.89,14.46,20.12,4.59-.18,8.08-2.54,10.46-7.05-5.48-18.96-9.04-34.37-10.69-46.21,13.07-19.43,43.64-22.2,84.1-16.96,1.88,10.77,3.42,22.19,4.62,34.23,7.16,6.59,6.23,31.03-.36,59.2,3.29,16.01-6.59,24.76-29.67,26.22-.33,5.69,.19,12.65,.57,13.44,.57,1.23,2.63,2.41,5.46,3.42h0c.78,26.44-31.73,25.56-97.53-2.63Z" style="fill:#fab688; fill-rule:evenodd;"/><path d="M271.29,49.86c-40.47-5.24-71.04-2.46-84.1,16.96,1.65,11.84,5.21,27.25,10.69,46.21-2.37,4.52-5.86,6.87-10.46,7.05-5.76-11.24-10.58-17.94-14.46-20.12-19.28,8.65-15.65,21.97,10.87,39.98,1.56,6.21,3.06,11.35,4.48,15.42-23.86-5.35-43.83-26.69-46.63-35.92-27.83-54.86,3.21-78.03,19.82-86.48,7.34-54.33,86.22-6.31,125.76-32.5,15.71,21.7-3.72,48.92-15.96,49.4Z" style="fill:#1b2452; fill-rule:evenodd;"/><path d="M514.16,279.97c-20.02,85.75-55.21,152.3-105.54,199.65-18.14-5.51-34.23-17.9-48.28-37.2,.75,62.03-.8,123.77-4.64,185.21-36.73,17.42-85.51,16.29-146.32-3.37l-24.67-30.38c-6.33-1.23-20.73,5.77-27.63,16.44-57.75-44.08-96.7-91.45-119.67-138.5,6.2-101.11,19.94-180.89,41.2-239.33,10.75-16.53,35.99-32.78,75.75-48.75,65.8,28.19,98.31,29.08,97.53,2.63,19.35,6.35,45.02,17.59,77.03,33.72,26.67,20.27,49.39,75.19,68.15,164.77,30.54-38.26,62.21-78.81,95.02-121.68,7.3,2.07,14.65,7.67,22.05,16.8h0ZM171.42,566.48c19.15-62.96,8.58-140.63-31.71-233.02-10.14,45.58-21.1,90.45-32.88,134.59,13.68,6.5,35.21,39.31,64.58,98.42Z" style="fill:#f59b1d; fill-rule:evenodd;"/><path d="M164.26,648.53c9.34-.72,24.38-8.82,45.12-24.27,60.81,19.67,109.58,20.79,146.32,3.37,6.53,103.43-18.89,211.87-51.15,332.72-31.59,53.06-30.25,90.36-47.09,212.78-9.35,6.67-24.79,5.7-46.34-2.9-6.85-104.38-2.12-173.49,24.97-212.44-4.24-35,6.84-121.03,7.36-175.04-19.7,43.92-33.23,103.27-58.91,163.19-31.26,72.97-53.03,151.06-69.52,222.3-17.44,3.39-33.79,1.39-49.05-5.99,17.51-117.08,36.92-197.66,58.23-241.74-.81-115.13,10.14-218.52,32.89-310.19,4.23,10.82,6.62,23.56,7.17,38.21Z" style="fill:#1b2452; fill-rule:evenodd;"/><path d="M209.39,624.26c-20.75,15.45-35.79,23.55-45.12,24.27-.55-14.65-2.94-27.39-7.17-38.21,6.9-10.67,21.29-17.66,27.63-16.44l24.67,30.38Z" style="fill:#fab688; fill-rule:evenodd;"/><path d="M360.34,442.43c-2.01-60.24-6.83-109.63-14.49-148.16,19.49,81.82,38.37,136.12,56.65,162.89,11.54-.36,26.18-7.21,43.9-20.54-11.47,15.76-24.06,30.09-37.78,43-18.14-5.51-34.23-17.9-48.28-37.2Z" style="fill:#ea7924; fill-rule:evenodd;"/><path d="M184.72,593.88c-3.54-8.76-7.97-17.89-13.3-27.41,19.15-62.96,8.58-140.63-31.71-233.02,58.6,83.29,75.21,172.09,49.85,266.39l-4.84-5.96Z" style="fill:#ea7924; fill-rule:evenodd;"/><path d="M219.29,163.93c6.47,3.2,15.33,5.06,26.6,5.58-.22,3.81-.06,8.21,.19,10.92-11.33-2.19-20.26-7.68-26.78-16.5Z" style="fill:#ed7d57; fill-rule:evenodd;"/><path d="M213.68,1195.17c2.17-7.12,2.99-14.8,2.46-23.04,16.44,5.91,28.99,6.94,37.64,3.11-.45,6.1,.25,11.73,2.09,16.9-14.97-.52-8.14,17.6-42.19,3.03h0Zm-108.64-10.11c-5.17-1.37-12.5-.79-15.26,1.41-5.38,4.26-15.03-2.48-23.55-9.18,1.47-4.04,2.68-8.46,3.64-13.28,10.27,4.3,21.02,6.22,32.25,5.76-.16,6.12,.81,11.21,2.92,15.29Z" style="fill:#fab688; fill-rule:evenodd;"/><path d="M163.65,663.23c.66-5.31,.86-10.21,.61-14.69,9.34-.73,24.38-8.82,45.13-24.28,4.93,1.59,9.78,3.07,14.54,4.42-14.6,15.18-34.69,26.71-60.29,34.55Z" style="fill:#3c3392; fill-rule:evenodd;"/><path d="M514.16,279.97c1.23-3.05,6.18-12.58,11.03-24.5,12.02-6.18,21.62-19.68,28.8-40.49-4.3-13.96-13.37-22.69-27.22-26.18-4.68,17.26-11.66,29.93-20.94,38.04,2.3-18-.67-23.65-8.9-16.92,1.13,2.3,1.19,5.2,.18,8.72-5.57,9.11-5.08,19.47,1.49,31.1-2.51,5.26-5.24,10.56-6.48,13.44,7.48,2.4,14.47,7.63,22.05,16.8Z" style="fill:#fab688; fill-rule:evenodd;"/><path d="M766.94,156.8l983.34,129.99c36.59,4.84,65.45,37.37,65.45,74.39V1013.79c0,40.87-35,71.17-75.42,65.82l-983.34-129.99c-36.59-4.84-65.45-37.38-65.45-74.4V222.62c0-40.86,35-71.17,75.42-65.82Z" style="fill:#5a53a2; fill-rule:evenodd;"/><path d="M761.96,194.48l983.34,129.99c17.84,2.36,32.43,18.88,32.43,36.71V1013.79c0,17.83-14.59,30.5-32.43,28.14l-983.34-129.99c-17.84-2.36-32.43-18.88-32.43-36.72V222.62c0-17.84,14.59-30.5,32.43-28.14Z" style="fill:#d7cce5; fill-rule:evenodd;"/><path d="M826.9,276.96c8.18,1.08,14.58,4.65,19.2,10.7,5.48,7.15,8.24,18.19,8.24,33.08s-2.78,25.21-8.29,30.98c-4.59,4.75-10.96,6.6-19.15,5.52-8.22-1.09-14.86-4.91-19.89-11.44-5.04-6.54-7.55-17.37-7.55-32.45s2.78-25.1,8.3-30.87c4.59-4.76,10.96-6.6,19.14-5.52h0Zm715.65,339.3c8.18,1.08,14.58,4.65,19.2,10.7,5.49,7.15,8.24,18.19,8.24,33.08s-2.77,25.21-8.3,30.98c-4.58,4.75-10.96,6.6-19.14,5.52-8.23-1.09-14.86-4.91-19.89-11.44-5.04-6.54-7.56-17.38-7.56-32.45s2.78-25.1,8.3-30.86c4.58-4.76,10.96-6.6,19.14-5.52h0Zm0,12.49c-1.93-.26-3.66,.1-5.16,1.07-1.51,.95-2.69,2.87-3.52,5.77-1.1,3.75-1.66,10.24-1.66,19.45s.49,15.64,1.48,19.22c.98,3.58,2.22,6.04,3.71,7.39,1.5,1.34,3.21,2.14,5.14,2.39,1.93,.26,3.66-.1,5.17-1.07,1.49-.95,2.68-2.88,3.5-5.78,1.1-3.7,1.65-10.18,1.65-19.42s-.49-15.61-1.47-19.19c-.98-3.58-2.22-6.06-3.72-7.41-1.5-1.37-3.21-2.17-5.13-2.43h0Zm79.63,76.89l-16.17-2.14v-56.76c-5.9,4.37-12.87,7.26-20.89,8.67v-13.69c4.23-.72,8.81-2.54,13.75-5.48,4.96-2.92,8.34-6.66,10.19-11.17l13.12,1.73v78.85h0Zm51.67-72.02c8.18,1.08,14.58,4.65,19.2,10.7,5.49,7.15,8.24,18.19,8.24,33.08s-2.78,25.21-8.29,30.97c-4.59,4.76-10.97,6.61-19.15,5.52-8.22-1.08-14.86-4.9-19.89-11.44-5.04-6.54-7.55-17.38-7.55-32.45s2.77-25.1,8.3-30.86c4.58-4.76,10.95-6.6,19.14-5.52h0Zm0,12.49c-1.93-.26-3.66,.1-5.16,1.07-1.52,.95-2.7,2.87-3.52,5.77-1.1,3.74-1.65,10.24-1.65,19.45s.49,15.64,1.48,19.22c.98,3.58,2.22,6.04,3.72,7.39,1.49,1.34,3.21,2.13,5.13,2.39,1.93,.26,3.66-.1,5.17-1.07,1.5-.95,2.68-2.88,3.51-5.78,1.1-3.7,1.65-10.18,1.65-19.42s-.49-15.61-1.48-19.19c-.99-3.58-2.22-6.06-3.72-7.41-1.49-1.37-3.21-2.17-5.13-2.43h0Zm-846.96-2.11c8.18,1.08,14.58,4.65,19.2,10.7,5.48,7.15,8.24,18.19,8.24,33.09s-2.78,25.2-8.29,30.97c-4.59,4.76-10.96,6.6-19.15,5.52-8.22-1.09-14.86-4.9-19.89-11.44-5.04-6.54-7.55-17.37-7.55-32.45s2.78-25.1,8.3-30.86c4.59-4.76,10.96-6.6,19.14-5.52h0Zm0,12.49c-1.92-.26-3.66,.1-5.16,1.07-1.52,.95-2.7,2.88-3.52,5.77-1.1,3.75-1.65,10.25-1.65,19.46s.49,15.64,1.48,19.21c.99,3.58,2.22,6.04,3.72,7.39,1.49,1.35,3.21,2.14,5.13,2.4,1.93,.25,3.66-.11,5.17-1.07,1.5-.95,2.68-2.88,3.51-5.78,1.1-3.71,1.65-10.18,1.65-19.42s-.49-15.61-1.47-19.19c-.99-3.58-2.23-6.06-3.72-7.41-1.49-1.37-3.21-2.17-5.13-2.43h0Zm65.65-3.81c8.19,1.08,14.58,4.65,19.21,10.7,5.48,7.15,8.24,18.19,8.24,33.09s-2.78,25.21-8.3,30.97c-4.59,4.76-10.96,6.6-19.15,5.52-8.22-1.09-14.85-4.91-19.89-11.44-5.03-6.55-7.55-17.37-7.55-32.45s2.78-25.1,8.3-30.86c4.59-4.76,10.96-6.61,19.14-5.52h0Zm0,12.49c-1.93-.25-3.66,.1-5.15,1.07-1.52,.95-2.7,2.88-3.52,5.77-1.1,3.75-1.65,10.24-1.65,19.46s.49,15.63,1.47,19.21c.99,3.58,2.23,6.04,3.72,7.39,1.49,1.35,3.2,2.14,5.13,2.4,1.93,.26,3.66-.1,5.17-1.07,1.5-.95,2.68-2.88,3.51-5.77,1.1-3.71,1.66-10.18,1.66-19.42s-.5-15.62-1.48-19.2c-.99-3.58-2.22-6.06-3.72-7.41-1.49-1.37-3.21-2.17-5.14-2.43h0Zm79.64,76.89l-16.18-2.13v-56.77c-5.9,4.37-12.87,7.26-20.89,8.66v-13.68c4.22-.72,8.82-2.54,13.75-5.49,4.96-2.92,8.34-6.65,10.2-11.17l13.12,1.73v78.85h0Zm51.66-72.02c8.18,1.08,14.58,4.65,19.2,10.7,5.49,7.15,8.25,18.19,8.25,33.09s-2.77,25.2-8.3,30.97c-4.58,4.76-10.96,6.6-19.14,5.52-8.23-1.09-14.86-4.91-19.89-11.45-5.04-6.54-7.56-17.36-7.56-32.44s2.78-25.1,8.31-30.86c4.58-4.77,10.96-6.61,19.14-5.52h0Zm0,12.49c-1.93-.26-3.66,.1-5.16,1.07-1.51,.95-2.69,2.88-3.52,5.77-1.1,3.74-1.65,10.24-1.65,19.46s.49,15.63,1.48,19.21c.98,3.57,2.22,6.04,3.71,7.39,1.5,1.35,3.21,2.14,5.14,2.4,1.93,.26,3.66-.1,5.17-1.07,1.49-.95,2.68-2.88,3.5-5.77,1.1-3.71,1.65-10.18,1.65-19.42s-.49-15.62-1.47-19.2c-.98-3.58-2.22-6.06-3.72-7.41-1.5-1.37-3.21-2.18-5.13-2.43h0Zm65.65-3.81c8.18,1.08,14.57,4.65,19.2,10.7,5.49,7.15,8.24,18.19,8.24,33.08s-2.77,25.21-8.29,30.98c-4.59,4.76-10.96,6.6-19.14,5.52-8.23-1.09-14.86-4.91-19.9-11.44-5.03-6.54-7.55-17.38-7.55-32.45s2.78-25.09,8.3-30.86c4.59-4.76,10.95-6.6,19.15-5.52h0Zm0,12.49c-1.93-.26-3.66,.1-5.16,1.07-1.52,.95-2.69,2.88-3.52,5.78-1.1,3.75-1.65,10.25-1.65,19.45s.49,15.64,1.48,19.22c.99,3.58,2.22,6.04,3.72,7.39,1.49,1.34,3.21,2.14,5.14,2.4,1.92,.25,3.66-.11,5.17-1.07,1.5-.96,2.68-2.88,3.51-5.78,1.1-3.71,1.65-10.19,1.65-19.43s-.49-15.61-1.47-19.19c-.99-3.58-2.23-6.06-3.72-7.41-1.49-1.37-3.21-2.17-5.13-2.43h0Zm79.63,76.89l-16.17-2.13v-56.77c-5.9,4.37-12.87,7.26-20.89,8.67v-13.69c4.23-.72,8.81-2.54,13.75-5.48,4.95-2.92,8.34-6.66,10.19-11.17l13.12,1.73v78.85h0Zm51.66-72.02c8.18,1.08,14.58,4.65,19.2,10.7,5.49,7.15,8.24,18.19,8.24,33.08s-2.78,25.21-8.31,30.98c-4.58,4.75-10.96,6.6-19.14,5.52-8.23-1.09-14.85-4.91-19.89-11.44-5.04-6.54-7.55-17.37-7.55-32.45s2.77-25.1,8.3-30.86c4.58-4.76,10.96-6.6,19.14-5.52h0Zm0,12.49c-1.93-.26-3.66,.1-5.16,1.07-1.51,.95-2.69,2.88-3.52,5.77-1.1,3.75-1.65,10.24-1.65,19.46s.49,15.63,1.47,19.21c.98,3.58,2.22,6.05,3.72,7.4,1.5,1.34,3.21,2.14,5.13,2.39,1.93,.26,3.66-.1,5.17-1.07,1.49-.95,2.68-2.87,3.5-5.78,1.1-3.7,1.66-10.18,1.66-19.42s-.5-15.61-1.48-19.19c-.98-3.58-2.22-6.06-3.71-7.41-1.5-1.37-3.21-2.18-5.14-2.43h0Zm79.64,76.89l-16.17-2.14v-56.76c-5.9,4.37-12.87,7.26-20.89,8.66v-13.69c4.23-.72,8.81-2.54,13.75-5.48,4.96-2.92,8.34-6.66,10.19-11.18l13.12,1.73v78.85h0Zm51.67-72.02c8.18,1.08,14.57,4.65,19.2,10.7,5.49,7.15,8.24,18.19,8.24,33.08s-2.77,25.21-8.29,30.98c-4.59,4.75-10.96,6.59-19.14,5.51-8.23-1.08-14.86-4.9-19.89-11.44-5.04-6.55-7.55-17.38-7.55-32.45s2.78-25.1,8.31-30.86c4.58-4.76,10.95-6.6,19.14-5.52h0Zm0,12.49c-1.93-.26-3.66,.1-5.16,1.07-1.52,.95-2.7,2.87-3.52,5.77-1.1,3.74-1.65,10.24-1.65,19.46s.49,15.63,1.48,19.21c.98,3.58,2.22,6.05,3.71,7.39,1.49,1.35,3.21,2.14,5.14,2.4,1.92,.26,3.66-.1,5.17-1.07,1.49-.95,2.68-2.88,3.5-5.78,1.1-3.7,1.65-10.18,1.65-19.42s-.49-15.61-1.47-19.19c-.99-3.58-2.23-6.06-3.72-7.41-1.49-1.37-3.21-2.18-5.13-2.43h0Zm65.64-3.81c8.19,1.08,14.58,4.65,19.21,10.7,5.49,7.15,8.24,18.19,8.24,33.08s-2.78,25.21-8.3,30.97c-4.59,4.76-10.96,6.61-19.15,5.52-8.22-1.09-14.85-4.9-19.89-11.44-5.03-6.54-7.55-17.37-7.55-32.45s2.76-25.09,8.3-30.86c4.58-4.76,10.95-6.59,19.14-5.51h0Zm0,12.48c-1.92-.25-3.66,.1-5.15,1.08-1.52,.95-2.7,2.87-3.52,5.77-1.1,3.74-1.65,10.24-1.65,19.45s.49,15.64,1.47,19.21c.99,3.58,2.23,6.05,3.72,7.39,1.49,1.35,3.2,2.14,5.13,2.4,1.93,.26,3.66-.1,5.18-1.07,1.49-.95,2.67-2.88,3.51-5.78,1.1-3.7,1.65-10.18,1.65-19.42s-.49-15.61-1.48-19.19c-.99-3.58-2.22-6.06-3.72-7.41-1.49-1.37-3.21-2.18-5.14-2.44h0Zm79.65,76.9l-16.17-2.14v-56.76c-5.9,4.36-12.87,7.26-20.9,8.66v-13.69c4.23-.72,8.82-2.54,13.76-5.48,4.95-2.93,8.34-6.66,10.19-11.18l13.12,1.74v78.85h0Zm51.66-72.03c8.18,1.08,14.58,4.65,19.2,10.7,5.5,7.15,8.24,18.19,8.24,33.08s-2.77,25.21-8.3,30.97c-4.58,4.76-10.96,6.61-19.14,5.52-8.23-1.09-14.85-4.9-19.89-11.44-5.04-6.54-7.56-17.37-7.56-32.45s2.78-25.09,8.31-30.86c4.58-4.76,10.96-6.6,19.14-5.52h0Zm0,12.49c-1.93-.25-3.66,.1-5.16,1.07-1.52,.95-2.69,2.88-3.52,5.78-1.1,3.74-1.65,10.24-1.65,19.45s.49,15.64,1.48,19.21c.98,3.58,2.22,6.04,3.71,7.39,1.5,1.35,3.21,2.14,5.14,2.4,1.93,.25,3.66-.1,5.17-1.07,1.49-.95,2.68-2.88,3.5-5.78,1.1-3.71,1.66-10.18,1.66-19.42s-.5-15.61-1.48-19.19c-.98-3.58-2.22-6.06-3.72-7.41-1.5-1.37-3.21-2.17-5.13-2.43h0Zm79.64,76.89l-16.17-2.13v-56.76c-5.91,4.36-12.87,7.26-20.9,8.66v-13.69c4.23-.71,8.81-2.54,13.75-5.49,4.96-2.92,8.34-6.65,10.19-11.17l13.13,1.74v78.84h0Zm51.66-72.02c8.18,1.09,14.58,4.65,19.2,10.7,5.49,7.15,8.24,18.19,8.24,33.08s-2.78,25.21-8.3,30.97c-4.59,4.76-10.96,6.6-19.14,5.52-8.22-1.09-14.86-4.9-19.9-11.44-5.03-6.54-7.55-17.37-7.55-32.45s2.77-25.09,8.3-30.86c4.58-4.76,10.95-6.6,19.14-5.52h0Zm0,12.49c-1.93-.26-3.66,.1-5.16,1.07-1.52,.95-2.7,2.88-3.52,5.77-1.1,3.75-1.65,10.25-1.65,19.46s.49,15.64,1.47,19.21c.99,3.58,2.23,6.04,3.72,7.39,1.49,1.35,3.21,2.14,5.13,2.4,1.92,.25,3.66-.1,5.17-1.07,1.5-.95,2.68-2.88,3.5-5.78,1.11-3.71,1.66-10.18,1.66-19.42s-.49-15.61-1.48-19.19c-.99-3.58-2.22-6.06-3.72-7.41-1.49-1.37-3.21-2.17-5.13-2.43h0Zm-853.47-2.97c8.18,1.08,14.58,4.65,19.2,10.7,5.48,7.15,8.24,18.19,8.24,33.09s-2.78,25.2-8.29,30.97c-4.59,4.76-10.96,6.6-19.15,5.52-8.22-1.09-14.86-4.9-19.89-11.44-5.04-6.54-7.55-17.37-7.55-32.45s2.78-25.1,8.3-30.87c4.59-4.76,10.96-6.6,19.14-5.52h0Zm0,12.49c-1.92-.26-3.66,.1-5.16,1.07-1.52,.95-2.7,2.88-3.52,5.78-1.1,3.75-1.65,10.25-1.65,19.46s.49,15.64,1.48,19.21c.99,3.58,2.22,6.04,3.72,7.39,1.49,1.35,3.21,2.14,5.13,2.4,1.93,.25,3.66-.11,5.17-1.07,1.5-.95,2.68-2.88,3.51-5.78,1.1-3.71,1.65-10.18,1.65-19.42s-.49-15.61-1.47-19.19c-.99-3.58-2.23-6.07-3.72-7.41-1.49-1.37-3.21-2.17-5.13-2.43h0Zm79.64,76.89l-16.17-2.13v-56.76c-5.9,4.36-12.87,7.26-20.9,8.66v-13.69c4.24-.72,8.82-2.54,13.76-5.49,4.96-2.92,8.34-6.65,10.19-11.17l13.12,1.73v78.85h0Zm51.66-72.02c8.18,1.08,14.58,4.65,19.2,10.7,5.49,7.15,8.24,18.19,8.24,33.09s-2.78,25.2-8.31,30.97c-4.58,4.76-10.96,6.6-19.14,5.52-8.22-1.09-14.85-4.9-19.89-11.44-5.04-6.54-7.55-17.37-7.55-32.45s2.77-25.1,8.3-30.87c4.58-4.76,10.96-6.6,19.14-5.52h0Zm0,12.49c-1.93-.26-3.66,.1-5.16,1.07-1.51,.95-2.69,2.88-3.52,5.78-1.1,3.75-1.66,10.25-1.66,19.46s.5,15.64,1.48,19.21c.98,3.58,2.22,6.04,3.72,7.39,1.49,1.35,3.21,2.14,5.13,2.4,1.93,.25,3.66-.11,5.17-1.07,1.49-.95,2.68-2.88,3.5-5.78,1.1-3.71,1.66-10.18,1.66-19.42s-.5-15.61-1.48-19.19c-.98-3.58-2.22-6.07-3.71-7.41-1.5-1.37-3.21-2.17-5.14-2.43h0Zm79.64,76.89l-16.17-2.13v-56.76c-5.9,4.36-12.87,7.26-20.89,8.66v-13.69c4.23-.72,8.81-2.54,13.75-5.49,4.96-2.92,8.34-6.65,10.19-11.17l13.12,1.73v78.85h0Zm51.67-72.02c8.18,1.08,14.57,4.65,19.2,10.7,5.49,7.15,8.24,18.19,8.24,33.08s-2.77,25.21-8.29,30.98c-4.59,4.76-10.96,6.6-19.14,5.52-8.23-1.09-14.86-4.9-19.9-11.44-5.03-6.54-7.55-17.37-7.55-32.45s2.78-25.09,8.3-30.86c4.59-4.76,10.95-6.6,19.15-5.52h0Zm0,12.49c-1.93-.26-3.66,.1-5.16,1.07-1.52,.95-2.69,2.88-3.52,5.78-1.1,3.75-1.65,10.25-1.65,19.46s.49,15.64,1.48,19.21c.99,3.58,2.22,6.04,3.72,7.39,1.49,1.34,3.21,2.14,5.14,2.4,1.92,.25,3.66-.11,5.17-1.07,1.5-.95,2.68-2.88,3.51-5.78,1.1-3.71,1.65-10.18,1.65-19.43s-.49-15.61-1.47-19.19c-.99-3.58-2.23-6.06-3.72-7.41-1.49-1.37-3.21-2.17-5.13-2.43h0Zm65.64-3.81c8.18,1.08,14.58,4.65,19.21,10.7,5.48,7.15,8.24,18.19,8.24,33.08s-2.78,25.21-8.3,30.98c-4.59,4.76-10.96,6.6-19.15,5.52-8.22-1.09-14.85-4.91-19.89-11.45-5.04-6.54-7.55-17.37-7.55-32.44s2.77-25.1,8.3-30.87c4.58-4.76,10.95-6.6,19.14-5.52h0Zm0,12.49c-1.92-.26-3.66,.1-5.15,1.07-1.52,.95-2.7,2.88-3.52,5.78-1.1,3.74-1.65,10.24-1.65,19.46s.49,15.63,1.48,19.21c.99,3.58,2.22,6.05,3.72,7.39,1.49,1.35,3.21,2.14,5.13,2.4,1.93,.26,3.66-.1,5.18-1.07,1.5-.95,2.67-2.88,3.51-5.77,1.1-3.71,1.65-10.19,1.65-19.43s-.49-15.61-1.48-19.19c-.98-3.58-2.22-6.06-3.71-7.41-1.49-1.37-3.21-2.17-5.14-2.43h0Zm79.65,76.89l-16.18-2.14v-56.77c-5.9,4.37-12.87,7.26-20.89,8.67v-13.69c4.23-.72,8.82-2.54,13.76-5.48,4.96-2.92,8.34-6.66,10.19-11.17l13.12,1.73v78.85h0Zm51.66-72.02c8.18,1.08,14.58,4.65,19.2,10.7,5.49,7.15,8.25,18.19,8.25,33.08s-2.77,25.21-8.3,30.98c-4.58,4.76-10.96,6.6-19.14,5.52-8.23-1.09-14.86-4.91-19.89-11.45-5.03-6.54-7.55-17.37-7.55-32.44s2.78-25.1,8.31-30.87c4.58-4.76,10.96-6.6,19.14-5.52h0Zm0,12.49c-1.93-.26-3.66,.1-5.16,1.07-1.51,.95-2.69,2.87-3.52,5.78-1.1,3.74-1.66,10.24-1.66,19.46s.5,15.63,1.48,19.21c.98,3.58,2.22,6.05,3.71,7.39,1.5,1.35,3.21,2.14,5.14,2.4,1.93,.26,3.66-.1,5.17-1.07,1.49-.95,2.68-2.88,3.5-5.77,1.1-3.71,1.65-10.19,1.65-19.43s-.49-15.61-1.47-19.19c-.98-3.58-2.22-6.06-3.72-7.41-1.5-1.37-3.21-2.18-5.13-2.43h0Zm79.63,76.89l-16.17-2.14v-56.76c-5.91,4.37-12.87,7.26-20.89,8.66v-13.69c4.23-.72,8.81-2.54,13.75-5.48,4.96-2.92,8.34-6.66,10.19-11.18l13.12,1.74v78.85h0Zm51.66-72.02c8.19,1.08,14.58,4.65,19.21,10.7,5.49,7.15,8.24,18.19,8.24,33.08s-2.78,25.21-8.3,30.98c-4.59,4.75-10.96,6.6-19.15,5.51-8.22-1.09-14.85-4.9-19.89-11.44-5.03-6.54-7.55-17.37-7.55-32.44s2.76-25.1,8.3-30.87c4.58-4.76,10.95-6.6,19.14-5.52h0Zm0,12.48c-1.92-.25-3.66,.1-5.15,1.08-1.52,.95-2.7,2.87-3.52,5.78-1.1,3.74-1.65,10.24-1.65,19.46s.49,15.63,1.47,19.21c.99,3.58,2.23,6.05,3.72,7.39,1.49,1.35,3.2,2.14,5.13,2.4,1.93,.26,3.66-.1,5.18-1.07,1.49-.95,2.67-2.88,3.51-5.77,1.1-3.71,1.65-10.19,1.65-19.43s-.49-15.61-1.48-19.19c-.99-3.58-2.22-6.06-3.72-7.41-1.49-1.37-3.21-2.18-5.14-2.44h0Zm79.65,76.9l-16.17-2.14v-56.76c-5.9,4.37-12.87,7.26-20.9,8.66v-13.69c4.23-.72,8.82-2.54,13.76-5.48,4.95-2.93,8.34-6.66,10.19-11.18l13.12,1.74v78.85h0Zm59.14,7.82l-16.17-2.14v-56.77c-5.9,4.37-12.87,7.26-20.89,8.67v-13.69c4.23-.72,8.81-2.54,13.75-5.48,4.96-2.93,8.34-6.66,10.19-11.18l13.12,1.73v78.85h0Zm51.67-72.03c8.18,1.08,14.57,4.65,19.2,10.7,5.49,7.15,8.24,18.19,8.24,33.09s-2.77,25.21-8.29,30.97c-4.59,4.76-10.96,6.6-19.14,5.52-8.23-1.09-14.86-4.91-19.89-11.44-5.03-6.54-7.55-17.38-7.55-32.45s2.78-25.1,8.31-30.87c4.58-4.76,10.95-6.6,19.14-5.52h0Zm0,12.49c-1.93-.26-3.66,.1-5.16,1.07-1.52,.95-2.69,2.88-3.52,5.78-1.1,3.74-1.66,10.23-1.66,19.45s.49,15.63,1.48,19.21c.99,3.58,2.22,6.04,3.72,7.39,1.49,1.34,3.21,2.13,5.14,2.39,1.92,.26,3.66-.1,5.17-1.07,1.5-.95,2.68-2.88,3.51-5.78,1.1-3.71,1.65-10.19,1.65-19.42s-.49-15.62-1.47-19.2c-.99-3.58-2.23-6.06-3.72-7.41-1.49-1.37-3.21-2.17-5.13-2.43h0Zm65.65-3.81c8.18,1.08,14.58,4.65,19.2,10.7,5.49,7.15,8.24,18.19,8.24,33.08s-2.78,25.21-8.29,30.98c-4.59,4.75-10.97,6.6-19.15,5.52-8.22-1.09-14.86-4.91-19.89-11.44-5.04-6.55-7.55-17.38-7.55-32.45s2.77-25.1,8.3-30.87c4.58-4.76,10.95-6.6,19.14-5.52h0Zm0,12.49c-1.93-.26-3.66,.1-5.16,1.07-1.52,.95-2.7,2.87-3.52,5.78-1.1,3.75-1.65,10.24-1.65,19.45s.49,15.64,1.48,19.22c.98,3.58,2.22,6.04,3.72,7.39,1.49,1.34,3.21,2.14,5.13,2.39,1.93,.26,3.66-.1,5.17-1.07,1.5-.95,2.68-2.88,3.51-5.77,1.1-3.71,1.65-10.18,1.65-19.43s-.49-15.61-1.48-19.19c-.99-3.58-2.22-6.06-3.72-7.41-1.49-1.37-3.21-2.17-5.13-2.43h0ZM826.9,289.45c-1.92-.26-3.66,.1-5.16,1.07-1.52,.95-2.7,2.88-3.52,5.78-1.1,3.75-1.65,10.25-1.65,19.45s.49,15.64,1.48,19.22c.99,3.58,2.22,6.04,3.72,7.39,1.49,1.35,3.21,2.14,5.13,2.39,1.93,.26,3.66-.1,5.17-1.06,1.5-.96,2.68-2.88,3.51-5.78,1.1-3.71,1.65-10.18,1.65-19.43s-.49-15.61-1.47-19.19c-.99-3.58-2.23-6.06-3.72-7.41-1.49-1.37-3.21-2.17-5.13-2.43h0Zm65.65-3.81c8.19,1.08,14.58,4.65,19.21,10.7,5.48,7.15,8.24,18.19,8.24,33.09s-2.78,25.2-8.3,30.97c-4.59,4.76-10.96,6.6-19.15,5.52-8.22-1.09-14.85-4.91-19.89-11.44-5.03-6.55-7.55-17.38-7.55-32.45s2.78-25.1,8.3-30.86c4.59-4.76,10.96-6.6,19.14-5.52h0Zm0,12.49c-1.93-.26-3.66,.1-5.15,1.07-1.52,.95-2.7,2.88-3.52,5.77-1.1,3.74-1.65,10.24-1.65,19.46s.49,15.63,1.47,19.21c.99,3.57,2.23,6.04,3.72,7.39,1.49,1.35,3.2,2.14,5.13,2.4,1.93,.26,3.66-.1,5.17-1.07,1.5-.95,2.68-2.88,3.51-5.77,1.1-3.71,1.66-10.19,1.66-19.42s-.5-15.62-1.48-19.2c-.99-3.58-2.22-6.06-3.72-7.41-1.49-1.37-3.21-2.17-5.14-2.43h0Zm79.64,76.89l-16.18-2.14v-56.77c-5.9,4.37-12.87,7.26-20.89,8.66v-13.69c4.22-.71,8.82-2.54,13.75-5.48,4.96-2.92,8.34-6.66,10.2-11.18l13.12,1.74v78.85h0Zm51.66-72.02c8.18,1.08,14.58,4.64,19.2,10.7,5.49,7.15,8.25,18.19,8.25,33.08s-2.77,25.21-8.3,30.98c-4.58,4.76-10.96,6.6-19.14,5.52-8.23-1.09-14.86-4.91-19.89-11.45-5.04-6.54-7.56-17.37-7.56-32.44s2.78-25.1,8.31-30.86c4.58-4.76,10.96-6.6,19.14-5.52h0Zm0,12.49c-1.93-.26-3.66,.1-5.16,1.06-1.51,.95-2.69,2.88-3.52,5.78-1.1,3.74-1.65,10.24-1.65,19.46s.49,15.63,1.48,19.21c.98,3.58,2.22,6.05,3.71,7.39,1.5,1.35,3.21,2.14,5.14,2.4,1.93,.26,3.66-.1,5.17-1.07,1.49-.95,2.68-2.88,3.5-5.77,1.1-3.71,1.65-10.19,1.65-19.42s-.49-15.62-1.47-19.2c-.98-3.58-2.22-6.06-3.72-7.41-1.5-1.37-3.21-2.18-5.13-2.43h0Zm79.63,76.89l-16.17-2.14v-56.77c-5.9,4.37-12.87,7.26-20.9,8.66v-13.69c4.23-.71,8.81-2.54,13.75-5.48,4.96-2.92,8.34-6.66,10.19-11.18l13.12,1.74v78.85h0Zm51.66-72.02c8.18,1.08,14.58,4.64,19.21,10.7,5.48,7.15,8.24,18.19,8.24,33.08s-2.78,25.21-8.3,30.97c-4.59,4.77-10.96,6.61-19.15,5.52-8.22-1.09-14.85-4.91-19.89-11.45-5.04-6.54-7.55-17.37-7.55-32.45s2.77-25.09,8.3-30.86c4.58-4.75,10.95-6.59,19.14-5.51h0Zm0,12.49c-1.92-.26-3.66,.09-5.15,1.06-1.52,.95-2.7,2.88-3.52,5.78-1.1,3.74-1.65,10.24-1.65,19.45s.49,15.64,1.48,19.21,2.22,6.05,3.72,7.39c1.49,1.35,3.21,2.14,5.13,2.4,1.93,.26,3.66-.1,5.18-1.07,1.5-.95,2.67-2.88,3.51-5.77,1.1-3.71,1.65-10.19,1.65-19.43s-.49-15.61-1.48-19.19c-.98-3.58-2.22-6.06-3.71-7.41-1.49-1.37-3.21-2.18-5.14-2.43h0Zm65.65-3.81c8.18,1.08,14.58,4.65,19.2,10.7,5.49,7.15,8.24,18.19,8.24,33.08s-2.78,25.21-8.31,30.97c-4.58,4.76-10.96,6.6-19.14,5.52-8.23-1.08-14.85-4.9-19.89-11.44-5.04-6.54-7.55-17.37-7.55-32.45s2.77-25.1,8.3-30.86c4.58-4.76,10.96-6.6,19.14-5.52h0Zm0,12.49c-1.93-.26-3.66,.09-5.16,1.07-1.51,.95-2.69,2.87-3.52,5.77-1.1,3.74-1.65,10.24-1.65,19.45s.49,15.64,1.47,19.21c.98,3.58,2.22,6.04,3.72,7.39,1.5,1.35,3.21,2.14,5.13,2.4,1.93,.25,3.66-.1,5.17-1.07,1.49-.95,2.68-2.88,3.5-5.78,1.1-3.71,1.66-10.18,1.66-19.42s-.5-15.62-1.48-19.19c-.98-3.58-2.22-6.06-3.71-7.41-1.5-1.37-3.21-2.18-5.14-2.43h0Zm79.64,76.89l-16.17-2.14v-56.76c-5.9,4.36-12.87,7.26-20.89,8.66v-13.69c4.23-.72,8.81-2.54,13.75-5.48,4.96-2.92,8.34-6.66,10.19-11.18l13.12,1.73v78.85h0Zm51.67-72.02c8.18,1.08,14.57,4.64,19.2,10.69,5.49,7.15,8.24,18.19,8.24,33.09s-2.77,25.21-8.29,30.97c-4.59,4.76-10.96,6.6-19.14,5.52-8.23-1.09-14.86-4.9-19.89-11.44-5.04-6.54-7.55-17.37-7.55-32.45s2.78-25.1,8.31-30.86c4.58-4.76,10.95-6.6,19.14-5.52h0Zm0,12.49c-1.93-.26-3.66,.1-5.16,1.07-1.52,.95-2.7,2.87-3.52,5.77-1.1,3.74-1.65,10.24-1.65,19.45s.49,15.64,1.48,19.21c.98,3.58,2.22,6.04,3.71,7.39,1.49,1.35,3.21,2.14,5.14,2.39,1.92,.26,3.66-.1,5.17-1.06,1.49-.95,2.68-2.88,3.5-5.78,1.1-3.7,1.65-10.18,1.65-19.42s-.49-15.62-1.47-19.19c-.99-3.58-2.23-6.06-3.72-7.41-1.49-1.37-3.21-2.17-5.13-2.42h0Zm79.63,76.89l-16.17-2.14v-56.76c-5.9,4.36-12.87,7.26-20.9,8.66v-13.69c4.24-.72,8.82-2.54,13.76-5.48,4.96-2.93,8.34-6.66,10.19-11.18l13.12,1.73v78.85h0Zm51.66-72.02c8.18,1.08,14.58,4.64,19.2,10.7,5.49,7.15,8.24,18.19,8.24,33.08s-2.78,25.21-8.31,30.97c-4.58,4.76-10.96,6.6-19.14,5.52-8.22-1.09-14.85-4.91-19.89-11.44-5.04-6.54-7.55-17.37-7.55-32.45s2.77-25.1,8.3-30.86c4.58-4.76,10.96-6.6,19.14-5.52h0Zm0,12.48c-1.93-.25-3.66,.1-5.15,1.07-1.52,.95-2.7,2.88-3.52,5.78-1.1,3.74-1.66,10.24-1.66,19.45s.5,15.63,1.48,19.21c.98,3.58,2.22,6.05,3.72,7.39,1.5,1.35,3.21,2.14,5.13,2.39,1.93,.26,3.66-.1,5.17-1.06,1.5-.95,2.68-2.88,3.5-5.78,1.1-3.71,1.66-10.18,1.66-19.42s-.49-15.62-1.48-19.2c-.98-3.58-2.22-6.06-3.71-7.41-1.5-1.37-3.21-2.17-5.14-2.43h0Zm65.65-3.81c8.18,1.08,14.58,4.65,19.2,10.7,5.5,7.15,8.24,18.19,8.24,33.08s-2.77,25.21-8.3,30.98c-4.58,4.76-10.96,6.6-19.14,5.52-8.23-1.09-14.85-4.9-19.89-11.44-5.04-6.54-7.56-17.37-7.56-32.45s2.78-25.1,8.31-30.86c4.58-4.76,10.96-6.6,19.14-5.52h0Zm0,12.49c-1.93-.25-3.66,.1-5.16,1.07-1.52,.95-2.69,2.88-3.52,5.77-1.1,3.75-1.65,10.25-1.65,19.46s.49,15.64,1.48,19.21c.98,3.58,2.22,6.04,3.71,7.39,1.5,1.35,3.21,2.14,5.14,2.4,1.93,.25,3.66-.1,5.17-1.07,1.49-.95,2.68-2.88,3.5-5.78,1.1-3.71,1.66-10.18,1.66-19.42s-.5-15.62-1.48-19.2c-.98-3.58-2.22-6.06-3.72-7.41-1.5-1.37-3.21-2.17-5.13-2.43h0Zm79.64,76.89l-16.17-2.14v-56.77c-5.91,4.37-12.87,7.26-20.9,8.67v-13.69c4.23-.72,8.81-2.54,13.75-5.48,4.96-2.92,8.34-6.66,10.19-11.17l13.13,1.73v78.85h0Zm51.66-72.02c8.18,1.08,14.58,4.65,19.2,10.7,5.49,7.15,8.24,18.19,8.24,33.08s-2.78,25.21-8.3,30.98c-4.59,4.76-10.96,6.6-19.14,5.52-8.22-1.09-14.86-4.9-19.9-11.44-5.03-6.54-7.55-17.37-7.55-32.45s2.77-25.1,8.3-30.86c4.58-4.76,10.95-6.6,19.14-5.52h0Zm0,12.49c-1.93-.26-3.66,.1-5.16,1.07-1.52,.95-2.7,2.88-3.52,5.77-1.1,3.75-1.65,10.25-1.65,19.46s.49,15.64,1.47,19.21c.99,3.58,2.23,6.04,3.72,7.39,1.49,1.34,3.21,2.14,5.13,2.4,1.92,.25,3.66-.11,5.17-1.07,1.5-.96,2.68-2.88,3.5-5.78,1.11-3.71,1.66-10.18,1.66-19.42s-.49-15.62-1.48-19.2c-.99-3.58-2.22-6.06-3.72-7.41-1.49-1.37-3.21-2.17-5.13-2.43h0Zm-839.48,77.73l-16.16-2.13v-56.77c-5.91,4.37-12.87,7.26-20.9,8.66v-13.69c4.23-.72,8.81-2.54,13.75-5.48,4.96-2.92,8.34-6.65,10.19-11.18l13.12,1.74v78.85h0Zm51.66-72.02c8.19,1.08,14.58,4.65,19.21,10.7,5.48,7.15,8.24,18.19,8.24,33.09s-2.78,25.2-8.3,30.97c-4.59,4.76-10.96,6.6-19.15,5.52-8.22-1.09-14.85-4.91-19.89-11.44-5.03-6.55-7.55-17.37-7.55-32.45s2.78-25.1,8.3-30.86c4.59-4.76,10.96-6.6,19.14-5.52h0Zm0,12.49c-1.93-.26-3.66,.1-5.15,1.07-1.52,.95-2.7,2.88-3.52,5.77-1.1,3.74-1.65,10.24-1.65,19.46s.49,15.63,1.47,19.21c.99,3.57,2.23,6.04,3.72,7.39,1.49,1.35,3.2,2.14,5.13,2.4,1.93,.26,3.66-.1,5.17-1.07,1.5-.95,2.68-2.88,3.51-5.77,1.1-3.71,1.66-10.18,1.66-19.42s-.5-15.62-1.48-19.2c-.99-3.58-2.22-6.06-3.72-7.41-1.49-1.37-3.21-2.17-5.14-2.43h0Zm79.64,76.89l-16.18-2.13v-56.77c-5.9,4.37-12.87,7.26-20.89,8.66v-13.69c4.22-.71,8.82-2.54,13.75-5.48,4.96-2.92,8.34-6.66,10.2-11.17l13.12,1.73v78.85h0Zm51.66-72.02c8.18,1.08,14.58,4.64,19.2,10.7,5.49,7.15,8.25,18.19,8.25,33.08s-2.77,25.21-8.3,30.98c-4.58,4.76-10.96,6.6-19.14,5.52-8.23-1.09-14.86-4.91-19.89-11.45-5.04-6.54-7.56-17.37-7.56-32.44s2.78-25.1,8.31-30.86c4.58-4.76,10.96-6.6,19.14-5.52h0Zm0,12.49c-1.93-.26-3.66,.1-5.16,1.07-1.51,.95-2.69,2.87-3.52,5.77-1.1,3.74-1.65,10.24-1.65,19.46s.49,15.63,1.48,19.21c.98,3.57,2.22,6.04,3.71,7.39,1.5,1.35,3.21,2.14,5.14,2.4,1.93,.26,3.66-.1,5.17-1.07,1.49-.95,2.68-2.88,3.5-5.77,1.1-3.71,1.65-10.19,1.65-19.42s-.49-15.62-1.47-19.2c-.98-3.58-2.22-6.06-3.72-7.41-1.5-1.37-3.21-2.18-5.13-2.43h0Zm65.65-3.81c8.18,1.08,14.57,4.65,19.2,10.7,5.49,7.15,8.24,18.19,8.24,33.08s-2.77,25.21-8.29,30.98c-4.59,4.75-10.96,6.6-19.14,5.52-8.23-1.09-14.86-4.91-19.9-11.44-5.03-6.54-7.55-17.38-7.55-32.45s2.78-25.1,8.3-30.86c4.59-4.76,10.95-6.6,19.15-5.52h0Zm0,12.49c-1.93-.26-3.66,.1-5.16,1.07-1.52,.95-2.69,2.87-3.52,5.77-1.1,3.75-1.65,10.24-1.65,19.45s.49,15.64,1.48,19.22c.99,3.57,2.22,6.04,3.72,7.39,1.49,1.34,3.21,2.14,5.14,2.39,1.92,.26,3.66-.1,5.17-1.07,1.5-.95,2.68-2.88,3.51-5.78,1.1-3.7,1.65-10.18,1.65-19.42s-.49-15.61-1.47-19.19c-.99-3.58-2.23-6.06-3.72-7.41-1.49-1.37-3.21-2.18-5.13-2.43h0Zm79.63,76.89l-16.17-2.14v-56.76c-5.9,4.37-12.87,7.26-20.89,8.66v-13.68c4.23-.72,8.81-2.54,13.75-5.49,4.95-2.92,8.34-6.66,10.19-11.18l13.12,1.73v78.85h0Zm51.66-72.02c8.18,1.08,14.58,4.65,19.2,10.7,5.49,7.15,8.24,18.19,8.24,33.08s-2.78,25.21-8.31,30.98c-4.58,4.75-10.96,6.59-19.14,5.51-8.23-1.08-14.85-4.9-19.89-11.44-5.04-6.54-7.55-17.37-7.55-32.45s2.77-25.1,8.3-30.86c4.58-4.76,10.96-6.6,19.14-5.52h0Zm0,12.49c-1.93-.26-3.66,.1-5.16,1.07-1.51,.95-2.69,2.87-3.52,5.77-1.1,3.74-1.65,10.24-1.65,19.45s.49,15.64,1.47,19.21c.98,3.58,2.22,6.05,3.72,7.39,1.5,1.35,3.21,2.14,5.13,2.4,1.93,.26,3.66-.1,5.17-1.07,1.49-.95,2.68-2.88,3.5-5.78,1.1-3.7,1.66-10.18,1.66-19.42s-.5-15.62-1.48-19.19c-.98-3.58-2.22-6.06-3.71-7.41-1.5-1.37-3.21-2.18-5.14-2.43h0Zm79.64,76.89l-16.17-2.14v-56.76c-5.9,4.36-12.87,7.26-20.89,8.66v-13.68c4.23-.73,8.81-2.54,13.75-5.49,4.96-2.92,8.34-6.66,10.19-11.18l13.12,1.73v78.85h0Zm59.14,7.81l-16.17-2.13v-56.76c-5.91,4.36-12.87,7.26-20.9,8.66v-13.69c4.23-.72,8.81-2.54,13.75-5.49,4.96-2.92,8.34-6.66,10.19-11.17l13.12,1.73v78.85h0Zm51.66-72.02c8.19,1.08,14.58,4.65,19.21,10.7,5.49,7.15,8.24,18.19,8.24,33.08s-2.78,25.21-8.3,30.98c-4.59,4.76-10.96,6.6-19.15,5.52-8.22-1.09-14.85-4.9-19.89-11.44-5.03-6.54-7.55-17.38-7.55-32.45s2.78-25.1,8.31-30.86c4.58-4.76,10.95-6.6,19.14-5.52h0Zm0,12.49c-1.92-.26-3.66,.1-5.15,1.07-1.52,.95-2.7,2.88-3.52,5.77-1.1,3.75-1.65,10.25-1.65,19.46s.49,15.64,1.47,19.21c.99,3.58,2.23,6.04,3.72,7.39,1.49,1.34,3.21,2.14,5.13,2.39,1.93,.26,3.66-.1,5.17-1.07,1.5-.95,2.68-2.88,3.51-5.77,1.1-3.71,1.66-10.18,1.66-19.43s-.5-15.61-1.48-19.19c-.98-3.58-2.22-6.07-3.71-7.41-1.49-1.37-3.21-2.17-5.14-2.43h0Zm79.65,76.89l-16.18-2.14v-56.76c-5.9,4.37-12.87,7.26-20.89,8.67v-13.69c4.23-.72,8.82-2.54,13.75-5.49,4.96-2.92,8.34-6.66,10.2-11.17l13.12,1.73v78.85h0Zm59.14,7.82l-16.17-2.14v-56.76c-5.9,4.37-12.87,7.26-20.89,8.66v-13.69c4.22-.72,8.81-2.54,13.75-5.48,4.96-2.93,8.35-6.66,10.2-11.18l13.12,1.73v78.85h0Zm51.66-72.03c8.19,1.09,14.58,4.65,19.2,10.7,5.49,7.15,8.24,18.19,8.24,33.08s-2.77,25.21-8.29,30.98c-4.59,4.75-10.96,6.59-19.15,5.51-8.22-1.09-14.86-4.9-19.89-11.44-5.03-6.54-7.55-17.37-7.55-32.45s2.77-25.09,8.31-30.86c4.58-4.77,10.95-6.61,19.14-5.52h0Zm0,12.49c-1.93-.25-3.66,.1-5.16,1.07-1.52,.95-2.69,2.88-3.52,5.78-1.1,3.74-1.66,10.24-1.66,19.45s.49,15.64,1.48,19.21c.99,3.58,2.22,6.04,3.72,7.39,1.49,1.35,3.21,2.14,5.13,2.4,1.93,.26,3.66-.1,5.18-1.07,1.49-.95,2.68-2.88,3.5-5.78,1.1-3.71,1.65-10.18,1.65-19.42s-.49-15.61-1.47-19.19c-.99-3.58-2.23-6.06-3.72-7.41-1.49-1.36-3.21-2.17-5.13-2.43h0Zm65.65-3.8c8.19,1.08,14.58,4.65,19.21,10.7,5.49,7.15,8.24,18.19,8.24,33.08s-2.78,25.21-8.3,30.97c-4.59,4.76-10.96,6.6-19.15,5.52-8.22-1.09-14.85-4.91-19.89-11.44-5.03-6.54-7.55-17.37-7.55-32.45s2.78-25.1,8.3-30.86c4.59-4.75,10.96-6.59,19.14-5.51h0Zm0,12.48c-1.92-.26-3.66,.1-5.15,1.07-1.52,.95-2.7,2.88-3.52,5.78-1.1,3.74-1.65,10.24-1.65,19.45s.49,15.64,1.47,19.21c.99,3.58,2.22,6.05,3.72,7.39,1.49,1.35,3.21,2.14,5.13,2.39,1.93,.26,3.66-.1,5.18-1.06,1.5-.95,2.68-2.88,3.5-5.78,1.1-3.7,1.66-10.18,1.66-19.42s-.49-15.62-1.48-19.2c-.99-3.58-2.22-6.06-3.72-7.4-1.49-1.37-3.21-2.18-5.14-2.44h0Zm-840.44-1.24c8.18,1.08,14.58,4.65,19.2,10.7,5.48,7.15,8.24,18.19,8.24,33.09s-2.78,25.2-8.29,30.97c-4.59,4.76-10.96,6.6-19.15,5.52-8.22-1.09-14.86-4.9-19.89-11.44-5.04-6.54-7.55-17.37-7.55-32.45s2.78-25.1,8.3-30.86c4.59-4.76,10.96-6.6,19.14-5.52h0Zm0,12.49c-1.92-.26-3.66,.1-5.16,1.07-1.52,.95-2.7,2.88-3.52,5.77-1.1,3.75-1.65,10.25-1.65,19.46s.49,15.64,1.48,19.21c.99,3.58,2.22,6.04,3.72,7.39,1.49,1.35,3.21,2.14,5.13,2.39,1.93,.26,3.66-.1,5.17-1.06,1.5-.95,2.68-2.88,3.51-5.78,1.1-3.71,1.65-10.18,1.65-19.42s-.49-15.61-1.47-19.19c-.99-3.58-2.23-6.06-3.72-7.41-1.49-1.37-3.21-2.17-5.13-2.43h0Zm79.64,76.89l-16.17-2.14v-56.77c-5.9,4.37-12.87,7.26-20.9,8.67v-13.69c4.24-.72,8.82-2.54,13.76-5.48,4.96-2.92,8.34-6.65,10.19-11.17l13.12,1.73v78.85h0Zm51.66-72.02c8.18,1.08,14.58,4.65,19.2,10.7,5.49,7.15,8.24,18.19,8.24,33.08s-2.78,25.21-8.31,30.98c-4.58,4.75-10.96,6.6-19.14,5.52-8.22-1.09-14.85-4.91-19.89-11.44-5.04-6.54-7.55-17.37-7.55-32.45s2.77-25.1,8.3-30.86c4.58-4.76,10.96-6.6,19.14-5.52h0Zm0,12.49c-1.93-.26-3.66,.1-5.16,1.07-1.51,.95-2.69,2.88-3.52,5.77-1.1,3.75-1.66,10.25-1.66,19.45s.5,15.64,1.48,19.22c.98,3.58,2.22,6.04,3.72,7.39,1.49,1.35,3.21,2.14,5.13,2.4,1.93,.25,3.66-.11,5.17-1.07,1.49-.96,2.68-2.88,3.5-5.78,1.1-3.71,1.66-10.18,1.66-19.43s-.5-15.61-1.48-19.19c-.98-3.58-2.22-6.06-3.71-7.41-1.5-1.37-3.21-2.17-5.14-2.43h0Zm65.65-3.81c8.18,1.08,14.58,4.65,19.2,10.7,5.49,7.15,8.25,18.19,8.25,33.08s-2.77,25.21-8.3,30.98c-4.58,4.76-10.96,6.6-19.14,5.52-8.23-1.09-14.86-4.91-19.89-11.45-5.04-6.54-7.56-17.36-7.56-32.44s2.78-25.1,8.31-30.86c4.58-4.76,10.96-6.6,19.14-5.52h0Zm0,12.49c-1.93-.26-3.66,.1-5.16,1.07-1.51,.95-2.69,2.88-3.52,5.77-1.1,3.74-1.65,10.24-1.65,19.46s.49,15.63,1.48,19.21c.98,3.57,2.22,6.04,3.71,7.39,1.5,1.35,3.21,2.14,5.14,2.4,1.93,.26,3.66-.1,5.17-1.07,1.49-.95,2.68-2.88,3.5-5.77,1.1-3.71,1.65-10.19,1.65-19.42s-.49-15.62-1.47-19.2c-.98-3.58-2.22-6.06-3.72-7.41-1.5-1.37-3.21-2.18-5.13-2.43h0Zm79.63,76.89l-16.17-2.13v-56.77c-5.9,4.37-12.87,7.26-20.9,8.66v-13.68c4.23-.72,8.81-2.54,13.75-5.48,4.96-2.92,8.34-6.66,10.19-11.17l13.12,1.73v78.85h0Zm59.14,7.82l-16.17-2.14v-56.76c-5.9,4.36-12.87,7.26-20.9,8.66v-13.69c4.23-.72,8.82-2.54,13.76-5.48,4.96-2.92,8.34-6.66,10.19-11.18l13.12,1.73v78.85h0Zm51.66-72.02c8.18,1.08,14.58,4.64,19.2,10.69,5.49,7.15,8.24,18.19,8.24,33.09s-2.78,25.21-8.31,30.97c-4.58,4.76-10.96,6.6-19.14,5.52-8.23-1.09-14.85-4.9-19.89-11.44-5.04-6.54-7.56-17.37-7.56-32.45s2.78-25.1,8.31-30.86c4.58-4.76,10.96-6.6,19.14-5.52h0Zm0,12.48c-1.93-.25-3.66,.1-5.15,1.07-1.52,.95-2.7,2.88-3.52,5.78-1.1,3.74-1.66,10.24-1.66,19.45s.5,15.64,1.48,19.21c.98,3.58,2.22,6.04,3.72,7.39,1.5,1.34,3.2,2.14,5.13,2.4,1.93,.25,3.66-.11,5.17-1.07,1.5-.95,2.68-2.88,3.5-5.78,1.1-3.71,1.66-10.18,1.66-19.42s-.5-15.61-1.48-19.19c-.98-3.58-2.22-6.06-3.71-7.41-1.5-1.37-3.21-2.17-5.14-2.43h0Zm79.64,76.9l-16.17-2.14v-56.77c-5.9,4.37-12.87,7.26-20.89,8.67v-13.69c4.22-.72,8.81-2.54,13.75-5.48,4.96-2.93,8.34-6.66,10.2-11.18l13.12,1.73v78.85h0Zm51.66-72.03c8.19,1.09,14.58,4.65,19.2,10.7,5.49,7.15,8.24,18.19,8.24,33.09s-2.78,25.21-8.3,30.97c-4.59,4.76-10.96,6.6-19.15,5.52-8.22-1.09-14.86-4.9-19.89-11.44-5.03-6.54-7.55-17.37-7.55-32.45s2.78-25.1,8.3-30.86c4.59-4.75,10.96-6.59,19.14-5.52h0Zm0,12.49c-1.92-.25-3.66,.1-5.16,1.07-1.51,.95-2.69,2.88-3.52,5.78-1.1,3.74-1.65,10.24-1.65,19.45s.49,15.64,1.48,19.21c.99,3.58,2.22,6.04,3.72,7.39,1.49,1.34,3.21,2.14,5.13,2.39,1.93,.26,3.66-.1,5.18-1.06,1.49-.95,2.68-2.88,3.5-5.78,1.1-3.71,1.65-10.19,1.65-19.42s-.49-15.62-1.47-19.2c-.99-3.58-2.23-6.06-3.72-7.41-1.49-1.37-3.21-2.17-5.13-2.43h0Zm65.65-3.81c8.19,1.08,14.58,4.65,19.21,10.7,5.49,7.15,8.24,18.19,8.24,33.08s-2.78,25.21-8.3,30.98c-4.59,4.76-10.96,6.6-19.15,5.52-8.22-1.09-14.85-4.9-19.89-11.44-5.03-6.54-7.55-17.38-7.55-32.45s2.78-25.1,8.31-30.86c4.58-4.76,10.95-6.6,19.14-5.52h0Zm0,12.49c-1.92-.26-3.66,.1-5.15,1.07-1.52,.95-2.7,2.88-3.52,5.77-1.1,3.75-1.65,10.25-1.65,19.46s.49,15.64,1.47,19.21c.99,3.58,2.23,6.04,3.72,7.39,1.49,1.34,3.21,2.14,5.13,2.39,1.93,.26,3.66-.1,5.17-1.06,1.5-.95,2.68-2.88,3.51-5.78,1.1-3.71,1.66-10.18,1.66-19.43s-.5-15.61-1.48-19.19c-.98-3.58-2.22-6.06-3.71-7.41-1.49-1.37-3.21-2.17-5.14-2.43h0Zm79.65,76.89l-16.18-2.14v-56.76c-5.9,4.37-12.87,7.26-20.89,8.67v-13.69c4.23-.72,8.82-2.54,13.75-5.48,4.96-2.92,8.34-6.66,10.2-11.17l13.12,1.73v78.85Z" style="fill:#fff; fill-rule:evenodd;"/><path d="M157.53,1321.02l973.66,163.68c36.36,6.11,61.67-2.41,80.09-12.71l583.51-326.45c16.61-9.3,11.45-25.93-8.32-28.58l-1053.57-141.05c-11.6-1.56-30.63-3.21-48.55,7.23L147.93,1295.7c-10.1,5.89-7.79,22.39,9.6,25.32Z" style="fill:#d7cce5; fill-rule:evenodd;"/><path d="M456.14,1190.86l801.4,117.22c29.15,4.26,49.08-2.29,63.99-10.16l267.83-141.31c13.46-7.1,9.15-20.73-6.64-22.84l-841.87-112.7c-9.27-1.24-24.38-2.4-38.79,5.78l-253.6,143.79c-8.13,4.6-6.28,18.19,7.68,20.22Z" style="fill:#9588c0; fill-rule:evenodd;"/><path d="M1131.19,1484.69l-973.66-163.68c-12.46-2.1-17.18-11.16-15.14-18.29-4.71,2.5,.21,46.07,17.6,48.99l973.66,163.68c36.36,6.11,61.74-2.29,80.09-12.71l574.88-326.46c11.09-6.3,16.38-28.03,15.86-42-.86,4.06-4,8.11-9.7,11.3l-583.51,326.45c-18.42,10.3-43.72,18.82-80.09,12.71Z" style="fill:#2b2870; fill-rule:evenodd;"/></svg>