<?xml version="1.0" encoding="UTF-8"?><svg id="a" xmlns="http://www.w3.org/2000/svg" viewBox="0 0 1698.95 1219.87"><path d="M676.93,0c-216.99,0-219.88,195.63-376.53,284.4C93.08,401.91,18.89,440,40.66,641.02c18.03,166.6,186.03,482.28,690.21,482.28s934.39-196.36,784.27-549.44C1365.01,220.79,1181.11,0,676.93,0h0Zm0,0" style="fill:#e9eef7; fill-rule:evenodd;"/><path d="M248.97,172.65h900.39c43.54,0,80.5,35.72,79.2,79.2l-16.44,542.5c-1.33,43.48-35.72,79.2-79.2,79.2H265.42c-43.26,0-77.87-35.65-79.2-79.2l-16.45-542.5c-1.3-43.54,35.65-79.2,79.2-79.2h0Zm0,43.26h900.39c19.74,0,36.51,16.23,35.94,35.94l-16.44,542.46c-.58,19.43-16.52,35.97-35.95,35.97H265.42c-19.43,0-35.33-16.19-35.94-35.97l-16.45-542.46c-.57-19.74,16.19-35.94,35.94-35.94h0Zm0,0" style="fill:#becce7; fill-rule:evenodd;"/><rect x="611.55" y="873.54" width="177.09" height="109.98" style="fill:#aabcdd;"/><path d="M788.64,983.51h95.27c4.79,0,7.54,4.09,8.68,8.65l10.55,42.34c1.14,4.59-3.96,8.68-8.65,8.68H505.73c-4.72,0-9.82-4.06-8.65-8.68l10.55-42.34c1.14-4.63,3.9-8.65,8.68-8.65h272.32Zm0,0" style="fill:#becce7; fill-rule:evenodd;"/><path d="M1185.29,251.85c0-17.3-12.39-31.82-28.71-35.18l-.89-.19-.86-.13v-.03l-.88-.1-.9-.13-.92-.06-.88-.06h-.04l-1.84-.06H249.03l-1.84,.06-.92,.06-.89,.06-.89,.13-.89,.1c-17.21,2.66-30.49,17.62-30.49,35.53l16.45,542.46c.6,19.77,16.51,35.97,35.94,35.97h867.5c19.39,0,35.33-16.54,35.93-35.97l16.35-542.46Zm0,0" style="fill:#cfdaee; fill-rule:evenodd;"/><path d="M313.11,37.3h772.1c23.01,0,41.86,18.82,41.86,41.86V693.22c0,23.01-18.86,41.83-41.86,41.83H313.11c-23.04,0-41.86-18.82-41.86-41.83V79.17c0-23.04,18.82-41.86,41.86-41.86h0Zm0,0" style="fill:#fff; fill-rule:evenodd;"/><path d="M1085.21,37.3H313.11c-23.04,0-41.86,18.82-41.86,41.86v22.09h855.83v-22.09c0-23.04-18.86-41.86-41.86-41.86h0Zm0,0" style="fill:#becce7; fill-rule:evenodd;"/><path d="M331.68,54.73c8.98,0,16.26,7.29,16.26,16.29s-7.28,16.29-16.26,16.29-16.29-7.29-16.29-16.29,7.3-16.29,16.29-16.29h0Zm141.85,0c9,0,16.29,7.29,16.29,16.29s-7.29,16.29-16.29,16.29-16.29-7.29-16.29-16.29,7.29-16.29,16.29-16.29h0Zm-70.93,0c8.98,0,16.26,7.29,16.26,16.29s-7.28,16.29-16.26,16.29-16.29-7.29-16.29-16.29,7.29-16.29,16.29-16.29h0Zm0,0" style="fill:#fff; fill-rule:evenodd;"/><rect x="327.5" y="150.63" width="360.17" height="30.8" style="fill:#cfdaee;"/><rect x="329.53" y="253.25" width="726.53" height="188.82" style="fill:#cfdaee;"/><path d="M360.33,280.94h664.95v23.61H360.33v-23.61Zm0,92.89h293.46v23.58H360.33v-23.58Zm0-47.73h293.46v23.61H360.33v-23.61Zm0,0" style="fill:#fff; fill-rule:evenodd;"/><path d="M332.38,514.13h725.48v23.61H332.38v-23.61Zm0,92.86H960.95v23.61H332.38v-23.61Zm0-47.7h447.07v23.61H332.38v-23.61Zm0,0" style="fill:#cfdaee; fill-rule:evenodd;"/><path d="M934.84,1128.47c-422,0-764.11,20.44-764.11,45.7s342.11,45.7,764.11,45.7,764.11-20.47,764.11-45.7-342.11-45.7-764.11-45.7h0Zm0,0" style="fill:#cfdaee; fill-rule:evenodd;"/><path d="M376.84,553.36c-18.83-22.37-52.54-25.26-74.89-6.43l-4.21,3.55L53.63,728.75c-32.9,23.99-35.18,73.18-8.98,104.33,26.24,31.15,75.05,37.24,104.36,8.94l221.43-213.73c22.34-18.86,25.23-52.54,6.4-74.92h0Zm0,0" style="fill:#8ca3ca; fill-rule:evenodd;"/><path d="M459.46,840.55c-67.79,0-123.25,55.46-123.25,123.25v146.95h246.5v-146.95c0-67.79-55.47-123.25-123.26-123.25h0Zm0,0" style="fill:#8ca3ca; fill-rule:evenodd;"/><path d="M532.1,296.76l-78.75,14.83,5.89,31.31,78.75-14.86-5.9-31.28Zm0,0" style="fill:#8ca3ca; fill-rule:evenodd;"/><path d="M459.24,342.87l-5.89-31.28c-.92-4.82-5.58-8.02-10.43-7.1l-198.07,37.36c-4.82,.89-8.01,5.58-7.1,10.39l5.89,31.31c.89,4.82,5.58,8.02,10.43,7.1l198.07-37.36c4.82-.89,8.02-5.58,7.1-10.43h0Zm0,0" style="fill:#8ca3ca; fill-rule:evenodd;"/><path d="M40.25,755.27c-16.32,34.13-1.71,75.36,32.39,91.65l6.4,3.07,340.24,192.43c45.83,25.93,104.96,2.38,127.65-45.16,22.69-47.51,3.83-108.23-45.13-127.65l-369.9-146.73c-34.13-16.29-75.36-1.71-91.65,32.39h0Zm0,0" style="fill:#aabcdd; fill-rule:evenodd;"/><path d="M63.22,766.27c-10.2,21.42-1.13,47.06,20.28,57.3,21.39,10.21,47.03,1.14,57.27-20.28,10.24-21.39,1.17-47.03-20.25-57.27-21.42-10.24-47.06-1.17-57.3,20.25h0Zm0,0" style="fill:#cfdaee; fill-rule:evenodd;"/><path d="M432.6,290.83c-24.12-7.83-50.3,5.51-58.13,29.66l-1.46,4.53-98.02,243.36c-13.22,32.8,7.67,70.07,41.29,80.97,33.62,10.9,72.35-7,80.97-41.29l65-259.11c7.83-24.15-5.51-50.29-29.66-58.12h0Zm0,0" style="fill:#aabcdd; fill-rule:evenodd;"/><path d="M348.64,549.62c-20.92-6.78-43.35,4.66-50.1,25.54-6.78,20.92,4.66,43.35,25.54,50.14,20.88,6.78,43.32-4.66,50.1-25.57,6.78-20.88-4.66-43.32-25.54-50.1h0Zm0,0" style="fill:#cfdaee; fill-rule:evenodd;"/><path d="M427.33,307.12c-15.15-4.94-31.44,3.36-36.35,18.51-4.91,15.15,3.4,31.44,18.54,36.35,15.15,4.91,31.41-3.39,36.32-18.54,4.94-15.15-3.36-31.41-18.51-36.32h0Zm0,0" style="fill:#cfdaee; fill-rule:evenodd;"/><rect x="265.16" y="1110.75" width="379.25" height="73.5" style="fill:#aabcdd;"/><path d="M459.46,896.27c-32.71,0-59.26,26.53-59.26,59.23s26.56,59.26,59.26,59.26,59.26-26.52,59.26-59.26-26.53-59.23-59.26-59.23h0Zm0,0" style="fill:#cfdaee; fill-rule:evenodd;"/><path d="M483.45,306.11l70.13-90.73,101.82,33.24-1.68,6.02-88.93-12.14-32.71,54.26-48.65,9.35Zm0,0" style="fill:#aabcdd; fill-rule:evenodd;"/><path d="M489.32,337.2l98.59,58.6,82.46-68.33-3.77-4.98-78.25,43.96-50.36-38.41-48.68,9.16Zm0,0" style="fill:#aabcdd; fill-rule:evenodd;"/><path d="M1561.22,798.53l-325.78,13.28c-15.63,.63-28.34,13.94-28.21,29.6l2.41,325.69c.13,15.62,13.03,28.14,28.65,27.29l325.73-18.19c15.65-.86,28.36-13.94,28.23-29.57l-2.38-320.81c-.13-15.66-13.02-27.92-28.65-27.29h0Zm0,0" style="fill:#f99746; fill-rule:evenodd;"/><path d="M1561.22,798.53l-453.21-8.4-77.02,3.14c-15.62,.63-28.33,14.01-28.21,29.6l2.22,298.82c.1,15.59,13.56,23.86,28.66,27.29l195.27,44.21c-11.12-3.45-19.24-13.69-19.3-26.08l-2.44-325.69c-.09-15.66,12.58-28.97,28.25-29.6l73.71-3.01,252.07-10.27Zm0,0" style="fill:#bc503a; fill-rule:evenodd;"/><path d="M846.32,1169.76c44.53-.7,77.81-1.24,93.17-6.12,16.58-5.23,13.15-15.34,3.62-31.5-41.96,19.3-30.77-3.99-50.39-1.01-13.79,11.09-34.19,18.54-61.26,22.31-11.43,8.43-6.77,15.94,14.86,16.32h0Zm0,0" style="fill:#22407a; fill-rule:evenodd;"/><path d="M903.52,491.57h275.02c5.42,0,11,4.44,12.42,9.86l48.93,186.31c1.42,5.42-1.84,9.85-7.26,9.85h-275.02c-5.42,0-11.03-4.44-12.45-9.85l-48.93-186.31c-1.43-5.42,1.85-9.86,7.29-9.86h0Zm0,0" style="fill:#e5bd9e; fill-rule:evenodd;"/><path d="M1196.86,496.92l33.21,126.51c39.9-19.46,87.98-50.71,138.37-90.8,1.36-18.03,3.04-32.42,5.04-43.13-4.06-8.02-8.46-16.61-13.3-25.73,46.51-.29,74.88-10.3,85.12-30.01-12.45-36.41-29.85-73.59-52.2-111.52-15.62-23.1-46.24-36.7-91.81-40.76-5.31,61.13-99.1,58-77.04,5.36-34.04,9.13-62.84,26.02-86.46,50.64-20.34,50.04-32.74,85-37.17,104.8,22.06,15.46,42.94,25.45,62.69,30.01,.89,4.34,1.62,9.25,2.13,14.77h18.97c5.42,0,11.03,4.44,12.46,9.86h0Zm0,0" style="fill:#699dee; fill-rule:evenodd;"/><path d="M1230.07,623.43l-33.21-126.51c-1.43-5.42-7.04-9.86-12.46-9.86h-275.02c-5.42,0-15.08,7-13.47,12.39-.25-4.5,2.85-7.89,7.61-7.89h275.02c5.42,0,11,4.44,12.42,9.86l48.93,186.31c.86,3.26,0,6.15-1.93,7.95,4.53-2.92,8.84-8.59,7.83-12.42l-15.72-59.83Zm0,0" style="fill:#a0795f; fill-rule:evenodd;"/><path d="M1232.64,697.59h-275.02c-1.01,0-2.03-.16-3.01-.44,5.45,14.2,20.35,12.11,26.15,12.04h326.07c17.65-.73,17.21-13.12,17.43-25.07h-78.34c.25,3.77-3.76,8.84-7.95,11.57-1.33,1.21-3.14,1.9-5.32,1.9h0Zm0,0" style="fill:#a0795f; fill-rule:evenodd;"/><path d="M1194.13,568.16c-29.47,14.93-64.33,19.52-100.21,21.36,.41,1.27,.73,2.6,.92,3.93,2.41,15.12-8.24,27.98-23.64,27.98-14.52,0-27.64-11.47-29.92-25.73-.21-1.55-.35-3.07-.32-4.6-37.24,1.01-73.21,3.07-102.97,14.7l20.47,77.9h266.02l-30.36-115.55Zm0,0" style="fill:#a0795f; fill-rule:evenodd;"/><path d="M1065.25,576.72c9.86,0,19.11,7.99,20.66,17.84,1.59,9.86-5.17,17.87-15.02,17.87s-19.11-8.02-20.66-17.87c-1.55-9.86,5.17-17.84,15.02-17.84h0Zm0,0" style="fill:#a0795f; fill-rule:evenodd;"/><path d="M1381.68,652.21c-5.48-16.74-9.44-34.1-11.82-52.07-37.05,14.36-79.39,28.17-132.95,49.34l7.23,27.54c80.92,2.63,126.77-5.64,137.54-24.81h0Zm0,0" style="fill:#699dee; fill-rule:evenodd;"/><path d="M1236.92,649.48c53.56-21.17,95.9-34.99,132.95-49.34,32.64-12.65,61.13-25.67,89.56-44.46-1.2-36.25-6.58-71.37-21.61-112.03-13.78,13.18-39.65,19.9-77.64,20.12,10.99,20.79,19.96,38.7,26.87,53.75-57.11,47.38-112.19,84.05-156.97,105.91l6.84,26.05Zm0,0" style="fill:#ffb27d; fill-rule:evenodd;"/><path d="M1107.71,447.1c-4.12,14.42-7.92,27.73-11.44,39.96h69.16c-.51-5.51-1.21-10.43-2.13-14.77-17.59-4.06-36.13-12.46-55.59-25.19h0Zm0,0" style="fill:#ffb27d; fill-rule:evenodd;"/><path d="M939.78,1117.47c40.91-148.35,55.55-252.58,43.89-312.63,23.27,3.29,46.62,4.34,70.07,3.11-3.58-16.04-7.16-32.14-10.81-48.43,.41-22.12,11.73-38.54,51.82-50.33h-113.99c-3.87,.06-11.79,.98-18.25-2.6-36.73,10.49-54.63,27.79-60.78,48.96-4.47,58.19,7.61,124.48-2.69,362.36,12.87,1.33,26.44,1.2,40.75-.44h0Zm0,0" style="fill:#163560; fill-rule:evenodd;"/><path d="M982.53,709.19h-1.77c-3.87,.06-11.79,.98-18.25-2.6-36.73,10.49-54.63,27.79-60.78,48.96-4.47,58.19,7.61,124.48-2.69,362.36,7.67,.79,15.6,1.08,23.8,.82,21.14-82.71,71.4-285.54,14.77-372.94,13.28-14.1,28.27-26.3,44.94-36.61h0Zm0,0" style="fill:#2b478b; fill-rule:evenodd;"/><path d="M1301.19,282.12c-7.26-9.29-13.68-17.91-15.56-24.02,1.46-4.18,3.01-9.48,4.59-15.85,27.33-18.57,31.03-32.26,11.19-41.17-3.99,2.25-8.94,9.16-14.86,20.73-4.75-.19-8.33-2.63-10.78-7.29,5.65-19.49,9.29-35.37,11.01-47.54-13.45-20-44.91-22.85-86.56-17.46-1.93,11.09-3.52,22.85-4.75,35.24-7.38,6.78-6.43,31.94,.39,60.91-3.39,16.48,6.78,25.48,30.51,27,.35,5.83-1.96,13.31-2.12,14.17v.03s-.06,.1-.1,.19c-21.64,52.23,71.16,55.43,77.04-4.94h0Zm0,0" style="fill:#ffb27d; fill-rule:evenodd;"/><path d="M1200.22,149.52c41.65-5.39,73.11-2.54,86.56,17.46-1.69,12.17-5.36,28.05-11.01,47.54,2.44,4.66,6.02,7.1,10.78,7.29,5.93-11.57,10.87-18.48,14.86-20.73,19.85,8.91,16.1,22.6-11.19,41.17-1.58,6.37-3.14,11.66-4.59,15.85,24.54-5.48,45.1-27.44,47.98-36.95,28.65-56.47-3.3-80.31-20.4-89.02-7.55-55.9-88.74-6.5-129.43-33.43-16.16,22.31,3.83,50.33,16.45,50.83h0Zm0,0" style="fill:#22407a; fill-rule:evenodd;"/><path d="M1257.23,271.94c-11.5,.92-21.77,1.17-30.87,.73,.22,4.02-.79,8.81-1.49,11.69,14.7-.38,25.51-4.53,32.36-12.42h0Zm0,0" style="fill:#f08261; fill-rule:evenodd;"/><path d="M1342.27,796.41c47.97-17.21,54.5-65.03,33.4-137.22-17.33,14.17-61.2,20.12-131.52,17.84l1.65,6.24c.06,.29,.13,.57,.13,.85h78.34c-.22,11.95,.22,24.34-17.43,25.07h-212.08c-40.09,11.79-51.4,28.21-51.82,50.33,25.38,113.42,47.95,217.4,78.72,361.09,10.36,5.83,24.57,5.39,42.56-1.33,14.43-139.35,10.46-240.7-11.88-304.02,59.36,.22,122.65-7.86,189.93-18.86h0Zm0,0" style="fill:#2b478b; fill-rule:evenodd;"/><path d="M1342.27,796.41c47.97-17.21,54.5-65,33.4-137.22-3.68,3.01-8.59,5.64-14.67,7.92,17.49,74.22-1.51,114.88-57.9,118.78-65.79,9.76-120.33,14.45-163.62,14.07,19.08,123.72,22.34,231.6,9.8,323.63,4.66-.89,9.63-2.34,14.95-4.31,14.43-139.35,10.46-240.7-11.88-304.02,59.36,.22,122.65-7.86,189.93-18.86h0Zm0,0" style="fill:#163560; fill-rule:evenodd;"/><path d="M903.33,1118.3c-1.21,4.47-3.14,8.68-5.83,12.64,12.83,1.2,7.89,17.71,42.56,2.57-1.46-4.37-2.28-9.63-2.47-15.78-11.95,1.24-23.36,1.43-34.26,.57h0Zm0,0" style="fill:#fcb88d; fill-rule:evenodd;"/><path d="M1121.75,1195.81c23.64-9.76,27.19-25.64,40.19-31.69,13.09-6.12,14.58-16.99,1.77-28.81-9.44,7.54-21.17,16.83-27.38,11.88-4.15-3.27-18.19-3.04-20.98,1.74-12.26,28.46-29.28,19.46-32.67,32.39-.38,17.27,24.21,20.6,39.08,14.48h0Zm0,0" style="fill:#22407a; fill-rule:evenodd;"/><path d="M1125.78,1122.54c.22,7.57-.82,15.15-3.11,22.79,5.07-.79,11.16-.09,13.66,1.9,5.77,4.53,16.27-3.11,25.29-10.24-1.49-4.09-2.47-9.35-2.98-15.82-13.18,4.15-24.15,4.59-32.86,1.36h0Zm0,0" style="fill:#ffb27d; fill-rule:evenodd;"/><path d="M1360.17,463.77c-6.08-11.03-12.55-25.89-19.37-44.59,3.64,21.74,3.46,37.43,9.38,55.3-4.79,25.29-6.75,51.09-6.27,77.1,8.11-6.05,16.28-12.39,24.52-18.95,1.36-18.03,3.04-32.42,5.04-43.13-4.06-8.02-8.46-16.61-13.3-25.73h0Zm-211.1,4.37c4.82,1.68,9.57,3.07,14.23,4.15-1.78-27.7-2.91-50.55-3.49-68.64-5.32,26.68-8.9,48.2-10.74,64.49h0Zm232.62,184.07c-5.48-16.74-9.41-34.1-11.82-52.07-6.88,2.66-13.91,5.29-21.17,7.95,2.92,19.68,7.08,39.39,12.36,58.98,10.36-3.87,17.24-8.81,20.63-14.86h0Zm0,0" style="fill:#4a75cb; fill-rule:evenodd;"/><path d="M844.51,259.58c-14.86,0-26.91-12.04-26.91-26.87s12.04-26.91,26.91-26.91,26.87,12.04,26.87,26.91-12.04,26.87-26.87,26.87h0Zm76.31-12.58v-27.98h-17.43c-1.46-6.37-3.93-12.33-7.23-17.75l12.42-12.42-19.81-19.78-12.3,12.3c-5.39-3.36-11.35-5.9-17.68-7.42v-17.56h-27.99v17.4c-6.37,1.49-12.33,3.93-17.75,7.23l-12.42-12.39-19.78,19.78,12.3,12.33c-3.36,5.39-5.89,11.31-7.42,17.65h-17.56v27.98h17.4c1.49,6.37,3.93,12.36,7.26,17.78l-12.42,12.39,19.78,19.81,12.33-12.33c5.39,3.36,11.31,5.89,17.65,7.45v17.56h27.98v-17.43c6.37-1.46,12.36-3.93,17.78-7.23l12.39,12.42,19.81-19.81-12.33-12.3c3.36-5.39,5.9-11.35,7.45-17.68h17.56Zm0,0" style="fill:#aabcdd; fill-rule:evenodd;"/><path d="M54.16,584.01c-10.55,0-19.07-8.52-19.07-19.08s8.52-19.08,19.07-19.08,19.08,8.56,19.08,19.08-8.56,19.08-19.08,19.08h0Zm54.13-8.94v-19.84h-12.35c-1.05-4.5-2.8-8.75-5.13-12.61l8.8-8.81-14.04-14.01-8.71,8.72c-3.83-2.38-8.05-4.18-12.55-5.26v-12.45h-19.87v12.36c-4.5,1.01-8.75,2.76-12.58,5.1l-8.81-8.78-14.04,14.04,8.75,8.72c-2.41,3.83-4.18,8.05-5.29,12.55H0v19.84H12.37c1.05,4.53,2.78,8.78,5.13,12.61l-8.82,8.81,14.04,14.04,8.75-8.75c3.8,2.38,8.02,4.18,12.52,5.29v12.46h19.87v-12.36c4.5-1.05,8.75-2.79,12.61-5.13l8.78,8.81,14.04-14.04-8.72-8.75c2.38-3.83,4.18-8.05,5.26-12.55h12.46Zm0,0" style="fill:#aabcdd; fill-rule:evenodd;"/><path d="M973.09,147.21c-2.07,.6-4.03,1.46-5.87,2.5-1.87,1.08-3.61,2.41-5.17,3.9-.29,.29-.73,.32-1.08,.13l-6.97-4.02-.06-.03c-.38-.22-.86-.25-1.27-.13-.44,.1-.82,.38-1.05,.79l-.06,.03-4.88,8.49c-.25,.41-.31,.89-.19,1.3,.13,.44,.38,.82,.79,1.08l.06,.03,6.91,3.96c.38,.22,.54,.63,.44,1.01-.25,1.05-.44,2.09-.57,3.17-.13,1.08-.19,2.16-.19,3.23s.06,2.19,.19,3.23c.13,1.08,.32,2.12,.57,3.17,.1,.41-.09,.86-.47,1.05l-6.91,3.99c-.41,.22-.7,.6-.82,1.05-.1,.41-.06,.89,.19,1.3l4.91,8.52c.25,.41,.63,.7,1.08,.82,.41,.09,.89,.06,1.3-.19h.06l6.91-4.02c.36-.19,.79-.13,1.08,.16,1.55,1.49,3.29,2.79,5.16,3.87,1.84,1.08,3.83,1.93,5.93,2.54,.38,.1,.66,.48,.66,.89v8.02c0,.48,.19,.89,.51,1.2,.32,.32,.73,.51,1.2,.51h9.86c.48,0,.92-.19,1.24-.51,.28-.32,.5-.73,.5-1.2v-8.02c0-.44,.28-.82,.7-.92,2.06-.6,4.05-1.43,5.86-2.5,1.87-1.08,3.61-2.38,5.17-3.87,.33-.32,.79-.35,1.14-.13l6.91,3.99c.41,.25,.89,.29,1.33,.19,.41-.13,.79-.41,1.04-.82l.07-.03,4.87-8.49c.22-.41,.29-.89,.17-1.3-.1-.44-.38-.82-.8-1.05l-6.94-4.02c-.38-.22-.54-.63-.44-1.01,.25-1.05,.44-2.09,.57-3.17,.13-1.05,.22-2.12,.22-3.23s-.1-2.19-.22-3.23c-.13-1.08-.32-2.12-.57-3.17-.1-.41,.1-.86,.48-1.05l6.91-3.99c.42-.22,.7-.6,.8-1.05,.12-.41,.09-.89-.17-1.3l-.06-.06-4.88-8.46c-.25-.41-.63-.7-1.04-.82-.44-.1-.92-.06-1.33,.19l-6.97,4.02c-.35,.19-.83,.13-1.11-.16-1.52-1.49-3.26-2.79-5.13-3.87-1.84-1.08-3.8-1.93-5.89-2.5-.41-.13-.67-.51-.67-.89v-8.05c0-.48-.22-.89-.5-1.2-.33-.32-.77-.51-1.24-.51h-9.86c-.48,0-.89,.19-1.2,.51-.32,.32-.51,.73-.51,1.2v8.05c0,.41-.31,.79-.73,.89h.04Zm-3.24,14.86c2.72-2.73,6.46-4.41,10.62-4.41s7.86,1.68,10.59,4.41c2.69,2.69,4.37,6.46,4.37,10.58s-1.69,7.89-4.37,10.62c-2.73,2.69-6.46,4.37-10.59,4.37s-7.89-1.68-10.62-4.37c-2.7-2.73-4.37-6.46-4.37-10.62s1.68-7.89,4.37-10.58h0Zm0,0" style="fill:#cbd5eb; fill-rule:evenodd;"/></svg>