<?xml version="1.0" encoding="UTF-8"?><svg id="a" xmlns="http://www.w3.org/2000/svg" viewBox="0 0 1966.74 1468.1"><path d="M1683.89,190.28c-17.2,0-31.14-13.94-31.14-31.14s13.94-31.14,31.14-31.14,31.14,13.94,31.14,31.14-13.94,31.14-31.14,31.14h0ZM361.77,936.81H195.41c-89.54,0-162.79,73.25-162.79,162.79h0c0,89.54,73.25,162.79,162.79,162.79H1602.09c144.99,0,263.61-118.62,263.61-263.6h0c0-144.99-118.62-263.61-263.61-263.62h0c-61.3,0-111.45-50.16-111.45-111.46h0c0-61.3,50.15-111.46,111.45-111.46h134.15c63.73,0,115.88-52.14,115.88-115.88h0c0-63.73-52.14-115.88-115.88-115.88h-169.63c-24.82,0-45.11-20.3-45.11-45.11h0c0-24.81,20.3-45.12,45.11-45.12h29.9c17.12,0,31.14-14.01,31.14-31.14h0c0-17.12-14.02-31.14-31.14-31.14h-196.21c-41.33,0-45.92,48.82-150.31,48.82h-242.03c-22.34,0-40.63,18.28-40.63,40.63h0c0,22.34,18.28,40.63,40.63,40.63h39.02c32.37,0,58.87,26.49,58.87,58.87h0c0,32.37-26.5,58.87-58.87,58.87h-117.43c-158.56,0-180.95,41.44-208.73,123.86-27.77,82.41-172,89.06-172,89.06h-197.21c-48.79,0-88.71,39.92-88.71,88.71h0c0,48.79,39.92,88.72,88.71,88.72h10.15c46.93,0,85.33,38.39,85.33,85.33h0c0,46.93-38.4,85.33-85.33,85.33h0Z" style="fill:#e0e8f5; fill-rule:evenodd;"/><path d="M318.02,1317.54c175.52,0,317.82,15.6,317.82,34.84s-142.29,34.84-317.82,34.84S.21,1371.62,.21,1352.38s142.29-34.84,317.82-34.84Z" style="fill:#c4d1eb; fill-rule:evenodd;"/><ellipse cx="1814.11" cy="1320.45" rx="137.86" ry="19.96" style="fill:#c4d1eb;"/><path d="M1125.82,812.49c29.99,27.38,16.95,54.78-5.21,105.63-22.16,50.86-26.08,238.66-26.08,238.66l18.25-2.6s-2.62-193.02,22.16-245.18c24.78-52.17,35.23-78.25,57.4-61.29,22.16,16.95-66.52-35.21-66.52-35.21Z" style="fill:#b0c2e4; fill-rule:evenodd;"/><path d="M1109.36,777.03c3.63-16.24,25.27-33.79,54.2-48.69-4.31,23.94-18.08,63.08-3.83,71.12,19.25,10.82,1.87-43.83,9.3-73.86,27.17-13.27,59.86-24.11,89.94-29.5-.06,.11-.08,.22-.11,.33-16.95,43.04-39.12,59.99-29.99,66.51,6.85,4.91,29.21-44.8,58.78-70.28,22.16-1.18,40.93,1.82,52.01,10.61,17.15,13.58,28.67,25.62,11.43,66.97-9.85,7.04-22.63,12.08-37.44,13.57-39.12,3.92-57.4,5.21-29.99,18.26,13.41,6.38,35.86-.36,54.11-4.47-5.91,10.89-13.18,23.22-22.02,37.27-5.61,8.91-11.77,16.64-18.33,23.34-12.6,2.41-23.6,2.43-29.41-.06-18.25-7.82-65.2-32.6-76.93-22.17-11.49,10.21,86.95,16.68,80.13,42.63-47.72,27.49-102.33,14.41-111.96-10.83-12.98-33.89-60.82-41.88-49.85-90.73Z" style="fill:#c4d1eb; fill-rule:evenodd;"/><path d="M1208,962.47c-52.18-39.13-105.63-2.62-133.04,39.12-27.37,41.73-7.83,135.62-7.83,135.62,0,0,10.45,0,10.45-3.91s-28.7-110.84,39.11-159.11c42.43-30.18,73.02-15.64,76.93-1.3,3.92,14.34-16.95,40.43-16.95,40.43l31.32-50.86Z" style="fill:#b0c2e4; fill-rule:evenodd;"/><path d="M1088.01,882.04c52.18,0,69.13,80.86,54.77,127.8-14.33,46.95-33.91,134.32-33.91,134.32l-13.04-13.03s49.56-122.59,37.82-177.37c-11.75-54.77-40.41-63.9-45.64-63.9s0-7.82,0-7.82Z" style="fill:#b0c2e4; fill-rule:evenodd;"/><path d="M1131.75,1010.22c3.69-4.86,8.2-8.88,13.73-11.55-.72,3.9-1.61,7.63-2.7,11.18-6.53,21.4-14.13,51.17-20.52,77.25-.55-3.33-1.47-8.49-2.82-16.43-.34-1.88-.57-3.91-.77-6.07,5.12-17.37,9.96-36.31,13.09-54.39Z" style="fill:#b0c2e4; fill-rule:evenodd;"/><path d="M1146.03,1010.61c99.09-41.74,46.89-99.01,134.27-61.18,6.17,2.66,13.65,9.38,21.16,18.64-7.78,2.21-17.18,3.8-27.69,2.23-26.07-3.92-16.95,16.95,26.11,22.17,8.09,.98,14.68,2.34,20.15,4.25,20.53,39.38,29.76,91.19-13.64,109.21-8.55,3.55-19.11,5.58-30.89,6.34-13.38-10.65,3.28-72.22-17.38-63.73-19.8,8.17,6.25,52.79,2.68,64.04-19.57-.36-41.25-3.55-61.91-8.68-8.2-4.59-14.48-10.75-16.38-18.83-6.53-27.39,36.5-44.34,37.82-67.82,1.18-21.57-15.8,47.48-60.73,57.64-40.67-18.99-59.89-44.76-13.56-64.27Z" style="fill:#c4d1eb; fill-rule:evenodd;"/><path d="M1075.4,936.82c10.45-22.16-16.95-27.4-15.63-10.44,1.12,15.03,1.27,51.54-14.14,61.49-26.56-2.89-62.72-13.59-90.06-29.91-.34-2.21,0-4.47,1.15-6.79,11.74-23.48,87.38-43.04,63.9-50.86-18.69-6.24-51.47,30.54-77.86,49.07-15.86-12.04-26.48-26.37-26.48-42.37,0-21.67,26.33-46.2,60.38-57.92,15.31,1.55,29.56,9.92,51.78,22.52,32.84,18.62,25.24-11.48-5.81-29.33,26.82,1.38,53.53,12.83,73.25,40.2,0,0-1.87,11.7,10.51,29.79,33.76,49.34-5.21,78.15-51.78,76.28,2.65-13,13.59-36.42,20.78-51.73Z" style="fill:#c4d1eb; fill-rule:evenodd;"/><path d="M1204.86,960.25c25.5,19.72,53.82,42.76,88.59,58.4,34.79,15.65,27.83,66.66,27.83,66.66,0,0,5.21-44.05-23.77-59.12-28.99-15.06-48.1-33.04-70.12-36.51-22.05-3.48-34.22-6.95-34.22-6.95,0,0,6.96-13.91,2.91-19.13-4.06-5.22,8.78-3.34,8.78-3.34Z" style="fill:#b0c2e4; fill-rule:evenodd;"/><path d="M1330.56,728.83c-93.31,24.93-161.7,84.63-174.48,99.12-12.75,14.49-12.75,18.54-12.75,18.54l9.87,18.55,4.63-2.33s-7.54-15.64,12.18-35.93c33.99-34.99,75.35-62.61,103.76-74.78,28.41-12.17,56.79-23.18,56.79-23.18Z" style="fill:#b0c2e4; fill-rule:evenodd;"/><path d="M1072.95,1245.39h35.66c25.36,0,45.91-20.55,45.91-45.91v-81.91h-127.48v81.91c0,25.36,20.55,45.91,45.9,45.91Z" style="fill:#9db2d9; fill-rule:evenodd;"/><rect x="1027.04" y="1132.21" width="127.47" height="8.98" style="fill:#fff;"/><rect x="1027.04" y="1148.57" width="127.47" height="5.28" style="fill:#fff;"/><path d="M323.14,738.64c-20.79,18.98-11.75,37.96,3.61,73.21,15.36,35.25,18.07,165.4,18.07,165.4l-12.65-1.8s1.82-133.77-15.36-169.92c-17.17-36.16-24.41-54.23-39.78-42.49-15.36,11.75,46.1-24.4,46.1-24.4Z" style="fill:#b0c2e4; fill-rule:evenodd;"/><path d="M334.55,714.07c-2.51-11.25-17.51-23.42-37.56-33.75,2.99,16.59,12.53,43.72,2.66,49.29-13.35,7.5-1.3-30.38-6.45-51.19-18.83-9.2-41.49-16.71-62.34-20.45,.04,.08,.06,.15,.08,.23,11.75,29.83,27.11,41.58,20.79,46.09-4.75,3.4-20.25-31.05-40.73-48.71-15.36-.82-28.37,1.26-36.05,7.35-11.89,9.41-19.87,17.76-7.92,46.41,6.82,4.88,15.67,8.38,25.95,9.41,27.11,2.72,39.77,3.62,20.78,12.66-9.3,4.43-24.85-.25-37.5-3.1,4.09,7.55,9.14,16.09,15.26,25.83,3.89,6.18,8.16,11.53,12.71,16.16,8.74,1.68,16.36,1.69,20.39-.04,12.65-5.42,45.18-22.6,53.32-15.36,7.96,7.08-60.26,11.56-55.54,29.54,33.08,19.05,70.92,9.98,77.6-7.51,9-23.49,42.15-29.02,34.55-62.88Z" style="fill:#c4d1eb; fill-rule:evenodd;"/><path d="M266.19,842.59c36.17-27.12,73.21-1.82,92.2,27.11,18.97,28.92,5.43,93.99,5.43,93.99,0,0-7.24,0-7.24-2.71s19.89-76.82-27.11-110.27c-29.41-20.91-50.61-10.84-53.32-.9-2.71,9.94,11.75,28.02,11.75,28.02l-21.7-35.25Z" style="fill:#b0c2e4; fill-rule:evenodd;"/><path d="M349.35,786.85c-36.17,0-47.92,56.04-37.96,88.57,9.94,32.54,23.5,93.09,23.5,93.09l9.04-9.04s-34.35-84.96-26.21-122.92c8.14-37.96,28.01-44.29,31.64-44.29s0-5.42,0-5.42Z" style="fill:#b0c2e4; fill-rule:evenodd;"/><path d="M319.03,875.68c-2.55-3.37-5.68-6.15-9.51-8.01,.5,2.7,1.12,5.29,1.87,7.75,4.53,14.83,9.8,35.47,14.23,53.54,.38-2.31,1.02-5.88,1.96-11.38,.24-1.3,.4-2.71,.54-4.21-3.55-12.04-6.9-25.17-9.07-37.7Z" style="fill:#b0c2e4; fill-rule:evenodd;"/><path d="M309.13,875.94c-68.68-28.92-32.49-68.61-93.06-42.4-4.27,1.84-9.46,6.5-14.66,12.92,5.39,1.53,11.91,2.63,19.19,1.54,18.07-2.72,11.75,11.75-18.09,15.37-5.6,.67-10.17,1.62-13.96,2.95-14.22,27.29-20.63,63.2,9.46,75.68,5.93,2.47,13.25,3.87,21.4,4.4,9.28-7.37-2.27-50.05,12.05-44.16,13.72,5.66-4.33,36.58-1.85,44.37,13.57-.24,28.59-2.46,42.91-6.01,5.69-3.18,10.03-7.45,11.35-13.05,4.53-18.99-25.3-30.73-26.21-47.01-.82-14.95,10.95,32.91,42.09,39.96,28.19-13.17,41.51-31.03,9.39-44.56Z" style="fill:#c4d1eb; fill-rule:evenodd;"/><path d="M358.09,824.81c-7.24-15.36,11.75-18.98,10.83-7.23-.78,10.41-.88,35.72,9.79,42.62,18.41-2,43.47-9.42,62.42-20.73,.24-1.53,0-3.11-.8-4.71-8.14-16.27-60.56-29.83-44.28-35.25,12.95-4.33,35.67,21.17,53.96,34.01,10.99-8.34,18.35-18.28,18.35-29.37,0-15.02-18.25-32.02-41.85-40.14-10.61,1.07-20.49,6.88-35.88,15.61-22.76,12.9-17.5-7.96,4.03-20.33-18.59,.96-37.11,8.9-50.77,27.86,0,0,1.3,8.11-7.28,20.64-23.4,34.21,3.61,54.17,35.89,52.88-1.84-9.01-9.42-25.24-14.41-35.86Z" style="fill:#c4d1eb; fill-rule:evenodd;"/><path d="M268.36,841.05c-17.67,13.66-37.3,29.63-61.4,40.47-24.12,10.85-19.29,46.2-19.29,46.2,0,0-3.61-30.53,16.48-40.98,20.09-10.44,33.33-22.9,48.59-25.31,15.28-2.42,23.72-4.82,23.72-4.82,0,0-4.83-9.64-2.01-13.25,2.81-3.62-6.09-2.31-6.09-2.31Z" style="fill:#b0c2e4; fill-rule:evenodd;"/><path d="M181.25,680.67c64.67,17.27,112.07,58.65,120.93,68.7,8.83,10.04,8.83,12.85,8.83,12.85l-6.84,12.85-3.21-1.61s5.23-10.84-8.44-24.9c-23.56-24.25-52.22-43.4-71.91-51.83-19.69-8.44-39.36-16.06-39.36-16.06Z" style="fill:#b0c2e4; fill-rule:evenodd;"/><path d="M359.78,1038.67h-24.72c-17.57,0-31.82-14.24-31.82-31.82v-56.77h88.35v56.77c0,17.57-14.24,31.82-31.82,31.82Z" style="fill:#9db2d9; fill-rule:evenodd;"/><rect x="303.25" y="960.23" width="88.35" height="6.22" style="fill:#fff;"/><rect x="303.25" y="971.56" width="88.35" height="3.66" style="fill:#fff;"/><path d="M1823.57,967.47c-3.82,3.35-8,4.71-12.88,3.69,4.57,3.47,10.93,.82,12.88-3.69Z" style="fill:#f48661; fill-rule:evenodd;"/><path d="M1806.34,1299.01c.73-5.17-.89-14.05-4.94-27.95,8.01,.01,14.74-3.53,22.92-3.4,2.23,13.08,5.7,34.53,5.7,34.53l.37,16.97-56.99,.43s.48,.24,17.28-10.37c1.24-.79,14.96-5.22,15.64-10.21Z" style="fill:#f9af79; fill-rule:evenodd;"/><path d="M1830.67,1323.5h-58.81c-2.18-.19-2.72-1.96-1.96-3.05,1.56-2.26,13.03-7.66,20.75-11.25,13.52,1.42,37.31-4.14,39.44-7.27,3.7,10.37,1.79,21.31,.58,21.57Z" style="fill:#0e2952; fill-rule:evenodd;"/><path d="M1877.33,1299.01c.73-5.17,1.95-11.64,.15-28.86,8.02,.02,15.63-1.49,23.82-1.37,0,13.44-.28,33.41-.28,33.41l.36,16.97-56.98,.43s.48,.24,17.27-10.37c1.25-.79,14.97-5.22,15.66-10.21Z" style="fill:#f9af79; fill-rule:evenodd;"/><path d="M1901.66,1323.5h-58.83c-2.18-.19-2.7-1.96-1.94-3.05,1.54-2.26,13.03-7.66,20.75-11.25,13.52,1.42,37.29-4.14,39.43-7.27,3.72,10.37,1.81,21.31,.6,21.57Z" style="fill:#0e2952; fill-rule:evenodd;"/><path d="M1835.93,806.93l-21.44-22.6s-22.93,12.62-49.68,24.67c-7.36-12.8-19.35-54.91-20-56.91-.65-2.02,14.05-27.3,10.77-27.93-3.29-.64-7.56,13.5-11.04,12.06-3.48-1.43-12.41-34.22-14.51-32.44-3.91,3.35,4.72,20.4,2.65,21.64-2.06,1.24-7.3-18.89-11.28-18.04-3.99,.85,6.72,18.33,5.55,20.01-1.19,1.69-12.38-14.71-14.7-10.91-1.25,2.05,10.33,14.27,7.95,15.64-2.38,1.36-12.82-6.33-14.06-3.84-1.25,2.49,9.74,5.09,12.79,11.41,3.05,6.29,8.6,8.76,10.44,20.69,1.83,11.91,6.87,75.65,19.86,80.78,11.35,4.46,86.7-34.24,86.7-34.24Z" style="fill:#f9af79; fill-rule:evenodd;"/><path d="M1822.07,928.9l17.38,9.7,35.33,54.01-63.18,148.72s7.12,22.37,9.44,33.54c2.42,11.69,8.37,112.03,8.37,112.03l-26.96,.45s-25.6-106.82-29.93-141.49c-5.27-42.11,26.8-142.37,26.8-142.37,5.98-20.46,18.86-62.54,18.86-62.54,0,0,3.15-10.27,3.89-12.06Z" style="fill:#20386f; fill-rule:evenodd;"/><path d="M1882.57,908.62s-1.8,12.7,5.39,27.2c4.38,8.83,11.95,15.78,17.38,26.59,10.26,20.5,15.83,49.58,11.98,68.28,0,0-21.21,80.99-20.37,110.59,.3,10.92,4.05,30.59,6.44,43.88,2.12,11.75,2.83,100.41,2.83,100.41l-30.11-.91-23.04-143-9.75-127.11-21.27-85.63,60.5-20.28Z" style="fill:#223f81; fill-rule:evenodd;"/><path d="M1818.83,721.99c2.66-12.56,5.4-25.17,17.89-34.22,10.11-7.33,20.96-9.42,32.47-5.25,32.63,11.83,15.08,37.73,55.58,65.32,12.57,8.57,17.35,11.56,26.37,22.99,12.64,15.99,19.54,37.45,13.2,55.12-13.14,36.52-53.84,47.09-75.13,39.34-39.64-14.41-72.66-64.69-74.86-78.4-2.34-14.68,2.75-56.8,4.47-64.9Z" style="fill:#20386f; fill-rule:evenodd;"/><path d="M1812.5,821.15c-9.59,4.43-26.97,11.08-26.97,11.08l-9.88-31.25c55.86-31.78,51.47-26.64,93.4-26.03,33.5,.49,47.54-5.92,76.38,71.95,0,0-21.96,9.86-29.82,13.03-3.39-9.62-9.49-28.83-13.06-17.88-5.39,16.53-9.33,33.22-11.97,50.41-1.68,10.18-5.33,23.22-3.41,33.59,0,0-22.81,4.7-40.23,5.47h-.15c-8.41-.22-17.04-.96-24.72-2.62,0,0-3.41-72.22-5.23-75.24-2.02-3.33-10.56-14.11-3.31-30.24,1.3-2.85,.95-3.18-1.03-2.27Z" style="fill:#6d96ce; fill-rule:evenodd;"/><path d="M1854.44,946.52c-.4,.05-2.18-.18-3.63-.15-2.01,.05-3.77,.34-3.77,.34,0,0-.79-.69-2.3-1.38-.64-.28-1.66-.4-2.36-.72-.72-.33-1.34-.95-2.02-1.25-1.78-.77-3.41-.95-3.95-.02-.45,.78,9.45,6.82,9.45,6.82,9.17,.06,18.76,4.74,40.01-9.11,12.12-5.3,71.03-34.41,72.21-40.74,.67-3.57-8.37-31.12-15.76-52.03-5.69,2.56-17.81,7.94-24.59,10.78,6.22,13.18,13.56,30.64,12.78,32.78-.19,.56-.93,1.57-40.75,27.64-1.01,.65-2.04,1.33-3.07,2.01-2.81,1.83-5.82,3.79-8.99,5.86l-11.35-1.18s-17.98,1.24-18.54,3.29c-.23,.94,1.27,1.4,3.1,1.68h.06c.26,.02,.53,.07,.81,.09h.02c1.99,.24,4.07,.27,4.57,.46,.57,.2,1.73,.64,2.72,1.32-11.22,4.59-10.36,2.95-14.08,2.72-.93-.07-1.93,.21-2.81,.14-1.5-.14-2.72-1.03-3.87-1.1-1.71-.09-3.1,.7-3.4,1.02-.4,.4,.35,.98,1.78,1.63,8.66,3.76,15.84,2.31,18.14,2.88,1.54,.37-1.28,.95-5.69,.48-1.09-.11-2.54,.29-3.98-.06-.98-.22-1.86-.83-2.8-1.07-.89-.22-1.78-.21-2.53-.34-.96-.18-2.31-.92-3.08-1.01-2.88-.33-4.27,.18-4.6,.44-.66,.59,12.4,5.61,12.4,5.61,0,0,9.01,1.29,11.02,1.29,0,0,1.21,.55-1.15,.91Z" style="fill:#f9af79; fill-rule:evenodd;"/><path d="M1864.93,744.13s2.56,20.63,4.06,27.78c1.57,7.49,3.94,31.1-11.59,34.92-15.54,3.83-10.73-25.67-10.99-33.29-.24-7.63-4.66-34.18-4.66-34.18l23.18,4.76Z" style="fill:#f9af79; fill-rule:evenodd;"/><path d="M1865.77,750.71c-.15,.09-.31,.19-.47,.28-8.58,4.92-16.06,4.15-21.66,.32-1.01-6.6-1.89-11.95-1.89-11.95l23.18,4.76s.34,2.75,.84,6.59Z" style="fill:#f27458; fill-rule:evenodd;"/><path d="M1860.26,690.41s9.11,2.56,14.35,11.61c5.25,9.04,7.86,35-11.46,46.08-19.33,11.07-33.05-6.67-32.45-23.27,.57-16.61,5.2-38.58,29.55-34.42Z" style="fill:#f9af79; fill-rule:evenodd;"/><path d="M1826.42,717.7c-.21,4.31,1.64,7.92,4.13,8.04,2.49,.12,4.7-3.26,4.91-7.59,.22-4.31-1.63-7.92-4.12-8.04-2.5-.12-4.7,3.28-4.92,7.59Z" style="fill:#f9af79; fill-rule:evenodd;"/><path d="M1857.53,689.74s10.43,27.16,20.62,30.05c10.2,2.89,9.38,16.25,9.38,16.25,0,0,1.31-30.88-8.02-38.45-9.31-7.56-21.98-7.85-21.98-7.85Z" style="fill:#20386f; fill-rule:evenodd;"/><path d="M1873.76,725.11c-1.57,4.24-.54,8.55,2.31,9.63,2.84,1.06,6.42-1.5,7.99-5.75,1.59-4.25,.55-8.55-2.3-9.63-2.83-1.06-6.41,1.5-8,5.75Z" style="fill:#f9af79; fill-rule:evenodd;"/><polygon points="1619.05 221.21 1743.5 319.93 1690.41 358.24 1619.05 221.21" style="fill:#c4d1eb; fill-rule:evenodd;"/><polygon points="1770.17 302.36 1623.27 222.77 1814.34 293.49 1770.17 302.36" style="fill:#c4d1eb; fill-rule:evenodd;"/><polygon points="1770.17 302.36 1747.7 366.31 1743.5 319.93 1619.05 221.21 1623.27 222.77 1770.17 302.36" style="fill:#9db2d9; fill-rule:evenodd;"/><polygon points="1747.7 366.31 1719.98 336.9 1743.5 319.93 1747.7 366.31" style="fill:#859ac6; fill-rule:evenodd;"/><path d="M1780.73,340.85c-3.45-1.97-6.02,3.09-2.98,4.83,1.59,.98,3.15,1.98,4.71,3.01,3.62,2.07,5.98-3.1,3.11-4.74-1.6-1.06-3.22-2.08-4.85-3.09h0Zm-161.92,293.69c.89,3.58,6.42,2.27,5.5-1.41-.47-1.8-.89-3.59-1.29-5.41-.96-3.85-6.39-2.21-5.54,1.19,.41,1.89,.85,3.76,1.34,5.63h0Zm-3.72-22.91c0,3.38,5.66,3.81,5.66-.29-.1-1.84-.16-3.67-.16-5.51,0-3.76-5.67-3.73-5.67-.03,0,1.95,.07,3.88,.17,5.83h0Zm1.43-23.26c-.48,3.84,4.67,4.65,5.56,1.07,.33-1.78,.74-3.59,1.2-5.34,.93-3.74-4.6-4.96-5.48-1.45-.5,1.87-.93,3.82-1.28,5.72h0Zm7.38-22.19c-1.66,2.91,3.02,6.12,5.08,2.54,.75-1.54,1.66-3.41,2.57-4.85,1.89-3.31-3.08-6.03-4.89-2.86-.98,1.61-1.92,3.48-2.75,5.17h0Zm12.85-19.47c-2.47,2.97,1.98,6.48,4.3,3.7,1.2-1.39,2.41-2.75,3.68-4.09,2.56-2.56-1.34-6.68-4.07-3.95-1.34,1.43-2.63,2.84-3.91,4.33h0Zm16.85-15.97c-3.08,2.56,.79,6.71,3.46,4.49,1.45-1.13,2.95-2.24,4.46-3.29,3.09-2.21-.27-6.78-3.25-4.65-1.57,1.12-3.14,2.26-4.66,3.45h0Zm19.43-12.55c-3.43,1.96-.4,6.75,2.66,5,1.64-.88,3.29-1.72,4.96-2.55,3.63-2.07,.37-6.73-2.5-5.09-1.72,.86-3.43,1.73-5.12,2.64h0Zm21-9.49c-3.52,1.32-1.5,6.62,1.97,5.32l5.27-1.88c3.72-1.39,1.47-6.6-1.82-5.37-1.82,.62-3.62,1.27-5.42,1.93h0Zm21.98-6.76c-3.65,.91-2.24,6.41,1.35,5.51l5.44-1.26c3.86-.96,2.21-6.39-1.18-5.55l-5.61,1.3h0Zm22.59-4.25c-3.67,.46-3.01,6.09,.73,5.63l5.56-.66c3.85-.48,2.98-6.09-.59-5.64-1.91,.21-3.8,.43-5.7,.67h0Zm22.8-1.84c-3.77,.47-3.43,5.66,.34,5.66,1.9-.11,3.8-.22,5.7-.37,4.04-.51,2.94-6.07-.43-5.65l-5.62,.36h0Zm22.38-2.03c-3.65,.46-3.02,6.09,.75,5.62,1.89-.24,3.78-.51,5.67-.8,3.51-.44,3.03-6.09-.86-5.61-1.85,.28-3.7,.54-5.56,.78h0Zm21.99-3.98c-3.62,.9-2.25,6.41,1.38,5.5,1.86-.46,3.75-.92,5.59-1.46,3.37-.84,2.3-6.41-1.58-5.44-1.75,.53-3.61,.97-5.38,1.41h0Zm21.01-6.98c-3.29,1.41-1.23,6.69,2.34,5.17,1.8-.8,3.55-1.68,5.29-2.59,3.35-1.92,.41-6.77-2.73-4.97-1.51,.86-3.31,1.69-4.9,2.4h0Zm18.01-11.79c-2.6,2.6,1.36,6.66,4.04,3.98,1.44-1.44,2.76-2.92,4.01-4.52,2.17-2.59-1.91-6.55-4.53-3.4-1.07,1.4-2.28,2.7-3.52,3.95h0Zm10.09-18.12c-.83,3.33,4.57,5.06,5.56,1.13,.39-2.03,.65-3.97,.78-6.04,0-4.09-5.66-3.67-5.66-.29-.11,1.78-.33,3.45-.67,5.2h0Zm-1.27-21.09c.85,3.4,6.41,2.3,5.45-1.55-.51-1.89-1.14-3.76-1.81-5.6-1.33-3.52-6.63-1.5-5.32,1.97,.62,1.7,1.2,3.44,1.68,5.18h0Zm-8.81-20.07c1.82,3.17,6.79,.45,4.9-2.86-.78-1.56-2.08-3.45-3.04-4.96-1.64-2.88-6.82-.51-4.75,3.1,.86,1.23,2.23,3.4,2.89,4.71h0Zm-12.71-18.24c2.46,2.95,6.73-.77,4.41-3.56-1.2-1.5-2.44-2.97-3.69-4.43-2.31-2.78-6.76,.74-4.29,3.71,1.21,1.41,2.41,2.84,3.57,4.28h0Zm-15.02-16.56c2.61,2.61,6.66-1.36,3.99-4.04-1.33-1.32-2.73-2.76-4.12-3.99-2.49-2.49-6.68,1.34-3.89,4.13,1.36,1.28,2.7,2.58,4.02,3.9h0Zm-16.63-15.01c2.81,2.34,6.51-1.95,3.58-4.4l-4.49-3.58c-2.67-2.24-6.53,1.93-3.47,4.48,1.46,1.06,2.96,2.35,4.38,3.5Z" style="fill:#859ac6; fill-rule:evenodd;"/><polygon points="602.28 155.6 437.66 223.08 482.86 280.82 602.28 155.6" style="fill:#c4d1eb; fill-rule:evenodd;"/><polygon points="414.44 195.88 597.25 155.97 369.67 172.59 414.44 195.88" style="fill:#c4d1eb; fill-rule:evenodd;"/><polygon points="414.44 195.88 418.71 271.67 437.66 223.08 602.28 155.6 597.25 155.97 414.44 195.88" style="fill:#9db2d9; fill-rule:evenodd;"/><polygon points="418.71 271.67 457.68 248.67 437.66 223.08 418.71 271.67" style="fill:#859ac6; fill-rule:evenodd;"/><path d="M376.38,266.06c5.36-.67,4.15-8.47-.82-7.85l-7.88,.86c-5.28,.66-4.17,8.48,.88,7.85l7.82-.85h0ZM106.47,579.92c-3.5,0-5.24,4.29-2.86,6.67,.58,.7,1.76,1.22,2.86,1.22l5.1-.02c5.11,0,5.22-7.9-.07-7.9l-5.03,.02h0Zm28.52-.72c-4.66,0-5.32,7.88,.44,7.88l7.96-.5c5.65-.71,4.09-8.46-.59-7.88l-7.81,.49h0Zm31.06-2.95c-4.9,.61-4.22,8.49,1.19,7.81l-1.19-7.81h0Zm30.17-6.65c-4.72,1.77-2.83,8.83,2.46,7.51,2.59-.83,5.14-1.74,7.67-2.73,4.82-2.07,1.95-9.17-2.93-7.33-2.36,.94-4.79,1.78-7.21,2.56h0Zm26.78-13.48c-4.11,3.43,1.08,9.37,4.96,6.14,2.23-1.83,4.29-3.73,6.22-5.87,3.51-4.21-2.77-9.01-5.92-5.22-1.63,1.81-3.39,3.4-5.26,4.96h0Zm14.77-23.94c-.7,5.62,7.2,6.05,7.78,1.34,.51-2.82,.82-5.55,.92-8.42,0-5.44-7.89-5.16-7.89-.19-.08,2.46-.37,4.84-.81,7.26h0Zm-2.12-29.52c1.2,4.81,8.93,3.18,7.61-2.09-.69-2.58-1.46-5.26-2.34-7.78-1.94-5.17-9.2-2.04-7.48,2.53,.82,2.41,1.54,4.88,2.2,7.34h0Zm-10.89-28.93c1.95,4.55,9.33,1.72,7.17-3.3-1.11-2.41-2.25-4.84-3.43-7.22-2.89-5.06-9.37-.51-7.09,3.47,1.15,2.32,2.26,4.69,3.35,7.04h0Zm-14.09-28.01c2.73,4.79,9.4,.55,6.97-3.7l-3.7-6.98c-2.73-4.78-9.41-.55-6.97,3.71,1.26,2.27,2.49,4.66,3.7,6.97h0Zm-14.72-28.06c2.86,5,9.37,.52,7.06-3.52l-3.45-7.03c-2.7-4.72-9.13-1.28-7.12,3.41l3.51,7.15h0Zm-12.81-29.47c1.77,4.73,8.83,2.83,7.5-2.46-.8-2.44-1.52-4.82-2.17-7.31-1.25-5.03-8.92-3.14-7.65,1.93,.68,2.66,1.46,5.22,2.31,7.83h0Zm-3.96-32.78c-.64,5.16,7.19,6.14,7.83,.98,.29-2.44,.74-4.89,1.34-7.27,1.28-5.11-6.41-6.94-7.65-1.96-.67,2.73-1.2,5.46-1.52,8.25h0Zm12.14-30.92c-3.08,4.31,3.41,8.81,6.38,4.65,1.47-2.04,3.01-3.96,4.68-5.83,3.59-4.3-2.78-8.99-5.85-5.29-1.85,2.01-3.6,4.26-5.2,6.47h0Zm23.84-22.51c-4.08,2.91-.37,9.28,4.41,6.55,2.12-1.44,4.27-2.79,6.48-4.1,4.38-2.5,.63-9.45-4.03-6.79-2.33,1.38-4.62,2.82-6.86,4.34h0Zm28.53-15.15c-4.85,2.08-1.66,9.3,3.05,7.28,2.38-1.01,4.79-1.96,7.21-2.88,4.82-1.81,2.11-9.23-2.8-7.38-2.5,.95-4.99,1.93-7.46,2.98h0Zm30.25-10.53c-4.73,1.19-3.2,8.94,2.17,7.59l7.53-2.08c4.93-1.23,3.17-8.93-2-7.64l-7.69,2.12h0Zm30.96-7.57c-5.45,1.36-3.06,8.89,1.59,7.73l7.69-1.53c5.02-1.26,3.83-8.42-1.48-7.76l-7.8,1.55h0Zm31.3-5.56c-4.91,.62-4.23,8.49,1.17,7.81l7.77-1.13c4.99-.62,4.23-8.48-1.1-7.82l-7.85,1.15Z" style="fill:#859ac6; fill-rule:evenodd;"/><path d="M474.55,802.72c3.57,.25,7.01-3.98,8-5.24,3.79-4.82,6.21-10.47,7.19-13.64-.74-2.11-1.52-4.76-2.33-7.98-13.74-9.33-15.61-16.24-5.63-20.71,2.01,1.13,4.51,4.6,7.49,10.43,2.38-.09,4.19-1.31,5.42-3.66-2.84-9.82-4.68-17.8-5.54-23.93,6.77-10.06,22.6-11.5,43.56-8.78,.97,5.58,1.77,11.49,2.39,17.73,3.71,3.41,3.23,16.07-.19,30.66,1.7,8.3-3.42,12.82-15.37,13.58-.12,2,.06,4.31,.1,5.71,.04,1.27,.08,3.76,1.41,4.15l2.21,.54c-.22,29.66-15.4,35.36-48.72,1.14Z" style="fill:#f9af79; fill-rule:evenodd;"/><path d="M532.7,729.21c-20.96-2.72-36.79-1.28-43.56,8.78,.86,6.13,2.7,14.11,5.54,23.93-1.23,2.34-3.03,3.56-5.42,3.66-2.98-5.82-5.48-9.3-7.49-10.43-9.98,4.47-8.1,11.38,5.63,20.71,.81,3.22,1.59,5.88,2.33,7.99-12.36-2.78-22.7-13.82-24.15-18.6-14.42-28.41,1.66-40.42,10.26-44.79,3.8-28.14,44.82-3.81,55.61-20.98,22.57,12.88,7.6,29.49,1.25,29.74Z" style="fill:#172b57; fill-rule:evenodd;"/><path d="M505.77,788.29c3.35,1.66,7.94,2.62,13.77,2.89-.11,1.98-.03,4.25,.1,5.66-5.86-1.13-10.49-3.98-13.87-8.54Z" style="fill:#ed7d57; fill-rule:evenodd;"/><path d="M449.55,1358.18c-13.01-4.58-14.06-11.29-21.08-14.57-7.06-3.3-7.88-9.17-.97-15.56,5.1,4.08,11.43,9.08,14.79,6.43,2.24-1.77,9.83-1.66,11.34,.93,6.61,15.37,15.81,10.5,17.63,17.5,.21,9.31-15.73,7.37-21.7,5.27Z" style="fill:#0e2952; fill-rule:evenodd;"/><path d="M562.36,1342.89c-22.93-.37-40.06-.64-47.98-3.14-8.54-2.7-6.78-7.91-1.87-16.24,21.61,9.94,15.85-2.04,25.96-.52,7.1,5.72,17.62,9.55,31.55,11.5,5.89,4.35,3.5,8.22-7.66,8.41Z" style="fill:#0e2952; fill-rule:evenodd;"/><path d="M550.91,806.07c-11.44-3.32-21.72-5.34-30.83-6.04-1.65,25.14-14.76,24.97-39.35-.53-23.68,1.99-28.31,2.3-41.45,6.56-28.42,27.15-31.04,58.49-45.9,94.3,16.45,.73,23.83,2.72,35.02,6.7,2.4-8.58,4.41-15.49,6.03-20.72-.46,47.22-.63,79.57-.52,97.07,54.4,21.56,99.22,14.18,117.53-2.63,.26-41.97,.61-75.19,1.05-99.68,6.51,7.67,12.54,13.62,18.1,17.83,13.34-15.29,22.38-21.45,29.94-30.47-16.75-27.49-40.74-53.08-49.62-62.4Z" style="fill:#6d96ce; fill-rule:evenodd;"/><path d="M660.56,852.07c-28.58,11.87-48.59,21.68-60.04,29.43l-5.08-7.52c-4.72,4.74-10.12,9.38-16.7,16.12,6.09,6.37,12.62,11.61,20.23,16.04,19.86-2.12,41.81-17.16,65.86-45.12,7.47-1.49,12.98-4.2,16.51-8.12,.18-3.6-1.63-7.21-5.45-10.83,9.97-6.5,13.94-11.15,11.91-13.95-15.62,9.66-24.69,17.65-27.22,23.96Z" style="fill:#f9af79; fill-rule:evenodd;"/><path d="M551.44,980.79c-1.08,4.08,3.37,28.06,4.11,40.57,7.23,44.64,1.04,102.76-2.86,177.5-6.97,26.34-17.26,61.43-16.59,110.83-12.14,3.7-16.54,4.09-27.49,1.3-7.66-51.54-2.44-92.83,4.49-111.89-4.43-29.47-11.05-62.45-20.68-110.02-10.85,51.85-25.37,90.32-31.65,115.43-1.24,27.99-6.91,65.77-9.87,113.33-9.01,2.71-14.62,3.49-23.97,2.35-12.14-43.72-10.09-91.29-4.96-142.71,5.47-61.82-3.55-131.63,5.48-155.83,4.62-14.33,5.21-27.07,6.45-38.22,45.39,15.11,84.56,14.24,117.53-2.62Z" style="fill:#466fb5; fill-rule:evenodd;"/><path d="M442.28,935.44c-2.91,.43-5.67,.82-8.26,1.17-.13,20.83-.17,36.43-.11,46.8,2.57,1.15,6.19,2.47,9,2.81-.02-1.34-.44-4.43-.45-5.75-.18-15.93-.24-30.94-.18-45.04h0Zm133.02-41.73c-8.01-6.67-15.64-17.5-22.88-32.5,.81,5.22,1.14,12.21,.97,20.97,6.16,7.15,11.89,12.73,17.19,16.76,1.63-1.87,3.2-3.61,4.72-5.23h0Zm-130.76-40.62c-3.53,11.36-6.91,22.44-10.12,33.25-.09,9.12-.16,17.69-.23,25.71,2.33-.22,5.06-.37,8.3-.44,.33-22.17,1.01-41.67,2.04-58.52Z" style="fill:#466fb5; fill-rule:evenodd;"/><path d="M516.36,869.43h59.9c2.74,0,4.64,2.25,4.2,4.99l-13.44,84.85c-.44,2.74-3.04,4.99-5.78,4.99h-59.9c-2.74,0-4.63-2.25-4.2-4.99l13.44-84.85c.44-2.75,3.04-4.99,5.78-4.99Z" style="fill:#223f81; fill-rule:evenodd;"/><path d="M398.91,900.68c-2.59,10.51-3.67,20.12-1.55,32.86,6.46,9.38,32.55,4.14,99.72-7.09,2.41,2.2,7.39,4.38,14.95,3.41,7.03-1.75,7.36-3.59,15.24-11.02,1.91-5.78,1.52-10.2-1.18-13.25-8.87,5.22-13.54,8-23.54,8.33,2.66-6.85,3.06-11.26,1.2-13.25-3.41,2.73-5.63,6.84-6.66,12.33-52.95-2.3-66.92-1.99-73.97,1.7,.77-3.33,1.44-6.24,2.03-8.77-8.24-2.8-14.95-4.44-26.25-5.25Z" style="fill:#f9af79; fill-rule:evenodd;"/><path d="M514.04,1312.19c.54,4.5,.62,8.53,.23,12.1,18.08,7.86,15.01-1.21,22.23-1.44-1.82-3.2-2.99-7.28-3.53-12.24-7.88,2.25-12.37,2.76-18.93,1.58h0Zm-84.25,8.28c0,3.27-.31,6.15-.96,8.63,4.83,3.82,10.39,7.81,13.46,5.38,1.47-1.17,5.25-1.51,8.1-.88-1.17-3.95-2.09-8.9-2.77-14.85-6.34,1.71-11.21,2.28-17.83,1.72Z" style="fill:#f9af79; fill-rule:evenodd;"/><path d="M555.55,1021.36c-31.93,29.76-74.62,29.86-128.09,.28-9.03,24.21,0,94.01-5.48,155.83-5.14,51.42-7.18,98.99,4.96,142.71,.99,.12,1.94,.23,2.85,.3,6.62,.57,11.49,0,17.83-1.72,1.05-.28,2.14-.59,3.29-.93,2.96-47.56,8.62-85.34,9.87-113.33,6.28-25.11,20.8-63.58,31.65-115.43,9.63,47.57,16.25,80.56,20.68,110.02-6.92,19.06-12.15,60.35-4.49,111.89,1.99,.51,3.77,.91,5.42,1.21,6.57,1.18,11.05,.67,18.93-1.58,.99-.28,2.03-.6,3.13-.93-.67-49.4,9.62-84.49,16.59-110.83,3.89-74.73,10.09-132.85,2.86-177.5Z" style="fill:#223f81; fill-rule:evenodd;"/><path d="M505.16,1275.57c11.65,3.17,22.31,4.12,31.99,2.86,.21-2.56,.45-5.07,.71-7.53-10.62,1.38-21.59,.67-32.94-2.14,.05,2.23,.13,4.5,.24,6.8h0Zm-85.11,8.86c12.67,1.52,23.89,.68,33.66-2.51,.25-2.66,.49-5.28,.75-7.86-10.97,3.58-22.67,4.8-35.11,3.67,.21,2.24,.45,4.48,.71,6.7h0Zm32.02,16.74c.2-2.64,.42-5.24,.63-7.81-9.78,2.67-20.13,3.53-31.05,2.57,.37,2.27,.77,4.53,1.2,6.78,10.8,1.22,20.54,.7,29.22-1.54h0Zm84.52-14.57c-9.88,1.63-20.14,1.46-30.79-.53,.17,2.25,.37,4.53,.59,6.84,10.89,2.31,20.84,2.72,29.86,1.23,.08-2.56,.2-5.07,.34-7.54Z" style="fill:#0e2952; fill-rule:evenodd;"/><path d="M98.64,816.36c-6.12,3.53-8.01,9.33-12.15,11.48-12.03,1.14-23.89,2.06-29.54,5.98-22.08,26.69-39.92,50.29-53.51,70.8-5.5,11.36-4.4,22.33,3.32,32.91,9.46-8.75,19.72-10.95,30.78-6.63-.37-4.62-2.1-9.44-5.21-14.44,15.89-13.94,28.91-26.73,39.07-38.35-1.88,15.25,3.65,36.96,16.57,65.11,44.99,2.92,70.8,2.21,77.43-2.13,2.19-12.59,3.93-26.33,5.21-41.2,10.33,9.25,18.7,17.45,25.1,24.63,4.85,1.59,10.06,1.91,15.63,.95,3.93-9.24,7.88-17.6,11.84-25.09-2.73-2.47-7.47-4.44-14.2-5.92-18.37-26.19-34.23-47.35-47.59-63.45-10.36-2.42-18.1-3.68-23.2-3.79-2.19-2.58-5.42-4.79-9.71-6.63,2.5,13.76,3.45,30.25,3.32,41.91-19.65-14.41-30.7-33.21-33.15-46.12Z" style="fill:#6d96ce; fill-rule:evenodd;"/><path d="M65.27,1061.25c-9.33-57.79-1.76-97.14,22.7-118.04,37.99,2.47,62.31,2.35,72.95-.37,.11,4.07,.38,8.86,1.24,15.16,6.62,48.72,14.53,124.36,13.46,198.66-26.81,9.42-68.8,9.02-125.97-1.18,6.53-28.9,11.74-60.31,15.63-94.24Z" style="fill:#20386f; fill-rule:evenodd;"/><path d="M138.18,827.19c2.31,6.79,3.54,12.38,3.7,16.81-2.64-2.11-4.6-3.55-5.86-4.33-.97,10.89-2.38,18.49-4.23,22.8,.13-11.66-.81-28.15-3.32-41.91,4.29,1.84,7.52,4.05,9.71,6.63Z" style="fill:#466fb5; fill-rule:evenodd;"/><path d="M98.64,816.36c2.45,12.91,13.5,31.71,33.15,46.12-11.74-4.17-24.58-14.38-31.93-27.95-1.22,4.59-2.75,9.96-4.62,16.1-5.11-6.33-8.03-13.93-8.75-22.79,4.15-2.15,6.03-7.95,12.15-11.48Z" style="fill:#466fb5; fill-rule:evenodd;"/><path d="M36.2,930.41c7.84,16.02,17.01,31.99,26.15,44.7,2.09-2.25,4.12-7.11,7.08-8.98,1.18-.75,3.06,1.18,4.32,.59,5.99-2.82,12.63-3.63,18,.38,1.34,1.01,2.06,2.98,2.26,7.66-.23,6.42-5.6,7.65-13.08,4.62-10.01,10.92-16.67,14.47-22.13,10.66-24.7-22.18-41.06-40.56-49.07-55.15,8.24-6.27,17.06-7.75,26.48-4.46Z" style="fill:#f9af79; fill-rule:evenodd;"/><path d="M290.97,927.66c-37.02,1.23-63.46,.25-79.32-2.94,3.83-8.95,7.67-17.07,11.53-24.37,29.52,4.38,54.79,7.6,75.83,9.66,7.56-5.18,13.87-7.31,18.94-6.4,1.4,3.19-.1,5.51-4.49,6.98-1.18,1.66-1.66,3.2-1.43,4.62,10.95,4.67,20.58,7.56,28.89,8.65,.97,9.86-5.12,16.12-18.27,18.8-13.42-3.47-23.98-8.47-31.68-15.02Z" style="fill:#f9af79; fill-rule:evenodd;"/><path d="M61.4,1318.53c6.9,25.75,4.57,39.45-8.43,41.33-17.27,1.24-21.95-15.81-15.17-50.96-.15,1.91-.27,3.69-.34,5.27-1.91,36.82,26.65,28.58,24.67,11.62-.28-2.37-.5-4.78-.72-7.26Z" style="fill:#0e2952; fill-rule:evenodd;"/><path d="M62.12,1325.79c1.99,16.96-26.57,25.2-24.67-11.62,.07-1.59,.19-3.36,.34-5.27,1.17-15,4.34-39.02,4.1-54.17-.61-38.69,2.83-71.62,10.31-98.79,13.85,2.42,26.8,4.25,38.83,5.51-6.51,22.6-12.15,43.3-16.93,62.05-5.86,23.04-16.81,57.12-14.07,80.51,.59,5.01,.95,9.86,1.36,14.51,.22,2.48,.44,4.89,.72,7.26Z" style="fill:#f9af79; fill-rule:evenodd;"/><path d="M176.34,1330.23c-9.96,.54-.87,8.29-7.35,10.04-14.18-7.75-22.03-28.9-27.7-38.23-2.98-4.91-5.14,1.34-6.6,8.33-3.15,15.02-3.06,34.85,.51,41.02,2.59-4.51,4.82-18.43,7.18-26.92,13.91,12.38,10.87,26.02,19.13,30.67,19.79,2.19,30.5,2.73,45.53,3.06,3.3-12.77-22.84-8.46-30.7-27.96Z" style="fill:#0e2952; fill-rule:evenodd;"/><path d="M168.96,1158.72c-1.89,74.25-8.74,140.43,3.64,172.43-3.44,2.22,1.7,7.68-3.61,9.11-14.18-7.76-22.04-28.89-27.7-38.23-.03-.05-.06-.1-.09-.15,.79-1.98,1.36-4.24,1.7-6.81-.25-61.59-15.64-99.57-12.67-131.64,14.99-.22,27.9-1.79,38.72-4.7Z" style="fill:#f9af79; fill-rule:evenodd;"/><path d="M197.05,924.91c4.98-9.47,9.96-19.38,14.96-29.73,5.15,1.38,8.87,3.11,11.17,5.18-3.86,7.3-7.7,15.42-11.53,24.37-.11,.24-.21,.49-.31,.73-5.06,.88-9.82,.69-14.29-.54Z" style="fill:#466fb5; fill-rule:evenodd;"/><path d="M34.59,920.57c1.7,3.54,2.68,6.99,2.94,10.33-.44-.17-.89-.34-1.33-.49-9.41-3.29-18.24-1.8-26.48,4.46,.02,.04,.04,.07,.06,.11-1.02,.77-2.03,1.63-3.03,2.56-2.83-3.88-4.76-7.8-5.81-11.78,12.56-7.31,23.78-9.04,33.65-5.18Z" style="fill:#466fb5; fill-rule:evenodd;"/><path d="M128.77,812.52c-1.26,4.74-1.14,8.78,.38,12.11,1.99,12.85,2.75,27.32,2.64,37.85-18.76-13.75-29.68-31.51-32.76-44.32,2.49-4.01,3.5-8.69,3.05-14.04,.46-2.5-.96-7.16-4.26-13.96-11.22-1.95-14.01-11.37-9.34-18.86,5.25-1.86,8.07,2.44,9.46,10.21,2.99-.44,1.85-5.22,1.54-7.46-1.41-6.47-.23-9.96,2.13-16.1,13.48,9.48,25.04,9.77,43.44,4.43-.54,4.41-.93,8.67-1.18,12.79,5.05,12.29-2.67,33.18-15.09,37.35Z" style="fill:#f9af79; fill-rule:evenodd;"/><path d="M145.05,762.38c-18.4,5.34-29.96,5.05-43.44-4.43-2.36,6.14-3.54,9.63-2.13,16.1,.31,2.24,1.45,7.02-1.54,7.46-1.38-7.77-4.21-12.07-9.46-10.21-4.67,7.49-1.88,16.91,9.34,18.86,3.3,6.8,4.72,11.46,4.26,13.96,.45,5.35-.56,10.03-3.05,14.04-.15-.62-.28-1.21-.39-1.8-6.12,3.53-8.01,9.33-12.15,11.48-12.03,1.14-23.89,2.06-29.54,5.98-1.63,1.97-3.24,3.92-4.82,5.86-3.85-9.02-5.87-15.64-5.19-18.57,2.59-11.18,14.37-5.57,14.17-12.2-.31-10.31,14.25-18.4,12.31-28.69-3.96-21.05,4.26-27.44,4.3-29.04,.49-15.95,10.04-16.36,19.54-21.74,16.86-9.55,31.52,2.13,36.3,2.44,24.37,1.59,10.87,12.07,21.78,21.51,8.99,7.78,4.73,13.67,3.81,18.34-.41,2.11-2.37,10.77,3.85,15.15,9.12,6.43,.78,19.92,6.16,21.55,20.71,6.28,11.37,12.53,10.81,27-.18,4.63-2.37,8.78-5.28,12.18-4.68-6.05-9.12-11.6-13.31-16.64-10.36-2.42-18.1-3.68-23.2-3.79-2.19-2.58-5.42-4.79-9.71-6.63,.24,1.33,.47,2.69,.68,4.06-1.52-3.33-1.64-7.37-.38-12.11,12.42-4.17,20.14-25.06,15.09-37.35,.25-4.11,.65-8.37,1.18-12.79Z" style="fill:#20386f; fill-rule:evenodd;"/><path d="M128.77,812.52c-7.53,.85-10.94,.8-17.9-1.97,4.08,4.4,9.76,6.81,17.05,7.24,.07-1.65,.35-3.4,.85-5.27Z" style="fill:#ed7d57; fill-rule:evenodd;"/><path d="M1420.03,1429.08c-172.27,0-311.92,8.73-311.92,19.51s139.65,19.51,311.92,19.51,311.92-8.73,311.92-19.51-139.65-19.51-311.92-19.51Z" style="fill:#c4d1eb; fill-rule:evenodd;"/><polygon points="1316.88 858.92 1331.67 858.92 1166.58 1448.15 1151.8 1448.15 1316.88 858.92" style="fill:#9c7357; fill-rule:evenodd;"/><polygon points="1428.3 858.92 1443.08 858.92 1277.99 1448.15 1263.21 1448.15 1428.3 858.92" style="fill:#9c7357; fill-rule:evenodd;"/><polygon points="1320.86 897.46 1417.49 897.46 1414.73 907.33 1318.1 907.33 1320.86 897.46" style="fill:#9c7357; fill-rule:evenodd;"/><polygon points="1303.7 958.72 1400.33 958.72 1397.56 968.59 1300.94 968.59 1303.7 958.72" style="fill:#9c7357; fill-rule:evenodd;"/><polygon points="1551.33 953.89 1454.71 953.89 1457.47 963.75 1554.09 963.75 1551.33 953.89" style="fill:#9c7357; fill-rule:evenodd;"/><polygon points="1286.54 1019.98 1383.17 1019.98 1380.4 1029.85 1283.78 1029.85 1286.54 1019.98" style="fill:#9c7357; fill-rule:evenodd;"/><polygon points="1568.5 1015.15 1471.87 1015.15 1474.63 1025.01 1571.26 1025.01 1568.5 1015.15" style="fill:#9c7357; fill-rule:evenodd;"/><polygon points="1269.38 1081.25 1366 1081.25 1363.24 1091.12 1266.62 1091.12 1269.38 1081.25" style="fill:#9c7357; fill-rule:evenodd;"/><polygon points="1252.21 1142.5 1348.84 1142.5 1346.07 1152.37 1249.45 1152.37 1252.21 1142.5" style="fill:#9c7357; fill-rule:evenodd;"/><polygon points="1235.05 1203.77 1331.67 1203.77 1328.91 1213.63 1232.28 1213.63 1235.05 1203.77" style="fill:#9c7357; fill-rule:evenodd;"/><polygon points="1217.89 1265.03 1314.51 1265.03 1311.75 1274.9 1215.12 1274.9 1217.89 1265.03" style="fill:#9c7357; fill-rule:evenodd;"/><polygon points="1200.72 1326.29 1297.35 1326.29 1294.59 1336.16 1197.96 1336.16 1200.72 1326.29" style="fill:#9c7357; fill-rule:evenodd;"/><polygon points="1183.56 1387.55 1280.18 1387.55 1277.42 1397.41 1180.79 1397.41 1183.56 1387.55" style="fill:#9c7357; fill-rule:evenodd;"/><polygon points="1539.51 858.92 1524.72 858.92 1689.81 1448.15 1704.59 1448.15 1539.51 858.92" style="fill:#9c7357; fill-rule:evenodd;"/><polygon points="1428.09 858.92 1413.31 858.92 1578.4 1448.15 1593.18 1448.15 1428.09 858.92" style="fill:#9c7357; fill-rule:evenodd;"/><polygon points="1535.52 897.46 1438.9 897.46 1441.66 907.33 1538.29 907.33 1535.52 897.46" style="fill:#9c7357; fill-rule:evenodd;"/><polygon points="1587.01 1081.25 1490.39 1081.25 1493.15 1091.12 1589.77 1091.12 1587.01 1081.25" style="fill:#9c7357; fill-rule:evenodd;"/><polygon points="1604.18 1142.5 1507.55 1142.5 1510.32 1152.37 1606.94 1152.37 1604.18 1142.5" style="fill:#9c7357; fill-rule:evenodd;"/><polygon points="1621.34 1203.77 1524.72 1203.77 1527.48 1213.63 1624.11 1213.63 1621.34 1203.77" style="fill:#9c7357; fill-rule:evenodd;"/><polygon points="1638.5 1265.03 1541.88 1265.03 1544.64 1274.9 1641.27 1274.9 1638.5 1265.03" style="fill:#9c7357; fill-rule:evenodd;"/><polygon points="1655.67 1326.29 1559.04 1326.29 1561.8 1336.16 1658.43 1336.16 1655.67 1326.29" style="fill:#9c7357; fill-rule:evenodd;"/><polygon points="1672.83 1387.55 1576.21 1387.55 1578.97 1397.41 1675.59 1397.41 1672.83 1387.55" style="fill:#9c7357; fill-rule:evenodd;"/><rect x="1297.25" y="835.74" width="263.61" height="23.18" style="fill:#d0a382;"/><path d="M806.59,0h0c29.21,0,53.11,23.9,53.11,53.12V1376.98h-106.23V53.12c0-29.22,23.91-53.12,53.12-53.12Z" style="fill:#9c7357; fill-rule:evenodd;"/><polygon points="753.48 143.3 1195.06 143.3 1279.66 211.58 1195.06 287.46 753.48 287.46 753.48 143.3" style="fill:#d0a382; fill-rule:evenodd;"/><polygon points="859.71 407 418.13 407 333.52 475.29 418.13 551.16 859.71 551.16 859.71 407" style="fill:#e5bb9a; fill-rule:evenodd;"/><polygon points="753.48 673.33 1195.06 673.33 1279.66 741.62 1195.06 817.49 753.48 817.49 753.48 673.33" style="fill:#eac5a7; fill-rule:evenodd;"/><path d="M1466.91,835.74c13.33-4.69,14.4-11.56,21.57-14.9,7.23-3.38,8.06-9.4,.99-15.92-5.22,4.17-11.7,9.3-15.13,6.59-2.29-1.82-10.07-1.7-11.6,.95-6.77,15.73-16.18,10.75-18.04,17.91-.22,9.53,16.09,7.54,22.2,5.39Z" style="fill:#1d417f; fill-rule:evenodd;"/><path d="M1352.51,836.22c24.59-.4,42.98-.69,51.47-3.37,9.16-2.89,7.27-8.49,2-17.42-23.17,10.66-17-2.19-27.84-.56-7.62,6.13-18.9,10.24-33.84,12.33-6.32,4.66-3.75,8.81,8.21,9.02Z" style="fill:#1d417f; fill-rule:evenodd;"/><path d="M1437.49,239.41c-3.93,.28-10.12-.47-11.22-1.86-4.18-5.3-7.07-10.84-8.14-14.33,.82-2.32,1.67-5.25,2.56-8.79,15.14-10.28,17.2-17.88,6.21-22.81-2.22,1.24-4.96,5.07-8.25,11.48-2.62-.11-4.61-1.45-5.96-4.02,3.12-10.82,5.16-19.61,6.1-26.37-7.46-11.08-24.89-12.66-47.98-9.67-1.08,6.15-1.95,12.65-2.64,19.53-4.08,3.76-3.55,17.7,.21,33.77-1.88,9.14,3.76,14.13,16.93,14.96,.19,3.24-.12,7.22-.33,7.67-.33,.7-1.5,1.38-3.12,1.96h0c-.44,15.09,18.11,14.58,55.65-1.5Z" style="fill:#f9af79; fill-rule:evenodd;"/><path d="M1370.79,163.03c23.09-2.99,40.53-1.41,47.99,9.67-.94,6.76-2.98,15.54-6.1,26.37,1.35,2.57,3.34,3.92,5.96,4.02,3.29-6.41,6.04-10.24,8.25-11.48,10.99,4.93,8.93,12.53-6.21,22.81-.89,3.54-1.74,6.47-2.56,8.79,13.61-3.05,25-15.23,26.6-20.49,15.88-31.3-1.83-44.52-11.31-49.34-4.18-31-49.19-3.6-71.75-18.54-8.96,12.38,2.12,27.91,9.11,28.19Z" style="fill:#20386f; fill-rule:evenodd;"/><path d="M1232.23,294.31c11.43,48.92,31.5,86.89,60.21,113.9,10.35-3.14,19.53-10.21,27.54-21.22-.43,35.39,.46,70.61,2.64,105.67,20.96,9.94,48.79,9.3,83.48-1.93l14.08-17.33c3.61-.7,11.82,3.29,15.76,9.38,32.95-25.15,55.17-52.17,68.28-79.02-3.54-57.68-11.38-103.2-23.51-136.54-6.13-9.43-20.54-18.7-43.22-27.81-37.54,16.09-56.09,16.59-55.65,1.5-11.04,3.62-25.69,10.04-43.94,19.24-15.22,11.56-28.18,42.9-38.89,94.01-17.42-21.83-35.49-44.96-54.21-69.42-4.16,1.18-8.35,4.38-12.58,9.58h0Zm195.54,163.45c-10.92-35.92-4.89-80.23,18.09-132.94,5.79,26.01,12.04,51.6,18.76,76.79-7.81,3.71-20.09,22.43-36.85,56.15Z" style="fill:#6d96ce; fill-rule:evenodd;"/><path d="M1431.85,504.58c-5.32-.41-13.91-5.03-25.74-13.85-34.69,11.22-62.52,11.86-83.48,1.93-3.73,59.01,10.78,120.87,29.18,189.82,18.02,30.27,17.25,51.55,26.86,121.4,5.33,3.8,14.15,3.25,26.44-1.66,3.91-59.56,1.21-98.98-14.24-121.21,2.42-19.97-3.91-69.05-4.21-99.86,11.24,25.06,18.96,58.92,33.61,93.11,17.84,41.63,30.26,86.19,39.67,126.83,9.95,1.93,19.28,.79,27.98-3.42-9.99-66.8-21.07-112.77-33.22-137.92,.47-65.68-5.79-124.67-18.76-176.97-2.41,6.17-3.77,13.44-4.09,21.8Z" style="fill:#1d417f; fill-rule:evenodd;"/><path d="M1406.11,490.74c11.83,8.82,20.42,13.43,25.74,13.85,.32-8.36,1.68-15.63,4.09-21.8-3.93-6.09-12.15-10.08-15.76-9.38l-14.08,17.33Z" style="fill:#f9af79; fill-rule:evenodd;"/><path d="M1319.98,387c1.14-34.37,3.9-62.55,8.27-84.53-11.12,46.68-21.89,77.66-32.32,92.93-6.59-.21-14.94-4.12-25.05-11.72,6.54,8.99,13.73,17.17,21.56,24.53,10.35-3.14,19.53-10.21,27.54-21.22Z" style="fill:#466fb5; fill-rule:evenodd;"/><path d="M1420.18,473.41c2.02-5,4.54-10.21,7.58-15.64-10.92-35.92-4.89-80.23,18.09-132.94-33.43,47.52-42.91,98.18-28.44,151.98l2.76-3.41Z" style="fill:#466fb5; fill-rule:evenodd;"/><path d="M1400.46,228.11c-3.69,1.82-8.75,2.88-15.17,3.18,.12,2.17,.03,4.68-.11,6.23,6.46-1.25,11.55-4.38,15.28-9.41Z" style="fill:#ed7d57; fill-rule:evenodd;"/><path d="M1403.66,816.45c-1.24-4.06-1.7-8.44-1.4-13.14-9.38,3.37-16.54,3.96-21.48,1.77,.25,3.48-.14,6.7-1.2,9.64,8.54-.29,4.64,10.05,24.07,1.73h0Zm61.98-5.76c2.95-.78,7.13-.45,8.71,.8,3.07,2.43,8.57-1.42,13.44-5.24-.84-2.3-1.53-4.83-2.08-7.57-5.86,2.45-11.99,3.55-18.4,3.29,.09,3.49-.46,6.4-1.66,8.72Z" style="fill:#f9af79; fill-rule:evenodd;"/><path d="M1432.2,512.97c-.37-3.04-.49-5.83-.36-8.39-5.33-.41-13.91-5.03-25.74-13.85-2.82,.91-5.58,1.75-8.3,2.52,8.33,8.67,19.79,15.24,34.39,19.72Z" style="fill:#3c3392; fill-rule:evenodd;"/><path d="M1166.88,244.43l9.31-20.3c50.01,22.93,62.24,28.54,112.25,51.47,2.79,1.28,4.03,4.61,2.75,7.4l-4.66,10.15c-1.28,2.79-4.61,4.03-7.4,2.75-50.01-22.93-62.24-28.54-112.25-51.47Z" style="fill:#6d96ce; fill-rule:evenodd;"/><polygon points="1176.18 224.12 1166.88 244.43 1144.02 221.66 1176.18 224.12" style="fill:#e5bb9a; fill-rule:evenodd;"/><polygon points="1275.47 277.85 1272.42 284.48 1170.01 237.59 1173.05 230.96 1275.47 277.85" style="fill:#466fb5; fill-rule:evenodd;"/><path d="M1278.57,271.07l-9.31,20.3,9.86,4.52c2.79,1.28,6.12,.04,7.4-2.75l4.66-10.15c1.28-2.79,.04-6.12-2.75-7.4l-9.86-4.52Z" style="fill:#466fb5; fill-rule:evenodd;"/><path d="M1152.45,230.06c6.04-.31,7.11-2.81,3.24-7.5l-11.66-.89,8.43,8.4Z" style="fill:#466fb5; fill-rule:evenodd;"/><path d="M1244.8,284.73c-.19-9.81-5.45-12.21-6.53-17.6-4.51,1.96-5.67,5.64-3.49,11.01-2.06-1.65-4.09-3.44-6.09-5.37-6.55-3.01-11.67-5.35-15.37-7.05,2.25,5.93,5.4,12.78,9.43,20.56,2.4,3.78,5.99,3.06,10.53,6.75,3.86-4.46,7.7-7.23,11.51-8.31Z" style="fill:#f9af79; fill-rule:evenodd;"/></svg>