<?xml version="1.0" encoding="UTF-8"?><svg id="a" xmlns="http://www.w3.org/2000/svg" viewBox="0 0 2027.12 1586.13"><path d="M1013.56,1489.64c-559.77,0-1013.56,21.6-1013.56,48.24s453.79,48.24,1013.56,48.24,1013.56-21.6,1013.56-48.24-453.79-48.24-1013.56-48.24Z" style="fill:#d0d9ee; fill-rule:evenodd;"/><path d="M986.15,63.77c245.59,0,349.06,175.72,526.36,312.32,234.66,180.79,469.3,63.1,506.87,673.95,33.44,543.67-383.83,58.86-972.18,253.61C458.86,1498.4-140.35,1576.83,37.46,946.71,215.26,316.6,415.51,63.77,986.15,63.77Z" style="fill:#e9eff8; fill-rule:evenodd;"/><polygon points="1284.74 182.77 1351.32 248.64 1356.21 231.41 1392.32 257.92 1397.94 240.52 1455.02 282.69 1388.44 216.81 1383.56 234.04 1347.44 207.53 1341.83 224.94 1284.74 182.77" style="fill:#d0d9ee; fill-rule:evenodd;"/><polygon points="1265.21 298.86 1352.22 333.49 1350 315.72 1393.59 326.02 1391.96 307.81 1460.98 324.33 1373.97 289.69 1376.19 307.47 1332.6 297.16 1334.23 315.38 1265.21 298.86" style="fill:#d0d9ee; fill-rule:evenodd;"/><polygon points="1339.62 99.71 1383.53 182.43 1393.34 167.44 1419.9 203.51 1430.45 188.57 1472.36 245.84 1428.45 163.12 1418.65 178.11 1392.09 142.04 1381.54 156.97 1339.62 99.71" style="fill:#d0d9ee; fill-rule:evenodd;"/><polygon points="1390.34 0 1407.59 92.05 1421.42 80.67 1436.02 123.02 1450.55 111.91 1473.48 179.07 1456.23 87.02 1442.4 98.4 1427.81 56.04 1413.28 67.16 1390.34 0" style="fill:#d0d9ee; fill-rule:evenodd;"/><polygon points="1153.93 205.07 964.23 425.95 1049.76 556.94 1175.73 545.5 1275.36 399.97 1507.5 493.52 1280.55 430.29 1190.47 575.81 1070.63 588.9 1143.53 700.54 1105.42 807.95 1347.96 943.07 1410.32 794.09 1344.49 634.71 1433.71 792.36 1386.08 962.13 1566.26 1052.22 1507.36 1263.57 1517.75 1073.01 1233.64 934.41 1108.9 1024.5 1056.93 1131.91 835.18 1152.7 1020.55 1109.39 1067.33 1001.98 1152.21 898.04 1030.94 839.13 1080.32 725.66 1034.42 646.83 965.13 715.27 839.53 730.85 809.22 824.4 883.71 886.77 778.03 823.54 813.54 708.33 940.88 689.28 1013.65 614.79 980.73 560.21 731.27 529.03 615.2 447.6 746 506.51 971.21 531.63 906.25 419.02 1016.27 316.81 972.97 250.11 839.56 231.06 984.22 232.79 1030.13 301.22 1153.93 205.07" style="fill:#fff; fill-rule:evenodd;"/><path d="M1510.01,768.71c-23.35,16.27-42.9,137.15-44.8,362.64-2.49,84.6,12.2,196.67,31.2,343.98,15.49,6.63,38.22,7.54,55.51,6.62,24.09-182.82,28.04-299.54,10.08-347.43,23.29-58.8,42.85-120.01,57.76-182.45,10.35,86.64,22.57,155.4,36.67,206.27,31.25,81.43,77.54,188.07,138.89,319.94,14.18,1.92,39.4-2.35,54.09-11.92-21.45-161.33-62.45-282.55-101.05-322.7,36.72-206.19,6.16-313.56-39.41-376.57-81.31,12.1-151.89,11.26-198.93,1.61Z" style="fill:#142d4d; fill-rule:evenodd;"/><path d="M1764.77,705.6c60.82-235.77-5.42-321.65-135.68-322.7-8.6,22.9-23.98,46.29-46.13,70.21-9.14-17.46-19.07-30.76-29.79-39.88-11.44,7.5-22.91,19.27-34.38,35.3-1.99-24.42,.3-45.51,6.88-63.25-46.86,3.25-119.92,26.45-219.18,69.62-54.54-17.96-122.97-38.14-199.85-54.46l-.26,.21,.53,1.39c-6.06,6.14-13.21,21.69-15.4,34.07-1.23-.32-2.01-.53-2.92-.75l-1.29,3.7c64.18,40.5,126.62,64.24,215.55,88.52,56.46-.46,113.52,1.76,171.01-18.43,.82,169.57,12.76,240.08,36.14,259.56,22.41,4.59,50.19,7.19,81.91,7.33,2.08,3.85,3.6,10.14,5.13,16.19,14.93-4.63,31.36-12.26,49.45-18.14l4.97-2.02c49.86-20.21,84.31-40.85,113.3-66.47Z" style="fill:#6998d0; fill-rule:evenodd;"/><path d="M1444.34,1533.14c46.46,2.17,81.19,3.79,97.54-.26,17.63-4.38,14.72-15.15,5.84-32.64-17.39,5.68-34.87,4.23-52.48-4.36-15.11,10.67-36.89,17.09-65.34,19.26-12.48,8.05-8.12,16.19,14.43,18h0Zm361.71,6.9c25.78-7.28,47.98-12.3,57.22-18.8,12.37-8.7,5.67-19.14-6.94-32.31-14.99,10.48-32.15,14.16-51.49,11.06-13.66,19.4-58.08,11.25-62.45,24.53-5.44,24.75,51.82,18.87,63.66,15.52Z" style="fill:#142d4d; fill-rule:evenodd;"/><path d="M1719.4,738.8c-21.16,12.76-45.38,24.22-72.9,35.28,19.89-1.46,40.78-3.77,62.44-6.99,4.55-9.69,7.97-18.83,10.47-28.29h0Zm-199.9-279.97c5.11-8.6,10.9-17.15,16.81-25.04-1.18-1.18-2.15-2.31-2.91-3.37-4.85,5.25-9.71,11.27-14.56,18.05,.12,3.53,.34,6.99,.66,10.36h0Zm-45.64,50.31c-.23-9.81,.53-23.63,2.28-41.46-4.05,19.36-12.23,35.44-24.57,48.23,7.42-1.92,14.85-4.15,22.29-6.77h0Zm109.1-56.03c-4.18-7.99-8.53-15.11-13.04-21.35-.85,.71-2.77,2.83-5.51,4.99,4.23,10.31,8.82,22.57,13.25,35.51,22-27.67,42.87-62.88,51.42-89.35-8.6,22.89-23.98,46.29-46.13,70.21h0Zm8.96,322.94c-14.66-.07-28.46-.65-41.29-1.73,4.47-4.52,9.05-8.36,13.72-11.51l-2.07-3.65c30.98-25.72,78.43-62.5,129.47-97.78-7.35-36.64-6.19-81.16,3.5-133.56-2.61,46.05,4.63,99.53,13.8,137.81-29.35,18.47-67.67,44.67-133.19,90.22,6.17,5.21,11.53,11.95,16.08,20.19Z" style="fill:#406fb5; fill-rule:evenodd;"/><path d="M1573.91,687.62c-4.31-66.39-9.55-147.18-14.8-247.42,5.59-2.83,9.5-7.32,10.82-8.44-5.35-7.41-10.94-13.58-16.75-18.53-6.59,4.32-13.18,10.05-19.78,17.19,2.03,2.84,5.58,6.1,10.64,9.83-4.89,61.69-9.91,145.75-15.06,252.18,2.81,9.88,11.32,19.96,22.35,27.61,7.19-5.8,19.18-16.49,22.58-32.43Z" style="fill:#0f3d86; fill-rule:evenodd;"/><path d="M1582.97,453.11c22.15-23.92,37.52-47.32,46.13-70.21-4.83-9.13-12.44-18.31-17.78-20.9-25.76,26.89-42.15,41.92-57.87,51.06-.09,.05-.18,.1-.27,.15-.2-.71-.41-1.43-.62-2.15-4.14-14.2-10.16-30.66-12.77-47.04-7.4,5.25-10.06,13.23-14.11,21.24-6.58,17.74-8.87,38.83-6.88,63.25,4.87-6.81,9.73-12.85,14.6-18.11,6.6-7.14,13.19-12.87,19.78-17.19,5.81,4.95,11.39,11.12,16.75,18.53,4.51,6.25,8.85,13.36,13.04,21.35Z" style="fill:#6998d0; fill-rule:evenodd;"/><path d="M1667.43,526.94c.84-3.71,1.08-7.95,.73-12.73-21.85,1.91-41.43,.46-58.67-4.59-1.83,3.49-2.65,7.24-2.44,11.25,13.27,4.97,33.4,6.99,60.39,6.07Z" style="fill:#406fb5; fill-rule:evenodd;"/><path d="M1611.04,362.17c-4-4.97-7.37-11.59-10.1-19.86,1.45-4.42,2.94-10,4.48-16.74,28.19-20.05,31.79-34.5,10.8-43.38-4.14,2.43-9.18,9.79-15.13,22.04-4.96-.09-8.78-2.55-11.44-7.36,5.47-20.59,8.95-37.29,10.47-50.09-14.55-20.65-47.59-22.93-91.13-16.34-1.77,11.67-3.17,24.01-4.18,37.03-7.57,7.28-6,33.62,1.76,63.85-3.18,17.35,7.69,26.56,32.61,27.6l.35,5.29c2.61,16.38,8.63,32.83,12.77,47.02l.9,2.01c15.71-9.14,32.1-24.18,57.86-51.06Z" style="fill:#f4ae7c; fill-rule:evenodd;"/><path d="M1508.98,230.43c43.54-6.59,76.58-4.31,91.13,16.34-1.52,12.8-5,29.5-10.47,50.09,2.66,4.81,6.48,7.27,11.44,7.36,5.95-12.25,11-19.61,15.13-22.04,20.99,8.88,17.39,23.33-10.8,43.38-1.54,6.74-3.03,12.32-4.48,16.74,25.62-6.33,46.66-29.8,49.48-39.83,28.75-59.82-5.27-84.1-23.4-92.83-9.16-58.43-93.14-4.8-136.39-32.14-16.45,23.78,5.13,52.68,18.35,52.92Z" style="fill:#0f3970; fill-rule:evenodd;"/><path d="M1572.09,354.83c-7.98,2.21-23.72,4.37-32.93,4.08l.35,5.29c.5,3.18,1.14,6.36,1.87,9.52,.09-.03,.18-.07,.28-.1,14.25-4.97,24.4-11.23,30.43-18.79Z" style="fill:#ed7d5b; fill-rule:evenodd;"/><path d="M1536.31,433.79c-1.06-1.05-2.03-2.17-2.91-3.37,9.59-10.19,16.41-15.72,20.47-16.59,2.9,5.23,6.56,13.22,10.54,22.92,2.74-2.17,4.66-4.28,5.51-4.99-5.14-7.1-10.49-13.08-16.05-17.93-5.29,4.3-11.14,10.95-17.56,19.96Z" style="fill:#1d2a53; fill-rule:evenodd;"/><path d="M1806.02,1478.66c2.04,7.01,2.84,14.29,2.39,21.82,15.88,1.89,30.24-.93,43.1-8.46-3.65-6.87-6.4-14.29-8.22-22.25-11.11,5.35-25.53,8.4-37.27,8.89h0Zm-262.11,22.71c-.76-6.57-1.08-12.94-.96-19.12-12.19,.13-25.79-.78-37.33-3.81-1.31,7.89-3.64,14.23-6.97,19.02,15.17,6.6,30.25,7.91,45.25,3.91Z" style="fill:#f4ae7c; fill-rule:evenodd;"/><path d="M1106.92,402.04c-5.72-15.31-12.72-24.15-20.97-26.53-18.55-8.27-34.99-17.55-49.31-27.87-5.77,7.06-1.18,14.39,13.76,21.99,6.24,3.45,10.76,6.86,13.55,10.22-15.55,7.34-23.1,16.59-22.65,27.76,2.21,8.61,5,13.55,8.37,14.84,1.59,.6,5.13,1.84,8.53-1.95,8.45,16.83,19.37,17.52,27.98,14.32,2.43,.53,3.22,.74,5.35,1.3,2.19-12.38,9.34-27.94,15.4-34.07Z" style="fill:#f4ae7c; fill-rule:evenodd;"/><path d="M1584.81,759.33c-14.03,5.73-26.9,12.27-38.62,19.62-10.47,17.62-13.25,31.33-8.32,41.13,8.41,9.01,17.25,5.05,24.29,3.22-.05-9.25,2.62-16.77,8-22.59,8.26,1.96,13.64-.11,16.14-6.22,3.37-.98,6.43-1.83,9.18-2.56,2.78-12.6-.19-19.86-4.67-25.8-1.9-2.34-3.98-4.53-6-6.79Z" style="fill:#f4ae7c; fill-rule:evenodd;"/><path d="M722.17,434.54c12.02-5.63,71.31-10.17,67.03,1.06-4.24,11.33,40.43,108.6,40.43,108.6l113.52-52.84,.05,.08c1.58-2.48,18.57-29.14,20.47-34.16,2-5.26,20.33-11.05,27.19-7.95,6.86,3.09-9.91,5.41-12.82,9.97-2.92,4.56,7.32,8.38,7.32,8.38,0,0,30.91-8.47,33.95-16.98,3.08-8.42,13.76-25.25,18.46-20.11,2.42,2.64-1.31,15.43-3.99,21.29,3.69-6.49,8.38-13.72,10.95-13.95,4.75-.37,5.29,5.58,3.75,8.14-1.57,2.48-17,30.16-20.05,32.98-3.02,2.71-56.13,27.45-64.5,33.58,0,0-136.31,100.38-145.87,101.96-8.35,1.44-37.01-43.75-53.19-80.89-16.14-37.07-80.23-81.42-42.72-99.15Z" style="fill:#f4ae7c; fill-rule:evenodd;"/><path d="M767.76,391.57s-6.06-6.59-17.38-5.74c-11.31,.74-26.15,15.08-28.22,20.28-1.07,2.55,6.04,23.46,9.13,28.03,1.83,2.75,6.03,4.14,7.5,2.65,.98-.96-.04-5.74-.32-6.69-.52-2.02-4.28-14.86-4.28-14.86,0,0,7.32,12.95,10.72,13.69,3.4,.85,5.3-1.91,5.09-2.97-1.03-5.52-6.73-16.14-6.73-16.14,0,0,8.57,12.63,12.78,11.25,4.2-1.27,2.46-5.74,1.84-7.32-.62-1.49-6.5-10.19-6.5-10.19,0,0,9.29,12.95,11.1,8.28,1.11-2.76-4.97-14.97-4.97-14.97l10.22-5.31Z" style="fill:#f3a992; fill-rule:evenodd;"/><path d="M794.88,293.59c5.84-26.54,11.56-53.19-3.83-82.39-12.46-23.57-34-37.15-58.94-40.13-70.63-8.38-76.85,54.68-143.95,82.39-28.66,11.78-58.07,8.38-83.68,23.67-46.26,27.5-70.81,104.79-40.14,176.77,75.1,176.33,252.19,60.94,274.96,26.22,16.95-25.79,51.82-169.43,55.57-186.52Z" style="fill:#0f3970; fill-rule:evenodd;"/><path d="M760.1,539.89l59.3-33.76s-26.94-113.59-74.94-117.21l15.64,150.96Z" style="fill:#406fb5; fill-rule:evenodd;"/><path d="M512.39,1407.24s-5.03,51.06-17.96,60.41c-12.94,9.45-30.17,44.05-21.56,62.84,2.69,5.84,8.08,9.23,14.22,11.15,18.16,5.62,37.49-3.82,45.22-21.23,4.33-9.66,8.11-22.62,8.88-38.97,1.95-41.4,14.86-62.53,14.86-62.53l-43.67-11.67Z" style="fill:#f4ae7c; fill-rule:evenodd;"/><path d="M711.09,1428.15s4.08,51.49,.76,68.27c-1.77,8.92-11.63,27.39-7.1,35.88,4.53,8.38,9.69,10.51,9.69,10.51l117.28,1.91c6.4,.11,2.18-4.03-2.98-7.75-8.43-6.27-15.22-10.3-42.17-23.35-1.76-.85-8.15-4.89-10.47-6.27-5.85-3.61-11.72-9.24-16.77-14.76-8.42-9.44-9.15-54.78-9.15-54.78l-39.1-9.66Z" style="fill:#f4ae7c; fill-rule:evenodd;"/><path d="M802.77,743.19s14.77,83.66,5.06,138.44c-9.7,54.89-56.25,563.31-56.25,563.31l-51.72,2.97s-10.85-212.43-8.91-241.94c1.94-29.51,17.28-78.99,17.28-78.99l-5.13-171.45,65.27-225.28,34.4,12.95Z" style="fill:#142d4d; fill-rule:evenodd;"/><path d="M650.73,725.57s-40.72,61.15-50.43,111.79c-9.69,50.64,7.13,206.27-11.54,272.63-10.09,35.88-48.37,91.41-54.19,137.8-5.81,46.39-28.64,167.95-28.64,167.95l51.71,10.19,120.16-303.52,94.25-274.53,24.15-141.3-145.47,19Z" style="fill:#142d4d; fill-rule:evenodd;"/><path d="M683.71,377.46s-27.93,4.56-48.73,24.95c-44.61,43.63,26.21,212.01,30.08,241.63,3.89,29.51-31.79,98.41-31.79,98.41,0,0,133.27,24.63,169.49,.74,0,0,4.25-237.06,.36-258.19-3.88-21.02-47.27-86.2-55.03-94.59-7.76-8.49-64.4-12.95-64.4-12.95Z" style="fill:#6998d0; fill-rule:evenodd;"/><path d="M701.66,305.48s-.29,1.59-.79,4.36c-2.4,12.95-11.67,55.84-17.91,67.62-7.57,14.23,25.88,59.77,58.06,54.25,9.57-1.7-8.1-41.83-7.25-46.07,1.62-8.18,3.83-19.21,6.08-30.69,1.27-6.37,2.57-12.84,3.78-19,3.44-17.41,6.25-31.64,6.25-31.64l-48.23,1.17Z" style="fill:#f4ae7c; fill-rule:evenodd;"/><path d="M700.87,309.84c.5-2.76,.79-4.36,.79-4.36l48.23-1.17s-2.81,14.23-6.25,31.64c-1.21,6.05-2.49,12.52-3.75,18.9-7.45-1.06-15.23-4.67-23.04-11.47-8.5-7.43-14.07-16.35-17.43-25.91,.58-3.08,1.08-5.62,1.45-7.64Z" style="fill:#ec724c; fill-rule:evenodd;"/><path d="M739.86,192.95s-17.09,2.65-29.47,21.13c-.74,20-16.57,76.54,5.02,106.16,30.77,30.89,61.17-4.04,65.68-41.2,.57-31.63,3.59-87.47-41.23-86.09Z" style="fill:#f4ae7c; fill-rule:evenodd;"/><path d="M757.27,186.57s-30.38,54.04-52.09,56.59c-21.72,2.45-24.58,31.21-24.58,31.21,0,0,7.77-66.25,29.27-78.99,21.51-12.74,47.4-8.81,47.4-8.81Z" style="fill:#0f3970; fill-rule:evenodd;"/><path d="M711.08,248.57c1.77,9.66-1.79,18.47-7.93,19.64-6.15,1.27-12.57-5.41-14.34-15.08-1.76-9.56,1.8-18.37,7.94-19.64,6.14-1.27,12.57,5.52,14.33,15.08Z" style="fill:#f4ae7c; fill-rule:evenodd;"/><path d="M535.85,1511.28c-28.19,5.2-46.93-11.25-56.68-23.57-7.17,13.91-11.55,31.32-6.29,42.78,4.64,10.09,17.27,12.85,27.95,13.27,11.29,.42,21.84-5.52,27.45-15.29,2.61-4.56,5.31-10.3,7.57-17.2Z" style="fill:#0f3970; fill-rule:evenodd;"/><path d="M776.1,1507.35c-31.02,7.96-53.95,2.55-66.78-2.65-3.31,9.34-7.68,21.13-5.36,27.81,2.84,8.39,6.9,10.19,10.48,10.3,28.34,.74,103.79,1.81,125.38,2.02,3.03,.11,4.71-3.4,2.75-5.73-5.36-6.37-64.15-30.37-66.47-31.74Z" style="fill:#0f3970; fill-rule:evenodd;"/><path d="M745.77,815.73c-17.95-14.62-19.56-11.03-21.83-13.02-2.67-2.31-16.46-47.29-16.46-47.29,0,0-41.59-132.51-43.59-139.75l15.7-141.38-67.08-29.68s-13.04,154.33-12.3,162.59c.7,8.26,77.22,181.21,83.5,196.69,0,0,.88,21.08,1.85,34.29,.93,13.11,7.62,25.42,8.44,29.05,.14,.62,3.59,12.73,11.77,26.65,7.05,11.97,5.68-2.56,5.68-2.56,0,0-9.16-24.43-7.19-24.79,1.55-.32,5.83,13.4,13.46,26.73,1.93,3.35,3.94,6.78,5.75,9.85,4.77,8.17,10.93,7.57,7.26-1.67-1.27-3.24-3.61-8.69-5.78-12.3-2.33-3.88-3.22-8.16-4.73-11.77-2.89-7.04-5.12-12.2-4.78-12.2,.43,.07,.83-1.75,3.02,1.84,2.67,4.33,6.32,14.69,10.66,20.66,2.46,3.39,7.21,10.89,7.21,10.89,0,0,9.23,9.97,9.97,9.6,4.03-1.76-.45-10.37-4.38-14.59-1.19-3.95-6.41-11.62-6.41-11.62,0,0-7.16-17.87-4.71-18.95,1.05-.37,6.72,10.06,13.84,19.53,6.63,8.75,14.69,16.55,16.54,15.45,3.17-1.68-3.19-12.2-3.19-12.2,0,0-4.79-7.04-6.24-9.56-1.67-2.89-6.05-11.98-6.05-11.98,0,0-13.76-32.33-11.33-33.08,2.39-.73,9.38-.06,10.91,1.64,1.53,1.7,2.74,6.31,4.27,8.01,1.54,1.7,4.94,2.63,7.11,.96,2.2-1.67-2.14-12.79-2.14-12.79,0,0-3.56-8.94-8.77-13.26Z" style="fill:#f4ae7c; fill-rule:evenodd;"/><path d="M593.63,561.29l83.53,1.49s22.29-84.28,12.25-126.34c-10.04-42.07-26.48-44.81-35.43-43.59-24.78,3.4-44.99,38.83-55.87,92.2-10.89,53.37-4.49,76.25-4.49,76.25Z" style="fill:#406fb5; fill-rule:evenodd;"/><path d="M597.63,885.27s66.95,141.26,58.82,151.94c-8.15,10.7-65.33-38.56-78.04-71.76-12.71-33.18,19.22-80.18,19.22-80.18Z" style="fill:#f4ae7c; fill-rule:evenodd;"/><path d="M690.58,916.73s-40.44,60.27-58.45,87.46c-9.89,14.92,15.68,34.25,24.32,33.03,8.62-1.21,41.42-96.17,41.42-96.17l-7.29-24.32Z" style="fill:#f4ae7c; fill-rule:evenodd;"/><path d="M475.5,919.45s-53.16-24.2-93.39-3.03c-40.22,21.17-15.63,195.91,41.89,212.85,0,0,107.76,34.46,51.5-209.83Z" style="fill:#0f3d86; fill-rule:evenodd;"/><path d="M656.34,1498.07s8.37,9.95,21.81,9.81c8.3-.09,16.02,2.43,21.65,7.13,4.97,4.18,2.94,12.29-3.39,13.74l-63.47,14.54c-6.11,1.4-12.09-2.78-12.89-8.98-.59-4.67-1.31-9.89-2.02-13.93-1.67-9.49,6-19.2,6-19.2l32.32-3.12Z" style="fill:#17305b; fill-rule:evenodd;"/><path d="M656.34,1498.07s3.72,4.04-32.32,3.12c0,0-31.97-146.67-39.12-156.51-1.7-2.33-14.14-29.93-18.57-37.9-.38-.68-8.57,16.23-8.96,15.54-14.51-26.06-37.18-69.75-38.82-76.39-2.21-8.94,23.87-123.69,45.26-120,15.99,2.79,29.79,9.98,35.75,13.44,2.01,1.18,3.13,1.92,3.13,1.92,0,0,.81,3.27,2.2,8.94,1.27,5.13,3.02,12.25,5.12,20.68,.26,1.05,.52,2.11,.79,3.22,11.85,48.23,32.93,134.14,36.13,148.76,4.47,20.55,9.41,175.2,9.41,175.2Z" style="fill:#f4ae7c; fill-rule:evenodd;"/><path d="M599.36,1116.18l46.88,170.33s-13.9,24.81-41.3,34.12c-19.31,6.55-51.38,4.37-51.38,4.37l-45.05-109.95,90.85-98.88Z" style="fill:#0f3d86; fill-rule:evenodd;"/><path d="M614.24,1170.27l-60.68,154.75c-14.51-26.06-33.37-72.45-35.01-79.09-2.21-8.94,23.87-123.69,45.26-120,15.99,2.79,29.79,9.98,35.75,13.44,2.01,1.18,5.14,.51,5.14,.51,0,0,1.89,1.93,3.28,7.6,1.27,5.13,4.17,14.37,6.25,22.8Z" style="fill:#0f3970; fill-rule:evenodd;"/><path d="M560.19,880.52l-54.62,27.91-10.95-37.89s6.96-13.11,10.11-34.59c1.32-9.03,1.97-19.54,1.13-31.18l44.5,22.78s-1.06,4.12-1.77,10.19c-.76,6.55-1.09,15.41,.77,23.81,1.61,7.21,4.84,14.1,10.83,18.97Z" style="fill:#f4ae7c; fill-rule:evenodd;"/><path d="M468.27,1152.63s-21.87,137.03-19.55,356.38l30.92,4s24.62-84.87,40.15-169.41c9.18-50,3.15-196.07,3.15-196.07l-54.66,5.1Z" style="fill:#f4ae7c; fill-rule:evenodd;"/><path d="M437.86,1135.35c.14,19.73-23.28,186.97-23.28,186.97,0,0,23.15,9.03,52.47,12.29,41.45,4.61,68.14-7.08,68.14-7.08l52.23-196.59-149.57,4.41Z" style="fill:#0f3d86; fill-rule:evenodd;"/><path d="M594.83,1151.15c-60.76,16.51-138.24,7.26-157.33,4.58-2.85-.39-4.4-.65-4.4-.65-6.72-1.62-11.29-7.63-11.29-14.32,0-.86,.08-1.74,.24-2.62l18.01-99.99-6.05-50.21-3.43-28.62-7.85-65.36c26.01-13.23,49.67-20.31,71.35-23.42,8.3,8.5,24.69,21.02,43.03,18.62,13.78-1.81,16.9-8.97,16.67-16.83,28.81,4.75,43.86,12.92,43.86,12.92l18.73,235.01c1.14,14.13-7.87,27.17-21.53,30.87Z" style="fill:#6998d0; fill-rule:evenodd;"/><path d="M494.08,870.54l-8.2,16.33-7.97,15.87-38.54,83.87c-6.19-8-51.17-23.85-51.17-23.85,0,0,20.43-51.49,34.53-68.79,4.06-4.97,11.67-9.02,20.48-12.26,7.26-2.7,15.34-4.83,22.88-6.49,15.07-3.3,28-4.69,28-4.69Z" style="fill:#6998d0; fill-rule:evenodd;"/><path d="M423.33,1123.72l5.34-26.48c79.2-114.58,91.36-138.05,55.75-189.49-10.2-14.74-31.45-24.74-39.02-26.82,7.27-2.7,17.31-4.9,24.85-6.56,7.52,3.53,15.16,7.88,20.52,12.52,108.7,94.11-67.44,236.85-67.44,236.85Z" style="fill:#0f3d86; fill-rule:evenodd;"/><path d="M476.84,1011.58c1.97-.14,10.51-4.42,10.51-4.42,0,0,8.07-29.09,35.3-33.91,0,0,12.91,.06,10.26,8.88-2.65,8.83-2.92,4.99-6.38,17.52-3.46,12.54-12.47,22.06-22.06,22.63l-9.82,2.66s-22.97-12.97-17.81-13.35Z" style="fill:#f4ae7c; fill-rule:evenodd;"/><path d="M487.36,1007.16s-52.04,4.72-59.73,8.13c0,0,4.22-11.42,11.73-28.68-6.79-6.68-29.08-16.59-43.85-21.16-11.26,28.74-15.59,57.18-9.27,84.59,.67,2.9,3.21,4.97,6.18,5.1,16.65,.79,71.91,.5,112.04-33.23l-17.09-14.75Z" style="fill:#f4ae7c; fill-rule:evenodd;"/><path d="M549.36,861.55c-25.3-.68-44.63-25.6-44.63-25.6l43.86,1.79c-.76,6.55-1.09,15.41,.77,23.81Z" style="fill:#e79055; fill-rule:evenodd;"/><path d="M560.13,850.06s-66.57,8.12-67.99-38.79c-1.42-46.88,26.32-77.27,44.85-76.92,36.93,.69,43.02,15.62,47.3,31.15,4.28,15.54,6.48,81.26-24.16,84.56Z" style="fill:#f4ae7c; fill-rule:evenodd;"/><path d="M479.77,1512.64s5.69,11.12,18.31,13.86c7.95,1.73,14.76,5.87,18.99,11.66,3.58,4.9,.12,11.8-5.95,11.8h-64.04c-5.46,0-9.71-4.71-9.16-10.13,.47-4.74,.97-10.27,1.19-14.51,.47-9.25,9.73-16.7,9.73-16.7l30.93,4.01Z" style="fill:#17305b; fill-rule:evenodd;"/><path d="M504.42,838.04s-43.77-32.14-43.77-70.42c0-47.51,29.24-60.46,70.05-62.77,40.81-2.31,69.83,32.2,58.89,50.04-10.94,17.84-24.4,13.6-50.17,10.7-25.77-2.88-24.69,20.83-35.64,19.68-10.95-1.15-14.14-4.92-15.01,2.61-.87,7.52,11.37,9.97,9.26,17.34-3.96,13.86,6.38,32.82,6.38,32.82Z" style="fill:#233f87; fill-rule:evenodd;"/><path d="M504.13,788.74s-8.91-11.71-14.98-8.68c-6.08,3.04-.22,20.4,4.33,22.78,4.56,2.38,9.59,4.12,10.65,3.03,1.07-1.08,0-17.13,0-17.13Z" style="fill:#f4ae7c; fill-rule:evenodd;"/><path d="M597.63,885.27s21.94,19.29,36.55,66.43c0,0,4.61,46.16-36.55,50.53-41.16,4.37,0-116.97,0-116.97Z" style="fill:#6998d0; fill-rule:evenodd;"/><path d="M487.36,1007.16s1.65-8.51,4.41-16.89c2.75-8.39,4.39-16.58,6.4-12.75,2.01,3.83,2.73,14.34,2.73,14.34l-13.54,15.3Z" style="fill:#f4ae7c; fill-rule:evenodd;"/><path d="M690.58,916.73s8.26-32.77,28.67-31.45c20.41,1.32,17.01,21.24,7.29,31.45-9.72,10.2-28.67,24.32-28.67,24.32l-7.29-24.32Z" style="fill:#f4ae7c; fill-rule:evenodd;"/><path d="M354.9,1520.29l-24.04,12.47s-14.38-18.74-27.23-41.35c-8.98-15.85-17.24-33.61-19.26-48.17-4.91-35.35-42.35-93.44-38.43-103.33,3.89-9.91,78.08-27.02,78.08-27.02,0,0,14.51,99.32,24.15,163.53,2.83,18.73,5.22,34.47,6.72,43.88Z" style="fill:#f4ae7c; fill-rule:evenodd;"/><path d="M354.9,1520.29l-24.04,12.47s-14.38-18.74-27.23-41.35c10-.76,27.38-3.76,44.54-14.99,2.83,18.73,5.22,34.47,6.72,43.88Z" style="fill:#e9eff8; fill-rule:evenodd;"/><path d="M300.27,1335.58s-30.38,42.86-48.79,103.11c-4.32,14.18-19.06,31.86-33.98,47.55-14.47,15.25-29.08,28.63-34.51,35.21l-24.47-11.78s8.59-24.68,21.31-47.09c4.75-8.34,10.04-16.33,15.66-22.66,7.81-8.73,5.24-118.97,13-126.23,7.78-7.26,91.78,21.89,91.78,21.89Z" style="fill:#f4ae7c; fill-rule:evenodd;"/><path d="M231.37,1138.99l.11,.07-.11-.07Z" style="fill:#f4ae7c; fill-rule:evenodd;"/><path d="M294.14,1176.87l-62.67-37.81c.35-.14,1.62-2.03,6.29-15.59,2-5.78,3.08-10.78,3.59-14.76,.05-.4,.08-.78,.14-1.17,.64-5.78,.18-9.11,.18-9.11l13.72,4.97,25.38,9.19c-.3,6.44,.6,10.97,1.97,14.07,3.33,7.57,9.5,7.6,9.66,7.6l1.73,42.61Z" style="fill:#f4ae7c; fill-rule:evenodd;"/><path d="M282.75,1126.66c-24.54,2.09-38.34-13.91-41.39-17.95-.46-.59-.68-.92-.68-.92,0,0,.27-.09,.81-.24,1.99-.59,7.4-2.22,13.91-4.14l25.38,9.19c-.3,6.44,.6,10.97,1.97,14.07Z" style="fill:#ed9659; fill-rule:evenodd;"/><path d="M283.96,1117.85s-54.49,6-55.63-30.87c-1.11-36.86-9.15-53.73,28.57-57.01,37.7-3.28,46.61,10.31,48.83,22.78,6.95,38.95-6.4,63.45-21.78,65.11Z" style="fill:#f4ae7c; fill-rule:evenodd;"/><path d="M301.51,1137.96s52.27-40.15,57.84-53.46c5.58-13.3,29.58-61.97,35.78-66.93,0,0,13-1.67,14.85,7.32,1.86,9-12.37,62.39-22.29,78.5-9.92,16.12-57.45,70.77-73.06,78.7l-13.12-44.14Z" style="fill:#f4ae7c; fill-rule:evenodd;"/><path d="M428.53,992.97c-.87,4.65-2.75,9.65-5,12.25-2.93,3.44-7.59,10.34-10.51,14.82-1.89,2.76-3.11,4.83-3.11,4.83l-14.82-7.24s-.35-25.17,9.48-30.51c.35-.17,.52-.34,.86-.34,4.14-2.24,8.12-3.78,11.56-4.83,4.65-1.2,8.27-1.36,10.35-.17,1.88,1.04,2.24,6.03,1.2,11.21Z" style="fill:#f4ae7c; fill-rule:evenodd;"/><path d="M259.82,1047.97c-19.31-4.88-11.91,29.29-16.8,26.95-5.46-2.62-14.82-2.58-13.34,4,1.49,6.58,3.62,8.94,4.72,13.04,1.11,4.12,0,12.26-4.48,10.62-4.48-1.65-46.2-49.28-16.74-86.37,29.44-37.11,117.28-14.25,89.61,24.56-4.86,6.83-29.23,10.67-42.98,7.19Z" style="fill:#0f3d86; fill-rule:evenodd;"/><path d="M351.61,1406.87s-53.62,11.25-79.17,7.78c-34.43-4.67-64.95-5.44-97.17-22.83,0,0,17.12-85.05,18.18-89.17,1.51-5.96,12.45-51.64,22.58-93.92,9.23-38.67,17.8-74.48,17.8-74.48,0,0,25.52,18.15,40.43,11.75,14.87-6.41,12.96-13.64,12.96-13.64,0,0,9.73-3.93,14.3-2.48,4.55,1.43,17.51-5.91,17.51-5.91,0,0,14.32,11.07,14.85,34.81,.1,3.5-.11,7.31-.74,11.39l-10.32,11.89s23.32,142.4,28.8,224.79Z" style="fill:#6998d0; fill-rule:evenodd;"/><path d="M394.71,1549.83h-71.78s-1.36-11.68,.29-21.66c.2-1.21,.83-2.31,1.78-3.27,4.2,1.42,10.37,2.43,17.25-.04,5.62-2.03,9.79-5.1,12.69-7.9,.74,.71,15.58,14.85,22.43,14.85s17.77,3.39,17.35,18.02Z" style="fill:#17305b; fill-rule:evenodd;"/><path d="M217.51,1486.24c-14.47,15.25-29.08,28.63-34.51,35.21l-24.47-11.78s8.59-24.68,21.31-47.09c4.4,6.82,15.88,20.84,37.67,23.66Z" style="fill:#e9eff8; fill-rule:evenodd;"/><path d="M188.32,1515.12s-.89,15.58,4.3,17.64c5.18,2.08,14.88,7.18,14.88,17.07h-35.97s-24.79-12.19-28.08-17.37c-3.32-5.18,16.53-27.3,16.53-27.3,0,0,12.18,13.46,28.35,9.97Z" style="fill:#17305b; fill-rule:evenodd;"/><path d="M247.81,1261.84s15.75-2.94,21.9,1.09c6.16,4.03,7.97,10.35,3.54,12.92-13.91,8.07-27.98-.84-27.98-.84l2.53-13.16Z" style="fill:#f4ae7c; fill-rule:evenodd;"/><path d="M234.47,1139.19s-48.5,10.28-67.62,85.66c-1.86,7.38,.05,15.25,5.16,20.9,8.8,9.75,28.17,24,73.26,29.25,4.91,.58,5.59-11.92,5.59-11.92-.48,.99-30.65-19.47-43.45-30.47-2.32-1.98-2.24-6.16-.56-8.72,4.34-6.62,11.61-18.05,14.04-23.92,3.59-8.55,27.14-56.9,13.58-60.78Z" style="fill:#f4ae7c; fill-rule:evenodd;"/><path d="M233.85,1134.26s-28.51,2.04-51.77,33.04c0,0,7.86,28.51,44.8,36.12,0,0,22.77-51.34,6.97-69.16Z" style="fill:#6998d0; fill-rule:evenodd;"/><path d="M226.88,1004.88s-27.44-7.45-45.88,12.57c-18.44,20.02,8.43,56.73-17.36,76.83-25.79,20.1-15.58,35.09-5.11,39.98,23.55,11.02,59.52-2.68,52.2-21.27-14.07-35.7,6.78-62.9,6.78-62.9l9.37-45.21Z" style="fill:#0f3d86; fill-rule:evenodd;"/></svg>