<?xml version="1.0" encoding="UTF-8"?><svg id="a" xmlns="http://www.w3.org/2000/svg" viewBox="0 0 2125.52 1483.77"><path d="M1926.91,889.49s-28.31,18.93-59.05,24.27c6.4-11.45,12.75-24.38,18.67-38.95h-2.98s-20.36,55.19-62.67,90.51c-2.53-68.47-5.01-140.56-7.01-208.35,18.26-12.65,85.43-61.75,122.28-123.96l-2.62-.52s-14.81,27.46-54.25,62.06c4.89-49.63,18.77-88.12,18.77-88.12l-2.19,.52c-13.43,35.42-20.22,78.62-22.17,92.41-16.13,13.62-36.03,28.16-60.26,42.47-1.2-41.92-2.19-81.89-2.89-118.02,17.5-8.67,69.1-41.71,103.02-141.7l-4.7-2.24s-14.22,83.43-98.67,124.09c-.83-50.15-.97-91.45-.09-117.94l-11.33-.49s-.68,35.31-1.72,87.98c-12.27-2.13-53.87-12.67-91.61-60.75h-1.75s34.15,54.76,93.19,69.76c-.6,30.06-1.3,65.1-2.05,102.12-10.96-5.19-21.19-13.97-29.91-23.4,1.2-10.94,1.06-35.92,1.06-35.92l-.86-.21c-.69,9.07-3.29,25.62-4.25,31.57-14.51-16.81-23.96-33.8-23.96-33.8l-1.78,.23c17.74,38,48.41,66.08,59.42,75.36-1.69,83.38-3.6,174.75-5.15,241.17-18.49-7.86-104.38-50.12-145.6-172.06h-4.25s4.88,15.36,14.89,37.99c-7.8-1.84-36.11-10.13-53.58-36.98l-3.4-.51s15.86,31.72,60.82,45.95c22.29,48.07,64.97,120.96,130.37,156.7-.16,6.88-.33,13.34-.48,19.29-3.39,130.92-16.93,296.07-16.93,296.07h62.62s-6.36-142.78-12.58-310.06c8.97-8.66,24.48-25.56,40.49-51.82,5.12-.96,27.35-6.36,67.28-33.2l-2.12-1.52Z" style="fill:#8fa3cf; fill-rule:evenodd;"/><path d="M1589.11,718.94s-27.45-4.08-41.18,11.23c-13.73,15.31-.43,17.86-.43,17.86,0,0-12.02,6.63-11.16,9.19,.86,2.55,9.01-1.02,9.01-1.02,0,0,4.71,22.46,27.03,20.93,22.31-1.53,39.03-11.23,39.03-11.23,0,0,2.58,8.68,10.3,10.72,7.73,2.03,30.03,1.02,48.04-15.83,0,0,3.01,11.74,12.02,10.21,9-1.52,5.15-10.71,5.15-10.71,0,0,24.02,.5,39.03-10.72,15.02-11.23,3.87-21.95,3.87-21.95,0,0,21.88-11.23,20.15-25.52-1.71-14.3-18.88-12.25-18.88-12.25,0,0,8.16-30.63-33.88-32.16-42.04-1.53-45.9,13.78-45.9,13.78,0,0-9.86-12.76-23.17-10.21-13.3,2.55-6.43,8.68-6.43,8.68,0,0-24.03-3.06-39.47,8.17-15.44,11.22,6.87,40.83,6.87,40.83Z" style="fill:#b0c2e4; fill-rule:evenodd;"/><path d="M2004.2,828.33s37.24-8.38,66.3,2.91c20.34,7.9,12.16,13.39,12.16,13.39,0,0,13.96-2.14,18.91,1.61,4.95,3.75-.45,5.35-.45,5.35,0,0,30.17,1.6,23.42,26.25-6.76,24.65-48.18,27.86-48.18,27.86,0,0,12.61,12.86-10.35,13.93-22.96,1.07-47.28-13.93-47.28-13.93,0,0-2.26,11.79-20.71,12.32-18.46,.54-34.22-8.04-34.22-8.04,0,0-4.95,5.35-12.6,2.68-7.66-2.68-5.86-11.79-5.86-11.79,0,0-18.91,12.86-34.67-9.11,0,0-4.95,3.22-12.16,1.61-7.2-1.61-5.4-8.57-5.4-8.57,0,0-21.61,6.96-32.87,5.36-11.25-1.61-13.95-14.47-13.95-14.47,0,0-8.11,6.97-12.6,4.29-4.51-2.68-3.6-7.51-3.6-7.51,0,0-13.96-3.74-18.46-18.21-4.51-14.47,9.9-27.86,9.9-27.86,0,0-5.86-19.82,20.26-29.47,26.11-9.65,20.7,12.32,20.7,12.32,0,0,13.96-10.72,21.61-9.1,7.66,1.6,4.95,6.96,4.95,6.96,0,0,52.23-24.64,79.69-14.99,27.47,9.64,20.26,25.18,20.26,25.18,0,0,9.46-4.28,13.51-1.07,4.05,3.21,1.69,12.09,1.69,12.09Z" style="fill:#b0c2e4; fill-rule:evenodd;"/><path d="M1703.31,595.1s-8.88,0-13.19,5.46c-4.29,5.46,7.17,11.26,7.17,11.26,0,0-8.6,11.94,3.44,16.37,12.04,4.44,17.78-5.45,17.78-5.45,0,0,8.03,14.33,30.1,1.7,0,0,1.43,5.11,4.01,5.11s4.88-5.8,4.88-5.8c0,0,13.76,12.27,24.94,7.16,3.72-1.7,1.72-10.23,1.72-10.23,0,0,13.76,0,15.19-6.49,1.43-6.48-.86-14.32-13.19-18.07,0,0,2.29-7.51-8.88-9.55-11.17-2.05-12.33,2.73-12.33,2.73,0,0-5.15-7.85-14.9-6.82-9.75,1.03-7.45,4.1-7.45,4.1,0,0-10.32-9.55-23.79-6.82-13.47,2.72-15.48,15.35-15.48,15.35Z" style="fill:#b0c2e4; fill-rule:evenodd;"/><path d="M2072.35,542.2s12.67-1.15,21.92,10.43c9.24,11.58-3.42,24.33-3.42,24.33,0,0,11.21,2.9,9.75,8.12-1.46,5.21-13.16,12.74-13.16,12.74,0,0,12.67,19.7-10.71,37.09-23.37,17.38-36.52,6.37-36.52,6.37,0,0-4.87,17.96-23.86,19.7-18.99,1.74-28.73-15.64-28.73-15.64,0,0-9.25,12.75-16.56,9.85-7.3-2.9-6.32-9.28-6.32-9.28,0,0-21.91,22.02-43.34-11.01,0,0-4.87,4.63-12.17-2.32-7.31-6.95-3.91-9.27-3.91-9.27,0,0-17.52,2.32-23.85-10.43-6.34-12.75,1.46-21.44,1.46-21.44,0,0-4.87-7.53-3.9-12.17,.98-4.64,5.35,.57,5.35,.57,0,0-8.28-30.13,22.41-45.77,30.68-15.64,53.07-4.06,53.07-4.06,0,0,1.46-13.91,25.32-16.22,23.86-2.32,24.83,15.06,24.83,15.06,0,0,4.39-9.85,12.65-11.01,8.28-1.16,4.87,6.38,4.87,6.38,0,0,29.22-13.33,44.8-3.48,15.59,9.84,0,21.43,0,21.43Z" style="fill:#b0c2e4; fill-rule:evenodd;"/><path d="M1733.6,382.99s-23.29-10.9-46.6-4.95c-23.3,5.94-15.82,21.78-15.82,21.78,0,0-21.63-8.91-28.29-3.96-6.66,4.96-1.67,7.93-1.67,7.93,0,0-22.47-13.86-58.25,7.92-35.78,21.79-29.13,45.56-29.13,45.56,0,0-14.98,13.86-5.83,32.68,9.16,18.82,30.8,14.85,30.8,14.85,0,0-3.33,12.87,4.99,15.85,8.32,2.96,16.64-4.95,16.64-4.95,0,0,12.49,24.75,46.61,22.77,34.13-1.98,41.61-13.86,41.61-13.86,0,0,29.96,10.9,45.76-18.82,0,0,8.33,13.87,19.15,14.86,10.82,.98,11.65-6.94,11.65-6.94,0,0,34.12,15.85,59.08,2.97,24.97-12.87,33.29-26.74,33.29-26.74,0,0,8.32,11.88,13.31,10.89,4.99-.99,11.65-14.85,11.65-14.85,0,0,25.8,24.75,52.43,13.86,26.63-10.89,24.14-26.74,24.14-26.74,0,0,11.65-5.94,13.31-15.84,1.67-9.9-9.99-7.92-9.99-7.92,0,0,16.64-11.88,11.65-24.75-4.99-12.88-26.63-12.88-26.63-12.88,0,0,13.31-12.87,5-25.74-8.33-12.87-23.31-9.91-23.31-9.91,0,0,15.81-12.87,.84-43.56-14.99-30.7-64.92-20.8-64.92-20.8,0,0-3.32-15.84-20.8-13.86-17.47,1.98-12.48,13.86-12.48,13.86,0,0-24.97-19.81-58.26-5.94-33.29,13.86-21.63,27.73-21.63,27.73,0,0-15.81,1.98-22.47,15.85-6.66,13.86,4.16,33.66,4.16,33.66Z" style="fill:#b0c2e4; fill-rule:evenodd;"/><path d="M1974.11,424.58c-4.99-12.88-26.63-12.88-26.63-12.88,0,0,13.31-12.87,5-25.74-8.33-12.87-23.31-9.91-23.31-9.91,0,0,15.81-12.87,.84-43.57-14.99-30.69-64.92-20.79-64.92-20.79,0,0-3.32-15.84-20.8-13.86-17.47,1.98-12.48,13.86-12.48,13.86,0,0-24.97-19.81-58.26-5.94-33.29,13.86-21.63,27.73-21.63,27.73,0,0-15.81,1.98-22.47,15.85-6.66,13.86,4.16,33.66,4.16,33.66,0,0-23.29-10.9-46.6-4.95-23.3,5.94-15.82,21.78-15.82,21.78,0,0-21.63-8.91-28.29-3.96-6.66,4.96-1.67,7.93-1.67,7.93,0,0-22.47-13.86-58.25,7.92-2.94,1.8-5.5,3.6-7.9,5.4,50.27,29.41,119.99,50.07,197.74,55.11,73.53,4.77,141.21-5.28,192.89-25.61,4.56-4.23,11.96-12.87,8.4-22.02Z" style="fill:#c4d1eb; fill-rule:evenodd;"/><path d="M2124.54,877.85c6.75-24.65-23.42-26.25-23.42-26.25,0,0,5.4-1.6,.45-5.35-4.95-3.75-18.91-1.61-18.91-1.61,0,0,8.19-5.49-12.16-13.39-29.06-11.3-66.3-2.91-66.3-2.91,0,0,2.36-8.88-1.69-12.09-4.04-3.21-13.51,1.07-13.51,1.07,0,0,7.21-15.54-20.26-25.18-27.46-9.65-79.69,14.99-79.69,14.99,0,0,2.7-5.35-4.95-6.96-7.66-1.61-21.61,9.1-21.61,9.1,0,0,5.4-21.97-20.7-12.32-4.35,1.6-7.74,3.5-10.48,5.53,31.34,37.05,91.85,70.06,164.21,85.27,42.63,8.96,83.17,10.42,117.5,5.63,5.35-3.87,9.69-8.91,11.51-15.54Z" style="fill:#c4d1eb; fill-rule:evenodd;"/><path d="M1729.82,727.61s21.88-11.23,20.15-25.52c-1.71-14.3-18.88-12.25-18.88-12.25,0,0,8.16-30.63-33.88-32.16-42.04-1.53-45.9,13.78-45.9,13.78,0,0-9.86-12.76-23.17-10.21-13.3,2.55-6.43,8.68-6.43,8.68,0,0-24.03-3.06-39.47,8.17-15.44,11.22,6.87,40.83,6.87,40.83,0,0-14.25-2.08-27.35,2.46,21.68,11.57,50.51,19.62,82.41,21.68,33.8,2.19,64.77-2.74,87.85-12.51-1.05-1.85-2.19-2.96-2.19-2.96Z" style="fill:#c4d1eb; fill-rule:evenodd;"/><path d="M1754.03,619.07c10.77,2.38,21.11,3.18,30.31,2.62-.1-.59-.19-1-.19-1,0,0,13.76,0,15.19-6.49,1.43-6.48-.86-14.32-13.19-18.07,0,0,2.29-7.51-8.88-9.55-11.17-2.05-12.33,2.73-12.33,2.73,0,0-5.15-7.85-14.9-6.82-9.75,1.03-7.45,4.1-7.45,4.1,0,0-10.32-9.55-23.79-6.82-9.58,1.94-13.32,8.82-14.7,12.67,9.45,11.44,27.83,21.75,49.93,26.64Z" style="fill:#c4d1eb; fill-rule:evenodd;"/><path d="M2090.46,615.11c1.77-9.8-3.01-17.29-3.01-17.29,0,0,11.69-7.53,13.16-12.74,1.46-5.22-9.75-8.12-9.75-8.12,0,0,12.66-12.75,3.42-24.33-9.25-11.59-21.92-10.43-21.92-10.43,0,0,15.59-11.59,0-21.43-15.58-9.85-44.8,3.48-44.8,3.48,0,0,3.41-7.54-4.87-6.38-8.27,1.16-12.65,11.01-12.65,11.01,0,0-.98-17.38-24.83-15.06-23.87,2.31-25.32,16.22-25.32,16.22,0,0-22.39-11.59-53.07,4.06-10.28,5.24-16.12,12.11-19.44,18.92,18.56,33.16,75.36,59.95,143.66,64.38,20.97,1.36,41.05,.48,59.44-2.28Z" style="fill:#c4d1eb; fill-rule:evenodd;"/><path d="M390.61,889.49s-28.31,18.93-59.05,24.27c6.41-11.45,12.76-24.38,18.67-38.95h-2.98s-20.36,55.19-62.67,90.51c-2.53-68.47-5.01-140.56-7.01-208.35,18.26-12.65,85.43-61.75,122.29-123.96l-2.63-.52s-14.8,27.46-54.25,62.06c4.89-49.63,18.77-88.12,18.77-88.12l-2.18,.52c-13.44,35.42-20.23,78.62-22.17,92.41-16.14,13.62-36.03,28.16-60.26,42.47-1.21-41.92-2.2-81.89-2.89-118.02,17.5-8.67,69.09-41.71,103.01-141.7l-4.7-2.24s-14.21,83.43-98.67,124.09c-.83-50.15-.97-91.45-.09-117.94l-11.33-.49s-.68,35.31-1.73,87.98c-12.26-2.13-53.86-12.67-91.61-60.75h-1.75s34.16,54.76,93.19,69.76c-.6,30.06-1.29,65.1-2.05,102.12-10.95-5.19-21.19-13.97-29.9-23.4,1.2-10.94,1.05-35.92,1.05-35.92l-.85-.21c-.7,9.07-3.29,25.62-4.25,31.57-14.51-16.81-23.96-33.8-23.96-33.8l-1.79,.23c17.74,38,48.41,66.08,59.43,75.36-1.7,83.38-3.61,174.75-5.15,241.17-18.49-7.86-104.38-50.12-145.6-172.06h-4.25s4.88,15.36,14.89,37.99c-7.8-1.84-36.11-10.13-53.58-36.98l-3.4-.51s15.86,31.72,60.83,45.95c22.29,48.07,64.97,120.96,130.37,156.7-.16,6.88-.33,13.34-.48,19.29-3.39,130.92-16.93,296.07-16.93,296.07h62.63s-6.37-142.78-12.59-310.06c8.97-8.66,24.49-25.56,40.5-51.82,5.12-.96,27.34-6.36,67.27-33.2l-2.12-1.52Z" style="fill:#8fa3cf; fill-rule:evenodd;"/><path d="M52.81,718.94s-27.46-4.08-41.19,11.23c-13.72,15.31-.43,17.86-.43,17.86,0,0-12.01,6.63-11.16,9.19,.86,2.55,9.01-1.02,9.01-1.02,0,0,4.72,22.46,27.03,20.93,22.31-1.53,39.03-11.23,39.03-11.23,0,0,2.58,8.68,10.3,10.72,7.73,2.03,30.03,1.02,48.04-15.83,0,0,3.01,11.74,12.02,10.21,9-1.52,5.14-10.71,5.14-10.71,0,0,24.02,.5,39.04-10.72,15.01-11.23,3.86-21.95,3.86-21.95,0,0,21.87-11.23,20.16-25.52-1.72-14.3-18.88-12.25-18.88-12.25,0,0,8.15-30.63-33.89-32.16-42.04-1.53-45.9,13.78-45.9,13.78,0,0-9.86-12.76-23.16-10.21-13.3,2.55-6.44,8.68-6.44,8.68,0,0-24.02-3.06-39.46,8.17-15.44,11.22,6.87,40.83,6.87,40.83Z" style="fill:#b0c2e4; fill-rule:evenodd;"/><path d="M467.9,828.33s37.24-8.38,66.3,2.91c20.35,7.9,12.16,13.39,12.16,13.39,0,0,13.96-2.14,18.92,1.61,4.95,3.75-.45,5.35-.45,5.35,0,0,30.16,1.6,23.41,26.25-6.76,24.65-48.17,27.86-48.17,27.86,0,0,12.61,12.86-10.36,13.93-22.96,1.07-47.28-13.93-47.28-13.93,0,0-2.25,11.79-20.7,12.32-18.47,.54-34.23-8.04-34.23-8.04,0,0-4.94,5.35-12.6,2.68-7.66-2.68-5.85-11.79-5.85-11.79,0,0-18.91,12.86-34.67-9.11,0,0-4.96,3.22-12.17,1.61-7.2-1.61-5.39-8.57-5.39-8.57,0,0-21.61,6.96-32.87,5.36-11.26-1.61-13.96-14.47-13.96-14.47,0,0-8.11,6.97-12.61,4.29-4.5-2.68-3.6-7.51-3.6-7.51,0,0-13.96-3.74-18.46-18.21-4.51-14.47,9.9-27.86,9.9-27.86,0,0-5.85-19.82,20.26-29.47,26.11-9.65,20.7,12.32,20.7,12.32,0,0,13.96-10.72,21.61-9.1,7.66,1.6,4.96,6.96,4.96,6.96,0,0,52.23-24.64,79.69-14.99,27.46,9.64,20.26,25.18,20.26,25.18,0,0,9.45-4.28,13.51-1.07,4.05,3.21,1.68,12.09,1.68,12.09Z" style="fill:#b0c2e4; fill-rule:evenodd;"/><path d="M167.01,595.1s-8.89,0-13.19,5.46c-4.3,5.46,7.17,11.26,7.17,11.26,0,0-8.6,11.94,3.44,16.37,12.04,4.44,17.77-5.45,17.77-5.45,0,0,8.03,14.33,30.1,1.7,0,0,1.44,5.11,4.01,5.11s4.87-5.8,4.87-5.8c0,0,13.76,12.27,24.94,7.16,3.73-1.7,1.72-10.23,1.72-10.23,0,0,13.76,0,15.2-6.49,1.43-6.48-.86-14.32-13.19-18.07,0,0,2.29-7.51-8.88-9.55-11.18-2.05-12.33,2.73-12.33,2.73,0,0-5.16-7.85-14.9-6.82-9.75,1.03-7.45,4.1-7.45,4.1,0,0-10.32-9.55-23.8-6.82-13.47,2.72-15.47,15.35-15.47,15.35Z" style="fill:#b0c2e4; fill-rule:evenodd;"/><path d="M536.05,542.2s12.66-1.15,21.91,10.43c9.24,11.58-3.41,24.33-3.41,24.33,0,0,11.2,2.9,9.74,8.12-1.46,5.21-13.15,12.74-13.15,12.74,0,0,12.66,19.7-10.72,37.09-23.37,17.38-36.51,6.37-36.51,6.37,0,0-4.87,17.96-23.87,19.7-18.99,1.74-28.73-15.64-28.73-15.64,0,0-9.24,12.75-16.55,9.85-7.31-2.9-6.33-9.28-6.33-9.28,0,0-21.91,22.02-43.34-11.01,0,0-4.87,4.63-12.17-2.32-7.31-6.95-3.9-9.27-3.9-9.27,0,0-17.53,2.32-23.86-10.43-6.33-12.75,1.46-21.44,1.46-21.44,0,0-4.87-7.53-3.9-12.17,.97-4.64,5.35,.57,5.35,.57,0,0-8.28-30.13,22.4-45.77,30.68-15.64,53.07-4.06,53.07-4.06,0,0,1.46-13.91,25.32-16.22,23.87-2.32,24.83,15.06,24.83,15.06,0,0,4.39-9.85,12.66-11.01,8.28-1.16,4.87,6.38,4.87,6.38,0,0,29.22-13.33,44.8-3.48,15.58,9.84,0,21.43,0,21.43Z" style="fill:#b0c2e4; fill-rule:evenodd;"/><path d="M197.3,382.99s-23.3-10.9-46.61-4.95c-23.3,5.94-15.81,21.78-15.81,21.78,0,0-21.63-8.91-28.3-3.96-6.66,4.96-1.66,7.93-1.66,7.93,0,0-22.47-13.86-58.26,7.92-35.78,21.79-29.13,45.56-29.13,45.56,0,0-14.98,13.86-5.83,32.68,9.16,18.82,30.79,14.85,30.79,14.85,0,0-3.33,12.87,4.99,15.85,8.32,2.96,16.64-4.95,16.64-4.95,0,0,12.48,24.75,46.61,22.77,34.12-1.98,41.6-13.86,41.6-13.86,0,0,29.96,10.9,45.77-18.82,0,0,8.32,13.87,19.14,14.86,10.82,.98,11.65-6.94,11.65-6.94,0,0,34.12,15.85,59.08,2.97,24.96-12.87,33.28-26.74,33.28-26.74,0,0,8.32,11.88,13.32,10.89,4.99-.99,11.65-14.85,11.65-14.85,0,0,25.8,24.75,52.43,13.86,26.62-10.89,24.13-26.74,24.13-26.74,0,0,11.65-5.94,13.32-15.84,1.66-9.9-10-7.92-10-7.92,0,0,16.64-11.88,11.65-24.75-4.99-12.88-26.62-12.88-26.62-12.88,0,0,13.31-12.87,4.99-25.74-8.32-12.87-23.3-9.91-23.3-9.91,0,0,15.81-12.87,.83-43.56-14.98-30.7-64.91-20.8-64.91-20.8,0,0-3.32-15.84-20.81-13.86-17.47,1.98-12.48,13.86-12.48,13.86,0,0-24.96-19.81-58.26-5.94-33.28,13.86-21.63,27.73-21.63,27.73,0,0-15.82,1.98-22.48,15.85-6.65,13.86,4.17,33.66,4.17,33.66Z" style="fill:#b0c2e4; fill-rule:evenodd;"/><path d="M437.8,424.58c-4.99-12.88-26.62-12.88-26.62-12.88,0,0,13.31-12.87,4.99-25.74-8.32-12.87-23.3-9.91-23.3-9.91,0,0,15.81-12.87,.83-43.57-14.98-30.69-64.91-20.79-64.91-20.79,0,0-3.32-15.84-20.81-13.86-17.47,1.98-12.48,13.86-12.48,13.86,0,0-24.96-19.81-58.26-5.94-33.28,13.86-21.63,27.73-21.63,27.73,0,0-15.82,1.98-22.48,15.85-6.65,13.86,4.17,33.66,4.17,33.66,0,0-23.3-10.9-46.61-4.95-23.3,5.94-15.81,21.78-15.81,21.78,0,0-21.63-8.91-28.3-3.96-6.66,4.96-1.66,7.93-1.66,7.93,0,0-22.47-13.86-58.26,7.92-2.94,1.8-5.51,3.6-7.9,5.4,50.28,29.41,120,50.07,197.74,55.11,73.54,4.77,141.21-5.28,192.89-25.61,4.57-4.23,11.96-12.87,8.4-22.02Z" style="fill:#c4d1eb; fill-rule:evenodd;"/><path d="M588.23,877.85c6.75-24.65-23.41-26.25-23.41-26.25,0,0,5.4-1.6,.45-5.35-4.95-3.75-18.92-1.61-18.92-1.61,0,0,8.19-5.49-12.16-13.39-29.06-11.3-66.3-2.91-66.3-2.91,0,0,2.37-8.88-1.68-12.09-4.05-3.21-13.51,1.07-13.51,1.07,0,0,7.2-15.54-20.26-25.18-27.46-9.65-79.69,14.99-79.69,14.99,0,0,2.7-5.35-4.96-6.96-7.66-1.61-21.61,9.1-21.61,9.1,0,0,5.41-21.97-20.7-12.32-4.34,1.6-7.73,3.5-10.48,5.53,31.34,37.05,91.85,70.06,164.21,85.27,42.63,8.96,83.17,10.42,117.5,5.63,5.35-3.87,9.7-8.91,11.51-15.54Z" style="fill:#c4d1eb; fill-rule:evenodd;"/><path d="M193.51,727.61s21.87-11.23,20.16-25.52c-1.72-14.3-18.88-12.25-18.88-12.25,0,0,8.15-30.63-33.89-32.16-42.04-1.53-45.9,13.78-45.9,13.78,0,0-9.86-12.76-23.16-10.21-13.3,2.55-6.44,8.68-6.44,8.68,0,0-24.02-3.06-39.46,8.17-15.44,11.22,6.87,40.83,6.87,40.83,0,0-14.25-2.08-27.35,2.46,21.68,11.57,50.5,19.62,82.4,21.68,33.8,2.19,64.77-2.74,87.86-12.51-1.06-1.85-2.2-2.96-2.2-2.96Z" style="fill:#c4d1eb; fill-rule:evenodd;"/><path d="M217.73,619.07c10.77,2.38,21.11,3.18,30.31,2.62-.1-.59-.19-1-.19-1,0,0,13.76,0,15.2-6.49,1.43-6.48-.86-14.32-13.19-18.07,0,0,2.29-7.51-8.88-9.55-11.18-2.05-12.33,2.73-12.33,2.73,0,0-5.16-7.85-14.9-6.82-9.75,1.03-7.45,4.1-7.45,4.1,0,0-10.32-9.55-23.8-6.82-9.58,1.94-13.31,8.82-14.7,12.67,9.45,11.44,27.83,21.75,49.94,26.64Z" style="fill:#c4d1eb; fill-rule:evenodd;"/><path d="M554.15,615.11c1.77-9.8-3.01-17.29-3.01-17.29,0,0,11.69-7.53,13.15-12.74,1.46-5.22-9.74-8.12-9.74-8.12,0,0,12.65-12.75,3.41-24.33-9.25-11.59-21.91-10.43-21.91-10.43,0,0,15.58-11.59,0-21.43-15.58-9.85-44.8,3.48-44.8,3.48,0,0,3.41-7.54-4.87-6.38-8.28,1.16-12.66,11.01-12.66,11.01,0,0-.97-17.38-24.83-15.06-23.86,2.31-25.32,16.22-25.32,16.22,0,0-22.39-11.59-53.07,4.06-10.28,5.24-16.13,12.11-19.43,18.92,18.55,33.16,75.36,59.95,143.65,64.38,20.97,1.36,41.05,.48,59.44-2.28Z" style="fill:#c4d1eb; fill-rule:evenodd;"/><circle cx="999.48" cy="613.66" r="613.66" transform="translate(-141.18 886.48) rotate(-45)" style="fill:#9db2d9;"/><circle cx="999.48" cy="613.66" r="591.05" transform="translate(-141.19 886.48) rotate(-45)" style="fill:#e0e8f5;"/><path d="M1281.52,230.43c3.16-4.2,3.63-6.5,7.03-10.11,21.67-23.04,60.63-.47,81.84-1.04l1.99,18.58c10,.24,15.82-3.14,15.34-13.7-.87-19.16-46.01-11.67-52.53-30.44,10.76-14.99,43.04,4.58,55.91,11.08,9.38,4.74,18.43,9.31,26.93,14.05,9.1,5.07,19.58,13.79,23.91,16.26,2.49-10.02,3.51-28.24,8.28-34.13,1.2-.1,2.39-.05,3.55,.1-32.45-35.71-69.07-67.58-109.07-94.83-2.44,1.29-5.51,2.1-8.85,2.34-13.05,.96-17.06-7.23-32.99-2.23-8.01,2.52-19.09,8.7-28.14,7.35,2.46-1.84,14.34-13.07,15.84-15.73,13.71-24.45-28.59-6.29-20.99-35.49-21.21-10.41-43.11-19.62-65.6-27.58-.98,2.67-.8,6.58,.73,12.45,3.21,12.32,5.69,21.15-3.3,28.91-7.39,6.38-18.21,7.53-8.06,22.03,7.51,10.73,16.07,7.75,31.07,7.36,3.01,8.44,2.63,15.92,10.52,18.56,9.4,3.14,14.89,3.23,18.8,11.29-2.7,6.95-7.55,9.14-10.45,18.43-9.12,29.23-2.04,28.74-38.3,49.89,7.21,7.01,30.35,.94,35.65,18.06,5.18,16.74-15.3,19.22-27.93,24.33-19.94,8.07-14.41,17.57-4.9,32.03,5.94,9.03,13.87,25.64,28.31,24.38,6.08-5.9,2.06-8.9,13.18-11.73,3.01,8.21,9.35,12.96,7.51,25.68-1.22,8.46-6.64,16.34-9.37,23.91-3.02,8.37-3.87,17.87-6.68,26.4-7.47,22.75-21.69,43.04-10,80.2,2.69,8.56,6.04,15.3,10.87,22.12,4.91,6.92,9.62,9.4,12.65,20.38,5.45,19.71,11.1,24.05,32.13,34.1,28.13,13.45,35.78,48.56,57.88,39.32,19.4-8.1,2.97-26.58,42.01-24.18,16.47,1.01,15.31-2.52,17.92-16.62,1.95-10.57,9.58-12.91,20.3-9.76,10.72,3.14,20.7,.5,29.72,3.36,17.18,5.44,4.05,28.2,14.64,48.8,5.68,11.07,19.43,33.82,26.06,40.08,10.34,9.74,26.15,20.72,14.48,44.07-7.73,15.48-18.15,29.98-7.59,49.52,27.6,51.07,47.04,34.69,45.88,86.52-.42,18.95,9.75,40.93,21.04,46.66,2.82-1.97,4.18-3.6,6.61-5.44,24.42-66.19,37.77-137.73,37.77-212.4,0-139.9-46.85-268.83-125.66-372.05l-49.4,10.31c.88,6.56,4.63,8.23,9.86,10.76-10.57,8.78-17.12,23.81-39.69,9.53-28.14-17.81-21.84,1.52-42.85,1.08,1.57-6.53,2.07-12.2,.53-19.21-7.07-4.18-20.62-2.22-27.82-.04-15.57,4.71-47.29,22.1-53.85,37.23l-18.42,1.63c4.6-7.12,14.18-10.4,11.14-25.67-2.21-11.08-8.36-17.45-6.61-31.18,6.42-2.44,7.39-.62,11.15-5.61h0ZM399.01,486.65c11.72-55.62,30.96-108.48,56.62-157.44,12.03,.17,25.77,1.98,39.45-1.95,18.98-5.46,52.95-21.58,60.32-32.97-19.81,8.36-27.37,16.32-55.55,12.21-2.71-2.84-4.68-7.29-7.5-10.74-5.39,5.87-6.27,15.84-14.73,17.14-4.51,.69-8.45-.76-11.2-3.44,3.89-6.8,7.93-13.49,12.06-20.13,12.57-2.42,28.9-1.85,38.21-5.16,43.41-15.44,25.35-28.43,33.31-33.01,13.65-4.08,14.67,10.64,15.88,22.44,17.13,1.25,40.56-10.64,54.19,.3-.38-20.43-13.02-53.61,16.41-51.13-1.22-7.13,.43-8.53,4.86-13.67,3.05-3.54,.72-.23,2.59-3.49l-12.65-.03c-.95-5.54-3.08-9.01,2.56-10.62,13.23-3.78,22.82,8.04,35.89,8.97,16.85,1.2,28.62-11.5,44.43-14.41,22.09-4.07,28.27,8.96,44.4,14.34,15.08,5.02,42.25-7.05,49.62,4.89-11.68,11.9-35.79-2.65-29.58,15.91l13.83,2.37c-2.46,11.84-4.69,13.58-3.63,27.62-22.22,2.57-37.54-5.63-59.05-5.14,3.05-9.5,7.9-9.9,7.55-22.01l-18.84,5.73c-.25-.16-.54-.48-.67-.6-8.11-7.59-19.81-8.85-30.07-3.18,5.3,12.68,6.56,12.48,6.8,29.09,4.66,3.58,12.25,4.39,7.94,12.96-2.76,5.49-8.17,7.54-12.74,11.25-5.9,4.79-4.28,9.52-14.37,8.25-6.08-.76-12.59-4.38-14.58-7.92-2.63,5.21-3.63,9.19-6.49,14.37-7.79,14.07-18.32,26.88-11.17,43.24,11.81,1.36,52.97-4.87,67.48-6.4,50.17-5.28,16.89-29.03,15.13-34.11-5.47-15.71,8.14-42.65,33.63-38.99,12.02,1.72,16.07,12.19,23.94,13.57,16.86,2.96,15.59-7.32,19.29-16.69,12.56-1.7,12.89,8.43,19.9,15.42,10.51,10.49,37.98,10.01,51.08,21.68,10.07,8.97,8.22,9.19,12.81,22.91,7.8,.53,11.76-1.51,17.77,3.35,4.03,3.26,7.52,7.14,5.9,15.13-6.46,4.2-22.88,5.11-32.83,3.89-12.5-1.55-12.99-10.33-15.44-21.31-8.4,1.07-14.99,4.86-21.96,6.65-11.24,2.89-16.81-5.39-21.59,3.4-5.97,10.99-10.93,25.65-17.02,36.1,10.88,.25,15.26-11.12,31.56-10.29l2.21,12.05,22.5-1.52c-1.12,8.31-6.6,15.05-11.08,18.31-10.45,7.61-11.58,3.23-18.16-2.72-31.71-1.25-19.4,22.84-26.72,45.02-3.82,11.57-13.06,10.21-14.27,21.56-2.1,19.53-5.44,8.05-14.57,19.31,2.98,10.15,11.59,8.41,4.51,27.39-3.34,8.95-8.86,16.34-8.77,27.26,.15,18.12,11.96,36.3,14.2,57.38-7.97-2.08-12.58-6.76-16.3-11.32-17.18-21.07-25.01-18.83-48.48-7.05l-1.09,8.07c-38.27,4.85-55.95,24.09-54.19,65.38,.76,17.87,10.94,29.81,25.84,33.96,16.79,4.68,36.82,1.36,33.08-22.95,25.08-3.69,15.2,8.29,25.04,24.36,7.97,12.99,18.91,14.08,36.55,8.65,1.6,11.74,.38,11.14,8.27,16.68,5.64,3.95,7.37,6.13,15.07,9.96,27.28,13.57,16.72-4.85,36.66-1.93,6.04,5.58,3.29,9.67,16.08,7.97-.15-36.71-5.83-35.97,58.96-39.21,55.92-2.8,40.15-1.75,63,11.9,6.16,3.68,10.83,4.4,19,4.72,33.82,1.31,48.57,18.81,78.01,21.56,22.53,2.1,72.68-10.17,87.51,6.1,5.28,5.79-2.21,30.31-.52,42.96,1.64,12.36,8.23,25.32,12.89,35.93,26.41,60.1-23.38,43.62-35.15,99.56-3.22,15.33-8.46,22.33-13.68,35.33-9.37,23.3,15.34,73.01-12.65,77.15-4.08-3.69-8.24-18.8-20.01-12-11.78,6.81-.6,27.82,5.82,35.64,10.96,13.33,11.85,18.52-2.24,31.47l4.67,1.74c1.11,1.44,1.52,4.17,.9,6.33-1.92,6.81-18.3,3.35-31.2,13.46-.89,23.77,3.73,41.87,9.96,62.78,2.36,7.89,4.42,21.48,10,25.65,9,6.73,25.82-4.97,26.7,10.62-10.69,4.96-36.31,9.76-50.24,3.74-8.9-3.84-19.33-20.36-25.15-31.76l-34.4-79.35c-5.08-18.01,2.25-34.69,.84-53.64-1.29-17.33-5.82-30.29-12.59-44.32-11.67-24.19-24.12-55.3-35.6-78.01-16.56,.5-27.59,.97-36.8-8.28-3.15-3.16-6.85-8.55-10.15-12.35-7.19-8.26-13.03-16.16-21.93-22.98-4.59-3.52-9.03-5.42-13.79-8.68-32.41-22.12-8.97-76.98-25.55-106.74-11.12-19.96-18.48-9.45-27.68-12-4.51-1.25-10.39-5.3-15.02-7.44-16.69-7.7-33.58-7.94-47.83-18.33-13.89-10.11-15.94-7.07-34.83-8.45-28.6-2.1-58.84,7.57-84.11,3.05-27.43-4.91-39.34-23.68-52.95-35.57-6.6-5.78-46.45-32.2-55.08-31.63-8.34,23.98,27.83,36.9,34.44,55.16-33.68-.17-30.08-25.06-43.15-48.37-12.84-22.9-36.53-19.2-55.9-34.01-16.3-12.46-22-43.11-27.1-62.92-6.63-25.83-19.43-40.4-26.81-61.92l-1.29,3.2c-1.71,5.87-2.22,13.4-4.77,18.63-8.15-.36-12.98-5.61-14.66-12.86h0Zm88.7-211.67c6.78-.78,8.83-5.14,14.95-7.46,5.19-1.97,17.17,1.12,27.09-.84,17.09-3.38,7.54-5.56,15.48-14.77,5.32-6.16,15.53-4.45,16.79-13.09-11.49-9.55-14.53,2.77-19.32,7.92-11.57,12.41-14.75-6.24-23.43,1.52-3.65,3.26-1.33,5.96-9.39,5.65-4.01-.16-6.14-.21-7.66,.15-4.98,6.87-9.81,13.85-14.51,20.93h0Zm42.15-32.8c14.64,5.53,21.32-32.85,1.14-5.68-4.08,5.5-1.14,5.68-1.14,5.68h0Zm43.04-36.55c2.94,5.14,5.56,5.78,11.85,3.85,8.57-2.62,6.72-3.31,13.03,1.02l.57-7.91c-12.63-1.72-22.25-7.67-25.45,3.04h0Zm274.89,414.32c7.3,3.9,19.22,2.79,26.18-2.29,8.79-6.43-3.05-4.58,14.47-16.08,.28-.18,.64-.44,.88-.61l1.77-1.31c-10.88,.35-20.66-1.66-31.37,1.24-11.43,3.1-15.06,6.18-11.93,19.04h0Zm-88.35-3.72c14.16-.38,11.89-3.15,19.06-8.06,16.38-11.21,32.27,7.53,42.98,6.38,7.14-.77,19.12-1.3,18.05-9.05-1.25-8.95-9.65-5.8-17.91-5.28-10.83,.69-11.48-5.44-25.02-3.3-13.08,2.06-35.34,7.11-37.16,19.3h0Zm281.7-472.94c3.01-3.21,3.1-7.03,6.74-10.25,7.56-6.68,29.69-3.47,30.02-24.03-6.19-.46-8.39,.57-14.36-1.26-13.3-4.08-14.47,2.16-21.63,7.4-5.8,4.25-7.38,1.34-14.15,3.16-7.25,1.94-18.72,9.25-10.02,15.41,3.25,2.31,18.42,8.06,23.39,9.56h0Zm105.05,37.54c3.03-5.89,14.33-17.5,13.79-22.65-.82-7.77-5.87-.21-.84-14.33,2.13-5.99,2.37-8.36,3.46-14.65,17.57,3.63,31.72,33.68,65.15,37.83-1.66,10.62,1.03,13.25-6.62,18.93-4.5,3.34-12.02,6.42-17.86,7.11-16.88,1.98-15.85-16.34-23.2-24.18-16.39,.09-4.1,14.44-13.51,19.44-6.76,3.59-16.66-4.16-20.36-7.5h0Zm-498.23-20.55c-13.21,1.71-27.83,4.78-37.01,10.17,.63,12.14,12.64,12.12,23.95,9.85,15.63-3.12,17.64-.49,19.32,14.21,21.59,1.31,42.29,4.18,42.47-14.87l-13.9,.91c-2.77-4.52-.05-1.73-3.46-4.41,8.12-18.89,23.29-16.76,34.51-36.03,4.56-7.84,5.08-18.21,10.32-25.36,6.11-8.33,14.11-4.89,18.57-18.3-26.72,1.82-30.16,16.87-53.3,25.91-22.23,8.68-43.64,9.45-41.48,37.92h0Zm95.67-16.61c11.3,6.06,26.31-12.65,54.53,11.39,31.96,27.23,43.49,9.36,50.31,9.12,3.03,15.49,5.86,25.28,14.32,33.34,3.88,3.7,21.5,17.07,28.72,20.24,14.76,6.46,27.87,1.54,31.01-11.6,3.32-13.89-4.23-32.12,2.45-43.99,2.93-5.21,17.79-9.14,29.38-18.23,9.45-7.4,16.9-14.56,27.11-21.77,7.23-5.11,26.77-13.11,29.59-19.43,3.93-8.78-12.68-23.44-7.72-38.1,6.17-3.11,15.23-.23,23.01-2,8.93-2.04,7.34-6.11,10.89-14.35,6.01-13.91,26.81-9.66,18.78-28.05-12.31-3.89-31.39,16.19-38.8,21.29-11.5,7.92-11.37-.1-36.02,11.58-1.55,.73-4.24,1.95-5.69,2.25-4.94,1.03-5.44-.11-6.25-.47-1.79-8.58,1.81-14.03,4.32-21.32,3.26-9.49,8.04-15.34,7.45-20.64-1.73-15.65-25.33,2.98-39.04,3.43-9.02,.29-16.73-3.29-24.48,.86-9.68,5.19-4.32,14.55-12.75,16.32-14.73,3.1-27.07-20.28-40.62,4.35-8.75,15.89-16.87,15.4-38.6,18-8.28,.99-14.91,3.68-20.64,7.39l-47.23,38.81c-6.29,6.87-15.71,24.06-16.03,34.84l1.99,6.76h0Zm-94.08,89.92l-12.44-8.59,2.63,18.19c21.19,.37,23.47,8.4,29.81,17.97,21.08-9.79-15.06-24.76-20-27.58Z" style="fill:#9db2d9; fill-rule:evenodd;"/><path d="M1038.4,1402.43c453.2,0,820.59,18.21,820.59,40.67s-367.39,40.67-820.59,40.67-820.59-18.21-820.59-40.67,367.39-40.67,820.59-40.67Z" style="fill:#c4d1eb; fill-rule:evenodd;"/><path d="M1149.76,860.59c8.72-8.17,33.05-17.16,47.54-21.59,15.15-1.98,31.69-2.82,49.65-2.54,30.36-.29,62.99,.03,97.88,.95,34.43-16.77,43.58-18.22,61.01-26.12,5.16-2.34,14.53-7.27,22.01-11.31,3.45,1.73,7.83,9.42,9.23,15.92-36.61,35.17-60.08,49.09-73.44,56.77-25.87,6.99-50.75,10.79-69.73,12.65-5.42,34.82-9.54,68.39-12.34,100.72,5.76,34.06,8.5,57.26,8.22,69.58-53.2,7.87-95.89,8.07-128.08,.64,.92-9.76,4.94-23.44,7.38-33.92-3.52-43.7-9.11-72.07-12.13-92.26-9.89,19.98-19.19,35.01-27.9,45.08,6.82,17.63,13.26,39.26,19.32,64.89-3.76,4.94-9.12,8.3-16.09,10.04-8.45-14.68-26.83-48.27-31.61-73.33-3.44-20.04,36.82-100.44,49.08-116.17Z" style="fill:#6d96ce; fill-rule:evenodd;"/><path d="M1240.14,830.87c-3.26-1.53-21.04-1.21-38.79,2.43,1.91-2.88,3.41-6.62,4.48-11.24,31.69-4.76,28.59-12.6,27.42-16.16-6.39-17.01-10.25-27.74-5.66-32.85,2.36,1.11,7.34,3.7,9.28,11.17,1.99-1.2,4.54-2.8,4.87-5.07,.75-6.8,.53-20.97,8.31-22.15,1.53,6.21,2.9,12.82,4.09,19.82,4.45,3.56,4.91,17.88,2.21,34.62,2.58,9.22-2.84,14.74-16.27,16.54l.08,2.88Z" style="fill:#f9af79; fill-rule:evenodd;"/><path d="M1233.24,805.9c1.17,3.56,4.27,11.41-27.42,16.16-14.16-2.15-26.71-13.82-28.72-19.09-18.51-30.94-1.31-45.75,8.06-51.37,2.07-32.06,50.14-7.21,72.19-24.13,10.07,12.05-.18,28.74-7.31,29.53-7.78,1.18-7.55,15.34-8.31,22.15-.33,2.27-2.88,3.87-4.87,5.07-1.95-7.47-6.92-10.06-9.28-11.17-4.59,5.11-.73,15.84,5.66,32.85Z" style="fill:#20386f; fill-rule:evenodd;"/><path d="M1201.34,833.3c-1.77,1.66-3.52,3.67-5.13,6.03l1.09-.33c14.74-1.91,30.8-2.77,48.2-2.55-1.74-2.29-3.63-4.23-5.37-5.58-3.25-1.53-21.03-1.21-38.78,2.43Z" style="fill:#466fb5; fill-rule:evenodd;"/><path d="M1436.75,814.56c9.11-4.49,16.17-7.52,21.19-12.25,1.81-5.77,5.35-6,4.42-11.05,8.4-9.87,10.34-10.06,14.23-11.89-3.43-5.52-11.26-1.08-23.97,11.28-8.63,5.08-12.31,3.99-11.05-3.23,5.2-5.02,5.11-9.25,3.57-11.56-.7,.64-3.52,4.03-8.52,9.26-3.56,5.62-6.17,10.93-6.06,13.72-.11,.98-.43,1.76-.91,2.49,2.79,2.69,5.74,8.17,7.11,13.24Z" style="fill:#f9af79; fill-rule:evenodd;"/><path d="M1146.74,1041.99c3.65,4.53,8.1,6.86,15.04,13.53l-.07,.74,1.08,.24c1.55,1.53,3.22,3.27,5.02,5.3-3.63,2.93-8.25,.92-13.88-6.01-.27,7.68,1.73,13.41,6.01,17.18,2.12,2.42,3.82,4.29,5.13,5.59-4.01,6.86-12.4,4.15-25.15-8.11-2.53-4.79-2.26-9.52-3.78-13.85-.6-2.19-1.29-4.37-2.32-6.92,5.28-1.56,9.58-4.11,12.89-7.65l.04-.05Z" style="fill:#f9af79; fill-rule:evenodd;"/><path d="M1165.94,1057.18c-6.36,43.11-9.34,111.06-8.92,176.59-6.14,31.1-5.82,80.83,.95,181.71,11.99,2.41,22.37,2.88,31.15,1.42,15.59-94.11,21.55-143.16,17.87-179.66,4.77-26.2,11.3-74.29,19.61-111.75,8.31,37.47,14.84,85.55,19.6,111.75-3.67,36.5,2.28,85.55,17.87,179.66,8.78,1.46,19.16,.99,31.16-1.42,6.76-100.87,7.08-150.61,.95-181.71,.42-66.14-2.61-134.71-9.1-177.76-49.65,7.14-90.04,7.53-121.14,1.16Z" style="fill:#20386f; fill-rule:evenodd;"/><path d="M1269.31,1435.02c-2.97,2.32-3.68,13.08-1.28,21.25,9.78,4.37,19.32,3.22,28.62-1.29,4.7-1.83,10.37-4.93,10.26-8.31-.21-6.41-.36-6.55-13.54-13.38,.19,1.3,.41,2.51,.65,3.6h0c-.58,1.51-1.75,2.66-3.94,1.23-2.41-1.58-1.6-6.68-8.45-6.8-5.67-.09-5.73,5.33-8.5,7.14-3.04,2.12-3.7-1.05-3.83-3.43Z" style="fill:#0e2952; fill-rule:evenodd;"/><path d="M1184.2,1435c2.96,2.32,3.67,13.07,1.27,21.26-9.78,4.35-19.32,3.21-28.62-1.3-1.44-.68-7.11-2.51-7.57-4.07-1.59-5.5-.22-12.82,10.84-17.62-.19,1.3-.41,2.5-.64,3.6h0c.57,1.52,1.74,2.65,3.94,1.24,2.4-1.58,1.59-6.69,8.45-6.81,5.66-.09,5.72,5.32,8.49,7.14,3.04,2.11,3.7-1.05,3.83-3.43Z" style="fill:#0e2952; fill-rule:evenodd;"/><path d="M1269.09,1417.51c1.03,8,1.31,14.85,.84,20.55,.53,1.1,1.49,1.6,3.21,.39,2.77-1.81,2.83-7.23,8.5-7.14,6.85,.12,6.04,5.22,8.45,6.8,2.19,1.43,3.36,.28,3.94-1.22-1.06-4.93-1.7-11.87-1.91-20.83-8.53,1.5-16.2,1.98-23.03,1.44Z" style="fill:#f9af79; fill-rule:evenodd;"/><path d="M1184.41,1417.49c-1.03,8-1.31,14.85-.84,20.56-.54,1.09-1.49,1.59-3.22,.39-2.77-1.81-2.83-7.22-8.49-7.14-6.86,.12-6.04,5.23-8.45,6.81-2.2,1.41-3.37,.28-3.94-1.24,1.05-4.92,1.69-11.86,1.91-20.83,8.53,1.51,16.2,2,23.03,1.45Z" style="fill:#f9af79; fill-rule:evenodd;"/><path d="M1293.9,885.33c-13.53,43.22-22.6,76.63-27.22,100.22-17.31,12.03-29.45,20.88-36.43,26.56,24.5-13.82,39.57-22.39,45.19-25.74,5.77,14.28,10.55,37.36,14.34,69.25,.28-12.31-2.46-35.51-8.22-69.58,2.81-32.33,6.91-65.9,12.34-100.72h0Zm58.91-51.75c4.78,2.43,8.52,5.18,11.2,8.22-5.8-2.25-12.2-3.71-19.19-4.39,2.83-1.38,5.48-2.65,7.99-3.84h0Zm-198.36,79.88c.19,3.49,1.04,9.03,2.51,16.62,3.02,20.19,8.62,48.56,12.13,92.26-2.45,10.48-6.46,24.16-7.38,33.92,.67,.15,1.36,.31,2.04,.46,1.48-7.14,4.77-17.05,9.86-29.74,2.06,1.42,7.94,3.56,17.67,6.43-4.27-3.77-8.51-7.42-12.74-10.96-7.46-42.56-15.5-78.89-24.09-108.99Z" style="fill:#466fb5; fill-rule:evenodd;"/><path d="M449.42,917.63c7.27-8.45,7.34-20.52,.2-36.19-7.4,3.77-9.93,9.42-13.93,17.03-43.7-14.03-32.65-58.11-14.49-58.63-44.42-8.45-71.27-3.63-91.55,19.96-6.83,21.77,1.3,72.94,6.53,92.24,5.53,22.29,13.03,34.75,7.96,68.16,23.6,16.99,30.25,34.65,92.92,15.82-1.4-19.27-6.14-23.97-5.88-69.86-1.6-15.14,10.21-32.92,18.24-48.53Z" style="fill:#6d96ce; fill-rule:evenodd;"/><path d="M437.06,1036.02c-42.98,4.14-62.47-6.18-92.92-15.82-40.05,59.39-5.52,90.01-22.73,167.96,28.41,28.51,70.86,33.56,127.35,15.15,1.33-46.04-3.49-113.74-11.7-167.28Z" style="fill:#20386f; fill-rule:evenodd;"/><path d="M344.55,1204.75c-.59,9.24-.77,17.4-2,23.15-13.96,37.46-2.75,74.16,.58,178.85-.5,1.33-1.02,2.58-1.59,3.78,7,3.08,6.14,9.85,10.3,11.35,19.47,7.04,11.41-5.39,14.61-8.86-.88-2.16-1.64-4.27-2.3-6.33,.52-96.5,16.29-144.28,16.33-174.32,.19-4.58,1.41-14.09,1.8-18.4h-.12c-13.94-.74-26.47-3.81-37.6-9.23Z" style="fill:#f9af79; fill-rule:evenodd;"/><path d="M332.6,1429.44c4.38-10.38,2.28-19.85,6.99-19.61,9.14,2.6,7.73,10.42,12.25,12.05,22.06,7.97,8.76-9.04,16.57-9.7,17.04,7.01,25.61-1.33,27.62,11.54-1.53,3.27-12.87,15.39-52.13,17.67-8.86-3.46-12.63-7.45-11.31-11.95Z" style="fill:#0e2952; fill-rule:evenodd;"/><path d="M390.63,1214.12c1.08,10.74,2.45,19.02,3.32,25.32-15.91,32.38,.73,74.2,8.95,178.62-.43,1.35-.9,2.63-1.41,3.85,7.14,2.75,6.59,9.55,10.83,10.86,19.77,6.12,11.14-5.92,14.17-9.53-.97-2.12-1.84-4.19-2.59-6.21,1.37-99.44,3.67-159.44,6.88-180.01-.05-9.67,1.12-19.71,2.23-29.1-15.26,3.95-29.38,6.01-42.39,6.2Z" style="fill:#f9af79; fill-rule:evenodd;"/><path d="M389.84,1441.42c3.89-10.58,4.96-20.13,9.68-20.11,9.24,2.18,8.21,10.04,12.8,11.46,22.41,6.93,8.33-9.45,16.1-10.47,24.08,8.39,40.92,3.36,40.94,15.99-5.01,7.8-27.58,12.65-67.68,14.54-9.01-3.04-12.96-6.85-11.85-11.41Z" style="fill:#0e2952; fill-rule:evenodd;"/><path d="M435.69,898.47c-43.7-14.03-32.65-58.11-14.49-58.63,17.68-2.22,21.84-.77,48.73-3.84,9.78,10.71,10.25,24.22,1.42,40.56-26.51,2.21-29.1,9.46-35.66,21.91Z" style="fill:#466fb5; fill-rule:evenodd;"/><path d="M473.76,841.1c11.06,.4,23.69-.19,37.85-1.75,11.12-9.82,41.36-30,90.7-60.56,11.35-17.33,22.94-28.48,37.68-35.4,3.62,1.55,1.5,4.02-10.25,15.3,7.86,16.78,1.43,26.67-19.38,27.14-46.42,43.19-76.05,68.61-88.88,76.28-17.54,5.82-33.38,8.83-47.51,9.06,4.95-11.54,4.88-21.56-.22-30.06Z" style="fill:#f9af79; fill-rule:evenodd;"/><path d="M339.32,963.45c-16.91-2.71-22.23-10.23-20.75-34.76,3.18,1.25,8.4,2.82,13.41,3.73,1.39,7.9,2.9,14.77,4.21,19.62,.57,2.26,2.55,9.31,3.14,11.41Z" style="fill:#f9af79; fill-rule:evenodd;"/><path d="M331.97,932.42c-5.01-.91-9.09-2-12.27-3.25-.81-.33-1.56-.66-2.25-1-2.37-34.63,1.7-57.42,12.2-68.37-5.12,16.3-1.84,49.07,2.32,72.62Z" style="fill:#466fb5; fill-rule:evenodd;"/><path d="M381.44,820.58c-22.8,1.27-33.99-11.34-33.56-37.86-.71-2.67-1.17-5.22-1.39-7.66-1.38-14.82,6.08-25.35,22.39-31.58,38.16-13.22,54.57-7.47,49.22,12.05-3.6,8-9.05,14.09-16.34,18.24,2.1,3.77,2.79,8.02,2.06,12.73,.05,1.3-.34,3.08-1.2,5.34-1.17-9.52-4.33-15.54-9.47-18.07-3.36,5.86-2.32,13.54,3.1,23.06,2.35,13.74-2.59,21.65-14.8,23.75Z" style="fill:#20386f; fill-rule:evenodd;"/><path d="M335,815.74c-4.84-.87-5.63,6.88-6.98,9.82-3.66-13.74-.43-28.81,5.74-33.89-1.98,.27-4.1,1.36-6.36,3.27-.84-15.53,17.53-20,22.36-20.5,2.46-.25,4.24,1.13,5.35,4.15,6.95,20.2,3.29,37.75-11.02,52.66,2.71-3.93,3.74-8.57,3.1-13.94-4.91,15.56-13.69,19.29-26.33,11.19,10.45,3.16,12.32-1.78,14.14-12.75Z" style="fill:#20386f; fill-rule:evenodd;"/><path d="M350.13,774.46c1.71-2.48,4.29-4.41,7.9-3.78,5.72,1.78,6.52,9.38,2.36,11.75-1.16,.84-2.51,1.13-3.75,1.26-.43-1.68-.95-3.38-1.53-5.09-1.05-2.84-2.71-4.22-4.98-4.13Z" style="fill:#6d96ce; fill-rule:evenodd;"/><path d="M366.12,837.86c1.88-5.75,1.56-12.23-.95-19.42,4.53,1.78,9.95,2.49,16.27,2.14,12.21-2.1,17.15-10.01,14.8-23.75-5.42-9.52-6.45-17.2-3.1-23.06,5.14,2.53,8.3,8.55,9.47,18.07,.86-2.26,1.26-4.04,1.2-5.34,.73-4.71,.04-8.96-2.06-12.73,4.46-2.53,8.22-5.8,11.31-9.77,4.9,5.09,6.56,10.52,4.96,16.3,6.15,8.96,7.93,16.88,5.34,23.76,.42,7.26-.16,12.26-1.72,15.01-2.49,4.36-15.32,2.31-19.79,2.02-1.88,4.74-2.23,9.98-1.04,15.7-13.23-1.35-24.66-1.06-34.68,1.07Z" style="fill:#f9af79; fill-rule:evenodd;"/><path d="M494.2,949.05l.09,9.16-12.41,9.9c.25-3-.35-5.63-1.79-7.88l14.1-11.17h0Zm-30.12,33.26l-20.04,16-11.92,.22c-.24-3.01-.44-6.36-.6-10.12l12.86,.13,19.08-15.13c.05,.61,.14,1.24,.28,1.88,.79,3.46,.91,5.8,.33,7.02Z" style="fill:#8b9cc9; fill-rule:evenodd;"/><path d="M494.2,949.05l-14.1,11.17c-.24-.36-.5-.72-.77-1.07-2.11-2.22-5.44,.53-12.05,5.29-2.81,2.49-4.07,5.48-3.8,8.97l-19.08,15.13-12.86-.13c-.16-3.85-.27-8.14-.33-12.95l16.68,.39,26.28-19.83h-42.31c.49-2.29,1.17-4.63,2-6.97h60.35Z" style="fill:#b0c2e4; fill-rule:evenodd;"/><path d="M474.15,956.02l-26.28,19.83-16.68-.39c-.03-2.91-.04-6-.02-9.3-.35-3.27-.07-6.67,.67-10.14h42.31Z" style="fill:#8b9cc9; fill-rule:evenodd;"/><path d="M494.2,949.05h-60.35c.78-2.21,1.7-4.43,2.7-6.66l52.15-.23,4.82-55.75h-41.82c-.6-1.61-1.29-3.27-2.07-4.97,.29-.14,.58-.28,.88-.42l49.8-.37-6.11,68.41Z" style="fill:#c4d1eb; fill-rule:evenodd;"/><path d="M488.69,942.16l-52.15,.23c3.77-8.39,8.81-16.85,12.88-24.76,6.49-7.54,7.24-17.95,2.27-31.22h41.82l-4.82,55.75Z" style="fill:#fff; fill-rule:evenodd;"/><path d="M464.08,982.31c6.75,3.74,12.45,.23,17.13-10.51,1.41-5.12,.77-9.34-1.89-12.65-2.11-2.22-5.44,.53-12.05,5.29-3.29,2.93-4.47,6.54-3.53,10.84,.79,3.46,.91,5.8,.33,7.02Z" style="fill:#f9af79; fill-rule:evenodd;"/><path d="M362.86,810.46c.48-8.43-.75-17.55-3.7-27.36-.84,.33-1.7,.49-2.51,.57,2.67,10.23,2.48,19.74-.55,28.55,2.46,2.74,5.49,4.8,9.07,6.21,4.53,1.78,9.95,2.5,16.27,2.14,8-1.38,12.89-5.25,14.63-11.62-8.41,10.77-19.47,11.28-33.2,1.51Z" style="fill:#0e2952; fill-rule:evenodd;"/><path d="M749.61,806.58l.03,4.97s-1.36,15.56,17.8,17.84c19.16,2.28,34.88,1.97,34.36-10.04-1.72-9.29-4.82-23.73-4.94-31.42-.05-2.85,.14-5.89,.67-9.31l-37.12-.74-10.93,1.79,.13,26.91Z" style="fill:#f9af79; fill-rule:evenodd;"/><path d="M749.48,779.67l.13,26.91c3.94,1.83,8.39,2.95,13.38,2.95,17.07,0,28.1-12.51,33.86-21.6-.05-2.85,.14-5.89,.67-9.31l-37.12-.74-10.93,1.79Z" style="fill:#ed7d57; fill-rule:evenodd;"/><path d="M800.38,772.65c-4.3,23.18-34.22,22.42-47.14,20.97-3.64-.41-5.93-.88-5.93-.88-4.11-1.09-6.39-7.55-7.45-16.02-2.11-16.75,.56-41.34,3.38-47.62,4.27-9.46,12.28-19.69,42.41-12.31,30.13,7.39,20.27,26.16,14.74,55.86Z" style="fill:#f9af79; fill-rule:evenodd;"/><path d="M824.85,1459.01h-42.39c.32-2.21,1.39-8.97,3.39-15.2,.68-2.18,1.49-4.28,2.39-6.11,4.12-8.23,30.31-2.98,30.31-2.98,0,0,2.44,2.08,4.33,10.03,.84,3.52,1.59,8.17,1.97,14.27Z" style="fill:#172b57; fill-rule:evenodd;"/><path d="M696.76,1445.65c-.12,5.76-.84,11.23-2.92,13.37h-83.85c1.07-3.02,4.08-7.59,12.68-8.99,9.79-1.58,25.04-6.28,33.93-15.7,3.17-3.33,5.54-7.28,6.58-11.89,3.94-17.56,32.61,5.39,32.61,5.39,0,0,1.15,9.24,.96,17.83Z" style="fill:#172b57; fill-rule:evenodd;"/><path d="M752.54,1255.8c-1.17,6.43-1.91,11.71-2.11,15.49-2.66,51.99-43.77,170.86-51.11,173.63-11.38,4.3-29.29-4.83-38.66-7.81-3.89-1.24-6.51-5.15-5.64-9.13,20.35-93.57,27.83-228.3,30.55-308.05,1.38-40.19,8.27-67.94,8.27-67.94,0,0,100.25-26.75,100.83,7.08,.54,29.94-33.2,147.35-42.14,196.73Z" style="fill:#223f81; fill-rule:evenodd;"/><path d="M752.54,1255.8l-66.96-135.88c1.38-40.19,8.27-67.94,8.27-67.94,0,0,100.25-26.75,100.83,7.08,.54,29.94-33.2,147.35-42.14,196.73Z" style="fill:#172b57; fill-rule:evenodd;"/><path d="M730.23,1059.19l52.99,384.04s23.27,5.62,41.37,1.12c0,0,15.51-204.25,14.22-253.63-1.29-49.38,11.13-132.14-2.84-141.27-13.96-9.11-105.74,9.73-105.74,9.73Z" style="fill:#223f81; fill-rule:evenodd;"/><path d="M733.98,707.03s13.27-1.02,28.9-7.82c12.7-5.52,28.71,.56,33.91,3.3-.14-.83-.47-1.98-1.26-3.13,0,0,2.33,1.65,2.68,3.97,.24,.18,.34,.3,.28,.34,0,0,2.65-.48,4.35,.28,0,0-1.19-.17-1.61,.6-.05,.08-.12,.15-.19,.21,19.8,9.57,21.63,40.86,15.26,48.1-7.67,8.71-16.86,28.33-16.86,28.33,0,0-3.35-4.63-1.95-12.3,1.39-7.66-5.23-7.66-13.6-11.15-8.36-3.49-1.39-13.24-8.71-19.17-7.31-5.92-34.14-2.44-33.79-6.97-9.97-3.62-7.39-23.57-7.39-24.59Z" style="fill:#20386f; fill-rule:evenodd;"/><path d="M806.32,826.03l-12.2,261.77s-101.83,1.66-98.91-21.39c2.9-23.03,36.69-232.37,36.69-232.37l74.42-8.01Z" style="fill:#fff; fill-rule:evenodd;"/><path d="M842.67,974.41c-6.05,18.18,5.37,79.16,9.44,99.82,.9,4.37,1.49,6.95,1.49,6.95-14.09,22.94-65.74,22.65-65.74,22.65-9.94-43.9-15.1-113.81-15.1-113.81l39.63-173.71,49.85,46.09s-3.77,28.1-8.44,56.7c-3.67,22.64-7.85,45.69-11.13,55.31Z" style="fill:#20386f; fill-rule:evenodd;"/><path d="M660.23,935.38c-.1-.11-.1-.3-.1-.4,0-3.77,14.4-12.12,29.99-21.95,.2-.2,.3-.3,.3-.3,0,0,.02,0,.04-.02-.28,8.04-.26,15.92,.22,23.25,.88,13.61-.1,29.87-1.76,46.43-7.42-11.58-27.24-42.75-28.69-47.01h0Zm40.47-105.62s0,.05-.03,.11c-2.4,2.34-70.38,68.33-83.55,94.18-13.41,26.22,61.28,78.46,61.28,78.46,0,0,4.81,1.89,8.14,1.15-3.52,29-7.46,55.75-5.12,67.17,4.22,20.64,23.32,27.58,23.32,25.98,0-.5,6.98-75,10.77-113.87,8.13-83.33,28.49-166.12,28.49-166.12-22.22,2.31-43.3,12.94-43.3,12.94Z" style="fill:#20386f; fill-rule:evenodd;"/><path d="M809.2,815.99c.12-2.5-11.71-5.95-11.71-5.95,0,0-13.54,18.78-35.85,19.1,0,0,6.35,12.38,13.85,15.58,0,0,32.99-13.9,33.71-28.73Z" style="fill:#d8e8f7; fill-rule:evenodd;"/><path d="M761.64,828.7s-11.82-7.01-11.86-14.6c0,0-7.64-.96-10.96,2.74,0,0-2.81,13.02,.91,20.58,0,0,17.02-2.59,21.91-8.72Z" style="fill:#d8e8f7; fill-rule:evenodd;"/><path d="M769.67,827.57l-16.03-3.84s-2.1,.17-2.04,2.79c.05,2.6,4.51,10.24,6.49,10.85,1.98,.6,15.37-4.52,11.58-9.8Z" style="fill:#466fb5; fill-rule:evenodd;"/><path d="M807.33,814.7c.13-2.51-7.88-7.66-7.88-7.66,0,0-15.51,18.12-37.81,18.44,0,0,6.35,12.38,13.85,15.58,0,0,31.12-11.54,31.85-26.37Z" style="fill:#e9f0f9; fill-rule:evenodd;"/><path d="M761.64,825.49s-11.96-6.34-12-13.93c0,0-7.21,3.18-10.55,6.88,0,0-3.08,8.21,.64,15.78,0,0,17.02-2.59,21.91-8.72Z" style="fill:#e9f0f9; fill-rule:evenodd;"/><path d="M730.3,1006.06c.54,6.11,3.35,11.82,7.87,15.97l7.1,6.54c1.77,1.64,4.58,1.43,6.08-.49l8.8-11.17c2.36-2.99,3.46-6.79,3.11-10.58-.82-8.45-2.36-24.74-3.58-40.46-1.01-12.73-1.8-25.11-1.87-32.64-.19-24.02,4.57-100.66,4.57-100.66l-5.75,.3s-14.31,29.75-21.81,70.22c-1.84,9.96-3.28,20.57-3.98,31.54,0,0-3,43.77-.54,71.41Z" style="fill:#6d96ce; fill-rule:evenodd;"/><path d="M730.3,1006.06c.54,6.11,3.35,11.82,7.87,15.97l7.1,6.54c1.77,1.64,4.58,1.43,6.08-.49l8.8-11.17c2.36-2.99,3.46-6.79,3.11-10.58-.82-8.45-2.36-24.74-3.58-40.46-15.92-17.88-22.37-42.6-24.85-62.77-1.84,9.96-3.28,20.57-3.98,31.54,0,0-3,43.77-.54,71.41Z" style="fill:#466fb5; fill-rule:evenodd;"/><path d="M673.65,1006.76c0-6.67,5.87-12.03,12.46-11.02,1.84,.28,3.48,1.03,4.63,2.55,4.53,6.04,8.86,23.63,.81,24.45-3.28,.33-7.49-1.96-10.72-4.42-3.29-2.5-7.18-6.42-7.18-10.55v-1.01Z" style="fill:#f9af79; fill-rule:evenodd;"/><path d="M852.11,1074.23c-14.6-15.2-39.83-45.09-38.93-69.63,1.19-34.36,40.62-85.5,40.62-85.5-3.67,22.64-7.85,45.69-11.13,55.31-6.05,18.18,5.37,79.16,9.44,99.82Z" style="fill:#172b57; fill-rule:evenodd;"/><path d="M851.65,1014.45s-10.5,5.25-16.87,2.62c-6.38-2.62-13.87-4.6-20.98,3.52-7.13,8.11-8.62,13.73-7.13,16.73,1.5,3,18.1,1.88,20.86,0,2.75-1.88,7.11-6.49,9.88-5.68,7.62,2.21,14.06-3.61,17.65-8.25,2.16-2.79-3.69-4.15-3.41-8.94Z" style="fill:#f9af79; fill-rule:evenodd;"/><path d="M812.39,816.3s41.8,4.63,51.65,22.83c9.86,18.21,61.13,91.99,59.44,122.65-1.67,30.65-69.92,65.03-69.92,65.03,0,0-15.11-6.38-15.34-13.25-.22-6.88,47.18-47.95,44.32-55.62-2.87-7.66-55.09-68.28-60.12-88.27-5.04-19.99-10.03-53.36-10.03-53.36Z" style="fill:#20386f; fill-rule:evenodd;"/><path d="M690.42,912.73s-.1,.1-.3,.3c-15.59,9.83-29.99,18.18-29.99,21.95-2.08-6.65,18.17-34.47,24.73-40.12,6.66-5.76,5.56,17.88,5.56,17.88Z" style="fill:#172b57; fill-rule:evenodd;"/><path d="M799.45,807.05s-31.74,132.92-26.69,182.99c0,0,11.68-53.5,39.74-97.33,0,0-10.24-9-9.69-12.33,0,0,7.61-2.25,14.99-.74,0,0-.81-57.29-5.42-63.35-4.6-6.05-12.94-9.24-12.94-9.24Z" style="fill:#172b57; fill-rule:evenodd;"/><path d="M749.65,811.56c.65-.38-31.44,129.88-34.13,171.39,0,0,3.18-74.06,2.87-95.42,0,0,13.18-6.97,13.18-9.42s-14.06-9.07-14.06-9.07c0,0,8.9-45.62,13.76-50.65,4.86-5.02,18.38-6.83,18.38-6.83Z" style="fill:#172b57; fill-rule:evenodd;"/><path d="M763.19,776.1c-6.31,.09-9.8-.53-15.93-1.97-2.46-.6,2.6,18.27,16.28,2.96,.33-.36,.14-1.01-.35-.99Z" style="fill:#eb795b; fill-rule:evenodd;"/><path d="M766.28,742.12c-3.06,.22-2.89,2.67-.62,3.25,24.14,6.04,8.21-3.82,.62-3.25Z" style="fill:#20386f; fill-rule:evenodd;"/><path d="M752.13,739.94c2.86,1.1,1.99,3.39-.35,3.29-24.86-1.21-6.75-6.04,.35-3.29Z" style="fill:#20386f; fill-rule:evenodd;"/><path d="M748.84,767.9l-.15-.05c-2.49-1.12-3.8-1.77-4.09-2.86-.26-1,.4-1.92,1.61-3.6,1.34-1.84,3.38-4.66,5.65-9.52,.16-.35,.59-.5,.94-.34,.36,.16,.51,.58,.34,.95-2.32,4.96-4.4,7.84-5.78,9.75-.8,1.1-1.48,2.05-1.39,2.39,.12,.5,1.89,1.29,3.31,1.93,.36,.16,.51,.58,.35,.95-.14,.29-.47,.46-.79,.39Z" style="fill:#eb795b; fill-rule:evenodd;"/><path d="M744.48,755.09c-1.74-.18-2.4-6.97,1.82-6.52,2.26,.24,1.03,6.82-1.82,6.52Z" style="fill:#20386f; fill-rule:evenodd;"/><path d="M767.13,757.94c-1.74-.2-2.4-6.97,1.83-6.52,2.25,.25,1.02,6.83-1.83,6.52Z" style="fill:#20386f; fill-rule:evenodd;"/><path d="M762.78,776.41c2.16,2.33-12.29,2.5-14.8,.2-.28-.24-1.15-1.57-.84-1.95,.29-.4,1.98,.31,2.43,.42,4.39,1.1,8.52,1.53,13.21,1.33Z" style="fill:#fff; fill-rule:evenodd;"/><path d="M1770.14,1416.68s-1.85,29.95-7.66,30.38c-.76,.06-29.38,.06-29.38,.06l-36.56-.22s.25-8.8,10.93-10.66c10.69-1.86,28.57-9.36,35.04-23.48,6.79-14.85,27.62,3.92,27.62,3.92Z" style="fill:#0e2952; fill-rule:evenodd;"/><path d="M1772.26,1418.75s-11.1,3.7-19.78,3.7c-9.69,0-18.47-2.62-18.47-2.62,0,0-2.08-20.22-13.58-64.78-6.04-23.36-14.64-53.38-26.92-90.69-33.89-103.12-44.18-163.45-45.14-169.16-.05-.31-.05-.46-.05-.46l.09-.05,104.21-45.74s-12.89,142.12,3.53,196.68c2.29,7.62,4.27,16.5,5.97,26.14,10.38,59.25,10.14,146.98,10.14,146.98Z" style="fill:#223f81; fill-rule:evenodd;"/><path d="M1762.12,1271.77l-41.7,83.28c-6.04-23.36-14.64-53.38-26.92-90.69-33.89-103.12-44.18-163.45-45.14-169.16,.02-.17,.02-.33,.05-.51l104.21-45.74s-12.89,142.12,3.53,196.68c2.29,7.62,4.27,16.5,5.97,26.14Z" style="fill:#20386f; fill-rule:evenodd;"/><path d="M1688.77,1416.68s-1.86,29.95-7.66,30.38c-.76,.06-29.38,.06-29.38,.06l-36.56-.22s.25-8.8,10.93-10.66c10.69-1.86,28.55-9.36,35.02-23.48,6.82-14.85,27.66,3.92,27.66,3.92Z" style="fill:#0e2952; fill-rule:evenodd;"/><path d="M1629.71,1052.3s-1.36,92.1,14.57,205.18c15.95,113.08,10.54,161.08,10.54,161.08,0,0,10.95,3.54,15.37,3.9,11.24,.93,22.79-2.62,22.79-2.62,0,0,22.81-113.13,16.27-169.73-6.55-56.6,31.23-194.21,31.23-194.21l-110.77-3.6Z" style="fill:#223f81; fill-rule:evenodd;"/><path d="M1713.88,833.92s52.8,53.88,55.42,75.13c2.62,21.25-25.95,54.47-25.95,54.47l-29.47-129.61Z" style="fill:#466fb5; fill-rule:evenodd;"/><path d="M1703.57,836.79l-20.33,13.34-29.38-5.48c.39-2.37,2.35-12.2,4.11-21.11,.09-.53,.21-1.05,.3-1.57,1.51-7.58,2.82-14.09,2.82-14.09l27.45-12.11,10.24-4.52c-.02,.16-.78,8.41-.89,9.62-1.93,21.39,5.69,35.92,5.69,35.92Z" style="fill:#f9af79; fill-rule:evenodd;"/><path d="M1661.37,830.06c.57-.24,33.27-12.18,37.06-10.93,3.77,1.25,11.06,11.4,11.06,11.4l-59.87,11.72s4.47-9.11,11.75-12.18Z" style="fill:#466fb5; fill-rule:evenodd;"/><path d="M1755.14,1063.67c-5.9,26.93-104.12,30.12-129.45,5.69-2.87-2.79-3.01-15.75-1.93-33.23,2.13-34.14,8.95-85.5,9.22-111.74,.12-12.66,1.86-25.63,4.18-37.4,4.94-25.08,12.47-44.76,12.47-44.76,0,0,47.96-15.51,56.95-12.87,43.24,12.71,54.46,207.39,48.56,234.31Z" style="fill:#6d96ce; fill-rule:evenodd;"/><path d="M1623.76,1036.13c2.13-34.14,8.95-85.5,9.22-111.74,.12-12.66,1.86-25.63,4.18-37.4l28.87-5.09s28.21,115.25-42.27,154.22Z" style="fill:#466fb5; fill-rule:evenodd;"/><path d="M1695.82,801.25c-6.01,10.21-28.48,19.03-37.84,22.29,.09-.53,.21-1.05,.3-1.57,1.51-7.58,2.82-14.09,2.82-14.09l27.45-12.11c6.08-.08,9.78,1.28,7.28,5.48Z" style="fill:#ed7d57; fill-rule:evenodd;"/><path d="M1650.75,806.21s44.21,13.79,52.39-13.87c8.17-27.66,19.36-44.52-8.52-54.49-27.88-9.98-36.51-1.05-41.49,7.52-4.96,8.57-13.65,56.54-2.39,60.84Z" style="fill:#f9af79; fill-rule:evenodd;"/><path d="M1654.88,742.71s2.82,32.2,9.48,30.79c6.66-1.39,12.69-2.42,11.72,7.28-.98,9.7,0,23.37,20.52,25.09,20.53,1.71,39.81-53.67,34.16-63.68-16.26-28.91-99.39-34.74-75.88,.52Z" style="fill:#20386f; fill-rule:evenodd;"/><path d="M1636.84,984.25s-3.83,8.38-7.25,10.14c-4.4,2.25-7.34,5.62-7.71,7.09-1.22,4.83-.71,13.83,3.08,18.65,2.55,3.21-.16-11.2,13.48-14.47,4.4-1.06,10.69-4.37,10.73-10.53,.07-7.29-.8-12.77-.8-12.77l-11.52,1.88Z" style="fill:#f9af79; fill-rule:evenodd;"/><path d="M1648.27,998.94s-6.8,15.61-8.66,15.01c-4.68-1.52,.48-6.99,.12-11.4-.25-2.95,8.54-3.61,8.54-3.61Z" style="fill:#f9af79; fill-rule:evenodd;"/><path d="M1671.66,835.33s-28.14,5.27-50.56,38.31c-22.44,33.05-37.17,57.63-33.04,69.54,4.11,11.9,31.82,53.22,38.33,53.22s23.7-4.36,24.28-14.99c0,0-18.54-41.15-15.84-48.59,2.92-8,32.2-26.14,36.79-14.33,7.59,19.54,.05-83.16,.05-83.16Z" style="fill:#7492cb; fill-rule:evenodd;"/></svg>