<?xml version="1.0" encoding="UTF-8"?><svg id="a" xmlns="http://www.w3.org/2000/svg" viewBox="0 0 1764.92 1302.77"><ellipse cx="870.01" cy="1277.58" rx="870.01" ry="25.19" style="fill:#d2dfee;"/><path d="M917.53,0c-212.25,0-301.67,151.87-454.9,269.92C259.82,426.16,57.04,324.45,24.57,852.37c-28.9,469.87,331.73,50.87,840.2,219.18,508.47,168.32,1026.34,236.09,872.67-308.48C1583.76,218.51,1410.7,0,917.53,0Z" style="fill:#eaeff8; fill-rule:evenodd;"/><g><path d="M1502.46,911.03l-13.01,7.57c-4.38,2.56-5.88,8.23-3.34,12.61l2.88,4.94c3.38,5.82,1.91,8.46,.86,9.4-2.9,2.6-5.58,5.41-8.28,8.21-.79,.83-3.3,3.64-9.91-.21l-4.54-2.63c-4.38-2.56-10.06-1.04-12.61,3.34l-7.57,13.01c-2.56,4.38-1.04,10.06,3.34,12.61l4.49,2.61c6.21,3.61,6.05,5.46,5.27,8.09-1.09,3.61-2.25,7.23-3.04,10.97-.7,3.32-.38,5.7-8.82,5.7h-5.17c-5.08,0-9.23,4.14-9.23,9.23v15.05c0,5.08,4.15,9.23,9.23,9.23h5.17c8.44,0,8.11,2.38,8.82,5.7,.79,3.74,1.95,7.36,3.04,10.96,.78,2.63,.94,4.49-5.27,8.1l-4.49,2.6c-4.38,2.56-5.89,8.24-3.34,12.62l7.57,13.01c2.55,4.38,8.23,5.88,12.61,3.34l4.54-2.63c6.61-3.85,9.12-1.04,9.91-.21,2.7,2.8,5.38,5.62,8.28,8.21,1.04,.94,2.52,3.57-.86,9.4l-2.88,4.94c-2.55,4.38-1.05,10.05,3.34,12.61l13.01,7.56c4.39,2.56,10.06,1.05,12.61-3.33l2.87-4.93c3.43-5.92,6.82-5.68,8.25-5.22,4.15,1.32,7.98,2.17,12.27,3.29,1.56,.4,4.23,1.54,4.23,8.59v5.28c0,5.08,4.14,9.23,9.23,9.23h15.05c5.08,0,9.23-4.15,9.23-9.23v-5.28c0-7.05,2.67-8.18,4.23-8.59,4.29-1.12,8.12-1.98,12.28-3.29,1.42-.46,4.81-.69,8.25,5.22l2.87,4.93c2.55,4.38,8.22,5.88,12.61,3.33l13.01-7.56c4.38-2.56,5.88-8.23,3.34-12.61l-2.88-4.94c-3.39-5.82-1.92-8.46-.86-9.4,2.9-2.59,5.59-5.41,8.28-8.21,.78-.83,3.3-3.64,9.91,.21l4.54,2.63c4.38,2.55,10.06,1.04,12.62-3.34l7.57-13.01c2.55-4.38,1.05-10.06-3.35-12.62l-4.5-2.6c-6.2-3.61-6.04-5.46-5.26-8.1,1.09-3.6,2.25-7.22,3.03-10.96,.71-3.32,.39-5.7,8.83-5.7h5.17c5.09,0,9.23-4.14,9.23-9.23v-15.05c0-5.08-4.14-9.23-9.23-9.23h-5.17c-8.44,0-8.11-2.38-8.83-5.7-.78-3.74-1.94-7.36-3.03-10.97-.78-2.63-.94-4.48,5.26-8.09l4.5-2.61c4.39-2.55,5.89-8.23,3.35-12.61l-7.57-13.01c-2.55-4.38-8.24-5.89-12.62-3.34l-4.54,2.63c-6.61,3.85-9.13,1.04-9.91,.21-2.7-2.8-5.38-5.61-8.28-8.21-1.05-.94-2.53-3.57,.86-9.4l2.88-4.94c2.55-4.38,1.05-10.05-3.34-12.61l-13.01-7.57c-4.39-2.55-10.06-1.05-12.61,3.34l-2.87,4.93c-3.43,5.92-6.82,5.68-8.25,5.22-4.15-1.32-7.99-2.17-12.28-3.29-1.56-.4-4.23-1.54-4.23-8.59v-5.28c0-5.09-4.15-9.23-9.23-9.23h-15.05c-5.09,0-9.23,4.14-9.23,9.23v5.28c0,7.05-2.67,8.18-4.23,8.59-4.29,1.12-8.11,1.98-12.27,3.29-1.43,.46-4.82,.69-8.25-5.22l-2.87-4.93c-2.55-4.38-8.22-5.88-12.61-3.34h0Zm56.99,93.09c10.98,0,19.87,8.9,19.87,19.87s-8.9,19.87-19.87,19.87-19.88-8.9-19.88-19.87,8.9-19.87,19.88-19.87h0Zm-62.3,19.87c0-2.34,1.9-4.25,4.25-4.25s4.25,1.91,4.25,4.25c0,14.86,6.02,28.3,15.75,38.04,9.73,9.73,23.18,15.75,38.04,15.75,2.35,0,4.25,1.91,4.25,4.25s-1.9,4.26-4.25,4.26c-17.2,0-32.77-6.98-44.05-18.25-11.28-11.28-18.25-26.85-18.25-44.06h0Zm123.78-10.04c.37,2.32-1.2,4.49-3.52,4.86-2.31,.36-4.48-1.21-4.85-3.52-1.83-11.28-7.17-21.38-14.86-29.15-7.71-7.78-17.77-13.22-29.01-15.17-2.32-.39-3.86-2.59-3.48-4.9,.4-2.31,2.59-3.86,4.9-3.47,13.03,2.25,24.68,8.54,33.6,17.55,8.91,9,15.1,20.72,17.22,33.79h0Zm-61.48-63.78c40.77,0,73.82,33.05,73.82,73.82s-33.05,73.83-73.82,73.83-73.82-33.05-73.82-73.83,33.05-73.82,73.82-73.82Z" style="fill:#fc9774; fill-rule:evenodd;"/><path d="M175.14,392.45l-13.01,7.57c-4.39,2.56-5.89,8.23-3.34,12.61l2.88,4.94c3.39,5.82,1.91,8.46,.86,9.4-2.89,2.6-5.58,5.41-8.27,8.21-.79,.83-3.3,3.64-9.92-.21l-4.54-2.63c-4.39-2.55-10.06-1.04-12.61,3.34l-7.56,13.01c-2.55,4.38-1.05,10.06,3.34,12.61l4.49,2.62c6.2,3.6,6.05,5.45,5.26,8.08-1.08,3.62-2.24,7.23-3.03,10.96-.7,3.33-.39,5.71-8.82,5.71h-5.17c-5.08,0-9.22,4.14-9.22,9.23v15.05c0,5.08,4.14,9.23,9.22,9.23h5.17c8.43,0,8.12,2.37,8.82,5.7,.79,3.74,1.95,7.36,3.03,10.97,.79,2.63,.94,4.48-5.26,8.09l-4.49,2.61c-4.39,2.55-5.89,8.22-3.34,12.61l7.56,13.01c2.55,4.38,8.22,5.88,12.61,3.34l4.54-2.63c6.62-3.85,9.13-1.04,9.92-.21,2.7,2.8,5.38,5.61,8.27,8.21,1.05,.94,2.53,3.57-.86,9.4l-2.88,4.94c-2.55,4.38-1.05,10.05,3.34,12.61l13.01,7.57c4.39,2.55,10.06,1.04,12.61-3.35l2.87-4.92c3.44-5.92,6.82-5.68,8.26-5.23,4.15,1.32,7.98,2.18,12.26,3.29,1.56,.4,4.24,1.54,4.24,8.59v5.28c0,5.08,4.14,9.23,9.23,9.23h15.05c5.08,0,9.23-4.15,9.23-9.23v-5.28c0-7.05,2.68-8.18,4.24-8.59,4.28-1.12,8.11-1.98,12.27-3.29,1.43-.46,4.81-.69,8.25,5.23l2.87,4.92c2.55,4.39,8.22,5.89,12.61,3.35l13.01-7.57c4.39-2.56,5.89-8.23,3.34-12.61l-2.87-4.94c-3.39-5.82-1.91-8.46-.86-9.4,2.89-2.6,5.58-5.41,8.27-8.21,.79-.83,3.31-3.64,9.92,.21l4.54,2.63c4.39,2.55,10.06,1.05,12.61-3.34l7.57-13.01c2.55-4.39,1.05-10.06-3.34-12.61l-4.5-2.61c-6.2-3.61-6.04-5.46-5.26-8.09,1.08-3.61,2.24-7.23,3.02-10.97,.71-3.33,.39-5.7,8.83-5.7h5.17c5.08,0,9.23-4.15,9.23-9.23v-15.05c0-5.08-4.14-9.23-9.23-9.23h-5.17c-8.44,0-8.12-2.38-8.83-5.71-.79-3.73-1.94-7.34-3.02-10.96-.79-2.63-.94-4.48,5.26-8.08l4.5-2.62c4.39-2.55,5.89-8.23,3.34-12.61l-7.57-13.01c-2.55-4.38-8.23-5.88-12.61-3.34l-4.54,2.63c-6.61,3.85-9.13,1.04-9.92,.21-2.69-2.8-5.38-5.61-8.27-8.21-1.05-.94-2.53-3.57,.86-9.4l2.87-4.94c2.55-4.38,1.05-10.06-3.34-12.61l-13.01-7.57c-4.39-2.55-10.06-1.04-12.61,3.34l-2.87,4.93c-3.44,5.92-6.82,5.68-8.25,5.23-4.15-1.32-7.99-2.18-12.27-3.28-1.56-.41-4.24-1.55-4.24-8.6v-5.28c0-5.08-4.14-9.23-9.23-9.23h-15.05c-5.08,0-9.23,4.14-9.23,9.23v5.28c0,7.05-2.68,8.18-4.24,8.6-4.28,1.11-8.11,1.97-12.26,3.28-1.44,.46-4.82,.69-8.26-5.23l-2.87-4.93c-2.55-4.38-8.22-5.88-12.61-3.34h0Zm56.99,93.09c10.98,0,19.87,8.9,19.87,19.87s-8.9,19.87-19.87,19.87-19.88-8.9-19.88-19.87,8.9-19.87,19.88-19.87h0Zm-62.3,19.87c0-2.34,1.91-4.25,4.25-4.25s4.25,1.91,4.25,4.25c0,14.86,6.02,28.3,15.76,38.04,9.73,9.74,23.18,15.75,38.04,15.75,2.34,0,4.25,1.91,4.25,4.25s-1.91,4.26-4.25,4.26c-17.2,0-32.78-6.98-44.05-18.25-11.28-11.28-18.25-26.85-18.25-44.06h0Zm123.78-10.04c.37,2.32-1.21,4.49-3.52,4.85-2.31,.37-4.49-1.2-4.85-3.51-1.83-11.28-7.17-21.37-14.86-29.15-7.7-7.78-17.76-13.22-29.01-15.17-2.31-.4-3.87-2.59-3.47-4.9,.39-2.31,2.59-3.86,4.9-3.47,13.04,2.25,24.69,8.54,33.6,17.55,8.91,9,15.1,20.72,17.22,33.79h0Zm-61.48-63.79c40.77,0,73.82,33.05,73.82,73.83s-33.05,73.82-73.82,73.82-73.82-33.04-73.82-73.82,33.05-73.83,73.82-73.83Z" style="fill:#fc9774; fill-rule:evenodd;"/><path d="M1458.54,1214.44l-1117.92,1.67c-22.34,.03-40.47-18.06-40.51-40.39l-1.12-753.99c-.04-22.34,18.05-40.47,40.39-40.51l1117.91-1.67c22.34-.03,40.48,18.05,40.51,40.4l1.12,753.99c.03,22.33-18.05,40.47-40.39,40.5Z" style="fill:#87bef5; fill-rule:evenodd;"/><path d="M1420.65,1170.27l-1042.28,1.55c-20.38,.03-36.93-16.46-36.96-36.85l-1-672.63c-.03-20.38,16.47-36.92,36.85-36.95l1042.27-1.55c20.38-.04,36.93,16.46,36.95,36.84l1,672.63c.03,20.38-16.47,36.93-36.84,36.95Z" style="fill:#eff9fc; fill-rule:evenodd;"/><path d="M1456.5,463.46l.02,19.08-1117.42,1.66-.03-19.08c-.04-22.34,15.37-40.49,41.75-40.54l1033.82-1.53c27.82-.04,41.83,13.91,41.87,40.4Z" style="fill:#bbdbfa; fill-rule:evenodd;"/><path d="M1324.87,452.96c.02,6.23-5.02,11.28-11.24,11.28-6.23,0-11.28-5.02-11.28-11.25,0-6.22,5.02-11.27,11.25-11.28,6.22-.02,11.28,5.02,11.28,11.25h0Zm80.91-.12c.02,6.23-5.02,11.28-11.25,11.28-6.23,0-11.28-5.02-11.28-11.25,0-6.23,5.02-11.28,11.26-11.28,6.22,0,11.27,5.03,11.28,11.25h0Zm-40.45,.06c0,6.23-5.02,11.27-11.26,11.28-6.22,0-11.28-5.02-11.28-11.26-.02-6.22,5.02-11.27,11.24-11.28,6.23,0,11.28,5.02,11.29,11.25Z" style="fill:#fff; fill-rule:evenodd;"/><polygon points="621.11 18.41 681.96 123.72 682.18 124.55 682.18 381.11 678.9 381.11 678.9 124.97 621.33 25.34 621.33 381.11 618.05 381.11 618.05 19.23 621.11 18.41" style="fill:#1e77d1; fill-rule:evenodd;"/><rect x="442.97" y="190.78" width="616.22" height="3.28" style="fill:#1e77d1;"/><path d="M444.46,148.38h167.97v45.49h-169.42v-45.49h1.45Zm165.07,2.9h-163.62v39.69h163.62v-39.69Z" style="fill:#1e77d1; fill-rule:evenodd;"/><path d="M610.98,190.97h106.89v155.53h-108.34V190.97h1.45Zm103.99,2.9h-102.54v149.73h102.54V193.87Z" style="fill:#1e77d1; fill-rule:evenodd;"/><path d="M714.97,216.94h-71.02v94.06h71.02v-94.06h0Zm-72.47-2.9h75.36v99.86h-76.81v-99.86h1.44Z" style="fill:#1e77d1; fill-rule:evenodd;"/><path d="M713.37,143.17h284.35l.9,.31,61.47,47.8-.9,2.59h-347.26v-50.7h1.44Zm283.85,2.9h-282.4v44.9h340.15l-57.75-44.9Z" style="fill:#1e77d1; fill-rule:evenodd;"/><polygon points="610.37 152.19 566.35 193.48 565.31 194.45 564.32 193.43 525.06 152.87 483.88 193.46 482.81 194.51 481.79 193.4 443.39 151.24 445.52 149.3 482.92 190.34 524.06 149.79 525.1 148.76 526.11 149.81 565.4 190.39 608.39 150.09 610.37 152.19" style="fill:#1e77d1; fill-rule:evenodd;"/><polygon points="715.22 143.6 757.66 190.18 804.35 144.17 805.39 143.15 806.4 144.18 850.99 190.24 899.75 144.52 900.75 143.57 901.75 144.54 949 190.4 996.71 143.59 998.74 145.65 950.02 193.46 949.01 194.44 948 193.46 900.72 147.57 851.93 193.33 850.89 194.3 849.91 193.27 805.34 147.25 758.61 193.3 757.55 194.35 756.53 193.24 713.08 145.55 715.22 143.6" style="fill:#1e77d1; fill-rule:evenodd;"/><polygon points="653.59 381.11 619.11 345.98 621.17 343.95 657.64 381.11 653.59 381.11" style="fill:#1e77d1; fill-rule:evenodd;"/><path d="M619.69,124h62.3v69.88h-63.75V124h1.45Zm59.4,2.9h-57.95v64.08h57.95V126.89Z" style="fill:#1e77d1; fill-rule:evenodd;"/><rect x="610.98" y="192.42" width="105.44" height="152.63" style="fill:#61a0e0;"/><rect x="849.21" y="193.33" width="8.88" height="427.67" style="fill:#1e77d1;"/><rect x="905.39" y="193.33" width="8.88" height="427.67" style="fill:#1e77d1;"/><polygon points="651.2 72.85 622.96 104.4 669.44 103.89 669.98 106.68 620.23 126.79 619.16 124.11 661.8 106.86 619.71 107.33 618.23 107.35 618.11 105.48 618.62 104.92 649.04 70.93 651.2 72.85" style="fill:#1e77d1; fill-rule:evenodd;"/><path d="M371.75,136.61h74.49v66.38h-18.26v24.99h-39.42v-24.99h-18.26v-66.38h1.45Zm71.59,2.9h-70.14v60.58h18.26v25h33.62v-25h18.26v-60.58Z" style="fill:#1e77d1; fill-rule:evenodd;"/><path d="M833.91,603.65h95.65v26.96h-13.04l-34.78,15.65-29.13-15.65h-18.7v-26.96h0Zm.44-422.98h95.22v21.3h-95.22v-21.3Z" style="fill:#61a0e0; fill-rule:evenodd;"/><polygon points="682.18 311 714.97 311 714.97 216.94 682.18 216.94 678.9 216.94 643.95 216.94 643.95 311 678.9 311 682.18 311" style="fill:#dfedfa; fill-rule:evenodd;"/><g><path d="M367.65,657.97h283.37c8.32,0,5.19,25.97,6.35,34.22l68.81,488.29c1.99,14.13-12.72,28.32-28.39,28.32H414.42c-8.32,0-15.86-6.81-16.75-15.13l-53.93-501.48c-.89-8.32,15.58-34.22,23.9-34.22Z" style="fill:#61a0e0; fill-rule:evenodd;"/><path d="M367.72,657.17h283.37c6.78,0,6.77,14.15,6.77,25.13,0,3.98,0,7.53,.31,9.71l68.81,488.28c.06,.44,.07,.9,.03,1.37-.38,4.38-.21,12.27-5.9,17.84-5.65,5.56-17.19,8.88-21.69,9.88-.61,.13-1.17,.21-1.69,.21H414.36c-4.35,0-8.49-1.77-11.65-4.64-3.16-2.85-5.36-6.8-5.83-11.14l-53.92-501.49c-.05-.48-.05-1.03,0-1.61,.41-4.72,4.21-12.67,8.93-19.61h0c4.77-7,10.54-13.04,14.81-13.85,.35-.07,.69-.11,1.01-.11h0Zm283.23,1.6H367.58c-.23,0-.47,.02-.71,.07-3.79,.72-9.15,6.44-13.69,13.09h0c-4.58,6.72-8.26,14.35-8.65,18.8-.04,.49-.04,.92,0,1.31l53.92,501.49c.43,3.97,2.45,7.59,5.37,10.22,2.91,2.63,6.7,4.25,10.67,4.25h283.37c.41,0,.86-.05,1.34-.16,4.18-.93,15.39-4.07,20.84-9.41,5.42-5.32,5.03-12.8,5.37-16.76,.03-.36,.03-.71-.02-1.02l-68.81-488.28c-.33-2.32-.33-5.91-.33-9.93,0-10.34,.01-23.67-5.3-23.67Z" style="fill:#1e77d1; fill-rule:evenodd;"/><path d="M372.71,657.97h283.37c8.32,0,15.86,6.81,16.75,15.12l55.05,511.69c.9,8.32-5.18,15.12-13.5,15.12H431.01c-8.31,0-15.85-6.81-16.75-15.12l-55.06-511.69c-.89-8.32,5.18-15.12,13.5-15.12Z" style="fill:#a4d0fc; fill-rule:evenodd;"/><path d="M372.78,657.17h283.37c4.35,0,8.49,1.77,11.65,4.64,3.16,2.84,5.35,6.79,5.82,11.13l55.03,511.54c.11,1.03,.12,2.04,.04,3.01-.28,3.22-1.57,6.11-3.58,8.36-2.02,2.24-4.76,3.83-7.93,4.43-.93,.18-1.9,.27-2.88,.27H430.93c-4.35,0-8.49-1.77-11.65-4.63-3.16-2.85-5.36-6.8-5.82-11.14l-55.04-511.54c-.11-1.03-.12-2.04-.04-3.01,.28-3.22,1.57-6.11,3.58-8.35,2.02-2.25,4.76-3.83,7.93-4.43,.93-.18,1.9-.27,2.89-.27h0Zm283.23,1.6H372.64c-.9,0-1.77,.08-2.59,.23-2.78,.54-5.19,1.92-6.95,3.88-1.76,1.96-2.89,4.5-3.13,7.35-.08,.88-.07,1.79,.03,2.71l55.03,511.54c.43,3.98,2.45,7.6,5.36,10.22,2.91,2.63,6.7,4.25,10.67,4.25h283.37c.9,0,1.76-.08,2.59-.23,2.79-.54,5.19-1.92,6.95-3.88,1.76-1.96,2.89-4.5,3.14-7.35,.07-.88,.07-1.79-.03-2.71l-55.03-511.54c-.43-3.98-2.45-7.6-5.36-10.22-2.91-2.63-6.7-4.25-10.66-4.25Z" style="fill:#1e77d1; fill-rule:evenodd;"/><path d="M393.58,689.83h245.52c6.74,0,12.85,5.51,13.59,12.24l50.24,454.75c.75,6.74-4.15,12.23-10.88,12.23h-245.53c-6.73,0-12.85-5.5-13.59-12.23l-50.23-454.75c-.75-6.74,4.15-12.24,10.88-12.24Z" style="fill:#eff9fc; fill-rule:evenodd;"/><path d="M630.2,693.77c6.73,0,12.85,5.51,13.59,12.23l50.24,454.75c.35,3.2-.57,6.13-2.36,8.31h.37c6.73,0,11.63-5.5,10.88-12.23l-50.24-454.75c-.75-6.74-6.86-12.24-13.59-12.24h-245.52c-3.53,0-6.56,1.52-8.54,3.93h245.16Z" style="fill:#e1f4fa; fill-rule:evenodd;"/><path d="M514.54,666.34c5.22,0,9.92,4.24,10.5,9.46,.58,5.22-3.19,9.46-8.41,9.46s-9.92-4.23-10.5-9.46c-.58-5.22,3.19-9.46,8.41-9.46Z" style="fill:#d2e5f7; fill-rule:evenodd;"/></g><path d="M224.45,1198.34H781.62c.14,4.69,4.11,8.44,8.99,8.44h216.69c4.88,0,8.85-3.75,8.99-8.44h557.17v35.65c0,19.62-16.63,35.65-36.96,35.65H249.39c-13.74,0-24.94-10.81-24.94-24.06v-47.25Z" style="fill:#61a0e0; fill-rule:evenodd;"/><path d="M504.64,981.85l-2.46-15.54-64.07-27.5-.04-.29,55.31-27.64-2.48-15.67-71.4,37.62,1.83,11.54,83.32,37.48h0Zm44.32-111.29h-14.25l-18.8,117.7h14.25l18.79-117.7h0Zm12.89,24.65l2.45,15.39,66.39,27.79,.04,.28-57.57,27.79,2.44,15.39,71.71-36.62-2.12-13.4-83.33-36.62Z" style="fill:#61a0e0; fill-rule:evenodd;"/><path d="M884.24,857.37v-28.44l-102.74-52.43v-.53l102.47-52.15v-27.92l-124.86,67.7v25.82l125.12,67.96h0Zm133.29-192.3c3.69-8.42,7.11-14.48,7.11-17.64,0-5.54-6.85-7.12-10.8-7.12-17.39,0-20.55,1.58-32.4,32.67l-62.96,164.11c-2.11,5.27-8.43,21.08-8.43,26.08,0,2.9,2.9,4.21,5.53,4.21,13.97,0,18.45-13.17,21.34-19.5l80.61-182.81h0Zm33.19,30.82v27.92l102.73,52.15v.79l-102.46,52.16v28.44l124.86-67.96v-25.82l-125.12-67.7Z" style="fill:#f57a44; fill-rule:evenodd;"/><path d="M901.76,708.65c0-2.27,1.84-4.11,4.11-4.11s4.11,1.84,4.11,4.11c0,7.38-2.99,14.05-7.83,18.89-4.83,4.83-11.52,7.82-18.89,7.82s-14.05-2.99-18.88-7.83h0c-4.83-4.83-7.82-11.5-7.82-18.88,0-12.48,8.67-23.25,20.7-26.04l.4-35.79c.03-2.6,1.88-4.7,4.14-4.66,2.26,.03,4.07,2.17,4.04,4.78l-.4,35.61c0,3.28,.65,8.35-2.17,7.6-5.12,0-9.75,2.06-13.08,5.4v.02c-3.35,3.34-5.42,7.96-5.42,13.08s2.07,9.73,5.42,13.08h0s0,.02,0,.02c3.34,3.34,7.96,5.4,13.08,5.4s9.73-2.07,13.08-5.42c3.35-3.35,5.42-7.97,5.42-13.08Z" style="fill:#1e77d1; fill-rule:evenodd;"/><g><path d="M1670.3,633.51v-190.74c0-6.2-5.08-11.26-11.25-11.26h-552.99c-6.18,0-15.79,5.08-15.79,11.26v200.94c0,6.17,5.06,11.26,11.26,11.26h542.83c20.56,0,25.94-15.26,25.94-21.46Z" style="fill:#61a0e0; fill-rule:evenodd;"/><path d="M1670.3,633.51v-190.79c0-6.19-5.08-11.26-11.25-11.26h-548.67c-6.18,0-11.26,5.08-11.26,11.26v190.79c0,6.18,5.06,11.26,11.26,11.26h548.67c6.18,0,11.25-5.06,11.25-11.26Z" style="fill:#eff9fc; fill-rule:evenodd;"/><path d="M1662.02,633.51v-190.79c0-1.63-1.35-2.97-2.97-2.97h-548.67c-1.63,0-2.97,1.34-2.97,2.97v190.79c0,1.63,1.33,2.97,2.97,2.97h548.67c1.62,0,2.97-1.33,2.97-2.97h0Zm-8.3-5.31h-538.03v-180.15h538.03v180.15Z" style="fill:#a4d0fc; fill-rule:evenodd;"/><path d="M1671.03,633.51v-190.79c0-3.29-1.34-6.29-3.52-8.46h0c-2.17-2.18-5.16-3.52-8.45-3.52h-548.67c-.39,0-.75,.02-1.14,.05h-3.18c-3.49,0-8,1.53-11.4,3.96-2.96,2.11-5.11,4.91-5.11,8.02v200.94c0,3.29,1.35,6.29,3.51,8.46,2.18,2.17,5.16,3.51,8.47,3.51h542.83c8.37,0,14.3-2.48,18.41-5.88,5.77-4.77,7.93-11.35,8.21-15.37,.03-.17,.04-.33,.04-.51v-.41h0Zm-566.61-201.16c-.91,.53-1.75,1.18-2.49,1.91h0c-2.18,2.18-3.51,5.17-3.51,8.47v190.79c0,3.29,1.33,6.29,3.51,8.46h0c2.18,2.18,5.16,3.53,8.46,3.53h548.67c3.06,0,5.85-1.17,7.97-3.08-1.19,2.2-2.88,4.38-5.17,6.28-3.87,3.21-9.51,5.56-17.49,5.56h-542.83c-2.9,0-5.53-1.19-7.44-3.11-1.92-1.91-3.1-4.53-3.1-7.43v-200.94c0-2.57,1.9-4.99,4.5-6.84,2.65-1.89,6-3.2,8.91-3.58h0Zm4.9-.12h549.74c2.88,0,5.52,1.19,7.43,3.11,1.91,1.91,3.11,4.54,3.11,7.44v190.74l-.02,.33v.21h0c-.14,2.69-1.3,5.11-3.09,6.9-1.91,1.91-4.55,3.09-7.43,3.09h-548.67c-2.9,0-5.54-1.19-7.45-3.09-1.91-1.91-3.09-4.55-3.09-7.45v-190.79c0-2.9,1.19-5.54,3.09-7.45,1.67-1.68,3.9-2.79,6.38-3.05Z" style="fill:#1e77d1; fill-rule:evenodd;"/><g style="opacity:.25;"><path d="M1670.3,584.48c-74.3,27.11-161.54,30.42-216.58-7.08-108.69-74.05-74.71-3.4-233.31-32.27-75.02-13.66-88.54-65.84-107.14-113.67h-2.89c-6.18,0-11.26,5.08-11.26,11.26v190.79c0,6.18,5.06,11.26,11.26,11.26h548.67c6.18,0,11.25-5.06,11.25-11.26v-49.03Z" style="fill:#8bbae9; fill-rule:evenodd;"/></g><g><rect x="1158.12" y="518.37" width="32.37" height="91.89" style="fill:#a4d0fc;"/><rect x="1204.87" y="534.06" width="32.37" height="76.2" style="fill:#a4d0fc;"/><rect x="1251.64" y="488.05" width="32.38" height="122.2" style="fill:#a4d0fc;"/><rect x="1298.4" y="517.94" width="32.37" height="92.32" style="fill:#a4d0fc;"/><rect x="1345.15" y="564.04" width="32.37" height="46.22" style="fill:#a4d0fc;"/><rect x="1391.9" y="545.69" width="32.38" height="64.57" style="fill:#a4d0fc;"/><rect x="1438.67" y="522.63" width="32.38" height="87.62" style="fill:#a4d0fc;"/><rect x="1485.43" y="479.1" width="32.37" height="131.16" style="fill:#a4d0fc;"/><rect x="1532.18" y="490.2" width="32.37" height="120.06" style="fill:#a4d0fc;"/><rect x="1578.93" y="468.42" width="32.37" height="141.84" style="fill:#a4d0fc;"/></g></g><g><path d="M1440.89,810.52c-.88,1.17,2.3,3.66,.95,4.11-.37,9.65-23.46,22.33-27.66,18.06-5.82-5.95,1.81-37.88-9.12-41.31-22.17-6.94-38.24,28.6-47.84,24.63-19.53-8.04-36.57-49.86-7.52-72.77,14.15-17.33,.07-73.73,31.6-84.17,42.23-18.27,77.51,127.97,59.59,151.45Z" style="fill:#284191; fill-rule:evenodd;"/><path d="M1360.42,903.26c-3.19,2.79-6.68,3.93-10.76,3.08,3.82,2.9,9.12,.68,10.76-3.08Z" style="fill:#f58b67; fill-rule:evenodd;"/><path d="M1346.03,1180.23c.61-4.32-.75-11.73-4.13-23.35,6.69,.02,12.32-2.94,19.15-2.84,1.87,10.92,4.77,28.85,4.77,28.85l.31,14.17-47.61,.36s.4,.2,14.45-8.67c1.03-.66,12.49-4.36,13.07-8.53Z" style="fill:#ffb27d; fill-rule:evenodd;"/><path d="M1366.35,1200.7h-49.14c-1.81-.16-2.27-1.64-1.63-2.56,1.31-1.89,10.89-6.39,17.33-9.4,11.3,1.19,31.17-3.47,32.96-6.08,3.09,8.67,1.5,17.81,.48,18.03Z" style="fill:#284191; fill-rule:evenodd;"/><path d="M1405.33,1180.23c.61-4.32,1.64-9.72,.13-24.11,6.69,0,13.05-1.24,19.89-1.14,0,11.23-.23,27.91-.23,27.91l.3,14.17-47.61,.36s.4,.2,14.44-8.67c1.04-.66,12.5-4.36,13.08-8.53Z" style="fill:#ffb27d; fill-rule:evenodd;"/><path d="M1425.65,1200.7h-49.14c-1.82-.16-2.26-1.64-1.62-2.56,1.29-1.89,10.89-6.39,17.33-9.4,11.29,1.19,31.16-3.47,32.93-6.08,3.11,8.67,1.52,17.81,.5,18.03Z" style="fill:#284191; fill-rule:evenodd;"/><path d="M1370.74,769.14l-17.91-18.88s-19.16,10.54-41.5,20.61c-6.15-10.69-16.17-45.87-16.7-47.53-.54-1.7,11.73-22.81,8.99-23.33-2.75-.54-6.32,11.28-9.22,10.07-2.91-1.19-10.37-28.59-12.12-27.09-3.28,2.79,3.93,17.04,2.2,18.07-1.72,1.04-6.1-15.78-9.42-15.07-3.34,.71,5.61,15.31,4.64,16.71-.99,1.41-10.34-12.29-12.28-9.11-1.05,1.71,8.62,11.92,6.64,13.07-1.98,1.14-10.71-5.29-11.75-3.21-1.04,2.08,8.14,4.25,10.7,9.53,2.54,5.25,7.17,7.32,8.72,17.28,1.53,9.95,5.73,63.2,16.59,67.48,9.48,3.73,72.43-28.6,72.43-28.6Z" style="fill:#ffb27d; fill-rule:evenodd;"/><path d="M1359.17,871.04l14.53,8.11,29.51,45.12-52.79,124.25s5.95,18.69,7.89,28.02c2.02,9.76,7,93.59,7,93.59l-22.52,.38s-21.39-89.25-25.01-118.21c-4.39-35.18,22.39-118.94,22.39-118.94,4.99-17.09,15.75-52.25,15.75-52.25,0,0,2.63-8.58,3.25-10.07Z" style="fill:#3b5bb3; fill-rule:evenodd;"/><path d="M1409.71,854.09s-1.51,10.61,4.5,22.73c3.66,7.38,9.99,13.17,14.52,22.21,8.57,17.12,13.22,41.42,10.01,57.04,0,0-17.72,67.66-17.02,92.38,.25,9.13,3.39,25.56,5.38,36.66,1.77,9.82,2.37,83.88,2.37,83.88l-25.15-.75-19.25-119.47-8.14-106.2-17.77-71.53,50.55-16.95Z" style="fill:#4567c6; fill-rule:evenodd;"/><path d="M1351.17,781.02c-8.01,3.7-22.53,9.26-22.53,9.26l-8.25-26.11c46.67-26.56,43-22.26,78.03-21.74,27.98,.4,39.72-4.95,63.81,60.11,0,0-18.34,8.24-24.9,10.88-2.84-8.04-7.93-24.08-10.91-14.94-4.5,13.81-7.8,27.76-10.01,42.12-1.4,8.5-4.44,19.4-2.84,28.07,0,0-19.06,3.92-33.62,4.57h-.12c-7.02-.18-14.23-.8-20.65-2.19,0,0-2.85-60.34-4.37-62.86-1.69-2.78-8.82-11.79-2.76-25.27,1.08-2.38,.79-2.65-.86-1.89Z" style="fill:#61a0e0; fill-rule:evenodd;"/><path d="M1394.98,716.67s2.14,17.24,3.39,23.21c1.32,6.26,3.29,25.99-9.69,29.18-12.98,3.2-8.97-21.44-9.18-27.81-.21-6.38-3.9-28.56-3.9-28.56l19.37,3.98Z" style="fill:#ffb27d; fill-rule:evenodd;"/><path d="M1396.8,730.01c-.13,.08-.26,.16-.4,.24-7.17,4.11-13.41,3.47-18.1,.26-.84-5.51-1.58-9.99-1.58-9.99l19.37,3.98s.28,2.3,.7,5.51Z" style="fill:#f37960; fill-rule:evenodd;"/><path d="M1388.92,679.97s7.8,1.27,13,8.3c5.2,7.02,9.78,28.33-5.23,39.33-15.02,10.99-28.05-2.48-29.1-16.31-1.07-13.85,.74-32.52,21.34-31.32Z" style="fill:#ffb27d; fill-rule:evenodd;"/><path d="M1409.1,714.2c9.26-10.88,9.73-5.2,11.15-20.58,.33-42.36-49.46-42.75-47.01-20.05-4.15,4.87-.69,7.19,2.92,10.3,30.05,25.91,30.65-5.3,32.93,30.32Z" style="fill:#284191; fill-rule:evenodd;"/><path d="M1373.59,669.72c3.08,.28,4.81-.63,5.2-2.75-2.19-3.92-5.25-6.29-9.19-7.13,1.73,1.43,3.06,4.72,4,9.88Z" style="fill:#284191; fill-rule:evenodd;"/><path d="M1372.62,668.66c-1.97,.59-2.78-.08-2.42-1.99,2.44-3.85,4.99-6.37,7.64-7.55-1.46,1.49-3.2,4.68-5.22,9.55Z" style="fill:#284191; fill-rule:evenodd;"/><path d="M1366.37,708.87c-1.53-7.51,.02-15.11,1.53-22.63,2.26-11.21,10.22-6.24,6.64-.75-7.03,10.71-5.1,7.19-8.17,23.39Z" style="fill:#284191; fill-rule:evenodd;"/><path d="M1371.92,678.37c-3.5-.74-5.63,.08-6.36,2.47,1.98,4.79,5.19,7.95,9.62,9.45-1.79-1.88-2.88-5.85-3.26-11.92Z" style="fill:#284191; fill-rule:evenodd;"/><path d="M1376.47,681.31c-3.17,.34-4.68,1.76-4.56,4.25,3.16,3.98,6.81,6.02,10.98,6.12-2.07-1.25-4.21-4.71-6.42-10.37Z" style="fill:#284191; fill-rule:evenodd;"/><path d="M1365.46,696.33c-.15,2.99,1.13,5.5,2.87,5.58,1.72,.09,3.25-2.26,3.4-5.26,.15-2.99-1.13-5.5-2.85-5.58-1.74-.09-3.27,2.27-3.42,5.26Z" style="fill:#ffb27d; fill-rule:evenodd;"/><path d="M1404.72,701.38c-.19,3.06,1.32,5.66,3.37,5.8,2.05,.13,3.87-2.23,4.06-5.29,.2-3.07-1.32-5.66-3.37-5.8-2.05-.13-3.86,2.23-4.06,5.29Z" style="fill:#ffb27d; fill-rule:evenodd;"/><path d="M1377.67,741.87c-.03,14.9,.94,21.84,4.13,25.77,.68,.84,1.43,1.49,2.22,1.97-.07,.25-.11,.5-.11,.76,0,.94,.43,1.78,1.12,2.38-.2,.32-.32,.69-.32,1.09,0,.84,.53,1.58,1.32,1.96-.14,.19-.22,.41-.22,.66,0,.69,.62,1.24,1.38,1.24s1.39-.55,1.39-1.24c0-.25-.09-.47-.22-.67,.77-.37,1.31-1.11,1.31-1.95,0-.23-.04-.46-.12-.67,1.04-.59,1.72-1.62,1.72-2.8,0-.36-.06-.7-.17-1.03,.74-.45,1.47-1.03,2.16-1.72,4.2-4.2,8.16-12.83,7.61-25.18h-2.06c.97,11.66-2.89,20.06-6.78,23.95-.63,.64-1.29,1.15-1.95,1.54-.66-.54-1.53-.86-2.48-.86-1.06,0-2.01,.4-2.69,1.04-.62-.37-1.22-.88-1.77-1.56-2.92-3.62-3.64-11.28-3.64-24.66l-1.84-.03Z" style="fill:#4f8ecc; fill-rule:evenodd;"/><path d="M1322.74,762.84c2.3,7.32,4.13,13.07,5.55,17.5,1.42,4.44,2.4,7.45,2.92,8.95l1.24-.48c-.53-1.49-1.49-4.44-2.92-8.87-1.4-4.41-3.28-10.44-5.59-17.78l-1.2,.68Z" style="fill:#4f8ecc; fill-rule:evenodd;"/><path d="M1461.07,799.39c-6.47,2.32-11.84,4.31-16.1,5.97-4.22,1.64-7.2,2.91-9.11,3.86l.44,1.26c1.85-.93,4.96-2.26,9.14-3.89,4.14-1.62,9.5-3.6,16.08-5.95l-.45-1.26Z" style="fill:#4f8ecc; fill-rule:evenodd;"/><path d="M1460.26,797.29c-6.48,2.31-11.86,4.3-16.11,5.96-4.22,1.64-7.16,2.88-9.05,3.84l.46,1.26c1.85-.93,4.88-2.24,9.07-3.87,4.14-1.61,9.54-3.59,16.11-5.95l-.47-1.25Z" style="fill:#4f8ecc; fill-rule:evenodd;"/><path d="M1324.9,761.62c2.3,7.32,4.09,12.99,5.52,17.41,1.42,4.44,2.53,7.87,3.06,9.37l1.26-.49c-.52-1.49-1.64-4.85-3.06-9.28-1.41-4.41-3.28-10.34-5.58-17.68l-1.2,.67Z" style="fill:#61a0e0; fill-rule:evenodd;"/><g><g><path d="M1359.5,838.45l-63.72-128.94c1.41-.6,2.8-1.24,4.18-1.91,1.39-.69,2.74-1.41,4.06-2.16l63.72,128.95c1.12,2.29,.2,5.08-2.06,6.19h0c-2.26,1.12-5.03,.17-6.17-2.12Z" style="fill:#fc9774; fill-rule:evenodd;"/><path d="M1192.74,672.45c19.03,38.52,64.72,55.1,103.75,38.46,1.41-.6,2.79-1.24,4.18-1.91,1.37-.69,2.73-1.41,4.06-2.16,36.92-20.89,51.5-67.25,32.47-105.76-19.71-39.89-68.02-56.25-107.92-36.54-39.89,19.71-56.25,68.03-36.54,107.92h0Zm105.1,30.82c-36.74,18.15-81.23,3.08-99.37-33.64-18.15-36.73-3.09-81.22,33.64-99.37,36.73-18.15,81.22-3.08,99.37,33.64,18.15,36.73,3.08,81.22-33.64,99.37Z" style="fill:#fc9774; fill-rule:evenodd;"/><g style="opacity:.46;"><path d="M1198.46,669.63c18.14,36.72,62.63,51.79,99.37,33.64,36.72-18.15,51.79-62.64,33.64-99.37-18.15-36.72-62.64-51.79-99.37-33.64-36.73,18.15-51.79,62.64-33.64,99.37Z" style="fill:#e6e6e6; fill-rule:evenodd;"/><path d="M1265.03,713.21h0c-29.32,0-55.6-16.32-68.58-42.59-18.67-37.78-3.11-83.71,34.67-102.38,10.64-5.25,22.01-7.92,33.8-7.92,29.32,0,55.6,16.32,68.58,42.59,18.67,37.78,3.12,83.71-34.66,102.38-10.64,5.26-22.01,7.93-33.8,7.93Zm-.11-148.4c-11.09,0-21.8,2.51-31.82,7.46-35.56,17.57-50.2,60.79-32.62,96.36,12.22,24.72,36.95,40.08,64.55,40.08,11.08,0,21.8-2.51,31.81-7.46,35.57-17.57,50.2-60.79,32.63-96.36-12.22-24.72-36.95-40.08-64.55-40.08Z" style="fill:#f5d8c1;"/></g><g style="opacity:.35;"><path d="M1237.88,667.07l-20,27.03c.78,.64,1.58,1.26,2.37,1.87l18.05-24.4,62.31-84.21,7.9-10.68c-.82-.59-1.65-1.17-2.48-1.72l-2.96,4-65.2,88.11h0Zm-27.07,20.41c-1.38-1.47-2.7-3.02-3.98-4.62l32.89-44.43,52.33-70.74c1.9,.75,3.75,1.56,5.58,2.45l-59.36,80.21-27.46,37.13h0Zm27.46-37.13c.11-1.21,.23-2.47,.37-3.75l-.37,3.75Z" style="fill:#fff; fill-rule:evenodd;"/></g></g><path d="M1315.8,729.62l-6.97,3.44c-1.55,.76-2.06,2.86-1.18,4.68l107.38,221.75c.88,1.82,2.9,2.67,4.43,1.91l6.97-3.45c1.54-.76,2.05-2.86,1.17-4.67l-107.38-221.76c-.88-1.82-2.89-2.66-4.43-1.9Z" style="fill:#f57a44; fill-rule:evenodd;"/></g><path d="M1386.2,885.76c-.33,.04-1.82-.15-3.03-.13-1.69,.04-3.16,.29-3.16,.29,0,0-.65-.57-1.91-1.15-.53-.24-1.39-.33-1.97-.61-.61-.27-1.12-.8-1.69-1.04-1.48-.65-2.85-.8-3.3-.02-.38,.65,7.89,5.7,7.89,5.7,7.67,.04,15.68,3.96,33.43-7.62,10.12-4.43,59.33-28.74,60.33-34.03,.56-2.99-7-25.99-13.17-43.46-4.75,2.12-14.88,6.62-20.53,8.99,5.2,11.01,11.32,25.61,10.68,27.39-.17,.46-.79,1.31-34.05,23.1-.84,.54-1.7,1.1-2.56,1.68-2.34,1.53-4.86,3.16-7.52,4.89l-9.48-.99s-15.02,1.04-15.48,2.75c-.19,.79,1.06,1.18,2.59,1.41h.04c.22,.03,.45,.05,.69,.08h.02c1.66,.2,3.4,.23,3.82,.39,.47,.16,1.44,.54,2.27,1.1-9.38,3.83-8.65,2.47-11.76,2.27-.78-.06-1.61,.17-2.34,.11-1.26-.11-2.27-.86-3.23-.93-1.43-.07-2.6,.59-2.85,.86-.33,.33,.29,.82,1.48,1.35,7.24,3.14,13.23,1.93,15.16,2.41,1.29,.31-1.07,.8-4.75,.4-.91-.1-2.12,.24-3.34-.04-.81-.18-1.55-.7-2.34-.9-.74-.18-1.49-.18-2.11-.29-.81-.15-1.93-.77-2.58-.84-2.41-.28-3.57,.15-3.85,.37-.54,.49,10.36,4.68,10.36,4.68,0,0,7.53,1.08,9.2,1.08,0,0,1.01,.46-.96,.76Z" style="fill:#ffb27d; fill-rule:evenodd;"/><g><path d="M1390.43,701.59c7.24-3.06,6.29-2.66,12.86-.86-2.72-2.77-6.55-3.14-10.4-1.72-1.8,.66-2.14,.66-2.46,2.58Z" style="fill:#125aa3; fill-rule:evenodd;"/><g><path d="M1396.05,705.14c1.22,.04,2.25-.9,2.29-2.13,.04-1.22-.9-2.25-2.12-2.29-1.22-.04-2.25,.9-2.29,2.12-.05,1.22,.9,2.25,2.12,2.3Z" style="fill:#125aa3; fill-rule:evenodd;"/><path d="M1396.1,703.71c.43,.02,.79-.32,.81-.75,.02-.43-.32-.79-.75-.81-.43-.02-.8,.32-.82,.75-.02,.43,.33,.79,.75,.81Z" style="fill:#bbdbfa; fill-rule:evenodd;"/><path d="M1395.95,701.75c.11,0,.22-.09,.22-.2,0-.12-.09-.22-.2-.22-.75-.04-1.4,.56-1.42,1.32,0,.11,.09,.22,.2,.22,.12,0,.22-.09,.23-.21,.02-.52,.46-.92,.97-.9Z" style="fill:#bbdbfa; fill-rule:evenodd;"/></g><path d="M1382.63,699.22c-6.46-4.45-5.62-3.87-12.42-3.44,3.23-2.15,7.05-1.76,10.54,.41,1.62,1.02,1.96,1.08,1.88,3.03Z" style="fill:#125aa3; fill-rule:evenodd;"/><g><path d="M1376.41,701.56c-1.21-.2-2.02-1.34-1.82-2.55,.2-1.2,1.34-2.02,2.55-1.82,1.2,.2,2.03,1.34,1.82,2.55-.2,1.21-1.34,2.02-2.55,1.82Z" style="fill:#125aa3; fill-rule:evenodd;"/><path d="M1376.65,700.15c-.43-.08-.71-.48-.64-.9,.07-.43,.47-.72,.9-.64,.43,.07,.72,.47,.65,.9-.07,.43-.47,.72-.9,.65Z" style="fill:#bbdbfa; fill-rule:evenodd;"/><path d="M1377.19,698.27c-.11-.02-.19-.13-.18-.25,.02-.12,.14-.19,.25-.18,.75,.12,1.26,.84,1.13,1.58-.02,.11-.13,.19-.25,.18-.12-.02-.2-.13-.18-.25,.09-.52-.25-1-.77-1.09Z" style="fill:#bbdbfa; fill-rule:evenodd;"/></g><path d="M1384.91,713.67c-1.42,0-2.28-.29-2.71-.89-.65-.97,0-2.41,.84-4.21,.86-1.87,1.84-4,1.54-6.01-.03-.19,.11-.38,.3-.4,.17-.03,.37,.11,.4,.3,.33,2.22-.74,4.54-1.6,6.41-.68,1.47-1.33,2.88-.9,3.51,.31,.46,1.29,.68,2.82,.56l.2-.06c.18-.1,.39,.04,.44,.22,.07,.19-.04,.39-.23,.45l-.24,.08s-.06,.02-.09,.02c-.28,.02-.54,.03-.8,.03Z" style="fill:#fc9774;"/><path d="M1380.15,720.52c6.55,1.46,15.68-.74,6.09-.99-2.76-.08-5.01-.69-7.22-1.28-3.51-.95-.68,1.87,1.12,2.27Z" style="fill:#fc9774; fill-rule:evenodd;"/></g></g><path d="M1170.24,1253.11v-242.56c0-5.3-4.33-9.63-9.62-9.63h-473.27c-5.3,0-13.51,4.34-13.51,9.63v251.29c0,5.3,4.34,9.63,9.64,9.63h464.57c17.59,0,22.2-13.07,22.2-18.36Z" style="fill:#61a0e0; fill-rule:evenodd;"/><path d="M1170.24,1253.11v-242.61c0-5.3-4.33-9.63-9.62-9.63h-469.57c-5.3,0-9.63,4.34-9.63,9.63v242.61c0,5.3,4.33,9.63,9.63,9.63h469.57c5.3,0,9.62-4.34,9.62-9.63Z" style="fill:#dfedfa; fill-rule:evenodd;"/><path d="M1163.15,1253.11v-242.61c0-1.4-1.14-2.54-2.54-2.54h-469.57c-1.4,0-2.54,1.14-2.54,2.54v242.61c0,1.4,1.15,2.54,2.54,2.54h469.57c1.4,0,2.54-1.14,2.54-2.54h0Zm-7.1-4.56h-460.46v-233.5h460.46v233.5Z" style="fill:#a4d0fc; fill-rule:evenodd;"/><path d="M1170.86,1253.11v-242.61c0-2.82-1.15-5.38-3.01-7.24h0c-1.86-1.86-4.43-3.01-7.24-3.01h-469.57c-.33,0-.65,0-.97,.04h-2.73c-2.98,0-6.84,1.32-9.76,3.39-2.53,1.81-4.37,4.21-4.37,6.86v251.29c0,2.82,1.15,5.38,3.01,7.24,1.86,1.85,4.42,3,7.24,3h464.57c7.17,0,12.24-2.12,15.75-5.03,4.94-4.08,6.79-9.72,7.04-13.15,0-.15,.02-.29,.02-.44v-.35h0Zm-484.93-251.48c-.78,.45-1.49,1-2.13,1.63h0c-1.86,1.85-3.01,4.42-3.01,7.24v242.61c0,2.82,1.15,5.38,3.01,7.24h0c1.86,1.86,4.42,3.01,7.24,3.01h469.57c2.62,0,5.01-.99,6.83-2.62-1.03,1.87-2.48,3.75-4.43,5.37-3.31,2.74-8.12,4.75-14.97,4.75h-464.57c-2.48,0-4.73-1.02-6.37-2.65-1.63-1.63-2.65-3.89-2.65-6.37v-251.29c0-2.2,1.62-4.27,3.85-5.86,2.27-1.62,5.14-2.74,7.63-3.06h0Zm4.2-.1h470.48c2.48,0,4.72,1.02,6.37,2.65,1.63,1.63,2.64,3.89,2.64,6.37v243.03h0c-.12,2.3-1.12,4.37-2.64,5.9-1.63,1.63-3.89,2.65-6.37,2.65h-469.57c-2.48,0-4.74-1.02-6.37-2.65-1.63-1.63-2.65-3.89-2.65-6.37v-242.61c0-2.48,1.01-4.73,2.65-6.38,1.43-1.42,3.34-2.38,5.46-2.6Z" style="fill:#1e77d1; fill-rule:evenodd;"/><g style="opacity:.25;"><path d="M1170.24,1211.14c-63.58,23.2-138.25,26.04-185.34-6.05-93.03-63.38-63.96-82.22-199.68-106.93-64.21-11.7-75.78-56.36-91.69-97.29h-2.48c-5.3,0-9.63,4.34-9.63,9.63v242.61c0,5.3,4.33,9.63,9.63,9.63h469.57c5.3,0,9.62-4.34,9.62-9.63v-41.97Z" style="fill:#fff; fill-rule:evenodd;"/></g><path d="M784.5,1041.77h286.53c2.7,0,4.93,2.21,4.93,4.92h0c0,2.71-2.22,4.94-4.93,4.94h-286.53c-2.71,0-4.92-2.22-4.92-4.93h0c0-2.71,2.22-4.93,4.92-4.93Z" style="fill:#a4d0fc; fill-rule:evenodd;"/><path d="M729.29,1064.54h396.93c2.71,0,4.93,2.21,4.93,4.92h0c0,2.71-2.22,4.94-4.93,4.94h-396.93c-2.7,0-4.92-2.22-4.92-4.93h0c0-2.71,2.22-4.93,4.92-4.93Z" style="fill:#a4d0fc; fill-rule:evenodd;"/><g><path d="M848.01,1093.87c20.25,0,36.67,16.42,36.67,36.66s-16.42,36.67-36.67,36.67-36.66-16.42-36.66-36.67,16.41-36.66,36.66-36.66Z" style="fill:#61a0e0; fill-rule:evenodd;"/><path d="M848.01,1158.13c.97,0,1.77,.79,1.77,1.76s-.79,1.77-1.77,1.77c-8.6,0-16.38-3.49-22.02-9.12-5.63-5.63-9.12-13.41-9.12-22.01s3.49-16.38,9.12-22.01c5.63-5.64,13.42-9.12,22.02-9.12s16.38,3.49,22.02,9.12c5.63,5.63,9.12,13.42,9.12,22.01,0,.98-.79,1.77-1.77,1.77s-1.77-.79-1.77-1.77c0-7.61-3.09-14.52-8.08-19.51-5-4.99-11.9-8.08-19.52-8.08s-14.52,3.09-19.51,8.08c-4.99,5-8.08,11.9-8.08,19.51s3.09,14.52,8.08,19.52c4.99,5,11.89,8.08,19.51,8.08Z" style="fill:#fff; fill-rule:evenodd;"/><path d="M925.83,1093.87c20.25,0,36.66,16.42,36.66,36.66s-16.4,36.67-36.66,36.67-36.67-16.42-36.67-36.67,16.42-36.66,36.67-36.66Z" style="fill:#61a0e0; fill-rule:evenodd;"/><path d="M952.46,1137.77c.17-.8,.88-1.41,1.74-1.41,.97,0,1.76,.79,1.76,1.77h0c0,.19-.04,.39-.1,.56-2.24,8.25-7.61,14.83-14.47,18.79-6.87,3.97-15.24,5.32-23.51,3.14-.08,0-.15-.04-.22-.06-8.25-2.24-14.83-7.6-18.8-14.47-3.96-6.87-5.32-15.25-3.14-23.51,.02-.08,.04-.15,.06-.22,1.24-4.58,3.51-8.76,6.55-12.25h0c3.06-3.53,6.92-6.37,11.33-8.24,.89-.39,1.93,.04,2.31,.93,.38,.9-.04,1.93-.93,2.31-3.91,1.66-7.33,4.18-10.05,7.31h0c-2.71,3.11-4.72,6.84-5.82,10.93v.03c-1.98,7.37-.78,14.83,2.74,20.94,3.53,6.1,9.38,10.87,16.72,12.85h.04c7.36,1.98,14.83,.79,20.94-2.74,6.09-3.52,10.85-9.35,12.83-16.67Z" style="fill:#fff; fill-rule:evenodd;"/><path d="M1003.64,1093.87c20.25,0,36.67,16.42,36.67,36.66s-16.42,36.67-36.67,36.67-36.66-16.42-36.66-36.67,16.41-36.66,36.66-36.66Z" style="fill:#61a0e0; fill-rule:evenodd;"/><path d="M1017.83,1106.81c-.68-.69-.68-1.81,0-2.5,.63-.63,1.62-.69,2.32-.17,7.24,4.53,11.98,11.55,13.8,19.26,1.83,7.74,.69,16.19-3.83,23.5l-.04,.06c-4.51,7.28-11.56,12.05-19.28,13.88-7.75,1.83-16.2,.69-23.52-3.82l-.05-.04c-7.29-4.52-12.05-11.56-13.88-19.29-1.83-7.75-.7-16.19,3.82-23.51,.08-.12,.16-.23,.25-.33h0c.68-.69,1.81-.69,2.49,0,.63,.62,.69,1.6,.18,2.29-3.94,6.46-4.92,13.9-3.3,20.73,1.61,6.83,5.8,13.06,12.22,17.06,.09,.04,.17,.1,.25,.16,6.46,3.94,13.9,4.92,20.73,3.3,6.83-1.61,13.05-5.8,17.06-12.21,.04-.09,.1-.18,.15-.25,3.95-6.45,4.93-13.9,3.31-20.73-1.61-6.83-5.81-13.06-12.21-17.06-.17-.08-.32-.19-.46-.33h0Z" style="fill:#fff; fill-rule:evenodd;"/><path d="M829.12,1178.37h37.79c2.06,0,3.74,1.69,3.74,3.74v2.62c0,2.06-1.68,3.75-3.74,3.75h-37.79c-2.06,0-3.74-1.69-3.74-3.75v-2.62c0-2.06,1.68-3.74,3.74-3.74Z" style="fill:#61a0e0; fill-rule:evenodd;"/><rect x="903.19" y="1178.37" width="45.27" height="10.11" rx="3.74" ry="3.74" style="fill:#61a0e0;"/><path d="M984.74,1178.37h37.8c2.05,0,3.74,1.69,3.74,3.74v2.62c0,2.06-1.69,3.75-3.74,3.75h-37.8c-2.05,0-3.74-1.69-3.74-3.75v-2.62c0-2.06,1.69-3.74,3.74-3.74Z" style="fill:#61a0e0; fill-rule:evenodd;"/><path d="M829.12,1194.33h37.79c2.06,0,3.74,1.68,3.74,3.74v26.24c0,2.06-1.68,3.74-3.74,3.74h-37.79c-2.06,0-3.74-1.68-3.74-3.74v-26.24c0-2.06,1.68-3.74,3.74-3.74Z" style="fill:#61a0e0;"/><path d="M906.93,1194.33h37.78c2.07,0,3.75,1.68,3.75,3.74v26.24c0,2.05-1.69,3.74-3.75,3.74h-37.78c-2.05,0-3.74-1.68-3.74-3.74v-26.24c0-2.06,1.68-3.74,3.74-3.74Z" style="fill:#61a0e0; fill-rule:evenodd;"/><path d="M984.74,1194.33h37.8c2.06,0,3.74,1.68,3.74,3.74v26.24c0,2.06-1.68,3.74-3.74,3.74h-37.8c-2.06,0-3.74-1.68-3.74-3.74v-26.24c0-2.06,1.68-3.74,3.74-3.74Z" style="fill:#61a0e0;"/></g><g><g><path d="M103.93,1284.5c-10.37-3.83-11.2-9.44-16.79-12.17-5.62-2.76-6.27-7.67-.77-13.01,4.07,3.41,9.11,7.6,11.78,5.37,1.78-1.48,7.83-1.38,9.03,.78,5.26,12.85,12.59,8.77,14.03,14.62,.17,7.78-12.52,6.16-17.28,4.4Z" style="fill:#284191; fill-rule:evenodd;"/><path d="M193.75,1271.72c-18.26-.31-31.9-.54-38.21-2.63-6.8-2.26-5.4-6.61-1.49-13.57,17.21,8.3,12.62-1.71,20.67-.44,5.66,4.78,14.03,7.98,25.12,9.61,4.69,3.63,2.78,6.87-6.09,7.03Z" style="fill:#284191; fill-rule:evenodd;"/><path d="M184.63,823.12c-9.12-2.78-17.29-4.46-24.54-5.05-1.31,21.01-11.75,20.87-31.33-.44-18.85,1.66-22.54,1.91-33.01,5.48-22.63,22.69-24.71,48.88-36.54,78.81,13.09,.61,18.98,2.27,27.88,5.6,1.91-7.17,3.52-12.94,4.8-17.32-.36,39.46-.5,66.49-.42,81.12,43.32,18.01,79,11.85,93.58-2.2,.2-35.07,.48-62.84,.83-83.3,5.18,6.41,9.98,11.37,14.41,14.9,10.62-12.78,17.81-17.92,23.84-25.46-13.33-22.97-32.44-44.36-39.5-52.14Z" style="fill:#61a0e0; fill-rule:evenodd;"/><path d="M271.93,861.56c-22.76,9.92-38.69,18.12-47.8,24.61l-4.05-6.29c-3.76,3.95-8.06,7.83-13.3,13.47,4.85,5.32,10.05,9.7,16.11,13.39,15.81-1.76,33.29-14.34,52.43-37.7,5.95-1.25,10.34-3.51,13.15-6.79,.15-3.01-1.3-6.03-4.34-9.05,7.94-5.43,11.1-9.32,9.48-11.66-12.43,8.08-19.66,14.75-21.68,20.02Z" style="fill:#ffb27d; fill-rule:evenodd;"/><path d="M185.04,969.12c-.85,3.42,2.69,23.46,3.28,33.9,5.76,37.31,.83,85.88-2.27,148.34-5.55,22.01-13.74,51.34-13.21,92.61-9.66,3.1-13.17,3.42-21.89,1.09-6.1-43.07-1.94-77.58,3.57-93.51-3.53-24.62-8.79-52.19-16.47-91.94-8.64,43.33-20.2,75.48-25.2,96.46-.99,23.39-5.5,54.96-7.85,94.7-7.18,2.27-11.64,2.92-19.09,1.98-9.66-36.53-8.04-76.29-3.95-119.26,4.36-51.66-2.82-109.99,4.36-130.21,3.67-11.99,4.15-22.62,5.14-31.95,36.14,12.62,67.33,11.89,93.58-2.2Z" style="fill:#4f8ecc; fill-rule:evenodd;"/><path d="M98.13,931.23c-2.32,.36-4.52,.68-6.58,.97-.11,17.41-.14,30.45-.08,39.11,2.05,.96,4.93,2.06,7.17,2.34,0-1.12-.34-3.7-.36-4.8-.14-13.3-.19-25.85-.14-37.63h0Zm105.91-34.87c-6.38-5.59-12.45-14.63-18.21-27.16,.64,4.37,.9,10.2,.77,17.52,4.9,5.97,9.47,10.64,13.69,14.01,1.3-1.56,2.55-3.01,3.75-4.36h0Zm-104.11-33.94c-2.81,9.48-5.5,18.75-8.05,27.79-.07,7.62-.14,14.78-.19,21.48,1.86-.18,4.04-.31,6.61-.37,.27-18.52,.81-34.83,1.63-48.9Z" style="fill:#4f8ecc; fill-rule:evenodd;"/><path d="M155.27,1246.07c.43,3.76,.49,7.13,.18,10.11,14.4,6.57,11.95-1.01,17.7-1.2-1.44-2.66-2.38-6.08-2.81-10.23-6.28,1.89-9.85,2.31-15.08,1.33h0Zm-67.08,6.92c0,2.73-.25,5.14-.76,7.22,3.85,3.19,8.27,6.52,10.72,4.49,1.17-.97,4.18-1.26,6.45-.73-.94-3.31-1.67-7.44-2.21-12.41-5.05,1.42-8.93,1.91-14.2,1.43Z" style="fill:#ffb27d; fill-rule:evenodd;"/><path d="M188.32,1003.02c-25.42,24.88-59.42,24.96-101.99,.25-7.19,20.22,0,78.55-4.36,130.21-4.09,42.98-5.71,82.73,3.95,119.26,.79,.1,1.54,.18,2.27,.25,5.27,.47,9.15,0,14.2-1.43,.83-.24,1.7-.5,2.62-.79,2.35-39.74,6.86-71.31,7.85-94.7,5-20.98,16.56-53.13,25.2-96.46,7.67,39.75,12.94,67.32,16.47,91.94-5.51,15.93-9.67,50.43-3.57,93.51,1.59,.42,3,.76,4.32,1.01,5.23,.98,8.8,.56,15.08-1.33,.79-.24,1.62-.49,2.49-.77-.53-41.27,7.66-70.6,13.21-92.61,3.1-62.45,8.04-111.03,2.27-148.34Z" style="fill:#4567c6; fill-rule:evenodd;"/><path d="M148.2,1215.46c9.28,2.64,17.77,3.44,25.48,2.39,.17-2.13,.36-4.23,.57-6.3-8.46,1.16-17.2,.56-26.23-1.78,.04,1.87,.11,3.77,.19,5.69h0Zm-67.77,7.4c10.09,1.27,19.02,.57,26.8-2.1,.19-2.22,.39-4.42,.59-6.58-8.73,3-18.05,4.02-27.95,3.07,.17,1.88,.36,3.75,.56,5.6h0Zm25.5,13.99c.16-2.2,.33-4.37,.5-6.53-7.79,2.24-16.02,2.96-24.72,2.15,.29,1.9,.61,3.79,.96,5.66,8.6,1.01,16.36,.59,23.26-1.29h0Zm67.3-12.17c-7.86,1.36-16.03,1.21-24.51-.45,.14,1.89,.29,3.79,.47,5.73,8.67,1.92,16.59,2.27,23.77,1.03,.07-2.14,.16-4.24,.27-6.31Z" style="fill:#3b5bb3; fill-rule:evenodd;"/><path d="M153.35,835.01c.93,.07,1.64,.91,1.59,1.88-.05,.97-.83,1.69-1.76,1.62-.93-.07-1.64-.91-1.59-1.88,.05-.97,.83-1.7,1.76-1.62Z" style="fill:#4f8ecc; fill-rule:evenodd;"/><path d="M157.77,871.88h50.2c2.3,0,3.88,1.88,3.52,4.18l-11.26,71.11c-.36,2.3-2.54,4.18-4.85,4.18h-50.19c-2.3,0-3.89-1.88-3.52-4.18l11.27-71.11c.36-2.3,2.54-4.18,4.84-4.18Z" style="fill:#f57a44; fill-rule:evenodd;"/><path d="M141.36,849.56c-8.79-9.49-14.88-18.78-18.3-27.86,1.91-3.62,4.93-7.26,7.05-8.29,10.22,10.67,16.72,16.63,22.96,20.26,.04,.02,.07,.04,.11,.06,.08-.28,.16-.57,.25-.85,1.65-5.64,4.04-12.16,5.07-18.66,2.93,2.08,3.99,5.25,5.59,8.43,2.61,7.03,3.52,15.4,2.73,25.09-1.94-2.71-3.86-5.09-5.8-7.18-2.62-2.84-5.23-5.11-7.85-6.82-2.31,1.96-4.52,4.42-6.64,7.35-1.79,2.48-3.51,5.3-5.17,8.47Z" style="fill:#4f8ecc; fill-rule:evenodd;"/><path d="M130.22,813.48c1.59-1.97,2.92-4.59,4.01-7.88-.58-1.75-1.17-3.96-1.78-6.64-11.19-7.96-12.61-13.69-4.29-17.21,1.64,.97,3.64,3.89,6,8.75,1.97-.04,.11-5.17,1.17-7.08-2.17-8.17-.18-10.63-.79-15.71,5.77-8.19,19.78-10.39,37.05-7.78,1.47,15.92,6.38,53.48-12.87,52.26l-.14,2.1c-1.04,6.5-3.42,13.02-5.07,18.66l-.36,.79c-6.23-3.63-12.73-9.59-22.96-20.26Z" style="fill:#ffb27d; fill-rule:evenodd;"/><path d="M170.71,761.22c-17.27-2.61-30.38-1.7-36.15,6.49,.6,5.08-.81,8.18,1.36,16.34-1.05,1.91,.22,6.41-1.75,6.45-2.36-4.86-4.36-7.77-6-8.75-8.33,3.52-6.9,9.26,4.29,17.21,.61,2.68,1.2,4.89,1.78,6.64-19.65-11.54-28.25-39.51-10.35-52.62,3.63-23.18,36.95-1.91,54.11-12.76,6.52,9.43-2.04,20.9-7.28,21Z" style="fill:#284191; fill-rule:evenodd;"/><path d="M145.67,810.57c3.17,.88,9.41,1.73,13.06,1.62l-.14,2.1c-.2,1.26-.45,2.52-.74,3.78-.04,0-.08-.02-.11-.04-5.66-1.98-9.68-4.46-12.07-7.46Z" style="fill:#f08261; fill-rule:evenodd;"/><path d="M122.02,760.96c1.64-2.34,1.76-4.39,.37-6.12-3.9-.82-7.08,.11-9.52,2.8,1.85-.47,4.9,.64,9.15,3.32Z" style="fill:#284191; fill-rule:evenodd;"/><path d="M126.06,753.7c-1.61,1.8-3.09,2.2-4.43,1.19-.83-3.4-.34-6.38,1.47-8.97-.23,1.73,.76,4.32,2.97,7.77Z" style="fill:#284191; fill-rule:evenodd;"/><path d="M158.55,759.98c.14-5.01,2.09-8.02,5.86-9.01,6.36,2.92,9.86,7.54,10.51,13.88-2.13-2.58-7.58-4.21-16.37-4.87Z" style="fill:#284191; fill-rule:evenodd;"/><path d="M147,742.32c.76,2.13-.23,4.93,2.78,5.58,2,9.19,9.25-3.21,9.11-6.65-1.29,.97-5.25,1.33-11.89,1.07Z" style="fill:#284191; fill-rule:evenodd;"/><path d="M154.14,847.19c.92,.08,1.63,.91,1.58,1.89-.04,.96-.83,1.69-1.76,1.62-.93-.08-1.64-.92-1.59-1.88,.05-.97,.84-1.69,1.77-1.62Z" style="fill:#4f8ecc; fill-rule:evenodd;"/><path d="M154.93,859.38c.93,.07,1.64,.91,1.59,1.88-.05,.97-.83,1.69-1.76,1.62-.93-.07-1.63-.91-1.59-1.88,.05-.97,.83-1.69,1.76-1.62Z" style="fill:#4f8ecc; fill-rule:evenodd;"/><path d="M63.6,902.18c-2.06,8.77-2.92,16.81-1.23,27.46,5.15,7.84,25.92,3.46,79.4-5.93,1.92,1.84,5.88,3.66,11.9,2.85,5.59-1.47,5.86-3,12.14-9.21,1.52-4.83,1.21-8.52-.94-11.07-7.06,4.36-10.78,6.69-18.74,6.96,2.12-5.72,2.44-9.41,.96-11.07-2.72,2.28-4.49,5.72-5.3,10.3-42.16-1.92-53.28-1.67-58.89,1.42,.61-2.77,1.15-5.22,1.62-7.32-6.56-2.34-11.91-3.71-20.91-4.39Z" style="fill:#ffb27d; fill-rule:evenodd;"/></g><g><g><path d="M151.57,774.3c-1.05-.14-1.99,.85-2.09,2.2-.11,1.35,.65,2.57,1.7,2.71,1.05,.13,1.99-.85,2.1-2.2,.11-1.35-.65-2.57-1.71-2.71Z" style="fill:#bbdbfa; fill-rule:evenodd;"/><path d="M151.18,779.22c-1.05-.14-1.82-1.36-1.71-2.71,.11-1.36,1.05-2.34,2.1-2.2,.44,.06,.83,.31,1.13,.68l-.14-.04c-.34-.04-.65,.27-.68,.71-.04,.44,.21,.83,.55,.88,.34,.04,.64-.27,.68-.71v-.1c.14,.4,.21,.83,.17,1.3-.11,1.35-1.05,2.34-2.1,2.2Z" style="fill:#125aa3; fill-rule:evenodd;"/></g><path d="M154.89,772.68c.05,.04,.1,.08,.14,.14-.06-.23-.33-.53-.43-.71,.11,.09,.17,.11,.28,.26,.09,.12,.15,.25,.22,.41,.01-.18-.05-.29-.07-.44,.08,.11,.14,.34,.15,.47,0-.49-.02-.47-.21-.93,.21,.14,.36,.6,.39,.84,.05-.1,.06-.25,.06-.39,.08,.18,.08,.25,.08,.42l.13-.18c-.02,.11-.05,.14-.07,.23,.25-.18,.68-.82,.64-1.15-.04,.14-.15,.4-.22,.48,.03-.24,.11-.49,.08-.77-.07,.18-.05,.41-.11,.6-.05,.19-.12,.41-.22,.53,.08-.4,.2-.73,.08-1.17v.11c-.02,.2,0,.43-.06,.63-.05-.37-.02-.72-.32-1,.07,.16,.14,.25,.19,.44-.17-.18-.23-.49-.51-.53,.12,.14,.24,.24,.36,.44,.1,.16,.25,.42,.18,.61-.18-.68-.56-1.04-1.02-1.16,.12,.06,.52,.35,.55,.52v.03c-.03,.18-.03-.16-.01,.04,.09,.07,.19,.22,.25,.32,.04,.08,.07,.17,.1,.25,.01,.04,.03,.11,.03,.15,0,.04,0,.04,0,.07v.04c-.14-.46-.29-.71-.6-.96-.19-.16-.63-.43-.88-.47,0,0,.01,0,.02,0l.21,.11c.51,.27,1.01,.59,1.16,1.23-.03-.03,0,0-.04-.05t-.03-.04c-.11-.19-.22-.39-.37-.55-.17-.17-.37-.33-.54-.44-.23-.12-.98-.41-1.35-.37,.11,0,.81,.2,.93,.25,.26,.11,.6,.26,.79,.52-.11-.03-.22-.11-.33-.16-.65-.29-1.78-.73-2.45-.69,.42,.09,1.01,.27,1.33,.47l-.25-.06c.07,.04,.13,.08,.21,.11,.07,.04,.13,.06,.21,.11,.35,.2,.88,.55,1.08,.93-.09-.09-.21-.18-.32-.26-.11-.11-.22-.18-.34-.26-.22-.16-.47-.33-.72-.46-.52-.25-1.01-.46-1.6-.59,.08,.04,.16,.06,.23,.14-.48-.02-1.25-.4-2.45-.46,.25,.1,.68,.12,.97,.21l.26,.11c-.16,0-.67-.13-.88-.18-1.01-.19-1.65-.33-2.76-.32-.71,0-1.37,0-2.08,.3-.46,.19-.89,.43-1.26,.74-.14,.11-.21,.19-.31,.3,.29-.14,.92-.77,1.55-.9-.97,.56-1.73,1.06-2.41,1.81,.18-.11,.44-.36,.65-.52,.23-.17,.46-.33,.7-.49,.43-.29,1.12-.68,1.67-.82-.13,.11-.47,.27-.63,.37-1.19,.68-2.34,1.45-3.39,2.33-.12,.11-.37,.37-.47,.43,.11-.04,.55-.4,.7-.5,.77-.53,1.51-1.01,2.45-1.28-.25,.19-1.96,.88-2.49,1.38l1.47-.75c.44-.2,1.2-.53,1.69-.59-.56,.11-2.74,1.1-3.18,1.47,.23-.08,.57-.27,.82-.38,.29-.13,.58-.25,.88-.36,.61-.22,1.26-.41,1.91-.5,.87-.11,1.7-.1,2.55-.02,.25,.03,.58,.09,.8,.09-.14-.09-.56-.11-.71-.14-.48-.07-.98-.11-1.48-.11-.2,0-.6,.04-.77,.02,.6-.15,1.06-.09,1.56-.15-.05,0-.02,0-.06-.02-.05-.02-.03,0-.06-.03,.32-.03,.92,.08,1.21,.15,.34,.09,1.03,.36,1.07,.37-.08-.07-.16-.11-.23-.18l.84,.2-1.03-.38c.2,.02,.48,.13,.68,.18,.25,.07,.75,.19,.98,.28,.27,.11,.76,.17,1.04,.18-.09-.06-.43-.16-.58-.2l-.56-.2c-.1-.04-.19-.06-.28-.11-.26-.14-.53-.24-.8-.35-.48-.19-1.89-.61-2.41-.46,.66-.22,2.03,.21,2.51,.4l1.12,.46c.11,.03,.18,.07,.28,.11,.27,.11,.55,.23,.84,.32l-.02-.06s0,0,0-.02h0s0-.02,0-.02c.1,.06,.39,.18,.52,.18-.27-.25-.94-.47-1.17-.79,.23,.08,.51,.28,.72,.42,.07,.04,.15,.08,.22,.12-.18-.32-.55-.59-.83-.8l-.33-.2c.27,.02,.6,.28,.8,.46,.21,.18,.39,.4,.56,.62,.02,.03,.02,.02,.04,.04,.04,.04,.02,.02,.06,.04l-.25-.44c.05,.09,.39,.44,.41,.56-.04-.24-.18-.41-.28-.59l.16,.11c-.25-.44-.87-.75-1.26-1.03,.38,.04,1.07,.58,1.32,.93,.12,.17,.2,.38,.32,.52l-.12-.34s0,0,.01,0l.18,.22c-.14-.43-.36-.67-.61-.93,.11,.02,.2,.1,.29,.18,.08,.08,.16,.17,.23,.26,.14,.21,.26,.44,.36,.69,.02-.11-.05-.3-.09-.42,.07,.03,0,0,.08,.04,.12,.09,.19,.25,.26,.37l-.04-.26,.18,.26c-.04-.24-.11-.37-.17-.57,.14,.1,.21,.28,.28,.47,.02-.08-.01-.21-.04-.32l.2,.21c.05,.07,.1,.16,.15,.22-.05-.23-.16-.34-.25-.52,.22,.14,.29,.34,.44,.57-.04-.26-.23-.66-.38-.82,.24,.04,.38,.67,.49,.79v-.26s0,0,.04,.04l.15,.26-.02-.34c.09,.1,.1,.21,.17,.34,0-.02,0-.29-.04-.45,.05,.04,0,0,.07,.05,.1,.1,.14,.25,.24,.35l-.11-.28s.02,0,.05,.04l.13,.11Z" style="fill:#125aa3; fill-rule:evenodd;"/><g><path d="M168.42,773.76c.97,.13,1.68,1.34,1.58,2.7-.1,1.36-.97,2.34-1.94,2.2-.97-.14-1.68-1.35-1.59-2.7,.11-1.36,.98-2.34,1.95-2.2Z" style="fill:#bbdbfa; fill-rule:evenodd;"/><path d="M168.06,778.67c.97,.14,1.84-.84,1.94-2.2,.1-1.36-.61-2.57-1.58-2.71-.41-.05-.8,.09-1.12,.37h.14c.32,.04,.54,.43,.51,.87-.03,.44-.32,.76-.63,.72-.31-.04-.54-.45-.51-.89v-.09c-.18,.35-.3,.76-.33,1.23-.1,1.35,.61,2.56,1.59,2.7Z" style="fill:#125aa3; fill-rule:evenodd;"/></g><path d="M164.32,772.98c-.04,.05-.07,.09-.11,.14,.05-.23,.25-.53,.33-.71-.08,.1-.12,.12-.2,.26-.07,.12-.11,.25-.17,.41,0-.17,.04-.28,.05-.44-.06,.11-.1,.34-.11,.48,.01-.5,.03-.46,.17-.94-.15,.14-.27,.6-.3,.85-.04-.11-.03-.25-.03-.39-.07,.18-.07,.25-.07,.42l-.09-.17c.01,.11,.04,.14,.05,.23-.18-.18-.47-.82-.43-1.15,.03,.14,.1,.4,.15,.48-.02-.24-.07-.5-.04-.77,.05,.17,.03,.41,.07,.6,.03,.19,.08,.41,.14,.53-.04-.4-.12-.72-.04-1.17v.11c0,.2,0,.43,.03,.63,.04-.37,.03-.71,.25-.99-.05,.15-.1,.25-.14,.43,.12-.17,.18-.48,.37-.53-.09,.15-.17,.25-.26,.44-.07,.16-.18,.42-.14,.62,.14-.68,.42-1.05,.76-1.17-.09,.07-.38,.36-.4,.52v.04c.02,.17,.02-.17,0,.04-.06,.07-.14,.22-.18,.33-.03,.07-.05,.16-.07,.24,0,.04-.02,.11-.03,.15v.11c.11-.46,.22-.7,.44-.96,.14-.16,.46-.42,.64-.46,0,0,0,0,0,0l-.16,.11c-.37,.26-.73,.58-.85,1.23,.02-.03,0,0,.03-.05l.02-.04c.08-.18,.17-.39,.28-.54,.12-.17,.27-.34,.4-.44,.17-.13,.7-.41,.97-.37-.08,0-.58,.2-.67,.25-.19,.11-.43,.25-.57,.52,.08-.03,.16-.11,.23-.16,.47-.29,1.29-.73,1.77-.69-.3,.09-.73,.27-.96,.46l.18-.06s-.09,.08-.15,.11c-.05,.04-.09,.06-.14,.1-.25,.21-.65,.56-.79,.94,.07-.09,.16-.18,.24-.27,.08-.1,.16-.18,.25-.25,.16-.16,.34-.33,.52-.45,.38-.25,.74-.47,1.15-.59-.05,.04-.11,.06-.16,.14,.34-.03,.9-.4,1.76-.46-.18,.09-.49,.12-.69,.21l-.19,.1c.11,0,.48-.12,.63-.17,.73-.19,1.19-.32,1.98-.32,.51,0,.98,0,1.48,.32,.33,.19,.63,.43,.9,.74,.1,.11,.14,.19,.22,.3-.2-.15-.65-.77-1.09-.9,.68,.56,1.22,1.07,1.69,1.81-.13-.11-.31-.35-.45-.51-.16-.18-.32-.33-.49-.5-.3-.28-.79-.67-1.18-.81,.09,.1,.33,.27,.44,.36,.84,.68,1.65,1.46,2.38,2.34,.09,.11,.26,.36,.32,.43-.08-.05-.39-.4-.49-.5-.54-.54-1.06-1.02-1.73-1.29,.18,.19,1.39,.88,1.77,1.38l-1.04-.75c-.32-.21-.85-.54-1.2-.6,.4,.11,1.94,1.11,2.25,1.48-.17-.08-.4-.27-.58-.38-.21-.13-.41-.25-.62-.36-.43-.23-.9-.41-1.36-.51-.62-.12-1.22-.11-1.82-.03-.17,.03-.41,.09-.58,.09,.11-.09,.4-.11,.51-.13,.35-.08,.71-.11,1.06-.11,.14,0,.43,.04,.55,.02-.42-.15-.76-.09-1.12-.16,.04,0,.02,0,.05,0,.03-.02,.02,0,.04-.04-.23-.03-.66,.08-.87,.16-.25,.08-.75,.34-.77,.35,.06-.06,.12-.1,.17-.17l-.6,.19,.74-.38c-.14,.03-.35,.13-.49,.18-.18,.06-.54,.18-.71,.27-.19,.1-.55,.17-.75,.18,.07-.06,.32-.16,.42-.21l.4-.19c.07-.04,.14-.06,.21-.11,.18-.14,.38-.24,.58-.34,.36-.19,1.37-.61,1.73-.46-.47-.22-1.46,.2-1.8,.39l-.81,.47c-.07,.03-.13,.07-.2,.11-.19,.11-.4,.23-.61,.31l.02-.06h0v-.02s0,0,0-.02c-.07,.06-.28,.17-.38,.19,.2-.25,.68-.46,.86-.79-.17,.08-.37,.28-.52,.41-.06,.05-.11,.08-.16,.13,.14-.33,.4-.6,.61-.8l.24-.2c-.19,.02-.43,.28-.58,.46-.15,.18-.28,.4-.41,.62t-.03,.04s-.01,.02-.04,.04l.19-.43c-.04,.09-.29,.43-.3,.55,.03-.23,.14-.4,.21-.59l-.12,.11c.19-.44,.64-.75,.92-1.02-.27,.04-.78,.57-.96,.92-.09,.17-.15,.38-.24,.52l.09-.34s0,0-.01,0l-.13,.22c.11-.43,.26-.66,.45-.93-.08,.03-.14,.11-.21,.18-.06,.08-.12,.18-.17,.27-.11,.2-.2,.43-.27,.68,0-.11,.04-.3,.07-.42-.06,.03,0,0-.06,.04-.09,.08-.15,.25-.2,.36l.04-.26-.14,.26c.03-.24,.09-.37,.14-.57-.1,.1-.16,.28-.21,.46-.01-.09,.01-.22,.04-.32l-.15,.21c-.04,.07-.07,.15-.11,.22,.04-.23,.12-.34,.19-.52-.16,.13-.22,.34-.33,.57,.04-.26,.18-.66,.29-.82-.17,.04-.28,.66-.36,.79v-.27s0,0-.03,.04l-.1,.27,.02-.34c-.07,.09-.08,.2-.13,.34,0-.02,0-.29,.04-.45-.04,.03,0,0-.05,.04-.07,.11-.11,.25-.18,.35l.08-.27s0,0-.04,.03l-.09,.11Z" style="fill:#125aa3; fill-rule:evenodd;"/><path d="M161.39,791.63c-.14,0-.29-.07-.37-.2-.11-.19-.07-.44,.11-.56,.27-.18,.65-.19,1.13-.22,1.33-.05,2.36-.22,2.53-1.81,.02-.88-2.91-9.77-3.6-10.45-.17-.17-.17-.44,0-.61,.17-.18,.43-.17,.6,0,.89,.88,3.95,10.22,3.85,11.15-.25,2.45-2.26,2.53-3.34,2.57-.25,.02-.61,.03-.69,.08-.07,.04-.14,.05-.22,.05Z" style="fill:#fc9774;"/><path d="M150.24,795.88c8.95,6.13,14.17,6.53,15.64,1.19-6.5,.65-11.72,.25-15.64-1.19Z" style="fill:#fff; fill-rule:evenodd;"/></g></g><g><path d="M1038.2,287.25h125.41c6.73,0,12.23,5.51,12.23,12.24v99.69c0,6.74-5.51,12.24-12.23,12.24h-125.41c-6.74,0-12.24-5.51-12.24-12.24v-99.69c0-6.74,5.51-12.24,12.24-12.24Z" style="fill:#fff; fill-rule:evenodd;"/><path d="M1038.2,286.48h34.21c-.33,.47-.47,.98-.47,1.55h-33.75c-6.3,0-11.47,5.15-11.47,11.46v26.36c-.47-.32-.98-.44-1.55-.42v-25.94c0-7.16,5.86-13.01,13.02-13.01h0Zm-11.47,66.42v46.28c0,6.31,5.16,11.47,11.47,11.47h85.33c.06,.42,.16,.83,.28,1.23l-.43,.32h-85.18c-7.17,0-13.02-5.85-13.02-13.01v-46.27c.5,.15,1.05,.15,1.55,0h0Zm95.6,57.75c.53,.36,.91,.9,1.07,1.55h40.21c7.16,0,13.01-5.85,13.01-13.01v-69.97c-.4,.42-.94,.71-1.55,.79v69.18c0,6.31-5.16,11.47-11.46,11.47h-41.28Zm52.63-112.78c-.8-5.54-5.59-9.84-11.35-9.84h-49.83c.21-.49,.27-1.04,.17-1.55h49.66c6.59,0,12.08,4.97,12.9,11.35-.47,0-1.09-.04-1.55,.03Z" style="fill:#f57a44; fill-rule:evenodd;"/></g><g><path d="M1225.35,172.29h171.01c9.19,0,16.68,7.52,16.68,16.69v135.93c0,9.19-7.51,16.69-16.68,16.69h-171.01c-9.17,0-16.69-7.51-16.69-16.69V188.98c0-9.19,7.51-16.69,16.69-16.69Z" style="fill:#fff; fill-rule:evenodd;"/><path d="M1225.35,171.23h46.67c-.44,.63-.65,1.34-.64,2.12h-46.02c-8.59,0-15.63,7.03-15.63,15.63v35.94c-.65-.42-1.33-.6-2.11-.58v-35.36c0-9.77,7.97-17.75,17.74-17.75h0Zm-15.63,90.58v63.1c0,8.6,7.04,15.63,15.63,15.63h116.36c.09,.58,.22,1.13,.4,1.68l-.6,.44h-116.16c-9.77,0-17.74-7.98-17.74-17.75v-63.1c.69,.21,1.42,.21,2.11,0h0Zm130.35,78.73c.72,.5,1.25,1.25,1.46,2.12h54.83c9.77,0,17.76-7.98,17.76-17.75v-95.41c-.55,.58-1.3,.97-2.12,1.08v94.33c0,8.6-7.03,15.63-15.63,15.63h-56.29Zm71.76-153.78c-1.09-7.55-7.63-13.41-15.47-13.41h-67.93c.28-.67,.36-1.41,.22-2.12h67.71c9,0,16.48,6.78,17.6,15.48-.65,0-1.48-.06-2.13,.04Z" style="fill:#f57a44; fill-rule:evenodd;"/></g><g><path d="M1263.02,221.94c-5.23,.88-10.2-2.65-11.07-7.89-.88-5.23,2.65-10.19,7.89-11.07,13.85-2.28,28.15-1.4,41.7,2.7,13.09,3.96,25.47,10.89,36.07,20.8,10.61,9.91,18.34,21.8,23.16,34.6,5,13.25,6.84,27.46,5.47,41.43-.53,5.28-5.23,9.13-10.52,8.61-5.27-.54-9.12-5.24-8.6-10.52,1.08-11.04-.38-22.27-4.33-32.74-3.78-10.05-9.91-19.43-18.34-27.32-8.43-7.89-18.2-13.37-28.47-16.47-10.71-3.25-22.02-3.95-32.96-2.13h0Zm21.17,61.65c-6.53-6.11-16.79-5.77-22.9,.76-6.11,6.53-5.77,16.79,.76,22.9,6.53,6.11,16.79,5.77,22.9-.76,6.11-6.53,5.78-16.79-.76-22.9h0Zm-18.81-22.86c5.69-1.63,11.73-1.77,17.5-.4,5.52,1.33,10.81,4.08,15.31,8.29,4.5,4.21,7.6,9.3,9.29,14.72,1.76,5.66,2.02,11.71,.77,17.49-1.12,5.18,2.17,10.29,7.35,11.41,5.17,1.12,10.28-2.17,11.41-7.35,1.96-9.02,1.55-18.45-1.2-27.27-2.67-8.57-7.5-16.55-14.46-23.07-6.95-6.51-15.25-10.8-23.97-12.89-8.99-2.16-18.42-1.94-27.29,.61-5.09,1.46-8.04,6.78-6.58,11.87,1.47,5.09,6.79,8.04,11.88,6.58Z" style="fill:#f57a44; fill-rule:evenodd;"/><path d="M1266.27,221.61c-5.23,.88-10.2-2.65-11.07-7.89-.88-5.23,2.65-10.19,7.89-11.07,13.85-2.28,28.15-1.4,41.7,2.7,13.09,3.96,25.47,10.89,36.07,20.8,10.6,9.91,18.33,21.8,23.17,34.6,4.99,13.25,6.82,27.46,5.46,41.43-.53,5.28-5.23,9.13-10.52,8.61-5.27-.54-9.12-5.24-8.6-10.52,1.08-11.04-.38-22.27-4.33-32.74-3.78-10.05-9.91-19.43-18.34-27.32-8.43-7.89-18.2-13.37-28.47-16.47-10.71-3.25-22.02-3.95-32.96-2.13h0Zm21.17,61.65c-6.53-6.11-16.79-5.77-22.9,.76-6.11,6.53-5.78,16.79,.76,22.9,6.52,6.11,16.79,5.77,22.89-.76,6.11-6.53,5.78-16.79-.76-22.9h0Zm-18.82-22.86c5.7-1.63,11.74-1.77,17.51-.4,5.52,1.33,10.81,4.08,15.31,8.29,4.5,4.21,7.6,9.3,9.29,14.72,1.76,5.66,2.02,11.71,.76,17.49-1.12,5.18,2.18,10.29,7.35,11.41,5.18,1.12,10.29-2.17,11.42-7.35,1.96-9.02,1.54-18.45-1.2-27.28-2.67-8.56-7.51-16.54-14.46-23.06-6.96-6.51-15.25-10.8-23.97-12.89-8.99-2.16-18.42-1.94-27.29,.61-5.09,1.47-8.04,6.78-6.58,11.87,1.47,5.09,6.79,8.04,11.87,6.58Z" style="fill:#fc9774; fill-rule:evenodd;"/></g><g><path d="M1053.59,318.68h94.61c2.31,0,4.19,1.89,4.19,4.2v52.93c0,2.3-1.88,4.19-4.19,4.19h-94.61c-2.31,0-4.19-1.89-4.19-4.19v-52.93c0-2.31,1.88-4.2,4.19-4.2Z" style="fill:#fc9774; fill-rule:evenodd;"/><path d="M1103.69,346.78l30.81,20.07,17.22,11.23c-.75,1.14-2.05,1.91-3.51,1.91h-94.61c-1.47,0-2.77-.76-3.52-1.91l17.23-11.23,30.77-20.06c2.27-1.51,3.37-1.46,5.62-.02Z" style="fill:#f57a44; fill-rule:evenodd;"/><path d="M1103.69,353.36l30.81-20.07,17.74-11.57c-.51-1.75-2.12-3.04-4.03-3.04h-94.61c-1.91,0-3.52,1.29-4.03,3.04l17.74,11.57,30.77,20.06c2.27,1.51,3.37,1.46,5.62,.02Z" style="fill:#fbbfa8; fill-rule:evenodd;"/><g style="opacity:.1;"><path d="M1070.85,318.68h77.36c1.91,0,3.52,1.29,4.03,3.04,.11,.37,.16,.75,.16,1.16v52.93c0,.83-.25,1.62-.68,2.28-.75,1.14-2.05,1.91-3.51,1.91h-8.54c-2.42-5.4-7.09-11.67-12.03-12.94-11.21-2.89-29.77,2.95-29.77-19.42,0-9.41-17.49-16.33-27.01-28.95Z" style="fill:#fff; fill-rule:evenodd;"/></g></g></g><path d="M1635.07,719.37c-2.42,33.23-7.32,37.81-39,40.37,31.67,2.56,36.58,7.15,39,40.37,2.42-33.22,7.32-37.8,39-40.37-31.68-2.56-36.58-7.14-39-40.37Z" style="fill:#fff; fill-rule:evenodd;"/><path d="M1162.71,104.34c-2.42,33.24-7.32,37.82-39,40.38,31.67,2.56,36.58,7.14,39,40.37,2.41-33.23,7.32-37.81,39-40.37-31.67-2.56-36.58-7.14-39-40.38Z" style="fill:#fff; fill-rule:evenodd;"/><path d="M552.14,264.72c-2.42,33.23-7.32,37.81-39,40.38,31.68,2.56,36.58,7.14,39,40.37,2.42-33.23,7.32-37.81,39.01-40.37-31.68-2.56-36.58-7.15-39.01-40.38Z" style="fill:#fff; fill-rule:evenodd;"/></svg>