<?xml version="1.0" encoding="UTF-8"?><svg id="a" xmlns="http://www.w3.org/2000/svg" viewBox="0 0 2118.64 1543.34"><path d="M1053.66,85.55c237.49,0,210.39,359.48,381.84,469.06,226.93,145.04,617.33,73.23,617.33,322.14,0,436.97-506.38,595.29-1058.22,595.29S-28.08,1229.68,136.24,793.87C300.55,358.05,501.83,85.55,1053.66,85.55Z" style="fill:#ede4f1; fill-rule:evenodd;"/><path d="M2116.44,134.45c21.16,260.16-111.1,586.56-365.13,975.29-129.33-341.04-59.23-633.04,203.93-940.37,41.43-48.39,149.57-177.93,161.2-34.92Z" style="fill:#b6a9d2; fill-rule:evenodd;"/><path d="M2049.48,148.44c-139.12,227.15-237.75,524.59-295.88,892.33,21.27-353.28,119.89-650.72,295.88-892.33Z" style="fill:#d7cce5; fill-rule:evenodd;"/><path d="M2105.18,650.22c3.22,165.54-70.03,358.64-207.89,578.56-47.24,42.84-103.84,79.34-167.77,110.02-45.91-245.12,34.79-455.45,240.79-667.97,36.68-37.85,132.56-139.28,134.86-20.61Z" style="fill:#d7cce5; fill-rule:evenodd;"/><path d="M2049.18,658.36c-117.29,167.38-208.89,386.48-274.82,657.29-2.16,1.19-4.33,2.38-6.51,3.58,41.07-263.52,134.84-483.81,281.33-660.87Z" style="fill:#fff; fill-rule:evenodd;"/><path d="M3.16,545.3c-19.15,179.33,49.26,399.12,190,657.07,30.76,36.86,68.78,70.11,112.78,99.65,84.88-255.55,26.39-482.78-170.2-724.47-33.25-40.88-119.96-150.25-132.57-32.24Z" style="fill:#d7cce5; fill-rule:evenodd;"/><path d="M58.25,558.27c108.21,187.15,182.78,429.42,223.69,726.83l1.7,1.24c-12.35-285.61-87.47-528.32-225.38-728.07Z" style="fill:#fff; fill-rule:evenodd;"/><path d="M170.47,96.19c147.62,157.55,230,436.97,265.62,819.41C176.79,761.37,71.88,536.22,84.07,201.77c1.92-52.66,5.25-192.19,86.4-105.58Z" style="fill:#b6a9d2; fill-rule:evenodd;"/><path d="M134.32,139.72c26.85,218.68,116.09,462.04,267.75,730.05C233.99,630.08,144.74,386.73,134.32,139.72Z" style="fill:#d7cce5; fill-rule:evenodd;"/><path d="M1687.33,1400.61c183.04,0,331.42,31.94,331.42,71.36s-148.38,71.37-331.42,71.37-331.42-31.95-331.42-71.37,148.38-71.36,331.42-71.36Z" style="fill:#d1c6e2; fill-rule:evenodd;"/><path d="M257.5,153.56H1645.99c18.28,0,34.95,7.5,47.08,19.59l.07,.07c12.09,12.12,19.58,28.79,19.58,47.08v950.43c0,18.28-7.5,34.94-19.58,47.06l-.07,.07c-12.12,12.1-28.79,19.59-47.08,19.59H257.5c-18.29,0-34.95-7.49-47.08-19.59l-.07-.07c-12.09-12.12-19.59-28.78-19.59-47.06V220.3c0-18.29,7.5-34.96,19.59-47.08l.07-.07c12.12-12.09,28.79-19.59,47.08-19.59h0Zm1388.49,37.79H257.5c-7.99,0-15.22,3.23-20.43,8.44l-.07,.07c-5.21,5.22-8.45,12.45-8.45,20.44v950.43c0,7.98,3.23,15.21,8.45,20.43l.07,.07c5.21,5.2,12.45,8.44,20.43,8.44H1645.99c7.99,0,15.22-3.23,20.43-8.44l.08-.07c5.21-5.22,8.44-12.45,8.44-20.43V220.3c0-7.99-3.23-15.22-8.44-20.44l-.08-.07c-5.2-5.2-12.44-8.44-20.43-8.44Z" style="fill:#38308d; fill-rule:evenodd;"/><path d="M1645.99,191.35H257.5c-7.99,0-15.22,3.23-20.43,8.44l-.07,.07c-5.21,5.22-8.45,12.45-8.45,20.44v950.43c0,7.98,3.23,15.21,8.45,20.43l.07,.07c5.21,5.2,12.45,8.44,20.43,8.44H1645.99c7.99,0,15.22-3.23,20.43-8.44l.08-.07c5.21-5.22,8.44-12.45,8.44-20.43V220.3c0-7.99-3.23-15.22-8.44-20.44l-.08-.07c-5.2-5.2-12.44-8.44-20.43-8.44Z" style="fill:#ede4f1; fill-rule:evenodd;"/><path d="M286.26,218.4h738.65c17.21,0,31.23,14,31.23,31.22V765.52c0,17.22-14.02,31.24-31.23,31.24H286.26c-17.21,0-31.22-14.02-31.22-31.24V249.63c0-17.22,14.02-31.22,31.22-31.22Z" style="fill:#b6a9d2; fill-rule:evenodd;"/><path d="M286.26,237.33h738.65c6.76,0,12.28,5.53,12.28,12.29V765.52c0,6.76-5.53,12.29-12.28,12.29H286.26c-6.76,0-12.28-5.54-12.28-12.29V249.63c0-6.76,5.52-12.29,12.28-12.29Z" style="fill:#d7cce5; fill-rule:evenodd;"/><rect x="302.18" y="287.14" width="377.06" height="276.5" style="fill:#fff;"/><rect x="324.76" y="493.67" width="16.54" height="48.49" style="fill:#c2b5d9;"/><rect x="349.21" y="476.47" width="16.54" height="65.68" style="fill:#c2b5d9;"/><rect x="373.66" y="444.53" width="16.54" height="97.62" style="fill:#9588c0;"/><rect x="398.1" y="456" width="16.54" height="86.15" style="fill:#c2b5d9;"/><rect x="422.55" y="423.73" width="16.54" height="118.42" style="fill:#c2b5d9;"/><rect x="447" y="403.59" width="16.54" height="138.56" style="fill:#c2b5d9;"/><rect x="471.44" y="397.86" width="16.54" height="144.29" style="fill:#c2b5d9;"/><rect x="495.89" y="374.51" width="16.54" height="167.64" style="fill:#9588c0;"/><rect x="520.34" y="381.89" width="16.54" height="160.26" style="fill:#c2b5d9;"/><rect x="544.78" y="351.59" width="16.54" height="190.57" style="fill:#c2b5d9;"/><rect x="569.23" y="343.41" width="16.54" height="198.75" style="fill:#c2b5d9;"/><rect x="593.68" y="335.62" width="16.54" height="206.54" style="fill:#c2b5d9;"/><rect x="618.12" y="320.88" width="16.54" height="221.27" style="fill:#c2b5d9;"/><rect x="642.57" y="305.33" width="16.54" height="236.83" style="fill:#9588c0;"/><path d="M728.68,287.14h257.74c9.77,0,17.78,7.99,17.78,17.78v175.5c0,9.77-8.01,17.78-17.78,17.78h-257.74c-9.78,0-17.78-8.01-17.78-17.78v-175.5c0-9.79,8-17.78,17.78-17.78Z" style="fill:#c2b5d9; fill-rule:evenodd;"/><polygon points="729.17 475.77 741.56 475.77 741.56 424.19 747.96 424.19 747.96 475.77 769.98 475.77 769.98 362.52 776.38 362.52 776.38 475.77 798.41 475.77 798.41 405.62 804.81 405.62 804.81 475.77 826.84 475.77 826.84 392.22 833.23 392.22 833.23 475.77 855.26 475.77 855.26 347.45 861.66 347.45 861.66 475.77 883.69 475.77 883.69 428.3 890.09 428.3 890.09 475.77 912.12 475.77 912.12 379.88 918.51 379.88 918.51 475.77 940.54 475.77 940.54 405.62 946.93 405.62 946.93 475.77 968.96 475.77 968.96 362.97 975.36 362.97 975.36 475.77 987.75 475.77 987.75 482.17 975.36 482.17 968.96 482.17 946.93 482.17 940.54 482.17 918.51 482.17 912.12 482.17 890.09 482.17 883.69 482.17 861.66 482.17 855.26 482.17 833.23 482.17 826.84 482.17 804.81 482.17 798.41 482.17 776.38 482.17 769.98 482.17 747.96 482.17 741.56 482.17 729.17 482.17 729.17 475.77" style="fill:#fff; fill-rule:evenodd;"/><path d="M773.18,335.11h0c4.29,0,7.8,3.51,7.8,7.79v39.23c0,4.28-3.51,7.81-7.8,7.81h0c-4.29,0-7.8-3.52-7.8-7.81v-39.23c0-4.28,3.51-7.79,7.8-7.79h0Zm198.98,.46h0c4.28,0,7.79,3.51,7.79,7.79v39.23c0,4.28-3.51,7.79-7.79,7.79h0c-4.29,0-7.81-3.51-7.81-7.79v-39.23c0-4.28,3.51-7.79,7.81-7.79h0Zm-28.43,42.64h0c4.28,0,7.79,3.51,7.79,7.81v39.23c0,4.28-3.51,7.79-7.79,7.79h0c-4.29,0-7.8-3.51-7.8-7.79v-39.23c0-4.3,3.51-7.81,7.8-7.81h0Zm-28.43-25.75h0c4.28,0,7.79,3.52,7.79,7.81v39.23c0,4.28-3.51,7.79-7.79,7.79h0c-4.29,0-7.8-3.51-7.8-7.79v-39.23c0-4.28,3.51-7.81,7.8-7.81h0Zm-28.43,48.43h0c4.28,0,7.8,3.51,7.8,7.8v39.23c0,4.28-3.51,7.79-7.8,7.79h0c-4.29,0-7.8-3.51-7.8-7.79v-39.23c0-4.3,3.51-7.8,7.8-7.8h0Zm-56.85-36.08h0c4.29,0,7.8,3.51,7.8,7.79v39.23c0,4.28-3.51,7.79-7.8,7.79h0c-4.29,0-7.8-3.51-7.8-7.79v-39.23c0-4.28,3.51-7.79,7.8-7.79h0Zm28.43-44.78h0c4.28,0,7.8,3.51,7.8,7.79v39.23c0,4.3-3.52,7.81-7.8,7.81h0c-4.29,0-7.8-3.51-7.8-7.81v-39.23c0-4.28,3.51-7.79,7.8-7.79h0Zm-56.85,58.17h0c4.29,0,7.8,3.51,7.8,7.81v39.23c0,4.28-3.51,7.79-7.8,7.79h0c-4.29,0-7.8-3.51-7.8-7.79v-39.23c0-4.3,3.51-7.81,7.8-7.81h0Zm-56.85,18.57h0c4.29,0,7.8,3.51,7.8,7.81v39.23c0,4.28-3.51,7.79-7.8,7.79h0c-4.28,0-7.8-3.51-7.8-7.79v-39.23c0-4.3,3.51-7.81,7.8-7.81Z" style="fill:#38308d; fill-rule:evenodd;"/><path d="M967.67,673.29l-118.7-13.97-95.73,40.28c22.25,15.24,56.86,25.01,95.73,24.97,58.12-.04,106.72-21.99,118.7-51.27Z" style="fill:#9588c0; fill-rule:evenodd;"/><path d="M733.39,677.76l95.72-40.29-51.14-59.17c-41.57,10.39-70.39,33.03-70.39,59.27,0,15.18,9.64,29.12,25.81,40.19Z" style="fill:#38308d; fill-rule:evenodd;"/><path d="M861.44,628.17l118.71,13.97c1.85-4.53,2.83-9.24,2.83-14.07,0-32.67-44.73-59.7-103.1-64.43l-18.44,64.53Z" style="fill:#47459b; fill-rule:evenodd;"/><path d="M844.08,642.85l18.43-64.51c-6.01-.49-12.17-.75-18.43-.73-18.27,.01-35.6,2.18-51.15,6.08l51.15,59.17Z" style="fill:#5a53a2; fill-rule:evenodd;"/><path d="M733.39,677.76c-16.17-11.07-25.81-25.01-25.81-40.19v23.76c0,15.17,9.64,29.12,25.81,40.19v-23.76Z" style="fill:#8071b3; fill-rule:evenodd;"/><path d="M967.67,673.29c-11.98,29.28-60.58,51.23-118.7,51.27-38.87,.04-73.48-9.73-95.73-24.97v23.76c22.25,15.24,56.86,25,95.73,24.97,58.12-.04,106.72-21.99,118.7-51.29v-23.75Z" style="fill:#c2b5d9; fill-rule:evenodd;"/><path d="M980.14,642.14v23.76c1.85-4.53,2.83-9.24,2.83-14.07v-23.76c0,4.83-.98,9.54-2.83,14.07Z" style="fill:#9588c0; fill-rule:evenodd;"/><polygon points="980.14 642.14 861.44 628.17 861.44 650.38 980.14 665.91 980.14 642.14" style="fill:#c2b5d9; fill-rule:evenodd;"/><polygon points="733.39 701.53 829.11 660 829.11 637.47 733.39 677.76 733.39 701.53" style="fill:#c2b5d9; fill-rule:evenodd;"/><polygon points="852.73 659.75 861.44 628.29 861.44 628.17 862.51 624.43 862.51 578.33 844.08 642.85 844.08 661.38 848.97 659.32 852.73 659.75" style="fill:#9588c0; fill-rule:evenodd;"/><polygon points="844.08 642.85 792.93 583.68 792.93 595.63 829.11 637.47 829.11 649.11 841.44 662.48 844.08 661.38 844.08 642.85" style="fill:#8071b3; fill-rule:evenodd;"/><path d="M477.11,664.83l-167.16,.1c-4.62,0-8.4-3.78-8.4-8.41h0c0-4.63,3.78-8.41,8.4-8.41l167.16-.1c4.62,0,8.41,3.77,8.41,8.4h0c0,4.63-3.79,8.41-8.41,8.42h0Zm188.87-59.09l-356.03,.26c-4.62,0-8.4-3.78-8.4-8.41h0c0-4.63,3.78-8.41,8.4-8.41l356.03-.26c4.63,0,8.41,3.78,8.41,8.41h0c0,4.63-3.78,8.41-8.41,8.41h0Zm0,29.47l-356.03,.26c-4.62,0-8.4-3.78-8.4-8.41h0c0-4.63,3.78-8.41,8.4-8.41l356.03-.26c4.63,0,8.41,3.78,8.41,8.41h0c0,4.63-3.78,8.41-8.41,8.41Z" style="fill:#9588c0; fill-rule:evenodd;"/><path d="M477.11,753.32l-167.16,.1c-4.62,0-8.4-3.78-8.4-8.4h0c0-4.63,3.78-8.42,8.4-8.42l167.16-.1c4.62,0,8.41,3.78,8.41,8.41h0c0,4.61-3.79,8.41-8.41,8.41h0Zm188.87-59.09l-356.03,.26c-4.62,0-8.4-3.78-8.4-8.39h0c0-4.63,3.78-8.42,8.4-8.42l356.03-.24c4.63-.01,8.41,3.77,8.41,8.4h0c0,4.63-3.78,8.41-8.41,8.41h0Zm0,29.47l-356.03,.26c-4.62,0-8.4-3.78-8.4-8.4h0c0-4.63,3.78-8.42,8.4-8.42l356.03-.24c4.63-.01,8.41,3.77,8.41,8.39h0c0,4.63-3.78,8.41-8.41,8.41Z" style="fill:#9588c0; fill-rule:evenodd;"/><path d="M1134.29,218.39h486.97c14.2,0,25.82,11.63,25.82,25.82v293.36c0,14.2-11.62,25.82-25.82,25.82h-486.97c-14.2,0-25.81-11.61-25.81-25.82V244.21c0-14.19,11.62-25.82,25.81-25.82Z" style="fill:#fff; fill-rule:evenodd;"/><polygon points="1175.81 417.8 1291.73 356.04 1348.06 379.7 1406.03 303.07 1463.32 359.33 1520.04 281.35 1579.91 318.08 1576.45 323.74 1521.81 290.22 1464.17 369.47 1406.78 313.09 1350.24 387.82 1292.05 363.37 1178.93 423.65 1175.81 417.8" style="fill:#2b2870; fill-rule:evenodd;"/><rect x="1158.6" y="467.58" width="37.55" height="71.57" style="fill:#8071b3;"/><rect x="1215.86" y="444.45" width="37.55" height="94.7" style="fill:#8071b3;"/><rect x="1273.12" y="405.19" width="37.55" height="133.96" style="fill:#8071b3;"/><rect x="1330.37" y="432.53" width="37.55" height="106.62" style="fill:#8071b3;"/><rect x="1387.63" y="359.54" width="37.55" height="179.61" style="fill:#8071b3;"/><rect x="1444.89" y="422.65" width="37.55" height="116.49" style="fill:#8071b3;"/><rect x="1502.14" y="335.66" width="37.55" height="203.49" style="fill:#8071b3;"/><rect x="1559.41" y="362.34" width="37.55" height="176.81" style="fill:#8071b3;"/><path d="M1177.37,409.5c6.2,0,11.22,5.03,11.22,11.23s-5.02,11.21-11.22,11.21-11.22-5.02-11.22-11.21,5.02-11.23,11.22-11.23Z" style="fill:#38308d; fill-rule:evenodd;"/><path d="M1291.89,348.48c6.2,0,11.22,5.03,11.22,11.23s-5.03,11.23-11.22,11.23-11.22-5.03-11.22-11.23,5.02-11.23,11.22-11.23Z" style="fill:#38308d; fill-rule:evenodd;"/><path d="M1349.15,372.54c6.2,0,11.22,5.02,11.22,11.21s-5.02,11.23-11.22,11.23-11.22-5.03-11.22-11.23,5.03-11.21,11.22-11.21Z" style="fill:#38308d; fill-rule:evenodd;"/><path d="M1406.41,296.86c6.2,0,11.22,5.02,11.22,11.21s-5.02,11.23-11.22,11.23-11.23-5.03-11.23-11.23,5.03-11.21,11.23-11.21Z" style="fill:#38308d; fill-rule:evenodd;"/><path d="M1463.75,353.18c6.2,0,11.23,5.02,11.23,11.21s-5.03,11.23-11.23,11.23-11.22-5.03-11.22-11.23,5.02-11.21,11.22-11.21Z" style="fill:#38308d; fill-rule:evenodd;"/><path d="M1520.92,274.57c6.2,0,11.22,5.02,11.22,11.21s-5.02,11.23-11.22,11.23-11.22-5.03-11.22-11.23,5.02-11.21,11.22-11.21Z" style="fill:#38308d; fill-rule:evenodd;"/><path d="M1578.18,309.68c6.2,0,11.22,5.03,11.22,11.23s-5.02,11.23-11.22,11.23-11.22-5.03-11.22-11.23,5.02-11.23,11.22-11.23Z" style="fill:#38308d; fill-rule:evenodd;"/><path d="M1478.81,644.33l64.79,.23c4.89,.01,8.89,4.02,8.89,8.93v64.79c0,4.89-4,8.87-8.89,8.85l-64.79-.23c-4.89-.01-8.89-4.02-8.89-8.93v-64.79c0-4.89,4-8.87,8.89-8.85Z" style="fill:#fff; fill-rule:evenodd;"/><path d="M1517.24,1038.41c-2.72,.32-5.45,.46-8.19,.46h-120.8c-27.58,0-51.81-15.73-51.81-45.47v-3.09c-.49-28.07-9.03-49.98-23.65-73.53-13.22-21.32-28.7-40.81-41.1-62.76-16.06-28.45-25.1-57.07-27.21-89.78-.55-8.64-.5-17.32,.2-25.96l.06-.81,.13-.79c15.26-92.99,103-149.86,193.55-149.86,63.21,0,126.61,27.4,164.16,79.36,23.26,32.19,33.78,70.19,31.29,109.77-1.98,31.37-10.42,58.99-25.52,86.45-11.65,21.17-26.21,39.98-38.83,60.43-14.35,23.27-22.78,44.72-23.25,72.1v3.32c0,16.03-7.58,29.78-21.5,37.7l-3.5,2-4.01,.45Z" style="fill:#dcd6ea; fill-rule:evenodd;"/><path d="M1515.03,1018.89c-1.94,.22-3.94,.33-5.99,.33h-120.8c-17.69,0-32.16-8.12-32.16-25.82v-3.42c-1.66-95.12-85.24-121.78-92-226.99-.51-7.89-.44-15.61,.17-23.13,13.09-79.79,88.93-133.38,174.16-133.38,97.1,0,182.05,69.57,175.83,168.24-6.43,102.07-86.07,127.95-87.64,220.22v3.32c0,9.83-4.53,16.62-11.57,20.63Z" style="fill:#fff; fill-rule:evenodd;"/><path d="M1351.36,1069.68c-1.85-3.67-2.9-7.8-2.9-12.18v-11.35c0-14.86,12.1-26.97,26.97-26.97h127.46c14.87,0,26.97,12.1,26.97,26.97v11.35c0,4.37-1.05,8.51-2.91,12.18,1.86,3.62,2.91,7.73,2.91,12.09v10.91c0,3.75-.78,7.33-2.19,10.58l2.09,1.52v16.76l-.09,.96c-2,20.2-19.09,35.71-39.4,35.71h-4.25l-.19,.32c-7.14,11.67-15.42,15.34-28.72,15.34h-35.88c-13.32,0-21.58-3.65-28.73-15.34l-.2-.32h-4.25c-20.02,0-36.95-15.08-39.31-34.93l-.14-1.15v-10.45l.53-2.24c.45-1.87,1.09-3.64,1.92-5.29-1.66-3.48-2.59-7.37-2.59-11.47v-10.91c0-4.36,1.05-8.47,2.9-12.09Z" style="fill:#dcd6ea; fill-rule:evenodd;"/><path d="M1510.11,1120.58c-.99,10.06-9.55,17.98-19.84,17.98h-15.27l-5.94,9.7c-3.41,5.58-5.42,5.95-11.96,5.95h-35.89c-6.55,0-8.53-.34-11.96-5.95l-5.94-9.7h-15.27c-10.16,0-18.62-7.72-19.79-17.59v-6.97c.54-2.27,2.59-3.98,5.03-3.98h131.75c2.45,0,4.51,1.73,5.04,4.02,.05,.2-.09,.65,.04,.73v5.81h0Zm-134.97-45.84h128.04c3.87,0,7.03,3.16,7.03,7.03v10.91c0,3.87-3.16,7.03-7.03,7.03h-128.04c-3.86,0-7.02-3.16-7.02-7.03v-10.91c0-3.87,3.16-7.03,7.02-7.03h0Zm.3-35.91h127.45c4.02,0,7.32,3.29,7.32,7.32v11.35c0,4.03-3.29,7.32-7.32,7.32h-127.45c-4.02,0-7.32-3.29-7.32-7.32v-11.35c0-4.03,3.29-7.32,7.32-7.32Z" style="fill:#2b2870; fill-rule:evenodd;"/><path d="M1417.97,1019.22l-14.68-177.69h-20.86c-9.01,0-17.19-3.68-23.12-9.6h.02c-5.94-5.95-9.62-14.13-9.62-23.12s3.68-17.19,9.61-23.13c5.92-5.92,14.11-9.6,23.12-9.6s16.6,3.56,22.35,9.3c5.83,5.84,9.57,13.94,10.34,22.8l1.62,18.66h63.8l1.62-18.66c.77-8.84,4.52-16.95,10.36-22.78,5.74-5.75,13.46-9.31,22.34-9.31s17.16,3.69,23.1,9.63v-.03c5.94,5.94,9.62,14.12,9.62,23.13s-3.68,17.19-9.61,23.12c-5.92,5.92-14.11,9.6-23.12,9.6h-20.86l-14.68,177.69h-14.68l14.62-177.69h-61.24l14.62,177.69h-14.68Zm-15.97-192.38l-1.52-17.39c-.47-5.39-2.67-10.25-6.09-13.67-3.08-3.08-7.22-4.99-11.96-4.99s-9.46,2.03-12.72,5.29c-3.27,3.28-5.3,7.78-5.3,12.74s2.03,9.47,5.28,12.72h.03c3.26,3.26,7.78,5.3,12.72,5.3h19.57Zm93.3,0h19.57c4.95,0,9.46-2.04,12.73-5.3,3.26-3.28,5.3-7.78,5.3-12.72s-2.03-9.46-5.3-12.74v-.03c-3.26-3.25-7.75-5.26-12.73-5.26s-8.86,1.91-11.95,4.99c-3.43,3.44-5.64,8.29-6.11,13.67l-1.52,17.39Z" style="fill:#2b2870; fill-rule:evenodd;"/><path d="M983.85,999.72l-81.29-3.8c7.02-59.65,52.32-107.59,110.66-118.61l9.39,80.84c-19.33,5.79-34.28,21.69-38.76,41.56Z" style="fill:#8071b3; fill-rule:evenodd;"/><path d="M980.67,1136.46l39.7-71.05c5.79,2,12,3.09,18.46,3.09,18.82,0,35.48-9.23,45.71-23.4l73.35,35.3c-23.68,41.21-68.14,68.96-119.07,68.96-20.79,0-40.49-4.61-58.15-12.89Z" style="fill:#b6a9d2; fill-rule:evenodd;"/><path d="M1003.16,1055.78l-32.32,57.86c-31.59-21.19-52.73-56.74-54.09-97.3l66.19,3.08c1.88,14.62,9.36,27.48,20.23,36.37Z" style="fill:#38308d; fill-rule:evenodd;"/><path d="M1093.11,1027.33c1.34-4.83,2.07-9.93,2.07-15.18,0-29.99-23.41-54.49-52.94-56.25l-13.9-119.7c3.47-.2,6.97-.3,10.49-.3,97.34,0,176.25,78.9,176.25,176.25,0,23.89-4.76,46.67-13.37,67.45l-108.6-52.27Z" style="fill:#d1c6e2; fill-rule:evenodd;"/><path d="M275.89,825.45h466.42c11.51,0,20.86,9.35,20.86,20.86v302.03c0,11.51-9.35,20.86-20.86,20.86H275.89c-11.51,0-20.86-9.35-20.86-20.86v-302.03c0-11.51,9.35-20.86,20.86-20.86Z" style="fill:#b6a9d2;"/><path d="M279.13,841.25h459.95c4.57,0,8.31,3.72,8.31,8.29v295.57c0,4.56-3.74,8.3-8.31,8.3H279.13c-4.57,0-8.3-3.74-8.3-8.3v-295.57c0-4.57,3.73-8.29,8.3-8.29Z" style="fill:#d7cce5; fill-rule:evenodd;"/><path d="M301.87,872.74h23.24v243.26h-23.24v-243.26h0Zm391.22,0h23.25v243.26h-23.25v-243.26h0Zm-39.12,0h23.24v243.26h-23.24v-243.26h0Zm-39.12,0h23.24v243.26h-23.24v-243.26h0Zm-39.12,0h23.24v243.26h-23.24v-243.26h0Zm-39.13,0h23.25v243.26h-23.25v-243.26h0Zm-39.12,0h23.24v243.26h-23.24v-243.26h0Zm-39.12,0h23.24v243.26h-23.24v-243.26h0Zm-39.12,0h23.24v243.26h-23.24v-243.26h0Zm-39.13,0h23.25v243.26h-23.25v-243.26h0Zm-39.12,0h23.24v243.26h-23.24v-243.26Z" style="fill:#fff; fill-rule:evenodd;"/><path d="M301.87,1008.49h23.24v107.52h-23.24v-107.52h0Zm391.22-98.8h23.25v206.32h-23.25v-206.32h0Zm-39.12,44h23.24v162.32h-23.24v-162.32h0Zm-39.12-14.94h23.24v177.26h-23.24v-177.26h0Zm-39.12,55.63h23.24v121.62h-23.24v-121.62h0Zm-39.13-28.23h23.25v149.86h-23.25v-149.86h0Zm-39.12,85.52h23.24v64.34h-23.24v-64.34h0Zm-39.12-40.68h23.24v105.02h-23.24v-105.02h0Zm-39.12-65.59h23.24v170.61h-23.24v-170.61h0Zm-39.13,36.53h23.25v134.09h-23.25v-134.09h0Zm-39.12,45.67h23.24v88.42h-23.24v-88.42Z" style="fill:#38308d; fill-rule:evenodd;"/><path d="M1809.45,248.01c-8.09,.59-15.87-9-18.12-11.87-8.59-10.9-14.08-23.72-16.29-30.91,1.67-4.77,3.43-10.8,5.26-18.08,31.14-21.15,35.39-36.8,12.77-46.95-4.56,2.57-10.21,10.44-16.98,23.63-5.39-.22-9.49-2.98-12.28-8.28,6.43-22.27,10.61-40.35,12.56-54.25-15.34-22.8-51.23-26.05-98.73-19.9-2.2,12.64-4.01,26.03-5.42,40.18-8.4,7.73-7.32,36.43,.43,69.49-3.87,18.8,7.74,29.07,34.82,30.78,.26,4.54-.14,9.76-.23,12.95-.07,2.87-.17,8.51-3.19,9.39l-5.02,1.25c.5,67.22,34.92,80.14,110.42,2.57Z" style="fill:#fab688; fill-rule:evenodd;"/><path d="M1677.64,81.41c47.51-6.15,83.4-2.9,98.73,19.9-1.95,13.9-6.12,31.98-12.55,54.25,2.78,5.3,6.87,8.06,12.27,8.28,6.76-13.2,12.42-21.06,16.98-23.63,22.63,10.15,18.37,25.8-12.77,46.95-1.82,7.29-3.58,13.31-5.26,18.1,28.01-6.28,51.44-31.34,54.74-42.18,32.67-64.4-3.77-91.6-23.26-101.52-8.61-63.77-101.57-8.62-126.03-47.55-51.17,29.2-17.23,66.83-2.85,67.4Z" style="fill:#1b2452; fill-rule:evenodd;"/><path d="M1738.68,215.31c-7.59,3.75-17.99,5.94-31.21,6.54,.26,4.49,.07,9.63-.22,12.82,13.29-2.56,23.77-9.01,31.43-19.36Z" style="fill:#ed7d57; fill-rule:evenodd;"/><path d="M1866.09,1506.99c29.5-10.39,31.88-25.59,47.78-33.02,16.01-7.47,17.85-20.8,2.2-35.26-11.57,9.24-25.91,20.6-33.51,14.58-5.07-4.01-22.29-3.75-25.69,2.11-14.99,34.84-35.84,23.8-39.96,39.65-.47,21.12,35.64,16.72,49.18,11.95Z" style="fill:#071023; fill-rule:evenodd;"/><path d="M1610.41,1472.33c51.97-.83,90.81-1.45,108.76-7.11,19.36-6.12,15.35-17.93,4.23-36.81-48.98,22.53-35.93-4.63-58.84-1.18-16.1,12.95-39.94,21.63-71.51,26.05-13.35,9.85-7.93,18.63,17.35,19.06Z" style="fill:#071023; fill-rule:evenodd;"/><path d="M1636.37,255.63c25.93-7.53,49.23-12.09,69.87-13.7,3.73,56.98,33.46,56.59,89.19-1.19,53.67,4.51,64.17,5.2,93.95,14.86,64.43,61.54,70.36,132.56,104.03,213.72-37.29,1.67-54.02,6.17-79.36,15.19-5.45-19.45-10-35.1-13.67-46.96,1.03,107.04,1.42,180.36,1.18,220.01-123.31,48.85-224.89,32.13-266.37-5.95-.58-95.13-1.37-170.44-2.37-225.94-14.75,17.39-28.43,30.86-41.03,40.44-30.23-34.66-50.71-48.62-67.86-69.06,37.95-62.31,92.33-120.3,112.45-141.42Z" style="fill:#ed2c3f; fill-rule:evenodd;"/><path d="M1387.85,359.88c64.78,26.92,110.13,49.15,136.07,66.73l11.52-17.05c10.71,10.72,22.94,21.25,37.86,36.53-13.8,14.45-28.61,26.32-45.85,36.35-45.02-4.82-94.77-38.9-149.26-102.26-16.95-3.38-29.42-9.52-37.42-18.43-.42-8.16,3.69-16.34,12.34-24.55-22.59-14.72-31.58-25.26-26.98-31.61,35.41,21.89,55.98,39.99,61.71,54.29Z" style="fill:#fab688; fill-rule:evenodd;"/><path d="M1635.17,651.62c2.43,9.26-7.65,63.61-9.32,91.96-16.4,101.2-2.35,232.93,6.48,402.31,15.8,59.68,39.11,139.24,37.6,251.19,27.51,8.41,37.48,9.27,62.3,2.96,17.37-116.84,5.52-210.4-10.16-253.61,10.04-66.79,25.03-141.55,46.87-249.37,24.59,117.5,57.5,204.71,71.74,261.62,2.82,63.44,15.65,149.05,22.35,256.86,20.43,6.15,33.14,7.92,54.33,5.33,27.51-99.08,22.88-206.91,11.24-323.46-12.4-140.11,8.05-298.32-12.42-353.19-10.46-32.49-11.81-61.34-14.62-86.64-102.88,34.24-191.68,32.26-266.37-5.95Z" style="fill:#c6202d; fill-rule:evenodd;"/><path d="M1882.58,548.84c6.6,.99,12.85,1.85,18.73,2.65,.31,47.21,.38,82.57,.24,106.09-5.83,2.6-14.02,5.61-20.41,6.37,.04-3.03,.99-10.03,1.01-13.02,.41-36.1,.55-70.12,.42-102.08h0Zm-301.5-94.59c18.15-15.12,35.44-39.67,51.85-73.66-1.84,11.83-2.58,27.69-2.21,47.52-13.96,16.2-26.95,28.86-38.96,37.99-3.7-4.24-7.25-8.18-10.68-11.86h0Zm296.37-92.04c7.99,25.73,15.65,50.86,22.92,75.35,.2,20.69,.37,40.11,.53,58.28-5.29-.5-11.48-.83-18.82-1.01-.76-50.24-2.3-94.46-4.63-132.62Z" style="fill:#c6202d; fill-rule:evenodd;"/><path d="M1714.68,399.22h-135.76c-6.22,0-10.51,5.09-9.52,11.31l30.46,192.32c.99,6.22,6.89,11.31,13.11,11.31h135.75c6.22,0,10.51-5.09,9.52-11.31l-30.47-192.32c-.98-6.22-6.88-11.31-13.1-11.31Z" style="fill:#47459b; fill-rule:evenodd;"/><path d="M1980.89,470.05c5.87,23.82,8.32,45.6,3.52,74.48-14.66,21.27-73.78,9.39-226.02-16.06-5.45,4.99-16.75,9.93-33.89,7.72-15.93-3.97-16.68-8.12-34.54-24.97-4.33-13.1-3.44-23.11,2.67-30.03,20.11,11.84,30.7,18.14,53.34,18.89-6.03-15.52-6.94-25.53-2.72-30.04,7.73,6.19,12.76,15.51,15.09,27.94,120.02-5.22,151.67-4.53,167.65,3.85-1.73-7.53-3.26-14.15-4.61-19.87,18.69-6.37,33.9-10.06,59.51-11.92Z" style="fill:#fab688; fill-rule:evenodd;"/><path d="M1719.94,1402.76c-1.22,10.19-1.4,19.33-.53,27.43-40.97,17.81-34.02-2.75-50.39-3.26,4.12-7.24,6.78-16.49,8-27.74,17.88,5.12,28.03,6.27,42.92,3.58h0Zm190.96,18.77c0,7.42,.71,13.94,2.17,19.57-10.95,8.67-23.56,17.71-30.51,12.19-3.33-2.63-11.91-3.42-18.36-2,2.66-8.96,4.75-20.17,6.29-33.64,14.37,3.87,25.4,5.16,40.41,3.88Z" style="fill:#fab688; fill-rule:evenodd;"/><path d="M1625.85,743.57c72.35,67.46,169.13,67.68,290.32,.63,20.47,54.87,.02,213.08,12.42,353.19,11.65,116.55,16.27,224.38-11.24,323.46-2.24,.27-4.38,.5-6.46,.67-15.01,1.28-26.05-.01-40.41-3.88-2.38-.63-4.85-1.35-7.45-2.13-6.7-107.81-19.54-193.43-22.35-256.86-14.25-56.91-47.16-144.12-71.74-261.62-21.84,107.82-36.83,182.59-46.87,249.37,15.68,43.21,27.53,136.78,10.16,253.61-4.52,1.15-8.55,2.06-12.28,2.73-14.89,2.69-25.05,1.52-42.92-3.58-2.24-.65-4.59-1.35-7.09-2.11,1.52-111.95-21.8-191.5-37.6-251.19-8.83-169.38-22.87-301.11-6.48-402.31Z" style="fill:#1b2452; fill-rule:evenodd;"/><path d="M1740.06,1319.74c-26.41,7.17-50.58,9.34-72.52,6.5-.47-5.79-1.01-11.49-1.6-17.08,24.06,3.13,48.95,1.52,74.66-4.83-.13,5.06-.3,10.21-.54,15.41h0Zm192.92,20.1c-28.72,3.45-54.15,1.54-76.29-5.69-.55-6.04-1.12-11.97-1.68-17.82,24.85,8.11,51.38,10.88,79.57,8.32-.47,5.07-1.01,10.15-1.6,15.19h0Zm-72.59,37.94c-.46-5.98-.94-11.87-1.43-17.7,22.17,6.07,45.63,8.02,70.37,5.84-.84,5.15-1.75,10.26-2.72,15.35-24.48,2.76-46.55,1.6-66.22-3.49h0Zm-191.57-33.02c22.38,3.71,45.64,3.31,69.78-1.21-.39,5.12-.84,10.29-1.35,15.52-24.67,5.22-47.23,6.15-67.66,2.79-.2-5.79-.45-11.49-.77-17.11Z" style="fill:#1b2452; fill-rule:evenodd;"/><path d="M1111.55,46.09c78.04-3.92,177.76,37.1,186.19,153.02,8.43,115.93-78.98,172.14-162.09,178.38-39.41,2.95-81.84-9.72-114.29-34.84-35.98-27.86-60.12-70.77-63.45-118.81-3.68-53.06,18.94-104,56.69-137.39,27.38-24.21,64.16-38.71,96.95-40.35Z" style="fill:#2b2870; fill-rule:evenodd;"/><path d="M1112.13,54.13c87.08-6.32,162.8,59.12,169.13,146.19,6.33,87.07-59.12,162.78-146.19,169.12-87.08,6.34-162.79-59.12-169.12-146.19-6.33-87.07,59.12-162.78,146.18-169.12Z" style="fill:#8071b3; fill-rule:evenodd;"/><path d="M1115.99,107.14c57.79-4.2,108.05,39.24,112.25,97.03,4.2,57.79-39.24,108.04-97.02,112.25-57.79,4.2-108.05-39.24-112.25-97.03-4.2-57.79,39.24-108.04,97.03-112.25Z" style="fill:#d7cce5; fill-rule:evenodd;"/><path d="M1118.6,159.91c29.38-2.14,54.92,19.94,57.05,49.32,2.14,29.37-19.94,54.91-49.32,57.05-29.38,2.14-54.92-19.95-57.05-49.32-2.13-29.38,19.95-54.93,49.32-57.05Z" style="fill:#8071b3; fill-rule:evenodd;"/><path d="M1119.71,216.61c24.84-8.9,61.42-35.53,67.18-39.77,64.68-47.58,110.82-81.52,175.5-129.1,3.05-2.24,3.47-6.9,.94-10.34h0c-2.53-3.45-7.1-4.43-10.14-2.19-64.68,47.58-110.81,81.52-175.5,129.1-5.76,4.24-42.08,31.24-57.97,52.29Z" style="fill:#ede4f1; fill-rule:evenodd;"/><path d="M1183.83,172.68l175.5-129.11c3.05-2.24,4.84-5.02,3.99-6.17,2.54,3.43,2.11,8.09-.94,10.34l-6.83,5.03-13.42,9.86-13.42,9.88-13.42,9.88-13.42,9.86-114.98,84.6c-5.76,4.24-42.34,30.88-67.18,39.77,21.86-12.94,58.36-39.69,64.12-43.93Z" style="fill:#b6a9d2; fill-rule:evenodd;"/><path d="M1301.87,92.24l34.75,12.13c3.08,1.08,8.18,.04,11.36-2.29l42.99-31.62c2.7-2,2.77-4.37,.16-5.28l-35.58-12.42-53.68,39.47Z" style="fill:#8071b3; fill-rule:evenodd;"/><path d="M1292.67,79.73l-1.24-36.8c-.11-3.25,2.4-7.81,5.57-10.15l43-31.62c2.7-1.98,4.99-1.35,5.08,1.41l1.27,37.68-53.68,39.49Z" style="fill:#8071b3; fill-rule:evenodd;"/></svg>