<?xml version="1.0" encoding="UTF-8"?><svg id="a" xmlns="http://www.w3.org/2000/svg" viewBox="0 0 1879.78 1304.86"><path d="M1689.43,100.46c-254.25-103.63-512.67-12.04-687.93,187.53-87.65,99.78-223.48,65.31-361.78,30.84-138.19-34.47-278.86-68.94-376.35,30.65-133.13,135.94-72.16,485.48,110.39,636.87,248.1,205.79,1172.44,211.98,1325.82,141.38,262.05-120.67,1.68-344.15,123.98-558.35,144.34-252.71-21.76-423.13-134.12-468.93h0Zm0,0" style="fill:#e9eef7; fill-rule:evenodd;"/><path d="M199.04,104.66H806.74c47.43,0,86.25,38.8,86.25,86.24v835.35c0,47.44-38.81,86.24-86.25,86.24H199.04c-47.44,0-86.27-38.8-86.27-86.24V190.9c0-47.44,38.83-86.24,86.27-86.24h0Zm0,0" style="fill:#cfdaee; fill-rule:evenodd;"/><path d="M217.01,134.93H788.77c40.66,0,73.94,33.28,73.94,73.95V1008.28c0,40.66-33.28,73.95-73.94,73.95H217.01c-40.69,0-73.94-33.28-73.94-73.95V208.87c0-40.66,33.25-73.95,73.94-73.95h0Zm0,0" style="fill:#e9eef7; fill-rule:evenodd;"/><path d="M220.22,788.85H785.56c10.9,0,19.86,9.24,19.86,20.51v221.83c0,11.26-8.95,20.51-19.86,20.51H220.22c-10.94,0-19.88-9.24-19.88-20.51v-221.83c0-11.27,8.93-20.51,19.88-20.51h0Zm0,0" style="fill:#cfdaee; fill-rule:evenodd;"/><path d="M351.93,66.6h106.87v-22.53c0-24.24,19.83-44.07,44.07-44.07s44.1,19.83,44.1,44.07v22.53h106.87c14.63,0,26.64,11.97,26.64,26.64v50.74c0,14.63-12,26.64-26.64,26.64H351.93c-14.67,0-26.64-12-26.64-26.64v-50.74c0-14.67,11.97-26.64,26.64-26.64h0ZM502.87,26.32c10.78,0,19.51,8.73,19.51,19.51s-8.73,19.48-19.51,19.48-19.48-8.73-19.48-19.48,8.72-19.51,19.48-19.51h0Zm0,0" style="fill:#becce7; fill-rule:evenodd;"/><path d="M758.82,832.79H493.72c-4.39,0-8.02,3.52-8.02,7.83s3.63,7.83,8.02,7.83h265.09c4.4,0,8-3.53,8-7.83s-3.6-7.83-8-7.83h0Zm-376.85,0H246.95c-4.39,0-8.02,3.52-8.02,7.83s3.63,7.83,8.02,7.83h135.01c4.41,0,8-3.53,8-7.83s-3.59-7.83-8-7.83h0Zm376.85,50.93H493.72c-4.39,0-8.02,3.53-8.02,7.83s3.63,7.83,8.02,7.83h265.09c4.4,0,8-3.53,8-7.83s-3.6-7.83-8-7.83h0Zm-376.85,0H246.95c-4.39,0-8.02,3.53-8.02,7.83s3.63,7.83,8.02,7.83h135.01c4.41,0,8-3.53,8-7.83s-3.59-7.83-8-7.83h0Zm376.85,50.93H493.72c-4.39,0-8.02,3.53-8.02,7.83s3.63,7.83,8.02,7.83h265.09c4.4,0,8-3.52,8-7.83s-3.6-7.83-8-7.83h0Zm-376.85,0H246.95c-4.39,0-8.02,3.53-8.02,7.83s3.63,7.83,8.02,7.83h135.01c4.41,0,8-3.52,8-7.83s-3.59-7.83-8-7.83h0Zm376.85,50.93H493.72c-4.39,0-8.02,3.54-8.02,7.84s3.63,7.83,8.02,7.83h265.09c4.4,0,8-3.53,8-7.83s-3.6-7.84-8-7.84h0Zm-376.85,0H246.95c-4.39,0-8.02,3.54-8.02,7.84s3.63,7.83,8.02,7.83h135.01c4.41,0,8-3.53,8-7.83s-3.59-7.84-8-7.84h0Zm0,0" style="fill:#fff; fill-rule:evenodd;"/><path d="M251.63,335.97h234.77c4.28,0,7.8,3.47,7.8,7.73s-3.52,7.77-7.8,7.77H251.63c-4.3,0-7.83-3.5-7.83-7.77s3.53-7.73,7.83-7.73h0Zm313.67,0h188.83c4.31,0,7.8,3.47,7.8,7.73s-3.49,7.77-7.8,7.77h-188.83c-4.31,0-7.8-3.5-7.8-7.77s3.49-7.73,7.8-7.73h0Zm0,50.42h188.83c4.31,0,7.8,3.5,7.8,7.73s-3.49,7.76-7.8,7.76h-188.83c-4.31,0-7.8-3.49-7.8-7.76s3.49-7.73,7.8-7.73h0Zm0,50.42h188.83c4.31,0,7.8,3.5,7.8,7.77s-3.49,7.73-7.8,7.73h-188.83c-4.31,0-7.8-3.5-7.8-7.73s3.49-7.77,7.8-7.77h0Zm-313.67-50.42h234.77c4.28,0,7.8,3.5,7.8,7.73s-3.52,7.76-7.8,7.76H251.63c-4.3,0-7.83-3.49-7.83-7.76s3.53-7.73,7.83-7.73h0Zm0,50.42h234.77c4.28,0,7.8,3.5,7.8,7.77s-3.52,7.73-7.8,7.73H251.63c-4.3,0-7.83-3.5-7.83-7.73s3.53-7.77,7.83-7.77h0Zm0,0" style="fill:#fff; fill-rule:evenodd;"/><path d="M251.63,595.51h234.77c4.28,0,7.8,3.47,7.8,7.73s-3.52,7.77-7.8,7.77H251.63c-4.3,0-7.83-3.5-7.83-7.77s3.53-7.73,7.83-7.73h0Zm313.67,0h188.83c4.31,0,7.8,3.47,7.8,7.73s-3.49,7.77-7.8,7.77h-188.83c-4.31,0-7.8-3.5-7.8-7.77s3.49-7.73,7.8-7.73h0Zm0,50.42h188.83c4.31,0,7.8,3.49,7.8,7.73s-3.49,7.76-7.8,7.76h-188.83c-4.31,0-7.8-3.49-7.8-7.76s3.49-7.73,7.8-7.73h0Zm0,50.42h188.83c4.31,0,7.8,3.5,7.8,7.74s-3.49,7.77-7.8,7.77h-188.83c-4.31,0-7.8-3.5-7.8-7.77s3.49-7.74,7.8-7.74h0Zm-313.67-50.42h234.77c4.28,0,7.8,3.49,7.8,7.73s-3.52,7.76-7.8,7.76H251.63c-4.3,0-7.83-3.49-7.83-7.76s3.53-7.73,7.83-7.73h0Zm0,50.42h234.77c4.28,0,7.8,3.5,7.8,7.74s-3.52,7.77-7.8,7.77H251.63c-4.3,0-7.83-3.5-7.83-7.77s3.53-7.74,7.83-7.74h0Zm0,0" style="fill:#fff; fill-rule:evenodd;"/><path d="M215.72,290.49H790.01c7.55,0,14.42,3.08,19.4,8.05,4.94,4.98,8.05,11.81,8.05,19.36v156.49c0,7.54-3.11,14.41-8.05,19.38-4.98,4.95-11.85,8.03-19.4,8.03H215.72c-7.54,0-14.41-3.08-19.35-8.03-4.97-4.97-8.06-11.84-8.06-19.38v-156.49c0-7.54,3.08-14.38,8.06-19.36,4.94-4.97,11.81-8.05,19.35-8.05h0Zm574.29,10.78H215.72c-4.56,0-8.73,1.86-11.74,4.88-3.02,3.02-4.88,7.19-4.88,11.75v156.49c0,4.59,1.86,8.76,4.88,11.78,3.02,3.01,7.19,4.88,11.74,4.88H790.01c4.6,0,8.78-1.87,11.79-4.88,3.02-3.02,4.89-7.19,4.89-11.78v-156.49c0-4.56-1.87-8.73-4.89-11.75-3.01-3.02-7.19-4.88-11.79-4.88h0Zm0,0" style="fill:#fff; fill-rule:evenodd;"/><path d="M215.72,550.04H790.01c7.55,0,14.42,3.08,19.4,8.06,4.94,4.98,8.05,11.81,8.05,19.36v156.49c0,7.53-3.11,14.4-8.05,19.38-4.98,4.94-11.85,8.02-19.4,8.02H215.72c-7.54,0-14.41-3.08-19.35-8.02-4.97-4.98-8.06-11.85-8.06-19.38v-156.49c0-7.55,3.08-14.38,8.06-19.36,4.94-4.97,11.81-8.06,19.35-8.06h0Zm574.29,10.78H215.72c-4.56,0-8.73,1.87-11.74,4.88-3.02,3.01-4.88,7.19-4.88,11.75v156.49c0,4.58,1.86,8.76,4.88,11.77,3.02,3.02,7.19,4.88,11.74,4.88H790.01c4.6,0,8.78-1.86,11.79-4.88,3.02-3.02,4.89-7.19,4.89-11.77v-156.49c0-4.56-1.87-8.74-4.89-11.75-3.01-3.02-7.19-4.88-11.79-4.88h0Zm0,0" style="fill:#fff; fill-rule:evenodd;"/><path d="M282.57,200.18h440.63c8.34,0,15.17,6.84,15.17,15.18s-6.84,15.18-15.17,15.18H282.57c-8.34,0-15.18-6.84-15.18-15.18s6.84-15.18,15.18-15.18h0Zm0,0" style="fill:#fff; fill-rule:evenodd;"/><path d="M118.63,298.1c37.01-17.94,81.55-2.5,99.5,34.47,17.94,37,2.51,81.52-34.46,99.49-37.01,17.94-81.55,2.5-99.5-34.47-17.94-37-2.51-81.55,34.46-99.49h0Zm0,0" style="fill:#cfdaee; fill-rule:evenodd;"/><path d="M123.42,307.95c31.55-15.3,69.54-2.15,84.87,29.4,15.3,31.55,2.1,69.55-29.41,84.86-31.54,15.31-69.54,2.12-84.86-29.4-15.31-31.55-2.14-69.55,29.4-84.86h0Zm0,0" style="fill:#fff; fill-rule:evenodd;"/><path d="M125.34,311.9c29.37-14.25,64.73-1.99,78.98,27.37,14.26,29.37,1.99,64.74-27.38,78.99-29.37,14.25-64.74,1.99-78.98-27.37-14.25-29.37-1.99-64.74,27.38-78.99h0Zm0,0" style="fill:#becce7; fill-rule:evenodd;"/><path d="M154.01,329.8c-3.4-.1-7.96,.39-13.32,2.79l-4.25-8.73-8.08,3.92,4.56,9.4c-7.77,6.23-9.96,15.03-6.02,23.08,4.04,8.34,11.82,9.88,21.67,9.79,9.18-.38,13.22,1.03,15.25,5.23,2.03,4.11,.71,8.73-5.26,11.62-5.17,2.5-10.94,3.05-15.05,2.72l1.99,10.44c4.01,.29,10.17-.64,15.54-3.05l4.55,9.4,8.09-3.92-4.88-10.08c8.44-6.32,10.59-15.73,6.51-24.13-4.14-8.61-10.84-11.04-22.72-10.69-8.06-.06-12.73-.64-14.57-4.46-1.58-3.21-.39-7.96,5.13-10.62,4.78-2.34,9.67-2.57,12.75-2.54l-1.9-10.17Zm0,0" style="fill:#fff; fill-rule:evenodd;"/><path d="M603.55,478.5c49.71,16.56,76.54,70.28,59.95,120-16.59,49.68-70.32,76.51-120,59.92-49.68-16.59-76.51-70.31-59.94-120,16.59-49.68,70.31-76.51,119.99-59.92h0Zm0,0" style="fill:#cfdaee; fill-rule:evenodd;"/><path d="M599.15,491.72c42.36,14.15,65.25,59.95,51.1,102.35-14.13,42.36-59.96,65.24-102.32,51.09-42.4-14.12-65.28-59.95-51.13-102.32,14.15-42.37,59.96-65.28,102.35-51.13h0Zm0,0" style="fill:#fff; fill-rule:evenodd;"/><path d="M597.39,497.02c39.44,13.15,60.76,55.81,47.56,95.28-13.16,39.45-55.81,60.76-95.26,47.6-39.43-13.19-60.75-55.84-47.59-95.28,13.16-39.45,55.81-60.76,95.29-47.6h0Zm0,0" style="fill:#becce7; fill-rule:evenodd;"/><path d="M607.55,538.86c-3.04-3.11-7.59-6.74-14.63-9.33l3.91-11.75-10.85-3.6-4.22,12.62c-12.61-1.26-22.41,4.84-26.04,15.69-3.76,11.2,1.99,19.51,11.02,28.17,8.72,7.84,11.16,12.71,9.27,18.36-1.86,5.56-7.17,8.57-15.14,5.91-6.97-2.31-12.72-6.94-16.18-10.92l-7.45,11.3c3.37,3.82,9.85,8.44,16.85,11.04l-4.2,12.65,10.84,3.63,4.53-13.54c13.32,1.77,23.68-4.88,27.44-16.2,3.85-11.53-.06-19.71-11.17-29.95-7.32-7.25-11.03-11.94-9.34-17.04,1.44-4.34,6.74-7.61,14.15-5.13,6.42,2.15,11.07,6.28,13.83,9.05l7.37-10.95Zm0,0" style="fill:#fff; fill-rule:evenodd;"/><path d="M594.17,310.48c27.19-16.62,62.68-8.05,79.31,19.1,16.58,27.18,8.05,62.68-19.12,79.31-27.16,16.62-62.65,8.05-79.28-19.13-16.62-27.15-8.05-62.65,19.09-79.28h0Zm0,0" style="fill:#cfdaee; fill-rule:evenodd;"/><path d="M598.6,317.74c23.18-14.19,53.44-6.9,67.63,16.27,14.19,23.17,6.87,53.47-16.3,67.62-23.18,14.19-53.44,6.86-67.63-16.3-14.15-23.17-6.87-53.44,16.3-67.59h0Zm0,0" style="fill:#fff; fill-rule:evenodd;"/><path d="M600.37,320.63c21.6-13.19,49.78-6.41,62.97,15.18,13.19,21.57,6.39,49.75-15.18,62.94-21.57,13.19-49.75,6.39-62.93-15.18-13.2-21.57-6.43-49.75,15.14-62.94h0Zm0,0" style="fill:#becce7; fill-rule:evenodd;"/><path d="M623.84,332.28c-2.64,.19-6.11,.9-10.08,3.15l-3.92-6.42-5.94,3.63,4.25,6.9c-5.56,5.39-6.55,12.32-2.93,18.26,3.76,6.13,9.84,6.74,17.43,5.9,7.07-.96,10.3-.19,12.2,2.89,1.82,3.04,1.15,6.7-3.22,9.36-3.82,2.31-8.18,3.18-11.43,3.25l2.34,7.9c3.11-.1,7.8-1.29,11.75-3.53l4.24,6.9,5.94-3.63-4.52-7.38c6.03-5.52,6.98-12.93,3.2-19.13-3.85-6.29-9.21-7.7-18.33-6.52-6.23,.55-9.85,.45-11.55-2.34-1.45-2.37-.94-6.09,3.13-8.6,3.51-2.12,7.26-2.66,9.63-2.89l-2.2-7.7Zm0,0" style="fill:#fff; fill-rule:evenodd;"/><path d="M1153.93,1162.62c-375.79,0-680.43,28.82-680.43,64.38s304.64,64.38,680.43,64.38,680.43-28.82,680.43-64.38-304.64-64.38-680.43-64.38h0Zm0,0" style="fill:#cfdaee; fill-rule:evenodd;"/><path d="M984.48,252.94l.06,7.38s-2.02,23.1,26.41,26.48c28.44,3.37,51.78,2.92,51-14.89-2.57-13.8-7.16-35.21-7.36-46.64-.05-4.23,.23-8.76,1.04-13.83l-55.11-1.09-16.24,2.63,.19,39.96Zm0,0" style="fill:#ffb27d; fill-rule:evenodd;"/><path d="M984.25,212.98l.22,39.96c5.84,2.73,12.45,4.39,19.86,4.39,25.32,0,41.69-18.58,50.26-32.07-.08-4.23,.2-8.76,1.01-13.83l-55.1-1.09-16.25,2.63Zm0,0" style="fill:#e2915a; fill-rule:evenodd;"/><path d="M1059.8,202.58c-6.38,34.41-50.76,33.28-69.95,31.1-5.4-.58-8.81-1.28-8.81-1.28-6.09-1.64-9.49-11.21-11.06-23.79-3.15-24.87,.83-61.36,5-70.68,6.35-14.05,18.23-29.23,62.97-18.29,44.71,10.98,30.07,38.83,21.85,82.93h0Zm0,0" style="fill:#ffb27d; fill-rule:evenodd;"/><path d="M1096.17,1221.39h-62.94c.47-3.27,2.09-13.32,5.04-22.56,1-3.24,2.22-6.35,3.57-9.08,6.09-12.2,44.96-4.43,44.96-4.43,0,0,3.63,3.08,6.46,14.89,1.21,5.23,2.33,12.13,2.91,21.18h0Zm0,0" style="fill:#233862; fill-rule:evenodd;"/><path d="M906.01,1201.55c-.16,8.54-1.25,16.66-4.33,19.83h-124.45c1.57-4.49,6.06-11.27,18.83-13.32,14.51-2.34,37.17-9.34,50.36-23.33,4.72-4.94,8.22-10.82,9.76-17.65,5.87-26.06,48.4,7.99,48.4,7.99,0,0,1.73,13.74,1.44,26.48h0Zm0,0" style="fill:#233862; fill-rule:evenodd;"/><path d="M988.81,919.76c-1.73,9.53-2.82,17.36-3.15,22.98-3.95,77.18-64.95,253.64-75.88,257.71-16.87,6.38-43.45-7.16-57.38-11.59-5.74-1.83-9.66-7.64-8.34-13.54,30.2-138.9,41.31-338.88,45.35-457.28,2.02-59.66,12.26-100.84,12.26-100.84,0,0,148.8-39.7,149.69,10.53,.78,44.42-49.3,218.73-62.55,292.03h0Zm0,0" style="fill:#2b478b; fill-rule:evenodd;"/><path d="M988.81,919.76l-99.4-201.71c2.02-59.66,12.26-100.84,12.26-100.84,0,0,148.8-39.7,149.69,10.53,.78,44.42-49.3,218.73-62.55,292.03h0Zm0,0" style="fill:#233862; fill-rule:evenodd;"/><path d="M955.69,627.9l78.66,570.09s34.54,8.31,61.4,1.64c0,0,23.01-303.16,21.12-376.47-1.93-73.3,16.53-196.16-4.21-209.71-20.73-13.51-156.97,14.45-156.97,14.45h0Zm0,0" style="fill:#2b478b; fill-rule:evenodd;"/><path d="M961.27,105.18s19.68-1.5,42.92-11.62c18.84-8.18,42.58,.84,50.32,4.91-.23-1.25-.71-2.96-1.9-4.65,0,0,3.47,2.47,3.98,5.9,.36,.26,.51,.45,.41,.48,0,0,3.96-.71,6.49,.41,0,0-1.76-.23-2.41,.9-.06,.12-.19,.22-.29,.32,29.4,14.18,32.1,60.66,22.66,71.37-11.39,12.94-25.03,42.08-25.03,42.08,0,0-4.97-6.9-2.92-18.27,2.1-11.39-7.77-11.39-20.15-16.56-12.43-5.17-2.09-19.64-12.94-28.44-10.85-8.79-50.67-3.63-50.16-10.36-14.8-5.37-10.98-34.99-10.98-36.5h0Zm0,0" style="fill:#233862; fill-rule:evenodd;"/><path d="M1068.63,281.82l-18.1,388.53s-151.13,2.47-146.83-31.71c4.31-34.21,54.46-344.95,54.46-344.95l110.47-11.87Zm0,0" style="fill:#e9f3fe; fill-rule:evenodd;"/><path d="M1122.61,502.05c-8.99,26.96,7.97,117.5,13.99,148.18,1.35,6.48,2.21,10.3,2.21,10.3-20.92,34.05-97.59,33.61-97.59,33.61-14.73-65.15-22.41-168.95-22.41-168.95l58.83-257.85,74.01,68.43s-5.62,41.72-12.55,84.15c-5.45,33.64-11.65,67.85-16.5,82.13h0Zm0,0" style="fill:#22407a; fill-rule:evenodd;"/><path d="M851.8,444.12c-.17-.16-.17-.45-.17-.58,0-5.62,21.38-18.01,44.52-32.61,.29-.29,.45-.45,.45-.45h.06c-.42,11.91-.38,23.62,.32,34.51,1.32,20.19-.13,44.32-2.61,68.9-11-17.2-40.42-63.45-42.58-69.77h0Zm60.08-156.78s0,.06-.06,.16c-3.6,3.46-104.47,101.44-124.02,139.8-19.93,38.93,90.92,116.47,90.92,116.47,0,0,7.16,2.82,12.1,1.7-5.23,43.07-11.07,82.74-7.61,99.72,6.26,30.62,34.63,40.92,34.63,38.54,0-.74,10.34-111.3,15.98-169.01,12.07-123.69,42.31-246.58,42.31-246.58-33,3.43-64.29,19.19-64.29,19.19h.03Zm0,0" style="fill:#22407a; fill-rule:evenodd;"/><path d="M1072.93,266.9c.19-3.72-17.4-8.82-17.4-8.82,0,0-20.1,27.85-53.21,28.34,0,0,9.44,18.39,20.54,23.14,0,0,48.98-20.64,50.07-42.65h0Zm0,0" style="fill:#d9e9f9; fill-rule:evenodd;"/><path d="M1002.32,285.77s-17.56-10.4-17.61-21.7c0,0-11.33-1.41-16.28,4.08,0,0-4.17,19.36,1.35,30.55,0,0,25.29-3.85,32.54-12.93h0Zm0,0" style="fill:#d9e9f9; fill-rule:evenodd;"/><path d="M1014.23,284.11l-23.78-5.72s-3.11,.25-3.04,4.14c.08,3.88,6.7,15.21,9.63,16.11,2.95,.89,22.81-6.71,17.2-14.54h0Zm0,0" style="fill:#ba4c43; fill-rule:evenodd;"/><path d="M1070.14,264.97c.2-3.69-11.68-11.33-11.68-11.33,0,0-23.02,26.9-56.13,27.38,0,0,9.44,18.35,20.54,23.1,0,0,46.18-17.14,47.28-39.16h0Zm0,0" style="fill:#e9f3fe; fill-rule:evenodd;"/><path d="M1002.32,281.03s-17.75-9.41-17.81-20.7c0,0-10.72,4.71-15.66,10.2,0,0-4.59,12.2,.93,23.43,0,0,25.29-3.85,32.54-12.93h0Zm0,0" style="fill:#e9f3fe; fill-rule:evenodd;"/><path d="M955.82,549.05c.81,9.08,4.95,17.52,11.68,23.71l10.53,9.7c2.63,2.44,6.81,2.12,9.02-.74l13.07-16.55c3.49-4.46,5.14-10.08,4.61-15.7-1.21-12.54-3.5-36.74-5.33-60.04-1.48-18.9-2.67-37.29-2.75-48.47-.29-35.65,6.76-149.4,6.76-149.4l-8.54,.44s-21.25,44.14-32.35,104.21c-2.77,14.8-4.87,30.55-5.9,46.85,0,0-4.46,64.96-.81,105.98h0Zm0,0" style="fill:#c65447; fill-rule:evenodd;"/><path d="M955.82,549.05c.81,9.08,4.95,17.52,11.68,23.71l10.53,9.7c2.63,2.44,6.81,2.12,9.02-.74l13.07-16.55c3.49-4.46,5.14-10.08,4.61-15.7-1.21-12.54-3.5-36.74-5.33-60.04-23.61-26.58-33.22-63.25-36.88-93.2-2.77,14.8-4.87,30.55-5.9,46.85,0,0-4.46,64.96-.81,105.98h0Zm0,0" style="fill:#ba4c43; fill-rule:evenodd;"/><path d="M871.71,550.07c0-9.89,8.69-17.85,18.49-16.34,2.72,.42,5.17,1.51,6.9,3.78,6.7,8.96,13.12,35.08,1.18,36.3-4.85,.49-11.1-2.91-15.91-6.58-4.89-3.72-10.65-9.53-10.65-15.66v-1.5Zm0,0" style="fill:#ffb27d; fill-rule:evenodd;"/><path d="M1136.6,650.23c-21.66-22.56-59.12-66.95-57.79-103.38,1.8-51,60.3-126.93,60.3-126.93-5.45,33.64-11.65,67.85-16.5,82.13-8.99,26.96,7.97,117.5,13.99,148.18h0Zm0,0" style="fill:#233862; fill-rule:evenodd;"/><path d="M1135.93,561.49s-15.6,7.8-25.04,3.89c-9.46-3.89-20.6-6.8-31.16,5.24-10.56,12.03-12.81,20.38-10.56,24.84,2.21,4.43,26.86,2.76,30.94,0,4.11-2.79,10.57-9.66,14.67-8.44,11.32,3.27,20.85-5.36,26.18-12.23,3.24-4.16-5.46-6.16-5.04-13.29h0Zm0,0" style="fill:#ffb27d; fill-rule:evenodd;"/><path d="M1077.65,267.35s62.04,6.87,76.67,33.89c14.63,27.03,90.73,136.53,88.22,182.08-2.46,45.51-103.78,96.5-103.78,96.5,0,0-22.44-9.47-22.79-19.68-.32-10.2,70.07-71.15,65.79-82.54-4.27-11.37-81.78-101.36-89.21-131.04-7.49-29.65-14.9-79.21-14.9-79.21h0Zm0,0" style="fill:#22407a; fill-rule:evenodd;"/><path d="M896.6,410.49s-.16,.16-.45,.45c-23.14,14.6-44.52,26.99-44.52,32.61-3.08-9.88,27-51.19,36.72-59.57,9.85-8.57,8.25,26.51,8.25,26.51h0Zm0,0" style="fill:#233862; fill-rule:evenodd;"/><path d="M1058.45,253.64s-47.11,197.29-39.6,271.62c0,0,17.3-79.43,59-144.49,0,0-15.22-13.38-14.38-18.29,0,0,11.3-3.38,22.24-1.1,0,0-1.23-85.05-8.06-94.04-6.84-8.98-19.19-13.71-19.19-13.71h0Zm0,0" style="fill:#233862; fill-rule:evenodd;"/><path d="M984.51,260.32c.96-.58-46.67,192.79-50.68,254.41,0,0,4.72-109.96,4.28-141.63,0,0,19.58-10.37,19.58-14s-20.89-13.44-20.89-13.44c0,0,13.22-67.71,20.44-75.2,7.22-7.45,27.28-10.14,27.28-10.14h0Zm0,0" style="fill:#233862; fill-rule:evenodd;"/><path d="M1549.22,1080.91l-18.43,77.54-27.57-.16-1.03-77.38h47.03Zm0,0" style="fill:#ffb27d; fill-rule:evenodd;"/><path d="M1322.36,1073.88l-52.38,74.26-20.4-26.25,31.52-58.22,41.27,10.21Zm0,0" style="fill:#f8b57d; fill-rule:evenodd;"/><path d="M1505.53,112.53c10.4-3.43,21.73-1.77,29.42,.26-1.56-2.48-5.38-4.01-5.38-4.01,5,.26,14.87,7.25,14.87,7.25,72.72-12.42,63.28,89.1,57.22,111.89-6.07,22.82,16.49,35.21,47.95,60.5,60.02,48.21,56.52,95.87,56.52,95.87-.58,.19-1.19,.42-1.85,.71-2.19-6.29-6.91-18.27-12.32-21.02,.09,.58,3.88,15.95,4.71,24.49-22.79,11.07-66.5,36.94-97.02,55.33,1.06-4.59,2.18-11.17,1.19-14.96l-7.04,18.52c-16.37,9.89-27.66,16.88-27.66,16.88,5.46-18.29-60.75-134.12-99.75-172.63-7.67-18.29-5.83-47.5-5.68-49.81-2.66,22.92-1.35,36.33,.67,44.16-30.96-42.68,16.59-164.36,44.16-173.4h0Zm0,0" style="fill:#003458; fill-rule:evenodd;"/><path d="M1476.74,299.28c-.22,.1,22.15,11.68,38.97,7.09,15.77-4.33,26.12-24.81,25.89-24.87-6.68-1.32-8.63-10.53-8.46-50.1l-3.03,.65-50.9,10.07s1.16,16.02,1.2,31.1c.02,12.68-.75,24.68-3.67,26.06h0Zm0,0" style="fill:#ffb27d; fill-rule:evenodd;"/><path d="M1558.42,140.13s-19.35-31.2-55.26-12.58c0,0,18.61,.55,55.26,12.58h0Zm0,0" style="fill:#5aacb6; fill-rule:evenodd;"/><path d="M1479.21,242.12s1.16,16.02,1.2,31.1c28.45-.8,43.52-26.79,49.71-41.17l-50.9,10.07Zm0,0" style="fill:#f1a264; fill-rule:evenodd;"/><path d="M1540.58,233.84s19.29-20.22,26.8-39.25c5.33-13.61,8.7-67.4-45.38-70.45,0,0-15.59-1.57-31.91,5.23-12.96,5.4-32.79,18.72-23.55,68.08l1.67,16.4,72.37,19.99Zm0,0" style="fill:#003458; fill-rule:evenodd;"/><path d="M1249.3,1115.25s13.5,2.34,24.61,3.18c2.48,.19,4.81,.32,6.87,.32,5.36,0,14.99-2.02,21.47-3.53l.49-.1c2.82-.67,5-1.22,5.81-1.44l.31-.1s67.49-75.1,105.33-195.52c.87-2.79,1.8-5.62,2.79-8.48,20.7-60.4,63.64-136.2,86.27-204.82,3.59-10.91,6.84-21.21,9.72-30.94,.93-3.11,1.83-6.19,2.7-9.21,16.69-57.93,21.5-95.96,25.96-136.62l-136.05,34.63s-57.09,247.61-156.29,552.63h0Zm0,0" style="fill:#a83631; fill-rule:evenodd;"/><path d="M1470.29,250.18s65.86,14.38,74.17-26.77c8.34-41.14,22.47-66.98-19.22-77.93-41.71-10.94-53.05,3.12-59.18,16.14-6.14,13.07-12.68,83.71,4.23,88.56h0Zm0,0" style="fill:#ffb27d; fill-rule:evenodd;"/><path d="M1495.36,138.43s8.38,51.93,34.7,64.67c26.32,12.71,39.85,7.7,39.85,7.7,0,0-17.92-21.21-16.37-51.64,0,0-39.92-40.98-58.19-20.73h0Zm0,0" style="fill:#003458; fill-rule:evenodd;"/><path d="M1499.05,143.24s-15.66,8.05-21.09,17.88c-5.38,9.79-11.22,31.1-17.36,29.08,0,0-7.03-35.56,12.03-51.03,20.22-16.4,26.42,4.08,26.42,4.08h0Zm0,0" style="fill:#003458; fill-rule:evenodd;"/><path d="M1531.73,1154.12s-2.22,15.37,3.52,31.8c0,0,4.5,20.54-15.75,20.93-20.24,.42-25.23-1.51-22.92-14.12,2.29-12.61,6.64-34.44,6.64-34.44l28.51-4.17Zm0,0" style="fill:#f8b57d; fill-rule:evenodd;"/><path d="M1535.24,1185.92s3.73,19.42,1.45,29.75c0,0-6.13,4.59-20.83,4.59s-21.21-4.59-21.21-4.59c0,0-.43-21.31,3.27-30.3,0,0,14.38,21.57,37.32,.54h0Zm0,0" style="fill:#c74a3c; fill-rule:evenodd;"/><path d="M1200.75,1184.48s37.33-41.47,48.82-62.58l27.76,14.25-62.07,58.31-14.54-1.93,.02-8.05Zm0,0" style="fill:#ffb27d; fill-rule:evenodd;"/><path d="M1177.01,1208.77s40.16,0,47.02-.77c6.9-.77,12.42-10.72,19.9-25.61,3.06-6.1,9.89-9.44,16.88-11.3v34.5h10.62l10.05-36.68c6.6-12.13,.5-23.17-4.15-32.77-5.41,0-19.96,3.69-47.56,34.76-9.1,10.24-19.1,13.9-29.03,13.58l-.41,.22c-22.94,10.3-23.33,24.07-23.33,24.07h0Zm0,0" style="fill:#c74a3c; fill-rule:evenodd;"/><path d="M1273.9,1118.43c2.48,.19,4.81,.32,6.87,.32,5.36,0,14.99-2.02,21.47-3.53l.49-.1,5.81-1.44,.31-.1s67.49-75.1,105.33-195.52c.87-2.79,1.8-5.62,2.79-8.48,20.7-60.4,63.64-136.2,86.27-204.82,3.59-10.91,6.84-21.21,9.72-30.94,.93-3.11,1.83-6.19,2.7-9.21l-24.04-18.23s-72.24,116.95-94.61,227.04c-18.53,91.21-98.35,209.51-123.11,245.01h0Zm0,0" style="fill:#962b2a; fill-rule:evenodd;"/><path d="M1489.1,883.69c-.42,53.5,2.31,176.58,9.27,227.55,0,0,6.61,5.84,23.01,5.91,16.79,.06,24.29-6.13,24.29-6.13,17.49-88.61,29.95-161.88,39-225.05,7.41-51.82,14.03-96.28,19.1-134.54,4.52-33.89,7.82-62.94,9.4-87.97,.19-3.43,.39-6.74,.54-9.97,.2-4.3,.35-8.48,.42-12.52,.1-4.08,.13-8.02,.06-11.87l-.59-.06-33.79-3.27-106.78-10.44c1.8,93.81,16.28,237.24,16.05,268.34v.04Zm0,0" style="fill:#a83631; fill-rule:evenodd;"/><path d="M1521.38,1117.14c14.28,.83,24.29-6.13,24.29-6.13,17.49-88.61,29.95-161.88,39-225.05,7.41-51.82,14.03-96.28,19.1-134.54,4.52-33.89,7.82-62.94,9.4-87.97,.19-12.36,.32-24.16,.44-34.43,.17-10.4,.34-19.16,.63-25.29l-34.41,22.02-36.2,23.14s51.35,46.7,38.74,134.99c-12.6,88.32-43.42,320.75-60.98,333.26h0Zm0,0" style="fill:#962b2a; fill-rule:evenodd;"/><path d="M1493.4,279.8s-54.89-8.7-73.31,9.63c-22.56,22.43-64.93,151.2-63.25,165.86,.63,5.65,22.92,3.02,30.55-4.97,38.06-39.92,92.62-140.67,106.02-170.52h0Zm0,0" style="fill:#f9ddbf; fill-rule:evenodd;"/><path d="M1386.81,639.29c40.95,10.62,232.11,31.65,233.77-16.21,.38-11.69,0-25.8-.93-41.05-2.86-47.31-10.62-105.75-14.35-137.91-1.69-14.73,3.98-80.75-.39-116.73-.64-5.32-1.47-10.01-2.62-13.77-8.26-27.15-45.36-34.5-64.41-35.14l-57.46-1.96s-59.34,66.31-67.59,86.66c-8.28,20.34-10.98,90.08-17.39,123.85-6.41,33.76-28.56,147.09-8.63,152.26h0Zm0,0" style="fill:#f9ddbf; fill-rule:evenodd;"/><path d="M1499.69,477.47s31.96,98.14,119.97,104.56c-2.86-47.31-10.62-105.75-14.35-137.91-1.69-14.73,3.98-80.75-.39-116.73-1.12,.22-2.19,.87-3.37,1.09-96.89,18.74-110.66,128.53-101.87,148.98h0Zm0,0" style="fill:#eac3a2; fill-rule:evenodd;"/><path d="M1359.6,457.73s57.71,18.9,128-11.43c0,0,19.12-1.83,28.62,.61,0,0-2.02-18.97-11.33-24.16-9.27-5.17-49.23,6-61.2,4.39-26.09-3.63-71.57-6.42-84.09,30.59h0Zm0,0" style="fill:#f1a264; fill-rule:evenodd;"/><path d="M1411.01,413.53s-5.39-46.85,12.94-75.13c0,0-6.49-2.22-11.14,5.14-4.61,7.35-37.04,76.99-21.6,82.1,15.41,5.14,19.8-12.1,19.8-12.1h0Zm0,0" style="fill:#eac3a2; fill-rule:evenodd;"/><path d="M1495.23,421.4c.83,0,27.25,3.43,31.93,6.71,4.69,3.34,.55,14.86-8.25,15.98-8.83,1.09-23.69-22.69-23.69-22.69h0Zm0,0" style="fill:#f1a264; fill-rule:evenodd;"/><path d="M1567.44,439.15s-75.23-2.76-143.49-15.99c0,0-12.49,.13-11.01,11.04,1.47,10.88,118.3,71.86,144.01,60.11l10.5-55.16Zm0,0" style="fill:#ffb27d; fill-rule:evenodd;"/><path d="M1423.95,423.17s-8-9.63-12.94-9.63-17.87,6.36-19.8,12.1c-1.93,5.81,15.3,1.67,21.73,8.57,6.45,6.87,11.01-11.04,11.01-11.04h0Zm0,0" style="fill:#f8b57d; fill-rule:evenodd;"/><path d="M1537.89,278.49s63.22,.16,72.49,22.85c16.86,41.5-38.77,179.06-53.44,192.98-6.32,6.01-35.56-3.43-35.56-43.07,0-20.54,1.49-140.6,16.5-172.76h0Zm0,0" style="fill:#f9ddbf; fill-rule:evenodd;"/><path d="M1591.37,1184.25s-5.67,11.07-18.22,13.8c-7.93,1.7-14.69,5.84-18.9,11.59-3.56,4.88-.14,11.75,5.91,11.75h63.76c5.44,0,9.67-4.65,9.12-10.08-.48-4.72-.96-10.21-1.19-14.44-.47-9.18-9.69-16.59-9.69-16.59l-30.79,3.98Zm0,0" style="fill:#1d385d; fill-rule:evenodd;"/><path d="M1576.95,1023.49c-2.67,48.46,3.94,158.64,3.94,158.64,0,0,4.43,12.29,32.51,15.21,15.02,1.57,28.57-2.31,28.57-2.31,5.64-26.09,10.9-51.03,15.72-74.68,34.64-170,48.14-274.99,48.14-274.99l-136.75-31.81s5.99,95.97,7.73,161.44c.58,20.41,.71,37.87,.14,48.49h0Zm0,0" style="fill:#264181; fill-rule:evenodd;"/><path d="M1569.08,813.56s5.99,95.97,7.73,161.44l80.88,145.35c34.64-170,48.14-274.99,48.14-274.99l-136.75-31.81Zm0,0" style="fill:#1d385d; fill-rule:evenodd;"/><path d="M1706.57,593.78s52.92-24.11,92.97-3.02c40.06,21.05,15.58,195.01-41.68,211.89,0,0-107.29,34.28-51.29-208.88h0Zm0,0" style="fill:#264181; fill-rule:evenodd;"/><path d="M1553.48,854.12c.17-.25,.32-.48,.55-.71,2.17-3.3,6.91-15.24,6.91-15.24l8.61,11.23c.23,.25,3.59-2.41,3.79-2.12l-.83,29.08-8.54-1.99c-.39-.09-.75-.26-1.06-.39-1.06-.47-1.97-1.25-2.65-2.27l-6.89-10.94c-1.32-2.09-1.19-4.68,.1-6.65h0Zm0,0" style="fill:#ea9554; fill-rule:evenodd;"/><path d="M1592.95,566.76s-16.88,.03-26.93,23.72c-20.87,49.1-11.81,155.11-10.57,170.29,0,0-7.15,30.14,3.51,82.26l13.87,8.22s21.37-205.95,18.77-226.3c-2.64-20.35,1.35-58.18,1.35-58.18h0Zm0,0" style="fill:#ea9554; fill-rule:evenodd;"/><path d="M1702.33,1184.25s-5.65,11.07-18.22,13.8c-7.9,1.7-14.67,5.84-18.91,11.59-3.53,4.88-.1,11.75,5.94,11.75h63.74c5.42,0,9.66-4.65,9.12-10.08-.46-4.72-.98-10.21-1.2-14.44-.46-9.18-9.7-16.59-9.7-16.59l-30.77,3.98Zm0,0" style="fill:#1d385d; fill-rule:evenodd;"/><path d="M1658.01,372.45c13.61,0,30.75,5.88,39.92,14.8,9.76,9.5,19.93,9.95,27.15,21.18,7.54,11.65,12.2,23.78,8.4,40.21-4.1,17.94-3.27,35.3-14.53,48.46-5.58,6.51-14.67,7.29-21.02,13.26-11.62,10.98-24.84,14.47-39.92,14.47-28.47,0-46.15-16.82-60.72-37.84-11.65-16.82-9.33-28.18-12.08-42.56-8.62-45.25,29.15-71.99,72.8-71.99h0Zm0,0" style="fill:#b5453c; fill-rule:evenodd;"/><path d="M1617.96,555.01l54.37,27.79,10.88-37.71s-6.93-13.07-10.04-34.44c-1.32-8.99-1.97-19.48-1.13-31.07l-44.29,22.69s1.03,4.11,1.76,10.15c.74,6.54,1.06,15.34-.78,23.71-1.6,7.19-4.81,14.02-10.78,18.87h0Zm0,0" style="fill:#ffb27d; fill-rule:evenodd;"/><path d="M1743.89,828.33s10.33,137.01,8.06,355.35c0,0-12.49,6.58-27.5,8.06-28.08,2.79-34.95-8.34-34.95-8.34,0,0-28.68-106.55-35.87-154.6-6.62-44.23-50.08-203.99-50.08-203.99l140.35,3.53Zm0,0" style="fill:#264181; fill-rule:evenodd;"/><path d="M1582.01,558.83c4.81-2.27,20-8.35,42.81-12.1-.26,7.83,1.86,15.12,15.56,16.91,18.24,2.38,34.57-10.08,42.82-18.55,0,0,12.88,1.38,27.86,4.66,7.54,1.63,15.57,3.76,22.79,6.45,8.76,3.21,16.34,7.26,20.38,12.2v.03c14.07,17.21,37.16,69.1,37.16,69.1,0,0-38.48,14.25-48.17,22.59l-.23,1.83-6,50.01,17.91,99.52c.15,.86,.26,1.74,.26,2.6,0,6.65-4.56,12.62-11.26,14.25,0,0-1.51,.23-4.37,.64-19,2.67-96.11,11.88-156.62-4.56-13.58-3.69-22.56-16.66-21.41-30.71l9.85-123.72c-5.26-.93-11.33-1.86-16.26-2.44-4.11-.44-7.42-.57-8.8-.19,0,0,6.83-96.61,35.72-108.51h0Zm0,0" style="fill:#f49640; fill-rule:evenodd;"/><path d="M1696.13,742.44c.78,34.7,23.54,75.52,43.4,86.53,2.82-.42,4.37-.64,4.37-.64,6.71-1.63,11.23-7.61,11.23-14.25,0-.86-.07-1.73-.22-2.6l-17.91-99.52,6-49.97c-.29-.9-.45-1.35-.45-1.35,0,0-47.76,20.44-46.42,81.8h0Zm0,0" style="fill:#ea7718; fill-rule:evenodd;"/><path d="M1555.09,667.53c5.03,.58,16.3,2.44,16.3,2.44l5.68-51.83s-19.03,36.52-21.98,49.39h0Zm0,0" style="fill:#ea7718; fill-rule:evenodd;"/><path d="M1751.69,793.7l-4.65-25.84c-78.82-114.05-84.8-134.54-49.33-185.72,10.14-14.67,28.6-23.84,36.14-25.93-7.22-2.69-15.24-4.81-22.79-6.42-7.47,3.5-14.35,6.94-19.67,11.59-108.22,93.65,60.31,232.33,60.31,232.33h0Zm0,0" style="fill:#264181; fill-rule:evenodd;"/><path d="M1705.25,685.51c-1.95-.16-10.47-4.43-10.47-4.43,0,0-4.26-31.61-35.13-33.76,0,0-12.86,.06-10.21,8.85,2.63,8.79,2.88,4.97,6.35,17.43,3.44,12.48,12.4,21.95,21.96,22.53l9.76,2.63s22.87-12.9,17.74-13.25h0Zm0,0" style="fill:#f8b57d; fill-rule:evenodd;"/><path d="M1694.78,681.08s51.81,4.68,59.45,8.12c0,0-4.2-11.4-11.68-28.56,6.77-6.65,28.97-16.53,43.68-21.06,11.21,28.57,15.5,56.88,9.21,84.19-.67,2.86-3.21,4.95-6.16,5.11-16.56,.77-71.58,.48-111.49-33.09l17-14.7Zm0,0" style="fill:#ffb27d; fill-rule:evenodd;"/><path d="M1628.73,536.14c25.17-.71,44.43-25.48,44.43-25.48l-43.66,1.77c.74,6.54,1.06,15.34-.78,23.71h0Zm0,0" style="fill:#ea9554; fill-rule:evenodd;"/><path d="M1626.32,520.93s55.66,6.77,56.85-32.44c1.19-39.19-22.02-64.61-37.49-64.33-30.87,.58-35.98,13.07-39.54,26.06-3.59,13-5.42,67.94,20.18,70.7h0Zm0,0" style="fill:#ffb27d; fill-rule:evenodd;"/><path d="M1631.92,424.55s47.53-.03,36.62,32.61c-6.9,20.57,16.01,23.79,16.01,23.79l11.04-33-6.93-25.68-56.74,2.28Zm0,0" style="fill:#b5453c; fill-rule:evenodd;"/><path d="M1150.56,1162.49s2.19,18.81,2.19,22.02v3.18l-1.59,3.24-.6,1.28,11.23,15.82s45.25,.67,46.25,.67-6.07-10.94-6.07-10.94c0,0-14.92-11.26-17.62-19.16-2.73-7.89,2.25-24.36,2.25-24.36l-36.04,8.25Zm0,0" style="fill:#ffb27d; fill-rule:evenodd;"/><path d="M932.65,1049.84s-16.08,9.99-18.62,11.97l-2.47,2.02-1.57,3.24-.63,1.29-19.36,1s-28.66-35.02-29.27-35.79c-.6-.76,8.22,1.19,8.22,1.19,0,0,18.1,2.44,25.93-.39,7.9-2.79,23.79-18.45,23.79-18.45l13.99,33.92Zm0,0" style="fill:#ffb27d; fill-rule:evenodd;"/><path d="M1078.96,873.26l-173.43,147.69,26.73,37.81s178.22-110.67,187.56-111.91c9.31-1.25,16.88,3.05,18.64,9.85,1.77,6.8,6.23,211.02,6.23,211.02h46.34l24.14-257.13-136.22-37.33Zm0,0" style="fill:#bc503a; fill-rule:evenodd;"/><path d="M1328.85,662.56c12.8-8.4,42.97-40.76,53.18-51.77,.14-1.28,1.09-8.79,9.31-18.29,5.78-6.71,10.17-22.05,13.99-17.68,3.82,4.33-5.66,16.5-1.32,16.6,4.3,.06,25.77-24.04,29.21-20.09,3.43,3.94-18.33,25.38-14.43,25.41,3.84,.1,21.53-21.6,26.4-16.04,4.84,5.55-23.17,23.62-20.56,26.58,2.59,2.98,19.99-8.83,23.91-4.34,3.9,4.46-24.5,15.02-22.24,15.05,2.27,.03,18.67-.42,18.8,2.76,.12,3.56-41.53,9.14-46.63,15.31-10.85,17.34-30.23,48.94-49.84,62.84-24,17.01-79.46,53.05-79.46,53.05l-27.54-35.59s72.02-43.81,87.23-53.79h0Zm0,0" style="fill:#ffb27d; fill-rule:evenodd;"/><path d="M1404.01,599.07c1.07,2.09,1.53,4.37,1.67,6.68-.1,.39,.93,7.83-5.41,13.48,2.46-4.59,5.2-9.73,3.75-20.16h0Zm0,0" style="fill:#f18d81; fill-rule:evenodd;"/><path d="M1074.6,623.63c-10.21-11.49-30.84-50.58-37.81-63.9,.26-1.25,1.26-8.73-4.16-20.05-3.85-8.03-4.07-23.94-8.88-20.77-4.81,3.21,1.11,17.46-3.08,16.4-4.21-1.06-18.59-29.95-22.95-27.06-4.37,2.88,11.03,29.27,7.3,28.34-3.75-.93-15.14-26.54-21.3-22.43-6.14,4.11,16.21,28.84,12.9,31.06-3.3,2.18-17-13.77-21.95-10.46-4.94,3.31,19.74,20.89,17.53,20.35-2.21-.55-17.91-5.27-18.84-2.25-1.09,3.41,37.65,19.68,40.95,26.96,5.98,19.55,16.4,55.2,31.71,73.72,18.71,22.66,62.81,71.96,62.81,71.96l35.88-27.16s-58.03-61.14-70.09-74.71h0Zm0,0" style="fill:#ffb27d; fill-rule:evenodd;"/><path d="M1018.63,542.69c-1.58,1.77-2.61,3.82-3.35,6,0,.39-2.95,7.31,1.7,14.44-1.19-5.1-2.47-10.75,1.65-20.44h0Zm0,0" style="fill:#f18d81; fill-rule:evenodd;"/><path d="M1151.24,704.7c5.23-7.83,14.22-12.23,23.59-11.58,27.54,1.86,83.38,6.29,88.68,11.58,7.07,7.06,28.25,53.09,8.06,117.62-20.16,64.54-31.27,57.8-47.7,57.8s-94.13-36.62-94.13-36.62l21.5-138.8Zm0,0" style="fill:#264d82; fill-rule:evenodd;"/><path d="M1103.68,649.88l-32.37,42.24,40.17,59.82s-3.75,44.45-9.57,58.28c-5.81,13.87-39.32,70.83-39.32,70.83,0,0,81.42,49.91,161.05,42.62,0,0,22.47-115.45,28.76-126.55,6.31-11.11,67.04-66.05,67.04-66.05l-29.46-47.66-50.93,28.25s-93.07-15.05-97.56-19.54c-4.46-4.46-37.81-42.24-37.81-42.24h0Zm0,0" style="fill:#699dee; fill-rule:evenodd;"/><path d="M1208.72,563.51s-31.45-16.65-42.17,10.95c0,0-28.24-2.86-23.36,26.35,0,0-28.4,14.32-10.44,51.13,0,0-7.9,34.6,32.61,36.82,0,0,6.03,12.23,24.51,9.36,18.49-2.82,23.21-7.7,23.21-7.7,0,0,32.78,9.56,42.69-20.03,0,0,22.5-5.39,7.42-34.28,0,0,19.64-37.45-14.96-48.74,0,0-4.04-38.32-39.51-23.85h0Zm0,0" style="fill:#233862; fill-rule:evenodd;"/><path d="M1221.4,644.71c-2.53,7.09-.71,14.28,4.11,16.02,4.81,1.7,10.79-2.67,13.35-9.79,2.54-7.12,.71-14.28-4.11-16.01-4.82-1.73-10.77,2.63-13.35,9.78h0Zm0,0" style="fill:#ffb27d; fill-rule:evenodd;"/><path d="M1136.64,627.19c-.35,7.57,3.51,13.9,8.61,14.15,5.13,.25,9.56-5.71,9.92-13.25,.35-7.58-3.51-13.9-8.61-14.13-5.09-.26-9.56,5.68-9.92,13.22h0Zm0,0" style="fill:#ffb27d; fill-rule:evenodd;"/><path d="M1172.58,677.29c0,.48-4.07,18.07-6.26,27.34-.77,3.43,.92,6.96,4.17,8.47,8.64,3.92,25.64,9.44,37.4-1.22,1.06-.96,1.63-2.34,1.57-3.82l-1.41-41.89-35.46,11.11Zm0,0" style="fill:#ffb27d; fill-rule:evenodd;"/><path d="M1170.4,687.11c9.15,4.62,20.64,4.69,33.54-2.86,1.63-.97,3.14-1.99,4.63-3.04l-.52-15.03-35.46,11.11c0,.26-.93,4.49-2.18,9.82h0Zm0,0" style="fill:#f18d81; fill-rule:evenodd;"/><path d="M1197.74,580.59s15.47,4.11,24.55,19.16c9.08,15.06,14.08,58.57-18.36,77.61-32.45,19.06-56.1-10.43-55.49-38.32,.64-27.89,13.02-63.55,49.3-58.45h0Zm0,0" style="fill:#ffb27d; fill-rule:evenodd;"/><path d="M1144.72,693.59c-14.95,11.3-30.58,69.23-36.49,84.38l-4.77,27.77,60.81-107.45s-16.3-7.13-19.55-4.69h0Zm0,0" style="fill:#3c6baf; fill-rule:evenodd;"/><path d="M1218.61,708.23s-1.82,71.41,3.53,95.92c5.42,24.56,19.48,33.13,19.48,33.13l6.9-28.56s-6.9-63.04-9.47-97.05c-.39-5.17-20.44-3.43-20.44-3.43h0Zm0,0" style="fill:#3c6baf; fill-rule:evenodd;"/><path d="M1142.32,1219.59c-6.9-.87,5.04-24.81,8.85-28.66l50.81,6.84s24.46,11.33,30.27,17.14c1.37,1.38,1.57,3.79-4.44,4.69-19.16,2.86-70.15,1.93-85.49,0h0Zm0,0" style="fill:#f49640; fill-rule:evenodd;"/><path d="M892.56,1092.17c5.96,3.59,16.82-19.71,17.43-25.1l-41.05-32.31s-31.61-9.09-38-2.7c-5.81,5.81,48.08,51.96,61.62,60.11h0Zm0,0" style="fill:#f49640; fill-rule:evenodd;"/><path d="M390.12,750.88c-93.08-39.21-116.86,28.86-178-1.09-3.51,.42-10.52,4.07-21.01,11.01C5.79,957.06-39.61,1095.35,32.7,1193.4c110.65,149.91,358.2,129.12,464.04,51.48,139.39-102.38,19.26-358.59-106.62-494h0Zm-95.57-176.71c10.94,24.17,27.78-67.75,50.09-72.41,38.03-7.86-20.31,90.77,54.21,81.9,25.07-2.95,87.84,6.68,83.05,45.45-4,32.35-62.51,57.61-106.87,95.84-58.15-35.08-114.47,22.81-149.87,6.64,2.21-7.51-110.6-127.22,20.47-221.26,42.82-18.07,33.77,22.25,48.93,63.84h0Zm0,0" style="fill:#becce7; fill-rule:evenodd;"/><path d="M375.26,951.79c-4.91-9.92-10.85-17.84-17.84-23.84-7-6.06-14.73-10.69-23.16-13.87-8.48-3.24-17.28-5.49-26.55-6.8v-28.24h-41.23v28.24c-7.58,.9-15,2.44-22.35,4.62-7.28,2.11-14.12,4.97-20.51,8.57-6.32,3.53-11.97,7.83-16.82,12.94-4.88,5.03-8.74,10.91-11.48,17.64-2.77,6.71-4.17,14.31-4.21,22.86,.07,10.72,1.77,19.73,5.07,27.18,3.37,7.41,7.97,13.55,13.92,18.3,5.88,4.75,12.72,8.54,20.51,11.36,7.74,2.82,16.08,5.04,25.01,6.57,8.95,1.54,18.05,2.86,27.41,3.86,7.64,.84,14.83,2.02,21.66,3.6,6.87,1.5,12.93,3.59,18.23,6.06,5.36,2.53,9.53,5.68,12.61,9.47,3.05,3.72,4.62,8.25,4.69,13.67-.07,6.29-1.64,11.71-4.69,16.21-3.01,4.52-7.19,8.15-12.42,10.97-5.32,2.86-11.3,4.91-18.01,6.26-6.72,1.28-13.74,1.96-21.12,1.96-6.78,0-13.51-.8-20.24-2.41-6.72-1.64-13-3.88-18.87-6.84-5.95-3.02-11.05-6.58-15.51-10.82-4.43-4.14-7.73-8.89-10.02-14.08l-38.31,16.27c3.85,8.95,8.77,16.66,14.67,23.27,5.94,6.61,12.62,12.2,20.13,16.66,7.48,4.53,15.49,8.02,24.1,10.59,8.57,2.54,17.39,4.2,26.55,5.04v30.81h41.23v-32.45c10.17-.74,19.8-2.82,29.01-6.23,9.22-3.43,17.4-8.12,24.6-14.19,7.22-6,12.89-13.26,17.07-21.82,4.12-8.47,6.23-18.26,6.32-29.21-.06-11.42-1.96-21.05-5.61-28.82-3.76-7.9-8.8-14.28-15.22-19.38-6.51-5.03-13.86-9.08-22.27-12.07-8.34-2.99-17.21-5.39-26.57-7.06-9.37-1.67-18.84-3.08-28.43-4.17-6.87-.74-13.48-1.7-19.73-2.8-6.36-1.15-11.97-2.66-16.99-4.65-4.97-2.02-8.92-4.69-11.78-8.07-2.92-3.43-4.4-7.76-4.45-13.05,.05-5.69,1.47-10.44,4.29-14.38,2.83-3.92,6.58-7.1,11.43-9.47,4.79-2.38,10.33-4.01,16.49-5.14,6.16-1.06,12.63-1.64,19.43-1.57,5.65,0,11.3,.64,16.87,1.89,5.56,1.25,10.9,2.99,15.86,5.2,4.98,2.22,9.34,4.91,13.19,7.86,3.85,2.98,6.83,6.22,9.02,9.76l35.05-16.28Zm0,0" style="fill:#fff; fill-rule:evenodd;"/><path d="M212.12,749.79c61.15,29.95,84.92-38.12,178,1.09,9.82-9.82,4.78-18.45-15.09-25.93-59.4-35.86-116.94,25.42-152.18,5.49-4.26,4.85-8.47,10.23-12.61,16.14,.64,1.05,1.28,2.11,1.89,3.21h0Zm0,0" style="fill:#aabcdd; fill-rule:evenodd;"/><path d="M203.86,743.34c10.71,1.95,17.71-1.73,21.01-11.01-.61-1.09-1.25-2.15-1.85-3.2-13.42-22.31-29.7-38.97-48.79-49.97-19.26-11.08-41.43-16.43-66.5-16.08-12.42,4.52-12.77,10.87-3.3,22.08,19.67,.61,36.45,5.2,50.32,13.74,8.99,5.52,16.78,12.74,23.33,21.6-16.85-2.98-32.47-2.21-46.86,2.28-12.32,3.89-23.72,10.47-34.18,19.87-3.06,3.08-1.69,6.71,4.01,10.79,.78,.57,1.67,1.15,2.63,1.73,22.31-16.95,55.68-20.93,100.18-11.81h0Zm0,0" style="fill:#aabcdd; fill-rule:evenodd;"/></svg>