<?xml version="1.0" encoding="UTF-8"?><svg id="a" xmlns="http://www.w3.org/2000/svg" viewBox="0 0 1936.91 1421.15"><path d="M1041.05,1333.11c367.7,0,665.79,19.71,665.79,44.02s-298.08,44.02-665.79,44.02-665.78-19.71-665.78-44.02,298.08-44.02,665.78-44.02Z" style="fill:#c4d1eb; fill-rule:evenodd;"/><path d="M1936.91,504.55h-912.62c6.56-27.73,31.45-48.36,61.18-48.36,1.42,0,2.86,.06,4.28,.17,14.4-35.28,49.07-60.16,89.55-60.16,17.71,0,34.28,4.78,48.55,13.08,17.41-57.37,70.7-99.15,133.77-99.15,12.82,0,25.26,1.76,37.06,5,30.53-67.41,98.38-114.29,177.19-114.29,93.47,0,171.52,65.97,190.17,153.9,1.59-.06,3.14-.12,4.72-.12,59.88,0,109.29,44.78,116.59,102.66,24.43,4.58,43.89,23.26,49.56,47.28Z" style="fill:#e0e8f5; fill-rule:evenodd;"/><path d="M687,1029.39H0c4.94-20.88,23.68-36.41,46.06-36.41,1.07,0,2.15,.04,3.22,.12,10.85-26.55,36.94-45.28,67.41-45.28,13.34,0,25.81,3.59,36.55,9.84,13.1-43.19,53.22-74.64,100.7-74.64,9.65,0,19.02,1.32,27.9,3.76,22.99-50.74,74.06-86.03,133.38-86.03,70.36,0,129.12,49.67,143.16,115.85,1.19-.04,2.37-.08,3.55-.08,45.08,0,82.27,33.71,87.77,77.28,18.39,3.45,33.04,17.5,37.3,35.59Z" style="fill:#e0e8f5; fill-rule:evenodd;"/><path d="M1395.2,183.24c8.6-23.36,17.35-46.73,43.63-61.65,21.25-12.02,44.58-11.86,65.28-1.84,58.61,28.41,32.28,80.12,70.34,134.61,16.29,23.24,40.65,35.15,52.85,59.58,22.09,44.05,2.87,115.78-56.33,156.15-144.99,98.92-224.59-77.53-225.01-115.55-.33-28.27,43.7-156.26,49.24-171.3Z" style="fill:#20386f; fill-rule:evenodd;"/><path d="M1209.15,629.33c17.28-5.42,17.53-2.25,19.72-3.07,2.58-.85,25.18-30.12,25.18-30.12,0,0,67.03-85.71,70.47-90.44l27.09-109.89,57.79-1.46s-32.63,118.67-35.41,124.59c-2.76,5.83-106.8,110.93-115.68,120.54,0,0-6.38,15.36-10.69,24.89-4.33,9.51-12.62,16.53-14.26,19.05-.25,.32-6.12,8.34-16,16.09-8.48,6.81-3.52-3.5-3.52-3.5,0,0,13.49-15.41,12.11-16.26-1.08-.7-7.95,8.15-17.26,15.71-2.4,1.95-4.76,3.82-6.95,5.53-5.75,4.55-10.2,2.33-4.93-3.46,1.86-2.03,5.04-5.29,7.62-7.29,2.8-2.24,4.67-5.17,6.74-7.35,4.1-4.36,7.16-7.55,6.9-7.59-.36-.06-.14-1.54-2.75,.46-3.15,2.37-8.67,8.92-13.57,12.08-2.76,1.8-8.3,5.85-8.3,5.85,0,0-9.75,5.62-10.19,5.11-2.46-2.54,3.36-8.6,7.42-10.46,1.96-2.65,7.92-6.71,7.92-6.71,0,0,10.19-11.1,8.67-12.59-1.26-1.27-30.77,20.47-33.08,17.78-1.87-2.26,6.71-9.23,6.71-9.23,0,0,5.53-3.78,7.26-5.21,2.01-1.65,7.75-7.1,7.75-7.1,0,0,19.01-19.73,17.43-21.06-1.56-1.32-6.91-2.96-8.5-2.14-1.62,.82-3.77,3.88-5.35,4.62-1.61,.82-4.4,.47-5.56-1.41-1.13-1.97,5.11-8.86,5.11-8.86,0,0,5.08-5.55,10.09-7.09Z" style="fill:#f9af79; fill-rule:evenodd;"/><path d="M1530.18,473.74c4.18-3.49,61.18-52.99,86.6-75.07,0,0-25.37-19.03-41.08,8.71-15.69,27.71-45.52,66.36-45.52,66.36Z" style="fill:#233761; fill-rule:evenodd;"/><path d="M1439.96,477.37s6.2,21.63,36.5,59.39c35.05-.51-36.5-59.39-36.5-59.39Z" style="fill:#233761; fill-rule:evenodd;"/><path d="M1292.8,1054.49c9.66,24.67,59.08,75.49,110.02,123.46,60.84,57.29,123.82,110.57,123.82,110.57,0,0,28.81,8.79,16.25-33.57,0,0-69.44-127.59-99.27-165.25-8.51-10.77-17.3-20.6-25.56-29.14-20.62-21.41-37.71-34.77-37.71-34.77,0,0,3.91-6.27,10.25-17.12,31-53.09,119.96-215.62,92.48-287.76-33.06-86.93-115.28-126.07-115.28-126.07,0,0-26.1,109.98-48.09,223.05-20.26,104.05-37.04,210.68-26.91,236.6Z" style="fill:#223f81; fill-rule:evenodd;"/><path d="M1319.71,817.89c15.13,69.64,41.36,168.14,70.89,190.78,31-53.09,119.96-215.62,92.48-287.76-33.06-86.93-115.28-126.07-115.28-126.07,0,0-26.1,109.98-48.09,223.05Z" style="fill:#20386f; fill-rule:evenodd;"/><path d="M1402.82,1177.95c60.84,57.29,123.82,110.57,123.82,110.57,0,0,28.81,8.79,16.25-33.57,0,0-69.44-127.59-99.27-165.25-8.51-10.77-17.3-20.6-25.56-29.14,.98,32.58,.05,87.83-15.24,117.38Z" style="fill:#20386f; fill-rule:evenodd;"/><path d="M1388.53,638.43l5.75-21.19c40.43,17.5,159.4-8.1,159.4-8.1,0,0,35.45,42,17.2,127.21-8.91,41.61-40.42,219.27-53.3,271.31-4.69,18.86-8.32,32.23-9.77,37.59l-.03,.05c-.46,1.62-.08,3.26,.53,4.86,5.49,13.56,9.63,27.45,12.61,41.5,29.45,137.86-51.18,290.15-51.18,290.15l-13.79-8.13s-5.36-183.71-19.64-266.64c-2.43-14.08-5.11-25.27-8.07-32.13-8.62-20.07-14.68-51.6-18.92-88.69-7.98-70.1-9.41-159.93-8.95-229.05-1.34-.14-11.84-118.74-11.84-118.74Z" style="fill:#223f81; fill-rule:evenodd;"/><path d="M1571.06,660.91c16.44-24.89-39.99-126.58-37.97-136.18,3.94-18.89,13.22-39.82,22.33-58.63,9.12-18.81,18.05-35.53,21.23-46-2.93-4.07-5.8-7.92-8.46-11.52-4.04-5.56-7.57-10.67-9.82-15.43-2.51-5.19-3.58-10.05-2.38-14.71,.92-3.53,2.18-7.08,3.69-10.55,.7-1.61,1.45-3.24,2.26-4.82,8.4-16.83,20.96-30.53,20.96-30.53-19.87-12.72-51.18-19.2-51.46-18.27-2.35-.76-4.39-1.32-6.05-1.73-1.14-.31-2.32-.59-3.49-.84-3.94-.95-7.9-1.75-11.34-2.4-7.1-7.14-15.65-33.69-13.08-72.76l-3.46,.45-57.88,7.82s.19,18.11-.78,35.04c-.81,13.26-2.32,25.82-5.22,28.58-4.49,.36-7.2,.61-7.2,.61l-.02,.05-.08,.12c-3.26,.27-6.27,.56-9.01,.87,0,0-.21,.02-.64,.05-5.11,.59-9.33,1.23-12.75,1.85l-.7,.13c-9.89,1.81-13.24,3.52-13.24,3.52v.17c.48,18.25-28.94,50.15-26.91,91.39,.09,1.57,15.08,109.67,14.99,111.27-1.19,30.81-16.29,117.52-16.29,117.52-13.76,26.82,203.95,50.54,212.79,24.95Z" style="fill:#f9af79; fill-rule:evenodd;"/><path d="M1436.14,244.83s.19,18.08-.81,35.02c32.06,1.07,50.75-27.07,58.69-42.84l-57.88,7.82Z" style="fill:#ed7d57; fill-rule:evenodd;"/><path d="M1424.47,260.23s75.63,5.89,78.59-41.28c2.93-47.16,14.67-78.16-33.49-83.91-48.17-5.75-58.69,11.67-63.49,27.16-4.83,15.52-1.23,95.3,18.39,98.04Z" style="fill:#f9af79; fill-rule:evenodd;"/><path d="M1409.93,136.09c12.56-13.44,21.21-9.79,25.92-5.21,42.75-20.23,67.37,15.04,67.37,15.04,2.98,34.15,26.2,55.03,26.2,55.03,0,0-14.32,7.68-45.63-2.46-9.57-3.09-17.8-10.52-24.67-19.35,11.55,22.38,28.13,39.01,28.13,39.01-36.95-19.89-48.95-73.71-50.15-79.37-4.86,3.84-14.53,12.3-17.86,20.98-4.5,11.79-7.7,36.4-14.87,35.11,0,0-13.32-38.57,5.55-58.77Z" style="fill:#20386f; fill-rule:evenodd;"/><path d="M1379.38,1386.16h117.37s4.38-18.73-3.32-31.49c-6.84-11.25-2.62-18.88,.33-28.49-5.33,2.18-11.69,5.64-19.25,5.22-5.87-.36-15.02-4.63-20.46-7.79-5.05,5.75-23.7,31.93-30.46,36.78-7.67,5.5-41.89,3.55-44.22,25.76Z" style="fill:#0e2952; fill-rule:evenodd;"/><path d="M1553.82,1383.39l44.17-108.75s-15.68-11.11-30.38-8.74c-13.01,2.07-17.98-2.79-24.73-10.96,.02,5.75-.73,12.87-4,19.69-2.51,5.31-7.28,10.05-12.25,13.88,3.43,6.86,18,36.11,19.95,44.2,2.23,9.18-12.45,40.14,7.23,50.68Z" style="fill:#0e2952; fill-rule:evenodd;"/><path d="M1374.57,518.48c.04-.9-4.6-34.88-8.7-65.05-9.1-1-20.09-3.15-29.61-7.59,.53-13.17,9.3-125.81,56.62-132.17,2.26-.61,4.61-1.11,6.84-1.57,.21-.02,.44-.08,.7-.13,5.8-1.09,10.96-1.65,12.75-1.81,.43-.06,.64-.08,.64-.08,0,0-14.12,40.1-13.84,44.79,.27,4.71,45.62,6.29,75.44,6.67,29.58,.4,46.24-49.08,46.49-49.84,1.17,.25,2.35,.53,3.49,.84,1.67,.41,41.22,6.45,57.51,20.03,0,0-12.56,13.67-20.96,30.51-.81,1.58-1.56,3.21-2.26,4.86-1.51,3.43-2.77,6.98-3.69,10.51-1.19,4.66-.13,9.52,2.38,14.71,2.25,4.77,5.78,9.88,9.82,15.43,2.66,3.6,5.53,7.45,8.46,11.52-1.08,3.61-2.87,7.96-5.08,12.84v.03c-4.27,9.35-10.16,20.79-16.16,33.13-9.1,18.81-18.39,39.76-22.33,58.65-2.02,9.58,54.42,111.27,37.97,136.16-2.62,7.57-23.49,10.83-51.21,10.96-66.11,.34-171.26-17.02-161.58-35.91,0,0,15.1-86.71,16.29-117.49Z" style="fill:#6d96ce; fill-rule:evenodd;"/><path d="M1519.85,671.88c27.71-.14,48.59-3.4,51.21-10.96,16.44-24.89-39.99-126.58-37.97-136.16,3.94-18.89,13.22-39.84,22.33-58.65,5.99-12.33,11.89-23.78,16.16-33.13v-.03c-2.35-9.21-3.72-14.58-3.72-14.58,0,0-60.05,69.83-73.84,102.78-10.8,25.84,14.43,113.89,25.84,150.72Z" style="fill:#466fb5; fill-rule:evenodd;"/><path d="M1548.4,624.52l11.86,20.59c76.38-30.25,125.02-98.4,125.02-98.4,2.68-38.7-15.43-83.19-37.12-121.59-3.6-6.34-7.28-12.54-10.99-18.5-15.35,13.12-36.78,30.28-57.18,42.75,3.18,5.24,6.97,11.55,11.08,18.27,16.91,27.9,38.81,63.66,41.66,66.51,4.68,4.71-84.34,90.35-84.34,90.35Z" style="fill:#f9af79; fill-rule:evenodd;"/><path d="M1587.92,476.03c37.61-2.48,65.33-51.4,65.33-51.4-29.36-51.88-70.35-92.1-70.35-92.1-104.23,39.79-11.97,132.28,5.03,143.5Z" style="fill:#6d96ce; fill-rule:evenodd;"/><path d="M1548.4,624.52s-6.41-.93-10.63-4.58c-4.19-3.65-17.53-14.01-18.28-10.8-.81,3.21,9.66,8.18,4.16,8.96-5.5,.79-14.12-2.9-22.75-1.55-8.62,1.3-21.9,21.18-17.83,23.52,4.1,2.38,19.01-5.47,22.94-2.73,3.91,2.73,31.92,18.06,54.28,7.78,22.36-10.26-11.89-20.59-11.89-20.59Z" style="fill:#f9af79; fill-rule:evenodd;"/><path d="M990.17,303.71H77.56c6.56-27.73,31.45-48.35,61.18-48.35,1.42,0,2.86,.06,4.28,.17,14.41-35.28,49.08-60.16,89.55-60.16,17.71,0,34.28,4.78,48.55,13.08,17.41-57.37,70.7-99.15,133.77-99.15,12.83,0,25.27,1.74,37.06,4.99C482.48,46.88,550.33,0,629.13,0c93.46,0,171.52,65.98,190.17,153.9,1.58-.05,3.14-.11,4.72-.11,59.88,0,109.29,44.77,116.59,102.65,24.43,4.58,43.89,23.27,49.55,47.28Z" style="fill:#e0e8f5; fill-rule:evenodd;"/><path d="M600.61,290.45l-.05,8.35s2.27,26.14-29.9,29.95c-32.18,3.82-58.57,3.33-57.69-16.85,2.89-15.61,8.09-39.85,8.3-52.76,.08-4.8-.25-9.9-1.14-15.65l62.34-1.24,18.37,3-.23,45.2Z" style="fill:#f9af79; fill-rule:evenodd;"/><path d="M600.84,245.25l-.23,45.2c-6.62,3.08-14.09,4.96-22.48,4.96-28.66,0-47.19-21.01-56.86-36.27,.08-4.8-.25-9.9-1.14-15.65l62.34-1.24,18.37,3Z" style="fill:#e28e51; fill-rule:evenodd;"/><path d="M515.36,233.46c7.23,38.93,57.47,37.65,79.18,35.2,6.1-.68,9.95-1.46,9.95-1.46,6.89-1.84,10.73-12.69,12.52-26.9,3.54-28.13-.94-69.42-5.68-79.98-7.16-15.89-20.62-33.08-71.22-20.68-50.6,12.41-34.04,43.93-24.75,93.81Z" style="fill:#f9af79; fill-rule:evenodd;"/><path d="M474.24,1386.16h71.19c-.54-3.71-2.34-15.08-5.68-25.54-1.15-3.66-2.5-7.18-4.03-10.26-6.92-13.82-50.89-5.02-50.89-5.02,0,0-4.09,3.49-7.28,16.85-1.41,5.9-2.66,13.71-3.31,23.97Z" style="fill:#172b57; fill-rule:evenodd;"/><path d="M689.37,1363.7c.19,9.68,1.41,18.85,4.92,22.46h140.81c-1.78-5.08-6.85-12.75-21.3-15.1-16.43-2.65-42.04-10.55-56.98-26.37-5.32-5.6-9.31-12.23-11.04-19.97-6.63-29.5-54.77,9.04-54.77,9.04,0,0-1.95,15.52-1.62,29.94Z" style="fill:#172b57; fill-rule:evenodd;"/><path d="M595.71,1044.88c1.96,10.8,3.2,19.66,3.54,26.01,4.47,87.32,73.5,286.96,85.84,291.6,19.11,7.21,49.19-8.11,64.92-13.12,6.53-2.09,10.93-8.66,9.46-15.33-34.16-157.14-46.74-383.42-51.31-517.37-2.31-67.49-13.88-114.1-13.88-114.1,0,0-168.35-44.91-169.34,11.91-.89,50.27,55.77,247.46,70.77,330.39Z" style="fill:#223f81; fill-rule:evenodd;"/><path d="M595.71,1044.88l112.45-228.21c-2.31-67.49-13.88-114.1-13.88-114.1,0,0-168.35-44.91-169.34,11.91-.89,50.27,55.77,247.46,70.77,330.39Z" style="fill:#172b57; fill-rule:evenodd;"/><path d="M633.17,714.68l-89.01,644.97s-39.07,9.43-69.47,1.89c0,0-26.05-343.03-23.89-425.96,2.17-82.93-18.69-221.92,4.77-237.25,23.45-15.31,177.59,16.34,177.59,16.34Z" style="fill:#223f81; fill-rule:evenodd;"/><path d="M626.85,123.26s-22.28-1.71-48.54-13.13c-21.32-9.27-48.21,.94-56.95,5.54,.24-1.41,.8-3.33,2.13-5.25,0,0-3.91,2.78-4.5,6.67-.4,.3-.58,.5-.47,.57,0,0-4.45-.81-7.31,.47,0,0,2-.28,2.71,1,.08,.14,.2,.24,.32,.35-33.25,16.07-36.33,68.63-25.62,80.78,12.88,14.63,28.33,47.58,28.33,47.58,0,0,5.62-7.78,3.27-20.66-2.34-12.87,8.79-12.87,22.84-18.73,14.05-5.85,2.34-22.24,14.63-32.19,12.28-9.95,57.34-4.1,56.75-11.7,16.74-6.1,12.41-39.59,12.41-41.31Z" style="fill:#20386f; fill-rule:evenodd;"/><path d="M505.37,323.11l20.49,439.62s171.01,2.8,166.12-35.9c-4.87-38.69-61.62-390.25-61.62-390.25l-124.99-13.46Z" style="fill:#fff; fill-rule:evenodd;"/><path d="M444.33,572.3c10.17,30.51-9.01,132.93-15.85,167.63-1.51,7.33-2.5,11.67-2.5,11.67,23.68,38.52,110.4,38.03,110.4,38.03,16.69-73.72,25.37-191.14,25.37-191.14l-66.57-291.73-83.72,77.4s6.33,47.2,14.17,95.23c6.17,38.03,13.18,76.73,18.69,92.9Z" style="fill:#20386f; fill-rule:evenodd;"/><path d="M750.72,506.75c.16-.17,.16-.5,.16-.66,0-6.34-24.18-20.35-50.36-36.86-.34-.34-.5-.51-.5-.51-.02-.01-.03-.02-.07-.04,.47,13.5,.42,26.73-.37,39.05-1.5,22.85,.16,50.16,2.94,77.98,12.46-19.47,45.76-71.79,48.2-78.96h0Zm-67.97-177.36s.02,.07,.05,.18c4.04,3.93,118.2,114.76,140.31,158.18,22.52,44.03-102.9,131.77-102.9,131.77,0,0-8.09,3.18-13.67,1.93,5.91,48.71,12.54,93.62,8.61,112.79-7.1,34.68-39.17,46.32-39.17,43.63,0-.84-11.72-125.94-18.09-191.23-13.66-139.95-47.85-278.98-47.85-278.98,37.34,3.88,72.72,21.73,72.72,21.73Z" style="fill:#20386f; fill-rule:evenodd;"/><path d="M500.53,306.23c-.21-4.19,19.67-9.99,19.67-9.99,0,0,22.75,31.53,60.21,32.08,0,0-10.67,20.78-23.25,26.16,0,0-55.39-23.34-56.62-48.25Z" style="fill:#d8e8f7; fill-rule:evenodd;"/><path d="M580.41,327.59s19.86-11.78,19.93-24.52c0,0,12.83-1.61,18.41,4.61,0,0,4.71,21.86-1.53,34.56,0,0-28.6-4.35-36.81-14.65Z" style="fill:#d8e8f7; fill-rule:evenodd;"/><path d="M566.93,325.69l26.92-6.45s3.53,.3,3.43,4.69c-.1,4.38-7.58,17.2-10.9,18.22-3.31,1.03-25.82-7.59-19.46-16.46Z" style="fill:#466fb5; fill-rule:evenodd;"/><path d="M503.67,304.07c-.21-4.2,13.23-12.84,13.23-12.84,0,0,26.05,30.43,63.51,30.97,0,0-10.67,20.78-23.25,26.17,0,0-52.26-19.38-53.49-44.29Z" style="fill:#e9f0f9; fill-rule:evenodd;"/><path d="M580.41,322.2s20.09-10.64,20.15-23.4c0,0,12.11,5.34,17.72,11.55,0,0,5.18,13.8-1.06,26.5,0,0-28.6-4.35-36.81-14.65Z" style="fill:#e9f0f9; fill-rule:evenodd;"/><path d="M633.04,625.44c-.91,10.28-5.62,19.85-13.22,26.83l-11.92,10.98c-2.99,2.76-7.7,2.38-10.22-.81l-14.78-18.76c-3.96-5.04-5.81-11.4-5.21-17.77,1.38-14.19,3.96-41.55,6.01-67.94,1.69-21.39,3.02-42.17,3.13-54.81,.32-40.36-7.68-169.05-7.68-169.05l9.66,.5s24.04,49.96,36.62,117.93c3.1,16.73,5.51,34.55,6.69,52.99,0,0,5.04,73.5,.91,119.91Z" style="fill:#6d96ce; fill-rule:evenodd;"/><path d="M633.04,625.44c-.91,10.28-5.62,19.85-13.22,26.83l-11.92,10.98c-2.99,2.76-7.7,2.38-10.22-.81l-14.78-18.76c-3.96-5.04-5.81-11.4-5.21-17.77,1.38-14.19,3.96-41.55,6.01-67.94,26.74-30.04,37.57-71.55,41.73-105.43,3.1,16.73,5.51,34.55,6.69,52.99,0,0,5.04,73.5,.91,119.91Z" style="fill:#466fb5; fill-rule:evenodd;"/><path d="M728.2,626.63c0-11.2-9.86-20.2-20.93-18.51-3.09,.47-5.85,1.74-7.78,4.29-7.61,10.15-14.87,39.69-1.36,41.07,5.51,.55,12.57-3.3,18.01-7.44,5.52-4.19,12.07-10.79,12.07-17.71v-1.7Z" style="fill:#f9af79; fill-rule:evenodd;"/><path d="M428.48,739.93c24.52-25.53,66.89-75.72,65.38-116.94-2-57.71-68.22-143.6-68.22-143.6,6.17,38.03,13.18,76.73,18.69,92.9,10.17,30.51-9.01,132.93-15.85,167.63Z" style="fill:#172b57; fill-rule:evenodd;"/><path d="M429.24,639.54s17.64,8.81,28.34,4.4c10.7-4.4,23.29-7.71,35.24,5.91,11.97,13.6,14.49,23.06,11.97,28.09-2.52,5.04-30.39,3.15-35.03,0-4.63-3.15-11.95-10.9-16.6-9.55-12.79,3.72-23.59-6.06-29.64-13.84-3.63-4.69,6.19-6.96,5.72-15.01Z" style="fill:#f9af79; fill-rule:evenodd;"/><path d="M495.19,306.76s-70.2,7.77-86.74,38.35c-16.56,30.57-102.66,154.48-99.84,205.97,2.81,51.49,117.44,109.22,117.44,109.22,0,0,25.38-10.72,25.77-22.27,.38-11.54-79.24-80.53-74.42-93.41,4.83-12.85,92.51-114.68,100.96-148.25,8.46-33.57,16.84-89.61,16.84-89.61Z" style="fill:#20386f; fill-rule:evenodd;"/><path d="M700.02,468.71s.16,.17,.5,.51c26.18,16.51,50.36,30.51,50.36,36.86,3.51-11.17-30.51-57.88-41.52-67.38-11.17-9.68-9.34,30.02-9.34,30.02Z" style="fill:#172b57; fill-rule:evenodd;"/><path d="M516.9,291.23s53.31,223.22,44.82,307.3c0,0-19.6-89.85-66.74-163.45,0,0,17.2-15.13,16.27-20.72,0,0-12.78-3.78-25.17-1.23,0,0,1.37-96.22,9.1-106.39,7.73-10.16,21.73-15.51,21.73-15.51Z" style="fill:#172b57; fill-rule:evenodd;"/><path d="M600.56,298.8c-1.09-.63,52.81,218.14,57.32,287.83,0,0-5.34-124.38-4.82-160.24,0,0-22.14-11.72-22.14-15.83s23.61-15.23,23.61-15.23c0,0-14.94-76.61-23.11-85.05-8.17-8.44-30.87-11.48-30.87-11.48Z" style="fill:#172b57; fill-rule:evenodd;"/><path d="M903.12,1350.19l29.28,15.17s17.51-22.82,33.17-50.37c10.94-19.31,20.99-40.94,23.46-58.67,5.98-43.05,51.58-113.82,46.81-125.87-4.74-12.07-95.11-32.9-95.11-32.9,0,0-17.67,120.98-29.42,199.19-3.44,22.82-6.35,42-8.19,53.46Z" style="fill:#f9af79; fill-rule:evenodd;"/><path d="M903.12,1350.19l29.28,15.17s17.51-22.82,33.17-50.37c-12.19-.91-33.36-4.58-54.26-18.26-3.44,22.82-6.35,42-8.19,53.46Z" style="fill:#fff; fill-rule:evenodd;"/><path d="M969.67,1125.19s37,52.21,59.43,125.59c5.27,17.28,23.22,38.82,41.38,57.93,17.63,18.57,35.43,34.87,42.04,42.88l29.81-14.36s-10.47-30.06-25.95-57.36c-5.79-10.15-12.24-19.9-19.08-27.6-9.5-10.63-6.38-144.91-15.82-153.76-9.48-8.85-111.8,26.67-111.8,26.67Z" style="fill:#f9af79; fill-rule:evenodd;"/><path d="M1053.6,885.7l-.13,.08,.13-.08Z" style="fill:#f9af79; fill-rule:evenodd;"/><path d="M977.13,931.85l76.34-46.06c-.43-.18-1.97-2.48-7.66-18.99-2.43-7.04-3.75-13.14-4.38-17.99-.07-.48-.1-.95-.17-1.41-.78-7.04-.23-11.1-.23-11.1l-16.71,6.05-30.93,11.2c.37,7.84-.72,13.37-2.4,17.14-4.05,9.21-11.56,9.26-11.76,9.26l-2.11,51.9Z" style="fill:#f9af79; fill-rule:evenodd;"/><path d="M991.01,870.68c29.9,2.56,46.71-16.94,50.43-21.88,.56-.71,.82-1.11,.82-1.11,0,0-.33-.11-.99-.3-2.43-.72-9.01-2.71-16.94-5.05l-30.93,11.2c.37,7.84-.72,13.37-2.4,17.14Z" style="fill:#ed7d57; fill-rule:evenodd;"/><path d="M989.53,859.96s66.38,7.31,67.76-37.61c1.35-44.9,11.15-65.45-34.81-69.45-45.92-4-56.77,12.55-59.48,27.74-8.47,47.45,7.8,77.29,26.52,79.31Z" style="fill:#f7a390; fill-rule:evenodd;"/><path d="M1113.38,707.53c.92-2.08,1.58-3.43,1.58-3.43-.69,.95-1.21,2.11-1.58,3.43Z" style="fill:#d05627; fill-rule:evenodd;"/><path d="M1018.94,774.84c23.52-5.95,14.5,35.68,20.46,32.83,6.65-3.19,18.06-3.14,16.25,4.87-1.81,8.02-4.41,10.9-5.76,15.89-1.35,5.01,0,14.93,5.46,12.94,2.83-1.04,17.81-17.1,26.63-38.62,3.52,13.41,4.65,31.25-3.24,51.28-8.91,22.64,34.9,39.33,63.59,25.91,12.76-5.96,25.2-24.22-6.22-48.71-31.41-24.48,1.32-69.19-21.15-93.59-22.47-24.38-55.89-15.3-55.89-15.3v.02c-44.09-24.03-121.91,2.43-92.48,43.71,5.91,8.31,35.61,13,52.35,8.76Z" style="fill:#20386f; fill-rule:evenodd;"/><path d="M907.13,1212.02s65.32,13.7,96.44,9.48c41.94-5.68,79.11-6.63,118.36-27.8,0,0-20.86-103.6-22.14-108.63-1.84-7.25-12.52-51.88-24.86-103.38,11.54-16.8,22.34-14.22,32.27-49.58-.23-17.06,10.95-43.91-56.63-52.17l-.05,.07c-1.8,1.26-31.56,21.8-49.16,14.25-18.12-7.81-15.8-16.61-15.8-16.61,0,0-11.85-4.79-17.42-3.01-9.59-2.79-14.4-3.69-14.4-3.69-21.17,8.67-42.32,39.48-39.14,60.15l23.29,34.29s-24.09,146.28-30.77,246.64Z" style="fill:#6d96ce; fill-rule:evenodd;"/><path d="M854.63,1386.16h87.44s1.66-14.23-.35-26.39c-.25-1.48-1.01-2.82-2.16-3.98-5.12,1.73-12.64,2.96-21.01-.05-6.85-2.47-11.92-6.21-15.46-9.62-.9,.87-18.98,18.08-27.32,18.08s-21.66,4.13-21.14,21.96Z" style="fill:#0e2952; fill-rule:evenodd;"/><path d="M1070.48,1308.71c17.63,18.57,35.43,34.87,42.04,42.88l29.81-14.36s-10.47-30.06-25.95-57.36c-5.36,8.31-19.34,25.38-45.89,28.83Z" style="fill:#fff; fill-rule:evenodd;"/><path d="M1106.04,1343.88s1.09,18.98-5.23,21.48c-6.32,2.54-18.13,8.75-18.13,20.8h43.81s30.2-14.85,34.21-21.17c4.04-6.31-20.13-33.25-20.13-33.25,0,0-14.84,16.41-34.54,12.14Z" style="fill:#0e2952; fill-rule:evenodd;"/><path d="M1009.45,883.82s18.87-29.05,4.28-57.51c0,0-8.88-11.75-14.46-2.76-5.59,9-2.18,6.39-10.31,18.88-8.15,12.5-9.97,27.82-3.89,37l.32,.78c-.41,61.33,36.79,111.53,48.78,126.08,2.15,2.61,5.61,3.39,8.5,1.84,27.3-14.66,38.65-34.32,51.22-53.86,2.77-34.88-28.43-49.77-34.38-41.92-9.33,19.72-16.02,32.08-16.02,32.08-2.39-9.57-34.04-60.62-34.04-60.62Z" style="fill:#f9af79; fill-rule:evenodd;"/><path d="M957.06,855.41s-18.86-29.05-4.28-57.52c0,0,8.89-11.74,14.46-2.75,5.59,8.99,2.18,6.39,10.32,18.88,8.15,12.5,9.96,27.82,3.88,37.01l-.31,.78c.42,61.32-36.8,111.52-48.78,126.07-2.14,2.61-5.62,3.39-8.5,1.84-10.75-15.03-9.97-50.11-.82-63.7,2.4-9.57,34.04-60.61,34.04-60.61Z" style="fill:#f9af79; fill-rule:evenodd;"/></svg>