<?xml version="1.0" encoding="UTF-8"?><svg id="a" xmlns="http://www.w3.org/2000/svg" viewBox="0 0 2318.99 1460.19"><path d="M1143.7,0c-241.96,0-343.87,173.16-518.56,307.77-231.22,178.13-462.36,62.08-499.37,663.95-32.95,535.63,378.14,57.94,957.79,249.83,579.61,191.89,1169.95,269.15,994.8-351.62C1903.14,249.08,1705.86,0,1143.7,0Z" style="fill:#e0e8f5; fill-rule:evenodd;"/><path d="M1153.94,343.58h579.77c-4.14-17.66-20.06-30.75-38.96-30.75-.83,0-1.82,.08-2.65,.08-9.12-22.38-31.17-38.21-56.86-38.21-11.27,0-21.88,3.07-30.84,8.37-11.1-36.47-44.92-63-85.04-63-8.12,0-16.08,1.08-23.54,3.15-19.4-42.77-62.5-72.61-112.57-72.61-59.35,0-108.92,41.94-120.77,97.81-1.08-.08-1.99-.08-3.07-.08-37.96,0-69.38,28.43-74.02,65.23-15.5,2.9-27.89,14.75-31.46,30.01Z" style="fill:#fff; fill-rule:evenodd;"/><path d="M667.17,524.61h579.73c-4.15-17.66-19.98-30.75-38.88-30.75-.83,0-1.82,0-2.65,.08-9.2-22.38-31.25-38.21-56.95-38.21-11.23,0-21.76,3.07-30.84,8.29-11.06-36.47-44.93-63-85-63-8.12,0-16.04,1.16-23.5,3.23-19.4-42.85-62.54-72.61-112.56-72.61-59.39,0-109,41.86-120.85,97.73-.99,0-1.95-.08-2.98-.08-38,0-69.42,28.51-74.06,65.23-15.5,2.9-27.85,14.76-31.46,30.09Z" style="fill:#fff; fill-rule:evenodd;"/><path d="M2094.95,1247.74s99.63-51.39,81.4-177.63c-18.24-126.24,58.85-166.19,78.5-203.74,19.56-37.46-24.29-98.06-19.31-151.11,4.98-53.05,66.15-67.14,37.47-139.92-28.68-72.78-4.48-100.38,33.32-178.3,37.71-77.92-18.24-196.95-44.76-196.28-26.53,.66,5.8,28.43-17.57,80.24-23.29,51.81-121.85,67.64-152.68,110.91-30.75,43.27,23.38,100.63-11.77,159.15-35.15,58.44-139.92,40.28-167.68,97.06-27.77,56.7,38.38,124.66,19.15,184.18-19.23,59.43-90.02,93.17-119.86,140.91-29.68,47.83-85.54,139.34,5.8,248.59,91.35,109.33,278.01,25.95,278.01,25.95Z" style="fill:#c4d1eb; fill-rule:evenodd;"/><path d="M2177.51,1119.67c.58-4.89,.91-10.11,.99-15.34l-270.88,152.19,24.04-62.25c.17-.25,.17-.58,.33-.83l12.27-31.91,229.27-128.89c.08-5.22,.25-10.28,.66-15.17l-222.64,125.08,21.72-56.28,211.86-119.11c2.65-7.13,5.8-13.76,9.12-19.98l-213.69,120.11,10.78-28.02c.08-.25,.16-.5,.33-.83l47-122.26,212.11-119.2c-1.33-4.14-2.57-8.46-3.81-12.68l-200.92,112.89,23.38-61.09,167.11-93.83c-.66-4.72-1.16-9.45-1.33-14.09l-158.4,89.02,17.66-45.92c.17-.25,.17-.5,.25-.66l51.39-133.45,123.92-69.63c-1.49-4.39-2.82-8.54-3.98-12.6l-112.65,63.25,44.84-116.46c.08-.25,.17-.41,.25-.66l74.02-192.3c1.33-3.32-.33-7.05-3.73-8.37-3.4-1.24-7.04,.41-8.37,3.73l-67.31,174.73-38.38-131.3c-3.98,1.99-7.88,3.98-11.77,6.05l42.52,145.22-50.57,131.21c0,.25-.16,.41-.16,.58l-46.75,121.35-73.77-158.16c-4.14,1.33-8.37,2.57-12.6,3.81l79.91,171.25-17.82,46.25-97.23-206.81c-4.14,1.41-8.29,2.9-12.27,4.56l101.62,216.09-1.49,.83c-3.15,1.74-4.31,5.72-2.49,8.87,.5,.83,1.16,1.58,1.99,2.16l-26.28,68.22c-.08,.16-.25,.41-.25,.58l-42.44,110.41-72.11-153.18c-2.82,3.81-5.8,7.62-8.95,11.35l74.6,158.57-10.94,28.43-79.91-169.84c-3.23,3.15-6.63,6.3-9.95,9.36l83.39,177.22-27.93,72.44c-.08,.17-.08,.33-.25,.58l-7.63,20.06-102.37-217.67c-3.15,3.81-6.22,7.71-8.87,11.61l104.77,222.81-29.51,76.59c-.08,.16-.16,.33-.16,.58l-.17,.17c5.14,1.58,10.28,2.98,15.5,4.06l273.12-153.51Z" style="fill:#e0e8f5; fill-rule:evenodd;"/><path d="M1993.99,1112.79s87.78-69.96,45.09-190.15c-42.6-120.19,25.28-174.4,37.13-215.1,11.94-40.62-43.02-91.43-48.49-144.39-5.55-52.97,51.64-78.91,9.37-144.64-42.36-65.65-23.96-97.48-2.15-181.28,21.71-83.8-56.45-189.65-82.39-183.85-25.86,5.89,11.27,26.86-1.49,82.23-12.76,55.37-106.26,90.1-127.98,138.59-21.72,48.49,42.61,94.16,19.56,158.4-23.04,64.24-129.39,66.89-145.47,127.98-16.08,61.01,62,114.8,54.79,176.89-7.13,62.08-69.96,109-89.85,161.64-19.89,52.72-56.69,153.43,54.38,242.7,110.91,89.27,277.52-29.01,277.52-29.01Z" style="fill:#b0c2e4; fill-rule:evenodd;"/><path d="M2050.02,971.05c-.49-4.97-1.16-10.03-2.07-15.25l-235.82,202.25,11.27-65.73c.16-.25,.16-.58,.16-.83l5.8-33.74,199.76-171.25c-1.08-5.14-1.82-10.11-2.49-15l-193.79,166.19,10.28-59.43,184.43-158.24c1.24-7.54,3.07-14.67,5.05-21.47l-186.09,159.64,5.06-29.51c.17-.33,.17-.58,.17-.91l22.22-129.14,184.68-158.32c-1.99-3.9-4.14-7.79-6.3-11.77l-174.9,150.11,11.11-64.49,145.47-124.75c-1.58-4.48-2.99-9.03-4.06-13.59l-137.93,118.28,8.29-48.49c.08-.25,.16-.5,.16-.66l24.2-140.91,108.01-92.59c-2.4-3.98-4.56-7.79-6.47-11.52l-98.06,84.05,21.22-122.93c0-.25,.08-.5,.08-.75l34.98-203.08c.58-3.48-1.74-6.88-5.3-7.46-3.56-.58-6.88,1.74-7.46,5.3l-31.75,184.51-63.49-121.27c-3.48,2.74-6.96,5.47-10.28,8.21l70.12,134.12-23.87,138.59c0,.17-.08,.41-.16,.58l-22.05,128.23-103.28-140.75c-3.81,2.15-7.71,4.23-11.61,6.22l111.9,152.27-8.46,48.9-135.77-183.77c-3.81,2.15-7.62,4.48-11.1,6.88l141.91,191.97-1.41,1.16c-2.74,2.32-3.07,6.38-.75,9.12,.75,.83,1.49,1.41,2.49,1.74l-12.43,72.03c0,.25-.08,.41-.17,.66l-20.06,116.54-100.54-136.1c-2.07,4.31-4.23,8.62-6.71,12.85l104.27,140.99-5.14,30.01-111.57-150.94c-2.65,3.73-5.31,7.46-7.96,11.19l116.38,157.49-13.1,76.42c-.08,.16-.08,.41-.16,.58l-3.65,21.22-142.9-193.46c-2.32,4.4-4.56,8.79-6.47,13.18l146.38,198.02-13.93,80.82c0,.17-.08,.33-.08,.58l-.08,.25c5.31,.58,10.61,.83,16,.99l237.81-204.08Z" style="fill:#c4d1eb; fill-rule:evenodd;"/><path d="M252.31,1247.74s-99.67-51.39-81.4-177.63c18.24-126.24-58.93-166.19-78.5-203.74-19.6-37.46,24.29-98.06,19.31-151.11-4.97-53.05-66.15-67.14-37.51-139.92,28.68-72.78,4.44-100.38-33.28-178.3C3.22,319.12,59.09,200.09,85.66,200.76c26.61,.66-5.8,28.43,17.53,80.24,23.37,51.81,121.89,67.64,152.68,110.91,30.83,43.27-23.33,100.63,11.85,159.15,35.14,58.44,139.96,40.28,167.69,97.06,27.73,56.7-38.38,124.66-19.15,184.18,19.23,59.43,89.98,93.17,119.77,140.91,29.8,47.83,85.58,139.34-5.8,248.59-91.35,109.33-277.93,25.95-277.93,25.95Z" style="fill:#c4d1eb; fill-rule:evenodd;"/><path d="M169.67,1119.67c-.5-4.89-.87-10.11-.95-15.34l270.84,152.19-23.95-62.25c-.12-.25-.25-.58-.33-.83l-12.27-31.91-229.31-128.89c-.04-5.22-.25-10.28-.58-15.17l222.56,125.08-21.63-56.28-211.87-119.11c-2.73-7.13-5.84-13.76-9.16-19.98l213.69,120.11-10.74-28.02c-.16-.25-.25-.5-.33-.83l-47.08-122.26-212.07-119.2c1.29-4.14,2.57-8.46,3.86-12.68l200.92,112.89-23.5-61.09-167.11-93.83c.75-4.72,1.2-9.45,1.37-14.09l158.44,89.02-17.7-45.92c-.08-.25-.16-.5-.25-.66l-51.35-133.45-124-69.63c1.58-4.39,2.9-8.54,4.06-12.6l112.61,63.25-44.8-116.46c-.12-.25-.21-.41-.29-.66l-73.98-192.3c-1.29-3.32,.37-7.05,3.69-8.37,3.36-1.24,7.09,.41,8.41,3.73l67.22,174.73,38.46-131.3c3.98,1.99,7.87,3.98,11.77,6.05l-42.52,145.22,50.52,131.21c.08,.25,.12,.41,.21,.58l46.75,121.35,73.77-158.16c4.14,1.33,8.33,2.57,12.56,3.81l-79.86,171.25,17.78,46.25,97.23-206.81c4.19,1.41,8.29,2.9,12.23,4.56l-101.58,216.09,1.53,.83c3.15,1.74,4.27,5.72,2.53,8.87-.5,.83-1.2,1.58-1.99,2.16l26.24,68.22c.08,.16,.17,.41,.21,.58l42.52,110.41,72.03-153.18c2.82,3.81,5.85,7.62,8.99,11.35l-74.6,158.57,10.98,28.43,79.82-169.84c3.27,3.15,6.59,6.3,9.95,9.36l-83.35,177.22,27.89,72.44c.08,.17,.16,.33,.21,.58l7.71,20.06,102.33-217.67c3.19,3.81,6.18,7.71,8.87,11.61l-104.73,222.81,29.51,76.59c.04,.16,.12,.33,.21,.58l.04,.17c-5.1,1.58-10.28,2.98-15.46,4.06l-273.16-153.51Z" style="fill:#e0e8f5; fill-rule:evenodd;"/><path d="M353.19,1112.79s-87.7-69.96-45.05-190.15c42.61-120.19-25.28-174.4-37.13-215.1-11.85-40.62,43.06-91.43,48.53-144.39,5.47-52.97-51.72-78.91-9.37-144.64,42.31-65.65,23.95-97.48,2.2-181.28-21.76-83.8,56.37-189.65,82.31-183.85,25.95,5.89-11.27,26.86,1.45,82.23,12.81,55.37,106.31,90.1,128.06,138.59,21.76,48.49-42.6,94.16-19.56,158.4,23.04,64.24,129.35,66.89,145.47,127.98,16.08,61.01-62.04,114.8-54.83,176.89,7.21,62.08,70,109,89.89,161.64,19.85,52.72,56.66,153.43-54.33,242.7-110.99,89.27-277.64-29.01-277.64-29.01Z" style="fill:#b0c2e4; fill-rule:evenodd;"/><path d="M297.19,971.05c.46-4.97,1.16-10.03,2.07-15.25l235.86,202.25-11.36-65.73c-.08-.25-.12-.58-.12-.83l-5.8-33.74-199.68-171.25c1-5.14,1.78-10.11,2.4-15l193.8,166.19-10.24-59.43-184.47-158.24c-1.24-7.54-2.98-14.67-5.06-21.47l186.09,159.64-5.1-29.51c-.04-.33-.12-.58-.12-.91l-22.25-129.14-184.64-158.32c2.07-3.9,4.15-7.79,6.26-11.77l174.94,150.11-11.11-64.49-145.47-124.75c1.62-4.48,3.02-9.03,4.14-13.59l137.89,118.28-8.33-48.49c-.04-.25-.12-.5-.12-.66l-24.25-140.91-107.96-92.59c2.36-3.98,4.52-7.79,6.42-11.52l98.06,84.05-21.18-122.93c-.04-.25-.08-.5-.13-.75l-34.94-203.08c-.62-3.48,1.74-6.88,5.26-7.46,3.56-.58,6.92,1.74,7.5,5.3l31.79,184.51,63.37-121.27c3.52,2.74,6.96,5.47,10.36,8.21l-70.12,134.12,23.87,138.59c.04,.17,.08,.41,.08,.58l22.09,128.23,103.32-140.75c3.81,2.15,7.67,4.23,11.52,6.22l-111.78,152.27,8.37,48.9,135.86-183.77c3.81,2.15,7.5,4.48,11.07,6.88l-141.87,191.97,1.33,1.16c2.73,2.32,3.03,6.38,.71,9.12-.66,.83-1.49,1.41-2.36,1.74l12.39,72.03c.04,.25,.08,.41,.12,.66l20.06,116.54,100.59-136.1c2.03,4.31,4.27,8.62,6.63,12.85l-104.19,140.99,5.18,30.01,111.57-150.94c2.57,3.73,5.22,7.46,7.87,11.19l-116.42,157.49,13.22,76.42c0,.16,.04,.41,.08,.58l3.61,21.22,142.94-193.46c2.36,4.4,4.56,8.79,6.42,13.18l-146.3,198.02,13.93,80.82c.04,.17,.08,.33,.08,.58l.04,.25c-5.31,.58-10.61,.83-15.96,.99l-237.85-204.08Z" style="fill:#c4d1eb; fill-rule:evenodd;"/><path d="M1147.14,1393.04c-566.55,0-1025.8,15-1025.8,33.57s459.25,33.57,1025.8,33.57,1025.72-15.01,1025.72-33.57-459.21-33.57-1025.72-33.57Z" style="fill:#c4d1eb; fill-rule:evenodd;"/><rect x="1409.78" y="785.46" width="580.81" height="580.89" style="fill:#c4d1eb;"/><rect x="1433.32" y="809.09" width="533.64" height="533.73" style="fill:#fff;"/><rect x="398.98" y="785.46" width="580.85" height="580.89" style="fill:#c4d1eb;"/><rect x="422.56" y="809.09" width="533.73" height="533.73" style="fill:#fff;"/><path d="M1927.34,923.56c11.27-21.47,2.99-48.16-18.48-59.52-21.47-11.35-48.16-3.07-59.52,18.49l-60.59,114.55c-33.32-42.52-68.8-82.89-106.26-121.27-53.88-55.37-111.24-106.18-171.41-153.18-19.23-15-47-11.52-62,7.71-15.09,19.23-11.6,47.08,7.71,62.08,57.94,45.34,112.48,93.42,162.55,144.89,50.4,51.72,97.14,107.42,139.58,167.6,3.9,5.47,9.12,10.2,15.58,13.51,21.47,11.35,48.07,3.07,59.52-18.4l93.33-176.47Z" style="fill:#859ac6; fill-rule:evenodd;"/><path d="M840.33,792.67c16.87-16.24,17.37-43.1,1.16-59.93-16.25-16.91-43.06-17.41-59.93-1.16-40.53,38.87-78.29,79.16-113.31,120.77-47.21-42.77-96.86-84.13-149.03-123.92-18.61-14.26-45.26-10.69-59.47,7.96-14.17,18.57-10.61,45.26,8,59.43,51.89,39.62,101,80.65,147.54,123.01-41.28,54.87-78.5,112.15-112.02,171.41-11.44,20.39-4.23,46.17,16.12,57.61,20.35,11.52,46.13,4.31,57.61-16.08,29.88-52.88,63.2-104.36,100.26-154.26,52.76,51.89,101.95,105.52,147.79,160.56,14.96,17.99,41.65,20.47,59.64,5.47,17.94-14.92,20.39-41.61,5.43-59.6-49.94-60.01-103.24-117.95-160.06-173.41,33.98-40.62,70.66-79.9,110.28-117.87Z" style="fill:#859ac6; fill-rule:evenodd;"/><path d="M1156.88,705.23c12.31-18.07-14.3-22.63-14.05-42.36,.17-13.59-8.33-27.77-5.76-41.28,5.22-27.77-5.59-36.14-5.68-38.3-.66-20.97-13.22-21.55-25.74-28.6-22.21-12.6-41.53,2.73-47.83,3.15-32.08,2.15-14.3,15.91-28.68,28.35-11.81,10.28-6.22,17.99-5.02,24.2,.54,2.74,3.11,14.17-5.06,19.98-12.02,8.37,.29,31-6.8,33.16-27.27,8.29-16.29,11.69-15.54,30.75,.25,6.05,6.09,10.69,9.95,15.17,46.96-14.67,79.24,43.77,150.2-4.23Z" style="fill:#20386f; fill-rule:evenodd;"/><path d="M1115.11,679.94c-1.41-3.23-5.1-5.3-6.34-6.3-13.59,7.38-28.02,11.85-43.14,12.02,.58,8.62,1.82,17.74,3.56,27.44,24.99-19.48,40.29-30.5,45.92-33.16Z" style="fill:#466fb5; fill-rule:evenodd;"/><path d="M1054.89,678.78c-3.65,7.79-6.13,15-7.46,21.8,3.98-7.13,8.37-11.52,18.2-14.92-3.11-3.32-2.86-7.54-4.15-11.02-3.52,2.15-5.72,3.56-6.59,4.14Z" style="fill:#466fb5; fill-rule:evenodd;"/><path d="M1044.24,678.87c-37.76,95.9-5.93,88.44,75.8,2.07,4.77,1.16,9.2,2.57,13.18,4.23-10.61,9.78-14.59,26.19-11.94,49.24,1.62,17.82,3.36,35.14,5.31,51.97-4.64,10.45-7.05,21.22-7.46,32.82-.33,10.11,.83,20.89,3.27,32.66,3.85,18.57,10.94,39.62,20.43,64.9-57.24,19.48-106.22,19.64-146.96,.58,23.62-51.89,20.47-67.97,17.78-102.78-2.65-56.36-37.01-38.71,20.14-133.53,3.89-1.24,7.33-1.91,10.44-2.16Z" style="fill:#466fb5; fill-rule:evenodd;"/><path d="M1065.62,685.66c.58,8.62,1.82,17.74,3.56,27.44,24.99-19.48,40.29-30.5,45.92-33.16,1.66,.25,3.32,.66,4.93,.99-81.73,86.37-113.56,93.83-75.8-2.07,3.9-.33,7.34-.25,10.65-.08-3.65,7.79-6.13,15-7.46,21.8,3.98-7.13,8.37-11.52,18.2-14.92Z" style="fill:#6d96ce; fill-rule:evenodd;"/><path d="M1087.01,820.03c15.54,.08,30.05-.5,43.52-1.74-3.52-26.61-6.59-54.62-9.24-83.89-2.65-23.04,1.33-39.46,11.94-49.24,14.13,5.88,23.08,15.25,26.94,27.93,8.37,26.94,7.34,127.32-1.74,136.44-11.48,4.98-35.73,3.98-72.74-3.15,2.57-7.54,3.03-16.33,1.33-26.36Z" style="fill:#6d96ce; fill-rule:evenodd;"/><path d="M1077.64,823.84c2.11,.17,5.43,.41,9.99,.58,.71,6.63,.42,12.68-.83,18.15-3.98-.75-8.99-1.82-15.09-3.15-10.82,2.74-23.87,2.65-39.12-.5-10.57-4.06-13.8-11.52-9.66-22.38,16.58,1.99,26.52,1.33,29.8-1.82-5.8-2.99-7.87-6.39-6.17-10.2,16.29,5.97,26.65,12.35,31.08,19.31Z" style="fill:#f9af79; fill-rule:evenodd;"/><path d="M1021.4,793.83l-115.96-17.57,25.03,50.06,116.21,18.24-1.86-3.73c-3.9-.42-7.96-1-12.23-1.91-10.57-4.06-13.8-11.52-9.66-22.38,3.77,.42,7.17,.75,10.24,.91l-11.77-23.62Z" style="fill:#c4d1eb; fill-rule:evenodd;"/><path d="M1022.93,806.93l5.1,10.2h0c-1.58-.17-3.32-.41-5.1-.58-3.61,9.45-1.66,16.33,5.88,20.64l-95.36-14.92-9.74-19.48c13.34,4.64,26.9,7.54,40.7,8.79,2.82,3.23,7.21,5.64,10.78,5.64,3.32,0,4.97-2.07,4.39-4.97,14.26,0,28.68-1.74,43.35-5.31Z" style="fill:#859ac6; fill-rule:evenodd;"/><path d="M1059.53,841.25l-12.85,3.32-1.86-3.73c5.22,.58,10.11,.66,14.71,.41Z" style="fill:#859ac6; fill-rule:evenodd;"/><path d="M1046.68,844.56l12.85-3.32c4.35-.25,8.37-.83,12.18-1.82,4.06,.91,7.67,1.66,10.82,2.32l-32.12,10.53-31.71-5.39-88.44-15,.21-5.55,84.96,13.35h0l31.25,4.89Z" style="fill:#223f81; fill-rule:evenodd;"/><path d="M993.09,789.53c4.52-4.23,8.33-9.2,11.44-14.84,1.82,5.06,4.06,10.53,5.89,17.49l-17.32-2.65Z" style="fill:#6d96ce; fill-rule:evenodd;"/><path d="M1033.79,681.02c-13.43,22.21-21.8,38.29-26.73,50.56-4.85-38.05,2.11-46.67,26.73-50.56Z" style="fill:#6d96ce; fill-rule:evenodd;"/><path d="M1133.8,919.66c13.51,27.85,17.32,88.44,11.4,181.77-74.19,10.03-127.65,9.04-160.35-3.07,2.65-85.21,8.66-144.56,18.03-177.96,37.09,15,80.74,14.83,130.93-.75Z" style="fill:#20386f; fill-rule:evenodd;"/><path d="M1108.77,673.64c-13.59,7.38-28.02,11.85-43.14,12.02-2.74-2.9-2.86-6.55-3.73-9.78-.04-.17-.12-.33-.16-.5,2.32-3.15,3.9-5.55,2.49-11.02,0-.08-.04-.17-.04-.25-16.37-5.55-26.57-33.07-19.89-49.24-.33-5.39-.83-11.03-1.53-16.83,24.21,7.05,39.46,6.63,57.19-5.8,3.11,8.04,4.64,12.6,2.82,21.22-.42,2.9-1.91,9.2,2.03,9.78,1.78-10.28,5.51-15.92,12.43-13.43,6.17,9.78,2.49,22.21-12.31,24.78-4.35,8.95-6.17,15.09-5.59,18.4-.46,5.64,4.43,13.18,8.12,18.65,.46,.66,.91,1.33,1.33,1.99Z" style="fill:#f9af79; fill-rule:evenodd;"/><path d="M1064.09,663.78c9.9,1.08,14.38,.99,23.58-2.65-5.39,5.8-13.76,9.28-23.37,9.78,.54-2.4,.41-4.72-.21-7.13Z" style="fill:#ed7d57; fill-rule:evenodd;"/><path d="M996,1184.49c-1.91-26.28-3.07-54.13-3.4-83.64,16.33,4.73,36.97,7.21,61.84,7.38-5.97,25.28-15.04,52.88-19.77,80.07,25.11,68.13-9.45,124.5-4.56,169.01-6.84,10.94-18.19,35.64-35.35,44.68-5.72-1.49-1.41-6.71-3.36-9.62,8.87-9.2,14.38-23.62,16.62-43.27,2.03-46.58-1.99-101.46-12.02-164.62Z" style="fill:#f9af79; fill-rule:evenodd;"/><path d="M1089.41,1174.8c-5.18-21.55-14.55-43.27-21.38-66.73,18.28-.41,38.63-1.99,61.05-4.64-.37,22.13-.66,45.26-.87,69.21,35.23,62.25,11.65,134.95,21.06,166.19-6.88,16.25-8.7,36.64-23.91,48.58-5.64-.41-2.73-5.89-4.81-8.46,4.77-10.86,7.38-24.45,7.83-40.95-5.43-46.92-18.4-101.29-38.96-163.21Z" style="fill:#f9af79; fill-rule:evenodd;"/><path d="M985.84,1390.31c12.06,.58,1.08,9.61,8.91,11.69,17.16-9.03,26.65-33.74,33.49-44.68,3.6-5.72,6.22,1.58,8,9.7,2.86,13.1-.75,8.54-2.32,18.9-.41,2.57,2.94,16.49,3.48,24.29,.21,3.07-1.45,4.22-1.78,4.81-3.15-5.3-5.84-21.55-8.66-31.5-16.83,14.51-13.18,30.42-23.17,35.89-23.91,2.49-36.89,3.15-55.08,3.56-3.98-14.92,27.64-9.95,37.13-32.66Z" style="fill:#1b2452; fill-rule:evenodd;"/><path d="M1114.69,1377.71c11.6-1.41,2.78,9.12,10.65,9.7,14.71-11.52,19.27-36.8,23.83-48.41,2.36-6.05,6.22,.5,9.41,7.96,5.06,11.94,.83,8.21,1.2,18.48,.08,2.49,5.8,15.25,7.79,22.55,.75,2.9-.66,4.31-.83,4.89-3.98-4.56-9.53-19.56-14.05-28.6-13.43,16.66-7,31.25-15.54,38.21-22.42,6.47-34.65,9.28-51.97,12.77-6.55-13.51,24.62-14.09,29.51-37.55Z" style="fill:#1b2452; fill-rule:evenodd;"/><path d="M967.77,804.36c-2.78,0-3.73,2.24-2.11,5.06,1.58,2.82,5.14,5.06,7.96,5.06s3.73-2.24,2.11-5.06c-1.62-2.82-5.14-5.06-7.96-5.06Z" style="fill:#859ac6; fill-rule:evenodd;"/><path d="M271.62,1352.59l-1.91,33.4c-.71,4.23-3.4,14.67-3.4,18.57,0,14.42,64.24-12.27,49.86-18.65-1.33-.58-10.15-8.21-10.61-13.18-.62-7.54-.29-19.64-.29-19.64l-33.65-.5Z" style="fill:#f9af79; fill-rule:evenodd;"/><path d="M316.01,1385.75s-15.09,4.48-22.8,5.47c-7.71,1.16-17.94-8.13-23.42-5.64-6.01,2.82-6.42,34.65-6.42,34.65,0,0,79.12,5.97,99.38,.17,9.08-2.65-15.91-24.37-46.75-34.65Z" style="fill:#0e2952; fill-rule:evenodd;"/><path d="M395.54,1352.59l-1.91,33.4c-.7,4.23-3.44,14.67-3.44,18.57,0,14.42,64.28-12.27,49.86-18.65-1.29-.58-10.15-8.21-10.57-13.18-.66-7.54-.33-19.64-.33-19.64l-33.61-.5Z" style="fill:#f9af79; fill-rule:evenodd;"/><path d="M439.89,1385.75s-15.09,4.48-22.79,5.47c-7.71,1.16-17.9-8.13-23.38-5.64-6.01,2.82-6.42,34.65-6.42,34.65,0,0,79.08,5.97,99.34,.17,9.12-2.65-15.87-24.37-46.75-34.65Z" style="fill:#0e2952; fill-rule:evenodd;"/><path d="M449.92,478.77c2.07,16.33,4.64,15.25,4.81,17.41,.29,2.4-14.59,32.33-14.59,32.33,0,0-43.31,88.19-45.8,92.92l-76.96,64.99,19.93,47.83s81.94-72.78,85.58-77.42c3.65-4.56,48.78-130.72,53.05-141.66,0,0,9.82-11.19,15.75-18.48,5.97-7.21,8.54-16.74,9.86-19.15,.21-.25,4.35-8.21,6.92-19.31,2.28-9.62-4.1-1.41-4.1-1.41,0,0-7.25,16.99-8.46,16.16-.91-.66,3.56-9.7,6.13-20.31,.66-2.73,1.28-5.39,1.91-7.88,1.49-6.38-1.95-9.2-4.56-2.65-.95,2.32-2.36,6.22-3.07,9.12-.7,3.15-2.32,5.8-3.32,8.37-1.95,5.06-3.27,8.79-3.44,8.54-.21-.17-1.29,.58-.7-2.4,.79-3.4,3.94-10.61,4.64-15.83,.41-2.9,1.58-9.03,1.58-9.03,0,0,.16-9.62-.41-9.78-2.94-.99-4.81,5.55-4.85,9.62-1.33,2.57-2.4,9.12-2.4,9.12,0,0-5.02,12.6-6.8,12.02-.75-.33,1.45-8.46,2.41-16.74,.87-7.71,.5-15.67-.91-16-2.49-.75-4.35,7.79-4.35,7.79,0,0-.99,5.97-1.49,7.87-.54,2.41-2.73,9.2-2.73,9.2,0,0-8.66,23.21-10.28,22.46-1.58-.83-4.89-4.56-4.81-6.22,.04-1.49,1.66-4.56,1.7-6.13,.08-1.66-1.2-3.73-3.15-3.98-1.95-.25-5.14,7.63-5.14,7.63,0,0-2.57,6.38-1.95,11.02Z" style="fill:#f9af79; fill-rule:evenodd;"/><path d="M62.45,510.19c.95,16.33-1.78,15.91-1.62,17.9,.21,2.57,20.27,29.09,20.27,29.09,0,0,58.56,79.08,61.88,83.22l87.49,49.9-10.94,50.81s-93.83-56.86-98.22-60.76c-4.44-3.81-71.62-119.69-77.83-129.72,0,0-11.73-9.2-18.86-15.25-7.17-6.05-11.4-15-13.18-16.99-.25-.25-5.76-7.38-10.32-17.82-3.94-8.95,3.85-2.24,3.85-2.24,0,0,10.15,15.5,11.19,14.51,.79-.83-5.26-8.87-9.7-18.82-1.16-2.57-2.28-5.06-3.28-7.46-2.65-6.05,.21-9.45,3.98-3.4,1.33,2.07,3.44,5.64,4.64,8.37,1.29,2.98,3.32,5.3,4.77,7.62,2.86,4.64,4.89,8.04,4.97,7.79,.17-.25,1.37,.33,.21-2.49-1.37-3.32-5.72-9.7-7.38-14.67-.91-2.82-3.23-8.62-3.23-8.62,0,0-1.82-9.45-1.33-9.78,2.69-1.58,5.76,4.56,6.51,8.62,1.74,2.32,4.02,8.45,4.02,8.45,0,0,7.25,11.52,8.83,10.61,.7-.41-2.94-8.04-5.39-16-2.24-7.46-3.36-15.33-1.99-16,2.32-.99,5.68,6.88,5.68,6.88,0,0,2.07,5.72,2.9,7.63,.95,2.24,4.35,8.46,4.35,8.46,0,0,12.77,21.3,14.22,20.31,1.41-1.08,3.98-5.39,3.61-6.96-.33-1.58-2.49-4.23-2.82-5.8-.33-1.58,.5-3.9,2.4-4.48,1.86-.5,6.42,6.55,6.42,6.55,0,0,3.69,5.8,3.89,10.53Z" style="fill:#f9af79; fill-rule:evenodd;"/><path d="M290.23,928.7s97.35,231.68,100.96,252.56c2.61,15.25-.79,188.58-.79,188.58l46.04-.74,16.16-198.02-60.59-249.75-101.79,7.38Z" style="fill:#0e2952; fill-rule:evenodd;"/><polygon points="247.42 939.56 291.77 1196.84 262.79 1369.09 315.22 1369.09 356.42 1183.91 362.06 981.08 340.84 915.76 247.42 939.56" style="fill:#20386f; fill-rule:evenodd;"/><path d="M374.57,634.19s11.52,51.81,19.6,59.93c0,0-41.16,27.44-39.25,38.38,1.91,10.86,45.55,214.52,45.55,214.52,0,0-89.85,46.83-145.8,39.37,0,0-42.07-232.09-52.97-242.95-10.9-10.86-44.72-28.1-44.72-28.1,0,0,25.28-48.57,25.28-57.19,0,0,60.01,27.93,70.17,38.05,10.11,10.11,29.76-2.65,34.48-4.73,0,0,80.45-52.88,87.66-57.28Z" style="fill:#6d96ce; fill-rule:evenodd;"/><path d="M260.35,648.94l-7.63,47.66s19.98,33.24,35.97,28.35c13.43-4.15,12.23-30.5,12.23-30.5,0,0-7.29-27.11-5.1-40.78,2.2-13.59-35.48-4.72-35.48-4.72Z" style="fill:#f9af79; fill-rule:evenodd;"/><path d="M295.83,653.67c2.2-13.59-35.48-4.72-35.48-4.72l-.62,4.06c1.12,2.65,2.49,4.89,4.1,6.72,8.41,8.95,21.55,14.34,32.95,14.75-1.16-7.29-1.82-15.17-.95-20.81Z" style="fill:#f27458; fill-rule:evenodd;"/><path d="M254.17,581.06c-1.08-.42-8.54,54.71,5.63,69.87,14.17,15.17,41.78,20.06,51.68,8.12,10.98-13.18,10.4-72.36-11.6-87.95-22.05-15.59-45.71,9.95-45.71,9.95Z" style="fill:#f9af79; fill-rule:evenodd;"/><path d="M255.42,550.72c-7.71,.91-21.22,11.69-32.12,29.51-13.3,21.96,3.44,48.9,18.98,60.92,15.58,11.85,15.25,25.7,15.25,25.7l2.53-7.13c1.87-5.47,2.57-11.19,1.95-16.83-.33-3.4-1.08-7.04-2.49-10.11-3.73-7.96,8.04-13.26,11.31-19.89,2.53-5.06,2.65-16.83,6.67-25.28l4.81-6.46s13.47,1.24,21.8-6.05c23.87-20.89-12.6-48.66-48.7-24.37Z" style="fill:#20386f; fill-rule:evenodd;"/><path d="M270.09,622.67c.12,6.71-2.94,12.19-6.84,12.27-3.9,.08-7.17-5.31-7.25-12.02-.12-6.71,2.94-12.19,6.84-12.27,3.9-.08,7.17,5.3,7.25,12.02Z" style="fill:#f9af79; fill-rule:evenodd;"/><path d="M1992,927.78c-5.31,4.64-11.11,6.55-17.9,5.14,6.3,4.81,15.17,1.08,17.9-5.14Z" style="fill:#f48661; fill-rule:evenodd;"/><path d="M1968.04,1388.9c1-7.21-1.24-19.56-6.88-38.87,11.11,0,20.56-4.98,31.83-4.73,3.15,18.15,7.96,47.99,7.96,47.99l.5,23.62-79.24,.58s.66,.33,24.04-14.42c1.74-1.08,20.89-7.29,21.8-14.17Z" style="fill:#f9af79; fill-rule:evenodd;"/><path d="M2001.86,1422.97h-81.81c-2.98-.25-3.81-2.74-2.65-4.31,2.16-3.15,18.07-10.61,28.85-15.58,18.73,1.99,51.89-5.8,54.79-10.11,5.22,14.42,2.57,29.59,.83,30Z" style="fill:#0e2952; fill-rule:evenodd;"/><path d="M2066.76,1388.9c.99-7.21,2.65-16.16,.17-40.2,11.19,.08,21.8-2.07,33.16-1.82,0,18.65-.33,46.42-.33,46.42l.5,23.62-79.24,.58s.66,.33,23.95-14.42c1.74-1.08,20.81-7.29,21.8-14.17Z" style="fill:#f9af79; fill-rule:evenodd;"/><path d="M2100.58,1422.97h-81.81c-3.07-.25-3.73-2.74-2.74-4.31,2.15-3.15,18.15-10.61,28.85-15.58,18.9,1.99,51.89-5.8,54.87-10.11,5.14,14.42,2.49,29.59,.83,30Z" style="fill:#0e2952; fill-rule:evenodd;"/><path d="M2009.16,704.48l-29.76-31.42s-31.91,17.49-69.13,34.32c-10.28-17.82-26.94-76.42-27.85-79.16-.83-2.82,19.56-37.96,15-38.88-4.56-.83-10.53,18.82-15.34,16.83-4.81-1.99-17.24-47.66-20.22-45.09-5.47,4.64,6.55,28.35,3.64,30.09-2.82,1.66-10.11-26.36-15.58-25.12-5.64,1.16,9.28,25.45,7.62,27.85-1.66,2.32-17.16-20.47-20.39-15.17-1.74,2.82,14.34,19.81,11.11,21.72-3.32,1.91-17.9-8.79-19.56-5.3-1.82,3.4,13.51,7.04,17.74,15.83,4.23,8.79,11.94,12.18,14.51,28.76,2.57,16.58,9.53,105.27,27.6,112.4,15.83,6.13,120.6-47.66,120.6-47.66Z" style="fill:#f9af79; fill-rule:evenodd;"/><path d="M1989.92,874.16l24.12,13.43,49.15,75.18-87.86,206.81s9.95,31.17,13.18,46.67c3.32,16.25,11.6,155.83,11.6,155.83l-37.46,.66s-35.64-148.62-41.7-196.86c-7.29-58.52,37.3-198.02,37.3-198.02,8.29-28.43,26.28-86.95,26.28-86.95,0,0,4.31-14.25,5.39-16.74Z" style="fill:#20386f; fill-rule:evenodd;"/><path d="M2074.06,845.89s-2.49,17.66,7.46,37.88c6.13,12.27,16.66,21.88,24.2,36.97,14.26,28.51,22.05,68.96,16.66,94.91,0,0-29.51,112.73-28.26,153.84,.33,15.17,5.55,42.52,8.95,61.01,2.9,16.33,3.9,139.67,3.9,139.67l-41.86-1.25-32.08-198.93-13.51-176.8-29.59-119.03,84.13-28.27Z" style="fill:#223f81; fill-rule:evenodd;"/><path d="M1985.37,586.36c3.73-17.49,7.54-35.06,24.87-47.66,14.09-10.11,29.18-13.1,45.26-7.21,45.34,16.41,20.89,52.47,77.25,90.76,17.49,11.94,24.12,16.08,36.72,31.99,17.57,22.3,27.1,52.05,18.32,76.67-18.23,50.81-74.93,65.48-104.44,54.71-55.21-20.06-101.13-89.93-104.11-109-3.32-20.39,3.81-78.99,6.13-90.27Z" style="fill:#20386f; fill-rule:evenodd;"/><path d="M1976.58,724.21c-13.26,6.22-37.47,15.42-37.47,15.42l-13.76-43.43c77.75-44.18,71.62-37.05,129.89-36.22,46.58,.75,66.15-8.21,106.18,100.13,0,0-30.5,13.68-41.44,18.07-4.64-13.35-13.18-40.04-18.07-24.87-7.54,23.04-13.02,46.25-16.75,70.12-2.32,14.17-7.38,32.33-4.72,46.75,0,0-31.75,6.55-55.95,7.62h-.16c-11.77-.33-23.71-1.41-34.4-3.65,0,0-4.72-100.46-7.29-104.69-2.82-4.64-14.67-19.64-4.56-42.02,1.74-3.98,1.33-4.48-1.49-3.23Z" style="fill:#6d96ce; fill-rule:evenodd;"/><path d="M2034.94,898.61c-.58,.08-2.99-.25-5.06-.17-2.82,0-5.22,.5-5.22,.5,0,0-1.16-1-3.23-1.99-.91-.33-2.32-.5-3.23-1-.99-.41-1.91-1.33-2.82-1.74-2.49-1.08-4.81-1.33-5.47,0-.66,1.08,13.1,9.45,13.1,9.45,12.76,.08,26.03,6.63,55.7-12.68,16.74-7.38,98.72-47.83,100.38-56.61,.91-4.98-11.69-43.27-21.96-72.36-7.87,3.56-24.7,11.02-34.15,14.92,8.62,18.4,18.9,42.69,17.74,45.67-.17,.75-1.24,2.15-56.7,38.38-1.33,.91-2.82,1.91-4.23,2.82-3.9,2.57-8.04,5.3-12.52,8.12l-15.75-1.66s-25.03,1.74-25.86,4.64c-.33,1.33,1.82,1.91,4.31,2.32h.17c.33,0,.66,.08,1.08,.08h.08c2.74,.42,5.64,.42,6.3,.67,.83,.25,2.48,.91,3.81,1.82-15.58,6.38-14.42,4.14-19.56,3.81-1.33-.08-2.65,.25-3.98,.17-1.99-.17-3.73-1.41-5.3-1.49-2.4-.17-4.31,1-4.73,1.41-.58,.5,.41,1.33,2.4,2.24,12.1,5.22,22.05,3.23,25.28,3.98,2.07,.58-1.74,1.33-7.87,.66-1.58-.08-3.65,.42-5.64-.08-1.33-.25-2.49-1.16-3.81-1.41-1.24-.33-2.48-.33-3.57-.5-1.33-.25-3.23-1.33-4.31-1.41-3.98-.5-5.88,.25-6.38,.58-.91,.83,17.24,7.79,17.24,7.79,0,0,12.6,1.83,15.34,1.83,0,0,1.74,.74-1.58,1.24Z" style="fill:#f9af79; fill-rule:evenodd;"/><path d="M2049.52,617.11s3.56,28.68,5.63,38.63c2.15,10.44,5.47,43.27-16.08,48.57-21.63,5.39-14.92-35.64-15.34-46.25-.33-10.61-6.47-47.58-6.47-47.58l32.25,6.63Z" style="fill:#f9af79; fill-rule:evenodd;"/><path d="M2050.68,626.31c-.17,.08-.41,.25-.66,.33-11.94,6.88-22.3,5.8-30.09,.5-1.41-9.2-2.65-16.66-2.65-16.66l32.25,6.63s.49,3.81,1.16,9.2Z" style="fill:#f27458; fill-rule:evenodd;"/><path d="M2043.06,542.43s12.6,3.56,19.89,16.16c7.29,12.52,10.94,48.65-15.92,64.07-26.86,15.42-45.92-9.28-45.09-32.41,.74-23.04,7.21-53.63,41.11-47.83Z" style="fill:#f9af79; fill-rule:evenodd;"/><path d="M1995.98,580.39c-.33,5.97,2.32,11.02,5.72,11.19,3.48,.17,6.55-4.56,6.88-10.61,.33-5.97-2.32-10.94-5.8-11.19-3.48-.17-6.47,4.56-6.8,10.61Z" style="fill:#f9af79; fill-rule:evenodd;"/><path d="M2039.24,541.52s14.42,37.71,28.68,41.78c14.09,3.98,13.01,22.63,13.01,22.63,0,0,1.82-42.94-11.19-53.55-12.93-10.53-30.5-10.86-30.5-10.86Z" style="fill:#20386f; fill-rule:evenodd;"/><path d="M2061.79,590.67c-2.15,5.89-.75,11.94,3.23,13.43,3.9,1.41,8.87-2.16,11.11-8.04,2.24-5.89,.75-11.85-3.23-13.35-3.98-1.49-8.87,2.07-11.11,7.96Z" style="fill:#f9af79; fill-rule:evenodd;"/><path d="M1507.59,917.17c-14.26-4.06-14.59-1.41-16.41-1.99-2.16-.66-19.56-23.79-19.56-23.79,0,0-51.89-67.72-54.54-71.54l-17.08-88.11-48.49,.08s21.22,95.16,23.29,99.88c1.99,4.72,83.97,87.2,90.85,94.74,0,0,4.64,12.27,7.79,19.89,3.15,7.54,9.78,13.1,10.94,15.09,.17,.25,4.73,6.55,12.6,12.68,6.8,5.3,3.15-2.98,3.15-2.98,0,0-10.53-12.1-9.28-12.85,.91-.58,6.22,6.38,13.6,12.27,1.99,1.58,3.89,3.07,5.63,4.39,4.64,3.56,8.46,1.58,4.31-2.9-1.5-1.66-3.98-4.23-5.97-5.8-2.32-1.74-3.73-3.98-5.3-5.72-3.32-3.48-5.64-5.97-5.47-5.97,.33-.08,.25-1.33,2.32,.25,2.49,1.82,6.8,7.04,10.77,9.45,2.24,1.41,6.63,4.56,6.63,4.56,0,0,7.79,3.48,8.29,3.07,2.15-2.16-2.32-5.97-5.64-7.46-1.49-1.99-6.3-5.22-6.3-5.22,0,0-7.96-8.79-6.63-10.03,.58-.5,6.21,4.23,12.6,7.96,5.8,3.4,12.43,5.97,13.43,4.81,1.74-1.82-4.31-6.47-4.31-6.47,0,0-4.47-2.9-5.8-3.98-1.66-1.25-6.14-5.55-6.14-5.55,0,0-15-15.58-13.59-16.58,1.33-1.16,5.97-2.65,7.29-1.99,1.24,.58,2.9,2.98,4.23,3.56,1.24,.74,3.65,.33,4.72-1.24,1.08-1.58-3.81-7.05-3.81-7.05,0,0-3.98-4.39-8.13-5.47Z" style="fill:#f9af79; fill-rule:evenodd;"/><path d="M1431.66,1361.13l-1.49,30.58c-.58,3.9-2.98,13.51-2.98,16.99,.17,13.18,58.69-11.85,45.51-17.57-1.24-.5-7.54-4.39-7.96-8.95-.66-6.88-2.4-20.89-2.4-20.89l-30.67-.17Z" style="fill:#f9af79; fill-rule:evenodd;"/><path d="M1472.53,1391.05s-13.76,4.23-20.81,5.22c-7.13,1.16-16.49-7.21-21.47-4.97-5.47,2.65-4.64,27.52-4.64,27.52,0,0,73.69,3.65,94.5-3.32,8.21-2.74-19.31-15.34-47.58-24.45Z" style="fill:#0e2952; fill-rule:evenodd;"/><path d="M1302.02,1365.44l-1.33,30.59c-.66,3.81-3.07,13.43-2.98,16.99,.17,13.18,58.68-11.86,45.42-17.57-1.16-.58-9.36-7.46-9.78-11.94-.66-6.96-.5-17.99-.5-17.99l-30.84-.08Z" style="fill:#f9af79; fill-rule:evenodd;"/><path d="M1342.97,1395.28s-13.76,4.23-20.81,5.3c-7.04,1.08-16.49-7.29-21.47-5.06-5.47,2.65-5.47,25.45-5.47,25.45,0,0,78.91,4.89,97.31-.66,8.29-2.49-21.22-15.83-49.57-25.03Z" style="fill:#0e2952; fill-rule:evenodd;"/><path d="M1390.72,924.47l25.03,10.44,54.87,249.25-.25,187.25-41.86,1.33s-21.22-163.54-21.38-176.22c-.08-12.68-92.59-221.23-92.59-221.23l76.17-50.81Z" style="fill:#20386f; fill-rule:evenodd;"/><path d="M1371.65,938.39s-16.24,192.55-15.91,225.05c.33,32.41-12.68,214.1-12.68,214.1l-42.03,.17s-3.65-55.21-8.95-136.6c-.83-12.77,.5-38.46-.5-51.72-7.54-94.83-21.39-184.1-15.58-219.58,1-5.72,2.65-20.64,6.3-24.45,27.18-28.68,89.35-6.96,89.35-6.96Z" style="fill:#20386f; fill-rule:evenodd;"/><path d="M1421.38,786.04l-50.9-2.9s-2.98-45.51-3.15-67.14c-.33-26.28-8.7-64.99-5.55-64.32,8.87,1.99,24.12,9.86,31.25,19.65,24.7,33.74,28.35,114.72,28.35,114.72Z" style="fill:#466fb5; fill-rule:evenodd;"/><path d="M1299.54,651.35s-29.01,4.31-36.47,9.95c-8.62,6.46-17.9,20.64-17.9,20.64,0,0,37.3,167.94,37.63,196.28,.25,21.88-6.96,75.76-6.96,75.76,0,0,107.67,5.72,148.21-10.86,0,0-13.43-63.74-13.68-80.65-.17-16.75-17.16-169.34-20.72-179.95-3.23-9.7-9.28-27.02-28.93-31.08-19.73-4.14-61.17-.08-61.17-.08Z" style="fill:#6d96ce; fill-rule:evenodd;"/><path d="M1307,605.92l-6.71,47.08s26.77,55.7,42.36,50.65c13.1-4.14,4.56-53.63,4.56-53.63,0,0-7.46-26.52-5.39-39.87,1.99-13.26-34.81-4.23-34.81-4.23Z" style="fill:#f9af79; fill-rule:evenodd;"/><path d="M1341.81,610.15c1.99-13.26-34.81-4.23-34.81-4.23l-.5,3.9c1,2.65,2.32,4.81,3.98,6.55,8.29,8.7,21.3,13.84,32.41,14.17-1.24-7.13-1.91-14.92-1.08-20.39Z" style="fill:#f27458; fill-rule:evenodd;"/><path d="M1300.28,539.53c-1.08-.33-7.87,53.63,6.22,68.3,14.01,14.67,41.11,19.23,50.73,7.46,10.53-13.01,9.45-70.95-12.27-86.04-21.8-14.92-44.68,10.28-44.68,10.28Z" style="fill:#f9af79; fill-rule:evenodd;"/><path d="M1336.34,500.32c-16.58,3.48-27.27,13.76-31.17,18.15-7.63,.91-17.9,5.22-28.35,22.79-12.76,21.55-2.9,45.26,12.43,56.86,15.33,11.52,15.25,25.12,15.25,25.12l2.32-7.13c1.74-5.31,2.41-10.94,1.74-16.41-.42-3.4-1.08-6.96-2.57-9.86-3.73-7.79,7.79-13.1,10.94-19.64,2.32-5.06,2.4-16.5,6.22-24.7l4.64-6.38s10.69-8.45,21.3-6.22c10.53,2.24,8.62-37.13-12.76-32.58Z" style="fill:#20386f; fill-rule:evenodd;"/><path d="M1316.28,580.14c.17,6.46-2.74,11.85-6.63,12.1-3.81,0-6.96-5.22-7.21-11.77-.08-6.63,2.74-12.02,6.63-12.1,3.81-.08,7.05,5.14,7.21,11.77Z" style="fill:#f9af79; fill-rule:evenodd;"/><path d="M1255.77,673.4c9.78-.33,19.06,63.99,12.93,70.37-6.05,6.38-6.47,85.71-6.47,85.71l92.01-3.32v.08c1.82-1.25,20.97-14.42,23.71-17.24,2.82-2.99,16.91-1.66,20.72,2.4,3.73,4.06-7.13,2.07-10.45,4.31-3.32,2.32,1.41,6.55,1.41,6.55,0,0,23.38,3.07,27.94-1.74,4.47-4.89,16.49-13.18,18.23-8.37,.83,2.57-5.31,10.12-8.79,13.26,4.31-3.32,9.61-6.88,11.44-6.3,3.32,1.16,1.91,5.39,.16,6.63-1.83,1.16-20.22,15.5-23.04,16.58-2.82,.99-45.92,2.49-53.3,4.23,0,0-121.1,28.84-128.07,27.27-6.05-1.49-12.43-40.29-12.76-70.04-.33-29.84,3.89-129.14,34.32-130.38Z" style="fill:#f9af79; fill-rule:evenodd;"/><path d="M1268.37,658.64s-16.99,4.14-34.31,24.04c-15.75,17.99-24.78,118.45-24.78,118.45l55.12,8.37,3.98-48.57c22.88-35.39,28.35-77.59,0-102.29Z" style="fill:#466fb5; fill-rule:evenodd;"/><polygon points="649.52 192.55 809.12 319.12 741.03 368.2 649.52 192.55" style="fill:#c4d1eb; fill-rule:evenodd;"/><polygon points="843.31 296.58 654.95 194.54 899.97 285.22 843.31 296.58" style="fill:#c4d1eb; fill-rule:evenodd;"/><polygon points="843.31 296.58 814.51 378.56 809.12 319.12 649.52 192.55 654.95 194.54 843.31 296.58" style="fill:#9db2d9; fill-rule:evenodd;"/><polygon points="814.51 378.56 778.95 340.84 809.12 319.12 814.51 378.56" style="fill:#859ac6; fill-rule:evenodd;"/><path d="M856.86,345.9c-4.44-2.49-7.71,3.98-3.81,6.22,2.03,1.24,4.06,2.57,6.01,3.9,4.68,2.65,7.71-3.98,4.02-6.13-2.07-1.33-4.14-2.65-6.22-3.98h0Zm-207.64,376.65c1.12,4.64,8.25,2.9,7.05-1.74-.62-2.32-1.16-4.64-1.66-6.96-1.24-4.97-8.21-2.82-7.13,1.49,.58,2.41,1.12,4.81,1.74,7.21h0Zm-4.77-29.34c0,4.31,7.25,4.89,7.25-.42-.12-2.32-.21-4.64-.21-7.04,0-4.81-7.29-4.81-7.29,0,0,2.49,.08,4.97,.25,7.46h0Zm1.82-29.84c-.62,4.89,6.01,5.97,7.13,1.33,.42-2.24,.95-4.56,1.54-6.8,1.2-4.81-5.89-6.38-7-1.91-.66,2.4-1.2,4.89-1.66,7.38h0Zm9.45-28.43c-2.11,3.73,3.9,7.79,6.55,3.23,.95-1.99,2.11-4.39,3.28-6.22,2.44-4.23-3.98-7.71-6.26-3.65-1.28,2.07-2.49,4.39-3.56,6.63h0Zm16.5-25.03c-3.15,3.81,2.57,8.37,5.51,4.81,1.53-1.82,3.11-3.57,4.72-5.31,3.28-3.23-1.74-8.54-5.22-5.06-1.7,1.82-3.4,3.65-5.02,5.55h0Zm21.59-20.47c-3.94,3.32,1.04,8.62,4.48,5.8,1.82-1.49,3.77-2.9,5.68-4.23,3.98-2.82-.33-8.7-4.14-5.97-2.03,1.41-4.02,2.9-6.01,4.39h0Zm24.95-16.08c-4.39,2.49-.54,8.7,3.4,6.38,2.11-1.08,4.23-2.16,6.38-3.23,4.64-2.65,.45-8.62-3.23-6.55-2.2,1.16-4.39,2.24-6.55,3.4h0Zm26.94-12.18c-4.52,1.74-1.95,8.54,2.53,6.8l6.71-2.4c4.77-1.74,1.91-8.46-2.32-6.88-2.32,.83-4.6,1.66-6.92,2.49h0Zm28.18-8.62c-4.72,1.16-2.9,8.21,1.7,7.04l7-1.66c4.93-1.16,2.82-8.21-1.53-7.05l-7.17,1.66h0Zm28.97-5.47c-4.72,.58-3.85,7.79,.91,7.21l7.17-.83c4.93-.66,3.77-7.79-.79-7.29-2.45,.33-4.85,.58-7.29,.91h0Zm29.22-2.4c-4.85,.66-4.39,7.29,.45,7.29,2.45-.17,4.85-.25,7.34-.5,5.14-.58,3.73-7.79-.58-7.21l-7.21,.42h0Zm28.72-2.57c-4.68,.58-3.85,7.79,.95,7.21,2.4-.33,4.85-.66,7.25-.99,4.52-.58,3.9-7.88-1.08-7.21-2.36,.33-4.76,.66-7.13,.99h0Zm28.22-5.06c-4.64,1.16-2.9,8.21,1.74,7.05,2.4-.58,4.81-1.24,7.17-1.91,4.31-1.08,2.94-8.21-2.03-6.96-2.24,.66-4.6,1.24-6.88,1.82h0Zm26.94-8.95c-4.23,1.74-1.58,8.54,2.98,6.55,2.28-1,4.56-2.16,6.76-3.32,4.31-2.41,.54-8.62-3.48-6.38-1.91,1.16-4.23,2.24-6.26,3.15h0Zm23.08-15.17c-3.36,3.32,1.74,8.54,5.18,5.14,1.86-1.82,3.56-3.73,5.14-5.8,2.78-3.32-2.45-8.46-5.8-4.39-1.37,1.82-2.94,3.48-4.52,5.06h0Zm12.93-23.21c-1.08,4.23,5.88,6.47,7.13,1.41,.54-2.57,.83-5.06,.99-7.71,0-5.22-7.25-4.72-7.25-.33-.16,2.24-.41,4.39-.87,6.63h0Zm-1.62-27.02c1.08,4.31,8.25,2.9,6.96-1.99-.62-2.49-1.45-4.89-2.28-7.21-1.74-4.48-8.5-1.91-6.84,2.49,.79,2.24,1.53,4.48,2.15,6.71h0Zm-11.31-25.78c2.32,4.06,8.7,.58,6.3-3.65-.99-1.99-2.65-4.39-3.9-6.38-2.11-3.65-8.75-.66-6.09,3.98,1.08,1.58,2.86,4.39,3.69,6.05h0Zm-16.29-23.38c3.15,3.81,8.62-.99,5.68-4.56-1.58-1.91-3.15-3.81-4.77-5.72-2.94-3.56-8.66,.99-5.51,4.81,1.58,1.82,3.11,3.65,4.6,5.47h0Zm-19.27-21.22c3.36,3.32,8.54-1.74,5.14-5.22-1.7-1.66-3.52-3.48-5.3-5.14-3.19-3.15-8.58,1.74-4.97,5.39,1.74,1.58,3.44,3.23,5.14,4.97h0Zm-21.3-19.23c3.56,2.98,8.33-2.49,4.56-5.64l-5.72-4.64c-3.44-2.82-8.41,2.49-4.48,5.72,1.87,1.41,3.81,3.07,5.64,4.56Z" style="fill:#859ac6; fill-rule:evenodd;"/><polygon points="1214.33 217.92 1401.49 294.76 1350.1 360.4 1214.33 217.92" style="fill:#c4d1eb; fill-rule:evenodd;"/><polygon points="1428.01 263.75 1219.96 218.33 1478.91 237.31 1428.01 263.75" style="fill:#c4d1eb; fill-rule:evenodd;"/><polygon points="1428.01 263.75 1423.04 349.96 1401.49 294.76 1214.33 217.92 1219.96 218.33 1428.01 263.75" style="fill:#9db2d9; fill-rule:evenodd;"/><polygon points="1423.04 349.96 1378.78 323.85 1401.49 294.76 1423.04 349.96" style="fill:#859ac6; fill-rule:evenodd;"/><path d="M1471.29,343.58c-6.14-.75-4.73-9.62,.91-8.95l8.95,.99c6.05,.75,4.73,9.7-1,8.95l-8.87-.99h0Zm307.02,357.09c3.98,0,5.97,4.89,3.23,7.54-.66,.83-1.99,1.41-3.23,1.41h-5.8c-5.8,0-5.97-9.03,.08-9.03l5.72,.08h0Zm-32.49-.83c5.3,0,6.13,8.95-.5,8.95l-8.95-.58c-6.46-.75-4.72-9.62,.66-8.95l8.79,.58h0Zm-35.31-3.32c5.64,.66,4.81,9.62-1.33,8.87l1.33-8.87h0Zm-34.31-7.63c5.39,1.99,3.23,10.03-2.82,8.54-2.9-.91-5.8-1.99-8.7-3.07-5.47-2.32-2.24-10.44,3.4-8.37,2.65,1.08,5.39,2.07,8.12,2.9h0Zm-30.42-15.34c4.64,3.9-1.24,10.69-5.72,6.96-2.49-2.07-4.81-4.23-6.96-6.63-4.06-4.81,3.15-10.28,6.63-5.97,1.91,2.07,3.89,3.89,6.05,5.63h0Zm-16.83-27.19c.83,6.38-8.21,6.88-8.87,1.49-.58-3.23-.91-6.3-1.08-9.53,0-6.22,9.04-5.89,9.04-.25,.08,2.82,.41,5.47,.91,8.29h0Zm2.4-33.65c-1.41,5.55-10.19,3.65-8.62-2.32,.74-2.98,1.66-5.97,2.57-8.87,2.32-5.88,10.53-2.32,8.62,2.9-1,2.73-1.82,5.55-2.57,8.29h0Zm12.35-32.82c-2.16,5.14-10.61,1.91-8.13-3.81,1.33-2.73,2.57-5.47,3.9-8.2,3.32-5.72,10.69-.58,8.04,3.98-1.33,2.65-2.48,5.3-3.81,8.04h0Zm16.08-31.91c-3.15,5.47-10.69,.58-7.96-4.23l4.23-7.88c3.07-5.47,10.69-.66,7.96,4.15-1.41,2.65-2.9,5.3-4.23,7.96h0Zm16.74-31.91c-3.32,5.72-10.69,.58-8.04-3.98l3.9-8.04c3.15-5.39,10.45-1.41,8.12,3.9l-3.98,8.12h0Zm14.59-33.57c-2.07,5.39-10.11,3.32-8.62-2.73,1-2.82,1.82-5.47,2.49-8.29,1.49-5.72,10.2-3.65,8.79,2.15-.83,3.07-1.66,5.97-2.65,8.87h0Zm4.48-37.22c.74,5.89-8.12,6.96-8.95,1.08-.33-2.73-.83-5.55-1.49-8.29-1.49-5.8,7.29-7.88,8.7-2.24,.74,3.15,1.41,6.22,1.74,9.45h0Zm-13.76-35.23c3.48,4.97-3.98,10.03-7.29,5.31-1.66-2.32-3.48-4.48-5.3-6.63-4.14-4.89,3.15-10.2,6.63-6.05,2.15,2.32,4.14,4.89,5.97,7.38h0Zm-27.19-25.61c4.64,3.32,.41,10.61-4.97,7.46-2.49-1.58-4.89-3.15-7.46-4.64-4.97-2.82-.66-10.78,4.64-7.71,2.65,1.57,5.3,3.15,7.79,4.89h0Zm-32.49-17.16c5.55,2.32,1.99,10.53-3.4,8.29-2.74-1.16-5.47-2.24-8.21-3.32-5.47-2.07-2.4-10.53,3.15-8.37,2.82,1.08,5.64,2.16,8.46,3.4h0Zm-34.32-12.02c5.3,1.33,3.56,10.2-2.48,8.62l-8.62-2.32c-5.64-1.41-3.56-10.19,2.32-8.7l8.79,2.4h0Zm-35.31-8.62c6.22,1.58,3.48,10.11-1.82,8.79l-8.7-1.74c-5.72-1.41-4.39-9.53,1.74-8.79l8.79,1.74h0Zm-35.64-6.3c5.64,.66,4.81,9.62-1.24,8.87l-8.87-1.33c-5.63-.66-4.81-9.62,1.24-8.87l8.87,1.33Z" style="fill:#859ac6; fill-rule:evenodd;"/></svg>