<?xml version="1.0" encoding="UTF-8"?><svg id="a" xmlns="http://www.w3.org/2000/svg" viewBox="0 0 1865.87 1284.49"><path d="M1751.58,1040.56s50.83-26.22,41.51-90.58c-9.29-64.37,30.08-84.74,40.06-103.87,10-19.17-12.4-50.06-9.85-77.08,2.53-27.04,33.7-34.29,19.1-71.37-14.6-37.1-2.23-51.19,17.01-90.91,19.22-39.75-9.27-100.46-22.83-100.14-13.57,.36,2.97,14.54-8.94,40.96-11.92,26.42-62.16,34.45-77.87,56.53-15.74,22.08,11.92,51.35-6.02,81.17-17.94,29.82-71.39,20.56-85.54,49.5-14.12,28.91,19.56,63.59,9.78,93.93-9.81,30.34-45.91,47.53-61.09,71.88-15.19,24.38-43.64,71.07,2.95,126.78,46.59,55.73,141.75,13.21,141.75,13.21h0Zm0,0" style="fill:#becce7; fill-rule:evenodd;"/><path d="M1793.74,975.29c.26-2.56,.42-5.18,.49-7.87l-138.12,77.61,12.21-31.73c.07-.13,.14-.26,.16-.43l6.28-16.25,116.95-65.72c0-2.68,.09-5.28,.28-7.77l-113.51,63.79,11.05-28.69,108.03-60.74c1.4-3.66,2.98-7.03,4.7-10.2l-109.01,61.23,5.5-14.25c.07-.13,.13-.29,.16-.42l23.99-62.35,108.17-60.78c-.64-2.17-1.29-4.31-1.97-6.5l-102.44,57.59,11.98-31.15,85.19-47.88c-.36-2.39-.59-4.79-.68-7.19l-80.78,45.4,8.99-23.4c.06-.1,.1-.24,.13-.33l26.19-68.05,63.23-35.52c-.78-2.24-1.49-4.38-2.07-6.44l-57.43,32.28,22.85-59.38c.06-.13,.1-.24,.16-.36l37.72-98.07c.68-1.68-.19-3.59-1.88-4.24-1.72-.68-3.62,.17-4.27,1.88l-34.32,89.1-19.58-66.95c-2.05,1-4.05,2.04-6.03,3.08l21.69,74.04-25.77,66.96c-.07,.1-.07,.19-.1,.29l-23.83,61.91-37.62-80.68c-2.14,.68-4.27,1.33-6.41,1.94l40.74,87.32-9.11,23.61-49.56-105.49c-2.14,.75-4.22,1.52-6.22,2.37l51.8,110.18-.82,.41c-1.58,.91-2.17,2.92-1.25,4.51,.25,.49,.62,.84,1,1.13l-13.38,34.77c-.06,.1-.1,.2-.12,.32l-21.67,56.28-36.71-78.09c-1.47,1.97-3.02,3.88-4.64,5.76l38.04,80.91-5.57,14.47-40.73-86.64c-1.65,1.65-3.37,3.24-5.05,4.83l42.49,90.39-14.22,36.91c-.06,.1-.06,.19-.1,.29l-3.94,10.24-52.16-110.99c-1.66,1.94-3.17,3.92-4.53,5.93l53.38,113.61-15.01,39.05c-.07,.09-.07,.19-.11,.29l-.06,.1c2.6,.8,5.25,1.52,7.9,2.1l139.32-78.29Zm0,0" style="fill:#cfdaee; fill-rule:evenodd;"/><path d="M1684.86,912.97s56.01-38.79,35.1-113.39c-20.92-74.56,22.44-104.68,31.28-128.83,8.84-24.15-22.34-57.17-23.51-89.52-1.16-32.31,34.58-45.66,11.59-87.22-22.96-41.54-10.52-60.09,6.09-109.99,16.61-49.89-26.42-117.2-42.35-114.74-15.95,2.49,5.73,16.73-4.27,49.76-10,33.03-68.09,50.25-83.27,78.74-15.14,28.5,21.98,58.8,5.37,96.77-16.58,37.98-81.14,35.29-93.37,71.62-12.25,36.36,32.89,72.1,25.99,109.43-6.9,37.33-46.88,63.17-61.1,94.31-14.18,31.08-40.6,90.6,23.03,149.26,63.58,58.63,169.42-6.22,169.42-6.22h0Zm0,0" style="fill:#cfdaee; fill-rule:evenodd;"/><path d="M1724.58,829.37c-.1-3.04-.29-6.15-.65-9.35l-151.16,112.93,9.54-39.37c.06-.16,.1-.32,.14-.49l4.88-20.2,127.98-95.61c-.39-3.18-.68-6.25-.84-9.2l-124.23,92.8,8.61-35.61,118.27-88.33c1.07-4.52,2.43-8.77,3.95-12.79l-119.3,89.1,4.3-17.67c.06-.2,.1-.36,.13-.55l18.75-77.32,118.38-88.43c-1.08-2.43-2.21-4.88-3.31-7.37l-112.15,83.79,9.36-38.59,93.25-69.68c-.78-2.79-1.46-5.59-1.91-8.38l-88.41,66.04,7.02-29.03c.06-.17,.1-.3,.1-.43l20.47-84.37,69.21-51.71c-1.3-2.49-2.43-4.92-3.43-7.25l-62.87,46.95,17.87-73.66c.06-.16,.06-.29,.1-.46l29.5-121.6c.52-2.11-.78-4.25-2.91-4.77-2.1-.48-4.23,.81-4.76,2.92l-26.77,110.5-33.45-76.05c-2.23,1.49-4.47,3.01-6.63,4.53l37,84.15-20.1,83.01c-.07,.13-.07,.23-.11,.36l-18.62,76.77-56.85-89.49c-2.4,1.14-4.83,2.23-7.25,3.3l61.52,96.84-7.09,29.27-74.79-116.91c-2.39,1.19-4.73,2.43-6.99,3.72l78.12,122.16-.84,.61c-1.75,1.33-2.1,3.79-.81,5.54,.36,.49,.84,.88,1.36,1.17l-10.46,43.12c-.06,.13-.06,.26-.06,.39l-16.97,69.81-55.4-86.61c-1.39,2.55-2.9,5.08-4.53,7.54l57.37,89.68-4.37,17.97-61.42-96.07c-1.71,2.21-3.46,4.35-5.24,6.48l64.11,100.21-11.1,45.78c-.07,.12-.07,.26-.11,.35l-3.04,12.69-78.71-123.03c-1.65,2.52-3.13,5.08-4.47,7.71l80.59,125.94-11.75,48.44c0,.1-.06,.23-.06,.32l-.06,.17c3.2,.55,6.4,.97,9.65,1.23l152.49-113.9Zm0,0" style="fill:#e9eef7; fill-rule:evenodd;"/><path d="M259.73,1172.92c143.42,0,259.73,24.99,259.73,55.78s-116.31,55.79-259.73,55.79S0,1259.5,0,1228.7s116.26-55.78,259.73-55.78h0Zm0,0" style="fill:#becce7; fill-rule:evenodd;"/><path d="M127.07,0H1546.73c18.71,0,35.75,7.67,48.15,20.04l.06,.06c12.37,12.4,20.04,29.43,20.04,48.14v971.77c0,18.71-7.67,35.74-20.04,48.14l-.06,.06c-12.4,12.37-29.44,20.04-48.15,20.04H127.07c-18.71,0-35.74-7.68-48.14-20.04l-.06-.06c-12.37-12.4-20.04-29.43-20.04-48.14V68.25c0-18.71,7.67-35.75,20.04-48.14l.06-.06C91.33,7.67,108.36,0,127.07,0h0ZM1546.73,38.66H127.07c-8.19,0-15.57,3.3-20.92,8.61l-.06,.1c-5.31,5.31-8.64,12.72-8.64,20.88v971.77c0,8.19,3.34,15.57,8.64,20.91l.06,.07c5.34,5.31,12.72,8.64,20.92,8.64H1546.73c8.16,0,15.57-3.33,20.89-8.64l.09-.07c5.31-5.34,8.61-12.72,8.61-20.91V68.25c0-8.16-3.3-15.57-8.61-20.88l-.09-.1c-5.32-5.31-12.73-8.61-20.89-8.61h0Zm0,0" style="fill:#becce7; fill-rule:evenodd;"/><path d="M1546.73,38.66H127.07c-8.19,0-15.57,3.3-20.92,8.61l-.06,.1c-5.31,5.31-8.64,12.72-8.64,20.88v971.77c0,8.19,3.34,15.57,8.64,20.91l.06,.07c5.34,5.31,12.72,8.64,20.92,8.64H1546.73c8.16,0,15.57-3.33,20.89-8.64l.09-.07c5.31-5.34,8.61-12.72,8.61-20.91V68.25c0-8.16-3.3-15.57-8.61-20.88l-.09-.1c-5.32-5.31-12.73-8.61-20.89-8.61h0Zm0,0" style="fill:#e9eef7; fill-rule:evenodd;"/><path d="M156.48,66.3H911.69c17.61,0,31.92,14.31,31.92,31.93V625.71c0,17.61-14.31,31.93-31.92,31.93H156.48c-17.62,0-31.93-14.31-31.93-31.93V98.23c0-17.61,14.31-31.93,31.93-31.93h0Zm0,0" style="fill:#becce7; fill-rule:evenodd;"/><path d="M156.48,85.67H911.69c6.93,0,12.56,5.67,12.56,12.56V625.71c0,6.93-5.63,12.57-12.56,12.57H156.48c-6.94,0-12.57-5.64-12.57-12.57V98.23c0-6.9,5.63-12.56,12.57-12.56h0Zm0,0" style="fill:#e9eef7; fill-rule:evenodd;"/><rect x="172.72" y="136.6" width="385.55" height="282.71" style="fill:#fff;"/><rect x="195.84" y="347.76" width="16.9" height="49.56" style="fill:#c3b7eb;"/><rect x="220.84" y="330.18" width="16.9" height="67.15" style="fill:#c3b7eb;"/><rect x="245.83" y="297.51" width="16.9" height="99.82" style="fill:#998cce;"/><rect x="270.82" y="309.23" width="16.9" height="88.1" style="fill:#becce7;"/><rect x="295.82" y="276.27" width="16.9" height="121.05" style="fill:#becce7;"/><rect x="320.82" y="255.65" width="16.9" height="141.68" style="fill:#becce7;"/><rect x="345.81" y="249.79" width="16.9" height="147.54" style="fill:#becce7;"/><rect x="370.8" y="225.93" width="16.9" height="171.4" style="fill:#becce7;"/><rect x="395.81" y="233.47" width="16.9" height="163.86" style="fill:#becce7;"/><rect x="420.79" y="202.48" width="16.9" height="194.84" style="fill:#becce7;"/><rect x="445.79" y="194.13" width="16.9" height="203.2" style="fill:#becce7;"/><rect x="470.78" y="186.16" width="16.9" height="211.17" style="fill:#becce7;"/><rect x="495.78" y="171.08" width="16.9" height="226.25" style="fill:#becce7;"/><rect x="520.77" y="155.18" width="16.9" height="242.15" style="fill:#becce7;"/><path d="M608.81,136.6h263.55c10,0,18.16,8.16,18.16,18.16v179.46c0,10.01-8.16,18.17-18.16,18.17h-263.55c-10.01,0-18.16-8.15-18.16-18.17V154.76c0-10,8.16-18.16,18.16-18.16h0Zm0,0" style="fill:#fff; fill-rule:evenodd;"/><path d="M609.33,329.47h12.66v-52.74h6.55v52.74h22.53v-115.81h6.54v115.81h22.53v-71.71h6.54v71.71h22.5v-85.44h6.54v85.44h22.53V198.24h6.54v131.22h22.54v-48.53h6.54v48.53h22.51v-98.04h6.53v98.04h22.53v-71.71h6.54v71.71h22.53v-115.33h6.54v115.33h12.66v6.54h-264.39v-6.54Zm0,0" style="fill:#cfdaee; fill-rule:evenodd;"/><path d="M654.33,185.65c4.37,0,7.96,3.56,7.96,7.96v40.11c0,4.38-3.59,7.96-7.96,7.96s-7.96-3.59-7.96-7.96v-40.11c0-4.41,3.56-7.96,7.96-7.96h0Zm203.46,.45c4.37,0,7.96,3.6,7.96,7.97v40.12c0,4.4-3.59,7.96-7.96,7.96s-8-3.56-8-7.96v-40.12c0-4.37,3.6-7.97,8-7.97h0Zm-29.07,43.62c4.37,0,7.96,3.59,7.96,7.96v40.11c0,4.37-3.59,7.96-7.96,7.96s-7.96-3.59-7.96-7.96v-40.11c0-4.37,3.56-7.96,7.96-7.96h0Zm-29.07-26.32c4.41,0,7.96,3.59,7.96,7.97v40.11c0,4.37-3.55,7.96-7.96,7.96s-7.96-3.6-7.96-7.96v-40.11c0-4.37,3.59-7.97,7.96-7.97h0Zm-29.04,49.5c4.37,0,7.96,3.6,7.96,7.96v40.11c0,4.4-3.59,8-7.96,8s-8-3.6-8-8v-40.11c0-4.37,3.59-7.96,8-7.96h0Zm-58.14-36.91c4.39,0,7.96,3.59,7.96,8v40.12c0,4.37-3.57,7.96-7.96,7.96s-7.97-3.59-7.97-7.96v-40.12c0-4.41,3.59-8,7.97-8h0Zm29.07-45.75c4.37,0,7.96,3.57,7.96,7.96v40.12c0,4.37-3.59,7.96-7.96,7.96s-7.96-3.6-7.96-7.96v-40.12c0-4.4,3.56-7.96,7.96-7.96h0Zm-58.12,59.48c4.37,0,7.96,3.59,7.96,7.96v40.11c0,4.37-3.59,7.96-7.96,7.96s-8-3.59-8-7.96v-40.11c0-4.37,3.59-7.96,8-7.96h0Zm-58.15,18.97c4.4,0,7.96,3.59,7.96,8v40.08c0,4.4-3.56,8-7.96,8s-7.96-3.6-7.96-8v-40.08c0-4.4,3.59-8,7.96-8h0Zm0,0" style="fill:#becce7; fill-rule:evenodd;"/><path d="M853.19,531.41l-121.38-14.28-97.88,41.18c22.76,15.58,58.12,25.58,97.88,25.55,59.44-.06,109.11-22.5,121.38-52.45h0Zm0,0" style="fill:#becce7; fill-rule:evenodd;"/><path d="M613.63,536l97.88-41.21-52.29-60.48c-42.51,10.62-71.97,33.77-71.97,60.58,0,15.54,9.84,29.79,26.39,41.12h0Zm0,0" style="fill:#becce7; fill-rule:evenodd;"/><path d="M744.56,485.3l121.38,14.28c1.88-4.63,2.88-9.45,2.88-14.38,0-33.41-45.75-61.07-105.42-65.89l-18.84,65.98Zm0,0" style="fill:#becce7; fill-rule:evenodd;"/><path d="M726.82,500.29l18.85-65.98c-6.16-.49-12.43-.74-18.85-.74-18.68,.03-36.42,2.27-52.29,6.25l52.29,60.48Zm0,0" style="fill:#becce7; fill-rule:evenodd;"/><path d="M613.63,536c-16.54-11.33-26.39-25.58-26.39-41.12v24.31c0,15.51,9.84,29.79,26.39,41.09v-24.28Zm0,0" style="fill:#fff; fill-rule:evenodd;"/><path d="M853.19,531.41c-12.27,29.95-61.94,52.39-121.38,52.45-39.76,.04-75.11-9.97-97.88-25.55v24.32c22.76,15.57,58.12,25.54,97.88,25.51,59.44-.04,109.11-22.47,121.38-52.42v-24.31Zm0,0" style="fill:#fff; fill-rule:evenodd;"/><path d="M865.95,499.58v24.28c1.88-4.63,2.88-9.45,2.88-14.37v-24.28c0,4.92-1,9.75-2.88,14.38h0Zm0,0" style="fill:#fff; fill-rule:evenodd;"/><path d="M865.95,499.58l-121.38-14.28v22.7l121.38,15.86v-24.28Zm0,0" style="fill:#fff; fill-rule:evenodd;"/><path d="M613.63,560.28l97.88-42.44v-23.05l-97.88,41.21v24.28Zm0,0" style="fill:#fff; fill-rule:evenodd;"/><path d="M735.67,517.58l8.9-32.19v-.1l1.11-3.82v-47.17l-18.85,65.98v18.94l4.99-2.1,3.86,.46Zm0,0" style="fill:#fff; fill-rule:evenodd;"/><path d="M726.82,500.29l-52.29-60.48v12.2l36.97,42.78v11.91l12.6,13.67,2.72-1.14v-18.94Zm0,0" style="fill:#fff; fill-rule:evenodd;"/><path d="M351.61,522.76l-170.93,.09c-4.73,0-8.58-3.86-8.58-8.58s3.85-8.61,8.58-8.61l170.93-.1c4.72,0,8.57,3.85,8.57,8.58s-3.85,8.61-8.57,8.61h0Zm193.09-60.42l-364.01,.26c-4.73,0-8.58-3.85-8.58-8.58s3.85-8.61,8.58-8.61l364.01-.26c4.73,0,8.61,3.85,8.61,8.58s-3.89,8.62-8.61,8.62h0Zm0,30.14l-364.01,.23c-4.73,.02-8.58-3.86-8.58-8.59s3.85-8.58,8.58-8.58l364.01-.26c4.73-.03,8.61,3.85,8.61,8.58s-3.89,8.58-8.61,8.62h0Zm0,0" style="fill:#fff; fill-rule:evenodd;"/><path d="M351.61,613.26l-170.93,.09c-4.73,0-8.58-3.85-8.58-8.58s3.85-8.61,8.58-8.61l170.93-.1c4.72,0,8.57,3.86,8.57,8.58s-3.85,8.62-8.57,8.62h0Zm193.09-60.42l-364.01,.27c-4.73,0-8.58-3.89-8.58-8.62s3.85-8.58,8.58-8.58l364.01-.27c4.73,0,8.61,3.86,8.61,8.58s-3.89,8.61-8.61,8.61h0Zm0,30.11l-364.01,.27c-4.73,0-8.58-3.86-8.58-8.59s3.85-8.61,8.58-8.61l364.01-.26c4.73,0,8.61,3.89,8.61,8.61s-3.89,8.58-8.61,8.58h0Zm0,0" style="fill:#fff; fill-rule:evenodd;"/><path d="M1023.52,66.3h497.92c14.54,0,26.39,11.89,26.39,26.39V392.63c0,14.54-11.85,26.42-26.39,26.42h-497.92c-14.5,0-26.39-11.88-26.39-26.42V92.7c0-14.51,11.88-26.39,26.39-26.39h0Zm0,0" style="fill:#fff; fill-rule:evenodd;"/><path d="M1066,270.19l118.53-63.14,57.57,24.19,59.28-78.35,58.6,57.53,57.96-79.74,61.22,37.56-3.53,5.79-55.88-34.28-58.93,81.04-58.67-57.66-57.82,76.45-59.52-25.03-115.65,61.65-3.17-5.99Zm0,0" style="fill:#becce7; fill-rule:evenodd;"/><rect x="1048.39" y="321.09" width="38.4" height="73.17" style="fill:#becce7;"/><rect x="1106.93" y="297.45" width="38.4" height="96.81" style="fill:#becce7;"/><rect x="1165.5" y="257.3" width="38.37" height="136.95" style="fill:#becce7;"/><rect x="1224.03" y="285.24" width="38.4" height="109.01" style="fill:#becce7;"/><rect x="1282.57" y="210.61" width="38.4" height="183.64" style="fill:#becce7;"/><rect x="1341.11" y="275.14" width="38.4" height="119.12" style="fill:#becce7;"/><rect x="1399.65" y="186.2" width="38.4" height="208.06" style="fill:#becce7;"/><rect x="1458.22" y="213.46" width="38.37" height="180.79" style="fill:#becce7;"/><path d="M1067.59,261.7c6.34,0,11.46,5.16,11.46,11.47s-5.12,11.49-11.46,11.49-11.46-5.15-11.46-11.49,5.12-11.47,11.46-11.47h0Zm0,0" style="fill:#becce7; fill-rule:evenodd;"/><path d="M1243.23,223.92c6.31,0,11.46,5.12,11.46,11.46s-5.15,11.47-11.46,11.47-11.49-5.12-11.49-11.47,5.15-11.46,11.49-11.46h0Zm0,0" style="fill:#becce7; fill-rule:evenodd;"/><path d="M1184.54,199.83c6.32,0,11.47,5.15,11.47,11.46s-5.15,11.49-11.47,11.49-11.49-5.14-11.49-11.49,5.15-11.46,11.49-11.46h0Zm0,0" style="fill:#becce7; fill-rule:evenodd;"/><path d="M1301.77,146.54c6.35,0,11.46,5.12,11.46,11.46s-5.12,11.47-11.46,11.47-11.45-5.12-11.45-11.47,5.12-11.46,11.45-11.46h0Zm0,0" style="fill:#becce7; fill-rule:evenodd;"/><path d="M1360.41,204.1c6.34,0,11.45,5.15,11.45,11.49s-5.12,11.46-11.45,11.46-11.5-5.15-11.5-11.46,5.15-11.49,11.5-11.49h0Zm0,0" style="fill:#becce7; fill-rule:evenodd;"/><path d="M1418.85,123.74c6.35,0,11.49,5.11,11.49,11.46s-5.15,11.46-11.49,11.46-11.46-5.12-11.46-11.46,5.15-11.46,11.46-11.46h0Zm0,0" style="fill:#becce7; fill-rule:evenodd;"/><path d="M1477.42,159.65c6.31,0,11.46,5.15,11.46,11.46s-5.15,11.5-11.46,11.5-11.49-5.16-11.49-11.5,5.15-11.46,11.49-11.46h0Zm0,0" style="fill:#becce7; fill-rule:evenodd;"/><path d="M1111.78,760.67l-131-6.09c11.33-96.12,84.31-173.34,178.3-191.08l15.15,130.24c-31.15,9.33-55.27,34.94-62.46,66.93h0Zm0,0" style="fill:#becce7; fill-rule:evenodd;"/><path d="M1106.67,981.02l63.94-114.52c9.32,3.24,19.33,4.99,29.72,4.99,30.34,0,57.18-14.86,73.67-37.69l118.17,56.88c-38.15,66.37-109.76,111.09-191.84,111.09-33.48,0-65.24-7.45-93.67-20.76h0Zm0,0" style="fill:#becce7; fill-rule:evenodd;"/><path d="M1142.9,851l-52.09,93.25c-50.86-34.16-84.96-91.43-87.15-156.8l106.65,4.99c3.04,23.54,15.08,44.26,32.6,58.57h0Zm0,0" style="fill:#becce7; fill-rule:evenodd;"/><path d="M1287.82,805.15c2.17-7.77,3.33-15.96,3.33-24.45,0-48.3-37.72-87.78-85.31-90.62l-22.41-192.84c5.6-.32,11.23-.48,16.9-.48,156.83,0,283.98,127.11,283.98,283.95,0,38.5-7.67,75.21-21.53,108.66l-174.96-84.21Zm0,0" style="fill:#becce7; fill-rule:evenodd;"/><path d="M157.93,687.01H904.6c18.36,0,33.39,9.58,33.39,21.3v308.81c0,11.75-15.03,21.34-33.39,21.34H157.93c-18.35,0-33.38-9.58-33.38-21.34v-308.81c0-11.72,15.03-21.3,33.38-21.3h0Zm0,0" style="fill:#becce7; fill-rule:evenodd;"/><path d="M163.11,703.13H899.42c7.32,0,13.31,3.82,13.31,8.49v302.2c0,4.7-5.99,8.52-13.31,8.52H163.11c-7.31,0-13.31-3.82-13.31-8.52v-302.2c0-4.67,6-8.49,13.31-8.49h0Zm0,0" style="fill:#e9eef7; fill-rule:evenodd;"/><path d="M199.5,735.35h37.23v248.72h-37.23v-248.72Zm626.31,0h37.23v248.72h-37.23v-248.72Zm-62.63,0h37.2v248.72h-37.2v-248.72Zm-62.62,0h37.2v248.72h-37.2v-248.72Zm-62.65,0h37.24v248.72h-37.24v-248.72Zm-62.62,0h37.2v248.72h-37.2v-248.72Zm-62.65,0h37.23v248.72h-37.23v-248.72Zm-62.62,0h37.2v248.72h-37.2v-248.72Zm-62.62,0h37.2v248.72h-37.2v-248.72Zm-62.65,0h37.24v248.72h-37.24v-248.72Zm-62.61,0h37.19v248.72h-37.19v-248.72Zm0,0" style="fill:#fff; fill-rule:evenodd;"/><path d="M199.5,874.14h37.23v109.92h-37.23v-109.92Zm626.31-101.01h37.23v210.94h-37.23v-210.94Zm-62.63,45h37.2v165.94h-37.2v-165.94Zm-62.62-15.28h37.2v181.21h-37.2v-181.21Zm-62.65,56.85h37.24v124.36h-37.24v-124.36Zm-62.62-28.85h37.2v153.21h-37.2v-153.21Zm-62.65,87.42h37.23v65.8h-37.23v-65.8Zm-62.62-41.57h37.2v107.37h-37.2v-107.37Zm-62.62-67.08h37.2v174.45h-37.2v-174.45Zm-62.65,37.36h37.24v137.09h-37.24v-137.09Zm-62.61,46.69h37.19v90.4h-37.19v-90.4Zm0,0" style="fill:#becce7; fill-rule:evenodd;"/><path d="M77.6,315.09c-15.96-23.41,18.58-29.4,18.26-55.01-.26-17.64,10.78-36.03,7.48-53.64-6.77-36.01,7.28-46.95,7.38-49.67,.84-27.29,17.16-28.01,33.41-37.2,28.85-16.35,53.91,3.63,62.1,4.18,41.67,2.72,18.62,20.65,37.27,36.78,15.37,13.31,8.09,23.41,6.5,31.41-.71,3.59-4.05,18.41,6.61,25.9,15.57,11-.4,40.37,8.8,43.16,35.42,10.72,21.17,15.15,20.2,39.88-.29,7.93-7.92,13.92-12.92,19.75-61-19.1-102.96,56.82-195.1-5.54h0Zm0,0" style="fill:#2b478b; fill-rule:evenodd;"/><path d="M131.86,282.23c1.81-4.18,6.64-6.8,8.26-8.12,17.65,9.55,36.37,15.44,56.01,15.6-.71,11.21-2.36,22.99-4.63,35.62-32.44-25.23-52.31-39.6-59.64-43.09h0Zm0,0" style="fill:#ed7d2b; fill-rule:evenodd;"/><path d="M210.05,280.81c4.8,10.07,8.03,19.49,9.71,28.23-5.15-9.26-10.91-14.92-23.64-19.33,4.05-4.27,3.72-9.84,5.37-14.31,4.57,2.82,7.42,4.6,8.55,5.41h0Zm0,0" style="fill:#ed7d2b; fill-rule:evenodd;"/><path d="M223.94,280.9c49.02,124.58,7.67,114.91-98.49,2.69-6.22,1.49-11.92,3.31-17.06,5.47,13.76,12.76,18.91,34.06,15.44,63.94-2.07,23.15-4.37,45.62-6.9,67.47,6.05,13.63,9.16,27.58,9.68,42.64,.45,13.15-1.04,27.13-4.24,42.48-4.99,24.06-14.18,51.48-26.52,84.24,74.31,25.32,137.96,25.58,190.86,.85-30.69-67.48-26.61-88.39-23.12-133.52,3.46-73.27,48.14-50.29-26.1-173.48-5.08-1.59-9.52-2.4-13.57-2.78h0Zm0,0" style="fill:#b5453c; fill-rule:evenodd;"/><path d="M196.13,289.7c-.71,11.21-2.36,22.99-4.63,35.62-32.44-25.23-52.31-39.6-59.64-43.09-2.17,.42-4.31,.88-6.41,1.36,106.16,112.22,147.51,121.9,98.49-2.69-5.12-.49-9.58-.29-13.89-.1,4.8,10.07,8.03,19.49,9.71,28.23-5.15-9.26-10.91-14.92-23.64-19.33h0Zm0,0" style="fill:#f99746; fill-rule:evenodd;"/><path d="M168.35,464.29c-20.2,.06-39.01-.71-56.5-2.3,4.57-34.58,8.55-70.91,11.98-108.98,3.46-29.88-1.68-51.19-15.44-63.94-18.39,7.71-30.05,19.78-35.03,36.26-10.85,35-9.52,165.41,2.27,177.2,14.9,6.51,46.4,5.18,94.44-4.01-3.33-9.78-3.89-21.21-1.72-34.22h0Zm0,0" style="fill:#f99746; fill-rule:evenodd;"/><path d="M180.53,469.14c-2.75,.32-7.06,.58-12.97,.84-.91,8.59-.56,16.45,1.09,23.51,5.15-.94,11.66-2.3,19.6-4.08,14.04,3.6,30.98,3.44,50.8-.58,13.75-5.28,17.93-14.99,12.52-29.11-21.53,2.53-34.42,1.71-38.66-2.43,7.54-3.83,10.21-8.22,8-13.25-21.17,7.74-34.61,16.13-40.37,25.1h0Zm0,0" style="fill:#ffb27d; fill-rule:evenodd;"/><path d="M253.57,430.2l150.65-22.83-32.54,65.08-150.94,23.67,2.43-4.82c5.05-.52,10.34-1.32,15.87-2.46,13.75-5.28,17.93-14.99,12.52-29.11-4.86,.58-9.29,.97-13.31,1.2l15.31-30.72Zm0,0" style="fill:#699dee; fill-rule:evenodd;"/><path d="M251.56,447.22l-6.64,13.21c2.1-.19,4.34-.42,6.64-.71,4.69,12.27,2.17,21.17-7.61,26.8l123.88-19.39,12.65-25.29c-17.35,5.99-34.97,9.78-52.9,11.4-3.65,4.25-9.36,7.35-13.99,7.35-4.31,0-6.44-2.69-5.7-6.52-18.49,0-37.27-2.29-56.34-6.86h0Zm0,0" style="fill:#2b478b; fill-rule:evenodd;"/><path d="M204.03,491.81l16.71,4.31,2.43-4.82c-6.8,.68-13.15,.87-19.13,.52h0Zm0,0" style="fill:#2b478b; fill-rule:evenodd;"/><path d="M220.74,496.11l-16.71-4.31c-5.6-.32-10.88-1.14-15.79-2.4-5.32,1.2-10,2.21-14.06,3.01l41.7,13.7,41.18-7.03,114.91-19.52-.29-7.12-110.34,17.29-40.6,6.38Zm0,0" style="fill:#2b478b; fill-rule:evenodd;"/><path d="M290.32,424.62c-5.86-5.47-10.78-11.91-14.83-19.29-2.36,6.63-5.25,13.69-7.61,22.69l22.44-3.4Zm0,0" style="fill:#f99746; fill-rule:evenodd;"/><path d="M237.51,283.69c17.42,28.91,28.3,49.76,34.68,65.73,6.31-49.48-2.72-60.61-34.68-65.73h0Zm0,0" style="fill:#f99746; fill-rule:evenodd;"/><path d="M107.58,593.66c-17.55,36.19-22.47,114.87-14.8,236.06,96.35,13.01,165.8,11.68,208.28-4.02-3.46-110.63-11.24-187.66-23.41-231.08-48.21,19.53-104.9,19.2-170.08-.97h0Zm0,0" style="fill:#2b478b; fill-rule:evenodd;"/><path d="M140.12,274.11c17.65,9.55,36.37,15.44,56.01,15.6,3.56-3.79,3.76-8.55,4.86-12.65,.07-.26,.13-.49,.19-.71-3.01-4.08-5.05-7.19-3.23-14.34,0-.1,.06-.19,.09-.32,21.28-7.13,34.45-42.87,25.84-63.88,.42-7.03,1.1-14.35,2.01-21.89-31.47,9.13-51.25,8.64-74.3-7.58-4.05,10.49-6.06,16.48-3.66,27.55,.52,3.82,2.49,11.98-2.62,12.76-2.36-13.31-7.22-20.66-16.19-17.48-8,12.82-3.24,28.94,15.96,32.28,5.67,11.62,8.09,19.59,7.32,23.89,.61,7.25-5.76,17.03-10.55,24.19-.58,.9-1.17,1.78-1.72,2.59h0Zm0,0" style="fill:#ffb27d; fill-rule:evenodd;"/><path d="M198.14,261.25c-12.85,1.46-18.68,1.36-30.59-3.36,6.95,7.51,17.83,12.01,30.3,12.72-.68-3.11-.55-6.15,.29-9.36h0Zm0,0" style="fill:#f08261; fill-rule:evenodd;"/><path d="M286.56,937.66c2.5-34.15,3.95-70.35,4.44-108.62-21.21,6.15-47.98,9.32-80.36,9.51,7.77,32.8,19.56,68.67,25.71,104.06-32.64,88.49,12.31,161.63,5.92,219.48,8.9,14.18,23.64,46.27,45.91,58.02,7.41-1.94,1.88-8.68,4.34-12.53-11.49-11.95-18.65-30.66-21.56-56.11-2.62-60.54,2.57-131.81,15.61-213.82h0Zm0,0" style="fill:#ffb27d; fill-rule:evenodd;"/><path d="M165.24,925.01c6.7-28.01,18.91-56.21,27.78-86.61-23.77-.59-50.18-2.59-79.29-6.03,.45,28.72,.84,58.66,1.1,89.92-45.72,80.78-15.09,175.19-27.33,215.79,8.9,21.11,11.3,47.56,31.08,63.1,7.28-.55,3.53-7.67,6.25-11.04-6.22-14.02-9.62-31.73-10.2-53.1,7.03-60.93,23.9-131.61,50.61-212.03h0Zm0,0" style="fill:#ffb27d; fill-rule:evenodd;"/><path d="M299.74,1204.91c-15.64,.81-1.35,12.56-11.56,15.22-22.27-11.79-34.61-43.87-43.48-58.02-4.69-7.48-8.09,2.01-10.39,12.63-3.69,16.9,.97,11.01,3.04,24.51,.52,3.37-3.82,21.5-4.52,31.57-.3,3.95,1.87,5.5,2.29,6.19,4.05-6.87,7.58-27.97,11.27-40.86,21.85,18.78,17.1,39.5,30.05,46.56,31.11,3.34,47.92,4.14,71.52,4.66,5.21-19.39-35.87-12.85-48.21-42.45h0Zm0,0" style="fill:#2b478b; fill-rule:evenodd;"/><path d="M132.41,1188.62c-15.12-1.88-3.59,11.78-13.82,12.56-19.13-15.02-25.06-47.79-30.95-62.84-3.11-7.9-8.09,.58-12.24,10.33-6.57,15.51-1.07,10.68-1.55,23.93-.13,3.3-7.58,19.85-10.1,29.37-1,3.72,.81,5.57,1.07,6.31,5.15-5.86,12.34-25.45,18.23-37.1,17.45,21.66,9.1,40.63,20.21,49.57,29.1,8.48,45,12.14,67.46,16.64,8.48-17.65-31.92-18.39-38.3-48.76h0Zm0,0" style="fill:#2b478b; fill-rule:evenodd;"/><path d="M323.21,443.92c3.63,0,4.86,2.91,2.78,6.54-2.1,3.6-6.7,6.54-10.32,6.54s-4.86-2.94-2.76-6.54c2.08-3.63,6.7-6.54,10.3-6.54h0Zm0,0" style="fill:#2b478b; fill-rule:evenodd;"/><path d="M1582.49,1057.27c-93.19,0-168.72,17.03-168.72,38.04s75.54,38.01,168.72,38.01,168.71-17.03,168.71-38.01-75.54-38.04-168.71-38.04h0Zm0,0" style="fill:#cfdaee; fill-rule:evenodd;"/><path d="M1606.11,938.67c-93.18,0-168.72,17.03-168.72,38.01s75.54,38.05,168.72,38.05,168.69-17.04,168.69-38.05-75.54-38.01-168.69-38.01h0Zm0,0" style="fill:#cfdaee; fill-rule:evenodd;"/><path d="M1615.34,1006.15c-93.18,0-168.72,17-168.72,38.01s75.54,38.04,168.72,38.04,168.72-17.03,168.72-38.04-75.53-38.01-168.72-38.01h0Zm0,0" style="fill:#cfdaee; fill-rule:evenodd;"/><path d="M1638.94,887.51c-93.18,0-168.72,17.04-168.72,38.05s75.54,38.01,168.72,38.01,168.72-17.03,168.72-38.01-75.54-38.05-168.72-38.05h0Zm0,0" style="fill:#cfdaee; fill-rule:evenodd;"/><path d="M1582.49,1176.25c-93.19,0-168.72-17.03-168.72-38.04v-42.9c0,20.98,75.54,38.01,168.72,38.01s168.71-17.03,168.71-38.01v42.9c0,21.01-75.54,38.04-168.71,38.04h0Zm0,0" style="fill:#8ca3ca; fill-rule:evenodd;"/><path d="M1606.11,1057.62c-93.18,0-168.72-17.03-168.72-38.01v-42.93c0,21.01,75.54,38.05,168.72,38.05s168.69-17.04,168.69-38.05v42.93c0,20.98-75.54,38.01-168.69,38.01h0Zm0,0" style="fill:#8ca3ca; fill-rule:evenodd;"/><path d="M1615.34,1125.1c-93.18,0-168.72-17.03-168.72-38.04v-42.9c0,21.01,75.54,38.04,168.72,38.04s168.72-17.03,168.72-38.04v42.9c0,21.01-75.53,38.04-168.72,38.04h0Zm0,0" style="fill:#8ca3ca; fill-rule:evenodd;"/><path d="M1638.94,1006.51c-93.18,0-168.72-17.04-168.72-38.05v-42.9c0,20.98,75.54,38.01,168.72,38.01s168.72-17.03,168.72-38.01v42.9c0,21.01-75.54,38.05-168.72,38.05h0Zm0,0" style="fill:#8ca3ca; fill-rule:evenodd;"/><path d="M1302.16,1163.17c-93.15,0-168.68,17.03-168.68,38.01s75.54,38.04,168.68,38.04,168.72-17.03,168.72-38.04-75.54-38.01-168.72-38.01h0Zm0,0" style="fill:#cfdaee; fill-rule:evenodd;"/><path d="M1305.75,1053.55c93.18,0,168.72,16.99,168.72,38.01s-75.54,38.04-168.72,38.04-168.72-17.03-168.72-38.04,75.54-38.01,168.72-38.01h0Zm0,0" style="fill:#cfdaee; fill-rule:evenodd;"/><path d="M1296.33,950.98c93.18,0,168.72,17.03,168.72,38.01s-75.54,38.04-168.72,38.04-168.72-17.02-168.72-38.04,75.54-38.01,168.72-38.01h0Zm0,0" style="fill:#cfdaee; fill-rule:evenodd;"/><path d="M1335.02,1112.02c-93.18,0-168.72,17.03-168.72,38.04s75.54,38.04,168.72,38.04,168.72-17.03,168.72-38.04-75.53-38.04-168.72-38.04h0Zm0,0" style="fill:#cfdaee; fill-rule:evenodd;"/><path d="M1272.92,1002.39c93.18,0,168.72,17.03,168.72,38.05s-75.54,38.01-168.72,38.01-168.72-17.03-168.72-38.01,75.55-38.05,168.72-38.05h0Zm0,0" style="fill:#cfdaee; fill-rule:evenodd;"/><path d="M1263.47,899.82c93.18,0,168.72,17.03,168.72,38.05s-75.54,38.01-168.72,38.01-168.71-17.03-168.71-38.01,75.53-38.05,168.71-38.05h0Zm0,0" style="fill:#cfdaee; fill-rule:evenodd;"/><path d="M1302.19,1282.13c-93.18,0-168.72-17.03-168.72-38.01v-42.93c0,21.01,75.54,38.04,168.72,38.04s168.69-17.03,168.69-38.04v42.93c0,20.98-75.54,38.01-168.69,38.01h0Zm0,0" style="fill:#8ca3ca; fill-rule:evenodd;"/><path d="M1305.75,1172.5c93.18,0,168.72-17.03,168.72-38.04v-42.9c0,21.01-75.54,38.04-168.72,38.04s-168.72-17.03-168.72-38.04v42.9c0,21.01,75.54,38.04,168.72,38.04h0Zm0,0" style="fill:#8ca3ca; fill-rule:evenodd;"/><path d="M1296.33,1069.93c93.18,0,168.72-17.03,168.72-38.01v-42.93c0,21.01-75.54,38.04-168.72,38.04s-168.72-17.02-168.72-38.04v42.93c0,20.98,75.54,38.01,168.72,38.01h0Zm0,0" style="fill:#8ca3ca; fill-rule:evenodd;"/><path d="M1335.02,1231c-93.18,0-168.72-17.03-168.72-38.04v-42.9c0,21.01,75.54,38.04,168.72,38.04s168.72-17.03,168.72-38.04v42.9c0,21.01-75.53,38.04-168.72,38.04h0Zm0,0" style="fill:#8ca3ca; fill-rule:evenodd;"/><path d="M1272.92,1121.34c93.18,0,168.72-17,168.72-38.01v-42.9c0,20.98-75.54,38.01-168.72,38.01s-168.72-17.03-168.72-38.01v42.9c0,21.01,75.55,38.01,168.72,38.01h0Zm0,0" style="fill:#8ca3ca; fill-rule:evenodd;"/><path d="M1263.47,1018.8c93.18,0,168.72-17.03,168.72-38.05v-42.89c0,20.98-75.54,38.01-168.72,38.01s-168.71-17.03-168.71-38.01v42.89c0,21.02,75.53,38.05,168.71,38.05h0Zm0,0" style="fill:#8ca3ca; fill-rule:evenodd;"/><path d="M1561.56,906.39c-4.14,3.43-8.48,8.33-9.78,14.9l-23.08,.44-1.33,10.04,24.83-.52c3.75,10.75,19.46,16.84,40.79,16.41,22.02-.44,34.25-7.73,45.59-17.87,9.97-9.58,17.61-13.11,28.72-13.34,10.88-.23,18.91,3.17,17.9,10.55-.84,6.44-6.44,12.57-11.98,16.67l23.99,2.56c5.31-3.98,10.56-10.72,11.85-17.29l24.83-.48,1.33-10.04-26.58,.55c-3.23-11.46-20.2-17.87-42.41-17.38-22.66,.45-35.58,6.22-48.73,18.51-9.55,8.26-16.25,12.79-26.26,12.98-8.47,.2-16.96-3.11-16.05-9.97,.8-5.93,6.01-11.04,9.71-14.18l-23.35-2.56Zm0,0" style="fill:#fff; fill-rule:evenodd;"/><path d="M1193.76,919.6c-4.15,3.46-8.48,8.35-9.81,14.9l-23.08,.49-1.33,10,24.83-.49c3.79,10.72,19.49,16.84,40.83,16.39,21.98-.42,34.25-7.74,45.59-17.84,9.97-9.62,17.58-13.15,28.69-13.38,10.91-.19,18.91,3.21,17.94,10.55-.84,6.44-6.44,12.59-11.97,16.67l23.98,2.59c5.28-3.98,10.52-10.75,11.85-17.29l24.8-.51,1.33-10-26.55,.51c-3.26-11.46-20.23-17.84-42.45-17.39-22.63,.45-35.55,6.24-48.7,18.56-9.58,8.26-16.25,12.79-26.26,12.98-8.51,.17-16.96-3.11-16.06-9.97,.78-5.92,6.02-11.04,9.69-14.18l-23.32-2.6Zm0,0" style="fill:#fff; fill-rule:evenodd;"/><path d="M1420.11,466.49c71.49,0,129.44,57.95,129.44,129.44s-57.95,129.41-129.44,129.41-129.41-57.96-129.41-129.41,57.96-129.44,129.41-129.44h0Zm0,0" style="fill:#cfdaee; fill-rule:evenodd;"/><path d="M1420.11,485.56c60.97,0,110.37,49.4,110.37,110.38s-49.41,110.37-110.37,110.37-110.34-49.44-110.34-110.37,49.41-110.38,110.34-110.38h0Zm0,0" style="fill:#fff; fill-rule:evenodd;"/><path d="M1420.11,493.17c56.76,0,102.77,46.01,102.77,102.77s-46.01,102.73-102.77,102.73-102.73-45.98-102.73-102.73,46.01-102.77,102.73-102.77h0Zm0,0" style="fill:#becce7; fill-rule:evenodd;"/><path d="M1451.35,542.92c-5.24-2.72-12.72-5.43-22.95-5.75v-16.87h-15.61v18.16c-16.9,3.82-26.94,15.93-26.94,31.57s11.01,24.38,26.45,31.7c14.67,6.37,19.94,11.66,19.94,19.78s-5.59,14.19-17.06,14.19c-10.04,0-19.46-3.5-25.67-7.2l-4.76,17.88c6.06,3.5,16.42,6.7,26.61,7.03v18.16h15.61v-19.46c18-3.5,28.53-16.58,28.53-32.83s-8.58-25.51-27.39-33.97c-12.59-6.22-19.46-10.68-19.46-17.99,0-6.22,5.41-12.76,16.09-12.76,9.26,0,17.06,3.33,21.85,5.73l4.76-17.36Zm0,0" style="fill:#fff; fill-rule:evenodd;"/></svg>