<?xml version="1.0" encoding="UTF-8"?><svg id="a" xmlns="http://www.w3.org/2000/svg" viewBox="0 0 2044.45 1427.32"><path d="M2023.56,384.43c-170.29-43.76-308.6,51.38-311.67,247.66,186.99,34.32,308.29-61.59,311.67-247.66Z" style="fill:#d2deec; fill-rule:evenodd;"/><path d="M2004.73,392.89c1.11-.9,2.74-.72,3.63,.39,.9,1.11,.72,2.73-.39,3.63l-104.85,84.46,71.14,30.78c1.31,.57,1.91,2.09,1.34,3.4-.56,1.31-2.09,1.91-3.4,1.34l-73.62-31.85-29.12,23.45c-.33,.74-.99,1.3-1.83,1.48l-22.33,17.98,73.6,46.12c1.21,.75,1.58,2.35,.82,3.56-.76,1.21-2.36,1.58-3.56,.82l-75.12-47.07-26.16,21.08c-.09,.07-.17,.15-.26,.21l-26.58,21.41,53.09,36.02c1.18,.8,1.48,2.41,.68,3.59-.8,1.18-2.4,1.48-3.58,.68l-54.39-36.9-70.33,56.65c-1.11,.9-2.74,.72-3.63-.39-.89-1.11-.72-2.74,.39-3.63l47.29-38.1-13.37-49.05c-.37-1.37,.44-2.8,1.81-3.17,1.37-.38,2.79,.43,3.16,1.8l12.79,46.88,48.17-38.8-27.53-84.44c-.44-1.36,.3-2.82,1.66-3.27,1.36-.44,2.82,.3,3.26,1.66l26.92,82.56,24.76-19.94,.1-.08,24.92-20.08-16.94-89.14c-.26-1.4,.66-2.76,2.06-3.02,1.4-.26,2.76,.66,3.02,2.06l16.42,86.43,27.7-22.32,.14-.11,29.62-23.86-4.82-66.99c-.1-1.42,.97-2.65,2.39-2.77,1.42-.1,2.66,.97,2.76,2.39l4.57,63.43,73.6-59.29Z" style="fill:#fff; fill-rule:evenodd;"/><path d="M18.05,316.52c170.29-43.76,308.6,51.38,311.67,247.67C142.74,598.5,21.44,502.59,18.05,316.52Z" style="fill:#d2deec; fill-rule:evenodd;"/><path d="M36.89,324.98c-1.11-.89-2.73-.72-3.63,.39-.9,1.11-.72,2.74,.39,3.63l104.85,84.46-71.14,30.78c-1.31,.56-1.91,2.08-1.34,3.4,.57,1.31,2.09,1.91,3.4,1.34l73.63-31.85,29.12,23.45c.33,.73,.99,1.29,1.83,1.47l22.33,17.98-73.6,46.12c-1.21,.76-1.58,2.35-.82,3.56,.76,1.21,2.35,1.58,3.56,.82l75.11-47.07,26.16,21.08c.09,.07,.17,.14,.26,.21l26.58,21.41-53.09,36.02c-1.18,.8-1.48,2.4-.68,3.58,.8,1.18,2.4,1.48,3.58,.69l54.39-36.9,70.33,56.65c1.11,.89,2.74,.72,3.63-.39,.9-1.11,.72-2.73-.39-3.63l-47.29-38.1,13.37-49.05c.37-1.37-.44-2.79-1.81-3.17-1.37-.37-2.79,.43-3.17,1.8l-12.79,46.88-48.17-38.8,27.53-84.44c.44-1.36-.3-2.82-1.66-3.26-1.36-.44-2.82,.3-3.26,1.66l-26.92,82.57-24.76-19.94-.1-.09-24.92-20.07,16.94-89.14c.26-1.4-.66-2.75-2.06-3.02-1.4-.26-2.76,.66-3.02,2.06l-16.42,86.43-27.7-22.31-.14-.12-29.62-23.86,4.82-66.99c.1-1.42-.96-2.66-2.39-2.76-1.42-.1-2.66,.96-2.77,2.39l-4.56,63.43-73.6-59.29Z" style="fill:#fff; fill-rule:evenodd;"/><path d="M1888.7,154.51c-170.37,43.41-245.98,193.3-154.38,366.93,180.48-59.72,240.79-202.12,154.38-366.93Z" style="fill:#c4d1eb; fill-rule:evenodd;"/><path d="M1876.24,170.98c.55-1.32,2.05-1.94,3.37-1.4,1.32,.55,1.95,2.05,1.4,3.37l-51.38,124.45,77.17-7.18c1.42-.13,2.68,.91,2.81,2.34,.13,1.42-.91,2.67-2.33,2.81l-79.89,7.43-14.27,34.56c.06,.8-.25,1.61-.9,2.17l-10.95,26.5,86.72,5.1c1.42,.09,2.51,1.31,2.42,2.73-.09,1.42-1.31,2.51-2.73,2.43l-88.5-5.2-12.83,31.06c-.03,.1-.07,.21-.12,.31l-13.02,31.54,63.86,6.09c1.42,.13,2.46,1.4,2.32,2.81-.13,1.42-1.4,2.46-2.81,2.32l-65.43-6.24-34.47,83.47c-.54,1.32-2.05,1.94-3.37,1.4-1.32-.55-1.94-2.05-1.4-3.37l23.18-56.12-35.29-36.59c-.99-1.02-.96-2.66,.06-3.65,1.02-.99,2.66-.96,3.65,.06l33.74,34.98,23.61-57.17-64.71-60.83c-1.04-.98-1.09-2.62-.11-3.66,.98-1.04,2.61-1.09,3.66-.11l63.28,59.48,12.13-29.38,.05-.12,12.21-29.58-57.68-70.05c-.91-1.1-.75-2.73,.36-3.64,1.1-.91,2.73-.75,3.64,.35l55.92,67.92,13.58-32.88,.07-.17,14.52-35.15-36.41-56.44c-.77-1.2-.43-2.8,.77-3.57,1.2-.77,2.8-.43,3.57,.77l34.47,53.43,36.07-87.35Z" style="fill:#fff; fill-rule:evenodd;"/><path d="M152.92,86.6c170.37,43.42,245.98,193.3,154.37,366.93C126.82,393.81,66.51,251.42,152.92,86.6Z" style="fill:#c4d1eb; fill-rule:evenodd;"/><path d="M165.37,103.07c-.55-1.32-2.05-1.94-3.37-1.4-1.32,.54-1.94,2.05-1.4,3.37l51.38,124.44-77.18-7.18c-1.42-.13-2.68,.91-2.81,2.34-.13,1.42,.91,2.68,2.33,2.81l79.89,7.43,14.27,34.56c-.06,.8,.25,1.61,.9,2.17l10.95,26.5-86.72,5.1c-1.42,.09-2.51,1.31-2.42,2.73,.08,1.42,1.31,2.51,2.73,2.42l88.49-5.19,12.83,31.05c.03,.1,.07,.21,.12,.31l13.02,31.54-63.86,6.09c-1.42,.13-2.46,1.4-2.32,2.81,.13,1.42,1.4,2.46,2.81,2.32l65.43-6.24,34.47,83.47c.55,1.32,2.05,1.94,3.37,1.4,1.32-.54,1.94-2.05,1.4-3.37l-23.18-56.12,35.29-36.59c.99-1.02,.96-2.66-.06-3.65-1.02-.99-2.66-.96-3.65,.06l-33.74,34.98-23.61-57.17,64.71-60.83c1.04-.98,1.09-2.62,.11-3.65-.98-1.04-2.61-1.1-3.65-.12l-63.28,59.48-12.13-29.38-.05-.12-12.21-29.58,57.68-70.04c.91-1.1,.75-2.73-.36-3.64-1.1-.91-2.73-.75-3.64,.36l-55.92,67.92-13.58-32.88-.07-.17-14.52-35.15,36.41-56.44c.77-1.2,.43-2.8-.77-3.57-1.2-.77-2.8-.43-3.57,.77l-34.47,53.44-36.07-87.36Z" style="fill:#fff; fill-rule:evenodd;"/><path d="M364.29,110.5H1642.88c61.86,0,114.33,50.71,112.47,112.47l-23.34,770.36c-1.86,61.75-50.69,112.46-112.47,112.46H387.64c-61.45,0-110.61-50.62-112.47-112.46l-23.34-770.36c-1.86-61.84,50.61-112.47,112.47-112.47h0Zm0,61.43c-28.07,0-51.88,22.96-51.04,51.04l23.35,770.35c.83,28.07,23.46,51.04,51.04,51.04H1619.54c27.57,0,50.21-23.47,51.04-51.04l23.35-770.35c.83-27.99-22.98-51.04-51.05-51.04H364.3Z" style="fill:#b0c2e4; fill-rule:evenodd;"/><rect x="879.19" y="1105.8" width="251.48" height="156.17" style="fill:#859ac6;"/><path d="M1130.67,1261.97h135.29c6.78,0,10.68,5.81,12.3,12.29l15,60.15c1.62,6.51-5.61,12.31-12.3,12.31H728.9c-6.68,0-13.93-5.74-12.29-12.31l15-60.15c1.63-6.57,5.54-12.29,12.31-12.29h386.75Z" style="fill:#b0c2e4; fill-rule:evenodd;"/><path d="M1693.93,222.97h0c0-24.56-17.59-45.22-40.79-49.99l-1.22-.24h-.02l-1.24-.21h-.03l-1.25-.18h-.01l-1.27-.15h-.01s-1.28-.12-1.28-.12h0l-1.3-.09h0l-1.3-.05h-1.32s-1278.59-.01-1278.59-.01h-1.31s-1.3,.06-1.3,.06h0l-1.29,.09h0l-1.29,.11h0l-1.27,.15h-.01l-1.26,.18h-.02c-24.42,3.77-43.28,25.01-43.28,50.43h0s23.35,770.35,23.35,770.35c.84,28.07,23.47,51.04,51.04,51.04H1619.54c27.57,0,50.21-23.47,51.04-51.04l23.35-770.35Z" style="fill:#e0e8f5; fill-rule:evenodd;"/><path d="M1162.27,2.03c-54.02,20.64-32.98,193.01,46.99,385.03,79.97,192.01,188.59,330.94,242.6,310.3,54.02-20.62,32.98-193.01-46.98-385.02C1324.91,120.34,1216.29-18.59,1162.27,2.03Z" style="fill:#9db2d9; fill-rule:evenodd;"/><path d="M603.75,470.66l-112.39,42.93c-25.54,9.76-22.5,74.71,6.8,145.06,29.3,70.35,73.77,119.48,99.32,109.73l112.39-42.93c-25.55,9.76-70.02-39.37-99.32-109.72-29.29-70.35-32.35-135.31-6.8-145.07Z" style="fill:#b0c2e4; fill-rule:evenodd;"/><path d="M610.55,615.73c-27.1-65.06-31.74-125.49-12.08-141.94,220.17-110.51,399.91-256.74,539.19-438.66-17.62,62.65,8.85,201.23,71.6,351.93,63.48,152.43,145.02,271.42,202.97,303.65-250.51-39.42-486.66-27.45-708.45,35.95-26.08,1.03-66.14-45.88-93.23-110.94Z" style="fill:#c4d1eb; fill-rule:evenodd;"/><path d="M1272.94,311.61l-83.77,24.36c6.21,16.8,12.91,33.86,20.08,51.09,9.39,22.52,19.16,44.31,29.19,65.22l76.5-39.81c26.11-13.59,40.78-41.87,29.23-69.61h0c-11.55-27.74-42.75-39.51-71.23-31.24Z" style="fill:#b0c2e4; fill-rule:evenodd;"/><path d="M721.14,721.82l39.08,189.81c5.88,28.53,55.83,27.32,81.91,14.32h0c26.09-13,88.83-66.93,62.18-78.75-51.34-22.74-81.73-70.95-88.45-147.95-31.86,6.51-63.44,14.04-94.73,22.57Z" style="fill:#9db2d9; fill-rule:evenodd;"/><path d="M1137.66,35.13c-53.81,172.7,120.55,570.76,273.96,655.25-.04-.02-.07-.04-.09-.06-49.31-27.94-115.47-118.13-173.07-238.04-10.03-20.9-19.81-42.69-29.19-65.22-7.17-17.22-13.86-34.28-20.08-51.09-48.15-130.28-67.12-245.35-51.52-300.84Z" style="fill:#fff; fill-rule:evenodd;"/><path d="M1338.34,349.57h0Zm5.83-6.73h0Zm-77.05-24.52c28.48-8.28,59.67,3.51,71.23,31.25,7.54,18.1,3.91,36.42-6.76,50.74,15-15.02,21.35-36.4,12.58-57.47-11.55-27.74-42.75-39.52-71.22-31.24l-83.77,24.36c.56,1.51,1.12,3.03,1.69,4.54l76.25-22.18Z" style="fill:#fff; fill-rule:evenodd;"/><polygon points="1530.12 1170.33 1530.12 1225.81 1443.63 1183.05 1443.63 1127.57 1530.12 1170.33" style="fill:#df1e26; fill-rule:evenodd;"/><path d="M1966.46,689.38l-155.71,41.01v-15.29l30.59-43.1,54.92-22.24s25.92,4.17,26.86,5.56c.93,1.39,43.35,34.06,43.35,34.06Z" style="fill:#859ac6; fill-rule:evenodd;"/><path d="M1966.46,689.38s-25.89-8.81-58.23-8.17c-20.77,.41-44.23,4.7-65.18,17.73-11.88,7.38-22.96,17.58-32.31,31.46h-15.29s1.81-37.55,21.45-72.28c10.94-19.37,27.41-37.85,52.19-48.49,13.25-5.68,28.89-9.11,47.31-9.22l50.05,88.97Z" style="fill:#9db2d9; fill-rule:evenodd;"/><path d="M1624.46,689.38l155.71,41.01v-15.29l-30.59-43.1-54.92-22.24s-25.92,4.17-26.86,5.56c-.95,1.39-43.34,34.06-43.34,34.06Z" style="fill:#859ac6; fill-rule:evenodd;"/><path d="M1795.45,730.39h-15.28c-13.86-20.6-31.55-33.07-50-40.31-21.64-8.48-44.33-9.76-63.11-8.48-24.67,1.69-42.6,7.78-42.6,7.78l50.05-88.97c7.62,.05,14.76,.66,21.46,1.77,24.4,4.03,42.83,14.6,56.76,28.07,39.75,38.35,42.73,100.15,42.73,100.15Z" style="fill:#9db2d9; fill-rule:evenodd;"/><rect x="1621.52" y="724.92" width="422.93" height="134.25" style="fill:#b0c2e4;"/><rect x="1641.73" y="859.17" width="382.52" height="568.15" style="fill:#b0c2e4;"/><rect x="1592.66" y="724.92" width="376.74" height="134.25" style="fill:#c4d1eb;"/><rect x="1610.65" y="859.17" width="340.74" height="568.15" style="fill:#c4d1eb;"/><rect x="1610.65" y="859.17" width="340.74" height="27.51" style="fill:#b0c2e4;"/><rect x="1769.47" y="724.92" width="51.96" height="702.4" style="fill:#9db2d9;"/><path d="M1908.23,681.21c-20.77,.41-44.23,4.7-65.18,17.73l-26.15-40.82c10.94-19.37,27.41-37.85,52.19-48.49l39.13,71.58Z" style="fill:#b0c2e4; fill-rule:evenodd;"/><path d="M1752.72,630.24c-7.55,20.27-15.54,41.41-22.55,59.84-21.64-8.48-44.33-9.76-63.11-8.48l28.91-79.43c24.4,4.03,42.83,14.6,56.76,28.07Z" style="fill:#b0c2e4; fill-rule:evenodd;"/><path d="M1642.12,1094.39l-146.83,38.67v-14.41l28.84-40.64,51.79-20.97s24.43,3.93,25.32,5.24c.9,1.31,40.88,32.11,40.88,32.11Z" style="fill:#859ac6; fill-rule:evenodd;"/><path d="M1642.12,1094.39s-27.05-9.2-59.79-7.53c-20.79,1.05-43.86,6.49-63.75,21.45-8.47,6.4-16.38,14.51-23.28,24.75h-14.41s1.61-33.47,18.72-65.44c10.12-18.89,25.63-37.27,49.45-47.87,12.75-5.69,27.91-9.14,45.87-9.25l47.2,83.9Z" style="fill:#b0c2e4; fill-rule:evenodd;"/><path d="M1319.65,1094.39l146.81,38.67v-14.41l-28.84-40.64-51.77-20.97s-24.45,3.93-25.34,5.24-40.86,32.11-40.86,32.11Z" style="fill:#859ac6; fill-rule:evenodd;"/><path d="M1480.88,1133.06h-14.43c-18.17-26.99-43.33-39.19-67.67-43.89-17.29-3.34-34.16-2.89-47.86-1.28-18.57,2.18-31.28,6.51-31.28,6.51l47.18-83.9c7.28,.05,14.1,.63,20.49,1.71,11.4,1.91,21.42,5.33,30.21,9.85,59.46,30.55,63.36,111,63.36,111Z" style="fill:#b0c2e4; fill-rule:evenodd;"/><rect x="1198.2" y="1116.33" width="620.36" height="105.35" style="fill:#859ac6;"/><rect x="1224.24" y="1221.68" width="568.27" height="204.71" style="fill:#859ac6;"/><rect x="1143.21" y="1116.33" width="620.35" height="105.35" style="fill:#9db2d9;"/><rect x="1169.25" y="1221.68" width="568.27" height="204.71" style="fill:#9db2d9;"/><rect x="1169.25" y="1221.68" width="568.27" height="16.24" style="fill:#859ac6;"/><rect x="1454.84" y="1116.33" width="52.08" height="310.05" style="fill:#b0c2e4;"/><path d="M1582.33,1086.87c-20.79,1.05-43.86,6.49-63.75,21.45l-18.97-40.69c10.12-18.89,25.63-37.27,49.45-47.87l33.28,67.11Z" style="fill:#9db2d9; fill-rule:evenodd;"/><path d="M1417.52,1022.06l-18.73,67.11c-17.29-3.34-34.16-2.89-47.86-1.28l36.38-75.68c11.4,1.91,21.42,5.33,30.21,9.85Z" style="fill:#9db2d9; fill-rule:evenodd;"/><path d="M1534.67,1036.52c-4.56,4-9.58,5.64-15.42,4.42,5.48,4.15,13.08,.97,15.42-4.42Z" style="fill:#f48661; fill-rule:evenodd;"/><path d="M28.19,888.67h1.97s-.64,.56-1.97,0Z" style="fill:#41000a; fill-rule:evenodd;"/><path d="M401.62,1102.47c0,16.1,13.05,29.16,29.16,29.16s29.15-13.05,29.15-29.16-13.05-29.16-29.15-29.16-29.16,13.05-29.16,29.16Z" style="fill:#f89f1b; fill-rule:evenodd;"/><path d="M408.48,1098.75c0,12.32,9.98,22.3,22.3,22.3s22.3-9.98,22.3-22.3-9.98-22.3-22.3-22.3-22.3,9.99-22.3,22.3Z" style="fill:#ffcc02; fill-rule:evenodd;"/><path d="M502.14,1057.68c0,16.1,13.05,29.15,29.16,29.15s29.15-13.05,29.15-29.15-13.05-29.16-29.15-29.16-29.16,13.05-29.16,29.16Z" style="fill:#c02026; fill-rule:evenodd;"/><path d="M506.2,1053.2c0,12.32,9.98,22.3,22.3,22.3s22.3-9.98,22.3-22.3-9.99-22.3-22.3-22.3-22.3,9.98-22.3,22.3Z" style="fill:#df1e26; fill-rule:evenodd;"/><path d="M465.75,905.51c0,16.1,13.05,29.16,29.16,29.16s29.15-13.05,29.15-29.16-13.05-29.15-29.15-29.15-29.16,13.05-29.16,29.15Z" style="fill:#f89f1b; fill-rule:evenodd;"/><path d="M473.57,901.4c0,11.78,9.55,21.33,21.33,21.33s21.33-9.55,21.33-21.33-9.55-21.33-21.33-21.33-21.33,9.55-21.33,21.33Z" style="fill:#ffcc02; fill-rule:evenodd;"/><path d="M425.07,922.65l106.03,27.93v-10.42l-20.83-29.35-37.39-15.15s-17.65,2.84-18.29,3.79c-.64,.94-29.52,23.19-29.52,23.19Z" style="fill:#859ac6; fill-rule:evenodd;"/><path d="M425.08,922.66s20.29-6.91,44.54-5.37c11.01,.69,22.83,3.13,33.93,8.74,10.18,5.15,19.76,12.95,27.56,24.55h10.41s-1.66-34.33-21.92-60.22c-6.43-8.22-14.72-15.6-25.45-20.74-9.6-4.62-21.13-7.46-34.99-7.55l-34.07,60.6Z" style="fill:#b0c2e4; fill-rule:evenodd;"/><path d="M657.96,922.65l-106.03,27.93v-10.42l20.82-29.35,37.39-15.15s17.65,2.84,18.29,3.79c.64,.94,29.52,23.19,29.52,23.19Z" style="fill:#859ac6; fill-rule:evenodd;"/><path d="M541.51,950.58h10.42c7.3-10.85,16.15-18.39,25.61-23.53,10.02-5.45,20.7-8.19,30.9-9.33,26.37-2.92,49.53,4.94,49.53,4.94l-34.09-60.6c-13.56,.09-24.9,2.8-34.37,7.25-9.95,4.67-17.86,11.23-24.13,18.65-22.11,26.12-23.87,62.61-23.87,62.61Z" style="fill:#b0c2e4; fill-rule:evenodd;"/><rect x="371.96" y="946.86" width="287.99" height="59.96" style="fill:#9db2d9;"/><rect x="385.72" y="1006.81" width="260.47" height="418.35" style="fill:#9db2d9;"/><rect x="423.08" y="946.86" width="256.54" height="59.96" style="fill:#b0c2e4;"/><rect x="435.33" y="1006.81" width="232.03" height="418.35" style="fill:#b0c2e4;"/><rect x="435.33" y="1006.81" width="232.03" height="12.48" style="fill:#9db2d9;"/><rect x="523.82" y="946.86" width="35.39" height="478.31" style="fill:#9db2d9;"/><path d="M469.62,917.3c11.01,.69,22.83,3.13,33.93,8.74,3.57-7.65,6.94-15.39,10.39-23.1,1.87-4.2,3.78-8.38,5.66-12.58-6.43-8.22-14.72-15.6-25.45-20.74-3.35,6.21-6.5,12.54-9.77,18.79-4.76,9.14-9.53,18.25-14.07,27.5l-.69,1.39Z" style="fill:#9db2d9; fill-rule:evenodd;"/><path d="M565.38,887.97c2.1,9.33,4.86,18.45,7.95,27.52,1.34,3.88,2.73,7.75,4.21,11.56,10.02-5.45,20.7-8.19,30.9-9.33-1.52-3.55-3.01-7.11-4.47-10.68-4.44-10.92-8.55-21.98-12.63-33.03-.59-1.58-1.19-3.13-1.83-4.69-9.95,4.67-17.86,11.23-24.13,18.65Z" style="fill:#9db2d9; fill-rule:evenodd;"/><path d="M59.98,857.66l119.75,31.54v-11.75l-23.53-33.14-42.23-17.11s-19.93,3.21-20.66,4.27c-.72,1.07-33.33,26.2-33.33,26.2Z" style="fill:#859ac6; fill-rule:evenodd;"/><path d="M59.98,857.67s19.9-6.78,44.78-6.29c15.97,.32,34.01,3.62,50.12,13.63,9.14,5.68,17.67,13.53,24.85,24.2h11.76s-1.4-28.88-16.49-55.59c-8.41-14.89-21.09-29.11-40.14-37.29-10.18-4.37-22.21-7-36.38-7.09l-38.49,68.42Z" style="fill:#9db2d9; fill-rule:evenodd;"/><path d="M322.98,857.66l-119.74,31.54v-11.75l23.52-33.14,42.23-17.11s19.93,3.21,20.66,4.27c.73,1.07,33.33,26.2,33.33,26.2Z" style="fill:#859ac6; fill-rule:evenodd;"/><path d="M191.48,889.21h11.75c10.66-15.84,24.26-25.43,38.45-31,16.64-6.52,34.09-7.51,48.53-6.52,18.97,1.3,32.76,5.98,32.76,5.98l-38.49-68.42c-5.86,.04-11.35,.51-16.5,1.36-18.76,3.1-32.94,11.23-43.65,21.58-30.57,29.5-32.86,77.02-32.86,77.02Z" style="fill:#9db2d9; fill-rule:evenodd;"/><rect y="885" width="325.24" height="103.24" style="fill:#b0c2e4;"/><rect x="15.54" y="988.24" width="294.16" height="436.92" style="fill:#b0c2e4;"/><rect x="57.72" y="885" width="289.72" height="103.24" style="fill:#c4d1eb;"/><rect x="71.56" y="988.24" width="262.04" height="436.92" style="fill:#c4d1eb;"/><rect x="71.56" y="988.24" width="262.04" height="21.16" style="fill:#b0c2e4;"/><rect x="171.51" y="885" width="39.96" height="540.17" style="fill:#9db2d9;"/><path d="M104.76,851.38c15.97,.32,34.01,3.62,50.12,13.63l20.12-31.39c-8.41-14.89-21.09-29.11-40.14-37.29l-30.09,55.04Z" style="fill:#b0c2e4; fill-rule:evenodd;"/><path d="M224.34,812.18c5.8,15.59,11.96,31.85,17.34,46.02,16.64-6.52,34.09-7.51,48.53-6.52l-22.23-61.08c-18.76,3.1-32.94,11.23-43.65,21.58Z" style="fill:#b0c2e4; fill-rule:evenodd;"/><path d="M716.42,1193l103.62,27.29v-10.17l-20.35-28.68-36.55-14.8s-17.26,2.78-17.89,3.7c-.62,.93-28.84,22.66-28.84,22.66Z" style="fill:#859ac6; fill-rule:evenodd;"/><path d="M716.42,1193s11.92-4.06,28.33-5.18c15.32-1.04,34.53,.47,51.59,10.22,8.74,5,16.92,12.16,23.7,22.25h10.17s-1.36-28.07-16.74-52.22c-8.38-13.16-20.92-25.16-39.66-30.83-7.1-2.15-15.1-3.4-24.1-3.45l-33.3,59.22Z" style="fill:#b0c2e4; fill-rule:evenodd;"/><path d="M744.75,1187.82c15.32-1.04,34.53,.47,51.59,10.22l17.13-29.97c-8.38-13.16-20.92-25.16-39.66-30.83l-29.06,50.58Z" style="fill:#9db2d9; fill-rule:evenodd;"/><path d="M944.03,1193l-103.63,27.29v-10.17l20.36-28.68,36.55-14.8s17.25,2.78,17.87,3.7c.63,.93,28.85,22.66,28.85,22.66Z" style="fill:#859ac6; fill-rule:evenodd;"/><path d="M830.22,1220.29h10.18c7.62-11.32,16.97-18.95,26.92-23.98,11.08-5.6,22.89-7.98,33.84-8.6,23.41-1.34,42.87,5.29,42.87,5.29l-33.31-59.22c-8.39,.06-15.9,1.13-22.64,3.02-16.98,4.77-29.02,14.67-37.51,26.04-18.79,25.13-20.35,57.46-20.35,57.46Z" style="fill:#b0c2e4; fill-rule:evenodd;"/><rect x="591.9" y="1208.48" width="437.84" height="74.35" style="fill:#859ac6;"/><rect x="610.28" y="1282.83" width="401.08" height="144.48" style="fill:#859ac6;"/><rect x="630.7" y="1208.48" width="437.84" height="74.35" style="fill:#c4d1eb;"/><rect x="649.08" y="1282.83" width="401.08" height="144.48" style="fill:#9db2d9;"/><rect x="811.83" y="1208.48" width="36.77" height="218.83" style="fill:#b0c2e4;"/><path d="M850.57,1162.84l16.75,33.48c11.08-5.6,22.89-7.98,33.84-8.6l-13.08-50.91c-16.98,4.77-29.02,14.67-37.51,26.04Z" style="fill:#9db2d9; fill-rule:evenodd;"/><path d="M1591.78,983.24c-.93,0-1.88-.32-2.65-.96-1.77-1.47-2.02-4.09-.55-5.86,20.11-24.18,31.19-54.84,31.19-86.34,0-15.08-2.48-29.9-7.35-44.02-.75-2.17,.41-4.54,2.58-5.29,2.18-.75,4.53,.4,5.28,2.58,5.18,15,7.78,30.72,7.78,46.73,0,33.44-11.74,65.99-33.09,91.66-.82,.99-2,1.5-3.2,1.5Z" style="fill:#fff; fill-rule:evenodd;"/><path d="M1678.06,929.49c-33.35,6.33-75.18,19.33-125.49,38.99,3.4,.9,6.61,2,9.63,3.3,69.47-25.22,115.51-37.89,138.12-38.02-4.02-1.4-8.02-2.34-12.02-2.84,.33-36.98,2.24-69.72,5.74-98.23-8.56,44.2-13.88,76.47-15.97,96.8Z" style="fill:#466fb5; fill-rule:evenodd;"/><path d="M1552.56,968.48c-15.46-4.62-29.17-3.6-41.13,3.08l10.04,34.87c1.13,3.95-1.12,7.05-5.02,6.88l9.31,.39c4.19-2.35,8.5-3.83,12.96-4.45,8.48,5.39,19.62,4.22,33.42-3.51,1.01-13.86-2.51-25.12-10.52-33.75,.19-.06,.38-.14,.57-.2-3.02-1.3-6.22-2.39-9.63-3.3Z" style="fill:#f9af79; fill-rule:evenodd;"/><path d="M1667.67,1030.77c2.13-12.53,4.22-25.99,6.28-40.38-26.18,6.86-60.26,13.36-102.23,19.5,.18-1.41,.32-2.8,.42-4.16-13.8,7.73-24.94,8.9-33.42,3.51-4.45,.62-8.77,2.1-12.96,4.45l93.99,3.91c-1.13,6.36-3.91,11.21-8.18,14.15,19.77,.85,38.47,.51,56.09-.99Z" style="fill:#466fb5; fill-rule:evenodd;"/><path d="M1511.43,971.56c8.96-5,18.91-6.83,29.84-5.49,17.98-38.83,6.86-94.04,32.17-178.29-18.24,9.16-39.49,53.48-63.76,132.96-2.64,2.23-6.2,4.77-10.7,7.6l12.45,43.22Z" style="fill:#6d96ce; fill-rule:evenodd;"/><path d="M1573.44,787.77c-25.31,84.26-14.2,139.46-32.17,178.29,3.66,.45,7.42,1.25,11.3,2.41,50.31-19.66,92.14-32.65,125.49-38.99,2.09-20.33,7.41-52.6,15.97-96.8-3.5,28.51-5.41,61.25-5.74,98.23,4,.5,8,1.44,12.02,2.84-22.61,.12-68.65,12.8-138.12,38.02l-.57,.2c8.01,8.63,11.52,19.88,10.52,33.75-.1,1.36-.24,2.75-.42,4.16,41.97-6.14,76.05-12.64,102.23-19.5,21.57-5.65,37.78-11.54,48.64-17.67,28.37-47.21,32.78-108.17,13.26-182.86-10.55-13.47-34.11-18.48-70.68-15.06-38.13,32.18-55.57,33.72-52.33,4.64-16.64,.45-29.78,3.23-39.4,8.33Z" style="fill:#6d96ce; fill-rule:evenodd;"/><path d="M1572.27,788.4c-22.61,46.86-26.51,142.05-36.91,152.34-3.96,4.73-13.22,10.53-27.8,17.38l.27,.94,3.6,12.49c8.96-5,18.91-6.83,29.84-5.49,17.98-38.83,6.86-94.04,32.17-178.29-.39,.19-.77,.41-1.16,.63Z" style="fill:#466fb5; fill-rule:evenodd;"/><path d="M1371.82,1025.56l226.94,9.46c11.67,.49,18.98-6.02,21-17.4l-255.49-10.65-.71-.03c-2.47-.1-6.08,1-4.93,7.87,1.05,5.66,6.99,10.5,13.2,10.75Z" style="fill:#859ac6; fill-rule:evenodd;"/><path d="M1334.63,885.03l146.64,6.11c3.89,.16,8.01,3.53,9.15,7.47l31.05,107.81c1.14,3.94-1.12,7.05-5.02,6.88l-146.64-6.11c-3.89-.17-8.01-3.53-9.14-7.47l-31.05-107.81c-1.14-3.95,1.12-7.05,5.01-6.89Z" style="fill:#c4d1eb; fill-rule:evenodd;"/><path d="M1347.72,928.84l19.11,66.32c.94,3.28,4.43,6.32,7.88,6.46l133.81,5.58c3.38,.14,4.97-2.55,4.07-5.65l-12.75-44.27c-11.02,1.37-22.51,2.11-34.32,2.11-8.87,0-17.56-.41-26-1.2-1.68,4.51-5.94,7.58-11.41,7.58-6.98,0-13.61-4.99-15.96-11.6-25.61-5.21-47.83-14.05-64.43-25.34Z" style="fill:#859ac6; fill-rule:evenodd;"/><path d="M1303.79,1044.4c11.21-7.29,19.86-14.05,25.97-20.29,9.5,4.29,18.56,8.16,27.18,11.63,20.82-2.69,45.2-5.27,73.13-7.76l-58.26-2.43c-6.21-.26-12.15-5.1-13.2-10.75-1.15-6.87,2.46-7.96,4.93-7.87l.71,.03,5.56,.23c-3.9-.16-8.01-3.52-9.15-7.47l-15.35-53.29c-9.36-.54-17.65-.71-24.89-.52-41.15,14.92-76.6,76.07-153.11,126.98,1.26,13.36,7.83,21.87,18.06,30.36,40.15-17.18,80.52-36.32,104.22-50.13,5.12-2.99,9.85-5.89,14.2-8.72Z" style="fill:#223f81; fill-rule:evenodd;"/><path d="M1085.5,1078.57c30.43,26.85,53,43.06,66.34,49.23,14.38,6.65,18.47,1.59,21.98-15.16-40.11-12.76-18.3-21.57-33.34-31.63-16.1-.99-34.44-8.51-54.98-22.57-12.88-1.34-14.37,6.58,0,20.13Z" style="fill:#20386f; fill-rule:evenodd;"/><path d="M1093.48,1043.59c1.3,9.37,2.16,13.88,3.35,22.07h0l.62,.37,.3,.17,.33,.19,.59,.34h.03s.62,.37,.62,.37l.27,.15,.35,.2,.56,.31,.06,.03,.61,.34,.23,.12,1.61,.87,.21,.1,.4,.21,.49,.26,.12,.06,.61,.31,.17,.09,.44,.22,.46,.23,.15,.07,.6,.3,.14,.07,.46,.23,.43,.2,.17,.09,.6,.29,.11,.05,.48,.23,.4,.18,.2,.09,.59,.28,.08,.04,.51,.23,.36,.16,.82,.37,.05,.02,.87,.38,.26,.11,.59,.25h.02s.56,.25,.56,.25l.3,.12,.28,.12,.58,.23h0s.58,.24,.58,.24l.27,.1,.31,.12,.54,.2h.03s.58,.23,.58,.23l.24,.09,.33,.12,.51,.19,.06,.03,.57,.2,.21,.07,.36,.12,.47,.16,.09,.03,.56,.2,.18,.05,.38,.13,.56,.18,.56,.18,.15,.05,.41,.13,.41,.12,.15,.04,.56,.17,.12,.04,.44,.12,.38,.11,.17,.04,.55,.15,.09,.03,.46,.12,.36,.09,.2,.05,.55,.14,1.09,.26,.54,.13h.04s.5,.12,.5,.12l.29,.06,.25,.05,.54,.11h.01s.53,.11,.53,.11l.52,.1h.02s.51,.1,.51,.1h.02s.53,.1,.53,.1l.24,.04,.3,.05c-.1-.99-.3-2.07-.64-3.28-11.57-11.25-21.82-23.39-28.23-47.44-8.9-9.42-13.57-5.59-11.51,14.05h0Zm7.43,48.23c2.37,12.91,5.23,24.9,8.05,31.08,5.99,13.15,17.15,6.4,29.36-2.78-9.96-6.43-22.5-15.83-37.4-28.3Z" style="fill:#0e2952; fill-rule:evenodd;"/><path d="M1118.52,1076.13l.39,.14,.06,.02,.57,.21,.21,.07,.36,.12,.47,.16,.09,.03,.56,.2,.18,.05,.39,.13,.56,.18,.56,.18,.15,.05,.41,.13,.41,.12,.15,.04,.56,.17,.12,.04,.44,.12,.38,.11,.17,.04,.55,.15,.09,.03,.46,.12,.36,.09,.2,.05,.55,.14,1.09,.26,.54,.12h.04s.5,.12,.5,.12l.29,.06,.25,.05,.54,.12h.01l.53,.1,.52,.1h.02s.51,.1,.51,.1h.02s.53,.1,.53,.1l.24,.04,.3,.06c-.1-.99-.31-2.07-.64-3.28-11.57-11.25-21.82-23.39-28.23-47.44-2.32-2.45-4.35-4.01-6.06-4.62,1.36,19.82,7.89,36.89,19.6,51.21Z" style="fill:#20386f; fill-rule:evenodd;"/><path d="M1169.92,1111.34c3.62-4.91,7.62-8.6,11.99-11.09-7-6.41-11.84-13.16-13.82-22.26-7.94,4.19-15.65,6.62-23.13,7.28,5.36,8.07-4.66,15.79,24.96,26.07Z" style="fill:#f9af79; fill-rule:evenodd;"/><path d="M1594.77,1116.68c48.97-3.1,68.92-39.72,67.98-85.52-16.18,1.17-33.24,1.37-51.18,.61-3.37,2.32-7.67,3.46-12.81,3.24l-168.68-7.03c-27.93,2.48-52.31,5.07-73.13,7.76-12.82,1.66-24.29,3.35-34.41,5.08-7.22,1.94-18.03,5.94-32.45,12.01l-.49,.29c-23.69,13.82-64.07,32.95-104.22,50.13-1.2-1-2.35-2-3.46-3-4.37,2.48-8.37,6.18-11.99,11.09,1.23,.43,2.53,.86,3.9,1.3-.05,.28-.12,.56-.18,.85,114.34,10.38,152-7,182.31-16.15,99.26,17.71,147.05,24.22,238.82,19.35Z" style="fill:#223f81; fill-rule:evenodd;"/><path d="M1651.15,717.44c-3.75-15.45-4.46-33.05-9.55-39.84-41.24-14.51-45.85,8.32-64.04,12.67-.19,5.65,1.54,11.98,5.19,18.98-1.37,24.99,4.5,40.43,17.61,46.29,3.32,3.5,8.77,5.55,16.37,6.16-.72,3.2-2.94,14.77-3.88,17.73h0c-3.24,29.08,14.2,27.54,52.33-4.64h.16c-.23-10.25-1.09-18.1-.93-25.82,.11-5.25,.32-9.91,.63-13.99,13.66-14.23,16.36-25.75,8.11-34.58-10.82-5.11-17.08,2.15-18.81,21.8-3.23-1.25-.99-.18-3.18-4.76Z" style="fill:#f9af79; fill-rule:evenodd;"/><path d="M1577.55,690.27c18.19-4.35,22.8-27.18,64.05-12.67,5.08,6.79,5.79,24.39,9.55,39.85,2.2,4.58-.05,3.51,3.18,4.76,1.72-19.65,7.99-26.91,18.81-21.8,8.25,8.83,5.55,20.36-8.11,34.58-.3,4.08-.52,8.74-.63,13.99,38.42-35.41,30.65-83.48,7.25-99.29,5.7,.59,11.5,2.8,17.42,6.63-8.52-11.42-20-15.39-34.41-11.91,1.55-8.06,1.25-14.04-.9-17.9-.65,5.46-1.74,9.68-3.26,12.66-9.26-8.46-27.04-10.43-45.25-3.58-23.56,8.87-47.9,30.52-57.17,24.07,1.4,22.24,14.02,35.73,29.47,30.62Z" style="fill:#20386f; fill-rule:evenodd;"/><path d="M1641,754.72c-6.84,4.42-14.94,6.75-24.29,7-.4,1.77-1.27,6.12-2.12,10.16,11.8-3.16,20.6-8.88,26.4-17.16Z" style="fill:#ed7d57; fill-rule:evenodd;"/><path d="M1358.98,1009.37c-12.87-4.53-23.96-9.99-33.27-16.38-4.33,4.2-8.63,8.3-12.93,12.3-42.03,39.19-82.64,69.15-121.62,87.61-3.86,1.83-7.71,3.54-11.53,5.15,.74,.74,1.5,1.46,2.29,2.2l3.46,3c7.92-3.39,15.86-6.86,23.67-10.34,31.77-14.18,61.53-28.7,80.55-39.78,.16-.1,.33-.2,.49-.29,4.93-2.88,9.5-5.7,13.71-8.43,3.2-2.08,6.2-4.12,8.98-6.12,6.96-4.99,12.63-9.71,16.99-14.17,9.5,4.29,18.56,8.16,27.18,11.63,11.74-1.51,24.61-3,38.61-4.45,10.83-1.12,22.34-2.23,34.52-3.31l-34.52-1.44-23.74-.99c-6.21-.26-12.14-5.1-13.2-10.75-.42-2.5-.21-4.24,.36-5.43Z" style="fill:#20386f; fill-rule:evenodd;"/><path d="M1587.76,1092.9c-28.53,8.02-68.21,9.01-119.02,2.97-8.68-.98-17.07-1.97-25.17-2.97-17.37-2.15-33.37-4.33-48.02-6.55-14.59-2.21-27.82-4.47-39.7-6.76-8.66,5.11-18.65,9.54-29.95,13.31-4.19,1.4-8.57,2.7-13.13,3.91-35.68,9.5-82.5,13.34-140.46,11.52-.82,.94-1.61,1.95-2.4,3,1.23,.43,2.53,.86,3.9,1.3l-.18,.85c69.55,6.32,110.72,2.35,139.13-3.78,18.3-3.95,31.3-8.79,43.17-12.38,14.16,2.53,27.26,4.83,39.61,6.9,74.18,12.45,120.53,16.64,199.22,12.46,21.92-1.39,38.02-9.49,49.04-22.13,13.6-15.59,19.45-38.09,18.94-63.4-2.21,.17-4.42,.31-6.65,.43-4.49,.25-9.04,.42-13.66,.53-1.61,30.74-19.84,51-54.68,60.79Z" style="fill:#20386f; fill-rule:evenodd;"/><path d="M1424.16,941.53c5.47,0,10.63,4.44,11.53,9.92,.89,5.48-2.82,9.91-8.3,9.91s-10.63-4.43-11.53-9.91c-.88-5.48,2.83-9.92,8.3-9.92Z" style="fill:#859ac6; fill-rule:evenodd;"/><path d="M275.43,1060.92c-2.15,2.48-2.43,5.24-1.36,8.19,0,.01,0,.02,.02,.04,1.97,5.47,8.51,11.57,16.1,17.65,.96,.78,1.83,1.5,2.58,2.16,.2,.17,.4,.35,.58,.52,.15,.13,.3,.28,.45,.4,7.07,6.52,4.41,8.02,17.12,21.24,14.48,15.08,24.47,15.35,27.31,13.98,2.39-1.17-2.48-9.16-7.89-18.15-.26-.44-.51-.87-.78-1.31-.72-1.2-1.43-2.42-2.14-3.61-6.34-10.82-4.72-15.9-3.21-31.99,1.22-13.09,20.36-73.09,20.36-73.09l-27.78-4.78s-8.35,47.78-17.56,55.14c-4.94,3.92-10.45,3.97-15.18,6.88-.34,.2-.67,.4-.99,.62-2.7,1.78-5.44,3.62-7.6,6.1Z" style="fill:#f9af79; fill-rule:evenodd;"/><path d="M275.43,1060.92c-2.15,2.48-2.43,5.24-1.36,8.19,0,.01,0,.02,.02,.04,2.43,5.47,8.79,11.53,16.12,17.6,.96,.8,1.81,1.52,2.56,2.21,.2,.17,.4,.35,.58,.52,.15,.13,.3,.28,.45,.4,7.07,6.52,4.41,8.02,17.12,21.24,14.48,15.08,24.47,15.35,27.31,13.98,2.39-1.17-2.48-9.16-7.89-18.15-2.81-1.03-15.91-6.36-25.82-19.04-8.73-11.13-14.55-25.43-20.49-33.72-.34,.2-.67,.4-.99,.62-2.7,1.78-5.44,3.62-7.6,6.1Z" style="fill:#172b57; fill-rule:evenodd;"/><path d="M499.35,1043.57c1.7,8.57,13.93,7.15,27.58,3.81,13.64-3.34,10.41,.62,29.83-1.53,19.43-2.15,25.31-9.39,25.91-12.28,.52-2.56-9.08-3.46-19.38-4.66-1.29-.13-2.59-.29-3.9-.46-11.61-1.45-20.13-8.96-30.69-15.13-10-5.83-24.93-29.61-24.93-29.61l-26.65,2.12s13.98,21.23,19.39,30.47c3.19,5.43,3.01,12.61,2.61,18.16-.2,3.01-.39,6.09,.21,9.11Z" style="fill:#f9af79; fill-rule:evenodd;"/><path d="M526.93,1047.38c13.64-3.34,10.41,.62,29.83-1.53,19.43-2.15,25.31-9.39,25.91-12.28,.52-2.56-9.08-3.46-19.38-4.66l-.09,.2s-11.66,8.27-27.83,8.65c-13.19,.31-27.15-3.46-36.25-3.31-.2,3.01-.39,6.09,.21,9.11,1.7,8.57,13.93,7.15,27.58,3.81Z" style="fill:#172b57; fill-rule:evenodd;"/><path d="M440.06,652.24s6.35-15.55,13.33-16.19c6.99-.63,29.2-4.13,30.79-.96,1.58,3.17,0,14.61-4.77,18.73-4.76,4.13-34.28,10.79-34.28,10.79l-5.08-12.37Z" style="fill:#f9af79; fill-rule:evenodd;"/><path d="M397.24,873.2l-57.42,154.53s-8.82,.86-17.27-1.58c-7.78-2.24-16.7-8.12-16.7-8.12,0,0,14.24-148.38,40.37-179.24,26.11-30.86,51.04,34.42,51.04,34.42Z" style="fill:#20386f; fill-rule:evenodd;"/><path d="M170.13,810.68s165-55.79,201.79-43.92c36.8,11.87,147.29,231.69,147.29,231.69,0,0-2.49,3.32-9.3,5.87-6.32,2.38-21.65,2.23-21.65,2.23,0,0-99.71-85.48-111.57-110.4-11.88-24.93-16.62-48.66-28.49-46.29-11.88,2.37-153.12,58.17-185.19,24.93-32.05-33.23-23.66-76.42-23.66-76.42l30.79,12.31Z" style="fill:#223f81; fill-rule:evenodd;"/><path d="M270.96,551.14c2.63-5.45,5.58-15.1,7.02-32.33-.23,1.71-3.19,23.44-11.55,35.74-34.32,22.52-100.08,97.75-98.78,112.01,0,0-23.17-39.29-23.57-39.53,0,0-42.73-54.33,7.92-85.47,25.74-15.83,25.6-36.13,24.53-53.77-1.08-17.64,7.02-93.57,58.58-73.7,0,0,8.28-3.67,11.99-3.12,0,0-3.03,.58-4.57,2.16,5.98-.36,14.53,.09,21.66,4.15,18.91,10.74,35.82,107.11,6.77,133.86Z" style="fill:#20386f; fill-rule:evenodd;"/><path d="M264.4,555.67c.17,.07-16.56,8.76-29.16,5.32-11.84-3.23-19.57-18.57-19.41-18.62,5.02-.99,6.46-7.89,6.35-37.5l2.27,.44,38.12,7.56s-.86,11.99-.88,23.29c-.04,9.5,.55,18.49,2.72,19.51Z" style="fill:#f9af79; fill-rule:evenodd;"/><path d="M262.56,512.86s-.86,11.99-.88,23.29c-21.34-.6-32.62-20.06-37.24-30.85l38.12,7.56Z" style="fill:#ec9355; fill-rule:evenodd;"/><path d="M220.51,501.16s-11.18-17.67-13.87-32.77c-1.91-10.78,3.59-50.76,43.75-45,0,0,11.67,1.15,22.64,8.56,8.72,5.89,21.3,18.6,7.24,53.49l-3.66,11.79-56.09,3.94Z" style="fill:#20386f; fill-rule:evenodd;"/><path d="M269.7,523.56s-50.49,.83-50.51-30.6c-.04-31.44-6.57-52.51,25.65-54.38,32.22-1.86,38.5,10.13,41.06,20.63,2.56,10.49-3.08,63.33-16.2,64.35Z" style="fill:#f9af79; fill-rule:evenodd;"/><path d="M267.82,437.81s-13.82,36.88-35.02,42.34c-21.22,5.45-30.4-.23-30.4-.23,0,0,16.26-12.93,19.63-35.48,0,0,35.37-24.19,45.79-6.63Z" style="fill:#20386f; fill-rule:evenodd;"/><path d="M264.4,440.8s10.32,8.24,12.84,16.24c2.53,8.01,3.64,24.49,8.45,23.93,0,0,10.42-25.07-1.28-39.26-12.42-15.04-20.01-.91-20.01-.91Z" style="fill:#20386f; fill-rule:evenodd;"/><path d="M131.42,811.55c2.73,7.56,11.07,9.5,22.26,8.19,21.34-2.49,53.03-16.82,75.86-26.72,34.83-15.1,50.65-.92,61.73-10.52,11.08-9.62-12.66-30.97,7.92-130.15,6.97-33.63-37.24-105.76-37.24-105.76,0,0-3.83,20.88-46.14-4.23-1.49-.88-18.15,23.77-34.19,54.17-17.68,33.53-34.61,74.05-29.63,94.93,9.49,39.79-28.5,98.12-20.58,120.08Z" style="fill:#6d96ce; fill-rule:evenodd;"/><path d="M261.96,546.6l26.07,106.99s3.25,5.78,8.34,14.01c11.94,19.31,34.04,52.11,48.2,55.44,6.97,1.64,21.83-4.17,38.25-12.46,31.06-15.7,67.79-40.3,67.79-40.3,2.37-14.24-10.02-25.86-10.02-25.86,0,0-74.4,27.96-81.78,28.49-16.11,1.16-32.5-76.57-47.55-102.49-10.88-18.73-49.31-23.83-49.31-23.83Z" style="fill:#6d96ce; fill-rule:evenodd;"/><path d="M131.42,811.55c2.73,7.56,11.07,9.5,22.26,8.19,14.77-6.43,78.57-31.15,77.85-47.9-1.06-24.79-12.27-25.59-4.35-56.18,6.35-24.58-52.59-70.26-61.99-80.2-17.68,33.54-18.16,35.12-13.18,56,9.49,39.79-28.5,98.12-20.58,120.08Z" style="fill:#466fb5; fill-rule:evenodd;"/><path d="M296.37,667.61c11.94,19.31,34.04,52.11,48.2,55.44,6.97,1.64,21.83-4.17,38.25-12.46-11.99,3.08-23.64,2.99-34.95,1.9-12.28-1.18-15.84-16.22-35.23-38.77-12.57-14.63-15.66-10.95-16.27-6.11Z" style="fill:#466fb5; fill-rule:evenodd;"/><path d="M237.26,715.07s10.68-8.3,20.78-6.33c10.09,1.97,15.04,8.92,14.63,12.07-.38,3.16-5.73,12.07-13.45,12.87-7.72,.78-29.68-4.75-29.68-4.75l7.72-13.85Z" style="fill:#f9af79; fill-rule:evenodd;"/><path d="M215.82,542.37s-41.14,2.54-55.38,22.4c-20.06,27.97-54.87,142.12-45.38,168.24l125.16-.53s3.04-14.17-1.18-21.03c-4.22-6.86-72.8-17.94-75.98-21.1-3.16-3.18,39.57-61.74,39.57-71.24s13.18-76.73,13.18-76.73Z" style="fill:#6d96ce; fill-rule:evenodd;"/><polygon points="248.01 761.82 399.54 761.82 426.86 666.56 275.55 666.56 248.01 761.82" style="fill:#c4d1eb; fill-rule:evenodd;"/><rect x="200.92" y="758.11" width="198.11" height="3.71" style="fill:#859ac6;"/><path d="M351.43,712.64c.96-3.35-.99-6.06-4.33-6.06s-6.84,2.72-7.79,6.06c-.96,3.35,.97,6.06,4.32,6.06s6.84-2.71,7.81-6.06Z" style="fill:#859ac6; fill-rule:evenodd;"/></svg>