<?xml version="1.0" encoding="UTF-8"?><svg id="a" xmlns="http://www.w3.org/2000/svg" viewBox="0 0 1855.05 1534.08"><path d="M0,988.61c38.77,192.65,201.77,285.59,400.81,193.23C344.42,976.98,188.91,901.54,0,988.61Z" style="fill:#e0e8f5; fill-rule:evenodd;"/><path d="M17.67,1003.46c-1.44-.68-2.05-2.4-1.37-3.85,.68-1.44,2.41-2.05,3.85-1.37l135.98,64.44-3.62-86.56c-.07-1.59,1.17-2.94,2.76-3,1.59-.07,2.94,1.18,3,2.77l3.75,89.59,37.76,17.9c.89-.03,1.79,.37,2.38,1.12l28.96,13.72,10.62-96.5c.18-1.58,1.6-2.73,3.19-2.55,1.58,.17,2.73,1.6,2.55,3.19l-10.84,98.49,33.94,16.08c.12,.05,.23,.1,.34,.17l34.47,16.33,10.43-70.94c.23-1.58,1.7-2.67,3.27-2.43,1.58,.24,2.67,1.7,2.43,3.27l-10.69,72.68,91.21,43.23c1.44,.68,2.06,2.4,1.37,3.84-.68,1.44-2.4,2.06-3.84,1.37l-61.33-29.07-42.86,37.31c-1.2,1.05-3.02,.92-4.07-.27-1.05-1.2-.93-3.02,.28-4.07l40.97-35.67-62.48-29.61-71.59,68.76c-1.15,1.11-2.98,1.07-4.09-.08-1.11-1.15-1.07-2.98,.08-4.09l70-67.24-32.11-15.22-.13-.06-32.32-15.32-81.48,60.39c-1.28,.95-3.09,.68-4.04-.6-.95-1.28-.68-3.09,.6-4.04l79-58.55-35.93-17.03-.18-.09-38.41-18.21-65.08,37.42c-1.38,.79-3.14,.32-3.94-1.06-.8-1.38-.32-3.14,1.06-3.94l61.62-35.43-95.46-45.24Z" style="fill:#fff; fill-rule:evenodd;"/><path d="M218.44,693.87c-107.86,164.27-57.26,344.95,149.22,419.18,103.91-185.34,46.34-348.31-149.22-419.18Z" style="fill:#c4d1eb; fill-rule:evenodd;"/><path d="M220.58,716.85c-.54-1.49,.23-3.15,1.73-3.69,1.49-.55,3.15,.22,3.7,1.72l51.41,141.43,58.27-64.1c1.07-1.18,2.9-1.26,4.08-.19,1.18,1.07,1.26,2.9,.19,4.08l-60.32,66.35,14.28,39.27c.65,.61,1.02,1.52,.9,2.47l10.95,30.12,75.4-61.17c1.24-1,3.06-.82,4.06,.42,1,1.24,.82,3.06-.42,4.06l-76.95,62.42,12.83,35.29c.05,.11,.09,.23,.12,.35l13.03,35.84,57.29-43.12c1.27-.96,3.08-.7,4.04,.57,.96,1.28,.7,3.08-.57,4.03l-58.69,44.18,34.48,94.86c.54,1.5-.23,3.16-1.73,3.7-1.5,.54-3.16-.23-3.7-1.73l-23.19-63.79-56.71-3.59c-1.59-.1-2.8-1.47-2.7-3.05,.1-1.59,1.47-2.8,3.05-2.7l54.21,3.43-23.62-64.97-99.25-1.42c-1.6-.02-2.87-1.34-2.85-2.93,.02-1.6,1.34-2.87,2.93-2.85l97.06,1.39-12.14-33.4-.05-.13-12.22-33.62-100.4-14.33c-1.58-.22-2.68-1.69-2.45-3.27,.22-1.58,1.69-2.68,3.27-2.45l97.34,13.89-13.58-37.37-.07-.19-14.52-39.95-72.59-19.13c-1.54-.4-2.46-1.98-2.06-3.53,.4-1.54,1.98-2.46,3.52-2.06l68.73,18.11-36.09-99.29Z" style="fill:#fff; fill-rule:evenodd;"/><path d="M656.31,361.02H151.9c3.62-15.33,17.38-26.73,33.81-26.73,.79,0,1.58,.03,2.36,.09,7.96-19.5,27.13-33.25,49.5-33.25,9.79,0,18.94,2.64,26.83,7.23,9.62-31.71,39.08-54.8,73.93-54.8,7.09,0,13.96,.96,20.49,2.76,16.87-37.25,54.37-63.17,97.93-63.17,51.66,0,94.8,36.47,105.11,85.06,.88-.03,1.74-.06,2.61-.06,33.1,0,60.4,24.75,64.44,56.74,13.5,2.53,24.26,12.86,27.39,26.13Z" style="fill:#e0e8f5; fill-rule:evenodd;"/><path d="M1528.76,219.88c32.29,43.46,8.25,75.99-33.69,136.92-41.94,60.92-94.83,305.72-94.83,305.72l24.54,1.23s45.66-253.27,91.36-315.25c45.7-61.97,66.01-93.44,90.7-65.62,24.7,27.83-78.09-63-78.09-63Z" style="fill:#b0c2e4; fill-rule:evenodd;"/><path d="M1516.23,169.29c8.88-20.32,41.67-37.8,83.32-49.95-11.75,30.24-39.71,77.96-23.1,92.1,22.44,19.06,13.59-56.88,30.95-94.3,38.94-10.45,84.48-16.33,125.22-15.74-.1,.14-.16,.27-.24,.42-33.13,52.01-66.45,68.57-56.17,79.41,7.72,8.16,49.62-51.2,94.8-77.04,29.31,4.09,53.11,12.79,65.37,27.11,19,22.14,31,40.82-2.07,90.55-14.68,6.71-32.68,10.06-52.46,8.24-52.19-4.82-76.44-7.77-43.9,16.27,15.93,11.77,47.03,8.65,71.96,7.9-10.5,12.76-23.17,27.05-38.29,43.18-9.61,10.23-19.64,18.78-29.93,25.87-17.12-.04-31.51-2.81-38.49-7.55-21.89-14.88-77.03-59.25-95.05-48.58-17.63,10.44,109.56,43.94,94.03,76.17-69.44,23.83-137.58-7.17-143.78-42.65-8.37-47.66-68.95-70.27-42.17-131.42Z" style="fill:#c4d1eb; fill-rule:evenodd;"/><path d="M1598.16,437.06c-58.34-64.48-137.58-30.29-184.05,17.36-46.44,47.66-44.74,175.51-44.74,175.51,0,0,13.67,2.66,14.67-2.46s-9.37-152.36,91.65-198.28c63.2-28.7,99.55-1.9,101.03,17.87,1.47,19.77-32.47,48.6-32.47,48.6l53.92-58.6Z" style="fill:#b0c2e4; fill-rule:evenodd;"/><path d="M1461.57,301.29c68.3,13.27,69.92,123.41,39.18,181.19-30.7,57.8-78.54,167.17-78.54,167.17l-13.75-20.37s96.04-147.83,94.6-222.51c-1.44-74.67-36.64-93.91-43.49-95.24-6.82-1.33,1.99-10.24,1.99-10.24Z" style="fill:#b0c2e4; fill-rule:evenodd;"/><path d="M1486.23,480.16c6.06-5.43,12.99-9.54,20.91-11.63-1.94,4.92-4.06,9.58-6.39,13.95-14,26.34-31.51,63.38-46.51,95.9,.13-4.5,.24-11.48,.49-22.22,.03-2.55,.25-5.27,.53-8.14,11.12-21.44,22.27-44.99,30.97-67.86Z" style="fill:#6eb268; fill-rule:evenodd;"/><path d="M1504.82,484.3c140.31-29.42,86.54-117.64,191.28-45.91,7.38,5.05,15.46,15.75,22.94,29.77-10.73,.91-23.45,.6-36.8-4.13-33.13-11.76-26.5,17.88,28.52,35.65,10.34,3.34,18.62,6.8,25.29,10.7,16.84,56.76,15.76,126.92-45.63,139.45-12.09,2.48-26.43,2.45-42.03,.44-14.81-17.32,22.66-93.68-6.55-87.82-27.99,5.65-5.25,70.68-12.78,84.48-25.52-5.44-53.08-15.14-78.82-27.11-9.57-8.09-16.21-17.75-16.65-28.81-1.58-37.51,59.04-48.76,66.74-79.15,7.04-27.93-32.75,58.13-94.14,60-48.4-35.2-67.01-73.83-1.39-87.58Z" style="fill:#c4d1eb; fill-rule:evenodd;"/><path d="M1431.14,369.77c19.31-26.36-15.22-40.17-17.8-17.64-2.35,19.96-11.45,67.78-34.14,76.88-34.04-10.53-78.63-33.74-110.25-62.05,.1-2.97,1.13-5.86,3.23-8.6,21.34-27.74,125.31-34.1,96.56-50.31-22.86-12.92-75.12,26.89-114.38,44.42-17.7-19.78-27.95-41.25-23.88-62.18,5.51-28.37,46.22-53.76,93.76-60.45,19.65,5.92,36.16,20.5,62.04,42.65,38.25,32.71,35.95-8.61-.15-39.87,34.76,8.63,66.8,30.42,85.64,71.24,0,0-5.42,14.83,6.17,41.66,31.64,73.17-26.69,100.97-87.17,86.67,6.77-16.34,27.04-44.21,40.35-62.42Z" style="fill:#c4d1eb; fill-rule:evenodd;"/><path d="M1594.62,433.36c28.36,32.28,59.57,69.64,101.09,98.96,41.56,29.34,19.47,94.32,19.47,94.32,0,0,18.02-56.33-16.07-83.43-34.1-27.08-54.54-55.47-82.48-65.62-27.97-10.17-43.02-17.81-43.02-17.81,0,0,12.66-16.44,8.67-24.3-3.98-7.86,12.34-2.13,12.34-2.13Z" style="fill:#b0c2e4; fill-rule:evenodd;"/><path d="M1817.98,162.47c-128.47,8.88-233.15,69.63-253.56,85.35-20.37,15.71-21.41,21.03-21.41,21.03l8.21,26.78,6.66-1.86s-5.89-22.39,25.07-43.93c53.39-37.15,114.54-62.77,154.82-71.48,40.27-8.7,80.22-15.89,80.22-15.89Z" style="fill:#b0c2e4; fill-rule:evenodd;"/><path d="M1349.46,772.99l46.67,9.07c33.19,6.45,65.31-15.22,71.76-48.41l20.83-107.21-166.84-32.42-20.83,107.21c-6.45,33.18,15.22,65.3,48.41,71.76Z" style="fill:#c4d1eb; fill-rule:evenodd;"/><rect x="1394.46" y="550.29" width="11.96" height="169.95" transform="translate(509.68 1888.8) rotate(-79)" style="fill:#fff;"/><rect x="1393.23" y="569.29" width="7.03" height="169.95" transform="translate(488.07 1900.57) rotate(-79)" style="fill:#fff;"/><path d="M1285.36,1463.31c281.65,0,509.97,15.84,509.97,35.38s-228.32,35.39-509.97,35.39-509.97-15.84-509.97-35.39,228.32-35.38,509.97-35.38Z" style="fill:#c4d1eb; fill-rule:evenodd;"/><path d="M368.44,422.27H1509.63c14.86,0,27.23,12.09,27.02,26.84l-10.21,704.01c-.22,14.74-12.19,26.84-27.02,26.84H378.65c-14.84,0-26.81-12.08-27.02-26.84l-10.21-704.01c-.21-14.76,12.16-26.84,27.02-26.84Z" style="fill:#b0c2e4; fill-rule:evenodd;"/><polygon points="377.22 457.94 387.18 1144.29 1490.9 1144.29 1500.85 457.94 377.22 457.94" style="fill:#fff; fill-rule:evenodd;"/><polygon points="401.45 481.82 410.72 1120.41 1467.36 1120.41 1476.62 481.82 401.45 481.82" style="fill:#c4d1eb; fill-rule:evenodd;"/><polygon points="1475.45 562.58 402.62 562.58 401.45 481.82 1476.62 481.82 1475.45 562.58" style="fill:#9db2d9; fill-rule:evenodd;"/><path d="M455.17,499.33H1014.34c12.57,0,22.86,10.29,22.86,22.86h0c0,12.58-10.29,22.87-22.86,22.87H455.17c-12.58,0-22.86-10.29-22.86-22.86h0c0-12.58,10.29-22.87,22.86-22.87Z" style="fill:#fff; fill-rule:evenodd;"/><path d="M1408.24,499.33c12.63,0,22.87,10.24,22.87,22.87s-10.24,22.86-22.87,22.86-22.86-10.24-22.86-22.86,10.24-22.87,22.86-22.87Z" style="fill:#fff; fill-rule:evenodd;"/><path d="M547.21,628.84h783.66v16.63H547.21v-16.63h0Zm0,384.18h783.66v16.63H547.21v-16.63h0Zm0-48.02h783.66v16.63H547.21v-16.63h0Zm0-48.02h783.66v16.63H547.21v-16.63h0Zm0-48.02h783.66v16.62H547.21v-16.62h0Zm0-48.03h783.66v16.63H547.21v-16.63h0Zm0-48.02h783.66v16.63H547.21v-16.63h0Zm0-48.02h783.66v16.63H547.21v-16.63h0Zm0-48.02h783.66v16.63H547.21v-16.63Z" style="fill:#fff; fill-rule:evenodd;"/><polygon points="133.82 1351.17 505.37 1351.17 1372.7 1351.17 1744.26 1351.17 1532.75 1179.96 1372.7 1179.96 505.37 1179.96 345.32 1179.96 133.82 1351.17" style="fill:#c4d1eb; fill-rule:evenodd;"/><path d="M133.82,1351.17H1744.26c0,14.54-10.34,27.45-24.04,30.4H157.85c-13.69-2.94-24.04-15.86-24.04-30.4Z" style="fill:#9db2d9; fill-rule:evenodd;"/><polygon points="724.92 1287.95 779.11 1287.95 1098.97 1287.95 1153.16 1287.95 1167.3 1313.94 1098.97 1313.94 779.11 1313.94 710.78 1313.94 724.92 1287.95" style="fill:#fff; fill-rule:evenodd;"/><path d="M1456.6,219.95h-504.4c3.62-15.33,17.38-26.73,33.82-26.73,.78,0,1.58,.03,2.36,.09,7.96-19.5,27.12-33.25,49.5-33.25,9.79,0,18.95,2.64,26.83,7.23,9.62-31.71,39.08-54.8,73.93-54.8,7.09,0,13.97,.96,20.49,2.76,16.88-37.25,54.37-63.17,97.93-63.17,51.66,0,94.8,36.47,105.11,85.06,.88-.03,1.74-.07,2.61-.07,33.09,0,60.41,24.75,64.44,56.74,13.5,2.53,24.26,12.85,27.39,26.13Z" style="fill:#e0e8f5; fill-rule:evenodd;"/><path d="M851.31,1460.68c-1.42,1.62-1.6,3.44-.89,5.38,0,.01,0,.02,0,.03,1.3,3.59,5.6,7.6,10.58,11.6,.64,.51,1.2,.98,1.69,1.42,.13,.12,.26,.22,.39,.34,.1,.09,.2,.18,.29,.26,4.65,4.29,2.9,5.27,11.25,13.96,9.52,9.91,16.08,10.09,17.95,9.19,1.57-.77-1.63-6.03-5.19-11.93-.17-.29-.34-.58-.52-.86-.48-.78-.94-1.59-1.41-2.38-4.17-7.11-3.1-10.45-2.11-21.02,.8-8.6,13.38-48.04,13.38-48.04l-18.26-3.14s-5.49,31.4-11.55,36.24c-3.24,2.58-6.86,2.61-9.98,4.53-.22,.13-.44,.26-.65,.41-1.78,1.17-3.58,2.38-5,4.01Z" style="fill:#f9af79; fill-rule:evenodd;"/><path d="M851.31,1460.68c-1.42,1.62-1.6,3.44-.89,5.38,0,.01,0,.02,0,.03,1.6,3.59,5.78,7.58,10.6,11.57,.63,.52,1.19,1,1.68,1.45,.13,.12,.26,.22,.39,.34,.1,.09,.2,.18,.29,.26,4.65,4.29,2.9,5.27,11.25,13.96,9.52,9.91,16.08,10.09,17.95,9.19,1.57-.77-1.63-6.03-5.19-11.93-1.85-.68-10.46-4.18-16.97-12.51-5.74-7.32-9.56-16.72-13.47-22.16-.22,.13-.44,.26-.65,.41-1.78,1.17-3.58,2.38-5,4.01Z" style="fill:#172b57; fill-rule:evenodd;"/><path d="M998.5,1449.28c1.12,5.63,9.15,4.7,18.12,2.5,8.97-2.19,6.84,.41,19.61-1,12.77-1.41,16.64-6.17,17.03-8.07,.35-1.69-5.97-2.27-12.73-3.06-.85-.09-1.7-.2-2.56-.3-7.63-.96-13.24-5.89-20.17-9.95-6.57-3.83-16.38-19.46-16.38-19.46l-17.52,1.39s9.19,13.95,12.74,20.02c2.09,3.57,1.98,8.29,1.72,11.93-.13,1.98-.26,4,.14,5.99Z" style="fill:#f9af79; fill-rule:evenodd;"/><path d="M1016.62,1451.78c8.97-2.19,6.84,.41,19.61-1,12.77-1.41,16.64-6.17,17.03-8.07,.35-1.69-5.97-2.27-12.73-3.06l-.05,.13s-7.66,5.43-18.29,5.69c-8.67,.2-17.85-2.28-23.82-2.18-.13,1.98-.26,4,.14,5.99,1.12,5.63,9.15,4.7,18.12,2.5Z" style="fill:#172b57; fill-rule:evenodd;"/><path d="M959.53,1192.05s4.17-10.23,8.76-10.64c4.59-.42,19.19-2.71,20.24-.63,1.04,2.09,0,9.6-3.13,12.31-3.13,2.71-22.53,7.09-22.53,7.09l-3.34-8.13Z" style="fill:#f9af79; fill-rule:evenodd;"/><path d="M931.38,1337.29l-37.75,101.58s-5.79,.56-11.35-1.04c-5.11-1.47-10.98-5.34-10.98-5.34,0,0,9.36-97.53,26.53-117.81,17.16-20.29,33.55,22.62,33.55,22.62Z" style="fill:#172b57; fill-rule:evenodd;"/><path d="M782.1,1296.2s108.45-36.67,132.63-28.87c24.19,7.8,96.81,152.29,96.81,152.29,0,0-1.64,2.18-6.11,3.85-4.16,1.56-14.23,1.47-14.23,1.47,0,0-65.54-56.19-73.34-72.57-7.81-16.38-10.93-31.98-18.73-30.43-7.81,1.57-100.65,38.24-121.72,16.39-21.07-21.85-15.55-50.23-15.55-50.23l20.24,8.1Z" style="fill:#223f81; fill-rule:evenodd;"/><path d="M848.37,1125.6c1.73-3.57,3.67-9.93,4.62-21.24-.15,1.12-2.11,15.4-7.6,23.49-22.56,14.8-65.79,64.25-64.93,73.62,0,0-15.23-25.83-15.49-25.98,0,0-28.09-35.72,5.21-56.17,16.92-10.41,16.83-23.76,16.12-35.34-.71-11.6,4.62-61.5,38.51-48.44,0,0,5.44-2.42,7.88-2.05,0,0-1.99,.38-3,1.42,3.93-.23,9.55,.06,14.23,2.72,12.43,7.06,23.55,70.4,4.45,87.99Z" style="fill:#172b57; fill-rule:evenodd;"/><path d="M844.06,1128.57c.12,.05-10.88,5.76-19.17,3.5-7.78-2.12-12.87-12.21-12.76-12.24,3.3-.65,4.25-5.19,4.17-24.65l1.49,.29,25.06,4.96s-.56,7.88-.58,15.31c-.02,6.25,.36,12.16,1.78,12.83Z" style="fill:#f9af79; fill-rule:evenodd;"/><path d="M842.86,1100.44s-.56,7.88-.58,15.31c-14.03-.39-21.44-13.18-24.48-20.27l25.06,4.96Z" style="fill:#ec9355; fill-rule:evenodd;"/><path d="M815.21,1092.74s-7.35-11.61-9.12-21.54c-1.25-7.09,2.36-33.36,28.76-29.58,0,0,7.67,.76,14.88,5.63,5.73,3.87,14,12.23,4.76,35.16l-2.41,7.75-36.87,2.59Z" style="fill:#172b57; fill-rule:evenodd;"/><path d="M847.55,1107.47s-33.19,.55-33.2-20.12c-.02-20.67-4.32-34.52,16.86-35.74,21.18-1.23,25.3,6.66,26.99,13.56,1.69,6.89-2.02,41.63-10.65,42.3Z" style="fill:#f9af79; fill-rule:evenodd;"/><path d="M846.31,1051.1s-9.08,24.25-23.02,27.83c-13.95,3.59-19.99-.15-19.99-.15,0,0,10.69-8.5,12.91-23.32,0,0,23.25-15.9,30.1-4.36Z" style="fill:#172b57; fill-rule:evenodd;"/><path d="M844.06,1053.07s6.78,5.41,8.44,10.68c1.66,5.26,2.4,16.09,5.56,15.73,0,0,6.85-16.48-.84-25.8-8.16-9.89-13.15-.6-13.15-.6Z" style="fill:#172b57; fill-rule:evenodd;"/><path d="M756.65,1296.77c1.79,4.97,7.28,6.25,14.63,5.39,14.03-1.64,34.85-11.06,49.87-17.57,22.89-9.92,33.29-.6,40.58-6.91,7.28-6.32-8.32-20.35,5.2-85.55,4.58-22.1-24.48-69.51-24.48-69.51,0,0-2.52,13.72-30.32-2.79-.98-.58-11.94,15.63-22.48,35.61-11.62,22.04-22.75,48.67-19.48,62.4,6.23,26.15-18.73,64.49-13.53,78.93Z" style="fill:#6d96ce; fill-rule:evenodd;"/><path d="M842.46,1122.62l17.14,70.32s2.14,3.8,5.48,9.21c7.85,12.69,22.37,34.25,31.68,36.44,4.58,1.08,14.35-2.74,25.14-8.19,20.42-10.32,44.56-26.49,44.56-26.49,1.55-9.36-6.58-17-6.58-17,0,0-48.9,18.38-53.76,18.73-10.59,.76-21.36-50.33-31.26-67.37-7.15-12.3-32.41-15.66-32.41-15.66Z" style="fill:#6d96ce; fill-rule:evenodd;"/><path d="M756.65,1296.77c1.79,4.97,7.28,6.25,14.63,5.39,9.71-4.23,51.64-20.48,51.17-31.49-.7-16.3-8.06-16.82-2.85-36.93,4.17-16.16-34.57-46.18-40.75-52.71-11.62,22.05-11.94,23.09-8.67,36.81,6.23,26.15-18.73,64.49-13.53,78.93Z" style="fill:#466fb5; fill-rule:evenodd;"/><path d="M865.08,1202.15c7.85,12.69,22.37,34.25,31.68,36.44,4.58,1.08,14.35-2.74,25.14-8.19-7.88,2.03-15.53,1.97-22.97,1.25-8.07-.78-10.41-10.66-23.15-25.49-8.27-9.62-10.3-7.19-10.7-4.02Z" style="fill:#466fb5; fill-rule:evenodd;"/><path d="M826.23,1233.35s7.02-5.46,13.66-4.17c6.63,1.3,9.88,5.86,9.62,7.94-.25,2.08-3.77,7.93-8.84,8.46-5.08,.51-19.51-3.13-19.51-3.13l5.07-9.1Z" style="fill:#f9af79; fill-rule:evenodd;"/><path d="M812.14,1119.83s-27.05,1.67-36.4,14.72c-13.19,18.38-36.07,93.42-29.83,110.59l82.27-.36s2-9.31-.78-13.82c-2.77-4.51-47.85-11.79-49.94-13.87-2.08-2.09,26.01-40.58,26.01-46.82s8.67-50.44,8.67-50.44Z" style="fill:#6d96ce; fill-rule:evenodd;"/><polygon points="833.29 1264.08 932.89 1264.08 950.85 1201.46 851.39 1201.46 833.29 1264.08" style="fill:#e0e8f5; fill-rule:evenodd;"/><rect x="802.33" y="1261.64" width="130.22" height="2.44" style="fill:#859ac6;"/><path d="M901.27,1231.76c.63-2.2-.65-3.99-2.85-3.99s-4.49,1.79-5.12,3.99c-.63,2.2,.64,3.98,2.84,3.98s4.49-1.78,5.13-3.98Z" style="fill:#859ac6; fill-rule:evenodd;"/><path d="M1145.93,677.27s6.5-7.85,11.58-11.38c5.08-3.57,13.09-14.8,13.86-29.27,.77-14.53-9.12-22.04-14.78-24.73-5.64-2.74-27.99-6.65-36.12-4.32-8.12,2.33-9.37,31.43-9.37,31.43l7.98,24.03,26.84,14.24Z" style="fill:#20386f; fill-rule:evenodd;"/><path d="M1087.51,1077.38l-.12,17.72-18.99-6.95s-10.54-16.45-24.24-38.43c8.67-3.77,17.67-6.97,26.71-10.25,9.35,22.13,16.63,37.91,16.63,37.91Z" style="fill:#fab688; fill-rule:evenodd;"/><path d="M1067.22,1087.01s9.55-2.73,11.86-4.88c2.32-2.15,3.67-7.47,7.45-7.3,3.78,.16,17.25,12.57,18.35,16.41,1.17,4.04,.94,9.37-1.43,11.51-2.35,2.19-44.11,28.99-52.59,31.67-8.47,2.69-15.74-3.52-9.91-11.72,5.82-8.2,20.68-35.89,26.26-35.68Z" style="fill:#0e2952; fill-rule:evenodd;"/><path d="M1141.97,858.62s-166.66,22.08-169.36,43.02c-6.33,48.97,86.19,177.65,86.19,177.65l26.02-11.36-46.69-135.18s74.44-7.36,81.09-12c6.67-4.64,22.75-62.13,22.75-62.13Z" style="fill:#20386f; fill-rule:evenodd;"/><path d="M1205.2,1182.63l-3.04,17.47-17.57-9.98s-7.71-17.97-17.58-41.93c9.17-2.26,18.58-3.96,28.04-5.69,5.59,23.36,10.16,40.14,10.16,40.14Z" style="fill:#fab688; fill-rule:evenodd;"/><path d="M1183.59,1188.79s9.88-1.13,12.52-2.85c2.64-1.72,4.87-6.75,8.55-5.97,3.69,.77,14.95,15.22,15.39,19.16,.49,4.18-.61,9.4-3.29,11.16-2.7,1.77-57.39,23.72-66.2,24.98-8.81,1.25-10.12-7.83-3.02-14.94,7.08-7.15,30.6-32.68,36.06-31.53Z" style="fill:#0e2952; fill-rule:evenodd;"/><path d="M1111.81,874.6l15.7-20.53s47.97,7.2,54.17,28.84c6.21,21.63-3.8,158.24-3.8,158.24,0,0,18.66,93.56,26.78,127.51-9.46,1.73-22.67,4.44-31.87,6.72-17.1-41.48-52.3-131.76-52.3-131.76l-15.2-124.36,6.51-44.67Z" style="fill:#223f81; fill-rule:evenodd;"/><path d="M1049.57,540.85c-3.34,10.65-4.94,9.67-5.33,11.05-.46,1.6,5.92,23.42,5.92,23.42,0,0,18.41,64.33,19.53,67.79l43.8,52.76-19.14,29.73s-46.17-58.7-48.06-62.21c-1.9-3.47-16.97-93.44-18.55-101.33,0,0-5.24-8.69-8.36-14.24-3.11-5.56-3.66-12.28-4.3-13.99-.1-.25-1.92-6.04-2.33-13.82-.34-6.69,2.96-.5,2.96-.5,0,0,2.79,12.27,3.69,11.92,.69-.3-1.21-6.95-1.67-14.36-.13-1.89-.22-3.77-.31-5.47-.22-4.52,2.41-5.97,3.37-1.26,.35,1.65,.84,4.44,.94,6.47,.1,2.17,.86,4.17,1.22,6.01,.7,3.63,1.16,6.28,1.3,6.16,.17-.16,.79,.47,.73-1.55-.08-2.44-1.35-7.58-1.19-11.14,.09-2.04,.02-6.29,.02-6.29,0,0,1.07-6.44,1.46-6.51,2.1-.32,2.58,4.29,2.1,7.06,.58,1.92,.52,6.4,.52,6.4,0,0,1.87,9.06,3.12,8.82,.54-.09,.04-5.83,.41-11.51,.34-5.26,1.52-10.51,2.55-10.61,1.74-.16,1.95,5.77,1.95,5.77,0,0-.05,4.14,.03,5.51,.11,1.6,.76,6.44,.76,6.44,0,0,3.02,16.65,4.19,16.3,1.17-.35,3.82-2.45,3.97-3.54,.17-1.09-.56-3.27-.41-4.37,.17-1.09,1.29-2.39,2.61-2.29,1.31,.1,2.52,5.73,2.52,5.73,0,0,.95,4.56-.02,7.65Z" style="fill:#fab688; fill-rule:evenodd;"/><path d="M1091.12,665.82c2.12-.14,50.58,42.86,48.92,55.92-1.63,13.06-23.96,30.26-38.05,19.19-14.07-11.11-39.87-50.24-39.87-50.24,0,0,22.16-24.47,29-24.87Z" style="fill:#6d96ce; fill-rule:evenodd;"/><path d="M1112.86,699.83c-.59,.4-20.35,28.9-21.64,51.64-2.35,41.61,6.52,111.74,13.59,115.34,56.69,28.78,81.05,19.23,81.05,19.23,0,0-1.63-127.86-10.33-158.32-3.63-12.64-8.82-23.85-21.68-28.26-2.93-1.03-27.25-9.17-40.99,.37Z" style="fill:#6d96ce; fill-rule:evenodd;"/><path d="M1119.75,676.87l-7.04,23.96s-1.83,6.72,1.08,10c5.01,5.71,31.03-13.82,31.03-13.82l4.51-38.89-29.58,18.75Z" style="fill:#fab688; fill-rule:evenodd;"/><path d="M1147.97,669.84c-8.2,14.64-23.91,19.57-31.84,19.32l3.61-12.29,29.58-18.75-1.36,11.71Z" style="fill:#f27458; fill-rule:evenodd;"/><path d="M1144.29,617.26c-10.55-6.61-24.55-1.78-29.03,9.65-1.95,4.93-4.13,11.27-5.89,18.28-4.23,16.94,.75,35.53,8.47,37.28,7.71,1.8,31.59-4.29,37.93-28.22,3.92-14.8-.39-30.05-11.48-36.98Z" style="fill:#fab688; fill-rule:evenodd;"/><path d="M1149.65,654.82c-.88,3.77,.92,7.36,3.98,8.09,3.07,.69,6.25-1.77,7.13-5.54,.85-3.72-.93-7.36-4-8.05-3.05-.73-6.24,1.73-7.12,5.5Z" style="fill:#fab688; fill-rule:evenodd;"/><path d="M1156.76,649.32s3.16-7.84,3.82-15.85c.63-7.96-3.89-20.17-11.58-23.22-7.67-3.05-26.81-3.36-28.31-8.86-1.5-5.5-1.59-5-2.28-5.92-1.55-2.15-14.05,3.32-15.91,16.72-1.88,13.39,9.93,15.04,12.13,15.81,2.21,.82,24.55-4.24,30.81-2.7,6.27,1.49,11.31,24.01,11.31,24.01Z" style="fill:#20386f; fill-rule:evenodd;"/><path d="M1261.94,562.05c1.21,11.1,2.97,10.44,3.08,11.87,.14,1.66-10.36,21.83-10.36,21.83,0,0-30.55,59.52-32.33,62.71l-53.23,43.24,12.99,32.88s56.7-48.61,59.24-51.69c2.54-3.03,34.8-88.35,37.88-95.79,0,0,6.83-7.5,10.96-12.35,4.14-4.84,5.98-11.34,6.94-12.88,.15-.23,3.07-5.55,4.97-13.1,1.63-6.5-2.81-1.06-2.81-1.06,0,0-5.12,11.49-5.93,10.97-.62-.43,2.54-6.57,4.43-13.76,.48-1.83,.95-3.66,1.37-5.3,1.1-4.4-1.2-6.32-3.06-1.9-.67,1.55-1.69,4.2-2.18,6.17-.51,2.1-1.65,3.92-2.37,5.65-1.39,3.42-2.35,5.93-2.47,5.8-.14-.19-.87,.3-.42-1.66,.55-2.38,2.79-7.17,3.34-10.7,.3-2.02,1.2-6.19,1.2-6.19,0,0,.2-6.52-.16-6.67-2-.73-3.37,3.71-3.43,6.51-.94,1.78-1.76,6.17-1.76,6.17,0,0-3.59,8.53-4.77,8.05-.5-.2,1.09-5.73,1.84-11.37,.69-5.23,.55-10.61-.44-10.9-1.67-.49-3.04,5.28-3.04,5.28,0,0-.75,4.08-1.1,5.4-.42,1.55-1.99,6.17-1.99,6.17,0,0-6.2,15.74-7.28,15.17-1.08-.57-3.27-3.14-3.2-4.25,.04-1.1,1.19-3.1,1.25-4.2,.05-1.1-.8-2.59-2.11-2.75-1.31-.16-3.59,5.13-3.59,5.13,0,0-1.82,4.29-1.47,7.51Z" style="fill:#fab688; fill-rule:evenodd;"/><path d="M1196.9,676.56c-2.05-.54-21.94,23.73-50.88,26.44-.94,13.13,6.23,80.79,22.2,72.67,10.44-25.62,52.3-69.07,52.3-69.07,0,0-16.99-28.31-23.61-30.04Z" style="fill:#6d96ce; fill-rule:evenodd;"/><path d="M453.12,1420.02c-184.86,0-334.73,9.37-334.73,20.94s149.86,20.93,334.73,20.93,334.73-9.37,334.73-20.93-149.86-20.94-334.73-20.94Z" style="fill:#c4d1eb; fill-rule:evenodd;"/><polygon points="342.44 808.17 358.3 808.17 181.15 1440.47 165.29 1440.47 342.44 808.17" style="fill:#9c7357; fill-rule:evenodd;"/><polygon points="461.99 808.17 477.86 808.17 300.7 1440.47 284.84 1440.47 461.99 808.17" style="fill:#9c7357; fill-rule:evenodd;"/><polygon points="346.71 849.53 450.4 849.53 447.44 860.12 343.75 860.12 346.71 849.53" style="fill:#9c7357; fill-rule:evenodd;"/><polygon points="328.3 915.28 431.98 915.28 429.02 925.86 325.33 925.86 328.3 915.28" style="fill:#9c7357; fill-rule:evenodd;"/><polygon points="594.03 910.08 490.34 910.08 493.31 920.67 596.99 920.67 594.03 910.08" style="fill:#9c7357; fill-rule:evenodd;"/><polygon points="309.88 981.01 413.57 981.01 410.6 991.6 306.91 991.6 309.88 981.01" style="fill:#9c7357; fill-rule:evenodd;"/><polygon points="612.45 975.82 508.76 975.82 511.72 986.41 615.41 986.41 612.45 975.82" style="fill:#9c7357; fill-rule:evenodd;"/><polygon points="291.46 1046.75 395.15 1046.75 392.18 1057.34 288.49 1057.34 291.46 1046.75" style="fill:#9c7357; fill-rule:evenodd;"/><polygon points="273.04 1112.49 376.73 1112.49 373.76 1123.08 270.07 1123.08 273.04 1112.49" style="fill:#9c7357; fill-rule:evenodd;"/><polygon points="254.62 1178.23 358.31 1178.23 355.35 1188.81 251.66 1188.81 254.62 1178.23" style="fill:#9c7357; fill-rule:evenodd;"/><polygon points="236.21 1243.97 339.9 1243.97 336.93 1254.56 233.24 1254.56 236.21 1243.97" style="fill:#9c7357; fill-rule:evenodd;"/><polygon points="217.79 1309.71 321.48 1309.71 318.51 1320.3 214.82 1320.3 217.79 1309.71" style="fill:#9c7357; fill-rule:evenodd;"/><polygon points="199.37 1375.45 303.06 1375.45 300.09 1386.03 196.4 1386.03 199.37 1375.45" style="fill:#9c7357; fill-rule:evenodd;"/><polygon points="581.34 808.17 565.48 808.17 742.63 1440.47 758.49 1440.47 581.34 808.17" style="fill:#9c7357; fill-rule:evenodd;"/><polygon points="461.79 808.17 445.92 808.17 623.07 1440.47 638.94 1440.47 461.79 808.17" style="fill:#9c7357; fill-rule:evenodd;"/><polygon points="577.06 849.53 473.37 849.53 476.34 860.12 580.03 860.12 577.06 849.53" style="fill:#9c7357; fill-rule:evenodd;"/><polygon points="632.32 1046.75 528.63 1046.75 531.6 1057.34 635.28 1057.34 632.32 1046.75" style="fill:#9c7357; fill-rule:evenodd;"/><polygon points="650.74 1112.49 547.05 1112.49 550.02 1123.08 653.7 1123.08 650.74 1112.49" style="fill:#9c7357; fill-rule:evenodd;"/><polygon points="669.15 1178.23 565.46 1178.23 568.43 1188.81 672.12 1188.81 669.15 1178.23" style="fill:#9c7357; fill-rule:evenodd;"/><polygon points="687.57 1243.97 583.88 1243.97 586.85 1254.56 690.54 1254.56 687.57 1243.97" style="fill:#9c7357; fill-rule:evenodd;"/><polygon points="705.99 1309.71 602.3 1309.71 605.27 1320.3 708.96 1320.3 705.99 1309.71" style="fill:#9c7357; fill-rule:evenodd;"/><polygon points="724.41 1375.45 620.72 1375.45 623.69 1386.03 727.37 1386.03 724.41 1375.45" style="fill:#9c7357; fill-rule:evenodd;"/><rect x="321.37" y="783.29" width="282.88" height="24.88" style="fill:#d0a382;"/><path d="M1470.17,807.17l147.89-73.22c3.85-1.9,8.56-.32,10.47,3.54l15.51,31.33c1.91,3.85,.31,8.56-3.54,10.47l-147.89,73.23c-3.85,1.91-8.56,.32-10.47-3.54l-15.51-31.33c-1.91-3.85-.32-8.56,3.54-10.47Z" style="fill:#d0a382; fill-rule:evenodd;"/><path d="M1473.24,805.65l63.32-31.35,15.11-7.48,63.32-31.35c-25.56-60.06-63.53-5.86-120.47-122.06l-15.11,7.48-15.11,7.48-15.11,7.48c57.89,115.73-8.23,113.06,24.04,169.8Z" style="fill:#e5bb9a; fill-rule:evenodd;"/><path d="M1482.89,780.15l105.96-52.47c-2.42-2.57-5.31-4.78-8.94-6.62-5.55-2.8-11.8-4.85-17.58-7.2-9.18-3.73-17.57-8.05-25.65-13.85-6.2-4.44-11.96-9.57-17.35-15.19l-28.39,14.06c1.2,7.69,1.78,15.39,1.56,23.01-.29,9.94-1.93,19.22-4.53,28.79-1.64,6.02-3.8,12.23-4.93,18.34-.74,4.01-.74,7.65-.16,11.13Z" style="fill:#d0a382; fill-rule:evenodd;"/><path d="M1450.33,629.18l37.81-18.72c1.96-.97,2.78-3.38,1.8-5.34l-4.12-8.32c-.97-1.96-3.37-2.77-5.34-1.8l-37.8,18.72c-1.96,.97-2.77,3.37-1.8,5.34l4.12,8.32c.97,1.96,3.37,2.77,5.33,1.8h0Zm-18.96-39.12l37.81-18.72c1.97-.97,2.78-3.38,1.8-5.34l-4.12-8.32c-.97-1.96-3.38-2.77-5.34-1.81l-37.8,18.72c-1.96,.97-2.78,3.37-1.8,5.34l4.12,8.32c.97,1.96,3.37,2.77,5.33,1.8h0Zm9.48,19.56c-1.96,.97-4.36,.16-5.33-1.81l-4.12-8.31c-.97-1.97-.16-4.37,1.8-5.34l37.8-18.72c1.96-.97,4.37-.16,5.34,1.8l4.12,8.32c.97,1.97,.16,4.36-1.8,5.34l-37.81,18.72Z" style="fill:#9c7357; fill-rule:evenodd;"/><path d="M1531.39,833.3l40.66,82.11c1.76,3.56,.29,7.92-3.27,9.68l-6.11,3.03c-3.56,1.77-7.92,.3-9.68-3.27l-40.65-82.11,19.07-9.44h0Zm89.4-44.27l40.65,82.11c1.76,3.56,.3,7.92-3.27,9.68l-6.11,3.03c-3.56,1.77-7.92,.3-9.69-3.27l-40.65-82.11,19.07-9.44Z" style="fill:#eac5a7; fill-rule:evenodd;"/><path d="M356.71,733.05s-7.04,6.85-7.21,9.37c-.16,2.52-.61,29.49,2.25,32.01,2.88,2.52,11.33,4.34,8.61,7.16-2.05,2.11-17.84,1.66-28.32,1.11-3.04-.2-6.88-24.5-8.09-28.07-1.75-5.19-8.08-16.54-6.49-20.11,.79-1.77,6.57-5.8,11.81-9.17,5.52-3.58,10.81-11.49,10.81-11.49l16.63,19.2Z" style="fill:#f9af79; fill-rule:evenodd;"/><path d="M450.95,749.88l-6.31,17.84c-.47,2.82-2.31,9.78-2.31,12.35,0,9.63,43.45-8.16,33.72-12.45-.89-.41-3.65-3.48-3.94-6.75-.46-5.04,3.65-11.34,3.65-11.34l-24.8,.35Z" style="fill:#f9af79; fill-rule:evenodd;"/><path d="M510.91,412.39l15.74,40.12s10.27,95.76,4.3,153.06c-2.51,23.99-56.61,152.31-56.61,152.31l-26.89-3.78,36-151.95-13.24-58.11-18.76-114.92,59.47-16.73Z" style="fill:#0e2952; fill-rule:evenodd;"/><path d="M436.8,414.46l-13.5,44.66-20.52,134.87-69.42,126.16s10.43,15.82,21.64,18.29l98.54-127.51,53.41-159.62-1.88-35.48-68.27-1.36Z" style="fill:#223f81; fill-rule:evenodd;"/><path d="M649.41,411.64c-10.48-.49-10.15,1.29-11.5,1.16-1.57-.09-18.52-12.99-18.52-12.99,0,0-50.11-37.63-52.73-39.74l-31.27-56.73-32.6,7.53s35.66,60.78,38.08,63.64c2.4,2.81,76.09,45.81,82.47,49.83,0,0,5.83,7.55,9.63,12.18,3.82,4.63,9.49,7.3,10.78,8.46,.19,.14,4.66,3.72,11.32,6.57,5.75,2.53,1.46-2.44,1.46-2.44,0,0-9.81-6.56-9.17-7.22,.5-.55,5.65,3.34,11.97,6.18,1.63,.73,3.22,1.42,4.7,2.04,3.89,1.69,6.05-.18,2.26-2.62-1.34-.85-3.6-2.2-5.34-2.93-1.9-.83-3.37-2.18-4.85-3.08-2.94-1.82-5.12-3.14-4.98-3.2,.19-.08-.15-.87,1.61-.14,2.11,.85,6.16,3.67,9.38,4.71,1.81,.6,5.51,2.03,5.51,2.03,0,0,6.28,1.7,6.45,1.35,1.01-1.75-3.14-4.25-5.69-4.7-1.49-1.17-5.42-2.56-5.42-2.56,0,0-7.33-4.65-6.7-5.7,.52-.88,20.24,6.86,21.14,5.04,.71-1.52-5.12-4.12-5.12-4.12,0,0-3.65-1.29-4.83-1.83-1.37-.62-5.38-2.8-5.38-2.8,0,0-13.54-8.15-12.85-9.1,.68-.95,3.43-2.63,4.45-2.41,1.03,.22,2.68,1.6,3.67,1.77,1.02,.22,2.54-.37,2.91-1.58,.35-1.25-4.16-4.15-4.16-4.15,0,0-3.66-2.33-6.69-2.46Z" style="fill:#f9af79; fill-rule:evenodd;"/><path d="M547.82,319.16l-33.54,18.66s-14.36-28.03-20.44-41.75c-7.37-16.63-14.86-38.6-12.65-39,6.22-1.13,14.63-1.34,21.91,2.9,25.18,14.74,44.72,59.19,44.72,59.19Z" style="fill:#466fb5; fill-rule:evenodd;"/><path d="M329.63,725.13s14.84,44.75,21.18,46.97c1.71,.56,11.18,2.92,12.71,6.5l.11,.36c.49,2.27-1.45,4.33-3.79,4.33h-30.15s-4.27-20.11-5.98-28.93c0,0-8.95-21.62-7.95-23.53,.99-1.96,13.87-5.7,13.87-5.7Z" style="fill:#0e2952; fill-rule:evenodd;"/><path d="M439.85,783.24l4.98-15.73s10.44,4.44,15.67,3.68c5.23-.71,15.43-3.68,15.43-3.68,20.86,6.86,37.94,10.18,34.84,15.73h-70.92Z" style="fill:#0e2952; fill-rule:evenodd;"/><path d="M636.76,421.21c4.36,1.7,8.49,1.63,12.47-.74-2.98,4.36-9.4,3.99-12.47,.74Z" style="fill:#f48661; fill-rule:evenodd;"/><path d="M441.68,250.61c-40.37,5.52-47.29,38.77-35.71,73.99,10.82,32.93,23.59,74.71,22.72,86.03-1.51,19.45-5.76,48.28-5.76,48.28,0,0,75.78,4.73,104.27-6.35,0,0-9.53-44.15-9.53-55.69s-5.06-127.26-8.64-133.31c-3.61-6.05-10.85-9.48-24.6-12.45-13.75-2.98-42.74-.51-42.74-.51Z" style="fill:#6d96ce; fill-rule:evenodd;"/><path d="M447.21,219.41l-5.01,32.36s18.33,38.56,29.28,35.23c9.18-2.82,3.53-36.89,3.53-36.89,0,0-5.01-18.34-3.52-27.52,1.52-9.12-24.28-3.17-24.28-3.17Z" style="fill:#f9af79; fill-rule:evenodd;"/><path d="M471.49,222.59c1.52-9.12-24.28-3.17-24.28-3.17l-.41,2.67c.76,1.81,1.67,3.38,2.81,4.54,5.75,6.05,14.76,9.73,22.53,9.98-.77-4.94-1.26-10.23-.65-14.01Z" style="fill:#f48661; fill-rule:evenodd;"/><path d="M442.99,173.65c-.72-.26-5.84,36.84,3.86,47.07,9.7,10.18,28.6,13.56,35.39,5.5,3.35-3.96,10.05-15.13,5.34-27.71-4.77-12.75-4.96-25.78-13.31-31.61-15.07-10.48-31.27,6.75-31.27,6.75Z" style="fill:#f9af79; fill-rule:evenodd;"/><path d="M473.49,135.47c-14.11,28.53-29.39,24.49-32.16,27.46-22.28,2.54-36.04,39.29-13.52,56.28,10.65,8.06,17.52,12.3,17.52,12.3l1.7-4.89c1.24-3.63,1.75-7.51,1.34-11.34-.25-2.27-.76-4.73-1.73-6.8-2.55-5.34,5.5-8.92,7.77-13.41,1.73-3.43,1.81-11.34,4.55-16.99l3.27-4.38s7.54-5.75,14.93-4.08c7.38,1.61,12.34-17.07-3.67-34.15Z" style="fill:#20386f; fill-rule:evenodd;"/><path d="M453.9,201.67c.08,4.53-2.03,8.27-4.69,8.27-2.68,.05-4.91-3.58-4.98-8.11-.08-4.54,2.01-8.22,4.7-8.27,2.68-.05,4.9,3.57,4.97,8.11Z" style="fill:#f9af79; fill-rule:evenodd;"/><path d="M1642.2,1038.13c-6.43-7.48-6.49-18.15-.18-32,6.55,3.33,8.78,8.33,12.32,15.05,38.63-12.4,28.87-51.38,12.82-51.83,39.27-7.47,63-3.21,80.95,17.65,6.04,19.25-1.16,64.49-5.78,81.55-4.89,19.71-11.52,30.72-7.03,60.26-20.87,15.02-26.75,30.64-82.16,13.99,1.24-17.03,5.42-21.19,5.2-61.77,1.41-13.38-9.03-29.1-16.13-42.9Z" style="fill:#6d96ce; fill-rule:evenodd;"/><path d="M1653.13,1142.81c37.99,3.66,55.23-5.47,82.16-13.99,35.4,52.5,4.87,79.58,20.09,148.5-25.12,25.2-62.65,29.67-112.59,13.39-1.18-40.7,3.08-100.55,10.35-147.9Z" style="fill:#20386f; fill-rule:evenodd;"/><path d="M1734.92,1291.98c.53,8.17,.68,15.39,1.77,20.47,12.34,33.12,2.42,65.57-.51,158.13,.43,1.17,.9,2.28,1.4,3.34-6.2,2.73-5.42,8.7-9.11,10.03-17.21,6.22-10.08-4.76-12.91-7.83,.77-1.92,1.45-3.78,2.03-5.59-.45-85.33-14.4-127.57-14.44-154.13-.16-4.05-1.24-12.45-1.59-16.27h.11c12.33-.65,23.41-3.37,33.25-8.16Z" style="fill:#f9af79; fill-rule:evenodd;"/><path d="M1745.48,1490.64c-3.88-9.18-2.01-17.55-6.19-17.34-8.07,2.3-6.83,9.21-10.83,10.65-19.5,7.05-7.75-8-14.65-8.58-15.06,6.2-22.64-1.18-24.42,10.21,1.35,2.89,11.38,13.6,46.09,15.63,7.84-3.07,11.17-6.59,10-10.58Z" style="fill:#0e2952; fill-rule:evenodd;"/><path d="M1694.18,1300.27c-.96,9.49-2.16,16.81-2.94,22.38,14.06,28.63-.65,65.61-7.92,157.94,.38,1.18,.8,2.32,1.25,3.41-6.32,2.43-5.83,8.44-9.57,9.6-17.48,5.41-9.85-5.23-12.54-8.42,.87-1.88,1.63-3.71,2.29-5.49-1.21-87.92-3.25-140.97-6.09-159.15,.05-8.56-.99-17.44-1.98-25.74,13.49,3.49,25.98,5.32,37.48,5.48Z" style="fill:#f9af79; fill-rule:evenodd;"/><path d="M1694.88,1501.23c-3.44-9.35-4.39-17.8-8.56-17.77-8.17,1.92-7.26,8.88-11.31,10.13-19.82,6.13-7.37-8.35-14.24-9.26-21.29,7.42-36.18,2.96-36.2,14.13,4.43,6.9,24.38,11.19,59.83,12.86,7.96-2.69,11.46-6.06,10.48-10.09Z" style="fill:#0e2952; fill-rule:evenodd;"/><path d="M1654.33,1021.18c38.63-12.4,28.87-51.38,12.82-51.83-15.64-1.97-19.31-.68-43.09-3.4-8.64,9.46-9.06,21.42-1.25,35.86,23.44,1.96,25.73,8.36,31.52,19.37Z" style="fill:#466fb5; fill-rule:evenodd;"/><path d="M1620.68,970.46c-9.79,.36-20.94-.16-33.47-1.55-9.83-8.68-36.57-26.53-80.19-53.54-10.04-15.32-20.28-25.19-33.32-31.29-3.19,1.37-1.32,3.55,9.07,13.52-6.95,14.84-1.26,23.58,17.14,24,41.04,38.18,67.23,60.66,78.57,67.44,15.52,5.14,29.51,7.81,42.01,8-4.37-10.2-4.31-19.06,.2-26.57Z" style="fill:#f9af79; fill-rule:evenodd;"/><path d="M1739.55,1078.64c14.94-2.39,19.65-9.04,18.34-30.73-2.8,1.11-7.43,2.49-11.85,3.3-1.24,6.98-2.56,13.06-3.72,17.35-.5,2-2.25,8.23-2.77,10.08Z" style="fill:#f9af79; fill-rule:evenodd;"/><path d="M1746.04,1051.21c4.42-.81,8.04-1.77,10.84-2.88,.72-.29,1.38-.58,1.99-.88,2.1-30.62-1.49-50.76-10.77-60.45,4.52,14.41,1.62,43.39-2.06,64.21Z" style="fill:#466fb5; fill-rule:evenodd;"/><path d="M1702.3,952.32c20.16,1.13,30.05-10.03,29.67-33.47,.62-2.36,1.04-4.62,1.24-6.78,1.22-13.1-5.39-22.41-19.8-27.92-33.74-11.69-48.24-6.61-43.52,10.65,3.19,7.08,8.01,12.46,14.46,16.13-1.86,3.34-2.47,7.09-1.82,11.26-.05,1.14,.31,2.71,1.06,4.72,1.04-8.42,3.83-13.74,8.37-15.98,2.97,5.18,2.05,11.97-2.74,20.38-2.07,12.14,2.28,19.14,13.08,21Z" style="fill:#20386f; fill-rule:evenodd;"/><path d="M1743.36,948.05c4.29-.77,4.98,6.08,6.17,8.68,3.23-12.15,.38-25.48-5.08-29.96,1.75,.24,3.62,1.2,5.63,2.89,.75-13.73-15.5-17.68-19.77-18.12-2.18-.23-3.74,.99-4.72,3.66-6.15,17.86-2.91,33.38,9.74,46.56-2.4-3.47-3.31-7.58-2.74-12.33,4.34,13.76,12.1,17.06,23.28,9.89-9.24,2.8-10.89-1.58-12.5-11.27Z" style="fill:#20386f; fill-rule:evenodd;"/><path d="M1729.99,911.55c-1.52-2.2-3.8-3.9-6.99-3.35-5.06,1.58-5.77,8.29-2.1,10.38,1.03,.75,2.22,1,3.32,1.11,.38-1.48,.84-2.98,1.36-4.5,.92-2.51,2.39-3.73,4.41-3.65Z" style="fill:#6d96ce; fill-rule:evenodd;"/><path d="M1715.85,967.6c-1.66-5.08-1.39-10.81,.83-17.17-4.01,1.57-8.8,2.2-14.38,1.89-10.8-1.86-15.16-8.86-13.08-21,4.79-8.41,5.7-15.21,2.74-20.38-4.54,2.23-7.33,7.56-8.37,15.98-.75-2-1.12-3.57-1.06-4.72-.65-4.17-.03-7.92,1.82-11.26-3.94-2.25-7.28-5.13-10-8.64-4.33,4.5-5.8,9.31-4.38,14.42-5.44,7.92-7.01,14.92-4.72,20.99-.37,6.43,.13,10.85,1.52,13.27,2.19,3.86,13.55,2.04,17.5,1.79,1.66,4.19,1.97,8.82,.92,13.88,11.7-1.19,21.8-.94,30.67,.95Z" style="fill:#f9af79; fill-rule:evenodd;"/><path d="M1602.61,1065.9l-.08,8.1,10.96,8.75c-.21-2.65,.32-4.98,1.59-6.96l-12.47-9.89h0Zm26.62,29.42l17.72,14.14,10.54,.19c.21-2.67,.39-5.62,.53-8.94l-11.38,.12-16.87-13.38c-.04,.54-.12,1.09-.25,1.66-.7,3.05-.8,5.12-.3,6.21Z" style="fill:#8b9cc9; fill-rule:evenodd;"/><path d="M1602.61,1065.9l12.47,9.89c.21-.32,.44-.63,.68-.95,1.87-1.95,4.81,.47,10.65,4.68,2.48,2.2,3.6,4.84,3.37,7.93l16.87,13.38,11.38-.12c.14-3.4,.24-7.19,.29-11.45l-14.74,.35-23.24-17.54h37.41c-.43-2.03-1.04-4.09-1.77-6.16h-53.36Z" style="fill:#b0c2e4; fill-rule:evenodd;"/><path d="M1620.33,1072.07l23.24,17.54,14.74-.35c.03-2.56,.03-5.3,.02-8.22,.31-2.89,.05-5.9-.59-8.97h-37.41Z" style="fill:#8b9cc9; fill-rule:evenodd;"/><path d="M1602.61,1065.9h53.36c-.69-1.95-1.5-3.91-2.38-5.88l-46.11-.21-4.26-49.3h36.98c.54-1.42,1.15-2.88,1.83-4.39-.25-.13-.51-.25-.78-.38l-44.04-.33,5.4,60.48Z" style="fill:#c4d1eb; fill-rule:evenodd;"/><path d="M1607.48,1059.82l46.11,.21c-3.34-7.42-7.79-14.91-11.39-21.9-5.73-6.67-6.4-15.87-2.01-27.61h-36.98l4.26,49.3Z" style="fill:#fff; fill-rule:evenodd;"/><path d="M1629.23,1095.32c-5.96,3.3-11.01,.2-15.15-9.29-1.24-4.53-.68-8.26,1.67-11.18,1.87-1.95,4.81,.47,10.65,4.68,2.92,2.59,3.95,5.78,3.11,9.58-.7,3.05-.8,5.12-.3,6.21Z" style="fill:#f9af79; fill-rule:evenodd;"/><path d="M1718.73,943.38c-.43-7.46,.66-15.52,3.27-24.19,.73,.3,1.5,.44,2.22,.51-2.37,9.04-2.2,17.46,.48,25.25-2.18,2.41-4.86,4.24-8.02,5.49-4.01,1.57-8.8,2.2-14.38,1.89-7.08-1.22-11.39-4.65-12.93-10.28,7.43,9.52,17.22,9.97,29.36,1.34Z" style="fill:#0e2952; fill-rule:evenodd;"/><rect x="624.89" y="402.88" width="50.82" height="147.12" transform="translate(51.96 1016.68) rotate(-78.31)" style="fill:#d0a382;"/><path d="M590.46,409.22c-7.85-5.85-12.03-14.52-9.7-25.78l.73-3.51c18.48-97.82-61.53-142.88-46.13-252.14,1.15-8.19,2.86-16.09,5.08-23.65,30.35-79.01,119.44-117.84,206.78-99.76,99.52,20.6,171.81,109.91,144.51,209.71-28.24,103.25-115.34,112.87-136.53,207.1-2.12,10.23-15.51,19.77-24.66,17.02l-140.07-28.99Z" style="fill:#eac5a7; fill-rule:evenodd;"/><path d="M719.98,528.8c-3.34,10.73-14.44,17.42-25.64,15.1l-16.61-3.44-8.65,9.22c-4.97,5.3-7.24,5.26-14.36,3.78l-39.05-8.08c-7.13-1.48-9.22-2.3-11.68-9.17l-4.28-11.9-16.62-3.44c-11.05-2.28-18.52-12.59-17.57-23.6l1.57-7.6c1.1-2.35,3.72-3.74,6.37-3.19l143.39,29.67c2.66,.55,4.53,2.9,4.58,5.52,0,.24-.24,.68-.13,.8l-1.31,6.32h0Zm-136.56-80.3c-4.21-.87-8.36,1.86-9.23,6.07l-2.46,11.87c-.87,4.21,1.86,8.36,6.07,9.23l139.33,28.84c4.21,.87,8.37-1.86,9.24-6.07l2.46-11.87c.87-4.21-1.86-8.36-6.07-9.24l-139.33-28.84h0Zm8.4-39.01l138.72,28.71c4.38,.91,7.22,5.23,6.32,9.62l-2.56,12.35c-.91,4.38-5.24,7.22-9.61,6.32l-138.72-28.72c-4.38-.9-7.22-5.23-6.31-9.61l2.56-12.35c.91-4.38,5.24-7.22,9.61-6.32Z" style="fill:#9c7357; fill-rule:evenodd;"/><path d="M639.17,419.3l22.18-181.49-21.37-4.42c-9.23-1.92-16.84-7.42-21.66-14.75h.02c-4.82-7.36-6.86-16.52-4.96-25.73,1.91-9.23,7.41-16.84,14.74-21.65,7.34-4.82,16.5-6.85,25.73-4.94,9.11,1.89,16.26,7.17,20.93,14.28,4.74,7.21,6.86,16.31,5.77,25.55l-2.29,19.47,65.38,13.53,5.63-18.78c2.66-8.89,8.22-16.41,15.45-21.16,7.1-4.66,15.76-6.68,24.87-4.8,9.2,1.91,16.8,7.42,21.63,14.76l.02-.02c4.82,7.33,6.85,16.5,4.94,25.73-1.91,9.23-7.42,16.84-14.75,21.65-7.33,4.82-16.5,6.85-25.72,4.94l-21.37-4.42-51.69,175.38-15.04-3.11,51.61-175.39-62.75-12.99-22.25,181.47-15.04-3.11h0Zm23.98-196.82l2.13-18.15c.66-5.62-.57-11.06-3.35-15.29-2.5-3.82-6.33-6.65-11.19-7.66-5.07-1.05-10.12,.08-14.17,2.73-4.04,2.65-7.08,6.85-8.13,11.92-1.05,5.1,.06,10.14,2.7,14.16h.03c2.66,4.05,6.84,7.09,11.92,8.14l20.06,4.15h0Zm95.61,19.79l20.06,4.15c5.07,1.05,10.12-.08,14.17-2.73,4.04-2.65,7.08-6.84,8.13-11.92,1.05-5.07-.08-10.13-2.73-14.17v-.03c-2.64-4.02-6.82-7.05-11.92-8.1-4.85-1.01-9.49,.08-13.3,2.59-4.24,2.79-7.54,7.3-9.16,12.7l-5.25,17.51Z" style="fill:#fff; fill-rule:evenodd;"/><path d="M799.87,80.64c-4.37-3-5.47-8.98-2.46-13.35,3-4.36,8.98-5.47,13.35-2.46,3.56,2.46,6.89,5,9.98,7.59,3.2,2.67,6.26,5.5,9.2,8.46,3.74,3.76,3.72,9.85-.05,13.59-3.77,3.74-9.85,3.72-13.59-.05-2.5-2.52-5.15-4.95-7.91-7.26-2.83-2.37-5.68-4.55-8.51-6.51h0Zm35.17,38.6c-2.61-4.64-.96-10.5,3.68-13.11,4.63-2.61,10.5-.96,13.11,3.67,7.59,13.5,12.82,28.34,15.26,43.88,2.36,15.01,2.12,30.59-1.11,46.19-1.08,5.21-6.18,8.56-11.39,7.48-5.21-1.08-8.56-6.17-7.48-11.39,2.76-13.35,2.98-26.61,.99-39.29-2.07-13.19-6.55-25.85-13.06-37.43Z" style="fill:#fff; fill-rule:evenodd;"/><path d="M584.89,430.68c-11.21,.06-10.71,1.88-12.17,1.83-1.71-.04-20.73-12.41-20.73-12.41,0,0-56.39-36.15-59.37-38.21l-37.71-56.81-34.22,9.44s42.7,60.77,45.52,63.58c2.81,2.82,84.72,43.26,91.84,47.05,0,0,6.83,7.49,11.26,12.06,4.39,4.54,10.68,7.05,12.11,8.13,.25,.19,5.27,3.6,12.61,6.24,6.33,2.27,1.34-2.67,1.34-2.67,0,0-10.96-6.21-10.33-6.94,.48-.59,6.31,3.16,13.27,5.75,1.76,.65,3.56,1.3,5.18,1.88,4.3,1.56,6.42-.53,2.2-2.81-1.48-.81-4.03-2.11-5.95-2.78-2.07-.72-3.72-2.03-5.4-2.9-3.25-1.71-5.67-2.93-5.55-3.04,.18-.1-.23-.9,1.7-.24,2.33,.79,6.89,3.49,10.35,4.37,1.96,.5,6.06,1.83,6.06,1.83,0,0,6.52,.86,6.68,.5,.96-1.87-3.37-3.68-6.13-4.04-1.66-1.09-5.98-2.33-5.98-2.33,0,0-8.18-4.41-7.6-5.55,.28-.45,5.61,1.67,11.2,2.99,5.18,1.2,10.59,1.63,10.94,.66,.67-1.58-4.95-3.52-4.95-3.52,0,0-3.96-1.14-5.28-1.63-1.51-.55-5.95-2.57-5.95-2.57,0,0-15.11-7.72-14.43-8.73,.67-1,3.49-2.87,4.59-2.71,1.09,.16,2.97,1.49,4.07,1.65,1.1,.16,2.65-.53,2.95-1.8,.31-1.28-4.74-4.06-4.74-4.06,0,0-4.09-2.21-7.36-2.22Z" style="fill:#f9af79; fill-rule:evenodd;"/><path d="M432.18,360.74l40.16-15.15s-4.54-19.92-14.29-34.36c-24.63-53.99-52.17-47.05-55.81-24.89-5.15,17.79,29.94,74.4,29.94,74.4Z" style="fill:#466fb5; fill-rule:evenodd;"/><path d="M636.64,550.08c-9.39,35.95-7.06,61.26,3.76,79.01,10.74,17.62,30.25,28.35,55.2,35.07,127.6,34.34,245.21-65.44,302.76-114.27,19.58-16.62,32.8-27.82,40.51-27.27,14.16,1.03,37.97,6.03,66.14,11.94,67.32,14.12,160.27,33.63,197.85,15.39,18.27-8.86,45.76-22.19,72.67-25.83,28.66-3.88,56.17,2.97,71.36,36.14l-12.85,5.87c-11.82-25.84-33.72-31.1-56.63-28-24.65,3.33-50.94,16.08-68.4,24.55-41.9,20.33-137.58,.25-206.88-14.29-27.62-5.8-50.95-10.69-64.26-11.66-1.99-.14-13.43,9.55-30.38,23.94-59.42,50.41-180.82,153.41-315.55,117.15-28.32-7.62-50.73-20.24-63.62-41.38-12.8-21-15.82-49.89-5.37-89.92l13.68,3.54Z" style="fill:#9c7357; fill-rule:evenodd;"/></svg>