<?xml version="1.0" encoding="UTF-8"?><svg id="a" xmlns="http://www.w3.org/2000/svg" viewBox="0 0 1840.55 1545.62"><path d="M945.21,121.98c-224.26,0-318.74,160.46-480.64,285.19C250.28,572.27,36.02,464.79,1.71,1022.59c-30.53,496.46,350.5,53.74,887.74,231.58,537.24,177.84,1084.41,249.46,922.05-325.93C1649.15,352.86,1466.29,121.98,945.21,121.98Z" style="fill:#e0e8f5; fill-rule:evenodd;"/><path d="M1739.71,1247.77h-302.88c2.18-9.2,10.44-16.05,20.31-16.05,.47,0,.95,.01,1.42,.06,4.78-11.71,16.28-19.97,29.72-19.97,5.88,0,11.38,1.59,16.11,4.34,5.77-19.04,23.46-32.91,44.39-32.91,4.26,0,8.39,.58,12.3,1.66,10.14-22.38,32.65-37.93,58.81-37.93,31.02,0,56.92,21.9,63.11,51.08,.53-.01,1.05-.04,1.57-.04,19.88,0,36.27,14.86,38.69,34.07,8.1,1.52,14.57,7.71,16.44,15.69Z" style="fill:#fff; fill-rule:evenodd;"/><path d="M369.33,825.64H66.45c2.18-9.21,10.44-16.05,20.31-16.05,.47,0,.95,.02,1.42,.06,4.78-11.71,16.29-19.96,29.72-19.96,5.88,0,11.38,1.58,16.12,4.34,5.77-19.04,23.47-32.91,44.39-32.91,4.26,0,8.39,.58,12.3,1.66,10.13-22.37,32.65-37.93,58.81-37.93,31.02,0,56.92,21.89,63.11,51.08,.52-.02,1.04-.04,1.57-.04,19.87,0,36.27,14.86,38.69,34.07,8.11,1.52,14.57,7.72,16.45,15.69Z" style="fill:#fff; fill-rule:evenodd;"/><path d="M512.65,686.86c-53.89-8.76-130.01-30.39-204.05-83.18-104.92-74.78,115.8-49.33,295.54,11.05l-69.46,61.74-22.03,10.38Z" style="fill:#9db2d9; fill-rule:evenodd;"/><path d="M330.96,543.8c35.52,33.93,128.41,101.57,218.49,173.62l98.76,38.69,19.43-60.45c-69.04-111.33-161.25-225.38-241.76-283.58-141.21-102.11-219.59,12.66-94.93,131.72Z" style="fill:#b0c2e4; fill-rule:evenodd;"/><path d="M649.18,753.13c-113.43-181.74-328.01-329-328.79-329.55-1.53-1.06-3.55-.6-4.5,1.01-.96,1.62-.48,3.79,1.04,4.85,.77,.53,211.92,145.46,324.84,324.15l6.44,2.52,.96-2.99Z" style="fill:#9db2d9; fill-rule:evenodd;"/><path d="M555.24,312.34c17.03,48.49,41.96,162.31,71.76,280.11-15.08,47.62-46.15,88.14-86.73,115.38-70.14-111.66-131.21-239.79-152.41-340.21-41.5-196.56,102.57-239.89,167.38-55.28Z" style="fill:#c4d1eb; fill-rule:evenodd;"/><path d="M583.18,670.09c-98.13-188.04-140.59-414.71-140.76-415.66-.41-2.11,.86-4.19,2.82-4.63,1.97-.44,3.9,.92,4.29,3.04,.18,.93,42.15,224.98,138.74,411.22-1.67,2.04-3.36,4.06-5.1,6.03Z" style="fill:#9db2d9; fill-rule:evenodd;"/><path d="M545.86,313.95c.23,49.11,16.02,162.94,26.69,277.79l40.69,97.95,57.01-27.98c32.22-126.97,50.3-272.52,36.33-370.86-24.53-172.53-161.54-149.28-160.71,23.09Z" style="fill:#b0c2e4; fill-rule:evenodd;"/><path d="M616.06,688.31c52.09-207.8,9.15-464.48,9.01-465.43-.31-1.83-2.03-2.97-3.86-2.54-1.82,.44-3.06,2.28-2.75,4.12,.15,.93,42.39,253.52-7.87,458.84l2.65,6.39,2.82-1.39Z" style="fill:#9db2d9; fill-rule:evenodd;"/><path d="M1320.31,801.13c52.81-28.81,123.99-79.11,181.62-161.02,81.68-116.07-138.36-8.91-303.04,119.51l94.74,38.77,26.68,2.74Z" style="fill:#9db2d9; fill-rule:evenodd;"/><path d="M1474.01,544.39c-22.12,49.38-88.73,157-150.64,267.96l-84.64,80.55-44.96-53.58c24.11-142.27,70.73-296.95,128.62-389.79,101.56-162.88,229.24-78.42,151.61,94.86Z" style="fill:#b0c2e4; fill-rule:evenodd;"/><path d="M1236.52,890.25c40.1-232.53,197.7-471.99,198.27-472.87,1.12-1.72,3.37-2.1,5.01-.84,1.65,1.24,2.07,3.66,.95,5.37-.56,.88-155.65,236.5-196.49,465.74l-5.52,5.25-2.21-2.65Z" style="fill:#9db2d9; fill-rule:evenodd;"/><path d="M1148.99,401.6c2.8,56.54,24.71,183,43.31,315.55,35.18,42.29,83.74,70.69,136.45,81.61,25.1-143.06,34.08-299.14,13.95-410.39-39.43-217.74-204.39-202.01-193.72,13.24Z" style="fill:#c4d1eb; fill-rule:evenodd;"/><path d="M1269.29,778.12c21.87-232.62-29.1-481.47-29.31-482.5-.47-2.33-2.63-3.91-4.81-3.54-2.2,.36-3.59,2.54-3.12,4.87,.2,1.03,50.57,247,29.52,477.13,2.55,1.39,5.11,2.74,7.71,4.04Z" style="fill:#9db2d9; fill-rule:evenodd;"/><path d="M557.84,1303.54h133.84c8.81,0,14.06,7.22,11.68,16.02l-56.95,210.04c-2.4,8.81-11.57,16.02-20.37,16.02h-26.99c-1.16,0-2.19-.12-3.14-.34-1.21,.22-2.46,.34-3.74,.34h-34.32c-11.21,0-20.38-9.17-20.38-20.38v-201.32c0-11.21,9.17-20.38,20.38-20.38Z" style="fill:#a1775a; fill-rule:evenodd;"/><path d="M1286.96,1247.95h-34.33l-99.51,55.59c-7.71,4.3-14.07,7.22-11.69,16.02l56.96,210.04c2.38,8.81,11.55,16.02,20.37,16.02h26.99c1.16,0,2.19-.12,3.13-.34,1.21,.22,2.46,.34,3.74,.34h34.33c11.21,0,20.37-9.17,20.37-20.38v-256.91c0-11.21-9.17-20.38-20.37-20.38Z" style="fill:#a1775a; fill-rule:evenodd;"/><path d="M514.33,1303.54h133.85c8.81,0,14.06,7.22,11.68,16.02l-56.96,210.04c-2.4,8.81-11.56,16.02-20.37,16.02h-26.99c-1.16,0-2.19-.12-3.13-.34-1.21,.22-2.46,.34-3.74,.34h-34.33c-11.2,0-20.36-9.17-20.36-20.38v-201.32c0-11.21,9.17-20.38,20.36-20.38Z" style="fill:#bf9071; fill-rule:evenodd;"/><path d="M1243.46,1303.54h-133.85c-8.81,0-14.06,7.22-11.68,16.02l56.96,210.04c2.38,8.81,11.56,16.02,20.37,16.02h26.99c1.16,0,2.19-.12,3.13-.34,1.21,.22,2.46,.34,3.74,.34h34.33c11.21,0,20.37-9.17,20.37-20.38v-201.32c0-11.21-9.17-20.38-20.37-20.38Z" style="fill:#bf9071; fill-rule:evenodd;"/><path d="M943.35,438.13h0c292.55,0,529.7,237.16,529.7,529.71s-237.15,529.71-529.7,529.71c-10.62,0-21.15-.34-31.6-.97h-32.85v-2.94c-262.15-31.8-465.25-255.07-465.25-525.8s203.11-493.99,465.25-525.8v-3.91h64.45Z" style="fill:#a1775a; fill-rule:evenodd;"/><circle cx="878.89" cy="967.84" r="529.71" style="fill:#bf9071;"/><path d="M878.89,1428.38c253.66,0,460.54-206.88,460.54-460.54s-206.88-460.54-460.54-460.54-460.53,206.88-460.53,460.54,206.88,460.54,460.53,460.54Z" style="fill:#eac5a7; fill-rule:evenodd;"/><circle cx="878.89" cy="967.84" r="421.74" style="fill:#fff;"/><path d="M692.24,644.55c5.9-3.4,13.48-1.37,16.89,4.53l10.77,18.65c3.4,5.9,1.38,13.48-4.52,16.89-5.9,3.4-13.49,1.36-16.89-4.52l-10.77-18.65c-3.4-5.89-1.37-13.48,4.53-16.89h0Zm350.18,606.52c5.9-3.41,13.49-1.37,16.89,4.53l10.77,18.65c3.41,5.9,1.37,13.48-4.53,16.89-5.88,3.4-13.48,1.36-16.89-4.53l-10.77-18.65c-3.41-5.9-1.37-13.49,4.53-16.89h0Zm-486.81-469.89c3.4-5.89,10.99-7.92,16.88-4.53l18.65,10.77c5.9,3.4,7.93,11,4.53,16.89-3.4,5.89-10.99,7.92-16.89,4.53l-18.65-10.78c-5.9-3.4-7.93-11-4.53-16.89h0Zm606.52,350.18c3.4-5.9,11-7.93,16.89-4.53l18.65,10.77c5.9,3.4,7.93,10.99,4.53,16.89-3.39,5.9-10.99,7.93-16.88,4.53l-18.66-10.77c-5.9-3.41-7.93-11-4.52-16.89h0Zm-656.53-163.52c0-6.82,5.55-12.36,12.37-12.36h21.54c6.82,0,12.36,5.55,12.36,12.37s-5.55,12.36-12.36,12.36h-21.54c-6.82,0-12.37-5.55-12.37-12.37h0Zm700.35,0c0-6.82,5.56-12.36,12.36-12.36h21.55c6.82,0,12.36,5.55,12.36,12.37s-5.56,12.36-12.36,12.36h-21.55c-6.82,0-12.36-5.55-12.36-12.37h0Zm-650.33,186.66c-3.4-5.9-1.37-13.48,4.53-16.89l18.66-10.77c5.89-3.4,13.48-1.37,16.88,4.53,3.4,5.9,1.37,13.49-4.53,16.89l-18.65,10.77c-5.9,3.41-13.49,1.37-16.89-4.53h0Zm606.52-350.18c-3.41-5.89-1.37-13.49,4.52-16.89l18.66-10.77c5.89-3.41,13.47-1.37,16.88,4.53,3.4,5.89,1.38,13.49-4.53,16.89l-18.65,10.78c-5.9,3.4-13.49,1.36-16.89-4.53h0Zm-469.89,486.81c-5.89-3.4-7.92-10.99-4.52-16.88l10.77-18.65c3.41-5.9,11-7.93,16.89-4.53,5.9,3.4,7.93,10.99,4.53,16.89l-10.77,18.65c-3.41,5.9-11,7.93-16.9,4.52h0Zm350.18-606.52c-5.9-3.4-7.93-10.99-4.53-16.88l10.77-18.66c3.4-5.9,10.99-7.92,16.89-4.52,5.89,3.4,7.93,11,4.53,16.88l-10.77,18.66c-3.4,5.9-10.99,7.92-16.89,4.52h0Zm-163.52,656.54c-6.81,0-12.36-5.55-12.36-12.37v-21.53c0-6.83,5.56-12.37,12.36-12.37s12.37,5.55,12.37,12.37v21.53c0,6.82-5.55,12.37-12.37,12.37h0Zm0-700.35c-6.81,0-12.36-5.55-12.36-12.36v-21.54c0-6.82,5.56-12.36,12.36-12.36s12.37,5.54,12.37,12.36v21.54c0,6.82-5.55,12.36-12.37,12.36h0Z" style="fill:#835e42; fill-rule:evenodd;"/><path d="M878.89,982.44h0c8.04,0,14.61-6.57,14.61-14.6v-248.33c0-8.03-6.57-14.6-14.61-14.6h0c-8.03,0-14.6,6.57-14.6,14.6v248.33c0,8.04,6.57,14.6,14.6,14.6Z" style="fill:#835e42; fill-rule:evenodd;"/><path d="M868.58,957.52h0c-5.68,5.67-5.68,14.97,0,20.64l128.72,128.73c5.68,5.67,14.98,5.67,20.65,0h0c5.68-5.68,5.68-14.97,0-20.66l-128.72-128.72c-5.68-5.68-14.98-5.68-20.65,0Z" style="fill:#bf9071; fill-rule:evenodd;"/><path d="M867.68,617.97c-2.05,2.36-2.31,4.98-1.29,7.79,0,.01,0,.02,.01,.04,1.88,5.2,8.1,11,15.31,16.78,.92,.75,1.74,1.42,2.45,2.05,.19,.17,.38,.33,.55,.5,.14,.13,.29,.26,.43,.38,6.72,6.2,4.19,7.61,16.28,20.18,13.76,14.34,23.25,14.6,25.96,13.3,2.27-1.11-2.36-8.71-7.51-17.26-.25-.41-.48-.83-.74-1.24-.69-1.13-1.36-2.3-2.03-3.43-6.03-10.29-4.49-15.11-3.06-30.41,1.16-12.44,19.35-69.48,19.35-69.48l-26.4-4.54s-7.94,45.41-16.7,52.41c-4.69,3.73-9.93,3.77-14.43,6.54-.32,.19-.64,.38-.93,.59-2.57,1.7-5.17,3.45-7.23,5.8Z" style="fill:#f9af79; fill-rule:evenodd;"/><path d="M867.68,617.97c-2.05,2.36-2.31,4.98-1.29,7.79,0,.01,0,.02,.01,.04,2.31,5.2,8.36,10.96,15.33,16.74,.91,.75,1.72,1.44,2.43,2.1,.19,.17,.38,.33,.55,.5,.14,.13,.29,.26,.43,.38,6.72,6.2,4.19,7.61,16.28,20.18,13.76,14.34,23.25,14.6,25.96,13.3,2.27-1.11-2.36-8.71-7.51-17.26-2.68-.98-15.12-6.05-24.54-18.09-8.3-10.58-13.83-24.18-19.47-32.05-.32,.19-.64,.38-.93,.59-2.57,1.7-5.17,3.45-7.23,5.8Z" style="fill:#172b57; fill-rule:evenodd;"/><path d="M1080.54,601.49c1.62,8.14,13.24,6.79,26.21,3.62,12.97-3.17,9.89,.59,28.36-1.46,18.47-2.03,24.06-8.92,24.63-11.67,.5-2.44-8.63-3.29-18.42-4.42-1.24-.13-2.46-.28-3.71-.44-11.04-1.39-19.14-8.52-29.17-14.38-9.5-5.54-23.7-28.14-23.7-28.14l-25.33,2.01s13.29,20.18,18.43,28.96c3.02,5.16,2.86,11.99,2.49,17.26-.2,2.86-.39,5.78,.2,8.66Z" style="fill:#f9af79; fill-rule:evenodd;"/><path d="M1106.75,605.11c12.97-3.17,9.89,.59,28.36-1.46,18.47-2.03,24.06-8.92,24.63-11.67,.5-2.44-8.63-3.29-18.42-4.42l-.09,.19s-11.08,7.86-26.45,8.22c-12.53,.29-25.8-3.29-34.45-3.15-.2,2.86-.39,5.78,.2,8.66,1.62,8.14,13.24,6.79,26.21,3.62Z" style="fill:#172b57; fill-rule:evenodd;"/><path d="M1024.17,229.5s6.04-14.78,12.68-15.39c6.64-.6,27.76-3.92,29.26-.91,1.51,3.02,0,13.88-4.53,17.8-4.52,3.93-32.58,10.26-32.58,10.26l-4.83-11.77Z" style="fill:#f9af79; fill-rule:evenodd;"/><path d="M983.47,439.53l-54.59,146.9s-8.38,.81-16.42-1.51c-7.39-2.13-15.88-7.72-15.88-7.72,0,0,13.54-141.05,38.37-170.38,24.82-29.34,48.51,32.71,48.51,32.71Z" style="fill:#20386f; fill-rule:evenodd;"/><path d="M767.58,380.11s156.84-53.03,191.81-41.74c34.99,11.28,140.01,220.24,140.01,220.24,0,0-2.37,3.15-8.84,5.57-6.01,2.26-20.59,2.12-20.59,2.12,0,0-94.78-81.25-106.05-104.95-11.29-23.69-15.8-46.25-27.08-44-11.29,2.26-145.56,55.29-176.03,23.7-30.46-31.59-22.49-72.63-22.49-72.63l29.27,11.7Z" style="fill:#223f81; fill-rule:evenodd;"/><path d="M863.43,133.4c2.5-5.17,5.3-14.36,6.68-30.73-.22,1.62-3.04,22.27-10.98,33.97-32.62,21.41-95.14,92.93-93.89,106.47,0,0-22.03-37.35-22.41-37.57,0,0-40.62-51.65,7.53-81.24,24.47-15.04,24.34-34.35,23.32-51.11-1.03-16.77,6.68-88.94,55.69-70.06,0,0,7.87-3.5,11.4-2.97,0,0-2.88,.55-4.35,2.05,5.69-.33,13.81,.09,20.59,3.94,17.98,10.21,34.05,101.82,6.44,127.24Z" style="fill:#20386f; fill-rule:evenodd;"/><path d="M857.19,137.7c.17,.06-15.74,8.33-27.72,5.05-11.25-3.06-18.6-17.66-18.45-17.69,4.77-.95,6.14-7.51,6.04-35.65l2.15,.42,36.24,7.18s-.82,11.39-.84,22.15c-.04,9.03,.52,17.58,2.58,18.55Z" style="fill:#f9af79; fill-rule:evenodd;"/><path d="M855.45,97.01s-.82,11.39-.84,22.15c-20.29-.57-31.01-19.07-35.4-29.33l36.24,7.18Z" style="fill:#ed7d57; fill-rule:evenodd;"/><path d="M815.47,85.88s-10.63-16.79-13.18-31.15c-1.81-10.25,3.41-48.25,41.59-42.78,0,0,11.09,1.1,21.52,8.14,8.29,5.6,20.25,17.69,6.88,50.85l-3.48,11.2-53.32,3.74Z" style="fill:#20386f; fill-rule:evenodd;"/><path d="M862.23,107.18s-47.99,.8-48.01-29.09c-.04-29.89-6.25-49.91,24.38-51.69,30.63-1.77,36.6,9.63,39.04,19.61,2.44,9.97-2.92,60.2-15.4,61.17Z" style="fill:#f9af79; fill-rule:evenodd;"/><path d="M860.45,25.67s-13.14,35.07-33.3,40.25c-20.17,5.19-28.9-.22-28.9-.22,0,0,15.45-12.29,18.67-33.73,0,0,33.63-22.99,43.53-6.31Z" style="fill:#20386f; fill-rule:evenodd;"/><path d="M857.19,28.52s9.81,7.83,12.21,15.44c2.4,7.61,3.47,23.28,8.03,22.75,0,0,9.91-23.83-1.22-37.31-11.8-14.3-19.02-.87-19.02-.87Z" style="fill:#20386f; fill-rule:evenodd;"/><path d="M730.78,380.94c2.59,7.18,10.52,9.03,21.16,7.79,20.29-2.37,50.41-15.99,72.11-25.4,33.11-14.36,48.15-.88,58.68-10.01,10.53-9.14-12.04-29.43,7.52-123.71,6.63-31.97-35.4-100.53-35.4-100.53,0,0-3.63,19.85-43.85-4.02-1.42-.84-17.26,22.59-32.5,51.49-16.8,31.88-32.9,70.39-28.17,90.24,9.02,37.83-27.09,93.26-19.57,114.14Z" style="fill:#6d96ce; fill-rule:evenodd;"/><path d="M854.87,129.09l24.78,101.7s3.09,5.5,7.93,13.32c11.35,18.36,32.36,49.53,45.82,52.71,6.63,1.56,20.75-3.97,36.36-11.85,29.53-14.93,64.45-38.3,64.45-38.3,2.25-13.54-9.53-24.58-9.53-24.58,0,0-70.72,26.58-77.74,27.07-15.31,1.11-30.89-72.78-45.2-97.42-10.35-17.8-46.87-22.65-46.87-22.65Z" style="fill:#6d96ce; fill-rule:evenodd;"/><path d="M730.78,380.94c2.59,7.18,10.52,9.03,21.16,7.79,14.04-6.12,74.68-29.62,74-45.53-1.01-23.57-11.66-24.32-4.13-53.41,6.03-23.36-49.99-66.79-58.93-76.23-16.81,31.89-17.27,33.39-12.53,53.24,9.02,37.83-27.09,93.26-19.57,114.14Z" style="fill:#466fb5; fill-rule:evenodd;"/><path d="M887.58,244.11c11.35,18.36,32.36,49.53,45.82,52.71,6.63,1.56,20.75-3.97,36.36-11.85-11.4,2.94-22.46,2.85-33.22,1.81-11.67-1.12-15.06-15.42-33.48-36.86-11.96-13.91-14.89-10.4-15.47-5.81Z" style="fill:#466fb5; fill-rule:evenodd;"/><path d="M831.4,289.22s10.16-7.89,19.75-6.03c9.59,1.88,14.29,8.48,13.91,11.48-.37,3.02-5.44,11.47-12.78,12.23-7.34,.75-28.22-4.53-28.22-4.53l7.34-13.16Z" style="fill:#f9af79; fill-rule:evenodd;"/><path d="M811.02,125.06s-39.11,2.41-52.64,21.29c-19.07,26.58-52.16,135.09-43.14,159.92l118.98-.5s2.89-13.47-1.12-19.99c-4.02-6.52-69.2-17.06-72.22-20.07-3.01-3.01,37.61-58.68,37.61-67.71s12.53-72.94,12.53-72.94Z" style="fill:#6d96ce; fill-rule:evenodd;"/><polygon points="841.62 333.66 985.66 333.66 1011.62 243.11 867.8 243.11 841.62 333.66" style="fill:#c4d1eb; fill-rule:evenodd;"/><rect x="796.85" y="330.14" width="188.32" height="3.53" style="fill:#859ac6;"/><path d="M939.92,286.92c.91-3.18-.93-5.77-4.12-5.77s-6.5,2.59-7.41,5.77c-.92,3.18,.92,5.76,4.11,5.76s6.5-2.58,7.42-5.76Z" style="fill:#859ac6; fill-rule:evenodd;"/><path d="M841.5,90.08c8.83,.04,13.72-.27,22.3-1,3.44-.3-3.62,9.27-22.78,1.51-.46-.19-.2-.52,.48-.51Z" style="fill:#eb795b; fill-rule:evenodd;"/><path d="M837.04,45.22c4.29,.32,4.05,3.73,.88,4.54-33.78,8.47-11.49-5.34-.88-4.54Z" style="fill:#20386f; fill-rule:evenodd;"/><path d="M855.63,42.32c-4.01,1.54-2.79,4.75,.48,4.6,34.78-1.69,9.45-8.45-.48-4.6Z" style="fill:#20386f; fill-rule:evenodd;"/><path d="M857.04,81.09l.22-.02c3.74-.82,5.72-1.33,6.43-2.74,.65-1.29,0-2.74-1.17-5.39-1.31-2.91-3.29-7.35-5-14.65-.13-.53-.66-.85-1.19-.73-.53,.12-.87,.65-.74,1.2,1.75,7.47,3.78,12.01,5.12,15.01,.77,1.73,1.44,3.23,1.21,3.68-.32,.63-2.96,1.22-5.09,1.69-.54,.12-.87,.65-.75,1.2,.1,.45,.51,.76,.97,.76Z" style="fill:#eb795b; fill-rule:evenodd;"/><path d="M866.34,63.52c2.44-.25,3.37-9.75-2.56-9.12-3.16,.33-1.44,9.54,2.56,9.12Z" style="fill:#20386f; fill-rule:evenodd;"/><path d="M835.85,67.35c2.44-.27,3.36-9.76-2.55-9.12-3.16,.34-1.44,9.55,2.55,9.12Z" style="fill:#20386f; fill-rule:evenodd;"/></svg>