<?xml version="1.0" encoding="UTF-8"?><svg id="a" xmlns="http://www.w3.org/2000/svg" viewBox="0 0 1801.35 1570.11"><g><path d="M789.66,1570.11c411.59,0,747.27-10.79,747.27-24.01s-335.69-24.02-747.27-24.02-747.26,10.78-747.26,24.02,335.68,24.01,747.26,24.01Z" style="fill:#d2dfee; fill-rule:evenodd;"/><path d="M894.14,0c215.64,0,191.02,380.82,346.7,496.9,206.04,153.64,560.51,77.57,560.51,341.25,0,462.89-459.78,630.6-960.82,630.6S-88.02,1212.02,61.16,750.34C210.34,288.67,393.1,0,894.14,0Z" style="fill:#eaeff8; fill-rule:evenodd;"/></g><path d="M119.14,1046.56c14.02,0,25.38,11.37,25.38,25.39s-11.36,25.39-25.38,25.39-25.39-11.37-25.39-25.39,11.37-25.39,25.39-25.39Z" style="fill:#d2e5f7; fill-rule:evenodd;"/><path d="M110.3,1050c7.69,0,14.65,3.12,19.69,8.16,5.04,5.04,8.15,12,8.15,19.68s-3.11,14.65-8.15,19.68c-5.04,5.04-12,8.16-19.69,8.16s-14.64-3.11-19.68-8.16c-5.04-5.03-8.16-11.99-8.16-19.68s3.12-14.64,8.16-19.68h0c5.04-5.04,12-8.16,19.68-8.16h0Zm16.22,11.63c-4.15-4.16-9.89-6.72-16.22-6.72s-12.07,2.56-16.21,6.72h-.01c-4.14,4.13-6.7,9.87-6.7,16.2s2.57,12.06,6.72,16.22c4.15,4.15,9.89,6.71,16.21,6.71s12.07-2.56,16.22-6.71c4.15-4.16,6.71-9.89,6.71-16.22s-2.56-12.06-6.71-16.2Z" style="fill:#fff; fill-rule:evenodd;"/><path d="M182.81,1046.56h352.4c14.31,0,26.01,11.71,26.01,26.03h0c0,14.31-11.7,26.01-26.01,26.01H182.81c-14.31,0-26.02-11.7-26.02-26.01h0c0-14.32,11.71-26.03,26.02-26.03Z" style="fill:#d2e5f7; fill-rule:evenodd;"/><path d="M173.97,1050h352.4c7.83,0,14.94,3.21,20.1,8.35h.01c5.16,5.17,8.35,12.29,8.35,20.12s-3.2,14.94-8.35,20.1h-.01c-5.16,5.17-12.27,8.38-20.1,8.38H173.97c-7.82,0-14.94-3.21-20.1-8.36h0c-5.16-5.17-8.36-12.28-8.36-20.12s3.2-14.94,8.36-20.1h0c5.16-5.16,12.28-8.37,20.1-8.37h0Zm352.4,4.91H173.97c-6.47,0-12.37,2.65-16.65,6.92-4.26,4.27-6.92,10.16-6.92,16.64s2.66,12.38,6.92,16.65c4.27,4.26,10.17,6.91,16.65,6.91h352.4c6.48,0,12.38-2.65,16.65-6.91,4.27-4.27,6.92-10.17,6.92-16.65s-2.65-12.37-6.92-16.64c-4.27-4.27-10.16-6.92-16.65-6.92Z" style="fill:#fff; fill-rule:evenodd;"/><path d="M497.69,430.91c-38.49,17.59-77.72,25.51-118.88,25.51-141.3,0-255.92-99.82-255.92-222.89S237.51,10.66,378.81,10.66s255.92,99.82,255.92,222.87c0,54.46-22.09,103.82-59.36,142.74,62.44,29.56,124.88,59.11,187.32,88.67-265.01-34.03-176.67-22.69-265.01-34.03Z" style="fill:#a4d0fc; fill-rule:evenodd;"/><path d="M507.98,432.08c-19.21,8.72-38.6,15.06-58.31,19.22-19.97,4.22-40.26,6.23-61.01,6.23-71.34,0-135.98-25.22-182.78-65.98-46.9-40.85-75.93-97.32-75.93-159.69s29.03-118.83,75.94-159.68C252.69,31.41,317.32,6.2,388.67,6.2s135.98,25.22,182.78,65.98c46.91,40.85,75.93,97.31,75.93,159.68,0,27.11-5.41,52.98-15.38,76.97-9.85,23.68-24.17,45.52-42.13,64.9l183.88,87.03-1.54,5.26-264.23-33.93h0Zm-59.43,13.79c19.57-4.14,38.81-10.45,57.85-19.15l1.5-.23,247.66,31.8-171.52-81.18-3.48-1.65,2.66-2.79c18.72-19.55,33.58-41.79,43.63-65.98,9.69-23.31,14.95-48.46,14.95-74.84,0-60.69-28.29-115.67-74.01-155.49-45.83-39.91-109.17-64.61-179.13-64.61s-133.3,24.69-179.13,64.61c-45.72,39.82-74.01,94.8-74.01,155.49s28.29,115.67,74.01,155.5c45.83,39.92,109.16,64.61,179.13,64.61,20.41,0,40.32-1.96,59.88-6.1Z" style="fill:#fc9774; fill-rule:evenodd;"/><g><path d="M390.97,306.85c0-28.23,0-43.17,22.84-71.82,18.26-22.83,39.02-47.32,39.02-81.78,0-36.53-24.5-72.23-84.27-72.23-28.64,0-53.96,8.72-68.49,17.43l12.87,44.83c11.21-7.89,27.81-12.45,41.93-12.45,23.66,0,35.7,12.87,35.7,31.96,0,17.85-10.79,34.04-26.57,54.79-18.68,24.49-27.39,47.32-27.39,70.57,0,3.74,.41,5.4,1.24,18.68h53.14Zm-27.39,103.78c22.42,0,36.53-16.19,36.53-37.77,0-22.84-14.94-38.61-36.53-38.61s-36.53,15.77-36.53,38.61c0,20.75,13.7,37.77,36.53,37.77Z" style="fill:#fff; fill-rule:evenodd;"/><path d="M384.16,300.18c0-28.23,0-43.17,22.83-71.82,18.26-22.83,39.02-47.32,39.02-81.77,0-36.53-24.49-72.23-84.27-72.23-28.64,0-53.96,8.72-68.49,17.43l12.86,44.83c11.21-7.89,27.81-12.45,41.92-12.45,23.66,0,35.7,12.87,35.7,31.96,0,17.85-10.79,34.04-26.56,54.79-18.68,24.49-27.4,47.32-27.4,70.57,0,3.74,.41,5.4,1.25,18.68h53.14Zm-27.4,103.78c22.42,0,36.53-16.19,36.53-37.77,0-22.83-14.94-38.61-36.53-38.61s-36.53,15.77-36.53,38.61c0,20.75,13.7,37.77,36.53,37.77Z" style="fill:#f57a44; fill-rule:evenodd;"/></g><g><g><path d="M169.22,1490.34l422.85-641.2c-7.03-4.09-14-8.38-20.88-12.91-6.87-4.53-13.55-9.25-20.07-14.1L128.27,1463.33c-7.5,11.38-4.43,26.76,6.82,34.19h.02c11.25,7.44,26.6,4.2,34.11-7.18Z" style="fill:#8bbae9; fill-rule:evenodd;"/><path d="M1162.63,720.91c-126.27,191.48-379.33,249.15-575.16,135.21-7.04-4.07-14-8.38-20.87-12.91-6.87-4.54-13.58-9.23-20.09-14.1-181.85-135.12-228.5-390.43-102.22-581.92C575.11,48.82,841.96-5.94,1040.32,124.88c198.36,130.81,253.12,397.66,122.31,596.03h0Zm-577.26,93.86c182.65,120.45,428.36,70.03,548.81-112.62,120.45-182.65,70.04-428.37-112.62-548.82-182.64-120.45-428.36-70.03-548.81,112.62-120.45,182.65-70.03,428.36,112.62,548.81Z" style="fill:#61a0e0; fill-rule:evenodd;"/><g style="opacity:.46;"><path d="M1134.18,702.15c-120.45,182.65-366.16,233.06-548.81,112.62-182.65-120.46-233.07-366.17-112.62-548.81,120.45-182.65,366.17-233.07,548.81-112.62,182.66,120.45,233.07,366.17,112.62,548.82Z" style="fill:#dfedfa; fill-rule:evenodd;"/><path d="M803.1,882.08c-77.84,0-153.48-22.75-218.74-65.79-183.19-120.81-233.95-368.14-113.14-551.34,73.89-112.04,198.23-178.93,332.62-178.93,77.83,0,153.47,22.75,218.73,65.79,88.75,58.52,149.39,148.11,170.76,252.24,21.37,104.13,.91,210.36-57.62,299.11-73.89,112.03-198.22,178.92-332.6,178.92Zm.73-792.41c-133.16,0-256.36,66.27-329.57,177.29-119.71,181.52-69.42,426.58,112.1,546.29,64.66,42.64,139.61,65.19,216.73,65.19,133.15,0,256.34-66.28,329.55-177.28,57.99-87.94,78.27-193.19,57.1-296.36-21.18-103.18-81.26-191.94-169.2-249.93-64.66-42.64-139.6-65.18-216.72-65.18Z" style="fill:#dfedfa;"/></g><g style="opacity:.35;"><path d="M927,662.57l88.13,156.47c-4.56,2.88-9.16,5.64-13.81,8.33l-79.53-141.2L647.25,198.71l-34.82-61.82c4.72-2.59,9.48-5.08,14.29-7.47l13.01,23.09,287.27,510.05h0Zm130,126.02c8.28-6.91,16.33-14.19,24.1-21.84l-144.88-257.23L705.65,100.15c-10.5,2.67-20.91,5.77-31.16,9.3l261.49,464.28,121.02,214.87h0Zm-121.02-214.87c.26-6.53,.45-13.24,.58-20.12l-.58,20.12Z" style="fill:#fff; fill-rule:evenodd;"/></g></g><path d="M469.7,940.47l40.73,26.88c9,5.95,11.51,18.17,5.57,27.17L157.92,1537.06c-5.94,9.01-18.17,11.51-27.17,5.57l-40.73-26.88c-9-5.94-11.5-18.16-5.56-27.17L442.53,946.02c5.95-9,18.17-11.5,27.17-5.56Z" style="fill:#61a0e0; fill-rule:evenodd;"/></g><g><path d="M926.19,354.36c-7.01-27.31,16.08-80.16,51.32-70.63l9.95,2.7c8.46,2.29,17.67-17.19,40.69-5.21,33.99,17.68,46.8,57.71,52.15,178.19,2.59,58.29,44.17,91.95,52.15,113.1,26.38,148.07-327.76,139.24-218.64-56.16,21.4-38.31,23.95-122.35,12.37-161.99Z" style="fill:#284191; fill-rule:evenodd;"/><path d="M974.95,519.37l6.62-34.6s-19.59,4.68-32.05,24.07c-12.46,19.4-33.32,84.78-36.89,86.73-3.56,1.95-43-58.76-49.9-68.41-8.52-11.79-11.7-25.44-17.04-35.76-5.34-10.33-24.14-13.84-31.28-12.48-7.1,1.27,9.79,31.48,9.79,31.48,0,0,42.73,74.16,56.98,114.9,14.24,40.64,58.75,60.03,65.87,54.28,7.12-5.85,27.91-160.21,27.91-160.21Z" style="fill:#f7a46c; fill-rule:evenodd;"/><path d="M967.23,623.35l-54.44-30.99s24.72-104.28,68.79-107.59l-14.35,138.58Z" style="fill:#f57a44; fill-rule:evenodd;"/><path d="M845.22,497.15s-1.77-7.89-6.57-9.45c-4.79-1.56-13.17-.2-13.68,0-.54,.2-9.78-4.78-9.78-4.78l7.62,14.23s14.94,17.54,19.91,11.01c4.98-6.62,2.49-11.01,2.49-11.01Z" style="fill:#ffb27d; fill-rule:evenodd;"/><path d="M812.53,483.51s-5.4,27.48-4.02,33.24c1.35,5.75,4.81,2.63,5.43,1.46,2.67-5.17,4.5-22.8,4.5-22.8l-5.9-11.89Z" style="fill:#f7a46c; fill-rule:evenodd;"/><path d="M824.14,506.31s-2.59,17.06-5.22,19c-1.71,1.36-3.9,.58-4.62-2.82-.72-3.51,3.45-24.46,3.45-24.46l6.4,8.28Z" style="fill:#f7a46c; fill-rule:evenodd;"/><path d="M839.85,554.65l8.94-4.39-38-77.96c-4.95,2.43-6.99,8.38-4.59,13.35l33.65,69Z" style="fill:#4f8ecc; fill-rule:evenodd;"/><path d="M1194.61,1419.55s4.62,46.88,16.49,55.46c11.87,8.68,27.69,40.44,19.78,57.7-2.46,5.36-7.41,8.48-13.05,10.23-16.67,5.17-34.42-3.5-41.51-19.49-3.97-8.88-7.45-20.76-8.15-35.77-1.79-38.01-13.65-57.4-13.65-57.4l40.09-10.73Z" style="fill:#ffb27d; fill-rule:evenodd;"/><path d="M1012.22,1438.75s-3.75,47.27-.7,62.67c1.63,8.18,10.68,25.14,6.52,32.94-4.15,7.7-8.9,9.64-8.9,9.64l-107.66,1.75c-5.88,.1-2.01-3.7,2.73-7.11,7.74-5.75,13.97-9.45,38.71-21.44,1.62-.78,7.49-4.48,9.61-5.75,5.37-3.31,10.76-8.48,15.4-13.55,7.73-8.67,8.4-50.29,8.4-50.29l35.9-8.87Z" style="fill:#ffb27d; fill-rule:evenodd;"/><path d="M928.06,809.98s-13.56,76.8-4.65,127.09c8.91,50.38,51.63,517.09,51.63,517.09l47.48,2.73s9.96-195.01,8.18-222.1c-1.79-27.1-15.87-72.51-15.87-72.51l4.72-157.39-59.91-206.8-31.58,11.89Z" style="fill:#3b5bb3; fill-rule:evenodd;"/><path d="M1067.62,793.8s37.38,56.13,46.29,102.62c8.9,46.48-6.55,189.35,10.59,250.26,9.26,32.94,44.4,83.91,49.74,126.49,5.34,42.59,26.29,154.18,26.29,154.18l-47.45,9.35-110.3-278.62-86.51-252.02-22.17-129.71,133.53,17.44Z" style="fill:#4567c6; fill-rule:evenodd;"/><path d="M1037.35,474.25s25.64,4.19,44.73,22.9c40.95,40.06-24.06,194.62-27.62,221.81-1.96,14.87,40.65,80.4,58.17,143.28,14.4,51.71,4.19,104.07,4.19,104.07,0,0-51.31-33.93-105.77-55.04-40.17-15.58-84.5-17.82-98.62-27.14,0,0,11.72-291.77,15.29-311.16,3.55-19.3,43.39-79.13,50.51-86.83,7.12-7.8,59.11-11.89,59.11-11.89Z" style="fill:#fc9774; fill-rule:evenodd;"/><path d="M1091.01,804.18c8.24,18.52,16.16,38.41,21.63,58.05,14.4,51.71,4.19,104.07,4.19,104.07,0,0-14.53-9.61-36.35-21.79,9.84-41.68,13.34-88.46,10.53-140.33Z" style="fill:#f57a44; fill-rule:evenodd;"/><path d="M1083.65,515.37c-3.16-9.55-13.97-14.23-23.19-10.23-12.64,5.56-30.09,15.89-38.62,33.62-14.25,29.73-64.1,131.76-79.53,135.66-15.41,3.8-78.34-105.93-78.34-105.93,0,0,1.77-19.4-3.57-30.4-5.34-10.92-21.35-22.52-23.72-18.71-2.36,3.9,8.91,13.64,8.91,15.59s-4.77,3.12-11.28-.68c-6.54-3.9-10.08-11.7-10.08-11.7,0,0-10.71,19.4,.56,36.84,11.28,17.44,16.03,24.56,16.03,24.56,0,0,73,162.07,99.71,163.92,24.87,1.86,168.12-157,143.12-232.53Z" style="fill:#ffb27d; fill-rule:evenodd;"/><path d="M1020.87,408.17s.26,1.46,.73,4c2.2,11.89,10.71,51.26,16.44,62.08,6.95,13.06-23.75,54.87-53.3,49.8-8.79-1.56,7.44-38.4,6.66-42.3-1.5-7.5-3.52-17.64-5.58-28.16-1.17-5.85-2.36-11.8-3.48-17.44-3.16-15.98-5.73-29.04-5.73-29.04l44.27,1.07Z" style="fill:#ffb27d; fill-rule:evenodd;"/><path d="M1021.59,412.17c-.46-2.53-.73-4-.73-4l-44.27-1.07s2.58,13.06,5.73,29.04c1.12,5.55,2.29,11.5,3.45,17.34,6.84-.98,13.98-4.29,21.15-10.52,7.8-6.82,12.92-15.01,16-23.78-.53-2.82-1-5.16-1.33-7.02Z" style="fill:#f08261; fill-rule:evenodd;"/><path d="M994.24,303.02s18.05,2.44,31.13,19.4c13.08,16.86,27.18,69.1-5.31,97.46-32.49,28.36-64.6-3.7-69.35-37.82-4.76-34.11-3.8-80.3,43.53-79.04Z" style="fill:#ffb27d; fill-rule:evenodd;"/><path d="M940.32,370.36c3.87,7.6,10.39,11.69,14.53,9.36,4.15-2.34,4.37-10.43,.51-17.93-3.89-7.51-10.4-11.7-14.55-9.36-4.15,2.44-4.37,10.43-.48,17.93Z" style="fill:#ffb27d; fill-rule:evenodd;"/><path d="M988.74,302.24s27.88,49.6,47.82,51.95c19.94,2.24,22.56,28.65,22.56,28.65,0,0-7.13-60.81-26.87-72.51-19.74-11.69-43.51-8.09-43.51-8.09Z" style="fill:#284191; fill-rule:evenodd;"/><path d="M1030.04,365.98c-1.62,8.87,1.64,16.96,7.28,18.03,5.66,1.17,11.54-4.97,13.16-13.84,1.62-8.77-1.65-16.86-7.29-18.03-5.64-1.17-11.54,5.07-13.16,13.84Z" style="fill:#ffb27d; fill-rule:evenodd;"/><path d="M1173.08,1515.06c25.88,4.78,43.09-10.33,52.03-21.63,6.57,12.76,10.61,28.75,5.77,39.28-4.26,9.25-15.86,11.79-25.65,12.18-10.37,.38-20.06-5.07-25.2-14.03-2.4-4.2-4.87-9.46-6.95-15.79Z" style="fill:#284191; fill-rule:evenodd;"/><path d="M952.54,1511.46c28.47,7.31,49.53,2.34,61.3-2.44,3.04,8.58,7.05,19.4,4.92,25.54-2.61,7.69-6.34,9.35-9.62,9.45-26.01,.68-95.27,1.67-115.09,1.85-2.79,.1-4.32-3.11-2.53-5.26,4.92-5.85,58.89-27.87,61.02-29.14Z" style="fill:#284191; fill-rule:evenodd;"/><path d="M1043.68,657.75l-64.11-42.1s26.72-75.43,56.09-102.13c29.39-26.7,43.28-20.27,49.43-14.71,17.02,15.4,14.01,52.72-5.35,98.81-19.37,46.1-36.06,60.13-36.06,60.13Z" style="fill:#f57a44; fill-rule:evenodd;"/><path d="M990.08,301.76s-18.05,29.62-30.96,31.02c-12.91,1.34-14.6,17.11-14.6,17.11,0,0,4.62-36.32,17.39-43.3,12.78-6.98,28.16-4.83,28.16-4.83Z" style="fill:#284191; fill-rule:evenodd;"/><path d="M994.08,301.68c-11.48-3.22-16.45-8.89-14.93-17.04,13.24-11.07,27.53-15.39,42.86-12.98-8.16,2.75-17.47,12.76-27.93,30.03Z" style="fill:#284191; fill-rule:evenodd;"/><path d="M976.6,294.71c6.55,3.43,11.2,2.98,13.97-1.34-1.27-10.61-5.87-18.62-13.8-24.05,2.51,4.7,2.45,13.16-.16,25.39Z" style="fill:#284191; fill-rule:evenodd;"/><path d="M1045.26,476.19c-1.19,11.94-10.93,25.82-21.21,36-11.48,11.37-25.63,19.37-35.04,18.63-6.89-.54-11.35-4.47-11.8-13.9-.36-7.58,.54-16.59,7.17-34.16l3.96-1.24,2.86-.71c.09,.75,.41,1.04,.24,1.71-.17,.65-.26,1.26-.42,1.89-3.82,14.49-6.86,26.06-6.57,32.17,.23,4.8,2.17,6.77,5.13,7.01,7.36,.58,19.26-6.52,29.37-16.53,9.24-9.14,18.07-22.68,19.08-32.8l7.23,1.94Z" style="fill:#f57a44; fill-rule:evenodd;"/><path d="M991.04,302.94c-7.51-.73-11.45,1.92-11.8,7.95,6.33,11.05,14.37,17.71,24.1,19.99-4.54-4-8.63-13.31-12.29-27.94Z" style="fill:#284191; fill-rule:evenodd;"/></g><g><path d="M1566.48,1346.12c.08,4.81,.36,8.84,.73,11.63-.37-2.79-.64-6.82-.73-11.63Z" style="fill:#ecece9; fill-rule:evenodd;"/><path d="M1420.06,990.33c-3.54-4.56-8.38-8-13.22-11.03-1.29-.8-3.16-.26-3.87,1.07-3.75,6.99-7.24,14.17-11.53,20.86-1.42,2.21-3.44,5.13-5.24,6.42-.11,.09-.56,.3-.77,.42-.03-.04-.06-.08-.08-.12-.36-.53-.56-1.09-.75-1.69-3.35-10.29,.72-21.31-1.93-31.68-1.4-5.48-4.87-11.2-8.83-15.19-4.29-4.36-10.04-6.38-12.72-12.24-.4-.88-1.12-1.3-1.92-1.38h-.53c-.95,.09-1.92,.62-2.46,1.4-6.19,8.9-14.85,18.1-16.5,29.23-1.47,9.89,3.88,18.13,9.57,25.64,2.76,3.62,5.48,7.32,7.61,11.36,1.18,2.22,3.22,6.23,1.08,8.41-2.24,2.28-5.66-1.79-7.44-3.61-3.63-3.76-6.7-8.04-9.86-12.2-5.21-6.87-13.45-17.32-23.26-15.42-4.32,.84-6.08,5.3-6.31,9.19-.36,6.19,2.66,12.84,5.71,18.04,6.9,11.77,20.9,15.19,29.9,24.69,2.07,2.18,7.74,9.66,4.49,12.74-1.14,1.07-3.78,.71-5.12,.5-3.3-.5-6.92-1.72-9.59-3.77-10.12-7.83-13.8-21.43-24.44-28.85-4.66-3.25-11.84-5.24-17.46-3.9-4.75,1.13-6.94,5.61-7.15,10.11-.26,5.46,2.24,11.1,4.99,15.66,3.18,5.28,7.56,9.69,12.91,12.74,10.73,6.1,24.3,6.87,31.42,18.09,.98,1.53,2.03,3.53,1.56,5.41-.37,1.45-2.42,1.9-3.65,2.18-5.5,1.21-12.71-.82-17.54-3.38-5.83-3.11-10.08-8.73-14.56-13.43-4.72-4.96-9.99-9.01-16.62-11.03-4.82-1.45-10.73-1.21-13.83,3.28-2.85,4.13-2.26,9.68-1.1,14.27,1.54,6.08,4.84,11.69,8.91,16.4,4.39,5.09,11.31,7.98,17.52,10.06,6.45,2.16,13.16,3.48,19.54,5.89,1.68,.63,2.99,1.09,4.84,1.22,1.97,.14,3.96,.04,5.89,.54,1.62,.42,.55,2.14,0,3.32-1.32,2.85-5.56,2.72-8.22,2.93-2.54,.19-5.03,.84-7.56,.86-2.91,.01-5.81-.52-8.67-.96-5.67-.86-11.67-1.86-17.29-.16-5.42,1.65-9.25,6.77-10.22,12.24-2.04,11.5,10.81,18.52,20.36,19.99,6.13,.93,11.67-.4,17.05-3.44,6.62-3.75,11.84-9.15,19.49-10.09,.5,3.06-.59,5.51-3.31,7.81-3.74,3.16-8.92,4.86-13.43,6.54-8.9,3.31-21.92,6.25-26.69,15.46-.58,1.12-.47,2.52,.48,3.43,4.22,4.02,9.07,7.19,15.01,7.66,4.91,.39,9.72-1.89,13.71-4.53,7.14-4.73,13.28-12.09,21.29-15.41-1.1,2.02-2.96,3.41-5.2,5.15-4,3.11-6.05,7.42-7.16,12.27-1.68,7.37,.87,15.31,9.5,15.36,4.72,.02,9.45-2.34,13.38-4.71,4.5-2.71,8.1-6.63,10.9-11.03,3.47-5.46,5.39-11.75,6.47-18.18,7.22,14.06,22.91,28.76,37.7,16.61,12.64-10.4-8.18-18.36-16.4-26.55,1.62,.66,3.19,1.49,4.69,2.26,4.29,2.2,8.45,4.63,12.94,6.45,8.35,3.41,17.71,3.08,22.71-5.51,4.31-7.41-4.62-10.86-10.12-12.51-4.47-1.35-12.85-2.79-16.1-7.29,11.04,1.21,23.33,2.58,32.84-3.8,4.32-2.9,9.5-8.46,10.02-13.9,.42-4.45-4.38-6.01-7.84-6.35-9.42-.93-18.59,3.22-28.03,2.93-2.27-.08-4.52-.32-6.74-.8-.83-.19-1.68-.42-2.46-.77-.29-.14-.6-.39-.8-.54,.05-.14,.12-.29,.26-.46,.84-.97,1.94-1.7,3-2.41,2.42-1.58,4.95-2.51,7.83-2.81,5.48-.58,10.96,.1,16.43-.85,6.15-1.07,11.15-4.63,15.21-9.22,3.61-4.07,7.09-9.23,7.66-14.79,.59-5.73-2.88-9.62-8.01-11.57-14.32-5.49-22.71,9.32-32.93,16.03-2.71,1.78-5.93,2.96-9.01,3.9-1.26,.38-4.95,1.65-6.18,.68-.73-.6,1.7-4.49,2.17-5.23,2.06-3.33,4.68-5.66,8.06-7.6,8.55-4.89,18.97-6.4,25.7-14.14,4.43-5.07,7.91-13.66,3.58-19.85-4.59-6.55-14.81-4.78-20.59-.97-7.26,4.8-10.92,14.52-19.65,16.85-.76-4.14,.85-7.95,3.65-11.63,4.07-5.38,9.33-9.8,14.17-14.47,4.63-4.47,9.4-9.33,11.81-15.42,2.48-6.22,.88-12.51-3.12-17.69Z" style="fill:#8bbae9; fill-rule:evenodd;"/><path d="M1635.95,1189.6c1.39-5.6,1.1-11.53,.48-17.22-.16-1.51-1.75-2.64-3.23-2.37-7.82,1.38-15.61,3.09-23.53,3.85-2.61,.26-6.15,.47-8.28-.13-.14-.05-.59-.27-.8-.36,.01-.04,.02-.09,.04-.16,.2-.6,.51-1.1,.86-1.62,6-9,17.17-12.62,23.68-21.12,3.45-4.5,5.78-10.75,6.47-16.33,.76-6.06-1.22-11.84,1.73-17.56,1.08-2.09-1.15-3.96-3.06-3.85-10.83,.66-23.41-.46-33.18,5.13-8.67,4.97-11.84,14.27-14.21,23.38-1.14,4.41-2.36,8.84-4.21,13.01-1.01,2.29-2.91,6.38-5.95,6.05-3.18-.35-2.1-5.55-1.75-8.07,.7-5.18,2.16-10.25,3.48-15.3,2.17-8.35,5.28-21.29-2.29-27.82-3.33-2.87-7.93-1.49-11.13,.74-5.09,3.55-8.43,10.04-10.63,15.64-4.98,12.71,1,25.81-.88,38.76-.43,2.98-2.81,12.07-7.23,11.41-1.54-.23-2.9-2.52-3.57-3.7-1.65-2.92-2.93-6.51-2.96-9.87-.12-12.79,8.28-24.1,7.54-37.05-.33-5.67-3.22-12.55-7.73-16.13-3.83-3.03-8.7-1.98-12.37,.64-4.45,3.18-7.34,8.62-9.22,13.61-2.18,5.77-2.94,11.93-2.02,18.03,1.84,12.19,9.63,23.33,5.23,35.87-.6,1.72-1.52,3.78-3.28,4.57-1.37,.6-3-.73-3.97-1.52-4.35-3.56-7.23-10.49-8.2-15.87-1.17-6.5,.62-13.31,1.54-19.73,.98-6.79,.9-13.43-1.62-19.89-1.82-4.69-5.68-9.19-11.13-8.84-5,.32-9,4.21-11.89,7.96-3.82,4.97-6.18,11.05-7.37,17.16-1.27,6.6,.74,13.82,2.94,19.99,2.29,6.4,5.41,12.49,7.46,18.98,.54,1.72,1,3.02,2.04,4.56,1.11,1.63,2.41,3.14,3.22,4.97,.68,1.53-1.34,1.74-2.61,2.04-3.05,.72-5.57-2.67-7.39-4.64-1.72-1.86-3.77-3.43-5.35-5.4-1.81-2.27-3.18-4.89-4.61-7.4-2.83-5-5.75-10.33-10.57-13.68-4.66-3.25-11.03-3.09-15.94-.46-10.31,5.51-7.86,19.95-3.1,28.36,3.05,5.38,7.53,8.92,13.24,11.27,7.05,2.88,14.52,3.63,19.99,9.07-2.09,2.27-4.69,2.94-8.18,2.22-4.79-.98-9.34-4-13.46-6.5-8.1-4.95-18.46-13.35-28.65-11.4-1.24,.24-2.27,1.18-2.39,2.49-.56,5.8-.03,11.58,3.27,16.52,2.74,4.12,7.5,6.47,12.05,7.96,8.13,2.67,17.71,2.96,25.29,7.18-2.28,.38-4.51-.2-7.26-.89-4.92-1.22-9.58-.16-14.08,1.97-6.82,3.23-11.5,10.16-6.18,16.97,2.9,3.72,7.69,5.96,11.97,7.6,4.91,1.86,10.22,2.26,15.41,1.74,6.42-.66,12.56-3.03,18.28-6.17-6.57,14.37-8.42,35.79,10.29,39.89,15.98,3.49,9.35-17.79,10.69-29.32,.48,1.68,.8,3.43,1.13,5.09,.93,4.73,1.6,9.51,2.94,14.16,2.49,8.66,8.55,15.82,18.4,14.42,8.48-1.2,5.66-10.35,3.55-15.69-1.72-4.34-5.75-11.82-4.23-17.16,5.88,9.42,12.41,19.92,23.31,23.46,4.94,1.59,12.52,2.22,17.12-.73,3.75-2.41,2.01-7.17,.13-10.09-5.11-7.97-14.03-12.61-19.64-20.21-1.35-1.82-2.56-3.73-3.54-5.78-.36-.77-.71-1.57-.92-2.39-.08-.31-.06-.72-.06-.98,.13-.04,.3-.07,.51-.06,1.29,.04,2.54,.46,3.75,.85,2.75,.92,5.05,2.34,7.07,4.42,3.85,3.95,6.7,8.67,10.83,12.39,4.65,4.17,10.54,5.89,16.65,6.24,5.44,.32,11.65-.15,16.36-3.13,4.87-3.08,5.77-8.23,4.14-13.46-4.56-14.64-21.38-12.07-32.97-15.94-3.08-1.03-5.99-2.83-8.64-4.66-1.08-.74-4.37-2.86-4.35-4.43,0-.94,4.57-1.44,5.44-1.54,3.9-.44,7.34,.17,10.95,1.64,9.13,3.68,16.78,10.93,27.02,11.44,6.72,.33,15.63-2.25,17.81-9.47,2.31-7.66-5.41-14.6-11.97-16.77-8.26-2.74-18.16,.4-25.39-5.01,2.79-3.16,6.77-4.25,11.4-4.33,6.75-.13,13.47,1.25,20.14,2.17,6.38,.88,13.14,1.62,19.41-.26,6.42-1.91,10.38-7.05,11.97-13.39Z" style="fill:#8bbae9; fill-rule:evenodd;"/><path d="M1252.27,1033.65c-5.38-2.08-11.29-2.55-17.01-2.65-1.52-.03-2.84,1.4-2.76,2.91,.38,7.93,1.09,15.87,.84,23.82-.08,2.62-.31,6.17-1.18,8.21-.06,.12-.34,.54-.45,.75-.04-.02-.09-.03-.14-.05-.57-.28-1.03-.66-1.51-1.07-8.16-7.09-10.35-18.64-17.95-26.17-4.02-3.99-9.94-7.08-15.38-8.48-5.92-1.52-11.9-.29-17.2-3.94-1.94-1.33-4.08,.64-4.21,2.55-.73,10.82-3.43,23.16,.89,33.56,3.82,9.23,12.65,13.55,21.4,17.05,4.23,1.69,8.46,3.47,12.37,5.82,2.16,1.3,5.97,3.7,5.25,6.67-.75,3.11-5.77,1.37-8.23,.72-5.05-1.35-9.89-3.45-14.72-5.38-8.01-3.21-20.46-7.92-27.89-1.25-3.27,2.93-2.49,7.68-.68,11.14,2.88,5.48,8.9,9.63,14.17,12.51,11.98,6.54,25.74,2.27,38.34,5.78,2.9,.81,11.61,4.31,10.4,8.62-.42,1.5-2.87,2.55-4.13,3.07-3.1,1.26-6.82,2.08-10.16,1.69-12.71-1.5-22.87-11.27-35.81-12.17-5.67-.38-12.85,1.61-16.97,5.64-3.49,3.42-3.06,8.38-.93,12.35,2.59,4.81,7.62,8.36,12.33,10.86,5.44,2.88,11.47,4.42,17.62,4.28,12.34-.29,24.37-6.61,36.25-.64,1.62,.81,3.56,1.98,4.11,3.83,.43,1.42-1.09,2.88-2,3.73-4.09,3.88-11.33,5.85-16.77,6.12-6.6,.34-13.13-2.29-19.4-4.02-6.6-1.83-13.21-2.59-19.92-.91-4.88,1.22-9.82,4.48-10.17,9.92-.32,5,3.03,9.47,6.39,12.8,4.45,4.42,10.17,7.54,16.08,9.49,6.39,2.1,13.8,1.01,20.2-.39,6.65-1.47,13.07-3.79,19.78-5,1.77-.32,3.13-.61,4.78-1.45,1.76-.9,3.43-2,5.34-2.56,1.61-.47,1.57,1.55,1.7,2.85,.33,3.12-3.37,5.19-5.54,6.75-2.07,1.47-3.88,3.3-6.04,4.61-2.48,1.52-5.24,2.56-7.92,3.65-5.31,2.17-10.97,4.4-14.91,8.76-3.8,4.2-4.46,10.55-2.47,15.74,4.17,10.92,18.8,10.32,27.74,6.67,5.73-2.35,9.8-6.34,12.84-11.71,3.76-6.62,5.44-13.95,11.53-18.68,1.99,2.37,2.32,5.03,1.17,8.4-1.58,4.63-5.14,8.76-8.16,12.52-5.93,7.41-15.58,16.63-14.94,26.98,.08,1.26,.9,2.4,2.18,2.69,5.68,1.28,11.48,1.49,16.81-1.15,4.42-2.2,7.37-6.63,9.42-10.96,3.68-7.71,5.16-17.19,10.32-24.15,.09,2.3-.78,4.43-1.81,7.08-1.84,4.73-1.37,9.49,.18,14.22,2.35,7.17,8.63,12.69,16.06,8.28,4.05-2.4,6.88-6.87,9.04-10.91,2.47-4.64,3.54-9.86,3.68-15.06,.16-6.46-1.42-12.85-3.81-18.91,13.43,8.33,34.45,12.88,40.87-5.16,5.5-15.41-16.46-11.53-27.72-14.32,1.74-.26,3.5-.36,5.19-.47,4.82-.32,9.64-.38,14.42-1.13,8.91-1.38,16.77-6.48,16.64-16.42-.11-8.57-9.55-6.93-15.11-5.52-4.53,1.16-12.46,4.22-17.56,2.04,10.09-4.64,21.33-9.8,26.21-20.16,2.21-4.7,3.8-12.14,1.44-17.07-1.92-4.02-6.84-2.9-9.99-1.42-8.55,4.06-14.27,12.34-22.52,16.94-1.99,1.1-4.04,2.05-6.2,2.77-.8,.26-1.65,.51-2.49,.61-.32,.04-.72-.03-.98-.05-.02-.14-.04-.31,0-.52,.21-1.27,.78-2.45,1.33-3.6,1.25-2.62,2.95-4.71,5.26-6.45,4.41-3.31,9.46-5.54,13.65-9.17,4.73-4.08,7.18-9.71,8.3-15.73,1-5.35,1.33-11.57-1.03-16.62-2.44-5.24-7.43-6.77-12.83-5.82-15.1,2.68-14.67,19.69-19.98,30.7-1.41,2.92-3.56,5.59-5.72,7.98-.88,.98-3.4,3.97-4.95,3.76-.92-.13-.84-4.72-.83-5.59,.05-3.92,1.1-7.27,3.01-10.66,4.81-8.58,12.97-15.26,14.77-25.34,1.18-6.64-.26-15.8-7.15-18.88-7.31-3.25-15.16,3.53-18.14,9.77-3.76,7.84-1.9,18.06-8.19,24.55-2.78-3.16-3.36-7.25-2.86-11.85,.73-6.71,2.96-13.21,4.71-19.69,1.67-6.23,3.25-12.84,2.2-19.3-1.08-6.61-5.68-11.19-11.78-13.56Z" style="fill:#8bbae9; fill-rule:evenodd;"/><path d="M1527.14,1111.64c-.77-5.72-3.23-11.12-5.9-16.18-.71-1.34-2.61-1.79-3.88-1.01-6.76,4.17-13.37,8.63-20.44,12.27-2.33,1.18-5.55,2.71-7.75,2.92-.14,.01-.65-.01-.88-.03,0-.04,0-.08-.01-.15-.04-.63,.07-1.22,.2-1.84,2.27-10.58,11.31-18.07,14.22-28.37,1.54-5.44,1.4-12.12-.01-17.56-1.53-5.93-5.5-10.54-4.87-16.97,.23-2.34-2.53-3.25-4.27-2.44-9.82,4.59-21.93,8.21-28.95,17.01-6.22,7.81-5.74,17.64-4.57,26.98,.56,4.52,1.06,9.07,.89,13.63-.09,2.52-.35,7.02-3.3,7.82-3.08,.85-4-4.37-4.62-6.85-1.25-5.08-1.77-10.31-2.41-15.5-1.06-8.56-2.96-21.73-12.39-25.02-4.15-1.44-7.91,1.54-10.06,4.79-3.42,5.17-4.14,12.44-4.11,18.46,.07,13.65,10.46,23.62,13.49,36.36,.69,2.93,1.84,12.25-2.51,13.28-1.52,.35-3.63-1.28-4.69-2.14-2.61-2.1-5.13-4.96-6.4-8.08-4.83-11.84-1.2-25.46-6.67-37.21-2.4-5.16-7.61-10.48-13.13-12.14-4.68-1.41-8.82,1.37-11.26,5.16-2.96,4.6-3.64,10.73-3.55,16.06,.11,6.17,1.67,12.17,4.78,17.49,6.22,10.66,17.56,18.12,18.11,31.41,.07,1.82-.03,4.07-1.37,5.46-1.05,1.07-3.06,.43-4.25,.05-5.37-1.71-10.59-7.08-13.48-11.72-3.49-5.61-4.34-12.6-5.85-18.92-1.6-6.66-4.12-12.81-8.85-17.86-3.43-3.68-8.66-6.45-13.6-4.12-4.54,2.14-6.82,7.24-8.12,11.79-1.72,6.03-1.67,12.54-.52,18.65,1.25,6.61,5.78,12.58,10.11,17.49,4.5,5.11,9.64,9.6,13.95,14.89,1.14,1.41,2.04,2.45,3.58,3.49,1.63,1.11,3.41,2.03,4.82,3.42,1.2,1.18-.6,2.14-1.67,2.88-2.57,1.79-6.17-.44-8.58-1.59-2.29-1.09-4.76-1.79-6.97-3.04-2.52-1.44-4.76-3.36-7.02-5.18-4.47-3.59-9.16-7.46-14.87-8.8-5.52-1.3-11.4,1.2-14.99,5.45-7.54,8.93,.06,21.45,7.59,27.5,4.82,3.89,10.29,5.51,16.46,5.58,7.61,.08,14.84-1.99,21.92,1.05-1.1,2.89-3.28,4.47-6.79,5.09-4.82,.85-10.15-.27-14.9-1.08-9.35-1.61-22.09-5.6-30.84-.02-1.06,.68-1.67,1.94-1.3,3.2,1.63,5.61,4.25,10.78,9.15,14.16,4.06,2.81,9.36,3.25,14.13,2.95,8.55-.51,17.54-3.79,26.15-2.65-1.97,1.2-4.27,1.47-7.08,1.85-5.02,.68-8.96,3.38-12.35,7.02-5.15,5.53-6.94,13.69,.51,18.06,4.07,2.38,9.34,2.7,13.93,2.64,5.25-.08,10.33-1.67,14.96-4.07,5.74-2.98,10.56-7.45,14.72-12.46-.81,15.77,5.38,36.36,24.28,33.26,16.15-2.65,2.13-19.99-.88-31.18,1.07,1.38,2.02,2.88,2.93,4.3,2.61,4.06,4.99,8.25,7.95,12.07,5.52,7.14,13.79,11.55,22.42,6.63,7.44-4.26,1.45-11.71-2.48-15.91-3.2-3.4-9.72-8.87-10.27-14.38,8.94,6.58,18.89,13.92,30.32,13.19,5.19-.34,12.46-2.55,15.63-6.99,2.59-3.63-.78-7.4-3.6-9.43-7.69-5.52-17.69-6.54-25.71-11.53-1.92-1.21-3.75-2.55-5.42-4.08-.63-.58-1.25-1.2-1.74-1.89-.19-.27-.33-.64-.42-.88,.1-.09,.25-.18,.45-.25,1.21-.43,2.53-.51,3.8-.58,2.89-.17,5.55,.3,8.19,1.49,5.04,2.24,9.43,5.59,14.64,7.51,5.86,2.16,11.96,1.59,17.78-.35,5.16-1.71,10.76-4.42,14.05-8.93,3.39-4.67,2.32-9.78-1.12-14.04-9.64-11.92-24.33-3.33-36.53-2.65-3.23,.19-6.61-.41-9.75-1.13-1.28-.3-5.11-1.07-5.68-2.52-.34-.87,3.72-3.02,4.49-3.44,3.46-1.84,6.89-2.54,10.78-2.51,9.84,.06,19.63,3.97,29.33,.66,6.38-2.17,13.7-7.86,13.06-15.38-.68-7.98-10.41-11.57-17.32-11.17-8.68,.51-16.73,7.09-25.45,4.71,1.42-3.95,4.73-6.45,8.99-8.23,6.23-2.61,12.99-3.8,19.52-5.41,6.25-1.54,12.81-3.36,17.96-7.4,5.26-4.15,7.04-10.38,6.17-16.87Z" style="fill:#a4d0fc; fill-rule:evenodd;"/><path d="M1485.31,1056.86c-3.28,14.25-6.12,28.59-10.21,42.64-4.21,14.42-10.19,27.75-18.41,40.32-17,25.94-38.64,48.43-56.15,74.01-.73,1.06-.59,2.11-.02,2.87-3.38,6.38-5.34,13.63-6.74,20.55-2.45,12.07-3.2,24.46-3.68,36.75-.6,15.02-.48,29.95,.21,44.97,.82,17.64,1.99,35.31,1.24,52.97-.04,1.03-.1,2.04-.16,3.06-.21,3.66,5.46,3.64,5.67,0,.98-17.24-.03-34.5-.88-51.74-.75-15.36-1.1-30.64-.54-46.01,.43-11.88,1.02-23.8,3.05-35.53,1.84-10.67,4.8-22.75,12.85-30.56,1.15-1.11,1.03-2.51,.31-3.5,16.36-22.24,35.12-42.68,50.28-65.83,8.12-12.38,13.9-25.74,18.16-39.9,4.3-14.3,7.14-29,10.49-43.56,.82-3.55-4.65-5.06-5.47-1.5Z" style="fill:#8bbae9; fill-rule:evenodd;"/><path d="M1392.82,1375.84c-3.07-27.56-15.76-52.23-28.9-76.2-13.02-23.78-26.75-47.88-30.74-75.1-.53-3.61-5.99-2.07-5.46,1.51,7.97,54.32,53.31,94.94,59.43,149.79,.41,3.59,6.08,3.63,5.67,0Z" style="fill:#8bbae9; fill-rule:evenodd;"/><path d="M1476.15,1246.66c-24.25,10.6-48.02,26.8-64.31,47.89-8.88,11.51-14.11,24.61-17.39,38.33-1.24-14.3-3.86-28.48-6.6-42.57-6.38-32.86-11.3-65.89-14.4-99.25-1.22-13.23-2.14-26.5-2.76-39.77-.16-3.64-5.83-3.65-5.67,0,1.7,36.85,5.94,73.52,11.66,109.95,3.87,24.65,10.4,48.99,12.29,73.91-2.14-13.47-5.35-26.75-9.49-39.71-5.91-18.53-13.87-36.52-24.2-53.02,.06-.71-.14-1.45-.73-2.12-.71-.79-1.42-1.57-2.13-2.32-2.56-3.86-5.24-7.63-8.08-11.29-1.27-1.63-3.08-1.05-4.03,.28-4.34-3.33-8.97-6.3-13.97-8.88-11.65-6.03-26.16-9.94-31.74-23.15-1.42-3.36-6.3-.46-4.89,2.86,5.54,13.13,19.09,18.01,30.93,23.75,10.63,5.16,19.6,11.8,27.62,20.27,11.33,17.24,19.78,36.4,26.03,55.99,7.59,23.78,11.93,48.77,11.99,73.76,0,.14,0,.26,.02,.39-.38,1.85,1.08,3.07,2.63,3.19,.76,2.57,5.32,2.21,5.57-1.03,2.07-26.82,5.13-54.96,22.31-76.83,15.86-20.19,38.83-35.56,62.19-45.76,3.35-1.45,.46-6.34-2.86-4.9Z" style="fill:#8bbae9; fill-rule:evenodd;"/><path d="M1306.5,1056.24c-5.15-2.6-10.99-3.63-16.67-4.29-1.5-.17-2.96,1.13-3.03,2.62-.38,7.93-.44,15.91-1.46,23.8-.33,2.59-.9,6.1-1.97,8.04-.07,.13-.38,.53-.52,.71-.04-.02-.09-.04-.13-.07-.54-.32-.97-.74-1.4-1.2-7.45-7.86-8.5-19.54-15.34-27.78-3.62-4.35-9.21-8.01-14.5-9.94-5.75-2.08-11.81-1.42-16.74-5.57-1.8-1.52-4.12,.23-4.43,2.13-1.77,10.69-5.65,22.72-2.36,33.48,2.92,9.56,11.29,14.72,19.65,19.03,4.05,2.11,8.08,4.27,11.75,7,2.02,1.5,5.59,4.25,4.58,7.14-1.05,3.03-5.88,.82-8.27-.08-4.89-1.84-9.5-4.37-14.13-6.78-7.66-3.96-19.59-9.86-27.64-3.95-3.54,2.62-3.21,7.41-1.75,11.02,2.34,5.75,7.92,10.46,12.9,13.84,11.29,7.66,25.39,4.74,37.6,9.45,2.81,1.08,11.14,5.41,9.52,9.59-.57,1.45-3.11,2.26-4.41,2.65-3.21,.95-7,1.41-10.27,.7-12.51-2.71-21.67-13.42-34.46-15.56-5.61-.93-12.96,.36-17.44,3.96-3.8,3.06-3.87,8.05-2.12,12.22,2.11,5.04,6.77,9.06,11.23,12,5.14,3.4,10.98,5.51,17.12,5.97,12.31,.9,24.89-4.22,36.15,2.85,1.54,.97,3.35,2.32,3.73,4.22,.29,1.47-1.38,2.76-2.37,3.53-4.44,3.45-11.83,4.73-17.29,4.47-6.6-.3-12.85-3.55-18.91-5.88-6.4-2.45-12.89-3.85-19.74-2.81-4.98,.74-10.21,3.5-11.09,8.88-.8,4.96,2.1,9.72,5.12,13.38,4,4.82,9.4,8.48,15.09,10.98,6.15,2.71,13.64,2.35,20.14,1.56,6.76-.81,13.38-2.51,20.17-3.07,1.79-.14,3.17-.3,4.89-.98,1.84-.73,3.6-1.66,5.56-2.04,1.65-.31,1.41,1.7,1.42,3.01,.03,3.13-3.85,4.84-6.16,6.17-2.2,1.27-4.18,2.92-6.46,4.02-2.61,1.27-5.47,2.03-8.23,2.86-5.5,1.65-11.35,3.32-15.68,7.27-4.2,3.83-5.46,10.08-3.98,15.44,3.09,11.27,17.71,12.09,26.97,9.31,5.93-1.78,10.36-5.36,13.91-10.41,4.38-6.23,6.76-13.36,13.28-17.48,1.76,2.55,1.82,5.23,.36,8.46-2.02,4.47-5.97,8.23-9.32,11.68-6.62,6.8-17.12,15.05-17.48,25.41-.04,1.25,.66,2.48,1.91,2.88,5.54,1.83,11.28,2.61,16.85,.48,4.61-1.76,7.96-5.88,10.44-9.99,4.41-7.33,6.8-16.6,12.61-23.06-.13,2.3-1.2,4.35-2.49,6.89-2.28,4.52-2.28,9.29-1.2,14.16,1.65,7.37,7.37,13.46,15.19,9.79,4.27-2,7.51-6.18,10.06-9.99,2.91-4.37,4.47-9.47,5.11-14.65,.79-6.4-.17-12.92-1.96-19.18,12.56,9.59,33.03,16.14,41.18-1.19,6.95-14.82-15.27-13.07-26.21-16.94,1.75-.09,3.53-.01,5.21,.03,4.82,.15,9.63,.56,14.45,.29,9-.51,17.32-4.84,18.15-14.75,.71-8.55-8.83-7.82-14.51-6.95-4.62,.71-12.81,2.99-17.66,.33,10.48-3.65,22.17-7.69,28.03-17.53,2.66-4.47,4.95-11.72,3.08-16.86-1.52-4.17-6.54-3.54-9.81-2.36-8.91,3.21-15.41,10.89-24.06,14.67-2.08,.9-4.22,1.65-6.42,2.16-.83,.18-1.7,.34-2.55,.37-.32,0-.71-.1-.96-.16,0-.13,0-.31,.05-.51,.33-1.24,1.01-2.37,1.67-3.46,1.5-2.48,3.39-4.4,5.86-5.91,4.71-2.87,9.95-4.61,14.48-7.81,5.1-3.61,8.08-8.98,9.78-14.85,1.51-5.23,2.44-11.38,.57-16.64-1.92-5.45-6.74-7.46-12.2-7.02-15.29,1.2-16.51,18.16-22.86,28.61-1.68,2.77-4.08,5.22-6.45,7.4-.98,.88-3.77,3.62-5.29,3.26-.91-.23-.38-4.79-.29-5.66,.43-3.9,1.8-7.12,4.02-10.31,5.62-8.09,14.38-13.94,17.15-23.8,1.82-6.48,1.27-15.74-5.29-19.47-6.96-3.95-15.43,2.04-19,7.96-4.5,7.45-3.63,17.81-10.52,23.65-2.46-3.4-2.64-7.54-1.7-12.07,1.38-6.62,4.22-12.86,6.59-19.16,2.27-6.03,4.49-12.45,4.05-18.99-.43-6.68-4.57-11.68-10.41-14.63Z" style="fill:#c3dffa; fill-rule:evenodd;"/><polygon points="1457.18 1542.47 1334.91 1542.47 1294.9 1384.36 1494.42 1384.36 1457.18 1542.47" style="fill:#c3dffa; fill-rule:evenodd;"/><rect x="1281.56" y="1363.81" width="223.42" height="20.55" style="fill:#8bbae9;"/><polygon points="1394.66 1384.36 1294.9 1384.36 1334.91 1542.47 1394.66 1542.47 1394.66 1384.36" style="fill:#a4d0fc; fill-rule:evenodd;"/><rect x="1281.56" y="1363.81" width="113.1" height="20.55" style="fill:#61a0e0;"/><polygon points="1457.18 1544.84 1334.91 1544.84 1294.9 1523.5 1494.42 1523.5 1457.18 1544.84" style="fill:#8bbae9; fill-rule:evenodd;"/><polygon points="1394.66 1523.5 1294.9 1523.5 1334.91 1544.84 1394.66 1544.84 1394.66 1523.5" style="fill:#61a0e0; fill-rule:evenodd;"/></g><path d="M1281,729.67c14.02,0,25.39,11.36,25.39,25.38s-11.37,25.39-25.39,25.39-25.38-11.36-25.38-25.39,11.36-25.38,25.38-25.38Z" style="fill:#d2e5f7; fill-rule:evenodd;"/><path d="M1272.16,733.11c7.69,0,14.65,3.11,19.69,8.15,5.04,5.04,8.16,12,8.16,19.68s-3.12,14.65-8.16,19.69c-5.04,5.04-11.99,8.15-19.69,8.15s-14.64-3.12-19.68-8.15-8.16-12-8.16-19.69,3.12-14.64,8.16-19.68h0c5.04-5.04,12-8.16,19.68-8.16h0Zm16.22,11.62c-4.15-4.15-9.89-6.72-16.22-6.72s-12.06,2.57-16.2,6.72h-.01c-4.14,4.14-6.7,9.88-6.7,16.21s2.56,12.07,6.72,16.21c4.15,4.15,9.88,6.72,16.2,6.72s12.07-2.56,16.22-6.72c4.15-4.15,6.72-9.88,6.72-16.21s-2.57-12.06-6.72-16.21Z" style="fill:#fff; fill-rule:evenodd;"/><path d="M1344.67,729.67h352.4c14.31,0,26.02,11.7,26.02,26.02h0c0,14.31-11.71,26.02-26.02,26.02h-352.4c-14.31,0-26.01-11.7-26.01-26.02h0c0-14.31,11.7-26.02,26.01-26.02Z" style="fill:#d2e5f7; fill-rule:evenodd;"/><path d="M1335.84,733.11h352.4c7.83,0,14.95,3.2,20.11,8.36h0c5.16,5.16,8.36,12.28,8.36,20.11s-3.21,14.94-8.36,20.1h0c-5.16,5.16-12.28,8.37-20.11,8.37h-352.4c-7.83,0-14.95-3.21-20.11-8.36h0c-5.15-5.17-8.36-12.28-8.36-20.11s3.21-14.95,8.36-20.1h0c5.16-5.17,12.28-8.37,20.11-8.37h0Zm352.4,4.91h-352.4c-6.48,0-12.38,2.65-16.65,6.92-4.27,4.27-6.92,10.17-6.92,16.65s2.65,12.37,6.92,16.64c4.27,4.27,10.16,6.92,16.65,6.92h352.4c6.48,0,12.38-2.65,16.65-6.92,4.26-4.27,6.91-10.16,6.91-16.64s-2.65-12.38-6.91-16.65c-4.27-4.27-10.17-6.92-16.65-6.92Z" style="fill:#fff; fill-rule:evenodd;"/><path d="M1686.42,423.42c-14.01,0-25.38,11.36-25.38,25.38s11.37,25.39,25.38,25.39,25.39-11.36,25.39-25.39-11.36-25.38-25.39-25.38Z" style="fill:#d2e5f7; fill-rule:evenodd;"/><path d="M1695.26,426.86c-7.69,0-14.65,3.12-19.69,8.15-5.04,5.04-8.15,11.99-8.15,19.68s3.11,14.65,8.15,19.68c5.04,5.04,12,8.16,19.69,8.16s14.64-3.12,19.69-8.16c5.03-5.03,8.15-11.99,8.15-19.68s-3.12-14.64-8.16-19.68h0c-5.04-5.04-12-8.16-19.69-8.16h0Zm-16.21,11.62c4.15-4.15,9.88-6.72,16.21-6.72s12.07,2.57,16.21,6.72h.01c4.14,4.14,6.7,9.87,6.7,16.21s-2.57,12.07-6.72,16.22c-4.15,4.15-9.89,6.71-16.21,6.71s-12.07-2.57-16.21-6.71c-4.15-4.15-6.72-9.88-6.72-16.22s2.56-12.06,6.72-16.21Z" style="fill:#fff; fill-rule:evenodd;"/><path d="M1622.75,423.42h-352.4c-14.32,0-26.02,11.7-26.02,26.02h0c0,14.31,11.7,26.02,26.02,26.02h352.4c14.32,0,26.02-11.7,26.02-26.02h0c0-14.31-11.7-26.02-26.02-26.02Z" style="fill:#d2e5f7; fill-rule:evenodd;"/><path d="M1631.59,426.86h-352.4c-7.83,0-14.94,3.21-20.1,8.36h-.01c-5.15,5.16-8.35,12.29-8.35,20.11s3.21,14.94,8.35,20.1h.01c5.16,5.16,12.27,8.37,20.1,8.37h352.4c7.83,0,14.94-3.21,20.1-8.36h.01c5.15-5.17,8.36-12.28,8.36-20.11s-3.21-14.95-8.36-20.1h-.01c-5.16-5.16-12.27-8.37-20.1-8.37h0Zm-352.4,4.91h352.4c6.48,0,12.37,2.65,16.65,6.92,4.27,4.27,6.92,10.17,6.92,16.65s-2.65,12.38-6.92,16.65c-4.27,4.27-10.16,6.92-16.65,6.92h-352.4c-6.47,0-12.37-2.65-16.65-6.92-4.27-4.27-6.92-10.16-6.92-16.65s2.65-12.38,6.92-16.65c4.27-4.26,10.17-6.92,16.65-6.92Z" style="fill:#fff; fill-rule:evenodd;"/><path d="M1383.51,836.66h352.4c14.32,0,26.02,11.71,26.02,26.03h0c0,14.31-11.7,26.01-26.02,26.01h-352.4c-14.32,0-26.02-11.7-26.02-26.01h0c0-14.32,11.7-26.03,26.02-26.03Z" style="fill:#d2e5f7; fill-rule:evenodd;"/><path d="M1374.67,840.1h352.4c7.82,0,14.94,3.21,20.1,8.36h0c5.16,5.17,8.36,12.29,8.36,20.12s-3.21,14.94-8.36,20.1h0c-5.16,5.17-12.28,8.38-20.1,8.38h-352.4c-7.83,0-14.95-3.2-20.1-8.36h-.01c-5.15-5.17-8.36-12.28-8.36-20.11s3.21-14.94,8.36-20.1h.01c5.15-5.16,12.27-8.37,20.1-8.37h0Zm352.4,4.91h-352.4c-6.48,0-12.38,2.65-16.65,6.92-4.27,4.27-6.92,10.16-6.92,16.64s2.65,12.38,6.92,16.65c4.27,4.26,10.16,6.91,16.65,6.91h352.4c6.47,0,12.37-2.65,16.64-6.91,4.27-4.27,6.92-10.17,6.92-16.65s-2.65-12.37-6.92-16.64c-4.27-4.27-10.16-6.92-16.64-6.92Z" style="fill:#fff; fill-rule:evenodd;"/><path d="M1515.06,134.37h-352.4c-14.31,0-26.01,11.7-26.01,26.02h0c0,14.31,11.7,26.02,26.01,26.02h352.4c14.31,0,26.02-11.7,26.02-26.02h0c0-14.31-11.71-26.02-26.02-26.02Z" style="fill:#d2e5f7; fill-rule:evenodd;"/><path d="M1523.9,137.8h-352.4c-7.83,0-14.94,3.21-20.1,8.36h-.01c-5.15,5.17-8.36,12.29-8.36,20.12s3.2,14.94,8.36,20.1h.01c5.16,5.16,12.27,8.37,20.1,8.37h352.4c7.82,0,14.94-3.21,20.1-8.36h.01c5.15-5.17,8.36-12.28,8.36-20.11s-3.21-14.95-8.36-20.1h-.01c-5.16-5.16-12.28-8.37-20.1-8.37h0Zm-352.4,4.91h352.4c6.48,0,12.37,2.65,16.65,6.92,4.27,4.27,6.92,10.17,6.92,16.65s-2.65,12.37-6.92,16.65c-4.27,4.26-10.16,6.92-16.65,6.92h-352.4c-6.47,0-12.37-2.65-16.65-6.92-4.27-4.27-6.92-10.16-6.92-16.65s2.65-12.38,6.92-16.65c4.27-4.27,10.17-6.92,16.65-6.92Z" style="fill:#fff; fill-rule:evenodd;"/><path d="M378.42,775.81H26.02c-14.32,0-26.02,11.7-26.02,26.02H0c0,14.32,11.7,26.01,26.02,26.01H378.42c14.32,0,26.02-11.7,26.02-26.01h0c0-14.32-11.7-26.02-26.02-26.02Z" style="fill:#d2e5f7; fill-rule:evenodd;"/><path d="M387.25,779.25H34.85c-7.83,0-14.94,3.2-20.1,8.35h-.01c-5.15,5.16-8.36,12.29-8.36,20.12s3.21,14.94,8.36,20.09h.01c5.16,5.16,12.27,8.37,20.1,8.37H387.25c7.83,0,14.94-3.21,20.1-8.36h0c5.16-5.16,8.36-12.28,8.36-20.1s-3.2-14.96-8.36-20.11h0c-5.16-5.16-12.27-8.37-20.1-8.37h0Zm-352.4,4.91H387.25c6.47,0,12.37,2.65,16.65,6.92,4.26,4.27,6.92,10.17,6.92,16.65s-2.66,12.37-6.92,16.64c-4.27,4.27-10.17,6.92-16.65,6.92H34.85c-6.48,0-12.38-2.65-16.65-6.92-4.27-4.27-6.92-10.16-6.92-16.64s2.65-12.38,6.92-16.65c4.27-4.27,10.16-6.92,16.65-6.92Z" style="fill:#fff; fill-rule:evenodd;"/><path d="M908.45,1302.91h-352.4c-14.32,0-26.02,11.7-26.02,26.01h0c0,14.32,11.7,26.02,26.02,26.02h352.4c14.32,0,26.02-11.7,26.02-26.02h0c0-14.31-11.7-26.01-26.02-26.01Z" style="fill:#d2e5f7; fill-rule:evenodd;"/><path d="M917.29,1306.34h-352.4c-7.83,0-14.94,3.21-20.1,8.36h-.01c-5.15,5.16-8.35,12.29-8.35,20.12s3.21,14.94,8.35,20.1h.01c5.16,5.16,12.27,8.36,20.1,8.36h352.4c7.83,0,14.94-3.21,20.1-8.36h.01c5.15-5.16,8.36-12.29,8.36-20.11s-3.21-14.95-8.36-20.11h-.01c-5.16-5.16-12.27-8.37-20.1-8.37h0Zm-352.4,4.91h352.4c6.48,0,12.37,2.65,16.65,6.91,4.27,4.27,6.92,10.17,6.92,16.65s-2.65,12.37-6.92,16.64c-4.27,4.27-10.16,6.92-16.65,6.92h-352.4c-6.48,0-12.37-2.66-16.65-6.92-4.27-4.27-6.92-10.16-6.92-16.64s2.65-12.38,6.92-16.65c4.27-4.26,10.16-6.91,16.65-6.91Z" style="fill:#fff; fill-rule:evenodd;"/><g><polygon points="582.71 1275.79 572.91 1286.62 574.76 1276.58 582.91 1270.9 582.71 1275.79" style="fill:#8bbae9; fill-rule:evenodd;"/><polygon points="584.6 1352.42 574.8 1363.26 576.64 1353.21 584.8 1347.53 584.6 1352.42" style="fill:#8bbae9; fill-rule:evenodd;"/><path d="M671.58,1300.74c0,29.66-24.05,53.72-53.72,53.72h-35.15l88.87-54.26v.54Z" style="fill:#8bbae9; fill-rule:evenodd;"/><path d="M636.43,1300.2h35.16l-88.87,54.26v-.54c0-29.67,24.05-53.72,53.71-53.72Z" style="fill:#c3dffa; fill-rule:evenodd;"/><path d="M662.36,1227.65c0,26.59-21.55,48.14-48.14,48.14h-31.5l79.65-48.63v.48Z" style="fill:#8bbae9; fill-rule:evenodd;"/><path d="M630.85,1227.16h31.51l-79.65,48.63v-.49c0-26.58,21.55-48.14,48.14-48.14Z" style="fill:#c3dffa; fill-rule:evenodd;"/><rect x="568.72" y="1217.09" width="4.67" height="192.57" style="fill:#c3dffa;"/><rect x="573.4" y="1217.09" width="4.68" height="192.57" style="fill:#8bbae9;"/><polygon points="573.4 1533.09 511.14 1533.09 483.46 1406.55 573.4 1406.55 573.4 1533.09" style="fill:#a4d0fc; fill-rule:evenodd;"/><polygon points="573.4 1533.09 635.66 1533.09 663.34 1406.55 573.4 1406.55 573.4 1533.09" style="fill:#c3dffa; fill-rule:evenodd;"/><path d="M481.03,1390.01h92.36v16.54h-92.36c-3.76,0-6.8-3.3-6.8-7.37v-1.8c0-4.07,3.03-7.37,6.8-7.37Z" style="fill:#8bbae9; fill-rule:evenodd;"/><path d="M665.77,1390.01h-92.37v16.54h92.37c3.75,0,6.79-3.3,6.79-7.37v-1.8c0-4.07-3.04-7.37-6.79-7.37Z" style="fill:#8bbae9; fill-rule:evenodd;"/><path d="M573.4,1544.37h-52.37c-5.46,0-9.89-5-9.89-11.18v-.11h62.26v11.28Z" style="fill:#8bbae9; fill-rule:evenodd;"/><path d="M573.4,1544.37h52.38c5.46,0,9.89-5,9.89-11.18v-.11h-62.27v11.28Z" style="fill:#8bbae9; fill-rule:evenodd;"/><polygon points="563.11 1275.79 572.91 1286.62 571.06 1276.58 562.9 1270.9 563.11 1275.79" style="fill:#8bbae9; fill-rule:evenodd;"/><polygon points="561.22 1352.42 571.02 1363.26 569.17 1353.21 561.02 1347.53 561.22 1352.42" style="fill:#8bbae9; fill-rule:evenodd;"/><path d="M474.24,1300.74c0,29.66,24.05,53.72,53.71,53.72h35.16l-88.87-54.26v.54Z" style="fill:#8bbae9; fill-rule:evenodd;"/><path d="M509.39,1300.2h-35.15l88.87,54.26v-.54c0-29.67-24.05-53.72-53.72-53.72Z" style="fill:#c3dffa; fill-rule:evenodd;"/><path d="M483.46,1227.65c0,26.59,21.55,48.14,48.14,48.14h31.51l-79.65-48.63v.48Z" style="fill:#8bbae9; fill-rule:evenodd;"/><path d="M514.97,1227.16h-31.5l79.65,48.63v-.49c0-26.58-21.55-48.14-48.14-48.14Z" style="fill:#c3dffa; fill-rule:evenodd;"/><path d="M538.7,1142.81c-16.11,21.16-12.02,51.36,9.14,67.47l25.07,19.08-33.92-86.93-.29,.39Z" style="fill:#c3dffa; fill-rule:evenodd;"/><path d="M564.07,1161.51l-25.07-19.09,33.92,86.93,.29-.37c16.1-21.16,12.02-51.36-9.14-67.47Z" style="fill:#8bbae9; fill-rule:evenodd;"/></g></svg>