<?xml version="1.0" encoding="UTF-8"?><svg id="a" xmlns="http://www.w3.org/2000/svg" viewBox="0 0 2279.28 1545.79"><path d="M2279.28,817.9c-197.93-84.71-383.06,4.65-423.36,241.64,219.9,76.38,384.58-17.09,423.36-241.64Z" style="fill:#d2deec; fill-rule:evenodd;"/><path d="M2254.91,824.63c1.51-.87,3.44-.36,4.32,1.15,.88,1.51,.36,3.45-1.15,4.33l-142.64,82.67,80.36,50.51c1.48,.93,1.92,2.89,1,4.37-.94,1.47-2.89,1.92-4.37,.99l-83.17-52.27-39.61,22.96c-.53,.82-1.44,1.39-2.49,1.44l-30.37,17.6,80.48,69.54c1.33,1.14,1.47,3.14,.33,4.46-1.14,1.32-3.14,1.47-4.47,.32l-82.14-70.97-35.6,20.63c-.11,.07-.23,.15-.35,.21l-36.15,20.95,57.53,53.49c1.27,1.18,1.35,3.19,.16,4.47-1.19,1.28-3.19,1.34-4.47,.15l-58.94-54.79-95.68,55.45c-1.51,.88-3.44,.36-4.32-1.15-.88-1.51-.36-3.44,1.15-4.32l64.34-37.29-7.05-61.85c-.2-1.74,1.04-3.3,2.77-3.5,1.74-.2,3.31,1.04,3.5,2.78l6.73,59.12,65.53-37.98-17.58-107.32c-.28-1.73,.88-3.36,2.62-3.64,1.72-.28,3.35,.88,3.63,2.62l17.19,104.94,33.67-19.51,.14-.08,33.9-19.65-3.88-111.05c-.07-1.74,1.31-3.21,3.05-3.27,1.74-.06,3.22,1.31,3.27,3.05l3.77,107.66,37.68-21.85,.19-.11,40.29-23.36,6.66-81.97c.13-1.74,1.66-3.03,3.4-2.9,1.74,.14,3.04,1.67,2.9,3.4l-6.3,77.61,100.13-58.04Z" style="fill:#fff; fill-rule:evenodd;"/><path d="M2105.35,571.27c-213.09,30.73-324.62,203.41-235.64,426.73,227.52-49.27,319.45-214.82,235.64-426.73Z" style="fill:#c4d1eb; fill-rule:evenodd;"/><path d="M2088.05,589.7c.83-1.54,2.75-2.11,4.29-1.27,1.53,.83,2.11,2.76,1.27,4.29l-78.73,144.84,94.9,1.29c1.74,.03,3.14,1.46,3.12,3.21-.03,1.75-1.47,3.14-3.21,3.12l-98.23-1.33-21.87,40.23c-.03,.98-.5,1.94-1.37,2.53l-16.76,30.84,104.92,17.47c1.72,.28,2.89,1.92,2.6,3.64-.28,1.71-1.92,2.89-3.63,2.6l-107.08-17.83-19.65,36.15c-.06,.12-.12,.24-.19,.36l-19.96,36.71,76.97,15.71c1.71,.35,2.81,2.02,2.46,3.73-.35,1.72-2.02,2.81-3.73,2.46l-78.85-16.09-52.81,97.16c-.84,1.53-2.76,2.1-4.29,1.27-1.53-.83-2.1-2.76-1.27-4.29l35.51-65.33-38.22-49.14c-1.08-1.38-.83-3.36,.54-4.44,1.37-1.07,3.36-.83,4.43,.55l36.53,46.97,36.17-66.54-70.88-82.48c-1.14-1.33-1-3.33,.34-4.47,1.33-1.14,3.32-.99,4.47,.34l69.31,80.65,18.59-34.2,.07-.13,18.71-34.43-61.13-92.79c-.96-1.46-.56-3.42,.9-4.39,1.47-.95,3.43-.55,4.39,.91l59.27,89.96,20.8-38.28,.11-.19,22.24-40.92-37-73.45c-.79-1.55-.15-3.46,1.4-4.25,1.55-.79,3.46-.16,4.24,1.39l35.03,69.55,55.27-101.68Z" style="fill:#fff; fill-rule:evenodd;"/><path d="M550.43,954.17c.09,5.66,.42,10.42,.85,13.71-.43-3.29-.75-8.05-.85-13.71Z" style="fill:#ecebe8; fill-rule:evenodd;"/><path d="M377.88,534.92c-4.16-5.37-9.86-9.43-15.58-13-1.51-.95-3.72-.3-4.55,1.26-4.43,8.25-8.52,16.7-13.59,24.58-1.67,2.6-4.05,6.04-6.18,7.57-.13,.09-.67,.35-.91,.48-.03-.04-.06-.08-.1-.15-.42-.61-.66-1.28-.89-1.98-3.95-12.12,.85-25.11-2.27-37.31-1.65-6.47-5.74-13.2-10.4-17.91-5.06-5.13-11.84-7.51-14.99-14.41-.48-1.05-1.33-1.54-2.26-1.63h-.63c-1.13,.1-2.27,.74-2.91,1.65-7.29,10.49-17.5,21.32-19.45,34.45-1.73,11.64,4.57,21.37,11.28,30.21,3.26,4.27,6.45,8.62,8.97,13.38,1.39,2.62,3.79,7.35,1.26,9.92-2.64,2.68-6.67-2.11-8.76-4.27-4.28-4.43-7.9-9.47-11.62-14.37-6.14-8.1-15.85-20.42-27.42-18.18-5.09,.98-7.16,6.24-7.43,10.83-.42,7.29,3.15,15.14,6.73,21.24,8.14,13.87,24.63,17.89,35.24,29.09,2.44,2.57,9.12,11.39,5.29,15.01-1.34,1.26-4.45,.84-6.03,.59-3.9-.59-8.16-2.03-11.29-4.44-11.93-9.22-16.27-25.26-28.8-34-5.5-3.83-13.96-6.18-20.56-4.6-5.6,1.33-8.18,6.61-8.43,11.92-.3,6.43,2.63,13.08,5.87,18.45,3.75,6.22,8.91,11.41,15.22,15.01,12.63,7.19,28.62,8.09,37.02,21.32,1.14,1.81,2.39,4.17,1.82,6.38-.43,1.7-2.85,2.25-4.29,2.56-6.48,1.43-14.98-.96-20.67-3.99-6.87-3.66-11.87-10.29-17.15-15.82-5.57-5.85-11.77-10.62-19.58-13-5.67-1.72-12.64-1.43-16.3,3.86-3.36,4.87-2.68,11.41-1.31,16.82,1.81,7.15,5.71,13.78,10.5,19.33,5.17,6,13.33,9.4,20.64,11.85,7.61,2.55,15.51,4.1,23.02,6.94,1.99,.75,3.53,1.28,5.71,1.44,2.33,.16,4.68,.05,6.94,.64,1.92,.49,.65,2.52,0,3.91-1.56,3.35-6.55,3.21-9.69,3.46-2.98,.23-5.93,.98-8.9,1.01-3.42,.02-6.85-.62-10.22-1.14-6.68-1.02-13.75-2.19-20.37-.18-6.39,1.94-10.9,7.96-12.05,14.42-2.41,13.55,12.74,21.82,24,23.54,7.21,1.1,13.74-.46,20.08-4.05,7.81-4.41,13.95-10.79,22.97-11.89,.59,3.61-.71,6.5-3.91,9.2-4.41,3.72-10.51,5.72-15.83,7.7-10.49,3.9-25.83,7.36-31.45,18.22-.69,1.33-.54,2.97,.56,4.04,4.97,4.74,10.7,8.46,17.69,9.03,5.79,.46,11.45-2.23,16.15-5.35,8.4-5.57,15.64-14.24,25.08-18.16-1.3,2.39-3.48,4.02-6.13,6.07-4.72,3.66-7.13,8.75-8.44,14.46-1.98,8.67,1.02,18.05,11.2,18.1,5.56,.03,11.13-2.76,15.76-5.55,5.31-3.19,9.55-7.81,12.85-12.99,4.08-6.42,6.35-13.84,7.61-21.42,8.52,16.57,26.99,33.9,44.42,19.57,14.9-12.25-9.64-21.64-19.33-31.28,1.92,.78,3.77,1.76,5.54,2.66,5.06,2.59,9.97,5.46,15.24,7.6,9.84,4.01,20.88,3.63,26.77-6.5,5.09-8.74-5.44-12.79-11.92-14.74-5.27-1.59-15.15-3.3-18.97-8.6,13,1.43,27.48,3.03,38.69-4.47,5.1-3.4,11.2-9.97,11.81-16.37,.5-5.23-5.17-7.08-9.24-7.49-11.1-1.1-21.9,3.79-33.03,3.45-2.67-.09-5.33-.38-7.94-.96-.98-.22-1.98-.49-2.89-.9-.34-.16-.7-.46-.95-.64,.06-.15,.15-.34,.31-.53,.99-1.16,2.28-2,3.54-2.84,2.85-1.87,5.83-2.96,9.23-3.32,6.46-.69,12.92,.13,19.37-1,7.25-1.26,13.13-5.46,17.92-10.87,4.25-4.79,8.35-10.88,9.03-17.42,.7-6.75-3.4-11.34-9.44-13.64-16.88-6.46-26.76,10.98-38.81,18.9-3.19,2.1-6.98,3.48-10.61,4.59-1.49,.46-5.84,1.96-7.28,.8-.85-.69,2-5.28,2.55-6.15,2.43-3.93,5.52-6.67,9.5-8.95,10.07-5.76,22.36-7.55,30.29-16.66,5.21-5.98,9.31-16.11,4.22-23.4-5.41-7.73-17.45-5.64-24.26-1.14-8.55,5.66-12.86,17.11-23.15,19.85-.9-4.88,1-9.37,4.29-13.71,4.8-6.34,11-11.55,16.7-17.05,5.46-5.26,11.08-10.98,13.92-18.16,2.92-7.33,1.05-14.75-3.68-20.84Z" style="fill:#9db2d9; fill-rule:evenodd;"/><path d="M632.28,769.73c1.65-6.61,1.31-13.6,.57-20.29-.19-1.78-2.07-3.11-3.81-2.8-9.22,1.62-18.39,3.64-27.72,4.53-3.07,.3-7.25,.56-9.76-.16-.16-.05-.7-.31-.95-.41,.01-.05,.02-.1,.05-.18,.23-.71,.61-1.3,1.01-1.91,7.08-10.62,20.25-14.88,27.92-24.89,4.06-5.29,6.81-12.67,7.63-19.25,.89-7.14-1.44-13.94,2.04-20.69,1.27-2.46-1.35-4.67-3.61-4.53-12.76,.77-27.59-.55-39.1,6.04-10.21,5.86-13.95,16.82-16.74,27.56-1.35,5.2-2.78,10.41-4.96,15.34-1.19,2.7-3.43,7.51-7.01,7.12-3.75-.4-2.47-6.54-2.06-9.52,.83-6.1,2.55-12.08,4.1-18.02,2.56-9.84,6.22-25.09-2.69-32.79-3.93-3.39-9.34-1.76-13.12,.87-5.99,4.18-9.94,11.83-12.52,18.43-5.87,14.98,1.18,30.42-1.04,45.68-.51,3.51-3.3,14.22-8.52,13.45-1.82-.28-3.42-2.97-4.2-4.37-1.94-3.43-3.45-7.67-3.49-11.63-.14-15.08,9.76-28.41,8.88-43.66-.4-6.69-3.79-14.8-9.12-19.01-4.51-3.56-10.25-2.34-14.58,.76-5.24,3.74-8.64,10.16-10.86,16.04-2.56,6.79-3.46,14.05-2.37,21.24,2.17,14.37,11.35,27.49,6.17,42.27-.71,2.02-1.8,4.45-3.87,5.38-1.61,.71-3.53-.85-4.68-1.79-5.13-4.2-8.52-12.36-9.65-18.7-1.39-7.66,.73-15.69,1.81-23.25,1.15-8,1.06-15.83-1.92-23.43-2.15-5.52-6.69-10.82-13.12-10.42-5.89,.38-10.61,4.96-14.01,9.38-4.51,5.85-7.29,13.02-8.69,20.21-1.51,7.78,.87,16.29,3.47,23.56,2.7,7.55,6.38,14.71,8.79,22.37,.64,2.02,1.18,3.56,2.4,5.37,1.31,1.92,2.85,3.7,3.79,5.85,.8,1.81-1.57,2.06-3.07,2.41-3.59,.85-6.56-3.15-8.7-5.46-2.02-2.2-4.44-4.05-6.3-6.36-2.14-2.69-3.76-5.77-5.44-8.73-3.33-5.88-6.78-12.16-12.46-16.11-5.48-3.83-13-3.64-18.77-.54-12.14,6.5-9.26,23.52-3.65,33.42,3.59,6.34,8.87,10.51,15.61,13.27,8.3,3.4,17.11,4.29,23.55,10.7-2.47,2.68-5.54,3.46-9.65,2.62-5.65-1.15-11.01-4.71-15.85-7.66-9.54-5.83-21.75-15.73-33.76-13.43-1.46,.28-2.67,1.41-2.82,2.94-.65,6.85-.03,13.64,3.85,19.48,3.23,4.84,8.84,7.62,14.2,9.38,9.58,3.15,20.86,3.48,29.79,8.46-2.68,.46-5.31-.24-8.56-1.05-5.8-1.45-11.29-.19-16.59,2.31-8.04,3.82-13.55,11.99-7.29,20.01,3.42,4.39,9.06,7.03,14.11,8.95,5.79,2.19,12.05,2.66,18.16,2.04,7.57-.77,14.8-3.58,21.53-7.26-7.75,16.94-9.92,42.17,12.13,46.99,18.84,4.12,11.03-20.96,12.6-34.54,.57,1.98,.95,4.05,1.33,5.99,1.1,5.58,1.88,11.21,3.46,16.69,2.94,10.2,10.08,18.64,21.68,17,10-1.41,6.67-12.2,4.19-18.49-2.02-5.13-6.78-13.94-4.98-20.23,6.93,11.11,14.62,23.47,27.46,27.64,5.83,1.88,14.76,2.62,20.17-.86,4.41-2.85,2.37-8.45,.15-11.9-6.01-9.39-16.53-14.85-23.14-23.81-1.59-2.15-3.01-4.41-4.16-6.82-.44-.91-.84-1.86-1.08-2.83-.09-.36-.08-.84-.08-1.14,.15-.05,.35-.09,.6-.07,1.52,.05,2.99,.54,4.42,1.01,3.24,1.08,5.94,2.76,8.32,5.2,4.53,4.66,7.9,10.22,12.77,14.6,5.48,4.91,12.41,6.94,19.62,7.35,6.4,.38,13.72-.17,19.27-3.69,5.74-3.62,6.8-9.69,4.88-15.85-5.38-17.25-25.19-14.21-38.85-18.78-3.63-1.21-7.06-3.34-10.18-5.49-1.28-.88-5.15-3.38-5.13-5.23,.01-1.1,5.38-1.7,6.41-1.81,4.59-.52,8.65,.21,12.91,1.93,10.76,4.34,19.76,12.88,31.82,13.47,7.93,.4,18.42-2.65,20.99-11.17,2.72-9.03-6.37-17.19-14.12-19.75-9.73-3.23-21.4,.47-29.91-5.91,3.28-3.73,7.98-5.02,13.43-5.11,7.95-.15,15.87,1.49,23.72,2.56,7.52,1.04,15.5,1.91,22.88-.3,7.57-2.26,12.24-8.31,14.09-15.78Z" style="fill:#9db2d9; fill-rule:evenodd;"/><path d="M180.17,585.97c-6.34-2.46-13.31-3.01-20.05-3.12-1.79-.03-3.34,1.65-3.26,3.42,.45,9.35,1.29,18.71,1,28.08-.09,3.07-.36,7.26-1.4,9.66-.06,.14-.39,.65-.52,.88-.05-.02-.1-.03-.17-.06-.67-.32-1.22-.77-1.78-1.26-9.63-8.36-12.2-21.96-21.16-30.83-4.74-4.7-11.7-8.35-18.13-10-6.98-1.79-14.01-.34-20.27-4.63-2.28-1.57-4.8,.74-4.95,3-.85,12.75-4.04,27.3,1.05,39.54,4.51,10.88,14.91,15.98,25.21,20.09,4.98,2,9.97,4.08,14.58,6.86,2.53,1.53,7.02,4.36,6.18,7.86-.88,3.66-6.8,1.62-9.71,.84-5.95-1.59-11.65-4.06-17.35-6.34-9.44-3.77-24.1-9.34-32.86-1.48-3.86,3.46-2.93,9.05-.8,13.12,3.38,6.46,10.48,11.36,16.7,14.75,14.11,7.71,30.32,2.68,45.18,6.81,3.42,.95,13.68,5.07,12.26,10.15-.5,1.76-3.38,3-4.87,3.62-3.65,1.49-8.04,2.45-11.97,1.98-14.97-1.76-26.95-13.28-42.19-14.33-6.68-.46-15.15,1.89-20.01,6.64-4.11,4.03-3.61,9.87-1.09,14.56,3.05,5.67,8.98,9.86,14.53,12.81,6.42,3.4,13.51,5.21,20.77,5.04,14.54-.33,28.71-7.78,42.72-.76,1.91,.96,4.19,2.34,4.85,4.51,.5,1.69-1.3,3.4-2.37,4.41-4.82,4.57-13.35,6.89-19.76,7.22-7.78,.4-15.48-2.7-22.86-4.74-7.78-2.15-15.55-3.04-23.48-1.06-5.74,1.43-11.57,5.27-11.99,11.68-.38,5.9,3.57,11.16,7.53,15.09,5.23,5.21,11.98,8.88,18.94,11.18,7.52,2.48,16.27,1.19,23.8-.46,7.83-1.73,15.4-4.47,23.31-5.9,2.09-.37,3.69-.71,5.63-1.7,2.08-1.06,4.04-2.36,6.29-3.03,1.89-.56,1.84,1.82,2,3.36,.38,3.67-3.96,6.11-6.53,7.94-2.44,1.74-4.57,3.9-7.11,5.44-2.92,1.79-6.18,3-9.34,4.29-6.26,2.56-12.92,5.19-17.56,10.32-4.48,4.96-5.25,12.43-2.92,18.56,4.91,12.86,22.16,12.16,32.69,7.85,6.75-2.77,11.54-7.48,15.14-13.8,4.43-7.8,6.42-16.43,13.59-22.01,2.35,2.79,2.74,5.93,1.39,9.9-1.87,5.46-6.07,10.33-9.62,14.75-6.99,8.73-18.36,19.6-17.6,31.8,.09,1.49,1.06,2.83,2.56,3.17,6.71,1.51,13.53,1.76,19.81-1.36,5.21-2.59,8.68-7.81,11.11-12.9,4.34-9.1,6.09-20.25,12.16-28.47,.11,2.72-.92,5.23-2.13,8.35-2.17,5.57-1.62,11.17,.2,16.75,2.76,8.45,10.17,14.95,18.92,9.75,4.78-2.83,8.11-8.1,10.66-12.86,2.92-5.46,4.17-11.62,4.33-17.75,.2-7.61-1.68-15.14-4.49-22.29,15.82,9.83,40.58,15.18,48.16-6.08,6.48-18.16-19.4-13.59-32.67-16.87,2.04-.32,4.13-.43,6.11-.56,5.67-.38,11.35-.44,16.99-1.32,10.5-1.63,19.76-7.64,19.6-19.35-.13-10.1-11.25-8.16-17.81-6.5-5.33,1.37-14.69,4.96-20.69,2.39,11.89-5.46,25.12-11.54,30.88-23.75,2.62-5.54,4.48-14.31,1.7-20.12-2.27-4.73-8.07-3.41-11.78-1.66-10.08,4.78-16.82,14.52-26.54,19.95-2.33,1.3-4.76,2.42-7.29,3.26-.96,.32-1.95,.61-2.95,.72-.38,.04-.84-.03-1.14-.06-.03-.17-.04-.37,0-.61,.25-1.5,.91-2.89,1.57-4.26,1.47-3.07,3.47-5.54,6.2-7.59,5.19-3.9,11.15-6.54,16.1-10.82,5.56-4.8,8.45-11.44,9.77-18.53,1.18-6.3,1.57-13.63-1.22-19.58-2.88-6.16-8.75-7.97-15.12-6.85-17.79,3.15-17.29,23.19-23.55,36.18-1.65,3.43-4.2,6.58-6.73,9.4-1.04,1.15-4,4.68-5.83,4.43-1.09-.16-1-5.57-.98-6.59,.06-4.63,1.31-8.56,3.55-12.57,5.67-10.12,15.28-17.97,17.4-29.86,1.39-7.82-.3-18.61-8.42-22.25-8.62-3.83-17.87,4.15-21.39,11.52-4.42,9.24-2.22,21.28-9.65,28.93-3.27-3.73-3.95-8.55-3.36-13.96,.85-7.91,3.48-15.57,5.55-23.21,1.97-7.33,3.83-15.13,2.59-22.74-1.28-7.79-6.69-13.18-13.88-15.98Z" style="fill:#9db2d9; fill-rule:evenodd;"/><path d="M504.06,677.87c-.91-6.74-3.8-13.1-6.96-19.06-.84-1.58-3.07-2.12-4.57-1.19-7.97,4.92-15.75,10.16-24.1,14.45-2.74,1.41-6.53,3.2-9.13,3.44-.17,.02-.76-.02-1.04-.03,0-.05-.01-.1-.02-.17-.04-.74,.08-1.43,.24-2.17,2.67-12.46,13.33-21.29,16.76-33.43,1.82-6.42,1.65-14.29-.01-20.71-1.8-6.98-6.48-12.42-5.74-19.99,.27-2.75-2.98-3.83-5.02-2.88-11.58,5.41-25.84,9.67-34.11,20.05-7.33,9.2-6.77,20.78-5.39,31.78,.66,5.33,1.24,10.7,1.04,16.08-.11,2.97-.41,8.27-3.88,9.22-3.63,1-4.71-5.16-5.43-8.08-1.48-5.98-2.09-12.16-2.85-18.26-1.24-10.09-3.48-25.62-14.6-29.48-4.9-1.69-9.33,1.81-11.87,5.65-4.03,6.09-4.87,14.66-4.84,21.75,.08,16.08,12.32,27.83,15.89,42.84,.82,3.45,2.18,14.44-2.95,15.64-1.8,.42-4.28-1.51-5.52-2.52-3.07-2.47-6.04-5.84-7.53-9.51-5.7-13.95-1.41-30.01-7.86-43.85-2.83-6.07-8.98-12.36-15.49-14.31-5.51-1.65-10.39,1.61-13.27,6.08-3.48,5.42-4.29,12.63-4.18,18.92,.13,7.27,1.97,14.35,5.63,20.62,7.32,12.56,20.7,21.36,21.33,37.02,.09,2.15-.03,4.8-1.61,6.44-1.24,1.26-3.61,.51-5,.06-6.32-2.02-12.49-8.35-15.88-13.82-4.12-6.61-5.12-14.85-6.9-22.29-1.88-7.85-4.86-15.09-10.43-21.06-4.04-4.33-10.21-7.59-16.03-4.84-5.34,2.52-8.04,8.53-9.57,13.89-2.02,7.1-1.97,14.79-.61,21.98,1.47,7.79,6.81,14.82,11.91,20.6,5.3,6.03,11.36,11.33,16.43,17.56,1.34,1.65,2.41,2.88,4.22,4.1,1.93,1.31,4.02,2.39,5.69,4.04,1.41,1.4-.71,2.51-1.97,3.38-3.03,2.12-7.27-.51-10.11-1.88-2.7-1.28-5.62-2.11-8.21-3.59-2.97-1.7-5.62-3.96-8.27-6.1-5.27-4.23-10.8-8.8-17.53-10.38-6.5-1.53-13.42,1.42-17.65,6.42-8.89,10.53,.07,25.27,8.94,32.41,5.68,4.57,12.12,6.49,19.4,6.58,8.97,.1,17.48-2.34,25.83,1.24-1.31,3.4-3.86,5.27-7.99,5.99-5.68,1.01-11.97-.31-17.57-1.26-11.02-1.9-26.03-6.61-36.34-.03-1.25,.8-1.96,2.3-1.53,3.77,1.92,6.6,5,12.69,10.78,16.68,4.78,3.32,11.02,3.83,16.66,3.48,10.06-.61,20.67-4.47,30.81-3.13-2.33,1.42-5.02,1.74-8.34,2.19-5.92,.8-10.56,3.98-14.56,8.27-6.07,6.51-8.17,16.14,.61,21.28,4.8,2.81,11.01,3.18,16.42,3.11,6.18-.09,12.18-1.97,17.63-4.8,6.75-3.5,12.43-8.77,17.33-14.69-.94,18.59,6.34,42.85,28.62,39.2,19.03-3.12,2.51-23.56-1.04-36.75,1.26,1.63,2.38,3.4,3.46,5.07,3.07,4.78,5.88,9.72,9.36,14.23,6.5,8.41,16.25,13.61,26.42,7.81,8.78-5.01,1.71-13.8-2.93-18.74-3.77-4.01-11.44-10.45-12.1-16.95,10.53,7.76,22.25,16.41,35.73,15.55,6.11-.4,14.68-3.01,18.42-8.25,3.05-4.27-.91-8.71-4.24-11.11-9.05-6.51-20.85-7.71-30.29-13.59-2.27-1.41-4.43-3-6.39-4.8-.74-.68-1.47-1.41-2.05-2.23-.22-.32-.38-.76-.5-1.04,.13-.09,.3-.21,.53-.29,1.43-.51,2.98-.61,4.48-.69,3.41-.2,6.53,.35,9.65,1.76,5.93,2.65,11.11,6.59,17.25,8.85,6.91,2.54,14.1,1.87,20.95-.41,6.09-2.02,12.69-5.22,16.56-10.53,4-5.5,2.74-11.53-1.32-16.55-11.37-14.05-28.66-3.92-43.05-3.12-3.81,.22-7.79-.48-11.49-1.34-1.51-.36-6.03-1.24-6.69-2.97-.4-1.02,4.38-3.57,5.29-4.05,4.08-2.18,8.12-3,12.71-2.97,11.6,.06,23.13,4.68,34.56,.78,7.51-2.56,16.14-9.26,15.39-18.12-.81-9.4-12.27-13.64-20.41-13.16-10.24,.6-19.71,8.35-29.99,5.54,1.67-4.65,5.57-7.59,10.59-9.69,7.34-3.08,15.31-4.49,23-6.38,7.37-1.81,15.1-3.96,21.16-8.72,6.2-4.88,8.3-12.24,7.27-19.88Z" style="fill:#b0c2e4; fill-rule:evenodd;"/><path d="M454.78,613.31c-3.86,16.79-7.22,33.69-12.03,50.25-4.96,16.99-11.99,32.7-21.69,47.5-20.03,30.57-45.53,57.07-66.17,87.21-.86,1.25-.69,2.48-.03,3.38-3.98,7.51-6.29,16.06-7.94,24.22-2.89,14.23-3.76,28.83-4.34,43.31-.7,17.7-.56,35.29,.26,52.99,.97,20.79,2.34,41.6,1.46,62.42-.05,1.2-.11,2.42-.18,3.62-.24,4.31,6.44,4.29,6.68,0,1.14-20.32-.03-40.66-1.03-60.97-.89-18.1-1.3-36.12-.65-54.23,.5-14.01,1.2-28.04,3.59-41.88,2.18-12.57,5.66-26.81,15.15-36,1.35-1.31,1.21-2.96,.37-4.13,19.28-26.21,41.38-50.3,59.25-77.57,9.57-14.59,16.37-30.34,21.39-47.03,5.07-16.85,8.41-34.18,12.35-51.32,.97-4.19-5.48-5.97-6.44-1.78Z" style="fill:#b0c2e4; fill-rule:evenodd;"/><path d="M345.78,989.21c-3.63-32.48-18.57-61.55-34.05-89.8-15.34-28.01-31.52-56.41-36.22-88.49-.63-4.25-7.06-2.44-6.44,1.78,9.4,64.01,62.83,111.89,70.04,176.51,.47,4.23,7.16,4.28,6.68,0Z" style="fill:#b0c2e4; fill-rule:evenodd;"/><path d="M443.99,836.99c-28.59,12.47-56.59,31.56-75.79,56.42-10.47,13.58-16.63,29-20.49,45.18-1.45-16.86-4.55-33.57-7.78-50.16-7.53-38.73-13.32-77.66-16.97-116.96-1.45-15.6-2.52-31.23-3.25-46.87-.19-4.29-6.88-4.31-6.68,0,2,43.43,7,86.63,13.74,129.56,4.56,29.05,12.26,57.73,14.48,87.09-2.52-15.87-6.3-31.53-11.17-46.79-6.97-21.82-16.34-43.04-28.52-62.48,.07-.83-.17-1.71-.87-2.5-.83-.92-1.67-1.84-2.51-2.74-3.01-4.54-6.18-8.98-9.52-13.3-1.49-1.92-3.63-1.24-4.75,.32-5.11-3.92-10.57-7.41-16.45-10.46-13.74-7.1-30.82-11.71-37.41-27.27-1.67-3.96-7.43-.54-5.76,3.38,6.54,15.46,22.5,21.22,36.45,27.99,12.52,6.09,23.1,13.9,32.54,23.89,13.35,20.32,23.31,42.89,30.69,65.98,8.94,28.02,14.06,57.47,14.12,86.92,0,.16,.01,.32,.03,.46-.45,2.18,1.27,3.61,3.09,3.75,.89,3.03,6.27,2.61,6.57-1.21,2.44-31.6,6.05-64.77,26.28-90.53,18.69-23.78,45.77-41.91,73.29-53.92,3.94-1.71,.54-7.47-3.37-5.76Z" style="fill:#9db2d9; fill-rule:evenodd;"/><path d="M244.07,612.6c-6.07-3.07-12.95-4.28-19.65-5.05-1.78-.21-3.48,1.33-3.57,3.09-.46,9.35-.53,18.75-1.72,28.04-.39,3.05-1.06,7.19-2.32,9.47-.08,.14-.46,.61-.62,.84-.04-.03-.09-.05-.15-.09-.64-.37-1.14-.87-1.65-1.41-8.77-9.26-10.02-23.03-18.08-32.73-4.26-5.13-10.85-9.44-17.09-11.71-6.77-2.46-13.9-1.69-19.72-6.58-2.13-1.79-4.86,.28-5.23,2.52-2.08,12.6-6.65,26.77-2.77,39.46,3.44,11.26,13.3,17.34,23.15,22.43,4.77,2.48,9.53,5.03,13.85,8.25,2.38,1.77,6.58,5.01,5.39,8.41-1.23,3.57-6.92,.97-9.74-.09-5.76-2.16-11.2-5.15-16.66-7.98-9.03-4.68-23.09-11.62-32.56-4.65-4.18,3.08-3.79,8.72-2.07,12.98,2.74,6.77,9.34,12.32,15.2,16.31,13.3,9.04,29.92,5.58,44.31,11.14,3.3,1.28,13.12,6.37,11.21,11.29-.67,1.72-3.66,2.68-5.19,3.13-3.77,1.12-8.24,1.66-12.11,.82-14.73-3.2-25.54-15.82-40.6-18.33-6.61-1.11-15.26,.41-20.56,4.66-4.48,3.61-4.55,9.48-2.49,14.4,2.49,5.94,7.98,10.68,13.23,14.14,6.05,4.02,12.94,6.5,20.18,7.03,14.5,1.07,29.33-4.97,42.59,3.37,1.82,1.13,3.95,2.73,4.39,4.96,.34,1.73-1.61,3.26-2.78,4.16-5.23,4.07-13.94,5.57-20.37,5.27-7.78-.35-15.14-4.18-22.29-6.92-7.54-2.89-15.19-4.53-23.26-3.32-5.87,.87-12.04,4.12-13.06,10.47-.95,5.83,2.48,11.45,6.03,15.75,4.71,5.68,11.07,9.99,17.78,12.95,7.25,3.19,16.08,2.76,23.73,1.84,7.96-.96,15.77-2.95,23.77-3.62,2.11-.17,3.73-.35,5.77-1.15,2.17-.85,4.24-1.96,6.54-2.41,1.94-.37,1.66,2,1.68,3.54,.03,3.69-4.53,5.71-7.27,7.28-2.6,1.49-4.93,3.43-7.61,4.73-3.08,1.49-6.44,2.39-9.71,3.37-6.48,1.94-13.37,3.92-18.48,8.57-4.94,4.5-6.43,11.87-4.7,18.2,3.65,13.28,20.88,14.24,31.78,10.97,6.98-2.1,12.21-6.32,16.39-12.27,5.16-7.35,7.96-15.74,15.64-20.6,2.08,3,2.16,6.16,.43,9.98-2.39,5.26-7.04,9.69-10.99,13.75-7.8,8.02-20.17,17.75-20.59,29.95-.05,1.49,.78,2.92,2.24,3.4,6.53,2.15,13.3,3.07,19.86,.56,5.44-2.06,9.38-6.92,12.29-11.76,5.2-8.64,8.01-19.57,14.86-27.17-.15,2.72-1.41,5.13-2.93,8.11-2.69,5.33-2.69,10.96-1.41,16.69,1.94,8.68,8.68,15.86,17.89,11.54,5.02-2.35,8.85-7.28,11.85-11.78,3.42-5.15,5.27-11.15,6.02-17.25,.93-7.55-.2-15.22-2.31-22.61,14.8,11.3,38.92,19.02,48.52-1.4,8.2-17.46-17.99-15.4-30.88-19.96,2.06-.1,4.15-.02,6.13,.03,5.68,.17,11.35,.65,17.03,.33,10.61-.6,20.42-5.7,21.39-17.38,.83-10.06-10.41-9.21-17.1-8.18-5.45,.83-15.1,3.52-20.83,.38,12.36-4.31,26.13-9.07,33.04-20.66,3.13-5.26,5.83-13.81,3.63-19.86-1.8-4.92-7.7-4.18-11.56-2.78-10.49,3.79-18.15,12.83-28.35,17.29-2.45,1.07-4.97,1.94-7.57,2.54-.98,.22-2,.4-3,.43-.38,0-.83-.11-1.13-.18-.01-.15-.01-.36,.05-.6,.4-1.47,1.2-2.8,1.97-4.09,1.77-2.91,4-5.18,6.91-6.96,5.54-3.39,11.73-5.44,17.07-9.21,6.01-4.26,9.52-10.58,11.52-17.5,1.78-6.17,2.87-13.41,.67-19.61-2.27-6.42-7.94-8.79-14.38-8.27-18.01,1.41-19.45,21.4-26.93,33.72-1.98,3.27-4.81,6.15-7.61,8.72-1.14,1.05-4.43,4.27-6.23,3.85-1.07-.26-.46-5.64-.34-6.66,.5-4.59,2.13-8.39,4.74-12.16,6.62-9.53,16.94-16.42,20.2-28.04,2.14-7.64,1.49-18.55-6.24-22.95-8.2-4.66-18.18,2.39-22.39,9.38-5.3,8.78-4.28,20.97-12.4,27.86-2.9-4.01-3.11-8.88-2-14.21,1.62-7.8,4.98-15.16,7.77-22.58,2.67-7.1,5.27-14.68,4.78-22.37-.52-7.88-5.39-13.77-12.28-17.24Z" style="fill:#c4d1eb; fill-rule:evenodd;"/><polygon points="421.63 1185.55 277.55 1185.55 230.4 999.24 465.51 999.24 421.63 1185.55" style="fill:#b0c2e4; fill-rule:evenodd;"/><rect x="214.68" y="975.03" width="263.26" height="24.22" style="fill:#9db2d9;"/><polygon points="347.95 999.24 230.4 999.24 277.55 1185.55 347.95 1185.55 347.95 999.24" style="fill:#9db2d9; fill-rule:evenodd;"/><rect x="214.68" y="975.03" width="133.27" height="24.22" style="fill:#859ac6;"/><polygon points="421.63 1188.35 277.55 1188.35 230.4 1163.2 465.51 1163.2 421.63 1188.35" style="fill:#9db2d9; fill-rule:evenodd;"/><polygon points="347.95 1163.2 230.4 1163.2 277.55 1188.35 347.95 1188.35 347.95 1163.2" style="fill:#859ac6; fill-rule:evenodd;"/><path d="M1846.7,1545.79c131.64,0,239.01-15.26,239.01-33.97s-107.36-33.98-239.01-33.98-239,15.26-239,33.98,107.37,33.97,239,33.97Z" style="fill:#c4d1eb; fill-rule:evenodd;"/><path d="M602.9,273.19H1866.22c16.45,0,30.15,13.38,29.91,29.71l-11.31,779.37c-.24,16.31-13.48,29.71-29.91,29.71H614.2c-16.43,0-29.67-13.37-29.91-29.71l-11.31-779.37c-.24-16.34,13.46-29.71,29.91-29.71Z" style="fill:#b0c2e4; fill-rule:evenodd;"/><polygon points="612.62 312.68 623.64 1072.48 1845.48 1072.48 1856.51 312.68 612.62 312.68" style="fill:#fff; fill-rule:evenodd;"/><polygon points="639.44 339.11 649.7 1046.05 1819.43 1046.05 1829.68 339.11 639.44 339.11" style="fill:#c4d1eb; fill-rule:evenodd;"/><polygon points="1828.38 428.52 640.74 428.52 639.44 339.11 1829.68 339.11 1828.38 428.52" style="fill:#9db2d9; fill-rule:evenodd;"/><path d="M698.91,358.51h619.01c13.92,0,25.31,11.39,25.31,25.31h0c0,13.92-11.4,25.31-25.31,25.31H698.91c-13.92,0-25.31-11.39-25.31-25.31h0c0-13.92,11.39-25.31,25.31-25.31Z" style="fill:#fff; fill-rule:evenodd;"/><path d="M1753.98,409.13c13.94,0,25.32-11.37,25.32-25.31s-11.38-25.31-25.32-25.31-25.31,11.38-25.31,25.31,11.37,25.31,25.31,25.31Z" style="fill:#fff; fill-rule:evenodd;"/><polygon points="343.16 1301.51 754.49 1301.51 1714.64 1301.51 2125.96 1301.51 1891.82 1111.97 1714.64 1111.97 754.49 1111.97 577.31 1111.97 343.16 1301.51" style="fill:#c4d1eb; fill-rule:evenodd;"/><path d="M343.16,1301.51h1782.79c0,16.1-11.45,30.39-26.61,33.65H369.78c-15.16-3.26-26.61-17.55-26.61-33.65Z" style="fill:#9db2d9; fill-rule:evenodd;"/><polygon points="997.53 1231.52 1057.52 1231.52 1411.61 1231.52 1471.6 1231.52 1487.25 1260.29 1411.61 1260.29 1057.52 1260.29 981.87 1260.29 997.53 1231.52" style="fill:#fff; fill-rule:evenodd;"/><path d="M858.97,749.69l186.51-99.38c-.26-1.34-.39-2.72-.39-4.14,0-12.09,9.81-21.89,21.9-21.89s21.9,9.8,21.9,21.89c0,.72-.04,1.43-.11,2.12l73.17,30.74c4.02-4.78,10.03-7.82,16.76-7.82,2.62,0,5.13,.46,7.46,1.3l86.47-114.31c-2.58-3.6-4.1-8-4.1-12.77,0-12.09,9.8-21.9,21.9-21.9s21.9,9.8,21.9,21.9c0,3.62-.88,7.03-2.44,10.04l82.03,80.57c3.09-1.67,6.63-2.62,10.39-2.62,2.47,0,4.84,.41,7.06,1.17l86.94-119.56c-2.73-3.66-4.35-8.19-4.35-13.1,0-12.09,9.79-21.9,21.89-21.9s21.9,9.81,21.9,21.9c0,1.87-.24,3.69-.68,5.42l76.06,46.66c3.85-3.38,8.91-5.44,14.44-5.44,12.09,0,21.9,9.8,21.9,21.89s-9.81,21.9-21.9,21.9-21.9-9.8-21.9-21.9c0-1.88,.24-3.69,.69-5.42l-76.06-46.66c-3.85,3.38-8.91,5.44-14.44,5.44-2.48,0-4.84-.4-7.06-1.16l-86.94,119.56c2.74,3.65,4.35,8.19,4.35,13.1,0,12.09-9.81,21.9-21.89,21.9s-21.9-9.81-21.9-21.9c0-3.62,.88-7.04,2.43-10.04l-82.03-80.57c-3.09,1.67-6.63,2.62-10.39,2.62-2.62,0-5.13-.46-7.46-1.31l-86.48,114.32c2.59,3.59,4.12,8,4.12,12.76,0,12.09-9.81,21.9-21.9,21.9s-21.9-9.8-21.9-21.9c0-.71,.04-1.42,.11-2.11l-73.17-30.74c-4.02,4.78-10.03,7.82-16.76,7.82-6.01,0-11.46-2.43-15.42-6.36l-186.52,99.38c.26,1.34,.39,2.72,.39,4.13,0,12.1-9.8,21.9-21.89,21.9s-21.9-9.8-21.9-21.9,9.8-21.89,21.9-21.89c6.01,0,11.46,2.42,15.42,6.35Z" style="fill:#fff; fill-rule:evenodd;"/><path d="M806.91,856.64h73.27v139.66h-73.27v-139.66h0Zm782.02-205.34h73.26v345.01h-73.26v-345.01h0Zm-111.72-52.05h73.27v397.05h-73.27v-397.05h0Zm-111.72,169.76h73.27v227.29h-73.27v-227.29h0Zm-111.71-123.17h73.26v350.46h-73.26v-350.46h0Zm-111.72,142.42h73.27v208.04h-73.27v-208.04h0Zm-111.72-53.33h73.27v261.37h-73.27v-261.37h0Zm-111.71,76.59h73.26v184.78h-73.26v-184.78Z" style="fill:#fff; fill-rule:evenodd;"/><path d="M524.7,369.76H88.98c3.13-13.24,15.02-23.09,29.21-23.09,.67,0,1.37,.03,2.04,.08,6.88-16.84,23.43-28.72,42.76-28.72,8.46,0,16.37,2.28,23.18,6.24,8.31-27.39,33.76-47.34,63.87-47.34,6.12,0,12.06,.83,17.69,2.38,14.58-32.18,46.97-54.56,84.6-54.56,44.63,0,81.89,31.5,90.8,73.48,.75-.03,1.5-.05,2.26-.05,28.58,0,52.17,21.38,55.66,49.01,11.66,2.19,20.95,11.11,23.66,22.57Z" style="fill:#c4d1eb; fill-rule:evenodd;"/><path d="M1466.68,183.68h-435.73c3.13-13.24,15.02-23.09,29.21-23.09,.67,0,1.36,.03,2.04,.07,6.88-16.84,23.43-28.72,42.76-28.72,8.46,0,16.37,2.28,23.18,6.24,8.31-27.39,33.76-47.34,63.87-47.34,6.12,0,12.06,.83,17.69,2.38,14.58-32.18,46.97-54.56,84.6-54.56,44.63,0,81.89,31.5,90.8,73.48,.75-.03,1.5-.05,2.25-.05,28.59,0,52.18,21.38,55.67,49.01,11.66,2.19,20.95,11.11,23.66,22.57Z" style="fill:#c4d1eb; fill-rule:evenodd;"/><path d="M1987.49,246.15h-739.65c5.31-22.47,25.5-39.19,49.59-39.19,1.15,0,2.32,.05,3.46,.13,11.68-28.59,39.78-48.75,72.58-48.75,14.35,0,27.78,3.87,39.34,10.59,14.11-46.5,57.31-80.36,108.42-80.36,10.39,0,20.48,1.41,30.04,4.05C1576.02,37.99,1631.02,0,1694.89,0c75.74,0,139.01,53.47,154.13,124.72,1.29-.04,2.55-.09,3.83-.09,48.53,0,88.58,36.29,94.49,83.2,19.8,3.71,35.57,18.86,40.16,38.32Z" style="fill:#e0e8f5; fill-rule:evenodd;"/><path d="M1951.99,1468.8c2.06,2.37,2.31,5.01,1.29,7.84,0,.01,0,.02,0,.03-1.9,5.23-8.15,11.07-15.4,16.88-.93,.75-1.75,1.43-2.47,2.06-.19,.17-.38,.33-.56,.5-.14,.13-.28,.26-.43,.38-6.76,6.24-4.21,7.67-16.37,20.32-13.84,14.42-23.4,14.68-26.11,13.37-2.29-1.12,2.37-8.77,7.55-17.36,.25-.42,.49-.83,.75-1.25,.69-1.14,1.37-2.31,2.05-3.45,6.06-10.35,4.51-15.21,3.07-30.59-1.17-12.51-19.47-69.89-19.47-69.89l26.56-4.57s7.99,45.69,16.8,52.73c4.72,3.75,9.99,3.8,14.52,6.59,.32,.19,.65,.38,.94,.6,2.58,1.7,5.21,3.46,7.28,5.83Z" style="fill:#f9af79; fill-rule:evenodd;"/><path d="M1951.99,1468.8c2.06,2.37,2.31,5.01,1.29,7.84,0,.01,0,.02,0,.03-2.33,5.23-8.41,11.03-15.42,16.84-.92,.76-1.73,1.45-2.44,2.11-.19,.17-.38,.33-.56,.5-.14,.13-.28,.26-.43,.38-6.76,6.24-4.21,7.67-16.37,20.32-13.84,14.42-23.4,14.68-26.11,13.37-2.29-1.12,2.37-8.77,7.55-17.36,2.69-.99,15.22-6.09,24.69-18.2,8.35-10.65,13.91-24.33,19.59-32.25,.32,.19,.65,.38,.94,.6,2.58,1.7,5.21,3.46,7.28,5.83Z" style="fill:#172b57; fill-rule:evenodd;"/><path d="M1737.85,1452.21c-1.63,8.19-13.33,6.84-26.38,3.64-13.05-3.19-9.95,.61-28.53-1.46-18.58-2.04-24.2-8.98-24.78-11.74-.5-2.46,8.68-3.31,18.53-4.45,1.25-.13,2.48-.29,3.73-.44,11.11-1.39,19.25-8.57,29.35-14.46,9.57-5.58,23.84-28.32,23.84-28.32l25.48,2.03s-13.37,20.3-18.54,29.14c-3.05,5.19-2.89,12.06-2.5,17.36,.19,2.88,.38,5.82-.2,8.71Z" style="fill:#f9af79; fill-rule:evenodd;"/><path d="M1711.47,1455.85c-13.05-3.19-9.95,.61-28.53-1.46-18.58-2.04-24.2-8.98-24.78-11.74-.5-2.46,8.68-3.31,18.53-4.45l.09,.19s11.15,7.91,26.61,8.27c12.61,.3,25.96-3.31,34.66-3.16,.19,2.88,.38,5.82-.2,8.71-1.63,8.19-13.33,6.84-26.38,3.64Z" style="fill:#172b57; fill-rule:evenodd;"/><path d="M1794.55,1077.97s-6.07-14.87-12.75-15.48c-6.68-.61-27.92-3.95-29.44-.91-1.51,3.03,0,13.96,4.56,17.91,4.55,3.95,32.78,10.32,32.78,10.32l4.86-11.84Z" style="fill:#f9af79; fill-rule:evenodd;"/><path d="M1835.49,1289.28l54.92,147.78s8.44,.82,16.52-1.52c7.44-2.14,15.98-7.77,15.98-7.77,0,0-13.62-141.9-38.61-171.41-24.97-29.52-48.81,32.91-48.81,32.91Z" style="fill:#172b57; fill-rule:evenodd;"/><path d="M2052.68,1229.5s-157.78-53.35-192.97-42c-35.2,11.35-140.85,221.57-140.85,221.57,0,0,2.38,3.17,8.89,5.61,6.05,2.27,20.71,2.13,20.71,2.13,0,0,95.35-81.75,106.7-105.58,11.37-23.83,15.9-46.53,27.24-44.27,11.36,2.27,146.44,55.63,177.1,23.84,30.65-31.78,22.62-73.07,22.62-73.07l-29.44,11.77Z" style="fill:#223f81; fill-rule:evenodd;"/><path d="M1956.26,981.29c-2.52-5.2-5.33-14.44-6.72-30.91,.21,1.63,3.07,22.41,11.05,34.17,32.82,21.54,95.71,93.49,94.46,107.12,0,0,22.17-37.58,22.54-37.8,0,0,40.87-51.96-7.58-81.73-24.61-15.14-24.48-34.55-23.45-51.42s-6.72-89.48-56.03-70.48c0,0-7.92-3.52-11.47-2.99,0,0,2.89,.55,4.37,2.07-5.72-.34-13.9,.09-20.71,3.96-18.09,10.27-34.26,102.44-6.48,128.01Z" style="fill:#20386f; fill-rule:evenodd;"/><path d="M1962.54,985.63c-.17,.07,15.83,8.38,27.88,5.09,11.32-3.09,18.72-17.77,18.57-17.8-4.8-.96-6.18-7.55-6.07-35.87l-2.17,.42-36.46,7.22s.82,11.46,.85,22.28c.03,9.08-.52,17.68-2.6,18.66Z" style="fill:#f9af79; fill-rule:evenodd;"/><path d="M1964.29,944.69s.82,11.46,.85,22.28c20.41-.57,31.19-19.18,35.61-29.5l-36.46,7.22Z" style="fill:#ec9355; fill-rule:evenodd;"/><path d="M2004.5,933.49s10.7-16.89,13.27-31.34c1.82-10.31-3.42-48.54-41.84-43.03,0,0-11.16,1.1-21.65,8.18-8.34,5.64-20.38,17.8-6.92,51.15l3.5,11.27,53.64,3.77Z" style="fill:#20386f; fill-rule:evenodd;"/><path d="M1957.46,954.92s48.28,.8,48.31-29.27c.03-30.07,6.29-50.22-24.53-52-30.82-1.78-36.82,9.69-39.27,19.72-2.46,10.03,2.94,60.57,15.49,61.54Z" style="fill:#f9af79; fill-rule:evenodd;"/><path d="M1959.26,872.91s13.22,35.28,33.49,40.5c20.3,5.21,29.08-.21,29.08-.21,0,0-15.55-12.36-18.78-33.94,0,0-33.84-23.13-43.8-6.34Z" style="fill:#20386f; fill-rule:evenodd;"/><path d="M1962.54,875.78s-9.88,7.88-12.28,15.53c-2.42,7.66-3.49,23.42-8.09,22.88,0,0-9.97-23.97,1.22-37.54,11.87-14.38,19.14-.87,19.14-.87Z" style="fill:#20386f; fill-rule:evenodd;"/><path d="M2089.7,1230.33c-2.6,7.23-10.58,9.09-21.28,7.84-20.42-2.38-50.72-16.09-72.56-25.56-33.3-14.44-48.44-.88-59.04-10.06-10.59-9.19,12.11-29.6-7.57-124.46-6.67-32.16,35.62-101.13,35.62-101.13,0,0,3.65,19.97,44.12-4.04,1.43-.85,17.36,22.72,32.7,51.8,16.9,32.07,33.1,70.81,28.33,90.78-9.07,38.05,27.26,93.83,19.68,114.83Z" style="fill:#6d96ce; fill-rule:evenodd;"/><path d="M1964.87,976.96l-24.94,102.32s-3.11,5.52-7.98,13.39c-11.42,18.46-32.56,49.83-46.09,53.02-6.67,1.57-20.87-3.99-36.58-11.91-29.71-15.02-64.83-38.54-64.83-38.54-2.26-13.62,9.59-24.73,9.59-24.73,0,0,71.15,26.74,78.21,27.24,15.41,1.1,31.08-73.23,45.47-98.01,10.41-17.91,47.16-22.79,47.16-22.79Z" style="fill:#6d96ce; fill-rule:evenodd;"/><path d="M2089.7,1230.33c-2.6,7.23-10.58,9.09-21.28,7.84-14.13-6.16-75.14-29.79-74.45-45.81,1.01-23.71,11.72-24.46,4.15-53.72-6.07-23.51,50.3-67.19,59.29-76.7,16.91,32.08,17.37,33.59,12.61,53.56-9.07,38.05,27.26,93.83,19.68,114.83Z" style="fill:#466fb5; fill-rule:evenodd;"/><path d="M1931.96,1092.67c-11.42,18.46-32.56,49.83-46.09,53.02-6.67,1.57-20.87-3.99-36.58-11.91,11.47,2.95,22.6,2.87,33.43,1.82,11.74-1.13,15.14-15.51,33.68-37.08,12.03-13.99,14.98-10.47,15.57-5.85Z" style="fill:#466fb5; fill-rule:evenodd;"/><path d="M1988.48,1138.06s-10.22-7.94-19.88-6.05c-9.65,1.89-14.37,8.52-13.98,11.54,.37,3.03,5.47,11.54,12.85,12.3,7.39,.75,28.39-4.55,28.39-4.55l-7.38-13.25Z" style="fill:#f9af79; fill-rule:evenodd;"/><path d="M2008.99,972.91s39.35,2.42,52.96,21.42c19.19,26.75,52.48,135.91,43.4,160.89l-119.7-.51s-2.91-13.55,1.12-20.11c4.04-6.57,69.62-17.16,72.66-20.19,3.03-3.03-37.83-59.04-37.83-68.12s-12.61-73.38-12.61-73.38Z" style="fill:#6d96ce; fill-rule:evenodd;"/><polygon points="1978.2 1182.77 1833.29 1182.77 1807.17 1091.67 1951.87 1091.67 1978.2 1182.77" style="fill:#d2deec; fill-rule:evenodd;"/><rect x="1833.78" y="1179.23" width="189.46" height="3.55" style="fill:#859ac6;"/><path d="M1879.3,1135.74c-.92-3.21,.94-5.8,4.14-5.8s6.53,2.6,7.45,5.8c.92,3.2-.92,5.8-4.13,5.8s-6.53-2.6-7.46-5.8Z" style="fill:#859ac6; fill-rule:evenodd;"/><path d="M657.58,493.19c-7.75,4.46-10.12,11.8-15.37,14.52-15.22,1.44-30.22,2.61-37.36,7.56-27.93,33.76-50.49,63.62-67.69,89.55-6.96,14.37-5.56,28.25,4.2,41.63,11.97-11.05,24.94-13.84,38.93-8.38-.46-5.85-2.66-11.93-6.59-18.27,20.09-17.63,36.57-33.81,49.42-48.51-2.37,19.29,4.61,46.75,20.97,82.36,56.91,3.71,89.55,2.81,97.94-2.7,2.77-15.92,4.96-33.29,6.59-52.11,13.06,11.69,23.65,22.08,31.74,31.15,6.13,2.02,12.73,2.42,19.77,1.2,4.97-11.68,9.96-22.26,14.97-31.74-3.46-3.12-9.44-5.62-17.97-7.49-23.23-33.14-43.3-59.89-60.19-80.26-13.11-3.06-22.89-4.65-29.35-4.8-2.76-3.26-6.85-6.05-12.28-8.38,3.16,17.4,4.36,38.27,4.19,53.01-24.86-18.22-38.83-42.01-41.93-58.33Z" style="fill:#6d96ce; fill-rule:evenodd;"/><path d="M615.37,802.94c-11.8-73.1-2.23-122.87,28.71-149.3,48.06,3.13,78.81,2.97,92.27-.46,.15,5.15,.48,11.21,1.57,19.18,8.38,61.62,18.38,157.29,17.02,251.28-33.92,11.91-87.03,11.41-159.33-1.5,8.25-36.56,14.85-76.29,19.76-119.19Z" style="fill:#20386f; fill-rule:evenodd;"/><path d="M707.59,506.89c2.93,8.58,4.49,15.67,4.68,21.26-3.35-2.66-5.82-4.48-7.41-5.47-1.22,13.78-3.01,23.39-5.35,28.84,.17-14.75-1.03-35.61-4.19-53.01,5.42,2.33,9.51,5.13,12.28,8.38Z" style="fill:#466fb5; fill-rule:evenodd;"/><path d="M657.58,493.19c3.09,16.32,17.07,40.11,41.93,58.33-14.85-5.28-31.09-18.18-40.4-35.35-1.53,5.81-3.48,12.6-5.84,20.37-6.46-8.01-10.15-17.62-11.07-28.83,5.25-2.72,7.62-10.06,15.37-14.52Z" style="fill:#466fb5; fill-rule:evenodd;"/><path d="M578.6,637.44c9.92,20.26,21.51,40.46,33.07,56.53,2.65-2.84,5.21-9,8.96-11.36,1.49-.94,3.87,1.49,5.46,.74,7.57-3.56,15.98-4.6,22.76,.48,1.7,1.28,2.61,3.77,2.86,9.69-.28,8.12-7.08,9.67-16.55,5.84-12.66,13.81-21.09,18.3-27.99,13.47-31.25-28.04-51.93-51.3-62.06-69.76,10.42-7.92,21.58-9.8,33.49-5.64Z" style="fill:#f9af79; fill-rule:evenodd;"/><path d="M900.85,633.97c-46.82,1.55-80.27,.32-100.33-3.71,4.84-11.32,9.7-21.59,14.58-30.82,37.33,5.54,69.31,9.61,95.9,12.22,9.57-6.55,17.55-9.24,23.96-8.09,1.77,4.04-.13,6.98-5.68,8.84-1.49,2.08-2.09,4.04-1.8,5.84,13.84,5.91,26.03,9.56,36.54,10.93,1.24,12.47-6.47,20.4-23.11,23.79-16.97-4.39-30.32-10.72-40.06-19Z" style="fill:#f9af79; fill-rule:evenodd;"/><path d="M610.48,1128.36c8.72,32.56,5.78,49.9-10.67,52.27-21.84,1.57-27.76-20-19.19-64.46-.19,2.42-.34,4.66-.43,6.67-2.41,46.57,33.71,36.15,31.2,14.71-.35-2.99-.64-6.05-.91-9.18Z" style="fill:#0e2952; fill-rule:evenodd;"/><path d="M611.39,1137.55c2.52,21.44-33.61,31.86-31.2-14.71,.09-2,.24-4.25,.43-6.67,1.48-18.98,5.49-49.36,5.19-68.51-.77-48.94,3.58-90.59,13.04-124.96,17.52,3.07,33.89,5.39,49.12,6.97-8.23,28.6-15.37,54.76-21.42,78.49-7.42,29.14-21.26,72.25-17.79,101.83,.74,6.34,1.2,12.48,1.72,18.37,.27,3.13,.56,6.19,.91,9.18Z" style="fill:#f9af79; fill-rule:evenodd;"/><path d="M755.86,1143.16c-12.6,.68-1.1,10.48-9.3,12.69-17.93-9.81-27.87-36.55-35.03-48.36-3.77-6.21-6.5,1.7-8.35,10.54-3.99,19-3.87,44.07,.64,51.88,3.28-5.71,6.09-23.31,9.09-34.06,17.6,15.66,13.76,32.92,24.2,38.8,25.04,2.77,38.57,3.46,57.59,3.88,4.18-16.16-28.89-10.7-38.83-35.36Z" style="fill:#0e2952; fill-rule:evenodd;"/><path d="M746.52,926.23c-2.39,93.92-11.05,177.62,4.61,218.1-4.36,2.81,2.15,9.71-4.57,11.52-17.94-9.81-27.87-36.55-35.03-48.36-.04-.07-.08-.13-.12-.19,1-2.5,1.72-5.37,2.15-8.61-.31-77.91-19.79-125.95-16.02-166.52,18.96-.28,35.28-2.26,48.98-5.94Z" style="fill:#f9af79; fill-rule:evenodd;"/><path d="M782.05,630.49c6.3-11.97,12.61-24.51,18.92-37.61,6.51,1.74,11.22,3.93,14.13,6.56-4.88,9.23-9.74,19.5-14.58,30.82-.13,.3-.26,.61-.39,.91-6.4,1.11-12.42,.88-18.08-.69Z" style="fill:#466fb5; fill-rule:evenodd;"/><path d="M576.57,625.01c2.15,4.48,3.39,8.83,3.72,13.06-.56-.22-1.12-.42-1.68-.62-11.91-4.16-23.07-2.28-33.49,5.64,.02,.05,.05,.09,.07,.13-1.28,.98-2.56,2.06-3.83,3.23-3.57-4.9-6.02-9.86-7.35-14.89,15.89-9.25,30.08-11.43,42.56-6.55Z" style="fill:#466fb5; fill-rule:evenodd;"/><path d="M695.69,488.34c-1.59,5.99-1.43,11.09,.48,15.31,2.52,16.24,3.48,34.56,3.33,47.88-23.73-17.39-37.54-39.86-41.44-56.05,3.14-5.07,4.43-10.98,3.86-17.75,.59-3.17-1.22-9.06-5.39-17.67-14.2-2.46-17.73-14.38-11.81-23.85,6.64-2.34,10.21,3.09,11.96,12.92,3.79-.56,2.33-6.6,1.95-9.44-1.78-8.19-.29-12.61,2.7-20.36,17.05,11.99,31.67,12.36,54.95,5.6-.68,5.58-1.18,10.98-1.49,16.17,6.38,15.55-3.38,41.98-19.09,47.25Z" style="fill:#f9af79; fill-rule:evenodd;"/><path d="M716.28,424.92c-23.27,6.75-37.9,6.38-54.95-5.6-2.99,7.76-4.48,12.18-2.7,20.36,.38,2.84,1.84,8.88-1.95,9.44-1.75-9.83-5.32-15.26-11.96-12.92-5.91,9.47-2.39,21.39,11.81,23.85,4.18,8.61,5.98,14.5,5.39,17.67,.57,6.77-.72,12.68-3.86,17.75-.19-.78-.35-1.53-.49-2.27-7.75,4.46-10.12,11.8-15.37,14.52-15.22,1.44-30.22,2.61-37.36,7.56-2.06,2.5-4.1,4.96-6.1,7.42-4.86-11.4-7.41-19.78-6.56-23.48,3.28-14.15,18.18-7.05,17.92-15.42-.4-13.04,18.01-23.27,15.57-36.29-5.01-26.62,5.39-34.7,5.45-36.73,.62-20.18,12.69-20.71,24.71-27.51,21.33-12.07,39.87,2.7,45.92,3.09,30.82,2.02,13.75,15.27,27.55,27.2,11.37,9.83,5.99,17.29,4.82,23.21-.52,2.66-3,13.62,4.87,19.17,11.54,8.13,.98,25.19,7.79,27.26,26.19,7.93,14.38,15.84,13.67,34.15-.23,5.85-2.99,11.11-6.67,15.4-5.92-7.64-11.53-14.66-16.83-21.05-13.11-3.06-22.89-4.65-29.35-4.8-2.76-3.26-6.85-6.05-12.28-8.38,.3,1.68,.59,3.4,.86,5.14-1.92-4.22-2.08-9.32-.48-15.31,15.71-5.27,25.47-31.7,19.09-47.25,.32-5.19,.81-10.59,1.49-16.17Z" style="fill:#20386f; fill-rule:evenodd;"/><path d="M695.69,488.34c-9.51,1.07-13.83,1.01-22.64-2.5,5.16,5.57,12.34,8.62,21.57,9.16,.08-2.08,.43-4.31,1.06-6.66Z" style="fill:#ed7d57; fill-rule:evenodd;"/><path d="M288.64,1545.79c131.64,0,239.01-15.26,239.01-33.97s-107.36-33.98-239.01-33.98-239.01,15.26-239.01,33.98,107.37,33.97,239.01,33.97Z" style="fill:#c4d1eb; fill-rule:evenodd;"/><path d="M489.17,874.17c2.36-.81,10.28-2.66,19.51-5.76,9.48,3.86,21.98,2.72,37.48-3.42,5.91-9.36,6.44-18.88,1.61-28.56-12.23,5.83-22.96,8.07-32.19,6.73,11.48-7.56,13.25-12.05,5.33-13.47-.76,1.78-2.41,3.25-4.93,4.41-7.98,1.29-13.7,6.69-17.13,16.21-4.26,1.15-8.66,2.2-10.92,2.91,2.31,5.48,2.76,12.07,1.23,20.96Z" style="fill:#fab688; fill-rule:evenodd;"/><path d="M271.81,634.53c-29.53-3.83-51.84-1.8-61.38,12.37,1.2,8.64,3.8,19.88,7.8,33.72-1.72,3.3-4.27,5.01-7.63,5.15-4.2-8.2-7.72-13.1-10.55-14.68-14.07,6.31-11.42,16.03,7.94,29.18,1.14,4.53,2.23,8.28,3.28,11.25-17.42-3.91-31.99-19.48-34.04-26.21-20.31-40.04,2.34-56.94,14.46-63.11,5.35-39.65,62.92-4.61,91.77-23.72,11.46,15.84-2.71,35.7-11.65,36.06Z" style="fill:#20386f; fill-rule:evenodd;"/><path d="M180.64,814.2c18.56,22.28,34.13,38.38,46.72,48.31-11.48-40.74-23.76-84.61-36.86-131.6-4.61,3.89-8.32,7.75-11.11,11.58-1.04,19.06-1.29,33.6-.76,43.62,6.8,5.37,12.26,8.74,16.41,10.1-6.26,5.68-11.06,11.67-14.39,17.99Z" style="fill:#20386f; fill-rule:evenodd;"/><path d="M296.88,803.36c-9.02,19.99-19.16,38.15-30.42,54.47,3.32-49.78,5-91.72,5.05-125.84,5.05,2.83,8.82,5.54,11.59,8.49,.54,.63,1.05,1.25,1.53,1.88,5.33,19.04,8.79,33.95,10.36,44.73-4.98,2.28-9.19,4.25-12.63,5.91,4.67,3.15,9.51,6.6,14.52,10.36Z" style="fill:#20386f; fill-rule:evenodd;"/><path d="M179.38,742.48c-28.62,16.6-52.03,31.3-70.21,44.11-12.27,46.77-18.92,97.29-19.95,151.57,1.68,62.38,7.88,107.52,15.25,131.84,10.74,.47,22.16-.58,26.41-4.67,2.33-54.87,2.91-99.39,1.76-133.57,7.86-18.03,14.75-31.5,20.7-40.42,2.6,18.57,6.18,34.67,7.02,51.27-3.03,33.98-4.51,74.56-13.6,121.74,11.32,10.84,36.35,17.31,75.09,19.41,7.26-89.34,9.09-163.09,5.49-221.26-12.59-9.93-28.16-26.03-46.72-48.31,3.33-6.32,8.13-12.31,14.39-17.99-4.14-1.36-9.61-4.73-16.41-10.1-.52-10.02-.28-24.57,.76-43.62Z" style="fill:#223f81; fill-rule:evenodd;"/><path d="M266.47,857.83c11.09,118.46,15.74,195.48,22.27,222.18,18.57-2.04,32.88-10.74,41.52-19.34-2.32-67.4-10.19-110.44-13.51-149.84,6-64.69,18.28-124.17,5.04-151.82-14.22-9.57-26.6-15.12-37.16-16.65,5.33,19.04,8.79,33.95,10.36,44.73-4.98,2.28-9.19,4.25-12.63,5.91,4.67,3.15,9.51,6.6,14.52,10.36-9.02,19.99-19.16,38.15-30.41,54.47Z" style="fill:#223f81; fill-rule:evenodd;"/><path d="M338.58,778.26c-5.31-6.5-10.9-12.92-16.78-19.25,9.18,19.16,6.09,53.61,1.33,94.49,9.26,11.48,29.17,31.96,46.22,44.71,34.99,2.02,72.47-6.1,130.26-23.59,2.33-6,1.59-15.98-.75-24.32-56.28,3.25-90.67,2.7-113.24,8.51-14.62-36.43-33.16-58.02-47.04-80.55Z" style="fill:#223f81; fill-rule:evenodd;"/><path d="M227.11,761.17c-10.19-13.36-18.66-25.55-27.94-33.16,1-4.08,1.67-7.12,2.79-10.2,.52-1.47,3.69-3.18,7.88-3.96-.38,.67-1.22,3.5-.53,3.94,.17,.11,.32,.27,.48,.4,9.86,7.97,20.27,14.85,33.04,20.9-6.1,7.1-10.33,14.56-15.72,22.08Z" style="fill:#c4d1eb; fill-rule:evenodd;"/><path d="M267.12,731.57c.26,8.69,.05,15.82-.64,21.39-2.09-6.4-5.96-11.62-11.59-15.66-.86-7.33-1.44-14.19-1.75-20.61,6.13,2.3,10.8,7.26,13.98,14.88Z" style="fill:#c4d1eb; fill-rule:evenodd;"/><path d="M279.31,1003.26c-3.36-37.39-7.3-86.24-12.85-145.43,3.26-48.92,4.94-90.26,5.04-124.05-1.35-.5-2.8-.96-4.37-1.38,.22,8.31,0,15.16-.66,20.56-2.09-6.4-5.96-11.62-11.59-15.66-1.75,3.38-2.29,7.04-5.1,11.17-3.03-3.14-5.88-6.15-7.76-8.45-5.68,6.82-9.77,13.96-14.93,21.15-10.08-13.21-18.48-25.29-27.65-32.92-3.13,1.61-5.94,3.15-8.42,4.62,12.89,46.26,25,89.47,36.31,129.65,2.48,40.05,2.39,87.49-.28,142.31,4.54,.7,9.19,1.16,13.94,1.37v-.47c0-1.08,.91-2,2.02-2.03l19.57-.55c1.11-.03,2.02,.83,2.02,1.92v.36c4.8-.51,9.7-1.23,14.69-2.16Z" style="fill:#fff; fill-rule:evenodd;"/><path d="M261.85,758.38c-3.46-5.58-7.48-8.89-12.05-9.92-3.4,1.49-7.06,4.95-10.96,10.39,3.05,5.25,6.28,8.92,9.68,11.01-6.4,40.37-9.37,96.58-8.89,168.64,4.86,10.73,9.63,18.48,14.29,23.25,5.63-8.31,9.12-16.88,10.48-25.73-4.45-75.62-7.1-130.8-7.94-165.54,3.22-4.22,5.02-8.25,5.39-12.09Z" style="fill:#6d96ce; fill-rule:evenodd;"/><path d="M238.84,744.09c-2.25,3.01-4.29,6.08-6.34,9.18,1.88,1.25,4.29,2.71,7.22,4.38,2.61-3.46,5.11-6.03,7.49-7.7-2.85-2.11-5.64-4.06-8.36-5.85h0Zm18.51-4.86c-1.06,3.73-2.53,7.17-4.4,10.34,2.59,1.26,4.98,3.36,7.17,6.26,1.24-1.94,2.26-5.23,3.08-9.87-1.58-2.49-3.53-4.74-5.85-6.73Z" style="fill:#466fb5; fill-rule:evenodd;"/><path d="M324.47,1289.72c.26-60.62-1.78-131.99-6.12-214.09-8.14,4.87-18.58,8.6-31.97,11.48-3.22-8.49-6.16-28.63-10.47-65.47-3.71,1-7.47,1.8-11.29,2.4v2.09c0,1.09-.91,2-2.02,2.03l-19.57,.55c-1.11,.03-2.02-.83-2.02-1.92v-1.49c-3.55-.15-7.12-.46-10.76-.93-2.03,30.98-2.82,51.71-4.41,66.86-32.14-4.02-51.45-7.5-66.99-13.99-7.94,61.07-12.34,126.93-13.19,197.58-13.15,28.22-16.76,97.14-10.8,206.77,11.21,2.49,23.91,2.49,38.11,0,11.2-49.31,20.94-114.21,29.22-194.68,11.65-38.52,23.72-92.68,36.2-162.44,2.51,47.32,9.29,100.85,20.32,160.58-3.72,44.12,2.74,108.91,19.37,194.37,8.74,.84,22.5-.4,41.28-3.72-1.91-69.5-.22-131.49,5.09-185.99Z" style="fill:#223f81; fill-rule:evenodd;"/><path d="M225.85,1091.24c1.59-15.15,2.38-35.88,4.41-66.86-1.39-.17-2.79-.38-4.2-.6-1.1,19.15-2.5,39.14-4.2,59.99-27.9-1.51-48.69-5.29-62.36-11.33-.22,1.6-.42,3.2-.64,4.81,15.53,6.49,34.85,9.98,66.99,13.99h0Zm60.54-4.13c13.39-2.87,23.83-6.61,31.97-11.48-.09-1.83-.2-3.66-.29-5.5-7.91,4.78-17.79,8.61-29.32,9.88-2.75-11.24-5.17-31.41-7.87-59.84-1.64,.53-3.3,1.02-4.96,1.47,4.32,36.84,7.25,56.98,10.47,65.47Z" style="fill:#0e2952; fill-rule:evenodd;"/><path d="M133.65,1499.96c1.8,1.72,2.39,1.24,3.66,.38,2.07-11.33,23.44-12.65,28.74-1.08,1.57-.62,2.69-1.6,3.34-2.95,3.73,7.33,12.16,14.51,9.92,27.28-5.68,8.17-34.91,12.22-48.75-4.49-3.92-6.36,.91-14.41,3.09-19.14h0Zm147.38-12.44c-3.58,9.69-4.37,17.64-.15,20.77,10.75,2.16,32.77,1.9,66.68,6.36,23.95-1.72,34.32-8.54,28.27-16.12-20.81,1.29-39.6-4.14-56.36-16.27-3.12,12.68-15.94,14.44-38.43,5.27Z" style="fill:#0e2952; fill-rule:evenodd;"/><path d="M135.84,1481.81c-.57,6.77-1.14,12.97-1.71,18.58,1.44,1.2,2.02,.72,3.17-.05,2.07-11.33,23.44-12.65,28.74-1.08h.04s.03-.03,.03-.03h.03s.03-.03,.03-.03h0s.03-.02,.03-.02h.04s0-.01,0-.01h.03s.03-.03,.03-.03h0s.03-.02,.03-.02h.03s.01-.01,.01-.01h.03s.03-.03,.03-.03h.01s.03-.02,.03-.02h.03s0-.02,0-.02h.03s.03-.03,.03-.03h.02s.02-.01,.02-.01h.03s.02-.03,.02-.03h.01s.03-.03,.03-.03h.02s.01-.01,.01-.01h.03s.02-.03,.02-.03h0s.04-.02,.04-.02h.02s0-.02,0-.02l.03-.02h.03s.01-.01,.01-.01l.03-.02h.03s0-.01,0-.01l.03-.02h.03v-.02h.03s.03-.03,.03-.03h0l.09-.05,.03-.02h0l.03-.02,.03-.02h.03s.03-.03,.03-.03h.01s.02-.02,.02-.02l.03-.02h0s.03-.02,.03-.02l.03-.02h.01s.01-.02,.01-.02h.03s.01-.03,.01-.03l.05-.03h0s.02-.02,.02-.02l.03-.02h.01s.01-.02,.01-.02l.03-.02h.02s0-.02,0-.02l.03-.02h.02s.03-.05,.03-.05h.02s0-.01,0-.01l.03-.03h.02s0-.02,0-.02l.03-.02,.02-.02h0s.02-.02,.02-.02l.03-.03h0c-.94-4.55-1.72-9.69-2.37-15.42-10.88,1.29-20.81,.99-29.79-.87h0Zm179.72-5.44c.82,2.99,1.92,5.62,3.28,7.86-.12,.34-.25,.66-.38,.97-.62,1.41-1.4,2.63-2.34,3.67h-.01c-.31,.36-.64,.67-.99,.98h-.02c-.11,.11-.21,.2-.32,.29l-.05,.04c-1.2,.96-2.6,1.69-4.19,2.21h-.04c-.14,.05-.28,.1-.43,.14l-.07,.02c-.15,.04-.3,.09-.45,.12h-.05c-.16,.05-.32,.09-.48,.13h-.03c-.16,.04-.32,.07-.48,.1h-.08s-.47,.1-.47,.1h-.05c-1.62,.25-3.4,.33-5.33,.23h-.09s-.58-.05-.58-.05h-.09s-.58-.05-.58-.05h-.12s-.58-.07-.58-.07h-.1s-.64-.09-.64-.09h-.01l-.66-.09-.15-.03c-1.59-.24-3.28-.58-5.06-1.02l-.19-.05-.69-.17-.09-.03-.68-.18-.22-.06-.62-.17-.22-.06-.63-.19-.27-.08-.63-.2-.18-.05-.71-.23-.19-.06-.71-.23-.16-.06-.74-.25-.18-.07-.74-.26-.91-.34c-.59-.21-1.17-.43-1.77-.66l-.13-.05-.92-.36c.03-2.71-.11-5.5-.42-8.37,8.04,.22,19.26-.87,33.66-3.29Z" style="fill:#fab688; fill-rule:evenodd;"/><path d="M327.58,788.14c.71,18.1-1.55,40.55-4.45,65.37,9.26,11.48,29.17,31.96,46.22,44.71,34.99,2.01,72.47-6.1,130.26-23.59-42,9.5-84.94,15.14-128.82,16.9-8.89-6.4-22.54-19.88-40.96-40.46,.58-15.72-.17-36.69-2.25-62.92Z" style="fill:#0e2952; fill-rule:evenodd;"/><path d="M164.92,941.19c-2.02-25.23-3.93-46.92-5.72-65.1-1.28,5.18-3.23,10.26-5.86,15.26,2.6,18.57,6.18,34.67,7.03,51.27-3.03,33.98-4.51,74.56-13.6,121.74,1.03,.99,2.18,1.94,3.44,2.87,7.4-29.07,12.3-71.09,14.7-126.03Z" style="fill:#0e2952; fill-rule:evenodd;"/><path d="M226.06,1023.78c19.49,3.07,37.76,1.87,54.81-3.61-.51-5.34-1.03-10.98-1.56-16.91-18.79,3.5-36.2,4.02-52.24,1.56-.3,6.22-.64,12.55-1.01,18.96Z" style="fill:#9c7357; fill-rule:evenodd;"/><path d="M243.04,1003.7l19.58-.55c1.11-.03,2.01,.85,2.01,1.96v20.97c0,1.12-.9,2.04-2.01,2.08l-19.58,.55c-1.11,.03-2.02-.85-2.02-1.96v-20.98c0-1.12,.91-2.05,2.02-2.08Z" style="fill:#fff; fill-rule:evenodd;"/><polygon points="244.91 1007.44 244.91 1024.86 260.73 1024.41 260.73 1007 244.91 1007.44" style="fill:#9c7357; fill-rule:evenodd;"/><path d="M186.5,732.23c.74,.05,1.54,.08,2.37,.08l-.71,.63-1.67-.71h0Zm4.37,.03c.46-.03,.92-.05,1.38-.09-.41,.24-.81,.47-1.2,.71l-.17-.61h0Zm17.95-14.86c9.55,7.82,19.56,14.59,31.7,20.57,.77,.38,1.53,.75,2.32,1.12-.27,.31-.53,.62-.79,.93,1.64,2,4.03,4.56,6.63,7.27,.85-.24,1.64-.53,2.37-.87,1.78-3.3,2.4-6.31,3.85-9.12-.19-1.63-.37-3.24-.54-4.83-.17-1.91-.79-8.76-1.09-10.62,.98-.06,1.92-.14,2.83-.24,1.13-.14,2.46-.36,3.96-.64l.06,.05c11.91-2.25,16.84-8.36,14.8-18.31,4.81-20.56,5.48-38.39,.26-43.2-.87-8.79-2-17.11-3.37-24.98-29.53-3.83-51.84-1.8-61.38,12.37,1.2,8.64,3.8,19.88,7.8,33.72-1.73,3.3-4.28,5.01-7.64,5.15-4.2-8.2-7.72-13.1-10.55-14.68-14.07,6.31-11.42,16.03,7.94,29.18,1.14,4.53,2.23,8.28,3.28,11.25-.51,1.64-1.33,3.65-2.45,5.87Z" style="fill:#fab688; fill-rule:evenodd;"/><path d="M253.27,721.85c-5.25,.46-11.17,.28-17.77-.54,6.24,4.15,12.44,7.11,18.64,8.89-.11-1.22-.23-2.43-.33-3.62-.2-1.98-.4-3.87-.54-4.73Z" style="fill:#ed7d57; fill-rule:evenodd;"/><polygon points="211.04 1118.71 203.02 1304.82 0 1283.45 24.04 1118.71 211.04 1118.71" style="fill:#e5bb9a; fill-rule:evenodd;"/><path d="M236.87,1281.89c-16.35,6.01-25.82,14.23-33.84,22.92l8.01-186.11,9.14-.22,16.7,163.4Z" style="fill:#9c7357; fill-rule:evenodd;"/><path d="M211.04,1118.71l-23.61,74.66c-3.39,8.27-6.87,15.52-20.63,14.38l-130.29-8.26c-11.62-.73-11.89-6.61-11.99-14.56v-66.22H211.04Z" style="fill:#9c7357; fill-rule:evenodd;"/><path d="M116.98,1194.5l-33.14-2.14c-1.82-.12-3.65,1.16-3.93,2.97l-4.51,29.44c-.28,1.81,.87,3.48,2.66,3.67l34.48,3.49c1.8,.18,3.73-1.14,3.92-2.97l3.17-30.78c.19-1.84-.83-3.54-2.66-3.67Z" style="fill:#fff; fill-rule:evenodd;"/><polygon points="110.86 1202.42 108.72 1223.19 84.43 1220.73 87.46 1200.91 110.86 1202.42" style="fill:#9c7357; fill-rule:evenodd;"/><path d="M172.09,1118.71c-2.04-7.22-6.79-13.23-13.2-17.95-2.76-2.02-5.84-3.8-9.15-5.31-1.96-5.08-13.74-9.36-28.12-9.92-15.23-.58-27.87,3.23-29.11,8.62-.96,.42-1.9,.86-2.81,1.33-9.57,4.9-16.71,12.57-19.03,23.22h7.01c2.25-7.82,7.81-13.51,15.08-17.24,.98-.5,1.99-.97,3.03-1.4,4.78,3.41,14.16,5.95,25.03,6.38,11.39,.44,21.32-1.59,26.13-4.89,2.89,1.33,5.57,2.87,7.97,4.63,4.58,3.36,8.11,7.55,9.98,12.52h7.19Z" style="fill:#9c7357; fill-rule:evenodd;"/><path d="M138.83,1093.9c.11,4.47,1.71,11.23-1.14,14.44-7.49,8.44-25.8,9.03-33.67,3.61-3.39-2.33-3.78-9.94-3.87-14.83,4.05-10.35,6.24-19.91,6.57-28.71,8.02-5.32,20.13-5.83,24.16-3.07l7.95,28.55Z" style="fill:#fab688; fill-rule:evenodd;"/><path d="M1610.51,1172.31c15.46-5.45,16.71-13.42,25.04-17.31,8.4-3.92,9.36-10.9,1.15-18.49-6.06,4.84-13.58,10.8-17.56,7.65-2.66-2.11-11.68-1.97-13.47,1.1-7.86,18.26-18.79,12.48-20.94,20.79-.25,11.07,18.68,8.77,25.78,6.26Z" style="fill:#0e2952; fill-rule:evenodd;"/><path d="M1477.67,1172.86c28.56-.46,49.89-.8,59.75-3.91,10.64-3.36,8.44-9.85,2.33-20.22-26.91,12.38-19.74-2.54-32.33-.65-8.85,7.12-21.94,11.89-39.29,14.32-7.34,5.41-4.35,10.22,9.54,10.47Z" style="fill:#0e2952; fill-rule:evenodd;"/><path d="M1576.34,479.92c-4.56,.33-11.75-.55-13.02-2.17-4.85-6.16-8.21-12.59-9.46-16.64,.95-2.7,1.94-6.1,2.97-10.21,17.57-11.93,19.98-20.77,7.21-26.49-2.58,1.45-5.77,5.89-9.59,13.33-3.04-.12-5.35-1.68-6.92-4.68,3.62-12.56,5.99-22.76,7.08-30.61-8.65-12.87-28.9-14.71-55.71-11.23-1.24,7.14-2.26,14.69-3.06,22.68-4.74,4.37-4.12,20.56,.24,39.21-2.19,10.61,4.37,16.41,19.65,17.38,.22,3.77-.13,8.38-.37,8.89-.38,.82-1.74,1.6-3.63,2.27h0c-.51,17.52,21.02,16.93,64.61-1.74Z" style="fill:#f9af79; fill-rule:evenodd;"/><path d="M1498.89,391.23c26.81-3.47,47.06-1.63,55.71,11.23-1.09,7.84-3.45,18.05-7.08,30.61,1.57,2.99,3.88,4.55,6.92,4.68,3.81-7.45,7.01-11.89,9.59-13.33,12.77,5.72,10.36,14.55-7.21,26.49-1.03,4.11-2.02,7.51-2.97,10.21,15.81-3.55,29.03-17.68,30.9-23.8,18.43-36.34-2.13-51.69-13.13-57.29-4.86-35.99-57.12-4.18-83.31-21.53-10.41,14.38,2.46,32.41,10.57,32.73Z" style="fill:#20386f; fill-rule:evenodd;"/><path d="M1338.01,543.67c13.27,56.8,36.57,100.89,69.91,132.25,12.01-3.65,22.68-11.86,31.98-24.64-.49,41.09,.53,81.99,3.07,122.69,24.34,11.54,56.65,10.79,96.93-2.23l16.35-20.13c4.19-.81,13.72,3.82,18.3,10.89,38.26-29.2,64.05-60.58,79.27-91.75-4.1-66.97-13.21-119.83-27.29-158.53-7.12-10.95-23.85-21.71-50.18-32.3-43.59,18.68-65.13,19.26-64.61,1.74-12.81,4.21-29.83,11.65-51.02,22.33-17.67,13.43-32.72,49.81-45.15,109.15-20.23-25.34-41.21-52.21-62.94-80.6-4.84,1.37-9.71,5.08-14.61,11.13h0Zm227.04,189.79c-12.68-41.71-5.68-93.15,21.01-154.36,6.72,30.2,13.98,59.92,21.77,89.16-9.06,4.31-23.31,26.05-42.78,65.2Z" style="fill:#6d96ce; fill-rule:evenodd;"/><path d="M1569.79,787.82c-6.18-.48-16.14-5.85-29.89-16.08-40.28,13.02-72.59,13.77-96.93,2.23-4.33,68.51,12.51,140.35,33.88,220.4,20.93,35.15,20.04,59.86,31.19,140.95,6.2,4.42,16.43,3.78,30.7-1.92,4.53-69.15,1.41-114.92-16.54-140.73,2.81-23.19-4.53-80.18-4.88-115.95,13.06,29.09,22.02,68.41,39.03,108.1,20.71,48.33,35.13,100.07,46.05,147.26,11.56,2.24,22.39,.92,32.5-3.97-11.6-77.56-24.46-130.94-38.57-160.14,.54-76.26-6.72-144.75-21.78-205.47-2.8,7.16-4.39,15.6-4.76,25.31Z" style="fill:#20386f; fill-rule:evenodd;"/><path d="M1539.9,771.74c13.74,10.23,23.71,15.59,29.89,16.08,.36-9.71,1.95-18.15,4.76-25.31-4.57-7.07-14.11-11.7-18.3-10.89l-16.35,20.13Z" style="fill:#f9af79; fill-rule:evenodd;"/><path d="M1439.9,651.28c1.33-39.9,4.53-72.62,9.6-98.14-12.91,54.2-25.41,90.17-37.52,107.91-7.65-.24-17.35-4.78-29.08-13.6,7.59,10.43,15.94,19.93,25.02,28.48,12.01-3.65,22.68-11.86,31.98-24.64Z" style="fill:#466fb5; fill-rule:evenodd;"/><path d="M1556.25,751.61c2.34-5.8,5.27-11.85,8.8-18.16-12.68-41.71-5.68-93.15,21.01-154.36-38.81,55.18-49.82,114-33.02,176.47l3.22-3.96Z" style="fill:#466fb5; fill-rule:evenodd;"/><path d="M1533.34,466.8c-4.29,2.12-10.16,3.35-17.62,3.7,.15,2.52,.04,5.44-.12,7.23,7.5-1.45,13.41-5.09,17.74-10.93Z" style="fill:#ed7d57; fill-rule:evenodd;"/><path d="M1537.05,1149.92c-1.44-4.72-1.98-9.81-1.62-15.26-10.9,3.91-19.2,4.59-24.94,2.05,.3,4.04-.16,7.78-1.38,11.2,9.91-.34,5.39,11.66,27.94,2.01h0Zm71.97-6.7c3.42-.9,8.27-.52,10.11,.94,3.56,2.82,9.95-1.64,15.6-6.08-.98-2.68-1.78-5.61-2.42-8.8-6.8,2.85-13.92,4.12-21.36,3.81,.1,4.06-.54,7.43-1.93,10.13Z" style="fill:#f9af79; fill-rule:evenodd;"/><path d="M1570.2,797.55c-.43-3.52-.56-6.77-.41-9.73-6.18-.48-16.14-5.85-29.89-16.08-3.27,1.06-6.48,2.03-9.63,2.93,9.67,10.06,22.98,17.69,39.93,22.89Z" style="fill:#20386f; fill-rule:evenodd;"/><path d="M1262.13,485.75l10.8-23.57c58.07,26.62,72.27,33.14,130.33,59.76,3.24,1.49,4.67,5.35,3.19,8.6l-5.4,11.79c-1.49,3.24-5.36,4.68-8.6,3.19-58.07-26.62-72.27-33.14-130.33-59.76Z" style="fill:#466fb5; fill-rule:evenodd;"/><polygon points="1272.94 462.18 1262.13 485.75 1235.6 459.32 1272.94 462.18" style="fill:#f9af79; fill-rule:evenodd;"/><rect x="1322.75" y="435.8" width="8.48" height="130.78" transform="translate(318.6 1498.8) rotate(-65.38)" style="fill:#223f81;"/><path d="M1391.82,516.68l-10.81,23.57,11.45,5.25c3.24,1.49,7.11,.05,8.6-3.19l5.4-11.79c1.49-3.24,.05-7.11-3.19-8.6l-11.45-5.25Z" style="fill:#223f81; fill-rule:evenodd;"/><path d="M1245.38,469.06c7-.36,8.25-3.26,3.75-8.71l-13.54-1.04,9.79,9.75Z" style="fill:#223f81; fill-rule:evenodd;"/><path d="M1352.62,532.55c-.22-11.39-6.33-14.18-7.58-20.44-5.24,2.28-6.59,6.55-4.06,12.79-2.39-1.92-4.74-4-7.07-6.24-7.6-3.48-13.55-6.22-17.84-8.18,2.62,6.89,6.27,14.85,10.94,23.88,2.79,4.38,6.95,3.54,12.23,7.83,4.49-5.18,8.95-8.39,13.37-9.65Z" style="fill:#f9af79; fill-rule:evenodd;"/></svg>