<?xml version="1.0" encoding="UTF-8"?><svg id="a" xmlns="http://www.w3.org/2000/svg" viewBox="0 0 2285.69 1544.92"><path d="M1121.6,0c267.04,0,379.56,173.84,572.35,308.96,255.16,178.85,510.31,62.42,551.16,666.71,36.37,537.84-417.37,58.23-1057.13,250.89C548.23,1419.23-103.34,1496.81,90.01,873.47,283.34,250.12,501.09,0,1121.6,0Z" style="fill:#e9eff8; fill-rule:evenodd;"/><path d="M85.21,431.79c-3.28,3.58,1.36,9.5,5.9,6.36,.27-.23,.45-.38,.68-.64l5.74-6.52c3.33-3.64-1.37-9.52-5.87-6.4-.25,.21-.44,.37-.66,.62l-5.8,6.58h0ZM2207.83,142.69c3.85-3.53-.93-9.91-5.56-6.7-2.27,1.89-4.58,4.24-6.77,6.27-3.89,3.57,.93,9.91,5.53,6.73,2.28-1.87,4.63-4.26,6.81-6.3h0Zm-25.8,23.66c2.58-2.36,1.58-6.51-1.76-7.46-1.42-.38-2.97-.03-4.05,.95-2.14,1.94-4.33,3.85-6.5,5.76-3.87,3.55,.44,9.69,5.2,6.97,.19-.13,.38-.26,.55-.41,2.19-1.93,4.4-3.86,6.56-5.82h0Zm-26.61,22.86c4.34-3.62-.86-10.35-5.53-6.75-2.24,1.82-4.47,3.64-6.74,5.44-4.04,3.11-.08,10.04,5.12,7.06,2.41-1.75,4.82-3.87,7.15-5.75h0Zm-27.96,21.4c4.29-2.97,.5-9.95-4.6-7.4-2.5,1.56-5.03,3.49-7.52,5.14-1.83,1.27-2.48,3.6-1.5,5.57,1.17,2.33,4.2,3.18,6.33,1.7,2.46-1.63,4.89-3.31,7.29-5.01h0Zm-30.15,18.68c4.76-2.38,1.69-10.06-3.78-7.86-2.63,1.28-5.18,2.62-7.86,3.84-4.15,1.94-2.97,8.03,1.54,8.33,.71,.04,1.45-.1,2.06-.38,2.71-1.26,5.39-2.55,8.04-3.93h0Zm-33.98,12.28c5.46-1.02,4.54-9-1.12-8.65-2.9,.38-5.38,.74-8.33,.8-.81,0-1.47,.24-2.14,.6-3.85,2.37-2.19,8.13,2.29,8.13,3.15-.08,6.2-.36,9.3-.88h0Zm-36.52-3.96c4.65,1.86,8.43-4.95,3.72-7.86-.24-.14-.45-.23-.71-.33-2.6-.92-5.11-2.05-7.6-3.22-5.32-2.48-8.93,5.28-3.87,7.82,2.68,1.32,5.63,2.59,8.45,3.59h0Zm-31.22-18.2c1.47,1.13,3.18,1.23,4.8,.42,2.71-1.46,3.08-5.36,.64-7.25-2.23-1.77-4.41-3.59-6.56-5.46-3.62-3.31-9.45,1.44-6.41,5.83,.22,.3,.41,.5,.68,.75,2.25,1.95,4.52,3.85,6.86,5.7h0Zm-26.03-24c3.98,3.98,10.22-1.76,6.22-6.11l-6.07-6.22c-1.43-1.56-4.04-1.77-5.71-.5-2.19,1.64-2.38,4.59-.57,6.56l6.11,6.28h0Zm-24.34-24.92c4.37,4,10.09-2.25,6.12-6.22-2.09-2.07-4.22-4.13-6.38-6.13-3.63-3.33-9.3,.91-6.67,5.52,.22,.32,.42,.59,.72,.86,2.1,1.92,4.18,3.96,6.2,5.96h0Zm-25.9-22.12c4.11,2.84,9.52-2.7,5.3-6.92-2.39-1.82-5.45-3.63-8.06-5.14-4.83-2.76-9.29,4.38-4.46,7.5,2.49,1.47,4.84,2.93,7.23,4.56h0Zm-30.05-13.22c5.18,.97,7.37-6.69,2.05-8.47-2.95-.71-6.62-.99-9.64-1.21-4.67-.29-6.51,5.96-2.3,8.24,.59,.26,1,.42,1.69,.47,2.8,.21,5.42,.46,8.19,.97h0Zm-33.81-1.38c5.55-.35,5.5-8.71-.42-8.71-2.97,.19-5.92,.33-8.91,.59-4.94,.3-5.57,8-.01,8.69,.28,.02,.5,.02,.78,0,2.86-.24,5.7-.42,8.56-.56h0Zm-33.9,4.34c4.88-.91,4.54-8.62-1.05-8.62-.28,.01-.5,.04-.76,.09-2.88,.59-5.85,1.27-8.69,2.01-5.1,1.28-3.94,9.25,1.81,8.53,2.9-.62,5.77-1.41,8.7-2.01h0Zm-32.92,9.52c5.39-2.16,2.48-10.02-2.98-8.2-2.77,1-5.55,2.05-8.29,3.14-1.07,.43-1.93,1.26-2.38,2.3-1.54,3.6,2.01,7.24,5.61,5.8,2.66-1.06,5.35-2.08,8.04-3.04h0Zm-31.81,13.35c4.58-2.14,2.42-9.25-2.81-8.21-.32,.08-.59,.17-.89,.3-2.65,1.24-5.29,2.5-7.93,3.77-4.59,2.14-2.27,9.55,3.18,8.1l.62-.24c2.6-1.26,5.21-2.5,7.83-3.72h0Zm-31.23,15.31c4.84-2.42,1.74-10.08-3.76-7.88-2.66,1.29-5.29,2.66-7.95,3.96-5.05,2.53-1.45,10.3,3.89,7.82l7.82-3.91h0Zm-31.54,15.31c4.95-2.31,2.05-9.85-3.29-8.08-2.73,1.12-5.51,2.48-8.24,3.67-.95,.38-1.79,1.25-2.21,2.16-1.6,3.73,1.92,7.34,5.7,5.83,2.69-1.17,5.37-2.37,8.04-3.59h0Zm-32.68,13.33c4.88-1.62,3.3-9.44-2.44-8.36-2.83,.83-5.75,1.94-8.59,2.84-4.87,1.63-3.58,8.84,1.74,8.51,.32-.04,.59-.08,.89-.19,2.81-.89,5.62-1.82,8.4-2.8h0Zm-34.19,9.52c5.3-1,4.38-9.33-1.58-8.58-2.84,.54-5.66,1.11-8.52,1.57-5.68,1.06-4.4,9.34,1.35,8.62,2.93-.5,5.84-1.03,8.76-1.61h0Zm-35.26,4.41c5.17-.33,5.72-7.63,.54-8.66-.3-.04-.59-.08-.91-.06-2.86,.12-5.71,.2-8.58,.24-2.02,0-3.86,1.51-4.23,3.49-.55,2.75,1.54,5.23,4.32,5.23,2.96-.03,5.91-.11,8.87-.25h0Zm-35.48-.97c4.9,.62,6.96-6.76,1.68-8.52-.28-.08-.51-.12-.81-.16-2.83-.27-5.67-.62-8.49-.98-5.59-.7-6.99,7.5-1.36,8.62,2.93,.44,6.03,.77,8.98,1.04h0Zm-34.95-5.73c1.05,.26,2.03,.06,2.95-.37,3.65-1.96,2.96-7.15-1-8.14-2.79-.63-5.59-1.29-8.36-2.01-5.25-1.31-7.82,6.24-2.6,8.32,2.83,.88,6.1,1.54,9.01,2.2h0Zm-34-9.56c4.87,1.63,8.27-5.22,3.36-8.02l-.58-.24c-2.74-.91-5.45-1.85-8.17-2.82-5.42-1.81-8.39,6.04-2.95,8.22,2.77,.98,5.54,1.95,8.33,2.87h0Zm-32.96-12.5c4.44,1.78,8.08-3.51,4.89-7.01-.43-.43-.9-.79-1.45-1l-7.96-3.44c-5.46-2.19-8.68,5.57-3.53,7.97,2.68,1.18,5.35,2.34,8.05,3.49h0Zm-31.92-14.74c4.59,2.29,8.77-3.91,4.7-7.3-.26-.19-.48-.35-.77-.49l-7.75-3.92c-4.59-2.3-8.88,3.82-4.63,7.35,.21,.15,.4,.28,.64,.39,2.6,1.34,5.2,2.66,7.82,3.97h0Zm-31.12-15.06c1.38,.55,2.92,.42,4.13-.42,2.87-1.91,2.4-6.37-.78-7.64-2.75-1.13-5.51-2.22-8.29-3.26-4.64-1.85-8.43,4.96-3.71,7.86,.24,.14,.44,.23,.71,.33,2.67,1,5.31,2.05,7.94,3.13h0Zm-32.45-10.66c4.86,1.22,7.69-5.77,2.86-8.19-.3-.13-.53-.22-.86-.3-2.88-.7-5.78-1.34-8.7-1.92-5.05-.95-7.4,6.2-2.42,8.35,.28,.09,.49,.17,.78,.22,2.79,.55,5.57,1.16,8.34,1.83h0Zm-33.72-5.21c5.51,.35,6.47-7.98,.69-8.7-3-.23-6.03-.35-9.03-.43-5.2,0-6.18,7.26-1.1,8.61,.3,.06,.57,.12,.91,.12,2.85,.08,5.68,.21,8.53,.4h0Zm-34.15,.52c5.2-.65,5.21-7.99,.04-8.68-.3-.02-.6-.04-.91,0-2.95,.28-5.89,.62-8.82,1.02-5.05,.63-5.1,8.33,.46,8.68,.25,0,.46,0,.72-.03,2.84-.37,5.66-.71,8.51-.98h0Zm-33.78,5.73c4.95-1.24,4.14-8.6-1.11-8.6-.35,.02-.63,.04-.96,.12-2.86,.69-5.71,1.42-8.56,2.19-4.92,1.23-4.05,9.25,1.96,8.49,2.89-.68,5.78-1.51,8.67-2.21h0Zm-33.02,9.84c5.02-1.67,3.08-9.74-2.68-8.3-2.82,.93-5.72,2.03-8.51,3.08-5.13,2.06-2.68,9.73,2.81,8.26,2.79-.96,5.59-2.05,8.38-3.04h0Zm-32.22,12.65c2.07-.83,3.13-3.29,2.44-5.36-.83-2.49-3.47-3.62-5.87-2.66-2.68,1.07-5.41,2.32-8.05,3.49-5.17,2.41-1.92,10.16,3.51,7.99,2.61-1.15,5.32-2.39,7.96-3.45h0Zm-31.75,14.19c4.63-2.16,2.43-9.27-2.78-8.22-.3,.08-.57,.16-.87,.3l-7.93,3.65c-4.64,2.16-2.43,9.27,2.78,8.22,.3-.08,.57-.16,.87-.3l7.93-3.65h0Zm-31.82,14.49c5.15-2.41,1.92-10.16-3.53-7.98-2.64,1.18-5.29,2.32-7.94,3.47-4.34,1.73-3.1,8.7,2.13,8.35,.51-.07,.82-.15,1.3-.33,2.68-1.16,5.37-2.33,8.04-3.51h0Zm-32.55,13.36c4.58-1.83,3.42-8.46-1.71-8.46-.43,.03-.9,.1-1.29,.26-2.7,.99-5.4,1.94-8.12,2.88-4.87,1.62-3.39,9.13,2.06,8.44,.26-.05,.47-.09,.72-.18,2.79-.94,5.57-1.94,8.33-2.95h0Zm-33.94,10.28c5.59-1.4,3.83-9.59-1.88-8.52-2.78,.62-5.55,1.19-8.36,1.7-2.17,.41-3.75,2.32-3.6,4.59,.17,2.54,2.56,4.5,5.12,4.01,2.93-.53,5.82-1.13,8.73-1.78h0Zm-35.47,4.41c5.26,0,5.99-7.96,.44-8.7-2.95-.15-6.02-.04-9.03-.17-4.41-.28-6.52,5.89-2.07,8.29,.61,.26,1.01,.38,1.71,.42,2.99,.12,5.94,.15,8.94,.15h0Zm-35.51-2.97c5.02,.95,7.47-6.65,1.9-8.51-2.88-.63-5.95-1.04-8.87-1.64-3.85-.72-6.58,3.33-4.53,6.65,.76,1.02,1.56,1.67,2.78,1.9,2.9,.59,5.82,1.11,8.73,1.6h0Zm-34.47-7.9c5.57,1.4,7.92-6.55,2.42-8.38-2.71-.68-5.62-1.63-8.3-2.46-2.08-.69-4.44,.44-5.3,2.44-.98,2.47,.19,5.05,2.73,5.89,2.81,.87,5.63,1.71,8.45,2.5h0Zm-33.46-10.86c5.21,1.74,8.27-5.58,3.32-8.06-2.73-1.12-5.74-2.08-8.54-3.12-1.96-.79-4.42,.15-5.37,2.07-1.2,2.4-.16,5.11,2.35,6.11,2.72,1,5.51,2.08,8.24,2.99h0Zm-32.78-12.31c4.75,1.9,8.53-4.92,3.73-7.86l-.58-.28-8.13-3.15c-4.75-1.9-8.53,4.91-3.73,7.86l.58,.27,8.13,3.15h0Zm-32.53-12.41c5.47,1.82,8.36-6.04,2.99-8.2-2.75-1-5.51-2-8.26-2.97-2.19-.73-4.61,.28-5.48,2.46-.91,2.28,.21,4.97,2.59,5.77,2.73,.95,5.44,1.94,8.16,2.93h0Zm-32.8-10.78c5.15,1.29,7.77-5.77,3-8.15-.23-.1-.46-.19-.71-.26-2.86-.79-5.73-1.53-8.61-2.21-4.97-1.24-7.86,6.2-2.4,8.38,2.85,.82,5.82,1.45,8.71,2.24h0Zm-33.34-5.89c5.06,.32,6.61-7.51,.81-8.67-2.99-.28-6.56-.18-9.58-.02-5.55,.35-5.51,8.71,.41,8.71,2.76-.17,5.6-.13,8.36-.02h0Zm-32.1,5.82c4.46-1.79,2.92-8.99-2.37-8.33-.42,.08-.68,.15-1.08,.3-2.75,1.16-5.53,2.49-8.19,3.86-4.64,2.32-1.8,9.75,3.47,7.99,2.73-1.2,5.35-2.65,8.16-3.82h0Zm-29.59,16.83c4.25-2.94,.88-9.64-4.23-7.6-.23,.12-.44,.21-.66,.37-2.43,1.64-4.84,3.31-7.25,5-4.45,3.07-.19,10.14,4.74,7.32,2.48-1.62,4.92-3.42,7.39-5.08h0Zm-28.19,20.24c4.52-3.49-.41-10.33-5.17-7.03-2.31,1.77-4.72,3.45-7.03,5.21-4.52,3.48,.41,10.33,5.18,7.03,2.29-1.76,4.69-3.5,7.03-5.21h0Zm-28.22,20.69c4.38-3.04,.26-10.01-4.63-7.39l-.42,.27c-2.35,1.67-4.71,3.35-7.1,4.98-4.39,3.04-.44,9.92,4.5,7.46,2.52-1.53,5.21-3.59,7.64-5.32h0Zm-29.3,19.5c1.05-.59,1.77-1.72,2.01-2.82,.75-3.79-3.2-6.54-6.54-4.63-2.45,1.49-4.91,2.96-7.4,4.4-4.77,2.72-1.02,10.09,4.05,7.73,2.62-1.38,5.36-3.13,7.89-4.68h0Zm-31.19,16.75c4.93-2.3,2.1-9.88-3.33-8.06-2.71,1.13-5.39,2.39-8.12,3.51-4.86,1.95-2.71,9.63,2.86,8.23,2.77-.98,5.92-2.45,8.59-3.68h0Zm-33.57,11.99c4.91-1.23,4.14-8.6-1.16-8.6-.35,.02-.63,.04-.96,.12-2.73,.7-5.49,1.33-8.27,1.87-5.42,1.02-4.26,9.32,1.44,8.61,2.94-.5,6.05-1.27,8.95-2.01h0Zm-35.51,4.83c5.24,0,6.02-8,.37-8.7-2.95-.12-5.93-.01-8.91-.15-5.09-.32-6.52,7.2-1.27,8.6,.28,.05,.5,.09,.8,.11,2.98,.16,6.02,.19,9.01,.14h0Zm-35.69-3.91c1.6,.4,3.33-.18,4.38-1.45,2.05-2.5,.82-6.25-2.32-7.03-2.79-.66-5.55-1.42-8.31-2.19-5.49-1.38-7.89,6.56-2.39,8.39,2.88,.8,5.74,1.58,8.65,2.28h0Zm-33.8-9.14c1.2,.3,2.16,.15,3.22-.38,3.49-1.87,2.79-7.11-.94-8.04l-8.42-2.28c-5.36-1.34-7.75,6.27-2.72,8.28l.45,.14,8.42,2.28h0Zm-33.68-8.96c5.27,1.32,7.71-6.27,2.69-8.29l-.5-.16-8.47-2.19c-5.36-1.34-7.82,6.58-2.34,8.4,2.85,.78,5.75,1.49,8.62,2.23h0Zm-33.77-8.45c4.87,1.22,7.69-5.78,2.88-8.19-.3-.12-.54-.21-.86-.3l-8.53-2.01c-4.62-1.16-7.57,5.32-3.2,8.01,.44,.24,.75,.37,1.25,.5l8.47,1.98h0Zm-33.93-7.51c4.55,.85,7.25-4.94,3.34-7.88-.55-.33-.99-.56-1.63-.68l-8.62-1.69c-5.42-1.02-7.33,7.06-1.87,8.52,2.89,.62,5.86,1.13,8.77,1.72h0Zm-34.12-5.95c5.28,.66,7-6.78,1.89-8.49-.22-.06-.43-.12-.68-.15-2.9-.42-5.81-.8-8.73-1.16-1.89-.24-3.78,.82-4.52,2.58-1.16,2.7,.57,5.72,3.46,6.08,2.86,.36,5.72,.73,8.58,1.14h0Zm-34.32-3.45c5.08,.32,6.42-7.21,1.31-8.58-.32-.06-.55-.11-.9-.14-2.95-.15-5.88-.26-8.83-.34-5.72,0-5.97,8.37-.27,8.72,2.89,.06,5.8,.19,8.69,.33h0Zm-34.32,.3c5.03-.31,5.57-7.96,.12-8.69-.28-.02-.5-.03-.8,0-2.95,.22-5.9,.51-8.85,.84-5.51,.69-4.95,9.05,.96,8.67,2.82-.35,5.73-.61,8.58-.82h0Zm-33.72,5.35c4.92-1.23,4.17-8.6-1.17-8.6-.34,.02-.61,.05-.93,.12-2.6,.49-6.06,1.56-8.64,2.34-5.43,1.81-3.11,9.77,2.44,8.38,2.48-.75,5.79-1.78,8.29-2.25h0Zm-32.21,11.08c4.94-2.3,2.13-9.88-3.35-8.06-2.77,1.16-5.59,2.57-8.29,3.89-4.77,2.39-1.85,9.77,3.41,8.02l.48-.21c2.57-1.27,5.13-2.48,7.75-3.65h0Zm-30.02,16.4c4.31-2.77,1.03-9.72-4.14-7.65-.21,.11-.4,.2-.61,.33-2.49,1.6-4.95,3.27-7.37,4.96-4.29,2.97-.5,9.95,4.59,7.4,2.52-1.57,5.01-3.42,7.53-5.04h0Zm-27.59,20.46c3.89-3.24-.06-9.6-4.85-7.2-.28,.17-.48,.29-.75,.51-2.26,1.88-4.5,3.8-6.72,5.73-2.67,2.45-1.52,6.79,1.96,7.54,1.35,.27,2.79-.06,3.8-.99,2.16-1.89,4.34-3.76,6.56-5.6h0Zm-25.48,23.28c3.7-3.71-1.17-9.72-5.64-6.63-.18,.16-.35,.28-.53,.45-2.08,2.08-4.14,4.15-6.18,6.25-3.82,4.16,1.88,10.09,6.24,6.1,1.91-2.09,4.09-4.16,6.11-6.17h0Zm-23.79,25.16c3.35-3.64-1.36-9.51-5.86-6.4-.26,.21-.44,.37-.67,.62l-5.79,6.58c-3.28,3.58,1.36,9.5,5.9,6.36,.27-.22,.44-.37,.68-.64l5.73-6.52h0Zm2110.16-102.48c3.84-3.53-.93-9.91-5.56-6.7-2.27,1.89-4.58,4.24-6.78,6.27-3.89,3.57,.94,9.91,5.53,6.74,2.27-1.88,4.62-4.27,6.81-6.31h0Zm-25.8,23.67c2.57-2.37,1.58-6.51-1.76-7.46-1.42-.38-2.97-.03-4.06,.95-2.14,1.94-4.33,3.85-6.5,5.76-3.87,3.55,.44,9.7,5.2,6.97,.19-.13,.38-.25,.56-.41,2.19-1.93,4.39-3.85,6.56-5.81h0Zm-26.61,22.86c4.33-3.62-.86-10.35-5.53-6.75-2.24,1.82-4.48,3.64-6.74,5.44-4.03,3.1-.08,10.03,5.11,7.06,2.41-1.76,4.83-3.87,7.17-5.75h0Zm-27.97,21.41c4.29-2.97,.5-9.95-4.59-7.4-2.5,1.56-5.04,3.48-7.52,5.14-1.84,1.27-2.48,3.6-1.49,5.57,1.16,2.32,4.19,3.17,6.32,1.69,2.45-1.63,4.88-3.3,7.29-5h0Zm-30.15,18.67c4.76-2.38,1.69-10.06-3.78-7.86-2.64,1.28-5.18,2.63-7.86,3.84-4.14,1.94-2.97,8.04,1.54,8.33,.7,.05,1.45-.1,2.05-.38,2.72-1.25,5.39-2.55,8.04-3.93h0Zm-33.98,12.29c5.46-1.02,4.54-9-1.12-8.65-2.9,.38-5.39,.74-8.33,.81-.8,0-1.47,.24-2.14,.6-3.84,2.37-2.19,8.12,2.29,8.12,3.15-.08,6.2-.36,9.3-.88h0Zm-36.51-3.97c4.64,1.86,8.42-4.95,3.71-7.86-.23-.13-.44-.23-.7-.32-2.59-.93-5.11-2.05-7.6-3.23-5.31-2.48-8.94,5.29-3.87,7.82,2.69,1.32,5.64,2.59,8.46,3.59h0Zm-31.23-18.2c1.48,1.13,3.18,1.24,4.81,.42,2.7-1.46,3.08-5.36,.64-7.24-2.24-1.77-4.41-3.59-6.57-5.46-3.61-3.31-9.46,1.44-6.42,5.84,.22,.29,.41,.5,.69,.75,2.25,1.95,4.52,3.85,6.85,5.7h0Zm-26.03-24c3.98,3.98,10.22-1.75,6.23-6.11l-6.07-6.22c-1.42-1.56-4.05-1.77-5.7-.5-2.19,1.64-2.39,4.58-.57,6.56l6.11,6.28h0Zm-24.33-24.92c4.37,4,10.1-2.24,6.12-6.22-2.1-2.07-4.21-4.13-6.37-6.13-3.64-3.33-9.3,.92-6.67,5.52,.22,.32,.41,.59,.71,.86,2.1,1.92,4.18,3.96,6.2,5.96h0Zm-25.89-22.12c4.11,2.84,9.52-2.7,5.29-6.92-2.39-1.81-5.45-3.63-8.06-5.14-4.82-2.76-9.3,4.39-4.46,7.5,2.49,1.47,4.84,2.94,7.23,4.56h0Zm-30.06-13.22c5.18,.98,7.37-6.69,2.06-8.46-2.96-.71-6.62-.98-9.65-1.2-4.67-.29-6.52,5.96-2.3,8.23,.6,.26,1,.43,1.69,.47,2.81,.21,5.42,.47,8.19,.97h0Zm-33.81-1.38c5.55-.35,5.51-8.71-.41-8.71-2.99,.19-5.92,.33-8.91,.59-4.95,.3-5.57,8-.01,8.69,.28,.02,.5,.02,.77,0,2.86-.23,5.69-.42,8.55-.56h0Zm-33.91,4.34c4.9-.91,4.54-8.62-1.04-8.62-.29,.02-.5,.04-.78,.1-2.88,.59-5.84,1.27-8.69,2.01-5.1,1.27-3.94,9.25,1.81,8.53,2.9-.62,5.77-1.41,8.69-2.01h0Zm-32.91,9.52c5.39-2.15,2.48-10.02-2.98-8.2-2.77,1-5.55,2.05-8.29,3.14-1.06,.43-1.94,1.27-2.38,2.3-1.54,3.6,2.01,7.24,5.62,5.8,2.66-1.05,5.34-2.07,8.03-3.04h0Zm-31.81,13.35c4.57-2.14,2.42-9.25-2.82-8.21-.31,.09-.58,.17-.88,.3-2.65,1.24-5.29,2.5-7.93,3.77-4.6,2.15-2.27,9.55,3.18,8.11l.62-.24c2.6-1.26,5.21-2.5,7.84-3.73h0Zm-31.24,15.31c4.85-2.42,1.75-10.08-3.76-7.88-2.66,1.29-5.3,2.66-7.94,3.97-5.06,2.52-1.45,10.31,3.87,7.82l7.82-3.91h0Zm-31.54,15.31c4.95-2.3,2.05-9.85-3.29-8.07-2.73,1.12-5.5,2.48-8.23,3.67-.96,.38-1.8,1.25-2.21,2.16-1.6,3.73,1.92,7.35,5.69,5.84,2.69-1.18,5.37-2.37,8.04-3.6h0Zm-32.68,13.33c4.88-1.63,3.29-9.45-2.45-8.37-2.82,.83-5.74,1.94-8.58,2.85-4.87,1.62-3.59,8.83,1.73,8.5,.32-.04,.59-.08,.9-.18,2.81-.9,5.61-1.83,8.4-2.8h0Zm-34.19,9.52c5.3-1,4.38-9.33-1.58-8.58-2.84,.54-5.66,1.11-8.52,1.58-5.67,1.06-4.4,9.34,1.36,8.62,2.93-.5,5.83-1.03,8.75-1.61h0Zm-35.27,4.41c5.17-.33,5.73-7.64,.55-8.67-.3-.04-.59-.08-.91-.06-2.86,.13-5.71,.2-8.58,.24-2.03,0-3.87,1.51-4.24,3.49-.55,2.75,1.54,5.24,4.31,5.24,2.96-.04,5.91-.12,8.87-.25h0Zm-35.47-.97c4.9,.61,6.96-6.76,1.67-8.53-.28-.08-.51-.12-.82-.16-2.83-.26-5.66-.62-8.49-.98-5.6-.7-6.98,7.5-1.36,8.62,2.93,.44,6.03,.77,8.99,1.05h0Zm-34.97-5.74c1.05,.26,2.03,.06,2.95-.37,3.64-1.96,2.97-7.15-1-8.14-2.79-.62-5.59-1.29-8.35-2.01-5.24-1.31-7.82,6.23-2.6,8.31,2.82,.88,6.1,1.55,9,2.2h0Zm-34-9.56c4.88,1.62,8.27-5.22,3.38-8.02l-.59-.25c-2.73-.91-5.45-1.85-8.16-2.81-5.41-1.8-8.38,6.03-2.95,8.21,2.77,.98,5.54,1.95,8.33,2.88h0Zm-32.96-12.5c4.43,1.78,8.07-3.51,4.89-7.01-.43-.43-.9-.79-1.44-1l-7.97-3.44c-5.46-2.19-8.68,5.57-3.53,7.97,2.68,1.18,5.36,2.34,8.05,3.49h0Zm-31.92-14.74c4.58,2.29,8.76-3.91,4.69-7.3-.26-.19-.48-.35-.77-.49l-7.74-3.92c-4.61-2.3-8.88,3.82-4.64,7.35,.21,.15,.41,.28,.64,.4,2.6,1.33,5.21,2.66,7.82,3.96h0Zm-31.12-15.06c1.38,.55,2.92,.41,4.12-.41,2.87-1.92,2.39-6.37-.77-7.64-2.75-1.13-5.51-2.22-8.29-3.26-4.65-1.86-8.44,4.95-3.71,7.86,.24,.14,.44,.23,.7,.33,2.68,1,5.32,2.04,7.95,3.13h0Zm-32.46-10.66c4.87,1.22,7.69-5.77,2.88-8.19-.3-.12-.54-.22-.86-.3-2.89-.7-5.79-1.34-8.7-1.92-5.06-.95-7.41,6.21-2.42,8.35,.28,.09,.48,.17,.77,.22,2.79,.55,5.57,1.17,8.33,1.83h0Zm-33.72-5.21c5.52,.35,6.49-7.97,.7-8.7-3-.22-6.03-.35-9.03-.42-5.2,0-6.19,7.25-1.1,8.6,.3,.06,.58,.12,.9,.12,2.86,.08,5.69,.21,8.53,.4h0Zm-34.14,.53c5.21-.65,5.22-8,.05-8.68-.3-.02-.6-.05-.91,0-2.95,.28-5.88,.62-8.82,1.02-5.04,.64-5.1,8.34,.45,8.69,.26,0,.47,0,.72-.04,2.84-.37,5.67-.71,8.51-.98h0Zm-33.77,5.72c4.95-1.24,4.13-8.6-1.12-8.6-.35,.02-.64,.04-.95,.12-2.87,.7-5.73,1.42-8.57,2.19-4.93,1.23-4.05,9.25,1.97,8.5,2.88-.69,5.78-1.51,8.67-2.21h0Zm-33.03,9.84c5.04-1.67,3.1-9.75-2.68-8.3-2.82,.93-5.71,2.03-8.49,3.08-5.13,2.05-2.69,9.72,2.81,8.26,2.78-.95,5.59-2.05,8.37-3.04h0Zm-32.21,12.65c2.07-.83,3.13-3.29,2.43-5.36-.83-2.49-3.46-3.62-5.86-2.66-2.68,1.07-5.4,2.32-8.05,3.49-5.17,2.41-1.92,10.16,3.52,7.99,2.61-1.16,5.31-2.39,7.95-3.45h0Zm-31.75,14.19c4.64-2.16,2.43-9.26-2.78-8.22-.3,.08-.57,.15-.86,.29l-7.93,3.64c-4.63,2.17-2.43,9.27,2.78,8.22,.3-.08,.57-.16,.86-.29l7.93-3.65h0Zm-31.82,14.49c5.16-2.41,1.92-10.16-3.53-7.98-2.64,1.18-5.3,2.33-7.95,3.47-4.33,1.74-3.08,8.71,2.14,8.35,.5-.07,.82-.14,1.29-.33,2.69-1.15,5.37-2.32,8.04-3.51h0Zm-32.55,13.36c4.58-1.83,3.42-8.46-1.71-8.46-.43,.03-.91,.11-1.29,.26-2.7,.99-5.39,1.95-8.11,2.88-4.86,1.62-3.39,9.13,2.05,8.45,.26-.06,.47-.1,.73-.18,2.79-.95,5.56-1.94,8.33-2.95h0Zm-33.93,10.28c5.58-1.4,3.82-9.59-1.88-8.52-2.79,.62-5.56,1.2-8.37,1.71-2.17,.41-3.75,2.32-3.6,4.58,.16,2.54,2.56,4.5,5.11,4.01,2.93-.53,5.83-1.13,8.73-1.78h0Zm-35.47,4.41c5.26,0,5.99-7.96,.44-8.69-2.96-.15-6.02-.05-9.03-.17-4.4-.28-6.53,5.89-2.07,8.29,.62,.26,1.01,.38,1.71,.43,3,.12,5.95,.15,8.95,.15h0Zm-35.51-2.96c5.03,.94,7.48-6.65,1.9-8.51-2.89-.63-5.95-1.04-8.88-1.64-3.86-.72-6.57,3.34-4.52,6.66,.75,1.01,1.55,1.66,2.78,1.89,2.89,.59,5.81,1.11,8.72,1.6h0Zm-34.46-7.9c5.57,1.39,7.91-6.55,2.42-8.38-2.72-.68-5.62-1.63-8.31-2.46-2.07-.69-4.43,.44-5.28,2.44-.99,2.47,.18,5.05,2.72,5.9,2.81,.86,5.63,1.7,8.46,2.5h0Zm-33.47-10.86c5.22,1.74,8.27-5.59,3.33-8.06-2.74-1.12-5.75-2.09-8.55-3.13-1.96-.78-4.41,.15-5.38,2.07-1.2,2.4-.15,5.12,2.36,6.12,2.72,1,5.51,2.08,8.24,2.99h0Zm-32.78-12.32c4.74,1.9,8.52-4.91,3.72-7.86l-.57-.27-8.14-3.15c-4.74-1.9-8.52,4.91-3.72,7.86l.57,.28,8.14,3.15h0Zm-32.53-12.41c5.48,1.83,8.37-6.04,2.99-8.2-2.75-1-5.5-2-8.26-2.97-2.19-.73-4.61,.27-5.48,2.46-.91,2.28,.21,4.98,2.59,5.78,2.73,.95,5.45,1.94,8.16,2.93h0Zm-32.8-10.78c5.15,1.29,7.77-5.77,3-8.16-.23-.1-.46-.19-.7-.26-2.86-.78-5.73-1.52-8.62-2.2-4.97-1.24-7.86,6.19-2.41,8.38,2.86,.81,5.84,1.45,8.72,2.24h0Zm-33.33-5.89c5.06,.32,6.6-7.52,.8-8.68-3-.27-6.56-.17-9.59-.02-5.55,.35-5.51,8.71,.42,8.71,2.76-.17,5.6-.13,8.37-.01h0Zm-32.11,5.82c4.46-1.79,2.93-8.99-2.37-8.33-.42,.08-.67,.15-1.09,.31-2.75,1.16-5.52,2.48-8.17,3.86-4.65,2.32-1.81,9.74,3.46,7.98,2.74-1.19,5.37-2.65,8.17-3.82h0Zm-29.58,16.83c4.25-2.93,.87-9.63-4.23-7.59-.23,.11-.43,.21-.65,.36-2.44,1.64-4.85,3.32-7.26,5-4.44,3.08-.19,10.14,4.74,7.32,2.48-1.62,4.92-3.42,7.4-5.08h0Zm-28.2,20.24c4.52-3.49-.41-10.33-5.18-7.03-2.3,1.77-4.7,3.46-7.03,5.21-4.52,3.49,.41,10.33,5.17,7.03,2.3-1.76,4.7-3.5,7.03-5.21h0Zm-28.22,20.69c4.38-3.04,.26-10.01-4.62-7.38l-.43,.26c-2.35,1.67-4.72,3.35-7.1,4.98-4.38,3.04-.44,9.92,4.5,7.46,2.52-1.53,5.21-3.59,7.64-5.32h0Zm-29.3,19.5c1.04-.6,1.76-1.72,1.99-2.82,.76-3.78-3.19-6.54-6.53-4.63-2.45,1.49-4.92,2.97-7.41,4.4-4.77,2.73-1.03,10.09,4.05,7.73,2.61-1.37,5.35-3.13,7.9-4.67h0Zm-31.19,16.75c4.92-2.3,2.1-9.88-3.33-8.06-2.72,1.13-5.39,2.38-8.13,3.51-4.85,1.94-2.71,9.62,2.88,8.23,2.76-.98,5.91-2.46,8.59-3.69h0Zm-33.58,11.99c4.91-1.22,4.15-8.6-1.15-8.6-.35,.02-.63,.05-.95,.13-2.74,.69-5.5,1.32-8.27,1.87-5.42,1.02-4.27,9.32,1.44,8.6,2.93-.5,6.04-1.27,8.94-2.01h0Zm-35.5,4.84c5.25,0,6.01-8,.37-8.71-2.94-.12-5.92-.01-8.91-.15-5.09-.32-6.51,7.19-1.26,8.6,.26,.06,.5,.09,.79,.11,2.99,.16,6.03,.19,9.01,.15h0Zm-35.69-3.92c1.61,.4,3.33-.17,4.39-1.45,2.05-2.5,.82-6.24-2.32-7.03-2.8-.66-5.55-1.42-8.32-2.19-5.49-1.38-7.89,6.56-2.39,8.39,2.87,.79,5.74,1.59,8.64,2.28h0Zm-33.8-9.14c1.2,.3,2.16,.15,3.22-.37,3.48-1.87,2.79-7.12-.94-8.05l-8.44-2.28c-5.35-1.34-7.75,6.27-2.71,8.28l.45,.15,8.42,2.27h0Zm-33.68-8.96c5.27,1.32,7.72-6.27,2.69-8.28l-.5-.17-8.47-2.19c-5.35-1.33-7.82,6.58-2.34,8.41,2.84,.78,5.75,1.48,8.62,2.22h0Zm-33.78-8.45c4.88,1.22,7.69-5.78,2.88-8.19-.3-.12-.54-.21-.86-.3l-8.52-2c-4.62-1.15-7.58,5.31-3.2,8,.45,.24,.74,.37,1.24,.5l8.47,1.98h0Zm-33.92-7.51c4.55,.85,7.25-4.94,3.33-7.87-.55-.34-.98-.56-1.62-.68l-8.62-1.69c-5.42-1.02-7.33,7.06-1.87,8.52,2.9,.63,5.87,1.13,8.78,1.72h0Zm-34.14-5.95c5.28,.66,7.01-6.78,1.91-8.49-.24-.06-.44-.12-.68-.15-2.9-.42-5.81-.8-8.73-1.16-1.91-.23-3.78,.83-4.54,2.58-1.15,2.7,.57,5.72,3.47,6.08,2.86,.36,5.71,.73,8.56,1.14h0Zm-34.3-3.44c5.08,.32,6.42-7.22,1.31-8.58-.33-.06-.55-.11-.9-.13-2.95-.15-5.89-.27-8.84-.34-5.72,0-5.98,8.36-.27,8.71,2.9,.06,5.8,.19,8.69,.34h0Zm-34.33,.29c5.03-.31,5.57-7.96,.12-8.69-.29-.01-.51-.03-.8,0-2.96,.22-5.91,.51-8.85,.85-5.52,.69-4.96,9.04,.95,8.67,2.82-.35,5.74-.62,8.58-.83h0Zm-33.72,5.35c4.91-1.23,4.17-8.6-1.16-8.6-.35,.03-.62,.05-.93,.12-2.6,.49-6.07,1.56-8.64,2.34-5.43,1.81-3.11,9.77,2.45,8.38,2.48-.75,5.78-1.77,8.29-2.24h0Zm-32.2,11.08c4.92-2.3,2.13-9.88-3.35-8.06-2.78,1.16-5.6,2.56-8.3,3.89-4.77,2.39-1.84,9.77,3.4,8.02l.49-.21c2.57-1.27,5.14-2.48,7.75-3.65h0Zm-30.03,16.4c4.31-2.77,1.04-9.72-4.14-7.66-.21,.11-.39,.2-.61,.34-2.48,1.6-4.94,3.27-7.37,4.96-4.29,2.97-.5,9.95,4.59,7.4,2.52-1.58,5.01-3.42,7.53-5.04h0Zm-27.6,20.46c3.9-3.24-.06-9.59-4.84-7.2-.28,.17-.5,.29-.76,.51-2.26,1.88-4.5,3.8-6.71,5.74-2.67,2.44-1.53,6.79,1.95,7.53,1.36,.27,2.79-.06,3.81-.99,2.16-1.89,4.34-3.76,6.55-5.6h0Zm-25.48,23.28c3.71-3.7-1.16-9.72-5.63-6.63-.19,.16-.35,.28-.53,.46-2.09,2.07-4.15,4.15-6.2,6.25-3.8,4.16,1.89,10.09,6.25,6.1,1.92-2.08,4.09-4.16,6.11-6.17Z" style="fill:#8d9fca; fill-rule:evenodd;"/><path d="M1052.94,60.27l-11.73,25.6,14.51,24.16c1.69,2.75-.6,6.21-3.78,5.82l-27.93-3.21-18.58,21.18c-2.09,2.43-6.07,1.38-6.66-1.76l-5.56-27.59-25.94-11.04c-2.88-1.28-3.08-5.35-.3-6.94l24.45-13.82,2.58-28.02c.21-3.21,4.08-4.68,6.46-2.5l20.67,19.02,27.43-6.27c3.18-.71,5.76,2.48,4.38,5.38Z" style="fill:#fff; fill-rule:evenodd;"/><path d="M1407.43,494.84l-24.53,13.83-2.46,28.07c-.25,3.22-4.14,4.68-6.47,2.48l-20.71-19.01-27.48,6.22c-3.11,.74-5.72-2.44-4.35-5.34l11.71-25.59-14.5-24.18c-1.58-2.73,.65-6.13,3.83-5.79l27.9,3.18,18.56-21.15c2.04-2.48,6.04-1.39,6.7,1.77l5.55,27.54,25.88,11.05c2.99,1.29,3.21,5.39,.37,6.92Z" style="fill:#fff; fill-rule:evenodd;"/><path d="M1119.06,869.24l-27.98-3.23-18.48,21.27c-2.1,2.46-6.09,1.36-6.69-1.79l-5.59-27.55-25.9-11.11c-2.95-1.24-3.19-5.34-.38-6.88l24.52-13.83,2.48-28.08c.33-3.14,4.13-4.59,6.5-2.43l20.71,18.97,27.44-6.21c3.11-.8,5.71,2.43,4.38,5.37l-11.69,25.54,14.44,24.14c1.66,2.81-.57,6.25-3.76,5.82Z" style="fill:#fff; fill-rule:evenodd;"/><path d="M578.03,1099.8l-20.73-19.05-27.46,6.35c-3.14,.76-5.72-2.48-4.36-5.38l11.67-25.58-14.42-24.21c-1.66-2.73,.55-6.19,3.73-5.79l27.96,3.22,18.5-21.27c2.12-2.34,6.04-1.28,6.69,1.86l5.6,27.52,25.85,11.1c2.99,1.18,3.2,5.32,.39,6.92l-24.47,13.8-2.5,28.02c-.31,3.24-4.13,4.72-6.47,2.5Z" style="fill:#fff; fill-rule:evenodd;"/><path d="M176.36,953.23l-5.57-27.6-25.95-11c-2.99-1.23-3.17-5.37-.37-6.92l24.47-13.83,2.57-28.07c.26-3.19,4.08-4.69,6.42-2.49l20.73,19.03,27.47-6.34c3.08-.66,5.63,2.52,4.32,5.44l-11.63,25.56,14.39,24.17c1.73,2.71-.54,6.18-3.75,5.82l-27.91-3.22-18.49,21.2c-2.16,2.44-6.12,1.39-6.7-1.77Z" style="fill:#fff; fill-rule:evenodd;"/><path d="M589.12,423.18l11.71-25.61-14.54-24.15c-1.69-2.75,.59-6.21,3.78-5.82l27.93,3.19,18.56-21.21c2.09-2.43,6.06-1.38,6.66,1.76l5.6,27.58,25.95,11.02c2.88,1.28,3.08,5.35,.3,6.94l-24.43,13.85-2.56,28.02c-.19,3.21-4.07,4.68-6.46,2.51l-20.69-19.01-27.42,6.29c-3.18,.71-5.77-2.47-4.38-5.37Z" style="fill:#fff; fill-rule:evenodd;"/><path d="M1608.49,880.04l11.7-25.6-14.53-24.15c-1.69-2.75,.59-6.21,3.78-5.82l27.93,3.19,18.56-21.2c2.09-2.43,6.06-1.38,6.66,1.76l5.59,27.58,25.95,11.02c2.88,1.28,3.09,5.35,.3,6.94l-24.43,13.85-2.56,28.02c-.19,3.21-4.07,4.68-6.46,2.5l-20.69-19-27.42,6.29c-3.18,.71-5.77-2.47-4.38-5.37Z" style="fill:#fff; fill-rule:evenodd;"/><path d="M2115.18,1062.58l11.71-25.61-14.53-24.15c-1.69-2.75,.59-6.21,3.77-5.82l27.93,3.19,18.57-21.21c2.08-2.43,6.06-1.38,6.65,1.76l5.59,27.58,25.95,11.02c2.88,1.28,3.08,5.35,.3,6.94l-24.43,13.85-2.56,28.02c-.19,3.21-4.07,4.68-6.45,2.51l-20.69-19.01-27.42,6.29c-3.17,.71-5.76-2.47-4.38-5.37Z" style="fill:#fff; fill-rule:evenodd;"/><path d="M1142.85,1404.75c631.18,0,1142.84,31.38,1142.84,70.09s-511.67,70.08-1142.84,70.08S0,1513.54,0,1474.84s511.67-70.09,1142.85-70.09Z" style="fill:#d0d9ee; fill-rule:evenodd;"/><path d="M701,649.53s-9.8-11.84-17.47-17.16c-7.67-5.39-19.76-22.32-20.91-44.16-1.15-21.92,13.77-33.25,22.3-37.31,8.51-4.14,42.23-10.04,54.49-6.52,12.26,3.51,14.14,47.41,14.14,47.41l-12.04,36.25-40.51,21.49Z" style="fill:#0f3970; fill-rule:evenodd;"/><path d="M789.14,1253.17l.18,26.74,28.65-10.48s15.91-24.83,36.57-57.98c-13.08-5.69-26.66-10.51-40.3-15.46-14.12,33.38-25.1,57.18-25.1,57.18Z" style="fill:#f5b58b; fill-rule:evenodd;"/><path d="M819.75,1267.7s-14.39-4.12-17.88-7.37c-3.51-3.25-5.55-11.27-11.25-11.02-5.7,.24-26.02,18.96-27.69,24.75-1.76,6.09-1.42,14.13,2.15,17.37,3.56,3.31,66.54,43.74,79.34,47.78,12.78,4.05,23.74-5.3,14.95-17.68-8.78-12.37-31.2-54.15-39.63-53.83Z" style="fill:#142d4d; fill-rule:evenodd;"/><path d="M706.98,923.13s251.43,33.31,255.51,64.91c9.55,73.88-130.03,268.01-130.03,268.01l-39.25-17.13,70.44-203.95s-112.31-11.09-122.34-18.11c-10.06-7-34.33-93.74-34.33-93.74Z" style="fill:#0f3970; fill-rule:evenodd;"/><path d="M611.58,1411.97l4.59,26.36,26.52-15.06s11.63-27.11,26.53-63.26c-13.86-3.42-28.04-5.98-42.31-8.59-8.44,35.24-15.33,60.55-15.33,60.55Z" style="fill:#f5b58b; fill-rule:evenodd;"/><path d="M644.18,1421.27s-14.9-1.7-18.88-4.3c-3.98-2.6-7.35-10.18-12.91-9.01-5.57,1.16-22.55,22.96-23.21,28.9-.73,6.31,.93,14.19,4.98,16.83,4.07,2.66,86.58,35.78,99.88,37.68,13.29,1.89,15.26-11.81,4.56-22.54-10.69-10.79-46.17-49.3-54.42-47.56Z" style="fill:#142d4d; fill-rule:evenodd;"/><path d="M752.47,947.24l-23.68-30.97s-72.36,10.87-81.73,43.51c-9.37,32.64,5.74,238.75,5.74,238.75,0,0-28.14,141.14-40.4,192.36,14.27,2.62,34.21,6.71,48.08,10.14,25.8-62.58,78.89-198.78,78.89-198.78l22.93-187.63-9.83-67.38Z" style="fill:#0f3d86; fill-rule:evenodd;"/><path d="M846.39,443.72c5.05,16.07,7.45,14.59,8.04,16.67,.69,2.41-8.94,35.34-8.94,35.34,0,0-27.77,97.05-29.46,102.28l-66.09,79.6,28.87,44.84s69.66-88.55,72.51-93.86c2.88-5.24,25.62-140.96,27.99-152.87,0,0,7.9-13.11,12.61-21.5,4.7-8.38,5.53-18.53,6.5-21.09,.15-.38,2.89-9.12,3.51-20.85,.5-10.1-4.47-.75-4.47-.75,0,0-4.21,18.5-5.56,17.97-1.04-.44,1.83-10.47,2.52-21.65,.18-2.85,.35-5.7,.48-8.26,.34-6.82-3.63-9-5.1-1.9-.53,2.49-1.26,6.71-1.41,9.77-.15,3.26-1.3,6.29-1.85,9.06-1.06,5.47-1.75,9.48-1.96,9.29-.26-.23-1.19,.71-1.11-2.34,.12-3.68,2.02-11.42,1.8-16.81-.14-3.07-.03-9.5-.03-9.5,0,0-1.62-9.71-2.2-9.82-3.17-.49-3.89,6.47-3.17,10.64-.86,2.9-.78,9.65-.78,9.65,0,0-2.82,13.68-4.71,13.31-.8-.14-.06-8.8-.61-17.37-.51-7.94-2.3-15.86-3.85-16-2.63-.24-2.95,8.7-2.95,8.7,0,0,.08,6.25-.05,8.32-.15,2.43-1.13,9.72-1.13,9.72,0,0-4.56,25.12-6.32,24.59-1.76-.53-5.75-3.69-5.99-5.34-.26-1.65,.85-4.94,.62-6.59-.26-1.65-1.94-3.6-3.94-3.45s-3.81,8.64-3.81,8.64c0,0-1.43,6.88,.03,11.55Z" style="fill:#f5b58b; fill-rule:evenodd;"/><path d="M783.71,632.26c-3.19-.2-76.31,64.67-73.82,84.37,2.46,19.7,36.16,45.65,57.41,28.96,21.23-16.76,60.16-75.79,60.16-75.79,0,0-33.43-36.92-43.75-37.53Z" style="fill:#6998d0; fill-rule:evenodd;"/><path d="M750.9,683.57c.89,.62,30.7,43.6,32.64,77.92,3.54,62.76-9.83,168.57-20.5,174.01-85.52,43.42-122.28,29.01-122.28,29.01,0,0,2.46-192.9,15.58-238.85,5.47-19.08,13.31-35.98,32.72-42.63,4.41-1.56,41.11-13.84,61.84,.55Z" style="fill:#6998d0; fill-rule:evenodd;"/><path d="M740.51,648.94l10.62,36.14s2.77,10.15-1.64,15.09c-7.56,8.6-46.81-20.86-46.81-20.86l-6.79-58.66,44.63,28.29Z" style="fill:#f5b58b; fill-rule:evenodd;"/><path d="M697.93,638.32c12.37,22.09,36.07,29.54,48.03,29.16l-5.44-18.54-44.63-28.29,2.04,17.66Z" style="fill:#ec724c; fill-rule:evenodd;"/><path d="M703.49,558.99c15.93-9.97,37.05-2.69,43.8,14.56,2.93,7.44,6.23,16.99,8.88,27.57,6.38,25.56-1.13,53.6-12.77,56.25-11.63,2.72-47.66-6.47-57.23-42.59-5.91-22.33,.6-45.33,17.32-55.79Z" style="fill:#f5b58b; fill-rule:evenodd;"/><path d="M695.4,615.66c1.33,5.68-1.4,11.09-6,12.21-4.63,1.04-9.43-2.68-10.75-8.36-1.29-5.62,1.39-11.1,6.02-12.14,4.61-1.11,9.43,2.61,10.74,8.29Z" style="fill:#f5b58b; fill-rule:evenodd;"/><path d="M684.66,607.37s-4.76-11.83-5.75-23.91c-.97-12.01,5.86-30.42,17.46-35.04,11.58-4.61,40.46-5.06,42.73-13.36,2.26-8.29,2.39-7.54,3.43-8.92,2.34-3.24,21.18,5.01,24,25.22,2.84,20.2-14.99,22.69-18.31,23.85-3.33,1.23-37.03-6.4-46.48-4.08-9.46,2.26-17.08,36.24-17.08,36.24Z" style="fill:#0f3970; fill-rule:evenodd;"/><path d="M525.98,475.7c-1.83,16.75-4.47,15.75-4.64,17.91-.21,2.5,15.63,32.93,15.63,32.93,0,0,46.11,89.8,48.78,94.61l80.3,65.25-19.6,49.6s-85.55-73.32-89.37-77.97c-3.83-4.58-52.51-133.3-57.15-144.53,0,0-10.31-11.32-16.55-18.63-6.23-7.31-9.03-17.1-10.48-19.43-.22-.35-4.61-8.38-7.48-19.77-2.47-9.81,4.23-1.6,4.23-1.6,0,0,7.73,17.33,8.95,16.54,.93-.64-3.83-9.91-6.68-20.75-.73-2.76-1.44-5.52-2.06-8.01-1.66-6.63,1.81-9.54,4.62-2.86,1.01,2.34,2.55,6.34,3.29,9.3,.77,3.17,2.49,5.92,3.57,8.53,2.1,5.16,3.56,8.95,3.72,8.73,.21-.28,1.31,.46,.64-2.5-.84-3.59-4.2-10.81-5.03-16.14-.46-3.04-1.81-9.33-1.81-9.33,0,0-.3-9.85,.24-10.06,3.01-1.09,5.08,5.6,5.17,9.82,1.42,2.68,2.65,9.32,2.65,9.32,0,0,5.42,12.87,7.2,12.15,.77-.29-1.65-8.64-2.77-17.15-1.04-7.88-.82-16,.66-16.45,2.53-.74,4.59,7.96,4.59,7.96,0,0,1.14,6.15,1.67,8.15,.62,2.34,2.99,9.3,2.99,9.3,0,0,9.36,23.76,10.98,22.9,1.63-.86,4.92-4.74,4.84-6.4-.08-1.66-1.8-4.68-1.89-6.34-.07-1.67,1.21-3.91,3.19-4.16,1.98-.24,5.42,7.74,5.42,7.74,0,0,2.74,6.47,2.21,11.34Z" style="fill:#f5b58b; fill-rule:evenodd;"/><path d="M624.11,648.47c3.11-.82,33.11,35.8,76.78,39.89,1.41,19.81-9.41,121.88-33.49,109.63-15.75-38.65-78.91-104.2-78.91-104.2,0,0,25.62-42.71,35.62-45.31Z" style="fill:#6998d0; fill-rule:evenodd;"/><path d="M1935.94,1305.53s39.45,28.47,45.66,36.93c8.94,12.23-66.82,35.07-58.57,20.76,1.9-3.26,7.36-14.39,7.61-15.43,1.25-5.86-14.81-21.5-14.81-21.5l20.11-20.76Z" style="fill:#f4ae7c; fill-rule:evenodd;"/><path d="M1902.55,1387.18l26.79-37.89s16.7-3.86,33.89-23.21c0,0,15.42,5.86,24.91,18.69,0,0-17.93,19.28-45.57,41.08,0,0-16.38,14.45-39,22.17-22.65,7.64-1.02-20.83-1.02-20.83Z" style="fill:#142d4d; fill-rule:evenodd;"/><path d="M2265.61,787.21s-4.86,4.3-6.57,5.64c-2.01,1.48-8.38,5.64-8.38,5.64,0,0-23.02,13.05-23.8,11.34-.78-1.7-.75-6.67,.39-8.01,1.14-1.26,4.45-2.67,5.59-3.93,1.15-1.34,1.54-3.93,.07-5.41-1.46-1.49-9.32,2.81-9.32,2.81,0,0-6.38,3.55-9.05,7.86-9.24,14.76-6.43,15.65-7.66,17.5-1.47,2.22-33.75,16.9-33.75,16.9,0,0-96.55,40.11-101.75,42.34h-.07c-.71,4.45,1.69,8.53,2.92,12.53,2.31,13.79,6.42,14.68,9.54,27.95,14.81-7.49,117.31-63.92,127.74-69.85,0,0,15.61-2.67,25.35-4.59,9.77-2,18.26-8.23,20.93-9.2,.4-.15,9.12-3.86,18.73-11.34,8.26-6.38-2.42-4-2.42-4,0,0-17.37,9.27-17.83,7.78-.34-1.11,9.43-5.63,18.65-12.6,2.37-1.78,4.7-3.56,6.84-5.27,5.6-4.29,4.62-8.89-1.94-5.26-2.32,1.33-6.11,3.56-8.6,5.49-2.69,2.15-5.81,3.26-8.35,4.67-5.02,2.89-8.65,5.04-8.65,4.82,0-.37-1.37-.52,1.11-2.52,2.93-2.37,10.31-6.07,14.38-9.93,2.33-2.15,7.44-6.45,7.44-6.45,0,0,6.56-7.79,6.24-8.31-1.74-2.82-7.69,1.33-10.46,4.67-2.85,1.26-8.1,5.93-8.1,5.93,0,0-12.66,7.05-13.65,5.27-.41-.74,6.87-5.93,13.21-12.17,5.91-5.78,10.95-12.53,10.01-13.86-1.59-2.15-8.81,3.55-8.81,3.55Z" style="fill:#f4ae7c; fill-rule:evenodd;"/><path d="M1791.35,455.16s-1.3,6.08-1.6,8.15c-.32,2.45-.72,9.86-.72,9.86,0,0,.18,25.88,2.09,25.8,1.92-.08,6.3-2.3,6.87-3.85,.57-1.56,.07-5.12,.64-6.67,.57-1.56,2.71-3.04,4.74-2.45,2.03,.67,2.24,9.41,2.24,9.41,0,0,.14,7.12-2.28,11.35-8.37,14.61-10.57,12.61-11.56,14.46-1.22,2.3,2.3,37,2.3,37,0,0,13.79,102.11,14.5,107.59l.04,.08c-3.58,2.59-8.44,2.3-12.55,2.96-13.33,4.08-16.23,.89-29.56,4.08-.93-16.31-3.35-130.8-3.47-142.52,0,0-5.57-14.83-8.8-24.25-3.22-9.41-2.1-19.57-2.6-22.32-.08-.44-1.21-9.72,.47-21.36,1.44-10.08,4.75,.3,4.75,.3,0,0,.73,19.28,2.24,19.06,1.19-.23,.17-10.75,1.65-21.88,.36-2.89,.75-5.71,1.12-8.31,1-6.83,5.52-8.01,5.63-.67,.06,2.6,.03,6.9-.46,9.94-.48,3.34,.14,6.53,.14,9.42,.02,5.64-.05,9.71,.2,9.63,.3-.15,1.09,.97,1.59-2,.61-3.71,.15-11.79,1.45-17.06,.72-2.97,1.88-9.34,1.88-9.34,0,0,3.59-9.19,4.21-9.12,3.35,.3,2.74,7.34,1.2,11.2,.32,3.04-1.09,9.72-1.09,9.72,0,0,.2,14.16,2.23,14.31,.86,0,1.78-8.67,4.04-16.98,2.1-7.71,5.5-15.13,7.12-14.84,2.74,.37,1.35,9.27,1.35,9.27Z" style="fill:#f4ae7c; fill-rule:evenodd;"/><path d="M1996.28,1013.23l-6.23,30.85-156.86,142.67,112.27,113.67-30.3,30.92s-165.84-121.76-171.81-137.7c-9.23-24.54,118.87-187.31,118.87-187.31l134.07,6.9Z" style="fill:#142d4d; fill-rule:evenodd;"/><path d="M2106.2,1387.62s39.45,28.47,45.65,36.92c8.95,12.24-66.81,35.08-58.55,20.76,1.9-3.26,7.35-14.31,7.61-15.42,1.25-5.86-14.81-21.5-14.81-21.5l20.1-20.76Z" style="fill:#f4ae7c; fill-rule:evenodd;"/><path d="M2072.76,1469.41l26.79-37.89s17.8-3.19,34.97-22.47c0,0,14.34,5.19,23.83,17.95,0,0-17.93,19.35-45.54,41.08,0,0-16.39,14.53-39.02,22.17-22.64,7.64-1.03-20.84-1.03-20.84Z" style="fill:#142d4d; fill-rule:evenodd;"/><path d="M1990.91,1027.54l-7.05,194.72,132.62,162.61-31.07,28.62s-153.99-132.14-170.88-168.92c-10.49-22.91-45.77-229.21-45.77-229.21l122.15,12.17Z" style="fill:#0f3970; fill-rule:evenodd;"/><path d="M1864.38,1011.6c12.76-28.85,11.3-235.21,60.95-283.56,17.46,2.89,29.92,4.6,32.83,5.34,2.59,21.29,5.44,99.29,7.19,170.77,1.17,47.68-.04,97.66,5.82,123.99,3.65,16.31-118.43,9.71-106.8-16.54Z" style="fill:#fff; fill-rule:evenodd;"/><path d="M1998.78,744.06c13.94,3.11,24.19,9.64,42.44,36.63,17.5,25.87,56.34,82.9,56.34,82.9l102.3-45.45,4.77,51.84s-115.71,60.13-132.03,54.72c-16.34-5.41-58.05-65.25-61.46-69.78-.77-1.04,2.92,72.29,2.92,83.94s18.94,104.85,18.94,104.85c0,0-56.28,13.87-67.27-11.34-33.68-77.12-7.82-299.05-7.82-299.05,0,0,30.83,8.45,40.87,10.75Z" style="fill:#406fb5; fill-rule:evenodd;"/><path d="M1913.8,740.05s-22.82,61.03-39.42,52.8c-16.58-8.31-107.09-106.93-108.02-111.52-.92-4.6-7.37-121.17-7.37-121.17l36.85-7.41,24.72,94.61s64.67,66.07,78.5,72.52c13.83,6.45,14.74,20.17,14.74,20.17Z" style="fill:#406fb5; fill-rule:evenodd;"/><path d="M1859.41,1025.39c-11.17,0-15.3-1.56-22.71-3.78,0,0,21.24-119.75,33.58-238.54,4.89-46.94,9.43-66.15,28.79-62.74,5.59,.97,20.73,6.75,26.24,7.71-48.63,137.55-48.79,243.52-55.68,274.22-3.45,15.42-6.46,23.2-10.21,23.13Z" style="fill:#406fb5; fill-rule:evenodd;"/><path d="M1930.44,707.21l-5.09,20.83s-1.16,18.09,7.23,19.72c10.13,1.93,25.2-13.2,25.2-13.2l8.72-58.66-36.06,31.3Z" style="fill:#f3a992; fill-rule:evenodd;"/><path d="M1930.44,707.21l-5.09,20.83s-1.16,18.09,7.23,19.72c10.13,1.93,25.2-13.2,25.2-13.2l8.72-58.66-36.06,31.3Z" style="fill:#f4ae7c; fill-rule:evenodd;"/><path d="M1966.42,676.13l-35.98,31.07-3.79,15.57c13.74-3.33,33.34-18.46,39.77-46.64Z" style="fill:#ec724c; fill-rule:evenodd;"/><path d="M1930.33,622.22c-8.7,0-16.52,6.01-19.59,14.69-2.53,7.19-5.8,17.87-7.84,30.1-3.82,22.55,9.03,43.16,20.2,44.86,11.18,1.63,37.79-5.78,43.67-37.74,2.54-13.65,5.84-31.66-5.41-41.08-8.76-7.35-21.03-10.83-31.03-10.83Z" style="fill:#f4ae7c; fill-rule:evenodd;"/><path d="M1963.14,698.53s39.39-35.15,41.1-62.58c1.74-27.36-23.59-42.04-45.25-42.86-9.79-.3-16.41,.15-26.5,1.41-21.69,2.74-35.76,12.3-30.8,30.11,6.63,23.87,51.66,3.71,60.85,11.12,7.6,6.16-4.7,20.84,2.67,26.4,6.94,5.34,3.4,3.55,1.12,13.57-2.31,10.01-3.2,22.84-3.2,22.84Z" style="fill:#0f3970; fill-rule:evenodd;"/><path d="M1978.34,666.71c-.98,6.53-4.99,11.43-8.99,10.83-3.97-.59-6.41-6.38-5.44-12.98,.98-6.6,5-11.41,8.97-10.82,3.99,.59,6.41,6.38,5.46,12.97Z" style="fill:#f4ae7c; fill-rule:evenodd;"/><path d="M1258.04,697.81c2.96-19.81,6.04-39.66,24.31-55.72,14.78-12.95,33.19-16.64,51.14-12.12,50.84,12.81,38.53,57.87,77.44,94.6,16.63,15.66,37.78,21.05,51.38,38.31,24.62,31.1,21.19,90.78-18.87,132.27-98.1,101.66-189.67-24.39-196.22-54.29-4.87-22.22,8.91-130.3,10.82-143.05Z" style="fill:#0f3970; fill-rule:evenodd;"/><path d="M1239.86,1343.19c3.38,26.25,10.12,49.55,11.05,52.35,.48,1.31,5.16,6.31,5.67,7.61-4.16,31.54-24.36,49.24-43.13,61.6,4.7-15.73,14.32-33.56,13.37-37.18-1.55-5.73-7.32-31.97-20.71-65.26,15.17-.91,21.01-10.17,33.75-19.11Z" style="fill:#f4ae7c; fill-rule:evenodd;"/><path d="M1284.58,959.51l99.02,68.5s-43.53,49.9-59.87,68.46c-16.32,18.56-100.39,87.32-101.63,91.47-.27,.8,5.11,9.88,7.44,21.58,6.32,31.6,15.39,93.31,20.7,146.35-9.25,11.28-30.81,15.42-43.54,19.73-36.9-62.9-57.92-187.46-58.94-202.59-1.59-24.55,136.81-213.51,136.81-213.51Z" style="fill:#142d4d; fill-rule:evenodd;"/><path d="M1569.18,1103.36c-3.48,2.54-29.51,40.53-40.31,61.41-10.26-9.23-15.84-19.18-27.75-26.16,12.04-13.44,36.5-46.54,39.31-54.91,6.63-19.78,11.5-22.04,11.5-22.04,0,0,62.34,33.5,65.81,40.74,3.45,7.17-34.56-9.66-48.56,.95Z" style="fill:#f4ae7c; fill-rule:evenodd;"/><path d="M1539.03,1088.14c-5.08-.77,3.79-23.92,5.75-29.21,2.17-6,5.87-7.35,6.77-7.46,2.41-.17,71.71,37.1,82.7,48.26,.77,.75,1.98,2.99,2.14,3.45,4.92,14.23-55.52,7.21-63.37,.05-6.97-6.27-11.11-11.46-34-15.09Z" style="fill:#142d4d; fill-rule:evenodd;"/><path d="M1265.91,982.87l79.88-40.11c-.31,.23,.72,3.5,.8,3.73,9.78,30.8,50.09,16.06,70.66,69.42,14.48,37.62,17.69,167.53,17.69,167.53,0,0,36.31-30.99,74.41-63.92,3.5-2.97,34.78,26.94,34.78,26.94-47.98,96.18-130.23,138.11-141.32,134.6-37.82-11.72-111-254.46-110.92-254.49-8.17-14.22-25.98-43.69-25.98-43.69Z" style="fill:#0f3970; fill-rule:evenodd;"/><path d="M1383.77,765.08s99.52-27.84,121.75-32.71c22.26-4.79,98.8-35.83,101.74-37.1,2.93-1.36,12.09-43.21,16.63-40.42,4.53,2.79-5.77,21.17-.17,23.33,5.62,2.23,51.5-20.71,52.02-16.76,.96,7.35-27.52,15.16-26.47,18.51,1.07,3.34,28.96-10.98,32.68-6.03,3.73,5.03-27.68,11.04-28.1,13.95-.46,2.83,30.35-1.65,28.96,4.52-.77,3.31-27.51,3.3-26.21,7.1,1.3,3.8,21.83,7.08,20.6,10.9-1.25,3.74-16.88-5.12-27.28-2.14-10.37,2.98-19.52-.35-34.55,9.49-15.05,9.83-63.98,50.83-99.71,59.89-35.71,9.14-114.63,29.41-114.63,29.41l-17.25-41.94Z" style="fill:#f4ae7c; fill-rule:evenodd;"/><path d="M1266.53,763.03s-45.49-92.87-56.68-112.6c-11.23-19.81-38.99-97.62-39.98-100.73-.98-3.03,24.14-37.75,19.05-39.27-5.1-1.51-11.92,18.39-17.3,15.69-5.38-2.7-18.81-52.22-22.08-49.97-6.13,4.17,7.01,30.62,3.79,32.04-3.22,1.42-11.07-28.88-17.28-28.34-6.2,.54,10.21,27.98,8.35,30.19-1.85,2.29-19.03-23.74-22.66-18.6-1.98,2.81,15.84,22.75,12.13,24.26-3.72,1.6-19.84-11.47-21.81-8.08-1.98,3.4,15.06,9.14,19.73,18.96,4.65,9.73,13.23,14.34,15.92,32.1,2.69,17.77,4.66,81.53,21.65,114.23,16.99,32.79,54.35,105.13,54.35,105.13l42.82-15.02Z" style="fill:#f4ae7c; fill-rule:evenodd;"/><path d="M1244.71,880.15c-2.57-17.71-8.08-65.4-7.71-71.36-6.36-18.16-26.94-44.24-31.37-51.77,0,0,23.45-31.81,42.37-32.75,0,0,21.8,25.16,37.24,32.33,.21-.12,5.45,2.02,7.65,1.81,14.39-1,64.55-5.93,74.14-3.6v81.49c-2.37,4.89,.47,98.4-4.59,106.49-5.06,8.02-83.68,48.28-97.69,40.16-.54-.3-14.85-67.07-20.04-102.79Z" style="fill:#6998d0; fill-rule:evenodd;"/><path d="M1341.46,757.78c2.17-1.36,7.4-2.95,15.1-3.55,22.78-1.9,61.11-5.38,61.11-5.38,0,0,12.58,48.21,5.8,60.48,0,0-59.39,13.23-57.35,18.28l-24.66-69.83Z" style="fill:#6998d0; fill-rule:evenodd;"/><path d="M1323.73,726.39s-3.36,28.47-1.6,39.55c1.79,11.07-.87,47.19-23.38,48.79-22.48,1.6-7.27-45.25-5.86-56.32,1.42-10.99-.29-44.71-.29-44.71l31.14,12.7Z" style="fill:#f4ae7c; fill-rule:evenodd;"/><path d="M1293.21,730.56c-.23-9.23-.62-16.87-.62-16.87l31.14,12.7s-.69,5.78-1.3,13.2c-13.01,3.69-22.92-.8-29.22-9.03Z" style="fill:#ec724c; fill-rule:evenodd;"/><path d="M1329.65,647.89s12.06,6.04,17.28,20.38c5.2,14.26,2.84,52.31-26.61,63.39-29.42,11.08-44.41-17.9-39.74-41.66,4.63-23.76,16.17-54.18,49.06-42.1Z" style="fill:#f4ae7c; fill-rule:evenodd;"/><path d="M1276.24,681.18c.98,6.18,4.61,10.82,8.08,10.18,3.48-.55,5.46-6.11,4.48-12.29-1.01-6.25-4.63-10.81-8.12-10.25-3.46,.55-5.46,6.11-4.45,12.36Z" style="fill:#f4ae7c; fill-rule:evenodd;"/><path d="M1251.14,1396.32c2.12-4.92,20.53,12.07,24.91,15.56,4.93,3.95,5.12,8.06,4.94,8.92-.46,2.42-52.22,62.4-66.93,70.18-1.37,.78-4.22,.62-5.02,.29-7.78-3.69,7.57-54.3,18.45-63.85,7.05-6.1,14.03-9.21,23.66-31.1Z" style="fill:#142d4d; fill-rule:evenodd;"/><path d="M1325.98,646.24s8.22,41.74,21.74,48.47c13.52,6.74,9.29,25.69,9.29,25.69,0,0,8.95-44.06-2.25-57.32-11.19-13.18-28.77-16.83-28.77-16.83Z" style="fill:#0f3970; fill-rule:evenodd;"/><path d="M1340.4,701.2c-3.15,5.71-2.73,12.17,.98,14.48,3.7,2.21,9.3-.6,12.44-6.31,3.17-5.71,2.73-12.17-.97-14.39-3.7-2.22-9.28,.51-12.46,6.22Z" style="fill:#f4ae7c; fill-rule:evenodd;"/><path d="M406.65,930.19c2.19-4.23,1.78-9.69-1.02-13.54-2.8-3.85-7.86-5.93-12.56-5.15,1.52-7.54-4.27-17.39-11.49-20.06-7.22-2.68-16.16,.6-19.93,7.32-6.31-5.04-12.14-12.96-20.14-14.03-8-1.07-17.38,3.91-18.01,11.95-2.32-3.02-5.84-6.03-9.19-4.25-3.36,1.79-5.09,6.14-3.89,9.74-6.92-3.28-17.33-1.77-22.12,4.23-4.77,6-4.79,15.31-.04,21.32l118.39,2.48Z" style="fill:#d0d9ee; fill-rule:evenodd;"/><path d="M385.45,510.18s-6.14,1.14-11.73-2.06c-5.56-3.28-8.51-10.6-11.72-9.38-3.23,1.14,2.34,9.91,4.98,15.25,2.66,5.26,29.94,23.27,29.94,23.27l-11.47-27.08Z" style="fill:#f3a992; fill-rule:evenodd;"/><path d="M89.74,377.3s.89,6.86,1.36,9.07c.57,2.67,2.86,10.53,2.86,10.53,0,0,9.7,26.77,11.65,26.01,1.98-.76,5.69-4.73,5.7-6.56,.03-1.83-1.78-5.27-1.76-7.1,0-1.83,1.67-4.2,4.01-4.27,2.35-.08,5.77,8.92,5.77,8.92,0,0,2.75,7.4,1.81,12.67-3.33,18.23-6.36,16.85-6.71,19.22-.41,2.75,15.96,37.53,15.96,37.53,0,0,51.79,100.92,54.55,106.33l.06,.08c-2.75,4.04-7.89,5.49-11.92,7.7-12.35,9.15-16.53,6.86-29.21,15.02-6.92-16.47-51.47-134.48-55.89-146.61,0,0-11.25-13.35-18.03-21.9-6.78-8.62-9.36-19.6-10.89-22.27-.23-.39-4.81-9.61-7.38-22.35-2.18-10.98,5.07-1.37,5.07-1.37,0,0,7.83,19.68,9.29,18.92,1.15-.68-3.78-11.21-6.33-23.34-.65-3.13-1.29-6.18-1.85-9-1.48-7.47,2.79-10.3,5.62-2.75,.99,2.67,2.53,7.17,3.16,10.53,.71,3.59,2.54,6.72,3.6,9.61,2.07,5.87,3.54,10.22,3.73,9.99,.26-.3,1.53,.61,.92-2.67-.71-4.05-4.16-12.28-4.74-18.23-.33-3.36-1.47-10.37-1.47-10.37,0,0,.33-10.83,1.01-10.98,3.6-1,5.52,6.56,5.35,11.14,1.46,3.05,2.45,10.45,2.45,10.45,0,0,5.42,14.65,7.55,14.03,.91-.3-1.31-9.61-2.04-19.07-.66-8.78,.17-17.7,1.93-18,3-.61,4.81,9.08,4.81,9.08Z" style="fill:#f4ae7c; fill-rule:evenodd;"/><path d="M306.38,540.54s-19.71-17.01-31.8,7.25c0,0-11.67-5.11-18.33,6.72,0,0-20.56-4.05-22.46,26.32,0,0-10.48-.91-10.64,11.45-.15,12.35,6.85,19.9,6.85,19.9,0,0-5.33,4.88-1.6,15.87,3.17,9.31,11.22,9.99,11.22,9.99,0,0,3.71,15.87,11.18,20.06,7.46,4.19,16.73,.91,16.73,.91,0,0,3.4,8.47,11.46,6.87,8.07-1.53,17.39-10.3,26.85-7.7,9.47,2.59,32.78-3.43,32.78-3.43,0,0,25.4-14.5,14.76-40.89,0,0,12.73-13.96-.98-27.84,0,0,6.57-24.56-12.46-36.77-19.02-12.28-33.56-8.7-33.56-8.7Z" style="fill:#0f3970; fill-rule:evenodd;"/><path d="M173.71,1224.7s-31.11-.46-36.46-2.44c-5.35-2.06-28.72,25.17-22.39,37.07,3.57,6.72,12.6,4.88,12.6,4.88l6.67-7.93,39.85,4.27-.27-35.85Z" style="fill:#f4ae7c; fill-rule:evenodd;"/><path d="M362.12,1336.99s-13.59,28-17.68,32.04c-4.06,3.96,10.71,36.69,24.14,35.93,7.58-.39,9.77-9.31,9.77-9.31l-4.37-9.46,20.76-34.25-32.61-14.95Z" style="fill:#f4ae7c; fill-rule:evenodd;"/><path d="M345.31,1367.88s10.49,10.99,16.03,15.18c7.16,5.42,16.16,10.53,16.16,10.53,0,0,11.2,16.41,14.41,22.12,7.08,12.82,15.07,27.15,14.88,34.7-.07,2.44-5.24,5.57-9.88,4.58-19.35-3.89-71.7-43.1-78.93-54.24-8.33-12.97,27.33-32.88,27.33-32.88Z" style="fill:#142d4d; fill-rule:evenodd;"/><path d="M442.66,952.38c-2.23-4.73-4.34-9.08-6.39-13.12-19.52,6.33-41.61,13.35-64.34,20.59l5.6,85.28c-.64-6.56,27.48,135.48,27.48,135.48,0,0-34.75,97.34-59.84,158.59,14.23,14.57,24.62,20.52,44.01,29.45,42.2-62.09,93.41-169.35,94.28-187.05,.51-10.22-14.19-172.7-40.81-229.22Z" style="fill:#142d4d; fill-rule:evenodd;"/><path d="M266.81,994.56c11.27,58.43,29.07,146.84,33.67,176.67-37.58,9.3-124.99,45.31-141.77,46.9-4.95,14.88-6.76,32.5-.94,46.3,1.13,2.68,187.12-8.54,229.88-42.18,11.16-8.77,8.31-112.37,.02-198.26l-15.75-64.15c-37.84,12.06-72.61,23.65-105.12,34.71Z" style="fill:#0f3970; fill-rule:evenodd;"/><path d="M363.95,679.9l-42.75,10.84s-32.66,3.73-41.38,4.65c-.75,.07-18.38,169.49-20.47,232.8-2.12,63.32,5.4,73.77,5.4,73.77,0,0,58.98,7.24,101.31-.76,43.99-8.32,91.58-37.23,91.58-37.23,0,0-50.68-112.9-61.9-149.58-11.22-36.77-31.79-134.49-31.79-134.49Z" style="fill:#fff; fill-rule:evenodd;"/><path d="M279.84,695.39s-70.74-85.21-91.11-115.95c-16.66-25.17-56.28-101.69-57.89-105.96-1.59-4.12-37.62-4.57-48.09,1.53-2.84,1.6,39.77,104.51,56.43,137.76,15.4,30.74,68.05,119.61,68.05,119.61,0,0,30.7,54.69,31.15,99.24,.77,74-1.66,181.02,1.78,183.91,20.68,10.3,81.86,3.82,85.84-4.27,43.88-89.25-46.17-315.87-46.17-315.87Z" style="fill:#6998d0; fill-rule:evenodd;"/><path d="M315.99,668.61l5.58,23.65s10.67,33.79,2.01,41.42c-8.64,7.55-43.76-38.29-43.76-38.29l-2.8-61.03,38.97,34.25Z" style="fill:#f4ae7c; fill-rule:evenodd;"/><path d="M277.93,654.12c9.72,19.99,29.32,30.9,42.8,34.56l-4.74-20.06-38.97-34.25,.91,19.75Z" style="fill:#ec724c; fill-rule:evenodd;"/><path d="M223.4,597.98c.89,9.23,6.9,16.25,13.4,15.56,6.48-.62,10.99-8.62,10.07-17.93-.89-9.23-6.9-16.17-13.38-15.56-6.51,.61-11.02,8.69-10.1,17.93Z" style="fill:#0f3970; fill-rule:evenodd;"/><path d="M255.07,558.47c.55,5.34,7.37,9,15.26,8.24,7.89-.77,13.87-5.72,13.33-11.07-.51-5.34-7.35-9-15.24-8.16-7.88,.77-13.87,5.72-13.35,10.99Z" style="fill:#0f3970; fill-rule:evenodd;"/><path d="M292.23,568.39c18.24-8.32,39.62,2.21,44.44,21.43,2.09,8.31,4.27,18.84,5.63,30.43,3.28,28-8.52,56.68-21.25,57.9-12.7,1.29-49.63-13.36-54.81-53.02-3.22-24.41,6.83-47.9,25.98-56.75Z" style="fill:#f4ae7c; fill-rule:evenodd;"/><path d="M275.93,627.35c.61,6.18-2.99,11.6-8.04,12.13-5.08,.46-9.65-4.12-10.26-10.3-.61-6.18,2.99-11.6,8.04-12.05,5.08-.53,9.65,4.05,10.26,10.22Z" style="fill:#f4ae7c; fill-rule:evenodd;"/><path d="M345.92,549.01c14.15,9.16,20.33,24.48,13.78,34.32-6.58,9.84-23.36,10.45-37.52,1.3-14.15-9.08-20.32-24.41-13.75-34.26,6.54-9.84,23.34-10.45,37.49-1.37Z" style="fill:#0f3970; fill-rule:evenodd;"/><path d="M312.44,560.99c.44,4.5-4.65,8.69-11.38,9.38-6.74,.68-12.56-2.44-13-7.01-.45-4.5,4.65-8.7,11.38-9.38,6.74-.61,12.56,2.52,13,7.02Z" style="fill:#0f3970; fill-rule:evenodd;"/><path d="M352.14,592.19c.59,5.8-3.61,10.98-9.36,11.52-5.73,.61-10.87-3.67-11.44-9.46-.58-5.8,3.62-10.98,9.37-11.59,5.75-.53,10.87,3.73,11.43,9.54Z" style="fill:#0f3970; fill-rule:evenodd;"/><path d="M138.64,1222.57s-5.49,14.11-6.97,20.9c-1.9,8.85-2.75,19.15-2.75,19.15,0,0-10.04,17.01-13.92,22.35-8.62,11.9-19.2,26.01-26.17,29.06-2.24,.92-9-.38-9.44-5.49-1.72-19.68,10.82-85.59,17.91-96.87,8.17-12.97,41.34,10.91,41.34,10.91Z" style="fill:#142d4d; fill-rule:evenodd;"/><path d="M433.52,557.47c-8.14-13.65-14.95-25.56-17.08-30.44-2.19-4.88-4.09-18-6.01-23.04-1.95-5.19-3.97-9.76-5.63-11.9-.62-.76-23.2-19.6-26.42-20.52-3.98-1.07-14.34-4.35-16.59-1.6-2.23,2.82,15.13,8.93,15.13,8.93l6.45,4.11c-11.02-3.43-27.89-12.43-30.21-8.47-2.25,3.81,14.02,11.29,25.31,16.79-11.03-3.97-28.52-6.79-29.25-3.51-.66,2.97,19.46,6.11,29.86,15.56,3.82,3.51,1.94,10.22,3.26,13.96,.95,2.68,2.23,7.02,4.25,9.16l10.33,10.75c1.92,4.58,3.89,9.69,5.3,14.57,1.67,5.64,5.07,13.73,6.97,21.05,.12,.46,.24,.84,.33,1.29,9.03-3.81,17.23-9.38,24.01-16.7Z" style="fill:#f4ae7c; fill-rule:evenodd;"/><path d="M434.75,548.09s60.69,128.92,56.95,138.83c-5.42,14.5-94.83,48.44-94.83,48.44,0,0,48.4,134.79,68.97,186.05,2.07,5.11,12.31,38.83,12.64,42.11,.73,7.48-30.63,20.06-34.53,19.91-3.48-.23-51.65-140.82-76.64-210.16-8.48-23.49-15.56-47.14-31.88-66.06l-14.27-16.56s24.28-11.59,35.15-16.32c16.21-7.17,73.71-23.57,73.71-23.57,0,0-32.12-85.81-34.56-94.28-.66-2.21,33.8-16.63,39.32-8.4Z" style="fill:#6998d0; fill-rule:evenodd;"/><path d="M2004.41,261.99c1.49,20.14,16.36,35.55,33.37,34.53,17.35-1,30.4-18.55,29.24-39.2-1.31-20.59-16.35-36.45-33.7-35.44-4.47,.26-8.76,1.68-12.39,3.98l-1.49-58.27,89.05,21.51,2.48,99.64v.37c1.16,20.58,16.19,36.44,33.54,35.44,17.35-1.08,30.4-18.62,29.24-39.21-1.32-20.6-16.35-36.46-33.7-35.44-4.46,.25-8.76,1.69-12.39,3.91l-2.64-106.72c-.17-3.46-2.32-6.35-5.12-7.01l-112.02-23.94c-3.79-.77-7.1,2.63-7.1,7.1l3.46,138.75h.17Z" style="fill:#bcc9e7; fill-rule:evenodd;"/><path d="M1432.56,185.73c1.49,20.14,16.36,35.56,33.38,34.53,17.35-1.01,30.4-18.56,29.24-39.21-1.32-20.58-16.35-36.45-33.7-35.44-4.46,.26-8.76,1.69-12.39,3.98l-1.49-58.27,89.05,21.51,2.48,99.64v.36c1.16,20.59,16.2,36.45,33.54,35.44,17.35-1.07,30.4-18.62,29.24-39.21-1.32-20.6-16.36-36.46-33.71-35.43-4.45,.24-8.75,1.68-12.38,3.91l-2.65-106.73c-.17-3.45-2.31-6.34-5.12-7.01l-112.01-23.94c-3.8-.77-7.1,2.62-7.1,7.1l3.47,138.74h.16Z" style="fill:#bcc9e7; fill-rule:evenodd;"/><path d="M314.03,271.95c-1.48,20.14-16.35,35.56-33.37,34.53-17.35-1-30.4-18.55-29.24-39.2,1.32-20.58,16.36-36.45,33.7-35.44,4.46,.26,8.76,1.68,12.39,3.98l1.49-58.28-89.05,21.51-2.48,99.65v.36c-1.15,20.58-16.18,36.45-33.53,35.44-17.35-1.07-30.4-18.62-29.24-39.21,1.31-20.6,16.35-36.46,33.7-35.44,4.47,.25,8.76,1.69,12.39,3.91l2.64-106.72c.17-3.46,2.31-6.35,5.12-7.01l112.01-23.94c3.8-.78,7.1,2.62,7.1,7.1l-3.47,138.74h-.17Z" style="fill:#bcc9e7; fill-rule:evenodd;"/><path d="M543.94,53.48c8.62,28.92,30.98,50.85,67.09,65.79l2.48,99.64v.37c1.16,20.58,16.2,36.45,33.54,35.44,17.35-1.07,30.4-18.62,29.24-39.21-1.33-20.6-16.36-36.46-33.71-35.44-4.45,.25-8.76,1.69-12.39,3.91l-2.41-97.48c-.17-3.46-2.31-6.35-5.12-7.01-34.82,5.42-59.82-5.28-78.72-26.02Z" style="fill:#bcc9e7; fill-rule:evenodd;"/><path d="M1065.9,243.23c8.62,28.92,30.99,50.85,67.09,65.79l2.48,99.64v.37c1.16,20.58,16.2,36.45,33.54,35.44,17.35-1.08,30.4-18.62,29.24-39.21-1.32-20.6-16.36-36.46-33.7-35.44-4.46,.25-8.76,1.69-12.39,3.91l-2.41-97.48c-.17-3.46-2.31-6.35-5.12-7.01-34.81,5.42-59.82-5.28-78.72-26.02Z" style="fill:#bcc9e7; fill-rule:evenodd;"/><path d="M1786.17,186.67c8.63,28.92,31,50.85,67.09,65.79l2.48,99.64v.37c1.15,20.58,16.18,36.44,33.54,35.44,17.35-1.08,30.4-18.62,29.24-39.21-1.32-20.6-16.36-36.46-33.7-35.44-4.47,.25-8.76,1.69-12.39,3.91l-2.41-97.48c-.17-3.46-2.32-6.35-5.12-7.01-34.8,5.41-59.81-5.28-78.72-26.03Z" style="fill:#bcc9e7; fill-rule:evenodd;"/></svg>