<?xml version="1.0" encoding="UTF-8"?><svg id="a" xmlns="http://www.w3.org/2000/svg" viewBox="0 0 1902.91 1550.09"><path d="M916.44,191.12c218.95,0,311.19,141.87,469.26,252.15,209.21,145.97,418.4,50.95,451.9,544.12,29.81,438.94-342.2,47.52-866.73,204.75C446.35,1349.38-87.86,1412.7,70.65,903.97,229.17,395.25,407.7,191.12,916.44,191.12Z" style="fill:#e9eff8; fill-rule:evenodd;"/><path d="M680.76,751.64H200.07c3.45-14.61,16.57-25.47,32.22-25.47,.75,0,1.51,.03,2.25,.08,7.59-18.58,25.85-31.68,47.17-31.68,9.33,0,18.06,2.51,25.58,6.88,9.17-30.22,37.24-52.22,70.46-52.22,6.75,0,13.3,.92,19.52,2.63,16.08-35.51,51.82-60.2,93.33-60.2,49.23,0,90.34,34.75,100.17,81.06,.83-.03,1.65-.06,2.48-.06,31.54,0,57.56,23.59,61.41,54.07,12.87,2.41,23.12,12.25,26.1,24.9Z" style="fill:#fff; fill-rule:evenodd;"/><path d="M1756.21,866.31c16.49,15.57,23.99,34.21,22.47,55.94-39.01,26.56-59.17,51.44-60.5,74.63,45.82-40.79,80.25-40.68,95.75-15.63-11.44,13.85-19.44,61.62-16.68,83.59,4.89,38.84-5.69,73.68-35.04,86.78-6.74,15.08-13.8,23.03-21.21,23.84,7.1,43.51,13.09,87.66,17.95,132.47-4.96,2.56-12.05,2.28-15.83-.28-1.51-17.46-2.62-29.79-3.76-38.05-3.01-32.52-6.39-63.98-10.15-94.37-1.82-.21-3.62-.51-5.39-.89-34.31-7.21-21.17-28.62-52.57-35.06-19.32-3.96-36.89-20.27-41.26-34.87,20.11-6.34,45.43-13.1,71.11-8.29-13.35-18.75-40.45-17.34-77.22-12.82-13.89-27.01-33.62-24.53-25.8-66.79,10.9-58.9-27.62-75.23-14.66-146.13,18.95-7.17,44.02-6.32,75.23,2.52-13.23-19.58-38.36-27.69-75.38-24.32,7.69-20.77,7.63-47.62,3.97-59.07,13.74-9.93,27.63-9.88,41.69,.16-6.28-10.77-14.42-16.92-24.42-18.46,.5-9.23,4.47-19.55,11.92-30.94,12.32,.29,25.96,3.02,40.94,8.18-6.83,4.5-9.04,12.59-6.63,24.28,8.21-9.66,20.34-12.88,36.38-9.67,3.38,42.1,40.69,59.17,41.32,77.31-21.97,19.34-34.83,40.45-38.6,63.3,22.38-19.2,44.5-31.65,66.36-37.37Z" style="fill:#bcc9e7; fill-rule:evenodd;"/><path d="M1758.97,1307.94c-4.86-44.81-10.85-88.97-17.95-132.47-25.33-164.3-69.58-334.01-108.09-405.03,51.39,121.11,86.87,287.51,106.45,499.17,1.14,8.26,2.25,20.59,3.76,38.05,3.78,2.56,10.87,2.83,15.83,.28Z" style="fill:#aab9de; fill-rule:evenodd;"/><path d="M1693.77,760.32c-15.92,20.33-21.19,42.6-15.79,66.81,48.44,23.27,75.38,47.85,80.82,73.74-58.53-38.13-97.28-32.16-110.47-1.32,15.24,13.64,32.36,66.07,32.99,91.29,1.11,44.55,18.94,81.99,54.21,91.75,10.15,15.83,19.46,23.57,27.93,23.24-.59,50.19,.18,100.92,2.32,152.2,6.02,2.03,13.96,.51,17.78-3.01-1.26-19.92-2.11-33.99-2.23-43.48-2.14-37.13-3.69-73.12-4.62-107.97,2.01-.55,3.98-1.19,5.92-1.93,37.41-13.95,18.97-35.82,53.22-48.41,21.08-7.75,38.09-29.11,40.53-46.28-23.73-3.72-53.38-7.02-81.48,2.76,11.84-23.38,42.6-26.41,84.77-27.57,11.05-32.77,33.69-33.35,17.69-79.6-22.29-64.46,18.31-89.4-8.35-167.02-22.55-4.84-50.64,.37-84.28,15.64,11.57-24.31,38.48-37.71,80.73-40.2-12.2-22.07-16.69-52.32-14.51-65.84-17.16-8.85-32.8-6.42-46.91,7.27,5.24-13.2,13.35-21.51,24.34-24.95-2.13-10.31-8.35-21.24-18.68-32.81-13.82,2.42-28.71,7.81-44.7,16.18,8.45,3.9,12.31,12.64,11.58,26.2-10.88-9.47-25.08-11.03-42.6-4.69,3.35,47.98-35.75,73.55-33.38,94.07,28.02,18.04,46.1,39.62,54.22,64.71-28.47-17.81-55.49-28.07-81.08-30.78Z" style="fill:#d0d9ee; fill-rule:evenodd;"/><path d="M1765.79,1258.03c-2.14-51.28-2.92-102.02-2.32-152.2,.58-189.3,21.54-387.91,52.81-474.43-37.26,145.1-48.91,338.49-34.95,580.14,.13,9.5,.97,23.56,2.23,43.48-3.81,3.52-11.75,5.04-17.78,3.01Z" style="fill:#bcc9e7; fill-rule:evenodd;"/><path d="M1744.29,1288.21c70.47,0,127.6,12.85,127.6,28.71s-57.13,28.71-127.6,28.71-127.6-12.86-127.6-28.71,57.13-28.71,127.6-28.71Z" style="fill:#d0d9ee; fill-rule:evenodd;"/><path d="M1809.51,1204.43h-124.14c-5.57,0-10.13,4.56-10.13,10.13v28.5c0,5.58,4.56,10.14,10.13,10.14h124.14c5.57,0,10.14-4.56,10.14-10.14v-28.5c0-5.57-4.56-10.13-10.14-10.13Z" style="fill:#bcc9e7; fill-rule:evenodd;"/><polygon points="1808.41 1253.2 1686.48 1253.2 1698.46 1316.21 1796.44 1316.21 1808.41 1253.2" style="fill:#bcc9e7; fill-rule:evenodd;"/><polygon points="1686.48 1253.2 1808.41 1253.2 1806.24 1264.59 1688.65 1264.59 1686.48 1253.2" style="fill:#aab9de; fill-rule:evenodd;"/><path d="M150.26,766.04c-16.89,15.94-24.56,35.04-23.01,57.29,39.95,27.21,60.61,52.69,61.97,76.45-46.94-41.78-82.21-41.67-98.08-16.02,11.72,14.18,19.91,63.11,17.08,85.63-4.99,39.78,5.83,75.46,35.89,88.88,6.9,15.45,14.13,23.58,21.72,24.42-7.27,44.56-13.4,89.79-18.39,135.69,5.08,2.62,12.35,2.33,16.21-.28,1.55-17.89,2.69-30.51,3.86-38.97,3.08-33.32,6.54-65.53,10.4-96.66,1.86-.21,3.7-.52,5.53-.92,35.14-7.38,21.68-29.31,53.84-35.91,19.79-4.05,37.79-20.77,42.26-35.71-20.59-6.5-46.54-13.42-72.84-8.5,13.67-19.21,41.43-17.77,79.1-13.13,14.23-27.66,34.44-25.13,26.43-68.42-11.17-60.32,28.3-77.05,15.02-149.67-19.4-7.34-45.09-6.48-77.06,2.58,13.56-20.06,39.29-28.37,77.21-24.91-7.88-21.27-7.81-48.78-4.06-60.5-14.08-10.18-28.31-10.12-42.7,.17,6.44-11.03,14.77-17.34,25.01-18.92-.51-9.45-4.57-20.01-12.2-31.69-12.62,.29-26.59,3.09-41.94,8.38,6.99,4.6,9.26,12.9,6.79,24.86-8.41-9.88-20.83-13.19-37.27-9.9-3.46,43.12-41.67,60.62-42.32,79.19,22.5,19.82,35.68,41.43,39.53,64.83-22.92-19.66-45.58-32.42-67.97-38.27Z" style="fill:#bcc9e7; fill-rule:evenodd;"/><path d="M147.44,1218.38c4.98-45.9,11.11-91.13,18.39-135.69,25.95-168.29,71.27-342.13,110.72-414.87-52.64,124.05-88.98,294.49-109.03,511.3-1.17,8.46-2.31,21.08-3.86,38.97-3.87,2.62-11.14,2.9-16.21,.28Z" style="fill:#aab9de; fill-rule:evenodd;"/><path d="M214.21,657.46c16.31,20.82,21.7,43.63,16.17,68.43-49.61,23.84-77.21,49.01-82.77,75.53,59.95-39.06,99.64-32.93,113.15-1.35-15.61,13.97-33.16,67.67-33.8,93.5-1.14,45.64-19.4,83.98-55.53,93.98-10.39,16.21-19.93,24.14-28.61,23.8,.62,51.41-.17,103.38-2.38,155.9-6.17,2.08-14.3,.53-18.21-3.08,1.29-20.4,2.16-34.81,2.29-44.54,2.2-38.03,3.78-74.9,4.73-110.6-2.05-.56-4.08-1.22-6.06-1.97-38.31-14.29-19.43-36.69-54.51-49.59-21.59-7.93-39.02-29.81-41.51-47.4,24.3-3.81,54.68-7.2,83.46,2.83-12.13-23.96-43.63-27.05-86.83-28.24-11.32-33.56-34.51-34.16-18.12-81.53,22.83-66.02-18.75-91.56,8.54-171.08,23.1-4.96,51.88,.37,86.33,16.02-11.85-24.89-39.42-38.62-82.69-41.18,12.49-22.61,17.09-53.58,14.87-67.43,17.58-9.06,33.59-6.58,48.05,7.45-5.37-13.51-13.69-22.03-24.94-25.55,2.18-10.56,8.55-21.76,19.13-33.6,14.15,2.47,29.41,8,45.79,16.57-8.65,3.99-12.61,12.94-11.87,26.84,11.15-9.7,25.7-11.31,43.64-4.81-3.44,49.14,36.62,75.33,34.19,96.36-28.71,18.48-47.22,40.57-55.54,66.27,29.16-18.24,56.83-28.75,83.04-31.53Z" style="fill:#d0d9ee; fill-rule:evenodd;"/><path d="M140.45,1167.25c2.2-52.52,2.99-104.49,2.38-155.9-.59-193.9-22.05-397.33-54.09-485.94,38.16,148.62,50.09,346.7,35.79,594.22-.13,9.72-.99,24.13-2.29,44.54,3.91,3.61,12.04,5.16,18.21,3.08Z" style="fill:#bcc9e7; fill-rule:evenodd;"/><ellipse cx="162.47" cy="1227.58" rx="130.7" ry="29.41" style="fill:#d0d9ee;"/><path d="M95.66,1112.35h127.15c5.71,0,10.38,4.67,10.38,10.38v29.2c0,5.71-4.67,10.38-10.38,10.38H95.66c-5.71,0-10.38-4.67-10.38-10.38v-29.2c0-5.71,4.67-10.38,10.38-10.38Z" style="fill:#bcc9e7; fill-rule:evenodd;"/><polygon points="96.8 1162.3 221.68 1162.3 209.42 1226.85 109.06 1226.85 96.8 1162.3" style="fill:#bcc9e7; fill-rule:evenodd;"/><polygon points="221.68 1162.3 96.8 1162.3 99.02 1173.98 219.46 1173.98 221.68 1162.3" style="fill:#aab9de; fill-rule:evenodd;"/><polygon points="515.4 793.29 587.35 860.63 695.66 961.98 1041 700 1118.4 641.28 1190.35 708.62 1298.66 809.97 1542.59 624.93 1503.5 589.5 1708.88 564.73 1652.44 724.46 1615.83 691.29 1370.61 877.32 1293.22 936.02 1221.26 868.68 1112.96 767.34 767.61 1029.32 690.22 1088.03 618.27 1020.69 509.96 919.34 159.46 1185.23 87.5 1117.89 438.01 852 515.4 793.29" style="fill:#d0d9ee; fill-rule:evenodd;"/><path d="M521.48,798.79l71.96,67.35,102.33,95.76-.11,.08-108.3-101.35-65.99-61.75,.11-.08h0Zm602.89-151.92l.11-.08,71.96,67.34,102.33,95.76-.1,.08-108.3-101.35-65.99-61.75h0Zm569.5-80.34l24.05-3.33-59.4,166.76-6.08-5.51,56.44-159.74-15.02,1.81h0Zm-71.96,130.26l-6.08-5.51-245.22,186.03-77.29,58.63,5.97,5.59,77.39-58.71,245.22-186.02h0Zm-502.98,76.12l-5.97-5.59-345.35,261.98-77.29,58.63,5.97,5.59,77.39-58.71,345.24-261.9h0Zm-602.99,152l-350.4,265.82-5.97-5.59,350.4-265.81,5.97,5.59Z" style="fill:#aab9de; fill-rule:evenodd;"/><path d="M1242.21,988.44h370.12c10.79,0,19.62,8.83,19.62,19.62v222.96c0,10.79-8.83,19.62-19.62,19.62h-370.12c-10.79,0-19.62-8.82-19.62-19.62v-222.96c0-10.79,8.83-19.62,19.62-19.62Z" style="fill:#d0d9ee; fill-rule:evenodd;"/><path d="M1260.69,1177.82h28.54v54.4h-28.54v-54.4h0Zm304.62-79.99h28.54v134.39h-28.54v-134.39h0Zm-43.52-20.27h28.54v154.67h-28.54v-154.67h0Zm-43.52,66.12h28.54v88.54h-28.54v-88.54h0Zm-43.51-47.98h28.53v136.52h-28.53v-136.52h0Zm-43.52,55.48h28.54v81.04h-28.54v-81.04h0Zm-43.52-20.77h28.54v101.81h-28.54v-101.81h0Zm-43.52,29.84h28.54v71.97h-28.54v-71.97Z" style="fill:#fff; fill-rule:evenodd;"/><path d="M1280.97,1136.16l72.65-38.71c-.1-.53-.15-1.07-.15-1.62,0-4.71,3.81-8.53,8.53-8.53s8.52,3.82,8.52,8.53c0,.28-.02,.56-.04,.83l28.5,11.97c1.56-1.86,3.91-3.04,6.53-3.04,1.02,0,2,.18,2.9,.5l33.69-44.53c-1.01-1.4-1.61-3.12-1.61-4.97,0-4.71,3.82-8.53,8.53-8.53s8.53,3.82,8.53,8.53c0,1.41-.35,2.74-.95,3.91l31.96,31.39c1.2-.65,2.58-1.02,4.05-1.02,.96,0,1.89,.16,2.75,.46l33.87-46.58c-1.07-1.42-1.7-3.19-1.7-5.1,0-4.71,3.82-8.53,8.53-8.53s8.53,3.82,8.53,8.53c0,.73-.09,1.44-.26,2.11l29.63,18.18c1.5-1.32,3.47-2.12,5.63-2.12,4.71,0,8.52,3.82,8.52,8.52s-3.82,8.53-8.52,8.53-8.53-3.82-8.53-8.53c0-.73,.09-1.44,.26-2.11l-29.63-18.18c-1.5,1.32-3.47,2.12-5.62,2.12-.96,0-1.89-.16-2.75-.46l-33.87,46.58c1.07,1.42,1.69,3.19,1.69,5.1,0,4.71-3.82,8.53-8.53,8.53s-8.53-3.82-8.53-8.53c0-1.41,.34-2.74,.95-3.91l-31.96-31.39c-1.2,.65-2.58,1.02-4.05,1.02-1.02,0-2-.18-2.9-.51l-33.69,44.53c1,1.39,1.6,3.11,1.6,4.97,0,4.71-3.82,8.53-8.53,8.53s-8.52-3.82-8.52-8.53c0-.28,.01-.55,.04-.82l-28.5-11.97c-1.57,1.86-3.91,3.04-6.53,3.04-2.35,0-4.47-.94-6.01-2.47l-72.65,38.71c.1,.52,.15,1.06,.15,1.61,0,4.71-3.82,8.53-8.53,8.53s-8.53-3.82-8.53-8.53,3.82-8.53,8.53-8.53c2.35,0,4.47,.95,6.01,2.47Z" style="fill:#fff; fill-rule:evenodd;"/><path d="M199.48,1495.38c77.55,0,140.42,8.22,140.42,18.36s-62.87,18.36-140.42,18.36-140.42-8.22-140.42-18.36,62.87-18.36,140.42-18.36Z" style="fill:#d0d9ee; fill-rule:evenodd;"/><path d="M399.82,1373.51c77.55,0,140.42,8.22,140.42,18.36s-62.87,18.36-140.42,18.36-140.42-8.22-140.42-18.36,62.87-18.36,140.42-18.36Z" style="fill:#d0d9ee; fill-rule:evenodd;"/><path d="M1657.34,1438.99c75.38,0,136.49,7.99,136.49,17.85s-61.11,17.84-136.49,17.84-136.49-7.99-136.49-17.84,61.11-17.85,136.49-17.85Z" style="fill:#d0d9ee; fill-rule:evenodd;"/><path d="M99.81,1094.37c-7.35-10.75,8.53-13.51,8.38-25.28-.1-8.11,4.97-16.56,3.45-24.65-3.11-16.55,3.35-21.57,3.39-22.83,.38-12.54,7.89-12.86,15.36-17.09,13.25-7.5,24.77,1.68,28.53,1.92,19.15,1.25,8.55,9.48,17.12,16.91,7.06,6.11,3.72,10.74,2.99,14.42-.32,1.65-1.86,8.47,3.02,11.91,7.17,5.05-.17,18.54,4.06,19.82,16.27,4.93,9.72,6.96,9.28,18.34-.14,3.64-3.65,6.4-5.94,9.07-28.02-8.78-47.31,26.1-89.64-2.54Z" style="fill:#142d4d; fill-rule:evenodd;"/><path d="M124.75,1079.26c.83-1.93,3.04-3.12,3.79-3.74,8.11,4.39,16.71,7.09,25.73,7.17-.33,5.15-1.09,10.57-2.12,16.37-14.91-11.6-24.04-18.19-27.4-19.8Z" style="fill:#eee3ef; fill-rule:evenodd;"/><path d="M160.67,1078.61c2.2,4.63,3.68,8.96,4.46,12.98-2.36-4.26-5-6.85-10.86-8.89,1.87-1.96,1.71-4.52,2.47-6.58,2.11,1.3,3.42,2.13,3.93,2.49Z" style="fill:#eee3ef; fill-rule:evenodd;"/><path d="M167.05,1078.65c22.52,57.25,3.53,52.8-45.25,1.25-2.86,.68-5.48,1.51-7.85,2.51,6.33,5.86,8.7,15.65,7.1,29.38-.96,10.63-2.01,20.97-3.16,31,2.78,6.27,4.2,12.68,4.44,19.59,.21,6.04-.48,12.47-1.95,19.52-2.31,11.06-6.53,23.65-12.2,38.71,34.15,11.63,63.39,11.76,87.71,.4-14.1-31-12.23-40.62-10.63-61.36,1.6-33.66,22.12-23.09-12-79.72-2.33-.72-4.37-1.09-6.23-1.27Z" style="fill:#406fb5; fill-rule:evenodd;"/><path d="M154.27,1082.7c-.33,5.15-1.09,10.57-2.12,16.37-14.91-11.6-24.04-18.19-27.4-19.8-1.01,.19-1.99,.4-2.95,.63,48.78,51.56,67.77,56,45.25-1.25-2.35-.22-4.39-.13-6.38-.04,2.2,4.63,3.68,8.96,4.46,12.98-2.36-4.26-5-6.85-10.86-8.89Z" style="fill:#6998d0; fill-rule:evenodd;"/><path d="M141.5,1162.91c-9.27,.03-17.93-.32-25.96-1.05,2.1-15.89,3.93-32.58,5.5-50.08,1.6-13.73-.77-23.52-7.1-29.38-8.44,3.54-13.81,9.09-16.09,16.66-4.99,16.09-4.38,76,1.05,81.42,6.84,3,21.31,2.39,43.39-1.83-1.53-4.5-1.79-9.75-.79-15.73Z" style="fill:#6998d0; fill-rule:evenodd;"/><path d="M147.1,1165.15c-1.26,.14-3.24,.26-5.96,.38-.42,3.95-.26,7.55,.5,10.81,2.36-.43,5.36-1.06,9-1.88,6.46,1.66,14.24,1.57,23.34-.26,6.33-2.43,8.25-6.89,5.77-13.38-9.9,1.16-15.82,.78-17.77-1.11,3.46-1.76,4.68-3.79,3.67-6.09-9.72,3.56-15.91,7.41-18.55,11.54Z" style="fill:#f4ae7c; fill-rule:evenodd;"/><path d="M180.66,1147.26l69.23-10.49-14.94,29.89-69.36,10.88,1.11-2.22c2.32-.24,4.75-.62,7.29-1.12,6.33-2.43,8.25-6.89,5.77-13.38-2.25,.26-4.28,.44-6.12,.55l7.03-14.12Z" style="fill:#e3bb9b; fill-rule:evenodd;"/><path d="M179.74,1155.08l-3.04,6.06h0c.97-.08,1.99-.19,3.05-.32,2.15,5.63,.98,9.73-3.5,12.31l56.91-8.9,5.81-11.63c-7.97,2.75-16.07,4.5-24.3,5.24-1.68,1.95-4.3,3.38-6.43,3.38-1.98,0-2.96-1.24-2.62-2.98-8.49,0-17.12-1.05-25.89-3.16Z" style="fill:#9d7558; fill-rule:evenodd;"/><path d="M157.9,1175.56l7.68,1.99,1.11-2.22c-3.11,.32-6.04,.4-8.79,.23Z" style="fill:#9d7558; fill-rule:evenodd;"/><path d="M165.58,1177.55l-7.68-1.99c-2.58-.15-5.01-.51-7.26-1.1-2.44,.55-4.59,1.01-6.45,1.39l19.16,6.28,18.92-3.21,52.8-8.97-.13-3.28-50.7,7.96h0l-18.66,2.93Z" style="fill:#9d7558; fill-rule:evenodd;"/><path d="M197.55,1144.7c-2.68-2.52-4.96-5.48-6.81-8.87-1.09,3.05-2.42,6.29-3.5,10.44l10.31-1.57Z" style="fill:#6998d0; fill-rule:evenodd;"/><path d="M173.28,1079.92c8.01,13.29,13,22.88,15.94,30.2,2.9-22.73-1.25-27.84-15.94-30.2Z" style="fill:#6998d0; fill-rule:evenodd;"/><path d="M113.59,1222.36c-8.06,16.64-10.33,52.8-6.81,108.47,44.28,5.99,76.18,5.38,95.71-1.83-1.59-50.85-5.17-86.24-10.76-106.18-22.14,8.97-48.19,8.81-78.15-.46Z" style="fill:#0f3970; fill-rule:evenodd;"/><path d="M128.54,1075.53c8.11,4.39,16.71,7.09,25.73,7.17,1.64-1.73,1.72-3.92,2.23-5.82,.02-.11,.06-.21,.09-.31-1.38-1.89-2.32-3.31-1.48-6.59,.01-.05,.02-.1,.04-.15,9.77-3.28,15.83-19.7,11.87-29.37,.2-3.23,.51-6.58,.93-10.05-14.46,4.2-23.55,3.97-34.15-3.48-1.86,4.82-2.78,7.57-1.68,12.66,.25,1.76,1.14,5.52-1.21,5.86-1.08-6.11-3.31-9.49-7.43-8.03-3.68,5.89-1.48,13.29,7.34,14.82,2.59,5.35,3.71,9.02,3.35,10.98,.28,3.34-2.65,7.83-4.84,11.12-.28,.42-.55,.82-.8,1.19Z" style="fill:#f4ae7c; fill-rule:evenodd;"/><path d="M155.2,1069.63c-5.91,.67-8.6,.63-14.07-1.55,3.2,3.46,8.2,5.52,13.93,5.86-.31-1.44-.25-2.84,.14-4.3Z" style="fill:#ed7d5b; fill-rule:evenodd;"/><path d="M195.83,1380.43c1.14-15.69,1.81-32.32,2.02-49.91-9.74,2.83-22.04,4.29-36.91,4.39,3.57,15.06,8.98,31.54,11.81,47.8-14.99,40.66,5.65,74.27,2.72,100.86,4.08,6.51,10.87,21.25,21.1,26.65,3.41-.89,.86-3.99,1.99-5.77-5.28-5.48-8.58-14.08-9.91-25.79-1.21-27.82,1.17-60.56,7.17-98.24Z" style="fill:#f4ae7c; fill-rule:evenodd;"/><path d="M140.07,1374.62c3.09-12.87,8.7-25.82,12.78-39.79-10.92-.27-23.07-1.2-36.45-2.78,.22,13.2,.39,26.97,.51,41.31-21,37.13-6.93,80.51-12.54,99.17,4.09,9.7,5.18,21.85,14.27,29,3.35-.26,1.62-3.54,2.88-5.07-2.86-6.45-4.42-14.59-4.69-24.41,3.22-28,10.97-60.47,23.24-97.43Z" style="fill:#f4ae7c; fill-rule:evenodd;"/><path d="M201.88,1503.23c-7.2,.38-.63,5.78-5.31,7-10.24-5.41-15.91-20.16-19.99-26.67-2.15-3.43-3.71,.93-4.77,5.81-1.69,7.77,.44,5.06,1.4,11.26,.24,1.55-1.76,9.87-2.09,14.5-.13,1.83,.87,2.53,1.05,2.85,1.87-3.16,3.48-12.85,5.18-18.78,10.05,8.63,7.85,18.15,13.81,21.4,14.29,1.53,22.01,1.9,32.87,2.14,2.38-8.91-16.49-5.9-22.16-19.51Z" style="fill:#142d4d; fill-rule:evenodd;"/><path d="M124.99,1495.75c-6.93-.87-1.65,5.41-6.35,5.78-8.79-6.91-11.51-21.96-14.22-28.88-1.43-3.64-3.71,.26-5.62,4.74-3.03,7.14-.5,4.9-.72,10.99-.05,1.52-3.48,9.13-4.64,13.5-.46,1.72,.36,2.57,.48,2.9,2.36-2.69,5.67-11.68,8.38-17.05,8.02,9.96,4.18,18.68,9.29,22.79,13.37,3.89,20.68,5.57,30.99,7.64,3.9-8.11-14.67-8.45-17.6-22.4Z" style="fill:#142d4d; fill-rule:evenodd;"/><path d="M212.67,1153.56c1.66,0,2.23,1.35,1.27,3-.96,1.67-3.08,3.01-4.74,3.01s-2.23-1.35-1.27-3.01c.96-1.66,3.08-3,4.74-3Z" style="fill:#9d7558; fill-rule:evenodd;"/><polygon points="632.72 1469.41 791.25 1469.41 811.35 1485.83 614.32 1485.83 632.72 1469.41" style="fill:#e3bb9b; fill-rule:evenodd;"/><path d="M586.31,1035.25l-.75-1.37c-12.23,4.2-20.18,9.37-17.34,14.37,2.02,6.27,8.64,8.79,14.56,14.8,2.72-3.24,5.42-5.39,8.11-6.46,1.73-6.89,1.68-12.39-.16-16.48l-3.99-4.05-.44-.8Z" style="fill:#f4ae7c; fill-rule:evenodd;"/><path d="M762.75,1479.72c10.24-3.6,11.06-8.88,16.58-11.45,5.56-2.6,6.19-7.22,.76-12.24-4.02,3.21-8.99,7.15-11.63,5.06-1.76-1.39-7.74-1.31-8.92,.73-5.2,12.09-12.43,8.26-13.87,13.76-.16,7.33,12.37,5.8,17.07,4.14Z" style="fill:#142d4d; fill-rule:evenodd;"/><path d="M674.81,1480.09c18.9-.3,33.03-.53,39.56-2.59,7.04-2.23,5.58-6.52,1.54-13.39-17.82,8.19-13.07-1.69-21.4-.43-5.86,4.71-14.52,7.87-26.01,9.48-4.86,3.58-2.89,6.77,6.31,6.93Z" style="fill:#142d4d; fill-rule:evenodd;"/><path d="M740.13,1021.36c-3.02,.22-7.78-.36-8.63-1.43-3.21-4.08-5.44-8.33-6.26-11.01,.62-1.79,1.28-4.04,1.96-6.77,11.63-7.9,13.23-13.75,4.77-17.54-1.71,.96-3.82,3.9-6.35,8.82-2.01-.08-3.54-1.11-4.59-3.09,2.41-8.32,3.96-15.07,4.69-20.27-5.73-8.52-19.14-9.74-36.88-7.44-.82,4.72-1.5,9.73-2.02,15.01-3.14,2.89-2.74,13.61,.16,25.96-1.44,7.02,2.89,10.86,13.01,11.5,.14,2.5-.08,5.55-.25,5.89-.26,.54-1.15,1.06-2.4,1.5h0c-.34,11.6,13.92,11.21,42.78-1.16Z" style="fill:#f4ae7c; fill-rule:evenodd;"/><path d="M688.86,962.65c17.75-2.3,31.15-1.08,36.88,7.44-.73,5.19-2.29,11.95-4.69,20.27,1.04,1.98,2.57,3.01,4.58,3.09,2.53-4.93,4.64-7.87,6.35-8.82,8.45,3.79,6.86,9.64-4.77,17.54-.68,2.72-1.34,4.97-1.96,6.77,10.46-2.35,19.22-11.7,20.45-15.75,12.2-24.06-1.41-34.22-8.69-37.93-3.21-23.83-37.81-2.77-55.15-14.25-6.89,9.52,1.63,21.46,7,21.67Z" style="fill:#142d4d; fill-rule:evenodd;"/><path d="M582.36,1063.57c8.78,37.6,24.21,66.78,46.29,87.55,7.95-2.41,15.01-7.85,21.17-16.31-.33,27.2,.35,54.28,2.04,81.22,16.11,7.64,37.5,7.15,64.16-1.48l10.82-13.32c2.78-.54,9.09,2.53,12.12,7.21,25.32-19.33,42.4-40.1,52.48-60.74-2.72-44.34-8.75-79.33-18.07-104.96-4.71-7.24-15.79-14.37-33.22-21.38-28.86,12.37-43.12,12.75-42.78,1.16-8.48,2.79-19.74,7.72-33.78,14.79-11.69,8.89-21.65,32.98-29.89,72.25-13.39-16.77-27.28-34.56-41.67-53.36-3.2,.91-6.42,3.36-9.67,7.37h0Zm150.3,125.63c-8.39-27.61-3.76-61.67,13.9-102.18,4.45,19.99,9.26,39.66,14.42,59.02-6,2.85-15.44,17.24-28.32,43.16Z" style="fill:#6998d0; fill-rule:evenodd;"/><path d="M735.79,1225.19c-4.09-.32-10.69-3.87-19.79-10.64-26.67,8.63-48.05,9.12-64.16,1.48-2.87,45.36,8.28,92.91,22.43,145.91,13.85,23.27,13.27,39.63,20.65,93.31,4.1,2.93,10.88,2.5,20.33-1.27,3-45.78,.93-76.08-10.95-93.16,1.86-15.35-3-53.07-3.23-76.76,8.65,19.26,14.58,45.29,25.83,71.56,13.71,32,23.26,66.25,30.49,97.48,7.65,1.49,14.82,.61,21.52-2.63-7.69-51.34-16.19-86.68-25.54-106.01,.36-50.48-4.44-95.82-14.42-136.02-1.86,4.75-2.91,10.33-3.15,16.76Z" style="fill:#0f3970; fill-rule:evenodd;"/><path d="M716.01,1214.55c9.1,6.78,15.69,10.33,19.79,10.64,.24-6.43,1.29-12.01,3.15-16.76-3.03-4.68-9.34-7.75-12.12-7.21l-10.82,13.32Z" style="fill:#f4ae7c; fill-rule:evenodd;"/><path d="M649.81,1134.8c.88-26.42,3-48.07,6.35-64.98-8.54,35.89-16.82,59.7-24.84,71.44-5.06-.16-11.48-3.16-19.25-9,5.03,6.91,10.55,13.2,16.57,18.85,7.95-2.41,15.01-7.85,21.17-16.31Z" style="fill:#406fb5; fill-rule:evenodd;"/><path d="M726.83,1201.22c1.56-3.84,3.5-7.85,5.83-12.02-8.39-27.61-3.76-61.67,13.9-102.18-25.69,36.53-32.98,75.46-21.85,116.82l2.12-2.62Z" style="fill:#406fb5; fill-rule:evenodd;"/><path d="M711.67,1012.67c-2.84,1.41-6.72,2.22-11.66,2.45,.1,1.68,.02,3.6-.08,4.79,4.97-.96,8.88-3.37,11.75-7.24Z" style="fill:#ed7d5b; fill-rule:evenodd;"/><path d="M714.13,1464.9c-.95-3.12-1.31-6.49-1.08-10.11-7.21,2.6-12.72,3.05-16.51,1.37,.2,2.67-.1,5.14-.91,7.41,6.56-.23,3.57,7.72,18.5,1.33h0Zm47.64-4.43c2.27-.6,5.48-.35,6.69,.62,2.36,1.86,6.59-1.09,10.33-4.03-.64-1.77-1.17-3.71-1.6-5.83-4.5,1.89-9.21,2.73-14.14,2.53,.07,2.68-.36,4.92-1.27,6.71Z" style="fill:#f4ae7c; fill-rule:evenodd;"/><path d="M736.07,1231.63c-.29-2.33-.38-4.48-.27-6.44-4.09-.32-10.69-3.87-19.79-10.64-2.16,.69-4.29,1.34-6.38,1.94,6.4,6.66,15.21,11.71,26.44,15.15Z" style="fill:#3860a7; fill-rule:evenodd;"/><path d="M478.73,1012.59c5.88-3.53,20.77,10.46,33.27,31.26,12.5,20.8,17.87,40.52,12,44.05-5.87,3.53-20.77-10.47-33.27-31.26-12.5-20.8-17.87-40.53-12-44.05Z" style="fill:#0f3d86; fill-rule:evenodd;"/><path d="M563.78,993.95l12.22-7.35c2.78-1.66,8.75,3.16,13.33,10.78,4.58,7.62,6.04,15.15,3.26,16.82l-12.22,7.35c2.78-1.67,1.32-9.2-3.26-16.82-4.59-7.62-10.55-12.45-13.33-10.78Z" style="fill:#406fb5; fill-rule:evenodd;"/><path d="M577.11,1004.73c-4.24-7.05-9.66-11.7-12.64-11.04-26.46,12.54-53.4,18.86-80.8,18.96,7.24,2.76,18.53,14.89,28.34,31.21,9.93,16.51,15.36,32.35,14.23,39.94,14.38-25.83,32.61-46.73,54.7-62.72,1.99-2.33,.42-9.3-3.81-16.35Z" style="fill:#6998d0; fill-rule:evenodd;"/><path d="M500.2,1044.45l8.38-6.01c1.15,1.75,2.29,3.56,3.41,5.42,1.47,2.44,2.84,4.87,4.1,7.25l-9.33,4.26c-3.19,1.45-6.94,.83-8.75-2.18h0c-1.81-3-.67-6.7,2.18-8.74Z" style="fill:#406fb5; fill-rule:evenodd;"/><path d="M591.47,1033.24l-6.48,3.89c2.16,.58,4.1,1.63,5.83,3.16l3.6-2.17c2.02-1.21,3.35-3.14,3.89-5.26,.53-2.12,.25-4.45-.96-6.47l-6.63-11.04-4.89,2.93,6.63,11.05c.4,.66,.49,1.44,.31,2.15-.17,.71-.62,1.35-1.29,1.76h0Zm-22.35,13.16h0c.91,1.51,1.99,2.31,3.24,2.41,3.77-.86,7.66-2.52,11.68-4.99,.69-.4,1.21-.76,1.57-1.09,.09,.17,.18,.35,.27,.52l-12.74,7.66c-2.01,1.21-4.33,1.48-6.47,.95-2.13-.52-4.06-1.86-5.27-3.88l-3.96-6.58c1.37-1.41,2.76-2.79,4.17-4.14l4.68,7.78c.41,.67,1.05,1.11,1.76,1.29h0c.35,.1,.71,.11,1.07,.07Z" style="fill:#0f3d86; fill-rule:evenodd;"/><rect x="614.32" y="1485.83" width="197.03" height="64.26" style="fill:#9d7558;"/><ellipse cx="1207.3" cy="1513.14" rx="169.06" ry="20.83" style="fill:#d0d9ee;"/><path d="M1221.1,1219.69c9.01,6.28,16.55,52.93,17.29,139.95,.96,32.65-4.71,75.9-12.04,132.75-5.97,2.56-14.75,2.91-21.42,2.56-9.3-70.55-10.82-115.6-3.89-134.08-8.99-22.7-16.54-46.31-22.29-70.41-4,33.44-8.72,59.97-14.15,79.6-12.06,31.43-29.93,72.58-53.6,123.47-5.47,.74-15.21-.9-20.87-4.6,8.27-62.26,24.1-109.04,38.99-124.53-14.17-79.57-2.38-121.01,15.21-145.33,31.38,4.67,58.62,4.35,76.77,.62Z" style="fill:#0f3970; fill-rule:evenodd;"/><path d="M1122.79,1195.33c-23.47-90.99,2.09-124.13,52.36-124.53,3.32,8.83,9.25,17.86,17.8,27.09,3.53-6.74,7.36-11.87,11.49-15.39,4.41,2.89,8.84,7.43,13.27,13.62,.77-9.42-.11-17.56-2.65-24.41,18.08,1.26,46.28,10.21,84.58,26.87,21.05-6.93,47.46-14.72,77.13-21.02l.1,.08-.21,.54c2.34,2.37,5.1,8.37,5.95,13.15,.48-.13,.78-.21,1.12-.29l.5,1.43c-24.77,15.63-48.86,24.79-83.19,34.16-21.79-.17-43.81,.68-66-7.11-.32,65.44-4.92,92.65-13.94,100.17-8.65,1.77-19.37,2.78-31.61,2.83-.8,1.48-1.39,3.91-1.98,6.24-5.77-1.78-12.1-4.73-19.09-7l-1.92-.78c-19.24-7.8-32.54-15.77-43.72-25.65Z" style="fill:#6998d0; fill-rule:evenodd;"/><path d="M1246.45,1514.7c-17.93,.84-31.34,1.46-37.64-.1-6.8-1.69-5.68-5.84-2.26-12.6,6.71,2.19,13.46,1.63,20.26-1.68,5.83,4.12,14.24,6.6,25.21,7.44,4.82,3.11,3.14,6.24-5.57,6.94h0Zm-139.59,2.66c-9.95-2.81-18.52-4.75-22.08-7.26-4.77-3.35-2.18-7.39,2.68-12.46,5.79,4.04,12.41,5.47,19.88,4.26,5.27,7.49,22.41,4.34,24.1,9.47,2.1,9.55-20,7.28-24.57,5.99Z" style="fill:#1d2a53; fill-rule:evenodd;"/><path d="M1140.29,1208.14c8.17,4.93,17.52,9.35,28.13,13.62-7.68-.57-15.74-1.45-24.09-2.7-1.76-3.74-3.08-7.27-4.04-10.92h0Zm77.15-108.04c-1.98-3.32-4.21-6.62-6.49-9.67,.46-.45,.83-.89,1.13-1.29,1.87,2.02,3.74,4.35,5.62,6.96-.05,1.37-.13,2.7-.25,4h0Zm17.61,19.42c.09-3.78-.2-9.12-.87-16,1.56,7.47,4.72,13.67,9.48,18.61-2.86-.74-5.73-1.6-8.6-2.62h0Zm-42.1-21.62c1.61-3.08,3.29-5.83,5.03-8.24,.33,.28,1.07,1.09,2.12,1.92-1.63,3.99-3.41,8.72-5.11,13.71-8.49-10.68-16.54-24.27-19.84-34.48,3.32,8.84,9.25,17.86,17.8,27.09h0Zm-3.46,124.63c5.66-.02,10.99-.25,15.94-.66-1.72-1.74-3.49-3.23-5.29-4.44l.8-1.41c-11.95-9.93-30.26-24.12-49.96-37.74,2.84-14.14,2.39-31.32-1.35-51.54,1,17.77-1.8,38.41-5.33,53.18,11.33,7.12,26.12,17.24,51.4,34.82-2.38,2-4.44,4.6-6.2,7.79Z" style="fill:#406fb5; fill-rule:evenodd;"/><path d="M1196.44,1188.39c1.66-25.62,3.68-56.8,5.71-95.48-2.16-1.1-3.67-2.83-4.18-3.26,2.07-2.86,4.22-5.25,6.47-7.15,2.54,1.66,5.08,3.87,7.63,6.63-.79,1.09-2.16,2.35-4.11,3.79,1.89,23.81,3.82,56.25,5.81,97.32-1.08,3.81-4.37,7.71-8.62,10.66-2.77-2.24-7.4-6.36-8.71-12.51Z" style="fill:#0f3d86; fill-rule:evenodd;"/><path d="M1192.95,1097.89c-8.55-9.23-14.48-18.25-17.8-27.09,1.86-3.53,4.8-7.07,6.86-8.06,9.94,10.38,16.27,16.18,22.33,19.7,.03,.02,.07,.04,.1,.07,.08-.28,.16-.56,.24-.83,1.6-5.48,3.92-11.83,4.93-18.15,2.86,2.02,3.88,5.11,5.45,8.2,2.54,6.85,3.42,14.98,2.65,24.41-1.88-2.63-3.76-4.96-5.63-6.99-2.55-2.76-5.09-4.97-7.63-6.63-2.24,1.9-4.4,4.29-6.47,7.15-1.74,2.41-3.42,5.15-5.03,8.24Z" style="fill:#6998d0; fill-rule:evenodd;"/><path d="M1160.35,1126.39c-.32-1.44-.42-3.07-.28-4.92,8.43,.74,15.99,.18,22.64-1.77,.71,1.35,1.02,2.79,.94,4.35-5.12,1.91-12.89,2.69-23.31,2.34Z" style="fill:#406fb5; fill-rule:evenodd;"/><path d="M1182.11,1062.8c1.55-1.91,2.84-4.47,3.9-7.66-.56-1.71-1.14-3.86-1.73-6.46-10.88-7.74-12.27-13.31-4.17-16.74,1.59,.94,3.54,3.78,5.84,8.5,1.92-.03,3.39-.98,4.42-2.84-2.11-7.95-3.45-14.39-4.04-19.33,5.62-7.97,18.37-8.85,35.17-6.31,.68,4.5,1.22,9.27,1.62,14.29,2.92,2.81,2.32,12.98-.68,24.64,1.23,6.7-2.97,10.25-12.59,10.65l-.13,2.04c-1.01,6.32-3.33,12.67-4.93,18.15l-.35,.77c-6.07-3.53-12.39-9.33-22.33-19.71Z" style="fill:#f4ae7c; fill-rule:evenodd;"/><path d="M1221.5,1011.95c-16.8-2.54-29.55-1.66-35.17,6.31,.59,4.94,1.93,11.38,4.04,19.33-1.03,1.86-2.5,2.81-4.42,2.84-2.3-4.72-4.25-7.56-5.84-8.5-8.11,3.42-6.72,9,4.17,16.74,.59,2.6,1.17,4.75,1.73,6.46-9.89-2.44-18.01-11.5-19.1-15.37-11.09-23.09,2.04-32.46,9.03-35.83,3.54-22.55,35.95-1.86,52.64-12.41,6.35,9.17-1.98,20.33-7.08,20.42Z" style="fill:#142d4d; fill-rule:evenodd;"/><path d="M1197.14,1059.96c3.08,.85,9.15,1.69,12.7,1.57l-.13,2.04c-.2,1.23-.44,2.45-.72,3.68-.04-.01-.07-.02-.11-.04-5.5-1.92-9.41-4.33-11.74-7.25Z" style="fill:#ed7d5b; fill-rule:evenodd;"/><path d="M1210.95,1090.43c.41-.4,.78-.83,1.13-1.29-3.7-3.93-6.34-6.07-7.9-6.41-1.12,2.02-2.53,5.1-4.07,8.84-1.05-.83-1.79-1.65-2.12-1.92,1.98-2.74,4.05-5.05,6.2-6.92,2.04,1.66,4.3,4.23,6.78,7.7Z" style="fill:#1d2a53; fill-rule:evenodd;"/><path d="M1106.87,1493.67c-.79,2.71-1.1,5.51-.93,8.42-6.12,.73-11.67-.36-16.63-3.26,1.41-2.65,2.47-5.51,3.17-8.58,4.29,2.07,9.85,3.24,14.39,3.43h0Zm101.15,8.76c.29-2.53,.42-5,.37-7.38,4.71,.05,9.96-.3,14.41-1.47,.51,3.05,1.41,5.49,2.69,7.34-5.85,2.55-11.67,3.05-17.46,1.51Z" style="fill:#f4ae7c; fill-rule:evenodd;"/><path d="M1376.67,1078.19c2.21-5.92,4.91-9.33,8.09-10.24,7.15-3.19,13.5-6.77,19.03-10.75,2.23,2.72,.46,5.55-5.31,8.48-2.41,1.33-4.15,2.65-5.23,3.95,6,2.83,8.92,6.4,8.74,10.71-.85,3.32-1.93,5.23-3.23,5.73-.61,.23-1.98,.71-3.29-.75-3.26,6.5-7.47,6.76-10.79,5.53-.94,.2-1.24,.29-2.06,.5-.85-4.78-3.61-10.78-5.94-13.15Z" style="fill:#f4ae7c; fill-rule:evenodd;"/><path d="M1192.23,1216.07c5.41,2.21,10.38,4.73,14.9,7.57,4.04,6.8,5.11,12.09,3.21,15.88-3.24,3.48-6.66,1.94-9.37,1.24,.02-3.57-1.01-6.47-3.09-8.72-3.18,.75-5.26-.04-6.23-2.4-1.3-.38-2.48-.71-3.54-.99-1.08-4.86,.07-7.67,1.8-9.96,.74-.9,1.54-1.75,2.32-2.62Z" style="fill:#f4ae7c; fill-rule:evenodd;"/><path d="M332.01,1353.98l-1.11,19.52c-.4,2.47-1.99,8.57-1.99,10.82,0,8.45,37.56-7.15,29.15-10.91-.77-.34-5.94-4.81-6.19-7.69-.38-4.43-.19-11.45-.19-11.45l-19.67-.29Z" style="fill:#f4ae7c; fill-rule:evenodd;"/><path d="M357.96,1373.33s-8.81,2.59-13.33,3.22c-4.51,.67-10.49-4.77-13.68-3.3-3.51,1.63-3.75,20.24-3.75,20.24,0,0,46.24,3.51,58.08,.12,5.31-1.54-9.29-14.25-27.32-20.27Z" style="fill:#142d4d; fill-rule:evenodd;"/><path d="M404.45,1353.98l-1.11,19.52c-.41,2.47-2.01,8.57-2.01,10.82,0,8.45,37.57-7.15,29.15-10.91-.76-.34-5.93-4.81-6.19-7.69-.38-4.43-.18-11.45-.18-11.45l-19.67-.29Z" style="fill:#f4ae7c; fill-rule:evenodd;"/><path d="M430.4,1373.33s-8.82,2.59-13.34,3.22c-4.51,.67-10.47-4.77-13.67-3.3-3.52,1.63-3.75,20.24-3.75,20.24,0,0,46.23,3.51,58.06,.12,5.33-1.54-9.27-14.25-27.31-20.27Z" style="fill:#142d4d; fill-rule:evenodd;"/><path d="M436.23,843.17c1.21,9.53,2.72,8.9,2.83,10.15,.16,1.42-8.54,18.89-8.54,18.89,0,0-25.3,51.58-26.75,54.34l-45.02,37.96,11.67,28.01s47.9-42.6,50.04-45.27c2.13-2.68,28.49-76.41,31.01-82.8,0,0,5.74-6.56,9.21-10.83,3.47-4.22,4.96-9.78,5.77-11.16,.11-.17,2.53-4.81,4.05-11.33,1.31-5.6-2.42-.84-2.42-.84,0,0-4.21,9.95-4.93,9.49-.54-.38,2.08-5.68,3.58-11.87,.39-1.59,.76-3.13,1.1-4.6,.88-3.76-1.13-5.39-2.66-1.54-.54,1.33-1.39,3.59-1.78,5.31-.41,1.84-1.37,3.38-1.94,4.88-1.14,2.97-1.93,5.14-2.03,5.02-.12-.13-.75,.29-.39-1.42,.44-2.01,2.29-6.18,2.7-9.24,.23-1.71,.93-5.31,.93-5.31,0,0,.07-5.6-.25-5.72-1.72-.59-2.82,3.26-2.84,5.64-.77,1.51-1.4,5.31-1.4,5.31,0,0-2.95,7.4-3.98,7.02-.44-.17,.85-4.93,1.4-9.78,.5-4.51,.31-9.15-.54-9.36-1.45-.41-2.53,4.56-2.53,4.56,0,0-.58,3.52-.86,4.64-.32,1.38-1.6,5.35-1.6,5.35,0,0-5.08,13.58-6.02,13.12-.93-.46-2.86-2.63-2.82-3.59,.02-.92,.98-2.68,1.01-3.6,.04-.96-.72-2.21-1.86-2.33-1.13-.13-2.99,4.47-2.99,4.47,0,0-1.5,3.72-1.15,6.44Z" style="fill:#f4ae7c; fill-rule:evenodd;"/><path d="M209.77,861.52c.52,9.57-1.05,9.28-.95,10.49,.11,1.47,11.84,17.01,11.84,17.01,0,0,34.23,46.19,36.17,48.61l51.14,29.18-6.39,29.68s-54.84-33.23-57.41-35.49c-2.59-2.21-41.86-69.97-45.5-75.82,0,0-6.84-5.39-11.02-8.94-4.18-3.51-6.66-8.74-7.69-9.91-.16-.17-3.37-4.3-6.03-10.41-2.31-5.26,2.22-1.29,2.22-1.29,0,0,5.96,9.03,6.56,8.44,.46-.45-3.07-5.18-5.68-10.99-.67-1.5-1.31-2.97-1.9-4.35-1.56-3.56,.13-5.52,2.33-2,.77,1.21,2.02,3.3,2.7,4.88,.75,1.76,1.96,3.09,2.8,4.48,1.67,2.72,2.84,4.68,2.92,4.56,.08-.17,.78,.17,.11-1.47-.8-1.92-3.36-5.64-4.32-8.57-.54-1.67-1.88-5.06-1.88-5.06,0,0-1.1-5.52-.8-5.68,1.59-.92,3.37,2.68,3.82,5.02,1.03,1.34,2.34,4.97,2.34,4.97,0,0,4.25,6.73,5.17,6.19,.4-.25-1.72-4.72-3.16-9.36-1.31-4.35-1.95-8.95-1.16-9.32,1.35-.63,3.32,4.01,3.32,4.01,0,0,1.2,3.34,1.69,4.43,.57,1.3,2.55,4.93,2.55,4.93,0,0,7.46,12.5,8.3,11.87,.83-.63,2.32-3.14,2.11-4.05-.2-.92-1.45-2.47-1.66-3.39-.19-.92,.31-2.3,1.42-2.63,1.09-.29,3.75,3.85,3.75,3.85,0,0,2.14,3.38,2.29,6.14Z" style="fill:#f4ae7c; fill-rule:evenodd;"/><path d="M342.89,1106.18s56.91,135.44,59.02,147.6c1.54,8.94-.44,110.23-.44,110.23l26.91-.42,9.44-115.74-35.41-145.97-59.52,4.3Z" style="fill:#142d4d; fill-rule:evenodd;"/><polygon points="317.87 1112.53 343.81 1262.93 326.87 1363.59 357.51 1363.59 381.59 1255.37 384.9 1136.78 372.48 1098.61 317.87 1112.53" style="fill:#0f3970; fill-rule:evenodd;"/><path d="M392.21,934s6.72,30.31,11.45,35.03c0,0-24.06,16.05-22.94,22.45,1.13,6.36,26.64,125.41,26.64,125.41,0,0-52.55,27.38-85.24,22.99,0,0-24.61-135.65-30.98-142-6.36-6.36-26.14-16.43-26.14-16.43,0,0,14.78-28.38,14.78-33.44,0,0,35.1,16.34,41.01,22.24,5.93,5.94,17.4-1.54,20.17-2.75,0,0,47.02-30.89,51.24-33.49Z" style="fill:#6998d0; fill-rule:evenodd;"/><path d="M325.42,942.65l-4.44,27.84s11.68,19.43,21.01,16.55c7.85-2.42,7.17-17.8,7.17-17.8,0,0-4.27-15.84-2.99-23.83,1.27-7.94-20.75-2.76-20.75-2.76Z" style="fill:#f4ae7c; fill-rule:evenodd;"/><path d="M346.17,945.41c1.27-7.94-20.75-2.76-20.75-2.76l-.34,2.34c.64,1.55,1.42,2.89,2.38,3.93,4.92,5.23,12.6,8.4,19.25,8.65-.65-4.3-1.06-8.9-.54-12.17Z" style="fill:#ec724c; fill-rule:evenodd;"/><path d="M321.81,902.94c-.62-.21-4.98,31.98,3.31,40.84,8.28,8.86,24.42,11.75,30.21,4.76,6.41-7.69,6.09-42.3-6.8-51.42-12.88-9.11-26.73,5.81-26.73,5.81Z" style="fill:#f4ae7c; fill-rule:evenodd;"/><path d="M322.55,885.22c-4.51,.54-12.41,6.81-18.76,17.27-7.8,12.83,2,28.59,11.09,35.57,9.09,6.94,8.9,15.05,8.9,15.05l1.5-4.18c1.07-3.18,1.49-6.53,1.14-9.83-.22-2.01-.64-4.14-1.47-5.94-2.19-4.64,4.7-7.73,6.61-11.62,1.5-2.97,1.56-9.82,3.9-14.76l2.8-3.76s7.88,.71,12.75-3.55c13.94-12.25-7.36-28.43-28.46-14.25Z" style="fill:#142d4d; fill-rule:evenodd;"/><path d="M331.14,927.27c.07,3.93-1.72,7.15-4.01,7.19-2.28,.04-4.19-3.1-4.25-7.02-.07-3.93,1.73-7.15,4.02-7.19,2.27-.04,4.18,3.1,4.24,7.02Z" style="fill:#f4ae7c; fill-rule:evenodd;"/><path d="M1682.54,970.1c10.39-17.17,18.26-24.13,38.19-17.13,2.38,.83,3.39,1.28,5.42,2.71,18.33,12.93,6.17,25.54,29.18,50.49,7.43,8.07,14.3,15.59,17.66,25.28,6.08,17.48,.08,32.71-26.14,44.18-64.21,28.05-78.64-51.82-76.44-65.82,1.64-10.43,8.97-34.49,12.13-39.7Z" style="fill:#00335b; fill-rule:evenodd;"/><path d="M1616.82,1103.47s-9.6-7.85-13.05-7.89c-3.45-.03-10.01-1.76-9.75-.64,.26,1.12,5.78,2.59,4.84,3.11-.95,.51-8.97-1.64-11.22-.35-2.24,1.29-7.5,6.64-3.27,8.97,4.23,2.33,16.91,6.04,20.19,5.61,3.27-.44,10.69-.96,10.69-.96l1.58-7.85Z" style="fill:#f4ae7c; fill-rule:evenodd;"/><polygon points="1739.48 1395.34 1731.42 1429.27 1719.36 1429.2 1718.92 1395.34 1739.48 1395.34" style="fill:#f4ae7c; fill-rule:evenodd;"/><polygon points="1637.99 1396.79 1615.08 1429.27 1606.14 1417.8 1619.94 1392.33 1637.99 1396.79" style="fill:#f4ae7c; fill-rule:evenodd;"/><path d="M1697.46,1030.36c-.1,.05,9.68,5.12,17.03,3.11,6.91-1.89,11.43-10.85,11.34-10.87-2.93-.59-3.78-4.61-3.71-21.91l-1.32,.26-22.27,4.41s.5,7.01,.52,13.61c.01,5.54-.32,10.8-1.59,11.39Z" style="fill:#f4ae7c; fill-rule:evenodd;"/><path d="M1722.64,956.81s-10.99-11.69-24.77-.59c0,0,8.02-1.39,24.77,.59Z" style="fill:#6998d0; fill-rule:evenodd;"/><path d="M1698.53,1005.37s.5,7.01,.52,13.61c12.46-.35,19.05-11.72,21.75-18.02l-22.27,4.41Z" style="fill:#ed9357; fill-rule:evenodd;"/><path d="M1723.09,998.54s6.52-10.32,8.09-19.14c1.12-6.3-2.09-29.65-25.55-26.28,0,0-6.81,.67-13.22,5-5.09,3.44-12.45,10.87-4.23,31.23l2.14,6.88,32.76,2.31Z" style="fill:#142d4d; fill-rule:evenodd;"/><path d="M1609.78,1408.9l11.8,.36,12.78,.39s29.51-32.86,46.06-85.52c.38-1.22,.79-2.46,1.22-3.72,9.06-26.41,27.84-59.57,37.74-89.58,1.58-4.78,2.99-9.27,4.26-13.53,.41-1.37,.8-2.71,1.18-4.02,7.29-25.34,9.41-41.98,11.35-59.76l-71.46,.58s-11.53,121.38-54.92,254.81Z" style="fill:#0f3970; fill-rule:evenodd;"/><path d="M1674.71,1113.03c.18,34-4.99,48.59-4.99,48.59,0,0,30.6,15.54,66.96,4.1,.43-.14,30.11-6.91,30.11-6.91-.61-1.38-6.02-24.29-6.62-25.56-7.68-16.48-13.51-23.71-14.42-28.79-1.69-9.46-1.72-19.25-.88-28.49,2.22-24.45,8.82-44.75,8.82-44.75-9.91-2.25-19.19-6.21-29.5-10.08-2.37,2.96-9.62,6.05-15.91,5.9-7.24-.16-9.59-3.26-9.22-6.65-7.72,4.29-13.88,8.35-13.88,8.35-6.56,11.4-19.87,22.46-20.83,39.95-.24,4.3,10.35,43.36,10.36,44.32Z" style="fill:#fff; fill-rule:evenodd;"/><path d="M1694.36,1011.62s29.48,.49,29.5-17.88c.02-18.36,3.84-30.66-14.98-31.75-18.82-1.08-22.49,5.92-23.98,12.05-1.5,6.12,1.8,36.99,9.46,37.58Z" style="fill:#f4ae7c; fill-rule:evenodd;"/><path d="M1695.46,961.54s8.07,21.54,20.46,24.73c12.39,3.18,17.76-.14,17.76-.14,0,0-9.5-7.55-11.48-20.73,0,0-20.65-14.12-26.74-3.87Z" style="fill:#142d4d; fill-rule:evenodd;"/><path d="M1695.31,963.23s-6.03,4.81-7.5,9.48c-1.47,4.68-2.12,14.3-4.93,13.97,0,0-6.08-14.64,.75-22.92,7.24-8.78,11.68-.53,11.68-.53Z" style="fill:#142d4d; fill-rule:evenodd;"/><path d="M1731.83,1427.37s-.98,6.72,1.53,13.91c0,0,1.98,9-6.88,9.17-8.86,.17-11.04-.67-10.03-6.18,1-5.51,2.91-15.06,2.91-15.06l12.47-1.83Z" style="fill:#f4ae7c; fill-rule:evenodd;"/><path d="M1715.28,1455.79h19.41c.8-3.99-.96-12.51-1.25-14.14-.02-.13-.04-.22-.06-.28,0-.06-.01-.09-.01-.09-10.03,9.19-16.31-.24-16.31-.24,0,.02-.01,.03-.02,.05-1.47,3.6-1.78,13.29-1.76,14.69Z" style="fill:#142d4d; fill-rule:evenodd;"/><path d="M1584.79,1445.17s16.33-18.14,21.35-27.37l12.15,6.23-27.15,25.5-6.36-.83v-3.53Z" style="fill:#f4ae7c; fill-rule:evenodd;"/><path d="M1574.41,1455.79h20.55c3.03,0,5.44-5.02,8.71-11.54,1.34-2.68,4.33-4.14,7.4-4.95l-.08,16.49h4.75l4.36-17.43c2.89-5.32,.23-10.15-1.81-14.34-2.37-.01-8.73,1.62-20.8,15.21-3.96,4.47-8.35,6.05-12.69,5.93-.06,.03-.12,.07-.18,.09-10.03,4.51-10.2,10.54-10.2,10.54Z" style="fill:#142d4d; fill-rule:evenodd;"/><path d="M1621.58,1409.26l12.78,.39s29.51-32.86,46.06-85.52c.38-1.22,.79-2.46,1.22-3.72,9.06-26.41,27.84-59.57,37.74-89.58,1.58-4.78,2.99-9.27,4.26-13.53,.41-1.37,.8-2.71,1.18-4.02l-10.52-7.99s-31.59,51.16-41.38,99.31c-8.5,41.83-42.53,92.14-51.33,104.66Z" style="fill:#142d4d; fill-rule:evenodd;"/><path d="M1713.2,1309.08c-.18,23.42,1,77.24,4.05,99.53h11.32c6.26,0,9.38-.09,9.38-.09,7.65-38.75,13.09-70.81,17.05-98.44,3.25-22.67,6.14-42.11,8.36-58.84,2.24-16.84,3.8-30.94,4.35-42.85,.08-1.88,.15-3.71,.19-5.48,.04-1.78,.04-3.51,.03-5.18l-61.74-6.02c.78,41.03,7.12,103.76,7.02,117.37Z" style="fill:#0f3970; fill-rule:evenodd;"/><path d="M1728.56,1408.61c6.26,0,9.38-.09,9.38-.09,7.65-38.75,13.09-70.81,17.05-98.44,3.25-22.67,6.14-42.11,8.36-58.84,2.24-16.84,3.8-30.94,4.35-42.85l-22.65,13.33s14.46,5.1,8.94,43.72c-5.51,38.62-17.75,137.7-25.42,143.17Z" style="fill:#142d4d; fill-rule:evenodd;"/><path d="M1725.65,1208.01s4.35,15.72,19.39,13.71c15.05-2.01,36.45-11.03,36.45-11.03,0,0-6.43-20.32-14.43-47.02-9.68-32.32-12.09-77.73-17.73-104.02-1.59-7.36-12.24-9.75-12.64-14.16l-12.49-24.22s-18.61,41.77-19.61,52.31c-1,10.54,21.07,134.42,21.07,134.42Z" style="fill:#6998d0; fill-rule:evenodd;"/><path d="M1736.17,1104.61c.67,17.06,6.64,46.15,30.61,58.93,.09,.05,.19,.1,.28,.14-9.68-32.32-9.55-63.32-15.2-89.6-12.88-2.69-16.06,21.15-15.69,30.53Z" style="fill:#406fb5; fill-rule:evenodd;"/><path d="M1762.49,1142.47s-10.75-2.32-13.51,.74c-2.76,3.07-4.31,7.95-1.55,9.66,2.76,1.72,10.75-2.99,13.63-1.09,2.06,1.36,2.71,4.82,4.78,3.61,2.07-1.21,4.25-9.13,4.25-9.13l-7.59-3.79Z" style="fill:#f4ae7c; fill-rule:evenodd;"/><path d="M1724.19,1021.28s29.01,1.27,35.99,7.75c6.97,6.47,48.72,56.51,49.41,69.62,.69,13.11-36.57,50.38-36.57,50.38,0,0-10.35-2.5-14.84-9.02,0,0,23.11-41.22,21.74-43.02-1.38-1.8-40.54-33.89-43.75-26.77-2.77,6.14-11.97-48.94-11.97-48.94Z" style="fill:#6998d0; fill-rule:evenodd;"/><path d="M1613.84,1099.22s33.13,11.05,37.26,10.12c4.14-.92,10.05-45.8,13.25-61.19,4.12-19.81,19.82-23.75,19.82-23.75l14.9-3.98s-17.05,42.14-17.55,50.66c-.5,8.53-2.01,139.44-2.01,139.44,0,0,1,6.02-10.53,3.51-11.54-2.5-14.55-5.02-14.55-5.02,0,0,5-36.59,7.35-69.08-11.75-2.01-49.54-21.16-49.54-21.16-5.87-9.21,1.61-19.55,1.61-19.55Z" style="fill:#6998d0; fill-rule:evenodd;"/><polygon points="353.74 181.29 240.93 270.77 289.06 305.49 353.74 181.29" style="fill:#d0d9ee; fill-rule:evenodd;"/><polygon points="216.77 254.84 349.91 182.7 176.73 246.81 216.77 254.84" style="fill:#d0d9ee; fill-rule:evenodd;"/><polygon points="216.77 254.84 237.13 312.8 240.93 270.77 353.74 181.29 349.91 182.7 216.77 254.84" style="fill:#aab9de; fill-rule:evenodd;"/><polygon points="237.13 312.8 262.26 286.15 240.93 270.77 237.13 312.8" style="fill:#8d9fca; fill-rule:evenodd;"/><path d="M207.2,289.73c3.13-1.79,5.45,2.8,2.69,4.37-1.43,.89-2.86,1.8-4.26,2.73-3.29,1.87-5.42-2.81-2.83-4.3,1.45-.96,2.92-1.89,4.39-2.8h0Zm146.76,266.2c-.81,3.24-5.81,2.05-4.98-1.28,.43-1.63,.8-3.25,1.17-4.9,.87-3.5,5.79-2,5.02,1.08-.38,1.71-.77,3.41-1.21,5.1h0Zm3.38-20.77c0,3.07-5.13,3.45-5.13-.26,.08-1.66,.14-3.33,.14-4.99,0-3.41,5.14-3.38,5.14-.02,0,1.77-.07,3.52-.16,5.28h0Zm-1.3-21.09c.44,3.48-4.23,4.21-5.04,.97-.3-1.62-.67-3.25-1.09-4.84-.84-3.39,4.17-4.5,4.97-1.32,.45,1.7,.84,3.46,1.16,5.19h0Zm-6.69-20.11c1.51,2.63-2.74,5.54-4.6,2.29-.68-1.39-1.51-3.1-2.33-4.39-1.71-3,2.8-5.47,4.44-2.59,.89,1.46,1.74,3.15,2.49,4.69h0Zm-11.65-17.65c2.24,2.69-1.79,5.87-3.89,3.36-1.09-1.27-2.18-2.49-3.33-3.71-2.32-2.32,1.22-6.05,3.69-3.57,1.22,1.29,2.38,2.57,3.54,3.92h0Zm-15.27-14.48c2.79,2.33-.72,6.08-3.14,4.07-1.31-1.02-2.68-2.04-4.04-2.99-2.81-2,.24-6.14,2.95-4.21,1.43,1.02,2.84,2.05,4.23,3.12h0Zm-17.61-11.37c3.1,1.77,.36,6.12-2.42,4.53-1.49-.8-2.98-1.56-4.5-2.31-3.29-1.88-.33-6.1,2.27-4.62,1.56,.78,3.11,1.57,4.65,2.4h0Zm-19.04-8.6c3.2,1.2,1.36,6-1.78,4.81l-4.77-1.7c-3.37-1.26-1.33-5.99,1.64-4.87,1.65,.56,3.28,1.15,4.92,1.75h0Zm-19.92-6.13c3.32,.83,2.04,5.81-1.22,4.99l-4.93-1.14c-3.51-.87-2.01-5.8,1.07-5.03l5.08,1.18h0Zm-20.48-3.86c3.33,.42,2.73,5.53-.66,5.1l-5.04-.6c-3.49-.44-2.7-5.52,.53-5.11,1.72,.19,3.44,.39,5.17,.61h0Zm-20.66-1.66c3.42,.43,3.11,5.13-.31,5.13-1.72-.1-3.45-.2-5.17-.34-3.67-.45-2.67-5.51,.39-5.12l5.09,.33h0Zm-20.29-1.84c3.31,.41,2.74,5.52-.68,5.09-1.71-.22-3.43-.47-5.14-.72-3.18-.4-2.75-5.52,.78-5.08,1.68,.25,3.36,.5,5.04,.71h0Zm-19.94-3.6c3.28,.81,2.04,5.81-1.25,4.98-1.69-.41-3.39-.83-5.06-1.32-3.05-.77-2.09-5.82,1.43-4.93,1.59,.48,3.27,.88,4.88,1.28h0Zm-19.04-6.33c2.98,1.27,1.11,6.06-2.12,4.68-1.63-.73-3.21-1.53-4.8-2.35-3.04-1.74-.37-6.14,2.48-4.51,1.36,.78,3,1.53,4.44,2.18h0Zm-16.33-10.69c2.36,2.36-1.23,6.04-3.66,3.6-1.31-1.31-2.5-2.65-3.63-4.1-1.96-2.35,1.73-5.94,4.11-3.08,.97,1.27,2.07,2.45,3.19,3.58h0Zm-9.15-16.42c.75,3.01-4.14,4.58-5.04,1.02-.35-1.84-.59-3.6-.7-5.48,0-3.71,5.13-3.33,5.13-.26,.11,1.62,.3,3.13,.6,4.72h0Zm1.16-19.12c-.77,3.09-5.81,2.08-4.94-1.41,.47-1.71,1.03-3.41,1.64-5.08,1.2-3.19,6.01-1.37,4.83,1.79-.56,1.54-1.09,3.11-1.53,4.69h0Zm7.98-18.19c-1.65,2.88-6.15,.41-4.44-2.59,.71-1.41,1.89-3.12,2.75-4.5,1.5-2.61,6.18-.46,4.3,2.81-.77,1.11-2.02,3.08-2.62,4.27h0Zm11.52-16.53c-2.23,2.68-6.1-.7-4-3.23,1.08-1.35,2.21-2.69,3.35-4.01,2.1-2.52,6.13,.67,3.89,3.36-1.1,1.27-2.19,2.57-3.24,3.88h0Zm13.61-15.01c-2.36,2.36-6.04-1.23-3.61-3.66,1.2-1.19,2.48-2.5,3.74-3.62,2.26-2.26,6.05,1.21,3.52,3.75-1.23,1.16-2.45,2.33-3.65,3.53h0Zm15.08-13.6c-2.54,2.12-5.9-1.77-3.24-3.99l4.06-3.25c2.43-2.02,5.93,1.75,3.15,4.07-1.33,.96-2.69,2.13-3.97,3.17Z" style="fill:#8d9fca; fill-rule:evenodd;"/><path d="M1182.2,507.18h-480.69c3.45-14.61,16.56-25.47,32.22-25.47,.75,0,1.51,.03,2.25,.09,7.59-18.58,25.85-31.69,47.17-31.69,9.33,0,18.06,2.51,25.57,6.89,9.17-30.22,37.24-52.23,70.46-52.23,6.76,0,13.31,.92,19.52,2.63,16.08-35.5,51.82-60.2,93.33-60.2,49.22,0,90.34,34.75,100.17,81.06,.83-.03,1.65-.06,2.48-.06,31.54,0,57.56,23.58,61.41,54.07,12.87,2.41,23.12,12.26,26.1,24.91Z" style="fill:#fff; fill-rule:evenodd;"/><path d="M1588.92,388.16h49.27c3.25-13.06,5.44-24.89,6.57-35.48,148.12-136.94,142.53-296.68,7.9-341.67-44.16-14.75-83.28-14.67-127.41,.11-134.98,45.2-140.37,204.64,7.84,341.55,1.13,10.59,3.32,22.42,6.57,35.48h49.26Z" style="fill:#bcc9e7; fill-rule:evenodd;"/><path d="M1588.9,388.16h38.29c2.53-13.06,4.23-24.89,5.11-35.48,115.12-136.94,110.78-296.68,6.13-341.67-34.32-14.75-64.72-14.67-99.03,.11-104.91,45.2-109.1,204.64,6.1,341.55,.88,10.59,2.59,22.42,5.11,35.48h38.29Z" style="fill:#e9eff8; fill-rule:evenodd;"/><path d="M1588.89,388.16h25.87c1.71-13.06,2.86-24.89,3.46-35.48,77.79-136.94,74.86-296.68,4.14-341.67-23.19-14.75-43.73-14.67-66.92,.11-70.9,45.2-73.73,204.64,4.12,341.55,.6,10.59,1.75,22.42,3.45,35.48h25.88Z" style="fill:#bcc9e7; fill-rule:evenodd;"/><path d="M1588.87,388.16h11.41c.75-13.06,1.26-24.89,1.52-35.48,34.29-136.94,33-296.68,1.83-341.67-10.23-14.75-19.28-14.67-29.5,.11-31.26,45.2-32.5,204.64,1.81,341.55,.26,10.59,.77,22.42,1.52,35.48h11.4Z" style="fill:#e9eff8; fill-rule:evenodd;"/><path d="M1551.1,449.92h75.5v48.95c0,4.15-3.41,7.54-7.54,7.54h-60.43c-4.13,0-7.54-3.4-7.54-7.54v-48.95Z" style="fill:#aab9de; fill-rule:evenodd;"/><path d="M1539.66,388.16h8.02l11.59,61.76h-8.17l-11.44-61.76h0Zm90.5,0h8.03l-11.58,61.76h-8.15l11.71-61.76Z" style="fill:#aab9de; fill-rule:evenodd;"/><rect x="1543.57" y="352.69" width="88.68" height="35.47" style="fill:#bcc9e7;"/><path d="M1206.18,462.53h49.27c3.24-13.06,5.44-24.89,6.57-35.47,148.12-136.94,142.53-296.69,7.89-341.67-44.16-14.75-83.28-14.67-127.41,.11-134.98,45.21-140.37,204.64,7.84,341.56,1.13,10.59,3.32,22.41,6.57,35.47h49.26Z" style="fill:#d0d9ee; fill-rule:evenodd;"/><path d="M1206.16,462.53h38.29c2.53-13.06,4.23-24.89,5.11-35.47,115.12-136.94,110.78-296.69,6.13-341.67-34.32-14.75-64.72-14.67-99.03,.11-104.91,45.21-109.1,204.64,6.09,341.56,.88,10.59,2.59,22.41,5.11,35.47h38.29Z" style="fill:#fff; fill-rule:evenodd;"/><path d="M1206.15,462.53h25.87c1.71-13.06,2.86-24.89,3.46-35.47,77.79-136.94,74.86-296.69,4.14-341.67-23.19-14.75-43.73-14.67-66.92,.11-70.9,45.21-73.73,204.64,4.12,341.56,.6,10.59,1.75,22.41,3.45,35.47h25.88Z" style="fill:#d0d9ee; fill-rule:evenodd;"/><path d="M1206.12,462.53h11.41c.75-13.06,1.26-24.89,1.53-35.47,34.29-136.94,33-296.69,1.83-341.67-10.23-14.75-19.28-14.67-29.5,.11-31.26,45.21-32.5,204.64,1.81,341.56,.27,10.59,.77,22.41,1.53,35.47h11.41Z" style="fill:#fff; fill-rule:evenodd;"/><path d="M1168.36,524.29h75.5v48.95c0,4.15-3.41,7.54-7.54,7.54h-60.43c-4.13,0-7.54-3.39-7.54-7.54v-48.95Z" style="fill:#aab9de; fill-rule:evenodd;"/><path d="M1156.92,462.53h8.02l11.59,61.77h-8.17l-11.44-61.77h0Zm90.5,0h8.03l-11.58,61.77h-8.15l11.71-61.77Z" style="fill:#aab9de; fill-rule:evenodd;"/><rect x="1160.83" y="427.05" width="88.68" height="35.47" style="fill:#d0d9ee;"/><path d="M511.4,631.39h49.27c3.25-13.06,5.44-24.89,6.57-35.47,148.11-136.94,142.52-296.68,7.88-341.67-44.15-14.75-83.27-14.67-127.4,.11-134.98,45.21-140.37,204.64,7.84,341.56,1.13,10.58,3.32,22.41,6.57,35.47h49.27Z" style="fill:#d0d9ee; fill-rule:evenodd;"/><path d="M511.38,631.39h38.29c2.53-13.06,4.23-24.89,5.11-35.47,115.12-136.94,110.78-296.68,6.13-341.67-34.32-14.75-64.72-14.67-99.03,.11-104.91,45.21-109.11,204.64,6.09,341.56,.88,10.58,2.59,22.41,5.11,35.47h38.29Z" style="fill:#fff; fill-rule:evenodd;"/><path d="M511.36,631.39h25.88c1.71-13.06,2.86-24.89,3.45-35.47,77.79-136.94,74.86-296.68,4.14-341.67-23.19-14.75-43.74-14.67-66.92,.11-70.9,45.21-73.73,204.64,4.12,341.56,.59,10.58,1.74,22.41,3.46,35.47h25.87Z" style="fill:#d0d9ee; fill-rule:evenodd;"/><path d="M511.35,631.39h11.41c.75-13.06,1.26-24.89,1.53-35.47,34.29-136.94,33-296.68,1.83-341.67-10.23-14.75-19.28-14.67-29.5,.11-31.25,45.21-32.5,204.64,1.82,341.56,.26,10.58,.77,22.41,1.52,35.47h11.4Z" style="fill:#fff; fill-rule:evenodd;"/><path d="M473.57,693.15h75.51v48.95c0,4.14-3.41,7.54-7.54,7.54h-60.42c-4.13,0-7.54-3.39-7.54-7.54v-48.95Z" style="fill:#aab9de; fill-rule:evenodd;"/><path d="M462.13,631.39h8.03l11.58,61.77h-8.18l-11.44-61.77h0Zm90.5,0h8.03l-11.58,61.77h-8.15l11.71-61.77Z" style="fill:#aab9de; fill-rule:evenodd;"/><rect x="466.05" y="595.91" width="88.68" height="35.47" style="fill:#d0d9ee;"/></svg>