<?xml version="1.0" encoding="UTF-8"?><svg id="a" xmlns="http://www.w3.org/2000/svg" viewBox="0 0 2114.62 1429.28"><path d="M1037.64,0c247.09,0,351.15,160.81,529.49,285.86,236.08,165.46,472.08,57.74,509.94,616.78,33.59,497.6-386.15,53.86-977.99,232.12C507.16,1313.03-95.61,1384.79,83.27,808.11,262.13,231.39,463.59,0,1037.64,0Z" style="fill:#e0e8f5; fill-rule:evenodd;"/><path d="M2043.62,276.04c5.79,1.94,3.35,10.4-2.59,8.91-2.9-.88-5.94-1.75-8.91-2.55-5.26-1.3-4.19-9.79,1.98-9.03,3.12,.68,6.47,1.79,9.52,2.66h0ZM139.98,344.48c-6.09-1.14-4.69-9.94,1.41-9.18l8.23,1.3c5.48,1.03,4.99,8.87-.53,9.26-.34,0-.65,0-.95-.08l-8.15-1.3h0Zm35.42,6.17c-5.71-1.07-4.57-9.94,1.6-9.14,3.12,.53,6.25,1.3,9.33,1.87,5.48,.99,4.65,9.52-1.29,9.14-3.12-.42-6.51-1.26-9.64-1.87h0Zm36.18,7.66c-5.71-1.45-4.19-9.9,1.79-9.1,3.08,.57,6.28,1.41,9.37,2.17,5.79,1.45,4.04,10.17-2.06,9.06-3.01-.72-6.09-1.52-9.1-2.13h0Zm35.96,8.76c-5.33-1.3-4.23-9.49,1.52-9.1,.3,.04,.53,.08,.8,.15l9.03,2.36c5.22,1.29,4.27,9.48-1.6,9.1-.31-.04-.53-.08-.8-.15-2.97-.8-5.94-1.56-8.95-2.36h0Zm35.73,9.75c-4.73-1.18-4.53-8.72,1.18-9.1,.53,0,.88,.04,1.37,.19l8.95,2.55c5.75,1.83,3.5,10.44-2.59,8.95-2.93-.95-5.94-1.75-8.91-2.59h0Zm35.54,10.51c-5.26-1.75-3.77-9.41,1.75-9.07,.34,.04,.65,.08,.95,.19l8.91,2.7c5.71,1.91,3.31,10.4-2.67,8.91l-8.95-2.74h0Zm35.5,10.97c-3.69-1.22-4.5-5.87-1.33-8.23,1.07-.8,2.74-1.11,4.08-.65,2.93,.91,5.9,1.79,8.8,2.7,5.79,1.94,3.39,10.44-2.63,8.91-2.89-.95-5.98-1.87-8.91-2.74h0Zm35.92,10.28c-5.18-1.33-4.42-9.18,1.26-9.18,.38,.04,.68,.08,1.03,.15,2.97,.76,5.94,1.45,8.91,2.21,5.37,1.33,4.46,9.14-1.14,9.14-.34,0-.65-.04-.95-.11-3.05-.72-6.05-1.45-9.1-2.21h0Zm36.64,7.88c-5.37-.99-5.03-8.84,.61-9.22,.34,0,.65,0,.99,.08,3.01,.53,6.02,1.03,9.07,1.49,5.33,.65,5.37,9.22-.91,9.22-3.12-.3-6.63-1.03-9.75-1.56h0Zm37.33,4.69c-5.79-.38-5.83-9.26,.49-9.26,3.09,.19,6.17,.34,9.26,.53,5.94,.34,5.9,8.88,.04,9.26-3.16,0-6.63-.3-9.79-.53h0Zm37.75,.15c-5.9,.38-6.97-8.46-.72-9.26,3.01-.15,6.09-.46,9.1-.8,5.56-.72,7.43,7.54,1.6,9.14-3.05,.53-6.85,.72-9.98,.91h0Zm37.48-6.21c-5.83,1.49-8.38-6.97-2.55-8.91,2.93-.8,5.83-1.68,8.68-2.67,5.67-1.9,8.84,6.44,3.12,8.72-2.97,1.07-6.17,2.06-9.26,2.86h0Zm35.31-14.86c-5.29,3.05-9.98-4.61-4.8-7.92,2.55-1.48,5.14-3.2,7.54-4.88,4.65-3.24,9.94,3.09,5.9,7.12-.19,.15-.34,.3-.57,.46-2.63,1.83-5.29,3.58-8.08,5.22h0Zm29.67-24.41c-1.49,1.6-3.7,2.02-5.6,1.07-2.7-1.33-3.39-5.03-1.37-7.2,1.98-2.25,3.88-4.53,5.75-6.89,3.31-4.38,10.36-.23,7.73,5.03-.11,.23-.23,.42-.38,.61-1.98,2.55-4,4.99-6.13,7.39h0Zm21.29-31.77c-2.7,5.41-10.97,1.52-8.34-4.11,1.33-2.67,2.51-5.41,3.66-8.11,1.98-4.99,9.64-3.24,8.88,2.48-.04,.34-.15,.61-.27,.91-1.18,3.01-2.51,5.98-3.92,8.84h0Zm11.31-36.8c-.72,5.83-9.6,5.11-9.22-.95,.3-3.09,.65-5.98,.8-9.1,.38-5.9,8.91-5.86,9.29,0,0,3.16-.46,6.86-.87,10.06h0Zm-1.49-38.51c.5,2.51-.95,4.8-3.43,5.48-2.48,.61-5.18-.99-5.67-3.54-.57-2.9-1.33-5.79-2.17-8.57-1.75-5.18,5.9-8.8,8.65-3.28,1.07,2.86,2.02,6.86,2.63,9.9h0Zm-14.51-35.8c2.93,4.61-3.2,9.83-7.31,5.71-.19-.27-.34-.42-.49-.69-1.56-2.44-3.27-4.88-5.1-7.16-3.08-4,1.26-9.29,5.79-7.01,.57,.34,1.03,.65,1.45,1.18,2.02,2.55,3.96,5.22,5.68,7.96h0Zm-28.6-26.93c4.95,2.32,2.59,9.86-2.93,8.76-.3-.08-.61-.15-.91-.34-2.48-1.14-4.95-1.91-7.62-2.4-6.06-1.1-4.65-9.9,1.45-9.18,3.5,.61,6.82,1.68,10.02,3.16h0Zm-38.51,9.37c1.52-1.94,4.15-2.4,6.21-1.14,2.29,1.48,2.89,4.61,1.26,6.7-1.68,2.21-3.27,4.72-4.57,7.2-2.48,4.99-10.36,1.94-8.49-3.69l.27-.57c1.49-2.9,3.35-5.9,5.33-8.49h0Zm-8.68,38.97c-.3-.91-.27-1.83,0-2.78,1.45-4.34,7.39-4.34,8.87-.04,.84,2.67,1.94,4.99,3.39,7.43,3.01,5.22-4.34,10.02-7.88,4.84-1.87-3.24-3.2-5.87-4.38-9.45h0Zm24.91,30.55c-4.88-3.73,.46-10.97,5.48-7.5,2.4,1.79,4.88,3.43,7.43,5.03,4.91,3.16,.72,10.74-4.69,8.04-2.7-1.6-5.64-3.69-8.23-5.56h0Zm33.1,18.74c-4.95-2.28-2.59-9.83,2.93-8.76,.3,.08,.61,.19,.91,.3,2.78,1.26,5.56,2.48,8.38,3.66,5.14,2.06,2.74,10.32-3.12,8.76l-.46-.19c-2.89-1.22-5.75-2.48-8.64-3.77h0Zm35,13.71c2.97,.99,5.94,2.02,8.95,2.97,6.02,1.6,8.46-6.97,2.78-8.87-3.01-.95-6.05-2.1-9.1-3.01-5.75-1.41-8.15,7.08-2.63,8.91h0Zm35.8,10.89c-5.33-1.33-4.19-9.83,1.98-9.03,3.05,.65,6.32,1.64,9.41,2.48,5.41,1.33,4.19,9.83-1.98,9.06-3.05-.68-6.36-1.67-9.41-2.51h0Zm36.26,9.03c-5.9-1.48-4.11-10.21,2.02-9.06l9.06,1.98c5.18,.99,4.72,9.22-1.07,9.22-.38-.04-.61-.08-.91-.11l-9.1-2.02h0Zm36.45,7.7c-5.64-1.07-4.65-9.94,1.68-9.14l9.22,1.75c5.64,1.1,4.65,9.56-1.22,9.22-3.12-.42-6.55-1.22-9.67-1.83h0Zm36.72,6.59c-6.02-1.1-4.69-9.94,1.48-9.14l9.1,1.41c5.22,.61,5.45,8.84-.57,9.22-3.16-.19-6.86-.99-10.02-1.49h0Zm37.02,5.07c-5.98-.72-5.22-9.64,.91-9.22,3.08,.3,6.17,.61,9.26,.95,6.09,.76,5.3,9.6-.88,9.22-3.08-.3-6.17-.61-9.29-.95h0Zm37.37,2.86c-6.09-.38-5.86-9.29,.34-9.29,3.05,.11,6.09,.19,9.18,.23,5.6,0,6.36,8.53,.38,9.25-3.12,.15-6.7-.08-9.9-.19h0Zm37.59-.38c-5.64,.34-7.01-8-1.03-9.22,3.16-.34,6.44-.38,9.52-.72,6.21-.42,6.97,8.46,.91,9.22-3.09,.3-6.25,.53-9.41,.72h0Zm37.4-4.57c-5.6,1.03-7.81-7.16-2.25-9.03,3.09-.72,6.36-1.22,9.48-1.94,6.09-1.14,7.96,7.58,2.02,9.07-3.05,.68-6.17,1.33-9.25,1.9h0Zm36.53-9.14c-2.17,.72-4.69-.42-5.6-2.55-1.1-2.59,.19-5.41,2.86-6.32,2.9-.91,5.83-1.87,8.72-2.82,5.64-1.87,8.84,6.44,3.09,8.76-3.01,1.03-6.02,1.98-9.07,2.93h0Zm35.31-12.68c-5.22,2.1-8.95-5.29-4.11-8.27,.23-.15,.42-.27,.65-.34,2.86-1.14,5.71-2.29,8.57-3.5,4.61-1.83,8.57,3.73,5.1,7.54-.53,.46-.91,.76-1.56,1.03l-8.65,3.54h0Zm34.32-14.59c-5.79,2.28-9.22-5.94-3.73-8.49l8.45-3.77c.99-.46,2.1-.49,3.16-.23,4.15,1.22,4.61,6.85,.65,8.72l-8.53,3.77h0Zm33.94-15.2c-1.87,.88-4.04,.34-5.41-1.14-2.02-2.44-1.26-5.98,1.64-7.31l8.49-3.81c1.49-.68,3.35-.42,4.65,.53,2.86,2.13,2.33,6.44-.91,7.96l-8.45,3.77h0Zm33.97-14.97c-3.66,1.49-7.39-1.71-6.4-5.52,.38-1.26,1.37-2.48,2.67-3.01l8.53-3.66c5.71-2.32,9.22,5.94,3.73,8.49l-8.53,3.69h0Zm34.13-14.4c-5.56,2.21-9.3-5.94-3.66-8.57,2.89-1.18,5.79-2.4,8.69-3.54,5.26-2.09,8.99,5.29,4.19,8.27-.23,.15-.38,.23-.69,.34l-8.53,3.5h0Zm34.43-13.71c-5.03,1.98-8.99-4.95-4.27-8.19,.31-.19,.54-.34,.92-.46l8.69-3.31c1.98-.84,4.57,.04,5.64,1.98,1.45,2.51,.3,5.6-2.36,6.67l-8.61,3.31h0Zm34.59-12.76c-5.18,1.75-8.99-5.83-3.2-8.68,2.97-1.1,6.25-2.02,9.37-2.9,5.87-1.49,8.46,6.97,2.51,8.91-2.74,.72-5.94,1.75-8.68,2.66h0Zm35.35-8.72c-2.29,.46-4.73-1.1-5.18-3.31-.76-2.74,.91-5.33,3.66-5.83,3.05-.53,6.24-.99,9.29-1.45,5.94-.72,7.47,8.04,1.37,9.18-3.05,.46-6.09,.91-9.14,1.41h0Zm36.34-3.73c-6.17,0-6.47-8.91-.38-9.29,3.2-.08,6.4-.19,9.52-.15,5.87,0,6.32,8.91,.15,9.29-3.12,.04-6.17,.08-9.29,.15h0Zm36.34,1.33c-5.79-.72-5.26-9.6,1.07-9.22,3.2,.42,6.25,.8,9.45,1.26,6.02,1.18,4.65,9.98-1.45,9.18-2.97-.46-6.02-.84-9.07-1.22h0Zm35.65,7.2c-5.79-1.94-3.35-10.4,2.59-8.91,3.05,.91,6.09,1.9,9.14,2.97,5.71,2.32,2.59,10.66-3.2,8.76-2.82-1.03-5.71-1.98-8.53-2.82h0Zm32.99,14.13c-4.65-2.63-1.75-10.25,4.04-8.3l.68,.34c2.82,1.6,5.41,3.31,8.15,5.14,4.65,3.24,.46,10.55-4.88,7.92l-.46-.27c-2.44-1.71-4.95-3.31-7.54-4.84h0Zm27.5,22.43c-3.35-3.73,1.29-9.9,6.09-6.97,.3,.3,.61,.49,.91,.88,2.13,2.48,4.11,4.95,6.09,7.58,3.5,4.99-3.81,10.32-7.54,5.45-1.75-2.44-3.58-4.69-5.56-6.93h0Zm18.13,30.32c-1.98-4.88,4.88-8.87,8.15-4.23,.23,.34,.38,.57,.53,.95,1.06,3.01,2.13,6.06,3.05,9.14,1.52,5.98-7.01,8.42-8.92,2.59-.83-2.86-1.75-5.64-2.82-8.46h0Zm7.31,34.74c-.3-5.29,7.69-6.89,9.14-1.29,.08,.34,.15,.57,.15,.91,.15,3.24,.15,6.47,0,9.71-.38,5.9-9.3,5.9-9.3-.42,.15-2.93,.15-6.02,0-8.91h0Zm-5.33,34.59c2.05-5.07,9.75-3.16,8.99,2.36-.08,.38-.15,.69-.3,.99-1.22,3.08-2.59,6.09-4.11,8.99-2.97,5.26-10.89,1.11-8.15-4.42,1.37-2.4,2.67-5.37,3.58-7.92h0Zm-19.96,27.73c1.83-1.41,4.42-1.3,6.09,.38,1.98,1.98,1.83,5.26-.46,6.93-2.59,2.06-5.34,3.92-8.23,5.6-4.57,2.63-9.45-3.39-5.49-7.43,.31-.23,.61-.42,.92-.61,2.44-1.52,4.8-3.09,7.16-4.88h0Zm-31.69,13.33c4.57-.57,7.16,4.95,3.66,8.08-.61,.57-1.52,.99-2.36,1.1-3.27,.49-6.4,.72-9.75,.95-.99,.04-2.21-.38-3.05-1.03-3.27-2.74-1.6-8,2.74-8.27h-.08c3.05-.15,5.87-.42,8.84-.84h0Zm-35.35-1.49c5.41,1.03,4.8,9.56-1.37,9.18-3.2-.5-6.86-1.52-9.91-2.44-5.64-1.87-3.5-10.17,2.44-8.95,3.05,.84,5.79,1.6,8.84,2.21h0Zm-31.84-13.86c4.42,3.5,0,10.66-5.33,7.66-2.67-1.87-5.48-4.38-7.85-6.7-4.19-4.23,1.91-10.85,6.55-6.59,2.13,2.02,4.19,3.89,6.63,5.64h0Zm-20.8-27.04c2.06,5.03-5.26,8.99-8.3,4-.15-.27-.3-.46-.38-.72-1.22-3.2-2.06-6.25-2.82-9.6-1.07-5.71,7.16-7.88,8.99-2.32l.08,.49v-.04c.61,2.82,1.45,5.52,2.44,8.19h0Zm-1.14-33.18c-1.68,5.07-9.75,3.5-8.99-2.25,.08-.3,.15-.53,.23-.88,1.06-3.2,2.51-6.32,4.19-9.25,1.67-2.9,5.94-3.01,7.77-.3,1.14,1.49,1.14,3.5,.23,5.07-1.45,2.36-2.51,5.03-3.43,7.62h0Zm21.63-24.68c-4.88,2.44-9.45-4.08-4.88-7.81,.15-.19,.38-.3,.61-.46,2.97-1.52,5.94-2.82,9.14-3.92,5.64-1.91,8.84,6.44,3.12,8.76-2.74,.91-5.41,2.1-8,3.43h0Zm33.75-7.58c-2.21,0-4.11-1.6-4.49-3.73-.61-2.63,1.22-5.1,3.81-5.48,.3-.04,.46-.04,.76-.04l-.08,9.26h0Zm35.73,5.33c-5.94-1.45-4.12-10.21,1.98-9.06,3.05,.69,6.09,1.41,9.14,2.13,5.34,1.33,4.42,9.18-1.22,9.18-.3-.04-.61-.08-.91-.15-3.05-.72-6.02-1.41-8.99-2.1h0Zm35.96,8.84c2.97,.76,6.01,1.56,9.06,2.32,6.17,1.14,7.85-7.62,2.21-9.03-3.05-.8-6.09-1.6-9.14-2.32-6.25-1.18-7.85,7.58-2.13,9.03h0Zm35.96,9.14c-5.48-1.41-4.12-9.86,1.83-9.1,3.2,.65,6.25,1.64,9.45,2.29,5.48,1.37,4.27,9.52-1.45,9.14-.23-.04-.53-.04-.76-.11-2.89-.8-6.09-1.52-9.06-2.21h0Zm36.26,8.53c-5.94-1.49-4.04-10.21,1.98-9.06l9.14,1.94c5.1,.99,4.88,9.22-1.22,9.22l-.76-.11-9.14-1.98h0Zm36.64,7.39c-5.86-1.1-4.65-9.94,1.45-9.18l9.29,1.6c3.96,.76,5.33,5.87,1.98,8.34-.91,.68-2.29,1.07-3.51,.84l-9.22-1.6h0Zm36.95,5.71c-5.48-.68-5.48-8.87,.46-9.25h.68c3.05,.38,6.09,.76,9.14,1.14,6.02,.72,5.18,9.6-.84,9.22-3.2-.3-6.32-.72-9.45-1.11h0Zm37.33,3.54c-5.94-.38-5.94-9.3,.46-9.3,3.05,.19,6.09,.3,9.22,.46,5.56,.34,6.09,8.11,.53,9.22-.3,.04-.61,.08-.91,.08-3.12-.15-6.25-.3-9.29-.46h0Zm37.48,.72c-6.09,0-6.47-8.87-.3-9.29,3.05,0,6.25-.11,9.22-.3,5.41-.3,6.93,7.73,1.22,9.18-.23,.08-.53,.11-.76,.11-3.13,.15-6.25,.27-9.37,.3h0Zm37.48-2.67c-5.79,.72-7.47-8.04-1.22-9.22,3.05-.38,6.09-.76,9.14-1.26,6.09-.76,7.46,8.04,1.37,9.18-3.05,.5-6.17,.88-9.29,1.3h0Zm37.02-6.89c-5.64,1.45-8.3-7.01-2.44-8.95,2.97-.84,5.94-1.56,8.99-2.44,4.88-1.64,8.53,5.45,3.66,8.45-.38,.19-.61,.3-1.07,.42-2.97,.95-6.09,1.75-9.14,2.52h0Zm35.81-11.88c-5.18,2.06-9.14-5.22-3.96-8.38l.46-.27c2.9-1.1,5.79-2.29,8.53-3.5,5.33-2.13,9.14,5.18,4.12,8.3-2.82,1.41-6.17,2.63-9.14,3.85h0Zm34.28-15.16c-1.06,.46-2.21,.61-3.28,.27-4.04-1.11-4.65-6.86-.68-8.68,2.74-1.26,5.56-2.63,8.38-3.92,2.13-1.03,4.57-.3,5.94,1.71,1.37,2.36,.61,5.48-1.98,6.67-2.82,1.33-5.64,2.67-8.38,3.96h0Zm33.52-15.81c-5.18,2.48-9.45-5.26-4.11-8.27,2.74-1.41,5.79-2.71,8.68-4,1.98-.91,4.12-.34,5.49,1.14,1.98,2.44,1.22,5.98-1.67,7.31l-8.38,3.81h0Zm33.82-14.59c-5.33,2.17-9.14-5.9-3.43-8.61,2.82-1.1,6.02-2.4,8.91-3.35,5.79-1.94,8.84,6.44,3.2,8.68-2.9,1.1-5.79,2.17-8.69,3.27h0Zm34.74-11.81c-1.83,.46-3.58-.08-4.88-1.56-1.98-2.51-.83-6.55,2.44-7.39,2.97-.84,6.02-1.64,9.07-2.4,5.03-1.26,8.15,5.6,3.43,8.53-.46,.23-.76,.34-1.22,.46-2.89,.76-5.87,1.52-8.84,2.36h0Zm35.73-7.73c-6.02,.76-7.39-8.04-1.45-9.18,3.2-.42,6.32-.84,9.45-1.22,5.41-.69,7.31,7.28,1.98,9.03-.3,.08-.61,.15-.91,.19-3.05,.34-6.09,.72-9.06,1.18h0Zm36.34-2.74c-5.94,0-6.4-8.87-.15-9.26,3.2-.04,6.4,.04,9.6,.11,6.09,.38,5.87,9.29-.3,9.29-3.05-.08-6.09-.15-9.14-.15h0Zm36.41,2.52c-5.49-.69-5.33-9.26,.76-9.26,3.2,.3,6.7,.95,9.83,1.52,2.36,.42,3.96,2.48,3.81,4.88-.15,2.7-2.67,4.8-5.41,4.27-3.05-.49-6.02-.99-8.99-1.41Z" style="fill:#b0c2e4; fill-rule:evenodd;"/><path d="M1761.61,466.37s9.52-7.92,21.79-3.81c10.89,3.66,14.93,16.49,10.97,28.41-4.72,13.86-20.42,26.78-51.8,32.11-21.79-23.16-26.51-43-21.94-56.87,4.04-11.96,15.01-19.69,25.9-16.04,12.19,4.11,15.09,16.19,15.09,16.19Z" style="fill:#c4d1eb; fill-rule:evenodd;"/><path d="M921.35,519.81s-9.52-7.92-21.75-3.81c-10.93,3.62-14.97,16.45-10.97,28.42,4.65,13.83,20.42,26.78,51.76,32.07,21.82-23.16,26.55-42.97,21.9-56.87-4-11.92-14.97-19.65-25.86-16-12.27,4.11-15.08,16.19-15.08,16.19Z" style="fill:#c4d1eb; fill-rule:evenodd;"/><path d="M798.13,32.19s9.52-7.96,21.75-3.85c10.93,3.66,14.97,16.49,10.97,28.42-4.65,13.86-20.42,26.78-51.76,32.11-21.83-23.16-26.59-43-21.9-56.87,4-11.96,14.97-19.69,25.86-16.04,12.27,4.11,15.08,16.23,15.08,16.23Z" style="fill:#c4d1eb; fill-rule:evenodd;"/><path d="M1162.92,111.64c-13.03,20.11-39.99,25.79-60.1,12.68-20.04-13.06-25.71-39.99-12.65-60.07,13.1-20.11,39.99-25.79,60.1-12.68,20.04,13.07,25.75,39.96,12.65,60.07Z" style="fill:#c4d1eb; fill-rule:evenodd;"/><path d="M463.47,157.2c-3.85,23.69-26.13,39.73-49.86,35.88-23.62-3.85-39.73-26.17-35.88-49.82,3.88-23.69,26.17-39.77,49.86-35.92,23.65,3.88,39.73,26.17,35.88,49.86Z" style="fill:#c4d1eb; fill-rule:evenodd;"/><path d="M1877.93,157.43c8.45,22.47,33.44,33.78,55.99,25.33,22.4-8.46,33.67-33.52,25.29-55.95-8.53-22.44-33.52-33.79-55.99-25.33-22.47,8.46-33.75,33.52-25.29,55.96Z" style="fill:#c4d1eb; fill-rule:evenodd;"/><path d="M1103.34,81.05c-7.01,10.74-3.96,25.1,6.78,32.15,10.74,6.97,25.14,3.92,32.15-6.82l-38.93-25.33Z" style="fill:#eff0f0; fill-rule:evenodd;"/><path d="M396.59,153.27c-2.06,12.68,6.51,24.61,19.2,26.66,12.65,2.06,24.61-6.55,26.62-19.2l-45.82-7.47Z" style="fill:#eff0f0; fill-rule:evenodd;"/><path d="M1942.69,140.36c4.5,12-1.52,25.4-13.48,29.94-12.04,4.53-25.45-1.56-30.02-13.56l43.5-16.38Z" style="fill:#eff0f0; fill-rule:evenodd;"/><path d="M974.1,55.76l-10.82,23.69,13.41,22.36c1.56,2.55-.57,5.75-3.5,5.37l-25.82-2.97-17.18,19.58c-1.94,2.29-5.64,1.29-6.17-1.6l-5.18-25.56-24-10.21c-2.63-1.14-2.82-4.95-.23-6.4l22.59-12.8,2.4-25.9c.19-2.97,3.77-4.34,5.98-2.32l19.12,17.6,25.37-5.83c2.93-.61,5.33,2.33,4.04,4.99Z" style="fill:#fff; fill-rule:evenodd;"/><path d="M1302.1,457.8l-22.7,12.8-2.28,25.98c-.23,2.97-3.81,4.3-5.94,2.32l-19.2-17.64-25.44,5.79c-2.9,.65-5.33-2.29-3.96-4.95l10.82-23.69-13.41-22.36c-1.52-2.51,.53-5.68,3.51-5.33l25.82,2.93,17.14-19.58c1.9-2.29,5.63-1.29,6.24,1.64l5.03,25.48,23.99,10.21c2.82,1.22,2.97,4.99,.38,6.4Z" style="fill:#fff; fill-rule:evenodd;"/><path d="M1035.28,804.15l-25.86-2.9-17.1,19.66c-1.94,2.21-5.64,1.22-6.21-1.68l-5.18-25.52-23.92-10.29c-2.74-1.14-2.97-4.88-.38-6.4l22.7-12.72,2.29-25.98c.3-2.9,3.81-4.27,6.02-2.29l19.16,17.52,25.41-5.71c2.86-.76,5.26,2.21,4.04,4.95l-10.82,23.62,13.33,22.4c1.56,2.59-.53,5.79-3.46,5.33Z" style="fill:#fff; fill-rule:evenodd;"/><path d="M534.78,1017.45l-19.2-17.6-25.4,5.87c-2.89,.76-5.29-2.29-4.04-4.96l10.82-23.69-13.33-22.4c-1.56-2.51,.49-5.71,3.43-5.33l25.86,2.97,17.14-19.73c1.94-2.14,5.56-1.14,6.17,1.75l5.18,25.52,23.92,10.21c2.78,1.07,2.97,4.88,.34,6.4l-22.62,12.8-2.29,25.9c-.3,3.05-3.85,4.42-5.98,2.29Z" style="fill:#fff; fill-rule:evenodd;"/><path d="M163.14,881.85l-5.14-25.52-24-10.13c-2.78-1.22-2.97-5.03-.34-6.4l22.62-12.8,2.4-26.05c.19-2.89,3.77-4.27,5.9-2.28l19.2,17.67,25.41-5.86c2.86-.69,5.22,2.36,4,5.03l-10.74,23.62,13.29,22.39c1.6,2.51-.5,5.71-3.46,5.41l-25.83-3.05-17.1,19.65c-1.98,2.29-5.68,1.3-6.21-1.67Z" style="fill:#fff; fill-rule:evenodd;"/><path d="M545.03,391.49l10.82-23.65-13.45-22.36c-1.56-2.55,.57-5.75,3.51-5.37l25.82,2.93,17.18-19.62c1.94-2.25,5.6-1.29,6.17,1.64l5.14,25.52,24.04,10.17c2.67,1.22,2.86,4.95,.27,6.44l-22.63,12.84-2.36,25.9c-.15,2.97-3.73,4.34-5.94,2.32l-19.16-17.6-25.37,5.83c-2.93,.65-5.33-2.29-4.04-4.99Z" style="fill:#fff; fill-rule:evenodd;"/><path d="M1488.12,814.2l10.82-23.69-13.49-22.32c-1.6-2.59,.53-5.79,3.51-5.49l25.83,3.05,17.21-19.66c1.9-2.28,5.56-1.29,6.09,1.68l5.18,25.44,24.07,10.21c2.59,1.22,2.82,4.95,.23,6.4l-22.62,12.8-2.29,25.98c-.23,2.97-3.81,4.34-6.02,2.36l-19.12-17.67-25.45,5.87c-2.89,.68-5.33-2.28-3.96-4.95Z" style="fill:#fff; fill-rule:evenodd;"/><path d="M1956.86,983.02l10.82-23.69-13.48-22.32c-1.52-2.59,.61-5.79,3.5-5.33l25.9,2.9,17.14-19.66c1.9-2.21,5.64-1.22,6.17,1.68l5.18,25.52,24,10.21c2.66,1.14,2.82,4.95,.23,6.4l-22.55,12.8-2.44,25.98c-.15,2.9-3.66,4.27-5.94,2.29l-19.12-17.6-25.37,5.87c-2.9,.61-5.33-2.29-4.04-5.03Z" style="fill:#fff; fill-rule:evenodd;"/><path d="M1057.29,1299.62c583.95,0,1057.33,29.02,1057.33,64.83s-473.38,64.83-1057.33,64.83S0,1400.25,0,1364.45s473.38-64.83,1057.29-64.83Z" style="fill:#c4d1eb; fill-rule:evenodd;"/><path d="M648.51,600.9s-9.06-10.93-16.15-15.85c-7.09-4.99-18.28-20.65-19.35-40.87-1.07-20.26,12.72-30.78,20.65-34.51,7.85-3.85,39.04-9.29,50.39-6.02,11.35,3.24,13.07,43.84,13.07,43.84l-11.12,33.56-37.48,19.85Z" style="fill:#20386f; fill-rule:evenodd;"/><path d="M730.06,1159.37l.15,24.76,26.51-9.75s14.7-22.93,33.82-53.63c-12.07-5.18-24.64-9.68-37.25-14.32-13.07,30.93-23.24,52.95-23.24,52.95Z" style="fill:#fab688; fill-rule:evenodd;"/><path d="M758.4,1172.86s-13.33-3.81-16.57-6.85c-3.24-3.05-5.14-10.36-10.4-10.21-5.3,.23-24.07,17.52-25.63,22.93-1.6,5.56-1.3,13.03,2.02,16.07,3.28,3.05,61.55,40.45,73.4,44.18,11.81,3.81,21.94-4.88,13.83-16.3-8.11-11.5-28.87-50.13-36.64-49.82Z" style="fill:#0e2952; fill-rule:evenodd;"/><path d="M654.04,854.05s232.65,30.85,236.38,60.1c8.87,68.26-120.29,247.88-120.29,247.88l-36.3-15.85,65.17-188.69s-103.91-10.28-113.2-16.68c-9.29-6.55-31.77-86.76-31.77-86.76Z" style="fill:#20386f; fill-rule:evenodd;"/><path d="M565.78,1306.32l4.27,24.38,24.53-13.94s10.78-25.06,24.53-58.58c-12.8-3.12-25.94-5.48-39.12-7.92-7.81,32.6-14.21,56.07-14.21,56.07Z" style="fill:#fab688; fill-rule:evenodd;"/><path d="M595.95,1314.85s-13.79-1.52-17.44-3.96c-3.7-2.44-6.82-9.45-11.96-8.3-5.14,1.06-20.84,21.25-21.48,26.74-.68,5.79,.88,13.1,4.61,15.54,3.77,2.44,80.14,33.13,92.41,34.89,12.3,1.68,14.13-10.97,4.19-20.87-9.86-9.98-42.66-45.56-50.32-44.03Z" style="fill:#0e2952; fill-rule:evenodd;"/><path d="M696.16,876.37l-21.94-28.64s-66.96,10.06-75.61,40.22c-8.69,30.17,5.33,220.92,5.33,220.92,0,0-26.05,130.57-37.4,177.95,13.22,2.44,31.69,6.17,44.49,9.3,23.88-57.9,73.02-183.82,73.02-183.82l21.18-173.61-9.06-62.32Z" style="fill:#223f81; fill-rule:evenodd;"/><path d="M783.05,410.53c4.65,14.86,6.89,13.48,7.43,15.39,.61,2.25-8.27,32.72-8.27,32.72,0,0-25.71,89.78-27.27,94.61l-61.14,73.66,26.7,41.48s64.45-81.93,67.08-86.84c2.67-4.84,23.69-130.42,25.9-141.43,0,0,7.31-12.15,11.69-19.88,4.3-7.77,5.1-17.14,5.98-19.54,.15-.34,2.7-8.42,3.24-19.27,.5-9.33-4.11-.69-4.11-.69,0,0-3.92,17.14-5.14,16.65-.99-.42,1.68-9.71,2.32-20.04,.15-2.67,.3-5.29,.42-7.66,.34-6.28-3.35-8.3-4.72-1.75-.5,2.29-1.14,6.21-1.3,9.03-.15,3.05-1.18,5.83-1.71,8.38-.95,5.07-1.6,8.76-1.79,8.61-.27-.23-1.1,.65-1.03-2.17,.11-3.43,1.87-10.59,1.68-15.54-.15-2.82-.04-8.8-.04-8.8,0,0-1.49-8.99-2.06-9.06-2.89-.46-3.58,5.98-2.89,9.83-.84,2.67-.72,8.95-.72,8.95,0,0-2.63,12.65-4.38,12.27-.72-.08-.04-8.11-.57-16.04-.46-7.35-2.1-14.66-3.54-14.82-2.4-.19-2.74,8.04-2.74,8.04,0,0,.08,5.79-.04,7.73-.15,2.21-1.03,8.99-1.03,8.99,0,0-4.23,23.23-5.86,22.74-1.64-.49-5.33-3.43-5.52-4.95-.23-1.52,.76-4.57,.57-6.09-.23-1.52-1.79-3.31-3.66-3.2-1.83,.15-3.5,8-3.5,8,0,0-1.33,6.36,.04,10.7Z" style="fill:#fab688; fill-rule:evenodd;"/><path d="M725.04,584.94c-2.97-.19-70.58,59.84-68.29,78.05,2.29,18.21,33.48,42.24,53.14,26.78,19.61-15.5,55.65-70.12,55.65-70.12,0,0-30.93-34.13-40.49-34.7Z" style="fill:#6d96ce; fill-rule:evenodd;"/><path d="M694.68,632.4c.84,.57,28.41,40.34,30.2,72.1,3.28,58.05-9.1,155.94-18.97,160.97-79.15,40.15-113.13,26.89-113.13,26.89,0,0,2.29-178.52,14.44-221.03,5.07-17.64,12.3-33.29,30.28-39.42,4.08-1.45,38.01-12.8,57.17,.5Z" style="fill:#6d96ce; fill-rule:evenodd;"/><path d="M685.08,600.37l9.83,33.44s2.55,9.37-1.52,13.94c-6.97,7.96-43.31-19.27-43.31-19.27l-6.28-54.28,41.29,26.17Z" style="fill:#fab688; fill-rule:evenodd;"/><path d="M645.66,590.54c11.47,20.45,33.41,27.31,44.45,26.97l-5.03-17.14-41.29-26.17,1.87,16.34Z" style="fill:#f27458; fill-rule:evenodd;"/><path d="M650.84,517.18c14.7-9.26,34.24-2.51,40.49,13.45,2.71,6.9,5.79,15.69,8.23,25.48,5.9,23.69-1.03,49.63-11.81,52.07-10.78,2.51-44.11-5.98-52.94-39.42-5.48-20.65,.53-41.94,16.04-51.57Z" style="fill:#fab688; fill-rule:evenodd;"/><path d="M643.33,569.59c1.22,5.26-1.26,10.25-5.52,11.27-4.31,.99-8.76-2.48-9.98-7.73-1.18-5.18,1.3-10.28,5.56-11.23,4.27-.99,8.72,2.44,9.94,7.69Z" style="fill:#fab688; fill-rule:evenodd;"/><path d="M633.39,561.9s-4.38-10.93-5.29-22.09c-.88-11.12,5.41-28.15,16.15-32.41,10.7-4.27,37.4-4.69,39.54-12.38,2.1-7.66,2.21-6.97,3.16-8.27,2.13-2.97,19.62,4.65,22.21,23.35,2.63,18.7-13.9,20.99-16.95,22.05-3.09,1.14-34.28-5.9-43-3.77-8.76,2.09-15.81,33.52-15.81,33.52Z" style="fill:#20386f; fill-rule:evenodd;"/><path d="M486.59,440.09c-1.68,15.5-4.11,14.59-4.3,16.57-.15,2.32,14.47,30.47,14.47,30.47,0,0,42.66,83.07,45.14,87.53l74.28,60.37-18.13,45.86s-79.11-67.84-82.66-72.11c-3.58-4.27-48.6-123.33-52.91-133.73,0,0-9.52-10.44-15.31-17.22-5.75-6.78-8.34-15.85-9.68-17.98-.23-.34-4.27-7.77-6.93-18.28-2.29-9.06,3.92-1.48,3.92-1.48,0,0,7.16,16.04,8.27,15.31,.88-.61-3.54-9.18-6.17-19.2-.69-2.59-1.33-5.1-1.91-7.43-1.52-6.13,1.68-8.8,4.31-2.63,.88,2.17,2.32,5.83,3.01,8.61,.72,2.93,2.28,5.45,3.27,7.89,1.98,4.76,3.31,8.26,3.47,8.07,.19-.27,1.22,.42,.61-2.32-.8-3.31-3.89-9.98-4.69-14.93-.42-2.78-1.68-8.61-1.68-8.61,0,0-.27-9.1,.23-9.29,2.78-1.03,4.72,5.14,4.8,9.06,1.3,2.48,2.44,8.61,2.44,8.61,0,0,5.03,11.92,6.67,11.24,.72-.27-1.52-8-2.55-15.85-.95-7.31-.8-14.82,.61-15.24,2.32-.69,4.27,7.39,4.27,7.39,0,0,1.03,5.68,1.49,7.54,.61,2.13,2.78,8.57,2.78,8.57,0,0,8.68,21.98,10.17,21.22,1.52-.8,4.57-4.38,4.46-5.94-.04-1.52-1.64-4.34-1.71-5.87-.08-1.56,1.1-3.62,2.93-3.85,1.83-.23,5.03,7.16,5.03,7.16,0,0,2.51,6.02,2.02,10.48Z" style="fill:#fab688; fill-rule:evenodd;"/><path d="M577.4,599.91c2.86-.72,30.62,33.14,71,36.91,1.33,18.36-8.68,112.79-30.97,101.44-14.59-35.73-72.98-96.41-72.98-96.41,0,0,23.69-39.5,32.95-41.94Z" style="fill:#6d96ce; fill-rule:evenodd;"/><path d="M1791.01,1207.82s36.57,26.28,42.21,34.2c8.38,11.27-61.78,32.45-54.09,19.2,1.68-3.05,6.78-13.33,7.01-14.32,1.14-5.41-13.71-19.88-13.71-19.88l18.59-19.2Z" style="fill:#f9af79; fill-rule:evenodd;"/><path d="M1760.08,1283.32l24.83-35.04s15.47-3.51,31.39-21.48c0,0,14.25,5.49,23.01,17.37,0,0-16.61,17.82-42.13,37.94,0,0-15.16,13.41-36.11,20.57-20.95,7.01-.99-19.35-.99-19.35Z" style="fill:#0e2952; fill-rule:evenodd;"/><path d="M2096.03,728.27s-4.49,3.96-6.09,5.18c-1.83,1.45-7.77,5.26-7.77,5.26,0,0-21.33,12.11-22.02,10.51-.69-1.6-.69-6.17,.38-7.39,1.07-1.22,4.11-2.44,5.18-3.66,1.06-1.22,1.37-3.66,.08-5.03-1.37-1.37-8.68,2.59-8.68,2.59,0,0-5.87,3.35-8.31,7.31-8.53,13.71-5.94,14.48-7.16,16.15-1.37,2.13-31.16,15.69-31.16,15.69,0,0-89.36,37.1-94.16,39.15h-.08c-.61,4.12,1.52,7.92,2.74,11.58,2.13,12.8,5.94,13.56,8.84,25.9,13.64-7.01,108.48-59.12,118.08-64.6,0,0,14.47-2.51,23.46-4.27,9.14-1.83,16.91-7.62,19.43-8.53,.38-.15,8.45-3.58,17.29-10.51,7.62-5.94-2.21-3.66-2.21-3.66,0,0-16.07,8.53-16.53,7.16-.3-1.07,8.76-5.18,17.29-11.66,2.21-1.67,4.34-3.28,6.32-4.88,5.18-3.96,4.27-8.23-1.83-4.88-2.13,1.22-5.63,3.28-7.92,5.11-2.51,1.98-5.33,2.97-7.77,4.27-4.57,2.74-7.92,4.72-7.92,4.5,0-.38-1.3-.53,.99-2.36,2.67-2.13,9.52-5.64,13.33-9.14,2.13-1.98,6.85-5.94,6.85-5.94,0,0,6.09-7.23,5.79-7.77-1.67-2.59-7.16,1.22-9.75,4.34-2.59,1.14-7.46,5.48-7.46,5.48,0,0-11.73,6.55-12.57,4.88-.38-.68,6.32-5.49,12.19-11.2,5.48-5.41,10.13-11.66,9.22-12.87-1.37-1.98-8.08,3.28-8.08,3.28Z" style="fill:#f9af79; fill-rule:evenodd;"/><path d="M1657.24,421.12s-1.22,5.6-1.45,7.54c-.3,2.25-.68,9.1-.68,9.1,0,0,.15,23.96,1.98,23.88,1.67-.08,5.79-2.13,6.32-3.58,.53-1.45,.07-4.72,.53-6.17,.61-1.45,2.59-2.82,4.42-2.25,1.9,.61,2.13,8.68,2.13,8.68,0,0,.08,6.59-2.13,10.51-7.77,13.52-9.75,11.65-10.66,13.37-1.22,2.13,2.06,34.24,2.06,34.24,0,0,12.72,94.46,13.48,99.57v.04c-3.35,2.4-7.85,2.13-11.58,2.74-12.34,3.77-15.08,.84-27.42,3.77-.84-15.08-3.05-121.01-3.2-131.83,0,0-5.18-13.75-8.07-22.47-3.05-8.68-1.98-18.09-2.44-20.64-.08-.38-1.14-8.95,.46-19.73,1.29-9.33,4.34,.27,4.34,.27,0,0,.69,17.83,2.06,17.64,1.07-.23,.15-9.94,1.52-20.27,.38-2.66,.76-5.26,1.07-7.66,.91-6.32,5.1-7.43,5.18-.61,.08,2.4,0,6.36-.38,9.18-.46,3.09,.08,6.06,.08,8.72,.08,5.18,0,8.99,.23,8.91,.23-.15,.99,.88,1.45-1.87,.61-3.43,.15-10.89,1.37-15.77,.61-2.74,1.75-8.64,1.75-8.64,0,0,3.27-8.49,3.88-8.46,3.05,.3,2.51,6.82,1.07,10.4,.3,2.78-.99,8.95-.99,8.95,0,0,.23,13.14,2.06,13.25,.84,0,1.68-8.04,3.81-15.73,1.9-7.12,5.03-13.98,6.55-13.71,2.52,.34,1.22,8.61,1.22,8.61Z" style="fill:#f9af79; fill-rule:evenodd;"/><path d="M1846.85,937.39l-5.71,28.57-145.2,131.94,103.91,105.2-28.03,28.57s-153.42-112.59-158.98-127.37c-8.53-22.7,109.92-173.23,109.92-173.23l124.1,6.32Z" style="fill:#0e2952; fill-rule:evenodd;"/><path d="M1948.55,1283.77s36.49,26.36,42.21,34.13c8.3,11.35-61.78,32.45-54.16,19.2,1.75-3.05,6.78-13.25,7.08-14.17,1.07-5.49-13.71-19.96-13.71-19.96l18.59-19.2Z" style="fill:#f9af79; fill-rule:evenodd;"/><path d="M1917.62,1359.42l24.76-35.04s16.53-2.97,32.38-20.8c0,0,13.26,4.8,22.09,16.61,0,0-16.61,17.9-42.21,38.01,0,0-15.16,13.49-36.11,20.5-20.95,7.08-.91-19.28-.91-19.28Z" style="fill:#0e2952; fill-rule:evenodd;"/><path d="M1841.9,950.64l-6.55,180.16,122.73,150.38-28.8,26.51s-142.46-122.19-158.07-156.24c-9.75-21.25-42.36-212.08-42.36-212.08l113.05,11.27Z" style="fill:#20386f; fill-rule:evenodd;"/><path d="M1724.81,935.94c11.81-26.74,10.44-217.64,56.45-262.4,16.08,2.67,27.58,4.27,30.32,4.95,2.44,19.69,5.03,91.83,6.7,157.96,1.06,44.18-.08,90.35,5.33,114.72,3.35,15.08-109.54,8.99-98.8-15.24Z" style="fill:#fff; fill-rule:evenodd;"/><path d="M1849.14,688.36c12.95,2.89,22.4,8.95,39.31,33.9,16.22,24,52.11,76.71,52.11,76.71l94.62-42.05,4.49,47.92s-107.11,55.69-122.19,50.66c-15.08-5.03-53.71-60.33-56.83-64.6-.76-.91,2.67,66.89,2.67,77.7s17.52,96.98,17.52,96.98c0,0-52.03,12.87-62.24-10.44-31.16-71.38-7.24-276.72-7.24-276.72,0,0,28.57,7.81,37.79,9.94Z" style="fill:#466fb5; fill-rule:evenodd;"/><path d="M1770.6,684.66s-21.18,56.41-36.57,48.79c-15.24-7.62-99.03-98.88-99.95-103.11-.76-4.27-6.7-112.1-6.7-112.1l34.05-6.89,22.85,87.57s59.8,61.1,72.6,67.08c12.8,5.98,13.71,18.66,13.71,18.66Z" style="fill:#466fb5; fill-rule:evenodd;"/><path d="M1720.24,948.58c-10.36,0-14.17-1.37-21.03-3.43,0,0,19.66-110.84,31.08-220.69,4.5-43.42,8.69-61.21,26.59-58.05,5.18,.88,19.2,6.25,24.3,7.12-45.02,127.26-45.17,225.3-51.57,253.72-3.13,14.25-5.94,21.48-9.37,21.33Z" style="fill:#466fb5; fill-rule:evenodd;"/><path d="M1785.98,654.27l-4.72,19.27s-1.06,16.72,6.7,18.28c9.3,1.75,23.31-12.26,23.31-12.26l8-54.24-33.29,28.95Z" style="fill:#f7a390; fill-rule:evenodd;"/><path d="M1785.98,654.27l-4.72,19.27s-1.06,16.72,6.7,18.28c9.3,1.75,23.31-12.26,23.31-12.26l8-54.24-33.29,28.95Z" style="fill:#f9af79; fill-rule:evenodd;"/><path d="M1819.2,625.55l-33.21,28.72-3.58,14.4c12.72-3.05,30.85-17.06,36.8-43.12Z" style="fill:#f27458; fill-rule:evenodd;"/><path d="M1785.83,575.65c-8.07,0-15.24,5.56-18.13,13.6-2.29,6.67-5.33,16.53-7.24,27.84-3.58,20.84,8.3,39.92,18.66,41.52,10.36,1.49,34.97-5.37,40.38-34.93,2.44-12.61,5.48-29.29-5.03-38.01-8.07-6.78-19.35-10.02-28.64-10.02Z" style="fill:#f9af79; fill-rule:evenodd;"/><path d="M1816.15,646.27s36.49-32.53,38.09-57.93c1.52-25.29-21.86-38.89-41.9-39.65-9.07-.27-15.16,.15-24.53,1.33-20.04,2.51-33.06,11.39-28.49,27.84,6.17,22.09,47.84,3.43,56.3,10.29,7.08,5.71-4.34,19.27,2.51,24.41,6.4,4.95,3.13,3.28,1.07,12.57-2.21,9.25-3.05,21.14-3.05,21.14Z" style="fill:#20386f; fill-rule:evenodd;"/><path d="M1830.24,616.82c-.91,6.02-4.65,10.59-8.3,10.02-3.66-.57-5.94-5.9-5.03-12,.91-6.09,4.57-10.59,8.3-10.02,3.74,.53,5.87,5.9,5.03,12Z" style="fill:#f9af79; fill-rule:evenodd;"/><path d="M1163.9,645.58c2.74-18.32,5.48-36.68,22.47-51.53,13.64-12,30.7-15.39,47.31-11.2,47.08,11.85,35.65,53.52,71.61,87.49,15.39,14.47,34.97,19.46,47.54,35.46,22.78,28.72,19.66,84.03-17.44,122.42-90.73,94.01-175.44-22.62-181.54-50.28-4.5-20.57,8.23-120.55,10.06-132.36Z" style="fill:#20386f; fill-rule:evenodd;"/><path d="M1146.99,1242.64c3.2,24.3,9.45,45.86,10.29,48.45,.46,1.22,4.8,5.79,5.26,7.01-3.81,29.25-22.55,45.56-39.92,56.98,4.34-14.47,13.26-31.01,12.34-34.36-1.37-5.26-6.7-29.63-19.12-60.41,14.02-.76,19.43-9.37,31.16-17.67Z" style="fill:#f9af79; fill-rule:evenodd;"/><path d="M1188.44,887.72l91.57,63.31s-40.22,46.24-55.3,63.38c-15.16,17.21-92.94,80.75-94.08,84.64-.23,.68,4.72,9.14,6.93,19.96,5.79,29.25,14.17,86.31,19.12,135.37-8.61,10.51-28.49,14.32-40.3,18.28-34.13-58.2-53.55-173.46-54.51-187.4-1.49-22.7,126.57-197.53,126.57-197.53Z" style="fill:#0e2952; fill-rule:evenodd;"/><path d="M1451.71,1020.8c-3.2,2.28-27.27,37.48-37.33,56.83-9.45-8.53-14.63-17.83-25.6-24.23,11.12-12.49,33.75-43.12,36.34-50.81,6.17-18.36,10.67-20.34,10.67-20.34,0,0,57.67,30.93,60.87,37.63,3.2,6.63-32-8.99-44.94,.91Z" style="fill:#f9af79; fill-rule:evenodd;"/><path d="M1423.83,1006.71c-4.72-.69,3.51-22.17,5.33-27.05,1.98-5.56,5.41-6.78,6.24-6.85,2.29-.15,66.35,34.28,76.48,44.64,.76,.68,1.83,2.74,1.98,3.2,4.57,13.11-51.35,6.63-58.58,0-6.47-5.79-10.28-10.59-31.46-13.94Z" style="fill:#0e2952; fill-rule:evenodd;"/><path d="M1171.14,909.28l73.89-37.02c-.23,.15,.69,3.2,.76,3.35,9.07,28.49,46.39,14.93,65.36,64.3,13.41,34.74,16.38,154.95,16.38,154.95,0,0,33.59-28.64,68.87-59.12,3.2-2.74,32.15,24.91,32.15,24.91-44.34,88.98-120.52,127.75-130.72,124.55-35.04-10.82-102.69-235.39-102.69-235.47-7.47-13.18-24-40.45-24-40.45Z" style="fill:#20386f; fill-rule:evenodd;"/><path d="M1280.16,707.82s92.1-25.75,112.67-30.24c20.65-4.42,91.41-33.18,94.08-34.32,2.74-1.26,11.2-40,15.39-37.4,4.27,2.55-5.33,19.58-.15,21.56,5.18,2.09,47.69-19.16,48.15-15.5,.91,6.82-25.44,14.05-24.53,17.14,1.06,3.09,26.82-10.17,30.32-5.6,3.43,4.68-25.6,10.21-26.05,12.91-.46,2.63,28.11-1.52,26.81,4.19-.76,3.09-25.45,3.05-24.23,6.55,1.22,3.54,20.19,6.55,19.05,10.09-1.22,3.47-15.62-4.72-25.29-1.98-9.6,2.78-17.98-.3-31.92,8.8-13.94,9.1-59.19,47-92.25,55.42-33.06,8.42-106.04,27.19-106.04,27.19l-16-38.81Z" style="fill:#f9af79; fill-rule:evenodd;"/><path d="M1171.68,705.95s-42.05-85.93-52.41-104.21c-10.36-18.32-36.07-90.31-36.95-93.17-.91-2.82,22.32-34.97,17.6-36.34-4.73-1.41-11.01,16.99-16,14.51-4.99-2.48-17.41-48.3-20.42-46.24-5.67,3.85,6.48,28.34,3.51,29.63-2.97,1.33-10.25-26.7-16-26.21-5.71,.53,9.44,25.9,7.73,27.92-1.72,2.13-17.6-21.94-20.99-17.18-1.83,2.63,14.66,21.06,11.24,22.43-3.43,1.49-18.36-10.59-20.19-7.47-1.83,3.12,13.94,8.46,18.28,17.52,4.27,9.03,12.23,13.29,14.7,29.71,2.48,16.42,4.3,75.42,20.04,105.66,15.73,30.36,50.24,97.28,50.24,97.28l39.61-13.86Z" style="fill:#f9af79; fill-rule:evenodd;"/><path d="M1151.56,814.28c-2.44-16.38-7.47-60.56-7.16-66.05-5.94-16.8-24.91-40.91-29.02-47.88,0,0,21.71-29.4,39.23-30.28,0,0,20.11,23.27,34.43,29.9,.15-.11,5.03,1.87,7.01,1.68,13.41-.95,59.72-5.48,68.64-3.35v75.38c-2.21,4.57,.46,91.04-4.19,98.57-4.72,7.39-77.47,44.64-90.42,37.1-.53-.23-13.79-62.01-18.51-95.07Z" style="fill:#6d96ce; fill-rule:evenodd;"/><path d="M1241,701.08c2.06-1.26,6.86-2.74,14.02-3.31,21.03-1.75,56.53-4.95,56.53-4.95,0,0,11.65,44.6,5.33,55.95,0,0-54.92,12.26-53.02,16.91l-22.85-64.6Z" style="fill:#6d96ce; fill-rule:evenodd;"/><path d="M1224.7,672.01s-3.2,26.32-1.52,36.61c1.67,10.25-.84,43.65-21.64,45.1-20.8,1.52-6.7-41.82-5.48-52.07,1.37-10.17-.23-41.36-.23-41.36l28.87,11.73Z" style="fill:#f9af79; fill-rule:evenodd;"/><path d="M1196.36,675.9c-.15-8.57-.53-15.62-.53-15.62l28.87,11.73s-.69,5.37-1.22,12.23c-12.04,3.39-21.26-.76-27.12-8.34Z" style="fill:#f27458; fill-rule:evenodd;"/><path d="M1230.18,599.42s11.12,5.56,15.92,18.86c4.8,13.18,2.67,48.37-24.61,58.62-27.2,10.25-41.14-16.57-36.72-38.55,4.27-21.98,14.93-50.13,45.4-38.93Z" style="fill:#f9af79; fill-rule:evenodd;"/><path d="M1180.66,630.19c.91,5.75,4.27,10.02,7.47,9.41,3.27-.5,5.1-5.64,4.19-11.35-.91-5.79-4.27-9.98-7.54-9.48-3.2,.49-5.03,5.64-4.12,11.43Z" style="fill:#f9af79; fill-rule:evenodd;"/><path d="M1157.51,1291.85c1.9-4.57,18.97,11.12,23.01,14.32,4.57,3.66,4.72,7.46,4.57,8.3-.46,2.21-48.3,57.67-61.94,64.9-1.29,.68-3.88,.53-4.65,.23-7.16-3.35,7.01-50.2,17.06-58.96,6.55-5.71,12.95-8.53,21.94-28.79Z" style="fill:#0e2952; fill-rule:evenodd;"/><path d="M1226.68,597.86s7.62,38.62,20.11,44.87c12.49,6.21,8.61,23.77,8.61,23.77,0,0,8.31-40.79-2.05-53.06-10.36-12.19-26.66-15.58-26.66-15.58Z" style="fill:#20386f; fill-rule:evenodd;"/><path d="M1240.08,648.74c-2.89,5.26-2.59,11.24,.91,13.37,3.35,2.06,8.53-.57,11.43-5.83,2.97-5.29,2.59-11.27-.84-13.33-3.43-2.06-8.61,.49-11.5,5.79Z" style="fill:#f9af79; fill-rule:evenodd;"/><path d="M376.21,860.52c2.02-3.89,1.64-8.91-.95-12.49-2.59-3.51-7.27-5.48-11.62-4.72,1.41-7.01-3.96-16.15-10.63-18.59-6.66-2.44-14.97,.61-18.43,6.78-5.83-4.65-11.24-11.96-18.66-13.03-7.39-.91-16.07,3.66-16.65,11.12-2.13-2.82-5.37-5.64-8.49-3.96-3.12,1.68-4.72,5.64-3.58,8.99-6.44-3.05-16.04-1.68-20.45,3.96-4.42,5.49-4.46,14.17-.04,19.65l109.51,2.29Z" style="fill:#c4d1eb; fill-rule:evenodd;"/><path d="M356.6,472.01s-5.67,1.03-10.85-1.91c-5.14-3.05-7.89-9.83-10.82-8.68-3.05,1.07,2.13,9.18,4.57,14.09,2.48,4.88,27.69,21.56,27.69,21.56l-10.59-25.06Z" style="fill:#f7a390; fill-rule:evenodd;"/><path d="M83,349.05s.84,6.36,1.3,8.42c.49,2.44,2.63,9.71,2.63,9.71,0,0,8.95,24.8,10.78,24.07,1.83-.69,5.26-4.34,5.26-6.06,.04-1.72-1.64-4.88-1.6-6.59,0-1.67,1.56-3.85,3.69-3.96,2.17-.04,5.33,8.3,5.33,8.3,0,0,2.55,6.82,1.68,11.69-3.08,16.87-5.87,15.62-6.21,17.79-.38,2.55,14.78,34.7,14.78,34.7,0,0,47.92,93.4,50.51,98.39v.08c-2.52,3.73-7.31,5.1-11.01,7.16-11.43,8.46-15.31,6.32-27.01,13.86-6.44-15.24-47.65-124.4-51.73-135.64,0,0-10.4-12.34-16.68-20.26-6.28-7.96-8.68-18.13-10.1-20.61-.23-.34-4.46-8.87-6.82-20.68-2.02-10.13,4.72-1.26,4.72-1.26,0,0,7.2,18.21,8.57,17.52,1.07-.65-3.5-10.4-5.87-21.6-.61-2.89-1.22-5.71-1.71-8.34-1.37-6.93,2.59-9.52,5.22-2.55,.87,2.48,2.32,6.67,2.89,9.75,.69,3.35,2.36,6.21,3.35,8.91,1.91,5.45,3.28,9.45,3.47,9.22,.23-.27,1.41,.57,.8-2.48-.61-3.73-3.85-11.35-4.34-16.83-.34-3.12-1.37-9.6-1.37-9.6,0,0,.3-10.02,.95-10.17,3.31-.91,5.1,6.06,4.95,10.32,1.33,2.78,2.25,9.64,2.25,9.64,0,0,5.03,13.56,6.97,12.99,.88-.3-1.22-8.87-1.87-17.63-.61-8.11,.15-16.38,1.79-16.64,2.74-.57,4.42,8.38,4.42,8.38Z" style="fill:#f9af79; fill-rule:evenodd;"/><path d="M283.46,500.08s-18.25-15.73-29.44,6.7c0,0-10.82-4.72-16.95,6.21,0,0-19.04-3.73-20.8,24.38,0,0-9.68-.88-9.83,10.59-.15,11.43,6.32,18.4,6.32,18.4,0,0-4.91,4.53-1.49,14.66,2.93,8.65,10.4,9.26,10.4,9.26,0,0,3.43,14.66,10.32,18.55,6.93,3.88,15.5,.84,15.5,.84,0,0,3.16,7.85,10.59,6.36,7.47-1.37,16.11-9.52,24.83-7.12,8.76,2.4,30.36-3.16,30.36-3.16,0,0,23.46-13.41,13.64-37.82,0,0,11.77-12.91-.91-25.75,0,0,6.09-22.74-11.5-34.01-17.6-11.39-31.04-8.07-31.04-8.07Z" style="fill:#20386f; fill-rule:evenodd;"/><path d="M160.7,1133.09s-28.76-.46-33.71-2.29c-4.95-1.98-26.59,23.31-20.72,34.28,3.27,6.25,11.65,4.5,11.65,4.5l6.17-7.39,36.87,3.96-.27-33.06Z" style="fill:#f9af79; fill-rule:evenodd;"/><path d="M335,1236.92s-12.57,25.9-16.34,29.64c-3.77,3.66,9.9,33.97,22.32,33.21,7.01-.3,9.07-8.53,9.07-8.53l-4.08-8.84,19.2-31.69-30.17-13.79Z" style="fill:#f9af79; fill-rule:evenodd;"/><path d="M319.46,1265.49s9.71,10.21,14.82,14.02c6.63,5.03,14.97,9.75,14.97,9.75,0,0,10.36,15.24,13.33,20.49,6.55,11.81,13.94,25.14,13.75,32.07-.04,2.28-4.84,5.18-9.14,4.27-17.9-3.66-66.31-39.92-73.02-50.13-7.7-12.03,25.29-30.47,25.29-30.47Z" style="fill:#0e2952; fill-rule:evenodd;"/><path d="M409.54,881.09c-2.1-4.34-4.04-8.38-5.94-12.11-18.05,5.87-38.51,12.34-59.53,19.04l5.18,78.85c-.57-6.02,25.45,125.39,25.45,125.39,0,0-32.15,90.04-55.35,146.72,13.14,13.41,22.78,18.97,40.72,27.27,39.04-57.44,86.39-156.77,87.19-173.08,.49-9.44-13.1-159.82-37.71-212.08Z" style="fill:#0e2952; fill-rule:evenodd;"/><path d="M246.82,920.09c10.44,54.09,26.89,135.9,31.16,163.48-34.78,8.61-115.64,41.9-131.18,43.42-4.57,13.71-6.21,30.01-.84,42.81,1.03,2.44,173.12-7.92,212.65-39,10.32-8.15,7.69-103.98,.04-183.44l-14.59-59.34c-35,11.2-67.15,21.86-97.24,32.07Z" style="fill:#20386f; fill-rule:evenodd;"/><path d="M336.67,629.01l-39.54,10.02s-30.17,3.47-38.28,4.3c-.68,.08-16.99,156.85-18.93,215.36-1.98,58.66,4.99,68.26,4.99,68.26,0,0,54.58,6.7,93.74-.68,40.68-7.7,84.71-34.43,84.71-34.43,0,0-46.85-104.44-57.25-138.42-10.4-33.97-29.44-124.4-29.44-124.4Z" style="fill:#fff; fill-rule:evenodd;"/><path d="M258.9,643.33s-65.44-78.81-84.29-107.26c-15.43-23.27-52.11-94.08-53.59-98.04-1.45-3.77-34.78-4.23-44.45,1.45-2.63,1.45,36.8,96.67,52.18,127.45,14.28,28.41,62.96,110.65,62.96,110.65,0,0,28.42,50.62,28.83,91.83,.72,68.41-1.56,167.44,1.68,170.11,19.12,9.53,75.68,3.58,79.38-3.96,40.6-82.5-42.7-292.22-42.7-292.22Z" style="fill:#6d96ce; fill-rule:evenodd;"/><path d="M292.34,618.58l5.14,21.9s9.87,31.23,1.87,38.32c-8,6.97-40.49-35.46-40.49-35.46l-2.59-56.45,36.07,31.69Z" style="fill:#f9af79; fill-rule:evenodd;"/><path d="M257.14,605.17c8.95,18.47,27.12,28.57,39.58,32l-4.38-18.59-36.07-31.69,.88,18.28Z" style="fill:#f27458; fill-rule:evenodd;"/><path d="M206.68,553.21c.8,8.53,6.4,15.04,12.42,14.4,5.98-.57,10.17-7.96,9.29-16.57-.8-8.53-6.36-14.97-12.34-14.4-6.06,.53-10.21,8.04-9.37,16.57Z" style="fill:#20386f; fill-rule:evenodd;"/><path d="M235.97,516.69c.53,4.91,6.82,8.3,14.09,7.62,7.31-.69,12.87-5.29,12.34-10.25-.46-4.95-6.78-8.34-14.05-7.54-7.31,.69-12.87,5.29-12.38,10.17Z" style="fill:#20386f; fill-rule:evenodd;"/><path d="M270.36,525.87c16.87-7.69,36.64,2.02,41.1,19.81,1.94,7.69,3.96,17.45,5.22,28.15,3.05,25.9-7.88,52.45-19.65,53.59-11.73,1.18-45.9-12.34-50.7-49.06-2.97-22.59,6.28-44.3,24.04-52.49Z" style="fill:#f9af79; fill-rule:evenodd;"/><path d="M255.24,580.41c.57,5.71-2.74,10.7-7.43,11.2-4.69,.42-8.91-3.81-9.49-9.52-.57-5.71,2.78-10.74,7.43-11.16,4.69-.46,8.95,3.77,9.49,9.48Z" style="fill:#f9af79; fill-rule:evenodd;"/><path d="M320.03,507.92c13.06,8.46,18.78,22.63,12.76,31.73-6.13,9.14-21.63,9.67-34.74,1.22-13.06-8.38-18.82-22.59-12.72-31.69,6.06-9.1,21.6-9.68,34.7-1.26Z" style="fill:#20386f; fill-rule:evenodd;"/><path d="M289.02,519.01c.46,4.15-4.27,8.04-10.51,8.68-6.25,.61-11.62-2.29-12.04-6.51-.42-4.15,4.31-8.04,10.55-8.68,6.21-.53,11.62,2.36,12,6.51Z" style="fill:#20386f; fill-rule:evenodd;"/><path d="M325.78,547.84c.53,5.37-3.35,10.17-8.68,10.66-5.26,.57-10.02-3.39-10.55-8.72-.53-5.37,3.31-10.17,8.65-10.74,5.33-.5,10.06,3.46,10.59,8.8Z" style="fill:#20386f; fill-rule:evenodd;"/><path d="M128.25,1131.11s-5.07,13.03-6.44,19.27c-1.79,8.15-2.55,17.75-2.55,17.75,0,0-9.29,15.69-12.88,20.65-7.96,11.04-17.75,24.07-24.19,26.89-2.1,.92-8.34-.3-8.76-5.03-1.6-18.28,10.02-79.23,16.57-89.66,7.58-11.96,38.24,10.13,38.24,10.13Z" style="fill:#0e2952; fill-rule:evenodd;"/><path d="M401.04,515.73c-7.5-12.61-13.79-23.62-15.81-28.15-2.02-4.5-3.73-16.65-5.52-21.29-1.79-4.8-3.69-9.03-5.22-11.01-.57-.72-21.48-18.17-24.45-18.97-3.69-1.03-13.26-4.04-15.35-1.48-2.06,2.59,14.02,8.23,14.02,8.23l5.94,3.81c-10.21-3.16-25.79-11.5-27.96-7.85-2.06,3.54,12.99,10.44,23.43,15.54-10.21-3.66-26.4-6.28-27.08-3.24-.57,2.74,18.06,5.64,27.65,14.4,3.54,3.24,1.79,9.45,3.01,12.91,.91,2.48,2.1,6.48,3.92,8.46l9.56,9.98c1.79,4.23,3.62,8.95,4.91,13.45,1.56,5.22,4.69,12.72,6.44,19.5,.11,.42,.23,.76,.34,1.18,8.34-3.5,15.92-8.65,22.17-15.46Z" style="fill:#f9af79; fill-rule:evenodd;"/><path d="M402.19,507.09s56.14,119.26,52.72,128.44c-5.03,13.41-87.76,44.79-87.76,44.79,0,0,44.79,124.74,63.8,172.13,1.9,4.72,11.39,35.96,11.69,39,.68,6.86-28.34,18.51-31.92,18.36-3.24-.23-47.8-130.27-70.92-194.41-7.85-21.75-14.4-43.61-29.52-61.13l-13.18-15.27s22.44-10.78,32.49-15.12c15.01-6.63,68.22-21.82,68.22-21.82,0,0-29.71-79.38-32-87.19-.61-2.06,31.31-15.43,36.38-7.77Z" style="fill:#6d96ce; fill-rule:evenodd;"/><path d="M1924.4,427.9c1.37,18.62,15.16,32.91,30.85,31.96,16-.95,28.11-17.18,27.12-36.26-1.22-19.08-15.16-33.75-31.23-32.8-4.12,.23-8.08,1.52-11.43,3.7l-1.37-53.93,82.35,19.88,2.29,92.18v.38c1.06,19.04,15.01,33.71,31,32.76,16.07-.99,28.19-17.22,27.12-36.26-1.22-19.04-15.24-33.75-31.23-32.8-4.12,.23-8.08,1.56-11.43,3.62l-2.44-98.73c-.15-3.2-2.13-5.86-4.72-6.47l-103.68-22.17c-3.58-.68-6.63,2.44-6.63,6.59l3.2,128.36h.23Z" style="fill:#b0c2e4; fill-rule:evenodd;"/><path d="M1325.33,171.82c1.37,18.66,15.16,32.87,30.85,31.96,16.07-.95,28.19-17.18,27.12-36.26-1.22-19.04-15.16-33.75-31.23-32.79-4.12,.27-8.08,1.56-11.43,3.66l-1.37-53.9,82.35,19.92,2.28,92.18v.34c1.07,19.01,15.01,33.71,31.01,32.76,16.08-.99,28.19-17.22,27.12-36.22-1.22-19.08-15.16-33.75-31.23-32.79-4.12,.19-8.08,1.52-11.43,3.62l-2.44-98.77c-.15-3.2-2.13-5.86-4.72-6.47l-103.68-22.13c-3.5-.72-6.55,2.44-6.55,6.55l3.2,128.36h.15Z" style="fill:#b0c2e4; fill-rule:evenodd;"/><path d="M139.33,253.41c1.37,18.62,15.12,32.91,30.89,31.96,16.04-.95,28.11-17.18,27.04-36.26-1.22-19.08-15.16-33.75-31.2-32.8-4.15,.23-8.08,1.52-11.46,3.69l-1.37-53.93,82.39,19.92,2.29,92.14v.38c1.07,19.04,14.97,33.67,31.04,32.76,16.04-.99,28.11-17.22,27.04-36.26-1.22-19.04-15.12-33.75-31.2-32.79-4.11,.27-8.07,1.56-11.43,3.62l-2.48-98.73c-.11-3.2-2.13-5.87-4.72-6.48l-103.64-22.17c-3.5-.69-6.59,2.44-6.59,6.59l3.24,128.36h.15Z" style="fill:#b0c2e4; fill-rule:evenodd;"/><path d="M578.16,92.48c8,26.74,28.64,47.04,62.09,60.87l2.25,92.18v.34c1.1,19.04,15.01,33.71,31.04,32.76,16.04-.99,28.11-17.22,27.04-36.26-1.22-19.04-15.12-33.71-31.16-32.79-4.15,.27-8.11,1.56-11.5,3.66l-2.21-90.2c-.15-3.2-2.13-5.87-4.72-6.48-32.22,5.03-55.34-4.88-72.83-24.07Z" style="fill:#b0c2e4; fill-rule:evenodd;"/><path d="M986.1,225.03c8,26.74,28.68,47.04,62.08,60.87l2.29,92.18v.34c1.06,19.04,14.97,33.71,31.01,32.79,16.07-.99,28.18-17.25,27.12-36.3-1.22-19.04-15.16-33.71-31.23-32.76-4.12,.19-8.11,1.52-11.47,3.62l-2.25-90.2c-.15-3.2-2.13-5.87-4.72-6.48-32.19,4.99-55.34-4.88-72.83-24.07Z" style="fill:#b0c2e4; fill-rule:evenodd;"/><path d="M1617.86,125.2c8,26.74,28.72,47.04,62.09,60.87l2.28,92.18v.34c1.07,19.01,14.93,33.71,31.01,32.79,16.08-1.03,28.11-17.25,27.04-36.3-1.22-19.04-15.08-33.75-31.24-32.79-4.11,.23-8.07,1.56-11.42,3.66l-2.21-90.2c-.15-3.2-2.13-5.87-4.8-6.48-32.15,4.99-55.31-4.88-72.75-24.07Z" style="fill:#b0c2e4; fill-rule:evenodd;"/></svg>