<?xml version="1.0" encoding="UTF-8"?><svg id="a" xmlns="http://www.w3.org/2000/svg" viewBox="0 0 1916.94 1398.3"><path d="M325.16,338.89c52.64,0,95.3-42.66,95.3-95.3s-42.66-95.3-95.3-95.3-95.3,42.66-95.3,95.3,42.66,95.3,95.3,95.3h0Zm-142.5,56.68h0ZM262.54,3.01h0Zm212.91,85.6h0Zm-4.4,297.78c-13.44,13.73-28.78,25.55-45.67,35.09l2.64,48.46-40.31,14.24-28.49-39.28-11.01,1.54h-46.55l-26.36,40.75-35.97-10.28-1.25-.44-3.67-1.4v-48.53l-8-4.26-39.42-28.41-4.33,1.69-40.89,15.79c-9.62-10.5-18.35-21.81-26.06-33.92l28.49-39.2c-8.81-16.81-15.34-35.02-19.16-54.26l-46.84-12.48-1.17-42.73,46.18-14.9c2.79-19.46,8.37-38.03,16.3-55.28l-30.62-37.59c7.12-12.48,15.2-24.23,24.23-35.24l46.18,15.05,45.59-35.09-2.57-48.46c12.85-5.87,26.28-10.65,40.23-14.24l28.49,39.28,57.56-1.47L374.94,0l40.97,12.19V60.64c17.33,8.66,33.26,19.68,47.43,32.67l12.11-4.7,33.11-12.77c9.62,10.5,18.35,21.88,26.06,33.92l-28.56,39.13c8.81,16.81,15.34,35.09,19.24,54.33l46.84,12.48,1.1,42.73-46.11,14.9c-2.79,19.38-8.37,37.96-16.3,55.28l30.54,37.59c-7.05,12.48-15.2,24.23-24.23,35.24l-46.11-15.05Z" style="fill:#c4d1eb; fill-rule:evenodd;"/><path d="M192.21,356.15c1.1,0,2.28-.37,3.16-1.17,2.13-1.76,2.42-4.92,.66-7.05-24.3-29.22-37.66-66.22-37.66-104.33,0-18.21,2.94-36.12,8.88-53.23,.88-2.57-.51-5.43-3.16-6.31-2.57-.95-5.43,.44-6.39,3.08-6.24,18.13-9.4,37.08-9.4,56.46,0,40.38,14.24,79.73,40.01,110.79,1.03,1.17,2.42,1.76,3.89,1.76Z" style="fill:#fff; fill-rule:evenodd;"/><path d="M206.3,126.06c1.25,0,2.42-.44,3.45-1.39,16.3-15.34,35.24-27.02,56.16-34.58,2.64-.95,3.96-3.82,3.01-6.46-.95-2.57-3.82-3.96-6.39-3.01-22.32,8.08-42.36,20.48-59.69,36.78-1.98,1.91-2.13,5.07-.22,7.05,1.03,1.1,2.28,1.61,3.67,1.61Z" style="fill:#fff; fill-rule:evenodd;"/><path d="M362.98,85.46c2.2,0,4.26-1.54,4.85-3.82,.66-2.72-.96-5.43-3.6-6.09-13.88-3.52-28.19-5.29-42.58-5.29-2.79,0-5.07,2.28-5.07,4.99s2.28,5.07,5.07,5.07c13.58,0,27.02,1.69,40.09,4.99,.44,.07,.81,.15,1.25,.15Z" style="fill:#fff; fill-rule:evenodd;"/><path d="M954.06,83.62c-204.91,0-181.56,310.26-329.5,404.75-195.88,125.17-532.79,63.21-532.79,277.96,0,377.07,437.05,513.7,913.31,513.7s882.55-209.09,740.78-585.21C1604.09,318.78,1430.31,83.62,954.06,83.62Z" style="fill:#e0e8f5; fill-rule:evenodd;"/><path d="M1490.3,1192.52c-92.8,0-167.98,13.36-167.98,29.88s75.18,29.81,167.98,29.81,168.05-13.36,168.05-29.81-75.25-29.88-168.05-29.88Z" style="fill:#c4d1eb; fill-rule:evenodd;"/><path d="M713.1,941.13h169.23c37.44,124.66,80.98,198.74,164.6,198.74H504.52c-83.62,0-127.16-74.08-164.6-198.74h373.18Z" style="fill:#b0c2e4; fill-rule:evenodd;"/><path d="M1490.66,326.71H744.97c8.66-85.75,30.1-142.36,82.08-142.36h552.9c43.76,3.45,80.69,50.88,110.71,142.36Z" style="fill:#b0c2e4; fill-rule:evenodd;"/><path d="M713.1,941.13c69.38-279.94-36.93-756.78,113.94-756.78h542.41c-213.57,0,88.25,955.52-322.52,955.52-83.62,0-127.16-74.08-164.6-198.74h-169.23Z" style="fill:#c4d1eb; fill-rule:evenodd;"/><path d="M1028.35,1138.55c372.59-39.21,88.1-954.2,297.12-954.2h43.98c-213.57,0,88.25,955.52-322.52,955.52-6.39,0-12.55-.44-18.57-1.32Z" style="fill:#9db2d9; fill-rule:evenodd;"/><path d="M711.12,941.13c69.38-279.94-36.93-756.78,113.94-756.78h35.24c-150.87,0-44.56,476.84-113.94,756.78h-35.24Z" style="fill:#9db2d9; fill-rule:evenodd;"/><path d="M383.97,977.92c35.09,102.27,77.82,161.96,152.85,161.96h-32.3c-83.62,0-127.16-74.08-164.6-198.74H915.59c32.3,107.41,69.01,177.23,132.08,194.48-6.24,1.25-12.63,2.28-19.31,2.94-63.73-9.18-102.19-67.1-134.28-160.64H383.97Z" style="fill:#859ac6; fill-rule:evenodd;"/><path d="M1454.03,326.71c-27.46-83.77-60.79-130.61-99.77-140.52,4.77-1.17,9.84-1.84,15.2-1.84h10.5c43.76,3.45,80.69,50.88,110.71,142.36h-36.63Z" style="fill:#859ac6; fill-rule:evenodd;"/><path d="M1189.29,237.95h-333.61c-6.83,0-12.48,5.58-12.48,12.41h0c0,6.83,5.65,12.41,12.48,12.41h333.61c6.75,0,12.33-5.58,12.33-12.41h0c0-6.83-5.58-12.41-12.33-12.41h0Zm-23.86,318.7h-332.36c-6.83,0-12.41,5.58-12.41,12.41h0c0,6.9,5.58,12.48,12.41,12.48h332.36c6.83,0,12.41-5.58,12.41-12.48h0c0-6.83-5.58-12.41-12.41-12.41h0Zm0-49.26h-332.36c-6.83,0-12.41,5.58-12.41,12.41h0c0,6.83,5.58,12.41,12.41,12.41h332.36c6.83,0,12.41-5.58,12.41-12.41h0c0-6.83-5.58-12.41-12.41-12.41h0Zm0-83.92h-211.59c-6.83,0-12.41,5.58-12.41,12.41h0c0,6.83,5.58,12.41,12.41,12.41h211.59c6.83,0,12.41-5.58,12.41-12.41h0c0-6.83-5.58-12.41-12.41-12.41h0Zm3.74-46.4h-333.61c-6.83,0-12.41,5.58-12.41,12.41h0c0,6.83,5.58,12.41,12.41,12.41h333.61c6.83,0,12.41-5.58,12.41-12.41h0c0-6.83-5.58-12.41-12.41-12.41h0Zm3.74-46.4h-333.61c-6.83,0-12.41,5.58-12.41,12.41h0c0,6.83,5.58,12.48,12.41,12.48h333.61c6.83,0,12.41-5.65,12.41-12.48h0c0-6.83-5.58-12.41-12.41-12.41h0Zm8.15-46.4h-333.53c-6.9,0-12.48,5.65-12.48,12.48h0c0,6.83,5.58,12.41,12.48,12.41h333.53c6.83,0,12.41-5.58,12.41-12.41h0c0-6.83-5.58-12.48-12.41-12.48Z" style="fill:#fff; fill-rule:evenodd;"/><path d="M1532.88,697.1c36.93,33.7,20.85,67.47-6.46,130.17-27.31,62.62-32.16,294.11-32.16,294.11l22.54-3.23s-3.23-237.87,27.31-302.11c30.54-64.31,43.39-96.47,70.7-75.55,27.31,20.85-81.93-43.39-81.93-43.39Z" style="fill:#9db2d9; fill-rule:evenodd;"/><path d="M1512.54,653.41c4.48-20.04,31.2-41.7,66.81-60.05-5.29,29.51-22.25,77.75-4.7,87.66,23.71,13.36,2.28-54.04,11.45-91.04,33.48-16.37,73.78-29.73,110.86-36.34-.15,.15-.15,.29-.15,.44-20.92,53.01-48.24,73.93-37,81.93,8.44,6.02,36.05-55.21,72.46-86.63,27.31-1.47,50.44,2.28,64.09,13.07,21.14,16.74,35.31,31.57,14.02,82.52-12.11,8.66-27.82,14.9-46.11,16.74-48.24,4.85-70.7,6.46-36.93,22.54,16.45,7.86,44.2-.44,66.66-5.58-7.27,13.44-16.23,28.63-27.16,45.96-6.9,11.01-14.46,20.56-22.61,28.78-15.49,2.94-29.07,3.01-36.19-.07-22.54-9.69-80.32-40.16-94.86-27.31-14.1,12.55,107.19,20.56,98.75,52.49-58.81,33.92-126.06,17.77-137.95-13.36-16-41.77-74.96-51.54-61.45-111.74Z" style="fill:#c4d1eb; fill-rule:evenodd;"/><path d="M1634.12,881.89c-64.31-48.23-130.17-3.23-163.94,48.24-33.7,51.39-9.62,167.1-9.62,167.1,0,0,12.85,0,12.85-4.85s-35.39-136.56,48.24-196.02c52.27-37.22,89.94-19.31,94.78-1.62,4.85,17.69-20.92,49.85-20.92,49.85l38.62-62.7Z" style="fill:#9db2d9; fill-rule:evenodd;"/><path d="M1486.26,782.77c64.31,0,85.16,99.63,67.47,157.48-17.62,57.85-41.78,165.56-41.78,165.56l-16.08-16.08s61.08-151.09,46.62-218.56c-14.46-67.47-49.78-78.78-56.24-78.78s0-9.62,0-9.62Z" style="fill:#9db2d9; fill-rule:evenodd;"/><path d="M1540.15,940.77c4.55-6.02,10.13-11.01,16.96-14.24-.95,4.77-1.98,9.4-3.38,13.73-8,26.43-17.4,63.07-25.26,95.22-.73-4.11-1.84-10.43-3.52-20.26-.37-2.28-.66-4.77-.96-7.49,6.32-21.36,12.34-44.71,16.15-66.96Z" style="fill:#9db2d9; fill-rule:evenodd;"/><path d="M1557.77,941.21c122.09-51.39,57.78-122.02,165.41-75.4,7.64,3.3,16.89,11.6,26.14,22.98-9.62,2.72-21.22,4.7-34.14,2.72-32.16-4.77-20.92,20.92,32.16,27.31,9.99,1.25,18.06,2.94,24.81,5.29,25.33,48.53,36.71,112.33-16.81,134.57-10.5,4.33-23.49,6.83-38.03,7.78-16.52-13.07,4.04-88.98-21.44-78.48-24.37,10.06,7.71,65.05,3.3,78.85-24.15-.37-50.81-4.33-76.28-10.65-10.13-5.65-17.84-13.29-20.19-23.2-8.08-33.77,45-54.7,46.62-83.62,1.47-26.58-19.46,58.51-74.88,71.07-50.07-23.42-73.79-55.21-16.67-79.22Z" style="fill:#c4d1eb; fill-rule:evenodd;"/><path d="M1470.69,850.32c12.92-27.31-20.85-33.77-19.24-12.92,1.4,18.57,1.54,63.51-17.4,75.84-32.74-3.6-77.31-16.81-111.01-36.93-.44-2.64,0-5.51,1.4-8.37,14.46-28.93,107.7-53.01,78.78-62.62-23.05-7.71-63.43,37.66-95.96,60.42-19.53-14.83-32.6-32.45-32.6-52.2,0-26.65,32.45-56.9,74.37-71.36,18.87,1.91,36.41,12.19,63.8,27.75,40.53,22.91,31.13-14.17-7.12-36.12,33.04,1.69,65.93,15.79,90.23,49.48,0,0-2.28,14.46,13,36.78,41.55,60.79-6.46,96.25-63.87,93.97,3.3-16,16.74-44.86,25.62-63.73Z" style="fill:#c4d1eb; fill-rule:evenodd;"/><path d="M1630.23,879.17c31.42,24.3,66.37,52.71,109.17,71.95,42.88,19.31,34.29,82.15,34.29,82.15,0,0,6.46-54.25-29.29-72.9-35.68-18.5-59.25-40.67-86.34-44.93-27.24-4.33-42.21-8.59-42.21-8.59,0,0,8.59-17.18,3.6-23.57-4.99-6.46,10.79-4.11,10.79-4.11Z" style="fill:#9db2d9; fill-rule:evenodd;"/><path d="M1785.14,594.02c-114.97,30.69-199.25,104.25-214.97,122.16-15.79,17.77-15.79,22.83-15.79,22.83l12.19,22.83,5.73-2.86s-9.32-19.31,14.98-44.27c41.92-43.17,92.87-77.16,127.89-92.14,35.02-14.98,69.97-28.56,69.97-28.56Z" style="fill:#9db2d9; fill-rule:evenodd;"/><path d="M1467.68,1230.55h43.98c31.2,0,56.53-25.33,56.53-56.6v-100.95h-157.04v100.95c0,31.28,25.33,56.6,56.53,56.6Z" style="fill:#859ac6; fill-rule:evenodd;"/><rect x="1411.15" y="1091.05" width="157.04" height="11.09" style="fill:#fff;"/><rect x="1411.15" y="1111.24" width="157.04" height="6.46" style="fill:#fff;"/><polygon points="1310.06 65.49 1439.86 118.72 1404.18 164.16 1310.06 65.49" style="fill:#c4d1eb; fill-rule:evenodd;"/><polygon points="1458.14 97.28 1314.02 65.78 1493.38 78.92 1458.14 97.28" style="fill:#c4d1eb; fill-rule:evenodd;"/><polygon points="1458.14 97.28 1454.76 156.97 1439.86 118.72 1310.06 65.49 1314.02 65.78 1458.14 97.28" style="fill:#9db2d9; fill-rule:evenodd;"/><polygon points="1454.76 156.97 1424 138.83 1439.86 118.72 1454.76 156.97" style="fill:#859ac6; fill-rule:evenodd;"/><path d="M1488.09,152.56c-4.18-.51-3.23-6.68,.66-6.17l6.24,.66c4.11,.51,3.23,6.68-.73,6.17l-6.17-.66h0Zm212.69,247.34c2.79,0,4.11,3.38,2.28,5.21-.44,.59-1.39,.95-2.28,.95h-3.96c-4.04,0-4.18-6.17,0-6.17h3.96Zm-22.46-.59c3.67,0,4.18,6.24-.37,6.24l-6.24-.44c-4.48-.51-3.23-6.68,.44-6.17l6.17,.37h0Zm-24.45-2.35c3.89,.51,3.3,6.68-.95,6.17l.95-6.17h0Zm-23.79-5.21c3.74,1.4,2.28,6.97-1.91,5.87-2.06-.59-4.04-1.32-6.09-2.13-3.75-1.62-1.54-7.2,2.35-5.8,1.84,.81,3.75,1.47,5.65,2.06h0Zm-21.14-10.65c3.3,2.72-.81,7.42-3.89,4.85-1.76-1.39-3.38-2.94-4.92-4.62-2.72-3.3,2.2-7.12,4.7-4.11,1.32,1.4,2.64,2.72,4.11,3.89h0Zm-11.6-18.87c.51,4.48-5.65,4.77-6.17,1.1-.37-2.2-.59-4.41-.73-6.61,0-4.33,6.24-4.11,6.24-.15,.07,1.91,.29,3.74,.66,5.65h0Zm1.69-23.2c-.95,3.74-7.05,2.5-6.02-1.69,.51-2.06,1.18-4.11,1.84-6.09,1.54-4.11,7.27-1.62,5.87,1.98-.59,1.84-1.17,3.82-1.69,5.8h0Zm8.59-22.83c-1.54,3.6-7.42,1.39-5.65-2.57,.88-1.91,1.76-3.82,2.64-5.73,2.28-3.96,7.41-.37,5.65,2.79-.95,1.84-1.84,3.67-2.64,5.51h0Zm11.09-22.1c-2.2,3.82-7.42,.44-5.51-2.86l2.94-5.51c2.13-3.74,7.41-.44,5.51,2.94-1.03,1.76-1.98,3.67-2.94,5.43h0Zm11.6-22.1c-2.28,3.96-7.41,.44-5.58-2.79l2.72-5.51c2.13-3.74,7.19-1.03,5.58,2.64l-2.72,5.65h0Zm10.06-23.2c-1.4,3.74-6.97,2.2-5.87-1.98,.59-1.91,1.17-3.74,1.69-5.73,.95-3.96,7.05-2.5,6.02,1.54-.51,2.06-1.1,4.11-1.84,6.17h0Zm3.16-25.84c.51,4.11-5.73,4.85-6.17,.73-.22-1.91-.59-3.82-1.1-5.73-.95-3.96,5.07-5.43,6.02-1.47,.59,2.13,.96,4.26,1.25,6.46h0Zm-9.62-24.37c2.42,3.38-2.64,6.97-4.99,3.67-1.17-1.62-2.35-3.08-3.67-4.55-2.86-3.45,2.2-7.12,4.62-4.19,1.39,1.54,2.79,3.38,4.04,5.07h0Zm-18.72-17.77c3.16,2.35,.22,7.34-3.52,5.21-1.69-1.17-3.38-2.2-5.07-3.23-3.45-1.98-.51-7.49,3.16-5.36,1.83,1.1,3.67,2.2,5.43,3.38h0Zm-22.54-11.89c3.82,1.62,1.32,7.34-2.35,5.73-1.91-.81-3.82-1.54-5.73-2.28-3.82-1.4-1.69-7.27,2.2-5.8,1.98,.73,3.96,1.54,5.87,2.35h0Zm-23.79-8.3c3.67,.95,2.5,7.05-1.76,5.95l-5.95-1.62c-3.82-.95-2.5-7.05,1.62-6.02l6.09,1.69h0Zm-24.45-5.95c4.33,1.03,2.42,6.97-1.25,6.09l-6.02-1.25c-3.96-.95-3.08-6.61,1.1-6.09l6.17,1.25h0Zm-24.67-4.41c3.89,.51,3.38,6.68-.88,6.17l-6.17-.88c-3.89-.51-3.3-6.75,.88-6.17l6.17,.88Z" style="fill:#859ac6; fill-rule:evenodd;"/><polygon points="842.32 60.94 712.59 114.16 748.27 159.68 842.32 60.94" style="fill:#c4d1eb; fill-rule:evenodd;"/><polygon points="694.31 92.73 838.35 61.3 658.99 74.37 694.31 92.73" style="fill:#c4d1eb; fill-rule:evenodd;"/><polygon points="694.31 92.73 697.69 152.41 712.59 114.16 842.32 60.94 838.35 61.3 694.31 92.73" style="fill:#9db2d9; fill-rule:evenodd;"/><polygon points="697.69 152.41 728.37 134.35 712.59 114.16 697.69 152.41" style="fill:#859ac6; fill-rule:evenodd;"/><path d="M664.35,148.01c4.18-.51,3.23-6.68-.66-6.17l-6.24,.66c-4.11,.51-3.23,6.68,.73,6.17l6.17-.66h0Zm-212.69,247.34c-2.79,0-4.18,3.38-2.28,5.21,.44,.59,1.39,1.03,2.28,1.03h3.96c4.04,0,4.11-6.24-.07-6.24h-3.89Zm22.47-.59c-3.67,0-4.18,6.24,.29,6.24l6.31-.44c4.4-.51,3.23-6.61-.51-6.17l-6.09,.37h0Zm24.45-2.28c-3.89,.44-3.38,6.68,.95,6.17l-.95-6.17h0Zm23.79-5.29c-3.74,1.39-2.28,6.97,1.91,5.95,2.06-.66,4.04-1.4,6.02-2.13,3.82-1.69,1.54-7.27-2.28-5.8-1.84,.73-3.74,1.4-5.65,1.98h0Zm21.07-10.57c-3.23,2.64,.88,7.34,3.89,4.85,1.76-1.47,3.45-3.01,4.92-4.63,2.79-3.38-2.13-7.12-4.62-4.11-1.32,1.39-2.72,2.64-4.19,3.89h0Zm11.67-18.94c-.59,4.48,5.65,4.77,6.09,1.1,.44-2.2,.66-4.41,.73-6.61,0-4.33-6.24-4.11-6.24-.15,0,1.91-.29,3.82-.59,5.65h0Zm-1.69-23.2c.95,3.74,7.05,2.5,6.02-1.69-.59-1.98-1.17-4.11-1.84-6.09-1.54-4.11-7.27-1.61-5.95,1.98,.66,1.91,1.25,3.82,1.76,5.8h0Zm-8.59-22.83c1.54,3.6,7.34,1.39,5.65-2.57-.88-1.91-1.76-3.82-2.64-5.73-2.35-3.96-7.41-.37-5.65,2.79,.95,1.84,1.84,3.67,2.64,5.51h0Zm-11.09-22.1c2.13,3.82,7.42,.51,5.51-2.86l-2.94-5.51c-2.13-3.74-7.42-.44-5.51,2.94,1.03,1.76,1.98,3.67,2.94,5.43h0Zm-11.6-22.1c2.28,3.96,7.42,.44,5.58-2.72l-2.72-5.58c-2.13-3.75-7.19-.95-5.65,2.72l2.79,5.58h0Zm-10.13-23.2c1.47,3.74,6.97,2.28,5.95-1.91-.66-1.91-1.17-3.82-1.69-5.8-1.03-3.96-7.05-2.42-6.02,1.54,.51,2.13,1.1,4.11,1.76,6.17h0Zm-3.08-25.84c-.51,4.11,5.65,4.85,6.17,.81,.22-1.91,.59-3.89,1.03-5.73,1.03-4.04-4.99-5.51-6.02-1.54-.51,2.13-.88,4.26-1.17,6.46h0Zm9.54-24.3c-2.42,3.38,2.72,6.9,5.07,3.6,1.17-1.61,2.35-3.08,3.67-4.55,2.79-3.38-2.2-7.12-4.63-4.19-1.47,1.62-2.86,3.38-4.11,5.14h0Zm18.8-17.77c-3.16,2.28-.29,7.27,3.45,5.14,1.69-1.1,3.38-2.2,5.14-3.23,3.45-1.98,.51-7.42-3.16-5.36-1.84,1.1-3.67,2.2-5.43,3.45h0Zm22.47-11.97c-3.82,1.62-1.25,7.34,2.42,5.73,1.91-.73,3.82-1.54,5.73-2.28,3.74-1.39,1.61-7.27-2.28-5.8-1.91,.73-3.89,1.54-5.87,2.35h0Zm23.86-8.3c-3.74,.95-2.5,7.05,1.69,6.02l5.95-1.69c3.89-.95,2.5-6.98-1.54-6.02l-6.09,1.69h0Zm24.45-5.95c-4.33,1.03-2.42,6.97,1.25,6.09l6.02-1.25c3.96-.95,3.01-6.61-1.17-6.09l-6.09,1.25h0Zm24.67-4.41c-3.89,.51-3.38,6.68,.88,6.17l6.09-.88c3.96-.51,3.38-6.68-.81-6.17l-6.17,.88Z" style="fill:#859ac6; fill-rule:evenodd;"/><path d="M0,1345.22c0,20.85,152.34,37.74,340.29,37.74s340.22-16.89,340.22-37.74c0-51.32-680.51-50.29-680.51,0Z" style="fill:#c4d1eb; fill-rule:evenodd;"/><path d="M1595.94,1291.78c-160.05,0-289.78,23.86-289.78,53.3s129.73,53.23,289.78,53.23,289.78-23.86,289.78-53.23-129.73-53.3-289.78-53.3Z" style="fill:#c4d1eb; fill-rule:evenodd;"/><path d="M1013.52,628.6c-11.09-5.07-22.39-9.54-33.48-13.73l-2.86-1.1-3.01,.73c-33.18,7.42-69.89,14.1-104.03,13.95-15.42-.07-33.11-1.54-47.5-7.64l-8.88-3.74-68.87,137.29,8.44,4.85c.81,.44,1.69,1.25,2.42,1.91,2.06,1.76,3.96,3.52,6.17,4.99,21.14,18.58,49.63,34.29,78.48,31.86v.44c-.73,7.42,.66,15.05,4.48,21.44,2.13,3.67,5.07,6.83,8.59,9.18,3.6,2.42,7.64,3.96,11.97,4.48,4.33,.44,8.66-.15,12.77-1.47,1.47,8.59,4.77,17.03,11.45,22.91,7.12,6.39,16.45,8.15,25.7,7.63,1.69,7.56,5.14,14.68,11.45,19.53,6.97,5.36,15.71,6.53,24.3,5.73,.22,1.25,.59,2.5,1.03,3.67,1.98,5.14,5.73,8.96,10.65,11.31,5.43,2.5,11.67,3.16,17.54,3.01,17.91-.51,39.35-7.93,55.94-14.32l3.01-1.17,11.23,13.51c4.55,5.43,11.01,8.81,17.99,9.4,7.05,.66,14.02-1.47,19.46-5.95,5.43-4.55,8.81-11.01,9.4-18.06,.07-.73,.07-1.54,.15-2.28,4.41,4.11,9.98,6.75,16,7.34,6.9,.73,13.8-1.25,19.24-5.65l.59-.51,.15-.15c4.41-3.82,7.34-8.96,8.59-14.54,3.96,3.01,8.66,4.92,13.66,5.43,6.97,.73,13.88-1.25,19.31-5.65l.51-.37c5.21-4.48,8.52-10.79,9.32-17.55,.22-2.42,.15-4.77-.22-7.12,2.28,.95,4.7,1.54,7.2,1.76,6.9,.81,13.8-1.25,19.23-5.65l.15-.07,.59-.51c5.07-4.4,8.3-10.65,9.03-17.4,.73-6.68-1.1-13.51-5.43-18.79l-.51-.66-7.27-8.37c22.91,1.32,37.81-8.44,58.66-21.07l6.31-.96,1.76-1.03c1.32-.88,2.72-1.69,4.04-2.5l8.08-4.77-69.6-150.73-9.18,3.89c-14.02,5.95-35.68,7.05-50.8,7.12-34.07,.15-70.77-6.53-103.96-13.95l-3.01-.73-2.86,1.1c-8.66,3.23-17.25,6.68-25.7,10.35l-7.86,3.38Z" style="fill:#9db2d9; fill-rule:evenodd;"/><path d="M1081.07,713.83c3.45,11.23,8,20.92,13.73,29.15,1.62,2.28,1.03,5.43-1.25,7.05-.37,.22-.73,.44-1.03,.59-9.32,4.4-17.84,7.05-25.7,8-10.06,1.1-18.87-.59-26.5-5.29-7.56-4.55-13.73-11.82-18.5-21.81-1.62-3.38-3.08-7.05-4.41-11.01-7.49-2.13-14.32-4.92-20.63-8.37-5.87-3.23-11.23-6.97-16-11.23-40.16,23.27-71.21,43.24-93.09,59.98-21.36,16.37-33.77,29.22-37,38.54-.59,5.8,.59,11.01,3.08,15.12,1.4,2.42,3.3,4.48,5.43,5.95,2.2,1.47,4.7,2.42,7.34,2.72,3.74,.44,7.93-.37,12.33-2.72,.66-.66,1.47-1.1,2.35-1.32l53.81-32.3c15.64-9.4,26.87-16.08,33.55-20.12,2.35-1.47,5.43-.66,6.9,1.62,1.39,2.42,.66,5.51-1.69,6.97-8.66,5.21-19.82,11.97-33.55,20.26l-52.42,31.42,.07,.37c1.17,9.18,4.04,15.78,8.59,19.82,4.41,3.96,10.72,5.58,19.02,4.99h.29l1.54-.15c21-12.19,38.47-22.54,52.27-31.06,13.8-8.52,23.86-15.2,30.17-19.97,2.2-1.69,5.43-1.25,7.12,1.03,1.62,2.2,1.17,5.36-1.03,7.05-6.46,4.92-16.74,11.67-30.98,20.48-13.07,8.08-29.66,17.91-49.7,29.51,1.32,6.9,3.96,11.82,7.86,14.83,4.33,3.3,10.57,4.48,18.72,3.45,15.71-8.37,28.7-15.27,38.84-20.92,9.54-5.21,16.52-9.25,20.92-12.04,.66-6.61,3.82-13.07,9.32-17.69,5.65-4.63,12.55-6.61,19.31-5.95,3.01,.29,6.02,1.1,8.88,2.42-.07-1.4-.07-2.79,.07-4.19,.73-6.39,3.82-12.63,8.96-17.18l.81-.66c5.58-4.48,12.41-6.24,19.01-5.58,2.57,.29,5.14,.95,7.56,1.98,0-.81,.07-1.54,.15-2.28,.73-6.53,3.89-12.85,9.18-17.4l.51-.44c5.58-4.55,12.48-6.31,19.09-5.65,6.68,.73,13.14,3.96,17.84,9.47l8.66,10.13,.15-1.69c.66-6.46,3.82-12.7,9.03-17.25l.66-.51c5.58-4.55,12.41-6.31,19.09-5.65,6.61,.73,13.07,3.89,17.84,9.4l9.47,10.94c27.82,5.73,41.92-4.85,65.56-19.09l6.31-1.03c1.32-.81,2.72-1.62,4.18-2.5l-61.45-133.25c-13.21,5.65-33.55,7.93-54.77,8-28.19,.07-63.58-4.7-106.31-14.24-9.03,3.38-17.47,6.75-25.18,10.13,6.02,3.01,11.45,6.02,16.37,9.03,16.23,9.76,26.8,19.6,31.64,29.22,.37,.73,.51,1.47,.59,2.13,1.18,14.54,3.52,27.46,6.98,38.76h0Zm-7.56-40.89h0Zm21.29,104.99h0Zm-99.26,87.44h0c7.19-3.96,12.99-7.19,17.33-9.84,1.03,2.94,2.57,5.8,4.62,8.3l15.05,18.06c-22.61,8.74-40.09,13.22-52.49,13.58-5.36,.15-9.69-.51-12.78-1.98-2.64-1.25-4.48-3.16-5.43-5.65-.51-1.17-.81-2.42-.96-3.82,13.95-7.42,25.47-13.58,34.65-18.65h0Zm62.92,31.86l-33.18-39.87c-2.86-3.38-4.04-7.71-3.67-11.82,.37-4.18,2.35-8.22,5.73-11.01,3.45-2.86,7.78-4.04,11.89-3.67,4.18,.37,8.15,2.28,11.01,5.73l33.18,39.87c2.86,3.45,4.04,7.71,3.67,11.89-.37,4.11-2.35,8.15-5.73,11.01-3.45,2.79-7.71,4.04-11.89,3.67-4.11-.44-8.15-2.35-11.01-5.8h0Zm44.78-19.09l-40.53-46.4-.37-.44c-2.57-3.16-3.6-7.2-3.16-11.16,.44-3.96,2.35-7.86,5.58-10.65l.51-.37c3.38-2.79,7.56-3.89,11.6-3.45,4.19,.44,8.3,2.5,11.31,5.95l27.53,31.5,14.76,17.33c1.54,2.79,2.13,5.95,1.76,9.1-.44,3.96-2.35,7.85-5.51,10.72l-.51,.37c-3.45,2.79-7.56,3.82-11.6,3.38-4.19-.44-8.3-2.5-11.38-5.87h0Zm22.98,2.5h0Zm-61.01-71.51h0Zm-2.86,22.17h0Zm60.28,4.26l-23.35-27.46-.37-.37c-2.64-3.23-3.67-7.34-3.23-11.38,.44-4.04,2.42-8,5.73-10.79l.29-.22c3.38-2.79,7.63-3.89,11.67-3.45,4.18,.44,8.3,2.5,11.23,5.95l46.4,54.55,.29,.37c2.64,3.3,3.67,7.42,3.3,11.45-.44,4.04-2.42,7.93-5.73,10.72l-.3,.29c-3.45,2.79-7.63,3.82-11.75,3.45-4.19-.44-8.22-2.5-11.16-5.95l-6.83-8.08c-.59-.88-1.17-1.76-1.84-2.64l-.66-.73-13.73-15.71h0Zm14.39,16.44h0Zm31.86,12.92h0Zm-67.55-79.36h0Zm-2.13,22.54h0Zm82.45,25.7l-27.09-31.28-.3-.44c-2.57-3.16-3.6-7.27-3.16-11.23,.37-3.96,2.35-7.93,5.58-10.72l.44-.37c3.38-2.72,7.56-3.82,11.6-3.38,4.26,.44,8.3,2.5,11.31,5.95l27.09,31.28,.29,.37c2.64,3.23,3.6,7.27,3.23,11.23-.44,4.04-2.42,7.93-5.65,10.72l-.37,.37c-3.45,2.79-7.64,3.89-11.67,3.45-4.18-.51-8.3-2.5-11.31-5.95h0Zm25.77-19.82h0Zm-53.15-11.82h0Zm-169.23-111.15c-1.76-1.69-4.48-1.91-6.39-.59-41.99,24.23-74.37,45.08-97.06,62.48-17.11,12.99-28.93,24.3-35.53,33.84-28.19,5.65-57.27-10.65-77.9-28.93-3.3-1.91-6.17-5.58-9.69-7.56l60.2-119.89c13.21,5.51,30.32,8.37,51.47,8.44,28.19,.07,63.58-4.7,106.31-14.24,25.33,9.47,45.37,18.79,60.2,27.75,14.02,8.52,23.13,16.67,27.38,24.38,1.32,14.83,3.74,28.19,7.42,40.09,3.08,10.06,6.97,19.02,11.75,26.87-6.31,2.64-12.19,4.26-17.55,4.85-7.78,.95-14.46-.37-20.12-3.74-5.8-3.52-10.65-9.4-14.61-17.62-1.69-3.45-3.16-7.27-4.48-11.53-.07-.44-.22-.88-.44-1.32-2.35-8-4.18-17.4-5.43-28.12-.29-2.79-2.79-4.77-5.58-4.48-2.79,.29-4.77,2.79-4.48,5.58,.95,7.86,2.13,15.05,3.67,21.58-4.48-1.54-8.66-3.45-12.55-5.58-6.24-3.38-11.75-7.49-16.59-12.26h0Z" style="fill:#e0e8f5; fill-rule:evenodd;"/><path d="M1262.41,588.07c14.17,47.87,39.28,106.23,79.22,166.21-13.51,7.49-45.59,21.44-74.22,25.48-35.24-78.41-51.39-114.75-62.55-161.67,20.19-12.85,32.16-19.89,57.56-30.03Z" style="fill:#fff; fill-rule:evenodd;"/><path d="M1620.76,629.26c-129.58,55.8-225.02,91.26-284.71,116.59-33.92-52.64-56.38-103.67-70.33-147.13,70.77-38.84,161.3-88.54,271.42-149.18,35.17,53.74,62.99,113.58,83.62,179.72Z" style="fill:#859ac6; fill-rule:evenodd;"/><path d="M766.33,588.07c-14.24,47.87-39.28,106.23-79.22,166.21,13.51,7.49,45.59,21.44,74.23,25.48,35.24-78.41,51.39-114.75,62.55-161.67-20.19-12.85-32.16-19.89-57.56-30.03Z" style="fill:#fff; fill-rule:evenodd;"/><path d="M424.5,636.31c121.21,51.76,211.07,85.31,268.19,109.54,33.92-52.64,56.38-103.67,70.33-147.13-67.03-36.78-151.75-83.33-254.1-139.57-35.31,52.93-63.43,111.96-84.43,177.15Z" style="fill:#859ac6; fill-rule:evenodd;"/><path d="M1242.66,621.04c-6.9,0-12.48,5.58-12.48,12.48s5.58,12.48,12.48,12.48,12.48-5.58,12.48-12.48-5.58-12.48-12.48-12.48Z" style="fill:#9db2d9; fill-rule:evenodd;"/><path d="M786.67,620.67c-6.9,0-12.48,5.58-12.48,12.48s5.58,12.48,12.48,12.48,12.48-5.58,12.48-12.48-5.58-12.48-12.48-12.48Z" style="fill:#9db2d9; fill-rule:evenodd;"/><path d="M141.33,1259.99s-12.48,12.33-12.77,16.89c-.29,4.48-1.1,53.01,3.96,57.56,5.07,4.48,20.04,7.78,15.27,12.85-3.67,3.82-31.64,3.01-50.22,1.98-5.36-.37-12.19-44.05-14.32-50.51-3.08-9.32-14.32-29.73-11.53-36.12,1.39-3.16,11.67-10.42,21-16.52,9.69-6.46,19.09-20.7,19.09-20.7l29.51,34.58Z" style="fill:#f9af79; fill-rule:evenodd;"/><path d="M308.28,1290.23l-11.16,32.16c-.88,5.07-4.11,17.55-4.11,22.17,0,17.33,76.94-14.68,59.76-22.39-1.61-.73-6.46-6.24-6.97-12.11-.81-9.1,6.46-20.41,6.46-20.41l-43.98,.59Z" style="fill:#f9af79; fill-rule:evenodd;"/><path d="M414.51,683.07l27.9,72.17s18.21,172.31,7.64,275.39c-4.48,43.17-100.36,274.07-100.36,274.07l-47.65-6.83,63.8-273.41-23.42-104.55-33.26-206.74,105.35-30.1Z" style="fill:#0e2952; fill-rule:evenodd;"/><path d="M283.24,686.82l-23.93,80.32-36.41,242.64-122.97,227.01s18.5,28.41,38.32,32.89l174.66-229.43,94.56-287.21-3.3-63.8-120.92-2.42Z" style="fill:#223f81; fill-rule:evenodd;"/><path d="M659.95,681.68c-18.57-.88-17.99,2.35-20.41,2.13-2.79-.22-32.74-23.42-32.74-23.42,0,0-88.84-67.69-93.46-71.43l-55.43-102.12-57.78,13.58s63.21,109.32,67.54,114.46c4.26,5.14,134.79,82.45,146.1,89.72,0,0,10.35,13.58,17.03,21.88,6.83,8.37,16.89,13.14,19.16,15.2,.29,.29,8.22,6.75,20.04,11.82,10.21,4.55,2.57-4.41,2.57-4.41,0,0-17.4-11.75-16.23-12.92,.88-1.03,9.99,6.02,21.22,11.09,2.86,1.32,5.73,2.57,8.3,3.67,6.9,3.01,10.72-.29,4.04-4.7-2.35-1.54-6.39-3.96-9.47-5.29-3.38-1.47-5.95-3.89-8.59-5.51-5.21-3.3-9.1-5.65-8.81-5.73,.29-.22-.29-1.62,2.86-.29,3.67,1.54,10.87,6.61,16.59,8.52,3.23,1.03,9.76,3.6,9.76,3.6,0,0,11.16,3.08,11.45,2.42,1.76-3.16-5.58-7.64-10.13-8.44-2.64-2.13-9.62-4.63-9.62-4.63,0,0-13-8.37-11.82-10.28,.88-1.54,35.83,12.33,37.44,9.1,1.25-2.72-9.1-7.41-9.1-7.41,0,0-6.46-2.35-8.52-3.3-2.42-1.1-9.54-4.99-9.54-4.99,0,0-24.01-14.68-22.76-16.37,1.17-1.76,6.09-4.77,7.86-4.4,1.83,.44,4.77,2.94,6.53,3.23,1.76,.44,4.48-.66,5.14-2.86,.59-2.2-7.34-7.49-7.34-7.49,0,0-6.53-4.11-11.89-4.4Z" style="fill:#f9af79; fill-rule:evenodd;"/><path d="M479.93,515.32l-59.4,33.55s-25.48-50.44-36.27-75.11c-13.07-29.88-26.28-69.38-22.39-70.11,11.01-2.06,25.92-2.42,38.84,5.14,44.64,26.58,79.22,106.53,79.22,106.53Z" style="fill:#466fb5; fill-rule:evenodd;"/><path d="M190.15,815.44c-10.35-16.96-12.7-14.46-13.95-16.74-1.54-2.64,.15-43.02,.15-43.02,0,0,4.18-119.16,4.55-125.54l53.08-110.05-45.89-43.1s-54.55,121.21-56.31,128.11c-1.76,6.9,10.87,168.71,11.53,183.1,0,0-5.36,17.25-8.3,28.27-3.01,10.87-1.1,22.76-1.47,25.92-.07,.59-.73,11.31,1.91,24.96,2.28,11.67,5.36-.51,5.36-.51,0,0-.44-22.39,1.25-22.1,1.32,.22,.88,12.55,3.3,25.48,.59,3.3,1.25,6.61,1.76,9.62,1.54,8,6.75,9.25,6.39,.73-.07-3.01-.44-8.08-1.17-11.6-.73-3.82-.29-7.56-.44-10.87-.37-6.53-.66-11.38-.44-11.23,.37,.15,1.17-1.25,1.98,2.35,.88,4.26,.88,13.66,2.72,19.75,1.03,3.45,2.72,10.87,2.72,10.87,0,0,4.62,10.72,5.36,10.65,3.74-.29,2.57-8.59,.59-13.07,.15-3.52-1.84-11.23-1.84-11.23,0,0-.73-16.52,1.54-16.74,.95,0,2.57,10.06,5.65,19.82,2.86,8.96,7.2,17.55,8.96,17.18,3.08-.44,.95-10.79,.95-10.79,0,0-1.91-7.05-2.35-9.47-.51-2.86-1.47-11.45-1.47-11.45,0,0-1.91-30.1,.29-30.03,2.06,.15,7.56,2.64,8.3,4.48,.81,1.76,.44,5.87,1.17,7.71,.81,1.76,3.3,3.52,5.51,2.79,2.28-.73,1.91-10.94,1.91-10.94,0,0-.29-8.3-3.3-13.29Z" style="fill:#f9af79; fill-rule:evenodd;"/><path d="M93.31,1245.74s26.28,80.54,37.52,84.5c3.01,1.03,19.82,5.29,22.54,11.67l.22,.66c.81,4.11-2.64,7.78-6.75,7.78h-53.45s-7.56-36.12-10.57-52.05c0,0-15.86-38.84-14.1-42.29,1.76-3.6,24.59-10.28,24.59-10.28Z" style="fill:#0e2952; fill-rule:evenodd;"/><path d="M288.6,1350.29l8.81-28.27s18.5,7.93,27.75,6.61c9.32-1.25,27.38-6.61,27.38-6.61,36.93,12.33,67.25,18.28,61.74,28.27h-125.69Z" style="fill:#0e2952; fill-rule:evenodd;"/><path d="M637.56,698.93c7.71,3.01,15.05,2.94,22.1-1.32-5.29,7.78-16.67,7.12-22.1,1.32Z" style="fill:#f48661; fill-rule:evenodd;"/><path d="M291.83,391.98s-35.9,4.99-45.37,11.97c-10.65,7.86-43.61,44.34-43.61,44.34,0,0,68.65,196.61,66,231.63-2.72,34.95-10.21,86.85-10.21,86.85,0,0,134.28,8.52,184.72-11.45,0,0-16.89-79.44-16.89-100.21s-8.96-228.91-15.27-239.85c-6.46-10.87-19.24-17.03-43.61-22.39-24.37-5.29-75.77-.88-75.77-.88Z" style="fill:#6d96ce; fill-rule:evenodd;"/><path d="M301.67,335.88l-8.88,58.22s32.45,69.38,51.83,63.36c16.3-5.07,6.31-66.37,6.31-66.37,0,0-8.88-33.04-6.24-49.56,2.64-16.37-43.02-5.65-43.02-5.65Z" style="fill:#f9af79; fill-rule:evenodd;"/><path d="M344.69,341.54c2.64-16.37-43.02-5.65-43.02-5.65l-.73,4.77c1.32,3.3,2.94,6.09,4.92,8.15,10.2,10.87,26.21,17.55,39.94,17.99-1.32-8.88-2.2-18.43-1.1-25.26Z" style="fill:#f48661; fill-rule:evenodd;"/><path d="M294.18,253.51c-1.32-.44-10.35,66.3,6.83,84.72,17.18,18.28,50.66,24.37,62.7,9.84,5.95-7.12,17.84-27.16,9.47-49.85-8.44-22.91-8.81-46.4-23.57-56.82-26.72-18.87-55.43,12.11-55.43,12.11Z" style="fill:#f9af79; fill-rule:evenodd;"/><path d="M348.22,184.79c-25.04,51.39-52.05,44.12-56.97,49.48-39.5,4.55-63.87,70.63-23.93,101.24,18.87,14.46,31.06,22.1,31.06,22.1l3.01-8.81c2.13-6.53,3.08-13.51,2.35-20.41-.44-4.04-1.32-8.52-3.08-12.19-4.55-9.62,9.76-16.08,13.8-24.15,3.01-6.17,3.16-20.41,8-30.54l5.8-7.86s13.36-10.43,26.5-7.42c13.07,2.94,21.8-30.69-6.53-61.45Z" style="fill:#20386f; fill-rule:evenodd;"/><path d="M313.49,303.95c.15,8.15-3.6,14.83-8.3,14.83-4.77,.15-8.74-6.39-8.81-14.54-.15-8.22,3.52-14.83,8.3-14.9,4.77-.07,8.66,6.46,8.81,14.61Z" style="fill:#f9af79; fill-rule:evenodd;"/><path d="M158.21,518.77l60.13,46.84s26.5-25.33,39.87-53.52c13.51-28.49,1.61-111.67-12.7-107.85-32.16,8.74-87.29,114.53-87.29,114.53Z" style="fill:#466fb5; fill-rule:evenodd;"/><path d="M1670.9,749c-6.61,5.8-13.73,8.15-22.17,6.39,7.86,5.95,18.79,1.4,22.17-6.39Z" style="fill:#f48661; fill-rule:evenodd;"/><path d="M1641.32,1318.79c1.25-8.88-1.54-24.15-8.52-48.09,13.73,.07,25.33-6.02,39.43-5.8,3.82,22.47,9.76,59.32,9.76,59.32l.66,29.15-97.94,.73s.81,.44,29.66-17.77c2.13-1.39,25.7-9.03,26.94-17.55Z" style="fill:#f9af79; fill-rule:evenodd;"/><path d="M1683.09,1360.86h-101.02c-3.82-.29-4.7-3.38-3.38-5.21,2.64-3.89,22.39-13.21,35.61-19.38,23.27,2.42,64.09-7.12,67.84-12.48,6.31,17.84,3.01,36.63,.95,37.08Z" style="fill:#0e2952; fill-rule:evenodd;"/><path d="M1763.26,1318.79c1.25-8.88,3.38-20.04,.29-49.63,13.8,0,26.87-2.57,40.89-2.35,0,23.13-.44,57.41-.44,57.41l.59,29.15-97.94,.73s.88,.44,29.73-17.77c2.13-1.39,25.7-9.03,26.87-17.55Z" style="fill:#f9af79; fill-rule:evenodd;"/><path d="M1805.04,1360.86h-101.02c-3.74-.29-4.7-3.38-3.38-5.21,2.64-3.89,22.39-13.21,35.68-19.38,23.27,2.42,64.09-7.12,67.76-12.48,6.39,17.84,3.08,36.63,.95,37.08Z" style="fill:#0e2952; fill-rule:evenodd;"/><path d="M1692.12,473.17l-36.85-38.84s-39.43,21.66-85.38,42.36c-12.63-21.95-33.18-94.34-34.36-97.79-1.1-3.45,24.15-46.91,18.5-47.94-5.65-1.1-13,23.2-18.94,20.7-5.95-2.5-21.37-58.81-24.96-55.72-6.68,5.73,8.15,35.02,4.55,37.15-3.52,2.13-12.55-32.45-19.38-30.98-6.83,1.47,11.53,31.5,9.54,34.36-2.06,2.94-21.29-25.26-25.26-18.72-2.13,3.52,17.77,24.52,13.66,26.87-4.04,2.35-22.03-10.87-24.15-6.61-2.13,4.33,16.74,8.81,21.95,19.6,5.29,10.87,14.83,15.05,17.99,35.53,3.16,20.48,11.82,130.02,34.14,138.83,19.46,7.71,148.96-58.81,148.96-58.81Z" style="fill:#f9af79; fill-rule:evenodd;"/><path d="M1668.33,682.78l29.88,16.67,60.72,92.8-108.58,255.57s12.19,38.47,16.22,57.63c4.11,20.12,14.39,192.5,14.39,192.5l-46.33,.81s-44.05-183.54-51.47-243.16c-9.03-72.32,46.03-244.63,46.03-244.63,10.28-35.17,32.45-107.48,32.45-107.48,0,0,5.36-17.62,6.68-20.7Z" style="fill:#20386f; fill-rule:evenodd;"/><path d="M1772.29,647.91s-3.08,21.8,9.25,46.77c7.56,15.12,20.56,27.09,29.88,45.67,17.62,35.17,27.16,85.16,20.56,117.32,0,0-36.42,139.2-35.02,190.08,.59,18.72,6.97,52.57,11.09,75.4,3.67,20.19,4.92,172.53,4.92,172.53l-51.76-1.54-39.57-245.8-16.74-218.42-36.56-147.13,103.96-34.87Z" style="fill:#223f81; fill-rule:evenodd;"/><path d="M1662.75,327.22c4.55-21.58,9.32-43.32,30.76-58.88,17.33-12.55,35.97-16.15,55.8-8.96,56.09,20.26,25.92,64.83,95.52,112.18,21.58,14.76,29.81,19.9,45.3,39.57,21.73,27.46,33.62,64.31,22.69,94.71-22.61,62.77-92.5,80.91-129.14,67.62-68.06-24.74-124.81-111.15-128.63-134.72-4.04-25.26,4.77-97.65,7.71-111.52Z" style="fill:#20386f; fill-rule:evenodd;"/><path d="M1651.89,497.62c-16.52,7.56-46.4,19.02-46.4,19.02l-16.96-53.74c96.03-54.55,88.47-45.74,160.49-44.71,57.63,.88,81.71-10.13,131.27,123.63,0,0-37.66,16.96-51.25,22.39-5.8-16.52-16.3-49.48-22.39-30.69-9.25,28.41-16,57.12-20.56,86.63-2.94,17.47-9.18,39.87-5.87,57.71,0,0-39.21,8.08-69.16,9.4h-.29c-14.46-.37-29.22-1.61-42.44-4.48,0,0-5.87-124.15-9.03-129.29-3.45-5.73-18.13-24.3-5.65-51.98,2.2-4.92,1.62-5.51-1.76-3.89Z" style="fill:#6d96ce; fill-rule:evenodd;"/><path d="M1723.91,713.03c-.66,.07-3.74-.29-6.24-.22-3.45,0-6.46,.59-6.46,.59,0,0-1.32-1.25-3.96-2.42-1.1-.44-2.86-.66-4.04-1.25-1.25-.51-2.28-1.62-3.45-2.13-3.08-1.32-5.87-1.62-6.83-.07-.73,1.39,16.3,11.75,16.3,11.75,15.71,.15,32.23,8.15,68.72-15.64,20.85-9.1,122.09-59.1,124.08-70.04,1.17-6.09-14.39-53.45-27.02-89.35-9.84,4.33-30.62,13.58-42.29,18.5,10.72,22.61,23.35,52.64,21.95,56.31-.29,.95-1.62,2.72-70.04,47.5-1.69,1.1-3.45,2.28-5.29,3.45-4.77,3.16-9.98,6.53-15.42,10.06l-19.53-2.06s-30.91,2.2-31.86,5.65c-.37,1.62,2.2,2.42,5.36,2.94h.07c.44,0,.95,.07,1.39,.15h.07c3.38,.37,6.97,.44,7.86,.81,.95,.29,2.94,1.1,4.63,2.2-19.31,7.93-17.77,5.14-24.15,4.7-1.62-.07-3.3,.37-4.85,.22-2.57-.22-4.63-1.76-6.61-1.91-2.94-.15-5.36,1.25-5.87,1.76-.73,.73,.59,1.69,3.08,2.86,14.83,6.39,27.17,3.89,31.13,4.92,2.64,.59-2.2,1.62-9.76,.81-1.83-.22-4.33,.51-6.83-.07-1.69-.44-3.23-1.47-4.85-1.84-1.54-.44-3.08-.37-4.33-.59-1.69-.29-3.96-1.62-5.29-1.76-4.99-.59-7.34,.29-7.93,.73-1.1,1.03,21.29,9.62,21.29,9.62,0,0,15.49,2.28,18.94,2.28,0,0,2.13,.95-1.98,1.54Z" style="fill:#f9af79; fill-rule:evenodd;"/><path d="M1741.97,365.25s4.41,35.46,6.97,47.72c2.72,12.85,6.75,53.45-19.9,59.98-26.72,6.61-18.43-44.05-18.94-57.19-.37-13.07-8-58.73-8-58.73l39.87,8.22Z" style="fill:#f9af79; fill-rule:evenodd;"/><path d="M1743.44,376.56c-.29,.15-.51,.29-.81,.51-14.76,8.44-27.61,7.12-37.22,.51-1.76-11.31-3.3-20.56-3.3-20.56l39.87,8.22s.59,4.7,1.47,11.31Z" style="fill:#f27458; fill-rule:evenodd;"/><path d="M1733.97,272.89s15.64,4.41,24.67,19.97c8.96,15.56,13.51,60.13-19.75,79.22-33.18,19.02-56.75-11.45-55.72-40.01,1.03-28.56,8.96-66.3,50.8-59.17Z" style="fill:#f9af79; fill-rule:evenodd;"/><path d="M1675.82,319.81c-.37,7.41,2.79,13.58,7.05,13.8,4.33,.22,8.08-5.58,8.44-13,.37-7.42-2.79-13.66-7.05-13.88-4.33-.15-8.08,5.65-8.44,13.07Z" style="fill:#f9af79; fill-rule:evenodd;"/><path d="M1729.27,271.79s17.91,46.69,35.39,51.61c17.55,4.99,16.15,27.9,16.15,27.9,0,0,2.2-53.01-13.8-66.08-16-12.92-37.74-13.44-37.74-13.44Z" style="fill:#20386f; fill-rule:evenodd;"/><path d="M1757.17,332.51c-2.72,7.34-.95,14.76,3.96,16.59,4.85,1.84,11.01-2.57,13.73-9.91,2.72-7.27,.95-14.68-3.96-16.52-4.85-1.83-11.01,2.57-13.73,9.84Z" style="fill:#f9af79; fill-rule:evenodd;"/></svg>