<?xml version="1.0" encoding="UTF-8"?><svg id="a" xmlns="http://www.w3.org/2000/svg" viewBox="0 0 1865.15 1518.58"><path d="M957.84,131.84c-227.26,0-323.01,143.72-487.04,255.5C253.63,535.21,36.49,438.94,1.73,938.58c-30.93,444.66,355.17,48.1,899.6,207.4,544.39,159.3,1098.88,223.43,934.39-291.91C1671.17,338.65,1485.84,131.84,957.84,131.84Z" style="fill:#e0e8f5; fill-rule:evenodd;"/><path d="M145.16,753.12c-17.01-7.46-33.17-16.68-48.13-27.46-4.28-3.05-8.93-8.38-6.01-12.66,1.62-2.47,5.16-3.18,8.05-2.47,2.92,.72,5.42,2.47,7.82,4.22,8.79,6.49,17.66,12.98,26.48,19.41-19.31-13.18-34.53-31.81-43.39-52.9-1.59-3.77-2.82-8.38-.23-11.62,2.14-2.6,6.17-3.12,9.44-2.08,3.25,1.04,5.88,3.31,8.31,5.65,15.29,14.54,26.71,32.85,32.91,52.51,.36-10.39-1.1-24.47,8.15-29.86,3.15-1.82,6.95,2.73,8.41,6.04,1.43,3.18,1.46,6.88,1.27,10.45-.78,14.22-5.06,28.24-13.08,40.77Z" style="fill:#fff; fill-rule:evenodd;"/><path d="M141.23,751.24c7.17,34.6,10.65,69.78,10.65,105.03,.03,101-28.92,202.2-83.84,288.54,1.66,.78,3.41,1.43,5.1,2.14,55.18-87.11,84.22-188.9,84.22-290.68,0-35.57-3.57-71.21-10.81-106.13l-5.32,1.1Z" style="fill:#9db2d9; fill-rule:evenodd;"/><path d="M161.55,1015.24c-17.17,11.29-35.83,27.13-48.81,42.91l4.19,3.44c12.5-15.12,30.9-30.77,47.61-41.8l-2.99-4.54Z" style="fill:#9db2d9; fill-rule:evenodd;"/><path d="M115.17,861.01c15.26,15.58,27.17,34.01,34.79,54.01l5.06-1.95c-7.89-20.64-20.19-39.79-35.96-55.83l-3.89,3.76Z" style="fill:#9db2d9; fill-rule:evenodd;"/><path d="M124.65,866.72c-23.21-1.88-46.19-6.17-68.48-12.79-6.36-1.82-14.15-6.17-12.63-12.4,.84-3.51,4.67-5.71,8.37-6.1,3.73-.39,7.46,.72,11,1.82,13.18,4.02,26.39,8.05,39.56,12.07-28.4-7.72-54.46-23.37-74.13-44.53-3.54-3.76-7.01-8.7-5.39-13.5,1.36-3.89,5.84-6.1,10.13-6.23,4.28-.06,8.34,1.56,12.27,3.25,24.28,10.91,45.73,27.72,61.67,48.23-4.15-12.27-12.11-28.17-3.64-38.24,2.89-3.38,9.35,.39,12.46,3.63,3.15,3.25,4.77,7.53,6.13,11.75,5.35,17.01,6.52,35.12,2.66,53.03Z" style="fill:#fff; fill-rule:evenodd;"/><path d="M159.21,1021.34c4.19-22.65,12.33-44.59,24.15-64.65,2.14-3.63,5.49-7.79,9.8-7.14,3.41,.52,5.55,4.03,5.55,7.34,.03,3.31-1.53,6.42-3.12,9.35-6.2,11.81-12.33,23.63-18.53,35.51,15.42-25.58,42.52-44.4,72.67-50.63,6.26-1.23,14.96-.58,16.23,5.39,.91,4.22-2.86,7.92-6.33,10.71-23.47,18.63-49.89,33.88-78.03,45.12,14.74-5.58,31.06-7.27,46.74-4.67,4.12,.65,8.28,1.69,11.49,4.22,3.25,2.53,5.16,6.95,3.51,10.58-1.85,4.15-7.14,5.65-11.78,6.42-24.38,4.15-49.82,1.95-72.35-7.53Z" style="fill:#fff; fill-rule:evenodd;"/><path d="M144.93,961.17c18.82-37.98,57.25-66.47,100.42-74.46-17.62,41.02-54.69,66.93-100.42,74.46Z" style="fill:#9db2d9; fill-rule:evenodd;"/><path d="M229.68,895.35c-30.15,19.34-59.85,39.14-86.5,62.97-.84,.78-.91,2.01-.16,2.92,.75,.85,2.04,.91,2.89,.13,26.35-23.56,55.86-43.3,85.98-62.58,.94-.58,1.23-1.88,.62-2.79-.62-.97-1.88-1.23-2.82-.65Z" style="fill:#c4d1eb; fill-rule:evenodd;"/><path d="M141.46,977.2c-5.91-36.29-29.24-69.72-62.09-88.86,7.5,34.79,30.64,70.04,62.09,88.86Z" style="fill:#9db2d9; fill-rule:evenodd;"/><path d="M84.99,899.31c19.44,25.06,37.42,51.15,53.78,78.16,.58,.97,1.85,1.23,2.82,.65,.97-.58,1.27-1.82,.68-2.79-16.46-27.13-34.5-53.36-54.07-78.48-.68-.91-1.95-1.1-2.86-.39-.88,.72-1.04,1.95-.36,2.86Z" style="fill:#c4d1eb; fill-rule:evenodd;"/><path d="M155.77,849.06c7.56-42.06,32.29-80.43,67.64-105.03-.06,43.49-28.76,84.78-67.64,105.03Z" style="fill:#9db2d9; fill-rule:evenodd;"/><path d="M211.89,757.73c-17.85,30.51-36.8,60.43-56.73,89.71-.62,.91-.39,2.21,.55,2.79,.94,.65,2.21,.46,2.86-.52,19.96-29.34,38.95-59.33,56.86-89.9,.55-.97,.26-2.21-.75-2.79-.94-.58-2.21-.26-2.79,.72Z" style="fill:#c4d1eb; fill-rule:evenodd;"/><path d="M152.43,817.13c-13.14-39.73-43.3-74.06-81.95-93.35,12.43,38.04,45.11,74.65,81.95,93.35Z" style="fill:#9db2d9; fill-rule:evenodd;"/><path d="M83.46,741.37c22.4,25.64,44.76,51.28,67.15,76.92,.75,.84,2.05,.97,2.89,.2,.84-.72,.94-2.01,.19-2.86-22.36-25.64-44.76-51.35-67.15-76.99-.75-.85-2.05-.91-2.89-.2-.84,.78-.94,2.01-.19,2.92Z" style="fill:#c4d1eb; fill-rule:evenodd;"/><path d="M315.39,844.91c-44.73,117.36-119.15,224.41-214.73,309.7,4.54,.78,9.25,1.43,14.09,1.95,93.6-85.43,166.54-191.49,210.84-307.75l-10.19-3.9Z" style="fill:#9db2d9; fill-rule:evenodd;"/><path d="M272.16,826.99c-15.84,5.39-33.43,5.58-50.15,8.57-16.71,2.99-33.82,9.67-41.58,23.76-5.16,9.35-5.58,20.77-3.99,31.81,1.62,10.58,5.42,21.68,14.12,28.95,11.16,9.28,27.13,9.67,40.8,7.27,29.08-5.19,55.05-20.64,72.96-43.23-.94,16.88-1.82,34.01,1.36,51.02,3.18,17.01,10.74,34.27,24.28,46.61,13.53,12.27,33.62,18.63,49.82,12.98,18.92-6.62,27.98-27.65,26.71-47.65-1.27-19.99-10.68-39.27-18.73-56.99,18.37,19.15,47.81,27.72,72.02,21.03,24.24-6.69,41.97-28.37,43.33-52.97,1.36-24.67-13.63-50.89-36.74-64.26-23.08-13.37-53-13.11-76.08,.13,8.73-11.49,17.56-23.17,23.21-36.55,5.58-13.44,7.69-28.89,2.79-43.49-4.97-14.54-17.98-27.72-33.46-30.58-12.33-2.27-24.37,1.95-34.44,7.92-25.09,15-41.67,41.48-46.02,69.91,1.69-26.16-16.91-54.2-43.14-64.91-26.19-10.71-57.64-3.12-72.9,17.53-15.25,20.64-12.89,52.58,5.49,73.94,19.67,22.92,51.6,31.09,80.33,39.21Z" style="fill:#fff; fill-rule:evenodd;"/><path d="M341.68,824.59c21.71-10.06,45.21-16.88,69.56-20.32-19.44,6.88-38.85,13.7-58.29,20.51,35.67-7.01,72.6-10.06,109.8-9.09-33.5,3.64-86.4,9.67-119.9,13.31,41.32-.78,102.76,2.66,143.33,14.8-42.1-6.82-97.05-8.44-139.11-8.44,34.73,8.31,82.02,14.73,116.75,23.04-35.05-3.96-81.99-10.06-116.71-17.66,28.72,10.13,69.33,20.45,98.02,30.64-28.34-7.92-67.31-17.46-95.68-25.38,26,17.07,63.68,34.34,91.43,48.3-33.98-13.63-67.25-29.21-99.61-46.54-.16-7.59-.36-15.19,.42-23.17Z" style="fill:#c4d1eb; fill-rule:evenodd;"/><path d="M342.72,852.63c16.85,18.11,29.7,39.6,37.26,62.25-8.5-21.29-21.62-41.16-38.17-58.03,21,31.55,35.44,66.86,42.03,102.69-12.63-34.4-28.04-68.09-46.22-100.55,15.12,39.53,30.28,79.32,38.85,120.09-14.7-39.34-29.44-78.67-44.14-118.08,7.76,37.07,17.49,73.94,29.24,110.35-12.43-32.85-22.65-66.28-30.64-100.03,3.73,34.66,10.35,69.2,19.73,103.28-12.98-33.56-24.05-74.65-26.61-109.51-4.09,26.48-4.67,60.89,1.04,88.02-10.91-31.94-12.98-65.95-6-97.31,7.27-.91,14.54-1.75,23.63-3.18Z" style="fill:#c4d1eb; fill-rule:evenodd;"/><path d="M293.62,833.29c-27.17,3.18-53.75,8.76-79.36,16.68,25.41-5.45,51.35-9.41,77.57-11.81-30.83,7.4-60.53,17.98-88.48,31.55,27.59-13.05,57.61-21.81,88.74-25.96-30.9,14.41-61.86,28.89-92.79,43.3,29.57-10.97,59.1-21.88,88.64-32.85-25.06,20.12-52.71,37.26-82.28,51.02,32.91-14.15,63.97-31.61,92.66-52.13-16.62,25.32-42.45,43.17-67.77,60.43,22.82-9.74,43.49-23.5,60.73-40.44-6.56,12.72-15.55,24.08-26.42,33.5,14.57-11.23,27.17-24.8,37.1-40.12,1.85-2.79,3.6-5.71,4.15-9.09,1.53-8.83-5.32-17.46-12.5-24.08Z" style="fill:#c4d1eb; fill-rule:evenodd;"/><path d="M295.66,826.47c-22.1-7.14-43.52-16.88-63.74-28.76,16.1,9.09,41.93,19.15,59.69,23.43-30.05-14.93-65.6-39.66-86.76-65.3,21.55,21.75,61.47,46.93,88.32,62.06-25.8-24.21-62.22-59.98-83.84-87.57,22.69,22.13,62.02,60.3,84.65,82.44-16.75-23.43-50.15-63.03-66.83-86.53,20.8,22.72,54.07,60.89,71.11,86.21-12.37-25.06-32.68-61.28-43.43-90.1,15.03,26.03,33.66,59.79,44.85,85.1-7.14-26.74-17.79-54.4-24.99-81.21,10.13,25.58,20.25,51.22,30.38,76.79,1.17,3.05,2.4,6.23,2.01,9.28-.88,7.6-10.81,11.62-11.42,14.15Z" style="fill:#c4d1eb; fill-rule:evenodd;"/><path d="M336.3,818.88c21.36-10.52,41.03-23.89,58.23-39.73-15.42,11.42-32.1,21.36-49.69,29.66,19.64-16.81,37.07-36.03,51.74-56.99-15.38,18.5-43.43,43.36-61.7,59.27,16.78-25.9,43.3-60.69,60.08-86.59-18.27,20.64-50.11,60.24-65.63,83.02,10.68-28.56,36.74-75.75,58.1-97.43-24.05,18.89-53.68,66.21-65.08,94.32,5.75-20.97,26.22-63.16,39.01-80.56-16.46,17.59-37.78,55.96-45.18,79,3.21-20.12,16.78-57.06,22.85-76.34-12.92,26.87-22.91,55.24-29.76,84.58,7.11,2.86,14.22,5.58,27.04,7.79Z" style="fill:#c4d1eb; fill-rule:evenodd;"/><path d="M326.62,865.16c-9.87,1.69-20.48-2.6-28.24-10.19-8.28-8.18-11.98-20.25-9.31-30.58,4.45-17.01,26.74-25.51,44.17-16.42,22.07,11.42,19.51,43.95,1.49,54.33-2.6,1.43-5.32,2.4-8.11,2.86Z" style="fill:#b0c2e4; fill-rule:evenodd;"/><path d="M190.89,1072.95c24.18-30.32,59.85-52.06,98.83-60.24,38.95-8.18,80.88-2.66,116.13,15.19-65.73,37.26-139.24,54.98-214.96,45.05Z" style="fill:#9db2d9; fill-rule:evenodd;"/><path d="M380.41,1028.48c-62.71,.78-125.25,13.57-182.83,37.26-1.07,.46-1.56,1.62-1.14,2.66,.42,1.04,1.62,1.56,2.66,1.1,57.12-23.5,119.15-36.16,181.33-36.93,1.17,0,2.05-.91,2.05-2.08,0-1.1-.94-2.01-2.08-2.01Z" style="fill:#c4d1eb; fill-rule:evenodd;"/><path d="M1726.15,791.62c20.51-3.7,40.44-9.41,59.53-17.2,5.45-2.21,11.88-6.69,9.87-12.14-1.17-3.05-4.74-4.8-8.12-4.8s-6.56,1.3-9.61,2.6c-11.23,4.67-22.59,9.41-33.88,14.08,20.19-7.66,38.3-19.99,52.58-35.64-2.92-7.99-5.84-15.78-8.7-23.56-20.25,11.75-37.39,28.5-49.27,48.17,2.34-11.36,7.66-26.29-.97-34.53-2.92-2.86-8.24,1.11-10.65,4.28-2.47,3.12-3.44,7.08-4.15,10.97-2.92,15.71-1.95,32,3.38,47.78Z" style="fill:#fff; fill-rule:evenodd;"/><path d="M1730.96,790.58c-16.88,35.64-29.99,72.96-39.21,111.2-26.55,109.31-21.87,226.35,14.67,334.3-1.88,.65-3.76,1.3-5.71,1.95-37-109.05-41.67-227.26-14.93-337.68,9.41-38.69,22.59-76.34,39.73-112.36l5.45,2.6Z" style="fill:#9db2d9; fill-rule:evenodd;"/><path d="M1639.43,1071.72c15.65,16.81,31.68,38.95,41.67,59.4l-5.45,2.66c-9.61-19.73-25.45-41.54-40.7-57.9l4.48-4.15Z" style="fill:#9db2d9; fill-rule:evenodd;"/><path d="M1730.31,916.57c-20.64,12.85-38.43,29.8-51.93,49.46l-5-3.44c14.02-20.38,32.39-37.91,53.75-51.15l3.18,5.13Z" style="fill:#9db2d9; fill-rule:evenodd;"/><path d="M1718.56,920.27c25.7,4.02,51.73,5.45,77.7,4.16,7.4-.33,16.94-2.99,16.94-10.13,0-4.02-3.57-7.47-7.47-8.83-3.9-1.43-8.31-1.17-12.46-.97-15.32,.91-30.77,1.82-46.09,2.73,32.85-.91,65.3-11.04,92.18-28.82,1.04-.65,2.08-1.36,3.12-2.21-2.08-6.88-4.15-13.89-6.42-21.03-3.57-.32-7.21,.26-10.78,.91-29.28,5.39-56.93,17.98-79.65,36.09,7.79-12.2,20.51-27.39,14.02-40.51-2.21-4.48-10.26-2.08-14.54,.65-4.22,2.66-7.07,6.88-9.67,11.1-10.32,17.07-16.36,36.42-16.88,56.86Z" style="fill:#fff; fill-rule:evenodd;"/><path d="M1640.34,1078.99c1.43-25.71-1.69-51.67-9.22-76.53-1.3-4.48-3.89-9.87-8.7-10.32-3.89-.32-7.14,2.92-7.98,6.49-.91,3.57-.07,7.34,.91,10.97,3.57,14.47,7.2,28.88,10.84,43.36-10.13-31.74-34.53-59.33-65.62-74-6.43-3.05-16.04-4.61-19.02,1.49-2.08,4.35,1.04,9.35,4.03,13.31,20.58,26.42,45.25,49.92,72.83,69.59-14.54-10-31.81-16.1-49.46-17.46-4.67-.39-9.48-.32-13.63,1.56-4.15,1.88-7.4,6.17-6.62,10.58,.97,5,6.3,8.05,11.16,10.06,25.32,10.97,53.55,15.19,80.49,10.91Z" style="fill:#fff; fill-rule:evenodd;"/><path d="M1671.63,1017.45c-10.39-46.15-44.59-87.24-89.32-107.3,8.31,49.14,41.67,87.11,89.32,107.3Z" style="fill:#9db2d9; fill-rule:evenodd;"/><path d="M1597.04,923.71c27.65,28.89,54.59,58.23,77.31,91.07,.65,1.04,.39,2.47-.65,3.18-1.04,.71-2.47,.46-3.12-.58-22.46-32.52-49.2-61.67-76.86-90.55-.84-.91-.78-2.34,.13-3.25,.84-.84,2.34-.78,3.18,.13Z" style="fill:#c4d1eb; fill-rule:evenodd;"/><path d="M1671.24,1035.75c15.97-37.84,50.11-67.96,90.75-80.1-17.27,35.77-51.67,67.96-90.75,80.1Z" style="fill:#9db2d9; fill-rule:evenodd;"/><path d="M1753.03,966.1c-27.72,22.07-54.07,45.63-78.93,70.62-.91,.91-2.34,.91-3.25,0-.91-.91-.91-2.34,0-3.25,24.99-25.12,51.48-48.81,79.32-70.95,1.04-.78,2.47-.65,3.25,.33,.78,.97,.58,2.47-.39,3.25Z" style="fill:#c4d1eb; fill-rule:evenodd;"/><path d="M1689.41,892.88c2.86-47.58-13.89-95.75-45.76-131.71-11.36,47.19,8.89,99.51,45.76,131.71Z" style="fill:#9db2d9; fill-rule:evenodd;"/><path d="M1652.54,779.02c11.42,37.78,24.08,75.23,37.97,112.23,.45,1.23-.2,2.53-1.36,2.99-1.17,.46-2.47-.19-2.86-1.36-14.02-37.13-26.74-74.65-38.1-112.56-.39-1.23,.32-2.47,1.49-2.86,1.23-.33,2.47,.32,2.86,1.56Z" style="fill:#c4d1eb; fill-rule:evenodd;"/><path d="M1701.49,859.13c24.02-38.62,64.26-67.38,109.83-78.8,.33,1.1,.65,2.14,1.04,3.18-24.15,36.16-67.64,65.43-110.87,75.62Z" style="fill:#9db2d9; fill-rule:evenodd;"/><path d="M1796.26,795.06c-31.03,21.94-62.06,43.88-93.15,65.82-.97,.78-2.4,.46-3.18-.52-.71-1.04-.52-2.47,.58-3.18,31.03-21.94,62.06-43.95,93.15-65.89,1.04-.71,2.47-.45,3.12,.59,.78,1.04,.52,2.4-.52,3.18Z" style="fill:#c4d1eb; fill-rule:evenodd;"/><path d="M1517.26,846.34c17.98,141.77,72.18,279.91,156.05,399.09-4.22,1.04-8.5,1.95-12.85,2.86-83.35-119.83-137.23-258.22-155.27-400.38l12.07-1.56Z" style="fill:#9db2d9; fill-rule:evenodd;"/><path d="M1568.93,838.29c15.78,10.06,34.79,14.87,52.19,22.53,17.33,7.59,34.14,19.34,38.82,36.74,3.12,11.49,.65,24.08-4.03,35.57-4.54,11.04-11.55,22.07-22.98,27.65-14.54,7.2-31.94,3.44-46.22-2.86-30.12-13.24-54.27-36.87-67.77-66.15-3.44,18.63-6.94,37.46-14.86,55.11-7.99,17.59-20.71,34.34-38.62,44.14-17.92,9.74-41.41,11.36-57.51,.97-18.83-12.14-23.04-37.39-16.42-58.75,6.62-21.36,21.94-39.79,35.31-56.93-24.99,15.97-59.14,17.53-83.67,3.9-24.54-13.7-38.1-41.87-33.11-68.94,5.06-27.07,28.17-51.6,56.73-60.04,28.63-8.37,61.02-.26,82.57,20.19-6.42-14.8-12.98-29.79-15.51-45.76-2.53-16.03-.78-33.43,8.37-47.97,9.22-14.47,26.87-25.38,44.4-24.34,13.96,.71,25.96,8.57,35.25,17.66,23.3,22.85,34.34,56.02,31.55,87.96,5.13-28.82,32.65-54.33,63.94-59.07,31.22-4.74,63.36,11.81,74.52,38.17,11.1,26.48,.13,60.5-25.45,78.87-27.39,19.67-64.13,20.12-97.5,21.36Z" style="fill:#fff; fill-rule:evenodd;"/><path d="M1494.09,817.39c-20.97-16.62-44.6-30.25-70.17-40.31,19.34,12.53,38.56,25.06,57.9,37.58-36.87-17.07-76.14-30.05-116.71-38.82,35.31,12.79,91.2,33.3,126.58,46.02-44.66-11.68-112.23-24.15-159.49-21.62,47.58,3.64,107.56,16.36,153.26,27.46-39.86-.2-92.96-5.58-132.81-5.78,39.08,4.93,91.59,10.71,131.38,11.55-33.88,3.51-80.62,3.96-114.51,7.47,32.85-1.17,77.64-1.23,110.48-2.34-32.65,11.68-78.16,20.51-111.91,28.37,40.51-5.91,80.69-14.02,120.35-24.28,2.21-8.24,4.41-16.42,5.65-25.32Z" style="fill:#c4d1eb; fill-rule:evenodd;"/><path d="M1485.58,847.57c-23.11,15.25-42.58,35.12-56.8,57.77,14.8-20.84,34.27-39.01,56.67-52.91-31.09,28.69-56.09,63.16-72.64,100.36,22.78-34.01,48.36-66.54,76.66-97.04-26.87,38.95-53.75,78.16-73.8,120.15,26.29-38.82,52.64-77.64,79-116.52-18.18,38.17-38.43,75.62-60.76,112.1,22.07-32.39,42-66.02,59.59-100.49-13.24,36.55-29.47,72.38-48.69,106.85,22.98-33.04,45.83-74.71,57.77-111.84-2.6,29.86-11.04,67.31-24.28,95.29,20.19-31.87,31.42-68.16,32.07-104.06-7.66-2.86-15.32-5.71-24.8-9.67Z" style="fill:#c4d1eb; fill-rule:evenodd;"/><path d="M1544.01,839.52c28.56,10.58,55.96,23.63,81.73,38.95-26.16-12.59-53.29-23.69-81.08-33.24,31.55,16.16,60.89,35.51,87.7,57.58-26.55-21.42-56.8-38.82-89.52-51.6,29.73,23.82,59.59,47.65,89.32,71.47-29.14-19.67-58.29-39.34-87.5-58.94,21.88,28.37,47.39,54.27,75.82,76.99-31.94-24.02-61.08-51.21-86.79-80.95,11.36,31.81,34.73,57.97,57.64,83.35-22.2-16.49-41.09-36.94-55.31-59.79,3.83,15.45,10.58,30.19,19.86,43.3-12.85-16.04-22.92-34.14-29.67-53.36-1.3-3.5-2.47-7.14-2.08-10.97,.65-10,10.32-17.53,19.86-22.78Z" style="fill:#c4d1eb; fill-rule:evenodd;"/><path d="M1543.55,831.54c25.9-1.95,51.73-6.81,76.73-14.34-19.8,5.58-50.5,9.67-70.95,9.67,36.61-8.31,81.66-25.77,111.39-48.04-29.14,17.92-79.06,34.73-112.17,44.08,34.34-19.47,83.29-48.69,114.05-72.96-30.45,18.05-83.22,49.14-113.6,67.25,24.34-21.1,70.95-55.18,95.29-76.34-28.56,19.15-74.72,51.86-99.84,74.84,19.99-24.02,51.6-57.9,70.82-86.33-23.11,24.21-52.32,55.96-71.08,80.49,14.8-27.13,33.62-54.33,48.49-81.53-17.72,25.12-35.44,50.24-53.16,75.37-2.08,2.99-4.22,6.1-4.67,9.54-.97,8.44,8.7,15.45,8.7,18.31Z" style="fill:#c4d1eb; fill-rule:evenodd;"/><path d="M1501.49,812.58c-20.45-17.01-38.24-36.74-52.78-58.42,13.76,16.42,29.21,31.61,46.09,45.31-16.88-23.43-30.7-48.82-41.09-75.56,11.81,24.15,35.7,58.55,51.35,80.62-11.42-32.52-31.03-77.25-42.39-109.77,14.41,27.2,38.49,78.61,49.4,107.3-4.09-33.75-19.99-91.85-37.39-121,21.1,26.87,40.77,86.01,45.7,119.51-.65-24.28-11.81-75.43-21.03-97.63,13.18,23.43,26.22,70.56,28.17,97.56,1.82-22.72-3.18-66.34-4.67-88.86,6.95,32.59,10.26,66.02,10,99.64-8.44,1.23-16.88,2.34-31.35,1.3Z" style="fill:#c4d1eb; fill-rule:evenodd;"/><path d="M1499.74,865.42c10.26,4.41,22.98,2.6,33.37-3.63,11.17-6.69,18.31-18.89,18.18-30.7-.39-19.67-22.33-34.73-43.62-29.54-27,6.62-32.72,42.58-15.9,58.62,2.4,2.27,5.13,4.02,7.98,5.26Z" style="fill:#b0c2e4; fill-rule:evenodd;"/><path d="M1592.37,1126.63c-18.24-39.27-51.22-72.25-91.4-91.4-40.12-19.08-87.05-24.21-130.02-14.09,61.54,57.77,136.64,96.33,221.42,105.49Z" style="fill:#9db2d9; fill-rule:evenodd;"/><path d="M1398.41,1028.48c67.83,17.4,132.36,47.65,188.64,88.61,.97,.71,1.23,2.14,.45,3.18-.71,1.04-2.14,1.24-3.18,.52-55.76-40.57-119.77-70.62-187.02-87.89-1.3-.32-1.95-1.56-1.69-2.79,.33-1.17,1.56-1.95,2.79-1.62Z" style="fill:#c4d1eb; fill-rule:evenodd;"/><path d="M868.91,954.22c42.94,65.3,177.21,120.35,177.21,120.35,0,0,8.83-136.32-34.14-201.68-42.91-65.3-133.98-113.99-159.17-92.37-20.12,17.27-26.84,108.34,16.1,173.71Z" style="fill:#c4d1eb; fill-rule:evenodd;"/><path d="M865.89,787.66c55.89,97.11,116.03,191.82,180.17,283.74,.97,1.3,.59,3.18-.71,4.15-1.37,.91-3.25,.58-4.15-.78-64.26-92.05-124.5-186.82-180.49-284.13-.81-1.43-.32-3.25,1.1-4.09,1.43-.78,3.25-.33,4.09,1.1Z" style="fill:#fff; fill-rule:evenodd;"/><path d="M915.78,798.3c-7.3,13.57-14.61,27.07-21.88,40.57-.58,1.04-1.62,1.62-2.76,1.62-13.99-.52-27.72-1.43-41.58-1.95-1.69,0-2.95-1.43-2.89-3.05,.03-1.62,1.43-2.92,3.08-2.86,13.99,.45,27.72,1.36,41.61,1.88l-.1,2.99-2.63-1.43c7.27-13.5,14.57-27.07,21.88-40.64,.78-1.43,2.6-1.95,4.02-1.17,1.46,.78,2.01,2.6,1.23,4.02Z" style="fill:#fff; fill-rule:evenodd;"/><path d="M959.76,841.47c-11.81,16.62-22.78,33.82-32.94,51.54-.55,.91-1.53,1.49-2.56,1.49h-2.5c-21.36,0-42.97-1.69-64.07-3.7-1.66-.13-2.86-1.62-2.69-3.25,.13-1.62,1.59-2.86,3.25-2.66,21.06,1.95,42.49,3.64,63.52,3.64h2.43v2.99l-2.56-1.49c10.26-17.85,21.36-35.25,33.27-52,.94-1.36,2.82-1.69,4.15-.78,1.33,.97,1.65,2.86,.71,4.22Z" style="fill:#fff; fill-rule:evenodd;"/><path d="M877.83,947.99c26.39-1.75,54.33-3.05,80.62-4.8l.2,2.99-2.4-1.82c14.48-19.41,29.86-38.17,46.05-56.21,1.1-1.23,3.05-1.3,4.22-.26,1.23,1.17,1.3,3.05,.26,4.22-16.1,17.92-31.38,36.54-45.77,55.83-.49,.71-1.3,1.17-2.17,1.23-26.39,1.75-54.33,3.05-80.62,4.8-1.65,.13-3.08-1.1-3.15-2.79-.13-1.62,1.1-3.05,2.76-3.18Z" style="fill:#fff; fill-rule:evenodd;"/><path d="M1024.63,953.83c-10.58,14.8-21.1,29.6-31.61,44.4-.59,.78-1.46,1.17-2.4,1.23-19.12,.32-38.75,1.43-57.61,4.02-1.62,.19-3.15-.91-3.38-2.6-.23-1.62,.94-3.12,2.56-3.31,19.21-2.66,39.05-3.76,58.32-4.09l.07,2.99-2.44-1.75c10.55-14.8,21.1-29.6,31.61-44.33,.97-1.36,2.86-1.69,4.15-.71,1.43,.97,1.69,2.79,.71,4.15Z" style="fill:#fff; fill-rule:evenodd;"/><path d="M1041.06,1003.75c-8.38,9.54-15.32,20.25-20.64,31.81-.52,1.04-1.62,1.69-2.79,1.69h-4.02c-11.84-.07-25.06,.84-36.19,3.05-1.59,.33-3.18-.71-3.5-2.34-.32-1.62,.71-3.18,2.37-3.5,11.68-2.34,25.19-3.18,37.32-3.18h4.09v2.99l-2.73-1.23c5.58-12.01,12.85-23.24,21.55-33.24,1.1-1.23,2.99-1.36,4.28-.26,1.17,1.1,1.3,2.99,.26,4.22Z" style="fill:#fff; fill-rule:evenodd;"/><path d="M1165.63,808.3c-61.47,48.36-104.84,186.82-104.84,186.82,0,0,136.58-2.79,198.05-51.15,61.41-48.36,102.11-143.26,78.48-166.5-18.95-18.56-110.22-17.46-171.69,30.83Z" style="fill:#c4d1eb; fill-rule:evenodd;"/><path d="M1331.29,791.1c-91.98,64-181.24,131.97-267.31,203.7-1.23,1.04-3.18,.91-4.22-.39-1.04-1.23-.91-3.18,.39-4.15,86.2-71.86,175.59-139.95,267.7-204.02,1.43-.97,3.25-.65,4.15,.72,.97,1.36,.65,3.18-.71,4.15Z" style="fill:#fff; fill-rule:evenodd;"/><path d="M1324.92,841.73c-14.08-6.1-28.17-12.27-42.26-18.37-1.04-.45-1.75-1.43-1.82-2.6-.71-13.96-.97-27.72-1.69-41.61-.06-1.62,1.17-3.05,2.86-3.12,1.62-.07,2.99,1.17,3.12,2.79,.71,14.02,.91,27.78,1.69,41.67l-2.99,.13,1.17-2.73c14.09,6.1,28.17,12.2,42.32,18.31,1.49,.65,2.21,2.47,1.56,3.96-.65,1.49-2.47,2.21-3.96,1.56Z" style="fill:#fff; fill-rule:evenodd;"/><path d="M1285.72,889.18c-17.59-10.32-35.64-19.8-54.2-28.43-.91-.45-1.56-1.36-1.69-2.4-1.69-17.98-2.08-36.22-2.08-54.33,0-4.09,0-8.24,.06-12.33,0-1.62,1.37-2.99,3.05-2.92,1.62,0,2.92,1.36,2.92,2.99-.06,4.09-.06,8.18-.06,12.27,0,17.98,.39,36.09,2.08,53.81l-2.99,.26,1.23-2.73c18.69,8.7,36.94,18.24,54.72,28.69,1.43,.84,1.88,2.66,1.04,4.09-.84,1.43-2.66,1.95-4.09,1.04Z" style="fill:#fff; fill-rule:evenodd;"/><path d="M1172.57,816.67c4.02,26.16,7.66,53.88,11.68,79.91l-2.99,.46,1.56-2.53c20.64,12.79,40.64,26.48,59.98,41.09,1.3,.97,1.56,2.86,.58,4.22-.97,1.3-2.86,1.56-4.22,.58-19.15-14.54-39.01-28.17-59.46-40.83-.78-.45-1.24-1.17-1.43-2.08-3.96-26.1-7.66-53.88-11.68-79.91-.19-1.62,.91-3.18,2.53-3.44,1.62-.26,3.18,.91,3.44,2.53Z" style="fill:#fff; fill-rule:evenodd;"/><path d="M1179.26,963.44c-15.64-9.22-31.22-18.5-46.93-27.72-.78-.52-1.3-1.36-1.43-2.27-1.95-19.02-4.74-38.49-8.96-57.12-.33-1.56,.71-3.18,2.34-3.5,1.56-.39,3.18,.65,3.51,2.21,4.28,18.95,7.14,38.62,9.09,57.77l-2.99,.33,1.56-2.53c15.58,9.22,31.22,18.5,46.87,27.72,1.43,.84,1.88,2.66,1.04,4.09-.84,1.43-2.66,1.88-4.09,1.04Z" style="fill:#c4d1eb; fill-rule:evenodd;"/><path d="M1130.9,984.02c-10.19-7.47-21.49-13.57-33.37-17.85-1.17-.45-1.95-1.43-2.01-2.6-.84-12.85-2.92-27.65-6.43-39.79-.46-1.62,.46-3.25,2.08-3.7,1.56-.45,3.18,.46,3.63,2.01,3.77,12.79,5.78,27.91,6.69,41.03l-2.99,.19,.97-2.79c12.46,4.54,24.28,10.84,34.99,18.7,1.36,.97,1.62,2.86,.65,4.22-.97,1.3-2.86,1.56-4.22,.59Z" style="fill:#fff; fill-rule:evenodd;"/><path d="M1102.08,619.98c-45.7,77.57-23.11,110.48,25.38,115.87,48.49,5.45,104.57-18.63,150.21-96.2,36.09-61.28,24.6-140.99,18.24-171.83-1.3-6.43-8.63-9.48-14.15-5.97-34.79,22.14-141.64,93.54-179.68,158.13Z" style="fill:#c4d1eb; fill-rule:evenodd;"/><path d="M1183.22,622.91c19.6,87.83-11.94,112.24-59.72,102.43-47.84-9.74-93.8-49.85-113.34-137.75-16.33-73.16,23.89-149.56,37.78-173.06,2.21-3.7,7.33-4.22,10.06-.91,22.66,27,108.28,133.14,125.22,209.28Z" style="fill:#c4d1eb; fill-rule:evenodd;"/><path d="M1125.32,658.22c-60.37,66.8-44.92,103.54,1.56,118.66,46.35,15.06,106.13,2.79,166.44-64,47.78-52.77,52.58-133.2,52.52-164.62-.07-6.56-6.56-11.04-12.66-8.7-38.56,14.67-157.61,63.1-207.85,118.66Z" style="fill:#fff; fill-rule:evenodd;"/><path d="M1135.83,657.31c38.95,81.14,13.76,112.04-35.05,113.34-48.75,1.36-102.6-27.33-141.58-108.53-32.46-67.51-10.58-151.05-2.34-177.15,1.27-4.09,6.13-5.71,9.54-3.12,28.14,21.23,135.67,105.16,169.42,175.46Z" style="fill:#fff; fill-rule:evenodd;"/><path d="M1061.83,596.23c-19.41,105.61,9.48,150.99,53.88,159.1,44.47,8.18,87.63-23.95,106.98-129.57,15.71-85.43-18.11-198.05-31.55-237.91-2.27-6.69-10.91-8.24-15.38-2.86-26.74,32.52-98.28,125.87-113.92,211.23Z" style="fill:#fff; fill-rule:evenodd;"/><path d="M1101.69,671.92c-7.72,42.39,8.18,97.5,8.18,97.5,0,0,34.27-46.02,41.93-88.35,7.66-42.32-.26-62.45-14.15-64.91-13.83-2.53-28.3,13.44-35.96,55.76Z" style="fill:#b0c2e4; fill-rule:evenodd;"/><path d="M1028.47,703.14c23.69,35.96,73.22,64.78,73.22,64.78,0,0-7.01-56.93-30.71-92.83-23.69-35.9-43.29-44.92-55.11-37.19-11.68,7.79-11.16,29.34,12.59,65.24Z" style="fill:#b0c2e4; fill-rule:evenodd;"/><path d="M1181.53,695.22c-34.21,26.03-59.72,77.44-59.72,77.44,0,0,56.34-10.84,90.62-36.94,34.21-26.03,41.93-46.22,33.37-57.38-8.5-11.23-29.99-9.15-64.26,16.88Z" style="fill:#b0c2e4; fill-rule:evenodd;"/><path d="M1212.43,777.66c-34.92,16.17-108.99,27.13-108.99,27.13,0,0-76.14-43.75-101.2-72.96,6.1-6.3,17.72-6.17,25.58-2.47,7.92,3.76,14.08,10.32,20.9,15.77,6.75,5.52,15.06,10.26,23.76,9.41,9.54-.97,17.01-8.31,24.34-14.54,7.33-6.3,16.94-12.01,26.03-9.09,13.37,4.41,15.45,23.37,26.87,31.61,8.96,6.42,21.16,4.61,32.2,3.38,10.97-1.23,23.89,2.92,30.51,11.75Z" style="fill:#9db2d9; fill-rule:evenodd;"/><path d="M1117.66,793.82c-40.12,119.63-62.84,245.11-67.12,371.17l-15.9-.52c4.35-127.62,27.33-254.66,67.9-375.72l15.12,5.06Z" style="fill:#9db2d9; fill-rule:evenodd;"/><path d="M585.79,1103.01c1.49,1.04,3.05,2.08,4.61,3.05,61.02-1.23,125.64,2.21,193.25,13.31-16.52-41.29-50.31-113.47-94.74-144.63-63.94-44.98-166.57-56.67-182.02-27.26-12.33,23.43,14.93,110.61,78.9,155.53Z" style="fill:#9db2d9; fill-rule:evenodd;"/><path d="M521.66,949.29c72.34,57.45,146.7,112.3,222.94,164.49-4.25-.58-8.54-1.1-12.79-1.56-73.06-50.31-144.43-103.08-213.86-158.26-1.3-1.04-1.49-2.92-.49-4.22,1.01-1.23,2.89-1.49,4.19-.46Z" style="fill:#c4d1eb; fill-rule:evenodd;"/><path d="M571.96,940.85c-1.82,15.25-3.6,30.51-5.42,45.76-.13,1.1-.88,2.08-1.95,2.47-13.18,4.67-26.29,8.89-39.37,13.57-1.56,.52-3.28-.26-3.83-1.82-.55-1.56,.26-3.25,1.82-3.83,13.21-4.67,26.32-8.89,39.37-13.57l1.01,2.86-2.99-.39c1.82-15.25,3.64-30.51,5.42-45.76,.19-1.69,1.69-2.79,3.31-2.66,1.66,.2,2.82,1.69,2.63,3.38Z" style="fill:#c4d1eb; fill-rule:evenodd;"/><path d="M628.73,964.74c-4.84,19.8-8.73,39.86-11.65,60.05-.16,1.04-.84,1.95-1.85,2.34-20.55,8.31-42.06,14.93-63.23,21.09-1.56,.46-3.25-.45-3.7-2.01-.45-1.62,.46-3.25,2.01-3.7,21.1-6.17,42.45-12.72,62.67-20.9l1.14,2.79-2.95-.46c2.95-20.38,6.88-40.63,11.75-60.63,.42-1.62,2.05-2.6,3.64-2.21,1.59,.39,2.56,2.01,2.18,3.64Z" style="fill:#c4d1eb; fill-rule:evenodd;"/><path d="M591.79,1093.98c23.89-11.36,49.4-22.85,73.19-34.21l1.3,2.73-2.89-.78c6.3-23.43,13.7-46.54,22.1-69.26,.58-1.56,2.3-2.34,3.86-1.75,1.52,.59,2.34,2.27,1.75,3.83-8.37,22.52-15.71,45.5-21.97,68.74-.23,.84-.81,1.56-1.59,1.88-23.89,11.42-49.4,22.85-73.19,34.21-1.49,.71-3.25,.06-3.96-1.43-.71-1.49-.1-3.24,1.4-3.96Z" style="fill:#c4d1eb; fill-rule:evenodd;"/><path d="M730.45,1045.3c-4.35,17.66-8.7,35.31-13.08,52.9-.23,.98-.88,1.69-1.75,2.08-6.62,2.73-13.24,5.58-19.83,8.63-4.06-.33-8.11-.65-12.14-.91,9.8-4.74,19.77-9.09,29.7-13.24l1.14,2.73-2.89-.71c4.35-17.59,8.73-35.25,13.08-52.91,.39-1.56,2.01-2.53,3.6-2.14,1.59,.39,2.6,2.01,2.17,3.57Z" style="fill:#c4d1eb; fill-rule:evenodd;"/><path d="M764.07,1085.67c-3.41,9.61-5.71,19.6-6.88,29.73-1.98-.33-3.96-.58-5.91-.84,1.2-10.51,3.6-20.9,7.14-30.9,.58-1.49,2.27-2.34,3.83-1.82,1.56,.59,2.37,2.27,1.82,3.83Z" style="fill:#667a40; fill-rule:evenodd;"/><path d="M616.46,766.1c9.15,89.52,46.8,102.69,89.09,78.29,42.26-24.34,73.19-76.92,64-166.5-7.24-70.76-63.71-128.2-87.11-149.17-4.9-4.41-12.59-2.53-14.96,3.57-14.93,38.43-58.68,159.3-51.02,233.82Z" style="fill:#c4d1eb; fill-rule:evenodd;"/><path d="M683.52,720.34c67.87,59.2,56.86,97.5,12.59,117.95-44.3,20.51-105.1,15.39-172.96-43.82-56.47-49.27-69.33-134.63-72.05-161.83-.42-4.28,3.41-7.66,7.56-6.69,34.24,8.37,166.11,43.1,224.86,94.38Z" style="fill:#c4d1eb; fill-rule:evenodd;"/><path d="M657.84,783.11c-9.06,89.58,25.19,110.03,71.5,94.71,46.31-15.39,87.18-60.69,96.2-150.27,7.14-70.76-36.58-138.39-55.31-163.65-3.86-5.32-11.81-5.06-15.35,.45-22.33,34.73-89.51,144.24-97.04,218.76Z" style="fill:#fff; fill-rule:evenodd;"/><path d="M665.73,776.17c79.49,42.26,77.44,82.11,38.98,112.1-38.49,29.93-98.9,38.69-178.38-3.57-66.18-35.18-98.05-115.41-106.85-141.32-1.4-4.02,1.56-8.24,5.84-8.18,35.21,.39,171.53,4.35,240.41,40.96Z" style="fill:#fff; fill-rule:evenodd;"/><path d="M569.92,770.84c46.96,96.52,97.11,115.93,137.75,96.13,40.64-19.73,56.31-71.14,9.38-167.67-38.01-78.09-131.94-148.85-166.44-172.99-5.74-4.02-13.66-.19-14.02,6.82-2.3,42.06-4.64,159.62,33.33,237.71Z" style="fill:#fff; fill-rule:evenodd;"/><path d="M646.91,808.23c18.86,38.62,64.33,73.61,64.33,73.61,0,0,.33-57.38-18.57-96.01-18.89-38.69-37.19-50.11-49.82-43.95-12.63,6.17-14.83,27.65,4.06,66.34Z" style="fill:#b0c2e4; fill-rule:evenodd;"/><path d="M606.43,876.72c40.38,14.87,97.4,8.76,97.4,8.76,0,0-39.43-41.67-79.78-56.54-40.38-14.86-61.54-10.52-66.41,2.66-4.87,13.18,8.41,30.25,48.78,45.11Z" style="fill:#b0c2e4; fill-rule:evenodd;"/><path d="M725.03,779.61c-12.14,41.29-2.21,97.76-2.21,97.76,0,0,38.95-42.13,51.09-83.41,12.17-41.22,6.39-62.06-7.11-66.02-13.5-4.02-29.63,10.39-41.77,51.67Z" style="fill:#b0c2e4; fill-rule:evenodd;"/><path d="M798.77,827.77c-18.6,33.69-71.73,86.4-71.73,86.4,0,0-87.21,9.87-124.7,1.17,1.14-8.7,10.55-15.52,19.15-17.14,8.57-1.62,17.4-.07,26.13,.32,8.73,.39,18.21-.65,24.7-6.49,7.14-6.42,8.76-16.81,10.97-26.16,2.24-9.35,6.52-19.67,15.68-22.72,13.37-4.41,26.23,9.67,40.31,9.48,11.04-.07,19.83-8.76,27.91-16.29,8.15-7.46,21-11.75,31.58-8.57Z" style="fill:#9db2d9; fill-rule:evenodd;"/><path d="M725.19,893.66c36.9,71.34,61.76,148.84,73.74,228.3-5.55-1.04-11.07-1.95-16.55-2.86-11.98-75.88-36.06-149.89-71.34-218.11l14.15-7.33Z" style="fill:#9db2d9; fill-rule:evenodd;"/><path d="M1425.86,1255.94c-.84-6.3-2.73-12.4-5.71-18.18-18.63-36.29-75.04-45.12-103.93-16.23,6.56-14.86,6.17-36.41,.39-55.24-4.35-14.02-11.68-26.61-21.36-33.95-22.72-17.14-57.25-16.36-79.19,1.75,11.81-31.61,5.84-83.03-14.15-110.22-19.99-27.13-57.97-41.16-89.65-29.47-31.74,11.62-51.73,50.57-39.27,81.98-14.67-22.46-48.81-38.04-74.81-31.48-26,6.55-46.54,30.64-48.85,57.32-23.53-28.3-49.72-54.53-84-67.97-34.24-13.44-77.34-10-102.56,16.88-15.42,16.42-19.99,42.06-13.63,63.16,49.11,6.3,99.9,16.42,152.19,31.68,182.96,53.55,366.99,96.27,524.53,109.96h0Zm-833.81-149.88c-8.31-6.23-17.4-11.62-27.59-15.97-40.73-17.46-92.53-14.87-124.41,15.9-4.02,3.89-7.5,8.18-10.52,12.86,50.7-6.62,105.03-11.75,162.51-12.79Z" style="fill:#9db2d9; fill-rule:evenodd;"/><path d="M840.02,1130.27c.91-.52,1.85-.97,2.79-1.43,13.11-5.78,28.4-1.17,41.38,4.93,10.91,5.13,21.1,10.26,30.57,16.1,20.97,6.1,42,12.01,62.97,17.79,28.01-16.55,67.67-15.71,94.16,3.5-9.54-24.47,7.46-54.33,32.52-62.38,25.06-8.11,53.75,3.44,70.11,23.95s18.7,45.83,15.71,71.92c12.14-26.42,37.98-46.02,66.73-50.5,20.45-3.18,41.93,1.43,59.65,12.14-4.35-14.02-11.68-26.61-21.36-33.95-22.72-17.14-57.25-16.36-79.19,1.75,11.81-31.61,5.84-83.03-14.15-110.22-19.99-27.13-57.97-41.16-89.65-29.47-31.74,11.62-51.73,50.57-39.27,81.98-14.67-22.46-48.81-38.04-74.81-31.48-26,6.55-46.54,30.64-48.85,57.32-23.53-28.3-49.72-54.53-84-67.97-34.24-13.44-77.34-10-102.56,16.88-15.42,16.42-19.99,42.06-13.63,63.16,29.7,3.77,60.01,9.09,90.88,15.97h0Zm-247.97-24.21c-8.31-6.23-17.4-11.62-27.59-15.97-40.73-17.46-92.53-14.87-124.41,15.9-4.02,3.89-7.5,8.18-10.52,12.86,50.7-6.62,105.03-11.75,162.51-12.79Z" style="fill:#b0c2e4; fill-rule:evenodd;"/><path d="M987.86,1351.82c-276.5,0-500.68,27.07-500.68,60.5s224.18,60.44,500.68,60.44,500.71-27.07,500.71-60.44-224.21-60.5-500.71-60.5Z" style="fill:#c4d1eb; fill-rule:evenodd;"/><path d="M932.59,1412.38c-323.62,0-585.94,23.76-585.94,53.1s262.31,53.1,585.94,53.1,585.97-23.76,585.97-53.1-262.38-53.1-585.97-53.1Z" style="fill:#c4d1eb; fill-rule:evenodd;"/><path d="M1071.96,322.49c-38.69,11.42-143.65,43.56-148.91,42.32l-95.65-71.99-58.84,48.88s131.29,91.98,138.75,95.36c5.52,2.47,121.1-53.88,175.56-79-.78-16.88-2.21-20.9-10.91-35.57Z" style="fill:#f48d80; fill-rule:evenodd;"/><path d="M897.02,333.2l-59.95,73.42s-63.16-45.89-86.46-70.69c-28.27-29.99-59.17-94.38-54.59-96.79,12.79-6.56,40.41-11.81,59.46-7.79,65.92,13.89,141.54,101.85,141.54,101.85Z" style="fill:#466fb5; fill-rule:evenodd;"/><path d="M857.94,1316.37l-2.82,46.67c-1.01,5.84-5.06,20.51-5.06,25.9,0,20.12,94.94-17.2,73.68-26.09-1.95-.84-12.01-6.88-12.66-13.76-.97-10.58-3.44-32.07-3.44-32.07l-49.69-.65Z" style="fill:#f9af79; fill-rule:evenodd;"/><path d="M923.5,1362.66s-22.3,6.17-33.72,7.66c-11.39,1.56-26.45-11.36-34.53-7.86-8.89,3.76-7.14,49.4-7.14,49.4,0,0,124.31,9.15,157.9-1.04,13.31-4.09-36.97-33.82-82.5-48.17Z" style="fill:#0e2952; fill-rule:evenodd;"/><path d="M648.76,1320.85l-2.79,46.74c-1.04,5.84-5.06,20.45-5.06,25.77,0,20.25,94.94-17.07,73.68-26.03-1.95-.78-15.03-11.49-15.64-18.37-.97-10.65-.45-27.39-.45-27.39l-49.72-.71Z" style="fill:#f9af79; fill-rule:evenodd;"/><path d="M714.32,1367.07s-22.27,6.23-33.69,7.79c-11.39,1.56-26.45-11.49-34.53-8.05-8.89,3.96-11.2,46.61-11.2,46.61,0,0,131.94,13.44,161.86,5.32,13.44-3.7-36.87-37.2-82.44-51.67Z" style="fill:#0e2952; fill-rule:evenodd;"/><path d="M799.19,648.68l40.15,16.49,84.42,381.43-3.41,285.94-67.67,1.56s-31.48-250.18-31.48-269.59-145.8-339.3-145.8-339.3l123.79-76.53Z" style="fill:#0e2952; fill-rule:evenodd;"/><path d="M768.23,669.77s-11.23,289.32-11.23,338.91-15.97,328.07-15.97,328.07l-94.19,2.86s-4.87-84.45-12.14-208.89c-1.17-19.41,1.43-58.75,0-78.87-10.58-144.95-31.45-281.53-21.49-335.66,1.62-8.63,4.64-31.42,10.52-37.2,44.4-43.43,144.5-9.22,144.5-9.22Z" style="fill:#20386f; fill-rule:evenodd;"/><path d="M656.48,230.12s-46.8,6.17-59.1,14.74c-13.89,9.61-29.31,31.22-29.31,31.22,0,0,57.51,257.12,57.58,300.42,.1,33.37-12.43,115.55-12.43,115.55,0,0,173.68,10.39,239.47-14.15,0,0-20.77-97.7-20.77-123.4s-24.86-259-30.51-275.36c-5.13-14.8-14.51-41.28-46.22-47.84-31.78-6.62-98.7-1.17-98.7-1.17Z" style="fill:#6d96ce; fill-rule:evenodd;"/><path d="M669.3,160.98l-11.23,69.33s35.21,59.4,60.47,52c21.23-6.23,14.9-53.42,14.9-53.42,0,0-11.55-40.57-8.08-60.89,3.44-20.38-56.05-7.01-56.05-7.01Z" style="fill:#f9af79; fill-rule:evenodd;"/><path d="M725.35,167.99c3.44-20.38-56.05-7.01-56.05-7.01l-.97,5.97c1.72,3.89,3.86,7.27,6.42,9.93,13.31,13.5,34.08,21.49,52.06,22.14-1.78-10.91-2.92-22.72-1.46-31.03Z" style="fill:#f27458; fill-rule:evenodd;"/><path d="M659.53,59.33c-1.72-.45-13.5,81.79,8.89,104.45,22.39,22.65,66.05,30.05,81.69,12.2,17.3-19.73,16.42-108.21-18.4-131.51-34.83-23.3-72.18,14.87-72.18,14.87Z" style="fill:#f9af79; fill-rule:evenodd;"/><path d="M718.47,.52c-26.91,5.13-44.34,20.51-50.76,27.13-12.2,1.43-28.82,7.66-45.96,34.4-21.1,32.85-5.52,69.2,19.02,86.98,24.57,17.92,24.15,38.75,24.15,38.75l3.96-10.91c2.86-8.11,4.02-16.62,3.05-25.19-.58-5-1.72-10.58-3.96-15.06-5.91-11.94,12.69-19.8,17.88-29.73,4.02-7.59,4.22-25.06,10.55-37.65l7.56-9.67s17.4-12.79,34.44-9.15c17.07,3.57,14.61-56.6-19.93-49.92Z" style="fill:#20386f; fill-rule:evenodd;"/><path d="M684.72,121.52c.19,10.06-4.67,18.31-10.87,18.37-6.13,.13-11.29-7.85-11.46-17.98-.19-10.06,4.67-18.24,10.84-18.37,6.17-.06,11.33,7.98,11.49,17.98Z" style="fill:#f9af79; fill-rule:evenodd;"/><path d="M585.56,263.22c15.74-.45,29.67,97.89,19.7,107.56-10,9.74-11.91,130.8-11.91,130.8l148.62-3.51v.06c2.89-1.82,34.05-21.68,38.49-25.97,4.67-4.54,27.36-2.27,33.33,4.02,6,6.23-13.34,1.1-18.66,4.54-5.32,3.38,3.99,11.88,3.99,11.88,0,0,37.65,5.13,44.99-2.27,7.37-7.27,26.94-19.8,29.63-12.4,1.36,3.76-8.76,15.25-14.44,20.12,7.11-5.06,15.64-10.39,18.53-9.48,5.36,1.75,3.12,8.11,.23,10.06-2.86,1.88-32.78,23.43-37.42,24.99-4.58,1.43-74.1,3.12-86.14,5.65,0,0-195.91,42.26-207.07,39.53-9.77-2.27-19.54-61.6-19.54-107.17s8.44-197.01,57.67-198.44Z" style="fill:#f9af79; fill-rule:evenodd;"/><path d="M605.98,240.83s-27.39,5.97-55.7,36.03c-25.77,27.46-42,180.72-42,180.72l88.93,13.57,7.08-74.07,23.76-33.88-22.07-122.36Z" style="fill:#466fb5; fill-rule:evenodd;"/><path d="M1034.7,299.38s6.23-6.36,17.79-5.52c11.55,.71,26.75,14.54,28.82,19.6,1.17,2.47-6.1,22.65-9.35,27.13-1.82,2.66-6.1,3.96-7.66,2.53-.97-.91,.06-5.52,.39-6.49,.52-1.95,4.35-14.35,4.35-14.35,0,0-7.47,12.53-10.97,13.24-3.51,.84-5.45-1.88-5.19-2.86,1.04-5.39,6.88-15.64,6.88-15.64,0,0-8.76,12.2-13.11,10.91-4.28-1.23-2.47-5.58-1.82-7.08,.65-1.49,6.62-9.87,6.62-9.87,0,0-9.48,12.53-11.36,7.98-1.1-2.66,5.13-14.48,5.13-14.48l-10.52-5.13Z" style="fill:#f7a390; fill-rule:evenodd;"/><path d="M1006.98,204.54c-5.97-25.71-11.81-51.48,3.96-79.71,12.72-22.78,34.73-35.96,60.24-38.82,72.25-8.11,78.61,52.9,147.22,79.71,29.34,11.42,59.4,8.11,85.56,22.91,47.32,26.61,72.44,101.39,41.09,171.05-76.79,170.66-257.97,59.01-281.27,25.38-17.27-24.99-52.97-163.97-56.8-180.52Z" style="fill:#20386f; fill-rule:evenodd;"/><path d="M1051.12,333.26l7.4-36.48s-21.81,4.93-35.7,25.38c-13.89,20.45-37.13,89.39-41.09,91.46-3.96,2.08-47.91-61.93-55.6-72.12-9.51-12.46-13.05-26.81-18.99-37.71-5.94-10.91-26.91-14.61-34.86-13.18-7.92,1.36,10.91,33.24,10.91,33.24,0,0,47.61,78.16,63.49,121.13,15.84,42.84,65.43,63.29,73.35,57.19,7.98-6.17,31.09-168.9,31.09-168.9Z" style="fill:#f7a390; fill-rule:evenodd;"/><path d="M1042.49,442.9l-60.63-32.65s27.52-109.96,76.66-113.47l-16.03,146.12Z" style="fill:#466fb5; fill-rule:evenodd;"/><path d="M906.59,309.9s-1.98-8.37-7.3-10c-5.36-1.69-14.67-.19-15.25,0-.58,.19-10.87-5.06-10.87-5.06l8.47,15.06s16.65,18.44,22.2,11.55c5.55-6.95,2.76-11.55,2.76-11.55Z" style="fill:#f9af79; fill-rule:evenodd;"/><path d="M870.18,295.48s-6,28.95-4.48,35.05c1.49,6.04,5.36,2.73,6.04,1.49,2.99-5.45,5.03-24.02,5.03-24.02l-6.59-12.53Z" style="fill:#f7a390; fill-rule:evenodd;"/><path d="M883.13,319.5s-2.89,17.98-5.81,20.06c-1.91,1.43-4.38,.58-5.16-2.99-.81-3.7,3.83-25.77,3.83-25.77l7.14,8.7Z" style="fill:#f7a390; fill-rule:evenodd;"/><path d="M1295.91,1282.29s5.13,49.4,18.31,58.49c13.24,9.15,30.9,42.65,22.07,60.82-2.73,5.65-8.25,8.89-14.54,10.78-18.56,5.45-38.3-3.7-46.22-20.58-4.41-9.35-8.31-21.87-9.09-37.65-1.95-40.12-15.19-60.56-15.19-60.56l44.66-11.3Z" style="fill:#f9af79; fill-rule:evenodd;"/><path d="M1092.67,1302.55s-4.15,49.85-.78,66.08c1.82,8.63,11.88,26.48,7.27,34.73-4.61,8.12-9.93,10.13-9.93,10.13l-119.93,1.88c-6.56,.06-2.24-3.89,3.02-7.53,8.63-6.04,15.58-9.93,43.17-22.59,1.82-.85,8.31-4.74,10.65-6.04,5.97-3.51,12.01-8.96,17.2-14.34,8.63-9.09,9.35-52.97,9.35-52.97l39.99-9.35Z" style="fill:#f9af79; fill-rule:evenodd;"/><path d="M998.9,639.65s-15.09,80.95-5.16,133.98c9.93,53.1,57.51,545.14,57.51,545.14l52.91,2.86s11.1-205.58,9.09-234.14c-1.95-28.56-17.66-76.4-17.66-76.4l5.19-165.98-66.73-217.98-35.15,12.53Z" style="fill:#0e2952; fill-rule:evenodd;"/><path d="M1154.4,622.58s41.67,59.2,51.54,108.21c9.93,49.01-7.27,199.61,11.81,263.87,10.32,34.73,49.46,88.41,55.44,133.33,5.97,44.86,29.34,162.54,29.34,162.54l-52.97,9.87-122.82-293.73-96.46-265.69-24.67-136.77,148.78,18.37Z" style="fill:#20386f; fill-rule:evenodd;"/><path d="M1120.64,285.75s28.56,4.41,49.85,24.15c45.63,42.19-26.81,205.13-30.77,233.82-3.96,28.56,32.52,95.23,32.52,95.23,0,0-136.25,23.82-173.35,.71,0,0-4.35-229.4-.36-249.85,3.96-20.38,48.36-83.41,56.28-91.59,7.92-8.18,65.82-12.46,65.82-12.46Z" style="fill:#6d96ce; fill-rule:evenodd;"/><path d="M1172.25,329.04c-3.5-10.06-15.51-15-25.83-10.78-14.09,5.84-33.56,16.75-43.04,35.44-15.84,31.35-71.4,138.91-88.61,143-17.17,4.02-87.27-111.65-87.27-111.65,0,0,1.95-20.45-3.99-32.07-5.94-11.49-23.79-23.76-26.42-19.73-2.63,4.15,9.9,14.41,9.9,16.49,0,1.95-5.29,3.25-12.53-.78-7.3-4.09-11.23-12.27-11.23-12.27,0,0-11.94,20.45,.62,38.82,12.56,18.37,17.85,25.9,17.85,25.9,0,0,81.34,170.85,111.07,172.8,27.78,1.95,187.34-165.53,159.49-245.18Z" style="fill:#f9af79; fill-rule:evenodd;"/><path d="M1102.34,216.03s.26,1.56,.78,4.22c2.47,12.53,11.94,54.07,18.31,65.5,7.79,13.76-26.48,57.84-59.33,52.45-9.87-1.62,8.25-40.44,7.4-44.6-1.69-7.85-3.89-18.56-6.23-29.66-1.3-6.17-2.66-12.46-3.9-18.37-3.5-16.88-6.36-30.64-6.36-30.64l49.33,1.1Z" style="fill:#f9af79; fill-rule:evenodd;"/><path d="M1103.12,220.25c-.52-2.66-.78-4.22-.78-4.22l-49.33-1.1s2.86,13.76,6.36,30.64c1.23,5.84,2.6,12.14,3.9,18.24,7.53-1.04,15.58-4.48,23.5-11.04,8.7-7.21,14.41-15.84,17.85-25.12-.59-2.99-1.1-5.45-1.49-7.4Z" style="fill:#f27458; fill-rule:evenodd;"/><path d="M1063.26,107.17s17.46,2.53,30.12,20.45c.78,19.34,16.94,74.07-5.13,102.69-31.48,29.92-62.58-3.89-67.19-39.86-.58-30.64-3.63-84.65,42.19-83.28Z" style="fill:#f9af79; fill-rule:evenodd;"/><path d="M1045.47,101s31.03,52.25,53.23,54.72c22.2,2.4,25.19,30.18,25.19,30.18,0,0-7.99-64.07-29.99-76.4-22-12.33-48.43-8.5-48.43-8.5Z" style="fill:#20386f; fill-rule:evenodd;"/><path d="M1092.67,160.98c-1.82,9.35,1.82,17.85,8.11,19.02,6.29,1.23,12.85-5.26,14.67-14.61,1.82-9.22-1.82-17.79-8.12-19.02-6.3-1.23-12.85,5.32-14.67,14.61Z" style="fill:#f9af79; fill-rule:evenodd;"/><path d="M1271.89,1382.98c28.82,5.06,48.04-10.91,57.97-22.78,7.34,13.44,11.82,30.31,6.43,41.41-4.74,9.74-17.66,12.4-28.56,12.85-11.55,.39-22.33-5.39-28.04-14.87-2.73-4.35-5.45-9.93-7.79-16.62Z" style="fill:#20386f; fill-rule:evenodd;"/><path d="M1026.13,1379.21c31.81,7.66,55.24,2.47,68.35-2.6,3.38,9.02,7.85,20.45,5.52,26.94-2.99,8.11-7.14,9.87-10.78,9.93-28.95,.72-106.13,1.75-128.24,1.95-3.08,.13-4.8-3.25-2.79-5.52,5.49-6.17,65.59-29.41,67.93-30.71Z" style="fill:#20386f; fill-rule:evenodd;"/><path d="M1127.72,479.19l-71.41-44.4s29.8-79.52,62.51-107.69c32.72-28.11,48.17-21.36,55.05-15.51,18.95,16.23,15.58,55.63-5.97,104.19-21.55,48.62-40.18,63.42-40.18,63.42Z" style="fill:#466fb5; fill-rule:evenodd;"/><path d="M992.28,607.91c-1.85,2.08-3.12,4.54-3.99,7.14-.03,.45-3.47,8.7,2.05,17.2-1.43-6.1-2.95-12.79,1.95-24.34Z" style="fill:#f48d80; fill-rule:evenodd;"/><path d="M629.28,1431.47l-25.74,13.31s-15.39-20.06-29.15-44.27c-9.64-16.94-18.47-36.03-20.64-51.6-5.26-37.85-45.37-100.1-41.15-110.68,4.15-10.58,83.64-28.95,83.64-28.95,0,0,15.55,106.39,25.87,175.2,3.02,20.06,5.58,36.93,7.17,47Z" style="fill:#f9af79; fill-rule:evenodd;"/><path d="M629.28,1431.47l-25.74,13.31s-15.39-20.06-29.15-44.27c10.71-.78,29.31-4.02,47.71-16.03,3.02,20.06,5.58,36.93,7.17,47Z" style="fill:#e0e8f5; fill-rule:evenodd;"/><path d="M570.76,1233.61s-32.52,45.89-52.22,110.42c-4.64,15.19-20.45,34.14-36.42,50.96-15.48,16.36-31.16,30.64-36.97,37.71l-26.19-12.66s9.18-26.42,22.82-50.44c5.1-8.89,10.78-17.46,16.78-24.21,8.34-9.41,5.61-127.49,13.92-135.21,8.31-7.79,98.28,23.43,98.28,23.43Z" style="fill:#f9af79; fill-rule:evenodd;"/><path d="M496.96,1023.03l.13,.07-.13-.07Z" style="fill:#f9af79; fill-rule:evenodd;"/><path d="M564.21,1063.54l-67.12-40.44c.36-.2,1.72-2.21,6.75-16.75,2.11-6.17,3.28-11.55,3.83-15.78,.06-.45,.1-.84,.16-1.23,.68-6.23,.19-9.8,.19-9.8l14.7,5.32,27.17,9.87c-.29,6.88,.65,11.75,2.14,15.06,3.54,8.12,10.16,8.18,10.35,8.18l1.82,45.57Z" style="fill:#f9af79; fill-rule:evenodd;"/><path d="M552.04,1009.79c-26.32,2.27-41.09-14.86-44.37-19.21-.49-.65-.71-.97-.71-.97,0,0,.29-.13,.88-.26,2.11-.65,7.92-2.4,14.9-4.48l27.17,9.87c-.29,6.88,.65,11.75,2.14,15.06Z" style="fill:#ec9357; fill-rule:evenodd;"/><path d="M553.33,1000.38s-58.39,6.42-59.59-33.11c-1.2-39.47-9.8-57.51,30.57-61.08,40.41-3.44,49.95,11.1,52.32,24.41,7.46,41.74-6.85,67.96-23.3,69.78Z" style="fill:#f9af79; fill-rule:evenodd;"/><path d="M444.41,866.33c-.81-1.82-1.4-2.99-1.4-2.99,.62,.78,1.1,1.82,1.4,2.99Z" style="fill:#d05627; fill-rule:evenodd;"/><path d="M572.13,1021.86s55.96-42.97,61.93-57.25c5.97-14.21,31.71-66.34,38.33-71.66,0,0,13.92-1.82,15.9,7.86,2.01,9.61-13.24,66.79-23.85,84.06-10.65,17.27-61.54,75.82-78.25,84.32l-14.05-47.32Z" style="fill:#f9af79; fill-rule:evenodd;"/><path d="M708.18,866.59c-.94,5-2.99,10.32-5.36,13.11-3.15,3.7-8.11,11.1-11.26,15.9-2.01,2.92-3.34,5.13-3.34,5.13l-15.87-7.72s-.39-27,10.16-32.72c.39-.13,.55-.33,.91-.33,4.45-2.4,8.7-4.09,12.4-5.19,4.97-1.3,8.86-1.43,11.07-.19,2.01,1.1,2.4,6.49,1.3,12.01Z" style="fill:#f9af79; fill-rule:evenodd;"/><path d="M527.47,925.53c-20.71-5.26-12.75,31.35-18.01,28.82-5.84-2.79-15.87-2.73-14.28,4.35,1.59,7.01,3.89,9.54,5.1,13.96,1.17,4.41,0,13.11-4.84,11.36-4.8-1.75-49.5-52.78-17.92-92.5,31.51-39.79,125.61-15.32,95.97,26.29-5.19,7.33-31.29,11.42-46.02,7.72Z" style="fill:#20386f; fill-rule:evenodd;"/><path d="M625.78,1309.95s-57.45,12.07-84.81,8.31c-36.87-4.93-69.56-5.78-104.09-24.41,0,0,18.37-91.14,19.47-95.55,1.62-6.36,13.34-55.31,24.18-100.55,9.9-41.48,19.08-79.78,19.08-79.78,0,0,27.33,19.41,43.3,12.59,15.9-6.88,13.89-14.67,13.89-14.67,0,0,10.42-4.15,15.32-2.6,4.87,1.49,18.73-6.36,18.73-6.36,0,0,15.35,11.88,15.9,37.26,.13,3.77-.1,7.86-.78,12.2l-11.07,12.79s24.99,152.48,30.87,240.76Z" style="fill:#6d96ce; fill-rule:evenodd;"/><path d="M671.93,1463.08h-76.89s-1.43-12.53,.33-23.17c.19-1.3,.88-2.47,1.91-3.5,4.48,1.49,11.1,2.6,18.47-.07,6-2.14,10.48-5.45,13.6-8.44,.78,.78,16.65,15.91,24.02,15.91s19.02,3.63,18.57,19.28Z" style="fill:#0e2952; fill-rule:evenodd;"/><path d="M482.12,1394.98c-15.48,16.36-31.16,30.64-36.97,37.71l-26.19-12.66s9.18-26.42,22.82-50.44c4.71,7.34,17.01,22.33,40.34,25.38Z" style="fill:#e0e8f5; fill-rule:evenodd;"/><path d="M450.87,1425.88s-.97,16.75,4.61,18.89c5.55,2.27,15.94,7.73,15.94,18.31h-38.56s-26.55-13.05-30.09-18.63c-3.54-5.52,17.72-29.21,17.72-29.21,0,0,13.05,14.41,30.38,10.65Z" style="fill:#0e2952; fill-rule:evenodd;"/><path d="M514.58,1154.61s16.88-3.18,23.47,1.17c6.59,4.28,8.54,11.1,3.8,13.83-14.9,8.63-29.96-.91-29.96-.91l2.69-14.09Z" style="fill:#f9af79; fill-rule:evenodd;"/><path d="M500.3,1023.23s-51.96,11.04-72.44,91.72c-1.98,7.92,.06,16.36,5.55,22.39,9.41,10.45,30.15,25.71,78.48,31.35,5.26,.65,5.97-12.79,5.97-12.79-.52,1.1-32.85-20.84-46.54-32.65-2.5-2.08-2.4-6.56-.62-9.28,4.64-7.14,12.43-19.34,15.03-25.64,3.86-9.15,29.08-60.95,14.57-65.11Z" style="fill:#f9af79; fill-rule:evenodd;"/><path d="M499.62,1017.97s-30.54,2.14-55.44,35.38c0,0,8.41,30.51,47.97,38.69,0,0,24.41-54.98,7.46-74.07Z" style="fill:#466fb5; fill-rule:evenodd;"/><path d="M492.15,879.38s-29.37-7.99-49.14,13.44c-19.73,21.42,9.02,60.76-18.6,82.31-27.62,21.55-16.68,37.59-5.45,42.84,25.22,11.75,63.74-2.92,55.92-22.78-15.09-38.3,7.24-67.38,7.24-67.38l10.03-48.42Z" style="fill:#20386f; fill-rule:evenodd;"/><path d="M1248.78,852.96s-61.41,129.7-54.01,139.5c7.53,9.8,59.98-35.44,71.66-65.89,11.68-30.44-17.66-73.61-17.66-73.61Z" style="fill:#f9af79; fill-rule:evenodd;"/><path d="M1163.49,881.85s37.13,55.31,53.62,80.3c9.09,13.7-14.41,31.42-22.33,30.32-7.92-1.1-38.04-88.28-38.04-88.28l6.75-22.33Z" style="fill:#f9af79; fill-rule:evenodd;"/><path d="M1360.89,884.38s48.81-22.26,85.75-2.79c36.87,19.41,14.28,179.81-38.49,195.32,0,0-98.86,31.68-47.26-192.53Z" style="fill:#253e84; fill-rule:evenodd;"/><path d="M1194.9,1415.43s-7.66,9.15-19.99,9.02c-7.66-.07-14.73,2.21-19.86,6.56-4.61,3.83-2.73,11.29,3.12,12.59l58.23,13.37c5.58,1.3,11.1-2.53,11.82-8.24,.58-4.28,1.23-9.09,1.88-12.79,1.56-8.7-5.52-17.66-5.52-17.66l-29.67-2.86Z" style="fill:#0e2952; fill-rule:evenodd;"/><path d="M1194.9,1415.43s-3.44,3.7,29.67,2.86c0,0,29.34-134.56,35.9-143.65,1.56-2.14,12.98-27.46,17.01-34.79,.39-.59,7.92,14.93,8.31,14.28,13.24-23.89,34.08-64.01,35.57-70.11,2.08-8.25-21.94-113.53-41.54-110.16-14.67,2.53-27.33,9.15-32.85,12.33-1.82,1.1-2.86,1.75-2.86,1.75,0,0-.71,2.99-1.95,8.18-1.17,4.74-2.79,11.3-4.74,19.02-.19,.97-.45,1.95-.71,2.99-10.91,44.2-30.25,123.08-33.17,136.51-4.09,18.82-8.63,160.79-8.63,160.79Z" style="fill:#f9af79; fill-rule:evenodd;"/><path d="M1247.22,1064.9l-43.04,156.37s12.79,22.72,37.85,31.29c17.79,6.04,47.19,4.02,47.19,4.02l41.35-100.94-83.35-90.75Z" style="fill:#223f81; fill-rule:evenodd;"/><path d="M1233.53,1114.56l55.7,142.03c13.31-23.89,30.64-66.47,32.13-72.57,2.08-8.25-21.94-113.53-41.54-110.16-14.67,2.53-27.33,9.15-32.85,12.33-1.82,1.1-4.67,.45-4.67,.45,0,0-1.69,1.75-2.99,7.01-1.17,4.67-3.89,13.18-5.78,20.9Z" style="fill:#0e2952; fill-rule:evenodd;"/><path d="M1283.19,848.61l50.11,25.64,10-34.79s-6.36-12.07-9.22-31.81c-1.23-8.24-1.82-17.92-1.04-28.56l-40.9,20.9s.98,3.77,1.69,9.35c.65,6.04,.97,14.15-.78,21.88-1.43,6.62-4.41,12.92-9.87,17.4Z" style="fill:#f9af79; fill-rule:evenodd;"/><path d="M1367.51,1098.4s20.06,125.74,17.98,327.1l-28.43,3.7s-22.59-77.9-36.81-155.53c-8.44-45.89-2.92-180-2.92-180l50.18,4.74Z" style="fill:#f9af79; fill-rule:evenodd;"/><path d="M1395.48,1082.49c-.19,18.11,21.29,171.63,21.29,171.63,0,0-21.23,8.31-48.17,11.29-38.04,4.22-62.58-6.49-62.58-6.49l-47.91-180.46,137.36,4.02Z" style="fill:#223f81; fill-rule:evenodd;"/><path d="M1251.38,1097.03c55.76,15.12,126.84,6.62,144.37,4.15,2.6-.33,4.03-.58,4.03-.58,6.23-1.49,10.39-6.94,10.39-13.11,0-.78-.06-1.62-.19-2.4l-16.55-91.79,5.58-46.09,3.12-26.29,7.27-59.98c-23.89-12.14-45.63-18.63-65.56-21.49-7.59,7.79-22.65,19.28-39.47,17.07-12.66-1.62-15.52-8.25-15.32-15.45-26.42,4.35-40.25,11.88-40.25,11.88l-17.2,215.71c-1.04,12.98,7.2,24.99,19.8,28.37Z" style="fill:#6d96ce; fill-rule:evenodd;"/><path d="M1343.81,839.46l7.53,15,7.34,14.54,35.38,76.99c5.71-7.34,47-21.88,47-21.88,0,0-18.76-47.26-31.68-63.16-3.76-4.54-10.78-8.25-18.82-11.23-6.69-2.47-14.08-4.41-21.03-5.97-13.83-3.05-25.71-4.28-25.71-4.28Z" style="fill:#6d96ce; fill-rule:evenodd;"/><path d="M1408.73,1071.85l-4.87-24.34c-72.7-105.16-83.87-126.71-51.22-173.9,9.41-13.57,28.95-22.72,35.83-24.67-6.62-2.47-15.84-4.48-22.72-5.97-6.94,3.25-13.95,7.21-18.89,11.49-99.77,86.4,61.86,217.39,61.86,217.39Z" style="fill:#253e84; fill-rule:evenodd;"/><path d="M1359.65,968.89c-1.82-.13-9.67-4.02-9.67-4.02,0,0-7.4-26.74-32.39-31.16,0,0-11.81,.07-9.41,8.18,2.4,8.05,2.66,4.54,5.91,16.03,3.12,11.55,11.42,20.25,20.19,20.77l9.02,2.47s21.1-11.88,16.36-12.27Z" style="fill:#f9af79; fill-rule:evenodd;"/><path d="M1349.98,964.87s47.84,4.28,54.85,7.47c0,0-3.89-10.52-10.78-26.35,6.23-6.1,26.74-15.26,40.25-19.41,10.39,26.35,14.28,52.45,8.57,77.64-.65,2.66-2.99,4.54-5.71,4.67-15.32,.72-66.02,.46-102.82-30.51l15.65-13.5Z" style="fill:#f9af79; fill-rule:evenodd;"/><path d="M1293.05,831.21c23.24-.65,41.03-23.56,41.03-23.56l-40.25,1.69c.65,6.04,.97,14.15-.78,21.88Z" style="fill:#e78f51; fill-rule:evenodd;"/><path d="M1283.19,820.63s61.15,7.47,62.45-35.57c1.3-43.04-24.15-70.95-41.16-70.63-33.95,.65-39.53,14.35-43.49,28.56-3.89,14.28-5.91,74.59,22.2,77.64Z" style="fill:#f9af79; fill-rule:evenodd;"/><path d="M1356.93,1428.8s-5.19,10.26-16.75,12.72c-7.27,1.62-13.5,5.39-17.46,10.71-3.31,4.54-.07,10.84,5.52,10.84h58.75c5,0,8.89-4.28,8.37-9.28-.39-4.35-.84-9.41-1.04-13.31-.45-8.5-8.96-15.38-8.96-15.38l-28.43,3.7Z" style="fill:#0e2952; fill-rule:evenodd;"/><path d="M1334.34,809.6s40.18-29.47,40.18-64.65c0-43.62-26.81-55.44-64.33-57.58-37.39-2.14-64.07,29.53-54.01,45.89,10,16.42,22.33,12.53,46.02,9.87,23.69-2.66,22.65,19.08,32.72,18.05,10.06-1.04,12.98-4.54,13.76,2.4,.84,6.88-10.45,9.15-8.5,15.9,3.64,12.72-5.84,30.12-5.84,30.12Z" style="fill:#20386f; fill-rule:evenodd;"/><path d="M1334.6,764.35s8.18-10.78,13.76-7.99c5.58,2.79,.2,18.76-4.02,20.97-4.15,2.14-8.76,3.76-9.74,2.73-.97-.97,0-15.71,0-15.71Z" style="fill:#f9af79; fill-rule:evenodd;"/><path d="M1248.78,852.96s-20.12,17.72-33.56,61.02c0,0-4.22,42.32,33.56,46.35s0-107.37,0-107.37Z" style="fill:#6d96ce; fill-rule:evenodd;"/><path d="M1349.98,964.87s-1.5-7.85-4.03-15.51c-2.53-7.73-4.02-15.26-5.91-11.68-1.82,3.5-2.47,13.11-2.47,13.11l12.4,14.08Z" style="fill:#f9af79; fill-rule:evenodd;"/><path d="M1163.49,881.85s-7.6-30.12-26.35-28.89c-18.7,1.23-15.58,19.47-6.62,28.89,8.83,9.35,26.22,22.33,26.22,22.33l6.75-22.33Z" style="fill:#f9af79; fill-rule:evenodd;"/></svg>