<?xml version="1.0" encoding="UTF-8"?><svg id="a" xmlns="http://www.w3.org/2000/svg" viewBox="0 0 1820.23 1528.59"><path d="M952.6,660.07c-26.71-229.59-88.66-362-283.03-432.47-214.58-77.8-451.87,33.22-529.66,247.8-102.96,284,10.38,618.97,175.54,985.38,156.37-6.41,365.21-10.34,594.67-10.34,154.23,0,299.15,1.78,425.1,4.89,169.77-116.59,299.05-249.18,359.61-416.19,77.8-214.58-33.22-451.86-247.79-529.67-194.37-70.46-326.78-8.52-494.44,150.61Z" style="fill:#e9eff8; fill-rule:evenodd;"/><path d="M782.89,566.06c2.78-8.42,12.33-12.55,20.46-9.03,11.15,4.9,26.55,14.02,34.08,29.67,12.57,26.23,56.55,116.26,70.18,119.69,13.6,3.35,69.12-93.47,69.12-93.47,0,0-1.57-17.11,3.15-26.83,4.71-9.63,18.84-19.86,20.93-16.51,2.09,3.44-7.86,12.04-7.86,13.76s4.21,2.75,9.95-.6c5.77-3.44,8.89-10.32,8.89-10.32,0,0,9.45,17.11-.5,32.5-9.95,15.39-14.13,21.67-14.13,21.67,0,0-64.4,143-87.98,144.64-21.95,1.62-148.34-138.53-126.28-205.17Z" style="fill:#f4ae7c; fill-rule:evenodd;"/><path d="M209.81,1208.13c5.56-.55,9.58-1.22,11.58-2.03,75.21-30.61,163.92-31.64,248.05-43.17,84.47-11.58,204.57-83.5,234.76-80.02-4.66,40.44,167.38,9.95,191.02-5.49,174.08-113.71,229.33-11.47,309.1-34.99,172.25-50.76,155.45-126.26,355.81-31.17,65.74,31.2,79.44,36.7,125.96,50.57-63.72,156.42-188.86,282.24-350.86,393.49-125.95-3.11-270.87-4.89-425.1-4.89-229.46,0-438.3,3.93-594.67,10.34-38.78-86.04-74.71-170.33-105.64-252.64Z" style="fill:#bcc9e7; fill-rule:evenodd;"/><path d="M248.86,1307.04c63.32-19.55,124.67-37.95,217.34-5.94,77.4,26.73,172.63,14.49,255.32,21.96,87.56,7.91,135.49,18.04,232.06,4.09,70.92-10.24,172.3-4.49,231.21-45.59,.75-.52,52.85-23.95,74.34-38.33,17.91-11.98,212.13-25.89,341.65-31.86-67.75,90.74-158.62,170.53-265.55,243.97-125.95-3.11-270.87-4.89-425.1-4.89-229.46,0-438.3,3.93-594.67,10.34-23.39-51.89-45.74-103.16-66.59-153.74Z" style="fill:#aab9de; fill-rule:evenodd;"/><path d="M394.55,1043.27c13.16-.38,132.69,50.3,198.1,80.18-40.73,17.13-85.51,34.31-123.2,39.48-84.13,11.53-172.84,12.57-248.05,43.17-2.01,.81-6.02,1.49-11.58,2.03-37.03-98.52-66.91-194.18-86-286.57,17.41,.7,32.15,1.21,42.78,1.21,65.08,0,114.05,123.78,227.96,120.5Z" style="fill:#d0d9ee; fill-rule:evenodd;"/><path d="M176.56,759.71c50.26,45.88,28.4,91.77-8.72,176.99-8.11,18.59-14.75,48.12-20.2,82.92,4.87,17.62,10.09,35.34,15.59,53.16,5.46-63.22,14.32-121.29,28.61-151.38,41.52-87.41,59.04-131.09,96.16-102.69,37.14,28.4-111.45-59.01-111.45-59.01Z" style="fill:#aab9de; fill-rule:evenodd;"/><path d="M148.97,700.29c6.08-27.19,42.34-56.61,90.81-81.59-7.23,40.12-30.28,105.7-6.41,119.16,32.26,18.13,3.14-73.44,15.58-123.76,45.53-22.23,100.32-40.4,150.71-49.43-.1,.19-.14,.37-.19,.57-28.4,72.1-65.54,100.51-50.25,111.42,11.48,8.23,48.93-75.06,98.47-117.76,37.13-1.98,68.58,3.04,87.15,17.77,28.74,22.75,48.04,42.94,19.14,112.21-16.49,11.8-37.9,20.25-62.74,22.75-65.53,6.56-96.16,8.73-50.25,30.6,22.47,10.7,60.09-.6,90.67-7.5-9.89,18.25-22.09,38.91-36.89,62.45-9.41,14.92-19.72,27.87-30.72,39.09-21.12,4.04-39.54,4.08-49.28-.1-30.58-13.1-109.24-54.63-128.91-37.15-19.25,17.11,145.69,27.96,134.26,71.43-79.96,46.05-171.45,24.14-187.61-18.15-21.75-56.79-101.89-70.16-83.53-152.03Z" style="fill:#fff; fill-rule:evenodd;"/><path d="M314.25,1011c-59.7-44.76-120.39-30.43-167.49,5.42,1.9,6.93,3.87,13.88,5.87,20.85,2.78-2.27,5.65-4.48,8.65-6.62,71.08-50.56,122.35-26.21,128.91-2.17,6.55,24.03-28.41,67.74-28.41,67.74l52.47-85.22Z" style="fill:#8d9fca; fill-rule:evenodd;"/><path d="M115.3,876.29c85.78,2.16,113.55,136.07,89.67,214.09-5.23,17.14-10.88,37.5-16.51,58.85-2.93-8.39-5.82-16.78-8.63-25.13,10.77-47.36,16.91-94.81,9.86-127.68-17.41-81.18-56.99-102.52-71.98-106.37-.83-4.6-1.64-9.19-2.41-13.76Z" style="fill:#8d9fca; fill-rule:evenodd;"/><path d="M186.51,1091.01c6.17-8.16,13.74-14.88,23-19.36-1.21,6.53-2.7,12.79-4.53,18.74-5.23,17.14-10.88,37.5-16.51,58.86-2.93-8.4-5.82-16.79-8.63-25.14,2.52-11.09,4.79-22.19,6.68-33.1Z" style="fill:#8d9fca; fill-rule:evenodd;"/><path d="M210.42,1091.66c166.05-69.94,78.57-165.89,224.98-102.5,10.32,4.45,22.87,15.72,35.45,31.22-13.02,3.7-28.78,6.37-46.38,3.74-43.71-6.57-28.42,28.4,43.74,37.14,13.55,1.65,24.59,3.93,33.75,7.12,34.39,65.99,49.87,152.8-22.86,182.97-14.32,5.96-32.02,9.37-51.74,10.63-22.42-17.83,5.49-121.02-29.13-106.77-33.18,13.69,10.46,88.45,4.48,107.28-32.79-.57-69.11-5.94-103.73-14.53-13.75-7.7-24.27-18.01-27.45-31.56-10.94-45.9,61.16-74.31,63.37-113.65,1.97-36.15-26.48,79.57-101.76,96.6-12.5-5.83-23.78-12.06-33.41-18.52-8.32-22.85-16.24-45.55-23.7-68.09,7.33-7.34,18.58-14.43,34.39-21.09Z" style="fill:#fff; fill-rule:evenodd;"/><path d="M112.67,860.12c4.77,5.16,9.36,10.77,13.74,16.85,0,0-3.14,19.59,17.6,49.91,29.22,42.71,25.92,76.23,5.16,98.23-15.73-56.12-28.15-111.15-36.5-164.99Z" style="fill:#aab9de; fill-rule:evenodd;"/><path d="M308.99,1007.29c42.73,33.03,90.18,71.64,148.43,97.85,58.32,26.22,46.64,111.68,46.64,111.68,0,0,8.73-73.8-39.83-99.06-48.56-25.25-80.59-55.37-117.48-61.18-36.94-5.84-57.34-11.66-57.34-11.66,0,0,11.67-23.31,4.87-32.04-6.79-8.75,14.71-5.6,14.71-5.6Z" style="fill:#8d9fca; fill-rule:evenodd;"/><path d="M519.59,619.54c-156.35,41.76-270.94,141.8-292.35,166.08-21.36,24.27-21.36,31.07-21.36,31.07l16.54,31.09,7.78-3.89s-12.64-26.21,20.39-60.22c56.96-58.63,126.26-104.89,173.87-125.28,47.59-20.4,95.14-38.85,95.14-38.85Z" style="fill:#aab9de; fill-rule:evenodd;"/><path d="M1703.07,1013.81c-3.99-16.54-14.25-35.34-40.16-36.03,0,0-31.05,3.01-47.71,17.09,0,0,55.67,22.99,50.76,33.08-4.91,10.09-60.19-30.06-60.19-30.06,0,0-52.23,31.65-62.26,50.88,0,0,67.06,2.95,59.79,11.55-7.2,8.55-77.17,8.73-77.17,8.73,0,0-39.52,41.55-16.46,67.39,23.06,25.84,45.05,22.69,51.38,16.83,6.29-5.85,34.97-51.16,40.07-46.19,5.06,4.98-5.36,41.38-21.63,54.88,0,0,34.24,6.67,56.35-1.93,8.2-13.2,15.93-26.63,23.17-40.29,.84-12.19-.76-22.3,4.47-31.86,7.6-13.87,17.14-22.04,18.92-17.18,4.42-10.38,8.56-20.9,12.42-31.56,3.04-8.41,5.78-16.85,8.24-25.32Z" style="fill:#d0d9ee; fill-rule:evenodd;"/><path d="M1532.5,1120.55s105.96-85.72,162.98-83.29l-.65,1.87c-.88,2.42-1.78,4.83-2.68,7.23-24.46-.81-71.31,12.57-159.65,74.19Z" style="fill:#8d9fca; fill-rule:evenodd;"/><path d="M1719.67,896.81c-7.74-6.9-13.45-16.85-14.76-31.12,0,0,.74-21.77,8.03-41.31,4.33,23.75,6.64,47.97,6.73,72.43Z" style="fill:#d0d9ee; fill-rule:evenodd;"/><path d="M1672.74,932.1s38.06-85.54-29.62-112.47c0,0-47.27-12.27-79.3-.58,0,0,69.35,63.76,56.72,75.91-12.67,12.2-72.19-76.57-72.19-76.57,0,0-93.72,18.35-118.81,41.17,0,0,96.89,40.46,81.61,49.15-15.24,8.68-118-28.76-118-28.76,0,0-80.46,39.73-60.5,90.09,19.95,50.33,53.9,57.6,66.34,52.4,12.43-5.2,78.96-56.28,83.72-46.25,4.81,10.03-30.15,57.88-61.32,68.94,0,0,79.41,48.08,113.44,17.21,34.06-30.88,28.44-62.03,49.84-80.73,21.38-18.71,42.53-24.98,35.73-10.38-6.77,14.57-48.22,39.14-54.91,68.43-6.7,29.26-14.36,49.95,24.91,31.48,39.23-18.45,97.06-68.44,89.73-103.73l-7.38-35.29Z" style="fill:#fff; fill-rule:evenodd;"/><path d="M1374.69,959.01s227.56-77.57,298.05-26.9c0,0,13.4,19.05,40.75,37.08-.48,2.74-.98,5.49-1.53,8.23-12.78-5.89-25.59-10.73-31.85-10.02,0,0-2.04-88.22-305.43-8.39Z" style="fill:#aab9de; fill-rule:evenodd;"/><path d="M910.12,1450.43c-484.68,0-877.57,17.5-877.57,39.08s392.9,39.08,877.57,39.08,877.57-17.5,877.57-39.08-392.9-39.08-877.57-39.08Z" style="fill:#d0d9ee; fill-rule:evenodd;"/><path d="M800.53,577.53c30.69,9.54,113.8,36.46,117.97,35.43l75.74-60.28,46.59,40.93s-103.96,76.96-109.87,79.8c-4.36,2.06-95.91-45.06-139.07-66.12,.62-14.1,1.75-17.45,8.64-29.75Z" style="fill:#f29f65; fill-rule:evenodd;"/><path d="M939.12,586.47l47.45,61.48s50.03-38.44,68.47-59.16c22.38-25.11,46.86-79.02,43.24-81-10.12-5.5-32-9.89-47.09-6.54-52.2,11.61-112.07,85.21-112.07,85.21Z" style="fill:#406fb5; fill-rule:evenodd;"/><path d="M970.06,1409.37l2.22,39.04c.81,4.91,4,17.2,4,21.67,0,16.85-75.18-14.36-58.34-21.84,1.53-.69,9.52-5.76,10.02-11.52,.77-8.86,2.73-26.83,2.73-26.83l39.36-.52Z" style="fill:#f4ae7c; fill-rule:evenodd;"/><path d="M918.14,1448.07s17.65,5.16,26.69,6.45c9.04,1.29,20.96-9.54,27.35-6.62,7.04,3.18,5.66,41.36,5.66,41.36,0,0-98.44,7.66-125.06-.86-10.54-3.44,29.27-28.29,65.35-40.33Z" style="fill:#142d4d; fill-rule:evenodd;"/><path d="M1135.7,1413.08l2.21,39.12c.82,4.9,4.01,17.12,4.01,21.59,0,16.94-75.18-14.28-58.34-21.76,1.53-.69,11.88-9.63,12.4-15.39,.77-8.95,.36-22.96,.36-22.96l39.36-.6Z" style="fill:#f4ae7c; fill-rule:evenodd;"/><path d="M1083.77,1451.77s17.66,5.24,26.69,6.53c9.04,1.29,20.95-9.63,27.35-6.71,7.03,3.27,8.84,38.96,8.84,38.96,0,0-104.47,11.26-128.15,4.46-10.65-3.09,29.18-31.12,65.27-43.25Z" style="fill:#142d4d; fill-rule:evenodd;"/><path d="M1016.56,850.54l-31.79,13.76-66.86,319.27,2.71,239.3,53.6,1.29s24.93-209.38,24.93-225.63,115.46-283.93,115.46-283.93l-98.05-64.06Z" style="fill:#142d4d; fill-rule:evenodd;"/><path d="M1041.1,868.17s8.87,242.15,8.87,283.67,12.66,274.57,12.66,274.57l74.59,2.41s3.87-70.69,9.62-174.82c.91-16.25-1.15-49.18,0-66.04,8.37-121.33,24.89-235.61,17-280.92-1.28-7.22-3.66-26.31-8.31-31.12-35.19-36.37-114.43-7.74-114.43-7.74Z" style="fill:#142d4d; fill-rule:evenodd;"/><path d="M1129.57,500.23s37.07,5.16,46.83,12.29c10.99,8.08,23.18,26.14,23.18,26.14,0,0-45.51,215.23-45.6,251.43-.06,27.94,9.86,96.73,9.86,96.73,0,0-137.54,8.69-189.63-11.87,0,0,16.45-81.78,16.45-103.27s19.67-216.77,24.15-230.45c4.06-12.38,11.49-34.56,36.62-40.07,25.13-5.5,78.13-.95,78.13-.95Z" style="fill:#6998d0; fill-rule:evenodd;"/><path d="M1119.45,442.36l8.87,58.04s-27.88,49.7-47.88,43.51c-16.79-5.25-11.79-44.71-11.79-44.71,0,0,9.15-33.97,6.41-50.99-2.74-17.03,44.4-5.85,44.4-5.85Z" style="fill:#f4ae7c; fill-rule:evenodd;"/><path d="M1075.06,448.21c-2.74-17.03,44.4-5.85,44.4-5.85l.76,4.98c-1.38,3.27-3.06,6.11-5.1,8.34-10.54,11.27-27,17.97-41.22,18.49,1.42-9.11,2.29-19,1.17-25.97Z" style="fill:#ec724c; fill-rule:evenodd;"/><path d="M1127.19,357.32c1.33-.43,10.68,68.45-7.06,87.36-17.74,19-52.29,25.19-64.69,10.23-13.71-16.51-13.02-90.54,14.56-110.06,27.58-19.52,57.19,12.47,57.19,12.47Z" style="fill:#f4ae7c; fill-rule:evenodd;"/><path d="M1080.5,308.04c21.31,4.3,35.11,17.2,40.19,22.7,9.67,1.2,22.83,6.45,36.41,28.8,16.71,27.52,4.37,57.96-15.08,72.83-19.44,14.96-19.11,32.42-19.11,32.42l-3.13-9.12c-2.27-6.79-3.2-13.93-2.44-21.07,.46-4.21,1.38-8.86,3.15-12.64,4.68-9.98-10.04-16.59-14.17-24.85-3.18-6.37-3.33-20.98-8.34-31.56l-5.98-8.08s-13.8-10.66-27.3-7.65c-13.5,3.01-11.55-47.38,15.8-41.79Z" style="fill:#0f3970; fill-rule:evenodd;"/><path d="M1107.22,409.34c-.14,8.43,3.71,15.31,8.59,15.39,4.89,.08,8.96-6.62,9.1-15.05,.15-8.43-3.7-15.31-8.59-15.39-4.89-.08-8.96,6.71-9.1,15.05Z" style="fill:#f4ae7c; fill-rule:evenodd;"/><path d="M1185.76,527.91c-12.48-.34-23.51,81.95-15.6,90.03,7.9,8.17,9.42,109.46,9.42,109.46l-117.68-2.93v.09c-2.31-1.55-26.96-18.14-30.48-21.75-3.7-3.78-21.66-1.89-26.42,3.35-4.75,5.25,10.57,.95,14.79,3.78,4.23,2.84-3.16,9.98-3.16,9.98,0,0-29.82,4.3-35.64-1.89-5.81-6.1-21.34-16.59-23.46-10.4-1.09,3.18,6.92,12.81,11.43,16.85-5.62-4.21-12.37-8.68-14.68-7.91-4.24,1.46-2.47,6.79-.18,8.42,2.28,1.55,25.97,19.61,29.65,20.9,3.62,1.2,58.68,2.58,68.2,4.73,0,0,155.17,35.34,163.99,33.11,7.74-1.9,15.47-51.6,15.47-89.69s-6.69-164.93-45.66-166.13Z" style="fill:#f4ae7c; fill-rule:evenodd;"/><path d="M1169.57,509.17s21.71,4.99,44.13,30.18c20.4,22.96,33.24,151.25,33.24,151.25l-70.41,11.35-5.62-62-18.81-28.38,17.47-102.41Z" style="fill:#406fb5; fill-rule:evenodd;"/><path d="M830.07,558.18s-4.91-5.33-14.08-4.64c-9.17,.6-21.18,12.21-22.86,16.42-.86,2.06,4.9,19,7.4,22.7,1.49,2.24,4.89,3.35,6.08,2.15,.8-.78-.03-4.64-.26-5.42-.43-1.64-3.47-12.04-3.47-12.04,0,0,5.93,10.49,8.68,11.09,2.76,.69,4.29-1.55,4.12-2.41-.83-4.47-5.45-13.07-5.45-13.07,0,0,6.94,10.23,10.35,9.11,3.4-1.03,1.99-4.64,1.49-5.93-.51-1.2-5.27-8.25-5.27-8.25,0,0,7.53,10.49,9,6.71,.9-2.24-4.02-12.13-4.02-12.13l8.28-4.3Z" style="fill:#f3a992; fill-rule:evenodd;"/><path d="M852.03,478.82c4.73-21.5,9.36-43.08-3.1-66.73-10.1-19.09-27.54-30.09-47.74-32.5-57.21-6.79-62.24,44.28-116.59,66.72-23.21,9.55-47.04,6.79-67.77,19.18-37.46,22.27-57.35,84.87-32.52,143.17,60.83,142.82,204.27,49.36,222.71,21.24,13.73-20.9,41.97-137.24,45.01-151.08Z" style="fill:#0f3970; fill-rule:evenodd;"/><path d="M823.86,678.31l48.03-27.34s-21.82-92.01-60.7-94.93l12.67,122.27Z" style="fill:#406fb5; fill-rule:evenodd;"/><path d="M623.23,1380.83s-4.08,41.36-14.55,48.93c-10.47,7.65-24.44,35.68-17.45,50.91,2.17,4.73,6.54,7.48,11.51,9.03,14.71,4.56,30.37-3.1,36.63-17.2,3.5-7.83,6.58-18.31,7.19-31.56,1.57-33.53,12.04-50.64,12.04-50.64l-35.37-9.46Z" style="fill:#f4ae7c; fill-rule:evenodd;"/><path d="M784.16,1397.77s3.3,41.71,.62,55.29c-1.43,7.22-9.42,22.18-5.75,29.06,3.66,6.79,7.85,8.52,7.85,8.52l94.99,1.54c5.19,.09,1.77-3.27-2.4-6.28-6.83-5.07-12.33-8.34-34.16-18.92-1.43-.69-6.6-3.95-8.48-5.07-4.74-2.92-9.49-7.48-13.59-11.95-6.82-7.65-7.41-44.37-7.41-44.37l-31.67-7.83Z" style="fill:#f4ae7c; fill-rule:evenodd;"/><path d="M858.42,842.98s11.96,67.75,4.1,112.13c-7.86,44.45-45.55,456.25-45.55,456.25l-41.9,2.41s-8.79-172.06-7.21-195.96c1.57-23.91,14-63.98,14-63.98l-4.17-138.87,52.87-182.46,27.86,10.49Z" style="fill:#142d4d; fill-rule:evenodd;"/><path d="M735.28,828.71s-32.98,49.53-40.85,90.55c-7.85,41.02,5.77,167.07-9.34,220.81-8.17,29.06-39.18,74.03-43.89,111.62-4.71,37.57-23.2,136.03-23.2,136.03l41.88,8.25,97.32-245.84,76.34-222.36,19.56-114.45-117.82,15.39Z" style="fill:#142d4d; fill-rule:evenodd;"/><path d="M761.99,546.75s-22.63,3.7-39.47,20.21c-36.14,35.34,21.23,171.72,24.37,195.71,3.15,23.9-25.75,79.71-25.75,79.71,0,0,107.94,19.95,137.28,.6,0,0,3.44-192.01,.29-209.13-3.14-17.03-38.29-69.82-44.57-76.61-6.29-6.88-52.16-10.49-52.16-10.49Z" style="fill:#6998d0; fill-rule:evenodd;"/><path d="M776.53,488.45s-.23,1.29-.64,3.52c-1.94,10.49-9.45,45.23-14.5,54.77-6.14,11.53,20.95,48.41,47.03,43.94,7.75-1.38-6.57-33.88-5.87-37.32,1.32-6.62,3.1-15.57,4.93-24.85,1.03-5.16,2.08-10.4,3.06-15.39,2.78-14.1,5.07-25.63,5.07-25.63l-39.07,.95Z" style="fill:#f4ae7c; fill-rule:evenodd;"/><path d="M775.89,491.98c.4-2.23,.64-3.52,.64-3.52l39.07-.95s-2.28,11.53-5.07,25.63c-.98,4.9-2.02,10.15-3.03,15.31-6.04-.86-12.34-3.79-18.66-9.29-6.89-6.02-11.4-13.24-14.12-20.98,.47-2.49,.88-4.56,1.18-6.19Z" style="fill:#ec724c; fill-rule:evenodd;"/><path d="M807.47,397.3s-13.84,2.15-23.87,17.11c-.6,16.2-13.42,62,4.07,85.98,24.92,25.02,49.54-3.27,53.2-33.37,.47-25.62,2.91-70.85-33.39-69.73Z" style="fill:#f4ae7c; fill-rule:evenodd;"/><path d="M821.57,392.14s-24.6,43.77-42.19,45.83c-17.59,1.98-19.91,25.28-19.91,25.28,0,0,6.29-53.66,23.71-63.97,17.42-10.32,38.39-7.14,38.39-7.14Z" style="fill:#0f3970; fill-rule:evenodd;"/><path d="M784.16,442.36c1.43,7.82-1.44,14.96-6.42,15.91-4.98,1.03-10.18-4.39-11.62-12.21-1.43-7.74,1.45-14.88,6.43-15.91,4.98-1.03,10.18,4.47,11.61,12.21Z" style="fill:#f4ae7c; fill-rule:evenodd;"/><path d="M642.22,1465.1c-22.83,4.22-38.01-9.11-45.91-19.09-5.81,11.26-9.36,25.36-5.09,34.65,3.75,8.17,13.99,10.41,22.63,10.75,9.15,.34,17.69-4.47,22.23-12.38,2.11-3.69,4.3-8.34,6.13-13.93Z" style="fill:#0f3970; fill-rule:evenodd;"/><path d="M836.82,1461.92c-25.12,6.45-43.7,2.07-54.08-2.15-2.68,7.57-6.23,17.11-4.35,22.53,2.31,6.79,5.6,8.25,8.49,8.34,22.95,.6,84.06,1.46,101.56,1.63,2.45,.09,3.81-2.75,2.23-4.64-4.34-5.16-51.97-24.59-53.84-25.71Z" style="fill:#0f3970; fill-rule:evenodd;"/><path d="M2.26,631.96c-7.19,80.31,2.77,159.84,29.88,238.57,49.8-18.93,95.77-36.44,137.91-52.54,91.25-3.29,158.63-28.28,202.15-74.93,89.85-94.68,166.2-227.32,229.03-397.92,13.77-46.58,32.36-93.09,55.77-139.53-72.97-22.42-147.33,49.64-223.07,216.19-12.86,25.07-21.83,29.09-26.89,12.06,46.5-82.62,85.67-180.95,153.36-229.11C781.59,140.64,897.44,75.18,907.95,8.37c-9.38-21.34-98.27-1.9-266.66,58.31-76.62,27.39-282.52,86.25-312.4,138.06-55.15,107.93-117.23,229.66-186.23,365.19-20.09,27.43-66.89,48.1-140.41,62.02Z" style="fill:#d0d9ee; fill-rule:evenodd;"/><path d="M1817.97,631.96c7.19,80.31-2.77,159.84-29.88,238.57-49.8-18.93-95.77-36.44-137.91-52.54-91.25-3.29-158.62-28.28-202.15-74.93-89.85-94.68-166.2-227.32-229.04-397.92-13.76-46.58-32.35-93.09-55.76-139.53,72.98-22.42,147.33,49.64,223.07,216.19,12.87,25.07,21.83,29.09,26.89,12.06-46.5-82.62-85.67-180.95-153.36-229.11-221.19-64.11-337.03-129.57-347.54-196.37,9.37-21.34,98.26-1.9,266.66,58.31,76.61,27.39,282.51,86.25,312.4,138.06,55.15,107.93,117.22,229.66,186.22,365.19,20.09,27.43,66.9,48.1,140.41,62.02Z" style="fill:#d0d9ee; fill-rule:evenodd;"/><path d="M1027.85,1485.43l19.47,10.09s11.65-15.17,22.06-33.49c7.27-12.83,13.95-27.22,15.6-39.01,3.98-28.63,34.3-75.69,31.12-83.7-3.15-8.02-63.24-21.88-63.24-21.88,0,0-11.75,80.45-19.56,132.45-2.28,15.17-4.23,27.93-5.44,35.54Z" style="fill:#f4ae7c; fill-rule:evenodd;"/><path d="M1027.85,1485.43l19.47,10.09s11.65-15.17,22.06-33.49c-8.11-.61-22.18-3.04-36.08-12.14-2.28,15.17-4.23,27.93-5.44,35.54Z" style="fill:#fff; fill-rule:evenodd;"/><path d="M1072.1,1335.82s24.6,34.72,39.52,83.51c3.5,11.49,15.45,25.81,27.52,38.52,11.72,12.34,23.56,23.18,27.96,28.51l19.82-9.54s-6.95-19.99-17.26-38.14c-3.85-6.75-8.13-13.23-12.69-18.35-6.32-7.07-4.24-96.36-10.53-102.23-6.29-5.89-74.33,17.72-74.33,17.72Z" style="fill:#f4ae7c; fill-rule:evenodd;"/><path d="M1127.91,1176.58l-.09,.06,.09-.06Z" style="fill:#f4ae7c; fill-rule:evenodd;"/><path d="M1077.07,1207.27l50.75-30.62c-.28-.11-1.31-1.65-5.09-12.63-1.62-4.68-2.5-8.74-2.91-11.95-.04-.32-.07-.64-.11-.94-.52-4.68-.15-7.38-.15-7.38l-11.11,4.03-20.56,7.44c.24,5.21-.48,8.89-1.6,11.4-2.69,6.12-7.69,6.16-7.82,6.16l-1.4,34.51Z" style="fill:#f4ae7c; fill-rule:evenodd;"/><path d="M1086.28,1166.6c19.88,1.69,31.06-11.26,33.54-14.54,.36-.48,.55-.75,.55-.75,0,0-.23-.07-.66-.19-1.62-.48-5.99-1.8-11.26-3.35l-20.56,7.44c.24,5.21-.48,8.89-1.6,11.4Z" style="fill:#ed9659; fill-rule:evenodd;"/><path d="M1085.31,1159.46s44.13,4.86,45.05-25.01c.89-29.85,7.41-43.51-23.14-46.17-30.54-2.66-37.75,8.35-39.56,18.45-5.63,31.55,5.19,51.39,17.64,52.74Z" style="fill:#f4ae7c; fill-rule:evenodd;"/><path d="M1071.09,1175.74s-42.33-32.52-46.85-43.29c-4.52-10.78-23.96-50.19-28.98-54.21,0,0-10.53-1.36-12.03,5.93-1.51,7.29,10.02,50.53,18.05,63.58,8.04,13.05,46.54,57.31,59.18,63.74l10.63-35.75Z" style="fill:#f4ae7c; fill-rule:evenodd;"/><path d="M968.21,1058.31c.71,3.77,2.23,7.82,4.05,9.92,2.38,2.78,6.15,8.37,8.52,12,1.53,2.23,2.52,3.91,2.52,3.91l12.01-5.87s.27-20.38-7.68-24.71c-.28-.13-.43-.28-.7-.28-3.35-1.81-6.57-3.07-9.36-3.91-3.77-.97-6.7-1.11-8.38-.13-1.52,.83-1.81,4.89-.97,9.07Z" style="fill:#f4ae7c; fill-rule:evenodd;"/><path d="M1104.86,1102.87c15.63-3.95,9.65,23.72,13.6,21.83,4.42-2.12,12.01-2.09,10.81,3.24-1.21,5.33-2.93,7.25-3.83,10.57-.89,3.33,0,9.92,3.64,8.6,3.63-1.33,37.42-39.91,13.56-69.96-23.84-30.06-94.99-11.54-72.58,19.89,3.93,5.53,23.68,8.65,34.81,5.83Z" style="fill:#0f3d86; fill-rule:evenodd;"/><path d="M1030.52,1393.56s43.43,9.11,64.12,6.31c27.88-3.78,52.6-4.41,78.69-18.49,0,0-13.86-68.89-14.71-72.23-1.23-4.82-10.09-41.83-18.29-76.07-7.48-31.32-14.41-60.32-14.41-60.32,0,0-20.67,14.7-32.74,9.51-12.04-5.19-10.5-11.04-10.5-11.04,0,0-7.88-3.18-11.58-2-3.68,1.16-14.18-4.78-14.18-4.78,0,0-11.59,8.96-12.03,28.19-.09,2.84,.09,5.92,.6,9.23l8.37,9.63s-18.89,115.34-23.33,182.07Z" style="fill:#fff; fill-rule:evenodd;"/><path d="M995.61,1509.35h58.14s1.11-9.46-.23-17.55c-.16-.98-.67-1.88-1.44-2.65-3.4,1.15-8.4,1.97-13.97-.03-4.55-1.65-7.92-4.13-10.28-6.4-.6,.59-12.62,12.03-18.17,12.03s-14.39,2.74-14.05,14.6Z" style="fill:#a73731; fill-rule:evenodd;"/><path d="M1139.13,1457.85c11.72,12.34,23.56,23.18,27.96,28.51l19.82-9.54s-6.95-19.99-17.26-38.14c-3.57,5.53-12.86,16.88-30.51,19.17Z" style="fill:#fff; fill-rule:evenodd;"/><path d="M1162.78,1481.23s.72,12.62-3.48,14.29c-4.2,1.69-12.05,5.82-12.05,13.83h29.14s20.08-9.88,22.75-14.08c2.69-4.19-13.38-22.1-13.38-22.1,0,0-9.87,10.91-22.97,8.07Z" style="fill:#a73731; fill-rule:evenodd;"/><path d="M1114.59,1276.09s-12.75-2.39-17.74,.88c-4.99,3.27-6.45,8.38-2.86,10.46,11.26,6.54,22.66-.68,22.66-.68l-2.06-10.66Z" style="fill:#f4ae7c; fill-rule:evenodd;"/><path d="M1125.4,1176.75s39.28,8.32,54.77,69.37c1.51,5.98-.04,12.35-4.18,16.93-7.12,7.9-22.81,19.44-59.34,23.69-3.98,.47-4.53-9.66-4.53-9.66,.39,.81,24.83-15.76,35.19-24.68,1.88-1.6,1.81-4.99,.46-7.06-3.52-5.36-9.41-14.63-11.37-19.38-2.91-6.92-21.98-46.08-11-49.22Z" style="fill:#f4ae7c; fill-rule:evenodd;"/><path d="M1125.9,1172.75s23.09,1.65,41.92,26.76c0,0-6.36,23.09-36.29,29.26,0,0-18.43-41.59-5.64-56.02Z" style="fill:#fff; fill-rule:evenodd;"/><path d="M1131.54,1067.97s22.22-6.04,37.16,10.17c14.94,16.22-6.82,45.94,14.07,62.22,20.89,16.29,12.62,28.43,4.14,32.39-19.08,8.92-48.21-2.17-42.28-17.22,11.39-28.92-5.49-50.95-5.49-50.95l-7.59-36.62Z" style="fill:#0f3d86; fill-rule:evenodd;"/><path d="M812.25,901.73c-14.54-11.84-15.85-8.93-17.68-10.55-2.17-1.87-13.34-38.3-13.34-38.3,0,0-33.68-107.33-35.3-113.2l12.71-114.51-54.33-24.04s-10.56,125-9.96,131.68c.57,6.69,62.55,146.78,67.64,159.32,0,0,.7,17.08,1.49,27.77,.76,10.62,6.17,20.6,6.84,23.54,.11,.51,2.91,10.31,9.53,21.59,5.71,9.69,4.6-2.07,4.6-2.07,0,0-7.42-19.79-5.82-20.08,1.25-.26,4.72,10.85,10.9,21.65,1.57,2.71,3.19,5.5,4.66,7.98,3.86,6.62,8.85,6.13,5.88-1.35-1.03-2.62-2.93-7.04-4.68-9.96-1.89-3.15-2.61-6.61-3.83-9.54-2.35-5.7-4.15-9.87-3.87-9.88,.35,.06,.67-1.41,2.45,1.5,2.16,3.5,5.12,11.9,8.63,16.73,1.99,2.74,5.84,8.83,5.84,8.83,0,0,7.48,8.07,8.08,7.77,3.26-1.42-.37-8.4-3.55-11.81-.96-3.2-5.2-9.41-5.2-9.41,0,0-5.79-14.47-3.81-15.35,.84-.3,5.44,8.15,11.21,15.83,5.37,7.08,11.9,13.4,13.4,12.51,2.57-1.36-2.59-9.88-2.59-9.88,0,0-3.87-5.7-5.04-7.74-1.35-2.33-4.9-9.7-4.9-9.7,0,0-11.16-26.19-9.19-26.79,1.94-.6,7.6-.05,8.84,1.33,1.24,1.38,2.23,5.11,3.46,6.49,1.24,1.38,4,2.13,5.75,.78,1.78-1.35-1.73-10.37-1.73-10.37,0,0-2.89-7.24-7.1-10.74Z" style="fill:#f4ae7c; fill-rule:evenodd;"/><path d="M689.03,695.65l67.66,1.2s18.05-68.26,9.92-102.33c-8.13-34.07-21.45-36.29-28.7-35.31-20.06,2.76-36.44,31.45-45.25,74.68-8.82,43.23-3.63,61.76-3.63,61.76Z" style="fill:#406fb5; fill-rule:evenodd;"/><path d="M692.26,958.06s54.23,114.42,47.64,123.07c-6.59,8.67-52.91-31.24-63.2-58.13-10.29-26.88,15.57-64.94,15.57-64.94Z" style="fill:#f4ae7c; fill-rule:evenodd;"/><path d="M767.56,983.54s-32.76,48.82-47.34,70.84c-8.01,12.08,12.7,27.74,19.69,26.75,6.99-.98,33.56-77.89,33.56-77.89l-5.91-19.7Z" style="fill:#f4ae7c; fill-rule:evenodd;"/><path d="M593.35,985.74s-43.07-19.6-75.65-2.45c-32.58,17.15-12.66,158.68,33.93,172.41,0,0,87.29,27.91,41.72-169.95Z" style="fill:#406fb5; fill-rule:evenodd;"/><path d="M739.82,1454.4s6.78,8.06,17.66,7.95c6.73-.07,12.97,1.97,17.53,5.78,4.03,3.39,2.39,9.96-2.74,11.13l-51.41,11.78c-4.95,1.13-9.79-2.25-10.44-7.27-.48-3.78-1.07-8.01-1.64-11.28-1.36-7.68,4.86-15.55,4.86-15.55l26.18-2.53Z" style="fill:#17305b; fill-rule:evenodd;"/><path d="M739.82,1454.4s3.02,3.27-26.18,2.53c0,0-25.9-118.8-31.69-126.77-1.38-1.88-11.45-24.24-15.04-30.7-.31-.55-6.94,13.14-7.26,12.58-11.75-21.11-30.12-56.5-31.44-61.88-1.79-7.24,19.33-100.19,36.65-97.2,12.95,2.26,24.13,8.08,28.96,10.88,1.62,.96,2.53,1.56,2.53,1.56,0,0,.65,2.65,1.78,7.24,1.02,4.16,2.44,9.92,4.15,16.75,.2,.85,.41,1.71,.64,2.61,9.6,39.06,26.68,108.65,29.27,120.49,3.62,16.64,7.62,141.9,7.62,141.9Z" style="fill:#f4ae7c; fill-rule:evenodd;"/><path d="M693.67,1145.09l37.97,137.96s-11.25,20.09-33.45,27.64c-15.64,5.31-41.62,3.54-41.62,3.54l-36.49-89.05,73.58-80.09Z" style="fill:#0f3d86; fill-rule:evenodd;"/><path d="M705.72,1188.89l-49.15,125.34c-11.75-21.11-27.04-58.68-28.35-64.06-1.79-7.24,19.33-100.19,36.65-97.2,12.95,2.26,24.13,8.08,28.96,10.88,1.62,.96,4.16,.42,4.16,.42,0,0,1.53,1.56,2.66,6.15,1.03,4.16,3.37,11.64,5.07,18.47Z" style="fill:#0f3970; fill-rule:evenodd;"/><path d="M661.94,954.21l-44.24,22.61-8.87-30.69s5.64-10.62,8.19-28.02c1.07-7.31,1.6-15.83,.91-25.26l36.05,18.46s-.86,3.33-1.43,8.25c-.62,5.31-.89,12.48,.62,19.29,1.3,5.84,3.92,11.42,8.77,15.37Z" style="fill:#f4ae7c; fill-rule:evenodd;"/><path d="M587.49,1174.61s-17.7,110.99-15.83,288.65l25.05,3.24s19.94-68.74,32.52-137.22c7.43-40.5,2.54-158.8,2.54-158.8l-44.28,4.12Z" style="fill:#f4ae7c; fill-rule:evenodd;"/><path d="M562.86,1160.61c.12,15.98-18.85,151.43-18.85,151.43,0,0,18.76,7.31,42.51,9.95,33.57,3.74,55.19-5.73,55.19-5.73l42.3-159.22-121.14,3.57Z" style="fill:#0f3d86; fill-rule:evenodd;"/><path d="M690,1173.41c-49.21,13.37-111.98,5.88-127.43,3.7-2.32-.31-3.57-.52-3.57-.52-5.44-1.31-9.14-6.18-9.14-11.59,0-.7,.07-1.4,.19-2.12l14.58-80.99-4.9-40.67-2.78-23.18-6.36-52.93c21.06-10.72,40.23-16.45,57.79-18.97,6.73,6.88,20,17.03,34.85,15.09,11.16-1.47,13.7-7.27,13.5-13.63,23.34,3.85,35.53,10.46,35.53,10.46l15.17,190.35c.91,11.44-6.37,22-17.43,25Z" style="fill:#fff; fill-rule:evenodd;"/><path d="M608.39,946.13l-6.65,13.23-6.45,12.85-31.22,67.94c-5.01-6.48-41.44-19.33-41.44-19.33,0,0,16.54-41.7,27.97-55.71,3.28-4.03,9.45-7.31,16.58-9.93,5.88-2.18,12.43-3.91,18.53-5.25,12.21-2.68,22.68-3.79,22.68-3.79Z" style="fill:#fff; fill-rule:evenodd;"/><path d="M551.09,1151.19l4.33-21.45c64.15-92.8,74-111.82,45.15-153.48-8.26-11.94-25.48-20.04-31.61-21.73,5.89-2.18,14.02-3.97,20.13-5.32,6.09,2.87,12.28,6.38,16.62,10.15,88.04,76.22-54.63,191.83-54.63,191.83Z" style="fill:#406fb5; fill-rule:evenodd;"/><path d="M594.44,1060.36c1.59-.11,8.51-3.58,8.51-3.58,0,0,6.54-23.56,28.59-27.47,0,0,10.46,.05,8.31,7.19-2.14,7.15-2.37,4.04-5.17,14.18-2.8,10.16-10.1,17.87-17.86,18.33l-7.96,2.16s-18.61-10.51-14.42-10.82Z" style="fill:#f4ae7c; fill-rule:evenodd;"/><path d="M602.95,1056.79s-42.15,3.82-48.38,6.59c0,0,3.42-9.25,9.5-23.23-5.5-5.41-23.55-13.45-35.52-17.14-9.12,23.27-12.62,46.32-7.51,68.52,.54,2.35,2.6,4.02,5.01,4.13,13.49,.64,58.24,.41,90.73-26.91l-13.84-11.95Z" style="fill:#f4ae7c; fill-rule:evenodd;"/><path d="M653.17,938.85c-20.5-.55-36.15-20.74-36.15-20.74l35.53,1.45c-.62,5.31-.89,12.48,.62,19.29Z" style="fill:#e79055; fill-rule:evenodd;"/><path d="M661.89,929.54s-53.92,6.57-55.06-31.42c-1.15-37.97,21.32-62.59,36.32-62.31,29.91,.56,34.85,12.66,38.32,25.24,3.47,12.58,5.25,65.81-19.58,68.49Z" style="fill:#f4ae7c; fill-rule:evenodd;"/><path d="M596.8,1466.21s4.61,9,14.83,11.22c6.44,1.41,11.95,4.76,15.38,9.45,2.89,3.97,.09,9.56-4.83,9.56h-51.87c-4.41,0-7.86-3.81-7.42-8.2,.39-3.84,.79-8.32,.97-11.75,.39-7.49,7.89-13.53,7.89-13.53l25.05,3.26Z" style="fill:#17305b; fill-rule:evenodd;"/><path d="M616.76,919.8s-35.45-26.03-35.45-57.04c0-38.48,23.68-48.96,56.74-50.84,33.06-1.87,56.56,26.08,47.7,40.53-8.86,14.45-19.76,11.01-40.63,8.67-20.87-2.34-20,16.87-28.87,15.93-8.87-.94-11.45-3.98-12.15,2.11-.7,6.09,9.2,8.08,7.49,14.05-3.21,11.22,5.16,26.58,5.16,26.58Z" style="fill:#233f87; fill-rule:evenodd;"/><path d="M616.54,879.87s-7.22-9.49-12.14-7.03c-4.93,2.46-.18,16.52,3.52,18.45,3.69,1.93,7.76,3.33,8.62,2.45,.86-.88,0-13.87,0-13.87Z" style="fill:#f4ae7c; fill-rule:evenodd;"/><path d="M692.26,958.06s17.78,15.63,29.61,53.81c0,0,3.73,37.38-29.61,40.92-33.34,3.55,0-94.74,0-94.74Z" style="fill:#fff; fill-rule:evenodd;"/><path d="M602.95,1056.79s1.34-6.9,3.57-13.68c2.23-6.79,3.56-13.42,5.19-10.33,1.62,3.1,2.21,11.61,2.21,11.61l-10.96,12.4Z" style="fill:#f4ae7c; fill-rule:evenodd;"/><path d="M767.56,983.54s6.69-26.55,23.22-25.48c16.53,1.07,13.78,17.21,5.9,25.48-7.87,8.26-23.21,19.7-23.21,19.7l-5.91-19.7Z" style="fill:#f4ae7c; fill-rule:evenodd;"/></svg>