<?xml version="1.0" encoding="UTF-8"?><svg id="a" xmlns="http://www.w3.org/2000/svg" viewBox="0 0 2022.55 1432.04"><path d="M932.53,0c228.83,0,325.26,163.74,490.43,291.02,218.68,168.47,437.31,58.79,472.32,628.01,31.16,506.57-357.65,54.82-905.88,236.3C441.19,1336.8-117.16,1409.88,48.52,822.72,214.19,235.6,400.79,0,932.53,0Z" style="fill:#e0e8f5; fill-rule:evenodd;"/><path d="M1015.44,1318.52c556.21,0,1007.11,25.42,1007.11,56.78s-450.9,56.74-1007.11,56.74S8.31,1406.65,8.31,1375.3s450.92-56.78,1007.13-56.78Z" style="fill:#c4d1eb; fill-rule:evenodd;"/><path d="M1648.14,335.24c-502.52-41.67-988.42-28-1457.67,41.01,19.6-119.21,9.71-222.76-29.63-310.65C664.17-18.14,1163.19-21.32,1657.9,56.04c-28.13,123.54-31.36,216.61-9.75,279.2Z" style="fill:#b0c2e4; fill-rule:evenodd;"/><polygon points="137.25 42.86 158.56 41.49 273.49 1246.42 252.18 1247.77 137.25 42.86" style="fill:#9c7357; fill-rule:evenodd;"/><polygon points="1658.59 36.68 1679.87 38.1 1637.6 1247.77 1616.29 1246.34 1658.59 36.68" style="fill:#9c7357; fill-rule:evenodd;"/><path d="M657.05,895.5c5.27,4.61,11.03,6.51,17.77,5.1-6.33,4.76-15.08,1.11-17.77-5.1Z" style="fill:#f48661; fill-rule:evenodd;"/><path d="M680.81,1352.56c-1.02-7.12,1.24-19.39,6.8-38.56-11.01,.04-20.31-4.84-31.61-4.67-3.07,18.02-7.83,47.59-7.83,47.59l-.53,23.42,78.56,.56s-.66,.34-23.81-14.31c-1.73-1.05-20.61-7.19-21.57-14.04Z" style="fill:#f9af79; fill-rule:evenodd;"/><path d="M647.26,1386.33h81.1c2.97-.26,3.71-2.71,2.67-4.22-2.15-3.12-17.96-10.56-28.6-15.51-18.64,1.96-51.43-5.72-54.39-10.02-5.08,14.29-2.45,29.37-.79,29.75Z" style="fill:#0e2952; fill-rule:evenodd;"/><path d="M582.95,1352.56c-1-7.12-2.71-16.06-.23-39.8-11.03,.02-21.54-2.03-32.81-1.88,0,18.52,.38,46.05,.38,46.05l-.51,23.42,78.58,.56s-.68,.34-23.83-14.31c-1.71-1.05-20.63-7.19-21.57-14.04Z" style="fill:#f9af79; fill-rule:evenodd;"/><path d="M549.41,1386.33h81.1c3.01-.26,3.73-2.71,2.67-4.22-2.15-3.12-17.96-10.56-28.6-15.51-18.66,1.96-51.41-5.72-54.35-10.02-5.12,14.29-2.48,29.37-.83,29.75Z" style="fill:#0e2952; fill-rule:evenodd;"/><path d="M640.02,674.19l29.58-31.17s31.61,17.39,68.49,34.02c10.13-17.64,26.66-75.68,27.56-78.44,.88-2.79-19.37-37.65-14.84-38.51,4.52-.87,10.39,18.61,15.21,16.62,4.78-1.97,17.13-47.19,19.99-44.71,5.4,4.62-6.48,28.13-3.65,29.83,2.86,1.72,10.09-26.05,15.55-24.87,5.53,1.18-9.24,25.25-7.64,27.6,1.64,2.31,17.09-20.29,20.26-15.05,1.75,2.82-14.23,19.67-10.96,21.56,3.28,1.87,17.7-8.73,19.39-5.3,1.73,3.45-13.42,7.02-17.64,15.73-4.2,8.67-11.84,12.08-14.4,28.52-2.5,16.42-9.45,104.29-27.37,111.37-15.64,6.16-119.53-47.21-119.53-47.21Z" style="fill:#f9af79; fill-rule:evenodd;"/><path d="M659.12,842.34l-23.95,13.37-48.72,74.48,87.09,205.01s-9.81,30.84-12.99,46.24c-3.35,16.11-11.56,154.45-11.56,154.45l37.16,.62s35.32-147.26,41.27-195.06c7.27-58.04-36.94-196.26-36.94-196.26-8.25-28.2-26-86.22-26-86.22,0,0-4.35-14.16-5.37-16.62Z" style="fill:#20386f; fill-rule:evenodd;"/><path d="M575.73,814.38s2.48,17.51-7.44,37.48c-6.04,12.2-16.47,21.73-23.97,36.64-14.14,28.28-21.82,68.38-16.53,94.15,0,0,29.26,111.66,28.09,152.47-.41,15.06-5.57,42.17-8.87,60.49-2.92,16.21-3.92,138.41-3.92,138.41l41.49-1.26,31.78-197.14,13.44-175.23,29.31-118.04-83.4-27.96Z" style="fill:#223f81; fill-rule:evenodd;"/><path d="M663.59,557.1c-3.67-17.31-7.44-34.71-24.64-47.18-13.97-10.11-28.92-13-44.77-7.25-44.99,16.31-20.82,52.02-76.66,90.04-17.32,11.83-23.91,15.95-36.35,31.71-17.41,22.04-26.94,51.62-18.17,75.98,18.09,50.36,74.21,64.91,103.58,54.24,54.63-19.86,100.13-89.18,103.2-108.09,3.2-20.24-3.8-78.3-6.19-89.46Z" style="fill:#20386f; fill-rule:evenodd;"/><path d="M672.3,693.78c13.22,6.12,37.2,15.3,37.2,15.3l13.61-43.08c-77.02-43.83-70.95-36.75-128.77-35.89-46.18,.68-65.53-8.16-105.29,99.2,0,0,30.27,13.59,41.12,17.96,4.67-13.29,13.08-39.76,18-24.66,7.42,22.78,12.86,45.79,16.49,69.51,2.32,14.01,7.34,32,4.71,46.31,0,0,31.44,6.48,55.46,7.53h.23c11.6-.3,23.46-1.34,34.07-3.61,0,0,4.71-99.55,7.23-103.73,2.79-4.59,14.55-19.46,4.56-41.7-1.81-3.92-1.32-4.38,1.39-3.12Z" style="fill:#6d96ce; fill-rule:evenodd;"/><path d="M614.51,866.62c.55,.08,2.97-.24,5.01-.21,2.77,.08,5.2,.47,5.2,.47,0,0,1.09-.94,3.16-1.9,.88-.4,2.3-.55,3.24-1,1.02-.45,1.86-1.32,2.79-1.73,2.47-1.05,4.71-1.32,5.46-.02,.62,1.07-13.03,9.39-13.03,9.39-12.65,.08-25.87,6.55-55.16-12.56-16.7-7.3-97.9-47.42-99.55-56.16-.92-4.93,11.56-42.9,21.73-71.73,7.87,3.52,24.55,10.94,33.89,14.85-8.57,18.17-18.68,42.23-17.6,45.2,.26,.75,1.3,2.15,56.2,38.1,1.36,.87,2.79,1.81,4.22,2.77,3.86,2.52,8,5.21,12.39,8.08l15.66-1.64s24.79,1.71,25.53,4.54c.34,1.28-1.73,1.94-4.25,2.32h-.08c-.36,.04-.75,.09-1.13,.13h-.04c-2.73,.32-5.59,.38-6.29,.64-.79,.26-2.37,.87-3.75,1.79,15.46,6.34,14.29,4.09,19.41,3.76,1.28-.11,2.65,.28,3.88,.19,2.07-.19,3.73-1.41,5.33-1.52,2.35-.15,4.27,.96,4.69,1.39,.57,.57-.49,1.36-2.45,2.26-11.94,5.18-21.84,3.2-25,3.95-2.15,.51,1.75,1.32,7.83,.68,1.51-.17,3.5,.4,5.5-.09,1.36-.3,2.56-1.15,3.84-1.45,1.22-.34,2.48-.3,3.5-.49,1.32-.26,3.2-1.28,4.25-1.39,3.97-.45,5.87,.25,6.33,.6,.92,.83-17.06,7.72-17.06,7.72,0,0-12.44,1.79-15.21,1.79,0,0-1.66,.77,1.58,1.26Z" style="fill:#f9af79; fill-rule:evenodd;"/><path d="M600.05,587.6s-3.54,28.46-5.61,38.3c-2.17,10.34-5.42,42.89,16,48.14,21.42,5.3,14.76-35.38,15.14-45.89,.34-10.52,6.4-47.1,6.4-47.1l-31.93,6.55Z" style="fill:#f9af79; fill-rule:evenodd;"/><path d="M598.88,596.68c.21,.13,.41,.28,.64,.41,11.86,6.76,22.14,5.71,29.88,.43,1.37-9.1,2.58-16.47,2.58-16.47l-31.93,6.55s-.49,3.8-1.17,9.07Z" style="fill:#f27458; fill-rule:evenodd;"/><path d="M606.45,513.57s-12.54,3.52-19.77,15.98c-7.23,12.47-10.84,48.25,15.81,63.56,26.62,15.24,45.56-9.21,44.73-32.1-.81-22.9-7.19-53.19-40.78-47.44Z" style="fill:#f9af79; fill-rule:evenodd;"/><path d="M653.12,551.17c.28,5.93-2.24,10.94-5.69,11.1-3.44,.17-6.49-4.51-6.76-10.46-.32-5.96,2.22-10.92,5.67-11.09,3.45-.17,6.48,4.51,6.78,10.45Z" style="fill:#f9af79; fill-rule:evenodd;"/><path d="M610.25,512.63s-14.36,37.45-28.43,41.42c-14.04,3.99-12.91,22.41-12.91,22.41,0,0-1.83-42.57,11.03-53,12.84-10.43,30.31-10.82,30.31-10.82Z" style="fill:#20386f; fill-rule:evenodd;"/><path d="M587.87,561.39c2.16,5.85,.75,11.79-3.2,13.27-3.92,1.46-8.83-2.08-11.01-7.94-2.18-5.85-.75-11.79,3.2-13.27,3.9-1.47,8.81,2.07,11.01,7.94Z" style="fill:#f9af79; fill-rule:evenodd;"/><path d="M1928.86,1314.23s9.94,9.87,10.17,13.48c.26,3.61,.88,42.28-3.16,45.9-4.07,3.62-16,6.21-12.16,10.28,2.88,3.01,25.19,2.37,39.99,1.58,4.31-.3,9.75-35.15,11.45-40.29,2.47-7.44,11.41-23.68,9.17-28.84-1.11-2.5-9.28-8.28-16.7-13.14-7.79-5.12-15.25-16.49-15.25-16.49l-23.5,27.52Z" style="fill:#f9af79; fill-rule:evenodd;"/><path d="M1795.72,1338.4l8.92,25.58c.66,4.05,3.28,14.03,3.28,17.72,0,13.8-61.37-11.71-47.63-17.87,1.24-.58,5.16-4.99,5.54-9.68,.64-7.23-5.14-16.27-5.14-16.27l35.04,.51Z" style="fill:#f9af79; fill-rule:evenodd;"/><path d="M1711,854.31l-22.21,57.53s-14.5,137.35-6.06,219.57c3.54,34.41,79.97,218.47,79.97,218.47l37.99-5.4-50.87-217.99,18.71-83.36,26.49-164.84-84.02-23.98Z" style="fill:#0e2952; fill-rule:evenodd;"/><path d="M1815.71,857.29l19.09,64.05,28.97,193.46,98.06,180.95s-14.72,22.7-30.57,26.24l-139.2-182.91-75.43-228.96,2.64-50.89,96.45-1.94Z" style="fill:#223f81; fill-rule:evenodd;"/><path d="M1515.36,853.22c14.8-.71,14.35,1.85,16.25,1.64,2.22-.11,26.15-18.62,26.15-18.62,0,0,70.79-53.95,74.51-57l44.17-81.37,46.05,10.8s-50.38,87.17-53.8,91.3c-3.39,4.05-107.5,65.7-116.5,71.48,0,0-8.25,10.83-13.61,17.47-5.4,6.63-13.42,10.47-15.23,12.14-.26,.17-6.59,5.31-16,9.41-8.11,3.63-2.07-3.5-2.07-3.5,0,0,13.89-9.41,12.95-10.35-.7-.77-7.96,4.8-16.91,8.87-2.3,1.04-4.56,2.03-6.63,2.94-5.5,2.39-8.57-.26-3.2-3.77,1.9-1.22,5.08-3.16,7.53-4.2,2.67-1.19,4.78-3.12,6.85-4.44,4.16-2.6,7.23-4.46,7.04-4.58-.26-.11,.21-1.24-2.28-.19-2.95,1.21-8.68,5.27-13.23,6.74-2.56,.87-7.78,2.94-7.78,2.94,0,0-8.9,2.43-9.13,1.92-1.41-2.52,4.44-6.1,8.06-6.76,2.07-1.68,7.64-3.67,7.64-3.67,0,0,10.35-6.67,9.49-8.17-.75-1.26-28.62,9.85-29.9,7.23-1.02-2.17,7.25-5.91,7.25-5.91,0,0,5.14-1.85,6.82-2.62,1.94-.88,7.59-4.03,7.59-4.03,0,0,19.15-11.65,18.15-13.05-.94-1.36-4.84-3.78-6.27-3.45-1.45,.3-3.78,2.28-5.18,2.54-1.45,.32-3.58-.53-4.12-2.28-.47-1.79,5.87-5.97,5.87-5.97,0,0,5.18-3.31,9.47-3.5Z" style="fill:#f9af79; fill-rule:evenodd;"/><path d="M1658.87,720.57l47.37,26.77s20.29-40.21,28.9-59.89c10.39-23.85,20.97-55.37,17.88-55.95-8.79-1.61-20.67-1.93-30.99,4.16-35.56,21.15-63.16,84.9-63.16,84.9Z" style="fill:#466fb5; fill-rule:evenodd;"/><path d="M1889.93,959.85c8.25-13.52,10.13-11.56,11.11-13.37,1.21-2.11-.11-34.26-.11-34.26,0,0-3.31-95-3.65-100.12l-42.3-87.71,36.54-34.41s43.53,96.65,44.94,102.17c1.41,5.48-8.64,134.53-9.17,145.96,0,0,4.22,13.8,6.61,22.53,2.37,8.7,.85,18.15,1.15,20.71,.04,.41,.6,9.02-1.53,19.84-1.83,9.34-4.25-.34-4.25-.34,0,0,.36-17.87-1-17.64-1.07,.13-.72,9.98-2.62,20.31-.47,2.6-1,5.27-1.45,7.64-1.24,6.38-5.35,7.38-5.08,.6,.08-2.37,.36-6.44,.94-9.26,.6-3.03,.23-5.99,.38-8.66,.26-5.2,.53-9.04,.3-8.96-.26,.11-.92-.94-1.54,1.86-.71,3.41-.71,10.9-2.16,15.76-.83,2.75-2.17,8.66-2.17,8.66,0,0-3.73,8.55-4.25,8.47-3.01-.23-2.09-6.78-.49-10.39-.13-2.84,1.51-8.98,1.51-8.98,0,0,.53-13.16-1.28-13.29-.77,0-2.07,8-4.5,15.76-2.32,7.15-5.74,14.01-7.17,13.72-2.43-.36-.71-8.6-.71-8.6,0,0,1.51-5.65,1.86-7.59,.4-2.24,1.15-9.09,1.15-9.09,0,0,1.54-24.02-.19-23.95-1.71,.08-6.06,2.11-6.66,3.54-.6,1.45-.34,4.71-.94,6.14-.6,1.47-2.56,2.84-4.37,2.26-1.77-.58-1.51-8.73-1.51-8.73,0,0,.26-6.59,2.63-10.58Z" style="fill:#f9af79; fill-rule:evenodd;"/><path d="M1967.11,1302.9s-20.93,64.2-29.91,67.4c-2.39,.77-15.79,4.18-17.96,9.3l-.15,.53c-.7,3.24,2.05,6.21,5.37,6.21h42.58s6.02-28.86,8.45-41.49c0,0,12.63-31.01,11.24-33.77-1.41-2.82-19.62-8.17-19.62-8.17Z" style="fill:#0e2952; fill-rule:evenodd;"/><path d="M1811.42,1386.26l-7.04-22.55s-14.76,6.36-22.14,5.27c-7.38-1.02-21.8-5.27-21.8-5.27-29.46,9.83-53.6,14.59-49.25,22.55h100.23Z" style="fill:#0e2952; fill-rule:evenodd;"/><path d="M1533.25,866.96c-6.17,2.43-12.01,2.32-17.66-1.09,4.24,6.25,13.29,5.72,17.66,1.09Z" style="fill:#f48661; fill-rule:evenodd;"/><path d="M1808.82,622.24s28.67,3.96,36.18,9.54c8.49,6.21,34.79,35.34,34.79,35.34,0,0-54.71,156.74-52.62,184.64,2.13,27.92,8.15,69.26,8.15,69.26,0,0-107.08,6.8-147.29-9.11,0,0,13.44-63.31,13.44-79.88s7.15-182.56,12.22-191.22c5.1-8.67,15.31-13.59,34.75-17.87,19.41-4.25,60.38-.71,60.38-.71Z" style="fill:#6d96ce; fill-rule:evenodd;"/><path d="M1801.03,577.5l7.08,46.41s-25.92,55.3-41.38,50.53c-12.97-4.04-4.99-52.93-4.99-52.93,0,0,7.08-26.31,4.99-39.47-2.16-13.08,34.3-4.55,34.3-4.55Z" style="fill:#f9af79; fill-rule:evenodd;"/><path d="M1766.73,582.04c-2.16-13.08,34.3-4.55,34.3-4.55l.56,3.81c-1.05,2.63-2.35,4.86-3.95,6.52-8.11,8.67-20.86,13.94-31.85,14.3,1.09-7.08,1.79-14.66,.94-20.09Z" style="fill:#f48661; fill-rule:evenodd;"/><path d="M1806.98,511.85c1.02-.38,8.25,52.85-5.46,67.52-13.7,14.6-40.4,19.45-49.98,7.88-4.73-5.68-14.2-21.7-7.53-39.75,6.72-18.27,6.98-36.97,18.77-45.35,21.31-15.03,44.2,9.71,44.2,9.71Z" style="fill:#f9af79; fill-rule:evenodd;"/><path d="M1763.9,457.08c19.92,40.93,41.49,35.12,45.41,39.39,31.48,3.63,50.92,56.36,19.09,80.72-15.04,11.57-24.74,17.64-24.74,17.64l-2.41-7c-1.75-5.21-2.47-10.77-1.88-16.28,.36-3.26,1.05-6.8,2.45-9.75,3.6-7.66-7.76-12.81-10.96-19.23-2.47-4.92-2.58-16.27-6.44-24.36l-4.63-6.29s-10.66-8.26-21.09-5.86c-10.43,2.31-17.43-24.49,5.2-48.98Z" style="fill:#20386f; fill-rule:evenodd;"/><path d="M1791.56,552.04c-.11,6.5,2.88,11.86,6.65,11.86,3.77,.07,6.93-5.14,7.02-11.65,.09-6.5-2.86-11.78-6.65-11.85-3.77-.08-6.91,5.13-7.02,11.64Z" style="fill:#f9af79; fill-rule:evenodd;"/><path d="M1915.36,723.32l-47.91,37.35s-21.16-20.22-31.82-42.72c-10.73-22.69-1.28-88.99,10.17-85.96,25.58,6.95,69.56,91.32,69.56,91.32Z" style="fill:#466fb5; fill-rule:evenodd;"/><path d="M222.89,591.49s-9.24-11.17-16.49-16.21c-7.25-5.07-18.64-21.05-19.73-41.68-1.11-20.69,12.99-31.38,21.05-35.21,8.02-3.9,39.87-9.46,51.43-6.15,11.56,3.29,13.35,44.75,13.35,44.75l-11.37,34.21-38.24,20.29Z" style="fill:#20386f; fill-rule:evenodd;"/><path d="M306.1,1161.31l.17,25.25,27.03-9.9s15-23.42,34.53-54.71c-12.33-5.38-25.17-9.94-38.05-14.61-13.31,31.51-23.68,53.97-23.68,53.97Z" style="fill:#fab688; fill-rule:evenodd;"/><path d="M334.98,1175.01s-13.55-3.88-16.87-6.95c-3.31-3.07-5.23-10.64-10.62-10.41-5.38,.25-24.55,17.92-26.15,23.4-1.64,5.72-1.34,13.33,2.05,16.38,3.35,3.12,62.8,41.27,74.89,45.11,12.05,3.84,22.4-5.01,14.12-16.68-8.3-11.71-29.44-51.15-37.43-50.85Z" style="fill:#0e2952; fill-rule:evenodd;"/><path d="M228.54,849.76s237.36,31.44,241.2,61.28c9.02,69.75-122.75,253-122.75,253l-37.05-16.19,66.49-192.51s-106.03-10.47-115.5-17.08c-9.49-6.63-32.4-88.5-32.4-88.5Z" style="fill:#20386f; fill-rule:evenodd;"/><path d="M138.47,1311.22l4.33,24.89,25.04-14.23s10.98-25.58,25.04-59.72c-13.06-3.24-26.47-5.65-39.91-8.11-7.98,33.27-14.5,57.17-14.5,57.17Z" style="fill:#fab688; fill-rule:evenodd;"/><path d="M169.25,1319.99s-14.06-1.62-17.83-4.07c-3.75-2.47-6.93-9.62-12.16-8.51-5.27,1.09-21.31,21.69-21.91,27.3-.7,5.95,.87,13.39,4.71,15.87,3.84,2.54,81.72,33.79,94.26,35.58,12.56,1.77,14.4-11.16,4.29-21.27-10.07-10.18-43.58-46.56-51.36-44.9Z" style="fill:#0e2952; fill-rule:evenodd;"/><path d="M271.48,872.52l-22.35-29.24s-68.3,10.28-77.15,41.08c-8.85,30.8,5.42,225.37,5.42,225.37,0,0-26.58,133.23-38.14,181.58,13.48,2.48,32.29,6.36,45.37,9.56,24.38-59.08,74.48-187.62,74.48-187.62l21.65-177.11-9.28-63.61Z" style="fill:#223f81; fill-rule:evenodd;"/><path d="M360.13,397.2c4.76,15.19,7.04,13.78,7.59,15.75,.66,2.27-8.42,33.35-8.42,33.35,0,0-26.22,91.62-27.82,96.56l-62.39,75.15,27.26,42.31s65.74-83.58,68.45-88.6c2.71-4.92,24.17-133.07,26.39-144.3,0,0,7.47-12.38,11.92-20.28,4.42-7.93,5.21-17.51,6.14-19.93,.15-.38,2.73-8.61,3.29-19.67,.51-9.54-4.22-.72-4.22-.72,0,0-3.95,17.47-5.23,16.96-.98-.41,1.73-9.88,2.37-20.44,.17-2.67,.32-5.38,.45-7.78,.32-6.45-3.45-8.5-4.82-1.8-.49,2.35-1.2,6.33-1.32,9.21-.15,3.1-1.24,5.96-1.73,8.56-1.02,5.17-1.66,8.95-1.86,8.78-.24-.23-1.13,.66-1.05-2.2,.11-3.48,1.9-10.79,1.71-15.86-.15-2.91-.04-8.97-.04-8.97,0,0-1.52-9.18-2.09-9.29-2.97-.44-3.67,6.13-2.97,10.06-.81,2.73-.73,9.09-.73,9.09,0,0-2.67,12.92-4.44,12.57-.75-.11-.08-8.29-.58-16.37-.47-7.5-2.16-14.98-3.63-15.11-2.48-.24-2.79,8.2-2.79,8.2,0,0,.08,5.9-.04,7.87-.15,2.27-1.07,9.16-1.07,9.16,0,0-4.31,23.72-5.97,23.21-1.66-.51-5.42-3.48-5.65-5.04-.23-1.55,.81-4.66,.58-6.21-.25-1.56-1.83-3.41-3.71-3.27-1.88,.13-3.61,8.15-3.61,8.15,0,0-1.36,6.5,.04,10.89Z" style="fill:#fab688; fill-rule:evenodd;"/><path d="M300.98,575.19c-3.05-.21-72.07,61.03-69.67,79.63,2.3,18.61,34.11,43.1,54.16,27.34,20.05-15.82,56.78-71.55,56.78-71.55,0,0-31.55-34.86-41.27-35.42Z" style="fill:#6d96ce; fill-rule:evenodd;"/><path d="M269.99,623.63c.85,.56,28.99,41.15,30.84,73.54,3.31,59.25-9.3,159.14-19.37,164.26-80.74,41-115.42,27.41-115.42,27.41,0,0,2.32-182.12,14.72-225.5,5.16-18.02,12.56-33.97,30.87-40.24,4.16-1.48,38.8-13.06,58.36,.53Z" style="fill:#6d96ce; fill-rule:evenodd;"/><path d="M260.2,590.92l10.02,34.13s2.6,9.56-1.54,14.23c-7.14,8.12-44.2-19.68-44.2-19.68l-6.4-55.37,42.13,26.69Z" style="fill:#fab688; fill-rule:evenodd;"/><path d="M219.99,580.9c11.67,20.86,34.04,27.87,45.35,27.52l-5.14-17.51-42.13-26.69,1.92,16.67Z" style="fill:#f27458; fill-rule:evenodd;"/><path d="M225.22,506.02c15.04-9.41,34.98-2.54,41.38,13.74,2.75,7.02,5.87,16.03,8.36,26.03,6.02,24.12-1.05,50.61-12.05,53.1-10.98,2.57-44.99-6.1-54.03-40.19-5.57-21.08,.56-42.81,16.34-52.67Z" style="fill:#fab688; fill-rule:evenodd;"/><path d="M217.62,559.52c1.24,5.36-1.34,10.49-5.69,11.53-4.37,.98-8.89-2.54-10.13-7.9-1.24-5.3,1.3-10.47,5.69-11.46,4.33-1.05,8.87,2.45,10.13,7.82Z" style="fill:#fab688; fill-rule:evenodd;"/><path d="M207.49,551.69s-4.52-11.16-5.46-22.56c-.9-11.35,5.54-28.73,16.49-33.09,10.92-4.35,38.18-4.77,40.33-12.6,2.15-7.84,2.26-7.12,3.26-8.42,2.18-3.05,19.99,4.73,22.63,23.8,2.69,19.08-14.14,21.42-17.26,22.53-3.16,1.17-34.98-6.04-43.86-3.86-8.96,2.14-16.11,34.22-16.11,34.22Z" style="fill:#20386f; fill-rule:evenodd;"/><path d="M57.69,427.41c-1.71,15.82-4.24,14.88-4.39,16.91-.19,2.36,14.76,31.08,14.76,31.08,0,0,43.53,84.78,46.05,89.31l75.79,61.58-18.51,46.83s-80.74-69.22-84.36-73.62c-3.61-4.31-49.59-125.82-53.96-136.42,0,0-9.73-10.69-15.63-17.58-5.87-6.89-8.51-16.13-9.88-18.35-.21-.32-4.35-7.9-7.06-18.65-2.33-9.27,3.99-1.52,3.99-1.52,0,0,7.3,16.36,8.43,15.62,.88-.6-3.61-9.37-6.29-19.59-.72-2.6-1.36-5.22-1.96-7.57-1.56-6.25,1.71-9,4.37-2.69,.94,2.21,2.41,5.98,3.09,8.78,.73,2.99,2.37,5.6,3.39,8.05,1.98,4.87,3.35,8.44,3.5,8.25,.19-.27,1.24,.43,.6-2.37-.79-3.39-3.95-10.2-4.74-15.22-.43-2.89-1.71-8.82-1.71-8.82,0,0-.3-9.29,.23-9.5,2.84-1.03,4.8,5.3,4.88,9.29,1.36,2.5,2.52,8.78,2.52,8.78,0,0,5.12,12.15,6.78,11.46,.72-.26-1.54-8.14-2.6-16.17-1-7.46-.79-15.12,.6-15.54,2.39-.7,4.33,7.52,4.33,7.52,0,0,1.07,5.81,1.58,7.7,.6,2.2,2.82,8.78,2.82,8.78,0,0,8.85,22.43,10.35,21.6,1.54-.8,4.67-4.45,4.56-6.02-.04-1.58-1.68-4.42-1.77-6-.06-1.57,1.15-3.69,3.01-3.93,1.88-.23,5.12,7.32,5.12,7.32,0,0,2.58,6.11,2.09,10.69Z" style="fill:#fab688; fill-rule:evenodd;"/><path d="M150.3,590.48c2.94-.78,31.27,33.79,72.5,37.65,1.34,18.7-8.89,115.03-31.61,103.49-14.87-36.48-74.49-98.36-74.49-98.36,0,0,24.19-40.33,33.6-42.78Z" style="fill:#6d96ce; fill-rule:evenodd;"/><path d="M1495.03,1347.34c-9.94,.94-.53,8.3-6.93,10.3-14.5-7.15-23.17-27.94-29.18-37.03-3.16-4.78-5.08,1.56-6.25,8.57-2.52,14.83-1.71,34.11,1.92,40.55-4.22-2.52-8.21-6.14-10.62-12.29-8.68,.94-1.62,8.3-7.19,10.3-12.65-7.17-19.11-27.96-24.36-37.03-2.77-4.78-4.44,1.53-5.48,8.57-2.2,15.12-1.45,32.62,1.9,38.63,4.03-1.28,4.69-16.29,6.44-24.89,12.58,11.8,9.26,25.55,16.62,29.86,17.34,1.39,19.37,6.25,39.8,1.24,1.64-8.64-8-9.07-16.79-14.19,2.35-4.78,3.99-18.51,6.01-26.96,14.36,11.79,11.88,25.51,20.29,29.82,19.84,1.39,30.54,1.51,45.56,1.24,2.79-12.88-23.12-7.53-31.74-26.68Z" style="fill:#0e2952; fill-rule:evenodd;"/><path d="M1396.95,656.17c-1.09,5.39-2.67,9.64-4.71,12.69-4.07,1.93-8.64,5.88-13.74,11.82-5.06-1-10.5-2.91-16.28-5.75-23.02-38.05-44.32-71.65-63.91-100.8-.26,19.37-9.41,26.28-27.45,20.71,36.2,68.41,58.36,106.63,66.47,114.64,14.18,19.72,29.61,33.5,46.35,41.41,33.23,37.65,35.19,83.85,5.86,138.62,62.03,9.32,90.38-16.04,85.05-76.06-7.12-45.39-19.11-89.05-36-130.96-20.76-8.11-34.64-16.88-41.64-26.31Z" style="fill:#6d96ce; fill-rule:evenodd;"/><path d="M1463.67,676.8c.23-7.59-2.41-22.51-16.87-37.35,6.06,1.53,12.26,3.68,18.54,6.48,1.94-.4,5.52-.81,10.69-1.23,7.81-9.1,13.61-21.82,17.32-38.14,5.4-28.71,9.49-61.46,12.29-98.22,9.75,5.95,28.24,6.65,32.83,4.04-5.65,68.55-14.91,115.85-27.79,141.95-5.01,13.99-1.2,27.11-4.97,46.11,19.95,24.79,27.49,47.14,22.52,67.06-10.88,24.74-3.46,62.31,22.29,112.75-43.77,6.76-64.8-12.82-63.03-58.74-4.67-58.89-14.4-112.96-23.83-144.7Z" style="fill:#6d96ce; fill-rule:evenodd;"/><path d="M1469.47,860.15c7.57-.26,15.78-.23,24.66,.08-5.05-9.64-7.23-22.54-6.63-38.73-4.14-52.35-12.29-100.89-20.71-133.3-6.82,7.29-14.68,9.29-23.61,6.05,14.5,38.29,24.96,78.03,31.4,119.19,1.7,19.07,0,34.64-5.12,46.71Z" style="fill:#fff; fill-rule:evenodd;"/><path d="M1527.98,1153.87c20.93-103.69,31.55-195.58,12.27-272.52-22.65,1.41-38.03-5.63-46.12-21.12-8.89-.3-17.09-.34-24.66-.08-10.24,24.21-34.15,34.34-71.73,30.42-26.13,49.66-6.4,84.3,6.55,130.77,9.49,34.09,11.75,73.12,3.77,134.79-4.58,27.82-4.42,80.2,.45,157.04,14.38,2.9,26.22,1.17,35.54-5.2-2.82-50.13,1.84-99.93,13.95-149.4,11.73-51.26,17.11-106.46,16.21-165.61,9.49,73.08,9.34,127.55-.45,163.35-9.79,42.32-15.19,92.12-16.19,149.42,11.35,4.56,21.41,4.25,30.12-.88,11.67-65.25,15.34-113.33,40.29-150.98Z" style="fill:#20386f; fill-rule:evenodd;"/><path d="M1445.2,641.73c-5.29,19.7-19.3,24.4-41.96,14.1l5.08,11.11c7.53,5.4,17.62,10.61,30.27,15.54,1.58,3.91,3.11,7.84,4.59,11.78,8.92,3.24,16.79,1.23,23.61-6.05-1.04-4.06-2.09-7.86-3.13-11.4,.15-5.73-1.3-15.63-8.25-26.54-2.97-1.36-6.38-4.21-10.22-8.54Z" style="fill:#f9af79; fill-rule:evenodd;"/><path d="M1403.24,655.83c18.56,5.05,32.57,.38,41.96-14.1,.55-.8,1.04-1.65,1.56-2.54-.49-5.75,.38-14.29,2.52-25.61-8.53-4.91-16.08-16.92-22.7-36-5.52,2.3-10.77-.92-15.76-9.69-7.36,16.52-19.07,25.82-35.11,27.92,4.18,11.76,4.97,22.02,2.48,30.82,9.9,8.95,16,17.96,18.22,26.98,2.33,.88,4.61,1.63,6.82,2.23Z" style="fill:#f9af79; fill-rule:evenodd;"/><path d="M1408.32,666.94l-5.08-11.11c-2.2-.6-4.48-1.35-6.82-2.23,.21,.87,.4,1.7,.53,2.57,2.73,3.69,6.53,7.27,11.37,10.77Z" style="fill:#466fb5; fill-rule:evenodd;"/><path d="M1445.2,641.73c3.84,4.33,7.25,7.17,10.22,8.54-2.26-3.54-5.08-7.19-8.62-10.82-.04-.08-.04-.17-.04-.26-.53,.89-1.02,1.74-1.56,2.54Z" style="fill:#466fb5; fill-rule:evenodd;"/><path d="M1370.48,678.45c2.79,.97,5.46,1.72,8.02,2.23,5.1-5.94,9.68-9.87,13.74-11.82,2.03-3.05,3.61-7.29,4.71-12.69-.13-.87-.32-1.7-.53-2.57-2.22-9.02-8.32-18.03-18.22-26.98,2.49-8.8,1.69-19.06-2.48-30.82,16.04-2.1,27.75-11.4,35.11-27.92,4.99,8.76,10.24,11.98,15.76,9.69,6.63,19.09,14.18,31.09,22.7,36-2.15,11.32-3.01,19.86-2.52,25.61,0,.09,0,.19,.04,.26,6.06,1.53,12.26,3.7,18.54,6.48,1.41-.28,3.73-.58,6.89-.9-3.07-3.76-6.53-9.56-10.37-17.39,2.52-6.33,2-14.51-1.58-24.52-6.89-43.05-24.13-59.32-51.77-48.83-26.09-9.54-42.81,5.83-50.15,46.13-13.2,10.2,9.19,39.01,10.34,57.16-.15,8.39,.45,15.35,1.79,20.88Z" style="fill:#1b2452; fill-rule:evenodd;"/><path d="M1463.67,676.8c5.37,3.5,9.79,7.08,13.25,10.71,.15-13.99-4.01-27.98-12.39-41.96-6.02-2.6-11.94-4.62-17.73-6.1,3.54,3.62,6.36,7.28,8.62,10.82,6.95,10.9,8.4,20.8,8.25,26.54Z" style="fill:#466fb5; fill-rule:evenodd;"/><path d="M1429.11,705.39c2.65-10.03,5.82-17.67,9.49-22.91-12.65-4.93-22.74-10.14-30.27-15.54-4.84-3.5-8.64-7.08-11.37-10.77-1.09,5.39-2.67,9.64-4.71,12.69,12.1,19.46,24.38,31.63,36.86,36.53Z" style="fill:#466fb5; fill-rule:evenodd;"/><path d="M1458.96,1320.67c6.01,9.11,14.68,29.82,29.14,36.97,5.35-1.66-.34-7.1,3.46-9.38-4.78-11.18-7.34-25.04-7.64-41.53-6.81,2.82-14.36,2.94-22.68,.34-.58,4.48-1.34,9.02-2.28,13.59h0Zm-44.24-6.51c.83,8.13,.68,14.8-.49,19.99,4.97,10.11,11.3,27.22,22.55,33.59,4.59-1.66,.6-6.93,3.92-9.26-3.88-11.6-5.05-27.22-3.48-46.84-6.51,2.64-14.03,3.46-22.5,2.52Z" style="fill:#f9af79; fill-rule:evenodd;"/><path d="M1403.24,655.83c20.88,13.46,43.3,8.46,41.96-14.1-9.39,14.48-23.4,19.16-41.96,14.1Z" style="fill:#ed7d57; fill-rule:evenodd;"/><path d="M1498.23,462.03c8.11,12.56,9.9,10.7,10.88,12.4,1.19,1.88,.26,32.22,.26,32.22l-.11,3.5c7.85,3.29,18.6,4.21,24.94,3.37,0-10.71,.41-30.67,.36-31.8,0,0,3.93-13.01,6.14-21.26,2.18-8.26,.6-17.06,.87-19.49,.02-.34,.47-8.48-1.73-18.57-1.86-8.76-4.07,.34-4.07,.34,0,0,.53,16.81-.77,16.6-1.05-.13-.79-9.31-2.77-18.99-.49-2.51-1.02-4.92-1.52-7.15-1.26-5.91-5.21-6.87-4.91-.45,.15,2.25,.45,5.98,1.05,8.61,.6,2.89,.24,5.71,.43,8.19,.34,4.9,.62,8.52,.41,8.42-.25-.17-.88,.88-1.49-1.76-.75-3.14-.87-10.19-2.3-14.78-.83-2.6-2.22-8.07-2.22-8.07,0,0-3.24-8.69-3.78-8.59-2.88,.28-2.32,7.17-.73,10.49-.13,2.69,1.51,8.41,1.51,8.41,0,0,.72,12.38-1.04,12.49-1.45,.13-8.83-29.15-11.69-28.69-2.33,.43-.53,9.35-.53,9.35,0,0,1.52,5.32,1.88,7.12,.41,2.12,1.21,8.58,1.21,8.58,0,0,1.79,22.43,.11,22.43s-5.91-1.8-6.48-3.16c-.6-1.37-.38-4.42-.98-5.71-.6-1.38-2.56-2.64-4.25-2.08-1.73,.64-1.36,8.25-1.36,8.25,0,0,.32,6.18,2.67,9.8Z" style="fill:#f9af79; fill-rule:evenodd;"/><path d="M1519.83,468.77c-1.68-6.46-5.18-11.18-11.2-13.84,7.53-.15,12.41,7.6,11.2,13.84Z" style="fill:#f48661; fill-rule:evenodd;"/><path d="M1289.6,538.88c-1.69,14.84-4.14,13.99-4.25,15.92-.19,1.76,8.74,19,12.43,26.05-1.84,11.94-8.47,17.13-19.92,15.6-4.91-9.82-11.73-22.96-12.11-23.82,0,0-9.28-9.94-14.93-16.34-5.63-6.46-8.08-15.03-9.39-17.11-.17-.3-4.16-7.4-6.65-17.43-2.22-8.67,3.77-1.5,3.77-1.5,0,0,6.97,15.31,8.06,14.56,.87-.57-3.43-8.72-5.95-18.25-.64-2.48-1.24-4.87-1.79-7.1-1.45-5.85,1.67-8.48,4.2-2.58,.9,2.09,2.26,5.57,2.9,8.2,.72,2.84,2.28,5.24,3.22,7.53,1.9,4.55,3.24,7.92,3.35,7.73,.15-.25,1.19,.39,.57-2.23-.7-3.16-3.75-9.51-4.46-14.26-.43-2.7-1.58-8.23-1.58-8.23,0,0-.94-9.21-.42-9.38,2.69-1.04,5.25,5.39,5.29,9.08,1.3,2.35,2.35,8.2,2.35,8.2,0,0,4.86,11.4,6.48,10.75,1.37-.53-4.97-30.06-2.22-30.89,2.3-.66,4.63,8.14,4.63,8.14,0,0,.98,5.43,1.47,7.21,.53,2.07,2.67,8.22,2.67,8.22,0,0,8.34,20.92,9.85,20.16,1.49-.73,4.5-4.23,4.42-5.71-.08-1.48-1.64-4.11-1.68-5.55-.06-1.49,1.11-3.48,2.9-3.73,1.83-.19,4.88,6.8,4.88,6.8,0,0,2.45,5.69,1.92,9.98Z" style="fill:#f9af79; fill-rule:evenodd;"/><path d="M1273.24,554.48c-1.37-6.53-.34-12.32,3.92-17.38-6.83,3.18-7.78,12.3-3.92,17.38Z" style="fill:#f48661; fill-rule:evenodd;"/><path d="M1078.15,1316.13l1.9,33.34c.68,4.2,3.41,14.63,3.41,18.49,0,14.44-64.16-12.2-49.81-18.64,1.34-.56,10.17-8.21,10.58-13.14,.66-7.57,.34-19.56,.34-19.56l33.59-.49Z" style="fill:#f9af79; fill-rule:evenodd;"/><path d="M1033.84,1349.17s15.06,4.42,22.76,5.52c7.74,1.15,17.9-8.15,23.38-5.67,5.97,2.79,6.4,34.56,6.4,34.56,0,0-78.99,6.01-99.21,.23-9.09-2.66,15.87-24.36,46.67-34.64Z" style="fill:#0e2952; fill-rule:evenodd;"/><path d="M954.43,1316.13l1.88,33.34c.72,4.2,3.43,14.63,3.43,18.49,0,14.44-64.2-12.2-49.78-18.64,1.28-.56,10.13-8.21,10.58-13.14,.64-7.57,.3-19.56,.3-19.56l33.59-.49Z" style="fill:#f9af79; fill-rule:evenodd;"/><path d="M910.11,1349.17s15.06,4.42,22.78,5.52c7.72,1.15,17.88-8.15,23.34-5.67,6.02,2.79,6.4,34.56,6.4,34.56,0,0-78.97,6.01-99.17,.23-9.11-2.66,15.85-24.36,46.65-34.64Z" style="fill:#0e2952; fill-rule:evenodd;"/><path d="M900.13,443.56c-2.07,16.28-4.67,15.21-4.84,17.36-.26,2.42,14.59,32.27,14.59,32.27,0,0,43.22,88.11,45.69,92.83l76.9,64.84-19.92,47.84s-81.86-72.76-85.51-77.33c-3.61-4.58-48.65-130.54-52.94-141.46,0,0-9.81-11.21-15.74-18.5-5.93-7.21-8.49-16.7-9.83-19.06-.23-.3-4.33-8.22-6.93-19.36-2.22-9.56,4.12-1.42,4.12-1.42,0,0,7.21,17,8.42,16.22,.9-.66-3.54-9.72-6.1-20.28-.68-2.72-1.3-5.36-1.9-7.87-1.49-6.42,1.94-9.19,4.54-2.64,.94,2.28,2.37,6.14,3.05,9.06,.72,3.15,2.32,5.79,3.31,8.38,1.96,5.05,3.29,8.77,3.46,8.56,.21-.21,1.28,.5,.68-2.42-.75-3.43-3.92-10.58-4.63-15.79-.39-2.92-1.58-9.06-1.58-9.06,0,0-.11-9.56,.41-9.79,2.97-.99,4.84,5.56,4.88,9.65,1.3,2.56,2.37,9.06,2.37,9.06,0,0,5.05,12.64,6.8,12,.75-.3-1.43-8.42-2.39-16.72-.87-7.69-.53-15.62,.92-15.99,2.48-.71,4.33,7.79,4.33,7.79,0,0,.98,6.01,1.47,7.92,.55,2.36,2.71,9.14,2.71,9.14,0,0,8.7,23.21,10.3,22.43,1.6-.79,4.88-4.5,4.82-6.15-.04-1.57-1.68-4.57-1.71-6.14-.08-1.65,1.22-3.78,3.16-4.01,1.94-.21,5.12,7.66,5.12,7.66,0,0,2.54,6.34,1.96,10.98Z" style="fill:#f9af79; fill-rule:evenodd;"/><path d="M1286.99,474.9c-.9,16.35,1.79,15.86,1.6,17.92-.19,2.5-20.18,29.06-20.18,29.06,0,0-58.47,78.92-61.8,83.06l-87.37,49.82,10.92,50.7s93.68-56.75,98.1-60.63c4.39-3.77,71.48-119.53,77.73-129.52,0,0,11.67-9.2,18.83-15.26,7.13-6.01,11.37-14.95,13.12-16.93,.26-.29,5.74-7.35,10.32-17.78,3.93-9.01-3.8-2.23-3.8-2.23,0,0-10.18,15.43-11.2,14.44-.79-.79,5.21-8.86,9.68-18.78,1.17-2.57,2.24-5.07,3.24-7.44,2.69-6.07-.19-9.42-3.95-3.43-1.32,2.08-3.44,5.64-4.63,8.37-1.28,2.99-3.33,5.28-4.74,7.64-2.86,4.64-4.88,7.97-5.01,7.77-.15-.28-1.32,.3-.19-2.48,1.36-3.29,5.72-9.65,7.38-14.65,.94-2.86,3.2-8.63,3.2-8.63,0,0,1.88-9.43,1.36-9.71-2.67-1.57-5.72,4.56-6.51,8.58-1.75,2.26-3.99,8.5-3.99,8.5,0,0-7.25,11.47-8.85,10.56-.68-.43,2.94-8.08,5.38-15.99,2.26-7.44,3.35-15.28,2-15.94-2.32-1.06-5.67,6.85-5.67,6.85,0,0-2.05,5.71-2.88,7.59-.98,2.21-4.35,8.42-4.35,8.42,0,0-12.74,21.35-14.18,20.26-1.43-1.06-3.99-5.34-3.63-6.91,.36-1.57,2.5-4.21,2.82-5.78,.34-1.58-.51-3.93-2.41-4.52-1.86-.49-6.42,6.57-6.42,6.57,0,0-3.63,5.79-3.9,10.5Z" style="fill:#f9af79; fill-rule:evenodd;"/><path d="M1059.57,892.83s-97.22,231.35-100.81,252.14c-2.64,15.27,.77,188.28,.77,188.28l-45.95-.72-16.15-197.71,60.51-249.33,101.64,7.34Z" style="fill:#0e2952; fill-rule:evenodd;"/><polygon points="1102.32 903.69 1058.01 1160.61 1086.94 1332.53 1034.61 1332.53 993.47 1147.68 987.82 945.11 1009.02 879.91 1102.32 903.69" style="fill:#20386f; fill-rule:evenodd;"/><path d="M975.32,598.72s-11.47,51.77-19.54,59.84c0,0,41.1,27.42,39.2,38.35-1.92,10.84-45.52,214.2-45.52,214.2,0,0,89.76,46.76,145.6,39.29,0,0,42.06-231.73,52.9-242.57,10.9-10.86,44.66-28.07,44.66-28.07,0,0-25.23-48.48-25.23-57.13,0,0-59.96,27.92-70.07,37.99-10.13,10.13-29.75-2.64-34.45-4.72,0,0-80.31-52.74-87.54-57.18Z" style="fill:#6d96ce; fill-rule:evenodd;"/><path d="M1089.41,613.5l7.61,47.55s-19.96,33.22-35.92,28.28c-13.37-4.14-12.22-30.41-12.22-30.41,0,0,7.29-27.07,5.1-40.7-2.2-13.57,35.43-4.72,35.43-4.72Z" style="fill:#f9af79; fill-rule:evenodd;"/><path d="M1053.98,618.22c-2.2-13.57,35.43-4.72,35.43-4.72l.58,4c-1.07,2.65-2.43,4.92-4.05,6.7-8.41,8.93-21.54,14.36-32.89,14.8,1.11-7.36,1.83-15.22,.92-20.78Z" style="fill:#f27458; fill-rule:evenodd;"/><path d="M1095.58,545.66c1.05-.36,8.51,54.63-5.65,69.77-14.16,15.15-41.72,20.07-51.62,8.14-10.96-13.15-10.39-72.27,11.62-87.83,22.01-15.56,45.65,9.92,45.65,9.92Z" style="fill:#f9af79; fill-rule:evenodd;"/><path d="M1094.3,515.39c7.72,.93,21.2,11.64,32.08,29.49,13.29,21.92-3.43,48.84-18.96,60.75-15.53,11.87-15.19,25.71-15.19,25.71l-2.56-7.13c-1.83-5.42-2.56-11.12-1.96-16.77,.38-3.43,1.09-7.08,2.52-10.13,3.73-7.94-8.02-13.22-11.3-19.84-2.56-5.09-2.69-16.8-6.66-25.23l-4.78-6.42s-13.48,1.21-21.78-6.06c-23.83-20.93,12.56-48.57,48.59-24.36Z" style="fill:#0e2952; fill-rule:evenodd;"/><path d="M1079.66,587.23c-.13,6.7,2.94,12.21,6.85,12.27,3.88,.09,7.15-5.28,7.25-11.98,.11-6.72-2.96-12.21-6.85-12.28-3.9-.08-7.14,5.28-7.25,12Z" style="fill:#f9af79; fill-rule:evenodd;"/></svg>