<?xml version="1.0" encoding="UTF-8"?><svg id="a" xmlns="http://www.w3.org/2000/svg" viewBox="0 0 2197.76 1541.34"><path d="M1124.7,0c-248.29,0-352.91,177.69-532.14,315.81C355.3,498.59,118.07,379.59,80.09,997.18c-33.82,549.64,388.07,59.46,982.87,256.35,594.8,196.89,1200.66,276.17,1020.81-360.85C1904.08,255.66,1701.56,0,1124.7,0Z" style="fill:#e0e8f5; fill-rule:evenodd;"/><polygon points="1630.3 41.49 1727.94 81.52 1701.1 115.68 1630.3 41.49" style="fill:#c4d1eb; fill-rule:evenodd;"/><polygon points="1741.66 65.32 1633.31 41.65 1768.27 51.52 1741.66 65.32" style="fill:#c4d1eb; fill-rule:evenodd;"/><polygon points="1741.66 65.32 1739.2 110.28 1727.94 81.52 1630.3 41.49 1633.31 41.65 1741.66 65.32" style="fill:#9db2d9; fill-rule:evenodd;"/><polygon points="1739.2 110.28 1716.06 96.63 1727.94 81.52 1739.2 110.28" style="fill:#859ac6; fill-rule:evenodd;"/><path d="M1764.26,106.97c-3.16-.39-2.39-5.01,.54-4.7l4.63,.54c3.16,.39,2.47,5.01-.46,4.7l-4.7-.54h0Zm160.1,186.09c2.09,0,3.09,2.62,1.7,4.01-.39,.39-1,.69-1.7,.69h-3c-3.09,0-3.09-4.7,0-4.7h3Zm-16.89-.38c2.78,0,3.08,4.7-.31,4.7l-4.7-.31c-3.32-.46-2.39-5.01,.39-4.7l4.63,.31h0Zm-18.43-1.77c2.85,.39,2.54,5.09-.69,4.63l.69-4.63h0Zm-17.89-3.93c2.78,1.08,1.7,5.24-1.46,4.47-1.54-.46-3.08-1-4.55-1.62-2.85-1.23-1.16-5.4,1.77-4.4,1.39,.62,2.78,1.08,4.24,1.54h0Zm-15.89-7.94c2.39,2-.69,5.55-2.93,3.62-1.31-1.08-2.54-2.24-3.7-3.47-2.08-2.54,1.62-5.4,3.47-3.08,1,1.08,2,2.01,3.16,2.93h0Zm-8.71-14.19c.31,3.31-4.32,3.55-4.63,.77-.31-1.7-.54-3.32-.62-5.01,0-3.24,4.7-3.09,4.7-.08,.08,1.46,.23,2.85,.54,4.32h0Zm1.23-17.51c-.77,2.78-5.32,1.85-4.55-1.31,.38-1.47,.85-3.08,1.39-4.63,1.16-3.01,5.48-1.16,4.4,1.54-.46,1.46-.92,2.85-1.23,4.4h0Zm6.4-17.2c-1.16,2.7-5.48,1-4.24-1.93,.69-1.47,1.39-2.93,2-4.32,1.77-3.01,5.55-.31,4.24,2.08-.69,1.39-1.31,2.78-2,4.16h0Zm8.4-16.58c-1.7,2.78-5.55,.31-4.16-2.24l2.16-4.16c1.7-2.78,5.63-.31,4.17,2.24-.77,1.39-1.47,2.78-2.16,4.16h0Zm8.64-16.66c-1.62,2.93-5.55,.31-4.17-2.08l2.08-4.17c1.62-2.85,5.4-.77,4.24,2l-2.16,4.24h0Zm7.71-17.5c-1.08,2.77-5.25,1.7-4.48-1.47,.46-1.47,.85-2.85,1.23-4.32,.77-3.01,5.32-1.85,4.55,1.16-.39,1.54-.85,3.08-1.31,4.63h0Zm2.31-19.44c.39,3.09-4.32,3.63-4.62,.62-.15-1.46-.46-2.93-.77-4.32-.77-3.01,3.7-4.16,4.47-1.16,.38,1.62,.69,3.24,.92,4.86h0Zm-7.25-18.35c1.85,2.62-2.01,5.24-3.7,2.78-.93-1.23-1.85-2.31-2.78-3.47-2.16-2.55,1.62-5.32,3.4-3.09,1.08,1.16,2.16,2.47,3.09,3.78h0Zm-14.11-13.34c2.39,1.77,.23,5.55-2.54,3.93-1.39-.85-2.62-1.7-3.86-2.47-2.62-1.46-.46-5.55,2.31-4.01,1.39,.85,2.78,1.7,4.09,2.54h0Zm-16.89-8.95c2.86,1.23,.93,5.47-1.85,4.32-1.39-.62-2.77-1.16-4.24-1.77-2.86-1-1.31-5.4,1.62-4.32,1.54,.54,2.93,1.16,4.47,1.77h0Zm-17.97-6.25c2.86,.7,1.93,5.32-1.31,4.47l-4.47-1.23c-2.93-.69-1.85-5.32,1.23-4.47l4.55,1.23h0Zm-18.36-4.55c3.24,.85,1.77,5.32-.92,4.63l-4.55-.93c-3.01-.69-2.31-4.94,.85-4.55l4.63,.85h0Zm-18.59-3.24c2.93,.39,2.47,5.01-.69,4.63l-4.55-.69c-3.01-.31-2.62-5.01,.62-4.63l4.62,.69Z" style="fill:#859ac6; fill-rule:evenodd;"/><path d="M827.62,267.07h711.29c-5.17-21.59-24.52-37.63-47.74-37.63-1.08,0-2.16,0-3.31,.08-11.19-27.46-38.25-46.89-69.79-46.89-13.73,0-26.69,3.78-37.79,10.26-13.57-44.73-55.14-77.27-104.27-77.27-10.03,0-19.74,1.31-28.92,3.85-23.83-52.52-76.66-89.08-138.04-89.08-72.84,0-133.69,51.44-148.23,119.92-1.23,0-2.47-.08-3.7-.08-46.66,0-85.14,34.94-90.85,80.05-19.05,3.55-34.2,18.12-38.64,36.79Z" style="fill:#fff; fill-rule:evenodd;"/><path d="M566.57,463.96c-26.84,25.37-39.02,55.68-36.55,91,63.43,43.19,96.21,83.6,98.4,121.31-74.54-66.32-130.53-66.09-155.75-25.37,18.63,22.52,31.62,100.18,27.15,135.89-7.94,63.16,9.25,119.85,56.95,141.13,10.95,24.53,22.44,37.4,34.47,38.79-11.53,70.72-21.29,142.52-29.19,215.4,8.06,4.09,19.63,3.62,25.76-.46,2.47-28.46,4.28-48.43,6.09-61.93,4.94-52.83,10.41-103.96,16.54-153.39,2.93-.39,5.86-.85,8.79-1.47,55.76-11.72,34.4-46.5,85.45-56.99,31.39-6.48,59.96-33.01,67.1-56.68-32.7-10.33-73.88-21.36-115.64-13.5,21.71-30.54,65.78-28.23,125.59-20.82,22.56-43.96,54.64-39.95,41.92-108.66-17.7-95.71,44.96-122.31,23.87-237.53-30.81-11.72-71.57-10.34-122.31,4.09,21.52-31.85,62.35-45.04,122.55-39.56-12.49-33.78-12.42-77.43-6.48-96.02-22.33-16.2-44.92-16.12-67.79,.23,10.26-17.51,23.48-27.53,39.72-30.08-.77-14.96-7.25-31.77-19.36-50.28-20.01,.46-42.22,4.94-66.59,13.34,11.11,7.33,14.73,20.44,10.8,39.41-13.38-15.66-33.08-20.9-59.15-15.66-5.51,68.41-66.17,96.17-67.21,125.63,35.71,31.54,56.65,65.78,62.78,102.95-36.4-31.23-72.38-51.44-107.89-60.77Z" style="fill:#b0c2e4; fill-rule:evenodd;"/><path d="M562.06,1182.11c7.91-72.88,17.66-144.68,29.19-215.4,41.22-267.15,113.14-543.16,175.76-658.61-83.52,196.89-141.25,467.51-173.1,811.62-1.81,13.5-3.62,33.47-6.09,61.93-6.13,4.08-17.7,4.55-25.76,.46Z" style="fill:#9db2d9; fill-rule:evenodd;"/><path d="M668.06,291.67c25.91,33.01,34.47,69.25,25.68,108.59-78.74,37.87-122.54,77.81-131.41,119.92,95.17-62.01,158.18-52.29,179.65-2.16-24.8,22.21-52.64,107.43-53.68,148.46-1.77,72.42-30.77,133.27-88.15,149.15-16.46,25.76-31.62,38.33-45.39,37.79,.96,81.59-.31,164.11-3.82,247.48-9.75,3.31-22.67,.85-28.88-4.86,2.04-32.39,3.43-55.3,3.62-70.72,3.51-60.39,6.01-118.92,7.52-175.53-3.28-.93-6.48-2.01-9.64-3.16-60.81-22.67-30.85-58.23-86.53-78.74-34.28-12.57-61.93-47.28-65.9-75.27,38.6-6.02,86.8-11.41,132.49,4.55-19.28-38.02-69.25-42.96-137.85-44.88-17.93-53.21-54.76-54.22-28.77-129.41,36.25-104.81-29.77-145.37,13.57-271.54,36.67-7.87,82.37,.62,137.04,25.37-18.82-39.49-62.55-61.31-131.26-65.32,19.82-35.94,27.11-85.06,23.6-107.04,27.92-14.42,53.33-10.49,76.27,11.8-8.52-21.44-21.75-35.01-39.6-40.56,3.47-16.73,13.61-34.55,30.38-53.37,22.48,4.01,46.7,12.72,72.69,26.38-13.77,6.32-20.01,20.51-18.86,42.57,17.7-15.42,40.8-17.97,69.29-7.64-5.44,77.97,58.11,119.62,54.25,152.93-45.54,29.38-74.92,64.47-88.15,105.27,46.27-29,90.23-45.66,131.8-50.05Z" style="fill:#c4d1eb; fill-rule:evenodd;"/><path d="M550.95,1100.9c3.51-83.37,4.78-165.89,3.82-247.48-.96-307.79-35.05-630.7-85.88-771.37,60.58,235.91,79.51,550.34,56.8,943.27-.19,15.42-1.58,38.33-3.62,70.72,6.21,5.71,19.13,8.17,28.88,4.86Z" style="fill:#b0c2e4; fill-rule:evenodd;"/><path d="M585.93,1150.03c-114.6,0-207.46,20.82-207.46,46.66s92.85,46.66,207.46,46.66,207.49-20.9,207.49-46.66-92.89-46.66-207.49-46.66Z" style="fill:#c4d1eb; fill-rule:evenodd;"/><path d="M479.89,1013.76h201.83c9.06,0,16.5,7.4,16.5,16.5v46.27c0,9.1-7.44,16.5-16.5,16.5h-201.83c-9.06,0-16.47-7.4-16.47-16.5v-46.27c0-9.1,7.4-16.5,16.47-16.5Z" style="fill:#b0c2e4; fill-rule:evenodd;"/><polygon points="481.7 1093.04 679.94 1093.04 660.47 1195.53 501.13 1195.53 481.7 1093.04" style="fill:#b0c2e4; fill-rule:evenodd;"/><polygon points="679.94 1093.04 481.7 1093.04 485.21 1111.62 676.43 1111.62 679.94 1093.04" style="fill:#9db2d9; fill-rule:evenodd;"/><path d="M1467.58,599.46c6.32,3.86,8.17,5.17,10.25,7.4,1.31,1.39,2.78,3.24,5.48,6.32,2.39,2.7,2.93,3.32,3.7,4.47,1.39,2.08,2.39,5.32,4.01,9.1,2.39,5.71,4.62,7.02,3.7,9.33-.46,1.23-1.77,2.24-2.78,3.86-.92,1.54-1.23,3.32-2,5.55-1.08,.15-2.08,.23-3.08,.31l-5.63-7.94-2,13.81,4.86,1.93c3.78-2.31,6.25-2.24,9.33,1.93-1.16,1.47-2.85,3.55-4.63,5.4-1.23,1.23-2.39,2.31-3.86,2.62-.77,.16-1.62,.08-2.39-.15-3.55,2.08-6.56,2.47-10.03,3.32-2.47,.54-4.16,1.46-6.79,1.23-.85,0-2.16-.16-3.32-.31,1,2.47,.39,2.93-1.46,4.24-3.16-1.46-6.32-3.78-9.72-6.01-2.16-4.17-4.08-7.09-7.09-10.64-.15-5.63-.77-8.71-1.77-14.11-1-5.32-1.47-9.87-1.62-16.35-.38-16.2-1.69-8.56,1.93-25.37,2.55-11.95,1.62-14.42,2.39-31.16l22.67-.85c-3.08,8.64-2.93,21.82-.15,32.08Z" style="fill:#f9af79; fill-rule:evenodd;"/><path d="M1490.71,1045.14c-.62,5.4,0,10.8-2.47,17.05-12.72,2.62-21.59,1.85-34.55,1.16-8.25,5.78-14.5,10.72-33.7,14.11-11.26,1.93-31.7,1.23-39.26-2.93-2.78-1.46-4.63-3.55-4.63-6.48,0-3.47-.16-6.94,5.09-8.18,11.26-2.7,20.36-8.4,30.54-14.73-1.54-5.17,3.78-8.56,9.57-13.42,3.78-3.32,8.64-9.18,11.57-11.72l43.88,9.79,13.96,15.34Z" style="fill:#141313; fill-rule:evenodd;"/><path d="M1490.71,1045.14c-.62,5.4,0,10.8-2.47,17.05-12.72,2.62-21.59,1.85-34.55,1.16-8.25,5.78-14.5,10.72-33.7,14.11-11.26,1.93-31.7,1.23-39.26-2.93-2.78-1.46-4.63-3.55-4.63-6.48v-1.54c10.03,5.71,19.9,6.17,37.63,4.24,15.96-1.7,25.61-7.33,41.65-16.89,26.68,0,27.53,4.09,26.76-18.04l8.56,9.33Z" style="fill-rule:evenodd;"/><path d="M1621.36,1076.46c-2.62,6.94-8.41,9.95-22.06,13.88-7.63,2.23-22.98,2.31-27.22-2.39-3.47-3.78-5.24-13.27-4.4-19.9,1.23-9.79,14.34-26.61,14.19-44.81l34.24,1.7,6.94,12.18c-1.47,10.34,.46,33.93-1.7,39.33Z" style="fill:#141313; fill-rule:evenodd;"/><path d="M1621.36,1076.46c-2.62,6.94-8.41,9.95-22.06,13.88-7.4,2.16-22.21,2.31-26.84-2.01,15.19,3.24,40.1-3.31,42.26-24.29,1.23-11.18,.16-26.61,.69-39.17l.7,.08,6.94,12.18c-1.47,10.34,.46,33.93-1.7,39.33Z" style="fill-rule:evenodd;"/><path d="M1631.23,547.33c14.5,60.15,26.3,60.69,10.95,134.27l-36.4-51.75-.93-65.24,26.38-17.27Z" style="fill:#20386f; fill-rule:evenodd;"/><path d="M1639.09,626.99l-11.72-45.12,5.24-8.41,2.62-.69,11.72,37.87c-3.63,5.4-5.32,10.33-7.87,16.35Z" style="fill:#f9af79; fill-rule:evenodd;"/><path d="M1590.51,214.09l-1.7-19.43c2.93-2.78,4.94-4.7,6.48-7.02,4.16-6.4,6.71-7.87,9.25-6.01,1,.77,1.39,3.16,.77,6.17-1.08,5.24-4.4,13.11-5.4,17.74-.85,3.7-5.71,16.43-9.41,8.56Z" style="fill:#f9af79; fill-rule:evenodd;"/><path d="M1489.55,303.24l28.3-1.31,96.94-6.94,32.85-.23c-30.77,2.62-57.77-24.53-60.85-33.16-2.54-7.02-2.62-18.05-1.08-25.3l-28.07,.54-28.15-.54c3.86,32.31-10.57,54.37-39.95,66.94Z" style="fill:#f9af79; fill-rule:evenodd;"/><path d="M1592.74,266.84c-2.39-1.16-5.01-2.7-5.94-5.24-2.54-7.02-2.62-18.05-1.08-25.3l-28.07,.54-28.15-.54c.08,.31,.23,1.23,.39,2.39,.15,1,.31,2.16,.38,2.47,1.23,1.47,2.55,2.93,3.94,4.16,1.54,1.31,3.09,2.55,4.32,4.09,2.16,2.62,4.01,6.71,6.25,8.56,4.47,3.93,11.18,6.17,19.13,7.94,9.49,2.16,22.21,3.01,28.84,.93Z" style="fill:#ed7d57; fill-rule:evenodd;"/><path d="M1557.19,253.19h.46c5.86,.08,8.79-.08,11.95-1.39,3.08-1.31,4.55-4.32,8.79-8.41,3.62-3.47,10.03-7.02,11.65-10.8,2.16-5.09,1.23-10.8,2.62-18.82,1.08-6.4,4.08-12.03,4.4-18.43,.38-6.94-.69-13.88-.46-21.67,.23-7.64,.39-13.96-.54-19.36-.92-5.4-3.08-9.87-7.4-13.8h0c-2.47-2.16-5.24-4.01-8.25-5.55h-.08c-.23-.08-.46-.23-.61-.31l-.31-.15c-.15-.08-.31-.15-.46-.23-.15-.08-.31-.15-.46-.23-.16-.08-.39-.08-.54-.23-.16,0-.31-.08-.46-.15-.23-.08-.39-.15-.62-.23l-.39-.15c-.23-.15-.62-.23-.92-.31v-.08c-8.02-2.85-17.12-3.7-25.76-2.39-8.48,1.23-16.58,4.63-22.67,9.95-4.32,3.93-6.48,8.41-7.4,13.8-.92,5.32-.77,11.65-.46,19.2,.15,7.79-.93,14.73-.62,21.59,.39,6.4,3.39,12.03,4.4,18.43,1.31,8.02,.54,13.65,2.62,18.82,1.62,3.78,7.94,7.4,11.57,10.87,4.16,4.09,5.63,7.09,8.71,8.48,3.09,1.31,5.86,1.54,11.26,1.54Z" style="fill:#f9af79; fill-rule:evenodd;"/><path d="M1586.81,250.57c2,6.4,4.17,11.95,6.71,18.2,14.11,5.24,29.69,14.27,39.87,16.43,39.79,8.56,45.89,23.83,47.35,60.69,6.94,35.25,12.19,69.33,17.28,104.58,2.39,16.74,2.93,15.96,.31,34.16-5.71,41.03-11.34,62.85-32.85,100.26l-17.05,31.62c-14.11-9.87-17.35-33.08-16.58-46.27l7.4-13.65c4.47-28.77,2.93-55.22,6.94-84.06-5.94-49.97-14.03-49.74-19.59-112.67l-33.55,12.88-52.75,20.67-56.22,57.07,2.78,33.55c-3.62,15.04-5.86,40.03-8.33,53.75-1.7,9.56-2.16,19.05-3.78,28.92-.85,5.01-4.55,9.72-5.17,13.42-.62,4.55-1.23,9.25-2,14.11-19.28,7.32-13.73,5.32-29.15,19.2-.46-9.18-.77-18.2-1.08-27.22-.16-4.47-4.63-8.33-5.4-12.73-2.08-11.64,1.54-22.06,1.46-32.78-.23-26.37,.08-52.67,1.16-79.82,1.39-37.71,13.42-75.73,14.19-109.59-1.93-34.32,5.25-48.36,31.47-54.52,11.57-5.09,24.99-9.49,39.95-17.43l6.48-18.28c6.63,16.81,8.87,18.12,20.82,31.7,25.53-17.2,37.87-30.31,39.33-42.19Z" style="fill:#c4d1eb; fill-rule:evenodd;"/><path d="M1634.31,339.26l1.85,5.71c.15,22.67-3.32,45.19-1.46,68.33,4.78,58.69-1,85.61-3.78,120.08l-2.47,26.38-121.7,15.35c-4.17-11.88-9.18-22.29-12.72-34.32,.54-26.3-10.03-47.27-14.27-92.08-3.7-38.02-6.17-65.63,5.86-99.87l48.89-2.93,99.79-6.63Z" style="fill:#c4d1eb; fill-rule:evenodd;"/><path d="M1494.03,540.77c.38-16.97-3.94-31.7-8.18-52.13-3.01,15.19-5.01,36.79-7.32,49.13-1.7,9.56-2.16,19.05-3.78,28.92-.85,5.01-4.55,9.72-5.17,13.42-.62,4.55-1.23,9.25-2,14.11-1.7,.69-3.16,1.23-4.48,1.77,.31-5.47,.93-10.26,2.31-17.35-5.86,1.39-7.09,.93-12.96,.93,23.37-5.71,15.27-28.15,18.67-52.83,3.93-28.38,7.25-53.37,7.56-88.61-2.93-32.78-3.86-58.38,6.94-89.31h3.55c-11.65,33.78-4.47,60.77-.77,98.48,.15,1.7,7.71,42.65,5.63,93.47Z" style="fill:#b0c2e4; fill-rule:evenodd;"/><path d="M1630.92,339.72l-1.93,21.6c.23,22.67,4.55,28.61,6.4,51.75,2.77,33.78,3.39,66.48,2.31,86.14-.69,14.42-7.1,23.83-6.79,34.16l-2.47,26.38-14.88-23.75c19.28-13.57,13.8-72.65,9.33-98.64-2.62-15.42-3.08-28.69-3.39-41.34-.31-15.19,1.08-37.71,11.42-56.3Z" style="fill:#b0c2e4; fill-rule:evenodd;"/><path d="M1631.38,551.34c-8.4,32.54,11.18,71.26,15.73,86.76-.62,47.51-2,100.1-3.47,147.38-1.39,43.73-1.46,92.47-4.62,136.2-1.93,26.38-5.4,51.67-7.79,77.81-1.7,17.12,.31,30.69-5.17,49.74-13.42-16.89-24.68-20.51-50.83-12.96-11.95-36.01,5.86-79.36,7.56-119.31,.62-14.04,2-46.74,2-60.93-.15-27.22,3.09-30.23,0-60.08-1.16-7.09-2.39-14.03-3.7-20.82-6.94-37.48-14.88-76.27-26.45-114.99-14.27,48.43-30.85,101.95-44.12,150.7-1,17.04,.23,33.55-2.85,56.68-3.08,23.14-11.03,63.47-12.5,86.3-1.39,22.83,3.17,40.88,2.39,48.9-1.08,12.49-6.25,25.68-5.24,43.65-25.22,2.01-28.3-18.2-62.78-24.99,9.79-26.07,4.86-14.11,5.71-37.33,1.77-49.66,6.94-105.96,11.96-155.48-.31-15.96-1.7-21.98,0-37.94l9.18-81.6c4.16-30.15,5.78-63.24,10.56-96.4,10.18-19.43,16.81-37.25,25.37-57.53l40.8,4.32,92.93-7.64,5.32-.46Z" style="fill:#223f81; fill-rule:evenodd;"/><path d="M1554.88,661l-.23-.85c-14.27,48.43-30.62,99.1-43.88,147.77-.93,17.12-.15,32.55-3.24,55.68-3.08,23.13-11.41,67.56-12.8,90.39-1.47,22.75,4.16,39.02,3.39,47.12-1.08,12.49-6.79,27.3-5.78,45.27-6.56,.46-11.65-.46-16.12-2.31,7.25-14.89,8.64-30.7,9.48-41.34,1.39-16.89-5.17-25.91-5.01-33.47,.46-49.43,19.36-112.91,14.34-155.24,17.2-55.3,32.08-101.11,44.58-157.64,23.06-12.96,26.69-29.07,37.64-78.43-.31,7.02-.77,13.81-1.23,19.98-2.7,35.78-8.25,58.15-21.13,63.08Z" style="fill:#20386f; fill-rule:evenodd;"/><path d="M1586.88,251.26c4.24,9.02,8.87,17.35,11.96,20.2,.77,5.17-7.64,21.83-24.53,39.79,10.8-17.2,22.06-30.54,20.51-38.41-1.54-3.32-6.25-12.03-9.41-17.28l1.46-4.32Z" style="fill:#b0c2e4; fill-rule:evenodd;"/><path d="M1574.78,311.65c-7.79-9.1-10.95-14.73-20.52-22.44l-9.56,.85c-7.87,5.32-11.42,8.25-16.97,26.99l10.18-9.87,11.88-6.71,6.17,.93,6.25,3.32c4.16,1.85,8.64,4.55,12.57,6.94Z" style="fill:#b0c2e4; fill-rule:evenodd;"/><path d="M1554.26,289.59c4.17,3.16,5.55,5.24,9.72,10.02-2.7,5.01-5.17,7.02-8.48,11.49l-.15,5.63c-.31,49.2,3.93,106.43,5.48,155.71l-19.67,22.52-13.03-25.3c-1.16-43.57,6.94-109.13,13.03-157.17-1.54-3.55-3.39-9.25-6.17-11.72,3.7-5.78,5.86-7.79,10.34-11.34,0,0,8.17-.39,8.94,.16Z" style="fill:#6d96ce; fill-rule:evenodd;"/><path d="M1631.38,551.34c-8.4,32.54,11.18,71.26,15.73,86.76-.62,47.51-2,100.1-3.47,147.38-1.39,43.73-1.46,92.47-4.62,136.2-1.93,26.38-5.4,51.67-7.79,77.81-1.7,17.12,.31,30.69-5.17,49.74-2.54-3.24-5.17-6.09-7.71-8.41,.85-15.5,1.93-30.77,3.78-46.89,5.63-48.89,10.03-95.09,10.03-145.29,.08-63.93-.39-137.35,2.16-202.37-9.1-46.97-13.57-50.44-5.63-94.7l2.7-.23Z" style="fill:#20386f; fill-rule:evenodd;"/><path d="M1631.54,532.67c.23,7.4,.08,12.96,.54,20.36-51.37,16.5-113.45,16.2-139.28,2.39l.85-19.28c22.36,14.81,102.03,9.95,137.89-3.47Z" style="fill:#9c7357; fill-rule:evenodd;"/><path d="M1544.7,153.78c8.64-.77,14.19-3.55,22.98,.31,6.94-1,15.19-2.31,17.74,.54,1.7,1.85,3.16,4.86,1.31,11.26l3.16-3.16c1.7,7.48,2.32,9.79,1.93,17.51l3.86-2.93c-.38,13.19-1.85,16.27-2.39,28.69,5.78-9.79,3.08-21.59,9.25-25.99,1.16-15.35,1.54-16.2-1.77-31.78l3.78,2.08c-1.08-2.54-1.93-4.24-3.4-6.55,2.01,.31,3.55,1.39,5.71,3.62-4.09-7.64-11.26-10.88-16.81-18.51,2.78-.39,4.94,1.16,6.94,2.24-3.94-8.25-8.64-9.56-15.42-12.34,1.69-3.08,1.85-2.78,2.47-6.4-5.25,5.24-14.11,3.93-19.28,3.09,2.31-2,4.17-3.31,3.55-7.4-1.7,3.7-4.01,4.01-7.25,4.94l2.16-3.39c-6.02,4.01-10.95,5.4-17.74,7.87-4.4,1.85-19.9,10.57-20.98,3.32-1.39,3.39-.77,5.09,1.54,6.25-2.93,.15-4.32-.08-7.32-.46,1.31,.62,2.54,1.16,3.85,1.7-10.1,5.63-8.48,9.72-10.18,21.36,1.16-5.09,1.85-6.09,4.48-10.64-1.54,5.01-4.01,11.26-4.63,15.12-1,5.78,1.16,10.41,1.62,14.81,.15,2.08-1.23,4.16-.85,6.17,1,5.55,1.54,9.95,1.93,15.5,.62-3.62,1.08-6.25,1.23-9.87,1.39,6.48,.93,15.12,5.94,28.92-.77-6.48-.23-12.03-.23-17.97,.15-6.63-.08-13.65,.92-21.75,1.93-15.12,6.94-18.36,11.11-18.05,3.86,.31,8.48,2.08,10.8,1.93Z" style="fill:#20386f; fill-rule:evenodd;"/><path d="M1327.52,456.4c-60.7,25.6-80.21-30.15-78.74-28.69-1.16-1.23-10.26-5.4-16.12-8.33-24.3-12.11-39.02-40.49-38.48-68.87-34.9-21.82-32.74-57.45-8.79-82.83-7.36-28.3-2.62-86.92,25.53-83.83,36.71-65.4,103.19,2.7,102.18,95.17,29.92,12.72,44.12,42.96,37.33,76.97,40.33,33.93,39.1,74.42-22.9,100.41Z" style="fill:#20386f; fill-rule:evenodd;"/><path d="M1105.72,638.18l-10.37-2.7c.19-.77,19.86-80.59,40.84-160.1,12.38-46.73,22.75-84.22,30.85-111.29,15.96-53.6,19.51-55.14,22.59-56.45l4.09,10.18c.77-.31,1.16-.77,1.16-.77-2.62,2.93-12.53,24.99-49.63,165.96-20.48,77.74-39.33,154.4-39.53,155.17Z" style="fill:#9c7357; fill-rule:evenodd;"/><path d="M1456.01,635.86s-4.62-3.7-6.09-5.09c-1.7-1.54-6.4-6.79-6.4-6.79,0,0-15.73-18.66-14.19-19.82,1.46-1,5.94,.69,7.25,1.47,1.39,.85,3.08,1.7,4.47,2.54,1.39,.85,3.08,.39,4.24-1.16,1.16-1.7-3.63-6.17-5.63-7.33-6.01-3.78-24.37-10.57-26.22-11.41-2.31-.93-23.45-38.41-31.78-50.74h0c-12.95-20.52-25.29-42.26-26.68-44.5l-27.84-100.26-40.64-4.01s29.46,111.75,31.54,117.07c1,2.62,34.78,47.89,34.78,47.89,17.97,21.21,33.93,39.87,36.86,43.5,0,0,5.86,13.42,9.17,22.13,3.32,8.71,9.79,15.42,11.03,17.74,.15,.31,4.24,8.56,12.49,16.12,7.1,6.48,3.32-3.01,3.32-3.01,0,0-11.03-14.5-9.79-15.19,1.08-.54,6.63,7.71,14.34,15.04,2.08,1.85,4.01,3.7,5.86,5.4,4.86,4.4,8.94,2.62,4.62-2.78-1.54-1.93-4.16-5.01-6.32-7.02-2.31-2.08-3.85-4.86-5.55-6.94-3.39-4.17-5.86-7.1-5.71-7.17,.38,0,.31-1.31,2.47,.62,2.62,2.31,7.17,8.41,11.26,11.49,2.39,1.85,7.1,5.78,7.1,5.78,0,0,8.25,5.63,8.64,5.17,2.39-2.08-2.47-7.79-5.86-9.79-1.62-2.39-6.63-6.48-6.63-6.48,0,0-8.4-10.41-6.94-11.72,1.23-1,26.07,20.2,28.23,17.81,1.85-1.85-5.4-8.56-5.4-8.56Z" style="fill:#f9af79; fill-rule:evenodd;"/><path d="M1411.43,606.02s12.49,4.78,17.74-1.7c0,0-1.62,4.86-6.63,5.71-5.09,.93-11.11-4.01-11.11-4.01Z" style="fill:#f27458; fill-rule:evenodd;"/><path d="M1237.45,664.17l22.98,212.78s-11.26,44.96-9.87,57.76c1.31,12.73,24.99,180.39,24.99,180.39l-1.08,9.18-.62,27.3,88.46,.69s-18.59-8.64-44.65-25.76c-2-1.23-6.4-5.24-7.48-13.26-7.02-51.67,6.79-223.96,6.79-223.96l10.87-224.42-90.38-.7Z" style="fill:#f9af79; fill-rule:evenodd;"/><path d="M1187.16,704.5c-4.97,1.31-12.61,183.86-16.73,191.95-26.03,51.29-32.2,207.22-32.2,207.22l-10.76,21.83,2.47,21.05s19.44,11.57,33.09,3.78l-2.12-21.13-1.62-28.07,65.67-194.27,35.94-198.2-73.73-4.17Z" style="fill:#f9af79; fill-rule:evenodd;"/><path d="M1355.36,803.45l3.16-125.94c.54-35.63-10.95-69.8-24.99-102.19l-29.77-51.83c-9.72,3.08-14.96-26.22-24.99-25.06-7.71,.85-12.8,2.7-19.98,3.16-13.26,.77-21.36,27.69-35.63,25.99-.08,.85-8.87,4.24-9.1,4.78-6.86,19.05-24.3,39.49-33.55,96.02-10.53,64.17-10.49,174.45-9.18,181.93,100.8,4.62,124.86,8.25,184.01-6.86Z" style="fill:#20386f; fill-rule:evenodd;"/><path d="M1273.46,1158.59h91.23c3.39-.31,4.24-3.16,3.09-4.94-2.47-3.62-13.11-6.32-25.07-12.03-20.98,2.23-64.86-13.73-68.25-18.74-1.85,10.1-2.93,35.25-1,35.71Z" style="fill:#002923; fill-rule:evenodd;"/><path d="M1127.55,1125.43s8.1,23.91,16.85,23.21c8.75-.69,16.47-19.43,16.47-19.43,0,0,3.27,15.73,1.73,24.45-1.54,8.71-14.04,17.66-22.6,13.81-8.52-4.01-20.13-24.14-12.45-42.03Z" style="fill:#002923; fill-rule:evenodd;"/><path d="M1297.14,441.98s12.8-1.62,24.99-6.09c7.25-2.62,19.44-8.33,19.44-8.33,0,0-6.87-59.31-24.07-95.24-7.09-14.88-14.27-22.13-24.29-23.83l3.94,133.5Z" style="fill:#466fb5; fill-rule:evenodd;"/><path d="M1319.19,374.81c-2.47-9.64-8.25-22.29-11.57-31-5.55-14.89-7.25-28.69-12.18-34.63-2.62-3.16-36.71-2.7-40.88-3.16-1.69-.15-8.48,.31-15.11,.77h0c-3.86,.39-42.26,3.55-47.74,5.94-27.69,27.69-41.03,65.01-61.81,105.73,0,0,15.58,9.18,27.99,14.96,5.4,2.47,15.73,6.55,15.73,6.55l23.95-41.34c.23-.23,1.46-1.54,1.85-.69,.54,1.39,18.05,129.95,18.05,129.95,0,0,70.88,6.01,87.53-2.24,0,0,3.08-85.84,9.25-110.98,2.16-9.25,9.18-24.37,4.94-39.87Z" style="fill:#6d96ce; fill-rule:evenodd;"/><path d="M1234.82,267.3s5.32,29.92,4.24,41.72c-1,11.8,4.09,49.82,27.07,49.97,22.9,.15,7.33-39.49,5.09-51.13-2.16-11.49-5.63-56.22-5.63-56.22l-30.77,15.66Z" style="fill:#f9af79; fill-rule:evenodd;"/><path d="M1266.99,268.69c-.39-9.79-1.39-17.04-1.39-17.04l-30.77,15.66s1.08,6.17,2.16,13.88c13.5,2.93,24.14-3.39,30-12.49Z" style="fill:#ed7d57; fill-rule:evenodd;"/><path d="M1234.21,180.39s-12.96,4.7-20.05,19.05c-7.02,14.5-9.33,54.76,19.05,70.26,28.38,15.5,47.12-13.03,45.35-38.71-1.77-25.6-9.64-59.15-44.35-50.59Z" style="fill:#f9af79; fill-rule:evenodd;"/><path d="M1284.03,222.34c-1.77,6.4-6.02,10.8-9.41,9.64-3.47-1.08-4.78-7.1-3.08-13.5,1.85-6.48,6.02-10.87,9.49-9.79,3.47,1.08,4.86,7.25,3.01,13.65Z" style="fill:#f9af79; fill-rule:evenodd;"/><path d="M1216.62,235.06c2.54,6.4,1.31,13.11-2.7,15.04-4.01,1.85-9.33-1.77-11.8-8.18-2.47-6.4-1.23-13.19,2.78-15.12,4.01-1.85,9.25,1.77,11.72,8.25Z" style="fill:#f9af79; fill-rule:evenodd;"/><path d="M1208.06,637.71v40.8c0,21.21-14.96,38.56-33.39,38.56h-34.36v-95.32h53.95c3.7,0,7.02,1.62,9.48,4.47,2.7,2.85,4.32,6.94,4.32,11.49Z" style="fill:#9c7357; fill-rule:evenodd;"/><path d="M1203.74,626.22h-.23c-7.1,0-12.8,6.56-12.8,14.65v30.08c0,25.37-17.89,46.12-39.99,46.12h-20.9c-22.1,0-39.99-20.75-39.99-46.12v-29.92c0-10.57,7.52-19.28,16.77-19.28h87.65c3.7,0,7.02,1.62,9.48,4.47Z" style="fill:#e5bb9a; fill-rule:evenodd;"/><path d="M1208.14,636.87l-10.64-.08c0-.7,.31-76.5-.69-153.78-.54-45.42-1.54-82.44-2.78-109.97-2.16-47.12-4.78-55.53-5.48-56.92-.15-2.54,1.08-8.48,1.08-8.48,2-.77,4.09-.54,5.86,.62,2.7,1.93,4.47,5.63,6.17,20.13,1,9.1,1.93,21.98,2.77,38.25,1.39,27.3,2.31,64.63,3.01,111.13,1.08,79.2,.69,158.33,.69,159.1Z" style="fill:#9c7357; fill-rule:evenodd;"/><path d="M1261.82,564.3c1.39,.23,10.8,.77,10.8,.77,0,0,13.73-8.25,15.73-4.32,.62,1.16-14.27,9.72-14.27,9.72,0,0-14.42,.46-17.89,.31-6.4-.16-19.9-2.01-39.95-16.89-17.35-8.87-104.54-59.77-105.81-69.41-.77-5.71,12.49-35.63,25.33-62.7,5.71,3.24,14.5,8.02,22.13,11.64,3.58,1.62,9.41,4.01,12.88,5.4-8.37,16.04-16.23,32.62-15.19,36.02,.89,3.08,75.39,59.85,75.39,59.85l14.81-2.01s26.22,3.16,26.84,6.25c.69,3.08-11.03,2.31-12.57,2.78-.85,.23-2.62,.85-4.08,1.85,4.32,2.01,11.11,5.32,14.96,5.48,8.79,.31,18.97-1,20.13,.23,1.31,1.47-12.11,5.63-21.52,6.17-3.86,.23-6.17-.93-7.87-.62-2.31,.46,1.7,2.31,8.17,1.93,3.7-.23,10.03-2.24,14.11-2.85,6.71-.93,10.41-.46,10.95,.08,.92,1-18.9,7.33-18.9,7.33,0,0-12.88,1.7-15.89,1.54,0,0-1.69,.77,1.7,1.47Z" style="fill:#f9af79; fill-rule:evenodd;"/><path d="M1847.78,1481.34c-129.02,0-233.68,13.42-233.68,30s104.65,30,233.68,30,233.75-13.42,233.75-30-104.65-30-233.75-30Z" style="fill:#c4d1eb; fill-rule:evenodd;"/><path d="M446.14,1462.14c-240.31,0-435.12,16.58-435.12,37.1s194.81,37.17,435.12,37.17,435.16-16.66,435.16-37.17-194.81-37.1-435.16-37.1Z" style="fill:#c4d1eb; fill-rule:evenodd;"/><path d="M1961.38,1206.17c-130.56,0-236.45,15.19-236.45,33.94s105.89,33.85,236.45,33.85,236.38-15.11,236.38-33.85-105.81-33.94-236.38-33.94Z" style="fill:#c4d1eb; fill-rule:evenodd;"/><path d="M1918.73,659.15c3.78-4.86,8.87-8.48,13.96-11.65,1.39-.85,3.31-.31,4.08,1.16,4.01,7.4,7.71,14.96,12.19,21.98,1.54,2.31,3.62,5.4,5.55,6.79,.08,.08,.62,.31,.77,.46,0-.08,.08-.08,.16-.15,.31-.54,.54-1.16,.77-1.77,3.55-10.88-.77-22.44,2-33.39,1.47-5.78,5.17-11.8,9.33-16.04,4.55-4.63,10.57-6.71,13.34-12.96,.46-.93,1.23-1.39,2.08-1.39h.54c1.08,.08,2.08,.62,2.62,1.47,6.56,9.41,15.66,19.05,17.43,30.85,1.54,10.41-4.17,19.13-10.11,26.99-2.93,3.86-5.78,7.79-8.02,12.03-1.31,2.31-3.47,6.56-1.15,8.87,2.31,2.39,6.01-1.85,7.86-3.86,3.86-3.93,7.1-8.41,10.33-12.8,5.55-7.25,14.27-18.28,24.6-16.27,4.55,.85,6.4,5.55,6.63,9.64,.38,6.56-2.78,13.58-6.02,19.05-7.33,12.42-22.06,16.04-31.54,26.07-2.16,2.31-8.17,10.18-4.78,13.42,1.23,1.16,4.01,.77,5.48,.54,3.47-.54,7.33-1.85,10.1-4.01,10.65-8.25,14.5-22.6,25.76-30.38,4.94-3.47,12.49-5.55,18.43-4.17,5.01,1.23,7.33,5.94,7.56,10.72,.23,5.71-2.39,11.64-5.32,16.5-3.32,5.55-7.87,10.18-13.57,13.42-11.34,6.48-25.61,7.25-33.16,19.13-1,1.62-2.16,3.7-1.62,5.71,.39,1.47,2.54,2.01,3.78,2.31,5.86,1.23,13.5-.93,18.51-3.63,6.17-3.32,10.64-9.18,15.42-14.19,4.94-5.24,10.49-9.49,17.51-11.65,5.09-1.46,11.34-1.23,14.57,3.47,3.01,4.4,2.47,10.26,1.23,15.11-1.69,6.32-5.09,12.34-9.41,17.27-4.63,5.4-11.95,8.41-18.51,10.57-6.79,2.31-13.88,3.7-20.59,6.25-1.77,.7-3.17,1.16-5.17,1.31-2,.15-4.16,0-6.17,.54-1.7,.46-.62,2.31,0,3.54,1.39,2.93,5.86,2.86,8.64,3.09,2.7,.15,5.32,.85,8.02,.85,3.09,.08,6.09-.54,9.1-1,6.02-.85,12.34-1.93,18.28-.15,5.71,1.77,9.79,7.17,10.79,12.96,2.08,12.11-11.49,19.51-21.52,21.05-6.48,1-12.34-.39-17.97-3.62-7.02-3.93-12.49-9.64-20.59-10.64-.46,3.24,.62,5.78,3.54,8.25,3.94,3.31,9.41,5.09,14.19,6.86,9.33,3.47,23.13,6.63,28.15,16.35,.54,1.16,.46,2.62-.54,3.62-4.47,4.24-9.56,7.56-15.89,8.1-5.09,.38-10.18-2.08-14.42-4.86-7.48-4.94-13.96-12.73-22.44-16.27,1.16,2.16,3.08,3.62,5.48,5.47,4.24,3.24,6.4,7.79,7.56,12.96,1.77,7.71-.93,16.2-10.02,16.2-5.01,0-9.95-2.47-14.11-4.94-4.78-2.93-8.56-7.02-11.57-11.65-3.55-5.79-5.63-12.42-6.79-19.2-7.56,14.81-24.14,30.38-39.8,17.5-13.26-10.95,8.64-19.36,17.36-27.99-1.7,.69-3.4,1.54-4.94,2.39-4.55,2.31-8.95,4.94-13.65,6.79-8.79,3.62-18.66,3.24-23.98-5.79-4.55-7.87,4.86-11.49,10.72-13.19,4.63-1.47,13.57-3.01,16.96-7.71-11.72,1.23-24.68,2.7-34.7-4.01-4.47-3.09-10.03-8.95-10.49-14.65-.46-4.71,4.63-6.32,8.25-6.71,9.95-1,19.59,3.39,29.53,3.08,2.47-.08,4.78-.31,7.1-.85,.93-.23,1.77-.46,2.62-.77,.31-.16,.62-.46,.85-.62-.08-.15-.16-.31-.31-.46-.85-1-2.08-1.77-3.16-2.54-2.54-1.7-5.24-2.62-8.25-3.01-5.79-.62-11.57,.15-17.36-.85-6.48-1.16-11.72-4.86-16.04-9.72-3.85-4.32-7.48-9.79-8.02-15.58-.69-6.09,2.93-10.18,8.41-12.26,15.12-5.78,23.99,9.87,34.78,16.97,2.77,1.85,6.17,3.08,9.41,4.09,1.39,.38,5.24,1.77,6.55,.7,.77-.62-1.77-4.71-2.23-5.48-2.24-3.55-4.94-6.02-8.56-8.02-9.02-5.17-19.97-6.79-27.07-14.96-4.71-5.32-8.33-14.42-3.86-20.9,4.94-6.94,15.65-5.09,21.75-1,7.71,5.01,11.57,15.27,20.75,17.74,.85-4.4-.85-8.41-3.86-12.26-4.24-5.71-9.79-10.34-14.88-15.27-4.94-4.7-9.95-9.87-12.49-16.27-2.62-6.56-.93-13.19,3.24-18.66Z" style="fill:#9db2d9; fill-rule:evenodd;"/><path d="M1691,869.38c-1.46-5.94-1.16-12.18-.54-18.12,.15-1.62,1.85-2.86,3.39-2.54,8.33,1.46,16.5,3.24,24.83,4.09,2.78,.23,6.48,.46,8.79-.16,.15-.08,.62-.31,.77-.38v-.16c-.15-.62-.54-1.15-.92-1.69-6.32-9.49-18.04-13.34-24.99-22.29-3.62-4.78-6.01-11.34-6.79-17.28-.77-6.4,1.23-12.5-1.85-18.51-1.15-2.16,1.23-4.16,3.24-4.09,11.41,.69,24.68-.46,35.01,5.48,9.1,5.24,12.5,15.04,14.96,24.68,1.23,4.62,2.47,9.25,4.47,13.65,1.08,2.47,3.09,6.79,6.25,6.4,3.39-.31,2.24-5.86,1.85-8.48-.69-5.48-2.24-10.8-3.62-16.12-2.31-8.87-5.55-22.52,2.39-29.38,3.47-3.01,8.41-1.54,11.72,.77,5.32,3.78,8.87,10.56,11.18,16.5,5.25,13.42-1.08,27.22,.93,40.87,.46,3.16,3.01,12.73,7.71,12.03,1.54-.23,3.08-2.62,3.7-3.86,1.77-3.08,3.09-6.86,3.16-10.41,.08-13.49-8.71-25.45-7.94-39.1,.31-6.02,3.4-13.27,8.18-17.04,4.01-3.16,9.1-2.08,13.03,.7,4.7,3.31,7.71,9.1,9.72,14.34,2.23,6.09,3.08,12.57,2.08,19.05-1.85,12.88-10.11,24.6-5.48,37.87,.69,1.77,1.62,3.93,3.47,4.78,1.39,.62,3.16-.77,4.16-1.62,4.63-3.7,7.64-11.03,8.64-16.73,1.23-6.86-.62-14.04-1.54-20.82-1.08-7.17-1-14.11,1.7-20.98,1.85-4.94,5.94-9.64,11.72-9.33,5.24,.39,9.48,4.47,12.49,8.41,4.01,5.24,6.55,11.65,7.87,18.12,1.31,6.94-.85,14.58-3.16,21.05-2.39,6.79-5.71,13.19-7.87,20.05-.54,1.77-1.08,3.16-2.16,4.78-1.16,1.77-2.54,3.31-3.39,5.24-.69,1.62,1.46,1.85,2.77,2.16,3.16,.77,5.86-2.78,7.79-4.86,1.85-2.01,4.01-3.63,5.63-5.71,1.93-2.39,3.31-5.17,4.86-7.79,3.01-5.32,6.02-10.95,11.11-14.5,4.94-3.39,11.72-3.24,16.89-.46,10.88,5.86,8.25,21.05,3.24,29.92-3.16,5.71-7.94,9.41-13.96,11.88-7.4,3.09-15.35,3.86-21.13,9.57,2.23,2.47,5.01,3.16,8.64,2.39,5.09-1.08,9.87-4.24,14.19-6.86,8.64-5.25,19.51-14.11,30.23-12.03,1.39,.23,2.47,1.23,2.62,2.62,.54,6.17,0,12.26-3.55,17.43-2.85,4.32-7.87,6.87-12.65,8.41-8.64,2.85-18.67,3.08-26.69,7.56,2.39,.46,4.78-.16,7.64-.93,5.17-1.31,10.1-.15,14.88,2.08,7.17,3.4,12.11,10.72,6.48,17.89-3,3.94-8.1,6.33-12.65,8.02-5.09,2.01-10.8,2.39-16.19,1.85-6.79-.69-13.27-3.24-19.28-6.48,6.94,15.11,8.87,37.71-10.87,42.03-16.89,3.7-9.87-18.74-11.34-30.93-.46,1.77-.77,3.62-1.15,5.4-1,5.01-1.62,10.03-3.09,14.88-2.62,9.18-9.02,16.74-19.36,15.27-9.02-1.23-6.02-10.95-3.85-16.58,1.85-4.55,6.17-12.5,4.47-18.05-6.17,9.87-13.11,20.98-24.53,24.68-5.24,1.7-13.26,2.39-18.05-.77-4.01-2.54-2.16-7.56-.15-10.64,5.4-8.41,14.81-13.27,20.67-21.29,1.47-1.93,2.78-3.93,3.78-6.09,.39-.85,.7-1.69,.93-2.55,.08-.31,.08-.77,.08-1.08-.15,0-.31-.08-.54,0-1.31,0-2.7,.46-3.93,.85-2.93,1-5.32,2.47-7.4,4.71-4.09,4.16-7.1,9.1-11.49,13.03-4.86,4.4-11.11,6.25-17.5,6.63-5.79,.31-12.34-.23-17.28-3.32-5.16-3.32-6.09-8.71-4.4-14.19,4.86-15.5,22.59-12.73,34.78-16.81,3.24-1.08,6.32-3.01,9.1-4.94,1.16-.85,4.62-3.09,4.62-4.71,0-1-4.78-1.46-5.71-1.62-4.16-.46-7.79,.16-11.57,1.7-9.71,3.94-17.74,11.57-28.53,12.11-7.09,.39-16.5-2.39-18.82-10.02-2.47-8.02,5.71-15.35,12.65-17.66,8.79-2.85,19.13,.46,26.84-5.32-2.93-3.32-7.17-4.47-12.03-4.55-7.09-.15-14.19,1.39-21.28,2.31-6.71,.92-13.88,1.69-20.52-.31-6.79-2-10.95-7.4-12.57-14.11Z" style="fill:#9db2d9; fill-rule:evenodd;"/><path d="M2095.8,704.89c5.71-2.24,11.88-2.7,17.89-2.85,1.7,0,3.08,1.47,2.93,3.09-.31,8.41-1.08,16.73-.85,25.14,.08,2.78,.31,6.48,1.31,8.64,0,.15,.31,.62,.46,.85q0-.08,.08-.08c.62-.31,1.16-.69,1.62-1.16,8.64-7.48,10.95-19.66,18.97-27.61,4.17-4.16,10.49-7.48,16.19-8.95,6.25-1.62,12.5-.31,18.13-4.17,2.08-1.39,4.32,.7,4.47,2.7,.69,11.41,3.62,24.45-1,35.4-4.01,9.72-13.26,14.34-22.52,17.97-4.48,1.85-8.95,3.7-13.11,6.17-2.23,1.39-6.25,3.93-5.47,7.02,.77,3.32,6.09,1.47,8.71,.77,5.24-1.39,10.41-3.62,15.5-5.71,8.4-3.32,21.59-8.33,29.38-1.31,3.47,3.16,2.62,8.1,.77,11.8-3.08,5.79-9.41,10.1-14.96,13.19-12.65,6.86-27.15,2.39-40.41,6.09-3.08,.85-12.34,4.55-11.03,9.1,.46,1.54,3.01,2.7,4.39,3.24,3.24,1.31,7.17,2.16,10.64,1.77,13.42-1.62,24.14-11.88,37.79-12.8,6.02-.46,13.57,1.62,17.89,5.94,3.7,3.55,3.24,8.79,1.08,13.04-2.77,5.01-8.1,8.79-13.11,11.49-5.71,3.01-12.03,4.63-18.51,4.48-13.11-.31-25.76-6.94-38.25-.7-1.7,.85-3.86,2.08-4.4,4.01-.46,1.54,1.16,3.08,2.08,4.01,4.32,4.09,12.03,6.17,17.74,6.4,6.94,.38,13.88-2.39,20.44-4.24,7.02-1.85,13.96-2.7,21.06-.93,5.09,1.31,10.33,4.71,10.72,10.49,.39,5.25-3.16,9.95-6.71,13.5-4.71,4.71-10.8,7.94-16.97,10.03-6.78,2.16-14.57,1.08-21.28-.46-7.1-1.54-13.88-4.01-20.9-5.25-1.93-.31-3.31-.62-5.01-1.54-1.93-.93-3.7-2.08-5.71-2.7-1.7-.46-1.62,1.62-1.7,3.01-.46,3.32,3.47,5.48,5.78,7.1,2.16,1.62,4.09,3.54,6.4,4.94,2.62,1.54,5.55,2.62,8.33,3.78,5.55,2.31,11.57,4.7,15.73,9.25,4.01,4.47,4.7,11.11,2.62,16.58-4.4,11.57-19.9,10.95-29.3,7.09-6.02-2.47-10.34-6.71-13.57-12.42-3.94-6.94-5.71-14.65-12.11-19.67-2.08,2.47-2.47,5.32-1.31,8.87,1.69,4.86,5.48,9.25,8.64,13.19,6.32,7.79,16.5,17.58,15.73,28.46,0,1.31-.92,2.54-2.23,2.86-6.02,1.39-12.11,1.62-17.74-1.23-4.71-2.31-7.79-6.94-9.95-11.57-3.86-8.1-5.48-18.12-10.95-25.45,0,2.39,.92,4.7,2,7.48,1.85,5.01,1.39,10.03-.23,14.96-2.47,7.56-9.1,13.42-16.89,8.71-4.31-2.47-7.32-7.25-9.56-11.49-2.62-4.86-3.78-10.41-3.86-15.89-.23-6.79,1.46-13.5,4.01-19.9-14.19,8.79-36.4,13.57-43.19-5.48-5.78-16.27,17.43-12.19,29.31-15.12-1.85-.31-3.7-.38-5.55-.54-5.09-.31-10.18-.38-15.12-1.15-9.41-1.47-17.74-6.79-17.58-17.36,.15-9.02,10.02-7.25,15.88-5.78,4.78,1.23,13.19,4.47,18.51,2.16-10.64-4.94-22.44-10.33-27.61-21.29-2.31-4.94-4.01-12.8-1.54-18.05,2.08-4.24,7.25-3.01,10.56-1.47,9.03,4.32,15.04,13.04,23.83,17.89,2,1.16,4.17,2.16,6.48,2.93,.85,.23,1.69,.54,2.62,.62,.31,.08,.77,0,1.08-.08v-.54c-.31-1.31-.85-2.55-1.39-3.78-1.39-2.77-3.16-5.01-5.55-6.79-4.7-3.55-10.02-5.86-14.5-9.72-4.94-4.32-7.56-10.25-8.71-16.58-1-5.63-1.47-12.26,1.15-17.5,2.47-5.55,7.79-7.17,13.42-6.17,15.96,2.78,15.58,20.75,21.13,32.39,1.47,3.09,3.78,5.86,6.02,8.41,.93,1,3.55,4.17,5.25,3.93,.92-.08,.92-4.94,.92-5.86-.15-4.17-1.23-7.63-3.24-11.26-5.09-9.02-13.65-16.12-15.58-26.68-1.23-7.02,.31-16.73,7.56-19.97,7.71-3.39,16.04,3.7,19.13,10.34,4.01,8.25,2,19.05,8.64,25.91,2.93-3.32,3.55-7.64,3.08-12.49-.77-7.1-3.24-13.96-5.01-20.82-1.77-6.56-3.47-13.5-2.39-20.36,1.23-6.94,6.02-11.8,12.49-14.27Z" style="fill:#9db2d9; fill-rule:evenodd;"/><path d="M1805.83,787.17c.77-6.09,3.39-11.72,6.17-17.12,.77-1.39,2.78-1.85,4.09-1.08,7.17,4.4,14.11,9.1,21.59,12.96,2.47,1.31,5.78,2.85,8.17,3.08h.93v-.16c.08-.69-.08-1.31-.23-1.93-2.31-11.18-11.88-19.13-14.96-30-1.62-5.71-1.47-12.72,0-18.51,1.62-6.25,5.86-11.11,5.17-17.89-.23-2.47,2.7-3.47,4.47-2.54,10.41,4.78,23.21,8.64,30.54,17.89,6.56,8.25,6.09,18.59,4.86,28.46-.62,4.78-1.16,9.64-.93,14.42,0,2.62,.31,7.4,3.4,8.25,3.31,.93,4.32-4.62,4.94-7.25,1.31-5.32,1.85-10.88,2.47-16.35,1.16-9.02,3.16-22.9,13.11-26.37,4.39-1.54,8.33,1.62,10.64,5.09,3.62,5.4,4.32,13.11,4.32,19.43-.08,14.42-11.02,24.91-14.19,38.33-.77,3.08-2.01,12.96,2.62,14.04,1.62,.39,3.86-1.39,4.94-2.24,2.78-2.23,5.4-5.24,6.79-8.56,5.09-12.49,1.23-26.84,7.02-39.25,2.54-5.4,8.02-11.03,13.8-12.8,4.94-1.46,9.33,1.47,11.88,5.48,3.16,4.86,3.86,11.26,3.86,16.89-.15,6.55-1.85,12.88-5.09,18.51-6.56,11.26-18.51,19.13-19.12,33.16-.08,1.85,0,4.24,1.46,5.71,1.08,1.16,3.24,.46,4.47,.08,5.63-1.77,11.18-7.48,14.19-12.34,3.7-5.94,4.63-13.34,6.25-19.98,1.69-7.02,4.32-13.5,9.25-18.9,3.7-3.85,9.18-6.78,14.35-4.32,4.78,2.24,7.25,7.63,8.64,12.42,1.77,6.4,1.69,13.26,.54,19.74-1.31,6.94-6.09,13.26-10.72,18.43-4.7,5.4-10.18,10.1-14.65,15.65-1.23,1.54-2.16,2.62-3.86,3.7-1.7,1.16-3.54,2.16-5.01,3.62-1.31,1.23,.62,2.23,1.77,3.01,2.62,1.93,6.48-.46,9.02-1.7,2.39-1.08,5.01-1.85,7.32-3.16,2.62-1.54,5.09-3.55,7.4-5.48,4.78-3.78,9.72-7.87,15.73-9.33,5.78-1.31,12.03,1.31,15.73,5.78,8.02,9.41,0,22.67-7.94,29.07-5.09,4.09-10.88,5.79-17.36,5.86-8.02,.08-15.73-2.09-23.13,1.08,1.16,3.08,3.39,4.7,7.09,5.4,5.09,.85,10.8-.31,15.73-1.16,9.87-1.69,23.37-5.94,32.55,0,1.16,.7,1.77,2.01,1.39,3.39-1.7,5.86-4.47,11.34-9.64,14.88-4.24,3.01-9.87,3.39-14.88,3.16-9.02-.62-18.51-4.01-27.61-2.85,2.08,1.31,4.48,1.54,7.48,2.01,5.32,.69,9.48,3.55,13.03,7.4,5.4,5.78,7.33,14.42-.62,19.05-4.16,2.47-9.79,2.85-14.65,2.77-5.55-.08-10.88-1.77-15.73-4.32-6.09-3.16-11.19-7.87-15.58-13.11,.85,16.58-5.63,38.33-25.6,35.09-17.05-2.78-2.24-21.13,.92-32.93-1.08,1.46-2.16,3.08-3.09,4.55-2.77,4.24-5.24,8.71-8.4,12.73-5.79,7.56-14.58,12.18-23.68,7.02-7.87-4.47-1.54-12.34,2.62-16.81,3.4-3.55,10.26-9.33,10.88-15.12-9.48,6.94-19.97,14.65-32.01,13.88-5.48-.31-13.11-2.7-16.5-7.41-2.77-3.78,.85-7.79,3.86-9.95,8.02-5.78,18.66-6.86,27.07-12.11,2.08-1.31,3.93-2.7,5.78-4.32,.62-.62,1.23-1.31,1.77-2.01,.23-.31,.38-.69,.46-.92-.08-.08-.23-.23-.46-.23-1.31-.46-2.7-.62-4.09-.69-2.93-.16-5.78,.31-8.64,1.62-5.24,2.39-9.87,5.86-15.42,7.94-6.17,2.24-12.57,1.62-18.74-.39-5.48-1.85-11.34-4.7-14.81-9.41-3.63-4.94-2.47-10.34,1.16-14.88,10.18-12.57,25.68-3.47,38.56-2.78,3.39,.23,6.94-.38,10.34-1.15,1.31-.31,5.4-1.16,6.02-2.7,.31-.92-4.01-3.16-4.78-3.62-3.7-1.93-7.25-2.7-11.42-2.62-10.33,.08-20.67,4.17-30.92,.69-6.71-2.31-14.42-8.33-13.8-16.19,.77-8.48,11.03-12.26,18.28-11.8,9.17,.54,17.66,7.48,26.91,4.94-1.54-4.17-5.01-6.79-9.56-8.64-6.48-2.78-13.65-4.09-20.52-5.71-6.63-1.62-13.57-3.62-18.97-7.87-5.55-4.4-7.4-10.95-6.48-17.74Z" style="fill:#b0c2e4; fill-rule:evenodd;"/><path d="M1849.94,729.33c3.39,15.04,6.48,30.15,10.79,44.96,4.4,15.27,10.64,29.31,19.44,42.57,17.89,27.38,40.72,51.05,59.23,78.12,.77,1.08,.62,2.16,0,3.01,3.55,6.71,5.55,14.34,7.09,21.67,2.62,12.73,3.4,25.76,3.86,38.79,.62,15.81,.54,31.54-.15,47.43-.92,18.59-2.16,37.25-1.39,55.91,.08,1.08,.15,2.16,.15,3.16,.31,3.94-5.71,3.86-5.94,0-1-18.12,.08-36.32,.92-54.52,.85-16.27,1.16-32.39,.54-48.59-.46-12.57-1.08-25.14-3.24-37.48-1.85-11.26-5.01-23.99-13.57-32.24-1.16-1.16-1-2.62-.31-3.7-17.28-23.44-37.02-45.04-53.06-69.48-8.48-13.03-14.65-27.15-19.13-42.11-4.47-15.04-7.56-30.54-11.03-45.89-.85-3.78,4.86-5.4,5.79-1.62Z" style="fill:#b0c2e4; fill-rule:evenodd;"/><path d="M1947.5,1065.89c3.24-29.07,16.58-55.06,30.46-80.36,13.73-25.14,28.23-50.51,32.47-79.28,.54-3.78,6.32-2.16,5.78,1.62-8.4,57.3-56.3,100.18-62.77,158.02-.31,3.78-6.33,3.86-5.94,0Z" style="fill:#b0c2e4; fill-rule:evenodd;"/><path d="M1859.58,929.62c25.61,11.18,50.67,28.23,67.79,50.51,9.41,12.19,14.96,25.99,18.36,40.49,1.39-15.12,4.16-30.08,7.02-44.96,6.71-34.63,11.96-69.49,15.19-104.73,1.31-13.96,2.31-27.92,2.93-41.95,.15-3.78,6.17-3.86,6.02,0-1.85,38.87-6.33,77.58-12.34,115.99-4.09,26.07-10.95,51.75-12.96,78.05,2.24-14.27,5.63-28.22,10.03-41.95,6.17-19.51,14.57-38.48,25.45-55.91,0-.77,.15-1.54,.77-2.24,.77-.85,1.54-1.62,2.31-2.47,2.62-4.08,5.55-8.02,8.48-11.88,1.39-1.77,3.24-1.16,4.24,.23,4.55-3.47,9.49-6.63,14.73-9.33,12.34-6.4,27.61-10.49,33.47-24.45,1.54-3.55,6.71-.46,5.24,3.08-5.86,13.81-20.2,18.97-32.7,25.07-11.18,5.4-20.67,12.42-29.15,21.36-11.88,18.2-20.82,38.41-27.45,59.08-8.02,25.06-12.57,51.44-12.65,77.81v.38c.46,1.93-1.16,3.24-2.78,3.4-.77,2.7-5.55,2.31-5.86-1.08-2.16-28.3-5.4-58-23.52-81.05-16.74-21.29-40.95-37.56-65.63-48.28-3.54-1.54-.46-6.71,3.01-5.17Z" style="fill:#9db2d9; fill-rule:evenodd;"/><path d="M2038.58,728.72c5.4-2.78,11.57-3.86,17.58-4.55,1.54-.15,3.08,1.23,3.24,2.78,.39,8.33,.46,16.81,1.54,25.14,.31,2.7,.92,6.4,2,8.48,.15,.08,.46,.46,.62,.69l.15-.08c.54-.31,.93-.77,1.39-1.23,7.87-8.33,9.03-20.67,16.2-29.31,3.86-4.63,9.71-8.48,15.35-10.49,6.09-2.24,12.42-1.54,17.66-5.86,1.85-1.62,4.32,.23,4.63,2.24,1.85,11.26,6.02,23.99,2.47,35.32-3.08,10.1-11.88,15.5-20.67,20.05-4.32,2.24-8.56,4.55-12.42,7.4-2.08,1.62-5.94,4.48-4.86,7.56,1.08,3.16,6.25,.85,8.79-.08,5.09-2,10.03-4.62,14.89-7.17,8.1-4.17,20.67-10.41,29.15-4.17,3.78,2.7,3.39,7.79,1.77,11.57-2.39,6.09-8.33,11.11-13.57,14.65-11.88,8.1-26.76,5.01-39.64,9.95-2.93,1.16-11.72,5.71-10.02,10.1,.62,1.54,3.24,2.39,4.63,2.85,3.39,1,7.4,1.46,10.79,.69,13.27-2.86,22.9-14.11,36.4-16.43,5.86-1,13.65,.39,18.36,4.17,4.01,3.24,4.17,8.48,2.31,12.96-2.31,5.25-7.17,9.56-11.88,12.65-5.4,3.54-11.57,5.78-18.05,6.25-13.03,1-26.3-4.4-38.09,3.01-1.7,1-3.55,2.47-4.01,4.47-.31,1.54,1.46,2.93,2.47,3.7,4.78,3.7,12.49,5.01,18.28,4.78,7.02-.31,13.57-3.78,19.97-6.25,6.79-2.54,13.57-4.08,20.82-2.93,5.24,.77,10.79,3.7,11.72,9.33,.77,5.24-2.31,10.25-5.4,14.11-4.24,5.09-9.95,8.94-15.96,11.57-6.48,2.86-14.42,2.47-21.21,1.7-7.17-.85-14.19-2.7-21.29-3.24-1.93-.15-3.39-.39-5.24-1.08-1.85-.77-3.78-1.7-5.86-2.16-1.69-.31-1.46,1.85-1.46,3.24-.08,3.24,4.08,5.09,6.55,6.48,2.31,1.31,4.32,3.08,6.79,4.24,2.77,1.31,5.71,2.16,8.64,3.01,5.86,1.77,12.03,3.55,16.58,7.71,4.4,4.01,5.79,10.64,4.24,16.27-3.24,11.88-18.74,12.73-28.53,9.79-6.17-1.85-10.88-5.63-14.65-10.95-4.63-6.55-7.09-14.11-14.04-18.43-1.85,2.62-1.85,5.48-.31,8.95,2.16,4.63,6.25,8.64,9.79,12.26,7.02,7.17,18.12,15.88,18.43,26.84,.08,1.31-.62,2.62-2.01,3.01-5.86,1.93-11.88,2.78-17.74,.54-4.94-1.85-8.41-6.25-11.03-10.56-4.71-7.71-7.17-17.51-13.34-24.29,.15,2.39,1.31,4.55,2.62,7.25,2.47,4.78,2.47,9.79,1.31,14.96-1.77,7.71-7.79,14.19-16.04,10.33-4.48-2.16-7.94-6.55-10.57-10.56-3.09-4.63-4.78-9.95-5.4-15.42-.85-6.79,.15-13.65,2-20.28-13.19,10.11-34.86,17.04-43.42-1.23-7.33-15.65,16.12-13.8,27.68-17.89-1.85-.08-3.7,0-5.55,.08-5.09,.16-10.11,.54-15.27,.31-9.41-.54-18.2-5.17-19.12-15.58-.69-9.02,9.33-8.25,15.35-7.32,4.85,.77,13.49,3.16,18.66,.31-11.11-3.86-23.37-8.1-29.62-18.51-2.78-4.7-5.17-12.34-3.24-17.74,1.62-4.39,6.86-3.78,10.41-2.47,9.34,3.32,16.2,11.42,25.3,15.42,2.16,1,4.47,1.77,6.78,2.31,.93,.15,1.85,.31,2.7,.39,.39,0,.77-.08,1-.15v-.54c-.38-1.31-1.08-2.54-1.77-3.7-1.62-2.62-3.62-4.63-6.25-6.25-4.94-3.01-10.49-4.86-15.27-8.18-5.32-3.86-8.48-9.48-10.33-15.73-1.54-5.48-2.47-11.96-.54-17.51,2-5.78,7.1-7.86,12.88-7.48,16.12,1.31,17.43,19.2,24.06,30.23,1.85,2.93,4.32,5.48,6.86,7.79,1,1,3.93,3.86,5.55,3.47,1-.23,.39-5.09,.31-6.01-.46-4.09-1.93-7.48-4.24-10.88-5.94-8.48-15.12-14.65-18.04-25.07-2.01-6.86-1.39-16.66,5.55-20.59,7.33-4.16,16.27,2.16,20.05,8.41,4.78,7.87,3.86,18.82,11.11,24.99,2.62-3.62,2.78-7.94,1.77-12.72-1.46-7.02-4.4-13.57-6.94-20.21-2.39-6.4-4.71-13.19-4.24-20.05,.46-7.1,4.78-12.34,10.95-15.42Z" style="fill:#c4d1eb; fill-rule:evenodd;"/><polygon points="1879.56 1241.73 2008.58 1241.73 2050.76 1074.91 1840.38 1074.91 1879.56 1241.73" style="fill:#b0c2e4; fill-rule:evenodd;"/><rect x="1829.12" y="1053.16" width="235.76" height="21.75" style="fill:#9db2d9;"/><polygon points="1945.57 1074.91 2050.76 1074.91 2008.58 1241.73 1945.57 1241.73 1945.57 1074.91" style="fill:#9db2d9; fill-rule:evenodd;"/><rect x="1945.57" y="1053.16" width="119.3" height="21.75" style="fill:#859ac6;"/><polygon points="1879.56 1244.19 2008.58 1244.19 2050.76 1221.67 1840.38 1221.67 1879.56 1244.19" style="fill:#9db2d9; fill-rule:evenodd;"/><polygon points="1945.57 1221.67 2050.76 1221.67 2008.58 1244.19 1945.57 1244.19 1945.57 1221.67" style="fill:#859ac6; fill-rule:evenodd;"/><path d="M1540.46,845.63H932.63c-3.59,0-6.48,1.62-6.48,3.62v30.31c0,2,2.89,3.62,6.48,3.62h607.83c3.55,0,6.48-1.62,6.48-3.62v-30.31c0-2-2.93-3.62-6.48-3.62Z" style="fill:#b0c2e4; fill-rule:evenodd;"/><path d="M1448.91,1285.61c362.78,0,656.91,22.45,656.91,50.05s-294.14,50.13-656.91,50.13-656.84-22.44-656.84-50.13,294.06-50.05,656.84-50.05Z" style="fill:#c4d1eb; fill-rule:evenodd;"/><path d="M948.09,1262.7c-52.29-58.15-79.86-150.93-82.71-278.48-23.99,4.86-41.8,4.32-53.52-1.54-22.02,112.36,9.22,223.42,93.74,333.09h446.76v-53.06h-404.27Z" style="fill:#e5bb9a; fill-rule:evenodd;"/><path d="M1665.01,1262.7c52.29-58.15,79.82-150.93,82.67-278.48,23.98,4.86,41.8,4.32,53.52-1.54,22.05,112.36-9.25,223.42-93.7,333.09h-446.76v-53.06h404.27Z" style="fill:#e5bb9a; fill-rule:evenodd;"/><path d="M905.59,1315.76c6.13,13.8,17.43,23.99,33.97,30.54h412.79v-30.54h-446.76Z" style="fill:#9c7357; fill-rule:evenodd;"/><path d="M1707.5,1315.76c-6.17,13.8-17.51,23.99-34.01,30.54h-412.75v-30.54h446.76Z" style="fill:#9c7357; fill-rule:evenodd;"/><path d="M961.58,965.87c-34.82-3.55-66.86,2.62-96.21,18.36,2.85,127.56,30.42,220.33,82.71,278.48-18.97-36.09-22.33-62.31-10.18-78.82-20.4-60.39-2.78-88.46,61.12-95.09-17.85-29.61-30.31-70.56-37.44-122.93Z" style="fill:#9c7357; fill-rule:evenodd;"/><path d="M1651.43,965.87c34.86-3.55,66.94,2.62,96.25,18.36-2.86,127.56-30.38,220.33-82.67,278.48,18.97-36.09,22.36-62.31,10.18-78.82,20.36-60.39,2.78-88.46-61.16-95.09,17.82-29.61,30.31-70.56,37.41-122.93Z" style="fill:#9c7357; fill-rule:evenodd;"/><path d="M911.26,953.14c-56.07-2.47-89.19,7.4-99.41,29.54,11.72,5.86,29.54,6.4,53.52,1.54,29.34-15.73,61.39-21.9,96.21-18.36-9.79-8.41-26.53-12.65-50.32-12.73Z" style="fill:#e5bb9a; fill-rule:evenodd;"/><path d="M1701.87,953.14c55.99-2.47,89.15,7.4,99.33,29.54-11.72,5.86-29.54,6.4-53.52,1.54-29.31-15.73-61.39-21.9-96.25-18.36,9.87-8.41,26.61-12.65,50.44-12.73Z" style="fill:#e5bb9a; fill-rule:evenodd;"/><path d="M1352.36,1186.66h-414.45v-2.78c-12.15,16.5-8.79,42.73,10.18,78.82h404.27v-76.04Z" style="fill:#d0a382; fill-rule:evenodd;"/><path d="M1260.74,1186.66h414.45v-2.78c12.19,16.5,8.79,42.73-10.18,78.82h-404.27v-76.04Z" style="fill:#d0a382; fill-rule:evenodd;"/><path d="M1352.36,1088.79h-353.33c-63.89,6.63-81.52,34.7-61.12,95.09v2.78h414.45v-97.87Z" style="fill:#e5bb9a; fill-rule:evenodd;"/><path d="M1260.74,1088.79h353.29c63.93,6.63,81.52,34.7,61.16,95.09v2.78h-414.45v-97.87Z" style="fill:#e5bb9a; fill-rule:evenodd;"/><path d="M1005.2,833.22c-70.95,16.19-107.89,56.07-110.71,119.54,5.32,0,10.91,.08,16.77,.38,17.35,.08,31,2.31,40.87,6.86,4.01-39.49,22.17-70.1,54.45-91.85,46.73-23.29,161.99-28.22,345.77-14.73v-28c-152.39-11.18-268.15-8.56-347.16,7.79Z" style="fill:#e5bb9a; fill-rule:evenodd;"/><path d="M1607.86,833.22c71.03,16.19,107.89,56.07,110.75,119.54-5.32,0-10.95,.08-16.73,.38-17.43,.08-31.01,2.31-40.95,6.86-4.01-39.49-22.13-70.1-54.45-91.85-46.74-23.29-162.03-28.22-345.74-14.73v-28c152.39-11.18,268.07-8.56,347.12,7.79Z" style="fill:#e5bb9a; fill-rule:evenodd;"/><path d="M1006.59,868.15c-32.28,21.75-50.44,52.37-54.45,91.85,3.66,1.62,6.83,3.62,9.45,5.86,7.13,52.37,19.59,93.32,37.44,122.93h353.33v-235.37c-183.78-13.5-299.04-8.56-345.77,14.73Z" style="fill:#d0a382; fill-rule:evenodd;"/><path d="M1606.47,868.15c32.31,21.75,50.44,52.37,54.45,91.85-3.62,1.62-6.79,3.62-9.48,5.86-7.1,52.37-19.59,93.32-37.41,122.93h-353.29v-235.37c183.7-13.5,299-8.56,345.74,14.73Z" style="fill:#d0a382; fill-rule:evenodd;"/><path d="M947.74,907.79c36.94,7.02,83.29,21.36,139.05,43.11-3.82,1-7.37,2.23-10.68,3.7-76.97-27.92-127.94-41.95-153.01-42.11,4.44-1.54,8.91-2.62,13.34-3.16-.38-40.95-2.51-77.27-6.4-108.82,9.49,48.97,15.39,84.68,17.7,107.28Z" style="fill:#466fb5; fill-rule:evenodd;"/><path d="M1086.79,950.9c17.12-5.09,32.28-3.94,45.54,3.47l-11.14,38.56c-1.23,4.4,1.27,7.86,5.55,7.63l-10.3,.46c-4.63-2.62-9.41-4.24-14.35-4.94-9.41,6.02-21.75,4.7-37.02-3.86-1.12-15.42,2.78-27.84,11.65-37.41-.19-.08-.42-.15-.62-.23,3.32-1.47,6.86-2.7,10.68-3.7Z" style="fill:#f9af79; fill-rule:evenodd;"/><path d="M959.27,1019.93c-2.35-13.88-4.71-28.77-6.98-44.73,29.04,7.63,66.75,14.81,113.25,21.59-.19-1.54-.35-3.08-.46-4.55,15.27,8.56,27.61,9.87,37.02,3.86,4.94,.69,9.72,2.31,14.35,4.94l-104.11,4.32c1.27,7.09,4.32,12.42,9.06,15.65-21.86,1-42.61,.62-62.12-1.08Z" style="fill:#466fb5; fill-rule:evenodd;"/><path d="M1132.33,954.37c-9.91-5.55-20.98-7.56-33.05-6.09-19.93-43.03-7.6-104.19-35.63-197.51,20.2,10.1,43.73,59.23,70.6,147.3,2.93,2.47,6.9,5.24,11.88,8.4l-13.81,47.89Z" style="fill:#6d96ce; fill-rule:evenodd;"/><path d="M1063.65,750.77c28.03,93.32,15.69,154.47,35.63,197.51-4.05,.46-8.25,1.39-12.49,2.62-55.76-21.75-102.11-36.09-139.05-43.11-2.31-22.6-8.21-58.3-17.7-107.28,3.9,31.54,6.02,67.87,6.4,108.82-4.43,.54-8.91,1.62-13.34,3.16,25.06,.16,76.04,14.19,153.01,42.11l.62,.23c-8.87,9.57-12.76,21.98-11.65,37.41,.12,1.46,.27,3.01,.46,4.55-46.5-6.79-84.22-13.96-113.25-21.59-23.87-6.25-41.84-12.8-53.87-19.59-31.43-52.29-36.32-119.77-14.69-202.52,11.72-14.88,37.79-20.52,78.31-16.66,42.22,35.63,61.54,37.32,57.96,5.09,18.43,.54,33.01,3.63,43.65,9.25Z" style="fill:#6d96ce; fill-rule:evenodd;"/><path d="M1064.93,751.47c25.03,51.9,29.38,157.33,40.87,168.74,4.4,5.24,14.65,11.65,30.81,19.28l-.31,1-3.97,13.88c-9.91-5.55-20.98-7.56-33.05-6.09-19.93-43.03-7.6-104.19-35.63-197.51,.42,.23,.85,.46,1.27,.69Z" style="fill:#466fb5; fill-rule:evenodd;"/><path d="M1286.96,1014.14l-251.38,10.49c-12.92,.54-21.02-6.63-23.25-19.28l283.03-11.8h.77c2.7-.08,6.71,1.08,5.48,8.71-1.23,6.25-7.71,11.57-14.65,11.88Z" style="fill:#859ac6; fill-rule:evenodd;"/><path d="M1328.14,858.51l-162.42,6.79c-4.28,.15-8.87,3.86-10.1,8.25l-34.43,119.38c-1.23,4.4,1.27,7.86,5.55,7.63l162.45-6.71c4.32-.23,8.87-3.93,10.1-8.33l34.4-119.38c1.31-4.4-1.23-7.79-5.55-7.63Z" style="fill:#c4d1eb; fill-rule:evenodd;"/><path d="M1313.64,907.02l-21.13,73.5c-1.08,3.63-4.94,6.94-8.79,7.17l-148.15,6.17c-3.78,.08-5.51-2.85-4.51-6.32l14.11-48.97c12.18,1.46,24.91,2.31,38.02,2.31,9.83,0,19.4-.46,28.8-1.31,1.85,5.01,6.56,8.41,12.65,8.41,7.71,0,15.04-5.55,17.66-12.88,28.38-5.78,52.98-15.58,71.33-28.07Z" style="fill:#9db2d9; fill-rule:evenodd;"/><path d="M1362.31,1035.04c-12.42-8.1-21.98-15.58-28.77-22.52-10.48,4.78-20.51,9.1-30.07,12.95-23.06-3-50.13-5.86-80.98-8.64l64.48-2.7c6.94-.31,13.42-5.63,14.65-11.88,1.23-7.64-2.78-8.79-5.48-8.71h-.77l-6.17,.23c4.32-.15,8.87-3.86,10.1-8.25l17.05-59c10.41-.62,19.51-.77,27.53-.62,45.66,16.5,84.84,84.3,169.67,140.67-1.39,14.81-8.71,24.21-20.05,33.63-44.42-19.05-89.15-40.18-115.45-55.53-5.63-3.32-10.88-6.56-15.73-9.64Z" style="fill:#223f81; fill-rule:evenodd;"/><path d="M1604.08,1072.91c-33.63,29.69-58.61,47.66-73.42,54.53-15.89,7.33-20.51,1.77-24.37-16.81,44.42-14.11,20.28-23.91,36.94-35.01,17.82-1.08,38.18-9.49,60.85-25.07,14.34-1.46,15.96,7.33,0,22.36Z" style="fill:#223f81; fill-rule:evenodd;"/><path d="M1595.29,1034.12c-1.39,10.41-2.39,15.43-3.7,24.45h0l-.69,.39-.31,.23-.38,.23-.62,.38h-.08l-.69,.39-.31,.15-.31,.23-.69,.31-.08,.08-.62,.39-.31,.15-1.7,.92-.31,.16-.46,.23-.46,.23-.15,.08-.69,.38-.23,.08-.46,.23-.46,.31h-.16l-.69,.39-.23,.08-.46,.23-.46,.23-.15,.08-.69,.38h-.08l-.62,.31-.46,.15-.15,.08-.62,.31-.16,.08-.54,.23-.39,.23-.92,.38h-.08l-.92,.46-.31,.08-.69,.31h0l-.62,.23-.31,.15-.31,.15-.62,.23h0l-.69,.23-.23,.16-.39,.15-.62,.23h-.08l-.62,.23-.31,.08-.31,.15-.54,.23h-.08l-.62,.23-.31,.08-.31,.15-.54,.15h-.15l-.62,.23-.23,.08-.38,.15-.62,.23-.62,.16-.23,.08-.39,.15-.46,.08-.15,.08-.62,.23h-.15l-.46,.15-.39,.08-.23,.08-.62,.15h-.08l-.54,.16-.39,.15h-.23l-.54,.15-1.23,.31-.62,.15h-.08l-.54,.15h-.31l-.31,.08-.62,.16h0l-.54,.08-.62,.15h0l-.54,.08h0l-.62,.15h-.31l-.31,.08c.15-1.08,.31-2.31,.77-3.62,12.8-12.49,24.14-25.91,31.23-52.6,9.79-10.41,15.04-6.17,12.73,15.58h0Zm-8.17,53.45c-2.62,14.27-5.86,27.61-8.95,34.4-6.63,14.57-18.97,7.09-32.55-3.09,11.11-7.1,24.99-17.5,41.49-31.31Z" style="fill:#0e2952; fill-rule:evenodd;"/><path d="M1567.53,1070.21l-.39,.15h-.08l-.62,.23-.31,.08-.31,.15-.54,.15h-.15l-.62,.23-.23,.08-.38,.15-.62,.23-.62,.16-.23,.08-.39,.15-.46,.08-.15,.08-.62,.23h-.15l-.46,.15-.39,.08-.23,.08-.62,.15h-.08l-.54,.16-.39,.15h-.23l-.54,.15-1.23,.31-.62,.15h-.08l-.54,.15h-.31l-.31,.08-.62,.16h0l-.54,.08-.62,.15h0l-.54,.08h0l-.62,.15h-.31l-.31,.08c.15-1.08,.31-2.31,.77-3.62,12.8-12.49,24.14-25.91,31.23-52.6,2.54-2.7,4.78-4.4,6.71-5.09-1.54,21.98-8.79,40.87-21.75,56.76Z" style="fill:#223f81; fill-rule:evenodd;"/><path d="M1510.61,1109.16c-4.01-5.4-8.41-9.49-13.27-12.26,7.71-7.09,13.11-14.57,15.27-24.68,8.79,4.7,17.35,7.33,25.6,8.1-5.86,8.95,5.25,17.51-27.61,28.84Z" style="fill:#f9af79; fill-rule:evenodd;"/><path d="M1040.02,1115.09c-54.25-3.4-76.35-43.96-75.27-94.71,17.89,1.23,36.79,1.47,56.65,.62,3.74,2.62,8.48,3.86,14.19,3.62l186.9-7.79c30.85,2.78,57.92,5.63,80.98,8.64,14.19,1.77,26.84,3.7,38.1,5.56,8.02,2.16,20.05,6.63,35.94,13.34l.54,.31c26.3,15.34,71.03,36.48,115.45,55.53,1.39-1.08,2.62-2.16,3.86-3.32,4.86,2.78,9.25,6.86,13.27,12.26-1.39,.54-2.78,1-4.32,1.46,.08,.31,.16,.62,.23,.93-126.71,11.49-168.36-7.79-201.98-17.89-109.98,19.67-162.88,26.84-264.53,21.44Z" style="fill:#223f81; fill-rule:evenodd;"/><path d="M977.59,672.88c4.12-17.12,4.9-36.63,10.56-44.19,45.69-16.04,50.78,9.25,70.91,14.04,.23,6.32-1.7,13.34-5.75,21.05,1.54,27.69-4.97,44.81-19.47,51.29-3.7,3.86-9.72,6.17-18.16,6.79,.81,3.55,3.28,16.43,4.32,19.67h0c3.59,32.24-15.73,30.54-57.96-5.09l-.19-.08c.27-11.34,1.23-20.05,1.04-28.54-.15-5.86-.35-11.03-.69-15.5-15.15-15.81-18.12-28.54-8.98-38.33,11.99-5.63,18.93,2.39,20.82,24.14,3.59-1.39,1.08-.23,3.55-5.24Z" style="fill:#f9af79; fill-rule:evenodd;"/><path d="M1059.07,642.73c-20.13-4.78-25.22-30.08-70.91-14.04-5.67,7.56-6.44,27.07-10.56,44.19-2.47,5.01,.04,3.86-3.55,5.24-1.89-21.75-8.83-29.77-20.82-24.14-9.14,9.8-6.17,22.52,8.98,38.33,.35,4.47,.54,9.64,.69,15.5-42.57-39.25-33.97-92.47-8.06-109.98-6.29,.62-12.72,3.08-19.28,7.33,9.45-12.65,22.13-17.04,38.13-13.19-1.73-8.95-1.43-15.58,.96-19.82,.73,6.02,1.93,10.72,3.62,13.96,10.26-9.33,29.92-11.57,50.09-3.93,26.1,9.79,53.1,33.85,63.35,26.68-1.54,24.6-15.54,39.56-32.66,33.86Z" style="fill:#20386f; fill-rule:evenodd;"/><path d="M988.81,714.14c7.56,4.94,16.54,7.48,26.88,7.71,.46,2.01,1.43,6.87,2.35,11.26-13.07-3.47-22.83-9.79-29.23-18.97Z" style="fill:#ed7d57; fill-rule:evenodd;"/><path d="M1301.15,996.25c14.34-5.01,26.61-11.11,36.86-18.12,4.78,4.62,9.56,9.18,14.34,13.57,46.58,43.42,91.54,76.58,134.73,97.09,4.24,2,8.56,3.86,12.8,5.63-.85,.85-1.7,1.7-2.54,2.47l-3.86,3.32c-8.79-3.7-17.58-7.56-26.22-11.42-35.17-15.73-68.17-31.77-89.23-44.11-.16-.08-.39-.23-.54-.31-5.4-3.16-10.49-6.32-15.19-9.33-3.47-2.31-6.86-4.55-9.95-6.79-7.71-5.55-13.96-10.72-18.82-15.73-10.48,4.78-20.51,9.1-30.07,12.95-13.03-1.69-27.3-3.32-42.73-4.94-12.03-1.31-24.83-2.47-38.25-3.7l38.25-1.62,26.22-1.08c6.94-.31,13.42-5.63,14.65-11.88,.46-2.78,.23-4.71-.46-6.02Z" style="fill:#0e2952; fill-rule:evenodd;"/><path d="M1047.77,1088.79c31.62,8.87,75.58,9.95,131.88,3.24,9.6-1.08,18.93-2.16,27.88-3.24,19.2-2.39,36.94-4.86,53.21-7.33,16.12-2.39,30.77-4.94,43.96-7.48,9.56,5.71,20.67,10.56,33.16,14.81,4.63,1.54,9.41,2.93,14.5,4.32,39.56,10.49,91.39,14.73,155.63,12.73,.85,1.08,1.77,2.16,2.62,3.32-1.39,.54-2.78,1-4.32,1.46l.23,.93c-77.04,7.02-122.7,2.62-154.16-4.16-20.21-4.4-34.7-9.71-47.81-13.73-15.66,2.78-30.23,5.32-43.81,7.63-82.25,13.81-133.57,18.43-220.72,13.81-24.25-1.54-42.11-10.49-54.33-24.53-15.04-17.28-21.56-42.18-20.94-70.18,2.43,.15,4.86,.31,7.33,.46,4.97,.23,10.03,.46,15.12,.54,1.81,34.09,21.98,56.53,60.58,67.4Z" style="fill:#0e2952; fill-rule:evenodd;"/><path d="M1228.96,921.06c-6.02,0-11.72,4.94-12.73,11.03-1,6.02,3.16,10.95,9.18,10.95s11.8-4.94,12.8-10.95c.92-6.09-3.16-11.03-9.25-11.03Z" style="fill:#9db2d9; fill-rule:evenodd;"/><path d="M665.56,849.1c-7.02,6.09-14.69,8.64-23.68,6.79,8.41,6.32,20.09,1.46,23.68-6.79Z" style="fill:#f48661; fill-rule:evenodd;"/><path d="M633.9,1458.28c1.31-9.48-1.66-25.76-9.06-51.29,14.69,0,27.07-6.56,42.11-6.25,4.09,23.99,10.49,63.39,10.49,63.39l.66,31.23-104.73,.77s.93,.46,31.77-19.05c2.28-1.47,27.49-9.64,28.77-18.82Z" style="fill:#f9af79; fill-rule:evenodd;"/><path d="M678.59,1503.32h-108.08c-4.01-.31-4.97-3.62-3.59-5.55,2.85-4.17,23.95-14.11,38.1-20.74,24.87,2.62,68.6-7.64,72.53-13.34,6.79,19.05,3.28,39.18,1.04,39.64Z" style="fill:#0e2952; fill-rule:evenodd;"/><path d="M764.35,1458.28c1.31-9.48,3.59-21.36,.27-52.98,14.73,0,28.73-2.77,43.77-2.54,0,24.76-.5,61.39-.5,61.39l.66,31.23-104.73,.77s.89,.46,31.74-19.05c2.31-1.47,27.53-9.64,28.8-18.82Z" style="fill:#f9af79; fill-rule:evenodd;"/><path d="M809.04,1503.32h-108.12c-3.97-.31-4.94-3.62-3.55-5.55,2.81-4.17,23.95-14.11,38.14-20.74,24.83,2.62,68.52-7.64,72.42-13.34,6.86,19.05,3.35,39.18,1.12,39.64Z" style="fill:#0e2952; fill-rule:evenodd;"/><path d="M688.27,554.04l-39.41-41.49s-42.15,23.14-91.31,45.35c-13.54-23.52-35.55-100.95-36.75-104.58-1.2-3.78,25.83-50.21,19.82-51.36-6.09-1.16-13.92,24.83-20.32,22.21-6.36-2.7-22.79-62.93-26.64-59.61-7.21,6.17,8.64,37.48,4.86,39.72-3.82,2.31-13.42-34.71-20.71-33.08-7.37,1.54,12.3,33.62,10.18,36.71-2.2,3.16-22.75-26.99-26.99-20.05-2.31,3.78,18.97,26.22,14.58,28.77-4.36,2.54-23.56-11.65-25.84-7.02-2.27,4.55,17.89,9.33,23.52,20.9,5.59,11.57,15.81,16.12,19.16,38.02,3.39,21.9,12.65,139.05,36.52,148.46,20.86,8.25,159.33-62.93,159.33-62.93Z" style="fill:#f9af79; fill-rule:evenodd;"/><path d="M662.82,778.23l31.93,17.82,64.9,99.25-116.07,273.32s13.07,41.11,17.31,61.62c4.43,21.51,15.39,205.83,15.39,205.83l-49.55,.85s-47.04-196.27-55.02-259.97c-9.64-77.43,49.28-261.67,49.28-261.67,10.99-37.56,34.67-114.91,34.67-114.91,0,0,5.78-18.82,7.17-22.13Z" style="fill:#20386f; fill-rule:evenodd;"/><path d="M773.99,740.9s-3.32,23.37,9.87,49.97c8.06,16.28,21.98,29,31.97,48.89,18.82,37.64,29.07,91.08,22.02,125.48,0,0-38.99,148.84-37.44,203.21,.58,20.05,7.44,56.22,11.84,80.67,3.89,21.52,5.24,184.47,5.24,184.47l-55.33-1.7-42.34-262.75-17.93-233.6-39.06-157.33,111.17-37.33Z" style="fill:#223f81; fill-rule:evenodd;"/><path d="M656.84,397.94c4.9-23.06,9.91-46.27,32.89-62.85,18.55-13.5,38.52-17.35,59.65-9.64,59.96,21.75,27.73,69.33,102.15,120,23.1,15.81,31.89,21.29,48.47,42.26,23.25,29.38,35.9,68.79,24.26,101.34-24.18,67.09-98.95,86.53-138.09,72.26-72.84-26.45-133.5-118.84-137.55-144.06-4.32-26.99,5.05-104.42,8.21-119.31Z" style="fill:#20386f; fill-rule:evenodd;"/><path d="M645.23,580.18c-17.62,8.18-49.59,20.36-49.59,20.36l-18.16-57.45c102.69-58.38,94.59-48.9,171.63-47.81,61.58,.93,87.38-10.88,140.4,132.26,0,0-40.37,18.12-54.79,23.91-6.25-17.66-17.43-52.98-24.02-32.85-9.87,30.38-17.12,61.08-21.98,92.62-3.08,18.74-9.79,42.72-6.28,61.77,0,0-41.92,8.64-73.92,10.02h-.27c-15.5-.38-31.35-1.77-45.43-4.78,0,0-6.28-132.73-9.64-138.28-3.7-6.09-19.4-25.99-6.09-55.6,2.39-5.24,1.77-5.86-1.85-4.17Z" style="fill:#6d96ce; fill-rule:evenodd;"/><path d="M722.28,810.62c-.73,.08-4.01-.39-6.67-.31-3.7,.08-6.94,.62-6.94,.62,0,0-1.43-1.23-4.24-2.54-1.16-.54-3.01-.7-4.32-1.31-1.31-.62-2.47-1.77-3.7-2.31-3.28-1.39-6.28-1.77-7.29,0-.81,1.39,17.39,12.49,17.39,12.49,16.85,.08,34.47,8.71,73.5-16.73,22.29-9.72,130.57-63.24,132.73-74.88,1.23-6.55-15.39-57.15-28.96-95.55-10.45,4.63-32.74,14.5-45.15,19.74,11.41,24.22,24.91,56.3,23.48,60.23-.39,1.08-1.73,2.93-74.92,50.82-1.81,1.16-3.74,2.39-5.63,3.7-5.17,3.39-10.68,6.94-16.5,10.72l-20.9-2.16s-33.01,2.31-34.05,6.09c-.43,1.7,2.31,2.54,5.71,3.08h.08c.5,0,1,.08,1.5,.16h.04c3.66,.46,7.48,.46,8.45,.85,1,.31,3.12,1.16,4.94,2.39-20.59,8.48-19.01,5.48-25.84,5.01-1.74-.15-3.55,.39-5.17,.23-2.78-.23-5.01-1.85-7.09-2-3.16-.15-5.71,1.31-6.29,1.85-.73,.77,.66,1.77,3.28,3.01,15.93,6.94,29.11,4.24,33.32,5.24,2.85,.7-2.35,1.77-10.45,.93-1.97-.23-4.67,.54-7.33-.15-1.77-.39-3.39-1.47-5.13-1.93-1.62-.38-3.28-.38-4.63-.61-1.77-.31-4.28-1.7-5.67-1.85-5.32-.61-7.87,.31-8.48,.77-1.2,1.08,22.79,10.33,22.79,10.33,0,0,16.54,2.39,20.25,2.39,0,0,2.24,1-2.08,1.7Z" style="fill:#f9af79; fill-rule:evenodd;"/><path d="M741.56,438.66s4.7,37.87,7.44,51.06c2.89,13.73,7.25,57.15-21.28,64.16-28.54,7.02-19.7-47.2-20.21-61.16-.42-14.04-8.56-62.85-8.56-62.85l42.61,8.79Z" style="fill:#f9af79; fill-rule:evenodd;"/><path d="M743.1,450.77c-.27,.15-.54,.31-.85,.46-15.77,9.1-29.54,7.64-39.83,.62-1.85-12.11-3.47-21.98-3.47-21.98l42.61,8.79s.62,5.01,1.54,12.11Z" style="fill:#f27458; fill-rule:evenodd;"/><path d="M733,339.95s16.7,4.7,26.37,21.36c9.6,16.58,14.42,64.32-21.09,84.68-35.48,20.28-60.73-12.26-59.62-42.8,1.08-30.54,9.56-70.87,54.33-63.24Z" style="fill:#f9af79; fill-rule:evenodd;"/><path d="M670.8,390.08c-.39,7.94,3.01,14.58,7.6,14.73,4.55,.31,8.64-5.94,8.98-13.88,.42-7.94-2.97-14.58-7.56-14.81-4.59-.23-8.6,6.01-9.02,13.96Z" style="fill:#f9af79; fill-rule:evenodd;"/><path d="M727.95,338.72s19.13,49.9,37.87,55.22c18.74,5.32,17.24,29.85,17.24,29.85,0,0,2.43-56.76-14.73-70.64-17.08-13.88-40.37-14.42-40.37-14.42Z" style="fill:#20386f; fill-rule:evenodd;"/><path d="M757.79,403.73c-2.89,7.79-1,15.66,4.24,17.66,5.24,1.93,11.8-2.78,14.65-10.57,2.93-7.79,1.04-15.73-4.2-17.74-5.21-1.93-11.76,2.78-14.69,10.64Z" style="fill:#f9af79; fill-rule:evenodd;"/><path d="M612.3,681.6c2.93-1,12.84-3.32,24.41-7.17,11.88,4.86,27.5,3.39,46.93-4.32,7.36-11.72,8.06-23.6,2-35.71-15.31,7.25-28.73,10.02-40.3,8.41,14.38-9.49,16.58-15.12,6.67-16.89-.93,2.24-3.01,4.09-6.17,5.55-9.99,1.62-17.12,8.33-21.44,20.28-5.32,1.39-10.84,2.7-13.69,3.62,2.93,6.86,3.51,15.12,1.58,26.22Z" style="fill:#fab688; fill-rule:evenodd;"/><path d="M340.22,381.67c-36.98-4.78-64.9-2.24-76.81,15.5,1.5,10.8,4.78,24.83,9.76,42.18-2.16,4.09-5.36,6.25-9.52,6.48-5.28-10.34-9.68-16.43-13.23-18.43-17.62,7.87-14.31,20.05,9.91,36.55,1.43,5.71,2.81,10.33,4.09,14.04-21.79-4.86-39.99-24.37-42.57-32.78-25.45-50.13,2.93-71.26,18.09-78.97,6.71-49.67,78.78-5.78,114.87-29.69,14.34,19.82-3.39,44.65-14.58,45.12Z" style="fill:#20386f; fill-rule:evenodd;"/><path d="M226.12,606.56c23.21,27.84,42.69,48.05,58.46,60.46-14.38-50.98-29.77-105.89-46.16-164.73-5.75,4.86-10.37,9.72-13.92,14.5-1.27,23.83-1.58,42.03-.93,54.6,8.52,6.71,15.35,10.95,20.52,12.65-7.83,7.1-13.81,14.58-17.97,22.52Z" style="fill:#20386f; fill-rule:evenodd;"/><path d="M371.61,592.98c-11.3,24.99-23.98,47.74-38.06,68.18,4.13-62.31,6.25-114.76,6.28-157.48,6.36,3.55,11.07,6.94,14.54,10.64,.66,.77,1.31,1.54,1.93,2.31,6.67,23.83,10.99,42.49,12.96,55.99-6.25,2.85-11.53,5.32-15.81,7.4,5.82,3.93,11.92,8.25,18.16,12.96Z" style="fill:#20386f; fill-rule:evenodd;"/><path d="M224.5,516.79c-35.78,20.75-65.09,39.18-87.84,55.22-15.35,58.53-23.68,121.77-24.99,189.72,2.12,78.04,9.87,134.58,19.09,165.04,13.42,.54,27.76-.77,33.05-5.86,2.93-68.71,3.66-124.4,2.2-167.2,9.83-22.6,18.51-39.41,25.95-50.59,3.24,23.29,7.71,43.42,8.79,64.16-3.82,42.57-5.67,93.32-17.04,152.39,14.19,13.57,45.5,21.67,94.01,24.29,9.06-111.82,11.38-204.14,6.87-276.94-15.77-12.42-35.25-32.62-58.46-60.46,4.17-7.94,10.14-15.42,17.97-22.52-5.17-1.7-11.99-5.94-20.52-12.65-.66-12.57-.35-30.77,.93-54.6Z" style="fill:#223f81; fill-rule:evenodd;"/><path d="M333.55,661.16c13.88,148.3,19.66,244.71,27.84,278.1,23.29-2.54,41.18-13.42,51.98-24.21-2.89-84.37-12.76-138.2-16.89-187.56,7.52-80.98,22.87-155.4,6.32-190.03-17.82-11.95-33.32-18.9-46.5-20.82,6.67,23.83,10.99,42.49,12.96,55.99-6.25,2.85-11.53,5.32-15.81,7.4,5.82,3.93,11.92,8.25,18.16,12.96-11.3,24.99-23.98,47.74-38.06,68.18Z" style="fill:#223f81; fill-rule:evenodd;"/><path d="M423.78,561.6c-6.59-8.18-13.61-16.2-20.98-24.14,11.49,23.98,7.6,67.17,1.66,118.3,11.57,14.35,36.52,39.95,57.84,55.91,43.8,2.54,90.73-7.64,163.03-29.46,2.93-7.56,2.01-20.05-.92-30.46-70.45,4.09-113.48,3.39-141.75,10.64-18.28-45.58-41.49-72.65-58.88-100.8Z" style="fill:#223f81; fill-rule:evenodd;"/><path d="M284.27,540.16c-12.73-16.73-23.37-31.93-34.98-41.49,1.27-5.09,2.08-8.95,3.51-12.8,.62-1.77,4.59-3.93,9.83-4.94-.46,.85-1.5,4.4-.65,4.94,.23,.16,.42,.38,.62,.54,12.34,9.95,25.37,18.59,41.34,26.14-7.64,8.87-12.92,18.2-19.67,27.61Z" style="fill:#c4d1eb; fill-rule:evenodd;"/><path d="M334.36,503.14c.31,10.88,.04,19.82-.81,26.76-2.62-8.02-7.44-14.58-14.5-19.59-1.08-9.18-1.81-17.81-2.2-25.83,7.67,2.93,13.54,9.1,17.51,18.66Z" style="fill:#c4d1eb; fill-rule:evenodd;"/><path d="M349.59,843.16c-4.2-46.74-9.1-107.89-16.04-182.01,4.05-61.23,6.17-112.98,6.28-155.25-1.66-.62-3.51-1.23-5.44-1.77,.27,10.41,0,18.97-.85,25.76-2.62-8.02-7.44-14.58-14.5-19.59-2.2,4.17-2.85,8.79-6.36,13.96-3.78-3.93-7.37-7.71-9.72-10.57-7.13,8.56-12.22,17.43-18.7,26.45-12.61-16.5-23.14-31.62-34.59-41.18-3.93,2-7.44,3.93-10.56,5.78,16.12,57.92,31.31,111.98,45.46,162.26,3.12,50.13,3.01,109.51-.35,178.15,5.67,.85,11.49,1.47,17.47,1.7v-.62c0-1.31,1.12-2.47,2.51-2.54l24.49-.69c1.39,0,2.54,1.08,2.54,2.47v.38c6.02-.62,12.11-1.46,18.36-2.7Z" style="fill:#e0e8f5; fill-rule:evenodd;"/><path d="M327.77,536.69c-4.36-7.02-9.37-11.11-15.08-12.42-4.28,1.85-8.87,6.17-13.73,13.03,3.78,6.56,7.83,11.18,12.11,13.73-8.02,50.51-11.72,120.93-11.15,211.08,6.09,13.42,12.07,23.14,17.89,29.08,7.06-10.33,11.42-21.13,13.11-32.16-5.55-94.7-8.83-163.73-9.95-207.22,4.05-5.24,6.28-10.26,6.79-15.12Z" style="fill:#6d96ce; fill-rule:evenodd;"/><path d="M298.96,518.79c-2.81,3.78-5.36,7.64-7.94,11.49,2.35,1.54,5.36,3.39,9.02,5.48,3.28-4.32,6.4-7.56,9.37-9.64-3.59-2.62-7.06-5.09-10.45-7.33h0Zm23.17-6.09c-1.35,4.71-3.16,9.02-5.51,12.96,3.24,1.62,6.21,4.24,8.98,7.87,1.54-2.47,2.81-6.56,3.82-12.42-1.97-3.09-4.4-5.86-7.29-8.41Z" style="fill:#466fb5; fill-rule:evenodd;"/><path d="M406.12,1201.7c.35-75.81-2.2-165.19-7.64-267.92-10.18,6.09-23.25,10.79-40.03,14.34-4.05-10.64-7.71-35.78-13.11-81.9-4.63,1.23-9.33,2.24-14.11,3.01v2.54c0,1.39-1.16,2.54-2.54,2.62l-24.49,.7c-1.39,0-2.51-1.08-2.51-2.39v-1.93c-4.43-.16-8.95-.54-13.5-1.16-2.54,38.79-3.51,64.7-5.51,83.68-40.22-5.02-64.4-9.41-83.83-17.51-9.95,76.43-15.46,158.87-16.5,247.33-16.5,35.32-20.98,121.62-13.53,258.82,14.04,3.08,29.92,3.08,47.7,0,14.04-61.78,26.22-142.98,36.59-243.71,14.58-48.2,29.69-115.99,45.31-203.29,3.12,59.23,11.61,126.17,25.41,200.98-4.63,55.22,3.43,136.35,24.25,243.32,10.95,1,28.15-.54,51.71-4.7-2.43-86.99-.27-164.58,6.32-232.83Z" style="fill:#223f81; fill-rule:evenodd;"/><path d="M282.69,953.3c2-18.97,2.97-44.89,5.51-83.68-1.73-.23-3.51-.46-5.24-.77-1.39,23.98-3.12,49.05-5.25,75.11-34.94-1.85-60.92-6.63-78.04-14.19-.27,2.01-.54,4.01-.81,6.02,19.43,8.1,43.61,12.49,83.83,17.51h0Zm75.77-5.17c16.77-3.55,29.85-8.25,40.03-14.34-.15-2.32-.27-4.63-.39-6.86-9.91,5.94-22.25,10.72-36.71,12.34-3.39-14.11-6.44-39.33-9.83-74.89-2.04,.62-4.13,1.23-6.21,1.85,5.4,46.12,9.06,71.26,13.11,81.9Z" style="fill:#0e2952; fill-rule:evenodd;"/><path d="M167.31,1464.91c2.24,2.16,2.97,1.54,4.55,.46,2.58-14.19,29.34-15.81,35.98-1.31,1.97-.85,3.35-2.08,4.17-3.7,4.67,9.18,15.23,18.12,12.42,34.09-7.1,10.25-43.69,15.35-61-5.63-4.9-7.94,1.16-18.05,3.9-23.91h0Zm184.43-15.58c-4.47,12.11-5.44,22.05-.19,25.99,13.46,2.7,41.03,2.39,83.48,7.94,29.96-2.16,42.96-10.72,35.36-20.21-26.03,1.62-49.55-5.17-70.53-20.36-3.93,15.89-19.93,18.04-48.12,6.63Z" style="fill:#20386f; fill-rule:evenodd;"/><path d="M170.05,1442.16c-.73,8.48-1.47,16.27-2.16,23.29,1.81,1.46,2.55,.85,3.97-.08,2.58-14.19,29.34-15.81,35.98-1.31l.04-.08h.15v-.08h.12l.04-.08h.19v-.08h.11l.04-.08h.12l.04-.08h.12l.08-.08h.04l.08-.08h.08l.08-.08h.04l.12-.08h.04l.08-.08h.04l.08-.08h.04l.04-.08h.08l.04-.08h.12l.04-.08h0l.08-.08h.08l.04-.08h.04l.04-.08h.08l.04-.08h.04c-1.16-5.71-2.2-12.19-2.97-19.36-13.61,1.62-26.07,1.23-37.29-1.08h0Zm224.92-6.79c1.04,3.7,2.39,7.02,4.13,9.87-.15,.39-.31,.77-.5,1.16-.73,1.77-1.74,3.31-2.93,4.62h0c-.39,.46-.81,.85-1.23,1.23h-.04c-.11,.08-.27,.23-.39,.31l-.08,.08c-1.5,1.23-3.24,2.16-5.24,2.78h-.04c-.19,.08-.35,.08-.58,.16l-.08,.08c-.19,0-.39,.08-.54,.15h-.08c-.19,0-.42,.08-.62,.15h0c-.23,0-.42,.08-.62,.08h-.11l-.58,.15h-.08c-2.01,.31-4.24,.38-6.67,.31l-.08-.08h-.85l-.73-.08h-.15l-.69-.08h-.15l-.77-.15h-.04l-.81-.08h-.23c-1.97-.39-4.09-.77-6.32-1.31l-.23-.08-.85-.23h-.11l-.85-.23-.27-.08-.81-.23-.23-.08-.81-.23-.35-.08-.77-.23-.23-.08-.89-.31-.23-.08-.89-.31-.19-.08-.96-.31-.19-.08-.93-.31-1.16-.38c-.73-.31-1.47-.54-2.2-.85l-.19-.08-1.12-.46c0-3.4-.16-6.87-.54-10.49,10.03,.31,24.1-1.08,42.11-4.09Z" style="fill:#fab688; fill-rule:evenodd;"/><path d="M410.01,573.93c.93,22.67-1.93,50.74-5.55,81.83,11.57,14.35,36.52,39.95,57.84,55.91,43.8,2.54,90.73-7.64,163.03-29.46-52.56,11.88-106.27,18.89-161.22,21.13-11.14-8.02-28.19-24.91-51.25-50.67,.69-19.67-.23-45.89-2.85-78.74Z" style="fill:#0e2952; fill-rule:evenodd;"/><path d="M206.41,765.5c-2.51-31.54-4.9-58.77-7.13-81.52-1.62,6.48-4.05,12.88-7.33,19.13,3.24,23.29,7.71,43.42,8.79,64.16-3.82,42.57-5.67,93.32-17.04,152.39,1.31,1.23,2.74,2.39,4.32,3.55,9.29-36.32,15.38-88.92,18.39-157.71Z" style="fill:#0e2952; fill-rule:evenodd;"/><path d="M282.96,868.85c24.37,3.86,47.27,2.39,68.6-4.48-.62-6.71-1.27-13.73-1.97-21.21-23.52,4.4-45.27,5.09-65.36,2-.39,7.79-.81,15.65-1.27,23.68Z" style="fill:#9c7357; fill-rule:evenodd;"/><path d="M304.2,843.71l24.49-.69c1.39,0,2.54,1.08,2.54,2.47v26.3c0,1.39-1.16,2.54-2.54,2.62l-24.49,.7c-1.39,0-2.51-1.08-2.51-2.47v-26.3c0-1.39,1.12-2.54,2.51-2.62Z" style="fill:#fff; fill-rule:evenodd;"/><polygon points="306.52 848.41 306.52 870.24 326.34 869.69 326.34 847.87 306.52 848.41" style="fill:#9c7357; fill-rule:evenodd;"/><path d="M233.41,503.91c.96,.08,1.93,.15,3.01,.15l-.93,.77-2.08-.93h0Zm5.51,.08c.58-.08,1.12-.08,1.7-.15-.5,.31-1,.62-1.5,.92l-.19-.77h0Zm22.44-18.59c11.99,9.79,24.49,18.28,39.68,25.76,.96,.46,1.93,.93,2.89,1.39-.35,.39-.66,.77-.97,1.16,2.04,2.54,5.01,5.71,8.29,9.1,1.04-.31,2.04-.69,2.97-1.08,2.24-4.16,2.97-7.94,4.82-11.42-.23-2.08-.46-4.09-.65-6.01-.23-2.39-1-11.03-1.39-13.34,1.23-.08,2.39-.16,3.55-.31,1.39-.16,3.05-.46,4.98-.77l.08,.08c14.88-2.85,21.05-10.49,18.51-22.9,6.01-25.76,6.86-48.12,.31-54.14-1.08-10.95-2.51-21.44-4.2-31.23-36.98-4.78-64.9-2.24-76.81,15.5,1.5,10.8,4.78,24.83,9.76,42.18-2.16,4.09-5.36,6.25-9.52,6.48-5.28-10.34-9.68-16.43-13.23-18.43-17.62,7.87-14.31,20.05,9.91,36.55,1.43,5.71,2.81,10.33,4.09,14.04-.62,2.08-1.62,4.63-3.04,7.4Z" style="fill:#fab688; fill-rule:evenodd;"/><path d="M317.01,490.95c-6.59,.54-14,.31-22.25-.69,7.83,5.17,15.58,8.94,23.33,11.11-.11-1.47-.27-3.01-.38-4.47-.27-2.47-.5-4.86-.69-5.94Z" style="fill:#ed7d57; fill-rule:evenodd;"/><polygon points="264.18 987.69 254.11 1220.67 0 1193.91 30.08 987.69 264.18 987.69" style="fill:#e5bb9a; fill-rule:evenodd;"/><path d="M296.49,1191.98c-20.47,7.48-32.31,17.81-42.38,28.69l10.07-232.98,11.41-.31,20.9,204.6Z" style="fill:#9c7357; fill-rule:evenodd;"/><path d="M264.18,987.69l-29.58,93.47c-4.24,10.34-8.6,19.43-25.84,17.97l-163.07-10.34c-14.54-.92-14.88-8.25-15-18.2v-82.91h233.48Z" style="fill:#9c7357; fill-rule:evenodd;"/><path d="M146.45,1082.55l-41.49-2.7c-2.27-.16-4.59,1.46-4.94,3.78l-5.63,36.79c-.35,2.31,1.08,4.4,3.32,4.63l43.19,4.4c2.24,.23,4.67-1.46,4.9-3.78l3.93-38.56c.27-2.23-1-4.4-3.28-4.55Z" style="fill:#fff; fill-rule:evenodd;"/><polygon points="138.78 1092.5 136.08 1118.49 105.65 1115.4 109.47 1090.57 138.78 1092.5" style="fill:#9c7357; fill-rule:evenodd;"/><path d="M215.4,987.69c-2.54-9.02-8.48-16.58-16.5-22.44-3.47-2.54-7.33-4.78-11.45-6.63-2.47-6.4-17.2-11.72-35.21-12.42-19.09-.77-34.9,4.01-36.44,10.8-1.19,.46-2.39,1.08-3.51,1.62-11.99,6.17-20.94,15.73-23.83,29.07h8.75c2.81-9.79,9.79-16.89,18.9-21.59,1.23-.62,2.5-1.16,3.82-1.77,5.98,4.32,17.7,7.48,31.31,8.02,14.27,.54,26.68-2,32.7-6.09,3.62,1.62,6.98,3.55,9.99,5.79,5.75,4.24,10.14,9.41,12.49,15.65h8.98Z" style="fill:#9c7357; fill-rule:evenodd;"/><path d="M173.75,956.61c.15,5.63,2.16,14.11-1.39,18.12-9.37,10.57-32.31,11.26-42.15,4.48-4.24-2.93-4.74-12.42-4.86-18.51,5.05-12.96,7.79-24.99,8.21-35.94,10.03-6.71,25.18-7.33,30.23-3.85l9.95,35.71Z" style="fill:#fab688; fill-rule:evenodd;"/><path d="M1689.84,912.19c6.63,6.56,14.11,9.72,23.29,8.48-8.95,5.71-20.36-.08-23.29-8.48Z" style="fill:#f48661; fill-rule:evenodd;"/><path d="M2044.75,509.23c8.48-40.64-10.95-80.98-48.12-96.25,.15-23.06-7.4-52.52-23.44-68.33-31.62-31.31-91.93-42.26-115.14-2.31-30.69,17.12-54.83,54.22-45.73,88.15-29.77,30.38-18.43,85.45,24.99,111.36-.77,34.17,17.59,68.1,47.82,82.67,7.25,3.55,18.66,8.41,20.05,9.95-1.93-1.85,22.37,64.94,97.79,34.32,77.04-31.08,92.08-118.92,41.8-159.56Z" style="fill:#20386f; fill-rule:evenodd;"/><path d="M1682.2,901.78s5.01-5.25,6.55-7.17c1.85-2.23,6.63-9.25,6.63-9.25,0,0,15.73-25.22,13.65-26.14-2-1-7.17,1.93-8.71,3.16-1.54,1.23-3.47,2.54-4.94,3.78-1.54,1.16-3.78,1.08-5.55-.54-1.62-1.69,3.4-8.02,5.55-9.71,6.79-5.71,27.92-17.28,30.08-18.59,2.62-1.54,21.44-50.05,29.3-66.17h0c11.95-26.76,22.98-54.83,24.22-57.69l15.11-124.01,49.05-12.57s-14.81,137.74-16.35,144.6c-.77,3.24-33.47,63.24-33.55,63.24-18.05,28.61-34.01,53.75-36.94,58.61,0,0-4.71,17.04-7.1,28-2.31,10.95-8.95,20.05-10.18,23.06-.15,.46-3.47,10.95-12.19,21.44-7.48,9.1-4.62-2.86-4.62-2.86,0,0,10.79-19.36,9.1-19.9-1.39-.39-6.63,10.49-14.81,20.59-2.08,2.55-4.16,5.17-6.17,7.48-5.09,6.09-10.33,4.86-6.17-2.39,1.54-2.55,4.17-6.79,6.48-9.56,2.47-2.93,3.78-6.4,5.48-9.18,3.31-5.63,5.86-9.57,5.55-9.64-.39,0-.54-1.54-2.85,1.16-2.78,3.32-7.17,11.42-11.57,15.89-2.62,2.55-7.63,8.17-7.63,8.17,0,0-9.02,8.1-9.64,7.71-3.31-2,1.47-9.72,5.4-12.65,1.46-3.16,6.94-8.94,6.94-8.94,0,0,8.18-14.11,6.17-15.19-1.62-1-28.15,28.77-31.31,26.53-2.55-1.93,5.01-11.26,5.01-11.26Z" style="fill:#f9af79; fill-rule:evenodd;"/><path d="M1731.33,857.9s-14.42,8.1-22.05,1.39c0,0,2.85,5.4,9.18,5.55,6.32,0,12.88-6.94,12.88-6.94Z" style="fill:#f27458; fill-rule:evenodd;"/><path d="M1889.27,919.05l-28.53,254.73s13.88,53.83,12.26,69.33c-1.7,15.19-31.08,216.02-31.08,216.02l1.31,11.03,.69,32.62-109.82,.85s23.13-10.34,55.53-30.77c2.39-1.47,7.87-6.33,9.25-15.96,8.64-61.85-8.48-268.23-8.48-268.23l-13.42-268.84,112.29-.77Z" style="fill:#f9af79; fill-rule:evenodd;"/><path d="M1975.88,966.02c6.09,1.46,15.65,220.18,20.75,229.9,32.39,61.47,40.02,248.17,40.02,248.17l13.34,26.14-3.08,25.22s-24.06,13.88-41.03,4.55l2.62-25.3,2-33.7-81.59-232.67-44.73-237.38,91.7-4.94Z" style="fill:#f9af79; fill-rule:evenodd;"/><path d="M1766.81,1084.48l-3.93-150.85c-.7-42.65,13.57-83.52,31.08-122.39l37.02-62.16c11.95,3.78,18.51-31.39,31.08-30,9.49,1.08,15.96,3.24,24.75,3.78,16.5,1,26.53,33.24,44.27,31.23,.08,1,3.55,9.18,3.78,9.95,8.48,22.83,37.64,43.11,49.2,110.67,13.19,76.89,13.03,209,11.42,218.02-125.32,5.47-155.25,9.79-228.67-8.25Z" style="fill:#20386f; fill-rule:evenodd;"/><path d="M1844.54,1511.26h-113.52c-4.17-.46-5.17-3.86-3.7-6.02,2.93-4.24,16.19-7.48,31.08-14.42,26.15,2.77,80.75-14.65,84.83-20.67,2.39,12.11,3.63,40.57,1.31,41.11Z" style="fill:#0e2952; fill-rule:evenodd;"/><path d="M2049.99,1470.16s-10.18,28.61-20.98,27.69c-10.95-.77-20.51-23.21-20.51-23.21,0,0-4.01,18.89-2.16,29.3,1.93,10.49,17.43,21.21,28.07,16.43,10.64-4.55,25.06-28.77,15.58-50.21Z" style="fill:#0e2952; fill-rule:evenodd;"/><path d="M1839.15,651.52s-15.89-2-31-7.25c-9.02-3.08-24.21-10.03-24.21-10.03,0,0,8.48-71.03,29.92-114.14,8.17-16.5,17.43-25.6,28.61-28.38,.85-.23-3.31,159.79-3.31,159.79Z" style="fill:#466fb5; fill-rule:evenodd;"/><path d="M1811.69,571.08c3.16-11.57,10.33-26.68,14.34-37.17,6.94-17.82,9.1-34.32,15.11-41.41,3.39-3.86,45.66-3.24,50.9-3.78,2.08-.23,10.57,.31,18.74,.85v-.08c4.86,.62,52.52,4.24,59.46,7.17,34.32,33.24,50.9,77.89,76.73,126.71,0,0-19.36,10.95-34.78,17.89-6.63,2.93-19.51,7.79-19.51,7.79,0,0-16.27-27.99-25.53-40.26l-4.32-9.25c-.31-.16-1.85-1.77-2.24-.77-.69,1.7-29.69,155.32-29.69,155.32,0,0-80.9,7.48-101.49-2.31,0,0-3.86-102.88-11.41-132.96-2.93-11.11-11.57-29.15-6.32-47.74Z" style="fill:#6d96ce; fill-rule:evenodd;"/><path d="M1916.58,442.21s-6.63,35.94-5.25,49.97c1.31,14.19-5.09,59.85-33.62,59.92-28.54,.23-9.1-47.35-6.4-61.23,2.7-13.81,7.02-67.33,7.02-67.33l38.25,18.66Z" style="fill:#f9af79; fill-rule:evenodd;"/><path d="M1876.55,443.83c.46-11.72,2.62-21.05,2.62-21.05l37.41,19.43s-1.31,7.4-2.7,16.73c-16.74,3.55-30-4.24-37.33-15.12Z" style="fill:#f27458; fill-rule:evenodd;"/><path d="M1917.42,338.1s16.12,5.71,24.83,22.9c8.72,17.27,11.65,65.63-23.67,84.14-35.24,18.59-58.46-15.73-56.3-46.35,2.16-30.69,11.95-70.87,55.14-60.69Z" style="fill:#f9af79; fill-rule:evenodd;"/><path d="M1851.79,390.23c-.93,8.02,1.93,14.73,6.32,15.19,4.47,.39,8.79-5.71,9.72-13.73,.92-7.87-1.85-14.65-6.33-15.12-4.47-.38-8.79,5.71-9.71,13.65Z" style="fill:#f9af79; fill-rule:evenodd;"/><path d="M1939.09,403.57c-3.09,7.71-1.54,15.81,3.55,18.05,4.94,2.31,11.57-2.08,14.65-9.79,3.09-7.64,1.54-15.73-3.47-18.05-5.01-2.24-11.57,2.08-14.73,9.79Z" style="fill:#f9af79; fill-rule:evenodd;"/><path d="M1924.75,605.79l1.7,2.24c-.77,6.94,3.08,12.34,9.95,14.04l87.69,123.55-105.5,72.65c-6.02,4.16-14.19,2.78-18.51-3.17l-84.52-119.23c-4.01-5.48-2.62-13.03,2.93-16.81l106.27-73.27Z" style="fill:#466fb5; fill-rule:evenodd;"/><path d="M1936.4,622.06h0l-100.88,69.56c-5.78,4.09-12.8,4.17-15.65,.31-1.31-1.93-1.39-4.55-.31-7.17,.93-2.54,3.09-5.17,6.02-7.25l100.88-69.49h0c-.69,6.86,3.16,12.26,9.95,14.04Z" style="fill:#eff8f7; fill-rule:evenodd;"/><path d="M2039.66,627.38c-7.02,3.86-17.97,9.64-27.45,13.88-4.47,1.93-11.72,4.7-15.96,6.33,10.34,19.28,20.13,39.18,18.9,43.26-1.08,3.62-93.7,71.72-93.7,71.72l-18.51-2.39s-32.62,3.62-33.4,7.48c-.77,3.62,13.81,2.78,15.73,3.24,1.08,.31,3.24,1,5.09,2.24-2.93,1.31-6.79,3.16-10.49,4.55,10.8,6.25,18.43,15.5,22.36,26.37,9.02-2.16,21.6-7.17,37.48-18.59,21.59-10.64,129.87-71.57,131.57-83.14,.93-6.86-15.58-42.57-31.62-74.96Z" style="fill:#f9af79; fill-rule:evenodd;"/><path d="M1868.14,769.98s-4.16,7.87-2.77,13.73c1.39,5.86,2.77,7.48,4.32,12.72,1.46,5.4,1.69,6.63,7.09,11.26,5.4,4.71,31.46-5.32,31.46-5.32l-17.89-29.23-10.34,3.86s-6.55-.69-8.33-2.55c-1.7-1.93-3.55-4.47-3.55-4.47Z" style="fill:#f9af79; fill-rule:evenodd;"/></svg>