<?xml version="1.0" encoding="UTF-8"?><svg id="a" xmlns="http://www.w3.org/2000/svg" viewBox="0 0 1365.12 1554.53"><ellipse cx="371.14" cy="1480.36" rx="371.14" ry="74.17" style="fill:#d1c6e2;"/><path d="M150.29,839.13c20.87-13.44,43.66-22.7,67.17-27.8v-30.82c0-9.83,8.03-17.86,17.86-17.86h12.67s25.98,0,25.98,0h12.68c9.83,0,17.86,8.04,17.86,17.86v30.82c23.51,5.09,46.29,14.35,67.17,27.8l21.77-21.78c6.95-6.95,18.32-6.95,25.26,0l8.96,8.96,18.37,18.37,8.96,8.96c6.95,6.95,6.95,18.32,0,25.27l-21.77,21.76c13.45,20.88,22.71,43.66,27.8,67.17h30.81c9.83,0,17.87,8.04,17.87,17.87v12.67s0,25.98,0,25.98v12.68c0,9.83-8.03,17.86-17.86,17.86h-30.81c-5.09,23.51-14.36,46.29-27.8,67.17l21.78,21.77c6.95,6.95,6.95,18.31,0,25.26l-8.96,8.96-18.38,18.37-8.96,8.96c-6.95,6.95-18.32,6.95-25.26,0l-21.77-21.77c-20.88,13.44-43.66,22.71-67.17,27.79v30.82c0,9.83-8.03,17.86-17.86,17.86h-51.33c-9.83,0-17.86-8.04-17.86-17.86v-30.82c-23.51-5.09-46.29-14.35-67.16-27.79l-21.77,21.77c-6.95,6.95-18.32,6.95-25.27,0l-8.96-8.96-18.37-18.36-8.96-8.96c-6.95-6.95-6.95-18.32,0-25.27l21.77-21.76c-13.45-20.88-22.71-43.66-27.8-67.17H30.12c-9.83,0-17.86-8.03-17.86-17.86v-51.33c0-9.83,8.03-17.86,17.86-17.86h30.81c5.09-23.51,14.36-46.29,27.8-67.17l-21.77-21.77c-6.95-6.95-6.95-18.32,0-25.26l8.96-8.96,18.37-18.37,8.96-8.96c6.95-6.95,18.31-6.95,25.26,0l21.78,21.78h0Zm434.72-91.4c-9.71-.99-18.46,6.14-19.44,15.85l-1.75,17.13c-11.81,2.81-22.86,7.83-32.6,14.66l-13.98-10.08c-7.91-5.71-19.05-3.91-24.76,4l-15.85,21.96c-5.71,7.91-3.91,19.05,4,24.76l13.97,10.08c-1.68,5.65-2.87,11.54-3.49,17.61-.62,6.07-.64,12.08-.14,17.95l-15.71,7.05c-8.9,4-12.91,14.55-8.91,23.45l11.1,24.71c4,8.9,14.54,12.92,23.44,8.92l15.73-7.06c8.16,8.65,17.96,15.8,28.98,20.93l-1.75,17.13c-.99,9.7,6.14,18.45,15.85,19.44l26.95,2.75c9.7,.99,18.46-6.14,19.44-15.85l1.75-17.12c11.82-2.8,22.86-7.83,32.6-14.66l13.97,10.08c7.92,5.71,19.06,3.91,24.76-4l15.86-21.97c5.71-7.91,3.91-19.05-4-24.77l-13.97-10.08c1.68-5.64,2.86-11.53,3.48-17.6s.65-12.08,.14-17.95l15.72-7.06c8.89-3.99,12.91-14.54,8.92-23.44l-11.1-24.71c-4-8.9-14.55-12.91-23.45-8.92l-15.72,7.06c-8.16-8.65-17.97-15.8-28.98-20.93l1.75-17.12c.99-9.71-6.14-18.46-15.85-19.45l-26.95-2.75h0Zm.81,81.93c24.13,0,43.69,19.56,43.69,43.69s-19.56,43.68-43.69,43.68-43.69-19.56-43.69-43.68,19.56-43.69,43.69-43.69h0Zm-30.17,194.18c-9.67,1.3-16.51,10.28-15.21,19.95l2.3,17.06c-10.84,5.48-20.4,12.94-28.28,21.85l-15.94-6.55c-9.03-3.71-19.44,.64-23.15,9.66l-10.3,25.05c-3.71,9.03,.64,19.44,9.66,23.15l15.93,6.54c-.32,5.89-.1,11.89,.72,17.94,.82,6.06,2.19,11.9,4.05,17.49l-13.63,10.52c-7.72,5.96-9.16,17.16-3.2,24.88l16.55,21.44c5.96,7.73,17.16,9.17,24.88,3.21l13.64-10.53c9.96,6.51,21.15,11.17,33.06,13.61l2.29,17.05c1.3,9.68,10.27,16.52,19.94,15.22l26.84-3.61c9.67-1.3,16.51-10.27,15.21-19.94l-2.29-17.06c10.84-5.49,20.4-12.95,28.28-21.86l15.94,6.55c9.02,3.71,19.44-.64,23.14-9.66l10.3-25.05c3.71-9.03-.63-19.44-9.65-23.15l-15.94-6.54c.32-5.88,.1-11.88-.71-17.94-.82-6.06-2.19-11.89-4.05-17.49l13.64-10.52c7.72-5.96,9.16-17.16,3.21-24.88l-16.55-21.44c-5.96-7.73-17.16-9.16-24.89-3.21l-13.64,10.53c-9.96-6.51-21.16-11.18-33.06-13.6l-2.29-17.06c-1.3-9.67-10.28-16.51-19.94-15.21l-26.85,3.61h0Zm30.07,78.29c24.13,0,43.68,19.56,43.68,43.68s-19.55,43.68-43.68,43.68-43.68-19.56-43.68-43.68,19.56-43.68,43.68-43.68h0Zm-324.75-238.74c-40.86,0-77.87,16.56-104.65,43.35-26.78,26.78-43.35,63.78-43.35,104.64s16.56,77.87,43.35,104.65c26.78,26.78,63.78,43.35,104.65,43.35s77.86-16.57,104.64-43.35c26.79-26.78,43.35-63.78,43.35-104.65s-16.57-77.86-43.35-104.64c-26.78-26.79-63.78-43.35-104.64-43.35h0Zm76.06,71.93c-19.46-19.46-46.35-31.5-76.06-31.5s-56.6,12.04-76.06,31.5c-19.47,19.46-31.5,46.35-31.5,76.06s12.04,56.6,31.5,76.06c19.46,19.46,46.35,31.5,76.06,31.5s56.6-12.04,76.06-31.5c19.46-19.47,31.5-46.36,31.5-76.06s-12.04-56.6-31.5-76.06Z" style="fill:#d7cce5; fill-rule:evenodd;"/><path d="M653.29,59.07h406.37c16.43,0,29.76,13.34,29.76,29.76v209.66c0,16.43-13.34,29.76-29.76,29.76h-406.37c-16.43,0-29.76-13.34-29.76-29.76V88.83c0-16.43,13.34-29.76,29.76-29.76Z" style="fill:#b6a9d2;"/><rect x="643.96" y="79.49" width="425.05" height="228.34" rx="7.93" ry="7.93" style="fill:#8071b3;"/><path d="M377.01,437.14h406.37c16.43,0,29.76,13.34,29.76,29.76v209.66c0,16.43-13.34,29.76-29.76,29.76H377.01c-16.43,0-29.76-13.34-29.76-29.76v-209.66c0-16.43,13.34-29.76,29.76-29.76Z" style="fill:#b6a9d2;"/><rect x="367.68" y="457.56" width="425.05" height="228.33" rx="7.93" ry="7.93" style="fill:#8071b3;"/><path d="M928.98,437.14h406.37c16.43,0,29.76,13.34,29.76,29.76v209.66c0,16.43-13.34,29.76-29.76,29.76h-406.38c-16.43,0-29.76-13.34-29.76-29.76v-209.66c0-16.43,13.34-29.76,29.76-29.76Z" style="fill:#b6a9d2;"/><rect x="919.65" y="457.56" width="425.05" height="228.33" rx="7.93" ry="7.93" style="fill:#8071b3;"/><path d="M748.49,811.78h406.38c16.36,0,29.75,13.39,29.75,29.76v209.66c0,16.37-13.39,29.76-29.75,29.76h-406.38c-16.38,0-29.76-13.39-29.76-29.76v-209.66c0-16.36,13.39-29.76,29.76-29.76Z" style="fill:#b6a9d2; fill-rule:evenodd;"/><path d="M747.08,832.21h409.19c4.37,0,7.93,3.56,7.93,7.92v212.48c0,4.36-3.56,7.93-7.93,7.93h-409.19c-4.36,0-7.93-3.57-7.93-7.93v-212.48c0-4.36,3.57-7.92,7.93-7.92Z" style="fill:#8071b3; fill-rule:evenodd;"/><path d="M748.49,1156.97h406.38c16.36,0,29.75,13.39,29.75,29.76v209.66c0,16.37-13.39,29.76-29.75,29.76h-406.38c-16.38,0-29.76-13.39-29.76-29.76v-209.66c0-16.37,13.39-29.76,29.76-29.76Z" style="fill:#b6a9d2; fill-rule:evenodd;"/><path d="M747.08,1177.4h409.19c4.38,0,7.93,3.55,7.93,7.93v212.47c0,4.38-3.55,7.93-7.93,7.93h-409.19c-4.38,0-7.93-3.55-7.93-7.93v-212.47c0-4.38,3.55-7.93,7.93-7.93Z" style="fill:#8071b3;"/><polygon points="570.38 437.14 570.38 374.3 850.94 374.3 850.94 328.25 870.58 328.25 870.58 374.3 1151.13 374.3 1151.13 437.14 1131.49 437.14 1131.49 393.94 590.02 393.94 590.02 437.14 570.38 437.14" style="fill:#2b2870; fill-rule:evenodd;"/><polygon points="1151.13 706.32 1151.13 755.2 1280.96 755.2 1280.96 1301.39 1184.62 1301.39 1184.62 1281.75 1261.32 1281.75 1261.32 956.19 1184.62 956.19 1184.62 936.55 1261.32 936.55 1261.32 774.84 1131.49 774.84 1131.49 706.32 1151.13 706.32" style="fill:#2b2870; fill-rule:evenodd;"/><path d="M203.57,236.27c8.16,.58,16.02-9.1,18.29-11.99,8.68-11.01,14.21-23.95,16.44-31.2-1.69-4.82-3.46-10.91-5.31-18.27-31.44-21.35-35.73-37.15-12.88-47.39,4.6,2.58,10.31,10.53,17.14,23.85,5.45-.21,9.58-3,12.39-8.36-6.5-22.48-10.71-40.73-12.68-54.77,15.48-23.02,51.72-26.3,99.68-20.09,2.22,12.77,4.05,26.29,5.48,40.56,8.48,7.81,7.38,36.78-.43,70.16,3.9,18.98-7.81,29.34-35.16,31.08-.27,4.58,.16,9.85,.24,13.07,.07,2.91,.17,8.6,3.22,9.49l5.07,1.25c-.51,67.87-35.25,80.92-111.48,2.61Z" style="fill:#fab688; fill-rule:evenodd;"/><path d="M336.64,68.06c-47.97-6.22-84.2-2.93-99.68,20.09,1.97,14.03,6.18,32.29,12.68,54.77-2.81,5.35-6.95,8.14-12.39,8.36-6.83-13.32-12.54-21.27-17.15-23.85-22.84,10.24-18.55,26.04,12.89,47.39,1.84,7.36,3.62,13.44,5.31,18.27-28.29-6.33-51.94-31.62-55.27-42.56-32.99-65.02,3.8-92.48,23.49-102.5,8.69-64.39,102.55-8.72,127.25-48.02,51.67,29.48,17.39,67.48,2.88,68.06Z" style="fill:#071023; fill-rule:evenodd;"/><path d="M275.01,203.25c7.67,3.79,18.17,5.99,31.52,6.61-.26,4.52-.07,9.72,.22,12.94-13.42-2.59-24-9.1-31.74-19.55Z" style="fill:#ed7d57; fill-rule:evenodd;"/><path d="M146.37,1507.37c-29.79-10.49-32.19-25.84-48.24-33.34-16.17-7.55-18.02-21-2.22-35.6,11.68,9.33,26.16,20.8,33.84,14.72,5.12-4.06,22.5-3.79,25.94,2.12,15.13,35.18,36.18,24.03,40.34,40.04,.48,21.32-35.99,16.88-49.65,12.06Z" style="fill:#071023; fill-rule:evenodd;"/><path d="M404.52,1472.38c-52.46-.84-91.69-1.47-109.8-7.19-19.55-6.17-15.51-18.09-4.27-37.16,49.45,22.75,36.27-4.68,59.4-1.19,16.25,13.08,40.33,21.85,72.2,26.3,13.49,9.95,8,18.8-17.52,19.24Z" style="fill:#071023; fill-rule:evenodd;"/><path d="M378.32,243.95c-26.19-7.6-49.71-12.21-70.55-13.83-3.78,57.54-33.79,57.14-90.05-1.2-54.18,4.55-64.78,5.25-94.85,15-65.04,62.13-71.03,133.85-105.03,215.79,37.64,1.68,54.54,6.22,80.13,15.34,5.49-19.64,10.1-35.45,13.8-47.42-1.05,108.06-1.44,182.1-1.2,222.11,124.51,49.33,227.06,32.45,268.95-5.99,.58-96.05,1.38-172.09,2.4-228.12,14.89,17.55,28.7,31.16,41.43,40.82,30.52-35,51.2-49.09,68.51-69.72-38.32-62.92-93.23-121.46-113.54-142.79Z" style="fill:#ed2c3f; fill-rule:evenodd;"/><path d="M629.22,349.21c-65.4,27.17-111.19,49.63-137.38,67.36l-11.63-17.21c-10.81,10.84-23.17,21.46-38.23,36.89,13.93,14.58,28.87,26.57,46.29,36.7,45.44-4.85,95.67-39.28,150.69-103.25,17.11-3.42,29.71-9.61,37.78-18.6,.43-8.25-3.72-16.51-12.46-24.79,22.81-14.87,31.89-25.51,27.24-31.92-35.74,22.1-56.51,40.38-62.3,54.82Z" style="fill:#fab688; fill-rule:evenodd;"/><path d="M379.52,643.76c-2.46,9.35,7.72,64.22,9.41,92.83,16.55,102.18,2.37,235.17-6.54,406.19-15.95,60.26-39.48,140.57-37.95,253.6-27.77,8.49-37.84,9.37-62.91,3-17.52-117.97-5.57-212.43,10.27-256.06-10.14-67.43-25.28-142.92-47.32-251.79-24.83,118.64-58.05,206.69-72.44,264.14-2.84,64.05-15.8,150.5-22.57,259.33-20.63,6.21-33.46,8-54.85,5.4-27.76-100.04-23.1-208.91-11.34-326.58,12.52-141.47-8.12-301.21,12.54-356.59,10.57-32.81,11.92-61.94,14.77-87.48,103.87,34.57,193.52,32.57,268.94-6Z" style="fill:#c6202d; fill-rule:evenodd;"/><path d="M129.73,539.99c-6.67,.99-12.98,1.87-18.92,2.67-.31,47.67-.39,83.37-.24,107.11,5.88,2.63,14.16,5.67,20.6,6.43-.04-3.06-.99-10.13-1.03-13.15-.41-36.45-.56-70.79-.42-103.06h0Zm304.4-95.49c-18.33-15.27-35.78-40.06-52.35-74.37,1.86,11.95,2.61,27.95,2.23,47.98,14.1,16.36,27.21,29.15,39.34,38.36,3.73-4.28,7.32-8.26,10.78-11.97h0Zm-299.22-92.94c-8.07,25.99-15.8,51.34-23.14,76.08-.2,20.89-.38,40.5-.53,58.84,5.34-.5,11.59-.84,19.01-1.02,.76-50.72,2.32-95.36,4.67-133.9Z" style="fill:#c6202d; fill-rule:evenodd;"/><path d="M299.25,388.93h137.06c6.29,0,10.61,5.14,9.61,11.42l-30.76,194.17c-.99,6.29-6.95,11.42-13.23,11.42h-137.06c-6.29,0-10.61-5.14-9.61-11.42l30.76-194.17c.99-6.28,6.95-11.42,13.23-11.42Z" style="fill:#1b2452; fill-rule:evenodd;"/><path d="M30.47,460.44c-5.93,24.04-8.39,46.03-3.55,75.19,14.79,21.48,74.49,9.47,228.19-16.21,5.51,5.03,16.91,10.03,34.22,7.8,16.08-4,16.85-8.2,34.88-25.21,4.37-13.23,3.48-23.34-2.7-30.31-20.3,11.95-30.99,18.3-53.85,19.06,6.08-15.66,7-25.77,2.75-30.33-7.8,6.25-12.89,15.66-15.24,28.21-121.18-5.26-153.14-4.56-169.26,3.9,1.75-7.61,3.29-14.29,4.65-20.06-18.87-6.43-34.22-10.16-60.09-12.03Z" style="fill:#fab688; fill-rule:evenodd;"/><path d="M293.93,1402.14c1.24,10.28,1.41,19.52,.53,27.68,41.38,17.98,34.34-2.78,50.88-3.29-4.15-7.31-6.84-16.65-8.08-28.02-18.04,5.17-28.3,6.33-43.34,3.63h0Zm-192.8,18.95c.02,7.49-.71,14.07-2.18,19.75,11.06,8.75,23.78,17.87,30.8,12.31,3.37-2.67,12.03-3.46,18.54-2.02-2.69-9.04-4.8-20.37-6.35-33.97-14.5,3.91-25.64,5.21-40.81,3.92Z" style="fill:#fab688; fill-rule:evenodd;"/><path d="M388.93,736.6c-73.05,68.12-170.76,68.33-293.12,.65-20.66,55.38-.02,215.12-12.54,356.59-11.76,117.67-16.42,226.54,11.34,326.58,2.26,.28,4.44,.5,6.52,.68,15.16,1.29,26.31-.01,40.81-3.92,2.4-.64,4.9-1.36,7.52-2.15,6.77-108.84,19.73-195.29,22.57-259.33,14.39-57.46,47.61-145.5,72.44-264.14,22.04,108.87,37.19,184.35,47.32,251.79-15.84,43.63-27.79,138.09-10.27,256.06,4.57,1.16,8.64,2.08,12.41,2.76,15.04,2.7,25.29,1.54,43.34-3.63,2.26-.65,4.64-1.36,7.17-2.13-1.53-113.03,22-193.34,37.95-253.6,8.91-171.02,23.09-304.01,6.54-406.19Z" style="fill:#1b2452; fill-rule:evenodd;"/><path d="M273.62,1318.33c26.65,7.25,51.06,9.43,73.21,6.55,.48-5.85,1.02-11.59,1.61-17.24-24.29,3.16-49.42,1.53-75.37-4.88,.12,5.11,.3,10.3,.55,15.56h0Zm-194.78,20.29c28.99,3.47,54.66,1.55,77.03-5.75,.56-6.09,1.13-12.09,1.69-18-25.09,8.19-51.87,10.99-80.34,8.4,.48,5.14,1.02,10.26,1.61,15.35h0Zm73.28,38.3c.47-6.04,.95-11.99,1.44-17.87-22.39,6.12-46.06,8.09-71.05,5.89,.84,5.19,1.76,10.36,2.75,15.51,24.72,2.77,47.01,1.6,66.86-3.53h0Zm193.41-33.34c-22.59,3.74-46.08,3.33-70.45-1.22,.39,5.17,.84,10.39,1.36,15.67,24.92,5.27,47.69,6.21,68.32,2.82,.2-5.85,.45-11.61,.77-17.27Z" style="fill:#071023; fill-rule:evenodd;"/></svg>