<?xml version="1.0" encoding="UTF-8"?><svg id="a" xmlns="http://www.w3.org/2000/svg" viewBox="0 0 2661.24 2408.18"><path d="M1488.45,65.25l-65.82,38.28c-22.18,12.87-29.78,41.55-16.86,63.78l14.53,24.93c17.14,29.5,9.64,42.79,4.32,47.59-14.61,13.11-28.21,27.31-41.84,41.46-3.99,4.18-16.67,18.43-50.15-1.04l-22.93-13.3c-22.19-12.92-50.92-5.32-63.79,16.86l-38.28,65.83c-12.91,22.18-5.32,50.86,16.91,63.78l22.7,13.2c31.34,18.24,30.55,27.59,26.6,40.89-5.46,18.24-11.29,36.52-15.28,55.42-3.56,16.81-1.96,28.83-44.66,28.83h-26.17c-25.69,0-46.64,20.99-46.64,46.68v76.13c0,25.69,20.95,46.64,46.64,46.64h26.17c42.7,0,41.09,12.01,44.66,28.88,3.99,18.9,9.82,37.14,15.28,55.42,3.96,13.3,4.75,22.65-26.6,40.89l-22.7,13.2c-22.23,12.92-29.82,41.6-16.91,63.78l38.28,65.82c12.87,22.18,41.6,29.78,63.79,16.86l22.93-13.35c33.48-19.42,46.16-5.22,50.15-1.04,13.63,14.2,27.22,28.4,41.84,41.51,5.32,4.75,12.83,18.09-4.32,47.54l-14.53,24.98c-12.92,22.18-5.32,50.86,16.86,63.78l65.82,38.28c22.18,12.92,50.87,5.32,63.78-16.86l14.49-24.93c17.38-29.92,34.52-28.73,41.74-26.41,20.99,6.7,40.37,10.97,62.03,16.62,7.93,2.04,21.47,7.84,21.47,43.46v26.69c0,25.69,20.96,46.69,46.64,46.69h76.13c25.69,0,46.65-20.99,46.65-46.69v-26.69c0-35.62,13.57-41.41,21.45-43.46,21.66-5.65,41.03-9.93,62.03-16.62,7.22-2.33,24.37-3.51,41.75,26.41l14.48,24.93c12.92,22.18,41.6,29.78,63.78,16.86l65.82-38.28c22.18-12.92,29.78-41.6,16.86-63.78l-14.53-24.98c-17.14-29.45-9.64-42.79-4.32-47.54,14.63-13.11,28.21-27.31,41.84-41.51,3.99-4.18,16.67-18.38,50.15,1.04l22.94,13.35c22.18,12.92,50.92,5.32,63.78-16.86l38.29-65.82c12.91-22.18,5.31-50.86-16.92-63.78l-22.7-13.2c-31.38-18.24-30.58-27.59-26.6-40.89,5.46-18.28,11.35-36.52,15.29-55.42,3.56-16.86,2-28.88,44.64-28.88h26.17c25.7,0,46.64-20.95,46.64-46.64v-76.13c0-25.69-20.93-46.68-46.64-46.68h-26.17c-42.65,0-41.08-12.02-44.64-28.83-3.94-18.9-9.83-37.19-15.29-55.42-3.99-13.3-4.79-22.65,26.6-40.89l22.7-13.2c22.23-12.92,29.82-41.6,16.92-63.78l-38.29-65.83c-12.86-22.18-41.6-29.78-63.78-16.86l-22.94,13.3c-33.48,19.47-46.16,5.23-50.15,1.04-13.63-14.15-27.21-28.35-41.84-41.46-5.32-4.79-12.82-18.09,4.32-47.59l14.53-24.93c12.92-22.23,5.32-50.91-16.86-63.78l-65.82-38.28c-22.18-12.91-50.86-5.32-63.78,16.86l-14.48,24.93c-17.37,29.87-34.53,28.69-41.75,26.41-20.99-6.7-40.37-11.02-62.03-16.67-7.88-2.04-21.45-7.79-21.45-43.41v-26.74c0-25.69-20.96-46.64-46.65-46.64h-76.13c-25.68,0-46.64,20.94-46.64,46.64v26.74c0,35.62-13.54,41.36-21.47,43.41-21.66,5.65-41.03,9.97-62.03,16.67-7.22,2.28-24.36,3.46-41.74-26.41l-14.49-24.93c-12.92-22.18-41.6-29.78-63.78-16.86h0Zm288.23,272.56c164.94,0,298.68,133.74,298.68,298.68s-133.74,298.73-298.68,298.73-298.71-133.74-298.71-298.73,133.73-298.68,298.71-298.68h0Zm0-74.61c206.17,0,373.29,167.12,373.29,373.29s-167.12,373.34-373.29,373.34-373.34-167.12-373.34-373.34,167.13-373.29,373.34-373.29h0Zm0,0" style="fill:#cfdaee; fill-rule:evenodd;"/><path d="M369.77,1904.06c204.26,0,369.82,26.45,369.82,59.13s-165.56,59.13-369.82,59.13S0,1995.81,0,1963.18s165.56-59.13,369.77-59.13h0Zm0,0" style="fill:#cfdaee; fill-rule:evenodd;"/><path d="M223.6,1524.45c-.57-2.99,1.03-5.94,3.56-6.6,2.5-.67,5.02,1.19,5.59,4.13,7.84,39.51,8.31,80.17-.28,122.34-8.55,41.98-26.07,85.44-54.33,130.7-1.52,2.47-4.46,2.99-6.55,1.19-2.09-1.76-2.56-5.23-1-7.69,27.5-44.08,44.5-86.2,52.76-126.76,8.22-40.37,7.74-79.36,.25-117.3h0Zm0,0" style="fill:#aabcdd; fill-rule:evenodd;"/><path d="M229.25,1530.77c-42.51-113.51-40.04-220.84,7.47-321.95-108.34,105.24-110.81,212.57-7.47,321.95h0Zm0,0" style="fill:#cfdaee; fill-rule:evenodd;"/><path d="M236.71,1208.82c-47.5,101.11-49.97,208.44-7.47,321.95,97.74-88.1-24.45-183.7,7.47-321.95h0Zm0,0" style="fill:#aabcdd; fill-rule:evenodd;"/><path d="M171.97,1671.58c-.24-3.04,1.66-5.7,4.23-5.99,2.56-.28,4.89,1.95,5.13,4.94,1.04,13.39,1.33,32.77,.38,54.76-.76,19-2.47,40.08-5.22,60.98-.38,3.04-2.8,5.08-5.37,4.61-2.56-.47-4.32-3.28-3.89-6.27,2.71-20.42,4.32-41.13,5.13-59.84,.9-21.51,.67-40.32-.38-53.19h0Zm0,0" style="fill:#aabcdd; fill-rule:evenodd;"/><path d="M177.67,1682.03c45.02-96.03,12.59-186.79-97.26-272.22,58.08,98.93,90.48,189.64,97.26,272.22h0Zm0,0" style="fill:#cfdaee; fill-rule:evenodd;"/><path d="M177.67,1682.03c-6.78-82.59-39.18-173.3-97.26-272.22,34.48,134.74-40.37,184.46,97.26,272.22h0Zm0,0" style="fill:#aabcdd; fill-rule:evenodd;"/><path d="M175.25,1781.1c.09,3.09-1.95,5.61-4.51,5.7-2.61,.1-4.8-2.28-4.83-5.32-.39-14.2-3.19-28.4-6.8-41.13-5.7-20.33-13.57-36.95-17.43-44.17-1.38-2.61-.66-6.03,1.52-7.65,2.23-1.57,5.13-.81,6.51,1.8,3.99,7.55,12.25,25.08,18.33,46.54,3.86,13.63,6.84,28.92,7.22,44.21h0Zm0,0" style="fill:#aabcdd; fill-rule:evenodd;"/><path d="M46.07,1706.87c28.35,76.75,89.14-16.62,110.89-1.14-6.51-17.33-15.63-29.73-25.88-36-29.97-18.38-54.81,45.69-85.01,37.14h0Zm0,0" style="fill:#aabcdd; fill-rule:evenodd;"/><path d="M315.82,1758.87v100.02c0,63.07-43.98,114.64-97.69,114.64h-77.32c-53.71,0-97.69-51.58-97.69-114.64v-100.02H315.82Zm0,0" style="fill:#aabcdd; fill-rule:evenodd;"/><path d="M288.18,1938.58c-133.36,50.34-197.47-18.85-184.68-179.71H43.12v100.02c0,63.07,43.98,114.64,97.69,114.64h77.32c27.4,0,52.29-13.44,70.05-34.95h0Zm0,0" style="fill:#becce7; fill-rule:evenodd;"/><path d="M1001.75,122.53c-10.59-1.04-21.18-.81-31.49,.71-10.59,1.52-20.95,4.32-30.78,8.37-1.95,.75-4.04,.13-5.27-1.44l-24.56-31.2-.14-.19c-1.43-1.71-3.42-2.71-5.56-2.99-2.18-.28-4.42,.29-6.27,1.76l-.24,.14-37.99,29.92c-1.85,1.42-2.94,3.51-3.23,5.7-.24,2.19,.33,4.46,1.8,6.27l.14,.24,24.36,30.96c1.23,1.62,1.23,3.85,.09,5.46-3.04,4.23-5.89,8.74-8.5,13.44-2.47,4.61-4.75,9.4-6.79,14.44-2,5.04-3.66,10.12-5.04,15.15-1.38,5.22-2.41,10.4-3.13,15.63-.33,2.13-2.04,3.7-4.18,3.84l-38.95,5.6c-2.31,.33-4.27,1.62-5.61,3.38-1.33,1.76-1.94,3.99-1.61,6.32l6.9,48.16c.37,2.33,1.6,4.27,3.36,5.6,1.77,1.33,3.99,1.95,6.33,1.63h.27l39.04-5.62c2.04-.24,3.94,.85,4.75,2.61,4.37,9.69,9.88,18.85,16.48,27.31,6.51,8.22,14.01,15.72,22.52,22.32,1.65,1.28,2.17,3.53,1.41,5.32l-14.72,36.81c-.85,2.18-.76,4.51,.1,6.55,.85,1.99,2.47,3.66,4.67,4.51l45.2,18.09c2.14,.9,4.46,.76,6.46-.05,2.04-.9,3.7-2.52,4.6-4.66l14.72-36.85c.81-1.99,2.85-3.08,4.89-2.8,10.59,1.04,21.23,.81,31.53-.67,10.56-1.57,20.9-4.37,30.73-8.36,2-.81,4.28-.1,5.46,1.61l24.36,31.01c1.43,1.8,3.51,2.9,5.71,3.18,2.17,.24,4.4-.33,6.26-1.76l.24-.19,38.04-29.92c1.8-1.42,2.9-3.51,3.18-5.7,.24-2.14-.33-4.42-1.76-6.27l-24.51-31.16c-1.28-1.66-1.28-3.89-.14-5.46,3.05-4.28,5.89-8.74,8.45-13.44,2.52-4.61,4.84-9.45,6.84-14.49,2-4.99,3.71-10.07,5.04-15.15,1.39-5.18,2.42-10.4,3.13-15.58,.33-2.14,2.09-3.75,4.18-3.89l38.99-5.6c2.28-.33,4.24-1.57,5.56-3.33,1.33-1.76,1.95-3.99,1.66-6.32l-.1-.29-6.87-47.92c-.35-2.28-1.63-4.27-3.38-5.56-1.75-1.33-3.99-1.99-6.3-1.66l-39.29,5.65c-2.09,.29-4.08-.9-4.84-2.75-4.32-9.64-9.83-18.76-16.43-27.17-6.51-8.22-14.01-15.77-22.5-22.37-1.63-1.24-2.2-3.42-1.43-5.27l14.71-36.81c.9-2.18,.76-4.51-.1-6.5-.85-2.04-2.47-3.71-4.61-4.56l-45.21-18.09c-2.18-.9-4.51-.81-6.51,.09-1.99,.86-3.7,2.47-4.56,4.61l-14.77,36.85c-.8,1.99-2.79,3.09-4.89,2.8l.05-.05Zm-42.08,62.17c17.38-7.46,37.66-8.26,56.67-.66,18.93,7.6,32.99,22.18,40.5,39.56,7.41,17.44,8.27,37.66,.66,56.66-7.6,19-22.18,33.05-39.59,40.51-17.4,7.46-37.67,8.31-56.62,.71-19-7.6-33.05-22.18-40.56-39.61-7.41-17.38-8.22-37.66-.62-56.61,7.61-18.99,22.13-33.1,39.56-40.56h0Zm0,0" style="fill:#cfdaee; fill-rule:evenodd;"/><path d="M2368.62,1953.64c-390.81-34.62-788.08-3.99-1057.51,62.69-134.74,33.34-343.56,21.8-556.13,10.3-212.43-11.54-428.71-23.03-578.6,10.21-204.64,45.45-110.89,162.23,169.75,212.81,381.4,68.77,1802.32,70.81,2038.07,47.26,402.88-40.32,2.57-114.98,190.63-186.55,221.84-84.44-33.48-141.38-206.21-156.72h0Zm0,0" style="fill:#cfdaee; fill-rule:evenodd;"/><rect x="593.9" y="1677.18" width="998.27" height="402.98" style="fill:#aabcdd;"/><rect x="335.91" y="1677.18" width="1514.29" height="369.03" style="fill:#cfdaee;"/><path d="M388.3,1701.07H1797.77c14.29,0,26.02,12.44,26.02,27.69v265.86c0,15.24-11.73,27.69-26.02,27.69H388.3c-14.3,0-25.98-12.44-25.98-27.69v-265.86c0-15.25,11.68-27.69,25.98-27.69h0Zm0,0" style="fill:#e9eef7; fill-rule:evenodd;"/><path d="M451.98,1829.82c17.62,0,31.87,14.25,31.87,31.87s-14.25,31.87-31.87,31.87-31.87-14.29-31.87-31.87,14.29-31.87,31.87-31.87h0Zm332.16,0c17.62,0,31.87,14.25,31.87,31.87s-14.25,31.87-31.87,31.87-31.87-14.29-31.87-31.87,14.25-31.87,31.87-31.87h0Zm-110.7,0c17.57,0,31.88,14.25,31.88,31.87s-14.31,31.87-31.88,31.87-31.87-14.29-31.87-31.87,14.25-31.87,31.87-31.87h0Zm-110.75,0c17.62,0,31.91,14.25,31.91,31.87s-14.3,31.87-31.91,31.87-31.87-14.29-31.87-31.87,14.29-31.87,31.87-31.87h0Zm0,0" style="fill:#fff; fill-rule:evenodd;"/><path d="M921.68,1753.93h42.98v213.48h-42.98v-213.48Zm752.56,0h42.98v213.48h-42.98v-213.48Zm-75.27,0h43.03v213.48h-43.03v-213.48Zm-75.23,0h42.98v213.48h-42.98v-213.48Zm-75.26,0h42.97v213.48h-42.97v-213.48Zm-75.29,0h43.03v213.48h-43.03v-213.48Zm-75.23,0h42.98v213.48h-42.98v-213.48Zm-75.28,0h43.03v213.48h-43.03v-213.48Zm-75.23,0h42.98v213.48h-42.98v-213.48Zm-75.28,0h42.98v213.48h-42.98v-213.48Zm-75.28,0h43.03v213.48h-43.03v-213.48Zm0,0" style="fill:#cfdaee; fill-rule:evenodd;"/><rect x="593.9" y="1274.17" width="998.27" height="403.02" style="fill:#aabcdd;"/><rect x="335.91" y="1274.17" width="1514.29" height="369.01" style="fill:#cfdaee;"/><path d="M388.3,1298.06H1797.77c14.29,0,26.02,12.44,26.02,27.69v265.86c0,15.24-11.73,27.69-26.02,27.69H388.3c-14.3,0-25.98-12.44-25.98-27.69v-265.86c0-15.25,11.68-27.69,25.98-27.69h0Zm0,0" style="fill:#e9eef7; fill-rule:evenodd;"/><path d="M451.98,1426.81c17.62,0,31.87,14.29,31.87,31.87s-14.25,31.87-31.87,31.87-31.87-14.25-31.87-31.87,14.29-31.87,31.87-31.87h0Zm332.16,0c17.62,0,31.87,14.29,31.87,31.87s-14.25,31.87-31.87,31.87-31.87-14.25-31.87-31.87,14.25-31.87,31.87-31.87h0Zm-110.7,0c17.57,0,31.88,14.29,31.88,31.87s-14.31,31.87-31.88,31.87-31.87-14.25-31.87-31.87,14.25-31.87,31.87-31.87h0Zm-110.75,0c17.62,0,31.91,14.29,31.91,31.87s-14.3,31.87-31.91,31.87-31.87-14.25-31.87-31.87,14.29-31.87,31.87-31.87h0Zm0,0" style="fill:#fff; fill-rule:evenodd;"/><path d="M921.68,1350.91h42.98v213.48h-42.98v-213.48Zm752.56,0h42.98v213.48h-42.98v-213.48Zm-75.27,0h43.03v213.48h-43.03v-213.48Zm-75.23,0h42.98v213.48h-42.98v-213.48Zm-75.26,0h42.97v213.48h-42.97v-213.48Zm-75.29,0h43.03v213.48h-43.03v-213.48Zm-75.23,0h42.98v213.48h-42.98v-213.48Zm-75.28,0h43.03v213.48h-43.03v-213.48Zm-75.23,0h42.98v213.48h-42.98v-213.48Zm-75.28,0h42.98v213.48h-42.98v-213.48Zm-75.28,0h43.03v213.48h-43.03v-213.48Zm0,0" style="fill:#cfdaee; fill-rule:evenodd;"/><rect x="593.9" y="871.15" width="998.27" height="403.02" style="fill:#aabcdd;"/><rect x="335.91" y="871.15" width="1514.29" height="369.06" style="fill:#cfdaee;"/><path d="M388.3,895.04H1797.77c14.29,0,26.02,12.49,26.02,27.74v265.81c0,15.25-11.73,27.74-26.02,27.74H388.3c-14.3,0-25.98-12.49-25.98-27.74v-265.81c0-15.25,11.68-27.74,25.98-27.74h0Zm0,0" style="fill:#e9eef7; fill-rule:evenodd;"/><path d="M451.98,1023.79c17.62,0,31.87,14.29,31.87,31.91s-14.25,31.87-31.87,31.87-31.87-14.29-31.87-31.87,14.29-31.91,31.87-31.91h0Zm332.16,0c17.62,0,31.87,14.29,31.87,31.91s-14.25,31.87-31.87,31.87-31.87-14.29-31.87-31.87,14.25-31.91,31.87-31.91h0Zm-110.7,0c17.57,0,31.88,14.29,31.88,31.91s-14.31,31.87-31.88,31.87-31.87-14.29-31.87-31.87,14.25-31.91,31.87-31.91h0Zm-110.75,0c17.62,0,31.91,14.29,31.91,31.91s-14.3,31.87-31.91,31.87-31.87-14.29-31.87-31.87,14.29-31.91,31.87-31.91h0Zm0,0" style="fill:#fff; fill-rule:evenodd;"/><path d="M921.68,947.94h42.98v213.48h-42.98v-213.48Zm752.56,0h42.98v213.48h-42.98v-213.48Zm-75.27,0h43.03v213.48h-43.03v-213.48Zm-75.23,0h42.98v213.48h-42.98v-213.48Zm-75.26,0h42.97v213.48h-42.97v-213.48Zm-75.29,0h43.03v213.48h-43.03v-213.48Zm-75.23,0h42.98v213.48h-42.98v-213.48Zm-75.28,0h43.03v213.48h-43.03v-213.48Zm-75.23,0h42.98v213.48h-42.98v-213.48Zm-75.28,0h42.98v213.48h-42.98v-213.48Zm-75.28,0h43.03v213.48h-43.03v-213.48Zm0,0" style="fill:#cfdaee; fill-rule:evenodd;"/><rect x="593.9" y="468.18" width="998.27" height="402.97" style="fill:#aabcdd;"/><rect x="335.91" y="468.18" width="1514.29" height="369.01" style="fill:#cfdaee;"/><path d="M388.3,492.07H1797.77c14.29,0,26.02,12.44,26.02,27.69v265.86c0,15.25-11.73,27.69-26.02,27.69H388.3c-14.3,0-25.98-12.44-25.98-27.69v-265.86c0-15.25,11.68-27.69,25.98-27.69h0Zm0,0" style="fill:#e9eef7; fill-rule:evenodd;"/><path d="M451.98,620.82c17.62,0,31.87,14.25,31.87,31.87s-14.25,31.87-31.87,31.87-31.87-14.29-31.87-31.87,14.29-31.87,31.87-31.87h0Zm332.16,0c17.62,0,31.87,14.25,31.87,31.87s-14.25,31.87-31.87,31.87-31.87-14.29-31.87-31.87,14.25-31.87,31.87-31.87h0Zm-110.7,0c17.57,0,31.88,14.25,31.88,31.87s-14.31,31.87-31.88,31.87-31.87-14.29-31.87-31.87,14.25-31.87,31.87-31.87h0Zm-110.75,0c17.62,0,31.91,14.25,31.91,31.87s-14.3,31.87-31.91,31.87-31.87-14.29-31.87-31.87,14.29-31.87,31.87-31.87h0Zm0,0" style="fill:#fff; fill-rule:evenodd;"/><path d="M921.68,544.93h42.98v213.48h-42.98v-213.48Zm752.56,0h42.98v213.48h-42.98v-213.48Zm-75.27,0h43.03v213.48h-43.03v-213.48Zm-75.23,0h42.98v213.48h-42.98v-213.48Zm-75.26,0h42.97v213.48h-42.97v-213.48Zm-75.29,0h43.03v213.48h-43.03v-213.48Zm-75.23,0h42.98v213.48h-42.98v-213.48Zm-75.28,0h43.03v213.48h-43.03v-213.48Zm-75.23,0h42.98v213.48h-42.98v-213.48Zm-75.28,0h42.98v213.48h-42.98v-213.48Zm-75.28,0h43.03v213.48h-43.03v-213.48Zm0,0" style="fill:#cfdaee; fill-rule:evenodd;"/><path d="M1240.59,2258.21c449.66,0,814.16,33.58,814.16,74.99s-364.5,74.99-814.16,74.99-814.16-33.58-814.16-74.99,364.52-74.99,814.16-74.99h0Zm0,0" style="fill:#cfdaee; fill-rule:evenodd;"/><path d="M756.74,801.05c10.07,.71,19.76-11.21,22.56-14.77,10.69-13.58,17.53-29.49,20.28-38.42-2.08-5.98-4.28-13.44-6.56-22.51-38.75-26.31-44.02-45.78-15.91-58.42,5.71,3.18,12.73,12.96,21.13,29.4,6.74-.28,11.83-3.7,15.29-10.31-8.02-27.69-13.2-50.2-15.62-67.49,19.09-28.35,63.73-32.44,122.81-24.74,2.75,15.72,5,32.39,6.75,49.96,10.45,9.64,9.12,45.31-.52,86.49,4.8,23.36-9.64,36.14-43.31,38.28-.33,5.65,.19,12.11,.28,16.1,.1,3.56,.2,10.59,3.99,11.68l6.22,1.57c-.62,83.63-43.46,99.68-137.35,3.18h-.05Zm0,0" style="fill:#ffb27d; fill-rule:evenodd;"/><path d="M920.73,593.79c-59.08-7.69-103.72-3.61-122.81,24.74,2.42,17.29,7.6,39.8,15.62,67.49-3.46,6.6-8.55,10.02-15.29,10.31-8.4-16.43-15.42-26.21-21.13-29.4-28.11,12.63-22.84,32.1,15.91,58.42,2.28,9.07,4.48,16.53,6.56,22.51-34.86-7.84-64.02-38.99-68.1-52.48-40.65-80.12,4.65-113.93,28.92-126.28,10.73-79.36,126.38-10.73,156.82-59.17,63.64,36.33,21.42,83.16,3.51,83.87h0Zm0,0" style="fill:#163560; fill-rule:evenodd;"/><path d="M844.79,760.35c9.45,4.7,22.42,7.41,38.85,8.17-.33,5.56-.1,11.97,.28,15.96-16.53-3.18-29.58-11.26-39.13-24.12h0Zm0,0" style="fill:#f08261; fill-rule:evenodd;"/><path d="M686.26,2367.39c-36.65-12.92-39.65-31.87-59.41-41.08-19.95-9.31-22.23-25.88-2.75-43.88,14.4,11.5,32.25,25.65,41.69,18.14,6.32-4.99,27.74-4.66,31.98,2.61,18.65,43.36,44.6,29.64,49.71,49.34,.57,26.26-44.36,20.8-61.22,14.87h0Zm0,0" style="fill:#163560; fill-rule:evenodd;"/><path d="M1004.37,2324.27c-64.64-1.04-112.94-1.8-135.31-8.88-24.08-7.6-19.09-22.27-5.23-45.78,60.93,28.02,44.69-5.75,73.19-1.47,20.05,16.1,49.68,26.93,88.95,32.44,16.62,12.25,9.88,23.13-21.61,23.7h0Zm0,0" style="fill:#163560; fill-rule:evenodd;"/><path d="M972.12,810.5c-32.3-9.35-61.27-15.01-86.96-17-4.65,70.91-41.6,70.38-110.94-1.47-66.78,5.6-79.83,6.46-116.88,18.47-80.17,76.56-87.53,164.94-129.42,265.91,46.35,2.09,67.2,7.65,98.74,18.9,6.74-24.22,12.45-43.69,17-58.42-1.28,133.12-1.81,224.35-1.47,273.7,153.4,60.79,279.78,39.94,331.4-7.41,.72-118.35,1.72-212.05,2.95-281.11,18.33,21.66,35.38,38.42,51.07,50.3,37.6-43.12,63.06-60.46,84.38-85.91-47.21-77.51-114.83-149.65-139.86-175.96h0Zm0,0" style="fill:#699dee; fill-rule:evenodd;"/><path d="M1281.29,940.25c-80.59,33.48-137.02,61.12-169.31,82.97l-14.34-21.18c-13.3,13.34-28.54,26.45-47.06,45.45,17.14,17.95,35.57,32.72,57.04,45.21,55.99-5.98,117.88-48.39,185.69-127.23,21.09-4.18,36.57-11.82,46.54-22.89,.52-10.16-4.61-20.38-15.39-30.58,28.12-18.33,39.32-31.44,33.58-39.32-44.02,27.26-69.62,49.77-76.75,67.58h0Zm0,0" style="fill:#ffb27d; fill-rule:evenodd;"/><path d="M973.59,1303.18c-3.04,11.54,9.5,79.12,11.59,114.41,20.38,125.9,2.9,289.8-8.07,500.52-19.66,74.23-48.63,173.21-46.78,312.5-34.2,10.45-46.59,11.54-77.51,3.7-21.61-145.37-6.84-261.78,12.68-315.54-12.49-83.11-31.15-176.1-58.31-310.27-30.6,146.18-71.54,254.7-89.3,325.46-3.46,78.93-19.47,185.46-27.78,319.57-25.41,7.7-41.27,9.88-67.63,6.65-34.19-123.24-28.45-257.41-13.96-402.4,15.44-174.34-10.02-371.15,15.48-439.4,13.01-40.46,14.68-76.37,18.19-107.81,127.99,42.6,238.46,40.13,331.4-7.41h0Zm0,0" style="fill:#4a75cb; fill-rule:evenodd;"/><path d="M665.79,1175.34c-8.21,1.18-16,2.28-23.3,3.28-.39,58.7-.49,102.72-.3,131.98,7.22,3.23,17.43,6.98,25.36,7.93-.09-3.8-1.23-12.49-1.23-16.19-.52-44.93-.71-87.24-.52-126.99h0Zm375.09-117.69c-22.61-18.81-44.12-49.39-64.54-91.66,2.33,14.72,3.23,34.43,2.75,59.13,17.38,20.18,33.53,35.91,48.5,47.26,4.59-5.27,9.01-10.17,13.29-14.72h0Zm-368.73-114.55c-9.93,32.06-19.47,63.31-28.5,93.75-.29,25.74-.48,49.92-.67,72.52,6.55-.62,14.25-1.04,23.43-1.23,.94-62.5,2.84-117.54,5.74-165.04h0Zm0,0" style="fill:#4a75cb; fill-rule:evenodd;"/><path d="M874.66,989.17h168.88c7.74,0,13.06,6.36,11.87,14.11l-37.9,239.26c-1.24,7.74-8.6,14.06-16.34,14.06h-168.88c-7.74,0-13.06-6.32-11.83-14.06l37.9-239.26c1.19-7.74,8.55-14.11,16.29-14.11h0Zm0,0" style="fill:#2b478b; fill-rule:evenodd;"/><path d="M543.45,1077.31c-7.31,29.59-10.35,56.7-4.37,92.66,18.23,26.45,91.8,11.64,281.21-19.99,6.78,6.17,20.84,12.35,42.16,9.59,19.8-4.94,20.75-10.12,42.98-31.06,5.37-16.29,4.27-28.74-3.32-37.38-25.03,14.77-38.18,22.56-66.39,23.51,7.5-19.28,8.64-31.77,3.42-37.38-9.64,7.69-15.91,19.28-18.81,34.76-149.31-6.5-188.68-5.6-208.54,4.8,2.14-9.36,4.04-17.62,5.7-24.7-23.23-7.93-42.17-12.54-74.04-14.82h0Zm0,0" style="fill:#ffb27d; fill-rule:evenodd;"/><path d="M868.11,2237.69c1.52,12.68,1.76,24.08,.67,34.15,50.96,22.13,42.31-3.42,62.69-4.08-5.13-8.97-8.46-20.52-9.97-34.53-22.23,6.36-34.86,7.79-53.38,4.46h0Zm-237.56,23.37c0,9.21-.9,17.33-2.71,24.36,13.64,10.73,29.3,21.99,37.94,15.15,4.18-3.28,14.82-4.28,22.86-2.47-3.29-11.16-5.9-25.12-7.85-41.89-17.86,4.85-31.58,6.41-50.25,4.85h0Zm0,0" style="fill:#ffb27d; fill-rule:evenodd;"/><path d="M985.18,1417.59c-90.04,83.92-210.44,84.21-361.18,.81-25.5,68.25,0,265.05-15.48,439.4-14.48,144.99-20.23,279.16,13.96,402.4,2.8,.33,5.46,.62,8.07,.86,18.66,1.57,32.39,0,50.25-4.85,2.99-.76,6.08-1.66,9.31-2.66,8.31-134.12,24.33-240.64,27.78-319.57,17.76-70.76,58.7-179.28,89.3-325.46,27.15,134.17,45.82,227.15,58.31,310.27-19.52,53.76-34.29,170.16-12.68,315.54,5.65,1.43,10.65,2.56,15.29,3.37,18.52,3.33,31.15,1.9,53.38-4.46,2.8-.81,5.75-1.66,8.84-2.61-1.85-139.29,27.12-238.27,46.78-312.5,10.97-210.72,28.45-374.62,8.07-500.52h0Zm0,0" style="fill:#22407a; fill-rule:evenodd;"/><path d="M843.09,2134.44c32.85,8.93,62.92,11.59,90.22,8.07,.57-7.22,1.24-14.3,2-21.28-29.97,3.89-60.93,1.9-92.9-5.99,.14,6.27,.38,12.68,.68,19.19h0Zm-240.04,24.98c35.76,4.27,67.39,1.9,94.94-7.08,.66-7.5,1.38-14.91,2.09-22.18-30.91,10.07-63.92,13.53-98.97,10.35,.57,6.32,1.23,12.63,1.95,18.9h0Zm90.33,47.21c.57-7.46,1.14-14.77,1.76-22.04-27.54,7.55-56.76,9.97-87.53,7.27,1.04,6.41,2.18,12.77,3.37,19.09,30.44,3.42,57.94,1.99,82.4-4.32h0Zm238.32-41.08c-27.83,4.61-56.76,4.08-86.82-1.52,.47,6.37,1.05,12.82,1.71,19.33,30.68,6.46,58.75,7.65,84.16,3.47,.24-7.22,.57-14.3,.95-21.28h0Zm0,0" style="fill:#163560; fill-rule:evenodd;"/><path d="M2153.86,614.22c200.99,0,363.93,39.65,363.93,88.57s-162.95,88.62-363.93,88.62-363.93-39.7-363.93-88.62,162.94-88.57,363.93-88.57h0Zm0,0" style="fill:#e9eef7; fill-rule:evenodd;"/><path d="M2517.8,928.61v-225.83c0,48.92-162.95,88.62-363.93,88.62s-363.93-39.7-363.93-88.62v225.83c0,48.92,162.94,88.57,363.93,88.57s363.93-39.66,363.93-88.57h0Zm0,0" style="fill:#cfdaee; fill-rule:evenodd;"/><path d="M2517.8,1154.44v-225.82c0,48.92-162.95,88.57-363.93,88.57s-363.93-39.66-363.93-88.57v225.82c0,48.92,162.94,88.57,363.93,88.57s363.93-39.66,363.93-88.57h0Zm0,0" style="fill:#cfdaee; fill-rule:evenodd;"/><path d="M2517.8,1380.22v-225.78c0,48.92-162.95,88.57-363.93,88.57s-363.93-39.66-363.93-88.57v225.78c0,48.92,162.94,88.62,363.93,88.62s363.93-39.7,363.93-88.62h0Zm0,0" style="fill:#cfdaee; fill-rule:evenodd;"/><path d="M2517.8,1606.04v-225.83c0,48.92-162.95,88.62-363.93,88.62s-363.93-39.7-363.93-88.62v225.83c0,48.92,162.94,88.57,363.93,88.57s363.93-39.66,363.93-88.57h0Zm0,0" style="fill:#cfdaee; fill-rule:evenodd;"/><path d="M2517.8,1831.82v-225.78c0,48.92-162.95,88.57-363.93,88.57s-363.93-39.66-363.93-88.57v225.78c0,48.96,162.94,88.62,363.93,88.62s363.93-39.66,363.93-88.62h0Zm0,0" style="fill:#cfdaee; fill-rule:evenodd;"/><path d="M2517.8,2057.64v-225.82c0,48.96-162.95,88.62-363.93,88.62s-363.93-39.66-363.93-88.62v225.82c0,48.92,162.94,88.57,363.93,88.57s363.93-39.66,363.93-88.57h0Zm0,0" style="fill:#cfdaee; fill-rule:evenodd;"/><path d="M2153.86,984.61c-200.99,0-363.93-39.66-363.93-88.57v32.58c0,48.92,162.94,88.57,363.93,88.57s363.93-39.66,363.93-88.57v-32.58c0,48.91-162.95,88.57-363.93,88.57h0Zm0,0" style="fill:#aabcdd; fill-rule:evenodd;"/><path d="M2153.86,1210.43c-200.99,0-363.93-39.66-363.93-88.57v32.58c0,48.92,162.94,88.57,363.93,88.57s363.93-39.66,363.93-88.57v-32.58c0,48.92-162.95,88.57-363.93,88.57h0Zm0,0" style="fill:#aabcdd; fill-rule:evenodd;"/><path d="M2153.86,1436.26c-200.99,0-363.93-39.7-363.93-88.62v32.58c0,48.92,162.94,88.62,363.93,88.62s363.93-39.7,363.93-88.62v-32.58c0,48.92-162.95,88.62-363.93,88.62h0Zm0,0" style="fill:#aabcdd; fill-rule:evenodd;"/><path d="M2153.86,1662.04c-200.99,0-363.93-39.66-363.93-88.57v32.58c0,48.92,162.94,88.57,363.93,88.57s363.93-39.66,363.93-88.57v-32.58c0,48.91-162.95,88.57-363.93,88.57h0Zm0,0" style="fill:#aabcdd; fill-rule:evenodd;"/><path d="M2153.86,1887.86c-200.99,0-363.93-39.65-363.93-88.62v32.58c0,48.96,162.94,88.62,363.93,88.62s363.93-39.66,363.93-88.62v-32.58c0,48.97-162.95,88.62-363.93,88.62h0Zm0,0" style="fill:#aabcdd; fill-rule:evenodd;"/><path d="M2153.86,2113.64c-200.99,0-363.93-39.66-363.93-88.57v32.58c0,48.92,162.94,88.57,363.93,88.57s363.93-39.66,363.93-88.57v-32.58c0,48.92-162.95,88.57-363.93,88.57h0Zm0,0" style="fill:#aabcdd; fill-rule:evenodd;"/><path d="M1747.09,1090.8l156.06,.57c11.78,0,21.42,9.69,21.42,21.51v156.06c0,11.78-9.64,21.37-21.42,21.32l-156.06-.57c-11.81,0-21.42-9.69-21.42-21.47v-156.06c0-11.82,9.6-21.42,21.42-21.37h0Zm0,0" style="fill:#fff; fill-rule:evenodd;"/><path d="M1834.33,1993.1c-4.7,.52-9.5,.81-14.44,.81h-290.99c-42.6,0-77.51-19.57-77.51-62.21v-8.26c-3.99-229.1-205.31-293.31-221.6-546.78-1.24-19-1.04-37.57,.43-55.71,31.53-192.2,214.25-321.28,419.5-321.28,233.95,0,438.54,167.6,423.58,405.25-15.48,245.92-207.3,308.23-211.1,530.49v8.02c0,23.7-10.91,40.04-27.88,49.68h0Zm0,0" style="fill:#fff; fill-rule:evenodd;"/><path d="M1822.46,2224.39c-2.38,24.27-22.99,43.31-47.78,43.31h-36.8l-14.28,23.41c-8.23,13.44-13.07,14.29-28.84,14.29h-86.44c-15.77,0-20.57-.81-28.83-14.29l-14.29-23.41h-36.76c-24.5,0-44.88-18.57-47.68-42.36v-16.81c1.28-5.46,6.22-9.59,12.11-9.59h317.4c5.88,0,10.86,4.18,12.11,9.74,.13,.47-.2,1.52,.08,1.76v13.96Zm-325.13-110.42h308.41c9.31,0,16.95,7.65,16.95,16.96v26.26c0,9.31-7.65,16.96-16.95,16.96h-308.41c-9.31,0-16.91-7.65-16.91-16.96v-26.26c0-9.31,7.6-16.96,16.91-16.96h0Zm.71-86.48h307.05c9.69,0,17.61,7.93,17.61,17.62v27.36c0,9.69-7.92,17.62-17.61,17.62h-307.05c-9.69,0-17.62-7.93-17.62-17.62v-27.36c0-9.69,7.93-17.62,17.62-17.62h0Zm0,0" style="fill:#aabcdd; fill-rule:evenodd;"/><path d="M1600.5,1993.91l-35.39-428.05h-50.2c-21.71,0-41.42-8.83-55.71-23.13-14.28-14.3-23.18-34-23.18-55.66s8.89-41.41,23.14-55.66c14.29-14.3,33.99-23.18,55.71-23.18s39.98,8.6,53.84,22.42c14.01,14.06,23.03,33.58,24.88,54.9l3.94,44.93h153.68l3.89-44.93c1.87-21.28,10.92-40.79,24.98-54.9,13.82-13.82,32.39-22.42,53.81-22.42s41.32,8.88,55.61,23.18c14.29,14.3,23.18,34.01,23.18,55.71s-8.88,41.42-23.18,55.66c-14.25,14.29-33.96,23.17-55.66,23.17h-50.25l-35.38,428h-35.38l35.24-428h-147.51l35.24,428-35.32-.05Zm-38.47-463.43l-3.67-41.89c-1.09-12.97-6.41-24.7-14.67-32.91-7.41-7.45-17.38-12.06-28.78-12.06s-22.8,4.89-30.68,12.78c-7.88,7.88-12.78,18.71-12.78,30.63s4.89,22.84,12.73,30.68h.09c7.84,7.88,18.71,12.77,30.64,12.77h47.12Zm224.77,0h47.11c11.92,0,22.8-4.89,30.68-12.77,7.9-7.89,12.78-18.71,12.78-30.68s-4.88-22.75-12.78-30.63v-.1c-7.84-7.84-18.71-12.68-30.68-12.68s-21.33,4.61-28.77,12.01c-8.27,8.27-13.59,20-14.67,32.91l-3.67,41.94Zm0,0" style="fill:#aabcdd; fill-rule:evenodd;"/></svg>