<?xml version="1.0" encoding="UTF-8"?><svg id="a" xmlns="http://www.w3.org/2000/svg" viewBox="0 0 1933.62 1321.73"><path d="M1925.39,367.44c-205.45-8.85-340.69,133.49-296.69,358.85,222.28-5.99,337.86-145.11,296.69-358.85Z" style="fill:#c4d1eb; fill-rule:evenodd;"/><path d="M1905.89,381.69c1.06-1.29,2.96-1.48,4.25-.43,1.29,1.05,1.48,2.96,.43,4.25l-99.53,122.03,88.85,18c1.63,.33,2.69,1.93,2.36,3.56-.33,1.63-1.93,2.69-3.56,2.36l-91.96-18.63-27.64,33.89c-.2,.91-.82,1.72-1.74,2.13l-21.2,25.98,95.39,34.96c1.57,.57,2.38,2.31,1.8,3.87-.58,1.56-2.31,2.37-3.87,1.8l-97.36-35.68-24.84,30.45c-.07,.1-.16,.2-.25,.3l-25.23,30.93,69.47,28.37c1.54,.62,2.28,2.39,1.65,3.93-.64,1.54-2.4,2.28-3.94,1.65l-71.17-29.06-66.76,81.85c-1.06,1.29-2.96,1.49-4.25,.43-1.29-1.05-1.49-2.96-.43-4.25l44.9-55.04-27.18-52.89c-.76-1.48-.18-3.3,1.29-4.07,1.48-.76,3.3-.18,4.07,1.3l25.98,50.55,45.73-56.06-51.94-89.96c-.84-1.45-.35-3.3,1.1-4.14,1.45-.83,3.3-.34,4.13,1.11l50.79,87.97,23.5-28.81,.1-.12,23.65-29-40.95-97.91c-.65-1.54,.08-3.31,1.62-3.96,1.54-.64,3.31,.08,3.95,1.63l39.71,94.92,26.29-32.24,.13-.16,28.12-34.47-21.73-75.49c-.47-1.6,.46-3.27,2.06-3.74,1.6-.46,3.27,.46,3.74,2.06l20.58,71.48,69.87-85.67Z" style="fill:#fff; fill-rule:evenodd;"/><path d="M9.95,380.12c248.47-10.71,412.02,161.45,358.81,433.99C99.95,806.86-39.84,638.62,9.95,380.12Z" style="fill:#c4d1eb; fill-rule:evenodd;"/><path d="M33.54,397.35c-1.27-1.56-3.58-1.8-5.14-.52-1.56,1.28-1.8,3.58-.52,5.14l120.37,147.58-107.46,21.76c-1.97,.4-3.25,2.33-2.85,4.31,.4,1.97,2.33,3.25,4.31,2.85l111.22-22.53,33.43,40.99c.24,1.11,.99,2.09,2.1,2.58l25.64,31.42-115.37,42.28c-1.89,.7-2.87,2.79-2.17,4.69,.69,1.89,2.79,2.87,4.68,2.17l117.73-43.15,30.04,36.83c.09,.13,.19,.25,.3,.36l30.51,37.41-84.01,34.3c-1.87,.77-2.76,2.9-2,4.76,.76,1.86,2.9,2.76,4.76,2l86.07-35.15,80.74,98.99c1.28,1.57,3.58,1.8,5.14,.52,1.56-1.27,1.8-3.57,.52-5.13l-54.29-66.57,32.87-63.96c.92-1.79,.22-3.99-1.57-4.91-1.79-.93-3.99-.22-4.91,1.57l-31.42,61.14-55.3-67.8,62.81-108.79c1.01-1.75,.41-3.99-1.34-5-1.75-1.01-3.99-.41-5,1.34l-61.43,106.38-28.42-34.84-.12-.14-28.61-35.08,49.53-118.41c.78-1.86-.1-4-1.96-4.78-1.86-.78-4,.1-4.79,1.96l-48.03,114.8-31.81-39-.16-.2-34.01-41.69,26.28-91.3c.56-1.93-.55-3.96-2.49-4.52-1.94-.56-3.96,.56-4.52,2.49l-24.88,86.44-84.5-103.6Z" style="fill:#fff; fill-rule:evenodd;"/><path d="M1703.12,124.59c-180.21,99.06-221.93,290.93-67.35,460.73,186.88-120.49,213.47-299.39,67.35-460.73Z" style="fill:#b0c2e4; fill-rule:evenodd;"/><path d="M1693.84,146.89c.23-1.65,1.76-2.81,3.41-2.57,1.65,.23,2.8,1.76,2.57,3.41l-21.74,155.96,85.29-30.73c1.57-.56,3.3,.25,3.87,1.82,.56,1.57-.25,3.3-1.82,3.87l-88.28,31.81-6.04,43.31c.31,.89,.19,1.9-.38,2.72l-4.62,33.21,99.68-19.63c1.64-.32,3.23,.74,3.55,2.38,.32,1.63-.74,3.22-2.38,3.54l-101.73,20.03-5.43,38.92c-.01,.13-.02,.26-.05,.39l-5.52,39.53,74.11-11.81c1.64-.26,3.19,.86,3.45,2.51,.26,1.65-.86,3.19-2.51,3.45l-75.91,12.1-14.58,104.61c-.23,1.65-1.76,2.81-3.41,2.58-1.65-.23-2.81-1.76-2.57-3.41l9.8-70.34-50.68-31.1c-1.42-.87-1.87-2.73-1-4.15,.86-1.42,2.72-1.87,4.15-1l48.44,29.73,9.99-71.66-91.09-49.93c-1.47-.8-2-2.64-1.2-4.11,.8-1.46,2.64-2,4.11-1.2l89.08,48.83,5.13-36.83,.02-.15,5.17-37.07-85.83-62.43c-1.34-.98-1.65-2.88-.66-4.23,.98-1.35,2.88-1.65,4.23-.67l83.21,60.53,5.75-41.21,.03-.21,6.14-44.06-57.75-53.25c-1.23-1.13-1.3-3.04-.18-4.26,1.13-1.22,3.04-1.31,4.26-.18l54.69,50.42,15.26-109.49Z" style="fill:#fff; fill-rule:evenodd;"/><path d="M278.76,86.43c217.94,119.8,268.39,351.84,81.45,557.18C134.2,497.9,102.04,281.53,278.76,86.43Z" style="fill:#b0c2e4; fill-rule:evenodd;"/><path d="M289.98,113.4c-.28-2-2.13-3.39-4.12-3.12-2,.28-3.39,2.13-3.11,4.12l26.29,188.62-103.15-37.17c-1.9-.68-3.99,.31-4.67,2.2-.68,1.9,.3,3.99,2.2,4.68l106.76,38.47,7.3,52.38c-.37,1.07-.24,2.3,.46,3.29l5.6,40.16-120.55-23.73c-1.98-.39-3.9,.9-4.29,2.88-.39,1.98,.9,3.9,2.88,4.29l123.03,24.22,6.56,47.07c.01,.15,.03,.31,.07,.46l6.66,47.81-89.61-14.29c-1.99-.31-3.86,1.05-4.17,3.03-.32,1.99,1.04,3.86,3.03,4.17l91.81,14.64,17.64,126.51c.28,2,2.12,3.39,4.12,3.12,2-.28,3.39-2.12,3.11-4.12l-11.86-85.07,61.29-37.61c1.72-1.05,2.26-3.3,1.21-5.02-1.05-1.72-3.3-2.26-5.02-1.21l-58.59,35.95-12.08-86.66,110.16-60.39c1.77-.97,2.42-3.19,1.45-4.96-.97-1.77-3.2-2.42-4.97-1.45l-107.72,59.05-6.21-44.53-.02-.18-6.25-44.83,103.79-75.5c1.63-1.19,1.99-3.48,.81-5.11-1.19-1.63-3.48-1.99-5.11-.8l-100.64,73.2-6.95-49.84-.04-.25-7.43-53.28,69.85-64.4c1.48-1.36,1.58-3.67,.21-5.16-1.36-1.48-3.67-1.58-5.16-.21l-66.13,60.97-18.46-132.41Z" style="fill:#fff; fill-rule:evenodd;"/><path d="M784.53,130.56l-55.84,32.47c-18.83,10.95-25.27,35.3-14.32,54.12l12.32,21.19c14.54,25,8.21,36.31,3.69,40.35-12.42,11.12-23.94,23.2-35.5,35.22-3.39,3.54-14.18,15.61-42.56-.9l-19.48-11.3c-18.83-10.95-43.18-4.51-54.12,14.32l-32.47,55.83c-10.95,18.83-4.51,43.18,14.32,54.13l19.29,11.2c26.62,15.48,25.93,23.41,22.57,34.7-4.63,15.5-9.61,31-12.99,47.04-3.02,14.28-1.65,24.49-37.86,24.49h-22.19c-21.81,0-39.59,17.78-39.59,39.59v64.59c0,21.81,17.78,39.59,39.59,39.59h22.19c36.21,0,34.85,10.21,37.86,24.49,3.39,16.04,8.36,31.55,12.99,47.03,3.37,11.3,4.05,19.23-22.57,34.71l-19.29,11.2c-18.83,10.95-25.27,35.3-14.32,54.13l32.47,55.83c10.94,18.83,35.3,25.27,54.12,14.32l19.48-11.3c28.38-16.51,39.17-4.43,42.56-.9,11.56,12.02,23.08,24.1,35.5,35.22,4.52,4.04,10.85,15.34-3.69,40.35l-12.32,21.19c-10.95,18.83-4.51,43.17,14.32,54.12l55.84,32.47c18.82,10.95,43.18,4.51,54.13-14.32l12.3-21.14c14.76-25.38,29.28-24.38,35.42-22.42,17.81,5.67,34.25,9.34,52.63,14.12,6.71,1.75,18.2,6.63,18.2,36.86v22.67c0,21.8,17.78,39.59,39.59,39.59h64.59c21.81,0,39.59-17.79,39.59-39.59v-22.67c0-30.23,11.5-35.11,18.21-36.86,18.38-4.79,34.82-8.46,52.63-14.12,6.14-1.95,20.66-2.96,35.42,22.42l12.29,21.14c10.95,18.83,35.31,25.27,54.13,14.32l55.84-32.47c18.83-10.95,25.27-35.3,14.32-54.12l-12.33-21.19c-14.54-25.01-8.2-36.31-3.69-40.35,12.43-11.12,23.95-23.2,35.51-35.22,3.4-3.54,14.18-15.61,42.57,.9l19.47,11.3c18.83,10.94,43.18,4.51,54.12-14.32l32.47-55.83c10.95-18.83,4.51-43.18-14.32-54.13l-19.28-11.2c-26.62-15.47-25.93-23.41-22.56-34.71,4.63-15.48,9.61-31,12.99-47.03,3.02-14.28,1.66-24.49,37.87-24.49h22.18c21.81,0,39.59-17.78,39.59-39.59v-64.59c0-21.81-17.78-39.59-39.59-39.59h-22.18c-36.21,0-34.85-10.21-37.87-24.49-3.38-16.04-8.36-31.54-12.99-47.04-3.37-11.29-4.06-19.22,22.56-34.7l19.28-11.2c18.83-10.95,25.27-35.3,14.32-54.13l-32.47-55.83c-10.94-18.83-35.3-25.27-54.12-14.32l-19.47,11.3c-28.39,16.51-39.17,4.43-42.57,.9-11.56-12.02-23.08-24.1-35.51-35.22-4.51-4.04-10.84-15.35,3.69-40.35l12.33-21.19c10.95-18.83,4.51-43.17-14.32-54.12l-55.84-32.47c-18.82-10.95-43.18-4.51-54.13,14.32l-12.29,21.14c-14.76,25.38-29.28,24.38-35.42,22.42-17.81-5.67-34.25-9.34-52.63-14.12-6.71-1.75-18.21-6.63-18.21-36.86v-22.66c0-21.81-17.78-39.59-39.59-39.59h-64.59c-21.81,0-39.59,17.78-39.59,39.59v22.66c0,30.23-11.5,35.11-18.2,36.86-18.38,4.78-34.82,8.45-52.63,14.12-6.14,1.96-20.66,2.95-35.42-22.42l-12.3-21.14c-10.95-18.83-35.31-25.27-54.13-14.32h0Zm244.56,399.46c47.1,0,85.29,38.19,85.29,85.29s-38.19,85.29-85.29,85.29-85.29-38.19-85.29-85.29,38.19-85.29,85.29-85.29h0Zm-267.35,85.29c0-10.07,8.17-18.25,18.25-18.25s18.25,8.17,18.25,18.25c0,63.75,25.84,121.47,67.62,163.24,41.77,41.78,99.49,67.62,163.24,67.62,10.08,0,18.25,8.18,18.25,18.25s-8.17,18.25-18.25,18.25c-73.82,0-140.66-29.92-189.04-78.31-48.38-48.38-78.31-115.23-78.31-189.04h0Zm531.19-43.06c1.57,9.92-5.19,19.24-15.11,20.81-9.92,1.57-19.24-5.19-20.82-15.11-7.84-48.36-30.76-91.71-63.77-125.06-33.05-33.39-76.22-56.74-124.51-65.08-9.92-1.69-16.58-11.11-14.89-21.03,1.68-9.92,11.11-16.59,21.03-14.9,55.93,9.66,105.92,36.69,144.18,75.34,38.24,38.63,64.79,88.89,73.9,145.02h0Zm-263.84-273.73c174.96,0,316.79,141.83,316.79,316.79s-141.83,316.79-316.79,316.79-316.79-141.83-316.79-316.79,141.83-316.79,316.79-316.79Z" style="fill:#c4d1eb; fill-rule:evenodd;"/><path d="M1622.76,1040.44c-48.47,0-87.77-39.3-87.77-87.77s39.3-87.77,87.77-87.77,87.78,39.3,87.78,87.77-39.3,87.77-87.78,87.77h0Zm131.26,52.2h0Zm-73.61-361.58h0Zm-196.11,78.84h0Zm4.07,274.29c12.36,12.63,26.51,23.54,42.06,32.32l-2.4,44.63,37.08,13.12,26.24-36.21,10.13,1.43,42.86-.02,24.3,37.53,33.16-9.43,1.14-.42,3.42-1.32-.06-44.7,7.39-3.88,36.32-26.18,3.99,1.53,37.69,14.54c8.85-9.68,16.88-20.11,23.99-31.21l-26.28-36.09c8.12-15.53,14.14-32.32,17.7-50.03l43.14-11.47,1.03-39.36-42.48-13.74c-2.6-17.91-7.75-35-15.04-50.89l28.16-34.66c-6.51-11.46-13.98-22.31-22.31-32.44l-42.49,13.87-42.02-32.33,2.39-44.63c-11.83-5.39-24.24-9.81-37.09-13.12l-26.22,36.18-53.01-1.39-24.29-37.53-37.73,11.17,.04,44.69c-15.99,7.94-30.67,18.09-43.67,30.05l-11.21-4.31-30.49-11.76c-8.85,9.66-16.88,20.1-23.99,31.2l26.29,36.1c-8.12,15.48-14.16,32.28-17.7,50.02l-43.16,11.48-1.04,39.36,42.48,13.74c2.62,17.86,7.74,34.95,15.04,50.88l-28.16,34.67c6.52,11.46,13.98,22.3,22.32,32.42l42.47-13.85Z" style="fill:#b0c2e4; fill-rule:evenodd;"/><path d="M1745.24,1056.34c-1.04,0-2.1-.36-2.96-1.07-1.96-1.63-2.24-4.55-.6-6.51,22.38-26.91,34.72-61.04,34.72-96.1,0-16.79-2.75-33.28-8.18-49-.83-2.41,.46-5.05,2.88-5.88,2.42-.83,5.04,.45,5.88,2.87,5.75,16.69,8.65,34.19,8.65,52.01,0,37.22-13.07,73.44-36.83,102.01-.91,1.1-2.22,1.67-3.56,1.67Z" style="fill:#fff; fill-rule:evenodd;"/><path d="M1732.25,844.4c-1.13,0-2.26-.42-3.18-1.26-15.03-14.16-32.46-24.89-51.76-31.9-2.4-.87-3.64-3.52-2.78-5.93,.88-2.4,3.53-3.64,5.93-2.77,20.51,7.44,39,18.83,54.97,33.86,1.84,1.75,1.94,4.68,.18,6.54-.91,.96-2.12,1.46-3.36,1.46Z" style="fill:#fff; fill-rule:evenodd;"/><path d="M1587.95,806.97c-2.08,0-3.96-1.39-4.5-3.5-.6-2.47,.88-4.99,3.36-5.62,12.74-3.21,25.94-4.85,39.18-4.85,2.58,0,4.64,2.07,4.64,4.62s-2.06,4.63-4.64,4.63c-12.49,0-24.9,1.54-36.91,4.57-.38,.09-.76,.14-1.13,.14Z" style="fill:#fff; fill-rule:evenodd;"/><path d="M974,1163.92c-447.41,0-810.11,35.32-810.11,78.9s362.7,78.9,810.11,78.9,810.11-35.32,810.11-78.9-362.7-78.9-810.11-78.9Z" style="fill:#c4d1eb; fill-rule:evenodd;"/><path d="M1255.11,1119.5s-17.68,24.36-48.42,41.31c-31.76,17.5-68.41,25.93-45.69,33.85,22.72,7.92,55.94,14.07,88.34,4.66,22.74-6.6,49.38-7.98,56.41-18.71,7.04-10.74-16.76-40.25-10.39-80.54,5.11-32.29-40.25,19.44-40.25,19.44Z" style="fill:#172b57; fill-rule:evenodd;"/><path d="M1370.66,778.97s-128.12-10.06-163.92-3.83c-35.79,6.22-114.3,6.15-62.95,151.08,40.25,113.59,89.96,221.34,89.96,221.34,26.68,6.56,45.94,24.97,80.03,19.66,0,0-43-254.75-77.79-291.39,27.81,4.58,78.84,13.52,149.59,33.76,131.23,37.53,183.96,18.73,183.96,18.73l19.55-68.47-218.43-80.87Z" style="fill:#20386f; fill-rule:evenodd;"/><rect x="972.08" y="689.01" width="107.22" height="12.42" style="fill:#223f81;"/><polygon points="934.51 378.57 1065.58 376.99 1108.18 604.98 983.31 639.77 934.51 378.57" style="fill:#0b5396; fill-rule:evenodd;"/><polygon points="944.57 386.83 989.87 629.24 1098.53 598.97 1058.64 385.46 944.57 386.83" style="fill:#9db2d9; fill-rule:evenodd;"/><polygon points="972.08 701.44 1002.49 701.44 1002.49 634.43 983.31 639.77 972.08 579.67 972.08 701.44" style="fill:#223f81; fill-rule:evenodd;"/><path d="M1180.09,728.41H258.96c-3.93,0-7.12-4.83-7.12-10.79v-5.39c0-5.96,3.18-10.79,7.12-10.79h921.13c3.93,0,7.12,4.83,7.12,10.79v5.39c0,5.96-3.19,10.79-7.12,10.79Z" style="fill:#9c7357; fill-rule:evenodd;"/><path d="M1210.5,1171.52s-17.68,24.36-48.43,41.32c-31.76,17.51-68.41,25.93-45.68,33.84,22.71,7.92,55.94,14.08,88.34,4.66,22.73-6.59,49.38-7.98,56.41-18.71,7.04-10.74-8.28-37.71-1.91-78,5.11-32.3-48.72,16.89-48.72,16.89Z" style="fill:#172b57; fill-rule:evenodd;"/><path d="M1397.9,779.87s-166.51-6.22-202.3,0c-35.79,6.22-114.3,6.15-62.95,151.07,40.26,113.59,53.53,257.4,53.53,257.4l80.03,19.66s-3.17-258.6-41.36-327.45c27.81,4.58,78.85,13.52,149.59,33.76,131.23,37.53,203.19,18.74,203.19,18.74l19.54-68.47-199.26-84.7Z" style="fill:#223f81; fill-rule:evenodd;"/><polygon points="1536.94 349.97 1577.62 470.17 1526.22 504.02 1497.1 400.16 1536.94 349.97" style="fill:#f9af79; fill-rule:evenodd;"/><path d="M1521.63,487.62l-24.53-87.47,39.84-50.19,14.89,43.97c-5.14,39.71-17.55,72.56-30.2,93.69Z" style="fill:#ed7d57; fill-rule:evenodd;"/><path d="M1433.16,370.32c-1.32,36.56,16.64,68.21,45.18,71.01,28.55,2.82,54.6-24.41,58.19-60.83,3.59-36.4-16.64-68.19-45.19-71.01-28.54-2.81-56.1,3.13-58.18,60.83Z" style="fill:#f9af79; fill-rule:evenodd;"/><path d="M1597.16,466.67c124.88,84.34,47.21,220.62,19.78,320.22-23.35,84.82-22.59,136.09-26.09,136.09s-89.39-12.84-138.4-57.18c-49.02-44.35-82.16-87.3-82.16-87.3,0,0,62.8-11.18,83.33-92.42,10.42-41.24,5.68-63.63,29.43-128.99,23.75-65.35,114.11-90.41,114.11-90.41Z" style="fill:#6d96ce; fill-rule:evenodd;"/><path d="M1597.16,466.67l-13.38-32.73s-42.4,28.02-59.33,41.24c-16.92,13.23-27.36,16.34-27.36,16.34,0,0-6.12,46.91-2.15,42.65,50.06-53.64,102.21-67.5,102.21-67.5Z" style="fill:#6d96ce; fill-rule:evenodd;"/><polygon points="1652.51 1268.7 1641.61 1268.7 1563.42 942.47 1587.4 942.47 1652.51 1268.7" style="fill:#9c7357; fill-rule:evenodd;"/><polygon points="1325.88 1268.7 1336.79 1268.7 1426.5 930.94 1402.52 930.94 1325.88 1268.7" style="fill:#9c7357; fill-rule:evenodd;"/><path d="M1531.04,954.69c43.68,0,71.35-7.84,89.01-25.04,21.89-21.33,26.42-54.36,26.48-97.39,.14-90.48,5.14-109.19,30.62-164.44,2.82-6.12,.15-13.39-5.99-16.21-6.12-2.82-13.39-.15-16.21,5.99-26.92,58.4-32.71,79.87-32.86,174.63-.07,43.61-5.6,66.77-19.1,79.91-13.84,13.5-38.88,19.06-81.16,18-40.83-1.02-68.93-6.73-91.52-11.31-29.7-6.04-51.16-10.4-76.61,1.76-6.1,2.91-8.67,10.21-5.76,16.3,2.91,6.09,10.21,8.67,16.29,5.76,18.06-8.63,33.39-5.52,61.2,.13,23.52,4.79,52.8,10.73,95.78,11.79,3.36,.09,6.63,.12,9.82,.12Z" style="fill:#9c7357; fill-rule:evenodd;"/><path d="M1592.54,589.46s-31.12,94.93-69.63,134.22c-38.51,39.29-116.02,52.5-140.29,50.95,19.35-7.78,56.19-29.91,71.01-88.56,10.42-41.24,5.68-63.63,29.43-128.99,17.64-48.51,71.96-74.82,98.79-85.16-33.49,24.06-75.36,63.66-88.23,93.81-14.29,33.46,98.92,23.73,98.92,23.73Z" style="fill:#466fb5; fill-rule:evenodd;"/><path d="M1162.98,672.77s-53.68-24.5-59.52-22.18c-5.83,2.34-65.34,38.28-65.34,44.23s52.51-22.19,52.51-22.19c0,0-5.83,15.56-2.34,23.03,3.5,7.45,43.87,7.45,80.29,5.12,36.41-2.33-5.61-28.01-5.61-28.01Z" style="fill:#f9af79; fill-rule:evenodd;"/><path d="M1590.83,516.12c49.48,101.43-120.27,204.25-220.98,213.38-100.71,9.15-220.36-23.81-220.36-23.81l13.49-32.93s201.77-26.33,206.87-30.02c5.11-3.68,202.85-163.77,220.98-126.62Z" style="fill:#6d96ce; fill-rule:evenodd;"/><path d="M1408.79,279.29c-37.48,20.26-24.54,69.93,39.25,51.38,46.51-14.75,53.85,34.69,57.23,50.57,2.65,12.45,22.31,8.23,21.87-6.01-.09-3.17-.06-6.08,.09-8.75l24.59,47.14s13.1,.78,22.43-7.99c.91-59.94,7.14-111.09-17.51-127.29-29.58-33.92-136.68,21.48-147.95,.94Z" style="fill:#20386f; fill-rule:evenodd;"/><path d="M1533.33,335.8c6.69,0,12.12,10.2,12.12,22.79s-5.43,22.79-12.12,22.79-12.11-10.2-12.11-22.79,5.42-22.79,12.11-22.79Z" style="fill:#f9af79; fill-rule:evenodd;"/><rect x="575.09" y="233.97" width="59.53" height="20.57" style="fill:#d0a382;"/><path d="M575.63,222.53c-3.59-1.67-5.96-4.76-5.96-9.42v-1.45c-.7-40.28-36.1-51.57-38.96-96.13-.21-3.34-.18-6.61,.07-9.79,5.54-33.8,37.66-56.49,73.75-56.49,41.13,0,77.1,29.46,74.46,71.25-2.72,43.23-36.45,54.18-37.11,93.26,0,4.23-4.52,9.11-8.38,8.77h-57.88Z" style="fill:#eac5a7; fill-rule:evenodd;"/><path d="M636.76,259.29c-.45,4.53-4.29,8.08-8.92,8.08h-6.86l-2.67,4.37c-1.53,2.51-2.44,2.67-5.38,2.67h-16.14c-2.94,0-3.84-.16-5.38-2.67l-2.67-4.37h-6.87c-4.57,0-8.38-3.47-8.9-7.91v-3.13c.24-1.03,1.17-1.79,2.26-1.79h59.25c1.1,0,2.03,.78,2.27,1.81,.02,.09-.04,.29,.02,.33v2.61h0Zm-60.7-20.62h57.58c1.74,0,3.16,1.43,3.16,3.16v4.91c0,1.74-1.42,3.16-3.16,3.16h-57.58c-1.74,0-3.16-1.42-3.16-3.16v-4.91c0-1.74,1.42-3.16,3.16-3.16h0Zm.13-16.14h57.32c1.81,0,3.29,1.48,3.29,3.29v5.11c0,1.81-1.48,3.29-3.29,3.29h-57.32c-1.81,0-3.29-1.48-3.29-3.29v-5.11c0-1.81,1.48-3.29,3.29-3.29Z" style="fill:#9c7357; fill-rule:evenodd;"/><path d="M595.76,222.53l-6.1-73.73h-8.83c-3.82,0-7.28-1.56-9.79-4.07h.01c-2.52-2.52-4.07-5.99-4.07-9.79s1.56-7.28,4.06-9.79c2.51-2.51,5.98-4.07,9.79-4.07s7.03,1.51,9.46,3.94c2.47,2.47,4.06,5.9,4.38,9.65l.69,7.9h27.02l.69-7.9c.33-3.74,1.92-7.18,4.39-9.65,2.43-2.43,5.7-3.94,9.46-3.94s7.27,1.56,9.78,4.07h0c2.51,2.5,4.07,5.97,4.07,9.78s-1.56,7.28-4.07,9.79c-2.51,2.51-5.98,4.07-9.79,4.07h-8.83l-6.09,73.73h-6.22l6.07-73.73h-25.93l6.07,73.73h-6.22Zm-6.64-79.96l-.65-7.37c-.2-2.28-1.13-4.33-2.58-5.78-1.31-1.31-3.06-2.12-5.06-2.12s-4.01,.86-5.39,2.25c-1.39,1.38-2.25,3.29-2.25,5.39s.86,4.01,2.23,5.39h.01c1.38,1.39,3.29,2.24,5.39,2.24h8.29Zm39.51,0h8.29c2.09,0,4-.86,5.39-2.24,1.38-1.38,2.25-3.29,2.25-5.39s-.86-4-2.25-5.39h0c-1.38-1.39-3.28-2.25-5.39-2.25s-3.75,.81-5.06,2.12c-1.45,1.45-2.39,3.51-2.59,5.78l-.64,7.37Z" style="fill:#fff; fill-rule:evenodd;"/><path d="M631.66,75.16c-1.97-.83-2.9-3.11-2.07-5.09,.83-1.97,3.11-2.9,5.09-2.07,1.61,.68,3.14,1.41,4.58,2.18,1.49,.8,2.93,1.67,4.34,2.6,1.79,1.19,2.28,3.6,1.1,5.39-1.19,1.79-3.6,2.28-5.39,1.1-1.2-.79-2.45-1.54-3.73-2.23-1.31-.71-2.62-1.34-3.91-1.88h0Zm17.1,12.41c-1.41-1.62-1.24-4.08,.38-5.49,1.62-1.41,4.08-1.24,5.5,.38,4.11,4.73,7.4,10.18,9.64,16.14,2.16,5.75,3.35,11.95,3.35,18.39,0,2.15-1.75,3.9-3.9,3.9s-3.9-1.75-3.9-3.9c0-5.52-1-10.79-2.83-15.65-1.9-5.06-4.72-9.71-8.25-13.76Z" style="fill:#fff; fill-rule:evenodd;"/><rect x="1434" y="184.72" width="59.52" height="20.57" style="fill:#d0a382;"/><path d="M1434.55,173.27c-3.59-1.67-5.96-4.76-5.96-9.42v-1.45c-.7-40.28-36.1-51.57-38.96-96.13-.22-3.34-.19-6.61,.07-9.79,5.54-33.8,37.66-56.49,73.76-56.49,41.12,0,77.09,29.46,74.46,71.25-2.72,43.23-36.45,54.18-37.12,93.26,0,4.23-4.52,9.11-8.37,8.77h-57.88Z" style="fill:#eac5a7; fill-rule:evenodd;"/><path d="M1495.67,210.03c-.45,4.52-4.29,8.09-8.92,8.09h-6.87l-2.67,4.36c-1.53,2.51-2.44,2.68-5.38,2.68h-16.14c-2.95,0-3.84-.16-5.38-2.68l-2.67-4.36h-6.87c-4.57,0-8.38-3.47-8.9-7.91v-3.14c.25-1.02,1.17-1.79,2.26-1.79h59.25c1.11,0,2.03,.78,2.27,1.81,.02,.09-.04,.29,.01,.33v2.61h0Zm-60.69-20.62h57.58c1.74,0,3.16,1.42,3.16,3.16v4.91c0,1.74-1.42,3.16-3.16,3.16h-57.58c-1.74,0-3.16-1.42-3.16-3.16v-4.91c0-1.74,1.42-3.16,3.16-3.16h0Zm.12-16.15h57.32c1.81,0,3.29,1.48,3.29,3.29v5.1c0,1.81-1.48,3.29-3.29,3.29h-57.32c-1.81,0-3.29-1.48-3.29-3.29v-5.1c0-1.81,1.48-3.29,3.29-3.29Z" style="fill:#9c7357; fill-rule:evenodd;"/><path d="M1454.67,173.27l-6.09-73.73h-8.84c-3.82,0-7.28-1.56-9.79-4.07h0c-2.51-2.52-4.07-5.98-4.07-9.79s1.56-7.28,4.07-9.79c2.51-2.51,5.97-4.07,9.79-4.07s7.03,1.51,9.47,3.94c2.47,2.47,4.05,5.9,4.38,9.65l.69,7.9h27.02l.69-7.9c.33-3.74,1.91-7.18,4.39-9.65,2.43-2.43,5.7-3.94,9.46-3.94s7.26,1.56,9.78,4.07h0c2.51,2.5,4.07,5.97,4.07,9.78s-1.56,7.28-4.07,9.79c-2.51,2.51-5.97,4.07-9.78,4.07h-8.84l-6.1,73.73h-6.22l6.07-73.73h-25.93l6.07,73.73h-6.22Zm-6.64-79.96l-.64-7.37c-.2-2.28-1.13-4.34-2.58-5.78-1.3-1.31-3.06-2.12-5.06-2.12s-4,.86-5.39,2.24c-1.38,1.39-2.24,3.29-2.24,5.39s.85,4.01,2.23,5.39h.01c1.38,1.38,3.29,2.25,5.39,2.25h8.29Zm39.51,0h8.29c2.09,0,4-.86,5.39-2.25,1.38-1.38,2.24-3.29,2.24-5.39s-.86-4-2.24-5.39h0c-1.38-1.39-3.29-2.24-5.39-2.24s-3.76,.81-5.06,2.12c-1.45,1.45-2.39,3.51-2.59,5.78l-.64,7.37Z" style="fill:#fff; fill-rule:evenodd;"/><path d="M1490.57,25.9c-1.97-.83-2.9-3.11-2.07-5.08,.83-1.97,3.11-2.9,5.09-2.07,1.61,.68,3.14,1.42,4.58,2.19,1.48,.8,2.93,1.66,4.34,2.6,1.79,1.19,2.28,3.6,1.09,5.39-1.18,1.79-3.6,2.28-5.39,1.1-1.2-.79-2.44-1.54-3.73-2.23-1.32-.71-2.63-1.34-3.92-1.88h0Zm17.1,12.41c-1.41-1.62-1.24-4.09,.38-5.5,1.62-1.41,4.08-1.24,5.49,.38,4.12,4.72,7.41,10.18,9.65,16.13,2.16,5.75,3.35,11.95,3.35,18.39,0,2.15-1.75,3.9-3.9,3.9s-3.9-1.74-3.9-3.9c0-5.52-1-10.79-2.83-15.65-1.9-5.05-4.71-9.71-8.25-13.76Z" style="fill:#fff; fill-rule:evenodd;"/><path d="M901.5,1048.32c-23.15-8.56-25.01-21.07-37.49-27.19-12.56-6.16-14.01-17.13-1.72-29.04,9.08,7.61,20.33,16.96,26.3,12.01,3.98-3.31,17.49-3.09,20.16,1.73,11.76,28.69,28.12,19.6,31.35,32.66,.37,17.39-27.97,13.77-38.59,9.83Z" style="fill:#0e2952; fill-rule:evenodd;"/><path d="M471.34,384.73c2.58-5.34,5.48-14.84,6.9-31.76-.22,1.68-3.14,23.03-11.35,35.11-33.72,22.13-98.34,96.05-97.05,110.05,0,0-22.77-38.61-23.16-38.84,0,0-41.98-53.39,7.78-83.97,25.29-15.55,25.15-35.5,24.1-52.83-1.06-17.34,6.9-91.93,57.56-72.41,0,0,8.14-3.61,11.78-3.07,0,0-2.97,.57-4.49,2.13,5.87-.35,14.27,.09,21.27,4.07,18.58,10.56,35.2,105.24,6.65,131.52Z" style="fill:#20386f; fill-rule:evenodd;"/><path d="M552.19,271.91c19.82,39.63,3.41,85.27-35.57,101.39-39.23,16.23-82.13,7.01-101.95-32.62-19.82-39.62-5.1-87.14,32.88-106.13,37.97-19,84.81-2.26,104.64,37.36Z" style="fill:#20386f; fill-rule:evenodd;"/><path d="M505.96,426.12c22.56,5.05,51.03,67.73,64.98,107.89,14.06,40.5,37.9,90.73,53.52,106.34,15.61,15.61,118.18,51.8,118.18,51.8,0,0-253.44,.49-248.25-.01,5.2-.5,11.58-266.01,11.58-266.01Z" style="fill:#6d96ce; fill-rule:evenodd;"/><path d="M640.51,672.02c-13.87-1.99-63.93,4.46-42.62-4.46,21.31-8.92,18.34-20.32,18.34-20.32,0,0-30.23,25.27-35.68,3.17-4.71-19.05-6.51-86.33-24.34-153.76-14.74-33.44-34.03-66.89-50.25-70.52,0,0-.57,23.75-1.51,57.04,6.22,73.67,16.79,181.9,19.46,209.19,33.6,.05,89.81,0,136.85-.07l31.28-1.49s-37.66-16.79-51.54-18.77Z" style="fill:#466fb5; fill-rule:evenodd;"/><path d="M423.04,412.24s-71.75,40.08-88.47,48.61c-16.72,8.53,46.85,258.76,61,269.48,14.14,10.73,138.62,1.85,152.79-11.66,14.18-13.51-10.87-54.98,1.39-138,12.26-83.03-37.41-154.7-43.79-154.55-6.38,.16-48.03-13.88-48.03-13.88h-34.89Z" style="fill:#6d96ce; fill-rule:evenodd;"/><path d="M395.57,730.34c14.14,10.73,103.21,10.96,141.13-.83,4.28-1.33,23.71-9.08,24.16-16.35-4.57-.86-22.74,1.33-30.11-.37-25.64-5.89-39.77-37.66-39.77-37.66,0,0-14.12-5.09-45.71-18.47-31.59-13.38-18.58-53.89-19.32-71.73-.75-17.84-31.23-76.19-88.46-120.42l-5.24,2.35c-4.09,40.66,50.25,253.55,63.33,263.48Z" style="fill:#466fb5; fill-rule:evenodd;"/><path d="M467.06,668.05c45.1,8.43,56.19,18.77,80.77,22.74,27.86,4.5,24.55,10.65,3.85,10.65s-72.7,.8-90.55-3.16c-17.85-3.97,5.93-30.23,5.93-30.23Z" style="fill:#f9af79; fill-rule:evenodd;"/><path d="M328.93,465.55c-34.56,110.5-83.56,235.89-75.75,235.89s206.26,8.02,214.07,1.34c7.81-6.68,5.57-32.32,4.46-35.67-1.12-3.34-112.83-23.17-112.83-23.17,0,0,14.71-28.67,20.29-84.7,5.57-56.03-43.68-114.65-50.24-93.7Z" style="fill:#6d96ce; fill-rule:evenodd;"/><path d="M449.32,316.22l-27.84,101.74s47.04,73.43,59.97,66.91c12.94-6.53-7.23-59.69-7.23-66.91s20.16-81.77,20.16-81.77l-45.07-19.97Z" style="fill:#f9af79; fill-rule:evenodd;"/><path d="M475.19,423.14c-.6-2.41-.97-4.22-.97-5.19,0-7.23,20.16-81.77,20.16-81.77l-45.07-19.97-9.21,33.67c8.05,34.78,22.57,57.94,35.08,73.26Z" style="fill:#ed7d57; fill-rule:evenodd;"/><path d="M553.49,314.53c5.3,29.5,1.81,68.69-24.39,78.64-26.2,9.96-57.75-9.1-70.49-42.56-12.72-33.48-1.81-68.69,24.4-78.65,26.2-9.96,64.14,7.33,70.48,42.57Z" style="fill:#f9af79; fill-rule:evenodd;"/><path d="M464.83,331.14c3.67,10.31,.48,20.87-7.12,23.57-7.61,2.7-16.76-3.46-20.43-13.77-3.67-10.31-.48-20.87,7.12-23.58,7.61-2.7,16.75,3.46,20.42,13.78Z" style="fill:#f9af79; fill-rule:evenodd;"/><path d="M553.8,277.47c-8.92,69.23-93.03,60.31-93.03,60.31,0,0-17.35-22.8-25.15-10.84-7.81,11.96,10.83-70.19,59.09-72.77,15.86-.85,59.09,23.31,59.09,23.31Z" style="fill:#20386f; fill-rule:evenodd;"/><polygon points="332.01 1204.48 342.43 1204.48 409.7 892.81 386.78 892.81 332.01 1204.48" style="fill:#9c7357; fill-rule:evenodd;"/><polygon points="655.89 1204.48 645.47 1204.48 567.19 881.79 590.1 881.79 655.89 1204.48" style="fill:#9c7357; fill-rule:evenodd;"/><path d="M450.87,904.48c-41.73,0-68.17-7.49-85.04-23.92-20.91-20.38-25.23-51.93-25.3-93.05-.05-32.36-.82-53.44-2.57-70.47-.66-6.42,4-12.15,10.42-12.81,6.41-.66,12.15,4,12.81,10.41,1.84,17.87,2.64,39.65,2.69,72.82,.07,41.68,5.36,63.8,18.25,76.36,13.23,12.9,37.15,18.21,77.54,17.2,39.01-.96,65.86-6.42,87.43-10.81,28.38-5.76,48.88-9.93,73.19,1.68,5.82,2.79,8.28,9.76,5.51,15.57-2.79,5.82-9.76,8.28-15.57,5.49-17.26-8.24-31.9-5.27-58.47,.13-22.48,4.57-50.44,10.25-91.5,11.27-3.2,.08-6.33,.12-9.38,.12Z" style="fill:#9c7357; fill-rule:evenodd;"/><path d="M356.06,702.78l63.88,2.67-17,176.35s-47.62-30.39-46.88-63.1c.75-32.7,0-115.92,0-115.92Z" style="fill:#9c7357; fill-rule:evenodd;"/><path d="M671.39,719.21c54.01-8.2,72.36-5.61,105.42,55.91,33.05,61.51,77.05,172.27,102.35,186.58,38.1,21.54,50.73,74.36,66.38,71.99,15.65-2.39,25.73,4.53,8.69,18.69-17.02,14.15-44.52,26.19-53.92,23.68-9.4-2.51-16.69-43.13-41.25-56.31-24.55-13.2-17.17-24.03-15.56-35.7,1.61-11.67-71.67-65.37-126.92-132.18-33.75-40.82-51.14-67.76-53.71-92.18-2.58-24.42,8.52-40.49,8.52-40.49Z" style="fill:#f9af79; fill-rule:evenodd;"/><path d="M805.29,942.28c-12.54-31.82-25.13-84.35-36.95-132.5-16.82-68.49-34.45-84.75-45.62-92.05-13.5-3.39-29.5-1.84-51.32,1.47,0,0-11.1,16.07-8.52,40.49,2.58,24.42,19.96,51.36,53.71,92.18,29.09,35.17,63.18,66.71,88.7,90.4Z" style="fill:#f29e63; fill-rule:evenodd;"/><path d="M687.84,773.35s-14.37,108.44-27.76,119.46c-9.56,7.88-16.34,8.41-23.04-23.93-6.69-32.34,10.41-153.05,10.41-153.05l40.39,57.52Z" style="fill:#0e2952; fill-rule:evenodd;"/><polygon points="676.39 832.03 543.38 854.39 618.48 746.71 675.62 735.08 709.89 742.95 676.39 832.03" style="fill:#f1944e; fill-rule:evenodd;"/><path d="M843.51,984.06c-4.31,17.38-3.79,30.22,3.7,36.66,7.49,6.44,35.8,54.27,35.8,54.27l8.82-1.34-20.43-43.77-27.89-45.82Z" style="fill:#0e2952; fill-rule:evenodd;"/><path d="M900.32,1076.07c9.4,2.51,36.89-9.54,53.92-23.68,17.03-14.16,6.95-21.07-8.69-18.69-.87,.13-1.75,.07-2.62-.13-7.82,17.45-33.52,30.54-41.81,12.1-8.22-18.27-43.43-54.64-57.62-62.42,.03,.28,.04,.56,.01,.81-1.61,11.67-8.99,22.5,15.56,35.7,24.55,13.18,31.85,53.8,41.25,56.31Z" style="fill:#0e2952; fill-rule:evenodd;"/><path d="M399.92,723.55c-47.19,84.69-14.95,138.51,42.4,143.99,57.35,5.48,147.89-4.99,200.66-48.85,52.78-43.85,96.1-90.23,90.05-97.14-6.05-6.92-333.12,2-333.12,2Z" style="fill:#f29e63; fill-rule:evenodd;"/><path d="M667.52,786.74c9.66-28.99,20.8-51.23,42.36-51.64,22.68-.41,36.63,11.38,37.6,48.47,1.15,44.18,2.71,190.47,.67,255.52-1.54,49.25,12.81,65.01,11.59,116.34-.91,38.67,40.31,19.13,24.38,39.19-10.95,13.79-43.54,9.27-63.56,6.73-17.84-2.26,9.23-55.72-15.45-70.02-21.18-12.26-21.6-32.18-8.22-47.24,13.38-15.08,1.48-59.67-7.43-90.9-8.92-31.22-22.76-64.99-31.84-138.8-2.59-21.05,4-49.94,9.9-67.65Z" style="fill:#f9af79; fill-rule:evenodd;"/><path d="M770.03,1178.84c-6.83,2.08-15.25,4.38-22.58,4.62-14.87,.5-19.33-15.86-20.31-38.07-.87-19.4-14.95-49.94-29.41-62.33-.27,.35-.54,.7-.83,1.03-13.38,15.07-12.96,34.98,8.22,47.24,24.69,14.3-2.38,67.75,15.45,70.02,20.02,2.54,52.61,7.06,63.56-6.73,10.35-13.04-2.49-14.07-14.1-15.79Z" style="fill:#0e2952; fill-rule:evenodd;"/><path d="M700.24,1078.56s-21.68,22.64-19.7,32.06c1.99,9.42,8.66,33.2,9.78,51.54,1.12,18.34,2.11,39.39,2.11,39.39,0,0,7.81,0,8.42-2.22,.62-2.21,4.96-74.53,4.96-74.53l-5.58-46.24Z" style="fill:#0e2952; fill-rule:evenodd;"/><path d="M377.19,715.83s-27.98,118.79,7.37,151.71c35.36,32.93,182.21,3.31,216.8,1.33,23.42-1.33,46.08,27.25,46.08,27.25,0,0-16.35-66.28-5.2-119.8,11.15-53.51,29.15-57.12,29.15-57.12l-23.94-3.38H377.19Z" style="fill:#1d417f; fill-rule:evenodd;"/><path d="M370.86,684.77c11.97,25.4-12.88,69.25-4.18,81.89,8.71,12.63,58.58,1.76,91.25-24.53,32.68-26.31,94.52-32.08,94.52-32.08l-181.59-25.28Z" style="fill:#6d96ce; fill-rule:evenodd;"/><path d="M421.48,901.21c98.86,3.71,202.92,1.96,202.92-12.78s-4.46-25.13-81.02-19.19c-76.56,5.95-128.59,14.13-151.64,8.92-23.04-5.2,29.74,23.04,29.74,23.04Z" style="fill:#9c7357; fill-rule:evenodd;"/><path d="M195.23,728.35H894.95c2.99,0,5.41-4.82,5.41-10.76v-5.38c0-5.95-2.42-10.77-5.41-10.77H195.23c-2.98,0-5.4,4.82-5.4,10.77v5.38c0,5.95,2.42,10.76,5.4,10.76Z" style="fill:#9c7357; fill-rule:evenodd;"/><path d="M912.69,483.92h-274.92c-5.42,0-11.01,4.43-12.44,9.85l-48.91,186.26c-1.42,5.42,1.84,9.85,7.26,9.85h274.92c5.42,0,11.01-4.43,12.43-9.85l48.91-186.26c1.42-5.42-1.84-9.85-7.26-9.85Z" style="fill:#c4d1eb; fill-rule:evenodd;"/><path d="M586.24,615.74l33.21-126.45c1.42-5.42,7.02-9.85,12.43-9.85h274.92c5.42,0,15.07,6.99,13.46,12.36,.26-4.49-2.84-7.88-7.58-7.88h-274.92c-5.42,0-11.01,4.43-12.44,9.85l-48.91,186.26c-.85,3.25-.02,6.15,1.95,7.94-4.53-2.92-8.84-8.58-7.83-12.42l15.71-59.82Z" style="fill:#859ac6; fill-rule:evenodd;"/><path d="M583.68,689.88h274.92c1.01,0,2.02-.16,3.02-.43-5.47,14.18-20.34,12.08-26.14,12.03H509.53c-17.66-.74-17.2-13.13-17.43-25.07h78.31c-.25,3.79,3.77,8.85,7.97,11.57,1.32,1.2,3.14,1.91,5.31,1.91Z" style="fill:#859ac6; fill-rule:evenodd;"/><path d="M622.16,560.51c29.47,14.91,64.33,19.49,100.18,21.32-.4,1.29-.71,2.61-.92,3.95-2.39,15.11,8.26,27.97,23.64,27.97,14.49,0,27.64-11.47,29.89-25.74,.25-1.55,.35-3.07,.33-4.56,37.22,1,73.17,3.04,102.91,14.68l-20.45,77.87h-265.91l30.33-115.49Z" style="fill:#9db2d9; fill-rule:evenodd;"/><path d="M751.01,569.06c-9.85,0-19.11,7.99-20.67,17.84-1.56,9.85,5.17,17.84,15.02,17.84s19.1-7.99,20.66-17.84c1.56-9.85-5.16-17.84-15.01-17.84Z" style="fill:#9db2d9; fill-rule:evenodd;"/><path d="M255.47,728.35h28.56v517.33h-28.56V728.35h0Zm857.31,.06h28.55v517.32h-28.55V728.41Z" style="fill:#9c7357; fill-rule:evenodd;"/></svg>