<?xml version="1.0" encoding="UTF-8"?><svg id="a" xmlns="http://www.w3.org/2000/svg" viewBox="0 0 1497.22 1618.44"><circle cx="748.61" cy="825.89" r="748.61" transform="translate(-364.73 771.25) rotate(-45)" style="fill:#2b2870;"/><circle cx="748.61" cy="825.89" r="719.41" transform="translate(-364.73 771.25) rotate(-45)" style="fill:#ede4f1;"/><path d="M1079.25,376.62c3.71-4.93,4.26-7.62,8.25-11.85,25.4-27.01,71.08-.55,95.94-1.22l2.33,21.78c11.73,.28,18.55-3.69,17.99-16.05-1.02-22.46-53.94-13.68-61.58-35.69,12.62-17.58,50.45,5.37,65.54,13,10.99,5.55,21.6,10.91,31.57,16.47,10.67,5.95,22.95,16.17,28.02,19.07,2.91-11.75,4.12-33.11,9.7-40.01,1.41-.11,2.8-.06,4.17,.12-38.05-41.87-80.98-79.22-127.87-111.18-2.86,1.51-6.45,2.46-10.37,2.75-15.3,1.13-20.01-8.48-38.67-2.61-9.39,2.96-22.38,10.2-32.99,8.62,2.89-2.17,16.82-15.32,18.57-18.44,16.07-28.66-33.52-7.38-24.61-41.6-24.86-12.21-50.53-23.01-76.9-32.33-1.15,3.13-.93,7.72,.85,14.6,3.76,14.45,6.67,24.8-3.87,33.89-8.66,7.47-21.35,8.82-9.44,25.83,8.8,12.57,18.84,9.08,36.42,8.62,3.53,9.89,3.07,18.66,12.34,21.75,11.02,3.69,17.46,3.79,22.04,13.24-3.17,8.16-8.85,10.72-12.25,21.61-10.69,34.27-2.38,33.69-44.9,58.49,8.44,8.22,35.58,1.11,41.79,21.17,6.07,19.63-17.94,22.53-32.75,28.52-23.37,9.46-16.89,20.59-5.74,37.55,6.96,10.58,16.26,30.07,33.18,28.58,7.12-6.92,2.41-10.43,15.45-13.75,3.53,9.62,10.95,15.19,8.8,30.11-1.43,9.91-7.79,19.15-10.99,28.03-3.54,9.81-4.54,20.95-7.82,30.94-8.76,26.67-25.43,50.45-11.73,94.02,3.15,10.03,7.08,17.94,12.75,25.94,5.75,8.12,11.27,11.02,14.84,23.89,6.39,23.1,13.02,28.19,37.67,39.98,32.98,15.77,41.95,56.93,67.86,46.1,22.74-9.5,3.48-31.16,49.25-28.34,19.31,1.19,17.94-2.95,21.01-19.49,2.3-12.39,11.24-15.13,23.8-11.45,12.58,3.69,24.26,.59,34.84,3.94,20.14,6.38,4.75,33.06,17.16,57.21,6.67,12.97,22.77,39.65,30.56,46.99,12.11,11.41,30.65,24.28,16.98,51.66-9.07,18.15-21.28,35.15-8.9,58.05,32.36,59.87,55.14,40.67,53.79,101.43-.5,22.21,11.43,47.98,24.67,54.7,3.3-2.3,4.91-4.21,7.75-6.38,28.63-77.59,44.28-161.46,44.28-249,0-164.01-54.92-315.16-147.32-436.17l-57.91,12.08c1.03,7.69,5.43,9.66,11.56,12.62-12.39,10.29-20.07,27.92-46.53,11.18-32.99-20.87-25.6,1.78-50.24,1.27,1.83-7.65,2.42-14.3,.62-22.52-8.29-4.91-24.18-2.61-32.61-.05-18.26,5.52-55.44,25.91-63.14,43.65l-21.59,1.91c5.4-8.35,16.63-12.19,13.06-30.1-2.59-12.99-9.8-20.45-7.75-36.56,7.53-2.86,8.67-.73,13.07-6.58h0ZM44.66,677c13.74-65.22,36.29-127.18,66.38-184.57,14.09,.21,30.21,2.32,46.25-2.29,22.25-6.4,62.08-25.29,70.72-38.65-23.23,9.81-32.08,19.13-65.12,14.32-3.18-3.33-5.49-8.55-8.8-12.6-6.32,6.88-7.35,18.57-17.27,20.1-5.29,.81-9.91-.9-13.13-4.04,4.56-7.97,9.29-15.82,14.14-23.59,14.74-2.84,33.88-2.17,44.8-6.05,50.89-18.1,29.72-33.34,39.05-38.7,16-4.79,17.2,12.47,18.62,26.31,20.09,1.47,47.56-12.47,63.53,.36-.44-23.95-15.26-62.85,19.23-59.95-1.42-8.36,.5-10,5.7-16.03,3.57-4.15,.85-.26,3.03-4.1l-14.83-.03c-1.12-6.5-3.61-10.55,3-12.45,15.5-4.43,26.75,9.42,42.08,10.51,19.76,1.41,33.55-13.48,52.09-16.89,25.9-4.76,33.14,10.51,52.06,16.81,17.67,5.89,49.53-8.27,58.17,5.73-13.7,13.95-41.96-3.1-34.68,18.66l16.2,2.78c-2.88,13.87-5.49,15.91-4.25,32.37-26.04,3.01-44.01-6.59-69.23-6.03,3.58-11.14,9.27-11.61,8.86-25.81l-22.09,6.72c-.29-.19-.64-.56-.79-.7-9.5-8.9-23.23-10.38-35.25-3.73,6.21,14.86,7.69,14.62,7.97,34.1,5.47,4.2,14.37,5.15,9.32,15.19-3.23,6.44-9.58,8.83-14.94,13.19-6.92,5.62-5.01,11.16-16.84,9.68-7.12-.9-14.77-5.14-17.1-9.28-3.08,6.1-4.25,10.77-7.61,16.84-9.13,16.5-21.47,31.52-13.1,50.69,13.84,1.59,62.1-5.7,79.1-7.49,58.81-6.2,19.81-34.05,17.74-39.99-6.41-18.41,9.56-50,39.43-45.71,14.09,2.03,18.84,14.3,28.07,15.91,19.77,3.46,18.28-8.58,22.61-19.57,14.73-1.99,15.12,9.88,23.33,18.08,12.32,12.3,44.53,11.73,59.88,25.42,11.79,10.52,9.64,10.77,15.02,26.86,9.13,.63,13.78-1.77,20.82,3.92,4.73,3.82,8.81,8.38,6.92,17.75-7.57,4.92-26.83,6-38.49,4.55-14.65-1.81-15.22-12.11-18.09-24.97-9.85,1.25-17.57,5.69-25.74,7.79-13.18,3.39-19.73-6.31-25.32,3.99-6.99,12.89-12.82,30.07-19.95,42.32,12.75,.29,17.89-13.03,37-12.07l2.59,14.12,26.38-1.78c-1.31,9.74-7.74,17.65-12.98,21.47-12.26,8.93-13.57,3.79-21.3-3.18-37.18-1.47-22.74,26.78-31.32,52.77-4.48,13.56-15.31,11.97-16.74,25.28-2.46,22.9-6.38,9.44-17.08,22.64,3.49,11.9,13.59,9.86,5.29,32.11-3.92,10.49-10.4,19.16-10.29,31.96,.18,21.25,14.04,42.56,16.65,67.27-9.35-2.43-14.74-7.92-19.1-13.28-20.14-24.7-29.31-22.07-56.84-8.27l-1.28,9.46c-44.86,5.68-65.59,28.24-63.52,76.66,.89,20.94,12.82,34.94,30.3,39.81,19.68,5.48,43.16,1.59,38.78-26.9,29.4-4.33,17.82,9.72,29.36,28.55,9.34,15.23,22.16,16.51,42.85,10.13,1.88,13.76,.44,13.06,9.7,19.55,6.61,4.63,8.64,7.19,17.67,11.69,31.97,15.91,19.6-5.69,42.98-2.27,7.08,6.54,3.84,11.34,18.84,9.35-.16-43.03-6.83-42.17,69.12-45.97,65.56-3.28,47.08-2.06,73.86,13.95,7.22,4.32,12.7,5.16,22.28,5.53,39.63,1.54,56.94,22.06,91.45,25.27,26.42,2.47,85.19-11.92,102.58,7.15,6.19,6.79-2.59,35.54-.61,50.37,1.93,14.49,9.65,29.69,15.12,42.13,30.96,70.45-27.41,51.14-41.21,116.7-3.79,17.98-9.92,26.18-16.04,41.43-10.98,27.31,17.99,85.59-14.82,90.44-4.78-4.33-9.66-22.04-23.46-14.07-13.81,7.98-.71,32.62,6.82,41.78,12.86,15.64,13.89,21.7-2.63,36.89l5.47,2.05c1.3,1.69,1.77,4.88,1.06,7.42-2.26,7.98-21.46,3.92-36.59,15.78-1.05,27.88,4.37,49.08,11.68,73.61,2.75,9.24,5.17,25.17,11.72,30.07,10.54,7.88,30.27-5.84,31.31,12.44-12.53,5.81-42.57,11.45-58.91,4.38-10.43-4.51-22.65-23.87-29.48-37.24l-40.33-93.03c-5.95-21.11,2.64-40.67,.99-62.88-1.51-20.31-6.82-35.51-14.76-51.95-13.68-28.36-28.28-64.83-41.73-91.45-19.41,.58-32.35,1.14-43.14-9.71-3.69-3.71-8.03-10.03-11.91-14.48-8.43-9.69-15.27-18.95-25.7-26.94-5.38-4.12-10.58-6.36-16.16-10.17-37.99-25.94-10.51-90.25-29.95-125.14-13.04-23.4-21.67-11.07-32.45-14.07-5.28-1.46-12.19-6.21-17.62-8.72-19.57-9.03-39.36-9.31-56.08-21.49-16.28-11.85-18.68-8.29-40.83-9.91-33.53-2.46-68.98,8.88-98.61,3.57-32.15-5.76-46.12-27.75-62.07-41.7-7.75-6.77-54.45-37.74-64.57-37.08-9.78,28.11,32.62,43.26,40.36,64.67-39.48-.2-35.26-29.38-50.58-56.71-15.06-26.84-42.83-22.51-65.53-39.87-19.11-14.61-25.8-50.53-31.77-73.77-7.78-30.28-22.78-47.36-31.43-72.59l-1.51,3.74c-2.01,6.88-2.6,15.71-5.6,21.85-9.55-.42-15.21-6.58-17.18-15.07h0Zm103.99-248.15c7.94-.92,10.35-6.03,17.52-8.75,6.09-2.31,20.13,1.31,31.76-.99,20.03-3.96,8.84-6.52,18.15-17.31,6.23-7.23,18.21-5.22,19.68-15.35-13.46-11.19-17.03,3.25-22.65,9.28-13.56,14.55-17.29-7.32-27.46,1.78-4.28,3.83-1.56,6.99-11.01,6.62-4.71-.18-7.19-.24-8.98,.18-5.84,8.05-11.51,16.23-17.01,24.54h0Zm49.42-38.45c17.16,6.48,24.99-38.51,1.33-6.66-4.79,6.44-1.33,6.66-1.33,6.66h0Zm50.46-42.86c3.46,6.03,6.51,6.77,13.89,4.52,10.05-3.07,7.88-3.88,15.27,1.18l.67-9.27c-14.8-2.02-26.07-8.99-29.83,3.56h0Zm322.26,485.73c8.55,4.57,22.53,3.28,30.68-2.68,10.31-7.54-3.57-5.37,16.97-18.85,.33-.22,.74-.52,1.04-.72l2.08-1.54c-12.76,.41-24.21-1.95-36.77,1.46-13.4,3.64-17.65,7.24-13.98,22.33h0Zm-103.58-4.36c16.6-.45,13.93-3.69,22.34-9.45,19.21-13.15,37.84,8.83,50.39,7.49,8.37-.9,22.42-1.52,21.16-10.61-1.46-10.5-11.32-6.8-20.99-6.18-12.68,.8-13.45-6.38-29.33-3.87-15.33,2.42-41.43,8.33-43.56,22.62h0ZM797.45,274.46c3.54-3.76,3.64-8.24,7.91-12.01,8.86-7.83,34.81-4.07,35.18-28.17-7.25-.54-9.83,.67-16.82-1.47-15.6-4.78-16.97,2.53-25.36,8.67-6.81,4.99-8.66,1.58-16.59,3.71-8.49,2.28-21.95,10.84-11.74,18.07,3.81,2.7,21.59,9.45,27.42,11.21h0Zm123.15,44.02c3.55-6.91,16.8-20.52,16.17-26.55-.96-9.11-6.88-.25-.99-16.8,2.51-7.03,2.78-9.8,4.06-17.17,20.6,4.25,37.19,39.48,76.37,44.34-1.95,12.45,1.21,15.53-7.76,22.2-5.27,3.91-14.09,7.52-20.93,8.33-19.8,2.32-18.59-19.16-27.2-28.34-19.21,.11-4.81,16.93-15.85,22.79-7.92,4.21-19.53-4.88-23.86-8.8h0Zm-584.09-24.1c-15.49,2.01-32.63,5.6-43.39,11.92,.73,14.23,14.82,14.2,28.07,11.55,18.33-3.67,20.69-.57,22.65,16.66,25.3,1.53,49.58,4.9,49.79-17.43l-16.3,1.06c-3.25-5.29-.05-2.02-4.06-5.17,9.52-22.15,27.31-19.65,40.45-42.23,5.35-9.19,5.96-21.36,12.11-29.73,7.16-9.76,16.54-5.74,21.78-21.45-31.32,2.13-35.36,19.77-62.48,30.37-26.06,10.18-51.16,11.08-48.63,44.46h0Zm112.16-19.48c13.24,7.11,30.83-14.83,63.92,13.36,37.47,31.92,50.98,10.97,58.98,10.69,3.56,18.16,6.87,29.63,16.79,39.09,4.55,4.34,25.2,20.02,33.67,23.72,17.31,7.58,32.68,1.81,36.36-13.6,3.89-16.28-4.96-37.65,2.87-51.57,3.43-6.1,20.86-10.71,34.44-21.36,11.07-8.68,19.81-17.08,31.78-25.53,8.48-5.98,31.39-15.37,34.69-22.77,4.6-10.3-14.86-27.48-9.05-44.67,7.24-3.65,17.87-.27,26.97-2.35,10.47-2.39,8.6-7.16,12.77-16.82,7.06-16.31,31.43-11.33,22.01-32.89-14.43-4.57-36.8,18.98-45.48,24.96-13.49,9.28-13.33-.13-42.23,13.57-1.81,.86-4.98,2.29-6.67,2.64-5.79,1.2-6.38-.14-7.33-.55-2.1-10.06,2.12-16.45,5.06-24.99,3.82-11.13,9.43-17.99,8.74-24.2-2.03-18.35-29.7,3.5-45.77,4.02-10.58,.35-19.61-3.86-28.7,1.01-11.35,6.08-5.07,17.05-14.95,19.13-17.27,3.63-31.73-23.78-47.62,5.1-10.25,18.63-19.77,18.05-45.25,21.09-9.71,1.16-17.48,4.31-24.19,8.67l-55.37,45.49c-7.38,8.06-18.42,28.21-18.8,40.85l2.34,7.92h0Zm-110.3,105.42l-14.58-10.07,3.08,21.33c24.85,.44,27.52,9.84,34.95,21.07,24.72-11.49-17.66-29.03-23.45-32.33Z" style="fill:#d7cce5; fill-rule:evenodd;"/><path d="M376.05,361.56c1.12-2.79,5.64-11.49,10.07-22.38,10.98-5.65,19.75-17.98,26.31-36.99-3.93-12.76-12.22-20.74-24.87-23.92-4.28,15.76-10.65,27.35-19.13,34.75,2.1-16.44-.62-21.6-8.14-15.46,1.03,2.1,1.08,4.75,.16,7.97-5.1,8.32-4.64,17.79,1.37,28.41-2.3,4.8-4.79,9.65-5.92,12.27,6.83,2.2,13.22,6.97,20.15,15.35Z" style="fill:#fab688; fill-rule:evenodd;"/><path d="M415.73,114.65h665.77c51.98,0,94.5,42.52,94.5,94.5v915.16c0,51.97-42.52,94.5-94.5,94.5H415.73c-51.97,0-94.5-42.52-94.5-94.5V209.15c0-51.97,42.52-94.5,94.5-94.5Z" style="fill:#5a53a2; fill-rule:evenodd;"/><path d="M415.73,141.36h665.77c37.29,0,67.79,30.51,67.79,67.79v915.15c0,37.29-30.5,67.79-67.79,67.79H415.73c-37.28,0-67.79-30.51-67.79-67.79V209.15c0-37.28,30.51-67.79,67.79-67.79Z" style="fill:#d7cce5; fill-rule:evenodd;"/><rect x="388.1" y="161.31" width="719.01" height="906.93" transform="translate(-46.65 61.59) rotate(-4.57)" style="fill:#fff;"/><path d="M875.41,799.38c24.47-11.84,51.13-14.05,75.68-8.12,23.79,5.74,45.59,19.14,61.47,38.84l20.27-9.81,22.34,46.17-20.27,9.81c5.58,24.67,2.56,50.08-7.71,72.31-10.59,22.92-28.87,42.45-53.34,54.29-24.48,11.84-51.14,14.05-75.68,8.12-23.79-5.75-45.6-19.15-61.47-38.84l-20.27,9.8-22.34-46.17,4.1-1.98,16.17-7.82c-5.58-24.67-2.56-50.09,7.71-72.31,10.59-22.92,28.87-42.45,53.35-54.29h0Zm142.79,38.11l-32.67,15.8-136.22,65.89-32.67,15.81-10.39,5.02,14.4,29.77,10.39-5.03,32.69-15.81,136.18-65.87,32.69-15.81,10.39-5.03-14.4-29.77-10.39,5.02h0Zm-127.19-5.85c15.47-7.48,32.22-9.33,47.93-6.35,15,2.84,29.04,10.09,40.06,21.04l25.12-12.15c-14.48-17.23-33.97-28.98-55.18-34.1-22.53-5.44-47.04-3.4-69.58,7.5-22.53,10.91-39.35,28.85-49.07,49.89-9.15,19.81-12.04,42.38-7.52,64.43l25.13-12.16c-1.74-15.44,1.29-30.94,8.37-44.47,7.42-14.16,19.26-26.16,34.73-33.64h0Zm46.24,2.57c-13.83-2.63-28.6-.98-42.27,5.63-13.68,6.61-24.13,17.18-30.66,29.65-5.75,10.98-8.46,23.45-7.65,36.02l113.57-54.94c-9.35-8.43-20.81-14.05-32.99-16.35h0Zm64.07,58.3c1.73,15.45-1.29,30.95-8.36,44.46-7.42,14.16-19.26,26.16-34.73,33.64-15.47,7.48-32.22,9.33-47.93,6.35-14.98-2.84-29.01-10.1-40.04-21.05l-25.14,12.16c14.47,17.23,33.97,28.97,55.18,34.1,22.53,5.44,47.04,3.4,69.58-7.5,22.53-10.9,39.34-28.85,49.06-49.9,9.15-19.81,12.04-42.38,7.52-64.43l-25.14,12.16h0Zm-16.4,40.25c5.75-11,8.47-23.47,7.67-36.03l-113.6,54.95c9.34,8.42,20.82,14.04,33,16.35,13.82,2.62,28.6,.99,42.27-5.63,13.67-6.61,24.13-17.18,30.65-29.64Z" style="fill:#9588c0; fill-rule:evenodd;"/><path d="M819.43,1026.21c-.55,2.78-3.27,4.59-6.05,4.04-2.78-.56-4.59-3.27-4.03-6.05,6.37-31.82,27.09-53.93,47.33-75.52,6.26-6.69,12.48-13.31,18.13-20.17-8.44-32.31-2.88-68.71,3.92-89.1,1.75-5.25,3.61-9.55,5.38-12.55,2.64-4.49,5.79-6.84,9.09-6.56,2.62,.22,4.61,1.73,5.86,4.63,20.84,48.72,8.28,79.26-12.87,105.97,.76,2.39,1.62,4.76,2.57,7.08,.74,1.8,4.94,9.42,10,14.21,1.6,1.52,3.16,2.64,4.45,2.94,.55,.13,1.15-.05,1.77-.68,1.56-1.65,3.05-4.97,4.35-10.6l.72-3.51c3.02-15.08,13.1-65.37,26.23-69.85,6.06-2.07,11.54,1.57,15.77,13.92,2.51,7.34,3.5,13,3.94,17.08,.89-8.67,2.6-19.66,8.27-26.81l1.66-2.1,2.66,.16c8.38,.5,13.56,11.59,17.64,20.29,1.53,3.28-.71,5.91,1.04,5.94,1.46,.02-2.15-5.32-1.84-21.17,.14-7.26-.14-14.21-.41-20.91-1-24.66-1.86-46.15,16.98-70.44,1.74-2.24,4.97-2.65,7.21-.92,2.24,1.74,2.65,4.97,.92,7.21-16.56,21.36-15.77,41.09-14.86,63.74,.27,6.85,.56,13.96,.42,21.51-.45,23.56-3.44,31.34-8.6,31.25-4.63-.09-7.12-5.4-10.14-11.86-2.12-4.54-4.67-9.98-6.78-12.68-2.89,6.31-3.71,15.37-4.3,21.79-.61,6.68-1.04,11.47-5.12,12.87-5.12,1.72-9.74-6.27-18.41-31.61-1.84-5.39-2.63-7.52-2.7-7.5-7.53,2.57-16.72,48.4-19.47,62.13l-.78,3.77c-1.74,7.6-4.16,12.5-6.96,15.41-3.52,3.65-7.46,4.51-11.49,3.57-3.31-.77-6.42-2.83-9.2-5.47-6.24-5.91-11.49-15.49-12.43-17.77l-.73-1.83c-4.62,5.27-9.47,10.44-14.35,15.66-19.24,20.53-38.95,41.57-44.75,70.51h0Zm63.5-108.35c15.15-21.81,22.83-47.03,8.84-83.56-1.07,2.22-2.2,5.04-3.31,8.36-5.81,17.45-10.69,47.33-5.53,75.2h0Zm73.47-10.22c.11,1.57,.27,2.21,.98,1.97,1.49-.54,.05-.92-.98-1.97Z" style="fill:#2b2870; fill-rule:evenodd;"/><path d="M485.06,283.81l12.26,2.72c-1.3,6.89-3.96,12.13-7.98,15.76-4.01,3.6-9.3,5.67-15.87,6.2-8.14,.65-15.04-1.59-20.73-6.73-5.67-5.14-8.91-12.52-9.68-22.17-.81-10.19,1.19-18.32,6-24.39,4.81-6.06,11.51-9.44,20.09-10.12,7.5-.6,13.76,1.14,18.79,5.2,3.01,2.39,5.39,5.99,7.18,10.8l-12,3.88c-.98-3.1-2.69-5.49-5.13-7.15-2.46-1.65-5.32-2.34-8.6-2.08-4.55,.37-8.11,2.29-10.66,5.78-2.58,3.48-3.57,8.86-2.98,16.16,.62,7.72,2.46,13.13,5.5,16.18,3.05,3.07,6.81,4.42,11.27,4.07,3.3-.27,6.05-1.53,8.24-3.81,2.2-2.29,3.65-5.7,4.32-10.27h0Zm30.55-10.16c-.5-6.24,.02-11.56,1.55-15.96,1.13-3.23,2.82-6.19,5.03-8.87,2.21-2.67,4.7-4.72,7.47-6.16,3.69-1.92,8.03-3.08,13.02-3.48,9.03-.72,16.47,1.51,22.35,6.67,5.87,5.18,9.2,12.76,10,22.75,.8,9.9-1.28,17.87-6.2,23.89-4.92,6.03-11.9,9.4-20.89,10.12-9.11,.73-16.59-1.47-22.4-6.61-5.82-5.12-9.12-12.58-9.9-22.36h0Zm12.71-1.44c.55,6.94,2.58,12.07,6.08,15.4,3.49,3.32,7.71,4.79,12.64,4.4,4.94-.4,8.85-2.5,11.74-6.31,2.88-3.81,4.03-9.27,3.46-16.38-.56-7.03-2.52-12.15-5.89-15.35-3.36-3.22-7.59-4.61-12.7-4.2-5.1,.4-9.08,2.49-11.92,6.23-2.84,3.76-3.99,9.16-3.42,16.21h0Zm69.92,25.26l-4.89-61.23,11.99-.96,28.48,39.01-3.28-41.03,11.45-.92,4.9,61.23-12.38,.99-28.03-38.26,3.22,40.25-11.46,.92h0Zm86.66-6.94l-4.07-50.88-18.13,1.45-.83-10.35,48.57-3.89,.83,10.35-18.04,1.45,4.07,50.88-12.4,.99h0Zm49.6-3.97l-4.9-61.22,26.04-2.09c6.54-.52,11.35-.35,14.4,.51,3.07,.86,5.59,2.62,7.6,5.29,2,2.68,3.16,5.81,3.45,9.43,.37,4.61-.66,8.5-3.12,11.71-2.45,3.21-6.32,5.41-11.62,6.62,2.79,1.34,5.12,2.88,6.99,4.6,1.89,1.73,4.49,4.87,7.81,9.39l8.42,11.34-14.78,1.19-9.94-12.66c-3.56-4.49-5.98-7.31-7.26-8.45-1.27-1.14-2.57-1.89-3.92-2.24-1.36-.35-3.46-.41-6.31-.18l-2.51,.2,2.05,25.57-12.4,.99h0Zm9.57-36.3l9.15-.74c5.93-.47,9.6-1.02,11.04-1.64,1.43-.62,2.53-1.58,3.26-2.87,.75-1.29,1.04-2.87,.89-4.7-.16-2.07-.85-3.68-2.05-4.87-1.2-1.18-2.81-1.85-4.84-2.02-1.02-.06-4.04,.11-9.04,.51l-9.65,.78,1.25,15.56h0Zm118.47,26.06l-13.36,1.07-6.4-13.52-24.56,1.96-3.97,14.34-13.11,1.05,18.87-63.13,13.1-1.04,29.43,59.26h0Zm-24.6-22.47l-10.32-21.98-6.46,23.32,16.78-1.34h0Zm79.69-4.66l12.27,2.72c-1.3,6.89-3.96,12.13-7.98,15.76-4.01,3.6-9.3,5.67-15.87,6.2-8.14,.66-15.04-1.59-20.74-6.73-5.67-5.14-8.9-12.53-9.68-22.17-.81-10.19,1.19-18.32,6-24.39,4.81-6.06,11.51-9.44,20.09-10.12,7.5-.6,13.76,1.14,18.79,5.19,3.01,2.4,5.39,6,7.18,10.8l-11.99,3.89c-.98-3.11-2.69-5.49-5.13-7.15-2.46-1.65-5.32-2.34-8.6-2.08-4.55,.37-8.11,2.28-10.67,5.78-2.58,3.48-3.56,8.86-2.98,16.16,.62,7.73,2.45,13.13,5.49,16.18,3.06,3.07,6.81,4.42,11.27,4.06,3.3-.26,6.05-1.53,8.24-3.81,2.2-2.29,3.65-5.7,4.31-10.27h0Zm49.3,18.78l-4.07-50.88-18.13,1.45-.82-10.35,48.57-3.89,.83,10.35-18.04,1.44,4.07,50.88-12.4,.99Z" style="fill:#9588c0; fill-rule:evenodd;"/><path d="M556.39,376.29l342.07-27.37c9.71-.78,18.28,6.53,19.06,16.23h0c.77,9.71-6.53,18.28-16.24,19.06l-342.07,27.37c-9.71,.78-18.28-6.53-19.06-16.24h0c-.78-9.71,6.53-18.28,16.24-19.06h0Zm-74.35,368.39l548.39-43.89c9.71-.78,18.28,6.53,19.06,16.24h0c.78,9.7-6.53,18.28-16.23,19.06l-548.39,43.88c-9.71,.78-18.28-6.53-19.06-16.23h0c-.78-9.71,6.53-18.28,16.23-19.06h0Zm-5.65-70.59c-9.71,.78-17.01,9.35-16.23,19.06h0c.77,9.71,9.34,17.01,19.06,16.24l548.39-43.89c9.71-.78,17.01-9.35,16.24-19.06h0c-.78-9.71-9.35-17.01-19.06-16.23l-548.39,43.88h0Zm-5.65-70.59l548.39-43.88c9.71-.78,18.28,6.53,19.06,16.23h0c.78,9.71-6.53,18.28-16.23,19.06l-548.39,43.89c-9.71,.78-18.28-6.53-19.06-16.24h0c-.78-9.7,6.53-18.28,16.23-19.06h0Zm-5.65-70.59c-9.71,.78-17.01,9.35-16.23,19.06h0c.78,9.71,9.35,17.01,19.06,16.24l548.39-43.88c9.71-.78,17.01-9.35,16.24-19.06h0c-.78-9.71-9.35-17.01-19.06-16.23l-548.39,43.88h0Zm-5.65-70.59l548.39-43.88c9.71-.78,18.29,6.53,19.06,16.23h0c.78,9.71-6.53,18.29-16.24,19.06l-548.39,43.88c-9.71,.78-18.28-6.53-19.06-16.23h0c-.78-9.71,6.52-18.28,16.23-19.06Z" style="fill:#d7cce5; fill-rule:evenodd;"/><path d="M583.23,72.96h117.08v-24.67c0-26.56,21.73-48.29,48.29-48.29h0c26.56,0,48.29,21.73,48.29,48.29v24.67h117.08c16.05,0,29.19,13.13,29.19,29.18v55.59c0,16.05-13.13,29.18-29.19,29.18h-330.75c-16.05,0-29.19-13.13-29.19-29.18v-55.59c0-16.05,13.14-29.18,29.19-29.18h0Zm165.38-44.13c-11.8,0-21.37,9.57-21.37,21.37s9.57,21.37,21.37,21.37,21.37-9.57,21.37-21.37-9.57-21.37-21.37-21.37Z" style="fill:#2b2870; fill-rule:evenodd;"/><path d="M748.61,1618.44c402.1,0,730.06-22.76,730.06-50.66s-327.95-50.67-730.06-50.67-730.06,22.76-730.06,50.67,327.96,50.66,730.06,50.66Z" style="fill:#d1c6e2; fill-rule:evenodd;"/><path d="M1221.94,522.49c11.85,6.92,15.49,18.3,23.52,22.53,23.28,2.23,46.22,4.05,57.15,11.73,42.72,52.39,77.23,98.72,103.53,138.97,10.65,22.3,8.51,43.83-6.42,64.6-18.3-17.16-38.15-21.49-59.56-13.02,.71-9.07,4.07-18.52,10.08-28.35-30.74-27.36-55.94-52.47-75.6-75.29,3.64,29.95-7.05,72.55-32.07,127.81-87.05,5.75-136.99,4.35-149.81-4.19-4.24-24.71-7.6-51.67-10.08-80.87-19.99,18.15-36.17,34.26-48.56,48.34-9.39,3.13-19.46,3.75-30.24,1.86-7.61-18.13-15.24-34.55-22.91-49.26,5.29-4.84,14.45-8.71,27.48-11.62,35.54-51.43,66.24-92.95,92.08-124.56,20.05-4.75,35.02-7.23,44.89-7.44,4.22-5.06,10.49-9.4,18.78-13.01-4.84,27-6.67,59.38-6.41,82.26,38.03-28.28,59.4-65.19,64.14-90.51Z" style="fill:#9588c0; fill-rule:evenodd;"/><path d="M1286.5,1003.17c18.05-113.44,3.41-190.68-43.92-231.69-73.51,4.85-120.57,4.61-141.14-.72-.22,7.99-.75,17.39-2.4,29.76-12.81,95.64-28.12,244.11-26.04,389.96,51.89,18.49,133.13,17.71,243.73-2.32-12.63-56.73-22.71-118.39-30.24-184.98Z" style="fill:#38308d; fill-rule:evenodd;"/><path d="M1145.43,543.75c-4.47,13.32-6.86,24.32-7.16,32.99,5.12-4.13,8.9-6.96,11.34-8.48,1.87,21.37,4.6,36.29,8.19,44.74-.25-22.88,1.58-55.26,6.41-82.26-8.29,3.61-14.56,7.95-18.78,13.01Z" style="fill:#38308d; fill-rule:evenodd;"/><path d="M1221.94,522.49c-4.73,25.33-26.11,62.24-64.14,90.51,22.72-8.18,47.56-28.21,61.79-54.85,2.36,9.01,5.33,19.55,8.93,31.61,9.89-12.43,15.53-27.34,16.93-44.74-8.02-4.23-11.66-15.61-23.52-22.53Z" style="fill:#38308d; fill-rule:evenodd;"/><path d="M1342.75,746.35c-15.17,31.44-32.92,62.8-50.59,87.73-4.05-4.4-7.97-13.96-13.71-17.62-2.28-1.46-5.92,2.31-8.35,1.15-11.58-5.54-24.44-7.13-34.83,.76-2.6,1.98-3.99,5.85-4.37,15.02,.44,12.6,10.84,15,25.31,9.07,19.37,21.44,32.26,28.41,42.82,20.91,47.8-43.53,79.45-79.61,94.94-108.26-15.94-12.3-33.01-15.22-51.22-8.76Z" style="fill:#fab688; fill-rule:evenodd;"/><path d="M849.81,740.96c71.62,2.41,122.78,.49,153.48-5.76-7.4-17.57-14.84-33.51-22.31-47.84-57.11,8.6-106.02,14.92-146.71,18.97-14.62-10.16-26.84-14.35-36.65-12.55-2.7,6.25,.2,10.82,8.7,13.71,2.29,3.25,3.21,6.26,2.75,9.06-21.17,9.18-39.81,14.83-55.9,16.97-1.88,19.35,9.9,31.66,35.36,36.92,25.96-6.8,46.4-16.63,61.3-29.48Z" style="fill:#fab688; fill-rule:evenodd;"/><path d="M1293.98,1508.2c-13.34,50.53-8.84,77.44,16.31,81.13,33.41,2.45,42.47-31.04,29.36-100.04,.29,3.76,.52,7.24,.66,10.34,3.69,72.28-51.58,56.11-47.73,22.82,.54-4.64,.98-9.39,1.39-14.24Z" style="fill:#1b2452; fill-rule:evenodd;"/><path d="M1292.59,1522.44c-3.85,33.29,51.42,49.46,47.73-22.82-.14-3.11-.37-6.58-.66-10.34-2.26-29.45-8.4-76.6-7.94-106.32,1.17-75.95-5.48-140.59-19.96-193.91-26.8,4.75-51.84,8.35-75.13,10.8,12.59,44.39,23.51,84.99,32.75,121.81,11.35,45.22,32.52,112.12,27.22,158.04-1.14,9.84-1.84,19.36-2.62,28.5-.41,4.86-.85,9.6-1.39,14.24Z" style="fill:#fab688; fill-rule:evenodd;"/><path d="M1071.59,1531.16c19.28,1.05,1.68,16.26,14.23,19.69,27.44-15.22,42.63-56.71,53.58-75.04,5.76-9.64,9.94,2.63,12.78,16.36,6.1,29.48,5.92,68.4-.98,80.5-5.02-8.87-9.33-36.17-13.9-52.85-26.92,24.3-21.04,51.08-37.01,60.21-38.3,4.3-59.01,5.37-88.09,6.01-6.39-25.08,44.19-16.61,59.39-54.88Z" style="fill:#1b2452; fill-rule:evenodd;"/><path d="M1085.89,1194.5c3.67,145.76,16.9,275.65-7.06,338.47,6.66,4.37-3.29,15.08,6.99,17.88,27.44-15.22,42.63-56.71,53.59-75.04,.06-.1,.12-.2,.18-.3-1.54-3.88-2.63-8.33-3.3-13.36,.48-120.9,30.27-195.46,24.52-258.42-29.01-.43-53.98-3.51-74.93-9.23Z" style="fill:#fab688; fill-rule:evenodd;"/><path d="M1031.54,735.56c-9.64-18.58-19.29-38.04-28.94-58.37-9.95,2.71-17.16,6.1-21.61,10.17,7.47,14.33,14.9,30.27,22.31,47.84,.2,.47,.4,.95,.6,1.43,9.79,1.72,19,1.36,27.65-1.06Z" style="fill:#6251a1; fill-rule:evenodd;"/><path d="M1345.87,727.05c-3.29,6.96-5.18,13.71-5.7,20.26,.86-.34,1.72-.66,2.58-.96,18.21-6.45,35.28-3.54,51.22,8.76-.03,.07-.07,.14-.11,.2,1.98,1.53,3.93,3.2,5.86,5.01,5.46-7.61,9.21-15.31,11.25-23.12-24.3-14.34-46.01-17.74-65.1-10.16Z" style="fill:#6251a1; fill-rule:evenodd;"/><path d="M1163.64,514.95c2.44,9.3,2.19,17.22-.75,23.76-3.85,25.21-5.32,53.63-5.09,74.3,36.3-26.99,57.42-61.85,63.39-86.99-4.81-7.86-6.77-17.04-5.91-27.54-.89-4.91,1.86-14.06,8.26-27.42,21.71-3.82,27.11-22.32,18.07-37.01-10.15-3.64-15.63,4.78-18.3,20.05-5.79-.87-3.57-10.25-2.98-14.64,2.72-12.71,.44-19.57-4.12-31.61-26.08,18.61-48.45,19.19-84.06,8.7,1.04,8.67,1.8,17.03,2.29,25.1-9.76,24.12,5.16,65.13,29.2,73.32Z" style="fill:#fab688; fill-rule:evenodd;"/><path d="M1132.15,416.54c35.61,10.48,57.98,9.9,84.06-8.7,4.57,12.04,6.84,18.9,4.12,31.61-.6,4.39-2.81,13.77,2.98,14.64,2.68-15.26,8.15-23.69,18.3-20.05,9.04,14.69,3.64,33.19-18.07,37.01-6.39,13.37-9.14,22.51-8.26,27.42-.87,10.5,1.1,19.68,5.91,27.54,.29-1.19,.54-2.37,.75-3.52,11.85,6.92,15.49,18.3,23.52,22.53,23.28,2.23,46.22,4.05,57.15,11.73,3.16,3.87,6.26,7.7,9.33,11.51,7.44-17.7,11.35-30.7,10.04-36.45-5.01-21.95-27.8-10.94-27.41-23.93,.61-20.25-27.56-36.11-23.82-56.31,7.66-41.33-8.24-53.86-8.33-57.01-.94-31.31-19.42-32.12-37.8-42.68-32.62-18.74-60.98,4.18-70.24,4.79-47.14,3.13-21.04,23.68-42.14,42.22-17.39,15.26-9.17,26.83-7.38,36.01,.8,4.13,4.59,21.15-7.45,29.75-17.64,12.61-1.5,39.1-11.91,42.3-40.07,12.32-22,24.59-20.92,52.99,.35,9.09,4.58,17.24,10.21,23.91,9.06-11.86,17.64-22.75,25.75-32.66,20.05-4.75,35.02-7.23,44.89-7.44,4.22-5.06,10.49-9.4,18.78-13.01-.47,2.61-.91,5.27-1.32,7.97,2.94-6.54,3.18-14.46,.75-23.76-24.04-8.19-38.96-49.2-29.2-73.32-.49-8.07-1.25-16.43-2.29-25.1Z" style="fill:#071023; fill-rule:evenodd;"/><path d="M1163.64,514.95c14.55,1.66,21.16,1.56,34.62-3.88-7.88,8.64-18.88,13.38-32.99,14.21-.13-3.23-.67-6.67-1.63-10.33Z" style="fill:#ed7d57; fill-rule:evenodd;"/><path d="M183.7,741.12c-38.22-208.45,10.39-282.26,135.41-283.28,33-2.28,66.08-1.51,99.26,2.32,16.45,1.16,63.52,26.68,72.23,38.77,27.13,31.85,49.41,59.36,83.95,112.67,52.25,17.78,114.9,45.67,180.86,79.53,.17,.63,.3,1.32,.41,2.08,1.28,9.46-2.62,28-8.79,40.43-.58,1.16-1.18,2.27-1.79,3.31-72.6-5.81-134.26-23.67-216.58-56.56-26.67-15.45-42.76-25.77-61.83-40-31.37,67.92-1.57,175.92-33.42,193.09-45.15,9.39-112.89,10.21-190.93-1.57-5.61-20.7-10.83-43.94-14.66-64.44-18.84-5.74-33.54-14.52-44.11-26.36Z" style="fill:#f59b1d; fill-rule:evenodd;"/><path d="M404.82,439.47c-5.49-3.27-36.82-5.6-68.65-1.98,3.84-4.84,7.07-11.28,9.7-19.34,56.52-3.31,52.32-17.82,50.84-24.38-8.52-31.4-13.58-51.19-4.68-59.57,3.97,2.37,12.32,7.79,14.53,21.46,3.71-1.83,8.45-4.27,9.39-8.27,2.42-12.01,4.29-37.34,18.18-38.18,1.7,11.36,3.04,23.38,4.01,36.06,7.26,7.08,5.76,32.74-1.69,62.17,3.05,16.9-7.38,25.86-31.3,26.88l-.34,5.14Z" style="fill:#fab688; fill-rule:evenodd;"/><path d="M396.71,393.78c1.48,6.56,5.67,21.07-50.84,24.38-24.59-6.16-44.78-29.02-47.48-38.78-27.59-58.25,5.06-81.89,22.45-90.38,8.8-56.9,89.41-4.68,130.91-31.29,15.78,23.15-4.94,51.29-17.62,51.53-13.89,.84-15.76,26.17-18.18,38.18-.94,4-5.68,6.44-9.39,8.27-2.21-13.67-10.55-19.09-14.53-21.46-8.9,8.37-3.83,28.16,4.68,59.57Z" style="fill:#071023; fill-rule:evenodd;"/><path d="M433.4,833.49c22.41,15.84,41.17,133.54,43,353.1,2.39,82.37-11.71,191.5-29.94,334.93-14.86,6.46-36.69,7.35-53.28,6.45-23.13-178.01-26.91-291.66-9.68-338.29-22.36-57.25-41.12-116.85-55.44-177.64-9.93,84.36-21.67,151.31-35.19,200.84-29.99,79.29-74.43,183.12-133.3,311.51-13.61,1.87-37.81-2.28-51.91-11.6,20.58-157.07,59.93-275.11,96.98-314.21-35.24-200.76-5.91-305.31,37.82-366.66,78.03,11.78,145.78,10.96,190.93,1.58Z" style="fill:#1b2452; fill-rule:evenodd;"/><path d="M497.74,1578.07c-51.48,2.44-85.03,5.21-98.68-.92-10.93-4.9-7.84-16.53-.54-31.13,16.69,5.53,33.47,4.12,50.38-4.24,14.49,10.39,35.4,16.64,62.71,18.76,11.97,7.84,7.79,15.76-13.85,17.52h0Zm-347.16,6.71c-28.63-8.21-50.79-13.69-58.39-21.15-7.76-7.63-.54-17.3,10.13-28.61,14.38,10.2,30.86,13.78,49.42,10.76,13.11,18.89,55.74,10.95,59.93,23.89,5.23,24.09-49.73,18.38-61.1,15.12Z" style="fill:#071023; fill-rule:evenodd;"/><path d="M221.64,549.04c-13.94,80.31-9.13,135.1,6.17,218.44-2.94-.9-5.78-1.86-8.51-2.9-20.22-97.04-19.92-159.77,2.34-215.53Z" style="fill:#ea7924; fill-rule:evenodd;"/><path d="M315.1,1011.8c-15.34-26.41-24.53-50.64-14.37-100.4-1.19,39.46,7.91,73.01,27.34,100.63-9.93,84.36-21.67,151.31-35.19,200.84-21.19,56.04-49.61,124.33-85.23,204.9,29.38-83.65,55.98-157.59,79.79-221.83,17.03-70.82,26.25-132.2,27.66-184.14Z" style="fill:#071023; fill-rule:evenodd;"/><path d="M150.67,1524.79c-2,6.89-2.79,14.05-2.36,21.46-15.24,1.84-29.02-.91-41.36-8.23,3.46-6.59,6.06-13.71,7.82-21.34,10.92,5.05,24.83,7.83,35.91,8.11h0Zm251.5,22.33c.74-6.48,1.04-12.77,.91-18.87,11.79,.06,24.82-.94,35.73-4.05,1.24,7.96,3.51,14.33,6.79,19.11-14.56,6.43-29.03,7.7-43.43,3.8Z" style="fill:#fab688; fill-rule:evenodd;"/><path d="M336.17,437.5c-5.99,4.74-12.03,11.42-17.07,20.34,33-2.28,66.08-1.51,99.25,2.32-3.38-8.41-8.74-16.11-13.54-20.68-5.49-3.27-36.82-5.6-68.65-1.98Z" style="fill:#bc772a; fill-rule:evenodd;"/><polygon points="560.48 1400.35 569.7 1614.4 803.21 1589.81 775.56 1400.35 560.48 1400.35" style="fill:#9588c0; fill-rule:evenodd;"/><path d="M530.78,1588.02c18.81,6.92,29.69,16.38,38.92,26.38l-9.22-214.05-10.5-.26-19.21,187.94Z" style="fill:#38308d; fill-rule:evenodd;"/><path d="M560.48,1400.35l27.16,85.87c3.9,9.52,7.91,17.85,23.73,16.54l149.85-9.5c13.36-.85,13.68-7.6,13.79-16.75v-76.16h-214.53Z" style="fill:#6251a1; fill-rule:evenodd;"/><path d="M668.66,1487.51l38.11-2.46c2.1-.14,4.2,1.33,4.51,3.42l5.19,33.85c.32,2.08-1,4.01-3.06,4.21l-39.66,4.01c-2.07,.21-4.3-1.31-4.51-3.42l-3.65-35.4c-.21-2.12,.96-4.08,3.06-4.22Z" style="fill:#d7cce5; fill-rule:evenodd;"/><polygon points="675.7 1496.62 678.16 1520.51 706.1 1517.69 702.61 1494.89 675.7 1496.62" style="fill:#6251a1; fill-rule:evenodd;"/><path d="M605.28,1400.35c2.34-8.3,7.8-15.22,15.18-20.63,3.17-2.33,6.72-4.37,10.52-6.11,2.25-5.85,15.8-10.77,32.34-11.41,17.52-.67,32.05,3.71,33.48,9.92,1.1,.48,2.18,.99,3.24,1.53,11,5.63,19.22,14.46,21.89,26.71h-8.06c-2.58-8.99-8.98-15.54-17.35-19.83-1.13-.58-2.29-1.12-3.49-1.62-5.5,3.93-16.29,6.86-28.79,7.34-13.1,.5-24.53-1.83-30.06-5.62-3.32,1.53-6.41,3.3-9.17,5.33-5.27,3.87-9.33,8.69-11.47,14.4h-8.27Z" style="fill:#38308d; fill-rule:evenodd;"/><polygon points="1035.64 1359.2 1027.26 1553.76 815.01 1531.42 840.14 1359.2 1035.64 1359.2" style="fill:#9588c0; fill-rule:evenodd;"/><path d="M1062.64,1529.79c-17.09,6.29-26.99,14.89-35.38,23.97l8.38-194.56,9.54-.24,17.46,170.83Z" style="fill:#38308d; fill-rule:evenodd;"/><path d="M1035.64,1359.2l-24.68,78.05c-3.55,8.65-7.2,16.22-21.57,15.03l-136.22-8.63c-12.14-.77-12.43-6.91-12.53-15.23v-69.22h195.01Z" style="fill:#6251a1; fill-rule:evenodd;"/><path d="M937.31,1438.43l-34.65-2.24c-1.9-.12-3.81,1.21-4.1,3.11l-4.71,30.77c-.29,1.89,.91,3.65,2.78,3.84l36.04,3.65c1.89,.19,3.91-1.19,4.1-3.11l3.31-32.18c.2-1.92-.88-3.71-2.78-3.83Z" style="fill:#d7cce5; fill-rule:evenodd;"/><polygon points="930.91 1446.71 928.68 1468.42 903.28 1465.86 906.45 1445.13 930.91 1446.71" style="fill:#6251a1; fill-rule:evenodd;"/><path d="M994.92,1359.2c-2.12-7.55-7.09-13.84-13.8-18.76-2.89-2.12-6.11-3.97-9.56-5.55-2.05-5.32-14.36-9.79-29.4-10.37-15.92-.61-29.13,3.38-30.43,9.02-1.01,.43-1.99,.9-2.95,1.39-10,5.12-17.47,13.14-19.89,24.28h7.33c2.35-8.17,8.16-14.13,15.76-18.02,1.03-.53,2.09-1.01,3.17-1.47,5,3.57,14.81,6.23,26.17,6.67,11.91,.45,22.3-1.66,27.32-5.11,3.02,1.38,5.82,3,8.33,4.84,4.79,3.52,8.47,7.9,10.43,13.09h7.52Z" style="fill:#38308d; fill-rule:evenodd;"/><path d="M842.61,746.63c-15.51-4.85-25.46-13.51-40.96-29.3,0-2.84,.77-4.13,6.93-5.57,8.86-1.39,16.58-4,14.96-10.63-9.37-3.44-28.93-5.7-45.04,1.82-7.22-2-14.7-4.13-22.44-6.37,.16,9.28-3,23.64-7.83,34.51,2.09,.53,4.28,1.21,7.14,2.11,12.56,15.21,23.91,29.81,48.37,40.94,21.55,5.2,47.33-11.44,38.88-27.52Z" style="fill:#fab688; fill-rule:evenodd;"/><path d="M410.13,837.31c18.48-61.05,2.36-152.13,19.11-195-15.67-21.65-28.53-46.91-38.57-75.77,5.06,11.72,13.77,23.64,26.84,34.9,21.04,17.02,35.9,28.95,49.31,38.96-31.37,67.91-1.56,175.92-33.41,193.1-7.2,1.5-14.98,2.78-23.27,3.82Z" style="fill:#ea7924; fill-rule:evenodd;"/><path d="M831.11,704.21c-13.24-8.62-24.4-12.09-33.49-10.42-2.7,6.25,.2,10.82,8.7,13.71,1.79,2.54,2.74,4.94,2.85,7.21l9.4-.82,12.54-9.67Z" style="fill:#fab688; fill-rule:evenodd;"/><path d="M791.84,698.86c-.8,8.37,3.69,12.98,13.48,13.83,.87-.31,1.94-.62,3.25-.93-.47-1.37-1.22-2.8-2.26-4.27-6.34-2.15-9.56-5.24-9.67-9.27-1.59,.15-3.2,.36-4.8,.64Z" style="fill:#ed7d57; fill-rule:evenodd;"/><path d="M847.48,742.91c-14.54-5.61-27.35-14.43-38.41-26.46,0,.03,0,.07-.01,.11-1.95,.84-3.87,1.66-5.78,2.44,14.59,14.73,24.37,22.96,39.33,27.63,1.68-1.21,3.3-2.45,4.87-3.72Z" style="fill:#ed7d57; fill-rule:evenodd;"/><path d="M753.02,739.45c9.21,13.46,19.87,23.53,31.96,30.2,1.15,.28,2.32,.55,3.53,.79,1.76-.46,3.5-.93,5.21-1.43-17.83-10.31-27.66-22.83-38.37-35.81-.74,.12-1.46,.22-2.19,.31-.2,2.06-.25,4.03-.14,5.93Z" style="fill:#ed7d57; fill-rule:evenodd;"/></svg>