<?xml version="1.0" encoding="UTF-8"?><svg id="a" xmlns="http://www.w3.org/2000/svg" viewBox="0 0 2224.65 1547.76"><path d="M341.5,183.72c277.66-103.08,559.86-11.95,751.25,186.54,95.72,99.27,244.05,64.97,395.07,30.67,150.92-34.28,304.54-68.56,411.02,30.49,145.38,135.23,78.79,482.93-120.56,633.53-270.95,204.7-1280.35,210.84-1447.83,140.6-286.2-120.03-1.83-342.31-135.42-555.38-157.61-251.38,23.77-420.9,146.47-466.45Z" style="fill:#e0e8f5; fill-rule:evenodd;"/><path d="M1839.6,539.54c49.4,45.1,27.93,90.22-8.58,173.98-36.5,83.77-42.95,393.1-42.95,393.1l30.06-4.29s-4.32-317.92,36.51-403.84c40.81-85.93,58.03-128.87,94.52-100.95,36.5,27.93-109.56-58-109.56-58Z" style="fill:#b0c2e4; fill-rule:evenodd;"/><path d="M1812.48,481.14c5.97-26.74,41.62-55.65,89.27-80.2-7.12,39.43-29.77,103.9-6.31,117.13,31.71,17.82,3.08-72.19,15.31-121.65,44.76-21.86,98.61-39.72,148.15-48.6-.1,.19-.14,.37-.19,.55-27.92,70.89-64.43,98.81-49.4,109.54,11.28,8.08,48.12-73.79,96.81-115.76,36.5-1.94,67.41,2.99,85.66,17.47,28.25,22.36,47.22,42.2,18.82,110.3-16.21,11.59-37.26,19.91-61.67,22.36-64.42,6.45-94.53,8.59-49.4,30.07,22.09,10.52,59.07-.59,89.13-7.37-9.72,17.94-21.72,38.25-36.27,61.39-9.25,14.67-19.39,27.4-30.2,38.43-20.76,3.98-38.87,4.01-48.45-.09-30.06-12.89-107.38-53.71-126.72-36.51-18.91,16.81,143.22,27.47,131.98,70.21-78.6,45.27-168.54,23.73-184.42-17.84-21.37-55.83-100.17-68.97-82.1-149.44Z" style="fill:#c4d1eb; fill-rule:evenodd;"/><path d="M1974.95,786.57c-85.95-64.45-173.99-4.31-219.12,64.44-45.08,68.72-12.89,223.38-12.89,223.38,0,0,17.21,0,17.21-6.44s-47.27-182.57,64.42-262.06c69.88-49.7,120.27-25.77,126.72-2.13,6.45,23.62-27.93,66.59-27.93,66.59l51.59-83.77Z" style="fill:#b0c2e4; fill-rule:evenodd;"/><path d="M1777.3,654.11c85.95,0,113.87,133.18,90.22,210.5-23.61,77.33-55.85,221.24-55.85,221.24l-21.47-21.47s81.63-201.91,62.29-292.13c-19.34-90.22-66.55-105.26-75.19-105.26s0-12.88,0-12.88Z" style="fill:#b0c2e4; fill-rule:evenodd;"/><path d="M1849.36,865.21c6.06-8.02,13.51-14.63,22.62-19.02-1.19,6.41-2.66,12.57-4.46,18.41-10.76,35.24-23.28,84.29-33.8,127.25-.9-5.49-2.42-13.97-4.65-27.05-.56-3.1-.95-6.45-1.27-10,8.44-28.61,16.4-59.81,21.57-89.59Z" style="fill:#b0c2e4; fill-rule:evenodd;"/><path d="M1872.88,865.85c163.22-68.74,77.23-163.06,221.15-100.77,10.14,4.38,22.48,15.46,34.85,30.71-12.8,3.63-28.3,6.25-45.61,3.66-42.95-6.46-27.93,27.92,42.99,36.51,13.33,1.62,24.18,3.86,33.18,7.01,33.8,64.87,49.02,150.2-22.47,179.86-14.08,5.86-31.48,9.21-50.87,10.45-22.04-17.51,5.4-118.96-28.63-104.95-32.62,13.45,10.28,86.95,4.41,105.47-32.24-.58-67.93-5.85-101.97-14.29-13.51-7.57-23.84-17.71-26.97-31.02-10.76-45.12,60.12-73.04,62.29-111.71,1.94-35.54-26.03,78.21-100.03,94.95-66.99-31.28-98.65-73.74-22.33-105.88Z" style="fill:#c4d1eb; fill-rule:evenodd;"/><path d="M1756.54,744.32c17.21-36.51-27.92-45.12-25.74-17.2,1.85,24.76,2.08,84.9-23.28,101.27-43.76-4.75-103.3-22.38-148.34-49.25-.57-3.63,0-7.37,1.9-11.2,19.34-38.67,143.92-70.89,105.24-83.77-30.77-10.28-84.76,50.31-128.24,80.83-26.12-19.82-43.61-43.43-43.61-69.79,0-35.7,43.38-76.09,99.46-95.4,25.22,2.55,48.68,16.34,85.28,37.1,54.09,30.65,41.57-18.91-9.57-48.31,44.18,2.28,88.17,21.14,120.65,66.21,0,0-3.08,19.26,17.3,49.06,55.61,81.28-8.58,128.73-85.28,125.65,4.37-21.42,22.38-59.98,34.23-85.21Z" style="fill:#c4d1eb; fill-rule:evenodd;"/><path d="M1969.77,782.92c42.01,32.46,88.66,70.42,145.92,96.18,57.32,25.79,45.84,109.8,45.84,109.8,0,0,8.59-72.55-39.16-97.38-47.74-24.81-79.21-54.42-115.48-60.14-36.32-5.74-56.37-11.46-56.37-11.46,0,0,11.47-22.92,4.79-31.51-6.68-8.58,14.45-5.49,14.45-5.49Z" style="fill:#b0c2e4; fill-rule:evenodd;"/><path d="M2176.81,401.76c-153.7,41.05-266.34,139.38-287.38,163.26-21.01,23.85-21.01,30.54-21.01,30.54l16.27,30.55,7.63-3.82s-12.42-25.77,20.05-59.18c55.99-57.63,124.11-103.12,170.9-123.16,46.79-20.05,93.54-38.18,93.54-38.18Z" style="fill:#b0c2e4; fill-rule:evenodd;"/><path d="M1752.51,1252.57h58.74c41.76,0,75.61-33.85,75.61-75.62v-134.92h-209.97v134.92c0,41.77,33.85,75.62,75.61,75.62Z" style="fill:#9db2d9; fill-rule:evenodd;"/><rect x="1676.89" y="1066.14" width="209.96" height="14.78" style="fill:#fff;"/><rect x="1676.89" y="1093.1" width="209.96" height="8.68" style="fill:#fff;"/><path d="M385.05,539.54c-49.4,45.1-27.93,90.22,8.58,173.98,36.5,83.77,42.95,393.1,42.95,393.1l-30.06-4.29s4.32-317.92-36.5-403.84c-40.81-85.93-58.03-128.87-94.52-100.95-36.5,27.93,109.56-58,109.56-58Z" style="fill:#b0c2e4; fill-rule:evenodd;"/><path d="M412.16,481.14c-5.97-26.74-41.62-55.65-89.26-80.2,7.11,39.43,29.76,103.9,6.3,117.13-31.71,17.82-3.08-72.19-15.31-121.65-44.76-21.86-98.61-39.72-148.15-48.6,.1,.19,.15,.37,.19,.55,27.93,70.89,64.42,98.81,49.4,109.54-11.29,8.08-48.12-73.79-96.8-115.76-36.5-1.94-67.42,2.99-85.67,17.47-28.25,22.36-47.22,42.2-18.82,110.3,16.21,11.59,37.26,19.91,61.67,22.36,64.42,6.45,94.53,8.59,49.4,30.07-22.09,10.52-59.07-.59-89.13-7.37,9.72,17.94,21.72,38.25,36.27,61.39,9.25,14.67,19.39,27.4,30.2,38.43,20.76,3.98,38.88,4.01,48.45-.09,30.06-12.89,107.38-53.71,126.72-36.51,18.92,16.81-143.21,27.47-131.98,70.21,78.6,45.27,168.53,23.73,184.41-17.84,21.38-55.83,100.18-68.97,82.11-149.44Z" style="fill:#c4d1eb; fill-rule:evenodd;"/><path d="M249.7,786.57c85.95-64.45,173.99-4.31,219.12,64.44,45.08,68.72,12.89,223.38,12.89,223.38,0,0-17.21,0-17.21-6.44s47.27-182.57-64.42-262.06c-69.88-49.7-120.27-25.77-126.72-2.13-6.45,23.62,27.92,66.59,27.92,66.59l-51.58-83.77Z" style="fill:#b0c2e4; fill-rule:evenodd;"/><path d="M447.35,654.11c-85.95,0-113.87,133.18-90.22,210.5,23.61,77.33,55.85,221.24,55.85,221.24l21.48-21.47s-81.64-201.91-62.29-292.13c19.34-90.22,66.55-105.26,75.19-105.26s0-12.88,0-12.88Z" style="fill:#b0c2e4; fill-rule:evenodd;"/><path d="M375.28,865.21c-6.07-8.02-13.51-14.63-22.61-19.02,1.18,6.41,2.66,12.57,4.46,18.41,10.76,35.24,23.28,84.29,33.8,127.25,.91-5.49,2.42-13.97,4.64-27.05,.57-3.1,.95-6.45,1.28-10-8.44-28.61-16.4-59.81-21.57-89.59Z" style="fill:#b0c2e4; fill-rule:evenodd;"/><path d="M351.77,865.85c-163.22-68.74-77.23-163.06-221.15-100.77-10.14,4.38-22.48,15.46-34.85,30.71,12.8,3.63,28.3,6.25,45.61,3.66,42.94-6.46,27.92,27.92-43,36.51-13.33,1.62-24.18,3.86-33.19,7.01-33.8,64.87-49.02,150.2,22.48,179.86,14.08,5.86,31.48,9.21,50.87,10.45,22.04-17.51-5.4-118.96,28.63-104.95,32.62,13.45-10.28,86.95-4.41,105.47,32.24-.58,67.93-5.85,101.97-14.29,13.51-7.57,23.85-17.71,26.97-31.02,10.76-45.12-60.11-73.04-62.29-111.71-1.94-35.54,26.03,78.21,100.03,94.95,66.99-31.28,98.65-73.74,22.33-105.88Z" style="fill:#c4d1eb; fill-rule:evenodd;"/><path d="M468.11,744.32c-17.21-36.51,27.92-45.12,25.74-17.2-1.85,24.76-2.09,84.9,23.28,101.27,43.76-4.75,103.3-22.38,148.34-49.25,.57-3.63,0-7.37-1.89-11.2-19.34-38.67-143.93-70.89-105.25-83.77,30.77-10.28,84.76,50.31,128.24,80.83,26.12-19.82,43.61-43.43,43.61-69.79,0-35.7-43.38-76.09-99.46-95.4-25.22,2.55-48.69,16.34-85.28,37.1-54.09,30.65-41.57-18.91,9.57-48.31-44.18,2.28-88.17,21.14-120.65,66.21,0,0,3.08,19.26-17.3,49.06-55.61,81.28,8.58,128.73,85.28,125.65-4.36-21.42-22.38-59.98-34.23-85.21Z" style="fill:#c4d1eb; fill-rule:evenodd;"/><path d="M254.87,782.92c-42.01,32.46-88.65,70.42-145.92,96.18-57.32,25.79-45.84,109.8-45.84,109.8,0,0-8.58-72.55,39.16-97.38,47.74-24.81,79.22-54.42,115.48-60.14,36.32-5.74,56.37-11.46,56.37-11.46,0,0-11.47-22.92-4.79-31.51,6.68-8.58-14.45-5.49-14.45-5.49Z" style="fill:#b0c2e4; fill-rule:evenodd;"/><path d="M47.84,401.76c153.7,41.05,266.33,139.38,287.39,163.26,21,23.85,21,30.54,21,30.54l-16.26,30.55-7.64-3.82s12.42-25.77-20.05-59.18c-55.99-57.63-124.11-103.12-170.89-123.16-46.8-20.05-93.54-38.18-93.54-38.18Z" style="fill:#b0c2e4; fill-rule:evenodd;"/><path d="M472.14,1252.57h-58.74c-41.76,0-75.61-33.85-75.61-75.62v-134.92h209.96v134.92c0,41.77-33.84,75.62-75.61,75.62Z" style="fill:#9db2d9; fill-rule:evenodd;"/><rect x="337.79" y="1066.14" width="209.95" height="14.78" style="fill:#fff;"/><rect x="337.79" y="1093.1" width="209.95" height="8.68" style="fill:#fff;"/><path d="M1102.95,1464.43c518.43,0,938.7,18.65,938.7,41.65s-420.27,41.67-938.7,41.67-938.71-18.66-938.71-41.67,420.28-41.65,938.71-41.65Z" style="fill:#c4d1eb; fill-rule:evenodd;"/><path d="M744.77,130.57h758.17c59.19,0,107.62,48.42,107.62,107.61V1280.37c0,59.19-48.43,107.62-107.62,107.62H744.77c-59.19,0-107.62-48.43-107.62-107.62V238.18c0-59.19,48.43-107.61,107.62-107.61Z" style="fill:#b0c2e4; fill-rule:evenodd;"/><path d="M744.77,160.98h758.17c42.46,0,77.21,34.74,77.21,77.2V1280.37c0,42.45-34.74,77.21-77.21,77.21H744.77c-42.46,0-77.2-34.75-77.2-77.21V238.18c0-42.46,34.74-77.2,77.2-77.2Z" style="fill:#e0e8f5; fill-rule:evenodd;"/><polygon points="685.27 214.23 1437.45 155.02 1521.82 1226.84 769.63 1286.05 685.27 214.23" style="fill:#fff; fill-rule:evenodd;"/><polygon points="729.39 279.19 1404.04 226.08 1410.9 313.14 736.24 366.24 729.39 279.19" style="fill:#c4d1eb; fill-rule:evenodd;"/><path d="M762.93,435.81l85.69-6.75,6.75,85.7-85.7,6.74-6.74-85.69h0Zm54.75,695.69l85.69-6.74,6.75,85.69-85.69,6.74-6.75-85.69h0Zm-10.94-139.14l85.68-6.73,6.75,85.68-85.69,6.75-6.74-85.7h0Zm-10.96-139.14l85.7-6.74,6.74,85.69-85.69,6.74-6.75-85.69h0Zm-10.94-139.14l85.69-6.75,6.74,85.69-85.69,6.75-6.74-85.69h0Zm-10.95-139.14l85.69-6.74,6.75,85.69-85.7,6.75-6.74-85.7Z" style="fill:#c4d1eb; fill-rule:evenodd;"/><path d="M916.2,426.89l465.19-36.62c7.85-.62,14.78,5.3,15.4,13.16h0c.62,7.86-5.3,14.79-13.16,15.41l-465.19,36.62c-7.85,.62-14.78-5.3-15.4-13.16h0c-.62-7.85,5.3-14.79,13.16-15.41h0Zm54.75,695.7l465.2-36.61c7.85-.62,14.78,5.3,15.4,13.15h0c.62,7.87-5.3,14.8-13.16,15.42l-465.19,36.61c-7.86,.61-14.79-5.3-15.41-13.16h0c-.62-7.86,5.3-14.8,13.16-15.41h0Zm4.02,50.88c-7.86,.62-13.78,7.55-13.16,15.41h0c.62,7.85,7.55,13.78,15.41,13.16l279.4-21.99c7.85-.62,13.78-7.56,13.16-15.41h0c-.62-7.86-7.55-13.78-15.41-13.16l-279.39,21.99h0Zm-14.97-190.02l465.19-36.61c7.86-.62,14.79,5.3,15.41,13.16h0c.62,7.85-5.3,14.79-13.16,15.41l-465.19,36.61c-7.86,.62-14.79-5.3-15.4-13.16h0c-.63-7.86,5.3-14.79,13.15-15.41h0Zm4.01,50.88c-7.85,.61-13.78,7.55-13.16,15.4h0c.61,7.87,7.55,13.78,15.41,13.16l279.4-21.99c7.85-.62,13.78-7.55,13.16-15.4h0c-.62-7.86-7.55-13.78-15.41-13.16l-279.4,21.99h0Zm-14.95-190.02l465.18-36.61c7.86-.63,14.79,5.3,15.41,13.15h0c.62,7.87-5.3,14.79-13.16,15.41l-465.19,36.62c-7.86,.61-14.79-5.3-15.4-13.16h0c-.63-7.86,5.3-14.8,13.16-15.41h0Zm4,50.88c-7.85,.62-13.77,7.55-13.15,15.41h0c.61,7.85,7.54,13.78,15.4,13.16l279.4-21.99c7.85-.63,13.78-7.56,13.16-15.41h0c-.62-7.86-7.55-13.78-15.41-13.16l-279.4,21.99h0Zm-14.95-190.03l465.18-36.61c7.86-.62,14.79,5.3,15.41,13.16h0c.62,7.86-5.3,14.79-13.16,15.41l-465.19,36.62c-7.85,.62-14.79-5.3-15.41-13.16h0c-.61-7.85,5.31-14.79,13.16-15.41h0Zm4.01,50.89c-7.86,.62-13.78,7.54-13.16,15.4h0c.61,7.86,7.54,13.77,15.4,13.17l279.4-22c7.85-.62,13.78-7.55,13.16-15.4h0c-.62-7.86-7.55-13.78-15.41-13.16l-279.39,21.99h0Zm-14.96-190.02l465.18-36.62c7.86-.62,14.79,5.3,15.41,13.16h0c.62,7.86-5.31,14.79-13.16,15.4l-465.19,36.62c-7.85,.62-14.78-5.3-15.41-13.16h0c-.61-7.85,5.3-14.79,13.16-15.4h0Zm4.01,50.89c-7.86,.62-13.78,7.55-13.16,15.4h0c.62,7.86,7.55,13.78,15.41,13.16l279.4-21.99c7.85-.62,13.78-7.55,13.16-15.4h0c-.62-7.86-7.56-13.78-15.4-13.16l-279.4,21.99h0Zm-10.95-139.14c-7.86,.62-13.78,7.54-13.16,15.4h0c.62,7.86,7.55,13.78,15.41,13.16l279.4-21.99c7.85-.62,13.78-7.54,13.16-15.4h0c-.62-7.86-7.55-13.78-15.4-13.16l-279.4,21.99Z" style="fill:#c4d1eb; fill-rule:evenodd;"/><path d="M935.52,83.09h133.34v-28.09c0-30.25,24.75-54.99,55-54.99h0c30.25,0,54.99,24.75,54.99,54.99v28.09h133.34c18.28,0,33.24,14.96,33.24,33.23v63.31c0,18.28-14.96,33.24-33.24,33.24h-376.66c-18.28,0-33.23-14.95-33.23-33.24v-63.31c0-18.28,14.95-33.23,33.23-33.23h0Zm188.33-50.25c-13.44,0-24.34,10.89-24.34,24.33s10.9,24.34,24.34,24.34,24.34-10.9,24.34-24.34-10.9-24.33-24.34-24.33Z" style="fill:#9db2d9; fill-rule:evenodd;"/><path d="M774.22,455.07c-2.64-3.66-1.83-8.77,1.83-11.42,3.66-2.65,8.77-1.83,11.43,1.82l21.68,29.81,39.86-65.39c2.35-3.85,7.38-5.07,11.24-2.71,3.84,2.35,5.07,7.37,2.72,11.23l-46.04,75.53c-.56,1.04-1.35,1.96-2.38,2.7-3.66,2.65-8.77,1.83-11.43-1.83l-28.9-39.73h0Zm10.95,139.14c-2.64-3.66-1.83-8.77,1.83-11.42,3.66-2.66,8.77-1.83,11.43,1.82l21.68,29.81,39.86-65.39c2.35-3.85,7.38-5.07,11.23-2.72,3.85,2.35,5.08,7.38,2.73,11.23l-46.05,75.53c-.56,1.04-1.36,1.96-2.38,2.69-3.66,2.65-8.77,1.83-11.43-1.82l-28.9-39.73h0Zm43.81,556.57c-2.65-3.66-1.84-8.78,1.83-11.43,3.66-2.65,8.77-1.83,11.42,1.82l21.68,29.81,39.87-65.39c2.34-3.85,7.38-5.08,11.23-2.73,3.85,2.35,5.07,7.38,2.72,11.24l-46.04,75.53c-.57,1.03-1.36,1.96-2.38,2.69-3.66,2.64-8.77,1.83-11.43-1.83l-28.89-39.73h0Zm-10.95-139.15c-2.65-3.66-1.83-8.76,1.83-11.42,3.66-2.65,8.77-1.84,11.42,1.82l21.68,29.81,39.86-65.4c2.34-3.85,7.38-5.07,11.23-2.71,3.85,2.34,5.07,7.38,2.72,11.23l-46.04,75.52c-.57,1.04-1.36,1.96-2.38,2.69-3.66,2.65-8.77,1.84-11.43-1.82l-28.89-39.74h0Zm-10.95-139.14c-2.65-3.66-1.83-8.77,1.83-11.42,3.66-2.66,8.77-1.84,11.42,1.81l21.68,29.82,39.86-65.4c2.34-3.84,7.38-5.07,11.23-2.72,3.85,2.35,5.08,7.38,2.72,11.23l-46.04,75.53c-.56,1.04-1.35,1.96-2.37,2.69-3.66,2.65-8.77,1.84-11.43-1.82l-28.89-39.74h0Zm-10.95-139.14c-2.64-3.66-1.83-8.77,1.83-11.42,3.66-2.65,8.77-1.83,11.43,1.82l21.68,29.81,39.86-65.39c2.34-3.85,7.38-5.07,11.23-2.71,3.85,2.35,5.08,7.38,2.72,11.23l-46.04,75.53c-.56,1.04-1.35,1.96-2.38,2.7-3.66,2.64-8.77,1.83-11.43-1.82l-28.9-39.74Z" style="fill:#8fa3cf; fill-rule:evenodd;"/><path d="M274.2,1506.81c-18.5-6.52-20-16.05-29.97-20.71-10.04-4.68-11.19-13.04-1.37-22.11,7.25,5.79,16.24,12.92,21.01,9.15,3.17-2.53,13.97-2.35,16.11,1.31,9.39,21.85,22.47,14.93,25.05,24.87,.29,13.24-22.35,10.48-30.84,7.49Z" style="fill:#0e2952; fill-rule:evenodd;"/><path d="M433.09,1507.47c-34.15-.55-59.69-.95-71.48-4.68-12.72-4.01-10.09-11.78-2.78-24.19,32.2,14.8,23.61-3.04,38.67-.78,10.59,8.51,26.25,14.22,47,17.12,8.78,6.47,5.21,12.24-11.4,12.53Z" style="fill:#0e2952; fill-rule:evenodd;"/><path d="M315.06,678.59c5.45,.4,14.05-.65,15.58-2.59,5.79-7.37,9.82-15.06,11.31-19.9-1.13-3.22-2.33-7.3-3.56-12.22-21.02-14.27-23.89-24.83-8.62-31.68,3.08,1.72,6.9,7.04,11.47,15.94,3.64-.14,6.41-2.01,8.28-5.59-4.34-15.03-7.17-27.24-8.47-36.61,10.36-15.39,34.57-17.59,66.64-13.44,1.49,8.54,2.71,17.58,3.66,27.12,5.67,5.22,4.94,24.59-.29,46.91,2.61,12.69-5.22,19.62-23.5,20.78-.27,4.51,.16,10.02,.45,10.65,.46,.97,2.08,1.91,4.33,2.71h0c.62,20.95-25.14,20.25-77.28-2.09Z" style="fill:#f9af79; fill-rule:evenodd;"/><path d="M407.7,572.5c-32.07-4.15-56.3-1.95-66.64,13.44,1.31,9.38,4.13,21.59,8.47,36.61-1.88,3.58-4.64,5.44-8.29,5.59-4.55-8.9-8.38-14.22-11.46-15.94-15.27,6.85-12.4,17.41,8.62,31.68,1.23,4.92,2.42,8.99,3.56,12.22-18.91-4.24-34.73-21.15-36.95-28.46-22.06-43.47,2.54-61.83,15.7-68.53,5.81-43.05,68.33-5,99.64-25.75,12.45,17.2-2.94,38.76-12.64,39.15Z" style="fill:#20386f; fill-rule:evenodd;"/><path d="M600.15,754.84c-15.87,67.94-43.75,120.68-83.63,158.19-14.37-4.36-27.13-14.18-38.26-29.46,.6,49.15-.63,98.07-3.67,146.75-29.11,13.8-67.75,12.91-115.95-2.68l-19.55-24.08c-5.01-.96-16.42,4.57-21.89,13.03-45.76-34.91-76.62-72.45-94.82-109.74,4.92-80.12,15.8-143.33,32.65-189.64,8.51-13.1,28.52-25.97,60.03-38.63,52.14,22.35,77.9,23.04,77.28,2.09,15.34,5.03,35.68,13.94,61.04,26.72,21.13,16.05,39.13,59.58,54,130.55,24.19-30.31,49.29-62.44,75.29-96.42,5.79,1.64,11.61,6.08,17.48,13.31h0Zm-271.58,227.02c15.16-49.89,6.79-111.43-25.13-184.64-8.04,36.12-16.72,71.66-26.05,106.65,10.85,5.15,27.9,31.14,51.18,77.99Z" style="fill:#6d96ce; fill-rule:evenodd;"/><path d="M322.9,1046.88c7.39-.58,19.31-6.99,35.75-19.24,48.19,15.59,86.83,16.48,115.95,2.68,5.17,81.95-14.97,167.88-40.53,263.64-25.04,42.05-23.97,71.6-37.31,168.6-7.41,5.28-19.65,4.52-36.72-2.3-5.43-82.71-1.68-137.47,19.78-168.34-3.36-27.73,5.42-95.89,5.83-138.69-15.61,34.8-26.34,81.83-46.68,129.31-24.77,57.82-42.02,119.71-55.08,176.15-13.82,2.68-26.78,1.09-38.87-4.75,13.87-92.78,29.26-156.63,46.14-191.55-.64-91.22,8.04-173.15,26.06-245.79,3.35,8.59,5.26,18.67,5.69,30.29Z" style="fill:#20386f; fill-rule:evenodd;"/><path d="M358.64,1027.65c-16.44,12.24-28.35,18.66-35.75,19.24-.43-11.61-2.33-21.7-5.69-30.29,5.47-8.45,16.88-13.99,21.89-13.03l19.55,24.08Z" style="fill:#f9af79; fill-rule:evenodd;"/><path d="M478.26,883.57c-1.58-47.74-5.42-86.87-11.47-117.41,15.44,64.83,30.39,107.86,44.89,129.08,9.15-.29,20.75-5.71,34.78-16.27-9.09,12.49-19.06,23.85-29.94,34.06-14.37-4.36-27.13-14.18-38.26-29.46Z" style="fill:#466fb5; fill-rule:evenodd;"/><path d="M339.1,1003.57c-2.8-6.94-6.31-14.17-10.53-21.71,15.16-49.89,6.79-111.43-25.13-184.64,46.43,65.99,59.59,136.36,39.5,211.08l-3.84-4.73Z" style="fill:#466fb5; fill-rule:evenodd;"/><path d="M366.49,662.89c5.13,2.53,12.14,4,21.07,4.42-.18,3.02-.05,6.5,.15,8.66-8.97-1.73-16.04-6.09-21.22-13.07Z" style="fill:#ed7d57; fill-rule:evenodd;"/><path d="M362.05,1480.02c1.72-5.64,2.37-11.73,1.95-18.25,13.03,4.68,22.97,5.5,29.83,2.45-.36,4.84,.2,9.3,1.65,13.4-11.86-.42-6.45,13.95-33.43,2.4h0Zm-86.08-8.01c-4.1-1.08-9.9-.62-12.09,1.12-4.27,3.36-11.91-1.97-18.66-7.28,1.17-3.2,2.13-6.71,2.89-10.53,8.14,3.41,16.66,4.94,25.55,4.57-.12,4.86,.64,8.9,2.31,12.12Z" style="fill:#f9af79; fill-rule:evenodd;"/><path d="M322.41,1058.53c.51-4.21,.68-8.1,.49-11.65,7.39-.58,19.31-6.99,35.75-19.24,3.9,1.26,7.75,2.43,11.52,3.5-11.56,12.04-27.49,21.16-47.77,27.38Z" style="fill:#0e2952; fill-rule:evenodd;"/><path d="M690.91,685.56l-12.94-28.2c-69.45,31.85-86.44,39.64-155.89,71.49-3.88,1.78-5.59,6.4-3.81,10.28l6.46,14.1c1.78,3.88,6.41,5.59,10.28,3.82,69.45-31.85,86.44-39.64,155.89-71.49Z" style="fill:#6d96ce; fill-rule:evenodd;"/><polygon points="677.97 657.36 690.91 685.56 722.65 653.94 677.97 657.36" style="fill:#f9af79; fill-rule:evenodd;"/><rect x="535.1" y="698.95" width="156.43" height="10.14" transform="translate(-237.66 319.77) rotate(-24.64)" style="fill:#466fb5;"/><path d="M535.78,722.57l12.93,28.2-13.69,6.28c-3.88,1.77-8.5,.06-10.28-3.82l-6.46-14.1c-1.78-3.88-.07-8.5,3.81-10.28l13.7-6.28Z" style="fill:#466fb5; fill-rule:evenodd;"/><path d="M710.94,665.6c-8.37-.43-9.88-3.91-4.49-10.42l16.2-1.24-11.71,11.66Z" style="fill:#466fb5; fill-rule:evenodd;"/><path d="M582.67,741.53c.27-13.63,7.57-16.96,9.07-24.44,6.27,2.73,7.89,7.83,4.86,15.29,2.86-2.29,5.67-4.77,8.46-7.46,9.1-4.17,16.21-7.44,21.34-9.79-3.13,8.24-7.5,17.75-13.09,28.56-3.34,5.25-8.32,4.25-14.63,9.37-5.36-6.19-10.7-10.04-16-11.54Z" style="fill:#f9af79; fill-rule:evenodd;"/><path d="M367.94,607.69c-2.55,.31-5.7-9.49,.47-10.25,3.31-.39,3.69,9.72-.47,10.25Z" style="fill:#20386f; fill-rule:evenodd;"/><path d="M404.58,605.21c2.54-.31,3.38-10.59-2.81-9.83-3.31,.4-1.39,10.35,2.81,9.83Z" style="fill:#20386f; fill-rule:evenodd;"/><path d="M369.54,588.28c4.12-.36,4.4,3.06,1.51,4.33-.84,.38-17.11,5.7-16.49,4.59,1.16-2.31,7.17-8.24,14.98-8.92Z" style="fill:#20386f; fill-rule:evenodd;"/><path d="M396.81,585.96c-4.13,.47-3.77,3.87-.69,4.55,1.45,.31,18.04,2.34,16.88,1.03-1.92-2.13-8.67-6.44-16.18-5.58Z" style="fill:#20386f; fill-rule:evenodd;"/><path d="M402.92,616.91c-5.38,7.89-7.26,3.95-4.95,2.68,7.66-4.22-1.83-2.75-10.29-15.1-.87-1.3,.59-2.28,1.46-1.3,.6,.68,2.47,3.39,3.17,4.06,8.5,8.41,12.32,7.12,10.6,9.65Z" style="fill:#ed7d57; fill-rule:evenodd;"/><path d="M402.71,634.45c-11.98,22.94-24.88,2.36-21.33,1.75,18.1-3.08,22.79-4.55,21.33-1.75Z" style="fill:#fff; fill-rule:evenodd;"/><path d="M1017.32,999.05c5.52,5.55,11.88,8.19,19.59,7.17-7.52,4.79-17.09-.08-19.59-7.17Z" style="fill:#f48661; fill-rule:evenodd;"/><path d="M1316.38,659.55c7.12-34.26-9.26-68.26-40.63-81.08,.21-19.48-6.18-44.25-19.68-57.58-26.64-26.4-77.45-35.62-97.04-1.97-25.86,14.44-46.22,45.71-38.51,74.24-25.08,25.63-15.54,72.02,21.01,93.89-.58,28.79,14.82,57.32,40.3,69.62,6.12,2.99,15.69,7.09,16.91,8.37-1.61-1.54,18.87,54.76,82.44,28.96,64.88-26.22,77.5-100.2,35.21-134.46Z" style="fill:#20386f; fill-rule:evenodd;"/><path d="M1010.88,990.33s4.24-4.44,5.52-6.07c1.5-1.88,5.58-7.77,5.58-7.77,0,0,13.2-21.28,11.48-22.04-1.69-.86-6.04,1.62-7.34,2.65-1.29,1.03-2.9,2.13-4.17,3.16-1.3,1.02-3.17,.94-4.61-.43-1.42-1.45,2.78-6.74,4.61-8.19,5.7-4.78,23.52-14.53,25.36-15.64,2.19-1.28,18.07-42.2,24.66-55.79h0c10.13-22.55,19.35-46.21,20.4-48.61l12.73-104.48,41.34-10.59s-12.43,116.1-13.74,121.83c-.64,2.73-28.24,53.31-28.26,53.31-15.22,24.09-28.69,45.27-31.16,49.38,0,0-3.94,14.35-5.92,23.57-1.97,9.23-7.6,16.93-8.57,19.49-.12,.34-2.97,9.22-10.3,18.02-6.32,7.69-3.93-2.39-3.93-2.39,0,0,9.08-16.31,7.63-16.74-1.11-.34-5.53,8.8-12.41,17.33-1.78,2.14-3.54,4.36-5.17,6.33-4.29,5.12-8.78,4.11-5.19-2.05,1.27-2.14,3.48-5.73,5.39-8.03,2.11-2.48,3.19-5.39,4.63-7.78,2.82-4.69,4.95-8.03,4.68-8.12-.34,0-.46-1.27-2.39,1.03-2.37,2.74-6.05,9.57-9.81,13.33-2.15,2.13-6.37,6.92-6.37,6.92,0,0-7.65,6.82-8.17,6.49-2.76-1.71,1.26-8.2,4.58-10.68,1.22-2.64,5.8-7.52,5.8-7.52,0,0,6.97-11.87,5.26-12.81-1.39-.86-23.72,24.26-26.36,22.39-2.16-1.63,4.2-9.48,4.2-9.48Z" style="fill:#f9af79; fill-rule:evenodd;"/><path d="M1052.26,953.34s-12.14,6.83-18.58,1.2c0,0,2.39,4.52,7.73,4.61,5.33,0,10.85-5.81,10.85-5.81Z" style="fill:#f27458; fill-rule:evenodd;"/><path d="M1185.37,1004.85l-24.11,214.68s11.78,45.38,10.36,58.35c-1.42,12.81-26.18,182.06-26.18,182.06l1.13,9.3,.6,27.51-92.59,.68s19.51-8.71,46.82-25.97c2.01-1.19,6.65-5.29,7.78-13.41,7.31-52.11-7.12-226.05-7.12-226.05l-11.35-226.48,94.67-.68Z" style="fill:#f9af79; fill-rule:evenodd;"/><path d="M1258.33,1044.41c5.17,1.27,13.16,185.55,17.48,193.75,27.26,51.77,33.72,209.13,33.72,209.13l11.25,22.04-2.57,21.18s-20.35,11.71-34.63,3.85l2.2-21.28,1.68-28.44-68.77-196.06-37.62-200,77.25-4.18Z" style="fill:#f9af79; fill-rule:evenodd;"/><path d="M1082.13,1144.27l-3.29-127.12c-.56-35.96,11.44-70.39,26.18-103.11l31.21-52.37c10.05,3.16,15.59-26.48,26.16-25.29,7.96,.86,13.44,2.74,20.83,3.17,13.93,.85,22.39,28.03,37.33,26.31,.07,.86,2.97,7.77,3.18,8.37,7.16,19.22,31.76,36.3,41.48,93.29,11.07,64.76,11.02,176.07,9.62,183.67-105.61,4.62-130.77,8.29-192.7-6.92Z" style="fill:#20386f; fill-rule:evenodd;"/><path d="M1147.63,1503.85h-95.6c-3.52-.34-4.39-3.25-3.15-5.04,2.52-3.59,13.67-6.32,26.21-12.13,21.99,2.3,68.02-12.39,71.48-17.43,2,10.17,3,34.18,1.06,34.6Z" style="fill:#0e2952; fill-rule:evenodd;"/><path d="M1320.74,1469.25s-8.5,24.09-17.67,23.33c-9.18-.69-17.21-19.57-17.21-19.57,0,0-3.45,15.9-1.84,24.7,1.6,8.8,14.69,17.86,23.63,13.84,8.96-3.84,21.11-24.26,13.09-42.29Z" style="fill:#0e2952; fill-rule:evenodd;"/><path d="M1143.07,779.4s-13.3-1.62-26.06-6.06c-7.65-2.65-20.4-8.46-20.4-8.46,0,0,7.15-59.89,25.16-96.2,6.92-13.92,14.75-21.53,24.12-23.92,.73-.17-2.82,134.63-2.82,134.63Z" style="fill:#466fb5; fill-rule:evenodd;"/><path d="M1119.94,711.66c2.71-9.74,8.73-22.47,12.18-31.35,5.84-14.95,7.57-28.87,12.73-34.86,2.78-3.25,38.42-2.73,42.81-3.16,1.8-.25,8.95,.26,15.82,.69v-.09c4.06,.51,44.23,3.59,50.07,6.06,28.94,28.02,42.93,65.61,64.69,106.79,0,0-16.3,9.23-29.28,15.03-5.66,2.48-16.49,6.59-16.49,6.59,0,0-13.69-23.59-21.47-33.92l-3.61-7.77c-.27-.17-1.57-1.53-1.95-.69-.57,1.45-25,130.88-25,130.88,0,0-68.15,6.32-85.57-1.96,0,0-3.21-86.63-9.62-112-2.37-9.4-9.65-24.61-5.31-40.24Z" style="fill:#6d96ce; fill-rule:evenodd;"/><path d="M1208.37,603.08s-5.57,30.24-4.44,42.12c1.11,11.96-4.25,50.4-28.29,50.49-24.06,.17-7.7-39.9-5.44-51.6,2.25-11.62,5.94-56.72,5.94-56.72l32.23,15.72Z" style="fill:#f9af79; fill-rule:evenodd;"/><path d="M1174.65,604.45c.37-9.91,2.17-17.77,2.17-17.77l31.55,16.4s-1.13,6.24-2.28,14.09c-14.13,2.99-25.32-3.59-31.45-12.73Z" style="fill:#ed7d57; fill-rule:evenodd;"/><path d="M1209.05,515.34s13.57,4.78,20.93,19.31c7.36,14.53,9.8,55.28-19.93,70.91-29.71,15.63-49.33-13.24-47.45-39.04,1.84-25.88,10.06-59.72,46.45-51.17Z" style="fill:#f9af79; fill-rule:evenodd;"/><path d="M1153.77,559.25c-.79,6.75,1.6,12.47,5.36,12.81,3.73,.34,7.39-4.78,8.18-11.53,.79-6.66-1.6-12.39-5.36-12.73-3.73-.35-7.41,4.78-8.18,11.45Z" style="fill:#f9af79; fill-rule:evenodd;"/><path d="M1227.35,570.53c-2.6,6.49-1.31,13.33,2.92,15.21,4.2,1.97,9.75-1.8,12.36-8.29,2.63-6.41,1.31-13.24-2.89-15.21-4.24-1.88-9.75,1.8-12.39,8.29Z" style="fill:#f9af79; fill-rule:evenodd;"/><path d="M1215.27,740.88l1.37,1.88c-.61,5.89,2.6,10.42,8.41,11.87l73.89,104.06-88.87,61.25c-5.06,3.5-12.03,2.3-15.59-2.64l-71.31-100.46c-3.29-4.62-2.14-11.03,2.55-14.18l89.54-61.77Z" style="fill:#466fb5; fill-rule:evenodd;"/><path d="M1225.05,754.63h0l-85.01,58.6c-4.91,3.41-10.8,3.5-13.14,.26-1.16-1.63-1.21-3.85-.35-6.07,.85-2.14,2.61-4.36,5.08-6.06l85-58.61h0c-.53,5.81,2.7,10.34,8.41,11.87Z" style="fill:#eff8f7; fill-rule:evenodd;"/><path d="M1312.09,759.08c-5.94,3.24-15.17,8.11-23.13,11.7-3.79,1.62-9.86,4.02-13.49,5.38,8.72,16.24,17.01,32.98,15.93,36.39-.95,3.08-78.95,60.48-78.95,60.48l-15.6-2.05s-27.46,3.08-28.1,6.32c-.65,3.08,11.6,2.32,13.23,2.74,.89,.25,2.73,.85,4.25,1.88-2.47,1.11-5.73,2.64-8.85,3.84,9.17,5.22,15.56,13.07,18.85,22.21,7.65-1.79,18.21-6.06,31.6-15.63,18.16-8.97,109.47-60.32,110.84-70.05,.79-5.81-13.12-35.88-26.58-63.22Z" style="fill:#f9af79; fill-rule:evenodd;"/><path d="M1167.52,879.28s-3.49,6.58-2.34,11.52c1.16,4.96,2.39,6.33,3.66,10.77,1.26,4.52,1.39,5.55,5.97,9.48,4.57,3.93,26.56-4.54,26.56-4.54l-15.12-24.6-8.7,3.25s-5.5-.6-6.96-2.14c-1.5-1.62-3.05-3.75-3.05-3.75Z" style="fill:#f9af79; fill-rule:evenodd;"/><path d="M1206.83,587.04c-9.61,.13-14.94-.81-24.28-3.01-3.74-.89,3.95,27.85,24.8,4.53,.5-.55,.22-1.53-.52-1.51Z" style="fill:#eb795b; fill-rule:evenodd;"/><path d="M1216.21,534.66c-4.67,.35-4.4,4.07-.95,4.95,36.77,9.22,12.51-5.82,.95-4.95Z" style="fill:#20386f; fill-rule:evenodd;"/><path d="M1187.9,529.81c4.37,1.68,3.04,5.17-.52,5.01-37.88-1.85-10.29-9.2,.52-5.01Z" style="fill:#20386f; fill-rule:evenodd;"/><path d="M1197.26,572.78l-.24-.02c-4.06-.89-6.23-1.45-6.99-2.99-.71-1.4,0-2.99,1.28-5.86,1.42-3.17,3.58-8,5.44-15.96,.14-.58,.72-.92,1.3-.8,.58,.13,.95,.71,.81,1.31-1.91,8.14-4.11,13.08-5.58,16.35-.84,1.89-1.57,3.52-1.31,4.01,.34,.69,3.22,1.33,5.53,1.84,.58,.13,.95,.71,.82,1.31-.11,.49-.55,.83-1.05,.83Z" style="fill:#eb795b; fill-rule:evenodd;"/><path d="M1176.23,552.9c-2.65-.28-3.66-10.63,2.79-9.93,3.44,.36,1.56,10.39-2.79,9.93Z" style="fill:#20386f; fill-rule:evenodd;"/><path d="M1217.51,558.76c-2.66-.3-3.66-10.63,2.78-9.93,3.44,.36,1.57,10.39-2.78,9.93Z" style="fill:#20386f; fill-rule:evenodd;"/><path d="M1206.2,587.51c3.3,3.55-18.72,3.8-22.55,.31-.42-.38-1.75-2.39-1.28-2.99,.46-.6,3.02,.48,3.71,.64,6.68,1.69,12.98,2.35,20.12,2.04Z" style="fill:#fff; fill-rule:evenodd;"/><path d="M1887.34,667.72c-5.39,.38-10.58-6-12.08-7.91-5.72-7.27-9.38-15.81-10.85-20.59,1.13-3.18,2.29-7.2,3.51-12.06,20.75-14.09,23.59-24.52,8.5-31.28-3.04,1.71-6.81,6.95-11.31,15.74-3.59-.14-6.32-1.98-8.18-5.52,4.29-14.84,7.07-26.88,8.37-36.15-10.23-15.2-34.14-17.36-65.79-13.26-1.47,8.42-2.68,17.35-3.62,26.77-5.6,5.15-4.87,24.28,.29,46.31-2.58,12.53,5.16,19.37,23.2,20.51,.18,3.02-.1,6.5-.16,8.62-.05,1.92-.11,5.68-2.12,6.26l-3.35,.83c.33,44.79,23.27,53.4,73.58,1.72Z" style="fill:#f9af79; fill-rule:evenodd;"/><path d="M1799.51,556.7c31.65-4.11,55.56-1.94,65.79,13.26-1.3,9.26-4.08,21.31-8.37,36.15,1.85,3.53,4.59,5.37,8.18,5.52,4.5-8.79,8.28-14.04,11.31-15.74,15.08,6.76,12.24,17.19-8.5,31.28-1.22,4.86-2.38,8.88-3.51,12.06,18.67-4.18,34.28-20.87,36.48-28.09,21.77-42.92-2.51-61.04-15.5-67.65-5.74-42.5-67.69-5.75-83.99-31.69-34.1,19.46-11.47,44.54-1.89,44.92Z" style="fill:#20386f; fill-rule:evenodd;"/><path d="M1840.18,645.92c-5.06,2.5-12,3.95-20.8,4.36,.17,2.98,.04,6.42-.15,8.54,8.85-1.71,15.84-6.01,20.95-12.9Z" style="fill:#ed7d57; fill-rule:evenodd;"/><path d="M1925.08,1506.64c19.66-6.92,21.24-17.06,31.84-22,10.67-4.98,11.9-13.86,1.46-23.49-7.7,6.15-17.26,13.72-22.33,9.71-3.38-2.68-14.85-2.5-17.12,1.4-9.99,23.21-23.88,15.86-26.62,26.43-.32,14.06,23.75,11.13,32.78,7.95Z" style="fill:#0e2952; fill-rule:evenodd;"/><path d="M1754.7,1483.55c34.63-.55,60.52-.96,72.47-4.74,12.9-4.07,10.23-11.94,2.82-24.52-32.64,15.01-23.94-3.08-39.21-.79-10.72,8.63-26.61,14.42-47.65,17.36-8.9,6.56-5.28,12.41,11.56,12.7Z" style="fill:#0e2952; fill-rule:evenodd;"/><path d="M1772,672.79c17.29-5.02,32.8-8.06,46.55-9.13,2.49,37.98,22.3,37.71,59.44-.79,35.75,3,42.76,3.46,62.6,9.9,42.93,41.01,46.88,88.34,69.31,142.42-24.84,1.11-35.99,4.11-52.88,10.12-3.62-12.96-6.66-23.39-9.11-31.29,.69,71.31,.95,120.18,.79,146.59-82.17,32.56-149.86,21.42-177.51-3.95-.38-63.4-.91-113.59-1.58-150.56-9.83,11.57-18.94,20.57-27.35,26.93-20.14-23.1-33.79-32.39-45.21-46.01,25.29-41.53,61.52-80.17,74.94-94.24Z" style="fill:#6d96ce; fill-rule:evenodd;"/><path d="M1606.4,742.26c43.17,17.94,73.38,32.75,90.67,44.46l7.68-11.36c7.14,7.15,15.29,14.16,25.23,24.34-9.2,9.62-19.06,17.53-30.55,24.22-29.99-3.21-63.14-25.92-99.46-68.15-11.29-2.25-19.6-6.34-24.93-12.27-.28-5.44,2.46-10.9,8.23-16.36-15.06-9.81-21.05-16.84-17.98-21.07,23.59,14.59,37.3,26.65,41.12,36.18Z" style="fill:#f9af79; fill-rule:evenodd;"/><path d="M1771.2,936.67c1.62,6.17-5.09,42.38-6.21,61.27-10.92,67.43-1.56,155.21,4.32,268.08,10.53,39.78,26.07,92.78,25.05,167.37,18.33,5.62,24.97,6.19,41.52,1.98,11.56-77.85,3.67-140.19-6.77-168.99,6.69-44.5,16.68-94.32,31.23-166.17,16.38,78.3,38.31,136.41,47.81,174.32,1.87,42.28,10.43,99.34,14.89,171.17,13.61,4.1,22.08,5.28,36.2,3.56,18.32-66.02,15.25-137.87,7.48-215.54-8.26-93.36,5.36-198.8-8.28-235.34-6.98-21.66-7.88-40.89-9.74-57.74-68.56,22.81-127.72,21.5-177.51-3.96Z" style="fill:#466fb5; fill-rule:evenodd;"/><path d="M1936.07,868.18c4.4,.65,8.56,1.22,12.48,1.75,.21,31.46,.26,55.03,.16,70.68-3.88,1.75-9.34,3.75-13.6,4.25,.02-2.02,.65-6.68,.68-8.67,.27-24.06,.37-46.72,.28-68.02h0Zm-200.9-63.03c12.09-10.08,23.62-26.45,34.55-49.09-1.22,7.89-1.72,18.45-1.47,31.67-9.3,10.81-17.95,19.24-25.96,25.32-2.46-2.82-4.83-5.44-7.12-7.89h0Zm197.48-61.34c5.33,17.15,10.43,33.89,15.28,50.22,.13,13.78,.24,26.72,.35,38.83-3.53-.33-7.66-.56-12.54-.67-.51-33.48-1.53-62.94-3.08-88.38Z" style="fill:#466fb5; fill-rule:evenodd;"/><path d="M1824.19,768.48h-90.46c-4.15,0-7,3.39-6.35,7.54l20.3,128.15c.65,4.15,4.59,7.54,8.73,7.54h90.46c4.15,0,7-3.4,6.35-7.54l-20.3-128.15c-.65-4.15-4.59-7.54-8.73-7.54Z" style="fill:#223f81; fill-rule:evenodd;"/><path d="M2001.58,815.68c3.91,15.87,5.54,30.38,2.34,49.62-9.77,14.18-49.17,6.25-150.61-10.7-3.64,3.32-11.16,6.63-22.58,5.15-10.61-2.65-11.12-5.42-23.02-16.64-2.89-8.73-2.29-15.41,1.79-20.01,13.39,7.88,20.44,12.08,35.53,12.58-4.02-10.34-4.62-17.01-1.81-20.02,5.15,4.12,8.5,10.33,10.06,18.62,79.98-3.48,101.06-3.01,111.71,2.58-1.16-5.03-2.18-9.43-3.07-13.25,12.45-4.24,22.58-6.7,39.65-7.93Z" style="fill:#f9af79; fill-rule:evenodd;"/><path d="M1827.7,1437.19c-.82,6.79-.94,12.88-.35,18.26-27.32,11.87-22.67-1.83-33.58-2.17,2.74-4.82,4.51-10.99,5.33-18.49,11.91,3.41,18.68,4.17,28.61,2.39h0Zm127.24,12.5c0,4.95,.47,9.29,1.44,13.04-7.3,5.78-15.69,11.8-20.33,8.13-2.22-1.76-7.93-2.29-12.23-1.34,1.77-5.97,3.17-13.43,4.19-22.41,9.57,2.58,16.93,3.44,26.93,2.58Z" style="fill:#f9af79; fill-rule:evenodd;"/><path d="M1764.99,997.94c48.22,44.95,112.7,45.1,193.46,.42,13.64,36.54,.02,141.98,8.28,235.34,7.76,77.67,10.84,149.52-7.48,215.54-1.49,.18-2.93,.33-4.31,.45-10.01,.85-17.36,0-26.93-2.59-1.58-.42-3.23-.9-4.96-1.42-4.46-71.84-13.03-128.9-14.89-171.17-9.5-37.92-31.43-96.02-47.81-174.32-14.55,71.85-24.54,121.67-31.23,166.17,10.45,28.8,18.34,91.14,6.77,168.99-3.01,.77-5.7,1.38-8.19,1.83-9.92,1.78-16.7,1.01-28.61-2.39-1.49-.43-3.06-.9-4.73-1.41,1.01-74.59-14.53-127.59-25.05-167.37-5.88-112.87-15.24-200.65-4.32-268.08Z" style="fill:#20386f; fill-rule:evenodd;"/><path d="M1841.1,1381.88c-17.6,4.78-33.7,6.22-48.32,4.33-.32-3.86-.67-7.66-1.07-11.38,16.04,2.09,32.62,1.01,49.75-3.22-.08,3.37-.2,6.8-.36,10.28h0Zm128.55,13.39c-19.14,2.29-36.08,1.02-50.84-3.79-.37-4.02-.74-7.98-1.12-11.88,16.56,5.4,34.24,7.25,53.02,5.55-.32,3.38-.67,6.77-1.06,10.13h0Zm-48.37,25.27c-.3-3.98-.63-7.92-.95-11.79,14.77,4.04,30.4,5.34,46.89,3.89-.56,3.43-1.16,6.84-1.81,10.23-16.31,1.83-31.02,1.05-44.13-2.33h0Zm-127.65-22c14.91,2.46,30.41,2.2,46.49-.8-.26,3.4-.56,6.86-.9,10.34-16.45,3.48-31.48,4.1-45.09,1.85-.13-3.85-.29-7.66-.51-11.39Z" style="fill:#0e2952; fill-rule:evenodd;"/><path d="M1825.21,621.73c-9.61,.05-14.93-.29-24.27-1.09-3.75-.32,3.94,10.1,24.79,1.64,.5-.2,.22-.56-.52-.55Z" style="fill:#eb795b; fill-rule:evenodd;"/><path d="M1831.07,569.47c-4.67,.35-4.41,4.06-.95,4.95,36.78,9.22,12.51-5.81,.95-4.95Z" style="fill:#20386f; fill-rule:evenodd;"/><path d="M1812.61,566.98c4.37,1.69,3.04,5.17-.52,5.01-37.88-1.85-10.28-9.2,.52-5.01Z" style="fill:#20386f; fill-rule:evenodd;"/><path d="M1805.07,610.65l-.23-.06c-3.85-1.57-5.89-2.48-6.39-4.13-.46-1.5,.5-2.95,2.25-5.57,1.93-2.88,4.87-7.28,8.05-14.82,.23-.54,.87-.78,1.41-.57,.55,.23,.81,.86,.57,1.42-3.25,7.7-6.26,12.21-8.25,15.18-1.14,1.72-2.14,3.21-1.98,3.73,.23,.73,2.95,1.85,5.15,2.75,.55,.23,.82,.86,.59,1.42-.19,.46-.69,.72-1.18,.64Z" style="fill:#eb795b; fill-rule:evenodd;"/><path d="M1802.62,587.16c-2.66-.28-3.66-10.62,2.78-9.93,3.44,.37,1.57,10.39-2.78,9.93Z" style="fill:#20386f; fill-rule:evenodd;"/><path d="M1828.33,588.96c-2.66-.3-3.66-10.62,2.78-9.93,3.44,.36,1.57,10.39-2.78,9.93Z" style="fill:#20386f; fill-rule:evenodd;"/></svg>