<?xml version="1.0" encoding="UTF-8"?><svg id="a" xmlns="http://www.w3.org/2000/svg" viewBox="0 0 1490.16 1508.08"><path d="M147.83,520.43c13.95,0,25.28-10.74,25.28-23.95s-11.33-24-25.28-24-25.33,10.74-25.33,24,11.33,23.95,25.33,23.95h0Zm1074.75,574.6h135.22c72.78,0,132.36,56.37,132.36,125.26h0c0,68.89-59.58,125.26-132.36,125.26H214.31c-117.87,0-214.31-91.26-214.31-202.83H0c0-111.56,96.44-202.93,214.31-202.93h0c49.82,0,90.62-38.63,90.62-85.74h0c0-47.21-40.8-85.84-90.62-85.84H105.26c-51.79,0-94.22-40.14-94.22-89.17h0c0-49.03,42.43-89.19,94.22-89.19H243.14c20.2,0,36.66-15.62,36.66-34.69h0c0-19.12-16.46-34.74-36.66-34.74h-24.29c-13.9,0-25.33-10.79-25.33-23.95h0c0-13.21,11.43-24,25.33-24h159.51c33.56,0,37.3,37.6,122.16,37.6h196.77c18.13,0,33.02,14.04,33.02,31.24h0c0,17.2-14.88,31.29-33.02,31.29h-31.74c-26.31,0-47.85,20.4-47.85,45.29v.05c0,24.88,21.53,45.29,47.85,45.29h95.45c128.91,0,147.09,31.88,169.71,95.33,22.57,63.47,139.8,68.5,139.8,68.5h160.3c39.67,0,72.14,30.75,72.14,68.3h0c0,37.55-32.47,68.3-72.14,68.3h-8.23c-38.19,0-69.38,29.57-69.38,65.64h0c0,36.17,31.19,65.74,69.38,65.74h0Z" style="fill:#e0e8f5; fill-rule:evenodd;"/><path d="M779.43,1434.06c218.1,0,394.96,16.56,394.96,36.96s-176.86,37.06-394.96,37.06-394.96-16.66-394.96-37.06,176.86-36.96,394.96-36.96Z" style="fill:#c4d1eb; fill-rule:evenodd;"/><path d="M826.04,428.23s8.33-36.07,11.04-39.18c2.66-3.15,18.87-9.17,23.45-7.59,4.58,1.63,10.55,14.64,10.1,18.68-.49,4.04-8.47,4.34-10.69,7.79-2.17,3.5-3.01,6.95-4.04,9.76-1.92,5.27-7.34,15.08-7.34,15.08l-22.52-4.53Z" style="fill:#f9af79; fill-rule:evenodd;"/><path d="M653.52,571.14s119.55-30.65,130.83-50.07c11.23-19.46,41.69-92.84,41.69-92.84l26.17,4.09s-8.08,78.2-22.52,115.36c-14.44,37.2-57.11,81.95-57.11,81.95l-119.05-58.49Z" style="fill:#223f81; fill-rule:evenodd;"/><path d="M702.45,563.7l41.54,78.84,9.9,.69,4.48,12.62,41.64,125.48s23.06-159.49-97.57-217.63Z" style="fill:#172b57; fill-rule:evenodd;"/><path d="M771.74,633.37s45.98,169.44,50.36,330.97c0,0-38.09,13.3-97.96,2.86-60.17-10.64,47.6-333.83,47.6-333.83Z" style="fill:#20386f; fill-rule:evenodd;"/><path d="M739.66,595.68c-34.49,10.84-94.17-18.53-94.17-18.53,0,0,31.83-23.85,30.11-73.47l26.71,21.48,18.13,14.59s-.1,8.62-2.07,23.7c-.34,2.76-.79,5.72-1.28,8.92-.39,2.51,.69,5.08,2.91,6.41,12.57,7.79,19.66,16.9,19.66,16.9Z" style="fill:#f9af79; fill-rule:evenodd;"/><path d="M787.85,916.15c-1.04,.89-2.27,1.38-3.65,1.38-12.96-.2-50.76,7-82.69,3.75-26.96-2.66-50.8-10.65-76.43-22.08-3.4-1.48-11.24-5.72-11.04-9.46,.1-4.24,.49-10.25,1.03-17.84,1.77-26.41,4.93-71.95,1.87-124.4-.54-9.76-.84-19.46-.89-28.98-.25-71.11,13.85-133.69,42.18-154.83,0,0,19.76,11.09,33.41,15.47,13.4,4.24,20.3,3.4,27.3-1.18,0,0,13.5,6.7,19.27,13.01,13.41,14.59,23.85,33.95,30.75,61.79,5.86,23.65,11.38,58.15,13.3,102.42,.84,20.01,6.41,160.25,5.57,160.94Z" style="fill:#fff; fill-rule:evenodd;"/><path d="M720.44,539.75s-.1,8.62-2.07,23.7c-20.06-3.45-42.87-35.87-42.87-35.87,10.25-2.96,19.17-3.5,26.81-2.42l18.13,14.59Z" style="fill:#ed7d57; fill-rule:evenodd;"/><path d="M740.89,548.52s-69.58,11.58-76.08-31.88c-6.55-43.41-19.91-71.21,24.24-80.42,44.15-9.22,55.29,6.06,60.96,20.01,5.72,13.99,8.82,88.16-9.12,92.3Z" style="fill:#f9af79; fill-rule:evenodd;"/><path d="M663.33,513.04c-2.17,2.02,8.52-1.77,7.39-11.63-1.13-9.81-1.13-22.67,6.85-20.3,7.98,2.42,8.38,8.82,11.68,5.08,3.3-3.75,3.35-19.46,27.15-20.55,23.8-1.13,38.04,3.84,49.08-1.03,11.04-4.83,22.22-23.01,22.22-23.01,0,0-13.7,7.44-18.48,9.31,0,0,13.9-21.93-7.49-39.27-21.34-17.3-43.12-5.96-55.49-5.22-27.25,1.67-68.64,15.03-77.51,32.97-8.92,17.89,23.7,44.1,34.59,73.67Z" style="fill:#20386f; fill-rule:evenodd;"/><path d="M718.17,499.64c-2.51,.29-5.62-9.36,.49-10.15,3.3-.39,3.65,9.66-.49,10.15Z" style="fill:#20386f; fill-rule:evenodd;"/><path d="M746.9,495.64c2.51-.34,3.4-10.5-2.76-9.76-3.25,.44-1.38,10.25,2.76,9.76Z" style="fill:#20386f; fill-rule:evenodd;"/><path d="M719.8,480.42c4.04-.34,4.34,3.06,1.48,4.34-.84,.35-16.95,5.62-16.31,4.53,1.13-2.32,7.1-8.18,14.83-8.87Z" style="fill:#20386f; fill-rule:evenodd;"/><path d="M739.22,476.57c-4.04,.44-3.7,3.84-.64,4.48,1.43,.34,17.84,2.32,16.71,1.04-1.92-2.07-8.62-6.36-16.06-5.52Z" style="fill:#20386f; fill-rule:evenodd;"/><path d="M747.49,511.76c-7.69,5.57-8.08,1.28-5.52,.89,8.53-1.38-.79-3.15-4.58-17.49-.34-1.53,1.33-1.92,1.82-.74,.3,.84,1.18,3.99,1.58,4.83,5.12,10.64,9.12,10.74,6.7,12.52Z" style="fill:#ed7d57; fill-rule:evenodd;"/><path d="M744.88,520.43c-11.88,22.67-24.64,2.32-21.09,1.73,17.89-3.06,22.52-4.53,21.09-1.73Z" style="fill:#fff; fill-rule:evenodd;"/><path d="M895.67,1426.57s19.71,18.62,39.12,22.08c19.42,3.45,41.34,10.74,41.89,21.78,.54,11.04-63.08,17.45-85.55,6.9-33.56-15.57-36.76-10.45-40.7-18.63-3.94-8.18,3.3-30.65,2.96-33.31-.39-3.25,42.28,1.18,42.28,1.18Z" style="fill:#0e2952; fill-rule:evenodd;"/><path d="M893.21,1417.41l2.46,9.17c-.39,.2-43.32,6.11-42.28-1.18,.84-5.91,2.12-12.32,2.12-12.32l37.7,4.34Z" style="fill:#f9af79; fill-rule:evenodd;"/><path d="M495,1393.07s9.46,23.75,25.38,33.9c15.92,10.05,22.82,24.74,18.48,34.89-4.34,10.05-54.26,4.53-70.17-24.84-10.89-20.2-23.41-27.79-23.36-36.56,.05-8.67,11.43-21.09,12.27-23.55,1.08-3.06,37.4,16.16,37.4,16.16Z" style="fill:#0e2952; fill-rule:evenodd;"/><path d="M803.08,946.11s97.72,157.79,115.85,195.93c16.75,35.38,3.45,71.75,2.27,99.05-1.33,31.44-19.91,165.57-17.89,174.74,2.02,9.07-54.06,4.04-54.06,4.04,0,0,11.43-213.27-5.18-244.02-11.09-20.5-116.34-158.08-123.74-149.61-7.34,8.48-87.42,134.82-98.01,159.66-9.95,23.26-117.77,202.24-117.77,202.24,0,0-30.5-2.27-51.1-19.61,0,0,97.57-196.92,106.1-230.52,4.29-17.05,45.63-136.89,76.28-214.16,16.21-40.8,167.25,22.27,167.25,22.27Z" style="fill:#0e2952; fill-rule:evenodd;"/><path d="M798.35,925.32s3.7,3.94,4.73,20.79c0,0-151.23-15.96-167.25-22.27,0,0-.59-18.63,2.81-18.92,3.7-.29,159.71,20.4,159.71,20.4Z" style="fill:#212956; fill-rule:evenodd;"/><path d="M673.18,908.27s-3.3,18.83-3.6,23.75l-7-1.28s1.92-19.91,3.06-23.26l7.54,.79Z" style="fill:#556066; fill-rule:evenodd;"/><path d="M785.73,923.05s2.66,17.15,2.71,23.65l-7.39-.89s-1.53-21.38-2.37-23.65l7.05,.89Z" style="fill:#0e1538; fill-rule:evenodd;"/><path d="M721.92,914.09s22.27,2.46,29.62,4.14l-.99,22.57-29.12-2.76,.49-23.95Z" style="fill:#545b9c; fill-rule:evenodd;"/><path d="M616.42,951.24c87.07,54.6,133.2,24.74,133.2,24.74,12.76-99.64,5.67-219.78,4.04-249.17-4.24-128.71-95.4-163.11-95.4-163.11-51.45,23.06-50.46,77.07-38.83,126.3-9.31,86.51,6.55,159.24-3,261.25Z" style="fill:#20386f; fill-rule:evenodd;"/><path d="M658.25,563.7l41.54,78.84,21.34-7.79-6.95,21.09,41.64,125.48s23.06-159.49-97.57-217.63Z" style="fill:#0e2952; fill-rule:evenodd;"/><path d="M524.12,89.45c104.02,92.1,114.72,195.83,32.42,257.77-79.88,39.82-140.39,36.96-196.32-4.78-65.84-63.72-53.42-148.03,37.2-253.04,.25,.05,.44,.05,.64,.05h126.05Z" style="fill:#e5bb9a; fill-rule:evenodd;"/><path d="M398.07,76.58h128.22c3.5,0,6.41,2.91,6.41,6.46h0c0,3.5-2.91,6.41-6.41,6.41h-128.22c-3.5,0-6.41-2.91-6.41-6.41h0c0-3.55,2.91-6.46,6.41-6.46Z" style="fill:#a1775a; fill-rule:evenodd;"/><path d="M518.99,76.58c16.16-20.06,29.37-41,39.52-62.78-8.67-7.98-20.25-7.64-34.74,.94-17.44-16.66-32.52-17.1-45.29-1.38-28.14-19.81-49.08-17.59-62.88,6.65-16.95-20.7-29.02-18.48-36.22,6.65-16.16-8.08-26.96-4.78-32.43,10,26.81,15.92,45.44,29.22,55.88,39.91h116.15Z" style="fill:#e5bb9a; fill-rule:evenodd;"/><path d="M397.42,89.4c-90.62,105.01-103.04,189.33-37.2,253.04,33.46,24.98,68.55,36.02,108.41,32.38-142.71-39.42-145.71-190.16-39.62-285.37h-30.95c-.2,0-.39,0-.64-.05h0Zm5.42-12.81h88.85c-2.56-9.66-9.12-17.64-19.71-23.85,.54,7.69-3.4,13.95-11.92,18.82-24.2-27.35-38.34-38.09-42.38-32.13,10.94,20.06,13.01,29.62,6.16,28.58-16.85-17.69-31.39-32.47-43.51-44.45-.29,.99-.64,2.02-.94,3.1-16.16-8.08-26.96-4.78-32.43,10,26.81,15.92,45.44,29.22,55.88,39.91h0Zm34.89,12.86h18.82c-4.73,8.43-12.66,17.49-23.8,27.15,3.65-9.16,5.27-18.23,4.98-27.15Z" style="fill:#d0a382; fill-rule:evenodd;"/><path d="M501.5,170.41c-6.16-3.15-14.93-6.36-26.9-6.7v-19.76h-18.28v21.24c-19.76,4.48-31.54,18.68-31.54,36.96s12.91,28.53,31,37.11c17.15,7.49,23.31,13.6,23.31,23.16s-6.5,16.56-19.96,16.56c-11.73,0-22.77-4.09-30.01-8.38l-5.62,20.89c7.1,4.09,19.22,7.84,31.14,8.23v21.24h18.28v-22.72c21.09-4.14,33.41-19.42,33.41-38.44s-10.1-29.86-32.08-39.77c-14.73-7.29-22.77-12.52-22.77-21.09,0-7.24,6.36-14.88,18.82-14.88,10.84,0,19.96,3.89,25.57,6.7l5.62-20.35Z" style="fill:#fff; fill-rule:evenodd;"/><path d="M897.35,129.51c93.97,83.23,103.63,176.91,29.27,232.89-72.14,35.97-126.79,33.36-177.3-4.34-59.53-57.51-48.29-133.74,33.61-228.6,.2,0,.34,.05,.59,.05h113.83Z" style="fill:#e5bb9a; fill-rule:evenodd;"/><path d="M783.52,117.88h115.8c3.15,0,5.77,2.61,5.77,5.81h0c0,3.2-2.61,5.81-5.77,5.81h-115.8c-3.2,0-5.81-2.61-5.81-5.81h0c0-3.2,2.61-5.81,5.81-5.81Z" style="fill:#a1775a; fill-rule:evenodd;"/><path d="M892.71,117.88c14.64-18.13,26.56-37.06,35.73-56.72-7.84-7.2-18.33-6.9-31.44,.89-15.72-15.08-29.37-15.52-40.9-1.33-25.38-17.89-44.35-15.87-56.77,6.06-15.33-18.73-26.22-16.7-32.72,6.01-14.59-7.34-24.34-4.34-29.27,9.02,24.19,14.39,41,26.41,50.46,36.07h104.91Z" style="fill:#e5bb9a; fill-rule:evenodd;"/><path d="M782.93,129.46c-81.9,94.86-93.14,171.09-33.61,228.6,30.16,22.57,61.89,32.52,97.91,29.22-128.91-35.58-131.67-171.78-35.78-257.77h-27.94c-.25,0-.39-.05-.59-.05h0Zm4.88-11.58h80.22c-2.27-8.72-8.18-15.92-17.79-21.53,.49,6.9-3.05,12.57-10.74,17-21.88-24.74-34.64-34.4-38.34-29.07,9.9,18.18,11.78,26.81,5.62,25.82-15.28-15.92-28.38-29.32-39.32-40.11-.3,.89-.59,1.82-.84,2.81-14.59-7.34-24.34-4.34-29.27,9.02,24.19,14.39,41,26.41,50.46,36.07h0Zm31.49,11.63h17.05c-4.29,7.59-11.43,15.77-21.48,24.54,3.2-8.33,4.73-16.51,4.44-24.54Z" style="fill:#d0a382; fill-rule:evenodd;"/><path d="M876.9,202.64c-5.57-2.86-13.5-5.72-24.29-6.06v-17.84h-16.51v19.17c-17.84,4.09-28.48,16.85-28.48,33.41s11.63,25.77,27.99,33.51c15.52,6.75,21.04,12.32,21.04,20.89s-5.87,15.03-17.99,15.03c-10.64,0-20.6-3.7-27.15-7.59l-5.07,18.87c6.4,3.7,17.39,7.1,28.14,7.44v19.17h16.56v-20.55c19.02-3.7,30.16-17.54,30.16-34.74s-9.12-26.95-28.97-35.87c-13.3-6.55-20.6-11.29-20.6-19.02,0-6.6,5.77-13.5,17.05-13.5,9.76,0,18.04,3.55,23.11,6.06l5.03-18.38Z" style="fill:#fff; fill-rule:evenodd;"/><path d="M689.1,160.51c80.96,71.7,89.29,152.37,25.23,200.56-62.09,31-109.2,28.78-152.71-3.7-51.25-49.57-41.59-115.21,28.93-196.86h98.56Z" style="fill:#e5bb9a; fill-rule:evenodd;"/><path d="M591.09,150.5h99.69c2.76,0,5.03,2.27,5.03,5.03h0c0,2.76-2.27,4.98-5.03,4.98h-99.69c-2.76,0-5.03-2.22-5.03-4.98h0c0-2.76,2.27-5.03,5.03-5.03Z" style="fill:#a1775a; fill-rule:evenodd;"/><path d="M685.11,150.5c12.61-15.62,22.86-31.88,30.8-48.83-6.75-6.21-15.77-5.96-27.1,.74-13.5-12.96-25.28-13.35-35.18-1.08-21.88-15.42-38.19-13.7-48.93,5.17-13.16-16.06-22.57-14.34-28.19,5.17-12.57-6.31-20.94-3.7-25.18,7.79,20.84,12.37,35.33,22.72,43.46,31.04h90.33Z" style="fill:#e5bb9a; fill-rule:evenodd;"/><path d="M590.54,160.51c-70.52,81.65-80.17,147.29-28.93,196.86,26.02,19.41,53.32,27.99,84.31,25.18-110.97-30.7-113.39-147.93-30.8-222.05h-24.59Zm4.24-10h69.09c-1.97-7.54-7.05-13.7-15.33-18.53,.44,5.96-2.61,10.84-9.26,14.64-18.83-21.29-29.81-29.62-32.97-25.03,8.53,15.67,10.1,23.06,4.78,22.27-13.11-13.75-24.39-25.28-33.85-34.59-.25,.79-.49,1.58-.74,2.41-12.57-6.31-20.94-3.7-25.18,7.79,20.84,12.37,35.33,22.72,43.46,31.04h0Zm27.1,10h14.68c-3.7,6.55-9.86,13.6-18.53,21.14,2.81-7.15,4.09-14.19,3.84-21.14Z" style="fill:#d0a382; fill-rule:evenodd;"/><path d="M671.51,223.53c-4.78-2.46-11.63-4.93-20.89-5.22v-15.42h-14.24v16.56c-15.38,3.5-24.54,14.54-24.54,28.73s10.05,22.22,24.1,28.88c13.36,5.82,18.13,10.64,18.13,18.04s-5.08,12.91-15.52,12.91c-9.12,0-17.69-3.2-23.36-6.55l-4.34,16.26c5.52,3.2,14.93,6.11,24.24,6.41v16.56h14.19v-17.74c16.41-3.15,26.02-15.08,26.02-29.86s-7.84-23.26-24.98-30.95c-11.48-5.67-17.74-9.71-17.74-16.41,0-5.62,4.98-11.58,14.68-11.58,8.43,0,15.52,3.05,19.86,5.22l4.39-15.82Z" style="fill:#fff; fill-rule:evenodd;"/><path d="M302.12,356.68l742.32,31.29c6.95,.3,12.37,6.21,12.07,13.16h0c-.3,6.9-6.21,12.37-13.16,12.07l-742.32-31.29c-6.95-.29-12.37-6.21-12.07-13.16h0c.29-6.95,6.21-12.37,13.16-12.07Z" style="fill:#a1775a; fill-rule:evenodd;"/><path d="M437.93,422.22s-5.77-9.46-8.97-10.99c-21.63-10.64-28.78-1.67-30.6-33.07,0,0,.25-12.96,9.07-9.66,8.82,3.3,5.72,11.38,18.58,14.83,14.78,3.99,14.83,4.19,18.48,16.41l7.69,10.25-14.24,12.22Z" style="fill:#f9af79; fill-rule:evenodd;"/><path d="M433.55,405.37c9.31-5.77,20.5-9.02,20.5-9.02,0,0,64.36,80.72,71.35,87.71,4.48,4.48,57.85,70.42,94.47,87.07,35.97,16.41,77.61,68.2,67.31,89.49,0,0-52.04,38.93-98.06-11.73-43.31-35.48-72.64-85.74-103.19-125.26-28.78-40.06-63.91-107.23-63.91-107.23,0,0,4.29-6.55,11.53-11.04Z" style="fill:#223f81; fill-rule:evenodd;"/><polygon points="251.27 1408.83 143 1408.83 107.62 1268.89 284.23 1268.89 251.27 1408.83" style="fill:#b0c2e4; fill-rule:evenodd;"/><rect x="95.8" y="1250.65" width="197.8" height="18.23" style="fill:#9db2d9;"/><polygon points="195.93 1268.89 107.62 1268.89 143 1408.83 195.93 1408.83 195.93 1268.89" style="fill:#9db2d9; fill-rule:evenodd;"/><rect x="95.8" y="1250.65" width="100.13" height="18.23" style="fill:#859ac6;"/><polygon points="251.27 1410.9 143 1410.9 107.62 1391.98 284.23 1391.98 251.27 1410.9" style="fill:#9db2d9; fill-rule:evenodd;"/><polygon points="195.93 1391.98 107.62 1391.98 143 1410.9 195.93 1410.9 195.93 1391.98" style="fill:#859ac6; fill-rule:evenodd;"/><path d="M297.39,1001.8c0-.88,.05-1.67,.05-2.56,.05-2.07-2.81-3.35-4.29-1.78-8.33,9.07-16.16,18.53-23.16,28.58-3.7,5.32-7.1,10.74-10.1,16.46-1.97,3.74-4.04,7.59-5.03,11.73-1.87,7.79-2.02,15.97-2.32,23.85-.1,3.74-.2,7.49-.35,11.14-.1,1.38-.15,2.66-.29,3.94-.05,.29-.05,.2-.15,.79-.05,.2-.05,.29-.05,.39-.69,1.09-.3,2.46,.54,3.15-14.59,23.26-26.95,47.6-37.01,73.23-9.91,25.43-22.03,50.56-21.19,78.55,0,.59,.2,1.09,.54,1.48h3.99c.35-.39,.49-.89,.44-1.48-.79-27.2,10.99-51.74,20.75-76.38,9.36-23.75,20.6-46.32,33.85-68,.44,.98,1.43,1.77,2.81,1.18,10.59-4.14,20.6-9.95,28.04-18.73,6.11-7.1,9.86-15.87,11.78-25.03,4.14-19.81,.94-40.51,1.13-60.51Z" style="fill:#9db2d9; fill-rule:evenodd;"/><path d="M294.19,1039.64c-3.7,3.75-7.69,8.18-12.22,11.33,1.48-4.83,2.66-9.66,3.84-14.49,3.3-3.45,8.23-5.52,11.88-8.38,2.56-1.97-.98-5.52-3.5-3.55-2.07,1.67-4.34,2.96-6.5,4.33,1.58-6.31,3.4-12.61,6.41-18.33,1.48-2.86-2.81-5.42-4.34-2.56-4.34,8.28-6.65,17.35-8.82,26.41-.39,.59-.84,1.19-1.23,1.68-.64,1.09-.44,2.07,.2,2.76-.99,4.24-2.02,8.28-3.3,12.32,.39-7.39,1.23-14.78,2.71-22.18,.59-3.15-4.24-4.43-4.83-1.28-2.17,10.84-3.1,21.78-3.15,32.82,0,.89,.39,1.48,.94,1.87-2.66,5.71-5.82,11.13-9.12,16.46-.2-9.95-.44-20.1,2.07-29.76,.84-3.15-3.99-4.44-4.83-1.28-3.35,12.62-2.17,26.12-2.07,39.03-2.71,4.43-5.37,8.87-7.69,13.5-1.48,2.96,2.86,5.42,4.29,2.56,2.22-4.34,4.73-8.58,7.34-12.71,7.44,.59,14.24-2.96,21.63-3.05,3.25-.1,3.25-5.12,0-5.03-6.36,.1-12.32,2.66-18.53,3.05,.99-1.68,2.02-3.35,3.06-5.03,.49-.79,.94-1.48,1.38-2.27,.29-.1,.54-.3,.79-.59,5.08-4.93,10.99-8.97,16.06-14,2.32-2.27-1.23-5.81-3.55-3.55-2.17,2.17-4.48,4.14-6.85,6.01,1.18-2.46,2.27-5.03,3.3-7.69,7.05-3.25,12.76-9.46,18.13-14.88,2.32-2.27-1.23-5.81-3.5-3.55Z" style="fill:#859ac6; fill-rule:evenodd;"/><path d="M198.59,1210.15c-2.96-9.66-7.19-19.32-12.91-27.6-13.11-19.12-31.14-34.1-44.45-52.92,.29-.2,.59-.29,.89-.59,7.44-7,8.97-18.43,9.26-28.09,.15-5.22-.25-10.45-1.04-15.57-.89-5.91-2.91-11.43-5.12-17.05-4.98-12.71-11.83-24.74-20.25-35.48-5.52-7.1-14.44-17.44-24.49-15.57-.15,.1-.29,.1-.49,.2-1.43,.29-1.97,1.67-1.72,3.05,3.99,23.85-2.37,48.1,2.51,71.94,3.45,16.56,15.13,36.56,34.2,36.76,12.81,19.32,30.7,34.4,44.4,53.02,5.81,7.98,10.15,16.95,13.4,26.32,3.15,8.97,5.91,19.41,3.84,28.97-.64,3.15,4.19,4.53,4.83,1.28,2.07-9.56,0-19.61-2.86-28.68Z" style="fill:#9db2d9; fill-rule:evenodd;"/><path d="M142.91,1098.98c-1.43,5.81-4.04,11.13-5.86,16.85-.89-4.83-1.97-9.56-3.15-14.29,1.38,.3,3.01-.59,2.96-2.37-.3-5.62,4.83-9.95,5.91-15.38,.59-3.15-4.24-4.53-4.83-1.38-.99,4.73-4.39,8.38-5.67,12.91-1.18-4.34-2.46-8.57-3.84-12.91,.2-.1,.35-.29,.54-.59,3.05-4.73,4.78-10.15,6.26-15.67,.84-3.05-3.99-4.44-4.83-1.28-1.08,3.85-2.22,7.69-3.99,11.24-1.38-4.14-2.81-8.38-4.29-12.52,.25-.2,.44-.59,.54-.89,1.63-4.63,4.93-8.28,6.06-13.11,.69-3.15-4.14-4.44-4.88-1.28-.74,3.15-2.46,5.91-4.04,8.87-1.03-2.96-2.12-5.81-3.15-8.77,1.13-4.24,1.68-8.57,2.51-12.81,.64-3.15-4.24-4.54-4.83-1.38-.34,1.77-.64,3.55-.94,5.22-1.97-5.42-3.89-10.84-5.77-16.26-1.04-3.05-5.91-1.77-4.88,1.38,2.32,6.6,4.68,13.21,7.1,19.81-.99-.89-1.92-1.77-2.91-2.76-2.27-2.27-5.82,1.28-3.5,3.55,2.61,2.66,5.37,5.03,8.03,7.59,.49,.49,1.08,.69,1.68,.69,.94,2.66,1.87,5.22,2.81,7.88-2.42-1.48-4.98-2.95-7-5.12-2.17-2.37-5.72,1.18-3.55,3.55,3.6,3.94,9.56,5.22,12.66,9.56,.3,.39,.64,.69,.99,.79,1.33,3.84,2.61,7.69,3.84,11.53-1.53-1.38-3.3-2.46-5.12-3.45-2.41-1.28-5.03-2.37-6.41-4.93-1.58-2.76-5.86-.29-4.34,2.56,3.01,5.42,9.66,6.01,13.45,10.54,1.23,1.48,2.96,.79,3.75-.49,1.18,3.74,2.27,7.49,3.3,11.24-5.17-3.15-9.76-7.1-14.05-11.24-2.32-2.27-5.86,1.28-3.55,3.55,4.98,4.93,10.45,9.46,16.56,12.91,.89,.49,1.73,.39,2.41,0,1.04,4.14,2.02,8.28,2.86,12.52-4.68-5.12-10.55-9.07-14.39-14.98-1.72-2.66-6.06-.2-4.34,2.56,5.32,8.18,14.68,12.71,19.12,21.58,.34,.79,.89,1.08,1.48,1.28,.1,.49,.15,1.08,.25,1.68,.39,2.86,4.38,2.07,4.83-.49,.84-.39,1.53-1.08,1.63-2.17,.64-8.47,5.42-15.87,7.44-23.95,.74-3.15-4.09-4.53-4.88-1.38Z" style="fill:#859ac6; fill-rule:evenodd;"/><path d="M319.71,1164.71c-3.11-18.53-9.61-38.34-24.1-51.15,1.67-1.58,.34-5.03-2.37-4.24-9.12,2.66-17.44,7-24,13.9-1.04,1.18-2.02,2.37-3.01,3.55-.1-1.38-1.33-2.76-3.1-2.46-8.87,1.87-15.87,8.87-21.29,15.67-6.9,8.57-12.27,18.23-17.15,27.99-4.29,8.67-8.08,17.64-11.97,26.51-.1,.1-.2,.3-.3,.39-3.1,4.83-4.78,10.84-6.5,16.26-.34,1.28-.74,2.46-1.13,3.75-.49-14.1-2.22-28.19-2.27-42.08v-.3c9.26-7.29,17.15-16.06,21.24-27.3,3.55-9.66,3.2-20.3,.94-30.16-4.98-21.68-18.38-40.7-28.58-60.12-3.4-6.4-6.5-12.91-8.72-19.81-.74-2.27-4.29-2.56-4.88,0-5.42,23.46-21.73,42.77-26.31,66.52-2.32,11.83-.54,23.26,4.34,34.2,1.58,3.55,4.14,6.7,6.55,9.76,2.96,3.65,6.11,7.1,9.26,10.55,1.87,1.97,3.79,4.04,5.67,6.11,.64,.59,1.23,1.28,1.87,1.97,.05,.1,.2,.29,.29,.39,0,.1,.05,.1,.05,.1h0s.05,0-.05-.1c-.05-.1-.1-.2-.1-.39,.2,.79,.74,1.48,1.53,1.87,2.91,3.85,6.16,7.39,10.1,10.45,.64,.49,1.28,.49,1.82,.39,.49,18.23,3.5,36.96,1.92,55.19-1.23,4.53-2.22,9.17-2.81,13.8-.39,1.58-.74,3.25-1.13,4.83h5.72c1.38-4.83,2.32-9.66,2.86-14.49,2.02-8.18,4.24-16.36,7-24.34,.2-.59,.44-1.08,.64-1.68-.2,13.9,4.54,28.29,9.91,40.6,8.58,19.52,21.14,38.14,36.47,53.02,3.25,3.15,6.75,6.11,10.45,8.77,1.38,.98,3.25-.1,3.7-1.48,3.99-12.42,5.91-25.43,4.73-38.44-1.13-11.83-4.88-23.16-10.3-33.61-5.72-11.23-13.5-21.39-21.78-30.85-4.24-4.83-8.67-9.76-13.7-13.89-2.96-2.46-6.41-4.83-10.4-5.03h-.49c1.48-3.25,2.91-6.5,4.39-9.66,4.53-9.95,9.46-19.71,15.42-28.88,5.13-7.88,11.43-16.16,20.06-20.3,1.38-.59,2.81-1.09,4.29-1.28-3.15,4.44-5.77,9.26-8.23,14.19-.89,.1-1.63,.69-1.87,1.77-1.77,7.69-1.08,15.38,3.2,22.18,4.14,6.6,10.74,11.43,17,15.77,.44,.29,.89,.39,1.28,.49,2.17,1.87,4.34,3.74,6.41,5.52,7.24,6.01,14.78,11.83,21.63,18.23,5.77,5.42,11.43,11.73,13.7,19.41,.84,2.76,4.88,2.17,4.93-.69,.2-5.12,.3-10.25,.3-15.47v-3.94c-.05-14.09-.84-28.09-3.1-41.98Z" style="fill:#c4d1eb; fill-rule:evenodd;"/><path d="M213.87,1130.02c-4.98,4.34-9.26,9.26-13.45,14.29-.29-4.63-.69-9.37-1.23-14,4.34-5.03,8.97-9.76,13.21-14.78,2.07-2.46-1.48-6.11-3.55-3.55-3.4,4.04-7.05,7.88-10.59,11.83-.54-3.65-1.23-7.2-2.07-10.84-.39-1.77-.84-3.65-1.28-5.42,0-.1,.05-.1,.05-.2,2.17-7.09,7.74-12.52,11.83-18.43,1.77-2.76-2.56-5.22-4.39-2.56-3.01,4.44-6.65,8.57-9.41,13.3-.89-3.84-1.77-7.69-2.46-11.63,1.04,.1,2.12-.39,2.42-1.77,1.08-4.83,3.99-8.48,7.39-11.93,2.27-2.37-1.28-5.91-3.55-3.55-3.01,3.05-5.72,6.41-7.39,10.25-1.04-7.98-1.13-15.96,.54-23.85,.69-3.15-4.14-4.54-4.83-1.38-1.77,8.28-1.73,16.56-.74,24.84-2.91-3.74-6.16-7.19-9.12-10.84-2.02-2.56-5.57,.98-3.55,3.55,3.89,4.83,8.38,9.26,11.63,14.49,.59,.98,1.48,1.28,2.32,1.18,.79,4.34,1.72,8.57,2.71,12.81-5.96-4.83-11.78-9.86-18.63-13.4-2.86-1.48-5.42,2.86-2.56,4.33,8.18,4.24,14.83,10.55,22.12,16.07,.3,.29,.59,.39,.84,.49,.25,.79,.44,1.68,.64,2.46,1.18,5.12,2.12,10.15,2.86,15.28-7.83-5.91-17.15-9.56-24.88-15.47-2.61-1.97-5.12,2.37-2.56,4.34,8.18,6.21,18.13,9.86,26.07,16.36,.25,1.08,1.23,2.07,2.32,2.07,.54,5.22,.89,10.45,1.08,15.67-.29,.39-.59,.69-.84,1.08-.15,.1-.3,.3-.39,.49-6.06-4.24-12.27-8.28-18.68-11.93-2.81-1.67-5.32,2.66-2.51,4.34,7.83,4.44,15.32,9.56,22.72,14.79,.1,4.34,.1,8.77,.1,13.11,0,3.25,5.03,3.25,5.03,0,0-6.7-.05-13.5-.3-20.21,5.27-6.31,10.4-12.71,16.66-18.13,2.41-2.17-1.13-5.72-3.55-3.55Z" style="fill:#859ac6; fill-rule:evenodd;"/><path d="M271.13,1282.19c-3.1-2.27-6.31-4.63-8.43-7.88-1.82-5.22-3.84-10.35-5.96-15.47,2.56,1.97,5.03,3.94,7.29,6.21,2.32,2.27,5.87-1.28,3.55-3.55-4.48-4.34-9.56-8.08-14.78-11.53-2.27-5.03-4.68-9.96-7.24-14.79,2.66,1.78,5.37,3.35,7.98,5.22,2.61,1.87,5.12-2.56,2.51-4.34-3.25-2.27-6.65-4.34-9.9-6.51-2.51-1.77-5.37-3.94-6.01-7.1-.29-1.38-1.43-1.97-2.51-1.77-2.02-3.35-4.04-6.7-6.11-10.05,4.29,2.46,8.43,5.12,13.55,5.91,3.15,.49,4.53-4.43,1.38-4.83-7.54-1.18-13.06-6.51-20.01-9.07-.89-1.28-1.72-2.56-2.61-3.85-1.82-2.66-6.16-.2-4.34,2.46,.69,1.08,1.43,2.17,2.17,3.25-.29,.39-.49,.89-.49,1.58v27.1c0,3.25,5.03,3.25,5.03,0v-21.68c2.41,3.84,4.73,7.69,7,11.63-.59,.39-.99,1.08-.99,1.97-.05,9.46-.99,18.82-2.02,28.09-.34,3.25,4.68,3.25,5.03,0,.84-7.69,1.63-15.37,1.92-23.16,3.4,6.11,6.6,12.42,9.61,18.82-.39,.69-.54,1.58-.2,2.37-1.43-1.28-4.58,.1-4.24,2.66,.94,6.6,.94,13.21,0,19.81-.44,3.15,4.43,4.54,4.88,1.28,.99-7.49,.99-14.88,0-22.37-.05-.2-.1-.39-.15-.59,.1,.1,.3,.3,.44,.39,.44,.3,.89,.59,1.33,.89,2.61,5.72,5.08,11.63,7.29,17.54-1.48,0-3.11,1.28-2.71,3.15,.94,5.22,.79,10.54,0,15.77-.54,3.15,4.34,4.53,4.83,1.28,.64-4.14,.94-8.18,.69-12.32,2.96,8.67,5.52,17.44,7.49,26.41,.74,3.15,5.57,1.77,4.88-1.38-1.48-6.41-3.15-12.71-5.12-19.02,.79,.59,1.63,1.18,2.42,1.78,2.61,1.97,5.08-2.37,2.56-4.34Z" style="fill:#859ac6; fill-rule:evenodd;"/><path d="M321.09,1190.44c-3.79-1.97-6.65-5.12-9.81-7.79-2.07-5.32-4.44-10.54-7-15.57,3.15,.49,6.26,1.08,8.97,2.86,2.76,1.67,5.27-2.66,2.51-4.34-4.34-2.76-9.36-3.25-14.29-3.75-3.05-5.52-6.46-10.84-10.2-15.87,5.72,.2,11.48,1.28,16.7,3.55,2.96,1.28,5.52-3.05,2.56-4.34-7.24-3.05-15.28-4.63-23.16-4.14-.59-.79-1.13-1.48-1.77-2.17-1.08-1.18-2.17-2.46-3.35-3.64,2.61-.3,5.22-.69,7.84-1.09,4.29-.59,9.02-1.38,13.26-.2,3.05,.98,4.39-3.84,1.28-4.83-8.77-2.66-18.38,1.18-27.35,1.48-3.55-3.05-7.49-5.62-11.78-7.49-3.01-1.18-4.29,3.65-1.33,4.83,2.32,.99,4.49,2.27,6.51,3.75,0,.39,.1,.79,.25,1.18,1.58,3.45,.54,8.18,0,11.73-.74,4.44-1.77,8.87-1.82,13.3-.05,3.25,4.98,3.25,5.03,0,.1-6.7,2.96-14.19,2.61-21.09,2.07,1.97,3.94,4.04,5.72,6.11,.25,.29,.49,.59,.74,.79-.74,.39-1.28,1.08-1.28,2.17,0,7.69-.05,15.28-2.17,22.67-.94,3.15,3.94,4.44,4.83,1.38,2.02-7,2.27-14.29,2.32-21.49,3.45,4.54,6.55,9.36,9.36,14.39-.34,.29-.59,.69-.69,1.18-1.82,7-.2,14.39-3.05,21.09-1.23,2.96,3.65,4.34,4.83,1.38,2.37-5.62,1.68-11.53,2.37-17.35,2.32,4.53,4.44,9.16,6.31,13.8-.15,.39-.2,.79-.1,1.18-.74,.69-1.08,1.77-.35,2.96,2.07,3.15,.25,8.18-.25,11.63-.44,3.15,4.39,4.53,4.83,1.28,.15-.98,.39-2.07,.59-3.15,2.12,7.69,3.6,15.67,2.76,23.56-.29,3.25,4.73,3.25,5.03,0,.89-8.48-.84-17.25-3.15-25.43-.25-.89-.49-1.87-.79-2.86,1.23,.99,2.51,1.87,3.94,2.66,2.86,1.48,5.42-2.86,2.56-4.34Z" style="fill:#859ac6; fill-rule:evenodd;"/><path d="M189.57,1227.39c.84-3.94,1.38-7.88,1.43-11.83,2.86,7.88,3.75,16.66,3.89,24.84-.54-1.38-1.13-2.66-1.72-4.04-1.18-2.66-2.46-5.42-3.84-8.08,.1-.3,.15-.59,.25-.89h0Zm2.02,18.92c.29,.98,.49,1.87,.54,2.56v.79c-.34,.3-.49,.69-.59,1.09h7.69c.15-.3,.29-.59,.34-.99,1.33-11.53,.1-24.54-3.84-35.48-1.58-4.44-3.65-9.86-7.1-13.3-.44-1.08-.94-2.17-1.48-3.15-1.08-2.17-3.79-1.28-4.48,.49-2.86,.1-5.62,2.07-8.03,3.84-4.14-6.9-8.48-13.7-13.21-20.11-4.39-6.11-9.56-13.21-16.51-16.56-2.71-1.28-5.57-1.58-8.33-.3-2.81,1.38-4.34,4.43-5.32,7.39-.69,.49-1.23,1.18-1.72,1.97-3.01-2.37-6.31-4.24-9.86-5.62-.64-.98-1.92-1.58-3.25-.69-13.35,9.26-23.46,21.19-28.83,36.66-7,20.11-1.58,41.79-6.95,62.19-.49,1.97,1.82,4.24,3.7,2.86,6.21-4.53,13.8-6.41,20.35-10.25,6.36-3.75,12.17-8.48,17.64-13.4,10.69-9.46,20.85-22.18,23.8-36.56,.74-.3,1.28-1.09,1.18-2.17-.84-11.14-5.91-21.98-13.9-29.67,.2-.39,.39-.79,.64-1.08,.79-.3,1.38-.89,1.63-1.68,.44-1.48,.98-2.96,1.87-4.24,.54-.89,1.18-1.28,1.87-1.48,.69-.2,1.18-.1,2.17,.1,1.13,.39,2.27,1.08,3.3,1.77,5.91,4.04,10.4,10.64,14.44,16.36,3.99,5.71,7.74,11.63,11.33,17.74-17,14.98-24.29,38.73-26.36,60.71-.89,9.26-1.43,19.41,1.13,28.48,.44,1.68,2.22,2.17,3.65,1.48,16.36-7.88,25.18-25.13,31.59-41.2,2.51-6.21,4.83-12.62,6.7-19.12,.44,.89,.84,1.77,1.23,2.76,1.13,2.46,2.17,5.12,2.96,7.79Z" style="fill:#c4d1eb; fill-rule:evenodd;"/><path d="M133.44,1177.72c1.77-2.76-2.56-5.22-4.34-2.56-.74,1.18-1.58,2.37-2.37,3.45-.34,.1-.69,.2-.99,.49-.54-.49-1.28-.69-2.17-.59-4.63,.98-9.12,2.86-13.9,2.96-3.2,.1-3.2,5.12,0,5.03,4.53-.1,8.77-1.48,13.11-2.56-2.56,3.35-5.12,6.8-7.15,10.54-.15,.39-.39,.79-.54,1.09,.34-1.88-1.58-4.04-3.65-2.66-4.43,2.86-9.51,5.52-14.83,6.11-3.15,.39-3.2,5.42,0,5.03,4.78-.59,9.41-2.27,13.65-4.63,.49,1.28,.99,2.46,1.48,3.65-.49,1.18-.94,2.27-1.43,3.35-.94,2.17-1.82,4.34-2.66,6.51,.1-1.78-1.77-3.65-3.75-2.46-5.77,3.35-12.91,4.83-16.95,10.45-1.92,2.66,2.46,5.12,4.34,2.56,1.63-2.37,4.53-3.65,7-4.83,1.97-.89,3.94-1.68,5.86-2.66-.05,1.68,.2,3.35,.54,5.03-.3,.79-.59,1.58-.94,2.27-.3,.2-.59,.39-.84,.59-5.27,5.22-11.33,9.46-16.61,14.59-2.32,2.27,1.23,5.81,3.55,3.55,2.56-2.46,5.32-4.83,8.08-7.1-5.22,9.26-10.84,18.23-12.76,28.78-.59,3.15,4.24,4.53,4.83,1.28,1.53-8.38,5.42-15.87,9.56-23.26,.49,3.15,1.04,6.31,1.08,9.56,.05,3.25,5.08,3.25,5.03,0-.1-5.71-1.73-11.23-1.97-16.95,1.03-1.87,2.07-3.84,3.05-5.71,.49,1.77,.84,3.65,.94,5.62,.05,3.25,5.08,3.25,4.98,0-.1-4.34-1.82-8.38-2.81-12.62,1.48-3.65,2.66-7.49,4.19-11.24,.74,2.76,1.33,5.62,1.72,8.48,.44,3.15,5.32,1.77,4.88-1.38-.69-4.83-1.92-9.56-3.55-14.19,.79-1.87,1.63-3.65,2.51-5.52,1.58-3.25,3.65-6.31,5.86-9.26,1.13,5.52,3.15,10.94,3.25,16.56,.1,3.25,5.08,3.25,5.03,0-.15-7.59-3.7-14.69-3.99-22.18,1.28-1.68,2.51-3.35,3.65-5.12Z" style="fill:#859ac6; fill-rule:evenodd;"/><path d="M182.23,1204.82c-2.96,3.75-5.57,7.69-7.88,11.73-.64,0-1.33,.3-1.87,.69-.74-.2-1.58-.1-2.32,.59-2.86,2.86-6.26,4.83-9.51,7.2-2.61,1.77-.1,6.21,2.56,4.34,2.32-1.68,4.73-3.25,7-5.03-1.43,3.15-2.81,6.31-4.04,9.46-.2,.1-.34,.1-.49,.2-4.29,2.66-9.86,3.84-13.06,7.98-1.97,2.46,1.58,6.01,3.55,3.55,1.82-2.37,4.68-3.75,7.49-4.93-.94,2.66-1.77,5.32-2.56,7.98-.44,0-.94,.1-1.43,.49-4.44,3.35-8.92,6.8-11.97,11.43-1.78,2.76,2.56,5.22,4.34,2.56,1.82-2.86,4.34-5.12,7-7.19-.79,2.86-1.53,5.62-2.22,8.47-3.99,2.86-7.88,5.62-10.59,9.76-1.77,2.66,2.56,5.22,4.34,2.46,1.18-1.77,2.76-3.35,4.48-4.73-.69,2.96-1.38,5.91-2.07,8.87-.69,3.15,4.14,4.53,4.83,1.28,.49-1.97,.99-4.04,1.43-6.01,.1,.49,.2,.98,.3,1.58,.2,1.28,1.87,2.07,3.05,1.67,1.43-.39,1.97-1.67,1.77-3.05-.44-2.96-1.33-5.81-3.2-8.08,.69-2.86,1.43-5.62,2.17-8.38,.49,1.08,.99,2.17,1.48,3.35,.49,1.28,2.37,1.48,3.4,.89,1.28-.79,1.43-2.17,.94-3.45-1.23-2.76-2.41-5.52-3.7-8.28,.74-2.46,1.48-4.93,2.32-7.39,.29,1.48,.49,2.95,.69,4.43,.39,3.15,5.42,3.15,5.03,0-.54-4.43-1.48-8.57-2.81-12.81,1.28-3.25,2.61-6.6,4.14-9.86,.84,1.87,1.63,3.84,2.27,5.71,1.04,3.06,5.91,1.78,4.88-1.28-1.23-3.45-2.71-6.8-4.29-10.15,2.37-4.34,5.03-8.57,8.13-12.52,1.97-2.56-1.58-6.11-3.55-3.55Z" style="fill:#859ac6; fill-rule:evenodd;"/><polygon points="1324.04 1408.83 1215.83 1408.83 1180.4 1268.89 1357.01 1268.89 1324.04 1408.83" style="fill:#b0c2e4; fill-rule:evenodd;"/><rect x="1168.57" y="1250.65" width="197.8" height="18.23" style="fill:#9db2d9;"/><polygon points="1268.7 1268.89 1180.4 1268.89 1215.83 1408.83 1268.7 1408.83 1268.7 1268.89" style="fill:#9db2d9; fill-rule:evenodd;"/><rect x="1168.57" y="1250.65" width="100.13" height="18.23" style="fill:#859ac6;"/><polygon points="1324.04 1410.9 1215.83 1410.9 1180.4 1391.98 1357.01 1391.98 1324.04 1410.9" style="fill:#9db2d9; fill-rule:evenodd;"/><polygon points="1268.7 1391.98 1180.4 1391.98 1215.83 1410.9 1268.7 1410.9 1268.7 1391.98" style="fill:#859ac6; fill-rule:evenodd;"/><path d="M1370.17,1001.8c0-.88,.05-1.67,.05-2.56,.05-2.07-2.76-3.35-4.29-1.78-8.33,9.07-16.16,18.53-23.16,28.58-3.7,5.32-7.05,10.74-10.1,16.46-1.97,3.74-3.99,7.59-5.03,11.73-1.87,7.79-2.02,15.97-2.27,23.85-.15,3.74-.25,7.49-.39,11.14-.1,1.38-.15,2.66-.3,3.94-.05,.29-.05,.2-.15,.79-.05,.2-.05,.29-.05,.39-.69,1.09-.29,2.46,.54,3.15-14.59,23.26-26.95,47.6-37.01,73.23-9.9,25.43-22.03,50.56-21.19,78.55,0,.59,.2,1.09,.54,1.48h4.04c.29-.39,.44-.89,.44-1.48-.79-27.2,10.99-51.74,20.7-76.38,9.36-23.75,20.6-46.32,33.85-68,.44,.98,1.43,1.77,2.81,1.18,10.6-4.14,20.6-9.95,28.04-18.73,6.11-7.1,9.86-15.87,11.78-25.03,4.14-19.81,.94-40.51,1.13-60.51Z" style="fill:#9db2d9; fill-rule:evenodd;"/><path d="M1366.96,1039.64c-3.7,3.75-7.69,8.18-12.22,11.33,1.48-4.83,2.66-9.66,3.84-14.49,3.3-3.45,8.23-5.52,11.93-8.38,2.56-1.97-1.04-5.52-3.55-3.55-2.07,1.67-4.34,2.96-6.5,4.33,1.58-6.31,3.4-12.61,6.4-18.33,1.53-2.86-2.81-5.42-4.34-2.56-4.34,8.28-6.65,17.35-8.77,26.41-.44,.59-.89,1.19-1.28,1.68-.64,1.09-.45,2.07,.2,2.76-.98,4.24-2.02,8.28-3.25,12.32,.39-7.39,1.18-14.78,2.66-22.18,.59-3.15-4.24-4.43-4.83-1.28-2.17,10.84-3.11,21.78-3.11,32.82-.05,.89,.35,1.48,.89,1.87-2.66,5.71-5.81,11.13-9.07,16.46-.25-9.95-.49-20.1,2.02-29.76,.84-3.15-3.99-4.44-4.83-1.28-3.3,12.62-2.17,26.12-2.07,39.03-2.71,4.43-5.37,8.87-7.69,13.5-1.48,2.96,2.86,5.42,4.34,2.56,2.21-4.34,4.68-8.58,7.29-12.71,7.44,.59,14.24-2.96,21.63-3.05,3.25-.1,3.25-5.12,0-5.03-6.36,.1-12.32,2.66-18.53,3.05,1.04-1.68,2.07-3.35,3.05-5.03,.49-.79,.94-1.48,1.43-2.27,.25-.1,.49-.3,.79-.59,5.08-4.93,10.94-8.97,16.02-14,2.31-2.27-1.23-5.81-3.55-3.55-2.17,2.17-4.48,4.14-6.85,6.01,1.18-2.46,2.27-5.03,3.3-7.69,7.04-3.25,12.76-9.46,18.18-14.88,2.27-2.27-1.28-5.81-3.55-3.55Z" style="fill:#859ac6; fill-rule:evenodd;"/><path d="M1271.37,1210.15c-2.96-9.66-7.2-19.32-12.91-27.6-13.11-19.12-31.09-34.1-44.45-52.92,.3-.2,.59-.29,.89-.59,7.44-7,9.02-18.43,9.26-28.09,.15-5.22-.24-10.45-1.03-15.57-.84-5.91-2.91-11.43-5.08-17.05-5.03-12.71-11.83-24.74-20.3-35.48-5.52-7.1-14.44-17.44-24.49-15.57-.15,.1-.29,.1-.49,.2-1.38,.29-1.97,1.67-1.72,3.05,3.99,23.85-2.37,48.1,2.51,71.94,3.45,16.56,15.13,36.56,34.2,36.76,12.81,19.32,30.7,34.4,44.4,53.02,5.87,7.98,10.15,16.95,13.4,26.32,3.15,8.97,5.91,19.41,3.85,28.97-.64,3.15,4.19,4.53,4.88,1.28,2.02-9.56-.05-19.61-2.91-28.68Z" style="fill:#9db2d9; fill-rule:evenodd;"/><path d="M1215.73,1098.98c-1.43,5.81-4.09,11.13-5.86,16.85-.94-4.83-2.02-9.56-3.21-14.29,1.43,.3,3.01-.59,2.96-2.37-.29-5.62,4.83-9.95,5.91-15.38,.64-3.15-4.24-4.53-4.83-1.38-.94,4.73-4.38,8.38-5.67,12.91-1.18-4.34-2.46-8.57-3.84-12.91,.2-.1,.34-.29,.54-.59,3.11-4.73,4.78-10.15,6.26-15.67,.89-3.05-3.99-4.44-4.83-1.28-1.09,3.85-2.22,7.69-3.99,11.24-1.38-4.14-2.81-8.38-4.29-12.52,.25-.2,.44-.59,.59-.89,1.63-4.63,4.88-8.28,6.01-13.11,.69-3.15-4.14-4.44-4.88-1.28-.69,3.15-2.46,5.91-4.04,8.87-1.04-2.96-2.12-5.81-3.15-8.77,1.13-4.24,1.68-8.57,2.51-12.81,.64-3.15-4.24-4.54-4.83-1.38-.34,1.77-.64,3.55-.94,5.22-1.97-5.42-3.89-10.84-5.76-16.26-1.04-3.05-5.92-1.77-4.83,1.38,2.27,6.6,4.63,13.21,7.04,19.81-.98-.89-1.92-1.77-2.86-2.76-2.32-2.27-5.87,1.28-3.55,3.55,2.61,2.66,5.42,5.03,8.03,7.59,.49,.49,1.13,.69,1.68,.69,.94,2.66,1.87,5.22,2.81,7.88-2.42-1.48-4.98-2.95-7-5.12-2.17-2.37-5.72,1.18-3.55,3.55,3.64,3.94,9.56,5.22,12.66,9.56,.29,.39,.64,.69,.98,.79,1.33,3.84,2.61,7.69,3.84,11.53-1.53-1.38-3.3-2.46-5.12-3.45-2.42-1.28-5.03-2.37-6.41-4.93-1.58-2.76-5.87-.29-4.34,2.56,3.01,5.42,9.66,6.01,13.45,10.54,1.23,1.48,2.96,.79,3.79-.49,1.13,3.74,2.22,7.49,3.25,11.24-5.17-3.15-9.76-7.1-14.04-11.24-2.32-2.27-5.86,1.28-3.55,3.55,4.98,4.93,10.45,9.46,16.61,12.91,.84,.49,1.67,.39,2.37,0,1.03,4.14,2.02,8.28,2.86,12.52-4.63-5.12-10.54-9.07-14.39-14.98-1.72-2.66-6.06-.2-4.34,2.56,5.32,8.18,14.73,12.71,19.12,21.58,.35,.79,.89,1.08,1.48,1.28,.1,.49,.2,1.08,.24,1.68,.45,2.86,4.44,2.07,4.88-.49,.79-.39,1.48-1.08,1.58-2.17,.64-8.47,5.42-15.87,7.44-23.95,.79-3.15-4.04-4.53-4.83-1.38Z" style="fill:#859ac6; fill-rule:evenodd;"/><path d="M1392.49,1164.71c-3.1-18.53-9.61-38.34-24.1-51.15,1.68-1.58,.35-5.03-2.37-4.24-9.07,2.66-17.45,7-24,13.9-1.04,1.18-2.02,2.37-2.96,3.55-.15-1.38-1.38-2.76-3.15-2.46-8.87,1.87-15.87,8.87-21.29,15.67-6.9,8.57-12.27,18.23-17.15,27.99-4.29,8.67-8.03,17.64-11.97,26.51-.1,.1-.2,.3-.25,.39-3.15,4.83-4.83,10.84-6.55,16.26-.34,1.28-.74,2.46-1.13,3.75-.49-14.1-2.22-28.19-2.27-42.08v-.3c9.26-7.29,17.15-16.06,21.24-27.3,3.55-9.66,3.21-20.3,.94-30.16-4.98-21.68-18.38-40.7-28.58-60.12-3.4-6.4-6.51-12.91-8.72-19.81-.74-2.27-4.29-2.56-4.88,0-5.42,23.46-21.73,42.77-26.31,66.52-2.27,11.83-.54,23.26,4.34,34.2,1.58,3.55,4.14,6.7,6.55,9.76,2.96,3.65,6.11,7.1,9.26,10.55,1.92,1.97,3.79,4.04,5.67,6.11,.64,.59,1.28,1.28,1.87,1.97,.05,.1,.2,.29,.29,.39,0,.1,.05,.1,.05,.1h0s.05,0-.05-.1c-.05-.1-.1-.2-.1-.39,.2,.79,.74,1.48,1.53,1.87,2.91,3.85,6.16,7.39,10.1,10.45,.64,.49,1.28,.49,1.82,.39,.49,18.23,3.5,36.96,1.97,55.19-1.23,4.53-2.27,9.17-2.86,13.8-.39,1.58-.74,3.25-1.13,4.83h5.72c1.38-4.83,2.31-9.66,2.86-14.49,2.02-8.18,4.24-16.36,7.04-24.34,.2-.59,.39-1.08,.59-1.68-.2,13.9,4.53,28.29,9.9,40.6,8.57,19.52,21.14,38.14,36.47,53.02,3.25,3.15,6.75,6.11,10.45,8.77,1.38,.98,3.25-.1,3.7-1.48,3.99-12.42,5.91-25.43,4.73-38.44-1.08-11.83-4.83-23.16-10.25-33.61-5.77-11.23-13.5-21.39-21.78-30.85-4.29-4.83-8.72-9.76-13.75-13.89-2.96-2.46-6.41-4.83-10.4-5.03h-.49c1.48-3.25,2.95-6.5,4.38-9.66,4.53-9.95,9.46-19.71,15.47-28.88,5.08-7.88,11.38-16.16,20.01-20.3,1.38-.59,2.81-1.09,4.29-1.28-3.15,4.44-5.77,9.26-8.23,14.19-.84,.1-1.63,.69-1.87,1.77-1.72,7.69-1.04,15.38,3.21,22.18,4.14,6.6,10.74,11.43,17,15.77,.44,.29,.89,.39,1.28,.49,2.17,1.87,4.34,3.74,6.4,5.52,7.24,6.01,14.79,11.83,21.63,18.23,5.77,5.42,11.43,11.73,13.75,19.41,.79,2.76,4.83,2.17,4.93-.69,.15-5.12,.25-10.25,.25-15.47v-3.94c-.05-14.09-.79-28.09-3.11-41.98Z" style="fill:#c4d1eb; fill-rule:evenodd;"/><path d="M1286.64,1130.02c-4.98,4.34-9.27,9.26-13.46,14.29-.29-4.63-.64-9.37-1.23-14,4.34-5.03,8.97-9.76,13.21-14.78,2.07-2.46-1.48-6.11-3.55-3.55-3.4,4.04-7.05,7.88-10.6,11.83-.54-3.65-1.23-7.2-2.07-10.84-.39-1.77-.84-3.65-1.28-5.42,0-.1,.05-.1,.05-.2,2.17-7.09,7.74-12.52,11.83-18.43,1.82-2.76-2.56-5.22-4.34-2.56-3.05,4.44-6.7,8.57-9.46,13.3-.89-3.84-1.78-7.69-2.46-11.63,1.04,.1,2.17-.39,2.46-1.77,1.04-4.83,3.94-8.48,7.34-11.93,2.31-2.37-1.23-5.91-3.55-3.55-3.01,3.05-5.67,6.41-7.39,10.25-.98-7.98-1.13-15.96,.54-23.85,.69-3.15-4.14-4.54-4.83-1.38-1.78,8.28-1.72,16.56-.74,24.84-2.91-3.74-6.16-7.19-9.12-10.84-2.02-2.56-5.57,.98-3.55,3.55,3.89,4.83,8.38,9.26,11.63,14.49,.59,.98,1.48,1.28,2.32,1.18,.79,4.34,1.72,8.57,2.71,12.81-5.96-4.83-11.78-9.86-18.63-13.4-2.86-1.48-5.42,2.86-2.56,4.33,8.18,4.24,14.88,10.55,22.13,16.07,.3,.29,.59,.39,.89,.49,.2,.79,.4,1.68,.59,2.46,1.23,5.12,2.12,10.15,2.86,15.28-7.84-5.91-17.1-9.56-24.89-15.47-2.61-1.97-5.07,2.37-2.56,4.34,8.18,6.21,18.13,9.86,26.07,16.36,.29,1.08,1.23,2.07,2.32,2.07,.54,5.22,.89,10.45,1.08,15.67-.29,.39-.54,.69-.84,1.08-.15,.1-.29,.3-.35,.49-6.11-4.24-12.32-8.28-18.72-11.93-2.81-1.67-5.32,2.66-2.51,4.34,7.83,4.44,15.32,9.56,22.71,14.79,.1,4.34,.15,8.77,.15,13.11,0,3.25,4.97,3.25,4.97,0,0-6.7-.05-13.5-.29-20.21,5.27-6.31,10.4-12.71,16.66-18.13,2.41-2.17-1.13-5.72-3.55-3.55Z" style="fill:#859ac6; fill-rule:evenodd;"/><path d="M1343.9,1282.19c-3.11-2.27-6.31-4.63-8.43-7.88-1.82-5.22-3.84-10.35-5.96-15.47,2.56,1.97,5.03,3.94,7.29,6.21,2.31,2.27,5.86-1.28,3.55-3.55-4.48-4.34-9.56-8.08-14.78-11.53-2.27-5.03-4.68-9.96-7.2-14.79,2.61,1.78,5.32,3.35,7.94,5.22,2.66,1.87,5.12-2.56,2.51-4.34-3.2-2.27-6.65-4.34-9.91-6.51-2.51-1.77-5.37-3.94-6.01-7.1-.3-1.38-1.43-1.97-2.51-1.77-2.02-3.35-4.04-6.7-6.11-10.05,4.34,2.46,8.43,5.12,13.55,5.91,3.21,.49,4.54-4.43,1.38-4.83-7.54-1.18-13.06-6.51-20.01-9.07-.88-1.28-1.72-2.56-2.61-3.85-1.82-2.66-6.16-.2-4.34,2.46,.74,1.08,1.43,2.17,2.17,3.25-.29,.39-.49,.89-.49,1.58v27.1c0,3.25,5.03,3.25,5.03,0v-21.68c2.41,3.84,4.73,7.69,7,11.63-.54,.39-.99,1.08-.99,1.97,0,9.46-.98,18.82-2.02,28.09-.35,3.25,4.68,3.25,5.03,0,.84-7.69,1.63-15.37,1.92-23.16,3.4,6.11,6.6,12.42,9.61,18.82-.39,.69-.54,1.58-.2,2.37-1.43-1.28-4.58,.1-4.19,2.66,.88,6.6,.88,13.21,0,19.81-.45,3.15,4.38,4.54,4.83,1.28,1.04-7.49,1.04-14.88,0-22.37-.05-.2-.1-.39-.15-.59,.15,.1,.3,.3,.45,.39,.44,.3,.88,.59,1.33,.89,2.61,5.72,5.07,11.63,7.29,17.54-1.48,0-3.1,1.28-2.71,3.15,.98,5.22,.79,10.54,0,15.77-.49,3.15,4.34,4.53,4.83,1.28,.64-4.14,.94-8.18,.74-12.32,2.95,8.67,5.47,17.44,7.44,26.41,.74,3.15,5.57,1.77,4.88-1.38-1.43-6.41-3.15-12.71-5.12-19.02,.84,.59,1.62,1.18,2.41,1.78,2.61,1.97,5.12-2.37,2.56-4.34Z" style="fill:#859ac6; fill-rule:evenodd;"/><path d="M1393.87,1190.44c-3.79-1.97-6.65-5.12-9.81-7.79-2.07-5.32-4.38-10.54-7-15.57,3.15,.49,6.26,1.08,8.97,2.86,2.76,1.67,5.27-2.66,2.51-4.34-4.34-2.76-9.31-3.25-14.29-3.75-3.06-5.52-6.46-10.84-10.2-15.87,5.72,.2,11.48,1.28,16.71,3.55,2.96,1.28,5.52-3.05,2.56-4.34-7.24-3.05-15.28-4.63-23.16-4.14-.59-.79-1.13-1.48-1.72-2.17-1.13-1.18-2.22-2.46-3.4-3.64,2.61-.3,5.28-.69,7.84-1.09,4.29-.59,9.02-1.38,13.26-.2,3.11,.98,4.38-3.84,1.33-4.83-8.82-2.66-18.43,1.18-27.35,1.48-3.6-3.05-7.49-5.62-11.83-7.49-3.01-1.18-4.29,3.65-1.33,4.83,2.31,.99,4.48,2.27,6.55,3.75-.05,.39,.05,.79,.2,1.18,1.58,3.45,.54,8.18,0,11.73-.74,4.44-1.77,8.87-1.82,13.3-.05,3.25,4.98,3.25,5.03,0,.1-6.7,2.95-14.19,2.66-21.09,2.02,1.97,3.89,4.04,5.67,6.11,.25,.29,.49,.59,.74,.79-.74,.39-1.28,1.08-1.28,2.17,0,7.69-.05,15.28-2.17,22.67-.94,3.15,3.94,4.44,4.83,1.38,2.02-7,2.32-14.29,2.32-21.49,3.45,4.54,6.55,9.36,9.36,14.39-.3,.29-.54,.69-.69,1.18-1.82,7-.2,14.39-3.06,21.09-1.23,2.96,3.65,4.34,4.88,1.38,2.32-5.62,1.63-11.53,2.32-17.35,2.32,4.53,4.44,9.16,6.31,13.8-.15,.39-.15,.79-.1,1.18-.74,.69-1.08,1.77-.34,2.96,2.07,3.15,.3,8.18-.25,11.63-.44,3.15,4.38,4.53,4.83,1.28,.2-.98,.39-2.07,.59-3.15,2.12,7.69,3.6,15.67,2.76,23.56-.29,3.25,4.73,3.25,5.03,0,.89-8.48-.84-17.25-3.1-25.43-.29-.89-.54-1.87-.84-2.86,1.23,.99,2.51,1.87,3.94,2.66,2.86,1.48,5.42-2.86,2.56-4.34Z" style="fill:#859ac6; fill-rule:evenodd;"/><path d="M1262.35,1227.39c.84-3.94,1.38-7.88,1.43-11.83,2.86,7.88,3.74,16.66,3.89,24.84-.54-1.38-1.13-2.66-1.67-4.04-1.23-2.66-2.51-5.42-3.89-8.08,.1-.3,.15-.59,.25-.89h0Zm2.02,18.92c.3,.98,.49,1.87,.54,2.56v.79c-.35,.3-.49,.69-.59,1.09h7.69c.2-.3,.29-.59,.34-.99,1.33-11.53,.1-24.54-3.84-35.48-1.58-4.44-3.65-9.86-7.1-13.3-.44-1.08-.94-2.17-1.48-3.15-1.09-2.17-3.79-1.28-4.44,.49-2.91,.1-5.67,2.07-8.08,3.84-4.14-6.9-8.47-13.7-13.21-20.11-4.39-6.11-9.56-13.21-16.51-16.56-2.71-1.28-5.57-1.58-8.33-.3-2.81,1.38-4.34,4.43-5.32,7.39-.69,.49-1.23,1.18-1.73,1.97-3-2.37-6.31-4.24-9.86-5.62-.64-.98-1.92-1.58-3.2-.69-13.4,9.26-23.51,21.19-28.88,36.66-7,20.11-1.58,41.79-6.9,62.19-.54,1.97,1.77,4.24,3.64,2.86,6.21-4.53,13.8-6.41,20.35-10.25,6.36-3.75,12.17-8.48,17.64-13.4,10.74-9.46,20.84-22.18,23.8-36.56,.74-.3,1.28-1.09,1.18-2.17-.79-11.14-5.91-21.98-13.9-29.67,.2-.39,.39-.79,.69-1.08,.74-.3,1.33-.89,1.58-1.68,.45-1.48,.99-2.96,1.87-4.24,.54-.89,1.18-1.28,1.87-1.48,.69-.2,1.18-.1,2.17,.1,1.18,.39,2.27,1.08,3.3,1.77,5.91,4.04,10.4,10.64,14.44,16.36,3.99,5.71,7.74,11.63,11.33,17.74-17,14.98-24.29,38.73-26.36,60.71-.89,9.26-1.38,19.41,1.13,28.48,.44,1.68,2.21,2.17,3.69,1.48,16.31-7.88,25.13-25.13,31.54-41.2,2.52-6.21,4.83-12.62,6.7-19.12,.44,.89,.84,1.77,1.28,2.76,1.13,2.46,2.17,5.12,2.91,7.79Z" style="fill:#c4d1eb; fill-rule:evenodd;"/><path d="M1206.22,1177.72c1.82-2.76-2.56-5.22-4.34-2.56-.74,1.18-1.58,2.37-2.37,3.45-.35,.1-.69,.2-.98,.49-.54-.49-1.28-.69-2.17-.59-4.63,.98-9.12,2.86-13.85,2.96-3.25,.1-3.25,5.12,0,5.03,4.48-.1,8.72-1.48,13.06-2.56-2.56,3.35-5.12,6.8-7.1,10.54-.2,.39-.44,.79-.59,1.09,.35-1.88-1.58-4.04-3.64-2.66-4.44,2.86-9.51,5.52-14.79,6.11-3.2,.39-3.2,5.42,0,5.03,4.78-.59,9.37-2.27,13.6-4.63,.49,1.28,.98,2.46,1.48,3.65-.49,1.18-.94,2.27-1.43,3.35-.89,2.17-1.82,4.34-2.66,6.51,.1-1.78-1.78-3.65-3.75-2.46-5.71,3.35-12.91,4.83-16.95,10.45-1.92,2.66,2.46,5.12,4.34,2.56,1.63-2.37,4.53-3.65,7.05-4.83,1.92-.89,3.89-1.68,5.81-2.66-.05,1.68,.2,3.35,.54,5.03-.29,.79-.59,1.58-.94,2.27-.3,.2-.59,.39-.84,.59-5.27,5.22-11.33,9.46-16.61,14.59-2.27,2.27,1.23,5.81,3.6,3.55,2.51-2.46,5.27-4.83,8.03-7.1-5.17,9.26-10.79,18.23-12.76,28.78-.59,3.15,4.29,4.53,4.83,1.28,1.53-8.38,5.42-15.87,9.56-23.26,.49,3.15,1.04,6.31,1.09,9.56,.05,3.25,5.07,3.25,5.03,0-.1-5.71-1.68-11.23-1.97-16.95,1.04-1.87,2.07-3.84,3.05-5.71,.49,1.77,.89,3.65,.94,5.62,.1,3.25,5.08,3.25,5.03,0-.15-4.34-1.87-8.38-2.86-12.62,1.48-3.65,2.66-7.49,4.19-11.24,.74,2.76,1.33,5.62,1.72,8.48,.49,3.15,5.32,1.77,4.88-1.38-.69-4.83-1.92-9.56-3.55-14.19,.79-1.87,1.63-3.65,2.51-5.52,1.58-3.25,3.65-6.31,5.87-9.26,1.13,5.52,3.15,10.94,3.25,16.56,.1,3.25,5.08,3.25,5.03,0-.15-7.59-3.7-14.69-3.99-22.18,1.28-1.68,2.51-3.35,3.65-5.12Z" style="fill:#859ac6; fill-rule:evenodd;"/><path d="M1255,1204.82c-2.96,3.75-5.57,7.69-7.88,11.73-.64,0-1.33,.3-1.82,.69-.79-.2-1.63-.1-2.31,.59-2.86,2.86-6.31,4.83-9.56,7.2-2.61,1.77-.1,6.21,2.56,4.34,2.32-1.68,4.73-3.25,7.05-5.03-1.48,3.15-2.86,6.31-4.09,9.46-.15,.1-.35,.1-.49,.2-4.29,2.66-9.86,3.84-13.06,7.98-1.97,2.46,1.58,6.01,3.55,3.55,1.82-2.37,4.68-3.75,7.49-4.93-.89,2.66-1.78,5.32-2.56,7.98-.44,0-.94,.1-1.43,.49-4.43,3.35-8.87,6.8-11.97,11.43-1.72,2.76,2.61,5.22,4.34,2.56,1.82-2.86,4.34-5.12,7-7.19-.79,2.86-1.53,5.62-2.22,8.47-3.99,2.86-7.88,5.62-10.6,9.76-1.77,2.66,2.56,5.22,4.34,2.46,1.18-1.77,2.76-3.35,4.48-4.73-.69,2.96-1.38,5.91-2.07,8.87-.69,3.15,4.14,4.53,4.83,1.28,.49-1.97,.99-4.04,1.43-6.01,.15,.49,.2,.98,.29,1.58,.2,1.28,1.87,2.07,3.05,1.67,1.43-.39,1.97-1.67,1.78-3.05-.44-2.96-1.33-5.81-3.2-8.08,.74-2.86,1.43-5.62,2.17-8.38,.49,1.08,.99,2.17,1.48,3.35,.54,1.28,2.37,1.48,3.4,.89,1.33-.79,1.48-2.17,.94-3.45-1.23-2.76-2.41-5.52-3.7-8.28,.74-2.46,1.48-4.93,2.32-7.39,.29,1.48,.54,2.95,.69,4.43,.39,3.15,5.42,3.15,5.03,0-.49-4.43-1.48-8.57-2.81-12.81,1.28-3.25,2.61-6.6,4.14-9.86,.84,1.87,1.62,3.84,2.27,5.71,1.08,3.06,5.91,1.78,4.88-1.28-1.23-3.45-2.71-6.8-4.29-10.15,2.37-4.34,5.08-8.57,8.13-12.52,1.97-2.56-1.58-6.11-3.55-3.55Z" style="fill:#859ac6; fill-rule:evenodd;"/></svg>