<?xml version="1.0" encoding="UTF-8"?><svg id="a" xmlns="http://www.w3.org/2000/svg" viewBox="0 0 2361.18 1616.53"><path d="M1148.6,0c287.71,0,408.91,205.85,616.61,365.87,274.9,211.78,549.76,73.92,593.78,789.49,39.17,636.88-449.64,68.95-1138.85,297.09C530.92,1680.59-171.02,1772.46,37.27,1034.32,245.55,296.19,480.13,0,1148.6,0Z" style="fill:#e0e8f5; fill-rule:evenodd;"/><path d="M1744.23,578.59h-396.62c2.85-12.06,13.67-21.01,26.59-21.01,.62,0,1.25,.02,1.86,.06,6.26-15.33,21.33-26.14,38.92-26.14,7.69,0,14.9,2.08,21.1,5.68,7.56-24.94,30.72-43.09,58.14-43.09,5.57,0,10.98,.76,16.1,2.17,13.28-29.29,42.76-49.67,77.02-49.67,40.62,0,74.54,28.68,82.64,66.88,.69-.02,1.37-.05,2.05-.05,26.02,0,47.49,19.46,50.66,44.61,10.62,1.99,19.07,10.11,21.54,20.55Z" style="fill:#fff; fill-rule:evenodd;"/><path d="M1292.79,214.18h-396.62c2.85-12.05,13.67-21.01,26.59-21.01,.62,0,1.25,.03,1.86,.07,6.26-15.33,21.33-26.14,38.92-26.14,7.7,0,14.9,2.07,21.1,5.68,7.56-24.93,30.73-43.09,58.14-43.09,5.57,0,10.98,.76,16.1,2.17,13.27-29.29,42.76-49.67,77.01-49.67,40.62,0,74.54,28.68,82.64,66.88,.69-.03,1.37-.05,2.05-.05,26.02,0,47.49,19.46,50.67,44.61,10.62,2,19.07,10.11,21.54,20.55Z" style="fill:#fff; fill-rule:evenodd;"/><path d="M756.59,795.66s-15.08-12.32-20.5-12.39c-5.41-.05-15.71-2.77-15.31-1.01,.41,1.75,9.08,4.05,7.59,4.87-1.49,.82-14.09-2.57-17.61-.54-3.52,2.03-11.79,10.42-5.15,14.09,6.64,3.66,26.55,9.48,31.7,8.81,5.14-.69,16.79-1.49,16.79-1.49l2.48-12.34Z" style="fill:#f9af79; fill-rule:evenodd;"/><path d="M703.53,592.01c.25-.05,.48-.08,.72-.11-.25,.03-.48,.06-.72,.11h0Zm1.23-.19c.06,0,.12-.02,.19-.03-.07,0-.13,.02-.19,.03h0Zm83.38-15.58c.11-.02,.19-.04,.3-.06-.11,.03-.19,.05-.3,.06h0Zm.69-.15c.22-.06,.44-.1,.66-.15-.22,.05-.44,.08-.66,.15h0Zm.86-.2c.21-.04,.41-.09,.6-.13-.19,.04-.4,.09-.6,.13h0Zm.69-.15c6.09-1.34,12.13-2.71,18.1-4.1-60.26-7.91-176.58-32.53-154.7-103.57,20.54-66.62,178.25-110.72,274.83-134.66-74.07-4.91-165.49-.46-263.24,14.84-223.81,35.02-399.08,113.97-403.44,179.77,4.36-65.8,179.64-144.75,403.44-179.77,98.04-15.34,189.78-19.81,263.96-14.84,102.26,6.84,171.18,31.64,177.29,70.64,9.18,58.67-126.76,130.14-316.24,171.68Z" style="fill:#d0a382; fill-rule:evenodd;"/><path d="M704.25,591.9c.17-.03,.34-.06,.51-.08-.17,.03-.34,.05-.51,.08h0Zm.7-.11c28.61-4.51,56.42-9.73,83.19-15.55-26.76,5.82-54.58,11.04-83.19,15.55h0Zm83.48-15.61c.13-.04,.26-.06,.39-.08-.13,.03-.26,.05-.39,.08h0Zm1.05-.23c.07-.03,.14-.04,.2-.06-.06,.02-.13,.03-.2,.06h0Zm.8-.18s.06,0,.09-.02c-.03,0-.05,0-.09,.02Z" style="fill:#c3d7d2; fill-rule:evenodd;"/><path d="M474.75,608.45c-54.6-2.42-79.88-4.85-107.93-10.57-61.2-11.8-100.03-32.85-104.54-61.68-.42-2.7-.54-5.42-.36-8.17,4.36-65.8,179.64-144.75,403.44-179.77,97.74-15.3,189.17-19.76,263.24-14.84-96.58,23.94-254.29,68.04-274.83,134.66-21.88,71.04,94.44,95.65,154.7,103.57-5.98,1.39-12.02,2.76-18.1,4.1-.03,0-.06,0-.09,.02-.19,.04-.39,.09-.6,.13-.06,.02-.13,.03-.2,.06-.22,.05-.44,.08-.66,.15-.13,.03-.26,.05-.39,.08-.11,.03-.19,.05-.3,.06-26.76,5.82-54.58,11.04-83.19,15.55-.07,0-.13,.02-.19,.03-.17,.03-.34,.05-.51,.08-.25,.03-.48,.06-.72,.11h0c-83.07,13-161.6,18.2-228.78,16.45Z" style="fill:#d0a382; fill-rule:evenodd;"/><path d="M461.85,395.97c-10.66,13.05-19.97,26.85-27.13,41.3-38.84,78.43-50.47,140.76-53.63,163.27l3.6,.59c3.09-22.1,14.6-84.08,53.3-162.24,7.84-15.83,18.31-30.89,30.34-45.01-2.17,.69-4.34,1.38-6.48,2.09Z" style="fill:#9c7357; fill-rule:evenodd;"/><path d="M608.36,358.33c-7.74,21.94-15.57,48.3-21.63,78.01-14.39,70.53-13.69,144.13-12.87,170.04l3.64-.24c-.81-25.84-1.49-98.98,12.81-169.08,6.21-30.46,14.29-57.38,22.21-79.55l-4.16,.82Z" style="fill:#9c7357; fill-rule:evenodd;"/><path d="M767.07,410.3c-4.55-7.13-9.54-14.19-14.82-21.11l-3.44,1.51c5.41,7.07,10.52,14.28,15.16,21.56,34.71,54.4,69.18,131.76,77.66,151.19l3.55-.94c-8.1-18.6-42.97-97.08-78.12-152.21h0Zm-61.15-67.81h0l4.58-.59-4.59,.59Z" style="fill:#9c7357; fill-rule:evenodd;"/><path d="M917.03,352.15c-5.23-4.05-10.74-7.92-16.45-11.62l-4.82,1.27c6.64,4.17,13.01,8.59,19.02,13.26,78.78,61.12,111.85,138.1,112.17,138.87l.19,.14c1.05-.58,2.08-1.16,3.11-1.74-1.79-4.09-35.44-79.8-113.23-140.17h0Zm-31.15-20.48l-.07-.05c-2.57-.05-5.16-.07-7.76-.1l.07,.04c2.6,.03,5.18,.06,7.76,.11Z" style="fill:#9c7357; fill-rule:evenodd;"/><path d="M634.55,211.11c-.67-3.98-4.4-6.68-8.43-5.97-3.98,.67-6.66,4.44-5.99,8.42l108.36,638.5c.58,3.42,3.42,5.87,6.73,6.09l1.71-.09c3.97-.67,6.66-4.46,5.99-8.43l-108.38-638.52Z" style="fill:#9c7357; fill-rule:evenodd;"/><path d="M652.07,267.16c-233.15,36.49-400.31,201.73-389.78,269.05-10.53-67.31,169.93-151.45,403.09-187.94,233.16-36.49,430.7-11.51,441.25,55.8-10.54-67.31-221.4-173.38-454.55-136.9Z" style="fill:#eac5a7; fill-rule:evenodd;"/><path d="M580.51,1243.73s9.08,8.97,9.3,12.27c.21,3.3,.79,38.6-2.9,41.9-3.72,3.3-14.61,5.67-11.11,9.37,2.64,2.77,23.01,2.17,36.51,1.45,3.92-.27,8.88-32.06,10.44-36.75,2.25-6.79,10.42-21.65,8.37-26.32-1.02-2.31-8.47-7.59-15.24-12.01-7.11-4.69-13.93-15.05-13.93-15.05l-21.44,25.14Z" style="fill:#f9af79; fill-rule:evenodd;"/><path d="M459.01,1265.76l8.14,23.36c.6,3.69,2.98,12.8,2.98,16.16,0,12.61-56.03-10.69-43.48-16.29,1.14-.53,4.71-4.56,5.08-8.85,.59-6.59-4.71-14.84-4.71-14.84l31.98,.46Z" style="fill:#f9af79; fill-rule:evenodd;"/><path d="M381.71,823.95l-20.29,52.53s-13.23,125.36-5.54,200.38c3.23,31.41,72.99,199.4,72.99,199.4l34.67-4.94-46.42-198.94,17.07-76.07,24.18-150.44-76.67-21.91Z" style="fill:#20386f; fill-rule:evenodd;"/><path d="M477.26,826.65l17.41,58.46,26.45,176.57,89.51,165.16s-13.45,20.71-27.9,23.95l-127.05-166.94-68.86-208.96,2.42-46.45,88.03-1.79Z" style="fill:#223f81; fill-rule:evenodd;"/><path d="M203.14,822.96c13.51-.65,13.09,1.69,14.83,1.51,2.02-.13,23.87-17.01,23.87-17.01,0,0,64.61-49.25,67.99-52.02l40.32-74.26,42.03,9.86s-45.98,79.56-49.11,83.31c-3.09,3.69-98.1,59.97-106.33,65.23,0,0-7.51,9.89-12.42,15.96-4.93,6.05-12.24,9.55-13.9,11.06-.23,.18-6,4.87-14.59,8.61-7.41,3.32-1.88-3.2-1.88-3.2,0,0,12.65-8.58,11.82-9.45-.65-.71-7.28,4.38-15.44,8.09-2.1,.96-4.16,1.86-6.06,2.68-5.02,2.21-7.81-.24-2.92-3.43,1.73-1.11,4.64-2.87,6.89-3.83,2.45-1.09,4.35-2.85,6.26-4.03,3.79-2.38,6.6-4.1,6.42-4.18-.25-.11,.19-1.14-2.08-.18-2.72,1.11-7.94,4.81-12.09,6.16-2.33,.79-7.1,2.66-7.1,2.66,0,0-8.11,2.23-8.32,1.77-1.3-2.29,4.06-5.58,7.34-6.15,1.92-1.54,6.99-3.36,6.99-3.36,0,0,9.46-6.1,8.63-7.46-.67-1.16-26.09,8.98-27.25,6.6-.92-1.99,6.59-5.4,6.59-5.4,0,0,4.71-1.69,6.23-2.39,1.77-.82,6.94-3.67,6.94-3.67,0,0,17.46-10.65,16.57-11.91-.87-1.25-4.43-3.45-5.73-3.15-1.32,.28-3.45,2.09-4.73,2.32-1.32,.29-3.27-.49-3.75-2.06-.45-1.63,5.35-5.44,5.35-5.44,0,0,4.72-3.05,8.63-3.22Z" style="fill:#f9af79; fill-rule:evenodd;"/><path d="M334.12,701.9l43.24,24.42s18.51-36.69,26.35-54.65c9.51-21.77,19.17-50.53,16.32-51.05-8.02-1.49-18.86-1.76-28.25,3.79-32.47,19.3-57.66,77.49-57.66,77.49Z" style="fill:#466fb5; fill-rule:evenodd;"/><path d="M544.98,920.28c7.54-12.33,9.24-10.55,10.16-12.2,1.09-1.92-.12-31.27-.12-31.27,0,0-3.01-86.71-3.33-91.38l-38.6-80.04,33.36-31.41s39.71,88.22,40.99,93.23c1.3,5.02-7.88,122.79-8.37,133.22,0,0,3.86,12.61,6.03,20.58,2.17,7.92,.79,16.57,1.05,18.88,.05,.39,.53,8.24-1.4,18.14-1.67,8.51-3.88-.33-3.88-.33,0,0,.32-16.3-.91-16.1-.98,.13-.66,9.1-2.38,18.54-.44,2.38-.91,4.81-1.34,7-1.11,5.8-4.86,6.73-4.63,.52,.08-2.17,.33-5.87,.85-8.44,.57-2.77,.21-5.47,.34-7.91,.24-4.75,.49-8.25,.28-8.19-.24,.14-.85-.85-1.4,1.71-.67,3.1-.67,9.97-1.99,14.39-.75,2.51-1.98,7.92-1.98,7.92,0,0-3.37,7.78-3.88,7.72-2.74-.2-1.89-6.21-.45-9.51-.12-2.57,1.37-8.18,1.37-8.18,0,0,.5-12.01-1.16-12.14-.69,0-1.87,7.33-4.1,14.38-2.09,6.53-5.22,12.8-6.54,12.53-2.22-.33-.66-7.85-.66-7.85,0,0,1.36-5.15,1.69-6.93,.39-2.04,1.07-8.32,1.07-8.32,0,0,1.4-21.9-.18-21.84-1.56,.06-5.54,1.92-6.09,3.24-.55,1.32-.3,4.29-.85,5.61-.55,1.32-2.36,2.57-3.98,2.04-1.65-.53-1.4-7.99-1.4-7.99,0,0,.24-6.01,2.41-9.64Z" style="fill:#f9af79; fill-rule:evenodd;"/><path d="M615.44,1233.37s-19.13,58.59-27.31,61.49c-2.2,.72-14.42,3.83-16.39,8.51l-.14,.47c-.63,2.96,1.87,5.68,4.89,5.68h38.87s5.51-26.33,7.71-37.88c0,0,11.53-28.3,10.25-30.82-1.28-2.57-17.89-7.45-17.89-7.45Z" style="fill:#0e2952; fill-rule:evenodd;"/><path d="M473.33,1309.44l-6.42-20.58s-13.46,5.81-20.2,4.82c-6.74-.93-19.9-4.82-19.9-4.82-26.89,8.98-48.91,13.33-44.92,20.58h91.44Z" style="fill:#0e2952; fill-rule:evenodd;"/><path d="M219.44,835.48c-5.62,2.23-10.95,2.14-16.08-.97,3.85,5.71,12.12,5.22,16.08,.97Z" style="fill:#f48661; fill-rule:evenodd;"/><path d="M470.97,612.15s26.15,3.63,33.03,8.71c7.73,5.68,31.74,32.26,31.74,32.26,0,0-49.95,143.06-48.02,168.52,1.94,25.47,7.43,63.22,7.43,63.22,0,0-97.71,6.2-134.44-8.32,0,0,12.28-57.8,12.28-72.91s6.52-166.61,11.15-174.52c4.65-7.92,13.99-12.4,31.72-16.3,17.72-3.89,55.11-.66,55.11-.66Z" style="fill:#6d96ce; fill-rule:evenodd;"/><path d="M463.84,571.31l6.46,42.36s-23.63,50.47-37.76,46.12c-11.83-3.69-4.54-48.3-4.54-48.3,0,0,6.46-24.01,4.53-36.02-1.95-11.95,31.31-4.15,31.31-4.15Z" style="fill:#f9af79; fill-rule:evenodd;"/><path d="M432.54,575.47c-1.95-11.95,31.31-4.15,31.31-4.15l.53,3.49c-.98,2.38-2.15,4.42-3.62,5.94-7.41,7.91-19.03,12.73-29.05,13.06,.99-6.46,1.62-13.39,.83-18.35Z" style="fill:#ed7d57; fill-rule:evenodd;"/><path d="M469.28,511.4c.94-.33,7.53,48.24-4.97,61.63-12.51,13.33-36.88,17.75-45.63,7.19-4.32-5.19-12.95-19.8-6.89-36.27,6.15-16.7,6.39-33.76,17.16-41.39,19.43-13.73,40.32,8.84,40.32,8.84Z" style="fill:#f9af79; fill-rule:evenodd;"/><path d="M421.87,482.1c37.22-10.84,108.23,47.75,60.14,79.69-13.73,10.56-15.76,25.36-15.76,25.36l-2.19-6.4c-1.6-4.75-2.26-9.83-1.73-14.85,.33-2.96,.98-6.2,2.24-8.9,3.29-7-7.09-11.68-10.02-17.55-2.23-4.49-2.34-14.84-5.86-22.23l-4.22-5.75s-9.73-7.52-19.25-5.35c-9.52,2.12-25.53-20.4-3.35-24.02Z" style="fill:#20386f; fill-rule:evenodd;"/><path d="M455.21,548.09c-.1,5.93,2.62,10.82,6.05,10.82,3.46,.06,6.34-4.68,6.42-10.63,.1-5.94-2.6-10.75-6.06-10.82-3.46-.07-6.32,4.69-6.42,10.63Z" style="fill:#f9af79; fill-rule:evenodd;"/><path d="M568.19,704.39l-43.72,34.12s-19.3-18.47-29.02-38.99c-9.81-20.72-1.19-81.23,9.25-78.45,23.37,6.34,63.49,83.33,63.49,83.33Z" style="fill:#466fb5; fill-rule:evenodd;"/><path d="M440.3,544.5c2.05,.47,5.47-7.29,.48-8.44-2.68-.6-3.84,7.65-.48,8.44Z" style="fill:#20386f; fill-rule:evenodd;"/><path d="M417.68,538.92c-2.06-.48-1.88-8.95,3.13-7.81,2.67,.61,.26,8.6-3.13,7.81Z" style="fill:#20386f; fill-rule:evenodd;"/><path d="M440.64,528.48c-3.35-.64-3.85,2.13-1.6,3.42,.66,.39,13.52,6.12,13.11,5.15-.76-1.99-5.18-7.36-11.51-8.57Z" style="fill:#20386f; fill-rule:evenodd;"/><path d="M425.67,523.82c3.34,.72,2.76,3.48,.18,3.78-1.21,.14-14.96,.38-13.9-.59,1.75-1.58,7.64-4.54,13.72-3.19Z" style="fill:#20386f; fill-rule:evenodd;"/><path d="M416.44,555.52c5.27,5.83,6.35,2.41,4.33,1.63-6.72-2.59,1.18-2.45,6.7-13.46,.56-1.16-.73-1.79-1.34-.9-.4,.62-1.63,3.03-2.13,3.67-5.98,7.8-9.25,7.18-7.56,9.06Z" style="fill:#ed7d57; fill-rule:evenodd;"/><path d="M417.31,564.79c4.46,9.03,11.65,3.36,17.3,3.24-14.56-4.05-18.27-5.66-17.3-3.24Z" style="fill:#ed7d57; fill-rule:evenodd;"/><path d="M638.23,993.82c-26.92,105.18,150.54,133.88,96.15-10.15-5.1-13.5-8.33-13.25-12.68-27.54-23.32-35.29-83.93-30.39-83.48,37.69Z" style="fill:#20386f; fill-rule:evenodd;"/><path d="M616.29,1305.26l17.13,8.88s10.25-13.35,19.41-29.47c6.4-11.29,12.29-23.95,13.73-34.32,3.5-25.2,30.17-66.59,27.38-73.63-2.77-7.06-55.64-19.25-55.64-19.25,0,0-10.33,70.77-17.21,116.52-2.01,13.35-3.71,24.57-4.79,31.27Z" style="fill:#f9af79; fill-rule:evenodd;"/><path d="M616.29,1305.26l17.13,8.88s10.25-13.35,19.41-29.47c-7.13-.53-19.52-2.68-31.74-10.68-2.01,13.35-3.71,24.57-4.79,31.27Z" style="fill:#6d96ce; fill-rule:evenodd;"/><path d="M655.21,1173.63s21.64,30.54,34.77,73.47c3.08,10.11,13.58,22.71,24.21,33.89,10.31,10.86,20.73,20.4,24.59,25.09l17.44-8.4s-6.12-17.59-15.19-33.56c-3.39-5.94-7.16-11.64-11.16-16.15-5.57-6.22-3.74-84.78-9.26-89.95-5.54-5.18-65.4,15.6-65.4,15.6Z" style="fill:#f9af79; fill-rule:evenodd;"/><path d="M704.32,1033.54l-.07,.05,.07-.05Z" style="fill:#f9af79; fill-rule:evenodd;"/><path d="M659.58,1060.53l44.66-26.95c-.25-.1-1.16-1.45-4.49-11.1-1.42-4.13-2.19-7.69-2.56-10.53-.04-.28-.06-.56-.1-.83-.46-4.12-.13-6.49-.13-6.49l-9.78,3.54-18.09,6.55c.21,4.59-.42,7.82-1.4,10.03-2.37,5.39-6.77,5.42-6.89,5.42l-1.23,30.36Z" style="fill:#f9af79; fill-rule:evenodd;"/><path d="M667.7,1024.76c17.49,1.49,27.32-9.91,29.5-12.8,.33-.42,.48-.65,.48-.65,0,0-.19-.06-.58-.17-1.43-.42-5.27-1.59-9.91-2.95l-18.09,6.55c.21,4.59-.42,7.82-1.4,10.03Z" style="fill:#ed7d57; fill-rule:evenodd;"/><path d="M666.84,1018.49s38.83,4.26,39.64-22c-3.12-24.84-2.99-34.8-20.36-40.62-26.87-2.34-33.22,7.34-34.8,16.23-4.95,27.75,4.57,45.21,15.52,46.4Z" style="fill:#f9af79; fill-rule:evenodd;"/><path d="M739.28,929.31c.54-1.21,.92-2.01,.92-2.01-.4,.56-.71,1.24-.92,2.01Z" style="fill:#d05627; fill-rule:evenodd;"/><path d="M654.33,1032.81s-37.24-28.61-41.22-38.09c-3.97-9.48-21.08-44.16-25.49-47.68,0,0-9.26-1.2-10.58,5.22-1.33,6.41,8.82,44.46,15.88,55.94,7.08,11.48,40.94,50.43,52.06,56.07l9.35-31.45Z" style="fill:#f9af79; fill-rule:evenodd;"/><path d="M563.81,929.5c.62,3.31,1.97,6.88,3.56,8.72,2.09,2.45,5.4,7.37,7.49,10.55,1.35,1.97,2.21,3.45,2.21,3.45l10.57-5.17s.24-17.92-6.76-21.73c-.24-.12-.37-.25-.61-.25-2.95-1.6-5.78-2.7-8.23-3.44-3.31-.86-5.89-.98-7.37-.13-1.34,.74-1.6,4.3-.86,8Z" style="fill:#f9af79; fill-rule:evenodd;"/><path d="M618.63,1224.43s38.21,8.01,56.42,5.55c24.53-3.33,46.28-3.88,69.24-16.27,0,0-12.2-60.6-12.95-63.55-1.08-4.24-8.88-36.79-16.09-66.92-6.58-27.55-12.68-53.07-12.68-53.07,0,0-18.18,12.93-28.81,8.36-10.59-4.57-9.23-9.71-9.23-9.71,0,0-6.94-2.81-10.2-1.77-3.24,1.02-12.47-4.21-12.47-4.21,0,0-10.2,7.88-10.58,24.81-.07,2.49,.08,5.21,.53,8.11l7.36,8.47s-16.62,101.48-20.53,160.18Z" style="fill:#6d96ce; fill-rule:evenodd;"/><path d="M587.92,1326.3h51.16s.97-8.33-.21-15.43c-.15-.87-.59-1.65-1.27-2.33-2.99,1.01-7.39,1.72-12.29-.03-4.01-1.45-6.98-3.64-9.04-5.63-.53,.5-11.1,10.58-15.98,10.58s-12.66,2.41-12.36,12.84Z" style="fill:#1d2b5b; fill-rule:evenodd;"/><path d="M714.19,1280.99c10.31,10.86,20.73,20.4,24.59,25.09l17.44-8.4s-6.12-17.59-15.19-33.56c-3.14,4.86-11.31,14.85-26.84,16.86Z" style="fill:#6d96ce; fill-rule:evenodd;"/><path d="M734.99,1301.57s.64,11.09-3.06,12.56c-3.69,1.49-10.6,5.13-10.6,12.17h25.63s17.67-8.68,20.02-12.38c2.37-3.69-11.78-19.45-11.78-19.45,0,0-8.68,9.6-20.21,7.11Z" style="fill:#1d2b5b; fill-rule:evenodd;"/><path d="M692.6,1121.08s-11.22-2.09-15.61,.77c-4.38,2.88-5.68,7.38-2.52,9.21,9.91,5.76,19.93-.6,19.93-.6l-1.81-9.38Z" style="fill:#f9af79; fill-rule:evenodd;"/><path d="M702.1,1033.69s34.57,7.32,48.18,61.03c1.33,5.26-.04,10.86-3.67,14.9-6.28,6.94-20.07,17.1-52.21,20.84-3.5,.41-3.98-8.5-3.98-8.5,.34,.71,21.84-13.86,30.96-21.71,1.66-1.41,1.6-4.38,.41-6.21-3.1-4.71-8.27-12.86-10.01-17.04-2.56-6.09-19.34-40.54-9.68-43.31Z" style="fill:#f9af79; fill-rule:evenodd;"/><path d="M702.55,1030.18s20.32,1.44,36.89,23.54c0,0-5.6,20.32-31.92,25.75,0,0-16.22-36.59-4.96-49.28Z" style="fill:#6d96ce; fill-rule:evenodd;"/><path d="M679.18,986.8c1.93,.24,4.31-7.18-.36-7.75-2.5-.3-2.79,7.34,.36,7.75Z" style="fill:#20386f; fill-rule:evenodd;"/><path d="M654.87,984.27c-1.93-.24-2.56-8,2.12-7.43,2.5,.3,1.05,7.83-2.12,7.43Z" style="fill:#20386f; fill-rule:evenodd;"/><path d="M679.98,970.86c-3.11-.27-3.32,2.31-1.14,3.28,.63,.29,12.94,4.31,12.47,3.47-.88-1.74-5.42-6.23-11.33-6.75Z" style="fill:#20386f; fill-rule:evenodd;"/><path d="M661.22,968.05c3.12,.35,2.85,2.92,.52,3.44-1.09,.24-13.63,1.77-12.76,.78,1.45-1.61,6.56-4.87,12.24-4.22Z" style="fill:#20386f; fill-rule:evenodd;"/><path d="M660.54,997.55c6.95,1.97,6.12-1.23,4.17-.84-6.5,1.27-.27-2.49-1.35-13.75-.13-1.17-1.45-1.03-1.48-.05-.02,.69,.21,3.17,.13,3.91-.85,8.98-3.69,10.1-1.46,10.74Z" style="fill:#ed7d57; fill-rule:evenodd;"/><path d="M658.8,1002.66c9.05,17.34,18.8,1.78,16.12,1.32-13.69-2.33-17.23-3.44-16.12-1.32Z" style="fill:#fff; fill-rule:evenodd;"/><path d="M710.11,976.03c2.69,.65,4.01,4.72,2.95,9.1-1.05,4.37-4.08,7.4-6.77,6.76-2.68-.65-4-4.72-2.95-9.1,1.05-4.37,4.08-7.4,6.77-6.76Z" style="fill:#f9af79; fill-rule:evenodd;"/><path d="M911.39,611.52s19.85,16.91,1.64,36.37c0,0,15.18,1.48,20.3-2.71,0,0-1,2.04-1.95,2.97,0,0,16.97,.61,23.97-4.69,7-5.29,2.51-92.07-44.57-82.36,0,0-39.9-3.02-36.19,43.16,3.74,46.16-11.34,46.16-11.34,46.16,0,0,4.19,2.06,6.22,2.06,0,0,2.95-1.13,3.54-2.76,0,0-.59,2.57-1.34,3.38,0,0,16.26,1.54,24.38-4.59,8.12-6.14,17.64-27.47,15.34-37Z" style="fill:#20386f; fill-rule:evenodd;"/><path d="M851.58,712.75h108.77c-7.78-19.49-18.93-33.59-27.4-35.33-4.5-1.19-12.17-17.49-12.06-43.77l-2.04,.4-34.16,6.77s.77,10.75,.8,20.89c.03,8.44-.43,17.03-2.35,18.03-2.45,.22-4.69,.67-4.69,.67,0,0-18.53,13.01-26.88,32.34Z" style="fill:#f9af79; fill-rule:evenodd;"/><path d="M884.71,640.83s.77,10.75,.8,20.88c19.12-.53,29.22-17.97,33.36-27.64l-34.16,6.77Z" style="fill:#ed7d57; fill-rule:evenodd;"/><path d="M922.39,630.34s10.02-15.83,12.42-29.36c1.73-9.67-3.19-45.48-39.2-40.33,0,0-10.45,1.03-20.27,7.67-7.83,5.27-19.11,16.67-6.48,47.92l3.26,10.56,50.27,3.53Z" style="fill:#20386f; fill-rule:evenodd;"/><path d="M878.33,650.42s45.21,.74,45.24-27.43c.05-28.17,5.9-47.05-22.98-48.72-28.88-1.66-34.5,9.09-36.8,18.48-2.31,9.4,2.76,56.75,14.53,57.67Z" style="fill:#f9af79; fill-rule:evenodd;"/><path d="M879.99,573.58s12.38,33.05,31.4,37.94c19.01,4.89,27.24-.2,27.24-.2,0,0-14.57-11.58-17.6-31.8,0,0-31.69-21.67-41.04-5.94Z" style="fill:#20386f; fill-rule:evenodd;"/><path d="M883.06,576.26s-9.24,7.38-11.5,14.55c-2.26,7.17-3.28,21.95-7.57,21.44,0,0-9.33-22.47,1.15-35.18,11.12-13.48,17.92-.82,17.92-.82Z" style="fill:#20386f; fill-rule:evenodd;"/><path d="M881.34,577.37s8.83,34.62,32.81,45.7c0,0-23.98-21.27-26.02-44.12-2.04-22.85-6.79-1.59-6.79-1.59Z" style="fill:#20386f; fill-rule:evenodd;"/><polygon points="949.2 1253.97 936.55 1307.25 917.61 1307.14 916.91 1253.97 949.2 1253.97" style="fill:#f9af79; fill-rule:evenodd;"/><polygon points="789.84 1256.25 753.85 1307.25 739.83 1289.24 761.49 1249.23 789.84 1256.25" style="fill:#f9af79; fill-rule:evenodd;"/><path d="M745.54,1275.26l18.53,.57,20.07,.61s46.33-51.6,72.33-134.3c.61-1.92,1.25-3.86,1.93-5.84,14.22-41.46,43.71-93.54,59.25-140.65,2.47-7.51,4.69-14.57,6.68-21.26,.64-2.14,1.26-4.24,1.85-6.31,11.45-39.79,14.77-65.91,17.83-93.84l-112.22,.91s-18.11,190.6-86.24,400.11Z" style="fill:#223f81; fill-rule:evenodd;"/><path d="M847.49,810.66c.28,53.4-7.83,76.31-7.83,76.31,0,0,48.04,24.41,105.14,6.44,.67-.21,47.28-10.85,47.28-10.85-.96-2.16-9.45-38.15-10.39-40.13-12.06-25.88-21.21-37.24-22.64-45.2-2.65-14.86-2.71-30.23-1.38-44.73,3.48-38.39,13.84-70.26,13.84-70.26-15.56-3.54-30.13-9.76-46.32-15.83-3.72,4.64-15.11,9.49-24.99,9.27-11.37-.25-15.06-5.12-14.47-10.43-12.13,6.75-21.79,13.12-21.79,13.12-10.3,17.89-31.19,35.27-32.7,62.72-.38,6.75,16.25,68.08,16.26,69.58Z" style="fill:#e9f0f9; fill-rule:evenodd;"/><path d="M937.19,1304.27s-1.53,10.55,2.41,21.84c0,0,3.1,14.13-10.81,14.39-13.92,.26-17.33-1.05-15.76-9.72,1.58-8.66,4.58-23.65,4.58-23.65l19.58-2.87Z" style="fill:#f9af79; fill-rule:evenodd;"/><path d="M911.2,1348.89c8.84,16.69,21.45,15.49,30.47,0,1.25-6.27-1.51-19.64-1.96-22.21-.03-.19-.06-.33-.09-.43,0-.09-.02-.14-.02-.14-15.75,14.43-25.61-.38-25.61-.38,0,.02-.02,.05-.03,.07-2.31,5.67-2.8,20.87-2.76,23.08Z" style="fill:#0e2952; fill-rule:evenodd;"/><path d="M706.3,1332.2s25.65-28.48,33.53-42.96l19.08,9.76-42.64,40.05-9.98-1.31v-5.54Z" style="fill:#f9af79; fill-rule:evenodd;"/><path d="M690,1348.89h32.27c4.75,0,8.55-7.88,13.67-18.12,2.09-4.19,6.8-6.5,11.62-7.77l-.12,25.88h7.45l6.85-27.37c4.55-8.35,.36-15.93-2.84-22.52-3.71,0-13.72,2.54-32.67,23.89-6.23,7.01-13.11,9.51-19.93,9.31-.09,.06-.19,.1-.28,.15-15.75,7.09-16.01,16.54-16.01,16.54Z" style="fill:#0e2952; fill-rule:evenodd;"/><path d="M764.07,1275.83l20.07,.61s46.33-51.6,72.33-134.3c.61-1.92,1.25-3.86,1.93-5.84,14.22-41.46,43.71-93.54,59.25-140.65,2.47-7.51,4.69-14.57,6.68-21.26,.64-2.14,1.26-4.24,1.85-6.31l-16.53-12.54s-49.61,80.34-64.97,155.95c-13.34,65.67-66.77,144.69-80.61,164.34Z" style="fill:#20386f; fill-rule:evenodd;"/><path d="M907.92,1118.52c-.28,36.76,1.58,121.29,6.36,156.29h17.77c9.82,0,14.72-.14,14.72-.14,12.01-60.85,20.56-111.19,26.78-154.58,5.1-35.6,9.64-66.12,13.13-92.38,3.52-26.45,5.95-48.59,6.83-67.3,.13-2.95,.23-5.82,.29-8.6,.05-2.8,.06-5.5,.04-8.14l-96.95-9.46c1.22,64.43,11.18,162.94,11.02,184.31Z" style="fill:#223f81; fill-rule:evenodd;"/><path d="M932.05,1274.81c9.82,0,14.72-.14,14.72-.14,12.01-60.85,20.56-111.19,26.78-154.58,5.1-35.6,9.64-66.12,13.13-92.38,3.52-26.45,5.95-48.59,6.83-67.3l-35.58,20.92s22.71,8.01,14.05,68.65c-8.66,60.65-27.87,216.23-39.93,224.82Z" style="fill:#20386f; fill-rule:evenodd;"/><path d="M927.48,959.81s6.83,24.68,30.46,21.53c23.63-3.14,57.23-17.32,57.23-17.32,0,0-10.1-31.91-22.66-73.82-15.2-50.75-18.99-122.07-27.85-163.34-2.49-11.56-19.22-15.31-19.85-22.23l-19.61-38.03s-29.23,65.6-30.8,82.14c-1.58,16.54,33.08,211.08,33.08,211.08Z" style="fill:#6d96ce; fill-rule:evenodd;"/><path d="M944,797.43c1.05,26.79,10.42,72.47,48.06,92.55,.15,.07,.3,.15,.45,.21-15.2-50.75-15.01-99.43-23.88-140.7-20.23-4.21-25.21,33.21-24.64,47.94Z" style="fill:#466fb5; fill-rule:evenodd;"/><path d="M985.34,856.9s-16.89-3.65-21.23,1.16c-4.34,4.81-6.77,12.48-2.44,15.17,4.34,2.7,16.89-4.69,21.4-1.71,3.23,2.13,4.26,7.56,7.5,5.67,3.25-1.91,6.67-14.34,6.67-14.34l-11.92-5.95Z" style="fill:#f9af79; fill-rule:evenodd;"/><path d="M925.2,666.59s45.56,2.01,56.5,12.17c10.95,10.17,76.51,88.74,77.59,109.32,1.09,20.59-57.43,79.1-57.43,79.1,0,0-16.26-3.92-23.3-14.15,0,0,36.3-64.73,34.13-67.55-2.16-2.82-63.66-53.21-68.69-42.04-4.35,9.64-18.8-76.86-18.8-76.86Z" style="fill:#6d96ce; fill-rule:evenodd;"/><path d="M751.9,788.98s52.01,17.35,58.52,15.89c6.5-1.44,15.79-71.92,20.81-96.08,6.46-31.11,31.12-37.3,31.12-37.3l23.39-6.25s-26.78,66.16-27.57,79.55c-.79,13.38-3.15,218.95-3.15,218.95,0,0,1.58,9.46-16.54,5.51-18.11-3.93-22.84-7.88-22.84-7.88,0,0,7.85-57.47,11.54-108.48-18.45-3.15-77.8-33.23-77.8-33.23-9.21-14.46,2.53-30.7,2.53-30.7Z" style="fill:#6d96ce; fill-rule:evenodd;"/><path d="M890.01,631.36c-6.51,1.4-10.26,1.49-16.91,1.27-2.67-.1,6.48,18.38,17.47-.3,.27-.44-.06-1.07-.56-.96Z" style="fill:#eb795b; fill-rule:evenodd;"/><path d="M889.25,594.5c-3.12,.86-2.43,3.36,.03,3.48,26.24,1.26,7.71-5.66-.03-3.48Z" style="fill:#20386f; fill-rule:evenodd;"/><path d="M873.19,595.31c3.2,.55,2.76,3.1,.33,3.47-25.98,3.91-8.24-4.85-.33-3.47Z" style="fill:#20386f; fill-rule:evenodd;"/><path d="M877.68,624l-.16-.03c-2.79-.74-4.27-1.19-4.75-2.28-.44-.99,.09-2.06,1.07-4.02,1.08-2.15,2.73-5.43,4.26-10.87,.11-.39,.53-.61,.92-.51,.4,.11,.63,.51,.52,.93-1.57,5.57-3.25,8.93-4.36,11.15-.64,1.28-1.2,2.39-1.04,2.73,.22,.49,2.19,1.02,3.78,1.44,.39,.11,.63,.52,.52,.93-.09,.33-.41,.56-.75,.54Z" style="fill:#eb795b; fill-rule:evenodd;"/><path d="M868.4,612.58c-1.84,.17-3.94-6.71,.54-7.12,2.38-.22,2.48,6.85-.54,7.12Z" style="fill:#20386f; fill-rule:evenodd;"/><path d="M893.42,610.69c-1.85,.16-3.94-6.72,.54-7.12,2.39-.22,2.48,6.85-.54,7.12Z" style="fill:#20386f; fill-rule:evenodd;"/><path d="M889.65,631.77c2.72,1.96-12.2,5.14-15.28,3.28-.33-.19-1.52-1.38-1.28-1.85,.23-.47,2.11-.09,2.6-.07,4.78,.24,9.14-.17,13.95-1.36Z" style="fill:#fff; fill-rule:evenodd;"/><path d="M2035.06,1164.59c73.34-112.83,120.79-237.89,142.33-375.18-88.24-10.99-169.71-21.09-244.43-30.27-137.14-66.43-256.04-82.23-356.67-47.43-206.48,69.43-422.7,205.38-648.67,407.9-56.69,57.94-120.45,112.01-191.26,162.21,90.1,90.08,256.07,41.9,497.88-144.54,38.57-26.93,54.93-25.86,49.08,3.22-133.13,85.51-267.71,199.94-405.16,218.06-376.3-78.25-598.29-72.24-665.98,18.07-2.84,38.8,143.43,79.58,438.82,122.34,60.4,8.75,164.28,28.51,268.04,42.83,98.71-25.41,200.03-55.89,301.09-89.35,64.23-21.25,126.69-35.59,187.16-44.64,115.52-81.05,239.6-168.2,372.25-261.45,51.06-24.75,136.23-18.68,255.53,18.24Z" style="fill:#eac5a7; fill-rule:evenodd;"/><path d="M1989.27,731.85l169.45,21.56c12.96,1.65,21.6,14.53,19.43,27.4l-67.37,398.25c-2.17,12.88-14.53,21.64-27.41,19.44l-168.63-28.69c-12.87-2.19-21.62-14.52-19.43-27.4l66.55-391.12c2.19-12.87,14.44-21.08,27.4-19.44Z" style="fill:#fff; fill-rule:evenodd;"/><path d="M2068.32,698.2l193.51,8.48c49.28,93.58,83.82,231.94,97.15,448.68,1.61,26.36,2.25,50.47,2.08,72.84l-8.95,55.84-378.53-69.44,94.74-516.4Z" style="fill:#466fb5; fill-rule:evenodd;"/><path d="M247.65,1209.86s16.72,7.27,23.41,21.44c5.56,11.79,7.93,36.36,23.41,46.1,15.48,9.74,67.07-11.47,87.14-7.45,20.07,4.01,81.98-8.68,78.95-29.65-3.5-24.24-18.53-51.5-68.63-41.73-41.13,8.03-124.4-18.63-124.4-18.63l-19.88,29.92Z" style="fill:#fff; fill-rule:evenodd;"/><path d="M273.01,1152.26s-18.11,1.03-25.91,10.82c-7.8,9.8-31.42,3.91-33.59,13.62-2.17,9.71,1.88,29.08,26.42,32.76,24.55,3.69,42.23,2.96,49.1-9.09,6.86-12.05-.87-51.54-16.02-48.11Z" style="fill:#fff; fill-rule:evenodd;"/><path d="M282.72,1236.98s-28.72,37.63-57.29,46.05c0,0-17.85-6.77-20.17-.32-2.32,6.44,7.32,15.74,20.12,14.98,12.8-.75,69.93-22.22,72.1-25.75,2.17-3.52-14.76-34.97-14.76-34.97Z" style="fill:#fff; fill-rule:evenodd;"/><path d="M311.5,1236.98s-26.69,65.92-31.1,70.22c-4.41,4.31-16.02,2.01-16.02,10.89s19.78,7.45,26.37,5.74c6.59-1.72,50.16-56.18,50.16-56.18l-29.41-30.68Z" style="fill:#fff; fill-rule:evenodd;"/><path d="M390.92,1253.59s23.96,38.45,70.79,43.61c0,0,7.76-1.06,10.84,2.09,3.08,3.16,14.26,23.45,23.57,20.12,9.31-3.34,2.64-15.38-1.84-19.62-4.48-4.23-9.87-19.54-12.48-21-2.61-1.48-18.96-13.71-18.59-24.98,.37-11.28-7.78-34.99-34.92-33.96-27.14,1.02-37.37,33.75-37.37,33.75Z" style="fill:#fff; fill-rule:evenodd;"/><path d="M396.94,1266.25s40.44,20.43,83.15,.53c0,0,6.06-4.94,10.34-3.83,4.28,1.1,24.37,12.63,30.59,4.95,6.22-7.69-5.73-14.51-11.75-15.82-6.03-1.29-18.58-11.57-21.57-11.48-3,.1-23.32-1.87-28.86-11.7-5.53-9.84-24.8-25.85-47.47-10.9-22.67,14.96-14.42,48.24-14.42,48.24Z" style="fill:#fff; fill-rule:evenodd;"/><path d="M412.28,1196.55s50.11,1.51,65.34-11.44c18.7-15.92,7.31-33.05,7.31-33.05,0,0,14.45,2.5,19.85,17.89,6.37,18.17-12.72,60.1-56.61,50.85l-35.89-24.24Z" style="fill:#fff; fill-rule:evenodd;"/><path d="M267.86,1225.93s25.32-7.41,41.95-36.07c0,0,10.89,.86,12.32,4.01,0,0-18.7,33.79-49.19,42.12,0,0-8.32-1.52-5.07-10.06Z" style="fill:#6d96ce; fill-rule:evenodd;"/><path d="M270.48,1170.32s15.74,51.76,45.91,55.34c30.17,3.58,14.22-29.74,1.77-38.64-12.44-8.89-44.44-36.45-47.68-16.7Z" style="fill:#eac5a7; fill-rule:evenodd;"/><path d="M249.17,1175.34c1.48,0,2.69-1.72,2.69-3.83s-1.21-3.84-2.69-3.84-2.69,1.72-2.69,3.84,1.21,3.83,2.69,3.83Z" style="fill:#9db2d9; fill-rule:evenodd;"/><path d="M214.3,1183.13c2.11,0,3.83-2.46,3.83-5.46s-1.72-5.46-3.83-5.46-3.83,2.46-3.83,5.46,1.72,5.46,3.83,5.46Z" style="fill:#9db2d9; fill-rule:evenodd;"/></svg>