<?xml version="1.0" encoding="UTF-8"?><svg id="a" xmlns="http://www.w3.org/2000/svg" viewBox="0 0 1997.72 1528.83"><path d="M963.84,0c-228.68,0-325.03,163.62-490.12,290.82C255.22,459.16,36.73,349.57,1.75,918.37c-31.14,506.25,357.41,54.81,905.24,236.15,547.84,181.35,1105.8,254.38,940.24-332.36C1681.66,235.44,1495.2,0,963.84,0Z" style="fill:#e0e8f5; fill-rule:evenodd;"/><path d="M1353.86,924.29c35.61,32.51,20.13,65.05-6.19,125.45-26.32,60.42-30.98,283.47-30.98,283.47l21.68-3.1s-3.11-229.24,26.32-291.2c29.43-61.96,41.85-92.93,68.17-72.79,26.32,20.14-79-41.82-79-41.82Z" style="fill:#b0c2e4; fill-rule:evenodd;"/><path d="M1334.29,882.18c4.31-19.28,30.02-40.14,64.38-57.84-5.13,28.44-21.47,74.93-4.55,84.47,22.87,12.85,2.22-52.05,11.05-87.73,32.27-15.76,71.11-28.63,106.83-35.04-.07,.14-.1,.26-.14,.4-20.14,51.12-46.46,71.25-35.62,78.98,8.14,5.83,34.71-53.21,69.81-83.48,26.32-1.4,48.61,2.16,61.77,12.6,20.38,16.12,34.05,30.43,13.57,79.54-11.69,8.36-26.87,14.35-44.47,16.12-46.46,4.65-68.17,6.19-35.63,21.68,15.93,7.58,42.6-.42,64.27-5.31-7.01,12.94-15.65,27.58-26.15,44.27-6.66,10.58-13.98,19.76-21.77,27.7-14.98,2.88-28.03,2.9-34.94-.06-21.67-9.29-77.43-38.72-91.38-26.33-13.64,12.13,103.27,19.81,95.17,50.63-56.68,32.65-121.52,17.11-132.97-12.87-15.42-40.26-72.24-49.74-59.22-107.76Z" style="fill:#c4d1eb; fill-rule:evenodd;"/><path d="M1451.45,1102.42c-61.98-46.48-125.46-3.11-158.01,46.46-32.51,49.56-9.3,161.08-9.3,161.08,0,0,12.41,0,12.41-4.64s-34.08-131.66,46.45-188.98c50.39-35.85,86.74-18.58,91.38-1.55,4.65,17.04-20.14,48.02-20.14,48.02l37.2-60.41Z" style="fill:#b0c2e4; fill-rule:evenodd;"/><path d="M1308.93,1006.9c61.98,0,82.11,96.04,65.05,151.79-17.02,55.77-40.27,159.54-40.27,159.54l-15.48-15.48s58.87-145.6,44.91-210.66c-13.95-65.05-48-75.9-54.21-75.9s0-9.29,0-9.29Z" style="fill:#b0c2e4; fill-rule:evenodd;"/><path d="M1360.9,1159.13c4.37-5.78,9.74-10.55,16.3-13.72-.85,4.63-1.91,9.07-3.21,13.28-7.76,25.41-16.79,60.78-24.37,91.76-.65-3.96-1.74-10.08-3.36-19.51-.4-2.24-.68-4.65-.92-7.21,6.08-20.64,11.83-43.13,15.55-64.6Z" style="fill:#b0c2e4; fill-rule:evenodd;"/><path d="M1377.85,1159.59c117.71-49.57,55.69-117.58,159.47-72.66,7.32,3.15,16.21,11.14,25.13,22.13-9.23,2.62-20.41,4.51-32.88,2.65-30.98-4.65-20.14,20.13,31,26.33,9.6,1.17,17.43,2.78,23.93,5.05,24.38,46.77,35.35,108.31-16.21,129.69-10.15,4.23-22.69,6.64-36.67,7.54-15.9-12.63,3.89-85.78-20.65-75.69-23.52,9.7,7.41,62.7,3.18,76.05-23.25-.41-48.99-4.21-73.53-10.3-9.75-5.45-17.19-12.76-19.45-22.37-7.76-32.54,43.34-52.68,44.92-80.55,1.4-25.62-18.77,56.39-72.14,68.46-48.29-22.55-71.14-53.17-16.1-76.34Z" style="fill:#c4d1eb; fill-rule:evenodd;"/><path d="M1293.95,1071.96c12.42-26.33-20.13-32.54-18.55-12.4,1.33,17.85,1.5,61.22-16.79,73.03-31.55-3.43-74.49-16.14-106.96-35.52-.41-2.62,0-5.32,1.37-8.07,13.95-27.88,103.78-51.12,75.89-60.41-22.19-7.41-61.13,36.28-92.47,58.29-18.84-14.3-31.45-31.32-31.45-50.32,0-25.75,31.28-54.87,71.72-68.8,18.19,1.84,35.11,11.79,61.49,26.76,39.01,22.1,29.98-13.64-6.9-34.85,31.85,1.65,63.58,15.25,87,47.74,0,0-2.22,13.9,12.48,35.38,40.09,58.61-6.19,92.83-61.5,90.62,3.14-15.45,16.14-43.26,24.68-61.45Z" style="fill:#c4d1eb; fill-rule:evenodd;"/><path d="M1447.73,1099.79c30.29,23.41,63.93,50.78,105.22,69.36,41.33,18.59,33.06,79.17,33.06,79.17,0,0,6.18-52.31-28.23-70.22-34.43-17.89-57.13-39.24-83.28-43.37-26.19-4.13-40.64-8.26-40.64-8.26,0,0,8.27-16.53,3.45-22.72-4.82-6.19,10.43-3.96,10.43-3.96Z" style="fill:#b0c2e4; fill-rule:evenodd;"/><path d="M1597.01,824.93c-110.82,29.6-192.04,100.51-207.23,117.73-15.15,17.19-15.15,22.03-15.15,22.03l11.73,22.03,5.5-2.76s-8.95-18.58,14.47-42.68c40.37-41.56,89.49-74.36,123.24-88.81,33.73-14.46,67.44-27.53,67.44-27.53Z" style="fill:#b0c2e4; fill-rule:evenodd;"/><path d="M1291.06,1438.45h42.35c30.11,0,54.53-24.41,54.53-54.53v-97.29h-151.41v97.29c0,30.11,24.41,54.53,54.53,54.53Z" style="fill:#9db2d9; fill-rule:evenodd;"/><rect x="1236.52" y="1304.02" width="151.41" height="10.66" style="fill:#fff;"/><rect x="1236.52" y="1323.45" width="151.41" height="6.27" style="fill:#fff;"/><path d="M545.62,1528.83c236.12,0,428.7-24.11,428.7-53.68s-192.58-53.67-428.7-53.67-428.7,24.11-428.7,53.67,192.58,53.68,428.7,53.68Z" style="fill:#c4d1eb; fill-rule:evenodd;"/><path d="M811.66,153.5H1962.26c19.5,0,35.46,15.96,35.46,35.46v169.44c0,19.51-15.96,35.47-35.46,35.47H811.66c-19.5,0-35.46-15.96-35.46-35.47V188.96c0-19.5,15.95-35.46,35.46-35.46Z" style="fill:#c4d1eb; fill-rule:evenodd;"/><path d="M1962.26,153.5h-278.63v240.37h278.63c19.5,0,35.46-15.96,35.46-35.47V188.96c0-19.5-15.96-35.46-35.46-35.46Z" style="fill:#8fa3cf; fill-rule:evenodd;"/><path d="M1775.17,208.17c24.62-24.62,64.54-24.62,89.16,0,22.19,22.2,24.38,56.82,6.56,81.46l50.82,50.81c3.92,3.92,3.92,10.34,0,14.27h0c-3.92,3.92-10.34,3.92-14.26,0l-50.82-50.81c-24.64,17.82-59.27,15.63-81.46-6.56-24.62-24.63-24.62-64.55,0-89.17h0Zm14.98,14.99c-16.35,16.35-16.35,42.85,0,59.2,16.35,16.35,42.86,16.35,59.2,0,16.35-16.35,16.35-42.85,0-59.2-16.35-16.35-42.86-16.35-59.2,0Z" style="fill:#fff; fill-rule:evenodd;"/><path d="M888.08,206.6v88.22c0,20.96-7.69,26.2-19.39,26.2-5.07,0-9.61-.87-12.93-1.92l-2.8,21.14c4.55,1.57,12.06,2.61,18.17,2.61,24.98,0,42.8-10.83,42.8-47.86v-88.39h-25.85Zm101.32-2.09c-35.11,0-57.3,29.52-57.3,69.69s20.09,68.65,55.55,68.65c33.37,0,57.12-23.93,57.12-70.75,0-35.81-18.17-67.59-55.38-67.59h0Zm-.7,21.13c19.74,0,29,22.88,29,47.52,0,27.08-9.96,48.56-29.17,48.56s-29.35-21.66-29.35-48.04c0-24.63,9.26-48.04,29.52-48.04h0Zm75.81,114.77c6.29,.87,15.9,1.75,28.65,1.75,23.93,0,38.96-4.37,48.04-12.58,7.85-6.99,12.23-17.12,12.23-27.6,0-17.12-11.18-29-26.21-32.84v-.7c14.33-5.41,21.49-16.77,21.49-29,0-11-5.07-19.91-13.11-25.33-9.25-6.46-20.78-8.56-37.04-8.56-13.1,0-26.37,1.23-34.06,2.8v132.06h0Zm25.69-114.77c2.27-.53,5.76-.87,11.35-.87,11.53,0,21.48,4.37,21.48,17.64,0,11.01-8.73,18.87-23.4,18.87h-9.43v-35.64h0Zm9.6,54.5c13.28,0,26.56,5.59,26.56,21.14s-11.88,21.48-25.86,21.48c-4.54,0-7.68-.18-10.3-.7v-41.92h9.6Zm67.95,55.03c6.29,3.84,19.74,7.51,33.02,7.51,31.26,0,48.91-17.12,48.91-40.53,0-17.64-9.6-30.05-31.09-39.65-16.42-7.51-23.05-11.88-23.05-21.49,0-7.5,6.11-14.84,19.73-14.84,11,0,19.22,3.31,23.93,5.76l5.42-21.13c-6.29-3.15-16.07-6.11-28.82-6.11-29,0-46.29,16.94-46.29,38.96,0,17.47,12.57,30.04,32.83,38.78,14.86,6.46,21.32,12.23,21.32,21.84s-7.52,16.77-21.85,16.77c-10.82,0-22-3.32-29-7.51l-5.07,21.67Z" style="fill:#fff; fill-rule:evenodd;"/><path d="M554.19,1451.69c.8-6.99-1.77-16.44-.78-27.78,7.68-88.36,24.29-287.94,24.29-287.94,0,0,18.79-158.1,20.24-258.17-20.24-1.79-40.08-5.29-59.65-10.21-42.6-10.86-71.16-28.25-111.75-47.91-22.16,81.64-63.2,231.52-63.2,231.52,0,0,.09,31.94-42.4,31.94-37.28,0-192.19,129.66-222.85,148.93,3.96,9.36,13.99,18.62,18.53,27.88,49.23-40.25,302.85-132.87,302.85-132.87l68.81-174.45s20.67,213.85,4,230.58c-16.69,16.63,29.58,256.28,29.58,268.47,0,1.51,19.49-.29,32.34,0Z" style="fill:#f9af79; fill-rule:evenodd;"/><path d="M483.19,907.18s14.83,236.44,7.41,250.33c-7.41,13.89-12.97,37.05-7.41,95.45,5.55,58.4,22.24,160.46,22.24,160.46l54.7,1.79,22.25-279.06,19.02-258.74,.46-5.48-74.18-55.66-44.49,90.9Z" style="fill:#20386f; fill-rule:evenodd;"/><path d="M130.85,1194.55l24.11,43.57s218.4-71.91,264.24-105.66c17.62-12.94,90.88-190.04,90.88-190.04l57.79-68.6,.6-38.09-124.09-54.52s-45.08,50.74-53.91,71.25c-22.08,51.12-37.08,219.71-37.08,219.71,0,0,1.83-6.52-39.87,4.63-41.73,11.15-182.67,117.75-182.67,117.75Z" style="fill:#1d417f; fill-rule:evenodd;"/><path d="M139.53,1246.53s-14.6-9.45-16.32-14.84c-1.71-5.48,2.42-19.08-3.63-22.2-6.03-3.22-44.61,9.54-50.38,13.89-7.09,5.38-9.86,13.8-8.11,19.38,1.77,5.48,53.1,98.46,63.98,110.28,10.85,11.81,24.34-14.27,16.29-30.53-8.03-16.25,1.31-50.46-1.83-75.98Z" style="fill:#0e2952; fill-rule:evenodd;"/><path d="M556.64,1426.27s-15.41,7.94-20.97,6.81c-5.56-1.23-15.38-11.53-21.08-7.85-5.7,3.68-13.71,43.56-12.8,50.66,1.13,8.88,7.12,15.4,12.83,16.63,5.67,1.23,111.87,2.55,127.49-1.04,15.65-3.59-.38-28.25-18.47-29.29-18.09-1.04-43.21-26.08-67-35.91Z" style="fill:#0e2952; fill-rule:evenodd;"/><path d="M729.44,352.05c-36.83-19.43-67.05-27.67-86.46-13.75-2.64,11.91-4.72,27.91-6.24,47.99-3.88,3.47-8.05,4.48-12.51,3.02-1.5-12.8-3.73-20.92-6.66-24.4-21.51,1.4-22.79,15.44-3.85,42.11-.72,6.5-1.12,11.94-1.2,16.34-20.91-13.61-32.4-41.13-31.8-50.96-7.07-62.37,30.87-73.47,49.76-75.63,26.37-49.34,84.69,24.68,131.82,13.72,7.29,26.35-20.98,45.46-32.86,41.56Z" style="fill:#20386f; fill-rule:evenodd;"/><path d="M569.74,438.76c6.44,2.94,17.34,5.55,20.06,3.89,10.36-6.32,18.71-13.82,22.7-19.02,.09-4.42,.49-9.89,1.22-16.42-19.04-26.8-17.75-40.9,3.87-42.3,2.95,3.48,5.18,11.65,6.69,24.51,4.48,1.47,8.68,.45,12.57-3.04,1.52-20.18,3.62-36.25,6.27-48.22,19.51-13.98,49.87-5.71,86.87,13.82-2.05,11.02-4.65,22.53-7.82,34.54,4.52,8.9-5.12,32.04-21.54,56.74-2.57,16.56-15.2,21.43-37.88,14.58-2.36,5.35-4.34,12.22-4.27,13.11,.11,1.39,1.66,3.26,4.02,5.24h0c-8.71,25.69-39.63,13.2-92.76-37.43Z" style="fill:#f9af79; fill-rule:evenodd;"/><path d="M866.33,672.92c-75.77,75.96-115.83,120.99-182.97,143.58-14.54-12.9-24.24-31.33-29.08-55.31-16.62,37.39-34.06,74.26-52.35,110.61-37.93,12.32-93.71,8.83-167.31-10.5l-8.76-34.08c-5.38-3.85-21.78-3.49-32.77,3.5-34.96-65.77-50.99-126.56-52.27-180.23,49.02-91.55,95.94-160.02,140.75-205.38,17.08-10.81,47.56-15.15,91.43-13.03,49.25,54.42,79.17,69.14,89.75,44.17,15.31,14.19,34.43,35.65,57.35,64.36,16.18,30.29,13.86,91.17-6.96,182.67,44.01-28.75,88.9-56.06,138.61-75.74,5.91,5.04,11.58,13.71,14.58,25.39h0Zm-441.13,123.06c44.76-50.47,68.13-127.36,70.11-230.68-28.95,38.14-58.34,75.25-88.2,111.36,9.97,11.9,15.99,51.68,18.08,119.32Z" style="fill:#6d96ce; fill-rule:evenodd;"/><path d="M654.28,761.19c23.9-56.98,40.51-105.07,49.86-144.25-16.84,84.58-22.46,143.25-16.88,176.01,10.92,4.6,26.32,3.3,48.53-1.54-16.8,10.46-33.82,19.27-52.44,25.09-14.54-12.89-24.24-31.33-29.07-55.31Z" style="fill:#466fb5; fill-rule:evenodd;"/><path d="M425.86,827.21c.45-9.67,.23-20.08-.67-31.22,44.76-50.47,68.13-127.36,70.11-230.68,18.97,102.67-3.52,192.52-67.48,269.54l-1.96-7.63Z" style="fill:#466fb5; fill-rule:evenodd;"/><path d="M639.19,442.96c5.07,5.39,12.92,10.35,23.56,14.89-1.58,3.58-3,7.85-3.73,10.55-10.1-6.15-16.71-14.62-19.82-25.44Z" style="fill:#ed7d57; fill-rule:evenodd;"/><path d="M1463.41,282.63c-65.46-125.24-220.05-173.7-345.29-108.24-113.03,59.08-163.51,190.75-124.15,307.94l-1.74,.91c-7.09,3.71-9.85,12.52-6.15,19.61l24.03,45.98c3.7,7.09,12.52,9.85,19.61,6.15l1.74-.91c73.75,99.21,210.68,132.93,323.71,73.86,125.24-65.46,173.7-220.05,108.24-345.3h0Zm-31.66,16.55c56.33,107.76,14.62,240.77-93.12,297.09-107.76,56.32-240.77,14.62-297.09-93.13-56.32-107.76-14.63-240.77,93.13-297.09,107.75-56.33,240.77-14.63,297.09,93.12Z" style="fill:#9c7357; fill-rule:evenodd;"/><polygon points="986.07 502.85 870.36 563.34 894.39 609.31 1010.11 548.83 986.07 502.85" style="fill:#d0a382; fill-rule:evenodd;"/><path d="M948.55,581l-24.03-45.98c-3.7-7.08-12.52-9.85-19.61-6.15l-105.52,55.15-.16,.08-227.91,119.13-.04,.02-63.13,33-227.95,119.14c-7.08,3.71-9.84,12.53-6.15,19.61l24.03,45.98c3.71,7.09,12.53,9.85,19.61,6.15l105.55-55.16,.14-.07,227.95-119.14,63.13-32.99,.02-.02,227.94-119.14c7.08-3.7,9.85-12.52,6.15-19.61Z" style="fill:#9c7357; fill-rule:evenodd;"/><path d="M396.73,857.45h0c-.67-15.03-3.21-28.06-7.63-39.13,7-10.98,21.7-18.27,28.2-17.05l17.37,21.07c18.82,10.55,33.13,20.51,42.95,29.86-11.46,3.07-20.34,1.73-26.64-3.99,6.46,11.26,9.3,18.31,8.52,21.17-24.59,19.53-41.39,26.62-50.38,21.29-8.89-14.38-13.01-25.45-12.37-33.22Z" style="fill:#f9af79; fill-rule:evenodd;"/><path d="M344.78,693.15c6.78,42.51,22.31,88.66,48.3,137.56,8.37-5.71,29.03-19.22,35.41-15.85-3.92-9.1-2.4-7.73-3.3-18.88-1.52-49.18-5.12-83.63-10.8-103.35-18.15,1.43-41.35,1.6-69.61,.51Z" style="fill:#6d96ce; fill-rule:evenodd;"/><path d="M866.31,672.95c2.45-2.32,11.77-11.75,21.39-20.8,13.85-.61,33.11-13.36,36.35-24.36,1.97-14.86,7.71-20.39-3.7-29.57-4.4-.37-14.28,5.28-24.16,16.88,.58,10.5-10.57,13.81-17.68,17.55-9.09,6.1-2.65,1.4-13,8.13-4.59,3.82-10.95,6.03-13.32,8.17,5.94,5.45,10.99,12.2,14.14,23.99Z" style="fill:#f9af79; fill-rule:evenodd;"/><path d="M650.17,662.02c-39.59-18.56-88.58-35.35-148.84-46.54-.85-16.37-2.87-33.1-6.03-50.18,94.56,23.14,159.39,48.47,194.49,76.01l-39.62,20.71h0Zm-162.84,66.32c7.51,1.88,15.29,4.08,23.36,6.58l-2.54,1.33-29.38,15.35c3.19-7.65,6.04-15.41,8.57-23.26h0Zm58.72,79.42l49.62-25.93c15.61,7.09,28.62,14.54,39.03,22.33-5.82,12.46-11.72,24.85-17.73,37.2-18.54-11.66-42.18-22.87-70.93-33.6h0Zm25.21-104.5l46.1-24.1c-35.05-13.71-73.66-24.22-115.84-31.51-.71,16.98-2.73,33.56-6.06,49.75,20.6,5.19,39.46,10.5,56.57,15.91l19.24-10.05h0Zm119.4-176.96c-36.06-24.1-80.98-42.56-134.77-55.37,10.75-7.78,22.7-14.16,35.88-19.11,35.63,35.39,58.62,44.83,68.97,28.33,12.6,15.31,22.57,30.71,29.93,46.16h0Zm-160.33-32.45c-8.5,11.95-20.04,29.2-25.74,44.41,102.11,25.44,154.28,43.9,198.71,82.11,3.1-15.34,3.16-39.64,1.26-54.86-48.8-34.54-109.23-56.47-174.23-71.66Z" style="fill:#466fb5; fill-rule:evenodd;"/><path d="M688.71,355.58c-10.54-6.31-34.16-.61-28.24,2.79,1.93,1.1,8.91-.46,11.35-.32,4.87,.26,13.3,3.78,16.71,1.65,1.41-.87,1.52-3.31,.18-4.12Z" style="fill:#20386f; fill-rule:evenodd;"/><path d="M704.82,364.96c1.44,3.74,10.28,5.99,14.32,8.73,2.03,1.36,6.68,6.78,8.9,7.05,6.75,.85-8.68-18.03-20.89-19.19-1.75-.15-2.95,1.88-2.34,3.41Z" style="fill:#20386f; fill-rule:evenodd;"/><path d="M669.39,379.39c-3.29-1.1-1.66-14.5,6.33-11.83,4.27,1.43-.93,13.63-6.33,11.83Z" style="fill:#20386f; fill-rule:evenodd;"/><path d="M710.37,393.22c3.31,1.11,10.08-10.55,2.09-13.23-4.26-1.43-7.48,11.43-2.09,13.23Z" style="fill:#20386f; fill-rule:evenodd;"/><path d="M689.87,409.89c-.41-1.46,2.09-1.67,3.64-2.08,5.69-1.46,6.05,1.32,2.58-22.62-.67-4.69-1.56-7.19,.12-7.38,1.57-.15,1.22,1.72,1.99,7.05,3.76,26.06,3.71,22.83-7.01,25.77-.56,.15-1.17-.16-1.32-.73Z" style="fill:#ed7d57; fill-rule:evenodd;"/><path d="M668.22,423.47c-.52-2.91,2.76-1.06,25.08,3.87,6.67,1.51-20.72,20.22-25.08-3.87Z" style="fill:#ed7d57; fill-rule:evenodd;"/></svg>