<?xml version="1.0" encoding="UTF-8"?><svg id="a" xmlns="http://www.w3.org/2000/svg" viewBox="0 0 1939.46 1322.15"><g><path d="M998.44,1239.73c218.89,0,420.32,3.28,580.18,8.76,391.21-223.61,255.75-659.46,115.28-906C1498.41-.63,1036.49-123.95,845.42,149.81c-259.34,371.59-509.52,241.92-644.61,524.13-135.09,282.21,70.06,552.75,217.46,574.55,159.85-5.49,361.29-8.76,580.18-8.76Z" style="fill:#e9eef7; fill-rule:evenodd;"/><ellipse cx="998.44" cy="1280.94" rx="941.02" ry="41.21" style="fill:#d1deed;"/><path d="M1301.9,102.08c235.03,52.36,384.58,268.5,399.24,372.84,6.01,42.82-5.13-57.38-125.02-148.63-107.15-81.54-190.57-96.65-318.04-106.5-90.09-6.96-184.42-18.04-177.72-71.77,5.3-42.43,69.8-79.75,221.54-45.94Z" style="fill:#fff; fill-rule:evenodd;"/><path d="M930.11,252.72c-3.37,46.22-10.18,52.59-54.26,56.16,44.07,3.55,50.89,9.94,54.26,56.16,3.37-46.22,10.19-52.6,54.26-56.16-44.07-3.57-50.89-9.94-54.26-56.16h0Zm179.14,121.91c-1.79,24.68-5.43,28.09-28.96,29.99,23.53,1.9,27.17,5.31,28.96,29.98,1.81-24.67,5.44-28.08,28.97-29.98-23.53-1.9-27.17-5.31-28.97-29.99h0Zm-78.45-189.94c-1.82,25-5.51,28.45-29.34,30.37,23.83,1.93,27.52,5.37,29.34,30.37,1.82-25,5.5-28.44,29.33-30.37-23.83-1.93-27.52-5.38-29.33-30.37Z" style="fill:#fff; fill-rule:evenodd;"/><path d="M865.15,1010.58c2.73,37.45,8.25,42.62,43.96,45.5-35.7,2.88-41.23,8.05-43.96,45.5-2.73-37.46-8.25-42.62-43.96-45.5,35.71-2.88,41.23-8.05,43.96-45.5h0Zm-145.14,98.77c1.46,20,4.41,22.76,23.47,24.3-19.06,1.54-22.01,4.29-23.47,24.29-1.45-20-4.4-22.75-23.47-24.29,19.07-1.54,22.01-4.3,23.47-24.3h0Zm63.56-153.88c1.47,20.25,4.46,23.04,23.77,24.6-19.31,1.56-22.29,4.35-23.77,24.6-1.47-20.25-4.46-23.05-23.77-24.6,19.31-1.56,22.3-4.36,23.77-24.6Z" style="fill:#fff; fill-rule:evenodd;"/><path d="M1435.53,918.27c-2.09,28.67-6.32,32.63-33.66,34.84,27.34,2.21,31.57,6.16,33.66,34.84,2.09-28.67,6.32-32.63,33.65-34.84-27.33-2.21-31.56-6.16-33.65-34.84h0Zm111.12,75.62c-1.12,15.31-3.37,17.42-17.97,18.6,14.6,1.18,16.85,3.29,17.97,18.6,1.12-15.3,3.38-17.42,17.97-18.6-14.59-1.18-16.85-3.29-17.97-18.6h0Zm-48.66-117.81c-1.13,15.5-3.42,17.65-18.21,18.83,14.79,1.2,17.07,3.33,18.21,18.84,1.12-15.51,3.41-17.64,18.19-18.84-14.78-1.19-17.07-3.33-18.19-18.83Z" style="fill:#fff; fill-rule:evenodd;"/></g><g><path d="M517.67,1039.79c.1,6.07,.45,11.18,.91,14.7-.46-3.52-.81-8.63-.91-14.7Z" style="fill:#ebebe8; fill-rule:evenodd;"/><path d="M332.57,590.05c-4.46-5.77-10.58-10.12-16.71-13.94-1.63-1.02-3.99-.33-4.89,1.35-4.75,8.84-9.14,17.91-14.58,26.36-1.78,2.79-4.34,6.48-6.61,8.12-.15,.1-.72,.38-.98,.53-.04-.05-.07-.09-.11-.16-.44-.66-.7-1.37-.94-2.13-4.24-13.01,.9-26.94-2.44-40.03-1.77-6.93-6.16-14.16-11.16-19.21-5.43-5.49-12.7-8.05-16.08-15.45-.51-1.12-1.43-1.65-2.42-1.74h-.67c-1.21,.11-2.44,.79-3.12,1.78-7.82,11.26-18.78,22.87-20.86,36.95-1.85,12.49,4.9,22.93,12.1,32.4,3.49,4.58,6.92,9.26,9.62,14.36,1.49,2.81,4.06,7.88,1.36,10.64-2.84,2.88-7.15-2.27-9.4-4.57-4.59-4.76-8.47-10.16-12.46-15.42-6.59-8.69-17.01-21.89-29.41-19.49-5.46,1.06-7.69,6.7-7.97,11.63-.46,7.82,3.37,16.23,7.22,22.79,8.73,14.88,26.42,19.2,37.8,31.21,2.62,2.76,9.79,12.22,5.68,16.1-1.44,1.35-4.78,.9-6.48,.64-4.18-.64-8.76-2.18-12.11-4.76-12.8-9.9-17.46-27.1-30.9-36.47-5.9-4.11-14.97-6.63-22.06-4.93-6.01,1.42-8.77,7.07-9.04,12.78-.33,6.9,2.82,14.03,6.3,19.79,4.02,6.67,9.55,12.26,16.32,16.12,13.56,7.7,30.71,8.68,39.72,22.86,1.23,1.95,2.56,4.48,1.97,6.84-.47,1.83-3.07,2.41-4.61,2.76-6.95,1.53-16.07-1.04-22.17-4.28-7.37-3.93-12.74-11.03-18.4-16.96-5.97-6.28-12.63-11.39-21.01-13.95-6.08-1.84-13.56-1.54-17.49,4.13-3.6,5.22-2.87,12.24-1.4,18.04,1.94,7.67,6.13,14.78,11.26,20.74,5.55,6.44,14.3,10.09,22.15,12.71,8.16,2.74,16.63,4.4,24.69,7.44,2.13,.8,3.78,1.38,6.12,1.54,2.5,.18,5.01,.05,7.45,.69,2.05,.53,.69,2.7,0,4.19-1.67,3.6-7.02,3.44-10.39,3.71-3.2,.24-6.35,1.05-9.55,1.08-3.67,.02-7.34-.65-10.96-1.21-7.17-1.09-14.75-2.36-21.85-.2-6.86,2.08-11.69,8.54-12.93,15.47-2.58,14.55,13.67,23.42,25.74,25.26,7.73,1.19,14.74-.5,21.54-4.35,8.38-4.73,14.97-11.57,24.64-12.75,.63,3.87-.75,6.97-4.19,9.87-4.73,3.99-11.28,6.15-16.99,8.27-11.25,4.18-27.7,7.89-33.73,19.54-.74,1.42-.59,3.18,.6,4.32,5.33,5.09,11.48,9.08,18.98,9.68,6.22,.49,12.29-2.4,17.33-5.74,9.01-5.97,16.78-15.28,26.91-19.48-1.4,2.56-3.73,4.3-6.57,6.51-5.06,3.93-7.66,9.39-9.05,15.52-2.12,9.31,1.1,19.37,12.02,19.42,5.96,.04,11.93-2.96,16.91-5.95,5.69-3.41,10.24-8.38,13.78-13.94,4.39-6.89,6.82-14.84,8.17-22.98,9.13,17.78,28.95,36.36,47.66,21,15.98-13.14-10.34-23.21-20.74-33.56,2.06,.84,4.04,1.89,5.94,2.86,5.42,2.77,10.69,5.86,16.35,8.15,10.56,4.31,22.4,3.9,28.72-6.97,5.45-9.37-5.84-13.72-12.79-15.81-5.66-1.71-16.24-3.54-20.35-9.22,13.96,1.53,29.48,3.25,41.52-4.8,5.46-3.66,12.01-10.69,12.67-17.56,.53-5.61-5.54-7.6-9.91-8.03-11.91-1.17-23.5,4.07-35.43,3.7-2.87-.1-5.71-.4-8.52-1.03-1.04-.24-2.12-.52-3.1-.97-.37-.17-.75-.49-1.02-.68,.07-.16,.16-.36,.33-.57,1.06-1.23,2.44-2.15,3.79-3.04,3.06-2.01,6.26-3.18,9.9-3.56,6.94-.74,13.86,.13,20.78-1.07,7.77-1.35,14.09-5.86,19.22-11.66,4.56-5.15,8.96-11.67,9.69-18.68,.75-7.25-3.65-12.16-10.12-14.64-18.11-6.92-28.71,11.78-41.62,20.26-3.42,2.26-7.49,3.74-11.39,4.94-1.59,.49-6.26,2.09-7.81,.86-.92-.75,2.15-5.67,2.73-6.6,2.61-4.22,5.92-7.15,10.19-9.61,10.8-6.18,23.98-8.1,32.49-17.87,5.59-6.41,9.99-17.28,4.52-25.1-5.81-8.29-18.72-6.04-26.02-1.23-9.17,6.07-13.8,18.36-24.84,21.29-.96-5.23,1.08-10.04,4.61-14.7,5.16-6.81,11.8-12.4,17.91-18.3,5.86-5.64,11.88-11.79,14.93-19.49,3.13-7.86,1.12-15.81-3.95-22.35Z" style="fill:#8ab9e8; fill-rule:evenodd;"/><path d="M605.47,841.93c1.76-7.08,1.4-14.57,.61-21.76-.21-1.91-2.22-3.33-4.08-3-9.89,1.75-19.73,3.9-29.74,4.87-3.29,.32-7.78,.61-10.47-.16-.17-.06-.75-.34-1.02-.45,.01-.05,.02-.12,.05-.2,.25-.76,.65-1.39,1.09-2.05,7.6-11.38,21.72-15.96,29.94-26.7,4.35-5.68,7.3-13.58,8.18-20.64,.96-7.66-1.54-14.96,2.19-22.2,1.36-2.65-1.45-5.02-3.87-4.87-13.68,.83-29.6-.59-41.95,6.48-10.95,6.27-14.97,18.03-17.96,29.56-1.45,5.58-2.99,11.16-5.32,16.45-1.29,2.9-3.68,8.06-7.52,7.64-4.02-.43-2.65-7.02-2.22-10.2,.88-6.55,2.73-12.96,4.39-19.33,2.75-10.56,6.67-26.92-2.88-35.18-4.21-3.63-10.02-1.88-14.07,.94-6.43,4.49-10.66,12.69-13.43,19.77-6.29,16.08,1.27,32.64-1.12,49-.55,3.77-3.54,15.26-9.13,14.42-1.96-.29-3.67-3.19-4.51-4.68-2.08-3.68-3.71-8.22-3.75-12.47-.15-16.17,10.47-30.48,9.53-46.84-.42-7.17-4.06-15.87-9.78-20.38-4.84-3.83-10.99-2.51-15.64,.81-5.62,4.02-9.27,10.89-11.65,17.2-2.75,7.29-3.71,15.08-2.55,22.79,2.33,15.41,12.18,29.49,6.61,45.35-.76,2.17-1.93,4.78-4.15,5.77-1.73,.77-3.79-.92-5.02-1.92-5.5-4.5-9.14-13.26-10.36-20.05-1.48-8.22,.78-16.84,1.95-24.96,1.23-8.58,1.13-16.98-2.05-25.13-2.31-5.93-7.18-11.61-14.07-11.18-6.32,.4-11.39,5.32-15.03,10.06-4.83,6.28-7.82,13.96-9.32,21.69-1.62,8.34,.93,17.47,3.72,25.26,2.9,8.1,6.85,15.78,9.44,24,.68,2.17,1.26,3.82,2.58,5.76,1.41,2.06,3.05,3.97,4.07,6.28,.86,1.94-1.69,2.21-3.3,2.59-3.85,.91-7.04-3.38-9.34-5.87-2.18-2.35-4.76-4.34-6.76-6.82-2.29-2.88-4.03-6.18-5.83-9.35-3.58-6.32-7.28-13.06-13.36-17.29-5.88-4.1-13.95-3.9-20.15-.58-13.02,6.97-9.94,25.22-3.92,35.85,3.86,6.8,9.52,11.26,16.74,14.23,8.91,3.65,18.35,4.59,25.26,11.46-2.64,2.88-5.93,3.72-10.34,2.81-6.06-1.23-11.81-5.05-17.01-8.22-10.24-6.26-23.34-16.88-36.22-14.41-1.57,.3-2.87,1.5-3.03,3.15-.7,7.34-.04,14.64,4.13,20.89,3.46,5.2,9.48,8.18,15.23,10.06,10.27,3.38,22.38,3.74,31.95,9.08-2.88,.5-5.7-.25-9.18-1.12-6.22-1.55-12.11-.2-17.8,2.48-8.62,4.1-14.53,12.85-7.81,21.47,3.67,4.71,9.72,7.54,15.14,9.6,6.2,2.36,12.92,2.86,19.47,2.2,8.12-.82,15.88-3.84,23.1-7.8-8.31,18.17-10.64,45.24,13.01,50.42,20.21,4.42,11.83-22.48,13.52-37.05,.61,2.13,1.02,4.34,1.43,6.43,1.17,5.99,2.02,12.02,3.71,17.9,3.16,10.95,10.81,20,23.25,18.24,10.73-1.52,7.16-13.09,4.5-19.83-2.17-5.5-7.27-14.94-5.35-21.7,7.43,11.92,15.69,25.18,29.46,29.65,6.25,2.02,15.83,2.81,21.64-.93,4.74-3.06,2.54-9.06,.17-12.76-6.45-10.08-17.74-15.93-24.83-25.55-1.71-2.3-3.23-4.72-4.47-7.32-.46-.97-.9-1.98-1.16-3.03-.1-.39-.08-.9-.09-1.23,.16-.05,.38-.09,.64-.08,1.63,.06,3.21,.58,4.74,1.08,3.47,1.16,6.38,2.96,8.93,5.57,4.86,5,8.47,10.97,13.7,15.67,5.87,5.27,13.32,7.44,21.04,7.88,6.87,.4,14.71-.19,20.68-3.96,6.16-3.89,7.29-10.39,5.23-17.01-5.77-18.5-27.02-15.24-41.68-20.15-3.88-1.3-7.57-3.58-10.92-5.89-1.37-.95-5.52-3.62-5.5-5.61,.02-1.18,5.78-1.82,6.88-1.94,4.93-.55,9.28,.23,13.85,2.08,11.54,4.65,21.2,13.82,34.14,14.46,8.5,.42,19.76-2.85,22.51-11.98,2.92-9.68-6.83-18.46-15.14-21.2-10.44-3.46-22.96,.51-32.09-6.33,3.52-3.99,8.56-5.38,14.4-5.48,8.53-.16,17.03,1.6,25.45,2.75,8.06,1.12,16.62,2.04,24.55-.33,8.12-2.42,13.12-8.91,15.12-16.93Z" style="fill:#8ab9e8; fill-rule:evenodd;"/><path d="M120.47,644.8c-6.8-2.63-14.27-3.22-21.5-3.35-1.92-.03-3.59,1.78-3.5,3.67,.48,10.02,1.38,20.07,1.07,30.11-.11,3.3-.39,7.79-1.5,10.36-.07,.16-.42,.69-.57,.95-.05-.02-.1-.03-.18-.07-.72-.34-1.31-.82-1.9-1.34-10.33-8.97-13.09-23.56-22.69-33.08-5.09-5.04-12.57-8.95-19.45-10.73-7.49-1.92-15.03-.36-21.74-4.98-2.45-1.68-5.16,.81-5.32,3.23-.92,13.68-4.33,29.27,1.12,42.42,4.84,11.66,16,17.13,27.05,21.55,5.35,2.14,10.7,4.38,15.64,7.36,2.72,1.64,7.54,4.68,6.63,8.43-.95,3.92-7.29,1.74-10.41,.9-6.38-1.71-12.5-4.35-18.61-6.81-10.12-4.04-25.86-10.01-35.25-1.58-4.14,3.72-3.14,9.71-.86,14.08,3.64,6.93,11.24,12.18,17.91,15.83,15.14,8.26,32.53,2.86,48.47,7.3,3.66,1.01,14.68,5.44,13.15,10.89-.54,1.89-3.64,3.22-5.23,3.88-3.91,1.59-8.62,2.62-12.84,2.12-16.07-1.88-28.91-14.24-45.26-15.37-7.17-.49-16.26,2.04-21.46,7.13-4.41,4.32-3.88,10.59-1.17,15.62,3.27,6.08,9.63,10.57,15.59,13.73,6.88,3.65,14.49,5.58,22.28,5.41,15.6-.36,30.8-8.36,45.83-.82,2.05,1.03,4.5,2.52,5.2,4.84,.54,1.81-1.39,3.65-2.54,4.73-5.17,4.89-14.31,7.38-21.21,7.74-8.34,.42-16.6-2.89-24.51-5.08-8.36-2.31-16.69-3.27-25.18-1.15-6.17,1.54-12.42,5.66-12.87,12.54-.4,6.32,3.84,11.96,8.08,16.19,5.62,5.59,12.86,9.53,20.33,11.99,8.07,2.66,17.45,1.28,25.53-.49,8.41-1.85,16.53-4.79,25.01-6.33,2.24-.4,3.95-.77,6.04-1.83,2.23-1.13,4.33-2.53,6.74-3.24,2.03-.61,1.98,1.95,2.15,3.6,.41,3.93-4.26,6.56-7.01,8.52-2.61,1.86-4.9,4.17-7.63,5.83-3.14,1.92-6.63,3.22-10.02,4.61-6.71,2.74-13.86,5.57-18.84,11.07-4.81,5.32-5.64,13.34-3.12,19.91,5.27,13.8,23.77,13.04,35.07,8.42,7.24-2.96,12.38-8.02,16.23-14.8,4.75-8.37,6.88-17.62,14.57-23.61,2.52,2.99,2.94,6.36,1.49,10.62-2,5.86-6.5,11.07-10.31,15.83-7.49,9.37-19.69,21.02-18.88,34.11,.1,1.6,1.14,3.03,2.74,3.4,7.2,1.62,14.52,1.89,21.26-1.46,5.59-2.78,9.3-8.38,11.91-13.84,4.65-9.76,6.53-21.73,13.05-30.54,.12,2.91-.98,5.6-2.28,8.95-2.32,5.98-1.74,11.99,.22,17.97,2.97,9.07,10.91,16.04,20.3,10.46,5.12-3.03,8.7-8.69,11.43-13.79,3.12-5.86,4.47-12.46,4.64-19.04,.22-8.17-1.79-16.25-4.81-23.9,16.97,10.53,43.53,16.27,51.66-6.53,6.94-19.49-20.81-14.57-35.05-18.1,2.2-.33,4.44-.46,6.56-.6,6.08-.4,12.18-.48,18.22-1.42,11.27-1.75,21.21-8.21,21.03-20.77-.15-10.82-12.07-8.76-19.11-6.96-5.73,1.46-15.75,5.31-22.19,2.56,12.75-5.86,26.95-12.38,33.13-25.48,2.8-5.95,4.8-15.35,1.82-21.58-2.43-5.07-8.66-3.66-12.63-1.79-10.82,5.13-18.05,15.58-28.48,21.4-2.51,1.4-5.11,2.6-7.83,3.51-1.02,.33-2.09,.64-3.16,.77-.4,.04-.9-.04-1.23-.07-.03-.18-.05-.38,0-.66,.27-1.6,.98-3.1,1.68-4.56,1.58-3.3,3.73-5.94,6.66-8.15,5.57-4.18,11.95-7,17.26-11.6,5.97-5.16,9.07-12.27,10.49-19.88,1.27-6.76,1.68-14.62-1.31-21-3.09-6.61-9.39-8.55-16.21-7.35-19.09,3.38-18.55,24.88-25.26,38.81-1.78,3.68-4.5,7.06-7.22,10.08-1.11,1.23-4.29,5.02-6.26,4.75-1.17-.17-1.06-5.97-1.05-7.07,.07-4.97,1.4-9.18,3.8-13.47,6.08-10.86,16.39-19.29,18.66-32.04,1.49-8.39-.33-19.97-9.04-23.87-9.24-4.11-19.16,4.46-22.94,12.35-4.74,9.92-2.39,22.83-10.35,31.03-3.51-3.99-4.24-9.17-3.61-14.97,.92-8.49,3.74-16.7,5.95-24.9,2.12-7.86,4.12-16.23,2.77-24.39-1.36-8.36-7.18-14.15-14.89-17.14Z" style="fill:#8ab9e8; fill-rule:evenodd;"/><path d="M467.93,743.38c-.97-7.22-4.08-14.05-7.46-20.44-.9-1.7-3.29-2.28-4.91-1.28-8.54,5.27-16.9,10.9-25.84,15.51-2.94,1.5-7.01,3.42-9.8,3.69-.17,.02-.81-.02-1.11-.03,0-.06-.02-.12-.02-.19-.05-.79,.09-1.54,.25-2.32,2.86-13.38,14.29-22.85,17.98-35.87,1.95-6.88,1.77-15.32-.02-22.21-1.94-7.48-6.95-13.33-6.16-21.44,.29-2.96-3.2-4.11-5.39-3.08-12.42,5.81-27.72,10.37-36.59,21.51-7.87,9.87-7.26,22.28-5.78,34.09,.71,5.71,1.34,11.48,1.12,17.25-.12,3.18-.44,8.88-4.17,9.88-3.9,1.08-5.05-5.53-5.83-8.66-1.59-6.41-2.24-13.04-3.05-19.59-1.34-10.82-3.73-27.47-15.66-31.62-5.25-1.82-10.01,1.94-12.73,6.06-4.32,6.53-5.23,15.72-5.19,23.33,.09,17.26,13.23,29.86,17.05,45.95,.88,3.71,2.33,15.49-3.17,16.78-1.92,.45-4.59-1.62-5.92-2.7-3.29-2.66-6.48-6.27-8.08-10.21-6.11-14.97-1.51-32.19-8.43-47.04-3.04-6.52-9.63-13.25-16.61-15.35-5.91-1.77-11.14,1.73-14.24,6.52-3.74,5.82-4.6,13.56-4.48,20.29,.13,7.8,2.12,15.39,6.04,22.12,7.86,13.47,22.21,22.91,22.89,39.71,.09,2.3-.03,5.15-1.73,6.9-1.32,1.35-3.86,.55-5.37,.06-6.78-2.16-13.39-8.95-17.03-14.82-4.41-7.09-5.49-15.93-7.4-23.91-2.02-8.42-5.22-16.18-11.18-22.59-4.34-4.65-10.96-8.14-17.2-5.2-5.73,2.7-8.62,9.15-10.26,14.9-2.17,7.62-2.12,15.86-.66,23.58,1.58,8.36,7.31,15.89,12.78,22.11,5.68,6.45,12.18,12.14,17.62,18.83,1.44,1.77,2.59,3.09,4.53,4.41,2.07,1.4,4.3,2.56,6.1,4.32,1.51,1.49-.76,2.69-2.11,3.62-3.25,2.28-7.8-.54-10.85-2-2.89-1.38-6.02-2.26-8.8-3.85-3.19-1.82-6.02-4.25-8.87-6.55-5.65-4.54-11.58-9.44-18.8-11.13-6.98-1.64-14.4,1.52-18.94,6.89-9.53,11.29,.08,27.1,9.59,34.77,6.1,4.91,13,6.96,20.81,7.05,9.62,.11,18.75-2.52,27.72,1.33-1.4,3.65-4.15,5.65-8.58,6.44-6.1,1.08-12.84-.34-18.84-1.37-11.83-2.04-27.92-7.08-38.98-.03-1.34,.86-2.11,2.47-1.65,4.05,2.06,7.08,5.37,13.62,11.55,17.9,5.14,3.55,11.83,4.1,17.87,3.73,10.8-.65,22.18-4.8,33.05-3.36-2.5,1.52-5.4,1.85-8.95,2.34-6.35,.86-11.33,4.27-15.62,8.87-6.5,6.98-8.76,17.32,.66,22.83,5.14,3.01,11.81,3.41,17.61,3.33,6.64-.09,13.06-2.11,18.91-5.15,7.25-3.77,13.34-9.42,18.59-15.76-1.02,19.94,6.81,45.96,30.7,42.04,20.41-3.34,2.7-25.26-1.11-39.42,1.36,1.75,2.55,3.65,3.7,5.45,3.3,5.13,6.32,10.43,10.05,15.26,6.97,9.02,17.43,14.6,28.34,8.38,9.41-5.38,1.83-14.8-3.14-20.1-4.04-4.31-12.28-11.21-12.98-18.18,11.3,8.32,23.87,17.6,38.32,16.67,6.56-.42,15.76-3.22,19.77-8.84,3.27-4.58-.98-9.35-4.55-11.92-9.72-6.98-22.37-8.26-32.5-14.57-2.44-1.52-4.74-3.21-6.85-5.16-.79-.72-1.57-1.52-2.2-2.39-.24-.33-.41-.81-.53-1.12,.14-.09,.32-.22,.57-.31,1.54-.55,3.19-.65,4.81-.74,3.66-.21,7.01,.38,10.35,1.89,6.36,2.85,11.92,7.08,18.51,9.5,7.4,2.73,15.12,2,22.47-.44,6.53-2.16,13.61-5.6,17.75-11.3,4.29-5.9,2.95-12.36-1.41-17.75-12.19-15.07-30.75-4.21-46.18-3.35-4.09,.24-8.36-.52-12.33-1.43-1.62-.38-6.47-1.34-7.18-3.18-.42-1.11,4.7-3.83,5.68-4.35,4.37-2.34,8.71-3.21,13.63-3.18,12.45,.07,24.81,5.02,37.07,.84,8.06-2.75,17.32-9.94,16.51-19.45-.86-10.09-13.16-14.62-21.89-14.11-10.98,.64-21.14,8.95-32.17,5.94,1.79-4.99,5.97-8.13,11.36-10.39,7.87-3.3,16.42-4.81,24.67-6.84,7.9-1.94,16.2-4.25,22.69-9.36,6.65-5.24,8.91-13.13,7.8-21.33Z" style="fill:#a3cffb; fill-rule:evenodd;"/><path d="M415.07,674.14c-4.14,18-7.74,36.14-12.91,53.89-5.31,18.23-12.86,35.09-23.27,50.97-21.48,32.79-48.84,61.22-70.97,93.55-.92,1.34-.75,2.65-.03,3.62-4.27,8.07-6.74,17.22-8.52,25.98-3.1,15.26-4.04,30.92-4.66,46.46-.75,18.98-.61,37.86,.27,56.84,1.03,22.3,2.51,44.63,1.57,66.96-.06,1.29-.13,2.59-.2,3.88-.26,4.62,6.91,4.59,7.17,0,1.23-21.8-.04-43.62-1.11-65.41-.95-19.42-1.38-38.74-.69-58.17,.54-15.02,1.29-30.08,3.85-44.91,2.34-13.49,6.07-28.75,16.25-38.62,1.45-1.41,1.3-3.17,.4-4.43,20.69-28.12,44.4-53.95,63.56-83.21,10.26-15.65,17.57-32.55,22.95-50.46,5.44-18.08,9.02-36.66,13.25-55.05,1.04-4.5-5.88-6.41-6.91-1.89Z" style="fill:#8ab9e8; fill-rule:evenodd;"/><path d="M298.14,1077.36c-3.89-34.84-19.92-66.02-36.53-96.33-16.46-30.05-33.81-60.51-38.86-94.92-.67-4.56-7.57-2.61-6.91,1.91,10.08,68.67,67.39,120.01,75.13,189.34,.51,4.54,7.68,4.59,7.17,0Z" style="fill:#8ab9e8; fill-rule:evenodd;"/><path d="M403.48,914.08c-30.66,13.39-60.71,33.86-81.29,60.53-11.23,14.56-17.84,31.11-21.98,48.47-1.57-18.09-4.89-36.01-8.35-53.81-8.07-41.55-14.29-83.3-18.2-125.46-1.55-16.73-2.7-33.49-3.48-50.28-.21-4.61-7.38-4.61-7.16,0,2.15,46.58,7.51,92.93,14.73,138.98,4.89,31.16,13.15,61.93,15.54,93.42-2.7-17.02-6.76-33.82-11.99-50.2-7.48-23.42-17.53-46.16-30.59-67.03,.07-.9-.18-1.83-.94-2.67-.88-1-1.78-1.98-2.69-2.94-3.23-4.87-6.63-9.64-10.21-14.26-1.6-2.07-3.89-1.34-5.09,.35-5.49-4.21-11.34-7.96-17.65-11.22-14.73-7.62-33.06-12.56-40.13-29.26-1.79-4.25-7.97-.58-6.19,3.62,7.02,16.58,24.14,22.76,39.1,30.03,13.43,6.52,24.78,14.91,34.91,25.62,14.32,21.79,25,46.01,32.91,70.77,9.59,30.07,15.08,61.66,15.15,93.24,0,.17,.02,.34,.04,.5-.49,2.33,1.36,3.88,3.32,4.02,.95,3.25,6.73,2.8,7.04-1.3,2.62-33.89,6.49-69.48,28.2-97.12,20.04-25.52,49.1-44.96,78.61-57.84,4.23-1.84,.58-8.02-3.62-6.19Z" style="fill:#8ab9e8; fill-rule:evenodd;"/><path d="M189.03,673.37c-6.51-3.29-13.9-4.6-21.08-5.42-1.91-.22-3.74,1.43-3.84,3.32-.49,10.02-.57,20.11-1.85,30.08-.42,3.28-1.14,7.72-2.49,10.16-.08,.16-.49,.66-.66,.9-.05-.03-.1-.06-.17-.09-.68-.41-1.22-.94-1.77-1.52-9.42-9.93-10.75-24.71-19.4-35.11-4.57-5.5-11.64-10.13-18.32-12.56-7.26-2.63-14.92-1.81-21.16-7.05-2.28-1.92-5.21,.3-5.6,2.7-2.23,13.52-7.14,28.72-2.98,42.34,3.69,12.07,14.27,18.59,24.84,24.05,5.12,2.66,10.22,5.4,14.86,8.85,2.55,1.89,7.06,5.38,5.79,9.02-1.32,3.82-7.43,1.04-10.45-.1-6.19-2.32-12.02-5.53-17.87-8.57-9.68-5.01-24.76-12.47-34.93-4.98-4.48,3.3-4.06,9.36-2.21,13.92,2.95,7.26,10.01,13.21,16.3,17.49,14.27,9.69,32.1,5.99,47.54,11.95,3.55,1.37,14.08,6.83,12.03,12.11-.72,1.84-3.93,2.86-5.58,3.36-4.05,1.2-8.84,1.78-12.98,.88-15.81-3.43-27.4-16.96-43.56-19.67-7.09-1.18-16.37,.45-22.05,5.01-4.81,3.88-4.88,10.17-2.68,15.44,2.67,6.37,8.57,11.46,14.19,15.17,6.49,4.31,13.88,6.97,21.65,7.54,15.56,1.16,31.46-5.33,45.69,3.62,1.94,1.22,4.23,2.93,4.7,5.32,.37,1.85-1.73,3.49-2.98,4.46-5.62,4.37-14.96,5.97-21.86,5.65-8.35-.38-16.24-4.48-23.9-7.43-8.09-3.1-16.3-4.86-24.96-3.55-6.29,.93-12.91,4.42-14.02,11.22-1.01,6.26,2.66,12.28,6.48,16.9,5.05,6.09,11.87,10.72,19.07,13.89,7.78,3.43,17.24,2.96,25.46,1.97,8.54-1.02,16.91-3.17,25.5-3.88,2.27-.18,4.01-.38,6.19-1.23,2.33-.92,4.56-2.1,7.03-2.58,2.08-.4,1.78,2.14,1.8,3.8,.03,3.95-4.87,6.12-7.8,7.81-2.78,1.6-5.28,3.68-8.16,5.07-3.31,1.6-6.91,2.57-10.41,3.62-6.95,2.09-14.34,4.21-19.82,9.2-5.3,4.83-6.9,12.73-5.04,19.52,3.91,14.24,22.4,15.28,34.09,11.77,7.5-2.26,13.1-6.78,17.59-13.16,5.53-7.88,8.54-16.89,16.78-22.1,2.22,3.22,2.31,6.62,.45,10.71-2.55,5.64-7.55,10.4-11.79,14.76-8.37,8.6-21.64,19.03-22.09,32.13-.05,1.6,.84,3.14,2.41,3.65,7.01,2.3,14.27,3.29,21.3,.61,5.83-2.22,10.07-7.44,13.19-12.62,5.57-9.27,8.6-20.99,15.94-29.15-.16,2.92-1.52,5.5-3.14,8.71-2.89,5.71-2.89,11.75-1.52,17.9,2.08,9.31,9.31,17.02,19.2,12.38,5.39-2.53,9.5-7.8,12.71-12.64,3.67-5.52,5.65-11.96,6.46-18.5,1-8.1-.22-16.33-2.48-24.25,15.88,12.13,41.75,20.4,52.05-1.5,8.79-18.73-19.31-16.52-33.14-21.41,2.22-.11,4.46-.02,6.59,.04,6.1,.19,12.17,.7,18.27,.35,11.38-.64,21.9-6.12,22.94-18.64,.9-10.8-11.17-9.88-18.34-8.78-5.84,.9-16.19,3.78-22.34,.42,13.26-4.62,28.03-9.73,35.43-22.17,3.36-5.64,6.26-14.82,3.9-21.31-1.93-5.28-8.27-4.48-12.4-2.99-11.26,4.06-19.47,13.77-30.41,18.55-2.63,1.15-5.33,2.09-8.13,2.74-1.05,.24-2.15,.43-3.22,.46-.41,.02-.89-.13-1.21-.19-.01-.17,0-.39,.06-.64,.42-1.57,1.28-3,2.11-4.39,1.89-3.13,4.28-5.56,7.41-7.46,5.95-3.64,12.58-5.84,18.31-9.89,6.44-4.56,10.21-11.34,12.36-18.77,1.91-6.61,3.08-14.39,.72-21.04-2.44-6.88-8.52-9.42-15.43-8.87-19.32,1.52-20.87,22.97-28.89,36.17-2.13,3.5-5.16,6.59-8.17,9.35-1.23,1.13-4.76,4.59-6.69,4.13-1.15-.28-.49-6.05-.37-7.14,.54-4.93,2.28-9,5.09-13.05,7.11-10.22,18.18-17.62,21.68-30.08,2.29-8.2,1.6-19.9-6.69-24.62-8.8-5-19.51,2.58-24.03,10.07-5.68,9.42-4.58,22.5-13.3,29.89-3.11-4.31-3.33-9.53-2.15-15.25,1.73-8.36,5.33-16.26,8.33-24.22,2.87-7.62,5.67-15.75,5.12-24.01-.55-8.45-5.78-14.76-13.16-18.49Z" style="fill:#c2def9; fill-rule:evenodd;"/><polygon points="379.5 1287.99 224.94 1287.99 174.36 1088.13 426.57 1088.13 379.5 1287.99" style="fill:#c2def9; fill-rule:evenodd;"/><rect x="157.5" y="1062.15" width="282.41" height="25.98" style="fill:#8ab9e8;"/><polygon points="300.47 1088.13 174.36 1088.13 224.94 1287.99 300.47 1287.99 300.47 1088.13" style="fill:#a3cffb; fill-rule:evenodd;"/><rect x="157.5" y="1062.15" width="142.96" height="25.98" style="fill:#619fdf;"/><polygon points="379.5 1291 224.94 1291 174.36 1264.01 426.57 1264.01 379.5 1291" style="fill:#8ab9e8; fill-rule:evenodd;"/><polygon points="300.47 1264.01 174.36 1264.01 224.94 1291 300.47 1291 300.47 1264.01" style="fill:#619fdf; fill-rule:evenodd;"/></g><g><path d="M1407.25,121.28c-159.02,1.43-283.88,15.31-284.49,32.24,.09,.02,.19,.04,.28,.06,0,.47-.02,.94-.02,1.41-1.34,85.25,5.59,164.91,27.46,235.09,43.05,138.1,179.37,171.06,192.46,283.85-13.1,112.8-149.41,145.76-192.46,283.85-21.88,70.19-28.81,149.84-27.46,235.1,0,.46,.02,.94,.02,1.41-.09,.02-.19,.04-.28,.06,.61,16.92,125.47,30.8,284.49,32.24,159.02-1.44,283.88-15.31,284.49-32.24-.09-.02-.19-.05-.28-.06,0-.48,.02-.95,.02-1.41,1.34-85.25-5.59-164.91-27.47-235.1-43.04-138.09-179.36-171.05-192.46-283.85,13.1-112.79,149.41-145.75,192.46-283.85,21.88-70.18,28.82-149.84,27.47-235.09,0-.47-.02-.94-.02-1.41,.09-.02,.19-.04,.28-.06-.61-16.92-125.47-30.81-284.49-32.24Z" style="fill:#fff; fill-rule:evenodd;"/><g style="opacity:.48;"><path d="M1407.25,107.72c172.19,0,311.78,14.54,311.78,32.49s-139.59,32.48-311.78,32.48-311.78-14.54-311.78-32.48,139.59-32.49,311.78-32.49Z" style="fill:#b2b2b2; fill-rule:evenodd;"/></g><path d="M1176.51,161.72c0-1.44,10.6-5.54,16.34-5.54s16.3,4.23,16.34,5.54V1195.55c-.04,1.3-10.6,5.54-16.34,5.54s-16.33-4.11-16.34-5.54V161.72Z" style="fill:#619fdf; fill-rule:evenodd;"/><path d="M1192.85,159.78c0-.65,2.13-1.82,4.98-2.92,5.39,1.25,11.33,3.88,11.36,4.86V1195.55c-.02,.59-2.2,1.78-5.11,2.92-5.36-1.23-11.22-3.78-11.23-4.85V159.78Z" style="fill:#4f8dcb; fill-rule:evenodd;"/><path d="M1408.99,1123.85c12.61-68.65,14.35-305.66,24.33-413.66,1.37-14.79,19.61-64.79,28.11-80.92,23.63-44.79,73.51-84.69,107.74-118.81,36.99-36.89,66.22-73.65,82.02-124.37,1.08-3.48,2.13-7.07,3.13-10.77-61.74,40.9-180,76.1-230.33,66.04-67.16-13.43-40.29-40.3-80.6-67.17-40.29-26.87-40.29,13.43-107.47,0-21.47-4.3-52.18-25.05-85.58-44.94,3.51,20.82,7.79,40.17,12.99,56.84,15.81,50.72,45.03,87.48,82.02,124.37,32.02,31.94,69.8,63.45,91.94,103.39,3.15,5.71,11.96,25.97,19.68,45.18,10.31,25.64,22.53,64.44,24.36,91.46,6.48,95.33,4.9,284.29,2.87,349.27,.68,.63,1.38,1.27,2.07,1.92,7.33,6.85,14.65,14.43,22.72,22.17Z" style="fill:#d0a485; fill-rule:evenodd;"/><path d="M1393.96,1021.22c-8.08-7.73-15.39-15.3-22.72-22.17l-2.07-1.92c-17.29-15.81-22.47-27.39-63.6-27.39s-53.73,67.17-107.47,67.17c-39.76,0-28.03,0-41.02,16.33-4.21,19.12-16.38,34.59-17.24,48.74-2.18,36.13-3.7,57.18-3.54,101.75,36.42,12.44,142.54,21.7,270.95,22.87,128.41-1.16,234.52-10.43,270.95-22.87-.28-12.9,.02-18.8-.28-32.57-36.84-21.33-84.22-47.61-117.12-80.51-32.89-32.89-80.59,0-80.59,0,0,0-31.28-26.34-59.34-46.64-28.06-20.3-18.94-15.16-26.91-22.79Z" style="fill:#d0a485; fill-rule:evenodd;"/><path d="M1096.24,79.05v58.84c9.75-14.49,110.83-26.37,243.69-29.42,21.68-.5,44.21-.75,67.32-.75s45.64,.26,67.32,.75c132.86,3.05,233.94,14.93,243.69,29.42v-63.45c-11.33-16.87-146.25-30.18-311.01-30.18s-299.67,13.32-311.01,30.18v4.61Z" style="fill:#4f8dcb; fill-rule:evenodd;"/><path d="M1407.25,107.72c-164.75,0-299.67,13.32-311.01,30.18,0,4.9-.57,5.35,4.16,8.09,4.54,2.63,12.12,5.16,22.36,7.53,.61-16.92,125.47-30.81,284.49-32.24,159.02,1.43,283.88,15.31,284.49,32.24,10.04-2.33,17.53-4.8,22.09-7.37,4.92-2.77,4.43-3.21,4.43-8.25-11.33-16.86-146.25-30.18-311.01-30.18Z" style="fill:#86bdf4; fill-rule:evenodd;"/><g style="opacity:.56;"><path d="M1407.25,121.28c-159.02,1.43-283.88,15.31-284.49,32.24,.09,.02,.19,.04,.28,.06,0,.47-.02,.94-.02,1.41-1.34,85.25,5.59,164.91,27.46,235.09,43.05,138.1,179.37,171.06,192.46,283.85-13.1,112.8-149.41,145.76-192.46,283.85-21.88,70.19-28.81,149.84-27.46,235.1,0,.46,.02,.94,.02,1.41-.09,.02-.19,.04-.28,.06,.61,16.92,125.47,30.8,284.49,32.24,159.02-1.44,283.88-15.31,284.49-32.24-.09-.02-.19-.05-.28-.06,0-.48,.02-.95,.02-1.41,1.34-85.25-5.59-164.91-27.47-235.1-43.04-138.09-179.36-171.05-192.46-283.85,13.1-112.79,149.41-145.75,192.46-283.85,21.88-70.18,28.82-149.84,27.47-235.09,0-.47-.02-.94-.02-1.41,.09-.02,.19-.04,.28-.06-.61-16.92-125.47-30.81-284.49-32.24Z" style="fill:#eef8fb; fill-rule:evenodd;"/></g><g style="opacity:.31;"><path d="M1678.2,1203.73c.27-74.55-5.64-173.4-27.02-241.94-15.81-50.72-45.03-87.49-82.02-124.38-32.03-31.94-69.81-63.45-91.94-103.39-10.17-18.33-16.6-37.69-19.02-58.54l-.18-1.55,.18-1.55c2.42-20.85,8.85-40.2,19.02-58.54,22.13-39.94,59.91-71.45,91.94-103.39,36.99-36.89,66.22-73.65,82.02-124.37,19.88-63.76,26.39-166.6,26.98-241.95-36.46-12.44-142.55-21.7-270.91-22.86-128.36,1.16-234.45,10.42-270.92,22.86,.6,75.35,7.11,178.19,26.98,241.95,15.81,50.72,45.03,87.48,82.02,124.37,32.02,31.94,69.8,63.45,91.94,103.39,10.16,18.34,16.59,37.69,19.01,58.54l.17,1.55-.17,1.55c-2.42,20.85-8.85,40.21-19.01,58.54-22.14,39.94-59.92,71.45-91.94,103.39-36.99,36.89-66.22,73.65-82.02,124.38-21.37,68.54-27.28,167.4-27.02,241.94,36.42,12.44,142.54,21.7,270.95,22.87,128.41-1.16,234.52-10.43,270.95-22.87Z" style="fill:#fff; fill-rule:evenodd;"/></g><path d="M1096.24,1268.81v-58.84c9.75,14.49,110.83,26.37,243.69,29.42,21.68,.49,44.21,.76,67.32,.76s45.64-.27,67.32-.76c132.86-3.05,233.94-14.93,243.69-29.42v63.45c-11.33,16.87-146.25,30.18-311.01,30.18s-299.67-13.31-311.01-30.18v-4.61Z" style="fill:#4f8dcb; fill-rule:evenodd;"/><path d="M1407.25,1240.15c-164.75,0-299.67-13.32-311.01-30.18,0-7.92,3.91-8.65,11.66-11.41,4.04-1.45,9.01-2.85,14.86-4.2,.61,16.92,125.47,30.8,284.49,32.24,159.02-1.44,283.88-15.31,284.49-32.24,8.88,2.06,15.77,4.23,20.4,6.48,5.94,2.9,6.12,3.27,6.12,9.13-11.33,16.86-146.25,30.18-311.01,30.18Z" style="fill:#619fdf; fill-rule:evenodd;"/><g style="opacity:.27;"><path d="M1566.06,908.62c-39.47-47.37-69.67-76.17-90.58-105.52-1.67-2.33-50.48-80.41-25.15-32.35,36.79,69.85,113.67,125.29,129.16,231.9,10.75,73.97,2.39,174.46-.24,216.56,29.1-2.33,55.16-6.74,73.58-9.25-16.16-125.1-5.07-203.29-86.77-301.35h0Zm-58.39-350.53c14.52-14.51,127.66-127.34,138.98-240.54,11.32-113.2,12.91-143.15,14.34-158.46-35.4,5.53-36.31,3.3-55.31,1.01-.43,9.45,.53,21.37,.68,23.11,.94,10.87-5.7,226.33-72.87,306.94-25.29,30.35-39.69,46.38-55.37,71.4-70.24,106.23,14.97,11.12,29.56-3.47Z" style="fill:#fff; fill-rule:evenodd;"/></g><path d="M1592.93,126.08c0-1.52,10.59-5.88,16.33-5.88s16.3,4.48,16.33,5.88V1222.71c-.03,1.39-10.59,5.88-16.33,5.88s-16.33-4.36-16.33-5.88V126.08Z" style="fill:#619fdf; fill-rule:evenodd;"/><path d="M1609.26,124.02c0-.68,2.12-1.93,4.98-3.1,5.39,1.33,11.33,4.11,11.35,5.16V1222.71c-.02,.63-2.18,1.89-5.1,3.09-5.37-1.3-11.23-4.01-11.23-5.14V124.02Z" style="fill:#4f8dcb; fill-rule:evenodd;"/></g><g><path d="M1020.23,1094.82c-1.29,0-2.62-.44-3.69-1.34-2.46-2.04-2.81-5.69-.75-8.15,28-33.67,43.44-76.38,43.44-120.25,0-21.01-3.44-41.64-10.23-61.31-1.04-3.03,.57-6.32,3.59-7.36,3.03-1.05,6.32,.56,7.36,3.58,7.2,20.89,10.83,42.78,10.83,65.08,0,46.57-16.35,91.91-46.09,127.65-1.13,1.38-2.77,2.09-4.45,2.09Z" style="fill:#fff; fill-rule:evenodd;"/><path d="M1140.4,1019.97c-46.45,8.81-104.72,26.91-174.78,54.29,4.74,1.26,9.21,2.79,13.41,4.59,96.75-35.12,160.86-52.77,192.36-52.95-5.59-1.94-11.17-3.26-16.74-3.95,.46-51.51,3.13-97.12,8-136.82-11.92,61.56-19.34,106.5-22.25,134.83Z" style="fill:#4f8dcb; fill-rule:evenodd;"/><path d="M965.61,1074.27c-21.53-6.44-40.63-5.02-57.29,4.28l13.99,48.57c1.58,5.5-1.56,9.81-6.98,9.58l12.96,.54c5.84-3.27,11.85-5.33,18.05-6.2,11.8,7.51,27.32,5.88,46.54-4.89,1.4-19.32-3.49-34.99-14.64-47.01,.27-.09,.54-.2,.79-.29-4.2-1.81-8.67-3.33-13.41-4.59Z" style="fill:#ffb17d; fill-rule:evenodd;"/><path d="M1125.92,1161.02c2.97-17.46,5.88-36.2,8.75-56.24-36.47,9.55-83.93,18.6-142.38,27.17,.25-1.96,.45-3.9,.58-5.79-19.21,10.77-34.74,12.4-46.54,4.89-6.2,.87-12.21,2.92-18.05,6.2l130.9,5.46c-1.58,8.87-5.45,15.6-11.41,19.71,27.54,1.18,53.58,.71,78.13-1.39Z" style="fill:#4f8dcb; fill-rule:evenodd;"/><path d="M908.33,1078.55c12.48-6.96,26.34-9.51,41.56-7.64,25.04-54.08,9.55-130.96,44.8-248.32-25.39,12.77-55,74.49-88.8,185.18-3.67,3.11-8.63,6.64-14.9,10.59l17.34,60.2Z" style="fill:#619fdf; fill-rule:evenodd;"/><path d="M994.68,822.59c-35.25,117.36-19.76,194.24-44.8,248.32,5.09,.62,10.34,1.75,15.74,3.36,70.07-27.38,128.34-45.48,174.78-54.29,2.91-28.33,10.33-73.27,22.25-134.83-4.87,39.7-7.54,85.31-8,136.82,5.57,.68,11.15,2,16.74,3.95-31.5,.17-95.61,17.83-192.36,52.95l-.79,.29c11.15,12.02,16.04,27.69,14.64,47.01-.13,1.89-.33,3.82-.59,5.79,58.45-8.56,105.91-17.62,142.38-27.17,30.03-7.86,52.61-16.07,67.73-24.61,39.51-65.75,45.66-150.64,18.47-254.67-14.7-18.75-47.51-25.74-98.43-20.97-53.11,44.81-77.4,46.97-72.9,6.46-23.17,.64-41.46,4.5-54.87,11.6Z" style="fill:#619fdf; fill-rule:evenodd;"/><path d="M993.07,823.47c-31.48,65.26-36.92,197.84-51.41,212.17-5.51,6.59-18.41,14.67-38.72,24.21l.37,1.31,5.01,17.39c12.48-6.96,26.34-9.51,41.56-7.64,25.04-54.08,9.55-130.96,44.8-248.32-.53,.28-1.07,.57-1.62,.88Z" style="fill:#4f8dcb; fill-rule:evenodd;"/><path d="M713.89,1153.77l316.06,13.17c16.27,.68,26.43-8.39,29.25-24.24l-355.84-14.83-.98-.04c-3.44-.13-8.47,1.39-6.87,10.96,1.46,7.88,9.73,14.62,18.37,14.98Z" style="fill:#f47a44; fill-rule:evenodd;"/><path d="M662.09,958.05l204.23,8.51c5.42,.24,11.15,4.91,12.74,10.41l43.25,150.15c1.58,5.49-1.56,9.81-6.98,9.58l-204.23-8.51c-5.42-.22-11.16-4.91-12.74-10.41l-43.25-150.15c-1.58-5.49,1.56-9.8,6.98-9.58Z" style="fill:#fabea7; fill-rule:evenodd;"/><path d="M680.32,1019.05l26.61,92.38c1.32,4.57,6.18,8.79,10.99,8.99l186.35,7.77c4.71,.2,6.92-3.55,5.68-7.86l-17.76-61.66c-15.35,1.92-31.34,2.94-47.79,2.94-12.35,0-24.46-.57-36.22-1.67-2.34,6.29-8.27,10.56-15.89,10.56-9.72,0-18.95-6.96-22.23-16.16-35.67-7.25-66.63-19.56-89.73-35.29Z" style="fill:#f47a44; fill-rule:evenodd;"/><path d="M619.15,1180.01c15.6-10.14,27.66-19.56,36.17-28.26,13.23,5.97,25.85,11.37,37.86,16.2,29-3.74,62.95-7.34,101.85-10.8l-81.14-3.38c-8.64-.36-16.91-7.1-18.37-14.98-1.61-9.57,3.43-11.09,6.87-10.96l.98,.04,7.74,.32c-5.42-.22-11.16-4.91-12.74-10.41l-21.38-74.21c-13.03-.75-24.59-.99-34.66-.72-57.32,20.78-106.69,105.94-213.24,176.84,1.74,18.61,10.91,30.46,25.14,42.28,55.93-23.93,112.15-50.58,145.15-69.82,7.13-4.16,13.72-8.21,19.78-12.14Z" style="fill:#4567c5; fill-rule:evenodd;"/><path d="M315.13,1227.59c42.38,37.39,73.81,59.97,92.39,68.56,20.04,9.26,25.72,2.22,30.62-21.11-55.88-17.76-25.49-30.04-46.44-44.04-22.43-1.38-47.96-11.86-76.57-31.44-17.95-1.86-20.01,9.17,0,28.04Z" style="fill:#3b5bb2; fill-rule:evenodd;"/><path d="M326.24,1178.87c1.81,13.05,3.01,19.34,4.66,30.73h0l.87,.51,.42,.24,.45,.26,.83,.48,.04,.02,.86,.5,.37,.21,.49,.27,.78,.43,.08,.05,.86,.47,.33,.18,2.24,1.2,.29,.16,.57,.3,.68,.35,.16,.09,.85,.44,.24,.12,.61,.31,.64,.32,.2,.1,.84,.42,.19,.09,.64,.31,.59,.29,.24,.12,.84,.4,.15,.07,.68,.32,.55,.26,.28,.12,.83,.39,.11,.05,.72,.32,.51,.23,1.14,.5,.07,.03,1.21,.53,.36,.15,.81,.35,.03,.02,.78,.33,.42,.17,.39,.16,.8,.32h0l.81,.32,.37,.15,.43,.16,.75,.29,.05,.02,.8,.3,.33,.13,.46,.17,.71,.25,.09,.04,.79,.28,.29,.1,.5,.17,.66,.24,.13,.03,.79,.27,.25,.09,.54,.18,.78,.25,.78,.24,.21,.07,.57,.17,.58,.17,.2,.06,.77,.22,.16,.05,.61,.17,.53,.15,.24,.07,.77,.2,.13,.04,.64,.17,.49,.13,.27,.06,.77,.2,1.52,.37,.76,.17,.05,.02,.71,.15,.41,.09,.34,.08,.75,.16h.01l.73,.14,.73,.14h.02s.72,.14,.72,.14h.03l.74,.13,.33,.06,.41,.06c-.14-1.38-.42-2.88-.88-4.56-16.11-15.67-30.39-32.57-39.32-66.07-12.4-13.11-18.9-7.79-16.03,19.56h0Zm10.34,67.17c3.3,17.97,7.28,34.67,11.21,43.28,8.34,18.31,23.88,8.9,40.88-3.87-13.87-8.95-31.34-22.05-52.09-39.41Z" style="fill:#3b5bb2; fill-rule:evenodd;"/><path d="M361.12,1224.2l.54,.19,.09,.03,.79,.28,.29,.11,.5,.17,.66,.24,.13,.04,.78,.26,.25,.09,.54,.18,.78,.25,.78,.24,.21,.07,.57,.17,.58,.17,.2,.06,.77,.23,.17,.05,.61,.17,.53,.15,.24,.07,.77,.2,.13,.04,.64,.17,.5,.13,.27,.06,.77,.2,1.52,.37,.76,.17,.05,.02,.7,.15,.41,.09,.34,.08,.75,.16h.01l.74,.14,.73,.14h.02s.71,.13,.71,.13h.03s.74,.13,.74,.13l.33,.06,.42,.06c-.14-1.38-.42-2.88-.89-4.56-16.11-15.67-30.38-32.57-39.31-66.07-3.23-3.42-6.07-5.58-8.44-6.44,1.88,27.61,10.98,51.38,27.29,71.33Z" style="fill:#284190; fill-rule:evenodd;"/><path d="M432.71,1273.23c5.04-6.84,10.61-11.98,16.7-15.44-9.75-8.93-16.49-18.33-19.25-31.01-11.06,5.83-21.8,9.21-32.21,10.14,7.46,11.23-6.49,21.99,34.76,36.31Z" style="fill:#ffb17d; fill-rule:evenodd;"/><path d="M1024.4,1280.67c68.2-4.31,95.98-55.31,94.67-119.11-22.53,1.63-46.28,1.92-71.28,.85-4.69,3.23-10.67,4.83-17.84,4.52l-234.92-9.79c-38.91,3.46-72.85,7.06-101.85,10.8-17.85,2.31-33.83,4.67-47.93,7.08-10.05,2.7-25.12,8.28-45.2,16.73l-.68,.4c-33,19.24-89.22,45.9-145.15,69.82-1.67-1.39-3.28-2.78-4.81-4.18-6.09,3.46-11.66,8.6-16.7,15.44,1.71,.6,3.52,1.19,5.43,1.81-.08,.39-.17,.79-.25,1.19,159.24,14.45,211.69-9.76,253.9-22.5,138.23,24.67,204.79,33.74,332.61,26.95Z" style="fill:#4567c5; fill-rule:evenodd;"/><path d="M1102.91,724.65c-5.22-21.53-6.2-46.03-13.3-55.49-57.44-20.2-63.85,11.59-89.18,17.65-.72,21.03,9.98,81.17,31.75,90.92,4.61,4.87,12.22,7.73,22.79,8.57-1.01,4.45-4.09,20.57-5.41,24.7h0c-4.5,40.5,19.79,38.35,72.9-6.46l.22-.02c-.31-14.26-1.52-25.19-1.29-35.93,.16-7.31,.45-13.81,.87-19.49,19.01-19.82,22.78-35.88,11.29-48.16-15.06-7.12-23.79,2.99-26.2,30.35-4.49-1.74-1.37-.25-4.43-6.63Z" style="fill:#ffb17d; fill-rule:evenodd;"/><path d="M1000.42,686.8c25.33-6.06,31.74-37.85,89.19-17.65,7.09,9.46,8.07,33.96,13.29,55.49,3.07,6.38-.05,4.89,4.43,6.63,2.41-27.36,11.14-37.48,26.2-30.36,11.49,12.29,7.73,28.35-11.29,48.17-.42,5.68-.71,12.18-.87,19.49,53.51-49.32,42.69-116.27,10.11-138.28,7.93,.82,16.02,3.9,24.26,9.22-11.88-15.9-27.86-21.43-47.93-16.58,2.17-11.23,1.75-19.55-1.25-24.94-.9,7.6-2.42,13.48-4.54,17.63-12.9-11.79-37.66-14.53-63.02-4.98-32.81,12.34-37.24,11.66-50.17,2.66-34.88,23.6-9.93,80.61,11.59,73.5Z" style="fill:#284190; fill-rule:evenodd;"/><path d="M1088.79,776.56c-9.53,6.15-20.8,9.39-33.83,9.74-.56,2.47-1.76,8.54-2.94,14.16,16.43-4.41,28.69-12.37,36.77-23.9Z" style="fill:#ef8161; fill-rule:evenodd;"/><path d="M696,1131.22c-17.93-6.31-33.38-13.91-46.34-22.81-6.03,5.85-12.03,11.55-18.01,17.13-58.54,54.58-115.1,96.3-169.39,122.01-5.38,2.55-10.73,4.94-16.07,7.17,1.03,1.03,2.09,2.05,3.2,3.06l4.81,4.18c11.04-4.73,22.09-9.56,32.97-14.42,44.25-19.75,85.69-39.96,112.18-55.41,.23-.13,.46-.27,.68-.4,6.87-4.02,13.23-7.93,19.1-11.74,4.46-2.9,8.63-5.74,12.51-8.52,9.7-6.95,17.58-13.54,23.66-19.74,13.23,5.97,25.85,11.37,37.86,16.2,16.35-2.11,34.28-4.17,53.77-6.19,15.08-1.56,31.11-3.1,48.08-4.61l-48.08-2-33.06-1.38c-8.65-.36-16.91-7.1-18.37-14.98-.59-3.49-.29-5.9,.49-7.56Z" style="fill:#3b5bb2; fill-rule:evenodd;"/><path d="M1014.63,1247.56c-39.74,11.16-94.99,12.55-165.77,4.15-12.09-1.38-23.78-2.76-35.05-4.15-24.19-2.99-46.48-6.03-66.88-9.12-20.31-3.08-38.74-6.22-55.3-9.4-12.07,7.11-25.97,13.28-41.71,18.53-5.84,1.95-11.93,3.77-18.28,5.46-49.7,13.22-114.9,18.57-195.62,16.04-1.14,1.31-2.25,2.71-3.34,4.18,1.71,.6,3.52,1.19,5.43,1.81l-.25,1.19c96.86,8.79,154.21,3.28,193.77-5.26,25.48-5.5,43.59-12.25,60.13-17.25,19.72,3.51,37.97,6.71,55.16,9.61,103.31,17.33,167.87,23.17,277.45,17.35,30.53-1.93,52.96-13.21,68.31-30.82,18.94-21.71,27.09-53.05,26.36-88.29-3.07,.22-6.15,.42-9.26,.6-6.25,.35-12.59,.58-19.02,.73-2.24,42.81-27.63,71.04-76.15,84.66Z" style="fill:#3b5bb2; fill-rule:evenodd;"/><path d="M786.78,1036.74c7.62,0,14.81,6.18,16.05,13.8,1.25,7.62-3.93,13.8-11.55,13.8s-14.81-6.18-16.06-13.8c-1.24-7.62,3.93-13.8,11.56-13.8Z" style="fill:#f47a44; fill-rule:evenodd;"/><path d="M996.68,646.79c-14.82,11.13-18.82,22.16-12.01,33.1,25.41,8.55,48.53,6.76,69.38-5.37-13.36,.62-32.49-8.62-57.37-27.73Z" style="fill:#284190; fill-rule:evenodd;"/><path d="M1039.65,651.67c-8.34,5.12-11,10.71-7.96,16.81,12.94,5.75,25.18,5.97,36.74,.63-7.06-.35-16.65-6.16-28.78-17.43Z" style="fill:#284190; fill-rule:evenodd;"/></g><g><path d="M1061.31,420.53h-43.07l1.99,24.82c.27,3.45-3.98,5.29-6.3,2.73l-24.99-27.54h-216.53c-11.18,0-20.24-9.06-20.24-20.24v-78.93c0-11.18,9.06-20.23,20.24-20.23h288.9c11.18,0,20.23,9.06,20.23,20.24v78.93c0,11.18-9.06,20.24-20.23,20.24Z" style="fill:#fb9674; fill-rule:evenodd;"/><path d="M1052.38,340.96h-38.63c-2.33,0-4.22-1.89-4.22-4.22s1.89-4.21,4.22-4.21h38.63c2.33,0,4.21,1.89,4.21,4.21s-1.89,4.22-4.21,4.22h0Zm-163.69,48.16h-107.17c-2.33,0-4.22-1.89-4.22-4.21s1.89-4.21,4.22-4.21h107.17c2.33,0,4.22,1.89,4.22,4.21s-1.89,4.21-4.22,4.21h0Zm121.68,0h-104.39c-2.33,0-4.22-1.89-4.22-4.21s1.89-4.21,4.22-4.21h104.39c2.33,0,4.21,1.89,4.21,4.21s-1.89,4.21-4.21,4.21h0Zm-162.5-24.08h-66.36c-2.33,0-4.22-1.89-4.22-4.21s1.89-4.21,4.22-4.21h66.36c2.33,0,4.21,1.89,4.21,4.21,0,2.33-1.89,4.22-4.21,4.21h0Zm204.5,0h-185.95c-2.33,0-4.22-1.89-4.22-4.21s1.89-4.21,4.22-4.21h185.95c2.33,0,4.21,1.89,4.21,4.21s-1.89,4.22-4.21,4.21h0Zm-56.52-24.08h-214.35c-2.33,0-4.22-1.89-4.22-4.22s1.89-4.21,4.22-4.21h214.35c2.33,0,4.22,1.89,4.22,4.21s-1.89,4.22-4.22,4.22Z" style="fill:#fdfdfd; fill-rule:evenodd;"/></g><g><path d="M741.75,702.51c-51.47,0-93.34-41.87-93.34-93.34s41.87-93.34,93.34-93.34,93.34,41.87,93.34,93.34-41.87,93.34-93.34,93.34Zm0-182.12c-48.95,0-88.78,39.83-88.78,88.78s39.82,88.78,88.78,88.78,88.78-39.83,88.78-88.78-39.82-88.78-88.78-88.78Z" style="fill:#fff;"/><path d="M741.75,685.68c-42.19,0-76.51-34.32-76.51-76.51s34.33-76.51,76.51-76.51,76.51,34.32,76.51,76.51-34.33,76.51-76.51,76.51Zm0-148.45c-39.67,0-71.95,32.28-71.95,71.95s32.27,71.95,71.95,71.95,71.95-32.27,71.95-71.95-32.27-71.95-71.95-71.95Z" style="fill:#fff;"/><path d="M707.86,644.61c-1.1,1.02-2.83,.97-3.86-.13-1.03-1.1-.97-2.83,.13-3.86l35.75-33.44c1.1-1.04,2.83-.97,3.85,.13,1.03,1.1,.97,2.83-.13,3.85l-35.75,33.45Z" style="fill:#fff; fill-rule:evenodd;"/><path d="M737.64,555.15c0-2.26,1.84-4.1,4.1-4.1s4.1,1.83,4.1,4.1v51.21l36.31,13.89c2.11,.8,3.18,3.17,2.37,5.28-.81,2.11-3.17,3.18-5.28,2.37l-41.59-15.92v-56.84Z" style="fill:#fff; fill-rule:evenodd;"/></g><path d="M448.91,487.32c-4.6,63.17-13.92,71.88-74.14,76.76,60.22,4.86,69.54,13.57,74.14,76.75,4.6-63.17,13.92-71.89,74.15-76.75-60.23-4.87-69.55-13.58-74.15-76.76Z" style="fill:#fff; fill-rule:evenodd;"/><path d="M1757.89,838.09c-4.61,63.17-13.92,71.88-74.15,76.75,60.23,4.86,69.54,13.58,74.15,76.75,4.6-63.17,13.91-71.89,74.14-76.75-60.23-4.87-69.54-13.58-74.14-76.75Z" style="fill:#fff; fill-rule:evenodd;"/><path d="M861.8,794.25c-3.32,45.5-10.03,51.78-53.41,55.28,43.39,3.51,50.09,9.79,53.41,55.29,3.32-45.5,10.03-51.79,53.42-55.29-43.39-3.5-50.1-9.78-53.42-55.28Z" style="fill:#fff; fill-rule:evenodd;"/><path d="M775.24,255.47c-1.99,27.32-6.02,31.1-32.07,33.2,26.05,2.11,30.08,5.87,32.07,33.19,1.99-27.32,6.02-31.09,32.07-33.19-26.05-2.11-30.08-5.88-32.07-33.2Z" style="fill:#fff; fill-rule:evenodd;"/><path d="M1625.6,582.6c-1.99,27.33-6.02,31.1-32.07,33.2,26.05,2.11,30.08,5.87,32.07,33.2,2-27.33,6.02-31.1,32.07-33.2-26.05-2.11-30.07-5.87-32.07-33.2Z" style="fill:#fff; fill-rule:evenodd;"/><path d="M1084.34,11.06c-2,27.32-6.02,31.1-32.07,33.2,26.05,2.1,30.07,5.87,32.07,33.2,1.99-27.33,6.02-31.1,32.07-33.2-26.05-2.11-30.08-5.88-32.07-33.2Z" style="fill:#fff; fill-rule:evenodd;"/></svg>