<?xml version="1.0" encoding="UTF-8"?><svg id="a" xmlns="http://www.w3.org/2000/svg" viewBox="0 0 2009.32 1280.37"><path d="M1665.77,1198.12c430.85-212.91,279.31-622.13,122.08-854.24C1567.7,18.9,1047.51-97.9,832.34,161.39,540.29,513.33,244.89,430.08,144.13,659.63c-100.75,229.54,84.09,453.92,188.08,538.96,178.07-7.5,416.57-12.07,672.46-12.07s484.42,4.37,661.1,11.6h0ZM618.66,292.48c-112.76,72.18-299.27,128.11-361.21,51.38-46.27-57.33,10.73-164.9,122.36-246.46C491.37,15.91,640.83-33.43,722.29,26.59c96.67,71.21-16.8,210.31-103.63,265.89Z" style="fill:#e9eff8; fill-rule:evenodd;"/><path d="M1864.25,581.46c2.6,7.11-1.05,14.99-8.15,17.59-7.1,2.61-14.98-1.04-17.59-8.15-13.16-35.75-28.99-70.76-46.44-104.25-19.33-37.11-40.43-71.99-61.89-103.68-18.93-27.94-40.42-54.21-63.92-78.68-24.34-25.31-50.85-48.67-78.95-69.9-34.89-26.36-72.62-49.76-112.16-69.63-39.43-19.82-80.85-36.23-123.23-48.66-7.25-2.13-11.41-9.74-9.27-17,2.13-7.26,9.74-11.41,17-9.27,43.8,12.84,86.72,29.86,127.74,50.47,41.28,20.73,80.45,45.01,116.44,72.21,29.13,22.02,56.74,46.33,82.16,72.8,24.45,25.44,46.91,52.92,66.82,82.31,22.34,32.99,44.05,68.82,63.61,106.37,17.91,34.36,34.21,70.43,47.84,107.47h0ZM1251.83,67.05c7.48,.95,12.8,7.79,11.84,15.29-.95,7.49-7.79,12.8-15.28,11.85-32.27-4.17-65.61-5.9-98.87-4.47-30.59,1.32-61.12,5.34-90.68,12.6-7.35,1.8-14.77-2.69-16.57-10.04-1.81-7.34,2.69-14.77,10.03-16.56,31.32-7.7,63.65-11.95,96.04-13.35,34.79-1.49,69.69,.31,103.48,4.68h0ZM500.7,465.75c6.87-3.17,15.01-.17,18.18,6.7,3.17,6.88,.16,15.01-6.71,18.18-26.92,12.39-53.12,23.4-79.31,34.41-24.06,10.11-48.13,20.22-70.96,30.56-15.65,7.09-31.22,14.49-45.92,22.49-14.66,7.98-28.91,16.79-42.26,26.87-6.04,4.56-14.63,3.36-19.19-2.68-4.56-6.04-3.37-14.64,2.68-19.2,14.32-10.8,29.74-20.33,45.7-29.02,15.91-8.67,31.92-16.3,47.74-23.46,24.32-11.01,47.97-20.95,71.61-30.88,26.62-11.19,53.26-22.38,78.46-33.98h0Zm-285.27,157.14c4.77-5.85,13.39-6.74,19.26-1.98,5.85,4.77,6.74,13.38,1.98,19.25-5.7,7-10.94,14.46-15.75,22.43-4.84,8.02-9.15,16.34-12.95,25.01-3.02,6.92-11.09,10.09-18.02,7.08-6.92-3.02-10.09-11.09-7.08-18.02,4.4-10.01,9.23-19.4,14.56-28.22,5.35-8.87,11.33-17.37,18-25.55h0ZM715.9,86.46c1.68,7.37-2.92,14.72-10.29,16.41-7.38,1.68-14.73-2.92-16.41-10.3-.37-1.63-1.22-3.13-2.35-4.51-1.53-1.88-3.61-3.66-5.87-5.33-9.24-6.8-20.93-10.43-33.32-12.02-17.07-2.18-35.59-.49-51.39,2.3-22.4,3.95-45.08,10.94-67.11,19.85-25.12,10.16-49.47,22.83-71.62,36.36-6.46,3.93-14.89,1.9-18.82-4.56-3.94-6.45-1.9-14.88,4.55-18.82,23.32-14.24,49.04-27.61,75.71-38.4,23.8-9.63,48.33-17.19,72.58-21.46,17.86-3.15,39.1-5.02,59.55-2.4,16.71,2.14,32.78,7.27,46.08,17.06l.06,.06c3.89,2.87,7.65,6.15,10.86,10.09,3.61,4.46,6.42,9.6,7.81,15.67h0Zm-334.67,63.47c5.81-4.82,14.43-4.03,19.25,1.77,4.83,5.81,4.04,14.43-1.77,19.26-14.98,12.43-29.61,26.24-42.67,41.02-11.55,13.06-21.85,26.85-30.02,41.02-3.76,6.54-12.12,8.8-18.66,5.04-6.55-3.76-8.8-12.12-5.04-18.66,9.18-15.93,20.57-31.21,33.24-45.54,14.01-15.84,29.66-30.63,45.68-43.92Z" style="fill:#fff; fill-rule:evenodd;"/><path d="M373.84,1196.93c10.12-96.28-23.49-80.6-69.11-145.99-18.82-26.99-18.03-51.14-4.92-79.9,8.61-18.87,17.33-42.37,6.91-62.24-11.3-21.55-33.1-22.52-53.96-27.12-53.61-11.83-70.72-55.4-97.7-97-6.97-10.75-16.65-20.54-28.99-23.69-59.46-15.11-80.63,81.75-56.72,119.9,14.94,23.84,38.32,39.72,53.5,63.7,13.56,21.42,13.32,38.35,10.82,62.37-3.98,38.15,15.09,73.93,41.5,99.89,14.99,14.74,31.57,28.5,42.29,46.96,11.25,19.37,29,35.43,49.69,47.77,33.1-1.67,68.76-3.24,106.7-4.66Z" style="fill:#d0d9ee; fill-rule:evenodd;"/><path d="M349.35,1197.88c-21.05-21.15-38.49-41.3-53.21-60.62-.66-16.74,1.46-34.62,6.38-53.61-6.22,14.69-11.93,28.39-14.22,43.07-32.56-45.06-50.64-85.69-65.66-124.35,6.2-25.04,17.89-50.26,35.06-75.66-17.48,19.04-30.72,40.2-39.73,63.49-22.68-59.87-40.8-115.55-98.05-176.53,23.9,34.24,40.81,65.57,54.57,95.59-20.52-11.12-42.76-18.35-66.76-21.73,28.31,8.44,52.52,20.05,72.61,34.83,21.94,50.38,36.46,97.71,62.41,149.88-20.58-11.19-42.93-18.48-67.01-21.87,29.12,8.68,53.9,20.71,74.32,36.11,18.26,34.4,42.04,71.14,76.45,112.35,7.51-.32,15.12-.64,22.83-.95Z" style="fill:#e9eff8; fill-rule:evenodd;"/><path d="M333.43,1198.53c-21.43-61.67-40.36-42.75-90.18-72.75-21.27-12.8-28.1-29.78-27.81-53.79,.2-15.76-.94-34.75-14.22-45.25-14.42-11.39-29.8-5.26-45.66-1.94-40.73,8.55-65.88-16.28-97.27-36.65-8.12-5.27-17.81-9.03-27.32-7.35-45.78,8.11-30.86,81.78-2.65,100.73,17.62,11.85,38.66,15.54,56.5,27.4,15.93,10.6,20.93,22.4,26.53,39.81,8.89,27.67,33.03,46.49,59.25,56.22,1.78,.66,3.58,1.31,5.37,1.95,45.26-3.08,98.16-5.89,157.45-8.38Z" style="fill:#bcc9e7; fill-rule:evenodd;"/><path d="M288.13,1200.56c-8.68-4.03-16.82-8.14-24.46-12.32-5.57-11.39-9.55-24.42-11.95-39.1,.17,12.11,.41,23.38,3.3,34.25-36.31-21.03-61.24-43.52-83.44-65.6-3.36-19.27-2.97-40.39,1.17-63.35-6.29,18.64-9,37.43-8.12,56.37-33.99-34.37-63.54-67.27-121.81-91.62,27.02,16.25,48.29,32.66,66.98,49.17-17.59-1.3-35.22,.63-52.86,5.79,22.18-2.99,42.48-2.52,60.91,1.45,30.58,28.04,55.09,56.28,88.99,84.3-17.67-1.32-35.37,.61-53.08,5.78,22.82-3.08,43.65-2.48,62.5,1.8,14.6,11.44,31.02,22.83,50.29,34.15,7.07-.36,14.26-.72,21.58-1.06Z" style="fill:#dee7f5; fill-rule:evenodd;"/><path d="M1668.49,1196.85c-22.07-92.59,11.63-80.75,47.33-148.23,14.57-27.52,11.05-50.09-4.55-75.53-10.24-16.69-21.11-37.7-13.62-57.57,8.14-21.54,28.46-25.01,47.51-31.77,48.93-17.38,59.97-60.26,80.52-102.43,5.31-10.91,13.26-21.24,24.48-25.62,54.05-21.14,85.01,67.23,66.96,105.82-11.28,24.12-31.39,41.75-42.88,66.03-10.26,21.68-8.1,37.53-2.99,59.77,8.12,35.32-5.68,71.12-27.47,98.58-12.37,15.57-26.34,30.43-34.28,49.01-11.88,27.82-36.98,50.86-65.67,66.77-23.06-1.16-47.38-2.28-72.84-3.34l-2.51-1.48Z" style="fill:#d0d9ee; fill-rule:evenodd;"/><path d="M1685.14,1198.92c19.95-25.04,35.81-48.35,48.64-70.34-1.29-15.79-5.33-32.3-12.13-49.53,7.52,13.04,14.44,25.23,18.27,38.73,25.37-46.09,37.68-86.32,47.32-124.34-8.68-22.76-22.54-45.04-41.57-66.87,18.58,15.81,33.43,34.1,44.55,54.89,14.4-58.82,25.01-113.18,71.72-177.08-18.5,34.93-30.76,66.3-40.22,96.08,17.96-12.83,38.01-22.24,60.13-28.22-25.6,11.24-46.96,24.96-64.11,41.19-14.79,49.84-22.98,95.93-41.35,147.91,18.02-12.91,38.14-22.37,60.35-28.38-26.33,11.56-48.18,25.76-65.58,42.58-14.19,37.06-34.07,77.41-65.34,124.29-6.81-.3-13.7-.61-20.69-.92Z" style="fill:#e9eff8; fill-rule:evenodd;"/><path d="M1643.58,1197.23c-3.27-14.95,4.67-26.49,4.41-54.16-.15-17.85-8.05-28.2-22.78-36.63-9.68-5.54-20.84-13.06-22.46-25.11-1.77-13.06,7.49-20.45,15.21-29.13,19.84-22.3,13.73-46.89,12.59-73.74-.29-6.95,.89-14.34,5.33-19.66,21.38-25.62,60.91,10.13,62.32,34.52,.9,15.23-4.41,29.66-3.58,45.03,.75,13.73,6.13,21.08,14.73,30.83,13.67,15.48,16.47,37.27,12.99,57.09-1.98,11.26-4.96,22.58-3.9,34.11,1.2,13.05-2.14,26.84-8.19,39.69-21.32-.98-43.53-1.93-66.66-2.82Z" style="fill:#bcc9e7; fill-rule:evenodd;"/><path d="M1677.36,1198.59c.71-7.12,1.14-13.89,1.35-20.38-4.94-7.57-11.45-14.73-19.54-21.5,7.31,4.46,14.1,8.65,19.69,14.37,.22-30.17-4.54-53.77-10.02-75.54-10.54-9.01-23.54-16.35-39.02-22,13.61,2.77,26.04,7.83,37.27,15.17-8.75-33.51-18.19-63.74-12.1-108.76,.21,22.65,2.57,41.8,5.9,59.37,5.53-11.43,13.04-21.71,22.51-30.85-9.79,12.74-16.78,25.57-20.98,38.46,6.1,29.12,14.51,54.52,19.41,85.7,5.53-11.48,13.06-21.81,22.57-30.99-10.06,13.11-17.18,26.3-21.34,39.58,2.21,16.96,3.31,35.74,2.46,57.72l-8.17-.35Z" style="fill:#dee7f5; fill-rule:evenodd;"/><path d="M1877.79,752.48c-17.67-13.59-17.17-26.91-11.68-30.26,5.5-3.36,16.66,10.57,13.76,29.78,1.13,2.13,2.25,4.27,3.33,6.41,9.13,18.12,16.2,37.26,21.25,56.89,5.05,19.66,8.09,39.83,9.14,60.09,1.05,20.28,.08,40.67-2.84,60.77-2.93,20.14-7.86,39.99-14.79,59.13-6.91,19.13-15.85,37.51-26.7,54.73-.72,1.13-2.54,.12-1.83-1.01,1.31-2.09,2.59-4.19,3.83-6.3,10.26-17.4,18.61-35.93,24.98-55.08,6.35-19.06,10.76-38.76,13.21-58.7,2.47-20.06,2.93-40.39,1.42-60.55-1.5-20.04-4.98-39.94-10.46-59.27-5.5-19.45-13.03-38.3-22.47-56.15-.08-.16-.13-.32-.14-.47h0Zm13.6,19.58s6.32-3.42,11.55-8.65c2.61-2.6,4.87-5.65,5.95-8.94,1.08-3.29,.95-6.84-1.43-10.18-4.71-6.72-9.34-3.55-12.44,3.1-1.59,3.34-2.69,7.46-3.41,11.81-.74,4.35-.79,8.78-.23,12.85h0Zm-.84,12.78c-1.18-1.62-2.56-3.17-4.14-4.56-1.62-1.37-3.37-2.61-5.17-3.68-3.58-2.17-7.54-3.56-11-4.11-6.91-1.11-12.02,1.12-10.28,7.49,.46,1.59,1.22,2.86,2.25,3.85,1.04,.99,2.36,1.71,3.86,2.22,1.51,.5,3.19,.8,4.96,.95,1.75,.16,3.57,.18,5.37,.09,7.24-.34,14.16-2.25,14.16-2.25h0Zm12.72,20s6.66-2.63,12.45-7.17c2.89-2.26,5.56-5.02,7.06-8.16,1.47-3.12,1.67-6.6-.18-10.23-3.87-7.21-8.92-4.62-12.72,1.56-1.9,3.08-3.7,7.11-4.85,11.3-.57,2.09-1.06,4.26-1.39,6.4-.32,2.15-.45,4.27-.36,6.3h0Zm-2.36,12.58c-1.95-3.5-4.97-6.72-8.27-9.3-3.4-2.54-7.08-4.45-10.42-5.43-3.37-.97-6.43-1.05-8.48-.08-2.06,.97-3.08,2.96-2.67,6.29,.94,6.56,8.19,8.53,15.49,9.07,7.28,.52,14.35-.56,14.35-.56h0Zm10.23,21.37s6.94-1.84,13.24-5.68c3.18-1.92,6.11-4.33,7.93-7.26,1.78-2.91,2.56-6.38,1.04-10.16-2.98-7.6-8.23-5.64-12.83,.06-2.33,2.85-4.39,6.58-6.14,10.63-.86,2.02-1.57,4.1-2.11,6.2-.52,2.08-.98,4.19-1.13,6.21h0Zm-3.78,12.23c-.78-1.85-1.8-3.67-2.99-5.39-1.21-1.72-2.66-3.34-4.16-4.81-1.52-1.47-3.12-2.78-4.75-3.9-1.66-1.12-3.36-2.03-4.98-2.71-6.48-2.73-11.97-1.8-11.75,4.86,.07,6.67,7.22,9.44,14.31,10.84,7.12,1.36,14.31,1.11,14.31,1.11h0Zm7.28,17.1s1.78-.26,4.39-.92c2.6-.64,6.04-1.67,9.37-3.22,3.33-1.55,6.55-3.61,8.72-6.32,2.2-2.7,3.15-6.02,2.19-9.95-.96-3.94-2.97-5.56-5.23-5.58-2.27,0-4.92,1.62-7.49,4.17-2.63,2.55-5.23,6.05-7.33,9.86-2.13,3.81-3.88,7.96-4.61,11.96Z" style="fill:#99a9d4; fill-rule:evenodd;"/><path d="M286.25,913.79c14.08-17.29,10.53-30.15,4.42-32.14-6.12-2.01-13.78,14.11-6.55,32.14-.62,2.33-1.21,4.67-1.78,7.01-4.72,19.73-7.2,39.98-7.61,60.26-.4,20.29,1.29,40.62,4.92,60.58,3.64,19.99,9.27,39.6,16.73,58.49,7.47,18.93,16.84,37.12,27.98,54.15,11.13,17.03,24.05,32.87,38.56,47.13,.96,.94,2.5-.46,1.55-1.4-1.76-1.73-3.48-3.48-5.18-5.26-13.98-14.57-26.36-30.69-36.97-47.85-10.56-17.09-19.37-35.25-26.34-54.1-7.02-18.96-12.14-38.65-15.3-58.62-3.15-19.85-4.32-40-3.44-60.08,.89-20.19,3.87-40.26,8.97-59.81,.05-.17,.06-.34,.03-.48h0Zm-8.73,22.17s-6.93-1.87-13.23-5.75c-3.13-1.94-6.04-4.38-7.85-7.34-1.8-2.95-2.5-6.43-.94-10.23,3.03-7.63,8.27-5.61,12.82,.15,2.31,2.88,4.32,6.65,6.03,10.72,1.72,4.08,2.78,8.36,3.18,12.45h0Zm3.76,12.24c.78-1.85,1.77-3.66,2.99-5.38,1.25-1.7,2.67-3.31,4.18-4.77,2.98-2.93,6.52-5.19,9.76-6.54,6.48-2.67,11.96-1.68,11.72,4.93-.08,1.65-.52,3.06-1.3,4.27-.79,1.21-1.9,2.21-3.25,3.05-1.34,.84-2.91,1.51-4.6,2.07-1.67,.56-3.43,.98-5.21,1.31-7.11,1.33-14.29,1.06-14.29,1.06h0Zm-7.79,22.39s-7.09-1.03-13.77-4.11c-3.33-1.54-6.56-3.61-8.74-6.32-2.14-2.71-3.14-6.04-2.18-10,2.11-7.92,7.62-6.55,12.74-1.42,2.55,2.56,5.23,6.08,7.32,9.89,1.03,1.9,2.01,3.9,2.83,5.91,.8,2.01,1.42,4.05,1.8,6.04h0Zm5.19,11.71c1.09-3.86,3.28-7.69,5.9-10.95,2.71-3.25,5.87-5.95,8.89-7.68,3.07-1.72,6.03-2.5,8.24-2.02,2.23,.47,3.68,2.18,4.04,5.5,.6,6.6-6.01,10.2-12.99,12.39-6.96,2.18-14.08,2.76-14.08,2.76h0Zm-5.05,23.15s-7.18-.2-14.2-2.48c-3.54-1.14-6.94-2.82-9.38-5.26-2.4-2.43-3.96-5.61-3.34-9.64,1.14-8.08,6.71-7.39,12.5-2.9,2.9,2.24,5.77,5.41,8.41,8.95,1.3,1.77,2.48,3.63,3.48,5.54,.98,1.9,1.92,3.84,2.54,5.79h0Zm6.49,11.03c.33-1.99,.91-3.99,1.67-5.94,.78-1.95,1.82-3.85,2.95-5.63,1.14-1.78,2.39-3.42,3.72-4.89,1.37-1.47,2.8-2.74,4.22-3.78,5.68-4.14,11.25-4.49,12.54,2.03,1.48,6.51-4.85,10.86-11.43,13.85-6.62,2.96-13.68,4.36-13.68,4.36h0Zm-3.15,18.32s-1.81,.14-4.48,.11c-2.69-.03-6.26-.24-9.86-.97-3.6-.74-7.21-2.01-9.94-4.15-2.76-2.11-4.45-5.14-4.41-9.17,.02-4.05,1.61-6.1,3.79-6.63,2.22-.53,5.16,.43,8.26,2.33,3.14,1.88,6.48,4.68,9.39,7.91,2.95,3.22,5.62,6.87,7.25,10.58Z" style="fill:#99a9d4; fill-rule:evenodd;"/><path d="M1704.05,1199.49c12.99-71,32.71-52.29,78.04-87.87,18.49-14.52,22.95-31.23,19.92-53.73-1.99-14.75-3.11-32.7,8.14-44.11,12.21-12.38,27.35-8.44,42.6-7.17,39.19,3.23,59.93-23,87.04-45.8,7-5.89,15.66-10.56,24.77-10.09,43.88,2.23,38.34,73.09,14.05,94.18-15.17,13.19-34.49,19.12-49.85,32.33-13.73,11.81-17.07,23.47-20.33,40.46-5.17,27-25.65,47.48-49.13,59.69-13.32,6.92-27.54,12.86-38.71,23.23-1.92,1.79-3.94,3.48-6.05,5.07-33.23-2.11-70.14-4.08-110.3-5.9l-.2-.28Z" style="fill:#bcc9e7; fill-rule:evenodd;"/><path d="M1725.05,1200.74c17.12-9.34,31.96-18.73,45.05-28.13,3.93-11.34,6.17-24.04,6.73-38.09,1.22,11.39,2.3,21.97,.83,32.53,31.64-24,52.45-48.01,70.74-71.33,.95-18.47-1.84-38.23-8.36-59.29,8.04,16.75,12.73,34.06,14.08,51.93,27.94-36.23,51.88-70.57,103.74-100.23-23.47,18.41-41.54,36.29-57.18,53.96,16.36-3.27,33.11-3.53,50.25-.76-21.15-.22-40.14,2.62-56.97,8.49-25.46,29.89-45.21,59.25-73.81,89.51,16.43-3.31,33.25-3.58,50.46-.79-21.76-.22-41.22,2.78-58.41,9.01-17.58,17.65-38.57,35.64-65.81,54.25-6.98-.36-14.11-.71-21.33-1.06Z" style="fill:#dee7f5; fill-rule:evenodd;"/><path d="M1004.67,1186.52c554.85,0,1004.66,21.01,1004.66,46.93s-449.8,46.93-1004.66,46.93S0,1259.36,0,1233.45s449.8-46.93,1004.67-46.93Z" style="fill:#d0d9ee; fill-rule:evenodd;"/><path d="M695.91,130.61c-1.4,0-2.54-1.13-2.54-2.54s1.14-2.53,2.54-2.53l5.12,.07c1.4,.03,2.5,1.19,2.47,2.59-.03,1.39-1.2,2.5-2.59,2.46l-4.99-.06h0Zm-22.65-3.76c1.39-.17,2.66,.82,2.82,2.2,.17,1.39-.82,2.66-2.2,2.82-1.66,.2-3.31,.4-4.96,.63-1.38,.21-2.67-.75-2.87-2.13-.21-1.39,.75-2.67,2.13-2.88,1.69-.25,3.39-.45,5.08-.65h0Zm-30.15,5.92c1.34-.38,2.74,.4,3.12,1.74,.38,1.35-.4,2.74-1.75,3.13l-4.79,1.41c-1.33,.42-2.75-.33-3.17-1.66-.42-1.33,.33-2.75,1.67-3.17,1.64-.51,3.27-.99,4.92-1.45h0Zm-28.86,10.6c1.27-.6,2.78-.05,3.37,1.22,.6,1.27,.05,2.77-1.22,3.37-1.5,.7-3.03,1.41-4.51,2.16-1.25,.61-2.77,.1-3.4-1.14-.62-1.25-.1-2.77,1.14-3.4l4.62-2.2h0Zm-26.81,15.02c1.16-.78,2.73-.47,3.52,.68,.78,1.16,.46,2.73-.69,3.51l-4.11,2.84c-1.14,.8-2.72,.54-3.53-.6-.8-1.14-.55-2.72,.6-3.53l4.22-2.9h0Zm-24.13,19.03c1.02-.96,2.63-.9,3.58,.12,.96,1.02,.9,2.63-.12,3.58l-3.63,3.44c-.99,.97-2.6,.96-3.58-.04-.97-1-.96-2.61,.05-3.58l3.71-3.53h0Zm-20.86,22.55c.86-1.1,2.46-1.28,3.56-.42,1.1,.86,1.29,2.45,.42,3.55-1.03,1.31-2.03,2.62-3.03,3.94-.83,1.14-2.42,1.37-3.55,.54-1.12-.83-1.36-2.41-.53-3.54,1.05-1.34,2.06-2.73,3.13-4.08h0Zm-17.09,25.55c.68-1.22,2.23-1.66,3.44-.97,1.22,.68,1.66,2.22,.98,3.44-.82,1.45-1.61,2.91-2.38,4.38-.65,1.24-2.18,1.72-3.41,1.08-1.24-.64-1.72-2.18-1.08-3.41,.8-1.5,1.61-3.03,2.45-4.51h0Zm-12.86,27.91c.48-1.31,1.94-1.99,3.24-1.5,1.31,.47,2,1.93,1.51,3.24l-1.66,4.69c-.44,1.33-1.88,2.05-3.21,1.61-1.32-.44-2.04-1.87-1.6-3.2,.6-1.56,1.13-3.24,1.7-4.84h0Zm-8.3,29.61c.27-1.37,1.59-2.27,2.96-2.01,1.37,.26,2.27,1.59,2.01,2.96l-.9,4.92c-.23,1.37-1.53,2.31-2.91,2.08-1.38-.23-2.31-1.52-2.08-2.9l.92-5.04h0Zm-3.53,30.52c.05-1.39,1.21-2.49,2.61-2.45,1.39,.05,2.49,1.22,2.44,2.61l-.11,4.99c0,1.4-1.14,2.53-2.54,2.52-1.4,0-2.53-1.14-2.52-2.54,0-1.71,.07-3.41,.12-5.13h0Zm1.25,30.7c-.17-1.38,.82-2.65,2.21-2.82,1.38-.16,2.65,.82,2.81,2.21,.19,1.66,.42,3.3,.65,4.96,.21,1.38-.75,2.66-2.14,2.87-1.38,.2-2.67-.76-2.87-2.14-.25-1.68-.48-3.39-.67-5.08h0Zm6.03,30.15c-.39-1.34,.39-2.74,1.72-3.13,1.34-.39,2.75,.38,3.14,1.72,.45,1.6,.93,3.2,1.43,4.79,.43,1.33-.32,2.76-1.65,3.18-1.33,.43-2.75-.31-3.18-1.65-.52-1.62-.99-3.27-1.47-4.91h0Zm10.72,28.8c-.6-1.27-.05-2.77,1.22-3.37,1.26-.6,2.77-.05,3.37,1.22,.69,1.5,1.42,3.01,2.16,4.49,.62,1.25,.12,2.77-1.12,3.4-1.26,.63-2.78,.13-3.41-1.12-.78-1.48-1.52-3.1-2.22-4.63h0Zm15.12,26.75c-.79-1.15-.47-2.73,.68-3.51,1.16-.79,2.73-.47,3.51,.68,.93,1.37,1.87,2.75,2.84,4.1,.82,1.13,.57,2.71-.57,3.53-1.14,.82-2.71,.56-3.54-.57-.98-1.4-1.97-2.81-2.92-4.23h0Zm19.13,24.07c-.96-1.02-.91-2.62,.11-3.58,1.01-.96,2.62-.91,3.58,.11l3.45,3.61c.98,.99,.97,2.59-.02,3.58-.99,.98-2.6,.97-3.58-.02-1.2-1.22-2.37-2.46-3.55-3.7h0Zm22.64,20.77c-1.1-.85-1.3-2.45-.44-3.55,.86-1.11,2.45-1.31,3.55-.45,1.31,1.03,2.64,2.04,3.98,3.04,1.13,.83,1.36,2.41,.54,3.54-.83,1.13-2.42,1.36-3.55,.53l-4.08-3.1h0Zm25.62,16.99c-1.22-.67-1.67-2.21-1-3.43,.68-1.22,2.22-1.67,3.44-1l4.41,2.37c1.23,.64,1.72,2.18,1.07,3.42-.64,1.24-2.18,1.72-3.41,1.08l-4.5-2.43h0Zm27.96,12.75c-1.31-.47-2-1.92-1.52-3.23,.47-1.31,1.92-2,3.24-1.52l4.72,1.65c1.32,.44,2.04,1.87,1.61,3.2-.44,1.33-1.87,2.04-3.21,1.61l-4.83-1.69h0Zm29.62,8.19c-1.37-.27-2.27-1.6-2.01-2.97,.26-1.36,1.59-2.27,2.96-2.01,1.63,.32,3.29,.56,4.9,.88,1.38,.22,2.33,1.52,2.1,2.89-.21,1.38-1.51,2.32-2.89,2.11l-5.06-.91h0Zm30.54,3.41c-1.39-.04-2.49-1.21-2.44-2.6,.04-1.4,1.21-2.49,2.6-2.45l4.99,.1c1.4,0,2.53,1.14,2.52,2.54,0,1.4-1.14,2.53-2.54,2.52l-5.13-.11h0Zm30.7-1.35c-1.38,.17-2.65-.81-2.83-2.19-.17-1.38,.81-2.66,2.19-2.83,1.66-.21,3.3-.43,4.95-.68,1.38-.21,2.68,.74,2.89,2.12,.21,1.38-.74,2.68-2.12,2.88-1.69,.26-3.38,.48-5.08,.7h0Zm30.11-6.15c-1.33,.39-2.74-.39-3.13-1.73-.39-1.33,.38-2.74,1.72-3.13,1.61-.45,3.2-.95,4.79-1.45,1.33-.42,2.75,.31,3.18,1.65,.42,1.33-.32,2.76-1.65,3.18-1.63,.51-3.26,1.01-4.91,1.49h0Zm28.77-10.83c-1.27,.6-2.78,.06-3.38-1.21-.6-1.26-.06-2.77,1.21-3.37,1.51-.7,3-1.43,4.49-2.18,1.25-.62,2.77-.12,3.4,1.13,.63,1.24,.13,2.76-1.12,3.4-1.52,.78-3.06,1.52-4.61,2.24h0Zm26.7-15.22c-1.15,.79-2.73,.49-3.52-.66-.8-1.15-.49-2.73,.66-3.52l4.09-2.87c1.13-.81,2.72-.55,3.54,.58,.81,1.14,.56,2.71-.57,3.53l-4.2,2.94h0Zm23.98-19.21c-1.01,.96-2.62,.91-3.58-.11-.95-1.01-.92-2.62,.1-3.58,1.21-1.13,2.38-2.34,3.59-3.45,.98-.98,2.59-.98,3.58,0,.98,.99,.98,2.59,0,3.58l-3.7,3.57h0Zm20.7-22.72c-.86,1.11-2.45,1.31-3.56,.45-1.1-.85-1.3-2.45-.44-3.56l3.01-3.97c.82-1.13,2.4-1.38,3.54-.55,1.13,.81,1.37,2.4,.55,3.53-1.01,1.38-2.06,2.73-3.09,4.1h0Zm16.89-25.68c-.66,1.23-2.2,1.68-3.42,1.01-1.23-.66-1.68-2.2-1.02-3.42l2.36-4.41c.63-1.25,2.16-1.74,3.41-1.11,1.24,.63,1.73,2.17,1.1,3.41l-2.41,4.52h0Zm12.65-28c-.47,1.31-1.93,2-3.24,1.52-1.31-.47-2-1.92-1.52-3.23l1.63-4.71c.44-1.32,1.86-2.05,3.19-1.62,1.33,.43,2.06,1.85,1.63,3.19l-1.67,4.85h0Zm8.07-29.66c-.26,1.37-1.58,2.28-2.95,2.02s-2.28-1.58-2.02-2.94l.86-4.93c.22-1.37,1.51-2.32,2.89-2.1,1.38,.22,2.33,1.51,2.11,2.89l-.89,5.05h0Zm3.3-30.56c-.03,1.4-1.19,2.51-2.59,2.47-1.4-.03-2.5-1.19-2.47-2.59l.09-4.99c0-1.4,1.13-2.53,2.53-2.53s2.54,1.13,2.54,2.53l-.09,5.12h0Zm-1.48-30.68c.17,1.38-.81,2.65-2.19,2.83-1.38,.17-2.65-.81-2.83-2.19-.15-1.56-.42-3.38-.69-4.93-.22-1.38,.72-2.68,2.1-2.9,1.38-.22,2.68,.73,2.9,2.11,.25,1.66,.54,3.42,.71,5.09h0Zm-6.27-30.11c.4,1.34-.36,2.75-1.7,3.15-1.33,.4-2.74-.36-3.14-1.7l-1.47-4.78c-.44-1.33,.29-2.76,1.63-3.19,1.32-.44,2.75,.29,3.19,1.63l1.49,4.89h0Zm-10.93-28.72c.61,1.26,.08,2.77-1.18,3.38-1.26,.61-2.77,.08-3.38-1.18l-2.2-4.49c-.63-1.24-.14-2.77,1.1-3.4,1.25-.64,2.77-.15,3.41,1.1,.79,1.51,1.52,3.06,2.26,4.6h0Zm-15.32-26.65c.79,1.14,.51,2.73-.63,3.52-1.15,.8-2.73,.51-3.53-.63l-2.88-4.09c-.82-1.14-.58-2.71,.55-3.54,1.14-.82,2.71-.57,3.54,.56l2.95,4.18h0Zm-19.3-23.9c.96,1,.92,2.61-.09,3.58-1.01,.96-2.62,.92-3.58-.08l-3.49-3.59c-.98-.99-.98-2.59,0-3.58,.99-.98,2.59-.98,3.59,0l3.57,3.68h0Zm-22.8-20.61c1.11,.85,1.31,2.44,.46,3.55-.84,1.11-2.43,1.32-3.55,.47l-4-3c-1.13-.82-1.37-2.41-.55-3.54,.82-1.14,2.4-1.38,3.54-.56l4.1,3.07h0Zm-25.74-16.79c1.23,.66,1.68,2.2,1.01,3.42-.66,1.23-2.2,1.68-3.42,1.02l-4.39-2.33c-1.27-.63-1.77-2.16-1.14-3.41,.62-1.25,2.15-1.75,3.4-1.12,1.48,.81,3.05,1.59,4.54,2.4h0Zm-28.06-12.54c1.31,.46,2.01,1.91,1.54,3.23-.46,1.31-1.91,2.01-3.23,1.54l-4.73-1.61c-1.33-.44-2.06-1.86-1.63-3.19,.43-1.33,1.85-2.06,3.19-1.63,1.62,.54,3.24,1.08,4.85,1.66h0Zm-29.7-7.96c1.37,.25,2.29,1.56,2.05,2.93-.25,1.38-1.56,2.29-2.94,2.05l-4.93-.84c-1.38-.21-2.33-1.5-2.11-2.89,.21-1.38,1.49-2.33,2.88-2.12,1.68,.26,3.37,.56,5.05,.86Z" style="fill:#d0d9ee; fill-rule:evenodd;"/><path d="M1437.64,207.22c-1.37,0-2.49-1.12-2.49-2.49s1.12-2.49,2.49-2.49l5.02,.07c1.38,.03,2.46,1.17,2.43,2.54-.04,1.37-1.17,2.46-2.54,2.42l-4.91-.06h0Zm-22.24-3.7c1.36-.16,2.61,.8,2.77,2.18,.16,1.36-.81,2.59-2.18,2.76-1.62,.19-3.24,.39-4.86,.62-1.36,.2-2.62-.74-2.82-2.1-.2-1.35,.74-2.62,2.1-2.82,1.66-.25,3.32-.44,4.99-.64h0Zm-29.61,5.82c1.31-.37,2.69,.4,3.06,1.71,.37,1.32-.4,2.7-1.72,3.06l-4.7,1.39c-1.3,.41-2.71-.32-3.11-1.64-.41-1.31,.32-2.71,1.64-3.11,1.61-.5,3.22-.97,4.83-1.42h0Zm-28.35,10.41c1.25-.58,2.72-.04,3.31,1.2,.58,1.24,.05,2.72-1.2,3.3-1.49,.69-2.97,1.39-4.44,2.12-1.22,.61-2.72,.1-3.33-1.12-.61-1.23-.1-2.72,1.13-3.34l4.53-2.17h0Zm-26.33,14.76c1.13-.77,2.69-.46,3.44,.66,.77,1.14,.47,2.69-.66,3.45l-4.05,2.79c-1.12,.79-2.68,.53-3.47-.6-.79-1.12-.53-2.67,.6-3.46l4.14-2.85h0Zm-23.7,18.69c1-.94,2.58-.88,3.52,.12,.93,1,.87,2.58-.13,3.51l-3.56,3.39c-.98,.96-2.56,.94-3.52-.05-.96-.97-.94-2.55,.04-3.51l3.65-3.46h0Zm-20.49,22.15c.85-1.08,2.41-1.26,3.49-.42,1.08,.85,1.27,2.41,.42,3.49-1.01,1.28-2,2.56-2.97,3.87-.82,1.12-2.38,1.35-3.49,.53-1.1-.81-1.33-2.36-.52-3.47,1.03-1.32,2.02-2.69,3.07-4h0Zm-16.78,25.09c.66-1.19,2.18-1.63,3.38-.96,1.2,.67,1.63,2.19,.95,3.39-.8,1.42-1.56,2.86-2.34,4.3-.63,1.21-2.14,1.68-3.35,1.06-1.22-.64-1.69-2.15-1.06-3.36,.79-1.48,1.58-2.97,2.41-4.44h0Zm-12.64,27.42c.47-1.29,1.9-1.95,3.19-1.48,1.29,.47,1.95,1.9,1.49,3.19l-1.64,4.62c-.43,1.31-1.83,2.01-3.14,1.58-1.3-.44-2-1.84-1.58-3.14,.6-1.54,1.11-3.2,1.68-4.76h0Zm-8.15,29.08c.26-1.35,1.56-2.23,2.91-1.98,1.34,.26,2.23,1.56,1.98,2.91l-.89,4.82c-.22,1.35-1.5,2.27-2.86,2.04-1.35-.22-2.27-1.5-2.04-2.86l.9-4.95h0Zm-3.46,29.98c.04-1.36,1.19-2.44,2.56-2.4,1.37,.05,2.44,1.2,2.4,2.56l-.12,4.91c0,1.37-1.13,2.48-2.5,2.47-1.37,0-2.48-1.13-2.47-2.5,0-1.67,.07-3.36,.12-5.04h0Zm1.22,30.16c-.16-1.36,.81-2.6,2.18-2.77,1.36-.16,2.6,.81,2.76,2.18,.18,1.62,.41,3.24,.64,4.86,.2,1.35-.74,2.62-2.1,2.82-1.35,.2-2.62-.74-2.82-2.1-.24-1.66-.47-3.32-.66-4.98h0Zm5.93,29.61c-.38-1.31,.38-2.7,1.7-3.08,1.3-.38,2.69,.38,3.07,1.7,.44,1.57,.91,3.14,1.41,4.7,.41,1.31-.31,2.71-1.63,3.12-1.31,.41-2.7-.31-3.12-1.62-.51-1.59-.97-3.22-1.44-4.82h0Zm10.53,28.28c-.59-1.24-.05-2.72,1.19-3.3,1.25-.58,2.73-.05,3.31,1.2,.68,1.48,1.39,2.95,2.12,4.41,.62,1.23,.12,2.72-1.1,3.34-1.23,.61-2.72,.12-3.34-1.1-.77-1.47-1.49-3.05-2.18-4.55h0Zm14.84,26.28c-.77-1.14-.46-2.69,.67-3.44,1.14-.78,2.69-.47,3.45,.67,.91,1.34,1.84,2.7,2.79,4.02,.8,1.11,.55,2.67-.57,3.46-1.11,.8-2.67,.55-3.47-.56-.97-1.37-1.94-2.75-2.88-4.15h0Zm18.8,23.64c-.94-.99-.9-2.57,.1-3.51,1-.94,2.57-.89,3.51,.1l3.4,3.55c.96,.98,.96,2.55-.02,3.52-.97,.96-2.55,.96-3.52-.02-1.17-1.2-2.33-2.41-3.47-3.64h0Zm22.24,20.41c-1.09-.84-1.29-2.4-.44-3.49,.84-1.08,2.4-1.28,3.49-.44,1.29,1.01,2.58,2.01,3.91,2.97,1.1,.81,1.33,2.37,.52,3.48-.81,1.11-2.37,1.34-3.48,.52l-3.99-3.05h0Zm25.15,16.69c-1.2-.66-1.65-2.18-.98-3.38,.66-1.2,2.18-1.64,3.38-.97l4.32,2.33c1.22,.63,1.69,2.14,1.06,3.35-.63,1.22-2.14,1.69-3.35,1.06l-4.43-2.38h0Zm27.46,12.52c-1.29-.46-1.97-1.89-1.5-3.18,.46-1.29,1.89-1.96,3.18-1.49l4.63,1.62c1.31,.43,2.01,1.84,1.57,3.14-.43,1.31-1.83,2.01-3.14,1.58l-4.75-1.67h0Zm29.09,8.04c-1.34-.26-2.22-1.56-1.97-2.9,.25-1.35,1.56-2.23,2.9-1.98,1.6,.31,3.23,.55,4.82,.86,1.35,.22,2.27,1.49,2.06,2.85-.22,1.35-1.49,2.28-2.85,2.06l-4.98-.89h0Zm30,3.36c-1.37-.05-2.45-1.2-2.4-2.56,.04-1.37,1.19-2.45,2.56-2.41l4.9,.1c1.37,0,2.48,1.13,2.47,2.5,0,1.38-1.12,2.49-2.5,2.48l-5.03-.1h0Zm30.16-1.34c-1.35,.17-2.6-.79-2.78-2.15-.17-1.36,.79-2.61,2.16-2.78,1.62-.2,3.24-.42,4.86-.66,1.35-.21,2.63,.72,2.83,2.07,.21,1.36-.72,2.63-2.08,2.84-1.66,.26-3.32,.47-4.98,.68h0Zm29.58-6.04c-1.32,.38-2.7-.38-3.08-1.69-.38-1.32,.38-2.7,1.69-3.08,1.57-.44,3.14-.93,4.7-1.42,1.3-.42,2.71,.31,3.12,1.62,.41,1.31-.31,2.71-1.63,3.12-1.59,.5-3.2,1-4.81,1.46h0Zm28.25-10.63c-1.24,.58-2.73,.06-3.31-1.19-.59-1.24-.06-2.72,1.18-3.31,1.48-.69,2.95-1.4,4.41-2.14,1.23-.62,2.72-.13,3.35,1.1,.62,1.22,.12,2.71-1.11,3.34-1.49,.76-3.01,1.49-4.52,2.2h0Zm26.22-14.96c-1.13,.78-2.68,.48-3.45-.65-.78-1.13-.48-2.68,.65-3.45l4.02-2.81c1.11-.8,2.67-.55,3.47,.56,.79,1.12,.55,2.67-.57,3.47l-4.12,2.89h0Zm23.55-18.87c-.99,.95-2.57,.9-3.51-.1-.95-.99-.89-2.57,.1-3.51,1.18-1.12,2.35-2.3,3.53-3.4,.97-.97,2.54-.97,3.52,0,.96,.96,.96,2.54,0,3.51l-3.64,3.5h0Zm20.33-22.3c-.84,1.08-2.4,1.28-3.48,.44-1.09-.83-1.29-2.4-.44-3.48l2.95-3.91c.8-1.12,2.36-1.35,3.47-.55,1.11,.8,1.35,2.36,.55,3.47-.99,1.36-2.02,2.69-3.05,4.03h0Zm16.6-25.24c-.65,1.21-2.17,1.66-3.37,1-1.21-.65-1.66-2.17-1-3.37l2.31-4.33c.62-1.22,2.13-1.7,3.35-1.08,1.22,.62,1.7,2.12,1.08,3.35l-2.36,4.43h0Zm12.42-27.49c-.46,1.29-1.89,1.96-3.19,1.49-1.29-.46-1.96-1.89-1.49-3.19l1.6-4.62c.43-1.31,1.83-2.01,3.13-1.6,1.31,.43,2.01,1.83,1.6,3.13l-1.65,4.78h0Zm7.93-29.14c-.26,1.35-1.55,2.24-2.89,1.99-1.35-.25-2.24-1.54-2-2.89l.84-4.84c.22-1.35,1.49-2.28,2.86-2.06,1.35,.22,2.27,1.49,2.06,2.85l-.87,4.96h0Zm3.23-30.01c-.03,1.37-1.17,2.46-2.54,2.42-1.37-.03-2.45-1.17-2.42-2.54l.08-4.91c0-1.37,1.11-2.48,2.49-2.48s2.48,1.11,2.48,2.48l-.08,5.03h0Zm-1.45-30.14c.17,1.36-.79,2.61-2.15,2.78-1.36,.17-2.61-.79-2.78-2.16-.16-1.53-.41-3.32-.68-4.84-.22-1.35,.71-2.63,2.06-2.84,1.35-.22,2.63,.71,2.85,2.06,.25,1.63,.54,3.36,.7,4.99h0Zm-6.16-29.57c.4,1.32-.35,2.71-1.67,3.09-1.32,.39-2.71-.35-3.09-1.66l-1.44-4.7c-.43-1.3,.29-2.71,1.59-3.13,1.31-.43,2.71,.29,3.14,1.6l1.47,4.81h0Zm-10.74-28.21c.59,1.24,.07,2.72-1.16,3.31-1.24,.61-2.72,.08-3.32-1.15l-2.17-4.41c-.61-1.22-.13-2.72,1.09-3.35,1.22-.62,2.71-.14,3.34,1.08,.77,1.49,1.49,3.01,2.22,4.52h0Zm-15.05-26.17c.78,1.14,.49,2.69-.62,3.47-1.14,.78-2.69,.49-3.46-.63l-2.84-4.02c-.8-1.1-.56-2.66,.55-3.46,1.11-.81,2.67-.57,3.47,.54l2.9,4.11h0Zm-18.96-23.48c.95,.99,.91,2.56-.08,3.52-.99,.95-2.57,.9-3.52-.08l-3.42-3.53c-.97-.97-.97-2.54,0-3.52,.96-.96,2.54-.96,3.51,0l3.51,3.61h0Zm-22.4-20.23c1.1,.82,1.31,2.39,.47,3.48-.84,1.09-2.4,1.29-3.49,.45l-3.93-2.94c-1.11-.8-1.35-2.36-.55-3.47,.81-1.11,2.36-1.35,3.47-.55l4.02,3.03h0Zm-25.27-16.5c1.2,.65,1.65,2.17,.99,3.37-.65,1.2-2.17,1.65-3.37,.99l-4.31-2.28c-1.25-.62-1.74-2.12-1.12-3.35,.62-1.23,2.12-1.71,3.34-1.1,1.46,.81,2.99,1.57,4.46,2.36h0Zm-27.56-12.33c1.29,.45,1.97,1.88,1.51,3.17-.45,1.3-1.87,1.98-3.17,1.51l-4.64-1.58c-1.31-.42-2.02-1.83-1.6-3.13,.43-1.31,1.83-2.01,3.13-1.59,1.6,.52,3.19,1.06,4.77,1.62h0Zm-29.17-7.82c1.35,.25,2.25,1.53,2.01,2.88-.25,1.35-1.53,2.26-2.89,2.02l-4.84-.83c-1.35-.2-2.28-1.48-2.08-2.83,.21-1.35,1.49-2.28,2.84-2.08,1.66,.26,3.31,.55,4.96,.84Z" style="fill:#d0d9ee; fill-rule:evenodd;"/><path d="M981.18,554.51c-1.31,0-2.37-1.06-2.37-2.36s1.06-2.37,2.37-2.37l4.8,.06c1.31,.04,2.35,1.13,2.31,2.43-.03,1.31-1.12,2.35-2.42,2.32l-4.68-.07h0Zm-21.2-3.52c1.3-.16,2.48,.77,2.63,2.07,.16,1.3-.77,2.48-2.06,2.63-1.55,.19-3.1,.38-4.64,.6-1.3,.2-2.5-.7-2.7-2-.19-1.3,.71-2.5,2.01-2.69,1.58-.24,3.17-.44,4.77-.62h0Zm-28.25,5.54c1.26-.35,2.56,.38,2.92,1.64,.35,1.26-.38,2.57-1.64,2.92l-4.48,1.32c-1.25,.39-2.58-.31-2.97-1.56-.39-1.25,.31-2.58,1.56-2.97,1.52-.47,3.06-.93,4.61-1.35h0Zm-27.03,9.93c1.19-.55,2.6-.04,3.15,1.14,.56,1.19,.05,2.6-1.14,3.15-1.41,.66-2.83,1.32-4.22,2.02-1.17,.58-2.6,.1-3.18-1.07-.59-1.17-.1-2.6,1.07-3.18l4.32-2.07h0Zm-25.1,14.08c1.08-.73,2.55-.44,3.28,.63,.73,1.09,.44,2.56-.63,3.29l-3.86,2.65c-1.07,.76-2.55,.51-3.31-.56-.76-1.06-.5-2.54,.57-3.3l3.95-2.71h0Zm-22.61,17.82c.96-.89,2.46-.83,3.35,.12,.89,.96,.84,2.46-.12,3.35l-3.4,3.22c-.93,.92-2.43,.9-3.35-.04-.92-.93-.9-2.43,.04-3.35l3.48-3.3h0Zm-19.54,21.13c.81-1.03,2.31-1.21,3.33-.4,1.03,.8,1.21,2.3,.4,3.33-.96,1.21-1.9,2.45-2.84,3.69-.79,1.06-2.27,1.29-3.32,.51-1.05-.79-1.28-2.26-.5-3.32,.98-1.26,1.93-2.56,2.93-3.81h0Zm-16,23.92c.63-1.14,2.08-1.55,3.23-.91,1.14,.63,1.55,2.08,.91,3.22-.77,1.35-1.49,2.72-2.22,4.11-.61,1.15-2.04,1.61-3.2,1-1.16-.6-1.61-2.03-1.01-3.2,.76-1.41,1.51-2.83,2.3-4.23h0Zm-12.05,26.15c.45-1.23,1.82-1.86,3.05-1.42,1.22,.46,1.85,1.82,1.41,3.04l-1.55,4.41c-.42,1.25-1.76,1.92-3,1.5-1.25-.42-1.92-1.76-1.5-3,.57-1.47,1.05-3.05,1.6-4.53h0Zm-7.78,27.72c.25-1.29,1.49-2.13,2.78-1.88,1.29,.25,2.13,1.49,1.88,2.77l-.84,4.61c-.21,1.29-1.44,2.17-2.72,1.95-1.3-.21-2.17-1.43-1.96-2.72l.86-4.72h0Zm-3.3,28.59c.05-1.31,1.14-2.34,2.44-2.29,1.31,.04,2.34,1.14,2.3,2.44l-.11,4.68c0,1.31-1.08,2.35-2.38,2.35-1.31,0-2.36-1.08-2.36-2.38,0-1.61,.06-3.21,.11-4.81h0Zm1.17,28.76c-.16-1.31,.77-2.49,2.06-2.64,1.31-.16,2.49,.77,2.64,2.06,.17,1.55,.4,3.1,.61,4.64,.19,1.3-.71,2.5-2.01,2.69-1.29,.19-2.5-.71-2.69-2-.23-1.59-.45-3.18-.62-4.76h0Zm5.65,28.24c-.36-1.26,.36-2.57,1.62-2.93,1.26-.37,2.57,.35,2.94,1.61,.43,1.49,.86,3,1.33,4.48,.4,1.25-.29,2.58-1.54,2.98-1.25,.4-2.58-.29-2.97-1.54-.49-1.51-.95-3.06-1.38-4.6h0Zm10.04,26.98c-.55-1.19-.04-2.6,1.14-3.16,1.19-.55,2.6-.04,3.15,1.14,.65,1.41,1.33,2.82,2.02,4.21,.59,1.17,.12,2.59-1.05,3.19-1.16,.59-2.59,.11-3.18-1.05-.73-1.4-1.43-2.9-2.09-4.33h0Zm14.16,25.06c-.73-1.09-.44-2.56,.64-3.29,1.09-.73,2.56-.45,3.29,.64,.86,1.29,1.75,2.57,2.66,3.83,.77,1.06,.52,2.54-.54,3.31s-2.54,.52-3.31-.54c-.93-1.31-1.84-2.62-2.74-3.95h0Zm17.93,22.54c-.9-.96-.85-2.45,.1-3.35,.95-.9,2.45-.85,3.35,.1l3.24,3.38c.92,.94,.91,2.43-.02,3.36-.93,.92-2.44,.91-3.36-.02-1.13-1.14-2.22-2.3-3.31-3.47h0Zm21.2,19.47c-1.03-.8-1.22-2.3-.42-3.33,.8-1.03,2.29-1.22,3.33-.42,1.22,.96,2.46,1.91,3.73,2.84,1.05,.78,1.27,2.26,.49,3.31-.78,1.05-2.26,1.28-3.31,.5l-3.82-2.9h0Zm23.99,15.91c-1.14-.62-1.56-2.07-.93-3.22,.62-1.14,2.07-1.57,3.22-.94l4.12,2.22c1.16,.61,1.61,2.03,1.01,3.2-.61,1.15-2.04,1.61-3.2,1l-4.23-2.27h0Zm26.19,11.95c-1.23-.44-1.86-1.81-1.43-3.04,.44-1.23,1.81-1.86,3.04-1.43l4.42,1.54c1.25,.42,1.91,1.76,1.5,3.01-.41,1.24-1.75,1.91-3,1.49l-4.53-1.58h0Zm27.74,7.66c-1.29-.25-2.13-1.49-1.88-2.77,.25-1.29,1.49-2.13,2.77-1.88,1.52,.29,3.08,.52,4.6,.82,1.3,.21,2.18,1.42,1.97,2.71-.2,1.3-1.42,2.18-2.71,1.97l-4.74-.85h0Zm28.61,3.21c-1.31-.05-2.34-1.14-2.3-2.45,.05-1.31,1.14-2.34,2.45-2.29l4.67,.09c1.31,0,2.36,1.07,2.35,2.38,0,1.31-1.08,2.37-2.38,2.36l-4.8-.09h0Zm28.77-1.28c-1.31,.16-2.5-.76-2.66-2.05-.16-1.3,.76-2.49,2.05-2.65,1.55-.2,3.09-.4,4.64-.63,1.29-.2,2.51,.69,2.71,1.98,.2,1.29-.69,2.51-1.99,2.71-1.58,.24-3.17,.45-4.75,.65h0Zm28.2-5.76c-1.26,.36-2.57-.36-2.93-1.62-.37-1.26,.35-2.57,1.61-2.93,1.5-.44,3-.89,4.48-1.36,1.25-.39,2.58,.3,2.97,1.54,.4,1.25-.29,2.58-1.54,2.98-1.52,.48-3.05,.96-4.59,1.39h0Zm26.95-10.15c-1.19,.57-2.6,.06-3.16-1.13-.56-1.18-.06-2.59,1.12-3.15,1.42-.66,2.82-1.34,4.21-2.05,1.17-.59,2.59-.12,3.19,1.05,.59,1.17,.12,2.59-1.05,3.19-1.43,.72-2.87,1.42-4.31,2.09h0Zm25.01-14.25c-1.09,.73-2.56,.46-3.3-.62-.74-1.08-.46-2.56,.62-3.3l3.83-2.68c1.06-.77,2.54-.52,3.31,.54,.77,1.06,.53,2.54-.53,3.31l-3.94,2.75h0Zm22.46-18c-.95,.9-2.45,.85-3.35-.09-.89-.96-.85-2.46,.1-3.36,1.13-1.06,2.23-2.19,3.37-3.23,.92-.93,2.42-.93,3.35,0,.93,.93,.93,2.43,0,3.35l-3.47,3.34h0Zm19.39-21.27c-.8,1.03-2.29,1.22-3.33,.42-1.03-.8-1.22-2.29-.42-3.32l2.82-3.73c.77-1.06,2.25-1.3,3.31-.52,1.05,.77,1.29,2.25,.51,3.31-.95,1.3-1.93,2.56-2.89,3.84h0Zm15.83-24.06c-.62,1.15-2.06,1.58-3.21,.95-1.15-.62-1.58-2.06-.96-3.22l2.2-4.13c.6-1.16,2.02-1.62,3.19-1.03,1.16,.61,1.63,2.03,1.03,3.2l-2.26,4.23h0Zm11.84-26.22c-.44,1.23-1.81,1.87-3.04,1.43-1.23-.44-1.86-1.81-1.42-3.04l1.51-4.41c.41-1.25,1.74-1.93,2.99-1.52,1.25,.41,1.93,1.74,1.52,2.99l-1.57,4.55h0Zm7.56-27.79c-.24,1.29-1.48,2.14-2.76,1.9-1.28-.25-2.13-1.47-1.89-2.76l.8-4.62c.2-1.29,1.42-2.18,2.71-1.97,1.29,.21,2.18,1.42,1.97,2.71l-.83,4.73h0Zm3.09-28.62c-.03,1.31-1.12,2.35-2.43,2.32-1.3-.04-2.34-1.12-2.31-2.43l.08-4.68c0-1.3,1.07-2.37,2.38-2.37s2.37,1.07,2.37,2.37l-.08,4.8h0Zm-1.38-28.74c.16,1.3-.76,2.49-2.05,2.65-1.3,.16-2.49-.76-2.65-2.05-.15-1.47-.39-3.17-.65-4.62-.2-1.3,.68-2.52,1.98-2.71,1.29-.21,2.51,.67,2.7,1.97,.25,1.56,.51,3.21,.67,4.77h0Zm-5.87-28.2c.38,1.25-.34,2.57-1.59,2.95-1.26,.37-2.57-.34-2.95-1.6l-1.37-4.47c-.4-1.25,.27-2.58,1.52-2.99,1.25-.41,2.58,.27,2.99,1.52l1.4,4.59h0Zm-10.24-26.9c.57,1.17,.08,2.59-1.11,3.16-1.17,.57-2.59,.08-3.16-1.11l-2.06-4.2c-.6-1.16-.14-2.6,1.02-3.2,1.17-.59,2.6-.13,3.2,1.03,.73,1.42,1.43,2.87,2.11,4.31h0Zm-14.35-24.96c.75,1.08,.47,2.55-.6,3.3-1.08,.75-2.55,.47-3.3-.6l-2.7-3.83c-.77-1.06-.54-2.53,.52-3.31,1.05-.77,2.54-.54,3.31,.52l2.76,3.92h0Zm-18.08-22.39c.9,.95,.86,2.44-.08,3.35-.95,.91-2.45,.86-3.35-.08l-3.26-3.37c-.93-.93-.93-2.42,0-3.35,.93-.93,2.43-.93,3.35,0l3.35,3.44h0Zm-21.36-19.31c1.04,.79,1.24,2.29,.44,3.32-.79,1.04-2.29,1.24-3.32,.44l-3.75-2.81c-1.05-.78-1.29-2.25-.51-3.31,.77-1.06,2.25-1.29,3.31-.52l3.83,2.88h0Zm-24.1-15.73c1.14,.62,1.58,2.07,.95,3.22-.62,1.14-2.06,1.57-3.21,.95l-4.11-2.17c-1.19-.61-1.66-2.02-1.08-3.2,.6-1.16,2.02-1.64,3.2-1.05,1.38,.78,2.85,1.49,4.25,2.25h0Zm-26.29-11.75c1.23,.44,1.88,1.79,1.45,3.03-.43,1.23-1.79,1.88-3.02,1.45l-4.44-1.51c-1.24-.41-1.92-1.74-1.52-2.99,.41-1.24,1.75-1.92,2.99-1.51,1.52,.49,3.04,1,4.54,1.54h0Zm-27.82-7.45c1.3,.23,2.15,1.46,1.92,2.74-.23,1.3-1.46,2.16-2.74,1.92l-4.62-.79c-1.3-.2-2.19-1.41-1.99-2.71,.2-1.29,1.41-2.18,2.71-1.98,1.57,.24,3.15,.52,4.72,.8Z" style="fill:#d0d9ee; fill-rule:evenodd;"/><path d="M1414,763.29c-1.41,0-2.55-1.14-2.55-2.55s1.14-2.55,2.55-2.55l5.16,.07c1.41,.04,2.53,1.21,2.49,2.61-.03,1.41-1.21,2.53-2.61,2.49l-5.03-.06h0Zm-22.83-3.79c1.4-.17,2.68,.82,2.84,2.22,.17,1.4-.82,2.67-2.22,2.84-1.67,.2-3.33,.4-4.99,.64-1.39,.2-2.69-.76-2.89-2.16-.21-1.39,.77-2.69,2.16-2.88,1.69-.26,3.42-.46,5.12-.66h0Zm-30.39,5.97c1.35-.39,2.76,.41,3.15,1.76,.38,1.35-.41,2.76-1.76,3.15l-4.83,1.42c-1.34,.42-2.77-.34-3.2-1.68-.42-1.34,.34-2.77,1.68-3.19,1.65-.51,3.3-.99,4.96-1.46h0Zm-29.09,10.69c1.28-.6,2.79-.05,3.4,1.23,.6,1.28,.04,2.79-1.23,3.4-1.52,.7-3.06,1.42-4.56,2.17-1.26,.62-2.79,.1-3.42-1.15-.62-1.26-.11-2.79,1.14-3.41l4.66-2.22h0Zm-27.03,15.13c1.16-.79,2.75-.47,3.54,.69,.79,1.16,.48,2.75-.68,3.54l-4.16,2.86c-1.14,.81-2.73,.55-3.56-.6-.81-1.15-.54-2.74,.61-3.56l4.26-2.93h0Zm-24.32,19.18c1.03-.96,2.64-.9,3.6,.13,.95,1.03,.9,2.65-.13,3.6l-3.65,3.46c-1.01,.99-2.63,.96-3.61-.04-.98-1-.96-2.62,.04-3.6l3.75-3.56h0Zm-21.03,22.74c.86-1.11,2.47-1.29,3.58-.43,1.11,.87,1.3,2.48,.43,3.59-1.04,1.3-2.05,2.63-3.05,3.97-.84,1.14-2.45,1.38-3.58,.55-1.13-.84-1.37-2.44-.53-3.58,1.06-1.35,2.08-2.75,3.16-4.11h0Zm-17.23,25.75c.69-1.23,2.24-1.66,3.47-.98,1.23,.69,1.67,2.24,.98,3.48-.82,1.46-1.61,2.93-2.39,4.42-.65,1.25-2.19,1.73-3.44,1.08-1.25-.64-1.74-2.19-1.09-3.44,.81-1.51,1.62-3.05,2.47-4.55h0Zm-12.96,28.14c.48-1.31,1.95-2,3.26-1.51,1.32,.48,2.01,1.95,1.52,3.27l-1.66,4.73c-.45,1.34-1.9,2.06-3.24,1.63-1.33-.46-2.06-1.89-1.62-3.24,.61-1.57,1.13-3.27,1.73-4.88h0Zm-8.37,29.84c.26-1.38,1.61-2.29,2.99-2.02,1.38,.26,2.29,1.6,2.02,2.98l-.9,4.96c-.24,1.39-1.55,2.34-2.94,2.1-1.39-.23-2.33-1.54-2.1-2.93l.93-5.08h0Zm-3.56,30.77c.05-1.4,1.23-2.51,2.63-2.46,1.41,.04,2.52,1.22,2.47,2.63l-.11,5.03c-.02,1.41-1.16,2.54-2.57,2.54-1.41,0-2.54-1.15-2.54-2.57,0-1.72,.07-3.44,.12-5.16h0Zm1.26,30.95c-.17-1.4,.83-2.68,2.23-2.85,1.39-.16,2.67,.83,2.84,2.23,.18,1.66,.42,3.33,.65,4.99,.21,1.39-.76,2.69-2.15,2.88-1.4,.21-2.7-.76-2.89-2.15-.25-1.7-.49-3.41-.68-5.12h0Zm6.09,30.38c-.4-1.35,.38-2.76,1.73-3.16,1.35-.4,2.77,.39,3.16,1.74,.46,1.61,.94,3.23,1.45,4.82,.43,1.34-.32,2.78-1.67,3.21-1.34,.42-2.78-.32-3.2-1.67-.53-1.64-1.01-3.29-1.48-4.95h0Zm10.79,29.03c-.6-1.28-.05-2.8,1.23-3.4,1.28-.6,2.8-.04,3.4,1.23,.7,1.52,1.43,3.04,2.18,4.53,.63,1.26,.13,2.8-1.13,3.42-1.26,.63-2.8,.13-3.43-1.13-.79-1.5-1.53-3.12-2.24-4.66h0Zm15.24,26.97c-.79-1.16-.47-2.75,.69-3.54,1.16-.79,2.75-.48,3.54,.69,.94,1.38,1.88,2.77,2.86,4.12,.82,1.14,.57,2.73-.58,3.57-1.13,.81-2.73,.56-3.56-.59-1-1.4-1.99-2.82-2.95-4.26h0Zm19.29,24.26c-.96-1.03-.92-2.64,.1-3.6,1.03-.96,2.65-.92,3.61,.11l3.48,3.63c.98,1,.97,2.62-.02,3.61-1,.98-2.62,.97-3.61-.02-1.21-1.23-2.39-2.48-3.57-3.74h0Zm22.83,20.94c-1.12-.86-1.32-2.47-.45-3.58,.86-1.12,2.46-1.31,3.58-.45,1.32,1.04,2.66,2.06,4.01,3.06,1.13,.83,1.37,2.43,.54,3.57-.84,1.13-2.44,1.38-3.57,.54l-4.1-3.13h0Zm25.81,17.13c-1.24-.68-1.69-2.23-1.01-3.46,.68-1.24,2.23-1.68,3.46-1.01l4.45,2.39c1.25,.65,1.73,2.2,1.08,3.44-.64,1.25-2.2,1.73-3.43,1.08l-4.54-2.44h0Zm28.18,12.85c-1.32-.48-2-1.94-1.53-3.26,.47-1.32,1.94-2.01,3.26-1.54l4.76,1.67c1.33,.44,2.05,1.89,1.61,3.23-.44,1.33-1.88,2.05-3.22,1.62l-4.88-1.7h0Zm29.85,8.25c-1.38-.26-2.28-1.61-2.01-2.99,.25-1.38,1.6-2.29,2.98-2.02,1.64,.32,3.32,.56,4.95,.89,1.39,.22,2.34,1.53,2.12,2.92-.22,1.38-1.53,2.34-2.92,2.12l-5.11-.92h0Zm30.8,3.44c-1.41-.05-2.52-1.23-2.47-2.63,.04-1.41,1.22-2.51,2.63-2.47l5.03,.1c1.41,0,2.54,1.15,2.54,2.56,0,1.41-1.16,2.54-2.56,2.53l-5.17-.1h0Zm30.95-1.37c-1.4,.17-2.68-.81-2.86-2.21-.17-1.39,.81-2.68,2.21-2.85,1.66-.21,3.33-.43,4.98-.68,1.39-.22,2.7,.74,2.9,2.13,.22,1.39-.74,2.7-2.13,2.91-1.7,.25-3.42,.48-5.12,.7h0Zm30.35-6.2c-1.35,.4-2.76-.38-3.16-1.73-.39-1.35,.39-2.77,1.74-3.16,1.62-.46,3.23-.95,4.82-1.47,1.34-.42,2.78,.32,3.2,1.67,.42,1.34-.31,2.78-1.66,3.2-1.65,.52-3.28,1.03-4.95,1.49h0Zm29-10.92c-1.27,.61-2.8,.07-3.4-1.21-.61-1.27-.07-2.8,1.21-3.4,1.52-.71,3.04-1.45,4.53-2.2,1.26-.63,2.79-.13,3.43,1.13,.63,1.25,.12,2.78-1.14,3.42-1.53,.78-3.08,1.53-4.64,2.25h0Zm26.92-15.33c-1.17,.79-2.76,.49-3.56-.67-.79-1.16-.49-2.75,.67-3.55l4.13-2.89c1.13-.82,2.73-.56,3.56,.58,.82,1.14,.57,2.73-.58,3.57l-4.23,2.96h0Zm24.17-19.37c-1.02,.96-2.64,.92-3.6-.1-.96-1.02-.92-2.64,.11-3.6,1.21-1.14,2.4-2.36,3.61-3.49,1-.99,2.61-.99,3.61,0,.99,1,.99,2.61,0,3.61l-3.74,3.59h0Zm20.87-22.89c-.86,1.11-2.47,1.32-3.59,.45-1.11-.86-1.31-2.47-.44-3.58l3.03-4.01c.82-1.13,2.42-1.38,3.57-.56,1.13,.83,1.38,2.43,.55,3.57-1.01,1.39-2.07,2.75-3.11,4.13h0Zm17.04-25.9c-.67,1.24-2.22,1.69-3.46,1.03-1.24-.67-1.69-2.22-1.02-3.46l2.36-4.45c.64-1.26,2.19-1.75,3.44-1.11,1.25,.64,1.74,2.18,1.1,3.43l-2.42,4.55h0Zm12.74-28.22c-.48,1.32-1.94,2.02-3.26,1.53-1.33-.47-2.02-1.94-1.54-3.26l1.65-4.75c.43-1.33,1.87-2.07,3.21-1.64,1.34,.43,2.07,1.88,1.65,3.22l-1.69,4.9h0Zm8.13-29.91c-.25,1.38-1.59,2.3-2.97,2.04-1.38-.25-2.3-1.59-2.04-2.97l.86-4.96c.23-1.4,1.53-2.35,2.92-2.12,1.39,.22,2.35,1.52,2.12,2.91l-.89,5.09h0Zm3.33-30.8c-.04,1.41-1.21,2.52-2.62,2.49-1.4-.04-2.52-1.21-2.48-2.62l.08-5.03c0-1.41,1.14-2.55,2.55-2.55s2.55,1.14,2.55,2.55l-.08,5.16h0Zm-1.49-30.93c.17,1.4-.82,2.68-2.21,2.86-1.4,.17-2.68-.81-2.86-2.21-.15-1.58-.42-3.41-.7-4.98-.22-1.38,.73-2.7,2.13-2.91,1.39-.22,2.7,.73,2.92,2.12,.25,1.67,.55,3.45,.72,5.13h0Zm-6.33-30.34c.41,1.35-.36,2.77-1.71,3.18-1.35,.4-2.77-.37-3.17-1.72l-1.49-4.81c-.43-1.34,.3-2.78,1.65-3.22,1.33-.44,2.78,.29,3.21,1.64l1.51,4.94h0Zm-11.02-28.96c.61,1.27,.08,2.79-1.19,3.41-1.27,.61-2.8,.08-3.41-1.19l-2.22-4.52c-.63-1.26-.14-2.79,1.11-3.43,1.26-.64,2.8-.14,3.43,1.11,.79,1.53,1.54,3.08,2.28,4.63h0Zm-15.45-26.85c.8,1.15,.51,2.75-.64,3.55-1.15,.8-2.75,.52-3.55-.64l-2.9-4.11c-.83-1.14-.58-2.73,.56-3.57,1.13-.83,2.73-.58,3.56,.56l2.98,4.22h0Zm-19.46-24.1c.97,1.02,.94,2.63-.08,3.6-1.02,.97-2.64,.94-3.6-.08l-3.51-3.61c-.99-.99-.99-2.61,0-3.61,.99-.99,2.61-.99,3.6,0l3.59,3.71h0Zm-22.98-20.77c1.12,.85,1.33,2.46,.47,3.58-.85,1.12-2.46,1.33-3.58,.47l-4.03-3.03c-1.14-.82-1.39-2.42-.56-3.56,.82-1.14,2.42-1.39,3.56-.57l4.13,3.1h0Zm-25.94-16.93c1.23,.67,1.68,2.23,1.01,3.46-.66,1.24-2.22,1.69-3.45,1.02l-4.42-2.34c-1.29-.64-1.79-2.19-1.15-3.43,.63-1.27,2.18-1.77,3.42-1.13,1.49,.83,3.07,1.61,4.59,2.42h0Zm-28.29-12.64c1.32,.46,2.02,1.92,1.56,3.25-.46,1.32-1.93,2.02-3.25,1.55l-4.77-1.63c-1.34-.43-2.07-1.87-1.65-3.21,.44-1.34,1.88-2.07,3.22-1.64,1.64,.53,3.27,1.09,4.89,1.66h0Zm-29.94-8.03c1.39,.25,2.31,1.57,2.07,2.96-.25,1.39-1.57,2.31-2.97,2.07l-4.97-.85c-1.39-.22-2.34-1.52-2.13-2.9,.21-1.4,1.51-2.35,2.9-2.14,1.7,.26,3.4,.56,5.09,.86Z" style="fill:#d0d9ee; fill-rule:evenodd;"/><path d="M513.98,780.4c-1.3,0-2.35-1.05-2.35-2.34s1.05-2.35,2.35-2.35l4.73,.06c1.3,.03,2.32,1.11,2.29,2.4-.03,1.3-1.11,2.32-2.4,2.28l-4.62-.06h0Zm-20.95-3.48c1.29-.15,2.45,.76,2.61,2.04,.15,1.29-.77,2.45-2.05,2.61-1.52,.17-3.06,.36-4.58,.59-1.28,.18-2.47-.7-2.66-1.98-.19-1.28,.7-2.47,1.98-2.66,1.56-.23,3.13-.43,4.7-.61h0Zm-27.9,5.48c1.24-.35,2.54,.38,2.89,1.62,.35,1.24-.38,2.54-1.62,2.89l-4.44,1.3c-1.23,.39-2.54-.3-2.93-1.53-.38-1.24,.31-2.55,1.54-2.94,1.51-.46,3.03-.91,4.55-1.33h0Zm-26.7,9.82c1.17-.55,2.57-.05,3.11,1.13,.56,1.17,.05,2.56-1.13,3.11-1.4,.65-2.8,1.3-4.17,2-1.16,.58-2.57,.1-3.15-1.06-.57-1.15-.09-2.56,1.06-3.14l4.28-2.03h0Zm-24.81,13.9c1.08-.72,2.54-.44,3.25,.63,.72,1.07,.44,2.53-.63,3.25l-3.81,2.62c-1.05,.74-2.52,.5-3.26-.56-.75-1.05-.5-2.52,.56-3.26l3.9-2.69h0Zm-22.32,17.61c.95-.88,2.43-.83,3.31,.11,.88,.95,.82,2.43-.12,3.31l-3.35,3.19c-.93,.9-2.41,.88-3.32-.04-.9-.93-.88-2.41,.04-3.31l3.44-3.26h0Zm-19.31,20.88c.79-1.02,2.27-1.19,3.29-.39,1.01,.79,1.19,2.27,.39,3.28-.96,1.2-1.88,2.42-2.8,3.64-.78,1.05-2.24,1.28-3.28,.51-1.04-.78-1.27-2.24-.49-3.28,.97-1.24,1.9-2.53,2.89-3.77h0Zm-15.82,23.64c.63-1.13,2.06-1.53,3.19-.91,1.13,.63,1.53,2.06,.9,3.19-.76,1.34-1.48,2.7-2.19,4.06-.61,1.14-2.02,1.59-3.16,.99-1.15-.6-1.6-2.01-1-3.16,.75-1.4,1.49-2.8,2.27-4.17h0Zm-11.9,25.83c.43-1.22,1.79-1.85,3-1.4,1.21,.44,1.84,1.79,1.4,3l-1.54,4.35c-.41,1.24-1.73,1.9-2.96,1.49-1.23-.42-1.89-1.74-1.48-2.97,.56-1.44,1.05-3,1.59-4.47h0Zm-7.68,27.39c.25-1.28,1.48-2.1,2.74-1.86,1.27,.25,2.1,1.48,1.85,2.74l-.83,4.54c-.21,1.29-1.41,2.15-2.69,1.94-1.28-.22-2.14-1.42-1.93-2.7l.85-4.66h0Zm-3.26,28.25c.04-1.3,1.13-2.31,2.41-2.27,1.29,.04,2.31,1.13,2.26,2.41l-.1,4.63c0,1.29-1.07,2.33-2.36,2.33-1.3,0-2.34-1.06-2.33-2.36,0-1.58,.06-3.17,.11-4.74h0Zm1.15,28.4c-.16-1.28,.76-2.45,2.04-2.6,1.28-.15,2.45,.76,2.6,2.04,.17,1.53,.39,3.05,.61,4.59,.19,1.28-.7,2.47-1.98,2.65-1.28,.19-2.47-.69-2.65-1.98-.23-1.56-.45-3.13-.62-4.7h0Zm5.58,27.91c-.36-1.24,.36-2.54,1.6-2.9,1.24-.36,2.53,.35,2.9,1.6,.42,1.48,.86,2.96,1.32,4.43,.4,1.23-.28,2.55-1.52,2.94-1.23,.39-2.54-.29-2.93-1.52-.48-1.49-.93-3.03-1.36-4.54h0Zm9.91,26.65c-.54-1.17-.04-2.56,1.13-3.11,1.17-.55,2.57-.05,3.12,1.13,.64,1.39,1.32,2.79,2,4.16,.59,1.15,.12,2.56-1.03,3.14-1.15,.59-2.57,.12-3.15-1.03-.72-1.38-1.41-2.87-2.06-4.28h0Zm13.99,24.75c-.72-1.07-.44-2.53,.63-3.24,1.07-.73,2.53-.45,3.25,.63,.85,1.27,1.73,2.54,2.62,3.78,.76,1.05,.52,2.52-.53,3.27-1.04,.76-2.51,.51-3.26-.53-.92-1.3-1.83-2.59-2.71-3.92h0Zm17.71,22.28c-.89-.95-.84-2.42,.09-3.31,.95-.88,2.43-.84,3.31,.1l3.2,3.34c.91,.92,.9,2.4-.02,3.31-.92,.91-2.4,.9-3.31-.02-1.11-1.13-2.19-2.27-3.27-3.42h0Zm20.95,19.23c-1.03-.79-1.21-2.27-.42-3.29,.79-1.02,2.26-1.2,3.28-.42,1.21,.96,2.44,1.89,3.68,2.81,1.04,.77,1.27,2.23,.5,3.27-.78,1.04-2.24,1.27-3.28,.5l-3.76-2.88h0Zm23.7,15.72c-1.13-.62-1.54-2.05-.92-3.18,.61-1.14,2.04-1.55,3.18-.93l4.08,2.19c1.14,.6,1.59,2.01,.99,3.16-.6,1.14-2.02,1.59-3.16,.99l-4.17-2.24h0Zm25.87,11.8c-1.21-.45-1.84-1.79-1.41-3,.44-1.22,1.79-1.85,3.01-1.41l4.36,1.52c1.22,.41,1.89,1.73,1.49,2.96-.41,1.23-1.74,1.89-2.96,1.48l-4.48-1.56h0Zm27.41,7.57c-1.27-.24-2.1-1.47-1.86-2.74,.25-1.27,1.48-2.1,2.74-1.85,1.5,.29,3.05,.51,4.54,.81,1.28,.2,2.15,1.4,1.95,2.68-.21,1.28-1.41,2.15-2.69,1.95l-4.68-.84h0Zm28.26,3.16c-1.29-.04-2.3-1.12-2.26-2.41,.04-1.29,1.13-2.3,2.41-2.26l4.63,.09c1.29,0,2.33,1.06,2.33,2.35,0,1.3-1.07,2.34-2.36,2.34l-4.75-.1h0Zm28.42-1.26c-1.28,.16-2.45-.75-2.62-2.02-.16-1.29,.76-2.46,2.03-2.62,1.53-.19,3.06-.39,4.58-.62,1.28-.2,2.48,.68,2.67,1.96,.2,1.28-.68,2.47-1.96,2.67-1.56,.24-3.13,.44-4.7,.64h0Zm27.87-5.69c-1.24,.36-2.54-.36-2.9-1.6-.36-1.24,.36-2.54,1.6-2.9,1.48-.42,2.96-.88,4.43-1.34,1.23-.38,2.54,.3,2.94,1.53,.39,1.23-.29,2.54-1.53,2.93-1.5,.47-3.01,.95-4.53,1.38h0Zm26.62-10.03c-1.16,.55-2.56,.06-3.11-1.12-.56-1.16-.06-2.56,1.11-3.12,1.4-.65,2.78-1.32,4.16-2.02,1.15-.59,2.56-.12,3.15,1.03,.59,1.15,.11,2.56-1.04,3.15-1.41,.71-2.84,1.41-4.27,2.07h0Zm24.71-14.08c-1.07,.73-2.53,.45-3.25-.62-.73-1.07-.45-2.53,.61-3.25l3.79-2.65c1.04-.76,2.51-.51,3.26,.53,.76,1.05,.52,2.52-.53,3.27l-3.89,2.71h0Zm22.2-17.77c-.95,.88-2.43,.84-3.31-.1-.89-.94-.84-2.42,.09-3.31,1.12-1.04,2.21-2.17,3.33-3.2,.91-.92,2.39-.92,3.31,0,.91,.92,.91,2.39,0,3.31l-3.42,3.3h0Zm19.15-21.03c-.79,1.03-2.26,1.21-3.28,.42-1.02-.79-1.2-2.26-.42-3.28l2.78-3.68c.77-1.05,2.23-1.28,3.27-.51,1.04,.76,1.28,2.22,.51,3.26-.94,1.29-1.9,2.53-2.87,3.79h0Zm15.65-23.77c-.62,1.13-2.04,1.56-3.18,.95-1.13-.61-1.56-2.04-.95-3.18l2.19-4.08c.59-1.15,2-1.61,3.15-1.02,1.15,.59,1.6,2,1.01,3.16l-2.22,4.17h0Zm11.69-25.9c-.44,1.21-1.78,1.84-2.99,1.4-1.22-.43-1.85-1.78-1.42-2.99l1.51-4.36c.4-1.23,1.72-1.9,2.94-1.5,1.23,.41,1.9,1.72,1.5,2.95l-1.55,4.5h0Zm7.47-27.46c-.24,1.27-1.46,2.11-2.72,1.88-1.28-.24-2.12-1.47-1.88-2.73l.79-4.56c.21-1.28,1.41-2.15,2.69-1.94,1.28,.2,2.15,1.4,1.95,2.68l-.82,4.67h0Zm3.06-28.27c-.03,1.29-1.11,2.31-2.4,2.28-1.3-.03-2.31-1.11-2.28-2.4l.08-4.62c0-1.3,1.05-2.35,2.35-2.35s2.34,1.05,2.34,2.35l-.08,4.74h0Zm-1.37-28.4c.17,1.28-.75,2.46-2.02,2.62-1.28,.16-2.46-.75-2.62-2.03-.14-1.45-.38-3.12-.64-4.56-.2-1.28,.67-2.48,1.95-2.69,1.28-.2,2.48,.67,2.69,1.95,.23,1.54,.5,3.17,.65,4.71h0Zm-5.8-27.86c.37,1.24-.33,2.54-1.57,2.91-1.24,.37-2.54-.33-2.91-1.58l-1.35-4.42c-.4-1.23,.27-2.55,1.49-2.95,1.23-.4,2.55,.27,2.95,1.5l1.39,4.53h0Zm-10.12-26.58c.56,1.16,.08,2.56-1.09,3.12-1.17,.56-2.57,.08-3.13-1.09l-2.03-4.15c-.59-1.15-.13-2.56,1.01-3.16,1.15-.59,2.56-.12,3.15,1.02,.72,1.4,1.41,2.83,2.09,4.26h0Zm-14.18-24.66c.74,1.06,.47,2.54-.59,3.26-1.06,.74-2.53,.47-3.26-.6l-2.67-3.77c-.76-1.04-.53-2.51,.52-3.27,1.04-.77,2.51-.53,3.27,.51l2.72,3.87h0Zm-17.86-22.12c.89,.94,.85,2.42-.08,3.32-.94,.89-2.42,.85-3.31-.08l-3.23-3.32c-.92-.91-.92-2.4,0-3.31,.91-.92,2.39-.92,3.31,0l3.3,3.39h0Zm-21.09-19.06c1.02,.78,1.22,2.25,.44,3.28-.79,1.02-2.26,1.22-3.28,.43l-3.7-2.77c-1.05-.76-1.28-2.22-.52-3.27,.77-1.04,2.23-1.28,3.27-.51l3.79,2.85h0Zm-23.82-15.54c1.14,.62,1.56,2.04,.94,3.17-.61,1.13-2.03,1.55-3.17,.94l-4.06-2.15c-1.18-.59-1.64-2-1.06-3.15,.59-1.15,2-1.62,3.15-1.03,1.37,.76,2.82,1.47,4.2,2.22h0Zm-25.97-11.62c1.22,.44,1.86,1.77,1.43,2.99-.43,1.22-1.77,1.86-2.99,1.43l-4.38-1.49c-1.22-.4-1.89-1.72-1.49-2.95,.4-1.23,1.72-1.9,2.94-1.5,1.5,.49,3.01,.99,4.49,1.52h0Zm-27.49-7.37c1.28,.23,2.13,1.45,1.9,2.72-.23,1.27-1.44,2.12-2.71,1.89l-4.57-.78c-1.27-.2-2.15-1.39-1.95-2.67,.19-1.28,1.39-2.16,2.67-1.96,1.55,.24,3.12,.51,4.66,.79Z" style="fill:#d0d9ee; fill-rule:evenodd;"/><path d="M1075.82,271.95c-1.23,0-2.22-.99-2.22-2.21s.99-2.22,2.22-2.22c1.54,0,3.04,.07,4.58,.17,1.22,.09,2.15,1.14,2.06,2.36-.09,1.22-1.14,2.15-2.37,2.06-1.45-.09-2.84-.15-4.28-.16h0Zm-17.8-1.79c1.16-.36,2.41,.29,2.78,1.47,.36,1.16-.29,2.41-1.47,2.77-1.35,.41-2.71,.89-4.03,1.4-1.14,.45-2.43-.11-2.89-1.25-.44-1.13,.11-2.43,1.25-2.88,1.42-.56,2.89-1.08,4.35-1.51h0Zm-23.69,13.73c.89-.83,2.3-.79,3.13,.1,.84,.89,.79,2.3-.09,3.13-1.05,.97-2.02,1.99-3.01,3.03-.81,.91-2.22,.96-3.13,.15-.9-.82-.96-2.23-.14-3.14,1.05-1.13,2.11-2.22,3.25-3.27h0Zm-15.3,22.72c.44-1.14,1.72-1.72,2.87-1.28,1.14,.43,1.72,1.71,1.29,2.86-.5,1.33-.96,2.67-1.36,4.04-.35,1.17-1.58,1.84-2.75,1.5-1.17-.34-1.85-1.58-1.51-2.75,.46-1.48,.94-2.9,1.48-4.37h0Zm-3.72,27.15c-.11-1.22,.78-2.31,2-2.42,1.22-.11,2.31,.79,2.42,2.01,.11,1.34,.27,2.91,.53,4.23,.21,1.21-.61,2.36-1.81,2.56-1.21,.21-2.36-.61-2.56-1.82-.26-1.47-.45-3.07-.58-4.56h0Zm8.55,26.02c-.64-1.05-.31-2.42,.73-3.06,1.05-.64,2.42-.31,3.05,.74,.74,1.21,1.52,2.41,2.36,3.56,.72,1,.49,2.38-.5,3.1-.99,.71-2.38,.48-3.1-.51-.89-1.25-1.73-2.52-2.53-3.83h0Zm19.1,19.61c-1.02-.66-1.32-2.03-.66-3.06,.66-1.03,2.03-1.33,3.06-.67,1.21,.8,2.42,1.44,3.66,2.18,1.09,.58,1.49,1.92,.91,3-.58,1.08-1.93,1.48-3,.91-1.33-.7-2.7-1.52-3.97-2.35h0Zm25.79,9.23c-1.22-.13-2.09-1.24-1.96-2.46,.14-1.21,1.25-2.08,2.46-1.95,1.41,.17,2.84,.27,4.26,.34,1.22,.04,2.18,1.08,2.13,2.3-.05,1.22-1.08,2.17-2.3,2.13-1.52-.07-3.07-.17-4.59-.36h0Zm27.21-3.02c-1.15,.41-2.42-.2-2.83-1.35-.41-1.16,.21-2.43,1.35-2.84,1.31-.4,2.71-1.01,3.96-1.56,1.13-.49,2.43,0,2.93,1.13,.49,1.12,0,2.43-1.13,2.92-1.33,.59-2.91,1.27-4.29,1.69h0Zm23.13-14.69c-.86,.87-2.26,.89-3.14,.04-.87-.86-.89-2.27-.03-3.14,1-1.02,1.95-2.06,2.89-3.15,.79-.94,2.18-1.05,3.12-.27,.94,.79,1.05,2.19,.26,3.13-1.01,1.16-2.02,2.29-3.1,3.39h0Zm14.34-23.33c-.38,1.15-1.64,1.79-2.8,1.4-1.16-.38-1.79-1.64-1.41-2.8,.45-1.35,.85-2.71,1.2-4.1,.3-1.18,1.51-1.9,2.7-1.61,1.19,.3,1.91,1.51,1.61,2.71-.38,1.48-.8,2.95-1.3,4.41h0Zm2.62-27.26c.16,1.21-.69,2.33-1.91,2.49-1.21,.16-2.33-.69-2.49-1.9-.19-1.42-.42-2.81-.71-4.21-.26-1.2,.51-2.37,1.71-2.63,1.19-.26,2.37,.51,2.63,1.71,.32,1.48,.57,3.03,.77,4.54h0Zm-9.61-25.65c.68,1.02,.41,2.4-.61,3.08-1.01,.67-2.39,.4-3.07-.62-.78-1.17-1.63-2.33-2.49-3.45-.76-.96-.6-2.36,.37-3.11,.96-.76,2.36-.6,3.11,.37,.94,1.2,1.86,2.47,2.7,3.74h0Zm-19.89-18.81c1.06,.61,1.41,1.98,.8,3.03-.62,1.06-1.98,1.41-3.04,.79-1.23-.72-2.48-1.39-3.76-2.02-1.1-.54-1.55-1.87-1.01-2.97,.54-1.1,1.87-1.55,2.97-1.01,1.38,.7,2.71,1.4,4.05,2.19Z" style="fill:#d0d9ee; fill-rule:evenodd;"/><path d="M363.78,621.22c-1.22,0-2.21-.99-2.21-2.22s.99-2.21,2.21-2.21c1.55,0,3.05,.07,4.59,.17,1.22,.08,2.14,1.14,2.06,2.36-.08,1.23-1.14,2.16-2.36,2.07-1.45-.09-2.84-.15-4.29-.16h0Zm-17.79-1.79c1.16-.36,2.41,.29,2.77,1.46,.37,1.17-.29,2.41-1.46,2.78-1.35,.41-2.71,.89-4.04,1.4-1.14,.44-2.42-.11-2.88-1.25-.44-1.13,.11-2.43,1.25-2.88,1.42-.56,2.89-1.08,4.35-1.51h0Zm-23.7,13.73c.9-.83,2.31-.79,3.14,.09,.84,.9,.79,2.3-.09,3.14-1.05,.97-2.02,1.99-3.01,3.03-.81,.9-2.22,.96-3.13,.14-.9-.82-.97-2.22-.15-3.13,1.06-1.13,2.12-2.22,3.24-3.27h0Zm-15.29,22.72c.44-1.14,1.72-1.72,2.87-1.29,1.14,.44,1.72,1.72,1.29,2.87-.5,1.33-.96,2.67-1.37,4.03-.34,1.18-1.57,1.85-2.74,1.51-1.18-.34-1.85-1.58-1.51-2.75,.46-1.48,.93-2.91,1.48-4.37h0Zm-3.73,27.14c-.11-1.22,.79-2.3,2.01-2.41,1.22-.11,2.31,.79,2.41,2,.12,1.34,.27,2.91,.54,4.23,.21,1.2-.61,2.36-1.81,2.56-1.21,.21-2.36-.61-2.56-1.82-.27-1.47-.45-3.07-.59-4.57h0Zm8.55,26.02c-.63-1.05-.3-2.41,.74-3.05,1.04-.63,2.41-.3,3.05,.74,.74,1.21,1.52,2.42,2.36,3.57,.71,.99,.49,2.38-.5,3.09-1,.72-2.38,.49-3.1-.5-.89-1.26-1.73-2.53-2.54-3.84h0Zm19.11,19.62c-1.03-.66-1.32-2.03-.67-3.06,.66-1.03,2.03-1.33,3.07-.67,1.21,.79,2.42,1.44,3.66,2.18,1.08,.58,1.48,1.92,.91,3-.58,1.08-1.92,1.48-3.01,.91-1.32-.7-2.7-1.52-3.96-2.35h0Zm25.79,9.23c-1.21-.13-2.08-1.24-1.95-2.46,.14-1.21,1.24-2.09,2.46-1.95,1.41,.17,2.84,.26,4.26,.33,1.22,.05,2.17,1.08,2.13,2.3-.05,1.23-1.08,2.18-2.3,2.14-1.53-.07-3.08-.18-4.6-.36h0Zm27.22-3.02c-1.16,.41-2.43-.2-2.83-1.36-.41-1.15,.2-2.42,1.36-2.83,1.3-.41,2.7-1.02,3.95-1.56,1.12-.49,2.43,0,2.92,1.12,.5,1.13,0,2.43-1.12,2.93-1.34,.59-2.91,1.27-4.29,1.69h0Zm23.12-14.69c-.85,.87-2.26,.89-3.13,.04-.87-.86-.89-2.27-.04-3.14,1.01-1.02,1.95-2.06,2.89-3.15,.79-.94,2.19-1.05,3.12-.27,.94,.79,1.05,2.19,.26,3.12-1,1.17-2.01,2.3-3.1,3.4h0Zm14.35-23.34c-.39,1.16-1.64,1.8-2.8,1.41-1.16-.38-1.79-1.64-1.41-2.8,.45-1.35,.85-2.71,1.2-4.1,.29-1.18,1.5-1.91,2.7-1.61,1.18,.3,1.91,1.51,1.61,2.7-.38,1.49-.81,2.95-1.3,4.41h0Zm2.62-27.25c.16,1.21-.69,2.33-1.91,2.49-1.21,.16-2.33-.69-2.49-1.91-.19-1.41-.43-2.8-.71-4.2-.26-1.2,.51-2.37,1.7-2.63,1.2-.26,2.38,.51,2.63,1.71,.33,1.48,.57,3.03,.78,4.54h0Zm-9.61-25.65c.68,1.02,.4,2.4-.62,3.07-1.02,.68-2.39,.41-3.07-.62-.78-1.17-1.63-2.34-2.5-3.45-.76-.96-.59-2.35,.38-3.12,.96-.75,2.36-.59,3.11,.37,.94,1.21,1.86,2.48,2.7,3.75h0Zm-19.89-18.82c1.05,.62,1.41,1.99,.79,3.04-.61,1.06-1.98,1.41-3.04,.79-1.23-.73-2.48-1.39-3.76-2.02-1.1-.54-1.55-1.87-1.01-2.97,.54-1.1,1.87-1.55,2.97-1.01,1.37,.7,2.71,1.39,4.05,2.18Z" style="fill:#d0d9ee; fill-rule:evenodd;"/><path d="M924.61,1022.23c-1.22,0-2.21-.99-2.21-2.22s.99-2.21,2.21-2.21c1.54,0,3.04,.07,4.59,.16,1.22,.08,2.14,1.14,2.06,2.36-.08,1.23-1.14,2.15-2.36,2.07-1.45-.1-2.84-.15-4.28-.16h0Zm-17.8-1.79c1.17-.37,2.41,.29,2.78,1.46,.36,1.17-.29,2.41-1.46,2.78-1.36,.41-2.71,.88-4.04,1.4-1.14,.44-2.43-.11-2.88-1.25-.44-1.13,.11-2.43,1.25-2.88,1.41-.56,2.89-1.08,4.34-1.51h0Zm-23.7,13.73c.9-.84,2.3-.79,3.14,.09,.84,.9,.79,2.3-.09,3.14-1.05,.97-2.02,1.98-3.01,3.02-.82,.91-2.22,.97-3.13,.15-.91-.82-.97-2.23-.15-3.13,1.06-1.13,2.12-2.22,3.24-3.27h0Zm-15.29,22.72c.44-1.14,1.72-1.72,2.87-1.29,1.14,.44,1.71,1.72,1.29,2.87-.5,1.33-.97,2.67-1.37,4.03-.34,1.17-1.57,1.85-2.75,1.51-1.17-.35-1.84-1.58-1.5-2.75,.46-1.48,.93-2.91,1.48-4.37h0Zm-3.73,27.14c-.11-1.22,.79-2.3,2-2.41,1.22-.11,2.3,.79,2.41,2,.11,1.34,.27,2.91,.54,4.23,.21,1.2-.61,2.36-1.82,2.56-1.2,.21-2.35-.61-2.55-1.82-.27-1.47-.45-3.07-.59-4.57h0Zm8.55,26.02c-.64-1.05-.31-2.41,.74-3.05,1.04-.63,2.41-.3,3.05,.74,.74,1.21,1.52,2.42,2.36,3.57,.71,.99,.48,2.38-.51,3.09-.99,.72-2.37,.49-3.09-.5-.89-1.26-1.73-2.53-2.54-3.84h0Zm19.11,19.62c-1.03-.66-1.33-2.03-.67-3.06,.66-1.03,2.03-1.33,3.06-.67,1.22,.79,2.43,1.44,3.67,2.17,1.08,.59,1.49,1.93,.91,3.01-.58,1.08-1.93,1.48-3.01,.91-1.32-.7-2.7-1.53-3.96-2.35h0Zm25.79,9.23c-1.21-.14-2.09-1.25-1.95-2.46,.13-1.21,1.24-2.09,2.46-1.95,1.41,.17,2.83,.26,4.25,.33,1.22,.05,2.18,1.08,2.13,2.3-.04,1.23-1.08,2.18-2.3,2.14-1.52-.07-3.07-.18-4.59-.36h0Zm27.21-3.02c-1.15,.41-2.42-.21-2.83-1.36-.4-1.15,.21-2.42,1.36-2.83,1.31-.41,2.71-1.02,3.96-1.56,1.12-.5,2.43,0,2.92,1.12,.5,1.12,0,2.43-1.13,2.93-1.33,.59-2.91,1.26-4.29,1.69h0Zm23.13-14.69c-.85,.87-2.26,.89-3.13,.04-.88-.86-.9-2.27-.04-3.14,1.01-1.02,1.95-2.07,2.89-3.16,.79-.93,2.19-1.04,3.13-.26,.94,.79,1.05,2.19,.26,3.12-1,1.17-2.01,2.3-3.1,3.4h0Zm14.35-23.34c-.39,1.16-1.64,1.79-2.8,1.41-1.16-.38-1.8-1.64-1.41-2.8,.44-1.35,.85-2.72,1.19-4.1,.3-1.18,1.51-1.91,2.71-1.61,1.18,.3,1.9,1.5,1.61,2.7-.39,1.49-.81,2.95-1.3,4.41h0Zm2.62-27.26c.15,1.22-.7,2.34-1.91,2.5-1.21,.16-2.33-.69-2.49-1.91-.19-1.41-.43-2.8-.72-4.21-.25-1.19,.52-2.36,1.71-2.62,1.2-.26,2.37,.51,2.63,1.71,.33,1.49,.57,3.03,.78,4.53h0Zm-9.61-25.64c.67,1.02,.4,2.4-.61,3.07-1.02,.68-2.4,.41-3.07-.62-.79-1.18-1.63-2.34-2.5-3.45-.76-.96-.59-2.36,.37-3.12,.96-.76,2.36-.59,3.12,.37,.94,1.21,1.85,2.47,2.7,3.75h0Zm-19.9-18.82c1.06,.62,1.42,1.98,.79,3.04-.61,1.05-1.98,1.41-3.03,.79-1.23-.73-2.49-1.39-3.77-2.02-1.1-.54-1.55-1.87-1.02-2.97,.55-1.1,1.87-1.55,2.97-1.01,1.38,.7,2.72,1.39,4.05,2.18Z" style="fill:#d0d9ee; fill-rule:evenodd;"/><path d="M1709.19,621.22c-1.22,0-2.21-.99-2.21-2.22s.99-2.21,2.21-2.21c1.55,0,3.05,.07,4.59,.17,1.22,.08,2.14,1.14,2.06,2.36-.08,1.23-1.14,2.16-2.36,2.07-1.45-.09-2.84-.15-4.29-.16h0Zm-17.79-1.79c1.16-.36,2.41,.29,2.77,1.46,.37,1.17-.29,2.41-1.46,2.78-1.35,.41-2.71,.89-4.04,1.4-1.14,.44-2.42-.11-2.88-1.25-.44-1.13,.11-2.43,1.25-2.88,1.42-.56,2.89-1.08,4.35-1.51h0Zm-23.7,13.73c.9-.83,2.31-.79,3.14,.09,.84,.9,.79,2.3-.09,3.14-1.05,.97-2.02,1.99-3.01,3.03-.81,.9-2.22,.96-3.13,.14-.91-.82-.97-2.22-.14-3.13,1.05-1.13,2.11-2.22,3.24-3.27h0Zm-15.29,22.72c.43-1.14,1.72-1.72,2.87-1.29,1.14,.44,1.72,1.72,1.29,2.87-.5,1.33-.96,2.67-1.37,4.03-.34,1.18-1.57,1.85-2.74,1.51-1.18-.34-1.85-1.58-1.51-2.75,.46-1.48,.93-2.91,1.48-4.37h0Zm-3.73,27.14c-.1-1.22,.79-2.3,2.01-2.41,1.22-.11,2.31,.79,2.42,2,.11,1.34,.27,2.91,.53,4.23,.21,1.2-.61,2.36-1.81,2.56-1.21,.21-2.36-.61-2.56-1.82-.26-1.47-.45-3.07-.59-4.57h0Zm8.55,26.02c-.63-1.05-.3-2.41,.74-3.05,1.04-.63,2.41-.3,3.05,.74,.74,1.21,1.52,2.42,2.36,3.57,.72,.99,.48,2.38-.51,3.09-.98,.72-2.37,.49-3.09-.5-.89-1.26-1.73-2.53-2.54-3.84h0Zm19.11,19.62c-1.03-.66-1.32-2.03-.66-3.06,.66-1.03,2.02-1.33,3.06-.67,1.21,.79,2.42,1.44,3.66,2.18,1.08,.58,1.48,1.92,.91,3-.58,1.08-1.93,1.48-3,.91-1.33-.7-2.71-1.52-3.97-2.35h0Zm25.79,9.23c-1.22-.13-2.09-1.24-1.96-2.46,.14-1.21,1.24-2.09,2.46-1.95,1.41,.17,2.83,.26,4.25,.33,1.23,.05,2.19,1.08,2.14,2.3-.05,1.23-1.08,2.18-2.3,2.14-1.53-.07-3.08-.18-4.59-.36h0Zm27.21-3.02c-1.15,.41-2.43-.2-2.83-1.36-.41-1.15,.2-2.42,1.35-2.83,1.31-.41,2.71-1.02,3.96-1.56,1.12-.49,2.43,0,2.93,1.12,.49,1.13,0,2.43-1.13,2.93-1.33,.59-2.9,1.27-4.29,1.69h0Zm23.13-14.69c-.86,.87-2.27,.89-3.14,.04-.88-.86-.89-2.27-.04-3.14,1.01-1.02,1.95-2.06,2.89-3.15,.79-.94,2.19-1.05,3.12-.27,.94,.79,1.05,2.19,.25,3.12-1,1.17-2.01,2.3-3.09,3.4h0Zm14.34-23.34c-.38,1.16-1.64,1.8-2.8,1.41-1.16-.38-1.8-1.64-1.41-2.8,.45-1.35,.85-2.71,1.2-4.1,.29-1.18,1.5-1.91,2.7-1.61,1.18,.3,1.91,1.51,1.61,2.7-.38,1.49-.81,2.95-1.3,4.41h0Zm2.62-27.25c.16,1.21-.69,2.33-1.91,2.49-1.21,.16-2.33-.69-2.49-1.91-.19-1.41-.43-2.8-.71-4.2-.26-1.2,.51-2.37,1.7-2.63,1.2-.26,2.38,.51,2.63,1.71,.33,1.48,.57,3.03,.78,4.54h0Zm-9.61-25.65c.68,1.02,.41,2.4-.62,3.07-1.01,.68-2.39,.41-3.07-.62-.78-1.17-1.63-2.34-2.5-3.45-.76-.96-.59-2.35,.38-3.12,.96-.75,2.36-.59,3.11,.37,.94,1.21,1.86,2.48,2.7,3.75h0Zm-19.89-18.82c1.05,.62,1.41,1.99,.79,3.04-.62,1.06-1.98,1.41-3.04,.79-1.23-.73-2.49-1.39-3.76-2.02-1.1-.54-1.55-1.87-1.01-2.97,.54-1.1,1.87-1.55,2.97-1.01,1.37,.7,2.71,1.39,4.05,2.18Z" style="fill:#d0d9ee; fill-rule:evenodd;"/><path d="M530.36,658.23c-5.99,14.82-20.49,25.29-37.46,25.29h-88.34c-16.97,0-31.47-10.47-37.46-25.29h163.26Z" style="fill:#d0d9ee; fill-rule:evenodd;"/><path d="M564.55,659.8h7.26c3.11,0,5.64,2.53,5.64,5.64v12.45c0,3.11-2.53,5.64-5.64,5.64h-7.25c-3.11,0-5.64-2.53-5.64-5.64v-12.45c0-3.11,2.53-5.64,5.64-5.64Z" style="fill:#d0d9ee;"/><rect x="558.91" y="656" width="18.53" height="4.61" rx="1.15" ry="1.15" style="fill:#bcc9e7;"/><path d="M540.74,659.8h7.26c3.11,0,5.64,2.53,5.64,5.64v12.45c0,3.11-2.53,5.64-5.64,5.64h-7.25c-3.11,0-5.64-2.53-5.64-5.64v-12.45c0-3.11,2.53-5.64,5.64-5.64Z" style="fill:#d0d9ee;"/><rect x="535.1" y="656" width="18.53" height="4.61" rx="1.15" ry="1.15" style="fill:#bcc9e7;"/><path d="M504.69,669.69h0c1.25,.95,3.02,.7,3.96-.55l10.32-13.65c.95-1.25,.7-3.02-.54-3.96-1.25-.94-3.03-.69-3.96,.55l-10.33,13.66c-.94,1.25-.69,3.02,.55,3.96Z" style="fill:#d0d9ee; fill-rule:evenodd;"/><path d="M494.58,669.69h0c1.24,.95,3.02,.7,3.95-.55l10.33-13.65c.95-1.25,.7-3.02-.55-3.96-1.24-.94-3.02-.69-3.95,.55l-10.33,13.66c-.94,1.25-.7,3.02,.55,3.96Z" style="fill:#d0d9ee; fill-rule:evenodd;"/><path d="M484.47,669.69h0c1.24,.95,3.01,.7,3.95-.55l10.33-13.65c.95-1.25,.69-3.02-.55-3.96-1.25-.94-3.02-.69-3.95,.55l-10.34,13.66c-.94,1.25-.69,3.02,.56,3.96Z" style="fill:#d0d9ee; fill-rule:evenodd;"/><path d="M474.35,669.69h0c1.25,.95,3.02,.7,3.96-.55l10.33-13.65c.94-1.25,.69-3.02-.56-3.96-1.24-.94-3.01-.69-3.95,.55l-10.33,13.66c-.95,1.25-.69,3.02,.55,3.96Z" style="fill:#d0d9ee; fill-rule:evenodd;"/><path d="M464.24,669.69h0c1.24,.95,3.02,.7,3.95-.55l10.33-13.65c.95-1.25,.7-3.02-.55-3.96-1.24-.94-3.02-.69-3.95,.55l-10.33,13.66c-.95,1.25-.7,3.02,.55,3.96Z" style="fill:#d0d9ee; fill-rule:evenodd;"/><path d="M447.39,675.52h10.37v-24.18c0-2.87-2.33-5.18-5.18-5.18s-5.18,2.32-5.18,5.18v24.18Z" style="fill:#d0d9ee; fill-rule:evenodd;"/><rect x="451.19" y="619.9" width="2.76" height="32.42" style="fill:#d0d9ee;"/><rect x="450.41" y="611.79" width="4.33" height="8.11" style="fill:#bcc9e7;"/><rect x="446.06" y="614.01" width="6.52" height="3.66" style="fill:#bcc9e7;"/><path d="M425.51,675.52h10.37v-24.18c0-2.87-2.32-5.18-5.19-5.18s-5.17,2.32-5.17,5.18v24.18Z" style="fill:#d0d9ee; fill-rule:evenodd;"/><rect x="429.31" y="619.9" width="2.76" height="32.42" style="fill:#d0d9ee;"/><rect x="428.53" y="611.79" width="4.32" height="8.11" style="fill:#bcc9e7;"/><rect x="424.18" y="614.01" width="6.51" height="3.66" style="fill:#bcc9e7;"/><path d="M429.21,1205.68v-427.21c0-14.69-9.23-26.64-20.56-26.64h-23.45c-11.33,0-20.55,11.95-20.55,26.64v427.21h-10.98v-427.21c0-20.73,14.15-37.61,31.54-37.61h23.45c17.39,0,31.54,16.88,31.54,37.61v427.21h-10.97Z" style="fill:#aab9de; fill-rule:evenodd;"/><path d="M601.12,1205.68v-427.21c0-14.69-9.22-26.64-20.55-26.64h-23.45c-11.33,0-20.56,11.95-20.56,26.64v427.21h-10.97v-427.21c0-20.73,14.15-37.61,31.54-37.61h23.45c17.39,0,31.53,16.88,31.53,37.61v427.21h-10.97Z" style="fill:#aab9de; fill-rule:evenodd;"/><rect x="443.51" y="684.1" width="171.17" height="65.54" style="fill:#d0d9ee;"/><rect x="350.32" y="684.1" width="93.19" height="65.54" style="fill:#bcc9e7;"/><rect x="443.51" y="931.41" width="171.17" height="14.5" style="fill:#bcc9e7;"/><rect x="350.32" y="931.41" width="93.19" height="14.5" style="fill:#aab9de;"/><path d="M604.25,736.57h-150.31v-39.4h150.31v39.4h0Zm-153.05,2.74h155.79v-44.88h-155.79v44.88Z" style="fill:#fff; fill-rule:evenodd;"/><path d="M906.58,646.72h-47.91c-2.28,0-4.12,1.85-4.12,4.13s1.84,4.12,4.12,4.12h47.91c2.28,0,4.13-1.85,4.13-4.12s-1.85-4.13-4.13-4.13Z" style="fill:#fff; fill-rule:evenodd;"/><path d="M932.27,708.13l-14.06-4.48c-8.83-2.83-14.81-11.03-14.81-20.3v-28.37h-41.54v28.37c0,9.27-6,17.47-14.82,20.3l-14.05,4.48c-8.83,2.82-14.82,11.03-14.82,20.3v106.82c0,7.8,6.33,14.12,14.12,14.12h100.67c7.8,0,14.12-6.32,14.12-14.12v-106.82c0-9.27-5.99-17.48-14.81-20.3Z" style="fill:#fff; fill-rule:evenodd;"/><path d="M828.43,753.77v73.46c0,6.56,5.33,11.87,11.88,11.87h84.61c6.56,0,11.88-5.32,11.88-11.87v-73.46h-108.37Z" style="fill:#d0d9ee; fill-rule:evenodd;"/><path d="M928.6,821.59h-16.59c-1.27,0-2.29,1.02-2.29,2.28s1.02,2.28,2.29,2.28h16.59c1.26,0,2.28-1.02,2.28-2.28s-1.02-2.28-2.28-2.28h0Zm0-87.62h-16.59c-1.27,0-2.29,1.02-2.29,2.28s1.02,2.29,2.29,2.29h16.59c1.26,0,2.28-1.03,2.28-2.29s-1.02-2.28-2.28-2.28h0Zm0,17.53h-16.59c-1.27,0-2.29,1.01-2.29,2.28s1.02,2.28,2.29,2.28h16.59c1.26,0,2.28-1.02,2.28-2.28s-1.02-2.28-2.28-2.28h0Zm0,17.52h-16.59c-1.27,0-2.29,1.02-2.29,2.28s1.02,2.29,2.29,2.29h16.59c1.26,0,2.28-1.02,2.28-2.29s-1.02-2.28-2.28-2.28h0Zm0,17.53h-16.59c-1.27,0-2.29,1.02-2.29,2.28s1.02,2.28,2.29,2.28h16.59c1.26,0,2.28-1.02,2.28-2.28s-1.02-2.28-2.28-2.28h0Zm0,17.52h-16.59c-1.27,0-2.29,1.02-2.29,2.28s1.02,2.29,2.29,2.29h16.59c1.26,0,2.28-1.02,2.28-2.29s-1.02-2.28-2.28-2.28Z" style="fill:#8d9fca; fill-rule:evenodd;"/><rect x="861.85" y="654.98" width="41.54" height="7.82" style="fill:#dee7f5;"/><path d="M837.2,821.71c0-3.5,2.83-6.33,6.33-6.33s6.32,2.83,6.32,6.33-2.83,6.32-6.32,6.32-6.33-2.83-6.33-6.32h0Zm0-35.3c0-3.49,2.83-6.32,6.33-6.32s6.32,2.83,6.32,6.32-2.83,6.33-6.32,6.33-6.33-2.84-6.33-6.33h0Zm0,17.65c0-3.49,2.83-6.33,6.33-6.33s6.32,2.84,6.32,6.33-2.83,6.33-6.32,6.33-6.33-2.84-6.33-6.33Z" style="fill:#fff; fill-rule:evenodd;"/><path d="M889.32,628.67h-13.4c-4.37,0-7.92,3.55-7.92,7.92v10.14h29.24v-10.14c0-4.37-3.55-7.92-7.92-7.92Z" style="fill:#d0d9ee; fill-rule:evenodd;"/><path d="M875.92,673.04h13.4c4.37,0,7.92-3.54,7.92-7.92v-10.14h-29.24v10.14c0,4.37,3.55,7.92,7.92,7.92Z" style="fill:#d0d9ee; fill-rule:evenodd;"/><rect x="868" y="654.98" width="29.24" height="7.82" style="fill:#bcc9e7;"/><path d="M1007.92,731h-26.13c-1.48,0-2.68,1.19-2.68,2.67s1.2,2.67,2.68,2.67h26.13c1.47,0,2.67-1.19,2.67-2.67s-1.2-2.67-2.67-2.67Z" style="fill:#fff; fill-rule:evenodd;"/><path d="M984.24,736.33v88.9c0,5.86,4.75,10.62,10.61,10.62h0c5.87,0,10.62-4.76,10.62-10.62v-88.9h-21.24Z" style="fill:#fff; fill-rule:evenodd;"/><rect x="984.24" y="736.33" width="21.24" height="4.15" style="fill:#dee7f5;"/><path d="M988.73,767.31v56.04c0,3.39,2.74,6.12,6.12,6.12h0c3.39,0,6.13-2.73,6.13-6.12v-56.04h-12.25Z" style="fill:#bcc9e7; fill-rule:evenodd;"/><path d="M1043.94,731h-26.13c-1.47,0-2.67,1.19-2.67,2.67s1.2,2.67,2.67,2.67h26.13c1.47,0,2.67-1.19,2.67-2.67s-1.2-2.67-2.67-2.67Z" style="fill:#fff; fill-rule:evenodd;"/><path d="M1020.26,736.33v88.9c0,5.86,4.75,10.62,10.61,10.62h0c5.87,0,10.62-4.76,10.62-10.62v-88.9h-21.24Z" style="fill:#fff; fill-rule:evenodd;"/><rect x="1020.26" y="736.33" width="21.24" height="4.15" style="fill:#dee7f5;"/><path d="M1024.75,786.53v36.82c0,3.39,2.74,6.12,6.12,6.12s6.13-2.73,6.13-6.12v-36.82h-12.25Z" style="fill:#bcc9e7; fill-rule:evenodd;"/><path d="M1079.96,731h-26.13c-1.48,0-2.68,1.19-2.68,2.67s1.2,2.67,2.68,2.67h26.13c1.47,0,2.67-1.19,2.67-2.67s-1.2-2.67-2.67-2.67Z" style="fill:#fff; fill-rule:evenodd;"/><path d="M1056.28,736.33v88.9c0,5.86,4.75,10.62,10.62,10.62h0c5.86,0,10.61-4.76,10.61-10.62v-88.9h-21.24Z" style="fill:#fff; fill-rule:evenodd;"/><rect x="1056.28" y="736.33" width="21.24" height="4.15" style="fill:#dee7f5;"/><path d="M1060.77,760.16v63.19c0,3.39,2.74,6.12,6.13,6.12h0c3.38,0,6.12-2.73,6.12-6.12v-63.19h-12.25Z" style="fill:#bcc9e7; fill-rule:evenodd;"/><path d="M1115.98,731h-26.13c-1.48,0-2.68,1.19-2.68,2.67s1.2,2.67,2.68,2.67h26.13c1.48,0,2.67-1.19,2.67-2.67s-1.19-2.67-2.67-2.67Z" style="fill:#fff; fill-rule:evenodd;"/><path d="M1092.3,736.33v88.9c0,5.86,4.75,10.62,10.61,10.62h0c5.87,0,10.62-4.76,10.62-10.62v-88.9h-21.24Z" style="fill:#fff; fill-rule:evenodd;"/><rect x="1092.3" y="736.33" width="21.24" height="4.15" style="fill:#dee7f5;"/><path d="M1096.79,802.29v21.06c0,3.39,2.74,6.12,6.12,6.12h0c3.39,0,6.13-2.73,6.13-6.12v-21.06h-12.25Z" style="fill:#bcc9e7; fill-rule:evenodd;"/><path d="M973.85,751.83h150.09c2.18,0,3.94-1.77,3.94-3.94s-1.76-3.95-3.94-3.95h-150.09c-2.18,0-3.95,1.77-3.95,3.95s1.78,3.94,3.95,3.94Z" style="fill:#aab9de; fill-rule:evenodd;"/><path d="M1123.94,841.48h-150.09c-2.18,0-3.95,1.77-3.95,3.95s1.78,3.94,3.95,3.94h150.09c2.18,0,3.94-1.77,3.94-3.94s-1.76-3.95-3.94-3.95Z" style="fill:#aab9de; fill-rule:evenodd;"/><rect x="984.24" y="751.83" width="21.24" height="6.34" style="fill:#dee7f5;"/><rect x="1020.26" y="751.83" width="21.24" height="6.34" style="fill:#dee7f5;"/><rect x="1056.28" y="751.83" width="21.24" height="6.34" style="fill:#dee7f5;"/><rect x="1092.3" y="751.83" width="21.24" height="6.34" style="fill:#dee7f5;"/><rect x="975.52" y="751.83" width="3.59" height="89.64" style="fill:#8d9fca;"/><rect x="1118.67" y="751.83" width="3.59" height="89.64" style="fill:#8d9fca;"/><rect x="764.76" y="849.38" width="416.52" height="15.96" style="fill:#99a9d4;"/><polygon points="826.06 885.86 797.41 885.86 788.73 865.33 834.73 865.33 826.06 885.86" style="fill:#99a9d4; fill-rule:evenodd;"/><polygon points="831.86 872.15 834.73 865.33 788.73 865.33 791.61 872.15 831.86 872.15" style="fill:#8d9fca; fill-rule:evenodd;"/><polygon points="1119.99 885.86 1148.65 885.86 1157.32 865.33 1111.32 865.33 1119.99 885.86" style="fill:#99a9d4; fill-rule:evenodd;"/><polygon points="1114.19 872.15 1111.32 865.33 1157.32 865.33 1154.44 872.15 1114.19 872.15" style="fill:#8d9fca; fill-rule:evenodd;"/><polygon points="915.66 1086.31 896.4 1064.67 1007.96 965.34 1027.26 987 915.66 1086.31" style="fill:#d0d9ee; fill-rule:evenodd;"/><rect x="961.84" y="1028.32" width="151.16" height="14.99" style="fill:#d0d9ee;"/><rect x="779.53" y="888.49" width="477.17" height="56.88" style="fill:#aab9de;"/><polygon points="1219.56 391.49 1183.1 520.3 1141.57 666.9 1113.02 658.9 1110.78 658.23 1046.66 640.14 1018.12 632.02 1096.11 356.5 1110.78 360.7 1124.66 364.6 1190.92 383.37 1219.47 391.49 1219.56 391.49" style="fill:#d0d9ee; fill-rule:evenodd;"/><path d="M1362.26,1188.75v.47H767.22v-.47c0-26.2,21.3-47.5,47.49-47.5h499.95c26.29,0,47.6,21.29,47.6,47.5Z" style="fill:#99a9d4; fill-rule:evenodd;"/><path d="M1110.78,1047.9v-102.53h145.92v-56.88h-21.3c69.79-46.42,115.81-125.89,115.81-216.01h0c0-45.92-12-89.14-33.03-126.56,15.45-12.62,25.23-31.75,25.23-53.26,0-38.03-30.8-68.81-68.81-68.81-37.93,0-68.82,30.78-68.82,68.81,0,4.78,.49,9.36,1.36,13.89-4.08,2.7-8.25,5.36-12.55,7.83-3.74,2.15-7.58,4.16-11.48,5.93l36.46-128.81h-.09l18.86-65.29c134.79,57.08,229.38,190.59,229.38,346.28,0,146.02-83.28,272.7-204.95,334.86v-8.9c0-29.32-23.76-53.07-52.98-53.07h-1.07c-29.31,0-52.98,23.75-52.98,53.07v44.57c-14.76,2.44-29.71,4.11-44.95,4.88Z" style="fill:#aab9de; fill-rule:evenodd;"/><polygon points="1256.7 945.37 1110.78 945.37 1110.78 888.49 1172.07 888.49 1196.78 888.49 1235.4 888.49 1256.7 888.49 1256.7 945.37" style="fill:#99a9d4; fill-rule:evenodd;"/><path d="M1262.76,1141.26h-107.03v-142.81c0-29.32,23.66-53.07,52.98-53.07h1.07c29.22,0,52.98,23.75,52.98,53.07v142.81h0Zm-53.52-172.58c-16.47,0-29.82,13.34-29.82,29.81,0,16.48,13.36,29.83,29.82,29.83s29.8-13.36,29.8-29.83c0-16.47-13.33-29.81-29.8-29.81Z" style="fill:#99a9d4; fill-rule:evenodd;"/><path d="M1209.24,1028.32c-16.47,0-29.82-13.36-29.82-29.83,0-16.47,13.36-29.81,29.82-29.81s29.8,13.34,29.8,29.81c0,16.48-13.33,29.83-29.8,29.83Z" style="fill:#d0d9ee; fill-rule:evenodd;"/><path d="M1274.6,561.45c-33.25,0-61.01-23.54-67.46-54.91h0c-.87-4.52-1.36-9.11-1.36-13.89,0-38.03,30.88-68.81,68.82-68.81,38.02,0,68.81,30.78,68.81,68.81,0,21.51-9.78,40.66-25.23,53.26h0c-11.94,9.68-27.08,15.53-43.59,15.53h0Zm.02-98.37c-16.32,0-29.56,13.24-29.56,29.57s13.24,29.55,29.56,29.55,29.54-13.24,29.54-29.55c0-16.33-13.21-29.57-29.54-29.57Z" style="fill:#99a9d4; fill-rule:evenodd;"/><path d="M1274.62,522.2c-16.32,0-29.56-13.24-29.56-29.55s13.24-29.57,29.56-29.57,29.54,13.24,29.54,29.57c0,16.31-13.21,29.55-29.54,29.55Z" style="fill:#d0d9ee; fill-rule:evenodd;"/><polygon points="1141.57 666.9 1113.02 658.9 1113 658.9 1113 658.88 1110.78 658.19 1110.78 360.7 1124.66 364.6 1190.92 383.37 1219.47 391.49 1219.56 391.49 1183.1 520.3 1141.57 666.9" style="fill:#bcc9e7; fill-rule:evenodd;"/><path d="M1230.61,297.65l-14.27-4,17.4-61.39,14.26,4.01-17.39,61.38h0Zm-80.54-22.86h0l-14.26-4.01,17.29-61.37,14.38,4.09-17.4,61.3Z" style="fill:#99a9d4; fill-rule:evenodd;"/><polygon points="1190.92 383.37 1124.66 364.6 1150.06 274.79 1167.47 213.49 1175.48 185.06 1241.74 203.84 1233.73 232.26 1216.33 293.65 1190.92 383.37" style="fill:#99a9d4; fill-rule:evenodd;"/><polygon points="1032.78 636.2 1028.7 683.41 1091.35 702.48 1119.6 660.7 1105.33 656.7 1105.31 656.7 1105.31 656.7 1103.08 656.03 1038.97 637.95 1032.78 636.2" style="fill:#99a9d4; fill-rule:evenodd;"/><path d="M889.48,311.55l15.93,175.9c.36,3.97,3.29,7.31,7.31,7.31h107.18c4.03,0,6.95-3.34,7.32-7.31l15.93-175.9h-153.67Z" style="fill:#fff; fill-rule:evenodd;"/><path d="M896.4,311.55l15.21,167.99c.36,3.98,3.29,7.31,7.31,7.31h94.79c4.03,0,6.96-3.33,7.32-7.31l15.21-167.99h-139.84Z" style="fill:#dee7f5; fill-rule:evenodd;"/><rect x="881.3" y="261.66" width="170.03" height="49.89" style="fill:#fff;"/><path d="M905.19,328.13c-.18-1.82,1.15-3.43,2.97-3.61,1.82-.18,3.43,1.14,3.61,2.96l1.41,14.32c.18,1.83-1.15,3.44-2.97,3.62-1.82,.18-3.43-1.15-3.61-2.97l-1.41-14.32h0Zm2.83,28.83c-.18-1.82,1.15-3.43,2.97-3.61,1.82-.18,3.43,1.15,3.61,2.97l2.3,23.37h-6.65l-2.23-22.73Z" style="fill:#fff; fill-rule:evenodd;"/><path d="M902.56,379.69h127.5l-9.03,99.84c-.36,3.98-3.29,7.31-7.32,7.31h-94.79c-4.02,0-6.95-3.33-7.31-7.31l-9.04-99.84Z" style="fill:#d0d9ee; fill-rule:evenodd;"/><path d="M924.36,455.68l-7.45-75.99h-6.65l7.52,76.63c.18,1.83,1.8,3.15,3.61,2.97,1.83-.18,3.15-1.8,2.97-3.61Z" style="fill:#dee7f5; fill-rule:evenodd;"/><path d="M725.41,607.05h0c9.2,0,16.67,7.47,16.67,16.67v533.37c0,9.2-7.47,16.67-16.67,16.67h-.01c-9.2,0-16.67-7.47-16.67-16.67V623.72c0-9.2,7.47-16.67,16.67-16.67Z" style="fill:#fff;"/><path d="M714.89,629.67h21.04v28.18h-21.04v-28.18h0Zm0,304.78h21.04v28.18h-21.04v-28.18h0Zm0-76.19h21.04v28.18h-21.04v-28.18h0Zm0-76.19h21.04v28.17h-21.04v-28.17h0Zm0-76.2h21.04v28.18h-21.04v-28.18Z" style="fill:#d0d9ee; fill-rule:evenodd;"/><path d="M714.89,667.77h21.04v28.17h-21.04v-28.17h0Zm0,304.78h21.04v28.18h-21.04v-28.18h0Zm0-76.2h21.04v28.18h-21.04v-28.18h0Zm0-76.19h21.04v28.18h-21.04v-28.18h0Zm0-76.19h21.04v28.17h-21.04v-28.17Z" style="fill:#99a9d4; fill-rule:evenodd;"/><path d="M591.36,403.67c-2.04,11.24-2.04,25.55-13.27,38.83l-11.24,13.3,52.09,26.54s4.1-25.53,14.32-33.72c10.22-8.17-41.9-44.95-41.9-44.95Z" style="fill:#f4ae7c; fill-rule:evenodd;"/><path d="M694.39,358.53c-8.4-30.97-78.86-57.62-94.31-11.24-28.17,84.48,23.9,105.62,23.9,105.62,18.28,2.83,22.52,5.68,36.65,2.84,6.89-1.37,12.7-9.82,18.8-21.51,5.97-.26,12.55,.75,12.62-3.48-1.98-6.06-1.2-16.56-1.88-20.82,6.11-18.99,8.25-36.85,4.21-51.41Z" style="fill:#f4ae7c; fill-rule:evenodd;"/><path d="M628.62,454.3c14.29,2.52,19.02,4.61,31.8,2.01,6.88-1.35,12.68-9.8,18.8-21.5,5.96-.25,12.54,.74,12.62-3.46-1.97-6.06-1.2-16.58-1.87-20.83,6.08-19,8.25-36.87,4.21-51.41-.42-1.54-1.03-3.08-1.73-4.59l-9.89,.42c-4.58,33.82-12.17,83.93-60.33,85.03l-24.6,32.18,21.11,10.77s2.91-18.01,9.89-28.62Z" style="fill:#ed7d5b; fill-rule:evenodd;"/><path d="M610.62,323.35c7.96-7.14,25.49-14.07,47.91-7.8,21.72,6.07,28.07,12.6,38.24,31.37,5.23,9.52,.47,25.67,.47,25.67,0,0-7.92-3.95-13.51-3.95s-11.86-4.91-21.39,2.95c-8.05,6.59-12.29,15.64-12.29,15.64,0,0-24.44,2.12-26.83,9.27-2.38,7.19-32.44,20.77-32.44,20.77,0,0-9.47-32.84-8.92-50.37,1.28-40.95,26.87-41.79,28.75-43.54Z" style="fill:#0f3970; fill-rule:evenodd;"/><path d="M662.81,371.62c9.54-7.84,15.82-2.92,21.41-2.92s17.3,9.7,17.3,9.7c0,0,12.21-12.48,6.95-22.09-10.19-18.74-27.73-34.65-49.52-40.73-8.77-2.44-16.77-2.89-23.8-2.06,9.44,6.64,26.39,23.59,10.94,74.01,6.75-1.55,4.46-.27,4.46-.27,0,0,4.21-9.03,12.26-15.64Z" style="fill:#0f3970; fill-rule:evenodd;"/><path d="M640.34,391.01c-3.28-3.82-8.65-14.12-13.73-10.27-5.08,3.93-12.84,24.96-4.71,32.64,8.08,7.64,18.45-22.37,18.45-22.37Z" style="fill:#f4ae7c; fill-rule:evenodd;"/><path d="M750.37,596.7l77.08-1.37s5.46,7.18-.33,18.1c-5.81,10.9-20.64,24.21-38.44,22.51-17.83-1.71-38.31-12.3-39.32-25.95-1.04-13.63,1.01-13.29,1.01-13.29Z" style="fill:#d0d9ee; fill-rule:evenodd;"/><path d="M824.56,613.43c5.79-10.92,.34-18.1,.34-18.1l-39.6,.7v39.78l.78,.13c17.83,1.69,32.69-11.62,38.48-22.51Z" style="fill:#d0d9ee; fill-rule:evenodd;"/><path d="M746.2,602.67c.02-15.2,11.44-27.84,27.07-32.91v-133.24h4.11v136.27l-1.48,.45c-15.1,4.38-25.64,16.02-25.61,29.43,.05,16.9,16.88,31.21,38.39,31.21s38.29-14.3,38.33-31.21c.05-13.4-10.5-25.05-25.62-29.43l-1.48-.45v-136.27h4.1v133.23c15.66,5.07,27.07,17.7,27.09,32.92-.06,19.83-19.27,35.27-42.42,35.3-23.18-.03-42.4-15.48-42.48-35.3Z" style="fill:#fff; fill-rule:evenodd;"/><path d="M768.61,430.51c.02,1.82,1.37,3.14,2.88,3.14h34.83c1.47,0,2.84-1.32,2.86-3.14,0-1.8-1.39-3.13-2.86-3.13h-34.83c-1.51,0-2.87,1.33-2.88,3.13h0Zm2.88,7.13c-3.88-.03-6.85-3.29-6.87-7.13,.02-3.84,2.99-7.09,6.87-7.11h34.83c3.86,.02,6.82,3.27,6.85,7.11-.03,3.84-2.99,7.11-6.85,7.13h-34.83Z" style="fill:#fff; fill-rule:evenodd;"/><path d="M567.45,1145.03c4.38,13.18,.71,27.12-1.48,44.7-2.19,17.58-6.59,30.76,11,35.16,17.59,4.4,104.78,4.4,104.78,4.4,0,0,16.11-20.53-23.46-26.39-30.74-4.54-46.14-32.23-44.69-57.87,.36-6.59-46.15,0-46.15,0Z" style="fill:#142d4d; fill-rule:evenodd;"/><path d="M668.01,798.1c-2.72,59.94-12.38,180.38-16.35,188.01-19.08,36.78-25.88,192.11-25.88,192.11l-61.31,2.72s-16.35-138.97,2.72-196.16c5.77-17.37-16.34-189.41-16.34-189.41l117.16,2.73Z" style="fill:#406fb5; fill-rule:evenodd;"/><path d="M547,1161.4c4.41,13.18,.73,27.1-1.47,44.69-2.21,17.59-6.58,30.77,10.99,35.17,17.58,4.4,104.79,4.4,104.79,4.4,0,0,16.11-20.52-23.46-26.38-30.74-4.56-46.15-32.25-44.69-57.87,.38-6.6-46.16,0-46.16,0Z" style="fill:#0f3970; fill-rule:evenodd;"/><path d="M647.57,810.36c-2.73,59.95-12.38,180.36-16.36,188.01-19.05,36.79-25.87,192.11-25.87,192.11l-61.32,2.71s-16.35-138.96,2.73-196.18c5.79-17.33-16.36-189.36-16.36-189.36l117.18,2.71Z" style="fill:#6998d0; fill-rule:evenodd;"/><path d="M567.88,446.59c-21.45,20.43-38.68,23.36-38.68,86.01s13.02,94.3,10.97,118.84c-3.41,40.73-5.69,36.29-9.09,113.95-3,68.12-10.22,175.74-10.22,175.74h160.78l-4.11-247.94s-4.94-79.95-13.11-134.46c-5.9-39.36-19.25-58.24-29.63-71.78-3.98-5.19-12.58-10.53-16.36-14.3-13.63-13.62-50.57-26.06-50.57-26.06Z" style="fill:#fff; fill-rule:evenodd;"/><path d="M664.93,561.66l.17,1.67,.08,.67,.24,2.35,.24,2.34,.24,2.35,.25,2.35,.24,2.34,.25,2.35,.24,2.34,.24,2.35,.25,2.35,.24,2.34,.24,2.35,.25,2.35,.24,2.35,.24,2.34,.25,2.35,.24,2.34,.24,2.35,.25,2.35,.24,2.34,.24,2.35,.25,2.35,.24,2.34,.25,2.35,.24,2.35,.24,2.34,.25,2.35,.24,2.35,.24,2.34,.24,2.34,.25,2.35,.24,2.35,.25,2.35,.24,2.35,.24,2.34,.25,2.35,.24,2.34,.25,2.35,.24,2.35,.24,2.34,.25,2.34,.24,2.36,.24,2.34,.24,2.35,.18,1.72,.07,.62,.24,2.34,.25,2.35,.16,1.62-.21-.24-.79-.91-1.45-1.65-1.44-1.65-1.44-1.65-1.45-1.66-1.44-1.65-1.45-1.65-1.44-1.66-1.44-1.64-1.45-1.66-1.44-1.65-1.44-1.66-1.45-1.64-1.44-1.65-1.44-1.65-1.45-1.65-1.44-1.65-1.45-1.65-1.44-1.64-1.44-1.66-1.45-1.65-1.44-1.65-1.44-1.65-1.45-1.66-1.44-1.65-1.45-1.65-1.44-1.65-1.44-1.66-1.45-1.65-1.44-1.65-1.44-1.66-1.45-1.65-1.44-1.65-1.44-1.65-1.45-1.66-1.45-1.65-1.44-1.65-1.44-1.66-1.44-1.64-1.44-1.66-1.45-1.65-1.45-1.66-1.44-1.65-1.44-1.65-1.45-1.65-1.44-1.65-1.44-1.66-1.45-1.65-1.44-1.65-1.44-1.66-1.45-1.65-1.44-1.65-1.45-1.65-1.44-1.66-1.44-1.65-1.45-1.65-1.44-1.65-1.44-1.66-1.45-1.65-1.44-1.65-1.44-1.65-1.45-1.66-1.44-1.65-1.45-1.65-1.44-1.66-1.44-1.65-1.45-1.65-1.44-1.65-1.45-1.65-1.44-1.66-1.44-1.65-1.45-1.65-1.44-1.65-1.44-1.66-1.45-1.65-1.44-1.65-1.45-1.66-1.44-1.65-1.44-1.65-1.44-1.66-1.45-1.65-1.45-1.65-1.44-1.65-1.44-1.65-1.45-1.65-1.44-1.66-1.44-1.65-1.45-1.66-1.44-1.65-1.06-1.21,.26-.81,1.03-3.07,1.02-3.07,1.02-3.06,1.03-3.07,1.02-3.07,1.02-3.07,1.03-3.07,1.02-3.07,1.03-3.07,1.02-3.07,1.02-3.07,1.03-3.07,.45-1.37,3.25-3.25,5.87-5.87,5.87-5.88,5.87-5.86,5.87-5.88,4.14-4.14,1.72-1.72,.98-.97,.27,.25,1.72,1.48,1.73,1.49,1.71,1.48,1.72,1.49,1.73,1.49,1.71,1.48,.19,.16,.87,.75,.66,.58,1.72,1.48,1.72,1.49,1.72,1.48,1.72,1.49,1.71,1.48,1.73,1.49,1.72,1.49,1.71,1.48,.89,.77,4.99-.84c4.87,1.63,18.38,2.71,18.38,2.71,0,0,12.64,39.49,13.17,45.44,.09,.82-.6,.51-1.83-.64l.35,1.27,.34,1.21,.26,.93,.61,2.14,.59,2.14,.61,2.13,.6,2.14,.6,2.14,.6,2.14,.6,2.14,.6,2.14,.58,2.03,.03,.09,.6,2.14,.6,2.14,.6,2.14,.11,.39,.19,1.92,.25,2.34,.24,2.35,.24,2.34h0Zm-95.3-83.87l30.39-17.56h0s-2.28-1.17-2.28-1.17l-28.11,18.73h0Zm30.39-17.56l2.23,1.19-2.23-1.19Z" style="fill:#d0d9ee; fill-rule:evenodd;"/><path d="M563.94,447.15l3.77-17.83s33.32,19.15,37.3,22.15c10.58,8.01,25.4,18.91,26.48,21.08,1.08,2.16-14.59,7.57-14.59,7.57,0,0-22.7-20-34.05-25.41-11.35-5.39-18.91-7.56-18.91-7.56Z" style="fill:#fff; fill-rule:evenodd;"/><path d="M729.12,508.64c5.98-5.29,15.36-16.22,21.35-21.51,5.98-5.28,9.55-31.01,13.45-33.97,3.9-2.96,15.39-10.09,17.7-14.14,2.33-4.04,14.83-22.73,18.83-27.53,3.42-4.11,11.64-4.11,7.54,4.8-5.85,12.67-10.52,29.01-10.52,29.01,0,0,7.07-.5,9.15,2.76,3.2,5.02,1.66,13.02-2.25,15.97,3.07,3.05,9.57,6.57,3.36,13.57,1.98,4.65,.65,7.96-2.76,13.61-3.41,5.64-22.69,18.68-29.65,24.71-6.96,6.03-22.57,23.95-22.57,23.95l-23.63-31.23Z" style="fill:#f4ae7c; fill-rule:evenodd;"/><path d="M801.62,511.31c-9.74,5.57-17.63,14.84-13.01,17.62,4.64,2.79,18.57-4.63,20.44-10.21,1.85-5.56-7.43-7.42-7.43-7.42Z" style="fill:#f4ae7c; fill-rule:evenodd;"/><path d="M805.81,520.6c3.24,0,5.1,2.31,4.63,5.55-.46,3.25-6.97,13.02-9.28,14.87-2.33,1.85-16.25,11.14-18.58,9.75-2.32-1.39-4.19-4.19,.45-10.22,4.64-6.04,9.3-11.15,10.69-12.07,1.39-.93,12.08-7.89,12.08-7.89Z" style="fill:#f4ae7c; fill-rule:evenodd;"/><path d="M810.44,526.15c3.24,1.86,4.64,7.9,4.64,10.69,3.25,1.85,5.58,5.1,3.71,8.35-1.85,3.26-5.57,7.9-5.57,7.9,0,0-8.36,6.5-10.68,5.57l-2.33-.94s-6.49,1.39-7.88,1.39-6.98-3.24-2.34-7.89c4.64-4.64,13.02-12.53,13.94-13.92,.92-1.4,6.5-11.15,6.5-11.15Z" style="fill:#f4ae7c; fill-rule:evenodd;"/><path d="M575.58,477.99c-23.99-6.86-36.33,11.66-36.33,33.6s65.81,79.53,117.92,101.45c0,0,113.35-49.36,124.31-54.84-14.62-27.41-45.7-56.66-45.7-56.66l-71.3,49.35-88.9-72.89Z" style="fill:#fff; fill-rule:evenodd;"/><rect x="1579.03" y="673.68" width="28.02" height="20.52" style="fill:#99a9d4;"/><rect x="1635.53" y="673.48" width="16.61" height="20.51" style="fill:#99a9d4;"/><rect x="1680.25" y="673.48" width="16.64" height="20.51" style="fill:#99a9d4;"/><rect x="1861.41" y="673.48" width="25.15" height="20.51" style="fill:#99a9d4;"/><path d="M1579.43,752.45v-105.14c0-13.3,10.79-24.13,24.11-24.13h2.96v3.42h-2.96c-11.44,.03-20.7,9.29-20.7,20.71v105.14h-3.42Z" style="fill:#99a9d4; fill-rule:evenodd;"/><path d="M1885.1,752.45v-105.14c-.03-11.42-9.28-20.68-20.71-20.71h-2.97v-3.42h2.97c13.32,0,24.11,10.83,24.11,24.13v105.14h-3.41Z" style="fill:#99a9d4; fill-rule:evenodd;"/><rect x="1635.15" y="623.18" width="16.39" height="3.42" style="fill:#99a9d4;"/><rect x="1680.48" y="623.18" width="16.36" height="3.42" style="fill:#99a9d4;"/><rect x="1726.31" y="623.18" width="16.34" height="3.42" style="fill:#99a9d4;"/><rect x="1771.39" y="673.48" width="16.62" height="20.51" style="fill:#99a9d4;"/><rect x="1725.97" y="673.1" width="16.63" height="20.55" style="fill:#99a9d4;"/><rect x="1816.14" y="673.48" width="16.62" height="20.51" style="fill:#99a9d4;"/><rect x="1771.02" y="623.18" width="16.38" height="3.42" style="fill:#99a9d4;"/><rect x="1816.36" y="623.18" width="16.34" height="3.42" style="fill:#99a9d4;"/><polygon points="1654.65 611.87 1656.64 613.95 1676.19 614.07 1678.22 612 1678.28 602.7 1676.27 600.61 1656.72 600.54 1654.69 602.58 1654.65 611.87" style="fill:#99a9d4; fill-rule:evenodd;"/><path d="M1652.87,719.41c-.03,3.52,1.51,6.69,4.03,8.92,2.29,2.07,5.39,3.36,8.85,3.39h.79c3.99,.02,7.59-1.69,9.98-4.35,1.88-2.12,3.04-4.84,3.07-7.82l.15-112.17-1.43,.18c-2.63,.19-7.15,.37-11.97,.35-4.02,0-7.82-.08-10.54-.34l-2.83-.34-.11,112.19h0Zm-1.68,0l.14-113.17,.28-.66,.71-.18s1.42,.27,3.66,.48c2.6,.24,6.38,.32,10.4,.32,4.73,.04,9.23-.11,11.82-.33,1.39-.14,2.16-.32,2.16-.32l.74,.15,.32,.66-.14,113.18c-.02,3.4-1.34,6.55-3.5,8.96-2.71,3.01-6.76,4.91-11.23,4.88h-.79c-3.88,0-7.38-1.44-10-3.8-2.82-2.54-4.6-6.15-4.57-10.17Z" style="fill:#fff; fill-rule:evenodd;"/><path d="M1655.13,631.71v85.96c-.05,6.38,4.8,10.91,10.77,10.93h.63c5.98,.03,10.87-4.46,10.92-10.81v-86.07h-22.32Z" style="fill:#bcc9e7; fill-rule:evenodd;"/><path d="M1651.54,592.01l-1.5,2.36-.02,7.6c0,1.31,.79,2.32,2.18,2.57,2.09,.61,7.62,1.05,14.13,1.08,6.4,.04,11.87-.36,14.05-.9,1.43-.24,2.4-1.26,2.41-2.6l.03-7.61-1.93-2.54-29.36,.04Z" style="fill:#99a9d4; fill-rule:evenodd;"/><polygon points="1699.52 611.87 1701.52 613.95 1721.06 614.07 1723.1 612 1723.16 602.7 1721.15 600.61 1701.6 600.54 1699.56 602.58 1699.52 611.87" style="fill:#99a9d4; fill-rule:evenodd;"/><path d="M1697.73,719.41c-.02,3.52,1.53,6.69,4.04,8.92,2.29,2.07,5.41,3.36,8.85,3.39h.79c4.02,.02,7.57-1.69,9.96-4.35,1.93-2.12,3.08-4.84,3.08-7.82l.12-112.17-1.4,.18c-2.65,.19-7.15,.37-11.98,.35-4.01,0-7.82-.08-10.54-.34l-2.78-.34-.16,112.19h0Zm-1.66,0l.12-113.17,.33-.66,.66-.18s1.42,.27,3.66,.48c2.6,.24,6.37,.32,10.4,.32,4.76,.04,9.23-.11,11.82-.33,1.4-.14,2.17-.32,2.17-.32l.73,.15,.32,.66-.12,113.18c-.05,3.4-1.36,6.55-3.54,8.96-2.69,3.01-6.7,4.91-11.2,4.88h-.79c-3.85,0-7.38-1.44-9.98-3.8-2.85-2.54-4.61-6.15-4.58-10.17Z" style="fill:#fff; fill-rule:evenodd;"/><path d="M1700,622.35v95.32c-.06,6.38,4.8,10.91,10.78,10.93h.63c6,.03,10.87-4.46,10.91-10.81v-95.44h-22.32Z" style="fill:#bcc9e7; fill-rule:evenodd;"/><path d="M1696.45,592.01l-1.5,2.36-.05,7.6c0,1.31,.79,2.32,2.16,2.57,2.12,.61,7.66,1.05,14.15,1.08,6.42,.04,11.89-.36,14.08-.9,1.42-.24,2.37-1.26,2.4-2.6l.03-7.61-1.92-2.54-29.34,.04Z" style="fill:#99a9d4; fill-rule:evenodd;"/><polygon points="1609.52 611.87 1611.55 613.95 1631.09 614.07 1633.13 612 1633.17 602.7 1631.18 600.61 1611.63 600.54 1609.6 602.58 1609.52 611.87" style="fill:#99a9d4; fill-rule:evenodd;"/><path d="M1607.79,719.41c-.06,3.52,1.49,6.69,4,8.92,2.3,2.07,5.42,3.36,8.86,3.39h.79c4,.02,7.56-1.69,9.95-4.35,1.91-2.12,3.07-4.84,3.07-7.82l.12-112.17-1.39,.18c-2.64,.19-7.16,.37-11.95,.35-4.02,0-7.83-.08-10.56-.34l-2.81-.34-.1,112.19h0Zm-1.72,0l.14-113.17,.32-.66,.68-.18s1.41,.27,3.65,.48c2.6,.24,6.38,.32,10.4,.32,4.78,.04,9.25-.11,11.81-.33,1.4-.14,2.19-.32,2.19-.32l.74,.15,.32,.66-.15,113.18c-.03,3.4-1.33,6.55-3.52,8.96-2.68,3.01-6.73,4.91-11.22,4.88h-.78c-3.88,0-7.4-1.44-9.99-3.8-2.84-2.54-4.62-6.15-4.6-10.17Z" style="fill:#fff; fill-rule:evenodd;"/><path d="M1610.01,666.48v51.18c0,6.38,4.8,10.91,10.81,10.93h.62c5.98,.03,10.86-4.46,10.92-10.81v-51.3h-22.35Z" style="fill:#bcc9e7; fill-rule:evenodd;"/><path d="M1606.47,592.01l-1.51,2.36-.02,7.6c0,1.31,.79,2.32,2.17,2.57,2.11,.61,7.64,1.05,14.16,1.08,6.38,.04,11.87-.36,14.04-.9,1.43-.24,2.41-1.26,2.41-2.6l.05-7.61-1.93-2.54-29.36,.04Z" style="fill:#99a9d4; fill-rule:evenodd;"/><polygon points="1790.52 611.87 1792.51 613.95 1812.06 614.07 1814.08 612 1814.13 602.7 1812.13 600.61 1792.58 600.54 1790.56 602.58 1790.52 611.87" style="fill:#99a9d4; fill-rule:evenodd;"/><path d="M1788.74,719.41c-.03,3.52,1.5,6.69,4.03,8.92,2.27,2.07,5.41,3.36,8.85,3.39h.79c3.99,.02,7.59-1.69,9.97-4.35,1.9-2.12,3.05-4.84,3.07-7.82l.15-112.17-1.41,.18c-2.67,.19-7.16,.37-11.98,.35-4.01,0-7.81-.08-10.53-.34l-2.82-.34-.12,112.19h0Zm-1.7,0l.16-113.17,.29-.66,.71-.18s1.41,.27,3.64,.48c2.59,.24,6.38,.32,10.4,.32,4.75,.04,9.25-.11,11.8-.33,1.41-.14,2.17-.32,2.17-.32l.74,.15,.33,.66-.14,113.18c-.02,3.4-1.34,6.55-3.5,8.96-2.71,3.01-6.76,4.91-11.23,4.88h-.79c-3.88,0-7.38-1.44-10.01-3.8-2.81-2.54-4.59-6.15-4.58-10.17Z" style="fill:#fff; fill-rule:evenodd;"/><path d="M1790.98,631.71v85.96c-.03,6.38,4.8,10.91,10.79,10.93h.63c5.99,.03,10.88-4.46,10.94-10.81v-86.07h-22.36Z" style="fill:#bcc9e7; fill-rule:evenodd;"/><path d="M1787.41,592.01l-1.5,2.36-.02,7.6c0,1.31,.79,2.32,2.2,2.57,2.09,.61,7.62,1.05,14.12,1.08,6.41,.04,11.87-.36,14.07-.9,1.41-.24,2.37-1.26,2.37-2.6l.08-7.61-1.94-2.54-29.37,.04Z" style="fill:#99a9d4; fill-rule:evenodd;"/><polygon points="1835.39 611.87 1837.39 613.95 1856.94 614.07 1858.97 612 1859.03 602.7 1857.02 600.61 1837.48 600.54 1835.43 602.58 1835.39 611.87" style="fill:#99a9d4; fill-rule:evenodd;"/><path d="M1833.6,719.41c-.03,3.52,1.52,6.69,4.02,8.92,2.31,2.07,5.43,3.36,8.87,3.39h.79c3.99,.02,7.57-1.69,9.95-4.35,1.94-2.12,3.08-4.84,3.09-7.82l.12-112.17-1.41,.18c-2.64,.19-7.14,.37-11.96,.35-4.02,0-7.84-.08-10.55-.34l-2.79-.34-.15,112.19h0Zm-1.66,0l.13-113.17,.31-.66,.67-.18s1.42,.27,3.65,.48c2.62,.24,6.39,.32,10.41,.32,4.74,.04,9.22-.11,11.81-.33,1.39-.14,2.17-.32,2.17-.32l.71,.15,.33,.66-.12,113.18c-.03,3.4-1.34,6.55-3.53,8.96-2.69,3.01-6.71,4.91-11.2,4.88h-.79c-3.86,0-7.4-1.44-9.99-3.8-2.84-2.54-4.61-6.15-4.57-10.17Z" style="fill:#fff; fill-rule:evenodd;"/><path d="M1835.88,646.95v70.72c-.06,6.38,4.78,10.91,10.77,10.93h.63c5.99,.03,10.87-4.46,10.91-10.81v-70.83h-22.31Z" style="fill:#bcc9e7; fill-rule:evenodd;"/><path d="M1832.31,592.01l-1.49,2.36-.06,7.6c0,1.31,.8,2.32,2.17,2.57,2.13,.61,7.66,1.05,14.16,1.08,6.41,.04,11.88-.36,14.07-.9,1.43-.24,2.39-1.26,2.4-2.6l.06-7.61-1.97-2.54-29.33,.04Z" style="fill:#99a9d4; fill-rule:evenodd;"/><polygon points="1745.4 611.87 1747.43 613.95 1766.96 614.07 1769 612 1769.05 602.7 1767.05 600.61 1747.5 600.54 1745.48 602.58 1745.4 611.87" style="fill:#99a9d4; fill-rule:evenodd;"/><path d="M1743.64,719.41c-.04,3.52,1.52,6.69,4.02,8.92,2.3,2.07,5.43,3.36,8.87,3.39h.79c4,.02,7.55-1.69,9.95-4.35,1.91-2.12,3.06-4.84,3.07-7.82l.11-112.17-1.37,.18c-2.66,.19-7.17,.37-11.97,.35-4.01,0-7.83-.08-10.55-.34l-2.81-.34-.13,112.19h0Zm-1.68,0l.13-113.17,.32-.66,.66-.18s1.43,.27,3.66,.48c2.59,.24,6.4,.32,10.4,.32,4.77,.04,9.26-.11,11.82-.33,1.4-.14,2.19-.32,2.19-.32l.73,.15,.3,.66-.11,113.18c-.03,3.4-1.35,6.55-3.54,8.96-2.68,3.01-6.73,4.91-11.22,4.88h-.77c-3.89,0-7.4-1.44-9.99-3.8-2.86-2.54-4.62-6.15-4.59-10.17Z" style="fill:#fff; fill-rule:evenodd;"/><path d="M1745.88,646.37v71.29c0,6.38,4.79,10.91,10.8,10.93h.62c6,.03,10.9-4.46,10.92-10.81v-71.41h-22.33Z" style="fill:#bcc9e7; fill-rule:evenodd;"/><path d="M1742.35,592.01l-1.52,2.36-.03,7.6c0,1.31,.8,2.32,2.18,2.57,2.1,.61,7.64,1.05,14.15,1.08,6.38,.04,11.87-.36,14.05-.9,1.4-.24,2.39-1.26,2.39-2.6l.07-7.61-1.95-2.54-29.33,.04Z" style="fill:#99a9d4; fill-rule:evenodd;"/><path d="M1340.39,701.44s-12.49,2.32-16.99,6.19c-4.51,3.87-16.23,19.99-15.72,21.76,.53,1.77,1.51,2.72,1.51,2.72l36.88-20.39s7.36-6.17,6.07-11.81c-1.29-5.63-11.76,1.53-11.76,1.53Z" style="fill:#f4ae7c; fill-rule:evenodd;"/><path d="M1497.37,1233.76c-.32,3.45-2.23,5.68-5.27,7h-.05c-5.61,2.48-15.02,1.91-25.19,.55-1.31-.17-2.48-.32-3.53-.42-.27-.02-.55-.05-.82-.06-.21-.02-.43-.04-.62-.06-10.13-.67-9.34,2.46-28.7,2.36-22.06-.11-29.51-7.55-30.53-10.72-.84-2.69,8.82-4.77,19.62-7.18,.52-.1,1.04-.23,1.57-.34,1.44-.31,2.88-.66,4.32-.98,12.87-3.03,25.62-6.83,29.84-19.2,4.46-13.12,3.41-52.04,3.41-52.04h39.08s-10.26,43-9.18,55.39c.59,6.62,3.75,8.5,4.97,14.24,.09,.41,.17,.8,.25,1.21,.59,3.35,1.18,6.79,.85,10.24Z" style="fill:#f4ae7c; fill-rule:evenodd;"/><path d="M1542.84,813.01c-3.3,18.52-8,37.65-12.09,57.54-6.56,31.99-11.52,65.98-6.45,102.57,.64,4.71,1,9.9,1.08,15.5,.98,64.67-27.91,181.88-27.91,181.88,0,0-7.85,3.39-21,2.74-6.78-.34-17.17-4.71-17.17-4.71,0,0-2.73-72.67-2.9-170.41-.11-70.84-14.03-164.11-16.84-218.92-1.7-33.16,2-77.36,2-77.36,0,0,57.61-46.32,78.29-22.62,20.44,23.42,35.33,64.54,23,133.78Z" style="fill:#6998d0; fill-rule:evenodd;"/><path d="M1524.3,973.11c.64,4.71,1,9.9,1.08,15.5-43.14-62.51-52.68-198.8-52.68-198.8l47.38,22.99s5.19,25.57,10.67,57.75c-6.56,31.99-11.52,65.98-6.45,102.57Z" style="fill:#406fb5; fill-rule:evenodd;"/><path d="M1622,1233.76c-.32,3.45-2.23,5.68-5.27,7h-.05c-5.61,2.48-15.02,1.91-25.19,.55-1.31-.17-2.48-.32-3.53-.42-.27-.02-.55-.05-.82-.06-.21-.02-.43-.04-.62-.06-10.13-.67-9.34,2.46-28.69,2.36-22.06-.11-29.52-7.55-30.53-10.72-.86-2.69,8.81-4.77,19.61-7.18,.52-.1,1.04-.23,1.57-.34,1.44-.31,2.88-.66,4.32-.98,12.87-3.03,25.62-6.83,29.84-19.2,4.46-13.12-1.92-51.44-1.92-51.44l36.2-3.04s-2.25,43.67-1.17,56.06c.58,6.62,3.93,10.26,5.17,16,.08,.41,.16,.8,.24,1.21,.6,3.35,1.17,6.79,.85,10.24Z" style="fill:#f4ae7c; fill-rule:evenodd;"/><path d="M1616.9,1173.81s-9.31,4.41-16,5.74c-6.7,1.34-20.62-1.27-20.62-1.27-2.51-28.15-8.34-72.16-19.67-121.81-12.9-56.54-32.1-123.35-58.88-186.62-5.71-13.52-29.3-77.47-33.31-93.62-12.1-48.76,.05-43.5,.05-43.5l105.78-12.42s13.03,6.7,19.03,75.57c1.8,20.62,2.01,109.67,4.72,126.54,2.56,15.99,5.56,29.29,9.08,37.92,19.66,48.23,9.83,213.46,9.83,213.46Z" style="fill:#6998d0; fill-rule:evenodd;"/><path d="M1622,1233.76c-.32,3.45-2.23,5.68-5.27,7h-.05c-5.93,2.14-15.2,1.68-25.17,.48-1.31-.15-2.48-.27-3.55-.35-.27-.02-.55-.05-.82-.06-.21-.02-.43-.04-.62-.06-10.13-.67-9.34,2.46-28.69,2.36-22.06-.11-29.52-7.55-30.53-10.72-.86-2.69,8.81-4.77,19.61-7.18,2.84,1.41,16.43,7.56,33.32,5.91,14.86-1.42,30.02-7.37,40.68-8.85,.08,.41,.16,.8,.24,1.21,.6,3.35,1.17,6.79,.85,10.24Z" style="fill:#142d4d; fill-rule:evenodd;"/><path d="M1497.37,1233.76c-.32,3.45-2.23,5.68-5.27,7h-.05c-5.93,2.14-15.2,1.68-25.17,.48-1.31-.15-2.48-.27-3.55-.35-.27-.02-.55-.05-.82-.06-.21-.02-.43-.04-.62-.06-10.13-.67-9.34,2.46-28.7,2.36-22.06-.11-29.51-7.55-30.53-10.72-.84-2.69,8.82-4.77,19.62-7.18,2.84,1.41,16.43,7.56,33.32,5.91,14.85-1.42,30.02-7.37,40.67-8.85,.09,.41,.17,.8,.25,1.21,.59,3.35,1.18,6.79,.85,10.24Z" style="fill:#142d4d; fill-rule:evenodd;"/><path d="M1455.06,403.59c-3.58-29.18,5.54-75.87,63.77-68.41,58.24,7.46,76.59,64.69,64.84,90.14-11.74,25.45,16.9,31.59,25.9,58.95,7.73,23.52,10.42,52.7,22.93,65.8,40.32,42.24-38.71,107.18-86.34,93.48-86.77-24.94-97.94-28.67-94.87-96.84,1.59-34.92,28.76-48.46,11.5-58.56-41.68-24.42,.34-18.54-7.74-84.56Z" style="fill:#0f3970; fill-rule:evenodd;"/><path d="M1540.62,480l-16,41.45-34.67,1.69-17.26-25.85c19.58-14.85,18.76-43.27,17.79-53.19-.22-2.23-.44-3.53-.44-3.53l43.33-13.2c.52,11.46,1.16,20.41,1.84,27.42,2.42,24.61,5.4,25.2,5.4,25.2Z" style="fill:#f4ae7c; fill-rule:evenodd;"/><path d="M1472.56,478.5c2.22,0,40.04-7.69,103.91,8.65,0,0-34.98,160.26-23.1,190.46,11.89,30.2,16.4,57.01,16.4,57.01l-128.9,1.6s1.8-103.68-4.14-140.36c-5.94-36.69,35.83-117.35,35.83-117.35Z" style="fill:#f4ae7c; fill-rule:evenodd;"/><path d="M1567.59,657.25c1.89,21.22,21.71,69.69,17.42,80.02-4.49,10.84-10.74,16.34-24.4,19.48-9.42,2.17-22.35,3.21-40.66,4.12-38.84,1.93-80.45-2.94-86.12-21.42-2.71-8.86-1.66-43.14-.23-58.98,2.97-32.75-3.26-79.75-4.17-110.15-.76-25.38,14.55-83.1,14.55-83.1,0,0,6.91-4.35,28.57-8.72,0,0,2.27,29.99,17.93,32.57,27.05,4.46,48.86-20.32,55.22-30.3,0,0,31.07,7.84,40.19,18.24,8.64,9.85-3.18,82.78-5.81,89.77-2.26,6.01-4.41,11.86-6.27,17.75-4.94,15.53-7.96,31.31-6.23,50.73Z" style="fill:#6998d0; fill-rule:evenodd;"/><path d="M1678.93,702.99s10.96,6.38,13.94,11.51c2.97,5.15,8.72,24.19,7.65,25.68-1.07,1.49-2.31,2.04-2.31,2.04l-28-31.5s-4.89-8.25-1.84-13.11c3.05-4.85,10.56,5.37,10.56,5.37Z" style="fill:#f4ae7c; fill-rule:evenodd;"/><path d="M1535.22,457.54c-15.81-10.59-35.67-11.11-44.74-10.69-.22-2.24-.44-3.54-.44-3.54l43.33-13.19c.52,11.46,1.16,20.41,1.84,27.41Z" style="fill:#e97850; fill-rule:evenodd;"/><path d="M1478.73,443.51s51.87,10.41,57.86-21.98c5.99-32.41,16.71-52.89-16.15-60.9-32.86-8.02-41.6,3.15-46.23,13.48-4.63,10.33-8.83,65.85,4.51,69.4Z" style="fill:#f4ae7c; fill-rule:evenodd;"/><path d="M1546.64,362.78c-8.78-9.88-21.44-11.8-30.68-11.63,5.57-6.75-16.81-21.54-42.4,3.68-11.03,10.87-9.36,32.22-3.45,44.61,0,0,9.06-26.55,25.57-32.34,3.67-1.29,7.16-3.44,10.37-6,2.01,5.05,6.05,12.19,14.18,21.08,17.06,18.64,13.73,56.36,13.73,56.36,0,0,28.01-58.5,12.68-75.76Z" style="fill:#0f3970; fill-rule:evenodd;"/><path d="M1494.9,427.57s-1.39,3.84-11.15,2.1c0,0-8.2-1.47-7.45-5.78,0,0,8.37-2.17,18.61,3.68Z" style="fill:#f4ae7c; fill-rule:evenodd;"/><path d="M1637.21,625.24c-19.63-75.72-30.39-118.95-46.47-132.04-14.22-11.57-44.87-12.63-44.87-12.63-.47,9.11-.05,18.25,1.07,27.29l-37.71,71.88s-19.33,38.24-26.19,80.06c-5.19-41.54-10.34-80.06-10.34-80.06,0,0-4.86-24.57-6.39-47.06,4.55-17.54,4.07-35.85,6.21-54.18l-2.38,.14c-7.44,.52-30.67,2.88-42.5,12.61-16.08,13.2-19.68,71.16-46.46,133.2,0,0-32.46,54.56-42.78,76.21,0,0,1.94,2.95,5.81,5.18,3.75,2.17,8.48,3.02,8.48,3.02,0,0,58.53-57.63,62.38-66.75,1.26-3,8.35-13.51,17.14-28.98,0,0,2.34,82.37-2.78,117.92-1.09,7.52,2.53,14.96,9.14,18.68,36.15,20.42,144.46,76.05,164.62,22.03,2.25-6.06-37.33-108.95-31.91-131.23,1.73-7.12,4.02-23.37,6.33-42.18,12.4,23.79,24.06,40.49,25.72,44.39,3.85,9.03,62.38,66.18,62.38,66.18,0,0,4.74-.86,8.49-3,3.88-2.21,5.81-5.14,5.81-5.14-10.33-21.45-42.77-75.55-42.77-75.55Z" style="fill:#fff; fill-rule:evenodd;"/><path d="M1543.82,480.36l-34.6,99.39,34.6-32.72-2.62-10.18s7.95,.72,11.18-1.37c3.23-2.08,10.75-52.9,10.75-52.9,0,0-7.04-1.18-9.37-1.45-2.5-.28-9.93-.78-9.93-.78Z" style="fill:#dee7f5; fill-rule:evenodd;"/><path d="M1472.5,478.5s-7.28,78.57,.19,101.24c0,0-21.42-33.91-17.4-40.93l7.77-5.12s-14.98-1.95-12.17-10.56c2.81-8.61,14.85-43.52,14.85-43.52l6.77-1.12Z" style="fill:#dee7f5; fill-rule:evenodd;"/><path d="M1563.38,577.84l-23.79-1.47c-1.6-.1-2.83-1.48-2.72-3.07l.65-10.65c.1-1.6,1.49-2.82,3.08-2.72l23.8,1.48c1.6,.09,2.82,1.48,2.71,3.07l-.65,10.64c-.09,1.61-1.48,2.83-3.08,2.72Z" style="fill:#0f3970; fill-rule:evenodd;"/><rect x="1539.52" y="564.42" width="10.42" height="7.76" transform="translate(881.52 2074.72) rotate(-86.44)" style="fill:#fff;"/><path d="M1562.43,566.78l-9.65-.6c-.71-.05-1.26-.67-1.22-1.38,.05-.72,.67-1.27,1.38-1.22l9.65,.6c.72,.04,1.27,.66,1.22,1.38-.05,.71-.66,1.26-1.38,1.22Z" style="fill:#fff; fill-rule:evenodd;"/><path d="M1563.01,570.42l-11.26-.69c-.27-.02-.48-.26-.46-.53,.02-.27,.26-.48,.53-.46l11.26,.7c.27,0,.47,.25,.46,.52-.02,.26-.25,.49-.53,.46Z" style="fill:#fff; fill-rule:evenodd;"/><path d="M1562.92,572.02l-11.26-.69c-.27-.02-.48-.26-.47-.53,.02-.26,.25-.47,.53-.46l11.26,.69c.27,.02,.48,.26,.46,.53-.02,.27-.25,.48-.52,.46Z" style="fill:#fff; fill-rule:evenodd;"/><circle cx="1491.51" cy="663.44" r="3.74" style="fill:#0f3d86;"/><path d="M1487.77,686.9c0-2.07,1.67-3.75,3.74-3.75s3.74,1.68,3.74,3.75-1.67,3.73-3.74,3.73-3.74-1.67-3.74-3.73Z" style="fill:#0f3d86; fill-rule:evenodd;"/><path d="M1498.05,424.64c-8.07,.11-12.54-.68-20.38-2.53-3.14-.75,3.32,23.37,20.82,3.79,.42-.46,.18-1.29-.43-1.27Z" style="fill:#e97850; fill-rule:evenodd;"/><path d="M1501.99,381.17c-3.93,.29-3.7,3.41-.8,4.15,30.87,7.74,10.51-4.88,.8-4.15Z" style="fill:#0f3970; fill-rule:evenodd;"/><path d="M1483.88,378.4c3.67,1.41,2.55,4.33-.44,4.2-31.79-1.54-8.64-7.72,.44-4.2Z" style="fill:#0f3970; fill-rule:evenodd;"/><path d="M1479.69,414.16l-.19-.06c-3.19-1.44-4.87-2.27-5.24-3.66-.34-1.28,.51-2.46,2.06-4.61,1.71-2.36,4.32-5.96,7.22-12.17,.22-.44,.76-.63,1.2-.43,.45,.21,.65,.74,.44,1.21-2.96,6.36-5.63,10.04-7.39,12.47-1.02,1.41-1.89,2.63-1.77,3.07,.16,.62,2.41,1.65,4.23,2.46,.45,.22,.65,.75,.44,1.22-.17,.38-.6,.59-1,.5Z" style="fill:#e97850; fill-rule:evenodd;"/><path d="M1474.1,397.77c-2.23-.23-3.08-8.91,2.33-8.33,2.89,.31,1.32,8.73-2.33,8.33Z" style="fill:#0f3970; fill-rule:evenodd;"/><path d="M1503.08,401.4c-2.23-.26-3.07-8.92,2.34-8.33,2.89,.3,1.32,8.72-2.34,8.33Z" style="fill:#0f3970; fill-rule:evenodd;"/><path d="M1497.52,425.04c2.76,2.98-15.72,3.2-18.94,.27-.35-.31-1.47-2.01-1.08-2.51,.39-.5,2.53,.4,3.11,.54,5.62,1.41,10.9,1.97,16.9,1.7Z" style="fill:#fff; fill-rule:evenodd;"/></svg>