<?xml version="1.0" encoding="UTF-8"?><svg id="a" xmlns="http://www.w3.org/2000/svg" viewBox="0 0 1708.64 1617.4"><path d="M823.64,126.59c198.97,0,255.45,307.73,399.09,416.19,190.12,143.56,438,120.59,438,366.97,0,432.53-424.24,589.24-886.55,589.24S-82.62,1259.1,55.04,827.71C192.69,396.32,361.32,126.59,823.64,126.59Z" style="fill:#e9eff8; fill-rule:evenodd;"/><path d="M1210.89,737.79H431.16c5.6-23.69,26.87-41.32,52.28-41.32,1.21,0,2.44,.05,3.65,.14,12.31-30.14,41.93-51.39,76.52-51.39,15.13,0,29.29,4.08,41.48,11.17,14.87-49.02,60.41-84.71,114.3-84.71,10.95,0,21.59,1.49,31.66,4.27,26.08-57.59,84.06-97.64,151.39-97.64,79.85,0,146.55,56.37,162.48,131.49,1.35-.05,2.68-.1,4.04-.1,51.16,0,93.37,38.26,99.61,87.71,20.87,3.91,37.5,19.88,42.33,40.39Z" style="fill:#fff; fill-rule:evenodd;"/><path d="M1564.02,1218.05c-28.66-152.63-102.17-261.25-188.39-261.25-76.91,0-143.72,86.52-177.58,213.59-16-5.84-32.79-8.93-50.08-8.93-111.16,0-201.25,127.99-201.25,285.86,0,14.18,.75,28.09,2.14,41.71h20.05c252.19-26.86,474.2-109.9,595.11-270.98Z" style="fill:#bcc9e7; fill-rule:evenodd;"/><path d="M735.45,1197.36c37.39-44.62,85.6-71.51,138.23-71.51,118.81,0,215.12,136.83,215.12,305.66,0,13.63-.65,27.09-1.87,40.32-7.83,1.47-15.72,2.87-23.65,4.21H534.51c-193.51-38.68-355.35-125.74-441.15-256.54,44-57.73,105.81-93.65,174.27-93.65,24.89,0,48.89,4.73,71.49,13.55,44.37-96.02,111.62-157.2,186.88-157.2,89.49,0,167.6,86.52,209.46,215.16Z" style="fill:#bcc9e7; fill-rule:evenodd;"/><path d="M854.32,1426.62c248.65,0,450.22,42.71,450.22,95.39s-201.57,95.39-450.22,95.39-450.22-42.71-450.22-95.39,201.57-95.39,450.22-95.39Z" style="fill:#d0d9ee; fill-rule:evenodd;"/><path d="M873.77,924.92c-7.13-11.35-13.61-19.5-19.44-24.45,27.66-15,43-31.47,46.01-49.42,4.05,3.55,7.47,7.85,10.25,12.88-10.28,24.5-22.55,44.83-36.82,60.98Z" style="fill:#3a2e8c; fill-rule:evenodd;"/><path d="M834.88,924.92c7.13-11.35,13.61-19.5,19.44-24.45-27.66-15-42.99-31.47-46.01-49.42-4.05,3.55-7.46,7.85-10.25,12.88,10.28,24.5,22.54,44.83,36.81,60.98Z" style="fill:#3a2e8c; fill-rule:evenodd;"/><path d="M1079.32,948.57c-29.83-41.25-86.08-69.46-168.74-84.63-10.28,24.5-22.55,44.83-36.82,60.98-7.13-11.35-13.61-19.5-19.44-24.45-5.83,4.95-12.31,13.1-19.44,24.45-14.27-16.16-26.54-36.48-36.81-60.98-82.67,15.17-138.91,43.38-168.75,84.63-22.82,66.8-37.89,119.72-45.2,158.77,24.21,5.2,52.08,11.33,83.61,18.41-4.23,75.37-5.32,139.74-3.28,193.12,44.07,12.83,105.65,35.68,179,66.37,3.8-.13,7.43-.31,10.87-.56,3.45,.25,7.07,.43,10.87,.56,73.36-30.68,134.94-53.54,179.01-66.37,2.04-53.39,.94-117.76-3.28-193.12,31.53-7.08,59.4-13.21,83.61-18.41-7.31-39.05-22.38-91.97-45.2-158.77Z" style="fill:#6998d0; fill-rule:evenodd;"/><path d="M1027.7,999.56c5.85,37.75,10.26,79.82,13.22,126.19,3.99-.9,7.91-1.78,11.79-2.64-5.14-28.71-13.48-69.9-25.01-123.55Z" style="fill:#406fb5; fill-rule:evenodd;"/><path d="M680.95,999.56c-5.85,37.75-10.26,79.82-13.22,126.19-3.99-.9-7.92-1.78-11.79-2.64,5.14-28.71,13.48-69.9,25.02-123.55Z" style="fill:#406fb5; fill-rule:evenodd;"/><path d="M1025.3,1466.29c8.9,22.62-7.44,59.11-18.53,66.41-201.91-20.27-327.96-48.64-405.74-87.97-23.17-12.84-63.66-18.36-88.32-34.7-59.68-62.93-14.99-145.48,44.16-141.41,41.35,7.97,60.85,19.79,80.43,43.11,70.78,16.16,214.83,73.29,388,154.57Z" style="fill:#0f3d86; fill-rule:evenodd;"/><path d="M1240.1,1500.03c8.12,55.12-60.68,63.84-202.19,39.83,59.5-19.64,67.36-36.97,23.05-64.62,123.12-22.31,179.33-22.11,179.14,24.79h0Zm-771.56,0c-8.13,55.12,60.67,63.84,202.19,39.83-59.5-19.64-67.37-36.97-23.05-64.62-123.12-22.31-179.34-22.11-179.14,24.79Z" style="fill:#142d4d; fill-rule:evenodd;"/><path d="M1009.38,1530.54c11.86,2.26,21.38,5.37,28.53,9.32,59.5-19.64,67.36-36.97,23.05-64.62-10.03,.49-21.42-.82-34.13-3.91,4.63,20.78-7.47,49.4-17.45,59.2h0Zm-310.12,0c-11.87,2.26-21.38,5.37-28.53,9.32-59.5-19.64-67.37-36.97-23.05-64.62,10.03,.49,21.41-.82,34.13-3.91-4.64,20.78,7.47,49.4,17.45,59.2Z" style="fill:#f4ae7c; fill-rule:evenodd;"/><path d="M1117.17,1233.19c4.87-39.79,3.65-80.95-3.65-123.48-18.34,3.97-38.62,8.44-60.82,13.4-3.87,.87-7.8,1.74-11.79,2.64,4.09,73.01,5.25,135.71,3.46,188.09,36.16-29.14,60.42-56.02,72.79-80.65Z" style="fill:#f4ae7c; fill-rule:evenodd;"/><path d="M591.48,1233.19c-4.87-39.79-3.66-80.95,3.65-123.48,18.34,3.97,38.62,8.44,60.81,13.4,3.87,.87,7.8,1.74,11.79,2.64-4.09,73.01-5.25,135.71-3.46,188.09-36.16-29.14-60.43-56.02-72.79-80.65Z" style="fill:#f4ae7c; fill-rule:evenodd;"/><path d="M1061.96,1222.67c-.34-28.5-1.38-62.16-3.11-100.94-2.03,.45-4.08,.9-6.14,1.37-3.87,.87-7.8,1.74-11.79,2.64,2.52,45.01,3.93,86.11,4.22,123.28,3.3-3.85,7.15-8.34,11.54-13.47,12.53-5.32,25.06-7.95,37.59-7.89-14.42-4.46-25.19-6.13-32.31-5h0Zm-415.26,0c.34-28.5,1.38-62.16,3.1-100.94,2.03,.45,4.08,.9,6.14,1.37,3.87,.87,7.8,1.74,11.79,2.64-2.53,45.01-3.93,86.11-4.22,123.28-3.3-3.85-7.15-8.34-11.54-13.47-12.53-5.32-25.06-7.95-37.59-7.89,14.42-4.46,25.18-6.13,32.31-5Z" style="fill:#ed7d5b; fill-rule:evenodd;"/><path d="M669.91,1146.28h368.84c3.53,0,6.42,2.89,6.42,6.42v165.89c-44.03,12.74-105.78,35.63-179.42,66.42h-22.85c-73.64-30.8-135.39-53.68-179.42-66.42v-165.89c0-3.53,2.89-6.42,6.42-6.42Z" style="fill:#d0d9ee; fill-rule:evenodd;"/><path d="M680.65,1323.79c42.34,13.34,97.73,34.24,162.25,61.23l.55,.22,4.44-.22h12.85l4.45,.22c64.76-27.09,120.34-48.08,162.8-61.45v-137.01c-24.22,30.72-72.45,56.1-134.2,71.29,.31,2.02,.48,4.09,.48,6.19,0,22.06-17.88,39.95-39.95,39.95-19.76,0-36.17-14.35-39.38-33.2-17.76,1.6-36.11,2.44-54.89,2.44-27.56,0-54.19-1.81-79.4-5.18v55.52Z" style="fill:#8d9fca; fill-rule:evenodd;"/><path d="M815.77,664.26c24.87,34.59,64.34,64.99,118.41,91.21-13.52,40.5-33.93,80.04-78.53,87.41-42.75-6.85-66.38-37.75-76.04-81.63,22.97-25.58,35.02-57.91,36.16-96.99Z" style="fill:#f4ae7c; fill-rule:evenodd;"/><path d="M977.85,686.22c0-68.24-55.83-124.07-124.08-124.07s-124.07,55.83-124.07,124.07v195.26c20.33-7.07,43.11-12.91,68.37-17.55,2.79-5.03,6.2-9.32,10.25-12.88,3.02,17.95,18.35,34.41,46.01,49.42,27.66-15,43-31.47,46.01-49.42,4.05,3.55,7.47,7.85,10.25,12.88,24.8,4.55,47.21,10.28,67.26,17.17v-194.88h0Zm-162.08-21.96c24.87,34.59,64.34,64.99,118.41,91.21-13.52,40.5-33.93,80.04-78.53,87.41-42.75-6.85-66.38-37.75-76.04-81.63,22.97-25.58,35.02-57.91,36.16-96.99Z" style="fill:#0f3970; fill-rule:evenodd;"/><path d="M900.33,851.05c-3.1-4.87-5.29-13.51-6.55-25.92-10.32,8.87-22.8,15.22-38.13,17.75-17.93-2.87-32.5-9.97-44.08-20.49-.39,11.38-1.48,20.93-3.26,28.67,3.02,17.95,18.35,34.41,46.01,49.42,27.66-15,43-31.47,46.01-49.42Z" style="fill:#f4ae7c; fill-rule:evenodd;"/><path d="M895.03,834.53c-.48-2.85-.9-5.98-1.25-9.4-10.32,8.87-22.8,15.22-38.13,17.75-17.93-2.87-32.5-9.97-44.08-20.49-.14,4.04-.37,7.84-.68,11.42,10.66,7.26,25.71,13.44,45.14,18.55,12.29-3.31,25.26-7.89,38.99-17.82Z" style="fill:#ed7d5b; fill-rule:evenodd;"/><path d="M729.7,792.54h56.05v166.13h-69.72c13.06-53.67,18.15-108.94,13.67-166.13Z" style="fill:#0f3970; fill-rule:evenodd;"/><path d="M921.8,792.54h56.05c-3.83,55.16,3.5,110.62,12.72,166.13h-68.77v-166.13Z" style="fill:#0f3970; fill-rule:evenodd;"/><path d="M854.32,1238.4c14.28,0,25.85,11.57,25.85,25.85s-11.57,25.85-25.85,25.85-25.85-11.58-25.85-25.85,11.58-25.85,25.85-25.85Z" style="fill:#8d9fca; fill-rule:evenodd;"/><path d="M683.35,1466.29c-8.9,22.62,7.44,59.11,18.52,66.41,201.92-20.27,327.97-48.64,405.74-87.97,23.18-12.84,63.66-18.36,88.33-34.7,59.67-62.93,14.99-145.48-44.16-141.41-41.36,7.97-60.85,19.79-80.44,43.11-70.77,16.16-214.83,73.29-387.99,154.57Z" style="fill:#0f3d86; fill-rule:evenodd;"/><path d="M840.85,1384.16c-110.37,42.99-197.29,60.23-260.77,51.75,7.76,2.66,14.94,5.5,20.95,8.83,20.31,10.27,43.92,19.79,71.31,28.62,3.07-.55,6.24-1.23,9.49-2.02,.39-1.74,.9-3.43,1.53-5.04,61.29-28.77,118.93-54.51,170.97-76.48-3.65-1.54-7.27-3.07-10.87-4.57-.19-.08-.37-.15-.55-.22-.68-.29-1.36-.58-2.05-.86Z" style="fill:#142d4d; fill-rule:evenodd;"/><path d="M1027.59,1476.1c-46.55,14.34-103.58,26.8-173.27,37.59,45.26,7.02,95.88,13.33,152.44,19.01,.84-.56,1.73-1.28,2.62-2.16,9.24-9.08,20.29-34.27,18.21-54.44Z" style="fill:#142d4d; fill-rule:evenodd;"/><path d="M854.32,1389.81c3.65-1.54,7.28-3.07,10.87-4.57l-4.45-.22h-12.85l-4.44,.22c3.59,1.51,7.21,3.03,10.87,4.57Z" style="fill:#142d4d; fill-rule:evenodd;"/><path d="M1441.12,928.53c34.32,31.33,19.4,62.68-5.96,120.88-25.36,58.2-29.84,273.11-29.84,273.11l20.89-2.99s-3-220.88,25.36-280.58c28.36-59.7,40.31-89.54,65.67-70.14,25.37,19.4-76.11-40.29-76.11-40.29Z" style="fill:#aab9de; fill-rule:evenodd;"/><path d="M1422.28,887.95c4.15-18.57,28.92-38.66,62.02-55.72-4.94,27.4-20.68,72.19-4.38,81.38,22.04,12.38,2.14-50.16,10.64-84.53,31.09-15.18,68.51-27.59,102.93-33.76-.07,.13-.1,.25-.13,.39-19.4,49.25-44.77,68.65-34.33,76.1,7.84,5.61,33.43-51.27,67.26-80.43,25.36-1.35,46.84,2.08,59.52,12.14,19.63,15.54,32.8,29.32,13.07,76.64-11.26,8.06-25.89,13.83-42.85,15.54-44.76,4.48-65.68,5.96-34.32,20.89,15.35,7.31,41.04-.41,61.92-5.12-6.75,12.47-15.08,26.58-25.2,42.65-6.42,10.2-13.47,19.04-20.98,26.7-14.42,2.77-27,2.79-33.66-.05-20.89-8.96-74.61-37.32-88.04-25.37-13.14,11.68,99.5,19.08,91.7,48.78-54.61,31.45-117.09,16.49-128.12-12.4-14.85-38.79-69.59-47.92-57.05-103.83Z" style="fill:#d0d9ee; fill-rule:evenodd;"/><path d="M1535.16,1100.16c-59.72-44.78-120.88-3-152.24,44.77-31.32,47.75-8.96,155.2-8.96,155.2,0,0,11.96,0,11.96-4.47s-32.84-126.85,44.76-182.08c48.55-34.53,83.56-17.9,88.04-1.49,4.48,16.42-19.4,46.27-19.4,46.27l35.84-58.2Z" style="fill:#aab9de; fill-rule:evenodd;"/><path d="M1397.84,1008.12c59.71,0,79.12,92.53,62.68,146.25-16.4,53.73-38.8,153.71-38.8,153.71l-14.92-14.92s56.72-140.28,43.28-202.97c-13.44-62.68-46.24-73.13-52.24-73.13s0-8.94,0-8.94Z" style="fill:#aab9de; fill-rule:evenodd;"/><path d="M1447.9,1154.79c4.22-5.57,9.39-10.16,15.71-13.22-.82,4.46-1.85,8.73-3.1,12.79-7.47,24.48-16.17,58.56-23.48,88.41-.62-3.82-1.68-9.71-3.23-18.8-.4-2.15-.66-4.47-.89-6.95,5.87-19.88,11.4-41.56,14.99-62.24Z" style="fill:#aab9de; fill-rule:evenodd;"/><path d="M1464.24,1155.24c113.4-47.76,53.66-113.29,153.65-70.01,7.04,3.04,15.61,10.74,24.2,21.33-8.89,2.53-19.66,4.35-31.69,2.55-29.84-4.48-19.4,19.4,29.88,25.37,9.25,1.12,16.79,2.68,23.05,4.87,23.49,45.07,34.06,104.35-15.61,124.96-9.79,4.07-21.87,6.39-35.34,7.26-15.31-12.18,3.76-82.65-19.89-72.92-22.66,9.35,7.15,60.41,3.06,73.28-22.4-.39-47.2-4.06-70.84-9.92-9.39-5.26-16.57-12.3-18.74-21.55-7.48-31.35,41.76-50.75,43.28-77.61,1.35-24.69-18.09,54.34-69.5,65.97-46.54-21.73-68.54-51.23-15.51-73.56Z" style="fill:#d0d9ee; fill-rule:evenodd;"/><path d="M1383.41,1070.8c11.96-25.37-19.4-31.35-17.88-11.95,1.28,17.2,1.45,58.99-16.17,70.37-30.4-3.3-71.77-15.55-103.06-34.22-.39-2.53,0-5.13,1.32-7.78,13.44-26.87,100-49.25,73.12-58.2-21.38-7.14-58.89,34.96-89.09,56.16-18.15-13.77-30.31-30.17-30.31-48.49,0-24.81,30.14-52.87,69.1-66.28,17.52,1.77,33.83,11.35,59.26,25.78,37.57,21.3,28.88-13.15-6.66-33.57,30.7,1.58,61.26,14.69,83.83,46,0,0-2.14,13.39,12.02,34.09,38.63,56.47-5.96,89.44-59.25,87.3,3.03-14.88,15.54-41.68,23.78-59.2Z" style="fill:#d0d9ee; fill-rule:evenodd;"/><path d="M1531.56,1097.62c29.18,22.56,61.59,48.92,101.38,66.83,39.83,17.92,31.86,76.28,31.86,76.28,0,0,5.96-50.41-27.21-67.66-33.17-17.24-55.04-37.81-80.23-41.78-25.23-3.99-39.16-7.96-39.16-7.96,0,0,7.97-15.92,3.32-21.89-4.64-5.97,10.05-3.82,10.05-3.82Z" style="fill:#aab9de; fill-rule:evenodd;"/><path d="M1675.4,832.8c-106.79,28.52-185.04,96.84-199.66,113.42-14.59,16.57-14.59,21.22-14.59,21.22l11.29,21.22,5.31-2.66s-8.63-17.9,13.93-41.11c38.9-40.05,86.23-71.65,118.74-85.58,32.51-13.92,64.99-26.52,64.99-26.52Z" style="fill:#aab9de; fill-rule:evenodd;"/><path d="M1380.61,1423.92h40.81c29.01,0,52.53-23.53,52.53-52.54v-93.74h-145.88v93.74c0,29.01,23.51,52.54,52.53,52.54Z" style="fill:#aab9de; fill-rule:evenodd;"/><rect x="1328.08" y="1294.39" width="145.87" height="10.27" style="fill:#fff;"/><rect x="1328.08" y="1313.12" width="145.87" height="6.04" style="fill:#fff;"/><path d="M267.53,928.53c-34.32,31.33-19.4,62.68,5.96,120.88,25.36,58.2,29.84,273.11,29.84,273.11l-20.88-2.99s3-220.88-25.36-280.58c-28.36-59.7-40.32-89.54-65.68-70.14-25.36,19.4,76.12-40.29,76.12-40.29Z" style="fill:#aab9de; fill-rule:evenodd;"/><path d="M286.37,887.95c-4.15-18.57-28.92-38.66-62.03-55.72,4.94,27.4,20.69,72.19,4.38,81.38-22.04,12.38-2.14-50.16-10.64-84.53-31.09-15.18-68.51-27.59-102.93-33.76,.07,.13,.1,.25,.13,.39,19.4,49.25,44.76,68.65,34.32,76.1-7.84,5.61-33.43-51.27-67.26-80.43-25.36-1.35-46.83,2.08-59.51,12.14-19.64,15.54-32.81,29.32-13.08,76.64,11.27,8.06,25.89,13.83,42.85,15.54,44.77,4.48,65.68,5.96,34.32,20.89-15.35,7.31-41.04-.41-61.92-5.12,6.75,12.47,15.09,26.58,25.2,42.65,6.42,10.2,13.47,19.04,20.98,26.7,14.43,2.77,27.01,2.79,33.66-.05,20.88-8.96,74.6-37.32,88.04-25.37,13.14,11.68-99.51,19.08-91.7,48.78,54.61,31.45,117.09,16.49,128.13-12.4,14.85-38.79,69.6-47.92,57.05-103.83Z" style="fill:#d0d9ee; fill-rule:evenodd;"/><path d="M173.49,1100.16c59.71-44.78,120.88-3,152.24,44.77,31.32,47.75,8.96,155.2,8.96,155.2,0,0-11.96,0-11.96-4.47s32.84-126.85-44.76-182.08c-48.55-34.53-83.56-17.9-88.04-1.49-4.47,16.42,19.4,46.27,19.4,46.27l-35.83-58.2Z" style="fill:#aab9de; fill-rule:evenodd;"/><path d="M310.8,1008.12c-59.71,0-79.11,92.53-62.68,146.25,16.4,53.73,38.8,153.71,38.8,153.71l14.92-14.92s-56.72-140.28-43.28-202.97c13.44-62.68,46.25-73.13,52.24-73.13s0-8.94,0-8.94Z" style="fill:#aab9de; fill-rule:evenodd;"/><path d="M260.74,1154.79c-4.22-5.57-9.39-10.16-15.71-13.22,.82,4.46,1.84,8.73,3.09,12.79,7.48,24.48,16.17,58.56,23.49,88.41,.62-3.82,1.68-9.71,3.23-18.8,.39-2.15,.66-4.47,.89-6.95-5.86-19.88-11.4-41.56-14.99-62.24Z" style="fill:#aab9de; fill-rule:evenodd;"/><path d="M244.41,1155.24c-113.41-47.76-53.66-113.29-153.65-70.01-7.05,3.04-15.61,10.74-24.21,21.33,8.89,2.53,19.66,4.35,31.69,2.55,29.84-4.48,19.4,19.4-29.87,25.37-9.26,1.12-16.8,2.68-23.05,4.87-23.49,45.07-34.06,104.35,15.61,124.96,9.78,4.07,21.87,6.39,35.34,7.26,15.31-12.18-3.75-82.65,19.89-72.92,22.67,9.35-7.15,60.41-3.06,73.28,22.4-.39,47.2-4.06,70.85-9.92,9.39-5.26,16.56-12.3,18.74-21.55,7.47-31.35-41.76-50.75-43.28-77.61-1.35-24.69,18.08,54.34,69.5,65.97,46.54-21.73,68.54-51.23,15.52-73.56Z" style="fill:#d0d9ee; fill-rule:evenodd;"/><path d="M325.23,1070.8c-11.96-25.37,19.4-31.35,17.88-11.95-1.29,17.2-1.45,58.99,16.17,70.37,30.4-3.3,71.77-15.55,103.06-34.22,.39-2.53,0-5.13-1.32-7.78-13.44-26.87-99.99-49.25-73.12-58.2,21.37-7.14,58.89,34.96,89.09,56.16,18.15-13.77,30.3-30.17,30.3-48.49,0-24.81-30.14-52.87-69.1-66.28-17.52,1.77-33.82,11.35-59.25,25.78-37.58,21.3-28.88-13.15,6.65-33.57-30.7,1.58-61.26,14.69-83.82,46,0,0,2.14,13.39-12.02,34.09-38.64,56.47,5.96,89.44,59.25,87.3-3.03-14.88-15.54-41.68-23.78-59.2Z" style="fill:#d0d9ee; fill-rule:evenodd;"/><path d="M177.08,1097.62c-29.18,22.56-61.59,48.92-101.38,66.83-39.82,17.92-31.85,76.28-31.85,76.28,0,0-5.96-50.41,27.21-67.66,33.17-17.24,55.04-37.81,80.23-41.78,25.23-3.99,39.17-7.96,39.17-7.96,0,0-7.97-15.92-3.33-21.89,4.64-5.97-10.05-3.82-10.05-3.82Z" style="fill:#aab9de; fill-rule:evenodd;"/><path d="M33.24,832.8c106.78,28.52,185.04,96.84,199.66,113.42,14.59,16.57,14.59,21.22,14.59,21.22l-11.3,21.22-5.3-2.66s8.63-17.9-13.93-41.11c-38.89-40.05-86.23-71.65-118.74-85.58-32.51-13.92-64.98-26.52-64.98-26.52Z" style="fill:#aab9de; fill-rule:evenodd;"/><path d="M328.03,1423.92h-40.81c-29.02,0-52.54-23.53-52.54-52.54v-93.74h145.88v93.74c0,29.01-23.52,52.54-52.54,52.54Z" style="fill:#729dd3; fill-rule:evenodd;"/><rect x="234.69" y="1294.39" width="145.88" height="10.27" style="fill:#fff;"/><rect x="234.69" y="1313.12" width="145.88" height="6.04" style="fill:#fff;"/><path d="M854.32,0c116.21,0,210.41,94.2,210.41,210.41s-94.21,210.41-210.41,210.41-210.41-94.2-210.41-210.41S738.11,0,854.32,0Z" style="fill:#aab9de; fill-rule:evenodd;"/><circle cx="854.32" cy="210.41" r="171.52" style="fill:#fff;"/><path d="M776.02,292.3c-2.54,2.37-6.53,2.24-8.91-.31-2.38-2.54-2.23-6.53,.31-8.9l82.6-77.28c2.54-2.37,6.53-2.23,8.91,.31,2.37,2.54,2.23,6.53-.31,8.91l-82.6,77.28Z" style="fill:#8d9fca; fill-rule:evenodd;"/><path d="M844.85,85.59c0-5.23,4.24-9.47,9.48-9.47s9.47,4.24,9.47,9.47v118.32l83.9,32.1c4.88,1.86,7.33,7.33,5.48,12.21-1.86,4.88-7.33,7.34-12.21,5.47l-96.11-36.77V85.59Z" style="fill:#bcc9e7; fill-rule:evenodd;"/><circle cx="1421.68" cy="524.34" r="210.41" transform="translate(-42.83 135.34) rotate(-5.37)" style="fill:#aab9de;"/><path d="M1421.68,352.82c94.72,0,171.51,76.79,171.51,171.52s-76.79,171.51-171.51,171.51-171.52-76.79-171.52-171.51,76.79-171.52,171.52-171.52Z" style="fill:#fff; fill-rule:evenodd;"/><path d="M1427.23,637.5c-.03,3.48-2.87,6.28-6.35,6.25-3.48-.03-6.28-2.87-6.25-6.35l.75-113.11c.03-3.48,2.88-6.28,6.35-6.25,3.48,.02,6.28,2.87,6.26,6.35l-.75,113.11Z" style="fill:#8d9fca; fill-rule:evenodd;"/><path d="M1321.68,449.03c-3.93-3.45-4.31-9.44-.85-13.36,3.45-3.93,9.44-4.31,13.37-.86l88.86,78.13,79.5-41.81c4.62-2.44,10.35-.67,12.78,3.95s.67,10.34-3.95,12.78l-91.08,47.89-98.63-86.72Z" style="fill:#bcc9e7; fill-rule:evenodd;"/><circle cx="286.96" cy="524.34" r="210.41" transform="translate(-2.1 1.15) rotate(-.23)" style="fill:#aab9de;"/><path d="M286.96,352.82c94.72,0,171.51,76.79,171.51,171.52s-76.79,171.51-171.51,171.51-171.52-76.79-171.52-171.51,76.79-171.52,171.52-171.52Z" style="fill:#fff; fill-rule:evenodd;"/><path d="M235.29,423.5c-1.41-3.18,.03-6.9,3.22-8.31,3.18-1.41,6.9,.03,8.31,3.21l45.91,103.39c1.41,3.18-.03,6.9-3.22,8.31-3.18,1.41-6.9-.03-8.31-3.21l-45.91-103.39Z" style="fill:#8d9fca; fill-rule:evenodd;"/><path d="M343.74,412.77c2.72-4.47,8.54-5.89,13.01-3.17,4.47,2.72,5.89,8.55,3.17,13.02l-61.49,101.09,54.99,71.02c3.21,4.12,2.46,10.07-1.67,13.27-4.12,3.21-10.07,2.46-13.28-1.67l-62.99-81.36,68.25-112.2Z" style="fill:#bcc9e7; fill-rule:evenodd;"/></svg>