<?xml version="1.0" encoding="UTF-8"?><svg id="a" xmlns="http://www.w3.org/2000/svg" viewBox="0 0 1926.08 1384.7"><path d="M896.26,0c224.47,0,319.06,160.62,481.14,285.48,214.49,165.26,428.98,57.66,463.33,616.03,30.57,496.96-350.86,53.8-888.67,231.85C414.27,1311.36-133.45,1383.06,29.08,807.08,191.62,231.11,374.66,0,896.26,0Z" style="fill:#e0e8f5; fill-rule:evenodd;"/><path d="M1540.1,1009.26c.07,4.45,.32,8.18,.67,10.8-.34-2.61-.59-6.34-.67-10.8Z" style="fill:#ecebe8; fill-rule:evenodd;"/><path d="M1366.87,1160.12c114.78,0,207.82,13.34,207.82,29.79s-93.04,29.79-207.82,29.79-207.77-13.34-207.77-29.79,93.02-29.79,207.77-29.79Z" style="fill:#c4d1eb; fill-rule:evenodd;"/><path d="M1404.33,679.36c-3.28-4.22-7.75-7.43-12.26-10.2-1.19-.76-2.92-.25-3.57,.97-3.5,6.49-6.72,13.14-10.71,19.36-1.3,2.02-3.17,4.74-4.85,5.95-.11,.07-.52,.29-.72,.36-.04,0-.05-.04-.07-.11-.33-.47-.52-.99-.7-1.55-3.1-9.53,.67-19.75-1.78-29.36-1.32-5.1-4.52-10.38-8.2-14.1-3.97-4.02-9.32-5.89-11.79-11.34-.38-.81-1.05-1.21-1.77-1.28h-.5c-.88,.09-1.79,.59-2.27,1.32-5.75,8.24-13.77,16.76-15.32,27.11-1.37,9.16,3.6,16.8,8.9,23.76,2.52,3.35,5.05,6.78,7.03,10.53,1.1,2.06,2.99,5.79,1.01,7.82-2.09,2.09-5.26-1.68-6.9-3.39-3.35-3.46-6.2-7.43-9.14-11.28-4.83-6.38-12.47-16.08-21.57-14.31-3.98,.78-5.64,4.92-5.84,8.54-.34,5.73,2.47,11.9,5.28,16.69,6.42,10.92,19.39,14.09,27.74,22.89,1.93,2.04,7.17,8.98,4.16,11.81-1.06,1.01-3.51,.68-4.76,.47-3.06-.47-6.42-1.57-8.87-3.48-9.41-7.26-12.82-19.88-22.67-26.77-4.33-3.01-10.99-4.85-16.19-3.59-4.42,1.03-6.45,5.15-6.63,9.37-.25,5.05,2.05,10.27,4.61,14.49,2.96,4.9,7.01,9.01,11.97,11.82,9.95,5.66,22.53,6.38,29.15,16.76,.88,1.44,1.87,3.28,1.46,5.03-.36,1.35-2.27,1.79-3.39,2.02-5.12,1.12-11.81-.78-16.26-3.14-5.43-2.88-9.35-8.09-13.52-12.46-4.4-4.61-9.26-8.36-15.41-10.22-4.45-1.35-9.95-1.14-12.83,3.03-2.61,3.84-2.11,8.99-.99,13.23,1.41,5.64,4.47,10.85,8.26,15.23,4.04,4.71,10.49,7.37,16.22,9.3,5.98,2.02,12.2,3.24,18.13,5.46,1.55,.61,2.78,1.03,4.49,1.13,1.82,.14,3.68,.04,5.46,.5,1.5,.4,.49,1.98,0,3.06-1.26,2.65-5.15,2.54-7.64,2.74-2.34,.18-4.65,.76-6.99,.79-2.7,0-5.41-.5-8.04-.88-5.26-.81-10.81-1.75-16.04-.16-5.01,1.51-8.58,6.27-9.46,11.36-1.89,10.65,10.02,17.16,18.87,18.53,5.7,.87,10.81-.38,15.79-3.21,6.16-3.44,10.99-8.47,18.1-9.34,.45,2.85-.56,5.12-3.08,7.25-3.46,2.92-8.27,4.51-12.46,6.06-8.25,3.06-20.33,5.79-24.75,14.33-.56,1.04-.41,2.32,.45,3.17,3.91,3.73,8.4,6.67,13.91,7.12,4.58,.34,9.01-1.77,12.71-4.22,6.61-4.4,12.31-11.21,19.74-14.31-1.01,1.89-2.74,3.17-4.83,4.79-3.71,2.88-5.61,6.89-6.63,11.39-1.55,6.81,.81,14.2,8.83,14.24,4.36,.04,8.74-2.18,12.38-4.36,4.16-2.52,7.52-6.16,10.11-10.22,3.23-5.06,5.01-10.9,6-16.87,6.69,13.05,21.21,26.68,34.95,15.41,11.73-9.64-7.59-17.01-15.21-24.6,1.51,.59,2.96,1.39,4.36,2.07,3.96,2.05,7.86,4.31,11.99,5.98,7.75,3.17,16.42,2.85,21.07-5.1,4-6.89-4.29-10.06-9.37-11.59-4.16-1.26-11.93-2.61-14.94-6.78,10.24,1.12,21.65,2.38,30.46-3.53,3.98-2.67,8.79-7.84,9.28-12.87,.4-4.11-4.07-5.57-7.28-5.89-8.72-.85-17.23,2.97-25.99,2.72-2.09-.07-4.18-.29-6.24-.76-.76-.18-1.55-.4-2.27-.7-.27-.13-.56-.36-.74-.5,.04-.13,.11-.27,.23-.43,.79-.88,1.8-1.57,2.78-2.22,2.24-1.48,4.61-2.34,7.26-2.63,5.1-.52,10.17,.11,15.25-.77,5.71-.99,10.33-4.29,14.09-8.53,3.35-3.79,6.58-8.58,7.1-13.73,.56-5.3-2.69-8.9-7.43-10.72-13.28-5.06-21.07,8.65-30.51,14.87-2.52,1.66-5.52,2.74-8.36,3.6-1.17,.36-4.6,1.55-5.73,.63-.67-.54,1.59-4.16,2.02-4.85,1.91-3.1,4.33-5.25,7.46-7.03,7.93-4.54,17.59-5.95,23.83-13.12,4.11-4.69,7.34-12.65,3.32-18.4-4.24-6.07-13.74-4.42-19.07-.88-6.74,4.43-10.13,13.45-18.22,15.61-.72-3.84,.77-7.37,3.39-10.8,3.77-4.96,8.63-9.07,13.14-13.41,4.29-4.13,8.71-8.63,10.92-14.29,2.33-5.77,.83-11.59-2.88-16.4Z" style="fill:#9db2d9; fill-rule:evenodd;"/><path d="M1604.5,864.14c1.3-5.21,1.03-10.71,.47-15.97-.18-1.41-1.64-2.45-3.03-2.22-7.25,1.28-14.46,2.88-21.79,3.57-2.43,.23-5.71,.45-7.7-.13-.11-.02-.54-.23-.76-.31,.04-.05,.04-.09,.07-.14,.18-.56,.47-1.03,.79-1.5,5.55-8.36,15.93-11.72,21.95-19.61,3.21-4.15,5.35-9.95,6-15.12,.7-5.64-1.13-11,1.6-16.29,1.01-1.93-1.05-3.68-2.85-3.57-10.02,.61-21.7-.43-30.75,4.74-8.04,4.61-10.98,13.23-13.19,21.68-1.04,4.09-2.18,8.2-3.89,12.08-.94,2.11-2.7,5.93-5.51,5.61-2.96-.32-1.95-5.14-1.62-7.48,.65-4.81,2-9.5,3.23-14.18,2-7.75,4.88-19.74-2.11-25.79-3.1-2.67-7.35-1.39-10.31,.69-4.72,3.3-7.84,9.3-9.88,14.51-4.61,11.79,.94,23.92-.81,35.94-.42,2.78-2.61,11.17-6.71,10.56-1.42-.22-2.69-2.33-3.32-3.42-1.5-2.7-2.72-6.04-2.74-9.16-.11-11.86,7.7-22.35,6.98-34.35-.29-5.26-2.96-11.64-7.16-14.94-3.55-2.81-8.08-1.86-11.48,.59-4.11,2.94-6.81,8-8.54,12.62-2.02,5.33-2.74,11.03-1.87,16.71,1.71,11.3,8.94,21.65,4.85,33.27-.56,1.57-1.42,3.5-3.05,4.24-1.26,.54-2.78-.69-3.68-1.42-4.04-3.3-6.7-9.72-7.57-14.69-1.12-6.02,.54-12.36,1.41-18.31,.9-6.29,.83-12.45-1.51-18.46-1.69-4.33-5.26-8.51-10.31-8.18-4.63,.31-8.36,3.91-11.03,7.39-3.55,4.61-5.73,10.24-6.83,15.9-1.17,6.11,.67,12.82,2.72,18.53,2.13,5.95,5.01,11.59,6.92,17.61,.5,1.6,.94,2.79,1.91,4.22,1.01,1.53,2.2,2.92,2.95,4.63,.65,1.41-1.23,1.6-2.42,1.88-2.81,.68-5.16-2.49-6.85-4.29-1.59-1.73-3.5-3.19-4.94-5.01-1.69-2.13-2.99-4.54-4.29-6.88-2.61-4.61-5.34-9.55-9.81-12.69-4.33-2.99-10.22-2.85-14.78-.4-9.55,5.1-7.28,18.49-2.85,26.28,2.81,4.99,6.96,8.27,12.26,10.45,6.52,2.67,13.45,3.35,18.53,8.42-1.95,2.11-4.36,2.7-7.57,2.04-4.45-.9-8.67-3.68-12.49-6.02-7.52-4.58-17.1-12.36-26.57-10.56-1.14,.22-2.11,1.1-2.22,2.31-.5,5.39-.02,10.74,3.03,15.34,2.54,3.8,6.96,5.98,11.17,7.37,7.53,2.47,16.44,2.74,23.43,6.67-2.09,.32-4.16-.2-6.74-.85-4.54-1.14-8.87-.14-13.05,1.82-6.31,3.03-10.63,9.45-5.73,15.75,2.7,3.44,7.14,5.55,11.12,7.07,4.56,1.71,9.48,2.07,14.29,1.6,5.95-.61,11.62-2.83,16.94-5.73-6.11,13.34-7.82,33.2,9.52,37,14.85,3.23,8.71-16.49,9.95-27.22,.43,1.57,.72,3.19,1.03,4.72,.86,4.38,1.5,8.83,2.72,13.12,2.31,8.04,7.93,14.71,17.05,13.37,7.89-1.1,5.26-9.57,3.32-14.51-1.59-4.06-5.34-10.98-3.93-15.92,5.44,8.71,11.5,18.46,21.61,21.72,4.6,1.51,11.62,2.07,15.86-.69,3.48-2.22,1.86-6.63,.13-9.35-4.72-7.39-13-11.68-18.2-18.71-1.24-1.73-2.36-3.48-3.28-5.39-.36-.7-.65-1.46-.87-2.22-.07-.29-.04-.68-.07-.9,.14-.04,.29-.07,.5-.07,1.19,.04,2.34,.43,3.46,.79,2.56,.87,4.69,2.18,6.56,4.09,3.57,3.69,6.2,8.06,10.02,11.5,4.33,3.88,9.8,5.46,15.46,5.79,5.05,.29,10.78-.14,15.16-2.92,4.52-2.87,5.35-7.59,3.84-12.47-4.22-13.57-19.83-11.16-30.57-14.76-2.87-.96-5.57-2.65-8.02-4.33-1.01-.7-4.04-2.65-4.04-4.13,.02-.87,4.24-1.33,5.07-1.41,3.6-.42,6.78,.14,10.13,1.51,8.49,3.41,15.57,10.15,25.07,10.6,6.22,.33,14.47-2.07,16.51-8.79,2.14-7.08-5.03-13.5-11.12-15.54-7.64-2.52-16.84,.4-23.54-4.63,2.6-2.94,6.31-3.95,10.56-4.02,6.25-.13,12.51,1.15,18.67,2.02,5.91,.81,12.18,1.5,18.01-.25,5.95-1.77,9.62-6.52,11.08-12.4Z" style="fill:#9db2d9; fill-rule:evenodd;"/><path d="M1248.74,719.54c-4.97-1.93-10.45-2.36-15.75-2.47-1.41-.02-2.63,1.3-2.58,2.7,.36,7.35,1.03,14.71,.79,22.1-.07,2.42-.29,5.7-1.1,7.59-.05,.13-.33,.52-.43,.7t-.11-.05c-.54-.25-.97-.59-1.41-.99-7.57-6.58-9.59-17.27-16.64-24.26-3.75-3.68-9.21-6.56-14.28-7.86-5.5-1.41-11.01-.27-15.95-3.66-1.8-1.24-3.79,.59-3.89,2.36-.68,10.06-3.17,21.48,.83,31.13,3.55,8.56,11.72,12.56,19.83,15.79,3.93,1.57,7.86,3.23,11.5,5.42,1.98,1.19,5.52,3.42,4.85,6.16-.7,2.88-5.35,1.28-7.62,.68-4.69-1.26-9.17-3.21-13.66-4.99-7.43-2.97-18.96-7.35-25.85-1.17-3.06,2.74-2.31,7.12-.65,10.33,2.67,5.1,8.25,8.92,13.16,11.63,11.1,6.04,23.86,2.09,35.54,5.33,2.69,.76,10.78,4,9.64,8-.38,1.39-2.69,2.34-3.84,2.85-2.87,1.15-6.33,1.91-9.41,1.55-11.79-1.37-21.21-10.45-33.2-11.28-5.26-.34-11.93,1.5-15.75,5.25-3.21,3.15-2.85,7.77-.85,11.45,2.4,4.45,7.07,7.75,11.45,10.06,5.05,2.67,10.62,4.11,16.33,4,11.45-.29,22.6-6.15,33.63-.61,1.5,.76,3.28,1.84,3.79,3.53,.41,1.35-1.01,2.67-1.84,3.5-3.8,3.57-10.51,5.41-15.57,5.66-6.09,.32-12.17-2.13-17.97-3.71-6.15-1.69-12.24-2.42-18.47-.85-4.52,1.14-9.12,4.15-9.45,9.19-.29,4.65,2.81,8.78,5.95,11.88,4.11,4.11,9.41,6.99,14.91,8.8,5.89,1.95,12.78,.94,18.73-.36,6.16-1.37,12.11-3.51,18.33-4.65,1.64-.29,2.9-.54,4.42-1.33,1.64-.83,3.21-1.84,4.97-2.38,1.48-.43,1.44,1.42,1.55,2.65,.32,2.88-3.1,4.81-5.12,6.25-1.91,1.37-3.61,3.05-5.59,4.25-2.31,1.42-4.88,2.38-7.35,3.39-4.94,2.02-10.17,4.07-13.83,8.13-3.53,3.89-4.13,9.77-2.31,14.58,3.88,10.15,17.43,9.59,25.74,6.2,5.32-2.2,9.07-5.88,11.91-10.87,3.46-6.15,5.03-12.92,10.67-17.32,1.87,2.2,2.16,4.67,1.1,7.79-1.46,4.29-4.78,8.15-7.57,11.61-5.5,6.89-14.44,15.43-13.83,25.04,.07,1.19,.81,2.22,1.98,2.47,5.28,1.23,10.67,1.41,15.61-1.04,4.07-2.04,6.81-6.16,8.72-10.15,3.42-7.19,4.8-15.95,9.59-22.4,.07,2.13-.72,4.11-1.68,6.56-1.71,4.38-1.28,8.8,.14,13.18,2.18,6.65,8.02,11.79,14.91,7.7,3.75-2.23,6.38-6.38,8.38-10.13,2.29-4.29,3.28-9.16,3.41-13.99,.14-5.98-1.32-11.9-3.53-17.52,12.44,7.75,31.92,11.93,37.89-4.79,5.1-14.28-15.25-10.67-25.7-13.27,1.62-.25,3.26-.34,4.83-.45,4.43-.31,8.92-.34,13.34-1.03,8.27-1.28,15.55-6.02,15.43-15.25-.09-7.93-8.83-6.42-14-5.1-4.2,1.06-11.55,3.91-16.28,1.88,9.34-4.31,19.77-9.08,24.31-18.67,2.04-4.38,3.52-11.26,1.32-15.84-1.77-3.71-6.34-2.67-9.26-1.32-7.93,3.78-13.25,11.45-20.91,15.73-1.8,1.01-3.71,1.88-5.7,2.56-.76,.22-1.55,.47-2.34,.54-.29,.04-.65,0-.9-.04-.02-.14-.04-.29,0-.47,.2-1.19,.72-2.29,1.24-3.35,1.17-2.43,2.74-4.36,4.88-5.98,4.07-3.06,8.76-5.14,12.65-8.51,4.38-3.79,6.67-9.01,7.7-14.6,.94-4.96,1.24-10.71-.96-15.39-2.27-4.87-6.88-6.27-11.9-5.41-13.99,2.49-13.61,18.24-18.53,28.48-1.3,2.7-3.32,5.19-5.3,7.39-.83,.9-3.14,3.68-4.58,3.5-.87-.13-.79-4.4-.79-5.19,.05-3.64,1.04-6.74,2.79-9.88,4.47-7.97,12.02-14.17,13.7-23.5,1.1-6.17-.25-14.64-6.63-17.5-6.78-3.01-14.06,3.26-16.84,9.07-3.48,7.26-1.75,16.74-7.59,22.75-2.58-2.92-3.1-6.72-2.65-10.99,.68-6.2,2.76-12.24,4.38-18.26,1.55-5.75,3.01-11.91,2.04-17.9-1.03-6.11-5.26-10.35-10.94-12.56Z" style="fill:#9db2d9; fill-rule:evenodd;"/><path d="M1503.62,791.85c-.7-5.3-2.99-10.33-5.46-15-.68-1.26-2.42-1.68-3.6-.96-6.27,3.88-12.4,8-18.96,11.39-2.16,1.08-5.14,2.51-7.19,2.7-.13,.02-.59-.02-.81-.02v-.14c-.05-.6,.05-1.14,.18-1.71,2.09-9.8,10.49-16.76,13.18-26.32,1.42-5.03,1.28-11.23-.02-16.26-1.41-5.52-5.08-9.8-4.51-15.75,.22-2.14-2.34-3.01-3.96-2.25-9.09,4.27-20.31,7.59-26.82,15.77-5.77,7.25-5.33,16.35-4.25,25.02,.52,4.18,.99,8.42,.83,12.65-.09,2.33-.32,6.49-3.05,7.25-2.87,.77-3.71-4.07-4.29-6.34-1.17-4.72-1.64-9.59-2.25-14.38-.96-7.95-2.74-20.15-11.48-23.22-3.84-1.32-7.34,1.44-9.32,4.47-3.17,4.8-3.84,11.54-3.82,17.11,.05,12.67,9.7,21.9,12.51,33.71,.65,2.72,1.71,11.37-2.33,12.31-1.42,.32-3.37-1.19-4.34-1.98-2.42-1.95-4.76-4.6-5.93-7.48-4.49-10.98-1.1-23.61-6.18-34.52-2.22-4.78-7.07-9.7-12.18-11.25-4.34-1.3-8.18,1.26-10.44,4.79-2.74,4.25-3.39,9.95-3.3,14.89,.11,5.7,1.55,11.28,4.43,16.22,5.77,9.88,16.29,16.8,16.76,29.11,.11,1.68,0,3.79-1.24,5.07-.97,1.01-2.83,.4-3.95,.04-4.97-1.57-9.82-6.56-12.47-10.85-3.24-5.19-4.04-11.68-5.44-17.55-1.48-6.17-3.82-11.86-8.2-16.55-3.17-3.42-8.06-5.98-12.62-3.82-4.2,1.98-6.31,6.7-7.53,10.92-1.6,5.59-1.53,11.64-.45,17.3,1.14,6.13,5.34,11.68,9.34,16.22,4.18,4.72,8.96,8.9,12.94,13.81,1.05,1.3,1.89,2.25,3.32,3.23,1.53,1.03,3.17,1.87,4.49,3.17,1.1,1.1-.56,1.98-1.57,2.67-2.38,1.68-5.7-.42-7.95-1.5-2.11-.99-4.42-1.64-6.45-2.81-2.34-1.33-4.42-3.1-6.51-4.79-4.15-3.32-8.51-6.92-13.79-8.17-5.12-1.21-10.58,1.12-13.9,5.06-6.99,8.26,.07,19.86,7.03,25.49,4.47,3.61,9.55,5.12,15.25,5.19,7.1,.07,13.77-1.86,20.37,.96-1.05,2.69-3.06,4.15-6.31,4.7-4.47,.83-9.43-.22-13.81-.97-8.69-1.51-20.49-5.19-28.6-.04-.99,.65-1.57,1.8-1.21,2.97,1.51,5.21,3.93,9.99,8.47,13.12,3.77,2.61,8.69,3.01,13.1,2.76,7.91-.5,16.26-3.53,24.24-2.47-1.84,1.1-3.95,1.35-6.56,1.71-4.65,.65-8.31,3.14-11.46,6.53-4.76,5.1-6.42,12.69,.49,16.73,3.79,2.23,8.67,2.52,12.92,2.47,4.87-.07,9.57-1.57,13.88-3.8,5.3-2.74,9.77-6.89,13.63-11.54-.74,14.62,4.99,33.72,22.51,30.82,14.98-2.43,2-18.51-.81-28.89,.99,1.28,1.87,2.67,2.74,3.98,2.38,3.75,4.61,7.64,7.35,11.17,5.12,6.63,12.78,10.72,20.8,6.17,6.88-3.93,1.33-10.85-2.31-14.74-2.96-3.17-9.01-8.22-9.52-13.34,8.29,6.11,17.5,12.91,28.1,12.24,4.81-.32,11.55-2.36,14.51-6.51,2.38-3.35-.72-6.85-3.35-8.72-7.14-5.12-16.4-6.06-23.83-10.71-1.8-1.12-3.48-2.34-5.03-3.77-.59-.52-1.17-1.1-1.6-1.75-.18-.25-.31-.61-.4-.83,.09-.07,.23-.16,.4-.23,1.15-.4,2.36-.47,3.53-.54,2.69-.14,5.14,.29,7.61,1.39,4.67,2.09,8.72,5.19,13.57,6.96,5.43,2.02,11.09,1.48,16.47-.32,4.81-1.57,9.99-4.09,13.03-8.27,3.14-4.34,2.16-9.07-1.04-13.01-8.94-11.05-22.53-3.08-33.85-2.47-3.01,.18-6.16-.38-9.05-1.05-1.19-.29-4.76-.97-5.26-2.33-.32-.81,3.44-2.81,4.16-3.19,3.19-1.73,6.38-2.38,9.99-2.34,9.14,.07,18.22,3.68,27.2,.61,5.91-2,12.71-7.28,12.11-14.26-.65-7.39-9.66-10.72-16.06-10.35-8.06,.49-15.52,6.58-23.59,4.34,1.3-3.64,4.36-5.95,8.33-7.61,5.77-2.42,12.04-3.53,18.1-5.01,5.79-1.42,11.9-3.14,16.65-6.88,4.87-3.86,6.52-9.62,5.71-15.63Z" style="fill:#b0c2e4; fill-rule:evenodd;"/><path d="M1464.83,741.04c-3.03,13.23-5.68,26.53-9.46,39.54-3.89,13.37-9.45,25.74-17.07,37.38-15.75,24.06-35.83,44.92-52.05,68.64-.67,.95-.56,1.93-.02,2.63-3.14,5.93-4.94,12.65-6.27,19.07-2.23,11.17-2.96,22.69-3.39,34.1-.56,13.9-.45,27.74,.18,41.69,.76,16.35,1.84,32.73,1.15,49.08-.04,.97-.07,1.89-.14,2.87-.18,3.37,5.06,3.37,5.26,0,.9-15.99-.02-32.01-.81-48-.7-14.24-1.03-28.41-.52-42.66,.41-11.01,.96-22.06,2.85-32.93,1.71-9.91,4.43-21.09,11.9-28.33,1.08-1.04,.97-2.33,.29-3.24,15.19-20.62,32.59-39.58,46.65-61.03,7.52-11.5,12.87-23.88,16.83-37.02,3.97-13.25,6.6-26.89,9.7-40.37,.76-3.3-4.29-4.69-5.06-1.41Z" style="fill:#b0c2e4; fill-rule:evenodd;"/><path d="M1379.07,1036.83c-2.85-25.56-14.62-48.43-26.8-70.67-12.06-22.04-24.8-44.38-28.5-69.61-.49-3.35-5.57-1.93-5.07,1.39,7.39,50.38,49.42,88.05,55.12,138.89,.36,3.33,5.62,3.37,5.25,0Z" style="fill:#b0c2e4; fill-rule:evenodd;"/><path d="M1456.34,917.05c-22.49,9.82-44.52,24.86-59.62,44.43-8.25,10.65-13.08,22.8-16.11,35.53-1.15-13.27-3.6-26.42-6.13-39.47-5.93-30.48-10.49-61.08-13.34-92.01-1.15-12.29-2-24.59-2.58-36.9-.13-3.37-5.41-3.39-5.25,0,1.59,34.19,5.5,68.19,10.81,101.94,3.57,22.87,9.62,45.42,11.39,68.51-1.98-12.47-4.97-24.8-8.8-36.77-5.48-17.18-12.87-33.89-22.46-49.21,.07-.63-.11-1.32-.65-1.95-.67-.74-1.32-1.46-1.98-2.14-2.38-3.57-4.87-7.07-7.5-10.47-1.17-1.51-2.85-.97-3.73,.25-4.02-3.1-8.31-5.84-12.96-8.22-10.8-5.61-24.24-9.23-29.41-21.47-1.33-3.12-5.84-.43-4.56,2.67,5.17,12.17,17.72,16.67,28.68,22.01,9.88,4.79,18.19,10.94,25.63,18.8,10.49,15.99,18.33,33.76,24.13,51.91,7.03,22.04,11.07,45.24,11.12,68.4,0,.11,.02,.25,.02,.36-.36,1.71,.99,2.83,2.43,2.94,.7,2.4,4.94,2.07,5.16-.94,1.93-24.84,4.78-50.97,20.69-71.23,14.71-18.71,36.01-32.98,57.68-42.41,3.1-1.37,.4-5.88-2.67-4.56Z" style="fill:#9db2d9; fill-rule:evenodd;"/><path d="M1299.06,740.5c-4.79-2.42-10.2-3.37-15.48-3.98-1.39-.16-2.74,1.05-2.81,2.43-.36,7.35-.42,14.74-1.35,22.06-.32,2.41-.83,5.66-1.82,7.46-.07,.11-.38,.47-.5,.65-.02-.04-.07-.04-.11-.07-.5-.29-.88-.68-1.28-1.12-6.92-7.28-7.89-18.11-14.24-25.74-3.35-4.04-8.54-7.43-13.45-9.23-5.34-1.91-10.94-1.33-15.54-5.19-1.66-1.39-3.82,.25-4.09,2-1.64,9.91-5.21,21.07-2.18,31.06,2.7,8.87,10.45,13.63,18.22,17.66,3.73,1.91,7.48,3.95,10.9,6.49,1.86,1.37,5.17,3.91,4.25,6.6-1.01,2.81-5.46,.78-7.68-.07-4.54-1.69-8.83-4.04-13.12-6.27-7.08-3.68-18.17-9.16-25.63-3.68-3.28,2.42-2.96,6.88-1.6,10.24,2.14,5.3,7.33,9.7,11.95,12.8,10.47,7.12,23.54,4.4,34.86,8.76,2.61,1.01,10.35,5.03,8.83,8.9-.52,1.33-2.87,2.09-4.09,2.49-2.96,.87-6.49,1.28-9.52,.63-11.59-2.52-20.1-12.45-31.94-14.44-5.21-.87-12.02,.33-16.17,3.68-3.53,2.85-3.59,7.46-1.98,11.32,1.95,4.69,6.31,8.4,10.4,11.14,4.78,3.14,10.2,5.1,15.88,5.53,11.43,.85,23.11-3.91,33.53,2.63,1.44,.9,3.1,2.14,3.46,3.91,.25,1.37-1.26,2.56-2.2,3.28-4.11,3.21-10.96,4.36-16.01,4.15-6.13-.29-11.93-3.28-17.55-5.46-5.93-2.27-11.97-3.55-18.31-2.6-4.6,.68-9.44,3.23-10.27,8.24-.74,4.58,1.96,9.01,4.76,12.4,3.69,4.47,8.72,7.86,13.99,10.17,5.7,2.52,12.63,2.2,18.67,1.46,6.27-.74,12.4-2.33,18.71-2.85,1.66-.13,2.92-.29,4.54-.92,1.69-.65,3.33-1.53,5.15-1.87,1.51-.31,1.3,1.55,1.32,2.78,.02,2.9-3.55,4.49-5.73,5.73-2.04,1.17-3.88,2.7-5.98,3.71-2.43,1.17-5.07,1.88-7.64,2.67-5.1,1.51-10.51,3.06-14.55,6.74-3.89,3.53-5.05,9.34-3.68,14.31,2.87,10.45,16.44,11.21,25,8.62,5.5-1.64,9.61-4.97,12.91-9.64,4.07-5.77,6.27-12.38,12.31-16.2,1.64,2.38,1.71,4.87,.36,7.86-1.89,4.15-5.55,7.62-8.67,10.83-6.13,6.31-15.86,13.93-16.2,23.54-.04,1.19,.61,2.31,1.77,2.7,5.14,1.68,10.45,2.4,15.61,.41,4.29-1.6,7.39-5.44,9.7-9.25,4.07-6.81,6.27-15.41,11.68-21.38-.13,2.13-1.12,4.04-2.31,6.4-2.13,4.2-2.13,8.6-1.1,13.12,1.5,6.81,6.83,12.47,14.06,9.07,3.98-1.86,6.97-5.73,9.34-9.28,2.7-4.02,4.15-8.74,4.74-13.55,.72-5.95-.18-11.97-1.82-17.77,11.66,8.89,30.62,14.96,38.19-1.12,6.45-13.73-14.17-12.11-24.31-15.72,1.64-.07,3.26,0,4.85,.04,4.45,.14,8.9,.5,13.37,.29,8.36-.5,16.08-4.51,16.83-13.7,.67-7.91-8.18-7.25-13.45-6.45-4.29,.68-11.88,2.79-16.4,.32,9.73-3.39,20.57-7.14,25.99-16.26,2.49-4.15,4.6-10.87,2.88-15.64-1.42-3.86-6.09-3.28-9.12-2.18-8.24,2.99-14.28,10.11-22.3,13.61-1.93,.83-3.91,1.53-5.97,2-.77,.18-1.55,.32-2.38,.34-.29,.02-.63-.09-.87-.14-.02-.13-.02-.29,.05-.47,.31-1.15,.92-2.2,1.53-3.23,1.41-2.29,3.14-4.05,5.44-5.46,4.36-2.67,9.23-4.29,13.41-7.25,4.76-3.35,7.5-8.33,9.08-13.79,1.41-4.85,2.27-10.54,.54-15.41-1.8-5.05-6.27-6.92-11.32-6.52-14.2,1.12-15.3,16.85-21.2,26.53-1.57,2.58-3.79,4.83-5.98,6.85-.9,.83-3.5,3.35-4.9,3.05-.85-.22-.36-4.45-.27-5.25,.4-3.6,1.68-6.6,3.73-9.55,5.23-7.5,13.34-12.94,15.9-22.08,1.69-6.02,1.15-14.62-4.9-18.04-6.45-3.68-14.31,1.88-17.63,7.37-4.18,6.9-3.37,16.49-9.75,21.9-2.29-3.14-2.47-6.99-1.57-11.17,1.26-6.13,3.89-11.93,6.09-17.77,2.11-5.57,4.16-11.54,3.75-17.59-.4-6.2-4.22-10.83-9.62-13.55Z" style="fill:#c4d1eb; fill-rule:evenodd;"/><polygon points="1438.75 1191.32 1325.38 1191.32 1288.29 1044.71 1473.29 1044.71 1438.75 1191.32" style="fill:#b0c2e4; fill-rule:evenodd;"/><rect x="1275.92" y="1025.68" width="207.13" height="19.03" style="fill:#9db2d9;"/><polygon points="1380.79 1044.71 1288.29 1044.71 1325.38 1191.32 1380.79 1191.32 1380.79 1044.71" style="fill:#9db2d9; fill-rule:evenodd;"/><rect x="1275.92" y="1025.68" width="104.87" height="19.03" style="fill:#859ac6;"/><polygon points="1438.75 1193.54 1325.38 1193.54 1288.29 1173.71 1473.29 1173.71 1438.75 1193.54" style="fill:#9db2d9; fill-rule:evenodd;"/><polygon points="1380.79 1173.71 1288.29 1173.71 1325.38 1193.54 1380.79 1193.54 1380.79 1173.71" style="fill:#859ac6; fill-rule:evenodd;"/><path d="M1625.01,1384.7c138.25,0,250.97-16.02,250.97-35.67s-112.72-35.71-250.97-35.71-251,16.02-251,35.71,112.76,35.67,251,35.67Z" style="fill:#c4d1eb; fill-rule:evenodd;"/><path d="M1040.07,160.97h-463.49c-44.68,0-81.14,36.47-81.14,81.16v140.08h0c-7.43,0-13.48,6.06-13.48,13.45v114.02c0,7.39,6.06,13.46,13.48,13.46h0v723.49c0,44.72,36.46,81.18,81.14,81.18h463.49c44.68,0,81.16-36.46,81.16-81.18V633.15c.38,.04,.77,.04,1.15,.04h0c7.39,0,13.46-6.04,13.46-13.45v-114.02c0-7.39-6.07-13.45-13.46-13.45h0c-.38,0-.78,.02-1.15,.05v-38.81c.38,.04,.77,.05,1.15,.05h0c7.39,0,13.46-6.04,13.46-13.45v-114c0-7.41-6.07-13.46-13.46-13.46h0c-.38,0-.78,.02-1.15,.05v-70.58c0-44.69-36.48-81.16-81.16-81.16Z" style="fill:#b0c2e4; fill-rule:evenodd;"/><path d="M1040.07,182.59h-463.49c-32.73,0-59.52,26.8-59.52,59.53v1004.51c0,32.73,26.78,59.52,59.52,59.52h463.49c32.75,0,59.52-26.78,59.52-59.52V242.13c0-32.73-26.77-59.53-59.52-59.53Z" style="fill:#fff; fill-rule:evenodd;"/><path d="M1040.07,207.02h-463.49c-19.32,0-35.11,15.79-35.11,35.11v1004.51c0,19.32,15.79,35.11,35.11,35.11h463.49c19.3,0,35.09-15.79,35.09-35.11V242.13c0-19.32-15.79-35.11-35.09-35.11Z" style="fill:#d3e3f4; fill-rule:evenodd;"/><path d="M615.24,550.2c-1.06,0-1.89-1.44-1.89-3.21v-6.85c0-1.77-1.46-3.21-3.24-3.21h-33.45c-1.77,0-3.21,1.44-3.21,3.21v6.85c0,1.77-.87,3.21-1.93,3.21s-1.91,1.44-1.91,3.21v109.84c0,1.78,1.46,3.21,3.21,3.21h41.15c1.75,0,3.21-1.42,3.21-3.21v-109.84c0-1.77-.86-3.21-1.93-3.21Z" style="fill:#b0c2e4; fill-rule:evenodd;"/><rect x="582.1" y="500.67" width="22.57" height="14.1" style="fill:#c4d1eb;"/><path d="M608.5,500.29c-1.01,0-1.82-1.44-1.82-3.19v-29.81c0-1.77-1.44-3.19-3.21-3.19h-20.19c-1.75,0-3.21,1.42-3.21,3.19v29.81c0,1.75-.81,3.19-1.82,3.19s-1.82,1.35-1.82,3.03,1.46,3.01,3.24,3.01h27.43c1.75,0,3.21-1.37,3.21-3.01s-.83-3.03-1.82-3.03Z" style="fill:#fff; fill-rule:evenodd;"/><rect x="569.61" y="578.35" width="47.57" height="72.2" style="fill:#c4d1eb;"/><path d="M619.37,540.68v-20.75c0-4.16-2.88-7.59-6.42-7.59h-39.15c-3.53,0-6.42,3.42-6.42,7.59v20.75h51.98Z" style="fill:#fff; fill-rule:evenodd;"/><path d="M607.6,499.82h-.07c-.38-.45-.67-1.17-.81-2h.04c.14,.85,.43,1.57,.85,2h0Zm-28.37,0h-.07c.41-.43,.7-1.15,.85-2h.04c-.11,.83-.43,1.55-.81,2Z" style="fill:#91b3ba; fill-rule:evenodd;"/><path d="M607.53,499.82h-28.3c.38-.45,.7-1.17,.81-2h26.68c.14,.83,.43,1.55,.81,2Z" style="fill:#c4d1eb; fill-rule:evenodd;"/><path d="M607.87,664.06h-4.15v-13.5h4.15v13.5h0Zm0-85.7h-4.15v-25.76h4.15v25.76Z" style="fill:#9db2d9; fill-rule:evenodd;"/><rect x="603.73" y="578.35" width="4.15" height="72.2" style="fill:#f6f8f9;"/><path d="M600.52,664.06h-21.63v-13.5h21.63v13.5h0Zm0-85.7h-21.63v-25.76h21.63v25.76Z" style="fill:#9db2d9; fill-rule:evenodd;"/><rect x="578.89" y="578.35" width="21.63" height="72.2" style="fill:#f6f8f9;"/><rect x="573.45" y="540.68" width="39.91" height="3.97" style="fill:#9db2d9;"/><path d="M683.66,550.2c-1.06,0-1.93-1.44-1.93-3.21v-6.85c0-1.77-1.42-3.21-3.21-3.21h-33.45c-1.77,0-3.21,1.44-3.21,3.21v6.85c0,1.77-.87,3.21-1.91,3.21s-1.93,1.44-1.93,3.21v109.84c0,1.78,1.46,3.21,3.21,3.21h41.15c1.75,0,3.21-1.42,3.21-3.21v-109.84c0-1.77-.87-3.21-1.93-3.21Z" style="fill:#b0c2e4; fill-rule:evenodd;"/><rect x="650.52" y="500.67" width="22.57" height="14.1" style="fill:#c4d1eb;"/><path d="M676.92,500.29c-1.03,0-1.82-1.44-1.82-3.19v-29.81c0-1.77-1.44-3.19-3.21-3.19h-20.17c-1.78,0-3.21,1.42-3.21,3.19v29.81c0,1.75-.83,3.19-1.82,3.19s-1.82,1.35-1.82,3.03,1.46,3.01,3.23,3.01h27.43c1.75,0,3.21-1.37,3.21-3.01s-.83-3.03-1.82-3.03Z" style="fill:#fff; fill-rule:evenodd;"/><rect x="638.03" y="578.35" width="47.57" height="72.2" style="fill:#c4d1eb;"/><path d="M687.81,540.68v-20.75c0-4.16-2.88-7.59-6.42-7.59h-39.17c-3.51,0-6.42,3.42-6.42,7.59v20.75h52Z" style="fill:#fff; fill-rule:evenodd;"/><path d="M676.04,499.82h-.07c-.4-.45-.69-1.17-.83-2h.04c.14,.85,.43,1.57,.87,2h0Zm-28.39,0h-.07c.43-.43,.72-1.15,.85-2h.04c-.11,.83-.41,1.55-.81,2Z" style="fill:#91b3ba; fill-rule:evenodd;"/><path d="M675.97,499.82h-28.32c.4-.45,.7-1.17,.81-2h26.68c.14,.83,.43,1.55,.83,2Z" style="fill:#c4d1eb; fill-rule:evenodd;"/><path d="M676.29,664.06h-4.18v-13.5h4.18v13.5h0Zm0-85.7h-4.18v-25.76h4.18v25.76Z" style="fill:#9db2d9; fill-rule:evenodd;"/><rect x="672.11" y="578.35" width="4.18" height="72.2" style="fill:#f6f8f9;"/><path d="M668.94,664.06h-21.63v-13.5h21.63v13.5h0Zm0-85.7h-21.63v-25.76h21.63v25.76Z" style="fill:#9db2d9; fill-rule:evenodd;"/><rect x="647.31" y="578.35" width="21.63" height="72.2" style="fill:#f6f8f9;"/><rect x="641.87" y="540.68" width="39.87" height="3.97" style="fill:#9db2d9;"/><path d="M752.1,550.2c-1.08,0-1.93-1.44-1.93-3.21v-6.85c0-1.77-1.46-3.21-3.21-3.21h-33.47c-1.77,0-3.21,1.44-3.21,3.21v6.85c0,1.77-.87,3.21-1.91,3.21s-1.93,1.44-1.93,3.21v109.84c0,1.78,1.46,3.21,3.21,3.21h41.15c1.75,0,3.21-1.42,3.21-3.21v-109.84c0-1.77-.87-3.21-1.91-3.21Z" style="fill:#b0c2e4; fill-rule:evenodd;"/><rect x="718.94" y="500.67" width="22.57" height="14.1" style="fill:#c4d1eb;"/><path d="M745.32,500.29c-.97,0-1.8-1.44-1.8-3.19v-29.81c0-1.77-1.44-3.19-3.21-3.19h-20.17c-1.78,0-3.21,1.42-3.21,3.19v29.81c0,1.75-.81,3.19-1.82,3.19s-1.82,1.35-1.82,3.03,1.46,3.01,3.21,3.01h27.43c1.78,0,3.23-1.37,3.23-3.01s-.83-3.03-1.84-3.03Z" style="fill:#fff; fill-rule:evenodd;"/><rect x="706.45" y="578.35" width="47.57" height="72.2" style="fill:#c4d1eb;"/><path d="M756.21,540.68v-20.75c0-4.16-2.87-7.59-6.42-7.59h-39.15c-3.53,0-6.4,3.42-6.4,7.59v20.75h51.96Z" style="fill:#fff; fill-rule:evenodd;"/><path d="M744.46,499.82h-.07c-.4-.45-.7-1.17-.81-2h.04c.13,.85,.41,1.57,.85,2h0Zm-28.41,0h-.04c.41-.43,.7-1.15,.83-2h.04c-.11,.83-.41,1.55-.83,2Z" style="fill:#91b3ba; fill-rule:evenodd;"/><path d="M744.39,499.82h-28.33c.41-.45,.72-1.17,.83-2h26.69c.11,.83,.41,1.55,.81,2Z" style="fill:#c4d1eb; fill-rule:evenodd;"/><path d="M744.71,664.06h-4.16v-13.5h4.16v13.5h0Zm0-85.7h-4.16v-25.76h4.16v25.76Z" style="fill:#9db2d9; fill-rule:evenodd;"/><rect x="740.55" y="578.35" width="4.16" height="72.2" style="fill:#f6f8f9;"/><path d="M737.36,664.06h-21.63v-13.5h21.63v13.5h0Zm0-85.7h-21.63v-25.76h21.63v25.76Z" style="fill:#9db2d9; fill-rule:evenodd;"/><rect x="715.73" y="578.35" width="21.63" height="72.2" style="fill:#f6f8f9;"/><rect x="710.29" y="540.68" width="39.89" height="3.97" style="fill:#9db2d9;"/><path d="M614.63,803.55v-24.37c0-1.41-1.24-2.52-2.78-2.52h-38.7c-1.53,0-2.78,1.12-2.78,2.52v24.37h44.25Z" style="fill:#fff; fill-rule:evenodd;"/><path d="M618.54,825.07l-8.07-13.21c-.83-1.35-1.46-2.43-1.44-2.43,.04,0,.05-1.33,.05-2.9v-2.97h-33.15v2.97c0,1.57,.04,2.9,.05,2.9,.04,0-.63,1.08-1.44,2.43l-8.06,13.21c-.83,1.35-1.75,3.75-1.75,5.37v78.41c0,1.59,1.26,2.9,2.79,2.9h49.96c1.53,0,2.78-1.32,2.78-2.9v-78.41c0-1.62-.9-4.02-1.73-5.37Z" style="fill:#b0c2e4; fill-rule:evenodd;"/><rect x="564.74" y="849.42" width="55.53" height="50.77" style="fill:#c4d1eb;"/><path d="M606.61,910.79h-4.2v-10.6h4.2v10.6h0Zm0-61.39h-4.2v-21.29h4.2v21.29Z" style="fill:#9db2d9; fill-rule:evenodd;"/><rect x="602.41" y="849.42" width="4.2" height="50.77" style="fill:#b0c2e4;"/><path d="M596.41,910.79h-21.81v-10.6h21.81v10.6h0Zm0-61.39h-21.81v-21.29h21.81v21.29Z" style="fill:#9db2d9; fill-rule:evenodd;"/><rect x="574.6" y="849.42" width="21.81" height="50.77" style="fill:#b0c2e4;"/><path d="M612.59,910.79h-3.28v-10.6h3.28v10.6h0Zm0-61.39h-3.28v-21.29h3.28v21.29Z" style="fill:#9db2d9; fill-rule:evenodd;"/><rect x="609.31" y="849.42" width="3.28" height="50.77" style="fill:#b0c2e4;"/><rect x="588.55" y="777.05" width="2.6" height="26.1" style="fill:#dfe7e8;"/><rect x="583.5" y="777.05" width="2.6" height="26.1" style="fill:#dfe7e8;"/><rect x="573.37" y="777.05" width="2.61" height="26.1" style="fill:#dfe7e8;"/><rect x="578.44" y="777.05" width="2.61" height="26.1" style="fill:#dfe7e8;"/><rect x="593.6" y="777.05" width="2.6" height="26.1" style="fill:#dfe7e8;"/><rect x="598.66" y="777.05" width="2.6" height="26.1" style="fill:#dfe7e8;"/><rect x="608.77" y="777.05" width="2.6" height="26.1" style="fill:#dfe7e8;"/><rect x="603.73" y="777.05" width="2.6" height="26.1" style="fill:#dfe7e8;"/><polygon points="609.08 806.23 575.95 806.23 575.93 805.91 575.93 803.55 609.08 803.55 609.08 806.23" style="fill:#9db2d9; fill-rule:evenodd;"/><path d="M687.57,802.59v-24.35c0-1.41-1.23-2.54-2.76-2.54h-38.7c-1.53,0-2.78,1.14-2.78,2.54v24.35h44.23Z" style="fill:#fff; fill-rule:evenodd;"/><path d="M691.5,824.13l-8.07-13.23c-.83-1.33-1.48-2.43-1.44-2.43,0,0,.04-1.32,.04-2.9v-2.97h-33.13v2.97c0,1.59,.04,2.9,.04,2.9,.04,0-.59,1.1-1.42,2.43l-8.09,13.23c-.81,1.33-1.71,3.75-1.71,5.35v78.41c0,1.62,1.24,2.9,2.76,2.9h49.98c1.53,0,2.78-1.28,2.78-2.9v-78.41c0-1.6-.92-4.02-1.71-5.35Z" style="fill:#b0c2e4; fill-rule:evenodd;"/><rect x="637.7" y="848.46" width="55.51" height="50.76" style="fill:#c4d1eb;"/><path d="M679.57,909.84h-4.22v-10.62h4.22v10.62h0Zm0-61.37h-4.22v-21.3h4.22v21.3Z" style="fill:#9db2d9; fill-rule:evenodd;"/><rect x="675.35" y="848.46" width="4.22" height="50.76" style="fill:#b0c2e4;"/><path d="M669.37,909.84h-21.81v-10.62h21.81v10.62h0Zm0-61.37h-21.81v-21.3h21.81v21.3Z" style="fill:#9db2d9; fill-rule:evenodd;"/><rect x="647.56" y="848.46" width="21.81" height="50.76" style="fill:#b0c2e4;"/><path d="M685.56,909.84h-3.32v-10.62h3.32v10.62h0Zm0-61.37h-3.32v-21.3h3.32v21.3Z" style="fill:#9db2d9; fill-rule:evenodd;"/><rect x="682.24" y="848.46" width="3.32" height="50.76" style="fill:#b0c2e4;"/><rect x="661.49" y="776.1" width="2.61" height="26.1" style="fill:#dfe7e8;"/><rect x="656.43" y="776.1" width="2.63" height="26.1" style="fill:#dfe7e8;"/><rect x="646.34" y="776.1" width="2.6" height="26.1" style="fill:#dfe7e8;"/><rect x="651.4" y="776.1" width="2.6" height="26.1" style="fill:#dfe7e8;"/><rect x="666.56" y="776.1" width="2.6" height="26.1" style="fill:#dfe7e8;"/><rect x="671.62" y="776.1" width="2.6" height="26.1" style="fill:#dfe7e8;"/><rect x="681.7" y="776.1" width="2.63" height="26.1" style="fill:#dfe7e8;"/><rect x="676.65" y="776.1" width="2.63" height="26.1" style="fill:#dfe7e8;"/><polygon points="682.02 805.28 648.89 805.28 648.89 804.95 648.89 802.59 682.02 802.59 682.02 805.28" style="fill:#9db2d9; fill-rule:evenodd;"/><path d="M760.54,802.59v-24.35c0-1.41-1.24-2.54-2.78-2.54h-38.72c-1.5,0-2.74,1.14-2.74,2.54v24.35h44.23Z" style="fill:#fff; fill-rule:evenodd;"/><path d="M764.47,824.13l-8.09-13.23c-.81-1.33-1.46-2.43-1.42-2.43,0,0,.04-1.32,.04-2.9v-2.97h-33.13v2.97c0,1.59,0,2.9,.04,2.9s-.61,1.1-1.44,2.43l-8.07,13.23c-.83,1.33-1.71,3.75-1.71,5.35v78.41c0,1.62,1.24,2.9,2.76,2.9h50c1.51,0,2.74-1.28,2.74-2.9v-78.41c0-1.6-.9-4.02-1.69-5.35Z" style="fill:#b0c2e4; fill-rule:evenodd;"/><rect x="710.66" y="848.46" width="55.5" height="50.76" style="fill:#c4d1eb;"/><path d="M752.53,909.84h-4.22v-10.62h4.22v10.62h0Zm0-61.37h-4.22v-21.3h4.22v21.3Z" style="fill:#9db2d9; fill-rule:evenodd;"/><rect x="748.32" y="848.46" width="4.22" height="50.76" style="fill:#b0c2e4;"/><path d="M742.33,909.84h-21.81v-10.62h21.81v10.62h0Zm0-61.37h-21.81v-21.3h21.81v21.3Z" style="fill:#9db2d9; fill-rule:evenodd;"/><rect x="720.52" y="848.46" width="21.81" height="50.76" style="fill:#b0c2e4;"/><path d="M758.52,909.84h-3.32v-10.62h3.32v10.62h0Zm0-61.37h-3.32v-21.3h3.32v21.3Z" style="fill:#9db2d9; fill-rule:evenodd;"/><rect x="755.2" y="848.46" width="3.32" height="50.76" style="fill:#b0c2e4;"/><rect x="734.44" y="776.1" width="2.63" height="26.1" style="fill:#dfe7e8;"/><rect x="729.39" y="776.1" width="2.63" height="26.1" style="fill:#dfe7e8;"/><rect x="719.3" y="776.1" width="2.6" height="26.1" style="fill:#dfe7e8;"/><rect x="724.34" y="776.1" width="2.61" height="26.1" style="fill:#dfe7e8;"/><rect x="739.5" y="776.1" width="2.61" height="26.1" style="fill:#dfe7e8;"/><rect x="744.57" y="776.1" width="2.61" height="26.1" style="fill:#dfe7e8;"/><rect x="754.66" y="776.1" width="2.63" height="26.1" style="fill:#dfe7e8;"/><rect x="749.61" y="776.1" width="2.63" height="26.1" style="fill:#dfe7e8;"/><polygon points="754.99 805.28 721.86 805.28 721.86 804.95 721.86 802.59 754.99 802.59 754.99 805.28" style="fill:#9db2d9; fill-rule:evenodd;"/><path d="M845.47,571.66v-21.36c0-1.23-1.48-2.22-3.26-2.22h-45.4c-1.8,0-3.24,.99-3.24,2.22v21.36h51.91Z" style="fill:#f6f8f9; fill-rule:evenodd;"/><path d="M850.05,590.54l-9.48-11.59c-.95-1.19-1.69-2.15-1.68-2.15s.05-1.15,.05-2.56v-2.58h-38.88v2.58c0,1.41,.04,2.56,.07,2.56,.02,0-.74,.96-1.71,2.15l-9.46,11.59c-.96,1.15-2.02,3.28-2.02,4.67v68.71c0,1.39,1.46,2.54,3.24,2.54h58.65c1.78,0,3.24-1.15,3.24-2.54v-68.71c0-1.39-1.06-3.51-2.04-4.67Z" style="fill:#b0c2e4; fill-rule:evenodd;"/><rect x="786.94" y="611.84" width="65.14" height="44.48" style="fill:#c4d1eb;"/><path d="M836.06,665.63h-4.94v-9.3h4.94v9.3h0Zm0-53.78h-4.94v-18.67h4.94v18.67Z" style="fill:#9db2d9; fill-rule:evenodd;"/><rect x="831.12" y="611.84" width="4.94" height="44.48" style="fill:#b0c2e4;"/><path d="M824.09,665.63h-25.59v-9.3h25.59v9.3h0Zm0-53.78h-25.59v-18.67h25.59v18.67Z" style="fill:#9db2d9; fill-rule:evenodd;"/><rect x="798.5" y="611.84" width="25.59" height="44.48" style="fill:#b0c2e4;"/><path d="M843.09,665.63h-3.88v-9.3h3.88v9.3h0Zm0-53.78h-3.88v-18.67h3.88v18.67Z" style="fill:#9db2d9; fill-rule:evenodd;"/><rect x="839.21" y="611.84" width="3.88" height="44.48" style="fill:#b0c2e4;"/><rect x="814.86" y="548.43" width="3.06" height="22.87" style="fill:#c4d1eb;"/><rect x="808.93" y="548.43" width="3.06" height="22.87" style="fill:#c4d1eb;"/><rect x="797.05" y="548.43" width="3.08" height="22.87" style="fill:#c4d1eb;"/><rect x="803" y="548.43" width="3.06" height="22.87" style="fill:#c4d1eb;"/><rect x="820.81" y="548.43" width="3.03" height="22.87" style="fill:#c4d1eb;"/><rect x="826.72" y="548.43" width="3.06" height="22.87" style="fill:#c4d1eb;"/><rect x="838.58" y="548.43" width="3.06" height="22.87" style="fill:#c4d1eb;"/><rect x="832.67" y="548.43" width="3.05" height="22.87" style="fill:#c4d1eb;"/><polygon points="838.94 573.99 800.08 573.99 800.06 573.74 800.06 571.66 838.94 571.66 838.94 573.99" style="fill:#9db2d9; fill-rule:evenodd;"/><path d="M928.31,572.49v-21.36c0-1.23-1.48-2.22-3.24-2.22h-45.42c-1.8,0-3.24,.99-3.24,2.22v21.36h51.91Z" style="fill:#f6f8f9; fill-rule:evenodd;"/><path d="M932.88,591.33l-9.48-11.54c-.97-1.21-1.71-2.16-1.68-2.16,.02,0,.05-1.15,.05-2.54v-2.6h-38.9v2.6c0,1.39,.04,2.54,.07,2.54s-.72,.96-1.69,2.16l-9.46,11.54c-.96,1.21-2.04,3.3-2.04,4.69v68.74c0,1.37,1.46,2.52,3.24,2.52h58.65c1.8,0,3.24-1.15,3.24-2.52v-68.74c0-1.39-1.06-3.48-2.02-4.69Z" style="fill:#b0c2e4; fill-rule:evenodd;"/><rect x="869.76" y="612.67" width="65.14" height="44.48" style="fill:#c4d1eb;"/><path d="M918.9,666.45h-4.94v-9.3h4.94v9.3h0Zm0-53.78h-4.94v-18.64h4.94v18.64Z" style="fill:#9db2d9; fill-rule:evenodd;"/><rect x="913.96" y="612.67" width="4.94" height="44.48" style="fill:#b0c2e4;"/><path d="M906.93,666.45h-25.59v-9.3h25.59v9.3h0Zm0-53.78h-25.59v-18.64h25.59v18.64Z" style="fill:#9db2d9; fill-rule:evenodd;"/><rect x="881.34" y="612.67" width="25.59" height="44.48" style="fill:#b0c2e4;"/><path d="M925.93,666.45h-3.88v-9.3h3.88v9.3h0Zm0-53.78h-3.88v-18.64h3.88v18.64Z" style="fill:#9db2d9; fill-rule:evenodd;"/><rect x="922.05" y="612.67" width="3.88" height="44.48" style="fill:#b0c2e4;"/><rect x="897.68" y="549.28" width="3.06" height="22.85" style="fill:#c4d1eb;"/><rect x="891.75" y="549.28" width="3.06" height="22.85" style="fill:#c4d1eb;"/><rect x="879.89" y="549.28" width="3.06" height="22.85" style="fill:#c4d1eb;"/><rect x="885.84" y="549.28" width="3.06" height="22.85" style="fill:#c4d1eb;"/><rect x="903.61" y="549.28" width="3.06" height="22.85" style="fill:#c4d1eb;"/><rect x="909.56" y="549.28" width="3.06" height="22.85" style="fill:#c4d1eb;"/><rect x="921.42" y="549.28" width="3.06" height="22.85" style="fill:#c4d1eb;"/><rect x="915.49" y="549.28" width="3.06" height="22.85" style="fill:#c4d1eb;"/><polygon points="921.78 574.84 882.89 574.84 882.89 574.55 882.89 572.49 921.78 572.49 921.78 574.84" style="fill:#9db2d9; fill-rule:evenodd;"/><path d="M1024.81,565.46c1.28,0,2.36-1.28,2.36-2.81v-3.21c0-1.53-1.24-2.83-2.76-2.83h-51.77c-1.51,0-2.76,1.3-2.76,2.83v3.21c0,1.53,1.06,2.81,2.36,2.81s2.38,1.24,2.38,2.79v6.42c0,1.55-1.06,2.81-2.38,2.81s-2.36,1.28-2.36,2.81v83.42c0,1.55,1.24,2.81,2.76,2.81h51.77c1.51,0,2.76-1.26,2.76-2.81v-83.42c0-1.53-1.08-2.81-2.36-2.81s-2.38-1.26-2.38-2.81v-6.42c0-1.55,1.06-2.79,2.38-2.79Z" style="fill:#fff; fill-rule:evenodd;"/><rect x="969.89" y="516.11" width="57.28" height="40.5" style="fill:#f6f8f9;"/><rect x="972.18" y="514.01" width="52.7" height="2.11" style="fill:#c4d1eb;"/><rect x="969.89" y="591.53" width="57.28" height="59.75" style="fill:#c4d1eb;"/><path d="M1015.87,666.45h-5.3v-15.18h5.3v15.18h0Zm0-74.93h-5.3v-14.62h5.3v14.62Z" style="fill:#e0e8f5; fill-rule:evenodd;"/><rect x="1010.57" y="591.53" width="5.3" height="59.75" style="fill:#b0c2e4;"/><path d="M1006.51,666.45h-27.34v-15.18h27.34v15.18h0Zm0-74.93h-27.34v-14.62h27.34v14.62Z" style="fill:#e0e8f5; fill-rule:evenodd;"/><rect x="979.17" y="591.53" width="27.34" height="59.75" style="fill:#b0c2e4;"/><path d="M1020.48,666.45h-2.67v-15.18h2.67v15.18h0Zm0-74.93h-2.67v-14.62h2.67v14.62Z" style="fill:#e0e8f5; fill-rule:evenodd;"/><rect x="1017.81" y="591.53" width="2.67" height="59.75" style="fill:#b0c2e4;"/><path d="M1024.81,565.46l.07-.04h-52.7l.07,.04c1.32,0,2.38,1.24,2.38,2.79v6.42c0,.94-.41,1.73-.99,2.23h49.78c-.59-.5-.99-1.3-.99-2.23v-6.42c0-1.55,1.06-2.79,2.38-2.79Z" style="fill:#c4d1eb; fill-rule:evenodd;"/><path d="M1024.41,556.61h-51.77c-.94,0-1.75,.54-2.25,1.3h56.27c-.5-.76-1.32-1.3-2.25-1.3Z" style="fill:#c4d1eb; fill-rule:evenodd;"/><rect x="986.47" y="517.43" width=".88" height="39.18" style="fill:#c4d1eb;"/><rect x="989.05" y="517.43" width=".88" height="39.18" style="fill:#c4d1eb;"/><rect x="983.89" y="517.43" width=".87" height="39.18" style="fill:#c4d1eb;"/><rect x="994.22" y="517.43" width=".88" height="39.18" style="fill:#c4d1eb;"/><rect x="991.64" y="517.43" width=".87" height="39.18" style="fill:#c4d1eb;"/><rect x="981.32" y="517.43" width=".88" height="39.18" style="fill:#c4d1eb;"/><rect x="973.57" y="517.43" width=".88" height="39.18" style="fill:#c4d1eb;"/><rect x="996.8" y="517.43" width=".88" height="39.18" style="fill:#c4d1eb;"/><rect x="970.97" y="517.43" width=".88" height="39.18" style="fill:#c4d1eb;"/><rect x="978.74" y="517.43" width=".87" height="39.18" style="fill:#c4d1eb;"/><rect x="976.14" y="517.43" width=".88" height="39.18" style="fill:#c4d1eb;"/><rect x="1025.2" y="517.43" width=".87" height="39.18" style="fill:#c4d1eb;"/><rect x="1012.3" y="517.43" width=".88" height="39.18" style="fill:#c4d1eb;"/><rect x="1017.45" y="517.43" width=".87" height="39.18" style="fill:#c4d1eb;"/><rect x="1014.86" y="517.43" width=".9" height="39.18" style="fill:#c4d1eb;"/><rect x="1022.61" y="517.43" width=".9" height="39.18" style="fill:#c4d1eb;"/><rect x="1020.03" y="517.43" width=".88" height="39.18" style="fill:#c4d1eb;"/><rect x="1001.95" y="517.43" width=".88" height="39.18" style="fill:#c4d1eb;"/><rect x="999.39" y="517.43" width=".87" height="39.18" style="fill:#c4d1eb;"/><rect x="1004.55" y="517.43" width=".87" height="39.18" style="fill:#c4d1eb;"/><rect x="1007.13" y="517.43" width=".88" height="39.18" style="fill:#c4d1eb;"/><rect x="1009.7" y="517.43" width=".88" height="39.18" style="fill:#c4d1eb;"/><rect x="1011.02" y="558.54" width="5.28" height="6.89" style="fill:#e0e8f5;"/><rect x="979.6" y="558.54" width="27.38" height="6.89" style="fill:#e0e8f5;"/><rect x="1018.28" y="558.54" width="2.63" height="6.89" style="fill:#e0e8f5;"/><path d="M860.82,300.24c0,1.93-1.23,3.53-2.67,3.53h-46.02c-1.46,0-2.65-1.6-2.65-3.53v-16.37c0-1.93,1.19-3.53,2.65-3.53h46.02c1.44,0,2.67,1.6,2.67,3.53v16.37Z" style="fill:#fff; fill-rule:evenodd;"/><rect x="821.84" y="276.99" width="24.96" height="2.92" style="fill:#c4d1eb;"/><path d="M861.53,327.74l-5.82-9.26c-.56-.88-1.05-2.13-1.37-3.37h-.4v-11.34h-38.97v11.34h-.4c-.32,1.21-.83,2.47-1.37,3.35l-6.06,9.32c-.97,1.51-1.78,4.42-1.78,6.45v94.27c0,2.02,1.21,3.68,2.65,3.68h52.63c1.44,0,2.63-1.66,2.63-3.68v-94.27c0-2.04-.78-4.97-1.75-6.49Z" style="fill:#fff; fill-rule:evenodd;"/><path d="M808.01,428.64v-94.41c0-1.19,.58-3.28,1.15-4.15l6.04-9.34c.38-.58,.76-1.3,1.08-2.11h1.35v-11.34h33.65v11.34h1.33c.31,.81,.67,1.53,1.06,2.11l5.82,9.26c.56,.9,1.14,3.03,1.14,4.22v94.41h-52.63Z" style="fill:#e0e8f5; fill-rule:evenodd;"/><rect x="809.49" y="351.44" width="48.56" height="73.16" style="fill:#c4d1eb;"/><rect x="846.4" y="432.18" width="4.04" height=".29" style="fill:#bfd6da;"/><rect x="846.4" y="428.64" width="4.04" height="3.53" style="fill:#eff8f7;"/><path d="M850.44,428.64h-4.04v-4.04h4.04v4.04h0Zm0-77.2h-4.04v-17.03h4.04v17.03Z" style="fill:#fff; fill-rule:evenodd;"/><rect x="846.4" y="351.44" width="4.04" height="73.16" style="fill:#b0c2e4;"/><rect x="819.73" y="432.18" width="20.91" height=".29" style="fill:#bfd6da;"/><rect x="819.73" y="428.64" width="20.91" height="3.53" style="fill:#eff8f7;"/><path d="M840.64,428.64h-20.91v-4.04h20.91v4.04h0Zm0-77.2h-20.91v-17.03h20.91v17.03Z" style="fill:#fff; fill-rule:evenodd;"/><rect x="819.73" y="351.44" width="20.91" height="73.16" style="fill:#b0c2e4;"/><rect x="844.31" y="279.91" width="4.04" height=".43" style="fill:#bfd6da;"/><rect x="844.31" y="280.34" width="4.04" height="23.43" style="fill:#fff;"/><rect x="820.31" y="279.91" width="20.91" height=".43" style="fill:#b0c2e4;"/><rect x="820.31" y="280.34" width="20.91" height="23.43" style="fill:#fff;"/><path d="M929.24,300.24c0,1.93-1.19,3.53-2.63,3.53h-46.03c-1.44,0-2.65-1.6-2.65-3.53v-16.37c0-1.93,1.21-3.53,2.65-3.53h46.03c1.44,0,2.63,1.6,2.63,3.53v16.37Z" style="fill:#fff; fill-rule:evenodd;"/><rect x="890.28" y="276.99" width="24.98" height="2.92" style="fill:#c4d1eb;"/><path d="M929.96,327.74l-5.82-9.26c-.56-.88-1.03-2.13-1.35-3.37h-.4v-11.34h-38.97v11.34h-.4c-.36,1.21-.81,2.47-1.39,3.35l-6.04,9.32c-.99,1.51-1.8,4.42-1.8,6.45v94.27c0,2.02,1.21,3.68,2.67,3.68h52.59c1.46,0,2.67-1.66,2.67-3.68v-94.27c0-2.04-.81-4.97-1.77-6.49Z" style="fill:#fff; fill-rule:evenodd;"/><path d="M876.47,428.64v-94.41c0-1.19,.58-3.28,1.12-4.15l6.06-9.34c.4-.58,.76-1.3,1.08-2.11h1.33v-11.34h33.67v11.34h1.33c.32,.81,.67,1.53,1.05,2.11l5.84,9.26c.56,.9,1.12,3.03,1.12,4.22v94.41h-52.59Z" style="fill:#e0e8f5; fill-rule:evenodd;"/><rect x="877.93" y="351.44" width="48.54" height="73.16" style="fill:#c4d1eb;"/><rect x="914.84" y="432.18" width="4.02" height=".29" style="fill:#bfd6da;"/><rect x="914.84" y="428.64" width="4.02" height="3.53" style="fill:#eff8f7;"/><path d="M918.86,428.64h-4.02v-4.04h4.02v4.04h0Zm0-77.2h-4.02v-17.03h4.02v17.03Z" style="fill:#fff; fill-rule:evenodd;"/><rect x="914.84" y="351.44" width="4.02" height="73.16" style="fill:#b0c2e4;"/><rect x="888.18" y="432.18" width="20.91" height=".29" style="fill:#bfd6da;"/><rect x="888.18" y="428.64" width="20.91" height="3.53" style="fill:#eff8f7;"/><path d="M909.09,428.64h-20.91v-4.04h20.91v4.04h0Zm0-77.2h-20.91v-17.03h20.91v17.03Z" style="fill:#fff; fill-rule:evenodd;"/><rect x="888.18" y="351.44" width="20.91" height="73.16" style="fill:#b0c2e4;"/><rect x="912.77" y="279.91" width="4.04" height=".43" style="fill:#b0c2e4;"/><rect x="912.77" y="280.34" width="4.04" height="23.43" style="fill:#fff;"/><rect x="888.76" y="279.91" width="20.91" height=".43" style="fill:#bfd6da;"/><rect x="888.76" y="280.34" width="20.91" height="23.43" style="fill:#fff;"/><path d="M997.7,300.24c0,1.93-1.21,3.53-2.67,3.53h-46c-1.48,0-2.67-1.6-2.67-3.53v-16.37c0-1.93,1.19-3.53,2.67-3.53h46c1.46,0,2.67,1.6,2.67,3.53v16.37Z" style="fill:#fff; fill-rule:evenodd;"/><rect x="958.73" y="276.99" width="24.96" height="2.92" style="fill:#c4d1eb;"/><path d="M998.42,327.74l-5.84-9.26c-.58-.88-1.05-2.13-1.35-3.37h-.4v-11.34h-38.99v11.34h-.4c-.32,1.21-.81,2.47-1.37,3.35l-6.06,9.32c-.97,1.51-1.77,4.42-1.77,6.45v94.27c0,2.02,1.19,3.68,2.65,3.68h52.61c1.44,0,2.63-1.66,2.63-3.68v-94.27c0-2.04-.76-4.97-1.73-6.49Z" style="fill:#fff; fill-rule:evenodd;"/><path d="M944.91,428.64v-94.41c0-1.19,.56-3.28,1.14-4.15l6.06-9.34c.36-.58,.76-1.3,1.08-2.11h1.33v-11.34h33.67v11.34h1.33c.29,.81,.67,1.53,1.03,2.11l5.82,9.26c.58,.9,1.15,3.03,1.15,4.22v94.41h-52.61Z" style="fill:#e0e8f5; fill-rule:evenodd;"/><rect x="946.37" y="351.44" width="48.56" height="73.16" style="fill:#c4d1eb;"/><rect x="983.28" y="432.18" width="4.04" height=".29" style="fill:#bfd6da;"/><rect x="983.28" y="428.64" width="4.04" height="3.53" style="fill:#eff8f7;"/><path d="M987.32,428.64h-4.04v-4.04h4.04v4.04h0Zm0-77.2h-4.04v-17.03h4.04v17.03Z" style="fill:#fff; fill-rule:evenodd;"/><rect x="983.28" y="351.44" width="4.04" height="73.16" style="fill:#b0c2e4;"/><rect x="956.6" y="432.18" width="20.93" height=".29" style="fill:#bfd6da;"/><rect x="956.6" y="428.64" width="20.93" height="3.53" style="fill:#eff8f7;"/><path d="M977.53,428.64h-20.93v-4.04h20.93v4.04h0Zm0-77.2h-20.93v-17.03h20.93v17.03Z" style="fill:#fff; fill-rule:evenodd;"/><rect x="956.6" y="351.44" width="20.93" height="73.16" style="fill:#b0c2e4;"/><rect x="981.21" y="279.91" width="4.02" height=".43" style="fill:#bfd6da;"/><rect x="981.21" y="280.34" width="4.02" height="23.43" style="fill:#fff;"/><rect x="957.18" y="279.91" width="20.91" height=".43" style="fill:#b0c2e4;"/><rect x="957.18" y="280.34" width="20.91" height="23.43" style="fill:#fff;"/><path d="M856.46,797.27s-.04-1.33-.04-3.17h-68.71v3.17s-1.26,1.79-2.74,4c-1.5,2.16-2.72,6.49-2.72,9.59v94.32c0,3.08,2.43,5.61,5.43,5.61h68.78c2.99,0,5.43-2.52,5.43-5.61v-94.32c0-3.1-1.21-7.43-2.7-9.59-1.5-2.22-2.72-4-2.72-4Z" style="fill:#fff; fill-rule:evenodd;"/><rect x="793.67" y="777.95" width="56.81" height="9.66" style="fill:#9db2d9;"/><path d="M852.93,778.8c1.55-1.64,1.59-8.94,1.59-8.94-.43-3.41-3.24-6.2-6.22-6.2h-52.45c-2.97,0-5.77,2.79-6.2,6.2,0,0,.04,7.3,1.57,8.94,.5,.5,61.23,.5,61.71,0Z" style="fill:#c4d1eb; fill-rule:evenodd;"/><path d="M787.21,789.63v4.47h69.72v-4.47c0-2.67-2.49-4.83-5.52-4.83h-58.7c-3.01,0-5.5,2.16-5.5,4.83Z" style="fill:#c4d1eb; fill-rule:evenodd;"/><rect x="782.26" y="824.24" width="79.63" height="74.13" style="fill:#c4d1eb;"/><path d="M850.48,780.1h-56.81v-.92h56.81v.92Z" style="fill:#9db2d9; fill-rule:evenodd;"/><path d="M856.43,796.57h0v0h0Zm-68.71-.85v0Z" style="fill:#8eb3bc; fill-rule:evenodd;"/><path d="M856.43,796.57h-68.71v-2.47h68.71v2.47Z" style="fill:#9db2d9; fill-rule:evenodd;"/><polygon points="843.66 793.15 837.18 793.15 837.18 792.8 841.54 792.8 841.54 785.52 837.18 785.52 843.66 785.52 843.66 793.15" style="fill:#fff; fill-rule:evenodd;"/><polygon points="832.22 793.15 798.68 793.15 798.68 792.8 830.22 792.8 830.22 785.52 798.68 785.52 832.22 785.52 832.22 793.15" style="fill:#fff; fill-rule:evenodd;"/><rect x="842.11" y="765.15" width="1.55" height="12.62" style="fill:#fff;"/><rect x="830.8" y="765.15" width="1.42" height="12.62" style="fill:#fff;"/><polygon points="849.09 793.15 845.86 793.15 845.86 792.8 847.16 792.8 847.16 785.52 845.86 785.52 849.09 785.52 849.09 793.15" style="fill:#fff; fill-rule:evenodd;"/><rect x="847.74" y="765.52" width=".54" height="12.26" style="fill:#fff;"/><rect x="833.28" y="910.79" width="6.42" height=".2" style="fill:#aac6cc;"/><path d="M839.7,910.79h-6.42v-12.42h6.42v12.42h0Zm0-86.55h-6.42v-18.75h6.42v18.75Z" style="fill:#d3e3f4; fill-rule:evenodd;"/><rect x="833.28" y="824.24" width="6.42" height="74.13" style="fill:#b0c2e4;"/><rect x="795.18" y="910.79" width="33.2" height=".2" style="fill:#aac6cc;"/><path d="M828.38,910.79h-33.2v-12.42h33.2v12.42h0Zm0-86.55h-33.2v-18.75h33.2v18.75Z" style="fill:#d3e3f4; fill-rule:evenodd;"/><rect x="795.18" y="824.24" width="33.2" height="74.13" style="fill:#b0c2e4;"/><rect x="842.1" y="910.79" width="3.21" height=".2" style="fill:#a2c1c9;"/><path d="M845.3,910.79h-3.21v-12.42h3.21v12.42h0Zm0-86.55h-3.21v-18.75h3.21v18.75Z" style="fill:#d3e3f4; fill-rule:evenodd;"/><rect x="842.1" y="824.24" width="3.21" height="74.13" style="fill:#b0c2e4;"/><rect x="835.14" y="785.52" width="2.04" height="7.28" style="fill:#fff;"/><rect x="837.18" y="785.52" width="4.36" height="7.28" style="fill:#fff;"/><rect x="797.02" y="785.52" width="1.66" height="7.28" style="fill:#fff;"/><rect x="798.68" y="785.52" width="31.54" height="7.28" style="fill:#fff;"/><rect x="843.95" y="785.52" width="1.91" height="7.28" style="fill:#fff;"/><rect x="845.86" y="785.52" width="1.3" height="7.28" style="fill:#fff;"/><polygon points="842.11 778.69 835.72 778.69 835.72 764.9 842.11 764.9 842.11 765.15 837.18 765.15 837.18 777.77 842.11 777.77 842.11 778.69" style="fill:#fff; fill-rule:evenodd;"/><rect x="837.18" y="765.15" width="4.94" height="12.62" style="fill:#fff;"/><polygon points="830.8 778.69 797.59 778.69 797.59 764.9 830.8 764.9 830.8 765.15 798.68 765.15 798.68 777.77 830.8 777.77 830.8 778.69" style="fill:#fff; fill-rule:evenodd;"/><rect x="798.68" y="765.15" width="32.12" height="12.62" style="fill:#fff;"/><polygon points="847.74 778.69 844.53 778.69 844.53 764.9 847.74 764.9 847.74 765.52 845.05 765.52 845.05 777.77 847.74 777.77 847.74 778.69" style="fill:#fff; fill-rule:evenodd;"/><rect x="845.05" y="765.52" width="2.69" height="12.26" style="fill:#fff;"/><path d="M949.07,797.27s-.04-1.33-.04-3.17h-68.67c-.04,1.84-.04,3.17-.04,3.17-.04,0-1.24,1.79-2.74,4-1.48,2.16-2.7,6.49-2.7,9.59v94.32c0,3.08,2.45,5.61,5.41,5.61h68.82c2.96,0,5.39-2.52,5.39-5.61v-94.32c0-3.1-1.21-7.43-2.69-9.59-1.51-2.22-2.74-4-2.74-4Z" style="fill:#fff; fill-rule:evenodd;"/><rect x="886.31" y="777.95" width="56.78" height="9.66" style="fill:#9db2d9;"/><path d="M945.54,778.8c1.55-1.64,1.59-8.94,1.59-8.94-.43-3.41-3.23-6.2-6.2-6.2h-52.47c-2.97,0-5.75,2.79-6.2,6.2,0,0,.05,7.3,1.57,8.94,.49,.5,61.23,.5,61.71,0Z" style="fill:#c4d1eb; fill-rule:evenodd;"/><path d="M879.86,789.63c0,2.02-.04,3.75-.04,4.47h69.72v-4.47c0-2.67-2.49-4.83-5.5-4.83h-58.71c-3.03,0-5.48,2.16-5.48,4.83Z" style="fill:#c4d1eb; fill-rule:evenodd;"/><rect x="874.88" y="824.24" width="79.61" height="74.13" style="fill:#c4d1eb;"/><path d="M943.09,780.1h-56.78v-.92h56.78v.92Z" style="fill:#9db2d9; fill-rule:evenodd;"/><path d="M949.03,796.57h0v0h0Zm-68.71-.85c0-.47,0-1.01,.04-1.62-.04,.61-.04,1.15-.04,1.62Z" style="fill:#8eb3bc; fill-rule:evenodd;"/><path d="M949.03,796.57h-68.71v-.85c0-.47,0-1.01,.04-1.62h68.67v2.47Z" style="fill:#9db2d9; fill-rule:evenodd;"/><polygon points="936.27 793.15 929.78 793.15 929.78 792.8 934.15 792.8 934.15 785.52 929.78 785.52 936.27 785.52 936.27 793.15" style="fill:#fff; fill-rule:evenodd;"/><polygon points="924.83 793.15 891.28 793.15 891.28 792.8 922.83 792.8 922.83 785.52 891.28 785.52 924.83 785.52 924.83 793.15" style="fill:#fff; fill-rule:evenodd;"/><rect x="934.72" y="765.15" width="1.55" height="12.62" style="fill:#fff;"/><rect x="923.4" y="765.15" width="1.42" height="12.62" style="fill:#fff;"/><polygon points="941.7 793.15 938.47 793.15 938.47 792.8 939.77 792.8 939.77 785.52 938.47 785.52 941.7 785.52 941.7 793.15" style="fill:#fff; fill-rule:evenodd;"/><rect x="940.33" y="765.52" width=".58" height="12.26" style="fill:#fff;"/><rect x="925.93" y="910.79" width="6.38" height=".2" style="fill:#aac6cc;"/><path d="M932.31,910.79h-6.38v-12.42h6.38v12.42h0Zm0-86.55h-6.38v-18.75h6.38v18.75Z" style="fill:#d3e3f4; fill-rule:evenodd;"/><rect x="925.93" y="824.24" width="6.38" height="74.13" style="fill:#b0c2e4;"/><rect x="887.79" y="910.79" width="33.22" height=".2" style="fill:#aac6cc;"/><path d="M921.01,910.79h-33.22v-12.42h33.22v12.42h0Zm0-86.55h-33.22v-18.75h33.22v18.75Z" style="fill:#d3e3f4; fill-rule:evenodd;"/><rect x="887.79" y="824.24" width="33.22" height="74.13" style="fill:#b0c2e4;"/><rect x="934.72" y="910.79" width="3.19" height=".2" style="fill:#a2c1c9;"/><path d="M937.91,910.79h-3.19v-12.42h3.19v12.42h0Zm0-86.55h-3.19v-18.75h3.19v18.75Z" style="fill:#d3e3f4; fill-rule:evenodd;"/><rect x="934.72" y="824.24" width="3.19" height="74.13" style="fill:#b0c2e4;"/><rect x="927.77" y="785.52" width="2.02" height="7.28" style="fill:#fff;"/><rect x="929.78" y="785.52" width="4.36" height="7.28" style="fill:#fff;"/><rect x="889.63" y="785.52" width="1.66" height="7.28" style="fill:#fff;"/><rect x="891.28" y="785.52" width="31.54" height="7.28" style="fill:#fff;"/><rect x="936.56" y="785.52" width="1.91" height="7.28" style="fill:#fff;"/><rect x="938.47" y="785.52" width="1.3" height="7.28" style="fill:#fff;"/><polygon points="934.72 778.69 928.32 778.69 928.32 764.9 934.72 764.9 934.72 765.15 929.78 765.15 929.78 777.77 934.72 777.77 934.72 778.69" style="fill:#fff; fill-rule:evenodd;"/><rect x="929.78" y="765.15" width="4.94" height="12.62" style="fill:#fff;"/><polygon points="923.4 778.69 890.2 778.69 890.2 764.9 923.4 764.9 923.4 765.15 891.28 765.15 891.28 777.77 923.4 777.77 923.4 778.69" style="fill:#fff; fill-rule:evenodd;"/><rect x="891.28" y="765.15" width="32.12" height="12.62" style="fill:#fff;"/><polygon points="940.33 778.69 937.14 778.69 937.14 764.9 940.33 764.9 940.33 765.52 937.66 765.52 937.66 777.77 940.33 777.77 940.33 778.69" style="fill:#fff; fill-rule:evenodd;"/><rect x="937.66" y="765.52" width="2.67" height="12.26" style="fill:#fff;"/><path d="M1041.68,797.27s-.04-1.33-.04-3.17h-68.67c0,1.84-.04,3.17-.04,3.17,0,0-1.26,1.79-2.74,4-1.48,2.16-2.7,6.49-2.7,9.59v94.32c0,3.08,2.43,5.61,5.41,5.61h68.82c2.96,0,5.41-2.52,5.41-5.61v-94.32c0-3.1-1.23-7.43-2.7-9.59-1.5-2.22-2.74-4-2.74-4Z" style="fill:#fff; fill-rule:evenodd;"/><rect x="978.92" y="777.95" width="56.78" height="9.66" style="fill:#9db2d9;"/><path d="M1038.15,778.8c1.55-1.64,1.59-8.94,1.59-8.94-.43-3.41-3.23-6.2-6.2-6.2h-52.45c-2.99,0-5.77,2.79-6.2,6.2,0,0,.04,7.3,1.57,8.94,.49,.5,61.23,.5,61.7,0Z" style="fill:#c4d1eb; fill-rule:evenodd;"/><path d="M972.47,789.63c0,2.02,0,3.75-.04,4.47h69.75c-.04-.72-.04-2.45-.04-4.47,0-2.67-2.47-4.83-5.5-4.83h-58.71c-3.03,0-5.48,2.16-5.48,4.83Z" style="fill:#c4d1eb; fill-rule:evenodd;"/><rect x="967.49" y="824.24" width="79.63" height="74.13" style="fill:#c4d1eb;"/><path d="M1035.7,780.1h-56.78v-.92h56.78v.92Z" style="fill:#9db2d9; fill-rule:evenodd;"/><path d="M1041.68,796.57h0c-.04-.58-.04-1.44-.04-2.47,0,1.04,0,1.89,.04,2.47h0Zm-68.71-.85v0Z" style="fill:#8eb3bc; fill-rule:evenodd;"/><path d="M1041.68,796.57h-68.74c0-.25,0-.52,.04-.85v-1.62h68.67c0,1.03,0,1.89,.04,2.47Z" style="fill:#9db2d9; fill-rule:evenodd;"/><polygon points="1028.88 793.15 1022.39 793.15 1022.39 792.8 1026.77 792.8 1026.77 785.52 1022.39 785.52 1028.88 785.52 1028.88 793.15" style="fill:#fff; fill-rule:evenodd;"/><polygon points="1017.45 793.15 983.91 793.15 983.91 792.8 1015.47 792.8 1015.47 785.52 983.91 785.52 1017.45 785.52 1017.45 793.15" style="fill:#fff; fill-rule:evenodd;"/><rect x="1027.35" y="765.15" width="1.53" height="12.62" style="fill:#fff;"/><rect x="1016.03" y="765.15" width="1.42" height="12.62" style="fill:#fff;"/><polygon points="1034.32 793.15 1031.08 793.15 1031.08 792.8 1032.38 792.8 1032.38 785.52 1031.08 785.52 1034.32 785.52 1034.32 793.15" style="fill:#fff; fill-rule:evenodd;"/><rect x="1032.94" y="765.52" width=".58" height="12.26" style="fill:#fff;"/><rect x="1018.54" y="910.79" width="6.42" height=".2" style="fill:#aac6cc;"/><path d="M1024.95,910.79h-6.42v-12.42h6.42v12.42h0Zm0-86.55h-6.42v-18.75h6.42v18.75Z" style="fill:#d3e3f4; fill-rule:evenodd;"/><rect x="1018.54" y="824.24" width="6.42" height="74.13" style="fill:#b0c2e4;"/><rect x="980.4" y="910.79" width="33.22" height=".2" style="fill:#aac6cc;"/><path d="M1013.61,910.79h-33.22v-12.42h33.22v12.42h0Zm0-86.55h-33.22v-18.75h33.22v18.75Z" style="fill:#d3e3f4; fill-rule:evenodd;"/><rect x="980.4" y="824.24" width="33.22" height="74.13" style="fill:#b0c2e4;"/><rect x="1027.33" y="910.79" width="3.21" height=".2" style="fill:#a2c1c9;"/><path d="M1030.54,910.79h-3.21v-12.42h3.21v12.42h0Zm0-86.55h-3.21v-18.75h3.21v18.75Z" style="fill:#d3e3f4; fill-rule:evenodd;"/><rect x="1027.33" y="824.24" width="3.21" height="74.13" style="fill:#b0c2e4;"/><rect x="1020.37" y="785.52" width="2.02" height="7.28" style="fill:#fff;"/><rect x="1022.39" y="785.52" width="4.38" height="7.28" style="fill:#fff;"/><rect x="982.27" y="785.52" width="1.64" height="7.28" style="fill:#fff;"/><rect x="983.91" y="785.52" width="31.56" height="7.28" style="fill:#fff;"/><rect x="1029.17" y="785.52" width="1.91" height="7.28" style="fill:#fff;"/><rect x="1031.08" y="785.52" width="1.3" height="7.28" style="fill:#fff;"/><polygon points="1027.35 778.69 1020.95 778.69 1020.95 764.9 1027.35 764.9 1027.35 765.15 1022.39 765.15 1022.39 777.77 1027.35 777.77 1027.35 778.69" style="fill:#fff; fill-rule:evenodd;"/><rect x="1022.39" y="765.15" width="4.96" height="12.62" style="fill:#fff;"/><polygon points="1016.03 778.69 982.81 778.69 982.81 764.9 1016.03 764.9 1016.03 765.15 983.91 765.15 983.91 777.77 1016.03 777.77 1016.03 778.69" style="fill:#fff; fill-rule:evenodd;"/><rect x="983.91" y="765.15" width="32.12" height="12.62" style="fill:#fff;"/><polygon points="1032.94 778.69 1029.75 778.69 1029.75 764.9 1032.94 764.9 1032.94 765.52 1030.29 765.52 1030.29 777.77 1032.94 777.77 1032.94 778.69" style="fill:#f6f8f9; fill-rule:evenodd;"/><rect x="1030.29" y="765.52" width="2.65" height="12.26" style="fill:#fff;"/><path d="M604.05,317.69c-1.3-.76-2.36-2.67-2.36-4.25v-4.13c0-1.57-1.21-2.87-2.7-2.87h-24.57c-1.48,0-2.7,1.3-2.7,2.87v4.13c0,1.59-1.05,3.5-2.36,4.25l-5.03,2.92c-1.3,.78-2.36,2.67-2.36,4.25v104.47c0,1.57,1.21,2.85,2.7,2.85h44.07c1.48,0,2.7-1.28,2.7-2.85v-104.47c0-1.59-1.08-3.48-2.36-4.25l-5.03-2.92Z" style="fill:#fff; fill-rule:evenodd;"/><rect x="564.61" y="343.53" width="44.21" height="41.47" style="fill:#fff;"/><path d="M602.41,431.35h-5.17v-46.34h5.17v46.34h0Zm0-87.81h-5.17v-20.48h5.17v20.48Z" style="fill:#c4d1eb; fill-rule:evenodd;"/><rect x="597.24" y="343.53" width="5.17" height="41.47" style="fill:#b0c2e4;"/><path d="M593.27,431.35h-26.78v-46.34h26.78v46.34h0Zm0-87.81h-26.78v-20.48h26.78v20.48Z" style="fill:#c4d1eb; fill-rule:evenodd;"/><rect x="566.49" y="343.53" width="26.78" height="41.47" style="fill:#b0c2e4;"/><path d="M606.93,431.35h-2.6v-46.34h2.6v46.34h0Zm0-87.81h-2.6v-20.48h2.6v20.48Z" style="fill:#c4d1eb; fill-rule:evenodd;"/><rect x="604.34" y="343.53" width="2.6" height="41.47" style="fill:#b0c2e4;"/><rect x="566.92" y="300.35" width="39.58" height="8.09" style="fill:#fff;"/><path d="M601.69,310.62v-1.32c0-.16-.02-.32-.05-.49,.02,.09,.05,.16,.05,.23v1.57h0Zm-29.97-1.32v-.25c0-.07,.02-.14,.04-.22-.02,.14-.04,.31-.04,.47Z" style="fill:#8aaeb7; fill-rule:evenodd;"/><path d="M601.69,310.62h-29.97v-1.32c0-.16,.02-.32,.04-.47,.04-.11,.09-.2,.13-.29h29.65c.05,.09,.09,.18,.11,.27,.04,.16,.05,.32,.05,.49v1.32Z" style="fill:#c4d1eb; fill-rule:evenodd;"/><path d="M661.8,317.69c-1.32-.76-2.38-2.67-2.38-4.25v-4.13c0-1.57-1.21-2.87-2.7-2.87h-24.55c-1.48,0-2.7,1.3-2.7,2.87v4.13c0,1.59-1.06,3.5-2.34,4.25l-5.05,2.92c-1.3,.78-2.34,2.67-2.34,4.25v104.47c0,1.57,1.21,2.85,2.7,2.85h44.05c1.5,0,2.7-1.28,2.7-2.85v-104.47c0-1.59-1.06-3.48-2.38-4.25l-5.01-2.92Z" style="fill:#fff; fill-rule:evenodd;"/><rect x="622.35" y="343.53" width="44.21" height="41.47" style="fill:#fff;"/><path d="M660.14,431.35h-5.16v-46.34h5.16v46.34h0Zm0-87.81h-5.16v-20.48h5.16v20.48Z" style="fill:#c4d1eb; fill-rule:evenodd;"/><rect x="654.99" y="343.53" width="5.16" height="41.47" style="fill:#b0c2e4;"/><path d="M651.02,431.35h-26.78v-46.34h26.78v46.34h0Zm0-87.81h-26.78v-20.48h26.78v20.48Z" style="fill:#c4d1eb; fill-rule:evenodd;"/><rect x="624.24" y="343.53" width="26.78" height="41.47" style="fill:#b0c2e4;"/><path d="M664.67,431.35h-2.58v-46.34h2.58v46.34h0Zm0-87.81h-2.58v-20.48h2.58v20.48Z" style="fill:#c4d1eb; fill-rule:evenodd;"/><rect x="662.09" y="343.53" width="2.58" height="41.47" style="fill:#b0c2e4;"/><rect x="624.65" y="300.35" width="39.58" height="8.09" style="fill:#fff;"/><path d="M659.42,310.62v-1.32c0-.16,0-.32-.04-.49,.04,.09,.04,.16,.04,.23v1.57h0Zm-29.96-1.32v-.25c0-.07,.04-.14,.04-.22,0,.14-.04,.31-.04,.47Z" style="fill:#8aaeb7; fill-rule:evenodd;"/><path d="M659.42,310.62h-29.96v-1.32c0-.16,.04-.32,.04-.47,.04-.11,.07-.2,.11-.29h29.67c.04,.09,.07,.18,.11,.27,.04,.16,.04,.32,.04,.49v1.32Z" style="fill:#c4d1eb; fill-rule:evenodd;"/><path d="M719.53,317.69c-1.28-.76-2.36-2.67-2.36-4.25v-4.13c0-1.57-1.23-2.87-2.7-2.87h-24.53c-1.5,0-2.72,1.3-2.72,2.87v4.13c0,1.59-1.05,3.5-2.36,4.25l-5.03,2.92c-1.3,.78-2.36,2.67-2.36,4.25v104.47c0,1.57,1.21,2.85,2.7,2.85h44.07c1.48,0,2.7-1.28,2.7-2.85v-104.47c0-1.59-1.08-3.48-2.38-4.25l-5.03-2.92Z" style="fill:#fff; fill-rule:evenodd;"/><rect x="680.08" y="343.53" width="44.25" height="41.47" style="fill:#fff;"/><path d="M717.89,431.35h-5.15v-46.34h5.15v46.34h0Zm0-87.81h-5.15v-20.48h5.15v20.48Z" style="fill:#c4d1eb; fill-rule:evenodd;"/><rect x="712.74" y="343.53" width="5.15" height="41.47" style="fill:#b0c2e4;"/><path d="M708.77,431.35h-26.78v-46.34h26.78v46.34h0Zm0-87.81h-26.78v-20.48h26.78v20.48Z" style="fill:#c4d1eb; fill-rule:evenodd;"/><rect x="681.99" y="343.53" width="26.78" height="41.47" style="fill:#b0c2e4;"/><path d="M722.4,431.35h-2.58v-46.34h2.58v46.34h0Zm0-87.81h-2.58v-20.48h2.58v20.48Z" style="fill:#c4d1eb; fill-rule:evenodd;"/><rect x="719.82" y="343.53" width="2.58" height="41.47" style="fill:#b0c2e4;"/><rect x="682.42" y="300.35" width="39.55" height="8.09" style="fill:#fff;"/><path d="M717.17,310.62v-1.32c0-.16,0-.32-.04-.49,.02,.09,.04,.16,.04,.23v1.57h0Zm-29.96-1.32v-.25c0-.07,.02-.14,.04-.22-.02,.14-.04,.31-.04,.47Z" style="fill:#8aaeb7; fill-rule:evenodd;"/><path d="M717.17,310.62h-29.96v-1.32c0-.16,.02-.32,.04-.47,.04-.11,.07-.2,.13-.29h29.65c.04,.09,.09,.18,.11,.27,.04,.16,.04,.32,.04,.49v1.32Z" style="fill:#c4d1eb; fill-rule:evenodd;"/><path d="M777.3,317.69c-1.32-.76-2.38-2.67-2.38-4.25v-4.13c0-1.57-1.21-2.87-2.7-2.87h-24.55c-1.48,0-2.7,1.3-2.7,2.87v4.13c0,1.59-1.06,3.5-2.36,4.25l-5.03,2.92c-1.3,.78-2.38,2.67-2.38,4.25v104.47c0,1.57,1.23,2.85,2.7,2.85h44.09c1.48,0,2.7-1.28,2.7-2.85v-104.47c0-1.59-1.08-3.48-2.38-4.25l-5.01-2.92Z" style="fill:#fff; fill-rule:evenodd;"/><rect x="737.83" y="343.53" width="44.23" height="41.47" style="fill:#fff;"/><path d="M775.64,431.35h-5.16v-46.34h5.16v46.34h0Zm0-87.81h-5.16v-20.48h5.16v20.48Z" style="fill:#c4d1eb; fill-rule:evenodd;"/><rect x="770.49" y="343.53" width="5.16" height="41.47" style="fill:#b0c2e4;"/><path d="M766.52,431.35h-26.78v-46.34h26.78v46.34h0Zm0-87.81h-26.78v-20.48h26.78v20.48Z" style="fill:#c4d1eb; fill-rule:evenodd;"/><rect x="739.74" y="343.53" width="26.78" height="41.47" style="fill:#b0c2e4;"/><path d="M780.17,431.35h-2.58v-46.34h2.58v46.34h0Zm0-87.81h-2.58v-20.48h2.58v20.48Z" style="fill:#c4d1eb; fill-rule:evenodd;"/><rect x="777.59" y="343.53" width="2.58" height="41.47" style="fill:#b0c2e4;"/><rect x="740.15" y="300.35" width="39.58" height="8.09" style="fill:#fff;"/><path d="M774.92,310.62v-1.32c0-.16,0-.32-.04-.49,.04,.09,.04,.16,.04,.23v1.57h0Zm-29.96-1.32v-.25c0-.07,.04-.14,.04-.22,0,.14-.04,.31-.04,.47Z" style="fill:#8aaeb7; fill-rule:evenodd;"/><path d="M774.92,310.62h-29.96v-1.32c0-.16,.04-.32,.04-.47,.04-.11,.07-.2,.11-.29h29.67c.04,.09,.07,.18,.11,.27,.04,.16,.04,.32,.04,.49v1.32Z" style="fill:#c4d1eb; fill-rule:evenodd;"/><path d="M534.19,432.18h549.45v26.1H534.19v-26.1h0Zm0,478.62h549.45v26.08H534.19v-26.08h0Zm0-244.34h549.45v26.1H534.19v-26.1Z" style="fill:#b0c2e4; fill-rule:evenodd;"/><rect x="686.85" y="1000.23" width="244.1" height="105.41" style="fill:#b0c2e4;"/><path d="M728.27,1024.15h22.64c4.51,0,7.86,.18,10.02,.54,2.24,.38,4.18,1.13,5.93,2.33,1.75,1.19,3.19,2.76,4.34,4.72,1.17,1.95,1.75,4.16,1.75,6.6,0,2.67-.72,5.06-2.15,7.28-1.42,2.24-3.35,3.84-5.8,4.96,3.46,1.03,6.09,2.76,7.95,5.15,1.86,2.43,2.76,5.28,2.76,8.54,0,2.58-.58,5.08-1.8,7.52-1.19,2.45-2.81,4.38-4.9,5.84-2.07,1.48-4.61,2.38-7.68,2.7-1.89,.22-6.49,.36-13.77,.4h-19.29v-56.58h0Zm11.48,9.39v13.05h7.48c4.43,0,7.21-.07,8.29-.22,1.95-.22,3.48-.9,4.61-2,1.12-1.12,1.66-2.59,1.66-4.42s-.47-3.15-1.44-4.27c-.96-1.06-2.38-1.71-4.29-1.93-1.12-.14-4.4-.22-9.75-.22h-6.56Zm0,22.44v15.16h10.6c4.09,0,6.72-.11,7.84-.31,1.69-.32,3.06-1.08,4.13-2.27,1.08-1.21,1.62-2.83,1.62-4.83,0-1.73-.41-3.15-1.24-4.34-.83-1.19-2.02-2.04-3.59-2.58-1.53-.54-4.92-.83-10.11-.83h-9.25Zm45.62-31.83h11.46v30.64c0,4.88,.14,8.04,.4,9.48,.5,2.29,1.66,4.18,3.46,5.55,1.84,1.42,4.33,2.11,7.5,2.11s5.62-.65,7.25-1.96c1.62-1.33,2.6-2.97,2.94-4.88,.34-1.93,.5-5.15,.5-9.64v-31.29h11.48v29.76c0,6.78-.32,11.57-.94,14.4-.63,2.79-1.77,5.17-3.42,7.1-1.62,1.95-3.86,3.44-6.61,4.63-2.78,1.14-6.4,1.71-10.87,1.71-5.37,0-9.46-.65-12.24-1.86-2.78-1.3-4.96-2.9-6.6-4.92-1.64-1.96-2.67-4.04-3.19-6.27-.76-3.23-1.12-8.02-1.12-14.33v-30.23h0Zm71.95,56.58v-23.81l-20.76-32.77h13.37l13.41,22.4,13.01-22.4h13.16l-20.75,32.84v23.74h-11.45Z" style="fill:#fff; fill-rule:evenodd;"/><circle cx="1378.33" cy="286.68" r="201.94" transform="translate(200.99 1058.6) rotate(-45)" style="fill:#b0c2e4;"/><path d="M1347.26,150.2h62.15c3.64,0,6.65,2.99,6.65,6.67v92.09h92.1c3.66,0,6.65,2.99,6.65,6.65v62.15c0,3.66-2.99,6.65-6.65,6.65h-92.1v92.1c0,3.66-3.01,6.67-6.65,6.67h-62.15c-3.66,0-6.67-3.01-6.67-6.67v-92.1h-92.1c-3.64,0-6.63-2.99-6.63-6.65v-62.15c0-3.66,2.99-6.65,6.63-6.65h92.1v-92.09c0-3.68,3.01-6.67,6.67-6.67Z" style="fill:#fff; fill-rule:evenodd;"/><path d="M1655.31,688.95c-7.19,6.31-15.12,8.9-24.35,6.96,8.65,6.6,20.66,1.55,24.35-6.96Z" style="fill:#f48661; fill-rule:evenodd;"/><path d="M1622.74,1315.87c1.37-9.75-1.69-26.57-9.32-52.85,15.12,.04,27.85-6.67,43.31-6.42,4.25,24.71,10.78,65.28,10.78,65.28l.72,32.1-107.77,.81s.92,.47,32.68-19.61c2.34-1.5,28.3-9.9,29.6-19.32Z" style="fill:#f9af79; fill-rule:evenodd;"/><path d="M1668.74,1362.19h-111.21c-4.13-.36-5.16-3.69-3.71-5.77,2.94-4.27,24.66-14.49,39.24-21.27,25.58,2.7,70.57-7.84,74.6-13.77,6.99,19.63,3.39,40.34,1.08,40.81Z" style="fill:#0e2952; fill-rule:evenodd;"/><path d="M1756.99,1315.87c1.37-9.75,3.68-22.01,.27-54.56,15.16,.04,29.56-2.79,45.04-2.58,0,25.45-.54,63.16-.54,63.16l.69,32.1-107.75,.81s.92,.47,32.66-19.61c2.38-1.5,28.33-9.9,29.63-19.32Z" style="fill:#f9af79; fill-rule:evenodd;"/><path d="M1802.99,1362.19h-111.26c-4.09-.36-5.1-3.69-3.66-5.77,2.92-4.27,24.62-14.49,39.22-21.27,25.59,2.7,70.53-7.84,74.55-13.77,7.07,19.63,3.42,40.34,1.15,40.81Z" style="fill:#0e2952; fill-rule:evenodd;"/><path d="M1678.67,385.35l-40.54-42.72s-43.37,23.83-93.94,46.65c-13.91-24.21-36.61-103.84-37.82-107.62-1.23-3.8,26.57-51.6,20.35-52.81-6.22-1.2-14.29,25.54-20.89,22.82-6.56-2.72-23.47-64.73-27.42-61.34-7.41,6.33,8.9,38.57,4.99,40.92-3.89,2.33-13.81-35.74-21.32-34.13-7.55,1.61,12.71,34.67,10.51,37.86-2.23,3.17-23.43-27.82-27.81-20.64-2.36,3.88,19.54,26.98,15.05,29.58-4.51,2.59-24.26-11.98-26.6-7.25-2.38,4.71,18.42,9.62,24.19,21.56,5.77,11.91,16.26,16.56,19.74,39.13,3.48,22.53,13,143.06,37.56,152.74,21.47,8.47,163.95-64.74,163.95-64.74Z" style="fill:#f9af79; fill-rule:evenodd;"/><path d="M1652.48,616.02l32.86,18.33,66.82,102.14-119.46,281.23s13.46,42.3,17.84,63.41c4.58,22.13,15.83,211.86,15.83,211.86l-50.97,.87s-48.41-202-56.63-267.53c-9.91-79.63,50.7-269.25,50.7-269.25,11.3-38.68,35.65-118.28,35.65-118.28,0,0,5.97-19.39,7.37-22.78Z" style="fill:#20386f; fill-rule:evenodd;"/><path d="M1766.9,577.67s-3.42,23.99,10.18,51.41c8.27,16.73,22.62,29.85,32.86,50.29,19.43,38.75,29.94,93.76,22.67,129.12,0,0-40.12,153.17-38.54,209.14,.58,20.64,7.68,57.82,12.18,82.96,4.02,22.22,5.37,189.87,5.37,189.87l-56.92-1.73-43.58-270.43-18.44-240.37-40.21-161.89,114.42-38.36Z" style="fill:#223f81; fill-rule:evenodd;"/><path d="M1646.37,224.73c5.03-23.76,10.2-47.59,33.83-64.72,19.11-13.85,39.62-17.82,61.41-9.93,61.7,22.38,28.53,71.35,105.1,123.52,23.77,16.22,32.8,21.88,49.87,43.51,23.88,30.23,36.97,70.8,24.96,104.22-24.87,69.07-101.84,89.04-142.1,74.39-74.96-27.23-137.4-122.29-141.56-148.25-4.42-27.76,5.21-107.41,8.49-122.74Z" style="fill:#20386f; fill-rule:evenodd;"/><path d="M1634.39,412.24c-18.13,8.38-51.01,20.96-51.01,20.96l-18.67-59.1c105.66-60.09,97.35-50.4,176.6-49.22,63.37,.92,89.94-11.19,144.46,136.07,0,0-41.51,18.65-56.4,24.62-6.4-18.19-17.95-54.49-24.67-33.81-10.18,31.27-17.65,62.83-22.66,95.35-3.17,19.25-10.06,43.91-6.45,63.52,0,0-43.11,8.87-76.06,10.35h-.29c-15.93-.41-32.23-1.84-46.75-4.94,0,0-6.47-136.59-9.9-142.3-3.84-6.29-19.97-26.69-6.25-57.19,2.45-5.39,1.8-6-1.95-4.29Z" style="fill:#6d96ce; fill-rule:evenodd;"/><path d="M1713.69,649.33c-.76,.07-4.11-.36-6.88-.29-3.79,.07-7.14,.65-7.14,.65,0,0-1.48-1.32-4.34-2.61-1.21-.52-3.12-.74-4.45-1.39-1.37-.61-2.52-1.78-3.82-2.34-3.35-1.46-6.45-1.82-7.46-.04-.85,1.46,17.88,12.91,17.88,12.91,17.34,.11,35.44,8.94,75.66-17.27,22.89-10.02,134.32-65.03,136.55-77.04,1.26-6.74-15.86-58.83-29.81-98.38-10.76,4.83-33.67,15.03-46.48,20.39,11.77,24.91,25.65,57.95,24.17,61.97-.36,1.06-1.77,2.97-77.07,52.27-1.91,1.24-3.86,2.51-5.8,3.82-5.33,3.46-10.99,7.16-17.01,11.09l-21.45-2.27s-34.03,2.34-35.08,6.24c-.43,1.78,2.41,2.67,5.88,3.17h.11c.49,.07,1.01,.14,1.53,.18h.05c3.75,.45,7.68,.52,8.65,.87,1.06,.36,3.24,1.23,5.12,2.49-21.23,8.69-19.57,5.59-26.6,5.16-1.8-.14-3.66,.36-5.33,.25-2.81-.25-5.12-1.96-7.32-2.09-3.24-.18-5.84,1.33-6.42,1.91-.78,.79,.65,1.87,3.35,3.1,16.37,7.1,29.96,4.36,34.3,5.43,2.9,.72-2.41,1.82-10.76,.92-2.05-.2-4.79,.54-7.54-.11-1.84-.41-3.5-1.59-5.3-2.02-1.66-.43-3.35-.4-4.76-.65-1.84-.34-4.4-1.77-5.84-1.91-5.46-.61-8.09,.34-8.71,.83-1.24,1.12,23.45,10.6,23.45,10.6,0,0,17.03,2.45,20.84,2.45,0,0,2.29,1.05-2.16,1.73Z" style="fill:#f9af79; fill-rule:evenodd;"/><path d="M1733.52,266.57s4.87,39.04,7.7,52.56c2.97,14.17,7.44,58.81-21.94,66.04-29.38,7.25-20.28-48.56-20.78-62.94-.47-14.44-8.81-64.64-8.81-64.64l43.83,8.98Z" style="fill:#f9af79; fill-rule:evenodd;"/><path d="M1735.12,279.04c-.29,.18-.58,.36-.88,.54-16.22,9.3-30.35,7.86-40.99,.58-1.89-12.44-3.57-22.57-3.57-22.57l43.83,8.98s.67,5.21,1.6,12.47Z" style="fill:#f27458; fill-rule:evenodd;"/><path d="M1724.71,165.01s17.21,4.84,27.14,21.96c9.91,17.08,14.87,66.19-21.68,87.13-36.55,20.94-62.47-12.62-61.35-44.02,1.08-31.41,9.84-72.94,55.89-65.08Z" style="fill:#f9af79; fill-rule:evenodd;"/><path d="M1660.7,216.61c-.4,8.16,3.1,14.99,7.82,15.2,4.72,.24,8.87-6.17,9.26-14.35,.43-8.16-3.06-14.97-7.79-15.2-4.74-.23-8.87,6.21-9.3,14.35Z" style="fill:#f9af79; fill-rule:evenodd;"/><path d="M1719.53,163.74s19.68,51.36,38.99,56.82c19.27,5.47,17.72,30.75,17.72,30.75,0,0,2.49-58.41-15.16-72.73-17.57-14.3-41.55-14.84-41.55-14.84Z" style="fill:#20386f; fill-rule:evenodd;"/><path d="M1750.25,230.62c-2.99,8.03-1.05,16.17,4.36,18.2,5.37,2.01,12.15-2.83,15.1-10.88,2.99-8.01,1.05-16.17-4.36-18.2-5.37-2.01-12.11,2.83-15.1,10.88Z" style="fill:#f9af79; fill-rule:evenodd;"/><path d="M299.21,1376.65c138.25,0,250.99-16.02,250.99-35.67s-112.74-35.69-250.99-35.69-251,16.02-251,35.69,112.76,35.67,251,35.67Z" style="fill:#c4d1eb; fill-rule:evenodd;"/><path d="M237.44,343.88l-6.92,14.56,19.56,21.21,51.53,4.45,24.84-14.26,5.71-11.21-3.1-25.09c-12.09-23.5-68.87-27-91.62,10.33Z" style="fill:#c1c1c6; fill-rule:evenodd;"/><path d="M246.18,333.91c.61-21.88,63.12-30.32,75.47-9.84,1.66,2.78,2.2,6.27,2.7,10.33l-6.81,12.46-26.53,15.72-43.91-11.5-.92-17.16Z" style="fill:#466fb5; fill-rule:evenodd;"/><path d="M322.28,312.17c3.05-6.52,2.78-10.6,.92-16.83-1.04,13.25-9.66,15.18-5.73,28.3-5.75-8-8.31-17.27-8.31-27.36,0-35.44,15.65-18.28,26.24-36.95-1.57,10.85-6.2,15.36-8.63,22.67-1.28,3.88,4.2,19.47-4.49,30.17Z" style="fill:#20386f; fill-rule:evenodd;"/><path d="M244.5,310.69c-3.06-6.52-2.78-10.6-.94-16.83,1.05,13.23,9.68,15.19,5.71,28.3,5.79-8,8.31-17.29,8.31-27.36,0-35.45-15.63-18.28-26.24-36.95,1.57,10.85,6.24,15.39,8.65,22.67,1.3,3.86-4.2,19.47,4.51,30.17Z" style="fill:#20386f; fill-rule:evenodd;"/><path d="M246.18,277.38l1.89-22.46c-3.32-3.28-5.73-5.43-7.43-8.14-4.79-7.44-7.8-9.12-10.71-6.95-1.17,.86-1.59,3.64-.9,7.11,1.21,6.14,5.05,15.2,6.25,20.56,.97,4.27,6.6,19.03,10.89,9.88Z" style="fill:#f9af79; fill-rule:evenodd;"/><path d="M321.5,277.38l-1.87-22.46c3.32-3.28,5.71-5.43,7.46-8.14,4.76-7.44,7.77-9.12,10.69-6.95,1.17,.86,1.57,3.64,.9,7.11-1.23,6.14-5.06,15.2-6.27,20.56-.97,4.27-6.58,19.03-10.9,9.88Z" style="fill:#f9af79; fill-rule:evenodd;"/><path d="M236.74,244.57c-1.44-1.61-3.26-3.26-4.72-2.99-3.37,.66-1.75,6.93,.27,11.2,3.53,7.34,3.55,6.92,4.76,15.36-.07-5.35-.87-9.97-4.02-16.28-1.82-3.63-3.19-8.58-.74-9.25,1.59-.41,4.02,2.74,4.97,4.89l-.52-2.94Z" style="fill:#20386f; fill-rule:evenodd;"/><path d="M327.23,259.83c2.42-6.45,3.39-7.9,3.5-6.92,.11,1.08-.79,5.08-1.86,8.63-.22,.81,.7,2.79,.05,5.17-.61,2.18-2.45,4.85-3.46,2.41-.38-.87-.09-2.38,.38-4.51,.23-1.08,.52-2.54,1.39-4.79Z" style="fill:#20386f; fill-rule:evenodd;"/><path d="M317.95,332.38c4.99,13.21,31.85,54.65,52.65,75.21l-50.47,11.43-85.47-16.19-46.32,8c9.3-15.54,58.47-68.55,62.08-78.46,2.99-8.17,3.1-20.91,1.23-29.29l32.55,.61,32.59-.61c-1.91,8.38-1.87,21.16,1.17,29.29Z" style="fill:#f9af79; fill-rule:evenodd;"/><path d="M243.57,338.47c2.76-1.39,5.82-3.21,6.85-6.09,2.99-8.17,3.1-20.91,1.23-29.29l32.55,.61,32.59-.61c-.11,.32-.36,1.46-.54,2.74-.2,1.15-.32,2.52-.4,2.88-1.41,1.69-2.92,3.41-4.6,4.79-1.78,1.51-3.48,3.03-4.96,4.76-2.56,3.06-4.67,7.71-7.17,9.9-5.23,4.52-13.03,7.1-22.17,9.17-10.99,2.52-25.7,3.53-33.38,1.14Z" style="fill:#ed7d57; fill-rule:evenodd;"/><path d="M284.72,322.62h-.56c-6.78,.07-10.13-.07-13.81-1.62-3.57-1.48-5.3-4.98-10.17-9.7-4.18-4-11.63-8.11-13.45-12.45-2.49-5.97-1.51-12.54-3.06-21.83-1.23-7.39-4.7-13.95-5.12-21.36-.43-7.99,.85-16.04,.58-25.08-.27-8.81-.5-16.13,.56-22.31,1.1-6.24,3.55-11.47,8.67-16.04,2.81-2.48,6.02-4.65,9.48-6.37l.11-.05c.22-.1,.47-.23,.7-.35l.38-.18c.2-.07,.36-.16,.54-.23,.2-.07,.36-.16,.54-.23,.22-.11,.4-.18,.58-.25,.18-.11,.36-.18,.54-.23,.22-.12,.49-.21,.72-.28l.36-.16c.38-.14,.76-.27,1.12-.41h0c9.3-3.37,19.79-4.3,29.78-2.83,9.91,1.47,19.27,5.35,26.24,11.54,5.08,4.57,7.5,9.71,8.58,15.93,1.1,6.18,.88,13.46,.63,22.26-.25,9,1.03,17.03,.63,24.99-.41,7.37-3.86,13.95-5.08,21.3-1.51,9.25-.54,15.81-3.01,21.79-1.82,4.34-9.21,8.53-13.34,12.56-4.88,4.76-6.58,8.26-10.11,9.82-3.57,1.55-6.78,1.75-13.03,1.78Z" style="fill:#f9af79; fill-rule:evenodd;"/><path d="M290.32,171.46h-.32c-2.96,0-6.09,.27-9.37,.83-1.6-.16-3.17-.23-4.65-.23-39.24,0-37.78,49.28-39.24,56.02-.9,4.08-1.93,7.8-2.83,11.27,1.42,.67,2.99,2.19,4.85,4.7,.23-4.3,.5-8.75,.38-13.46-.27-8.81-.5-16.13,.56-22.31,1.1-6.24,3.55-11.47,8.67-16.04,2.81-2.48,6.02-4.65,9.48-6.37l.11-.05c.22-.1,.47-.23,.7-.35l.38-.18c.2-.07,.36-.16,.54-.23,.2-.07,.36-.16,.54-.23,.22-.11,.4-.18,.58-.25,.18-.11,.36-.18,.54-.23,.22-.12,.49-.21,.72-.28l.36-.16c.38-.14,.76-.27,1.12-.41h0c6.45-2.33,13.48-3.5,20.51-3.5,3.1,0,6.2,.22,9.26,.67,9.91,1.47,19.27,5.35,26.24,11.54,5.08,4.57,7.5,9.71,8.58,15.93,1.1,6.18,.88,13.46,.63,22.26-.14,4.74,.16,9.2,.41,13.54,2.52-3.42,4.54-4.93,6.34-4.93,.79,0,1.59,.27,2.36,.87,.09,.09,.22,.2,.32,.34,1.35-30.08-11.19-68.7-47.78-68.72Z" style="fill:#d6d1cd; fill-rule:evenodd;"/><path d="M235.64,268.79c-2.22-3.62-3.44-7.01-3.93-10.4,.5,.88,1.03,1.66,1.57,2.38,.85,2.52,1.6,4.85,2.02,6.74,.09,.36,.2,.79,.34,1.28Z" style="fill:#20386f; fill-rule:evenodd;"/><path d="M237.29,271.22c-.63-.83-1.15-1.62-1.66-2.43-.14-.49-.25-.92-.34-1.28-.41-1.89-1.17-4.22-2.02-6.74-.6-1.78-1.26-3.64-1.86-5.5-.04-1.36,0-2.76,.14-4.17,.25,.59,.49,1.16,.72,1.69,1.32,2.7,2.13,4.34,2.7,5.77,0,3.33,1.48,7.25,2.31,12.67h0Zm-2.16-14.42c0-.07,.04-.07,.04-.11h-.04v.11h0Zm-.04-.18s.07-.04,.11-.05c.38-1.75,1.35-3.35,3.28-5v-.16c-.07-.09-.07-.2-.11-.31,.04,.04,.04,.05,.11,.09,.04-2.35,.14-4.71,.27-7.14-1.86-2.51-3.42-4.03-4.85-4.7-.2,.83-.4,1.6-.59,2.4,1.17,.49,2.4,1.68,3.42,2.82l.52,2.94c-.83-1.81-2.67-4.34-4.16-4.84-.54,2.19-.97,4.3-1.28,6.34,.34,.99,.76,1.97,1.21,2.85,.85,1.69,1.53,3.24,2.07,4.76Z" style="fill:#20386f; fill-rule:evenodd;"/><path d="M252.02,305.01c-2.56-2.15-4.63-3.21-6.18-7.8-1.12-3.32-1.66-9.52-2.41-16.91,.22-.04,.47-.14,.68-.25,.94,7.71,.43,13.48,2.63,18.8,.83,2,2.87,3.95,5.23,5.88,.02,.09,.02,.18,.05,.29Z" style="fill:#20386f; fill-rule:evenodd;"/><path d="M243.42,280.3c-.29-2.7-.59-5.57-.96-8.53,.47,1.71,.92,3.46,1.21,5.25,.18,1.03,.32,2.05,.43,3.03-.22,.11-.47,.22-.68,.25Z" style="fill:#20386f; fill-rule:evenodd;"/><path d="M316.46,304.47c.07-.2,.11-.41,.14-.59,2.07-1.77,3.82-3.61,4.6-5.43,2.14-5.21,1.68-10.87,2.54-18.33,.11,.04,.25,.11,.36,.14-.65,7.32-1.01,13.73-2.09,16.94-1.41,4.2-3.28,5.48-5.55,7.26Z" style="fill:#20386f; fill-rule:evenodd;"/><path d="M324.1,280.27c-.11-.04-.25-.11-.36-.14,.11-1.1,.29-2.27,.47-3.46,.16-.96,.34-1.89,.56-2.85-.25,2.2-.49,4.34-.67,6.45h0Zm5.19-25.59c.04-.11,.04-.25,.04-.36,.11-.22,.22-.41,.32-.62,.04,.04,.04,.05,.07,.09-.11,.21-.18,.42-.29,.64-.07,.07-.07,.18-.14,.25Z" style="fill:#b4382a; fill-rule:evenodd;"/><path d="M252.02,305.01h0c-.04-.11-.04-.2-.05-.29h0c.02,.09,.02,.18,.05,.29Z" style="fill:#a97956; fill-rule:evenodd;"/><path d="M286.28,204.57c-8.04-9.17-11.75-5.36-29.92,30.23l2.33-9.88c-10.22,16.92-5.79,19.63-24.86,27.01,4.07-2.34,7.61-6.04,11.28-8.94-17.63,8.89-13.3,13.55-11.54,25.27-14.89-20.54-8.94-24.59-4.79-40.49l-3.41,5.24c9.28-24.45-3.66-19.74,14.49-43.82-5.32,4.13-9.46,10.31-13.61,24.12,4.9-27.8,25.16-49.4,55.12-45.84,32.7-5.43,50.5,14.46,58.47,43.2l-4.33-6.56c3.55,9.91,6.74,17.02,8.26,27.27l-5.12-8.88c3.82,11.53,6.18,21.26,4.97,29.81l-1.15-3.23c.14,6.06-2.85,14.38-11.45,22.44,5.17-14.62,4.45-18.96-4.96-27.19l6.78,10.23c-22.78-17.97-28.66-72.7-46.57-49.99Z" style="fill:#20386f; fill-rule:evenodd;"/><rect x="260.98" y="779.32" width="53.06" height="169.99" style="fill:#223f81;"/><path d="M237.91,1292.53c-.25,3.33,1.35,16.2,.94,20.8-6.31,4.56-15.27,9.68-23,11.19-3.24,.63-6.78-.76-10.11-1.95-3.3,7.82-4.45,15.63-9.61,21.38-8.26,9.25-35,14.15-46.65,15.99-3.21,.5-7.71,.79-10.89,.25-6.02-1.08-12-2.16-17.99-3.37-.58-4.92-.9-8.04,.81-9.9,2.56-2.83,4.42-2.83,7.48-6.85,5.97-7.93,8.81-13.52,14.47-19.86,7.62-8.58,17.52-15.48,25.47-24.85l45.17-30.25,24.15,5.44-.25,21.97Z" style="fill:#0e2952; fill-rule:evenodd;"/><path d="M374.66,1316.23c5.59,4.45,12.06,8.11,17.57,9.5,2.58,.65,4.78,.4,8.42-.14,2.67,11.45,4.34,16.85,8.67,21.12,8.38,8.31,22.28,13.05,31.4,14.94,3.3,.65,13.21,.79,21.05,.18,8.54-.68,14.85-3.08,16.08-5.05,.69-2.42,.43-7.14-.14-9.17-.47-1.26-2.02-2.56-4.2-4.71-2.43-2.43-3.12-6.2-4.04-9.64-2.05-7.82-15.95-21.86-26.46-31.45-6.16-5.66-9.75-8.31-12.8-11l-45.29-5.1-11.46,7.35c-.18,7.9-.36,15.34,1.21,23.16Z" style="fill:#0e2952; fill-rule:evenodd;"/><path d="M284.55,860.94c24.95,90.1,49.17,177.43,64.49,265.5,5.89,33.94,5.77,72.64,9.75,109.52,1.57,28.33,14.19,71.68,39.42,70.35,14.31-.76,28.41-7.07,42.88-8.85l-1.89-19.86c0-11.41-4.22-23.34-4.81-36.03-2.18-44.79-3.78-95.87-8.6-137.71-4.36-37.8-9.34-68.02-10.13-100.32-.58-23.02,1.01-37.87-.68-61.44-2.24-31.11-8.47-71.23-15.5-103.39l-32.17-146.61-183.49,9.48c-4.74,97.4-11.7,225.37-14.2,292.24-.81,22.22-.23,56.76-1.35,95.08-1.5,51.66-4.11,108.31,.87,132.8,1.62,8.02,6.99,16.75,7.44,21.68,1.86,20.8-12.78,9.46-9.55,52.88,2.36,.22,4.7,.4,7.1,.65l4.67,.65c20.94,3.7,37.18,4.36,58.94,1.28,.68-10.78,4.51-12.98,7.75-23.45,4.43-14.29,7.61-29.5,7.25-41.8-.43-15.01-5.33-17.07-7.17-31.18-2.04-15.36-.97-43.1-.23-65.75,.56-16.35,1.32-32.57,2.58-48.74,2.34-29.76,5.01-59.48,13.01-90.34,5.57-9.86,9.62-17.29,10.81-24.46,4.51-26.89,9.41-82.48,12.83-112.18Z" style="fill:#223f81; fill-rule:evenodd;"/><polygon points="247.78 339.03 223.04 379.98 215.92 485.55 238.75 546.92 329.13 571.21 334.84 532.19 338.18 426.57 326.26 372.34 306.29 370.46 284.01 369.41 273.96 369.02 247.78 339.03" style="fill:#6d96ce; fill-rule:evenodd;"/><path d="M288.68,394.76c4.56,9.66,8.2,17.09,10.15,23.5,2.42,7.97,4.04,22.57,7.93,38.88,10.09,42.1,23.47,99.3,16.83,109.79-4.47-15.72-5.17-31.15-5.41-29.2-1.04,8.63-2.78,20.89-7.43,29.74-.9,1.68,11.16-1.64,10.06-.25-.97,1.19-13.12,7.44-16.26,8.07l-2.36-89.62c-21.43-40.01-17.12-44.66-22.69-90.59-4.94,28.93-12.44,52.09-5.7,80.59l11.64,49.01,14.71,39.44-1.57,12.29-12.65-1.41-9.1-6.47-12.54-.81-4.42,2.16-2.22-10.2c-.68-20.13-17.56-50.38-19.97-70.38l-2.18-82.84,.99-56.72,8.4-16.47-.04,13.9-1.8,13.82,4.54,17.99c-.11,1.05-3.35,1.39-3.35,2.49-.11,30.03,16.08,60.16,23.18,85.34-2.96-38.41-.58-39.65,6.02-73.03l-1.28-14.83c-6.36,5.66-16.91,20.4-20.28,23.76-4.58,4.45-7.46-18.01-7.25-20.58l16.15-2.85,12.62-13.09,7.71,1.77,.92,1.23,5.28,.07,.61-.96,6.42-5.17,31.52-26.6c18.78,9.05,6.61,98.84-22.19,102.56,2.05-16.06,5.21-25.49,9.26-40.05-4.9-3.39-8-14.2-19-22.03-.83-.47-1.5,12.11-5.28,17.77Z" style="fill:#e0e8f5; fill-rule:evenodd;"/><path d="M250.49,398.58c9.08-11.55,17.66-23.85,31.06-30.55-11.88-9.3-29.49-23.77-34.66-37.94-2.67,3.24-3.33,8.6-3.73,13.66-1.39,17.88,2.2,38.82,7.34,54.83Z" style="fill:#6d96ce; fill-rule:evenodd;"/><path d="M322.73,326.52c-5.19,14.49-23.04,31.87-35,41.58,13.23,7.3,20.51,18.76,29.05,30.8,2.92-8.89,9.55-33.8,10.02-52.52,.25-8.58-1.3-16.76-4.07-19.86Z" style="fill:#6d96ce; fill-rule:evenodd;"/><path d="M277.74,390.94c-1.08,6.99-2.69,13.34-4.25,19.65-6.6,26.46-5.73,47.48-2.78,74.55,2.34,21.85,8.06,45.38,14,60.27,7.48,18.89,14.91,27.87,11.43,45.2,10.98-15.39,19.12-42.14,19.77-58.18,.94-24.19-6.56-46.56-11.12-75.07-2.04-12.71-5.17-28.68-8.96-39.91-4.13-12.2-8.98-19.36-9.93-24.53l-5.57-8.9-2.6,6.92Z" style="fill:#466fb5; fill-rule:evenodd;"/><path d="M286.5,370.17c-3.14-.61-3.32-.61-6.49-.14-1.89,4.16-2.6,6.99-4.88,11.09,.88,4.63,1.5,7.48,3.21,11.91,2.87,1.06,4.96,1.69,6.79,.96,1.59-.99,3.5-3.93,5.48-8.2,2.52-5.37,.61-8.07-4.11-15.61Z" style="fill:#466fb5; fill-rule:evenodd;"/><path d="M239.64,339.06c-21.02,10.92-15.64,13.55-27.27,20.66-16.28,5.44-29.97,10.92-41.55,14.33-4.24,1.24-13.05-3.1-17.92,4.18-14.85,22.1-16.73,173.18,3.06,184.01,5.88,3.23,21.41-1.37,28.41-3.12,.87,101.33-25.13,260.04-30.42,374.35,47.62,3.62,99.6,17.97,130.21,14.53,.65-41.53,2.02-113.88,2.81-124.37,2.81,17.3,5.35,79.16,8.6,125.52,35.42,.16,82.03-5.75,128.22-27.14-11.19-123.97-10.65-211.37-34.12-337.09,6.81-2.16,14.22-1.33,21.07-3.37,8.78-2.58,12.02-2.25,14.65-9.43,4.24-11.57,4.56-33.42,6.74-49.48,5.32-39.17,5.46-111.23-25.27-141.96-2.38-3.37-5.53-6.15-9.14-8.45-11.55-7.32-27.88-10.13-40.09-14.51-10.44-10.22-20.42-16.53-30.44-27.13,4.33,24.01-1.77,53.14-17.74,93.33-6.98,17.52-23.4,82.01-29.34,100.18-11.59-59.8-55.3-158.79-40.48-185.04Z" style="fill:#f1f1f1; fill-rule:evenodd;"/><path d="M307.23,949.2c-16.55-99.22-18.49-239.85-32.41-348.89,6.63,116.54,11.72,232.53,21.14,348.89h11.27Z" style="fill:#fafaf9; fill-rule:evenodd;"/><path d="M257.45,546.85l-5.53,1.69c-1.6,11.68-3.84,17.63-1.89,29.09,5.91,.85,7.97,3.7,14.13,3.46l-3.93-33.49-2.78-.76Z" style="fill:#6d96ce; fill-rule:evenodd;"/><path d="M410.74,581.54c8.78-2.58,12.02-2.25,14.65-9.43,4.24-11.57,4.56-33.42,6.74-49.48,5.62-41.51,5.91-117.39-30.55-147.56-21.11,10.71-34.21,49.86-37.69,74.19-4.61,32.3,4.58,50.59,3.21,60.2-.4,2.88-95.11,27.36-112.04,31.87,4.4,23.59,6.38,44.03,14.82,67.03,46.54-15.09,94.92-13.21,140.86-26.82Z" style="fill:#f1f1f1; fill-rule:evenodd;"/><path d="M410.74,581.54c8.78-2.58,12.02-2.25,14.65-9.43l.25-16.44c-2.4,15.84-7.75,16.47-16.55,19.07-45.93,13.57-87.4,5.7-133.96,20.78-1.44-3.91-6.89-21.02-9.39-35.31l-6.63,3.17c.34,8.07,7.7,36.7,10.76,44.97,46.54-15.09,94.92-13.21,140.86-26.82Z" style="fill:#c4d1eb; fill-rule:evenodd;"/><path d="M318.38,501.89c6.54-1.55,7.98-1.08,11.41-.04,8.11,2.42,14.56,4.58,21.7,4.22,11.61-.56,12.53,1.19,17.18,6.96l-7.07,5.15-27.13,13.09-7.25-.11-5.34-18.13-3.51-11.14Z" style="fill:#f9af79; fill-rule:evenodd;"/><path d="M328.75,420.75c0,4.33,.16,8.33,.43,12.27,.29,4.81,.79,9.68,1.41,15.12,.72,6.2,1.8,12.67,3.48,18.2,1.62,5.37,3.8,9.82,6.81,12.18,.56,.43,1.14,.79,1.78,1.1,2.45,.04,4.65-.5,6.49-1.68,3.21-2.05,5.84-6.24,7.98-11.48,2.18-5.32,3.87-11.66,5.17-17.75,1.15-5.37,2.11-10.17,2.9-14.92,.67-4.18,1.24-8.4,1.68-13.1-.22-.02-.47-.05-.76-.11,.04-.49,.04-.95,.04-1.46,0-12.26-8.25-24.04-18.46-24.04s-18.46,11.79-18.46,24.04c0,.43,0,.88,.04,1.37-.18,.09-.36,.16-.54,.25h0Zm40.3-.43c-.43,4.94-1.03,9.39-1.75,13.82-.77,4.85-1.75,9.66-2.88,15.01-1.35,6.2-3.06,12.69-5.32,18.15-2.27,5.55-5.17,10.15-8.8,12.47-.68,.43-1.41,.79-2.18,1.1,2.69,.04,5.71-.52,8.96-1.66v-.02c.14-1.82,2.7-4.02,4.25-4.78,1.33-.63,2.72-.72,3.88,.65,.81,.96,1.53,2.56,.99,3.82-.4,.88-1.37,1.5-2.45,1.91-1.6,.65-4.18,.97-5.66,.36h-.05c-3.66,1.3-7.08,1.93-10.13,1.82-2.11-.09-4.06-.47-5.79-1.24h-.38c-3.06-.22-6.4-1.17-9.9-2.81l-.07,.04c-1.55,.41-4.07-.07-5.59-.9-.9-.47-1.8-1.1-2.16-2-.76-1.75,.07-4.2,2.42-4.78,.94-.22,1.91,.11,2.78,.61,1.48,.92,2.63,2.38,3.46,3.91h.04v.05h0v.04h.04v.07l.04,.02v.04h0v.04h.04v.09c.11,.29,.18,.63,.14,.96,1.82,.85,3.6,1.46,5.26,1.89-2.7-2.79-4.72-7.07-6.22-12.04-1.75-5.7-2.79-12.29-3.53-18.6-.63-5.46-1.14-10.31-1.42-15.18-.29-3.97-.43-7.93-.43-12.18-.18-.02-.36-.07-.5-.14-.04-.45-.04-.94-.04-1.41,0-13.73,8.85-27,20.04-28.12l.86-9.41,3.91,.18-.81,9.32c10.83,1.68,19.25,14.65,19.25,28.03v.7l-.29,.16Z" style="fill:#223f81; fill-rule:evenodd;"/><path d="M373.95,412.24c-16.1,46.65-6.96,71.84-5.62,100.05,.14,2.9-92.66,40.05-109.59,44.5,.92,3.68,1.69,3.93,2.99,10.85,66.62-21.63,89.29-40.52,119.18-49.57,2.58-.79-15.92-31.76-6.96-105.84Z" style="fill:#c4d1eb; fill-rule:evenodd;"/><path d="M299.95,500.7c8.92,.18,10.99,.32,19.61-1.98,4.36,1.62,11.97,22.13,8.56,39.36-12.15-.07-17.14,4.69-30.91,6.76l-2.58-27.88,5.32-16.26Z" style="fill:#6d96ce; fill-rule:evenodd;"/><path d="M215.3,439.24c7.91,.32,14.37,6.81,14.65,15,.31,8.56-6.29,15.75-14.73,16.06-8.45,.31-15.54-6.43-15.84-14.98-.27-7.5,4.7-13.88,11.55-15.63-.9-10.87-1.37-20.01-1.6-30.05-.23-13.05,.56-25.94,1.3-39.29l4.78,.41c-1.57,12.8-1.71,25.5-1.57,38.09,.13,10.02,.85,20.08,1.46,30.39Z" style="fill:#223f81; fill-rule:evenodd;"/><path d="M217.47,448.76c3.86-.18,7.07,2.92,7.21,6.78,.14,3.91-2.85,7.16-6.7,7.3-3.82,.13-7.03-2.9-7.17-6.81-.14-3.88,2.87-7.16,6.67-7.26Z" style="fill:#223f81; fill-rule:evenodd;"/><path d="M185.64,368.77c-7.14,1.59-9.84,3.24-16.13,6.07-3.95,1.78-17.68-5.14-26.35,9.1-8.65,14.22-8.24,37.71-8.63,47.06-.43,9.35,.11,15.52,.43,22.1,.4,6.54-1.48,13.07-1.21,15.93,.92,9.21,.47,15.09-.16,29.65-.22,5.12-.14,13.41,2.85,22.78,3.32,10.42,7.89,19.25,12.36,29.2,3.64,8.04,4.78,13.45,8.74,21.32,5.61,11.12,8.31,16.82,12.44,17.68,9.5,1.96,17.9-5.52,30.3-9.41,38.32-3.24,45.8-10.98,82.46-27.36l19.47-7.28c5.03-12.42,1.35-42.25-1.32-47.15-9.73,2.05-20.37,4.9-29.96,5.03-2.99,.02-6.99-.96-9.95-1.46-2.22-.43-18.58-1.82-20.78-1.51-2.11,.29-3.89,2.74-6,2.36-5.26-.96-6.89-1.42-9.88-.47-5.37,1.71-9.84,5.5-10.96,3.75-7.35-11.23-8.47,.25-11.28-3.62-.54-.76,1.05-3.19-.04-7.12-2.36-8.44-3.03-9.41-3.57-14.22-1.3-12.09,2.7-35.06,.54-53.06-6.99-25.92-10.96-41.67-13.37-59.37Z" style="fill:#f1f1f1; fill-rule:evenodd;"/><path d="M169.97,589.67c9.5,1.96,17.9-5.52,30.3-9.41,41.13-3.46,64.98-20.82,101.93-34.64l2-7.28c-37.24,12.73-65.41,31.94-105.8,35.4-12.44,3.86-20.78,11.3-30.32,9.34l1.89,6.6Z" style="fill:#c4d1eb; fill-rule:evenodd;"/><path d="M190.52,400.11c8.38,37.8,3.66,43.42,3.55,74.49-.05,22.33-2.06,38-3.64,39.36,25.49-2.88,49.8-8.09,70.47-5.62,1.73,.18,41.2,4.25,43.04,4.54-.47-4.83-1.53-9.28-1.71-10.72-5.28-.59-74.49-.81-77.92,.25-7.16,2.29-18.42-2.14-23.11,2.47-2.49-1.32,1.95-5.41,.83-9.46-2.36-8.44-2.14-10.15-2.67-14.92-.69-6.25-1.33-15.27-.94-25.54,.54-16.26,.4-35.9-7.91-54.85Z" style="fill:#fafaf9; fill-rule:evenodd;"/><path d="M239.64,339.06c-11.72,20.69,13.09,86.77,29.74,143.08,.87,2.99,3.17,11.82,5.16,19.84-1.8,.04-3.57,.05-5.16,.09-17.84-31.63-57.82-102.09-62.44-105.48,2.31-1.37,11.75-3.42,19.38-4.79-11.16-4.74-23.63-12.08-28.46-17.27,3.46-8,20.84-24.55,41.78-35.47Z" style="fill:#c4d1eb; fill-rule:evenodd;"/><path d="M356.11,356.26c-9.88-9.37-19.36-15.57-28.91-25.67,2.6,23.43-1.77,53.14-17.74,93.33-4.45,11.17-14.58,47.98-21.52,73.14l4.04-.72c14.64-30.62,40.1-83.02,62.15-95.06l-19.5-12.62c16.38-4.04,21.45-8.51,36.44-15.79-3.64-4.22-8.87-9.34-14.96-16.62h0Zm-114.89-18.06c-12.98,4.83-30.43,24.58-39.83,34.68,13.37,11.1,24.1,14.65,33.9,20.37l-22.98,4.04c20.87,24.84,39.96,71.7,58.98,104.76,1.06,0,2.2-.05,3.35-.05l-.72-3.33c-8.44-29.45-21.94-70.08-29.09-98.59-6.89-27.43-9.62-51.17-3.6-61.86Z" style="fill:#f1f1f1; fill-rule:evenodd;"/><path d="M356.11,356.26c-9.88-9.37-19.36-15.57-28.91-25.67,.25,2.16,.41,4.4,.54,6.7,7.17,6.42,14.38,11.68,21.81,18.75,6.06,7.28,11.3,12.38,14.94,16.58-14.98,7.28-20.06,11.79-36.46,15.79l19.54,12.65c-23.61,12.87-53.01,74.04-60.45,101.06l3.35-.7c14.64-30.64,41.62-88.1,63.66-100.14l-19.5-12.62c16.38-4.04,21.45-8.51,36.44-15.79-3.64-4.22-8.87-9.34-14.96-16.62Z" style="fill:#c4d1eb; fill-rule:evenodd;"/><path d="M235.96,501.39c-3.21-4.22-5.16-7.57-7.5-9.7-2.04-1.84-3.89-2.58-8.36-5.05-3.24-1.73-5.91-3.86-10.13-6.43-2.6-1.6-6.72-3.24-10.6-5.17-4.58-2.29-8.98-4.88-11.5-2.49-1.48,1.42-1.55,3.84-.04,5.23-3.5-1.41-7.98-2.16-9.59-.18-.79,1.12-1.68,3.06,.76,5.93-4.11,.34-4.15,4.56-2.43,6.24,1.53,1.5,4.29,1.96,7.1,3.41,2.6,1.37,4.02,2.33,5.52,2.78-4.56-.76-4.34,3.35-.99,5.52,1.95,1.24,8.67,2.49,9.91,3.14,1.15,0,2.18,.11,3.14,.18,2.43-1.21,9.14-1.05,16.08-1.5,8.04-.56,16.37-1.64,18.64-1.89Z" style="fill:#f9af79; fill-rule:evenodd;"/><path d="M184.27,642.81c16.4,3.64,27.97,7.55,47.66,7.32l-4.69,26.1c-17.12-.54-28.59-2.33-45.42-5.32,16.04,1.89,26.57,3.14,42.75,2.45l3.68-19.52c-10.09,.9-32.98-4.54-43.98-6.52v-4.51Z" style="fill:#c4d1eb; fill-rule:evenodd;"/><path d="M387.53,644.86c-16.44,3.62-27.99,7.53-47.67,7.32l4.69,26.08c17.12-.56,28.55-2.33,45.46-5.32-16.1,1.91-26.6,3.14-42.79,2.45l-3.68-19.54c10.09,.92,32.95-4.51,44-6.52v-4.47Z" style="fill:#c4d1eb; fill-rule:evenodd;"/></svg>