<?xml version="1.0" encoding="UTF-8"?><svg id="a" xmlns="http://www.w3.org/2000/svg" viewBox="0 0 1788.01 1504.1"><path d="M1594.15,167.07c-16.48,0-29.83-12.83-29.83-28.65s13.36-28.65,29.83-28.65,29.82,12.83,29.82,28.65-13.35,28.65-29.82,28.65h0ZM327.72,853.93H168.36c-85.77,0-155.94,67.4-155.94,149.78h0c0,82.38,70.17,149.78,155.94,149.78H1515.8c138.88,0,252.5-109.14,252.5-242.53h0c0-133.4-113.63-242.53-252.5-242.54h0c-58.72,0-106.76-46.15-106.76-102.55h0c0-56.4,48.04-102.55,106.76-102.55h128.49c61.05,0,110.99-47.98,110.99-106.62h0c0-58.64-49.95-106.62-110.99-106.62h-162.49c-23.77,0-43.2-18.68-43.2-41.51h0c0-22.83,19.44-41.51,43.2-41.51h28.65c16.41,0,29.82-12.89,29.82-28.65h0c0-15.75-13.42-28.65-29.82-28.65h-187.95c-39.58,0-43.99,44.91-143.97,44.91h-231.84c-21.4,0-38.91,16.82-38.91,37.38h0c0,20.56,17.51,37.38,38.91,37.38h37.38c31,0,56.39,24.38,56.39,54.16h0c0,29.79-25.38,54.16-56.39,54.16h-112.49c-151.88,0-173.34,38.13-199.94,113.96-26.6,75.82-164.75,81.94-164.75,81.94h-188.91c-46.73,0-84.97,36.73-84.97,81.62h0c0,44.89,38.24,81.62,84.97,81.62h9.73c44.95,0,81.73,35.33,81.73,78.51h0c0,43.18-36.78,78.5-81.73,78.5h0Z" style="fill:#e0e8f5; fill-rule:evenodd;"/><path d="M795.16,509.22c50.21-3.9,94.07,33.65,97.96,83.86,3.9,50.21-33.65,94.07-83.86,97.96-50.21,3.9-94.07-33.65-97.96-83.86-3.9-50.2,33.65-94.07,83.86-97.96h0Zm-140.14-43.51h0Zm105.29,368.57h0Zm196.77-97.41h0Zm-26.25-283.76c-13.82-12.09-29.36-22.26-46.16-30.1l-1.1-46.42-39.45-10.61-24.27,39.61-10.61-.67-44.39,3.46-28.18-36.92-33.58,12.43-1.15,.53-3.44,1.64,3.65,46.29-7.34,4.61-35.51,30.03-4.26-1.26-40.2-12.03c-8.39,10.73-15.87,22.18-22.34,34.25l30.12,35.27c-7.16,16.74-12.06,34.62-14.32,53.24l-43.76,15.35,2.1,40.85,45.1,10.82c4.13,18.33,10.83,35.62,19.67,51.5l-26.38,38.15c7.66,11.35,16.27,21.99,25.71,31.8l42.89-17.77,46.13,30.1,1.11,46.41c12.69,4.64,25.89,8.21,39.48,10.61l24.25-39.57,55.01-2.82,28.17,36.92,38.19-14.6-3.63-46.28c15.92-9.51,30.31-21.2,42.82-34.64l11.96,3.56,32.52,9.74c8.39-10.72,15.87-22.18,22.33-34.25l-30.12-35.27c7.16-16.7,12.08-34.57,14.31-53.24l43.77-15.36-2.09-40.85-45.1-10.82c-4.15-18.29-10.84-35.58-19.67-51.49l26.38-38.16c-7.67-11.34-16.27-21.97-25.71-31.79l-42.87,17.76Z" style="fill:#c4d1eb; fill-rule:evenodd;"/><path d="M667.03,502.6c1.07-.08,2.2,.2,3.14,.87,2.17,1.53,2.69,4.53,1.15,6.7-21.01,29.67-31.05,66-28.23,102.32,1.35,17.39,5.52,34.24,12.4,50.09,1.05,2.43-.07,5.26-2.51,6.32s-5.26-.06-6.32-2.5c-7.3-16.83-11.71-34.72-13.14-53.17-2.99-38.54,7.63-77.12,29.95-108.62,.85-1.21,2.16-1.9,3.55-2.01Z" style="fill:#fff; fill-rule:evenodd;"/><path d="M697.52,721.06c1.17-.09,2.39,.25,3.39,1.05,16.71,13.46,35.63,23.17,56.18,28.88,2.55,.71,4.05,3.36,3.35,5.92-.72,2.56-3.37,4.06-5.92,3.35-21.84-6.06-41.91-16.37-59.66-30.66-2.05-1.67-2.39-4.69-.71-6.76,.86-1.07,2.08-1.67,3.36-1.77Z" style="fill:#fff; fill-rule:evenodd;"/><path d="M849.98,748.23c2.14-.17,4.21,1.13,4.93,3.26,.83,2.52-.51,5.24-3.02,6.09-12.94,4.35-26.47,7.11-40.19,8.17-2.66,.21-4.97-1.77-5.18-4.42-.2-2.65,1.77-4.96,4.44-5.17,12.93-1,25.66-3.59,37.86-7.69,.38-.13,.77-.21,1.16-.24Z" style="fill:#fff; fill-rule:evenodd;"/><path d="M1155.27,497.75c-23.01,11.97-51.37,3.02-63.34-19.99-11.97-23.01-3.02-51.37,20-63.34,23.01-11.97,51.37-3.02,63.33,19.99,11.97,23.01,3.02,51.37-19.99,63.34h0Zm75.19-7.64h0Zm-124.22-153.45h0Zm-73.62,85.84h0Zm69.66,129.2c8.99,2.94,18.4,4.63,27.95,4.96l9.88,21.78,20.84-2.92,3.52-23.67,5.16-1.82,20.34-10.59,20.8,11.82,13.42-12.66,.44-.48,1.3-1.47-11.06-21.21,2.55-3.67,10.77-21.39,2.28-.26,21.48-2.4c1.81-6.78,3.04-13.71,3.68-20.74l-21.39-10.64c.01-9.38-1.27-18.84-3.95-28.12l17.64-16.1-9.23-18.94-23.55,3.97c-5.66-7.86-12.32-14.7-19.7-20.44l4.81-23.4c-5.92-3.83-12.15-7.14-18.6-9.89l-16.74,17.07-27.93-4.97-9.88-21.78c-6.95,.36-13.93,1.33-20.85,2.93l-3.51,23.64-25.51,12.43-20.79-11.82-15.16,14.62,11.05,21.2c-5.62,7.72-10.09,16.16-13.31,25.05l-6.38,.72-17.38,1.95c-1.81,6.77-3.04,13.71-3.67,20.74l21.39,10.64c-.03,9.36,1.25,18.82,3.95,28.12l-17.64,16.1,9.22,18.94,23.56-3.97c5.65,7.83,12.31,14.68,19.7,20.44l-4.8,23.41c5.92,3.83,12.14,7.13,18.6,9.88l16.74-17.06Z" style="fill:#c4d1eb; fill-rule:evenodd;"/><path d="M1217.34,475.06c-.5,.25-1.09,.35-1.67,.22-1.34-.29-2.19-1.61-1.9-2.94,3.98-18.3,1.41-37.54-7.25-54.19-4.15-7.97-9.52-15.12-15.98-21.24-.99-.94-1.03-2.51-.08-3.5,.94-.99,2.5-1.03,3.5-.09,6.85,6.5,12.55,14.09,16.95,22.55,9.19,17.66,11.93,38.09,7.7,57.52-.16,.74-.64,1.34-1.27,1.67Z" style="fill:#fff; fill-rule:evenodd;"/><path d="M1158.84,377.66c-.54,.28-1.18,.36-1.82,.19-10.63-3.01-21.56-3.8-32.45-2.36-1.35,.18-2.59-.77-2.78-2.13-.18-1.36,.78-2.6,2.13-2.78,11.57-1.53,23.16-.69,34.45,2.5,1.31,.38,2.08,1.74,1.7,3.06-.19,.68-.65,1.21-1.23,1.52Z" style="fill:#fff; fill-rule:evenodd;"/><path d="M1081.1,395.53c-.98,.51-2.22,.31-2.99-.55-.9-1.03-.81-2.59,.2-3.5,5.26-4.67,11.11-8.7,17.4-11.97,1.22-.63,2.72-.16,3.35,1.05,.62,1.21,.16,2.71-1.06,3.34-5.93,3.09-11.44,6.88-16.39,11.28-.16,.14-.33,.25-.51,.35Z" style="fill:#fff; fill-rule:evenodd;"/><path d="M754.12,234.89H114.61c4.59-19.44,22.04-33.89,42.87-33.89,1,0,2.01,.04,3,.12,10.1-24.72,34.39-42.15,62.75-42.15,12.41,0,24.02,3.35,34.02,9.16,12.2-40.2,49.55-69.48,93.74-69.48,8.99,0,17.7,1.22,25.97,3.5,21.39-47.23,68.94-80.08,124.16-80.08,65.5,0,120.2,46.23,133.27,107.84,1.11-.04,2.2-.08,3.31-.08,41.96,0,76.58,31.38,81.7,71.94,17.12,3.21,30.75,16.3,34.72,33.13Z" style="fill:#e0e8f5; fill-rule:evenodd;"/><path d="M1000.64,1218.54c140.24,0,253.91,16.16,253.91,36.09s-113.68,36.1-253.91,36.1-253.92-16.16-253.92-36.1,113.68-36.09,253.92-36.09Z" style="fill:#c4d1eb; fill-rule:evenodd;"/><path d="M1026.46,412.82c-5.35,.4-10.51-6.26-12-8.25-5.69-7.58-9.32-16.49-10.78-21.48,1.11-3.32,2.27-7.51,3.49-12.57,20.61-14.7,23.43-25.57,8.45-32.62-3.02,1.78-6.76,7.25-11.24,16.42-3.58-.15-6.29-2.07-8.13-5.75,4.26-15.48,7.02-28.04,8.31-37.7-10.16-15.85-33.92-18.11-65.38-13.83-1.46,8.79-2.66,18.09-3.59,27.92-5.56,5.38-4.84,25.32,.28,48.3-2.56,13.07,5.12,20.2,23.06,21.39,.17,3.15-.1,6.78-.16,9-.05,2-.12,5.92-2.11,6.53l-3.32,.86c.33,46.72,23.12,55.7,73.11,1.8Z" style="fill:#f9af79; fill-rule:evenodd;"/><path d="M939.18,297.03c31.45-4.28,55.22-2.02,65.37,13.83-1.28,9.66-4.05,22.23-8.31,37.7,1.84,3.68,4.55,5.6,8.13,5.76,4.47-9.17,8.22-14.64,11.24-16.42,14.99,7.05,12.17,17.92-8.45,32.62-1.21,5.07-2.37,9.26-3.48,12.57,18.55-4.36,34.06-21.77,36.25-29.3,21.64-44.76-2.5-63.65-15.4-70.55-5.7-44.32-67.26-6-83.45-33.05-33.88,20.29-11.41,46.45-1.89,46.85Z" style="fill:#20386f; fill-rule:evenodd;"/><path d="M979.6,390.08c-5.03,2.61-11.92,4.12-20.67,4.55,.17,3.11,.04,6.69-.14,8.91,8.81-1.78,15.74-6.26,20.82-13.46Z" style="fill:#ed7d57; fill-rule:evenodd;"/><path d="M1063.97,1287.75c19.54-7.22,21.1-17.79,31.64-22.95,10.6-5.19,11.82-14.45,1.45-24.51-7.66,6.43-17.16,14.31-22.19,10.14-3.35-2.8-14.75-2.61-17.01,1.46-9.92,24.21-23.73,16.54-26.45,27.55-.31,14.68,23.6,11.62,32.57,8.3Z" style="fill:#0e2952; fill-rule:evenodd;"/><path d="M894.67,1263.66c34.41-.58,60.13-1.01,72.01-4.95,12.82-4.25,10.17-12.45,2.81-25.58-32.43,15.65-23.79-3.22-38.96-.82-10.66,9-26.44,15.04-47.35,18.11-8.84,6.84-5.25,12.94,11.49,13.24Z" style="fill:#0e2952; fill-rule:evenodd;"/><path d="M911.85,418.1c17.18-5.23,32.6-8.4,46.27-9.52,2.47,39.6,22.16,39.33,59.05-.83,35.54,3.13,42.5,3.61,62.21,10.33,42.66,42.77,46.58,92.13,68.88,148.53-24.69,1.16-35.78,4.28-52.55,10.56-3.6-13.52-6.62-24.39-9.05-32.64,.68,74.38,.94,125.34,.78,152.89-81.65,33.95-148.91,22.33-176.38-4.13-.38-66.11-.91-118.46-1.57-157.02-9.76,12.08-18.82,21.45-27.17,28.1-20.02-24.09-33.58-33.79-44.93-47.99,25.13-43.31,61.14-83.6,74.46-98.28Z" style="fill:#6d96ce; fill-rule:evenodd;"/><path d="M747.29,490.55c42.9,18.71,72.93,34.16,90.1,46.37l7.63-11.85c7.1,7.46,15.19,14.77,25.07,25.39-9.13,10.03-18.94,18.29-30.36,25.26-29.8-3.34-62.75-27.03-98.83-71.07-11.22-2.35-19.48-6.61-24.78-12.8-.28-5.68,2.44-11.37,8.17-17.07-14.96-10.23-20.92-17.56-17.87-21.97,23.44,15.21,37.06,27.79,40.86,37.73Z" style="fill:#f9af79; fill-rule:evenodd;"/><path d="M911.06,693.3c1.62,6.43-5.06,44.2-6.17,63.9-10.85,70.33-1.56,161.87,4.29,279.59,10.46,41.48,25.9,96.76,24.9,174.56,18.21,5.84,24.81,6.45,41.25,2.06,11.5-81.2,3.65-146.22-6.73-176.25,6.65-46.41,16.58-98.37,31.03-173.31,16.29,81.67,38.08,142.27,47.51,181.82,1.87,44.09,10.37,103.59,14.81,178.51,13.52,4.28,21.94,5.51,35.97,3.71,18.21-68.86,15.15-143.8,7.44-224.79-8.2-97.38,5.33-207.33-8.22-245.45-6.93-22.59-7.82-42.64-9.69-60.22-68.12,23.79-126.91,22.42-176.38-4.13Z" style="fill:#466fb5; fill-rule:evenodd;"/><path d="M1074.89,621.87c4.37,.68,8.51,1.28,12.4,1.84,.21,32.81,.25,57.38,.17,73.72-3.86,1.81-9.29,3.9-13.52,4.43,.02-2.11,.65-6.97,.68-9.05,.27-25.09,.37-48.73,.28-70.94h0Zm-199.64-65.73c12.02-10.51,23.47-27.58,34.33-51.19-1.22,8.23-1.71,19.24-1.46,33.02-9.24,11.26-17.84,20.07-25.8,26.41-2.45-2.95-4.8-5.68-7.07-8.24h0Zm196.24-63.97c5.3,17.89,10.36,35.34,15.18,52.37,.13,14.38,.24,27.88,.34,40.5-3.5-.35-7.59-.58-12.46-.7-.5-34.91-1.52-65.64-3.07-92.17Z" style="fill:#466fb5; fill-rule:evenodd;"/><path d="M1139.98,567.12c3.89,16.55,5.51,31.68,2.33,51.75-9.7,14.79-48.85,6.52-149.65-11.16-3.61,3.46-11.09,6.91-22.44,5.37-10.55-2.76-11.05-5.65-22.88-17.35-2.87-9.11-2.28-16.07,1.77-20.87,13.32,8.23,20.32,12.6,35.32,13.12-3.99-10.78-4.59-17.74-1.8-20.88,5.11,4.31,8.45,10.78,9.99,19.42,79.48-3.62,100.43-3.14,111.01,2.69-1.15-5.24-2.16-9.84-3.05-13.81,12.37-4.43,22.44-6.99,39.41-8.28Z" style="fill:#f9af79; fill-rule:evenodd;"/><path d="M967.2,1215.31c-.81,7.08-.93,13.44-.35,19.06-27.14,12.38-22.53-1.92-33.37-2.27,2.72-5.03,4.49-11.46,5.3-19.28,11.83,3.55,18.56,4.35,28.42,2.49h0Zm126.45,13.05c-.01,5.15,.46,9.69,1.43,13.59-7.25,6.02-15.59,12.3-20.2,8.48-2.2-1.84-7.88-2.39-12.15-1.39,1.76-6.22,3.14-14.01,4.16-23.38,9.51,2.69,16.83,3.59,26.77,2.7Z" style="fill:#f9af79; fill-rule:evenodd;"/><path d="M904.89,757.2c47.91,46.88,111.99,47.03,192.24,.45,13.55,38.12,.02,148.08,8.22,245.45,7.71,80.99,10.77,155.93-7.44,224.79-1.48,.19-2.9,.35-4.27,.47-9.94,.89-17.26-.01-26.77-2.7-1.58-.44-3.21-.94-4.93-1.48-4.44-74.92-12.94-134.42-14.81-178.51-9.43-39.54-31.22-100.15-47.51-181.82-14.45,74.94-24.38,126.9-31.03,173.31,10.38,30.03,18.23,95.05,6.73,176.25-2.99,.8-5.67,1.43-8.14,1.9-9.86,1.87-16.59,1.06-28.42-2.49-1.48-.45-3.04-.94-4.7-1.47,1-77.8-14.43-133.08-24.9-174.56-5.84-117.72-15.14-209.26-4.29-279.59Z" style="fill:#20386f; fill-rule:evenodd;"/><path d="M980.51,1157.62c-17.48,4.99-33.48,6.49-48.01,4.51-.32-4.03-.67-7.98-1.06-11.87,15.93,2.17,32.41,1.05,49.43-3.36-.08,3.51-.2,7.09-.36,10.71h0Zm127.74,13.96c-19.01,2.39-35.85,1.07-50.52-3.96-.37-4.19-.74-8.32-1.11-12.39,16.45,5.63,34.02,7.57,52.69,5.78-.32,3.54-.67,7.06-1.06,10.57h0Zm-48.06,26.36c-.3-4.15-.63-8.25-.95-12.3,14.68,4.22,30.21,5.57,46.59,4.06-.55,3.58-1.15,7.13-1.8,10.67-16.21,1.92-30.82,1.11-43.85-2.43h0Zm-126.85-22.94c14.82,2.57,30.22,2.29,46.2-.84-.25,3.55-.55,7.15-.89,10.78-16.34,3.63-31.28,4.27-44.8,1.94-.13-4.02-.3-7.98-.51-11.88Z" style="fill:#0e2952; fill-rule:evenodd;"/><path d="M1.13,743.85c-14.56,190,113.1,319.66,323.17,285.88,1.32-206.04-123.95-317.39-323.17-285.88Z" style="fill:#c4d1eb; fill-rule:evenodd;"/><path d="M13.71,762.36c-1.16-1.02-1.29-2.79-.27-3.95,1.02-1.16,2.78-1.28,3.95-.27l109.94,95.95,19.41-81.73c.36-1.5,1.87-2.44,3.37-2.08,1.5,.35,2.43,1.87,2.08,3.37l-20.1,84.6,30.53,26.66c.84,.21,1.57,.81,1.92,1.67l23.41,20.43,35.33-87.27c.58-1.43,2.21-2.12,3.64-1.54,1.43,.58,2.12,2.21,1.54,3.64l-36.05,89.06,27.44,23.94c.09,.07,.19,.16,.27,.23l27.87,24.33,28.41-63.46c.63-1.41,2.29-2.04,3.7-1.41,1.41,.63,2.04,2.29,1.41,3.7l-29.11,65.01,73.74,64.36c1.16,1.02,1.29,2.79,.27,3.95-1.02,1.16-2.79,1.28-3.95,.27l-49.58-43.28-49.82,23.54c-1.4,.66-3.06,.07-3.73-1.33-.66-1.39-.07-3.07,1.33-3.72l47.62-22.5-50.51-44.08-84.92,45.32c-1.36,.73-3.06,.21-3.79-1.15-.73-1.37-.21-3.07,1.15-3.8l83.04-44.32-25.96-22.66-.1-.09-26.13-22.8-91.94,34.9c-1.45,.55-3.07-.18-3.61-1.63-.55-1.44,.18-3.07,1.62-3.61l89.14-33.84-29.05-25.35-.15-.13-31.06-27.1-70.59,17.79c-1.49,.38-3.02-.53-3.4-2.02-.38-1.5,.53-3.02,2.03-3.4l66.83-16.85L13.71,762.36Z" style="fill:#fff; fill-rule:evenodd;"/><path d="M1786.89,591.92c14.56,190.01-113.1,319.66-323.17,285.88-1.32-206.04,123.94-317.39,323.17-285.88Z" style="fill:#c4d1eb; fill-rule:evenodd;"/><path d="M1774.3,610.43c1.16-1.02,1.28-2.78,.27-3.95-1.02-1.16-2.78-1.29-3.95-.27l-109.93,95.95-19.42-81.73c-.37-1.51-1.87-2.44-3.38-2.08-1.51,.36-2.44,1.87-2.08,3.37l20.1,84.6-30.53,26.65c-.84,.21-1.57,.81-1.92,1.67l-23.41,20.43-35.33-87.27c-.58-1.43-2.21-2.12-3.64-1.54-1.43,.58-2.12,2.21-1.54,3.65l36.06,89.06-27.44,23.95c-.09,.07-.18,.16-.27,.23l-27.87,24.33-28.42-63.46c-.63-1.41-2.29-2.04-3.7-1.41-1.41,.63-2.04,2.29-1.41,3.7l29.11,65.01-73.74,64.36c-1.16,1.02-1.28,2.79-.27,3.95,1.02,1.16,2.79,1.28,3.95,.27l49.58-43.28,49.83,23.54c1.39,.66,3.06,.07,3.72-1.33,.66-1.4,.07-3.07-1.33-3.73l-47.62-22.5,50.51-44.09,84.92,45.33c1.37,.73,3.06,.21,3.79-1.15,.73-1.37,.22-3.07-1.15-3.8l-83.04-44.32,25.96-22.66,.11-.09,26.12-22.81,91.94,34.9c1.45,.55,3.07-.18,3.62-1.63,.54-1.45-.18-3.07-1.63-3.61l-89.15-33.84,29.05-25.35,.14-.13,31.06-27.11,70.58,17.79c1.49,.38,3.02-.53,3.4-2.02,.38-1.5-.53-3.02-2.03-3.4l-66.83-16.84,77.17-67.36Z" style="fill:#fff; fill-rule:evenodd;"/><path d="M179.33,373.98c-150.91,195.85-104.57,427.34,147.43,540.07,147.96-222.67,91.19-432.6-147.43-540.07Z" style="fill:#b0c2e4; fill-rule:evenodd;"/><path d="M179.83,403.01c-.54-1.93,.59-3.94,2.52-4.47,1.93-.54,3.94,.59,4.48,2.52l51.08,182.31,79.2-74.89c1.46-1.38,3.76-1.31,5.14,.15,1.38,1.46,1.31,3.76-.15,5.14l-81.97,77.52,14.19,50.63c.76,.83,1.13,2,.89,3.18l10.88,38.82,100.4-69.58c1.65-1.14,3.91-.73,5.05,.91,1.14,1.65,.73,3.91-.92,5.05l-102.46,71.01,12.75,45.5c.05,.15,.09,.3,.12,.45l12.95,46.21,75.97-48.66c1.69-1.08,3.93-.58,5.01,1.1,1.08,1.69,.59,3.93-1.1,5.01l-77.83,49.85,34.26,122.29c.54,1.93-.59,3.94-2.52,4.48-1.93,.54-3.94-.59-4.48-2.52l-23.04-82.22-70.81-9.89c-1.98-.27-3.37-2.1-3.1-4.09,.28-1.98,2.11-3.37,4.09-3.1l67.68,9.45-23.46-83.76-124.39-11.2c-2-.18-3.48-1.95-3.3-3.95,.18-2,1.95-3.48,3.95-3.3l121.64,10.95-12.06-43.05-.05-.17-12.14-43.33-124.6-27.5c-1.96-.43-3.2-2.37-2.77-4.34,.43-1.96,2.37-3.2,4.33-2.76l120.81,26.66-13.49-48.17-.07-.24-14.43-51.5-89.26-30.89c-1.9-.65-2.9-2.72-2.25-4.62,.65-1.89,2.72-2.9,4.61-2.25l84.51,29.25-35.86-127.99Z" style="fill:#fff; fill-rule:evenodd;"/><path d="M1608.69,222.05c150.91,195.85,104.58,427.34-147.44,540.07-147.95-222.67-91.19-432.6,147.44-540.07Z" style="fill:#b0c2e4; fill-rule:evenodd;"/><path d="M1608.19,251.09c.54-1.93-.59-3.94-2.51-4.47-1.94-.54-3.94,.59-4.48,2.52l-51.07,182.32-79.19-74.9c-1.46-1.38-3.76-1.31-5.14,.15-1.38,1.46-1.32,3.76,.14,5.14l81.97,77.52-14.18,50.63c-.76,.83-1.13,2-.9,3.18l-10.87,38.83-100.4-69.58c-1.65-1.14-3.91-.73-5.06,.92-1.14,1.65-.73,3.91,.92,5.05l102.46,71.01-12.75,45.5c-.06,.15-.09,.3-.13,.45l-12.95,46.21-75.97-48.66c-1.69-1.08-3.93-.58-5.01,1.1-1.07,1.69-.58,3.93,1.11,5.01l77.83,49.85-34.26,122.29c-.54,1.93,.59,3.93,2.52,4.48,1.93,.54,3.94-.59,4.48-2.52l23.04-82.23,70.81-9.89c1.98-.27,3.38-2.11,3.1-4.09-.28-1.98-2.1-3.37-4.09-3.1l-67.68,9.45,23.47-83.76,124.39-11.2c2-.18,3.48-1.95,3.3-3.95-.18-2-1.95-3.48-3.95-3.3l-121.64,10.95,12.06-43.05,.05-.17,12.14-43.33,124.61-27.5c1.96-.43,3.2-2.38,2.76-4.34-.43-1.96-2.37-3.2-4.33-2.76l-120.81,26.66,13.49-48.17,.07-.24,14.43-51.5,89.25-30.89c1.89-.65,2.9-2.72,2.25-4.62-.65-1.89-2.72-2.9-4.61-2.25l-84.51,29.25,35.85-127.99Z" style="fill:#fff; fill-rule:evenodd;"/><rect x="657.97" y="358.05" width="115.39" height="39.86" style="fill:#b0c2e4;"/><path d="M659.02,335.87c-6.96-3.24-11.55-9.23-11.55-18.26v-2.81c-1.36-78.07-69.97-99.96-75.52-186.33-.42-6.48-.36-12.81,.14-18.98C582.84,43.98,645.1,0,715.06,0c79.71,0,149.44,57.11,144.33,138.1-5.28,83.79-70.65,105.03-71.94,180.77,0,8.2-8.77,17.66-16.23,16.99h-112.19Z" style="fill:#c4d1eb; fill-rule:evenodd;"/><path d="M777.51,407.12c-.87,8.77-8.32,15.67-17.29,15.67h-13.31l-5.18,8.46c-2.97,4.86-4.72,5.19-10.43,5.19h-31.28c-5.71,0-7.44-.3-10.43-5.19l-5.18-8.46h-13.31c-8.85,0-16.23-6.72-17.25-15.33v-6.08c.47-1.98,2.26-3.47,4.39-3.47h114.85c2.14,0,3.94,1.51,4.39,3.51,.04,.18-.07,.56,.03,.64v5.06h0Zm-117.65-39.96h111.61c3.38,0,6.13,2.76,6.13,6.13v9.51c0,3.37-2.76,6.13-6.13,6.13h-111.61c-3.37,0-6.13-2.76-6.13-6.13v-9.51c0-3.37,2.76-6.13,6.13-6.13h0Zm.25-31.3h111.11c3.51,0,6.38,2.87,6.38,6.38v9.9c0,3.51-2.87,6.38-6.38,6.38h-111.11c-3.51,0-6.38-2.87-6.38-6.38v-9.9c0-3.51,2.87-6.38,6.38-6.38Z" style="fill:#9db2d9; fill-rule:evenodd;"/><path d="M698.03,335.87l-11.81-142.92h-17.12c-7.39,0-14.11-3.02-18.98-7.89h.01c-4.87-4.89-7.9-11.6-7.9-18.98s3.02-14.11,7.88-18.98c4.87-4.86,11.58-7.89,18.98-7.89s13.63,2.92,18.34,7.64c4.79,4.78,7.86,11.44,8.49,18.71l1.34,15.31h52.37l1.34-15.31c.63-7.25,3.71-13.91,8.5-18.71,4.71-4.71,11.04-7.64,18.34-7.64s14.09,3.03,18.96,7.9h.01c4.86,4.85,7.89,11.57,7.89,18.96s-3.02,14.11-7.89,18.98c-4.86,4.87-11.58,7.89-18.97,7.89h-17.12l-11.81,142.92h-12.05l11.76-142.92h-50.26l11.76,142.92h-12.05Zm-12.87-154.98l-1.25-14.28c-.38-4.42-2.19-8.41-5-11.21-2.53-2.53-5.93-4.1-9.81-4.1s-7.76,1.67-10.45,4.35c-2.68,2.68-4.35,6.38-4.35,10.45s1.66,7.78,4.33,10.45h.02c2.69,2.68,6.38,4.35,10.45,4.35h16.07Zm76.58,0h16.07c4.06,0,7.76-1.67,10.44-4.35,2.68-2.68,4.35-6.38,4.35-10.45s-1.67-7.77-4.35-10.45v-.02c-2.67-2.67-6.37-4.33-10.44-4.33s-7.28,1.57-9.81,4.1c-2.82,2.82-4.63,6.81-5.02,11.21l-1.25,14.28Z" style="fill:#fff; fill-rule:evenodd;"/><path d="M767.62,50.21c-3.83-1.61-5.63-6.03-4.01-9.86,1.61-3.83,6.03-5.63,9.86-4.01,3.13,1.33,6.09,2.75,8.87,4.24,2.88,1.54,5.68,3.22,8.41,5.03,3.47,2.3,4.42,6.98,2.13,10.45-2.3,3.47-6.98,4.42-10.45,2.12-2.32-1.54-4.73-2.98-7.23-4.32-2.55-1.37-5.09-2.6-7.58-3.65h0Zm33.15,24.06c-2.74-3.15-2.4-7.92,.74-10.66,3.15-2.74,7.91-2.4,10.65,.74,7.97,9.16,14.35,19.73,18.7,31.28,4.2,11.15,6.49,23.16,6.49,35.65,0,4.17-3.38,7.56-7.56,7.56s-7.55-3.38-7.55-7.56c0-10.69-1.94-20.91-5.49-30.34-3.69-9.8-9.14-18.81-15.98-26.67Z" style="fill:#fff; fill-rule:evenodd;"/><path d="M509.2,1439.29c155.39,0,281.35,14.51,281.35,32.41s-125.97,32.4-281.35,32.4-281.35-14.51-281.35-32.4,125.97-32.41,281.35-32.41Z" style="fill:#c4d1eb; fill-rule:evenodd;"/><path d="M741.67,1464.2c-37.55-.6-65.61-1.05-78.58-5.15-13.99-4.42-11.1-12.95-3.06-26.59,35.39,16.27,25.96-3.35,42.51-.86,11.63,9.37,28.86,15.64,51.67,18.82,9.65,7.12,5.73,13.46-12.54,13.78Z" style="fill:#0e2952; fill-rule:evenodd;"/><path d="M693.44,892.1h-232c-4.57,0-9.29,3.74-10.49,8.31l-41.28,157.18c-1.2,4.57,1.56,8.31,6.13,8.31h232c4.57,0,9.29-3.74,10.49-8.31l41.27-157.18c1.2-4.58-1.56-8.31-6.13-8.31Z" style="fill:#c4d1eb; fill-rule:evenodd;"/><path d="M445.99,896.63l-28.02,106.71c-33.66-16.42-74.19-42.77-116.71-76.58-1.15-15.21-2.56-27.35-4.25-36.4,3.41-6.76,7.15-14,11.22-21.69-39.24-.25-63.17-8.69-71.79-25.32,10.5-30.72,25.17-62.08,44.02-94.09,13.19-19.5,39.01-30.96,77.46-34.38,4.5,51.57,83.59,48.92,64.99,4.53,28.7,7.7,53.01,21.93,72.93,42.7,17.14,42.23,27.6,71.71,31.36,88.42-18.61,13.03-36.24,21.47-52.9,25.32-.76,3.65-1.36,7.81-1.79,12.46h-16.02c-4.57,0-9.29,3.74-10.49,8.31Z" style="fill:#6d96ce; fill-rule:evenodd;"/><path d="M417.97,1003.33l28.02-106.71c1.2-4.57,5.92-8.31,10.49-8.31h232c4.57,0,12.72,5.91,11.36,10.44,.22-3.79-2.39-6.65-6.4-6.65h-232c-4.57,0-9.29,3.74-10.49,8.31l-41.28,157.18c-.72,2.74-.02,5.18,1.65,6.7-3.82-2.47-7.46-7.24-6.61-10.48l13.26-50.48Z" style="fill:#859ac6; fill-rule:evenodd;"/><path d="M415.8,1065.9h232c.85,0,1.71-.13,2.55-.37-4.62,11.97-17.17,10.2-22.06,10.16H353.22c-14.91-.63-14.52-11.09-14.71-21.16h66.08c-.22,3.2,3.18,7.47,6.72,9.76,1.11,1.01,2.65,1.61,4.48,1.61Z" style="fill:#859ac6; fill-rule:evenodd;"/><path d="M448.27,956.73c24.87,12.58,54.29,16.44,84.54,17.99-.34,1.09-.6,2.2-.77,3.34-2.02,12.75,6.97,23.6,19.95,23.6,12.23,0,23.32-9.69,25.23-21.72,.2-1.31,.3-2.6,.28-3.85,31.41,.85,61.75,2.57,86.84,12.39l-17.25,65.71h-224.4l25.59-97.45Z" style="fill:#9db2d9; fill-rule:evenodd;"/><path d="M557,963.94c-8.32,0-16.12,6.74-17.44,15.05-1.32,8.32,4.36,15.06,12.67,15.06s16.12-6.74,17.44-15.06c1.32-8.31-4.36-15.05-12.67-15.05Z" style="fill:#9db2d9; fill-rule:evenodd;"/><path d="M290.07,1027.61c4.63-14.11,7.96-28.75,9.98-43.91,31.24,12.1,66.97,23.77,112.14,41.61l-6.1,23.23c-68.26,2.23-106.94-4.74-116.03-20.93Z" style="fill:#6d96ce; fill-rule:evenodd;"/><path d="M412.2,1025.31c-45.17-17.84-80.9-29.51-112.14-41.61-27.53-10.66-51.59-21.66-75.55-37.51,1-30.6,5.55-60.2,18.21-94.51,11.63,11.12,33.46,16.79,65.49,16.99-9.27,17.53-16.83,32.64-22.67,45.34,48.19,39.96,94.63,70.9,132.41,89.33l-5.77,21.97Z" style="fill:#f9af79; fill-rule:evenodd;"/><path d="M521.18,854.61c3.48,12.15,6.7,23.39,9.67,33.71h-58.35c.43-4.65,1.03-8.81,1.79-12.46,14.85-3.43,30.48-10.5,46.89-21.24Z" style="fill:#f9af79; fill-rule:evenodd;"/><path d="M662.83,1420.09c-34.51-125.15-46.85-213.06-37.02-263.74-19.61,2.79-39.31,3.67-59.09,2.63,3.01-13.54,6.03-27.11,9.11-40.86-.35-18.66-9.89-32.51-43.7-42.44h96.15c3.27,.02,9.94,.82,15.39-2.21,30.97,8.85,46.1,23.46,51.28,41.3,3.77,49.09-6.43,105.01,2.26,305.67-10.84,1.12-22.3,1-34.39-.37Z" style="fill:#0e2952; fill-rule:evenodd;"/><path d="M626.79,1075.69h1.5c3.27,.03,9.94,.82,15.39-2.2,30.98,8.85,46.1,23.46,51.28,41.3,3.77,49.1-6.43,105.01,2.26,305.68-6.46,.66-13.15,.9-20.06,.68-17.83-69.75-60.24-240.85-12.46-314.59-11.21-11.89-23.85-22.18-37.91-30.87Z" style="fill:#1d417f; fill-rule:evenodd;"/><path d="M357.96,715.42c6.14-7.82,11.56-15.09,13.15-20.25-1.24-3.53-2.54-7.99-3.89-13.39-23.03-15.64-26.18-27.21-9.44-34.71,3.37,1.89,7.56,7.71,12.56,17.47,3.99-.16,7.02-2.2,9.08-6.12-4.76-16.47-7.85-29.84-9.28-40.12,11.34-16.86,37.88-19.27,73.02-14.72,1.63,9.35,2.97,19.26,4.01,29.72,6.22,5.72,5.41,26.94-.31,51.39,2.86,13.91-5.72,21.5-25.76,22.77-.29,4.93,1.65,11.22,1.8,11.97h0c0,.05,.03,.1,.06,.16,18.27,44.07-60,46.78-64.99-4.16Z" style="fill:#f9af79; fill-rule:evenodd;"/><path d="M443.16,603.57c-35.14-4.55-61.68-2.14-73.02,14.72,1.44,10.28,4.53,23.65,9.28,40.12-2.06,3.92-5.09,5.97-9.08,6.12-5-9.75-9.19-15.58-12.56-17.47-16.73,7.5-13.58,19.07,9.44,34.72,1.35,5.39,2.65,9.85,3.89,13.38-20.72-4.64-38.05-23.17-40.49-31.18-24.17-47.63,2.78-67.75,17.2-75.08,6.36-47.17,74.86-5.48,109.18-28.21,13.64,18.84-3.23,42.47-13.86,42.89Z" style="fill:#20386f; fill-rule:evenodd;"/><path d="M395.07,706.84c9.69,.78,18.37,.99,26.03,.61-.2,3.4,.66,7.43,1.26,9.86-12.42-.32-21.52-3.81-27.29-10.47Z" style="fill:#ed7d57; fill-rule:evenodd;"/><path d="M501.21,1150.11h-209.33c-7.48,0-13.6,6.12-13.6,13.6h0c0,7.48,6.12,13.6,13.6,13.6h209.33c7.48,0,13.6-6.12,13.6-13.6h0c0-7.48-6.12-13.6-13.6-13.6Z" style="fill:#9c7357; fill-rule:evenodd;"/><path d="M304.38,1407.73c10.01-10.01,23.82-16.22,39.03-16.22h106.28c15.21,0,29.02,6.22,39.03,16.22,10.01,10.01,16.22,23.83,16.22,39.03v11.15h4.26v13.79h-31.36v-13.79h4.26v-11.15c0-8.9-3.65-17-9.53-22.88-5.88-5.88-13.98-9.53-22.88-9.53h-106.28c-8.9,0-17,3.65-22.88,9.53-5.88,5.88-9.53,13.98-9.53,22.88v11.15h4.26v13.79h-31.36v-13.79h4.26v-11.15c0-15.2,6.22-29.02,16.22-39.03Z" style="fill:#d0a382; fill-rule:evenodd;"/><rect x="385.12" y="1177.32" width="22.85" height="214.18" style="fill:#d0a382;"/><path d="M323.33,1149.26c-40.48-14.53-45.98-54.85-28.18-115.77,14.63,11.97,51.61,16.99,110.94,15.05l-1.39,5.27c-.06,.23-.1,.48-.11,.72h-66.08c.19,10.08-.19,20.53,14.71,21.16h178.9c33.81,9.93,43.35,23.78,43.7,42.44-21.41,95.67-40.46,183.38-66.4,304.61-8.74,4.9-20.71,4.53-35.9-1.13-12.17-117.56-8.83-203.04,10.01-256.47-50.06,.2-103.46-6.62-160.21-15.88Z" style="fill:#1d417f; fill-rule:evenodd;"/><path d="M323.33,1149.26c-40.48-14.53-45.98-54.85-28.18-115.77,3.11,2.55,7.23,4.78,12.37,6.69-14.75,62.6,1.29,96.9,48.85,100.19,55.5,8.24,101.51,12.19,138.03,11.88-16.1,104.36-18.86,195.36-8.28,272.99-3.92-.75-8.12-1.96-12.6-3.63-12.17-117.56-8.83-203.04,10.01-256.47-50.06,.2-103.46-6.62-160.21-15.88Z" style="fill:#0e2952; fill-rule:evenodd;"/><path d="M693.6,1420.79c1,3.77,2.64,7.32,4.91,10.65-10.83,1.01-6.66,14.97-35.91,2.16,1.25-3.69,1.95-8.12,2.1-13.31,10.08,1.04,19.71,1.21,28.91,.5Z" style="fill:#f9af79; fill-rule:evenodd;"/><path d="M509.33,1486.17c-19.93-8.22-22.92-21.61-33.88-26.73-11.04-5.15-12.3-14.33-1.51-24.31,7.97,6.37,17.86,14.2,23.1,10.05,3.5-2.77,15.36-2.58,17.71,1.45,10.33,24.02,24.7,16.4,27.54,27.33,.33,14.55-20.41,17.37-32.96,12.2Z" style="fill:#0e2952; fill-rule:evenodd;"/><path d="M505.94,1424.36c-.17,6.39,.7,12.8,2.62,19.23-4.27-.67-9.41-.08-11.52,1.59-4.86,3.84-13.7-2.6-21.32-8.63,1.24-3.45,2.07-7.89,2.5-13.32,11.14,3.49,20.37,3.86,27.71,1.13Z" style="fill:#f9af79; fill-rule:evenodd;"/><path d="M308.22,868.66c5.15-9.32,10.6-21.86,16.36-37.61-3.09,18.34-2.94,31.56-7.93,46.64,4.03,21.34,5.7,43.1,5.29,65.05-6.83-5.12-13.73-10.45-20.69-15.98-1.15-15.21-2.56-27.35-4.25-36.4,3.41-6.76,7.15-14,11.22-21.69h0Zm178.07,3.68c-4.06,1.42-8.05,2.6-12,3.5,1.5-23.36,2.48-42.65,2.94-57.89,4.49,22.51,7.51,40.64,9.05,54.39h0Zm-196.22,155.26c4.63-14.11,7.96-28.75,9.98-43.91,5.79,2.24,11.73,4.46,17.85,6.72-2.46,16.6-5.97,33.22-10.43,49.75-8.74-3.27-14.54-7.45-17.41-12.55Z" style="fill:#466fb5; fill-rule:evenodd;"/><path d="M1363.37,1369.58c181.53,0,328.67,17.42,328.67,38.92s-147.14,38.92-328.67,38.92-328.67-17.42-328.67-38.92,147.15-38.92,328.67-38.92Z" style="fill:#c4d1eb; fill-rule:evenodd;"/><path d="M1426.96,727.76c-2.18-4.51-4.63-12.52-5.82-26.8,.18,1.41,2.65,19.43,9.58,29.63,28.45,18.68,82.98,81.06,81.89,92.87,0,0,19.22-32.58,19.55-32.78,0,0,35.43-45.05-6.56-70.86-21.34-13.12-21.23-29.96-20.34-44.58,.9-14.63-5.82-77.58-48.57-61.11,0,0-6.87-3.05-9.95-2.59,0,0,2.51,.48,3.79,1.8-4.95-.29-12.05,.07-17.95,3.43-15.68,8.91-29.7,88.81-5.61,110.98Z" style="fill:#20386f; fill-rule:evenodd;"/><path d="M1358.74,632.56c-16.73,33.45-2.88,71.96,30.01,85.56,33.1,13.7,69.31,5.92,86.03-27.53,16.72-33.44,4.31-73.54-27.75-89.56-32.04-16.03-71.57-1.91-88.3,31.53Z" style="fill:#20386f; fill-rule:evenodd;"/><path d="M1397.75,762.7c-19.03,4.26-43.06,57.15-54.83,91.05-11.87,34.17-31.99,76.57-45.16,89.73-13.17,13.18-99.74,43.71-99.74,43.71,0,0,213.87,.42,209.5,0-4.39-.43-9.77-224.49-9.77-224.49Z" style="fill:#6d96ce; fill-rule:evenodd;"/><path d="M1284.21,970.2c11.71-1.68,53.94,3.76,35.96-3.77-17.98-7.52-15.47-17.14-15.47-17.14,0,0,25.51,21.32,30.1,2.67,3.97-16.07,5.49-72.85,20.54-129.75,12.44-28.22,28.71-56.44,42.4-59.51,0,0,.48,20.04,1.27,48.13-5.25,62.17-14.17,153.5-16.43,176.53-28.35,.04-75.79,0-115.48-.06l-26.4-1.26s31.78-14.17,43.49-15.84Z" style="fill:#466fb5; fill-rule:evenodd;"/><path d="M1467.73,750.98s60.54,33.82,74.65,41.02c14.11,7.2-39.54,218.36-51.47,227.41-11.93,9.05-116.98,1.56-128.94-9.85-11.97-11.4,9.18-46.39-1.18-116.45-10.34-70.07,31.58-130.55,36.96-130.42,5.38,.13,40.53-11.72,40.53-11.72h29.45Z" style="fill:#6d96ce; fill-rule:evenodd;"/><path d="M1490.91,1019.41c-11.93,9.05-87.1,9.25-119.1-.7-3.61-1.12-20.01-7.66-20.38-13.8,3.85-.72,19.19,1.12,25.41-.31,21.64-4.97,33.57-31.78,33.57-31.78,0,0,11.91-4.29,38.57-15.58,26.66-11.29,15.68-45.48,16.3-60.53,.64-15.05,26.35-64.3,74.65-101.62l4.42,1.98c3.45,34.32-42.4,213.97-53.44,222.34Z" style="fill:#466fb5; fill-rule:evenodd;"/><path d="M1430.57,966.86c-38.06,7.11-47.41,15.85-68.16,19.19-23.52,3.79-20.72,8.98-3.25,8.98s61.36,.68,76.42-2.66c15.07-3.34-5-25.51-5-25.51Z" style="fill:#f9af79; fill-rule:evenodd;"/><path d="M1547.14,795.96c29.17,93.26,70.51,199.07,63.93,199.07s-174.06,6.77-180.65,1.13c-6.59-5.63-4.7-27.27-3.77-30.1,.95-2.82,95.22-19.55,95.22-19.55,0,0-12.42-24.19-17.12-71.47-4.71-47.28,36.87-96.75,42.39-79.07Z" style="fill:#6d96ce; fill-rule:evenodd;"/><path d="M1445.55,669.95l23.49,85.85s-39.69,61.97-50.61,56.46c-10.92-5.51,6.1-50.37,6.1-56.46s-17.01-69-17.01-69l38.03-16.85Z" style="fill:#f9af79; fill-rule:evenodd;"/><path d="M1423.72,760.17c.51-2.03,.82-3.56,.82-4.37,0-6.1-17.01-69-17.01-69l38.03-16.85,7.78,28.41c-6.79,29.35-19.04,48.89-29.61,61.82Z" style="fill:#f29e63; fill-rule:evenodd;"/><path d="M1357.64,668.53c-4.48,24.89-1.53,57.96,20.58,66.37,22.11,8.41,48.74-7.68,59.48-35.92,10.74-28.25,1.53-57.96-20.58-66.37-22.11-8.4-54.13,6.19-59.48,35.93Z" style="fill:#f9af79; fill-rule:evenodd;"/><path d="M1432.46,682.54c-3.1,8.7-.41,17.61,6.01,19.9,6.42,2.28,14.14-2.92,17.24-11.63,3.09-8.7,.41-17.61-6.01-19.9-6.42-2.28-14.14,2.92-17.23,11.63Z" style="fill:#f9af79; fill-rule:evenodd;"/><path d="M1357.38,637.25c7.53,58.42,78.51,50.89,78.51,50.89,0,0,14.64-19.24,21.23-9.15,6.59,10.09-9.13-59.23-49.86-61.41-13.39-.72-49.87,19.67-49.87,19.67Z" style="fill:#20386f; fill-rule:evenodd;"/><polygon points="1544.54 1419.52 1535.75 1419.52 1478.99 1156.52 1498.32 1156.52 1544.54 1419.52" style="fill:#9c7357; fill-rule:evenodd;"/><polygon points="1271.23 1419.52 1280.02 1419.52 1346.09 1147.22 1326.75 1147.22 1271.23 1419.52" style="fill:#9c7357; fill-rule:evenodd;"/><path d="M1444.24,1166.37c35.22,0,57.53-6.32,71.76-20.19,17.64-17.19,21.3-43.82,21.35-78.52,.04-27.31,.7-45.09,2.17-59.47,.56-5.41-3.38-10.26-8.79-10.81-5.41-.55-10.25,3.38-10.81,8.79-1.55,15.08-2.23,33.45-2.28,61.46-.06,35.17-4.52,53.84-15.4,64.43-11.17,10.88-31.35,15.36-65.44,14.51-32.91-.82-55.58-5.41-73.78-9.12-23.95-4.86-41.25-8.38-61.76,1.42-4.92,2.35-6.99,8.23-4.65,13.14,2.35,4.91,8.24,6.99,13.14,4.64,14.57-6.95,26.92-4.44,49.35,.12,18.96,3.85,42.56,8.64,77.21,9.51,2.71,.05,5.34,.09,7.91,.09Z" style="fill:#9c7357; fill-rule:evenodd;"/><path d="M1524.25,996.16l-53.91,2.25,14.35,148.82s40.19-25.65,39.56-53.24c-.63-27.6,0-97.82,0-97.82Z" style="fill:#9c7357; fill-rule:evenodd;"/><path d="M1258.15,1010.03c-45.58-6.92-61.07-4.73-88.96,47.18-27.89,51.91-65.03,145.37-86.37,157.45-32.16,18.18-42.82,62.75-56.02,60.75-13.2-2.01-21.7,3.83-7.33,15.76,14.36,11.94,37.57,22.11,45.49,19.99,7.94-2.11,14.09-36.4,34.81-47.53,20.72-11.13,14.49-20.27,13.13-30.12-1.36-9.85,60.48-55.17,107.11-111.54,28.49-34.45,43.16-57.18,45.33-77.79,2.17-20.6-7.19-34.17-7.19-34.17Z" style="fill:#f9af79; fill-rule:evenodd;"/><path d="M1145.16,1198.27c10.58-26.85,21.2-71.18,31.18-111.82,14.2-57.79,29.07-71.51,38.5-77.67,11.39-2.86,24.9-1.55,43.31,1.25,0,0,9.36,13.57,7.19,34.17-2.17,20.61-16.85,43.34-45.33,77.79-24.55,29.68-53.31,56.29-74.85,76.28Z" style="fill:#f29e63; fill-rule:evenodd;"/><path d="M1244.27,1055.71s12.12,91.5,23.42,100.81c8.07,6.65,13.79,7.1,19.44-20.2,5.65-27.29-8.78-129.15-8.78-129.15l-34.08,48.54Z" style="fill:#0e2952; fill-rule:evenodd;"/><polygon points="1253.93 1105.23 1366.17 1124.09 1302.81 1033.23 1254.58 1023.41 1225.66 1030.06 1253.93 1105.23" style="fill:#f1944e; fill-rule:evenodd;"/><path d="M1112.9,1233.53c3.64,14.66,3.21,25.5-3.12,30.93-6.32,5.43-30.21,45.79-30.21,45.79l-7.44-1.13,17.23-36.93,23.54-38.67Z" style="fill:#0e2952; fill-rule:evenodd;"/><path d="M1064.96,1311.17c-7.92,2.11-31.13-8.05-45.49-19.99-14.37-11.94-5.87-17.78,7.33-15.76,.74,.11,1.48,.06,2.21-.12,6.59,14.73,28.28,25.78,35.28,10.22,6.94-15.42,36.66-46.11,48.63-52.68-.03,.24-.04,.47-.01,.69,1.36,9.85,7.59,18.99-13.13,30.12-20.72,11.13-26.88,45.41-34.81,47.53Z" style="fill:#0e2952; fill-rule:evenodd;"/><path d="M1487.23,1013.69c39.82,71.46,12.62,116.88-35.78,121.51-48.4,4.62-124.8-4.21-169.34-41.22-44.54-37-81.09-76.15-75.99-81.98,5.11-5.84,281.11,1.69,281.11,1.69Z" style="fill:#f29e63; fill-rule:evenodd;"/><path d="M1261.41,1067.01c-8.15-24.46-17.55-43.23-35.75-43.57-19.14-.35-30.91,9.6-31.73,40.9-.97,37.28-2.29,160.74-.56,215.63,1.3,41.55-10.81,54.86-9.79,98.17,.77,32.63-34.02,16.14-20.58,33.08,9.24,11.63,36.74,7.83,53.64,5.68,15.05-1.91-7.79-47.03,13.04-59.09,17.88-10.35,18.23-27.15,6.94-39.87-11.29-12.72-1.26-50.35,6.27-76.7,7.53-26.34,19.21-54.85,26.87-117.15,2.19-17.76-3.36-42.14-8.35-57.08Z" style="fill:#f9af79; fill-rule:evenodd;"/><path d="M1174.91,1397.89c5.77,1.76,12.87,3.7,19.06,3.91,12.55,.42,16.31-13.38,17.14-32.13,.74-16.37,12.62-42.15,24.82-52.6,.23,.29,.45,.59,.7,.86,11.29,12.72,10.94,29.52-6.94,39.87-20.83,12.06,2.01,57.17-13.04,59.09-16.89,2.15-44.39,5.96-53.64-5.68-8.73-11,2.1-11.88,11.9-13.33Z" style="fill:#0e2952; fill-rule:evenodd;"/><path d="M1233.81,1313.27s18.3,19.11,16.62,27.05c-1.67,7.95-7.31,28.02-8.25,43.5-.95,15.47-1.78,33.24-1.78,33.24,0,0-6.59,0-7.11-1.88-.53-1.87-4.18-62.89-4.18-62.89l4.71-39.01Z" style="fill:#0e2952; fill-rule:evenodd;"/><path d="M1506.41,1007.18s23.61,100.24-6.23,128.03c-29.84,27.78-153.76,2.79-182.94,1.12-19.76-1.12-38.89,22.99-38.89,22.99,0,0,13.8-55.93,4.39-101.09-9.4-45.16-24.59-48.2-24.59-48.2l20.2-2.85h228.06Z" style="fill:#1d417f; fill-rule:evenodd;"/><path d="M1511.76,980.96c-10.1,21.43,10.87,58.45,3.53,69.11-7.36,10.67-49.43,1.49-77.01-20.69-27.57-22.2-79.76-27.08-79.76-27.08l153.24-21.34Z" style="fill:#6d96ce; fill-rule:evenodd;"/><path d="M1469.04,1163.61c-83.43,3.13-171.25,1.66-171.25-10.78s3.77-21.21,68.38-16.19c64.61,5.02,108.51,11.92,127.96,7.53,19.45-4.39-25.08,19.44-25.08,19.44Z" style="fill:#9c7357; fill-rule:evenodd;"/><path d="M1659.96,1017.74h-590.47c-2.52,0-4.56-4.06-4.56-9.08v-4.54c0-5.02,2.04-9.09,4.56-9.09h590.47c2.52,0,4.56,4.07,4.56,9.09v4.54c0,5.01-2.04,9.08-4.56,9.08Z" style="fill:#9c7357; fill-rule:evenodd;"/><path d="M1054.53,811.47h232c4.57,0,9.3,3.74,10.49,8.31l41.28,157.18c1.2,4.57-1.55,8.31-6.13,8.31h-232c-4.57,0-9.3-3.74-10.49-8.31l-41.28-157.18c-1.21-4.58,1.56-8.31,6.13-8.31Z" style="fill:#c4d1eb; fill-rule:evenodd;"/><path d="M1330,922.71l-28.03-106.71c-1.2-4.57-5.92-8.31-10.49-8.31h-232c-4.57,0-12.71,5.91-11.36,10.43-.22-3.79,2.39-6.65,6.4-6.65h232c4.57,0,9.29,3.74,10.49,8.31l41.28,157.18c.72,2.74,.02,5.18-1.65,6.7,3.82-2.47,7.46-7.23,6.61-10.48l-13.25-50.48Z" style="fill:#859ac6; fill-rule:evenodd;"/><path d="M1332.17,985.28h-232c-.85,0-1.71-.13-2.55-.38,4.62,11.97,17.16,10.2,22.07,10.16h275.06c14.91-.63,14.52-11.08,14.71-21.16h-66.08c.22,3.2-3.18,7.47-6.72,9.76-1.11,1.01-2.65,1.62-4.48,1.62Z" style="fill:#859ac6; fill-rule:evenodd;"/><path d="M1299.7,876.1c-24.87,12.58-54.28,16.45-84.54,17.99,.33,1.09,.6,2.2,.77,3.34,2.02,12.75-6.97,23.6-19.95,23.6-12.23,0-23.32-9.69-25.23-21.72-.2-1.31-.29-2.6-.28-3.85-31.41,.85-61.75,2.57-86.84,12.39l17.26,65.71h224.4l-25.59-97.45Z" style="fill:#9db2d9; fill-rule:evenodd;"/><path d="M1190.96,883.32c8.31,0,16.12,6.74,17.45,15.05,1.31,8.31-4.36,15.05-12.68,15.05s-16.12-6.74-17.44-15.05c-1.32-8.32,4.36-15.05,12.67-15.05Z" style="fill:#9db2d9; fill-rule:evenodd;"/></svg>