<?xml version="1.0" encoding="UTF-8"?><svg id="a" xmlns="http://www.w3.org/2000/svg" viewBox="0 0 2513.54 3009.75"><path d="M2089.66,685.45c-167.65-259.01-556.52,73.29-801.92-21.4C962.95,538.71,768.89,52.43,486.38,262.06-9.61,630.13-172.85,1473.48,216.68,2075.36c389.58,601.88,1220.74,575.3,1716.66,207.28,495.97-368.07,545.85-995.32,156.32-1597.2h0Zm0,0" style="fill:#e9eef7; fill-rule:evenodd;"/><path d="M166.2,1036.1c6.26,0,12.25,1.03,17.7,2.88-.6-2.88-.87-5.82-.87-8.87,0-25.97,22.54-46.99,50.37-46.99,4.9,0,9.69,.65,14.21,1.91,7.02-33.27,37.74-58.26,74.59-58.26,42.04,0,76.12,32.56,76.12,72.74,0,6.91-1.03,13.61-2.89,19.93,27.5,1.85,49.17,21.18,49.17,46.12s-23.85,44.81-38.55,48.9c-2.17,.6-5.17,.6-8.71,0H166.2c-25.96,0-46.99-17.53-46.99-39.15s21.03-39.2,46.99-39.2h0Zm0,0" style="fill:#fff; fill-rule:evenodd;"/><path d="M1258.44,1595.5c6.28,0,12.2,1.03,17.64,2.89-.55-2.89-.87-5.83-.87-8.88,0-25.97,22.54-46.99,50.37-46.99,4.95,0,9.69,.66,14.21,1.91,7.02-33.27,37.79-58.26,74.59-58.26,42.03,0,76.12,32.56,76.12,72.74,0,6.92-.98,13.61-2.89,19.93,27.55,1.85,49.17,21.18,49.17,46.12s-23.85,44.81-38.49,48.9c-2.23,.6-5.23,.6-8.71,0h-231.14c-25.97,0-47.04-17.53-47.04-39.2s21.07-39.15,47.04-39.15h0Zm0,0" style="fill:#fff; fill-rule:evenodd;"/><path d="M1152.05,858.49c6.26,0,12.25,1.04,17.7,2.89-.6-2.89-.91-5.83-.91-8.88,0-25.92,22.58-46.99,50.4-46.99,4.9,0,9.69,.65,14.21,1.91,7.03-33.27,37.74-58.26,74.59-58.26,42.04,0,76.12,32.56,76.12,72.74,0,6.92-1.02,13.61-2.89,19.93,27.5,1.85,49.17,21.18,49.17,46.17s-23.85,44.75-38.55,48.84c-2.18,.65-5.17,.6-8.71,0h-231.14c-25.97,0-46.99-17.53-46.99-39.15s21.02-39.2,46.99-39.2h0Zm0,0" style="fill:#fff; fill-rule:evenodd;"/><path d="M1352.47,1.68c-44.76,17.1-27.33,159.92,38.93,318.96,66.26,159.1,156.21,274.2,200.97,257.1,44.75-17.1,27.33-159.91-38.93-318.96C1487.24,99.69,1397.23-15.41,1352.47,1.68h0Zm0,0" style="fill:#aabcdd; fill-rule:evenodd;"/><path d="M889.77,389.9l-93.11,35.61c-21.18,8.06-18.62,61.85,5.62,120.17,24.27,58.26,61.13,98.99,82.26,90.87l93.18-35.55c-21.19,8.06-58.06-32.61-82.34-90.87-24.23-58.31-26.78-112.11-5.61-120.22h0Zm0,0" style="fill:#aabcdd; fill-rule:evenodd;"/><path d="M895.38,510.13c-22.43-53.91-26.29-104-9.95-117.61,182.39-91.58,331.25-212.67,446.68-363.39-14.63,51.89,7.3,166.72,59.3,291.52,52.6,126.32,120.13,224.87,168.14,251.55-207.5-32.62-403.19-22.7-586.9,29.84-21.62,.82-54.77-38.06-77.26-91.91h0Zm0,0" style="fill:#cfdaee; fill-rule:evenodd;"/><path d="M1444.17,258.13l-69.42,20.2c5.17,13.94,10.72,28.04,16.66,42.31,7.79,18.67,15.84,36.75,24.18,54.07l63.38-33c21.62-11.27,33.76-34.69,24.23-57.66-9.58-22.98-35.45-32.78-59.02-25.92h0Zm0,0" style="fill:#becce7; fill-rule:evenodd;"/><path d="M987.03,598l32.38,157.25c4.86,23.63,46.23,22.59,67.84,11.87,21.62-10.78,73.61-55.48,51.51-65.23-42.52-18.84-67.68-58.8-73.29-122.62-26.35,5.45-52.55,11.66-78.45,18.73h0Zm0,0" style="fill:#aabcdd; fill-rule:evenodd;"/><path d="M417.38,2085.38c2.5-33.87,3.81-68.55,3.81-103.73,0-393.45-159.86-712.41-357.13-712.41-21.62,0-42.8,3.87-63.38,11.22-7.51,272.95,59.73,553.36,216,794.89,2.23,3.38,4.52,6.7,6.75,10.02h193.95Zm0,0" style="fill:#cfdaee; fill-rule:evenodd;"/><path d="M1638.55,2403.36c-3.7-40.24-5.65-81.4-5.65-123.22,0-467.17,240.54-845.97,537.5-845.97,62.78,0,122.4,17.15,177.56,48.51-2.67,313.79-140.48,596.49-414.63,799.96-61.58,45.68-128.33,86.08-198.74,120.71h-96.05Zm0,0" style="fill:#cfdaee; fill-rule:evenodd;"/><path d="M89.16,1538.01c81.95,0,155.18,119.24,203.47,306.16,24.61-17.15,50.75-26.46,77.86-26.46,145.49,0,263.42,266.47,263.42,595.18,0,9.31-.11,18.62-.27,27.88-162.42-76.23-307.2-195.85-416.97-365.4-101.82-157.3-165.78-331.16-195.96-508.66,21.78-18.68,44.76-28.69,68.44-28.69h0Zm0,0" style="fill:#becce7; fill-rule:evenodd;"/><path d="M2194.63,2007.19c-81.56-34.46-175.16-54.12-274.75-54.12-315.8,0-571.88,197.38-571.88,440.82,0,21.78,2.12,43.23,6.1,64.2h253.08c117.77-43.78,228.47-102.96,326.15-175.43,108.42-80.42,195.48-173.25,261.3-275.46h0Zm0,0" style="fill:#becce7; fill-rule:evenodd;"/><path d="M1467.58,2396.5c3.92-29.08,5.99-58.7,5.99-88.86,0-336.6-251.06-609.5-560.71-609.5-290.58,0-529.57,240.34-557.88,548.08,59.73,59.35,125.18,109.28,194.78,150.28h917.83Zm0,0" style="fill:#aabcdd; fill-rule:evenodd;"/><path d="M800.2,2502.46c22-162.8,183.33-289.23,379.08-289.23,185.33,0,339.8,113.31,374.38,263.53-242.24,79.17-509.75,93.82-753.46,25.7h0Zm0,0" style="fill:#8ca3ca; fill-rule:evenodd;"/><path d="M739.11,1924.37c-77.15,0-146.09,94.85-191.55,243.66-23.14-13.72-47.79-21.07-73.29-21.07-51.12,0-98.61,29.57-138.08,80.15,177.34,185.94,408.42,284.28,650.12,311.07-10.18-343.52-116.95-613.8-247.2-613.8h0Zm0,0" style="fill:#8ca3ca; fill-rule:evenodd;"/><path d="M1596.73,1505.99s9.64,3.65,13.67-1.31c0,0-1.25,3.7-5.12,4.36-3.87,.65-8.55-3.05-8.55-3.05h0Zm0,0" style="fill:#ed6c50; fill-rule:evenodd;"/><path d="M1799.17,1508.71c-.71,1.42-1.03,3-1.14,4.57,.11,.22-.6,5.34,3.7,9.15-1.69-3.1-3.54-6.59-2.56-13.72h0Zm0,0" style="fill:#f18d81; fill-rule:evenodd;"/><path d="M2133.16,2437.71c-5.23,1.47-10.18,3.65-14.79,6.32-4.7,2.72-9.05,5.99-12.97,9.75-.76,.76-1.91,.87-2.78,.33l-17.53-10.13-.11-.11c-1.03-.55-2.18-.6-3.2-.33-1.1,.27-2.03,.98-2.68,2.02l-.05,.11-12.36,21.34c-.58,1.03-.71,2.23-.44,3.32,.33,1.09,.99,2.07,2.02,2.67l.11,.11,17.42,10.02c.92,.54,1.31,1.58,1.09,2.56-.6,2.61-1.14,5.23-1.47,8-.27,2.61-.49,5.34-.49,8.11s.16,5.5,.49,8.11c.33,2.72,.82,5.39,1.47,8,.27,1.09-.27,2.12-1.2,2.61l-17.42,10.07c-1.02,.6-1.69,1.58-2.02,2.61-.27,1.09-.15,2.29,.44,3.32l12.41,21.51c.6,1.04,1.58,1.74,2.68,2.02,1.02,.27,2.22,.16,3.25-.43l.11-.11,17.42-10.07c.92-.49,2.07-.33,2.78,.38,3.92,3.76,8.28,7.02,13.03,9.75,4.61,2.72,9.57,4.85,14.85,6.37,1.03,.27,1.69,1.2,1.69,2.23v20.2c0,1.2,.49,2.29,1.31,3.1,.78,.76,1.85,1.25,3.06,1.25h24.82c1.2,0,2.29-.49,3.05-1.25,.82-.82,1.31-1.9,1.31-3.1v-20.2c0-1.14,.76-2.07,1.74-2.29,5.23-1.52,10.24-3.65,14.81-6.31,4.74-2.72,9.09-5.99,13.01-9.75,.76-.76,2.02-.87,2.89-.27l17.44,10.08c1.02,.6,2.17,.71,3.25,.38,1.09-.27,2.07-.98,2.67-2.02l.11-.11,12.3-21.4c.6-1.03,.78-2.18,.44-3.27-.28-1.09-.98-2.07-2.02-2.67l-17.53-10.13c-.93-.49-1.31-1.58-1.09-2.56,.65-2.56,1.14-5.23,1.47-7.95,.33-2.67,.49-5.39,.49-8.17s-.16-5.45-.49-8.11c-.33-2.72-.82-5.39-1.47-7.95-.27-1.09,.27-2.18,1.25-2.67l17.37-10.02c1.03-.6,1.74-1.58,2.02-2.67,.34-1.09,.16-2.23-.44-3.27l-.05-.16-12.36-21.4v.05c-.6-1.09-1.58-1.74-2.67-2.02-1.09-.33-2.23-.22-3.25,.38l-17.6,10.13c-.93,.54-2.07,.38-2.78-.38-3.92-3.76-8.22-7.02-12.96-9.75-4.63-2.67-9.58-4.79-14.85-6.32-1.05-.27-1.7-1.2-1.7-2.23v-20.25c0-1.2-.49-2.23-1.31-3.05-.76-.76-1.85-1.25-3.05-1.25h-24.82c-1.21,0-2.29,.49-3.06,1.25-.82,.82-1.31,1.85-1.31,3.05v20.25c0,1.09-.76,2.02-1.8,2.29l.05,.05Zm-8.17,37.41c6.86-6.8,16.28-11.05,26.73-11.05s19.82,4.25,26.68,11.05c6.81,6.86,11.05,16.28,11.05,26.74s-4.25,19.82-11.05,26.68c-6.86,6.81-16.28,11.05-26.68,11.05s-19.87-4.25-26.73-11.05c-6.81-6.86-11.05-16.28-11.05-26.68s4.25-19.87,11.05-26.74h0Zm0,0" style="fill:#cfdaee; fill-rule:evenodd;"/><path d="M2337.12,2287.38c-34.3,0-62.18-27.82-62.18-62.18s27.88-62.18,62.18-62.18,62.18,27.88,62.18,62.18-27.82,62.18-62.18,62.18h0Zm176.41-29.08v-64.74h-40.22c-3.44-14.7-9.11-28.53-16.73-41.05l28.7-28.64-45.74-45.79-28.46,28.47c-12.48-7.73-26.2-13.61-40.85-17.15v-40.62h-64.69v40.29c-14.75,3.38-28.57,9.04-41.11,16.72l-28.69-28.69-45.74,45.73,28.48,28.42c-7.79,12.47-13.61,26.24-17.15,40.89h-40.62v64.69h40.24c3.43,14.7,9.09,28.53,16.77,41.05l-28.69,28.7,45.74,45.74,28.48-28.48c12.41,7.79,26.19,13.61,40.84,17.21v40.56h64.7v-40.24c14.69-3.43,28.52-9.09,41.04-16.72l28.69,28.7,45.75-45.74-28.49-28.48c7.79-12.47,13.61-26.19,17.2-40.84h40.56Zm0,0" style="fill:#cfdaee; fill-rule:evenodd;"/><path d="M2317.41,382.39c107.97,0,195.47,87.56,195.47,195.53s-87.5,195.53-195.47,195.53-195.53-87.56-195.53-195.53,87.56-195.53,195.53-195.53h0Zm0,0" style="fill:#e9eef7; fill-rule:evenodd;"/><path d="M2317.41,411.2c92.07,0,166.72,74.64,166.72,166.71s-74.65,166.72-166.72,166.72-166.77-74.65-166.77-166.72,74.65-166.71,166.77-166.71h0Zm0,0" style="fill:#fff; fill-rule:evenodd;"/><path d="M2317.41,422.68c85.7,0,155.18,69.53,155.18,155.23s-69.48,155.23-155.18,155.23-155.23-69.48-155.23-155.23,69.48-155.23,155.23-155.23h0Zm0,0" style="fill:#cfdaee; fill-rule:evenodd;"/><path d="M2364.57,497.87c-7.95-4.14-19.22-8.22-34.67-8.71v-25.48h-23.59v27.44c-25.54,5.77-40.67,24.07-40.67,47.64s16.61,36.86,39.96,47.92c22.16,9.64,30.11,17.59,30.11,29.89s-8.44,21.4-25.81,21.4c-15.14,0-29.35-5.28-38.77-10.84l-7.19,27.01c9.15,5.28,24.77,10.07,40.18,10.56v27.44h23.63v-29.35c27.17-5.28,43.07-25.05,43.07-49.6s-12.96-38.55-41.38-51.29c-19.06-9.42-29.4-16.12-29.4-27.22,0-9.36,8.17-19.28,24.34-19.28,13.94,0,25.77,5.06,33,8.71l7.19-26.24Zm0,0" style="fill:#fff; fill-rule:evenodd;"/><path d="M1943.46,181.2c92.07,0,166.67,74.59,166.67,166.67s-74.59,166.61-166.67,166.61-166.67-74.6-166.67-166.61,74.65-166.67,166.67-166.67h0Zm0,0" style="fill:#e9eef7; fill-rule:evenodd;"/><path d="M1943.46,205.7c78.53,0,142.17,63.65,142.17,142.16s-63.64,142.11-142.17,142.11-142.11-63.65-142.11-142.11,63.65-142.16,142.11-142.16h0Zm0,0" style="fill:#fff; fill-rule:evenodd;"/><path d="M1943.46,215.5c73.07,0,132.31,59.24,132.31,132.36s-59.24,132.31-132.31,132.31-132.31-59.24-132.31-132.31,59.25-132.36,132.31-132.36h0Zm0,0" style="fill:#cfdaee; fill-rule:evenodd;"/><path d="M1983.7,279.59c-6.75-3.49-16.39-6.97-29.57-7.41v-21.73h-20.09v23.36c-21.78,4.96-34.68,20.53-34.68,40.67s14.16,31.42,34.09,40.84c18.84,8.22,25.65,14.97,25.65,25.48s-7.19,18.24-22,18.24c-12.91,0-24.99-4.52-33.04-9.25l-6.17,23.03c7.84,4.52,21.18,8.6,34.3,8.98v23.41h20.09v-25.05c23.2-4.52,36.75-21.35,36.75-42.25s-11.05-32.83-35.28-43.72c-16.23-8-25.05-13.77-25.05-23.19,0-8,6.97-16.44,20.76-16.44,11.86,0,21.93,4.3,28.08,7.4l6.15-22.38Zm0,0" style="fill:#fff; fill-rule:evenodd;"/><path d="M1174.06,2697.38c632.9,0,1145.97,69.91,1145.97,156.16s-513.07,156.21-1145.97,156.21S28.07,2939.79,28.07,2853.54s513.07-156.16,1145.99-156.16h0Zm0,0" style="fill:#cfdaee; fill-rule:evenodd;"/><path d="M1809.41,881.57c21.07,12.41,27.55,32.83,41.89,40.46,41.42,3.97,82.31,7.24,101.75,21.07,76.12,94.09,137.59,177.28,184.42,249.59,18.95,40.02,15.14,78.68-11.43,115.98-32.62-30.76-67.94-38.55-106.07-23.36,1.25-16.28,7.25-33.27,17.97-50.91-54.77-49.17-99.64-94.2-134.65-135.2,6.48,53.74-12.58,130.3-57.12,229.5-155.07,10.35-243.99,7.84-266.86-7.51-7.51-44.38-13.5-92.78-17.97-145.21-35.55,32.61-64.41,61.53-86.46,86.79-16.71,5.66-34.68,6.75-53.85,3.38-13.54-32.56-27.17-62.07-40.78-88.48,9.36-8.71,25.7-15.63,48.89-20.85,63.32-92.4,117.99-166.94,164-223.73,35.72-8.5,62.4-12.96,79.98-13.34,7.51-9.09,18.68-16.88,33.44-23.36-8.61,48.51-11.88,106.66-11.39,147.72,67.68-50.75,105.79-117.07,114.23-162.53h0Zm0,0" style="fill:#f99746; fill-rule:evenodd;"/><path d="M1924.35,1744.86c32.18-203.75,6.1-342.48-78.19-416.15-130.95,8.77-214.75,8.33-251.39-1.25-.38,14.32-1.31,31.2-4.25,53.41-22.81,171.79-50.09,438.42-46.39,700.37,92.4,33.21,237.12,31.8,434.07-4.19-22.49-101.88-40.4-212.62-53.85-332.19h0Zm0,0" style="fill:#2b478b; fill-rule:evenodd;"/><path d="M1673.12,919.74c-7.95,23.9-12.2,43.67-12.74,59.24,9.11-7.41,15.84-12.47,20.2-15.25,3.32,38.39,8.17,65.18,14.59,80.37-.49-41.05,2.78-99.21,11.39-147.72-14.77,6.48-25.93,14.27-33.44,23.36h0Zm0,0" style="fill:#ef7e29; fill-rule:evenodd;"/><path d="M1809.41,881.57c-8.44,45.46-46.55,111.79-114.23,162.53,40.47-14.7,84.67-50.64,110.04-98.5,4.19,16.17,9.49,35.12,15.9,56.79,17.59-22.33,27.66-49.11,30.18-80.37-14.34-7.62-20.81-28.04-41.89-40.46h0Zm0,0" style="fill:#ef7e29; fill-rule:evenodd;"/><path d="M2024.54,1283.57c-27.01,56.52-58.59,112.82-90.06,157.57-7.24-7.9-14.21-25.05-24.45-31.63-4.08-2.61-10.55,4.14-14.86,2.07-20.64-9.96-43.56-12.79-62.02,1.36-4.63,3.54-7.13,10.51-7.79,26.95,.76,22.65,19.28,26.95,45.09,16.28,34.46,38.5,57.45,51.02,76.23,37.57,85.16-78.13,141.51-142.98,169.12-194.43-28.42-22.05-58.8-27.28-91.25-15.74h0Zm0,0" style="fill:#fcb88d; fill-rule:evenodd;"/><path d="M1146.6,1273.93c127.57,4.3,218.67,.87,273.33-10.35-13.18-31.58-26.41-60.22-39.69-85.92-101.77,15.46-188.83,26.79-261.35,34.08-26.03-18.29-47.8-25.81-65.23-22.54-4.84,11.22,.33,19.44,15.46,24.61,4.08,5.83,5.72,11.27,4.9,16.28-37.74,16.5-70.89,26.63-99.53,30.44-3.38,34.79,17.59,56.84,62.94,66.32,46.23-12.19,82.6-29.83,109.17-52.92h0Zm0,0" style="fill:#ffb27d; fill-rule:evenodd;"/><path d="M1937.69,2651.86c-23.74,90.77-15.74,139.06,29.09,145.71,59.5,4.36,75.62-55.76,52.27-179.68,.53,6.75,.91,13.01,1.19,18.57,6.59,129.8-91.85,100.78-85,41,.93-8.33,1.74-16.88,2.45-25.59h0Zm0,0" style="fill:#233862; fill-rule:evenodd;"/><path d="M1935.24,2677.45c-6.86,59.78,91.59,88.8,85-41-.27-5.56-.65-11.82-1.19-18.57-4.04-52.87-14.99-137.59-14.17-190.95,2.12-136.39-9.75-252.48-35.5-348.25-47.75,8.49-92.35,14.97-133.84,19.38,22.43,79.71,41.88,152.62,58.31,218.78,20.25,81.18,57.93,201.35,48.51,283.84-2.02,17.64-3.27,34.74-4.68,51.18-.71,8.71-1.52,17.26-2.45,25.59h0Zm0,0" style="fill:#ffb27d; fill-rule:evenodd;"/><path d="M1541.57,2693.08c34.36,1.91,3,29.24,25.38,35.39,48.9-27.33,75.96-101.87,95.45-134.76,10.24-17.31,17.7,4.68,22.77,29.35,10.82,52.92,10.5,122.84-1.75,144.56-8.93-15.9-16.61-64.96-24.77-94.91-47.97,43.67-37.46,91.75-65.94,108.14-68.17,7.73-105.09,9.64-156.87,10.83-11.38-45.08,78.68-29.84,105.74-98.61h0Zm0,0" style="fill:#233862; fill-rule:evenodd;"/><path d="M1567.06,2088.48c6.55,261.79,30.11,495.05-12.56,607.87,11.85,7.84-5.84,27.06,12.45,32.12,48.9-27.33,75.96-101.87,95.45-134.76,.11-.22,.22-.38,.33-.54-2.72-6.97-4.68-14.97-5.88-24.01,.87-217.14,53.9-351.03,43.67-464.12-51.67-.76-96.16-6.32-133.45-16.55h0Zm0,0" style="fill:#ffb27d; fill-rule:evenodd;"/><path d="M1470.25,1264.24c-17.15-33.38-34.3-68.33-51.51-104.87-17.75,4.9-30.6,10.94-38.5,18.29,13.28,25.7,26.51,54.34,39.69,85.92,.38,.82,.71,1.69,1.09,2.56,17.42,3.05,33.87,2.45,49.22-1.9h0Zm0,0" style="fill:#ef7e29; fill-rule:evenodd;"/><path d="M2030.09,1248.94c-5.81,12.47-9.2,24.61-10.13,36.37,1.52-.6,3.05-1.2,4.57-1.74,32.45-11.54,62.83-6.32,91.25,15.74-.11,.16-.11,.27-.22,.38,3.54,2.77,7.03,5.77,10.46,9.04,9.75-13.67,16.39-27.49,20.03-41.54-43.29-25.75-81.95-31.85-115.97-18.24h0Zm0,0" style="fill:#ef7e29; fill-rule:evenodd;"/><path d="M1705.52,868.02c4.36,16.72,3.92,30.93-1.31,42.69-6.86,45.24-9.48,96.32-9.04,133.4,64.63-48.46,102.25-111.08,112.87-156.21-8.53-14.1-12.09-30.6-10.51-49.49-1.58-8.82,3.32-25.21,14.7-49.22,38.66-6.86,48.3-40.08,32.18-66.48-18.08-6.54-27.82,8.6-32.61,35.99-10.29-1.58-6.37-18.4-5.27-26.3,4.83-22.81,.75-35.12-7.36-56.74-46.44,33.43-86.3,34.46-149.73,15.63,1.85,15.57,3.22,30.55,4.08,45.08-17.37,43.29,9.2,116.96,52,131.66h0Zm0,0" style="fill:#ffb27d; fill-rule:evenodd;"/><path d="M1649.44,691.28c63.43,18.84,103.29,17.8,149.73-15.63,8.11,21.62,12.2,33.92,7.36,56.74-1.1,7.9-5.02,24.72,5.27,26.3,4.79-27.39,14.54-42.52,32.61-35.99,16.12,26.41,6.48,59.62-32.18,66.48-11.38,24.01-16.28,40.4-14.7,49.22-1.58,18.89,1.97,35.39,10.51,49.49,.49-2.18,.93-4.3,1.36-6.32,21.07,12.41,27.55,32.83,41.89,40.46,41.42,3.97,82.31,7.24,101.75,21.07,5.61,6.97,11.16,13.83,16.61,20.64,13.29-31.74,20.25-55.1,17.91-65.45-8.93-39.42-49.55-19.65-48.84-42.96,1.09-36.37-49.11-64.85-42.41-101.17,13.67-74.21-14.7-96.7-14.87-102.36-1.69-56.25-34.57-57.71-67.3-76.66-58.08-33.65-108.63,7.51-125.12,8.6-83.96,5.66-37.46,42.58-75.03,75.85-30.98,27.39-16.33,48.19-13.11,64.63,1.4,7.46,8.17,38-13.3,53.47-31.41,22.65-2.67,70.18-21.23,75.96-71.33,22.11-39.13,44.16-37.24,95.17,.65,16.33,8.17,30.98,18.19,42.96,16.17-21.34,31.41-40.89,45.85-58.7,35.72-8.5,62.4-12.96,79.98-13.34,7.51-9.09,18.68-16.88,33.44-23.36-.83,4.68-1.59,9.47-2.35,14.32,5.23-11.76,5.66-25.97,1.31-42.69-42.8-14.7-69.37-88.37-52-131.66-.86-14.54-2.23-29.51-4.08-45.08h0Zm0,0" style="fill:#22407a; fill-rule:evenodd;"/><path d="M1705.52,868.02c25.97,3,37.73,2.78,61.69-6.97-14.05,15.52-33.65,24.01-58.75,25.54-.22-5.83-1.2-11.98-2.94-18.57h0Zm0,0" style="fill:#f08261; fill-rule:evenodd;"/><path d="M917.87,1625.78c-34.3-23.63-36.97-16.99-41.27-20.15-5.12-3.75-34.2-83.2-34.2-83.2,0,0-87.44-233.36-91.69-246.16l17.48-258.85-126.14-42.96s-11.5,281.88-9.54,296.64c2.03,14.75,157.19,316.02,169.99,343.03,0,0,3.27,37.84,6.15,61.69,2.83,23.85,16.12,45.03,17.97,51.45,.27,1.03,7.69,22.54,23.85,46.34,13.99,20.58,10.24-5.39,10.24-5.39,0,0-18.84-43.01-15.19-43.83,2.88-.82,11.82,23.14,27,46.12,3.87,5.99,7.73,11.76,11.33,17.1,9.48,13.88,20.85,12.03,13.34-4.3-2.72-5.66-7.35-15.08-11.59-21.35-4.68-6.53-6.7-14.37-9.75-20.52-5.93-12.42-10.51-21.29-9.85-21.29,.87,0,1.42-3.32,5.77,2.78,5.23,7.41,12.79,25.65,21.29,35.88,4.9,5.77,14.21,18.51,14.21,18.51,0,0,17.48,18.9,18.85,18.3,7.17-4.03-1.37-21.18-8.94-28.26-2.5-6.97-12.74-20.09-12.74-20.09,0,0-14.65-31.36-10.18-33.54,3.59-1.8,53.3,66.1,60.29,61.64,5.71-3.65-8.34-24.61-8.34-24.61,0,0-9.47-12.14-12.31-16.5-3.38-4.9-12.14-20.75-12.14-20.75,0,0-27.98-56.19-23.56-58.04,4.4-1.8,17.3-1.74,20.24,1.15,2.99,2.83,5.55,11,8.55,13.83,2.94,2.83,9.25,4.2,13.18,.71,3.93-3.48-4.95-22.81-4.95-22.81,0,0-7.41-15.68-17.31-22.54h0Zm0,0" style="fill:#f5a16a; fill-rule:evenodd;"/><path d="M278.75,2742.19l-43.18,102.36c-1.85,11.27-9.26,39.31-9.26,49.6,0,38.61,173.31-32.72,134.49-49.98-3.54-1.47-14.59-13.83-15.68-27.11-1.85-20.26,14.54-45.68,14.54-45.68l-80.91-29.18Zm0,0" style="fill:#f5a16a; fill-rule:evenodd;"/><path d="M216.46,2906.9s4.03-58.04,18.57-64.74c13.72-6.37,38.44,19.44,57.77,16.44,19.28-3,62.78-18.89,62.78-18.89,76.99,27.5,134.33,44.92,122.84,67.19H216.46Zm0,0" style="fill:#233862; fill-rule:evenodd;"/><path d="M544.08,2772.85l-25.1,71.71c-1.91,11.27-9.26,39.31-9.26,49.6,0,38.61,173.25-32.72,134.43-49.98-3.49-1.47-14.54-13.83-15.68-27.11-1.8-20.26,14.54-45.68,14.54-45.68l-98.93,1.47Zm0,0" style="fill:#f5a16a; fill-rule:evenodd;"/><path d="M783.27,1416.91l62.72,161.22s40.95,384.68,17.1,614.94c-10.02,96.43-225.8,612-225.8,612l-107.16-15.19,111.18-603.89-20.42-240.23-74.81-461.62,237.18-67.25Zm0,0" style="fill:#233862; fill-rule:evenodd;"/><path d="M708.07,1435.86l38.39,168.46s-15.95,386.59-73.29,611.02c-24.07,93.98-313.19,573.45-313.19,573.45l-103.89-30.17,198.68-582-18.51-573.24,27.28-134.6,244.53-32.94Zm0,0" style="fill:#2b478b; fill-rule:evenodd;"/><path d="M499.81,2906.9s4.19-57.44,19.72-64.19c14.74-6.75,41.82,18.89,62.72,15.9,20.79-3,61.46-14.81,61.46-14.81,83.2,27.55,151.31,40.84,138.9,63.11H499.81Zm0,0" style="fill:#233862; fill-rule:evenodd;"/><path d="M831.84,1050.75l-161.11,55.97s-69.31-125.61-82.92-184.04c-16.5-71.11,14.87-151.8,23.79-151.8,25.26,.17,63.65-8.82,89.09,13.5,87.76,76.72,131.15,266.37,131.15,266.37h0Zm0,0" style="fill:#4a75cb; fill-rule:evenodd;"/><path d="M507.16,766.96s-112.27,37.63-133.62,53.14c-23.96,17.43-13.72,76.01-13.72,76.01,0,0-26.25,72.74,4.7,167.43,43.16,132.42,94.29,300.78,90.75,346.29-5.94,78.24-22.92,193.95-22.92,193.95,0,0,300.07,18.89,413.76-25.64,0,0-35.94-177.12-35.94-223.56s-26.19-397.8-37.41-433.52c-8.38-27.01-40.35-140.26-95.18-152.02-54.83-11.98-170.42-2.07-170.42-2.07h0Zm0,0" style="fill:#699dee; fill-rule:evenodd;"/><path d="M529.21,641.51l-19.64,125.45s57.5,95.83,101.04,82.38c36.7-11.27,29.4-84.61,29.4-84.61,0,0-19.93-73.61-13.99-110.31,6.04-36.86-96.81-12.9-96.81-12.9h0Zm0,0" style="fill:#f5a16a; fill-rule:evenodd;"/><path d="M626.02,654.41c6.04-36.86-96.81-12.9-96.81-12.9l-1.63,10.89c2.94,7.3,6.64,13.45,11.16,18.13,22.92,24.34,58.81,38.93,89.84,40.07-3.1-19.87-5.01-41.22-2.56-56.19h0Zm0,0" style="fill:#ed6c50; fill-rule:evenodd;"/><path d="M512.33,457.69c-2.94-1.15-23.25,148.1,15.41,189.05,38.71,41,114.07,54.5,141.09,22.1,29.93-35.77,28.42-196.02-31.76-238.1-60.11-42.31-124.74,26.95-124.74,26.95h0Zm0,0" style="fill:#f5a16a; fill-rule:evenodd;"/><path d="M614.21,350.81c-46.49,9.36-76.61,37.41-87.72,49.38-21.12,2.45-49.77,13.88-79.38,62.34-36.43,59.35-9.58,125.23,32.83,157.63,42.47,32.23,41.65,70.02,41.65,70.02l6.92-19.66c4.95-14.59,6.91-30.11,5.28-45.46-.98-9.2-2.94-19.28-6.81-27.33-10.24-21.72,21.89-35.94,30.87-53.96,6.97-13.83,7.3-45.46,18.24-68.28l13.02-17.43s30.11-23.25,59.57-16.66c29.47,6.53,25.21-102.58-34.46-90.6h0Zm0,0" style="fill:#22407a; fill-rule:evenodd;"/><path d="M555.89,570.4c.33,18.13-8.11,32.94-18.73,33.11-10.67,.22-19.55-14.43-19.82-32.56-.38-18.19,8.06-33.16,18.67-33.32,10.67-.16,19.55,14.43,19.87,32.78h0Zm0,0" style="fill:#f5a16a; fill-rule:evenodd;"/><path d="M1160.49,1229.39s-14.59,.71-19.54,.49c-5.61-.11-22.81-1.96-22.81-1.96,0,0-59.24-8.98-58.26-13.28,1.09-4.2,12.09-8.28,15.84-9.04,3.92-.65,8.34-1.96,12.2-2.56,3.92-.65,6.48-4.13,5.95-8.87-.56-4.79-16.62-5.34-22.05-4.36-17.38,2.83-62.14,19.71-66.88,21.29-5.65,1.96-105.62-32.4-140.86-41.49-57.17-16.55-115.1-36.37-121.15-38.11l-213.93-137.48-81.35,57.55s235.27,155.83,247.85,162.15c6.1,3.21,141.62,31.42,141.62,31.42,67.57,9.75,127.14,18.19,138.46,20.09,0,0,32.61,14.86,52.81,25.54,20.09,10.51,42.92,12.41,49.06,14.59,.87,.22,21.56,8.71,49.06,9.31,23.7,.44,1.25-10.78,1.25-10.78,0,0-43.77-8.71-42.52-12.03,.92-2.56,24.61,3.59,50.8,4.36,6.7,.16,13.34,.38,19.49,.55,16.06,.27,20.69-9.48,3.99-12.42-5.95-1.09-15.8-2.5-22.93-2.56-7.9-.16-14.97-2.72-21.51-3.81-13.02-2.18-22.43-3.49-22.11-4.03,.6-.54-1.69-2.78,5.5-2.78,8.55,0,26.84,3.92,39.47,3,7.19-.54,22.23-.87,22.23-.87,0,0,24.43-2.94,24.43-4.47,.93-7.51-17.15-10.29-26.84-8.38-6.86-1.8-22.65-1.09-22.65-1.09,0,0-32.4-5.61-31.69-10.18,.44-3.87,80.64-5.07,80.91-12.8,.33-6.26-23.85-6.97-23.85-6.97h0Zm0,0" style="fill:#f5a16a; fill-rule:evenodd;"/><path d="M603.97,1016.12l-93.09,142.49s-75.26-34.41-124.48-84.18c-120.93-108.84-43.44-252.53-10.07-254.76,74.76-5.06,227.65,196.45,227.65,196.45h0Zm0,0" style="fill:#4a75cb; fill-rule:evenodd;"/><path d="M595,2437.66l274.63-349.56c-1.09,37.08-3.16,72.53-6.54,104.98-10.02,96.43-225.8,612-225.8,612l-107.16-15.19,64.86-352.23Zm0,0" style="fill:#2b478b; fill-rule:evenodd;"/></svg>