<?xml version="1.0" encoding="UTF-8"?><svg id="a" xmlns="http://www.w3.org/2000/svg" viewBox="0 0 1807.52 1590.7"><path d="M684.17,1280.99c-78.26,0-141.68,9.66-141.68,21.54s63.42,21.61,141.68,21.61,141.68-9.66,141.68-21.61-63.45-21.54-141.68-21.54Z" style="fill:#c4d1eb; fill-rule:evenodd;"/><path d="M929.24,248.68c-212.26,0-301.72,143-454.97,254.13-202.84,147.13-405.64,51.37-438.12,548.47-28.9,442.39,331.77,68.25,840.31,226.74,508.56,158.5,1026.43,201.91,872.72-310.82C1595.55,454.41,1422.47,248.68,929.24,248.68Z" style="fill:#e0e8f5; fill-rule:evenodd;"/><path d="M703.55,1021.99c19.61,17.93,11.1,35.87-3.42,69.1-14.48,33.3-17.08,156.13-17.08,156.13l11.95-1.71s-1.71-126.24,14.52-160.4c16.19-34.09,23.02-51.17,37.54-40.07,14.48,11.1-43.52-23.06-43.52-23.06Z" style="fill:#c4d1eb; fill-rule:evenodd;"/><path d="M692.78,998.81c2.36-10.64,16.52-22.07,35.47-31.86-2.82,15.7-11.86,41.25-2.53,46.5,12.61,7.09,1.25-28.64,6.08-48.28,17.8-8.67,39.18-15.76,58.85-19.31-.03,.06-.06,.13-.1,.2-11.07,28.18-25.58,39.28-19.61,43.55,4.5,3.15,19.12-29.3,38.46-45.98,14.48-.79,26.77,1.18,34.02,6.9,11.23,8.87,18.75,16.82,7.49,43.81-6.44,4.6-14.81,7.95-24.5,8.87-25.58,2.56-37.54,3.42-19.61,12.02,8.77,4.14,23.42-.27,35.37-2.96-3.84,7.09-8.64,15.17-14.39,24.37-3.71,5.84-7.72,10.9-11.99,15.24-8.28,1.58-15.47,1.64-19.25,0-11.95-5.12-42.66-21.35-50.35-14.52-7.52,6.7,56.88,10.9,52.42,27.92-31.2,18-66.93,9.39-73.24-7.09-8.5-22.2-39.77-27.39-32.61-59.38Z" style="fill:#fff; fill-rule:evenodd;"/><path d="M757.28,1120.13c-34.12-25.62-69.1-1.71-87,25.62-17.9,27.26-5.12,88.68-5.12,88.68,0,0,6.83,0,6.83-2.56s-18.79-72.52,25.58-104.04c27.75-19.77,47.75-10.25,50.35-.85,2.56,9.39-11.1,26.4-11.1,26.4l20.46-33.24Z" style="fill:#c4d1eb; fill-rule:evenodd;"/><path d="M678.79,1067.51c34.16,0,45.22,52.88,35.86,83.62-9.39,30.68-22.2,87.89-22.2,87.89l-8.54-8.54s32.45-80.2,24.76-116.07c-7.68-35.8-26.44-41.78-29.89-41.78s0-5.12,0-5.12Z" style="fill:#c4d1eb; fill-rule:evenodd;"/><path d="M707.43,1151.39c2.4-3.22,5.35-5.85,8.97-7.62-.46,2.56-1.05,4.99-1.74,7.36-4.3,13.99-9.26,33.43-13.43,50.51-.36-2.17-.95-5.52-1.84-10.71-.23-1.25-.39-2.56-.53-4.01,3.35-11.36,6.54-23.71,8.57-35.53Z" style="fill:#c4d1eb; fill-rule:evenodd;"/><path d="M716.75,1151.59c64.83-27.26,30.67-64.76,87.85-40,4.04,1.77,8.9,6.11,13.83,12.22-5.09,1.44-11.23,2.49-18.1,1.44-17.08-2.56-11.1,11.1,17.08,14.52,5.29,.59,9.59,1.51,13.17,2.76,13.43,25.75,19.48,59.64-8.93,71.46-5.58,2.3-12.51,3.61-20.2,4.14-8.77-6.96,2.13-47.23-11.36-41.71-12.97,5.39,4.07,34.55,1.74,41.91-12.81-.26-27-2.3-40.49-5.71-5.35-2.96-9.46-7.03-10.71-12.28-4.3-17.93,23.88-29.03,24.73-44.4,.79-14.12-10.35,31.07-39.74,37.7-26.6-12.41-39.18-29.23-8.87-42.04Z" style="fill:#fff; fill-rule:evenodd;"/><path d="M670.58,1103.31c6.8-14.45-11.1-17.87-10.25-6.83,.72,9.85,.82,33.76-9.23,40.26-17.41-1.9-41.02-8.87-58.92-19.57-.23-1.45,0-2.96,.76-4.4,7.69-15.37,57.15-28.18,41.78-33.3-12.18-4.07-33.63,19.97-50.9,32.05-10.38-7.82-17.34-17.21-17.34-27.65,0-14.19,17.24-30.28,39.51-37.9,10.02,.99,19.34,6.5,33.86,14.71,21.51,12.22,16.52-7.49-3.78-19.18,17.54,.92,35.01,8.41,47.92,26.27,0,0-1.25,7.68,6.87,19.51,22.1,32.25-3.42,51.1-33.86,49.92,1.71-8.54,8.87-23.84,13.6-33.89Z" style="fill:#fff; fill-rule:evenodd;"/><path d="M755.24,1118.68c16.68,12.87,35.21,27.98,57.97,38.16,22.76,10.25,18.2,43.62,18.2,43.62,0,0,3.42-28.77-15.54-38.62-18.98-9.85-31.46-21.61-45.88-23.91-14.42-2.3-22.37-4.53-22.37-4.53,0,0,4.53-9.13,1.87-12.54-2.66-3.42,5.75-2.17,5.75-2.17Z" style="fill:#c4d1eb; fill-rule:evenodd;"/><path d="M837.48,967.28c-61.05,16.29-105.79,55.37-114.16,64.83-8.34,9.52-8.34,12.15-8.34,12.15l6.47,12.15,3.02-1.51s-4.93-10.24,7.98-23.51c22.24-22.92,49.3-40.99,67.89-48.93,18.59-7.95,37.15-15.17,37.15-15.17Z" style="fill:#c4d1eb; fill-rule:evenodd;"/><path d="M668.97,1305.22h23.32c16.59,0,30.05-13.46,30.05-30.02v-53.6h-83.42v53.6c0,16.55,13.47,30.02,30.05,30.02Z" style="fill:#b0c2e4; fill-rule:evenodd;"/><rect x="638.92" y="1231.13" width="83.39" height="5.91" style="fill:#fff;"/><rect x="638.92" y="1241.84" width="83.39" height="3.48" style="fill:#fff;"/><path d="M1131.09,901.85c15.76-7.29,26.14-20.89,26.14-41.31v-6.37c3.02-176.69,158.37-226.22,170.91-421.7,.92-14.71,.79-29.03-.33-42.96-24.37-148.32-165.2-247.83-323.63-247.83-180.37,0-338.21,129.27-326.65,312.6,11.95,189.63,159.91,237.71,162.83,409.15,0,18.52,19.87,39.94,36.75,38.42h253.97Z" style="fill:#c4d1eb; fill-rule:evenodd;"/><path d="M1042.22,908.49l27.26-330.13h38.76c16.75,0,31.92-6.83,42.96-17.8v-.07c11.04-11.03,17.87-26.21,17.87-42.89s-6.83-31.92-17.87-42.96c-11.04-11.04-26.21-17.87-42.96-17.87s-30.81,6.63-41.51,17.27c-10.77,10.84-17.8,25.95-19.18,42.37l-3.02,34.68h-118.56l-3.05-34.68c-1.41-16.42-8.37-31.53-19.21-42.37-10.67-10.64-24.99-17.27-41.51-17.27s-31.89,6.9-42.93,17.87h0c-11.03,11.03-17.87,26.21-17.87,42.96s6.83,31.92,17.87,42.96c10.97,10.97,26.21,17.8,42.93,17.8h38.75l27.29,330.13h27.29l-27.2-330.13h113.77l-27.13,330.13h27.26Zm29.62-357.39l2.89-32.32c.86-9.98,4.99-19.05,11.3-25.42,5.78-5.71,13.4-9.26,22.2-9.26s17.6,3.81,23.65,9.85c6.04,6.04,9.85,14.45,9.85,23.65s-3.74,17.6-9.79,23.65h-.06c-6.04,6.04-14.45,9.85-23.65,9.85h-36.39Zm-173.28,0h-36.39c-9.2,0-17.57-3.81-23.65-9.85-6.08-6.11-9.82-14.45-9.82-23.65s3.74-17.6,9.82-23.65v-.07c6.04-6.04,14.42-9.79,23.65-9.79s16.45,3.55,22.2,9.26c6.37,6.37,10.48,15.44,11.36,25.42l2.83,32.32Z" style="fill:#fff; fill-rule:evenodd;"/><rect x="872.3" y="952.1" width="261.16" height="90.18" style="fill:#b0c2e4;"/><path d="M862.87,1063.18c1.97,19.84,18.85,35.47,39.15,35.47h30.12l11.72,19.12c6.73,11.04,10.7,11.76,23.61,11.76h70.74c13.01,0,16.88-.66,23.65-11.76l11.69-19.12h30.15c20.03,0,36.72-15.24,39.08-34.75v-13.73c-1.05-4.46-5.12-7.88-9.98-7.88h-259.91c-4.83,0-8.9,3.48-9.95,7.95-.1,.46,.16,1.31-.07,1.44v11.5h0Zm266.32-90.45h-252.63c-7.62,0-13.89,6.24-13.89,13.86v21.55c0,7.62,6.27,13.86,13.89,13.86h252.63c7.62,0,13.86-6.24,13.86-13.86v-21.55c0-7.62-6.24-13.86-13.86-13.86h0Zm-.59-70.88h-251.47c-7.95,0-14.45,6.5-14.45,14.45v22.4c0,7.95,6.5,14.45,14.45,14.45h251.47c7.95,0,14.45-6.5,14.45-14.45v-22.4c0-7.95-6.5-14.45-14.45-14.45Z" style="fill:#9db2d9; fill-rule:evenodd;"/><path d="M1582.74,1414.46c-93.47,0-169.2,12.94-169.2,28.97s75.73,28.9,169.2,28.9,169.2-12.94,169.2-28.9-75.8-28.97-169.2-28.97Z" style="fill:#c4d1eb; fill-rule:evenodd;"/><path d="M1603.63,939.16c-5.45,4.79-11.43,6.77-18.39,5.32,6.57,4.93,15.57,1.12,18.39-5.32Z" style="fill:#f48661; fill-rule:evenodd;"/><path d="M1579.06,1411.44c1.05-7.36-1.31-20.04-7.03-39.81,11.37,0,20.95-4.99,32.64-4.86,3.15,18.65,8.15,49.2,8.15,49.2l.53,24.17-81.19,.66s.66,.33,24.57-14.78c1.84-1.18,21.35-7.49,22.33-14.58Z" style="fill:#f9af79; fill-rule:evenodd;"/><path d="M1613.75,1446.38h-83.81c-3.09-.33-3.81-2.82-2.76-4.4,2.23-3.22,18.52-10.91,29.56-16.03,19.18,2.03,53.14-5.91,56.16-10.38,5.32,14.78,2.56,30.41,.85,30.81Z" style="fill:#0e2952; fill-rule:evenodd;"/><path d="M1680.22,1411.44c1.05-7.36,2.76-16.56,.2-41.12,11.36,.07,22.27-2.1,33.89-1.9,0,19.11-.39,47.56-.39,47.56l.53,24.17-81.12,.66s.66,.33,24.56-14.78c1.77-1.18,21.28-7.49,22.33-14.58Z" style="fill:#f9af79; fill-rule:evenodd;"/><path d="M1714.84,1446.38h-83.75c-3.15-.33-3.94-2.82-2.83-4.4,2.17-3.22,18.59-10.91,29.56-16.03,19.24,2.03,53.14-5.91,56.16-10.38,5.25,14.78,2.56,30.41,.86,30.81Z" style="fill:#0e2952; fill-rule:evenodd;"/><path d="M1621.24,710.51l-30.61-32.19s-32.58,17.93-70.68,35.14c-10.51-18.26-27.59-78.23-28.51-81.06-.92-2.89,19.97-38.89,15.3-39.81-4.66-.85-10.77,19.25-15.7,17.21-4.99-2.04-17.74-48.74-20.69-46.24-5.58,4.79,6.7,29.1,3.75,30.87-2.89,1.71-10.38-26.93-16.03-25.75-5.71,1.25,9.59,26.14,7.88,28.51-1.71,2.43-17.6-20.89-20.89-15.5-1.84,2.89,14.65,20.3,11.3,22.27-3.41,1.97-18.26-9-20.03-5.45-1.77,3.55,13.86,7.23,18.19,16.22,4.34,9,12.22,12.48,14.85,29.49,2.63,16.95,9.85,107.72,28.38,115.08,16.16,6.31,123.49-48.8,123.49-48.8Z" style="fill:#f9af79; fill-rule:evenodd;"/><path d="M1601.46,884.25l24.76,13.8,50.32,76.98-89.99,211.84s10.11,31.86,13.4,47.75c3.48,16.68,11.96,159.62,11.96,159.62l-38.36,.66s-36.52-152.19-42.69-201.59c-7.49-59.97,38.23-202.77,38.23-202.77,8.54-29.17,26.8-89.14,26.8-89.14,0,0,4.53-14.58,5.58-17.14Z" style="fill:#20386f; fill-rule:evenodd;"/><path d="M1687.64,855.35s-2.56,18.13,7.69,38.75c6.24,12.61,17.08,22.47,24.76,37.83,14.65,29.23,22.53,70.68,17.08,97.28,0,0-30.21,115.41-29.03,157.58,.46,15.5,5.78,43.55,9.2,62.47,2.96,16.75,4.01,143.06,4.01,143.06l-42.82-1.31-32.85-203.69-13.92-181.09-30.28-121.98,86.18-28.9Z" style="fill:#223f81; fill-rule:evenodd;"/><path d="M1596.87,589.52c3.74-17.87,7.68-35.86,25.49-48.74,14.38-10.44,29.89-13.46,46.24-7.49,46.51,16.88,21.48,53.73,79.15,93.01,17.93,12.28,24.76,16.49,37.57,32.78,18,22.79,27.85,53.34,18.79,78.49-18.66,52.09-76.66,67.13-107,56.09-56.42-20.56-103.45-92.15-106.61-111.66-3.35-20.95,3.94-80.92,6.37-92.48Z" style="fill:#20386f; fill-rule:evenodd;"/><path d="M1587.86,730.75c-13.66,6.37-38.49,15.83-38.49,15.83l-14.06-44.53c79.61-45.26,73.37-37.97,133.08-37.05,47.69,.66,67.72-8.47,108.77,102.47,0,0-31.27,14.06-42.43,18.52-4.86-13.66-13.53-41.05-18.66-25.42-7.62,23.52-13.27,47.29-17.01,71.79-2.43,14.52-7.55,33.04-4.86,47.82,0,0-32.51,6.7-57.34,7.81h-.2c-12.02-.33-24.24-1.38-35.21-3.74,0,0-4.86-102.86-7.42-107.2-2.89-4.73-15.11-20.1-4.73-43.02,1.84-4.07,1.31-4.53-1.45-3.28Z" style="fill:#6d96ce; fill-rule:evenodd;"/><path d="M1647.57,909.34c-.59,.07-3.09-.26-5.19-.2-2.89,.06-5.38,.46-5.38,.46,0,0-1.05-.92-3.29-1.97-.92-.4-2.36-.53-3.29-.99-1.05-.53-1.97-1.38-2.89-1.77-2.5-1.12-4.86-1.38-5.65-.07-.66,1.12,13.46,9.72,13.46,9.72,13.07,.07,26.73,6.77,56.95-13,17.34-7.55,101.22-49,102.86-58,1.05-5.12-11.89-44.34-22.4-74.09-8.08,3.61-25.35,11.3-35.01,15.3,8.8,18.79,19.31,43.68,18.19,46.7-.26,.79-1.38,2.23-58.07,39.41-1.44,.92-2.89,1.84-4.4,2.83-3.94,2.63-8.27,5.38-12.74,8.34l-16.16-1.71s-25.68,1.77-26.4,4.73c-.4,1.31,1.77,1.97,4.33,2.37h.13c.39,.06,.79,.13,1.18,.13h0c2.82,.33,5.78,.39,6.5,.66,.79,.26,2.43,.92,3.88,1.9-16.03,6.5-14.71,4.2-20.1,3.88-1.31-.13-2.69,.26-3.94,.2-2.17-.2-3.88-1.51-5.52-1.58-2.43-.13-4.46,.98-4.86,1.44-.53,.59,.53,1.38,2.5,2.3,12.35,5.39,22.6,3.29,25.88,4.14,2.23,.53-1.84,1.31-8.15,.66-1.51-.13-3.55,.4-5.65-.07-1.38-.33-2.63-1.18-3.94-1.51-1.31-.33-2.56-.33-3.68-.53-1.31-.26-3.28-1.31-4.33-1.44-4.07-.46-6.11,.26-6.57,.66-.92,.86,17.67,7.95,17.67,7.95,0,0,12.81,1.84,15.7,1.84,0,0,1.71,.79-1.64,1.31Z" style="fill:#f9af79; fill-rule:evenodd;"/><path d="M1662.48,621.05s3.68,29.36,5.85,39.54c2.23,10.71,5.58,44.34-16.55,49.79-22.14,5.45-15.3-36.59-15.63-47.42-.33-10.84-6.63-48.67-6.63-48.67l32.97,6.76Z" style="fill:#f9af79; fill-rule:evenodd;"/><path d="M1663.73,630.45c-.2,.13-.46,.26-.72,.39-12.22,7.03-22.86,5.91-30.87,.46-1.38-9.39-2.63-17.01-2.63-17.01l32.97,6.76s.53,3.94,1.25,9.39Z" style="fill:#f27458; fill-rule:evenodd;"/><path d="M1655.85,544.53s12.94,3.68,20.43,16.55c7.49,12.87,11.23,49.85-16.29,65.62-27.52,15.76-47.03-9.52-46.24-33.17,.85-23.65,7.49-54.91,42.1-49Z" style="fill:#f9af79; fill-rule:evenodd;"/><path d="M1607.7,583.41c-.33,6.11,2.3,11.3,5.85,11.43,3.55,.2,6.7-4.66,7.03-10.77,.26-6.17-2.37-11.3-5.91-11.5-3.55-.13-6.7,4.66-6.96,10.84Z" style="fill:#f9af79; fill-rule:evenodd;"/><path d="M1651.97,543.54s14.85,38.75,29.36,42.83c14.52,4.14,13.33,23.19,13.33,23.19,0,0,1.9-44.01-11.43-54.78-13.27-10.77-31.27-11.23-31.27-11.23Z" style="fill:#20386f; fill-rule:evenodd;"/><path d="M1675.09,593.99c-2.23,6.04-.79,12.15,3.29,13.66,4.07,1.51,9.2-2.1,11.43-8.21,2.23-6.04,.79-12.15-3.28-13.66-4.07-1.51-9.2,2.1-11.43,8.21Z" style="fill:#f9af79; fill-rule:evenodd;"/><polygon points="1444.21 146.09 1559.49 237.52 1510.29 272.99 1444.21 146.09" style="fill:#c4d1eb; fill-rule:evenodd;"/><polygon points="1584.19 221.23 1448.09 147.53 1625.04 213.02 1584.19 221.23" style="fill:#c4d1eb; fill-rule:evenodd;"/><polygon points="1584.19 221.23 1563.36 280.48 1559.49 237.52 1444.21 146.09 1448.09 147.53 1584.19 221.23" style="fill:#9db2d9; fill-rule:evenodd;"/><polygon points="1563.36 280.48 1537.68 253.28 1559.49 237.52 1563.36 280.48" style="fill:#859ac6; fill-rule:evenodd;"/><path d="M1593.91,256.89c-3.15-1.84-5.52,2.89-2.76,4.47,1.51,.92,2.96,1.84,4.4,2.83,3.35,1.9,5.58-2.89,2.89-4.4-1.51-.98-2.96-1.9-4.53-2.89h0Zm-149.89,272c.79,3.35,5.91,2.1,5.06-1.31-.46-1.64-.85-3.28-1.18-4.99-.86-3.55-5.98-2.04-5.19,1.12,.4,1.71,.85,3.48,1.31,5.19h0Zm-3.48-21.22c0,3.15,5.25,3.55,5.25-.26-.06-1.71-.2-3.42-.2-5.12,0-3.48-5.25-3.42-5.25,0,0,1.77,.13,3.61,.2,5.39h0Zm1.38-21.54c-.53,3.55,4.27,4.27,5.12,.99,.27-1.64,.66-3.35,1.05-4.93,.92-3.48-4.2-4.6-4.99-1.38-.53,1.77-.92,3.55-1.18,5.32h0Zm6.83-20.56c-1.58,2.69,2.76,5.65,4.66,2.36,.72-1.44,1.51-3.15,2.37-4.47,1.77-3.09-2.83-5.58-4.53-2.69-.92,1.51-1.77,3.22-2.5,4.8h0Zm11.82-18c-2.23,2.69,1.84,5.98,4.07,3.42,1.05-1.31,2.17-2.56,3.35-3.81,2.36-2.36-1.25-6.17-3.74-3.61-1.25,1.31-2.5,2.63-3.68,4.01h0Zm15.63-14.84c-2.83,2.43,.79,6.24,3.22,4.2,1.38-1.05,2.69-2.1,4.14-3.02,2.89-2.1-.27-6.31-3.02-4.34-1.45,1.05-2.89,2.1-4.33,3.15h0Zm18-11.56c-3.15,1.77-.4,6.24,2.5,4.6,1.51-.79,3.02-1.58,4.6-2.36,3.35-1.91,.26-6.24-2.36-4.73-1.58,.79-3.15,1.64-4.73,2.5h0Zm19.44-8.8c-3.28,1.18-1.38,6.11,1.84,4.93l4.86-1.77c3.48-1.31,1.38-6.11-1.64-4.99-1.71,.59-3.35,1.18-5.06,1.84h0Zm20.36-6.31c-3.35,.85-2.1,5.98,1.31,5.12l5-1.18c3.54-.85,2.03-5.91-1.05-5.12l-5.25,1.18h0Zm20.95-3.94c-3.42,.46-2.83,5.65,.66,5.25l5.19-.66c3.55-.39,2.76-5.65-.59-5.19-1.77,.2-3.48,.39-5.25,.59h0Zm21.09-1.64c-3.48,.39-3.15,5.25,.33,5.25,1.77-.13,3.48-.26,5.32-.39,3.68-.46,2.69-5.58-.39-5.25l-5.25,.39h0Zm20.75-1.9c-3.41,.39-2.76,5.65,.66,5.19,1.77-.2,3.54-.46,5.25-.72,3.29-.39,2.83-5.65-.79-5.19-1.71,.26-3.42,.53-5.12,.72h0Zm20.36-3.68c-3.35,.85-2.1,5.91,1.31,5.06,1.71-.39,3.42-.85,5.12-1.31,3.15-.79,2.1-5.98-1.44-5.06-1.64,.46-3.35,.92-4.99,1.31h0Zm19.44-6.5c-3.02,1.31-1.18,6.24,2.17,4.8,1.64-.72,3.29-1.51,4.93-2.36,3.09-1.77,.39-6.31-2.56-4.6-1.38,.79-3.09,1.51-4.53,2.17h0Zm16.68-10.9c-2.37,2.43,1.25,6.17,3.81,3.68,1.25-1.31,2.5-2.69,3.68-4.14,1.97-2.43-1.77-6.11-4.2-3.22-1.05,1.31-2.1,2.56-3.28,3.68h0Zm9.33-16.75c-.79,3.09,4.27,4.66,5.12,1.05,.4-1.91,.66-3.68,.79-5.58,0-3.81-5.25-3.42-5.25-.26-.13,1.64-.33,3.15-.66,4.8h0Zm-1.18-19.51c.79,3.09,5.98,2.1,5.06-1.51-.46-1.71-.99-3.42-1.64-5.19-1.25-3.22-6.18-1.38-4.93,1.84,.59,1.58,1.12,3.22,1.51,4.86h0Zm-8.14-18.59c1.71,2.89,6.31,.39,4.6-2.69-.79-1.45-1.97-3.15-2.89-4.6-1.51-2.63-6.31-.46-4.33,2.89,.79,1.12,2.03,3.15,2.63,4.4h0Zm-11.76-16.95c2.3,2.76,6.24-.72,4.07-3.28-1.12-1.38-2.23-2.76-3.42-4.07-2.17-2.63-6.24,.66-3.94,3.42,1.12,1.31,2.17,2.63,3.29,3.94h0Zm-13.86-15.31c2.37,2.43,6.11-1.25,3.68-3.74-1.31-1.18-2.56-2.56-3.81-3.68-2.37-2.3-6.24,1.25-3.68,3.81,1.31,1.18,2.5,2.36,3.81,3.61h0Zm-15.44-13.92c2.56,2.17,5.98-1.77,3.35-4.07l-4.2-3.28c-2.5-2.1-6.04,1.77-3.22,4.14,1.38,.98,2.76,2.17,4.07,3.22Z" style="fill:#859ac6; fill-rule:evenodd;"/><polygon points="535.27 160.99 407.84 213.22 442.85 257.95 535.27 160.99" style="fill:#c4d1eb; fill-rule:evenodd;"/><polygon points="389.87 192.2 531.39 161.32 355.22 174.13 389.87 192.2" style="fill:#c4d1eb; fill-rule:evenodd;"/><polygon points="389.87 192.2 393.19 250.85 407.84 213.22 535.27 160.99 531.39 161.32 389.87 192.2" style="fill:#9db2d9; fill-rule:evenodd;"/><polygon points="393.19 250.85 423.34 233.05 407.84 213.22 393.19 250.85" style="fill:#859ac6; fill-rule:evenodd;"/><path d="M360.44,246.52c4.14-.53,3.19-6.57-.66-6.11l-6.11,.66c-4.07,.53-3.22,6.57,.69,6.11l6.08-.66h0Zm-208.91,242.9c-2.72,0-4.07,3.35-2.23,5.19,.46,.53,1.38,.92,2.23,.92h3.94c3.94,0,4.04-6.11-.07-6.11h-3.88Zm22.04-.53c-3.58,0-4.1,6.11,.36,6.11l6.14-.39c4.37-.59,3.19-6.57-.46-6.11l-6.04,.39h0Zm24.04-2.3c-3.78,.46-3.28,6.57,.92,6.04l-.92-6.04h0Zm23.35-5.19c-3.65,1.38-2.17,6.9,1.94,5.85,1.97-.66,3.94-1.38,5.91-2.1,3.74-1.64,1.51-7.09-2.27-5.72-1.84,.79-3.71,1.38-5.58,1.97h0Zm20.72-10.38c-3.15,2.63,.85,7.23,3.84,4.73,1.74-1.44,3.32-2.89,4.83-4.53,2.73-3.28-2.13-6.96-4.56-4.07-1.28,1.38-2.63,2.63-4.11,3.88h0Zm11.46-18.52c-.56,4.34,5.55,4.66,6.01,.99,.39-2.17,.62-4.27,.72-6.5,0-4.2-6.14-3.94-6.14-.13-.03,1.91-.26,3.74-.59,5.65h0Zm-1.64-22.86c.92,3.68,6.9,2.43,5.88-1.64-.56-1.97-1.15-4.07-1.81-6.04-1.51-4.01-7.13-1.58-5.78,1.97,.62,1.84,1.18,3.81,1.71,5.71h0Zm-8.44-22.4c1.51,3.48,7.23,1.31,5.55-2.56-.85-1.84-1.74-3.74-2.63-5.58-2.27-3.94-7.29-.39-5.52,2.69,.89,1.77,1.74,3.61,2.59,5.45h0Zm-10.9-21.68c2.13,3.68,7.26,.39,5.42-2.89l-2.89-5.39c-2.1-3.68-7.29-.46-5.39,2.89,.99,1.71,1.94,3.61,2.86,5.39h0Zm-11.4-21.74c2.23,3.88,7.26,.39,5.48-2.69l-2.66-5.45c-2.1-3.68-7.09-.98-5.52,2.63l2.69,5.52h0Zm-9.92-22.79c1.38,3.68,6.86,2.17,5.81-1.91-.62-1.9-1.18-3.74-1.68-5.65-.95-3.87-6.9-2.43-5.91,1.51,.53,2.04,1.12,4.01,1.77,6.04h0Zm-3.06-25.35c-.49,4.01,5.55,4.73,6.04,.72,.23-1.9,.59-3.81,1.05-5.58,.99-4.01-4.96-5.39-5.91-1.58-.53,2.17-.92,4.27-1.18,6.44h0Zm9.39-23.98c-2.4,3.35,2.66,6.83,4.93,3.61,1.15-1.58,2.33-3.09,3.64-4.53,2.76-3.28-2.17-6.96-4.57-4.07-1.41,1.58-2.76,3.28-4.01,4.99h0Zm18.46-17.41c-3.15,2.23-.3,7.16,3.42,5.06,1.64-1.12,3.32-2.17,5.03-3.15,3.38-1.97,.49-7.29-3.12-5.25-1.81,1.05-3.58,2.17-5.32,3.35h0Zm22.1-11.76c-3.78,1.64-1.31,7.23,2.33,5.65,1.87-.72,3.71-1.51,5.58-2.23,3.74-1.38,1.64-7.09-2.17-5.71-1.94,.79-3.87,1.51-5.75,2.3h0Zm23.42-8.14c-3.68,.99-2.5,6.96,1.68,5.91l5.81-1.64c3.81-.92,2.46-6.9-1.54-5.85l-5.94,1.58h0Zm23.94-5.85c-4.2,1.05-2.36,6.9,1.25,6.04l5.94-1.18c3.88-.99,2.96-6.57-1.15-6.04l-6.04,1.18h0Zm24.24-4.27c-3.81,.46-3.28,6.57,.92,6.04l6.01-.85c3.84-.53,3.25-6.57-.85-6.11l-6.08,.92Z" style="fill:#859ac6; fill-rule:evenodd;"/><path d="M1397.31,1222.33h152.32c6.85,0,12.41,5.56,12.41,12.41v35.01c0,6.85-5.56,12.42-12.42,12.42h-152.32c-6.85,0-12.41-5.56-12.41-12.41v-35.01c0-6.85,5.56-12.41,12.41-12.41Z" style="fill:#b0c2e4;"/><polygon points="183.62 1172.08 333.19 1172.08 330.53 1186.07 186.25 1186.07 183.62 1172.08" style="fill:#9db2d9; fill-rule:evenodd;"/><path d="M340.41,1380.76c-188.02,0-340.41,21.87-340.41,48.87s152.39,48.87,340.41,48.87,340.41-21.87,340.41-48.87-152.39-48.87-340.41-48.87Z" style="fill:#c4d1eb; fill-rule:evenodd;"/><path d="M508.66,1355.41c-78.23,0-141.68,9.66-141.68,21.54s63.45,21.54,141.68,21.54,141.68-9.65,141.68-21.54-63.42-21.54-141.68-21.54Z" style="fill:#c4d1eb; fill-rule:evenodd;"/><path d="M466.1,681.55c4.5,1.12,20.89-31.4,23.05-35.73-.49-2.82-.92-6.44-1.28-10.71-15.57-14.91-16.52-24.17-2.76-27.78,2.33,1.9,4.79,6.9,7.36,14.98,3.09,.39,5.65-.79,7.75-3.48-1.58-13.2-2.2-23.84-2-31.86,10.84-11.5,31.43-9.92,57.7-1.97,.07,7.36-.2,15.11-.72,23.25,4.01,5.12,.69,21.28-6.8,39.21,.39,11.04-7.13,15.7-22.6,14.12-.59,2.56-.82,5.52-1.12,7.36-.23,1.64-.69,4.79,.92,5.58l2.72,1.18c-6.63,37.97-26.86,56.82-62.24,5.85Z" style="fill:#f9af79; fill-rule:evenodd;"/><path d="M555.92,584.99c-26.27-7.95-46.87-9.53-57.7,1.97-.2,8.01,.43,18.65,2,31.86-2.1,2.69-4.66,3.88-7.75,3.48-2.56-8.08-5.03-13.07-7.36-14.98-13.76,3.61-12.81,12.87,2.79,27.78,.33,4.27,.75,7.88,1.25,10.71-15.24-6.17-26.11-22.6-26.96-29.03-12.38-39.48,10.8-51.37,22.73-55.17,10.9-35.21,58.26,4.73,75.77-14.98,26.14,21.35,3.42,39.41-4.76,38.36Z" style="fill:#20386f; fill-rule:evenodd;"/><path d="M508.76,654.95c3.94,2.82,9.62,5.06,17.04,6.63-.56,2.5-.95,5.45-1.12,7.29-7.26-2.69-12.58-7.36-15.93-13.93Z" style="fill:#ed7d57; fill-rule:evenodd;"/><path d="M564.79,680.96c-14.88-4.34-28.21-6.9-40.04-7.88-2.13,32.71-19.18,32.45-51.14-.66-30.74,2.63-36.78,2.96-53.83,8.54-36.95,35.27-40.33,76-59.64,122.5,21.38,.92,30.97,3.48,45.49,8.67,3.12-11.1,5.75-20.1,7.85-26.86-.59,61.35-.82,103.32-.69,126.05,70.68,28.05,128.91,18.46,152.68-3.42,.33-54.52,.79-97.67,1.38-129.47,8.44,9.92,16.29,17.67,23.52,23.19,17.31-19.9,29.07-27.85,38.89-39.61-21.74-35.73-52.94-68.97-64.47-81.06Z" style="fill:#6d96ce; fill-rule:evenodd;"/><path d="M707.23,740.73c-37.11,15.44-63.12,28.18-78,38.23l-6.57-9.79c-6.14,6.17-13.17,12.22-21.71,20.95,7.92,8.28,16.39,15.04,26.27,20.82,25.78-2.76,54.32-22.27,85.55-58.59,9.72-1.97,16.88-5.45,21.45-10.58,.26-4.66-2.13-9.39-7.09-14.06,12.97-8.47,18.13-14.52,15.47-18.13-20.26,12.55-32.05,22.92-35.37,31.13Z" style="fill:#f9af79; fill-rule:evenodd;"/><path d="M565.48,907.9c-1.38,5.32,4.4,36.46,5.35,52.75,9.39,58,1.35,133.54-3.71,230.62-9.06,34.16-22.4,79.8-21.54,143.91-15.8,4.86-21.48,5.32-35.73,1.71-9.95-66.93-3.15-120.6,5.85-145.36-5.78-38.29-14.35-81.12-26.86-142.93-14.12,67.39-32.97,117.31-41.12,149.96-1.64,36.39-9,85.45-12.81,147.2-11.72,3.55-19.02,4.6-31.17,3.09-15.76-56.82-13.1-118.63-6.44-185.36,7.09-80.33-4.6-171.04,7.13-202.44,6.01-18.65,6.77-35.21,8.38-49.72,58.98,19.64,109.86,18.52,152.68-3.42Z" style="fill:#466fb5; fill-rule:evenodd;"/><path d="M516.87,1338.46c.72,5.84,.82,11.1,.33,15.7,23.48,10.24,19.51-1.58,28.87-1.84-2.33-4.14-3.88-9.46-4.57-15.89-10.25,2.96-16.06,3.61-24.63,2.04h0Zm-109.43,10.77c0,4.27-.43,8.01-1.25,11.23,6.27,4.92,13.53,10.11,17.5,6.96,1.9-1.51,6.83-1.97,10.51-1.12-1.51-5.19-2.73-11.56-3.58-19.31-8.24,2.24-14.58,2.96-23.19,2.24Z" style="fill:#f9af79; fill-rule:evenodd;"/><path d="M570.83,960.64c-41.48,38.69-96.95,38.75-166.41,.39-11.72,31.4-.03,122.11-7.13,202.44-6.67,66.74-9.33,128.54,6.44,185.36,1.28,.2,2.53,.26,3.71,.4,8.61,.72,14.94,0,23.19-2.24,1.35-.33,2.76-.79,4.27-1.25,3.81-61.75,11.17-110.81,12.81-147.2,8.14-32.64,27-82.57,41.12-149.96,12.51,61.81,21.08,104.64,26.86,142.93-9,24.77-15.8,78.43-5.85,145.36,2.6,.66,4.89,1.18,7.03,1.58,8.57,1.58,14.39,.92,24.63-2.04,1.28-.4,2.63-.79,4.07-1.25-.86-64.11,12.48-109.76,21.54-143.91,5.06-97.08,13.1-172.62,3.71-230.62Z" style="fill:#172b57; fill-rule:evenodd;"/><path d="M505.38,1290.91c15.14,4.07,28.97,5.32,41.55,3.68,.29-3.29,.59-6.57,.92-9.79-13.79,1.84-28.05,.92-42.79-2.76,.07,2.89,.2,5.84,.33,8.87h0Zm-110.58,11.49c16.45,1.97,31.04,.86,43.71-3.28,.33-3.42,.66-6.83,.95-10.18-14.22,4.67-29.43,6.24-45.59,4.73,.26,2.96,.56,5.85,.92,8.74h0Zm41.58,21.74c.3-3.42,.56-6.76,.82-10.11-12.68,3.48-26.14,4.53-40.3,3.35,.46,2.96,.99,5.84,1.54,8.8,14.02,1.58,26.67,.85,37.93-2.04h0Zm109.83-18.92c-12.81,2.1-26.18,1.9-40-.66,.23,2.89,.49,5.84,.79,8.87,14.12,2.96,27.06,3.55,38.75,1.58,.13-3.28,.26-6.57,.46-9.79Z" style="fill:#223f81; fill-rule:evenodd;"/><path d="M439.6,1402.05c-20.03-7.09-21.68-17.41-32.45-22.47-10.9-5.06-12.12-14.12-1.51-23.97,7.88,6.31,14.78,12.48,19.97,8.41,3.45-2.76,14.91-3.22,17.24,.79,10.18,23.65,27.39,18.33,30.18,29.1,.33,14.39-24.24,11.36-33.43,8.15Z" style="fill:#172b57; fill-rule:evenodd;"/><path d="M581.57,1379.19c-29.79-.46-53.96,1.05-64.24-2.23-11.1-3.48-8.8-12.94-2.43-23.78,28.08,12.94,20.2-5.19,33.3-3.15,9.23,7.42,26.57,18,46.21,12.41,7.65,5.65,1.64,16.49-12.84,16.75Z" style="fill:#172b57; fill-rule:evenodd;"/><path d="M464.23,673.21l.43,.59c7.32,10.05,10.61,22.86,13.69,34.68,3.68,14.19,7.06,28.38,10.57,42.56,2.99,12.22,6.11,24.43,9.92,36.45,2.79,8.67,10.48,31.6,20.1,34.49,.72,.2,1.48,.33,2.23,.33,.85,0,1.68-.06,2.46-.33,10.74-2.56,16.91-20.82,19.15-30.22,5.55-23.32,3.91-50.25-.89-73.63-1.84-9-4.01-18.92-7.82-27.26-1.81-4.01-3.78-6.96-6.96-9.98-.95-.92-1.9-1.77-2.89-2.63-3.58,27.39-20.43,25.42-50.61-5.85-3.42,.26-6.54,.59-9.39,.79Z" style="fill:#466fb5; fill-rule:evenodd;"/><path d="M534.97,674.26c6.34,6.31,11.4,14.78,16.95,41.84,13.01,63.39-3.32,116.46-30.74,116.46s-36.49-59.25-52.71-121.45c-4.83-18.46-8.08-28.38-16.85-36.72,1.97-.26,4.14-.39,6.47-.66,.85,.99,1.67,2.04,2.46,3.09,6.8,9.33,9.98,21.94,12.84,32.97,3.68,14.12,7.06,28.31,10.58,42.43,3.02,12.35,6.14,24.7,10.02,36.78,3.42,10.64,11.3,34.22,23.48,37.9,1.21,.33,2.46,.53,3.71,.53s2.46-.13,3.68-.46c13.24-3.15,20.17-22.46,22.92-34.02,5.72-24.04,4.07-51.83-.85-75.8-1.9-9.2-4.27-19.84-8.18-28.38-2.1-4.66-4.43-8.08-8.11-11.56-1.41-1.38-2.92-2.69-4.37-4.01,2.79,.26,5.71,.66,8.7,1.05Z" style="fill:#466fb5; fill-rule:evenodd;"/><path d="M423.67,849.04c-3.78,.53-7.36,1.05-10.74,1.51-.16,27.06-.2,47.29-.13,60.76,3.35,1.51,8.05,3.22,11.69,3.68-.03-1.77-.56-5.72-.56-7.49-.26-20.69-.33-40.2-.26-58.46h0Zm172.82-54.26c-10.41-8.67-20.33-22.73-29.72-42.24,1.08,6.83,1.48,15.9,1.28,27.26,7.98,9.26,15.44,16.55,22.33,21.81,2.1-2.43,4.14-4.73,6.11-6.83h0Zm-169.86-52.75c-4.6,14.78-8.97,29.16-13.14,43.22-.13,11.82-.23,22.99-.33,33.37,3.05-.26,6.6-.46,10.81-.59,.43-28.77,1.31-54.12,2.66-76Z" style="fill:#466fb5; fill-rule:evenodd;"/><path d="M519.93,763.26h77.8c3.55,0,6.01,2.96,5.45,6.5l-17.47,110.22c-.56,3.55-3.94,6.5-7.52,6.5h-77.8c-3.55,0-6.01-2.96-5.45-6.5l17.47-110.22c.56-3.55,3.94-6.5,7.52-6.5Z" style="fill:#0b5396; fill-rule:evenodd;"/><path d="M367.34,803.85c-3.38,13.66-4.76,26.14-2.04,42.69,8.41,12.22,42.3,5.39,129.56-9.2,3.12,2.83,9.59,5.72,19.41,4.4,9.13-2.23,9.56-4.66,19.8-14.32,2.5-7.49,1.97-13.21-1.51-17.21-11.56,6.83-17.6,10.44-30.61,10.84,3.45-8.87,4.01-14.65,1.58-17.21-4.43,3.55-7.32,8.87-8.64,16.03-68.81-3.02-86.97-2.63-96.1,2.17,.99-4.27,1.87-8.08,2.63-11.36-10.71-3.61-19.41-5.78-34.09-6.83Z" style="fill:#f9af79; fill-rule:evenodd;"/><path d="M410.66,794.59c-8.93-9.26-23.45-12.35-43.58-9.26-.89,2.5-1.81,5.06-2.79,7.62,19.11-2.1,33.99,.46,44.63,7.62,.59-2.1,1.18-4.07,1.74-5.98Z" style="fill:#466fb5; fill-rule:evenodd;"/><path d="M616.16,742.24c-7.95,6.9-15.76,13.92-23.55,21.02h5.12c3.55,0,6.01,2.96,5.45,6.5l-.3,1.77c9.1-10.05,15.67-16.68,19.74-19.9-2.1-3.22-4.27-6.31-6.47-9.39Z" style="fill:#466fb5; fill-rule:evenodd;"/><path d="M455.85,1083.74h63.09c-3.84-6.11-3.87-12.22-.1-18.06h-93.34c-4.99,0-9.03,4.07-9.03,9.06s4.04,9,9.03,9h13.7v-5.71c0-.98,.85-1.84,1.87-1.84h12.91c1.02,0,1.87,.85,1.87,1.84v5.71h0Zm66.83,3.74h-68.71c-1.02,0-1.87-.85-1.87-1.9v-5.65h-9.16v5.65c0,1.05-.82,1.9-1.87,1.9h-15.57c-7.03,0-12.74-5.71-12.74-12.74s5.71-12.74,12.74-12.74h97.11c.76,0,1.41,.39,1.71,1.05,.3,.72,.2,1.51-.3,2.03-5.65,6.24-5.72,12.28-.2,19.05,.43,.33,.72,.85,.72,1.44,0,1.05-.86,1.9-1.87,1.9Z" style="fill:#529aaa; fill-rule:evenodd;"/><path d="M155.25,1115.4c-1.84-45.52-5.81-85.06-10.57-112.71-7.65-43.95-14.48-69.3-14.55-69.56-1.02-3.88-15.5-19.51-47.69-19.05-32.19,.46-29.16,21.02-29.16,21.02h0c0,.66,.13,1.32,.26,1.84,.29,1.05,29.85,108.25,28.57,246.58-.03,1.9-.23,5.25-.1,7.49,0,.07,74.62,1.97,74.62,0,2.6-12.09,1.35-45.58-1.38-75.6Z" style="fill:#d0a382; fill-rule:evenodd;"/><path d="M164.64,1182.79c-.03,1.9-1.02,3.48-2.27,3.48h-.03c-1.25,0-2.23-1.58-2.27-3.48h-63.91c-.03,1.9-1.05,3.48-2.3,3.48h0c-1.28,0-2.3-1.64-2.3-3.54,.39-39.61-1.84-76.59-5.29-109.24-8.51-81.38-24.21-135.84-24.43-136.56-.13-.53-.23-1.12-.23-1.84,0,0-3.02-20.56,29.16-21.02,32.19-.46,46.67,15.17,47.65,19.05,.07,.2,3.94,14.52,9.1,40.33,1.71,8.54,3.55,18.33,5.45,29.23,4.76,27.65,8.77,67.2,10.61,112.71,2.69,30.02,3.65,55.31,1.05,67.39Z" style="fill:#e5bb9a; fill-rule:evenodd;"/><path d="M164.64,1182.79c-.03,1.9-1.02,3.48-2.27,3.48h-.03c-1.25,0-2.23-1.58-2.27-3.48h-63.91c-.03,1.9-1.05,3.48-2.3,3.48h0c-1.28,0-2.3-1.64-2.3-3.54,.39-39.61-1.84-76.59-5.29-109.24,10.57-51.69,51.43-91.17,61.25-100.04,1.71,8.54,3.55,18.33,5.45,29.23,4.76,27.65,8.77,67.2,10.61,112.71,2.69,30.02,3.65,55.31,1.05,67.39Z" style="fill:#deb493; fill-rule:evenodd;"/><path d="M114.49,1177.67c-7.13,0-12.18,.33-13.96,2.17h-.03c0-1.84-.1-5.19-.26-11.63-.26-7.55-.59-19.38-1.12-32.71-.92-23.32-2.53-55.37-4.89-75.73-2.79-23.71-19.28-120.01-19.38-120.33-.1-.33-.16-.72-.16-1.18-.03-.13-.66-4.79,2.86-8.93,3.45-4.07,9.66-6.24,18.42-6.37h1.12c22.76,0,33.24,10.9,33.99,13.92,.16,.66,18.49,75.08,21.68,117.18l.36-.07-.36,.07c.3,3.88,.95,10.58,1.77,18.99,3.25,32.91,10.02,101.48,3.25,102.66-13.2,2.3-26.47,2.17-37.15,2.04-2.2,0-4.24-.07-6.14-.07h0Zm-14.29,4.47l.16-.13c.07,0,.1-.06,.13-.33h.03c0-.53,.16-.92,.53-1.31,2.04-2.1,9.75-1.97,19.54-1.9,10.71,.13,24.01,.26,37.31-2.04,6.86-1.18,2.23-54.06-2.66-103.52-.82-8.41-1.44-15.04-1.74-18.92-3.19-41.84-21.58-116.72-21.74-117.31-.79-3.15-11.82-14.84-35.8-14.45-9,.13-15.37,2.36-19.02,6.63-3.71,4.33-3.02,9.2-2.99,9.46-.03,.46,.07,.98,.16,1.38,.1,.4,16.68,96.95,19.34,120.14,4.47,38.16,6.24,117.31,6.34,121.71v.4l.4,.2Z" style="fill:#d0a382; fill-rule:evenodd;"/><path d="M86.87,1186.27h250.65s-5.81-23.65-150.98-20.1c-102.76,2.5-99.68,20.1-99.68,20.1Z" style="fill:#e5bb9a; fill-rule:evenodd;"/><path d="M66.44,1433.05c29.1-147.13,21.61-237.45,21.58-238.57-.07-2.3,4.1-4.34,6.34-4.4,2.27-.07,12.32-.66,13.47,1.25,1.51,2.56,7.39,113.83-35.93,241.72h-5.45Z" style="fill:#d0a382; fill-rule:evenodd;"/><path d="M300.51,1433.05c-29.07-147.13-21.61-237.45-21.58-238.57,.1-2.3-4.07-4.34-6.31-4.4-2.27-.07-12.32-.66-13.46,1.25-1.54,2.56-7.39,113.83,35.93,241.72h5.42Z" style="fill:#d0a382; fill-rule:evenodd;"/><path d="M346.88,1433.05c-29.06-147.13-21.58-237.45-21.54-238.57,.1-2.3-4.07-4.34-6.34-4.4-2.3-.07-12.32-.66-13.47,1.25-1.54,2.56-7.39,113.83,35.93,241.72h5.42Z" style="fill:#9c7357; fill-rule:evenodd;"/><path d="M113.17,1433.05c29.03-147.13,21.58-237.45,21.54-238.57-.1-2.3,4.07-4.34,6.34-4.4,2.27-.07,12.32-.66,13.47,1.25,1.51,2.56,7.39,113.83-35.96,241.72h-5.39Z" style="fill:#9c7357; fill-rule:evenodd;"/><path d="M337.69,1193.82H87c-2.82,0-5.12-2.3-5.12-5.12v-3.35c0-2.89,2.3-5.19,5.12-5.19h250.69c2.83,0,5.12,2.3,5.12,5.19v3.35c0,2.82-2.3,5.12-5.12,5.12Z" style="fill:#d0a382; fill-rule:evenodd;"/><path d="M253.12,1343.78c-2.07,2.43-2.36,5.06-1.31,7.95h0c1.94,5.32,8.24,11.23,15.57,17.08,.95,.79,1.77,1.45,2.5,2.1,.2,.13,.39,.33,.56,.53,.13,.13,.3,.26,.43,.33,6.87,6.31,4.27,7.75,16.55,20.56,13.99,14.58,23.65,14.84,26.41,13.46,2.3-1.12-2.43-8.8-7.65-17.54-.23-.39-.49-.79-.75-1.25-.69-1.12-1.38-2.3-2.07-3.48-6.11-10.44-4.57-15.37-3.09-30.87,1.18-12.68,19.64-70.61,19.64-70.61l-26.8-4.66s-8.11,46.18-17.01,53.27c-4.76,3.81-10.08,3.88-14.65,6.7-.33,.13-.66,.33-.95,.59-2.63,1.71-5.29,3.48-7.36,5.84Z" style="fill:#f9af79; fill-rule:evenodd;"/><path d="M253.12,1343.78c-2.07,2.43-2.36,5.06-1.31,7.95h0c2.36,5.32,8.51,11.17,15.6,17.01,.92,.79,1.74,1.51,2.46,2.17,.2,.13,.39,.33,.56,.53,.13,.13,.3,.26,.43,.33,6.87,6.31,4.27,7.75,16.55,20.56,13.99,14.58,23.65,14.84,26.41,13.46,2.3-1.12-2.43-8.8-7.65-17.54-2.73-.98-15.37-6.11-24.96-18.39-8.41-10.71-14.02-24.56-19.77-32.51-.33,.13-.66,.33-.95,.59-2.63,1.71-5.29,3.48-7.36,5.84Z" style="fill:#0e2952; fill-rule:evenodd;"/><path d="M469.48,1327.03c1.68,8.28,13.47,6.9,26.67,3.68,13.17-3.22,10.05,.59,28.84-1.44,18.75-2.1,24.47-9.07,25.03-11.89,.49-2.5-8.77-3.35-18.72-4.47-1.25-.13-2.5-.33-3.78-.46-11.23-1.45-19.44-8.67-29.66-14.65-9.66-5.65-24.07-28.57-24.07-28.57l-25.75,2.04s13.5,20.49,18.72,29.43c3.09,5.25,2.92,12.22,2.56,17.54-.23,2.89-.43,5.91,.16,8.8Z" style="fill:#f9af79; fill-rule:evenodd;"/><path d="M496.15,1330.71c13.17-3.22,10.05,.59,28.84-1.44,18.75-2.1,24.47-9.07,25.03-11.89,.49-2.5-8.77-3.35-18.72-4.47l-.1,.2s-11.27,7.95-26.86,8.34c-12.78,.26-26.24-3.35-35.01-3.22-.23,2.89-.43,5.91,.16,8.8,1.68,8.28,13.47,6.9,26.67,3.68Z" style="fill:#0e2952; fill-rule:evenodd;"/><path d="M412.2,948.89s6.14-14.98,12.87-15.63c6.77-.59,28.21-4.01,29.76-.92,1.54,3.09,0,14.12-4.6,18.06-4.6,4.01-33.14,10.44-33.14,10.44l-4.89-11.95Z" style="fill:#f9af79; fill-rule:evenodd;"/><path d="M370.82,1162.43l-55.47,149.3s-8.54,.85-16.72-1.51c-7.52-2.17-16.13-7.88-16.13-7.88,0,0,13.73-143.39,38.98-173.21,25.26-29.82,49.33,33.3,49.33,33.3Z" style="fill:#0e2952; fill-rule:evenodd;"/><path d="M151.37,1102s159.42-53.93,194.98-42.43c35.57,11.5,142.31,223.92,142.31,223.92,0,0-2.4,3.15-8.97,5.65-6.11,2.3-20.95,2.17-20.95,2.17,0,0-96.33-82.63-107.79-106.74-11.49-24.04-16.06-46.97-27.52-44.73-11.5,2.3-147.99,56.23-178.96,24.11-30.97-32.12-22.86-73.83-22.86-73.83l29.76,11.89Z" style="fill:#20386f; fill-rule:evenodd;"/><path d="M248.81,851.21c2.53-5.25,5.39-14.58,6.76-31.27-.23,1.64-3.09,22.66-11.17,34.55-33.17,21.74-96.69,94.45-95.44,108.25,0,0-22.4-37.97-22.76-38.23,0,0-41.32-52.48,7.65-82.57,24.83-15.3,24.7-34.94,23.68-51.96-1.05-17.01,6.8-90.45,56.62-71.2,0,0,8.01-3.55,11.59-3.02,0,0-2.92,.53-4.43,2.1,5.78-.33,14.06,.07,20.92,4.01,18.26,10.38,34.62,103.52,6.57,129.33Z" style="fill:#20386f; fill-rule:evenodd;"/><path d="M242.44,855.61c.17,0-15.99,8.41-28.15,5.12-11.46-3.16-18.95-17.93-18.75-18,4.83-.99,6.21-7.62,6.11-36.26l2.2,.46,36.85,7.29s-.85,11.56-.85,22.53c-.03,9.13,.53,17.87,2.6,18.85Z" style="fill:#f9af79; fill-rule:evenodd;"/><path d="M240.7,814.23s-.85,11.56-.85,22.53c-20.62-.59-31.53-19.44-36-29.82l36.85,7.29Z" style="fill:#ec9355; fill-rule:evenodd;"/><path d="M200.04,802.93s-10.81-17.08-13.4-31.72c-1.84-10.38,3.48-49,42.3-43.48,0,0,11.26,1.18,21.87,8.28,8.41,5.71,20.56,18,6.96,51.69l-3.51,11.43-54.22,3.81Z" style="fill:#20386f; fill-rule:evenodd;"/><path d="M247.57,824.54s-48.77,.85-48.8-29.56c-.03-30.41-6.34-50.71,24.8-52.55,31.14-1.77,37.18,9.79,39.67,19.9,2.46,10.18-2.96,61.22-15.67,62.2Z" style="fill:#f9af79; fill-rule:evenodd;"/><path d="M245.76,741.72s-13.33,35.6-33.83,40.92c-20.53,5.25-29.39-.26-29.39-.26,0,0,15.7-12.48,18.98-34.29,0,0,34.19-23.38,44.24-6.37Z" style="fill:#20386f; fill-rule:evenodd;"/><path d="M113.96,1102.85c2.63,7.29,10.71,9.2,21.51,7.95,20.62-2.43,51.23-16.29,73.3-25.88,33.66-14.58,48.93-.85,59.67-10.12,10.67-9.33-12.25-29.95,7.62-125.79,6.77-32.51-35.96-102.21-35.96-102.21,0,0-3.71,20.23-44.57-4.07-1.48-.85-17.57,22.92-33.07,52.35-17.08,32.38-33.43,71.53-28.61,91.76,9.16,38.42-27.56,94.78-19.9,116Z" style="fill:#6d96ce; fill-rule:evenodd;"/><path d="M240.11,846.81l25.19,103.39s3.15,5.58,8.05,13.53c11.53,18.72,32.91,50.38,46.6,53.6,6.7,1.58,21.09-4.01,36.95-12.02,30.02-15.17,65.49-38.95,65.49-38.95,2.3-13.79-9.69-25.03-9.69-25.03,0,0-71.86,27.06-78.99,27.52-15.6,1.18-31.4-73.96-45.95-98.99-10.54-18.13-47.65-23.06-47.65-23.06Z" style="fill:#6d96ce; fill-rule:evenodd;"/><path d="M113.96,1102.85c2.63,7.29,10.71,9.2,21.51,7.95,14.29-6.24,75.9-30.15,75.24-46.31-1.05-23.97-11.89-24.76-4.24-54.32,6.14-23.71-50.81-67.85-59.9-77.51-17.08,32.45-17.54,33.96-12.71,54.19,9.16,38.42-27.56,94.78-19.9,116Z" style="fill:#466fb5; fill-rule:evenodd;"/><path d="M273.35,963.73c11.53,18.72,32.91,50.38,46.6,53.6,6.7,1.58,21.09-4.01,36.95-12.02-11.59,2.96-22.83,2.89-33.8,1.84-11.86-1.18-15.3-15.7-34.02-37.51-12.15-14.12-15.14-10.58-15.73-5.91Z" style="fill:#466fb5; fill-rule:evenodd;"/><path d="M216.23,1009.58s10.35-8.01,20.1-6.11c9.75,1.9,14.52,8.61,14.12,11.69-.36,3.09-5.52,11.69-12.97,12.41-7.49,.79-28.7-4.6-28.7-4.6l7.46-13.4Z" style="fill:#f9af79; fill-rule:evenodd;"/><path d="M195.54,842.74s-39.77,2.43-53.53,21.68c-19.38,26.99-53.01,137.28-43.85,162.57l120.96-.53s2.92-13.73-1.15-20.36c-4.07-6.63-70.35-17.34-73.44-20.36-3.05-3.08,38.23-59.64,38.23-68.84s12.78-74.16,12.78-74.16Z" style="fill:#6d96ce; fill-rule:evenodd;"/><polygon points="226.61 1054.77 373.06 1054.77 399.43 962.75 253.25 962.75 226.61 1054.77" style="fill:#c4d1eb; fill-rule:evenodd;"/><rect x="181.13" y="1051.22" width="191.44" height="3.55" style="fill:#20386f;"/><path d="M326.55,1007.28c.92-3.22-.92-5.85-4.17-5.85s-6.63,2.63-7.55,5.85c-.92,3.22,.95,5.85,4.2,5.85s6.6-2.63,7.52-5.85Z" style="fill:#20386f; fill-rule:evenodd;"/><path d="M527.48,1074.34l10.05,56.95h0l27.75,157.38,24.83,140.63c.36,2.17,2.27,3.74,4.5,3.74,1.97,0,3.45-1.71,3.19-3.61l-21.38-159.42-22.89-170.58-3.45-25.75-22.6,.66Z" style="fill:#c4997a; fill-rule:evenodd;"/><path d="M417.56,1074.34l10.05,56.95h0l27.78,157.38,24.8,140.63c.39,2.17,2.27,3.74,4.5,3.74,1.97,0,3.48-1.71,3.22-3.61l-21.41-159.42-22.89-170.58-3.45-25.75-22.6,.66Z" style="fill:#c4997a; fill-rule:evenodd;"/><path d="M537.53,1131.29c-1.35-24.43,15.99-31.86,15.99-31.86l-3.45-25.75-22.6,.66,10.05,56.95Z" style="fill:#9c7357; fill-rule:evenodd;"/><path d="M164.9,1449.99c2.2,0,4.14-1.58,4.5-3.68l22.04-125,31.73-179.78,8.87-50.25-22.6-.66-3.91,29.17-27.52,205.07-16.32,121.58c-.23,1.84,1.25,3.55,3.22,3.55Z" style="fill:#c4997a; fill-rule:evenodd;"/><path d="M168.15,1094.05h423.4c3.88,0,7.03-8.8,7.03-19.51v-.39c0-10.77-3.15-19.58-7.03-19.58H168.15c-3.84,0-7.03,8.8-7.03,19.58v.39c0,10.71,3.19,19.51,7.03,19.51Z" style="fill:#deb28f; fill-rule:evenodd;"/><polygon points="1168.4 941.33 1247.62 940.41 1273.37 1078.15 1197.83 1099.17 1168.4 941.33" style="fill:#0b5396; fill-rule:evenodd;"/><polygon points="1175.69 947.37 1202.69 1091.55 1266.27 1073.82 1242.5 946.52 1175.69 947.37" style="fill:#859ac6; fill-rule:evenodd;"/><polygon points="1191.13 1136.48 1209.46 1136.48 1209.46 1095.95 1197.83 1099.17 1191.13 1062.85 1191.13 1136.48" style="fill:#223f81; fill-rule:evenodd;"/><path d="M1640.28,1490.13c-115.14-9.26-506.69,6.44-625.78,12.61-78.13,4.01-378.34-71.53-340.58,41.38,26.6,79.68,513.39,32.25,624.2,35.54,95.57,2.82,183.19-5.65,306.29-17.01,123.16-11.3,102.6-67.06,35.86-72.52Z" style="fill:#c4d1eb; fill-rule:evenodd;"/><path d="M1399.09,1164.33H786.61c-2.59,0-4.73-3.54-4.73-7.88v-3.94c0-4.33,2.14-7.82,4.73-7.82h612.48c2.63,0,4.73,3.48,4.73,7.82v3.94c0,4.34-2.1,7.88-4.73,7.88Z" style="fill:#9c7357; fill-rule:evenodd;"/><path d="M1531.05,881.56c6.96,24.63-10.05,49.99-28.9,55.31-18.78,5.39-32.18-11.36-39.21-36-6.96-24.63,2.63-48.93,21.41-54.25,18.79-5.39,39.68,10.31,46.7,34.94Z" style="fill:#f9af79; fill-rule:evenodd;"/><path d="M1425.62,1358.89s48.21,74.81,54.65,78.03c6.57,3.29,22.86,4.07,16.75,16.29-6.11,12.22-8.61,60.17-14.26,62.6-5.65,2.5-54.52,8.15-47.16,0,7.29-8.14,11.82-4.01,15.5-18.65,3.68-14.65,8.87-42.37,1.97-48.02-6.9-5.71-49.26-56.95-49.26-56.95l21.81-33.3Z" style="fill:#f9af79; fill-rule:evenodd;"/><path d="M1183.12,1391.01s-58.53,96.49-69.36,105.16c-10.84,8.67-46.64,21.74-17.34,23.84,29.29,2.23,43.35-9.72,61.81-15.17,18.46-5.39,41.18-8.67,32.51-22.73-8.67-14.12-5.06-44.86,13.66-64.44,18.65-19.51-21.28-26.67-21.28-26.67Z" style="fill:#f9af79; fill-rule:evenodd;"/><path d="M1481.98,1167.16s-144.9-3.74-202.44,43.42c-33.63,50.97-114.95,201.32-121.26,217.94,4.34,4.34,28.77,12.15,39.54,11.04,32.05-38.16,74.36-71.07,91.17-101.02,20.69-36.91,27.06-55.3,60.69-58.59,33.63-3.22,109.56-14.05,132.29-14.05s0-98.73,0-98.73Z" style="fill:#172b57; fill-rule:evenodd;"/><polygon points="1608.49 1520.34 1600.87 1520.34 1546.35 1292.94 1563.04 1292.94 1608.49 1520.34" style="fill:#9c7357; fill-rule:evenodd;"/><polygon points="1380.83 1520.34 1388.45 1520.34 1450.91 1284.93 1434.17 1284.93 1380.83 1520.34" style="fill:#9c7357; fill-rule:evenodd;"/><path d="M1564.61,1157.24l-84.34,14.58s-111.93,.98-163.16,10.51c-46.57,8.67-53.47,61.61,0,134.52,30.35,41.38,56.03,74.42,108.51,111.66,13.4-9.85,18.52-13.53,22.2-37.11-3.81-5.19-13.66-37.83-16.69-44.21-29.03-60.69-67.79-82.76-68.31-88.74,6.44-10.57,172.36,55.11,205.33,16.49,31.4-36.91-3.55-117.71-3.55-117.71Z" style="fill:#20386f; fill-rule:evenodd;"/><path d="M1568.16,966.42c-22.2-3.15-44.86,1.12-66.01,16.42-18.46,18.79-39.35,49.86-38.1,101.09,1.64,65.09-10.05,69.3,2.17,87.16,50.84,21.02,137.87,111.27,117.38,14.52-14.84-70.09,32.51-122.31-5.65-200.08-3.09-6.31-7.03-12.48-9.79-19.11Z" style="fill:#6d96ce; fill-rule:evenodd;"/><path d="M1464.05,1108.43c-.98,33.96-5.78,43.95-2.17,54.59,20.76,2.1,58.72,10.38,68.18,23.65,10.91,15.24,21.68,17.41,16.69,6.18-5.06-11.23-18.46-27.13,2.17-81.71,20.56-54.58,30.35-91.43,10.12-129.4l-94.98,126.7Z" style="fill:#466fb5; fill-rule:evenodd;"/><path d="M1568.16,966.42c-13.73-32.38-17.08-68.71-17.08-68.71l-35.8,10.58s20.36,45.52,.86,61.81c-4.2,3.42-9,7.62-13.99,12.74,21.15-15.3,43.81-19.57,66.01-16.42Z" style="fill:#f9af79; fill-rule:evenodd;"/><path d="M1552.13,906.32c-2.1-1.9-4.73-4.27-7.49-6.7l-29.23,8.6-.07,.2c.66,1.58,8.15,18.92,9.13,35.67,8.74-5.32,18.19-13.92,29.1-28.97-.59-3.35-1.05-6.31-1.45-8.8Z" style="fill:#ed7d57; fill-rule:evenodd;"/><path d="M1542.94,976.6c-36.85,12.88-32.78,51.7-66.67,108.97-17.54,29.62-33.83,29.23-33.83,29.23,0,0-41.25,.33-91.04-5.78-31.13-3.81-33.17,5.45-11.43,13.2,43.75,15.63,89.07,32.51,125.72,28.44,36.59-4.07,99.18-97.48,102.47-121.78,4.46-33.63-6.7-58.79-25.22-52.29Z" style="fill:#f1944e; fill-rule:evenodd;"/><path d="M1524.02,1301.48c-2.37,0-4.66-.07-7.1-.13-29.95-.72-50.31-4.86-66.74-8.21-19.38-3.88-30.08-6.11-42.69-.06-4.2,2.04-9.33,.2-11.3-4.01-2.04-4.27-.26-9.33,4.01-11.37,17.74-8.47,32.71-5.45,53.4-1.25,15.76,3.22,35.34,7.16,63.71,7.88,32.05,.79,51.63-4.01,61.74-15.11,8.93-9.92,11.56-26.47,8.27-52.02-1.18-8.67-2.23-15.89-3.28-22.2-2.69-17.87-4.53-29.62-2.3-47.82,2.1-16.88,7.75-39.48,20.76-83.29,1.38-4.53,6.11-7.09,10.58-5.78,4.47,1.38,7.1,6.11,5.78,10.58-24.37,81.97-23.12,89.99-17.93,123.69,.99,6.44,2.17,13.79,3.29,22.66,4.01,30.87-.07,51.69-12.55,65.62-12.87,14.32-33.96,20.82-67.65,20.82Z" style="fill:#9c7357; fill-rule:evenodd;"/><path d="M1187.19,1472.33c-38.88,19.05-59.77,29.89-72.25,28.9-2.95-.26-5.38-.59-7.49-.92-13.79,8.21-35.93,17.93-11.03,19.7,29.29,2.23,43.35-9.72,61.81-15.17,18.46-5.39,41.18-8.67,32.51-22.73-1.64-2.69-2.89-6.04-3.55-9.79Z" style="fill:#172b57; fill-rule:evenodd;"/><path d="M1484.61,1438.5c-1.05,30.81-5.25,61.29-24.04,67.07-4.99,1.51-9.52,1.71-13.53,1.18-3.02,3.68-6.57,3.68-11.43,9.07-7.36,8.15,41.51,2.5,47.16,0,5.65-2.43,8.15-50.38,14.26-62.6,4.93-10.05-5.12-12.35-12.41-14.71Z" style="fill:#172b57; fill-rule:evenodd;"/><path d="M1360.73,1110.07c-24.96-.33-49.72-15.17-62.01-13-12.28,2.1-52.42,29.95-47.36,31.07,5.06,1.05,36.85-15.44,37.96-15.7,1.12-.2,7.95,11.43,24.96,15.76,17.01,4.27,.13-12.74,52.75,3.15,34.29,10.31-6.31-21.29-6.31-21.29Z" style="fill:#f1944e; fill-rule:evenodd;"/><path d="M1564.48,936.86l3.68,29.56s-32.32,1.9-48.34,10.97c-16.09,9-39.81,35.14-39.81,35.14l19.31-33.37,2.82-21.28,62.34-21.02Z" style="fill:#fff; fill-rule:evenodd;"/><path d="M1550.69,973.06c-23.91-4.53-35.07,16.95-50.58,52.02-15.57,35.07-42.1,77.64-47.36,83.16-5.32,5.51-88.94,0-88.94,0,0,0-2.56,24.24,0,27.13,2.5,2.89,17.01,2.49,17.01,2.49,0,0,5.78,4.66,11.17,8.28,5.39,3.68,51.37,10.57,72.65,9.46,21.35-1.12,40.85-2.89,43.75-6.11,2.89-3.28,61.09-92.94,64.76-125.13,3.55-32.18-10.24-49.06-22.46-51.3Z" style="fill:#fff; fill-rule:evenodd;"/><path d="M1480.01,825.53c-45.32,2.17-38.23,70.42-38.23,70.42,0,0,11.76,3.61,36.46-.46-1.9-7.29-1.12-26.01-1.12-26.01,0,0,2.89,15.17,6.57,24.43,5.19,2.37,11.04,.26,21.09-2.17,5.19,21.67,19.77,30.81,29.69,33.96,11.04,3.48,22.66,7.55,35.67,1.05,13-6.5,5.91-72.98-1.05-86.38-10.38-20.1-27.59-38.03-57.41-28.57-14.97,4.73-31.66,13.73-31.66,13.73Z" style="fill:#20386f; fill-rule:evenodd;"/><path d="M1568.36,897.52l9.39,12.81s26.67-1.12,27.72,29.82c.79,24.24,16.29,26.86,34.42,22.4,18.13-4.47,25.49,15.5,25.49,15.5,0,0-17.08-3.41-27.46,16.23-14.12,26.8-54.91,21.48-66.47-6.31-9.52-22.99,5.32-23.71-4.6-40.53-9.98-16.75,7.42-35.73,7.42-35.73l-9-12.35,3.09-1.84Z" style="fill:#20386f; fill-rule:evenodd;"/><path d="M1548.98,934.11c-3.02,0-6.17-.2-9.59-.72-15.89-2.37-37.05-11.36-38.69-61.88-.07-.79,.59-1.51,1.38-1.58,.92,0,1.58,.66,1.58,1.45,.66,20.95,4.86,36.39,12.35,46.04,5.65,7.29,13.27,11.43,23.78,13.01,14.78,2.23,24.56-.53,29.1-8.15,.46-.66,1.38-.92,2.04-.46,.66,.4,.92,1.31,.53,1.97-4.14,6.9-11.69,10.31-22.46,10.31Z" style="fill:#20386f; fill-rule:evenodd;"/><path d="M1277.11,831.24c20.95-.59,13.2-16.23,37.37-9.98,12.61,3.29,3.28,8.54,19.77,6.83,16.49-1.71,24.63-3.42,26.67,7.36,2.04,10.77,3.09,14.19,11.04,15.83,7.95,1.71,11.49,15.9,0,25.49-11.5,9.66-5.98,13.6-3.35,21.55,2.5,7.95-6.17,8.54-10.9,15.83-4.73,7.42,4.34,8.8-2.43,15.17-6.83,6.37-16.36,5.85-16.36,5.85l-28.57-54.91-33.24-49Z" style="fill:#20386f; fill-rule:evenodd;"/><path d="M860.96,1485.73s-30.58,.86-54.39-8.54c-23.78-9.33-39.9-23.78-35.67-6.77,4.24,16.95,23.78,46.11,40.79,49,16.98,2.83,22.92,21.48,32.25,21.48s22.96-21.48,46.73-32.25c21.67-9.85-29.72-22.93-29.72-22.93Z" style="fill:#172b57; fill-rule:evenodd;"/><path d="M1090.43,1486.91s-12.87,17.73-35.27,30.08c-23.12,12.74-49.79,18.85-33.24,24.63,16.55,5.78,40.72,10.25,64.31,3.42,16.55-4.79,35.93-5.85,41.05-13.66,5.12-7.82-6.04-27.46-1.38-56.75,3.74-23.52-35.47,12.28-35.47,12.28Z" style="fill:#172b57; fill-rule:evenodd;"/><path d="M1233.69,1201.77s-177.22,66.34-191.54,84.86c-14.19,18.59-200.47,187.53-200.47,199.95s31.73,35.14,31.73,35.14c0,0,159.75-98,199.35-147.86,39.67-49.79,136.5-73.83,187.86-78.49,51.5-4.6-26.93-93.6-26.93-93.6Z" style="fill:#20386f; fill-rule:evenodd;"/><path d="M1226.86,1201.77s-121.25-4.53-147.26,0c-26.01,4.53-83.22,4.46-45.85,109.95,29.3,82.7,39.02,187.4,39.02,187.4l58.26,14.32s-2.3-188.25-30.15-238.37c20.23,3.35,57.41,9.85,108.91,24.57,95.5,27.32,147.92,13.66,147.92,13.66l14.25-49.86-145.1-61.68Z" style="fill:#223f81; fill-rule:evenodd;"/><polygon points="1328.15 888.78 1357.71 976.28 1320.27 1000.97 1299.12 925.3 1328.15 888.78" style="fill:#f9af79; fill-rule:evenodd;"/><path d="M1316.98,989.02l-17.87-63.72,29.03-36.52,10.77,31.99c-3.74,28.97-12.74,52.88-21.94,68.25Z" style="fill:#ed7d57; fill-rule:evenodd;"/><path d="M1252.54,903.56c-.99,26.67,12.15,49.73,32.91,51.76,20.75,2.03,39.74-17.8,42.3-44.34,2.63-26.47-12.09-49.59-32.84-51.69-20.76-2.04-40.86,2.3-42.37,44.27Z" style="fill:#f9af79; fill-rule:evenodd;"/><path d="M1371.96,973.78c90.91,61.35,34.35,160.6,14.39,233.12-17.01,61.74-16.42,99.05-18.98,99.05s-65.09-9.33-100.76-41.64c-35.67-32.25-59.84-63.52-59.84-63.52,0,0,45.72-8.14,60.69-67.33,7.55-30.02,4.14-46.31,21.41-93.87,17.28-47.56,83.09-65.82,83.09-65.82Z" style="fill:#6d96ce; fill-rule:evenodd;"/><path d="M1371.96,973.78l-9.79-23.84s-30.87,20.36-43.16,30.02c-12.35,9.59-19.9,11.89-19.9,11.89,0,0-4.47,34.16-1.58,31.07,36.39-39.08,74.42-49.13,74.42-49.13Z" style="fill:#6d96ce; fill-rule:evenodd;"/><polygon points="1412.22 1557.65 1404.34 1557.65 1347.33 1320.14 1364.8 1320.14 1412.22 1557.65" style="fill:#9c7357; fill-rule:evenodd;"/><polygon points="1174.45 1557.65 1182.33 1557.65 1247.68 1311.73 1230.28 1311.73 1174.45 1557.65" style="fill:#9c7357; fill-rule:evenodd;"/><path d="M1323.81,1329.07c31.79,0,51.89-5.72,64.76-18.26,15.96-15.5,19.31-39.61,19.31-70.87,.13-65.88,3.74-79.55,22.33-119.74,1.97-4.47,.07-9.79-4.4-11.82-4.4-2.04-9.79-.07-11.76,4.4-19.64,42.5-23.91,58.13-23.97,127.1-.06,31.79-4.07,48.61-13.86,58.2-10.12,9.79-28.38,13.86-59.12,13.07-29.75-.72-50.18-4.86-66.61-8.21-21.67-4.4-37.31-7.55-55.83,1.32-4.4,2.1-6.31,7.42-4.2,11.82,2.17,4.47,7.49,6.31,11.89,4.2,13.21-6.31,24.37-4.01,44.6,.13,17.08,3.48,38.36,7.75,69.69,8.54,2.43,.06,4.79,.13,7.16,.13Z" style="fill:#9c7357; fill-rule:evenodd;"/><path d="M1368.61,1063.18s-22.73,69.1-50.71,97.67c-28.11,28.64-84.47,38.23-102.21,37.11,14.12-5.65,40.99-21.81,51.76-64.5,7.55-30.02,4.14-46.31,21.41-93.87,12.88-35.34,52.42-54.45,71.93-62.01-24.37,17.54-54.84,46.31-64.24,68.31-10.44,24.3,72.06,17.28,72.06,17.28Z" style="fill:#466fb5; fill-rule:evenodd;"/><path d="M1055.82,1123.8s-39.02-17.87-43.35-16.16c-4.2,1.71-47.52,27.85-47.52,32.19s38.2-16.16,38.2-16.16c0,0-4.2,11.37-1.71,16.82,2.56,5.39,31.99,5.39,58.46,3.68,26.54-1.64-4.07-20.36-4.07-20.36Z" style="fill:#f9af79; fill-rule:evenodd;"/><path d="M1367.3,1009.78c36.06,73.83-87.49,148.71-160.8,155.34-73.37,6.63-160.47-17.34-160.47-17.34l9.79-23.97s146.94-19.18,150.68-21.87c3.68-2.69,147.66-119.22,160.8-92.16Z" style="fill:#6d96ce; fill-rule:evenodd;"/><path d="M1252.48,835.05c-9.92-4.14-21.15-8.61-17.67,8.34,1.51,7.36,0,5.25-2.7,12.09-2.63,6.77,6.7,12.09,9.72,15.9,3.02,3.74-4.4,7.88,1.64,12.41,6.04,4.53,13.99-1.71,19.64,0,16.82,4.99,14.71-8.21,24.17-10.97,9.46-2.76,14.06-2.3,15.9,3.74,1.77,6.04-6.63,25.88,.53,24.04,7.22-1.9,8.8,14.12,10.77,23.19,1.84,9.06,6.83-6.24,6.44-16.62-.39-15.89,3.55-22.6,9.33-27,5.91-4.47,8.41-44.93-19.9-46.44-28.31-1.51-28.51-4.27-40.59-6.83-12.09-2.5-12.68,10.05-17.28,8.14Z" style="fill:#20386f; fill-rule:evenodd;"/><rect x="834.82" y="1164.27" width="20.82" height="376.64" style="fill:#9c7357;"/><polygon points="885.17 909.61 980.61 908.49 1011.61 1074.47 920.7 1099.76 885.17 909.61" style="fill:#0b5396; fill-rule:evenodd;"/><polygon points="892.53 915.65 925.47 1092.08 1004.58 1070.07 975.55 914.6 892.53 915.65" style="fill:#859ac6; fill-rule:evenodd;"/><polygon points="912.53 1144.69 934.66 1144.69 934.66 1095.89 920.7 1099.76 912.53 1056.02 912.53 1144.69" style="fill:#223f81; fill-rule:evenodd;"/><path d="M1323.81,877.81c4.92-2.1,9.85,3.55,11.04,12.61,1.18,9.07-1.97,18.2-6.83,20.3-4.99,2.1-9.92-3.55-11.04-12.61-1.18-9.07,1.84-18.2,6.83-20.3Z" style="fill:#f9af79; fill-rule:evenodd;"/><path d="M996.57,81.32c0,2.23,1.84,4.01,4.01,4.01,2.17-.06,4.01-1.84,4.01-4.07l-.92-77.31c0-2.17-1.77-4.01-4.01-3.94-2.17,0-4.01,1.77-4.01,4.01l.92,77.31h0Zm346.16,228.19c-2.04,.79-4.34-.2-5.12-2.3-.79-2.04,.2-4.34,2.23-5.12l72.26-27.65c2.1-.79,4.33,.2,5.19,2.23,.79,2.1-.2,4.4-2.3,5.19l-72.25,27.65h0Zm-684.41-.07c2.07,.79,4.37-.2,5.19-2.3,.79-2.04-.23-4.34-2.3-5.12l-72.22-27.65c-2.07-.79-4.37,.2-5.16,2.3-.82,2.04,.23,4.34,2.27,5.12l72.22,27.65h0Zm609.52-123.03c-1.58,1.64-4.07,1.77-5.65,.26-1.64-1.51-1.71-4.07-.26-5.65l52.68-56.69c1.45-1.58,4.01-1.71,5.65-.2,1.58,1.51,1.71,4.01,.2,5.65l-52.62,56.62h0Zm-534.58-.07c1.51,1.64,4.01,1.77,5.65,.26,1.64-1.51,1.74-4.01,.23-5.65l-52.65-56.69c-1.48-1.58-4.04-1.71-5.65-.2-1.61,1.51-1.74,4.01-.23,5.65l52.65,56.62h0Zm417.92-68.64c-.66,2.1-2.89,3.28-4.99,2.69-2.1-.66-3.28-2.89-2.69-4.99l22.27-74.03c.66-2.1,2.89-3.35,4.99-2.69,2.1,.59,3.28,2.83,2.69,4.99l-22.27,74.03h0Zm-301.26-1.71c.62,2.17,2.86,3.35,4.96,2.69,2.13-.59,3.32-2.82,2.69-4.93l-22.27-74.03c-.62-2.17-2.86-3.35-4.99-2.69-2.1,.59-3.32,2.82-2.66,4.93l22.27,74.03Z" style="fill:#c4d1eb; fill-rule:evenodd;"/></svg>