<?xml version="1.0" encoding="UTF-8"?><svg id="a" xmlns="http://www.w3.org/2000/svg" viewBox="0 0 1704.97 1273.68"><path d="M867.61,77.24c173.6,0,153.79,286.09,279.07,373.31,165.89,115.41,451.21,58.25,451.21,256.36,0,347.74-370.11,473.72-773.45,473.72S76.98,987.79,197.07,640.94C317.14,294.1,464.28,77.24,867.61,77.24h0Zm0,0" style="fill:#e9eef7; fill-rule:evenodd;"/><path d="M931.65,566.9l438.12,1.86-381.25,32.19-538.94-21.82,482.07-12.23Zm0,0" style="fill:#becce7; fill-rule:evenodd;"/><path d="M486.22,116.45l425.84,282.1c12.44,8.21,15.86,25.1,7.62,37.54l-169.92,256.5c-8.25,12.44-25.13,15.86-37.54,7.65L286.39,418.13c-12.4-8.21-15.83-25.1-7.61-37.54L448.71,124.06c8.22-12.4,25.11-15.83,37.51-7.61h0Zm0,0" style="fill:#cfdaee; fill-rule:evenodd;"/><path d="M418.22,315.95l113.09,10.84c.29-.67,.66-1.33,1.06-1.97,3.58-5.42,10.9-6.91,16.33-3.33,5.41,3.6,6.87,10.91,3.28,16.33-.2,.31-.43,.64-.66,.9l23.67,35.51c3.23-.97,6.82-.53,9.82,1.47,1.19,.79,2.16,1.72,2.95,2.79l72.72-25.54c-.1-2.4,.54-4.82,1.93-6.95,3.6-5.42,10.91-6.92,16.33-3.33,5.43,3.6,6.89,10.91,3.29,16.33-1.06,1.63-2.46,2.9-4.06,3.76l12.83,60.49c1.9,.16,3.76,.79,5.46,1.89,1.09,.77,2.02,1.63,2.79,2.63l74.49-27.76c-.14-2.46,.46-4.95,1.92-7.18,3.59-5.38,10.91-6.88,16.33-3.29,5.42,3.58,6.88,10.9,3.29,16.29-.53,.86-1.2,1.6-1.9,2.22l20.22,43.53c2.76-.4,5.62,.2,8.11,1.83,5.42,3.58,6.88,10.9,3.29,16.32-3.59,5.42-10.87,6.89-16.29,3.3-5.42-3.59-6.92-10.87-3.33-16.29,.56-.84,1.2-1.6,1.93-2.23l-20.25-43.49c-2.73,.37-5.62-.23-8.08-1.86-1.1-.73-2.05-1.63-2.83-2.63l-74.44,27.8c.13,2.42-.5,4.95-1.97,7.15-3.59,5.42-10.87,6.92-16.29,3.33-5.42-3.59-6.92-10.9-3.32-16.33,1.06-1.63,2.49-2.89,4.09-3.79l-12.87-60.45c-1.85-.17-3.72-.8-5.42-1.93-1.17-.76-2.17-1.72-2.96-2.79l-72.68,25.57c.06,2.39-.54,4.83-1.97,6.95-3.59,5.42-10.9,6.88-16.33,3.29-5.38-3.6-6.88-10.87-3.29-16.29,.2-.33,.43-.63,.66-.93l-23.67-35.48c-3.19,.93-6.82,.49-9.82-1.5-2.69-1.76-4.42-4.49-5.02-7.41l-113.12-10.84c-.27,.66-.63,1.33-1.03,1.96-3.59,5.42-10.91,6.92-16.33,3.32-5.41-3.59-6.88-10.91-3.29-16.33,3.58-5.42,10.87-6.88,16.29-3.29,2.69,1.76,4.42,4.49,5.01,7.41h0Zm0,0" style="fill:#fff; fill-rule:evenodd;"/><path d="M774.61,488.59l32.81,21.75-102.41,154.62-32.86-21.75,102.45-154.61Zm-411.45-140.16l32.81,21.75-41.46,62.58-32.81-21.75,41.46-62.58Zm63.44,12.94l32.85,21.75-54.86,82.83-32.82-21.75,54.84-82.82Zm72.81-1.16l32.86,21.75-77.61,117.14-32.85-21.75,77.6-117.14Zm34.25,57.09l32.81,21.75-61.74,93.24-32.86-21.75,61.78-93.23Zm92.35-30.66l32.84,21.74-104.08,157.05-32.81-21.75,104.05-157.04Zm13.5,88.35l32.85,21.75-67.5,101.88-32.81-21.75,67.47-101.88Zm100.48-42.89l32.82,21.74-117.87,177.93-32.81-21.75,117.87-177.92Zm0,0" style="fill:#fff; fill-rule:evenodd;"/><path d="M608.62,443.84L1140.3,96.89c15.86-10.34,37.27-5.82,47.62,10.04l209.01,320.27c10.34,15.87,5.82,37.28-10.04,47.65l-531.65,346.91c-15.86,10.34-37.31,5.85-47.65-10.01l-208.98-320.31c-10.34-15.83-5.85-37.27,10.01-47.61h0Zm0,0" style="fill:#cfdaee; fill-rule:evenodd;"/><path d="M1140.3,96.89L608.62,443.84c-15.86,10.34-20.35,31.78-10.01,47.61l9.95,15.23L1197.86,122.13l-9.91-15.2c-10.38-15.86-31.79-20.38-47.65-10.04h0Zm0,0" style="fill:#becce7; fill-rule:evenodd;"/><path d="M642.93,512.76L1189.58,156.08l53.47,81.9-546.65,356.72-53.47-81.93Zm0,0" style="fill:#e9eef7; fill-rule:evenodd;"/><path d="M711.66,618.07l246.09-160.57,53.44,81.93-246.09,160.57-53.43-81.93Zm0,0" style="fill:#e9eef7; fill-rule:evenodd;"/><path d="M989.22,436.98l134.66-87.88,53.43,81.93-134.67,87.88-53.43-81.93Zm0,0" style="fill:#e9eef7; fill-rule:evenodd;"/><path d="M1108.91,509l-328.56,214.4,48.58,74.41c2.69,4.13,9.38,4.56,14.9,.97l318.54-207.85-53.47-81.93Zm0,0" style="fill:#e9eef7; fill-rule:evenodd;"/><path d="M1153.1,330.05l105.21-68.66,53.44,81.93-105.21,68.63-53.43-81.89Zm0,0" style="fill:#e9eef7; fill-rule:evenodd;"/><path d="M1327.04,366.69l-186.07,121.43,53.43,81.9,178.59-116.51c4.12-2.69,5.29-8.28,2.59-12.37l-48.55-74.45Zm0,0" style="fill:#e9eef7; fill-rule:evenodd;"/><path d="M629.23,447.49c6.22-4.02,14.51-2.29,18.56,3.89,4.02,6.22,2.29,14.5-3.92,18.55-6.18,4.03-14.46,2.29-18.52-3.92-4.02-6.19-2.29-14.46,3.89-18.52h0Zm97.7-63.74c6.19-4.02,14.5-2.3,18.52,3.89,4.05,6.21,2.29,14.5-3.89,18.55-6.18,4.02-14.46,2.29-18.52-3.92-4.03-6.18-2.3-14.47,3.89-18.52h0Zm-48.84,31.89c6.21-4.06,14.49-2.3,18.52,3.89,4.05,6.19,2.29,14.5-3.89,18.52-6.19,4.02-14.47,2.29-18.52-3.89-4.03-6.18-2.3-14.5,3.89-18.52h0Zm0,0" style="fill:#fff; fill-rule:evenodd;"/><path d="M852.48,1123.95c470.8,0,852.49,33.51,852.49,74.88s-381.69,74.85-852.49,74.85S0,1240.16,0,1198.83s381.65-74.88,852.48-74.88h0Zm0,0" style="fill:#cfdaee; fill-rule:evenodd;"/><path d="M449.58,579.13l538.94,21.82v527.92l-538.94-38.44v-511.3Zm0,0" style="fill:#becce7; fill-rule:evenodd;"/><path d="M1369.77,568.76l-381.25,32.19v527.92l381.25-67.54v-492.58Zm0,0" style="fill:#aabcdd; fill-rule:evenodd;"/><path d="M1213.52,922.65v166.35l-68.73,12.44v-168.38l68.73-10.4Zm0,0" style="fill:#8ca3ca; fill-rule:evenodd;"/><path d="M354.82,683.01l580.26,42.03,53.44-124.09-538.94-21.82-94.77,103.88Zm0,0" style="fill:#cfdaee; fill-rule:evenodd;"/><path d="M1074.2,744.65l-85.68-143.7,381.28-32.19,78.47,105.74-374.07,70.16Zm0,0" style="fill:#becce7; fill-rule:evenodd;"/><path d="M957.62,16.49c35.61,0,64.47,28.9,64.47,64.51s-28.86,64.47-64.47,64.47-64.51-28.86-64.51-64.47,28.89-64.51,64.51-64.51h0Zm0,0" style="fill:#becce7; fill-rule:evenodd;"/><path d="M945.05,99.69l-33.25-14.43v-8.02l33.25-14.4v9.41l-23.21,8.88,23.21,9.21v9.34Zm3.06,6.38l12.04-50.14h6.98l-12.1,50.14h-6.92Zm22.08-6.32v-9.34l23.18-9.14-23.18-9.08v-9.27l33.25,14.39v7.95l-33.25,14.49Zm0,0" style="fill:#fff; fill-rule:evenodd;"/><path d="M658.8,0c51.3,0,92.87,41.6,92.87,92.87s-41.57,92.87-92.87,92.87-92.87-41.57-92.87-92.87S607.52,0,658.8,0h0Zm0,0" style="fill:#becce7; fill-rule:evenodd;"/><path d="M634.26,50.41l70.39,40.4c1.53,.86,2.06,2.83,1.17,4.36-.27,.53-.7,.93-1.17,1.19l-70.49,40.47c-1.53,.86-3.5,.33-4.39-1.2-.26-.49-.4-1.03-.4-1.59V53.13c0-1.76,1.43-3.19,3.19-3.19,.63,0,1.2,.17,1.7,.47h0Zm0,0" style="fill:#fff; fill-rule:evenodd;"/><path d="M812.91,142.98c32.66,0,59.15,26.5,59.15,59.15s-26.49,59.15-59.15,59.15-59.16-26.5-59.16-59.15,26.48-59.15,59.16-59.15h0Zm0,0" style="fill:#becce7; fill-rule:evenodd;"/><path d="M791.97,198.94c4.12,0,7.81,1.66,10.51,4.32,2.69,2.69,4.36,6.42,4.36,10.51s-1.66,7.78-4.36,10.47l-.03,.04c-2.69,2.66-6.38,4.32-10.47,4.32s-7.78-1.66-10.48-4.32c-2.69-2.7-4.35-6.42-4.35-10.51s1.65-7.78,4.35-10.47v-.03c2.69-2.66,6.38-4.32,10.48-4.32h0Zm37.21-23.27c5.35,0,10.24,2.16,13.77,5.71h.03c3.52,3.53,5.69,8.38,5.69,13.77s-2.16,10.27-5.69,13.8c-3.52,3.52-8.41,5.72-13.8,5.72s-10.28-2.19-13.8-5.72c-3.52-3.56-5.72-8.42-5.72-13.8s2.2-10.24,5.72-13.77c3.52-3.52,8.41-5.71,13.8-5.71h0Zm7.35,12.13c-1.86-1.86-4.45-3.02-7.35-3.02s-5.49,1.16-7.34,3.02c-1.9,1.9-3.07,4.49-3.07,7.35s1.16,5.49,3.03,7.35h.04c1.85,1.9,4.48,3.06,7.34,3.06s5.45-1.16,7.35-3.06c1.86-1.86,3.03-4.45,3.03-7.35s-1.16-5.45-3.03-7.35h0Zm-40.5,21.92c-1.03-1.03-2.46-1.67-4.06-1.67s-3.03,.64-4.06,1.67c-1.03,1.03-1.66,2.46-1.66,4.05s.63,3.03,1.66,4.06c1.06,1.03,2.49,1.66,4.06,1.66s3.03-.63,4.06-1.66h.03c1.03-1.03,1.66-2.46,1.66-4.06s-.66-3.03-1.7-4.05h0Zm0,0" style="fill:#fff; fill-rule:evenodd;"/><path d="M217.82,480.04c-20.94-.56-13.16-16.12-37.25-9.9-12.66,3.26-3.32,8.47-19.75,6.78-16.46-1.7-24.54-3.39-26.63,7.32-2.06,10.74-3.05,14.13-10.97,15.82-7.91,1.7-11.47,15.83,0,25.44,11.48,9.61,5.89,13.53,3.36,21.45-2.56,7.91,6.11,8.48,10.84,15.83,4.69,7.34-4.36,8.75,2.43,15.1,6.78,6.38,16.29,5.82,16.29,5.82l28.53-54.73,33.15-48.92Zm0,0" style="fill:#303c60; fill-rule:evenodd;"/><path d="M644.37,1136.85s30.52,.83,54.23-8.48c23.74-9.34,39.84-23.74,35.62-6.78-4.25,16.92-23.75,46.02-40.7,48.85-16.93,2.83-22.88,21.48-32.19,21.48s-22.87-21.48-46.62-32.22c-21.61-9.78,29.67-22.84,29.67-22.84h0Zm0,0" style="fill:#ba6939; fill-rule:evenodd;"/><path d="M403.96,1133.99s12.83,17.69,35.17,29.99c23.05,12.7,49.64,18.82,33.16,24.57-16.49,5.75-40.6,10.21-64.14,3.39-16.5-4.79-35.85-5.82-40.94-13.6-5.12-7.78,5.98-27.37,1.36-56.63-3.69-23.44,35.39,12.27,35.39,12.27h0Zm0,0" style="fill:#ba6939; fill-rule:evenodd;"/><path d="M261.11,849.59s176.73,66.17,190.96,84.66c14.24,18.52,200,187,200,199.44s-31.66,35.01-31.66,35.01c0,0-159.31-97.72-198.84-147.44-39.56-49.7-136.06-73.68-187.37-78.27-51.34-4.62,26.9-93.41,26.9-93.41h0Zm0,0" style="fill:#233862; fill-rule:evenodd;"/><path d="M267.9,849.59s120.9-4.52,146.9,0c25.97,4.53,82.99,4.49,45.69,109.7-29.23,82.46-38.87,186.9-38.87,186.9l-58.09,14.27s2.29-187.77,30.03-237.75c-20.18,3.33-57.26,9.81-108.63,24.51-95.26,27.23-147.5,13.6-147.5,13.6l-14.2-49.71,144.67-61.52Zm0,0" style="fill:#2b478b; fill-rule:evenodd;"/><path d="M166.95,537.47l-29.53,87.28,37.31,24.58,21.15-75.41-28.93-36.44Zm0,0" style="fill:#ffb27d; fill-rule:evenodd;"/><path d="M178.06,637.42l17.82-63.51-28.93-36.44-10.81,31.92c3.73,28.82,12.73,52.67,21.92,68.03h0Zm0,0" style="fill:#f08261; fill-rule:evenodd;"/><path d="M242.29,552.23c.97,26.53-12.06,49.51-32.78,51.57-20.75,2.03-39.66-17.72-42.26-44.19-2.59-26.4,12.07-49.51,32.83-51.54,20.71-2.06,40.72,2.27,42.22,44.16h0Zm0,0" style="fill:#ffb27d; fill-rule:evenodd;"/><path d="M123.22,622.19c-90.67,61.25-34.28,160.2-14.36,232.52,16.96,61.58,16.39,98.79,18.95,98.79s64.91-9.31,100.48-41.5c35.58-32.22,59.66-63.41,59.66-63.41,0,0-45.59-8.11-60.52-67.1-7.54-29.92-4.12-46.18-21.34-93.66-17.26-47.45-82.87-65.64-82.87-65.64h0Zm0,0" style="fill:#699dee; fill-rule:evenodd;"/><path d="M123.22,622.19l9.71-23.77s30.79,20.35,43.09,29.96c12.27,9.61,19.85,11.87,19.85,11.87,0,0,4.46,34.05,1.56,30.95-36.35-38.93-74.22-49.01-74.22-49.01h0Zm0,0" style="fill:#699dee; fill-rule:evenodd;"/><path d="M83.03,1204.55h7.91l56.79-236.88h-17.42l-47.28,236.88Zm0,0" style="fill:#d1a586; fill-rule:evenodd;"/><path d="M320.2,1204.55h-7.91l-65.13-245.26h17.39l55.66,245.26Zm0,0" style="fill:#d1a586; fill-rule:evenodd;"/><path d="M171.24,976.55c-31.73,0-51.81-5.68-64.64-18.19-15.89-15.49-19.19-39.47-19.22-70.72-.1-65.71-3.75-79.27-22.25-119.4-2.06-4.46-.1-9.71,4.36-11.77,4.45-2.03,9.71-.1,11.78,4.36,19.54,42.4,23.74,57.99,23.83,126.78,.07,31.69,4.09,48.49,13.87,58.03,10.08,9.81,28.27,13.87,58.95,13.1,29.63-.76,50.04-4.88,66.44-8.24,21.58-4.36,37.14-7.55,55.62,1.29,4.42,2.13,6.28,7.42,4.19,11.84-2.13,4.43-7.42,6.28-11.84,4.19-13.1-6.28-24.23-4.02-44.42,.1-17.1,3.46-38.34,7.78-69.57,8.54-2.42,.07-4.82,.1-7.11,.1h0Zm0,0" style="fill:#a0795f; fill-rule:evenodd;"/><path d="M563.03,813.95h-128.61c-4.92,0-8.88-3.96-8.88-8.84s3.96-8.88,8.88-8.88h122.93l49.61-106.73c2.06-4.42,7.35-6.39,11.77-4.29,4.46,2.06,6.38,7.31,4.32,11.77l-51.97,111.85c-1.45,3.13-4.59,5.12-8.04,5.12h0Zm0,0" style="fill:#2b478b; fill-rule:evenodd;"/><path d="M126.58,711.34s22.58,68.93,50.57,97.46c27.96,28.53,84.23,38.13,101.85,37-14.03-5.65-40.8-21.72-51.58-64.31-7.54-29.92-4.12-46.18-21.34-93.66-12.8-35.21-52.27-54.3-71.76-61.81,24.33,17.46,54.73,46.22,64.07,68.1,10.37,24.3-71.82,17.22-71.82,17.22h0Zm0,0" style="fill:#4a75cb; fill-rule:evenodd;"/><path d="M438.48,771.86s38.97-17.83,43.22-16.13c4.23,1.69,47.46,27.8,47.46,32.12s-38.14-16.1-38.14-16.1c0,0,4.22,11.27,1.69,16.69-2.52,5.42-31.85,5.42-58.29,3.72-26.43-1.69,4.06-20.31,4.06-20.31h0Zm0,0" style="fill:#ffb27d; fill-rule:evenodd;"/><path d="M127.81,658.1c-35.91,73.65,87.35,148.3,160.47,154.96,73.12,6.61,160-17.29,160-17.29l-9.81-23.9s-146.51-19.12-150.19-21.82c-3.72-2.66-147.3-118.91-160.47-91.94h0Zm0,0" style="fill:#699dee; fill-rule:evenodd;"/><path d="M174.54,539.93c3.32,8.77,.89,17.82-5.46,20.24-6.31,2.4-14.17-2.72-17.49-11.5-3.36-8.74-.89-17.82,5.46-20.22,6.31-2.43,14.16,2.73,17.49,11.48h0Zm0,0" style="fill:#ffb27d; fill-rule:evenodd;"/><path d="M268.33,486.06c-1.5,7.35,13.5,7.52,16.16,14.3,2.63,6.78-12.43,17.89-15.46,21.65-2.99,3.76-11.67,5.91-17.69,10.44-6.02,4.52-13.97-1.66-19.58,0-16.76,5.02-14.69-8.18-24.11-10.91-9.41-2.76-14.03-2.32-15.83,3.69-1.76,6.05,6.58,25.87-.57,23.97-7.14-1.86-8.74,14.14-10.67,23.18-1.92,9.05-6.84-6.25-6.51-16.59,.47-15.86-3.45-22.51-9.31-26.93-37.77-24.67,18.59-66.91,58.49-63.51,3.23-.7,48.55,3.86,45.09,20.71h0Zm0,0" style="fill:#233862; fill-rule:evenodd;"/><path d="M352.02,813.95h302.28c7.41,0,13.47,6.05,13.47,13.43s-6.05,13.47-13.47,13.47H352.02c-7.38,0-13.43-6.05-13.43-13.47s6.05-13.43,13.43-13.43h0Zm0,0" style="fill:#a0795f; fill-rule:evenodd;"/><path d="M392.75,840.85l-72.59,363.7h12.73l87.15-363.7h-27.3Zm220.82,0l72.59,363.7h-12.73l-87.15-363.7h27.3Zm0,0" style="fill:#d1a586; fill-rule:evenodd;"/><path d="M1437.3,365.96c-5.55,.4-10.87-6.18-12.43-8.15-5.89-7.48-9.64-16.26-11.14-21.18,1.13-3.26,2.33-7.41,3.59-12.4,21.35-14.49,24.27-25.2,8.75-32.16-3.12,1.74-6.98,7.15-11.64,16.2-3.69-.17-6.48-2.06-8.41-5.69,4.42-15.26,7.28-27.66,8.61-37.17-10.51-15.63-35.11-17.86-67.67-13.67-1.53,8.68-2.76,17.86-3.72,27.56-5.75,5.29-5.02,24.98,.31,47.62-2.67,12.9,5.28,19.92,23.87,21.12,.17,3.09-.13,6.68-.17,8.84-.07,2-.13,5.85-2.2,6.45l-3.42,.87c.33,46.05,23.91,54.93,75.68,1.76h0Zm0,0" style="fill:#ffb27d; fill-rule:evenodd;"/><path d="M1346.96,251.78c32.55-4.22,57.16-2,67.67,13.64-1.33,9.51-4.19,21.91-8.61,37.17,1.93,3.63,4.72,5.52,8.41,5.69,4.62-9.04,8.51-14.46,11.64-16.2,15.53,6.95,12.6,17.66-8.75,32.16-1.26,4.99-2.46,9.15-3.62,12.4,19.23-4.29,35.28-21.48,37.54-28.89,22.38-44.16-2.59-62.78-15.96-69.6-5.88-43.69-69.59-5.91-86.39-32.58-35.05,20.02-11.8,45.82-1.93,46.22h0Zm0,0" style="fill:#233862; fill-rule:evenodd;"/><path d="M1388.79,343.55c-5.19,2.56-12.34,4.06-21.38,4.49,.17,3.05,.03,6.58-.17,8.77,9.11-1.76,16.29-6.18,21.55-13.27h0Zm0,0" style="fill:#f08261; fill-rule:evenodd;"/><path d="M1476.1,1228.89c20.25-7.12,21.88-17.55,32.75-22.64,10.97-5.12,12.24-14.23,1.53-24.17-7.94,6.35-17.79,14.13-22.98,10.01-3.49-2.76-15.3-2.56-17.62,1.43-10.27,23.91-24.57,16.33-27.37,27.2-.33,14.46,24.41,11.44,33.68,8.18h0Zm0,0" style="fill:#163560; fill-rule:evenodd;"/><path d="M1300.87,1205.15c35.61-.6,62.25-1,74.55-4.89,13.27-4.19,10.51-12.3,2.89-25.24-33.58,15.43-24.64-3.19-40.33-.8-11.04,8.88-27.37,14.83-49.01,17.86-9.14,6.75-5.42,12.77,11.9,13.07h0Zm0,0" style="fill:#163560; fill-rule:evenodd;"/><path d="M1318.66,371.18c17.8-5.15,33.76-8.28,47.88-9.41,2.56,39.07,22.94,38.8,61.15-.8,36.77,3.09,43.96,3.56,64.37,10.17,44.16,42.2,48.25,90.88,71.32,146.5-25.57,1.13-37.04,4.22-54.4,10.41-3.76-13.33-6.85-24.04-9.38-32.19,.7,73.35,.96,123.63,.8,150.8-84.52,33.48-154.12,22.01-182.58-4.06-.4-65.21-.93-116.84-1.62-154.88-10.12,11.9-19.49,21.15-28.11,27.74-20.75-23.77-34.78-33.35-46.52-47.35,26-42.72,63.28-82.46,77.08-96.93h0Zm0,0" style="fill:#f99746; fill-rule:evenodd;"/><path d="M1148.31,442.64c44.39,18.45,75.48,33.68,93.27,45.72l7.88-11.67c7.35,7.35,15.73,14.56,25.97,25.04-9.44,9.91-19.62,18.02-31.42,24.9-30.86-3.29-64.97-26.67-102.31-70.09-11.6-2.33-20.15-6.52-25.64-12.64-.3-5.59,2.53-11.21,8.45-16.83-15.5-10.08-21.65-17.32-18.49-21.65,24.27,15,38.37,27.4,42.29,37.21h0Zm0,0" style="fill:#ffb27d; fill-rule:evenodd;"/><path d="M1317.83,642.61c1.66,6.32-5.22,43.59-6.38,63.01-11.24,69.36-1.59,159.63,4.46,275.75,10.81,40.9,26.8,95.43,25.77,172.17,18.85,5.75,25.67,6.35,42.69,2.03,11.91-80.07,3.79-144.21-6.98-173.84,6.88-45.79,17.19-97.03,32.15-170.94,16.82,80.57,39.4,140.32,49.14,179.32,1.96,43.5,10.75,102.18,15.33,176.06,14,4.22,22.71,5.45,37.24,3.66,18.85-67.9,15.7-141.81,7.71-221.68-8.51-96.07,5.52-204.5-8.51-242.1-7.18-22.28-8.11-42.03-10.04-59.38-70.53,23.47-131.37,22.11-182.58-4.06h0Zm0,0" style="fill:#ed7d2b; fill-rule:evenodd;"/><path d="M1487.41,572.15c4.52,.67,8.81,1.26,12.83,1.8,.23,32.39,.27,56.63,.17,72.72-3.99,1.8-9.61,3.85-13.96,4.35,0-2.06,.67-6.84,.7-8.91,.27-24.74,.37-48.04,.27-69.96h0Zm-206.66-64.84c12.47-10.38,24.31-27.2,35.55-50.48-1.26,8.11-1.76,18.95-1.49,32.55-9.58,11.11-18.5,19.78-26.71,26.07-2.56-2.93-4.99-5.63-7.35-8.15h0Zm203.13-63.09c5.49,17.63,10.74,34.85,15.73,51.64,.13,14.16,.27,27.5,.37,39.93-3.62-.33-7.88-.56-12.9-.66-.53-34.45-1.6-64.77-3.19-90.91h0Zm0,0" style="fill:#ed7d2b; fill-rule:evenodd;"/><path d="M1372.33,469.6h-93.04c-4.26,0-7.22,3.49-6.52,7.75l20.88,131.8c.66,4.29,4.69,7.78,8.98,7.78h93.04c4.26,0,7.21-3.49,6.52-7.78l-20.88-131.8c-.66-4.26-4.69-7.75-8.98-7.75h0Zm0,0" style="fill:#2b478b; fill-rule:evenodd;"/><path d="M1554.81,518.15c4.02,16.33,5.68,31.26,2.39,51.04-10.04,14.6-50.58,6.42-154.91-11.01-3.72,3.42-11.47,6.82-23.21,5.29-10.94-2.73-11.44-5.55-23.67-17.09-2.98-9.01-2.36-15.86,1.83-20.61,13.77,8.11,21.01,12.43,36.54,12.96-4.12-10.64-4.75-17.52-1.86-20.62,5.29,4.26,8.74,10.64,10.34,19.15,82.26-3.56,103.97-3.09,114.91,2.66-1.2-5.16-2.23-9.71-3.16-13.64,12.8-4.36,23.24-6.89,40.8-8.15h0Zm0,0" style="fill:#ffb27d; fill-rule:evenodd;"/><path d="M1375.95,1157.43c-.86,6.98-.96,13.27-.37,18.82-28.1,12.2-23.31-1.9-34.54-2.26,2.82-4.96,4.65-11.3,5.48-19.02,12.24,3.52,19.22,4.32,29.43,2.46h0Zm130.87,12.87c0,5.09,.5,9.58,1.5,13.43-7.52,5.92-16.15,12.14-20.91,8.34-2.29-1.8-8.18-2.36-12.6-1.36,1.83-6.15,3.26-13.83,4.32-23.08,9.84,2.66,17.42,3.56,27.7,2.66h0Zm0,0" style="fill:#ffb27d; fill-rule:evenodd;"/><path d="M1311.44,705.62c49.61,46.25,115.95,46.39,199.01,.43,14.03,37.61,0,146.03,8.51,242.1,7.98,79.87,11.14,153.78-7.71,221.68-1.53,.2-2.99,.37-4.42,.46-10.27,.9-17.86,0-27.7-2.66-1.63-.43-3.32-.93-5.12-1.46-4.58-73.88-13.37-132.57-15.33-176.06-9.74-39-32.32-98.76-49.14-179.32-14.96,73.91-25.27,125.16-32.15,170.94,10.77,29.63,18.89,93.77,6.98,173.84-3.09,.8-5.85,1.43-8.41,1.86-10.21,1.86-17.19,1.06-29.43-2.46-1.53-.43-3.16-.9-4.85-1.43,1.03-76.74-14.96-131.27-25.77-172.17-6.05-116.12-15.69-206.39-4.46-275.75h0Zm0,0" style="fill:#2b478b; fill-rule:evenodd;"/><path d="M1389.72,1100.54c-18.09,4.92-34.65,6.42-49.68,4.46-.33-3.96-.7-7.88-1.09-11.7,16.48,2.16,33.54,1.03,51.16-3.33-.09,3.49-.23,7.02-.4,10.57h0Zm132.24,13.77c-19.69,2.36-37.11,1.06-52.3-3.89-.37-4.12-.76-8.21-1.13-12.24,17.02,5.59,35.21,7.48,54.53,5.72-.33,3.49-.7,6.95-1.1,10.41h0Zm-49.74,26c-.33-4.09-.67-8.11-.99-12.1,15.19,4.16,31.28,5.49,48.24,3.99-.57,3.53-1.2,7.02-1.86,10.51-16.79,1.9-31.92,1.1-45.39-2.39h0Zm-131.31-22.61c15.33,2.53,31.29,2.26,47.81-.83-.27,3.49-.57,7.05-.9,10.64-16.92,3.56-32.39,4.22-46.39,1.89-.13-3.96-.33-7.88-.53-11.7h0Zm0,0" style="fill:#2b478b; fill-rule:evenodd;"/></svg>