<?xml version="1.0" encoding="UTF-8"?><svg id="a" xmlns="http://www.w3.org/2000/svg" viewBox="0 0 2270.89 1432.32"><path d="M921.65,316.08H178.75c5.33-22.57,25.6-39.36,49.8-39.36,1.16,0,2.33,.05,3.48,.14,11.73-28.72,39.95-48.97,72.9-48.97,14.42,0,27.91,3.89,39.52,10.64,14.17-46.7,57.55-80.71,108.89-80.71,10.44,0,20.57,1.42,30.17,4.07,24.86-54.87,80.09-93.03,144.24-93.03,76.08,0,139.63,53.71,154.81,125.28,1.29-.05,2.56-.09,3.84-.09,48.74,0,88.96,36.45,94.91,83.57,19.88,3.73,35.73,18.93,40.34,38.48Z" style="fill:#e0e8f5; fill-rule:evenodd;"/><path d="M2107.19,247.24h-742.9c5.33-22.57,25.6-39.36,49.8-39.36,1.16,0,2.33,.05,3.48,.13,11.73-28.72,39.95-48.97,72.9-48.97,14.41,0,27.91,3.89,39.52,10.64,14.17-46.71,57.56-80.71,108.89-80.71,10.44,0,20.57,1.42,30.17,4.07C1693.92,38.16,1749.15,0,1813.3,0c76.09,0,139.63,53.71,154.82,125.28,1.29-.05,2.56-.09,3.85-.09,48.74,0,88.96,36.45,94.9,83.57,19.88,3.73,35.73,18.94,40.34,38.48Z" style="fill:#e0e8f5; fill-rule:evenodd;"/><polygon points="307.02 98.37 161.42 133.66 191.73 187.46 307.02 98.37" style="fill:#c4d1eb; fill-rule:evenodd;"/><polygon points="145.54 108.07 302.79 98.04 111.23 83.01 145.54 108.07" style="fill:#c4d1eb; fill-rule:evenodd;"/><polygon points="145.54 108.07 139.48 171.71 161.42 133.66 307.02 98.37 302.79 98.04 145.54 108.07" style="fill:#9db2d9; fill-rule:evenodd;"/><polygon points="139.48 171.71 174.85 157.5 161.42 133.66 139.48 171.71" style="fill:#859ac6; fill-rule:evenodd;"/><path d="M121.28,136.85c3.73-.32,3.93,5.03,.64,5.31-1.75,.22-3.48,.45-5.22,.72-3.92,.34-3.89-5.02-.79-5.29,1.79-.27,3.58-.51,5.37-.73h0Zm22.47,315.5c-2.18,2.71-6.39-.6-4.15-3.38,1.11-1.35,2.18-2.72,3.24-4.12,2.35-2.92,6.35,.64,4.28,3.21-1.1,1.45-2.21,2.88-3.37,4.29h0Zm12.25-18.14c-1.33,2.89-6.35,1.02-4.73-2.49,.81-1.54,1.59-3.08,2.32-4.65,1.49-3.22,6.33-.95,4.87,2.22-.77,1.67-1.6,3.3-2.45,4.92h0Zm7.98-20.48c-1.11,3.48-5.84,2.13-5.19-1.29,.42-1.66,.79-3.36,1.09-5.05,.68-3.57,5.9-2.43,5.27,.93-.31,1.8-.72,3.64-1.17,5.41h0Zm2.45-21.92c.28,3.15-5.01,4.04-5.34,.16-.04-1.62-.07-3.58-.29-5.17-.31-3.58,5.02-3.94,5.32-.51,.21,1.76,.27,3.74,.31,5.52h0Zm-3.31-21.75c.95,3.52-4.26,4.77-5.14,1.48-.48-1.67-.98-3.31-1.54-4.96-1.18-3.21,3.79-5.18,5.05-1.77,.58,1.75,1.13,3.47,1.63,5.25h0Zm-8.11-20.34c1.62,3.42-3.33,5.43-4.74,2.48-.79-1.54-1.64-3.09-2.51-4.58-1.77-3.12,2.91-5.7,4.62-2.69,.91,1.58,1.79,3.18,2.63,4.8h0Zm-11.67-18.43c2.16,3.03-2.33,5.94-4.26,3.23-1.06-1.41-2.13-2.78-3.23-4.15-2.28-3.21,2.35-5.9,4.16-3.37,1.14,1.42,2.25,2.83,3.34,4.28h0Zm-14.23-16.43c2.5,2.53-1.33,6.26-3.79,3.77l-3.76-3.69c-2.63-2.66,1.35-6.23,3.68-3.88,1.31,1.25,2.6,2.52,3.87,3.8h0Zm-16.14-14.48c2.76,2.23-.62,6.37-3.34,4.18l-4.16-3.23c-2.93-2.36,.64-6.35,3.21-4.28l4.29,3.33h0Zm-17.66-12.57c2.96,1.85,.17,6.41-2.85,4.53l-4.5-2.77c-3.1-1.94-.14-6.39,2.74-4.6,1.55,.93,3.09,1.87,4.62,2.84h0Zm-18.79-10.59c3.04,1.9,.7,6.2-2.53,4.71-1.59-.85-3.17-1.69-4.74-2.57-3.26-2.03-.12-6.36,2.61-4.67l4.66,2.53h0Zm-18.36-10.59c2.95,1.84,.18,6.41-2.86,4.52-1.52-.96-3.04-1.94-4.54-2.92-2.84-1.77-.19-6.42,2.95-4.46,1.48,.97,2.95,1.93,4.45,2.87h0Zm-17.26-12.1c2.74,2.2-.61,6.38-3.36,4.16-1.41-1.13-2.84-2.27-4.21-3.46-2.55-2.05,.57-6.4,3.51-4.03,1.29,1.15,2.7,2.26,4.05,3.33h0Zm-15.23-14.29c2.26,2.51-1.59,6.22-4.04,3.5-1.22-1.4-2.37-2.84-3.51-4.31-2.11-2.97,2.32-5.96,4.31-3.18,.95,1.33,2.17,2.75,3.24,3.99h0Zm-10.76-17.22c1.2,3.26-3.8,5.17-5.03,1.81-.66-1.8-1.21-3.59-1.65-5.46-.83-3.08,4.23-4.85,5.23-1.12,.37,1.62,.88,3.21,1.45,4.77h0Zm-1.47-19.5c-.61,3.18-5.92,2.52-5.21-1.23,.47-1.89,1.02-3.66,1.73-5.48,1.62-3.51,6.3-.9,4.96,1.99-.61,1.57-1.08,3.08-1.48,4.72h0Zm9.43-17.56c-2.08,2.58-6.4-.57-4.06-3.49,1.19-1.41,2.47-2.77,3.77-4.08,2.52-2.49,6.26,1.33,3.77,3.79-1.2,1.21-2.39,2.47-3.49,3.77h0Zm15.48-13.7c-2.81,2-5.99-2.3-3.07-4.39,1.28-1.03,3.15-2.13,4.56-3.04,2.55-1.82,6.03,2.26,2.84,4.54-1.22,.71-3.25,2.02-4.33,2.89h0Zm18.1-10.59c-3.27,1.55-5.46-3.33-2.36-4.8,1.61-.81,3.27-1.58,4.91-2.33,3.08-1.46,5.5,3.31,2.21,4.87-1.59,.73-3.19,1.47-4.75,2.26h0Zm19.41-8.24c-3.27,1.2-5.16-3.8-1.82-5.03,1.66-.6,3.43-1.28,5.11-1.79,3.12-1.15,5.19,3.79,1.69,5.08-1.67,.56-3.33,1.14-4.99,1.75h0Zm20.18-6.26c-3.33,.89-4.8-4.25-1.33-5.19l5.26-1.29c3.18-.85,4.84,4.24,1.2,5.21-1.67,.33-3.47,.84-5.13,1.27Z" style="fill:#859ac6; fill-rule:evenodd;"/><polygon points="1834.23 68.73 1971.95 125.18 1934.13 173.49 1834.23 68.73" style="fill:#c4d1eb; fill-rule:evenodd;"/><polygon points="1991.38 102.43 1838.44 69.03 2028.83 82.94 1991.38 102.43" style="fill:#c4d1eb; fill-rule:evenodd;"/><polygon points="1991.38 102.43 1987.81 165.83 1971.95 125.18 1834.23 68.73 1838.44 69.03 1991.38 102.43" style="fill:#9db2d9; fill-rule:evenodd;"/><polygon points="1987.81 165.83 1955.2 146.58 1971.95 125.18 1987.81 165.83" style="fill:#859ac6; fill-rule:evenodd;"/><path d="M2023.21,161.14c-4.48-.56-3.46-7.09,.69-6.57l6.59,.72c4.42,.55,3.48,7.09-.74,6.56l-6.55-.71h0Zm225.81,262.57c2.93,0,4.38,3.59,2.39,5.58-.49,.58-1.47,1.03-2.39,1.03l-4.27-.02c-4.27,0-4.37-6.61,.07-6.61l4.2,.02h0Zm-23.86-.6c3.9,0,4.45,6.59-.37,6.59l-6.65-.41c-4.73-.59-3.43-7.08,.49-6.59l6.53,.41h0Zm-25.98-2.47c4.09,.51,3.53,7.1-1,6.53l1-6.53h0Zm-25.24-5.56c3.95,1.48,2.38,7.39-2.06,6.28-2.17-.69-4.31-1.45-6.42-2.28-4.03-1.73-1.63-7.67,2.45-6.14,1.97,.79,4,1.49,6.03,2.14h0Zm-22.41-11.28c3.44,2.87-.9,7.84-4.14,5.14-1.87-1.53-3.59-3.11-5.2-4.91-2.94-3.52,2.31-7.54,4.95-4.37,1.37,1.52,2.84,2.85,4.4,4.14h0Zm-12.35-20.03c.58,4.71-6.02,5.06-6.51,1.13-.43-2.36-.68-4.64-.77-7.04,0-4.55,6.6-4.31,6.6-.16,.06,2.06,.3,4.05,.68,6.07h0Zm1.77-24.7c-1.01,4.02-7.48,2.67-6.37-1.75,.58-2.16,1.22-4.4,1.96-6.51,1.62-4.32,7.69-1.71,6.25,2.12-.69,2.01-1.3,4.08-1.84,6.14h0Zm9.1-24.2c-1.63,3.81-7.79,1.44-6-2.75,.93-2.01,1.88-4.05,2.86-6.04,2.42-4.23,7.83-.43,5.93,2.91-.96,1.94-1.88,3.92-2.8,5.89h0Zm11.79-23.43c-2.29,4-7.87,.46-5.83-3.09l3.09-5.84c2.29-4,7.87-.46,5.84,3.1-1.06,1.89-2.09,3.9-3.1,5.83h0Zm12.31-23.47c-2.39,4.18-7.84,.43-5.91-2.95l2.89-5.88c2.26-3.95,7.63-1.07,5.96,2.85l-2.94,5.98h0Zm10.72-24.65c-1.49,3.95-7.39,2.37-6.28-2.06,.67-2.04,1.27-4.03,1.81-6.12,1.05-4.2,7.47-2.62,6.4,1.62-.57,2.22-1.22,4.37-1.93,6.55h0Zm3.31-27.43c.54,4.32-6.01,5.14-6.55,.82-.24-2.04-.61-4.09-1.12-6.08-1.07-4.28,5.36-5.81,6.4-1.64,.57,2.28,1,4.57,1.28,6.9h0Zm-10.16-25.87c2.58,3.61-2.85,7.37-5.33,3.89-1.23-1.7-2.51-3.32-3.91-4.88-3-3.59,2.32-7.52,4.89-4.43,1.55,1.68,3.02,3.56,4.35,5.42h0Zm-19.94-18.83c3.41,2.44,.3,7.76-3.69,5.48-1.77-1.2-3.57-2.34-5.42-3.43-3.66-2.09-.52-7.91,3.37-5.68,1.95,1.16,3.86,2.36,5.74,3.64h0Zm-23.88-12.67c4.07,1.74,1.39,7.78-2.55,6.09-1.99-.85-4-1.64-6.03-2.41-4.03-1.51-1.77-7.72,2.35-6.17,2.08,.8,4.18,1.62,6.23,2.49h0Zm-25.3-8.81c3.96,.99,2.67,7.47-1.81,6.35l-6.31-1.74c-4.12-1.03-2.64-7.47,1.68-6.39l6.44,1.77h0Zm-25.91-6.33c4.56,1.14,2.56,7.44-1.32,6.47l-6.44-1.28c-4.21-1.05-3.21-7.04,1.23-6.49l6.53,1.29h0Zm-26.18-4.65c4.11,.51,3.54,7.1-.98,6.53l-6.5-.95c-4.18-.52-3.54-7.1,.92-6.54l6.57,.96Z" style="fill:#859ac6; fill-rule:evenodd;"/><path d="M161.97,1398.49c86.43,0,156.5,7.58,156.5,16.92s-70.07,16.91-156.5,16.91-156.5-7.58-156.5-16.91,70.07-16.92,156.5-16.92Z" style="fill:#c4d1eb; fill-rule:evenodd;"/><path d="M751.32,1398.49c79.01,0,143.05,7.58,143.05,16.92s-64.05,16.91-143.05,16.91-143.05-7.58-143.05-16.91,64.04-16.92,143.05-16.92Z" style="fill:#c4d1eb; fill-rule:evenodd;"/><path d="M1998.46,1398.49c150.46,0,272.42,7.58,272.42,16.92s-121.96,16.91-272.42,16.91-272.42-7.58-272.42-16.91,121.97-16.92,272.42-16.92Z" style="fill:#c4d1eb; fill-rule:evenodd;"/><path d="M71.79,684.2c8.8,159.79,129.36,253.69,300.55,202.43-21.59-171.69-138.14-250.61-300.55-202.43Z" style="fill:#c4d1eb; fill-rule:evenodd;"/><path d="M84.31,698.22c-1.08-.72-1.37-2.18-.66-3.26,.72-1.08,2.18-1.38,3.26-.66l102.1,67.78,7.17-70.19c.13-1.29,1.29-2.23,2.58-2.1,1.29,.13,2.23,1.29,2.1,2.58l-7.42,72.65,28.35,18.83c.73,.09,1.4,.5,1.78,1.18l21.74,14.44,19.81-76.54c.33-1.26,1.61-2.02,2.87-1.69,1.26,.33,2.01,1.61,1.69,2.86l-20.21,78.12,25.48,16.92c.08,.05,.17,.1,.25,.17l25.88,17.18,16.67-55.96c.37-1.24,1.68-1.96,2.92-1.58,1.24,.38,1.95,1.68,1.58,2.93l-17.08,57.34,68.48,45.46c1.08,.71,1.38,2.17,.66,3.26-.72,1.08-2.18,1.38-3.26,.65l-46.05-30.57-38.89,25.08c-1.09,.71-2.54,.4-3.25-.69-.71-1.09-.39-2.54,.69-3.24l37.17-23.98-46.9-31.14-65.71,47.09c-1.06,.76-2.53,.51-3.29-.54-.76-1.06-.51-2.53,.54-3.28l64.26-46.05-24.11-16-.1-.06-24.27-16.12-72.7,39.19c-1.15,.61-2.57,.18-3.19-.96-.62-1.14-.19-2.58,.95-3.18l70.49-37.99-26.98-17.91-.14-.09-28.84-19.14-56.81,22.58c-1.21,.48-2.57-.11-3.05-1.31-.48-1.2,.11-2.58,1.31-3.06l53.79-21.38-71.67-47.59Z" style="fill:#fff; fill-rule:evenodd;"/><path d="M673.59,684.2c-8.8,159.79-129.36,253.69-300.55,202.43,21.59-171.69,138.14-250.61,300.55-202.43Z" style="fill:#c4d1eb; fill-rule:evenodd;"/><path d="M661.07,698.22c1.08-.72,1.38-2.18,.66-3.26-.72-1.08-2.18-1.38-3.26-.66l-102.1,67.78-7.17-70.19c-.13-1.29-1.29-2.23-2.58-2.1-1.29,.13-2.23,1.29-2.1,2.58l7.42,72.65-28.35,18.83c-.73,.09-1.4,.5-1.78,1.18l-21.74,14.44-19.81-76.54c-.32-1.26-1.61-2.02-2.86-1.69-1.26,.33-2.01,1.61-1.69,2.86l20.22,78.12-25.48,16.92c-.09,.05-.17,.1-.25,.17l-25.88,17.18-16.67-55.96c-.38-1.24-1.68-1.96-2.92-1.58-1.24,.38-1.95,1.68-1.58,2.93l17.08,57.34-68.48,45.46c-1.08,.71-1.38,2.17-.66,3.26,.72,1.08,2.18,1.38,3.26,.65l46.05-30.57,38.89,25.08c1.09,.71,2.54,.4,3.25-.69,.71-1.09,.39-2.54-.69-3.24l-37.17-23.98,46.9-31.14,65.71,47.09c1.06,.76,2.53,.51,3.29-.54,.76-1.06,.51-2.53-.54-3.28l-64.26-46.05,24.11-16,.1-.06,24.27-16.12,72.7,39.19c1.14,.61,2.57,.18,3.19-.96,.61-1.14,.19-2.58-.96-3.18l-70.49-37.99,26.98-17.91,.14-.09,28.84-19.14,56.81,22.58c1.2,.48,2.57-.11,3.05-1.31,.48-1.2-.11-2.58-1.31-3.06l-53.79-21.38,71.67-47.59Z" style="fill:#fff; fill-rule:evenodd;"/><rect x="310.22" y="754.75" width="124.95" height="43.17" style="fill:#b0c2e4;"/><path d="M311.35,730.73c-7.53-3.51-12.5-10-12.5-19.77v-3.05c-1.47-84.54-75.77-108.24-81.77-201.77-.45-7.02-.39-13.87,.15-20.55,11.64-70.94,79.06-118.57,154.81-118.57,86.32,0,161.83,61.84,156.29,149.55-5.72,90.74-76.51,113.73-77.9,195.75,0,8.88-9.49,19.11-17.58,18.4h-121.49Z" style="fill:#c4d1eb; fill-rule:evenodd;"/><path d="M439.66,807.89c-.93,9.5-9.01,16.98-18.72,16.98h-14.41l-5.61,9.15c-3.22,5.27-5.11,5.62-11.29,5.62h-33.87c-6.18,0-8.06-.33-11.29-5.62l-5.61-9.15h-14.42c-9.59,0-17.57-7.28-18.68-16.61v-6.58c.51-2.15,2.45-3.76,4.75-3.76h124.37c2.31,0,4.26,1.63,4.76,3.79,.05,.2-.08,.61,.03,.69v5.48h0Zm-127.4-43.27h120.85c3.65,0,6.64,2.99,6.64,6.64v10.29c0,3.65-2.98,6.64-6.64,6.64h-120.85c-3.65,0-6.63-2.99-6.63-6.64v-10.29c0-3.65,2.98-6.64,6.63-6.64h0Zm.27-33.89h120.31c3.8,0,6.91,3.11,6.91,6.91v10.72c0,3.8-3.11,6.91-6.91,6.91h-120.31c-3.8,0-6.9-3.11-6.9-6.91v-10.72c0-3.8,3.11-6.91,6.9-6.91Z" style="fill:#9db2d9; fill-rule:evenodd;"/><path d="M353.6,730.73l-12.79-154.76h-18.54c-8.01,0-15.28-3.27-20.55-8.54h.01c-5.27-5.29-8.55-12.56-8.55-20.55s3.27-15.28,8.54-20.55c5.27-5.27,12.54-8.54,20.55-8.54s14.76,3.16,19.86,8.27c5.19,5.18,8.51,12.39,9.2,20.25l1.44,16.58h56.71l1.45-16.58c.68-7.85,4.02-15.06,9.21-20.25,5.1-5.1,11.96-8.27,19.86-8.27s15.25,3.28,20.53,8.55h.01c5.26,5.25,8.54,12.53,8.54,20.54s-3.27,15.28-8.54,20.55c-5.27,5.27-12.54,8.54-20.55,8.54h-18.54l-12.8,154.76h-13.05l12.74-154.76h-54.43l12.74,154.76h-13.05Zm-13.93-167.83l-1.35-15.46c-.42-4.78-2.38-9.1-5.42-12.15-2.74-2.74-6.41-4.44-10.63-4.44s-8.4,1.8-11.31,4.71c-2.91,2.9-4.71,6.91-4.71,11.31s1.8,8.42,4.68,11.31h.03c2.91,2.91,6.91,4.71,11.31,4.71h17.4Zm82.93,0h17.4c4.4,0,8.4-1.8,11.31-4.71,2.9-2.9,4.71-6.91,4.71-11.31s-1.81-8.41-4.71-11.31v-.03c-2.89-2.89-6.89-4.68-11.31-4.68s-7.88,1.7-10.62,4.44c-3.05,3.05-5.01,7.37-5.43,12.14l-1.35,15.46Z" style="fill:#fff; fill-rule:evenodd;"/><path d="M428.95,421.4c-4.15-1.75-6.09-6.53-4.34-10.67,1.75-4.15,6.53-6.1,10.67-4.35,3.39,1.44,6.6,2.97,9.61,4.59,3.12,1.67,6.15,3.49,9.11,5.45,3.76,2.49,4.79,7.56,2.3,11.31-2.49,3.76-7.56,4.79-11.31,2.3-2.52-1.66-5.13-3.23-7.83-4.68-2.76-1.48-5.51-2.81-8.21-3.95h0Zm35.9,26.05c-2.97-3.41-2.61-8.57,.8-11.54,3.41-2.97,8.57-2.61,11.54,.8,8.63,9.92,15.54,21.36,20.24,33.87,4.54,12.07,7.03,25.08,7.03,38.6,0,4.52-3.66,8.18-8.18,8.18s-8.18-3.66-8.18-8.18c0-11.58-2.1-22.64-5.94-32.85-3.99-10.61-9.9-20.37-17.3-28.88Z" style="fill:#fff; fill-rule:evenodd;"/><path d="M577.16,997.13l-61.2,328.8H229.42l-61.2-328.8h408.94Z" style="fill:#b0c2e4; fill-rule:evenodd;"/><rect x="128.62" y="891.53" width="488.14" height="105.6" rx="17.4" ry="17.4" style="fill:#b0c2e4;"/><path d="M569.78,1036.78l7.38-39.66H168.22l7.38,39.66h394.18Z" style="fill:#859ac6; fill-rule:evenodd;"/><rect x="358.22" y="839.64" width="28.95" height="51.89" style="fill:#9db2d9;"/><path d="M823.28,684.2c8.8,159.79,129.36,253.69,300.54,202.43-21.59-171.69-138.14-250.61-300.54-202.43Z" style="fill:#c4d1eb; fill-rule:evenodd;"/><path d="M835.8,698.22c-1.08-.72-1.38-2.18-.66-3.26,.72-1.08,2.18-1.38,3.26-.66l102.1,67.78,7.17-70.19c.13-1.29,1.29-2.23,2.58-2.1,1.29,.13,2.23,1.29,2.1,2.58l-7.42,72.65,28.35,18.83c.73,.09,1.4,.5,1.78,1.18l21.74,14.44,19.81-76.54c.33-1.26,1.61-2.02,2.86-1.69,1.26,.33,2.01,1.61,1.69,2.86l-20.21,78.12,25.48,16.92c.09,.05,.17,.1,.25,.17l25.88,17.18,16.67-55.96c.37-1.24,1.68-1.96,2.92-1.58,1.24,.38,1.95,1.68,1.58,2.93l-17.08,57.34,68.48,45.46c1.08,.71,1.38,2.17,.66,3.26-.72,1.08-2.18,1.38-3.26,.65l-46.05-30.57-38.89,25.08c-1.09,.71-2.54,.4-3.25-.69-.71-1.09-.39-2.54,.7-3.24l37.17-23.98-46.91-31.14-65.71,47.09c-1.06,.76-2.52,.51-3.29-.54-.76-1.06-.52-2.53,.54-3.28l64.26-46.05-24.11-16-.1-.06-24.27-16.12-72.71,39.19c-1.14,.61-2.57,.18-3.19-.96-.62-1.14-.18-2.58,.96-3.18l70.49-37.99-26.98-17.91-.14-.09-28.84-19.14-56.81,22.58c-1.2,.48-2.57-.11-3.05-1.31-.48-1.2,.11-2.58,1.31-3.06l53.79-21.38-71.67-47.59Z" style="fill:#fff; fill-rule:evenodd;"/><path d="M1425.07,684.2c-8.8,159.79-129.36,253.69-300.54,202.43,21.59-171.69,138.14-250.61,300.54-202.43Z" style="fill:#c4d1eb; fill-rule:evenodd;"/><path d="M1412.55,698.22c1.07-.72,1.37-2.18,.65-3.26-.72-1.08-2.18-1.38-3.26-.66l-102.1,67.78-7.17-70.19c-.13-1.29-1.29-2.23-2.58-2.1-1.3,.13-2.24,1.29-2.1,2.58l7.42,72.65-28.35,18.83c-.72,.09-1.4,.5-1.79,1.18l-21.74,14.44-19.81-76.54c-.32-1.26-1.61-2.02-2.86-1.69-1.26,.33-2.01,1.61-1.69,2.86l20.21,78.12-25.48,16.92c-.08,.05-.17,.1-.25,.17l-25.88,17.18-16.67-55.96c-.38-1.24-1.68-1.96-2.93-1.58-1.24,.38-1.94,1.68-1.57,2.93l17.08,57.34-68.48,45.46c-1.08,.71-1.38,2.17-.66,3.26,.72,1.08,2.18,1.38,3.26,.65l46.05-30.57,38.89,25.08c1.09,.71,2.54,.4,3.24-.69,.71-1.09,.39-2.54-.69-3.24l-37.17-23.98,46.9-31.14,65.72,47.09c1.05,.76,2.53,.51,3.29-.54,.75-1.06,.51-2.53-.54-3.28l-64.27-46.05,24.11-16,.1-.06,24.27-16.12,72.71,39.19c1.15,.61,2.57,.18,3.18-.96,.62-1.14,.19-2.58-.95-3.18l-70.49-37.99,26.97-17.91,.14-.09,28.84-19.14,56.81,22.58c1.2,.48,2.58-.11,3.06-1.31,.48-1.2-.11-2.58-1.31-3.06l-53.79-21.38,71.67-47.59Z" style="fill:#fff; fill-rule:evenodd;"/><rect x="1061.7" y="754.75" width="124.95" height="43.17" style="fill:#d0a382;"/><path d="M1062.83,730.73c-7.54-3.51-12.5-10-12.5-19.77v-3.05c-1.47-84.54-75.77-108.24-81.77-201.77-.45-7.02-.39-13.87,.15-20.55,11.63-70.94,79.05-118.57,154.8-118.57,86.32,0,161.83,61.84,156.3,149.55-5.72,90.74-76.51,113.73-77.91,195.75,0,8.88-9.49,19.11-17.58,18.4h-121.49Z" style="fill:#eac5a7; fill-rule:evenodd;"/><path d="M1191.14,807.89c-.93,9.5-9.01,16.98-18.72,16.98h-14.41l-5.61,9.15c-3.22,5.27-5.12,5.62-11.29,5.62h-33.87c-6.18,0-8.06-.33-11.29-5.62l-5.61-9.15h-14.42c-9.59,0-17.57-7.28-18.68-16.61v-6.58c.51-2.15,2.45-3.76,4.75-3.76h124.37c2.31,0,4.27,1.63,4.76,3.79,.04,.2-.08,.61,.03,.69v5.48h0Zm-127.4-43.27h120.85c3.66,0,6.64,2.99,6.64,6.64v10.29c0,3.65-2.98,6.64-6.64,6.64h-120.85c-3.65,0-6.64-2.99-6.64-6.64v-10.29c0-3.65,2.98-6.64,6.64-6.64h0Zm.27-33.89h120.32c3.79,0,6.9,3.11,6.9,6.91v10.72c0,3.8-3.11,6.91-6.9,6.91h-120.32c-3.8,0-6.91-3.11-6.91-6.91v-10.72c0-3.8,3.11-6.91,6.91-6.91Z" style="fill:#9c7357; fill-rule:evenodd;"/><path d="M1105.08,730.73l-12.79-154.76h-18.54c-8.01,0-15.28-3.27-20.55-8.54h.02c-5.28-5.29-8.55-12.56-8.55-20.55s3.27-15.28,8.53-20.55c5.27-5.27,12.54-8.54,20.55-8.54s14.76,3.16,19.86,8.27c5.18,5.18,8.51,12.39,9.19,20.25l1.45,16.58h56.71l1.44-16.58c.69-7.85,4.03-15.06,9.21-20.25,5.1-5.1,11.96-8.27,19.86-8.27s15.25,3.28,20.53,8.55h.01c5.26,5.25,8.54,12.53,8.54,20.54s-3.28,15.28-8.54,20.55c-5.26,5.27-12.54,8.54-20.54,8.54h-18.54l-12.79,154.76h-13.05l12.74-154.76h-54.43l12.73,154.76h-13.05Zm-13.93-167.83l-1.35-15.46c-.41-4.78-2.38-9.1-5.42-12.15-2.74-2.74-6.41-4.44-10.62-4.44s-8.41,1.8-11.31,4.71c-2.91,2.9-4.71,6.91-4.71,11.31s1.8,8.42,4.69,11.31h.03c2.91,2.91,6.91,4.71,11.31,4.71h17.4Zm82.93,0h17.4c4.4,0,8.4-1.8,11.3-4.71,2.91-2.9,4.71-6.91,4.71-11.31s-1.81-8.41-4.71-11.31v-.03c-2.89-2.89-6.89-4.68-11.3-4.68s-7.88,1.7-10.62,4.44c-3.05,3.05-5.02,7.37-5.43,12.14l-1.35,15.46Z" style="fill:#fff; fill-rule:evenodd;"/><path d="M1180.43,421.4c-4.14-1.75-6.09-6.53-4.34-10.67,1.75-4.15,6.53-6.1,10.68-4.35,3.39,1.44,6.59,2.97,9.61,4.59,3.12,1.67,6.15,3.49,9.11,5.45,3.76,2.49,4.78,7.56,2.3,11.31-2.49,3.76-7.56,4.79-11.32,2.3-2.51-1.66-5.13-3.23-7.82-4.68-2.76-1.48-5.51-2.81-8.21-3.95h0Zm35.9,26.05c-2.96-3.41-2.61-8.57,.8-11.54,3.41-2.97,8.57-2.61,11.54,.8,8.64,9.92,15.54,21.36,20.25,33.87,4.54,12.07,7.02,25.08,7.02,38.6,0,4.52-3.67,8.18-8.18,8.18s-8.18-3.66-8.18-8.18c0-11.58-2.1-22.64-5.94-32.85-4-10.61-9.89-20.37-17.31-28.88Z" style="fill:#fff; fill-rule:evenodd;"/><path d="M1328.65,997.13l-61.2,328.8h-286.54l-61.2-328.8h408.94Z" style="fill:#b0c2e4; fill-rule:evenodd;"/><rect x="880.1" y="891.53" width="488.14" height="105.6" rx="17.4" ry="17.4" style="fill:#b0c2e4;"/><path d="M1321.27,1036.78l7.38-39.66h-408.94l7.38,39.66h394.18Z" style="fill:#859ac6; fill-rule:evenodd;"/><rect x="1109.7" y="839.64" width="28.95" height="51.89" style="fill:#9c7357;"/><path d="M1574.76,684.2c8.8,159.79,129.36,253.69,300.54,202.43-21.59-171.69-138.14-250.61-300.54-202.43Z" style="fill:#c4d1eb; fill-rule:evenodd;"/><path d="M1587.27,698.22c-1.08-.72-1.37-2.18-.65-3.26,.72-1.08,2.18-1.38,3.26-.66l102.1,67.78,7.16-70.19c.14-1.29,1.3-2.23,2.58-2.1,1.29,.13,2.24,1.29,2.1,2.58l-7.42,72.65,28.35,18.83c.73,.09,1.4,.5,1.79,1.18l21.74,14.44,19.8-76.54c.34-1.26,1.61-2.02,2.87-1.69,1.26,.33,2.01,1.61,1.69,2.86l-20.21,78.12,25.48,16.92c.08,.05,.17,.1,.25,.17l25.88,17.18,16.67-55.96c.38-1.24,1.68-1.96,2.93-1.58,1.24,.38,1.94,1.68,1.57,2.93l-17.08,57.34,68.48,45.46c1.08,.71,1.38,2.17,.66,3.26-.72,1.08-2.17,1.38-3.26,.65l-46.05-30.57-38.88,25.08c-1.09,.71-2.55,.4-3.25-.69-.71-1.09-.4-2.54,.69-3.24l37.17-23.98-46.9-31.14-65.71,47.09c-1.06,.76-2.53,.51-3.28-.54-.76-1.06-.52-2.53,.54-3.28l64.26-46.05-24.11-16-.1-.06-24.27-16.12-72.71,39.19c-1.15,.61-2.57,.18-3.19-.96-.62-1.14-.19-2.58,.95-3.18l70.49-37.99-26.97-17.91-.14-.09-28.84-19.14-56.81,22.58c-1.21,.48-2.58-.11-3.06-1.31-.48-1.2,.11-2.58,1.31-3.06l53.79-21.38-71.67-47.59Z" style="fill:#fff; fill-rule:evenodd;"/><path d="M2176.55,684.2c-8.8,159.79-129.36,253.69-300.54,202.43,21.59-171.69,138.14-250.61,300.54-202.43Z" style="fill:#c4d1eb; fill-rule:evenodd;"/><path d="M2164.03,698.22c1.09-.72,1.38-2.18,.66-3.26-.71-1.08-2.17-1.38-3.26-.66l-102.09,67.78-7.17-70.19c-.14-1.29-1.29-2.23-2.58-2.1-1.29,.13-2.23,1.29-2.1,2.58l7.42,72.65-28.36,18.83c-.72,.09-1.39,.5-1.77,1.18l-21.74,14.44-19.81-76.54c-.32-1.26-1.61-2.02-2.86-1.69-1.26,.33-2.01,1.61-1.68,2.86l20.21,78.12-25.48,16.92c-.08,.05-.17,.1-.25,.17l-25.88,17.18-16.67-55.96c-.37-1.24-1.68-1.96-2.92-1.58s-1.96,1.68-1.58,2.93l17.08,57.34-68.48,45.46c-1.08,.71-1.38,2.17-.65,3.26,.71,1.08,2.17,1.38,3.26,.65l46.05-30.57,38.88,25.08c1.09,.71,2.54,.4,3.25-.69,.7-1.09,.39-2.54-.7-3.24l-37.18-23.98,46.91-31.14,65.71,47.09c1.05,.76,2.53,.51,3.28-.54,.76-1.06,.52-2.53-.54-3.28l-64.26-46.05,24.1-16,.1-.06,24.27-16.12,72.71,39.19c1.14,.61,2.57,.18,3.19-.96,.62-1.14,.19-2.58-.96-3.18l-70.49-37.99,26.98-17.91,.13-.09,28.84-19.14,56.81,22.58c1.21,.48,2.57-.11,3.05-1.31,.49-1.2-.11-2.58-1.31-3.06l-53.79-21.38,71.67-47.59Z" style="fill:#fff; fill-rule:evenodd;"/><rect x="1813.18" y="754.75" width="124.95" height="43.17" style="fill:#b0c2e4;"/><path d="M1814.32,730.73c-7.54-3.51-12.51-10-12.51-19.77v-3.05c-1.47-84.54-75.77-108.24-81.77-201.77-.45-7.02-.39-13.87,.16-20.55,11.63-70.94,79.05-118.57,154.8-118.57,86.32,0,161.82,61.84,156.29,149.55-5.72,90.74-76.5,113.73-77.9,195.75,0,8.88-9.49,19.11-17.58,18.4h-121.49Z" style="fill:#c4d1eb; fill-rule:evenodd;"/><path d="M1942.63,807.89c-.94,9.5-9.02,16.98-18.73,16.98h-14.41l-5.61,9.15c-3.22,5.27-5.11,5.62-11.29,5.62h-33.87c-6.18,0-8.06-.33-11.3-5.62l-5.6-9.15h-14.42c-9.59,0-17.58-7.28-18.68-16.61v-6.58c.5-2.15,2.45-3.76,4.74-3.76h124.37c2.31,0,4.26,1.63,4.76,3.79,.05,.2-.08,.61,.03,.69v5.48h0Zm-127.4-43.27h120.85c3.65,0,6.64,2.99,6.64,6.64v10.29c0,3.65-2.99,6.64-6.64,6.64h-120.85c-3.65,0-6.64-2.99-6.64-6.64v-10.29c0-3.65,2.98-6.64,6.64-6.64h0Zm.27-33.89h120.31c3.8,0,6.91,3.11,6.91,6.91v10.72c0,3.8-3.11,6.91-6.91,6.91h-120.31c-3.79,0-6.91-3.11-6.91-6.91v-10.72c0-3.8,3.11-6.91,6.91-6.91Z" style="fill:#9db2d9; fill-rule:evenodd;"/><path d="M1856.56,730.73l-12.79-154.76h-18.53c-8.02,0-15.28-3.27-20.56-8.54h.02c-5.28-5.29-8.55-12.56-8.55-20.55s3.27-15.28,8.53-20.55c5.28-5.27,12.54-8.54,20.56-8.54s14.76,3.16,19.86,8.27c5.18,5.18,8.51,12.39,9.19,20.25l1.44,16.58h56.71l1.45-16.58c.68-7.85,4.01-15.06,9.21-20.25,5.1-5.1,11.96-8.27,19.86-8.27s15.25,3.28,20.53,8.55h.01c5.27,5.25,8.54,12.53,8.54,20.54s-3.27,15.28-8.54,20.55c-5.27,5.27-12.54,8.54-20.54,8.54h-18.54l-12.79,154.76h-13.05l12.73-154.76h-54.42l12.73,154.76h-13.05Zm-13.93-167.83l-1.35-15.46c-.42-4.78-2.38-9.1-5.42-12.15-2.74-2.74-6.42-4.44-10.62-4.44s-8.41,1.8-11.32,4.71c-2.91,2.9-4.71,6.91-4.71,11.31s1.8,8.42,4.69,11.31h.03c2.91,2.91,6.91,4.71,11.32,4.71h17.39Zm82.93,0h17.4c4.4,0,8.4-1.8,11.31-4.71,2.9-2.9,4.71-6.91,4.71-11.31s-1.81-8.41-4.71-11.31v-.03c-2.89-2.89-6.89-4.68-11.31-4.68s-7.88,1.7-10.62,4.44c-3.04,3.05-5.01,7.37-5.43,12.14l-1.35,15.46Z" style="fill:#fff; fill-rule:evenodd;"/><path d="M1931.92,421.4c-4.15-1.75-6.1-6.53-4.35-10.67,1.75-4.15,6.53-6.1,10.68-4.35,3.39,1.44,6.6,2.97,9.61,4.59,3.11,1.67,6.16,3.49,9.11,5.45,3.76,2.49,4.79,7.56,2.3,11.31-2.49,3.76-7.56,4.79-11.31,2.3-2.52-1.66-5.13-3.23-7.83-4.68-2.76-1.48-5.5-2.81-8.2-3.95h0Zm35.89,26.05c-2.97-3.41-2.6-8.57,.8-11.54,3.41-2.97,8.57-2.61,11.54,.8,8.64,9.92,15.54,21.36,20.24,33.87,4.54,12.07,7.03,25.08,7.03,38.6,0,4.52-3.67,8.18-8.18,8.18s-8.18-3.66-8.18-8.18c0-11.58-2.1-22.64-5.94-32.85-3.99-10.61-9.9-20.37-17.31-28.88Z" style="fill:#fff; fill-rule:evenodd;"/><path d="M2080.13,997.13l-61.2,328.8h-286.54l-61.2-328.8h408.94Z" style="fill:#b0c2e4; fill-rule:evenodd;"/><rect x="1631.58" y="891.53" width="488.14" height="105.6" rx="17.4" ry="17.4" style="fill:#b0c2e4;"/><path d="M2072.74,1036.78l7.39-39.66h-408.94l7.38,39.66h394.18Z" style="fill:#859ac6; fill-rule:evenodd;"/><rect x="1861.18" y="839.64" width="28.95" height="51.89" style="fill:#9db2d9;"/><path d="M1117.37,229.42c0-3.76,3.05-6.8,6.8-6.8s6.8,3.04,6.8,6.8v87.6c0,3.76-3.04,6.8-6.8,6.8s-6.8-3.04-6.8-6.8v-87.6h0Zm283.3,160.66c3.6-1.1,7.4,.92,8.5,4.51,1.09,3.59-.92,7.4-4.51,8.5l-83.77,25.65c-3.59,1.1-7.39-.92-8.49-4.51-1.1-3.6,.92-7.4,4.52-8.5l83.75-25.65h0Zm-113.68-126.22c2.22-3.03,6.48-3.69,9.51-1.47s3.69,6.48,1.46,9.51l-51.77,70.66c-2.21,3.03-6.47,3.69-9.5,1.47-3.03-2.22-3.69-6.48-1.47-9.51l51.77-70.67h0Zm-325.62,0c-2.22-3.03-6.48-3.69-9.51-1.47-3.03,2.22-3.69,6.48-1.47,9.51l51.77,70.66c2.22,3.03,6.47,3.69,9.51,1.47,3.03-2.22,3.69-6.48,1.47-9.51l-51.77-70.67h0Zm-113.69,126.22c-3.59-1.1-7.4,.92-8.5,4.51-1.1,3.59,.92,7.4,4.51,8.5l83.76,25.65c3.59,1.1,7.4-.92,8.5-4.51,1.1-3.6-.92-7.4-4.51-8.5l-83.76-25.65Z" style="fill:#eac5a7; fill-rule:evenodd;"/><path d="M1473.95,1389.17c-122.02,0-220.93,6.19-220.93,13.82s98.91,13.82,220.93,13.82,220.93-6.18,220.93-13.82-98.91-13.82-220.93-13.82Z" style="fill:#c4d1eb; fill-rule:evenodd;"/><polygon points="1400.89 985.33 1411.36 985.33 1294.44 1402.67 1283.97 1402.67 1400.89 985.33" style="fill:#9c7357; fill-rule:evenodd;"/><polygon points="1479.8 985.33 1490.27 985.33 1373.35 1402.67 1362.88 1402.67 1479.8 985.33" style="fill:#9c7357; fill-rule:evenodd;"/><polygon points="1403.72 1012.63 1472.16 1012.63 1470.2 1019.62 1401.75 1019.62 1403.72 1012.63" style="fill:#9c7357; fill-rule:evenodd;"/><polygon points="1391.56 1056.02 1460 1056.02 1458.04 1063.01 1389.6 1063.01 1391.56 1056.02" style="fill:#9c7357; fill-rule:evenodd;"/><polygon points="1566.95 1052.59 1498.52 1052.59 1500.47 1059.58 1568.91 1059.58 1566.95 1052.59" style="fill:#9c7357; fill-rule:evenodd;"/><polygon points="1379.4 1099.41 1447.84 1099.41 1445.88 1106.4 1377.45 1106.4 1379.4 1099.41" style="fill:#9c7357; fill-rule:evenodd;"/><polygon points="1579.11 1095.98 1510.67 1095.98 1512.63 1102.97 1581.07 1102.97 1579.11 1095.98" style="fill:#9c7357; fill-rule:evenodd;"/><polygon points="1367.25 1142.8 1435.68 1142.8 1433.73 1149.79 1365.29 1149.79 1367.25 1142.8" style="fill:#9c7357; fill-rule:evenodd;"/><polygon points="1355.09 1186.19 1423.53 1186.19 1421.57 1193.18 1353.13 1193.18 1355.09 1186.19" style="fill:#9c7357; fill-rule:evenodd;"/><polygon points="1342.94 1229.58 1411.38 1229.58 1409.41 1236.56 1340.97 1236.56 1342.94 1229.58" style="fill:#9c7357; fill-rule:evenodd;"/><polygon points="1330.78 1272.97 1399.22 1272.97 1397.26 1279.96 1328.82 1279.96 1330.78 1272.97" style="fill:#9c7357; fill-rule:evenodd;"/><polygon points="1318.62 1316.36 1387.06 1316.36 1385.1 1323.35 1316.67 1323.35 1318.62 1316.36" style="fill:#9c7357; fill-rule:evenodd;"/><polygon points="1306.46 1359.75 1374.9 1359.75 1372.94 1366.74 1304.51 1366.74 1306.46 1359.75" style="fill:#9c7357; fill-rule:evenodd;"/><polygon points="1558.58 985.33 1548.1 985.33 1665.03 1402.67 1675.51 1402.67 1558.58 985.33" style="fill:#9c7357; fill-rule:evenodd;"/><polygon points="1479.67 985.33 1469.19 985.33 1586.12 1402.67 1596.6 1402.67 1479.67 985.33" style="fill:#9c7357; fill-rule:evenodd;"/><polygon points="1555.76 1012.63 1487.32 1012.63 1489.28 1019.62 1557.71 1019.62 1555.76 1012.63" style="fill:#9c7357; fill-rule:evenodd;"/><polygon points="1592.23 1142.8 1523.78 1142.8 1525.75 1149.79 1594.18 1149.79 1592.23 1142.8" style="fill:#9c7357; fill-rule:evenodd;"/><polygon points="1604.38 1186.19 1535.94 1186.19 1537.9 1193.18 1606.33 1193.18 1604.38 1186.19" style="fill:#9c7357; fill-rule:evenodd;"/><polygon points="1616.54 1229.58 1548.1 1229.58 1550.06 1236.56 1618.49 1236.56 1616.54 1229.58" style="fill:#9c7357; fill-rule:evenodd;"/><polygon points="1628.7 1272.97 1560.26 1272.97 1562.22 1279.96 1630.65 1279.96 1628.7 1272.97" style="fill:#9c7357; fill-rule:evenodd;"/><polygon points="1640.85 1316.36 1572.41 1316.36 1574.37 1323.35 1642.81 1323.35 1640.85 1316.36" style="fill:#9c7357; fill-rule:evenodd;"/><polygon points="1653.01 1359.75 1584.57 1359.75 1586.53 1366.74 1654.96 1366.74 1653.01 1359.75" style="fill:#9c7357; fill-rule:evenodd;"/><rect x="1386.99" y="968.91" width="186.71" height="16.42" style="fill:#d0a382;"/><path d="M2151.52,930.87c3.51-9.52,7.08-19.05,17.79-25.12,8.66-4.91,18.17-4.84,26.61-.76,23.89,11.58,13.16,32.66,28.67,54.88,6.64,9.47,16.57,14.33,21.55,24.29,9.01,17.96,1.17,47.2-22.96,63.66-59.11,40.32-91.56-31.61-91.73-47.11-.14-11.52,17.81-63.7,20.07-69.83Z" style="fill:#20386f; fill-rule:evenodd;"/><path d="M2075.68,1112.72c7.04-2.2,7.14-.91,8.04-1.24,1.06-.35,10.26-12.28,10.26-12.28,0,0,27.32-34.94,28.73-36.87l11.04-44.79,23.55-.59s-13.3,48.38-14.43,50.79c-1.12,2.38-43.54,45.22-47.16,49.13,0,0-2.6,6.27-4.36,10.15-1.77,3.88-5.14,6.74-5.81,7.76-.1,.13-2.5,3.4-6.52,6.56-3.46,2.78-1.43-1.43-1.43-1.43,0,0,5.5-6.28,4.93-6.62-.44-.29-3.24,3.32-7.03,6.4-.98,.8-1.94,1.55-2.84,2.25-2.34,1.85-4.16,.95-2.02-1.41,.76-.83,2.06-2.16,3.11-2.98,1.15-.91,1.9-2.1,2.75-2.99,1.68-1.77,2.92-3.08,2.82-3.09-.15-.03-.06-.63-1.12,.19-1.29,.96-3.54,3.64-5.54,4.93-1.13,.74-3.39,2.38-3.39,2.38,0,0-3.97,2.29-4.15,2.09-1.01-1.04,1.37-3.5,3.03-4.26,.8-1.08,3.22-2.75,3.22-2.75,0,0,4.16-4.52,3.54-5.13-.52-.52-12.55,8.34-13.49,7.25-.76-.93,2.74-3.77,2.74-3.77,0,0,2.25-1.54,2.95-2.12,.83-.67,3.16-2.89,3.16-2.89,0,0,7.76-8.05,7.11-8.58-.63-.54-2.81-1.21-3.46-.87-.65,.33-1.54,1.58-2.18,1.88-.65,.33-1.79,.19-2.26-.58-.46-.8,2.08-3.61,2.08-3.61,0,0,2.07-2.26,4.12-2.89Z" style="fill:#f9af79; fill-rule:evenodd;"/><path d="M2206.55,1049.3c1.7-1.42,24.93-21.6,35.3-30.6,0,0-10.35-7.76-16.75,3.55-6.4,11.29-18.55,27.05-18.55,27.05Z" style="fill:#233761; fill-rule:evenodd;"/><path d="M2169.76,1050.77s2.52,8.82,14.88,24.21c14.29-.21-14.88-24.21-14.88-24.21Z" style="fill:#233761; fill-rule:evenodd;"/><path d="M2109.78,1286.04c3.94,10.05,24.08,30.77,44.85,50.33,24.8,23.35,50.47,45.08,50.47,45.08,0,0,11.75,3.57,6.62-13.69,0,0-28.31-52.02-40.47-67.36-3.47-4.4-7.04-8.4-10.42-11.88-8.4-8.73-15.37-14.17-15.37-14.17,0,0,1.6-2.56,4.18-6.99,12.64-21.64,48.91-87.9,37.7-117.31-13.47-35.43-46.99-51.39-46.99-51.39,0,0-10.64,44.84-19.61,90.93-8.25,42.41-15.1,85.88-10.97,96.45Z" style="fill:#223f81; fill-rule:evenodd;"/><path d="M2120.75,1189.59c6.17,28.38,16.86,68.55,28.9,77.77,12.64-21.64,48.91-87.9,37.7-117.31-13.47-35.43-46.99-51.39-46.99-51.39,0,0-10.64,44.84-19.61,90.93Z" style="fill:#20386f; fill-rule:evenodd;"/><path d="M2154.63,1336.37c24.8,23.35,50.47,45.08,50.47,45.08,0,0,11.75,3.57,6.62-13.69,0,0-28.31-52.02-40.47-67.36-3.47-4.4-7.04-8.4-10.42-11.88,.4,13.28,.02,35.8-6.21,47.85Z" style="fill:#20386f; fill-rule:evenodd;"/><path d="M2148.8,1116.43l2.34-8.64c16.48,7.14,64.98-3.3,64.98-3.3,0,0,14.45,17.12,7.02,51.85-3.64,16.97-16.48,89.39-21.73,110.61-1.91,7.69-3.39,13.14-3.98,15.32v.03c-.2,.66-.05,1.33,.21,1.98,2.24,5.52,3.92,11.19,5.14,16.91,12,56.2-20.87,118.29-20.87,118.29l-5.62-3.31s-2.18-74.9-8-108.7c-.99-5.74-2.09-10.3-3.29-13.1-3.51-8.18-5.98-21.04-7.71-36.15-3.26-28.58-3.84-65.2-3.65-93.37-.55-.06-4.82-48.41-4.82-48.41Z" style="fill:#223f81; fill-rule:evenodd;"/><path d="M2223.21,1125.6c6.7-10.15-16.3-51.6-15.48-55.52,1.61-7.7,5.39-16.23,9.1-23.9,3.72-7.67,7.35-14.48,8.66-18.75-1.2-1.66-2.36-3.23-3.45-4.7-1.64-2.26-3.08-4.34-4-6.29-1.02-2.12-1.46-4.1-.97-6,.38-1.44,.89-2.89,1.5-4.3,.29-.65,.6-1.31,.93-1.96,3.43-6.86,8.54-12.45,8.54-12.45-8.1-5.19-20.86-7.83-20.98-7.45-.95-.31-1.79-.53-2.46-.7-.47-.13-.95-.25-1.42-.35-1.61-.38-3.22-.71-4.62-.97-2.9-2.91-6.38-13.74-5.34-29.67l-1.41,.18-23.59,3.19s.08,7.38-.32,14.29c-.32,5.4-.95,10.52-2.12,11.65-1.83,.15-2.94,.25-2.94,.25v.02s-.04,.05-.04,.05c-1.33,.12-2.56,.23-3.68,.35,0,0-.09,.01-.26,.03-2.09,.24-3.81,.5-5.21,.75l-.28,.05c-4.03,.75-5.39,1.44-5.39,1.44v.07c.19,7.44-11.8,20.44-10.97,37.25,.03,.64,6.14,44.71,6.11,45.36-.49,12.55-6.64,47.9-6.64,47.9-5.61,10.93,83.13,20.6,86.74,10.17Z" style="fill:#f9af79; fill-rule:evenodd;"/><path d="M2168.21,955.97s.08,7.38-.33,14.28c13.07,.43,20.69-11.04,23.92-17.47l-23.59,3.19Z" style="fill:#ed9760; fill-rule:evenodd;"/><path d="M2163.46,962.25s30.82,2.4,32.04-16.82c1.19-19.23,5.98-31.87-13.65-34.21-19.64-2.34-23.92,4.75-25.88,11.07-1.97,6.33-.5,38.85,7.5,39.96Z" style="fill:#f9af79; fill-rule:evenodd;"/><path d="M2157.53,911.65c5.12-5.48,8.64-3.99,10.57-2.12,17.43-8.25,27.46,6.14,27.46,6.14,1.22,13.92,10.68,22.43,10.68,22.43,0,0-5.84,3.13-18.61-1-3.9-1.27-7.25-4.29-10.05-7.9,4.71,9.13,11.47,15.91,11.47,15.91-15.07-8.11-19.96-30.05-20.44-32.35-1.99,1.57-5.93,5.01-7.29,8.55-1.83,4.8-3.13,14.83-6.06,14.31,0,0-5.43-15.72,2.27-23.96Z" style="fill:#20386f; fill-rule:evenodd;"/><path d="M2145.07,1421.25h47.85s1.79-7.64-1.35-12.84c-2.79-4.58-1.07-7.7,.14-11.62-2.18,.89-4.77,2.3-7.85,2.13-2.4-.15-6.12-1.89-8.34-3.17-2.06,2.34-9.66,13.01-12.42,15-3.12,2.24-17.07,1.44-18.02,10.5Z" style="fill:#0e2952; fill-rule:evenodd;"/><path d="M2216.19,1420.13l18.01-44.34s-6.4-4.53-12.39-3.56c-5.3,.84-7.33-1.14-10.08-4.47,0,2.34-.3,5.24-1.63,8.03-1.03,2.16-2.97,4.09-5,5.66,1.4,2.8,7.34,14.72,8.13,18.01,.91,3.74-5.08,16.36,2.95,20.67Z" style="fill:#0e2952; fill-rule:evenodd;"/><path d="M2143.11,1067.54c0-.37-1.88-14.22-3.55-26.53-3.71-.4-8.19-1.28-12.07-3.09,.21-5.37,3.79-51.28,23.08-53.87,.92-.26,1.88-.46,2.79-.65,.08,0,.17-.03,.28-.05,2.37-.44,4.47-.67,5.21-.74,.17-.03,.26-.04,.26-.04,0,0-5.76,16.35-5.64,18.26,.11,1.93,18.6,2.56,30.75,2.72,12.06,.17,18.85-20.01,18.96-20.32,.48,.1,.96,.22,1.42,.35,.67,.17,16.8,2.63,23.44,8.16,0,0-5.11,5.58-8.54,12.44-.33,.65-.64,1.31-.93,1.97-.61,1.4-1.13,2.84-1.5,4.29-.49,1.9-.05,3.88,.97,6,.92,1.94,2.36,4.03,4,6.29,1.09,1.47,2.25,3.04,3.45,4.7-.45,1.47-1.17,3.24-2.07,5.24h0c-1.74,3.82-4.14,8.48-6.58,13.51-3.71,7.67-7.5,16.21-9.1,23.91-.82,3.9,22.18,45.36,15.48,55.51-1.07,3.08-9.58,4.41-20.87,4.47-26.95,.13-69.81-6.94-65.87-14.65,0,0,6.15-35.35,6.64-47.89Z" style="fill:#6d96ce; fill-rule:evenodd;"/><path d="M2202.34,1130.07c11.3-.06,19.8-1.39,20.87-4.47,6.7-10.15-16.3-51.6-15.48-55.51,1.61-7.7,5.39-16.24,9.1-23.91,2.44-5.03,4.84-9.69,6.58-13.51h0c-.95-3.77-1.51-5.95-1.51-5.95,0,0-24.48,28.46-30.1,41.9-4.4,10.53,5.88,46.43,10.53,61.45Z" style="fill:#466fb5; fill-rule:evenodd;"/><path d="M2213.97,1110.77l4.84,8.39c31.13-12.33,50.97-40.11,50.97-40.11,1.09-15.78-6.29-33.91-15.13-49.57-1.46-2.58-2.97-5.11-4.48-7.54-6.25,5.35-15,12.35-23.31,17.43,1.3,2.14,2.84,4.71,4.52,7.45,6.89,11.38,15.82,25.96,16.98,27.11,1.92,1.93-34.38,36.84-34.38,36.84Z" style="fill:#f9af79; fill-rule:evenodd;"/><path d="M2230.09,1050.23c15.33-1.01,26.63-20.95,26.63-20.95-11.96-21.15-28.68-37.55-28.68-37.55-42.49,16.22-4.88,53.92,2.05,58.5Z" style="fill:#6d96ce; fill-rule:evenodd;"/><path d="M2213.97,1110.77s-2.61-.38-4.33-1.87c-1.7-1.49-7.14-5.71-7.45-4.4-.33,1.31,3.94,3.33,1.7,3.65-2.24,.32-5.75-1.18-9.27-.63-3.52,.53-8.93,8.63-7.27,9.58,1.67,.97,7.75-2.23,9.36-1.11,1.59,1.11,13.01,7.36,22.12,3.17,9.12-4.18-4.85-8.39-4.85-8.39Z" style="fill:#f9af79; fill-rule:evenodd;"/><path d="M35.28,992.94c6.24-5.84,23.65-12.28,34.02-15.45,10.84-1.41,22.69-2.01,35.53-1.81,21.73-.21,45.08,.02,70.05,.68,24.64-12,31.19-13.04,43.67-18.7,3.7-1.67,10.4-5.2,15.76-8.09,2.47,1.24,5.61,6.75,6.6,11.4-26.2,25.17-43,35.14-52.57,40.63-18.52,5-36.32,7.72-49.9,9.05-3.88,24.93-6.83,48.95-8.83,72.09,4.12,24.38,6.09,40.98,5.89,49.8-38.08,5.63-68.63,5.78-91.67,.45,.66-6.98,3.53-16.77,5.29-24.28-2.52-31.27-6.52-51.58-8.69-66.03-7.08,14.29-13.73,25.06-19.96,32.27,4.88,12.61,9.49,28.09,13.82,46.43-2.69,3.54-6.53,5.94-11.51,7.2-6.05-10.51-19.2-34.56-22.63-52.5-2.46-14.34,26.36-71.88,35.13-83.14Z" style="fill:#6d96ce; fill-rule:evenodd;"/><path d="M99.96,971.67c-2.33-1.1-15.05-.87-27.76,1.75,1.38-2.07,2.44-4.75,3.21-8.05,22.67-3.39,20.45-9.01,19.62-11.56-4.58-12.17-7.34-19.85-4.06-23.51,1.69,.8,5.25,2.65,6.64,8,1.43-.87,3.25-2.01,3.49-3.63,.54-4.86,.37-15,5.94-15.85,1.1,4.45,2.08,9.18,2.93,14.19,3.19,2.55,3.51,12.81,1.58,24.78,1.85,6.61-2.04,10.55-11.65,11.84l.05,2.06Z" style="fill:#f9af79; fill-rule:evenodd;"/><path d="M95.03,953.8c.83,2.55,3.05,8.17-19.62,11.56-10.14-1.54-19.12-9.88-20.56-13.66-13.25-22.14-.94-32.75,5.77-36.76,1.48-22.95,35.89-5.16,51.66-17.27,7.21,8.62-.12,20.58-5.23,21.14-5.57,.85-5.41,10.99-5.94,15.85-.24,1.62-2.06,2.76-3.49,3.63-1.39-5.35-4.95-7.2-6.64-8-3.29,3.66-.52,11.34,4.06,23.51Z" style="fill:#20386f; fill-rule:evenodd;"/><path d="M72.2,973.42c-1.26,1.18-2.51,2.62-3.67,4.31l.77-.24c10.55-1.37,22.05-1.98,34.5-1.83-1.25-1.64-2.6-3.03-3.84-4-2.33-1.1-15.05-.87-27.76,1.75Z" style="fill:#466fb5; fill-rule:evenodd;"/><path d="M240.68,960c6.52-3.2,11.57-5.38,15.16-8.77,1.3-4.12,3.83-4.29,3.16-7.9,6.02-7.07,7.4-7.21,10.19-8.52-2.46-3.95-8.06-.77-17.16,8.08-6.18,3.63-8.81,2.85-7.91-2.32,3.72-3.59,3.65-6.62,2.55-8.27-.5,.45-2.52,2.88-6.1,6.63-2.55,4.03-4.42,7.82-4.34,9.82-.08,.7-.31,1.26-.65,1.78,2,1.93,4.11,5.85,5.09,9.47Z" style="fill:#f9af79; fill-rule:evenodd;"/><path d="M33.11,1122.78c2.61,3.23,5.8,4.9,10.77,9.67l-.05,.53,.77,.17c1.11,1.1,2.3,2.34,3.59,3.79-2.6,2.1-5.9,.66-9.93-4.3-.2,5.5,1.23,9.59,4.3,12.3,1.52,1.74,2.74,3.07,3.67,4-2.88,4.91-8.88,2.98-18.01-5.8-1.81-3.43-1.62-6.81-2.71-9.91-.43-1.57-.93-3.13-1.66-4.95,3.78-1.13,6.85-2.95,9.22-5.48l.03-.03Z" style="fill:#f9af79; fill-rule:evenodd;"/><path d="M46.86,1133.65c-4.55,30.85-6.68,79.48-6.39,126.39-4.39,22.27-4.17,57.86,.68,130.05,8.58,1.73,16.01,2.07,22.29,1.02,11.16-67.36,15.42-102.46,12.79-128.58,3.41-18.76,8.09-53.17,14.03-79.99,5.95,26.81,10.62,61.23,14.04,79.99-2.63,26.12,1.63,61.22,12.79,128.58,6.28,1.04,13.72,.71,22.3-1.02,4.85-72.19,5.07-107.79,.68-130.05,.3-47.33-1.87-96.42-6.51-127.22-35.54,5.12-64.44,5.39-86.71,.84Z" style="fill:#20386f; fill-rule:evenodd;"/><path d="M120.84,1404.08c-2.12,1.65-2.63,9.35-.91,15.2,7,3.12,13.83,2.3,20.48-.93,3.37-1.3,7.42-3.52,7.34-5.95-.15-4.58-.25-4.69-9.69-9.58,.14,.93,.29,1.79,.46,2.58h0c-.41,1.08-1.25,1.9-2.82,.88-1.72-1.13-1.14-4.78-6.04-4.87-4.06-.07-4.1,3.81-6.08,5.11-2.18,1.51-2.65-.75-2.75-2.45Z" style="fill:#0e2952; fill-rule:evenodd;"/><path d="M59.92,1404.06c2.12,1.66,2.63,9.36,.91,15.21-7,3.12-13.82,2.3-20.48-.93-1.03-.49-5.09-1.8-5.41-2.91-1.14-3.94-.16-9.18,7.76-12.61-.14,.93-.29,1.8-.46,2.58h0c.41,1.08,1.25,1.9,2.82,.89,1.72-1.14,1.14-4.79,6.04-4.88,4.06-.07,4.1,3.81,6.08,5.11,2.18,1.51,2.65-.75,2.75-2.46Z" style="fill:#0e2952; fill-rule:evenodd;"/><path d="M120.68,1391.54c.74,5.72,.94,10.62,.6,14.71,.38,.78,1.07,1.15,2.3,.29,1.98-1.29,2.02-5.17,6.08-5.11,4.9,.08,4.32,3.74,6.04,4.87,1.58,1.02,2.41,.2,2.82-.88-.75-3.52-1.21-8.5-1.37-14.9-6.1,1.07-11.6,1.42-16.48,1.03Z" style="fill:#f9af79; fill-rule:evenodd;"/><path d="M60.08,1391.52c-.73,5.72-.94,10.63-.6,14.71-.38,.78-1.06,1.15-2.3,.29-1.98-1.29-2.02-5.17-6.08-5.11-4.9,.08-4.32,3.74-6.04,4.88-1.57,1.01-2.41,.19-2.82-.89,.75-3.52,1.21-8.49,1.37-14.9,6.11,1.08,11.6,1.42,16.48,1.03Z" style="fill:#f9af79; fill-rule:evenodd;"/><path d="M138.45,1010.64c-9.68,30.94-16.18,54.85-19.48,71.73-12.39,8.61-21.08,14.95-26.07,19.02,17.54-9.89,28.31-16.03,32.34-18.43,4.12,10.22,7.55,26.75,10.27,49.57,.2-8.82-1.76-25.42-5.89-49.8,2.01-23.14,4.95-47.17,8.83-72.09h0Zm42.16-37.03c3.42,1.75,6.09,3.7,8.01,5.88-4.15-1.61-8.73-2.66-13.73-3.14,2.02-.98,3.93-1.9,5.72-2.75h0Zm-141.97,57.17c.14,2.5,.74,6.47,1.8,11.9,2.16,14.44,6.17,34.75,8.69,66.03-1.75,7.5-4.63,17.3-5.29,24.28,.49,.11,.97,.22,1.46,.32,1.06-5.1,3.41-12.2,7.06-21.29,1.47,1.02,5.69,2.56,12.64,4.61-3.05-2.7-6.09-5.31-9.12-7.84-5.34-30.46-11.09-56.46-17.24-78.01Z" style="fill:#466fb5; fill-rule:evenodd;"/><path d="M700.72,981.96c-4.95,2.85-6.47,7.54-9.82,9.28-9.72,.92-19.31,1.66-23.87,4.83-17.84,21.57-32.26,40.65-43.25,57.22-4.44,9.18-3.55,18.04,2.68,26.59,7.65-7.06,15.94-8.85,24.88-5.35-.3-3.74-1.7-7.63-4.21-11.67,12.84-11.27,23.36-21.61,31.57-31-1.52,12.33,2.95,29.87,13.4,52.62,36.36,2.37,57.22,1.8,62.58-1.72,1.77-10.17,3.17-21.28,4.21-33.3,8.35,7.47,15.11,14.1,20.28,19.9,3.92,1.29,8.13,1.54,12.63,.76,3.18-7.46,6.37-14.22,9.57-20.28-2.21-1.99-6.03-3.59-11.48-4.79-14.85-21.17-27.66-38.26-38.46-51.28-8.38-1.96-14.63-2.98-18.75-3.06-1.76-2.08-4.38-3.87-7.84-5.35,2.02,11.12,2.78,24.45,2.68,33.87-15.88-11.64-24.81-26.84-26.79-37.27Z" style="fill:#6d96ce; fill-rule:evenodd;"/><path d="M673.75,1179.86c-7.54-46.71-1.42-78.5,18.34-95.39,30.71,2.01,50.36,1.9,58.95-.29,.09,3.29,.31,7.16,1,12.26,5.34,39.37,11.74,100.5,10.87,160.55-21.67,7.61-55.61,7.29-101.8-.96,5.28-23.36,9.49-48.75,12.63-76.17Z" style="fill:#20386f; fill-rule:evenodd;"/><path d="M732.68,990.71c1.87,5.48,2.87,10.01,2.99,13.58-2.14-1.7-3.72-2.87-4.73-3.49-.78,8.8-1.92,14.94-3.42,18.42,.11-9.42-.66-22.75-2.68-33.87,3.46,1.49,6.08,3.28,7.84,5.35Z" style="fill:#466fb5; fill-rule:evenodd;"/><path d="M700.72,981.96c1.98,10.43,10.91,25.62,26.79,37.27-9.49-3.37-19.86-11.62-25.81-22.58-.98,3.71-2.22,8.05-3.73,13.01-4.13-5.12-6.49-11.26-7.07-18.42,3.35-1.74,4.87-6.43,9.82-9.28Z" style="fill:#466fb5; fill-rule:evenodd;"/><path d="M650.26,1074.12c6.34,12.95,13.75,25.86,21.13,36.13,1.69-1.81,3.33-5.75,5.73-7.26,.96-.6,2.47,.95,3.49,.47,4.84-2.28,10.21-2.94,14.54,.31,1.09,.82,1.67,2.41,1.83,6.19-.18,5.19-4.53,6.18-10.57,3.73-8.09,8.83-13.48,11.69-17.89,8.61-19.97-17.92-33.18-32.78-39.66-44.57,6.66-5.06,13.79-6.27,21.39-3.61Z" style="fill:#f9af79; fill-rule:evenodd;"/><path d="M856.16,1071.91c-29.92,1-51.28,.21-64.11-2.37,3.09-7.24,6.2-13.8,9.32-19.7,23.86,3.54,44.28,6.14,61.28,7.81,6.11-4.18,11.21-5.91,15.31-5.17,1.13,2.58-.08,4.45-3.63,5.65-.96,1.33-1.34,2.58-1.15,3.73,8.84,3.78,16.63,6.11,23.35,6.99,.79,7.96-4.14,13.03-14.76,15.2-10.84-2.8-19.38-6.85-25.6-12.14Z" style="fill:#f9af79; fill-rule:evenodd;"/><path d="M670.63,1387.79c5.57,20.81,3.69,31.88-6.82,33.41-13.95,1-17.74-12.78-12.26-41.19-.12,1.55-.21,2.98-.28,4.26-1.54,29.76,21.54,23.09,19.93,9.39-.22-1.91-.41-3.87-.58-5.87Z" style="fill:#0e2952; fill-rule:evenodd;"/><path d="M671.21,1393.66c1.61,13.71-21.48,20.37-19.93-9.39,.06-1.28,.16-2.71,.28-4.26,.95-12.13,3.51-31.54,3.32-43.78-.49-31.27,2.29-57.88,8.34-79.84,11.19,1.96,21.65,3.44,31.38,4.45-5.26,18.27-9.82,34.99-13.68,50.15-4.74,18.62-13.59,46.16-11.37,65.07,.48,4.05,.77,7.97,1.1,11.73,.17,2,.36,3.96,.58,5.87Z" style="fill:#f9af79; fill-rule:evenodd;"/><path d="M763.52,1397.25c-8.05,.43-.7,6.7-5.94,8.11-11.46-6.27-17.81-23.35-22.39-30.9-2.4-3.96-4.15,1.09-5.33,6.73-2.55,12.15-2.47,28.16,.41,33.15,2.1-3.65,3.9-14.89,5.8-21.75,11.25,10,8.79,21.03,15.46,24.78,16,1.77,24.65,2.21,36.8,2.48,2.67-10.33-18.46-6.84-24.81-22.6Z" style="fill:#0e2952; fill-rule:evenodd;"/><path d="M757.55,1258.64c-1.53,60.01-7.06,113.49,2.95,139.36-2.78,1.79,1.37,6.2-2.92,7.36-11.46-6.27-17.81-23.35-22.39-30.9-.02-.04-.05-.08-.07-.12,.64-1.6,1.1-3.43,1.38-5.5-.2-49.78-12.64-80.48-10.24-106.4,12.11-.17,22.55-1.44,31.29-3.79Z" style="fill:#f9af79; fill-rule:evenodd;"/><path d="M780.25,1069.68c4.02-7.65,8.05-15.66,12.09-24.03,4.16,1.12,7.17,2.51,9.03,4.2-3.12,5.89-6.22,12.46-9.32,19.7-.08,.19-.17,.39-.25,.58-4.09,.71-7.94,.56-11.55-.44Z" style="fill:#466fb5; fill-rule:evenodd;"/><path d="M648.96,1066.18c1.37,2.87,2.16,5.65,2.38,8.35-.36-.14-.72-.27-1.08-.4-7.6-2.65-14.74-1.45-21.39,3.61,.02,.03,.03,.05,.05,.08-.82,.63-1.64,1.32-2.45,2.07-2.28-3.13-3.85-6.3-4.7-9.51,10.15-5.92,19.22-7.31,27.2-4.19Z" style="fill:#466fb5; fill-rule:evenodd;"/><path d="M725.07,978.86c-1.02,3.83-.92,7.08,.31,9.78,1.61,10.38,2.22,22.08,2.13,30.59-15.16-11.11-23.98-25.46-26.48-35.82,2.01-3.24,2.83-7.02,2.47-11.34,.37-2.03-.78-5.79-3.44-11.29-9.07-1.58-11.33-9.19-7.55-15.24,4.24-1.5,6.53,1.97,7.64,8.25,2.42-.36,1.49-4.21,1.24-6.02-1.14-5.23-.18-8.05,1.73-13.01,10.89,7.66,20.24,7.9,35.11,3.58-.43,3.57-.75,7.01-.96,10.33,4.08,9.93-2.16,26.82-12.2,30.19Z" style="fill:#f9af79; fill-rule:evenodd;"/><path d="M738.23,938.33c-14.87,4.32-24.22,4.08-35.11-3.58-1.91,4.96-2.86,7.78-1.73,13.01,.25,1.81,1.17,5.66-1.24,6.02-1.12-6.28-3.41-9.75-7.64-8.25-3.78,6.05-1.52,13.66,7.55,15.24,2.67,5.5,3.82,9.26,3.44,11.29,.36,4.32-.46,8.1-2.47,11.34-.12-.5-.22-.98-.31-1.45-4.95,2.85-6.47,7.54-9.82,9.28-9.72,.92-19.31,1.66-23.87,4.83-1.32,1.59-2.62,3.17-3.9,4.74-3.11-7.29-4.74-12.64-4.19-15.01,2.1-9.04,11.61-4.51,11.45-9.85-.26-8.34,11.51-14.87,9.94-23.19-3.2-17.01,3.44-22.17,3.48-23.47,.39-12.9,8.11-13.23,15.79-17.57,13.63-7.72,25.47,1.72,29.34,1.97,19.69,1.3,8.79,9.76,17.6,17.38,7.26,6.29,3.83,11.05,3.08,14.83-.34,1.7-1.92,8.71,3.11,12.25,7.37,5.19,.63,16.1,4.98,17.42,16.73,5.07,9.19,10.12,8.73,21.81-.15,3.74-1.91,7.1-4.27,9.85-3.78-4.88-7.37-9.37-10.75-13.45-8.38-1.96-14.63-2.98-18.75-3.06-1.76-2.08-4.38-3.87-7.84-5.35,.19,1.08,.38,2.17,.55,3.28-1.23-2.69-1.33-5.95-.31-9.78,10.04-3.37,16.27-20.26,12.2-30.19,.2-3.32,.52-6.77,.96-10.33Z" style="fill:#20386f; fill-rule:evenodd;"/><path d="M725.07,978.86c-6.08,.68-8.84,.64-14.46-1.61,3.3,3.56,7.89,5.52,13.78,5.85,.05-1.33,.28-2.75,.68-4.25Z" style="fill:#ed7d57; fill-rule:evenodd;"/><path d="M1521.15,926.82s5.9,5.74,6.05,7.86c.13,2.11,.51,24.72-1.89,26.84-2.41,2.11-9.5,3.63-7.22,6,1.72,1.77,14.96,1.4,23.74,.93,2.55-.17,5.77-20.54,6.79-23.54,1.46-4.35,6.78-13.85,5.45-16.86-.67-1.48-5.52-4.86-9.91-7.69-4.62-3-9.06-9.63-9.06-9.63l-13.94,16.1Z" style="fill:#f9af79; fill-rule:evenodd;"/><path d="M1442.14,940.93l5.29,14.96c.39,2.36,1.94,8.2,1.94,10.35,0,8.07-36.42-6.84-28.27-10.44,.75-.34,3.06-2.91,3.3-5.66,.39-4.23-3.06-9.51-3.06-9.51l20.8,.3Z" style="fill:#f9af79; fill-rule:evenodd;"/><path d="M1391.87,657.98l-13.2,33.63s-8.6,80.29-3.61,128.34c2.1,20.12,47.47,127.69,47.47,127.69l22.54-3.17-30.18-127.4,11.1-48.72,15.73-96.35-49.86-14.03Z" style="fill:#0e2952; fill-rule:evenodd;"/><path d="M1454,659.71l11.32,37.44,17.2,113.08,58.21,105.77s-8.75,13.27-18.15,15.34l-82.62-106.92-44.78-133.82,1.57-29.75,57.24-1.14Z" style="fill:#223f81; fill-rule:evenodd;"/><path d="M1275.74,657.35c8.79-.42,8.51,1.08,9.64,.96,1.32-.08,15.53-10.89,15.53-10.89,0,0,42.01-31.54,44.21-33.32l26.21-47.56,27.34,6.31s-29.91,50.96-31.93,53.36c-2.01,2.36-63.8,38.41-69.15,41.78,0,0-4.88,6.34-8.08,10.22-3.2,3.88-7.95,6.12-9.04,7.09-.16,.12-3.9,3.12-9.49,5.51-4.82,2.12-1.22-2.05-1.22-2.05,0,0,8.24-5.5,7.69-6.06-.42-.46-4.73,2.81-10.04,5.18-1.37,.61-2.71,1.19-3.94,1.72-3.26,1.41-5.08-.16-1.9-2.2,1.13-.71,3.02-1.83,4.47-2.45,1.59-.7,2.84-1.83,4.07-2.58,2.47-1.52,4.29-2.63,4.18-2.68-.16-.07,.12-.73-1.35-.12-1.77,.71-5.17,3.08-7.87,3.95-1.52,.5-4.62,1.7-4.62,1.7,0,0-5.27,1.42-5.41,1.13-.84-1.47,2.64-3.57,4.77-3.94,1.25-.98,4.54-2.15,4.54-2.15,0,0,6.15-3.9,5.61-4.78-.43-.74-16.96,5.75-17.72,4.23-.6-1.27,4.29-3.46,4.29-3.46,0,0,3.06-1.08,4.05-1.53,1.16-.52,4.52-2.34,4.52-2.34,0,0,11.36-6.83,10.77-7.63-.57-.8-2.88-2.21-3.73-2.02-.86,.18-2.25,1.34-3.08,1.49-.85,.18-2.12-.31-2.43-1.32-.28-1.05,3.49-3.48,3.49-3.48,0,0,3.06-1.96,5.61-2.06Z" style="fill:#f9af79; fill-rule:evenodd;"/><path d="M1360.92,579.81l28.12,15.65s12.04-23.51,17.14-35.01c6.18-13.94,12.46-32.36,10.61-32.69-5.22-.95-12.27-1.13-18.38,2.43-21.11,12.36-37.49,49.63-37.49,49.63Z" style="fill:#466fb5; fill-rule:evenodd;"/><path d="M1543.85,920.18s-12.43,37.53-17.75,39.38c-1.43,.47-9.38,2.45-10.66,5.45l-.09,.3c-.41,1.9,1.21,3.63,3.17,3.63h25.28s3.58-16.86,5.02-24.25c0,0,7.5-18.13,6.67-19.73-.83-1.64-11.64-4.78-11.64-4.78Z" style="fill:#0e2952; fill-rule:evenodd;"/><path d="M1451.44,968.91l-4.17-13.18s-8.75,3.72-13.13,3.08c-4.39-.6-12.95-3.08-12.95-3.08-17.48,5.74-31.81,8.53-29.21,13.18h59.45Z" style="fill:#0e2952; fill-rule:evenodd;"/><path d="M1286.35,665.37c-3.65,1.42-7.12,1.37-10.46-.62,2.5,3.66,7.89,3.35,10.46,.62Z" style="fill:#f48661; fill-rule:evenodd;"/><path d="M1449.91,522.34c33.85,4.62,39.65,32.5,29.94,62.03-9.07,27.61-19.78,62.63-19.05,72.13,1.27,16.31,4.84,40.48,4.84,40.48,0,0-63.53,3.97-87.42-5.33,0,0,7.99-37.02,7.99-46.69s4.24-106.7,7.25-111.77c3.02-5.07,9.09-7.94,20.62-10.44,11.52-2.49,35.84-.42,35.84-.42Z" style="fill:#6d96ce; fill-rule:evenodd;"/><path d="M1445.28,496.18l4.2,27.13s-15.36,32.33-24.55,29.54c-7.69-2.37-2.96-30.93-2.96-30.93,0,0,4.2-15.38,2.95-23.07-1.27-7.65,20.36-2.66,20.36-2.66Z" style="fill:#f9af79; fill-rule:evenodd;"/><path d="M1424.92,498.84c-1.27-7.65,20.36-2.66,20.36-2.66l.35,2.24c-.63,1.52-1.41,2.83-2.36,3.8-4.82,5.07-12.37,8.16-18.89,8.37,.65-4.14,1.06-8.58,.54-11.75Z" style="fill:#f48661; fill-rule:evenodd;"/><path d="M1448.82,457.81c.6-.21,4.9,30.89-3.23,39.47-8.14,8.54-23.98,11.37-29.67,4.61-2.8-3.32-8.42-12.69-4.47-23.23,3.99-10.69,4.16-21.62,11.15-26.51,12.64-8.79,26.23,5.66,26.23,5.66Z" style="fill:#f9af79; fill-rule:evenodd;"/><path d="M1423.24,425.8c11.83,23.92,24.65,20.53,26.97,23.03,18.68,2.13,30.22,32.94,11.33,47.19-8.93,6.76-14.69,10.31-14.69,10.31l-1.43-4.1c-1.04-3.04-1.46-6.3-1.12-9.5,.21-1.9,.63-3.98,1.46-5.71,2.14-4.48-4.61-7.48-6.51-11.24-1.45-2.87-1.52-9.51-3.81-14.24l-2.75-3.68s-6.32-4.82-12.51-3.42c-6.2,1.35-10.35-14.31,3.07-28.63Z" style="fill:#20386f; fill-rule:evenodd;"/><path d="M1439.67,481.31c-.07,3.8,1.7,6.93,3.93,6.93,2.25,.04,4.12-3,4.18-6.8,.06-3.8-1.69-6.89-3.94-6.93-2.25-.05-4.1,3-4.17,6.8Z" style="fill:#f9af79; fill-rule:evenodd;"/><path d="M1329.85,673.31c9.4,.06,8.97,1.58,10.2,1.53,1.43-.03,17.38-10.4,17.38-10.4,0,0,47.28-30.31,49.78-32.04l31.62-47.63,28.69,7.92s-35.8,50.95-38.17,53.31c-2.36,2.37-71.03,36.27-77,39.45,0,0-5.72,6.28-9.45,10.11-3.68,3.81-8.95,5.91-10.16,6.82-.2,.16-4.42,3.02-10.57,5.23-5.3,1.9-1.12-2.23-1.12-2.23,0,0,9.19-5.21,8.66-5.82-.4-.49-5.29,2.65-11.12,4.82-1.48,.54-2.99,1.09-4.35,1.58-3.6,1.31-5.38-.45-1.85-2.36,1.24-.68,3.39-1.77,4.99-2.33,1.74-.61,3.12-1.7,4.53-2.43,2.73-1.43,4.76-2.46,4.66-2.55-.16-.09,.19-.75-1.42-.2-1.96,.65-5.77,2.92-8.68,3.66-1.65,.42-5.08,1.53-5.08,1.53,0,0-5.47,.73-5.6,.43-.82-1.57,2.82-3.09,5.14-3.39,1.39-.92,5.01-1.96,5.01-1.96,0,0,6.86-3.69,6.37-4.65-.23-.38-4.7,1.39-9.39,2.51-4.34,1.01-8.88,1.37-9.17,.56-.56-1.33,4.15-2.96,4.15-2.96,0,0,3.33-.95,4.43-1.36,1.27-.47,4.99-2.16,4.99-2.16,0,0,12.67-6.47,12.1-7.32-.56-.84-2.93-2.41-3.85-2.27-.92,.14-2.49,1.25-3.41,1.39-.92,.13-2.23-.45-2.48-1.51-.25-1.08,3.98-3.41,3.98-3.41,0,0,3.42-1.85,6.18-1.86Z" style="fill:#f9af79; fill-rule:evenodd;"/><path d="M1457.87,614.67l-33.67-12.7s3.81-16.7,11.98-28.81c20.64-45.27,43.74-39.45,46.8-20.87,4.31,14.91-25.11,62.38-25.11,62.38Z" style="fill:#466fb5; fill-rule:evenodd;"/><path d="M1822.28,970.94c2.89,.2,5.66-3.22,6.46-4.23,3.06-3.89,5.02-8.46,5.8-11.02-.6-1.7-1.22-3.86-1.87-6.46-11.1-7.54-12.62-13.12-4.55-16.74,1.62,.91,3.64,3.72,6.05,8.43,1.92-.08,3.39-1.07,4.38-2.95-2.29-7.94-3.78-14.39-4.47-19.34,5.46-8.13,18.26-9.29,35.2-7.1,.78,4.51,1.43,9.28,1.94,14.32,2.99,2.76,2.6,12.99-.16,24.78,1.38,6.7-2.76,10.36-12.42,10.97-.09,1.62,.05,3.48,.08,4.62,.03,1.02,.06,3.03,1.13,3.35l1.79,.45c-.17,23.97-12.45,28.57-39.37,.92Z" style="fill:#f9af79; fill-rule:evenodd;"/><path d="M1869.28,911.53c-16.94-2.19-29.74-1.04-35.2,7.1,.69,4.95,2.18,11.4,4.47,19.34-.98,1.89-2.45,2.88-4.37,2.95-2.41-4.71-4.43-7.51-6.05-8.42-8.07,3.61-6.55,9.19,4.55,16.74,.65,2.59,1.28,4.75,1.88,6.45-9.16,.87-20.86-10.79-20.74-21.5-1.19-20.69,2.56-26.2,9.52-29.74,13.14-8.4,24.84,4.56,41.38-6.4,6.57,9.08,9.69,13.27,4.57,13.48Z" style="fill:#20386f; fill-rule:evenodd;"/><path d="M1847.51,959.28c2.71,1.33,6.42,2.11,11.13,2.33-.09,1.6-.03,3.44,.08,4.57-4.74-.91-8.48-3.21-11.21-6.9Z" style="fill:#ed7d57; fill-rule:evenodd;"/><path d="M1802.08,1419.84c-10.51-3.7-11.36-9.13-17.03-11.78-5.71-2.66-6.36-7.41-.78-12.57,4.12,3.29,9.24,7.34,11.95,5.19,1.81-1.43,7.94-1.33,9.16,.75,5.34,12.42,12.77,8.49,14.24,14.14,.17,7.52-12.71,5.96-17.54,4.26Z" style="fill:#0e2952; fill-rule:evenodd;"/><path d="M1893.25,1407.48c-18.53-.3-32.39-.52-38.78-2.54-6.9-2.18-5.48-6.39-1.51-13.12,17.47,8.03,12.81-1.66,20.98-.43,5.74,4.62,14.24,7.72,25.5,9.3,4.75,3.51,2.82,6.64-6.19,6.79Z" style="fill:#0e2952; fill-rule:evenodd;"/><path d="M1884,973.65c-9.25-2.68-17.55-4.31-24.91-4.88-1.33,20.32-11.93,20.18-31.8-.42-19.14,1.61-22.88,1.85-33.5,5.3-22.97,21.94-25.08,47.27-37.09,76.21,13.29,.59,19.26,2.19,28.3,5.41,1.94-6.93,3.57-12.51,4.88-16.74-.37,38.16-.51,64.31-.42,78.44,53.22,6.75,84.88,6.03,94.98-2.12,.2-33.92,.49-60.77,.84-80.56,5.26,6.2,10.14,11,14.63,14.41,10.77-12.36,18.08-17.34,24.2-24.62-13.53-22.22-32.92-42.89-40.1-50.43Z" style="fill:#6d96ce; fill-rule:evenodd;"/><path d="M1972.6,1010.83c-23.1,9.6-39.27,17.53-48.51,23.79l-4.11-6.07c-3.82,3.82-8.18,7.58-13.5,13.03,4.91,5.14,10.2,9.38,16.35,12.96,16.04-1.72,33.78-13.87,53.22-36.46,6.04-1.21,10.49-3.4,13.34-6.57,.16-2.91-1.31-5.83-4.4-8.76,8.05-5.24,11.26-9,9.62-11.27-12.62,7.8-19.96,14.26-22.01,19.36Z" style="fill:#f9af79; fill-rule:evenodd;"/><path d="M1884.95,1054.57c-.25,20.72-.43,40.81-.53,60.28,2.89,2.27,6.75,21.58,3.32,32.78,5.85,36.09,.83,83.05-2.31,143.45-5.63,21.29-13.95,49.65-13.4,89.57-9.81,2.99-13.36,3.31-22.22,1.06-6.19-41.66-1.97-75.02,3.63-90.43-3.57-23.81-8.92-50.47-16.71-88.92-8.77,41.9-20.51,72.99-25.59,93.28-1,22.62-5.58,53.15-7.97,91.59-7.28,2.19-11.82,2.82-19.37,1.9-9.81-35.33-8.16-73.78-4.01-115.34,4.42-49.96-2.86-106.37,4.43-125.93,2.33-12.99,.89-25.2,5.22-30.9,9.21,2.14,17.64,.32,25.26-5.48,.7-49.25,2.4-81.9,5.09-97.94,2.72-23.17-4.23-37-20.84-41.48,3.43-3.48,7.76-4.27,13-2.35,12.89,8.48,19.03,23.54,18.43,45.2,21.98,3.09,36.75,2.1,44.31-2.97,.82-20.46-3.25-34.74-12.21-42.85,3.37-2.42,7.75-1.64,13.11,2.34,6.86,9.44,9.88,24.07,9.06,43.9,1.73,7.17,1.83,20.25,.29,39.22Z" style="fill:#20386f; fill-rule:evenodd;"/><path d="M1796.2,1078.2c-2.36,.35-4.58,.66-6.67,.95-.11,16.83-.14,29.44-.08,37.82,2.36,.3,4.67,.58,6.95,.85-.18-14.08-.25-27.28-.19-39.62h0Zm107.5-33.73c-6.47-5.39-12.64-14.15-18.48-26.27,.65,4.22,.93,9.87,.78,16.95,4.98,5.78,9.61,10.29,13.89,13.54,1.32-1.51,2.59-2.91,3.81-4.23h0Zm-105.67-32.82c-2.85,9.17-5.58,18.13-8.18,26.87-.07,7.38-.13,14.3-.18,20.78,1.88-.18,4.09-.3,6.71-.36,.27-17.92,.82-33.68,1.65-47.29Z" style="fill:#466fb5; fill-rule:evenodd;"/><path d="M1761.15,1050.11c-2.09,8.48-2.96,16.25-1.25,26.54,5.23,7.59,26.31,3.35,80.59-5.72,1.94,1.78,5.97,3.55,12.08,2.76,5.68-1.42,5.95-2.9,12.32-8.91,1.55-4.67,1.22-8.24-.95-10.7-7.17,4.21-10.94,6.46-19.02,6.73,2.15-5.53,2.47-9.1,.97-10.71-2.76,2.21-4.55,5.53-5.38,9.96-42.8-1.86-54.08-1.61-59.78,1.38,.62-2.69,1.16-5.05,1.64-7.09-6.67-2.27-12.09-3.59-21.22-4.24Z" style="fill:#f9af79; fill-rule:evenodd;"/><path d="M1854.19,1382.68c.43,3.62,.5,6.89,.19,9.78,14.61,6.34,12.13-.98,17.97-1.17-1.47-2.58-2.42-5.88-2.86-9.89-6.37,1.83-10,2.23-15.31,1.28h0Zm-68.08,6.69c0,2.65-.25,4.97-.77,6.98,3.9,3.09,8.39,6.31,10.88,4.34,1.19-.94,4.25-1.22,6.55-.71-.95-3.19-1.7-7.19-2.25-11.99-5.12,1.37-9.05,1.84-14.41,1.38Z" style="fill:#f9af79; fill-rule:evenodd;"/><path d="M1813.81,934.2c18.02-20.12,43.24-27.54,56.28-18.79,1.38-18.21-18.48-30.77-39.73-21.2-23.08,11.96-21.9,29.28-16.55,39.99Z" style="fill:#6d96ce; fill-rule:evenodd;"/><path d="M1870.09,915.41c-10.58-6.07-23.8-4.45-39.68,4.83,11.03-19.73,25.51-29.64,48.51-25.91,13.59,2.95,4.75,14.11-8.84,21.08Z" style="fill:#20386f; fill-rule:evenodd;"/></svg>