<?xml version="1.0" encoding="UTF-8"?><svg id="a" xmlns="http://www.w3.org/2000/svg" viewBox="0 0 2356.01 1518.55"><g><path d="M1066.23,1460.19c253.6,0,486.98,3.79,672.2,10.15,453.24-259.07,296.3-764.05,133.55-1049.68C1645.49,23.12,1110.3-119.76,888.93,197.42,588.47,627.93,298.61,477.7,142.1,804.66c-156.51,326.97,81.18,640.41,251.94,665.68,185.2-6.36,418.59-10.15,672.19-10.15h0ZM669.1,357.78c-116.01,88.29-307.9,156.72-371.62,62.84-47.6-70.13,11.04-201.71,125.89-301.48C538.13,19.46,691.91-40.89,775.71,32.53c99.46,87.11-17.28,257.26-106.62,325.26Z" style="fill:#e0e8f5; fill-rule:evenodd;"/><path d="M1417.81,142.11c272.29,60.67,445.57,311.08,462.55,431.98,6.96,49.61-5.93-66.48-144.85-172.2-124.14-94.48-220.79-111.98-368.48-123.4-104.37-8.06-213.66-20.89-205.9-83.14,6.14-49.16,80.87-92.41,256.67-53.24h0ZM705.79,40.83c46.88,2.82,75.42,41.31,77.38,85.7,.83,18.89-14-30.49-65.96-37.36-32.23-4.26-37.08,5.24-48.63-8.07-11.55-13.3-.58-42.54,37.22-40.27Z" style="fill:#fff; fill-rule:evenodd;"/></g><path d="M1099.42,1518.55c605.54,0,1099.42-13.94,1099.42-31.03s-493.88-31.03-1099.42-31.03S0,1470.44,0,1487.52s493.88,31.03,1099.42,31.03Z" style="fill:#ced0d1; fill-rule:evenodd;"/><g><path d="M1033.33,414.66c-205.77,0-373.17,167.41-373.17,373.17s167.4,373.16,373.17,373.16,373.17-167.41,373.17-373.16-167.41-373.17-373.17-373.17h0Zm0,777.13c-222.74,0-403.95-181.21-403.95-403.95s181.21-403.96,403.95-403.96,403.95,181.22,403.95,403.96-181.22,403.95-403.95,403.95Z" style="fill:#d2deec; fill-rule:evenodd;"/><path d="M1033.33,414.66c-120.53,0-218.59,167.41-218.59,373.17s98.06,373.16,218.59,373.16,218.58-167.41,218.58-373.16-98.07-373.17-218.58-373.17h0Zm0,777.13c-137.51,0-249.37-181.21-249.37-403.95s111.87-403.96,249.37-403.96,249.38,181.22,249.38,403.96-111.88,403.95-249.38,403.95Z" style="fill:#d2deec; fill-rule:evenodd;"/><path d="M1033.32,414.66c-18.77,0-62.77,126.96-62.77,373.17s44,373.16,62.77,373.16,62.77-126.96,62.77-373.16-44-373.17-62.77-373.17h0Zm0,777.13c-74,0-93.56-264.24-93.56-403.95s19.55-403.96,93.56-403.96,93.56,264.24,93.56,403.96-19.56,403.95-93.56,403.95Z" style="fill:#d2deec; fill-rule:evenodd;"/><rect x="644.76" y="772.44" width="777.12" height="30.79" style="fill:#d2deec;"/><path d="M1033.32,661.05c-127.09,0-246.95-34.24-320.6-91.6l18.92-24.29c68.43,53.29,181.2,85.11,301.68,85.11s235.31-32.37,303.55-86.59l19.16,24.11c-73.52,58.4-194.14,93.27-322.7,93.27Z" style="fill:#d2deec; fill-rule:evenodd;"/><path d="M1336.87,1031.36c-68.24-54.23-181.72-86.59-303.55-86.59s-233.25,31.81-301.68,85.11l-18.92-24.3c73.65-57.36,193.51-91.6,320.6-91.6s249.18,34.87,322.7,93.26l-19.16,24.12Z" style="fill:#d2deec; fill-rule:evenodd;"/><path d="M1040.38,530.81c-91.37,0-187.05-29.67-193.17-86.37l30.6-3.31c3.01,27.85,70.51,58.9,162.56,58.9s158.21-30.06,162.45-58.13l30.45,4.6c-7.36,48.85-88.51,84.31-192.9,84.31Z" style="fill:#d2deec; fill-rule:evenodd;"/><path d="M871.84,1133.88l-30.6-3.3c6.12-56.71,101.81-86.38,193.17-86.38,104.39,0,185.54,35.45,192.91,84.32l-30.45,4.59c-4.24-28.07-70.53-58.13-162.46-58.13s-159.55,31.04-162.56,58.9Z" style="fill:#d2deec; fill-rule:evenodd;"/></g><path d="M1072.96,899.93s6.97-18.04,8.93-20.55c1.95-2.51,12.01-9.12,12.83-8.73,.83,.38,1.15,1.22,.18,2.89-.97,1.66-5.17,6.43-4.31,6.53,.86,.1,13.99-12.98,17.13-11.09,3.15,1.87,3.22,13.94-1.11,21.17-4.33,7.23-21.69,15.49-22.59,16.59-7.6,9.39-11.07-6.81-11.07-6.81Z" style="fill:#f9af79; fill-rule:evenodd;"/><path d="M1080.68,897.11c-5.92-4.03-7.11-3.86-7.11-3.86,0,0-48.85,48.57-53.63,52.93-4.78,4.36-86.65,45.09-86.65,45.09l-1.6,66.51s101.03-73.23,112.93-84.5c19.66-18.63,42.66-68.56,42.66-68.56,0,0-1.95-4.45-6.6-7.61Z" style="fill:#466fb5; fill-rule:evenodd;"/><g><path d="M2146.12,350.96l-167.37,125.82-160.66-213.73,167.37-125.8c71.67-53.89,153.3-81.89,221.63-96.29,77.08-16.25,137.26-15.36,147.45-15.03l.84-.03,.64,.04s-15.11,62.39-55.67,138.51c-32.84,61.73-82.43,132.57-154.22,186.53Z" style="fill:#e5bb9a; fill-rule:evenodd;"/><path d="M2095.04,283.01l-167.36,125.82-59.16-78.7,167.35-125.82c65.12-48.95,130.1-87.67,184.29-116.31,72.67-38.42,125.96-58.94,134.38-62.08l1.15-.44-.31,.4c-3.46,4.74-38.41,51.35-97.5,112.5-42.58,44.1-97.78,95.72-162.83,144.62Z" style="fill:#eac5a7; fill-rule:evenodd;"/><path d="M2300.34,164.44c-15.23-6.04-29.63-14.78-42.47-26.05-7.77-6.78-14.9-14.45-21.37-23.05-6.55-8.72-11.95-17.85-16.34-27.34-7.11-15.16-11.43-31.04-13.07-47.05,77.08-16.25,137.26-15.36,147.45-15.03l1.15-.44-.31,.4,.64,.04s-15.11,62.39-55.67,138.51Z" style="fill:#bf9071; fill-rule:evenodd;"/><path d="M2257.87,138.39c-7.77-6.78-14.9-14.45-21.37-23.05-6.55-8.72-11.95-17.85-16.34-27.34,72.67-38.42,125.96-58.94,134.38-62.08l1.15-.44-.31,.4c-3.46,4.74-38.41,51.35-97.5,112.5Z" style="fill:#d0a382; fill-rule:evenodd;"/><path d="M2175.96,245.78c-29.18,21.93-70.63,16.06-92.55-13.12-21.94-29.18-16.07-70.62,13.12-92.55,29.16-21.94,70.61-16.07,92.55,13.12,21.93,29.17,16.05,70.61-13.12,92.56Z" style="fill:#e0e8f5; fill-rule:evenodd;"/><path d="M2179.48,160.44c-17.92-23.85-51.9-28.66-75.75-10.74-23.84,17.92-28.66,51.9-10.73,75.74,17.92,23.84,51.9,28.66,75.76,10.74,23.83-17.93,28.64-51.9,10.72-75.74h0Zm-105.68,79.43c-25.88-34.43-18.93-83.5,15.5-109.38,34.42-25.88,83.5-18.92,109.38,15.5,25.88,34.43,18.93,83.5-15.5,109.38-34.42,25.88-83.5,18.93-109.38-15.5Z" style="fill:#a1775a; fill-rule:evenodd;"/><path d="M2171.91,218.28c-11.68,8.78-28.25,6.43-37.02-5.25-8.78-11.68-6.43-28.25,5.25-37.02,11.68-8.78,28.24-6.43,37.02,5.25,8.76,11.67,6.43,28.24-5.25,37.02Z" style="fill:#fff; fill-rule:evenodd;"/><path d="M2000.24,512.79c73.65-55.48,122.34-114.92,108.82-132.91-13.52-17.97-84.14,12.28-157.91,67.62l49.09,65.29Z" style="fill:#bf9071; fill-rule:evenodd;"/><path d="M1986.88,495.04c73.7-55.44,128.35-106.94,122.18-115.15-6.16-8.2-70.82,29.99-144.57,85.37l22.39,29.78Z" style="fill:#d0a382; fill-rule:evenodd;"/><polygon points="1948.92 456.02 1899.27 519.25 1921.37 511.27 1897.69 544.91 1934.5 528.76 1921.4 548.68 1991.44 512.57 1948.92 456.02" style="fill:#e5bb9a; fill-rule:evenodd;"/><polygon points="1954.51 463.47 1917.95 510.04 1934.22 504.18 1916.78 528.94 1943.89 517.05 1934.25 531.73 1985.83 505.12 1954.51 463.47" style="fill:#eac5a7; fill-rule:evenodd;"/><path d="M1875.8,454.17c96.99-73.08,161.11-151.35,143.3-175.03-17.8-23.69-110.79,16.16-207.94,89.04l64.64,85.99Z" style="fill:#bf9071; fill-rule:evenodd;"/><path d="M1858.24,430.79c97.04-73.02,169-140.84,160.86-151.64-8.11-10.82-93.27,39.49-190.37,112.41l29.51,39.24Z" style="fill:#d0a382; fill-rule:evenodd;"/><polygon points="1808.21 379.4 1742.85 462.67 1771.93 452.17 1740.76 496.46 1789.24 475.18 1771.99 501.43 1864.2 453.87 1808.21 379.4" style="fill:#e5bb9a; fill-rule:evenodd;"/><polygon points="1815.59 389.21 1767.44 450.54 1788.87 442.81 1765.91 475.43 1801.61 459.76 1788.9 479.1 1856.84 444.07 1815.59 389.21" style="fill:#eac5a7; fill-rule:evenodd;"/><path d="M1839.07,298.4c73.64-55.5,122.34-114.94,108.82-132.92-13.51-17.98-84.15,12.27-157.92,67.62l49.1,65.3Z" style="fill:#bf9071; fill-rule:evenodd;"/><path d="M1825.71,280.64c73.69-55.44,128.34-106.95,122.17-115.16-6.16-8.21-70.83,29.98-144.58,85.37l22.42,29.79Z" style="fill:#d0a382; fill-rule:evenodd;"/><polygon points="1787.74 241.61 1738.11 304.84 1760.18 296.87 1736.51 330.5 1773.32 314.35 1760.24 334.27 1830.25 298.17 1787.74 241.61" style="fill:#e5bb9a; fill-rule:evenodd;"/><polygon points="1793.34 249.06 1756.78 295.63 1773.04 289.77 1755.61 314.54 1782.71 302.64 1773.07 317.32 1824.66 290.72 1793.34 249.06" style="fill:#eac5a7; fill-rule:evenodd;"/></g><g><path d="M1517.41,569.88l219.28-72.36-105.38,201.52-32.64-37.02-407.61,343.26c-13.14,12.16-33.56,13.15-47.89,1.57l-180.12-145.58-299.84,278.86c-11.15,11.32-28.84,14.41-43.48,6.43l-197.56-108.15L59.33,1305.04c-16.3,11.91-39.18,8.33-51.08-7.97-11.9-16.3-8.33-39.17,7.97-51.07l381.49-280.34c12.27-8.96,28.27-9.15,40.5-1.75l193.43,105.91,304.98-283.64c13.48-12.53,33.9-12.92,47.8-1.66l.08-.11,181.25,146.49,384.48-323.78-32.83-37.23Z" style="fill:#e5bb9a; fill-rule:evenodd;"/><g style="opacity:.33;"><path d="M1517.41,569.88h0l19.7,22.34-19.7-22.34h0Zm199.71-65.9l19.57-6.45-105.38,201.52-32.64-37.02-407.61,343.26c-13.14,12.16-33.56,13.15-47.89,1.57l-180.12-145.58-299.84,278.86c-11.15,11.32-28.84,14.41-43.48,6.43l-197.56-108.15L59.33,1305.04c-16.3,11.91-39.18,8.33-51.08-7.97-5.55-7.6-7.73-16.63-6.83-25.31,.65,1.13,1.36,2.23,2.15,3.31,11.9,16.3,34.78,19.87,51.08,7.97l362.84-266.63,197.56,108.15c14.65,7.98,32.34,4.89,43.48-6.43l299.84-278.86,180.12,145.59c14.33,11.58,34.74,10.58,47.88-1.57l407.61-343.26,32.65,37.01,90.5-173.06Z" style="fill:#a1775a; fill-rule:evenodd;"/></g></g><path d="M831.84,1426.08s-13.97,15.08-17.44,16.94c-3.48,1.87,1.55,23.76,11.02,25.2,5.34,.84,8.31-4.3,8.31-4.3l-1.53-6.34,19.95-17.88-20.31-13.63Z" style="fill:#f9af79; fill-rule:evenodd;"/><path d="M1031.88,1434.07s1.75,20.14,.72,23.86c-.99,3.76,18.94,14.68,26.53,8.77,4.26-3.35,2.45-8.89,2.45-8.89l-5.78-3.07,.26-26.34-24.18,5.66Z" style="fill:#f9af79; fill-rule:evenodd;"/><path d="M1032.72,1456.98s9.92,1.4,14.61,1.3c6.07-.1,13.08-1.13,13.08-1.13,0,0,12.17,3.84,16.04,5.53,8.58,3.75,18.17,7.88,20.69,11.92,.8,1.28-1.15,5-4.17,6.45-12.66,5.9-56.75,7.1-64.83,4.27-9.31-3.26,4.58-28.33,4.58-28.33Z" style="fill:#0e2952; fill-rule:evenodd;"/><path d="M937.93,1201.18c-3.15-1.55-6.07-2.92-8.85-4.2-9.88,11.31-21.09,24.04-32.58,37.16l25.02,52.4c-2.82-3.16,78.86,46.49,78.86,46.49,0,0,18.55,66.31,25.53,108.42,14.27,1.71,17.2,1.23,32.62-2.12,3.41-49.6-4.29-126.34-10.29-135.9-3.47-5.51-72.79-83.87-110.3-102.25Z" style="fill:#20386f; fill-rule:evenodd;"/><path d="M855.16,1228.9c2.85,42.9,18.83,104,18.21,110.01-2.44,7.93-44.02,81.35-51.82,92.03,6.19,8.12,15.32,15.78,25.63,18.2,2.03,.47,72.28-87.13,76.18-94.12,4.41-7.98,11.76-51.38,11.89-105.15l2.03-53.25c-17.34-17.04-45.59-28.38-55.29-26.52-16.82,3.23-27.54,47.93-26.82,58.8Z" style="fill:#1d417f; fill-rule:evenodd;"/><path d="M815.19,1442.47s5.54,8.12,8.72,11.43c4.11,4.34,9.54,8.68,9.54,8.68,0,0,5.19,11.48,6.49,15.44,2.89,8.78,6.15,19.36,4.8,23.95-.43,1.49-4.15,4.29-7.22,2.56-11.83-6.72-43.43-38.17-46.66-45.96-3.73-9.01,24.32-16.11,24.32-16.11Z" style="fill:#0e2952; fill-rule:evenodd;"/><path d="M1101.57,927.52s4.1-20.11,5.7-23.07c1.6-2.97,10.95-11.66,11.88-11.41,.94,.25,1.41,1.09,.7,2.99-.72,1.91-4.27,7.65-3.36,7.6,.92-.05,12.34-16.05,15.97-14.64,3.62,1.41,5.82,14.01,2.58,22.35-3.25,8.34-19.95,20.04-20.7,21.35-6.29,11.16-12.77-5.17-12.77-5.17Z" style="fill:#f9af79; fill-rule:evenodd;"/><path d="M910.85,982.4s18.76,22.25,42.65,12.95c0,0,5.13-12.44,5.21-21.6,0-1.12,.03-2.22,.04-3.27,.13-10.31,.48-16.1,.48-16.1,0,0,0,0-.03,0-1.09-.45-36.52-14.99-36.49-13.79,.61,27.91-11.86,41.81-11.86,41.81Z" style="fill:#f9af79; fill-rule:evenodd;"/><path d="M926.27,947.25c3.42,6.34,15.14,18.72,32.48,23.24,.13-10.31,.48-16.1,.48-16.1,0,0,0,0-.03,0-.98-.26-33.95-8.99-32.93-7.14Z" style="fill:#ed7d57; fill-rule:evenodd;"/><path d="M966.64,953.32s-39.85,9.37-45.29-15.54c-5.46-24.9-14.27-40.46,10.94-47.5,25.21-7.03,32.25,1.39,36.09,9.26,3.84,7.87,8.49,50.7-1.74,53.78Z" style="fill:#f9af79; fill-rule:evenodd;"/><path d="M922.71,944.57c-.54,.35-9.12,2.98-25.36-29.37-2.55-5.07-4.29-16.06,1.66-25.76,16.5-26.95,45.65-8.98,75.86-26.88,10.88,41.55-21.97,37.96-28.26,39.95-6.3,1.98-8.52,11.91-9,15.09-.47,3.17-1.2,5.82-9.12,2.98-7.92-2.84-3.58,11.22-2.31,13.91,0,0,1.08,7.16-3.46,10.08Z" style="fill:#20386f; fill-rule:evenodd;"/><path d="M988.13,1074.36c-.24,13.2-1.01,28.03-2.04,43.1-.07,.89-.13,1.79-.19,2.68-.66,9.34-1.38,18.68-2.2,27.82-.33,3.66-.68,7.27-1.04,10.82l-.06,.48c-.03,1.33-.19,2.77-.33,4.09-3.36,34.16-6.89,61.16-7.54,61.58-.78,.52-1.66,.78-2.63,.66-8.96-1.12-35.69,.91-57.59-3.85-18.47-3.9-34.37-11.28-51.23-21.24-2.24-1.32-7.34-4.84-6.92-7.44,.41-2.88,1.16-7.03,2.12-12.26,3.32-18.18,9.05-49.45,11.01-86.04,.38-6.82,.94-13.54,1.66-20.17,1.88-17.24,4.89-33.61,8.92-48.16,7.51-27.02,18.54-47.72,32.37-55.81,1.81-1.01,11.53,5.18,20.47,10.91,8.25,5.28,16.94,6.75,25.39,6.01l7.43,8.23c9,10.46,18.59,24.39,21.21,44.2,.2,1.46,.37,3.02,.51,4.67,.72,8.07,.9,18.28,.7,29.72Z" style="fill:#6d96ce; fill-rule:evenodd;"/><path d="M988.13,1074.36c-.24,13.2-1.01,28.03-2.04,43.1-.07,.89-.13,1.79-.19,2.68-51.18-32.04-59.07-90.66-59.07-90.66,25.18,1.1,45.19,6.89,60.61,15.17,.72,8.07,.9,18.28,.7,29.72Z" style="fill:#466fb5; fill-rule:evenodd;"/><path d="M1111.33,924.7c-5.68-5.07-9.09-2.73-9.09-2.73,0,0-58.29,52.47-63.94,56.4-5.64,3.94-86.13,12.58-86.13,12.58,0,0-32.34,2.17-38.88,19.37-5.68,14.95,.1,26.97,7.84,35.55,9.23,10.21,23.84,13.61,36.7,8.73,28.9-10.94,86.34-33.16,96.82-40.76,23.32-16.9,62.87-80.19,62.87-80.19,0,0-1.73-4.99-6.2-8.96Z" style="fill:#6d96ce; fill-rule:evenodd;"/><path d="M949.03,921.64c-1.77,.22-3.95-6.57,.33-7.09,2.29-.27,2.55,6.74-.33,7.09Z" style="fill:#20386f; fill-rule:evenodd;"/><path d="M968.19,920.13c1.76-.22,2.34-7.33-1.94-6.81-2.29,.28-.96,7.16,1.94,6.81Z" style="fill:#20386f; fill-rule:evenodd;"/><path d="M950.14,908.2c2.86-.24,3.05,2.12,1.05,3.01-.59,.26-11.85,3.95-11.42,3.17,.8-1.6,4.96-5.71,10.37-6.18Z" style="fill:#20386f; fill-rule:evenodd;"/><path d="M962.81,906.79c-2.85,.32-2.61,2.68-.48,3.15,1.01,.22,12.49,1.62,11.69,.71-1.33-1.47-6.01-4.46-11.21-3.86Z" style="fill:#20386f; fill-rule:evenodd;"/><path d="M969.36,929.33c-4.44,4.9-5.35,2.01-3.64,1.36,5.66-2.15-.99-2.07-5.61-11.34-.47-.98,.62-1.51,1.13-.75,.34,.52,1.37,2.56,1.79,3.09,5.02,6.58,7.77,6.07,6.34,7.64Z" style="fill:#ed7d57; fill-rule:evenodd;"/><path d="M967.7,936.17c-8.29,15.88-17.23,1.64-14.76,1.21,12.54-2.13,15.78-3.15,14.76-1.21Z" style="fill:#fff; fill-rule:evenodd;"/><g><path d="M248.16,884.27c-9.95-1.78-12.24-2.75-12.6-4.18-.36-1.44,4.67-6.78,9.25-6.32,4.58,.47,6.76,7.76,3.35,10.5Z" style="fill:#f9af79; fill-rule:evenodd;"/><g><path d="M447.17,830.4c-2.95-16.05-10.76-29.39-20.51-37.07l-45.96,15.29-77.53,25.81-66.85,22.27-38.98,12.98-45.44,12.22,.37,2.79,.63,3.51,47.24-5.55,40.62-1.73,70.4-3,81.64-3.49,48.39-2.06c6.37-10.66,8.92-25.91,5.96-41.96Z" style="fill:#c4d1eb; fill-rule:evenodd;"/><path d="M435.29,802.92c.24-.07,.49,.07,.56,.31,.07,.24-.07,.49-.32,.56l-153.75,42.47c-.24,.06-.49-.08-.56-.32-.07-.24,.07-.49,.32-.56l153.74-42.46Z" style="fill:#e0e8f5; fill-rule:evenodd;"/><path d="M439.17,808.32c.24-.07,.49,.08,.56,.31,.07,.24-.07,.5-.32,.57l-154.16,42.49c-.24,.06-.49-.08-.56-.32-.07-.24,.08-.5,.32-.56l154.17-42.49Z" style="fill:#e0e8f5; fill-rule:evenodd;"/><path d="M446.07,857.39c.25-.03,.47,.16,.5,.41,.03,.25-.16,.47-.41,.5l-159,15.15c-.25,.03-.48-.16-.5-.4-.03-.26,.16-.48,.41-.5l159-15.15Z" style="fill:#e0e8f5; fill-rule:evenodd;"/><path d="M281.6,864.86c.25-.04,.48,.12,.53,.37,.05,.25-.12,.49-.37,.53l-81.93,14.23c-.25,.05-.48-.12-.53-.37-.05-.24,.12-.48,.37-.52l81.93-14.24Z" style="fill:#e0e8f5; fill-rule:evenodd;"/><path d="M439.52,789.04c-.62-.43-1.25-.83-1.89-1.21l-12.67,4.22c.58,.41,1.15,.83,1.71,1.28,9.74,7.69,17.56,21.02,20.51,37.07,2.95,16.05,.41,31.3-5.96,41.96-.37,.62-.75,1.21-1.14,1.8l13.34-.57c.46-.58,.9-1.18,1.33-1.81,7.38-10.69,10.52-26.95,7.36-44.12-3.16-17.19-11.88-31.25-22.59-38.63Z" style="fill:#466fb5; fill-rule:evenodd;"/><path d="M374.41,811.32c-.48-.33-.95-.64-1.43-.92l-9.62,3.21c.44,.3,.87,.63,1.29,.97,7.4,5.84,13.33,15.97,15.58,28.16,2.24,12.19,.3,23.77-4.53,31.86-.28,.47-.57,.92-.86,1.37l10.13-.43c.35-.45,.68-.91,1.01-1.38,5.6-8.12,7.99-20.46,5.59-33.51-2.4-13.05-9.02-23.73-17.15-29.33Z" style="fill:#466fb5; fill-rule:evenodd;"/><path d="M330.69,824.55c-.4-.27-.8-.53-1.2-.78l-8.09,2.69c.37,.26,.73,.53,1.09,.82,6.22,4.91,11.2,13.42,13.09,23.66,1.88,10.24,.26,19.98-3.8,26.77-.24,.39-.48,.78-.73,1.15l8.52-.37c.29-.38,.57-.76,.85-1.15,4.71-6.82,6.71-17.2,4.69-28.16-2.01-10.96-7.58-19.94-14.41-24.65Z" style="fill:#466fb5; fill-rule:evenodd;"/><path d="M278.36,842.85c-.27-.18-.54-.37-.82-.53l-5.52,1.84c.25,.17,.5,.37,.75,.56,4.24,3.35,7.64,9.16,8.93,16.15,1.29,6.99,.18,13.62-2.59,18.27-.17,.27-.33,.53-.5,.79l5.81-.24c.2-.25,.39-.51,.58-.79,3.21-4.65,4.58-11.73,3.2-19.21-1.38-7.49-5.18-13.61-9.83-16.82Z" style="fill:#466fb5; fill-rule:evenodd;"/><path d="M221.12,861.45c-.15-.1-.31-.21-.47-.3l-3.13,1.05c.14,.1,.29,.2,.42,.31,2.41,1.9,4.34,5.19,5.07,9.16,.73,3.97,.1,7.73-1.47,10.37-.09,.15-.19,.3-.28,.44l3.3-.14c.11-.14,.22-.3,.33-.44,1.82-2.64,2.6-6.66,1.82-10.9-.78-4.24-2.93-7.71-5.58-9.53Z" style="fill:#466fb5; fill-rule:evenodd;"/><path d="M182.75,873.6l-30.84,8.3,.37,2.79,.63,3.51,31.55-3.71,14.56-1.71c.74-1.9,.97-4.12,.54-6.39-.47-2.61-1.72-4.84-3.39-6.4l-13.44,3.61Z" style="fill:#466fb5; fill-rule:evenodd;"/><g style="opacity:.6;"><path d="M244.88,866.24c-9.5-6.54,5.83-11.14,14.08-12.6,23.41-4.14-5.97,18.2-14.08,12.6h0Zm197.79-19.97c.88-9.04,.88-38.1-12.82-11.79-2.73,5.25-15.3,12.71-19.41,15.45-17.84,11.9,30.83,10.68,32.22-3.66h0Zm-64.98,10.29c1.15-8.55-5.14-14.13-8.07-11-2.19,2.32-3.89,6.64-5.83,8.85-1.93,2.21-11.34,9.35-12.66,10.89-7.87,9.16,25.5-.8,26.56-8.73h0Zm-46.73,12.25c2.7-8.18-2.45-14.82-5.91-12.3-2.57,1.88-5.05,5.81-7.35,7.63-2.31,1.82-12.88,7.1-14.45,8.36-9.42,7.56,25.21,3.91,27.71-3.69Z" style="fill:#fff; fill-rule:evenodd;"/></g></g><path d="M131.66,931.15c-2.89-1.46-18.89-1.63-34.95,1.19,1.8-2.54,3.24-5.87,4.32-10,28.62-3.45,26.03-10.59,25.07-13.83-5.31-15.46-8.51-25.21-4.25-29.69,2.1,1.06,6.51,3.52,8.06,10.29,1.83-1.04,4.16-2.41,4.52-4.45,.85-6.09,1-18.84,8.04-19.7,1.22,5.64,2.27,11.62,3.17,17.94,3.91,3.32,3.95,16.22,1.09,31.2,2.08,8.37-2.94,13.19-15.06,14.46v2.59Z" style="fill:#f9af79; fill-rule:evenodd;"/><path d="M126.1,908.52c.95,3.24,3.54,10.38-25.07,13.83-12.69-2.3-23.67-13.11-25.35-17.92-15.85-28.31,0-41.18,8.58-45.99,2.68-28.79,45.29-5.19,65.56-19.84,8.74,11.09-.9,25.85-7.34,26.37-7.04,.86-7.19,13.61-8.04,19.7-.36,2.04-2.69,3.41-4.52,4.45-1.55-6.77-5.96-9.23-8.06-10.29-4.26,4.48-1.06,14.23,4.25,29.69Z" style="fill:#20386f; fill-rule:evenodd;"/><path d="M96.71,932.34c-1.63,1.46-3.26,3.21-4.77,5.29l.98-.27c13.31-1.34,27.78-1.69,43.42-1.05-1.51-2.1-3.16-3.9-4.68-5.16-2.89-1.46-18.89-1.63-34.95,1.19Z" style="fill:#466fb5; fill-rule:evenodd;"/><path d="M42.2,1118.66c3.17,4.16,7.11,6.37,13.19,12.55l-.08,.66,.96,.24c1.35,1.42,2.81,3.02,4.38,4.9-3.34,2.54-7.45,.62-12.33-5.76-.44,6.9,1.21,12.11,4.96,15.61,1.84,2.23,3.33,3.95,4.47,5.17-3.79,6.07-11.26,3.42-22.42-7.95-2.16-4.38-1.79-8.61-3.05-12.55-.48-1.99-1.05-3.97-1.91-6.29,4.79-1.26,8.72-3.45,11.79-6.54l.04-.04Z" style="fill:#f9af79; fill-rule:evenodd;"/><path d="M59.09,1132.8c-6.84,38.62-11.26,99.65-12.58,158.62-6.33,27.83-7.33,72.57-3.83,163.48,10.72,2.48,20.05,3.17,27.98,2.07,16.45-84.24,23.08-128.21,20.71-161.13,4.96-23.44,12.08-66.53,20.52-100.01,6.51,33.91,11.14,77.34,14.75,101.03-4.25,32.73-.16,77,11.44,162.05,7.86,1.55,17.21,1.39,28.06-.47,8.69-90.55,10.26-135.28,5.54-163.43,2.08-59.47,1.12-121.24-3.6-160.12-44.85,5.15-81.19,4.45-109-2.08Z" style="fill:#20386f; fill-rule:evenodd;"/><path d="M142.32,1475.34c-2.73,2-3.64,11.67-1.69,19.09,8.68,4.18,17.29,3.39,25.77-.43,4.28-1.52,9.46-4.16,9.45-7.21-.03-5.78-.15-5.91-11.84-12.39,.14,1.19,.31,2.27,.49,3.26h0c-.56,1.35-1.63,2.34-3.58,1.01-2.12-1.48-1.26-6.06-7.42-6.34-5.09-.22-5.29,4.65-7.82,6.21-2.79,1.83-3.3-1.04-3.36-3.19Z" style="fill:#0e2952; fill-rule:evenodd;"/><path d="M65.76,1473.13c2.61,2.16,2.98,11.85,.6,19.15-8.9,3.67-17.46,2.4-25.71-1.9-1.27-.65-6.33-2.45-6.7-3.86-1.29-4.99,.13-11.54,10.21-15.57-.21,1.17-.44,2.24-.68,3.22h0c.48,1.38,1.5,2.43,3.52,1.21,2.2-1.36,1.6-5.97,7.77-5.91,5.1,.07,5.02,4.94,7.46,6.64,2.68,1.98,3.36-.85,3.53-2.99Z" style="fill:#0e2952; fill-rule:evenodd;"/><path d="M142.57,1459.58c.72,7.22,.8,13.39,.23,18.51,.45,.99,1.3,1.47,2.88,.44,2.54-1.55,2.73-6.42,7.82-6.21,6.16,.29,5.3,4.86,7.42,6.34,1.94,1.33,3.02,.34,3.58-1.01-.82-4.45-1.21-10.71-1.18-18.77-7.71,1.13-14.62,1.37-20.75,.7Z" style="fill:#f9af79; fill-rule:evenodd;"/><path d="M66.41,1457.38c-1.13,7.17-1.56,13.33-1.29,18.47-.51,.97-1.38,1.39-2.9,.27-2.44-1.7-2.36-6.57-7.46-6.64-6.17-.06-5.56,4.55-7.77,5.91-2.02,1.22-3.04,.17-3.52-1.21,1.08-4.4,1.83-10.63,2.25-18.69,7.63,1.58,14.53,2.21,20.68,1.89Z" style="fill:#f9af79; fill-rule:evenodd;"/><path d="M178.62,981.53c-13.28,38.52-22.31,68.34-27.07,89.44-15.88,10.37-27.03,18.02-33.45,22.96,22.39-11.8,36.16-19.13,41.31-22,4.82,13,8.52,33.88,11.12,62.66,.57-11.07-1.3-32-5.6-62.78,3.35-29,7.92-59.11,13.7-90.28h0Zm54.32-45.03c4.24,2.32,7.53,4.88,9.86,7.69-5.16-2.18-10.88-3.66-17.15-4.44,2.58-1.17,5-2.24,7.29-3.24h0Zm-180.49,66.74c.09,3.14,.7,8.15,1.83,15.01,2.19,18.24,6.5,43.91,8.53,83.3-2.47,9.37-6.44,21.57-7.52,30.32,.61,.16,1.21,.3,1.83,.46,1.52-6.38,4.73-15.21,9.64-26.49,1.81,1.32,7.05,3.42,15.72,6.24-3.74-3.5-7.46-6.89-11.17-10.18-5.62-38.48-11.91-71.37-18.86-98.66Z" style="fill:#466fb5; fill-rule:evenodd;"/><path d="M261.75,904.99c-.08-8.05,12.24-38.67,12.24-38.67,0,0-4-20.07-7.68-20.6-3.68-.53-5.56-1.33-9.32-.25-3.75,1.1-12.96,1.24-12.96,1.24-10.12,2.85,5.77,23.48-1.72,34.05-1.74,2.45,4.89,1.39,4.63,3.2-.18,1.19-.96,6.29-2.04,13.72l16.84,7.32Z" style="fill:#f9af79; fill-rule:evenodd;"/><path d="M49.6,955.56c8.05-7.12,30.17-14.58,43.32-18.2,13.67-1.39,28.59-1.72,44.73-1,27.31,.52,42.77,.92,74.12,2.65,17.87-25.09,15.06-15.33,31.14-54.03,3.13,2.39,12.78,2.35,24.82,1.46-16.26,40.84-13.83,78.95-26.06,85.51-23.46,5.61-45.93,8.38-63.05,9.58-5.77,31.17-10.34,61.28-13.7,90.28,4.3,30.78,6.17,51.72,5.6,62.78-48.06,5.71-86.46,4.79-115.22-2.73,1.08-8.75,5.05-20.95,7.52-30.32-2.04-39.39-6.34-65.06-8.53-83.3-9.41,17.72-18.17,31-26.26,39.84,5.68,16.03,10.91,35.65,15.7,58.86-3.51,4.35-8.41,7.23-14.72,8.63-7.22-13.43-22.89-44.12-26.55-66.78-2.58-18.12,35.71-89.4,47.14-103.23Z" style="fill:#6d96ce; fill-rule:evenodd;"/></g><g><g><path d="M1691.21,1259.61c-.26-1.92,1.07-3.7,2.96-3.95,1.89-.25,3.63,1.1,3.89,3.01l28.06,207.7c.24,1.92-1.08,3.68-2.97,3.94-1.89,.25-3.63-1.1-3.88-3.01l-28.06-207.69Z" style="fill:#835e42; fill-rule:evenodd;"/><path d="M1650.21,1258.33c.43-1.88,2.3-3.05,4.15-2.61,1.87,.44,3.02,2.33,2.59,4.22l-45.73,199.26c-.44,1.88-2.3,3.05-4.16,2.61-1.86-.44-3.02-2.33-2.58-4.22l45.73-199.26Z" style="fill:#835e42; fill-rule:evenodd;"/><path d="M1854.89,1259.61c-.24-1.92,1.08-3.7,2.96-3.95,1.9-.25,3.64,1.1,3.89,3.01l28.06,207.7c.25,1.92-1.07,3.68-2.96,3.94-1.88,.25-3.63-1.1-3.89-3.01l-28.06-207.69Z" style="fill:#835e42; fill-rule:evenodd;"/><path d="M1815.55,1257.46c.35-1.91,2.14-3.18,4.03-2.84,1.87,.35,3.13,2.18,2.79,4.08l-35.61,201.37c-.33,1.91-2.14,3.17-4.02,2.84-1.87-.35-3.13-2.18-2.8-4.08l35.61-201.37Z" style="fill:#835e42; fill-rule:evenodd;"/></g><rect x="1641.56" y="968.69" width="221.75" height="290.45" style="fill:#bf9071;"/><path d="M1641.16,960.26h227.97c2.32,0,4.22,1.89,4.22,4.21h0c0,2.33-1.9,4.22-4.22,4.22h-227.97c-2.32,0-4.21-1.89-4.21-4.21h0c0-2.33,1.89-4.22,4.21-4.22Z" style="fill:#835e42; fill-rule:evenodd;"/><path d="M1641.56,968.69h224.56c0,118.34,3.79,167.03,24.25,283.06l-222.05-.78c-29.1-119.54-26.76-159.25-26.76-282.27Z" style="fill:#f6eae0; fill-rule:evenodd;"/><g><rect x="1686.36" y="1080.2" width="24.25" height="101.21" style="fill:#e5bb9a;"/><rect x="1729.59" y="1061.76" width="24.25" height="119.65" style="fill:#e5bb9a;"/><rect x="1772.8" y="1080.2" width="24.25" height="101.21" style="fill:#d0a382;"/><rect x="1816.02" y="1021.69" width="24.25" height="159.71" style="fill:#e5bb9a;"/></g></g><g><path d="M1568.39,856.12c-4.46-12.09-8.99-24.18-22.59-31.91-11-6.22-23.06-6.14-33.78-.95-30.33,14.7-16.7,41.46-36.4,69.66-8.43,12.04-21.03,18.2-27.35,30.84-11.43,22.79-1.49,59.92,29.15,80.81,75.04,51.19,116.23-40.12,116.45-59.79,.17-14.63-22.62-80.88-25.48-88.66Z" style="fill:#20386f; fill-rule:evenodd;"/><path d="M1664.68,1086.99c-8.94-2.81-9.07-1.17-10.21-1.59-1.34-.44-13.03-15.59-13.03-15.59,0,0-34.69-44.35-36.47-46.81l-14.02-56.87-29.91-.75s16.89,61.42,18.32,64.47c1.44,3.02,55.28,57.41,59.87,62.37,0,0,3.3,7.96,5.53,12.88,2.24,4.93,6.53,8.56,7.38,9.86,.12,.17,3.17,4.31,8.28,8.33,4.39,3.52,1.82-1.82,1.82-1.82,0,0-6.98-7.97-6.27-8.41,.56-.36,4.11,4.22,8.92,8.13,1.25,1.01,2.47,1.97,3.6,2.86,2.98,2.35,5.28,1.21,2.55-1.79-.96-1.05-2.61-2.74-3.94-3.77-1.46-1.17-2.42-2.68-3.49-3.81-2.13-2.26-3.71-3.9-3.57-3.93,.18-.03,.07-.79,1.42,.24,1.63,1.22,4.49,4.62,7.02,6.26,1.43,.92,4.3,3.02,4.3,3.02,0,0,5.05,2.9,5.27,2.64,1.27-1.31-1.74-4.44-3.84-5.41-1.01-1.37-4.1-3.48-4.1-3.48,0,0-5.28-5.74-4.48-6.52,.64-.65,15.91,10.6,17.12,9.2,.97-1.17-3.48-4.78-3.48-4.78,0,0-2.86-1.95-3.76-2.69-1.05-.85-4.01-3.67-4.01-3.67,0,0-9.85-10.21-9.03-10.89,.8-.69,3.57-1.53,4.4-1.12,.84,.43,1.95,2,2.76,2.39,.84,.43,2.28,.24,2.88-.73,.59-1.01-2.64-4.58-2.64-4.58,0,0-2.62-2.87-5.22-3.66Z" style="fill:#f9af79; fill-rule:evenodd;"/><path d="M1498.53,1006.47c-2.16-1.8-31.66-27.43-44.81-38.85,0,0,13.12-9.85,21.26,4.51,8.11,14.34,23.56,34.34,23.56,34.34Z" style="fill:#233761; fill-rule:evenodd;"/><path d="M1545.22,1008.35s-3.2,11.19-18.89,30.73c-18.14-.26,18.89-30.73,18.89-30.73Z" style="fill:#233761; fill-rule:evenodd;"/><path d="M1621.38,1307.02c-5,12.77-30.57,39.07-56.94,63.9-31.49,29.65-64.08,57.22-64.08,57.22,0,0-14.9,4.55-8.4-17.38,0,0,35.93-66.04,51.37-85.51,4.41-5.58,8.96-10.67,13.23-15.09,10.68-11.08,19.52-17.99,19.52-17.99,0,0-2.02-3.25-5.31-8.87-16.04-27.47-62.09-111.59-47.85-148.92,17.11-44.99,59.65-65.26,59.65-65.26,0,0,13.5,56.93,24.88,115.44,10.49,53.84,19.17,109.04,13.93,122.45Z" style="fill:#223f81; fill-rule:evenodd;"/><path d="M1607.45,1184.57c-7.83,36.04-21.4,87.02-36.68,98.73-16.04-27.47-62.09-111.59-47.85-148.92,17.11-44.99,59.65-65.26,59.65-65.26,0,0,13.5,56.93,24.88,115.44Z" style="fill:#20386f; fill-rule:evenodd;"/><path d="M1564.44,1370.92c-31.49,29.65-64.08,57.22-64.08,57.22,0,0-14.9,4.55-8.4-17.38,0,0,35.93-66.04,51.37-85.51,4.41-5.58,8.96-10.67,13.23-15.09-.5,16.86-.03,45.45,7.89,60.75Z" style="fill:#20386f; fill-rule:evenodd;"/><path d="M1571.84,1091.69l-2.98-10.96c-20.92,9.05-82.5-4.19-82.5-4.19,0,0-18.34,21.75-8.89,65.83,4.6,21.53,20.92,113.48,27.58,140.42,2.44,9.76,4.31,16.67,5.05,19.45l.02,.03c.24,.84,.05,1.69-.26,2.52-2.85,7.01-4.99,14.21-6.54,21.47-15.23,71.34,26.49,150.16,26.49,150.16l7.13-4.21s2.77-95.07,10.16-138c1.25-7.29,2.65-13.07,4.18-16.63,4.46-10.38,7.6-26.7,9.8-45.9,4.12-36.27,4.86-82.76,4.63-118.54,.69-.07,6.13-61.45,6.13-61.45Z" style="fill:#223f81; fill-rule:evenodd;"/><path d="M1477.37,1103.34c-8.51-12.88,20.7-65.51,19.66-70.48-2.04-9.78-6.85-20.61-11.56-30.35-4.72-9.73-9.34-18.39-11-23.8,1.52-2.11,3.01-4.1,4.38-5.97,2.09-2.87,3.91-5.52,5.08-7.98,1.3-2.68,1.85-5.2,1.23-7.62-.48-1.83-1.12-3.66-1.91-5.46-.37-.84-.75-1.67-1.17-2.49-4.35-8.71-10.84-15.81-10.84-15.81,10.28-6.58,26.48-9.93,26.63-9.45,1.2-.4,2.27-.68,3.12-.91,.59-.16,1.2-.3,1.81-.44,2.04-.49,4.09-.9,5.87-1.24,3.69-3.7,8.1-17.43,6.77-37.65l1.79,.23,29.95,4.04s-.1,9.38,.41,18.14c.42,6.86,1.2,13.36,2.7,14.79,2.33,.18,3.72,.31,3.72,.31l.02,.03,.04,.07c1.69,.14,3.25,.28,4.66,.44,0,0,.11,0,.33,.03,2.65,.3,4.83,.63,6.61,.95l.36,.08c5.12,.93,6.85,1.81,6.85,1.81v.09c-.25,9.45,14.97,25.95,13.93,47.31-.05,.81-7.81,56.75-7.77,57.58,.63,15.94,8.44,60.82,8.44,60.82,7.12,13.87-105.54,26.15-110.12,12.91Z" style="fill:#f9af79; fill-rule:evenodd;"/><path d="M1547.2,887.99s-.1,9.36,.42,18.13c-16.59,.55-26.27-14.01-30.37-22.17l29.95,4.04Z" style="fill:#ed7d57; fill-rule:evenodd;"/><path d="M1553.24,895.97s-39.14,3.05-40.67-21.36c-1.52-24.41-7.59-40.46,17.33-43.44,24.93-2.97,30.37,6.05,32.87,14.07,2.49,8.02,.63,49.31-9.53,50.73Z" style="fill:#f9af79; fill-rule:evenodd;"/><path d="M1560.77,831.73c-6.5-6.96-10.98-5.07-13.41-2.7-22.14-10.48-34.88,7.79-34.88,7.79-1.53,17.67-13.56,28.47-13.56,28.47,0,0,7.41,3.97,23.62-1.27,4.95-1.59,9.22-5.45,12.77-10.01-5.98,11.57-14.56,20.18-14.56,20.18,19.13-10.3,25.34-38.15,25.95-41.07,2.52,2,7.53,6.37,9.25,10.86,2.33,6.09,3.98,18.83,7.7,18.17,0,0,6.89-19.97-2.87-30.42Z" style="fill:#20386f; fill-rule:evenodd;"/><path d="M1576.57,1478.67h-60.74s-2.27-9.69,1.72-16.3c3.54-5.82,1.36-9.78-.17-14.75,2.76,1.13,6.05,2.93,9.97,2.7,3.03-.18,7.77-2.39,10.58-4.03,2.62,2.98,12.27,16.52,15.77,19.03,3.97,2.85,21.67,1.84,22.89,13.33Z" style="fill:#0e2952; fill-rule:evenodd;"/><path d="M1486.29,1477.24l-22.86-56.28s8.11-5.75,15.73-4.52c6.73,1.07,9.29-1.45,12.79-5.67-.02,2.97,.37,6.66,2.07,10.2,1.3,2.74,3.77,5.19,6.34,7.18-1.77,3.55-9.31,18.68-10.32,22.87-1.16,4.76,6.43,20.78-3.75,26.23Z" style="fill:#0e2952; fill-rule:evenodd;"/><path d="M1579.06,1029.61c0-.45,2.39-18.05,4.51-33.66,4.71-.52,10.4-1.64,15.32-3.93-.28-6.82-4.81-65.11-29.31-68.41-1.17-.31-2.38-.58-3.54-.8-.11-.02-.23-.05-.36-.08-3.01-.56-5.67-.84-6.61-.93-.22-.04-.33-.04-.33-.04,0,0,7.31,20.75,7.16,23.17-.14,2.44-23.61,3.26-39.04,3.45-15.31,.21-23.93-25.4-24.06-25.8-.61,.14-1.22,.28-1.81,.44-.85,.23-21.33,3.35-29.75,10.37,0,0,6.49,7.08,10.84,15.79,.42,.82,.8,1.66,1.17,2.51,.78,1.78,1.43,3.61,1.91,5.44,.62,2.41,.07,4.93-1.23,7.62-1.17,2.47-2.99,5.12-5.08,7.98-1.38,1.87-2.87,3.86-4.38,5.97,.57,1.86,1.49,4.11,2.63,6.65h0c2.21,4.85,5.26,10.77,8.37,17.15,4.71,9.74,9.52,20.59,11.56,30.36,1.04,4.96-28.17,57.59-19.66,70.47,1.36,3.91,12.17,5.6,26.5,5.67,34.21,.17,88.63-8.81,83.62-18.58,0,0-7.81-44.88-8.44-60.81Z" style="fill:#6d96ce; fill-rule:evenodd;"/><path d="M1503.87,1109.01c-14.34-.07-25.14-1.76-26.5-5.67-8.51-12.88,20.7-65.51,19.66-70.47-2.04-9.77-6.85-20.62-11.56-30.36-3.1-6.38-6.15-12.3-8.37-17.14h0c1.22-4.78,1.92-7.56,1.92-7.56,0,0,31.08,36.13,38.22,53.2,5.59,13.37-7.47,58.93-13.37,78Z" style="fill:#466fb5; fill-rule:evenodd;"/><path d="M1489.1,1084.5l-6.14,10.65c-39.53-15.65-64.7-50.91-64.7-50.91-1.39-20.04,7.98-43.05,19.21-62.93,1.86-3.28,3.76-6.48,5.68-9.57,7.95,6.78,19.03,15.67,29.6,22.12-1.65,2.72-3.61,5.99-5.74,9.46-8.75,14.44-20.09,32.94-21.56,34.42-2.42,2.44,43.65,46.77,43.65,46.77Z" style="fill:#f9af79; fill-rule:evenodd;"/><path d="M1468.65,1007.65c-19.46-1.29-33.81-26.6-33.81-26.6,15.19-26.85,36.41-47.67,36.41-47.67,53.94,20.6,6.19,68.47-2.61,74.27Z" style="fill:#6d96ce; fill-rule:evenodd;"/><path d="M1489.1,1084.5s3.31-.48,5.5-2.37c2.17-1.89,9.07-7.25,9.46-5.6,.42,1.67-4.99,4.24-2.14,4.64,2.84,.42,7.3-1.5,11.77-.8,4.46,.68,11.34,10.96,9.24,12.17-2.13,1.23-9.85-2.83-11.88-1.41-2.03,1.41-16.52,9.34-28.09,4.02-11.57-5.31,6.15-10.65,6.15-10.65Z" style="fill:#f9af79; fill-rule:evenodd;"/><path d="M1537.89,883.16c6.55,.04,10.18-.2,16.54-.74,2.55-.23-2.68,6.88-16.89,1.12-.35-.14-.16-.38,.35-.38Z" style="fill:#eb795b; fill-rule:evenodd;"/><path d="M1542.93,849.58c3.17,.24,3,2.77,.64,3.36-25.06,6.29-8.52-3.96-.64-3.36Z" style="fill:#20386f; fill-rule:evenodd;"/><path d="M1551.55,849c-2.97,1.15-2.07,3.52,.37,3.42,25.8-1.25,7.01-6.27-.37-3.42Z" style="fill:#20386f; fill-rule:evenodd;"/><path d="M1553.05,878.81l.16-.02c2.77-.61,4.25-.99,4.77-2.04,.48-.96,0-2.04-.87-3.99-.98-2.16-2.45-5.46-3.71-10.88-.1-.4-.5-.63-.89-.55-.39,.1-.64,.49-.55,.9,1.31,5.54,2.81,8.91,3.8,11.14,.58,1.28,1.08,2.39,.91,2.72-.23,.47-2.2,.91-3.77,1.25-.39,.1-.64,.49-.56,.89,.08,.33,.38,.58,.72,.58Z" style="fill:#eb795b; fill-rule:evenodd;"/><path d="M1559.5,864.73c1.81-.19,2.49-7.24-1.9-6.77-2.34,.25-1.06,7.09,1.9,6.77Z" style="fill:#20386f; fill-rule:evenodd;"/><path d="M1542.04,866c1.81-.21,2.49-7.24-1.89-6.76-2.34,.24-1.07,7.08,1.89,6.76Z" style="fill:#20386f; fill-rule:evenodd;"/></g><g><path d="M2104.27,1436.18l11.21,27.41c.44,3,2.28,10.48,2.22,13.21-.25,10.21-47.43-9.83-36.65-14.14,.98-.37,4.1-3.57,4.49-7.08,.63-5.34-3.71-12.2-3.71-12.2l22.44-7.2Z" style="fill:#f9af79; fill-rule:evenodd;"/><path d="M2120.34,1480.24s-.74-15.4-4.71-17.28c-3.72-1.78-10.68,4.91-15.97,3.98-5.28-.92-17.14-5.42-17.14-5.42-21.35,6.78-37.22,11.02-34.21,16.99l72.03,1.73Z" style="fill:#0e2952; fill-rule:evenodd;"/><path d="M2031.1,1442.56l6.46,19.17c.44,2.98,2.28,10.48,2.22,13.2-.24,10.21-47.43-9.83-36.65-14.14,.98-.38,4.1-3.57,4.48-7.08,.63-5.35-3.7-12.2-3.7-12.2l27.19,1.05Z" style="fill:#f9af79; fill-rule:evenodd;"/><path d="M1973.99,1081.73l-18.28,42.29s-13.7,101.66-8.61,162.82c2.14,25.61,58.17,163.64,58.17,163.64l29.57-3.31-26.74-160.74,7.16-63.5,23.51-121.81-64.79-19.38Z" style="fill:#20386f; fill-rule:evenodd;"/><path d="M1994.55,1087.24l-11.63,44.39s1.92,102.52,16.26,162.37c6,25.06,82.45,154,82.45,154l28.76-7.29-50.93-155.52,8.75-151.75-6.62-35.84-67.03-10.35Z" style="fill:#223f81; fill-rule:evenodd;"/><path d="M2042.42,1478.36s-.78-15.25-5.02-17.14c-4-1.88-11.61,4.73-17.33,3.8-5.71-.93-16.82-4.32-16.82-4.32-23.04,6.75-41.85,9.81-38.59,15.79l77.76,1.87Z" style="fill:#0e2952; fill-rule:evenodd;"/><path d="M1988.12,867.57c-14.72-7.02-13.74,4.39-17.75,15.46,5.3,3.77,8.12,6.88,9.71,12.24,4.65-2.74,7.79-1.53,11.2-5.65,5.5-5.33,12.84-16.03,6.75-17.46-2.45,4.78-4.92,5.63-8.03,7.34,.51-2.47,1.29-4.88,2.32-7.23,1.24-3.09,3.53-6.23,6.87-9.41,5.87-.86,8.37-2.35,7.48-4.46-6.95-2-13.12,1.05-18.54,9.19Z" style="fill:#f9af79; fill-rule:evenodd;"/><path d="M1970.69,968.54c-10.87,56.21-6.46,76.26-14.97,155.49,21.92,26.31,59.38,1.36,72.57,6.2,5.72,.56,14.59,1.34,19.77,10.09,6.79-8.61,12.75-16.63,17.98-24.12,16.56-23.74,25.67-42.25,29.6-58.07,24.19-93.29,4.65-126.6-52.15-134.13-4.68,8.91-25.84,12.85-31.75,11.66-3.96-2.88-5.25-9.78-8.01-16.38-17.62,1.39-35.95,9.06-46.29,16,9.68-12.44,17.84-24.93,24.45-37.44-1.13-6.07-5.42-11.28-12.88-15.62-65.96,45.55-90.71,75.79-74.27,90.69,18.14,9.58,43.46,8.12,75.95-4.36Z" style="fill:#6d96ce; fill-rule:evenodd;"/><path d="M2028.29,1130.22c6.62-19.21,22.49-62.74,33.36-77.69-1.92-17.2,.35-38.38,3.99-58.34-6.12,14.41-11.87,34.91-13.25,57.21-9.38,15.5-19.24,54.52-25.4,78.38,1.72,.1-.45,.35,1.29,.44h0Zm-86.25-176.61c13.94-13.84,27.27-23.79,40.01-29.87-9.78,3.15-18.55,7.46-24.6,11.52-4.77,6.12-9.9,12.24-15.41,18.34Z" style="fill:#466fb5; fill-rule:evenodd;"/><path d="M2011.74,935.65c5.91,1.19,27.07-2.75,31.75-11.66-3.33-6.52-4.88-13.65-4.9-17.48,1.2-1.66,2.59-3.78,4.15-6.4,14.51-4.55,17.98-10.11,10.41-16.68-2.07,.46-5.18,2.85-9.33,7.17-2.07-.71-3.33-2.26-3.79-4.64,5.08-7.87,8.81-14.38,11.17-19.53-3.29-10.62-16.79-16.05-35.9-19.21-2.33,4.64-4.58,9.62-6.78,14.93-4.15,2.01-7.07,13.25-7.92,26.95-3.69,6.82-.39,12.16,9.89,15.97-.8,3.42-4.17,11.72-6.76,14.2,2.75,6.61,4.04,13.51,8.01,16.38Z" style="fill:#f9af79; fill-rule:evenodd;"/><path d="M2015.3,847.22c19.1,3.15,32.61,8.59,35.9,19.21-2.36,5.15-6.09,11.66-11.17,19.53,.46,2.38,1.73,3.93,3.79,4.64,4.15-4.32,7.26-6.71,9.33-7.17,7.57,6.57,4.11,12.13-10.41,16.68-1.56,2.62-2.95,4.74-4.15,6.4,11.57,.84,23.57-6.14,26.09-9.95,20.15-21.12,9.21-35.89,2.82-42,4.09-25.69-38.33-14.65-52.71-31.96-10.1,7.72-4.99,22.74,.51,24.63Z" style="fill:#20386f; fill-rule:evenodd;"/><path d="M2025.28,905.99c-3.58,.27-10.09,.2-14.79-.92-.44,1.87-1.63,5.17-3.04,8.18,5.22,.31,14.85-4.25,17.83-7.26Z" style="fill:#ed7d57; fill-rule:evenodd;"/><path d="M2029.63,1130.34c-3.5,8.26-6.19,16.38-8.04,24.35,2.95,11.77,7.51,18.69,13.67,20.75,7.29,.28,9.35-5.08,11.54-8.78-3.87-3.87-5.89-8.14-6.07-12.83,4.29-2.63,5.68-5.73,4.18-9.35,1.01-1.82,1.93-3.45,2.79-4.91-4.09-6.45-8.37-8.26-12.72-8.89-1.78-.19-3.56-.24-5.35-.35Z" style="fill:#f9af79; fill-rule:evenodd;"/><path d="M2052.79,1046.17c-37.28-5.23-66.15-12.53-86.61-21.93-.12-3.32-.23-6.55-.27-9.84,20.42,8.63,49.77,15.97,88.07,22.04-.48,3.19-.87,6.43-1.19,9.73Z" style="fill:#466fb5; fill-rule:evenodd;"/><path d="M2056.65,1022.36c-42.74-4.74-72.88-11.9-90.4-21.46,.18-2.95,.45-6.08,.84-9.46,19.82,10.44,50.54,17.39,92.18,20.85-.94,3.22-1.81,6.58-2.61,10.07h0Zm-44.91-86.72c5.91,1.19,27.07-2.75,31.75-11.66,1.36,.17,2.7,.37,4.02,.58-4.52,9.71-16.76,14.83-36.7,15.37-5.23-5.46-8.59-12.25-10.09-20.38,1.01-.12,2.02-.22,3.01-.3,2.75,6.61,4.04,13.51,8.01,16.38Z" style="fill:#466fb5; fill-rule:evenodd;"/><path d="M2018.99,891.62c-5.45-3.32-8.6-4.95-14.19-7.69-2.24-1.1,5.71-4.4,14.67,7.55,.22,.28-.06,.39-.48,.14Z" style="fill:#eb795b; fill-rule:evenodd;"/><path d="M2033.59,857.91c-3.08-.47-3.46,1.98-1.36,3.07,22.42,11.45,8.96-1.9,1.36-3.07Z" style="fill:#20386f; fill-rule:evenodd;"/><path d="M2020.96,852.85c2.57,1.74,1.19,3.8-1.09,3.16-24.22-6.85-5.27-7.49,1.09-3.16Z" style="fill:#20386f; fill-rule:evenodd;"/><path d="M2015.63,879.75l-.16-.05c-2.49-1.19-3.81-1.87-4.08-2.98-.24-1.01,.45-1.93,1.71-3.61,1.39-1.83,3.51-4.64,5.91-9.51,.17-.35,.6-.48,.96-.32,.35,.17,.5,.6,.31,.97-2.44,4.98-4.61,7.85-6.04,9.74-.83,1.1-1.54,2.05-1.45,2.4,.12,.49,1.89,1.34,3.31,2.01,.35,.17,.51,.6,.33,.97-.14,.3-.49,.45-.8,.38Z" style="fill:#eb795b; fill-rule:evenodd;"/><path d="M2009.97,866.05c-1.67-.58-.78-7.42,3.29-6.01,2.17,.75-.54,6.96-3.29,6.01Z" style="fill:#20386f; fill-rule:evenodd;"/><path d="M2030.82,873.69c-1.68-.58-.78-7.42,3.29-6,2.16,.75-.54,6.95-3.29,6Z" style="fill:#20386f; fill-rule:evenodd;"/></g><path d="M1157.05,510.96c-6.65,91.31-20.12,103.91-107.17,110.94,87.06,7.03,100.52,19.63,107.17,110.93,6.66-91.3,20.12-103.9,107.17-110.93-87.05-7.04-100.51-19.64-107.17-110.94h0Zm-2.66,781.69c-3.55,48.75-10.74,55.47-57.21,59.23,46.47,3.75,53.66,10.48,57.21,59.23,3.55-48.74,10.75-55.48,57.23-59.23-46.48-3.76-53.68-10.48-57.23-59.23h0Zm201.57-916.07c-3.59,49.38-10.88,56.19-57.96,59.99,47.08,3.79,54.36,10.62,57.96,59.99,3.59-49.37,10.88-56.2,57.96-59.99-47.08-3.81-54.37-10.62-57.96-59.99Z" style="fill:#fff; fill-rule:evenodd;"/></svg>