<?xml version="1.0" encoding="UTF-8"?><svg id="a" xmlns="http://www.w3.org/2000/svg" viewBox="0 0 1730.21 1547.6"><path d="M886.65,112.13c-210.75,0-186.69,372.2-338.83,485.64C346.44,747.93,0,673.58,0,931.29c0,452.41,449.36,616.32,939.04,616.32s907.52-250.92,761.71-702.13C1554.95,394.25,1376.33,112.13,886.65,112.13Z" style="fill:#e9eff8; fill-rule:evenodd;"/><path d="M1447.24,564.33H508.98c6.74-28.51,32.34-49.72,62.9-49.72,1.46,0,2.94,.05,4.4,.17,14.81-36.27,50.46-61.84,92.07-61.84,18.21,0,35.24,4.91,49.91,13.44,17.9-58.99,72.69-101.94,137.53-101.94,13.18,0,25.98,1.8,38.1,5.13,31.39-69.3,101.15-117.5,182.17-117.5,96.09,0,176.34,67.83,195.52,158.22,1.63-.06,3.23-.11,4.85-.11,61.56,0,112.36,46.03,119.87,105.54,25.11,4.71,45.12,23.91,50.95,48.6Z" style="fill:#fff; fill-rule:evenodd;"/><path d="M302.76,463.82c26.66,25.16,38.77,55.29,36.32,90.42-63.05,42.94-95.65,83.16-97.8,120.64,74.07-65.93,129.73-65.75,154.79-25.26-18.49,22.38-31.43,99.59-26.96,135.13,7.88,62.77-9.21,119.1-56.64,140.27-10.89,24.37-22.31,37.21-34.28,38.54,11.48,70.32,21.16,141.7,29.01,214.13-8.01,4.13-19.48,3.69-25.58-.45-2.45-28.24-4.24-48.16-6.09-61.51-4.86-52.57-10.33-103.42-16.41-152.54-2.93-.34-5.84-.83-8.72-1.45-55.46-11.65-34.22-46.26-84.97-56.66-31.23-6.4-59.63-32.78-66.7-56.37,32.51-10.25,73.44-21.18,114.95-13.4-21.58-30.32-65.39-28.04-124.83-20.72-22.46-43.65-54.36-39.67-41.71-107.98,17.62-95.2-44.65-121.59-23.71-236.21,30.63-11.58,71.17-10.23,121.62,4.07-21.39-31.66-62-44.76-121.83-39.31,12.43-33.57,12.33-76.97,6.41-95.48,22.21-16.06,44.67-15.97,67.38,.26-10.15-17.41-23.31-27.36-39.47-29.85,.8-14.92,7.22-31.59,19.26-50.01,19.91,.46,41.97,4.87,66.18,13.23-11.03,7.27-14.6,20.35-10.71,39.24,13.27-15.61,32.87-20.82,58.81-15.63,5.47,68.05,65.77,95.66,66.8,124.97-35.51,31.27-56.31,65.38-62.39,102.32,36.18-31.03,71.94-51.17,107.27-60.4Z" style="fill:#bcc9e7; fill-rule:evenodd;"/><path d="M307.21,1177.69c-7.86-72.43-17.53-143.81-29.01-214.13-40.95-265.59-112.48-539.92-174.72-654.72,83.07,195.77,140.42,464.75,172.07,806.9,1.84,13.35,3.63,33.27,6.09,61.51,6.1,4.13,17.57,4.57,25.58,.45Z" style="fill:#aab9de; fill-rule:evenodd;"/><path d="M201.83,292.49c-25.73,32.86-34.24,68.86-25.52,107.99,78.3,37.62,121.85,77.35,130.64,119.19-94.62-61.63-157.26-51.97-178.58-2.12,24.63,22.05,52.32,106.79,53.34,147.56,1.8,72.03,30.62,132.54,87.63,148.3,16.4,25.59,31.45,38.11,45.14,37.56-.96,81.13,.29,163.14,3.76,246.04,9.72,3.28,22.56,.83,28.73-4.86-2.04-32.21-3.41-54.95-3.62-70.29-3.46-60.02-5.95-118.21-7.46-174.54,3.24-.89,6.44-1.93,9.57-3.12,60.47-22.55,30.66-57.91,86.04-78.26,34.07-12.52,61.57-47.05,65.5-74.8-38.35-6.01-86.29-11.36-131.7,4.45,19.14-37.8,68.85-42.69,137.02-44.56,17.87-52.96,54.46-53.9,28.6-128.66-36.03-104.2,29.6-144.51-13.48-269.99-36.45-7.83-81.86,.59-136.23,25.28,18.7-39.29,62.2-60.95,130.49-64.98-19.71-35.68-26.97-84.57-23.46-106.42-27.74-14.3-53.02-10.39-75.83,11.76,8.48-21.33,21.59-34.77,39.36-40.32-3.44-16.67-13.5-34.34-30.19-53.03-22.34,3.9-46.42,12.62-72.26,26.15,13.66,6.3,19.9,20.42,18.73,42.35-17.59-15.31-40.55-17.84-68.87-7.59,5.41,77.55-57.78,118.89-53.95,152.06,45.3,29.17,74.52,64.04,87.65,104.6-46-28.78-89.69-45.37-131.05-49.76Z" style="fill:#d0d9ee; fill-rule:evenodd;"/><path d="M318.24,1097.01c-3.47-82.9-4.72-164.9-3.76-246.04,.93-305.99,34.8-627.05,85.37-766.88-60.22,234.55-79.05,547.15-56.49,937.78,.2,15.34,1.57,38.08,3.62,70.29-6.17,5.69-19,8.13-28.73,4.86Z" style="fill:#bcc9e7; fill-rule:evenodd;"/><path d="M283.48,1145.8c113.92,0,206.27,20.78,206.27,46.41s-92.35,46.41-206.27,46.41-206.26-20.78-206.26-46.41,92.35-46.41,206.26-46.41Z" style="fill:#d0d9ee; fill-rule:evenodd;"/><path d="M388.92,1010.36H188.25c-9.01,0-16.38,7.37-16.38,16.38v46.08c0,9.01,7.37,16.38,16.38,16.38h200.66c9.01,0,16.38-7.37,16.38-16.38v-46.08c0-9.01-7.38-16.38-16.38-16.38Z" style="fill:#bcc9e7; fill-rule:evenodd;"/><polygon points="387.13 1089.19 190.05 1089.19 209.39 1191.06 367.78 1191.06 387.13 1089.19" style="fill:#bcc9e7; fill-rule:evenodd;"/><polygon points="190.05 1089.19 387.13 1089.19 383.63 1107.62 193.54 1107.62 190.05 1089.19" style="fill:#aab9de; fill-rule:evenodd;"/><path d="M505.04,257.49s-12.86-15.55-22.94-22.54c-10.06-7.07-25.94-29.3-27.46-57.98-1.52-28.77,18.08-43.66,29.28-48.99,11.18-5.42,55.46-13.17,71.53-8.56,16.11,4.61,18.58,62.25,18.58,62.25l-15.81,47.59-53.18,28.21Z" style="fill:#0f3970; fill-rule:evenodd;"/><path d="M620.77,1050.05l.23,35.11,37.61-13.77s20.88-32.6,48.03-76.12c-17.18-7.47-35.01-13.8-52.92-20.31-18.53,43.83-32.95,75.08-32.95,75.08Z" style="fill:#f5b58b; fill-rule:evenodd;"/><path d="M660.96,1069.12s-18.9-5.41-23.48-9.67c-4.6-4.27-7.28-14.79-14.77-14.47-7.49,.33-34.16,24.9-36.36,32.5-2.3,8-1.86,18.55,2.83,22.8,4.68,4.34,87.37,57.42,104.17,62.74,16.78,5.32,31.17-6.97,19.63-23.22-11.53-16.25-40.96-71.1-52.02-70.69Z" style="fill:#142d4d; fill-rule:evenodd;"/><path d="M512.89,616.71s330.13,43.73,335.48,85.23c12.53,97-170.73,351.89-170.73,351.89l-51.54-22.5,92.49-267.77s-147.47-14.57-160.64-23.77c-13.21-9.19-45.07-123.08-45.07-123.08Z" style="fill:#0f3970; fill-rule:evenodd;"/><path d="M387.63,1258.55l6.03,34.61,34.81-19.78s15.27-35.59,34.83-83.06c-18.19-4.49-36.81-7.85-55.55-11.28-11.09,46.26-20.12,79.5-20.12,79.5Z" style="fill:#f5b58b; fill-rule:evenodd;"/><path d="M429.48,1260.22s-18.93,5.42-25.07,4.26c-6.14-1.16-14.02-8.67-20.17-4.46-6.19,4.21-15.83,39.16-13.67,46.71,2.28,8.03,8.24,16.75,14.49,17.93,6.28,1.19,123.01-.04,140.08-4.41,17.08-4.38,12.59-21.99-5.78-29.63-18.38-7.73-80.76-36.65-89.89-30.4Z" style="fill:#142d4d; fill-rule:evenodd;"/><path d="M572.63,648.38l-31.1-40.67s-95.01,14.27-107.31,57.13c-12.31,42.85,7.54,313.47,7.54,313.47,0,0-36.95,185.32-53.05,252.57,18.75,3.43,44.92,8.8,63.13,13.3,33.87-82.17,103.58-260.98,103.58-260.98l30.11-246.34-12.91-88.48Z" style="fill:#0f3d86; fill-rule:evenodd;"/><path d="M873.9,144.48c-7.19,20.91-3.5,21.22-4.5,23.87-1.15,3.08-36.99,30.37-36.99,30.37,0,0-105,80.87-110.87,85.08l-131.88,32.57-4.46,69.88s142.63-39.24,149.77-42.62c7.12-3.29,136.96-128.96,148.76-139.68,0,0,18.58-7.69,30.08-12.88,11.5-5.19,20.29-15.26,23.31-17.22,.46-.28,10.16-7.37,19.96-19.29,8.41-10.27-4.15-4.28-4.15-4.28,0,0-18.87,16.27-19.88,14.65-.75-1.28,10.1-9.63,19.55-20.91,2.41-2.87,4.8-5.75,6.94-8.36,5.67-6.94,3.17-12.34-3.9-5.98-2.49,2.22-6.57,6.1-9.1,9.21-2.71,3.33-6.28,5.63-9.02,8.14-5.38,4.95-9.23,8.64-9.31,8.29-.1-.45-1.81-.18,.64-3.33,3.01-3.8,11.05-10.48,15.01-16.35,2.25-3.36,7.38-10.07,7.38-10.07,0,0,5.87-11.52,5.34-12.09-2.97-2.98-9.16,3.8-11.65,8.77-3.18,2.39-8.36,9.58-8.36,9.58,0,0-13.64,12.25-15.34,10.39-.75-.77,6.79-9.33,12.88-18.82,5.65-8.78,9.94-18.55,8.42-19.91-2.58-2.29-9.9,6.89-9.9,6.89,0,0-4.8,6.67-6.54,8.75-2.05,2.43-8.76,9.38-8.76,9.38,0,0-24.4,22.99-25.85,21.05-1.45-1.94-3.21-8.39-2.16-10.31,1.02-1.93,4.75-4.56,5.8-6.48,1.02-1.94,.75-5.32-1.46-6.72-2.22-1.4-10.77,6.16-10.77,6.16,0,0-6.88,6.15-8.97,12.23Z" style="fill:#f5b58b; fill-rule:evenodd;"/><path d="M660.69,294.78c-3.22-2.71-131.03,8.82-143.76,31.58-12.77,22.74,2.6,76.42,38.07,75.35,35.5-1.16,122.64-33.17,122.64-33.17,0,0-6.53-65.06-16.95-73.76Z" style="fill:#6998d0; fill-rule:evenodd;"/><path d="M570.56,302.17c1.17,.81,40.32,57.25,42.86,102.3,4.65,82.41-12.91,221.34-26.92,228.47-112.3,57.02-160.54,38.09-160.54,38.09,0,0,3.23-253.27,20.46-313.6,7.18-25.06,17.47-47.25,42.95-55.98,5.8-2.05,53.98-18.17,81.19,.72Z" style="fill:#6998d0; fill-rule:evenodd;"/><path d="M556.92,256.71l13.94,47.45s3.63,13.32-2.15,19.81c-9.92,11.3-61.46-27.38-61.46-27.38l-8.92-77.02,58.59,37.14Z" style="fill:#f5b58b; fill-rule:evenodd;"/><path d="M501.01,242.76c16.23,29,47.36,38.78,63.06,38.29l-7.15-24.34-58.59-37.14,2.67,23.2Z" style="fill:#ec724c; fill-rule:evenodd;"/><path d="M508.3,138.6c20.91-13.09,48.64-3.52,57.51,19.12,3.86,9.76,8.18,22.31,11.66,36.2,8.38,33.56-1.48,70.38-16.77,73.85-15.27,3.57-62.57-8.5-75.14-55.92-7.75-29.32,.78-59.52,22.74-73.26Z" style="fill:#f5b58b; fill-rule:evenodd;"/><path d="M497.69,213.02c1.74,7.45-1.83,14.57-7.89,16.02-6.07,1.37-12.38-3.51-14.12-10.97-1.69-7.38,1.83-14.58,7.91-15.94,6.05-1.46,12.36,3.43,14.1,10.89Z" style="fill:#f5b58b; fill-rule:evenodd;"/><path d="M483.59,202.13s-6.25-15.53-7.56-31.39c-1.27-15.77,7.7-39.95,22.93-46,15.2-6.05,53.11-6.65,56.09-17.53,2.97-10.89,3.15-9.91,4.5-11.73,3.08-4.25,27.82,6.58,31.51,33.12,3.73,26.52-19.68,29.79-24.04,31.31-4.38,1.62-48.62-8.4-61.02-5.35-12.42,2.96-22.41,47.58-22.41,47.58Z" style="fill:#0f3970; fill-rule:evenodd;"/><polygon points="387.23 749.32 375.32 1025.75 73.77 994 109.48 749.32 387.23 749.32" style="fill:#e3bb9b; fill-rule:evenodd;"/><path d="M425.59,991.69c-24.29,8.93-38.35,21.15-50.26,34.06l11.91-276.43,13.56-.34,24.8,242.7Z" style="fill:#9d7558; fill-rule:evenodd;"/><path d="M387.23,749.32l-35.07,110.89c-5.04,12.29-10.22,23.05-30.65,21.36l-193.52-12.27c-17.26-1.09-17.67-9.82-17.81-21.63v-98.35H387.23Z" style="fill:#9d7558; fill-rule:evenodd;"/><path d="M247.53,861.88l-49.22-3.18c-2.71-.17-5.42,1.72-5.83,4.42l-6.69,43.71c-.42,2.69,1.29,5.18,3.95,5.45l51.21,5.18c2.68,.27,5.55-1.69,5.83-4.42l4.71-45.71c.28-2.74-1.25-5.27-3.95-5.45Z" style="fill:#fff; fill-rule:evenodd;"/><polygon points="238.43 873.65 235.26 904.5 199.18 900.85 203.68 871.41 238.43 873.65" style="fill:#9d7558; fill-rule:evenodd;"/><path d="M329.38,749.32c-3.02-10.73-10.07-19.66-19.61-26.66-4.1-3.01-8.68-5.65-13.59-7.89-2.92-7.55-20.4-13.91-41.77-14.73-22.63-.87-41.39,4.8-43.24,12.8-1.43,.62-2.82,1.28-4.18,1.98-14.2,7.27-24.82,18.67-28.27,34.5h10.41c3.34-11.61,11.59-20.07,22.4-25.61,1.46-.75,2.96-1.44,4.51-2.09,7.1,5.07,21.03,8.85,37.18,9.47,16.91,.65,31.67-2.35,38.82-7.25,4.28,1.97,8.27,4.27,11.83,6.88,6.81,5,12.04,11.23,14.82,18.59h10.68Z" style="fill:#9d7558; fill-rule:evenodd;"/><path d="M291.18,703.46c-3.83-21.79-7.21-20.26-7.62-23.07-.49-3.26,17.65-44.49,17.65-44.49,0,0,52.71-121.6,55.81-128.12l99.61-92.36-29.93-63.31s-105.79,103.41-110.4,109.83c-4.63,6.33-57.38,179.15-62.51,194.25,0,0-12.53,15.72-20.08,25.82-7.55,10.11-10.36,23.19-12.06,26.36-.27,.47-5.33,11.37-8.12,26.54-2.39,13.06,5.69,1.74,5.69,1.74,0,0,8.64-23.37,10.3-22.45,1.28,.77-4.17,13.32-6.97,27.77-.72,3.68-1.41,7.36-2.02,10.66-1.6,8.83,3.19,12.34,6.31,3.35,1.11-3.15,2.79-8.51,3.51-12.47,.75-4.23,2.76-7.97,3.94-11.49,2.31-6.94,3.89-12.03,4.13-11.77,.3,.35,1.67-.72,1.04,3.23-.78,4.78-4.59,14.53-5.21,21.58-.34,4.02-1.58,12.38-1.58,12.38,0,0,.44,12.92,1.18,13.16,4.04,1.18,6.17-7.76,5.94-13.31,1.63-3.63,2.67-12.43,2.67-12.43,0,0,6.01-17.33,8.39-16.53,1.03,.31-1.42,11.46-2.16,22.7-.69,10.42,.28,21.04,2.28,21.5,3.37,.75,5.32-10.83,5.32-10.83,0,0,.97-8.16,1.48-10.82,.62-3.13,3.12-12.45,3.12-12.45,0,0,10.22-31.92,12.43-30.93,2.21,.99,6.86,5.78,6.88,7.97,.05,2.19-1.95,6.29-1.93,8.48,.05,2.19,1.92,5.01,4.54,5.16,2.61,.15,6.43-10.61,6.43-10.61,0,0,3.04-8.71,1.93-15.03Z" style="fill:#f5b58b; fill-rule:evenodd;"/><path d="M373.73,397.53c-10.21-14.41,49.72-55.63,97.64-85.89,24.91,7.69,30.33,93.56,3.88,117.21-44.34,17.31-63.01,33.83-63.01,33.83,0,0-40.07-51.67-38.5-65.15Z" style="fill:#6998d0; fill-rule:evenodd;"/><path d="M1363.5,688.78h177.8v690.06c-51.38,38.51-111.41,70.67-177.8,96.23V688.78h0ZM347.47,1440.17c54.93,24.95,114.6,45.2,177.81,61.07v-176.39h-177.81v115.32h0Zm254.01,77.81c57.3,10.91,116.84,18.67,177.81,23.49v-375.64h-177.81v352.15h0Zm254.01,27.96c27.67,1.1,55.55,1.66,83.56,1.66,31.77,0,63.22-1.08,94.25-3.18V1006.82h-177.81v539.12h0Zm254.01-8.89c61.95-7.83,121.62-19.97,177.8-36.35V847.8h-177.8v689.25Z" style="fill:#bcc9e7; fill-rule:evenodd;"/><path d="M347.47,1324.85l-28.86,17.17v84.43c9.45,4.74,19.09,9.29,28.86,13.72v-115.32Z" style="fill:#fff; fill-rule:evenodd;"/><path d="M601.47,1165.83l-28.86,17.18v329.16c9.56,2.02,19.17,3.97,28.86,5.81v-352.15Z" style="fill:#fff; fill-rule:evenodd;"/><path d="M855.48,1006.82l-28.86,17.18v520.62c9.59,.51,19.22,.95,28.86,1.33V1006.82Z" style="fill:#fff; fill-rule:evenodd;"/><path d="M1109.49,847.8l-28.87,17.17v675.39c9.68-1,19.29-2.11,28.87-3.32V847.8Z" style="fill:#fff; fill-rule:evenodd;"/><path d="M1363.5,688.78l-28.87,17.17v779.63c9.74-3.38,19.38-6.87,28.87-10.52V688.78Z" style="fill:#fff; fill-rule:evenodd;"/><path d="M1439.99,688.78h16.17V288.95c2.18-2.11,3.53-5.07,3.53-8.35,0-6.42-5.19-11.62-11.62-11.62s-11.62,5.2-11.62,11.62c0,3.28,1.36,6.24,3.54,8.35v399.82Z" style="fill:#bcc9e7; fill-rule:evenodd;"/><polygon points="1456.15 293.99 1649.62 408.16 1456.15 495.06 1456.15 293.99" style="fill:#8d9fca; fill-rule:evenodd;"/><polygon points="1456.15 293.99 1649.62 408.16 1467.27 471.82 1456.15 293.99" style="fill:#bcc9e7; fill-rule:evenodd;"/><polygon points="1584.56 0 1363.27 90.71 1424.03 168.32 1584.56 0" style="fill:#d0d9ee; fill-rule:evenodd;"/><polygon points="1332.06 54.14 1577.79 .49 1271.89 22.84 1332.06 54.14" style="fill:#d0d9ee; fill-rule:evenodd;"/><polygon points="1332.06 54.14 1337.8 156.02 1363.27 90.71 1584.56 0 1577.79 .49 1332.06 54.14" style="fill:#aab9de; fill-rule:evenodd;"/><polygon points="1337.8 156.02 1390.19 125.1 1363.27 90.71 1337.8 156.02" style="fill:#8d9fca; fill-rule:evenodd;"/><path d="M1280.91,148.48c7.2-.9,5.57-11.39-1.1-10.56l-10.59,1.15c-7.1,.89-5.6,11.39,1.19,10.54l10.51-1.14h0Zm-362.8,421.87c-4.71,0-7.04,5.77-3.84,8.97,.78,.94,2.37,1.65,3.84,1.65l6.86-.03c6.87,0,7.02-10.62-.11-10.62l-6.75,.03h0Zm38.33-.96c-6.25,0-7.15,10.6,.6,10.6l10.69-.67c7.6-.95,5.51-11.38-.79-10.59l-10.5,.66h0Zm41.75-3.97c-6.59,.83-5.69,11.41,1.59,10.5l-1.59-10.5h0Zm40.55-8.94c-6.35,2.38-3.81,11.87,3.31,10.09,3.49-1.11,6.91-2.33,10.32-3.66,6.48-2.78,2.62-12.32-3.94-9.86-3.17,1.27-6.43,2.39-9.68,3.43h0Zm36-18.12c-5.53,4.6,1.45,12.6,6.67,8.25,3-2.46,5.77-5.01,8.36-7.89,4.72-5.66-3.72-12.11-7.96-7.03-2.19,2.43-4.56,4.57-7.07,6.66h0Zm19.86-32.18c-.95,7.56,9.67,8.14,10.46,1.81,.69-3.8,1.1-7.46,1.24-11.32,0-7.31-10.62-6.93-10.62-.25-.1,3.31-.49,6.5-1.09,9.76h0Zm-2.85-39.68c1.61,6.46,12.01,4.28,10.23-2.81-.93-3.48-1.96-7.07-3.14-10.46-2.61-6.95-12.36-2.75-10.06,3.4,1.1,3.23,2.08,6.56,2.96,9.86h0Zm-14.64-38.88c2.62,6.12,12.53,2.31,9.64-4.43-1.49-3.24-3.02-6.51-4.6-9.71-3.89-6.8-12.59-.68-9.53,4.67,1.54,3.13,3.04,6.31,4.5,9.47h0Zm-18.94-37.65c3.68,6.44,12.64,.74,9.38-4.97l-4.98-9.38c-3.67-6.42-12.64-.74-9.37,4.98,1.71,3.04,3.36,6.27,4.98,9.37h0Zm-19.78-37.71c3.84,6.71,12.6,.69,9.5-4.74l-4.64-9.44c-3.62-6.34-12.27-1.72-9.58,4.57l4.72,9.61h0Zm-17.22-39.62c2.38,6.35,11.86,3.81,10.09-3.3-1.08-3.28-2.04-6.48-2.91-9.82-1.69-6.76-12-4.22-10.29,2.6,.92,3.57,1.96,7.02,3.12,10.53h0Zm-5.33-44.06c-.86,6.94,9.67,8.25,10.53,1.32,.39-3.28,1-6.57,1.8-9.77,1.72-6.87-8.6-9.33-10.28-2.63-.91,3.66-1.61,7.34-2.05,11.09h0Zm16.32-41.56c-4.15,5.8,4.58,11.84,8.57,6.26,1.97-2.74,4.04-5.33,6.28-7.84,4.82-5.78-3.73-12.08-7.87-7.12-2.48,2.71-4.84,5.73-6.99,8.7h0Zm32.04-30.25c-5.48,3.91-.49,12.47,5.93,8.8,2.86-1.93,5.75-3.76,8.71-5.52,5.89-3.36,.84-12.71-5.42-9.13-3.13,1.86-6.19,3.8-9.22,5.84h0Zm38.36-20.37c-6.53,2.8-2.23,12.5,4.1,9.79,3.21-1.36,6.44-2.63,9.69-3.87,6.49-2.43,2.84-12.4-3.77-9.92-3.36,1.28-6.71,2.6-10.02,4h0Zm40.67-14.15c-6.36,1.6-4.3,12.01,2.91,10.21l10.12-2.8c6.62-1.65,4.25-12-2.69-10.26l-10.35,2.85h0Zm41.62-10.17c-7.33,1.83-4.11,11.95,2.13,10.39l10.34-2.05c6.75-1.69,5.16-11.32-1.99-10.43l-10.48,2.09h0Zm42.07-7.47c-6.6,.83-5.68,11.4,1.58,10.49l10.45-1.52c6.7-.84,5.68-11.41-1.48-10.51l-10.55,1.54Z" style="fill:#8d9fca; fill-rule:evenodd;"/></svg>