<?xml version="1.0" encoding="UTF-8"?><svg id="a" xmlns="http://www.w3.org/2000/svg" viewBox="0 0 2212.92 1507.86"><path d="M1102.58,283.39c204.07,0,290.07,146.06,437.45,259.59,194.99,150.27,390.04,52.45,421.25,560.16,27.79,451.81-318.98,48.86-807.99,210.73-488.95,161.86-986.98,227.05-839.21-296.6C461.85,493.55,628.25,283.39,1102.58,283.39Z" style="fill:#e0e8f5; fill-rule:evenodd;"/><polygon points="541.99 302.95 519.47 288.13 519.47 287.77 461.05 329.75 480.55 259.35 425.1 215.76 495.49 211.68 519.66 142.77 537.05 191.89 543.9 210.62 614.09 211.58 559.63 256.69 558.51 257.61 558.51 257.64 577.55 326.06 577.94 326.62 577.68 326.42 577.81 327.15 541.99 302.95" style="fill:#9db2d9; fill-rule:evenodd;"/><path d="M495.56,211.78l24.1-68.72,23.97,67.66,70.2,.95-55.45,45.9,19.29,69.34-58.21-39.28-58.28,41.85,19.43-70.2-55.25-43.43,70.2-4.08h0Zm48.2-1.28l-24.1-68.06-24.3,69.14-70.26,4.08h-.26l55.58,43.73-19.56,70.59,58.67-42.11,58.48,39.51-19.36-69.74,55.71-46.16-70.59-.99h0Z" style="fill:#fbd526; fill-rule:evenodd;"/><polygon points="425.3 215.93 495.69 212.04 518.02 241.51 425.3 215.93" style="fill:#c4d1eb; fill-rule:evenodd;"/><polygon points="519.53 143.82 543.96 210.86 518.02 241.51 519.53 143.82" style="fill:#c4d1eb; fill-rule:evenodd;"/><polygon points="518.02 241.51 558.51 257.61 613.17 211.84 518.02 241.51" style="fill:#c4d1eb; fill-rule:evenodd;"/><polygon points="518.02 241.51 577.94 326.62 519.47 288.13 518.02 241.51" style="fill:#c4d1eb; fill-rule:evenodd;"/><polygon points="518.02 241.51 461.58 328.93 480.74 259.16 518.02 241.51" style="fill:#c4d1eb; fill-rule:evenodd;"/><polygon points="1897.53 465.27 1874.94 450.45 1874.94 450.09 1816.53 492.04 1836.03 421.68 1780.58 378.08 1850.97 374 1875.14 305.09 1892.59 354.21 1899.37 372.95 1969.57 373.9 1915.18 419.01 1914.06 419.97 1913.99 419.97 1933.03 488.38 1933.49 488.94 1933.16 488.75 1933.35 489.47 1897.53 465.27" style="fill:#9db2d9; fill-rule:evenodd;"/><path d="M1851.04,374.07l24.17-68.68,23.9,67.66,70.2,.99-55.38,45.87,19.23,69.34-58.15-39.28-58.28,41.85,19.43-70.16-55.31-43.46,70.2-4.12h0Zm48.2-1.25l-24.1-68.06-24.23,69.14-70.33,4.08h-.26l55.58,43.72-19.56,70.59,58.67-42.08,58.54,39.51-19.43-69.74,55.78-46.19-70.66-.99h0Z" style="fill:#fbd526; fill-rule:evenodd;"/><polygon points="1780.78 378.25 1851.24 374.36 1873.5 403.83 1780.78 378.25" style="fill:#c4d1eb; fill-rule:evenodd;"/><polygon points="1875.08 306.14 1899.44 373.18 1873.5 403.83 1875.08 306.14" style="fill:#c4d1eb; fill-rule:evenodd;"/><polygon points="1873.5 403.83 1914.06 419.97 1968.72 374.2 1873.5 403.83" style="fill:#c4d1eb; fill-rule:evenodd;"/><polygon points="1873.5 403.83 1933.49 488.94 1874.94 450.45 1873.5 403.83" style="fill:#c4d1eb; fill-rule:evenodd;"/><polygon points="1873.5 403.83 1817.13 491.25 1836.22 421.51 1873.5 403.83" style="fill:#c4d1eb; fill-rule:evenodd;"/><path d="M1201.95,0c-293.5,0-531.42,237.95-531.42,531.45s237.92,531.38,531.42,531.38,531.42-237.85,531.42-531.38S1495.38,0,1201.95,0Z" style="fill:#9db2d9; fill-rule:evenodd;"/><path d="M1201.95,41.42c-270.65,0-490.06,219.38-490.06,490.03s219.42,490.03,490.06,490.03,490-219.42,490-490.03S1472.53,41.42,1201.95,41.42Z" style="fill:#e0e8f5; fill-rule:evenodd;"/><path d="M1204.05,78.23c-21.47,0-38.85,17.38-38.85,38.85s17.38,38.85,38.85,38.85,38.85-17.38,38.85-38.85-17.45-38.85-38.85-38.85h0Zm207.17,55.51c-21.47,0-38.85,17.38-38.85,38.85s17.38,38.85,38.85,38.85,38.85-17.42,38.85-38.85-17.38-38.85-38.85-38.85h0Zm151.66,151.65c-21.47,0-38.85,17.42-38.85,38.89s17.38,38.82,38.85,38.82,38.85-17.38,38.85-38.82-17.38-38.89-38.85-38.89h0Zm51.3,208.09c-21.47,0-38.85,17.38-38.85,38.85s17.38,38.82,38.85,38.82,38.85-17.38,38.85-38.82-17.38-38.85-38.85-38.85h0Zm-51.3,206.31c-21.47,0-38.85,17.35-38.85,38.82s17.38,38.85,38.85,38.85,38.85-17.38,38.85-38.85-17.38-38.82-38.85-38.82h0Zm-151.66,151.65c-21.47,0-38.85,17.38-38.85,38.85s17.38,38.85,38.85,38.85,38.85-17.38,38.85-38.85-17.38-38.85-38.85-38.85h0Zm-414.4,0c-21.4,0-38.85,17.38-38.85,38.85s17.45,38.85,38.85,38.85,38.85-17.38,38.85-38.85-17.38-38.85-38.85-38.85h0Zm-151.65-151.65c-21.47,0-38.85,17.35-38.85,38.82s17.38,38.85,38.85,38.85,38.85-17.38,38.85-38.85-17.38-38.82-38.85-38.82h0Zm-55.51-207.2c-21.47,0-38.85,17.38-38.85,38.85s17.38,38.85,38.85,38.85,38.85-17.42,38.85-38.85-17.38-38.85-38.85-38.85h0Zm55.51-207.2c-21.47,0-38.85,17.42-38.85,38.89s17.38,38.82,38.85,38.82,38.85-17.38,38.85-38.82-17.38-38.89-38.85-38.89h0Zm151.65-151.65c-21.4,0-38.85,17.38-38.85,38.85s17.45,38.85,38.85,38.85,38.85-17.42,38.85-38.85-17.38-38.85-38.85-38.85h0Zm207.23,773.22c-21.47,0-38.85,17.45-38.85,38.85s17.38,38.79,38.85,38.79,38.85-17.32,38.85-38.79-17.45-38.85-38.85-38.85Z" style="fill:#b0c2e4; fill-rule:evenodd;"/><path d="M1176.59,503.13c-49.52-68.85-41.09-165.55,25.35-290.11,66.38,124.56,74.81,221.26,25.29,290.11-6.72-6.03-15.61-9.68-25.29-9.68s-18.64,3.65-25.35,9.68Z" style="fill:#b0c2e4; fill-rule:evenodd;"/><path d="M1168.43,549.3c-82.45,35.39-197.75,29.01-345.92-19.16,148.96-47.12,264.33-52.75,346.05-16.86-2.96,5.4-4.61,11.59-4.61,18.18s1.58,12.54,4.48,17.85Z" style="fill:#b0c2e4; fill-rule:evenodd;"/><path d="M1201.95,493.46c-21.01,0-38,17.02-38,38s16.99,37.96,38,37.96,37.93-16.99,37.93-37.96-16.99-38-37.93-38Z" style="fill:#9db2d9; fill-rule:evenodd;"/><path d="M517.49,295.18c.2-.69,.79-1.25,1.45-1.45,.72-.16,1.51,.07,2.04,.63,.33,.33,34.24,35.79,96.6,81.92,57.55,42.51,151.79,103.06,273.88,149.88,104.7,40.23,240.22,73.85,400.24,73.85,169.11,0,365.6-37.57,582.39-144.64,.99-.53,2.24-.1,2.77,.92,.46,1.02,.07,2.27-.92,2.8-186.89,92.29-374.5,141.25-557.76,145.47-146.65,3.36-290.73-21.73-428.36-74.58-122.48-47.02-217.05-107.8-274.8-150.5-53.21-39.28-85.8-70.95-94.63-79.78l-2.9-4.51Z" style="fill:#859ac6; fill-rule:evenodd;"/><path d="M645.64,411.6c0,14.98-12.18,27.13-27.13,27.13s-27.13-12.15-27.13-27.13,12.12-27.13,27.13-27.13,27.13,12.15,27.13,27.13Z" style="fill:#b0c2e4; fill-rule:evenodd;"/><path d="M640.89,408.31c0,11.33-9.15,20.51-20.48,20.51s-20.55-9.19-20.55-20.51,9.15-20.55,20.55-20.55,20.48,9.19,20.48,20.55Z" style="fill:#c4d1eb; fill-rule:evenodd;"/><path d="M636.48,410.94c-1.91,1.58-5.66,.16-8.36-3.09-2.7-3.29-3.29-7.21-1.38-8.76,1.98-1.58,5.66-.2,8.36,3.1,2.63,3.29,3.29,7.21,1.38,8.76Z" style="fill:#fff; fill-rule:evenodd;"/><path d="M626.47,376.87h-15.94c-2.77,0-5,2.17-5,4.87v6.68c0,3.98,1.91,7.18,4.35,7.18s4.28-3.19,4.28-7.18c0,3.98,1.91,7.18,4.35,7.18s4.28-3.19,4.28-7.18c0,3.98,1.98,7.18,4.35,7.18s4.35-3.19,4.35-7.18v-6.68c0-2.7-2.3-4.87-5-4.87Z" style="fill:#859ac6; fill-rule:evenodd;"/><path d="M803.15,513.34c0,14.98-12.12,27.13-27.13,27.13s-27.13-12.15-27.13-27.13,12.18-27.16,27.13-27.16,27.13,12.18,27.13,27.16Z" style="fill:#b0c2e4; fill-rule:evenodd;"/><path d="M798.48,510.02c0,11.33-9.22,20.55-20.55,20.55s-20.55-9.22-20.55-20.55,9.22-20.51,20.55-20.51,20.55,9.19,20.55,20.51Z" style="fill:#c4d1eb; fill-rule:evenodd;"/><path d="M794,512.68c-1.91,1.55-5.66,.2-8.3-3.1-2.7-3.29-3.29-7.21-1.38-8.79,1.91-1.55,5.6-.16,8.3,3.09,2.7,3.29,3.29,7.21,1.38,8.79Z" style="fill:#fff; fill-rule:evenodd;"/><path d="M783.99,478.57h-15.94c-2.77,0-5,2.17-5,4.91v6.68c0,3.95,1.98,7.14,4.35,7.14s4.35-3.19,4.35-7.14c0,3.95,1.91,7.14,4.28,7.14s4.35-3.19,4.35-7.14c0,3.95,1.91,7.14,4.28,7.14s4.35-3.19,4.35-7.14v-6.68c0-2.73-2.24-4.91-5-4.91Z" style="fill:#859ac6; fill-rule:evenodd;"/><path d="M969.23,580.77c0,14.98-12.18,27.16-27.2,27.16s-27.13-12.18-27.13-27.16,12.18-27.13,27.13-27.13,27.2,12.15,27.2,27.13Z" style="fill:#b0c2e4; fill-rule:evenodd;"/><path d="M964.49,577.48c0,11.33-9.22,20.51-20.55,20.51s-20.55-9.19-20.55-20.51,9.22-20.55,20.55-20.55,20.55,9.22,20.55,20.55Z" style="fill:#c4d1eb; fill-rule:evenodd;"/><path d="M960.01,580.15c-1.91,1.55-5.6,.16-8.3-3.1-2.7-3.29-3.29-7.21-1.38-8.82,1.91-1.55,5.66-.16,8.3,3.13,2.7,3.26,3.36,7.21,1.38,8.79Z" style="fill:#fff; fill-rule:evenodd;"/><path d="M950,546.04h-15.87c-2.77,0-5,2.17-5,4.87v6.72c0,3.95,1.91,7.14,4.28,7.14s4.35-3.19,4.35-7.14c0,3.95,1.91,7.14,4.28,7.14s4.35-3.19,4.35-7.14c0,3.95,1.91,7.14,4.35,7.14s4.28-3.19,4.28-7.14v-6.72c0-2.7-2.24-4.87-5-4.87Z" style="fill:#859ac6; fill-rule:evenodd;"/><path d="M1135.24,620.68c0,14.98-12.12,27.13-27.13,27.13s-27.13-12.15-27.13-27.13,12.12-27.16,27.13-27.16,27.13,12.18,27.13,27.16Z" style="fill:#b0c2e4; fill-rule:evenodd;"/><path d="M1130.5,617.35c0,11.36-9.15,20.55-20.54,20.55s-20.48-9.19-20.48-20.55,9.15-20.51,20.48-20.51,20.54,9.19,20.54,20.51Z" style="fill:#c4d1eb; fill-rule:evenodd;"/><path d="M1126.09,620.02c-1.91,1.58-5.66,.2-8.36-3.09-2.63-3.29-3.29-7.21-1.38-8.76,1.91-1.58,5.66-.2,8.36,3.1,2.63,3.29,3.29,7.21,1.38,8.76Z" style="fill:#fff; fill-rule:evenodd;"/><path d="M1116.08,585.91h-15.94c-2.77,0-5,2.21-5,4.91v6.68c0,3.98,1.91,7.15,4.35,7.15s4.28-3.16,4.28-7.15c0,3.98,1.98,7.15,4.35,7.15s4.28-3.16,4.28-7.15c0,3.98,1.98,7.15,4.35,7.15s4.35-3.16,4.35-7.15v-6.68c0-2.7-2.24-4.91-5-4.91Z" style="fill:#859ac6; fill-rule:evenodd;"/><path d="M1299.14,635.03c0,15.01-12.18,27.16-27.13,27.16s-27.13-12.15-27.13-27.16,12.12-27.1,27.13-27.1,27.13,12.12,27.13,27.1Z" style="fill:#b0c2e4; fill-rule:evenodd;"/><path d="M1294.4,631.77c0,11.33-9.15,20.51-20.48,20.51s-20.54-9.19-20.54-20.51,9.15-20.55,20.54-20.55,20.48,9.19,20.48,20.55Z" style="fill:#c4d1eb; fill-rule:evenodd;"/><path d="M1289.99,634.41c-1.98,1.58-5.66,.2-8.36-3.1-2.7-3.29-3.29-7.21-1.38-8.79,1.98-1.55,5.66-.16,8.36,3.13,2.63,3.26,3.29,7.21,1.38,8.76Z" style="fill:#fff; fill-rule:evenodd;"/><path d="M1279.98,600.3h-15.94c-2.77,0-5,2.21-5,4.91v6.72c0,3.92,1.98,7.15,4.35,7.15s4.28-3.23,4.28-7.15c0,3.92,1.91,7.15,4.35,7.15s4.28-3.23,4.28-7.15c0,3.92,1.98,7.15,4.35,7.15s4.35-3.23,4.35-7.15v-6.72c0-2.7-2.24-4.91-5-4.91Z" style="fill:#859ac6; fill-rule:evenodd;"/><path d="M1463.05,626.24c0,14.98-12.18,27.13-27.13,27.13s-27.13-12.15-27.13-27.13,12.12-27.16,27.13-27.16,27.13,12.18,27.13,27.16Z" style="fill:#b0c2e4; fill-rule:evenodd;"/><path d="M1458.3,622.92c0,11.36-9.22,20.55-20.54,20.55s-20.55-9.19-20.55-20.55,9.22-20.51,20.55-20.51,20.54,9.19,20.54,20.51Z" style="fill:#c4d1eb; fill-rule:evenodd;"/><path d="M1453.83,625.59c-1.91,1.58-5.6,.16-8.3-3.09-2.63-3.29-3.29-7.21-1.38-8.76,1.91-1.58,5.66-.2,8.36,3.09,2.63,3.26,3.29,7.21,1.32,8.76Z" style="fill:#fff; fill-rule:evenodd;"/><path d="M1443.82,591.47h-15.87c-2.77,0-5,2.21-5,4.87v6.72c0,3.95,1.91,7.14,4.28,7.14s4.35-3.19,4.35-7.14c0,3.95,1.91,7.14,4.35,7.14s4.28-3.19,4.28-7.14c0,3.95,1.91,7.14,4.35,7.14s4.28-3.19,4.28-7.14v-6.72c0-2.67-2.24-4.87-5-4.87Z" style="fill:#859ac6; fill-rule:evenodd;"/><path d="M1626.95,594.77c0,15.01-12.18,27.16-27.13,27.16s-27.2-12.15-27.2-27.16,12.18-27.13,27.2-27.13,27.13,12.15,27.13,27.13Z" style="fill:#b0c2e4; fill-rule:evenodd;"/><path d="M1622.21,591.47c0,11.36-9.22,20.55-20.55,20.55s-20.48-9.19-20.48-20.55,9.15-20.55,20.48-20.55,20.55,9.22,20.55,20.55Z" style="fill:#c4d1eb; fill-rule:evenodd;"/><path d="M1617.73,594.14c-1.91,1.58-5.6,.16-8.3-3.1-2.7-3.29-3.29-7.21-1.38-8.79,1.91-1.55,5.66-.16,8.36,3.13,2.63,3.26,3.29,7.21,1.32,8.76Z" style="fill:#fff; fill-rule:evenodd;"/><path d="M1607.72,560.03h-15.87c-2.77,0-5,2.21-5,4.91v6.68c0,3.95,1.91,7.15,4.28,7.15s4.35-3.19,4.35-7.15c0,3.95,1.91,7.15,4.35,7.15s4.28-3.19,4.28-7.15c0,3.95,1.91,7.15,4.35,7.15s4.28-3.19,4.28-7.15v-6.68c0-2.7-2.24-4.91-5-4.91Z" style="fill:#859ac6; fill-rule:evenodd;"/><path d="M1790.85,541.23c0,14.98-12.18,27.13-27.2,27.13s-27.13-12.15-27.13-27.13,12.18-27.13,27.13-27.13,27.2,12.15,27.2,27.13Z" style="fill:#b0c2e4; fill-rule:evenodd;"/><path d="M1786.11,537.94c0,11.33-9.22,20.51-20.54,20.51s-20.55-9.19-20.55-20.51,9.22-20.55,20.55-20.55,20.54,9.19,20.54,20.55Z" style="fill:#c4d1eb; fill-rule:evenodd;"/><path d="M1781.63,540.57c-1.91,1.58-5.6,.2-8.3-3.09-2.7-3.26-3.29-7.21-1.38-8.79,1.91-1.55,5.66-.16,8.3,3.13,2.7,3.26,3.29,7.21,1.38,8.76Z" style="fill:#fff; fill-rule:evenodd;"/><path d="M1771.62,506.46h-15.87c-2.77,0-5,2.21-5,4.91v6.72c0,3.92,1.91,7.14,4.28,7.14s4.35-3.23,4.35-7.14c0,3.92,1.91,7.14,4.28,7.14s4.35-3.23,4.35-7.14c0,3.92,1.91,7.14,4.35,7.14s4.28-3.23,4.28-7.14v-6.72c0-2.7-2.24-4.91-5-4.91Z" style="fill:#859ac6; fill-rule:evenodd;"/><path d="M720.11,465.14c0,14.98-12.12,27.13-27.06,27.13s-27.2-12.15-27.2-27.13,12.18-27.13,27.2-27.13,27.06,12.12,27.06,27.13Z" style="fill:#b0c2e4; fill-rule:evenodd;"/><path d="M715.44,461.85c0,11.33-9.22,20.51-20.55,20.51s-20.55-9.19-20.55-20.51,9.22-20.55,20.55-20.55,20.55,9.19,20.55,20.55Z" style="fill:#c4d1eb; fill-rule:evenodd;"/><path d="M710.96,464.48c-1.91,1.58-5.6,.2-8.3-3.1-2.7-3.29-3.29-7.21-1.38-8.76,1.91-1.58,5.66-.2,8.3,3.09,2.7,3.26,3.29,7.21,1.38,8.76Z" style="fill:#fff; fill-rule:evenodd;"/><path d="M700.95,430.4h-15.87c-2.77,0-5,2.17-5,4.87v6.72c0,3.92,1.91,7.14,4.28,7.14s4.35-3.23,4.35-7.14c0,3.92,1.91,7.14,4.35,7.14s4.28-3.23,4.28-7.14c0,3.92,1.98,7.14,4.35,7.14s4.28-3.23,4.28-7.14v-6.72c0-2.7-2.24-4.87-5-4.87Z" style="fill:#859ac6; fill-rule:evenodd;"/><path d="M886.19,547.06c0,14.98-12.18,27.13-27.13,27.13s-27.13-12.15-27.13-27.13,12.12-27.16,27.13-27.16,27.13,12.18,27.13,27.16Z" style="fill:#b0c2e4; fill-rule:evenodd;"/><path d="M881.45,543.77c0,11.33-9.15,20.51-20.48,20.51s-20.55-9.19-20.55-20.51,9.15-20.55,20.55-20.55,20.48,9.19,20.48,20.55Z" style="fill:#c4d1eb; fill-rule:evenodd;"/><path d="M877.04,546.43c-1.91,1.55-5.66,.16-8.36-3.13-2.63-3.26-3.29-7.21-1.38-8.79,1.91-1.55,5.66-.16,8.36,3.09,2.63,3.29,3.29,7.24,1.38,8.82Z" style="fill:#fff; fill-rule:evenodd;"/><path d="M867.03,512.29h-15.94c-2.77,0-5,2.21-5,4.91v6.72c0,3.92,1.91,7.11,4.35,7.11s4.28-3.19,4.28-7.11c0,3.92,1.98,7.11,4.35,7.11s4.28-3.19,4.28-7.11c0,3.92,1.98,7.11,4.35,7.11s4.35-3.19,4.35-7.11v-6.72c0-2.7-2.24-4.91-5-4.91Z" style="fill:#859ac6; fill-rule:evenodd;"/><path d="M1052.27,604.12c0,14.98-12.18,27.13-27.2,27.13s-27.13-12.15-27.13-27.13,12.18-27.13,27.13-27.13,27.2,12.15,27.2,27.13Z" style="fill:#b0c2e4; fill-rule:evenodd;"/><path d="M1047.53,600.83c0,11.33-9.22,20.51-20.55,20.51s-20.55-9.19-20.55-20.51,9.22-20.55,20.55-20.55,20.55,9.19,20.55,20.55Z" style="fill:#c4d1eb; fill-rule:evenodd;"/><path d="M1043.05,603.46c-1.91,1.58-5.66,.2-8.3-3.09-2.7-3.26-3.36-7.21-1.38-8.79,1.91-1.55,5.6-.16,8.3,3.13,2.7,3.26,3.29,7.21,1.38,8.76Z" style="fill:#fff; fill-rule:evenodd;"/><path d="M1033.04,569.35h-15.94c-2.7,0-5,2.21-5,4.91v6.72c0,3.92,1.98,7.15,4.35,7.15s4.28-3.23,4.28-7.15c0,3.92,1.98,7.15,4.35,7.15s4.35-3.23,4.35-7.15c0,3.92,1.91,7.15,4.28,7.15s4.35-3.23,4.35-7.15v-6.72c0-2.7-2.24-4.91-5-4.91Z" style="fill:#859ac6; fill-rule:evenodd;"/><path d="M1217.22,630.03c0,15.01-12.18,27.16-27.2,27.16s-27.13-12.15-27.13-27.16,12.18-27.13,27.13-27.13,27.2,12.15,27.2,27.13Z" style="fill:#b0c2e4; fill-rule:evenodd;"/><path d="M1212.48,626.74c0,11.33-9.22,20.55-20.55,20.55s-20.54-9.22-20.54-20.55,9.22-20.51,20.54-20.51,20.55,9.19,20.55,20.51Z" style="fill:#c4d1eb; fill-rule:evenodd;"/><path d="M1208,629.4c-1.91,1.55-5.66,.16-8.3-3.09-2.7-3.29-3.29-7.21-1.38-8.79,1.91-1.58,5.6-.2,8.3,3.09,2.7,3.29,3.29,7.21,1.38,8.79Z" style="fill:#fff; fill-rule:evenodd;"/><path d="M1198,595.29h-15.87c-2.77,0-5,2.17-5,4.91v6.68c0,3.95,1.91,7.14,4.28,7.14s4.35-3.19,4.35-7.14c0,3.95,1.91,7.14,4.28,7.14s4.35-3.19,4.35-7.14c0,3.95,1.91,7.14,4.35,7.14s4.28-3.19,4.28-7.14v-6.68c0-2.73-2.24-4.91-5-4.91Z" style="fill:#859ac6; fill-rule:evenodd;"/><path d="M1381.06,634.54c0,15.01-12.12,27.16-27.13,27.16s-27.13-12.15-27.13-27.16,12.18-27.13,27.13-27.13,27.13,12.15,27.13,27.13Z" style="fill:#b0c2e4; fill-rule:evenodd;"/><path d="M1376.39,631.25c0,11.36-9.22,20.55-20.55,20.55s-20.55-9.19-20.55-20.55,9.22-20.55,20.55-20.55,20.55,9.22,20.55,20.55Z" style="fill:#c4d1eb; fill-rule:evenodd;"/><path d="M1371.91,633.91c-1.91,1.55-5.66,.2-8.36-3.09-2.63-3.29-3.23-7.21-1.32-8.79,1.91-1.58,5.6-.16,8.3,3.09,2.7,3.29,3.29,7.24,1.38,8.79Z" style="fill:#fff; fill-rule:evenodd;"/><path d="M1361.9,599.8h-15.94c-2.7,0-4.94,2.21-4.94,4.91v6.68c0,3.95,1.91,7.15,4.28,7.15s4.35-3.19,4.35-7.15c0,3.95,1.91,7.15,4.28,7.15s4.35-3.19,4.35-7.15c0,3.95,1.91,7.15,4.35,7.15s4.28-3.19,4.28-7.15v-6.68c0-2.7-2.24-4.91-5-4.91Z" style="fill:#859ac6; fill-rule:evenodd;"/><path d="M1544.96,613.53c0,14.98-12.12,27.13-27.13,27.13s-27.13-12.15-27.13-27.13,12.12-27.16,27.13-27.16,27.13,12.18,27.13,27.16Z" style="fill:#b0c2e4; fill-rule:evenodd;"/><path d="M1540.29,610.21c0,11.36-9.22,20.55-20.55,20.55s-20.55-9.19-20.55-20.55,9.22-20.51,20.55-20.51,20.55,9.19,20.55,20.51Z" style="fill:#c4d1eb; fill-rule:evenodd;"/><path d="M1535.81,612.88c-1.91,1.58-5.66,.16-8.36-3.1-2.63-3.29-3.29-7.21-1.32-8.76,1.91-1.58,5.6-.2,8.3,3.1,2.7,3.26,3.29,7.21,1.38,8.76Z" style="fill:#fff; fill-rule:evenodd;"/><path d="M1525.8,578.77h-15.94c-2.77,0-5,2.21-5,4.87v6.72c0,3.95,1.98,7.14,4.35,7.14s4.35-3.19,4.35-7.14c0,3.95,1.91,7.14,4.28,7.14s4.35-3.19,4.35-7.14c0,3.95,1.91,7.14,4.28,7.14s4.35-3.19,4.35-7.14v-6.72c0-2.67-2.24-4.87-5-4.87Z" style="fill:#859ac6; fill-rule:evenodd;"/><path d="M1708.87,569.38c0,15.01-12.12,27.16-27.13,27.16s-27.13-12.15-27.13-27.16,12.12-27.13,27.13-27.13,27.13,12.15,27.13,27.13Z" style="fill:#b0c2e4; fill-rule:evenodd;"/><path d="M1704.19,566.09c0,11.36-9.22,20.55-20.61,20.55s-20.48-9.19-20.48-20.55,9.22-20.55,20.48-20.55,20.61,9.22,20.61,20.55Z" style="fill:#c4d1eb; fill-rule:evenodd;"/><path d="M1699.71,568.76c-1.91,1.58-5.66,.16-8.36-3.09-2.63-3.29-3.29-7.21-1.38-8.79,1.98-1.58,5.66-.16,8.36,3.09,2.7,3.29,3.29,7.24,1.38,8.79Z" style="fill:#fff; fill-rule:evenodd;"/><path d="M1689.7,534.64h-15.94c-2.77,0-5,2.21-5,4.91v6.68c0,3.95,1.97,7.14,4.35,7.14s4.35-3.19,4.35-7.14c0,3.95,1.91,7.14,4.28,7.14s4.35-3.19,4.35-7.14c0,3.95,1.91,7.14,4.28,7.14s4.35-3.19,4.35-7.14v-6.68c0-2.7-2.24-4.91-5.01-4.91Z" style="fill:#859ac6; fill-rule:evenodd;"/><path d="M714.98,1119.6c0,2.44-.4,4.74-1.25,6.98-24.36,65.46-389.77,63.09-389.77-6.98l14.62-62.23,1.84-7.97,20.48-87.19,2.3-9.75,7.97-33.85,1.45-5.93,18.97-80.73,2.24-9.55,10.01-42.51,1.19-5.2,17.71-75.43,2.24-9.32,7.7-32.89,1.65-6.95,20.22-85.84,2.11-9.15,8.56-36.45,1.32-5.43,20.28-86.13,2.11-9.09,5.6-23.77,1.32-5.56,23.64-100.55,28.51,121.17,1.38,6.03,5.66,23.87,2.37,10.34,21.47,91.1,1.25,5.27,12.25,52.32,2.44,10.11,21.73,92.52,1.25,5.33,11.39,48.37,2.3,9.88,18.18,77.27,1.32,5.66,14.36,61.04,2.3,9.68,21.07,89.75,1.25,5.2,11,46.82,2.24,9.48,11.06,47.21,.72,3.03Z" style="fill:#c4d1eb; fill-rule:evenodd;"/><path d="M714.98,1119.6c0,2.44-.4,4.74-1.25,6.98-24.36,65.46-389.77,63.09-389.77-6.98,206.18,70.46,270.85-121.96,270.85-121.96l-75.33-709.51,28.51,121.17,1.38,6.03,5.66,23.87,2.37,10.34,21.47,91.1,1.25,5.27,12.25,52.32,2.44,10.11,21.73,92.52,1.25,5.33,11.39,48.37,2.3,9.88,18.18,77.27,1.32,5.66,14.36,61.04,2.3,9.68,21.07,89.75,1.25,5.2,11,46.82,2.24,9.48,11.06,47.21,.72,3.03Z" style="fill:#b0c2e4; fill-rule:evenodd;"/><path d="M703.19,1069.36c-30.56,.66-61.18-1.12-91.47-5.47-90.55-12.91-177.01-48.2-250.83-101.67l2.3-9.75c26.74,19.62,55.25,36.88,85.08,51.5,78.63,38.46,165.68,57.42,252.67,55.91l2.24,9.48Z" style="fill:#9db2d9; fill-rule:evenodd;"/><path d="M509.06,1046.7c0,13.76-11.13,24.83-24.89,24.83s-24.83-11.06-24.83-24.83,11.13-24.83,24.83-24.83,24.89,11.06,24.89,24.83Z" style="fill:#f89f1b; fill-rule:evenodd;"/><path d="M695.22,1090.23c0,13.7-11.13,24.89-24.83,24.89s-24.89-11.2-24.89-24.89,11.13-24.89,24.89-24.89,24.83,11.2,24.83,24.89Z" style="fill:#859ac6; fill-rule:evenodd;"/><path d="M689.36,1084.44c0,10.4-8.49,18.96-18.97,18.96s-19.03-8.56-19.03-18.96,8.49-19.1,19.03-19.1,18.97,8.56,18.97,19.1Z" style="fill:#9db2d9; fill-rule:evenodd;"/><path d="M503.2,1043.54c0,10.47-8.5,19.03-19.03,19.03s-18.96-8.56-18.96-19.03,8.49-19.03,18.96-19.03,19.03,8.56,19.03,19.03Z" style="fill:#ffcc02; fill-rule:evenodd;"/><path d="M602.11,1076.4c0,13.7-11.13,24.83-24.83,24.83s-24.83-11.13-24.83-24.83,11.13-24.89,24.83-24.89,24.83,11.19,24.83,24.89Z" style="fill:#9db2d9; fill-rule:evenodd;"/><path d="M423.32,1008.51c0,13.76-11.06,24.83-24.83,24.83s-24.83-11.06-24.83-24.83,11.13-24.83,24.83-24.83,24.83,11.13,24.83,24.83Z" style="fill:#c02026; fill-rule:evenodd;"/><path d="M596.31,1071.53c0,10.54-8.56,19.03-19.03,19.03s-19.03-8.5-19.03-19.03,8.56-18.96,19.03-18.96,19.03,8.5,19.03,18.96Z" style="fill:#c4d1eb; fill-rule:evenodd;"/><path d="M419.9,1004.76c0,10.4-8.5,18.96-19.03,18.96s-18.96-8.56-18.96-18.96,8.49-19.1,18.96-19.1,19.03,8.56,19.03,19.1Z" style="fill:#df1e26; fill-rule:evenodd;"/><path d="M667.63,918.1c-18.7-.79-37.34-2.5-55.91-5.14-78.3-11.13-153.5-39.12-220.14-81l2.24-9.55c17.52,11.26,35.76,21.47,54.46,30.62,67.89,33.19,142.04,51.83,217.04,55.38l2.3,9.68Z" style="fill:#9db2d9; fill-rule:evenodd;"/><path d="M655.84,933.37c0,13.7-11.13,24.83-24.83,24.83s-24.89-11.13-24.89-24.83,11.13-24.89,24.89-24.89,24.83,11.19,24.83,24.89Z" style="fill:#9db2d9; fill-rule:evenodd;"/><path d="M648.01,929.69c0,9.42-7.57,17.05-16.99,17.05s-17.06-7.64-17.06-17.05,7.64-16.99,17.06-16.99,16.99,7.64,16.99,16.99Z" style="fill:#c4d1eb; fill-rule:evenodd;"/><path d="M556.93,915.2c0,13.7-11.13,24.89-24.89,24.89s-24.83-11.2-24.83-24.89,11.13-24.89,24.83-24.89,24.89,11.13,24.89,24.89Z" style="fill:#9db2d9; fill-rule:evenodd;"/><path d="M550.48,912.7c0,10.14-8.23,18.44-18.44,18.44s-18.44-8.3-18.44-18.44,8.3-18.44,18.44-18.44,18.44,8.23,18.44,18.44Z" style="fill:#c4d1eb; fill-rule:evenodd;"/><path d="M454.4,878.85c0,13.7-11.13,24.83-24.89,24.83s-24.83-11.13-24.83-24.83,11.13-24.89,24.83-24.89,24.89,11.13,24.89,24.89Z" style="fill:#f89f1b; fill-rule:evenodd;"/><circle cx="429.51" cy="875.29" r="18.17" style="fill:#ffcc02;"/><path d="M631.48,764.43c-6.59-.69-13.17-1.51-19.75-2.44-66.31-9.45-130.39-30.92-188.99-62.72l2.24-9.32c7.64,4.25,15.41,8.26,23.31,12.08,56.96,27.86,118.33,45.47,180.89,52.52l2.3,9.88Z" style="fill:#9db2d9; fill-rule:evenodd;"/><path d="M602.11,774.47c0,13.73-11.13,24.83-24.83,24.83s-24.83-11.09-24.83-24.83,11.13-24.86,24.83-24.86,24.83,11.13,24.83,24.86Z" style="fill:#9db2d9; fill-rule:evenodd;"/><path d="M594.8,772.14c0,9.71-7.84,17.55-17.52,17.55s-17.58-7.84-17.58-17.55,7.9-17.55,17.58-17.55,17.52,7.87,17.52,17.55Z" style="fill:#c4d1eb; fill-rule:evenodd;"/><path d="M509.06,744.78c0,13.73-11.13,24.86-24.89,24.86s-24.83-11.13-24.83-24.86,11.13-24.83,24.83-24.83,24.89,11.13,24.89,24.83Z" style="fill:#9db2d9; fill-rule:evenodd;"/><path d="M502.54,740.36c0,10.14-8.17,18.34-18.37,18.34s-18.37-8.2-18.37-18.34,8.23-18.4,18.37-18.4,18.37,8.23,18.37,18.4Z" style="fill:#c4d1eb; fill-rule:evenodd;"/><path d="M594.8,608.33c-48.6-8.46-95.75-23.34-140.26-44.05l2.11-9.15c43.33,20.25,89.03,34.64,135.72,43.1l2.44,10.11Z" style="fill:#9db2d9; fill-rule:evenodd;"/><path d="M602.11,623.51c0,13.73-11.13,24.86-24.83,24.86s-24.83-11.13-24.83-24.86,11.13-24.83,24.83-24.83,24.83,11.13,24.83,24.83Z" style="fill:#9db2d9; fill-rule:evenodd;"/><path d="M594.07,618.7c0,9.25-7.51,16.76-16.79,16.76s-16.79-7.51-16.79-16.76,7.51-16.79,16.79-16.79,16.79,7.51,16.79,16.79Z" style="fill:#c4d1eb; fill-rule:evenodd;"/><path d="M509.06,593.84c0,13.73-11.13,24.86-24.89,24.86s-24.83-11.13-24.83-24.86,11.13-24.86,24.83-24.86,24.89,11.13,24.89,24.86Z" style="fill:#9db2d9; fill-rule:evenodd;"/><circle cx="484.17" cy="593.84" r="19.69" transform="translate(-267.68 741.5) rotate(-61.92)" style="fill:#c4d1eb;"/><path d="M557.4,449.53c-24.04-5.89-47.61-13.4-70.59-22.42l2.11-9.09c21.6,8.43,43.66,15.48,66.11,21.17l2.37,10.34Z" style="fill:#9db2d9; fill-rule:evenodd;"/><path d="M540.21,457.93c0,13.7-11.13,24.83-24.83,24.83s-24.89-11.13-24.89-24.83,11.13-24.86,24.89-24.86,24.83,11.13,24.83,24.86Z" style="fill:#9db2d9; fill-rule:evenodd;"/><path d="M531.65,455.26c0,8.96-7.31,16.23-16.27,16.23s-16.27-7.28-16.27-16.23,7.31-16.27,16.27-16.27,16.27,7.28,16.27,16.27Z" style="fill:#c4d1eb; fill-rule:evenodd;"/><path d="M714.98,1119.6c0,2.44-.4,4.74-1.25,6.98-5.93,7.25-14.16,12.65-23.51,15.02-21.86,5.4-44.45-2.24-60.12-17.91-6.85,10.93-20.41,17.91-33.32,15.28-12.91-2.5-22.78-12.51-25.81-25.03-11.99,13.17-29.04,25.55-47.74,20.68-18.04-4.61-24.23-21.27-27.46-37.67-12.12,15.28-32.33,23.31-51.76,18.31-10.21-2.63-19.76-7.9-24.37-17.78-3.88-8.23-2.83-17.91-1.25-26.8-15.74,13.37-39.51,17.32-58.15,7.71-9.22-4.81-16.66-12.18-21.67-21.01l1.84-7.97c4.28,10.47,12.05,19.49,22.45,24.43,18.04,8.63,40.37,4.68,54.59-9.42,1.25-1.25,2.9-.79,3.82,.26,1.51,0,3.23,1.32,2.83,3.29-1.65,8.82-4.02,20.08,.72,28.45,4.61,8.17,13.37,12.64,22.32,14.22,19.1,3.36,37.73-5.14,47.74-21.6,.13-.26,.33-.46,.46-.59,1.38-1.38,3.89-1.38,4.28,.99,.07,.2,.07,.4,.13,.66h0c2.63,16,7.24,37.01,26.34,39.84,17.91,2.7,32.27-9.35,43.2-21.99,.92-1.12,2.11-1.05,3.03-.46,1.32-.13,2.9,.72,3.09,2.5,1.45,11.59,10.87,22.32,22.72,23.97,11.98,1.71,23.71-4.94,28.97-15.74,.79-1.65,2.5-1.65,3.69-.72,.4,.07,.86,.26,1.19,.72,13.7,14.69,35.1,23.78,55.25,18.7,11.39-2.83,21.6-10.34,27-20.35l.72,3.03Z" style="fill:#9db2d9; fill-rule:evenodd;"/><path d="M689.95,1013.05c-.99,.13-1.98,.13-2.96,.13-14.95-.59-28.25-10.34-33.45-24.04-7.64,12.18-21.8,20.41-36.48,18.9-17.65-1.91-28.18-13.04-36.09-27.39-8.96,13.3-25.48,20.94-41.42,17.12-9.29-2.17-17.25-7.05-23.25-14.49-5.07-6.32-7.9-14.09-10.27-21.86-12.64,13.76-34.57,18.96-51.36,9.61-15.48-8.56-23.97-26.6-21.53-43.73-14.03,9.15-33.19,9.75-48.14,1.84-5.27-2.83-9.88-6.39-13.83-10.54l1.45-5.93c3.82,4.48,8.43,8.43,13.76,11.2,15.47,8.3,35.76,7.51,48.86-4.87,1.25-2.57,5.53-1.45,5,1.32,0,.53-.13,1.05-.53,1.58-5.2,16.4,1.71,36.68,17.52,44.65,15.94,8.03,36.61,3.16,47.15-11.19,.07-.13,.13-.13,.2-.26,.72-1.98,4.28-2.44,5,.2,4.74,16.13,11.72,32.86,29.83,37.07,15.54,3.69,30.95-3.42,38.72-17.05h0c-1.45-2.96,2.83-5.53,4.41-2.83,.86,.53,1.51,1.58,1.32,2.77,6.98,13.43,16.53,26.47,33.19,27.53,15.08,.92,28.45-7.38,34.57-21.2,.4-.92,1.12-1.32,1.91-1.32,1.32-.59,3.03-.2,3.36,1.58,2.63,13.96,15.34,26.27,30.1,26.08,.59,0,1.19,0,1.71-.07l1.25,5.2Z" style="fill:#9db2d9; fill-rule:evenodd;"/><path d="M650.97,847.37c-7.38,5.4-16.53,8.3-25.81,7.38-17.65-1.84-28.12-13.04-36.09-27.33-8.96,13.24-25.48,20.87-41.42,17.05-9.22-2.11-17.25-6.98-23.18-14.49-5.07-6.32-7.97-14.09-10.34-21.8-12.64,13.7-34.57,18.96-51.36,9.61-15.41-8.63-23.9-26.64-21.47-43.79-10.87,7.11-24.83,9.09-37.47,5.89l1.19-5.2c13.37,3.36,28.05,.76,38.33-8.92,1.32-2.63,5.6-1.51,5,1.25,.07,.53-.07,1.09-.46,1.58-5.2,16.43,1.65,36.68,17.52,44.65,15.87,8.03,36.55,3.16,47.08-11.19,.07-.07,.2-.13,.26-.26,.72-1.98,4.21-2.37,4.94,.26,4.74,16.07,11.72,32.79,29.83,37.01,15.54,3.69,30.95-3.42,38.72-16.99v-.07c-1.45-2.96,2.83-5.47,4.41-2.77,.92,.53,1.58,1.51,1.38,2.7,6.98,13.43,16.53,26.54,33.12,27.53,9.22,.59,17.85-2.24,24.5-7.77l1.32,5.66Z" style="fill:#9db2d9; fill-rule:evenodd;"/><path d="M617.78,706.19c-2.9,.46-5.93,.53-8.96,.23-17.65-1.88-28.12-13.04-36.09-27.33-8.96,13.24-25.42,20.84-41.42,17.09-9.22-2.17-17.25-7.05-23.18-14.45-5.07-6.36-7.97-14.13-10.34-21.86-12.64,13.73-34.57,18.97-51.36,9.61-5.53-3.09-10.21-7.38-13.76-12.41l1.65-6.95c3.29,6.26,8.3,11.59,14.75,14.85,15.87,8.03,36.55,3.16,47.08-11.19,.07-.1,.13-.16,.26-.26,.72-2.01,4.21-2.4,5,.2,4.68,16.13,11.72,32.83,29.76,37.11,15.54,3.65,30.95-3.42,38.79-17.09h-.07c-1.45-2.96,2.83-5.53,4.41-2.8,.92,.53,1.58,1.55,1.38,2.67,6.91,13.53,16.53,26.57,33.12,27.59,2.63,.17,5.2,.07,7.7-.33l1.25,5.33Z" style="fill:#9db2d9; fill-rule:evenodd;"/><path d="M580.11,545.91c-7.64,3.62-16.33,4.87-24.89,2.86-9.22-2.17-17.25-7.05-23.18-14.45-5.07-6.35-7.97-14.12-10.34-21.83-12.64,13.7-34.57,18.93-51.36,9.58-1.78-1.02-3.49-2.14-5.14-3.39l1.32-5.43c1.91,1.68,4.08,3.13,6.45,4.31,15.87,8.03,36.55,3.16,47.08-11.19,.07-.1,.13-.16,.26-.26,.72-2.01,4.21-2.4,5,.2,4.74,16.1,11.66,32.83,29.76,37.11,8.36,1.98,16.66,.82,23.77-2.77l1.25,5.27Z" style="fill:#9db2d9; fill-rule:evenodd;"/><path d="M549.36,415.32c-7.18-2.57-13.5-6.95-18.37-13.04-5.07-6.35-7.97-14.12-10.34-21.86-6.78,7.38-16.27,12.31-26.14,13.83l1.32-5.56c9.09-1.75,17.58-6.72,23.18-14.36,.07-.1,.2-.16,.26-.26,.72-2.01,4.21-2.44,5,.2,4.15,14.16,10.01,28.81,23.71,35.03l1.38,6.03Z" style="fill:#9db2d9; fill-rule:evenodd;"/><path d="M573.2,355.27c0,14.98-12.12,27.16-27.13,27.16s-27.13-12.18-27.13-27.16,12.12-27.13,27.13-27.13,27.13,12.15,27.13,27.13Z" style="fill:#9db2d9; fill-rule:evenodd;"/><path d="M568.52,351.97c0,11.33-9.22,20.51-20.55,20.51s-20.55-9.19-20.55-20.51,9.15-20.55,20.55-20.55,20.55,9.19,20.55,20.55Z" style="fill:#c4d1eb; fill-rule:evenodd;"/><path d="M564.05,354.61c-1.98,1.58-5.66,.2-8.36-3.1-2.63-3.29-3.29-7.21-1.38-8.76,1.91-1.58,5.66-.2,8.36,3.09,2.7,3.29,3.29,7.21,1.38,8.76Z" style="fill:#fff; fill-rule:evenodd;"/><path d="M554.04,320.53h-15.94c-2.77,0-5,2.17-5,4.87v6.72c0,3.95,1.98,7.15,4.35,7.15s4.28-3.19,4.28-7.15c0,3.95,1.98,7.15,4.35,7.15s4.35-3.19,4.35-7.15c0,3.95,1.91,7.15,4.28,7.15s4.35-3.19,4.35-7.15v-6.72c0-2.7-2.24-4.87-5-4.87Z" style="fill:#859ac6; fill-rule:evenodd;"/><path d="M718.99,1287.79c-3.23,12.12-14.29,21.07-27.39,21.07-1.38,0-2.77-.07-4.15-.26l-15.41-7.64-.07-.07c-5.4-5.07-8.69-12.31-8.69-20.34v-20.28l55.71,27.53Z" style="fill:#df1e26; fill-rule:evenodd;"/><polygon points="719.98 1220.75 719.98 1257.16 663.28 1229.11 663.28 1192.76 719.98 1220.75" style="fill:#df1e26; fill-rule:evenodd;"/><polygon points="719.98 1153.32 719.98 1189.67 663.28 1161.62 663.28 1125.26 719.98 1153.32" style="fill:#df1e26; fill-rule:evenodd;"/><path d="M489.04,893.47l-90.35,23.77v-8.89l17.71-25.02,31.87-12.91s15.08,2.44,15.61,3.23c.53,.86,25.16,19.82,25.16,19.82Z" style="fill:#859ac6; fill-rule:evenodd;"/><path d="M489.04,893.47s-17.32-5.93-37.93-4.61c-9.42,.59-19.49,2.63-28.91,7.44-8.76,4.41-16.86,11-23.51,20.88h-8.89s1.45-29.24,18.7-51.23c5.47-7.05,12.51-13.37,21.66-17.71,8.17-3.95,18.04-6.39,29.83-6.45l29.04,51.69Z" style="fill:#b0c2e4; fill-rule:evenodd;"/><path d="M290.57,893.47l90.35,23.77v-8.89l-17.78-25.02-31.81-12.91s-15.08,2.44-15.61,3.23c-.59,.86-25.16,19.82-25.16,19.82Z" style="fill:#859ac6; fill-rule:evenodd;"/><path d="M389.8,917.17h-8.89c-6.19-9.22-13.76-15.67-21.8-20.02-8.56-4.61-17.65-6.98-26.34-7.9-22.52-2.5-42.21,4.21-42.21,4.21l29.04-51.69c11.52,.07,21.2,2.37,29.3,6.19,8.43,4.02,15.21,9.55,20.55,15.87,18.83,22.26,20.35,53.34,20.35,53.34Z" style="fill:#b0c2e4; fill-rule:evenodd;"/><rect x="288.85" y="914.08" width="245.43" height="51.04" style="fill:#9db2d9;"/><rect x="300.58" y="965.11" width="222.05" height="356.65" style="fill:#9db2d9;"/><rect x="272.06" y="914.08" width="218.69" height="51.04" style="fill:#b0c2e4;"/><rect x="282.53" y="965.11" width="197.75" height="356.65" style="fill:#b0c2e4;"/><rect x="282.53" y="965.11" width="197.75" height="10.67" style="fill:#9db2d9;"/><rect x="374.72" y="914.08" width="30.16" height="407.69" style="fill:#9db2d9;"/><path d="M451.11,888.86c-9.42,.59-19.49,2.63-28.91,7.44-3.09-6.52-5.93-13.1-8.89-19.69-1.58-3.56-3.23-7.11-4.81-10.67,5.47-7.05,12.51-13.37,21.66-17.71,2.83,5.27,5.53,10.67,8.3,16,4.08,7.77,8.17,15.54,12.05,23.44l.59,1.19Z" style="fill:#9db2d9; fill-rule:evenodd;"/><path d="M369.46,863.83c-1.78,8.03-4.15,15.74-6.78,23.44-1.12,3.36-2.3,6.65-3.56,9.88-8.56-4.61-17.65-6.98-26.34-7.9,1.25-3.03,2.5-6.06,3.75-9.15,3.82-9.29,7.31-18.77,10.8-28.12,.53-1.38,.99-2.7,1.58-4.02,8.43,4.02,15.21,9.55,20.55,15.87Z" style="fill:#9db2d9; fill-rule:evenodd;"/><path d="M1005.97,838.02l-102.07,26.87v-10.01l20.08-28.25,35.95-14.55s16.99,2.7,17.65,3.62c.59,.92,28.38,22.32,28.38,22.32Z" style="fill:#859ac6; fill-rule:evenodd;"/><path d="M1005.97,838.02s-16.92-5.79-38.13-5.33c-13.63,.26-29.04,3.09-42.74,11.66-7.77,4.74-15.08,11.46-21.2,20.55h-10.01s1.19-24.63,14.09-47.35c7.11-12.71,17.98-24.83,34.18-31.81,8.69-3.72,18.97-5.96,31.02-6.02l32.79,58.31Z" style="fill:#9db2d9; fill-rule:evenodd;"/><path d="M781.82,838.02l102.07,26.87v-10.01l-20.08-28.25-35.95-14.55s-16.99,2.7-17.65,3.62c-.59,.92-28.38,22.32-28.38,22.32Z" style="fill:#859ac6; fill-rule:evenodd;"/><path d="M893.9,864.89h-10.01c-9.09-13.43-20.68-21.6-32.79-26.41-14.16-5.6-29.04-6.39-41.35-5.6-16.2,1.19-27.92,5.14-27.92,5.14l32.79-58.31c5,.03,9.68,.43,14.09,1.15,16,2.63,28.05,9.58,37.21,18.44,26.01,25.09,27.99,65.59,27.99,65.59Z" style="fill:#9db2d9; fill-rule:evenodd;"/><rect x="779.91" y="861.33" width="277.23" height="87.98" style="fill:#b0c2e4;"/><rect x="793.14" y="949.31" width="250.76" height="372.46" style="fill:#b0c2e4;"/><rect x="760.94" y="861.33" width="247.01" height="87.98" style="fill:#c4d1eb;"/><rect x="772.8" y="949.31" width="223.3" height="372.46" style="fill:#c4d1eb;"/><rect x="772.8" y="949.31" width="223.3" height="18.04" style="fill:#b0c2e4;"/><rect x="876.84" y="861.33" width="34.11" height="460.43" style="fill:#9db2d9;"/><path d="M967.85,832.69c-13.63,.26-29.04,3.09-42.74,11.66l-17.12-26.8c7.11-12.71,17.98-24.83,34.18-31.81l25.68,46.95Z" style="fill:#b0c2e4; fill-rule:evenodd;"/><path d="M865.91,799.3c-4.94,13.24-10.21,27.13-14.82,39.18-14.16-5.6-29.04-6.39-41.35-5.6l18.96-52.02c16,2.63,28.05,9.58,37.21,18.44Z" style="fill:#b0c2e4; fill-rule:evenodd;"/><rect x="1668.57" y="828.27" width="114.84" height="493.49" style="fill:#859ac6;"/><rect x="1624.32" y="828.27" width="114.84" height="493.49" style="fill:#9db2d9;"/><rect x="1680.03" y="828.27" width="13.3" height="493.49" style="fill:#b0c2e4;"/><rect x="1624.32" y="1068.37" width="159.1" height="13.3" style="fill:#b0c2e4;"/><path d="M1729.55,1021.02c-4.87,0-9.42,1.91-12.91,5.33-4.08,4.08-11.66,15.21-17.12,26.6-7.31,15.15-6.39,21.2-5.73,22.06,.07,.07,.79,.33,2.37,.33,12.31,0,38.59-15.61,46.23-23.31,3.42-3.42,5.33-7.97,5.33-12.84s-1.91-9.42-5.33-12.84c-3.42-3.42-8.03-5.33-12.84-5.33h0Zm-33.39,67.7c-5,0-9.02-1.45-11.85-4.28-6.58-6.65-5.66-18.57,2.9-36.61,5.66-11.99,14.09-24.96,20.02-30.95,5.93-5.93,13.89-9.22,22.32-9.22s16.33,3.29,22.26,9.22c5.99,5.99,9.22,13.96,9.22,22.32s-3.23,16.33-9.22,22.32c-8.36,8.3-37.93,27.2-55.64,27.2Z" style="fill:#ede9dd; fill-rule:evenodd;"/><path d="M1643.87,1021.02c-4.87,0-9.42,1.91-12.91,5.33-3.42,3.42-5.33,8.03-5.33,12.84s1.91,9.42,5.33,12.84c7.7,7.71,33.98,23.31,46.29,23.31h0c1.51,0,2.24-.26,2.37-.39,.59-.79,1.51-6.85-5.79-22-5.47-11.39-12.97-22.52-17.12-26.6-3.42-3.42-8.03-5.33-12.84-5.33h0Zm33.39,67.7h0c-17.71,0-47.41-18.9-55.71-27.2-5.93-5.99-9.22-13.9-9.22-22.32s3.29-16.33,9.22-22.32c5.99-5.93,13.89-9.22,22.32-9.22s16.33,3.29,22.26,9.22c5.93,5.99,14.36,18.96,20.02,30.95,8.56,18.04,9.55,29.96,2.9,36.61-2.83,2.83-6.85,4.28-11.79,4.28Z" style="fill:#ede9dd; fill-rule:evenodd;"/><polygon points="1714.6 1142.39 1683.12 1082.85 1694.91 1076.53 1726.38 1136.07 1714.6 1142.39" style="fill:#ede9dd; fill-rule:evenodd;"/><polygon points="1658.76 1142.39 1646.97 1136.07 1678.45 1076.53 1690.23 1082.85 1658.76 1142.39" style="fill:#ede9dd; fill-rule:evenodd;"/><path d="M1706.23,1078.11c0,10.73-8.76,19.49-19.56,19.49s-19.56-8.76-19.56-19.49,8.76-19.62,19.56-19.62,19.56,8.82,19.56,19.62Z" style="fill:#ede9dd; fill-rule:evenodd;"/><path d="M793.41,1103.53l-96.27,25.35v-9.42l18.9-26.67,33.98-13.76s16,2.57,16.59,3.42c.59,.92,26.8,21.07,26.8,21.07Z" style="fill:#859ac6; fill-rule:evenodd;"/><path d="M793.41,1103.53s-17.78-6.06-39.25-4.94c-13.56,.72-28.71,4.28-41.75,14.03-5.6,4.21-10.73,9.55-15.28,16.27h-9.42s1.05-21.93,12.25-42.87c6.65-12.38,16.79-24.5,32.4-31.41,8.36-3.75,18.31-5.99,30.09-6.06l30.95,54.99Z" style="fill:#b0c2e4; fill-rule:evenodd;"/><path d="M582.02,1103.53l96.21,25.35v-9.42l-18.9-26.67-33.91-13.76s-16.07,2.57-16.66,3.42c-.53,.92-26.74,21.07-26.74,21.07Z" style="fill:#859ac6; fill-rule:evenodd;"/><path d="M687.72,1128.88h-9.48c-11.92-17.71-28.38-25.75-44.38-28.78-11.33-2.24-22.32-1.84-31.35-.86-12.18,1.45-20.48,4.28-20.48,4.28l30.88-54.99c4.81,0,9.29,.39,13.43,1.12,7.51,1.25,14.09,3.49,19.82,6.45,38.99,20.02,41.55,72.77,41.55,72.77Z" style="fill:#b0c2e4; fill-rule:evenodd;"/><rect x="502.41" y="1117.89" width="406.63" height="69.08" style="fill:#859ac6;"/><rect x="519.47" y="1186.96" width="372.52" height="134.14" style="fill:#859ac6;"/><rect x="466.32" y="1117.89" width="406.7" height="69.08" style="fill:#9db2d9;"/><rect x="483.44" y="1186.96" width="372.45" height="134.14" style="fill:#9db2d9;"/><rect x="483.44" y="1186.96" width="372.45" height="10.61" style="fill:#859ac6;"/><rect x="670.59" y="1117.89" width="34.18" height="203.22" style="fill:#b0c2e4;"/><path d="M754.16,1098.59c-13.56,.72-28.71,4.28-41.75,14.03l-12.45-26.6c6.65-12.38,16.79-24.5,32.4-31.41l21.8,43.99Z" style="fill:#9db2d9; fill-rule:evenodd;"/><path d="M646.16,1056.12l-12.31,43.99c-11.33-2.24-22.32-1.84-31.35-.86l23.84-49.59c7.51,1.25,14.09,3.49,19.82,6.45Z" style="fill:#9db2d9; fill-rule:evenodd;"/><path d="M1665.28,1036.1v278.88c0,6.79-59.66,12.38-133.22,12.38-14.22,0-27.86-.19-40.7-.59-53.67-1.58-92.59-6.26-92.59-11.79v-278.88h266.5Z" style="fill:#9db2d9; fill-rule:evenodd;"/><path d="M1584.01,1036.1v278.88c0,5.53-38.92,10.21-92.65,11.79-53.67-1.58-92.59-6.26-92.59-11.79v-278.88h185.24Z" style="fill:#b0c2e4; fill-rule:evenodd;"/><path d="M1679.37,987.77v73.56c0,6.26-65.98,11.33-147.31,11.33-16.13,0-31.67-.2-46.16-.59-58.8-1.45-101.21-5.66-101.21-10.73v-73.56h294.68Z" style="fill:#b0c2e4; fill-rule:evenodd;"/><path d="M1587.11,987.77v73.56c0,5.07-42.47,9.29-101.21,10.73-58.8-1.45-101.21-5.66-101.21-10.73v-73.56h202.43Z" style="fill:#c4d1eb; fill-rule:evenodd;"/><path d="M1679.37,987.77c0,6.26-65.98,11.33-147.31,11.33s-147.38-5.07-147.38-11.33,65.98-11.33,147.38-11.33,147.31,5.07,147.31,11.33Z" style="fill:#fff; fill-rule:evenodd;"/><path d="M1398.78,1103.53l-96.27,25.35v-9.42l18.9-26.67,33.98-13.76s16,2.57,16.59,3.42c.59,.92,26.8,21.07,26.8,21.07Z" style="fill:#859ac6; fill-rule:evenodd;"/><path d="M1398.78,1103.53s-11.13-3.82-26.34-4.87c-14.22-.92-32.07,.53-47.94,9.55-8.1,4.68-15.67,11.26-21.99,20.68h-9.48s1.32-26.08,15.61-48.53c7.77-12.25,19.43-23.31,36.81-28.58,6.58-2.04,14.03-3.16,22.39-3.23l30.95,54.99Z" style="fill:#b0c2e4; fill-rule:evenodd;"/><path d="M1372.44,1098.66c-14.22-.92-32.07,.53-47.94,9.55l-15.87-27.85c7.77-12.25,19.43-23.31,36.81-28.58l27,46.89Z" style="fill:#9db2d9; fill-rule:evenodd;"/><path d="M1187.33,1103.53l96.27,25.35v-9.42l-18.9-26.67-33.98-13.76s-16,2.57-16.59,3.42c-.53,.92-26.8,21.07-26.8,21.07Z" style="fill:#859ac6; fill-rule:evenodd;"/><path d="M1293.02,1128.88h-9.42c-7.05-10.54-15.74-17.58-25.02-22.32-10.27-5.14-21.2-7.38-31.41-7.9-21.73-1.32-39.84,4.87-39.84,4.87l30.95-54.99c7.84,.07,14.82,1.05,21.01,2.77,15.8,4.41,27,13.63,34.9,24.17,17.45,23.38,18.83,53.41,18.83,53.41Z" style="fill:#b0c2e4; fill-rule:evenodd;"/><rect x="1107.71" y="1117.89" width="406.7" height="69.08" style="fill:#859ac6;"/><rect x="1124.83" y="1186.96" width="372.45" height="134.14" style="fill:#859ac6;"/><rect x="1071.69" y="1117.89" width="406.63" height="69.08" style="fill:#c4d1eb;"/><rect x="1088.75" y="1186.96" width="372.52" height="134.14" style="fill:#9db2d9;"/><rect x="1275.96" y="1117.89" width="34.18" height="203.22" style="fill:#b0c2e4;"/><path d="M1274.19,1075.48l-15.61,31.08c-10.27-5.14-21.2-7.38-31.41-7.9l12.12-47.35c15.8,4.41,27,13.63,34.9,24.17Z" style="fill:#9db2d9; fill-rule:evenodd;"/><polygon points="1880.21 1244.85 1855.98 1244.65 1856.97 1128.42 1881.27 1128.56 1880.21 1244.85" style="fill:#859ac6; fill-rule:evenodd;"/><path d="M1985.77,1204.02c-38.39,3.16-50.57-68.09-50.57-68.09,0,0-7.05,68.81-32.6,66.64-26.67,2.77-33.58-63.09-33.58-63.09,0,0-8.03,65.72-34.7,62.49-9.22,.6-15.94-7.97-20.68-19.29-8.36-19.89-10.73-47.94-10.73-47.94,0,0-13.37,71.05-51.76,67.3l22.79-173.52,.79-6.06,.59-4.41,1.45-10.93,15.15-115.04,.72-5.73,1.91-14.36,125.25,1.05,28.32,.26,15.41,135.39,1.25,11.06,4.74,41.22,.66,5.6,15.61,137.43Z" style="fill:#c4d1eb; fill-rule:evenodd;"/><path d="M1985.77,1204.02c-38.39,3.16-50.57-68.09-50.57-68.09,0,0-7.05,68.81-32.6,66.64-26.67,2.77-33.58-63.09-33.58-63.09,0,0-8.03,65.72-34.7,62.49-9.22,.6-15.94-7.97-20.68-19.29,3.62-4.08,7.51-7.9,11.19-11.72,74.21-74.81,110.83-185.11,96.08-289.48-.33-2.77-.79-5.53-1.12-8.43l28.32,.26,15.41,135.39,1.25,11.06,4.74,41.22,.66,5.6,15.61,137.43Z" style="fill:#b0c2e4; fill-rule:evenodd;"/><path d="M1964.77,1019.77c-1.58-.33-3.09-.79-4.68-1.32-13.5-4.67-22.98-18.17-29.44-32.46-4.02,13.17-12.45,32.86-29.63,32.86h-.86c-.53,0-1.05,.07-1.58,.07-11.92,0-21.47-9.02-28.32-26.93-7.05,17.52-16.59,26.47-28.38,26.47-.66,0-1.32-.07-1.98-.13h-.46c-17.52,0-25.68-20.08-29.44-33.39-6.72,14.22-16.4,27.53-30.03,32-1.51,.46-3.09,.86-4.67,1.12l1.45-10.93,15.15-115.04,.72-5.73,1.91-14.36,153.56,1.32,15.41,135.39,1.25,11.06Z" style="fill:#9db2d9; fill-rule:evenodd;"/><path d="M1972.87,1009.83c-3.29,.33-6.39-.07-9.35-1.12-26.27-9.09-34.9-66.9-34.9-66.9,0,0-6.19,68.75-28.58,66.64-12.58,1.51-20.08-16.79-24.37-34.05-3.69-14.88-5-29.04-5-29.04,0,0-7.11,65.79-30.42,62.56-22.39,1.78-27.39-67.17-27.39-67.17,0,0-9.62,57.69-36.09,66.38-2.9,.92-6.06,1.32-9.35,.92l13.43-115.5,.66-5.66,9.22-79.61,1.71-14.82,13.37-114.48,89.62,.79,44.85,.4,.46,4.74,10.87,109.91h0l1.45,14.85,2.11,21.4,.66,6.39,17.06,173.39Z" style="fill:#c4d1eb; fill-rule:evenodd;"/><path d="M1972.87,1009.83c-3.29,.33-6.39-.07-9.35-1.12-26.27-9.09-34.9-66.9-34.9-66.9,0,0-6.19,68.75-28.58,66.64-12.58,1.51-20.08-16.79-24.37-34.05,18.77-40.04,28.84-84.82,31.74-129.13,3.62-55.67-2.83-111.29-11.99-166.5l44.85,.4,.46,4.74,10.87,109.91h0l3.56,36.25,.66,6.39,17.06,173.39Z" style="fill:#b0c2e4; fill-rule:evenodd;"/><path d="M1953.04,808.65c-3.16-1.98-6.26-4.61-9.22-7.97-.07-.07-.2-.2-.26-.33-5.14-5.86-9.55-13.4-13.24-21.2-4.15,16.73-11.13,33.12-25.62,33.12h-.2c-13.63-.13-24.5-9.75-32.4-28.71-8.23,18.64-19.16,28.12-32.73,28.12h-.2c-14.62-.13-21.34-16.66-25.29-33.55-3.88,7.9-8.49,15.51-13.83,21.3-3.03,3.29-6.12,5.93-9.35,7.84l1.71-14.82,13.37-114.48,89.62,.79,44.85,.4,.46,4.74,10.87,109.91h0l1.45,14.85Z" style="fill:#9db2d9; fill-rule:evenodd;"/><path d="M1970.95,802.53c-7.31,1.38-13.76-2.37-19.36-8.72h0c-16.07-18.04-24.89-56.96-24.89-56.96,0,0-5.27,65.22-22.06,65.09-25.22-.26-32.2-58.21-32.2-58.21,0,0-7.97,57.82-33.19,57.69-16.79-.2-20.94-65.52-20.94-65.52,0,0-9.55,38.82-25.88,56.57-5.73,6.19-12.25,9.88-19.49,8.3-14.29-2.96,12.58-94.04,42.28-182.57,.72-2.17,1.45-4.35,2.17-6.49,27.92-82.71,57.55-161.24,57.55-161.24,0,0,45.31,126.47,74.94,227.85,.59,1.88,1.12,3.72,1.65,5.6,18.5,63.94,30.23,116.52,19.43,118.63Z" style="fill:#c4d1eb; fill-rule:evenodd;"/><polygon points="1965.36 1233.46 1927.1 1351.86 1820.49 1350.93 1784.27 1231.88 1921.37 1233.13 1965.36 1233.46" style="fill:#c4d1eb; fill-rule:evenodd;"/><path d="M1951.53,683.9c-3.62,.1-7.24,.1-10.8,0-11.99-.43-23.9-2.08-35.49-5.07-8.23-2.11-16.33-4.91-24.17-8.33-26.14-11.52-48.79-29.63-65.85-52.32,.72-2.17,1.45-4.35,2.17-6.49,16.46,23.05,38.98,41.82,64.93,53.27,21.34,9.39,44.45,13.83,67.56,13.34,.59,1.88,1.12,3.72,1.65,5.6Z" style="fill:#9db2d9; fill-rule:evenodd;"/><path d="M1955.81,836.44c-22.13,15.01-46.03,27.13-71.05,36.28-29.76,10.93-61.18,17.52-92.85,19.36-3.69,.2-7.38,.33-11.06,.46l.66-5.66c3.69-.13,7.44-.26,11.13-.53,25.48-1.58,50.77-6.19,75.14-13.76,31.02-9.61,60.65-23.9,87.38-42.54l.66,6.39Z" style="fill:#9db2d9; fill-rule:evenodd;"/><path d="M1970.16,1066.59c-67.37,9.29-137.23-4.21-196.24-38.06l.79-6.06c58.41,34.11,127.88,47.81,194.79,38.52l.66,5.6Z" style="fill:#9db2d9; fill-rule:evenodd;"/><path d="M1943.1,888.2c-.13,16.46-13.63,29.76-30.16,29.63-16.46-.13-29.76-13.7-29.63-30.16,.2-16.46,13.7-29.76,30.16-29.63,16.53,.13,29.76,13.63,29.63,30.16Z" style="fill:#9db2d9; fill-rule:evenodd;"/><path d="M1935,879.9c-.13,11.98-9.94,21.6-21.86,21.47-11.99-.07-21.6-9.88-21.53-21.86,.13-11.92,9.88-21.6,21.86-21.47,11.98,.13,21.6,9.88,21.53,21.86Z" style="fill:#c4d1eb; fill-rule:evenodd;"/><path d="M1902.8,692.62c-.13,16.5-13.7,29.76-30.16,29.63-16.53-.16-29.76-13.66-29.63-30.16,.13-16.49,13.63-29.76,30.16-29.63,16.46,.17,29.76,13.63,29.63,30.16Z" style="fill:#9db2d9; fill-rule:evenodd;"/><path d="M1893.19,682.84c-.13,11.16-9.22,20.15-20.41,20.05-11.13-.1-20.08-9.25-20.02-20.41,.13-11.13,9.22-20.12,20.41-20.02,11.13,.1,20.08,9.22,20.02,20.38Z" style="fill:#c4d1eb; fill-rule:evenodd;"/><path d="M1959.1,1092.21c-.13,16.53-13.7,29.77-30.16,29.63-16.53-.13-29.76-13.57-29.63-30.16,.13-16.46,13.63-29.76,30.16-29.63,16.46,.2,29.76,13.7,29.63,30.16Z" style="fill:#9db2d9; fill-rule:evenodd;"/><path d="M1950.48,1083.51c-.07,11.72-9.68,21.07-21.4,21.01-11.72-.07-21.14-9.68-21.01-21.4,.07-11.72,9.68-21.14,21.4-21.07,11.72,.13,21.14,9.75,21.01,21.47Z" style="fill:#c4d1eb; fill-rule:evenodd;"/><path d="M1844.72,1074.89c-.13,16.53-13.63,29.76-30.09,29.63-16.53-.13-29.76-13.63-29.7-30.09,.2-16.59,13.7-29.83,30.16-29.63,16.53,.13,29.83,13.57,29.63,30.09Z" style="fill:#9db2d9; fill-rule:evenodd;"/><path d="M1836.88,1066.92c-.07,12.12-10.01,21.86-22.13,21.73-12.18-.07-21.93-10.01-21.8-22.13,.07-12.12,10.01-21.86,22.13-21.73,12.18,.07,21.93,10.01,21.8,22.13Z" style="fill:#c4d1eb; fill-rule:evenodd;"/><path d="M1849.79,910.85c-.13,16.53-13.63,29.76-30.16,29.63-16.53-.13-29.76-13.56-29.63-30.16,.13-16.46,13.63-29.76,30.16-29.63,16.53,.13,29.77,13.7,29.63,30.16Z" style="fill:#9db2d9; fill-rule:evenodd;"/><path d="M1843.34,904.27c-.13,12.91-10.67,23.31-23.57,23.18-12.91-.13-23.31-10.67-23.18-23.58,.13-12.91,10.67-23.25,23.57-23.18,12.91,.13,23.25,10.67,23.18,23.57Z" style="fill:#c4d1eb; fill-rule:evenodd;"/><path d="M1965.36,1233.46l-38.26,118.4-106.61-.92c71.65-26.93,94.04-87.19,100.88-117.8l43.99,.33Z" style="fill:#b0c2e4; fill-rule:evenodd;"/><path d="M1048.25,1435.69c577.91,0,1046.37,16.13,1046.37,36.09s-468.46,36.09-1046.37,36.09S1.81,1491.66,1.81,1471.77s468.46-36.09,1046.44-36.09Z" style="fill:#c4d1eb; fill-rule:evenodd;"/><path d="M1350.7,1245.9s28.58,20.61,33.06,26.74c6.45,8.82-48.33,25.42-42.41,15.01,1.38-2.37,5.33-10.4,5.53-11.19,.92-4.21-10.73-15.54-10.73-15.54l14.55-15.01Z" style="fill:#f9af79; fill-rule:evenodd;"/><path d="M1326.54,1305.04l19.43-27.46s12.05-2.83,24.5-16.79c0,0,11.19,4.21,18.04,13.5,0,0-12.97,13.96-32.99,29.76,0,0-11.85,10.47-28.18,16-16.4,5.53-.79-15.01-.79-15.01Z" style="fill:#0e2952; fill-rule:evenodd;"/><path d="M1589.35,870.68s-3.49,3.16-4.74,4.08c-1.45,1.05-6.06,4.08-6.06,4.08,0,0-16.66,9.48-17.25,8.23-.53-1.25-.53-4.81,.26-5.79,.86-.92,3.23-1.91,4.08-2.83,.79-.99,1.12-2.9,.07-3.95-1.12-1.05-6.78,2.11-6.78,2.11,0,0-4.61,2.5-6.52,5.66-6.72,10.67-4.68,11.33-5.6,12.64-1.05,1.58-24.36,12.25-24.36,12.25,0,0-69.93,29.04-73.69,30.69h-.07c-.53,3.16,1.25,6.12,2.11,9.02,1.71,9.94,4.68,10.6,6.91,20.22,10.73-5.4,84.95-46.23,92.45-50.57,0,0,11.33-1.91,18.37-3.29,7.05-1.45,13.24-5.93,15.15-6.65,.26-.13,6.58-2.83,13.57-8.23,5.99-4.61-1.71-2.9-1.71-2.9,0,0-12.58,6.72-12.97,5.66-.2-.79,6.85-4.08,13.5-9.15,1.78-1.25,3.42-2.57,5-3.82,4.02-3.09,3.36-6.39-1.38-3.75-1.71,.92-4.48,2.5-6.26,3.95-1.98,1.58-4.21,2.37-6.06,3.36-3.62,2.11-6.26,3.62-6.26,3.49,0-.26-.99-.4,.79-1.84,2.11-1.71,7.44-4.35,10.41-7.11,1.71-1.58,5.4-4.74,5.4-4.74,0,0,4.74-5.66,4.48-5.99-1.19-2.04-5.53,.99-7.57,3.36-1.98,.92-5.79,4.35-5.79,4.35,0,0-9.22,5.07-9.88,3.82-.33-.53,4.94-4.35,9.55-8.82,4.28-4.21,7.9-9.09,7.24-10.01-1.19-1.58-6.39,2.5-6.39,2.5Z" style="fill:#f9af79; fill-rule:evenodd;"/><path d="M1246.07,630.36s-.92,4.38-1.19,5.89c-.2,1.78-.53,7.15-.53,7.15,0,0,.13,18.73,1.51,18.67,1.45-.03,4.61-1.65,5-2.77,.4-1.15,.07-3.72,.46-4.84,.4-1.15,1.98-2.21,3.42-1.78,1.45,.46,1.65,6.82,1.65,6.82,0,0,.07,5.14-1.71,8.2-6.06,10.6-7.64,9.15-8.36,10.47-.86,1.68,1.71,26.8,1.71,26.8,0,0,9.94,73.88,10.47,77.87v.07c-2.57,1.88-6.06,1.65-9.02,2.14-9.68,2.93-11.79,.66-21.4,2.93-.72-11.79-2.44-94.66-2.57-103.15,0,0-4.02-10.73-6.32-17.55-2.37-6.81-1.51-14.16-1.91-16.13,0-.33-.86-7.05,.33-15.48,1.05-7.31,3.49,.2,3.49,.2,0,0,.53,13.96,1.58,13.83,.86-.2,.13-7.8,1.18-15.84,.26-2.11,.59-4.15,.79-6.03,.79-4.94,4.02-5.79,4.08-.46,.07,1.84,.07,4.97-.26,7.18-.39,2.4,.07,4.71,.07,6.82,0,4.08-.07,7.05,.13,6.98,.26-.13,.79,.69,1.19-1.45,.39-2.7,.07-8.56,1.05-12.35,.46-2.14,1.32-6.78,1.32-6.78,0,0,2.63-6.65,3.09-6.59,2.37,.2,1.98,5.3,.86,8.1,.2,2.21-.79,7.05-.79,7.05,0,0,.13,10.24,1.58,10.34,.66,0,1.32-6.29,2.96-12.28,1.51-5.56,3.95-10.93,5.14-10.73,1.98,.26,.99,6.72,.99,6.72Z" style="fill:#f9af79; fill-rule:evenodd;"/><path d="M1394.36,1034.32l-4.48,22.32-113.53,103.26,81.26,82.31-21.93,22.39s-120.05-88.11-124.39-99.7c-6.65-17.78,86.07-135.59,86.07-135.59l97,5Z" style="fill:#0e2952; fill-rule:evenodd;"/><path d="M1473.98,1305.3s28.51,20.68,33.06,26.74c6.45,8.82-48.4,25.42-42.41,15.01,1.38-2.37,5.33-10.34,5.53-11.13,.86-4.28-10.73-15.6-10.73-15.6l14.55-15.01Z" style="fill:#f9af79; fill-rule:evenodd;"/><path d="M1449.74,1364.57l19.43-27.46s12.84-2.3,25.29-16.26c0,0,10.4,3.75,17.25,12.97,0,0-12.97,14.03-32.92,29.7,0,0-11.92,10.54-28.25,16.07-16.4,5.53-.79-15.01-.79-15.01Z" style="fill:#0e2952; fill-rule:evenodd;"/><path d="M1390.48,1044.66l-5.07,140.92,96.01,117.74-22.52,20.68s-111.49-95.62-123.67-122.22c-7.57-16.59-33.12-165.95-33.12-165.95l88.37,8.82Z" style="fill:#20386f; fill-rule:evenodd;"/><path d="M1298.88,1033.14c9.29-20.87,8.23-170.22,44.12-205.26,12.64,2.11,21.73,3.29,23.77,3.82,1.91,15.41,3.95,71.91,5.2,123.67,.86,34.51,0,70.72,4.28,89.69,2.63,11.85-85.74,7.11-77.38-11.92Z" style="fill:#fff; fill-rule:evenodd;"/><path d="M1396.21,839.47c10.08,2.24,17.52,6.98,30.75,26.47,12.64,18.77,40.76,60.06,40.76,60.06l74.02-32.93,3.49,37.54s-83.76,43.53-95.62,39.64c-11.79-3.95-42.01-47.28-44.45-50.57-.59-.72,2.11,52.42,2.11,60.78s13.7,75.93,13.7,75.93c0,0-40.7,10.01-48.66-8.17-24.43-55.84-5.66-216.52-5.66-216.52,0,0,22.32,6.06,29.57,7.77Z" style="fill:#466fb5; fill-rule:evenodd;"/><path d="M1334.7,836.57s-16.53,44.19-28.51,38.19c-12.05-5.99-77.57-77.38-78.23-80.73-.66-3.29-5.33-87.68-5.33-87.68l26.67-5.37,17.91,68.49s46.82,47.87,56.83,52.48c10.01,4.67,10.67,14.62,10.67,14.62Z" style="fill:#466fb5; fill-rule:evenodd;"/><path d="M1295.32,1043.08c-8.1,0-11.06-1.05-16.46-2.7,0,0,15.41-86.73,24.3-172.66,3.56-33.98,6.85-47.87,20.88-45.44,4.02,.72,15.01,4.87,18.96,5.6-35.16,99.57-35.3,176.28-40.3,198.47-2.5,11.19-4.68,16.86-7.38,16.73Z" style="fill:#466fb5; fill-rule:evenodd;"/><path d="M1346.75,812.8l-3.69,15.08s-.86,13.1,5.2,14.29c7.38,1.38,18.24-9.55,18.24-9.55l6.32-42.47-26.08,22.65Z" style="fill:#f7a390; fill-rule:evenodd;"/><path d="M1346.75,812.8l-3.69,15.08s-.86,13.1,5.2,14.29c7.38,1.38,18.24-9.55,18.24-9.55l6.32-42.47-26.08,22.65Z" style="fill:#f9af79; fill-rule:evenodd;"/><path d="M1372.76,790.31l-26.01,22.49-2.77,11.26c9.94-2.37,24.1-13.37,28.78-33.75Z" style="fill:#f27458; fill-rule:evenodd;"/><path d="M1346.69,751.29c-6.32,0-11.98,4.31-14.22,10.64-1.84,5.17-4.15,12.91-5.66,21.76-2.77,16.33,6.52,31.28,14.62,32.46,8.1,1.19,27.33-4.15,31.61-27.33,1.84-9.84,4.21-22.92-3.89-29.7-6.39-5.33-15.28-7.84-22.46-7.84Z" style="fill:#f9af79; fill-rule:evenodd;"/><path d="M1370.39,806.54s28.51-25.48,29.76-45.34c1.25-19.79-17.05-30.42-32.73-31.02-7.11-.23-11.92,.1-19.23,1.02-15.67,1.98-25.88,8.92-22.26,21.8,4.81,17.29,37.4,2.67,44.05,8.03,5.47,4.48-3.42,15.08,1.91,19.1,5,3.88,2.44,2.6,.79,9.85-1.65,7.21-2.31,16.56-2.31,16.56Z" style="fill:#20386f; fill-rule:evenodd;"/><path d="M1381.39,783.5c-.66,4.71-3.62,8.27-6.52,7.84-2.83-.43-4.61-4.64-3.89-9.42,.72-4.77,3.62-8.23,6.45-7.84,2.9,.46,4.68,4.64,3.95,9.42Z" style="fill:#f9af79; fill-rule:evenodd;"/><path d="M306.96,852.51c-2.17-14.29-4.41-28.65-17.58-40.24-10.73-9.35-24.04-12.05-36.94-8.76-36.74,9.22-27.85,41.82-55.97,68.35-12.05,11.33-27.33,15.21-37.14,27.66-17.78,22.52-15.28,65.59,13.63,95.62,70.92,73.42,137.04-17.65,141.78-39.25,3.56-16.07-6.45-94.17-7.77-103.39Z" style="fill:#20386f; fill-rule:evenodd;"/><path d="M320.07,1318.87c-2.44,18.96-7.31,35.82-7.97,37.8-.39,.92-3.75,4.61-4.15,5.53,3.03,22.79,17.65,35.56,31.21,44.52-3.42-11.39-10.34-24.3-9.68-26.87,1.12-4.21,5.27-23.12,14.95-47.15-10.93-.66-15.15-7.38-24.36-13.83Z" style="fill:#f9af79; fill-rule:evenodd;"/><path d="M287.74,1041.63l-71.51,49.52s31.41,36.02,43.26,49.39c11.79,13.43,72.5,63.09,73.42,66.11,.2,.59-3.69,7.17-5.4,15.67-4.54,22.78-11.13,67.36-14.95,105.69,6.65,8.17,22.26,11.13,31.48,14.29,26.67-45.44,41.82-135.52,42.54-146.45,1.19-17.72-98.84-154.23-98.84-154.23Z" style="fill:#0e2952; fill-rule:evenodd;"/><path d="M82.08,1145.55c2.57,1.84,21.34,29.3,29.17,44.38,7.38-6.65,11.46-13.83,20.02-18.9-8.69-9.68-26.34-33.65-28.38-39.71-4.81-14.23-8.3-15.87-8.3-15.87,0,0-45.04,24.17-47.54,29.44-2.5,5.14,24.96-6.98,35.03,.66Z" style="fill:#f9af79; fill-rule:evenodd;"/><path d="M103.88,1134.62c3.69-.59-2.7-17.32-4.15-21.21-1.58-4.35-4.21-5.27-4.87-5.4-1.78-.07-51.82,26.87-59.73,34.9-.59,.53-1.45,2.17-1.58,2.5-3.56,10.27,40.1,5.27,45.77,.06,5.07-4.54,8.03-8.3,24.56-10.86Z" style="fill:#0e2952; fill-rule:evenodd;"/><path d="M301.23,1058.49l-57.69-28.97c.2,.13-.53,2.5-.59,2.7-7.11,22.26-36.22,11.59-51.03,50.11-10.47,27.26-12.84,121.1-12.84,121.1,0,0-26.21-22.45-53.73-46.16-2.5-2.18-25.16,19.42-25.16,19.42,34.7,69.48,94.1,99.77,102.14,97.26,27.33-8.43,80.21-183.86,80.14-183.86,5.93-10.27,18.77-31.61,18.77-31.61Z" style="fill:#20386f; fill-rule:evenodd;"/><path d="M216.09,901.11s-71.91-20.08-87.98-23.57c-16.07-3.49-71.38-25.95-73.49-26.87-2.17-.92-8.76-31.21-12.05-29.17-3.29,2.04,4.15,15.28,.13,16.86-4.08,1.65-37.21-14.95-37.6-12.12-.66,5.33,19.89,11,19.16,13.37-.79,2.44-20.94-7.9-23.64-4.35-2.7,3.62,20.02,7.97,20.28,10.08,.33,2.04-21.86-1.19-20.87,3.23,.53,2.44,19.82,2.44,18.9,5.14-.92,2.77-15.74,5.14-14.88,7.9,.92,2.7,12.18-3.69,19.76-1.58,7.51,2.24,14.09-.26,24.96,6.85,10.87,7.11,46.23,36.75,72.04,43.33,25.81,6.58,82.77,21.2,82.77,21.2l12.51-30.29Z" style="fill:#f9af79; fill-rule:evenodd;"/><path d="M300.77,899.66s32.93-67.1,40.96-81.39c8.1-14.29,28.18-70.53,28.91-72.77,.72-2.17-17.45-27.29-13.76-28.38,3.69-1.09,8.56,13.3,12.51,11.36,3.89-1.98,13.57-37.73,15.94-36.12,4.41,3.03-5.07,22.13-2.77,23.18,2.37,.99,8.03-20.88,12.51-20.48,4.48,.36-7.37,20.18-6.06,21.8,1.38,1.65,13.76-17.15,16.4-13.43,1.45,2.04-11.46,16.43-8.76,17.52,2.7,1.15,14.36-8.3,15.74-5.83,1.45,2.47-10.87,6.62-14.22,13.7-3.36,7.05-9.55,10.37-11.52,23.21-1.91,12.81-3.36,58.87-15.67,82.58-12.25,23.64-39.25,75.93-39.25,75.93l-30.95-10.87Z" style="fill:#f9af79; fill-rule:evenodd;"/><path d="M316.58,984.28c1.84-12.77,5.79-47.21,5.53-51.56,4.61-13.17,19.49-32,22.65-37.4,0,0-16.92-22.98-30.55-23.71,0,0-15.74,18.17-26.93,23.38-.13-.07-3.95,1.51-5.53,1.32-10.4-.72-46.62-4.28-53.54-2.57v58.87c1.71,3.56-.33,71.12,3.29,76.91,3.69,5.8,60.45,34.9,70.59,29.04,.39-.2,10.73-48.47,14.49-74.28Z" style="fill:#6d96ce; fill-rule:evenodd;"/><path d="M246.64,895.84c-1.58-.92-5.33-2.11-10.93-2.57-16.46-1.38-44.12-3.88-44.12-3.88,0,0-9.09,34.83-4.21,43.72,0,0,42.93,9.55,41.42,13.17l17.85-50.44Z" style="fill:#6d96ce; fill-rule:evenodd;"/><path d="M259.49,873.19s2.44,20.54,1.12,28.58c-1.25,7.97,.66,34.11,16.92,35.23,16.27,1.12,5.27-32.73,4.21-40.7-1.05-7.97,.2-32.33,.2-32.33l-22.46,9.22Z" style="fill:#f9af79; fill-rule:evenodd;"/><path d="M281.55,876.21c.13-6.72,.4-12.25,.4-12.25l-22.46,9.22s.46,4.15,.92,9.55c9.42,2.63,16.53-.59,21.14-6.52Z" style="fill:#f27458; fill-rule:evenodd;"/><path d="M255.2,816.42s-8.76,4.41-12.51,14.75c-3.75,10.27-2.04,37.8,19.23,45.83,21.27,7.97,32.07-12.97,28.71-30.16-3.36-17.12-11.66-39.12-35.43-30.42Z" style="fill:#f9af79; fill-rule:evenodd;"/><path d="M293.79,840.52c-.72,4.48-3.36,7.77-5.86,7.38-2.5-.4-3.95-4.48-3.23-8.96,.72-4.48,3.36-7.77,5.86-7.38,2.5,.39,3.95,4.48,3.23,8.96Z" style="fill:#f9af79; fill-rule:evenodd;"/><path d="M311.9,1357.19c-1.51-3.49-14.82,8.75-17.98,11.33-3.56,2.83-3.69,5.8-3.56,6.45,.33,1.71,37.73,45.04,48.33,50.7,.99,.53,3.03,.4,3.62,.13,5.66-2.63-5.47-39.18-13.3-46.1-5.07-4.42-10.14-6.65-17.12-22.52Z" style="fill:#0e2952; fill-rule:evenodd;"/><path d="M257.84,815.24s-5.93,30.16-15.74,35.03c-9.75,4.87-6.65,18.57-6.65,18.57,0,0-6.52-31.87,1.58-41.42,8.1-9.55,20.81-12.18,20.81-12.18Z" style="fill:#20386f; fill-rule:evenodd;"/><path d="M247.43,855.01c2.24,4.08,1.98,8.76-.72,10.4-2.7,1.58-6.72-.39-9.02-4.54-2.24-4.15-1.98-8.76,.72-10.4,2.7-1.65,6.72,.39,9.02,4.54Z" style="fill:#f9af79; fill-rule:evenodd;"/><path d="M703.26,1412.51s-7.64,7.51-7.84,10.27c-.2,2.77-.66,32.4,2.44,35.16,3.1,2.77,12.25,4.74,9.29,7.77-2.17,2.37-19.23,1.84-30.56,1.25-3.29-.2-7.44-26.87-8.76-30.75-1.84-5.73-8.69-18.18-6.98-22.06,.86-1.91,7.11-6.39,12.77-10.08,5.93-3.95,11.66-12.58,11.66-12.58l17.98,21.01Z" style="fill:#f9af79; fill-rule:evenodd;"/><path d="M805,1431.01l-6.85,19.56c-.53,3.09-2.5,10.67-2.5,13.56,0,10.54,46.95-8.96,36.42-13.7-.99-.4-3.95-3.82-4.21-7.38-.53-5.53,3.89-12.45,3.89-12.45l-26.74,.39Z" style="fill:#f9af79; fill-rule:evenodd;"/><path d="M869.73,1060.99l16.99,43.99s11.06,104.97,4.61,167.79c-2.7,26.34-61.11,167-61.11,167l-29.04-4.08,38.85-166.6-14.29-63.74-20.22-125.98,64.21-18.37Z" style="fill:#0e2952; fill-rule:evenodd;"/><path d="M789.65,1063.23l-14.55,48.99-22.13,147.9-75,138.29s11.26,17.32,23.38,20.02l106.42-139.74,57.69-175.03-2.04-38.92-73.75-1.51Z" style="fill:#20386f; fill-rule:evenodd;"/><path d="M1019.28,1060.2c-11.33-.53-11,1.38-12.45,1.25-1.71-.07-19.95-14.29-19.95-14.29,0,0-54.13-41.22-56.96-43.53l-33.78-62.23-35.16,8.3s38.52,66.64,41.09,69.8c2.57,3.03,82.18,50.18,89.03,54.59,0,0,6.32,8.3,10.4,13.37,4.15,5.07,10.27,8.03,11.66,9.22,.2,.2,5,4.08,12.25,7.24,6.19,2.77,1.58-2.63,1.58-2.63,0,0-10.67-7.24-9.94-7.97,.53-.59,6.12,3.69,12.91,6.78,1.78,.79,3.49,1.58,5.14,2.24,4.15,1.84,6.52-.2,2.44-2.9-1.45-.92-3.95-2.37-5.79-3.16-2.04-.92-3.62-2.37-5.2-3.42-3.23-1.98-5.53-3.42-5.4-3.49,.2-.07-.2-.99,1.71-.13,2.3,.92,6.65,4.02,10.14,5.2,1.98,.66,5.93,2.17,5.93,2.17,0,0,6.78,1.84,6.98,1.51,1.12-1.98-3.36-4.74-6.12-5.14-1.65-1.32-5.86-2.9-5.86-2.9,0,0-7.9-5-7.24-6.19,.59-.99,21.86,7.51,22.85,5.53,.72-1.71-5.53-4.54-5.53-4.54,0,0-3.95-1.38-5.2-2.04-1.51-.66-5.86-3.03-5.86-3.03,0,0-14.62-8.96-13.83-10.01,.72-1.05,3.69-2.9,4.81-2.63,1.05,.26,2.9,1.78,3.95,1.98,1.12,.26,2.7-.4,3.09-1.71,.39-1.38-4.48-4.61-4.48-4.61,0,0-3.95-2.5-7.18-2.63Z" style="fill:#f9af79; fill-rule:evenodd;"/><path d="M909.57,958.79l-36.22,20.41s-15.48-30.69-22.06-45.7c-7.97-18.31-16.07-42.34-13.7-42.8,6.72-1.19,15.8-1.45,23.71,3.16,27.2,16.2,48.27,64.93,48.27,64.93Z" style="fill:#466fb5; fill-rule:evenodd;"/><path d="M733.02,1141.73c-6.32-10.4-7.77-8.89-8.56-10.27-.92-1.58,.13-26.21,.13-26.21,0,0,2.5-72.57,2.77-76.52l32.33-67.04-27.92-26.27s-33.25,73.88-34.37,78.03c-1.05,4.21,6.65,102.86,7.05,111.55,0,0-3.23,10.6-5.07,17.26-1.78,6.72-.66,13.89-.86,15.8-.07,.4-.46,6.98,1.19,15.21,1.38,7.18,3.23-.26,3.23-.26,0,0-.26-13.63,.72-13.5,.86,.13,.59,7.64,2.04,15.54,.33,1.98,.72,4.08,1.12,5.86,.92,4.87,4.08,5.6,3.82,.46,0-1.84-.26-4.94-.66-7.11-.53-2.31-.2-4.55-.33-6.58-.2-4.02-.39-6.98-.2-6.85,.2,.13,.72-.73,1.19,1.45,.53,2.57,.53,8.3,1.65,11.98,.59,2.11,1.65,6.65,1.65,6.65,0,0,2.83,6.52,3.29,6.52,2.24-.26,1.58-5.27,.33-8.03,.13-2.11-1.12-6.85-1.12-6.85,0,0-.39-10.01,.99-10.14,.53,0,1.51,6.12,3.42,12.05,1.71,5.47,4.35,10.74,5.47,10.47,1.84-.26,.53-6.58,.53-6.58,0,0-1.12-4.28-1.38-5.79-.33-1.71-.92-6.92-.92-6.92,0,0-1.19-18.37,.13-18.31,1.32,.07,4.68,1.65,5.14,2.7,.46,1.05,.2,3.56,.72,4.74,.46,1.05,1.98,2.11,3.29,1.71,1.38-.53,1.19-6.72,1.19-6.72,0,0-.2-5-1.98-8.03Z" style="fill:#f9af79; fill-rule:evenodd;"/><path d="M673.95,1403.82s16.07,49.12,22.92,51.56c1.78,.59,12.05,3.23,13.7,7.11l.13,.39c.53,2.44-1.58,4.74-4.08,4.74h-32.6s-4.61-22.06-6.45-31.67c0,0-9.61-23.71-8.56-25.81,1.05-2.24,14.95-6.32,14.95-6.32Z" style="fill:#0e2952; fill-rule:evenodd;"/><path d="M793.01,1467.56l5.33-17.25s11.33,4.87,16.92,4.08c5.66-.79,16.66-4.08,16.66-4.08,22.52,7.51,40.96,11.19,37.6,17.25h-76.52Z" style="fill:#0e2952; fill-rule:evenodd;"/><path d="M794.99,883.59s-21.93,3.09-27.66,7.38c-6.52,4.74-26.6,27-26.6,27,0,0,41.82,119.78,40.23,141.05-1.65,21.34-6.26,53.01-6.26,53.01,0,0,81.85,5.2,112.61-6.98,0,0-10.34-48.4-10.34-61.04s-5.4-139.54-9.28-146.19c-3.89-6.59-11.72-10.34-26.6-13.63-14.82-3.23-46.1-.59-46.1-.59Z" style="fill:#6d96ce; fill-rule:evenodd;"/><path d="M800.91,849.48l-5.4,35.43s19.82,42.28,31.61,38.59c9.94-3.03,3.82-40.43,3.82-40.43,0,0-5.4-20.08-3.82-30.16,1.65-10.01-26.21-3.42-26.21-3.42Z" style="fill:#f9af79; fill-rule:evenodd;"/><path d="M827.12,852.9c1.65-10.01-26.21-3.42-26.21-3.42l-.46,2.9c.86,1.98,1.84,3.69,3.09,4.94,6.19,6.65,15.87,10.67,24.3,11-.86-5.47-1.38-11.26-.72-15.41Z" style="fill:#f48661; fill-rule:evenodd;"/><path d="M796.37,799.3c-.79-.26-6.32,40.3,4.15,51.56,10.47,11.13,30.88,14.88,38.26,5.99,3.56-4.35,10.8-16.59,5.73-30.29-5.14-14.03-5.33-28.32-14.36-34.7-16.27-11.49-33.78,7.44-33.78,7.44Z" style="fill:#f9af79; fill-rule:evenodd;"/><path d="M829.3,757.42c-15.21,31.28-31.74,26.84-34.7,30.09-24.04,2.8-38.92,43.07-14.62,61.7,11.52,8.82,18.9,13.5,18.9,13.5l1.84-5.4c1.38-3.95,1.91-8.23,1.45-12.45-.26-2.44-.79-5.14-1.84-7.38-2.77-5.93,5.93-9.81,8.36-14.75,1.91-3.75,1.98-12.45,4.94-18.57l3.56-4.87s8.1-6.26,16.07-4.48c7.97,1.78,13.37-18.7-3.95-37.4Z" style="fill:#20386f; fill-rule:evenodd;"/><path d="M808.16,829.99c.07,5-2.17,9.09-5.07,9.09s-5.27-3.95-5.4-8.96c-.07-4.94,2.17-8.96,5.07-9.02,2.9-.07,5.33,3.89,5.4,8.89Z" style="fill:#f9af79; fill-rule:evenodd;"/><path d="M713.53,960.9l36.61,28.58s16.2-15.48,24.3-32.66c8.23-17.38,.99-68.09-7.7-65.72-19.62,5.27-53.21,69.8-53.21,69.8Z" style="fill:#466fb5; fill-rule:evenodd;"/><path d="M1998.88,1423.97l1.51,26.34c.53,3.29,2.63,11.46,2.63,14.55,0,11.39-50.64-9.68-39.25-14.68,.99-.53,7.97-6.52,8.3-10.4,.53-5.93,.26-15.41,.26-15.41l26.54-.4Z" style="fill:#f9af79; fill-rule:evenodd;"/><path d="M1963.91,1450.04s11.85,3.49,17.91,4.35c6.12,.92,14.16-6.45,18.5-4.48,4.74,2.24,5.07,27.26,5.07,27.26,0,0-62.36,4.74-78.36,.2-7.18-2.04,12.51-19.16,36.88-27.33Z" style="fill:#0e2952; fill-rule:evenodd;"/><path d="M1901.22,1423.97l1.45,26.34c.59,3.29,2.7,11.46,2.7,14.55,0,11.39-50.64-9.68-39.25-14.68,.99-.53,7.97-6.52,8.3-10.4,.53-5.93,.26-15.41,.26-15.41l26.54-.4Z" style="fill:#f9af79; fill-rule:evenodd;"/><path d="M1866.19,1450.04s11.92,3.49,17.98,4.35c6.12,.92,14.16-6.45,18.44-4.48,4.81,2.24,5.07,27.26,5.07,27.26,0,0-62.29,4.74-78.3,.2-7.18-2.04,12.51-19.16,36.81-27.33Z" style="fill:#0e2952; fill-rule:evenodd;"/><path d="M1858.35,735.16c-1.65,12.88-3.69,12.02-3.82,13.73-.2,1.91,11.52,25.45,11.52,25.45,0,0,34.11,69.6,36.09,73.29l60.65,51.17-15.74,37.73s-64.53-57.42-67.43-60.98c-2.9-3.69-38.39-103.06-41.82-111.68,0,0-7.77-8.86-12.45-14.58-4.68-5.7-6.65-13.2-7.77-15.08-.13-.2-3.36-6.45-5.46-15.25-1.71-7.57,3.29-1.15,3.29-1.15,0,0,5.66,13.43,6.65,12.81,.72-.53-2.83-7.67-4.81-16-.53-2.14-1.05-4.25-1.52-6.19-1.18-5.1,1.52-7.31,3.62-2.11,.72,1.81,1.84,4.84,2.37,7.15,.53,2.5,1.84,4.58,2.63,6.62,1.51,4.02,2.57,6.91,2.7,6.75,.13-.17,1.05,.39,.53-1.91-.59-2.7-3.09-8.36-3.62-12.45-.33-2.34-1.25-7.18-1.25-7.18,0,0-.13-7.54,.33-7.7,2.31-.79,3.82,4.38,3.82,7.6,1.05,2.04,1.91,7.15,1.91,7.15,0,0,3.95,9.98,5.33,9.48,.59-.23-1.12-6.65-1.91-13.17-.66-6.12-.39-12.35,.79-12.64,1.91-.56,3.42,6.16,3.42,6.16,0,0,.72,4.71,1.12,6.26,.46,1.84,2.17,7.18,2.17,7.18,0,0,6.85,18.34,8.1,17.71,1.25-.59,3.82-3.56,3.82-4.84-.07-1.25-1.38-3.62-1.38-4.84-.07-1.32,.99-2.99,2.5-3.16,1.51-.16,4.08,6.03,4.08,6.03,0,0,1.98,5.04,1.51,8.66Z" style="fill:#f9af79; fill-rule:evenodd;"/><path d="M2163.7,759.92c-.72,12.91,1.45,12.51,1.32,14.16-.2,1.98-16,22.92-16,22.92,0,0-46.16,62.29-48.73,65.59l-69.01,39.31,8.63,40.04s73.95-44.78,77.44-47.87c3.49-2.96,56.43-94.36,61.37-102.23,0,0,9.22-7.28,14.88-12.05,5.6-4.74,8.96-11.79,10.34-13.37,.2-.23,4.54-5.83,8.1-14.03,3.09-7.11-2.96-1.75-2.96-1.75,0,0-8.03,12.15-8.89,11.36-.59-.59,4.15-6.98,7.7-14.82,.86-2.04,1.78-3.99,2.57-5.86,2.04-4.81-.2-7.44-3.16-2.7-1.05,1.65-2.7,4.44-3.62,6.59-1.05,2.37-2.63,4.18-3.75,6.06-2.3,3.65-3.89,6.29-3.95,6.12-.13-.2-1.12,.23-.2-1.98,1.12-2.6,4.54-7.61,5.86-11.56,.72-2.24,2.5-6.81,2.5-6.81,0,0,1.51-7.44,1.05-7.67-2.11-1.22-4.48,3.62-5.14,6.78-1.38,1.78-3.09,6.72-3.09,6.72,0,0-5.79,9.06-6.98,8.33-.59-.36,2.3-6.36,4.21-12.64,1.78-5.83,2.63-12.05,1.58-12.55-1.84-.86-4.48,5.4-4.48,5.4,0,0-1.65,4.51-2.3,5.99-.72,1.71-3.42,6.62-3.42,6.62,0,0-10.08,16.86-11.2,16.03-1.12-.86-3.09-4.25-2.83-5.47,.26-1.25,1.98-3.32,2.24-4.57,.26-1.25-.4-3.1-1.91-3.56-1.51-.4-5.07,5.2-5.07,5.2,0,0-2.9,4.54-3.1,8.26Z" style="fill:#f9af79; fill-rule:evenodd;"/><path d="M1984.19,1089.84s-76.72,182.6-79.55,199c-2.11,12.05,.59,148.63,.59,148.63l-36.28-.59-12.77-156.07,47.81-196.77,80.21,5.8Z" style="fill:#0e2952; fill-rule:evenodd;"/><polygon points="2017.91 1098.4 1982.94 1301.22 2005.79 1436.87 1964.5 1436.87 1932.04 1290.95 1927.56 1131.06 1944.29 1079.56 2017.91 1098.4" style="fill:#20386f; fill-rule:evenodd;"/><path d="M1917.75,857.64s-9.09,40.89-15.47,47.28c0,0,32.46,21.6,30.95,30.23-1.51,8.63-35.95,169.11-35.95,169.11,0,0,70.86,36.95,114.91,31.02,0,0,33.19-182.94,41.82-191.5,8.56-8.56,35.23-22.13,35.23-22.13,0,0-19.95-38.33-19.95-45.11,0,0-47.28,22.06-55.25,29.96-8.03,8.03-23.51-2.11-27.2-3.69,0,0-63.41-41.62-69.08-45.17Z" style="fill:#6d96ce; fill-rule:evenodd;"/><path d="M2007.77,869.37l5.99,37.54s-15.74,26.21-28.38,22.26c-10.54-3.29-9.61-23.97-9.61-23.97,0,0,5.73-21.4,4.02-32.13-1.71-10.67,27.99-3.69,27.99-3.69Z" style="fill:#f9af79; fill-rule:evenodd;"/><path d="M1979.78,873.05c-1.71-10.67,27.99-3.69,27.99-3.69l.46,3.16c-.86,2.04-1.91,3.82-3.23,5.27-6.65,6.98-16.99,11.33-25.95,11.66,.86-5.86,1.45-12.05,.72-16.4Z" style="fill:#f27458; fill-rule:evenodd;"/><path d="M2012.64,815.76c.86-.26,6.72,43.13-4.48,55.05-11.13,11.98-32.92,15.87-40.76,6.45-8.63-10.4-8.17-57.03,9.22-69.34,17.32-12.31,36.02,7.84,36.02,7.84Z" style="fill:#f9af79; fill-rule:evenodd;"/><path d="M2011.59,791.89c6.12,.72,16.79,9.18,25.35,23.28,10.47,17.32-2.7,38.52-14.95,47.94-12.25,9.42-12.05,20.35-12.05,20.35l-1.98-5.66c-1.45-4.28-2.04-8.82-1.58-13.3,.33-2.63,.92-5.53,2.04-7.97,2.9-6.26-6.39-10.4-8.96-15.67-1.98-4.02-2.11-13.24-5.27-19.89l-3.75-5.07s-10.67,.92-17.19-4.81c-18.83-16.53,9.88-38.33,38.33-19.19Z" style="fill:#0e2952; fill-rule:evenodd;"/><path d="M2000.06,848.56c-.13,5.27,2.3,9.68,5.4,9.75,3.1,0,5.6-4.21,5.73-9.48,.13-5.27-2.3-9.61-5.4-9.75-3.1,0-5.66,4.21-5.73,9.48Z" style="fill:#f9af79; fill-rule:evenodd;"/></svg>