<?xml version="1.0" encoding="UTF-8"?><svg id="a" xmlns="http://www.w3.org/2000/svg" viewBox="0 0 1846.76 1389.98"><path d="M935.77,128.86c214.27,0,304.57,136.26,459.23,242.24,204.77,140.2,409.46,48.88,442.26,522.71,29.19,421.69-334.85,45.69-848.26,196.69C475.66,1241.56-47.18,1302.46,107.95,813.7,263.09,324.94,437.84,128.86,935.77,128.86Z" style="fill:#e0e8f5; fill-rule:evenodd;"/><path d="M1331.18,1231.99c-109.99,0-199.13,12.36-199.13,27.57s89.14,27.56,199.13,27.56,199.13-12.36,199.13-27.56-89.14-27.57-199.13-27.57Z" style="fill:#c4d1eb; fill-rule:evenodd;"/><path d="M1193.29,262.47h632.22c-4.55-19.21-21.8-33.47-42.37-33.47-1.02,0-2.04,0-2.99,.14-9.98-24.44-34.01-41.69-62.05-41.69-12.29,0-23.76,3.33-33.61,9.03-12.08-39.72-49.02-68.64-92.67-68.64-8.9,0-17.52,1.15-25.67,3.39-21.18-46.64-68.16-79.16-122.75-79.16-64.77,0-118.81,45.76-131.78,106.66-1.09-.07-2.17-.07-3.26-.07-41.48,0-75.7,30.96-80.79,71.08-16.91,3.19-30.35,16.09-34.29,32.72Z" style="fill:#c4d1eb; fill-rule:evenodd;"/><path d="M1208.23,710.98v44.33h32.59v-44.33h-32.59Zm621.9,108.42c.54,3.94,1.02,7.88,1.5,11.88h-16.77v22.34h19.08c.41,4.34,.82,8.83,1.22,13.31h-20.3v22.34h22.07c.13,1.56,.27,2.99,.34,4.55,2.24,31.77,2.17,58.93,0,82.15v-2.11h-22.41v22.34h19.83c-.75,4.62-1.63,8.96-2.58,13.17h-92.13v-189.97h90.16ZM83.03,1009.03c-3.73-26.27-3.73-55.67,.41-88.46h21.11v-35.04h-15.28c1.09-5.5,2.31-11.06,3.6-16.77h11.68v-35.03h-2.65c1.9-6.59,3.87-13.24,6.04-20.03,2.1-6.52,4.14-12.9,6.18-19.28v22.61h22v-35.03h-17.92c5.63-17.11,11.27-33.81,16.91-50.1l46.17,30.82v246.32H83.03Zm399.01-248.15h32.32v-32.25h-32.32v32.25h0Zm-14.05,0v-32.25h-32.25v32.25h32.25Zm0,51.39v-32.25h-32.25v32.25h32.25Zm14.05,0h32.32v-32.25h-32.32v32.25h0Zm32.32,122h-32.32v32.25h32.32v-32.25h0Zm-46.37,0h-32.25v32.25h32.25v-32.25h0Zm0-19.14v-32.25h-32.25v32.25h32.25Zm46.37-32.25h-32.32v32.25h32.32v-32.25h0Zm-94.03,126.49v-339.06l106.59,28.24v310.82h-106.59Zm47.66-145.63v-32.32h-32.25v32.32h32.25Zm-331.86-30.01h-22v35.03h22v-35.03h0Zm31.57,0h-21.93v35.03h21.93v-35.03h0Zm-31.57,51.8h-22v35.04h22v-35.04h0Zm31.57,0h-21.93v35.04h21.93v-35.04h0Zm-31.57,51.74h-22v35.03h22v-35.03h0Zm-31.57,0h-22v35.03h22v-35.03h0Zm63.14,0h-21.93v35.03h21.93v-35.03h0Zm0-155.27h-21.93v35.03h21.93v-35.03h0Zm74.21-112.29h-27.36v-29.6h27.36v29.6h0Zm0,50.17h-27.36v-29.6h27.36v29.6h0Zm0,50.17h-27.36v-29.53h27.36v29.53h0Zm0,50.24h-27.36v-29.6h27.36v29.6h0Zm0,50.17h-27.36v-29.6h27.36v29.6h0Zm0,50.17h-27.36v-29.53h27.36v29.53h0Zm0,50.24h-27.36v-29.6h27.36v29.6h0Zm17.79-29.6h29.6v29.6h-29.6v-29.6h0Zm0-50.17h29.6v29.53h-29.6v-29.53h0Zm0-50.24h29.6v29.6h-29.6v-29.6h0Zm0-50.17h29.6v29.6h-29.6v-29.6h0Zm0-50.17h29.6v29.53h-29.6v-29.53h0Zm0-50.24h29.6v29.6h-29.6v-29.6h0Zm0-50.17h29.6v29.6h-29.6v-29.6h0Zm76.92,29.6h-29.6v-29.6h29.6v29.6h0Zm0,50.17h-29.6v-29.6h29.6v29.6h0Zm0,50.17h-29.6v-29.53h29.6v29.53h0Zm0,50.24h-29.6v-29.6h29.6v29.6h0Zm0,50.17h-29.6v-29.6h29.6v29.6h0Zm0,50.17h-29.6v-29.53h29.6v29.53h0Zm0,50.24h-29.6v-29.6h29.6v29.6h0Zm17.79-29.6h28.92v29.6h-28.92v-29.6h0Zm0-50.17h28.92v29.53h-28.92v-29.53h0Zm0-50.24h28.92v29.6h-28.92v-29.6h0Zm0-50.17h28.92v29.6h-28.92v-29.6h0Zm0-50.17h28.92v29.53h-28.92v-29.53h0Zm0-50.24h28.92v29.6h-28.92v-29.6h0Zm0-50.17h28.92v29.6h-28.92v-29.6h0Zm22.13-31.71v-11.07c0-5.77-4.68-10.45-10.46-10.45h-127.71c-5.77,0-10.46,4.68-10.46,10.45v11.07h-32.93v400.84h208.5v-400.84h-26.95Zm137.82,223.03h-32.32v32.32h32.32v-32.32h0Zm88.53-59.54v29.87h27.77v-29.87h-27.77Zm42.43,0v29.87h27.77v-29.87h-27.77Zm-84.87,0v29.87h27.77v-29.87h-27.77Zm42.43,47.53v29.87h27.77v-29.87h-27.77Zm42.43,0v29.87h27.77v-29.87h-27.77Zm-84.87,0v29.87h27.77v-29.87h-27.77Zm42.43,47.53v29.87h27.77v-29.87h-27.77Zm42.43,0v29.87h27.77v-29.87h-27.77Zm-84.87,0v29.87h27.77v-29.87h-27.77Zm42.43,47.52v29.87h27.77v-29.87h-27.77Zm42.43,0v29.87h27.77v-29.87h-27.77Zm-84.87,0v29.87h27.77v-29.87h-27.77Zm42.43,47.53v29.87h27.77v-29.87h-27.77Zm42.43,0v29.87h27.77v-29.87h-27.77Zm-84.87,0v29.87h27.77v-29.87h-27.77Zm355.01-130.69v22.34h31.23v-22.34h-31.23Zm42.23,0v22.34h31.3v-22.34h-31.3Zm-84.53,0v22.34h31.3v-22.34h-31.3Zm42.3,35.64v22.34h31.23v-22.34h-31.23Zm42.23,0v22.34h31.3v-22.34h-31.3Zm-84.53,0v22.34h31.3v-22.34h-31.3Zm42.3,35.64v22.34h31.23v-22.34h-31.23Zm42.23,0v22.34h31.3v-22.34h-31.3Zm-84.53,0v22.34h31.3v-22.34h-31.3Zm42.3,35.64v22.34h31.23v-22.34h-31.23Zm42.23,0v22.34h31.3v-22.34h-31.3Zm-84.53,0v22.34h31.3v-22.34h-31.3Zm42.3,35.65v22.34h31.23v-22.34h-31.23Zm42.23,0v22.34h31.3v-22.34h-31.3Zm-84.53,0v22.34h31.3v-22.34h-31.3Zm-12.02-208.09l139.93,53.63v189.97h-139.93v-243.6h0Zm-98.92-134.5h25.87v36.39h-25.87v-36.39h0Zm37.07,0h25.8v36.39h-25.8v-36.39h0Zm-37.07,54.59h25.87v36.39h-25.87v-36.39h0Zm37.07,0h25.8v36.39h-25.8v-36.39h0Zm-74.14,0h25.87v36.39h-25.87v-36.39h0Zm37.07,54.59h25.87v36.46h-25.87v-36.46h0Zm37.07,0h25.8v36.46h-25.8v-36.46h0Zm-74.14,0h25.87v36.46h-25.87v-36.46h0Zm37.07,54.66h25.87v36.39h-25.87v-36.39h0Zm37.07,0h25.8v36.39h-25.8v-36.39h0Zm-74.14,0h25.87v36.39h-25.87v-36.39h0Zm37.07,54.58h25.87v36.39h-25.87v-36.39h0Zm37.07,0h25.8v36.39h-25.8v-36.39h0Zm-74.14,0h25.87v36.39h-25.87v-36.39h0Zm37.07,54.59h25.87v36.39h-25.87v-36.39h0Zm37.07,0h25.8v36.39h-25.8v-36.39h0Zm-74.14,0h25.87v36.39h-25.87v-36.39h0Zm37.07,54.59h25.87v36.39h-25.87v-36.39h0Zm37.07,0h25.8v36.39h-25.8v-36.39h0Zm-74.14,0h25.87v36.39h-25.87v-36.39h0Zm0-327.59h25.87v36.39h-25.87v-36.39h0Zm54.31-31.16v-66.4h-8.76v66.4h-45.56v17.31h-17.58v391.95h135.11v-391.95h-17.65v-17.31h-45.56Zm-235.11,156.02l144.81-62.67v315.91h-144.81v-253.24h0Zm956.61,15.75v29.87h29.81v-29.87h-29.81Zm42.77,0v29.87h29.87v-29.87h-29.87Zm-85.61,0v29.87h29.8v-29.87h-29.8Zm42.84,47.53v29.87h29.81v-29.87h-29.81Zm42.77,0v29.87h29.87v-29.87h-29.87Zm-85.61,0v29.87h29.8v-29.87h-29.8Zm42.84,47.53v29.87h29.81v-29.87h-29.81Zm42.77,0v29.87h29.87v-29.87h-29.87Zm-85.61,0v29.87h29.8v-29.87h-29.8Zm42.84,47.52v29.87h29.81v-29.87h-29.81Zm42.77,0v29.87h29.87v-29.87h-29.87Zm-85.61,0v29.87h29.8v-29.87h-29.8Zm42.84,47.53v29.87h29.81v-29.87h-29.81Zm42.77,0v29.87h29.87v-29.87h-29.87Zm-85.61,0v29.87h29.8v-29.87h-29.8Zm324.6-130.69v22.34h22.4v-22.34h-22.4Zm-32.11,0v22.34h22.4v-22.34h-22.4Zm32.11,35.64v22.34h22.4v-22.34h-22.4Zm-32.11,0v22.34h22.4v-22.34h-22.4Zm32.11,35.64v22.34h22.4v-22.34h-22.4Zm32.11,0v22.34h22.41v-22.34h-22.41Zm-64.23,0v22.34h22.4v-22.34h-22.4Zm32.11,35.64v22.34h22.4v-22.34h-22.4Zm32.11,0v22.34h22.41v-22.34h-22.41Zm-64.23,0v22.34h22.4v-22.34h-22.4Zm32.11,35.65v22.34h22.4v-22.34h-22.4Zm-32.11,0v22.34h22.4v-22.34h-22.4Zm-98.11-342.59h22.81v36.39h-22.81v-36.39h0Zm32.73,0h22.88v36.39h-22.88v-36.39h0Zm-32.73,54.59h22.81v36.46h-22.81v-36.46h0Zm32.73,0h22.88v36.46h-22.88v-36.46h0Zm-65.52,0h22.81v36.46h-22.81v-36.46h0Zm32.79,54.59h22.81v36.46h-22.81v-36.46h0Zm32.73,0h22.88v36.46h-22.88v-36.46h0Zm-65.52,0h22.81v36.46h-22.81v-36.46h0Zm32.79,54.66h22.81v36.39h-22.81v-36.39h0Zm32.73,0h22.88v36.39h-22.88v-36.39h0Zm-65.52,0h22.81v36.39h-22.81v-36.39h0Zm32.79,54.58h22.81v36.39h-22.81v-36.39h0Zm32.73,0h22.88v36.39h-22.88v-36.39h0Zm-65.52,0h22.81v36.39h-22.81v-36.39h0Zm32.79,54.59h22.81v36.39h-22.81v-36.39h0Zm32.73,0h22.88v36.39h-22.88v-36.39h0Zm-65.52,0h22.81v36.39h-22.81v-36.39h0Zm32.79,54.59h22.81v36.39h-22.81v-36.39h0Zm32.73,0h22.88v36.39h-22.88v-36.39h0Zm-65.52,0h22.81v36.39h-22.81v-36.39h0Zm0-327.59h22.81v36.39h-22.81v-36.39h0Zm-15.55,378.1h119.49v-459.43l-119.49,66.94v392.49h0Zm-160.29-253.24h143.93v253.24h-143.93v-253.24h0Zm-188.81-45.15v44.33h32.59v-44.33h-32.59Zm-46.85,57.23v44.34h32.59v-44.34h-32.59Zm46.85,0v44.34h32.59v-44.34h-32.59Zm-93.69,0v44.34h32.59v-44.34h-32.59Zm46.85,57.23v44.33h32.59v-44.33h-32.59Zm46.85,0v44.33h32.59v-44.33h-32.59Zm-93.69,0v44.33h32.59v-44.33h-32.59Zm46.85,57.24v44.33h32.59v-44.33h-32.59Zm46.85,0v44.33h32.59v-44.33h-32.59Zm-93.69,0v44.33h32.59v-44.33h-32.59Zm46.85,57.3v44.33h32.59v-44.33h-32.59Zm46.85,0v44.33h32.59v-44.33h-32.59Zm-93.69,0v44.33h32.59v-44.33h-32.59Zm0-229v44.33h32.59v-44.33h-32.59Zm-83.17,55.47v30.89h25.26v-30.89h-25.26Zm0,41.75v30.96h25.26v-30.96h-25.26Zm-44.61,0v30.96h25.26v-30.96h-25.26Zm44.61,41.82v30.96h25.26v-30.96h-25.26Zm-44.61,0v30.96h25.26v-30.96h-25.26Zm44.61,41.75v30.96h25.26v-30.96h-25.26Zm-44.61,0v30.96h25.26v-30.96h-25.26Zm44.61,41.82v30.96h25.26v-30.96h-25.26Zm-44.61,0v30.96h25.26v-30.96h-25.26Zm0-167.15v30.89h25.26v-30.89h-25.26Zm92.47-33.4h-118.27v-28.85h118.27v28.85h0Zm0,276.33h-106.12v-266.01h106.12v266.01h0Zm214.47-61.92h80.79v17.58h-80.79v-17.58h0Zm1.29-30.89h80.79v17.59h-80.79v-17.59h0Zm-17.18,92.81h112.5v-108.02c0-11.95-9.78-21.73-21.73-21.73h-90.77v129.74h0Zm-186.03-327.04h37v-33.33h32.52v-54.99l17.92-14.87,15.34,14.87v54.99h30.21v33.33h38.7v327.04h-171.7v-327.04Z" style="fill:#c4d1eb; fill-rule:evenodd;"/><path d="M81.54,996.4H1834.61c-41.42,250.05-382.78-42.03-845.61,94.1-437.16,128.66-881.05,191.8-907.46-94.1Z" style="fill:#b0c2e4; fill-rule:evenodd;"/><path d="M944.87,1280.4c498.06,0,901.89,24.51,901.89,54.79s-403.83,54.79-901.89,54.79-901.96-24.51-901.96-54.79,403.83-54.79,901.96-54.79Z" style="fill:#c4d1eb; fill-rule:evenodd;"/><path d="M275.24,816.01c5.57,4.89,11.68,6.93,18.81,5.43-6.72,5.09-15.96,1.16-18.81-5.43Z" style="fill:#f48661; fill-rule:evenodd;"/><path d="M300.43,1300.97c-1.09-7.6,1.29-20.57,7.2-40.87-11.68,0-21.52-5.16-33.54-4.96-3.26,19.08-8.35,50.44-8.35,50.44l-.54,24.85,83.37,.61s-.68,.34-25.26-15.14c-1.83-1.15-21.86-7.67-22.88-14.94Z" style="fill:#f9af79; fill-rule:evenodd;"/><path d="M264.85,1336.81h86.02c3.19-.27,3.94-2.92,2.85-4.48-2.31-3.33-19.08-11.2-30.35-16.5-19.76,2.11-54.59-6.04-57.71-10.59-5.43,15.14-2.58,31.16-.81,31.57Z" style="fill:#0e2952; fill-rule:evenodd;"/><path d="M196.62,1300.97c-1.09-7.6-2.92-17.04-.27-42.23-11.68,.07-22.88-2.17-34.83-1.97,0,19.62,.41,48.81,.41,48.81l-.54,24.85,83.37,.61s-.75,.34-25.26-15.14c-1.83-1.15-21.93-7.67-22.88-14.94Z" style="fill:#f9af79; fill-rule:evenodd;"/><path d="M160.98,1336.81h86.09c3.19-.27,3.94-2.92,2.85-4.48-2.31-3.33-19.08-11.2-30.35-16.5-19.82,2.11-54.59-6.04-57.71-10.59-5.43,15.14-2.65,31.16-.88,31.57Z" style="fill:#0e2952; fill-rule:evenodd;"/><path d="M257.11,581.23l31.37-33.06s33.61,18.4,72.71,36.05c10.73-18.67,28.31-80.32,29.19-83.24,.95-2.92-20.5-39.92-15.68-40.87,4.75-.88,11,19.76,16.09,17.65,5.09-2.11,18.2-50.04,21.25-47.39,5.7,4.89-6.92,29.8-3.87,31.64,2.99,1.77,10.66-27.63,16.5-26.41,5.84,1.22-9.84,26.82-8.15,29.26,1.77,2.44,18.13-21.52,21.52-15.95,1.83,2.99-15.14,20.91-11.61,22.88,3.46,2.04,18.74-9.23,20.57-5.57,1.83,3.6-14.26,7.4-18.74,16.63-4.41,9.23-12.56,12.83-15.28,30.28-2.65,17.45-10.05,110.67-29.06,118.13-16.57,6.52-126.82-50.04-126.82-50.04Z" style="fill:#f9af79; fill-rule:evenodd;"/><path d="M277.41,759.59l-25.46,14.19-51.67,79.03,92.4,217.53s-10.39,32.73-13.78,49.09c-3.53,17.04-12.22,163.83-12.22,163.83l39.38,.68s37.48-156.22,43.79-206.94c7.74-61.58-39.17-208.23-39.17-208.23-8.76-29.94-27.56-91.52-27.56-91.52,0,0-4.62-15.01-5.7-17.65Z" style="fill:#20386f; fill-rule:evenodd;"/><path d="M188.95,729.92s2.58,18.6-7.94,39.78c-6.38,12.97-17.45,23.08-25.39,38.9-15,29.94-23.15,72.51-17.52,99.87,0,0,30.96,118.47,29.74,161.79-.41,15.96-5.91,44.74-9.37,64.16-3.12,17.18-4.21,146.85-4.21,146.85l44.06-1.29,33.74-209.18,14.26-185.96,31.1-125.26-88.47-29.67Z" style="fill:#223f81; fill-rule:evenodd;"/><path d="M282.16,456.92c-3.94-18.33-7.94-36.8-26.21-50.04-14.8-10.73-30.62-13.78-47.53-7.67-47.73,17.31-22,55.2-81.27,95.52-18.4,12.56-25.39,16.91-38.56,33.67-18.54,23.36-28.58,54.79-19.28,80.59,19.21,53.43,78.69,68.91,109.85,57.57,57.98-21.11,106.32-94.64,109.51-114.67,3.4-21.52-4-83.1-6.52-94.98Z" style="fill:#20386f; fill-rule:evenodd;"/><path d="M291.4,602.01c14.05,6.45,39.45,16.23,39.45,16.23l14.46-45.76c-81.74-46.51-75.29-38.97-136.6-38.09-49.02,.75-69.59-8.62-111.75,105.3,0,0,32.11,14.39,43.59,19.01,5.02-14.05,13.92-42.16,19.14-26.14,7.88,24.17,13.65,48.61,17.52,73.73,2.44,14.94,7.74,34.02,4.96,49.16,0,0,33.4,6.86,58.86,8.01h.2c12.36-.34,24.92-1.42,36.19-3.87,0,0,5.02-105.64,7.67-110.06,2.92-4.89,15.41-20.64,4.82-44.2-1.9-4.21-1.43-4.69,1.49-3.33Z" style="fill:#6d96ce; fill-rule:evenodd;"/><path d="M230.09,785.39c.54,.07,3.12-.27,5.3-.21,2.92,.07,5.5,.48,5.5,.48,0,0,1.15-1.02,3.4-2.04,.95-.41,2.38-.54,3.39-1.02,1.09-.54,1.97-1.43,2.99-1.83,2.58-1.16,4.96-1.42,5.77-.07,.68,1.16-13.78,9.98-13.78,9.98-13.44,.14-27.5,6.93-58.59-13.31-17.72-7.81-103.88-50.38-105.57-59.61-1.02-5.23,12.22-45.49,23.02-76.11,8.35,3.73,26.07,11.61,35.98,15.75-9.1,19.35-19.82,44.88-18.74,48,.34,.81,1.43,2.24,59.68,40.4,1.43,.95,2.92,1.97,4.48,2.92,4.07,2.72,8.49,5.57,13.1,8.62l16.63-1.76s26.34,1.83,27.09,4.82c.34,1.36-1.83,2.04-4.48,2.44h-.14c-.34,.07-.75,.13-1.15,.13h-.07c-2.85,.34-5.91,.41-6.65,.68-.81,.27-2.51,.95-4.01,1.97,16.43,6.65,15.14,4.28,20.64,3.94,1.36-.14,2.78,.34,4.07,.2,2.17-.2,3.94-1.49,5.7-1.63,2.44-.13,4.48,1.02,4.96,1.49,.54,.61-.54,1.43-2.65,2.38-12.63,5.5-23.15,3.4-26.48,4.21-2.24,.54,1.83,1.43,8.28,.75,1.63-.2,3.73,.41,5.84-.14,1.43-.27,2.72-1.22,4.07-1.56,1.36-.34,2.65-.27,3.73-.47,1.42-.27,3.39-1.36,4.48-1.5,4.21-.47,6.25,.27,6.72,.68,1.02,.81-18.13,8.15-18.13,8.15,0,0-13.17,1.9-16.09,1.9,0,0-1.76,.81,1.7,1.36Z" style="fill:#f9af79; fill-rule:evenodd;"/><path d="M214.68,489.31s-3.73,30.21-5.91,40.67c-2.31,10.93-5.77,45.49,16.97,51.06,22.68,5.64,15.68-37.54,16.09-48.68,.34-11.13,6.79-49.97,6.79-49.97l-33.95,6.92Z" style="fill:#f9af79; fill-rule:evenodd;"/><path d="M213.46,498.95c.27,.14,.48,.27,.68,.48,12.56,7.13,23.49,6.04,31.71,.41,1.49-9.64,2.78-17.45,2.78-17.45l-33.95,6.92s-.48,4.07-1.22,9.64Z" style="fill:#f27458; fill-rule:evenodd;"/><path d="M221.54,410.75s-13.31,3.73-20.98,16.97c-7.67,13.24-11.47,51.19,16.77,67.42,28.24,16.23,48.27-9.78,47.46-34.01-.88-24.31-7.6-56.42-43.25-50.38Z" style="fill:#f9af79; fill-rule:evenodd;"/><path d="M271.03,450.67c.27,6.32-2.38,11.61-6.04,11.75-3.6,.2-6.86-4.75-7.2-11.07-.27-6.31,2.38-11.61,6.04-11.75,3.66-.2,6.86,4.75,7.2,11.07Z" style="fill:#f9af79; fill-rule:evenodd;"/><path d="M225.54,409.74s-15.28,39.79-30.14,44c-14.94,4.21-13.72,23.76-13.72,23.76,0,0-1.9-45.15,11.68-56.22,13.65-11.07,32.18-11.54,32.18-11.54Z" style="fill:#20386f; fill-rule:evenodd;"/><path d="M201.78,461.54c2.31,6.18,.81,12.49-3.39,14.05-4.14,1.56-9.37-2.17-11.68-8.42-2.31-6.18-.81-12.49,3.39-14.05,4.14-1.56,9.37,2.17,11.68,8.42Z" style="fill:#f9af79; fill-rule:evenodd;"/><path d="M1524,793.4c15.28-4.28,15.62-1.49,17.58-2.1,2.24-.75,20.91-25.39,20.91-25.39,0,0,55.47-72.44,58.32-76.45l18.2-94.24,51.8,.07s-22.68,101.77-24.85,106.8c-2.17,5.03-89.75,93.22-97.22,101.23,0,0-4.89,13.24-8.21,21.32-3.33,8.08-10.39,14.05-11.75,16.09-.2,.34-5.02,7.06-13.44,13.58-7.27,5.63-3.4-3.19-3.4-3.19,0,0,11.27-12.9,9.98-13.72-1.02-.61-6.65,6.79-14.6,13.11-2.04,1.63-4.08,3.26-5.97,4.68-4.89,3.8-9.03,1.76-4.62-3.12,1.56-1.7,4.21-4.48,6.45-6.18,2.38-1.83,3.94-4.28,5.63-6.11,3.46-3.73,6.04-6.31,5.77-6.45-.34-.07-.2-1.36-2.44,.34-2.71,1.97-7.26,7.53-11.47,10.05-2.44,1.56-7.2,4.96-7.2,4.96,0,0-8.28,3.67-8.76,3.26-2.31-2.31,2.44-6.45,5.97-8.01,1.63-2.17,6.79-5.57,6.79-5.57,0,0,8.56-9.37,7.06-10.73-.61-.54-6.65,4.55-13.44,8.49-6.25,3.67-13.38,6.38-14.46,5.16-1.76-1.97,4.69-6.86,4.69-6.86,0,0,4.75-3.12,6.25-4.35,1.7-1.29,6.59-5.91,6.59-5.91,0,0,15.96-16.56,14.46-17.72-1.49-1.15-6.38-2.78-7.74-2.17-1.43,.68-3.19,3.33-4.62,3.94-1.36,.68-3.87,.27-5.03-1.36-1.09-1.7,4.07-7.54,4.07-7.54,0,0,4.28-4.68,8.69-5.91Z" style="fill:#f9af79; fill-rule:evenodd;"/><path d="M1605.2,1268.04l1.56,32.59c.61,4.21,3.19,14.46,3.12,18.2-.14,14.12-62.74-12.63-48.61-18.74,1.36-.54,8.08-4.75,8.56-9.57,.68-7.4,2.44-22.34,2.44-22.34l32.93-.14Z" style="fill:#f9af79; fill-rule:evenodd;"/><path d="M1561.47,1299.95s14.73,4.48,22.27,5.63c7.54,1.16,17.58-7.81,22.95-5.36,5.84,2.78,4.96,29.4,4.96,29.4,0,0-78.82,3.87-101.03-3.6-8.76-2.85,20.57-16.36,50.85-26.07Z" style="fill:#0e2952; fill-rule:evenodd;"/><path d="M1743.7,1272.52l1.5,32.72c.61,4.14,3.19,14.39,3.12,18.2-.13,14.12-62.67-12.7-48.54-18.81,1.29-.61,10.05-7.94,10.46-12.76,.75-7.4,.54-19.21,.54-19.21l32.93-.13Z" style="fill:#f9af79; fill-rule:evenodd;"/><path d="M1699.91,1304.43s14.73,4.55,22.27,5.77c7.54,1.09,17.59-7.88,22.95-5.43,5.84,2.79,5.84,27.16,5.84,27.16,0,0-84.25,5.23-104.01-.75-8.89-2.58,22.68-16.91,52.96-26.75Z" style="fill:#0e2952; fill-rule:evenodd;"/><path d="M1648.85,801.21l-26.68,11.2-58.59,266.41,.2,200.15,44.74,1.43s22.68-174.76,22.81-188.34c.14-13.58,98.99-236.47,98.99-236.47l-81.47-54.38Z" style="fill:#20386f; fill-rule:evenodd;"/><path d="M1669.22,816.14s17.51,205.78,17.11,240.48c-.34,34.69,13.58,228.94,13.58,228.94l44.88,.13s3.87-59.07,9.58-146.04c.88-13.65-.54-41.14,.54-55.2,8.01-101.43,22.81-196.82,16.63-234.78-1.02-6.11-2.85-22.07-6.65-26.14-29.13-30.69-95.66-7.4-95.66-7.4Z" style="fill:#20386f; fill-rule:evenodd;"/><path d="M1616.13,653.27l54.38-3.12s3.19-48.61,3.39-71.76c.27-28.11,9.3-69.45,5.91-68.71-9.37,2.1-25.73,10.52-33.34,21.05-26.48,35.98-30.35,122.55-30.35,122.55Z" style="fill:#466fb5; fill-rule:evenodd;"/><path d="M1746.35,509.27s30.96,4.68,39.11,10.73c9.1,6.79,19.14,22.07,19.14,22.07,0,0-39.92,179.44-40.33,209.79-.27,23.29,7.47,80.93,7.47,80.93,0,0-115.08,6.11-158.46-11.61,0,0,14.46-68.16,14.6-86.16,.2-17.92,18.33-181.07,22.2-192.41,3.53-10.32,9.91-28.79,30.96-33.27,21.05-4.35,65.31-.07,65.31-.07Z" style="fill:#6d96ce; fill-rule:evenodd;"/><path d="M1738.4,460.72l7.13,50.38s-28.58,59.54-45.29,54.11c-13.98-4.41-4.82-57.3-4.82-57.3,0,0,7.95-28.31,5.84-42.64-2.17-14.19,37.14-4.55,37.14-4.55Z" style="fill:#f9af79; fill-rule:evenodd;"/><path d="M1701.27,465.27c-2.17-14.19,37.14-4.55,37.14-4.55l.61,4.21c-1.22,2.78-2.65,5.09-4.34,6.92-8.89,9.37-22.75,14.87-34.62,15.14,1.29-7.6,2.04-15.82,1.22-21.73Z" style="fill:#f27458; fill-rule:evenodd;"/><path d="M1745.6,389.77c1.16-.41,8.35,57.3-6.65,72.99-15,15.68-43.93,20.64-54.18,8.01-11.34-13.92-10.12-75.84,13.11-91.93,23.22-16.02,47.73,10.93,47.73,10.93Z" style="fill:#f9af79; fill-rule:evenodd;"/><path d="M1706.97,347.89c17.79,3.73,29.26,14.66,33.4,19.35,8.08,1.09,19.08,5.57,30.21,24.37,13.71,23.08,3.19,48.41-13.24,60.83-16.36,12.29-16.29,26.82-16.29,26.82l-2.51-7.6c-1.83-5.63-2.51-11.68-1.83-17.58,.41-3.53,1.22-7.47,2.72-10.52,4.01-8.35-8.21-13.99-11.61-20.98-2.58-5.36-2.58-17.59-6.72-26.41l-4.89-6.86s-11.47-9.03-22.81-6.65c-11.27,2.44-9.23-39.72,13.58-34.76Z" style="fill:#20386f; fill-rule:evenodd;"/><path d="M1728.42,433.16c-.13,6.99,2.99,12.76,7.06,12.9,4.14,.07,7.6-5.57,7.74-12.49,.2-7.13-2.92-12.9-6.99-12.97-4.14-.07-7.54,5.5-7.81,12.56Z" style="fill:#f9af79; fill-rule:evenodd;"/><path d="M1793.13,532.89c-10.45-.41-20.37,68.37-13.85,75.16,6.59,6.86,6.93,91.65,6.93,91.65l-98.31-3.53v.07c-1.97-1.36-22.41-15.41-25.32-18.4-3.06-3.26-18.13-1.83-22.13,2.51-4.01,4.28,7.6,2.24,11.13,4.62,3.53,2.44-1.49,6.99-1.49,6.99,0,0-24.98,3.33-29.81-1.83-4.82-5.23-17.72-14.12-19.49-8.96-.95,2.72,5.64,10.8,9.37,14.19-4.68-3.53-10.25-7.33-12.22-6.72-3.53,1.22-2.11,5.7-.21,7.06,1.9,1.29,21.52,16.56,24.65,17.72,2.98,1.09,49.02,2.65,56.96,4.48,0,0,129.41,30.89,136.81,29.13,6.52-1.56,13.37-42.98,13.72-74.82,.34-31.84-4.21-138.03-36.73-139.32Z" style="fill:#f9af79; fill-rule:evenodd;"/><path d="M1779.75,517.14s18.13,4.35,36.59,25.59c16.91,19.28,26.55,126.69,26.55,126.69l-59,8.89-4.14-51.94c-24.51-37.75-30.42-82.9,0-109.24Z" style="fill:#466fb5; fill-rule:evenodd;"/><polygon points="1327.24 738.47 1128.59 738.47 1307.69 0 1102.38 0 787.29 0 581.98 0 761.08 738.47 562.43 738.47 562.43 738.47 944.87 1193.9 1327.24 738.47 1327.24 738.47" style="fill:#859ac6; fill-rule:evenodd;"/><path d="M1189.29,176.93c0-36.39-8.08-63.41-24.1-80.93-16.02-17.58-37.75-26.41-65.18-26.41s-50.58,8.76-66.6,26.21c-16.09,17.45-24.04,44.54-24.04,81.13s7.94,63.41,24.04,80.93c16.02,17.59,37.82,26.41,65.25,26.41s50.51-8.76,66.54-26.21c16.02-17.45,24.1-44.47,24.1-81.13h0Zm-60.9,0c0,26.27-3.05,43.93-9.23,52.96-4.62,6.65-11.06,9.98-19.28,9.98s-14.87-3.33-19.55-9.98c-5.97-9.03-8.89-26.68-8.89-52.96s2.92-43.86,8.89-52.68c4.69-6.79,11.2-10.25,19.55-10.25s14.67,3.33,19.28,9.98c6.18,9.03,9.23,26.68,9.23,52.96h0Zm-87.99,323.71L824.56,69.59h56.56l217.05,431.05h-57.78Zm-126.14-107.54c0-36.53-8.01-63.55-24.1-81.2-16.02-17.65-37.95-26.48-65.72-26.48s-50.04,8.82-66.06,26.48c-16.02,17.65-24.03,44.67-24.03,81.2s8.01,63.96,24.03,81.61c16.02,17.65,37.82,26.48,65.24,26.48s50.51-8.83,66.54-26.48c16.09-17.65,24.1-44.74,24.1-81.61h0Zm-60.9,.2c0-26.55-3.05-44.4-9.23-53.43-4.41-6.72-10.86-10.05-19.21-10.05s-14.94,3.33-19.55,10.05c-5.97,9.03-8.96,26.89-8.96,53.43s3.05,44.4,9.23,53.43c4.41,6.72,10.93,10.05,19.28,10.05s14.6-3.4,19.21-10.32c6.18-8.83,9.23-26.61,9.23-53.16Z" style="fill:#fff; fill-rule:evenodd;"/><path d="M1407.7,525.83c-4.82,.34-9.44-5.36-10.79-7.06-5.09-6.52-8.35-14.12-9.71-18.4,1.02-2.85,2.04-6.45,3.12-10.79,18.6-12.56,21.12-21.93,7.6-27.97-2.72,1.56-6.04,6.25-10.05,14.05-3.26-.07-5.7-1.76-7.33-4.89,3.8-13.24,6.31-24.03,7.47-32.32-9.16-13.58-30.48-15.55-58.79-11.88-1.36,7.54-2.38,15.55-3.26,23.97-4.96,4.62-4.34,21.66,.27,41.41-2.31,11.13,4.62,17.25,20.78,18.33,.13,2.65-.14,5.77-.2,7.67,0,1.7-.07,5.09-1.83,5.64l-2.99,.68c.27,40.06,20.78,47.8,65.72,1.56Z" style="fill:#f9af79; fill-rule:evenodd;"/><path d="M1329.21,426.57c28.31-3.67,49.63-1.7,58.79,11.88-1.15,8.28-3.67,19.08-7.47,32.32,1.63,3.12,4.07,4.75,7.33,4.89,4.01-7.81,7.4-12.49,10.05-14.05,13.51,6.04,11,15.41-7.6,27.97-1.09,4.35-2.1,7.94-3.12,10.79,16.7-3.73,30.68-18.67,32.66-25.12,19.42-38.36-2.24-54.59-13.85-60.49-5.16-37.95-60.49-5.09-75.09-28.31-30.48,17.38-10.25,39.78-1.7,40.12Z" style="fill:#20386f; fill-rule:evenodd;"/><path d="M1365.54,506.35c-4.48,2.24-10.73,3.53-18.53,3.94,.13,2.65,0,5.7-.2,7.6,7.94-1.5,14.19-5.36,18.74-11.54Z" style="fill:#ed7d57; fill-rule:evenodd;"/><path d="M1441.44,1275.71c17.58-6.18,19.01-15.21,28.45-19.62,9.57-4.48,10.66-12.43,1.36-20.98-6.92,5.5-15.48,12.22-19.96,8.62-3.06-2.38-13.31-2.17-15.34,1.29-8.89,20.78-21.32,14.19-23.76,23.63-.34,12.56,21.18,9.98,29.26,7.06Z" style="fill:#0e2952; fill-rule:evenodd;"/><path d="M1289.15,1255.14c30.96-.54,54.11-.88,64.77-4.28,11.54-3.67,9.17-10.66,2.51-21.93-29.12,13.44-21.38-2.78-35.03-.68-9.57,7.67-23.76,12.83-42.57,15.48-7.94,5.9-4.75,11.13,10.32,11.41Z" style="fill:#0e2952; fill-rule:evenodd;"/><path d="M1304.64,530.38c15.41-4.48,29.33-7.2,41.62-8.15,2.24,33.95,19.89,33.68,53.09-.75,31.98,2.72,38.22,3.12,55.94,8.89,38.43,36.66,41.96,78.96,61.99,127.3-22.2,.95-32.18,3.67-47.25,9.03-3.26-11.61-5.97-20.91-8.15-27.97,.61,63.75,.82,107.41,.68,131.03-73.46,29.13-133.95,19.15-158.66-3.53-.34-56.69-.81-101.5-1.42-134.56-8.76,10.32-16.91,18.33-24.44,24.03-17.99-20.64-30.15-28.92-40.4-41.07,22.61-37.14,54.99-71.69,67.01-84.25Z" style="fill:#6d96ce; fill-rule:evenodd;"/><path d="M1156.56,592.44c38.63,16.09,65.65,29.33,81.07,39.79l6.86-10.19c6.38,6.38,13.71,12.7,22.54,21.79-8.15,8.62-17.04,15.68-27.3,21.66-26.82-2.85-56.42-23.22-88.87-60.97-10.12-1.97-17.58-5.64-22.34-10.93-.21-4.89,2.24-9.78,7.4-14.66-13.51-8.76-18.81-15-16.09-18.81,21.04,13.04,33.34,23.83,36.73,32.32Z" style="fill:#f9af79; fill-rule:evenodd;"/><path d="M1303.89,766.24c1.42,5.5-4.55,37.89-5.57,54.79-9.71,60.29-1.36,138.71,3.87,239.59,9.44,35.58,23.29,82.97,22.41,149.64,16.43,5.03,22.34,5.5,37.14,1.77,10.32-69.59,3.26-125.33-6.04-151.06,5.97-39.79,14.87-84.32,27.9-148.55,14.6,70,34.22,121.94,42.71,155.81,1.7,37.82,9.3,88.8,13.3,153.03,12.22,3.67,19.76,4.75,32.39,3.19,16.36-59,13.65-123.23,6.72-192.68-7.4-83.44,4.75-177.68-7.47-210.4-6.18-19.35-6.99-36.53-8.69-51.6-61.31,20.44-114.13,19.21-158.66-3.53Z" style="fill:#466fb5; fill-rule:evenodd;"/><path d="M1451.29,705c3.94,.61,7.67,1.15,11.13,1.63,.2,28.11,.2,49.16,.14,63.14-3.46,1.56-8.35,3.33-12.15,3.8,.07-1.83,.61-5.97,.61-7.74,.27-21.52,.34-41.75,.27-60.83h0Zm-179.58-56.35c10.8-8.96,21.12-23.63,30.89-43.86-1.15,7.06-1.56,16.5-1.36,28.31-8.28,9.64-16.02,17.18-23.22,22.61-2.17-2.51-4.28-4.82-6.32-7.06h0Zm176.52-54.79c4.75,15.34,9.3,30.28,13.65,44.88,.14,12.35,.2,23.9,.27,34.69-3.12-.27-6.79-.47-11.2-.61-.41-29.87-1.36-56.22-2.72-78.96Z" style="fill:#466fb5; fill-rule:evenodd;"/><path d="M1351.28,615.93h-80.86c-3.73,0-6.25,2.99-5.71,6.72l18.2,114.53c.54,3.74,4.07,6.79,7.74,6.79h80.93c3.67,0,6.25-3.05,5.64-6.79l-18.13-114.53c-.61-3.73-4.14-6.72-7.81-6.72Z" style="fill:#223f81; fill-rule:evenodd;"/><path d="M1509.81,658.09c3.53,14.19,4.96,27.16,2.11,44.4-8.76,12.63-43.93,5.57-134.63-9.64-3.26,2.99-9.98,5.98-20.16,4.62-9.5-2.31-9.98-4.82-20.57-14.87-2.58-7.81-2.04-13.78,1.56-17.86,12.02,7.06,18.33,10.79,31.77,11.2-3.6-9.23-4.14-15.21-1.63-17.86,4.62,3.67,7.6,9.23,9.03,16.63,71.49-3.12,90.37-2.72,99.87,2.31-1.09-4.48-1.97-8.42-2.79-11.81,11.14-3.8,20.23-6.04,35.44-7.13Z" style="fill:#f9af79; fill-rule:evenodd;"/><path d="M1354.4,1213.66c-.75,6.04-.81,11.54-.34,16.36-24.37,10.59-20.23-1.63-30.01-1.97,2.44-4.34,4.07-9.84,4.75-16.5,10.66,2.99,16.7,3.73,25.6,2.11h0Zm113.72,11.2c0,4.41,.41,8.28,1.29,11.68-6.52,5.16-13.99,10.52-18.13,7.2-2.04-1.56-7.13-2.04-10.93-1.16,1.56-5.36,2.79-12.02,3.73-20.03,8.55,2.31,15.14,3.05,24.04,2.31Z" style="fill:#f9af79; fill-rule:evenodd;"/><path d="M1298.32,821.03c43.11,40.19,100.75,40.26,172.92,.34,12.22,32.73,.07,126.96,7.47,210.4,6.93,69.46,9.64,133.68-6.72,192.68-1.36,.13-2.65,.27-3.87,.41-8.9,.75-15.48,0-24.04-2.31-1.42-.41-2.92-.81-4.48-1.29-4-64.23-11.61-115.21-13.3-153.03-8.49-33.88-28.11-85.82-42.71-155.81-13.04,64.23-21.93,108.76-27.9,148.55,9.3,25.73,16.36,81.47,6.04,151.06-2.72,.68-5.09,1.22-7.33,1.63-8.89,1.63-14.94,.88-25.6-2.11-1.29-.41-2.72-.81-4.21-1.29,.88-66.67-12.97-114.06-22.41-149.64-5.23-100.89-13.58-179.31-3.87-239.59Z" style="fill:#20386f; fill-rule:evenodd;"/><path d="M1366.35,1164.23c-15.68,4.28-30.08,5.57-43.18,3.87-.27-3.46-.61-6.86-.95-10.18,14.33,1.83,29.2,.88,44.47-2.92-.07,3.05-.2,6.11-.34,9.23h0Zm114.94,11.95c-17.11,2.04-32.25,.95-45.42-3.4-.34-3.6-.68-7.13-1.02-10.59,14.8,4.82,30.62,6.45,47.39,4.96-.27,2.99-.61,6.04-.95,9.03h0Zm-43.25,22.61c-.27-3.6-.54-7.06-.82-10.52,13.17,3.6,27.16,4.75,41.89,3.46-.48,3.05-1.02,6.11-1.63,9.17-14.6,1.63-27.7,.88-39.45-2.11h0Zm-114.13-19.69c13.38,2.24,27.23,1.97,41.62-.75-.27,3.12-.54,6.18-.81,9.3-14.73,3.12-28.18,3.67-40.33,1.63-.13-3.39-.27-6.86-.48-10.18Z" style="fill:#0e2952; fill-rule:evenodd;"/><path d="M554.15,1168.31c68.77,0,124.52,12.56,124.52,28.11s-55.74,28.04-124.52,28.04-124.52-12.56-124.52-28.04,55.74-28.11,124.52-28.11Z" style="fill:#c4d1eb; fill-rule:evenodd;"/><ellipse cx="536.7" cy="1108.83" rx="124.52" ry="28.04" style="fill:#c4d1eb;"/><path d="M529.91,1130.56c68.78,0,124.52,12.56,124.52,28.04s-55.74,28.11-124.52,28.11-124.52-12.56-124.52-28.11,55.74-28.04,124.52-28.04Z" style="fill:#c4d1eb; fill-rule:evenodd;"/><path d="M512.46,1043.04c68.78,0,124.52,12.56,124.52,28.04s-55.74,28.11-124.52,28.11-124.52-12.63-124.52-28.11,55.74-28.04,124.52-28.04Z" style="fill:#c4d1eb; fill-rule:evenodd;"/><path d="M554.15,1256.09c68.77,0,124.52-12.56,124.52-28.04v-31.64c0,15.48-55.74,28.04-124.52,28.04s-124.52-12.56-124.52-28.04v31.64c0,15.48,55.74,28.04,124.52,28.04Z" style="fill:#9db2d9; fill-rule:evenodd;"/><path d="M536.7,1168.58c68.78,0,124.52-12.56,124.52-28.04v-31.71c0,15.48-55.74,28.04-124.52,28.04s-124.52-12.56-124.52-28.04v31.71c0,15.48,55.74,28.04,124.52,28.04Z" style="fill:#9db2d9; fill-rule:evenodd;"/><path d="M529.91,1218.34c68.78,0,124.52-12.56,124.52-28.04v-31.71c0,15.55-55.74,28.11-124.52,28.11s-124.52-12.56-124.52-28.11v31.71c0,15.48,55.74,28.04,124.52,28.04Z" style="fill:#9db2d9; fill-rule:evenodd;"/><path d="M512.46,1130.83c68.78,0,124.52-12.56,124.52-28.11v-31.64c0,15.48-55.74,28.11-124.52,28.11s-124.52-12.63-124.52-28.11v31.64c0,15.55,55.74,28.11,124.52,28.11Z" style="fill:#9db2d9; fill-rule:evenodd;"/><path d="M761.01,1246.45c68.78,0,124.52,12.56,124.52,28.11s-55.74,28.04-124.52,28.04-124.52-12.56-124.52-28.04,55.74-28.11,124.52-28.11Z" style="fill:#c4d1eb; fill-rule:evenodd;"/><path d="M758.37,1165.52c-68.78,0-124.52,12.56-124.52,28.11s55.74,28.04,124.52,28.04,124.52-12.56,124.52-28.04-55.74-28.11-124.52-28.11Z" style="fill:#c4d1eb; fill-rule:evenodd;"/><path d="M765.29,1089.82c-68.71,0-124.45,12.63-124.45,28.11s55.74,28.04,124.45,28.04,124.58-12.56,124.58-28.04-55.74-28.11-124.58-28.11Z" style="fill:#c4d1eb; fill-rule:evenodd;"/><path d="M736.78,1208.7c68.77,0,124.52,12.56,124.52,28.11s-55.74,28.04-124.52,28.04-124.52-12.56-124.52-28.04,55.74-28.11,124.52-28.11Z" style="fill:#c4d1eb; fill-rule:evenodd;"/><path d="M782.6,1127.77c-68.77,0-124.52,12.63-124.52,28.11s55.74,28.04,124.52,28.04,124.52-12.56,124.52-28.04-55.74-28.11-124.52-28.11Z" style="fill:#c4d1eb; fill-rule:evenodd;"/><path d="M789.6,1052.07c-68.78,0-124.52,12.63-124.52,28.11s55.74,28.04,124.52,28.04,124.52-12.56,124.52-28.04-55.74-28.11-124.52-28.11Z" style="fill:#c4d1eb; fill-rule:evenodd;"/><path d="M761.01,1334.24c68.78,0,124.52-12.56,124.52-28.04v-31.64c0,15.48-55.74,28.04-124.52,28.04s-124.52-12.56-124.52-28.04v31.64c0,15.48,55.74,28.04,124.52,28.04Z" style="fill:#9db2d9; fill-rule:evenodd;"/><path d="M758.37,1253.38c-68.78,0-124.52-12.56-124.52-28.11v-31.64c0,15.48,55.74,28.04,124.52,28.04s124.52-12.56,124.52-28.04v31.64c0,15.55-55.74,28.11-124.52,28.11Z" style="fill:#9db2d9; fill-rule:evenodd;"/><path d="M765.29,1177.67c-68.71,0-124.45-12.56-124.45-28.11v-31.64c0,15.48,55.74,28.04,124.45,28.04s124.58-12.56,124.58-28.04v31.64c0,15.55-55.74,28.11-124.58,28.11Z" style="fill:#9db2d9; fill-rule:evenodd;"/><path d="M736.78,1296.56c68.77,0,124.52-12.56,124.52-28.11v-31.64c0,15.48-55.74,28.04-124.52,28.04s-124.52-12.56-124.52-28.04v31.64c0,15.55,55.74,28.11,124.52,28.11Z" style="fill:#9db2d9; fill-rule:evenodd;"/><path d="M782.6,1215.63c-68.77,0-124.52-12.56-124.52-28.11v-31.64c0,15.48,55.74,28.04,124.52,28.04s124.52-12.56,124.52-28.04v31.64c0,15.55-55.74,28.11-124.52,28.11Z" style="fill:#9db2d9; fill-rule:evenodd;"/><path d="M789.6,1139.93c-68.78,0-124.52-12.56-124.52-28.11v-31.64c0,15.48,55.74,28.04,124.52,28.04s124.52-12.56,124.52-28.04v31.64c0,15.55-55.74,28.11-124.52,28.11Z" style="fill:#9db2d9; fill-rule:evenodd;"/><path d="M569.56,1056.96c3.06,2.51,6.31,6.11,7.27,11l17.04,.34,.95,7.4-18.33-.41c-2.78,7.95-14.32,12.42-30.14,12.15-16.16-.34-25.26-5.77-33.61-13.24-7.33-7.06-12.97-9.64-21.18-9.84-8.01-.13-13.99,2.38-13.24,7.81,.61,4.75,4.75,9.3,8.83,12.29l-17.65,1.9c-3.94-2.92-7.81-7.88-8.76-12.76l-18.33-.34-.95-7.4,19.55,.41c2.44-8.49,14.94-13.17,31.37-12.83,16.7,.34,26.21,4.55,35.91,13.65,7.06,6.11,12.02,9.44,19.42,9.57,6.25,.14,12.49-2.31,11.81-7.33-.54-4.41-4.41-8.15-7.13-10.46l17.18-1.9Z" style="fill:#fff; fill-rule:evenodd;"/><path d="M841.06,1066.74c3.05,2.51,6.25,6.11,7.2,11l17.04,.27,1.02,7.47-18.33-.41c-2.85,7.95-14.39,12.42-30.14,12.09-16.23-.34-25.26-5.7-33.68-13.17-7.33-7.06-12.97-9.64-21.18-9.84-8.01-.13-13.92,2.38-13.17,7.81,.61,4.75,4.75,9.3,8.83,12.29l-17.72,1.9c-3.94-2.92-7.81-7.94-8.76-12.76l-18.33-.34-.95-7.47,19.62,.48c2.38-8.49,14.87-13.24,31.3-12.9,16.7,.41,26.27,4.62,35.98,13.71,7.06,6.11,11.95,9.44,19.35,9.57,6.25,.14,12.49-2.31,11.88-7.33-.61-4.41-4.48-8.15-7.2-10.45l17.24-1.9Z" style="fill:#fff; fill-rule:evenodd;"/><path d="M0,346.46H632.22c-4.55-19.21-21.79-33.54-42.43-33.54-.95,0-1.97,.07-2.92,.14-9.98-24.44-34.02-41.69-62.05-41.69-12.29,0-23.76,3.33-33.61,9.03-12.08-39.72-49.02-68.64-92.67-68.64-8.89,0-17.52,1.22-25.66,3.46-21.18-46.71-68.16-79.16-122.75-79.16-64.77,0-118.81,45.69-131.78,106.59-1.09-.07-2.17-.07-3.26-.07-41.48,0-75.7,31.03-80.79,71.08-16.91,3.19-30.35,16.16-34.29,32.79Z" style="fill:#c4d1eb; fill-rule:evenodd;"/></svg>