<?xml version="1.0" encoding="UTF-8"?><svg id="a" xmlns="http://www.w3.org/2000/svg" viewBox="0 0 1383.45 1352.64"><path d="M742.22,368c152.4,0,135.01,211.14,245.05,275.51,145.64,85.18,396.19,43.01,396.19,189.22,0,256.65-287.1,504.53-641.24,504.53S153.44,1040.68,153.44,784.03s234.63-416.03,588.78-416.03h0Zm0,0" style="fill:#e9eef7; fill-rule:evenodd;"/><path d="M846.54,1264.34c295.93,0,535.83,19.76,535.83,44.15s-239.9,44.15-535.83,44.15-535.84-19.76-535.84-44.15,239.9-44.15,535.84-44.15h0Zm0,0" style="fill:#bfcee8; fill-rule:evenodd;"/><path d="M917.9,874.87c-150.4,0-272.32,21.4-272.32,47.83s121.92,47.8,272.32,47.8,272.32-21.4,272.32-47.8-121.92-47.83-272.32-47.83h0Zm0,0" style="fill:#c7dcf5; fill-rule:evenodd;"/><path d="M892.67,204.33c-46.3,46.59-26.16,93.2,8.05,179.72,34.22,86.54,40.26,406.07,40.26,406.07l-28.17-4.43s4.03-328.4-34.22-417.18c-38.28-88.76-54.41-133.11-88.63-104.27-34.22,28.84,102.7-59.91,102.7-59.91h0Zm0,0" style="fill:#aabcdd; fill-rule:evenodd;"/><path d="M918.08,143.99c-5.61-27.6-39-57.47-83.66-82.84,6.66,40.73,27.89,107.34,5.89,120.99-29.71,18.42-2.88-74.58-14.36-125.67-41.93-22.56-92.41-41.01-138.85-50.2,.08,.21,.13,.39,.18,.57,26.16,73.24,60.38,102.08,46.28,113.17-10.57,8.33-45.1-76.23-90.74-119.6-34.22-2.01-63.19,3.11-80.29,18.06-26.47,23.1-44.25,43.61-17.65,113.95,15.21,11.99,34.94,20.55,57.83,23.1,60.38,6.66,88.6,8.88,46.28,31.05-20.68,10.89-55.36-.59-83.53-7.61,9.11,18.55,20.35,39.52,34.01,63.42,8.64,15.18,18.16,28.32,28.3,39.7,19.45,4.12,36.43,4.17,45.41-.07,28.17-13.33,100.64-55.5,118.78-37.72,17.73,17.37-134.24,28.38-123.72,72.52,73.68,46.77,157.99,24.51,172.86-18.42,20.04-57.68,93.9-71.26,76.97-154.39h0Zm0,0" style="fill:#cbd5eb; fill-rule:evenodd;"/><path d="M765.81,459.51c80.56-66.58,163.08-4.45,205.38,66.55,42.27,71,12.1,230.77,12.1,230.77,0,0-16.13,0-16.13-6.67s44.3-188.6-60.39-270.69c-65.5-51.35-112.73-26.63-118.78-2.21-6.04,24.39,26.17,68.79,26.17,68.79l-48.34-86.54Zm0,0" style="fill:#aabcdd; fill-rule:evenodd;"/><path d="M951.07,322.67c-80.58,0-106.74,137.59-84.56,217.44,22.12,79.88,52.33,228.56,52.33,228.56l20.14-22.18s-76.51-208.59-58.4-301.77c18.14-93.21,62.39-108.75,70.49-108.75s0-13.3,0-13.3h0Zm0,0" style="fill:#aabcdd; fill-rule:evenodd;"/><path d="M883.51,540.76c-5.69-8.29-12.66-15.13-21.2-19.66,1.13,6.64,2.5,12.99,4.19,19.01,10.08,36.4,21.82,87.09,31.67,131.46,.85-5.68,2.26-14.46,4.37-27.96,.51-3.2,.88-6.64,1.18-10.32-7.9-29.56-15.36-61.79-20.22-92.53h0Zm0,0" style="fill:#aabcdd; fill-rule:evenodd;"/><path d="M861.49,541.4c-153-71.01-72.4-168.43-207.31-104.09-9.52,4.52-21.07,15.97-32.67,31.72,12.01,3.76,26.52,6.45,42.76,3.78,40.26-6.67,26.16,28.84-40.31,37.72-12.48,1.67-22.67,3.98-31.1,7.25-31.67,66.99-45.95,155.16,21.07,185.8,13.2,6.04,29.51,9.5,47.67,10.78,20.66-18.11-5.07-122.87,26.86-108.41,30.57,13.89-9.65,89.81-4.14,108.95,30.2-.59,63.67-6.05,95.58-14.77,12.69-7.82,22.36-18.29,25.29-32.05,10.08-46.6-56.34-75.46-58.4-115.39-1.8-36.71,24.42,80.78,93.77,98.07,62.8-32.32,92.46-76.15,20.95-109.36h0Zm0,0" style="fill:#cbd5eb; fill-rule:evenodd;"/><path d="M970.51,415.88c-16.13-37.71,26.19-46.61,24.13-17.78-1.72,25.57-1.95,87.71,21.82,104.63,41.03-4.91,96.84-23.13,139.05-50.88,.54-3.76,0-7.62-1.78-11.58-18.14-39.93-134.91-73.21-98.66-86.52,28.84-10.62,79.48,51.97,120.22,83.48,24.47-20.46,40.88-44.87,40.88-72.08,0-36.87-40.67-78.6-93.23-98.53-23.64,2.62-45.64,16.87-79.96,38.3-50.68,31.67-38.95-19.53,8.98-49.91-41.4,2.37-82.63,21.84-113.09,68.41,0,0,2.91,19.88-16.21,50.68-52.12,83.95,8.05,132.98,79.93,129.79-4.09-22.12-20.97-61.95-32.08-88.01h0Zm0,0" style="fill:#cbd5eb; fill-rule:evenodd;"/><path d="M770.65,455.72c-39.37,33.55-83.1,72.76-136.8,99.36-53.72,26.65-42.96,113.43-42.96,113.43,0,0-8.03-74.94,36.71-100.59,44.74-25.63,74.25-56.22,108.26-62.13,34.04-5.91,52.82-11.83,52.82-11.83,0,0-10.75-23.67-4.48-32.54,6.25-8.88-13.55-5.69-13.55-5.69h0Zm0,0" style="fill:#aabcdd; fill-rule:evenodd;"/><path d="M576.59,62c144.07,42.4,249.65,143.97,269.38,168.64,19.68,24.65,19.68,31.54,19.68,31.54l-15.26,31.57-7.15-3.96s11.66-26.6-18.78-61.13c-52.48-59.53-116.34-106.51-160.2-127.22-43.86-20.71-87.68-39.44-87.68-39.44h0Zm0,0" style="fill:#aabcdd; fill-rule:evenodd;"/><path d="M974.3,940.89h-55.05c-39.16,0-70.88-34.97-70.88-78.11v-139.39h196.81v139.39c0,43.14-31.72,78.11-70.88,78.11h0Zm0,0" style="fill:#aabcdd; fill-rule:evenodd;"/><rect x="848.36" y="748.32" width="196.81" height="15.25" style="fill:#e7f1fb;"/><rect x="848.36" y="776.15" width="196.81" height="8.98" style="fill:#e7f1fb;"/><path d="M1275.89,1334.27c19.86-6.97,21.46-17.21,32.13-22.2,10.78-5.02,12.01-14,1.49-23.72-7.8,6.23-17.44,13.87-22.54,9.8-3.42-2.7-15-2.52-17.29,1.42-10.09,23.44-24.11,16.03-26.88,26.68-.31,14.2,23.98,11.24,33.08,8.03h0Zm0,0" style="fill:#233862; fill-rule:evenodd;"/><path d="M1105.48,1334.99c36.63-.59,64.01-1.03,76.67-5.02,13.64-4.32,10.84-12.63,2.98-25.96-34.52,15.87-25.32-3.27-41.47-.82-11.34,9.13-28.17,15.26-50.42,18.37-9.42,6.95-5.58,13.12,12.25,13.43h0Zm0,0" style="fill:#233862; fill-rule:evenodd;"/><path d="M1232.08,445.95c-5.87,.43-15.08-.69-16.72-2.78-6.23-7.9-10.52-16.13-12.12-21.33,1.21-3.47,2.47-7.82,3.81-13.12,22.54-15.3,25.62-26.63,9.24-33.98-3.3,1.85-7.41,7.56-12.3,17.1-3.9-.15-6.87-2.16-8.88-5.99,4.66-16.1,7.67-29.2,9.08-39.26-11.12-16.52-37.1-18.88-71.5-14.41-1.59,9.16-2.91,18.83-3.91,29.07-6.1,5.6-5.3,26.4,.31,50.32-2.8,13.61,5.61,21.04,25.22,22.28,.28,4.84-.19,10.76-.5,11.43-.49,1.05-2.24,2.06-4.63,2.9-.66,22.49,26.96,21.74,82.89-2.24h0Zm0,0" style="fill:#ffb27d; fill-rule:evenodd;"/><path d="M1132.69,332.19c34.4-4.48,60.38-2.11,71.5,14.41-1.42,10.06-4.43,23.15-9.08,39.26,2.01,3.83,4.97,5.84,8.88,5.99,4.89-9.54,9-15.26,12.3-17.1,16.38,7.35,13.29,18.68-9.24,33.98-1.34,5.3-2.6,9.65-3.81,13.12,18.06-8.52,34.63-16.36,31.93-27.68,23.65-46.62,4.97-69.18-9.16-76.36-14.84-37.3-84.46,6.12-106.87-27.6-13.35,18.42,3.17,41.57,13.56,41.99h0Zm0,0" style="fill:#934b3a; fill-rule:evenodd;"/><path d="M926.29,527.74c17.03,72.88,46.93,129.46,89.71,169.69,15.4-4.68,29.09-15.23,41-31.62-.62,52.71,.69,105.2,3.96,157.4,31.21,14.82,72.65,13.87,124.34-2.85l20.97-25.83c5.38-1.03,17.62,4.92,23.49,13.97,49.09-37.46,82.17-77.69,101.7-117.7-5.27-85.93-16.92-153.74-35.01-203.4-9.13-14.05-30.59-27.86-64.37-41.45-55.93,23.98-83.55,24.72-82.89,2.24-16.46,5.4-38.28,14.94-65.47,28.66-22.67,17.24-41.96,63.91-57.91,140.03-25.96-32.49-52.87-66.97-80.76-103.4-6.22,1.75-12.45,6.51-18.75,14.25h0Zm291.3,243.5c-16.29-53.51-7.31-119.53,26.94-198.05,8.61,38.75,17.92,76.88,27.93,114.41-11.63,5.51-29.92,33.4-54.87,83.64h0Zm0,0" style="fill:#ffe7bd; fill-rule:evenodd;"/><path d="M1223.66,840.99c-7.92-.62-20.71-7.52-38.36-20.63-51.69,16.72-93.13,17.67-124.34,2.85-5.56,87.91,16.05,180.06,43.45,282.79,26.86,45.1,25.73,76.79,40.03,180.83,7.95,5.66,21.07,4.84,39.39-2.47,5.82-88.71,1.8-147.44-21.23-180.55,3.6-29.74-5.81-102.86-6.25-148.75,16.75,37.33,28.25,87.75,50.06,138.69,26.55,62,45.07,128.38,59.07,188.91,14.85,2.88,28.74,1.18,41.7-5.09-14.89-99.49-31.39-167.97-49.5-205.46,.7-97.84-8.62-185.7-27.94-263.62-3.59,9.21-5.63,20.04-6.1,32.5h0Zm0,0" style="fill:#ce1641; fill-rule:evenodd;"/><path d="M1185.31,820.36c17.65,13.12,30.44,20.01,38.36,20.63,.46-12.46,2.5-23.29,6.1-32.5-5.87-9.05-18.11-15-23.49-13.97l-20.97,25.83Zm0,0" style="fill:#ffb27d; fill-rule:evenodd;"/><path d="M1057.01,665.81c1.72-51.2,5.81-93.19,12.32-125.91-16.57,69.54-32.6,115.67-48.13,138.43-9.83-.31-22.25-6.12-37.33-17.47,9.75,13.4,20.45,25.58,32.14,36.56,15.4-4.68,29.09-15.23,41-31.62h0Zm0,0" style="fill:#dec08f; fill-rule:evenodd;"/><path d="M1206.27,794.52c3.01-7.43,6.77-15.21,11.32-23.28-16.29-53.51-7.31-119.53,26.94-198.05-49.81,70.8-63.91,146.26-42.38,226.42l4.12-5.09Zm0,0" style="fill:#dec08f; fill-rule:evenodd;"/><path d="M1176.89,429.12c-5.48,2.73-13.01,4.3-22.58,4.73,.17,3.24,.04,6.98-.16,9.29,9.62-1.85,17.21-6.53,22.74-14.02h0Zm0,0" style="fill:#f08261; fill-rule:evenodd;"/><path d="M1181.68,1305.56c-1.85-6.05-2.55-12.58-2.11-19.58-13.97,5.02-24.62,5.89-31.98,2.62,.39,5.2-.21,9.98-1.78,14.38,12.71-.46,6.92,14.95,35.86,2.57h0Zm92.33-8.59c4.37-1.16,10.6-.67,12.97,1.18,4.55,3.63,12.76-2.08,20.01-7.79-1.25-3.42-2.29-7.18-3.11-11.3-8.72,3.65-17.85,5.3-27.4,4.91,.13,5.2-.69,9.52-2.47,12.99h0Zm0,0" style="fill:#ffb27d; fill-rule:evenodd;"/><path d="M1224.18,853.46c-.54-4.51-.71-8.67-.52-12.47-7.92-.62-20.71-7.52-38.36-20.63-4.19,1.36-8.31,2.6-12.35,3.75,12.4,12.92,29.48,22.69,51.22,29.36h0Zm0,0" style="fill:#a71738; fill-rule:evenodd;"/><path d="M926.29,527.74c-1.03-2.58-5.25-10.68-9.37-20.81-10.21-5.25-18.37-16.72-24.47-34.42,3.65-11.86,11.34-19.27,23.13-22.26,3.99,14.67,9.9,25.45,17.8,32.34-1.96-15.31,.57-20.1,7.56-14.38-.95,1.96-1,4.42-.15,7.41,4.73,7.74,4.32,16.57-1.26,26.45,2.13,4.44,4.45,8.98,5.5,11.42-6.35,2.04-12.3,6.45-18.75,14.25h0Zm0,0" style="fill:#ffb27d; fill-rule:evenodd;"/><path d="M1056.88,684.31c12.12-81.32,25.96-139.82,41.52-175.56,1.93-11.34,8.46-27.45,19.6-48.24,5.79-2.6,11.24-4.89,16.31-6.9-11.09,14.8-20.79,41.78-22.64,64.94,16.24,6.71,41.7,4.83,76.48-5.59,9.7-25.47,27.86-46.33,54.46-62.59,4.86,2.14,9.44,4.27,13.72,6.44-22.54,10.62-39.34,32.36-50.41,65.16-13.2,48.91-18.88,89.81-11.83,142.19-11.91,78.93-18.09,142.71-18.52,191.33-65.18,12.38-112.53,5.01-142.01-22.05,9.7-48.26,17.47-97.97,23.31-149.14h0Zm0,0" style="fill:#fff7de; fill-rule:evenodd;"/><path d="M1193.92,662.73c8.67,2.47,17.37,.95,26.06-4.52,2.7,7.41,1.18,14.64-4.53,21.71-8.26,3.37-16.26,4.13-24,2.31,.85-5.94,1.72-11.96,2.65-18.06l-.18-1.44Zm0,0" style="fill:#ffe7bd; fill-rule:evenodd;"/><path d="M1157.75,686.73c-44.2,3.37-71.85-5.04-82.99-25.29-21.4,107.38,62.9,154.07,82.99,25.29h0Zm0,0" style="fill:#dec08f; fill-rule:evenodd;"/><path d="M1243.22,386.78c-1.11,3.81-3.81,6.25-8.06,7.38-3.09-39.05-22.56-66.45-68.3-90.87,6.25-9.06,15.74-15.9,28.48-20.53,.8,15.46,13.89,27.73,29.95,27.73,.8,0,1.6-.03,2.39-.08-1.98,3.88-3.09,8.28-3.09,12.91,0,14.02,10.14,25.75,23.67,28.58-5.43,5.28-8.8,12.58-8.8,20.68,0,5.15,1.36,9.98,3.76,14.18h0Zm0,0" style="fill:#dec08f; fill-rule:evenodd;"/><path d="M1225.29,252.08c16.55,0,29.98,13.09,29.98,29.22,0,4.63-1.14,9.03-3.09,12.92,.77-.06,1.57-.11,2.39-.11,16.54,0,29.97,13.1,29.97,29.23,0,8.07-3.37,15.41-8.82,20.69,13.53,2.83,23.7,14.54,23.7,28.58,0,16.13-13.43,29.2-29.98,29.2s-29.97-13.07-29.97-29.2c0-8.1,3.37-15.41,8.8-20.68-13.53-2.83-23.67-14.56-23.67-28.58,0-4.63,1.11-9.03,3.09-12.91-.8,.05-1.59,.08-2.39,.08-16.57,0-29.97-13.07-29.97-29.2s13.4-29.22,29.97-29.22h0Zm0,0" style="fill:#ffe7bd; fill-rule:evenodd;"/><path d="M248.96,416.24c71.62-21.02,188.81-33.01,300.64-34.53h48.19c28.84,.41,56.79,1.57,82.92,3.48,43.07,3.19,16.18,316.87-26.76,311.91H248.96c-29.2,0-28.3-272.55,0-280.86h0Zm0,0" style="fill:#8ca3ca; fill-rule:evenodd;"/><path d="M265.97,416.24c68.12-21.02,179.49-33.01,285.82-34.53h45.82c27.42,.41,54,1.57,78.83,3.48,40.96,3.19,15.42,316.87-25.41,311.91H265.97c-27.74,0-26.92-272.55,0-280.86h0Zm0,0" style="fill:#aabcdd; fill-rule:evenodd;"/><path d="M251.22,660.46l411.68,28.89c-3.81,5.4-7.82,8.23-12.01,7.74H261.98c-6.66,0-11.68-15.44-15.1-39.08,1.34,1.47,2.78,2.31,4.35,2.44h0Zm0,0" style="fill:#8ca3ca; fill-rule:evenodd;"/><path d="M265.97,416.24c68.09-21.02,179.49-33.01,285.82-34.53h45.82c27.42,.41,54,1.57,78.83,3.48,17.7,1.38,22.97,60.74,19.96,127.29-50.99,12.38-116.26,17.18-186.98,11.65-113.87-8.87-210.78-42.01-255.08-82.53,3.09-14.54,6.97-23.93,11.63-25.37h0Zm0,0" style="fill:#cbd5eb; fill-rule:evenodd;"/><path d="M273.29,697.15H5.3S.21,661.41,0,611.12v-6.77c.26-53.67,6.3-122.1,29.41-181.45l249,265.94-5.12,8.31Zm0,0" style="fill:#e9eef7; fill-rule:evenodd;"/><path d="M186.65,590.82l91.77,98.02-5.12,8.31H86.76c35.91-22.13,71.82-59.22,99.89-106.33h0Zm0,0" style="fill:#cbd5eb; fill-rule:evenodd;"/><path d="M29.41,422.9l29.14,31.03c-25.86,94.91-20.03,201.36-16.25,243.22H5.3S.21,661.41,0,611.12v-6.77c.26-53.67,6.3-122.1,29.41-181.45h0Zm0,0" style="fill:#8ca3ca; fill-rule:evenodd;"/><path d="M302.44,697.1c-18.09-106.94-21.15-207.31,2.19-293.9l23.8-2.26c6.38-.8,12.86-1.54,19.4-2.27l-37.63,7.7c-23.6,85.59-18.56,184.9,0,290.74h-7.75Zm0,0" style="fill:#8ca3ca; fill-rule:evenodd;"/><path d="M349.88,697.1h-40.13c-19.73-103.68-23.48-202.96,0-294.78,23.64-4.27,49.45-7.9,76.64-10.88l-36.51,14.92c-23.59,85.59-18.55,184.92,0,290.74h0Zm0,0" style="fill:#cbd5eb; fill-rule:evenodd;"/><path d="M309.75,402.32c23.64-4.27,49.45-7.9,76.64-10.88l-36.51,14.92c-4.3,15.64-7.64,31.72-10.11,48.21l-44.3,34.7c2.42-29.64,7.05-58.65,14.28-86.95h0Zm0,0" style="fill:#e9eef7; fill-rule:evenodd;"/><path d="M331.36,424.72c4.76,0,9.21,1.95,13.02,5.3l-8.71,68.04c-1.4,.36-2.84,.57-4.3,.57-13.97,0-25.32-16.54-25.32-36.97s11.35-36.95,25.32-36.95h0Zm0,0" style="fill:#aabcdd; fill-rule:evenodd;"/><path d="M57.5,644.95c0-20.4,11.35-36.97,25.32-36.97s25.31,16.57,25.31,36.97-11.35,36.97-25.31,36.97-25.32-16.54-25.32-36.97h0Zm0,0" style="fill:#aabcdd; fill-rule:evenodd;"/><path d="M297.71,589.59c0-14.64,7.82-26.5,17.44-26.5s17.44,11.86,17.44,26.5-7.8,26.52-17.44,26.52-17.44-11.89-17.44-26.52h0Zm0,0" style="fill:#aabcdd; fill-rule:evenodd;"/><path d="M317.73,531.34c0-6.12,3.27-11.09,7.31-11.09s7.31,4.97,7.31,11.09-3.27,11.11-7.31,11.11-7.31-4.96-7.31-11.11h0Zm0,0" style="fill:#aabcdd; fill-rule:evenodd;"/><path d="M324.85,667.46c0-6.12,3.29-11.12,7.33-11.12s7.31,4.99,7.31,11.12-3.27,11.11-7.31,11.11-7.33-4.96-7.33-11.11h0Zm0,0" style="fill:#aabcdd; fill-rule:evenodd;"/><path d="M146.82,645.98c0-9.52,4.27-17.26,9.52-17.26s9.54,7.74,9.54,17.26-4.27,17.29-9.54,17.29-9.52-7.75-9.52-17.29h0Zm0,0" style="fill:#aabcdd; fill-rule:evenodd;"/><path d="M58.12,528.53c0-12.99,7.46-23.49,16.67-23.49s16.68,10.49,16.68,23.49-7.47,23.49-16.68,23.49-16.67-10.52-16.67-23.49h0Zm0,0" style="fill:#aabcdd; fill-rule:evenodd;"/><path d="M160.15,603.61c0-5.46,3.17-9.91,7.05-9.91s7.02,4.45,7.02,9.91-3.14,9.9-7.02,9.9-7.05-4.42-7.05-9.9h0Zm0,0" style="fill:#aabcdd; fill-rule:evenodd;"/><path d="M225.06,680.3c0-5.45,3.13-9.91,7.02-9.91s7.05,4.45,7.05,9.91-3.16,9.9-7.05,9.9-7.02-4.43-7.02-9.9h0Zm0,0" style="fill:#aabcdd; fill-rule:evenodd;"/><path d="M216.21,656.34c-10.03,0-18.16-14.38-18.16-32.13,0-6.63,1.13-12.81,3.09-17.93l31.05,33.16c-3.06,10.08-9.08,16.9-15.98,16.9h0Zm0,0" style="fill:#aabcdd; fill-rule:evenodd;"/><path d="M146.51,583.8c-15.64,0-28.3-17.86-28.3-39.88,0-7.9,1.65-15.23,4.45-21.43l44.92,47.98c-5.17,8.16-12.68,13.33-21.07,13.33h0Zm0,0" style="fill:#aabcdd; fill-rule:evenodd;"/><path d="M34.96,697.15c-3.65-55.91-5.38-156.32,17.75-249.42l5.84,6.2c-25.86,94.91-20.03,201.36-16.25,243.22h-7.34Zm0,0" style="fill:#cbd5eb; fill-rule:evenodd;"/><path d="M348.73,697.1c-18.09-106.94-22.77-207.31,.57-293.9l22.65-9.47c6.4-.79,12.86-1.57,19.39-2.29l-39.46,15.02c-23.62,85.59-13.51,184.8,5.04,290.63h-8.18Zm0,0" style="fill:#8ca3ca; fill-rule:evenodd;"/><path d="M571.36,411.07c-61.28,0-113.97-5.94-137.41-14.48,79.8-6.82,166.91-7.77,239.31-2.16,3.83,.28,7.1,3.32,9.83,8.6-27.55,4.94-67.4,8.05-111.73,8.05h0Zm0,0" style="fill:#e9eef7; fill-rule:evenodd;"/><path d="M942.96,463.99c-38.98,96.27-164.14,168.22-164.14,168.22,0,0-8.23,4.02-6.07-7.92,9.52-52.4,44.48-206.56,41.99-224.93-3.09-22.59,145.66,21.53,128.22,64.63h0Zm0,0" style="fill:#f38e3d; fill-rule:evenodd;"/><path d="M941.75,452.43c-38.97,96.27-169.28,173.42-169.28,173.42,0,0,38.98-210.29,35.92-232.85-3.09-22.59,150.81,16.33,133.37,59.43h0Zm0,0" style="fill:#fcc067; fill-rule:evenodd;"/><path d="M927.47,480.78c-32.65,76.13-154.95,148.6-154.95,148.6-8.7-11.42,29.84-178.41,29.74-193-.13-15.75,138.38,13.71,125.21,44.4h0Zm0,0" style="fill:#ce1641; fill-rule:evenodd;"/><path d="M914.56,489.1c-29.69,69.18-140.88,135.09-140.88,135.09-7.9-10.4,33.52-167.9,33.42-181.14-.05-6.26,28.89-8.2,53.56-.9,31.82,9.44,60.64,31.21,53.9,46.95h0Zm0,0" style="fill:#ffe7bd; fill-rule:evenodd;"/><path d="M920.81,454.52c2.19-10.75,7.72-19.39,13.02-21.1,5.68-1.8,10.65,4.58,10.65,16.52,0,15.2-7.56,30.92-15.98,30.92-7.54,0-10.39-13.12-7.69-26.34h0Zm0,0" style="fill:#f38e3d; fill-rule:evenodd;"/><path d="M797.66,409.14c2.19-10.78,7.72-19.42,13.02-21.1,5.69-1.8,10.65,4.56,10.65,16.52,0,15.18-7.59,30.92-15.98,30.92-7.53,0-10.39-13.14-7.69-26.34h0Zm0,0" style="fill:#fcc067; fill-rule:evenodd;"/><path d="M783.48,560.38c3.65-12.43,9.72-21.59,13.58-20.45,3.83,1.13,4.01,12.11,.36,24.54-3.65,12.43-9.72,21.59-13.58,20.45-3.86-1.13-4.02-12.12-.37-24.54h0Zm0,0" style="fill:#ce1641; fill-rule:evenodd;"/><path d="M824.34,553.28c7.61-10.99,21.2-19.76,30.38-19.61,9.16,.16,10.42,9.21,2.83,20.2-7.62,10.99-21.2,19.78-30.38,19.6-9.16-.15-10.42-9.18-2.83-20.19h0Zm0,0" style="fill:#ce1641; fill-rule:evenodd;"/><path d="M806.64,513.41c3.42-11.79,13.95-21.33,23.46-21.33s14.46,9.54,11.04,21.33c-3.42,11.78-13.92,21.33-23.44,21.33s-14.48-9.55-11.06-21.33h0Zm0,0" style="fill:#ce1641; fill-rule:evenodd;"/><path d="M853.89,486.32c-4.35-10.06,.31-21.33,10.39-25.19,10.09-3.83,21.79,1.21,26.14,11.27,4.32,10.06-.33,21.33-10.42,25.19-10.09,3.86-21.79-1.18-26.11-11.27h0Zm0,0" style="fill:#ce1641; fill-rule:evenodd;"/><path d="M810.55,479.71c-5.2-3.52-4.45-13.92,1.67-23.23,6.12-9.28,15.28-13.94,20.48-10.42,5.2,3.52,4.45,13.92-1.67,23.21-6.12,9.28-15.28,13.97-20.48,10.44h0Zm0,0" style="fill:#ce1641; fill-rule:evenodd;"/><path d="M813.12,457.45c3.58-5.43,8.33-8.93,12.43-9.68l-1.05,1.42c-5.22,7.92-5.87,16.77-1.43,19.78,1.41,.95,3.16,1.13,5.04,.8-5.14,6.92-12.25,10.27-16.39,7.46-4.43-3.01-3.78-11.86,1.42-19.78h0Zm0,0" style="fill:#e51e52; fill-rule:evenodd;"/><path d="M804.69,601.83l6.79-7.02c-9.29,18.4,6.15,47.21-4.99,50.17-11.12,2.93-1.56-34.96-1.79-43.14h0Zm0,0" style="fill:#ffe7bd; fill-rule:evenodd;"/><path d="M773.58,613.9l6.82-8.88c-9.31,23.21,6.12,59.56-4.99,63.29-11.14,3.7-1.59-44.1-1.83-54.42h0Zm0,0" style="fill:#ffe7bd; fill-rule:evenodd;"/><path d="M871.85,546.47c-18.21,29.25-14.38,61.28-33.8,50.6-11.58-6.35-28.19,1.8-28.19,1.8l59.73-52.17,2.26-.23Zm0,0" style="fill:#ffe7bd; fill-rule:evenodd;"/><path d="M864.86,462.16c9.36-3.58,20.25,1.11,24.29,10.47,1.7,3.94,1.83,8.06,.8,11.78-5.12-6.1-13.66-8.69-21.3-5.79-5.43,2.06-9.08,6.48-10.5,11.63-1.16-1.39-2.21-2.93-2.96-4.68-4.04-9.36,.28-19.83,9.67-23.41h0Zm0,0" style="fill:#e51e52; fill-rule:evenodd;"/><path d="M890.3,424.6c16.65,17.52,53.28,10.29,29.08-3.94-24.22-14.22-51.46-23.9-54.19-21.48-2.73,2.41,19.37,19.37,25.11,25.41h0Zm0,0" style="fill:#ffd88d; fill-rule:evenodd;"/><path d="M814.35,397.66c0-3.34,8.13-6.05,18.16-6.05s18.16,2.7,18.16,6.05-8.13,6.04-18.16,6.04-18.16-2.7-18.16-6.04h0Zm0,0" style="fill:#ffd88d; fill-rule:evenodd;"/><path d="M808.44,513.48c2.44-8.36,8.95-15.38,15.77-17.75-1.65,2.44-3.01,5.12-3.83,8-3.01,10.31,1.34,18.7,9.67,18.7,1.57,0,3.2-.39,4.79-.95-4.27,6.28-10.7,10.68-16.72,10.68-8.34,0-12.66-8.36-9.68-18.68h0Zm0,0" style="fill:#e51e52; fill-rule:evenodd;"/><path d="M825.75,553.39c5.27-7.62,13.87-13.95,21.17-16.11-2.34,2.14-4.48,4.53-6.23,7.07-6.59,9.52-5.5,17.37,2.44,17.5,1.57,.03,3.32-.33,5.12-.88-6.38,5.94-14.25,10-20.07,9.9-7.92-.13-9.03-7.95-2.44-17.49h0Zm0,0" style="fill:#e51e52; fill-rule:evenodd;"/><path d="M784.33,560.92c2.06-6.97,5.04-12.61,7.72-15.2-.56,1.46-1.1,3.01-1.6,4.63-2.98,10.17-2.85,19.14,.31,20.07,.98,.28,2.16-.31,3.37-1.52-2.96,7.69-6.87,12.86-9.49,12.09-3.16-.93-3.29-9.9-.31-20.07h0Zm0,0" style="fill:#e51e52; fill-rule:evenodd;"/><path d="M786.13,540.76c5.84-32.65-.97-34.91,1.75-47.4,2.73-12.5,15.54-29.81,15.54-29.81,0,0,5.13,13.71,.8,27.99-4.32,14.3-18.08,49.22-18.08,49.22h0Zm0,0" style="fill:#ffe7bd; fill-rule:evenodd;"/><path d="M527.04,1151.58c335.58,0,559.99-87.55,578.54-225.42,18.55-137.9-344.94-300.33-575.4-237.07-249.7,68.53-388.76-29.95-485.18,112.3-96.4,142.27,181.66,350.19,482.04,350.19h0Zm0,0" style="fill:#f9b254; fill-rule:evenodd;"/><path d="M526.91,1114.07c311.52,2.73,521.15-72.96,540.42-194.86,19.24-121.92-258.76-205.32-511.5-186.77-239.44,17.57-418.11-7.41-471.16,67.71-89.48,126.71,163.42,311.48,442.24,313.92h0Zm0,0" style="fill:#ffd15f; fill-rule:evenodd;"/><path d="M530.18,697.43c-249.7,68.54-388.76-29.95-485.18,112.32-12.35,18.24-18.52,37.58-19.32,57.42-.8-22.77,5.22-44.97,19.32-65.78,96.42-142.25,235.48-43.76,485.18-112.3,227.17-62.36,583.59,94.6,575.94,231.15-6.79-134.5-353.38-283.92-575.94-222.82h0Zm0,0" style="fill:#ffd468; fill-rule:evenodd;"/><path d="M29.74,833.71c-21.94,137.33,230.02,305.38,500.08,305.38,320.95,0,540.08-80.11,574.81-207.72-23.49,134.86-246.28,220.22-577.59,220.22-278.34,0-537.43-178.49-497.3-317.88h0Zm0,0" style="fill:#f28a46; fill-rule:evenodd;"/><path d="M507.15,1100.41c-294.21-34.14-420.5-133.21-427.47-242.83-6.97-109.62,318.06-124.67,529.43-133.93,226.52-9.93,333.8,23.36,408.75,144.33,74.94,120.96-247.37,263-510.71,232.44h0Zm0,0" style="fill:#e12143; fill-rule:evenodd;"/><path d="M505.31,1087.99c-289.54-33.37-414-128.58-421.1-233.68-7.1-105.07,312.63-118.78,520.55-127.2,222.84-9.03,328.45,23.13,402.45,139.24,73.98,116.1-242.79,251.5-501.9,221.64h0Zm0,0" style="fill:#bb0833; fill-rule:evenodd;"/><path d="M510.39,1095.88c-282.12-32.72-403.21-127.73-409.88-232.85-6.69-105.1,304.96-119.55,507.64-128.43,217.21-9.52,320.07,22.41,391.92,138.41,71.86,115.98-237.2,252.17-489.68,222.87h0Zm0,0" style="fill:#ffe77e; fill-rule:evenodd;"/><path d="M564.16,836.17c-100.82,4.32-39.85,100.05-143.68,109.31-103.84,9.26-209.88-51.79-131.65-89.86,78.21-38.05,238.26-25.01,278.11-29.64,39.88-4.63,49.14-37.97,78.8-14.82,29.67,23.16-16.67,22.23-81.58,25.01h0Zm0,0" style="fill:#ffd15f; fill-rule:evenodd;"/><path d="M953.53,901.03c14.64-67.19-102.91-176.93-273.47-148.21-170.59,28.71,14.59,54.15,95.47,42.6,84.38-12.05,166.89,32.41,139.08,100.98-13.63,33.57,25.03,68.53,38.92,4.63h0Zm0,0" style="fill:#fff1b6; fill-rule:evenodd;"/><path d="M774.61,1022.36c-210.93,99.2-517.31,20.86-579.88-43.06-62.57-63.91-94.57-166.74,33.37-188.96,127.94-22.23,305.94-45.85,337.92-13.89,31.98,31.95-208.59-1.39-298.96,31.95-90.38,33.37-84.51,213.32,130.71,230.66,215.2,17.31,405.94-50.16,360.79-93.19-45.12-42.99-105.2,.67-175.46-11.7-67.14-11.83,55.24-97.99,184.56-70.18,151.99,32.65,77.88,125.03,6.95,158.37h0Zm0,0" style="fill:#fff1b6; fill-rule:evenodd;"/><path d="M334.32,793.11c0-14.59,33.06-26.14,73.86-25.75,40.8,.38,73.89,12.55,73.89,27.14s-33.08,26.14-73.89,25.75c-40.8-.38-73.86-12.53-73.86-27.14h0Zm0,0" style="fill:#a71738; fill-rule:evenodd;"/><path d="M344.23,800.31c16.2-1.39,40.54,3.68,65.57-12.53,30.38-19.65,67.18-7.77,67.18,5.05s-29.36,22.9-65.56,22.56c-36.2-.33-79.98-14-67.19-15.08h0Zm0,0" style="fill:#ce1641; fill-rule:evenodd;"/><path d="M371,779.09c0-2.83,6.38-5.05,14.23-4.97,7.87,.08,14.25,2.42,14.25,5.22s-6.38,5.04-14.25,4.96c-7.85-.08-14.23-2.42-14.23-5.22h0Zm0,0" style="fill:#f8bba1; fill-rule:evenodd;"/><path d="M384.43,801.78c0-2.8,6.38-5.04,14.25-4.96,7.87,.07,14.25,2.41,14.25,5.24s-6.38,5.02-14.25,4.97c-7.87-.07-14.25-2.42-14.25-5.25h0Zm0,0" style="fill:#f8bba1; fill-rule:evenodd;"/><path d="M428.89,1029.33c0-14.61,37.41-26.45,83.59-26.45s83.61,11.84,83.61,26.45-37.43,26.42-83.61,26.42-83.59-11.83-83.59-26.42h0Zm0,0" style="fill:#a71738; fill-rule:evenodd;"/><path d="M470.59,907.05c0-14.61,37.43-26.45,83.61-26.45s83.62,11.83,83.62,26.45-37.44,26.44-83.62,26.44-83.61-11.83-83.61-26.44h0Zm0,0" style="fill:#ce1641; fill-rule:evenodd;"/><path d="M199.23,904.94c-.48-15.94,30.9-28.63,69.21-29.2,37.32-.57,70.69,10.58,75.58,25.67,5.22,16.11-23.33,31.08-65.11,32.52-42.96,1.49-79.16-11.97-79.68-29h0Zm0,0" style="fill:#ce1641; fill-rule:evenodd;"/><path d="M242.53,845.13c-1.31-10.18,18.09-19.7,43.32-21.27,25.24-1.54,46.77,5.45,48.08,15.64,1.31,10.19-18.09,19.7-43.32,21.27-25.24,1.55-46.77-5.45-48.08-15.64h0Zm0,0" style="fill:#fff1b6; fill-rule:evenodd;"/><path d="M353.31,1014.33c-.82-7.72,12.14-13.22,28.92-12.27,16.8,.95,31.05,8,31.88,15.72,.8,7.74-12.17,13.22-28.94,12.27-16.8-.95-31.05-7.98-31.85-15.72h0Zm0,0" style="fill:#fff1b6; fill-rule:evenodd;"/><path d="M323.33,985c-.46-4.22,6.64-7.23,15.82-6.72,9.18,.54,16.98,4.38,17.42,8.6,.46,4.24-6.63,7.26-15.82,6.71-9.18-.51-16.98-4.35-17.42-8.59h0Zm0,0" style="fill:#fff1b6; fill-rule:evenodd;"/><path d="M475.61,955.14c-.46-4.22,6.64-7.23,15.82-6.72,9.19,.51,16.98,4.37,17.42,8.59,.43,4.25-6.64,7.25-15.83,6.71-9.18-.52-16.98-4.37-17.42-8.59h0Zm0,0" style="fill:#fff1b6; fill-rule:evenodd;"/><path d="M515.44,814.59c-.67-5.3,9.42-10.27,22.56-11.06,13.15-.8,24.34,2.83,25.03,8.13,.67,5.33-9.42,10.27-22.56,11.09-13.15,.8-24.34-2.83-25.03-8.16h0Zm0,0" style="fill:#fff1b6; fill-rule:evenodd;"/><path d="M870.03,841.76c-6.97-5.07-9.49-12.14-6.06-16.46,3.59-4.53,12.93-4.97,21.5-.31,9.65,5.25,13.74,14.3,8.31,19.27-5.09,4.66-15.98,3.16-23.75-2.5h0Zm0,0" style="fill:#fff1b6; fill-rule:evenodd;"/><path d="M683.15,959.61c-7.95-1.98-11.11-7.38-6.3-11.4,4.37-3.65,12.99-3.99,18.83-1.42,5.15,2.24,6.9,6.25,4.32,9.39-2.78,3.37-10.06,5.12-16.85,3.42h0Zm0,0" style="fill:#fff1b6; fill-rule:evenodd;"/><path d="M662.93,889.74c-7.92-1.98-11.11-7.41-6.28-11.42,4.35-3.63,12.99-3.96,18.83-1.42,5.12,2.26,6.87,6.28,4.3,9.42-2.78,3.37-10.03,5.12-16.85,3.42h0Zm0,0" style="fill:#ffe77e; fill-rule:evenodd;"/><path d="M443.09,793.93c0-2,4.56-3.6,10.19-3.55,5.61,.05,10.16,1.75,10.16,3.75s-4.55,3.6-10.16,3.55c-5.63-.04-10.19-1.72-10.19-3.75h0Zm0,0" style="fill:#f8bba1; fill-rule:evenodd;"/><path d="M492.11,898.23c15.92,1.31,39.72-3.44,64.54,11.7,30.13,18.42,65.99,7.26,65.78-4.71-.21-11.99-29.17-21.45-64.68-21.12-35.5,.31-78.18,13.13-65.65,14.13h0Zm0,0" style="fill:#e51e52; fill-rule:evenodd;"/><path d="M537.92,919.46c0-2.63,6.25-4.79,13.97-4.87,7.72-.05,13.97,2.01,13.97,4.63s-6.25,4.79-13.97,4.87c-7.72,.05-13.97-2.01-13.97-4.63h0Zm0,0" style="fill:#f8bba1; fill-rule:evenodd;"/><path d="M550.06,896.89c0-2.63,6.26-4.78,13.97-4.86,7.72-.05,13.98,2,13.98,4.63s-6.26,4.79-13.98,4.86c-7.71,.05-13.97-2.01-13.97-4.63h0Zm0,0" style="fill:#f8bba1; fill-rule:evenodd;"/><path d="M591.23,908.75c0-1.88,4.48-3.42,9.98-3.48,5.53-.05,10.01,1.42,10.01,3.3s-4.48,3.42-10.01,3.48c-5.5,.04-9.98-1.44-9.98-3.29h0Zm0,0" style="fill:#f8bba1; fill-rule:evenodd;"/><path d="M501.88,900.41c0-1.88,4.48-3.43,9.99-3.47,5.52-.05,10,1.41,10,3.3s-4.48,3.41-10,3.47c-5.51,.05-9.99-1.45-9.99-3.29h0Zm0,0" style="fill:#f8bba1; fill-rule:evenodd;"/><path d="M302.57,892.54c0-1.88,4.45-3.42,9.98-3.48,5.51-.04,9.99,1.42,9.99,3.3s-4.48,3.42-9.99,3.48c-5.53,.04-9.98-1.44-9.98-3.3h0Zm0,0" style="fill:#f8bba1; fill-rule:evenodd;"/><path d="M572.29,995.96c65.99-2.52,140.44-9.73,84.82-24.31-55.62-14.58-128.53,25.99-84.82,24.31h0Zm0,0" style="fill:#ffd15f; fill-rule:evenodd;"/><path d="M766.42,805.35c-1.52-13.12,25.62-22.15,60.66-20.17,35.01,1.98,64.63,14.23,66.14,27.37,1.52,13.12-25.62,22.15-60.66,20.17-35.02-2.01-64.63-14.25-66.14-27.38h0Zm0,0" style="fill:#ce1641; fill-rule:evenodd;"/><path d="M540.06,824.6c0-14.89,28.33-26.96,63.29-26.96s63.27,12.07,63.27,26.96-28.33,26.99-63.27,26.99-63.29-12.09-63.29-26.99h0Zm0,0" style="fill:#a71738; fill-rule:evenodd;"/><path d="M578.55,699.67c0-4.79,19.76-8.67,44.15-8.67s44.14,3.88,44.14,8.67-19.76,8.7-44.14,8.7-44.15-3.89-44.15-8.7h0Zm0,0" style="fill:#ffd468; fill-rule:evenodd;"/><path d="M532.85,709.62c-.46-2.78,5.76-6.15,13.9-7.53,8.12-1.36,15.12-.23,15.59,2.57,.46,2.78-5.74,6.15-13.9,7.54-8.13,1.36-15.1,.23-15.59-2.58h0Zm0,0" style="fill:#ffd468; fill-rule:evenodd;"/><path d="M475.61,1003.3c9-4.45,19.63-4.22,28.74-.03,12.84,5.89,34.32,9.78,58.66,9.78,15.28,0,29.41-1.54,40.98-4.14,1.93,2.06,3.01,4.22,3.01,6.46,0,12.45-31.9,22.54-71.24,22.54s-71.24-10.09-71.24-22.54c0-4.45,4.06-8.57,11.09-12.07h0Zm0,0" style="fill:#ce1641; fill-rule:evenodd;"/><path d="M216.57,890.99c12.03-7.64,27.49-6.91,39.77,.39,13.18,7.85,34.27,17.47,57.4,16.67h.25c9.36-.33,12.01,12.63,3.3,16-10.12,3.91-23.6,6.54-39.11,7.05-38.56,1.33-71.03-10.73-71.49-26.01-.16-5.22,3.49-10.05,9.88-14.1h0Zm0,0" style="fill:#e51e52; fill-rule:evenodd;"/><path d="M261.95,913.97c0-2.24,6.3-4.1,14.07-4.14,7.78-.05,14.07,1.7,14.07,3.93s-6.3,4.09-14.07,4.17c-7.77,.05-14.07-1.72-14.07-3.96h0Zm0,0" style="fill:#f8bba1; fill-rule:evenodd;"/><path d="M235.81,887.91c0-1.88,4.48-3.42,9.98-3.48,5.53-.05,9.98,1.42,9.98,3.3s-4.45,3.42-9.98,3.48c-5.51,.05-9.98-1.44-9.98-3.29h0Zm0,0" style="fill:#f8bba1; fill-rule:evenodd;"/><path d="M551.48,1020.35c0-1.85,4.48-3.42,9.98-3.47,5.53-.03,9.99,1.44,9.99,3.32s-4.46,3.42-9.99,3.47c-5.5,.05-9.98-1.44-9.98-3.32h0Zm0,0" style="fill:#f8bba1; fill-rule:evenodd;"/><path d="M507.61,1038.1c0-2.24,6.3-4.09,14.07-4.17,7.77-.05,14.07,1.72,14.07,3.96s-6.3,4.09-14.07,4.14c-7.77,.05-14.07-1.7-14.07-3.94h0Zm0,0" style="fill:#f8bba1; fill-rule:evenodd;"/><path d="M463.88,1029.15c0-1.85,4.48-3.42,9.98-3.45,5.51-.05,9.99,1.41,9.99,3.29s-4.48,3.42-9.99,3.47c-5.51,.05-9.98-1.44-9.98-3.32h0Zm0,0" style="fill:#f8bba1; fill-rule:evenodd;"/><path d="M494.93,1014.33c0-1.85,4.48-3.42,9.98-3.47,5.53-.05,9.98,1.44,9.98,3.32s-4.45,3.42-9.98,3.47c-5.5,.05-9.98-1.44-9.98-3.32h0Zm0,0" style="fill:#f8bba1; fill-rule:evenodd;"/><path d="M570.29,838.41c30.33,0,54.89-10.5,54.89-23.41,0-.62-.05-1.21-.15-1.83-.93-5.12,3.24-9.67,8.26-8.33,15.44,4.14,25.68,11.47,25.68,19.81,0,12.92-24.58,23.41-54.88,23.41-18.81,0-35.38-4.05-45.29-10.19,3.7,.34,7.54,.54,11.48,.54h0Zm0,0" style="fill:#ce1641; fill-rule:evenodd;"/><path d="M620.3,816.31c0-2.62,6.26-4.78,13.98-4.86,7.69-.08,13.94,2.01,13.94,4.6s-6.25,4.81-13.94,4.87c-7.72,.07-13.98-2.01-13.98-4.61h0Zm0,0" style="fill:#f8bba1; fill-rule:evenodd;"/><path d="M592,836.61c0-1.77,5.07-3.24,11.32-3.27,6.26-.05,11.32,1.34,11.32,3.12s-5.06,3.24-11.32,3.27c-6.25,.05-11.32-1.34-11.32-3.12h0Zm0,0" style="fill:#f8bba1; fill-rule:evenodd;"/><path d="M552.38,818.91c0-1.78,3.83-3.24,8.57-3.29,4.71-.05,8.53,1.36,8.53,3.12s-3.83,3.24-8.53,3.29c-4.74,.05-8.57-1.36-8.57-3.11h0Zm0,0" style="fill:#f8bba1; fill-rule:evenodd;"/><path d="M580.52,809.52c0-1.78,3.83-3.24,8.57-3.27,4.73-.05,8.57,1.34,8.57,3.11s-3.83,3.24-8.57,3.27c-4.73,.05-8.57-1.34-8.57-3.12h0Zm0,0" style="fill:#f8bba1; fill-rule:evenodd;"/><path d="M739.49,954.72c1.96-16.41,35.35-28.58,74.58-27.19,39.26,1.42,69.51,15.87,67.56,32.29-1.93,16.44-35.32,28.6-74.58,27.21-39.23-1.42-69.49-15.87-67.56-32.31h0Zm0,0" style="fill:#a71738; fill-rule:evenodd;"/><path d="M818.12,930.9c8.66,.31,16.87,1.26,24.39,2.73,6.61,1.31,8.26,9.85,2.59,13.54-13.22,8.62-37.07,13.89-63.65,12.93-8.67-.3-16.85-1.26-24.39-2.74-6.59-1.29-8.23-9.86-2.6-13.51,13.25-8.62,37.1-13.9,63.65-12.94h0Zm0,0" style="fill:#ce1641; fill-rule:evenodd;"/><path d="M839.72,946.31c0-2.03,5.17-3.73,11.58-3.78,6.4-.06,11.58,1.56,11.58,3.59s-5.18,3.74-11.58,3.79c-6.41,.04-11.58-1.55-11.58-3.6h0Zm0,0" style="fill:#f8bba1; fill-rule:evenodd;"/><path d="M768.2,943.15c0-2.62,6.25-4.78,13.97-4.86,7.7-.08,13.97,2.01,13.97,4.6s-6.27,4.81-13.97,4.86c-7.72,.08-13.97-1.97-13.97-4.6h0Zm0,0" style="fill:#f8bba1; fill-rule:evenodd;"/><path d="M803.34,974.59c0-1.62,5.14-2.98,11.47-3.03,6.31-.03,11.45,1.25,11.45,2.88s-5.14,3.01-11.45,3.04c-6.33,.05-11.47-1.23-11.47-2.88h0Zm0,0" style="fill:#f8bba1; fill-rule:evenodd;"/><path d="M809.11,814.77c30.16,1.7,53.54-6.07,52.23-17.39-.1-.82-.36-1.65-.69-2.44,13.74,4.48,23.08,10.91,23.85,17.6,1.31,11.32-22.08,19.09-52.23,17.37-27.94-1.57-51.84-10.76-56.24-21.07,9.39,3.07,20.84,5.25,33.09,5.94h0Zm0,0" style="fill:#e51e52; fill-rule:evenodd;"/><path d="M838.66,803.27c0-2.62,6.25-4.79,13.94-4.86,7.72-.05,13.97,2,13.97,4.63s-6.25,4.78-13.97,4.86c-7.69,.05-13.94-2.01-13.94-4.63h0Zm0,0" style="fill:#f8bba1; fill-rule:evenodd;"/><path d="M820.35,820.2c.1-1.93,4.61-3.35,10.06-3.14,5.48,.21,9.83,1.93,9.75,3.89-.08,1.93-4.61,3.34-10.06,3.13-5.48-.2-9.82-1.93-9.75-3.88h0Zm0,0" style="fill:#f8bba1; fill-rule:evenodd;"/><path d="M788.37,800.75c.08-1.93,4.61-3.34,10.06-3.14,5.48,.21,9.83,1.93,9.75,3.86-.1,1.95-4.61,3.37-10.06,3.16-5.48-.21-9.83-1.93-9.75-3.88h0Zm0,0" style="fill:#f8bba1; fill-rule:evenodd;"/><path d="M685.87,1080.73c100.93-.98,171.93-55.49,133.39-64.26-38.56-8.75-107.97,52.92-153.25,53.28-45.25,.34-37.41,11.53,19.86,10.99h0Zm0,0" style="fill:#e12143; fill-rule:evenodd;"/><path d="M843.4,1026.5c7.95-6.1,20.25-9.16,27.45-6.84,7.2,2.34,6.61,9.18-1.34,15.28-7.95,6.12-20.25,9.18-27.45,6.84-7.2-2.32-6.61-9.16,1.34-15.28h0Zm0,0" style="fill:#e12143; fill-rule:evenodd;"/><path d="M548.65,752.82c132.88,6.99,248.91,.69,180.78-8.34-68.15-9.03-260.05,4.17-180.78,8.34h0Zm0,0" style="fill:#e12143; fill-rule:evenodd;"/><path d="M701.62,922.33c0-1.93,4.35-3.47,9.72-3.47s9.72,1.54,9.72,3.47-4.35,3.47-9.72,3.47-9.72-1.54-9.72-3.47h0Zm0,0" style="fill:#b3a93f; fill-rule:evenodd;"/><path d="M363.75,845.13c0-1.93,4.35-3.47,9.72-3.47s9.75,1.54,9.75,3.47-4.37,3.48-9.75,3.48-9.72-1.55-9.72-3.48h0Zm0,0" style="fill:#b3a93f; fill-rule:evenodd;"/><path d="M486.13,770.7c0-1.9,4.35-3.45,9.72-3.45s9.73,1.55,9.73,3.45-4.35,3.5-9.73,3.5-9.72-1.57-9.72-3.5h0Zm0,0" style="fill:#b3a93f; fill-rule:evenodd;"/><path d="M908.11,955.68c0-1.93,4.37-3.48,9.74-3.48s9.72,1.55,9.72,3.48-4.34,3.47-9.72,3.47-9.74-1.54-9.74-3.47h0Zm0,0" style="fill:#b3a93f; fill-rule:evenodd;"/><path d="M715.31,842.07c0-1.93,4.37-3.48,9.75-3.48s9.72,1.55,9.72,3.48-4.35,3.44-9.72,3.44-9.75-1.54-9.75-3.44h0Zm0,0" style="fill:#b3a93f; fill-rule:evenodd;"/><path d="M387.19,949.5c0-1.93,4.35-3.47,9.72-3.47s9.72,1.54,9.72,3.47-4.35,3.47-9.72,3.47-9.72-1.57-9.72-3.47h0Zm0,0" style="fill:#b3a93f; fill-rule:evenodd;"/><path d="M209.88,963.39c0-1.92,4.35-3.47,9.72-3.47s9.75,1.55,9.75,3.47-4.37,3.48-9.75,3.48-9.72-1.55-9.72-3.48h0Zm0,0" style="fill:#b3a93f; fill-rule:evenodd;"/><path d="M869.87,865.38c0-1.93,4.35-3.48,9.73-3.48s9.75,1.55,9.75,3.48-4.37,3.47-9.75,3.47-9.73-1.57-9.73-3.47h0Zm0,0" style="fill:#b3a93f; fill-rule:evenodd;"/><path d="M648.75,1018.91c0-1.93,4.37-3.47,9.75-3.47s9.72,1.54,9.72,3.47-4.35,3.45-9.72,3.45-9.75-1.54-9.75-3.45h0Zm0,0" style="fill:#b3a93f; fill-rule:evenodd;"/></svg>