<?xml version="1.0" encoding="UTF-8"?><svg id="a" xmlns="http://www.w3.org/2000/svg" viewBox="0 0 2020.25 1576.14"><path d="M1899,1016.89c52.81,68.14,78.09,163.12,61.23,259.86-24.82,142.5-132.85,241.81-254.15,244.03v.02s-.28-.01-.28-.01c-12.18,.2-24.49-.58-36.86-2.37-238.9-20.6-418.6-134.48-877.07,19.01h-.01c-88.45,32.55-185.97,40.63-284.62,18.38C208.35,1488.4,12.29,1168.32,69.33,840.9c40.51-232.57,197.84-406.26,392.69-463.24v-.05c144.2-45,381.61-21.94,605.51-102.13C1261.77,205.92,1402.76-1.13,1607.08,42.76c5.4,.92,10.8,1.98,16.22,3.21,172.14,38.82,286.01,217.66,254.34,399.45-2.02,11.6-4.59,22.92-7.66,33.96h0c-57.95,207.47-48.27,386.63,29.02,537.49h0Z" style="fill:#ede4f1; fill-rule:evenodd;"/><path d="M309.58,1481.02c116.75,0,211.39,21.29,211.39,47.56s-94.64,47.56-211.39,47.56-211.38-21.29-211.38-47.56,94.64-47.56,211.38-47.56Z" style="fill:#d1c6e2; fill-rule:evenodd;"/><rect x="217.35" y="1378.32" width="192.88" height="65.14" rx="13.54" ry="13.54" style="fill:#3f4979;"/><polygon points="395.21 1443.46 232.37 1443.46 248.35 1527.63 379.23 1527.63 395.21 1443.46" style="fill:#3f4979; fill-rule:evenodd;"/><polygon points="232.37 1443.46 395.21 1443.46 392.32 1458.69 235.26 1458.69 232.37 1443.46" style="fill:#1b2452; fill-rule:evenodd;"/><path d="M298.2,1048.39c-27.69,76.67-30.89,167.33-9.64,271.98,5.38,15.87,9.47,33.21,12.27,52.04,.53,1.97,1.06,3.94,1.6,5.92h10.12c2.42-39.1,3.23-78.84,2.42-119.24-1.23-61.19-6.15-123.9-14.77-188.15-.22-1.73,.99-3.31,2.72-3.54,1.73-.22,3.32,.99,3.54,2.72,8.64,64.45,13.58,127.4,14.81,188.84,.81,40.46,.01,80.24-2.39,119.36h7.14c3.66-35.2,11.23-66.38,22.71-93.56,12.94-92.02-3.9-170.81-50.53-236.38Z" style="fill:#5a53a2; fill-rule:evenodd;"/><path d="M460.3,1171.59c-4.27,68.85-39.68,137.76-106.22,206.73h-14.55c10.75-24.97,22.83-49.78,36.24-74.42,21.63-39.79,46.74-79.2,75.31-118.23,.76-1.05,.33-2.55-.98-3.34-1.3-.8-2.98-.58-3.75,.47-28.67,39.16-53.86,78.71-75.59,118.66-13.85,25.47-26.29,51.1-37.31,76.87h-7.43c10.79-103.79,55.55-172.71,134.28-206.73Z" style="fill:#9588c0; fill-rule:evenodd;"/><path d="M171.9,1203.4c3.9,61.39,33.77,119.7,89.6,174.92h22.78c-9.08-19.01-19.06-37.81-29.93-56.39-21.11-36.09-45.6-71.41-73.46-105.95-.75-.93-.32-2.44,.95-3.36,1.27-.92,2.9-.91,3.65,.02,27.96,34.65,52.53,70.09,73.73,106.33,11.44,19.57,21.89,39.35,31.35,59.35h11.09c-12.41-93.62-55.66-151.94-129.76-174.92Z" style="fill:#b4a5d0; fill-rule:evenodd;"/><path d="M1581.33,238.97c-50.72,34.48-108.59,105.68-168.78,175.7-34.58,39.2-56.7,67.89-66.38,86.1,5.34,7.06,12.36,8.31,21.03,3.75,25.76-38.12,45.23-64.5,58.41-79.13,28.84,71.51,74.67,81.01,137.47,28.49-34.91-4.74-92.68-28.73-80.13-36.55,31.93-9.5,62.86,.76,96.69,29.7,16.05-16.88,32-37.39,47.86-61.53-77.97,4.53-112.93-1.57-104.89-18.31,17.01-18.16,52.58-17.15,106.7,3.02,15.42-20.24,27.93-44.86,37.53-73.88-62.61,13.59-96.41,15.37-101.38,5.34,3.03-15.02,37.22-23.05,102.58-24.08,3.42-13.91,5.07-28.65,4.96-44.22-45.6,14.62-68.21,17.21-67.82,7.77,3.4-9.43,23.57-15.23,60.5-17.38-.76-28.12-19.71-38.74,.97-73.75-33.4,12.14-60.35,6.14-82.31-3.28-4.92,62.38-13.24,88.61-24.97,78.7-12.12-16.48-12.48-44.56-1.08-84.22-19.29,7.28-38.04,14.06-56.23,20.35-2.35,38.5,27.62,98.18,1.95,97.02-18.88-3.25-26.24-37.03-22.08-101.32-15.59,16.94-32.24,28.19-49.92,33.79-7.77,21.76,58.51,103.25,14.03,113.24-21.25-1.56-30.89-36.87-28.94-105.91-29.44,16.36-49.27,39.64-59.48,69.82,6.45,43.07,69.81,87.72,26.74,94.78-17.23-1.64-31.39-33.75-42.49-96.32-36.22,85.64-16.99,134.44,57.71,146.37,76.83-83.34,121.48-143.02,181.77-174.05Z" style="fill:#b4a5d0; fill-rule:evenodd;"/><path d="M1237.45,130.31c-36.76,58.47-64.29,158.06-94.77,257.49-17.97,56.05-27.84,95.64-29.59,118.8,8.7,4.88,16.5,3,23.4-5.63,9.35-50.96,17.53-86.97,24.51-108.02,62.05,60.75,113.62,49.86,154.69-32.69-38.15,10.88-108.58,12.22-99.17-1.53,28.65-24.22,65.19-27.6,113.16-13.03,8.93-24.66,16.13-53.02,21.59-85.09-78.39,39.89-117.22,49.38-116.48,28.48,9.35-26.41,46.5-41.44,111.44-45.06,6.78-27.84,8.56-58.9,5.35-93.17-58.45,42.3-92.51,59.4-102.17,51.29-3.66-16.87,27.98-40.6,94.95-71.17-2.76-15.9-7.71-31.85-14.85-47.86-40.44,35.68-62.59,48.56-66.46,38.64-.75-11.26,17.44-26.35,54.56-45.25-13.49-28.67-37.83-31.06-32.31-76.52-28.97,27.6-59.49,33.6-86.4,33.79,23.09,66.57,26.35,97.4,9.78,92.47-19.95-11.53-33-40.34-39.15-86.4-16.62,16.23-32.9,31.69-48.82,46.39,14.96,40.77,72.83,88.81,45.82,99.2-20.95,5.18-43.8-26.34-68.53-94.55-8.45,24.51-20.52,43.64-36.24,57.4,1.81,25.97,106.99,80.09,65.62,110.5-22.62,7.98-48.52-24.09-77.7-96.19-22.98,30.17-32.93,63.14-29.83,98.9,26.11,41.52,111.65,58.96,70.4,85.7-18.52,6.09-47.63-20.64-87.34-80.18,1.31,104.71,43.19,146.36,125.64,124.94,41.63-120.68,60.73-202.41,108.91-261.65Z" style="fill:#d7cce5; fill-rule:evenodd;"/><path d="M516.83,288.97l1072.07,85.59c24.98,2,45.32,23.96,45.32,48.94v748.79c0,24.97-37.91,59.54-62.85,57.15l-1054.55-101.04c-24.94-2.39-44.63-23.97-45.32-48.93l-20.5-738.39c-.7-24.97,40.85-54.09,65.82-52.1Z" style="fill:#071023; fill-rule:evenodd;"/><path d="M490.91,308.57l1072.07,85.59c24.97,2,45.32,23.96,45.32,48.94v748.79c0,24.97-20.35,43.69-45.32,41.7l-1072.07-85.59c-24.98-1.99-45.32-23.95-45.32-48.93V350.27c0-24.98,20.34-43.7,45.32-41.7Z" style="fill:#38308d; fill-rule:evenodd;"/><polygon points="497.19 360.75 497.19 1096.82 1556.7 1181.41 1556.7 445.34 497.19 360.75" style="fill:#d7cce5; fill-rule:evenodd;"/><polygon points="1259.9 565.34 1316.59 667.71 1259.9 761.74 1146.5 753.42 1089.81 651.05 1146.5 557.01 1259.9 565.34" style="fill:#8071b3; fill-rule:evenodd;"/><polygon points="1258.35 772.43 1315.05 874.8 1258.35 968.83 1144.96 960.51 1088.26 858.13 1144.96 764.1 1258.35 772.43" style="fill:#8071b3; fill-rule:evenodd;"/><polygon points="724.21 630.79 780.91 733.15 724.21 827.19 610.82 818.86 554.12 716.49 610.82 622.46 724.21 630.79" style="fill:#fff; fill-rule:evenodd;"/><polygon points="1438.31 682.48 1495.01 784.84 1438.31 878.88 1324.92 870.55 1268.22 768.18 1324.92 674.14 1438.31 682.48" style="fill:#8071b3; fill-rule:evenodd;"/><polygon points="901.96 538.9 958.66 641.27 901.96 735.3 788.57 726.98 731.87 624.61 788.57 530.57 901.96 538.9" style="fill:#fff; fill-rule:evenodd;"/><path d="M1078.9,449.22l56.7,102.37-56.7,94.04-113.39-8.33-56.7-102.37,56.7-94.04,113.39,8.33h0Zm-4.56,7.57l-104.27-7.66-52.14,86.47,52.14,94.13,104.27,7.66,52.13-86.47-52.13-94.12Z" style="fill:#fff; fill-rule:evenodd;"/><path d="M902.98,747.06l56.7,102.37-56.7,94.04-113.39-8.33-56.7-102.37,56.7-94.04,113.39,8.33h0Zm-4.56,7.56l-104.27-7.66-52.14,86.47,52.14,94.13,104.27,7.66,52.13-86.47-52.13-94.13Z" style="fill:#fff; fill-rule:evenodd;"/><path d="M1080.69,654.8l56.7,102.37-56.7,94.03-113.39-8.33-56.7-102.37,56.7-94.03,113.39,8.33h0Zm-4.56,7.57l-104.27-7.66-52.13,86.47,52.13,94.13,104.27,7.66,52.13-86.47-52.13-94.13Z" style="fill:#fff; fill-rule:evenodd;"/><path d="M1083.75,863.96l56.7,102.37-56.7,94.03-113.39-8.33-56.7-102.37,56.7-94.03,113.39,8.33h0Zm-4.56,7.57l-104.27-7.66-52.13,86.47,52.13,94.13,104.27,7.66,52.13-86.46-52.13-94.13Z" style="fill:#fff; fill-rule:evenodd;"/><path d="M1381.62,712.89c-35.08-2.58-63.62,23.87-63.62,58.95s28.54,65.73,63.62,68.3c35.09,2.58,63.63-23.87,63.63-58.95s-28.54-65.73-63.63-68.3h0Zm0,132.5c-37.98-2.79-68.88-35.96-68.88-73.94s30.9-66.61,68.88-63.82c37.98,2.79,68.88,35.96,68.88,73.94s-30.9,66.61-68.88,63.81Z" style="fill:#fff; fill-rule:evenodd;"/><path d="M1381.62,712.89c-20.55-1.51-37.27,25.8-37.27,60.89s16.72,64.86,37.27,66.36c20.55,1.51,37.27-25.8,37.27-60.89s-16.72-64.85-37.27-66.36h0Zm0,132.5c-23.44-1.72-42.52-34.02-42.52-72s19.08-67.48,42.52-65.75c23.45,1.72,42.53,34.02,42.53,72s-19.08,67.47-42.53,65.75Z" style="fill:#fff; fill-rule:evenodd;"/><path d="M1381.62,712.89c-3.2-.24-10.7,20.86-10.7,62.84s7.5,64.18,10.7,64.41c3.2,.24,10.71-20.86,10.71-62.84s-7.51-64.18-10.71-64.41h0Zm0,132.5c-12.62-.93-15.95-46.23-15.95-70.05s3.33-68.63,15.95-67.7c12.62,.93,15.95,46.23,15.95,70.05s-3.33,68.63-15.95,67.71Z" style="fill:#fff; fill-rule:evenodd;"/><polygon points="1315.36 774.27 1447.87 784.01 1447.87 778.76 1315.36 769.02 1315.36 774.27" style="fill:#fff; fill-rule:evenodd;"/><path d="M1381.62,754.89c-21.67-1.59-42.11-8.93-54.67-19.63l3.23-3.91c11.67,9.95,30.9,16.78,51.44,18.29,20.77,1.53,40.12-2.57,51.76-10.96l3.26,4.35c-12.53,9.04-33.1,13.47-55.02,11.86Z" style="fill:#fff; fill-rule:evenodd;"/><path d="M1433.38,821.84c-11.64-10.09-30.99-17.04-51.76-18.57-20.54-1.5-39.77,2.5-51.44,10.73l-3.23-4.38c12.56-8.86,33-13.2,54.67-11.61,21.92,1.62,42.49,9.07,55.02,19.95l-3.26,3.87Z" style="fill:#fff; fill-rule:evenodd;"/><path d="M1382.82,732.78c-15.58-1.14-31.89-7.41-32.93-17.15l5.21-.18c.52,4.79,12.03,10.93,27.72,12.08,15.67,1.15,26.98-3.14,27.7-7.87l5.19,1.16c-1.26,8.24-15.09,13.27-32.89,11.96Z" style="fill:#fff; fill-rule:evenodd;"/><path d="M1354.09,833.5l-5.22-.95c1.04-9.59,17.36-13.45,32.93-12.31,17.8,1.31,31.64,8.37,32.89,16.8l-5.19,.4c-.72-4.84-12.03-10.8-27.7-11.95-15.69-1.15-27.2,3.29-27.71,8Z" style="fill:#fff; fill-rule:evenodd;"/><path d="M1183.1,656.41l29.62,27.56c.41,.39,.69,.9,.76,1.45l4.5,31.01,17.26-20.68,3.56-26.31c.07-.47,.28-.89,.6-1.22,8.92-8.77,14.62-19.05,17.38-31.41l-30.63-28.5c-11.98,3.77-21.69,10.32-29.63,20.01-.3,.36-.7,.6-1.16,.7l-25.71,5.69-19.05,19.02,31.01,2.02c.55,.03,1.08,.27,1.5,.65h0Zm31.91,67.09c-.41-.38-.69-.89-.77-1.45l-5.13-35.45-28.33-26.35-35.44-2.3c-.91-.07-1.74-.66-2.1-1.52-.36-.85-.2-1.81,.42-2.43l23.08-23.04c.28-.28,.63-.47,1.03-.56l25.6-5.67c8.67-10.36,19.3-17.28,32.45-21.16,.77-.22,1.64,0,2.26,.58l32.68,30.4c.62,.58,.91,1.43,.75,2.23-2.77,13.53-8.76,24.76-18.3,34.32l-3.54,26.2c-.06,.4-.22,.77-.47,1.07l-20.64,24.73c-.08,.16-.18,.3-.3,.43-.82,.9-2.29,.81-3.22,0,0,0-.01-.01-.02-.02Z" style="fill:#fff; fill-rule:evenodd;"/><path d="M1231.1,606.95l26.63,24.78c1.24-8.09,1.39-17.13,.47-27.45-10.28-.11-19.2,.78-27.1,2.67h0Zm26.7,30.83l-32.68-30.4c-.61-.57-.9-1.41-.76-2.19,.14-.78,.69-1.4,1.45-1.62,9.75-2.88,20.98-4.13,34.32-3.81,1.21,.03,2.25,1,2.38,2.21,1.38,13.39,1.05,24.77-1.01,34.81-.16,.78-.73,1.39-1.49,1.59-.75,.2-1.6-.02-2.21-.59Z" style="fill:#fff; fill-rule:evenodd;"/><path d="M1235.2,629.42c-5.09-4.74-12.79-4.71-17.15,.07-4.37,4.77-3.77,12.51,1.32,17.24,5.09,4.74,12.78,4.71,17.15-.06,4.36-4.77,3.77-12.51-1.32-17.25h0Zm-18.79,20.54c-6.99-6.51-7.81-17.14-1.81-23.69,5.99-6.56,16.57-6.59,23.56-.09,7,6.51,7.81,17.14,1.81,23.7-5.99,6.55-16.56,6.59-23.56,.08Z" style="fill:#fff; fill-rule:evenodd;"/><path d="M1192.18,654.68c-.95-.89-1.06-2.33-.24-3.23l5.7-6.24c.82-.89,2.25-.89,3.21-.01,.95,.89,1.06,2.33,.25,3.23l-5.71,6.24c-.82,.89-2.25,.9-3.21,.01h0Zm6.95,6.47c.95,.89,2.39,.88,3.21-.01l5.7-6.24c.82-.89,.71-2.33-.24-3.22s-2.39-.88-3.21,0l-5.7,6.24c-.82,.89-.71,2.33,.24,3.22h0Zm6.95,6.47c-.95-.89-1.06-2.33-.25-3.22l5.71-6.24c.82-.89,2.25-.9,3.21-.01,.95,.89,1.06,2.33,.24,3.22l-5.7,6.24c-.82,.89-2.25,.89-3.21,0h0Zm6.95,6.47c.95,.89,2.39,.88,3.2-.01l5.71-6.24c.81-.89,.7-2.34-.25-3.23s-2.39-.88-3.21,.01l-5.7,6.24c-.81,.89-.7,2.34,.25,3.23Z" style="fill:#fff; fill-rule:evenodd;"/><path d="M1179.47,664.65l25.4,23.64,2.79-3.04-25.41-23.64-2.78,3.04h0Zm22.65,27.06l-25.81-24.02c-1.79-1.67-2-4.39-.47-6.07l3.13-3.42c1.53-1.68,4.24-1.69,6.03-.02l25.81,24.01c1.79,1.67,2,4.39,.47,6.07l-3.13,3.42c-1.53,1.68-4.24,1.69-6.03,.03Z" style="fill:#fff; fill-rule:evenodd;"/><path d="M1169.65,634.73l-19.05,19.02,28.98,1.89c1.03-8.14,4.29-16.46,9.9-25.3l-19.83,4.39h0Zm-25.8,22.56c-.26-.24-.46-.53-.6-.85-.36-.85-.2-1.81,.42-2.43l23.08-23.04c.28-.28,.63-.47,1.02-.56l26.31-5.82c.93-.2,1.92,.2,2.48,1.02,.57,.81,.58,1.87,.04,2.62-7.79,10.82-11.95,20.69-12.7,30.15-.1,1.17-1.07,2.01-2.25,1.93l-36.3-2.37c-.56-.03-1.09-.28-1.5-.66Z" style="fill:#fff; fill-rule:evenodd;"/><path d="M1213.78,687.46l4.2,28.98,17.26-20.68,2.74-20.29c-8.27,6.36-16.25,10.31-24.2,11.99h0Zm1.24,36.05c-.41-.38-.69-.89-.77-1.45l-5.26-36.3c-.17-1.18,.58-2.23,1.72-2.42,9.3-1.52,18.72-6.49,28.78-15.19,.7-.61,1.74-.68,2.6-.18s1.34,1.47,1.22,2.41l-3.64,26.92c-.06,.4-.22,.77-.47,1.07l-20.91,25.06c-.56,.67-1.49,.91-2.37,.62-.33-.11-.64-.3-.89-.54Z" style="fill:#fff; fill-rule:evenodd;"/><path d="M1159.8,687.62c-.95-.89-1.06-2.33-.25-3.23l9.14-9.98c.81-.89,2.25-.9,3.2-.01,.96,.89,1.06,2.33,.25,3.23l-9.13,9.98c-.82,.89-2.25,.9-3.2,.01h0Zm23.95,22.29c-.95-.89-1.07-2.33-.24-3.22l9.13-9.99c.82-.89,2.25-.89,3.21,0,.95,.89,1.06,2.33,.25,3.22l-9.13,9.98c-.82,.89-2.25,.9-3.21,.01h0Zm-15.88-6.86c.95,.89,2.38,.88,3.2-.01l13.05-14.27c.82-.89,.7-2.33-.25-3.22-.95-.89-2.39-.88-3.21,.01l-13.04,14.26c-.82,.89-.7,2.34,.25,3.23Z" style="fill:#fff; fill-rule:evenodd;"/><path d="M601.21,714.48c1.3-16.36,8.42-30.62,19.27-40.83,10.84-10.21,25.42-16.36,41.64-16.49l-2.55,12.41c-11.86,.89-22.48,5.74-30.56,13.35-8.09,7.62-13.64,17.98-15.37,29.88l-12.43,1.67h0Zm60.91,77.2c-16.22-2.51-30.8-10.8-41.64-22.6-10.85-11.8-17.97-27.12-19.27-43.66l12.43,3.5c1.73,12.16,7.28,23.34,15.37,32.14,8.08,8.79,18.7,15.21,30.56,17.84l2.55,12.79h0Zm71.69-56.52c-1.3,16.36-8.43,30.62-19.27,40.83-10.84,10.2-25.43,16.35-41.64,16.48l2.54-12.42c11.86-.89,22.48-5.74,30.57-13.35,8.08-7.6,13.64-17.97,15.37-29.88l12.43-1.67h0Zm-60.91-77.2c16.21,2.51,30.8,10.8,41.64,22.6,10.85,11.8,17.96,27.12,19.27,43.66l-12.43-3.5c-1.73-12.15-7.29-23.34-15.37-32.14-8.08-8.79-18.7-15.21-30.57-17.84l-2.54-12.79h0Z" style="fill:#9588c0; fill-rule:evenodd;"/><path d="M667.51,713.39c6.22,.46,11.27,5.95,11.27,12.26s-5.05,11.05-11.27,10.6c-6.22-.46-11.26-5.95-11.26-12.26s5.04-11.05,11.26-10.6h0Zm0,5.93h0c-2.99-.22-5.42,2.06-5.42,5.11s2.43,5.68,5.42,5.9c3,.22,5.43-2.06,5.43-5.1s-2.43-5.68-5.43-5.9h0Zm10.08-15.91l-10.08-50.59-10.07,49.11-19.59-9.38,7.83,20.45-49.15,6.61,49.15,13.83-7.83,19.3,19.59-6.51,10.07,50.6,10.08-49.11,19.6,9.38-7.83-20.46,49.15-6.6-49.15-13.83,7.83-19.3-19.6,6.5h0Z" style="fill:#9588c0; fill-rule:evenodd;"/><path d="M990.52,528.44c-5.4,3.69-10.23,7.53-14.41,11.42,4.17,4.5,9.01,9.06,14.41,13.54-.28-4.08-.43-8.26-.43-12.51s.14-8.41,.43-12.45h0Zm54.73-23.41c-5.73,1.1-11.8,2.74-18.03,4.92,3.66,2.05,7.34,4.29,11.02,6.68h.01s.09,.06,.09,.06l.03,.02h0c3.64,2.37,7.14,4.82,10.48,7.31-.84-6.77-2.06-13.16-3.6-18.98h0Zm8.64,53.03c5.4-3.69,10.23-7.53,14.41-11.42-4.18-4.5-9.01-9.06-14.41-13.54,.28,4.08,.43,8.26,.43,12.51s-.14,8.41-.43,12.45h0Zm-31.69,16.64h0c-4.59-2.46-9.25-5.22-13.91-8.25h0s0,0,0,0h-.03s-.03-.03-.03-.03c-4.68-3.04-9.12-6.21-13.26-9.44-.46-5.09-.7-10.37-.7-15.77s.24-10.65,.7-15.69c4.14-2.61,8.56-5.11,13.22-7.47h0s.01,0,.01,0l.03-.02c4.67-2.36,9.35-4.44,13.96-6.23,4.57,2.45,9.21,5.19,13.85,8.21h0s.11,.08,.11,.08c4.68,3.04,9.11,6.21,13.26,9.44,.45,5.09,.7,10.37,.7,15.78s-.24,10.65-.7,15.67c-4.15,2.62-8.58,5.13-13.26,7.49h0c-4.68,2.35-9.36,4.44-13.97,6.23h0Zm-23.04,6.78c5.72-1.1,11.79-2.75,18.02-4.92-3.65-2.05-7.33-4.28-11.02-6.67h-.01s-.01-.02-.01-.02h-.03s-.01-.02-.01-.02h0c-3.67-2.39-7.18-4.84-10.55-7.35,.84,6.78,2.06,13.16,3.6,18.99h0Zm23.05-2.19h0c7.57,3.96,14.96,7.14,21.88,9.5-.8,2.5-1.66,4.85-2.59,7.05-5.1,12.11-11.93,19.33-19.29,18.79-7.36-.54-14.2-8.77-19.3-21.62-.93-2.33-1.79-4.81-2.59-7.43,6.93-1.34,14.31-3.44,21.88-6.28h0Zm26.65-12.87c-3.38,2.02-6.91,3.97-10.59,5.83h0c-3.69,1.85-7.37,3.54-11.03,5.06,6.23,3.09,12.29,5.63,18.02,7.56,1.54-5.6,2.76-11.8,3.6-18.45h0Zm-53.3-46.31c3.38-2.02,6.92-3.98,10.6-5.83l.03-.02h.01s0,0,0,0c3.67-1.85,7.34-3.52,10.98-5.03-6.23-3.1-12.3-5.63-18.03-7.57-1.54,5.61-2.76,11.81-3.6,18.46h0Zm-22.33,16.54h0c-1.81-2.1-3.47-4.17-4.97-6.22-8.27-11.27-11.54-21.3-7.86-27.4h0c3.67-6.1,13.78-7.41,27.16-4.61,2.43,.51,4.95,1.16,7.56,1.93-1.87,6.79-3.28,14.41-4.12,22.6-6.73,4.36-12.7,8.99-17.76,13.69h0Zm76.06-32.31h0c2.61-.39,5.14-.67,7.56-.82,13.37-.84,23.48,1.95,27.16,8.59h.01c3.67,6.65,.39,16.19-7.87,26.25-1.5,1.82-3.16,3.66-4.97,5.49-5.06-5.45-11.04-10.96-17.76-16.31-.84-8.31-2.25-16.13-4.12-23.19h0Zm-7.74-10.68h0c.91,2.29,1.75,4.73,2.54,7.28-6.93,1.34-14.31,3.44-21.88,6.29-7.57-3.96-14.96-7.15-21.88-9.5,.8-2.49,1.66-4.85,2.59-7.05,5.1-12.11,11.94-19.33,19.3-18.79,5.12,.37,9.98,4.47,14.19,11.25-.93,1.01-1.48,2.37-1.48,3.89,0,3.4,2.75,6.35,6.14,6.6,.17,.01,.34,.02,.49,.02h0Zm-73.42,54.65h0l.13-.16c1.5-1.82,3.15-3.65,4.97-5.49,5.06,5.45,11.04,10.96,17.76,16.31,.84,8.31,2.25,16.13,4.12,23.2-2.61,.39-5.13,.66-7.56,.81-13.37,.85-23.48-1.95-27.16-8.6h0c-2.52-4.55-1.77-10.46,1.6-16.97,.36,.09,.72,.15,1.08,.18,3.4,.25,6.15-2.3,6.15-5.7,0-1.31-.41-2.55-1.1-3.6h0Zm97.73,37h0c-2.57-.19-4.77,1.23-5.69,3.4-1.08-.18-2.18-.39-3.31-.62-2.42-.51-4.95-1.16-7.56-1.93,1.87-6.78,3.28-14.4,4.12-22.59,6.72-4.36,12.7-9,17.76-13.7,1.81,2.1,3.47,4.17,4.97,6.22,8.27,11.27,11.54,21.3,7.86,27.4h0c-2.16,3.59-6.55,5.52-12.51,5.93-.95-2.24-3.12-3.92-5.64-4.1h0Zm-43.65-117.61c6.64,.49,12.74,5.47,17.79,13.64,.35-.03,.7-.04,1.06-.01,3.4,.25,6.15,3.21,6.15,6.6,0,1.73-.71,3.24-1.86,4.27v.02c1.01,2.52,1.93,5.19,2.79,8,2.82-.43,5.55-.74,8.16-.9,14.89-.93,26.43,2.54,31.15,10.67h.02s.15,.3,.15,.3c4.61,8.32,1.15,19.51-8.17,30.85-1.62,1.97-3.42,3.94-5.38,5.91,1.96,2.27,3.76,4.51,5.38,6.71,9.32,12.72,12.78,24.41,8.17,32.06l-.14,.24-.03,.03c-2.91,4.57-8.41,7.01-15.67,7.47-.73,2.53-3.11,4.25-5.92,4.05-2.76-.2-5.09-2.19-5.88-4.75-1.2-.19-2.43-.42-3.68-.68-2.62-.55-5.34-1.25-8.16-2.1-.85,2.69-1.78,5.23-2.77,7.6-5.77,13.68-13.94,21.8-23.16,21.12-9.22-.68-17.4-10-23.15-24.53-1-2.51-1.93-5.19-2.78-8-2.81,.43-5.54,.74-8.16,.9-15.08,.95-26.72-2.63-31.33-10.95h0c-3.28-5.93-2.48-13.29,1.61-21.13-.91-1.14-1.47-2.57-1.47-4.09,0-3.4,2.76-5.95,6.15-5.7,.57,.04,1.12,.16,1.64,.34l.24-.29c1.61-1.96,3.4-3.94,5.37-5.91-1.96-2.26-3.76-4.51-5.37-6.71-9.33-12.72-12.79-24.41-8.18-32.06h0c4.62-7.65,16.25-9.52,31.33-6.35,2.61,.55,5.34,1.25,8.16,2.1,.85-2.69,1.78-5.23,2.78-7.6,5.76-13.68,13.93-21.8,23.15-21.12h0Z" style="fill:#8071b3; fill-rule:evenodd;"/><path d="M1022.2,557.81c8.02,.59,14.56-5.47,14.56-13.49s-6.55-15.04-14.56-15.63c-8.02-.59-14.56,5.47-14.56,13.49s6.54,15.04,14.56,15.63Z" style="fill:#8071b3; fill-rule:evenodd;"/><path d="M1147.72,831.56c-.9-.07-1.64,.61-1.64,1.51v90.9c0,.9,.74,1.68,1.64,1.75l68.81,5.06c.89,.07,1.63-.62,1.63-1.51v-70.8l-21.74-23.34-48.7-3.58h0Zm68.81,103.29l-68.81-5.06c-3.14-.23-5.7-2.97-5.7-6.11v-90.91c0-3.13,2.56-5.5,5.7-5.27l49.54,3.64c.54,.04,1.05,.29,1.43,.7l22.93,24.62c.39,.41,.6,.94,.6,1.48v71.64c0,3.13-2.56,5.51-5.69,5.28Z" style="fill:#fff; fill-rule:evenodd;"/><path d="M1199.29,838.21v14.37c0,.9,.73,1.69,1.63,1.75l14.37,1.05-16-17.17h0Zm20.9,21.6l-19.27-1.41c-3.14-.23-5.69-2.98-5.69-6.11v-19.27c0-.82,.49-1.52,1.25-1.78,.76-.26,1.64-.03,2.21,.6l22.93,24.62c.58,.62,.76,1.51,.44,2.24-.32,.74-1.05,1.18-1.87,1.12Z" style="fill:#fff; fill-rule:evenodd;"/><path d="M1155.49,869.83c-1.12-.08-2.03-1.05-2.03-2.17s.91-1.97,2.03-1.88l53.26,3.91c1.12,.08,2.03,1.06,2.03,2.18s-.91,1.96-2.03,1.89l-53.26-3.92Z" style="fill:#fff; fill-rule:evenodd;"/><path d="M1155.49,856.43c-1.12-.08-2.03-1.06-2.03-2.17s.91-1.97,2.03-1.88l24.17,1.77c1.12,.08,2.03,1.06,2.03,2.18s-.91,1.96-2.03,1.88l-24.17-1.77Z" style="fill:#fff; fill-rule:evenodd;"/><path d="M1155.49,881.24c-1.12-.09-2.03-1.06-2.03-2.18s.91-1.96,2.03-1.89l53.26,3.91c1.12,.09,2.03,1.06,2.03,2.18s-.91,1.97-2.03,1.88l-53.26-3.91Z" style="fill:#fff; fill-rule:evenodd;"/><path d="M1208.75,896.57l-53.26-3.91c-1.12-.09-2.03-1.06-2.03-2.18s.91-1.96,2.03-1.88l53.26,3.91c1.12,.08,2.03,1.06,2.03,2.18s-.91,1.96-2.03,1.88Z" style="fill:#fff; fill-rule:evenodd;"/><path d="M1208.75,907.98l-53.26-3.92c-1.12-.08-2.03-1.06-2.03-2.17s.91-1.97,2.03-1.89l53.26,3.92c1.12,.08,2.03,1.06,2.03,2.18s-.91,1.96-2.03,1.89Z" style="fill:#fff; fill-rule:evenodd;"/><path d="M1208.75,919.39l-53.26-3.91c-1.12-.09-2.03-1.06-2.03-2.18s.91-1.97,2.03-1.88l53.26,3.91c1.12,.09,2.03,1.06,2.03,2.18s-.91,1.97-2.03,1.88Z" style="fill:#fff; fill-rule:evenodd;"/><path d="M1222.22,915.06l13.84,1.02c.9,.07,1.63-.61,1.63-1.51v-70.79l-21.74-23.34-48.7-3.58c-.9-.07-1.63,.61-1.63,1.51v10.44l31.64,2.33c.54,.04,1.05,.29,1.43,.7l22.93,24.62c.39,.41,.6,.94,.6,1.48v57.13h0Zm13.84,5.07l-15.87-1.16c-1.12-.08-2.03-1.06-2.03-2.18v-58.32l-21.74-23.34-32.83-2.41c-1.12-.08-2.03-1.06-2.03-2.18v-12.48c0-3.13,2.56-5.5,5.69-5.27l49.54,3.64c.54,.04,1.06,.29,1.44,.7l22.93,24.62c.38,.41,.59,.94,.59,1.48v71.63c0,3.14-2.55,5.51-5.69,5.27Z" style="fill:#fff; fill-rule:evenodd;"/><path d="M1241.75,900.36l13.85,1.02c.9,.07,1.64-.61,1.64-1.51v-70.8l-21.75-23.34-48.7-3.58c-.9-.07-1.63,.61-1.63,1.51v10.44l31.63,2.33c.54,.04,1.06,.29,1.44,.7l22.93,24.62c.38,.41,.59,.94,.59,1.48v57.13h0Zm13.85,5.08l-15.87-1.17c-1.12-.08-2.04-1.06-2.04-2.18v-58.32l-21.74-23.34-32.82-2.41c-1.12-.08-2.03-1.06-2.03-2.18v-12.47c0-3.13,2.55-5.5,5.69-5.27l49.54,3.64c.54,.04,1.06,.29,1.44,.7l22.93,24.62c.38,.41,.59,.94,.59,1.48v71.64c0,3.14-2.55,5.51-5.69,5.28Z" style="fill:#fff; fill-rule:evenodd;"/><path d="M1218.82,823.52v14.36c0,.9,.74,1.69,1.63,1.75l14.37,1.05-16-17.17h0Zm20.91,21.59l-19.28-1.41c-3.13-.23-5.68-2.98-5.68-6.11v-19.27c0-.82,.49-1.52,1.25-1.78,.76-.26,1.64-.02,2.21,.6l22.93,24.61c.58,.62,.76,1.5,.44,2.25-.32,.73-1.06,1.17-1.87,1.11Z" style="fill:#fff; fill-rule:evenodd;"/><path d="M1238.36,808.81v14.37c0,.9,.73,1.69,1.63,1.75l14.37,1.06-16-17.18h0Zm20.9,21.6l-19.27-1.41c-3.13-.23-5.69-2.97-5.69-6.11v-19.27c0-.82,.49-1.52,1.25-1.78,.76-.26,1.63-.03,2.21,.6l22.93,24.61c.58,.62,.75,1.51,.44,2.24-.32,.74-1.06,1.18-1.88,1.12Z" style="fill:#fff; fill-rule:evenodd;"/><path d="M1228.28,859.04l-9.46-.7c-1.12-.09-2.03-1.06-2.03-2.18s.91-1.96,2.03-1.88l9.46,.7c1.12,.08,2.03,1.06,2.03,2.17s-.91,1.97-2.03,1.89h0Zm0,11.41l-8.1-.6c-1.12-.09-2.03-1.06-2.03-2.18s.91-1.96,2.03-1.88l8.1,.6c1.12,.08,2.03,1.06,2.03,2.18s-.91,1.96-2.03,1.89h0Zm0,11.41l-8.1-.59c-1.12-.08-2.03-1.06-2.03-2.18s.91-1.96,2.03-1.88l8.1,.59c1.12,.09,2.03,1.06,2.03,2.18s-.91,1.97-2.03,1.88h0Zm0,11.42l-8.1-.6c-1.12-.08-2.03-1.06-2.03-2.17s.91-1.97,2.03-1.89l8.1,.6c1.12,.08,2.03,1.06,2.03,2.17s-.91,1.96-2.03,1.89h0Zm0,11.41l-8.1-.59c-1.12-.09-2.03-1.06-2.03-2.18s.91-1.97,2.03-1.88l8.1,.59c1.12,.09,2.03,1.06,2.03,2.18s-.91,1.96-2.03,1.88Z" style="fill:#fff; fill-rule:evenodd;"/><path d="M1247.82,844.34l-9.46-.7c-1.12-.08-2.03-1.06-2.03-2.18s.91-1.96,2.03-1.88l9.46,.7c1.12,.09,2.03,1.06,2.03,2.18s-.91,1.96-2.03,1.88h0Zm0,11.41l-8.1-.59c-1.12-.09-2.04-1.06-2.04-2.18s.91-1.96,2.04-1.88l8.1,.59c1.12,.09,2.03,1.06,2.03,2.18s-.91,1.97-2.03,1.88h0Zm0,11.42l-8.1-.59c-1.12-.08-2.04-1.06-2.04-2.18s.91-1.97,2.04-1.88l8.1,.59c1.12,.08,2.03,1.06,2.03,2.18s-.91,1.96-2.03,1.88h0Zm0,11.41l-8.1-.59c-1.12-.09-2.04-1.06-2.04-2.18s.91-1.96,2.04-1.88l8.1,.6c1.12,.08,2.03,1.06,2.03,2.18s-.91,1.96-2.03,1.87h0Zm0,11.41l-8.1-.59c-1.12-.08-2.04-1.06-2.04-2.18s.91-1.96,2.04-1.88l8.1,.59c1.12,.09,2.03,1.06,2.03,2.18s-.91,1.96-2.03,1.88Z" style="fill:#fff; fill-rule:evenodd;"/><path d="M774.71,622.85l30.12,2.21-13.77-35.21c-.85,.09-1.73,.03-2.58-.19l-13.77,33.19h0Zm32.29,5.3l-34.45-2.53c-.49-.03-.95-.31-1.22-.74-.28-.42-.33-.93-.14-1.37l15.07-36.32c.3-.73,1.16-1.03,1.91-.67,1.02,.49,2.2,.57,3.22,.24,.75-.24,1.6,.18,1.9,.95l15.08,38.53c.18,.46,.12,.97-.14,1.35-.28,.38-.73,.59-1.22,.55Z" style="fill:#9588c0; fill-rule:evenodd;"/><path d="M885.7,631.01l30.13,2.21-13.77-35.21c-.85,.09-1.73,.03-2.58-.19l-13.77,33.19h0Zm32.29,5.3l-34.46-2.53c-.49-.03-.95-.31-1.22-.74-.27-.42-.32-.93-.14-1.37l15.07-36.32c.31-.73,1.16-1.03,1.91-.67,1.02,.48,2.19,.56,3.22,.24,.75-.25,1.6,.18,1.91,.95l15.07,38.53c.18,.46,.12,.97-.14,1.35-.27,.38-.73,.59-1.21,.55Z" style="fill:#8071b3; fill-rule:evenodd;"/><path d="M775.97,635.77l27.6,2.03c4.32-2.21,7-5.56,7.55-9.35l-42.69-3.13c.55,3.87,3.22,7.61,7.54,10.46h0Zm27.99,4.98l-28.38-2.08c-.25-.02-.5-.1-.72-.24-6.01-3.84-9.46-9.23-9.46-14.8,0-.81,.65-1.42,1.47-1.36l45.82,3.37c.81,.06,1.47,.76,1.47,1.56,0,5.58-3.45,10.46-9.46,13.41-.22,.11-.47,.15-.72,.13Z" style="fill:#9588c0; fill-rule:evenodd;"/><path d="M886.97,643.93l27.6,2.03c4.32-2.21,7-5.56,7.54-9.35l-42.69-3.14c.55,3.87,3.23,7.6,7.54,10.46h0Zm27.99,4.98l-28.38-2.08c-.26-.02-.5-.1-.72-.24-6.01-3.83-9.46-9.23-9.46-14.79,0-.82,.65-1.42,1.47-1.36l45.82,3.37c.81,.06,1.47,.76,1.47,1.56,0,5.57-3.45,10.46-9.46,13.41-.22,.11-.47,.15-.72,.13Z" style="fill:#8071b3; fill-rule:evenodd;"/><path d="M789.77,578.34c-2.37-.17-4.3,1.62-4.3,3.99s1.93,4.44,4.3,4.62c2.37,.17,4.3-1.62,4.3-3.99s-1.93-4.44-4.3-4.62h0Zm0,11.53c-3.99-.29-7.23-3.77-7.23-7.76s3.24-6.99,7.23-6.7c3.99,.3,7.23,3.77,7.23,7.76s-3.24,6.99-7.23,6.7Z" style="fill:#9588c0; fill-rule:evenodd;"/><path d="M900.77,586.49c-2.37-.17-4.3,1.62-4.3,3.99s1.93,4.44,4.3,4.62c2.37,.17,4.3-1.62,4.3-3.99s-1.93-4.44-4.3-4.62h0Zm0,11.53c-3.99-.29-7.23-3.77-7.23-7.76s3.24-6.99,7.23-6.7c3.99,.29,7.23,3.77,7.23,7.76s-3.24,6.99-7.23,6.7Z" style="fill:#8071b3; fill-rule:evenodd;"/><path d="M840.96,673.76l8.61,.63v-94.32c0-2.38-1.93-4.45-4.3-4.62-2.37-.18-4.3,1.61-4.3,3.98v94.32h0Zm10.08,3.67l-11.53-.85c-.81-.06-1.47-.76-1.47-1.57v-95.78c0-3.99,3.25-6.99,7.23-6.7,3.99,.3,7.23,3.78,7.23,7.76v95.79c0,.81-.65,1.41-1.46,1.35Z" style="fill:#8071b3; fill-rule:evenodd;"/><path d="M821.22,675.24c-.95-.07-1.73,.65-1.73,1.6v1.77c0,.96,.78,1.79,1.73,1.87l48.1,3.53c.95,.07,1.73-.65,1.73-1.6v-1.77c0-.96-.78-1.79-1.73-1.87l-48.1-3.53h0Zm48.1,11.7l-48.1-3.54c-2.57-.19-4.66-2.43-4.66-5v-1.78c0-2.57,2.09-4.5,4.66-4.32l48.1,3.54c2.57,.19,4.66,2.43,4.66,5v1.78c0,2.57-2.09,4.5-4.66,4.32Z" style="fill:#8071b3; fill-rule:evenodd;"/><path d="M810.19,682.6c-.95-.07-1.73,.64-1.73,1.6v1.77c0,.96,.78,1.79,1.73,1.87l70.16,5.15c.95,.07,1.73-.65,1.73-1.6v-1.78c0-.95-.78-1.79-1.73-1.86l-70.16-5.15h0Zm70.16,13.32l-70.16-5.15c-2.56-.19-4.66-2.43-4.66-5v-1.78c0-2.57,2.1-4.5,4.66-4.32l70.16,5.16c2.56,.18,4.65,2.43,4.65,5v1.77c0,2.57-2.09,4.51-4.65,4.32Z" style="fill:#8071b3; fill-rule:evenodd;"/><path d="M795.58,587.37l42.46,3.12v-8.61l-42.46-3.12c.89,1.27,1.43,2.8,1.43,4.41s-.53,3.06-1.43,4.2h0Zm43.93,6.15l-49.68-3.65c-.81-.06-1.47-.76-1.47-1.56,0-.81,.64-1.41,1.45-1.37,2.35,.16,4.27-1.64,4.27-3.99s-1.92-4.42-4.27-4.61c-.8-.07-1.45-.78-1.45-1.58,0-.81,.66-1.41,1.47-1.35l49.68,3.65c.81,.06,1.46,.76,1.46,1.57v11.53c0,.81-.65,1.41-1.46,1.35h0Zm12.99-1.97l42.47,3.12c-.9-1.27-1.43-2.8-1.43-4.41s.53-3.06,1.43-4.19l-42.47-3.12v8.6h0Zm48.26,6.47h-.05l-49.68-3.65c-.81-.06-1.47-.76-1.47-1.57v-11.53c0-.81,.66-1.41,1.47-1.35l49.68,3.65c.81,.06,1.47,.76,1.47,1.56,0,.81-.64,1.42-1.45,1.37-2.35-.16-4.27,1.64-4.27,3.99s1.91,4.42,4.27,4.61c0,0,0,0,.01,0h.02c.8,.06,1.46,.76,1.46,1.57s-.66,1.41-1.46,1.35Z" style="fill:#8071b3; fill-rule:evenodd;"/><path d="M1053.97,726.17c-1.6-3.33-3.53-6.05-5.8-8.17-2.26-2.13-4.77-3.81-7.51-5.05-2.74-1.24-5.6-2.18-8.61-2.83v-9.16l-13.38-.99v9.16c-2.45,.1-4.86,.43-7.24,.96-2.37,.51-4.58,1.28-6.65,2.29-2.06,.99-3.88,2.26-5.47,3.8-1.58,1.52-2.83,3.34-3.72,5.46-.9,2.11-1.35,4.55-1.37,7.31,.01,3.48,.58,6.45,1.64,8.94,1.09,2.48,2.59,4.58,4.52,6.26,1.92,1.69,4.13,3.08,6.66,4.18,2.51,1.1,5.22,2.02,8.12,2.73,2.9,.71,5.84,1.35,8.89,1.89,2.48,.46,4.81,1.02,7.03,1.7,2.23,.65,4.19,1.47,5.92,2.4,1.74,.95,3.09,2.07,4.09,3.37,.99,1.29,1.49,2.8,1.5,4.54-.01,2.05-.52,3.77-1.5,5.15-.99,1.39-2.33,2.46-4.04,3.27-1.72,.78-3.65,1.31-5.83,1.59-2.17,.26-4.46,.3-6.85,.12-2.2-.16-4.39-.58-6.57-1.26-2.17-.68-4.21-1.57-6.12-2.68-1.91-1.1-3.58-2.39-5.02-3.86-1.45-1.46-2.51-3.07-3.25-4.8l-12.43,4.35c1.25,2.99,2.85,5.62,4.76,7.91,1.93,2.28,4.09,4.25,6.53,5.88,2.43,1.64,5.02,2.97,7.81,4,2.77,1.03,5.64,1.79,8.6,2.27v10.01l13.38,.98v-10.53c3.31,0,6.43-.44,9.42-1.33,2.98-.89,5.63-2.22,7.97-4.02,2.33-1.78,4.18-4,5.53-6.67,1.33-2.66,2.02-5.77,2.05-9.33-.02-3.69-.63-6.87-1.83-9.48-1.21-2.64-2.85-4.84-4.94-6.65-2.1-1.79-4.5-3.28-7.22-4.44-2.7-1.17-5.59-2.15-8.62-2.92-3.04-.77-6.11-1.45-9.22-2.03-2.23-.41-4.37-.88-6.41-1.38-2.06-.52-3.88-1.15-5.49-1.92-1.62-.76-2.91-1.72-3.83-2.9-.95-1.18-1.43-2.62-1.44-4.34,.01-1.84,.47-3.35,1.39-4.55,.91-1.22,2.14-2.14,3.71-2.81,1.56-.65,3.35-1.06,5.36-1.27,2-.21,4.09-.23,6.3-.05,1.83,.14,3.65,.49,5.46,1.02,1.81,.53,3.53,1.22,5.15,2.06,1.62,.84,3.04,1.81,4.29,2.87,1.25,1.05,2.21,2.18,2.91,3.37l11.38-4.44h0Zm-29.97-44.52c37.11,2.73,67.19,35.02,67.19,72.12s-30.08,64.98-67.19,62.25c-37.11-2.73-67.19-35.02-67.19-72.12s30.08-64.98,67.19-62.25h0Z" style="fill:#fff; fill-rule:evenodd;"/><path d="M852.24,867.95c2.59-1.67,4.28-4.59,4.28-8.02,0-5.66-4.58-10.58-10.24-11-5.65-.41-10.24,3.83-10.24,9.49,0,3.43,1.69,6.6,4.29,8.64l-3.18,18.6,18.28,1.34-3.18-19.06h0Zm-39.99-46.52v-22.9c0-18.72,15.31-32.91,34.03-31.53h0c18.72,1.37,34.03,17.81,34.03,36.53v22.9l-14.39-1.06v-22.9c0-10.8-8.84-20.29-19.64-21.08h0c-10.8-.8-19.64,7.39-19.64,18.19v22.9l-14.39-1.06h0Zm78.29,9.16c6.8,9.66,10.82,21.29,10.82,33.58,0,30.42-24.65,53.27-55.07,51.03-30.41-2.23-55.07-28.71-55.07-59.12,0-12.28,4.02-23.32,10.82-31.99l88.51,6.5h0Z" style="fill:#8071b3; fill-rule:evenodd;"/><path d="M1027.94,932.92c-11.65-1.01-21.12,7.64-21.12,19.29,0,7.51,2.33,11.42,4.82,15.56,2.62,4.38,5.59,9.35,5.59,18.29,0,.99,0,2.33,4.63,2.73l12.15,1.06c4.63,.4,4.63-.95,4.63-1.93,0-8.94,2.98-13.39,5.59-17.32,2.48-3.71,4.82-7.21,4.82-14.72,0-11.65-9.48-21.94-21.12-22.96h0Zm6.07,62.12l-12.15-1.06c-8.13-.7-9.83-4.95-9.83-8.39,0-7.43-2.22-11.15-4.79-15.44-2.64-4.4-5.63-9.39-5.63-18.41,0-14.51,11.81-25.3,26.32-24.03,14.51,1.26,26.32,14.09,26.32,28.61,0,9.01-2.99,13.49-5.62,17.43-2.57,3.85-4.79,7.17-4.79,14.6,0,3.44-1.7,7.39-9.83,6.68Z" style="fill:#fff; fill-rule:evenodd;"/><path d="M1011.45,955.35c-.07,0-.14-.01-.2-.03-1.43-.24-2.5-1.58-2.39-3,.74-9.46,6.46-15.8,15.7-17.4,1.39-.22,2.81,.72,3.17,2.14,.36,1.42-.47,2.77-1.86,3.01-7.06,1.22-11.26,5.88-11.82,13.11-.11,1.35-1.25,2.29-2.59,2.17Z" style="fill:#fff; fill-rule:evenodd;"/><path d="M1040.34,1002.56l-24.8-2.16c-1.44-.12-2.6-1.39-2.6-2.83s1.16-2.5,2.6-2.37l24.8,2.16c1.43,.12,2.6,1.39,2.6,2.82s-1.16,2.5-2.6,2.38Z" style="fill:#fff; fill-rule:evenodd;"/><path d="M1040.34,1009.35l-24.8-2.16c-1.44-.12-2.6-1.39-2.6-2.83s1.16-2.5,2.6-2.37l24.8,2.16c1.43,.12,2.6,1.39,2.6,2.83s-1.16,2.49-2.6,2.37Z" style="fill:#fff; fill-rule:evenodd;"/><path d="M1027.94,917.74c-1.43-.12-2.6-1.39-2.6-2.83v-16.39c0-1.43,1.17-2.5,2.6-2.37,1.44,.12,2.6,1.39,2.6,2.83v16.39c0,1.44-1.16,2.5-2.6,2.37h0Zm-19.35,3.51c-.9-.08-1.77-.62-2.25-1.49l-8.2-14.91c-.72-1.31-.29-2.86,.95-3.47,1.25-.61,2.83-.04,3.55,1.26l8.2,14.91c.72,1.31,.3,2.86-.95,3.47-.41,.2-.86,.28-1.3,.24h0Zm38.7,3.36c-.44-.04-.89-.19-1.29-.46-1.25-.83-1.67-2.45-.95-3.63l8.2-13.49c.72-1.18,2.31-1.46,3.55-.64,1.24,.83,1.67,2.46,.95,3.63l-8.2,13.49c-.48,.79-1.35,1.18-2.25,1.1h0Zm-52.87,9.58c-.44-.04-.89-.19-1.29-.46l-14.2-9.43c-1.24-.82-1.67-2.45-.95-3.63,.72-1.18,2.31-1.47,3.55-.64l14.2,9.42c1.24,.83,1.67,2.45,.95,3.63-.48,.79-1.35,1.18-2.25,1.1h0Zm67.03,5.82c-.9-.08-1.77-.62-2.25-1.5-.72-1.31-.29-2.86,.95-3.47l14.2-6.96c1.24-.61,2.83-.05,3.55,1.25,.72,1.31,.3,2.86-.95,3.47l-14.2,6.97c-.41,.2-.86,.27-1.3,.24h0Zm-72.22,13.08l-16.39-1.43c-1.43-.12-2.6-1.39-2.6-2.83s1.16-2.5,2.6-2.37l16.39,1.43c1.44,.12,2.6,1.39,2.6,2.83s-1.16,2.5-2.6,2.37h0Zm93.8,8.14l-16.39-1.43c-1.43-.12-2.6-1.39-2.6-2.83s1.17-2.5,2.6-2.37l16.39,1.43c1.43,.12,2.6,1.39,2.6,2.83s-1.16,2.49-2.6,2.37h0Zm-102.8,18.62c-.9-.08-1.77-.62-2.25-1.5-.72-1.31-.29-2.86,.95-3.47l14.19-6.97c1.25-.6,2.84-.05,3.56,1.26,.72,1.31,.29,2.86-.95,3.47l-14.2,6.96c-.41,.2-.85,.28-1.29,.24h0Zm95.41,8.28c-.44-.04-.89-.19-1.29-.46l-14.2-9.43c-1.24-.83-1.67-2.45-.95-3.63,.72-1.18,2.31-1.47,3.56-.64l14.2,9.43c1.24,.83,1.66,2.45,.95,3.63-.48,.79-1.35,1.18-2.25,1.1Z" style="fill:#fff; fill-rule:evenodd;"/><path d="M1084.27,1139.04c-15.34-9.88-32.08-16.68-49.36-20.43v-22.65c0-7.22-5.91-13.13-13.13-13.13h-37.72c-7.23,0-13.13,5.91-13.13,13.13v22.65c-17.28,3.75-34.02,10.55-49.36,20.43l-16-16c-5.11-5.11-13.47-5.1-18.57,0l-6.58,6.59-13.51,13.5-6.59,6.59c-5.11,5.11-5.11,13.46,0,18.57l16,16c-9.88,15.34-16.69,32.08-20.43,49.36h-22.64c-7.22,0-13.13,5.91-13.13,13.13v37.72c0,7.22,5.91,13.13,13.13,13.13h22.64c3.74,17.28,10.55,34.02,20.43,49.36l-16,16c-5.11,5.11-5.11,13.46,0,18.57l6.58,6.58,13.51,13.5,6.58,6.58c5.11,5.11,13.46,5.11,18.57,0l16-16c15.35,9.88,32.09,16.69,49.36,20.43v22.65c0,7.22,5.91,13.13,13.13,13.12h37.72c7.22,0,13.13-5.9,13.13-13.12v-22.65c17.27-3.75,34.02-10.55,49.36-20.43l16,16c5.11,5.11,13.47,5.11,18.57,0l6.59-6.58,13.5-13.5,6.58-6.58c5.11-5.11,5.11-13.46,0-18.57l-16-16c9.88-15.34,16.69-32.09,20.43-49.37h22.63c7.23,0,13.13-5.9,13.13-13.12v-37.72c0-7.22-5.9-13.13-13.13-13.13h-22.64c-3.74-17.27-10.55-34.02-20.43-49.36l16-16c5.11-5.11,5.11-13.46,0-18.57l-6.58-6.59-13.5-13.5-6.59-6.59c-5.11-5.1-13.46-5.1-18.57,0l-16,16h0Zm-319.48-67.17c7.14-.73,13.57,4.51,14.29,11.65l1.28,12.58c8.68,2.06,16.8,5.76,23.95,10.77l10.27-7.41c5.82-4.19,14-2.87,18.2,2.94l11.65,16.14c4.2,5.82,2.88,14-2.94,18.2l-10.27,7.41c1.24,4.15,2.11,8.47,2.56,12.94,.45,4.47,.47,8.88,.1,13.19l11.55,5.19c6.54,2.94,9.48,10.69,6.55,17.23l-8.15,18.16c-2.94,6.54-10.69,9.49-17.23,6.55l-11.55-5.19c-6,6.36-13.2,11.61-21.29,15.38l1.28,12.58c.73,7.14-4.51,13.56-11.65,14.29l-19.81,2.02c-7.13,.72-13.56-4.52-14.29-11.65l-1.28-12.58c-8.68-2.06-16.8-5.76-23.95-10.77l-10.27,7.41c-5.82,4.2-14.01,2.88-18.2-2.94l-11.65-16.14c-4.19-5.82-2.87-14,2.94-18.2l10.27-7.41c-1.24-4.15-2.11-8.47-2.56-12.93-.45-4.47-.47-8.88-.1-13.2l-11.54-5.19c-6.55-2.93-9.49-10.69-6.55-17.23l8.16-18.17c2.93-6.54,10.69-9.49,17.23-6.55l11.55,5.19c6-6.36,13.2-11.61,21.29-15.38l-1.28-12.59c-.73-7.13,4.52-13.56,11.65-14.29l19.8-2.02h0Zm-.59,60.21c-17.73,0-32.1,14.37-32.1,32.1s14.37,32.1,32.1,32.1,32.1-14.37,32.1-32.1-14.37-32.1-32.1-32.1h0Zm22.17,142.7c7.11,.95,12.14,7.55,11.19,14.66l-1.69,12.54c7.96,4.03,14.99,9.51,20.78,16.06l11.72-4.81c6.64-2.73,14.29,.47,17.01,7.1l7.56,18.41c2.72,6.63-.47,14.29-7.1,17.01l-11.7,4.81c.23,4.32,.07,8.73-.53,13.18-.59,4.44-1.6,8.74-2.97,12.85l10.02,7.73c5.67,4.38,6.73,12.61,2.35,18.28l-12.16,15.75c-4.38,5.68-12.61,6.74-18.28,2.36l-10.03-7.74c-7.31,4.79-15.54,8.21-24.29,10l-1.68,12.54c-.96,7.1-7.55,12.14-14.66,11.18l-19.73-2.66c-7.11-.95-12.14-7.55-11.19-14.66l1.69-12.53c-7.97-4.04-15-9.52-20.79-16.06l-11.71,4.81c-6.64,2.73-14.29-.47-17.01-7.1l-7.56-18.41c-2.73-6.63,.47-14.29,7.1-17.02l11.7-4.81c-.24-4.32-.07-8.73,.53-13.18,.6-4.45,1.61-8.75,2.98-12.85l-10.02-7.74c-5.67-4.38-6.73-12.61-2.35-18.28l12.16-15.76c4.38-5.68,12.61-6.74,18.28-2.36l10.03,7.74c7.31-4.78,15.54-8.21,24.29-10l1.68-12.54c.95-7.1,7.55-12.14,14.66-11.18l19.73,2.65h0Zm-22.1,57.53c-17.72,0-32.1,14.37-32.1,32.1s14.37,32.1,32.1,32.1,32.1-14.37,32.1-32.1-14.37-32.1-32.1-32.1h0Zm238.66-175.45c30.03,0,57.22,12.17,76.91,31.85,19.68,19.68,31.85,46.87,31.85,76.9s-12.17,57.22-31.85,76.91-46.87,31.85-76.91,31.85-57.22-12.17-76.9-31.85c-19.68-19.68-31.85-46.87-31.85-76.91s12.17-57.22,31.85-76.9c19.68-19.68,46.87-31.85,76.9-31.85h0Zm-55.9,52.87c14.31-14.31,34.07-23.15,55.9-23.15s41.59,8.85,55.9,23.15,23.15,34.06,23.15,55.89-8.85,41.59-23.15,55.9c-14.3,14.3-34.06,23.15-55.9,23.15s-41.59-8.85-55.9-23.15c-14.3-14.31-23.15-34.07-23.15-55.9s8.85-41.59,23.15-55.89Z" style="fill:#9588c0; fill-rule:evenodd;"/><path d="M764.27,1332.32c17.73,0,32.1,14.37,32.1,32.1s-14.37,32.1-32.1,32.1-32.1-14.37-32.1-32.1,14.37-32.1,32.1-32.1Z" style="fill:#ede4f1; fill-rule:evenodd;"/><path d="M764.2,1196.29c-17.73,0-32.1-14.37-32.1-32.1s14.37-32.1,32.1-32.1,32.1,14.37,32.1,32.1-14.37,32.1-32.1,32.1Z" style="fill:#ede4f1; fill-rule:evenodd;"/><path d="M894.17,1265.63c0-30.03,12.17-57.22,31.85-76.91,19.68-19.68,46.87-31.85,76.9-31.85s57.22,12.17,76.91,31.85c19.68,19.68,31.85,46.87,31.85,76.91s-12.17,57.22-31.85,76.9-46.87,31.86-76.91,31.86-57.22-12.18-76.9-31.86c-19.68-19.68-31.85-46.87-31.85-76.9h0Zm52.86-55.89c-14.3,14.3-23.15,34.06-23.15,55.89s8.85,41.59,23.15,55.9c14.31,14.3,34.07,23.15,55.9,23.15s41.59-8.85,55.9-23.15c14.31-14.3,23.15-34.07,23.15-55.9s-8.85-41.59-23.15-55.89-34.06-23.15-55.9-23.15-41.59,8.85-55.9,23.15Z" style="fill:#ede4f1; fill-rule:evenodd;"/><path d="M914.9,301.9c-21.54,317.42-97.95,669.17-447.73,760.18l-8.69,2.26-8.68-2.26C100.03,971.07,23.62,619.31,2.08,301.9l-2.08-30.58,30.13-5.66c145.87-27.34,279.63-82.01,413.98-143.68l14.39-6.6,14.39,6.6c134.35,61.68,268.11,116.34,413.98,143.68l30.13,5.66-2.08,30.58Z" style="fill:#ede4f1; fill-rule:evenodd;"/><path d="M880.5,298.4c-144.14-27.02-272.72-77.71-422.01-146.25-149.28,68.53-277.86,119.22-422.01,146.25,29.42,433.54,157.99,660.45,422.01,729.14,264.02-68.69,392.59-295.61,422.01-729.14Z" style="fill:#38308d; fill-rule:evenodd;"/><path d="M813.46,348.54c-123.43-28.91-239.06-74.9-354.97-127.25-115.91,52.35-231.55,98.34-354.97,127.25,17.35,192.82,64.35,431.24,222.78,549.17,40.01,29.79,84.67,50.57,132.2,64.56,47.53-13.99,92.19-34.77,132.2-64.56,158.43-117.93,205.43-356.35,222.78-549.17Z" style="fill:#b6a9d2; fill-rule:evenodd;"/><path d="M813.46,348.54c-123.43-28.9-239.06-74.9-354.97-127.25V962.28c47.53-14,92.19-34.78,132.2-64.57,158.43-117.92,205.43-356.34,222.78-549.16Z" style="fill:#8071b3; fill-rule:evenodd;"/><path d="M377.21,512.26h162.57v-63.85c0-22.34-9.15-42.65-23.9-57.39-14.74-14.75-35.06-23.9-57.39-23.9s-42.65,9.15-57.39,23.9c-14.74,14.74-23.89,35.06-23.89,57.39v63.85h0Zm201.05,0v.58c19.17,3.29,33.88,20.08,33.88,40.15v188.57c0,22.4-18.33,40.74-40.74,40.74h-225.81c-22.4,0-40.73-18.34-40.73-40.74v-188.57c0-20.07,14.71-36.87,33.87-40.15v-64.43c0-32.96,13.47-62.91,35.17-84.6,21.69-21.69,51.64-35.17,84.59-35.17s62.91,13.47,84.6,35.17c21.7,21.69,35.17,51.64,35.17,84.6v63.85Z" style="fill:#fff; fill-rule:evenodd;"/><path d="M458.49,570.29c23.99,0,43.43,19.44,43.43,43.43,0,19.49-12.84,35.98-30.53,41.48v52.48c0,7.1-5.8,12.9-12.9,12.9h0c-7.09,0-12.9-5.8-12.9-12.9v-52.48c-17.69-5.49-30.53-21.99-30.53-41.48,0-23.99,19.45-43.43,43.43-43.43Z" style="fill:#38308d; fill-rule:evenodd;"/><path d="M1534.41,1440.11c-268.32,0-485.84,28.55-485.84,63.77s217.52,63.77,485.84,63.77,485.84-28.55,485.84-63.77-217.52-63.77-485.84-63.77Z" style="fill:#d1c6e2; fill-rule:evenodd;"/><path d="M1313.64,1486.3c48.17-.78,84.17-1.35,100.81-6.6,17.94-5.67,14.23-16.61,3.92-34.12-45.4,20.89-33.3-4.29-54.53-1.09-14.92,12.01-37.02,20.06-66.28,24.15-12.38,9.13-7.35,17.26,16.08,17.67Z" style="fill:#071023; fill-rule:evenodd;"/><path d="M1375.52,752.38h297.61c5.86,0,11.92,4.8,13.46,10.67l52.95,201.64c1.55,5.87-2,10.67-7.86,10.67h-297.61c-5.87,0-11.92-4.8-13.47-10.67l-52.95-201.64c-1.54-5.87,2-10.67,7.87-10.67Z" style="fill:#ccced0; fill-rule:evenodd;"/><path d="M1692.95,758.2l35.95,136.89c43.18-21.06,95.18-54.87,149.73-98.24,1.46-19.52,3.28-35.08,5.45-46.69-4.37-8.68-9.17-17.95-14.39-27.83,50.34-.32,81.04-11.15,92.09-32.48-13.47-39.4-32.29-79.63-56.47-120.69-16.91-25.01-50.03-39.71-99.36-44.1-5.76,66.15-107.24,62.76-83.37,5.82-36.82,9.88-68,28.13-93.56,54.77-21.99,54.17-35.4,91.98-40.23,113.43,23.88,16.73,46.5,27.55,67.86,32.48,.97,4.69,1.74,10.02,2.3,15.99h20.54c5.86,0,11.92,4.8,13.46,10.67Z" style="fill:#f59b1d; fill-rule:evenodd;"/><path d="M1728.9,895.09l-35.95-136.89c-1.54-5.87-7.59-10.67-13.46-10.67h-297.61c-5.86,0-16.31,7.58-14.57,13.39-.28-4.86,3.07-8.54,8.21-8.54h297.61c5.86,0,11.92,4.8,13.46,10.67l52.95,201.64c.93,3.52,.02,6.65-2.12,8.6,4.9-3.16,9.58-9.28,8.48-13.44l-17.01-64.75Z" style="fill:#85868b; fill-rule:evenodd;"/><path d="M1731.68,975.35h-297.61c-1.09,0-2.2-.17-3.27-.48,5.92,15.35,22.02,13.09,28.3,13.03h352.86c19.12-.81,18.62-14.22,18.87-27.14h-84.77c.28,4.1-4.07,9.58-8.63,12.52-1.43,1.3-3.4,2.07-5.74,2.07Z" style="fill:#85868b; fill-rule:evenodd;"/><path d="M1690.03,835.3c-31.91,16.13-69.64,21.1-108.45,23.08,.43,1.39,.77,2.83,1,4.28,2.59,16.36-8.94,30.28-25.59,30.28-15.69,0-29.92-12.43-32.37-27.87-.26-1.68-.38-3.33-.35-4.94-40.29,1.08-79.21,3.29-111.4,15.89l22.13,84.3h287.86l-32.83-125.02Z" style="fill:#a9abb1; fill-rule:evenodd;"/><path d="M1550.54,844.56c10.67,0,20.68,8.64,22.38,19.31,1.69,10.67-5.59,19.32-16.26,19.32s-20.68-8.65-22.37-19.32c-1.69-10.67,5.59-19.31,16.25-19.31Z" style="fill:#8d8f94; fill-rule:evenodd;"/><path d="M1892.97,926.23c-5.94-18.1-10.21-36.88-12.81-56.33-40.08,15.52-85.91,30.49-143.86,53.38l7.83,29.8c87.57,2.86,137.18-6.09,148.84-26.85Z" style="fill:#f59b1d; fill-rule:evenodd;"/><path d="M1736.3,923.27c57.95-22.89,103.79-37.85,143.86-53.38,35.32-13.68,66.17-27.78,96.91-48.12-1.28-39.25-7.12-77.22-23.36-121.23-14.92,14.26-42.92,21.53-84.02,21.79,11.9,22.49,21.59,41.88,29.08,58.16-61.82,51.25-121.41,90.95-169.87,114.6l7.4,28.18Z" style="fill:#fab688; fill-rule:evenodd;"/><path d="M1596.5,704.29c-4.46,15.6-8.6,30.01-12.41,43.24h74.85c-.56-5.97-1.33-11.3-2.3-15.99-19.05-4.4-39.1-13.48-60.15-27.25Z" style="fill:#fab688; fill-rule:evenodd;"/><path d="M1414.78,1429.72c44.27-160.54,60.1-273.32,47.5-338.33,25.16,3.59,50.42,4.71,75.79,3.38-3.86-17.36-7.74-34.78-11.68-52.41,.45-23.94,12.68-41.7,56.06-54.45h-123.35c-4.19,.03-12.75,1.06-19.75-2.83-39.73,11.35-59.14,30.09-65.77,52.98-4.85,62.99,8.24,134.72-2.91,392.13,13.9,1.44,28.61,1.28,44.11-.48Z" style="fill:#071023; fill-rule:evenodd;"/><path d="M1461.02,987.91h-1.92c-4.19,.03-12.76,1.06-19.75-2.83-39.73,11.35-59.14,30.09-65.77,52.98-4.85,62.99,8.24,134.72-2.91,392.13,8.29,.85,16.87,1.15,25.74,.87,22.88-89.48,77.27-308.97,15.99-403.56,14.38-15.25,30.59-28.45,48.63-39.6Z" style="fill:#1b2452; fill-rule:evenodd;"/><path d="M1805.87,525.74c-7.88-10.04-14.83-19.35-16.87-25.98,1.59-4.53,3.26-10.25,4.99-17.17,29.54-20.06,33.58-34.9,12.11-44.53-4.32,2.43-9.69,9.9-16.11,22.41-5.11-.2-9-2.82-11.65-7.85,6.11-21.12,10.07-38.28,11.91-51.47-14.55-21.63-48.59-24.72-93.67-18.88-2.09,12-3.81,24.7-5.14,38.12-7.97,7.34-6.94,34.56,.4,65.93-3.67,17.84,7.34,27.58,33.04,29.2,.38,6.34-2.12,14.4-2.31,15.35h0c-.01,.07-.04,.13-.08,.21-23.44,56.54,76.96,60.01,83.37-5.34Z" style="fill:#fab688; fill-rule:evenodd;"/><path d="M1696.59,382.26c45.08-5.84,79.12-2.75,93.68,18.88-1.85,13.18-5.81,30.34-11.91,51.47,2.64,5.03,6.53,7.65,11.64,7.85,6.42-12.51,11.79-19.99,16.11-22.41,21.46,9.63,17.43,24.47-12.11,44.53-1.74,6.92-3.4,12.64-4.99,17.17,26.57-5.95,48.81-29.73,51.94-40,31-61.11-3.57-86.91-22.08-96.32-8.16-60.51-96.03-7.03-140.06-36.2-17.5,24.17,4.14,54.49,17.78,55.03Z" style="fill:#071023; fill-rule:evenodd;"/><path d="M1758.28,514.74c-12.43,1.01-23.57,1.26-33.39,.78,.26,4.36-.84,9.54-1.62,12.66,15.93-.41,27.6-4.9,35.01-13.43Z" style="fill:#ed7d57; fill-rule:evenodd;"/><path d="M1622.12,1083.38h268.53c9.59,0,17.45,7.85,17.45,17.44h0c0,9.61-7.86,17.46-17.45,17.46h-268.53c-9.6,0-17.45-7.85-17.45-17.45h0c0-9.6,7.85-17.45,17.45-17.45Z" style="fill:#712c14; fill-rule:evenodd;"/><path d="M1874.62,1413.85c-12.84-12.83-30.57-20.81-50.07-20.81h-136.34c-19.5,0-37.23,7.97-50.07,20.81-12.83,12.84-20.81,30.57-20.81,50.07v14.3h-5.46v17.69h40.23v-17.69h-5.46v-14.3c0-11.42,4.68-21.81,12.22-29.34,7.54-7.54,17.93-12.22,29.34-12.22h136.34c11.42,0,21.81,4.69,29.35,12.22,7.54,7.54,12.22,17.93,12.22,29.34v14.3h-5.46v17.69h40.23v-17.69h-5.46v-14.3c0-19.5-7.97-37.23-20.81-50.07Z" style="fill:#712c14; fill-rule:evenodd;"/><rect x="1741.72" y="1118.28" width="29.31" height="274.77" style="fill:#712c14;"/><path d="M1850.3,1082.29c51.93-18.64,58.99-70.37,36.15-148.52-18.76,15.36-66.21,21.79-142.32,19.31l1.78,6.77c.07,.29,.12,.6,.14,.92h84.77c-.25,12.93,.25,26.33-18.87,27.14h-229.51c-43.38,12.75-55.61,30.51-56.06,54.45,27.46,122.73,51.9,235.26,85.18,390.76,11.22,6.29,26.57,5.81,46.06-1.45,15.61-150.81,11.33-260.48-12.85-329,64.22,.25,132.72-8.5,205.52-20.38Z" style="fill:#1b2452; fill-rule:evenodd;"/><path d="M1850.3,1082.28c51.93-18.64,58.99-70.36,36.15-148.51-3.99,3.27-9.28,6.12-15.86,8.58,18.93,80.31-1.65,124.31-62.67,128.54-71.2,10.55-130.22,15.63-177.07,15.23,20.65,133.88,24.19,250.62,10.62,350.2,5.03-.97,10.42-2.52,16.17-4.65,15.61-150.81,11.33-260.47-12.85-329,64.22,.24,132.72-8.5,205.52-20.39Z" style="fill:#071023; fill-rule:evenodd;"/><path d="M1375.31,1430.62c-1.29,4.84-3.38,9.39-6.3,13.65,13.9,1.31,8.54,19.2,46.07,2.78-1.6-4.73-2.5-10.42-2.69-17.07-12.92,1.34-25.28,1.55-37.08,.64Z" style="fill:#fab688; fill-rule:evenodd;"/><path d="M1611.7,1514.48c25.56-10.55,29.4-27.73,43.46-34.29,14.16-6.61,15.79-18.4,1.95-31.18-10.23,8.17-22.92,18.21-29.64,12.89-4.49-3.56-19.7-3.32-22.72,1.86-13.26,30.81-31.69,21.04-35.33,35.06-.42,18.67,26.18,22.29,42.29,15.65Z" style="fill:#071023; fill-rule:evenodd;"/><path d="M1616.05,1435.18c.22,8.2-.9,16.42-3.37,24.66,5.48-.86,12.07-.09,14.77,2.05,6.23,4.92,17.58-3.34,27.35-11.07-1.58-4.42-2.66-10.12-3.21-17.09-14.28,4.47-26.13,4.95-35.55,1.45Z" style="fill:#fab688; fill-rule:evenodd;"/><path d="M1869.69,722.33c-6.6-11.96-13.6-28.04-20.98-48.26,3.96,23.53,3.76,40.49,10.16,59.84-5.17,27.37-7.31,55.28-6.78,83.44,8.76-6.57,17.62-13.41,26.55-20.5,1.46-19.52,3.28-35.08,5.45-46.69-4.37-8.68-9.17-17.95-14.39-27.83h0Zm-228.43,4.72c5.2,1.83,10.33,3.33,15.39,4.5-1.92-29.96-3.18-54.71-3.77-74.27-5.77,28.88-9.64,52.14-11.62,69.77h0Zm251.71,199.18c-5.94-18.1-10.21-36.88-12.81-56.33-7.42,2.87-15.04,5.73-22.9,8.62,3.15,21.3,7.65,42.62,13.37,63.83,11.21-4.2,18.66-9.57,22.34-16.11Z" style="fill:#ea7924; fill-rule:evenodd;"/></svg>