<?xml version="1.0" encoding="UTF-8"?><svg id="a" xmlns="http://www.w3.org/2000/svg" viewBox="0 0 1790.13 1277.17"><g><path d="M895.06,1198.76c208.18,0,399.8,3.1,551.85,8.33,372.08-212.68,243.23-627.25,109.63-861.76C1370.61,18.97,931.23-98.32,749.51,162.06c-246.69,353.44-484.63,230.12-613.15,498.52C7.88,929.02,203.04,1186.36,343.22,1207.09c152.04-5.23,343.63-8.33,551.84-8.33h0ZM569.05,293.72c-95.26,72.49-252.81,128.66-305.11,51.59-39.05-57.57,9.07-165.59,103.34-247.49C461.51,15.97,587.77-33.57,656.55,26.71c81.67,71.5-14.16,211.19-87.5,267.01Z" style="fill:#eaeff8; fill-rule:evenodd;"/><path d="M895.06,1198.76c494.32,0,895.07,17.53,895.07,39.2s-400.75,39.21-895.07,39.21S0,1259.61,0,1237.96s400.74-39.2,895.06-39.2Z" style="fill:#d2dfee; fill-rule:evenodd;"/><path d="M1183.71,116.67c223.53,49.81,365.8,255.39,379.72,354.63,5.71,40.73-4.88-54.57-118.9-141.37-101.91-77.56-181.29-91.93-302.54-101.29-85.65-6.63-175.41-17.17-169-68.26,5.01-40.36,66.4-75.86,210.72-43.71h0ZM599.14,33.52c38.52,2.3,61.92,33.9,63.52,70.36,.7,15.5-11.46-25.05-54.12-30.67-26.48-3.51-30.47,4.29-39.95-6.63-9.49-10.93-.5-34.94,30.54-33.06Z" style="fill:#fff; fill-rule:evenodd;"/><path d="M318.5,1108.43c-10.23-12.77-24.6-23.33-28.83-39.13-4.93-18.66,5.99-38.29,3.28-57.4-3.41-24.04-26.56-39.64-39.17-60.42-12.27-20.37-6.53-27.2-7.64-50.97-1.68-35.81-31.08-81.01-70.21-68.88-39.71,12.32-33.22,49.25-26.24,77.03,5.01,19.81,1.73,22.64-3.12,42.47-5.82,23.92-24.68,47.08-16.79,70.44,4.85,14.44,19.01,24.18,24.14,38.53,5.79,16.28-1.23,33.92-3.94,50.98-5.67,35.9,2.5,65.8,28.57,95.44,2.84,2.67,5.71,5.15,8.76,7.44,36.54-2.06,77.68-3.96,122.76-5.67l.33-.37c23.9-26.05,31.01-70.79,8.09-99.48Z" style="fill:#d2dfee; fill-rule:evenodd;"/><path d="M194,863.96c-.62-1.62-2.46-2.43-4.07-1.8-1.6,.61-2.42,2.42-1.81,4.04,3.12,8.13,5.7,16.63,7.92,25.45-.86-.8-1.81-1.6-2.8-2.36-4.22-3.43-9.07-6.43-14.49-9-1.56-.74-3.45-.06-4.19,1.5-.7,1.56-.04,3.43,1.52,4.16,4.97,2.37,9.41,5.1,13.26,8.21,3.66,2.94,6.85,6.25,9.57,9.9,4.03,19.15,6.65,39.75,9,61.49-3.62-5.65-7.52-10.74-11.62-15.21-7.18-7.8-15.11-13.86-23.82-18.17-1.56-.76-3.45-.14-4.19,1.41-.78,1.54-.16,3.43,1.39,4.19,7.97,3.96,15.28,9.57,21.97,16.82,6.62,7.21,12.61,16.01,17.9,26.44l.62,5.9c1.31,12.96,2.71,26.22,4.31,39.79,.04,.13,.04,.27,.04,.39,1.72,14.17,3.7,28.66,6.2,43.36-6.78-10.47-14.09-19.73-21.93-27.78-11.46-11.78-24.02-20.98-37.69-27.55-1.56-.76-3.4-.1-4.14,1.46-.78,1.56-.13,3.43,1.44,4.19,13.01,6.26,24.96,15.02,35.92,26.27,10.88,11.23,20.78,24.95,29.65,41.14,3.86,19.49,8.78,39.36,15.32,59.44h0l.04,.08h0c3.2,9.85,6.78,19.75,10.84,29.69-9.52-8.16-19.59-15.2-30.26-21.15-14.86-8.28-30.84-14.39-47.92-18.35-1.68-.4-3.36,.66-3.77,2.36-.37,1.69,.69,3.39,2.38,3.78,16.51,3.82,31.94,9.73,46.27,17.7,14.16,7.89,27.26,17.82,39.37,29.79,2.75,6.2,5.75,12.38,8.92,18.58l6.9-.31c-11.13-21.35-19.79-42.65-26.64-63.74-1.2-15.32,.61-30.62,5.42-45.91,4.89-15.52,12.81-31.09,23.9-46.63,.98-1.44,.66-3.39-.77-4.39-1.41-.98-3.37-.66-4.36,.76-11.41,16.07-19.66,32.21-24.75,48.35-2.88,9.18-4.73,18.35-5.54,27.51-9.44-33.99-14.66-67.24-18.48-98.96,3.7-13.46,7.81-24.84,12.36-34.14,4.52-9.26,9.44-16.43,14.7-21.41,1.28-1.19,1.31-3.19,.16-4.43-1.18-1.28-3.2-1.32-4.43-.14-5.88,5.56-11.25,13.3-16.1,23.24-3,6.18-5.83,13.24-8.5,21.16-.9-8.37-1.77-16.65-2.59-24.78l-.66-6.32c0-.1-.04-.22-.04-.35-4.47-43.11-9-82.35-21.72-115.66Z" style="fill:#fff; fill-rule:evenodd;"/><path d="M213.39,1125.26c-10.88-5.86-24.02-8.96-31.66-18.72-8.99-11.51-7.14-28.43-14.73-40.94-9.49-15.75-30.22-19.75-45.17-30.49-14.62-10.55-12.61-17.02-20.4-33.24-11.78-24.46-45.66-47.24-69.32-27.2-24.02,20.36-8.58,44.16,4.52,61.45,9.36,12.32,7.93,15.25,10.43,30.51,2.99,18.39-3.24,40.11,9.16,54.03,7.67,8.62,20.41,11.21,28.25,19.69,8.87,9.63,9.19,23.98,12.35,36.69,4.19,16.83,11.54,30.37,23.16,41.31,31.29-2.39,68.12-4.59,109.63-6.62,3.2-4.55,5.79-9.51,7.64-14.76,8.91-25.23,.62-58.5-23.86-71.71Z" style="fill:#c5def8; fill-rule:evenodd;"/><path d="M54.24,991.86c-.9-.93-2.42-.97-3.36-.04-.91,.9-.95,2.4-.05,3.34,4.55,4.75,8.92,9.88,13.05,15.38-.86-.31-1.73-.57-2.62-.82-3.99-1.13-8.26-1.78-12.77-1.97-1.32-.05-2.43,.98-2.47,2.3-.04,1.31,.98,2.4,2.26,2.44,4.19,.17,8.09,.76,11.7,1.79,3.41,.98,6.62,2.32,9.61,4.07,8.46,12.15,16.39,25.73,24.47,40.15-4.23-2.85-8.42-5.23-12.65-7.14-7.31-3.31-14.61-5.18-21.96-5.61-1.28-.06-2.43,.93-2.51,2.24-.08,1.29,.94,2.44,2.25,2.51,6.7,.38,13.47,2.11,20.29,5.19,6.73,3.06,13.5,7.43,20.28,13.13l2.17,3.91c4.77,8.62,9.65,17.47,14.79,26.44,.08,.09,.12,.17,.17,.25,5.37,9.39,11.04,18.87,17.16,28.39-7.84-5.3-15.69-9.59-23.49-12.87-11.5-4.83-22.95-7.49-34.41-8.03-1.32-.06-2.42,.95-2.5,2.26-.05,1.31,.94,2.42,2.25,2.48,10.93,.51,21.84,3.06,32.8,7.68,10.93,4.58,21.89,11.18,32.85,19.85,8.46,12.44,17.78,24.82,28.29,36.87h0v.04h0c5.17,5.91,10.59,11.74,16.39,17.47-9.04-2.88-18.15-4.79-27.35-5.77-12.81-1.36-25.75-.9-38.8,1.41-1.27,.22-2.13,1.46-1.93,2.76,.21,1.29,1.49,2.15,2.76,1.93,12.65-2.21,25.13-2.69,37.49-1.38,12.19,1.29,24.26,4.31,36.26,9.09,4.11,3.79,8.37,7.56,12.85,11.25l7.1-.37c-15.56-12.42-29.07-25.66-40.98-39.36-5.38-10.31-8.66-21.51-9.81-33.59-1.23-12.28-.29-25.46,2.79-39.56,.29-1.27-.54-2.55-1.81-2.81-1.27-.29-2.55,.54-2.84,1.8-3.16,14.58-4.14,28.28-2.88,41.03,.7,7.22,2.14,14.18,4.23,20.81-16.63-20.9-30.1-42.51-42.17-63.47-1.4-10.45-1.93-19.61-1.52-27.43,.41-7.81,1.73-14.23,3.94-19.28,.54-1.21-.04-2.63-1.23-3.15-1.19-.53-2.59,.02-3.12,1.24-2.46,5.6-3.9,12.58-4.35,20.94-.25,5.19-.13,10.95,.37,17.27-3.12-5.57-6.16-11.07-9.16-16.48l-2.34-4.21c0-.09-.04-.17-.12-.23-15.9-28.7-30.63-54.71-49.4-74.15Z" style="fill:#fff; fill-rule:evenodd;"/><path d="M1432.12,1096.32c11.13-13.94,26.81-25.45,31.41-42.7,5.42-20.36-6.53-41.78-3.57-62.64,3.69-26.24,28.98-43.25,42.69-65.94,13.47-22.21,7.15-29.68,8.38-55.61,1.85-39.09,33.92-88.4,76.62-75.18,43.36,13.45,36.26,53.74,28.62,84.07-5.42,21.59-1.89,24.7,3.41,46.34,6.36,26.13,26.93,51.39,18.35,76.86-5.34,15.77-20.78,26.4-26.36,42.07-6.33,17.75,1.35,36.99,4.27,55.61,6.25,39.21-2.71,71.79-31.16,104.17-3.45,3.28-7.06,6.29-10.8,9.05-39.38-2.01-83.35-3.84-131.15-5.46-.65-.68-1.26-1.35-1.92-2.05-26.07-28.45-33.83-77.27-8.79-108.58Z" style="fill:#d2dfee; fill-rule:evenodd;"/><path d="M1567.95,829.53c.66-1.77,2.67-2.64,4.44-1.96,1.76,.67,2.62,2.67,1.97,4.43-3.37,8.84-6.24,18.13-8.71,27.75,1.03-.89,2.01-1.75,3.08-2.59,4.63-3.73,9.94-7,15.85-9.79,1.68-.8,3.74-.06,4.55,1.65,.78,1.7,.05,3.73-1.65,4.54-5.46,2.58-10.26,5.56-14.49,8.95-3.98,3.23-7.47,6.81-10.43,10.8-4.39,20.92-7.26,43.4-9.82,67.09,3.95-6.15,8.18-11.7,12.69-16.59,7.85-8.52,16.51-15.13,26-19.83,1.68-.85,3.74-.14,4.6,1.54,.82,1.7,.12,3.76-1.57,4.59-8.71,4.31-16.71,10.43-23.98,18.34-7.23,7.86-13.76,17.49-19.55,28.87l-.65,6.42c-1.47,14.12-2.96,28.62-4.71,43.42,0,.14-.05,.29-.05,.43-1.85,15.46-4.03,31.25-6.73,47.3,7.38-11.42,15.36-21.54,23.89-30.33,12.48-12.85,26.2-22.89,41.1-30.06,1.72-.82,3.78-.1,4.59,1.61,.83,1.7,.09,3.73-1.6,4.58-14.21,6.82-27.26,16.38-39.17,28.66-11.91,12.26-22.71,27.22-32.35,44.9-4.23,21.27-9.62,42.95-16.76,64.85h0v.09h-.03c-3.5,10.75-7.4,21.55-11.83,32.4,10.39-8.89,21.39-16.59,33.05-23.06,16.18-9.05,33.63-15.72,52.23-20.04,1.85-.43,3.69,.72,4.11,2.57,.45,1.84-.7,3.7-2.55,4.13-18.03,4.16-34.86,10.61-50.5,19.29-15.44,8.62-29.77,19.46-42.95,32.54-3.24,7.21-6.74,14.41-10.43,21.63l-7.59-.29c12.48-23.79,22.21-47.52,29.85-70.99,1.27-16.71-.7-33.42-5.96-50.09-5.29-16.93-14-33.89-26.03-50.89-1.1-1.53-.74-3.68,.82-4.76,1.52-1.1,3.65-.73,4.77,.8,12.43,17.58,21.43,35.17,26.97,52.79,3.16,10.02,5.18,20.01,6.07,30.03,10.31-37.12,16.02-73.39,20.17-108.02-4.03-14.66-8.5-27.08-13.47-37.24-4.92-10.11-10.31-17.9-16.06-23.37-1.39-1.31-1.47-3.47-.16-4.84,1.31-1.38,3.45-1.44,4.84-.14,6.41,6.06,12.24,14.52,17.54,25.35,3.28,6.74,6.41,14.44,9.28,23.1,.99-9.13,1.93-18.14,2.84-27.01l.74-6.92c0-.13,0-.25,.04-.38,4.85-47.05,9.77-89.86,23.69-126.24Z" style="fill:#fff; fill-rule:evenodd;"/><path d="M1546.81,1114.71c11.86-6.42,26.19-9.81,34.53-20.45,9.81-12.58,7.85-31.04,16.05-44.69,10.39-17.18,33.01-21.54,49.32-33.26,15.93-11.51,13.75-18.58,22.29-36.28,12.85-26.67,49.8-51.52,75.63-29.68,26.24,22.23,9.32,48.2-4.97,67.07-10.19,13.42-8.62,16.65-11.34,33.26-3.28,20.09,3.53,43.79-10.02,59-8.37,9.38-22.25,12.22-30.79,21.48-9.69,10.49-10.06,26.17-13.51,40.01-4.64,18.65-12.85,33.59-25.83,45.6-34.16-2.33-73.86-4.47-118.16-6.43-3.91-5.31-7.06-11.17-9.24-17.38-9.73-27.55-.7-63.85,26.04-78.24Z" style="fill:#c5def8; fill-rule:evenodd;"/><path d="M1720.45,969.12c.98-1.03,2.62-1.07,3.69-.06,1.03,1.01,1.03,2.63,.05,3.68-4.97,5.15-9.7,10.75-14.25,16.77,.94-.33,1.89-.63,2.88-.9,4.35-1.23,9-1.95,13.92-2.13,1.44-.06,2.63,1.06,2.72,2.49,.03,1.44-1.07,2.64-2.51,2.68-4.52,.19-8.79,.85-12.74,1.93-3.73,1.07-7.22,2.55-10.47,4.46-9.24,13.26-17.9,28.06-26.73,43.81,4.6-3.12,9.2-5.73,13.8-7.8,7.96-3.62,15.93-5.65,23.98-6.1,1.41-.08,2.64,1.01,2.72,2.42,.08,1.44-.99,2.64-2.43,2.75-7.35,.42-14.73,2.3-22.13,5.66-7.38,3.33-14.78,8.12-22.17,14.32l-2.38,4.27c-5.17,9.43-10.51,19.07-16.13,28.84-.05,.1-.13,.21-.17,.29-5.87,10.23-12.03,20.6-18.69,30.98,8.55-5.77,17.08-10.45,25.63-14.05,12.52-5.26,25.04-8.19,37.52-8.76,1.44-.06,2.67,1.05,2.72,2.47,.08,1.43-1.02,2.64-2.46,2.71-11.91,.55-23.82,3.35-35.77,8.35-11.94,5.03-23.9,12.26-35.85,21.71-9.24,13.57-19.41,27.08-30.87,40.22h0l-.05,.06h0c-5.62,6.45-11.58,12.81-17.86,19.05,9.85-3.12,19.83-5.22,29.85-6.3,13.96-1.48,28.08-.94,42.33,1.57,1.39,.24,2.34,1.57,2.09,3-.21,1.41-1.57,2.36-3,2.11-13.8-2.44-27.43-2.93-40.9-1.52-13.3,1.41-26.48,4.75-39.54,9.94-4.88,4.51-10.02,8.97-15.36,13.32l-7.8-.37c17.54-13.85,32.72-28.68,46.11-44.01,5.83-11.27,9.4-23.49,10.67-36.66,1.31-13.39,.29-27.76-3.08-43.16-.29-1.4,.62-2.8,2.01-3.1,1.4-.29,2.75,.59,3.08,1.99,3.45,15.92,4.51,30.84,3.16,44.76-.78,7.9-2.35,15.48-4.68,22.73,18.18-22.81,32.88-46.4,46.07-69.29,1.52-11.42,2.09-21.39,1.65-29.94-.46-8.49-1.89-15.51-4.27-21.02-.58-1.34,0-2.85,1.32-3.43,1.31-.58,2.83,.02,3.45,1.34,2.62,6.12,4.19,13.73,4.67,22.85,.29,5.69,.17,11.97-.37,18.85,3.41-6.07,6.69-12.07,9.98-17.98l2.54-4.59c.05-.09,.08-.17,.13-.25,17.32-31.33,33.46-59.7,53.91-80.91Z" style="fill:#fff; fill-rule:evenodd;"/><path d="M830.07,259.95c-3.2,43.96-9.69,50.03-51.62,53.42,41.93,3.39,48.42,9.44,51.62,53.42,3.2-43.98,9.69-50.03,51.61-53.42-41.92-3.39-48.41-9.46-51.61-53.42h0Zm170.4,115.96c-1.72,23.46-5.17,26.71-27.55,28.51,22.39,1.81,25.84,5.05,27.55,28.54,1.73-23.49,5.18-26.73,27.56-28.54-22.38-1.81-25.83-5.05-27.56-28.51h0Zm-74.6-180.67c-1.77,23.77-5.26,27.06-27.92,28.89,22.67,1.85,26.16,5.11,27.92,28.89,1.73-23.78,5.22-27.04,27.88-28.89-22.66-1.83-26.15-5.11-27.88-28.89Z" style="fill:#fff; fill-rule:evenodd;"/><path d="M768.27,980.8c2.63,35.62,7.84,40.55,41.8,43.27-33.96,2.76-39.17,7.66-41.8,43.29-2.59-35.62-7.85-40.53-41.8-43.29,33.96-2.72,39.21-7.65,41.8-43.27h0Zm-138.04,93.94c1.39,19.01,4.19,21.64,22.34,23.12-18.15,1.45-20.95,4.08-22.34,23.1-1.4-19.01-4.19-21.64-22.34-23.1,18.15-1.48,20.94-4.11,22.34-23.12h0Zm60.48-146.36c1.39,19.26,4.23,21.93,22.58,23.41-18.34,1.48-21.19,4.15-22.58,23.4-1.44-19.25-4.27-21.92-22.63-23.4,18.36-1.48,21.19-4.15,22.63-23.41Z" style="fill:#fff; fill-rule:evenodd;"/><path d="M1310.79,892.99c-1.96,27.28-5.99,31.04-31.98,33.14,25.99,2.09,30.02,5.87,31.98,33.13,1.97-27.26,6.04-31.04,31.99-33.13-25.95-2.1-30.02-5.86-31.99-33.14h0Zm105.69,71.94c-1.06,14.56-3.2,16.57-17.08,17.7,13.88,1.11,16.02,3.12,17.08,17.68,1.07-14.56,3.2-16.57,17.08-17.68-13.88-1.13-16.01-3.14-17.08-17.7h0Zm-46.27-112.05c-1.06,14.74-3.24,16.78-17.33,17.9,14.08,1.13,16.27,3.18,17.33,17.92,1.06-14.74,3.24-16.79,17.29-17.92-14.04-1.13-16.23-3.16-17.29-17.9Z" style="fill:#fff; fill-rule:evenodd;"/></g><g><rect x="717.48" y="1035.88" width="374.83" height="137.43" style="fill:#61a0e0;"/><path d="M1402.16,1049.61c0,20.7-16.79,37.47-37.45,37.47H445.13c-20.74,0-37.53-16.77-37.53-37.47V326.2c0-20.7,16.79-37.49,37.53-37.49h919.57c20.69,0,37.45,16.79,37.45,37.49v723.41Z" style="fill:#71afed; fill-rule:evenodd;"/><path d="M1366.79,905.27c0,19.91-16.17,36.07-36.09,36.07H479.09c-19.92,0-36.1-16.16-36.1-36.07V353.91c0-19.93,16.18-36.09,36.1-36.09h851.62c19.92,0,36.09,16.16,36.09,36.09V905.27Z" style="fill:#eff9fc; fill-rule:evenodd;"/><rect x="658.31" y="1148.32" width="489.8" height="24.99" style="fill:#71afed;"/><rect x="484.06" y="1173.31" width="848.78" height="41.83" style="fill:#61a0e0;"/></g><rect x="465.17" y="340.36" width="419.71" height="160.89" style="fill:#dfedfa;"/><rect x="917.81" y="340.38" width="419.71" height="247.49" style="fill:#dfedfa;"/><rect x="917.81" y="630.58" width="419.71" height="247.46" style="fill:#dfedfa;"/><rect x="465.17" y="533.94" width="419.71" height="160.9" style="fill:#dfedfa;"/><rect x="465.17" y="727.54" width="419.71" height="160.87" style="fill:#dfedfa;"/><g><path d="M762.36,885.6v-279.29c0-6.07-5.01-11.09-11.09-11.09H206.36c-6.12,0-15.56,5.01-15.56,11.09v289.35c0,6.08,5.02,11.09,11.09,11.09H736.82c20.2,0,25.53-15.05,25.53-21.15Z" style="fill:#61a0e0; fill-rule:evenodd;"/><path d="M762.36,885.6v-279.33c0-6.1-5.01-11.1-11.09-11.1H210.6c-6.08,0-11.09,5.01-11.09,11.1v279.33c0,6.1,5.01,11.09,11.09,11.09H751.27c6.08,0,11.09-4.99,11.09-11.09Z" style="fill:#dfedfa; fill-rule:evenodd;"/><path d="M754.19,885.6v-279.33c0-1.62-1.32-2.92-2.92-2.92H210.6c-1.61,0-2.92,1.29-2.92,2.92v279.33c0,1.6,1.32,2.94,2.92,2.94H751.27c1.61,0,2.92-1.34,2.92-2.94h0Zm-8.18-5.26H215.86v-268.84H746.01v268.84Z" style="fill:#a4d0fc; fill-rule:evenodd;"/><path d="M763.06,885.6v-279.33c0-3.24-1.32-6.2-3.45-8.33h0c-2.14-2.14-5.1-3.47-8.34-3.47H210.6c-.38,0-.74,.02-1.12,.06h-3.12c-3.45,0-7.88,1.5-11.25,3.91-2.92,2.07-5.05,4.84-5.05,7.88v289.35c0,3.24,1.36,6.2,3.48,8.33,2.14,2.14,5.1,3.45,8.34,3.45H736.82c8.21,0,14.08-2.45,18.1-5.78,5.7-4.71,7.85-11.19,8.09-15.13,.05-.19,.05-.35,.05-.51v-.41h0ZM204.72,596.04c-.9,.52-1.73,1.15-2.46,1.89h0c-2.13,2.13-3.45,5.09-3.45,8.33v279.33c0,3.24,1.32,6.2,3.45,8.34h0c2.14,2.13,5.1,3.47,8.34,3.47H751.27c3,0,5.75-1.15,7.89-3.02-1.19,2.13-2.87,4.31-5.13,6.18-3.82,3.16-9.36,5.48-17.2,5.48H201.89c-2.88,0-5.46-1.17-7.35-3.07-1.89-1.89-3.04-4.49-3.04-7.33v-289.35c0-2.54,1.89-4.91,4.43-6.73,2.64-1.86,5.91-3.16,8.79-3.53h0Zm4.85-.12H751.27c2.84,0,5.46,1.17,7.32,3.06,1.89,1.89,3.07,4.5,3.07,7.33v279.29l-.03,.33v.21h0c-.13,2.64-1.23,5.05-3.04,6.82-1.85,1.87-4.48,3.04-7.32,3.04H210.6c-2.84,0-5.42-1.17-7.32-3.04-1.89-1.89-3.04-4.5-3.04-7.35v-279.33c0-2.85,1.15-5.46,3.04-7.33,1.65-1.67,3.87-2.76,6.29-3.02Z" style="fill:#1e77d1; fill-rule:evenodd;"/><g style="opacity:.25;"><path d="M762.36,837.27c-73.21,26.73-159.19,30-213.43-6.96-107.09-72.98-73.62-94.67-229.9-123.12-73.95-13.47-87.24-64.9-105.56-112.03h-2.87c-6.08,0-11.09,5.01-11.09,11.1v279.33c0,6.1,5.01,11.09,11.09,11.09H751.27c6.08,0,11.09-4.99,11.09-11.09v-48.33Z" style="fill:#fff; fill-rule:evenodd;"/></g><path d="M318.21,642.27h329.91c3.12,0,5.67,2.53,5.67,5.65v.04c0,3.12-2.55,5.65-5.67,5.65H318.21c-3.12,0-5.67-2.53-5.67-5.65v-.04c0-3.12,2.55-5.65,5.67-5.65Z" style="fill:#a4d0fc; fill-rule:evenodd;"/><path d="M254.65,668.5h457.04c3.12,0,5.67,2.52,5.67,5.67h0c0,3.14-2.56,5.66-5.67,5.66H254.65c-3.12,0-5.67-2.53-5.67-5.66h0c0-3.14,2.56-5.67,5.67-5.67Z" style="fill:#a4d0fc; fill-rule:evenodd;"/><path d="M254.65,694.69h457.04c3.12,0,5.67,2.54,5.67,5.67v.02c0,3.12-2.56,5.67-5.67,5.67H254.65c-3.12,0-5.67-2.55-5.67-5.67v-.02c0-3.12,2.56-5.67,5.67-5.67Z" style="fill:#a4d0fc; fill-rule:evenodd;"/><path d="M285.44,730.49h390.98c16.95,0,30.79,13.84,30.79,30.81v63.97c0,16.96-13.84,30.8-30.79,30.8H285.44c-16.95,0-30.79-13.84-30.79-30.8v-63.97c0-16.98,13.84-30.81,30.79-30.81Z" style="fill:#fff; fill-rule:evenodd;"/><path d="M285.41,725.75h391.04c9.73,0,18.65,4.01,25.09,10.43,6.46,6.42,10.43,15.34,10.43,25.11v63.99c0,9.78-4.03,18.69-10.43,25.11v.02c-6.44,6.42-15.36,10.43-25.09,10.43H285.41c-9.73,0-18.65-4-25.05-10.43l-.04-.05c-6.4-6.42-10.43-15.31-10.43-25.09v-63.99c0-9.77,4.03-18.69,10.43-25.11h.04c6.41-6.41,15.32-10.43,25.05-10.43h0Zm391.04,9.49H285.41c-7.15,0-13.68,2.93-18.36,7.64v.02c-4.72,4.72-7.68,11.23-7.68,18.4v63.99c0,7.17,2.96,13.69,7.64,18.4l.04,.02c4.68,4.7,11.21,7.63,18.36,7.63h391.04c7.15,0,13.64-2.93,18.36-7.65h.04c4.68-4.71,7.64-11.23,7.64-18.4v-63.99c0-7.17-2.96-13.68-7.68-18.4-4.72-4.7-11.21-7.65-18.36-7.65Z" style="fill:#a4d0fc; fill-rule:evenodd;"/></g><path d="M394.21,747.89l-5.29,3.1c-1.81,1.05-2.43,3.36-1.36,5.17l1.15,2.01c1.39,2.38,.82,3.45,.37,3.84-1.19,1.06-2.3,2.21-3.36,3.36-.33,.33-1.36,1.48-4.07-.1l-1.85-1.06c-1.81-1.05-4.14-.43-5.17,1.35l-3.08,5.32c-1.07,1.81-.46,4.12,1.36,5.17l1.84,1.07c2.51,1.46,2.47,2.22,2.14,3.31-.45,1.48-.91,2.96-1.23,4.47-.29,1.36-.17,2.34-3.61,2.34h-2.09c-2.1,0-3.82,1.69-3.82,3.75v6.16c0,2.08,1.72,3.78,3.82,3.78h2.09c3.44,0,3.32,.97,3.61,2.34,.32,1.52,.78,3,1.23,4.47,.33,1.07,.37,1.82-2.14,3.31l-1.84,1.06c-1.81,1.05-2.43,3.35-1.36,5.15l3.08,5.32c1.03,1.81,3.36,2.4,5.17,1.35l1.85-1.06c2.71-1.58,3.74-.42,4.07-.08,1.06,1.14,2.17,2.29,3.36,3.36,.45,.37,1.02,1.45-.37,3.84l-1.15,2c-1.07,1.79-.45,4.13,1.36,5.15l5.29,3.1c1.81,1.05,4.15,.43,5.18-1.38l1.19-2.01c1.4-2.42,2.76-2.32,3.36-2.13,1.69,.54,3.24,.9,5.02,1.35,.66,.17,1.73,.64,1.73,3.51v2.16c0,2.08,1.68,3.78,3.77,3.78h6.16c2.1,0,3.78-1.7,3.78-3.78v-2.16c0-2.88,1.11-3.35,1.73-3.51,1.77-.45,3.32-.82,5.01-1.35,.58-.18,1.97-.29,3.41,2.13l1.15,2.01c1.02,1.81,3.36,2.42,5.17,1.38l5.3-3.1c1.81-1.02,2.42-3.36,1.36-5.15l-1.15-2c-1.4-2.39-.78-3.48-.37-3.84,1.18-1.07,2.29-2.22,3.4-3.36,.29-.34,1.36-1.5,4.03,.08l1.88,1.06c1.77,1.05,4.11,.45,5.13-1.35l3.12-5.32c1.03-1.8,.41-4.11-1.4-5.15l-1.81-1.06c-2.54-1.49-2.51-2.24-2.17-3.31,.45-1.48,.9-2.95,1.23-4.47,.29-1.38,.16-2.34,3.61-2.34h2.14c2.04,0,3.77-1.7,3.77-3.78v-6.16c0-2.07-1.73-3.75-3.77-3.75h-2.14c-3.45,0-3.32-.98-3.61-2.34-.33-1.52-.78-3-1.23-4.47-.34-1.09-.37-1.85,2.17-3.31l1.81-1.07c1.81-1.05,2.43-3.36,1.4-5.17l-3.12-5.32c-1.02-1.78-3.36-2.4-5.13-1.35l-1.88,1.06c-2.67,1.58-3.74,.43-4.03,.1-1.11-1.15-2.22-2.3-3.4-3.36-.41-.39-1.03-1.46,.37-3.84l1.15-2.01c1.06-1.81,.45-4.12-1.36-5.17l-5.3-3.1c-1.81-1.03-4.15-.42-5.17,1.37l-1.15,2.01c-1.44,2.42-2.84,2.32-3.41,2.13-1.69-.54-3.24-.88-5.01-1.33-.62-.18-1.73-.64-1.73-3.53v-2.16c0-2.07-1.68-3.75-3.78-3.75h-6.16c-2.09,0-3.77,1.69-3.77,3.75v2.16c0,2.89-1.07,3.35-1.73,3.53-1.77,.46-3.32,.8-5.02,1.33-.61,.18-1.96,.29-3.36-2.13l-1.19-2.01c-1.02-1.79-3.36-2.41-5.18-1.37h0Zm23.33,38.08c4.47,0,8.13,3.63,8.13,8.1s-3.66,8.13-8.13,8.13-8.13-3.64-8.13-8.13,3.66-8.1,8.13-8.1h0Zm-25.45,8.1c0-.96,.77-1.72,1.72-1.72s1.73,.76,1.73,1.72c0,6.08,2.47,11.59,6.45,15.56,3.98,3.96,9.48,6.45,15.56,6.45,.94,0,1.73,.76,1.73,1.72s-.78,1.75-1.73,1.75c-7.02,0-13.39-2.86-18.02-7.45-4.6-4.63-7.43-10.99-7.43-18.03h0Zm50.58-4.11c.17,.97-.49,1.85-1.44,2-.94,.14-1.85-.5-1.97-1.44-.74-4.62-2.91-8.75-6.07-11.93-3.16-3.18-7.27-5.38-11.87-6.18-.94-.19-1.55-1.07-1.44-2.01,.21-.94,1.07-1.58,2.01-1.42,5.34,.93,10.11,3.49,13.76,7.17,3.66,3.7,6.16,8.48,7.02,13.81h0Zm-25.13-26.07c16.67,0,30.18,13.51,30.18,30.17s-13.51,30.18-30.18,30.18-30.18-13.51-30.18-30.18,13.51-30.17,30.18-30.17Z" style="fill:#61a0e0; fill-rule:evenodd;"/><path d="M493.29,783.73l-3,1.73c-1.02,.6-1.35,1.91-.77,2.9l.66,1.13c.77,1.35,.45,1.95,.2,2.17-.66,.6-1.27,1.25-1.89,1.89-.2,.16-.77,.81-2.29-.06l-1.03-.59c-1.02-.6-2.33-.26-2.91,.75l-1.73,3c-.58,1.01-.26,2.3,.77,2.89l1.03,.59c1.44,.82,1.39,1.25,1.18,1.85-.24,.81-.49,1.66-.69,2.52-.17,.76-.09,1.31-2.01,1.31h-1.2c-1.15,0-2.09,.94-2.09,2.09v3.48c0,1.17,.94,2.12,2.09,2.12h1.2c1.93,0,1.85,.55,2.01,1.31,.2,.86,.45,1.68,.69,2.53,.21,.59,.25,1.01-1.18,1.85l-1.03,.6c-1.03,.57-1.35,1.88-.77,2.89l1.73,2.98c.58,1.02,1.89,1.35,2.91,.78l1.03-.59c1.52-.89,2.09-.25,2.29-.06,.62,.64,1.24,1.29,1.89,1.89,.25,.21,.58,.82-.2,2.16l-.66,1.13c-.58,1.02-.25,2.32,.77,2.89l3,1.74c.98,.57,2.3,.25,2.88-.76l.66-1.13c.78-1.37,1.56-1.31,1.89-1.21,.94,.31,1.85,.5,2.84,.77,.33,.08,.98,.34,.98,1.97v1.21c0,1.17,.94,2.11,2.09,2.11h3.45c1.19,0,2.14-.94,2.14-2.11v-1.21c0-1.62,.61-1.89,.94-1.97,.98-.27,1.89-.46,2.83-.77,.33-.1,1.11-.16,1.89,1.21l.66,1.13c.57,1.01,1.89,1.33,2.92,.76l2.96-1.74c1.02-.58,1.36-1.87,.78-2.89l-.66-1.13c-.78-1.33-.46-1.95-.2-2.16,.66-.59,1.31-1.25,1.93-1.89,.17-.18,.74-.82,2.26,.06l1.02,.59c1.02,.58,2.34,.25,2.92-.78l1.73-2.98c.58-1.01,.25-2.32-.74-2.89l-1.07-.6c-1.39-.84-1.39-1.25-1.18-1.85,.24-.85,.53-1.66,.7-2.53,.17-.76,.09-1.31,2.01-1.31h1.19c1.15,0,2.13-.95,2.13-2.12v-3.48c0-1.15-.98-2.09-2.13-2.09h-1.19c-1.93,0-1.85-.55-2.01-1.31-.17-.86-.46-1.71-.7-2.52-.21-.6-.21-1.03,1.18-1.85l1.07-.59c.99-.59,1.32-1.88,.74-2.89l-1.73-3c-.58-1.01-1.89-1.35-2.92-.75l-1.02,.59c-1.52,.88-2.09,.22-2.26,.06-.62-.64-1.27-1.29-1.93-1.89-.26-.22-.58-.82,.2-2.17l.66-1.13c.58-.99,.24-2.3-.78-2.9l-2.96-1.73c-1.03-.57-2.35-.25-2.92,.76l-.66,1.13c-.78,1.37-1.56,1.31-1.89,1.19-.94-.29-1.85-.47-2.83-.74-.34-.1-.94-.37-.94-1.97v-1.21c0-1.17-.95-2.12-2.14-2.12h-3.45c-1.15,0-2.09,.95-2.09,2.12v1.21c0,1.6-.65,1.87-.98,1.97-.98,.27-1.89,.46-2.84,.74-.33,.12-1.1,.18-1.89-1.19l-.66-1.13c-.58-1.01-1.89-1.33-2.88-.76h0Zm13.05,21.36c2.51,0,4.55,2.05,4.55,4.58s-2.04,4.55-4.55,4.55-4.55-2.03-4.55-4.55,2.04-4.58,4.55-4.58h0Zm-14.29,4.58c0-.54,.45-.98,.98-.98s.98,.45,.98,.98c0,3.41,1.36,6.49,3.58,8.72,2.25,2.24,5.34,3.61,8.74,3.61,.54,0,.99,.46,.99,.98s-.45,.97-.99,.97c-3.94,0-7.51-1.57-10.1-4.16-2.59-2.59-4.19-6.18-4.19-10.12h0Zm28.41-2.3c.08,.54-.29,1.03-.81,1.11-.54,.08-1.03-.29-1.12-.8-.41-2.59-1.64-4.91-3.4-6.7-1.77-1.79-4.07-3.04-6.65-3.49-.54-.08-.91-.6-.78-1.11,.08-.55,.58-.9,1.1-.8,3,.5,5.67,1.95,7.69,4.03,2.04,2.07,3.48,4.74,3.98,7.76h0Zm-14.12-14.64c9.36,0,16.96,7.57,16.96,16.94s-7.6,16.94-16.96,16.94-16.95-7.6-16.95-16.94,7.59-16.94,16.95-16.94Z" style="fill:#61a0e0; fill-rule:evenodd;"/><g><path d="M875.28,1193.3v-279.29c0-6.1-5.02-11.08-11.14-11.08H319.24c-6.07,0-15.56,4.98-15.56,11.08v289.36c0,6.1,5.02,11.08,11.13,11.08H849.7c20.24,0,25.58-15.04,25.58-21.15Z" style="fill:#61a0e0; fill-rule:evenodd;"/><path d="M875.28,1193.3v-279.32c0-6.1-5.02-11.09-11.14-11.09H323.5c-6.11,0-11.08,4.99-11.08,11.09v279.32c0,6.1,4.97,11.09,11.08,11.09H864.14c6.12,0,11.14-4.99,11.14-11.09Z" style="fill:#dfedfa; fill-rule:evenodd;"/><path d="M867.1,1193.3v-279.32c0-1.61-1.31-2.94-2.96-2.94H323.5c-1.6,0-2.91,1.33-2.91,2.94v279.32c0,1.61,1.31,2.92,2.91,2.92H864.14c1.65,0,2.96-1.31,2.96-2.92h0Zm-8.16-5.23H328.76v-268.84H858.93v268.84Z" style="fill:#a4d0fc; fill-rule:evenodd;"/><path d="M875.96,1193.3v-279.32c0-3.24-1.31-6.21-3.48-8.34h0c-2.14-2.13-5.1-3.47-8.34-3.47H323.5c-.37,0-.73,.02-1.1,.06h-3.16c-3.4,0-7.88,1.52-11.21,3.9-2.92,2.07-5.05,4.84-5.05,7.88v289.36c0,3.22,1.32,6.18,3.49,8.33,2.13,2.13,5.05,3.47,8.33,3.47H849.7c8.25,0,14.08-2.46,18.14-5.81,5.66-4.7,7.81-11.19,8.09-15.15,0-.17,0-.33,.03-.49v-.42h0ZM317.64,903.75c-.91,.53-1.73,1.15-2.46,1.89h0c-2.14,2.13-3.45,5.1-3.45,8.34v279.32c0,3.24,1.31,6.2,3.45,8.34h0c2.12,2.13,5.08,3.47,8.32,3.47H864.14c3.04,0,5.79-1.15,7.89-3.02-1.2,2.16-2.84,4.31-5.1,6.18-3.82,3.16-9.36,5.48-17.24,5.48H314.8c-2.87,0-5.46-1.19-7.35-3.08-1.89-1.87-3.04-4.45-3.04-7.3v-289.36c0-2.52,1.85-4.9,4.43-6.73,2.59-1.87,5.91-3.15,8.79-3.53h0Zm4.8-.1H864.14c2.88,0,5.46,1.17,7.35,3.04,1.89,1.89,3.04,4.5,3.04,7.33v279.83h0c-.12,2.65-1.27,5.03-3.04,6.8-1.89,1.89-4.47,3.06-7.35,3.06H323.5c-2.87,0-5.46-1.17-7.35-3.06-1.84-1.87-3.04-4.46-3.04-7.33v-279.32c0-2.86,1.2-5.46,3.04-7.33,1.69-1.66,3.87-2.75,6.29-3Z" style="fill:#1e77d1; fill-rule:evenodd;"/><g style="opacity:.25;"><path d="M875.28,1144.99c-73.26,26.71-159.2,29.98-213.43-6.98-107.08-72.98-73.62-94.66-229.89-123.12-73.95-13.47-87.26-64.9-105.6-112.01h-2.84c-6.11,0-11.08,4.99-11.08,11.09v279.32c0,6.1,4.97,11.09,11.08,11.09H864.14c6.12,0,11.14-4.99,11.14-11.09v-48.3Z" style="fill:#fff; fill-rule:evenodd;"/></g><g><path d="M431.09,967.39h329.91c3.16,0,5.67,2.53,5.67,5.64v.02c0,3.14-2.51,5.66-5.67,5.66H431.09c-3.12,0-5.67-2.52-5.67-5.66v-.02c0-3.12,2.55-5.64,5.67-5.64Z" style="fill:#a4d0fc; fill-rule:evenodd;"/><path d="M367.52,999.65h457.04c3.16,0,5.67,2.54,5.67,5.66v.02c0,3.12-2.51,5.67-5.67,5.67H367.52c-3.12,0-5.62-2.55-5.62-5.67v-.02c0-3.12,2.51-5.66,5.62-5.66Z" style="fill:#a4d0fc; fill-rule:evenodd;"/><path d="M367.52,1031.87h457.04c3.16,0,5.67,2.52,5.67,5.66v.02c0,3.12-2.51,5.65-5.67,5.65H367.52c-3.12,0-5.62-2.52-5.62-5.65v-.02c0-3.14,2.51-5.66,5.62-5.66Z" style="fill:#a4d0fc; fill-rule:evenodd;"/><path d="M431.09,1064.11h329.91c3.16,0,5.67,2.53,5.67,5.64v.02c0,3.12-2.51,5.67-5.67,5.67H431.09c-3.12,0-5.67-2.55-5.67-5.67v-.02c0-3.12,2.55-5.64,5.67-5.64Z" style="fill:#a4d0fc; fill-rule:evenodd;"/><path d="M367.52,1096.32h457.04c3.16,0,5.67,2.53,5.67,5.65v.04c0,3.12-2.51,5.65-5.67,5.65H367.52c-3.12,0-5.62-2.52-5.62-5.65v-.04c0-3.12,2.51-5.65,5.62-5.65Z" style="fill:#a4d0fc; fill-rule:evenodd;"/><path d="M367.52,1128.55h457.04c3.16,0,5.67,2.53,5.67,5.64v.02c0,3.14-2.51,5.67-5.67,5.67H367.52c-3.12,0-5.62-2.53-5.62-5.67v-.02c0-3.12,2.51-5.64,5.62-5.64Z" style="fill:#a4d0fc; fill-rule:evenodd;"/></g></g><g><g><path d="M1186.59,645.73h292.5c8.59,0,7.15,26.8,8.96,35.31l105.04,504.05c3.04,14.6-11.17,29.26-27.36,29.26h-292.5c-8.63,0-16.83-7.04-18.36-15.62l-90.58-517.68c-1.48-8.58,13.72-35.31,22.3-35.31Z" style="fill:#61a0e0; fill-rule:evenodd;"/><path d="M1186.59,644.89h292.55c6.98,0,7.97,14.6,8.71,25.95,.29,4.11,.53,7.77,1.02,10.02l104.99,504.07c.09,.45,.12,.93,.12,1.4-.08,4.51,.66,12.66-4.84,18.43-5.46,5.73-17.12,9.16-21.68,10.19-.65,.14-1.23,.2-1.73,.2h-292.54c-4.48,0-8.88-1.81-12.36-4.76-3.45-2.96-5.99-7.01-6.78-11.51l-90.53-517.67c-.13-.51-.17-1.06-.13-1.66,.08-4.88,3.45-13.08,7.84-20.25h0c4.43-7.22,9.97-13.46,14.33-14.29,.37-.08,.7-.12,1.02-.12h0Zm292.5,1.64h-292.5c-.25,0-.5,.04-.73,.08-3.87,.74-9,6.66-13.23,13.51h0c-4.27,6.94-7.51,14.83-7.59,19.42-.05,.5,0,.94,.08,1.36l90.53,517.68c.74,4.08,3.08,7.82,6.25,10.53,3.2,2.71,7.22,4.42,11.33,4.42h292.5c.42,0,.91-.06,1.41-.17,4.23-.97,15.6-4.21,20.85-9.73,5.22-5.5,4.27-13.22,4.35-17.3,0-.38,0-.74-.09-1.05l-105.03-504.05c-.5-2.41-.73-6.1-1.02-10.24-.7-10.7-1.6-24.46-7.11-24.46Z" style="fill:#61a0e0; fill-rule:evenodd;"/><path d="M1191.8,645.73h292.55c8.58,0,16.84,7,18.31,15.6l92.47,528.21c1.49,8.58-4.31,15.6-12.9,15.6h-292.54c-8.59,0-16.83-7.02-18.32-15.6l-92.46-528.21c-1.48-8.6,4.31-15.6,12.89-15.6Z" style="fill:#a4d0fc; fill-rule:evenodd;"/><path d="M1191.85,644.89h292.5c4.47,0,8.87,1.82,12.32,4.78,3.49,2.96,6.04,7.01,6.82,11.5l92.38,528.08c.2,1.06,.29,2.09,.25,3.12-.05,3.31-1.15,6.3-3.08,8.61-1.92,2.32-4.63,3.96-7.88,4.58-.94,.18-1.93,.29-3,.29h-292.46c-4.51,0-8.91-1.83-12.36-4.76-3.49-2.96-5.99-7.02-6.82-11.52l-92.38-528.07c-.2-1.07-.29-2.09-.25-3.1,.05-3.33,1.2-6.32,3.12-8.62,1.93-2.32,4.64-3.96,7.89-4.59,.9-.18,1.92-.28,2.96-.28h0Zm292.47,1.64h-292.52c-.94,0-1.8,.1-2.67,.25-2.83,.55-5.21,1.97-6.89,4s-2.67,4.66-2.71,7.6c-.04,.9,.04,1.85,.21,2.79l92.42,528.08c.7,4.11,3.04,7.84,6.25,10.55,3.2,2.72,7.22,4.39,11.29,4.39h292.54c.91,0,1.81-.08,2.64-.24,2.83-.56,5.21-1.97,6.89-4.01,1.69-2.03,2.67-4.66,2.71-7.57,.05-.93-.04-1.87-.21-2.81l-92.42-528.07c-.7-4.11-3.04-7.82-6.25-10.55-3.16-2.71-7.17-4.39-11.28-4.39Z" style="fill:#61a0e0; fill-rule:evenodd;"/><path d="M1215.57,678.61h253.47c6.93,0,13.63,5.69,14.86,12.63l83.52,469.44c1.23,6.96-3.45,12.65-10.39,12.65h-253.46c-6.93,0-13.63-5.69-14.86-12.65l-83.52-469.44c-1.23-6.94,3.4-12.63,10.39-12.63Z" style="fill:#eff9fc; fill-rule:evenodd;"/><path d="M1460.09,682.68c6.98,0,13.67,5.68,14.9,12.62l83.52,469.44c.58,3.31-.16,6.33-1.85,8.58h.37c6.94,0,11.62-5.69,10.39-12.65l-83.52-469.44c-1.23-6.94-7.93-12.63-14.86-12.63h-253.47c-3.65,0-6.69,1.57-8.53,4.07h253.05Z" style="fill:#e1f4fa; fill-rule:evenodd;"/><path d="M1338.8,654.35c5.37,0,10.55,4.37,11.49,9.77,.94,5.38-2.62,9.75-8,9.75s-10.55-4.37-11.49-9.75c-.99-5.4,2.62-9.77,8.01-9.77Z" style="fill:#d2e5f7; fill-rule:evenodd;"/></g><g><g><path d="M1263.99,930.03c-12.11-68.29,33.54-123.84,101.82-123.84s133.73,55.56,145.84,123.84c12.19,68.28-33.51,123.83-101.78,123.83s-133.73-55.55-145.88-123.83Z" style="fill:#d2e5f7; fill-rule:evenodd;"/><path d="M1289.94,904.76c-9.16-51.51,25.29-93.41,76.78-93.41s100.89,41.9,110.04,93.41c9.16,51.48-25.29,93.39-76.79,93.39s-100.88-41.9-110.04-93.39Z" style="fill:#eff9fc; fill-rule:evenodd;"/></g><path d="M1367.5,815.64c-63.07,0-105.28,51.3-94.07,114.39,11.25,63.07,71.69,114.39,134.76,114.39s105.28-51.32,94.07-114.39c-11.25-63.09-71.69-114.39-134.76-114.39h0Zm42.38,238.22c-68.28,0-133.73-55.55-145.88-123.83-12.11-68.29,33.54-123.84,101.82-123.84s133.73,55.56,145.84,123.84c12.19,68.28-33.51,123.83-101.78,123.83Z" style="fill:#61a0e0; fill-rule:evenodd;"/><path d="M1367.5,815.64c-36.96,0-57.89,51.3-46.69,114.39,11.25,63.07,50.43,114.39,87.38,114.39s57.9-51.32,46.65-114.39c-11.22-63.09-50.38-114.39-87.34-114.39h0Zm42.38,238.22c-42.17,0-86.31-55.55-98.51-123.83-12.11-68.29,12.28-123.84,54.45-123.84s86.35,55.56,98.5,123.84c12.11,68.28-12.32,123.83-54.44,123.83Z" style="fill:#61a0e0; fill-rule:evenodd;"/><path d="M1367.5,815.64c-5.75,0-12.32,38.92,1.1,114.39,13.43,75.47,33.84,114.39,39.59,114.39s12.32-38.92-1.11-114.39c-13.42-75.47-33.83-114.39-39.58-114.39h0Zm42.38,238.22c-22.67,0-43.08-80.99-50.72-123.83-7.64-42.83-16.05-123.84,6.66-123.84s43.07,81.01,50.71,123.84c7.64,42.85,16.01,123.83-6.65,123.83Z" style="fill:#61a0e0; fill-rule:evenodd;"/><g><polygon points="1269.57 934.75 1507.8 934.75 1506.11 925.3 1267.89 925.3 1269.57 934.75" style="fill:#61a0e0; fill-rule:evenodd;"/><path d="M1380.92,891.16c-38.96,0-77.56-10.48-103.26-28.08l4.47-7.45c23.86,16.35,60.2,26.09,97.11,26.09s70.37-9.92,88.36-26.54l7.14,7.39c-19.34,17.9-54.41,28.59-93.83,28.59Z" style="fill:#61a0e0; fill-rule:evenodd;"/><path d="M1494.17,1004.67c-23.86-16.61-60.44-26.54-97.77-26.54s-69.76,9.77-87.87,26.11l-7.11-7.45c19.46-17.6,54.33-28.11,93.3-28.11s78.29,10.69,104,28.59l-4.56,7.39Z" style="fill:#61a0e0; fill-rule:evenodd;"/><path d="M1376,851.23c-28.01,0-58.96-9.09-63.93-26.48l9.2-1.01c2.42,8.52,24.84,18.04,53.05,18.04s46.85-9.2,46.65-17.82l9.56,1.41c.41,14.99-22.54,25.85-54.53,25.85Z" style="fill:#61a0e0; fill-rule:evenodd;"/><path d="M1357.23,1036.1l-9.61-1.01c-1.18-17.38,26.52-26.48,54.54-26.48,32.02,0,58.83,10.88,63.72,25.85l-9.08,1.41c-2.83-8.6-24.8-17.82-52.97-17.82s-47.22,9.51-46.6,18.04Z" style="fill:#61a0e0; fill-rule:evenodd;"/></g></g></g><g><path d="M387.11,521.87c25.37-3.86,33.95-2.64,49.52,26.26,15.52,28.91,36.18,80.93,48.08,87.66,17.9,10.12,23.81,34.92,31.16,33.81,7.35-1.13,12.11,2.14,4.07,8.79-7.97,6.63-20.9,12.3-25.29,11.11-4.44-1.17-7.85-20.26-19.38-26.44-11.54-6.2-8.05-11.29-7.31-16.78,.74-5.48-33.67-30.71-59.62-62.08-15.84-19.18-24.02-31.85-25.25-43.32-1.23-11.46,4.03-19.01,4.03-19.01Z" style="fill:#ffb27d; fill-rule:evenodd;"/><path d="M449.97,626.66c-5.87-14.95-11.78-39.63-17.33-62.25-7.93-32.17-16.18-39.81-21.44-43.23-6.36-1.58-13.88-.86-24.1,.69,0,0-5.26,7.56-4.03,19.01,1.23,11.47,9.4,24.14,25.25,43.32,13.64,16.51,29.65,31.33,41.64,42.46Z" style="fill:#f4a269; fill-rule:evenodd;"/><path d="M394.83,547.31s-6.78,50.92-13.05,56.11c-4.48,3.72-7.69,3.94-10.8-11.23-3.16-15.21,4.89-71.91,4.89-71.91l18.97,27.04Z" style="fill:#3b5bb3; fill-rule:evenodd;"/><polygon points="389.45 574.86 326.96 585.37 362.23 534.78 389.08 529.32 405.18 533.02 389.45 574.86" style="fill:#f09959; fill-rule:evenodd;"/><path d="M259.57,523.9c-22.16,39.79-7.01,65.08,19.92,67.65,26.92,2.57,69.47-2.34,94.27-22.95,24.81-20.6,45.13-42.4,42.3-45.62-2.84-3.27-156.49,.92-156.49,.92Z" style="fill:#f4a269; fill-rule:evenodd;"/><path d="M385.26,553.59c4.55-13.63,9.78-24.06,19.92-24.26,10.63-.18,17.2,5.36,17.66,22.77,.54,20.76,1.27,89.49,.33,120.03-.74,23.14,5.99,30.55,5.42,54.66-.41,18.17,18.93,8.99,11.46,18.42-5.13,6.47-20.45,4.35-29.85,3.16-8.37-1.07,4.35-26.17-7.27-32.89-9.94-5.77-10.15-15.11-3.86-22.2,6.29-7.08,.69-28.04-3.49-42.7-4.19-14.65-10.67-30.53-14.94-65.2-1.23-9.89,1.89-23.46,4.63-31.78Z" style="fill:#ffb27d; fill-rule:evenodd;"/><path d="M433.42,737.78c-3.2,.99-7.17,2.06-10.62,2.18-6.98,.22-9.04-7.45-9.52-17.9-.42-9.09-7.03-23.44-13.81-29.27-.12,.16-.24,.33-.41,.49-6.29,7.09-6.08,16.43,3.86,22.2,11.62,6.72-1.1,31.82,7.27,32.89,9.4,1.19,24.72,3.31,29.85-3.16,4.89-6.12-1.15-6.61-6.62-7.41Z" style="fill:#284191; fill-rule:evenodd;"/><path d="M515.13,669.58c-2.71,2.42-6.12,5.27-9.57,7.04-6.97,3.59-13.42-2.09-19.78-11-5.54-7.78-11.58-19.11-21.76-20.9-.05,.21-.09,.39-.13,.59-2.42,9.24-5.7,19.33,7.68,19.55,15.56,.25,16.79,28.37,25.91,25.23,10.23-3.49,26.97-9.05,28.54-17.22,1.52-7.72-4.89-5.22-10.88-3.28Z" style="fill:#284191; fill-rule:evenodd;"/><path d="M400.66,690.67s-10.23,10.66-9.28,15.07c.94,4.42,4.07,15.59,4.6,24.21,.53,8.62,.98,18.49,.98,18.49,0,0,3.7,0,3.99-1.02,.29-1.05,2.3-35.03,2.3-35.03l-2.59-21.72Z" style="fill:#284191; fill-rule:evenodd;"/><path d="M464.02,644.72s-4.39,14.23-.94,17.66c3.44,3.4,4.19,11.23,9.56,18.52,5.38,7.27,11.45,15.68,11.45,15.68,0,0,3.7-1.77,3.41-2.81-.25-1.05-17.33-31.76-17.33-31.76l-6.15-17.29Z" style="fill:#284191; fill-rule:evenodd;"/><path d="M248.9,520.27s-10.31,42.23-1.68,63.27c4.39,10.65,10.92,11.91,37.77,11.25,26.08-.62,58.92-1.23,67.75-1.64,11-.62,23.12,11.82,23.12,11.82,0,0-7.69-31.14-2.47-56.27,5.26-25.13,13.72-26.84,13.72-26.84l-11.25-1.6h-126.97Z" style="fill:#4567c6; fill-rule:evenodd;"/><path d="M301.5,304.38s-6.2,40.24-7.31,56c-.58,7.93-1.35,14.31,3.62,19.63,0,0-12.4,1.21-16.63-2.24,0,0,.86,1.71,1.6,2.44,0,0-13.87,.5-19.62-3.84-8.66-5.87-2.92-122.89,38.84-113.29,0,0,38.47-3.26,35.43,34.51,.66,44.9,4.27,83.6,7.26,91.42-4.35,2.48-14.78-5.67-16.09-9.26-1.15-3.16-1.77-6.84-2.09-7.78,0,0,1.36,10.84,1.96,11.52,0,0-15.56-1.77-22.21-6.79-6.62-5.01-6.7-64.53-4.76-72.33Z" style="fill:#284191; fill-rule:evenodd;"/><path d="M285.7,333.45c.11-.46,.24-.89,.37-1.32-1.2-3.92-1.65-8.4-1.07-13.3-3.74-3.31-11.87-.5-18.76,1.62-3,27.71-3,55.78-1.32,57.85,3.49,4.33,11.86,3.84,11.86,3.84-.5-.76-.99-2.44-.99-2.44,2.56,3.45,10.07,2.24,10.07,2.24-3-5.31-2.51-11.7-2.17-19.65,.29-6.8,1.15-18.13,2.01-28.84Z" style="fill:#284191; fill-rule:evenodd;"/><path d="M341.33,382.92h-82.86c5.91-14.84,14.41-25.6,20.85-26.91,3.45-.9,9.28-15.03,9.2-35.05l1.56,2.01,26.04,5.15s-.62,8.19-.62,15.91c-.03,6.43,.34,12.96,1.77,13.74,1.89,.16,3.61,.51,3.61,.51,0,0,14.08,9.92,20.44,24.64Z" style="fill:#ffb27d; fill-rule:evenodd;"/><path d="M316.12,328.13s-.62,8.19-.62,15.91c-14.57-.41-22.25-13.69-25.41-21.06l26.04,5.15Z" style="fill:#f08261; fill-rule:evenodd;"/><path d="M286.47,314.54c0-21.45-4.47-35.82,17.54-37.12,22-1.27,26.27,6.92,28.04,14.08,1.07,4.43,1.07,21.68-2.06,33.03-7.59,27.75-43.48,3.96-43.52-10Z" style="fill:#ffb27d; fill-rule:evenodd;"/><path d="M413.67,446.07s11.5-9.38,15.65-9.44c4.1-.04,11.94-2.09,11.66-.76-.33,1.33-6.94,3.08-5.78,3.71,1.1,.62,10.71-1.97,13.42-.41,2.67,1.54,8.95,7.92,3.9,10.72-5.05,2.79-20.2,7.22-24.14,6.71-3.9-.51-12.81-1.13-12.81-1.13l-1.89-9.4Z" style="fill:#ffb27d; fill-rule:evenodd;"/><path d="M344.45,457.51c-.21,40.67,5.99,58.12,5.99,58.12,0,0-36.62,18.6-80.15,4.91-.5-.16-36.01-8.25-36.01-8.25,.74-1.66,7.23-29.07,7.92-30.57,9.2-19.71,16.19-28.37,17.26-34.43,2.04-11.33,2.04-23.04,1.06-34.08-2.67-29.26-10.55-53.52-10.55-53.52,11.87-2.71,22.95-7.43,35.27-12.07,2.87,3.53,11.54,7.22,19.05,7.06,8.66-.19,11.46-3.9,11.04-7.95,9.24,5.14,16.59,10,16.59,10,7.85,13.63,23.78,26.87,24.93,47.77,.29,5.15-12.4,51.88-12.4,53.01Z" style="fill:#dfedfa; fill-rule:evenodd;"/><path d="M283.19,349.6c4.68,2.77,9.11,4.79,13.1,6.02,4.84,1.5,9.16,1.87,12.69,1.15,3.77-.76,6.73-2.73,8.58-5.87,.53-.94,1.02-1.99,1.39-3.12l-3.48-1.06c-.25,.86-.62,1.62-1.03,2.34-1.32,2.22-3.41,3.64-6.16,4.19-2.96,.59-6.65,.25-10.92-1.09-3.74-1.15-7.89-3.04-12.32-5.67l-1.85,3.12Z" style="fill:#4f8ecc; fill-rule:evenodd;"/><path d="M283.52,521.97s-5.17,18.81-23.2,16.4c-36.05-5.6-30.54-6.28-26.32-20.3,11.58-38.66,14.45-92.98,21.19-124.41,1.89-8.81,14.66-11.66,15.11-16.94l14.95-28.97s22.3,49.97,23.48,62.57c1.2,12.61-25.21,111.64-25.21,111.64Z" style="fill:#61a0e0; fill-rule:evenodd;"/><path d="M270.95,447.43c-.82,20.41-7.97,55.2-36.62,70.5-.13,.06-.25,.1-.33,.14,11.58-38.64,11.42-75.74,18.14-107.17,15.44-3.2,19.22,25.29,18.81,36.52Z" style="fill:#4f8ecc; fill-rule:evenodd;"/><path d="M239.46,492.72s12.85-2.77,16.14,.9c3.32,3.67,5.18,9.51,1.88,11.54-3.32,2.07-12.89-3.58-16.3-1.29-2.51,1.62-3.24,5.75-5.75,4.31-2.46-1.44-5.05-10.92-5.05-10.92l9.08-4.54Z" style="fill:#ffb27d; fill-rule:evenodd;"/><path d="M285.24,347.76s-34.7,1.52-43.04,9.28c-8.33,7.74-58.26,67.59-59.08,83.27-.85,15.68,43.73,60.26,43.73,60.26,0,0,12.4-2.98,17.74-10.78,0,0-27.63-49.29-25.99-51.45,1.64-2.16,48.49-40.55,52.35-32.02,3.29,7.35,14.29-58.55,14.29-58.55Z" style="fill:#61a0e0; fill-rule:evenodd;"/><path d="M417.29,440.98s-39.67,13.22-44.59,12.12c-4.97-1.11-12.03-54.8-15.85-73.19-4.93-23.69-23.73-28.42-23.73-28.42l-17.78-4.76s20.41,50.4,20.98,60.61c.54,9.32,2.09,97.89,2.38,112.94h27.06c-1.93-2.38-4.31-9.81-5.82-30.59,14.04-2.4,59.25-25.31,59.25-25.31,7.01-11.01-1.89-23.38-1.89-23.38Z" style="fill:#61a0e0; fill-rule:evenodd;"/><path d="M321.62,280.42c18.31,10.72,12.57,18.02,17.29,27.78,0,0,5.5-18.87-3.08-29.26-9.11-11.04-14.21,1.48-14.21,1.48Z" style="fill:#284191; fill-rule:evenodd;"/><path d="M330.77,276.33c-2.42-1.13-4.11-.9-5.05,.72,.66,3.83,2.43,6.67,5.42,8.52-.98-1.68-1.1-4.74-.37-9.24Z" style="fill:#284191; fill-rule:evenodd;"/><path d="M303.59,268.96c3.2-.88,4.6-2.48,4.15-4.74-3.7-3.1-7.68-4.31-11.94-3.64,2.25,.76,4.88,3.57,7.8,8.37Z" style="fill:#284191; fill-rule:evenodd;"/><g><path d="M321.87,273.05s-10.14,27.06-25.7,31.06c-15.56,4.01-22.3-.16-22.3-.16,0,0,11.94-9.48,14.41-26.03,0,0,25.95-17.74,33.59-4.87Z" style="fill:#284191; fill-rule:evenodd;"/><path d="M283.72,310.39c-7.67,0-11.54-2.16-12.23-2.59l-5.46-3.36,5-4.05c.13-.08,10.59-8.68,12.78-23.16l.29-1.95,1.64-1.13c1.52-1.05,15.44-10.33,26.98-10.33,7.39,0,11.21,3.75,13.06,6.9l1.1,1.87-.74,2.05c-1.15,3-11.5,29.4-28.83,33.86-4.89,1.25-9.44,1.89-13.6,1.89Zm-1.02-9.1c3.2-.16,7.77-.43,12.32-1.58,9.77-2.51,18.15-17.74,21.59-25.83-.82-.58-2-.98-3.9-.98-6.53,0-15.73,4.91-20.29,7.74-1.81,9.1-6.07,16.07-9.73,20.65Z" style="fill:#284191;"/></g><path d="M284.21,302.26c3.66-3.75,6.9-4.49,9.73-2.2,1.49,7.45,.17,13.88-4.03,19.3,.66-3.71-1.23-9.44-5.7-17.1Z" style="fill:#284191; fill-rule:evenodd;"/><path d="M331.97,289.7c1.97-7.39,4.06-9.57,6.2-6.53,1.84,12.09,1.68,23.3-.42,33.63,0-6.47-1.93-15.5-5.78-27.1Z" style="fill:#284191; fill-rule:evenodd;"/><path d="M314.8,282.22c-2.63-7.22,4.93-6.77,8.41-5.5,8.42,8.87,14.7,18.15,18.85,27.84-6.45-5.56-27.96-15.97-27.27-22.34Z" style="fill:#284191; fill-rule:evenodd;"/><path d="M304.21,268.24c-1.23-.9-1.81-2.48-1.64-4.76,1.44-3.08,3-4.31,4.68-3.61-.91,.76-1.89,3.55-3.04,8.37Z" style="fill:#284191; fill-rule:evenodd;"/><path d="M307.57,356.15c1.98-.33,3.99,1.72,4.48,4.59,.49,2.88-.7,5.48-2.71,5.83-1.97,.35-3.99-1.7-4.47-4.6-.5-2.87,.74-5.48,2.7-5.83Z" style="fill:#4f8ecc; fill-rule:evenodd;"/><path d="M309.79,364.98c1.23-.21,2.46,1.06,2.8,2.83,.29,1.79-.46,3.39-1.69,3.6-1.24,.21-2.47-1.05-2.76-2.84-.32-1.77,.46-3.36,1.65-3.59Z" style="fill:#4f8ecc; fill-rule:evenodd;"/><path d="M310.98,370.5c1.07-.18,2.18,.94,2.42,2.48,.29,1.56-.37,2.98-1.44,3.16-1.06,.19-2.17-.92-2.41-2.48-.29-1.57,.37-2.98,1.43-3.16Z" style="fill:#4f8ecc; fill-rule:evenodd;"/><g><path d="M311.6,305.92c-8.09-1.44-7.01-1.25-12.93,2.87,1.84-4.11,5.46-5.73,9.68-5.2,1.97,.23,2.3,.13,3.24,2.33Z" style="fill:#125aa3; fill-rule:evenodd;"/><path d="M307.29,310.27c-.82,.14-1.64-.68-1.84-1.81-.17-1.13,.37-2.13,1.23-2.25,.82-.14,1.64,.67,1.81,1.81,.16,1.11-.37,2.13-1.2,2.26Z" style="fill:#125aa3; fill-rule:evenodd;"/><path d="M319.11,305.11c6.9-3.76,6-3.26,12.61-1.07-2.91-3.39-6.65-3.84-10.34-2.12-1.73,.82-2.06,.82-2.27,3.18Z" style="fill:#125aa3; fill-rule:evenodd;"/><path d="M324.41,308.34c.82-.02,1.52-.94,1.47-2.09,0-1.13-.73-2.05-1.55-2.03-.86,.02-1.57,.96-1.52,2.09,.03,1.15,.74,2.05,1.6,2.03Z" style="fill:#125aa3; fill-rule:evenodd;"/><path d="M316.12,310.43c.82,4.37,2.21,6.61,2.54,8.33,.42,2.08-.08,2.4-2.13,2.71-1.19,.19-1.81,.29-1.81,.29" style="fill:none; fill-rule:evenodd;"/><path d="M309.59,327.37c7.72,.29,13.47-.82,11.74,1.11-1.81,2.24-6.93,.68-11.74-1.11Z" style="fill:#fff; fill-rule:evenodd;"/><path d="M324.05,304.25c-.17,.02-.21,.39-.17,.82,.08,.43,.25,.74,.41,.72,.13-.02,.21-.39,.17-.8-.09-.43-.25-.76-.41-.74Z" style="fill:#a4d0fc; fill-rule:evenodd;"/><path d="M307.25,306.4c-.17,.02-.26,.37-.17,.8,.08,.41,.25,.76,.37,.72,.17-.02,.25-.39,.17-.8-.05-.43-.25-.76-.37-.72Z" style="fill:#a4d0fc; fill-rule:evenodd;"/></g><path d="M323.67,276.1s-7.26,28.33-26.89,37.41c0,0,19.63-17.41,21.31-36.11,1.69-18.7,5.58-1.29,5.58-1.29Z" style="fill:#284191; fill-rule:evenodd;"/></g><path d="M437.12,313.74l-7.8,4.54c-2.63,1.52-3.49,4.91-1.97,7.53l1.73,2.96c2.01,3.47,1.1,5.05,.5,5.62-1.73,1.54-3.32,3.22-4.93,4.89-.5,.52-2.01,2.19-5.95-.1l-2.72-1.58c-2.62-1.52-5.99-.64-7.55,1.99l-4.51,7.78c-1.52,2.63-.62,6.02,2.01,7.53l2.67,1.56c3.69,2.16,3.61,3.27,3.16,4.85-.66,2.15-1.35,4.31-1.81,6.55-.41,1.99-.25,3.41-5.3,3.41h-3.08c-3.04,0-5.5,2.48-5.5,5.52v9c0,3.04,2.46,5.5,5.5,5.5h3.08c5.05,0,4.89,1.43,5.3,3.43,.46,2.22,1.15,4.37,1.81,6.53,.46,1.58,.54,2.68-3.16,4.84l-2.67,1.56c-2.64,1.54-3.53,4.91-2.01,7.53l4.51,7.78c1.56,2.62,4.93,3.51,7.55,1.99l2.72-1.56c3.94-2.3,5.46-.64,5.95-.12,1.61,1.66,3.2,3.35,4.93,4.89,.61,.58,1.52,2.15-.5,5.63l-1.73,2.96c-1.52,2.62-.66,6.01,1.97,7.53l7.8,4.54c2.63,1.52,6,.63,7.52-2.01l1.73-2.94c2.04-3.53,4.06-3.39,4.92-3.12,2.51,.8,4.76,1.29,7.35,1.97,.94,.24,2.55,.92,2.55,5.13v3.16c0,3.04,2.47,5.52,5.5,5.52h8.99c3.04,0,5.5-2.48,5.5-5.52v-3.16c0-4.21,1.6-4.89,2.54-5.13,2.55-.67,4.85-1.17,7.35-1.97,.86-.27,2.88-.42,4.93,3.12l1.69,2.94c1.56,2.64,4.92,3.53,7.56,2.01l7.8-4.54c2.59-1.52,3.49-4.91,1.96-7.53l-1.73-2.96c-2-3.48-1.14-5.05-.49-5.63,1.73-1.54,3.33-3.22,4.93-4.89,.5-.51,1.96-2.18,5.95,.12l2.71,1.56c2.59,1.52,5.99,.63,7.51-1.99l4.52-7.78c1.57-2.63,.66-6-1.97-7.53l-2.67-1.56c-3.74-2.16-3.62-3.26-3.16-4.84,.66-2.16,1.31-4.31,1.81-6.53,.41-1.99,.24-3.43,5.26-3.43h3.12c3.04,0,5.5-2.46,5.5-5.5v-9c0-3.04-2.47-5.52-5.5-5.52h-3.12c-5.02,0-4.85-1.41-5.26-3.41-.5-2.24-1.15-4.39-1.81-6.55-.46-1.58-.58-2.69,3.16-4.85l2.67-1.56c2.62-1.52,3.53-4.91,1.97-7.53l-4.52-7.78c-1.52-2.63-4.92-3.51-7.51-1.99l-2.71,1.58c-3.99,2.3-5.46,.62-5.95,.1-1.6-1.67-3.2-3.35-4.93-4.89-.66-.58-1.52-2.16,.49-5.62l1.73-2.96c1.53-2.63,.62-6.02-1.96-7.53l-7.8-4.54c-2.64-1.52-6-.62-7.56,2.01l-1.69,2.94c-2.05,3.53-4.07,3.41-4.93,3.12-2.5-.78-4.8-1.29-7.35-1.97-.94-.25-2.54-.93-2.54-5.13v-3.16c0-3.04-2.46-5.5-5.5-5.5h-8.99c-3.04,0-5.5,2.46-5.5,5.5v3.16c0,4.21-1.61,4.89-2.55,5.13-2.59,.68-4.84,1.19-7.35,1.97-.86,.29-2.88,.41-4.92-3.12l-1.73-2.94c-1.52-2.62-4.89-3.53-7.52-2.01h0Zm34.04,55.65c6.57,0,11.9,5.32,11.9,11.87s-5.34,11.88-11.9,11.88-11.87-5.31-11.87-11.88,5.3-11.87,11.87-11.87h0Zm-37.25,11.87c0-1.39,1.15-2.53,2.59-2.53,1.36,0,2.51,1.13,2.51,2.53,0,8.89,3.61,16.94,9.44,22.75,5.78,5.81,13.84,9.42,22.71,9.42,1.44,0,2.54,1.13,2.54,2.55s-1.1,2.54-2.54,2.54c-10.27,0-19.59-4.16-26.32-10.9-6.74-6.75-10.93-16.05-10.93-26.36h0Zm74.03-5.97c.21,1.37-.73,2.67-2.12,2.89-1.36,.22-2.67-.74-2.88-2.09-1.11-6.75-4.31-12.79-8.92-17.43-4.59-4.66-10.59-7.9-17.32-9.07-1.4-.25-2.35-1.54-2.09-2.94,.24-1.37,1.56-2.3,2.96-2.07,7.8,1.35,14.73,5.11,20.07,10.49,5.3,5.38,9,12.4,10.31,20.23h0Zm-36.78-38.15c24.38,0,44.13,19.75,44.13,44.12s-19.75,44.14-44.13,44.14-44.1-19.75-44.1-44.14,19.75-44.12,44.1-44.12Z" style="fill:#fc9774; fill-rule:evenodd;"/><path d="M675.8,311.09l-14.44,8.4c-4.89,2.84-6.54,9.14-3.71,14.01l3.21,5.48c3.74,6.46,2.09,9.4,.94,10.45-3.24,2.87-6.2,5.99-9.2,9.09-.86,.93-3.65,4.05-11-.22l-5.05-2.94c-4.85-2.81-11.17-1.15-14.01,3.71l-8.41,14.46c-2.79,4.87-1.15,11.15,3.73,13.98l4.97,2.9c6.9,4,6.74,6.08,5.83,8.99-1.18,4-2.46,8.01-3.36,12.16-.74,3.69-.41,6.34-9.77,6.34h-5.75c-5.62,0-10.23,4.59-10.23,10.22v16.73c0,5.62,4.6,10.22,10.23,10.22h5.75c9.36,0,9.03,2.65,9.77,6.34,.9,4.15,2.18,8.15,3.36,12.16,.91,2.91,1.07,4.97-5.83,8.97l-4.97,2.89c-4.88,2.85-6.52,9.16-3.73,14.02l8.41,14.43c2.84,4.89,9.16,6.53,14.01,3.72l5.05-2.94c7.35-4.27,10.14-1.15,11-.22,3,3.1,5.96,6.22,9.2,9.09,1.15,1.05,2.8,3.99-.94,10.45l-3.21,5.48c-2.83,4.87-1.18,11.17,3.71,14l14.44,8.4c4.85,2.83,11.17,1.17,14-3.71l3.16-5.46c3.82-6.57,7.61-6.3,9.16-5.79,4.65,1.46,8.87,2.4,13.64,3.65,1.73,.45,4.68,1.7,4.68,9.52v5.86c0,5.64,4.59,10.26,10.27,10.26h16.71c5.62,0,10.22-4.62,10.22-10.26v-5.86c0-7.82,3-9.07,4.72-9.52,4.76-1.25,9-2.2,13.63-3.65,1.57-.52,5.34-.78,9.16,5.79l3.16,5.46c2.84,4.88,9.12,6.55,14,3.71l14.46-8.4c4.84-2.84,6.53-9.14,3.69-14l-3.2-5.48c-3.74-6.46-2.09-9.4-.95-10.45,3.2-2.87,6.2-5.99,9.2-9.09,.86-.93,3.66-4.04,11.01,.22l5.01,2.94c4.88,2.81,11.16,1.17,14.04-3.72l8.38-14.43c2.84-4.87,1.14-11.17-3.7-14.02l-5-2.89c-6.9-4.01-6.7-6.06-5.83-8.97,1.18-4.01,2.5-8.01,3.36-12.16,.77-3.69,.41-6.34,9.77-6.34h5.75c5.66,0,10.26-4.6,10.26-10.22v-16.73c0-5.63-4.59-10.22-10.26-10.22h-5.75c-9.36,0-9-2.65-9.77-6.34-.86-4.15-2.18-8.15-3.36-12.16-.86-2.92-1.07-4.99,5.83-8.99l5-2.9c4.84-2.83,6.54-9.11,3.7-13.98l-8.38-14.46c-2.88-4.87-9.16-6.53-14.04-3.71l-5.01,2.94c-7.35,4.27-10.15,1.15-11.01,.22-3-3.1-5.99-6.22-9.2-9.09-1.14-1.05-2.79-3.99,.95-10.45l3.2-5.48c2.84-4.87,1.15-11.17-3.69-14.01l-14.46-8.4c-4.88-2.83-11.16-1.17-14,3.7l-3.16,5.48c-3.82,6.57-7.59,6.3-9.16,5.79-4.63-1.46-8.87-2.4-13.63-3.65-1.73-.45-4.72-1.7-4.72-9.52v-5.87c0-5.62-4.59-10.23-10.22-10.23h-16.71c-5.67,0-10.27,4.6-10.27,10.23v5.87c0,7.82-2.96,9.07-4.68,9.52-4.77,1.25-8.99,2.2-13.64,3.65-1.55,.52-5.34,.78-9.16-5.79l-3.16-5.48c-2.84-4.87-9.16-6.53-14-3.7h0Zm63.24,103.33c12.2,0,22.09,9.88,22.09,22.07s-9.89,22.05-22.09,22.05-22.05-9.88-22.05-22.05,9.9-22.07,22.05-22.07h0Zm-69.15,22.07c0-2.63,2.14-4.72,4.73-4.72s4.71,2.09,4.71,4.72c0,16.48,6.7,31.41,17.5,42.21,10.8,10.8,25.74,17.49,42.21,17.49,2.63,0,4.72,2.11,4.72,4.72s-2.09,4.72-4.72,4.72c-19.09,0-36.38-7.74-48.86-20.24-12.52-12.53-20.29-29.81-20.29-48.9h0Zm137.38-11.15c.42,2.57-1.31,4.97-3.9,5.38-2.54,.41-4.97-1.33-5.38-3.9-2.05-12.5-7.96-23.71-16.51-32.35-8.54-8.62-19.71-14.66-32.19-16.82-2.59-.45-4.31-2.87-3.87-5.46,.46-2.56,2.88-4.29,5.42-3.84,14.49,2.48,27.43,9.48,37.32,19.49,9.91,9.99,16.76,22.99,19.09,37.51h0Zm-68.24-70.81c45.24,0,81.95,36.69,81.95,81.95s-36.71,81.93-81.95,81.93-81.91-36.69-81.91-81.93,36.67-81.95,81.91-81.95Z" style="fill:#fc9774; fill-rule:evenodd;"/><path d="M915.26,536.96l-10.79,6.26c-3.66,2.14-4.89,6.83-2.8,10.45l2.42,4.11c2.79,4.82,1.56,7.02,.69,7.78-2.41,2.15-4.63,4.49-6.85,6.82-.66,.68-2.75,3.02-8.21-.16l-3.77-2.2c-3.61-2.12-8.34-.86-10.43,2.77l-6.28,10.78c-2.14,3.64-.86,8.33,2.75,10.45l3.74,2.17c5.13,2.98,4.97,4.52,4.35,6.69-.89,3-1.84,5.98-2.5,9.08-.62,2.77-.33,4.74-7.31,4.74h-4.31c-4.19,0-7.64,3.44-7.64,7.64v12.49c0,4.21,3.45,7.64,7.64,7.64h4.31c6.98,0,6.7,1.96,7.31,4.74,.66,3.08,1.61,6.1,2.5,9.08,.62,2.2,.78,3.72-4.35,6.71l-3.74,2.16c-3.61,2.12-4.89,6.81-2.75,10.45l6.28,10.78c2.09,3.64,6.82,4.89,10.43,2.77l3.77-2.17c5.46-3.18,7.56-.86,8.21-.17,2.22,2.3,4.44,4.64,6.85,6.77,.86,.81,2.09,2.98-.69,7.81l-2.42,4.08c-2.09,3.63-.86,8.36,2.8,10.45l10.79,6.28c3.62,2.12,8.29,.89,10.43-2.75l2.38-4.11c2.84-4.88,5.62-4.71,6.82-4.31,3.45,1.09,6.65,1.78,10.18,2.72,1.28,.33,3.53,1.27,3.53,7.1v4.38c0,4.2,3.41,7.65,7.64,7.65h12.48c4.19,0,7.64-3.45,7.64-7.65v-4.38c0-5.83,2.22-6.77,3.49-7.1,3.57-.94,6.74-1.64,10.19-2.72,1.19-.4,3.98-.58,6.86,4.31l2.34,4.11c2.13,3.63,6.81,4.87,10.47,2.75l10.75-6.28c3.66-2.09,4.93-6.82,2.8-10.45l-2.38-4.08c-2.8-4.83-1.61-7-.7-7.81,2.38-2.13,4.6-4.47,6.85-6.77,.66-.69,2.72-3.01,8.21,.17l3.74,2.17c3.66,2.12,8.33,.86,10.47-2.77l6.29-10.78c2.09-3.64,.85-8.33-2.79-10.45l-3.71-2.16c-5.13-3-5-4.51-4.39-6.71,.9-2.97,1.89-5.99,2.55-9.08,.58-2.77,.32-4.74,7.3-4.74h4.27c4.23,0,7.63-3.43,7.63-7.64v-12.49c0-4.2-3.4-7.64-7.63-7.64h-4.27c-6.98,0-6.73-1.97-7.3-4.74-.66-3.1-1.65-6.08-2.55-9.08-.62-2.17-.74-3.71,4.39-6.69l3.71-2.17c3.64-2.12,4.88-6.81,2.79-10.45l-6.29-10.78c-2.13-3.64-6.81-4.89-10.47-2.77l-3.74,2.2c-5.5,3.18-7.56,.84-8.21,.16-2.25-2.32-4.47-4.66-6.85-6.82-.9-.76-2.09-2.96,.7-7.78l2.38-4.11c2.13-3.62,.86-8.31-2.8-10.45l-10.75-6.26c-3.66-2.12-8.34-.86-10.47,2.77l-2.34,4.08c-2.88,4.89-5.66,4.7-6.86,4.31-3.45-1.09-6.62-1.79-10.19-2.71-1.27-.35-3.49-1.27-3.49-7.12v-4.37c0-4.23-3.45-7.66-7.64-7.66h-12.48c-4.23,0-7.64,3.43-7.64,7.66v4.37c0,5.85-2.25,6.77-3.53,7.12-3.53,.92-6.73,1.62-10.18,2.71-1.2,.39-3.99,.58-6.82-4.31l-2.38-4.08c-2.13-3.64-6.81-4.89-10.43-2.77h0Zm47.22,77.15c9.07,0,16.46,7.37,16.46,16.47s-7.39,16.46-16.46,16.46-16.51-7.37-16.51-16.46,7.38-16.47,16.51-16.47h0Zm-51.66,16.47c0-1.93,1.6-3.53,3.53-3.53s3.53,1.6,3.53,3.53c0,12.32,4.97,23.47,13.05,31.53,8.05,8.07,19.22,13.06,31.54,13.06,1.93,0,3.48,1.58,3.48,3.51s-1.56,3.53-3.48,3.53c-14.29,0-27.19-5.79-36.54-15.13-9.33-9.34-15.12-22.25-15.12-36.49h0Zm102.61-8.32c.29,1.91-1.03,3.72-2.92,4-1.92,.33-3.74-.99-4.03-2.89-1.52-9.35-5.94-17.72-12.31-24.17-6.41-6.45-14.74-10.94-24.06-12.56-1.89-.33-3.2-2.14-2.87-4.06,.32-1.91,2.12-3.2,4.06-2.88,10.8,1.87,20.45,7.08,27.83,14.56,7.4,7.45,12.53,17.16,14.29,28h0Zm-50.95-52.87c33.75,0,61.17,27.39,61.17,61.18s-27.43,61.17-61.17,61.17-61.18-27.39-61.18-61.17,27.39-61.18,61.18-61.18Z" style="fill:#fc9774; fill-rule:evenodd;"/><g><path d="M1098.84,762.52c20.57,7.45,33.75,8.17,39.54,2.16,5.91-1.36,9.78-6.62,11.58-15.73,6.12-13.88,.9-36.05-7.72-25.06-7.11-18.21-35.68-7.66-51.79-17.76-9.76,6.38-6.07,22.19,.95,27.51-.25,18.18,.74,27.86,7.43,28.89Z" style="fill:#284191; fill-rule:evenodd;"/><path d="M1146.88,725.88c-2.22-1.73-2.92-3.6-2.13-5.62,3.41-1.91,6.66-1.97,9.73-.18-1.89,.1-4.39,2.05-7.6,5.81Z" style="fill:#284191; fill-rule:evenodd;"/><path d="M1142.66,721.09c1.56,1.77,3.04,2.16,4.35,1.17,.82-3.35,.32-6.28-1.44-8.81,.21,1.71-.74,4.25-2.92,7.64Z" style="fill:#284191; fill-rule:evenodd;"/><path d="M1131.77,728.69c3.9-1.52,6.82-1.01,8.78,1.54-.11,5.81-3.16,17.49-7.8,20.04-.78-.55-.61-12.86-.98-21.58Z" style="fill:#284191; fill-rule:evenodd;"/><path d="M1130.34,723.08c6.53,3.19,8.7,6.04,6.49,8.6-9.9,1.46-19.38,.39-28.42-3.2,5.46,.51,12.77-1.29,21.93-5.4Z" style="fill:#284191; fill-rule:evenodd;"/><path d="M1091.9,732.87c7.4-7.49,21.39-8.4,40.65-1.35,12.24-3.02,14.95-8.64,9.82-17.82-7.27-12.95-23.03-2.71-42.33-14.91,.74,9.47-28,17.58-8.13,34.08Z" style="fill:#284191; fill-rule:evenodd;"/><path d="M1138.26,739.26c-5.14-1.11-4.64,9.38-4.27,14.59,.78,10.25,12.32-12.91,4.27-14.59Z" style="fill:#ffb27d; fill-rule:evenodd;"/><path d="M1165.44,1211.96c9.61-3.39,10.39-8.33,15.56-10.74,5.22-2.45,5.82-6.78,.74-11.47-3.79,3-8.47,6.69-10.93,4.75-1.64-1.32-7.27-1.24-8.37,.67-4.89,11.35-11.66,7.77-13.01,12.91-.12,6.89,11.62,5.45,16.01,3.88Z" style="fill:#284191; fill-rule:evenodd;"/><path d="M1082.95,1212.31c17.74-.29,31-.5,37.12-2.42,6.57-2.1,5.22-6.12,1.44-12.57-16.71,7.68-12.27-1.58-20.08-.41-5.5,4.41-13.64,7.39-24.43,8.91-4.56,3.35-2.67,6.34,5.95,6.49Z" style="fill:#284191; fill-rule:evenodd;"/><path d="M1144.21,781.88c-2.83,.18-7.3-.35-8.08-1.36-3-3.84-5.1-7.81-5.88-10.32,.58-1.69,1.24-3.8,1.85-6.37,10.92-7.41,12.4-12.89,4.47-16.44-1.6,.9-3.57,3.65-5.95,8.27-1.89-.08-3.33-1.04-4.31-2.89,2.25-7.8,3.73-14.14,4.43-19.01-5.38-8.01-17.98-9.14-34.61-6.98-.78,4.43-1.44,9.12-1.93,14.09-2.05,1.91-8.08,33.85,12.4,35.15,.13,2.34-.12,5.22-.24,5.52-.25,.52-1.11,1.01-2.26,1.42h0c-.33,10.88,13.05,10.51,40.11-1.07Z" style="fill:#ffb27d; fill-rule:evenodd;"/><path d="M1096.13,726.78c16.63-2.16,29.23-1.03,34.61,6.98-.7,4.87-2.17,11.21-4.43,19.01,.97,1.85,2.41,2.81,4.31,2.89,2.38-4.62,4.35-7.37,5.95-8.27,7.93,3.56,6.45,9.04-4.47,16.44-.62,2.56-1.28,4.68-1.85,6.37,9.82-2.22,18.03-11.01,19.22-14.8,11.41-22.56-1.31-32.11-8.17-35.58-3-22.35-35.47-2.59-51.73-13.39-6.49,8.96,1.52,20.15,6.57,20.35Z" style="fill:#284191; fill-rule:evenodd;"/><path d="M996.19,821.46c8.21,35.3,22.71,62.68,43.41,82.16,7.47-2.28,14.12-7.37,19.87-15.32-.29,25.54,.34,50.94,1.93,76.23,15.12,7.17,35.19,6.7,60.19-1.39l10.15-12.5c2.62-.52,8.53,2.38,11.38,6.77,23.77-18.15,39.79-37.64,49.23-56.99-2.55-41.62-8.18-74.44-16.92-98.51-4.43-6.79-14.83-13.49-31.21-20.04-27.06,11.59-40.44,11.95-40.11,1.07-7.96,2.61-18.52,7.25-31.69,13.88-10.97,8.33-20.33,30.93-28.05,67.81-12.57-15.74-25.62-32.45-39.09-50.09-3.04,.86-6.03,3.16-9.08,6.92h0Zm141.04,117.91c-7.88-25.91-3.53-57.88,13.02-95.9,4.19,18.77,8.7,37.22,13.55,55.39-5.62,2.67-14.49,16.18-26.57,40.51Z" style="fill:#f57a44; fill-rule:evenodd;"/><path d="M1140.15,973.12c-3.82-.29-10.02-3.62-18.57-9.98-25.01,8.09-45.08,8.56-60.19,1.39-2.71,42.57,7.77,87.17,21.03,136.9,13.01,21.84,12.43,37.2,19.37,87.58,3.86,2.73,10.23,2.34,19.09-1.21,2.79-42.95,.86-71.38-10.31-87.42,1.77-14.41-2.79-49.8-3-72.02,8.08,18.06,13.67,42.5,24.22,67.15,12.85,30.02,21.8,62.15,28.62,91.46,7.14,1.4,13.88,.58,20.17-2.47-7.19-48.17-15.2-81.33-23.98-99.48,.37-47.34-4.15-89.9-13.5-127.61-1.73,4.45-2.72,9.69-2.96,15.71Z" style="fill:#4567c6; fill-rule:evenodd;"/><path d="M1121.59,963.14c8.55,6.36,14.75,9.69,18.57,9.98,.24-6.02,1.23-11.26,2.96-15.71-2.84-4.39-8.76-7.29-11.38-6.77l-10.15,12.5Z" style="fill:#ffb27d; fill-rule:evenodd;"/><path d="M1059.46,888.31c.82-24.77,2.84-45.1,6-60.95-8.05,33.67-15.81,56-23.32,67.03-4.76-.17-10.8-2.98-18.07-8.46,4.73,6.49,9.9,12.38,15.52,17.7,7.47-2.28,14.12-7.37,19.87-15.32Z" style="fill:#f06a30; fill-rule:evenodd;"/><path d="M1131.73,950.64c1.47-3.62,3.28-7.35,5.5-11.27-7.88-25.91-3.53-57.88,13.02-95.9-24.1,34.28-30.92,70.83-20.49,109.61l1.97-2.44Z" style="fill:#f06a30; fill-rule:evenodd;"/><path d="M1117.53,773.71c-2.67,1.32-6.33,2.08-10.93,2.3,.08,1.56,0,3.39-.12,4.5,4.68-.9,8.33-3.16,11.05-6.8Z" style="fill:#f08261; fill-rule:evenodd;"/><path d="M1119.83,1198.06c-.91-2.91-1.24-6.07-.99-9.48-6.77,2.44-11.95,2.87-15.51,1.27,.16,2.52-.09,4.82-.86,6.97,6.15-.22,3.36,7.23,17.37,1.23h0Zm44.71-4.14c2.14-.58,5.13-.34,6.28,.58,2.22,1.74,6.17-1.03,9.7-3.78-.62-1.67-1.12-3.49-1.53-5.46-4.23,1.77-8.62,2.55-13.26,2.36,.09,2.53-.33,4.63-1.19,6.31Z" style="fill:#ffb27d; fill-rule:evenodd;"/><path d="M1140.44,979.18c-.29-2.18-.38-4.21-.29-6.06-3.82-.29-10.02-3.62-18.57-9.98-2.01,.66-4.03,1.25-5.99,1.82,6.04,6.25,14.28,10.98,24.85,14.21Z" style="fill:#3b5bb3; fill-rule:evenodd;"/><path d="M996.19,821.46c-.53-1.25-2.54-5.17-4.55-10.08-4.92-2.55-8.87-8.09-11.82-16.67,1.73-5.73,5.5-9.32,11.17-10.78,1.93,7.1,4.81,12.34,8.63,15.67-.95-7.41,.28-9.73,3.64-6.97-.45,.95-.45,2.14-.03,3.6,2.3,3.74,2.09,8-.62,12.79,1.03,2.18,2.18,4.35,2.67,5.52-3.08,.99-5.94,3.16-9.08,6.92Z" style="fill:#ffb27d; fill-rule:evenodd;"/><g><path d="M977.27,764.88l-10.56,50.63c-.41,1.79,.78,3.56,2.56,3.92l21.84,4.58c.98,.21,2.01-.06,2.75-.63h0c.58-.48,1.02-1.15,1.19-1.96l10.59-50.63c.37-1.81-.78-3.55-2.59-3.94l-21.84-4.56c-1.77-.37-3.53,.78-3.94,2.59Z" style="fill:#fff; fill-rule:evenodd;"/><path d="M993.73,823.31c-.74,.57-1.68,.77-2.59,.59l-21.84-4.58c-1.73-.34-2.88-2.07-2.5-3.82l10.59-50.6c.37-1.75,2.05-2.85,3.82-2.5l21.84,4.55c1.73,.37,2.84,2.09,2.47,3.83l-10.59,50.61c-.13,.76-.54,1.41-1.15,1.89l-.05,.02h0Zm-24.46-3.76l21.79,4.55c1.03,.21,2.05-.02,2.84-.66l.04-.02c.61-.49,1.07-1.19,1.23-1.99l10.59-50.63c.37-1.85-.82-3.68-2.67-4.07l-21.84-4.58c-1.85-.37-3.69,.82-4.07,2.69l-10.59,50.6c-.41,1.87,.82,3.7,2.68,4.09Z" style="fill:#66142e; fill-rule:evenodd;"/><path d="M1002.93,767.49c1.44,.3,2.38,1.74,2.09,3.18l-10.59,50.63c-.34,1.44-1.73,2.38-3.2,2.08l-21.85-4.59c-1.43-.3-2.33-1.73-2.04-3.16l10.59-50.63c.29-1.44,1.73-2.38,3.16-2.08l21.84,4.56h0Zm-33.79,52.59l21.84,4.56c2.13,.45,4.27-.93,4.72-3.08l10.55-50.63c.5-2.15-.9-4.27-3.08-4.71l-21.79-4.56c-2.18-.46-4.27,.92-4.73,3.08l-10.59,50.63c-.45,2.16,.94,4.27,3.08,4.72Z" style="fill:#4f8ecc; fill-rule:evenodd;"/><path d="M969.63,817.74c4.06,.85,12.52,2.59,14.16,2.98-.2-1.07-4.11-9.73-4.11-9.73l-7.09-1.48c-1.03-.23-1.65-1.19-1.44-2.2l7.39-35.27c0-.1,.04-.2,.08-.3v-.02h0s.04-.08,.04-.1h-.37l.13-.18c.41-.55,1.02-.86,1.68-.84,.13,0,.21-.02,.29,0,.16-2.16,.37-4.35,.62-6.57l-.12-.02c-.86-.18-1.73,.37-1.89,1.23l-10.59,50.63c-.17,.84,.37,1.7,1.23,1.89Z" style="fill:#d2e5f7; fill-rule:evenodd;"/><path d="M994.8,809.08l-5.21,3.27c-.18,.08-.29,.04-.38-.09l-2.5-4-.26-.39-1.55-2.53c-.09-.14-.05-.3,.08-.39l3.77-2.33c.09-.06,.29-.05,.37,.1l1.44,2.3c.09,.13,.26,.17,.34,.1l1.19-.74c.12-.08,.28-.04,.37,.09l2.47,4c.03,.06,.08,.14,.03,.21l-.03,.24c0,.06-.05,.13-.13,.17Z" style="fill:#fff; fill-rule:evenodd;"/><path d="M977.27,801.01c-.26,2.69,1.31,6.12,4.84,10.43,.04,.05,.08,.09,.16,.09l1.15,.25s.05,.02,.08,.02c.26,.13,.5-.18,.29-.41-3.28-4.07-5.46-7.95-5.21-10.23,.08-.82,.37-1.54,.9-2.13,.12-.17,.29-.31,.45-.46,.08-.08,.12-.25,0-.37l-.45-.6c-.09-.12-.29-.14-.41-.04-.66,.58-1.15,1.24-1.44,1.96-.21,.46-.29,.98-.37,1.49Z" style="fill:#fff; fill-rule:evenodd;"/><path d="M1000.09,775.25c.7,.14,1.15,.82,.98,1.52l-7.39,35.27c-.12,.68-.82,1.13-1.52,.98l-19.5-4.08c-.66-.12-1.11-.82-.99-1.5l7.4-35.27c.12-.7,.81-1.15,1.52-1.01l19.5,4.08h0Zm-27.63,34.82l19.51,4.07c1.26,.26,2.58-.58,2.83-1.87l7.39-35.27c.29-1.29-.58-2.56-1.89-2.85l-19.46-4.07c-1.31-.29-2.58,.56-2.87,1.85l-7.35,35.29c-.29,1.29,.54,2.56,1.85,2.85Z" style="fill:#4f8ecc; fill-rule:evenodd;"/><path d="M988.76,769.05l4.68,1.01c.25,.04,.5-.1,.54-.35,.04-.22-.12-.45-.33-.51l-4.72-.98c-.25-.04-.46,.12-.54,.33-.04,.25,.13,.47,.37,.51Z" style="fill:#4f8ecc; fill-rule:evenodd;"/><path d="M990.65,767.26l1.81,.38c.17,.04,.33-.09,.38-.25,.03-.18-.09-.35-.26-.39l-1.81-.39c-.16-.02-.37,.08-.37,.27-.04,.16,.04,.34,.25,.38Z" style="fill:#4f8ecc; fill-rule:evenodd;"/><path d="M984.86,767.79c-.12,.5,.21,.95,.7,1.07,.45,.08,.89-.22,1.02-.7,.08-.48-.21-.95-.7-1.05-.45-.1-.94,.21-1.02,.68Z" style="fill:#4f8ecc; fill-rule:evenodd;"/><path d="M981.41,819.43l.42-.08c1.1-.22,1.93-1.09,2.17-2.16,.29-1.52-.66-3-2.17-3.31-.82-.16-1.69,.04-2.38,.6l-.33,.29,.09-.02c.61-.72,1.64-1.07,2.63-.86,1.52,.31,2.46,1.79,2.17,3.31-.29,1.23-1.31,2.13-2.54,2.22l-.05,.02Z" style="fill:#d1b8c0; fill-rule:evenodd;"/></g><path d="M999.61,799.6c-2.35-5.71,.28-9.73,3.64-6.97-.45,.95-.45,2.14-.03,3.6,1.44,2.36,1.89,4.95,1.35,7.74l-4.96-4.37Z" style="fill:#ffb27d; fill-rule:evenodd;"/><path d="M1098.51,721.26c-2.54,1.95-3.32,4.07-2.43,6.36,3.82,2.16,7.53,2.22,10.97,.21-2.09-.12-4.97-2.3-8.54-6.57Z" style="fill:#284191; fill-rule:evenodd;"/><path d="M1102.62,783.45c.13,1.99,.53,3.32,1.27,4.74v.02c1.03,1.99,2.59,3.43,4.68,4.31,1.97,.84,4.43,1.15,7.35,.95,6.86-.5,18.14-4.3,30.59-10.66l-3.66-1.44c-12.11,6.16-20.69,8.62-27.13,9.09-2.47,.17-4.44-.08-6-.72-1.4-.59-2.47-1.56-3.12-2.91h0c-.58-1.07-.94-2.98-1.02-4.56l-2.96,1.17Z" style="fill:#f06a30; fill-rule:evenodd;"/><path d="M1110.71,802.62c3.08,0,5.62-2.08,5.62-4.64s-2.54-4.64-5.62-4.64-5.67,2.09-5.67,4.64,2.55,4.64,5.67,4.64Z" style="fill:#f06a30; fill-rule:evenodd;"/><path d="M1109.11,803.28c-2.09-.31-4.03,.86-4.23,2.59-.24,1.7,1.24,3.34,3.37,3.63,2.05,.29,3.95-.86,4.19-2.59,.25-1.72-1.23-3.34-3.32-3.63Z" style="fill:#f06a30; fill-rule:evenodd;"/><g><g><path d="M1116.25,740.29c1.36,0,2.43,1.07,2.43,2.42s-1.07,2.42-2.43,2.42-2.42-1.09-2.42-2.42,1.06-2.42,2.42-2.42Z" style="fill:#bbdbfa; fill-rule:evenodd;"/><path d="M1116.25,745.15c1.36,0,2.43-1.11,2.43-2.45s-1.07-2.44-2.43-2.44c-.53,0-1.07,.18-1.52,.52l.21-.02c.45,0,.78,.35,.78,.8,0,.42-.33,.78-.78,.78s-.78-.37-.78-.78v-.1c-.21,.38-.33,.8-.33,1.25,0,1.33,1.06,2.45,2.42,2.45Z" style="fill:#125aa3; fill-rule:evenodd;"/></g><path d="M1113.74,738.4s-.08,.06-.16,.12c.08-.22,.41-.5,.54-.66-.12,.08-.21,.1-.33,.22-.08,.1-.16,.25-.25,.39,0-.17,.09-.29,.12-.43-.08,.1-.16,.3-.21,.45,.05-.47,.09-.45,.29-.9-.2,.13-.4,.56-.45,.81-.04-.1-.04-.25,0-.39-.13,.16-.13,.25-.16,.41l-.08-.18c0,.1,.03,.14,.03,.22-.24-.2-.58-.86-.49-1.19,0,.14,.08,.42,.17,.49,0-.22-.09-.49,0-.76,.03,.18,0,.41,.03,.59,0,.21,.08,.43,.17,.54-.04-.39-.12-.72,.04-1.15v.1c-.04,.21-.08,.43-.04,.64,.09-.35,.09-.7,.41-.95-.08,.14-.12,.23-.21,.42,.18-.14,.25-.47,.54-.47-.13,.12-.26,.2-.42,.39-.13,.16-.29,.41-.21,.59,.21-.64,.66-.97,1.11-1.02-.12,.04-.54,.29-.62,.43v.04c.05,.18,.05-.17,0,.04-.08,.06-.16,.18-.24,.3-.05,.06-.09,.13-.13,.23-.05,.02-.05,.1-.05,.14t-.03,.06l.03,.05c.18-.43,.33-.66,.66-.89,.2-.12,.65-.37,.9-.37h0l-.25,.08c-.49,.22-1.03,.5-1.23,1.11,0-.02,0,0,.04-.04v-.04c.16-.19,.29-.38,.45-.5,.17-.17,.42-.31,.58-.39,.25-.1,.99-.31,1.36-.22-.12-.02-.81,.12-.94,.14-.25,.1-.58,.2-.82,.43,.12,0,.25-.09,.33-.1,.7-.22,1.81-.56,2.51-.43-.42,.02-1.02,.16-1.36,.3l.25-.02c-.08,.02-.12,.04-.2,.06-.09,.04-.13,.06-.21,.1-.37,.17-.94,.46-1.15,.81,.08-.06,.21-.14,.33-.23,.12-.08,.25-.16,.33-.22,.25-.12,.54-.26,.78-.37,.53-.18,1.02-.35,1.64-.42-.12,.02-.17,.05-.25,.13,.46,.02,1.28-.29,2.43-.22-.25,.06-.66,.04-.94,.1l-.29,.09c.16,.02,.66-.06,.9-.09,.99-.08,1.65-.14,2.72-.04,.7,.09,1.36,.14,2.01,.52,.45,.24,.86,.51,1.18,.84,.13,.14,.17,.22,.29,.33-.29-.16-.86-.84-1.44-1.05,.91,.65,1.61,1.23,2.18,2.04-.17-.13-.41-.4-.58-.58-.2-.21-.41-.38-.66-.56-.38-.33-1.03-.76-1.53-.94,.09,.1,.42,.29,.58,.41,1.07,.78,2.14,1.65,3.08,2.63,.13,.1,.33,.39,.42,.47-.13-.06-.5-.45-.66-.55-.7-.62-1.36-1.15-2.27-1.52,.25,.21,1.85,1.05,2.3,1.6l-1.35-.88c-.41-.25-1.11-.64-1.61-.76,.54,.18,2.59,1.38,2.96,1.78-.21-.12-.49-.33-.74-.47-.29-.14-.54-.29-.82-.43-.62-.29-1.23-.54-1.85-.68-.82-.22-1.65-.29-2.51-.29-.24,0-.58,.05-.78,0,.18-.05,.54-.04,.7-.05,.5-.02,.99,0,1.48,.04,.21,.02,.58,.1,.74,.08-.58-.21-1.03-.18-1.52-.3t.03,0,.09-.02c-.29-.06-.9-.02-1.19,.02-.34,.06-1.07,.24-1.07,.24,.08-.04,.17-.08,.21-.14l-.82,.13,1.03-.27c-.21,0-.46,.09-.66,.1-.26,.04-.78,.1-.99,.17-.29,.08-.78,.1-1.07,.08,.13-.06,.46-.1,.62-.14l.53-.14c.13-.02,.21-.04,.29-.08,.29-.1,.58-.17,.82-.25,.49-.14,1.92-.41,2.42-.22-.62-.27-2.01,0-2.5,.14l-1.15,.34c-.09,.02-.17,.06-.29,.09-.25,.08-.54,.18-.86,.22l.04-.06h0v-.04c-.08,.06-.37,.14-.5,.14,.29-.22,.94-.37,1.2-.66-.21,.06-.5,.22-.74,.33-.09,.04-.17,.08-.2,.1,.2-.29,.57-.51,.85-.7l.38-.16c-.29,0-.62,.21-.83,.37-.24,.17-.45,.35-.61,.56t-.05,.04c-.08,.04-.03,.02-.08,.02l.29-.39c-.04,.06-.41,.39-.45,.5,.04-.22,.24-.37,.32-.54l-.16,.09c.29-.39,.94-.64,1.36-.89-.41,0-1.11,.47-1.4,.8-.17,.14-.25,.33-.37,.46l.17-.31h-.05l-.16,.18c.16-.38,.41-.59,.66-.84-.08,.02-.21,.08-.29,.17-.08,.06-.16,.14-.25,.22-.17,.21-.33,.41-.46,.64,0-.09,.09-.27,.17-.39-.08,.02-.04-.02-.08,.02-.17,.09-.25,.23-.33,.33l.08-.24-.21,.24c.08-.22,.17-.37,.25-.55-.17,.08-.25,.26-.33,.43,0-.08,.04-.21,.08-.29l-.21,.17c-.08,.08-.16,.14-.2,.2,.08-.2,.2-.33,.33-.49-.25,.12-.33,.3-.54,.53,.09-.26,.33-.62,.5-.76-.25,0-.46,.6-.58,.72l.04-.26s-.04,0-.04,.04l-.17,.25,.05-.33c-.13,.08-.13,.18-.21,.3,0,0,0-.26,.08-.43-.04,.02,0,0-.08,.06-.13,.08-.17,.22-.25,.31l.12-.27s0,0-.04,.04l-.17,.09Z" style="fill:#125aa3; fill-rule:evenodd;"/><g><path d="M1099.62,738.01c-1.35,0-2.46,1.09-2.46,2.42s1.11,2.44,2.46,2.44,2.43-1.09,2.43-2.44-1.07-2.42-2.43-2.42Z" style="fill:#bbdbfa; fill-rule:evenodd;"/><path d="M1099.62,742.88c-1.35,0-2.46-1.09-2.46-2.44s1.11-2.42,2.46-2.42c.58,0,1.07,.18,1.49,.51l-.17-.02c-.46,0-.82,.35-.82,.78s.37,.78,.82,.78c.41,0,.78-.34,.78-.78v-.08c.2,.37,.33,.8,.33,1.23,0,1.36-1.07,2.44-2.43,2.44Z" style="fill:#125aa3; fill-rule:evenodd;"/></g><path d="M1104.22,737.72c.08,.04,.13,.08,.17,.14-.04-.23-.29-.54-.33-.74,.08,.1,.12,.14,.21,.29,.08,.14,.12,.27,.16,.42,.04-.17-.04-.27-.04-.42,.08,.1,.12,.33,.12,.47,.05-.49,0-.45-.12-.92,.17,.14,.25,.59,.29,.86,.04-.1,.04-.25,.08-.39,.04,.16,.04,.26,.04,.43l.13-.17c-.05,.1-.08,.13-.08,.21,.2-.14,.66-.74,.66-1.07-.05,.13-.17,.39-.25,.46,.04-.23,.12-.47,.12-.74-.08,.17-.08,.39-.12,.56-.09,.2-.17,.41-.25,.51,.08-.39,.25-.7,.16-1.15v.1c-.03,.2-.03,.43-.12,.63,0-.37,.04-.72-.2-1.01,.03,.14,.12,.26,.16,.43-.16-.18-.16-.49-.42-.55,.09,.17,.17,.25,.29,.47,.09,.14,.17,.43,.09,.62-.09-.68-.41-1.06-.82-1.23,.13,.09,.45,.39,.5,.55l-.05,.05c-.03,.16,0-.19,0,.02,.09,.08,.17,.22,.21,.35,0,.06,.05,.16,.05,.25,.03,.04,.03,.12,.03,.14v.08l-.03,.04c-.05-.45-.17-.72-.42-1.01-.16-.16-.54-.47-.73-.53v.02l.16,.13c.45,.3,.86,.66,.94,1.31-.04-.04,0,0-.04-.06,0,0,0-.02-.04-.04-.08-.18-.16-.39-.25-.55-.17-.21-.33-.37-.45-.5-.2-.14-.81-.5-1.15-.5,.09,0,.7,.29,.78,.35,.21,.13,.5,.3,.66,.57-.08-.04-.2-.13-.29-.18-.53-.35-1.52-.86-2.09-.9,.38,.12,.86,.37,1.15,.58l-.24-.08c.08,.03,.12,.08,.16,.14,.08,.02,.13,.06,.16,.1,.33,.22,.74,.64,.91,1.03-.08-.1-.17-.21-.25-.31-.12-.1-.2-.18-.33-.29-.16-.16-.37-.37-.58-.5-.42-.3-.86-.55-1.36-.74,.08,.06,.13,.1,.21,.18-.42-.08-1.07-.51-2.14-.69,.21,.12,.58,.21,.86,.3l.21,.13c-.16-.02-.58-.18-.74-.25-.9-.29-1.44-.47-2.43-.55-.61-.06-1.18-.13-1.84,.12-.46,.14-.83,.33-1.2,.6-.12,.1-.21,.16-.29,.26,.25-.12,.86-.68,1.44-.76-.9,.5-1.6,.9-2.25,1.58,.16-.08,.41-.31,.58-.46,.24-.14,.45-.29,.66-.41,.41-.25,1.07-.58,1.52-.66-.13,.08-.42,.22-.58,.29-1.07,.57-2.17,1.23-3.16,2-.12,.09-.37,.33-.45,.39,.12-.04,.53-.35,.66-.45,.73-.43,1.44-.86,2.25-1.05-.24,.19-1.76,.7-2.29,1.15l1.35-.59c.42-.18,1.11-.43,1.57-.45-.54,.06-2.51,.84-2.92,1.17,.2-.06,.49-.22,.74-.31,.24-.1,.53-.18,.82-.26,.54-.16,1.11-.29,1.69-.33,.78-.04,1.52,.04,2.26,.2,.2,.05,.49,.14,.7,.14-.12-.08-.45-.14-.62-.18-.41-.11-.86-.19-1.28-.26-.21-.02-.53,0-.7-.03,.54-.11,.94,0,1.4-.02t-.05-.02s-.03,0-.08-.02c.29,0,.82,.16,1.07,.24,.29,.13,.86,.43,.9,.46-.04-.08-.12-.12-.17-.18l.7,.26-.86-.47c.16,.05,.42,.17,.61,.25,.17,.08,.62,.25,.82,.35,.21,.14,.66,.25,.9,.26-.09-.06-.38-.18-.5-.25l-.49-.25c-.09-.04-.17-.08-.25-.12-.2-.17-.45-.29-.66-.41-.41-.22-1.64-.78-2.09-.68,.62-.14,1.77,.39,2.17,.62l.95,.55c.08,.04,.17,.09,.25,.14,.21,.13,.45,.27,.69,.39v-.08h0v-.02c.09,.06,.33,.21,.46,.23-.25-.27-.82-.54-.99-.89,.21,.1,.46,.31,.62,.47,.03,.06,.12,.1,.16,.14-.13-.33-.42-.64-.66-.86l-.29-.22c.24,.04,.53,.33,.69,.54,.17,.2,.29,.43,.41,.66t.05,.04s.04,.02,.04,.04l-.17-.45c0,.08,.29,.45,.34,.57-.05-.23-.17-.42-.25-.6l.17,.13c-.2-.46-.74-.8-1.03-1.11,.34,.06,.86,.66,1.07,1.02,.13,.18,.17,.39,.25,.54l-.08-.35,.04,.02,.13,.22c-.09-.45-.26-.68-.46-.98,.08,.04,.17,.13,.25,.22,.04,.08,.12,.17,.16,.27,.08,.22,.21,.45,.25,.72,.04-.1,0-.29-.04-.42,.08,.02,0,0,.08,.04,.08,.09,.16,.27,.21,.39v-.26l.13,.26c-.05-.25-.09-.37-.13-.59,.13,.12,.16,.3,.21,.49,.03-.08,0-.2,0-.3l.16,.22c.05,.08,.08,.17,.13,.22-.05-.22-.13-.34-.21-.54,.21,.17,.24,.38,.37,.6-.04-.25-.16-.66-.29-.82,.21,.06,.29,.68,.37,.82l.05-.26s0,.02,.03,.04l.09,.29v-.35c.08,.1,.08,.22,.12,.35,0,0,.05-.27,0-.43,.05,.02,0,0,.05,.06,.08,.1,.12,.25,.2,.35l-.08-.26s0,0,.04,.02l.08,.13Z" style="fill:#125aa3; fill-rule:evenodd;"/><path d="M1106.73,743.02c-.86,.7-4.72,9.44-4.72,10.24,0,2.83,3.32,1.31,3.9,1.79" style="fill:none; fill-rule:evenodd;"/><path d="M1097.9,761.72c5.01,1.64,5.09,1.4,11.34,1.35,2.13-.04,.16,.85-2.3,1.69-4.6,1.61-9.53-.14-9.32-2.92l.29-.12Z" style="fill:#fff; fill-rule:evenodd;"/></g></g><g><path d="M1115.75,416.76c10.72,0,20.95,1.75,30.31,4.93-.99-4.93-1.53-9.98-1.53-15.15,0-44.53,38.68-80.62,86.36-80.62,8.45,0,16.62,1.15,24.34,3.24,12.07-56.95,64.75-99.84,127.94-99.84,72.05,0,130.49,55.86,130.49,124.74,0,11.84-1.73,23.3-4.97,34.16,47.18,3.18,84.29,36.32,84.29,79.08s-40.9,76.76-66.02,83.78c-3.78,1.07-8.95,1.01-14.95,0h-396.27c-44.55,0-80.6-30.06-80.6-67.16s36.05-67.17,80.6-67.17Z" style="fill:#a4d0fc; fill-rule:evenodd;"/><g style="opacity:.17;"><path d="M1538.88,411.85c15.88,14.1,25.66,33.53,25.66,55.45s-11.3,42.52-25.66,57.5c-12.97,13.53-28.46,22.95-40.36,26.28h13.5c6,1.01,11.17,1.07,14.95,0,3.7-1.01,7.73-2.63,11.91-4.79,24.34-12.42,54.11-42.54,54.11-79,0-33.08-22.21-60.4-54.11-72.55-9.32-3.56-19.51-5.81-30.18-6.53,3.24-10.86,4.97-22.32,4.97-34.16,0-68.9-58.43-124.74-130.49-124.74-4.85,0-9.56,.25-14.25,.74,65.37,6.75,116.28,59.7,116.28,124,0,8.42-.86,16.65-2.54,24.6-.66,3.22-1.48,6.42-2.43,9.57,22.99,1.54,43.57,10.21,58.64,23.63Z" style="fill:#b5d7f8; fill-rule:evenodd;"/></g><path d="M1111.7,416.76c.7,0,1.39,0,2.05,.02-43.61,.88-78.58,30.61-78.58,67.15s36.05,67.16,80.6,67.16h-4.06c-44.52,0-80.6-30.06-80.6-67.16s36.09-67.17,80.6-67.17h0Zm30.06,3.57c-.82-4.48-1.28-9.1-1.28-13.79,0-44.53,38.68-80.62,86.35-80.62,.74,0,1.4,0,2.09,.02-46.76,.99-84.38,36.69-84.38,80.6,0,5.17,.54,10.22,1.53,15.15-1.41-.49-2.84-.94-4.31-1.35h0Zm109.67-92.12c12.44-56.5,64.87-98.89,127.69-98.89,.62,0,1.23,0,1.89,.02-62.21,.96-113.82,43.5-125.76,99.81-1.24-.33-2.55-.66-3.82-.95h0Zm266.93,223.6c-3.04,.18-6.54-.06-10.39-.72h4.06c2.22,.37,4.35,.64,6.33,.72Z" style="fill:#61a0e0; fill-rule:evenodd;"/></g><path d="M1286.2,359.72l-5.99,3.47c-2.01,1.17-2.72,3.78-1.52,5.79l1.27,2.26c1.56,2.69,.9,3.9,.41,4.33-1.31,1.19-2.54,2.48-3.77,3.76-.38,.39-1.53,1.68-4.56-.08l-2.09-1.23c-2.01-1.15-4.6-.48-5.79,1.56l-3.48,5.95c-1.15,2.01-.46,4.64,1.55,5.79l2.06,1.21c2.83,1.66,2.79,2.51,2.42,3.72-.5,1.67-1.03,3.33-1.4,5.03-.33,1.54-.16,2.63-4.07,2.63h-2.38c-2.29,0-4.23,1.89-4.23,4.23v6.92c0,2.32,1.93,4.23,4.23,4.23h2.38c3.91,0,3.74,1.09,4.07,2.62,.37,1.73,.9,3.37,1.4,5.03,.37,1.21,.41,2.05-2.42,3.71l-2.06,1.19c-2,1.17-2.7,3.78-1.55,5.79l3.48,5.97c1.19,2.03,3.78,2.71,5.79,1.54l2.09-1.21c3.04-1.77,4.19-.48,4.56-.1,1.23,1.29,2.46,2.58,3.77,3.77,.5,.43,1.15,1.64-.41,4.31l-1.27,2.28c-1.2,2.01-.5,4.62,1.52,5.79l5.99,3.47c1.96,1.17,4.6,.49,5.78-1.52l1.28-2.28c1.6-2.71,3.16-2.59,3.82-2.38,1.89,.6,3.66,.98,5.62,1.5,.73,.2,1.96,.7,1.96,3.94v2.42c0,2.34,1.89,4.25,4.23,4.25h6.9c2.33,0,4.23-1.91,4.23-4.25v-2.42c0-3.24,1.23-3.74,1.92-3.94,1.97-.52,3.74-.9,5.67-1.5,.66-.21,2.21-.33,3.77,2.38l1.32,2.28c1.19,2.01,3.78,2.69,5.79,1.52l5.99-3.47c2.01-1.17,2.71-3.78,1.52-5.79l-1.31-2.28c-1.57-2.67-.86-3.88-.42-4.31,1.36-1.19,2.59-2.48,3.82-3.77,.37-.37,1.52-1.66,4.55,.1l2.06,1.21c2.01,1.17,4.63,.5,5.78-1.54l3.49-5.97c1.19-2.01,.49-4.62-1.52-5.79l-2.05-1.19c-2.88-1.66-2.8-2.5-2.43-3.71,.5-1.66,1.03-3.31,1.41-5.03,.29-1.53,.16-2.62,4.02-2.62h2.38c2.34,0,4.23-1.91,4.23-4.23v-6.92c0-2.34-1.89-4.23-4.23-4.23h-2.38c-3.86,0-3.73-1.09-4.02-2.63-.38-1.71-.91-3.37-1.41-5.03-.37-1.21-.45-2.05,2.43-3.72l2.05-1.21c2-1.15,2.71-3.77,1.52-5.79l-3.49-5.95c-1.15-2.04-3.77-2.71-5.78-1.56l-2.06,1.23c-3.04,1.77-4.19,.48-4.55,.08-1.23-1.27-2.46-2.56-3.82-3.76-.45-.43-1.15-1.64,.42-4.33l1.31-2.26c1.19-2.01,.5-4.62-1.52-5.79l-5.99-3.47c-2.01-1.17-4.6-.5-5.79,1.52l-1.32,2.28c-1.56,2.71-3.12,2.61-3.77,2.38-1.93-.59-3.7-.98-5.67-1.49-.7-.19-1.92-.72-1.92-3.95v-2.44c0-2.32-1.89-4.23-4.23-4.23h-6.9c-2.34,0-4.23,1.91-4.23,4.23v2.44c0,3.23-1.23,3.76-1.96,3.95-1.97,.51-3.74,.9-5.62,1.49-.65,.23-2.22,.33-3.82-2.38l-1.28-2.28c-1.18-2.01-3.82-2.69-5.78-1.52h0Zm26.16,42.74c5,0,9.11,4.08,9.11,9.12s-4.11,9.13-9.11,9.13-9.12-4.08-9.12-9.13,4.07-9.12,9.12-9.12h0Zm-28.62,9.12c0-1.07,.86-1.95,1.97-1.95s1.93,.88,1.93,1.95c0,6.83,2.75,13.01,7.22,17.47,4.47,4.48,10.67,7.25,17.5,7.25,1.07,0,1.93,.86,1.93,1.95s-.86,1.95-1.93,1.95c-7.93,0-15.07-3.2-20.25-8.38-5.18-5.17-8.37-12.34-8.37-20.24h0Zm56.82-4.6c.21,1.07-.53,2.05-1.6,2.22-1.07,.18-2.05-.56-2.22-1.61-.86-5.17-3.28-9.83-6.85-13.38-3.53-3.57-8.13-6.08-13.3-6.96-1.06-.18-1.77-1.19-1.61-2.26,.21-1.07,1.2-1.77,2.27-1.6,5.99,1.05,11.33,3.92,15.44,8.07,4.06,4.13,6.93,9.53,7.88,15.52h0Zm-28.2-29.3c18.73,0,33.87,15.17,33.87,33.9s-15.15,33.91-33.87,33.91-33.92-15.2-33.92-33.91,15.2-33.9,33.92-33.9Z" style="fill:#fff; fill-rule:evenodd;"/><path d="M1381.54,434.29l-3.32,1.93c-1.15,.66-1.53,2.11-.86,3.22l.73,1.27c.86,1.5,.5,2.18,.21,2.4-.74,.68-1.44,1.39-2.09,2.11-.21,.2-.86,.95-2.55-.06l-1.19-.68c-1.11-.65-2.55-.25-3.2,.86l-1.97,3.35c-.62,1.11-.24,2.56,.86,3.22l1.15,.66c1.6,.95,1.57,1.39,1.36,2.07-.25,.94-.58,1.87-.78,2.81-.16,.86-.08,1.46-2.25,1.46h-1.32c-1.32,0-2.38,1.07-2.38,2.38v3.84c0,1.31,1.06,2.38,2.38,2.38h1.32c2.17,0,2.09,.6,2.25,1.46,.21,.96,.54,1.87,.78,2.81,.21,.68,.24,1.15-1.36,2.07l-1.15,.66c-1.1,.66-1.48,2.11-.86,3.24l1.97,3.33c.66,1.13,2.09,1.52,3.2,.86l1.19-.68c1.69-.99,2.34-.27,2.55-.04,.66,.69,1.35,1.41,2.09,2.09,.29,.22,.66,.9-.21,2.4l-.73,1.25c-.66,1.15-.29,2.59,.86,3.24l3.32,1.93c1.15,.66,2.59,.29,3.24-.84l.74-1.25c.86-1.52,1.73-1.46,2.09-1.36,1.07,.35,2.05,.56,3.16,.84,.37,.12,1.07,.39,1.07,2.22v1.33c0,1.31,1.06,2.38,2.38,2.38h3.85c1.28,0,2.35-1.07,2.35-2.38v-1.33c0-1.83,.7-2.09,1.1-2.22,1.11-.29,2.09-.49,3.12-.84,.38-.1,1.23-.16,2.13,1.36l.74,1.25c.66,1.13,2.09,1.5,3.2,.84l3.36-1.93c1.11-.65,1.52-2.09,.86-3.24l-.74-1.25c-.89-1.5-.49-2.18-.24-2.4,.73-.68,1.44-1.4,2.13-2.09,.2-.23,.82-.95,2.55,.04l1.15,.68c1.1,.65,2.58,.26,3.24-.86l1.93-3.33c.66-1.13,.29-2.59-.86-3.24l-1.15-.66c-1.61-.92-1.52-1.39-1.35-2.07,.29-.95,.58-1.85,.77-2.81,.21-.86,.12-1.46,2.26-1.46h1.36c1.27,0,2.33-1.07,2.33-2.38v-3.84c0-1.31-1.06-2.38-2.33-2.38h-1.36c-2.14,0-2.05-.6-2.26-1.46-.2-.94-.49-1.87-.77-2.81-.17-.68-.26-1.13,1.35-2.07l1.15-.66c1.15-.66,1.52-2.11,.86-3.22l-1.93-3.35c-.66-1.11-2.14-1.52-3.24-.86l-1.15,.68c-1.73,1.01-2.35,.26-2.55,.06-.7-.72-1.4-1.43-2.13-2.11-.25-.23-.66-.9,.24-2.4l.74-1.27c.66-1.11,.25-2.56-.86-3.22l-3.36-1.93c-1.11-.66-2.55-.29-3.2,.84l-.74,1.27c-.9,1.5-1.76,1.44-2.13,1.33-1.03-.35-2.01-.56-3.12-.84-.41-.1-1.1-.39-1.1-2.21v-1.33c0-1.32-1.07-2.38-2.35-2.38h-3.85c-1.32,0-2.38,1.07-2.38,2.38v1.33c0,1.83-.7,2.11-1.07,2.21-1.11,.29-2.09,.5-3.16,.84-.37,.1-1.23,.16-2.09-1.33l-.74-1.27c-.66-1.13-2.09-1.49-3.24-.84h0Zm14.61,23.83c2.79,0,5.09,2.28,5.09,5.09s-2.3,5.11-5.09,5.11-5.09-2.3-5.09-5.11,2.25-5.09,5.09-5.09h0Zm-15.97,5.09c0-.6,.5-1.07,1.1-1.07,.58,0,1.07,.47,1.07,1.07,0,3.82,1.52,7.27,4.03,9.75,2.51,2.51,5.95,4.05,9.77,4.05,.58,0,1.07,.49,1.07,1.09s-.5,1.09-1.07,1.09c-4.43,0-8.41-1.79-11.29-4.66-2.92-2.9-4.68-6.9-4.68-11.31h0Zm31.73-2.57c.09,.6-.32,1.15-.89,1.25-.62,.1-1.15-.31-1.28-.9-.45-2.89-1.81-5.48-3.82-7.47-1.97-1.99-4.51-3.39-7.43-3.88-.58-.1-.98-.68-.86-1.27,.08-.58,.66-.99,1.23-.86,3.37,.55,6.33,2.17,8.63,4.47,2.3,2.32,3.85,5.32,4.43,8.66h0Zm-15.76-16.34c10.43,0,18.89,8.48,18.89,18.91s-8.47,18.93-18.89,18.93-18.93-8.48-18.93-18.93,8.45-18.91,18.93-18.91Z" style="fill:#fff; fill-rule:evenodd;"/><path d="M1467.76,626.16h180.1c2.87,0,5.17-2.3,5.17-5.15s-2.3-5.19-5.17-5.19h-180.1c-2.83,0-5.18,2.32-5.18,5.19s2.35,5.15,5.18,5.15h0Zm257.29-42.87h21.43c2.83,0,5.18-2.3,5.18-5.17s-2.35-5.17-5.18-5.17h-21.43c-2.88,0-5.18,2.32-5.18,5.17s2.3,5.17,5.18,5.17h0Zm-34.33,42.87h17.16c2.84,0,5.17-2.3,5.17-5.15s-2.33-5.19-5.17-5.19h-17.16c-2.88,0-5.17,2.32-5.17,5.19s2.29,5.15,5.17,5.15h0Zm-188.64-42.87h188.64c2.87,0,5.17-2.3,5.17-5.17s-2.3-5.17-5.17-5.17h-188.64c-2.87,0-5.17,2.32-5.17,5.17s2.3,5.17,5.17,5.17Z" style="fill:#fc9774; fill-rule:evenodd;"/><path d="M60.19,806.93H240.24c2.88,0,5.18-2.32,5.18-5.17s-2.3-5.18-5.18-5.18H60.19c-2.88,0-5.21,2.3-5.21,5.18s2.33,5.17,5.21,5.17h0Zm257.24-42.86h21.44c2.87,0,5.17-2.32,5.17-5.18s-2.3-5.18-5.17-5.18l-21.44-.02c-2.88,0-5.18,2.32-5.18,5.19s2.3,5.18,5.18,5.18h0Zm-34.32,42.86h17.16c2.83,0,5.18-2.32,5.18-5.17s-2.35-5.18-5.18-5.18h-17.16c-2.84,0-5.18,2.3-5.18,5.18s2.3,5.17,5.18,5.17h0Zm-188.63-42.86h188.63c2.88,0,5.21-2.32,5.21-5.18s-2.33-5.18-5.21-5.18l-188.63-.02c-2.88,0-5.18,2.32-5.18,5.19s2.3,5.18,5.18,5.18Z" style="fill:#fc9774; fill-rule:evenodd;"/><path d="M577.63,259.95h180.05c2.88,0,5.18-2.32,5.18-5.17s-2.3-5.19-5.18-5.19h-180.05c-2.88,0-5.18,2.32-5.18,5.19s2.3,5.17,5.18,5.17h0Zm257.24-42.86h21.44c2.87,0,5.17-2.34,5.17-5.2s-2.3-5.17-5.17-5.17h-21.44c-2.88,0-5.18,2.32-5.18,5.17s2.3,5.2,5.18,5.2h0Zm-34.28,42.86h17.12c2.88,0,5.18-2.32,5.18-5.17s-2.3-5.19-5.18-5.19h-17.12c-2.88,0-5.22,2.32-5.22,5.19s2.34,5.17,5.22,5.17h0Zm-188.67-42.86h188.67c2.84,0,5.17-2.34,5.17-5.2s-2.33-5.17-5.21-5.17h-188.63c-2.84,0-5.18,2.32-5.18,5.17s2.3,5.2,5.18,5.2Z" style="fill:#fc9774; fill-rule:evenodd;"/></svg>