<?xml version="1.0" encoding="UTF-8"?><svg id="a" xmlns="http://www.w3.org/2000/svg" viewBox="0 0 2049.03 1538.94"><g><path d="M1017.17,1449.84c236.61,0,454.34,3.54,627.14,9.47,422.86-241.71,276.44-712.83,124.61-979.32C1557.61,109.11,1058.3-24.19,851.77,271.73,571.43,673.38,301.01,533.22,154.99,838.27c-146.03,305.04,75.73,597.47,235.05,621.05,172.79-5.94,390.53-9.47,627.13-9.47h0ZM646.89,428.85c-139.05,105.83-369.05,187.84-445.42,75.33-57.07-84.07,13.22-241.79,150.88-361.36C489.92,23.32,674.23-49,774.69,38.98c119.21,104.42-20.72,308.36-127.8,389.87Z" style="fill:#e9eff8; fill-rule:evenodd;"/><path d="M1712.12,1343.09c11.51-14.39,27.69-26.29,32.44-44.1,5.6-21.02-6.74-43.14-3.68-64.67,3.84-27.11,29.95-44.67,44.13-68.09,13.87-22.94,7.37-30.66,8.64-57.43,1.9-40.35,35-91.29,79.09-77.63,44.77,13.88,37.45,55.5,29.58,86.82-5.61,22.3-1.94,25.5,3.5,47.83,6.59,26.98,27.84,53.07,18.96,79.38-5.49,16.27-21.45,27.26-27.22,43.44-6.55,18.33,1.37,38.21,4.42,57.43,6.43,40.48-2.79,74.15-32.19,107.56-6.15,5.86-12.77,10.9-19.87,15.18-35.97-2.25-76.55-4.33-121.12-6.24-2.67-2.29-5.2-4.74-7.58-7.34-26.91-29.37-34.94-79.79-9.1-112.13Z" style="fill:#d0d9ee; fill-rule:evenodd;"/><path d="M1852.4,1067.6c.7-1.82,2.75-2.74,4.57-2.04,1.82,.7,2.74,2.74,2.04,4.56-3.49,9.15-6.43,18.72-8.95,28.69,1.02-.92,2.07-1.81,3.14-2.68,4.8-3.86,10.26-7.23,16.36-10.12,1.76-.83,3.87-.07,4.71,1.69,.83,1.77,.07,3.88-1.7,4.7-5.6,2.65-10.59,5.74-14.95,9.24-4.13,3.32-7.73,7.04-10.78,11.14-4.53,21.6-7.48,44.81-10.14,69.29,4.09-6.37,8.47-12.09,13.12-17.13,8.08-8.79,17.03-15.62,26.83-20.47,1.75-.86,3.87-.15,4.73,1.6,.87,1.74,.15,3.86-1.6,4.72-8.98,4.45-17.24,10.78-24.76,18.95-7.47,8.12-14.2,18.06-20.17,29.79l-.69,6.64c-1.51,14.58-3.05,29.55-4.88,44.84,0,.15-.03,.3-.05,.44-1.91,15.97-4.14,32.27-6.95,48.86,7.65-11.8,15.88-22.23,24.68-31.3,12.91-13.29,27.07-23.64,42.47-31.06,1.76-.84,3.88-.11,4.72,1.65,.84,1.76,.1,3.88-1.66,4.72-14.65,7.06-28.13,16.94-40.45,29.61-12.29,12.65-23.44,28.11-33.42,46.35-4.35,21.97-9.9,44.35-17.26,66.98h0s-.03,.09-.03,.09h0c-3.61,11.1-7.67,22.26-12.22,33.46,10.7-9.19,22.07-17.13,34.1-23.83,16.75-9.33,34.74-16.22,53.97-20.67,1.9-.44,3.81,.75,4.26,2.65,.44,1.9-.75,3.81-2.65,4.25-18.62,4.32-36.01,10.96-52.14,19.94-15.97,8.89-30.76,20.09-44.36,33.58-4.14,9.2-8.65,18.41-13.56,27.62l-7.82-.37c14.24-26.3,25.12-52.56,33.59-78.5,1.33-17.25-.71-34.51-6.13-51.74-5.5-17.48-14.47-35-26.9-52.55-1.13-1.59-.75-3.8,.83-4.92,1.59-1.13,3.8-.75,4.93,.83,12.86,18.14,22.15,36.31,27.87,54.51,3.25,10.33,5.34,20.67,6.3,31,10.61-38.32,16.49-75.79,20.79-111.54-4.15-15.15-8.78-27.98-13.91-38.47-5.09-10.43-10.63-18.48-16.59-24.13-1.42-1.34-1.49-3.57-.14-4.99,1.33-1.42,3.57-1.48,4.99-.14,6.61,6.25,12.65,14.98,18.12,26.18,3.39,6.96,6.59,14.92,9.57,23.86,1.03-9.45,1.99-18.76,2.94-27.92l.74-7.13c0-.13,.02-.26,.04-.4,5.03-48.58,10.11-92.79,24.47-130.35Z" style="fill:#fff; fill-rule:evenodd;"/><path d="M1830.55,1362.07c12.29-6.62,27.08-10.11,35.67-21.1,10.13-12.99,8.08-32.05,16.59-46.14,10.71-17.74,34.1-22.25,50.91-34.37,16.46-11.87,14.21-19.17,23.03-37.45,13.28-27.54,51.42-53.21,78.1-30.64,27.07,22.94,9.64,49.77-5.13,69.24-10.52,13.87-8.91,17.19-11.73,34.37-3.4,20.74,3.66,45.2-10.32,60.91-8.64,9.71-23.02,12.62-31.83,22.19-9.99,10.83-10.35,27.03-13.93,41.33-5.75,23.01-16.69,40.54-35.11,54.04-30.54-2.68-66.97-5.18-108.6-7.51-6.38-6.98-11.4-15.15-14.55-24.07-10.04-28.43-.7-65.93,26.88-80.8Z" style="fill:#bcc9e7; fill-rule:evenodd;"/><path d="M2009.9,1211.73c1.02-1.06,2.72-1.1,3.78-.06,1.07,1.02,1.1,2.72,.07,3.78-5.14,5.34-10.03,11.13-14.74,17.33,.98-.33,1.97-.65,2.98-.93,4.49-1.26,9.29-1.99,14.39-2.2,1.47-.05,2.71,1.1,2.77,2.58,.05,1.47-1.09,2.71-2.58,2.78-4.69,.18-9.07,.85-13.16,2-3.86,1.09-7.46,2.61-10.8,4.57-9.55,13.7-18.49,29-27.6,45.26,4.74-3.22,9.48-5.91,14.22-8.06,8.22-3.72,16.49-5.83,24.76-6.3,1.47-.09,2.74,1.04,2.82,2.51,.08,1.47-1.04,2.74-2.51,2.82-7.58,.44-15.2,2.4-22.86,5.86-7.61,3.45-15.24,8.38-22.88,14.78l-2.44,4.43c-5.37,9.72-10.88,19.68-16.68,29.79-.04,.11-.1,.2-.16,.29-6.06,10.56-12.45,21.26-19.32,31.98,8.82-5.95,17.64-10.78,26.46-14.48,12.93-5.44,25.85-8.46,38.78-9.06,1.47-.06,2.73,1.08,2.8,2.55,.06,1.48-1.08,2.73-2.56,2.8-12.29,.57-24.61,3.46-36.95,8.64-12.31,5.17-24.65,12.63-37.01,22.39-9.54,14.02-20.03,27.96-31.87,41.54h0s-.04,.05-.04,.05h0c-5.8,6.66-11.92,13.24-18.42,19.68,10.17-3.23,20.45-5.4,30.81-6.49,14.43-1.54,29-1,43.72,1.59,1.45,.25,2.42,1.64,2.17,3.11-.25,1.45-1.64,2.42-3.11,2.17-14.25-2.51-28.32-3.04-42.23-1.55-13.75,1.46-27.37,4.88-40.85,10.25-7.2,6.64-14.83,13.14-22.94,19.43l-8.21-.47c21.23-15.88,39.21-33.13,54.85-51.04,6.03-11.63,9.72-24.25,11.05-37.86,1.36-13.81,.3-28.67-3.17-44.58-.31-1.44,.59-2.87,2.04-3.19,1.45-.31,2.87,.6,3.19,2.05,3.58,16.44,4.67,31.85,3.26,46.22-.79,8.16-2.4,15.98-4.8,23.46,18.74-23.55,33.94-47.91,47.53-71.53,1.6-11.79,2.16-22.1,1.71-30.92-.46-8.78-1.93-16.03-4.42-21.73-.58-1.35,.03-2.93,1.38-3.52,1.36-.59,2.94,.03,3.52,1.38,2.76,6.31,4.37,14.19,4.87,23.6,.31,5.85,.17,12.34-.39,19.45,3.52-6.27,6.94-12.46,10.32-18.57l2.62-4.74c.04-.09,.09-.18,.14-.27,17.91-32.34,34.54-61.64,55.67-83.55Z" style="fill:#e9eff8; fill-rule:evenodd;"/><path d="M518.18,1295.81c-15.03-18.8-36.17-34.35-42.38-57.61-7.33-27.45,8.8-56.35,4.8-84.48-5.02-35.41-39.12-58.36-57.64-88.96-18.12-29.96-9.63-40.04-11.28-75.03-2.49-52.71-45.72-119.24-103.33-101.4-58.48,18.14-48.93,72.5-38.63,113.41,7.33,29.13,2.53,33.31-4.59,62.5-8.61,35.25-36.36,69.31-24.76,103.7,7.17,21.26,28.03,35.61,35.56,56.74,8.55,23.94-1.81,49.92-5.78,75.03-8.4,52.87,3.65,96.86,42.06,140.51,8.58,8.15,17.83,15.11,27.85,20.94,46.67-1.83,97.16-3.47,150.94-4.9,5.49-4.19,10.61-8.85,15.29-13.96,35.16-38.38,45.64-104.23,11.88-146.48Z" style="fill:#d0d9ee; fill-rule:evenodd;"/><path d="M334.93,935.93c-.91-2.38-3.58-3.57-5.96-2.66-2.38,.91-3.57,3.57-2.67,5.96,4.57,11.94,8.4,24.46,11.7,37.47-1.33-1.19-2.69-2.36-4.1-3.49-6.28-5.05-13.41-9.46-21.37-13.22-2.31-1.09-5.06-.1-6.14,2.21-1.09,2.3-.1,5.05,2.21,6.14,7.32,3.47,13.83,7.49,19.53,12.07,5.41,4.34,10.09,9.2,14.08,14.57,5.91,28.2,9.77,58.53,13.25,90.51-5.35-8.32-11.06-15.79-17.14-22.4-10.56-11.48-22.24-20.39-35.06-26.74-2.28-1.13-5.05-.2-6.18,2.08-1.13,2.29-.2,5.06,2.08,6.19,11.75,5.81,22.53,14.06,32.35,24.74,9.76,10.61,18.54,23.59,26.35,38.93l.9,8.67c1.97,19.05,3.99,38.61,6.37,58.58,0,.19,.04,.39,.07,.57,2.5,20.86,5.41,42.17,9.07,63.82-9.98-15.41-20.73-29.04-32.23-40.88-16.86-17.36-35.36-30.89-55.48-40.58-2.31-1.1-5.06-.13-6.17,2.16-1.1,2.3-.14,5.06,2.16,6.17,19.14,9.21,36.75,22.12,52.85,38.68,16.06,16.52,30.61,36.72,43.65,60.56,5.68,28.69,12.93,57.93,22.55,87.49h0s.04,.12,.04,.12h0c4.72,14.5,10.01,29.08,15.97,43.71-13.99-12.01-28.83-22.39-44.55-31.13-21.88-12.18-45.38-21.18-70.51-27-2.48-.58-4.97,.97-5.55,3.46-.58,2.5,.97,4.97,3.46,5.56,24.33,5.63,47.04,14.32,68.12,26.05,20.85,11.62,40.17,26.24,57.95,43.88,5.9,13.09,12.37,26.22,19.47,39.37l10.35-.31c-19.54-35.52-34.35-70.98-45.78-106.01-1.73-22.54,.93-45.08,8.01-67.59,7.18-22.84,18.9-45.73,35.15-68.63,1.47-2.08,.99-4.97-1.09-6.44-2.08-1.47-4.97-.99-6.44,1.09-16.8,23.69-28.94,47.43-36.41,71.2-4.24,13.51-6.99,27-8.22,40.51-13.86-50.07-21.55-99.01-27.16-145.71,5.42-19.79,11.48-36.55,18.17-50.24,6.65-13.64,13.89-24.16,21.69-31.53,1.86-1.75,1.94-4.68,.19-6.53-1.74-1.85-4.67-1.93-6.52-.18-8.64,8.17-16.54,19.58-23.68,34.2-4.44,9.09-8.6,19.48-12.5,31.16-1.36-12.34-2.6-24.5-3.84-36.47l-.96-9.31c0-.17-.03-.34-.05-.51-6.58-63.47-13.21-121.22-31.98-170.28Z" style="fill:#fff; fill-rule:evenodd;"/><path d="M363.47,1320.61c-16.05-8.65-35.37-13.21-46.59-27.58-13.24-16.95-10.57-41.86-21.69-60.27-13.98-23.19-44.54-29.07-66.5-44.89-21.5-15.51-18.57-25.04-30.08-48.92-17.36-35.98-67.19-69.52-102.02-40.02-35.36,29.97-12.61,65,6.69,90.44,13.73,18.12,11.64,22.46,15.32,44.89,4.44,27.1-4.79,59.06,13.48,79.57,11.3,12.68,30.06,16.5,41.58,28.99,13.04,14.15,13.53,35.31,18.19,53.98,7.3,29.21,21,51.66,43.84,69.08,42.61-2.24,90.15-4.29,141.85-6.12,9.29-9.56,16.6-21.01,21.04-33.6,13.12-37.14,.92-86.12-35.12-105.54Z" style="fill:#bcc9e7; fill-rule:evenodd;"/><path d="M129.2,1124.22c-1.34-1.38-3.56-1.42-4.94-.08-1.39,1.34-1.44,3.55-.09,4.94,6.72,6.98,13.09,14.55,19.24,22.64-1.27-.44-2.58-.84-3.89-1.22-5.87-1.65-12.14-2.6-18.8-2.87-1.93-.07-3.56,1.44-3.63,3.36-.07,1.93,1.44,3.56,3.36,3.63,6.12,.24,11.85,1.11,17.19,2.62,5.05,1.42,9.75,3.41,14.12,5.97,12.47,17.9,24.15,37.88,36.04,59.12-6.2-4.21-12.38-7.72-18.58-10.52-10.75-4.87-21.53-7.61-32.34-8.24-1.92-.11-3.57,1.36-3.69,3.29-.11,1.92,1.36,3.58,3.29,3.69,9.9,.57,19.85,3.12,29.86,7.65,9.95,4.49,19.91,10.94,29.89,19.31l3.19,5.78c7.02,12.69,14.22,25.71,21.79,38.91,.06,.12,.13,.26,.22,.38,7.92,13.79,16.25,27.77,25.22,41.77-11.52-7.79-23.04-14.09-34.56-18.94-16.89-7.09-33.78-11.04-50.67-11.83-1.93-.08-3.56,1.4-3.65,3.33-.09,1.93,1.41,3.57,3.34,3.66,16.06,.75,32.16,4.51,48.27,11.28,16.08,6.76,32.2,16.5,48.35,29.26,12.46,18.3,26.18,36.51,41.63,54.26h0s.05,.07,.05,.07h0c7.58,8.71,15.58,17.29,24.07,25.71-13.3-4.21-26.71-7.05-40.25-8.49-18.86-2-37.89-1.31-57.11,2.08-1.9,.33-3.18,2.15-2.85,4.05,.33,1.9,2.15,3.18,4.05,2.85,18.62-3.29,37.01-3.96,55.17-2.03,17.97,1.9,35.76,6.38,53.37,13.39,10.06,9.29,20.77,18.34,32.2,27.1l9.46-.33,.71-.74c-28.47-21.1-52.5-44.07-73.33-67.94-7.88-15.18-12.71-31.68-14.44-49.46-1.77-18.03-.39-37.45,4.14-58.22,.41-1.89-.78-3.75-2.67-4.16-1.89-.4-3.74,.78-4.16,2.67-4.68,21.48-6.11,41.61-4.27,60.38,1.04,10.67,3.13,20.89,6.27,30.66-24.49-30.76-44.34-62.58-62.09-93.45-2.08-15.39-2.83-28.86-2.23-40.38,.6-11.48,2.52-20.94,5.77-28.38,.77-1.77-.04-3.83-1.8-4.61-1.77-.77-3.83,.04-4.61,1.8-3.59,8.25-5.71,18.53-6.36,30.84-.39,7.65-.22,16.12,.53,25.41-4.61-8.19-9.08-16.3-13.49-24.26l-3.42-6.21c-.06-.12-.13-.23-.2-.34-23.38-42.26-45.1-80.52-72.72-109.14Z" style="fill:#e9eff8; fill-rule:evenodd;"/><path d="M1017.17,1538.94c560.25,0,1017.18-20.02,1017.18-44.55s-456.93-44.56-1017.18-44.56S0,1469.85,0,1494.4s456.93,44.55,1017.17,44.55Z" style="fill:#d0d9ee; fill-rule:evenodd;"/><path d="M684.38,50.42c58.98,3.55,94.86,51.97,97.33,107.81,1.05,23.76-17.6-38.36-82.98-47-40.55-5.37-46.63,6.58-61.17-10.15-14.54-16.74-.74-53.53,46.82-50.66Z" style="fill:#fff; fill-rule:evenodd;"/><path d="M1337,236.07c254.05,56.61,415.72,290.23,431.55,403.03,8.97,63.77-29.79-140.53-350.29-234.04-172.06-50.19-276.8-2.33-312.7-72.19-35.92-69.86,26.58-142.45,231.44-96.8Z" style="fill:#fff; fill-rule:evenodd;"/><polygon points="1460.28 463.41 1460.28 257.88 1773.47 257.88 1773.47 463.41 1593.38 463.41 1454.81 551.49 1522.92 463.41 1460.28 463.41" style="fill:#d0d9ee; fill-rule:evenodd;"/><path d="M528.28,1237.51c0,79.48,64.44,143.9,143.91,143.9s143.89-64.42,143.89-143.9-64.42-143.9-143.89-143.9-143.91,64.43-143.91,143.9Z" style="fill:#bcc9e7; fill-rule:evenodd;"/><path d="M639.61,1307.26h31.55c0-36.39,29.56-65.95,65.97-65.95v-31.55c-53.74,0-97.52,43.78-97.52,97.5Z" style="fill:#fff; fill-rule:evenodd;"/><path d="M576.62,1307.26h31.49c0-71.11,57.89-128.99,129.01-128.99v-31.52c-88.5,0-160.5,72.01-160.5,160.5Z" style="fill:#fff; fill-rule:evenodd;"/><path d="M703.2,1290.3c0,9.38,7.59,16.96,16.97,16.96,9.36,0,16.95-7.59,16.95-16.96,0-9.37-7.6-16.96-16.95-16.96s-16.97,7.6-16.97,16.96Z" style="fill:#fff; fill-rule:evenodd;"/><polygon points="734.39 1404.63 750.86 1392.84 750.86 1392.84 734.39 1404.63" style="fill:#399c9e; fill-rule:evenodd;"/><rect x="393.48" y="232.04" width="643.27" height="600.4" style="fill:#aab9de;"/><rect x="393.48" y="232.04" width="643.27" height="63.5" style="fill:#d0d9ee;"/><path d="M897.7,264.51c0,6.43-5.21,11.65-11.64,11.65s-11.64-5.22-11.64-11.65,5.21-11.64,11.64-11.64,11.64,5.21,11.64,11.64Z" style="fill:#fff; fill-rule:evenodd;"/><path d="M946.3,264.51c0,6.43-5.21,11.65-11.64,11.65s-11.64-5.22-11.64-11.65,5.21-11.64,11.64-11.64,11.64,5.21,11.64,11.64Z" style="fill:#fff; fill-rule:evenodd;"/><path d="M991.43,265.73c0,6.44-5.21,11.65-11.64,11.65s-11.64-5.21-11.64-11.65,5.21-11.63,11.64-11.63,11.64,5.21,11.64,11.63Z" style="fill:#fff; fill-rule:evenodd;"/><path d="M598.97,362.22h-91.11v-7.66h91.11v7.66h0Zm293.73,247.6h-76.89v7.66h76.89v-7.66h0Zm-28.72,41.25h-56.85v7.65h56.85v-7.65h0Zm115.85,41.25h-205.83v7.65h205.83v-7.65h0Zm-86.04,41.25h-105.32v7.65h105.32v-7.65h0Zm-25.3-247.61h-235.25v-7.66h235.25v7.66h0Zm20.31-41.25h-205.84v-7.66h205.84v7.66h0Zm-268.64,123.85h-107.82v7.67h107.82v-7.67h0Zm148.51,0h-107.83v7.67h107.83v-7.67h0Zm-2.34,41.25h-76.89v7.66h76.89v-7.66h0Zm-117.73,0h-76.89v7.66h76.89v-7.66h0Zm140.71,41.25h-204.27v7.65h204.27v-7.65h0Zm-47.43,41.25h-205.84v7.65h205.84v-7.65h0Zm13.51,41.25h-105.32v7.65h105.32v-7.65h0Zm-142.21,0h-105.33v7.65h105.33v-7.65h0Zm137.02-206.36h-72.4v-7.65h72.4v7.65h0Zm-103.38,0h-72.4v-7.65h72.4v7.65h0Zm.27-82.5h-62.05v-7.66h62.05v7.66h0Zm125.4-41.25h-71.82v-7.65h71.82v7.65h0Zm-95.19,0h-141.27v-7.65h141.27v7.65h0Zm28.59-41.24h-91.11v-7.66h91.11v7.66Z" style="fill:#fff; fill-rule:evenodd;"/><path d="M458.04,357.01h-9.8v-9.81h9.8v9.81h0Zm0,389.64h-9.8v-9.81h9.8v9.81h0Zm0-339.66h-9.8v-19.99h9.8v19.99h0Zm0,49.97h-9.8v-19.99h9.8v19.99h0Zm0,49.98h-9.8v-19.99h9.8v19.99h0Zm0,49.98h-9.8v-20h9.8v20h0Zm0,49.97h-9.8v-19.99h9.8v19.99h0Zm0,49.98h-9.8v-19.99h9.8v19.99h0Zm0,49.97h-9.8v-19.98h9.8v19.98Z" style="fill:#fff; fill-rule:evenodd;"/><rect x="1067.49" y="85" width="354.06" height="218.24" style="fill:#d0d9ee;"/><polygon points="1195.53 169.07 1143.3 191.37 1195.53 213.31 1188.68 229.1 1126.06 201.12 1126.06 181.76 1188.68 153.62 1195.53 169.07" style="fill:#fff; fill-rule:evenodd;"/><polygon points="1272.47 117.51 1234.58 263.1 1216.52 258.86 1254.58 113.44 1272.47 117.51" style="fill:#fff; fill-rule:evenodd;"/><polygon points="1363.1 181.76 1363.1 201.12 1300.47 229.1 1293.64 213.31 1345.69 191.37 1293.64 169.07 1300.47 153.62 1363.1 181.76" style="fill:#fff; fill-rule:evenodd;"/><rect x="188.75" y="151.32" width="338.46" height="226.38" style="fill:#99a9d4;"/><path d="M376.37,282.91c-19.99,19.98-52.5,19.98-72.48,0-19.98-19.98-19.98-52.49,0-72.47,19.99-19.99,52.5-19.99,72.48,0,19.98,19.98,19.98,52.5,0,72.48h0Zm-93.02-81.3c-21.09,26.39-20.76,64.94,.72,91.01,24.41,29.61,66.22,34.38,96.25,14.36l46.35,46.34c1.96,1.95,5.12,1.96,7.08,0l13.02-13.03c1.97-1.96,1.97-5.13,0-7.09l-46.34-46.34c18.77-28.15,15.77-66.63-9.05-91.45-30.19-30.19-80.6-28.12-108.03,6.19Z" style="fill:#fbfdff; fill-rule:evenodd;"/><path d="M1560.33,306.97h23.34v73.01c0,9.55-.84,16.9-2.52,22.05-2.25,6.71-6.33,12.1-12.26,16.17-5.9,4.05-13.71,6.1-23.42,6.1-11.38,0-20.11-3.17-26.23-9.53-6.15-6.36-9.23-15.69-9.29-27.97l22.05-2.58c.27,6.56,1.2,11.21,2.86,13.92,2.5,4.13,6.28,6.2,11.38,6.2s8.76-1.47,10.89-4.45c2.12-2.95,3.19-9.1,3.19-18.43v-74.49h0Zm42.03,77.89l22.69-2.24c1.36,7.59,4.1,13.14,8.26,16.7,4.16,3.57,9.76,5.33,16.82,5.33,7.45,0,13.09-1.57,16.87-4.74,3.78-3.16,5.68-6.86,5.68-11.1,0-2.74-.81-5.05-2.39-6.98-1.58-1.9-4.37-3.57-8.34-4.97-2.71-.96-8.87-2.62-18.53-5.05-12.42-3.11-21.14-6.91-26.15-11.45-7.06-6.36-10.57-14.11-10.57-23.26,0-5.87,1.66-11.4,4.96-16.52,3.33-5.13,8.1-9.01,14.35-11.69,6.25-2.68,13.77-4.03,22.62-4.03,14.4,0,25.27,3.2,32.53,9.61,7.3,6.41,11.11,14.94,11.48,25.65l-23.34,.8c-1-5.95-3.12-10.21-6.36-12.81-3.25-2.6-8.13-3.92-14.62-3.92s-11.97,1.39-15.75,4.18c-2.43,1.8-3.67,4.18-3.67,7.19,0,2.74,1.15,5.06,3.47,7,2.92,2.49,10.02,5.06,21.32,7.75,11.3,2.65,19.64,5.44,25.03,8.29,5.42,2.87,9.65,6.75,12.72,11.72s4.59,11.08,4.59,18.35c0,6.6-1.82,12.8-5.5,18.57-3.68,5.77-8.85,10.06-15.56,12.84-6.71,2.82-15.08,4.22-25.08,4.22-14.57,0-25.75-3.36-33.56-10.09-7.8-6.71-12.45-16.49-13.97-29.35Z" style="fill:#fff; fill-rule:evenodd;"/><path d="M1439.58,1363.04c-.1,.23-9.25,14.76-9.32,30.64-.04,8.26,2.74,17.2,10.96,23.67,8.21,6.46,21.23,10.4,41.4,10.42l1.23-.02h.59c15.18,.04,25.38,4.54,33.75,11.37,12.56,10.25,20.64,26.33,32.01,40.31,11.33,13.98,26.74,25.7,52.97,25.6,16.62-.02,37.51-4.5,64.83-15.41l-2.31-5.8c-26.87,10.73-47.05,14.97-62.53,14.97-16.28-.03-27.33-4.57-36.22-11.41-13.34-10.26-21.57-26.27-32.51-40.23-10.87-13.92-25.28-25.73-50-25.63h-1.82c-19.4,0-30.99-3.88-37.53-9.07-6.5-5.19-8.55-11.74-8.59-18.77-.02-6.71,2.06-13.64,4.18-18.82,1.06-2.6,2.14-4.75,2.92-6.25l.96-1.72,.32-.56-5.31-3.29Z" style="fill:#99a9d4; fill-rule:evenodd;"/><rect x="1117.09" y="1354.91" width="311.97" height="114.39" style="fill:#99a9d4;"/><path d="M1686.96,1366.34c0,17.23-13.97,31.2-31.2,31.2H890.39c-17.23,0-31.2-13.96-31.2-31.2V764.25c0-17.23,13.97-31.2,31.2-31.2h765.36c17.23,0,31.2,13.97,31.2,31.2v602.1Z" style="fill:#bcc9e7; fill-rule:evenodd;"/><rect x="1067.86" y="1448.51" width="407.64" height="20.8" style="fill:#aab9de;"/><rect x="922.8" y="1469.31" width="706.47" height="34.82" style="fill:#bcc9e7;"/><rect x="1650.33" y="1475.6" width="98.88" height="26.8" style="fill:#aab9de;"/><path d="M1749.21,1476.71c0-14.96-22.14-27.09-49.44-27.09s-49.43,12.13-49.43,27.09,22.13,27.08,49.43,27.08,49.44-12.12,49.44-27.08Z" style="fill:#aab9de; fill-rule:evenodd;"/><path d="M1355.78,1221.87c0,7.59-6.16,13.74-13.76,13.74s-13.74-6.15-13.74-13.74,6.15-13.75,13.74-13.75,13.76,6.16,13.76,13.75Z" style="fill:#6db9b9; fill-rule:evenodd;"/><path d="M1391.91,1221.87c0,7.59-6.17,13.74-13.74,13.74s-13.77-6.15-13.77-13.74,6.14-13.75,13.77-13.75,13.74,6.16,13.74,13.75Z" style="fill:#6db9b9; fill-rule:evenodd;"/><path d="M1428.04,1221.87c0,7.59-6.16,13.74-13.75,13.74s-13.75-6.15-13.75-13.74,6.14-13.75,13.75-13.75,13.75,6.16,13.75,13.75Z" style="fill:#6db9b9; fill-rule:evenodd;"/><rect x="1050.85" y="1284.4" width="386.98" height="34.49" style="fill:#f2f2f3;"/><rect x="892.46" y="776.72" width="749.77" height="537.19" style="fill:#fff;"/><rect x="892.41" y="775.25" width="749.84" height="57.3" style="fill:#99a9d4;"/><path d="M1537.43,804.65c0,9.36-7.6,16.94-16.96,16.94s-16.96-7.59-16.96-16.94,7.57-16.95,16.96-16.95,16.96,7.59,16.96,16.95Z" style="fill:#fff; fill-rule:evenodd;"/><path d="M1581.97,804.65c0,9.36-7.56,16.94-16.95,16.94s-16.92-7.59-16.92-16.94,7.58-16.95,16.92-16.95,16.95,7.59,16.95,16.95Z" style="fill:#fff; fill-rule:evenodd;"/><path d="M1626.52,804.65c0,9.36-7.56,16.94-16.95,16.94s-16.93-7.59-16.93-16.94,7.57-16.95,16.93-16.95,16.95,7.59,16.95,16.95Z" style="fill:#fff; fill-rule:evenodd;"/><rect x="907.02" y="794" width="231.33" height="21.27" style="fill:#fff;"/><rect x="925.64" y="877.09" width="293.83" height="237.33" style="fill:#d0d9ee;"/><path d="M1151.14,1005.22c0,47.97-38.89,86.85-86.86,86.85-32.11,0-60.16-17.42-75.19-43.3l75.19-43.55h86.86Z" style="fill:#f2f2f3; fill-rule:evenodd;"/><path d="M1135.43,949.22l-68.28,53.65,35.8-79.16c13.19,5.97,24.16,14.82,32.48,25.5Z" style="fill:#99a9d4; fill-rule:evenodd;"/><path d="M1064.28,918.35v86.87l-31.37-81.03c9.74-3.77,20.29-5.84,31.37-5.84Z" style="fill:#e9eff8; fill-rule:evenodd;"/><path d="M1064.28,1005.22l-75.19,43.54c-7.44-12.8-11.7-27.66-11.7-43.54,0-36.92,23.03-68.46,55.52-81.03l31.37,81.03Z" style="fill:#99a9d4; fill-rule:evenodd;"/><path d="M1609.56,908.51h-338.39v-31.42h338.39v31.42h0Zm0,209.77h-338.39v-15.71h338.39v15.71h0Zm0-29.74h-338.39v-15.7h338.39v15.7h0Zm0-29.72h-338.39v-15.71h338.39v15.71h0Zm0-29.72h-338.39v-15.71h338.39v15.71h0Zm0-29.72h-338.39v-15.72h338.39v15.72h0Zm0-29.73h-338.39v-15.71h338.39v15.71h0Zm0-29.73h-338.39v-15.71h338.39v15.71Z" style="fill:#d0d9ee; fill-rule:evenodd;"/><rect x="925.64" y="1185.22" width="139.14" height="99.29" style="fill:#d0d9ee;"/><rect x="930.17" y="1188.89" width="130.07" height="79.2" style="fill:#e9eff8;"/><polygon points="983.64 1212.62 983.64 1244.36 1009.88 1228.5 983.64 1212.62" style="fill:#fff; fill-rule:evenodd;"/><rect x="1098.15" y="1185.22" width="139.13" height="99.29" style="fill:#d0d9ee;"/><rect x="1102.67" y="1188.89" width="130.09" height="79.2" style="fill:#e9eff8;"/><polygon points="1156.14 1212.62 1156.14 1244.36 1182.4 1228.5 1156.14 1212.62" style="fill:#fff; fill-rule:evenodd;"/><rect x="1270.67" y="1185.22" width="139.16" height="99.29" style="fill:#d0d9ee;"/><rect x="1275.22" y="1188.89" width="130.06" height="79.2" style="fill:#e9eff8;"/><polygon points="1328.68 1212.62 1328.68 1244.36 1354.92 1228.5 1328.68 1212.62" style="fill:#fff; fill-rule:evenodd;"/><rect x="1443.17" y="1185.22" width="139.15" height="99.29" style="fill:#00747b;"/><rect x="1447.68" y="1188.89" width="130.11" height="79.2" style="fill:#e9eff8;"/><polygon points="1501.14 1212.62 1501.14 1244.36 1527.4 1228.5 1501.14 1212.62" style="fill:#fff; fill-rule:evenodd;"/><path d="M989.09,1154.98h-63.45v13.95h63.45v-13.95h0Zm222.23,0h-32.08v13.95h32.08v-13.95h0Zm183.64,0h-66.29v13.95h66.29v-13.95h0Zm-75.77,0h-48.53v13.95h48.53v-13.95h0Zm-157.55,0h-64.14v13.95h64.14v-13.95h0Zm402.83,6.98h-24.26v13.96h24.26v-13.96h0Zm-37.08,0h-84.22v13.96h84.22v-13.96h0Zm-498.71-6.98h-30.23v13.95h30.23v-13.95h0Zm31.55,0h-22.85v13.95h22.85v-13.95Z" style="fill:#e9eff8; fill-rule:evenodd;"/><path d="M1642.25,1131.71s0-.04-.03-.06v-60.33s.03,.02,.03,.02v60.38Z" style="fill:#7ea4b4; fill-rule:evenodd;"/><path d="M1642.25,1313.85h-.02v-182.22s.02,.05,.02,.07v182.14Z" style="fill:#c45e34; fill-rule:evenodd;"/><polygon points="1328.68 1244.36 1328.68 1212.62 1354.92 1228.5 1328.68 1244.36" style="fill:#fff; fill-rule:evenodd;"/><path d="M1582.32,1284.5h-139.15v-99.29h139.15v99.29h0Zm-134.63-95.62v79.2h130.11v-79.2h-130.11Z" style="fill:#d0d9ee; fill-rule:evenodd;"/><polygon points="1501.14 1244.36 1501.14 1212.62 1527.4 1228.5 1501.14 1244.36" style="fill:#fff; fill-rule:evenodd;"/><path d="M1084.09,630.54c.82,0,1.65-.28,2.33-.84,1.54-1.28,1.77-3.58,.48-5.13-17.6-21.16-27.3-48.01-27.3-75.57,0-13.2,2.16-26.17,6.43-38.53,.65-1.89-.36-3.97-2.26-4.62-1.9-.66-3.97,.36-4.62,2.25-4.53,13.13-6.81,26.89-6.81,40.9,0,29.27,10.28,57.76,28.97,80.23,.71,.86,1.74,1.31,2.79,1.31Z" style="fill:#fff; fill-rule:evenodd;"/><path d="M1008.57,583.49c29.19,5.54,65.8,16.92,109.85,34.12-2.98,.79-5.79,1.76-8.43,2.89-60.8-22.08-101.09-33.17-120.89-33.28,3.51-1.22,7.01-2.06,10.52-2.49-.29-32.37-1.97-61.04-5.03-85.98,7.5,38.68,12.15,66.94,13.98,84.73Z" style="fill:#406fb5; fill-rule:evenodd;"/><path d="M1118.42,617.62c13.53-4.04,25.53-3.14,36.01,2.69l-8.79,30.52c-1,3.46,.98,6.17,4.38,6.03l-8.14,.34c-3.66-2.06-7.44-3.36-11.34-3.9-7.42,4.72-17.17,3.7-29.25-3.07-.88-12.14,2.19-21.99,9.2-29.54-.17-.06-.33-.13-.5-.18,2.64-1.14,5.45-2.1,8.43-2.89Z" style="fill:#f4ae7c; fill-rule:evenodd;"/><path d="M1017.67,672.14c-1.87-10.97-3.7-22.75-5.5-35.34,22.92,6,52.75,11.69,89.48,17.07-.16-1.24-.29-2.45-.37-3.64,12.08,6.77,21.83,7.79,29.25,3.07,3.9,.54,7.68,1.84,11.34,3.9l-82.26,3.43c.99,5.57,3.42,9.81,7.16,12.38-17.3,.75-33.67,.45-49.09-.87Z" style="fill:#406fb5; fill-rule:evenodd;"/><path d="M1154.42,620.31c-7.85-4.38-16.56-5.98-26.12-4.8-15.73-33.99-6-82.31-28.16-156.06,15.97,8.02,34.57,46.81,55.82,116.38,2.3,1.96,5.42,4.18,9.36,6.65l-10.89,37.83Z" style="fill:#6998d0; fill-rule:evenodd;"/><path d="M1100.14,459.45c22.16,73.75,12.43,122.07,28.16,156.06-3.2,.39-6.49,1.1-9.89,2.11-44.05-17.21-80.66-28.58-109.85-34.12-1.83-17.8-6.48-46.05-13.98-84.73,3.06,24.95,4.74,53.61,5.03,85.98-3.5,.43-7,1.27-10.52,2.49,19.79,.11,60.08,11.2,120.89,33.28l.5,.18c-7.01,7.55-10.08,17.4-9.2,29.54,.08,1.19,.21,2.41,.37,3.64-36.74-5.38-66.56-11.07-89.48-17.07-18.88-4.95-33.06-10.1-42.57-15.46-24.82-41.32-28.69-94.68-11.6-160.06,9.23-11.78,29.86-16.17,61.86-13.17,33.38,28.16,48.64,29.52,45.81,4.06,14.57,.4,26.06,2.83,34.48,7.29Z" style="fill:#6998d0; fill-rule:evenodd;"/><path d="M1101.17,459.99c19.78,41.02,23.2,124.34,32.31,133.34,3.46,4.15,11.57,9.22,24.34,15.23l-.23,.82-3.15,10.93c-7.85-4.38-16.56-5.98-26.12-4.8-15.73-33.99-6-82.31-28.16-156.06,.34,.17,.68,.35,1.02,.55Z" style="fill:#406fb5; fill-rule:evenodd;"/><path d="M1276.62,667.58l-198.64,8.28c-10.22,.42-16.6-5.27-18.37-15.23l223.63-9.32,.61-.04c2.16-.08,5.33,.88,4.32,6.9-.92,4.95-6.12,9.19-11.55,9.41Z" style="fill:#8d9fca; fill-rule:evenodd;"/><path d="M1309.17,544.57l-128.36,5.35c-3.4,.14-7,3.09-8,6.54l-27.18,94.37c-1,3.46,.98,6.17,4.38,6.03l128.36-5.35c3.41-.14,7.01-3.08,8.01-6.54l27.18-94.37c1-3.45-.98-6.17-4.39-6.03Z" style="fill:#d0d9ee; fill-rule:evenodd;"/><path d="M1297.71,582.92l-16.72,58.05c-.84,2.87-3.88,5.52-6.91,5.66l-117.12,4.88c-2.95,.13-4.35-2.23-3.56-4.94l11.16-38.75c9.64,1.2,19.7,1.84,30.04,1.84,7.76,0,15.37-.36,22.76-1.04,1.46,3.94,5.19,6.64,9.99,6.64,6.11,0,11.92-4.37,13.97-10.16,22.42-4.56,41.87-12.3,56.39-22.18Z" style="fill:#8d9fca; fill-rule:evenodd;"/><path d="M1336.17,684.07c-9.81-6.38-17.38-12.29-22.74-17.75-8.32,3.74-16.24,7.15-23.79,10.18-18.23-2.35-39.56-4.62-64.02-6.8l51-2.12c5.43-.22,10.63-4.46,11.55-9.41,1.01-6.02-2.16-6.98-4.32-6.9l-.61,.04-4.87,.2c3.41-.14,7.01-3.08,8.01-6.54l13.43-46.64c8.19-.48,15.45-.63,21.79-.46,36.03,13.06,67.05,66.58,134.01,111.14-1.09,11.69-6.85,19.14-15.79,26.57-35.15-15.04-70.48-31.78-91.22-43.88-4.48-2.6-8.62-5.15-12.43-7.63Z" style="fill:#0f3d86; fill-rule:evenodd;"/><path d="M1527.24,713.98c-26.64,23.5-46.4,37.69-58.07,43.09-12.59,5.82-16.16,1.38-19.24-13.27,35.12-11.17,16.02-18.88,29.18-27.68,14.1-.86,30.15-7.45,48.12-19.76,11.28-1.18,12.58,5.76,0,17.62Z" style="fill:#0f3970; fill-rule:evenodd;"/><path d="M1520.25,683.36c-1.14,8.21-1.89,12.15-2.93,19.32h0s-.54,.32-.54,.32l-.27,.15-.28,.17-.52,.3h-.03s-.54,.32-.54,.32l-.24,.13-.3,.17-.49,.27-.05,.03-.54,.31-.21,.11-1.41,.75-.18,.1-.35,.19-.43,.22-.1,.05-.54,.28-.14,.07-.39,.2-.4,.2-.13,.07-.52,.26-.13,.06-.4,.2-.38,.18-.15,.07-.52,.25-.1,.04-.42,.21-.34,.16-.18,.08-.52,.24-.07,.03-.45,.21-.31,.14-.72,.31-.04,.02-.76,.33-.22,.1-.51,.22h-.02s-.48,.22-.48,.22l-.27,.11-.24,.1-.5,.21h0l-.51,.2-.23,.1-.27,.1-.47,.19h-.04s-.5,.2-.5,.2l-.21,.08-.3,.11-.45,.16-.05,.02-.49,.18-.18,.06-.32,.11-.41,.15-.08,.02-.49,.17-.15,.05-.34,.11-.49,.16-.49,.15-.13,.04-.36,.11-.37,.11-.13,.04-.49,.14-.11,.04-.38,.11-.34,.1-.14,.05-.48,.13-.08,.03-.4,.1-.31,.08-.17,.04-.49,.13-.95,.22-.48,.12h-.04l-.44,.1-.25,.06-.22,.04-.47,.11h0l-.47,.09-.45,.09h-.02l-.45,.08h-.02s-.47,.08-.47,.08l-.21,.04-.26,.05c.09-.86,.27-1.81,.56-2.86,10.13-9.85,19.1-20.47,24.71-41.52,7.79-8.24,11.88-4.89,10.08,12.29h0Zm-6.5,42.22c-2.07,11.3-4.57,21.79-7.04,27.2-5.24,11.51-15.01,5.59-25.7-2.42,8.73-5.63,19.7-13.86,32.74-24.78Z" style="fill:#142d4d; fill-rule:evenodd;"/><path d="M1498.32,711.84l-.33,.13-.06,.02-.49,.18-.18,.06-.32,.11-.41,.15-.08,.03-.49,.16-.15,.05-.34,.11-.49,.16-.49,.15-.13,.04-.36,.11-.37,.11-.13,.04-.49,.14-.11,.04-.38,.11-.34,.1-.14,.05-.48,.13-.08,.03-.4,.1-.31,.08-.17,.04-.49,.13-.95,.22-.48,.12h-.04l-.44,.1-.25,.06-.22,.05-.47,.1h0l-.47,.09-.46,.09h0l-.45,.08h-.02s-.47,.08-.47,.08l-.21,.04-.26,.05c.09-.86,.27-1.81,.56-2.86,10.13-9.85,19.1-20.47,24.71-41.52,2.03-2.16,3.82-3.51,5.3-4.04-1.18,17.35-6.9,32.29-17.15,44.82Z" style="fill:#0f3970; fill-rule:evenodd;"/><path d="M1453.33,742.67c-3.16-4.3-6.66-7.54-10.5-9.72,6.13-5.6,10.37-11.51,12.1-19.49,6.96,3.67,13.7,5.79,20.25,6.38-4.69,7.06,4.08,13.83-21.85,22.83Z" style="fill:#f4ae7c; fill-rule:evenodd;"/><path d="M1081.47,747.34c-42.86-2.71-60.33-34.76-59.5-74.86,14.16,1.02,29.09,1.2,44.8,.53,2.95,2.04,6.71,3.04,11.21,2.85l147.64-6.15c24.45,2.17,45.79,4.44,64.02,6.79,11.22,1.45,21.25,2.93,30.12,4.44,6.32,1.7,15.79,5.2,28.4,10.51l.43,.25c20.74,12.1,56.08,28.84,91.22,43.88,1.05-.87,2.06-1.75,3.02-2.63,3.83,2.17,7.34,5.41,10.5,9.72-1.08,.37-2.21,.75-3.41,1.13,.05,.25,.11,.49,.16,.74-100.08,9.09-133.04-6.12-159.57-14.13-86.88,15.51-128.71,21.2-209.04,16.94Z" style="fill:#0f3d86; fill-rule:evenodd;"/><path d="M1032.13,397.89c3.28-13.53,3.9-28.93,8.36-34.88,36.1-12.7,40.13,7.28,56.05,11.09,.17,4.94-1.35,10.49-4.54,16.61,1.21,21.87-3.93,35.39-15.41,40.53-2.9,3.07-7.68,4.86-14.32,5.39,.63,2.79,2.57,12.93,3.39,15.53h0c2.84,25.46-12.43,24.1-45.81-4.06l-.14-.02c.21-8.96,.96-15.83,.82-22.58-.11-4.6-.29-8.67-.56-12.25-11.95-12.45-14.31-22.54-7.09-30.27,9.46-4.47,14.95,1.89,16.47,19.08,2.82-1.1,.85-.16,2.78-4.17Z" style="fill:#f4ae7c; fill-rule:evenodd;"/><path d="M1096.54,374.1c-15.92-3.81-19.95-23.79-56.06-11.09-4.44,5.94-5.07,21.35-8.35,34.88-1.93,4,.04,3.07-2.78,4.17-1.52-17.2-7-23.55-16.47-19.08-7.22,7.73-4.86,17.82,7.09,30.27,.27,3.57,.45,7.65,.56,12.25-33.64-30.99-26.83-73.08-6.36-86.91-4.98,.52-10.07,2.45-15.24,5.79,7.45-9.99,17.5-13.46,30.12-10.42-1.37-7.06-1.1-12.28,.78-15.68,.58,4.79,1.53,8.48,2.86,11.08,8.11-7.41,23.67-9.12,39.6-3.13,20.63,7.77,41.94,26.72,50.05,21.07-1.22,19.47-12.28,31.28-25.8,26.8Z" style="fill:#0f3970; fill-rule:evenodd;"/><path d="M1041,430.51c5.99,3.86,13.07,5.9,21.26,6.12,.35,1.54,1.1,5.36,1.85,8.89-10.33-2.77-18.03-7.77-23.11-15.01Z" style="fill:#ed7d5b; fill-rule:evenodd;"/><path d="M1287.85,653.41c11.27-3.97,20.98-8.74,29.13-14.33,3.79,3.67,7.56,7.26,11.31,10.77,36.79,34.3,72.34,60.52,106.46,76.68,3.38,1.61,6.74,3.11,10.09,4.51-.65,.65-1.31,1.29-2,1.92l-3.03,2.63c-6.94-2.97-13.88-6.01-20.73-9.06-27.8-12.41-53.85-25.11-70.5-34.82-.14-.07-.29-.16-.43-.25-4.31-2.51-8.32-4.98-12.01-7.38-2.8-1.81-5.41-3.6-7.86-5.35-6.09-4.36-11.04-8.5-14.87-12.4-8.32,3.74-16.24,7.15-23.79,10.18-10.27-1.33-21.54-2.62-33.79-3.9-9.48-.98-19.56-1.95-30.23-2.89l30.23-1.27,20.77-.86c5.43-.22,10.63-4.46,11.55-9.41,.37-2.19,.18-3.72-.31-4.76Z" style="fill:#0f3970; fill-rule:evenodd;"/><path d="M1087.61,726.52c24.98,7.02,59.71,7.89,104.18,2.6,7.6-.85,14.94-1.72,22.03-2.6,15.2-1.88,29.21-3.79,42.03-5.73,12.76-1.94,24.34-3.91,34.75-5.91,7.58,4.46,16.32,8.35,26.2,11.64,3.68,1.23,7.51,2.37,11.49,3.43,31.23,8.31,72.21,11.67,122.94,10.08,.71,.83,1.41,1.71,2.09,2.64-1.08,.37-2.21,.75-3.41,1.13l.16,.74c-60.87,5.53-96.91,2.07-121.78-3.3-16.01-3.45-27.4-7.7-37.79-10.83-12.39,2.21-23.87,4.22-34.66,6.03-64.93,10.89-105.51,14.56-174.38,10.9-19.19-1.21-33.29-8.31-42.93-19.36-11.9-13.66-17.03-33.35-16.57-55.5,1.93,.14,3.87,.27,5.82,.38,3.93,.22,7.91,.37,11.95,.46,1.41,26.9,17.37,44.64,47.86,53.2Z" style="fill:#0f3970; fill-rule:evenodd;"/><path d="M1230.81,594.03c-4.79,0-9.31,3.88-10.09,8.67-.78,4.8,2.47,8.67,7.26,8.67s9.31-3.88,10.09-8.67c.78-4.79-2.47-8.67-7.26-8.67Z" style="fill:#8d9fca; fill-rule:evenodd;"/><path d="M1061.8,415.08c7.82,2.21,12.25,3.13,20.03,4.6,3.12,.58-5.5,7.34-20.58-4.27-.36-.28-.05-.5,.55-.33Z" style="fill:#e97850; fill-rule:evenodd;"/><path d="M1065.55,371.85c3.73,1.34,2.68,4.31-.34,4.25-32.06-.8-8.88-7.57,.34-4.25Z" style="fill:#0f3970; fill-rule:evenodd;"/><path d="M1082.76,373.85c-3.93,.39-3.64,3.53-.7,4.2,31.28,7.05,10.46-5.17,.7-4.2Z" style="fill:#0f3970; fill-rule:evenodd;"/><path d="M1072.39,407.19l.2,.04c3.52,.18,5.41,.22,6.38-.86,.9-.99,.68-2.43,.29-5.06-.45-2.91-1.11-7.34-.83-14.24,.02-.49-.38-.91-.88-.94-.5-.02-.92,.37-.95,.89-.28,7.06,.4,11.58,.85,14.58,.26,1.72,.49,3.21,.17,3.56-.43,.48-2.93,.36-4.92,.25-.51-.03-.93,.36-.97,.88-.02,.41,.27,.8,.67,.91Z" style="fill:#e97850; fill-rule:evenodd;"/><path d="M1087.05,395.3c2.23,.38,5.39-7.83-.03-8.72-2.88-.48-3.62,8.12,.03,8.72Z" style="fill:#0f3970; fill-rule:evenodd;"/><path d="M1059.06,391.2c2.23,.35,5.38-7.84-.03-8.73-2.89-.48-3.63,8.12,.03,8.73Z" style="fill:#0f3970; fill-rule:evenodd;"/><path d="M324.46,792.63c-8.04,4.62-10.5,12.23-15.94,15.05-15.77,1.49-31.32,2.7-38.72,7.84-28.95,34.99-52.33,65.94-70.16,92.82-7.22,14.89-5.77,29.27,4.35,43.15,12.4-11.46,25.85-14.36,40.35-8.69-.49-6.06-2.76-12.36-6.83-18.94,20.83-18.28,37.91-35.05,51.22-50.29-2.45,20,4.79,48.46,21.74,85.36,58.99,3.84,92.82,2.91,101.52-2.78,2.87-16.51,5.15-34.52,6.83-54.02,13.54,12.12,24.51,22.88,32.91,32.29,6.36,2.08,13.19,2.51,20.49,1.24,5.15-12.11,10.33-23.08,15.52-32.9-3.58-3.23-9.79-5.82-18.62-7.77-24.08-34.35-44.88-62.08-62.39-83.2-13.59-3.17-23.72-4.82-30.42-4.97-2.86-3.38-7.1-6.28-12.72-8.68,3.28,18.03,4.52,39.66,4.35,54.94-25.77-18.88-40.26-43.53-43.46-60.45Z" style="fill:#6998d0; fill-rule:evenodd;"/><path d="M280.72,1113.7c-12.23-75.78-2.32-127.36,29.76-154.77,49.82,3.25,81.7,3.09,95.64-.48,.14,5.33,.5,11.62,1.63,19.87,8.67,63.88,19.05,163.05,17.64,260.47-35.16,12.35-90.21,11.83-165.16-1.55,8.56-37.89,15.39-79.08,20.49-123.55Z" style="fill:#0f3970; fill-rule:evenodd;"/><path d="M376.3,806.83c3.04,8.9,4.65,16.24,4.85,22.04-3.47-2.77-6.03-4.65-7.68-5.67-1.27,14.28-3.12,24.25-5.55,29.88,.17-15.27-1.07-36.91-4.35-54.94,5.62,2.41,9.86,5.31,12.72,8.68Z" style="fill:#406fb5; fill-rule:evenodd;"/><path d="M324.46,792.63c3.21,16.92,17.69,41.58,43.46,60.45-15.4-5.46-32.23-18.84-41.87-36.63-1.59,6.02-3.61,13.06-6.05,21.11-6.7-8.31-10.52-18.27-11.48-29.88,5.44-2.82,7.9-10.43,15.94-15.05Z" style="fill:#406fb5; fill-rule:evenodd;"/><path d="M242.6,942.15c10.28,21,22.31,41.95,34.28,58.6,2.75-2.95,5.4-9.33,9.29-11.77,1.55-.97,4.01,1.54,5.67,.77,7.85-3.7,16.56-4.77,23.59,.5,1.77,1.32,2.71,3.91,2.96,10.04-.29,8.41-7.35,10.02-17.15,6.05-13.12,14.31-21.86,18.97-29.01,13.96-32.39-29.07-53.83-53.18-64.33-72.3,10.8-8.22,22.37-10.17,34.71-5.86Z" style="fill:#f4ae7c; fill-rule:evenodd;"/><path d="M576.62,938.55c-48.53,1.62-83.2,.33-103.99-3.84,5.02-11.74,10.06-22.39,15.11-31.95,38.7,5.74,71.84,9.97,99.41,12.67,9.91-6.8,18.19-9.59,24.84-8.39,1.83,4.18-.13,7.23-5.89,9.16-1.55,2.16-2.17,4.18-1.87,6.05,14.35,6.13,26.98,9.9,37.89,11.33,1.28,12.92-6.72,21.15-23.96,24.67-17.6-4.55-31.44-11.12-41.54-19.7Z" style="fill:#f4ae7c; fill-rule:evenodd;"/><path d="M275.64,1451.02c9.04,33.75,5.99,51.72-11.05,54.18-22.64,1.64-28.78-20.73-19.89-66.82-.2,2.51-.35,4.83-.45,6.91-2.51,48.28,34.95,37.48,32.34,15.25-.36-3.1-.66-6.28-.94-9.52Z" style="fill:#142d4d; fill-rule:evenodd;"/><path d="M276.58,1460.54c2.61,22.23-34.84,33.04-32.34-15.25,.1-2.07,.25-4.39,.45-6.91,1.53-19.67,5.69-51.17,5.38-71.02-.8-50.73,3.71-93.9,13.52-129.52,18.16,3.18,35.13,5.59,50.91,7.22-8.53,29.65-15.93,56.77-22.2,81.36-7.69,30.21-22.04,74.89-18.44,105.57,.77,6.57,1.25,12.93,1.78,19.04,.29,3.24,.58,6.42,.94,9.52Z" style="fill:#f4ae7c; fill-rule:evenodd;"/><path d="M426.35,1466.36c-13.07,.71-1.14,10.87-9.64,13.16-18.6-10.17-28.9-37.89-36.31-50.12-3.91-6.44-6.73,1.75-8.66,10.93-4.14,19.68-4.01,45.69,.66,53.77,3.39-5.93,6.31-24.16,9.41-35.3,18.25,16.23,14.26,34.11,25.09,40.22,25.95,2.87,39.98,3.58,59.69,4.01,4.33-16.76-29.94-11.1-40.24-36.66Z" style="fill:#142d4d; fill-rule:evenodd;"/><path d="M416.66,1241.49c-2.49,97.36-11.46,184.12,4.78,226.08-4.51,2.92,2.23,10.07-4.73,11.94-18.6-10.17-28.9-37.89-36.31-50.12-.04-.07-.08-.13-.13-.2,1.04-2.6,1.79-5.57,2.24-8.93-.32-80.75-20.52-130.57-16.61-172.61,19.65-.3,36.57-2.34,50.77-6.17Z" style="fill:#f4ae7c; fill-rule:evenodd;"/><path d="M453.49,934.95c6.53-12.42,13.07-25.41,19.61-38.99,6.74,1.8,11.63,4.07,14.65,6.8-5.06,9.56-10.09,20.21-15.11,31.95-.13,.31-.27,.63-.4,.95-6.64,1.15-12.88,.92-18.74-.71Z" style="fill:#406fb5; fill-rule:evenodd;"/><path d="M240.49,929.26c2.23,4.64,3.51,9.16,3.86,13.54-.58-.22-1.17-.44-1.75-.65-12.34-4.31-23.9-2.36-34.71,5.86,.03,.04,.04,.09,.07,.13-1.34,1.01-2.66,2.14-3.97,3.35-3.7-5.08-6.24-10.23-7.62-15.45,16.47-9.58,31.18-11.84,44.12-6.79Z" style="fill:#406fb5; fill-rule:evenodd;"/><path d="M363.97,787.59c-1.65,6.21-1.48,11.5,.51,15.87,2.6,16.84,3.6,35.82,3.45,49.62-24.6-18.02-38.91-41.31-42.95-58.1,3.25-5.25,4.59-11.39,4-18.4,.6-3.28-1.26-9.39-5.59-18.32-14.72-2.55-18.37-14.91-12.25-24.72,6.89-2.43,10.6,3.2,12.41,13.39,3.91-.58,2.42-6.83,2.01-9.78-1.84-8.49-.3-13.07,2.8-21.11,17.67,12.44,32.83,12.81,56.96,5.81-.71,5.79-1.22,11.38-1.55,16.77,6.62,16.1-3.5,43.5-19.79,48.97Z" style="fill:#f4ae7c; fill-rule:evenodd;"/><path d="M385.31,721.85c-24.13,7-39.29,6.63-56.96-5.81-3.1,8.05-4.64,12.63-2.8,21.11,.4,2.95,1.9,9.19-2.01,9.78-1.81-10.19-5.52-15.82-12.41-13.39-6.12,9.81-2.47,22.17,12.25,24.72,4.34,8.93,6.2,15.04,5.59,18.32,.59,7.01-.75,13.15-4,18.4-.2-.8-.37-1.59-.51-2.35-8.04,4.62-10.5,12.23-15.94,15.05-15.77,1.49-31.32,2.7-38.72,7.84-2.14,2.58-4.25,5.15-6.32,7.69-5.05-11.83-7.7-20.5-6.81-24.34,3.4-14.66,18.84-7.31,18.58-15.98-.42-13.52,18.68-24.13,16.14-37.62-5.19-27.6,5.59-35.97,5.65-38.07,.64-20.92,13.16-21.45,25.61-28.5,22.11-12.52,41.32,2.78,47.6,3.2,31.94,2.09,14.25,15.82,28.56,28.2,11.78,10.19,6.2,17.92,4.99,24.05-.54,2.77-3.11,14.13,5.05,19.88,11.96,8.42,1.02,26.11,8.07,28.25,27.15,8.23,14.91,16.42,14.17,35.4-.23,6.07-3.1,11.51-6.91,15.97-6.14-7.92-11.96-15.19-17.45-21.82-13.59-3.17-23.72-4.82-30.42-4.97-2.86-3.38-7.1-6.28-12.72-8.68,.31,1.74,.62,3.52,.9,5.32-1.99-4.36-2.16-9.65-.51-15.87,16.29-5.47,26.41-32.87,19.79-48.97,.33-5.4,.84-10.98,1.55-16.77Z" style="fill:#0f3970; fill-rule:evenodd;"/><path d="M363.97,787.59c-9.86,1.1-14.33,1.04-23.46-2.59,5.34,5.77,12.79,8.94,22.36,9.5,.08-2.16,.45-4.46,1.1-6.91Z" style="fill:#ed7d5b; fill-rule:evenodd;"/><path d="M350.76,771.55c8.05,1.1,12.62,.85,20.68-.04,3.23-.37-6.16,22.97-21.28,1.26-.36-.51-.02-1.31,.6-1.21Z" style="fill:#e97850; fill-rule:evenodd;"/><path d="M348.24,726.62c3.88,.77,3.28,3.87,.3,4.26-31.82,3.97-9.91-6.17-.3-4.26Z" style="fill:#0f3970; fill-rule:evenodd;"/><path d="M372.52,725.45c-3.84,.96-3.08,4.03-.08,4.26,31.99,2.33,9.58-6.67,.08-4.26Z" style="fill:#0f3970; fill-rule:evenodd;"/><path d="M360.25,760.56h.2c3.51-.33,5.38-.57,6.18-1.79,.75-1.1,.31-2.51-.47-5.06-.87-2.8-2.19-7.08-2.94-13.95-.06-.49-.51-.84-1.02-.8-.5,.05-.86,.49-.81,1.01,.77,7.02,2.12,11.4,3.01,14.29,.51,1.68,.96,3.12,.7,3.5-.36,.54-2.85,.79-4.84,.97-.5,.06-.87,.5-.82,1.02,.04,.41,.39,.75,.8,.8Z" style="fill:#e97850; fill-rule:evenodd;"/><path d="M379.94,746.03c2.25,.04,4.16-8.55-1.32-8.62-2.93-.04-2.38,8.57,1.32,8.62Z" style="fill:#0f3970; fill-rule:evenodd;"/><path d="M344.69,746.72c2.26,.03,4.17-8.54-1.32-8.62-2.93-.04-2.38,8.57,1.32,8.62Z" style="fill:#0f3970; fill-rule:evenodd;"/><path d="M351.23,772.02c-3.12,2.64,15.33,5.11,18.9,2.56,.39-.27,1.72-1.82,1.38-2.37-.32-.56-2.58,.09-3.18,.16-5.78,.72-11.13,.63-17.11-.35Z" style="fill:#fff; fill-rule:evenodd;"/><path d="M1609.26,1081.92c4.67,4.71,10.05,6.94,16.57,6.08-6.37,4.04-14.46-.08-16.57-6.08Z" style="fill:#ef8857; fill-rule:evenodd;"/><path d="M1862.18,794.8c6.02-28.97-7.84-57.72-34.36-68.56,.18-16.48-5.24-37.43-16.66-48.7-22.53-22.32-65.51-30.13-82.07-1.66-21.88,12.2-39.09,38.66-32.57,62.79-21.22,21.67-13.15,60.9,17.76,79.4-.49,24.35,12.54,48.48,34.08,58.88,5.18,2.53,13.27,6,14.3,7.09-1.36-1.3,15.97,46.31,69.74,24.49,54.87-22.17,65.54-84.74,29.78-113.72Z" style="fill:#0f3970; fill-rule:evenodd;"/><path d="M1603.81,1074.56s3.58-3.75,4.67-5.13c1.28-1.59,4.72-6.58,4.72-6.58,0,0,11.16-17.99,9.72-18.63-1.44-.73-5.12,1.37-6.21,2.24-1.1,.87-2.45,1.81-3.54,2.68-1.09,.86-2.68,.79-3.89-.36-1.2-1.23,2.35-5.71,3.89-6.94,4.82-4.05,19.9-12.28,21.45-13.22,1.85-1.09,15.28-35.69,20.86-47.18h0c8.56-19.07,16.36-39.09,17.25-41.11l10.77-88.37,34.97-8.95s-10.51,98.18-11.62,103.02c-.54,2.32-23.89,45.09-23.9,45.09-12.88,20.38-24.26,38.3-26.35,41.76,0,0-3.34,12.13-5.01,19.93-1.66,7.8-6.42,14.31-7.25,16.47-.11,.3-2.51,7.81-8.71,15.25-5.34,6.5-3.32-2.02-3.32-2.02,0,0,7.68-13.8,6.46-14.16-.94-.29-4.68,7.44-10.5,14.66-1.51,1.8-3,3.69-4.38,5.35-3.62,4.34-7.43,3.47-4.38-1.73,1.07-1.81,2.94-4.84,4.56-6.79,1.78-2.1,2.69-4.56,3.92-6.58,2.37-3.98,4.18-6.79,3.96-6.86-.3,0-.39-1.09-2.03,.86-2,2.32-5.11,8.09-8.29,11.27-1.82,1.81-5.39,5.85-5.39,5.85,0,0-6.47,5.78-6.91,5.5-2.33-1.45,1.07-6.94,3.88-9.03,1.03-2.25,4.91-6.36,4.91-6.36,0,0,5.89-10.04,4.44-10.84-1.18-.73-20.06,20.52-22.31,18.93-1.82-1.37,3.56-8.02,3.56-8.02Z" style="fill:#f4ae7c; fill-rule:evenodd;"/><path d="M1638.81,1043.27s-10.27,5.78-15.72,1.01c0,0,2.02,3.83,6.54,3.9,4.51,0,9.19-4.91,9.19-4.91Z" style="fill:#ec724c; fill-rule:evenodd;"/><path d="M1751.38,1086.84l-20.38,181.56s9.95,38.36,8.75,49.34c-1.2,10.84-22.14,153.97-22.14,153.97l.95,7.88,.51,23.27-78.3,.58s16.5-7.36,39.6-21.96c1.69-1,5.62-4.47,6.57-11.34,6.19-44.07-6.03-191.17-6.03-191.17l-9.6-191.54,80.06-.58Z" style="fill:#f4ae7c; fill-rule:evenodd;"/><path d="M1813.08,1120.29c4.38,1.09,11.14,156.93,14.78,163.86,23.06,43.79,28.53,176.87,28.53,176.87l9.52,18.63-2.18,17.92s-17.21,9.9-29.28,3.25l1.87-18,1.43-24.06-58.16-165.81-31.82-169.14,65.33-3.54Z" style="fill:#f4ae7c; fill-rule:evenodd;"/><path d="M1664.07,1204.75l-2.78-107.5c-.47-30.42,9.67-59.54,22.14-87.2l26.39-44.29c8.5,2.68,13.19-22.4,22.13-21.38,6.73,.72,11.36,2.31,17.61,2.67,11.78,.72,18.94,23.7,31.57,22.25,.06,.73,2.51,6.57,2.69,7.09,6.04,16.25,26.85,30.7,35.08,78.9,9.36,54.76,9.31,148.9,8.14,155.33-89.32,3.91-110.59,7.01-162.97-5.85Z" style="fill:#0f3970; fill-rule:evenodd;"/><path d="M1719.46,1508.85h-80.85c-2.97-.29-3.71-2.75-2.66-4.27,2.13-3.04,11.56-5.34,22.16-10.26,18.59,1.96,57.52-10.47,60.45-14.74,1.69,8.59,2.53,28.91,.9,29.26Z" style="fill:#142d4d; fill-rule:evenodd;"/><path d="M1865.86,1479.59s-7.18,20.38-14.94,19.73c-7.76-.58-14.56-16.55-14.56-16.55,0,0-2.92,13.44-1.56,20.88,1.36,7.44,12.43,15.1,19.99,11.71,7.58-3.25,17.85-20.52,11.07-35.77Z" style="fill:#142d4d; fill-rule:evenodd;"/><path d="M1715.6,896.18s-11.25-1.37-22.04-5.13c-6.47-2.24-17.26-7.16-17.26-7.16,0,0,6.05-50.65,21.28-81.35,5.86-11.78,12.47-18.21,20.39-20.24,.62-.14-2.38,113.87-2.38,113.87Z" style="fill:#406fb5; fill-rule:evenodd;"/><path d="M1696.04,838.88c2.29-8.23,7.38-19,10.29-26.51,4.94-12.64,6.4-24.42,10.77-29.48,2.36-2.75,32.5-2.32,36.21-2.68,1.52-.22,7.56,.22,13.39,.58v-.07c3.42,.43,37.39,3.04,42.34,5.13,24.48,23.7,36.3,55.49,54.71,90.31,0,0-13.78,7.8-24.77,12.71-4.79,2.09-13.95,5.57-13.95,5.57,0,0-11.58-19.94-18.17-28.68l-3.04-6.58c-.22-.14-1.33-1.3-1.65-.57-.49,1.23-21.14,110.68-21.14,110.68,0,0-57.63,5.34-72.38-1.66,0,0-2.7-73.26-8.13-94.72-1.99-7.95-8.16-20.81-4.49-34.03Z" style="fill:#6998d0; fill-rule:evenodd;"/><path d="M1770.83,747.05s-4.71,25.57-3.76,35.62c.94,10.11-3.59,42.63-23.91,42.7-20.35,.14-6.52-33.75-4.61-43.64,1.91-9.82,5.03-47.97,5.03-47.97l27.25,13.29Z" style="fill:#f4ae7c; fill-rule:evenodd;"/><path d="M1742.31,748.21c.31-8.38,1.84-15.03,1.84-15.03l26.68,13.87s-.95,5.28-1.93,11.93c-11.94,2.52-21.41-3.04-26.59-10.77Z" style="fill:#ed7d5b; fill-rule:evenodd;"/><path d="M1771.41,672.85s11.47,4.05,17.7,16.33c6.22,12.28,8.29,46.75-16.85,59.97-25.12,13.23-41.71-11.2-40.13-33.02,1.55-21.89,8.51-50.5,39.29-43.27Z" style="fill:#f4ae7c; fill-rule:evenodd;"/><path d="M1724.66,709.98c-.67,5.71,1.35,10.55,4.54,10.85,3.15,.29,6.24-4.05,6.91-9.76,.67-5.63-1.36-10.47-4.53-10.77-3.16-.29-6.27,4.05-6.92,9.68Z" style="fill:#f4ae7c; fill-rule:evenodd;"/><path d="M1786.88,719.53c-2.2,5.49-1.11,11.27,2.47,12.86,3.56,1.66,8.24-1.52,10.45-7.01,2.22-5.41,1.1-11.19-2.44-12.86-3.59-1.59-8.25,1.52-10.48,7.01Z" style="fill:#f4ae7c; fill-rule:evenodd;"/><path d="M1776.66,863.59l1.16,1.59c-.51,4.98,2.2,8.82,7.12,10.05l62.49,87.99-75.15,51.8c-4.28,2.96-10.18,1.96-13.18-2.24l-60.32-84.97c-2.78-3.91-1.8-9.32,2.16-12l75.73-52.24Z" style="fill:#406fb5; fill-rule:evenodd;"/><path d="M1784.94,875.23h0l-71.89,49.56c-4.16,2.89-9.13,2.96-11.12,.22-.98-1.37-1.02-3.25-.29-5.13,.71-1.8,2.2-3.69,4.29-5.14l71.88-49.56h0c-.45,4.91,2.29,8.75,7.12,10.05Z" style="fill:#f5fafb; fill-rule:evenodd;"/><path d="M1858.55,878.98c-5.03,2.75-12.84,6.86-19.57,9.9-3.21,1.37-8.34,3.39-11.41,4.55,7.38,13.73,14.38,27.88,13.48,30.77-.8,2.6-66.77,51.16-66.77,51.16l-13.19-1.73s-23.22,2.6-23.76,5.34c-.56,2.6,9.81,1.95,11.19,2.32,.75,.22,2.31,.72,3.59,1.59-2.08,.93-4.85,2.24-7.49,3.25,7.76,4.41,13.16,11.05,15.95,18.79,6.47-1.52,15.4-5.14,26.72-13.23,15.36-7.59,92.58-51,93.73-59.24,.67-4.91-11.09-30.35-22.47-53.46Z" style="fill:#f4ae7c; fill-rule:evenodd;"/><path d="M1736.28,980.63s-2.96,5.57-1.98,9.76c.98,4.18,2.02,5.34,3.1,9.1,1.06,3.83,1.17,4.7,5.05,8.03,3.86,3.32,22.45-3.84,22.45-3.84l-12.79-20.81-7.35,2.75s-4.65-.51-5.89-1.81c-1.27-1.37-2.58-3.18-2.58-3.18Z" style="fill:#f4ae7c; fill-rule:evenodd;"/><path d="M1769.53,733.48c-8.13,.12-12.63-.68-20.53-2.54-3.17-.76,3.34,23.54,20.98,3.83,.41-.47,.18-1.3-.45-1.28Z" style="fill:#e97850; fill-rule:evenodd;"/><path d="M1777.46,689.19c-3.95,.29-3.73,3.44-.81,4.18,31.11,7.79,10.58-4.93,.81-4.18Z" style="fill:#0f3970; fill-rule:evenodd;"/><path d="M1753.52,685.09c3.69,1.42,2.57,4.37-.44,4.24-32.03-1.56-8.7-7.79,.44-4.24Z" style="fill:#0f3970; fill-rule:evenodd;"/><path d="M1761.44,721.43l-.2-.02c-3.44-.76-5.27-1.23-5.92-2.53-.6-1.19,0-2.52,1.08-4.96,1.21-2.68,3.04-6.77,4.61-13.5,.12-.49,.61-.78,1.1-.67,.49,.11,.79,.6,.67,1.1-1.62,6.88-3.47,11.06-4.71,13.83-.72,1.59-1.33,2.97-1.11,3.38,.29,.58,2.72,1.13,4.68,1.56,.49,.11,.8,.59,.69,1.1-.09,.4-.48,.7-.89,.7Z" style="fill:#e97850; fill-rule:evenodd;"/><path d="M1743.65,704.61c-2.25-.23-3.09-8.99,2.36-8.41,2.91,.31,1.32,8.79-2.36,8.41Z" style="fill:#0f3970; fill-rule:evenodd;"/><path d="M1778.56,709.57c-2.25-.25-3.1-8.98,2.35-8.4,2.91,.31,1.32,8.79-2.35,8.4Z" style="fill:#0f3970; fill-rule:evenodd;"/><path d="M1769,733.89c2.78,3.01-15.84,3.21-19.07,.27-.36-.32-1.48-2.03-1.09-2.53,.39-.5,2.55,.4,3.13,.54,5.65,1.43,10.97,1.99,17.03,1.72Z" style="fill:#fff; fill-rule:evenodd;"/></g><path d="M660.29,959.99c-2.75,37.73-8.31,42.94-44.28,45.85,35.96,2.9,41.53,8.11,44.28,45.83,2.75-37.72,8.32-42.93,44.29-45.83-35.97-2.91-41.54-8.12-44.29-45.85h0Zm146.24,99.51c-1.47,20.15-4.45,22.92-23.64,24.48,19.2,1.54,22.17,4.33,23.64,24.47,1.46-20.14,4.44-22.92,23.64-24.47-19.21-1.55-22.18-4.33-23.64-24.48h0Zm-64.04-155.04c-1.48,20.4-4.49,23.21-23.95,24.78,19.46,1.57,22.47,4.39,23.95,24.79,1.49-20.4,4.5-23.22,23.95-24.79-19.45-1.57-22.46-4.38-23.95-24.78Z" style="fill:#fff; fill-rule:evenodd;"/><path d="M1222.72,443.99c-2.15,29.51-6.5,33.58-34.63,35.85,28.12,2.27,32.48,6.35,34.63,35.86,2.16-29.51,6.5-33.58,34.63-35.86-28.13-2.27-32.48-6.34-34.63-35.85h0Zm114.36,77.82c-1.15,15.76-3.47,17.93-18.49,19.14,15.01,1.22,17.34,3.39,18.49,19.14,1.14-15.75,3.47-17.92,18.49-19.14-15.02-1.2-17.35-3.38-18.49-19.14h0Zm-50.08-121.24c-1.17,15.95-3.52,18.16-18.72,19.38,15.2,1.23,17.56,3.43,18.72,19.39,1.16-15.96,3.52-18.16,18.73-19.39-15.21-1.22-17.57-3.43-18.73-19.38Z" style="fill:#fff; fill-rule:evenodd;"/></svg>