<?xml version="1.0" encoding="UTF-8"?><svg id="a" xmlns="http://www.w3.org/2000/svg" viewBox="0 0 1871.94 1551.65"><path d="M944.12,145.71c220.54,0,195.37,349.4,354.58,455.91,210.72,140.96,573.25,71.17,573.25,313.09,0,424.7-470.23,578.57-982.65,578.57S-60.36,1257.73,92.21,834.15C244.79,410.56,431.7,145.71,944.12,145.71Z" style="fill:#ede4f1; fill-rule:evenodd;"/><path d="M1428.68,126.44c142.93,432.95,135.52,865.79-22.17,1298.51,11.09-3.26,22.03-6.67,32.85-10.2,4.86-14.23,9.69-28.55,14.48-42.96,67.31-24.38,121.6-76.48,148.16-153.48,5.01-14.48,7.57-31.29,8.97-49.96l-76.38,18.29,77.53-39.8c2.55-71.23-3.67-163.87,38.62-256.54,8.04-17.6,13.92-35.5,17.99-53.55l-110.97,23.66,115.06-46.03c9.29-64.94-3.09-131.63-22.74-195.75l-72.89,47.21,67.28-64.85c-1.21-3.69-2.45-7.37-3.69-11.03-21.67-63.69-21.64-111.16-24.59-162.13l-45.99,2.35,44.75-21.05c-2.08-26.87-5.74-55.29-14.37-88-27.19-103.08-132.55-247.75-235.77-321.11,19.89,47.22,18.25,85.08,7.33,119.89l32.03,76.99-37.86-60.68c-18.12,45.47-49.36,87.25-64.52,140.44l93.34,112.04-99.83-81.86c-.81,5.6-1.43,11.34-1.8,17.22-6.5,100.21,45.56,226.21,56.96,336.28l102.19,76.87-100.48-55.12c.27,5.34,.44,10.62,.46,15.85,.37,62.45-26.3,106.8-53.64,147.65l134.54,175.73-150.85-151.48c-12.8,19.3-24.54,38.47-32.23,59.14-48.81,131.17,133.38,297.74,158.06,376.03,135.55-393.71,142.26-786.55,20.16-1178.53Z" style="fill:#d7cce5; fill-rule:evenodd;"/><path d="M48.1,829.37c1.8-3.23,.64-7.31-2.58-9.11-3.22-1.8-7.3-.64-9.11,2.57C-.44,889.01-9.32,955.23,9.77,1021.48c1.03,3.54,4.74,5.58,8.27,4.56,3.54-1.03,5.58-4.74,4.56-8.27-18.05-62.64-9.55-125.45,25.5-188.39h0Zm6.28,46.17c-5.49,18.08-9.72,35.46-12.15,52.28-2.41,16.64-3.08,32.72-1.5,48.36,.37,3.68-2.3,6.95-5.97,7.32-3.67,.37-6.95-2.3-7.32-5.97-1.69-16.79-.99-33.94,1.57-51.62,2.54-17.5,6.91-35.54,12.6-54.25,1.08-3.53,4.81-5.52,8.34-4.44,3.53,1.07,5.51,4.8,4.44,8.33Z" style="fill:#ede4f1; fill-rule:evenodd;"/><path d="M1688.71,421.91c95.59,289.54,94.51,579.02-3.24,868.44,52.63-40.64,95.94-88.18,127.62-143.27l-50.71,12.15,53.91-27.68c1.78-49.54-2.56-113.97,26.85-178.42,5.59-12.24,9.68-24.68,12.51-37.24l-77.18,16.46,80.02-32.01c6.46-45.16-2.15-91.55-15.81-136.14l-50.7,32.83,46.8-45.1c-.84-2.57-1.7-5.12-2.56-7.67-15.08-44.3-15.07-77.31-17.1-112.75l-31.99,1.63,31.13-14.64c-1.45-18.68-4-38.46-10-61.21-18.91-71.69-92.18-172.3-163.97-223.32,13.83,32.84,12.69,59.16,5.1,83.37l22.27,53.55-26.33-42.21c-12.6,31.62-34.33,60.68-44.87,97.66l64.92,77.91-69.43-56.93c-.55,3.9-.99,7.88-1.25,11.97-4.52,69.69,31.69,157.33,39.62,233.88l71.07,53.46-69.88-38.35c.19,3.72,.31,7.39,.32,11.03,.27,43.43-18.28,74.28-37.3,102.68l93.57,122.23-104.91-105.36c-8.9,13.43-17.06,26.76-22.42,41.14-33.96,91.23,92.76,207.06,109.93,261.52,94.27-273.82,98.94-547.03,14.01-819.63Z" style="fill:#c2b5d9; fill-rule:evenodd;"/><path d="M481.33,258.08l695.46-58.06c54.29-4.53,105.23,35.95,113.18,89.96l140.1,950.93c7.96,54-29.96,101.9-84.24,106.43l-695.46,58.06c-54.29,4.53-105.22-35.95-113.18-89.96L397.08,364.51c-7.95-54,29.96-101.9,84.25-106.43Z" style="fill:#5a53a2; fill-rule:evenodd;"/><path d="M485.41,285.83l695.47-58.05c38.95-3.26,75.48,25.79,81.19,64.53l140.1,950.93c5.71,38.74-21.49,73.1-60.44,76.34l-695.45,58.06c-38.95,3.24-75.49-25.79-81.19-64.53L424.98,362.18c-5.71-38.74,21.49-73.1,60.43-76.36Z" style="fill:#c2b5d9; fill-rule:evenodd;"/><polygon points="438 338.97 1119.99 227.36 1341.48 1198.88 659.47 1310.49 438 338.97" style="fill:#fff; fill-rule:evenodd;"/><polygon points="489.3 396.5 1098.9 294.76 1116.89 373.66 507.29 475.4 489.3 396.5" style="fill:#9588c0; fill-rule:evenodd;"/><path d="M547.63,520.36l546.47-89.74c7.12-1.16,14.84,3.65,15.9,10.82h0c1.06,7.19-2.89,13.91-10,15.08l-546.48,89.72c-7.11,1.16-14.84-3.63-15.9-10.82h0c-1.06-7.19,2.88-13.9,10-15.07h0Zm10.51,46.12c-7.12,1.18-11.62,7.95-10,15.07h0c1.62,7.13,8.79,11.99,15.9,10.83l378.02-62.18c7.12-1.16,11.62-7.94,10-15.05h0c-1.62-7.13-8.78-12.01-15.9-10.83l-378.02,62.16Z" style="fill:#d7cce5; fill-rule:evenodd;"/><polygon points="567.77 661.32 645.47 648.6 663.18 726.28 585.48 738.99 567.77 661.32" style="fill:#9588c0; fill-rule:evenodd;"/><path d="M707.16,641.44l421.79-69.02c7.12-1.17,14.27,3.69,15.89,10.82h0c1.62,7.12-2.87,13.9-10,15.07l-421.78,69.02c-7.13,1.17-14.28-3.71-15.9-10.82h0c-1.62-7.13,2.88-13.9,10-15.07h0Zm10.51,46.12c-7.12,1.17-11.62,7.95-10,15.07h0c1.63,7.13,8.78,11.99,15.9,10.82l253.33-41.46c7.13-1.16,11.62-7.94,10-15.06h0c-1.62-7.13-8.78-11.99-15.9-10.83l-253.33,41.46Z" style="fill:#d7cce5; fill-rule:evenodd;"/><polygon points="596.52 787.44 674.22 774.73 691.92 852.39 614.23 865.11 596.52 787.44" style="fill:#9588c0; fill-rule:evenodd;"/><path d="M735.91,767.56l421.78-69.02c7.13-1.17,14.27,3.71,15.9,10.82h0c1.62,7.13-2.88,13.9-10,15.07l-421.79,69.02c-7.12,1.17-14.28-3.71-15.9-10.82h0c-1.62-7.12,2.88-13.9,10-15.07h0Zm10.51,46.13c-7.12,1.16-11.62,7.94-10,15.05h0c1.63,7.13,8.78,11.99,15.9,10.83l253.34-41.46c7.12-1.17,11.62-7.94,9.99-15.07h0c-1.62-7.12-8.78-11.99-15.89-10.82l-253.34,41.46Z" style="fill:#d7cce5; fill-rule:evenodd;"/><polygon points="625.28 913.55 702.97 900.84 720.68 978.52 642.98 991.23 625.28 913.55" style="fill:#9588c0; fill-rule:evenodd;"/><path d="M764.66,893.68l421.78-69.03c7.13-1.16,14.28,3.71,15.9,10.82h0c1.62,7.13-2.87,13.91-10,15.07l-421.78,69.03c-7.12,1.16-14.28-3.71-15.9-10.82h0c-1.62-7.13,2.88-13.91,10-15.07h0Zm10.51,46.12c-7.12,1.17-11.62,7.94-10,15.07h0c1.62,7.12,8.78,11.99,15.9,10.82l253.33-41.46c7.12-1.16,11.62-7.94,10-15.07h0c-1.62-7.12-8.78-11.99-15.9-10.82l-253.33,41.46Z" style="fill:#d7cce5; fill-rule:evenodd;"/><polygon points="654.03 1039.68 731.72 1026.97 749.43 1104.63 671.73 1117.35 654.03 1039.68" style="fill:#9588c0; fill-rule:evenodd;"/><path d="M793.42,1019.8l421.78-69.03c7.12-1.16,14.27,3.71,15.89,10.84h0c1.63,7.12-2.87,13.9-10,15.07l-421.78,69.02c-7.12,1.17-14.28-3.71-15.9-10.82h0c-1.62-7.13,2.88-13.9,10-15.07h0Zm10.51,46.12c-7.12,1.17-11.63,7.95-10,15.07h0c1.63,7.13,8.78,11.99,15.9,10.83l253.33-41.46c7.13-1.17,11.62-7.95,10-15.07h0c-1.62-7.13-8.78-11.99-15.89-10.83l-253.33,41.46Z" style="fill:#d7cce5; fill-rule:evenodd;"/><polygon points="682.77 1165.79 760.48 1153.08 778.18 1230.75 700.48 1243.46 682.77 1165.79" style="fill:#9588c0; fill-rule:evenodd;"/><path d="M822.17,1145.91l421.78-69.02c7.13-1.17,14.28,3.71,15.9,10.82h0c1.62,7.13-2.88,13.9-10,15.07l-421.78,69.03c-7.12,1.16-14.28-3.71-15.9-10.84h0c-1.63-7.12,2.87-13.9,10-15.07h0Zm10.51,46.13c-7.13,1.16-11.62,7.94-10,15.05h0c1.62,7.13,8.78,11.99,15.9,10.83l253.33-41.46c7.12-1.17,11.62-7.95,10-15.07h0c-1.63-7.12-8.78-11.99-15.9-10.82l-253.33,41.46Z" style="fill:#d7cce5; fill-rule:evenodd;"/><path d="M649.92,200.15l122.31-10.22-3.78-25.63c-4.07-27.6,15.31-52.07,43.05-54.39h0c27.75-2.32,53.77,18.37,57.84,45.98l3.78,25.63,122.3-10.22c16.78-1.39,32.5,11.1,34.96,27.78l8.5,57.76c2.46,16.69-9.25,31.47-26.02,32.88l-345.5,28.84c-16.77,1.4-32.5-11.1-34.95-27.78l-8.51-57.76c-2.46-16.68,9.25-31.47,26.02-32.86h0Zm165.99-60.27c-12.33,1.03-20.85,11.8-19.04,24.06,1.8,12.26,13.26,21.37,25.59,20.34,12.33-1.03,20.86-11.81,19.05-24.08-1.81-12.26-13.27-21.36-25.59-20.33Z" style="fill:#2b2870; fill-rule:evenodd;"/><path d="M567.55,667.69c-3.35-3.47-3.37-8.81-.05-11.9,3.33-3.1,8.73-2.79,12.08,.69l35.9,37.32,60.39-77.37c2.79-3.59,8.14-4.08,11.95-1.09,3.81,2.97,4.65,8.3,1.85,11.89l-66.27,84.9c-.26,.32-.53,.62-.84,.91-3.33,3.09-8.73,2.78-12.08-.69l-42.94-44.65Z" style="fill:#2b2870; fill-rule:evenodd;"/><path d="M596.29,793.81c-3.35-3.47-3.36-8.81-.04-11.9,3.32-3.1,8.73-2.79,12.08,.69l35.89,37.32,60.39-77.37c2.79-3.59,8.15-4.08,11.95-1.09,3.81,2.97,4.64,8.3,1.85,11.89l-66.27,84.9c-.26,.32-.53,.63-.84,.91-3.33,3.09-8.74,2.78-12.08-.69l-42.94-44.65Z" style="fill:#2b2870; fill-rule:evenodd;"/><path d="M625.04,919.93c-3.35-3.49-3.36-8.81-.04-11.92,3.32-3.1,8.74-2.79,12.08,.69l35.89,37.32,60.39-77.37c2.79-3.58,8.14-4.08,11.95-1.09,3.81,2.99,4.64,8.31,1.85,11.89l-66.27,84.91c-.26,.31-.53,.62-.84,.9-3.32,3.1-8.73,2.78-12.08-.69l-42.94-44.64Z" style="fill:#2b2870; fill-rule:evenodd;"/><path d="M1379.4,1389.93c242.75,0,439.54,36.21,439.54,80.86s-196.79,80.86-439.54,80.86-439.55-36.2-439.55-80.86,196.79-80.86,439.55-80.86Z" style="fill:#d1c6e2; fill-rule:evenodd;"/><path d="M1626.29,1401.82c20.6-13.46,19.57-25.52,30.33-34.16,10.83-8.71,9.74-19.22-4.92-27.34-16.68-10.85-23.65,32.27-30.59,29.09-4.63-2.11-10.01-10.38-11.53-5.28-4.93,29.41-22.92,24.89-23.1,37.75,3.59,16.23,30.36,6.11,39.8-.06Z" style="fill:#1b2452; fill-rule:evenodd;"/><path d="M1155.44,1488.14c40.2,14.82,70.24,25.89,85.72,26.87,16.7,1.05,17.13-9.2,14.21-27.04-44.35,2.75-26.25-14.24-44.88-18.4-16.23,5.17-37.15,4.76-62.73-1.23-13.19,3.59-11.63,11.95,7.68,19.8Z" style="fill:#1b2452; fill-rule:evenodd;"/><path d="M1376.8,610.91c-.23,1.94-1.7,3.92-2.5,5.64-.21,.45-.77,.76-.79,1.2-.31,26.79,22.54,20.7,68.57-18.26,14.67,5.71,27.96,11.57,39.88,17.55,29.59,2.62,73.54-15.63,131.85-54.76,44.93-56.33,80.91-92.13,107.93-107.39,7.05,10.54,15.56,17.81,25.52,21.8-30.3,48.93-62.91,91.29-97.83,127.07-40.75,50.68-88.95,98.89-144.62,144.62-32.34,71.32-35.18,129.99-8.51,175.98-86.86-10.22-109.63,43.04-162.95,73.64-26.38-114.35-32.49-234.07-21-303.31-51.6-50.6-89.17-91-112.72-121.21-21.8-33.53-40.93-81.91-57.43-145.15,12.52-11.8,24.04-16.06,34.56-12.75,29.11,43.87,50.9,84.45,65.39,121.75,41.91,29.9,72.39,52.94,91.44,69.11,11.58,3.29,27.83,4.76,43.2,4.49Z" style="fill:#ed2c3f; fill-rule:evenodd;"/><path d="M1649.14,604.12c-40.69,50.54-88.8,98.63-144.32,144.24-32.34,71.32-35.18,129.99-8.51,175.98-5.78-.68-11.26-1.07-16.51-1.21-25.3-51.38-20.95-113.52,13.05-186.44,37.38-23.74,89.52-67.93,156.29-132.57Z" style="fill:#c6202d; fill-rule:evenodd;"/><path d="M1721.13,383.66c10.78,35.13,11.62,59.76,2.5,73.9,5.73,7.82,12.35,13.63,19.87,17.41,6.24-6.91,12.78-13.73,21.23-16.07,30.78-19.4,37.24-28.18,47.58-52.23,2.32-14.66-7.26-28.3-28.71-40.94-20.9,34.7-35.26,48.52-43.05,41.47-3.46-19.62-9.93-27.46-19.42-23.53Z" style="fill:#fab688; fill-rule:evenodd;"/><path d="M1197.48,347.72c-21.62,29.71-30.41,52.73-26.38,69.07-7.96,5.53-16.12,8.87-24.46,10-3.65-8.57-7.62-17.15-14.85-22.11-22.79-28.36-26.06-38.76-28.01-64.88,2.59-14.6,16.07-24.38,40.47-29.36,8.48,39.61,17.55,57.35,27.23,53.22,9.65-17.44,18.32-22.74,26-15.94Z" style="fill:#fab688; fill-rule:evenodd;"/><path d="M1441.54,599.96c-1.56-3.36-2.69-6.4-3.33-8.83,1.58-3.99,3.27-9.03,5.06-15.15,27.04-16.86,31.15-29.94,12.34-39.27-3.94,2.01-8.98,8.48-15.14,19.42-4.56-.36-7.93-2.83-10.1-7.41,6.18-18.62,10.31-33.78,12.4-45.47-12.22-19.79-42.48-23.73-82.85-20.09-2.29,10.62-4.26,21.89-5.92,33.8-7.36,6.27-7.39,30.57-1.93,58.79-3.9,15.79,5.58,24.85,28.44,27.19,.12,5.66-5.74,14.28-6.14,15.05-.17,.33-.45,.66-.82,.97,.4,25.26,23.06,18.92,68-19.01Z" style="fill:#fab688; fill-rule:evenodd;"/><path d="M1359.91,483.16c40.38-3.64,70.63,.3,82.85,20.09-2.1,11.7-6.23,26.85-12.4,45.47,2.17,4.58,5.55,7.05,10.1,7.41,6.16-10.94,11.21-17.41,15.14-19.43,18.81,9.33,14.7,22.43-12.35,39.28-1.78,6.11-3.47,11.16-5.04,15.15,23.91-4.39,44.55-24.81,47.7-33.87,29.76-53.4-.15-77.6-16.33-86.64-5.17-54.24-85.38-9.61-123.61-37.15-16.44,20.94,1.79,48.72,13.94,49.68Z" style="fill:#1b2452; fill-rule:evenodd;"/><path d="M1413.76,597.4c-9.43,4.21-20.52,6.06-33.26,5.55,.09,4.95-4.36,12.17-5.75,14.42,16.48,.45,29.49-6.2,39.01-19.97Z" style="fill:#ed7d57; fill-rule:evenodd;"/><path d="M1471.94,1051.4c40.64-45.25,46.18-83.29,14.55-127.97-72.06-4.77-97.5,36.87-140.46,66.51-64.63,83.19-116.09,149.57-127.58,189.59,12.57,90.34,8.63,170.52,1.07,267.42,10.71,9.74,25.07,15.59,43.05,17.55,43.92-110.36,51.19-196.67,43.09-249.36,72.61-62.6,127.35-120.4,166.27-163.75Z" style="fill:#1b2452; fill-rule:evenodd;"/><path d="M1458.99,1162.25c-2.64-26.49-2.82-58.48-.54-95.95-26.4,28.89-59.01,62.93-98.32,99.85,3.72,19.98,10.36,36.6,19.91,45.55,64.25,21.55,122.55,48.58,219.06,140.62,19.06-5.79,27.3-12.43,33.75-33.22-78.11-97.05-122.01-146.35-173.85-156.84Z" style="fill:#0a1740; fill-rule:evenodd;"/><path d="M1458.56,955.32l-44.57-16.78c-5.74,3.22-11.16,6.79-16.39,10.59l63.1,23.74-2.14-17.55Z" style="fill:#3c3392; fill-rule:evenodd;"/><path d="M1223,1449.89c-1.99,9.08-5.08,15.97-9.28,20.65,12.84,5.15,1.08,18.99,37.55,17.63-.28-7.53,.55-15.87,2.51-24.99-12.19-2.38-22.44-6.81-30.78-13.29h0Zm405.66-119.85c-4.81,9.96-11.08,15.26-21.14,19.35,2.38,4.41,4.04,8.92,4.95,13.49,2.37,1.25,5.66,5.16,8.65,6.52,4.99,2.29,10.01-19.47,18.67-27.74-3.62-3.28-7.34-7.15-11.13-11.62Z" style="fill:#fab688; fill-rule:evenodd;"/><path d="M416.62,1069.48c-102.01,2.29-227.99,65.17-227.99,216.96s119.17,216.69,227.99,216.95c51.61,.12,105.67-20.41,145.56-56.2,44.22-39.7,71.61-97.86,71.39-160.74-.23-69.46-34.51-133.67-86.86-173.57-37.95-28.94-87.22-44.34-130.09-43.39Z" style="fill:#2b2870; fill-rule:evenodd;"/><path d="M416.62,1080.02c-114,0-206.41,92.41-206.41,206.41s92.41,206.42,206.41,206.42,206.42-92.41,206.42-206.42-92.41-206.41-206.42-206.41Z" style="fill:#8071b3; fill-rule:evenodd;"/><path d="M416.62,1149.43c-75.66,0-137,61.34-137,137s61.34,137.01,137,137.01,137-61.34,137-137.01-61.34-137-137-137Z" style="fill:#d7cce5; fill-rule:evenodd;"/><path d="M418.23,1218.4c-38.47,0-69.65,31.18-69.65,69.64s31.18,69.64,69.65,69.64,69.64-31.18,69.64-69.64-31.18-69.64-69.64-69.64Z" style="fill:#8071b3; fill-rule:evenodd;"/><path d="M418.22,1288.03c-32.93-9.61-82.47-41.32-90.29-46.36-87.65-56.68-150.16-97.11-237.81-153.79-4.12-2.68-5.04-8.67-2.02-13.33h0c3.02-4.67,8.86-6.29,12.99-3.63,87.65,56.68,150.16,97.11,237.81,153.79,7.81,5.06,57.04,37.24,79.32,63.32Z" style="fill:#ede4f1; fill-rule:evenodd;"/><path d="M331.58,1236.04l-237.81-153.79c-4.12-2.66-6.68-6.14-5.66-7.7-3.02,4.66-2.1,10.65,2.02,13.33l9.27,6,18.18,11.76,18.19,11.75,18.18,11.76,18.18,11.76,155.81,100.77c7.81,5.04,57.36,36.75,90.29,46.36-29.39-15.08-78.83-46.94-86.64-52Z" style="fill:#b6a9d2; fill-rule:evenodd;"/><path d="M172.13,1140.91l-44.15,18.46c-3.9,1.63-10.6,.68-14.91-2.1l-58.26-37.68c-3.66-2.37-3.94-5.44-.62-6.83l45.2-18.89,72.73,47.03Z" style="fill:#8071b3; fill-rule:evenodd;"/><path d="M183.09,1123.95l-1.27-47.83c-.12-4.23-3.72-9.96-8.02-12.74l-58.26-37.68c-3.67-2.37-6.58-1.36-6.48,2.24l1.31,48.97,72.73,47.03Z" style="fill:#8071b3; fill-rule:evenodd;"/><path d="M361.36,1200.92c-26.52-21.77-59.65-70.36-64.86-78.08-58.37-86.52-100.02-148.23-158.39-234.77-2.75-4.07-1.24-9.95,3.37-13.05h0c4.6-3.11,10.62-2.32,13.37,1.76,58.37,86.52,100.02,148.23,158.39,234.75,5.21,7.72,37.86,56.64,48.12,89.38Z" style="fill:#ede4f1; fill-rule:evenodd;"/><path d="M302.06,1119.1l-158.4-234.77c-2.75-4.08-3.74-8.26-2.19-9.3-4.61,3.1-6.12,8.98-3.37,13.05l6.17,9.15,12.11,17.95,12.11,17.96,12.11,17.95,12.12,17.95,103.78,153.8c5.21,7.72,38.34,56.31,64.86,78.08-21.12-25.41-54.09-74.12-59.29-81.82Z" style="fill:#b6a9d2; fill-rule:evenodd;"/><path d="M192.72,969.04l-47.85-.35c-4.23-.03-10.02-3.53-12.89-7.77l-38.8-57.52c-2.44-3.62-1.49-6.55,2.1-6.52l48.99,.35,48.45,71.81Z" style="fill:#8071b3; fill-rule:evenodd;"/><path d="M209.46,957.74l17.6-44.51c1.55-3.92,.48-10.6-2.38-14.86l-38.81-57.5c-2.44-3.62-5.52-3.83-6.84-.49l-18.01,45.56,48.45,71.8Z" style="fill:#8071b3; fill-rule:evenodd;"/><path d="M288.64,359.48c64.05-37.15,100.28-73.79,118.62-111.91l-57.9-60.36c-38.83,16.74-76.96,51.42-116.75,113.86l56.02,58.41Z" style="fill:#b6a9d2; fill-rule:evenodd;"/><path d="M288.64,359.48c64.05-37.15,100.28-73.79,118.62-111.91l-17.15-17.89c-30.04,38.8-74.85,79.25-125.34,104.91l23.87,24.89Z" style="fill:#8071b3; fill-rule:evenodd;"/><path d="M407.28,247.57c11.39-23.66,15.88-47.88,15.84-73.14-25.23-1.09-49.62,2.38-73.74,12.78l57.9,60.36Z" style="fill:#9588c0; fill-rule:evenodd;"/><polygon points="237.4 306.05 283.86 354.5 274.26 359.57 231.94 315.43 237.4 306.05" style="fill:#3f4979; fill-rule:evenodd;"/><path d="M358.53,236.38c10.97,11.44,10.59,29.6-.84,40.57-11.44,10.96-29.6,10.59-40.56-.85-10.97-11.44-10.59-29.6,.84-40.57,11.43-10.96,29.6-10.59,40.56,.85Z" style="fill:#1b2452; fill-rule:evenodd;"/><path d="M351.89,242.75c7.45,7.77,7.2,20.11-.57,27.56-7.77,7.45-20.11,7.19-27.57-.58-7.46-7.76-7.2-20.11,.57-27.56,7.77-7.45,20.11-7.19,27.57,.58Z" style="fill:#b6a9d2; fill-rule:evenodd;"/><path d="M338.02,192.64l63.36,66.06c2.14-3.69,4.1-7.41,5.89-11.13l-57.9-60.36c-3.79,1.63-7.58,3.45-11.36,5.43Z" style="fill:#3f4979; fill-rule:evenodd;"/><path d="M407.28,247.57c11.39-23.66,15.88-47.88,15.84-73.14-6.47,16.59-17.86,35.71-33,55.25l17.16,17.89Z" style="fill:#6251a1; fill-rule:evenodd;"/><path d="M407.27,247.57l-17.15-17.89c-2.42,3.13-4.94,6.27-7.55,9.41l18.81,19.61c2.14-3.69,4.1-7.41,5.89-11.13Z" style="fill:#1b2452; fill-rule:evenodd;"/><path d="M283.86,354.5l-13.58-14.15c-3.29,1.63-6.61,3.2-9.94,4.72l13.92,14.5,9.6-5.07Z" style="fill:#1b2452; fill-rule:evenodd;"/><path d="M225,402.42c21.57-11.34,36.16-27.51,43.81-48.54l-15.74-16.41-15.74-16.41c-21.32,6.76-38.09,20.68-50.31,41.74,5.38-1.24,10-1.99,13.88-2.25-12.04,12.43-17.38,26.53-16.01,42.31,15.7,2.03,30.02-2.71,42.94-14.23-.42,3.86-1.37,8.45-2.83,13.78Z" style="fill:#9588c0; fill-rule:evenodd;"/><path d="M197.52,355.85c1.02-.12,2.03-.21,3.04-.28l12.99-.89-9.06,9.35c-9.47,9.77-14.87,21-14.81,34.24,13.23,.6,24.67-4.31,34.83-13.37l9.71-8.66-1.43,12.94c-.11,1-.24,2.02-.41,3.02,13.76-9.24,26.07-26.73,32.45-42.48l-23.94-24.96c-16.01,5.71-33.57,17.72-43.38,31.08Z" style="fill:#b6a9d2; fill-rule:evenodd;"/><path d="M193.17,394.94c11.12-.35,20.65-5.02,29.1-12.56l16.28-14.5-1.88,17.01c9.73-7.84,20.88-25.79,25.98-37.43l-19.09-19.91c-11.86,4.61-30.31,14.94-38.54,24.33l17.07-1.17-15.18,15.66c-7.87,8.13-12.94,17.45-13.74,28.57Z" style="fill:#d7cce5; fill-rule:evenodd;"/><path d="M356.49,311.79l1.16,29.18c.1,2.54-1.36,6-3.26,8.42l-45.89,58.48c-1.89,2.41-4.37,1.81-4.79-.68l-8.69-51.47c24.57-14.67,44.86-29.27,61.46-43.93h0Zm-73.4-76.52l-29.11-2.37c-2.53-.22-6.05,1.11-8.54,2.9l-60.35,43.41c-2.48,1.79-1.99,4.3,.49,4.81l51.05,10.82c15.69-23.95,31.12-43.59,46.46-59.58Z" style="fill:#9588c0; fill-rule:evenodd;"/><path d="M298.27,374.91c18.77-10.19,38.42-25.13,58.95-44.82l-.73-18.3c-16.6,14.66-36.89,29.26-61.46,43.93l3.24,19.19Z" style="fill:#6251a1; fill-rule:evenodd;"/><path d="M153.65,429.18c5.42-4.81,0-13.34-6.67-10.49-.53,.26-1.06,.57-1.49,.95l-9.53,8.2c-5.54,4.93,.36,13.79,7.19,10.2,.36-.21,.7-.42,1-.71l9.5-8.16h0Zm791.86,613.01c-5.84-4.09-13.18,3.44-8.29,9.32,.37,.39,.68,.68,1.13,.99,3.58,2.51,7.26,4.84,11.03,7.03,6.2,3.55,12.65-4.48,7.64-9.79-.44-.44-.86-.79-1.4-1.09-3.46-2.01-6.83-4.14-10.11-6.45h0Zm43.31,20.7c-2.8-.86-5.73,.35-7.23,2.86-2.02,3.53-.27,7.96,3.63,9.16,4.14,1.24,8.34,2.36,12.57,3.29,2.88,.59,5.61-.71,6.97-3.32,1.8-3.6-.27-8.09-4.26-8.93-3.94-.9-7.81-1.91-11.68-3.06h0Zm47.7,7.27c-3.1,0-5.71,2.16-6.24,5.22-.66,3.77,2.3,7.32,6.12,7.32,4.31,.05,8.72-.04,13.02-.33,7.46-.62,7.84-11.19,.62-12.44-.5-.06-.95-.12-1.47-.08-4,.24-8.03,.35-12.06,.31h0Zm47.61-6.61c-2.03,.62-3.64,2.28-4.2,4.32-1.31,4.79,3.15,9.1,7.9,7.66,4.17-1.25,8.26-2.72,12.31-4.32,7.05-2.88,3.86-13.59-3.8-11.92-.3,.08-.58,.15-.88,.27-3.74,1.48-7.49,2.82-11.35,3.99h0Zm42.37-21.7c-5.57,4.41-.6,13.55,6.46,10.65,.49-.23,.9-.46,1.31-.8,3.46-2.7,6.78-5.57,9.95-8.59,4.77-4.77,.06-12.61-6.54-10.41-.86,.36-1.47,.72-2.15,1.35-2.88,2.75-5.89,5.35-9.03,7.8h0Zm30.84-35.96c-.99,1.74-1.04,4.02-.14,5.79,2.28,4.57,8.58,4.72,11.12,.28,2.15-3.82,4.09-7.71,5.88-11.71,2.8-6.16-5.19-11.95-10.23-6.91-.55,.58-.91,1.12-1.25,1.85-1.62,3.64-3.44,7.22-5.38,10.69h0Zm15.69-45.04c-.18,1.43,.01,2.55,.66,3.83,2.95,5.35,10.76,4.01,11.76-2.02,.67-4.38,1.11-8.62,1.38-13.05,.32-7.67-10.77-9.16-12.42-1.56-.05,.31-.1,.61-.12,.91-.24,4.04-.66,7.89-1.26,11.88h0Zm-2.97-46.88c2.03,6.69,12.26,5.55,12.26-2.08-.03-.57-.12-1.09-.28-1.62-1.25-4.18-2.88-8.47-4.64-12.47-2.91-6.4-12.59-3.94-11.97,3.2,.09,.7,.23,1.29,.51,1.93,1.57,3.53,3.01,7.35,4.12,11.04h0Zm-23.3-41.15c5.1,5.75,14.09-.72,10.05-7.46-.15-.23-.35-.49-.53-.71-2.8-3.31-5.76-6.47-8.81-9.56-5.29-5.29-14,1.57-9.52,8.13,.19,.26,.4,.5,.63,.72,2.83,2.86,5.57,5.82,8.18,8.88h0Zm-36.21-32.25c5.92,4.16,13.11-3.51,8.36-9.21-.36-.41-.72-.75-1.17-1.05-3.5-2.47-7.06-4.84-10.68-7.14-5.82-3.6-12.33,3.28-8.52,8.85,.54,.76,1.06,1.25,1.83,1.75,3.44,2.17,6.85,4.47,10.18,6.81h0Zm-42.42-24.86c2.48,1.25,5.6,.64,7.45-1.45,2.75-3.13,1.81-7.94-1.92-9.8-3.81-1.88-7.63-3.69-11.49-5.48-6.37-2.9-12.11,5.38-6.81,10.36,.53,.45,.95,.76,1.61,1.05,3.74,1.72,7.46,3.5,11.16,5.33h0Zm-45.51-19.56c2.96,1.03,6.24-.09,7.72-2.92,1.79-3.41,.24-7.44-3.33-8.84-3.96-1.48-7.94-2.92-11.93-4.32-6.83-2.38-11.66,6.96-5.55,11.14,.45,.3,.91,.53,1.42,.71,3.91,1.36,7.8,2.78,11.67,4.23h0Zm-47.18-15.65c6.51,1.98,11.3-6.87,5.29-11.21-.6-.39-1.11-.63-1.79-.84-4.04-1.18-8.08-2.33-12.15-3.46-2.95-.77-5.85,.52-7.27,3.23-1.75,3.65,.05,7.68,3.94,8.87,4,1.12,7.99,2.24,11.98,3.41h0Zm-48.21-12.58c7.35,1.53,10.92-8.53,3.89-11.88-.37-.15-.69-.26-1.06-.35-4.1-.95-8.21-1.87-12.33-2.77-7.24-1.52-10.77,8.58-3.91,11.85,.43,.18,.79,.31,1.24,.4,4.07,.89,8.12,1.8,12.17,2.74h0Zm-48.85-10.01c3.02,.5,5.94-1.13,7-4.04,1.31-3.6-.96-7.68-4.79-8.31-4.15-.75-8.3-1.44-12.46-2.16-7.04-1.17-10.29,8.72-3.64,11.89,.56,.23,1.02,.39,1.62,.49,4.09,.68,8.18,1.4,12.27,2.14h0Zm-49.24-7.3c6.74,.85,9.94-8.62,3.36-11.91-.63-.3-1.27-.46-1.96-.54-4.19-.49-8.37-.93-12.56-1.35-7.89-.66-9.57,10.72-1.87,12.39l.64,.09c4.13,.42,8.26,.86,12.38,1.33h0Zm-49.64-4.19c3.24,.13,5.97-2.05,6.53-5.25,.63-3.63-2.17-7.13-5.85-7.28-4.2-.23-8.4-.44-12.6-.63-3.05-.13-5.75,1.94-6.4,4.93-.83,3.8,1.97,7.45,5.85,7.6,4.15,.19,8.31,.4,12.46,.63h0Zm-49.88-1.63c2.37,0,4.45-1.21,5.59-3.29,2.25-4.09-.78-9.25-5.46-9.25-4.21-.04-8.41-.06-12.61-.08-7.09,0-8.75,10.08-1.84,12.28,.64,.18,1.16,.27,1.83,.27,4.16,.01,8.32,.04,12.48,.08h0Zm-49.97,.33c1.25-.05,2.22-.35,3.29-1.02,5.23-3.58,2.78-11.53-3.58-11.53-4.12,.1-8.49,.08-12.58,.32-7.37,.31-8.36,10.77-1.1,12.42,.5,.08,.95,.14,1.46,.13l12.51-.32h0Zm-50.05,1.65c7.1-.3,8.36-10.5,1.22-12.37-.58-.14-1.13-.19-1.73-.17l-12.55,.53c-7.14,.3-8.38,10.73-.95,12.42,.51,.09,.97,.14,1.5,.12l12.51-.53h0Zm-50.1,2.24c6.94-.3,8.45-10.38,1.15-12.38-.59-.13-1.11-.18-1.72-.15l-12.53,.57c-1.11,.05-2.27,.41-3.21,1.06-5.26,3.6-2.52,11.75,3.77,11.48l12.55-.57h0Zm-50.21,2.11c7.23-.31,8.43-10.74,.97-12.43-.48-.09-.92-.14-1.42-.12-4.16,.1-8.34,.27-12.49,.41-3.09,.13-5.64,2.37-6.04,5.46-.49,3.78,2.56,7.24,6.4,7.08,4.19-.13,8.39-.3,12.58-.4h0Zm-50.35,1.16c6.9,0,8.89-10.01,1.63-12.33-.58-.15-1.1-.22-1.72-.22l-12.52,.04c-3.11,0-5.82,2.36-6.2,5.46-.49,3.77,2.44,7.09,6.24,7.09l12.57-.04h0Zm-50.13,.48c6.55,0,8.72-9.32,2.28-12.08-.87-.33-1.54-.46-2.48-.46l-12.55,.21c-6.5,0-8.81,9.28-2.17,12.12,.8,.31,1.51,.42,2.38,.42l12.55-.21h0Zm-50.24,.68c7.02,0,8.69-10.08,1.82-12.26-.68-.18-1.18-.28-1.9-.28l-12.51,.05c-6.56,0-8.89,8.99-2.48,12.04,.87,.32,1.53,.5,2.48,.5l12.58-.05h0Zm-50.38-.32c7.8,0,8.85-11.12,1.02-12.48l-.72-.06c-4.16-.09-8.33-.21-12.48-.33-6.82-.28-9.15,9.38-2.48,12.12,.69,.26,1.33,.39,2.07,.41,4.2,.14,8.4,.26,12.6,.35h0Zm-50.43-2.24c6.71,.57,9.55-8.87,3.02-11.98-.73-.31-1.33-.46-2.12-.53-4.14-.3-8.28-.61-12.42-.95-1.42-.12-2.86,.23-4.03,1.04-4.91,3.36-2.88,10.96,2.97,11.45,4.19,.36,8.39,.68,12.59,.96h0Zm-50.36-5.16c1.66,.21,3.11-.13,4.5-1.07,4.63-3.35,2.95-10.41-2.71-11.35-4.1-.58-8.19-1.21-12.28-1.87-1.47-.24-2.84,.04-4.14,.75-5.1,2.96-3.69,10.67,2.1,11.63,4.18,.68,8.34,1.31,12.53,1.9h0Zm-49.91-9.56c7.12,1.78,11.08-8.17,4.34-11.7-.43-.21-.82-.35-1.27-.46-3.88-.97-8.06-2.01-11.86-3.2-2.88-.89-6.11,.51-7.42,3.26-1.67,3.53,.11,7.63,3.86,8.76,4.09,1.2,8.23,2.32,12.35,3.35h0Zm-48.53-16.38c2.07,.94,4.45,.67,6.29-.67,3.87-2.84,3.24-8.79-1.14-10.77-3.69-1.65-7.39-3.38-10.97-5.25-7.17-3.59-12.95,6.5-6.22,10.89,3.7,2.1,8.14,4.07,12.04,5.8h0Zm-44.17-27.1c4.94,4.39,12.72-1.24,9.74-7.49-.41-.81-.87-1.41-1.54-2.01-3.06-2.61-5.93-5.3-8.75-8.17-1.08-1.08-2.39-1.75-3.91-1.89-5.82-.5-9.12,6.36-5.11,10.6,3.07,3.14,6.23,6.1,9.57,8.96h0Zm-32.23-41.29c3.35,6.68,13.36,3.2,11.75-4.18-.12-.45-.24-.79-.44-1.24-1.69-3.38-3.24-7.31-4.48-10.89-2.38-6.83-12.53-4.99-12.21,2.41,.04,.55,.14,1.07,.32,1.6,1.39,4.03,3.16,8.49,5.06,12.3h0Zm-12.33-50.92c.3,7.24,10.82,8.36,12.44,.94,.08-.48,.12-.94,.1-1.43-.18-4.05-.24-8.11-.15-12.16,0-7.66-10.8-8.81-12.42-1.35-.06,.39-.1,.69-.12,1.07-.09,4.32-.04,8.61,.15,12.93h0Zm4.35-51.55c-1.63,7.84,9.45,10.91,12.09,3.33,1.11-4.07,2-7.97,3.35-11.99,2.17-6.24-6.01-11.4-10.77-6.01-.52,.63-.87,1.29-1.14,2.05-1.38,4.14-2.55,8.39-3.53,12.62h0Zm20.75-47.82c-3.95,6.07,3.74,12.87,9.28,8.26,.46-.4,.84-.81,1.18-1.33,2.23-3.38,4.59-6.61,7.03-9.84,4.07-5.15-1.8-12.73-8.22-9.2-.7,.45-1.2,.89-1.72,1.54-2.63,3.41-5.18,6.96-7.55,10.56h0Zm33.24-39.19c-5.39,5.39,1.73,14.23,8.33,9.36,3.15-2.82,6.31-6.06,9.41-9.01,5.29-4.99-.78-13.5-7.23-10.11-.5,.27-.94,.58-1.34,.95-3.1,2.91-6.12,5.87-9.16,8.81Z" style="fill:#0a1740; fill-rule:evenodd;"/><path d="M1002.17,1374.57c-66.76,0-120.88,12.2-120.88,27.25s54.12,27.24,120.88,27.24,120.89-12.2,120.89-27.24-54.12-27.25-120.89-27.25Z" style="fill:#9588c0; fill-rule:evenodd;"/><path d="M1019.09,1289.59c-66.77,0-120.89,12.2-120.89,27.24s54.12,27.25,120.89,27.25,120.89-12.2,120.89-27.25-54.12-27.24-120.89-27.24Z" style="fill:#9588c0; fill-rule:evenodd;"/><path d="M1025.71,1337.92c-66.77,0-120.9,12.21-120.9,27.25s54.13,27.25,120.9,27.25,120.88-12.21,120.88-27.25-54.12-27.25-120.88-27.25Z" style="fill:#9588c0; fill-rule:evenodd;"/><path d="M1042.62,1252.94c-66.76,0-120.88,12.2-120.88,27.24s54.13,27.25,120.88,27.25,120.89-12.2,120.89-27.25-54.12-27.24-120.89-27.24Z" style="fill:#9588c0; fill-rule:evenodd;"/><path d="M1002.17,1459.82c-66.76,0-120.88-12.21-120.88-27.25v-30.74c0,15.04,54.12,27.24,120.88,27.24s120.89-12.2,120.89-27.24v30.74c0,15.04-54.12,27.25-120.89,27.25Z" style="fill:#2b2870; fill-rule:evenodd;"/><path d="M1019.09,1374.83c-66.77,0-120.89-12.2-120.89-27.24v-30.75c0,15.05,54.12,27.25,120.89,27.25s120.89-12.2,120.89-27.25v30.75c0,15.04-54.12,27.24-120.89,27.24Z" style="fill:#2b2870; fill-rule:evenodd;"/><path d="M1025.7,1423.17c-66.76,0-120.88-12.2-120.88-27.25v-30.74c0,15.04,54.13,27.24,120.88,27.24s120.89-12.2,120.89-27.24v30.74c0,15.06-54.12,27.25-120.89,27.25Z" style="fill:#2b2870; fill-rule:evenodd;"/><path d="M1042.62,1338.18c-66.76,0-120.88-12.2-120.88-27.24v-30.75c0,15.05,54.13,27.25,120.88,27.25s120.89-12.2,120.89-27.25v30.75c0,15.04-54.12,27.24-120.89,27.24Z" style="fill:#2b2870; fill-rule:evenodd;"/><path d="M801.32,1450.45c-66.76,0-120.88,12.2-120.88,27.25s54.12,27.24,120.88,27.24,120.88-12.2,120.88-27.24-54.12-27.25-120.88-27.25Z" style="fill:#9588c0; fill-rule:evenodd;"/><path d="M803.88,1371.89c66.77,0,120.89,12.2,120.89,27.24s-54.12,27.25-120.89,27.25-120.88-12.2-120.88-27.25,54.12-27.24,120.88-27.24Z" style="fill:#9588c0; fill-rule:evenodd;"/><path d="M797.13,1298.41c66.76,0,120.89,12.2,120.89,27.24s-54.13,27.25-120.89,27.25-120.88-12.2-120.88-27.25,54.12-27.24,120.88-27.24Z" style="fill:#9588c0; fill-rule:evenodd;"/><path d="M824.85,1413.8c-66.76,0-120.88,12.21-120.88,27.25s54.12,27.25,120.88,27.25,120.89-12.21,120.89-27.25-54.13-27.25-120.89-27.25Z" style="fill:#9588c0; fill-rule:evenodd;"/><path d="M780.36,1335.25c66.76,0,120.88,12.2,120.88,27.25s-54.13,27.24-120.88,27.24-120.89-12.2-120.89-27.24,54.12-27.25,120.89-27.25Z" style="fill:#9588c0; fill-rule:evenodd;"/><path d="M773.59,1261.76c66.76,0,120.88,12.2,120.88,27.25s-54.12,27.24-120.88,27.24-120.89-12.2-120.89-27.24,54.12-27.25,120.89-27.25Z" style="fill:#9588c0; fill-rule:evenodd;"/><path d="M801.32,1535.69c-66.76,0-120.88-12.2-120.88-27.25v-30.74c0,15.04,54.12,27.24,120.88,27.24s120.88-12.2,120.88-27.24v30.74c0,15.05-54.12,27.25-120.88,27.25Z" style="fill:#2b2870; fill-rule:evenodd;"/><path d="M803.88,1457.13c66.77,0,120.89-12.2,120.89-27.24v-30.75c0,15.06-54.12,27.25-120.89,27.25s-120.88-12.2-120.88-27.25v30.75c0,15.04,54.12,27.24,120.88,27.24Z" style="fill:#2b2870; fill-rule:evenodd;"/><path d="M797.13,1383.64c66.76,0,120.88-12.2,120.88-27.24v-30.75c0,15.05-54.12,27.25-120.88,27.25s-120.88-12.2-120.88-27.25v30.75c0,15.04,54.12,27.24,120.88,27.24Z" style="fill:#2b2870; fill-rule:evenodd;"/><path d="M824.85,1499.05c-66.76,0-120.88-12.2-120.88-27.25v-30.74c0,15.04,54.12,27.25,120.88,27.25s120.89-12.21,120.89-27.25v30.74c0,15.05-54.13,27.25-120.89,27.25Z" style="fill:#2b2870; fill-rule:evenodd;"/><path d="M780.35,1420.49c66.76,0,120.89-12.2,120.89-27.25v-30.74c0,15.04-54.13,27.24-120.89,27.24s-120.88-12.2-120.88-27.24v30.74c0,15.05,54.12,27.25,120.88,27.25Z" style="fill:#2b2870; fill-rule:evenodd;"/><path d="M773.59,1347.01c66.76,0,120.88-12.21,120.88-27.25v-30.74c0,15.04-54.12,27.24-120.88,27.24s-120.89-12.2-120.89-27.24v30.74c0,15.04,54.12,27.25,120.89,27.25Z" style="fill:#2b2870; fill-rule:evenodd;"/><path d="M987.19,1266.46c-2.99,2.47-6.09,5.97-7.03,10.67l-16.53,.33-.95,7.19,17.78-.37c2.72,7.69,13.96,12.07,29.25,11.76,15.76-.32,24.55-5.55,32.67-12.8,7.13-6.87,12.6-9.39,20.56-9.56,7.8-.15,13.54,2.28,12.84,7.55-.62,4.62-4.62,9.02-8.58,11.95l17.18,1.84c3.81-2.86,7.55-7.68,8.49-12.38l17.78-.37,.95-7.18-19.03,.39c-2.33-8.21-14.49-12.78-30.41-12.46-16.23,.34-25.49,4.47-34.9,13.29-6.86,5.91-11.65,9.15-18.83,9.3-6.09,.12-12.15-2.24-11.5-7.15,.57-4.25,4.32-7.91,6.96-10.15l-16.71-1.85Z" style="fill:#fff; fill-rule:evenodd;"/><path d="M723.64,1275.93c-2.98,2.48-6.09,5.98-7.02,10.68l-16.53,.33-.96,7.18,17.79-.36c2.71,7.69,13.96,12.07,29.25,11.76,15.76-.32,24.54-5.55,32.66-12.8,7.13-6.87,12.6-9.41,20.56-9.56,7.8-.17,13.54,2.28,12.85,7.55-.62,4.62-4.62,9.02-8.59,11.94l17.18,1.85c3.8-2.86,7.55-7.7,8.49-12.39l17.79-.36,.95-7.18-19.04,.39c-2.33-8.21-14.48-12.79-30.4-12.47-16.23,.34-25.49,4.48-34.9,13.29-6.85,5.92-11.64,9.16-18.82,9.3-6.09,.13-12.15-2.24-11.5-7.14,.57-4.26,4.32-7.91,6.96-10.17l-16.71-1.85Z" style="fill:#fff; fill-rule:evenodd;"/></svg>