<?xml version="1.0" encoding="UTF-8"?><svg id="a" xmlns="http://www.w3.org/2000/svg" viewBox="0 0 2063.4 1560.92"><path d="M1031.69,1470.55c569.79,0,1031.7,20.22,1031.7,45.17s-461.91,45.19-1031.7,45.19S0,1540.68,0,1515.72s461.9-45.17,1031.69-45.17Z" style="fill:#d0d9ee; fill-rule:evenodd;"/><path d="M1031.69,1470.55c239.99,0,460.83,3.59,636.09,9.6,428.89-245.15,280.38-723,126.38-993.3C1579.85,110.66,1073.41-24.54,863.93,275.6,579.59,683,305.31,540.83,157.19,850.23c-148.1,309.41,76.83,606.02,238.41,629.92,175.26-6.01,396.11-9.6,636.09-9.6h0ZM656.13,434.98c-141.05,107.35-374.32,190.52-451.79,76.4-57.88-85.26,13.42-245.23,153.04-366.52C496.91,23.66,683.86-49.71,785.75,39.54c120.91,105.91-21.01,312.77-129.62,395.44Z" style="fill:#e9eff8; fill-rule:evenodd;"/><path d="M694.15,51.14c59.81,3.6,96.22,52.71,98.72,109.35,1.07,24.1-17.85-38.9-84.18-47.68-41.12-5.44-47.29,6.68-62.03-10.29-14.75-16.98-.75-54.28,47.49-51.38Z" style="fill:#fff; fill-rule:evenodd;"/><path d="M1356.09,239.44c257.68,57.42,421.64,294.37,437.71,408.78,9.09,64.69-30.21-142.54-355.29-237.38-174.52-50.91-280.75-2.37-317.17-73.22-36.43-70.86,26.96-144.48,234.75-98.18Z" style="fill:#fff; fill-rule:evenodd;"/><path d="M437.19,1329.76c-14.09-17.63-33.92-32.21-39.74-54.03-6.87-25.74,8.25-52.84,4.51-79.22-4.71-33.21-36.69-54.73-54.05-83.42-17-28.11-9.03-37.55-10.58-70.36-2.33-49.43-42.88-111.83-96.89-95.09-54.85,17-45.89,67.98-36.23,106.34,6.88,27.31,2.38,31.24-4.3,58.61-8.07,33.05-34.1,64.99-23.23,97.24,6.73,19.94,26.29,33.39,33.35,53.21,8.02,22.45-1.69,46.81-5.42,70.36-7.88,49.58,3.42,90.82,39.44,131.76,8.25,7.84,17.17,14.51,26.83,20.05,43.12-2.06,90.53-3.95,141.64-5.63,4.84-3.77,9.37-7.93,13.52-12.48,32.97-35.98,42.8-97.73,11.14-137.35Z" style="fill:#d0d9ee; fill-rule:evenodd;"/><path d="M265.34,992.28c-.85-2.23-3.35-3.35-5.59-2.5-2.23,.86-3.35,3.37-2.5,5.59,4.28,11.21,7.89,22.94,10.97,35.15-1.24-1.12-2.52-2.21-3.84-3.28-5.88-4.73-12.57-8.86-20.05-12.4-2.16-1.02-4.74-.09-5.76,2.08-1.02,2.16-.09,4.74,2.07,5.76,6.87,3.24,12.97,7.02,18.33,11.31,5.06,4.08,9.46,8.62,13.2,13.66,5.54,26.45,9.15,54.88,12.41,84.88-5.01-7.81-10.36-14.8-16.07-20.99-9.9-10.77-20.86-19.13-32.87-25.08-2.14-1.06-4.74-.18-5.79,1.95-1.07,2.15-.19,4.74,1.95,5.8,11.01,5.46,21.12,13.2,30.34,23.2,9.14,9.95,17.39,22.13,24.7,36.5l.85,8.14c1.84,17.87,3.73,36.2,5.97,54.92,0,.18,.03,.36,.06,.54,2.34,19.56,5.06,39.55,8.51,59.86-9.36-14.46-19.44-27.24-30.22-38.34-15.82-16.28-33.16-28.97-52.03-38.05-2.16-1.03-4.75-.13-5.78,2.03-1.04,2.15-.13,4.75,2.03,5.78,17.95,8.64,34.47,20.74,49.57,36.28,15.06,15.49,28.7,34.43,40.94,56.78,5.33,26.91,12.12,54.33,21.14,82.04v.02s.04,.09,.04,.09v.02c4.44,13.59,9.39,27.25,14.98,40.97-13.12-11.26-27.04-20.99-41.77-29.18-20.52-11.43-42.57-19.87-66.12-25.33-2.33-.54-4.66,.91-5.2,3.24-.55,2.33,.91,4.66,3.24,5.21,22.82,5.28,44.11,13.43,63.87,24.44,19.55,10.88,37.67,24.6,54.34,41.13,5.49,12.18,11.49,24.39,18.09,36.61l9.67-.36c-18.23-33.18-32.04-66.31-42.72-99.02-1.63-21.14,.87-42.28,7.5-63.39,6.74-21.42,17.72-42.88,32.96-64.37,1.38-1.95,.93-4.65-1.02-6.04-1.95-1.38-4.65-.92-6.04,1.03-15.76,22.21-27.13,44.47-34.15,66.77-3.98,12.66-6.55,25.32-7.71,37.98-13-46.94-20.21-92.85-25.48-136.64,5.08-18.56,10.77-34.27,17.04-47.12,6.24-12.79,13.02-22.64,20.34-29.56,1.74-1.64,1.81-4.37,.17-6.12-1.64-1.73-4.38-1.8-6.11-.16-8.11,7.66-15.51,18.35-22.21,32.06-4.16,8.53-8.07,18.27-11.72,29.23-1.27-11.58-2.45-22.98-3.61-34.2l-.9-8.74c0-.15-.03-.32-.05-.48-6.17-59.51-12.38-113.67-29.98-159.67Z" style="fill:#fff; fill-rule:evenodd;"/><path d="M292.11,1353.01c-15.04-8.12-33.17-12.39-43.68-25.86-12.41-15.9-9.91-39.26-20.34-56.52-13.12-21.73-41.77-27.25-62.36-42.1-20.16-14.54-17.41-23.48-28.22-45.87-16.27-33.75-63-65.19-95.66-37.53-33.16,28.1-11.82,60.96,6.27,84.81,12.89,16.99,10.91,21.06,14.37,42.1,4.17,25.41-4.49,55.38,12.63,74.61,10.59,11.89,28.2,15.47,39,27.19,12.23,13.26,12.69,33.1,17.07,50.62,7.03,28.16,20.42,49.62,42.94,66.14,38.36-2.5,82.3-4.84,131.04-6.95,8.78-9,15.7-19.8,19.89-31.67,12.3-34.84,.85-80.76-32.94-98.98Z" style="fill:#bcc9e7; fill-rule:evenodd;"/><path d="M72.43,1168.85c-1.26-1.3-3.33-1.34-4.64-.08-1.3,1.26-1.34,3.33-.08,4.64,6.3,6.53,12.29,13.63,18.04,21.23-1.19-.42-2.4-.8-3.64-1.15-5.5-1.55-11.39-2.45-17.63-2.7-1.81-.07-3.33,1.35-3.41,3.15-.06,1.8,1.35,3.33,3.15,3.4,5.75,.23,11.12,1.05,16.12,2.46,4.73,1.33,9.14,3.2,13.24,5.6,11.69,16.78,22.63,35.52,33.79,55.44-5.81-3.94-11.61-7.24-17.41-9.86-10.09-4.56-20.2-7.14-30.33-7.73-1.8-.1-3.35,1.28-3.46,3.09-.1,1.8,1.27,3.35,3.08,3.45,9.29,.54,18.63,2.93,28.01,7.17,9.33,4.23,18.67,10.26,28.02,18.12l3,5.42c6.58,11.9,13.33,24.11,20.44,36.49,.05,.13,.13,.24,.2,.35,7.43,12.93,15.25,26.04,23.66,39.17-10.8-7.3-21.61-13.22-32.41-17.76-15.84-6.65-31.68-10.35-47.52-11.09-1.8-.07-3.34,1.32-3.42,3.13-.08,1.8,1.32,3.34,3.12,3.42,15.06,.71,30.16,4.24,45.28,10.58,15.08,6.34,30.19,15.48,45.34,27.43,11.69,17.16,24.55,34.25,39.04,50.88h0s.05,.07,.05,.07h0c7.11,8.16,14.62,16.21,22.57,24.1-12.47-3.95-25.05-6.6-37.74-7.94-17.68-1.88-35.54-1.24-53.55,1.95-1.79,.31-2.98,2-2.67,3.79,.31,1.79,2.01,2.99,3.8,2.68,17.46-3.08,34.71-3.72,51.73-1.91,16.85,1.79,33.54,5.98,50.05,12.56,9.52,8.79,19.66,17.35,30.48,25.64l8.43-.37,.82-.86c-26.69-19.78-49.22-41.32-68.77-63.71-7.4-14.25-11.91-29.7-13.54-46.38-1.66-16.91-.36-35.12,3.89-54.59,.38-1.78-.73-3.52-2.5-3.91-1.76-.38-3.51,.74-3.9,2.5-4.39,20.15-5.73,39.02-4,56.62,.97,9.99,2.93,19.57,5.88,28.74-22.97-28.85-41.59-58.68-58.24-87.63-1.95-14.44-2.65-27.06-2.09-37.87,.56-10.76,2.36-19.63,5.41-26.62,.72-1.66-.04-3.59-1.69-4.31-1.66-.72-3.59,.03-4.31,1.69-3.38,7.74-5.36,17.39-5.97,28.93-.37,7.17-.21,15.1,.49,23.82-4.32-7.68-8.52-15.27-12.65-22.74l-3.21-5.83c-.05-.11-.11-.21-.18-.31-21.93-39.64-42.3-75.51-68.19-102.35Z" style="fill:#e9eff8; fill-rule:evenodd;"/><path d="M1541.3,1282.36c17.44-21.82,41.98-39.88,49.19-66.87,8.51-31.88-10.22-65.41-5.57-98.07,5.82-41.11,45.41-67.75,66.9-103.27,21.05-34.79,11.18-46.49,13.11-87.1,2.89-61.2,53.06-138.43,119.93-117.72,67.89,21.07,56.81,84.18,44.86,131.66-8.52,33.82-2.94,38.68,5.32,72.55,9.99,40.9,42.21,80.46,28.74,120.37-8.33,24.67-32.53,41.34-41.29,65.88-9.92,27.79,2.09,57.94,6.71,87.09,9.75,61.38-4.24,112.43-48.82,163.11-14.4,13.7-30.45,24.46-48.39,32.57-45.1-1.82-93.9-3.48-145.91-4.94-11.46-6.89-21.96-15.34-31-25.22-40.8-44.55-52.98-120.99-13.78-170.04Z" style="fill:#d0d9ee; fill-rule:evenodd;"/><path d="M1754.03,864.59c1.06-2.77,4.16-4.15,6.92-3.1,2.77,1.06,4.15,4.16,3.1,6.93-5.31,13.87-9.75,28.39-13.58,43.5,1.54-1.39,3.13-2.74,4.76-4.05,7.29-5.87,15.57-10.98,24.81-15.36,2.68-1.26,5.88-.11,7.13,2.57,1.26,2.68,.11,5.88-2.57,7.14-8.49,4.01-16.05,8.69-22.68,14.01-6.27,5.03-11.71,10.67-16.34,16.9-6.85,32.73-11.33,67.95-15.38,105.06,6.21-9.66,12.84-18.33,19.9-25.99,12.26-13.33,25.82-23.68,40.69-31.05,2.65-1.31,5.87-.23,7.17,2.41,1.31,2.66,.24,5.87-2.41,7.18-13.63,6.76-26.15,16.34-37.55,28.73-11.33,12.31-21.53,27.39-30.58,45.19l-1.04,10.07c-2.29,22.11-4.64,44.81-7.4,67.98-.02,.23-.04,.46-.08,.67-2.91,24.21-6.28,48.95-10.54,74.08,11.59-17.89,24.06-33.72,37.42-47.46,19.58-20.15,41.05-35.86,64.4-47.11,2.67-1.28,5.88-.15,7.17,2.51,1.27,2.67,.16,5.87-2.51,7.16-22.22,10.7-42.67,25.68-61.36,44.91-18.63,19.18-35.53,42.62-50.68,70.3-6.6,33.31-15.01,67.24-26.18,101.56h0s-.04,.14-.04,.14h0c-5.48,16.83-11.62,33.75-18.54,50.73,16.23-13.94,33.47-25.98,51.71-36.14,25.4-14.14,52.69-24.59,81.85-31.34,2.89-.67,5.77,1.12,6.44,4.02,.67,2.89-1.12,5.78-4.01,6.45-28.24,6.54-54.6,16.61-79.08,30.24-24.21,13.48-46.63,30.46-67.27,50.93-8.12,18.03-17.18,36.12-27.29,54.23l-12.1-.36c25.07-44.08,43.73-88.11,57.92-131.58,2.01-26.17-1.08-52.32-9.3-78.46-8.34-26.52-21.94-53.08-40.8-79.68-1.71-2.41-1.15-5.77,1.27-7.47,2.41-1.71,5.77-1.15,7.48,1.26,19.49,27.51,33.59,55.07,42.26,82.66,4.94,15.67,8.12,31.34,9.55,47.01,16.09-58.12,25.01-114.93,31.53-169.15-6.3-22.97-13.33-42.42-21.09-58.33-7.72-15.83-16.12-28.03-25.17-36.6-2.15-2.03-2.25-5.43-.22-7.58,2.03-2.15,5.43-2.24,7.58-.22,10.03,9.49,19.19,22.73,27.48,39.7,5.15,10.56,9.99,22.62,14.51,36.18,1.58-14.33,3.03-28.44,4.46-42.33l1.12-10.81c0-.2,.03-.4,.06-.59,7.63-73.67,15.33-140.72,37.11-197.67Z" style="fill:#fff; fill-rule:evenodd;"/><path d="M1720.89,1311.15c18.62-10.04,41.07-15.34,54.08-32.01,15.37-19.68,12.26-48.59,25.17-69.97,16.24-26.91,51.71-33.74,77.21-52.11,24.96-18.01,21.56-29.07,34.93-56.79,20.14-41.77,77.98-80.71,118.42-46.47,41.05,34.79,14.63,75.47-7.76,105-15.95,21.04-13.52,26.07-17.8,52.12-5.16,31.46,5.56,68.55-15.64,92.36-13.12,14.72-34.91,19.15-48.27,33.65-15.15,16.42-15.71,40.99-21.13,62.66-9.75,39.05-29.36,67.69-63.68,88.98-42.01-2.44-89.56-4.7-141.8-6.72-15.58-12.59-27.83-29.29-34.5-48.18-15.23-43.14-1.06-99.99,40.78-122.53Z" style="fill:#bcc9e7; fill-rule:evenodd;"/><path d="M1992.85,1083.17c1.56-1.6,4.13-1.66,5.74-.1,1.61,1.56,1.66,4.12,.11,5.74-7.8,8.1-15.21,16.89-22.35,26.28,1.48-.51,2.99-.98,4.52-1.41,6.81-1.92,14.09-3.03,21.83-3.34,2.23-.08,4.13,1.67,4.21,3.9,.08,2.24-1.67,4.13-3.9,4.21-7.11,.29-13.76,1.3-19.96,3.04-5.86,1.66-11.32,3.96-16.38,6.94-14.47,20.78-28.03,43.97-41.83,68.63,7.19-4.89,14.37-8.96,21.56-12.21,12.49-5.65,25-8.83,37.54-9.56,2.23-.13,4.14,1.58,4.27,3.81,.14,2.24-1.57,4.15-3.81,4.28-11.49,.67-23.05,3.63-34.66,8.89-11.54,5.22-23.11,12.7-34.7,22.42l-3.71,6.71c-8.13,14.72-16.5,29.84-25.29,45.16-.07,.16-.16,.31-.25,.45-9.2,16-18.87,32.23-29.29,48.49,13.38-9.04,26.76-16.37,40.13-21.98,19.61-8.24,39.22-12.82,58.82-13.74,2.24-.1,4.14,1.63,4.25,3.87,.1,2.24-1.63,4.14-3.87,4.24-18.64,.87-37.33,5.24-56.04,13.11-18.67,7.83-37.38,19.15-56.13,33.95-14.46,21.24-30.38,42.39-48.32,62.98h0s-.06,.08-.06,.08h0c-8.8,10.11-18.1,20.06-27.93,29.85,15.43-4.89,31-8.18,46.71-9.85,21.89-2.33,43.99-1.53,66.3,2.4,2.21,.39,3.69,2.5,3.31,4.72-.39,2.2-2.5,3.68-4.71,3.3-21.61-3.81-42.95-4.6-64.04-2.37-20.86,2.22-41.51,7.41-61.94,15.56-13.42,12.37-27.82,24.39-43.34,35.96-2.02-1.84-3.98-3.77-5.87-5.75,33.04-24.49,60.93-51.16,85.12-78.87,9.15-17.63,14.75-36.77,16.77-57.41,2.05-20.94,.45-43.47-4.81-67.59-.48-2.19,.9-4.35,3.09-4.83,2.19-.47,4.35,.91,4.84,3.1,5.43,24.93,7.09,48.3,4.95,70.09-1.2,12.37-3.63,24.24-7.28,35.58,28.43-35.71,51.48-72.65,72.08-108.49,2.42-17.86,3.29-33.49,2.59-46.88-.69-13.32-2.92-24.3-6.69-32.95-.89-2.05,.05-4.44,2.09-5.34,2.06-.89,4.45,.04,5.34,2.09,4.18,9.58,6.64,21.51,7.39,35.79,.46,8.89,.25,18.71-.61,29.49,5.34-9.5,10.54-18.91,15.65-28.16l3.99-7.2c.06-.14,.13-.27,.22-.4,27.14-49.05,52.36-93.47,84.41-126.69Z" style="fill:#e9eff8; fill-rule:evenodd;"/><rect x="1510.11" y="665.59" width="132.52" height="45.78" style="fill:#bcc9e7;"/><path d="M1511.31,640.11c-7.99-3.73-13.26-10.61-13.26-20.97v-3.23c-1.57-89.67-80.36-114.8-86.73-214-.48-7.44-.42-14.71,.16-21.8,12.34-75.24,83.85-125.75,164.19-125.75,91.55,0,171.63,65.59,165.76,158.61-6.06,96.24-81.13,120.62-82.62,207.62,0,9.41-10.07,20.27-18.64,19.51h-128.86Z" style="fill:#d0d9ee; fill-rule:evenodd;"/><path d="M1647.4,721.95c-.99,10.07-9.56,18-19.87,18h-15.28l-5.95,9.71c-3.42,5.59-5.42,5.96-11.98,5.96h-35.92c-6.56,0-8.55-.35-11.98-5.96l-5.96-9.71h-15.28c-10.16,0-18.64-7.72-19.81-17.61v-6.98c.54-2.28,2.6-3.98,5.04-3.98h131.9c2.46,0,4.52,1.73,5.05,4.03,.05,.21-.08,.64,.04,.73v5.82h0Zm-135.13-45.9h128.18c3.88,0,7.04,3.17,7.04,7.04v10.92c0,3.87-3.16,7.04-7.04,7.04h-128.18c-3.87,0-7.04-3.17-7.04-7.04v-10.92c0-3.87,3.17-7.04,7.04-7.04h0Zm.29-35.94h127.6c4.03,0,7.32,3.3,7.32,7.33v11.36c0,4.03-3.3,7.33-7.32,7.33h-127.6c-4.03,0-7.33-3.3-7.33-7.33v-11.36c0-4.03,3.31-7.33,7.33-7.33Z" style="fill:#aab9de; fill-rule:evenodd;"/><path d="M1556.12,640.11l-13.57-164.14h-19.65c-8.5,0-16.21-3.47-21.8-9.05l.02-.02c-5.59-5.6-9.07-13.31-9.07-21.78s3.47-16.21,9.05-21.8c5.59-5.59,13.31-9.06,21.8-9.06s15.65,3.36,21.06,8.78c5.5,5.49,9.03,13.13,9.75,21.48l1.54,17.59h60.14l1.54-17.59c.73-8.33,4.26-15.98,9.76-21.48,5.41-5.41,12.68-8.78,21.06-8.78s16.18,3.48,21.79,9.07h0c5.58,5.57,9.05,13.29,9.05,21.78s-3.47,16.21-9.05,21.8c-5.58,5.58-13.31,9.05-21.79,9.05h-19.66l-13.57,164.14h-13.84l13.51-164.14h-57.74l13.51,164.14h-13.83Zm-14.78-178l-1.43-16.39c-.44-5.07-2.52-9.65-5.75-12.88-2.91-2.91-6.8-4.71-11.27-4.71s-8.93,1.91-12,5c-3.08,3.08-5,7.33-5,12s1.9,8.93,4.97,12h.03c3.08,3.08,7.33,5,12,5h18.44Zm87.95,0h18.45c4.66,0,8.92-1.91,12-5,3.08-3.08,4.99-7.33,4.99-12s-1.91-8.92-4.99-12v-.03c-3.07-3.07-7.32-4.97-12-4.97s-8.35,1.8-11.26,4.71c-3.23,3.24-5.32,7.82-5.77,12.88l-1.43,16.39Z" style="fill:#fff; fill-rule:evenodd;"/><path d="M1636.03,312.03c-4.39-1.85-6.46-6.92-4.6-11.32,1.85-4.39,6.92-6.46,11.32-4.61,3.59,1.52,7,3.15,10.18,4.87,3.32,1.77,6.54,3.7,9.66,5.77,3.99,2.64,5.08,8.02,2.44,12-2.63,3.99-8.01,5.08-12,2.44-2.68-1.77-5.45-3.42-8.31-4.96-2.93-1.58-5.84-2.98-8.71-4.19h0Zm38.08,27.63c-3.14-3.62-2.77-9.09,.85-12.24,3.62-3.15,9.09-2.76,12.24,.85,9.15,10.52,16.48,22.66,21.47,35.92,4.82,12.81,7.46,26.6,7.46,40.94,0,4.79-3.89,8.68-8.68,8.68s-8.68-3.88-8.68-8.68c0-12.28-2.22-24.02-6.3-34.84-4.24-11.25-10.49-21.6-18.35-30.63Z" style="fill:#fff; fill-rule:evenodd;"/><path d="M964.3,306.21c-2.74,37.63-8.29,42.83-44.17,45.73,35.89,2.9,41.43,8.09,44.17,45.73,2.74-37.64,8.3-42.83,44.17-45.73-35.88-2.9-41.43-8.09-44.17-45.73h0Zm145.85,99.26c-1.46,20.09-4.43,22.87-23.58,24.41,19.15,1.55,22.12,4.32,23.58,24.41,1.47-20.09,4.43-22.87,23.59-24.41-19.16-1.54-22.12-4.32-23.59-24.41h0Zm-63.87-154.64c-1.48,20.35-4.48,23.16-23.88,24.72,19.4,1.57,22.4,4.38,23.88,24.73,1.48-20.35,4.49-23.16,23.89-24.73-19.4-1.57-22.41-4.38-23.89-24.72Z" style="fill:#fff; fill-rule:evenodd;"/><path d="M1766.82,704.17c2.74,37.63,8.29,42.83,44.16,45.73-35.88,2.9-41.42,8.09-44.16,45.72-2.74-37.63-8.3-42.83-44.17-45.72,35.88-2.9,41.43-8.09,44.17-45.73h0Zm-145.86,99.25c1.47,20.09,4.43,22.86,23.59,24.42-19.16,1.54-22.12,4.32-23.59,24.41-1.46-20.09-4.43-22.87-23.58-24.41,19.15-1.56,22.12-4.33,23.58-24.42h0Zm63.88-154.64c1.47,20.35,4.48,23.16,23.88,24.72-19.4,1.57-22.41,4.38-23.88,24.73-1.49-20.35-4.49-23.16-23.89-24.73,19.4-1.57,22.41-4.38,23.89-24.72Z" style="fill:#fff; fill-rule:evenodd;"/><path d="M1181.17,1343.09c-.1,.27-10.6,16.92-10.67,35.12-.05,9.46,3.13,19.71,12.57,27.12,9.4,7.4,24.32,11.92,47.43,11.93h1.4s.12,0,.12,0h.57c17.38,.05,29.07,5.2,38.66,13.03,14.4,11.73,23.64,30.17,36.69,46.19,12.98,16.02,30.63,29.45,60.7,29.34,19.04-.02,42.98-5.16,74.29-17.65l-2.64-6.65c-30.79,12.3-53.92,17.14-71.65,17.14-18.65-.02-31.31-5.23-41.49-13.08-15.28-11.77-24.73-30.1-37.27-46.1-12.46-15.95-28.96-29.48-57.29-29.37h-.73l-1.37,.02c-22.22,0-35.51-4.45-43.01-10.4-7.45-5.95-9.79-13.45-9.85-21.51,0-7.69,2.37-15.63,4.81-21.57,1.22-2.97,2.44-5.45,3.34-7.16l1.09-1.99,.38-.64-6.09-3.77Z" style="fill:#99a9d4; fill-rule:evenodd;"/><rect x="811.6" y="1333.78" width="357.51" height="131.1" style="fill:#99a9d4;"/><path d="M1464.64,1346.89c0,19.75-16.01,35.75-35.75,35.75H551.84c-19.76,0-35.77-16-35.77-35.75V656.92c0-19.75,16-35.75,35.77-35.75h877.05c19.75,0,35.75,16.01,35.75,35.75v689.97Z" style="fill:#bcc9e7; fill-rule:evenodd;"/><path d="M1430.9,1209.21c0,19.01-15.42,34.42-34.42,34.42H584.26c-19.03,0-34.42-15.41-34.42-34.42V683.35c0-19,15.39-34.41,34.42-34.41h812.22c19,0,34.42,15.41,34.42,34.41v525.86Z" style="fill:#e9eff8; fill-rule:evenodd;"/><rect x="755.2" y="1441.04" width="467.14" height="23.84" style="fill:#aab9de;"/><rect x="588.97" y="1464.88" width="809.58" height="39.91" style="fill:#bcc9e7;"/><rect x="1422.67" y="1472.09" width="113.3" height="30.71" style="fill:#aab9de;"/><ellipse cx="1479.32" cy="1473.35" rx="56.65" ry="31.04" style="fill:#aab9de;"/><path d="M1373.31,1095.11c0,68.77-55.75,124.5-124.51,124.5-46.03,0-86.23-24.96-107.76-62.07l107.76-62.43h124.51Z" style="fill:#fff; fill-rule:evenodd;"/><path d="M1397.1,1081.02h-124.5l57.51-110.42c39.82,20.74,67,62.38,67,110.42Z" style="fill:#99a9d4; fill-rule:evenodd;"/><path d="M1314.67,970.6l-57.49,110.42v-124.52c20.76,0,40.29,5.07,57.49,14.11Z" style="fill:#aab9de; fill-rule:evenodd;"/><path d="M1248.8,970.6v124.52l-44.96-116.15c13.95-5.42,29.08-8.37,44.96-8.37Z" style="fill:#bcc9e7; fill-rule:evenodd;"/><path d="M1248.8,1095.12l-107.76,62.41c-10.67-18.35-16.78-39.64-16.78-62.41,0-52.94,33.02-98.14,79.59-116.15l44.96,116.15Z" style="fill:#d0d9ee; fill-rule:evenodd;"/><path d="M385.4,855.94c-23.2,0-41.95-18.84-41.95-41.96s18.75-41.94,41.95-41.94,41.94,18.74,41.94,41.94c0,23.12-18.76,41.96-41.94,41.96h0Zm90.75-41.96c0-14.65,9.76-26.93,23.12-30.75-2.66-9.9-6.62-19.37-11.67-28.06-12.05,6.64-27.62,4.95-37.83-5.19l-.23-.23-.22-.3h-.07c-1-.99-2.06-2-3.04-2.96,.81,.76,1.73,1.58,2.59,2.41-9.63-10.2-11.24-25.37-4.64-37.14-8.72-5.04-18.1-9.01-28.02-11.66-3.88,13.33-16.16,23.1-30.73,23.1s-26.87-9.76-30.75-23.1c-9.9,2.65-19.28,6.62-28.07,11.66,6.65,11.9,5.04,27.16-4.86,37.46l2.57-2.45c-.97,1-2.04,1.99-3.05,2.99l-.51,.55c-10.38,9.83-25.65,11.51-37.55,4.87-5.03,8.69-9.01,18.16-11.67,28.06,13.36,3.82,23.12,16.18,23.12,30.75s-9.76,26.84-23.12,30.66c2.66,9.94,6.64,19.37,11.67,28.08,12.08-6.64,27.47-4.94,37.78,5.1l.21,.33,.24,.15c10.14,10.3,11.89,25.76,5.18,37.82,8.79,5.04,18.16,9.01,28.07,11.66,3.81-12.93,15.48-22.55,29.53-23.1h2.44c14.04,.55,25.71,10.17,29.51,23.1,9.92-2.65,19.3-6.62,28.02-11.66-6.59-11.97-4.9-27.31,5.02-37.6l.08-.07,.69-.68c10.28-9.97,25.61-11.68,37.66-5.04,5.05-8.71,8.94-18.14,11.67-28.08-13.35-3.82-23.12-16.08-23.12-30.66Z" style="fill:#d0d9ee; fill-rule:evenodd;"/><path d="M385.4,845.94c-17.71,0-31.97-14.34-31.97-31.96s14.26-31.97,31.97-31.97,31.95,14.25,31.95,31.97-14.26,31.96-31.95,31.96h0Zm0-73.9c-23.2,0-41.95,18.74-41.95,41.94s18.75,41.96,41.95,41.96,41.94-18.84,41.94-41.96c0-23.2-18.76-41.94-41.94-41.94Z" style="fill:#f2f2f3; fill-rule:evenodd;"/><path d="M321.16,749.75l-.44,.55,.51-.55h-.07Zm.56-.53l2.57-2.45c-.98,1-2.04,1.99-3.05,2.99l.48-.53h0Zm62.46,155.45l1.22,.05,1.22-.05h-2.44Zm64.61-155.77c-.86-.83-1.78-1.66-2.59-2.41,.98,.96,2.04,1.98,3.04,2.96l-.46-.55Z" style="fill:#bac1c2; fill-rule:evenodd;"/><path d="M385.4,880.41c-36.73,0-66.48-29.72-66.48-66.43s29.75-66.5,66.48-66.5,66.47,29.78,66.47,66.5-29.76,66.43-66.47,66.43h0Zm64.37-130.43l-.21-.18-.25-.31c-16.43-16.26-39-26.26-63.9-26.26s-47.76,10.13-64.2,26.57c-16.4,16.41-26.57,39.11-26.57,64.18s10.02,47.47,26.29,63.89l.28,.23,.2,.2c16.4,16.33,39.01,26.42,64,26.42s47.38-9.98,63.79-26.21l.07-.09,.29-.32,.32-.28,.08-.05c16.18-16.39,26.18-38.96,26.18-63.79s-10.1-47.59-26.37-64Z" style="fill:#bcc9e7; fill-rule:evenodd;"/><path d="M385.4,845.94c-17.71,0-31.97-14.34-31.97-31.96s14.26-31.97,31.97-31.97,31.95,14.25,31.95,31.97-14.26,31.96-31.95,31.96h0Zm0-73.9c-23.2,0-41.95,18.74-41.95,41.94s18.75,41.96,41.95,41.96,41.94-18.84,41.94-41.96c0-23.2-18.76-41.94-41.94-41.94Z" style="fill:#fff; fill-rule:evenodd;"/><path d="M624.13,361.27c-9.2,0-16.64-7.47-16.64-16.64s7.44-16.63,16.64-16.63,16.64,7.43,16.64,16.63-7.44,16.64-16.64,16.64h0Zm36-16.64c0-5.81,3.87-10.68,9.16-12.2-1.06-3.93-2.62-7.68-4.63-11.13-4.77,2.63-10.96,1.96-15.01-2.06l-.08-.09-.09-.12h-.03c-.4-.39-.82-.8-1.21-1.17,.32,.3,.69,.62,1.03,.96-3.82-4.05-4.46-10.07-1.84-14.73-3.46-2-7.18-3.57-11.12-4.62-1.54,5.29-6.4,9.16-12.19,9.16s-10.66-3.87-12.2-9.16c-3.93,1.05-7.65,2.63-11.13,4.62,2.63,4.72,1.99,10.77-1.93,14.86l1.02-.97c-.39,.4-.81,.79-1.21,1.18l-.2,.22c-4.13,3.89-10.17,4.56-14.9,1.93-1.99,3.45-3.57,7.2-4.63,11.13,5.3,1.51,9.17,6.42,9.17,12.2s-3.87,10.65-9.17,12.16c1.06,3.94,2.63,7.68,4.63,11.14,4.79-2.64,10.9-1.96,14.99,2.02l.08,.12,.09,.06c4.03,4.09,4.72,10.22,2.06,15,3.48,1.99,7.2,3.57,11.13,4.62,1.51-5.13,6.14-8.94,11.71-9.16h.97c5.57,.21,10.2,4.03,11.7,9.16,3.94-1.05,7.66-2.63,11.12-4.62-2.62-4.75-1.95-10.83,1.99-14.91l.04-.03,.27-.27c4.08-3.96,10.16-4.64,14.94-2,2-3.46,3.55-7.2,4.63-11.14-5.29-1.51-9.16-6.38-9.16-12.16Z" style="fill:#d0d9ee; fill-rule:evenodd;"/><path d="M624.13,357.29c-7.02,0-12.68-5.68-12.68-12.67s5.66-12.68,12.68-12.68,12.68,5.66,12.68,12.68-5.66,12.67-12.68,12.67h0Zm0-29.3c-9.2,0-16.64,7.43-16.64,16.63s7.44,16.64,16.64,16.64,16.64-7.47,16.64-16.64-7.44-16.63-16.64-16.63Z" style="fill:#f2f2f3; fill-rule:evenodd;"/><path d="M598.66,319.15l-.17,.22,.2-.22h-.03Zm.22-.21l1.02-.97c-.39,.4-.81,.79-1.21,1.18l.19-.21h0Zm24.77,61.66l.48,.02,.48-.02h-.97Zm25.63-61.79c-.34-.33-.71-.66-1.03-.96,.39,.38,.81,.78,1.21,1.17l-.18-.22Z" style="fill:#bac1c2; fill-rule:evenodd;"/><path d="M624.13,370.97c-14.56,0-26.37-11.79-26.37-26.35s11.8-26.38,26.37-26.38,26.37,11.81,26.37,26.38-11.8,26.35-26.37,26.35h0Zm25.53-51.73l-.07-.07-.11-.12c-6.51-6.45-15.46-10.42-25.35-10.42s-18.94,4.02-25.47,10.54c-6.5,6.51-10.54,15.51-10.54,25.46s3.97,18.84,10.43,25.35l.11,.09,.08,.07c6.5,6.48,15.47,10.48,25.38,10.48s18.8-3.96,25.3-10.4l.03-.04,.13-.12,.12-.11,.03-.02c6.43-6.5,10.38-15.46,10.38-25.31s-4-18.87-10.46-25.38Z" style="fill:#bcc9e7; fill-rule:evenodd;"/><path d="M624.13,357.29c-7.02,0-12.68-5.68-12.68-12.67s5.66-12.68,12.68-12.68,12.68,5.66,12.68,12.68-5.66,12.67-12.68,12.67h0Zm0-29.3c-9.2,0-16.64,7.43-16.64,16.63s7.44,16.64,16.64,16.64,16.64-7.47,16.64-16.64-7.44-16.63-16.64-16.63Z" style="fill:#fff; fill-rule:evenodd;"/><path d="M489.43,352.09c-16.58,0-29.97-13.47-29.97-29.99s13.4-29.98,29.97-29.98,29.98,13.39,29.98,29.98c0,16.53-13.41,29.99-29.98,29.99h0Zm64.88-29.99c0-10.46,6.98-19.25,16.53-21.98-1.91-7.08-4.74-13.85-8.34-20.06-8.62,4.75-19.75,3.54-27.05-3.71l-.16-.16-.16-.21h-.05c-.71-.71-1.47-1.43-2.18-2.12,.58,.54,1.25,1.13,1.86,1.73-6.89-7.3-8.03-18.14-3.32-26.55-6.22-3.6-12.93-6.44-20.03-8.33-2.77,9.53-11.55,16.51-21.97,16.51s-19.2-6.98-21.97-16.51c-7.09,1.89-13.79,4.73-20.07,8.33,4.76,8.51,3.61,19.41-3.48,26.77l1.85-1.75c-.7,.71-1.47,1.43-2.19,2.13l-.36,.39c-7.42,7.02-18.33,8.23-26.84,3.48-3.59,6.21-6.44,12.98-8.33,20.06,9.54,2.73,16.52,11.56,16.52,21.98s-6.98,19.19-16.52,21.91c1.89,7.1,4.75,13.84,8.33,20.07,8.63-4.75,19.64-3.53,27.01,3.65l.15,.22,.16,.11c7.25,7.36,8.51,18.41,3.7,27.03,6.28,3.6,12.99,6.44,20.07,8.33,2.71-9.25,11.07-16.12,21.1-16.51h1.74c10.04,.39,18.38,7.26,21.09,16.51,7.09-1.89,13.81-4.74,20.03-8.33-4.71-8.56-3.51-19.52,3.6-26.87l.05-.05,.5-.49c7.35-7.13,18.31-8.34,26.92-3.6,3.61-6.23,6.38-12.97,8.34-20.07-9.55-2.73-16.53-11.49-16.53-21.91Z" style="fill:#d0d9ee; fill-rule:evenodd;"/><path d="M489.43,344.94c-12.65,0-22.84-10.24-22.84-22.84s10.19-22.85,22.84-22.85,22.84,10.19,22.84,22.85-10.19,22.84-22.84,22.84h0Zm0-52.82c-16.58,0-29.97,13.39-29.97,29.98s13.4,29.99,29.97,29.99,29.98-13.47,29.98-29.99c0-16.59-13.41-29.98-29.98-29.98Z" style="fill:#f2f2f3; fill-rule:evenodd;"/><path d="M443.53,276.18l-.32,.39,.36-.39h-.05Zm.39-.38l1.84-1.75c-.7,.71-1.47,1.43-2.19,2.13l.35-.38h0Zm44.66,111.12l.86,.04,.87-.04h-1.73Zm46.18-111.34c-.61-.6-1.27-1.19-1.86-1.73,.71,.69,1.47,1.41,2.18,2.12l-.32-.4Z" style="fill:#bac1c2; fill-rule:evenodd;"/><path d="M489.43,369.58c-26.25,0-47.51-21.23-47.51-47.48s21.26-47.53,47.51-47.53,47.53,21.28,47.53,47.53-21.29,47.48-47.53,47.48h0Zm46.01-93.23l-.15-.13-.18-.22c-11.74-11.63-27.88-18.77-45.69-18.77s-34.13,7.24-45.89,18.99c-11.72,11.73-18.99,27.95-18.99,45.88s7.17,33.93,18.79,45.68l.2,.15,.15,.14c11.73,11.68,27.89,18.89,45.74,18.89s33.87-7.14,45.6-18.74l.05-.07,.21-.23,.23-.2,.05-.04c11.58-11.72,18.72-27.85,18.72-45.6s-7.22-34.01-18.85-45.75Z" style="fill:#bcc9e7; fill-rule:evenodd;"/><path d="M489.43,344.94c-12.65,0-22.84-10.24-22.84-22.84s10.19-22.85,22.84-22.85,22.84,10.19,22.84,22.85-10.19,22.84-22.84,22.84h0Zm0-52.82c-16.58,0-29.97,13.39-29.97,29.98s13.4,29.99,29.97,29.99,29.98-13.47,29.98-29.99c0-16.59-13.41-29.98-29.98-29.98Z" style="fill:#fff; fill-rule:evenodd;"/><path d="M842.61,683.45h-93.95l4.33,54.16c.6,7.51-8.67,11.52-13.74,5.94l-54.53-60.09H212.3c-24.38,0-44.16-19.77-44.16-44.15v-172.22c0-24.38,19.76-44.15,44.16-44.15H842.61c24.4,0,44.16,19.77,44.16,44.16v172.22c0,24.38-19.77,44.15-44.16,44.15Z" style="fill:#d0d9ee; fill-rule:evenodd;"/><path d="M823.13,509.84h-84.29c-5.08,0-9.2-4.11-9.2-9.2s4.12-9.2,9.2-9.2h84.29c5.08,0,9.2,4.12,9.2,9.2s-4.12,9.2-9.2,9.2h0Zm-357.13,105.09H232.17c-5.08,0-9.2-4.12-9.2-9.2s4.12-9.19,9.2-9.19h233.83c5.08,0,9.21,4.12,9.21,9.19s-4.13,9.2-9.21,9.2h0Zm265.49,0h-227.77c-5.07,0-9.19-4.12-9.19-9.2s4.12-9.19,9.19-9.19h227.77c5.07,0,9.2,4.12,9.2,9.19s-4.13,9.2-9.2,9.2h0Zm-354.54-52.54H232.17c-5.08,0-9.2-4.12-9.2-9.2s4.12-9.19,9.2-9.19h144.78c5.09,0,9.2,4.12,9.2,9.19,0,5.08-4.12,9.21-9.2,9.2h0Zm446.18,0H417.43c-5.07,0-9.2-4.12-9.2-9.2s4.13-9.19,9.2-9.19h405.7c5.08,0,9.2,4.12,9.2,9.19s-4.12,9.21-9.2,9.2h0Zm-123.29-52.54H232.17c-5.08,0-9.2-4.11-9.2-9.2s4.12-9.2,9.2-9.2h467.68c5.08,0,9.2,4.12,9.2,9.2s-4.13,9.2-9.2,9.2Z" style="fill:#fff; fill-rule:evenodd;"/><rect x="865.96" y="720.01" width="280.5" height="89.46" style="fill:#bcc9e7;"/><rect x="901.02" y="891.69" width="212.78" height="82.22" style="fill:#bcc9e7;"/><path d="M755.93,1028.31h209.16v50.78h-209.16v-50.78h0Zm0,84.41h209.16v50.78h-209.16v-50.78Z" style="fill:#bcc9e7; fill-rule:evenodd;"/><polygon points="700.89 1099.97 642.52 1099.97 642.52 928.23 901.02 928.23 901.02 937.37 651.67 937.37 651.67 1090.84 700.89 1090.84 700.89 1099.97" style="fill:#99a9d4; fill-rule:evenodd;"/><polygon points="755.93 1142.68 696.32 1142.68 696.32 1049.12 755.93 1049.12 755.93 1058.27 705.46 1058.27 705.46 1133.54 755.93 1133.54 755.93 1142.68" style="fill:#99a9d4; fill-rule:evenodd;"/><rect x="1002.85" y="809.47" width="9.14" height="82.22" style="fill:#99a9d4;"/><path d="M390.34,1518.36c-15.39-5.43-16.63-13.36-24.94-17.23-8.36-3.91-9.32-10.86-1.15-18.42,6.04,4.83,13.53,10.76,17.5,7.61,2.65-2.09,11.63-1.96,13.42,1.1,7.82,18.19,18.71,12.42,20.86,20.7,.25,11.02-18.61,8.73-25.68,6.23Z" style="fill:#142d4d; fill-rule:evenodd;"/><path d="M522.63,1518.92c-28.44-.46-49.69-.79-59.51-3.9-10.59-3.34-8.41-9.81-2.32-20.14,26.8,12.32,19.66-2.53,32.2-.65,8.81,7.09,21.86,11.84,39.13,14.25,7.3,5.39,4.34,10.19-9.49,10.43Z" style="fill:#142d4d; fill-rule:evenodd;"/><path d="M424.37,828.85c4.54,.32,11.7-.56,12.97-2.17,4.83-6.14,8.18-12.53,9.42-16.56-.95-2.69-1.93-6.08-2.96-10.18-17.5-11.88-19.88-20.67-7.18-26.38,2.57,1.44,5.75,5.87,9.54,13.28,3.03-.12,5.34-1.68,6.89-4.65-3.61-12.5-5.96-22.67-7.05-30.48,8.62-12.81,28.78-14.65,55.49-11.18,1.24,7.1,2.25,14.63,3.04,22.58,4.73,4.34,4.12,20.47-.24,39.05,2.18,10.57-4.35,16.33-19.57,17.3-.22,3.75,.14,8.34,.37,8.87,.38,.8,1.74,1.58,3.61,2.26h0c.52,17.44-20.93,16.86-64.34-1.73Z" style="fill:#f4ae7c; fill-rule:evenodd;"/><path d="M501.49,740.53c-26.7-3.46-46.87-1.63-55.49,11.18,1.09,7.81,3.44,17.97,7.05,30.48-1.56,2.98-3.86,4.54-6.89,4.65-3.8-7.41-6.98-11.84-9.54-13.28-12.71,5.7-10.32,14.5,7.18,26.38,1.03,4.1,2.01,7.5,2.96,10.18-15.74-3.53-28.91-17.62-30.77-23.7-18.36-36.19,2.11-51.48,13.08-57.06,4.84-35.83,56.88-4.16,82.96-21.44,10.36,14.31-2.45,32.27-10.53,32.59Z" style="fill:#0f3970; fill-rule:evenodd;"/><path d="M661.71,892.34c-13.22,56.56-36.42,100.46-69.62,131.7-11.97-3.64-22.59-11.81-31.85-24.54,.49,40.91-.53,81.64-3.06,122.17-24.24,11.49-56.41,10.75-96.53-2.22l-16.28-20.04c-4.17-.81-13.67,3.81-18.23,10.84-38.09-29.07-63.78-60.32-78.94-91.37,4.09-66.7,13.15-119.32,27.18-157.88,7.1-10.91,23.74-21.62,49.98-32.16,43.41,18.6,64.86,19.18,64.34,1.74,12.77,4.19,29.71,11.6,50.81,22.24,17.6,13.37,32.58,49.6,44.97,108.69,20.14-25.23,41.03-51.99,62.68-80.27,4.81,1.37,9.65,5.05,14.55,11.08h0Zm-226.11,188.99c12.63-41.53,5.67-92.76-20.91-153.71-6.68,30.07-13.92,59.67-21.69,88.79,9.03,4.29,23.22,25.93,42.6,64.92Z" style="fill:#6998d0; fill-rule:evenodd;"/><path d="M430.89,1135.46c6.16-.47,16.08-5.81,29.76-16.01,40.12,12.97,72.29,13.72,96.53,2.22,4.31,68.24-12.46,139.77-33.74,219.49-20.85,35-19.96,59.61-31.07,140.36-6.17,4.41-16.36,3.77-30.58-1.91-4.51-68.86-1.39-114.44,16.48-140.14-2.8-23.09,4.51-79.84,4.85-115.47-13,28.97-21.92,68.13-38.85,107.66-20.63,48.14-34.99,99.65-45.87,146.65-11.5,2.24-22.3,.91-32.36-3.95,11.56-77.24,24.36-130.39,38.42-159.47-.54-75.95,6.69-144.15,21.69-204.63,2.8,7.14,4.37,15.54,4.74,25.21Z" style="fill:#0f3970; fill-rule:evenodd;"/><path d="M460.65,1119.45c-13.68,10.2-23.61,15.54-29.76,16.01-.36-9.67-1.94-18.07-4.74-25.21,4.55-7.03,14.05-11.65,18.23-10.84l16.28,20.04Z" style="fill:#f4ae7c; fill-rule:evenodd;"/><path d="M560.24,999.5c-1.32-39.75-4.51-72.32-9.55-97.75,12.85,53.97,25.31,89.8,37.37,107.46,7.61-.25,17.27-4.76,28.95-13.55-7.56,10.39-15.88,19.86-24.92,28.37-11.97-3.64-22.59-11.81-31.85-24.54Z" style="fill:#406fb5; fill-rule:evenodd;"/><path d="M444.38,1099.42c-2.33-5.77-5.26-11.8-8.77-18.09,12.63-41.53,5.67-92.76-20.91-153.71,38.65,54.95,49.61,113.53,32.88,175.74l-3.2-3.93Z" style="fill:#406fb5; fill-rule:evenodd;"/><path d="M467.18,815.78c4.27,2.11,10.12,3.33,17.54,3.68-.15,2.51-.04,5.41,.13,7.2-7.47-1.43-13.36-5.06-17.67-10.88Z" style="fill:#ed7d5b; fill-rule:evenodd;"/><path d="M463.49,1496.08c1.43-4.71,1.98-9.77,1.62-15.2,10.85,3.9,19.12,4.58,24.84,2.04-.3,4.03,.16,7.74,1.37,11.16-9.87-.35-5.36,11.61-27.83,2h0Zm-71.67-6.68c-3.41-.89-8.23-.51-10.06,.93-3.55,2.81-9.91-1.63-15.54-6.05,.97-2.67,1.78-5.59,2.4-8.76,6.78,2.83,13.87,4.1,21.28,3.8-.1,4.04,.54,7.41,1.92,10.08Z" style="fill:#f4ae7c; fill-rule:evenodd;"/><path d="M430.48,1145.16c.44-3.5,.57-6.73,.41-9.69,6.16-.47,16.08-5.81,29.76-16.01,3.25,1.06,6.45,2.02,9.6,2.92-9.63,10.02-22.89,17.61-39.77,22.79Z" style="fill:#0f3d86; fill-rule:evenodd;"/><path d="M661.71,892.34c.81-2.02,4.07-8.31,7.27-16.18,7.93-4.07,14.26-12.98,19-26.7-2.83-9.22-8.83-14.97-17.96-17.27-3.09,11.38-7.69,19.75-13.82,25.09,1.52-11.88-.44-15.6-5.87-11.17,.74,1.52,.78,3.43,.11,5.76-3.67,6.01-3.34,12.85,.99,20.52-1.66,3.46-3.46,6.96-4.27,8.85,4.94,1.59,9.55,5.04,14.55,11.09Z" style="fill:#f4ae7c; fill-rule:evenodd;"/><path d="M651.74,811l31.24-7.1c3.17-.72,6.34,1.27,7.06,4.44l14.95,65.77c.72,3.16-1.28,6.35-4.44,7.06l-31.24,7.1c-3.17,.71-6.34-1.28-7.06-4.45l-14.95-65.78c-.72-3.16,1.27-6.34,4.44-7.05Z" style="fill:#0f3d86; fill-rule:evenodd;"/><path d="M656.2,857.28c3.81-9.17-.44-15.6-5.87-11.17,.74,1.52,.78,3.43,.11,5.76-2.32,3.81-3.05,7.94-2.17,12.41l7.92-7Z" style="fill:#f4ae7c; fill-rule:evenodd;"/><path d="M473.62,758.93c-1.42,2.21-7.4,2.48-10.36,3.69-1.48,.62-5.2,3.48-6.65,3.35-4.44-.36,7.96-10.33,15.97-9.53,1.01,.1,1.63,1.58,1.04,2.49Z" style="fill:#0f3970; fill-rule:evenodd;"/><path d="M486.45,752.85c6.68-4.49,22.34-1.35,18.57,1.03-1.25,.79-5.86-.04-7.44,.12-3.18,.3-8.61,2.81-10.9,1.54-.93-.54-1.17-2.05-.23-2.69Z" style="fill:#0f3970; fill-rule:evenodd;"/><path d="M469.91,775.34c-2.21,.59-6.18-7.3-.84-8.74,2.84-.76,4.42,7.78,.84,8.74Z" style="fill:#0f3970; fill-rule:evenodd;"/><path d="M499.79,768.04c2.19-.59,1.67-9.41-3.67-7.97-2.84,.77,.07,8.94,3.67,7.97Z" style="fill:#0f3970; fill-rule:evenodd;"/><path d="M491.22,785.74c-.46-.88,1.07-1.38,2.01-1.88,3.41-1.78,4.04-.04-1.73-14.82-1.13-2.9-2.06-4.35-1.02-4.73,.97-.31,1.04,.93,2.32,4.23,6.28,16.05,5.77,14.01-.65,17.46-.34,.17-.75,.06-.94-.26Z" style="fill:#ed7d5b; fill-rule:evenodd;"/><path d="M478.78,796.99c-.98-1.48,.87-1.27,16.12-4.12,4.41-.83-7.26,17.5-16.12,4.12Z" style="fill:#fff; fill-rule:evenodd;"/><path d="M1388.58,308.64c5.27-26.45-6.91-52.66-30.17-62.5,.15-15.04-5.66-30.14-15.69-40.43-19.78-20.32-56.5-31.42-71.05-5.51-19.24,11.13-34.34,35.26-28.61,57.24-18.64,19.75-11.56,55.51,15.59,72.39-.43,22.19,11.02,44.21,29.96,53.68,4.55,2.29,11.65,5.45,12.54,6.44-1.17-1.15,14.04,42.22,61.26,22.37,48.21-20.25,57.57-77.26,26.18-103.68Z" style="fill:#0f3970; fill-rule:evenodd;"/><path d="M1226.61,521.27c-6.26,8.57-27.16-4.31-51.37-17.18-27.53-14.65-59.36-29.28-78.78-12.39-29.92,26.01,72.85,124.27,189.89,126.89,141.06,3.15,205.44-95.68,183.33-126.89-12.33-17.4-35.96-3.06-56.94,11.28-16.64,11.38-31.6,22.75-37.94,18.29-16.94-8.11-109.39-4.54-148.18,0Z" style="fill:#0f3970; fill-rule:evenodd;"/><path d="M1269.67,602.07c23.02,4.86,84.19,1.3,88.56,3.09,9.62,3.96,3.01,22.43-16.8,27.51-13.45,3.46-35.02,1.7-69.32-14.78l-2.43-15.82Z" style="fill:#f4ae7c; fill-rule:evenodd;"/><path d="M1096.45,491.7c37.06-29.26,91.67,65.02,192.45,118.34,0,0-1.3,11.7-11.7,13.65,0,0-90.15-22.41-138.34-57.85-39.81-29.27-57.59-62.16-42.41-74.14Z" style="fill:#0f3d86; fill-rule:evenodd;"/><path d="M1277.2,623.68c10.4-1.94,11.7-13.65,11.7-13.65-9.64-5.09-18.84-10.57-27.66-16.29-20.58,8.9-38.18,10.18-46.52,10.18,33.73,12.6,62.48,19.75,62.48,19.75Z" style="fill:#142d4d; fill-rule:evenodd;"/><path d="M1241.45,608.09s.65,7.15,8.45,12.35c0,0,76.96-7.49,141.6-38.53,56.38-27.09,88.21-75.14,78.16-90.21-14.31-21.46-38.36-1.3-105.98,45.52-30.51,21.11-122.24,70.87-122.24,70.87Z" style="fill:#0f3d86; fill-rule:evenodd;"/><path d="M1391.5,576.7c-57.54,27.63-130.85,37.62-146.32,39.47,1.17,1.46,2.7,2.92,4.72,4.26,0,0,76.96-7.49,141.6-38.53,51.63-24.81,82.58-67.13,79.71-85.66-2.55,20.39-32.46,57.76-79.71,80.45Z" style="fill:#0f3970; fill-rule:evenodd;"/><path d="M1222.97,523.67s28.24,21.34,74.38,20.69c46.16-.65,86.1-23.24,86.12-23.26-3.64,1.36-6.64,1.62-8.7,.16-16.94-8.11-109.39-4.54-148.18,0-.9,1.25-2.14,2-3.63,2.41Z" style="fill:#142d4d; fill-rule:evenodd;"/><path d="M1250.76,312.52c26.23,7.52-2.92,126.66-20.16,163.13-23.33,49.42-97.53,92.34-97.53,92.34l-7.81-4.34s74.02-92.67,80.95-110.87c6.95-18.21,22.78-146.51,44.54-140.27Z" style="fill:#f4ae7c; fill-rule:evenodd;"/><path d="M1137.26,554.29s-23.63,6.92-26.79,8.02c-12.34,4.29-11.49,8.09-11.42,9.32,0,0-4.4,6.09-3.72,7.11,1.18,1.73,2.43-.18,8.68-6.31,1.38-1.36,5.27-4.61,5.96-4.11,.67,.5-3.12,3.01-5.43,5.01-1.94,1.68-6.39,10.93-4.42,11.56,1.87,.6,5.82-6.86,7.94-8.97,1.58-1.59,6.16-4.49,7-3.91,.87,.58-3.74,4.81-4.49,5.86-.75,1.06-4.51,6.58-3.08,7.7,1.27,.99,4.17-3.32,7.78-7,2.68-2.73,11.63-7.36,12.81-7.37,1.39,0-.04,3.42-1.94,6.03-1.92,2.61-3.27,6.77-1.27,7.25,2,.46,5.58-7.34,10.02-12.44,4.43-5.1,5.17-11.94,5.17-11.94,0,0-1.49-5.73-2.81-5.82Z" style="fill:#e1a065; fill-rule:evenodd;"/><path d="M1260.81,435.03c0,31.43-10.26,54.73-34.2,86.24,47.01,16.06,96.61,14.64,148.18,0-15-50.38-49.27-81.81-49.27-87.87s21.96-28.8,33.93-63.2c12.19-35.06,6.85-53.34,6.85-53.34-44.18-19.81-70.09-24.38-120.37-3.79l-1.89,30.46s-3.11,23.78-1.58,34.46c1.52,10.67,18.36,40.29,18.36,57.05Z" style="fill:#6998d0; fill-rule:evenodd;"/><path d="M1275.56,302.89c41.64-17.45,26.8-11.12,63.37,4.14-6.63,4.13-10.6,31.19-41.19,40.2-26.32-2.64-15.27-22.12-22.19-44.33Z" style="fill:#f4ae7c; fill-rule:evenodd;"/><path d="M1330.1,230.38s-11.99,45.06-1.7,76.29l-28.46,6.52-21.11-9.85s6.02-13.57,4.42-39.77c-1.17-19.21,46.86-33.19,46.86-33.19Z" style="fill:#f4ae7c; fill-rule:evenodd;"/><path d="M1366.28,316.86c26.23,7.52-2.92,126.66-20.15,163.14-23.35,49.42-97.55,92.33-97.55,92.33l-7.81-4.33s74.03-92.67,80.96-110.87c6.94-18.21,22.78-146.5,44.54-140.27Z" style="fill:#f4ae7c; fill-rule:evenodd;"/><path d="M1242.24,563.63c-9.25,2.3-20.97,3.42-21.8,7.22-1.8,8.3,11.37,13.54,18.05,11.69,6.5-2.23,12.11-11.07,12.11-11.07,0,0,.8-10.13-8.36-7.85Z" style="fill:#f4ae7c; fill-rule:evenodd;"/><path d="M1202.86,582.17c-1.16-.78,4.59-8.65,6.43-9.85,1.47-.97,2.99-2.35,17.2-5.22l-5.01,7.29s-8.83,.6-10.06,1.07c-1.22,.48-3.92,6.85-8.56,6.7Z" style="fill:#f4bb80; fill-rule:evenodd;"/><path d="M1213.21,597.67c-1.99-.23,.49-9,1.53-10.92,1.31-2.43,.97-3.57,9.49-15.27l1.38,8.53s-6.72,7.62-7.28,8.78c-.57,1.18-2.05,7.56-5.13,8.87Z" style="fill:#f4bb80; fill-rule:evenodd;"/><path d="M1220,599.13c-1.92-.22,.46-8.65,1.46-10.48,1.26-2.32,.93-3.41,9.13-14.65l1.31,8.19s-6.43,7.31-6.99,8.44c-.55,1.12-1.96,7.24-4.91,8.5Z" style="fill:#f4bb80; fill-rule:evenodd;"/><path d="M1228.82,595.85c-1.62-.19,.4-7.32,1.24-8.87,1.07-1.97,.77-2.89,7.72-12.41l1.11,6.94s-5.46,6.18-5.92,7.13c-.46,.95-1.66,6.14-4.15,7.21Z" style="fill:#f4bb80; fill-rule:evenodd;"/><path d="M1371.99,321.41c8.9,31.61-16.09,121.25-31.06,152.74-18.94,39.87-69.5,81.22-89,96.18,14.66-8.98,73.82-47.17,94.21-90.32,15.69-33.23,41.27-135.08,25.85-158.59Z" style="fill:#f4ae7c; fill-rule:evenodd;"/><path d="M1253.57,601.81c-23.03,4.86-84.19,1.3-88.57,3.09-9.62,3.95-3.01,22.43,16.81,27.51,13.44,3.46,35.01,1.7,69.31-14.78l2.44-15.82Z" style="fill:#f4ae7c; fill-rule:evenodd;"/><polygon points="1001.29 614.96 1170.35 615 1134.85 483.89 965.79 483.84 1001.29 614.96" style="fill:#8d9fca; fill-rule:evenodd;"/><rect x="1121.53" y="497.58" width="10.17" height="248.84" transform="translate(503.26 1747.87) rotate(-89.93)" style="fill:#aab9de;"/><polygon points="1001.17 614.79 1166.35 615 1131.54 486.46 966.36 486.25 1001.17 614.79" style="fill:#aab9de; fill-rule:evenodd;"/><path d="M1050.56,549.2c2.09,6.25,9.37,11.33,16.28,11.34,6.91,0,10.83-5.06,8.75-11.32-2.08-6.25-9.36-11.34-16.27-11.34-6.92,0-10.84,5.06-8.76,11.32Z" style="fill:#8d9fca; fill-rule:evenodd;"/><polygon points="1170.82 627.15 1251.03 627.24 1251.04 617.07 1170.84 616.98 1170.82 627.15" style="fill:#8d9fca; fill-rule:evenodd;"/><polygon points="1118.6 619.45 1149.6 619.48 1149.6 615.02 1118.6 614.97 1118.6 619.45" style="fill:#8d9fca; fill-rule:evenodd;"/><polygon points="1012.53 619.3 1039.04 619.34 1039.05 614.87 1012.53 614.84 1012.53 619.3" style="fill:#8d9fca; fill-rule:evenodd;"/><polygon points="1130.44 488.09 966.81 487.88 966.36 486.25 1131.54 486.46 1166.35 615 1164.82 615 1130.44 488.09" style="fill:#dce6f2; fill-rule:evenodd;"/><path d="M1276.06,286.43s48.83,3.8,50.74-26.65c1.89-30.45,9.47-50.47-21.62-54.18-31.1-3.72-37.9,7.54-41,17.54-3.12,10.02-.78,61.53,11.89,63.3Z" style="fill:#f4ae7c; fill-rule:evenodd;"/><path d="M1266.67,206.28c8.11-8.68,13.7-6.32,16.74-3.37,27.61-13.06,43.5,9.71,43.5,9.71,1.92,22.05,16.92,35.53,16.92,35.53,0,0-9.25,4.96-29.46-1.59-6.18-2-11.49-6.79-15.93-12.51,7.46,14.45,18.16,25.19,18.16,25.19-23.86-12.85-31.6-47.59-32.38-51.25-3.13,2.48-9.39,7.95-11.53,13.55-2.91,7.61-4.97,23.5-9.61,22.67,0,0-8.6-24.91,3.59-37.95Z" style="fill:#0f3970; fill-rule:evenodd;"/><path d="M1295.95,250.62c2.18,.27,4.87-8.11-.41-8.76-2.83-.34-3.15,8.31,.41,8.76Z" style="fill:#0f3970; fill-rule:evenodd;"/><path d="M1268.47,247.76c-2.18-.27-2.9-9.05,2.39-8.4,2.82,.34,1.19,8.85-2.39,8.4Z" style="fill:#0f3970; fill-rule:evenodd;"/><path d="M1294.59,234.03c-3.52-.31-3.76,2.61-1.29,3.7,.72,.33,14.62,4.88,14.09,3.93-.98-1.98-6.12-7.05-12.8-7.63Z" style="fill:#0f3970; fill-rule:evenodd;"/><path d="M1275.11,231.3c3.52,.4,3.22,3.31,.6,3.88-1.25,.27-15.42,2-14.43,.88,1.64-1.82,7.4-5.51,13.83-4.77Z" style="fill:#0f3970; fill-rule:evenodd;"/><path d="M1274.88,262.77c7.86,2.23,6.92-1.38,4.71-.95-7.34,1.44-.31-2.81-1.53-15.54-.15-1.33-1.64-1.17-1.68-.05-.02,.77,.24,3.57,.15,4.41-.95,10.16-4.17,11.42-1.65,12.14Z" style="fill:#ed7d5b; fill-rule:evenodd;"/><path d="M1272.92,268.54c10.23,19.6,21.26,2.02,18.22,1.5-15.46-2.63-19.47-3.88-18.22-1.5Z" style="fill:#fff; fill-rule:evenodd;"/><path d="M1282.03,291.13c18.34,2.25,32.47-.28,42.38-7.61-.25-4.88-.23-9.76,0-14.48-7.51,15.06-30.33,17.36-41.72,17.54-.2,1.63-.42,3.15-.66,4.55Z" style="fill:#ec724c; fill-rule:evenodd;"/></svg>