<?xml version="1.0" encoding="UTF-8"?><svg id="a" xmlns="http://www.w3.org/2000/svg" viewBox="0 0 1335.49 1199.59"><path d="M627.97,175.96c133.85,0,118.56,226.85,215.19,295.99,127.89,91.53,347.91,46.21,347.91,203.27,0,275.74-285.39,375.64-596.38,375.64S18.34,897.93,110.94,622.92C203.54,347.91,316.97,175.96,627.97,175.96Z" style="fill:#e9eff8; fill-rule:evenodd;"/><path d="M1116.8,1128.66c-120.78,0-218.69,15.88-218.69,35.46s97.91,35.47,218.69,35.47,218.69-15.88,218.69-35.47-97.91-35.46-218.69-35.46Z" style="fill:#d0d9ee; fill-rule:evenodd;"/><rect x="284.95" y="533.5" width="906.12" height="496.91" style="fill:#d0d9ee;"/><rect x="279.07" y="550.94" width="906.12" height="75.4" style="fill:#bcc9e7;"/><polygon points="254.72 577.41 1210.54 577.41 1085.81 226.64 366.77 226.64 254.72 577.41" style="fill:#bcc9e7; fill-rule:evenodd;"/><rect x="254.72" y="575.66" width="955.81" height="21" style="fill:#aab9de;"/><rect x="875.69" y="670.29" width="183.09" height="261.66" style="fill:#aab9de;"/><rect x="1002.62" y="678.44" width="47.4" height="118.61" style="fill:#d0d9ee;"/><rect x="943.32" y="678.44" width="48.43" height="118.61" style="fill:#d0d9ee;"/><rect x="884.13" y="678.44" width="48.33" height="118.61" style="fill:#d0d9ee;"/><rect x="1002.62" y="805.32" width="47.4" height="118.61" style="fill:#d0d9ee;"/><rect x="943.32" y="805.32" width="48.43" height="118.61" style="fill:#d0d9ee;"/><rect x="884.13" y="805.32" width="48.33" height="118.61" style="fill:#d0d9ee;"/><polygon points="1042.7 690.14 1002.62 690.14 1002.62 678.44 1050.02 678.44 1050.02 797.05 1042.7 797.05 1042.7 690.14" style="fill:#bcc9e7; fill-rule:evenodd;"/><polygon points="984.45 690.14 943.32 690.14 943.32 678.44 991.76 678.44 991.76 797.05 984.45 797.05 984.45 690.14" style="fill:#bcc9e7; fill-rule:evenodd;"/><polygon points="925.14 690.14 884.13 690.14 884.13 678.44 932.46 678.44 932.46 797.05 925.14 797.05 925.14 690.14" style="fill:#bcc9e7; fill-rule:evenodd;"/><polygon points="1042.7 817.02 1002.62 817.02 1002.62 805.32 1050.02 805.32 1050.02 923.92 1042.7 923.92 1042.7 817.02" style="fill:#bcc9e7; fill-rule:evenodd;"/><polygon points="984.45 817.02 943.32 817.02 943.32 805.32 991.76 805.32 991.76 923.92 984.45 923.92 984.45 817.02" style="fill:#bcc9e7; fill-rule:evenodd;"/><polygon points="925.14 817.02 884.13 817.02 884.13 805.32 932.46 805.32 932.46 923.92 925.14 923.92 925.14 817.02" style="fill:#bcc9e7; fill-rule:evenodd;"/><rect x="362.38" y="596.25" width="726.36" height="58.46" style="fill:#bcc9e7;"/><rect x="362.38" y="651.79" width="726.36" height="17.54" style="fill:#fff;"/><rect x="639.62" y="670.29" width="183.08" height="378.31" style="fill:#aab9de;"/><rect x="766.55" y="678.44" width="47.39" height="74.55" style="fill:#d0d9ee;"/><rect x="707.25" y="678.44" width="48.43" height="74.55" style="fill:#d0d9ee;"/><rect x="648.05" y="678.44" width="48.33" height="74.55" style="fill:#d0d9ee;"/><rect x="766.55" y="761.27" width="47.39" height="43.04" style="fill:#d0d9ee;"/><rect x="707.25" y="761.27" width="48.43" height="43.04" style="fill:#d0d9ee;"/><rect x="648.05" y="761.27" width="48.33" height="43.04" style="fill:#d0d9ee;"/><polygon points="806.62 690.14 766.55 690.14 766.55 678.44 813.94 678.44 813.94 753 806.62 753 806.62 690.14" style="fill:#bcc9e7; fill-rule:evenodd;"/><polygon points="748.37 690.14 707.25 690.14 707.25 678.44 755.67 678.44 755.67 753 748.37 753 748.37 690.14" style="fill:#bcc9e7; fill-rule:evenodd;"/><polygon points="689.06 690.14 648.05 690.14 648.05 678.44 696.38 678.44 696.38 753 689.06 753 689.06 690.14" style="fill:#bcc9e7; fill-rule:evenodd;"/><polygon points="806.62 772.98 766.55 772.98 766.55 761.27 813.94 761.27 813.94 804.3 806.62 804.3 806.62 772.98" style="fill:#bcc9e7; fill-rule:evenodd;"/><polygon points="748.37 772.98 707.25 772.98 707.25 761.27 755.67 761.27 755.67 804.3 748.37 804.3 748.37 772.98" style="fill:#bcc9e7; fill-rule:evenodd;"/><polygon points="689.06 772.98 648.05 772.98 648.05 761.27 696.38 761.27 696.38 804.3 689.06 804.3 689.06 772.98" style="fill:#bcc9e7; fill-rule:evenodd;"/><rect x="766.55" y="813.6" width="47.39" height="43.03" style="fill:#d0d9ee;"/><rect x="707.25" y="813.6" width="48.43" height="43.03" style="fill:#d0d9ee;"/><rect x="648.05" y="813.6" width="48.33" height="43.03" style="fill:#d0d9ee;"/><polygon points="806.62 825.31 766.55 825.31 766.55 813.6 813.94 813.6 813.94 856.64 806.62 856.64 806.62 825.31" style="fill:#bcc9e7; fill-rule:evenodd;"/><polygon points="748.37 825.31 707.25 825.31 707.25 813.6 755.67 813.6 755.67 856.64 748.37 856.64 748.37 825.31" style="fill:#bcc9e7; fill-rule:evenodd;"/><polygon points="689.06 825.31 648.05 825.31 648.05 813.6 696.38 813.6 696.38 856.64 689.06 856.64 689.06 825.31" style="fill:#bcc9e7; fill-rule:evenodd;"/><rect x="766.55" y="865.93" width="47.39" height="43.03" style="fill:#d0d9ee;"/><rect x="707.25" y="865.93" width="48.43" height="43.03" style="fill:#d0d9ee;"/><rect x="648.05" y="865.93" width="48.33" height="43.03" style="fill:#d0d9ee;"/><polygon points="806.62 877.64 766.55 877.64 766.55 865.93 813.94 865.93 813.94 908.96 806.62 908.96 806.62 877.64" style="fill:#bcc9e7; fill-rule:evenodd;"/><polygon points="748.37 877.64 707.25 877.64 707.25 865.93 755.67 865.93 755.67 908.96 748.37 908.96 748.37 877.64" style="fill:#bcc9e7; fill-rule:evenodd;"/><polygon points="689.06 877.64 648.05 877.64 648.05 865.93 696.38 865.93 696.38 908.96 689.06 908.96 689.06 877.64" style="fill:#bcc9e7; fill-rule:evenodd;"/><rect x="766.55" y="918.55" width="47.39" height="121.37" style="fill:#d0d9ee;"/><rect x="707.25" y="918.55" width="48.43" height="121.37" style="fill:#d0d9ee;"/><rect x="648.05" y="918.55" width="48.33" height="121.37" style="fill:#d0d9ee;"/><polygon points="806.62 930.25 766.55 930.25 766.55 918.55 813.94 918.55 813.94 1039.92 806.62 1039.92 806.62 930.25" style="fill:#bcc9e7; fill-rule:evenodd;"/><polygon points="748.37 930.25 707.25 930.25 707.25 918.55 755.67 918.55 755.67 1039.92 748.37 1039.92 748.37 930.25" style="fill:#bcc9e7; fill-rule:evenodd;"/><polygon points="689.06 930.25 648.05 930.25 648.05 918.55 696.38 918.55 696.38 1039.92 689.06 1039.92 689.06 930.25" style="fill:#bcc9e7; fill-rule:evenodd;"/><rect x="397.79" y="670.29" width="183.09" height="261.66" style="fill:#aab9de;"/><rect x="524.71" y="678.44" width="47.4" height="118.61" style="fill:#d0d9ee;"/><rect x="465.41" y="678.44" width="48.44" height="118.61" style="fill:#d0d9ee;"/><rect x="406.22" y="678.44" width="48.34" height="118.61" style="fill:#d0d9ee;"/><rect x="524.71" y="805.32" width="47.4" height="118.61" style="fill:#d0d9ee;"/><rect x="465.41" y="805.32" width="48.44" height="118.61" style="fill:#d0d9ee;"/><rect x="406.22" y="805.32" width="48.34" height="118.61" style="fill:#d0d9ee;"/><polygon points="564.79 690.14 524.71 690.14 524.71 678.44 572.11 678.44 572.11 797.05 564.79 797.05 564.79 690.14" style="fill:#bcc9e7; fill-rule:evenodd;"/><polygon points="506.53 690.14 465.41 690.14 465.41 678.44 513.85 678.44 513.85 797.05 506.53 797.05 506.53 690.14" style="fill:#bcc9e7; fill-rule:evenodd;"/><polygon points="447.23 690.14 406.22 690.14 406.22 678.44 454.55 678.44 454.55 797.05 447.23 797.05 447.23 690.14" style="fill:#bcc9e7; fill-rule:evenodd;"/><polygon points="564.79 817.02 524.71 817.02 524.71 805.32 572.11 805.32 572.11 923.92 564.79 923.92 564.79 817.02" style="fill:#bcc9e7; fill-rule:evenodd;"/><polygon points="506.53 817.02 465.41 817.02 465.41 805.32 513.85 805.32 513.85 923.92 506.53 923.92 506.53 817.02" style="fill:#bcc9e7; fill-rule:evenodd;"/><polygon points="447.23 817.02 406.22 817.02 406.22 805.32 454.55 805.32 454.55 923.92 447.23 923.92 447.23 817.02" style="fill:#bcc9e7; fill-rule:evenodd;"/><rect x="1060.73" y="662.08" width="20.2" height="392.4" style="fill:#fff;"/><rect x="839.28" y="658.47" width="20.2" height="392.38" style="fill:#fff;"/><rect x="595.4" y="658.47" width="20.2" height="392.38" style="fill:#fff;"/><rect x="370.42" y="658.47" width="20.2" height="392.38" style="fill:#fff;"/><path d="M864.16,1034.96h14.84v-80.1h-14.84v80.1h0Zm20.23,0h14.84v-80.1h-14.84v80.1h0Zm20.24,0h14.84v-80.1h-14.84v80.1h0Zm20.23,0h14.84v-80.1h-14.84v80.1h0Zm20.24,0h14.84v-80.1h-14.84v80.1h0Zm20.23,0h14.84v-80.1h-14.84v80.1h0Zm20.24,0h14.84v-80.1h-14.84v80.1h0Zm20.23,0h14.84v-80.1h-14.84v80.1h0Zm20.23,0h14.84v-80.1h-14.84v80.1h0Zm20.23,0h14.84v-80.1h-14.84v80.1h0Zm19.76-98.18v109.82h-208.2v-109.82h208.2Z" style="fill:#fff; fill-rule:evenodd;"/><path d="M393.56,1034.96h14.84v-80.1h-14.84v80.1h0Zm20.23,0h14.83v-80.1h-14.83v80.1h0Zm20.23,0h14.84v-80.1h-14.84v80.1h0Zm20.23,0h14.84v-80.1h-14.84v80.1h0Zm20.23,0h14.84v-80.1h-14.84v80.1h0Zm20.24,0h14.84v-80.1h-14.84v80.1h0Zm20.23,0h14.84v-80.1h-14.84v80.1h0Zm20.23,0h14.85v-80.1h-14.85v80.1h0Zm20.23,0h14.84v-80.1h-14.84v80.1h0Zm20.23,0h14.85v-80.1h-14.85v80.1h0Zm19.77-98.18v109.82h-208.2v-109.82h208.2Z" style="fill:#fff; fill-rule:evenodd;"/><rect x="241.07" y="1047.85" width="968.97" height="21.93" style="fill:#aab9de;"/><path d="M1178,293.32c-5.73,.41-11.24-6.38-12.84-8.41-6.08-7.73-9.97-16.8-11.53-21.89,1.19-3.38,2.43-7.65,3.73-12.81,22.05-14.98,25.06-26.06,9.04-33.24-3.23,1.81-7.23,7.39-12.02,16.73-3.83-.15-6.72-2.11-8.69-5.87,4.55-15.77,7.5-28.57,8.88-38.42-10.87-16.15-36.27-18.45-69.92-14.09-1.56,8.95-2.84,18.44-3.84,28.46-5.95,5.48-5.18,25.8,.3,49.22-2.74,13.31,5.48,20.58,24.67,21.8,.18,3.21-.11,6.91-.17,9.17-.05,2.04-.12,6.03-2.25,6.66l-3.56,.88c.36,47.61,24.73,56.76,78.21,1.83Z" style="fill:#f5b58b; fill-rule:evenodd;"/><path d="M1084.64,175.32c33.65-4.36,59.06-2.06,69.92,14.09-1.38,9.84-4.33,22.65-8.88,38.42,1.97,3.76,4.86,5.71,8.69,5.87,4.79-9.34,8.8-14.92,12.03-16.73,16.02,7.18,13.01,18.27-9.04,33.24-1.29,5.16-2.54,9.43-3.73,12.82,19.84-4.45,36.44-22.19,38.78-29.86,23.13-45.61-2.67-64.87-16.47-71.9-6.1-45.17-71.94-6.11-89.26-33.69-36.24,20.68-12.2,47.34-2.02,47.74Z" style="fill:#0f3970; fill-rule:evenodd;"/><path d="M1127.88,270.15c-5.38,2.66-12.75,4.2-22.11,4.64,.18,3.17,.05,6.82-.16,9.08,9.42-1.81,16.84-6.38,22.27-13.71Z" style="fill:#ed7d5b; fill-rule:evenodd;"/><path d="M1218.11,1184.96c20.9-7.36,22.58-18.13,33.84-23.39,11.34-5.29,12.64-14.73,1.55-24.97-8.19,6.54-18.35,14.59-23.73,10.33-3.6-2.85-15.79-2.66-18.21,1.49-10.61,24.68-25.38,16.86-28.29,28.09-.34,14.95,25.24,11.84,34.83,8.46Z" style="fill:#142d4d; fill-rule:evenodd;"/><path d="M1037.02,1160.41c36.81-.59,64.32-1.03,77.03-5.04,13.71-4.33,10.87-12.7,3-26.07-34.69,15.96-25.45-3.28-41.67-.83-11.4,9.18-28.29,15.33-50.64,18.45-9.46,6.98-5.62,13.19,12.29,13.5Z" style="fill:#142d4d; fill-rule:evenodd;"/><path d="M1055.41,298.71c18.37-5.33,34.86-8.56,49.49-9.7,2.64,40.36,23.7,40.08,63.17-.84,38.01,3.19,45.45,3.68,66.54,10.52,45.63,43.59,49.82,93.89,73.68,151.37-26.4,1.18-38.26,4.36-56.21,10.76-3.86-13.77-7.08-24.86-9.68-33.26,.73,75.8,1.01,127.73,.84,155.81-87.33,34.6-159.28,22.76-188.65-4.21-.41-67.38-.97-120.72-1.68-160.02-10.44,12.31-20.13,21.86-29.06,28.64-21.41-24.55-35.92-34.43-48.06-48.9,26.88-44.14,65.39-85.2,79.64-100.16Z" style="fill:#6998d0; fill-rule:evenodd;"/><path d="M879.4,372.54c45.88,19.07,78,34.81,96.37,47.26l8.16-12.08c7.59,7.6,16.25,15.05,26.82,25.88-9.77,10.23-20.25,18.64-32.47,25.74-31.88-3.4-67.11-27.55-105.71-72.42-12-2.4-20.83-6.74-26.5-13.05-.3-5.79,2.61-11.58,8.73-17.39-16-10.43-22.37-17.89-19.1-22.39,25.08,15.5,39.64,28.32,43.71,38.45Z" style="fill:#f5b58b; fill-rule:evenodd;"/><path d="M1054.57,579.16c1.72,6.55-5.42,45.05-6.61,65.12-11.61,71.67-1.66,164.96,4.58,284.92,11.19,42.27,27.71,98.61,26.63,177.89,19.48,5.96,26.54,6.57,44.12,2.1,12.3-82.75,3.91-149.01-7.2-179.62,7.12-47.3,17.74-100.25,33.2-176.62,17.41,83.22,40.72,144.99,50.81,185.29,2,44.93,11.09,105.57,15.83,181.92,14.47,4.36,23.47,5.62,38.48,3.79,19.47-70.18,16.2-146.54,7.96-229.08-8.79-99.24,5.69-211.29-8.8-250.14-7.41-23.02-8.37-43.45-10.36-61.36-72.86,24.25-135.75,22.85-188.65-4.21Z" style="fill:#406fb5; fill-rule:evenodd;"/><path d="M1229.79,506.37c4.68,.69,9.1,1.31,13.27,1.87,.22,33.43,.27,58.48,.17,75.13-4.12,1.84-9.94,3.97-14.45,4.51,.03-2.15,.7-7.11,.72-9.22,.29-25.56,.39-49.66,.3-72.29h0Zm-213.53-66.99c12.86-10.71,25.1-28.1,36.72-52.17-1.3,8.38-1.83,19.61-1.56,33.66-9.88,11.47-19.08,20.45-27.59,26.91-2.62-3.01-5.14-5.79-7.57-8.4h0Zm209.9-65.19c5.66,18.23,11.08,36.02,16.23,53.37,.14,14.65,.27,28.41,.38,41.27-3.75-.35-8.13-.59-13.33-.71-.54-35.58-1.63-66.89-3.28-93.93Z" style="fill:#406fb5; fill-rule:evenodd;"/><path d="M1110.88,400.41h-96.15c-4.41,0-7.44,3.6-6.74,8.01l21.58,136.2c.69,4.41,4.87,8.01,9.28,8.01h96.14c4.41,0,7.44-3.61,6.74-8.01l-21.57-136.2c-.7-4.41-4.88-8.01-9.28-8.01Z" style="fill:#ed7a15; fill-rule:evenodd;"/><path d="M1299.41,450.57c4.16,16.87,5.89,32.29,2.48,52.74-10.37,15.07-52.25,6.64-160.06-11.38-3.87,3.53-11.86,7.04-24.01,5.48-11.28-2.82-11.81-5.76-24.47-17.68-3.07-9.29-2.43-16.38,1.9-21.27,14.24,8.38,21.74,12.84,37.78,13.37-4.27-10.99-4.92-18.08-1.93-21.27,5.47,4.39,9.04,10.98,10.69,19.79,85.01-3.69,107.41-3.2,118.74,2.73-1.23-5.34-2.31-10.02-3.27-14.07,13.23-4.5,24.01-7.13,42.15-8.44Z" style="fill:#f5b58b; fill-rule:evenodd;"/><path d="M1114.6,1111.14c-.87,7.22-.99,13.69-.38,19.42-29.02,12.62-24.09-1.95-35.69-2.31,2.91-5.12,4.8-11.67,5.67-19.64,12.66,3.62,19.85,4.43,30.4,2.54h0Zm135.24,13.3c0,5.24,.5,9.87,1.53,13.86-7.76,6.13-16.68,12.53-21.6,8.63-2.37-1.87-8.44-2.43-13.01-1.42,1.88-6.34,3.36-14.28,4.45-23.82,10.17,2.73,17.99,3.65,28.62,2.75Z" style="fill:#f5b58b; fill-rule:evenodd;"/><path d="M1047.96,644.28c51.25,47.78,119.78,47.93,205.62,.45,14.49,38.86,.01,150.91,8.8,250.14,8.24,82.54,11.51,158.91-7.96,229.08-1.59,.19-3.11,.35-4.58,.48-10.64,.9-18.45-.01-28.62-2.75-1.69-.46-3.43-.96-5.28-1.51-4.74-76.35-13.84-136.99-15.83-181.92-10.09-40.3-33.39-102.07-50.81-185.29-15.47,76.37-26.09,129.32-33.2,176.62,11.11,30.61,19.5,96.87,7.2,179.62-3.2,.82-6.05,1.46-8.69,1.94-10.55,1.89-17.74,1.08-30.4-2.54-1.59-.46-3.25-.95-5.03-1.5,1.08-79.29-15.44-135.62-26.63-177.89-6.25-119.97-16.2-213.26-4.58-284.92Z" style="fill:#0f3970; fill-rule:evenodd;"/><path d="M1128.85,1052.35c-18.7,5.08-35.82,6.61-51.36,4.59-.34-4.1-.71-8.13-1.14-12.09,17.04,2.21,34.67,1.08,52.88-3.42-.09,3.58-.21,7.22-.38,10.92h0Zm136.63,14.23c-20.33,2.44-38.34,1.09-54.02-4.04-.4-4.27-.79-8.48-1.2-12.63,17.61,5.75,36.39,7.71,56.36,5.9-.34,3.6-.71,7.19-1.14,10.77h0Zm-51.4,26.87c-.32-4.23-.67-8.41-1.01-12.54,15.7,4.3,32.31,5.67,49.83,4.14-.59,3.64-1.23,7.27-1.93,10.88-17.33,1.95-32.97,1.12-46.9-2.48h0Zm-135.68-23.39c15.86,2.62,32.33,2.33,49.43-.86-.28,3.62-.59,7.29-.95,10.99-17.48,3.7-33.45,4.36-47.93,1.97-.14-4.1-.32-8.14-.55-12.11Z" style="fill:#142d4d; fill-rule:evenodd;"/><path d="M494.58,11.26l235.76,329.39c8.65,12.08,5.84,29.03-6.24,37.67l-141.17,101.05c-12.08,8.64-29.03,5.83-37.67-6.24L309.5,143.73c-8.64-12.08-5.84-29.03,6.24-37.67L456.91,5.02c12.08-8.64,29.03-5.84,37.68,6.24Z" style="fill:#d0d9ee; fill-rule:evenodd;"/><rect x="407.84" y="277.57" width="21.55" height="74.26" transform="translate(-104.95 302.45) rotate(-35.59)" style="fill:#aab9de;"/><path d="M515.56,26.49l2.81,3.92c2.63,3.67,1.77,8.81-1.89,11.44l-185.09,132.48c-3.67,2.63-8.81,1.77-11.43-1.89l-2.81-3.92c-2.63-3.67-1.77-8.81,1.9-11.44L504.13,24.59c3.67-2.62,8.81-1.77,11.43,1.9h0Zm204.32,285.47l2.81,3.92c2.63,3.67,1.77,8.81-1.89,11.44l-185.09,132.48c-3.67,2.62-8.81,1.77-11.44-1.9l-2.81-3.92c-2.63-3.67-1.77-8.81,1.9-11.44l185.09-132.48c3.67-2.62,8.81-1.77,11.43,1.9Z" style="fill:#aab9de; fill-rule:evenodd;"/><path d="M425.77,343.21L100.74,602.3c-12.89,10.27-33.36,3.87-52.44-22.54-18.84-26.57-18.3-48.02-4.42-56.9l350.06-224.11,31.83,44.47Z" style="fill:#d0d9ee; fill-rule:evenodd;"/><path d="M58.85,592.25l-15.18,10.87-18.97-26.51,15.18-10.86c2.19,4.47,4.98,9.16,8.43,14.01,3.49,4.83,7.02,8.98,10.55,12.49Z" style="fill:#aab9de; fill-rule:evenodd;"/><path d="M43.46,602.82c.24,6.61-2.19,12.66-7.2,16.24-8.93,6.39-22.68,2.49-30.7-8.71-8.02-11.21-7.28-25.48,1.65-31.88,5-3.58,11.52-3.93,17.69-1.57l18.55,25.92Z" style="fill:#d0d9ee; fill-rule:evenodd;"/><rect x="543.63" y="1112.81" width="272.17" height="45.09" style="fill:#bcc9e7;"/><path d="M539.72,1091.79h279.98c5.79,0,10.51,4.73,10.51,10.51h0c0,5.79-4.72,10.51-10.51,10.51h-279.98c-5.78,0-10.51-4.72-10.51-10.5h0c0-5.79,4.73-10.52,10.51-10.52Z" style="fill:#aab9de; fill-rule:evenodd;"/><path d="M237.15,906.51c76.3,0,138.15,61.85,138.15,138.15s-61.85,138.15-138.15,138.15-138.16-61.85-138.16-138.15,61.86-138.15,138.16-138.15Z" style="fill:#bcc9e7; fill-rule:evenodd;"/><path d="M237.15,926.84c65.07,0,117.81,52.75,117.81,117.82s-52.75,117.81-117.81,117.81-117.82-52.75-117.82-117.81,52.75-117.82,117.82-117.82Z" style="fill:#fff; fill-rule:evenodd;"/><path d="M237.15,934.98c60.58,0,109.69,49.1,109.69,109.69s-49.11,109.69-109.69,109.69-109.69-49.11-109.69-109.69,49.11-109.69,109.69-109.69Z" style="fill:#aab9de; fill-rule:evenodd;"/><path d="M270.49,988.08c-5.61-2.89-13.61-5.78-24.5-6.12v-18.04h-16.67v19.4c-18.04,4.08-28.76,17.02-28.76,33.69s11.74,26.03,28.25,33.86c15.65,6.8,21.27,12.42,21.27,21.09s-5.95,15.15-18.21,15.15c-10.72,0-20.76-3.75-27.39-7.66l-5.1,19.05c6.46,3.75,17.52,7.15,28.41,7.49v19.4h16.67v-20.76c19.23-3.74,30.46-17.69,30.46-35.04s-9.19-27.22-29.27-36.24c-13.44-6.64-20.76-11.4-20.76-19.23,0-6.64,5.78-13.61,17.18-13.61,9.87,0,18.21,3.57,23.31,6.12l5.11-18.55Z" style="fill:#fff; fill-rule:evenodd;"/><path d="M105.46,735.1c52.01,0,94.19,42.17,94.19,94.18s-42.17,94.18-94.19,94.18-94.18-42.17-94.18-94.18,42.17-94.18,94.18-94.18Z" style="fill:#bcc9e7; fill-rule:evenodd;"/><path d="M105.46,748.96c44.36,0,80.32,35.96,80.32,80.32s-35.96,80.32-80.32,80.32-80.32-35.96-80.32-80.32,35.96-80.32,80.32-80.32Z" style="fill:#fff; fill-rule:evenodd;"/><path d="M105.46,754.5c41.3,0,74.78,33.48,74.78,74.78s-33.48,74.78-74.78,74.78-74.78-33.48-74.78-74.78,33.48-74.78,74.78-74.78Z" style="fill:#aab9de; fill-rule:evenodd;"/><path d="M128.19,790.71c-3.83-1.97-9.28-3.94-16.71-4.17v-12.29h-11.36v13.22c-12.3,2.78-19.6,11.6-19.6,22.96s8,17.75,19.26,23.09c10.67,4.64,14.5,8.46,14.5,14.38s-4.06,10.33-12.41,10.33c-7.31,0-14.15-2.55-18.67-5.22l-3.48,12.99c4.41,2.56,11.95,4.88,19.37,5.11v13.23h11.37v-14.16c13.11-2.55,20.77-12.06,20.77-23.89s-6.27-18.56-19.95-24.71c-9.16-4.52-14.15-7.77-14.15-13.11,0-4.52,3.94-9.28,11.71-9.28,6.73,0,12.41,2.44,15.89,4.17l3.48-12.64Z" style="fill:#fff; fill-rule:evenodd;"/><path d="M303.69,763.64c36.02,0,65.21,29.2,65.21,65.21s-29.2,65.21-65.21,65.21-65.21-29.19-65.21-65.21,29.2-65.21,65.21-65.21Z" style="fill:#bcc9e7; fill-rule:evenodd;"/><path d="M303.69,773.23c30.72,0,55.61,24.9,55.61,55.62s-24.9,55.61-55.61,55.61-55.61-24.9-55.61-55.61,24.9-55.62,55.61-55.62Z" style="fill:#fff; fill-rule:evenodd;"/><path d="M303.69,777.07c28.6,0,51.78,23.18,51.78,51.78s-23.18,51.78-51.78,51.78-51.77-23.19-51.77-51.78,23.18-51.78,51.77-51.78Z" style="fill:#aab9de; fill-rule:evenodd;"/><path d="M319.44,802.14c-2.65-1.37-6.42-2.73-11.56-2.89v-8.51h-7.87v9.16c-8.51,1.92-13.57,8.03-13.57,15.9s5.54,12.29,13.33,15.98c7.39,3.21,10.04,5.87,10.04,9.96s-2.81,7.15-8.59,7.15c-5.06,0-9.8-1.77-12.93-3.61l-2.41,9c3.05,1.76,8.27,3.37,13.41,3.53v9.16h7.87v-9.8c9.07-1.76,14.37-8.35,14.37-16.54s-4.34-12.85-13.81-17.11c-6.35-3.13-9.8-5.38-9.8-9.08,0-3.13,2.73-6.42,8.11-6.42,4.66,0,8.59,1.68,11.01,2.89l2.41-8.75Z" style="fill:#fff; fill-rule:evenodd;"/></svg>