<?xml version="1.0" encoding="UTF-8"?><svg id="a" xmlns="http://www.w3.org/2000/svg" viewBox="0 0 1906.45 1390.52"><path d="M971.39,99.86c218.6,0,310.7,149.32,468.51,265.39,208.87,153.62,417.73,53.62,451.17,572.68,29.77,461.98-341.65,50.02-865.33,215.5C502.05,1318.92-31.3,1385.56,126.97,850.13,285.23,314.71,463.47,99.86,971.39,99.86Z" style="fill:#e0e8f5; fill-rule:evenodd;"/><path d="M98.78,1016.23H1891.89c-19.25,333.27-375.99-17.69-866.15,137.21-461.46,145.83-930.33,214.81-926.96-137.21Z" style="fill:#c4d1eb; fill-rule:evenodd;"/><path d="M1304.27,451.77c-41.69,38.06-23.56,76.14,7.24,146.83,30.81,70.69,36.25,331.74,36.25,331.74l-25.37-3.62s3.64-268.29-30.8-340.81c-34.45-72.51-48.97-108.76-79.78-85.19-30.8,23.57,92.46-48.95,92.46-48.95Z" style="fill:#c4d1eb; fill-rule:evenodd;"/><path d="M1327.16,402.48c-5.04-22.56-35.12-46.96-75.34-67.68,6,33.28,25.12,87.69,5.32,98.85-26.77,15.04-2.6-60.92-12.92-102.67-37.77-18.44-83.22-33.51-125.03-41.01,.08,.16,.12,.31,.16,.47,23.56,59.82,54.37,83.39,41.69,92.44-9.52,6.82-40.61-62.27-81.7-97.7-30.8-1.64-56.89,2.52-72.29,14.75-23.85,18.87-39.85,35.61-15.88,93.09,13.68,9.79,31.44,16.8,52.05,18.87,54.37,5.44,79.78,7.25,41.69,25.38-18.65,8.88-49.85-.5-75.22-6.22,8.2,15.14,18.33,32.28,30.61,51.81,7.8,12.38,16.37,23.13,25.49,32.43,17.52,3.36,32.8,3.39,40.89-.07,25.37-10.87,90.62-45.32,106.94-30.81,15.96,14.19-120.86,23.18-111.38,59.25,66.33,38.21,142.23,20.03,155.63-15.05,18.04-47.11,84.54-58.21,69.29-126.12Z" style="fill:#fff; fill-rule:evenodd;"/><path d="M1190.05,660.24c72.54-54.39,146.83-3.64,184.92,54.38,38.05,58.01,10.88,188.52,10.88,188.52,0,0-14.52,0-14.52-5.42s39.88-154.09-54.37-221.17c-58.97-41.95-101.5-21.74-106.94-1.8-5.44,19.94,23.56,56.2,23.56,56.2l-43.53-70.7Z" style="fill:#c4d1eb; fill-rule:evenodd;"/><path d="M1356.84,548.45c-72.54,0-96.1,112.39-76.14,177.64,19.93,65.27,47.13,186.72,47.13,186.72l18.12-18.12s-68.89-170.4-52.57-246.53c16.32-76.14,56.17-88.83,63.45-88.83s0-10.87,0-10.87Z" style="fill:#c4d1eb; fill-rule:evenodd;"/><path d="M1296.03,726.61c-5.12-6.76-11.4-12.34-19.09-16.05,1,5.42,2.24,10.61,3.76,15.54,9.08,29.74,19.65,71.14,28.53,107.39,.76-4.64,2.04-11.79,3.92-22.83,.48-2.61,.8-5.44,1.08-8.44-7.12-24.15-13.84-50.47-18.2-75.61Z" style="fill:#c4d1eb; fill-rule:evenodd;"/><path d="M1276.18,727.16c-137.74-58.02-65.17-137.62-186.64-85.04-8.56,3.7-18.96,13.04-29.4,25.91,10.8,3.07,23.88,5.28,38.49,3.1,36.25-5.44,23.56,23.56-36.29,30.81-11.24,1.36-20.41,3.26-28.01,5.92-28.52,54.74-41.36,126.75,18.97,151.79,11.88,4.95,26.56,7.77,42.93,8.82,18.6-14.79-4.56-100.39,24.17-88.58,27.53,11.35-8.68,73.38-3.72,89.01,27.21-.49,57.33-4.93,86.06-12.06,11.4-6.38,20.12-14.94,22.76-26.18,9.08-38.08-50.73-61.64-52.57-94.28-1.64-29.99,21.97,66,84.42,80.13,56.53-26.4,83.26-62.23,18.84-89.34Z" style="fill:#fff; fill-rule:evenodd;"/><path d="M1374.36,624.6c-14.52-30.82,23.56-38.08,21.72-14.52-1.55,20.9-1.76,71.65,19.65,85.47,36.93-4.01,87.18-18.89,125.19-41.57,.48-3.06,0-6.22-1.6-9.45-16.32-32.63-121.46-59.82-88.82-70.69,25.97-8.67,71.53,42.46,108.22,68.21,22.04-16.73,36.81-36.66,36.81-58.9,0-30.13-36.6-64.21-83.94-80.51-21.28,2.16-41.09,13.79-71.98,31.31-45.65,25.87-35.08-15.97,8.08-40.78-37.29,1.92-74.41,17.85-101.82,55.88,0,0,2.6,16.26-14.6,41.41-46.93,68.59,7.24,108.64,71.98,106.04-3.68-18.08-18.88-50.62-28.89-71.91Z" style="fill:#fff; fill-rule:evenodd;"/><path d="M1194.41,657.17c-35.45,27.4-74.82,59.43-123.14,81.17-48.37,21.76-38.69,92.66-38.69,92.66,0,0-7.25-61.23,33.05-82.18,40.29-20.93,66.85-45.93,97.46-50.75,30.64-4.84,47.57-9.67,47.57-9.67,0,0-9.68-19.34-4.04-26.59,5.64-7.25-12.2-4.64-12.2-4.64Z" style="fill:#c4d1eb; fill-rule:evenodd;"/><path d="M1019.69,335.49c129.71,34.64,224.77,117.63,242.54,137.78,17.72,20.13,17.72,25.78,17.72,25.78l-13.72,25.78-6.44-3.23s10.48-21.74-16.92-49.94c-47.25-48.64-104.75-87.03-144.23-103.94-39.49-16.92-78.94-32.22-78.94-32.22Z" style="fill:#c4d1eb; fill-rule:evenodd;"/><path d="M1377.77,1053.52h-49.57c-35.25,0-63.82-28.57-63.82-63.82v-113.86h177.2v113.86c0,35.25-28.56,63.82-63.81,63.82Z" style="fill:#b0c2e4; fill-rule:evenodd;"/><rect x="1264.39" y="896.19" width="177.19" height="12.47" style="fill:#fff;"/><rect x="1264.39" y="918.93" width="177.19" height="7.34" style="fill:#fff;"/><path d="M328.22,890.12c.06,3.85,.28,7.09,.58,9.32-.29-2.23-.51-5.47-.58-9.32Z" style="fill:#ecebe8; fill-rule:evenodd;"/><path d="M210.86,604.97c-2.83-3.66-6.71-6.41-10.6-8.84-1.03-.64-2.53-.21-3.1,.86-3.01,5.61-5.8,11.36-9.24,16.72-1.13,1.77-2.75,4.11-4.2,5.15-.09,.07-.45,.24-.62,.34-.02-.03-.04-.06-.07-.1-.28-.42-.44-.87-.6-1.35-2.69-8.25,.57-17.08-1.54-25.38-1.12-4.4-3.91-8.98-7.08-12.18-3.44-3.49-8.05-5.11-10.19-9.8-.33-.71-.9-1.05-1.54-1.11h-.43c-.77,.07-1.54,.5-1.98,1.13-4.96,7.13-11.9,14.51-13.23,23.43-1.18,7.92,3.11,14.53,7.67,20.54,2.21,2.91,4.39,5.87,6.1,9.1,.94,1.78,2.58,5,.86,6.75-1.8,1.83-4.53-1.43-5.95-2.9-2.91-3.01-5.38-6.44-7.9-9.77-4.18-5.51-10.79-13.88-18.65-12.36-3.46,.67-4.87,4.25-5.05,7.37-.29,4.96,2.14,10.29,4.58,14.45,5.53,9.43,16.75,12.17,23.96,19.79,1.66,1.75,6.2,7.75,3.6,10.21-.91,.86-3.03,.57-4.1,.4-2.65-.4-5.55-1.38-7.68-3.02-8.11-6.27-11.07-17.18-19.59-23.13-3.74-2.6-9.5-4.2-13.99-3.13-3.81,.9-5.56,4.49-5.73,8.1-.2,4.38,1.79,8.9,4,12.55,2.55,4.23,6.05,7.77,10.35,10.21,8.59,4.89,19.47,5.5,25.18,14.5,.78,1.23,1.63,2.84,1.25,4.33-.29,1.16-1.94,1.53-2.92,1.75-4.41,.97-10.19-.66-14.06-2.72-4.67-2.49-8.08-7-11.67-10.76-3.79-3.98-8.01-7.22-13.32-8.84-3.86-1.17-8.6-.98-11.09,2.62-2.28,3.31-1.82,7.76-.89,11.44,1.23,4.87,3.88,9.37,7.14,13.15,3.52,4.08,9.07,6.39,14.04,8.06,5.17,1.73,10.55,2.79,15.66,4.72,1.35,.51,2.4,.87,3.88,.98,1.58,.11,3.17,.03,4.72,.44,1.3,.33,.44,1.71,0,2.66-1.06,2.28-4.45,2.18-6.59,2.35-2.03,.16-4.02,.67-6.05,.69-2.33,.01-4.65-.42-6.95-.78-4.55-.69-9.35-1.49-13.85-.12-4.35,1.32-7.41,5.41-8.2,9.81-1.64,9.22,8.67,14.85,16.32,16.02,4.9,.75,9.35-.32,13.66-2.76,5.31-2.99,9.49-7.33,15.62-8.08,.4,2.46-.48,4.42-2.66,6.26-3,2.53-7.15,3.9-10.77,5.24-7.13,2.65-17.57,5-21.39,12.39-.47,.9-.37,2.01,.38,2.74,3.38,3.22,7.28,5.75,12.03,6.14,3.94,.31,7.79-1.52,10.99-3.64,5.71-3.79,10.64-9.68,17.06-12.35-.89,1.63-2.37,2.73-4.17,4.13-3.21,2.48-4.85,5.94-5.74,9.84-1.35,5.9,.7,12.27,7.62,12.31,3.78,.02,7.57-1.88,10.72-3.78,3.61-2.17,6.49-5.31,8.73-8.84,2.78-4.37,4.32-9.41,5.18-14.57,5.79,11.28,18.36,23.06,30.22,13.31,10.13-8.33-6.56-14.72-13.15-21.27,1.3,.53,2.56,1.2,3.76,1.81,3.43,1.76,6.78,3.71,10.36,5.17,6.69,2.73,14.21,2.47,18.21-4.42,3.46-5.94-3.7-8.7-8.11-10.02-3.59-1.09-10.3-2.25-12.9-5.85,8.85,.96,18.69,2.06,26.32-3.04,3.46-2.32,7.61-6.79,8.03-11.14,.34-3.56-3.51-4.82-6.28-5.09-7.55-.74-14.89,2.58-22.46,2.35-1.82-.06-3.62-.26-5.4-.65-.67-.15-1.35-.33-1.97-.62-.24-.1-.48-.31-.64-.43,.04-.11,.1-.23,.21-.36,.67-.79,1.55-1.37,2.4-1.93,1.94-1.27,3.97-2.02,6.28-2.25,4.4-.47,8.79,.08,13.17-.68,4.93-.85,8.93-3.71,12.19-7.39,2.89-3.26,5.68-7.4,6.14-11.85,.48-4.6-2.31-7.71-6.42-9.28-11.48-4.39-18.2,7.47-26.39,12.85-2.17,1.43-4.75,2.37-7.22,3.12-1.01,.31-3.97,1.33-4.95,.54-.58-.47,1.36-3.59,1.73-4.19,1.65-2.67,3.75-4.53,6.46-6.09,6.85-3.92,15.21-5.13,20.6-11.33,3.54-4.07,6.33-10.95,2.87-15.91-3.68-5.25-11.87-3.83-16.5-.77-5.82,3.85-8.75,11.64-15.75,13.5-.61-3.32,.69-6.37,2.92-9.32,3.27-4.31,7.48-7.86,11.36-11.6,3.72-3.58,7.53-7.48,9.47-12.35,1.98-4.99,.71-10.03-2.5-14.17Z" style="fill:#9db2d9; fill-rule:evenodd;"/><path d="M383.88,764.67c1.12-4.49,.89-9.24,.39-13.8-.13-1.21-1.41-2.11-2.59-1.91-6.27,1.11-12.51,2.48-18.85,3.08-2.09,.2-4.93,.39-6.64-.1-.11-.03-.47-.22-.65-.28,.01-.03,.02-.07,.03-.12,.16-.48,.41-.88,.69-1.3,4.82-7.22,13.77-10.11,18.99-16.93,2.76-3.6,4.63-8.62,5.19-13.09,.61-4.86-.98-9.48,1.39-14.08,.86-1.68-.92-3.17-2.45-3.08-8.68,.52-18.77-.38-26.59,4.11-6.94,3.99-9.49,11.43-11.39,18.74-.92,3.54-1.89,7.08-3.37,10.44-.81,1.84-2.33,5.11-4.76,4.84-2.55-.28-1.68-4.44-1.41-6.47,.56-4.15,1.73-8.21,2.79-12.26,1.74-6.69,4.23-17.06-1.83-22.3-2.67-2.3-6.35-1.19-8.92,.6-4.07,2.84-6.76,8.04-8.52,12.53-3.99,10.19,.81,20.69-.71,31.07-.35,2.39-2.25,9.68-5.8,9.14-1.24-.18-2.32-2.02-2.86-2.97-1.32-2.34-2.35-5.22-2.37-7.9-.1-10.26,6.64-19.33,6.04-29.7-.27-4.55-2.58-10.06-6.2-12.92-3.07-2.43-6.97-1.59-9.92,.51-3.56,2.55-5.88,6.91-7.39,10.91-1.75,4.62-2.35,9.56-1.62,14.45,1.47,9.77,7.72,18.7,4.19,28.75-.48,1.37-1.22,3.03-2.63,3.66-1.09,.49-2.4-.58-3.18-1.22-3.49-2.85-5.79-8.4-6.57-12.71-.94-5.21,.5-10.67,1.24-15.82,.78-5.44,.71-10.76-1.3-15.93-1.47-3.75-4.55-7.36-8.92-7.09-4,.25-7.22,3.37-9.53,6.38-3.06,3.98-4.96,8.85-5.91,13.74-1.03,5.29,.59,11.08,2.36,16.02,1.84,5.14,4.34,10.01,5.98,15.22,.44,1.37,.8,2.42,1.64,3.65,.89,1.31,1.93,2.52,2.58,3.98,.54,1.23-1.07,1.4-2.09,1.64-2.44,.58-4.47-2.14-5.92-3.72-1.38-1.49-3.02-2.75-4.29-4.33-1.45-1.83-2.55-3.92-3.7-5.94-2.27-4-4.61-8.28-8.47-10.96-3.73-2.6-8.84-2.47-12.77-.36-8.26,4.42-6.3,15.99-2.48,22.73,2.44,4.31,6.03,7.14,10.61,9.02,5.64,2.31,11.64,2.91,16.02,7.27-1.68,1.83-3.77,2.35-6.56,1.78-3.85-.78-7.49-3.21-10.78-5.21-6.49-3.97-14.8-10.7-22.96-9.14-.99,.19-1.82,.96-1.92,2.01-.44,4.65-.03,9.27,2.62,13.24,2.2,3.3,6.01,5.19,9.66,6.38,6.51,2.14,14.19,2.37,20.26,5.76-1.83,.31-3.61-.17-5.82-.71-3.94-.99-7.68-.14-11.28,1.58-5.47,2.59-9.21,8.14-4.95,13.61,2.32,2.98,6.16,4.78,9.6,6.09,3.93,1.5,8.19,1.81,12.35,1.39,5.15-.52,10.07-2.44,14.65-4.94-5.27,11.52-6.75,28.68,8.25,31.96,12.81,2.8,7.5-14.25,8.57-23.49,.39,1.35,.65,2.75,.91,4.08,.74,3.8,1.28,7.62,2.35,11.35,2,6.94,6.85,12.68,14.74,11.56,6.8-.96,4.54-8.29,2.85-12.57-1.37-3.49-4.61-9.48-3.4-13.76,4.72,7.55,9.95,15.96,18.68,18.8,3.96,1.28,10.03,1.78,13.71-.59,3-1.93,1.62-5.74,.11-8.08-4.09-6.39-11.24-10.1-15.74-16.2-1.08-1.46-2.05-2.99-2.83-4.64-.29-.61-.57-1.26-.74-1.93-.06-.24-.05-.57-.06-.77,.11-.03,.24-.06,.41-.05,1.03,.03,2.03,.37,3,.69,2.21,.74,4.04,1.87,5.67,3.54,3.08,3.16,5.37,6.95,8.68,9.93,3.72,3.33,8.44,4.72,13.34,5,4.35,.25,9.33-.12,13.11-2.52,3.91-2.47,4.63-6.59,3.32-10.78-3.66-11.73-17.13-9.67-26.43-12.78-2.46-.83-4.8-2.27-6.92-3.73-.87-.6-3.5-2.3-3.49-3.56,0-.75,3.66-1.15,4.36-1.22,3.12-.36,5.88,.14,8.78,1.32,7.32,2.95,13.44,8.76,21.65,9.16,5.39,.27,12.53-1.8,14.28-7.6,1.85-6.13-4.33-11.69-9.6-13.43-6.62-2.19-14.55,.33-20.35-4.01,2.23-2.53,5.42-3.41,9.13-3.47,5.41-.11,10.8,1.01,16.13,1.74,5.11,.7,10.54,1.29,15.56-.2,5.15-1.54,8.32-5.65,9.59-10.74Z" style="fill:#9db2d9; fill-rule:evenodd;"/><path d="M76.38,639.69c-4.31-1.67-9.05-2.04-13.63-2.12-1.21-.02-2.27,1.12-2.22,2.33,.31,6.36,.87,12.72,.68,19.09-.07,2.09-.25,4.94-.95,6.57-.05,.1-.27,.44-.36,.6-.03-.01-.07-.02-.11-.04-.46-.22-.83-.52-1.21-.86-6.55-5.69-8.3-14.94-14.39-20.97-3.23-3.19-7.97-5.68-12.33-6.8-4.74-1.22-9.53-.23-13.78-3.15-1.55-1.07-3.27,.51-3.37,2.04-.58,8.67-2.74,18.56,.71,26.9,3.07,7.4,10.14,10.86,17.15,13.66,3.39,1.36,6.78,2.78,9.92,4.67,1.73,1.04,4.78,2.96,4.21,5.35-.6,2.49-4.63,1.1-6.6,.57-4.04-1.08-7.92-2.76-11.8-4.31-6.41-2.56-16.39-6.35-22.35-1-2.62,2.36-1.99,6.15-.54,8.93,2.3,4.4,7.13,7.72,11.36,10.03,9.6,5.24,20.63,1.82,30.73,4.63,2.32,.65,9.31,3.45,8.34,6.91-.34,1.2-2.3,2.04-3.31,2.46-2.48,1.01-5.47,1.67-8.14,1.35-10.18-1.2-18.33-9.03-28.69-9.75-4.55-.31-10.31,1.29-13.61,4.52-2.8,2.73-2.46,6.71-.74,9.9,2.07,3.86,6.11,6.71,9.88,8.71,4.36,2.31,9.19,3.55,14.12,3.43,9.89-.23,19.53-5.3,29.06-.52,1.3,.65,2.85,1.59,3.3,3.07,.34,1.15-.88,2.31-1.61,2.99-3.28,3.11-9.08,4.68-13.45,4.91-5.29,.27-10.52-1.84-15.54-3.22-5.3-1.46-10.58-2.07-15.97-.73-3.91,.97-7.87,3.59-8.16,7.95-.26,4.01,2.43,7.59,5.12,10.27,3.56,3.54,8.15,6.04,12.88,7.6,5.12,1.68,11.06,.82,16.19-.31,5.33-1.17,10.48-3.05,15.85-4.01,1.42-.26,2.51-.49,3.83-1.16,1.41-.73,2.74-1.61,4.27-2.06,1.29-.38,1.26,1.24,1.37,2.28,.26,2.5-2.7,4.16-4.44,5.4-1.66,1.18-3.11,2.64-4.84,3.7-1.99,1.22-4.21,2.05-6.35,2.92-4.26,1.74-8.79,3.53-11.95,7.02-3.05,3.37-3.57,8.46-1.98,12.62,3.34,8.75,15.07,8.26,22.24,5.34,4.59-1.88,7.85-5.08,10.29-9.38,3.01-5.31,4.36-11.17,9.24-14.97,1.6,1.89,1.86,4.03,.94,6.73-1.27,3.71-4.12,7.02-6.54,10.03-4.75,5.94-12.49,13.33-11.97,21.63,.06,1.01,.72,1.92,1.74,2.15,4.56,1.03,9.21,1.2,13.47-.92,3.54-1.76,5.9-5.31,7.55-8.78,2.95-6.19,4.14-13.78,8.28-19.36,.07,1.85-.62,3.56-1.45,5.68-1.47,3.79-1.1,7.6,.14,11.39,1.88,5.75,6.92,10.17,12.87,6.63,3.25-1.93,5.52-5.51,7.25-8.75,1.98-3.71,2.83-7.9,2.95-12.07,.13-5.17-1.14-10.29-3.05-15.15,10.76,6.68,27.6,10.32,32.75-4.14,4.4-12.36-13.19-9.25-22.22-11.49,1.39-.21,2.81-.28,4.16-.37,3.86-.26,7.73-.31,11.55-.9,7.14-1.11,13.45-5.2,13.34-13.16-.1-6.87-7.66-5.55-12.11-4.42-3.63,.92-9.99,3.37-14.07,1.62,8.08-3.72,17.09-7.85,21-16.15,1.78-3.77,3.04-9.73,1.16-13.69-1.54-3.21-5.49-2.31-8.01-1.13-6.85,3.25-11.44,9.88-18.05,13.58-1.59,.88-3.24,1.64-4.96,2.22-.65,.21-1.33,.41-2.01,.49-.26,.03-.57-.02-.78-.04-.02-.11-.03-.25,0-.42,.17-1.02,.62-1.96,1.07-2.89,1-2.1,2.36-3.77,4.22-5.17,3.53-2.65,7.58-4.44,10.95-7.36,3.79-3.27,5.75-7.78,6.65-12.6,.8-4.29,1.06-9.27-.83-13.32-1.96-4.19-5.95-5.42-10.28-4.66-12.1,2.15-11.76,15.77-16.02,24.61-1.13,2.33-2.86,4.48-4.58,6.39-.7,.78-2.72,3.18-3.97,3.02-.74-.11-.68-3.79-.67-4.49,.04-3.14,.88-5.82,2.41-8.54,3.86-6.88,10.4-12.23,11.84-20.31,.95-5.32-.21-12.66-5.73-15.13-5.86-2.61-12.15,2.82-14.55,7.83-3.01,6.29-1.51,14.48-6.56,19.67-2.23-2.53-2.69-5.81-2.29-9.5,.58-5.38,2.37-10.59,3.78-15.78,1.34-4.99,2.61-10.29,1.76-15.47-.87-5.3-4.55-8.97-9.44-10.87Z" style="fill:#9db2d9; fill-rule:evenodd;"/><path d="M296.68,702.19c-.62-4.58-2.58-8.91-4.73-12.96-.57-1.08-2.09-1.44-3.11-.82-5.42,3.35-10.71,6.92-16.38,9.83-1.86,.95-4.44,2.17-6.21,2.34-.11,.01-.52-.01-.7-.02,0-.03-.01-.07-.01-.12-.03-.5,.05-.98,.16-1.47,1.81-8.48,9.06-14.48,11.4-22.74,1.24-4.36,1.12-9.72-.01-14.08-1.23-4.74-4.41-8.45-3.9-13.59,.18-1.88-2.02-2.61-3.42-1.96-7.87,3.68-17.58,6.58-23.2,13.63-4.99,6.26-4.6,14.13-3.66,21.62,.45,3.62,.85,7.28,.71,10.93-.08,2.02-.28,5.62-2.64,6.27-2.47,.68-3.21-3.51-3.7-5.5-1.01-4.06-1.42-8.27-1.93-12.42-.85-6.86-2.36-17.42-9.93-20.05-3.33-1.15-6.35,1.23-8.07,3.84-2.74,4.14-3.32,9.97-3.29,14.79,.05,10.94,8.38,18.93,10.81,29.14,.56,2.35,1.48,9.81-2.01,10.63-1.22,.28-2.91-1.03-3.76-1.71-2.09-1.69-4.11-3.97-5.12-6.47-3.87-9.49-.96-20.41-5.35-29.82-1.92-4.13-6.11-8.4-10.53-9.73-3.75-1.12-7.06,1.1-9.02,4.14-2.38,3.68-2.92,8.59-2.85,12.86,.08,4.94,1.34,9.76,3.83,14.03,4.98,8.54,14.08,14.52,14.51,25.17,.06,1.46-.02,3.26-1.1,4.38-.84,.86-2.45,.35-3.4,.04-4.3-1.37-8.49-5.67-10.8-9.4-2.79-4.49-3.48-10.09-4.69-15.16-1.28-5.34-3.31-10.26-7.09-14.32-2.75-2.95-6.94-5.16-10.91-3.29-3.63,1.71-5.46,5.8-6.5,9.45-1.38,4.83-1.34,10.06-.42,14.95,1,5.29,4.64,10.08,8.1,14.02,3.61,4.1,7.73,7.7,11.18,11.94,.91,1.13,1.64,1.96,2.87,2.79,1.31,.89,2.73,1.62,3.87,2.74,.96,.95-.48,1.7-1.34,2.3-2.06,1.45-4.94-.35-6.88-1.28-1.84-.87-3.82-1.43-5.58-2.44-2.02-1.15-3.82-2.69-5.63-4.15-3.58-2.88-7.34-5.99-11.92-7.06-4.42-1.04-9.13,.96-12.01,4.37-6.04,7.15,.05,17.19,6.08,22.04,3.86,3.12,8.24,4.42,13.19,4.47,6.11,.07,11.89-1.59,17.57,.84-.88,2.31-2.63,3.58-5.44,4.08-3.87,.68-8.14-.22-11.95-.87-7.49-1.29-17.7-4.49-24.72-.02-.85,.55-1.33,1.56-1.04,2.57,1.31,4.49,3.4,8.64,7.33,11.35,3.25,2.26,7.5,2.6,11.33,2.36,6.85-.41,14.06-3.05,20.96-2.13-1.58,.96-3.42,1.18-5.67,1.49-4.03,.54-7.19,2.71-9.9,5.62-4.13,4.43-5.56,10.98,.41,14.48,3.26,1.92,7.49,2.17,11.17,2.12,4.21-.07,8.28-1.35,11.99-3.27,4.6-2.39,8.46-5.97,11.79-9.99-.65,12.65,4.31,29.15,19.46,26.67,12.94-2.12,1.71-16.02-.71-25,.86,1.11,1.62,2.32,2.35,3.46,2.09,3.25,4.01,6.61,6.37,9.67,4.42,5.73,11.05,9.26,17.97,5.31,5.97-3.41,1.16-9.38-1.99-12.74-2.56-2.73-7.78-7.11-8.23-11.52,7.17,5.27,15.14,11.16,24.3,10.57,4.16-.27,9.99-2.04,12.53-5.61,2.07-2.91-.62-5.92-2.89-7.55-6.16-4.43-14.18-5.24-20.61-9.25-1.54-.96-3-2.04-4.34-3.27-.5-.46-1-.96-1.39-1.51-.15-.21-.26-.52-.34-.71,.08-.06,.2-.14,.36-.19,.98-.35,2.03-.41,3.05-.47,2.32-.13,4.44,.24,6.56,1.2,4.04,1.8,7.56,4.48,11.73,6.02,4.69,1.73,9.59,1.27,14.25-.28,4.14-1.37,8.63-3.55,11.26-7.16,2.72-3.74,1.86-7.83-.9-11.25-7.73-9.56-19.49-2.66-29.28-2.12-2.59,.15-5.3-.33-7.81-.91-1.03-.24-4.1-.85-4.55-2.01-.27-.7,2.98-2.43,3.6-2.76,2.77-1.48,5.52-2.04,8.64-2.01,7.89,.04,15.73,3.17,23.5,.53,5.11-1.74,10.98-6.3,10.46-12.33-.55-6.39-8.34-9.27-13.88-8.95-6.96,.41-13.41,5.68-20.39,3.77,1.14-3.17,3.78-5.16,7.2-6.59,4.99-2.09,10.41-3.04,15.64-4.33,5.01-1.24,10.27-2.7,14.39-5.93,4.22-3.33,5.65-8.33,4.95-13.52Z" style="fill:#b0c2e4; fill-rule:evenodd;"/><path d="M263.16,658.29c-2.62,11.41-4.91,22.91-8.19,34.17-3.37,11.56-8.16,22.24-14.76,32.31-13.62,20.79-30.97,38.81-45,59.31-.58,.85-.47,1.68-.02,2.3-2.7,5.11-4.28,10.92-5.4,16.47-1.96,9.67-2.56,19.6-2.95,29.45-.48,12.03-.38,24,.18,36.04,.66,14.14,1.59,28.29,.99,42.45-.03,.82-.08,1.64-.12,2.46-.16,2.93,4.38,2.91,4.54,0,.78-13.82-.03-27.66-.7-41.47-.61-12.31-.88-24.56-.44-36.88,.34-9.52,.81-19.07,2.44-28.48,1.48-8.55,3.85-18.23,10.3-24.48,.92-.9,.82-2.01,.25-2.81,13.11-17.82,28.15-34.21,40.3-52.75,6.5-9.93,11.14-20.64,14.55-31.99,3.45-11.46,5.72-23.24,8.4-34.9,.66-2.85-3.72-4.06-4.38-1.2Z" style="fill:#b0c2e4; fill-rule:evenodd;"/><path d="M189.02,913.94c-2.46-22.08-12.63-41.86-23.16-61.07-10.44-19.05-21.44-38.37-24.64-60.18-.43-2.89-4.8-1.66-4.38,1.21,6.39,43.53,42.73,76.09,47.64,120.05,.32,2.88,4.87,2.91,4.54,0Z" style="fill:#b0c2e4; fill-rule:evenodd;"/><path d="M255.82,810.41c-19.44,8.49-38.49,21.47-51.54,38.38-7.12,9.23-11.31,19.72-13.94,30.72-.99-11.47-3.1-22.82-5.29-34.11-5.12-26.34-9.06-52.81-11.54-79.54-.98-10.61-1.71-21.24-2.21-31.88-.14-2.91-4.68-2.93-4.55,0,1.36,29.53,4.76,58.92,9.34,88.12,3.1,19.75,8.34,39.26,9.85,59.23-1.71-10.79-4.29-21.44-7.6-31.82-4.74-14.85-11.11-29.27-19.4-42.5,.05-.56-.11-1.16-.59-1.7-.56-.63-1.13-1.25-1.71-1.86-2.05-3.1-4.2-6.11-6.47-9.05-1.01-1.31-2.47-.84-3.23,.22-3.48-2.66-7.19-5.04-11.19-7.11-9.34-4.83-20.96-7.97-25.44-18.55-1.14-2.69-5.05-.37-3.92,2.3,4.44,10.52,15.31,14.43,24.79,19.04,8.51,4.14,15.71,9.46,22.14,16.25,9.08,13.81,15.85,29.17,20.87,44.87,6.08,19.06,9.56,39.09,9.6,59.12,0,.11,.01,.22,.02,.31-.31,1.48,.87,2.46,2.1,2.56,.61,2.06,4.26,1.77,4.47-.83,1.66-21.49,4.11-44.05,17.88-61.57,12.71-16.17,31.13-28.5,49.84-36.67,2.68-1.17,.37-5.09-2.29-3.93Z" style="fill:#9db2d9; fill-rule:evenodd;"/><path d="M119.85,657.8c-4.13-2.09-8.81-2.91-13.36-3.44-1.21-.14-2.37,.91-2.43,2.1-.31,6.36-.36,12.75-1.17,19.07-.27,2.08-.72,4.89-1.58,6.44-.06,.1-.31,.42-.42,.57-.03-.02-.06-.03-.11-.06-.43-.26-.78-.6-1.12-.96-5.97-6.3-6.81-15.67-12.29-22.26-2.9-3.49-7.38-6.42-11.62-7.96-4.6-1.67-9.46-1.15-13.41-4.47-1.44-1.22-3.3,.19-3.55,1.71-1.42,8.57-4.52,18.21-1.89,26.84,2.34,7.66,9.05,11.79,15.75,15.25,3.25,1.68,6.48,3.42,9.42,5.61,1.62,1.2,4.47,3.41,3.67,5.72-.84,2.43-4.71,.66-6.63-.06-3.92-1.47-7.62-3.51-11.33-5.43-6.13-3.18-15.7-7.91-22.15-3.16-2.84,2.09-2.57,5.93-1.4,8.83,1.87,4.61,6.35,8.38,10.33,11.09,9.05,6.14,20.35,3.8,30.14,7.57,2.25,.87,8.93,4.33,7.63,7.67-.45,1.17-2.49,1.83-3.54,2.13-2.57,.77-5.6,1.13-8.23,.56-10.02-2.18-17.37-10.75-27.62-12.46-4.5-.75-10.38,.28-13.98,3.17-3.05,2.45-3.1,6.45-1.7,9.78,1.69,4.04,5.43,7.27,9,9.62,4.12,2.73,8.8,4.42,13.73,4.78,9.86,.73,19.95-3.38,28.97,2.29,1.24,.77,2.69,1.86,2.99,3.38,.23,1.17-1.1,2.21-1.89,2.82-3.56,2.78-9.48,3.8-13.85,3.59-5.29-.24-10.3-2.84-15.16-4.71-5.13-1.96-10.33-3.08-15.82-2.26-3.99,.59-8.19,2.8-8.89,7.12-.65,3.97,1.68,7.79,4.1,10.71,3.2,3.87,7.53,6.8,12.09,8.81,4.93,2.17,10.93,1.88,16.14,1.25,5.41-.65,10.72-2.01,16.17-2.46,1.43-.11,2.54-.24,3.92-.78,1.48-.58,2.89-1.33,4.45-1.63,1.32-.25,1.13,1.36,1.14,2.4,.02,2.51-3.08,3.88-4.94,4.96-1.76,1.01-3.35,2.33-5.18,3.21-2.1,1.01-4.38,1.63-6.6,2.29-4.4,1.32-9.09,2.67-12.57,5.83-3.36,3.07-4.37,8.08-3.19,12.38,2.48,9.04,14.2,9.69,21.61,7.46,4.75-1.43,8.31-4.3,11.15-8.34,3.51-4.99,5.42-10.7,10.64-14.01,1.41,2.05,1.47,4.19,.29,6.79-1.62,3.58-4.78,6.59-7.47,9.35-5.3,5.45-13.72,12.07-14,20.37-.03,1.01,.53,1.99,1.52,2.31,4.44,1.46,9.05,2.09,13.5,.39,3.7-1.41,6.39-4.72,8.36-8,3.54-5.87,5.45-13.31,10.11-18.48-.1,1.85-.96,3.49-1.99,5.52-1.83,3.63-1.83,7.45-.96,11.35,1.32,5.91,5.9,10.79,12.17,7.85,3.42-1.6,6.03-4.94,8.06-8,2.33-3.5,3.58-7.58,4.1-11.73,.63-5.14-.14-10.36-1.57-15.37,10.06,7.69,26.47,12.94,33-.96,5.58-11.88-12.24-10.47-21.01-13.57,1.41-.07,2.83-.02,4.17,.02,3.87,.12,7.72,.45,11.58,.23,7.22-.41,13.89-3.87,14.55-11.81,.57-6.85-7.08-6.27-11.63-5.57-3.7,.57-10.26,2.4-14.16,.26,8.41-2.92,17.77-6.17,22.47-14.05,2.13-3.58,3.97-9.39,2.47-13.51-1.22-3.35-5.24-2.84-7.86-1.89-7.14,2.57-12.35,8.73-19.28,11.76-1.67,.73-3.38,1.32-5.16,1.73-.66,.15-1.36,.28-2.04,.29-.26,0-.57-.08-.77-.12,0-.1,0-.24,.04-.41,.27-1,.81-1.9,1.34-2.78,1.2-1.98,2.71-3.53,4.7-4.73,3.77-2.31,7.97-3.7,11.6-6.27,4.09-2.89,6.47-7.19,7.84-11.9,1.21-4.2,1.96-9.12,.46-13.33-1.55-4.37-5.4-5.98-9.78-5.63-12.25,.96-13.23,14.56-18.32,22.94-1.35,2.22-3.28,4.18-5.18,5.93-.78,.71-3.02,2.9-4.24,2.61-.73-.18-.31-3.83-.23-4.53,.35-3.12,1.44-5.7,3.23-8.27,4.5-6.48,11.52-11.17,13.74-19.07,1.45-5.2,1.02-12.62-4.24-15.61-5.58-3.17-12.37,1.63-15.23,6.39-3.6,5.97-2.91,14.27-8.43,18.95-1.98-2.73-2.12-6.04-1.36-9.67,1.1-5.3,3.38-10.31,5.28-15.35,1.82-4.83,3.59-9.99,3.25-15.22-.35-5.36-3.66-9.36-8.35-11.73Z" style="fill:#c4d1eb; fill-rule:evenodd;"/><polygon points="240.61 1047.48 142.62 1047.48 110.55 920.77 270.45 920.77 240.61 1047.48" style="fill:#b0c2e4; fill-rule:evenodd;"/><rect x="99.86" y="904.3" width="179.06" height="16.47" style="fill:#9db2d9;"/><polygon points="190.5 920.77 110.55 920.77 142.62 1047.48 190.5 1047.48 190.5 920.77" style="fill:#9db2d9; fill-rule:evenodd;"/><rect x="99.86" y="904.3" width="90.65" height="16.47" style="fill:#859ac6;"/><polygon points="240.61 1049.39 142.62 1049.39 110.55 1032.28 270.45 1032.28 240.61 1049.39" style="fill:#9db2d9; fill-rule:evenodd;"/><polygon points="190.5 1032.28 110.55 1032.28 142.62 1049.39 190.5 1049.39 190.5 1032.28" style="fill:#859ac6; fill-rule:evenodd;"/><path d="M1427.9,1282.25c264.3,0,478.55,24.23,478.55,54.14s-214.25,54.14-478.55,54.14-478.55-24.24-478.55-54.14,214.25-54.14,478.55-54.14Z" style="fill:#c4d1eb; fill-rule:evenodd;"/><path d="M1370.42,48.67c-1.23,.48-2.62-.14-3.1-1.37-.48-1.23,.13-2.62,1.36-3.09,39.93-15.5,81.01-15.5,117.74-4.51-29.3-11-64.75-15.12-106.45-9.32-7.09,.99-13.89,2.35-20.41,4.07-34.94,20.1-56.99,61.04-65.47,106.82-4.57,24.65-5.21,50.69-1.82,75.63,3.38,24.9,10.79,48.71,22.3,68.94,5.19,9.12,11.22,17.51,18.1,24.95,2.29,1.55,4.64,3.07,7.06,4.54,23.96,6.33,50.63,9.39,80.88,7.86,21.37-1.08,42.44-4.56,62.99-9.93,7.52-1.97,14.98-4.19,22.35-6.63,21.75-9.35,41.17-21.42,56.18-35.58,7.72-7.28,14.27-15.1,19.35-23.37,2.63-4.27,5.1-8.49,7.4-12.66,1.96-9.37,3.14-18.99,3.53-28.71,1.38-34.03-6.88-69.22-24.96-99.28-9.16-15.22-20.84-29.11-35.08-40.87-3.56-2.31-7.21-4.5-10.94-6.57-43.5-24.09-98.29-31.38-151.01-10.92h0Zm164.97,13.75c-35.86-29.64-87.42-46.07-155.02-36.91,2.21-.65,4.46-1.24,6.75-1.75,27.73-6.13,55.45-8.1,81.54-6.15,22.12,5.65,45.25,16.22,68.97,32.68,23.71,16.45,41.42,39.02,52.92,63.9,3.07,6.64,5.7,13.46,7.89,20.36-6.86-15.27-16.31-29.48-27.81-42.16-10.25-11.31-22.14-21.42-35.25-29.97h0Zm31.72,33.19c12.85,14.18,23.08,30.32,29.83,47.73,6.48,16.69,9.77,34.56,9.12,53l-.11,1.5c-2.74,7.63-6.05,15.48-9.97,23.55,.61-4.93,1.01-9.89,1.21-14.89,1.42-34.94-7.06-71.07-25.63-101.93-3.06-5.09-6.4-10.04-10.02-14.82,1.9,1.91,3.77,3.87,5.57,5.86h0Zm43.65,102.95c-1.05,20.93-7.01,42.54-18.89,63.99-6.76,12.22-14.53,22.66-23,31.6-1.75,2.49-3.57,4.92-5.48,7.29-28.12,34.93-73.46,56.21-135.52,48.48-36.96,3.6-66.54-7.02-88.99-26.44-9.68-3.22-18.84-7.3-27.31-12.29-195.4-82.36-209.11-1.5-383.88-149.13-.27,11.11-1.59,22.97-3.99,34.98,7.73,8.5,12.32,19.36,13.55,30.99,1.22,11.58-.91,23.94-6.6,35.51-1.51,3.06-3.26,6.06-5.27,8.97,.44,3.64,.44,7.28,.04,10.86-1.41,12.54-7.82,24.33-18.15,33.07-17.43,14.76-46.03,20.88-80.42,7.27-5.22-2.06-8.86-5.23-11.26-9.16-1.79,.04-3.53,.04-5.23,.02,13.44,8.26,22.15,17.32,22.62,25.87,.9,16.3-1.71,27.41-6.6,34.45-4.39,6.32-10.55,9.39-17.67,9.99-6.82,.57-14.5-1.19-22.29-4.55-7.34-3.16-14.83-7.76-21.82-13.17-35.95,14.27-85.35,30.56-109.27-5.44-10.24,1-20.6,1.02-30.36,.13-11.54-1.06-22.26-3.43-30.92-7.03-14.86-6.17-23.85-15.95-21.42-29.03,1.04-5.61,2.17-10.88,3.39-15.84-4.86-6.52-7.99-14.4-8.95-23.75-21.24-28.58-28.69-61.89-12.06-89.64,1.01-1.68,2.04-3.31,3.1-4.89-.33-24.18,3.77-47.37,13.3-63.88,.17-1.14,.35-2.26,.56-3.38,5.94-31.72,27.76-55.61,55.63-71.89,27.65-16.15,61.3-24.81,91.21-26.14,3.42-.15,6.8-.21,10.11-.17,1.67-3.18,3.45-6.41,5.35-9.7,1.09-1.89,2.29-3.59,3.59-5.12,9.04-10.62,22.81-12.9,37.6-10.6,14.34,2.23,29.65,8.78,42.32,16.06,7.94,4.56,14.87,9.43,19.9,13.7,25.84,21.98,40.05,43.8,46.41,64.08,.7,1.47,1.36,2.95,1.99,4.44,4.81-1.83,9.24-2.4,13.28-1.89,14.42,1.85,23.45,17.24,26.85,39.15,.96,6.14,1.47,12.81,1.54,19.84,183.73,149.1,174.7,69.59,364.95,141.27-2.3-2.06-4.52-4.21-6.64-6.47-23.16-24.55-36.76-55.15-41.15-86.77-3.47-24.95-1.21-50.56,6.62-74.36,7.83-23.81,21.23-45.82,40.03-63.55,14.22-13.41,31.52-24.37,51.83-31.81,1.26-.86,2.53-1.7,3.81-2.52,33.94-21.73,76.07-30.95,122.48-19.11,17.45,1.34,34.18,4.4,49.74,9.1,30.55,9.23,56.61,24.81,74.7,46.16,18.16,21.44,28.27,48.67,26.82,81.09-.68,15.31-3.95,31.77-10.17,49.33h0Zm-69.03,118.1c-22.05,18.3-51.25,29.69-87.47,30.04,19.27-2.87,40.07-7.41,60.21-15.79,9.3-3.87,18.46-8.55,27.25-14.25h0Zm-29.08,9.83c-28.87,11.99-59.28,15.99-84.37,18.58l-.32,.03c-10.79-1.37-22.1-3.62-33.92-6.87-7.8-2.14-15.19-4.57-22.19-7.25,22.71,3.07,46.85,2.47,70.57-1.25,22.61-3.54,44.86-9.91,65.16-18.62,14.55-4.84,28.79-10.56,42.65-16.96,8.05-3.72,15.28-8.37,21.72-13.79-2.1,3.68-4.36,7.27-6.78,10.74-15.63,16.42-33.77,27.6-52.51,35.4h0Zm-195.74-27.89c-28.7-25.21-43.85-57.48-47.97-91.19-3.97-32.55,2.28-66.47,16.52-96.73,12.21-25.97,30.29-49.21,52.8-66.56-25.37,22.96-41.77,57.99-48.88,96.27-4.66,25.14-5.31,51.7-1.85,77.15,3.46,25.49,11.06,49.89,22.88,70.67,2.04,3.58,4.21,7.04,6.49,10.39h0Zm35.38,29.08c14.22,9.59,30.92,15.83,50.15,17.62-3.19-.75-6.42-1.57-9.68-2.46-14.89-4.09-28.36-9.19-40.47-15.15h0Zm33.17-308.44l.63-.15c15.76-3.48,31.52-5.65,46.99-6.53-16.76-.43-32.71,1.96-47.62,6.68h0Zm132.56,7.32c29.7,8.97,54.98,24.05,72.45,44.68,17.4,20.54,27.09,46.65,25.69,77.77-.45,10.14-2.09,20.83-4.99,32.02-.63-23.07-6.09-46.85-16.26-68.85-11.86-25.64-30.1-48.89-54.54-65.84-15.91-11.04-31.57-19.48-46.86-25.63,8.44,1.51,16.63,3.46,24.52,5.84h0Zm84.91,191.3c-2.85,12.53-7.42,24.32-13.74,34.83,1.67-5.23,3.07-10.58,4.23-16,3.53-6.4,6.69-12.67,9.51-18.83h0Zm-18.54,34.17c-1.67,5.17-3.6,10.23-5.78,15.15-8.26,9.35-18.37,17.09-30.37,22.64-1.79,.82-3.58,1.64-5.39,2.44,8.26-5.47,15.85-11.4,22.58-17.75,7.43-7,13.83-14.52,18.96-22.48h0Zm-272.38,53.86c-8.28-5.09-15.84-11.13-22.48-18.17-22.44-23.79-35.63-53.46-39.89-84.14-3.37-24.25-1.18-49.11,6.42-72.21,7.58-23.08,20.57-44.4,38.77-61.57,9.53-8.98,20.49-16.83,32.87-23.2-19.59,16.99-35.45,38.44-46.57,62.07-14.6,31.04-21.03,65.87-16.93,99.33,4.74,38.76,23.54,75.64,59.98,102.65-3.7-1.25-7.32-2.59-10.89-3.99l-1.28-.77h0Zm-389.04-147.1c-9.31-6.31-18.9-11.9-28.93-16.54-.64,7.58-2.57,14.68-5.97,20.92-2.94,5.39-10.25,10.07-20.31,13.59-2.61,3.13-5.35,5.97-8.13,8.49,8.34-6.06,19.18-7.84,35.25-4.38,9.9,2.13,18.19,6.41,24.74,12.16,2.19-11.83,3.3-23.45,3.36-34.24h0Zm-33.54-18.61c-1.03-.44-2.05-.86-3.08-1.28-2.02,9.35-5.52,17.9-9.89,25.42-1.1,1.9-2.25,3.72-3.45,5.49,5.26-2.58,9.05-5.59,10.88-8.93,3.33-6.1,5.11-13.14,5.55-20.7h0Zm-7.61-3.02c-8.48-3.13-17.29-5.55-26.53-7.14-1.53,1.45-3.24,3.03-5.08,4.72l-3.44,3.19c4.44,9.53,6.05,19.91,5.01,29.92-.31,2.98-.85,5.92-1.62,8.8,5.23-.92,10.07-2.09,14.37-3.48,2.79-3.4,5.42-7.17,7.79-11.25,4.25-7.31,7.63-15.65,9.51-24.76h0Zm-32.56-8.05c-2.7-.35-5.44-.63-8.22-.83,1.25,1.71,2.4,3.46,3.44,5.26l4.78-4.42h0Zm-14.59-1.17c-2.25-.07-4.52-.1-6.81-.07-.23,1.68-.5,3.35-.82,5.04-.75,3.99-1.74,8.02-2.97,12.06,1.67,1.3,3.28,2.63,4.82,3.98,3.89-4.25,8.05-8.32,12-12.05-1.72-3.12-3.79-6.12-6.22-8.95h0Zm-11.65,.06c-7.11,.29-14.47,1.05-22.1,2.33l2.44,1.28c5.9,3.15,11.5,6.61,16.64,10.3,.96-3.31,1.74-6.62,2.36-9.9,.25-1.34,.47-2.68,.67-4.01h0Zm-29.96,3.81l-.44,.09c1.43,2.05,2.84,4.11,4.22,6.17l1.68,.62c6.47,2.45,13.08,5.81,19.3,9.97l.68-1.96c-5.3-3.89-11.16-7.55-17.38-10.87-2.63-1.4-5.32-2.75-8.06-4.02h0Zm-5.5,1.21c-1.49,.35-2.98,.72-4.49,1.11l-1.09,.28c2.44,.31,4.97,.8,7.56,1.45l-1.99-2.84h0Zm-5.67-3.51l2.67-.66-.73-.99c-7.1-2.79-14.4-5.1-21.65-6.8-3.3-.77-6.59-1.42-9.85-1.93-2.94,3.76-5.53,8.17-7.75,13.02,.29,1.38,.54,2.76,.74,4.14,11.72-1.52,23.91-3.51,36.56-6.78h0Zm11.75-2.69c10.48-2.11,20.44-3.31,29.96-3.68,.15-1.6,.27-3.19,.33-4.77-11.32-7.77-26.93-12.72-47.15-12.74-1.33,0-2.62,.09-3.88,.28,4.81,5.97,9.49,11.96,13.96,18,2.28,.92,4.54,1.89,6.77,2.9h0Zm34.77-3.79h1.45l-1.35-1.17-.1,1.17h0Zm8.4,.14c5.83,.24,11.48,.8,16.99,1.65,.99-.97,1.85-1.85,2.53-2.62,9.01-10.07,17.24-16.84,24.67-20.79-.42-1.7-.9-3.42-1.43-5.14l-.81-1.67c-6.28-12.63-14.99-24.44-25.32-33.7-10.26-9.18-22.11-15.83-34.74-18.24-8.45-1.61-17.29-1.32-26.26,1.41,13.5,9.2,23.44,21.46,29.49,35.6,4.76,11.13,7.11,23.42,6.88,36.29,2.96,2.22,5.63,4.64,8.02,7.2h0Zm22.68,2.65c8.02,1.56,15.73,3.73,23.18,6.43,.22-1.53,.39-3.09,.52-4.66,.55-6.79,.25-13.93-1.14-21.36-6.58,3.75-13.96,9.99-22.16,19.15l-.4,.44h0Zm27.76,8.17l2.27,.92c-.09-4.05-.53-8.21-1.29-12.42-.03,1.85-.12,3.68-.27,5.49-.16,2.03-.4,4.03-.71,6h0Zm7.03,2.98c9.92,4.47,19.41,9.86,28.62,15.95-.18-5.58-.65-10.89-1.42-15.84-3.06-19.77-10.74-33.59-22.74-35.13-3.29-.42-6.92,.05-10.91,1.54,4.22,11.23,6.53,22.72,6.45,33.47h0Zm-133.94,1.94c-4.92,.82-9.76,1.52-14.52,2.13,.26,3.96,.12,7.87-.38,11.75-.28,2.12-.67,4.24-1.17,6.34l.95,.62c4.84-7.49,9.51-14.07,13.7-19.31,.44-.54,.91-1.05,1.42-1.52h0Zm-19.27,2.72l-.16,.02c-1.32,4.06-2.41,8.32-3.26,12.68,.78,.62,1.57,1.24,2.38,1.84,.27-1.33,.5-2.66,.67-4,.45-3.47,.58-6.98,.37-10.53h0Zm-5.35,.63l-9.18,1.02c2.13,2.66,4.47,5.15,6.98,7.47,.63-2.89,1.37-5.73,2.21-8.49h0Zm-8.83-3.81c3.45-.38,6.94-.77,10.48-1.18,.53-1.47,1.08-2.91,1.67-4.32l.54-1.27c-1.09-4.56-2.74-9.18-5-13.88-3.49,.05-6.88,.31-10.13,.79-3.36,.5-6.58,1.23-9.61,2.23,1.93,6.62,4.77,12.58,8.35,17.92l.08,.12,3.63-.4h0Zm-5.91,5.45c-8.04,.9-15.82,1.86-23.36,3.19-.15,.83-.28,1.66-.39,2.48,7.69,6.99,14.26,13.83,19.81,20.5,2.21,.4,4.51,.69,6.89,.85,.65,.05,.98,.04,1.15-.04,.22-.1,.57-.42,1.12-.92,.97-.89,2.48-.82,3.37,.14,.89,.97,.83,2.48-.14,3.37-.92,.84-1.54,1.39-2.45,1.79-.96,.42-1.92,.52-3.39,.42-.75-.05-1.49-.12-2.23-.19,2.18,2.87,4.17,5.69,5.98,8.48,1.18-1.67,2.29-3.35,3.32-5.03v-1.77c0-7,.61-14.09,1.79-20.98-4.27-3.68-8.12-7.77-11.47-12.31h0Zm-31.84,4.87l-1.64,.37c-.55,1.16-1.09,2.3-1.6,3.44,1.97,2.26,4.12,4.37,6.47,6.3-.26-2.41-.3-4.88-.12-7.38-1.01-.9-2.05-1.81-3.11-2.72h0Zm-10.27,2.69c-8.34,2.54-16.34,5.93-24,10.68,6.24,2.78,12.35,6.32,18.2,10.53,1.83-6,4.22-12.43,7.24-19.3-.49-.63-.97-1.27-1.44-1.91h0Zm-28.77,13.85c-1.61,1.15-3.21,2.36-4.79,3.64-3.46,2.81-6.65,5.35-9.71,7.79-3.61,2.88-7.04,5.6-10.23,8.24,10.3-2.66,20.41-1.64,29.05,2.3,5.36,2.44,10.15,6,14.08,10.5,.22-6.04,1.24-12.77,3.19-20.19-6.28-4.68-12.85-8.52-19.58-11.44l-2-.84h0Zm-7.8-.07c.8-.65,1.61-1.29,2.42-1.9-12.32-4.04-24.98-4.98-37.12-2.33-3.74,.82-7.44,1.98-11.07,3.5,.96,12.26,2.83,23.37,5.44,33.38,2.95-2.62,5.97-4.86,9.02-6.73,6.02-5.73,13.35-11.57,21.61-18.15,3.15-2.51,6.44-5.13,9.69-7.76h0Zm7.16-5.3c8.52-5.73,17.39-9.72,26.64-12.64-2.7-4.4-4.88-9.12-6.57-14.02-1.61-1.17-3.26-2.35-4.93-3.53-26.6-18.73-47.24-24.09-62.73-20.51-4.41,12.53-6.63,28.03-5.84,46.77l.18,3.48c3.41-1.33,6.87-2.38,10.37-3.14,14.08-3.08,28.77-1.66,42.89,3.59h0Zm31.41-14.05c1.09-.3,2.2-.59,3.3-.86l.14-.3c-2.36-1.94-4.81-3.9-7.36-5.86,1.16,2.42,2.46,4.77,3.91,7.03h0Zm9.54-2.29l3.21-.64c.92-3.69,2.26-7.45,3.97-11.28-1.77,1.98-3.32,4.21-4.64,6.67-.93,1.74-1.82,3.46-2.68,5.14l.13,.11h0Zm8.4-1.56c6.22-1.03,12.6-1.84,19.14-2.59-3.2-5.12-5.77-10.75-7.61-16.91-1.24,.55-2.44,1.16-3.6,1.81-3.59,6.1-6.28,12-7.93,17.69h0Zm-84.49,52.69c-3.98,3.89-7.31,7.74-9.82,11.78,3.16,9.73,7.07,18.3,11.55,25.79,1.42,.75,2.87,1.43,4.36,2.05,11.99,4.97,25.87,5.42,40.91,.66,4.37-1.38,8.84-3.2,13.38-5.48,.03-1.94-.05-3.84-.23-5.67-.86-1.37-1.65-2.83-2.34-4.38-1.72-3.86-2.89-8.29-3.4-13.28-3.95-6.53-9.63-11.53-16.29-14.57-8.51-3.88-18.66-4.56-28.91-1.12-3.08,1.03-6.16,2.43-9.22,4.23h0Zm-12.84,17.71c-.86,2.16-1.5,4.39-1.9,6.72,2.51,2.83,5.18,5.37,8,7.6-2.22-4.46-4.26-9.23-6.1-14.32h0Zm-2.36,13.18c.17,8.3,3.13,17.96,9.53,29.99,4.29-2.51,9.01-4.42,14.21-5.75-3.64-4.18-7.07-8.84-10.24-14-4.84-2.7-9.36-6.13-13.5-10.24h0Zm11.84,34.17c3.65,6.39,8.2,13.41,13.75,21.21,3.52,4.95,7.32,9.57,11.33,13.86,5.9-3.84,12.05-9.56,18.4-17.44,.88-1.1,1.73-2.19,2.55-3.27-1.97-.75-3.93-1.59-5.88-2.52-8.61-4.1-16.94-9.95-24.53-17.72-5.83,1.23-11.01,3.17-15.62,5.89h0Zm9.85,23.98c-5.54-7.79-10.14-14.85-13.89-21.31l-.76,.58c-6.68,5.19-12.08,12.38-16.54,21.76,2.75,3.53,5.69,6.6,8.78,9.1,9.58,7.72,20.87,9.83,33.4,3.43-3.88-4.21-7.56-8.73-10.99-13.55h0Zm-16.25-25.49c-8.72-16.01-11.81-28.13-10.6-38.36-.73-.9-1.45-1.83-2.15-2.78-6.74,10.28-12.6,23.58-16.91,40.3,3.27,8.62,7.15,16.43,11.56,23,4.57-8.94,10.06-15.94,16.77-21.15,.44-.34,.88-.67,1.33-1h0Zm-9.29-44.51c.3-.98,.65-1.94,1.03-2.89-.54,.68-1.07,1.38-1.6,2.09l.57,.79h0Zm44.21,84.63c2.45,2.42,4.96,4.73,7.55,6.93,.66-1.1,1.38-2.15,2.16-3.15,7.84-10,21.9-15.19,38.9-16.82,3.39-.33,6.9-.51,10.5-.56-.19-2.28-.26-4.65-.2-7.12-11.47,2.43-24.15,1.97-36.66-1.91-1.13,1.54-2.31,3.08-3.56,4.63-6.4,7.94-12.65,13.85-18.69,18h0Zm11.31,9.99c9.36,7.36,19.51,13.26,30.1,17.7,13.85-2.79,27.83-6.96,41.18-12.34-12.05-2.48-18.92-9.79-21.92-20.24-.37-1.27-.67-2.59-.92-3.94-3.68,.04-7.25,.22-10.69,.54-15.74,1.5-28.63,6.15-35.57,15-.81,1.03-1.53,2.12-2.18,3.27h0Zm38.28,20.82c4.26,1.46,8.56,2.69,12.9,3.69,3.59,.83,7.2,1.5,10.83,2.01,4.74-4.67,8.21-10.09,9.95-16.28-10.97,4.36-22.33,7.92-33.68,10.58h0Zm11.82,8.35c-6.94-1.6-13.79-3.76-20.49-6.49-1.57,.31-3.15,.6-4.72,.87-9.09,1.56-18.09,2.53-26.77,2.85,.36,1.44,.78,2.92,1.26,4.45,7.21,2.31,14.58,4.1,22.05,5.27,8.02,1.26,16.15,1.81,24.3,1.56,4.23-2.07,8.11-4.42,11.55-7.06-2.4-.42-4.8-.9-7.18-1.45h0Zm-28.28-9.95c-8.3-4.01-16.29-8.91-23.8-14.69-1.58,4.8-1.96,10.48-.88,17.13,8-.25,16.28-1.08,24.68-2.43h0Zm-27.75-17.86c-3.29-2.74-6.48-5.65-9.55-8.75-14.84,8.31-28.37,5.91-39.9-3.37-2.78-2.24-5.44-4.91-7.96-7.93-1.17,2.84-2.27,5.85-3.3,9.05,10.46,10.55,22.9,20,36.57,27.64,1.7,.95,3.42,1.87,5.15,2.76,5.51,.67,11.28,1,17.23,.98-1.19-7.93-.5-14.68,1.75-20.38h0Zm73.84,25.85c5.96,.56,11.92,.7,17.83,.41-3.4-5.89-6.29-11.96-8.65-18.09-1.49,6.68-4.68,12.57-9.17,17.69h0Zm37.52-2.21c3.49-.77,6.93-1.69,10.33-2.78,9.32-2.98,18.23-7.17,26.5-12.57-2.13-2.2-4.51-4.42-7.13-6.66-.64-.18-1.27-.38-1.89-.58-8.8,9.25-18.13,16.71-27.8,22.58h0Zm11.78,1.77c-7.53,2.41-15.31,4.06-23.22,4.96,5.27,7.51,12.52,15.09,20.59,21.61l6.66-2.69c5.4-2.19,10.35-4.2,14.81-5.83,7.75-2.83,12.55-6.2,14.94-9.93,3.08-4.82,2.04-10.56-1.89-16.75-1.03-1.61-2.24-3.25-3.62-4.91-8.8,5.84-18.32,10.35-28.28,13.53h0Zm-40.16,5.75c-4.48-.09-8.96-.41-13.44-.96-2.1,1.88-4.4,3.65-6.85,5.29,6.8-.83,13.59-2.25,20.29-4.32h0Zm69.19-25.61l1.9-1.41c-1.29-.14-2.54-.31-3.77-.5,.64,.64,1.26,1.27,1.87,1.91h0Zm7.26-5.74c1.77-1.53,3.5-3.13,5.18-4.8-3.52-1.77-6.94-3.78-10.25-6.04-1.05-.71-2.09-1.45-3.12-2.22-2,2.67-4.05,5.23-6.12,7.67,3.79,1.63,7.41,3.33,10.84,5.09,1.13,.11,2.28,.21,3.47,.29h0Zm12.18-12.43c1.01-1.21,2-2.45,2.96-3.72,8.02-10.57,14.52-23.13,18.95-37.7-4.93,8.38-11.21,15.96-18.78,22.75-1.77,6.42-3,12.83-3.13,18.67h0Zm6.77-.84c-1.81,2.38-3.7,4.67-5.65,6.86,5.17,2.05,10.58,3.52,16.23,4.33,32.25-7.72,55.44-33.77,70.07-64.9-11.37-10.38-28.75-18.91-53.21-23.46-.54,4.12-1.3,8.11-2.27,11.98-3.31,26.61-12.35,48.31-25.17,65.19h0Zm-10.37,11.84l-1.75,1.69h2.26c-.19-.55-.36-1.11-.52-1.69h0Zm-8.84,7.86c-1.25,1-2.53,1.97-3.81,2.91,1.41,1.71,2.66,3.41,3.73,5.09,4.96,7.8,6.12,15.27,1.89,21.88-2.94,4.59-8.53,8.62-17.34,11.84-4.19,1.53-9.19,3.56-14.65,5.77l-4.08,1.65c6.01,4.41,12.34,8.17,18.55,10.84,7.11,3.06,14.02,4.68,20.02,4.18,5.71-.48,10.63-2.92,14.12-7.96,4.32-6.22,6.6-16.34,5.77-31.46-.44-8.08-9.86-16.81-24.19-24.74h0Zm39.69-85.84c.48-3.9,.83-7.91,1.04-12.02l-1.27-.19c-2.12,4.8-4.28,10.04-6.59,15.68-1.2,2.92-2.44,5.94-3.72,9.02-.61,1.47-1.27,3.01-1.98,4.68-1.56,3.65-3.38,7.9-5.16,12.42-1.15,2.9-2.3,5.94-3.38,9.05,4.66-5,8.66-10.39,11.99-16.16,3.99-6.92,7.03-14.41,9.08-22.47h0Zm1.26-26.41c-.04-2.09-.12-4.2-.22-6.34-.03-.62-.08-1.23-.14-1.85-1.81,.85-3.58,1.53-5.29,2.05-3.84,4.58-8.51,8.58-13.97,11.75l.16,1.97c5.24,.33,10.25,.8,15.04,1.42,1.46-3.2,2.92-6.21,4.41-9h0Zm-2.85-19.18c-.25-.68-.51-1.35-.79-2.02-6.79,.8-13.99,1.21-21.39,1.17,.53,1.62,1.03,3.25,1.49,4.89,1.67,1.67,3.9,3.21,6.77,4.6,2.16,1.04,5.01,1.12,8.28,.33l.14-.18c2.15-2.74,3.99-5.69,5.5-8.79h0Zm-2.85-6.41c-3.44-6.51-8.29-12.41-13.9-17.53-2.23,2.98-4.13,5.97-5.54,8.9-1.2,2.48-2.02,4.93-2.34,7.29l.81,2.16c7.26,.14,14.33-.15,20.97-.82h0Zm-17.53-20.66l-1.71-1.35c-1.73,4.16-3.73,8.31-5.99,12.45l.48,1.07c.3-.73,.64-1.48,.99-2.22,1.6-3.3,3.74-6.64,6.22-9.95h0Zm2.45-4.16l.51,.41,1.05-1.24c-1.06-.92-2.15-1.83-3.27-2.73l-.63,1.75c.79,.6,1.58,1.2,2.35,1.81h0Zm4.14,3.52c6.31,5.71,11.73,12.35,15.52,19.74-2.49-7.09-7.63-14.19-14.58-20.87l-.95,1.13h0Zm-12.28-3.6c-4.76-3.26-9.77-6.03-14.78-8.25,3.74,6,7.18,12.07,10.22,18.21,1.7-3.31,3.21-6.64,4.56-9.96h0Zm-22.33-11.19c-7.11-2.37-13.88-3.51-19.51-3.22-5.19,.26-9.29,1.73-11.56,4.57-4.08,5.12-8.64,11.51-13.36,18.8,1.52,.86,3.06,1.68,4.64,2.47,12.58,6.29,26.9,10.29,41.37,12.42,2.46,.36,4.91,.67,7.36,.92,1.89-2.77,3.7-5.62,5.41-8.57l.61-1.06c-4.19-8.9-9.27-17.67-14.97-26.33h0Zm-46.99,24.17c-3.66,5.83-7.39,12.15-11.05,18.77,.31,4.56,.9,9.03,1.78,13.31,9.89,4.13,21.77,7.9,35.83,11.28,9.49-7.56,18.44-16.65,26.21-27.14-1.63-.19-3.27-.41-4.9-.65-14.91-2.19-29.72-6.33-42.8-12.88-1.72-.86-3.41-1.76-5.07-2.71h0Zm-18.59,33.11c-4.47,8.94-8.67,18.17-12.3,27.34,1.19,2.66,2.3,5.38,3.36,8.15,5.78-.86,11.83-2.42,17.98-4.65,.05-.84,.08-1.69,.08-2.55,.06-8.17-1.84-17.19-6.14-26.9-1.01-.46-2-.93-2.97-1.39h0Zm-14.76,33.77l-.87,2.41,1.78-.12-.91-2.29h0Zm-2.54,7.25c-1.93,5.8-3.56,11.49-4.82,16.97-.26,1.12-.5,2.23-.72,3.33,3.62,1.43,7.34,2.98,11.13,4.63,1.89-1.22,3.68-2.56,5.36-4-1.46-7.39-3.41-14.49-5.78-21.25-1.75,.17-3.47,.28-5.17,.32h0Zm-9.48,15.89c1.19-5.17,2.7-10.52,4.48-15.96-5.41-.3-10.44-1.32-14.96-3.11-3.59-1.42-6.85-3.3-9.7-5.68l-1.82,.98c-.39,5.83-1.68,12.01-4.01,18.47,6.86,1.49,15.64,4.25,25.43,7.96l.58-2.66h0Zm6.07-20.67c1.01-2.9,2.09-5.82,3.23-8.75-1.88-4.06-3.92-7.98-6.11-11.73-6.39,5.42-12.71,10.02-18.93,13.82,2.11,1.55,4.46,2.83,6.99,3.83,4.4,1.74,9.4,2.67,14.81,2.84h0Zm5.64-14.76c3.28-7.94,6.96-15.9,10.83-23.64l-.64-.34c-2.38,2.72-4.93,5.42-7.65,8.11-2.47,2.44-4.93,4.76-7.38,6.95,1.7,2.89,3.32,5.86,4.85,8.93h0Zm-8.65,44.6c-.33,2.02-.6,4-.81,5.93,2.19-.71,4.32-1.55,6.37-2.5l1.29-.62c-2.32-.98-4.6-1.92-6.84-2.81h0Zm-1.19,11.05c-.12,2.92-.07,5.71,.18,8.34,5.52,.09,11.23,.47,17.03,1.1-.36-4.64-.39-9.22-.07-13.68l-3.51-1.57c-1.56,.92-3.18,1.76-4.85,2.53-2.8,1.3-5.73,2.4-8.78,3.29h0Zm.89,13.13c.18,.89,.4,1.75,.64,2.59,2.52,8.76,8.32,14.88,18.51,16.91l.94,.17,.16-1.86c-1.59-5.57-2.74-11.14-3.43-16.63-5.73-.65-11.36-1.06-16.81-1.18h0Zm-5.44-16.87c.25-2.94,.65-5.97,1.19-9.09-10.23-3.9-19.36-6.76-26.3-8.19-2.26,5.25-5.21,10.67-8.92,16.19,11.69,3.36,23.46,3.56,34.03,1.09h0Zm31.41,37.11l1.07,.02c2.64-1.2,5.24-2.44,7.81-3.74,5.49-2.77,10.81-5.75,15.88-8.93-4.1-1.07-8.25-2.04-12.41-2.92-4.25-.89-8.51-1.67-12.75-2.33,.04,4.91-.12,9.9-.48,14.98,.28,.97,.58,1.94,.9,2.91h0Zm14.5-1.26c6.79-1.23,14.54-3.38,23.34-6.55-.59-.52-1.16-1.06-1.7-1.61-1.71-.53-3.44-1.04-5.18-1.54-5.23,3.45-10.74,6.68-16.46,9.69h0Zm32.48-10.07l1.36-.56c4.3-1.78,8.4-3.68,12.31-5.69-3.3-2.77-6.48-5.78-9.57-8.99-3.73,3.45-7.74,6.75-11.98,9.91,2.72,1.76,5.35,3.54,7.88,5.33h0Zm-4.61,6.94c-16.58,6.23-29.84,9.08-40.29,9.18l-.36,.16c2.62,7.05,5.97,14.03,10.01,20.76,13.05-5.99,25.63-14.7,37.29-26.6-2.43-1.04-4.64-2.21-6.64-3.51h0Zm32.26-21.46c3.81-2.59,7.38-5.34,10.69-8.23,1.76-6.14,3.96-12.21,6.17-17.79,1.84-4.65,3.66-8.9,5.21-12.54l1.97-4.64c1.3-3.13,2.53-6.12,3.72-9,2.12-5.16,4.12-10.02,6.07-14.53-4.09-.5-8.36-.89-12.79-1.18,.51,18.87-4.15,38.59-15.97,59.45-1.65,2.91-3.34,5.73-5.06,8.45h0Zm8.71-.41c-4.33,3.35-9.01,6.48-14.04,9.41,.83,.6,1.66,1.19,2.5,1.77,3.18,2.16,6.46,4.09,9.84,5.77-.25-5.31,.45-11.09,1.7-16.95h0Zm-25.3,15.3c-1.72,.81-3.47,1.61-5.26,2.38l2.44,.96c.95-1.09,1.89-2.2,2.82-3.34h0Zm61.86-117.4c.24,1.66,.46,3.3,.65,4.92,.52-.38,1.04-.77,1.56-1.17,2.23-1.72,4.46-3.67,6.65-5.84-2.83,.71-5.81,1.33-8.9,1.88l.03,.21h0Zm1.19,10.35l.14,1.77c1.42-1.87,2.9-3.57,4.47-5.1l-.66,.52c-1.32,1.01-2.63,1.95-3.95,2.82h0Zm.48,10.04c.05,4.29-.1,8.46-.46,12.52,24.79,4.58,42.72,13.15,54.75,23.63,3.88-8.89,7.09-18.12,9.63-27.41,1.1-4.02,2.07-8.05,2.92-12.07-6.25-6.2-14.51-10.81-24.65-13-21.89-4.71-33.12,1.76-42.2,16.33h0Zm-19.25-49.71c6.17,5.92,11.05,12.19,14.14,18.57,.19-1.11,.34-2.24,.46-3.37,.9-8.68-.36-17.66-3.93-25.98-3.55,3.38-7.24,7.02-10.67,10.78h0Zm-69.15-35.76c5.1,1.19,10.21,2.67,15.27,4.41-3.49-4.56-7.09-9.1-10.75-13.62-.82,.29-1.62,.63-2.41,1-3.37,1.59-6.48,3.87-9.34,6.71,2.4,.43,4.81,.93,7.22,1.5h0Zm-16.35,2.01c-2.38-.26-4.73-.44-7.05-.54,1.1,2.47,2.04,4.91,2.84,7.34,1.3-2.4,2.71-4.67,4.21-6.8h0Zm-23.18-4.57c2.71-.4,5.51-.65,8.37-.77-2.26-4.02-4.95-8.1-8.11-12.24-3.95,4.59-7.54,9.11-10.72,13.53l.36,1.78c3.2-1.02,6.58-1.79,10.1-2.31h0Zm13.77-.82c4.19,.07,8.49,.42,12.85,1,3.82-4.38,8.15-7.86,12.97-10.14,.43-.2,.85-.39,1.28-.57-1.88-2.3-3.78-4.6-5.69-6.89-5.28-6.35-10.36-11.8-15.22-16.41-5.96,5.82-11.49,11.56-16.51,17.18,4.16,5.35,7.58,10.63,10.31,15.83h0Zm-48.78,23.08c3.55-6.64,8.56-11.69,14.65-15.35,1.49-2.45,3.11-4.93,4.85-7.43-1.42-8.63-1.5-18.18,.02-28.71-8.42-6.7-17.85-11.66-27.59-14.66-2.74,3.48-4.97,7.62-6.69,12.19-4.94,13.16-5.58,29.87-1.28,45.28,.27,.98,.56,1.94,.88,2.91,4.57,3.37,8.89,6.71,12.94,10.02,.71-1.4,1.45-2.81,2.22-4.24h0Zm-4.97,21.3c-2.8,6.55-5,12.65-6.65,18.32,6.77,5.35,13.16,11.64,18.99,18.77,3.39,4.14,6.59,8.57,9.57,13.26,2.18-1.97,4.36-4.03,6.55-6.2,2.39-2.37,4.66-4.75,6.78-7.14-13.92-8.4-21.97-17.95-25.21-28.48-3.72-2.48-7.07-5.35-10.04-8.53h0Zm-8,23.37c-2.24,9.15-2.95,17.08-2.39,23.85,1,1.74,1.89,3.57,2.66,5.48,1.5,3.72,2.55,7.76,3.08,12.08,.84,1.23,1.76,2.37,2.76,3.42,6.6-3.93,13.34-8.79,20.18-14.65-2.99-4.76-6.22-9.24-9.64-13.42-5.15-6.29-10.74-11.9-16.64-16.75h0Zm91.54,33.34l1.11-.8c-11.21-2.83-21.03-5.94-29.56-9.31,1.06,3.78,2.36,7.36,3.93,10.68,1.31,2.79,2.66,5.56,4.02,8.3,.73-.48,1.47-.96,2.22-1.41,5.32-3.22,11.41-5.75,18.28-7.46h0Zm43.78-40.39c-.98,1.61-1.98,3.2-3,4.76,1.43,.11,2.85,.2,4.27,.27,.02-.54,.06-1.09,.13-1.64-.45-1.13-.92-2.26-1.4-3.39h0Zm-6.1,9.29c-1.38,1.94-2.81,3.84-4.27,5.7,.94,.25,1.69,.91,2.25,2.02,3.38,6.71,5.66,13.3,6.96,19.74,3.7-.96,7.14-2.25,10.32-3.84-.63-5.16-1.64-10.25-3-15.29-2.33-2.42-3.76-5.05-4.43-7.83-2.6-.11-5.21-.28-7.83-.51h0Zm-35.75,35.54c-6.22,4.37-12.6,8.13-18.97,11.22,3.16,6.04,6.45,11.94,9.89,17.6,2.98-9.29,7.2-18.44,11.78-26.63,.59-1.05,1.19-2.09,1.79-3.12-1.54,.27-3.03,.58-4.49,.92h0Zm-23.31,13.23c-1.42,.62-2.83,1.22-4.25,1.77-1.4,11.9-6.76,21.91-14.69,29.49,.45,2.49,.84,5.02,1.19,7.57,9.97,4.71,20.08,9.98,29.59,15.55-1.23-3.98-1.84-8.23-1.94-12.65-.15-6.41,.81-13.17,2.55-19.95-4.38-6.94-8.52-14.25-12.45-21.78h0Zm-13.42,4.95c-3.96,1.17-7.86,2.07-11.65,2.68,1.38,4.03,2.62,8.18,3.7,12.43,.37-1.02,.77-2.03,1.19-3.03,1.81-4.3,4.06-8.35,6.76-12.08h0Zm91.5-124.03c-.19-11.03-2.39-21.56-6.49-31.16-6.12-14.32-16.49-26.6-30.73-35.46-6.96,2.9-13.98,7.3-20.95,13.45-6.56,5.79-12.82,11.51-18.7,17.15,4.97,4.72,10.13,10.24,15.46,16.66,2.31,2.78,4.61,5.57,6.89,8.36,2.34-.56,4.77-.86,7.29-.85,19.78,.01,35.44,4.57,47.23,11.86h0Zm-37.01-72.06l.21,.12c11.03-4.13,21.95-4.79,32.37-2.81,13.53,2.58,26.16,9.65,37.03,19.38,1.42,1.28,2.82,2.6,4.18,3.96-6.87-8.91-15.51-17.97-26.23-27.09-4.83-4.11-11.51-8.79-19.17-13.2-12.27-7.05-27.02-13.38-40.7-15.51-13.23-2.05-25.44-.15-33.21,8.99-1.12,1.32-2.15,2.78-3.08,4.4-1.46,2.53-2.84,5.02-4.16,7.47,6.79,.3,13.26,1.01,19.29,2.14,12.64,2.37,23.83,6.53,33.46,12.13h0Zm-5.34,2.49c-8.48-4.51-18.17-7.9-29.01-9.93-6.48-1.22-13.5-1.93-20.87-2.15-4.86,9.43-8.74,18.32-11.73,26.69,7.25,3.12,15.13,8.23,23.56,15.71,5.99-5.76,12.37-11.6,19.05-17.49,6.3-5.56,12.66-9.78,18.99-12.83h0Zm-55.21-12.15c-2.45,0-4.94,.07-7.45,.18-29.2,1.3-62.05,9.74-89.01,25.5-24.57,14.36-44.23,34.79-51.65,61.43,5.48-6.18,12.11-10.7,19.98-13.03,2.06-5.33,4.51-10.12,7.29-14.42,8.3-12.8,19.51-21.08,32.01-25.35,12.46-4.25,26.18-4.51,39.56-1.26l1.83,.47c5.39-5.85,12.27-9.68,20.51-10.49,4.9-.48,10.27,.12,16.07,2.04,2.83-7.91,6.43-16.26,10.87-25.06h0Zm-150.46,98.42c-.75,5.42-1.03,11.07-.76,16.94,.37,8.38,1.26,16.28,2.62,23.67,4.4-3.44,8.97-6.27,13.68-8.52-.11-1.75-.21-3.51-.28-5.3-.75-17.73,1.14-32.74,5.01-45.2-7.25,2.94-13.18,8.06-17.91,14.77-.82,1.17-1.6,2.38-2.36,3.64h0Zm-5.52,17.15c-.08-1.8-.11-3.59-.1-5.35-4.78,12.65-7.17,27.89-7.49,43.89,3.42-4.35,7.03-8.21,10.79-11.58-1.69-8.35-2.78-17.36-3.21-26.96h0Zm8.46,28.74c2.65,11.9,6.59,22.33,11.61,31.12,.45,.79,.92,1.57,1.39,2.34,1.98-2.58,4.03-4.95,6.12-7.11-2.91-10.46-5.02-22.11-6.13-35-4.48,2.3-8.83,5.17-12.99,8.65h0Zm7.46,33.49c-4.88-8.54-8.78-18.54-11.52-29.86-4.23,4.05-8.24,8.78-11.98,14.21,.16,7.16,.71,14.41,1.64,21.59,1.55,12.07,4.13,23.91,7.61,34.77,4.46-14.95,10.23-27.04,16.76-36.59-.86-1.34-1.7-2.71-2.51-4.13h0Zm76.37,30.77c-15.22,4.81-29.4,4.63-41.89,.08,2.35,3.28,4.83,6.3,7.4,9.08,11.68-1.99,25.61-1.44,42.32,1.35,1.96-5.24,3.18-10.27,3.75-15.05-3.92,1.83-7.78,3.35-11.58,4.55h0Zm59.4-48.82c.74-.89,1.46-1.79,2.16-2.69-2.77-4.42-6.03-8.96-9.8-13.59-5.05-1.04-9.69-2.62-13.93-4.66,3.85,7.58,10.87,14.59,21.58,20.94h0Zm13.53-21.24c1.23-2.76,2.26-5.54,3.09-8.34-.69-.49-1.37-.99-2.05-1.5-.48,3.25-.83,6.54-1.04,9.84h0Zm-14.69-72.43c-2.62-3.15-5.43-6.08-8.4-8.77-.81,6.94-.87,13.41-.27,19.42,2.66-3.51,5.57-7.06,8.67-10.65h0Zm-36.79-31c8.74,2.95,17.21,7.4,24.94,13.2,1.13-5.94,2.74-12.17,4.9-18.72-5.1-1.66-9.79-2.19-14.06-1.77-6.14,.61-11.43,3.23-15.78,7.3h0Zm29.18,16.59c3.84,3.25,7.46,6.86,10.79,10.79,4.91-5.47,10.27-11.03,16.01-16.66-7.82-6.92-15.06-11.64-21.68-14.53-2.36,7.2-4.04,13.99-5.12,20.4h0Zm-37.69-14.07c-12.39-2.94-25.06-2.68-36.53,1.23-11.53,3.93-21.88,11.58-29.55,23.42-2.07,3.21-3.96,6.72-5.62,10.56,16.24-2.48,37.15,3.59,63.34,22.03l.03,.02c-3.74-15.57-2.83-32.14,2.15-45.4,1.63-4.35,3.7-8.35,6.19-11.86h0Zm-43.28,184.35c6.51,6.17,13.53,10.92,20.76,14.36,2.23,1.06,4.47,2,6.73,2.82,3.67-5.31,6.58-10.5,8.82-15.52-14.14-2.29-26.12-2.91-36.3-1.66h0Zm96.67,.41c2.59-3.61,4.64-7.63,6.04-12.01-1.95,2.92-3.61,6.05-4.99,9.33-.37,.88-.72,1.78-1.05,2.69h0Zm-20.1-85.33c-3.62-4.02-7.62-8.1-12.04-12.24,.09,2.41,.43,4.77,1.02,7.09,3.35,2.07,7.02,3.81,11.02,5.15h0Zm32.96,55.93c.05,.87,.08,1.74,.09,2.6l.85-.7-.94-1.9h0Zm-182.16-8.62c-.64-5.01-1.11-10.05-1.39-15.08-13.52,23.79-8.25,52.02,8.39,77.26,.17-4.95,.88-10.25,2.18-15.91,.31-1.34,.62-2.67,.95-3.97-4.77-12.93-8.23-27.47-10.13-42.3h0Zm24.33,70.04c-4.13-5.75-7.83-12.5-11.07-19.93-1.38,7.01-1.75,13.39-1.22,19.16,2.32,3.05,4.8,6.04,7.44,8.96l1.17,1.28c1.15-3.35,2.38-6.5,3.69-9.47h0Zm-10.36,9.17c1,3.22,2.34,6.21,3.97,8.96,.33-1.18,.67-2.34,1.02-3.48-1.03-1.08-2.04-2.17-3.03-3.27-.66-.73-1.32-1.48-1.96-2.22h0Zm7.54,14.05c7,8.53,17.42,14.34,29.96,17.75-10.51-6.55-20.18-14.14-28.68-22.44-.44,1.53-.87,3.09-1.28,4.69h0Zm32.44,23.3c-13.87-3.17-25.61-8.87-33.88-17.41-.9,3.87-1.73,7.94-2.53,12.2-1.94,10.43,5.82,18.47,18.55,23.75,8.21,3.41,18.45,5.66,29.53,6.68,8.72,.81,17.97,.84,27.18,.07-.52-.96-1.03-1.94-1.52-2.97-1.88-3.93-3.42-7.66-4.66-11.21-7.54-2.55-14.88-5.65-21.94-9.23-3.69-.47-7.27-1.1-10.72-1.89h0Zm30.29,3c-1.97,.02-3.92,0-5.84-.06,2.13,.88,4.29,1.72,6.46,2.51-.22-.82-.43-1.64-.61-2.45h0Zm116.16-41.17l.43-.29c-10.05-6.16-20.98-12.02-31.8-17.24,.36,3.58,.61,7.22,.74,10.91,4.61,.7,9.24,1.54,13.85,2.51,5.64,1.18,11.26,2.56,16.77,4.11h0Zm4.68-3.29c4.64-3.38,9-6.94,13.02-10.67-5.63-6.26-10.92-13.2-15.9-20.63-.98,4.88-1.5,9.69-1.39,14.29,.14,6.15,1.44,11.94,4.27,17.01h0Zm16.46-13.97c17.25-17.24,27.31-37.77,24.64-60.22-6.71,1.14-14.11,1.29-22.15,.25l-2.11,.16-1.91,.17c-1.24,2-2.47,4.09-3.68,6.26-5.1,9.12-9.74,19.43-12.59,29.7,5.54,8.61,11.45,16.6,17.81,23.68h0Zm23.75-65.65c-1.22-5.86-3.31-11.84-6.37-17.91-.26-.52,.36,.77,.33,.79-3.42,1.72-9.5,8.44-15.86,17.88l.82,.11c7.35-.52,14.38-.81,21.08-.88h0Zm5.69,4.76c3,24.15-7.73,46.1-26.16,64.41,3.38,3.51,6.88,6.77,10.52,9.73,3.63-5.11,7.14-10.61,10.49-16.52,11.42-20.14,15.88-39.16,15.33-57.36-3.3-.15-6.7-.23-10.18-.26h0Zm7.76,94.11c.86-.05,1.72-.1,2.58-.18-1.03-.33-2.05-.67-3.06-1.05,.15,.41,.31,.82,.48,1.22h0Zm101.67-97.81c-2.75,10.05-6.26,20.04-10.55,29.61,1.39,1.41,2.69,2.84,3.89,4.3,5.21,6.31,8.65,13.07,10.51,19.93,.83-1.4,1.59-2.82,2.3-4.26,5.3-10.75,7.28-22.21,6.15-32.92-.99-9.44-4.39-18.3-10.06-25.57-.68,2.97-1.43,5.94-2.24,8.91h0Zm-12.7,34.26c-13.26,27.56-33.16,51.13-60.05,62.02,14.23-.6,29.92-5.16,47.29-14.7,10.98-6.03,19.48-13.68,25.64-22.13-1.25-7.69-4.66-15.39-10.51-22.5-.75-.91-1.54-1.8-2.36-2.69h0Zm-73.56,66.25c-4.05,.92-8.23,1.56-12.55,1.91,1.81,2.1,4.17,3.81,7.2,5.01,32.53,12.87,59.37,7.26,75.59-6.48,9.39-7.95,15.21-18.62,16.49-29.96,.16-1.49,.25-2.99,.26-4.5-6.18,7.32-14.12,13.92-23.9,19.29-23.82,13.08-44.68,17.19-63.1,14.73h0Zm-7.8-114.87c-1.01-.49-1.95-.99-2.84-1.51,.58,2.69,1.07,5.39,1.46,8.11,2.51-1.6,4.81-3.39,6.9-5.35-2.04-.06-3.9-.47-5.52-1.25h0Zm-65.8,166.23c-8.03-6.78-15.17-14.51-20.32-22.1-13.83,5.77-28.13,8.67-42.4,9.19-10.86,5.15-23.63,8.55-36.79,10.29h-.04c22.11,29.38,66.17,15.7,99.55,2.62h0Zm-108.15-18.89c.92,2.35,1.98,4.78,3.19,7.31,.76,1.6,1.57,3.09,2.42,4.52l2.41-.3c8.68-1.15,17.18-3.04,25-5.68-4.6-.27-9.17-.76-13.72-1.47-6.52-1.02-12.98-2.5-19.3-4.37Z" style="fill:#223f81; fill-rule:evenodd;"/><path d="M1380.41,1211.77s-18.21,25.1-49.89,42.56c-32.71,18.04-70.47,26.71-47.06,34.87,23.4,8.16,57.63,14.5,91,4.81,23.42-6.8,50.87-8.23,58.12-19.28,7.25-11.07-17.27-41.46-10.7-82.98,5.26-33.26-41.47,20.02-41.47,20.02Z" style="fill:#172b57; fill-rule:evenodd;"/><path d="M1499.46,860.95s-132-10.35-168.87-3.93c-36.88,6.41-117.75,6.34-64.85,155.63,41.47,117.02,92.68,228.04,92.68,228.04,27.49,6.75,47.33,25.72,82.45,20.25,0,0-44.3-262.44-80.15-300.2,28.64,4.72,81.23,13.93,154.11,34.77,135.19,38.67,189.53,19.3,189.53,19.3l20.12-70.54-225.02-83.32Z" style="fill:#20386f; fill-rule:evenodd;"/><path d="M1598.58,337.53c29.7-.81,18.68-22.89,52.84-14.07,17.96,4.64,4.71,12.02,28.03,9.62,23.34-2.41,34.82-4.81,37.76,10.41,2.94,15.23,4.36,20.04,15.58,22.45,11.22,2.4,16.29,22.45,0,36.07-16.29,13.62-8.37,19.24-4.77,30.46,3.61,11.22-8.68,12.02-15.36,22.44-6.68,10.42,6.15,12.39-3.47,21.43-9.62,9.03-23.11,8.23-23.11,8.23l-40.5-77.64-47.01-69.4Z" style="fill:#1a2c57; fill-rule:evenodd;"/><path d="M1334.46,1265.37s-18.21,25.1-49.88,42.57c-32.72,18.03-70.47,26.71-47.06,34.87,23.4,8.16,57.63,14.5,91,4.8,23.42-6.8,50.87-8.21,58.12-19.28,7.25-11.07-8.53-38.84-1.97-80.36,5.26-33.26-50.2,17.4-50.2,17.4Z" style="fill:#172b57; fill-rule:evenodd;"/><path d="M1527.52,861.88s-171.54-6.42-208.41,0c-36.87,6.41-117.75,6.34-64.85,155.63,41.47,117.02,55.15,265.18,55.15,265.18l82.45,20.25s-3.27-266.41-42.61-337.33c28.64,4.72,81.23,13.93,154.11,34.77,135.19,38.67,209.32,19.31,209.32,19.31l20.13-70.55-205.29-87.26Z" style="fill:#223f81; fill-rule:evenodd;"/><polygon points="1670.76 418.99 1712.67 542.83 1659.72 577.7 1629.72 470.7 1670.76 418.99" style="fill:#f9af79; fill-rule:evenodd;"/><path d="M1654.99,560.81l-25.27-90.11,41.04-51.7,15.33,45.3c-5.29,40.91-18.08,74.75-31.1,96.52Z" style="fill:#ed7d57; fill-rule:evenodd;"/><path d="M1563.85,439.95c-1.36,37.67,17.14,70.27,46.55,73.16,29.4,2.91,56.24-25.15,59.94-62.66,3.7-37.5-17.14-70.25-46.55-73.16-29.4-2.89-57.79,3.23-59.94,62.66Z" style="fill:#f9af79; fill-rule:evenodd;"/><path d="M1732.8,539.23c128.65,86.88,48.63,227.28,20.38,329.89-24.06,87.38-23.28,140.2-26.89,140.2s-92.08-13.23-142.58-58.92c-50.5-45.68-84.65-89.95-84.65-89.95,0,0,64.7-11.52,85.85-95.21,10.73-42.48,5.85-65.55,30.32-132.88,24.47-67.32,117.56-93.14,117.56-93.14Z" style="fill:#6d96ce; fill-rule:evenodd;"/><path d="M1732.8,539.23l-13.78-33.72s-43.68,28.86-61.12,42.48c-17.43,13.62-28.19,16.84-28.19,16.84,0,0-6.3,48.33-2.21,43.94,51.56-55.26,105.3-69.54,105.3-69.54Z" style="fill:#6d96ce; fill-rule:evenodd;"/><polygon points="1789.82 1365.48 1778.59 1365.48 1698.04 1029.39 1722.75 1029.39 1789.82 1365.48" style="fill:#9c7357; fill-rule:evenodd;"/><polygon points="1453.32 1365.48 1464.55 1365.48 1556.99 1017.51 1532.27 1017.51 1453.32 1365.48" style="fill:#9c7357; fill-rule:evenodd;"/><path d="M1664.68,1041.99c45,0,73.51-8.07,91.7-25.8,22.55-21.97,27.21-56,27.28-100.34,.15-93.22,5.3-112.49,31.54-169.41,2.91-6.31,.15-13.79-6.16-16.71-6.32-2.91-13.79-.16-16.71,6.17-27.74,60.17-33.7,82.28-33.85,179.91-.07,44.93-5.76,68.78-19.67,82.33-14.27,13.9-40.06,19.63-83.62,18.55-42.06-1.05-71.01-6.93-94.28-11.66-30.59-6.21-52.71-10.71-78.92,1.82-6.28,3-8.93,10.51-5.92,16.79,2.99,6.28,10.51,8.93,16.78,5.93,18.61-8.89,34.4-5.68,63.05,.14,24.23,4.93,54.39,11.05,98.67,12.15,3.46,.09,6.83,.12,10.11,.12Z" style="fill:#9c7357; fill-rule:evenodd;"/><path d="M1728.03,665.72s-32.06,97.79-71.74,138.27c-39.67,40.48-119.52,54.09-144.53,52.49,19.93-8.01,57.89-30.82,73.16-91.24,10.73-42.48,5.85-65.55,30.32-132.88,18.17-49.98,74.14-77.08,101.78-87.73-34.51,24.79-77.64,65.59-90.9,96.64-14.72,34.47,101.91,24.44,101.91,24.44Z" style="fill:#466fb5; fill-rule:evenodd;"/><path d="M1285.5,751.54s-55.3-25.24-61.31-22.84c-6.01,2.41-67.33,39.44-67.33,45.57s54.1-22.86,54.1-22.86c0,0-6.01,16.03-2.4,23.71,3.61,7.69,45.2,7.69,82.72,5.28,37.51-2.4-5.78-28.86-5.78-28.86Z" style="fill:#f9af79; fill-rule:evenodd;"/><path d="M1726.27,590.17c50.98,104.49-123.9,210.42-227.65,219.83-103.76,9.43-227.02-24.53-227.02-24.53l13.89-33.92s207.87-27.12,213.13-30.93c5.26-3.79,208.98-168.71,227.65-130.45Z" style="fill:#6d96ce; fill-rule:evenodd;"/><path d="M1563.78,342.96c-14.08-5.88-29.95-12.17-25.04,11.76,2.13,10.42,0,7.48-3.74,17.1-3.74,9.61,9.43,17.17,13.7,22.51,4.28,5.34-6.22,11.15,2.33,17.56,8.55,6.41,19.82-2.37,27.79,0,23.79,7.09,20.84-11.61,34.21-15.5,13.36-3.89,19.91-3.29,22.44,5.26,2.53,8.55-9.35,36.69,.8,34.02,10.15-2.67,12.44,20.04,15.17,32.87,2.73,12.83,9.7-8.86,9.25-23.52-.69-22.5,4.9-31.95,13.19-38.25,8.29-6.29,11.82-63.53-28.26-65.68-40.08-2.14-40.33-6.01-57.43-9.62-17.1-3.61-17.97,14.17-24.39,11.49Z" style="fill:#172b57; fill-rule:evenodd;"/><path d="M1666.89,441.64c6.35,0,11.54-10.43,11.54-23.23s-5.18-23.23-11.54-23.23-11.52,10.43-11.52,23.23,5.18,23.23,11.52,23.23Z" style="fill:#f9af79; fill-rule:evenodd;"/><rect x="342.68" y="954.9" width="30.76" height="80.86" style="fill:#9c7357;"/><rect x="984.96" y="954.9" width="30.77" height="80.86" style="fill:#9c7357;"/><path d="M349.54,468.09h47.35v351.63h-47.35V468.09h0Zm615.55,0h47.35v351.63h-47.35V468.09Z" style="fill:#d0a382; fill-rule:evenodd;"/><path d="M196.7,468.09h968.58c4.98,0,9.06,3.99,9.06,8.87v72.91c0,4.88-4.08,8.87-9.06,8.87H196.7c-4.98,0-9.06-3.99-9.06-8.87v-72.91c0-4.88,4.08-8.87,9.06-8.87Z" style="fill:#9c7357; fill-rule:evenodd;"/><path d="M196.7,647.71h968.58c4.98,0,9.06,3.99,9.06,8.87v72.91c0,4.88-4.08,8.87-9.06,8.87H196.7c-4.98,0-9.06-3.99-9.06-8.87v-72.91c0-4.88,4.08-8.87,9.06-8.87Z" style="fill:#9c7357; fill-rule:evenodd;"/><path d="M215.67,819.72h930.65c4.78,0,6.01,4.9,8.71,8.87l49.48,72.91c2.68,3.93-4.01,8.87-8.71,8.87H166.21c-4.7,0-11.43-4.85-8.71-8.87l49.45-72.91c2.72-4.01,3.92-8.87,8.71-8.87Z" style="fill:#e5bb9a; fill-rule:evenodd;"/><path d="M1204.79,904.9v43.11c0,3.79-2.8,6.89-6.22,6.89H163.42c-3.42,0-6.22-3.1-6.22-6.89v-43.07c1.2,2.9,5.63,5.42,9.02,5.42H1195.79c3.38,0,7.8-2.56,9-5.46Z" style="fill:#9c7357; fill-rule:evenodd;"/><path d="M300.09,954.9h46.17v201.06h-46.17v-201.06h0Zm715.64,0h46.17v201.06h-46.17v-201.06Z" style="fill:#d0a382; fill-rule:evenodd;"/><path d="M612,705.05s61.25,69.95,73.78,68.81c12.82-1.16,20.63-5.2,31.78,0,8.01,3.74,33.32,24.1,26.52,22.75-6.78-1.35-19.09-2.92-22.34-3.23-4.47-.44-11.64-.53-16.52-1.37-3.08-.54-14.21-.85-17.91-.98-16.13-.53-92.37-45.07-92.37-45.07l17.06-40.91Z" style="fill:#f9af79; fill-rule:evenodd;"/><path d="M569.5,349.81s-2.77-35.14-53.31-26.01c-13.36,2.41-22.54-21.41-44.41-12.92-47.07,18.28-49.87-5.85-63.48,28.02-5.69,14.18-41.92,30.69-30.83,55.19,11.05,24.51-7.47,40.99,5.54,60.19,6.73,9.94,4,27.69,35.75,28.32,15.82,.32,40.45,29.64,58.21,34.94,17.74,5.32,71.05-2.35,69.04-26.69-1.58-19.01,20.58-17.42,34.2-39.27,11.88-19.09-9.34-23.9,2.01-54.76,8.33-22.62-13.35-28.13-12.7-47.01Z" style="fill:#20386f; fill-rule:evenodd;"/><path d="M847.32,1214.17c-1.08,11.76,15.27,14.61,34.24,15.55,18.94,.95,13.22,4.82,39.19,9.54,25.97,4.69,36.38-2.42,38.26-5.92,1.67-3.11-10.4-7.98-23.27-13.48-1.6-.69-3.23-1.4-4.86-2.1-14.49-6.37-22.61-19.36-33.89-31.41-10.7-11.4-20.86-47.92-20.86-47.92l-35.28-7.54s9.91,32.87,13.35,46.91c2.02,8.25-.96,17.48-3.62,24.51-1.43,3.81-2.86,7.72-3.25,11.87Z" style="fill:#f9af79; fill-rule:evenodd;"/><path d="M881.55,1229.71c18.94,.95,13.22,4.82,39.19,9.54,25.97,4.69,36.38-2.42,38.26-5.92,1.67-3.11-10.4-7.98-23.27-13.48l-.19,.22s-18.26,6.2-39.33,.46c-17.19-4.67-33.8-14.93-45.64-18.24-1.43,3.81-2.86,7.72-3.25,11.87-1.08,11.76,15.27,14.61,34.24,15.55Z" style="fill:#20386f; fill-rule:evenodd;"/><path d="M534.81,769.22s195.59,8.8,239.73,36.67c44.16,27.86,114.96,352.42,114.96,352.42,0,0-4.37,3.5-14.13,4.55-9.09,.99-29.07-4.34-29.07-4.34,0,0-101.76-145.23-108.93-181.81-7.16-36.59-5.41-69.24-21.73-70.1-16.32-.87-219.79,24.73-250.58-29.47-30.76-54.23,69.75-107.91,69.75-107.91Z" style="fill:#0e2952; fill-rule:evenodd;"/><path d="M766.64,1215.48c-1.09,11.76,15.28,14.62,34.22,15.55,18.96,.95,13.24,4.82,39.19,9.53,25.97,4.69,36.39-2.41,38.26-5.92,1.69-3.11-10.39-7.98-23.25-13.47-1.62-.69-3.25-1.4-4.88-2.11-14.47-6.37-22.61-19.36-33.9-31.4-10.69-11.4-20.84-47.92-20.84-47.92l-35.3-7.54s9.91,32.87,13.35,46.91c2.03,8.25-.96,17.48-3.62,24.51-1.42,3.8-2.86,7.73-3.24,11.86Z" style="fill:#f9af79; fill-rule:evenodd;"/><path d="M800.86,1231.04c18.96,.95,13.24,4.82,39.19,9.53,25.97,4.69,36.39-2.41,38.26-5.92,1.69-3.11-10.39-7.98-23.25-13.47l-.21,.21s-18.25,6.21-39.33,.48c-17.18-4.68-33.79-14.94-45.64-18.25-1.42,3.8-2.86,7.73-3.24,11.86-1.09,11.76,15.28,14.62,34.22,15.55Z" style="fill:#20386f; fill-rule:evenodd;"/><path d="M459,773.86s208.32,9.85,251.36,39.41c43.03,29.57,101.17,356.62,101.17,356.62,0,0-4.51,3.34-14.31,4.02-9.1,.62-28.87-5.49-28.87-5.49,0,0-96.04-149.07-101.78-185.91-5.74-36.82-2.72-69.38-18.99-70.89-16.27-1.51-220.59,16.15-249.21-39.22-28.66-55.38,60.63-98.56,60.63-98.56Z" style="fill:#20386f; fill-rule:evenodd;"/><path d="M396.65,507.68c.07-.11,.18-.21,.24-.32,1.68-1.87,3.65-3.57,5.82-5.1l.07-.05h.04c17.01-11.9,47.42-14.44,47.42-14.44v0s3.33-.31,8.59-.55c3.99-10.34,8.52-25.64,9.94-47.99l3.01,.82,50.69,13.59s-2.24,16.08-3.3,31.31c-.23,3.35-.41,6.63-.48,9.71,1.48,.53,33.01,4.97,39.86,12.33,6.87,7.4,20.57,56.48,24.02,65.18l-195.15,3.19s-4.91-51,9.23-67.69Z" style="fill:#f9af79; fill-rule:evenodd;"/><path d="M389.46,856.72c23.08,2.2,100.96-44.82,126.9-60.11,.47-.26,.9-.53,1.32-.77,10.81-6.35,26-9.34,40.46-11.74,18.41-3.01,35.59-5.05,41.11-11.63,6.54-7.83-12.72-16.52-28.2-25.54-7.79-4.54-14.64-9.18-16.77-13.82-1.66-3.63-1.53-11.61-.42-21.82h0c.18-1.93,.43-3.91,.71-5.96,1.25,2.61,2.83,5.32,4.65,8.03,4.54,6.8,10.53,13.68,16.53,19.34,7.35,6.96,14.66,12.16,19.22,13.25,3.06,.74,6.13,.35,9.17-.82,8.1-3.17,15.93-12.09,22.14-20.68,1.46-2.02,2.84-4.05,4.1-5.98,4.24-6.42,7.25-11.76,8.39-13.02,3.46-3.82-13.91-11.41-21.03-17.09-7.11-5.71-35.12-116.19-35.12-116.19-3.46-8.7-17.16-57.78-24.02-65.18,0,0-26.74,32.66-61.41,30.79-34.44-1.85-93.42-35.07-94.33-35.59-3.02,1.37-6.17,5.47-6.17,5.47-14.1,16.69-9.23,67.69-9.23,67.69,0,0,27.01,118.96,27.01,130.96,0,22.02-18.21,72.62-26.87,109.06-5.54,23.09-7.23,40.48,1.9,41.33Z" style="fill:#6d96ce; fill-rule:evenodd;"/><path d="M522.46,453.65s-2.25,16.08-3.3,31.31c-28.69-2.72-42.13-29.96-47.39-44.9l50.69,13.59Z" style="fill:#ed7d57; fill-rule:evenodd;"/><path d="M531.1,468.7s-68.08-3.41-65.31-45.77c2.78-42.37-4.13-71.34,39.45-70.96,43.6,.39,50.98,17.11,53.48,31.48,2.51,14.36-9.84,85.05-27.62,85.25Z" style="fill:#f9af79; fill-rule:evenodd;"/><path d="M533.98,367.06s-16.27-3.8-21.6,4.12c-5.32,7.91-1.51,12.35-13.39,15.67-11.87,3.32-15.91,3.09-14.72,11.4,1.19,8.3-11.93,14.48-12.49,21.12-.56,6.66-6.01,9.97-11.24,10.45-5.23,.48-2.85-85.7,17.34-89.5,20.16-3.8,39.64,.71,45.58,5.46,5.93,4.75,10.53,21.29,10.53,21.29Z" style="fill:#20386f; fill-rule:evenodd;"/><path d="M533.98,367.06s15.82-1.11,18.67,7.91c2.85,9.02-.95,11.16,3.09,16.62,4.04,5.46,1.7,15.15,1.7,15.15,0,0,31.29-57.64-1.7-61.44-33-3.8-32.13,2.93-21.76,21.76Z" style="fill:#20386f; fill-rule:evenodd;"/><path d="M554.66,691.76c4.52,13.59,12.59,28.53,21.06,40.94,7.35,6.96,14.66,12.16,19.22,13.25,3.06,.74,6.13,.35,9.17-.82,8.1-3.17,15.93-12.09,22.14-20.68,1.46-2.02,2.84-4.05,4.1-5.98-21.63-17.35-62.62-57.06-66.88-111.39-5.82-74.21-9.13,88.09-8.81,84.68Z" style="fill:#466fb5; fill-rule:evenodd;"/><path d="M604.11,745.13c-7.54-11.51-22.9-22.86-44.91-31.77,10.13,15.18,27.48,30.6,35.75,32.59,3.06,.74,6.13,.35,9.17-.82Z" style="fill:#529aaa; fill-rule:evenodd;"/><path d="M424.11,602.32s17.01,170.83,92.24,194.29c.47-.26,.9-.53,1.32-.77,10.81-6.35,26-9.34,40.46-11.74,18.41-3.01,35.59-5.05,41.11-11.63,6.54-7.83-12.72-16.52-28.2-25.54-7.79-4.54-14.64-9.18-16.77-13.82-1.66-3.63-1.53-11.61-.42-21.82h0c-73.01-27.01-129.73-108.98-129.73-108.98Z" style="fill:#466fb5; fill-rule:evenodd;"/><path d="M405,551.73c7.89-35.52,43.63-15.15,43.63-15.15,12.4-2.82,103.37,144.63,110.65,147.98,6.17,2.83,90-21.52,115.46-29.03,6.58-5.14,29.67-23.07,33.7-23.38,4.73-.35,36.28,7.75,36.09,12.77-.21,5-7.59,12.35-19.23,14.21-8.83,1.4-23.8,7.22-33.35,8.67h0s-92.53,63.04-131.93,70.72c-35.46,6.92-162.91-151.29-155.02-186.79Z" style="fill:#f9af79; fill-rule:evenodd;"/><path d="M614.72,672.24s21.32,54.8-4.23,75.64c-25.55,20.83-81.02,13.81-141.75-70.9-60.76-84.7-85.46-130.84-53.92-144.3,31.52-13.46,57.57,7.65,73.74,40.61,16.82,34.25,47.81,81.67,66.4,83.47,18.59,1.8,59.76,15.48,59.76,15.48Z" style="fill:#6d96ce; fill-rule:evenodd;"/></svg>