<?xml version="1.0" encoding="UTF-8"?><svg id="a" xmlns="http://www.w3.org/2000/svg" viewBox="0 0 2217.71 1490.08"><path d="M296.29,1374.09c153.48,0,277.9,17.69,277.9,39.5s-124.42,39.51-277.9,39.51-277.9-17.69-277.9-39.51,124.42-39.5,277.9-39.5Z" style="fill:#c4d1eb; fill-rule:evenodd;"/><path d="M1407.3,1420.49c135.17,0,244.76,15.58,244.76,34.8s-109.59,34.79-244.76,34.79-244.75-15.58-244.75-34.79,109.58-34.8,244.75-34.8Z" style="fill:#c4d1eb; fill-rule:evenodd;"/><path d="M1972.95,1382.3c135.17,0,244.76,15.58,244.76,34.8s-109.59,34.8-244.76,34.8-244.76-15.58-244.76-34.8,109.59-34.8,244.76-34.8Z" style="fill:#c4d1eb; fill-rule:evenodd;"/><path d="M879.78,133.58H480.65c2.86-12.13,13.75-21.15,26.75-21.15,.63,0,1.25,.02,1.87,.07,6.3-15.43,21.46-26.31,39.16-26.31,7.74,0,15,2.09,21.23,5.72,7.61-25.09,30.92-43.36,58.5-43.36,5.61,0,11.05,.77,16.21,2.19,13.35-29.48,43.03-49.98,77.49-49.98,40.88,0,75.02,28.85,83.17,67.3,.69-.02,1.38-.05,2.07-.05,26.19,0,47.8,19.58,50.99,44.9,10.68,2,19.2,10.17,21.67,20.67Z" style="fill:#e0e8f5; fill-rule:evenodd;"/><path d="M1839.82,197.76c-18.15,0-32.88-14.72-32.88-32.88s14.73-32.88,32.88-32.88,32.89,14.72,32.89,32.88-14.72,32.88-32.89,32.88h0ZM443.81,986.01h-175.66c-94.54,0-171.89,77.35-171.89,171.9h0c0,94.54,77.35,171.89,171.89,171.89H1753.47c153.09,0,278.33-125.26,278.33-278.34h0c0-153.09-125.24-278.34-278.33-278.35h0c-64.73,0-117.68-52.96-117.68-117.69h0c0-64.73,52.95-117.68,117.68-117.68h141.64c67.29,0,122.35-55.06,122.35-122.36h0c0-67.3-55.06-122.36-122.35-122.36h-179.12c-26.19,0-47.62-21.43-47.62-47.64h0c0-26.2,21.43-47.63,47.62-47.63h31.58c18.08,0,32.88-14.79,32.88-32.88h0c0-18.08-14.8-32.88-32.88-32.88h-207.18c-43.63,0-48.49,51.54-158.7,51.54h-255.56c-23.59,0-42.9,19.31-42.9,42.9h0c0,23.59,19.3,42.9,42.9,42.9h41.2c34.18,0,62.16,27.97,62.16,62.16h0c0,34.18-27.97,62.16-62.16,62.16h-124c-167.42,0-191.07,43.76-220.4,130.78-29.32,87.02-181.61,94.04-181.61,94.04h-208.23c-51.52,0-93.68,42.15-93.68,93.67h0c0,51.52,42.15,93.67,93.68,93.67h10.72c49.55,0,90.09,40.54,90.09,90.09h0c0,49.56-40.54,90.1-90.09,90.1h0Z" style="fill:#e0e8f5; fill-rule:evenodd;"/><path d="M0,876.95c30.68,225.96,212.58,345.59,449.88,253.33C399.7,888.89,225.18,790.05,0,876.95Z" style="fill:#9db2d9; fill-rule:evenodd;"/><path d="M19.38,895.44c-1.62-.9-2.21-2.94-1.31-4.55,.9-1.62,2.94-2.2,4.55-1.31l152.71,84.66,2.2-100.5c.04-1.86,1.58-3.32,3.42-3.28,1.85,.05,3.32,1.58,3.28,3.43l-2.28,104.02,42.41,23.52c1.04,.03,2.04,.55,2.67,1.48l32.52,18.03,19.43-110.97c.32-1.81,2.06-3.04,3.88-2.72,1.82,.32,3.04,2.06,2.72,3.88l-19.82,113.25,38.11,21.12c.13,.06,.25,.14,.38,.21l38.71,21.46,17.32-81.39c.39-1.81,2.16-2.95,3.97-2.57,1.81,.39,2.96,2.16,2.57,3.97l-17.74,83.37,102.43,56.79c1.62,.9,2.2,2.94,1.31,4.55-.9,1.62-2.94,2.2-4.55,1.31l-68.88-38.19-52.38,40.04c-1.47,1.13-3.57,.86-4.69-.61-1.12-1.47-.85-3.57,.62-4.69l50.07-38.27-70.16-38.89-87.97,74.35c-1.42,1.19-3.53,1.02-4.73-.4-1.2-1.42-1.02-3.53,.4-4.74l86.03-72.7-36.06-19.99-.14-.08-36.3-20.12-98.81,63.92c-1.55,1-3.63,.56-4.64-1-1-1.56-.56-3.63,1-4.64l95.8-61.97-40.35-22.38-.2-.11-43.14-23.92-78.12,38.54c-1.65,.82-3.67,.14-4.48-1.52-.82-1.65-.14-3.66,1.52-4.49l73.97-36.48-107.21-59.44Z" style="fill:#fff; fill-rule:evenodd;"/><path d="M2014.81,830.12c-30.68,225.95-212.58,345.59-449.88,253.33,50.18-241.4,224.7-340.23,449.88-253.33Z" style="fill:#b0c2e4; fill-rule:evenodd;"/><path d="M1995.43,848.61c1.62-.9,2.2-2.94,1.31-4.55-.9-1.62-2.93-2.21-4.56-1.31l-152.71,84.66-2.19-100.5c-.05-1.85-1.58-3.32-3.43-3.27-1.85,.03-3.32,1.57-3.27,3.42l2.27,104.02-42.41,23.51c-1.04,.04-2.04,.56-2.67,1.48l-32.52,18.04-19.43-110.97c-.31-1.81-2.05-3.03-3.87-2.72-1.82,.32-3.04,2.06-2.72,3.88l19.82,113.25-38.1,21.12c-.13,.07-.26,.13-.38,.21l-38.71,21.46-17.31-81.38c-.4-1.81-2.17-2.96-3.98-2.57-1.81,.38-2.96,2.16-2.57,3.97l17.74,83.37-102.43,56.79c-1.61,.9-2.2,2.94-1.31,4.55,.9,1.62,2.94,2.2,4.56,1.31l68.88-38.19,52.38,40.04c1.47,1.13,3.57,.85,4.69-.61,1.13-1.47,.85-3.57-.61-4.69l-50.07-38.27,70.16-38.9,87.98,74.35c1.41,1.2,3.53,1.02,4.73-.39,1.2-1.42,1.02-3.53-.39-4.73l-86.03-72.7,36.06-20,.15-.07,36.3-20.12,98.81,63.92c1.56,1.01,3.63,.57,4.64-.99,1-1.56,.56-3.63-1-4.64l-95.79-61.97,40.35-22.38,.2-.11,43.15-23.92,78.11,38.54c1.66,.82,3.66,.14,4.48-1.52,.82-1.65,.15-3.67-1.52-4.49l-73.97-36.48,107.21-59.44Z" style="fill:#fff; fill-rule:evenodd;"/><path d="M153.74,567.21c-97.52,206.12-10.29,405.61,238.93,457.7,89.59-229.71-2.8-407.73-238.93-457.7Z" style="fill:#b0c2e4; fill-rule:evenodd;"/><path d="M159.9,593.28c-.87-1.64-.25-3.66,1.39-4.52,1.63-.87,3.66-.25,4.53,1.39l81.83,154.25,56.65-83.04c1.04-1.53,3.13-1.92,4.66-.88,1.52,1.04,1.92,3.13,.87,4.65l-58.64,85.95,22.73,42.84c.85,.6,1.41,1.58,1.43,2.69l17.42,32.85,76.8-82.42c1.26-1.35,3.38-1.43,4.74-.17,1.35,1.27,1.43,3.39,.16,4.73l-78.38,84.11,20.42,38.5c.08,.12,.15,.24,.2,.38l20.74,39.1,58.89-58.77c1.31-1.31,3.43-1.3,4.73,0,1.3,1.31,1.3,3.43-.01,4.74l-60.34,60.21,54.89,103.46c.87,1.64,.25,3.66-1.39,4.52-1.64,.87-3.66,.25-4.53-1.39l-36.91-69.57-65.75,5c-1.84,.14-3.45-1.23-3.59-3.07-.15-1.85,1.23-3.46,3.07-3.6l62.85-4.78-37.6-70.86-114.29,14.33c-1.83,.23-3.52-1.07-3.75-2.91-.23-1.83,1.07-3.52,2.91-3.74l111.76-14.03-19.32-36.42-.08-.15-19.45-36.66-117.68-.31c-1.85,0-3.35-1.52-3.34-3.36,0-1.86,1.52-3.36,3.37-3.35l114.1,.3-21.63-40.76-.1-.21-23.12-43.57-86.5-10.31c-1.83-.21-3.15-1.88-2.93-3.71,.21-1.84,1.88-3.15,3.71-2.94l81.9,9.76-57.44-108.29Z" style="fill:#fff; fill-rule:evenodd;"/><path d="M1861.07,520.38c97.52,206.12,10.29,405.61-238.94,457.7-89.58-229.72,2.81-407.73,238.94-457.7Z" style="fill:#c4d1eb; fill-rule:evenodd;"/><path d="M1854.91,546.45c.87-1.64,.24-3.66-1.39-4.52-1.63-.87-3.66-.25-4.53,1.39l-81.82,154.25-56.66-83.05c-1.04-1.52-3.13-1.92-4.65-.87-1.52,1.04-1.92,3.13-.88,4.65l58.64,85.95-22.73,42.84c-.85,.6-1.4,1.58-1.43,2.69l-17.42,32.84-76.8-82.42c-1.27-1.36-3.39-1.43-4.74-.17-1.35,1.27-1.42,3.38-.16,4.73l78.38,84.11-20.42,38.49c-.07,.12-.14,.25-.2,.39l-20.75,39.1-58.89-58.77c-1.32-1.31-3.43-1.3-4.74,0-1.31,1.32-1.3,3.43,.02,4.74l60.33,60.21-54.89,103.46c-.86,1.64-.25,3.66,1.4,4.52,1.63,.87,3.66,.25,4.52-1.39l36.91-69.57,65.75,5c1.84,.14,3.45-1.23,3.6-3.08,.14-1.84-1.24-3.45-3.08-3.59l-62.84-4.78,37.6-70.86,114.28,14.33c1.84,.23,3.52-1.07,3.75-2.91,.23-1.84-1.07-3.52-2.91-3.74l-111.76-14.03,19.32-36.42,.08-.14,19.46-36.67,117.68-.31c1.85,0,3.35-1.51,3.35-3.36,0-1.86-1.52-3.36-3.37-3.35l-114.09,.3,21.62-40.76,.11-.21,23.12-43.57,86.49-10.3c1.84-.22,3.15-1.88,2.94-3.71-.21-1.84-1.88-3.15-3.71-2.94l-81.9,9.75,57.45-108.28Z" style="fill:#fff; fill-rule:evenodd;"/><path d="M478.62,428.85c-196.75,115.27-237.18,329.2-60.7,512.72,203.5-139.21,227.56-338.33,60.7-512.72Z" style="fill:#c4d1eb; fill-rule:evenodd;"/><path d="M469.01,453.85c.21-1.83,1.86-3.15,3.7-2.95,1.83,.2,3.16,1.86,2.96,3.7l-19.38,173.54,93.61-36.65c1.73-.67,3.67,.18,4.34,1.9,.67,1.72-.18,3.66-1.9,4.34l-96.89,37.93-5.38,48.19c.37,.98,.27,2.11-.33,3.03l-4.13,36.95,109.9-24.77c1.81-.4,3.6,.73,4,2.53,.4,1.8-.73,3.59-2.53,4l-112.16,25.28-4.84,43.31c0,.15-.02,.29-.05,.44l-4.91,43.98,81.78-15.33c1.82-.35,3.57,.85,3.9,2.67,.34,1.81-.86,3.57-2.68,3.9l-83.78,15.71-13,116.39c-.21,1.84-1.86,3.16-3.7,2.96-1.84-.21-3.17-1.86-2.96-3.7l8.74-78.27-57.12-32.94c-1.6-.92-2.15-2.97-1.23-4.57,.92-1.6,2.97-2.16,4.57-1.24l54.6,31.49,8.91-79.73-102.48-52.59c-1.65-.85-2.3-2.87-1.46-4.52,.85-1.65,2.87-2.3,4.52-1.46l100.21,51.43,4.57-40.97,.02-.17,4.61-41.25-97.02-66.6c-1.52-1.05-1.91-3.13-.87-4.66,1.05-1.52,3.14-1.91,4.67-.86l94.07,64.57,5.12-45.85,.03-.23,5.48-49.02-65.63-57.28c-1.39-1.21-1.54-3.32-.33-4.72,1.21-1.4,3.33-1.54,4.72-.33l62.15,54.23,13.6-121.82Z" style="fill:#fff; fill-rule:evenodd;"/><path d="M504.17,1135.9v195.16h-127.49v-505.05h288v112.9h-160.51v85.91h149.57v111.08h-149.57Zm502.52-43.86c24.28,21.75,36.57,54.55,44.27,87.06,6.18,26.1,12.12,52.3,18.75,78.3,3.28,12.87,8.3,34.68,14.32,46.3l14.16,27.37h-134.83l-5.18-10.37c-6.16-12.33-10.68-29.38-14.24-42.7-6.41-23.96-11.74-48.36-16.56-72.7-3.43-17.34-10.07-47.36-26.36-57.7-8.24-5.24-19.29-6.23-28.81-6.23h-11.64v189.69h-126.88v-495.95l15.5-2.73c40.06-7.07,83-10.01,123.64-10.01s80.49,3.65,116.61,19.91c55.22,24.84,80.28,71.72,80.28,131.39,0,48.82-24.07,92.2-63.01,118.38h0Zm258.27,126.13h171.45v112.89h-298.95v-505.05h289.22v112.9h-161.73v75.58h152.6v111.07h-152.6v92.61h0Zm361.24,0h171.46v112.89h-298.95v-505.05h289.21v112.9h-161.73v75.58h152.61v111.07h-152.61v92.61h0Zm-765.65-288.99v107.8h18.33c35.83,0,63.33-17.4,63.33-55.42s-22.92-53-59.07-53c-5.35,0-14.47,0-22.59,.61Z" style="fill:#9db2d9; fill-rule:evenodd;"/><path d="M489.93,1144.58v195.16h-127.49v-505.05h288.01v112.9h-160.51v85.91h149.57v111.08h-149.57Zm502.52-43.86c24.28,21.75,36.57,54.54,44.27,87.06,6.18,26.1,12.12,52.3,18.75,78.3,3.28,12.86,8.3,34.68,14.32,46.3l14.16,27.37h-134.83l-5.18-10.36c-6.16-12.33-10.68-29.38-14.25-42.7-6.41-23.96-11.74-48.36-16.56-72.7-3.43-17.34-10.07-47.36-26.36-57.71-8.24-5.24-19.29-6.22-28.81-6.22h-11.64v189.69h-126.88v-495.95l15.5-2.73c40.06-7.07,83-10.01,123.64-10.01s80.49,3.65,116.62,19.91c55.22,24.85,80.28,71.72,80.28,131.39,0,48.82-24.07,92.2-63.01,118.38h0Zm258.27,126.13h171.45v112.89h-298.95v-505.05h289.22v112.9h-161.73v75.58h152.61v111.07h-152.61v92.61h0Zm361.25,0h171.45v112.89h-298.95v-505.05h289.22v112.9h-161.73v75.58h152.61v111.07h-152.61v92.61h0Zm-765.66-288.99v107.8h18.33c35.83,0,63.32-17.39,63.32-55.41s-22.91-52.99-59.07-52.99c-5.36,0-14.47-.02-22.59,.61Z" style="fill:#9db2d9; fill-rule:evenodd;"/><path d="M485.41,1117.14h149.57v-73.56h-149.57v-123.42h160.51v-75.39h-250.5v467.55h89.99v-195.17h0Zm267.01,195.17h89.38v-189.69h30.4c42.56,0,61.41,18.85,73.57,79.04,10.95,56.54,22.5,97.28,29.18,110.65h92.41c-9.12-17.63-21.28-73.56-34.65-128.89-10.95-47.43-29.19-79.04-62.02-91.81v-1.82c43.77-17.03,80.25-58.98,80.25-116.13,0-125.25-119.16-132.54-178.14-132.54-45.6,0-89.38,4.25-120.38,9.73v461.46h0Zm89.38-398.84c7.3-2.44,21.28-3.65,41.34-3.65,32.83,0,77.82,11.55,77.82,71.75,0,44.38-31.01,74.18-82.08,74.18h-37.09v-142.27h0Zm404.41,323.45v-130.12h152.6v-73.56h-152.6v-113.09h161.73v-75.39h-251.71v467.55h261.44v-75.39h-171.45Zm361.25,0v-130.12h152.6v-73.56h-152.6v-113.09h161.73v-75.39h-251.71v467.55h261.44v-75.39h-171.45Z" style="fill:#fff; fill-rule:evenodd;"/><path d="M922.31,286c-18.36,24.04-52.75,28.66-76.8,10.3-24.04-18.37-28.65-52.76-10.29-76.8,48.76-63.47,111.74-115.48,184.16-151.19,69.93-34.49,148.45-53.88,231.22-53.88s161.29,19.39,231.22,53.88c72.42,35.72,135.41,87.72,184.17,151.19,18.36,24.04,13.75,58.43-10.29,76.8-24.04,18.36-58.43,13.74-76.8-10.3-38.52-50.16-88.3-91.24-145.54-119.47-54.87-27.08-116.93-42.29-182.75-42.29s-127.88,15.21-182.75,42.29c-57.24,28.22-107.02,69.31-145.54,119.47h0Zm328.29,174.24c51.01,0,92.38,41.38,92.38,92.39s-41.37,92.39-92.38,92.39-92.39-41.38-92.39-92.39,41.38-92.39,92.39-92.39h0Zm-167.37-21.88c17.32-28.99,41.98-53.16,71.36-69.84,28.13-15.97,60.89-25.11,96-25.11s67.88,9.14,96,25.11c29.38,16.69,54.04,40.86,71.36,69.84,15.5,25.92,49.14,34.38,75.07,18.87,25.93-15.5,34.38-49.13,18.87-75.06-26.99-45.19-65.43-82.84-111.24-108.88-44.47-25.26-95.71-39.69-150.06-39.69s-105.59,14.44-150.06,39.69c-45.81,26.04-84.25,63.69-111.24,108.88-15.51,25.93-7.06,59.56,18.87,75.06,25.93,15.51,59.56,7.06,75.07-18.87Z" style="fill:#b0c2e4; fill-rule:evenodd;"/><path d="M401.63,0H229.66c-16.58,0-30.12,13.54-30.12,30.12v51.98h0c-2.74,0-4.99,2.24-4.99,4.99v42.3c0,2.75,2.25,4.99,4.99,4.99h0V402.83c0,16.58,13.54,30.11,30.12,30.11h171.97c16.58,0,30.11-13.54,30.11-30.11V175.2c.14,0,.28,.02,.42,.02h0c2.75,0,4.99-2.24,4.99-4.99v-42.3c0-2.75-2.24-4.99-4.99-4.99h0c-.14,0-.28,0-.42,.02v-14.39c.14,0,.28,.02,.42,.02h0c2.75,0,4.99-2.24,4.99-4.99V61.28c0-2.74-2.24-4.99-4.99-4.99h0c-.14,0-.28,0-.42,.02V30.12c0-16.58-13.54-30.12-30.11-30.12Z" style="fill:#9db2d9; fill-rule:evenodd;"/><path d="M229.66,8.03h171.97c12.19,0,22.08,9.9,22.08,22.08V402.82c0,12.19-9.9,22.08-22.08,22.08H229.65c-12.19,0-22.08-9.89-22.08-22.08V30.12c0-12.19,9.9-22.09,22.09-22.09Z" style="fill:#fff;"/><path d="M401.63,17.09H229.66c-7.16,0-13.03,5.86-13.03,13.03V402.82c0,7.17,5.86,13.03,13.03,13.03h171.97c7.16,0,13.02-5.86,13.02-13.03V30.12c0-7.16-5.86-13.03-13.02-13.03Z" style="fill:#c4d1eb; fill-rule:evenodd;"/><path d="M1978.37,49.99h-139.23c-13.42,0-24.38,10.96-24.38,24.38v42.08h0c-2.23,0-4.04,1.82-4.04,4.04v34.25c0,2.23,1.82,4.04,4.04,4.04h0v217.34c0,13.42,10.96,24.38,24.38,24.38h139.23c13.42,0,24.38-10.95,24.38-24.38V191.83c.11,0,.23,.02,.35,.02h0c2.23,0,4.03-1.82,4.03-4.04v-34.25c0-2.23-1.81-4.04-4.03-4.04h0c-.12,0-.23,0-.35,0v-11.65c.11,0,.23,.02,.35,.02h0c2.23,0,4.03-1.82,4.03-4.05v-34.24c0-2.23-1.81-4.05-4.03-4.05h0c-.12,0-.23,0-.35,.02v-21.21c0-13.42-10.96-24.38-24.38-24.38Z" style="fill:#9db2d9; fill-rule:evenodd;"/><path d="M1978.37,56.49h-139.23c-9.83,0-17.88,8.05-17.88,17.88V376.12c0,9.84,8.05,17.88,17.88,17.88h139.23c9.83,0,17.87-8.04,17.87-17.88V74.37c0-9.83-8.04-17.88-17.87-17.88Z" style="fill:#fff; fill-rule:evenodd;"/><path d="M1978.37,63.83h-139.23c-5.8,0-10.54,4.74-10.54,10.54V376.12c0,5.81,4.74,10.55,10.54,10.55h139.23c5.8,0,10.55-4.74,10.55-10.55V74.37c0-5.8-4.75-10.54-10.55-10.54Z" style="fill:#c4d1eb; fill-rule:evenodd;"/><path d="M1160.49,576.49c1.68,0,3.04-1.23,3.29-2.77,.36-2.11-1.26-3.91-3.29-3.91h-6.69c-1.68,0-3.04,1.23-3.3,2.77-.35,2.11,1.28,3.92,3.3,3.92h6.69Zm751.6-171.54c0-1.68-1.23-3.04-2.77-3.3-2.11-.35-3.92,1.27-3.92,3.3v6.69c0,1.68,1.24,3.03,2.77,3.29,2.11,.36,3.92-1.27,3.92-3.29v-6.69h0Zm0,26.76c0-1.69-1.23-3.04-2.77-3.3-2.11-.35-3.92,1.27-3.92,3.3v6.69c0,1.68,1.24,3.03,2.77,3.29,2.11,.36,3.92-1.27,3.92-3.29v-6.69h0Zm0,26.75c0-1.68-1.23-3.03-2.77-3.29-2.11-.35-3.92,1.27-3.92,3.29v6.69c0,1.69,1.24,3.04,2.77,3.3,2.11,.35,3.92-1.27,3.92-3.3v-6.69h0Zm0,26.76c0-1.68-1.23-3.03-2.77-3.29-2.11-.35-3.92,1.26-3.92,3.29v6.69c0,1.68,1.24,3.03,2.77,3.29,2.11,.35,3.92-1.27,3.92-3.29v-6.69h0Zm0,26.76c0-1.68-1.23-3.04-2.77-3.29-2.11-.35-3.92,1.26-3.92,3.29v6.69c0,1.68,1.24,3.03,2.77,3.29,2.11,.35,3.92-1.26,3.92-3.29v-6.69h0Zm0,26.75c0-1.68-1.23-3.03-2.77-3.29-1.61-.27-3.04,.6-3.63,1.94h-1.65c-1.68,0-3.03,1.23-3.29,2.77-.36,2.11,1.27,3.91,3.29,3.91h4.7c1.69,0,3.04-1.23,3.3-2.77l.05-.57v-2h0Zm-28.11,5.34c1.68,0,3.04-1.23,3.3-2.77,.35-2.11-1.27-3.92-3.3-3.92h-6.69c-1.68,0-3.03,1.23-3.29,2.77-.35,2.11,1.26,3.91,3.29,3.91h6.69Zm-26.76,0c1.68,0,3.03-1.23,3.29-2.77,.36-2.11-1.26-3.92-3.29-3.92h-6.69c-1.69,0-3.04,1.23-3.3,2.77-.35,2.11,1.27,3.91,3.3,3.91h6.69Zm-26.75,0c1.68,0,3.03-1.23,3.29-2.77,.35-2.11-1.27-3.92-3.29-3.92h-6.69c-1.68,0-3.03,1.23-3.29,2.77-.36,2.11,1.26,3.91,3.29,3.91h6.69Zm-26.76,0c1.69,0,3.04-1.23,3.3-2.77,.35-2.11-1.27-3.92-3.3-3.92h-6.68c-1.69,0-3.04,1.23-3.3,2.77-.35,2.11,1.27,3.91,3.3,3.91h6.68Zm-26.75,0c1.68,0,3.03-1.23,3.29-2.77,.36-2.11-1.26-3.92-3.29-3.92h-6.7c-1.68,0-3.03,1.23-3.29,2.77-.35,2.11,1.27,3.91,3.29,3.91h6.7Zm-26.76,0c1.68,0,3.04-1.23,3.3-2.77,.35-2.11-1.27-3.92-3.3-3.92h-6.69c-1.68,0-3.04,1.23-3.3,2.77-.35,2.11,1.27,3.91,3.3,3.91h6.69Zm-26.75,0c1.68,0,3.03-1.23,3.29-2.77,.35-2.11-1.26-3.92-3.29-3.92h-6.69c-1.68,0-3.04,1.23-3.3,2.77-.35,2.11,1.27,3.91,3.3,3.91h6.69Zm-26.75,0c1.69,0,3.04-1.23,3.3-2.77,.35-2.11-1.27-3.92-3.3-3.92h-6.69c-1.68,0-3.03,1.23-3.29,2.77-.35,2.11,1.26,3.91,3.29,3.91h6.69Zm-26.76,0c1.68,0,3.04-1.23,3.3-2.77,.35-2.11-1.27-3.92-3.3-3.92h-6.69c-1.68,0-3.03,1.23-3.29,2.77-.35,2.11,1.27,3.91,3.29,3.91h6.69Zm-26.75,0c1.68,0,3.03-1.23,3.29-2.77,.35-2.11-1.26-3.92-3.29-3.92h-6.7c-1.68,0-3.03,1.23-3.29,2.77-.35,2.11,1.26,3.91,3.29,3.91h6.7Zm-26.76,0c1.68,0,3.03-1.23,3.29-2.77,.35-2.11-1.27-3.92-3.29-3.92h-6.69c-1.68,0-3.04,1.23-3.29,2.77-.35,2.11,1.26,3.91,3.29,3.91h6.69Zm-26.75,0c1.68,0,3.03-1.23,3.29-2.77,.35-2.11-1.26-3.92-3.29-3.92h-6.69c-1.69,0-3.04,1.23-3.3,2.77-.35,2.11,1.27,3.91,3.3,3.91h6.69Zm-26.75,0c1.68,0,3.03-1.23,3.29-2.77,.35-2.11-1.27-3.92-3.29-3.92h-6.7c-1.68,0-3.03,1.23-3.29,2.77-.35,2.11,1.26,3.91,3.29,3.91h6.7Zm-26.76,0c1.68,0,3.04-1.23,3.3-2.77,.35-2.11-1.27-3.92-3.3-3.92h-6.68c-1.68,0-3.04,1.23-3.29,2.77-.36,2.11,1.26,3.91,3.29,3.91h6.68Zm-26.75,0c1.68,0,3.03-1.23,3.29-2.77,.35-2.11-1.26-3.92-3.29-3.92h-6.69c-1.69,0-3.04,1.23-3.3,2.77-.35,2.11,1.27,3.91,3.3,3.91h6.69Zm-26.76,0c1.69,0,3.04-1.23,3.3-2.77,.35-2.11-1.27-3.92-3.3-3.92h-6.69c-1.68,0-3.03,1.23-3.29,2.77-.36,2.11,1.26,3.91,3.29,3.91h6.69Zm-26.75,0c1.68,0,3.04-1.23,3.3-2.77,.35-2.11-1.27-3.92-3.3-3.92h-6.69c-1.68,0-3.04,1.23-3.3,2.77-.35,2.11,1.27,3.91,3.3,3.91h6.69Zm-26.75,0c1.68,0,3.03-1.23,3.29-2.77,.36-2.11-1.27-3.92-3.29-3.92h-6.69c-1.68,0-3.03,1.23-3.29,2.77-.36,2.11,1.26,3.91,3.29,3.91h6.69Zm-26.76,0c1.68,0,3.04-1.23,3.3-2.77,.35-2.11-1.27-3.92-3.3-3.92h-6.68c-1.68,0-3.04,1.23-3.3,2.77-.35,2.11,1.27,3.91,3.3,3.91h6.68Zm-26.75,0c1.68,0,3.03-1.23,3.29-2.77,.36-2.11-1.26-3.92-3.29-3.92h-6.69c-1.68,0-3.03,1.23-3.29,2.77-.36,2.11,1.27,3.91,3.29,3.91h6.69Zm-26.75,0c1.68,0,3.04-1.23,3.3-2.77,.35-2.11-1.27-3.92-3.3-3.92h-6.69c-1.68,0-3.03,1.23-3.29,2.77-.36,2.11,1.26,3.91,3.29,3.91h6.69ZM318.98,448.17c0-1.68-1.23-3.04-2.77-3.3-2.1-.35-3.91,1.27-3.91,3.3v6.69c0,1.68,1.23,3.03,2.77,3.29,2.1,.36,3.91-1.26,3.91-3.29v-6.69h0Zm0,26.76c0-1.68-1.23-3.04-2.77-3.3-2.1-.35-3.91,1.27-3.91,3.3v6.69c0,1.68,1.23,3.03,2.77,3.29,2.1,.35,3.91-1.27,3.91-3.29v-6.69h0Zm0,26.75c0-1.68-1.23-3.03-2.77-3.29-2.1-.35-3.91,1.27-3.91,3.29v6.69c0,1.68,1.23,3.03,2.77,3.29,2.1,.35,3.91-1.27,3.91-3.29v-6.69h0Zm0,26.76c0-1.68-1.23-3.03-2.77-3.29-2.1-.35-3.91,1.27-3.91,3.29v6.69c0,1.68,1.23,3.03,2.77,3.29,2.1,.36,3.91-1.26,3.91-3.29v-6.69h0Zm0,26.76c0-1.68-1.23-3.04-2.77-3.3-2.1-.35-3.91,1.27-3.91,3.3v6.69c0,1.68,1.23,3.03,2.77,3.29,2.1,.35,3.91-1.26,3.91-3.29v-6.69h0Zm5.46,14.62c-1.68,0-3.04,1.23-3.29,2.77-.35,2.11,1.27,3.92,3.29,3.92h6.69c1.68,0,3.04-1.23,3.29-2.77,.35-2.11-1.26-3.91-3.29-3.91h-6.69Zm26.76,0c-1.68,0-3.04,1.23-3.29,2.77-.35,2.11,1.27,3.92,3.29,3.92h6.69c1.68,0,3.04-1.23,3.29-2.77,.35-2.11-1.27-3.91-3.29-3.91h-6.69Zm26.75,0c-1.68,0-3.04,1.23-3.29,2.77-.35,2.11,1.27,3.92,3.29,3.92h6.69c1.68,0,3.04-1.23,3.29-2.77,.35-2.11-1.26-3.91-3.29-3.91h-6.69Zm26.76,0c-1.68,0-3.04,1.23-3.3,2.77-.35,2.11,1.27,3.92,3.3,3.92h6.69c1.68,0,3.04-1.23,3.3-2.77,.35-2.11-1.26-3.91-3.3-3.91h-6.69Zm26.76,0c-1.68,0-3.04,1.23-3.29,2.77-.35,2.11,1.26,3.92,3.29,3.92h6.69c1.68,0,3.04-1.23,3.29-2.77,.35-2.11-1.26-3.91-3.29-3.91h-6.69Zm26.75,0c-1.68,0-3.04,1.23-3.29,2.77-.35,2.11,1.26,3.92,3.29,3.92h6.69c1.68,0,3.03-1.23,3.29-2.77,.35-2.11-1.26-3.91-3.29-3.91h-6.69Zm26.76,0c-1.68,0-3.04,1.23-3.29,2.77-.35,2.11,1.26,3.92,3.29,3.92h6.69c1.68,0,3.04-1.23,3.29-2.77,.35-2.11-1.26-3.91-3.29-3.91h-6.69Zm26.75,0c-1.68,0-3.04,1.23-3.29,2.77-.36,2.11,1.26,3.92,3.29,3.92h6.69c1.68,0,3.04-1.23,3.29-2.77,.35-2.11-1.27-3.91-3.29-3.91h-6.69Zm26.76,0c-1.68,0-3.04,1.23-3.29,2.77-.35,2.11,1.27,3.92,3.29,3.92h6.69c1.68,0,3.04-1.23,3.29-2.77,.35-2.11-1.27-3.91-3.29-3.91h-6.69Zm26.76,0c-1.68,0-3.04,1.23-3.29,2.77-.35,2.11,1.27,3.92,3.29,3.92h6.69c1.68,0,3.04-1.23,3.29-2.77,.35-2.11-1.27-3.91-3.29-3.91h-6.69Zm26.76,0c-1.68,0-3.04,1.23-3.29,2.77-.35,2.11,1.26,3.92,3.29,3.92h6.69c1.68,0,3.04-1.23,3.29-2.77,.35-2.11-1.27-3.91-3.29-3.91h-6.69Zm26.75,0c-1.68,0-3.04,1.23-3.29,2.77-.35,2.11,1.27,3.92,3.29,3.92h6.69c1.68,0,3.03-1.23,3.29-2.77,.35-2.11-1.26-3.91-3.29-3.91h-6.69Zm26.76,0c-1.68,0-3.04,1.23-3.29,2.77-.35,2.11,1.26,3.92,3.29,3.92h6.69c1.68,0,3.04-1.23,3.29-2.77,.35-2.11-1.26-3.91-3.29-3.91h-6.69Zm26.76,0c-1.68,0-3.04,1.23-3.3,2.77-.35,2.11,1.26,3.92,3.3,3.92h6.69c1.68,0,3.03-1.23,3.29-2.77,.35-2.11-1.26-3.91-3.29-3.91h-6.69Zm26.75,0c-1.68,0-3.04,1.23-3.29,2.77-.35,2.11,1.27,3.92,3.29,3.92h6.69c1.68,0,3.04-1.23,3.3-2.77,.35-2.11-1.26-3.91-3.3-3.91h-6.69Zm26.75,0c-1.68,0-3.03,1.23-3.29,2.77-.35,2.11,1.26,3.92,3.29,3.92h6.69c1.68,0,3.04-1.23,3.29-2.77,.35-2.11-1.27-3.91-3.29-3.91h-6.69Zm26.76,0c-1.68,0-3.04,1.23-3.3,2.77-.35,2.11,1.27,3.92,3.3,3.92h6.69c1.68,0,3.04-1.23,3.29-2.77,.35-2.11-1.27-3.91-3.29-3.91h-6.69Zm26.76,0c-1.68,0-3.04,1.23-3.29,2.77-.35,2.11,1.27,3.92,3.29,3.92h6.69c1.68,0,3.04-1.23,3.29-2.77,.35-2.11-1.26-3.91-3.29-3.91h-6.69Zm26.76,0c-1.68,0-3.04,1.23-3.29,2.77-.35,2.11,1.26,3.92,3.29,3.92h6.69c1.68,0,3.04-1.23,3.29-2.77,.35-2.11-1.27-3.91-3.29-3.91h-6.69Zm26.75,0c-1.68,0-3.03,1.23-3.29,2.77-.35,2.11,1.26,3.92,3.29,3.92h6.69c1.68,0,3.04-1.23,3.29-2.77,.35-2.11-1.26-3.91-3.29-3.91h-6.69Zm26.76,0c-1.68,0-3.04,1.23-3.29,2.77-.35,2.11,1.26,3.92,3.29,3.92h6.69c1.68,0,3.04-1.23,3.3-2.77,.35-2.11-1.26-3.91-3.3-3.91h-6.69Zm26.75,0c-1.68,0-3.03,1.23-3.29,2.77-.35,2.11,1.26,3.92,3.29,3.92h6.69c1.68,0,3.04-1.23,3.29-2.77,.35-2.11-1.26-3.91-3.29-3.91h-6.69Zm26.76,0c-1.68,0-3.04,1.23-3.29,2.77-.35,2.11,1.26,3.92,3.29,3.92h6.69c1.68,0,3.04-1.23,3.29-2.77,.35-2.11-1.26-3.91-3.29-3.91h-6.69Zm26.75,0c-1.68,0-3.04,1.23-3.3,2.77-.35,2.11,1.27,3.92,3.3,3.92h6.69c1.68,0,3.04-1.23,3.29-2.77,.35-2.11-1.26-3.91-3.29-3.91h-6.69Zm26.76,0c-1.68,0-3.04,1.23-3.29,2.77-.35,2.11,1.27,3.92,3.29,3.92h6.69c1.68,0,3.04-1.23,3.3-2.77,.35-2.11-1.26-3.91-3.3-3.91h-6.69Zm26.76,0c-1.68,0-3.04,1.23-3.29,2.77-.35,2.11,1.26,3.92,3.29,3.92h6.68c1.68,0,3.04-1.23,3.29-2.77,.35-2.11-1.26-3.91-3.29-3.91h-6.68Zm26.75,0c-1.68,0-3.04,1.23-3.3,2.77-.35,2.11,1.26,3.92,3.3,3.92h6.69c1.68,0,3.04-1.23,3.29-2.77,.35-2.11-1.26-3.91-3.29-3.91h-6.69Zm26.76,0c-1.68,0-3.04,1.23-3.29,2.77-.35,2.11,1.26,3.92,3.29,3.92h6.69c1.68,0,3.04-1.23,3.3-2.77,.35-2.11-1.27-3.91-3.3-3.91h-6.69Zm26.75,0c-1.68,0-3.04,1.23-3.3,2.77-.35,2.11,1.27,3.92,3.3,3.92h6.69c1.68,0,3.04-1.23,3.29-2.77,.35-2.11-1.27-3.91-3.29-3.91h-6.69Zm26.76,0c-1.68,0-3.04,1.23-3.3,2.77-.35,2.11,1.27,3.92,3.3,3.92h6.69c1.68,0,3.04-1.23,3.29-2.77,.35-2.11-1.27-3.91-3.29-3.91h-6.69Zm26.75,0c-1.68,0-3.03,1.23-3.29,2.77-.35,2.11,1.26,3.92,3.29,3.92h6.7c1.68,0,3.03-1.23,3.29-2.77,.35-2.11-1.27-3.91-3.29-3.91h-6.7Z" style="fill:#9db2d9; fill-rule:evenodd;"/><path d="M108.55,1421.2c-15.04-5.29-16.25-13.05-24.36-16.83-8.16-3.81-9.1-10.61-1.12-17.98,5.9,4.71,13.21,10.5,17.09,7.44,2.59-2.05,11.36-1.92,13.1,1.06,7.65,17.77,18.27,12.14,20.37,20.22,.25,10.77-18.17,8.53-25.08,6.09Z" style="fill:#0e2952; fill-rule:evenodd;"/><path d="M237.76,1421.74c-27.78-.44-48.53-.77-58.12-3.81-10.35-3.27-8.21-9.57-2.27-19.67,26.18,12.04,19.2-2.48,31.45-.63,8.6,6.92,21.34,11.57,38.22,13.93,7.13,5.26,4.23,9.95-9.28,10.18Z" style="fill:#0e2952; fill-rule:evenodd;"/><path d="M141.78,747.72c4.44,.31,11.43-.53,12.67-2.1,4.72-5.99,7.99-12.24,9.2-16.18-.92-2.62-1.88-5.94-2.89-9.94-17.09-11.61-19.43-20.2-7.01-25.76,2.5,1.4,5.61,5.72,9.32,12.96,2.96-.11,5.21-1.63,6.74-4.54-3.53-12.22-5.82-22.15-6.89-29.77,8.42-12.52,28.12-14.31,54.19-10.93,1.21,6.94,2.21,14.29,2.98,22.06,4.61,4.24,4.02,19.99-.23,38.14,2.12,10.32-4.25,15.95-19.12,16.9-.21,3.66,.13,8.16,.36,8.66,.37,.8,1.7,1.56,3.52,2.21h0c.5,17.04-20.45,16.47-62.85-1.69Z" style="fill:#f9af79; fill-rule:evenodd;"/><path d="M217.12,661.46c-26.08-3.38-45.78-1.59-54.2,10.93,1.07,7.62,3.36,17.55,6.89,29.77-1.53,2.91-3.78,4.43-6.74,4.54-3.71-7.24-6.82-11.56-9.32-12.96-12.42,5.57-10.08,14.16,7.01,25.76,1,4,1.97,7.32,2.89,9.94-15.37-3.45-28.24-17.21-30.05-23.15-17.93-35.35,2.07-50.28,12.77-55.72,4.72-35.01,55.56-4.07,81.03-20.94,10.12,13.98-2.4,31.51-10.28,31.83Z" style="fill:#20386f; fill-rule:evenodd;"/><path d="M373.61,809.73c-12.91,55.25-35.57,98.13-68,128.65-11.69-3.56-22.06-11.54-31.11-23.97,.48,39.97-.52,79.75-2.99,119.34-23.67,11.22-55.1,10.5-94.28-2.17l-15.89-19.58c-4.08-.79-13.35,3.72-17.8,10.59-37.21-28.4-62.31-58.92-77.11-89.24,4-65.15,12.85-116.56,26.55-154.21,6.92-10.65,23.19-21.12,48.81-31.41,42.4,18.17,63.35,18.73,62.85,1.69,12.47,4.1,29.01,11.34,49.63,21.73,17.19,13.05,31.83,48.44,43.92,106.17,19.67-24.65,40.08-50.78,61.22-78.4,4.71,1.33,9.44,4.94,14.21,10.82h0Zm-220.84,184.6c12.34-40.56,5.53-90.61-20.43-150.14-6.53,29.38-13.6,58.29-21.18,86.73,8.81,4.19,22.68,25.33,41.61,63.42Z" style="fill:#6d96ce; fill-rule:evenodd;"/><path d="M148.15,1047.2c6.01-.47,15.7-5.68,29.07-15.63,39.18,12.67,70.61,13.39,94.28,2.17,4.21,66.64-12.17,136.51-32.95,214.38-20.35,34.19-19.49,58.22-30.34,137.1-6.03,4.3-15.98,3.68-29.86-1.87-4.41-67.26-1.36-111.78,16.09-136.88-2.73-22.55,4.41-77.98,4.75-112.78-12.7,28.3-21.42,66.54-37.96,105.15-20.15,47.02-34.17,97.33-44.8,143.24-11.24,2.18-21.77,.89-31.61-3.86,11.28-75.44,23.79-127.36,37.52-155.76-.52-74.18,6.54-140.79,21.19-199.86,2.73,6.97,4.27,15.18,4.62,24.62Z" style="fill:#20386f; fill-rule:evenodd;"/><path d="M177.23,1031.57c-13.37,9.95-23.06,15.16-29.07,15.63-.35-9.44-1.9-17.65-4.62-24.62,4.45-6.87,13.72-11.38,17.8-10.59l15.89,19.58Z" style="fill:#f9af79; fill-rule:evenodd;"/><path d="M274.5,914.4c-1.29-38.81-4.41-70.63-9.34-95.46,12.55,52.72,24.72,87.7,36.5,104.96,7.44-.23,16.87-4.65,28.29-13.24-7.39,10.16-15.51,19.39-24.34,27.71-11.69-3.56-22.06-11.54-31.11-23.97Z" style="fill:#466fb5; fill-rule:evenodd;"/><path d="M161.33,1011.99c-2.28-5.65-5.13-11.53-8.57-17.67,12.34-40.56,5.53-90.61-20.43-150.14,37.75,53.67,48.46,110.89,32.12,171.66l-3.12-3.85Z" style="fill:#466fb5; fill-rule:evenodd;"/><path d="M183.6,734.95c4.17,2.06,9.88,3.26,17.14,3.6-.14,2.46-.04,5.28,.12,7.03-7.3-1.4-13.05-4.94-17.26-10.63Z" style="fill:#ed7d57; fill-rule:evenodd;"/><path d="M180,1399.43c1.4-4.59,1.92-9.54,1.58-14.85,10.59,3.82,18.68,4.48,24.25,2-.29,3.93,.16,7.57,1.35,10.9-9.64-.34-5.24,11.34-27.18,1.95h0Zm-70-6.52c-3.34-.88-8.05-.5-9.83,.91-3.47,2.73-9.68-1.6-15.18-5.92,.95-2.6,1.73-5.45,2.35-8.56,6.62,2.77,13.54,4.01,20.78,3.72-.1,3.94,.52,7.23,1.88,9.85Z" style="fill:#f9af79; fill-rule:evenodd;"/><path d="M147.76,1056.67c.42-3.42,.56-6.58,.4-9.47,6.01-.47,15.7-5.68,29.07-15.64,3.18,1.03,6.3,1.98,9.37,2.85-9.41,9.79-22.35,17.21-38.85,22.26Z" style="fill:#223f81; fill-rule:evenodd;"/><path d="M373.61,809.73c.79-1.97,3.98-8.11,7.1-15.79,7.75-3.98,13.93-12.68,18.56-26.09-2.77-9-8.62-14.63-17.54-16.88-3.02,11.12-7.51,19.29-13.5,24.51,1.48-11.6-.43-15.24-5.74-10.91,.73,1.48,.77,3.35,.12,5.62-3.6,5.86-3.27,12.54,.96,20.04-1.62,3.39-3.38,6.81-4.18,8.65,4.82,1.56,9.32,4.92,14.21,10.83Z" style="fill:#f9af79; fill-rule:evenodd;"/><path d="M363.87,730.28l30.51-6.93c3.09-.7,6.19,1.25,6.9,4.34l14.6,64.24c.7,3.09-1.25,6.19-4.34,6.9l-30.51,6.94c-3.09,.7-6.19-1.26-6.89-4.35l-14.6-64.24c-.7-3.09,1.25-6.19,4.34-6.9Z" style="fill:#223f81; fill-rule:evenodd;"/><path d="M368.23,775.49c3.71-8.96-.44-15.24-5.74-10.91,.73,1.48,.77,3.35,.12,5.62-2.28,3.71-2.98,7.76-2.12,12.12l7.74-6.84Z" style="fill:#f9af79; fill-rule:evenodd;"/><path d="M189.9,679.43c-1.39,2.15-7.24,2.42-10.12,3.61-1.45,.6-5.07,3.39-6.49,3.27-4.34-.36,7.78-10.09,15.6-9.32,.98,.1,1.6,1.55,1.02,2.44Z" style="fill:#20386f; fill-rule:evenodd;"/><path d="M202.42,673.5c6.53-4.4,21.83-1.32,18.14,1-1.22,.77-5.72-.04-7.27,.12-3.11,.29-8.41,2.75-10.65,1.51-.91-.52-1.14-2.01-.23-2.63Z" style="fill:#20386f; fill-rule:evenodd;"/><path d="M186.26,695.45c-2.16,.58-6.03-7.13-.82-8.53,2.78-.74,4.32,7.6,.82,8.53Z" style="fill:#20386f; fill-rule:evenodd;"/><path d="M215.45,688.33c2.14-.57,1.63-9.19-3.58-7.79-2.79,.75,.06,8.74,3.58,7.79Z" style="fill:#20386f; fill-rule:evenodd;"/><path d="M207.08,705.61c-.45-.85,1.06-1.35,1.97-1.83,3.32-1.73,3.94-.03-1.69-14.47-1.1-2.82-2.02-4.26-1-4.61,.96-.31,1.01,.91,2.27,4.12,6.13,15.67,5.63,13.68-.62,17.06-.33,.17-.73,.06-.92-.27Z" style="fill:#ed7d57; fill-rule:evenodd;"/><path d="M194.93,716.6c-.96-1.45,.85-1.23,15.75-4.02,4.3-.81-7.1,17.09-15.75,4.02Z" style="fill:#fff; fill-rule:evenodd;"/><path d="M1971.74,638.23c4.69-15.79,9.49-31.61,26.21-42.58,13.54-8.85,28.96-9.73,43.06-3.98,39.93,16.29,24.71,51.57,52.17,85.97,11.74,14.66,28.34,21.5,37.44,37.13,16.46,28.17,6.8,76.38-30.6,105.55-91.62,71.5-151.68-41.72-153.56-66.82-1.42-18.66,22.25-105.09,25.28-115.26Z" style="fill:#20386f; fill-rule:evenodd;"/><path d="M2007.11,745.21l4.38-22.85s-12.94,3.09-21.17,15.9c-8.24,12.82-22,56-24.37,57.29-2.36,1.28-28.4-38.81-32.96-45.19-5.63-7.79-7.73-16.8-11.25-23.63-3.52-6.82-15.95-9.14-20.66-8.24-4.69,.83,6.45,20.79,6.45,20.79,0,0,28.23,48.99,37.64,75.89,9.4,26.84,38.81,39.65,43.51,35.85,4.71-3.86,18.43-105.83,18.43-105.83Z" style="fill:#f48d80; fill-rule:evenodd;"/><path d="M2002,813.89l-35.96-20.46s16.33-68.88,45.44-71.07l-9.49,91.53Z" style="fill:#466fb5; fill-rule:evenodd;"/><path d="M1921.42,730.53s-1.18-5.22-4.34-6.24c-3.17-1.03-8.69-.13-9.03,0-.35,.13-6.45-3.15-6.45-3.15l5.02,9.4s9.87,11.58,13.16,7.28c3.29-4.38,1.65-7.28,1.65-7.28Z" style="fill:#f9af79; fill-rule:evenodd;"/><path d="M1899.84,721.52s-3.57,18.15-2.66,21.95c.9,3.8,3.17,1.73,3.58,.97,1.77-3.41,2.98-15.07,2.98-15.07l-3.9-7.85Z" style="fill:#f48d80; fill-rule:evenodd;"/><path d="M1907.5,736.58s-1.71,11.27-3.45,12.55c-1.13,.9-2.57,.39-3.05-1.86-.48-2.32,2.27-16.16,2.27-16.16l4.23,5.47Z" style="fill:#f48d80; fill-rule:evenodd;"/><path d="M1917.87,768.51l5.9-2.9-25.1-51.49c-3.27,1.61-4.61,5.53-3.03,8.82l22.23,45.57Z" style="fill:#223f81; fill-rule:evenodd;"/><path d="M2152.19,1339.79s3.05,30.96,10.9,36.62c7.83,5.73,18.29,26.71,13.06,38.1-1.63,3.54-4.89,5.61-8.61,6.76-11.01,3.41-22.73-2.31-27.42-12.87-2.61-5.86-4.91-13.71-5.38-23.62-1.17-25.11-9.01-37.92-9.01-37.92l26.47-7.07Z" style="fill:#f9af79; fill-rule:evenodd;"/><path d="M2031.72,1352.47s-2.47,31.22-.46,41.39c1.07,5.4,7.06,16.61,4.31,21.75-2.74,5.09-5.88,6.37-5.88,6.37l-71.11,1.16c-3.87,.06-1.32-2.44,1.81-4.7,5.11-3.8,9.24-6.24,25.57-14.16,1.06-.52,4.94-2.97,6.35-3.8,3.54-2.19,7.11-5.61,10.17-8.95,5.1-5.74,5.55-33.22,5.55-33.22l23.7-5.86Z" style="fill:#f9af79; fill-rule:evenodd;"/><path d="M1976.13,937.16s-8.95,50.73-3.07,83.94c5.89,33.27,34.1,341.54,34.1,341.54l31.36,1.81s6.58-128.8,5.4-146.7c-1.18-17.9-10.49-47.89-10.49-47.89l3.11-103.96-39.57-136.59-20.85,7.85Z" style="fill:#20386f; fill-rule:evenodd;"/><path d="M2068.32,926.48s24.68,37.07,30.57,67.78c5.87,30.7-4.32,125.07,7,165.3,6.11,21.75,29.33,55.42,32.84,83.55,3.53,28.13,17.38,101.83,17.38,101.83l-31.34,6.18-72.85-184.04-57.16-166.45-14.64-85.68,88.2,11.53Z" style="fill:#223f81; fill-rule:evenodd;"/><path d="M2048.32,715.41s16.94,2.77,29.55,15.12c27.05,26.46-15.89,128.54-18.25,146.5-2.36,17.89,19.28,59.67,19.28,59.67,0,0-80.81,14.94-102.77,.45,0,0-2.57-143.73-.22-156.54,2.36-12.75,28.67-52.27,33.36-57.36,4.71-5.15,39.04-7.85,39.04-7.85Z" style="fill:#6d96ce; fill-rule:evenodd;"/><path d="M2078.9,742.57c-2.08-6.31-9.23-9.4-15.32-6.76-8.35,3.67-19.88,10.49-25.51,22.21-9.41,19.63-42.33,87.03-52.53,89.61-10.18,2.51-51.75-69.97-51.75-69.97,0,0,1.18-12.81-2.36-20.08-3.53-7.21-14.1-14.87-15.67-12.37-1.56,2.58,5.89,9.02,5.89,10.3s-3.15,2.06-7.45-.44c-4.32-2.58-6.66-7.73-6.66-7.73,0,0-7.07,12.81,.37,24.33,7.45,11.53,10.58,16.22,10.58,16.22,0,0,48.21,107.04,65.86,108.27,16.43,1.23,111.05-103.7,94.54-153.59Z" style="fill:#f9af79; fill-rule:evenodd;"/><path d="M2037.44,671.76s.18,.97,.48,2.64c1.45,7.86,7.08,33.86,10.86,41.01,4.6,8.62-15.68,36.23-35.2,32.89-5.81-1.03,4.91-25.37,4.4-27.94-.99-4.95-2.33-11.65-3.69-18.6-.77-3.86-1.56-7.79-2.29-11.52-2.08-10.56-3.79-19.19-3.79-19.19l29.24,.71Z" style="fill:#f9af79; fill-rule:evenodd;"/><path d="M2037.91,674.4c-.3-1.67-.48-2.64-.48-2.64l-29.24-.71s1.71,8.63,3.79,19.19c.73,3.66,1.52,7.59,2.27,11.45,4.52-.65,9.23-2.83,13.97-6.95,5.15-4.5,8.53-9.91,10.57-15.7-.35-1.87-.66-3.41-.89-4.64Z" style="fill:#ed7d57; fill-rule:evenodd;"/><path d="M2019.85,602.31s11.92,1.61,20.56,12.81c8.64,11.14,17.96,45.64-3.51,64.37-21.46,18.74-42.66-2.44-45.81-24.97-3.15-22.53-2.51-53.04,28.76-52.2Z" style="fill:#f9af79; fill-rule:evenodd;"/><path d="M1984.23,646.79c2.56,5.02,6.86,7.72,9.59,6.18,2.75-1.55,2.9-6.89,.34-11.85-2.56-4.95-6.86-7.72-9.61-6.18-2.75,1.61-2.88,6.89-.32,11.85Z" style="fill:#f9af79; fill-rule:evenodd;"/><path d="M2016.21,601.8s18.42,32.76,31.59,34.31c13.17,1.48,14.91,18.92,14.91,18.92,0,0-4.71-40.16-17.75-47.89-13.04-7.73-28.75-5.34-28.75-5.34Z" style="fill:#20386f; fill-rule:evenodd;"/><path d="M2043.49,643.9c-1.07,5.86,1.08,11.2,4.81,11.91,3.74,.77,7.62-3.28,8.7-9.14,1.07-5.8-1.08-11.14-4.81-11.91-3.73-.77-7.62,3.35-8.7,9.15Z" style="fill:#f9af79; fill-rule:evenodd;"/><path d="M2137.98,1402.87c17.08,3.15,28.46-6.82,34.36-14.29,4.35,8.44,7,18.99,3.81,25.94-2.81,6.11-10.47,7.79-16.94,8.05-6.84,.26-13.25-3.35-16.65-9.27-1.58-2.77-3.21-6.24-4.58-10.43Z" style="fill:#0e2952; fill-rule:evenodd;"/><path d="M1992.31,1400.49c18.81,4.82,32.71,1.54,40.49-1.61,2,5.67,4.65,12.81,3.24,16.87-1.73,5.08-4.18,6.18-6.36,6.24-17.18,.45-62.92,1.1-76.01,1.23-1.84,.06-2.86-2.06-1.66-3.48,3.24-3.86,38.89-18.41,40.3-19.25Z" style="fill:#0e2952; fill-rule:evenodd;"/><path d="M2052.51,836.61l-42.35-27.8s17.65-49.82,37.06-67.46c19.41-17.64,28.57-13.39,32.63-9.73,11.24,10.17,9.26,34.83-3.53,65.28-12.79,30.44-23.81,39.71-23.81,39.71Z" style="fill:#466fb5; fill-rule:evenodd;"/><path d="M2028.52,626.13c1.9,1.73,7.61,.47,10.71,.86,1.56,.2,5.78,1.96,7.12,1.48,4.11-1.48-10.12-7.73-17.47-4.95-.93,.35-1.15,1.9-.35,2.61Z" style="fill:#20386f; fill-rule:evenodd;"/><path d="M2011.9,623.29c-7.44-2.55-21.42,4.38-17.26,5.68,1.38,.43,5.51-1.52,7.05-1.77,3.07-.52,8.83,.48,10.67-1.31,.74-.74,.58-2.23-.46-2.6Z" style="fill:#20386f; fill-rule:evenodd;"/><path d="M2036.19,640.66c2.24,0,3.98-8.45-1.42-8.45-2.88,0-2.19,8.45,1.42,8.45Z" style="fill:#20386f; fill-rule:evenodd;"/><path d="M2003.16,640.99c-2.23,0-3.96-8.45,1.44-8.45,2.88,0,2.19,8.45-1.44,8.45Z" style="fill:#20386f; fill-rule:evenodd;"/><path d="M2023.39,654.43c.22-.94-1.37-1.02-2.37-1.26-3.66-.81-3.82,.99-2.13-14.41,.34-3.01,.85-4.63-.23-4.71-1.01-.06-.74,1.14-1.13,4.57-1.85,16.73-1.89,14.67,5.03,16.31,.36,.09,.73-.13,.82-.49Z" style="fill:#ed7d57; fill-rule:evenodd;"/><path d="M2027.6,666.08c.55-1.65-1.15-.97-16.26,.2-4.36,.33,11.29,14.66,16.26-.2Z" style="fill:#fff; fill-rule:evenodd;"/><path d="M1414.67,904.64c-4.5-11.08-6.98-24.09-11.53-28.58-32.3-6.2-33.18,11.28-46.23,16.55,.48,4.22,2.48,8.74,5.97,13.54,1.75,18.75,7.84,29.58,18.25,32.49,2.86,2.23,7.15,3.15,12.86,2.76-.19,2.45-.52,4.82-.89,7.13h0c4.33,20.55,25,23.76,37.18,2.05,.4-.72,.78-1.44,1.15-2.18-.02-.16-.05-.36-.09-.53v-.02c-1.43-8.09-2.52-15.17-3.3-21.23-.49-3.92-.85-7.41-1.08-10.48,8.57-12.11,9.3-20.98,2.18-26.63-8.61-2.61-12.47,3.5-11.57,18.3-2.54-.57-.75-.02-2.9-3.19Z" style="fill:#f9af79; fill-rule:evenodd;"/><path d="M1356.91,892.61c13.04-5.27,13.93-22.75,46.23-16.55,4.55,4.48,7.03,17.5,11.53,28.58,2.15,3.16,.36,2.62,2.9,3.19-.9-14.8,2.95-20.91,11.57-18.3,7.12,5.65,6.39,14.52-2.18,26.63,.23,3.07,.59,6.56,1.08,10.48,24.65-30.62,13.52-65.51-5.65-74.68,4.31-.19,8.87,.81,13.7,2.99-7.61-7.54-16.58-9.22-26.92-5.03,.26-6.18-.63-10.58-2.66-13.23,.13,4.14-.21,7.4-1.02,9.78-7.83-5.27-21.28-4.75-34.06,2.37-16.54,9.22-32.25,28.04-39.86,24.26,3.52,16.39,14.41,25.02,25.34,19.5Z" style="fill:#20386f; fill-rule:evenodd;"/><path d="M1469.44,1006.31c2.9,4.61,6.03,9.33,9.43,14.16,3.82,5.45,7.96,11.04,12.43,16.76,4.54-10.85,18.79-21.63,31.28-18.19-15.15-31.18-29.78-52.58-40.14-61.59-11.18-5.49-28.21-8.7-51.1-9.6,.03,.19,.06,.37,.09,.55-11.99,24.09-33.86,21.34-38.33,.13-15.21,1.57-33.02,7.28-42.72,13.7-9.54,9.37-26.28,31.17-43.15,62.84,3.74,3.4,22.28,11.62,30.02,12.97,5.66-7.24,9.51-12.94,14.28-20.2,.57,34.61,.56,59.63-.32,76.81-.58,11.43-1.55,25.46-2.99,30.46,23.37,32.2,97.14,33.01,130.6,7.69-6.32-43.47-9.78-85.77-9.37-126.49Z" style="fill:#6d96ce; fill-rule:evenodd;"/><path d="M1468.44,1037.6c-15.04-3.13-26.02-4.62-45.53-11.47-1.09-6.22-12.07-19.16-17.1-26.17-9.96,1.43,.26,13.86-.23,16.29-7.39-1.02-10.83-3.55-13.42-5.62-10.47-3.88-14.28,16.67-5.14,24.79,5.22,4.65,19.45,9.25,26.48,9.19,24.51,11.53,39.05,18.04,57.12,24.08,2.22,.74,4.4,1.44,6.53,2.11,30,9.28,50.31,10.28,60.92,2.99,2.34-15.86-10.66-44.48-15.49-54.75-17.25-4.57-28.39,11.54-31.18,17.76,1.11,2.54,2.69,5.01,4.77,7.43-5.59-1.81-12.08-3.32-19.36-4.87-2.69-.57-5.48-1.15-8.36-1.76Z" style="fill:#f9af79; fill-rule:evenodd;"/><path d="M1325.21,1034.18c4.18-3.37,23.06-15.8,28.37-20.94-.82-6.2,4.44-22.16,6.55-30.48,8.34-2.19,3.56,13.04,4.61,15.14,5.62-3.57,7.69-7.15,9.2-10,7.31-7.32,15.92,10.53,10.83,21.35-2.91,6.19-13.02,15.51-18.65,17.93-4.26,5.03-13.46,18.7-17,22.79-24.88,40.6-60.72,49.86-62.38,27.8,.76-11.19,12.15-34.04,22.89-51.01,2.75,1.69,7.04,3.8,11.57,5.75-7.21,4.64-12.68,10.83-16.41,18.57,6.04-8.05,10.52-10.78,20.42-16.9Z" style="fill:#f9af79; fill-rule:evenodd;"/><path d="M1498.28,1042.35c-1.99-3.01-3.78-5.94-5.36-8.84-.59,1.09-1.1,2.2-1.5,3.34,1.16,2.65,2.84,5.23,5.04,7.74,8.43,2.77,14.77,6.24,18.58,11.65-1.89-6.23-7.49-10.86-16.75-13.89h0Zm-177.08-9.84c-7.21,4.64-12.68,10.83-16.42,18.57,6.05-8.04,10.53-10.78,20.43-16.9-1.33-.53-2.69-1.1-4.01-1.67Z" style="fill:#ed7d57; fill-rule:evenodd;"/><path d="M1476.41,1039.28c.32-7.2,.96-13.71,1.93-19.57-3.19-4.57-6.15-9.03-8.9-13.41-.1,10.44,.05,20.97,.44,31.6,2.24,.47,4.42,.93,6.53,1.38h0Zm7.02,90.33c-3.4-22.1-5.61-41.74-6.61-58.91-1.69-.52-3.42-1.08-5.17-1.66,1.6,20.93,4.04,42.2,7.17,63.75,1.5-1.03,3.03-2.09,4.61-3.19Z" style="fill:#466fb5; fill-rule:evenodd;"/><path d="M1373.94,987.9c7.31-7.32,15.92,10.53,10.83,21.35-.15,.34-.35,.69-.54,1.05-2.86,5.06-9.69,11.69-14.98,15.14-.59,.39-1.15,.73-1.69,1.03l.64,11.04c.13,2.25,2.07,4.08,4.32,4.08l24.7-.03h1.65c-4.82-1.7-9.36-3.9-11.85-6.12-7.18-6.39-6.36-20.45-.61-24.29,1.57-1.05,3.5-1.34,5.74-.51,1.2,.97,2.6,2.02,4.48,2.99,1.52,.77,3.36,1.48,5.69,2.03l-.53-9.07c-.35-1.3-.48-2.55-.21-3.61l-.11-2.07-1.21-20.92c-.13-2.25-2.07-4.08-4.32-4.08l-27.2,.04c-2.24,0-3.98,1.84-3.85,4.09l.99,17.11c4.78-3.32,6.66-6.59,8.07-9.25Z" style="fill:#1d417f; fill-rule:evenodd;"/><path d="M1396.52,1431.16c3.69-88.92,11.11-181.48,21.81-266.42,5.96,53.98,18.55,141.22,37.32,265.62,5.72,3.27,14.6,3.76,26.63,1.49,12.56-102.26,12.01-201.18-1.15-300.64l-2.31,1.59c-30.47,23.07-94.4,24.45-123.22,.18-9.11,91.75-3.56,191.22,16.7,298.41,5.47,2.1,13.55,2.02,24.22-.23Z" style="fill:#20386f; fill-rule:evenodd;"/><path d="M1458.07,1454.36c11.1,.25,13.45,2.77,22.6,5.31,13.06,3.61,21.63,.79,18.75-5.64-9.23-5.79-15.82-11.09-19.79-15.89-3.52-1.86-11.13-1.01-12.3,5.28-4.84,.68-6.44-.56-7.41-3.71-1.42,3.73-2.03,8.61-1.85,14.65h0Zm-60.12,1.48c-14.3,.27-16.26,2.66-23.79,4.15-18.58,5.27-30.97,2.54-27.1-4.48,11.35-5.79,19.47-11.09,24.34-15.89,4.34-1.85,8.86-.1,13.54,5.28,5.95,.68,9.53-.56,10.74-3.72,1.74,3.73,2.5,8.61,2.27,14.65Z" style="fill:#0e2952; fill-rule:evenodd;"/><path d="M1374.5,1432.08c.09,2.48-.2,4.78-.88,6.92,3.65-.52,7.43,1.45,11.33,5.92,5.44,.61,8.89-.36,10.37-2.94-.86-3.32-1.4-6.74-1.61-10.27-8,1.46-14.41,1.57-19.2,.36h0Zm85.48,.06c.08,2.69,.06,5.22-.06,7.58,.97,3.15,2.57,4.39,7.41,3.71,1.06-5.7,7.41-6.93,11.22-5.73-.15-1.77-.21-3.49-.14-5.2-7.54,1.1-13.68,.98-18.43-.36Z" style="fill:#f9af79; fill-rule:evenodd;"/><path d="M1411.75,929.98c-3.24,5.21-9.16,9.01-17.76,11.42-.19,2.45-.52,4.82-.89,7.13,10.02-3.41,16.23-9.59,18.65-18.55Z" style="fill:#ed7d57; fill-rule:evenodd;"/><path d="M1471.93,1072.64c-44.77,4.6-84.8,4.36-120.08-.73,.04-3.98,.07-8.2,.07-12.69,37.2,3.07,69.3,3.42,96.31,1.09,7.53,3.12,14.63,5.8,22.39,8.39l1.02,.34v.12s0-.13,0-.13l5.17,1.67c.02,.48,.05,.94,.08,1.42-1.66,.19-3.32,.36-4.97,.52Z" style="fill:#466fb5; fill-rule:evenodd;"/><path d="M1421.2,1048.23c-24.19,.74-46.78-.54-67.78-3.84,3.06-4.19,6.79-9.5,9.76-13.46,1.54,.12,3.1,.24,4.66,.35l.36,6.24c.13,2.25,2.07,4.08,4.32,4.08l24.7-.03h1.65c.42,.14,.84,.28,1.26,.42,4.92,1.62,9.99,2.68,13.37,2.65,2.68,1.26,5.24,2.46,7.7,3.61h0Zm48.44-18.08c2.46-.18,4.94-.37,7.44-.56-.19,2.03-.36,4.14-.48,6.31-.08,1.29-.15,2.42-.18,3.39l-6.53-1.37-1.44-.31c-9.59-2-17.54-3.33-27.1-5.81,9.14-.4,18.57-.94,28.3-1.65Z" style="fill:#466fb5; fill-rule:evenodd;"/><path d="M1398.12,920.44c-6.23,3.58-9.82,5.33-16.2,8.27-2.56,1.17,6.31,5.11,16.75-8.11,.25-.31-.06-.44-.55-.16Z" style="fill:#eb795b; fill-rule:evenodd;"/><path d="M1381.75,885.11c-2.92,1.94-1.37,4.28,1.21,3.57,27.34-7.6,5.99-8.41-1.21-3.57Z" style="fill:#20386f; fill-rule:evenodd;"/><path d="M1367.41,890.53c3.47-.52,3.89,2.24,1.52,3.45-25.33,12.81-10.1-2.18-1.52-3.45Z" style="fill:#20386f; fill-rule:evenodd;"/><path d="M1385.36,920.46l-.16,.07c-2.98,.92-4.59,1.35-5.66,.64-.98-.65-1.1-1.94-1.33-4.29-.25-2.59-.63-6.53-2.36-12.41-.13-.42,.13-.86,.55-1,.43-.12,.88,.12,1.01,.56,1.77,6,2.16,10.03,2.41,12.7,.15,1.54,.28,2.87,.62,3.09,.48,.32,2.6-.32,4.29-.85,.42-.13,.87,.1,1.01,.55,.1,.36-.06,.74-.38,.93Z" style="fill:#eb795b; fill-rule:evenodd;"/><path d="M1368.36,909.87c-1.84,.81-6.32-5.56-1.87-7.49,2.38-1.03,4.87,6.19,1.87,7.49Z" style="fill:#20386f; fill-rule:evenodd;"/><path d="M1391.49,900.3c-1.84,.79-6.31-5.56-1.86-7.49,2.37-1.03,4.86,6.19,1.86,7.49Z" style="fill:#20386f; fill-rule:evenodd;"/><path d="M708.38,976.9c-1.84,2.12-2.08,4.49-1.16,7.03,0,0,0,.02,0,.03,1.7,4.68,7.3,9.91,13.8,15.12,.83,.68,1.57,1.28,2.21,1.85,.16,.15,.34,.3,.5,.45,.13,.12,.26,.23,.39,.34,6.06,5.59,3.78,6.87,14.67,18.21,12.41,12.92,20.97,13.16,23.4,11.99,2.05-1-2.12-7.86-6.76-15.56-.23-.38-.44-.75-.67-1.12-.62-1.02-1.23-2.07-1.84-3.1-5.43-9.28-4.04-13.62-2.75-27.41,1.04-11.21,17.44-62.64,17.44-62.64l-23.81-4.1s-7.16,40.94-15.06,47.25c-4.22,3.36-8.95,3.4-13.01,5.9-.29,.17-.58,.34-.84,.53-2.32,1.52-4.67,3.11-6.52,5.23Z" style="fill:#f9af79; fill-rule:evenodd;"/><path d="M708.38,976.9c-1.84,2.12-2.08,4.49-1.16,7.03,0,0,0,.02,0,.03,2.09,4.68,7.54,9.88,13.82,15.08,.82,.69,1.55,1.3,2.19,1.89,.16,.15,.34,.3,.5,.45,.13,.12,.26,.23,.39,.34,6.06,5.59,3.78,6.87,14.67,18.21,12.41,12.92,20.97,13.16,23.4,11.99,2.05-1-2.12-7.86-6.76-15.56-2.41-.89-13.64-5.45-22.13-16.32-7.48-9.54-12.46-21.79-17.55-28.89-.29,.17-.58,.34-.84,.53-2.32,1.52-4.67,3.11-6.52,5.23Z" style="fill:#172b57; fill-rule:evenodd;"/><path d="M900.29,962.03c1.46,7.35,11.93,6.12,23.63,3.27,11.7-2.86,8.92,.53,25.57-1.31,16.65-1.84,21.69-8.05,22.21-10.53,.45-2.2-7.78-2.97-16.6-3.99-1.11-.11-2.21-.26-3.34-.39-9.96-1.25-17.25-7.69-26.3-12.96-8.57-4.99-21.36-25.38-21.36-25.38l-22.84,1.82s11.98,18.19,16.62,26.11c2.73,4.65,2.58,10.81,2.24,15.56-.17,2.58-.34,5.22,.19,7.81Z" style="fill:#f9af79; fill-rule:evenodd;"/><path d="M923.92,965.3c11.7-2.86,8.92,.53,25.57-1.31,16.65-1.84,21.69-8.05,22.21-10.53,.45-2.2-7.78-2.97-16.6-3.99l-.07,.17s-9.99,7.09-23.85,7.42c-11.3,.27-23.26-2.97-31.06-2.84-.17,2.58-.34,5.22,.19,7.81,1.46,7.35,11.93,6.12,23.63,3.27Z" style="fill:#172b57; fill-rule:evenodd;"/><path d="M849.47,626.66s5.44-13.33,11.43-13.87c5.99-.54,25.02-3.54,26.39-.81,1.36,2.71,0,12.51-4.09,16.04-4.07,3.54-29.38,9.25-29.38,9.25l-4.35-10.61Z" style="fill:#f9af79; fill-rule:evenodd;"/><path d="M812.77,816.03l-49.21,132.43s-7.55,.74-14.8-1.36c-6.67-1.92-14.32-6.96-14.32-6.96,0,0,12.21-127.16,34.6-153.61,22.38-26.45,43.74,29.5,43.74,29.5Z" style="fill:#20386f; fill-rule:evenodd;"/><path d="M618.14,762.44s141.4-47.82,172.93-37.64c31.54,10.17,126.23,198.56,126.23,198.56,0,0-2.14,2.84-7.97,5.03-5.42,2.03-18.56,1.9-18.56,1.9,0,0-85.45-73.26-95.62-94.62-10.18-21.37-14.24-41.7-24.42-39.68-10.18,2.04-131.23,49.86-158.71,21.37-27.47-28.48-20.27-65.49-20.27-65.49l26.39,10.55Z" style="fill:#223f81; fill-rule:evenodd;"/><path d="M704.55,540.01c2.25-4.66,4.78-12.95,6.02-27.7-.19,1.46-2.75,20.08-9.91,30.62-29.41,19.3-85.77,83.78-84.65,95.99,0,0-19.86-33.68-20.2-33.88,0,0-36.62-46.57,6.79-73.24,22.06-13.57,21.94-30.97,21.02-46.08-.93-15.12,6.02-80.19,50.21-63.17,0,0,7.1-3.15,10.28-2.68,0,0-2.59,.5-3.92,1.86,5.12-.31,12.45,.07,18.56,3.55,16.21,9.2,30.7,91.79,5.8,114.72Z" style="fill:#20386f; fill-rule:evenodd;"/><path d="M698.93,543.89c.15,.06-14.19,7.52-24.99,4.56-10.15-2.76-16.77-15.91-16.64-15.95,4.3-.85,5.54-6.77,5.44-32.14l1.94,.37,32.67,6.48s-.73,10.28-.76,19.97c-.03,8.14,.47,15.84,2.33,16.71Z" style="fill:#f9af79; fill-rule:evenodd;"/><path d="M697.36,507.21s-.73,10.28-.76,19.97c-18.29-.52-27.96-17.2-31.91-26.45l32.67,6.48Z" style="fill:#ed7d57; fill-rule:evenodd;"/><path d="M661.31,497.17s-9.59-15.13-11.89-28.08c-1.63-9.24,3.07-43.5,37.5-38.57,0,0,10,.98,19.4,7.33,7.47,5.05,18.26,15.95,6.2,45.85l-3.14,10.1-48.07,3.37Z" style="fill:#20386f; fill-rule:evenodd;"/><path d="M703.47,516.38s-43.27,.71-43.29-26.23c-.03-26.95-5.63-45,21.98-46.6,27.62-1.6,32.99,8.68,35.2,17.67,2.19,8.99-2.64,54.28-13.89,55.16Z" style="fill:#f9af79; fill-rule:evenodd;"/><path d="M701.86,442.89s-11.84,31.61-30.01,36.29c-18.18,4.67-26.06-.2-26.06-.2,0,0,13.93-11.07,16.83-30.41,0,0,30.32-20.73,39.25-5.68Z" style="fill:#20386f; fill-rule:evenodd;"/><path d="M698.93,445.45s8.85,7.06,11,13.92c2.17,6.86,3.13,20.99,7.25,20.5,0,0,8.93-21.49-1.1-33.64-10.64-12.89-17.15-.78-17.15-.78Z" style="fill:#20386f; fill-rule:evenodd;"/><path d="M584.96,763.19c2.34,6.48,9.49,8.14,19.08,7.02,18.29-2.13,45.45-14.41,65.02-22.89,29.84-12.95,43.41-.8,52.9-9.02,9.5-8.24-10.85-26.54,6.79-111.55,5.98-28.82-31.92-90.63-31.92-90.63,0,0-3.27,17.9-39.54-3.62-1.28-.77-15.56,20.37-29.3,46.43-15.15,28.73-29.66,63.46-25.4,81.35,8.13,34.1-24.42,84.08-17.64,102.91Z" style="fill:#6d96ce; fill-rule:evenodd;"/><path d="M696.83,536.12l22.34,91.7s2.79,4.95,7.15,12c10.23,16.56,29.18,44.66,41.31,47.53,5.98,1.4,18.71-3.58,32.78-10.69,26.63-13.45,58.1-34.53,58.1-34.53,2.03-12.2-8.59-22.16-8.59-22.16,0,0-63.76,23.96-70.09,24.41-13.81,.99-27.85-65.63-40.75-87.83-9.33-16.04-42.26-20.42-42.26-20.42Z" style="fill:#6d96ce; fill-rule:evenodd;"/><path d="M584.96,763.19c2.34,6.48,9.49,8.14,19.08,7.02,12.66-5.52,67.34-26.7,66.71-41.05-.91-21.25-10.51-21.93-3.72-48.15,5.44-21.06-45.07-60.21-53.13-68.73-15.15,28.75-15.57,30.1-11.3,48,8.13,34.1-24.42,84.08-17.64,102.91Z" style="fill:#466fb5; fill-rule:evenodd;"/><path d="M726.33,639.82c10.23,16.56,29.18,44.66,41.31,47.53,5.98,1.4,18.71-3.58,32.78-10.69-10.27,2.65-20.25,2.57-29.95,1.64-10.52-1.02-13.57-13.91-30.18-33.23-10.78-12.54-13.43-9.38-13.95-5.24Z" style="fill:#466fb5; fill-rule:evenodd;"/><path d="M675.68,680.5s9.15-7.11,17.81-5.43c8.65,1.69,12.88,7.64,12.54,10.35-.33,2.71-4.91,10.34-11.52,11.03-6.62,.67-25.44-4.07-25.44-4.07l6.61-11.87Z" style="fill:#f9af79; fill-rule:evenodd;"/><path d="M657.3,532.5s-35.26,2.18-47.46,19.19c-17.19,23.97-47.03,121.8-38.9,144.19l107.27-.46s2.61-12.15-1.01-18.02c-3.62-5.88-62.39-15.38-65.11-18.09-2.71-2.72,33.91-52.91,33.91-61.04s11.3-65.76,11.3-65.76Z" style="fill:#6d96ce; fill-rule:evenodd;"/><polygon points="684.88 720.57 814.75 720.57 838.16 638.93 708.49 638.93 684.88 720.57" style="fill:#c4d1eb; fill-rule:evenodd;"/><rect x="644.52" y="717.39" width="169.78" height="3.18" style="fill:#859ac6;"/><path d="M773.52,678.42c.82-2.86-.84-5.19-3.71-5.19s-5.86,2.33-6.68,5.19c-.82,2.87,.83,5.2,3.7,5.2s5.86-2.33,6.7-5.2Z" style="fill:#859ac6; fill-rule:evenodd;"/><path d="M684.78,500.96c7.95,.04,12.37-.24,20.1-.9,3.1-.27-3.27,8.36-20.54,1.36-.41-.17-.18-.47,.44-.46Z" style="fill:#eb795b; fill-rule:evenodd;"/><path d="M680.76,460.51c3.86,.28,3.65,3.36,.79,4.1-30.45,7.63-10.36-4.82-.79-4.1Z" style="fill:#20386f; fill-rule:evenodd;"/><path d="M697.51,457.9c-3.61,1.4-2.51,4.28,.44,4.15,31.36-1.53,8.52-7.62-.44-4.15Z" style="fill:#20386f; fill-rule:evenodd;"/><path d="M698.79,492.86l.2-.02c3.37-.74,5.15-1.19,5.79-2.47,.58-1.17,0-2.48-1.06-4.86-1.18-2.62-2.97-6.62-4.51-13.21-.11-.48-.6-.76-1.08-.66-.48,.11-.78,.59-.67,1.08,1.58,6.74,3.41,10.83,4.62,13.54,.7,1.56,1.3,2.91,1.09,3.32-.28,.56-2.67,1.1-4.59,1.52-.48,.11-.78,.59-.67,1.08,.09,.4,.46,.69,.87,.69Z" style="fill:#eb795b; fill-rule:evenodd;"/><path d="M707.18,477.02c2.2-.23,3.03-8.8-2.31-8.23-2.85,.31-1.29,8.61,2.31,8.23Z" style="fill:#20386f; fill-rule:evenodd;"/><path d="M679.69,480.47c2.2-.25,3.03-8.8-2.31-8.23-2.85,.31-1.29,8.61,2.31,8.23Z" style="fill:#20386f; fill-rule:evenodd;"/></svg>