<?xml version="1.0" encoding="UTF-8"?><svg id="a" xmlns="http://www.w3.org/2000/svg" viewBox="0 0 1867.22 1508.59"><path d="M446.03,1508.59c245.67,0,446.03-25.87,446.03-57.59s-200.36-57.56-446.03-57.56S0,1419.28,0,1451s200.36,57.59,446.03,57.59Z" style="fill:#d1c6e2; fill-rule:evenodd;"/><path d="M1438.55,1468.25c138.26,0,251.03-14.57,251.03-32.41s-112.77-32.41-251.03-32.41-251,14.57-251,32.41,112.77,32.41,251,32.41Z" style="fill:#d1c6e2; fill-rule:evenodd;"/><path d="M1717.41,1259.53c68.61,0,124.57-10.29,124.57-22.9s-55.96-22.87-124.57-22.87-124.53,10.26-124.53,22.87,55.96,22.9,124.53,22.9Z" style="fill:#d1c6e2; fill-rule:evenodd;"/><path d="M673.67,122.25c145.48,28.45,264.78,210.72,409.28,226.92,273.31,30.64,564.03-175.86,703.07,24.96,244.1,352.5-96.57,672.95-564.2,882.95-467.59,210-1001.99,193.66-1106.21-220.45C33.85,711.66,27.51,459.16,254.52,264.03c100.78-86.61,209.96-182.75,419.14-141.78Z" style="fill:#ede4f1; fill-rule:evenodd;"/><path d="M1580.3,405.52l-18.52,10.78c-6.24,3.63-8.4,11.7-4.77,17.97l4.08,7.02c4.83,8.3,2.74,12.02,1.24,13.36-4.12,3.69-7.94,7.71-11.79,11.7-1.11,1.18-4.7,5.19-14.11-.29l-6.47-3.76c-6.24-3.63-14.31-1.47-17.94,4.77l-10.78,18.52c-3.63,6.24-1.5,14.31,4.74,17.94l6.4,3.72c8.82,5.13,8.59,7.77,7.48,11.53-1.54,5.13-3.17,10.29-4.31,15.58-.98,4.74-.52,8.13-12.54,8.13h-7.38c-7.22,0-13.13,5.91-13.13,13.13v21.43c0,7.25,5.91,13.13,13.13,13.13h7.38c12.02,0,11.57,3.4,12.54,8.13,1.14,5.32,2.78,10.45,4.31,15.62,1.11,3.72,1.34,6.37-7.48,11.5l-6.4,3.72c-6.24,3.63-8.36,11.7-4.74,17.97l10.78,18.52c3.63,6.24,11.7,8.36,17.94,4.74l6.47-3.76c9.41-5.46,13-1.47,14.11-.29,3.86,3.99,7.68,8,11.79,11.7,1.5,1.34,3.59,5.1-1.24,13.39l-4.08,7.02c-3.63,6.24-1.47,14.34,4.77,17.97l18.52,10.75c6.24,3.66,14.31,1.5,17.97-4.74l4.08-7.02c4.87-8.4,9.7-8.07,11.73-7.42,5.91,1.86,11.37,3.1,17.48,4.67,2.22,.59,6.04,2.19,6.04,12.22v7.55c0,7.22,5.88,13.13,13.13,13.13h21.43c7.22,0,13.13-5.91,13.13-13.13v-7.55c0-10.03,3.79-11.63,6.04-12.22,6.08-1.57,11.53-2.81,17.45-4.67,2.06-.65,6.86-.98,11.76,7.42l4.08,7.02c3.63,6.24,11.7,8.4,17.97,4.74l18.52-10.75c6.24-3.63,8.36-11.73,4.74-17.97l-4.08-7.02c-4.83-8.3-2.71-12.05-1.24-13.39,4.15-3.69,7.97-7.71,11.79-11.7,1.14-1.18,4.7-5.16,14.11,.29l6.47,3.76c6.24,3.63,14.34,1.5,17.97-4.74l10.78-18.52c3.63-6.27,1.47-14.34-4.77-17.97l-6.4-3.72c-8.82-5.13-8.59-7.78-7.48-11.5,1.54-5.16,3.2-10.29,4.31-15.62,1.01-4.74,.56-8.13,12.58-8.13h7.35c7.25,0,13.13-5.88,13.13-13.13v-21.43c0-7.22-5.88-13.13-13.13-13.13h-7.35c-12.02,0-11.57-3.4-12.58-8.13-1.11-5.29-2.78-10.45-4.31-15.58-1.11-3.76-1.34-6.4,7.48-11.53l6.4-3.72c6.24-3.63,8.4-11.7,4.77-17.94l-10.78-18.52c-3.63-6.24-11.73-8.4-17.97-4.77l-6.47,3.76c-9.41,5.49-12.97,1.47-14.11,.29-3.82-3.99-7.64-8-11.79-11.7-1.47-1.34-3.59-5.06,1.24-13.36l4.08-7.02c3.63-6.27,1.5-14.34-4.74-17.97l-18.52-10.78c-6.27-3.63-14.34-1.5-17.97,4.77l-4.08,6.99c-4.9,8.43-9.7,8.1-11.76,7.45-5.91-1.89-11.37-3.1-17.45-4.7-2.25-.59-6.04-2.19-6.04-12.22v-7.51c0-7.25-5.91-13.13-13.13-13.13h-21.43c-7.25,0-13.13,5.88-13.13,13.13v7.51c0,10.03-3.82,11.63-6.04,12.22-6.11,1.6-11.57,2.81-17.48,4.7-2.03,.65-6.86,.98-11.73-7.45l-4.08-6.99c-3.66-6.27-11.73-8.4-17.97-4.77h0Zm81.15,55.73c58.05,0,105.1,47.04,105.1,105.1s-47.04,105.13-105.1,105.13-105.13-47.08-105.13-105.13,47.08-105.1,105.13-105.1Z" style="fill:#d1c6e2; fill-rule:evenodd;"/><path d="M1511.86,242.11c-4.84,1.31-9.83-1.57-11.11-6.44-1.31-4.83,1.6-9.83,6.44-11.11,99.45-26.36,189.61-15.84,270.4,31.46,4.31,2.55,5.78,8.1,3.23,12.41-2.55,4.31-8.1,5.75-12.41,3.23-76.41-44.76-161.94-54.59-256.55-29.57h0Zm58.71,23.75c25.61-1.18,49.92-.91,72.85,1.5,22.74,2.42,44.1,6.93,64.2,14.24,4.7,1.7,9.9-.72,11.63-5.42,1.7-4.7-.72-9.9-5.42-11.63-21.53-7.84-44.36-12.68-68.47-15.22-23.88-2.52-49.1-2.81-75.66-1.6-4.97,.26-8.85,4.51-8.62,9.47,.26,5.03,4.48,8.89,9.51,8.66Z" style="fill:#ede4f1; fill-rule:evenodd;"/><path d="M55.28,1066.94c-.85-4.96-5.55-8.3-10.49-7.45-4.97,.85-8.3,5.55-7.45,10.52,17.54,101.37,64.65,178.93,141.39,232.64,4.08,2.88,9.73,1.86,12.61-2.22,2.87-4.12,1.86-9.77-2.25-12.64-72.53-50.8-117.15-124.4-133.81-220.84h0Zm46.03,43.45c9.64,23.78,19.99,45.74,31.75,65.6,11.66,19.63,24.7,37.21,39.73,52.37,3.53,3.59,3.46,9.31-.06,12.84-3.56,3.53-9.31,3.5-12.84-.07-16.14-16.3-30.02-35.02-42.4-55.86-12.25-20.68-23.03-43.48-33-68.12-1.86-4.64,.39-9.93,5.03-11.79,4.64-1.86,9.93,.36,11.79,5.03Z" style="fill:#ede4f1; fill-rule:evenodd;"/><path d="M388.83,67.59l-24.04,13.98c-8.1,4.7-10.85,15.19-6.14,23.29l5.29,9.11c6.24,10.75,3.53,15.62,1.6,17.38-5.36,4.77-10.32,9.96-15.29,15.13-1.47,1.54-6.11,6.73-18.33-.36l-8.36-4.87c-8.1-4.7-18.59-1.96-23.29,6.17l-13.98,24.01c-4.7,8.1-1.93,18.56,6.17,23.29l8.3,4.8c11.43,6.66,11.14,10.09,9.7,14.93-1.99,6.66-4.15,13.36-5.59,20.25-1.31,6.14-.72,10.52-16.3,10.52h-9.54c-9.38,0-17.05,7.64-17.05,17.05v27.8c0,9.38,7.68,17.02,17.05,17.02h9.54c15.58,0,14.99,4.41,16.3,10.55,1.44,6.89,3.59,13.56,5.59,20.22,1.44,4.87,1.73,8.3-9.7,14.93l-8.3,4.84c-8.1,4.7-10.88,15.19-6.17,23.29l13.98,24.01c4.7,8.1,15.19,10.88,23.29,6.17l8.36-4.87c12.22-7.09,16.86-1.93,18.33-.39,4.97,5.19,9.93,10.39,15.29,15.16,1.93,1.73,4.64,6.6-1.6,17.35l-5.29,9.11c-4.7,8.13-1.96,18.59,6.14,23.29l24.04,13.98c8.1,4.7,18.56,1.96,23.29-6.17l5.29-9.08c6.34-10.91,12.58-10.49,15.22-9.64,7.68,2.42,14.73,4.02,22.64,6.08,2.91,.75,7.84,2.84,7.84,15.84v9.77c0,9.38,7.65,17.02,17.05,17.02h27.77c9.41,0,17.05-7.65,17.05-17.02v-9.77c0-13,4.93-15.09,7.81-15.84,7.94-2.06,14.99-3.66,22.67-6.08,2.65-.85,8.89-1.27,15.22,9.64l5.29,9.08c4.7,8.13,15.19,10.88,23.29,6.17l24.04-13.98c8.1-4.7,10.85-15.16,6.14-23.29l-5.29-9.11c-6.27-10.75-3.53-15.62-1.6-17.35,5.36-4.77,10.32-9.96,15.29-15.16,1.47-1.54,6.11-6.7,18.33,.39l8.36,4.87c8.1,4.7,18.59,1.93,23.29-6.17l13.98-24.01c4.7-8.1,1.93-18.59-6.17-23.29l-8.3-4.84c-11.43-6.63-11.14-10.06-9.7-14.93,1.99-6.66,4.15-13.33,5.59-20.22,1.31-6.14,.72-10.55,16.3-10.55h9.54c9.38,0,17.02-7.64,17.02-17.02v-27.8c0-9.41-7.65-17.05-17.02-17.05h-9.54c-15.58,0-15-4.38-16.3-10.52-1.44-6.89-3.59-13.59-5.59-20.25-1.44-4.84-1.73-8.27,9.7-14.93l8.3-4.8c8.1-4.74,10.88-15.19,6.17-23.29l-13.98-24.01c-4.7-8.13-15.19-10.88-23.29-6.17l-8.36,4.87c-12.22,7.09-16.86,1.9-18.33,.36-4.97-5.16-9.93-10.36-15.29-15.13-1.93-1.76-4.67-6.63,1.6-17.38l5.29-9.11c4.7-8.1,1.96-18.59-6.14-23.29l-24.04-13.98c-8.1-4.7-18.59-1.93-23.29,6.17l-5.29,9.08c-6.34,10.94-12.58,10.49-15.22,9.67-7.68-2.45-14.73-4.02-22.67-6.08-2.88-.75-7.81-2.88-7.81-15.88v-9.73c0-9.41-7.64-17.05-17.05-17.05h-27.77c-9.41,0-17.05,7.64-17.05,17.05v9.73c0,13-4.93,15.13-7.84,15.88-7.91,2.06-14.96,3.63-22.64,6.08-2.65,.82-8.89,1.27-15.22-9.67l-5.29-9.08c-4.74-8.1-15.19-10.88-23.29-6.17h0Zm105.23,99.54c60.24,0,109.05,48.84,109.05,109.05s-48.81,109.08-109.05,109.08-109.05-48.84-109.05-109.08,48.81-109.05,109.05-109.05h0Zm0-27.25c75.3,0,136.29,61.03,136.29,136.3s-60.99,136.33-136.29,136.33-136.3-61.03-136.3-136.33,61.03-136.3,136.3-136.3Z" style="fill:#d1c6e2; fill-rule:evenodd;"/><path d="M1691.84,1020.39c.36-1.44-.56-2.91-1.99-3.23-1.47-.33-2.91,.59-3.24,2.03-4.48,19.27-4.74,39.1,.16,59.65,4.9,20.48,14.93,41.69,31.1,63.74,.88,1.21,2.55,1.47,3.76,.59,1.21-.88,1.47-2.55,.59-3.76-15.75-21.5-25.48-42.04-30.22-61.81-4.7-19.7-4.44-38.71-.16-57.2Z" style="fill:#1b2452; fill-rule:evenodd;"/><path d="M1688.63,1023.46c24.34-55.34,22.9-107.68-4.28-157.01,62.01,51.32,63.41,103.66,4.28,157.01Z" style="fill:#c2b5d9; fill-rule:evenodd;"/><path d="M1684.35,866.45c27.18,49.33,28.62,101.67,4.28,157.01-55.96-42.96,13.98-89.58-4.28-157.01Z" style="fill:#9588c0; fill-rule:evenodd;"/><path d="M1721.43,1092.13c.13-1.47-.98-2.78-2.45-2.91-1.47-.16-2.78,.92-2.94,2.42-.59,6.5-.75,15.97-.23,26.69,.46,9.28,1.44,19.54,3.01,29.73,.23,1.47,1.6,2.48,3.07,2.25,1.47-.23,2.48-1.6,2.25-3.07-1.57-9.96-2.48-20.06-2.94-29.17-.52-10.49-.39-19.67,.23-25.94Z" style="fill:#1b2452; fill-rule:evenodd;"/><path d="M1718.13,1097.22c-25.74-46.85-7.19-91.08,55.67-132.73-33.22,48.22-51.78,92.45-55.67,132.73Z" style="fill:#9588c0; fill-rule:evenodd;"/><path d="M1718.13,1097.22c3.89-40.28,22.44-84.51,55.67-132.73-19.73,65.66,23.1,89.94-55.67,132.73Z" style="fill:#5a53a2; fill-rule:evenodd;"/><path d="M1719.51,1145.54c-.03,1.5,1.14,2.74,2.61,2.78,1.5,.03,2.75-1.11,2.78-2.61,.23-6.89,1.8-13.82,3.86-20.03,3.3-9.93,7.81-18.03,10-21.56,.78-1.27,.39-2.91-.88-3.72-1.24-.78-2.91-.39-3.69,.88-2.29,3.69-7.06,12.25-10.52,22.71-2.19,6.67-3.89,14.08-4.15,21.56Z" style="fill:#1b2452; fill-rule:evenodd;"/><path d="M1793.47,1109.34c-16.24,37.44-51.03-8.1-63.48-.56,3.72-8.46,8.95-14.5,14.8-17.54,17.15-8.98,31.39,22.25,48.68,18.1Z" style="fill:#9588c0; fill-rule:evenodd;"/><path d="M1639.07,1134.7v48.78c0,30.74,25.16,55.9,55.93,55.9h44.23c30.74,0,55.9-25.16,55.9-55.9v-48.78h-156.06Z" style="fill:#3f4979; fill-rule:evenodd;"/><path d="M1654.89,1222.35c76.35,24.53,113-9.21,105.72-87.65h34.53v48.78c0,30.74-25.16,55.9-55.9,55.9h-44.23c-15.71,0-29.93-6.53-40.12-17.02Z" style="fill:#1b2452; fill-rule:evenodd;"/><path d="M728.98,0h533.52c43.97,0,79.94,35.97,79.94,79.91V1236.26c0,43.94-35.97,79.91-79.94,79.91H728.98c-43.97,0-79.94-35.97-79.94-79.91V79.91c0-43.94,35.97-79.91,79.94-79.91Z" style="fill:#2b2870; fill-rule:evenodd;"/><path d="M728.98,11.43h533.52c37.67,0,68.51,30.81,68.51,68.47V1236.26c0,37.67-30.84,68.51-68.51,68.51H728.98c-37.7,0-68.54-30.84-68.54-68.51V79.91c0-37.67,30.84-68.47,68.54-68.47Z" style="fill:#f3ebf4; fill-rule:evenodd;"/><path d="M728.98,39.53h533.52c22.21,0,40.41,18.16,40.41,40.38V1236.26c0,22.21-18.2,40.38-40.41,40.38H728.98c-22.25,0-40.41-18.16-40.41-40.38V79.91c0-22.21,18.16-40.38,40.41-40.38Z" style="fill:#d0c3e0; fill-rule:evenodd;"/><path d="M1457.21,417.48c-8.3-20.39-12.87-44.3-21.24-52.56-59.39-11.4-61.03,20.78-85.04,30.45,.91,7.78,4.57,16.07,11.01,24.89,3.2,34.5,14.41,54.43,33.55,59.75,5.26,4.12,13.13,5.82,23.65,5.1-.33,4.51-.95,8.85-1.63,13.1h0c7.97,37.83,46,43.74,68.41,3.79,.75-1.31,1.44-2.65,2.12-4.02-.07-.29-.1-.65-.2-.98v-.03c-2.61-14.86-4.64-27.9-6.04-39.04-.91-7.22-1.57-13.62-1.99-19.27,15.75-22.25,17.09-38.58,4.02-48.97-15.88-4.8-22.97,6.44-21.3,33.65-4.67-1.01-1.37-.03-5.33-5.85Z" style="fill:#fab688; fill-rule:evenodd;"/><path d="M1350.93,395.36c24.01-9.67,25.65-41.85,85.07-30.45,8.33,8.27,12.91,32.18,21.2,52.56,3.95,5.81,.65,4.83,5.33,5.85-1.67-27.21,5.42-38.45,21.3-33.65,13.07,10.39,11.73,26.72-4.02,48.97,.42,5.65,1.08,12.05,1.99,19.27,45.34-56.32,24.86-120.52-10.39-137.34,7.91-.36,16.3,1.47,25.19,5.49-14.02-13.88-30.51-16.96-49.53-9.25,.46-11.37-1.14-19.47-4.9-24.34,.23,7.61-.39,13.62-1.86,18-14.41-9.67-39.14-8.72-62.66,4.34-30.42,16.99-59.29,51.58-73.31,44.66,6.47,30.15,26.49,46,46.59,35.87Z" style="fill:#2c2066; fill-rule:evenodd;"/><path d="M1557.96,604.48c5.29,8.49,11.08,17.18,17.32,26.07,7.06,10.03,14.67,20.29,22.87,30.84,8.36-19.96,34.6-39.79,57.53-33.49-27.84-57.33-54.79-96.73-73.8-113.26-20.58-10.13-51.91-16.01-94.02-17.67,.07,.36,.13,.69,.2,1.01-22.05,44.3-62.3,39.27-70.53,.23-27.96,2.88-60.73,13.39-78.57,25.22-17.54,17.22-48.35,57.33-79.35,115.58,6.86,6.24,40.97,21.37,55.21,23.85,10.42-13.33,17.48-23.82,26.26-37.14,1.01,63.64,1.01,109.7-.59,141.26-1.08,21.04-2.88,46.85-5.52,56.03,42.99,59.23,178.67,60.73,240.22,14.15-11.63-79.97-17.97-157.76-17.22-232.67Z" style="fill:#9588c0; fill-rule:evenodd;"/><path d="M1556.1,662.07c-27.64-5.78-47.86-8.53-83.73-21.14-2.03-11.43-22.21-35.22-31.46-48.12-18.33,2.65,.46,25.51-.42,29.99-13.62-1.89-19.93-6.53-24.7-10.36-19.28-7.12-26.27,30.68-9.47,45.61,9.64,8.56,35.81,17.02,48.71,16.89,45.08,21.24,71.84,33.22,105.06,44.3,4.12,1.37,8.1,2.65,12.02,3.86,55.18,17.12,92.55,18.95,112.09,5.52,4.31-29.17-19.63-81.8-28.52-100.72-31.72-8.4-52.21,21.23-57.34,32.67,2.03,4.67,4.97,9.25,8.76,13.69-10.29-3.33-22.21-6.11-35.61-8.98-4.93-1.05-10.06-2.09-15.39-3.2Z" style="fill:#fab688; fill-rule:evenodd;"/><path d="M1292.65,655.77c7.68-6.21,42.4-29.08,52.17-38.52-1.5-11.4,8.13-40.74,12.02-56.09,15.35-4.02,6.57,24.01,8.49,27.87,10.36-6.57,14.14-13.13,16.92-18.39,13.43-13.46,29.3,19.37,19.93,39.27-5.33,11.37-23.95,28.52-34.3,32.96-7.84,9.28-24.76,34.43-31.26,41.95-45.74,74.68-111.7,91.73-114.73,51.13,1.37-20.58,22.35-62.59,42.11-93.83,5.06,3.07,12.94,6.99,21.27,10.59-13.26,8.53-23.33,19.93-30.19,34.14,11.11-14.8,19.34-19.83,37.57-31.07Z" style="fill:#fab688; fill-rule:evenodd;"/><path d="M1610.98,670.8c-3.66-5.52-6.96-10.94-9.87-16.27-1.08,1.99-1.99,4.05-2.74,6.14,2.12,4.87,5.23,9.6,9.28,14.24,15.48,5.1,27.15,11.5,34.17,21.43-3.49-11.47-13.79-19.96-30.84-25.55h0Zm-325.71-18.1c-13.26,8.53-23.33,19.9-30.19,34.14,11.11-14.8,19.34-19.83,37.54-31.07-2.42-.98-4.9-2.03-7.35-3.07Z" style="fill:#ed7d57; fill-rule:evenodd;"/><path d="M1570.76,665.14c.59-13.23,1.76-25.22,3.56-36-5.88-8.4-11.34-16.63-16.37-24.66-.2,19.21,.07,38.58,.79,58.12,4.12,.88,8.13,1.7,12.02,2.55h0Zm12.9,166.12c-6.27-40.64-10.32-76.77-12.15-108.33-3.14-.98-6.31-1.99-9.51-3.07,2.94,38.52,7.42,77.62,13.17,117.28,2.78-1.9,5.59-3.85,8.49-5.88Z" style="fill:#6251a1; fill-rule:evenodd;"/><path d="M1382.26,570.63c13.43-13.46,29.3,19.37,19.93,39.27-.29,.62-.62,1.27-.98,1.93-5.26,9.31-17.84,21.5-27.57,27.87-1.08,.69-2.12,1.31-3.1,1.86l1.18,20.32c.23,4.15,3.82,7.51,7.94,7.51l45.44-.07h3.04c-8.89-3.14-17.22-7.19-21.82-11.27-13.2-11.73-11.7-37.6-1.11-44.66,2.88-1.93,6.44-2.48,10.59-.95,2.22,1.76,4.77,3.72,8.23,5.52,2.78,1.4,6.17,2.71,10.45,3.72l-.98-16.69c-.65-2.38-.88-4.67-.39-6.63l-.2-3.79-2.22-38.48c-.23-4.15-3.82-7.51-7.94-7.51l-50.05,.07c-4.15,0-7.32,3.4-7.09,7.51l1.83,31.49c8.79-6.11,12.25-12.15,14.83-17.02Z" style="fill:#071023; fill-rule:evenodd;"/><path d="M1423.78,1385.95c6.79-163.57,20.45-333.81,40.15-490.07,10.94,99.31,34.11,259.78,68.61,488.6,10.55,6.01,26.89,6.92,49,2.74,23.1-188.11,22.08-370.04-2.12-553.02l-4.25,2.94c-56.06,42.44-173.64,44.99-226.62,.33-16.79,168.77-6.57,351.75,30.71,548.91,10.06,3.86,24.89,3.72,44.53-.42Z" style="fill:#38308d; fill-rule:evenodd;"/><path d="M1537.02,1428.65c20.42,.46,24.76,5.1,41.59,9.77,24.01,6.66,39.76,1.47,34.47-10.39-16.96-10.62-29.08-20.38-36.36-29.21-6.5-3.43-20.48-1.86-22.64,9.7-8.89,1.27-11.86-1.01-13.66-6.83-2.58,6.86-3.72,15.84-3.4,26.95h0Zm-110.58,2.74c-26.3,.49-29.89,4.9-43.74,7.61-34.17,9.7-56.97,4.7-49.85-8.23,20.88-10.62,35.8-20.39,44.76-29.21,8-3.43,16.3-.2,24.93,9.7,10.94,1.24,17.51-1.05,19.73-6.83,3.2,6.86,4.61,15.84,4.18,26.95Z" style="fill:#071023; fill-rule:evenodd;"/><path d="M1383.31,1387.65c.13,4.54-.39,8.79-1.63,12.74,6.73-.95,13.69,2.68,20.84,10.88,10,1.14,16.37-.65,19.05-5.39-1.6-6.11-2.55-12.38-2.94-18.88-14.73,2.68-26.5,2.91-35.32,.65h0Zm157.24,.1c.13,4.97,.1,9.61-.13,13.95,1.8,5.82,4.77,8.1,13.66,6.83,1.96-10.49,13.62-12.74,20.61-10.55-.26-3.23-.36-6.44-.26-9.54-13.85,2.03-25.16,1.8-33.88-.69Z" style="fill:#fab688; fill-rule:evenodd;"/><path d="M1451.82,464.1c-5.95,9.57-16.86,16.56-32.67,21.01-.33,4.51-.95,8.85-1.63,13.1,18.42-6.24,29.86-17.61,34.3-34.11Z" style="fill:#ed7d57; fill-rule:evenodd;"/><path d="M1562.53,726.53c-82.39,8.43-156,7.97-220.91-1.37,.1-7.32,.13-15.09,.13-23.36,68.44,5.65,127.47,6.31,177.16,2.03,13.85,5.75,26.92,10.65,41.16,15.42l1.93,.62v0l9.51,3.07c.03,.85,.1,1.73,.13,2.61-3.04,.33-6.11,.65-9.12,.98Z" style="fill:#c2b5d9; fill-rule:evenodd;"/><path d="M1469.19,681.61c-44.49,1.34-86.05-1.01-124.7-7.09,5.65-7.68,12.51-17.48,18-24.76,2.81,.23,5.65,.46,8.56,.65l.65,11.47c.23,4.15,3.82,7.51,7.94,7.51l45.44-.07,3-.03c.79,.29,1.57,.56,2.35,.82,9.05,2.97,18.36,4.9,24.57,4.84,4.93,2.32,9.64,4.54,14.18,6.66h0Zm89.09-33.26c4.54-.36,9.12-.69,13.69-1.05-.36,3.76-.65,7.61-.88,11.6-.16,2.38-.26,4.44-.33,6.24l-12.02-2.55-2.65-.52c-17.64-3.69-32.25-6.14-49.85-10.72,16.82-.72,34.17-1.73,52.04-3.01Z" style="fill:#c2b5d9; fill-rule:evenodd;"/><path d="M679.71,1444.2c-45.44-.72-79.39-1.28-95.1-6.24-16.92-5.32-13.43-15.68-3.69-32.18,42.83,19.7,31.39-4.05,51.45-1.05,14.08,11.34,34.92,18.95,62.53,22.8,11.7,8.59,6.93,16.27-15.19,16.66Z" style="fill:#071023; fill-rule:evenodd;"/><path d="M621.33,751.72H340.54c-5.55,0-11.27,4.54-12.71,10.06l-49.95,190.27c-1.47,5.52,1.86,10.06,7.42,10.06h280.79c5.55,0,11.27-4.54,12.71-10.06l49.98-190.27c1.44-5.52-1.89-10.06-7.45-10.06Z" style="fill:#ccced0; fill-rule:evenodd;"/><path d="M321.82,757.2l-33.91,129.17c-40.74-19.9-89.81-51.78-141.26-92.71-1.4-18.39-3.1-33.09-5.16-44.04,4.15-8.2,8.66-16.95,13.59-26.27-47.5-.29-76.45-10.52-86.9-30.64,12.71-37.18,30.48-75.14,53.28-113.88,15.98-23.59,47.21-37.47,93.76-41.62,5.42,62.43,101.18,59.23,78.67,5.49,34.73,9.34,64.16,26.56,88.27,51.68,20.74,51.13,33.39,86.8,37.96,107.02-22.54,15.78-43.87,26-64.03,30.64-.91,4.44-1.67,9.44-2.19,15.09h-19.37c-5.52,0-11.24,4.54-12.71,10.06Z" style="fill:#f59b1d; fill-rule:evenodd;"/><path d="M287.91,886.38l33.91-129.17c1.47-5.52,7.19-10.06,12.71-10.06h280.82c5.52,0,15.39,7.15,13.75,12.64,.26-4.61-2.91-8.07-7.78-8.07H340.54c-5.55,0-11.27,4.54-12.71,10.06l-49.95,190.27c-.88,3.33-.03,6.27,1.99,8.1-4.64-2.97-9.05-8.76-8-12.68l16.04-61.09Z" style="fill:#85868b; fill-rule:evenodd;"/><path d="M285.3,962.1h280.79c1.05,0,2.09-.16,3.1-.46-5.59,14.51-20.78,12.35-26.72,12.32H209.54c-18.03-.78-17.58-13.43-17.8-25.61h80.01c-.26,3.85,3.82,9.02,8.13,11.79,1.34,1.24,3.2,1.96,5.42,1.96Z" style="fill:#85868b; fill-rule:evenodd;"/><path d="M324.6,829.96c30.09,15.22,65.7,19.9,102.32,21.79-.39,1.31-.72,2.65-.95,4.02-2.45,15.42,8.43,28.59,24.14,28.59,14.8,0,28.26-11.73,30.55-26.3,.26-1.6,.36-3.14,.33-4.67,38.03,1.01,74.75,3.1,105.13,15l-20.88,79.55H293.6l31-117.97Z" style="fill:#a9abb1; fill-rule:evenodd;"/><path d="M456.19,838.68c-10.06,0-19.5,8.17-21.1,18.23-1.6,10.06,5.29,18.23,15.35,18.23s19.5-8.17,21.1-18.23c1.6-10.06-5.26-18.23-15.35-18.23Z" style="fill:#8d8f94; fill-rule:evenodd;"/><path d="M133.09,915.75c5.62-17.09,9.64-34.79,12.09-53.15,37.83,14.64,81.09,28.78,135.74,50.34l-7.38,28.16c-82.62,2.68-129.43-5.75-140.44-25.35Z" style="fill:#f59b1d; fill-rule:evenodd;"/><path d="M280.92,912.94c-54.66-21.56-97.91-35.71-135.74-50.34-33.32-12.9-62.43-26.2-91.44-45.41,1.21-37.01,6.73-72.85,22.05-114.37,14.08,13.46,40.51,20.29,79.29,20.55-11.24,21.2-20.39,39.5-27.44,54.88,58.31,48.35,114.54,85.82,160.27,108.13l-6.99,26.56Z" style="fill:#fab688; fill-rule:evenodd;"/><path d="M412.84,706.34c4.21,14.73,8.1,28.32,11.7,40.8h-70.63c.52-5.65,1.27-10.65,2.19-15.09,17.97-4.15,36.88-12.71,56.75-25.71Z" style="fill:#fab688; fill-rule:evenodd;"/><path d="M584.29,1390.82c-41.75-151.49-56.71-257.89-44.79-319.24-23.75,3.4-47.6,4.44-71.51,3.2,3.63-16.4,7.29-32.83,11.01-49.46-.42-22.61-11.96-39.33-52.89-51.36h116.37c3.99,0,12.05,.98,18.65-2.68,37.47,10.71,55.8,28.39,62.04,49.98,4.57,59.43-7.77,127.12,2.78,370.01-13.13,1.34-27.02,1.21-41.65-.46Z" style="fill:#071023; fill-rule:evenodd;"/><path d="M540.67,973.96h1.8c3.99,0,12.05,.98,18.65-2.68,37.47,10.71,55.8,28.39,62.04,49.98,4.57,59.43-7.77,127.12,2.78,370.01-7.84,.78-15.94,1.08-24.31,.82-21.56-84.45-72.92-291.54-15.09-380.79-13.56-14.37-28.85-26.85-45.87-37.34Z" style="fill:#1b2452; fill-rule:evenodd;"/><path d="M215.29,537.86c7.42-9.47,13.98-18.26,15.91-24.5-1.5-4.28-3.07-9.67-4.7-16.2-27.87-18.95-31.69-32.93-11.43-42.01,4.08,2.29,9.15,9.31,15.22,21.14,4.8-.2,8.49-2.68,10.98-7.42-5.78-19.93-9.51-36.13-11.24-48.55,13.72-20.42,45.83-23.33,88.37-17.84,1.99,11.34,3.59,23.33,4.87,35.97,7.51,6.93,6.53,32.64-.39,62.23,3.46,16.83-6.93,26-31.17,27.54-.36,5.98,1.99,13.59,2.19,14.47h0v.03s.03,.1,.07,.16c22.12,53.35-72.62,56.65-78.67-5.03Z" style="fill:#fab688; fill-rule:evenodd;"/><path d="M318.39,402.48c-42.54-5.52-74.65-2.58-88.37,17.84,1.73,12.41,5.46,28.62,11.24,48.55-2.48,4.74-6.17,7.22-10.98,7.42-6.08-11.79-11.14-18.85-15.22-21.14-20.25,9.08-16.43,23.06,11.43,42.01,1.63,6.53,3.2,11.92,4.7,16.2-25.06-5.62-46.03-28.06-49-37.77-29.24-57.63,3.37-82,20.84-90.89,7.71-57.07,90.59-6.6,132.15-34.14,16.5,22.8-3.92,51.42-16.79,51.91Z" style="fill:#733e19; fill-rule:evenodd;"/><path d="M260.21,527.51c11.73,.91,22.21,1.18,31.49,.72-.23,4.12,.78,9.02,1.54,11.96-15.06-.39-26.04-4.64-33.03-12.68Z" style="fill:#ed7d57; fill-rule:evenodd;"/><path d="M388.66,1064.03H135.28c-9.05,0-16.43,7.42-16.43,16.47h0c0,9.05,7.38,16.46,16.43,16.46h253.38c9.05,0,16.47-7.42,16.47-16.46h0c0-9.05-7.42-16.47-16.47-16.47Z" style="fill:#712c14; fill-rule:evenodd;"/><path d="M150.41,1375.86c12.12-12.12,28.85-19.67,47.27-19.67h128.62c18.43,0,35.15,7.55,47.24,19.67,12.12,12.09,19.67,28.81,19.67,47.24v13.49h5.13v16.69h-37.96v-16.69h5.16v-13.49c0-10.78-4.41-20.58-11.53-27.7-7.12-7.09-16.92-11.53-27.7-11.53H197.68c-10.78,0-20.58,4.44-27.7,11.53-7.12,7.12-11.53,16.92-11.53,27.7v13.49h5.16v16.69h-37.96v-16.69h5.13v-13.49c0-18.42,7.51-35.15,19.63-47.24Z" style="fill:#a14527; fill-rule:evenodd;"/><rect x="248.15" y="1096.96" width="27.67" height="259.23" style="fill:#a14527;"/><path d="M173.37,1062.99c-49-17.57-55.67-66.38-34.11-140.12,17.71,14.47,62.46,20.55,134.27,18.23l-1.67,6.37c-.06,.29-.13,.56-.13,.88h-80.01c.23,12.19-.23,24.83,17.8,25.61h216.56c40.93,12.02,52.47,28.75,52.89,51.36-25.91,115.78-48.97,221.95-80.37,368.7-10.58,5.95-25.09,5.49-43.45-1.37-14.73-142.27-10.72-245.77,12.12-310.42-60.6,.23-125.25-8.04-193.92-19.24Z" style="fill:#1b2452; fill-rule:evenodd;"/><path d="M173.37,1062.99c-49-17.57-55.67-66.38-34.11-140.12,3.76,3.07,8.76,5.78,14.96,8.1-17.84,75.76,1.57,117.28,59.13,121.27,67.17,9.96,122.87,14.77,167.07,14.38-19.47,126.33-22.84,236.46-10.03,330.42-4.74-.88-9.8-2.35-15.22-4.38-14.73-142.27-10.72-245.77,12.12-310.42-60.6,.23-125.25-8.04-193.92-19.24Z" style="fill:#071023; fill-rule:evenodd;"/><path d="M621.53,1391.67c1.21,4.54,3.2,8.85,5.95,12.87-13.1,1.24-8.04,18.1-43.45,2.61,1.5-4.44,2.35-9.83,2.51-16.11,12.19,1.27,23.85,1.47,34.99,.62Z" style="fill:#fab688; fill-rule:evenodd;"/><path d="M398.5,1470.8c-24.11-9.96-27.74-26.17-41-32.38-13.36-6.24-14.9-17.35-1.83-29.4,9.64,7.71,21.59,17.18,27.96,12.15,4.21-3.33,18.59-3.14,21.43,1.76,12.51,29.08,29.89,19.86,33.32,33.09,.39,17.61-24.7,21.01-39.89,14.77Z" style="fill:#071023; fill-rule:evenodd;"/><path d="M394.38,1395.98c-.2,7.71,.85,15.49,3.17,23.26-5.16-.82-11.37-.1-13.92,1.93-5.88,4.64-16.6-3.14-25.81-10.46,1.5-4.15,2.48-9.54,3.01-16.11,13.49,4.21,24.67,4.67,33.55,1.37Z" style="fill:#fab688; fill-rule:evenodd;"/><path d="M155.08,723.36c6.24-11.27,12.84-26.46,19.8-45.54-3.76,22.21-3.56,38.22-9.6,56.48,4.87,25.81,6.89,52.14,6.4,78.73-8.27-6.21-16.63-12.68-25.02-19.37-1.4-18.39-3.1-33.09-5.16-44.04,4.15-8.2,8.66-16.95,13.59-26.27h0Zm215.52,4.44c-4.9,1.73-9.74,3.14-14.5,4.25,1.8-28.26,2.97-51.62,3.56-70.08,5.46,27.25,9.08,49.2,10.94,65.83h0Zm-237.5,187.95c5.62-17.09,9.64-34.79,12.09-53.15,7.02,2.71,14.21,5.39,21.63,8.13-2.97,20.09-7.22,40.22-12.64,60.21-10.55-3.95-17.58-9.02-21.07-15.19Z" style="fill:#ea7924; fill-rule:evenodd;"/><path d="M743.16,135.28h223.49c5.85,0,10.65,4.77,10.65,10.62v112.61c-63.25,8.23-113.33,58.31-121.56,121.53h-112.58c-5.85,0-10.65-4.77-10.65-10.62V145.9c0-5.85,4.8-10.62,10.65-10.62Z" style="fill:#9588c0; fill-rule:evenodd;"/><path d="M1024.83,135.28h223.49c5.85,0,10.65,4.77,10.65,10.62v223.52c0,5.85-4.8,10.62-10.65,10.62h-112.58c-8.27-63.21-58.35-113.3-121.56-121.53v-112.61c0-5.85,4.77-10.62,10.65-10.62Z" style="fill:#5a53a2; fill-rule:evenodd;"/><path d="M732.51,651.1v-223.52c0-5.85,4.8-10.65,10.65-10.65h112.58c8.23,63.25,58.31,113.33,121.56,121.56v112.61c0,5.85-4.8,10.62-10.65,10.62h-223.49c-5.85,0-10.65-4.77-10.65-10.62Z" style="fill:#5a53a2; fill-rule:evenodd;"/><path d="M1248.32,661.71h-223.49c-5.88,0-10.65-4.77-10.65-10.62v-112.61c63.21-8.23,113.3-58.31,121.56-121.56h112.58c5.85,0,10.65,4.8,10.65,10.65v223.52c0,5.85-4.8,10.62-10.65,10.62Z" style="fill:#9588c0; fill-rule:evenodd;"/><path d="M995.72,269.16c71.45,0,129.37,57.89,129.37,129.34s-57.92,129.34-129.37,129.34-129.34-57.89-129.34-129.34,57.92-129.34,129.34-129.34h0Zm0,19.31c-60.76,0-110,49.27-110,110.03s49.23,110.03,110,110.03,110.03-49.27,110.03-110.03-49.26-110.03-110.03-110.03Z" style="fill:#8071b3; fill-rule:evenodd;"/><path d="M1006.34,360.6c-3.53-4.18-7.06-8.07-10.62-11.66-3.53,3.59-7.06,7.51-10.58,11.66,7.06-.29,14.15-.29,21.2,0h0Zm9.25,.56c-4.93-6.17-9.96-11.89-15-16.99,4.67-4.38,9.25-8.17,13.69-11.37,13.46-9.64,25.09-13.39,31.72-8.92,6.63,4.48,7.58,16.66,3.66,32.77-.72,3.01-1.6,6.14-2.68,9.34-9.47-2.25-20.06-3.92-31.39-4.83h0Zm20.65,30.25c3.33-6.53,6.17-12.87,8.46-18.95-7.19-1.7-15.06-3.04-23.46-3.92,5.39,7.35,10.42,15,14.99,22.87h0Zm3.95,7.09c4.51-8.4,8.23-16.6,11.14-24.34,3.27,.92,6.34,1.93,9.25,3.01,15.52,5.75,25.12,13.33,25.12,21.33s-9.6,15.58-25.12,21.33c-2.91,1.08-5.98,2.09-9.25,3.01-2.91-7.74-6.63-15.94-11.14-24.34h0Zm13.39,30.77c1.05,3.27,1.96,6.44,2.71,9.47,4.57,18.95,2.78,33.78-6.47,40.02-9.25,6.21-23.69,2.32-39.53-9.05-4.74-3.36-9.61-7.45-14.57-12.12-4.93,4.67-9.83,8.76-14.54,12.12-15.32,11.01-29.3,15-38.58,9.64h-.06l-.88-.59c-9.24-6.24-11.04-21.07-6.47-40.02,.75-3.04,1.63-6.21,2.71-9.47-3.3-.95-6.44-1.96-9.38-3.07-18.26-6.76-29.56-16.56-29.56-27.7s11.3-20.94,29.56-27.74c2.94-1.08,6.08-2.09,9.38-3.04-1.08-3.27-1.96-6.44-2.71-9.47-4.57-18.95-2.78-33.78,6.47-40.02,9.25-6.24,23.69-2.32,39.53,9.02,4.7,3.4,9.6,7.48,14.54,12.15,4.97-4.67,9.83-8.76,14.57-12.15,15.84-11.34,30.28-15.26,39.53-9.02,9.25,6.24,11.04,21.07,6.47,40.02-.75,3.04-1.67,6.21-2.71,9.47,3.3,.95,6.44,1.96,9.38,3.04,18.26,6.79,29.57,16.6,29.57,27.74s-11.3,20.94-29.57,27.7c-2.94,1.11-6.08,2.12-9.38,3.07h0Zm-62.69,23.55c-5.03-5.13-10.06-10.81-15-17.02-11.34-.88-21.95-2.55-31.43-4.8-1.04,3.2-1.93,6.34-2.68,9.34-3.89,16.07-2.97,28.26,3.66,32.73l.03,.03c6.63,4.44,18.26,.72,31.72-8.92,4.44-3.2,9.02-6.99,13.69-11.37h0Zm-20.65-24.37c-5.39-7.35-10.42-15-15-22.87-3.33,6.53-6.17,12.9-8.49,18.98,7.22,1.67,15.09,3.01,23.49,3.89h0Zm-18.98-29.96c-4.48-8.4-8.2-16.6-11.11-24.34-3.27,.92-6.37,1.93-9.25,3.01-15.55,5.75-25.12,13.33-25.12,21.33s9.57,15.58,25.12,21.33c2.88,1.08,5.98,2.09,9.25,3.01,2.88-7.74,6.63-15.94,11.11-24.34h0Zm98.4,41.85c-.72-3.01-1.6-6.14-2.68-9.34-9.47,2.25-20.06,3.92-31.39,4.8-4.93,6.21-9.96,11.89-15,17.02,4.64,4.38,9.25,8.17,13.69,11.37,13.46,9.64,25.09,13.39,31.72,8.92,6.63-4.48,7.58-16.69,3.66-32.77h0Zm-4.97-15.78c-2.29-6.08-5.13-12.45-8.46-18.98-4.57,7.87-9.6,15.52-14.99,22.87,8.4-.88,16.27-2.22,23.46-3.89h0Zm-12.25-26.07c-5.95,10.65-12.87,21.1-20.35,30.74-10.88,.72-21.86,.72-32.73,0-7.48-9.7-14.34-20.03-20.32-30.74,5.98-10.72,12.84-21.04,20.32-30.74,10.88-.72,21.85-.72,32.73,0,7.51,9.7,14.37,20.03,20.35,30.74h0Zm-41.55-54.33c-5.03,5.1-10.06,10.81-15,16.99-11.34,.91-21.95,2.58-31.43,4.83-1.04-3.2-1.93-6.34-2.68-9.34-3.89-16.11-2.97-28.29,3.69-32.77,6.63-4.48,18.26-.72,31.72,8.92,4.44,3.2,9.02,6.99,13.69,11.37h0Zm-44.14,28.29c2.32,6.08,5.16,12.41,8.49,18.95,4.57-7.87,9.6-15.55,15-22.87-8.4,.88-16.27,2.22-23.49,3.92h0Zm38.39,63.9c3.53,4.18,7.06,8.1,10.58,11.7,3.56-3.59,7.09-7.51,10.62-11.7-7.06,.33-14.15,.33-21.2,0Z" style="fill:#5a53a2; fill-rule:evenodd;"/><path d="M995.72,416.76c10.06,0,18.26-8.2,18.26-18.26s-8.2-18.26-18.26-18.26-18.26,8.2-18.26,18.26,8.2,18.26,18.26,18.26Z" style="fill:#5a53a2; fill-rule:evenodd;"/><path d="M756.65,732.47v8.53h-9.05l-.33,.03h.03c-.46,.07-1.21,.2-1.63,.39l-3.04-7.97c1.73-.65,3.63-.98,5.46-.98h8.56Zm-22.51,8.62c-1.08,2.16-1.63,4.54-1.63,6.96v3.3h8.53v-3.3l.03-.56v.03l.03-.33v.03c.13-.88,.29-1.5,.69-2.32l-7.64-3.82h0Zm-1.63,18.79h8.53v8.56h-8.53v-8.56h0Zm0,17.09h8.53v8.53h-8.53v-8.53h0Zm0,17.09h8.53v8.53h-8.53v-8.53h0Zm0,17.05h8.53v8.53h-8.53v-8.53h0Zm0,17.09h8.53v8.53h-8.53v-8.53h0Zm0,17.05h8.53v8.56h-8.53v-8.56h0Zm0,17.09h8.53v8.53h-8.53v-8.53h0Zm0,17.05h8.53v8.56h-8.53v-8.56h0Zm0,17.08h8.53v8.53h-8.53v-8.53h0Zm0,17.09h8.53v8.53h-8.53v-8.53h0Zm0,17.05h8.53v8.53h-8.53v-8.53h0Zm3.04,19.11c2.38,3.27,5.75,5.36,9.7,6.14l1.54-8.4c-.75-.16-1.37-.36-2.06-.75-.39-.2-.69-.42-1.05-.69-.39-.36-.72-.69-1.08-1.08l-.2-.26-6.86,5.03h0Zm19.01,6.4v-8.53h8.53v8.53h-8.53Zm17.05,0v-8.53h8.53v8.53h-8.53Zm17.05,0v-8.53h8.56v8.53h-8.56Zm17.09,0v-8.53h8.53v8.53h-8.53Zm17.09,0v-8.53h8.53v8.53h-8.53Zm17.05,0v-8.53h8.56v8.53h-8.56Zm17.09,0v-8.53h8.53v8.53h-8.53Zm17.05,0v-8.53h8.56v8.53h-8.56Zm17.09,0v-8.53h8.53v8.53h-8.53Zm17.05,0v-8.53h8.56v8.53h-8.56Zm17.09,0v-8.53h8.53v8.53h-8.53Zm17.09,0v-8.53h8.53v8.53h-8.53Zm17.81-.23c4.02-.75,7.32-2.88,9.77-6.08l-6.89-5.06,.03-.03-.16,.23c-.36,.39-.69,.72-1.08,1.08-.36,.26-.69,.49-1.04,.69-.72,.39-1.37,.62-2.16,.75l1.54,8.43h0Zm12.84-16.66h-8.53v-8.53h8.53v8.53h0Zm0-17.09h-8.53v-8.53h8.53v8.53h0Zm0-17.05h-8.53v-8.53h8.53v8.53h0Zm0-17.09h-8.53v-8.53h8.53v8.53h0Zm0-17.05h-8.53v-8.56h8.53v8.56h0Zm0-17.09h-8.53v-8.53h8.53v8.53h0Zm0-17.05h-8.53v-8.56h8.53v8.56h0Zm0-17.08h-8.53v-8.53h8.53v8.53h0Zm0-17.09h-8.53v-8.53h8.53v8.53h0Zm0-17.05h-8.53v-8.53h8.53v8.53h0Zm0-17.05h-8.53v-8.56h8.53v8.56h0Zm0-17.09h-8.53v-3.4l-.03-.56v.03l-.03-.33v.03c-.13-.91-.29-1.44-.69-2.29l7.71-3.72c1.01,2.16,1.57,4.41,1.57,6.83v3.4h0Zm-10.06-17.97c-1.31-.65-4.05-1.01-5.52-1.01h-4.44v8.53h4.93l.33,.03h-.03c.49,.1,1.27,.2,1.7,.42l3.04-7.97h0Zm-18.49-1.01v8.53h-8.53v-8.53h8.53Zm-17.09,0v8.53h-8.53v-8.53h8.53Zm-17.05,0v8.53h-8.56v-8.53h8.56Zm-17.09,0v8.53h-8.53v-8.53h8.53Zm-17.05,0v8.53h-8.56v-8.53h8.56Zm-17.09,0v8.53h-8.53v-8.53h8.53Zm-17.09,0v8.53h-8.53v-8.53h8.53Zm-17.05,0v8.53h-8.53v-8.53h8.53Zm-17.09,0v8.53h-8.53v-8.53h8.53Zm-17.05,0v8.53h-8.53v-8.53h8.53Zm-17.09,0v8.53h-8.53v-8.53h8.53Z" style="fill:#9588c0; fill-rule:evenodd;"/><path d="M741.13,1031.62h509.21c4.76,0,8.62,3.86,8.62,8.62v146.78c0,4.76-3.86,8.62-8.62,8.62h-509.21c-4.76,0-8.62-3.86-8.62-8.62v-146.78c0-4.76,3.86-8.62,8.62-8.62Z" style="fill:#b6a9d2;"/><path d="M1048.94,806.83h198.73c6.21,0,11.3,5.06,11.3,11.27h0c0,6.21-5.1,11.3-11.3,11.3h-198.73c-6.24,0-11.3-5.1-11.3-11.3h0c0-6.21,5.06-11.27,11.3-11.27h0Zm0,118.36h198.73c6.21,0,11.3,5.06,11.3,11.27h0c0,6.24-5.1,11.3-11.3,11.3h-198.73c-6.24,0-11.3-5.06-11.3-11.3h0c0-6.21,5.06-11.27,11.3-11.27h0Zm0-59.2h198.73c6.21,0,11.3,5.1,11.3,11.3h0c0,6.21-5.1,11.27-11.3,11.27h-198.73c-6.24,0-11.3-5.06-11.3-11.27h0c0-6.21,5.06-11.3,11.3-11.3Z" style="fill:#9588c0; fill-rule:evenodd;"/></svg>