<?xml version="1.0" encoding="UTF-8"?><svg id="a" xmlns="http://www.w3.org/2000/svg" viewBox="0 0 2345.69 1518.12"><path d="M339.15,147.1c340.61-126.45,686.8-14.65,921.59,228.83,117.42,121.78,299.38,79.7,484.64,37.63,185.14-42.05,373.59-84.1,504.22,37.41,178.33,165.89,96.65,592.42-147.89,777.17-332.39,251.1-1570.66,258.64-1776.12,172.47-351.08-147.24-2.23-419.91-166.12-681.3C-33.87,410.95,188.63,202.99,339.15,147.1Z" style="fill:#e9eff8; fill-rule:evenodd;"/><path d="M549.97,737.61v46.66h40.82v-46.66h-40.82Zm58.61,0v46.66h40.82v-46.66h-40.82Zm-117.23,0v46.66h40.81v-46.66h-40.81Zm58.61,74.37v46.66h40.82v-46.66h-40.82Zm58.61,0v46.66h40.82v-46.66h-40.82Zm-117.23,0v46.66h40.81v-46.66h-40.81Zm58.61,74.36v46.66h40.82v-46.66h-40.82Zm58.61,0v46.66h40.82v-46.66h-40.82Zm-117.23,0v46.66h40.81v-46.66h-40.81Zm58.61,74.37v46.67h40.82v-46.67h-40.82Zm58.61,0v46.67h40.82v-46.67h-40.82Zm-117.23,0v46.67h40.81v-46.67h-40.81Zm58.61,74.37v46.66h40.82v-46.66h-40.82Zm58.61,0v46.66h40.82v-46.66h-40.82Zm-117.23,0v46.66h40.81v-46.66h-40.81Zm444.34-204.58v34.99h30.61v-34.99h-30.61Zm43.96,0v34.99h30.61v-34.99h-30.61Zm-87.93,0v34.99h30.61v-34.99h-30.61Zm43.96,55.78v34.99h30.61v-34.99h-30.61Zm43.96,0v34.99h30.61v-34.99h-30.61Zm-87.93,0v34.99h30.61v-34.99h-30.61Zm43.96,55.78v34.99h30.61v-34.99h-30.61Zm43.96,0v34.99h30.61v-34.99h-30.61Zm-87.93,0v34.99h30.61v-34.99h-30.61Zm43.96,55.78v35h30.61v-35h-30.61Zm43.96,0v35h30.61v-35h-30.61Zm-87.93,0v35h30.61v-35h-30.61Zm43.96,55.78v34.99h30.61v-34.99h-30.61Zm43.96,0v34.99h30.61v-34.99h-30.61Zm-87.93,0v34.99h30.61v-34.99h-30.61Zm-14.63-241.63h147.8v297.24h-147.8v-297.24h0Zm-119.73-294.4h31.25v56.94h-31.25v-56.94h0Zm44.88,0h31.26v56.94h-31.26v-56.94h0Zm-44.88,85.42h31.25v56.95h-31.25v-56.95h0Zm44.88,0h31.26v56.95h-31.26v-56.95h0Zm-89.76,0h31.25v56.95h-31.25v-56.95h0Zm44.88,85.42h31.25v56.95h-31.25v-56.95h0Zm44.88,0h31.26v56.95h-31.26v-56.95h0Zm-89.76,0h31.25v56.95h-31.25v-56.95h0Zm44.88,85.42h31.25v56.95h-31.25v-56.95h0Zm44.88,0h31.26v56.95h-31.26v-56.95h0Zm-89.76,0h31.25v56.95h-31.25v-56.95h0Zm44.88,85.43h31.25v56.94h-31.25v-56.94h0Zm44.88,0h31.26v56.94h-31.26v-56.94h0Zm-89.76,0h31.25v56.94h-31.25v-56.94h0Zm44.88,85.42h31.25v56.95h-31.25v-56.95h0Zm44.88,0h31.26v56.95h-31.26v-56.95h0Zm-89.76,0h31.25v56.95h-31.25v-56.95h0Zm44.88,85.42h31.25v56.95h-31.25v-56.95h0Zm44.88,0h31.26v56.95h-31.26v-56.95h0Zm-89.76,0h31.25v56.95h-31.25v-56.95h0Zm0-512.54h31.25v56.94h-31.25v-56.94h0Zm-21.28,591.65h163.58V390.23l-163.58,104.82v614.18h0Zm-219.37-396.31h197.05v396.31h-197.05v-396.31Z" style="fill:#fff; fill-rule:evenodd;"/><path d="M439.89,362.94c2.74,0,5.36,.45,7.75,1.25-.26-1.25-.4-2.55-.4-3.87,0-11.37,9.88-20.58,22.06-20.58,2.16,0,4.25,.29,6.22,.83,3.08-14.55,16.54-25.49,32.66-25.49,18.41,0,33.32,14.26,33.32,31.85,0,3.02-.44,5.95-1.27,8.72,12.05,.81,21.52,9.27,21.52,20.19s-10.44,19.6-16.86,21.4c-.97,.27-2.28,.25-3.82,0h-101.18c-11.37,0-20.58-7.68-20.58-17.16s9.22-17.15,20.58-17.15Z" style="fill:#fff; fill-rule:evenodd;"/><path d="M679.37,237.16c3.63,0,7.08,.59,10.24,1.66-.34-1.66-.52-3.37-.52-5.12,0-15.03,13.06-27.22,29.16-27.22,2.86,0,5.61,.39,8.22,1.1,4.08-19.23,21.86-33.71,43.19-33.71,24.33,0,44.06,18.86,44.06,42.12,0,4-.58,7.87-1.67,11.53,15.92,1.07,28.46,12.27,28.46,26.71s-13.81,25.92-22.3,28.29c-1.27,.36-3.01,.33-5.05,0h-133.8c-15.03,0-27.21-10.16-27.21-22.68s12.18-22.68,27.21-22.68Z" style="fill:#fff; fill-rule:evenodd;"/><ellipse cx="1096.8" cy="1463.85" rx="858.65" ry="54.26" style="fill:#d0d9ee;"/><path d="M125.93,1005.61s-56.02-28.9-45.75-99.83c10.27-70.95-33.12-93.38-44.13-114.48-11.01-21.1,13.67-55.14,10.87-84.94-2.8-29.8-37.17-37.77-21.07-78.66,16.1-40.87,2.48-56.4-18.73-100.19-21.2-43.79,10.21-110.71,25.15-110.34s-3.27,16.02,9.85,45.13c13.13,29.1,68.49,37.97,85.81,62.31,17.33,24.34-13.12,56.59,6.64,89.44,19.77,32.85,78.67,22.67,94.24,54.55,15.58,31.89-21.56,70.09-10.75,103.52,10.8,33.42,50.58,52.36,67.32,79.22,16.74,26.85,48.1,78.29-3.26,139.71-51.35,61.41-156.21,14.57-156.21,14.57Z" style="fill:#d0d9ee; fill-rule:evenodd;"/><path d="M79.49,933.66c-.3-2.8-.48-5.69-.54-8.66l152.22,85.54-13.47-34.99c-.06-.14-.13-.3-.17-.45l-6.91-17.94-128.89-72.43c0-2.95-.11-5.8-.32-8.55l125.1,70.3-12.18-31.64-119.07-66.92c-1.53-4.03-3.26-7.77-5.15-11.26l120.12,67.49-6.05-15.7c-.07-.16-.14-.31-.18-.48l-26.45-68.71-119.19-66.99c.7-2.35,1.44-4.74,2.16-7.15l112.92,63.46-13.21-34.3-93.9-52.77c.4-2.65,.67-5.31,.78-7.93l89.01,50.02-9.93-25.8c-.06-.12-.1-.25-.14-.37l-28.86-74.97-69.68-39.16c.88-2.44,1.64-4.8,2.28-7.08l63.29,35.56-25.2-65.46c-.06-.12-.11-.25-.15-.38l-41.59-108.05c-.72-1.88,.21-3.99,2.09-4.71,1.88-.73,3.98,.21,4.71,2.08l37.8,98.19,21.6-73.79c2.23,1.12,4.45,2.24,6.62,3.38l-23.91,81.63,28.41,73.78c.04,.09,.08,.2,.11,.3l26.26,68.22,41.47-88.91c2.34,.75,4.69,1.46,7.05,2.16l-44.88,96.22,10.01,26,54.64-116.23c2.35,.8,4.65,1.66,6.86,2.57l-57.09,121.43,.87,.48c1.75,.99,2.38,3.21,1.39,4.96-.28,.5-.67,.92-1.12,1.23l14.75,38.33c.05,.11,.1,.22,.13,.33l23.89,62.04,40.47-86.09c1.6,2.18,3.29,4.3,5.08,6.37l-41.92,89.16,6.15,15.95,44.89-95.47c1.83,1.79,3.7,3.56,5.58,5.3l-46.84,99.61,15.66,40.69c.05,.11,.09,.21,.13,.32l4.33,11.27,57.5-122.32c1.8,2.14,3.48,4.32,5,6.54l-58.86,125.22,16.57,43.02c.04,.1,.08,.2,.11,.31l.05,.13c-2.87,.9-5.78,1.67-8.7,2.3l-153.52-86.28Z" style="fill:#e9eff8; fill-rule:evenodd;"/><path d="M2139.43,511.03s41.6-21.45,33.97-74.13c-7.62-52.68,24.6-69.33,32.77-85.01,8.17-15.66-10.15-40.94-8.07-63.07,2.08-22.13,27.6-28.05,15.65-58.41-11.96-30.35-1.85-41.88,13.9-74.4,15.75-32.52-7.58-82.21-18.67-81.93-11.1,.27,2.43,11.89-7.32,33.51-9.74,21.61-50.85,28.19-63.72,46.27-12.86,18.07,9.74,42.02-4.94,66.42-14.67,24.4-58.41,16.83-69.98,40.51-11.56,23.67,16.01,52.04,7.99,76.87-8.02,24.82-37.55,38.88-49.99,58.83-12.43,19.94-35.71,58.13,2.42,103.74,38.12,45.61,115.99,10.81,115.99,10.81Z" style="fill:#e9eff8; fill-rule:evenodd;"/><path d="M2173.92,457.6c.22-2.08,.36-4.22,.4-6.44l-113.03,63.52,10.01-25.98c.04-.11,.09-.22,.12-.33l5.13-13.32,95.71-53.79c.01-2.19,.09-4.31,.24-6.34l-92.9,52.21,9.05-23.5,88.42-49.69c1.14-2.99,2.43-5.76,3.83-8.36l-89.19,50.12,4.5-11.66c.05-.12,.09-.24,.13-.36l19.65-51.03,88.5-49.73c-.52-1.76-1.06-3.53-1.6-5.31l-83.85,47.13,9.8-25.48,69.73-39.18c-.29-1.97-.5-3.94-.58-5.89l-66.1,37.14,7.38-19.15c.04-.09,.07-.19,.1-.28l21.43-55.67,51.75-29.08c-.65-1.82-1.22-3.57-1.7-5.26l-46.99,26.41,18.71-48.61c.04-.1,.08-.19,.11-.28l30.89-80.24c.53-1.4-.16-2.96-1.55-3.5-1.39-.54-2.96,.16-3.5,1.55l-28.07,72.91-16.04-54.8c-1.66,.84-3.3,1.67-4.91,2.52l17.75,60.61-21.09,54.79c-.04,.06-.06,.14-.09,.22l-19.5,50.66-30.8-66.02c-1.73,.56-3.48,1.09-5.23,1.61l33.32,71.45-7.43,19.31-40.58-86.3c-1.74,.59-3.45,1.22-5.1,1.91l42.39,90.17-.64,.36c-1.31,.73-1.78,2.38-1.04,3.68,.21,.38,.5,.69,.84,.92l-10.96,28.46c-.03,.09-.06,.16-.09,.25l-17.73,46.07-30.06-63.93c-1.19,1.62-2.45,3.19-3.77,4.73l31.12,66.21-4.56,11.85-33.33-70.9c-1.36,1.33-2.75,2.64-4.15,3.93l34.78,73.98-11.64,30.21c-.04,.08-.06,.15-.09,.23l-3.22,8.36-42.7-90.82c-1.34,1.59-2.58,3.2-3.71,4.86l43.71,92.98-12.3,31.95c-.03,.08-.06,.15-.08,.23l-.04,.09c2.13,.67,4.29,1.24,6.46,1.71l114-64.06Z" style="fill:#fff; fill-rule:evenodd;"/><path d="M2081.52,441.8s36.01-29.91,17.21-79.71c-18.79-49.8,9.08-73.01,13.68-90.07,4.61-17.06-18.73-37.8-21.46-59.85-2.73-22.06,20.91-33.34,2.7-60.41-18.22-27.06-10.82-40.51-2.45-75.65,8.38-35.14-25.11-78.64-35.88-75.99-10.77,2.66,4.94,11.1,.07,34.3-4.86,23.21-43.59,38.49-52.26,58.91-8.67,20.42,18.56,38.93,9.49,65.92-9.08,26.98-53.42,29.02-59.62,54.62-6.2,25.61,26.84,47.38,24.35,73.34-2.48,25.96-28.3,46.06-36.15,68.21-7.84,22.15-22.35,64.47,24.7,100.79,47.06,36.32,115.6-14.42,115.6-14.42Z" style="fill:#d0d9ee; fill-rule:evenodd;"/><path d="M2103.69,382.2c-.23-2.08-.56-4.2-1-6.37l-96.7,86.38,4.17-27.52c.02-.12,.04-.23,.05-.36l2.14-14.11,81.88-73.13c-.47-2.14-.85-4.23-1.14-6.25l-79.47,70.99,3.77-24.89,75.64-67.57c.47-3.16,1.13-6.15,1.93-8.98l-76.3,68.15,1.87-12.36c.03-.13,.05-.25,.06-.38l8.19-54.06,75.71-67.63c-.89-1.6-1.8-3.21-2.71-4.84l-71.73,64.08,4.08-26.99,59.66-53.28c-.71-1.86-1.34-3.74-1.83-5.63l-56.55,50.51,3.07-20.3c.02-.1,.04-.2,.04-.29l8.94-58.98,44.27-39.54c-1.03-1.63-1.96-3.22-2.79-4.77l-40.21,35.91,7.8-51.5c.02-.1,.04-.2,.04-.3l12.88-85.01c.23-1.48-.78-2.86-2.26-3.08-1.48-.23-2.86,.79-3.09,2.27l-11.71,77.24-27.46-50.05c-1.44,1.17-2.87,2.33-4.26,3.51l30.38,55.37-8.79,58.05c-.01,.07-.03,.16-.03,.23l-8.14,53.68-44.29-57.84c-1.57,.92-3.17,1.81-4.77,2.69l47.93,62.6-3.1,20.46-58.21-75.54c-1.58,.96-3.1,1.95-4.57,2.97l60.81,78.92-.55,.49c-1.12,1-1.22,2.7-.23,3.82,.29,.33,.64,.57,1.01,.72l-4.57,30.15c-.01,.09-.03,.18-.04,.26l-7.4,48.81-43.12-55.95c-.8,1.84-1.69,3.64-2.66,5.43l44.66,57.95-1.91,12.55-47.82-62.05c-1.04,1.59-2.11,3.16-3.2,4.74l49.89,64.75-4.86,32.01c-.01,.08-.02,.16-.03,.24l-1.34,8.86-61.26-79.5c-.96,1.84-1.83,3.68-2.58,5.54l62.71,81.38-5.13,33.86c-.01,.07-.03,.16-.04,.23v.1c2.21,.19,4.44,.28,6.66,.28l97.52-87.11Z" style="fill:#e9eff8; fill-rule:evenodd;"/><path d="M217.33,897.72s-54.4-53.75-16.81-132.17c37.59-78.43-4.52-120.12-9.62-148.55-5.11-28.42,35.8-58.89,43.35-94.42,7.55-35.53-29.37-57.21,4.09-98.72,33.46-41.5,23.31-64.41,14.62-122.8-8.69-58.39,51.94-124.5,69.09-118.66,17.16,5.84-9.59,17.37-4.94,55.83,4.65,38.46,65.55,68.77,76.8,103.23,11.24,34.46-35.71,60.77-24.72,105.98,10.99,45.2,82.88,54.74,89.37,97.3,6.49,42.56-50.35,73.36-49.95,115.97,.39,42.63,39.6,78.96,49.25,116.13,9.66,37.16,27.33,108.08-54.38,160.6-81.71,52.52-186.16-39.72-186.16-39.72Z" style="fill:#fff; fill-rule:evenodd;"/><path d="M189.62,797.58c.68-3.34,1.51-6.76,2.52-10.23l145.27,154.2-2.92-45.39c-.03-.19-.04-.39-.04-.58l-1.5-23.28-123-130.56c1.05-3.42,1.96-6.76,2.72-10.01l119.39,126.73-2.64-41.05-113.64-120.62c-.31-5.21-.97-10.18-1.88-14.91l114.63,121.67-1.31-20.38c-.03-.21-.04-.41-.04-.62l-5.73-89.16-113.75-120.74c1.67-2.48,3.38-4.97,5.09-7.5l107.78,114.39-2.87-44.5-89.62-95.12c1.42-2.93,2.7-5.9,3.76-8.9l84.97,90.17-2.16-33.47c-.02-.16-.03-.32-.04-.48l-6.26-97.27-66.51-70.59c1.91-2.52,3.63-4.97,5.21-7.37l60.41,64.11-5.46-84.93c-.02-.16-.03-.33-.04-.49l-9.03-140.2c-.15-2.44,1.69-4.54,4.13-4.69,2.45-.16,4.54,1.69,4.7,4.12l8.2,127.39,51.74-77.62c2.18,2.11,4.33,4.21,6.44,6.32l-57.25,85.86,6.17,95.73c.01,.12,.01,.26,.01,.38l5.7,88.52,80.23-87.93c2.43,1.71,4.9,3.39,7.38,5.05l-86.82,95.16,2.17,33.74,105.38-114.8c2.43,1.79,4.78,3.6,7.01,5.47l-110.09,119.93,.83,.88c1.68,1.77,1.6,4.57-.17,6.25-.51,.48-1.12,.83-1.75,1.02l3.2,49.73c.01,.14,.02,.28,.02,.43l5.18,80.5,78.05-85.03c1.07,3.1,2.26,6.17,3.57,9.22l-80.84,88.06,1.34,20.7,86.56-94.3c1.47,2.73,2.99,5.46,4.55,8.16l-90.32,98.39,3.4,52.79c.01,.13,.02,.27,.02,.41l.94,14.62,110.9-120.8c1.3,3.13,2.45,6.25,3.41,9.38l-113.52,123.67,3.6,55.83c0,.14,.02,.26,.02,.4v.16c-3.63,0-7.28-.16-10.9-.49l-146.52-155.52Z" style="fill:#e9eff8; fill-rule:evenodd;"/><rect x="164.32" y="1005.77" width="588.94" height="322.96" style="fill:#d0d9ee;"/><rect x="160.5" y="1017.11" width="588.94" height="49" style="fill:#bcc9e7;"/><polygon points="144.66 1034.31 765.91 1034.31 684.84 806.32 217.49 806.32 144.66 1034.31" style="fill:#bcc9e7; fill-rule:evenodd;"/><rect x="144.66" y="1033.17" width="621.24" height="13.66" style="fill:#aab9de;"/><rect x="548.27" y="1094.68" width="119" height="170.07" style="fill:#aab9de;"/><rect x="630.77" y="1099.98" width="30.8" height="77.09" style="fill:#d0d9ee;"/><rect x="592.22" y="1099.98" width="31.49" height="77.09" style="fill:#d0d9ee;"/><rect x="553.75" y="1099.98" width="31.41" height="77.09" style="fill:#d0d9ee;"/><rect x="630.77" y="1182.43" width="30.8" height="77.09" style="fill:#d0d9ee;"/><rect x="592.22" y="1182.43" width="31.49" height="77.09" style="fill:#d0d9ee;"/><rect x="553.75" y="1182.43" width="31.41" height="77.09" style="fill:#d0d9ee;"/><polygon points="656.81 1107.58 630.77 1107.58 630.77 1099.98 661.57 1099.98 661.57 1177.06 656.81 1177.06 656.81 1107.58" style="fill:#bcc9e7; fill-rule:evenodd;"/><polygon points="618.95 1107.58 592.22 1107.58 592.22 1099.98 623.71 1099.98 623.71 1177.06 618.95 1177.06 618.95 1107.58" style="fill:#bcc9e7; fill-rule:evenodd;"/><polygon points="580.41 1107.58 553.75 1107.58 553.75 1099.98 585.16 1099.98 585.16 1177.06 580.41 1177.06 580.41 1107.58" style="fill:#bcc9e7; fill-rule:evenodd;"/><polygon points="656.81 1190.04 630.77 1190.04 630.77 1182.43 661.57 1182.43 661.57 1259.52 656.81 1259.52 656.81 1190.04" style="fill:#bcc9e7; fill-rule:evenodd;"/><polygon points="618.95 1190.04 592.22 1190.04 592.22 1182.43 623.71 1182.43 623.71 1259.52 618.95 1259.52 618.95 1190.04" style="fill:#bcc9e7; fill-rule:evenodd;"/><polygon points="580.41 1190.04 553.75 1190.04 553.75 1182.43 585.16 1182.43 585.16 1259.52 580.41 1259.52 580.41 1190.04" style="fill:#bcc9e7; fill-rule:evenodd;"/><rect x="214.64" y="1046.55" width="472.1" height="38" style="fill:#bcc9e7;"/><rect x="214.64" y="1082.65" width="472.1" height="11.4" style="fill:#fff;"/><rect x="394.83" y="1094.68" width="118.99" height="245.88" style="fill:#aab9de;"/><rect x="477.33" y="1099.98" width="30.8" height="48.46" style="fill:#d0d9ee;"/><rect x="438.78" y="1099.98" width="31.48" height="48.46" style="fill:#d0d9ee;"/><rect x="400.31" y="1099.98" width="31.42" height="48.46" style="fill:#d0d9ee;"/><rect x="477.33" y="1153.81" width="30.8" height="27.97" style="fill:#d0d9ee;"/><rect x="438.78" y="1153.81" width="31.48" height="27.97" style="fill:#d0d9ee;"/><rect x="400.31" y="1153.81" width="31.42" height="27.97" style="fill:#d0d9ee;"/><polygon points="503.37 1107.58 477.33 1107.58 477.33 1099.98 508.13 1099.98 508.13 1148.43 503.37 1148.43 503.37 1107.58" style="fill:#bcc9e7; fill-rule:evenodd;"/><polygon points="465.51 1107.58 438.78 1107.58 438.78 1099.98 470.26 1099.98 470.26 1148.43 465.51 1148.43 465.51 1107.58" style="fill:#bcc9e7; fill-rule:evenodd;"/><polygon points="426.97 1107.58 400.31 1107.58 400.31 1099.98 431.73 1099.98 431.73 1148.43 426.97 1148.43 426.97 1107.58" style="fill:#bcc9e7; fill-rule:evenodd;"/><polygon points="503.37 1161.41 477.33 1161.41 477.33 1153.81 508.13 1153.81 508.13 1181.78 503.37 1181.78 503.37 1161.41" style="fill:#bcc9e7; fill-rule:evenodd;"/><polygon points="465.51 1161.41 438.78 1161.41 438.78 1153.81 470.26 1153.81 470.26 1181.78 465.51 1181.78 465.51 1161.41" style="fill:#bcc9e7; fill-rule:evenodd;"/><polygon points="426.97 1161.41 400.31 1161.41 400.31 1153.81 431.73 1153.81 431.73 1181.78 426.97 1181.78 426.97 1161.41" style="fill:#bcc9e7; fill-rule:evenodd;"/><rect x="477.33" y="1187.82" width="30.8" height="27.97" style="fill:#d0d9ee;"/><rect x="438.78" y="1187.82" width="31.48" height="27.97" style="fill:#d0d9ee;"/><rect x="400.31" y="1187.82" width="31.42" height="27.97" style="fill:#d0d9ee;"/><polygon points="503.37 1195.43 477.33 1195.43 477.33 1187.82 508.13 1187.82 508.13 1215.79 503.37 1215.79 503.37 1195.43" style="fill:#bcc9e7; fill-rule:evenodd;"/><polygon points="465.51 1195.43 438.78 1195.43 438.78 1187.82 470.26 1187.82 470.26 1215.79 465.51 1215.79 465.51 1195.43" style="fill:#bcc9e7; fill-rule:evenodd;"/><polygon points="426.97 1195.43 400.31 1195.43 400.31 1187.82 431.73 1187.82 431.73 1215.79 426.97 1215.79 426.97 1195.43" style="fill:#bcc9e7; fill-rule:evenodd;"/><rect x="477.33" y="1221.83" width="30.8" height="27.97" style="fill:#d0d9ee;"/><rect x="438.78" y="1221.83" width="31.48" height="27.97" style="fill:#d0d9ee;"/><rect x="400.31" y="1221.83" width="31.42" height="27.97" style="fill:#d0d9ee;"/><polygon points="503.37 1229.44 477.33 1229.44 477.33 1221.83 508.13 1221.83 508.13 1249.8 503.37 1249.8 503.37 1229.44" style="fill:#bcc9e7; fill-rule:evenodd;"/><polygon points="465.51 1229.44 438.78 1229.44 438.78 1221.83 470.26 1221.83 470.26 1249.8 465.51 1249.8 465.51 1229.44" style="fill:#bcc9e7; fill-rule:evenodd;"/><polygon points="426.97 1229.44 400.31 1229.44 400.31 1221.83 431.73 1221.83 431.73 1249.8 426.97 1249.8 426.97 1229.44" style="fill:#bcc9e7; fill-rule:evenodd;"/><rect x="477.33" y="1256.03" width="30.8" height="78.88" style="fill:#d0d9ee;"/><rect x="438.78" y="1256.03" width="31.48" height="78.88" style="fill:#d0d9ee;"/><rect x="400.31" y="1256.03" width="31.42" height="78.88" style="fill:#d0d9ee;"/><polygon points="503.37 1263.64 477.33 1263.64 477.33 1256.03 508.13 1256.03 508.13 1334.91 503.37 1334.91 503.37 1263.64" style="fill:#bcc9e7; fill-rule:evenodd;"/><polygon points="465.51 1263.64 438.78 1263.64 438.78 1256.03 470.26 1256.03 470.26 1334.91 465.51 1334.91 465.51 1263.64" style="fill:#bcc9e7; fill-rule:evenodd;"/><polygon points="426.97 1263.64 400.31 1263.64 400.31 1256.03 431.73 1256.03 431.73 1334.91 426.97 1334.91 426.97 1263.64" style="fill:#bcc9e7; fill-rule:evenodd;"/><rect x="237.65" y="1094.68" width="118.99" height="170.07" style="fill:#aab9de;"/><rect x="320.15" y="1099.98" width="30.81" height="77.09" style="fill:#d0d9ee;"/><rect x="281.61" y="1099.98" width="31.48" height="77.09" style="fill:#d0d9ee;"/><rect x="243.13" y="1099.98" width="31.42" height="77.09" style="fill:#d0d9ee;"/><rect x="320.15" y="1182.43" width="30.81" height="77.09" style="fill:#d0d9ee;"/><rect x="281.61" y="1182.43" width="31.48" height="77.09" style="fill:#d0d9ee;"/><rect x="243.13" y="1182.43" width="31.42" height="77.09" style="fill:#d0d9ee;"/><polygon points="346.2 1107.58 320.15 1107.58 320.15 1099.98 350.96 1099.98 350.96 1177.06 346.2 1177.06 346.2 1107.58" style="fill:#bcc9e7; fill-rule:evenodd;"/><polygon points="308.33 1107.58 281.61 1107.58 281.61 1099.98 313.09 1099.98 313.09 1177.06 308.33 1177.06 308.33 1107.58" style="fill:#bcc9e7; fill-rule:evenodd;"/><polygon points="269.79 1107.58 243.13 1107.58 243.13 1099.98 274.55 1099.98 274.55 1177.06 269.79 1177.06 269.79 1107.58" style="fill:#bcc9e7; fill-rule:evenodd;"/><polygon points="346.2 1190.04 320.15 1190.04 320.15 1182.43 350.96 1182.43 350.96 1259.52 346.2 1259.52 346.2 1190.04" style="fill:#bcc9e7; fill-rule:evenodd;"/><polygon points="308.33 1190.04 281.61 1190.04 281.61 1182.43 313.09 1182.43 313.09 1259.52 308.33 1259.52 308.33 1190.04" style="fill:#bcc9e7; fill-rule:evenodd;"/><polygon points="269.79 1190.04 243.13 1190.04 243.13 1182.43 274.55 1182.43 274.55 1259.52 269.79 1259.52 269.79 1190.04" style="fill:#bcc9e7; fill-rule:evenodd;"/><rect x="668.53" y="1089.34" width="13.13" height="255.04" style="fill:#fff;"/><rect x="524.6" y="1087" width="13.13" height="255.03" style="fill:#fff;"/><rect x="366.09" y="1087" width="13.13" height="255.03" style="fill:#fff;"/><rect x="219.87" y="1087" width="13.13" height="255.03" style="fill:#fff;"/><path d="M540.77,1331.7h9.64v-52.06h-9.64v52.06h0Zm13.15,0h9.64v-52.06h-9.64v52.06h0Zm13.15,0h9.64v-52.06h-9.64v52.06h0Zm13.15,0h9.64v-52.06h-9.64v52.06h0Zm13.15,0h9.64v-52.06h-9.64v52.06h0Zm13.15,0h9.64v-52.06h-9.64v52.06h0Zm13.15,0h9.64v-52.06h-9.64v52.06h0Zm13.15,0h9.64v-52.06h-9.64v52.06h0Zm13.15,0h9.65v-52.06h-9.65v52.06h0Zm13.15,0h9.64v-52.06h-9.64v52.06h0Zm12.85-63.81v71.37h-135.32v-71.37h135.32Z" style="fill:#fff; fill-rule:evenodd;"/><path d="M234.91,1331.7h9.64v-52.06h-9.64v52.06h0Zm13.14,0h9.65v-52.06h-9.65v52.06h0Zm13.16,0h9.64v-52.06h-9.64v52.06h0Zm13.14,0h9.64v-52.06h-9.64v52.06h0Zm13.15,0h9.64v-52.06h-9.64v52.06h0Zm13.15,0h9.64v-52.06h-9.64v52.06h0Zm13.15,0h9.64v-52.06h-9.64v52.06h0Zm13.15,0h9.65v-52.06h-9.65v52.06h0Zm13.15,0h9.65v-52.06h-9.65v52.06h0Zm13.15,0h9.65v-52.06h-9.65v52.06h0Zm12.85-63.81v71.37H230.78v-71.37h135.32Z" style="fill:#fff; fill-rule:evenodd;"/><rect x="135.8" y="1340.07" width="629.78" height="14.25" style="fill:#aab9de;"/><rect x="831.87" y="1257.07" width="1475.99" height="97.25" style="fill:#ad2a1b;"/><rect x="853.86" y="468.4" width="1432.02" height="48.59" style="fill:#8d9fca;"/><rect x="831.87" y="419.76" width="1475.99" height="48.64" style="fill:#aab9de;"/><rect x="1214.84" y="261.68" width="710.05" height="48.64" style="fill:#8d9fca;"/><rect x="1194.15" y="213.09" width="751.44" height="48.59" style="fill:#aab9de;"/><rect x="1203.93" y="1257.07" width="731.86" height="97.25" style="fill:#aab9de;"/><rect x="866.26" y="516.99" width="1407.21" height="740.08" style="fill:#aab9de;"/><rect x="866.26" y="545.56" width="1407.21" height="711.51" style="fill:#bcc9e7;"/><rect x="1226.23" y="310.32" width="687.26" height="946.75" style="fill:#d0d9ee;"/><rect x="935.13" y="558.32" width="223.06" height="203.19" style="fill:#f2f6f8;"/><rect x="955.49" y="578.69" width="182.35" height="162.48" style="fill:#aab9de;"/><path d="M1137.84,586.11v-7.43h-182.35v153.94c54.94-56.18,116.5-104.36,182.35-146.52Z" style="fill:#bcc9e7; fill-rule:evenodd;"/><rect x="935.13" y="819.15" width="223.06" height="203.23" style="fill:#f2f6f8;"/><rect x="955.49" y="839.51" width="182.35" height="162.5" style="fill:#aab9de;"/><path d="M1137.84,846.96v-7.45h-182.35v153.99c54.94-56.18,116.5-104.38,182.35-146.55Z" style="fill:#bcc9e7; fill-rule:evenodd;"/><rect x="1291.23" y="819.15" width="223.06" height="203.23" style="fill:#f2f6f8;"/><rect x="1311.59" y="839.51" width="182.34" height="162.5" style="fill:#aab9de;"/><path d="M1493.93,846.96v-7.45h-182.34v153.99c54.94-56.18,116.5-104.38,182.34-146.55Z" style="fill:#bcc9e7; fill-rule:evenodd;"/><rect x="1625.45" y="819.15" width="223.06" height="203.23" style="fill:#f2f6f8;"/><rect x="1645.8" y="839.51" width="182.34" height="162.5" style="fill:#aab9de;"/><path d="M1828.15,846.96v-7.45h-182.34v153.99c54.94-56.18,116.51-104.38,182.34-146.55Z" style="fill:#bcc9e7; fill-rule:evenodd;"/><rect x="1291.23" y="365.42" width="223.06" height="396.09" style="fill:#f2f6f8;"/><rect x="1311.59" y="385.79" width="182.34" height="355.38" style="fill:#177cba;"/><path d="M1493.93,586.11v-200.33h-182.34v346.84c54.94-56.18,116.5-104.36,182.34-146.52Z" style="fill:#3f95d2; fill-rule:evenodd;"/><rect x="1311.59" y="385.79" width="182.34" height="355.38" style="fill:#aab9de;"/><path d="M1493.93,586.11v-200.33h-182.34v346.84c54.94-56.18,116.5-104.36,182.34-146.52Z" style="fill:#bcc9e7; fill-rule:evenodd;"/><rect x="1625.45" y="365.42" width="223.06" height="396.09" style="fill:#f2f6f8;"/><rect x="1645.8" y="385.79" width="182.34" height="355.38" style="fill:#aab9de;"/><path d="M1828.15,586.11v-200.33h-182.34v346.84c54.94-56.18,116.51-104.36,182.34-146.52Z" style="fill:#bcc9e7; fill-rule:evenodd;"/><rect x="1985.3" y="558.32" width="223.06" height="203.19" style="fill:#f2f6f8;"/><rect x="2005.66" y="578.69" width="182.33" height="162.48" style="fill:#aab9de;"/><path d="M2187.99,586.11v-7.43h-182.34v153.94c54.95-56.18,116.5-104.36,182.34-146.52Z" style="fill:#bcc9e7; fill-rule:evenodd;"/><rect x="1985.3" y="819.15" width="223.06" height="203.23" style="fill:#f2f6f8;"/><rect x="2005.66" y="839.51" width="182.33" height="162.5" style="fill:#aab9de;"/><path d="M2187.99,846.96v-7.45h-182.34v153.99c54.95-56.18,116.5-104.38,182.34-146.55Z" style="fill:#bcc9e7; fill-rule:evenodd;"/><rect x="1226.23" y="310.32" width="687.26" height="35.28" style="fill:#aab9de;"/><polygon points="1381.06 1076.04 1380.79 1081.5 1380.79 1354.32 1758.93 1354.32 1758.93 1081.5 1758.68 1076.04 1381.06 1076.04" style="fill:#f2f6f8; fill-rule:evenodd;"/><polygon points="1406.05 1076.04 1405.79 1081.5 1405.79 1354.32 1733.95 1354.32 1733.95 1081.5 1733.68 1076.04 1406.05 1076.04" style="fill:#aab9de; fill-rule:evenodd;"/><path d="M1406.05,1076.04l-.26,5.46v216.36c77.39-77.22,158.1-151.45,241-221.81h-240.74Z" style="fill:#bcc9e7; fill-rule:evenodd;"/><rect x="1380.79" y="1072.71" width="378.15" height="24.52" style="fill:#f2f6f8;"/><path d="M1529.41,1251.91c0,20.86,6.1,37.75,13.64,37.75s13.64-16.89,13.64-37.75-6.1-37.74-13.64-37.74-13.64,16.9-13.64,37.74Z" style="fill:#d0d9ee; fill-rule:evenodd;"/><path d="M1583.03,1251.91c0,20.86,6.11,37.75,13.64,37.75s13.66-16.89,13.66-37.75-6.12-37.74-13.66-37.74-13.64,16.9-13.64,37.74Z" style="fill:#d0d9ee; fill-rule:evenodd;"/><path d="M960.43,1354.32c7.29-12.25,11.74-26.39,11.74-41.67,0-45.32-36.73-82.07-82.04-82.07s-82.04,36.74-82.04,82.07c0,15.29,4.45,29.42,11.74,41.67h140.6Z" style="fill:#8d9fca; fill-rule:evenodd;"/><path d="M1270.68,1354.32c9.03-15.17,14.55-32.67,14.55-51.6,0-56.09-45.46-101.55-101.57-101.55s-101.55,45.46-101.55,101.55c0,18.93,5.51,36.43,14.53,51.6h174.04Z" style="fill:#8d9fca; fill-rule:evenodd;"/><path d="M1148.96,1354.32c10.91-18.36,17.58-39.53,17.58-62.46,0-67.87-55.02-122.9-122.9-122.9s-122.91,55.03-122.91,122.9c0,22.93,6.68,44.1,17.59,62.46h210.63Z" style="fill:#8d9fca; fill-rule:evenodd;"/><path d="M2010.59,1354.32c7.3-12.25,11.74-26.39,11.74-41.67,0-45.32-36.73-82.07-82.04-82.07s-82.04,36.74-82.04,82.07c0,15.29,4.45,29.42,11.74,41.67h140.6Z" style="fill:#8d9fca; fill-rule:evenodd;"/><path d="M2320.86,1354.32c9.03-15.17,14.55-32.67,14.55-51.6,0-56.09-45.47-101.55-101.56-101.55s-101.57,45.46-101.57,101.55c0,18.93,5.53,36.43,14.55,51.6h174.04Z" style="fill:#8d9fca; fill-rule:evenodd;"/><path d="M2199.12,1354.32c10.92-18.36,17.6-39.53,17.6-62.46,0-67.87-55.02-122.9-122.91-122.9s-122.91,55.03-122.91,122.9c0,22.93,6.69,44.1,17.59,62.46h210.62Z" style="fill:#8d9fca; fill-rule:evenodd;"/><path d="M1121.51,970.06c-11.39-3.57-11.55-1.48-12.99-2.02-1.7-.55-16.57-19.84-16.57-19.84,0,0-44.14-56.43-46.41-59.55l-17.84-72.36-38.06-.96s21.49,78.14,23.32,82.04c1.81,3.83,70.32,73.05,76.18,79.37,0,0,4.2,10.12,7.03,16.39,2.85,6.27,8.31,10.88,9.39,12.54,.16,.21,4.03,5.49,10.53,10.6,5.58,4.48,2.32-2.31,2.32-2.31,0,0-8.88-10.14-7.98-10.71,.71-.46,5.23,5.36,11.37,10.35,1.59,1.29,3.14,2.51,4.58,3.63,3.79,3,6.71,1.54,3.25-2.28-1.22-1.34-3.32-3.49-5.02-4.81-1.84-1.47-3.07-3.4-4.43-4.84-2.7-2.87-4.72-4.97-4.55-5,.24-.04,.1-1.01,1.81,.31,2.08,1.56,5.7,5.88,8.94,7.96,1.81,1.19,5.46,3.86,5.46,3.86,0,0,6.42,3.7,6.71,3.36,1.63-1.66-2.21-5.65-4.89-6.88-1.29-1.74-5.21-4.42-5.21-4.42,0,0-6.71-7.3-5.7-8.29,.83-.84,20.26,13.48,21.78,11.71,1.24-1.49-4.42-6.08-4.42-6.08,0,0-3.64-2.49-4.78-3.43-1.34-1.09-5.11-4.67-5.11-4.67,0,0-12.52-13-11.48-13.86,1.02-.87,4.54-1.96,5.6-1.41,1.06,.53,2.48,2.55,3.52,3.04,1.06,.54,2.9,.31,3.66-.93,.75-1.29-3.36-5.83-3.36-5.83,0,0-3.34-3.66-6.64-4.67Z" style="fill:#f4ae7c; fill-rule:evenodd;"/><path d="M989.24,765.22c2.56-5.31,5.44-14.74,6.86-31.54-.23,1.66-3.13,22.87-11.28,34.87-33.48,21.98-97.66,95.39-96.38,109.3,0,0-22.61-38.34-23-38.58,0,0-41.69-53.02,7.72-83.39,25.12-15.44,24.99-35.26,23.94-52.46-1.06-17.21,6.85-91.3,57.16-71.91,0,0,8.08-3.59,11.7-3.05,0,0-2.95,.56-4.46,2.11,5.83-.34,14.18,.09,21.13,4.05,18.45,10.48,34.95,104.5,6.61,130.61Z" style="fill:#0f3970; fill-rule:evenodd;"/><path d="M910.1,867.6c-2.75-2.3-40.28-34.89-57.02-49.43,0,0,16.7-12.54,27.05,5.73,10.33,18.24,29.97,43.69,29.97,43.69Z" style="fill:#133261; fill-rule:evenodd;"/><path d="M969.51,869.99s-4.08,14.24-24.04,39.1c-23.07-.33,24.04-39.1,24.04-39.1Z" style="fill:#133261; fill-rule:evenodd;"/><path d="M1066.41,1250.02c-6.36,16.25-38.91,49.71-72.44,81.3-40.06,37.73-81.53,72.8-81.53,72.8,0,0-18.97,5.79-10.7-22.11,0,0,45.72-84.01,65.36-108.81,5.6-7.09,11.39-13.56,16.83-19.18,13.59-14.1,24.83-22.9,24.83-22.9,0,0-2.57-4.13-6.75-11.28-20.41-34.96-78.99-141.98-60.89-189.49,21.77-57.24,75.91-83.02,75.91-83.02,0,0,17.18,72.42,31.67,146.87,13.34,68.52,24.39,138.73,17.72,155.8Z" style="fill:#0f3d86; fill-rule:evenodd;"/><path d="M1048.69,1094.21c-9.96,45.85-27.23,110.72-46.68,125.63-20.41-34.96-78.99-141.98-60.89-189.49,21.77-57.24,75.91-83.02,75.91-83.02,0,0,17.18,72.42,31.67,146.87Z" style="fill:#0f3970; fill-rule:evenodd;"/><path d="M993.97,1331.31c-40.06,37.73-81.53,72.8-81.53,72.8,0,0-18.97,5.79-10.7-22.11,0,0,45.72-84.01,65.36-108.81,5.6-7.09,11.39-13.56,16.83-19.18-.64,21.44-.04,57.83,10.04,77.29Z" style="fill:#0f3970; fill-rule:evenodd;"/><path d="M1003.38,976.05l-3.78-13.96c-26.63,11.53-104.97-5.33-104.97-5.33,0,0-23.34,27.66-11.32,83.76,5.86,27.4,26.62,144.38,35.1,178.66,3.09,12.42,5.48,21.22,6.43,24.75l.02,.04c.3,1.07,.05,2.15-.35,3.2-3.62,8.93-6.34,18.08-8.31,27.33-19.39,90.77,33.71,191.06,33.71,191.06l9.08-5.36s3.53-120.97,12.93-175.58c1.6-9.27,3.37-16.64,5.32-21.15,5.68-13.21,9.66-33.98,12.46-58.4,5.25-46.16,6.19-105.31,5.89-150.83,.88-.09,7.8-78.19,7.8-78.19Z" style="fill:#0f3d86; fill-rule:evenodd;"/><path d="M883.18,990.85c-10.83-16.39,26.34-83.35,25.01-89.68-2.59-12.43-8.71-26.22-14.69-38.6-6.01-12.38-11.89-23.39-13.98-30.29,1.92-2.68,3.82-5.21,5.56-7.58,2.67-3.66,4.99-7.03,6.47-10.17,1.65-3.41,2.35-6.61,1.57-9.68-.61-2.33-1.44-4.67-2.43-6.95-.45-1.06-.95-2.13-1.49-3.17-5.53-11.08-13.8-20.11-13.8-20.11,13.08-8.38,33.7-12.64,33.88-12.03,1.54-.5,2.89-.86,3.98-1.14,.75-.21,1.53-.39,2.3-.55,2.6-.63,5.21-1.15,7.47-1.58,4.68-4.7,10.31-22.18,8.62-47.91l2.28,.3,38.11,5.14s-.13,11.93,.51,23.08c.53,8.73,1.54,17.01,3.44,18.82,2.96,.23,4.74,.41,4.74,.41v.04s.06,.08,.06,.08c2.16,.18,4.14,.36,5.94,.56,0,0,.14,.02,.43,.04,3.36,.39,6.14,.81,8.39,1.22l.46,.08c6.51,1.2,8.71,2.32,8.71,2.32v.11c-.32,12.01,19.05,33.02,17.72,60.18-.06,1.03-9.94,72.22-9.87,73.27,.78,20.29,10.73,77.38,10.73,77.38,9.06,17.66-134.29,33.28-140.12,16.43Z" style="fill:#f4ae7c; fill-rule:evenodd;"/><path d="M972.03,716.86s-.13,11.91,.53,23.06c-21.12,.7-33.42-17.82-38.64-28.21l38.11,5.15Z" style="fill:#ed9d55; fill-rule:evenodd;"/><path d="M979.71,727.01s-49.79,3.88-51.75-27.18c-1.93-31.06-9.66-51.47,22.06-55.26,31.71-3.78,38.64,7.69,41.81,17.89,3.17,10.21,.8,62.75-12.12,64.55Z" style="fill:#f4ae7c; fill-rule:evenodd;"/><path d="M989.28,645.27c-8.27-8.86-13.96-6.45-17.07-3.44-28.15-13.32-44.36,9.91-44.36,9.91-1.96,22.48-17.26,36.23-17.26,36.23,0,0,9.42,5.06,30.05-1.61,6.29-2.04,11.72-6.93,16.24-12.75-7.61,14.74-18.52,25.69-18.52,25.69,24.33-13.1,32.23-48.54,33.02-52.26,3.2,2.53,9.57,8.1,11.76,13.82,2.95,7.75,5.06,23.96,9.79,23.12,0,0,8.76-25.4-3.66-38.7Z" style="fill:#0f3970; fill-rule:evenodd;"/><path d="M1009.4,1468.42h-77.29s-2.88-12.33,2.19-20.73c4.5-7.4,1.73-12.44-.22-18.76,3.51,1.43,7.7,3.71,12.67,3.44,3.86-.24,9.89-3.06,13.47-5.14,3.33,3.78,15.61,21.03,20.05,24.23,5.06,3.61,27.58,2.33,29.13,16.96Z" style="fill:#142d4d; fill-rule:evenodd;"/><path d="M894.54,1466.6l-29.1-71.62s10.34-7.31,20.01-5.75c8.56,1.36,11.84-1.84,16.29-7.23-.02,3.79,.48,8.48,2.62,12.97,1.66,3.49,4.79,6.61,8.07,9.13-2.26,4.52-11.86,23.78-13.14,29.1-1.47,6.05,8.19,26.43-4.75,33.38Z" style="fill:#142d4d; fill-rule:evenodd;"/><path d="M1012.57,897.06c-.01-.59,3.03-22.97,5.73-42.84,5.99-.65,13.23-2.07,19.5-5-.35-8.67-6.12-82.84-37.28-87.02-1.49-.41-3.04-.73-4.5-1.04-.14-.01-.3-.05-.46-.08-3.82-.72-7.22-1.08-8.39-1.19-.28-.04-.43-.06-.43-.06,0,0,9.3,26.41,9.11,29.5-.18,3.11-30.04,4.14-49.67,4.39-19.48,.26-30.45-32.32-30.62-32.82-.77,.16-1.54,.35-2.3,.55-1.1,.28-27.13,4.25-37.87,13.19,0,0,8.27,9.01,13.8,20.09,.53,1.04,1.03,2.11,1.49,3.19,1,2.26,1.82,4.6,2.43,6.93,.78,3.07,.09,6.27-1.57,9.68-1.49,3.14-3.81,6.51-6.47,10.17-1.74,2.37-3.64,4.9-5.56,7.58,.71,2.38,1.88,5.24,3.34,8.46v.02c2.82,6.15,6.7,13.69,10.65,21.81,5.99,12.38,12.11,26.18,14.69,38.62,1.33,6.31-35.83,73.27-25.01,89.66,1.73,4.98,15.48,7.13,33.72,7.22,43.54,.22,112.78-11.21,106.4-23.65,0,0-9.94-57.09-10.73-77.36Z" style="fill:#6998d0; fill-rule:evenodd;"/><path d="M916.9,998.07c-18.24-.09-31.99-2.24-33.72-7.22-10.83-16.39,26.34-83.35,25.01-89.66-2.59-12.44-8.71-26.24-14.69-38.62-3.95-8.12-7.83-15.66-10.65-21.81v-.02c1.55-6.07,2.45-9.59,2.45-9.59,0,0,39.54,45.98,48.62,67.68,7.11,17.01-9.5,75-17.02,99.25Z" style="fill:#406fb5; fill-rule:evenodd;"/><path d="M898.1,966.89l-7.81,13.56c-50.29-19.92-82.32-64.8-82.32-64.8-1.77-25.48,10.16-54.77,24.44-80.06,2.37-4.17,4.79-8.26,7.23-12.18,10.11,8.63,24.23,19.94,37.66,28.14-2.1,3.46-4.59,7.61-7.3,12.04-11.14,18.37-25.56,41.92-27.43,43.79-3.09,3.11,55.53,59.5,55.53,59.5Z" style="fill:#f4ae7c; fill-rule:evenodd;"/><path d="M872.08,869.11c-24.77-1.64-43.02-33.85-43.02-33.85,19.33-34.16,46.32-60.64,46.32-60.64,68.63,26.2,7.88,87.11-3.31,94.49Z" style="fill:#6998d0; fill-rule:evenodd;"/><path d="M898.1,966.89s4.22-.61,7-3.02c2.76-2.4,11.54-9.22,12.04-7.11,.53,2.11-6.36,5.38-2.74,5.9,3.62,.52,9.3-1.91,14.98-1.02,5.68,.86,14.42,13.95,11.74,15.48-2.7,1.57-12.52-3.6-15.11-1.79-2.57,1.79-21.02,11.89-35.73,5.12-14.72-6.76,7.82-13.56,7.82-13.56Z" style="fill:#f4ae7c; fill-rule:evenodd;"/><path d="M1463.39,855.37c-2.21-.75-9.59-2.48-18.22-5.37-8.86,3.6-20.53,2.53-35-3.2-5.51-8.74-6.02-17.63-1.51-26.67,11.42,5.43,21.44,7.53,30.06,6.29-10.72-7.06-12.38-11.25-4.98-12.57,.71,1.66,2.24,3.04,4.59,4.12,7.45,1.2,12.79,6.25,16,15.13,3.98,1.07,8.08,2.05,10.19,2.72-2.16,5.12-2.58,11.27-1.15,19.57Z" style="fill:#f4ae7c; fill-rule:evenodd;"/><path d="M1666.36,631.61c27.58-3.58,48.41-1.69,57.31,11.55-1.12,8.07-3.55,18.56-7.28,31.49,1.61,3.08,3.99,4.69,7.13,4.81,3.93-7.66,7.21-12.23,9.86-13.71,13.13,5.89,10.66,14.97-7.41,27.25-1.07,4.23-2.09,7.73-3.06,10.5,16.26-3.64,29.86-18.19,31.78-24.47,18.97-37.39-2.18-53.17-13.51-58.93-5-37.02-58.76-4.3-85.69-22.15-10.7,14.79,2.53,33.34,10.88,33.67Z" style="fill:#0f3970; fill-rule:evenodd;"/><path d="M1751.49,799.38c-17.33,20.8-31.86,35.84-43.62,45.11,10.72-38.04,22.19-79,34.42-122.89,4.31,3.64,7.77,7.24,10.38,10.82,.97,17.8,1.2,31.37,.7,40.73-6.34,5.02-11.45,8.17-15.32,9.44,5.85,5.3,10.33,10.9,13.44,16.79Z" style="fill:#0f3970; fill-rule:evenodd;"/><path d="M1642.94,789.26c8.43,18.67,17.9,35.62,28.41,50.86-3.1-46.49-4.67-85.65-4.72-117.51-4.71,2.64-8.23,5.17-10.83,7.93-.5,.58-.97,1.17-1.43,1.76-4.98,17.78-8.21,31.7-9.67,41.76,4.65,2.13,8.58,3.97,11.79,5.53-4.37,2.93-8.88,6.15-13.56,9.67Z" style="fill:#0f3970; fill-rule:evenodd;"/><path d="M1752.67,732.41c26.72,15.49,48.58,29.23,65.56,41.2,11.46,43.67,17.67,90.85,18.63,141.53-1.56,58.25-7.36,100.39-14.24,123.11-10.03,.44-20.7-.55-24.65-4.36-2.18-51.24-2.73-92.81-1.65-124.73-7.34-16.84-13.78-29.41-19.33-37.74-2.42,17.34-5.77,32.38-6.56,47.87,2.83,31.73,4.21,69.62,12.7,113.68-10.57,10.14-33.94,16.17-70.12,18.13-6.79-83.42-8.49-152.3-5.13-206.61,11.76-9.27,26.29-24.3,43.62-45.11-3.11-5.9-7.59-11.49-13.44-16.79,3.87-1.27,8.98-4.42,15.32-9.44,.49-9.36,.26-22.94-.7-40.73Z" style="fill:#0f3d86; fill-rule:evenodd;"/><path d="M1671.35,840.12c-10.36,110.62-14.7,182.54-20.8,207.47-17.34-1.91-30.7-10.04-38.78-18.07,2.18-62.93,9.52-103.12,12.62-139.92-5.6-60.41-17.07-115.95-4.71-141.76,13.28-8.94,24.84-14.13,34.69-15.55-4.98,17.78-8.21,31.7-9.67,41.76,4.65,2.13,8.58,3.97,11.79,5.53-4.37,2.93-8.88,6.15-13.56,9.67,8.43,18.67,17.9,35.62,28.41,50.86Z" style="fill:#0f3d86; fill-rule:evenodd;"/><path d="M1604.01,765.81c4.95-6.07,10.18-12.06,15.68-17.97-8.57,17.89-5.69,50.07-1.25,88.24-8.63,10.71-27.23,29.84-43.15,41.74-32.67,1.88-67.68-5.7-121.64-22.03-2.18-5.61-1.48-14.93,.7-22.71,52.55,3.03,84.67,2.53,105.74,7.95,13.65-34.01,30.96-54.18,43.92-75.22Z" style="fill:#0f3d86; fill-rule:evenodd;"/><path d="M1708.1,749.86c9.51-12.48,17.42-23.86,26.1-30.98-.94-3.81-1.56-6.64-2.6-9.52-.49-1.37-3.44-2.96-7.36-3.69,.36,.63,1.15,3.27,.49,3.68-.16,.11-.3,.24-.45,.37-9.21,7.44-18.93,13.86-30.85,19.51,5.7,6.64,9.64,13.61,14.68,20.63Z" style="fill:#406fb5; fill-rule:evenodd;"/><path d="M1670.74,722.21c-.24,8.12-.04,14.77,.6,19.97,1.96-5.97,5.56-10.85,10.83-14.62,.8-6.84,1.34-13.26,1.63-19.25-5.73,2.15-10.08,6.79-13.05,13.9Z" style="fill:#406fb5; fill-rule:evenodd;"/><path d="M1659.36,975.93c3.14-34.92,6.81-80.54,11.99-135.81-3.04-45.68-4.62-84.28-4.71-115.84,1.25-.47,2.62-.9,4.08-1.29-.21,7.76,0,14.16,.62,19.19,1.96-5.97,5.56-10.85,10.83-14.62,1.63,3.15,2.13,6.58,4.75,10.43,2.83-2.94,5.5-5.75,7.25-7.89,5.31,6.37,9.12,13.04,13.94,19.75,9.41-12.35,17.25-23.62,25.81-30.75,2.93,1.5,5.55,2.94,7.87,4.32-12.03,43.19-23.34,83.54-33.91,121.06-2.32,37.4-2.23,81.7,.26,132.9-4.24,.65-8.58,1.07-13.02,1.28v-.44c0-1.02-.85-1.87-1.88-1.9l-18.27-.51c-1.04-.03-1.88,.78-1.88,1.79v.33c-4.48-.48-9.05-1.14-13.71-2.01Z" style="fill:#6998d0; fill-rule:evenodd;"/><path d="M1675.66,747.26c3.24-5.21,6.98-8.31,11.25-9.26,3.19,1.39,6.59,4.62,10.24,9.69-2.84,4.91-5.86,8.34-9.05,10.28,5.99,37.7,8.75,90.19,8.3,157.47-4.54,10.02-8.98,17.25-13.34,21.71-5.26-7.76-8.52-15.77-9.79-24.03,4.15-70.62,6.62-122.14,7.41-154.58-3-3.94-4.68-7.7-5.04-11.29Z" style="fill:#0f3d86; fill-rule:evenodd;"/><path d="M1697.14,733.91c2.1,2.82,4,5.68,5.92,8.57-1.76,1.17-4,2.53-6.74,4.08-2.43-3.24-4.76-5.63-6.98-7.19,2.67-1.97,5.27-3.79,7.8-5.46h0Zm-17.28-4.54c.99,3.48,2.36,6.69,4.1,9.66-2.41,1.18-4.64,3.13-6.69,5.85-1.16-1.81-2.12-4.89-2.88-9.22,1.48-2.33,3.3-4.42,5.46-6.29Z" style="fill:#0f3970; fill-rule:evenodd;"/><path d="M1617.19,1243.41c-.25-56.61,1.66-123.25,5.71-199.92,7.6,4.55,17.35,8.04,29.85,10.73,3.01-7.93,5.75-26.74,9.78-61.14,3.46,.93,6.98,1.68,10.54,2.25v1.95c0,1.01,.85,1.86,1.88,1.89l18.27,.52c1.04,.03,1.88-.78,1.88-1.79v-1.39c3.31-.15,6.66-.43,10.04-.87,1.9,28.93,2.64,48.28,4.12,62.43,30.01-3.75,48.05-7,62.55-13.07,7.41,57.03,11.52,118.52,12.32,184.51,12.28,26.34,15.64,90.71,10.08,193.08-10.46,2.33-22.33,2.33-35.58,0-10.46-46.05-19.55-106.65-27.28-181.79-10.88-35.98-22.15-86.53-33.81-151.68-2.35,44.19-8.68,94.17-18.98,149.95,3.47,41.2-2.56,101.7-18.09,181.51-8.16,.78-21-.38-38.55-3.48,1.79-64.89,.21-122.78-4.74-173.67Z" style="fill:#0f3d86; fill-rule:evenodd;"/><path d="M1709.27,1058.07c-1.48-14.15-2.22-33.5-4.12-62.43,1.3-.16,2.61-.35,3.92-.55,1.03,17.87,2.34,36.54,3.93,56.01,26.05-1.41,45.46-4.94,58.24-10.58,.2,1.49,.39,3,.59,4.49-14.5,6.07-32.54,9.32-62.55,13.07h0Zm-56.52-3.85c-12.5-2.69-22.25-6.17-29.85-10.73,.09-1.7,.18-3.41,.28-5.13,7.38,4.47,16.61,8.04,27.37,9.22,2.57-10.5,4.83-29.33,7.35-55.88,1.53,.5,3.08,.95,4.63,1.37-4.03,34.4-6.77,53.21-9.78,61.14Z" style="fill:#142d4d; fill-rule:evenodd;"/><path d="M1795.37,1439.73c-1.69,1.61-2.23,1.16-3.41,.36-1.94-10.58-21.89-11.81-26.84-1.01-1.47-.58-2.51-1.49-3.12-2.75-3.48,6.84-11.36,13.55-9.27,25.47,5.3,7.63,32.6,11.42,45.52-4.2,3.66-5.93-.85-13.45-2.89-17.87h0Zm-137.62-11.62c3.34,9.05,4.08,16.47,.15,19.39-10.04,2.01-30.6,1.77-62.27,5.93-22.36-1.6-32.05-7.97-26.4-15.05,19.43,1.2,36.98-3.86,52.64-15.19,2.91,11.84,14.87,13.47,35.88,4.92Z" style="fill:#0f3970; fill-rule:evenodd;"/><path d="M1793.32,1422.78c.53,6.33,1.07,12.12,1.59,17.36-1.34,1.11-1.88,.67-2.96-.05-1.94-10.58-21.89-11.81-26.84-1.01h-.04s-.04-.03-.04-.03h-.03s-.04-.03-.04-.03h-.04s-.03-.03-.03-.03h-.04s-.03-.03-.03-.03h-.04s-.03-.03-.03-.03h-.04s-.03-.03-.03-.03h-.04s-.03-.03-.03-.03h-.03s-.04-.03-.04-.03h-.01s-.01-.01-.01-.01h-.04s-.01-.02-.01-.02h-.01s-.03-.02-.03-.02h-.02s0-.01,0-.01l-.03-.02h-.03s0-.01,0-.01h-.03s-.02-.03-.02-.03h-.01l-.03-.02h-.02s0-.01,0-.01h-.03s-.02-.03-.02-.03h0l-.03-.02h-.03s-.03-.04-.03-.04h-.03s-.09-.06-.09-.06l-.03-.02h-.03s-.03-.03-.03-.03h0s-.03-.02-.03-.02h-.03v-.02h-.02s-.03-.04-.03-.04h-.03s-.03-.04-.03-.04h0s-.01-.01-.01-.01l-.03-.02h-.01s-.04-.04-.04-.04h0s-.01-.02-.01-.02l-.03-.02h-.01s0-.01,0-.01l-.03-.02h-.01s-.01-.02-.01-.02h-.02s-.02-.03-.02-.03l-.03-.03h-.02s0-.02,0-.02l-.02-.02h-.02s-.03-.04-.03-.04l-.02-.02h0l-.02-.02-.02-.02h0c.87-4.25,1.61-9.05,2.22-14.4,10.16,1.2,19.43,.92,27.82-.82h0Zm-167.82-5.07c-.77,2.79-1.79,5.24-3.07,7.34,.11,.31,.23,.61,.36,.9,.58,1.32,1.3,2.46,2.18,3.43h0c.3,.33,.6,.63,.92,.92h.01c.11,.1,.21,.19,.31,.27l.04,.04c1.12,.9,2.43,1.59,3.92,2.06h.04c.13,.06,.27,.09,.41,.13l.07,.02c.13,.04,.28,.07,.42,.11h.04c.15,.05,.3,.09,.45,.12h.03c.15,.04,.3,.06,.45,.1h.08s.44,.09,.44,.09h.04c1.51,.24,3.17,.31,4.98,.21h.08l.53-.04h.09s.54-.06,.54-.06h.11s.55-.06,.55-.06h.09s.59-.09,.59-.09h.01l.61-.09,.14-.02c1.49-.22,3.07-.54,4.73-.95l.18-.04,.65-.17,.09-.02,.63-.17,.2-.05,.58-.16,.21-.06,.58-.17,.25-.08,.59-.18,.17-.06,.66-.21,.18-.06,.66-.22,.15-.05,.7-.23,.17-.06,.69-.24,.85-.31c.55-.2,1.1-.41,1.65-.63l.13-.04,.86-.33c-.03-2.54,.1-5.15,.39-7.82-7.5,.21-17.97-.81-31.43-3.07Z" style="fill:#f4ae7c; fill-rule:evenodd;"/><path d="M1614.29,775.04c-.66,16.9,1.46,37.86,4.15,61.04-8.63,10.71-27.23,29.84-43.15,41.74-32.67,1.88-67.68-5.7-121.64-22.03,39.22,8.87,79.31,14.13,120.29,15.77,8.29-5.97,21.04-18.56,38.25-37.78-.55-14.68,.16-34.26,2.1-58.75Z" style="fill:#142d4d; fill-rule:evenodd;"/><path d="M1766.18,917.96c1.88-23.55,3.66-43.81,5.33-60.79,1.19,4.84,3.01,9.59,5.47,14.25-2.42,17.34-5.77,32.37-6.56,47.87,2.83,31.73,4.21,69.62,12.7,113.68-.97,.92-2.03,1.82-3.21,2.67-6.91-27.14-11.48-66.37-13.72-117.68Z" style="fill:#142d4d; fill-rule:evenodd;"/><path d="M1709.08,995.09c-18.19,2.86-35.26,1.74-51.17-3.37,.48-4.99,.96-10.26,1.46-15.79,17.54,3.26,33.8,3.75,48.78,1.46,.29,5.81,.6,11.71,.94,17.7Z" style="fill:#9d7558; fill-rule:evenodd;"/><path d="M1693.23,976.32l-18.27-.51c-1.04-.03-1.88,.8-1.88,1.84v19.59c0,1.03,.85,1.91,1.88,1.93l18.27,.52c1.04,.03,1.88-.8,1.88-1.84v-19.57c0-1.04-.85-1.92-1.88-1.95Z" style="fill:#fff; fill-rule:evenodd;"/><polygon points="1691.48 979.82 1691.48 996.09 1676.7 995.68 1676.7 979.41 1691.48 979.82" style="fill:#9d7558; fill-rule:evenodd;"/><path d="M1746.03,722.83c-.7,.06-1.44,.08-2.22,.07l.65,.6,1.57-.67h0Zm-4.09,.02c-.43-.02-.86-.05-1.29-.09,.38,.22,.76,.44,1.12,.66l.16-.58h0Zm-16.76-13.88c-8.92,7.3-18.25,13.63-29.59,19.21-.71,.35-1.44,.7-2.17,1.05,.25,.29,.5,.58,.74,.88-1.53,1.87-3.76,4.25-6.19,6.79-.79-.22-1.53-.49-2.22-.8-1.66-3.09-2.23-5.9-3.59-8.52,.17-1.52,.34-3.03,.49-4.52,.17-1.79,.74-8.17,1.02-9.91-.91-.06-1.79-.14-2.64-.22-1.06-.14-2.29-.34-3.7-.6l-.06,.06c-11.12-2.11-15.73-7.8-13.82-17.1-4.5-19.2-5.12-35.85-.24-40.34,.82-8.21,1.86-15.98,3.14-23.32,27.58-3.58,48.41-1.69,57.31,11.55-1.12,8.07-3.55,18.56-7.28,31.49,1.61,3.08,3.99,4.69,7.13,4.81,3.93-7.66,7.21-12.23,9.86-13.71,13.13,5.89,10.66,14.97-7.41,27.25-1.07,4.23-2.09,7.73-3.06,10.5,.47,1.54,1.25,3.41,2.28,5.48Z" style="fill:#f4ae7c; fill-rule:evenodd;"/><path d="M1683.67,713.14c4.91,.43,10.44,.26,16.6-.51-5.82,3.87-11.62,6.64-17.4,8.3,.11-1.14,.21-2.27,.31-3.38,.19-1.86,.37-3.62,.5-4.42Z" style="fill:#ed7d5b; fill-rule:evenodd;"/><polygon points="1723.11 1083.72 1730.59 1257.51 1920.18 1237.55 1897.72 1083.72 1723.11 1083.72" style="fill:#e3bb9b; fill-rule:evenodd;"/><path d="M1698.99,1236.1c15.27,5.62,24.11,13.3,31.6,21.42l-7.48-173.79-8.53-.21-15.59,152.58Z" style="fill:#9d7558; fill-rule:evenodd;"/><path d="M1723.11,1083.72l22.05,69.72c3.17,7.73,6.42,14.5,19.27,13.43l121.67-7.71c10.85-.69,11.11-6.17,11.2-13.6v-61.84h-174.18Z" style="fill:#9d7558; fill-rule:evenodd;"/><path d="M1810.93,1154.49l30.95-2c1.7-.11,3.4,1.08,3.66,2.78l4.21,27.48c.26,1.69-.81,3.26-2.48,3.42l-32.2,3.26c-1.69,.17-3.48-1.06-3.66-2.78l-2.96-28.74c-.18-1.72,.78-3.31,2.48-3.43Z" style="fill:#fff; fill-rule:evenodd;"/><polygon points="1816.65 1161.89 1818.65 1181.28 1841.33 1178.99 1838.5 1160.48 1816.65 1161.89" style="fill:#9d7558; fill-rule:evenodd;"/><path d="M1759.47,1083.72c1.9-6.74,6.34-12.35,12.33-16.75,2.58-1.9,5.46-3.56,8.54-4.96,1.83-4.74,12.83-8.75,26.26-9.26,14.22-.55,26.03,3.02,27.18,8.05,.9,.39,1.78,.8,2.63,1.25,8.93,4.57,15.6,11.74,17.77,21.68h-6.54c-2.1-7.3-7.29-12.62-14.08-16.1-.92-.47-1.86-.9-2.83-1.31-4.47,3.19-13.22,5.56-23.37,5.95-10.63,.41-19.92-1.48-24.41-4.56-2.69,1.23-5.2,2.68-7.44,4.32-4.28,3.14-7.57,7.06-9.32,11.69h-6.71Z" style="fill:#9d7558; fill-rule:evenodd;"/><path d="M1790.54,1060.55c-.11,4.18-1.61,10.48,1.05,13.49,6.99,7.88,24.1,8.43,31.45,3.36,3.17-2.18,3.53-9.29,3.61-13.85-3.78-9.66-5.83-18.59-6.14-26.81-7.48-4.97-18.79-5.44-22.55-2.86l-7.43,26.66Z" style="fill:#f4ae7c; fill-rule:evenodd;"/><path d="M383.07,1466.32c-15.69-5.53-16.95-13.61-25.41-17.56-8.51-3.98-9.5-11.05-1.17-18.75,6.15,4.91,13.78,10.95,17.82,7.75,2.7-2.13,11.85-1.99,13.66,1.12,7.97,18.52,19.05,12.65,21.25,21.08,.26,11.23-18.95,8.89-26.15,6.35Z" style="fill:#142d4d; fill-rule:evenodd;"/><path d="M517.81,1466.88c-28.96-.46-50.61-.81-60.61-3.97-10.79-3.41-8.56-9.99-2.36-20.51,27.31,12.55,20.03-2.58,32.8-.66,8.97,7.22,22.26,12.06,39.85,14.52,7.45,5.48,4.42,10.38-9.67,10.62Z" style="fill:#142d4d; fill-rule:evenodd;"/><path d="M417.72,763.98c4.63,.33,11.92-.55,13.21-2.2,4.91-6.24,8.33-12.76,9.59-16.87-.96-2.74-1.96-6.19-3.01-10.36-17.82-12.11-20.26-21.06-7.31-26.86,2.62,1.47,5.85,5.97,9.72,13.52,3.09-.12,5.43-1.71,7.03-4.74-3.68-12.74-6.07-23.09-7.19-31.05,8.78-13.05,29.33-14.91,56.52-11.39,1.27,7.24,2.3,14.91,3.1,23,4.82,4.43,4.2,20.85-.24,39.77,2.22,10.76-4.42,16.64-19.93,17.62-.22,3.82,.13,8.5,.38,9.03,.38,.83,1.76,1.62,3.67,2.3h0c.52,17.77-21.32,17.17-65.54-1.77Z" style="fill:#f4ae7c; fill-rule:evenodd;"/><path d="M496.28,674.02c-27.19-3.53-47.73-1.66-56.52,11.39,1.12,7.96,3.51,18.31,7.18,31.05-1.59,3.04-3.93,4.62-7.02,4.74-3.87-7.55-7.11-12.06-9.72-13.52-12.94,5.8-10.51,14.76,7.31,26.86,1.05,4.18,2.05,7.63,3.01,10.36-16.03-3.6-29.45-17.94-31.33-24.14-18.71-36.86,2.16-52.43,13.31-58.11,4.93-36.51,57.94-4.24,84.5-21.84,10.56,14.58-2.5,32.87-10.73,33.2Z" style="fill:#0f3970; fill-rule:evenodd;"/><path d="M659.48,828.64c-13.46,57.62-37.09,102.34-70.92,134.15-12.18-3.7-23-12.03-32.43-24.99,.5,41.68-.54,83.17-3.12,124.45-24.69,11.7-57.46,10.95-98.32-2.27l-16.57-20.41c-4.25-.83-13.93,3.88-18.56,11.05-38.81-29.62-64.98-61.45-80.41-93.07,4.17-67.94,13.4-121.55,27.69-160.82,7.22-11.11,24.19-22.03,50.9-32.76,44.22,18.95,66.07,19.54,65.54,1.77,13,4.27,30.25,11.82,51.75,22.66,17.92,13.61,33.19,50.52,45.8,110.71,20.52-25.71,41.8-52.96,63.85-81.77,4.91,1.39,9.84,5.15,14.82,11.29h0Zm-230.3,192.51c12.86-42.3,5.76-94.49-21.31-156.57-6.81,30.63-14.18,60.78-22.09,90.44,9.2,4.37,23.66,26.42,43.4,66.13Z" style="fill:#6998d0; fill-rule:evenodd;"/><path d="M424.37,1076.3c6.27-.49,16.37-5.92,30.31-16.31,40.86,13.21,73.63,13.97,98.32,2.27,4.4,69.49-12.69,142.36-34.37,223.56-21.22,35.66-20.32,60.72-31.64,142.98-6.27,4.48-16.66,3.83-31.14-1.96-4.59-70.14-1.42-116.58,16.79-142.75-2.85-23.52,4.59-81.33,4.95-117.61-13.24,29.51-22.33,69.39-39.59,109.66-21,49.03-35.63,101.5-46.72,149.37-11.72,2.28-22.7,.94-32.96-4.03,11.77-78.67,24.81-132.82,39.13-162.44-.55-77.36,6.81-146.83,22.1-208.43,2.85,7.27,4.45,15.83,4.82,25.68Z" style="fill:#0f3970; fill-rule:evenodd;"/><path d="M454.69,1059.99c-13.94,10.38-24.05,15.82-30.31,16.31-.37-9.85-1.98-18.41-4.82-25.68,4.64-7.17,14.31-11.87,18.56-11.05l16.57,20.41Z" style="fill:#f4ae7c; fill-rule:evenodd;"/><path d="M556.13,937.8c-1.35-40.48-4.59-73.67-9.74-99.55,13.09,54.98,25.78,91.47,38.07,109.46,7.76-.24,17.59-4.84,29.5-13.8-7.71,10.58-16.17,20.22-25.39,28.89-12.18-3.7-23-12.03-32.43-24.99Z" style="fill:#406fb5; fill-rule:evenodd;"/><path d="M438.11,1039.58c-2.38-5.88-5.36-12.02-8.93-18.42,12.86-42.3,5.76-94.49-21.31-156.57,39.37,55.97,50.53,115.64,33.49,179l-3.25-4Z" style="fill:#406fb5; fill-rule:evenodd;"/><path d="M461.34,750.67c4.35,2.15,10.31,3.39,17.87,3.75-.15,2.56-.04,5.51,.12,7.33-7.6-1.46-13.61-5.16-17.99-11.08Z" style="fill:#ed7d5b; fill-rule:evenodd;"/><path d="M457.57,1443.6c1.46-4.78,2.01-9.94,1.65-15.48,11.05,3.97,19.47,4.67,25.29,2.08-.3,4.1,.17,7.89,1.4,11.36-10.05-.36-5.46,11.83-28.34,2.03h0Zm-73-6.79c-3.48-.92-8.39-.52-10.26,.95-3.61,2.86-10.09-1.66-15.82-6.17,.98-2.71,1.8-5.69,2.45-8.93,6.9,2.89,14.13,4.18,21.67,3.88-.11,4.12,.54,7.54,1.96,10.27Z" style="fill:#f4ae7c; fill-rule:evenodd;"/><path d="M423.95,1086.17c.44-3.57,.58-6.86,.42-9.87,6.27-.49,16.37-5.92,30.31-16.31,3.31,1.07,6.57,2.06,9.77,2.97-9.8,10.21-23.31,17.95-40.51,23.22Z" style="fill:#3d3691; fill-rule:evenodd;"/><path d="M659.48,828.64c.83-2.06,4.15-8.46,7.4-16.47,8.08-4.15,14.53-13.22,19.36-27.21-2.89-9.38-8.99-15.25-18.29-17.6-3.15,11.59-7.84,20.11-14.08,25.56,1.54-12.1-.46-15.88-5.98-11.37,.75,1.54,.8,3.5,.11,5.87-3.74,6.12-3.41,13.08,1.01,20.89-1.69,3.54-3.53,7.1-4.35,9.03,5.03,1.61,9.72,5.12,14.82,11.29Z" style="fill:#f4ae7c; fill-rule:evenodd;"/><polygon points="596.77 161.39 452.94 220.36 492.43 270.8 596.77 161.39" style="fill:#d0d9ee; fill-rule:evenodd;"/><polygon points="432.65 196.59 592.37 161.72 393.53 176.24 432.65 196.59" style="fill:#d0d9ee; fill-rule:evenodd;"/><polygon points="432.65 196.59 436.39 262.8 452.94 220.36 596.77 161.39 592.37 161.72 432.65 196.59" style="fill:#aab9de; fill-rule:evenodd;"/><polygon points="436.39 262.8 470.43 242.7 452.94 220.36 436.39 262.8" style="fill:#8d9fca; fill-rule:evenodd;"/><path d="M399.41,257.9c4.68-.58,3.62-7.4-.73-6.86l-6.89,.75c-4.61,.58-3.63,7.4,.78,6.86l6.84-.75h0Zm-235.82,274.22c-3.07,0-4.58,3.75-2.5,5.83,.5,.61,1.54,1.07,2.5,1.07l4.45-.02c4.47,0,4.57-6.9-.06-6.9l-4.39,.02h0Zm24.92-.63c-4.07,0-4.64,6.89,.38,6.89l6.95-.44c4.94-.61,3.58-7.39-.51-6.88l-6.82,.43h0Zm27.13-2.58c-4.28,.54-3.7,7.41,1.04,6.82l-1.04-6.82h0Zm26.36-5.8c-4.13,1.54-2.48,7.71,2.15,6.55,2.27-.72,4.5-1.52,6.71-2.38,4.21-1.81,1.7-8.01-2.56-6.41-2.06,.82-4.18,1.55-6.29,2.23h0Zm23.4-11.78c-3.6,2.99,.94,8.19,4.33,5.36,1.95-1.6,3.75-3.26,5.43-5.13,3.07-3.68-2.42-7.87-5.17-4.57-1.42,1.59-2.96,2.97-4.59,4.33h0Zm12.9-20.92c-.61,4.91,6.29,5.29,6.8,1.17,.45-2.46,.71-4.84,.81-7.35,0-4.76-6.9-4.51-6.9-.17-.07,2.16-.33,4.23-.71,6.34h0Zm-1.85-25.79c1.05,4.2,7.8,2.78,6.65-1.83-.6-2.25-1.27-4.59-2.04-6.8-1.69-4.52-8.04-1.79-6.54,2.21,.72,2.11,1.35,4.27,1.93,6.42h0Zm-9.52-25.27c1.71,3.98,8.15,1.5,6.27-2.88-.97-2.11-1.97-4.23-2.99-6.31-2.52-4.42-8.19-.45-6.2,3.04,1,2.03,1.98,4.1,2.92,6.15h0Zm-12.3-24.47c2.39,4.18,8.21,.48,6.09-3.23l-3.24-6.1c-2.38-4.18-8.21-.48-6.09,3.24,1.1,1.98,2.18,4.08,3.24,6.09h0Zm-12.86-24.52c2.5,4.37,8.19,.45,6.17-3.08l-3.02-6.14c-2.35-4.13-7.97-1.12-6.22,2.97l3.07,6.24h0Zm-11.2-25.75c1.55,4.13,7.72,2.48,6.56-2.15-.7-2.13-1.33-4.21-1.88-6.39-1.1-4.39-7.8-2.74-6.69,1.69,.6,2.33,1.27,4.57,2.02,6.84h0Zm-3.46-28.64c-.56,4.52,6.28,5.37,6.84,.86,.25-2.13,.65-4.27,1.17-6.35,1.12-4.47-5.6-6.07-6.69-1.71-.59,2.38-1.05,4.77-1.33,7.21h0Zm10.61-27.01c-2.7,3.77,2.97,7.7,5.57,4.07,1.29-1.78,2.63-3.46,4.09-5.1,3.13-3.76-2.43-7.85-5.12-4.62-1.61,1.76-3.14,3.72-4.54,5.65h0Zm20.83-19.67c-3.56,2.55-.32,8.11,3.85,5.73,1.85-1.26,3.73-2.44,5.66-3.58,3.82-2.18,.55-8.26-3.53-5.93-2.03,1.21-4.03,2.46-5.99,3.79h0Zm24.93-13.23c-4.24,1.82-1.44,8.12,2.67,6.36,2.08-.88,4.18-1.71,6.3-2.52,4.21-1.58,1.84-8.06-2.45-6.44-2.18,.83-4.36,1.69-6.52,2.6h0Zm26.44-9.2c-4.14,1.04-2.79,7.81,1.89,6.64l6.58-1.81c4.3-1.08,2.77-7.8-1.75-6.68l-6.72,1.86h0Zm27.06-6.61c-4.77,1.19-2.67,7.77,1.38,6.75l6.72-1.33c4.39-1.1,3.35-7.35-1.29-6.78l-6.81,1.36h0Zm27.34-4.86c-4.3,.54-3.69,7.41,1.02,6.82l6.79-.99c4.36-.54,3.69-7.41-.96-6.84l-6.86,1Z" style="fill:#8d9fca; fill-rule:evenodd;"/></svg>