<?xml version="1.0" encoding="UTF-8"?><svg id="a" xmlns="http://www.w3.org/2000/svg" viewBox="0 0 2434.69 1619.97"><path d="M1117.72,258.9c-232.08,0-329.85,160.51-497.39,285.28-221.75,165.14-443.47,57.64-478.98,615.61-31.6,496.6,362.71,53.76,918.68,231.65,555.97,177.9,1122.2,249.53,954.17-326.03-168.02-575.56-357.25-806.51-896.48-806.51Z" style="fill:#e9eff8; fill-rule:evenodd;"/><path d="M1796.55,1295.96c-70.98,0-128.53-57.55-128.53-128.54s57.55-128.53,128.53-128.53,128.54,57.55,128.54,128.53-57.55,128.54-128.54,128.54h0Zm192.21,76.43h0Zm-107.79-529.47h0Zm-287.16,115.44h0Zm5.95,401.65c18.1,18.5,38.82,34.48,61.59,47.33l-3.52,65.36,54.29,19.21,38.43-53.01,14.85,2.09,62.76-.03,35.58,54.96,48.55-13.81,1.67-.62,5.01-1.92-.07-65.45,10.82-5.69,53.18-38.33,5.85,2.24,55.19,21.3c12.97-14.17,24.71-29.44,35.13-45.7l-38.49-52.85c11.89-22.74,20.72-47.33,25.93-73.25l63.18-16.8,1.5-57.65-62.2-20.12c-3.8-26.22-11.34-51.24-22.02-74.52l41.23-50.75c-9.52-16.78-20.47-32.67-32.66-47.49l-62.21,20.3-61.55-47.33,3.5-65.35c-17.32-7.9-35.5-14.37-54.33-19.22l-38.39,52.97-77.62-2.04-35.57-54.96-55.26,16.35,.05,65.44c-23.41,11.63-44.91,26.49-63.96,44l-16.41-6.3-44.64-17.23c-12.97,14.16-24.73,29.45-35.12,45.7l38.48,52.85c-11.88,22.69-20.73,47.27-25.91,73.26l-63.19,16.81-1.53,57.64,62.2,20.12c3.84,26.15,11.35,51.18,22.03,74.51l-41.23,50.76c9.54,16.77,20.47,32.65,32.67,47.48l62.19-20.29Z" style="fill:#d0d9ee; fill-rule:evenodd;"/><path d="M1975.9,1319.23c-1.51,0-3.07-.52-4.32-1.57-2.89-2.39-3.29-6.66-.89-9.54,32.77-39.41,50.84-89.38,50.84-140.72,0-24.58-4.03-48.73-11.97-71.75-1.22-3.54,.67-7.39,4.21-8.61,3.54-1.22,7.39,.66,8.61,4.21,8.43,24.44,12.67,50.07,12.67,76.16,0,54.5-19.13,107.55-53.93,149.38-1.33,1.61-3.25,2.44-5.21,2.44Z" style="fill:#fff; fill-rule:evenodd;"/><path d="M1956.87,1008.88c-1.66,0-3.32-.61-4.65-1.84-22.02-20.73-47.54-36.45-75.8-46.71-3.51-1.28-5.32-5.16-4.07-8.68,1.29-3.52,5.17-5.34,8.68-4.06,30.04,10.89,57.12,27.58,80.5,49.59,2.7,2.56,2.85,6.84,.26,9.58-1.33,1.41-3.11,2.12-4.91,2.12Z" style="fill:#fff; fill-rule:evenodd;"/><path d="M1745.56,954.08c-3.03,0-5.8-2.04-6.57-5.12-.89-3.62,1.29-7.31,4.91-8.22,18.65-4.71,37.98-7.1,57.37-7.1,3.76,0,6.79,3.03,6.79,6.78s-3.03,6.77-6.79,6.77c-18.29,0-36.46,2.25-54.04,6.69-.56,.13-1.11,.2-1.67,.2Z" style="fill:#fff; fill-rule:evenodd;"/><path d="M1648.44,394.27c-27.9,0-50.52-22.62-50.52-50.51s22.62-50.51,50.52-50.51,50.51,22.62,50.51,50.51-22.62,50.51-50.51,50.51h0Zm75.53,30.04h0Zm-42.35-208.08h0Zm-112.86,45.37h0Zm2.34,157.85c7.11,7.27,15.26,13.55,24.2,18.6l-1.38,25.69,21.34,7.55,15.1-20.83,5.84,.82h24.66s13.98,21.59,13.98,21.59l19.09-5.43,.66-.24,1.97-.75-.03-25.73,4.25-2.23,20.9-15.06,2.3,.88,21.69,8.37c5.1-5.57,9.71-11.57,13.8-17.96l-15.12-20.77c4.67-8.94,8.14-18.6,10.19-28.79l24.83-6.6,.59-22.65-24.45-7.91c-1.49-10.31-4.45-20.14-8.65-29.29l16.21-19.94c-3.75-6.6-8.05-12.84-12.83-18.66l-24.45,7.98-24.18-18.6,1.38-25.69c-6.81-3.1-13.96-5.64-21.35-7.55l-15.1,20.82-30.5-.8-13.98-21.6-21.71,6.43v25.72c-9.18,4.57-17.63,10.41-25.11,17.29l-6.46-2.48-17.55-6.77c-5.09,5.56-9.71,11.57-13.8,17.96l15.12,20.77c-4.67,8.92-8.14,18.58-10.18,28.79l-24.83,6.61-.6,22.65,24.44,7.91c1.51,10.28,4.46,20.11,8.65,29.28l-16.2,19.95c3.76,6.59,8.04,12.83,12.84,18.66l24.44-7.97Z" style="fill:#d0d9ee; fill-rule:evenodd;"/><path d="M1718.92,403.42c-.6,0-1.21-.2-1.7-.62-1.13-.94-1.29-2.62-.35-3.75,12.88-15.48,19.98-35.13,19.98-55.3,0-9.66-1.59-19.15-4.7-28.19-.48-1.39,.26-2.91,1.65-3.39,1.39-.48,2.91,.26,3.38,1.65,3.31,9.61,4.98,19.68,4.98,29.93,0,21.42-7.51,42.27-21.19,58.71-.52,.63-1.28,.96-2.05,.96Z" style="fill:#fff; fill-rule:evenodd;"/><path d="M1711.45,281.45c-.66,0-1.31-.24-1.83-.72-8.65-8.15-18.68-14.32-29.79-18.36-1.38-.5-2.09-2.03-1.59-3.41,.51-1.38,2.03-2.1,3.41-1.59,11.8,4.28,22.44,10.84,31.63,19.49,1.06,1.01,1.12,2.69,.11,3.76-.52,.56-1.22,.84-1.93,.84Z" style="fill:#fff; fill-rule:evenodd;"/><path d="M1628.4,259.92c-1.19,0-2.28-.8-2.59-2.01-.35-1.43,.51-2.88,1.93-3.23,7.33-1.85,14.92-2.79,22.54-2.79,1.49,0,2.68,1.19,2.68,2.66s-1.19,2.66-2.68,2.66c-7.18,0-14.33,.88-21.24,2.63-.22,.06-.44,.08-.65,.08Z" style="fill:#fff; fill-rule:evenodd;"/><path d="M1440.17,335.9c-17.21,0-31.17-13.96-31.17-31.17s13.96-31.17,31.17-31.17,31.17,13.96,31.17,31.17-13.96,31.17-31.17,31.17h0Zm46.61,18.53h0Zm-26.14-128.4h0Zm-69.64,28h0Zm1.45,97.41c4.39,4.49,9.42,8.36,14.93,11.48l-.85,15.85,13.17,4.66,9.32-12.86,3.6,.51h15.22s8.63,13.32,8.63,13.32l11.77-3.35,.4-.15,1.22-.47-.02-15.87,2.62-1.38,12.9-9.29,1.42,.54,13.39,5.17c3.14-3.44,5.99-7.14,8.52-11.09l-9.34-12.81c2.89-5.51,5.03-11.48,6.29-17.77l15.32-4.07,.36-13.98-15.08-4.88c-.92-6.36-2.75-12.43-5.34-18.07l10.01-12.31c-2.32-4.07-4.97-7.93-7.92-11.52l-15.09,4.92-14.92-11.48,.84-15.85c-4.2-1.92-8.61-3.48-13.17-4.66l-9.32,12.85-18.82-.49-8.63-13.33-13.41,3.96,.02,15.87c-5.68,2.82-10.9,6.43-15.51,10.67l-3.99-1.53-10.82-4.18c-3.15,3.43-6,7.14-8.52,11.08l9.34,12.82c-2.89,5.5-5.03,11.47-6.29,17.76l-15.32,4.08-.37,13.98,15.08,4.88c.93,6.34,2.75,12.41,5.34,18.07l-10.01,12.31c2.32,4.07,4.97,7.92,7.93,11.52l15.08-4.92Z" style="fill:#d0d9ee; fill-rule:evenodd;"/><path d="M1483.67,341.55c-.36,0-.74-.12-1.04-.38-.7-.58-.8-1.62-.21-2.32,7.95-9.55,12.32-21.67,12.32-34.12,0-5.96-.97-11.82-2.89-17.4-.3-.86,.16-1.79,1.02-2.09,.86-.29,1.79,.16,2.09,1.02,2.04,5.93,3.07,12.14,3.07,18.47,0,13.22-4.63,26.08-13.08,36.23-.32,.39-.78,.59-1.27,.59Z" style="fill:#fff; fill-rule:evenodd;"/><path d="M1479.06,266.28c-.4,0-.81-.15-1.13-.45-5.34-5.03-11.53-8.84-18.38-11.33-.85-.31-1.29-1.25-.98-2.1,.32-.85,1.25-1.3,2.1-.98,7.29,2.64,13.86,6.69,19.52,12.02,.66,.62,.7,1.66,.07,2.32-.32,.34-.76,.52-1.19,.52Z" style="fill:#fff; fill-rule:evenodd;"/><path d="M1427.81,252.99c-.74,0-1.41-.5-1.59-1.24-.21-.88,.31-1.77,1.19-2,4.52-1.14,9.2-1.72,13.91-1.72,.92,0,1.65,.74,1.65,1.64s-.73,1.64-1.65,1.64c-4.43,0-8.85,.55-13.11,1.62-.13,.03-.27,.05-.4,.05Z" style="fill:#fff; fill-rule:evenodd;"/><path d="M1695.55,711.02h-630.49c4.53-19.16,21.73-33.41,42.27-33.41,.98,0,1.98,.04,2.96,.11,9.95-24.37,33.9-41.56,61.86-41.56,12.24,0,23.69,3.3,33.55,9.03,12.02-39.64,48.84-68.5,92.41-68.5,8.86,0,17.45,1.21,25.61,3.46,21.09-46.57,67.96-78.96,122.41-78.96,64.57,0,118.5,45.58,131.38,106.32,1.1-.04,2.17-.08,3.26-.08,41.37,0,75.5,30.94,80.55,70.92,16.88,3.16,30.32,16.07,34.24,32.66Z" style="fill:#fff; fill-rule:evenodd;"/><path d="M700.85,1131.33s86.51-44.62,70.65-154.17c-15.86-109.56,51.14-144.2,68.13-176.79,17-32.59-21.11-85.15-16.78-131.17,4.33-46.02,57.41-58.33,32.54-121.46-24.87-63.12-3.83-87.1,28.91-154.72,32.75-67.62-15.78-170.96-38.84-170.39-23.06,.57,5.05,24.74-15.22,69.69-20.27,44.94-105.76,58.63-132.52,96.21-26.75,37.58,20.27,87.38-10.25,138.12-30.52,50.73-121.48,35-145.53,84.23-24.05,49.23,33.29,108.24,16.61,159.85-16.68,51.62-78.1,80.87-103.96,122.34-25.85,41.45-74.27,120.9,5.02,215.74,79.29,94.84,241.22,22.5,241.22,22.5Z" style="fill:#d0d9ee; fill-rule:evenodd;"/><path d="M772.57,1020.22c.46-4.32,.74-8.78,.83-13.37l-235.06,132.1,20.79-54.03c.1-.21,.2-.46,.27-.68l10.66-27.71,199.03-111.85c.02-4.55,.18-8.96,.5-13.2l-193.18,108.57,18.81-48.86,183.88-103.34c2.37-6.21,5.05-11.99,7.95-17.39l-185.48,104.23,9.34-24.26c.11-.25,.21-.49,.28-.74l40.84-106.12,184.06-103.43c-1.09-3.64-2.22-7.33-3.34-11.04l-174.38,98,20.39-52.97,145.01-81.49c-.62-4.1-1.04-8.19-1.2-12.25l-137.47,77.25,15.34-39.84c.08-.18,.16-.38,.22-.57l44.57-115.78,107.62-60.47c-1.36-3.78-2.53-7.41-3.54-10.93l-97.73,54.92,38.91-101.08c.09-.19,.16-.39,.23-.59l64.23-166.86c1.12-2.9-.32-6.15-3.22-7.27-2.91-1.12-6.16,.32-7.28,3.22l-58.36,151.63-33.36-113.95c-3.45,1.73-6.86,3.47-10.22,5.22l36.91,126.06-43.86,113.94c-.07,.15-.12,.3-.17,.46l-40.56,105.36-64.04-137.3c-3.6,1.16-7.24,2.26-10.88,3.33l69.3,148.58-15.46,40.16-84.38-179.48c-3.63,1.24-7.17,2.56-10.6,3.97l88.15,187.51-1.34,.75c-2.71,1.52-3.68,4.95-2.16,7.66,.44,.79,1.04,1.43,1.73,1.91l-22.78,59.18c-.07,.18-.14,.34-.19,.52l-36.88,95.82-62.5-132.95c-2.46,3.36-5.08,6.63-7.84,9.84l64.73,137.69-9.49,24.64-69.31-147.44c-2.83,2.77-5.71,5.49-8.62,8.19l72.32,153.83-24.19,62.84c-.07,.16-.12,.32-.18,.49l-6.69,17.39-88.8-188.88c-2.78,3.3-5.36,6.66-7.72,10.1l90.9,193.36-25.58,66.45c-.06,.15-.12,.3-.18,.47l-.08,.19c4.43,1.38,8.92,2.57,13.43,3.55l237.08-133.24Z" style="fill:#fff; fill-rule:evenodd;"/><path d="M582.03,915.33s71.89-65.62,28.03-167.26c-43.86-101.63,11.78-152.54,19.7-188.43,7.92-35.89-42.57-76.7-50.39-122.26-7.81-45.56,40.22-71.28-.24-125.74-40.46-54.46-26.4-83.09-12.42-156.91C580.7,80.91,506.92-6.22,484.81,.35c-22.12,6.56,11.33,22.57,3.48,71.25-7.86,48.67-86.83,84.17-102.86,127.43-16.03,43.25,42.35,79.08,26.1,136.01-16.25,56.94-108.16,65.45-118.55,119.25-10.38,53.8,60.35,95.82,57.7,150-2.65,54.18-54.32,98.43-68.47,145.21-14.15,46.77-40.2,136.08,61.08,206.98,101.27,70.9,238.74-41.15,238.74-41.15Z" style="fill:#bcc9e7; fill-rule:evenodd;"/><path d="M622.31,789.36c-.69-4.29-1.58-8.67-2.69-13.13l-192.5,188.8,6-57.58c.04-.24,.07-.5,.08-.74l3.07-29.52,163-159.86c-1.17-4.4-2.16-8.7-2.96-12.87l-158.21,155.16,5.42-52.08,150.58-147.69c.67-6.61,1.75-12.89,3.14-18.86l-151.9,148.97,2.7-25.85c.04-.27,.07-.53,.08-.79l11.78-113.09,150.73-147.83c-2-3.23-4.05-6.5-6.09-9.79l-142.81,140.06,5.88-56.46,118.76-116.47c-1.66-3.8-3.13-7.64-4.34-11.51l-112.58,110.41,4.42-42.47c.03-.2,.05-.41,.06-.61l12.85-123.39,88.13-86.43c-2.29-3.29-4.37-6.5-6.26-9.64l-80.04,78.5,11.22-107.73c.03-.21,.06-.42,.07-.63l18.52-177.84c.32-3.09-1.92-5.85-5.01-6.17-3.1-.33-5.86,1.92-6.18,5.01l-16.83,161.6-61.9-101.32c-2.88,2.57-5.72,5.14-8.51,7.7l68.49,112.08-12.65,121.43c-.03,.16-.04,.33-.05,.49l-11.7,112.29-97.61-115.86c-3.18,2.06-6.4,4.07-9.64,6.05l105.63,125.38-4.45,42.8-128.25-151.29c-3.18,2.15-6.26,4.34-9.19,6.6l133.98,158.05-1.1,1.07c-2.22,2.18-2.27,5.74-.09,7.96,.63,.65,1.38,1.11,2.17,1.39l-6.57,63.08c-.02,.18-.05,.36-.05,.55l-10.64,102.11-94.99-112.06c-1.5,3.88-3.17,7.73-5,11.54l98.38,116.06-2.74,26.26-105.35-124.28c-2.01,3.41-4.08,6.79-6.19,10.15l109.92,129.66-6.98,66.97c-.02,.17-.04,.34-.05,.52l-1.93,18.54-134.96-159.2c-1.82,3.91-3.44,7.83-4.82,11.76l138.16,162.98-7.38,70.81c-.02,.16-.04,.33-.05,.5l-.02,.21c4.63,.17,9.28,.15,13.89-.07l194.16-190.43Z" style="fill:#e9eff8; fill-rule:evenodd;"/><path d="M1466.99,1531.18c534.44,0,967.7,19.88,967.7,44.39s-433.26,44.4-967.7,44.4-967.7-19.88-967.7-44.4,433.25-44.39,967.7-44.39Z" style="fill:#d0d9ee; fill-rule:evenodd;"/><path d="M507.29,429.78l-440.82,4.43c-42.27,.42-71.46,46.74-65.76,92.29l113,904.07c5.7,45.55,44.81,80.19,86.45,73.26l432.38-71.95c41.63-6.92,71.46-46.72,65.76-92.29l-104.57-836.55c-5.7-45.57-44.55-78.5-86.45-73.26Z" style="fill:#9d7558; fill-rule:evenodd;"/><path d="M510,451.51l-440.78,4.79c-30.96,.34-52.39,34.31-48.22,67.67l113,904.08c4.17,33.37,32.89,58.79,63.39,53.72l432.38-71.95c30.5-5.08,52.39-34.29,48.22-67.67l-104.61-836.92c-4.17-33.38-32.43-54.05-63.39-53.72Z" style="fill:#fff; fill-rule:evenodd;"/><path d="M513.16,476.77c-146.99-3.74-296.94,8.09-440.83,4.42-18.27-.47-30.9,20.24-28.44,39.91l113.01,904.07c2.46,19.68,19.4,34.68,37.39,31.69l432.38-71.95c17.97-2.99,30.9-20.22,28.44-39.91l-104.57-836.55c-2.46-19.69-19.12-31.22-37.39-31.68Z" style="fill:#f1cdb1; fill-rule:evenodd;"/><polygon points="1352.04 411.95 1188.85 450.89 1222.57 511.26 1352.04 411.95" style="fill:#d0d9ee; fill-rule:evenodd;"/><polygon points="1171.17 422.17 1347.3 411.56 1132.84 393.96 1171.17 422.17" style="fill:#d0d9ee; fill-rule:evenodd;"/><polygon points="1171.17 422.17 1164.13 493.4 1188.85 450.89 1352.04 411.95 1347.3 411.56 1171.17 422.17" style="fill:#aab9de; fill-rule:evenodd;"/><polygon points="1164.13 493.4 1203.79 477.63 1188.85 450.89 1164.13 493.4" style="fill:#8d9fca; fill-rule:evenodd;"/><path d="M1143.88,454.29c4.18-.34,4.38,5.64,.69,5.95-1.95,.23-3.9,.49-5.85,.78-4.39,.37-4.34-5.64-.86-5.93,2-.3,4.01-.56,6.02-.8h0Zm23.89,353.4c-2.45,3.02-7.15-.69-4.63-3.8,1.25-1.51,2.45-3.04,3.65-4.6,2.65-3.26,7.1,.74,4.77,3.61-1.24,1.62-2.49,3.22-3.79,4.79h0Zm13.79-20.27c-1.51,3.23-7.12,1.12-5.29-2.8,.91-1.72,1.79-3.44,2.62-5.2,1.68-3.6,7.1-1.04,5.44,2.5-.87,1.86-1.8,3.69-2.77,5.5h0Zm9.02-22.91c-1.25,3.89-6.55,2.36-5.81-1.46,.48-1.86,.9-3.76,1.24-5.65,.77-3.99,6.62-2.7,5.89,1.06-.36,2.02-.81,4.07-1.33,6.05h0Zm2.83-24.54c.29,3.53-5.63,4.51-5.99,.16-.04-1.81-.07-4.01-.3-5.79-.33-4.01,5.65-4.4,5.96-.56,.23,1.98,.29,4.18,.33,6.18h0Zm-3.61-24.37c1.04,3.94-4.79,5.32-5.76,1.63-.53-1.87-1.09-3.71-1.7-5.56-1.31-3.6,4.27-5.79,5.66-1.96,.64,1.96,1.25,3.89,1.8,5.89h0Zm-9-22.81c1.8,3.83-3.76,6.07-5.31,2.75-.88-1.72-1.82-3.46-2.8-5.14-1.98-3.5,3.28-6.37,5.19-2.99,1.01,1.77,2,3.56,2.92,5.38h0Zm-12.99-20.69c2.4,3.4-2.63,6.64-4.79,3.6-1.18-1.57-2.38-3.12-3.61-4.65-2.54-3.6,2.66-6.61,4.67-3.75,1.27,1.59,2.5,3.18,3.72,4.81h0Zm-15.87-18.46c2.78,2.84-1.52,7-4.26,4.21l-4.2-4.15c-2.94-2.99,1.54-6.98,4.14-4.33,1.46,1.41,2.9,2.83,4.33,4.27h0Zm-18.02-16.28c3.09,2.51-.71,7.14-3.75,4.67l-4.64-3.63c-3.27-2.65,.74-7.11,3.6-4.79l4.79,3.75h0Zm-19.73-14.15c3.31,2.07,.16,7.18-3.21,5.06l-5.03-3.11c-3.47-2.18-.14-7.16,3.08-5.14,1.73,1.04,3.45,2.1,5.16,3.19h0Zm-21-11.94c3.4,2.14,.76,6.95-2.85,5.27-1.77-.95-3.54-1.91-5.3-2.9-3.64-2.29-.1-7.13,2.94-5.22l5.21,2.85h0Zm-20.52-11.93c3.29,2.07,.17,7.18-3.22,5.05-1.7-1.08-3.39-2.18-5.08-3.29-3.17-1.99-.18-7.19,3.33-4.98,1.65,1.09,3.3,2.17,4.97,3.23h0Zm-19.27-13.62c3.05,2.48-.71,7.14-3.78,4.65-1.58-1.27-3.17-2.56-4.69-3.89-2.85-2.31,.66-7.17,3.94-4.5,1.44,1.29,3.02,2.54,4.53,3.75h0Zm-17-16.07c2.52,2.82-1.81,6.96-4.54,3.9-1.36-1.57-2.65-3.19-3.9-4.84-2.35-3.33,2.62-6.66,4.83-3.54,1.06,1.49,2.41,3.09,3.62,4.48h0Zm-11.98-19.32c1.33,3.65-4.27,5.77-5.65,2-.73-2.02-1.34-4.03-1.82-6.12-.91-3.45,4.75-5.42,5.86-1.23,.4,1.82,.97,3.6,1.61,5.35h0Zm-1.57-21.84c-.69,3.55-6.64,2.8-5.82-1.4,.53-2.12,1.15-4.1,1.95-6.13,1.83-3.92,7.06-.98,5.55,2.26-.69,1.75-1.22,3.44-1.68,5.27h0Zm10.63-19.62c-2.33,2.88-7.16-.67-4.53-3.92,1.34-1.58,2.78-3.09,4.24-4.55,2.83-2.78,7.01,1.52,4.21,4.26-1.36,1.35-2.69,2.75-3.92,4.21h0Zm17.39-15.28c-3.15,2.23-6.7-2.6-3.42-4.92,1.44-1.14,3.54-2.37,5.12-3.39,2.86-2.03,6.75,2.55,3.16,5.09-1.37,.79-3.65,2.25-4.87,3.22h0Zm20.31-11.78c-3.67,1.72-6.1-3.75-2.63-5.38,1.81-.9,3.66-1.75,5.5-2.59,3.46-1.63,6.14,3.73,2.45,5.46-1.78,.81-3.58,1.63-5.33,2.51h0Zm21.77-9.15c-3.66,1.33-5.77-4.28-2.01-5.65,1.85-.67,3.85-1.42,5.73-1.98,3.49-1.27,5.8,4.26,1.87,5.69-1.87,.63-3.73,1.26-5.59,1.94h0Zm22.62-6.94c-3.73,.98-5.36-4.78-1.46-5.81l5.89-1.43c3.56-.94,5.39,4.77,1.33,5.84-1.88,.37-3.89,.92-5.76,1.4Z" style="fill:#8d9fca; fill-rule:evenodd;"/><polygon points="1994.97 396.11 1840.74 459.33 1883.08 513.42 1994.97 396.11" style="fill:#d0d9ee; fill-rule:evenodd;"/><polygon points="1818.98 433.84 1990.25 396.45 1777.04 412.03 1818.98 433.84" style="fill:#d0d9ee; fill-rule:evenodd;"/><polygon points="1818.98 433.84 1822.99 504.85 1840.74 459.33 1994.97 396.11 1990.25 396.45 1818.98 433.84" style="fill:#aab9de; fill-rule:evenodd;"/><polygon points="1822.99 504.85 1859.5 483.3 1840.74 459.33 1822.99 504.85" style="fill:#8d9fca; fill-rule:evenodd;"/><path d="M1783.33,499.59c5.02-.63,3.88-7.94-.78-7.36l-7.38,.8c-4.94,.62-3.9,7.94,.83,7.35l7.33-.79h0Zm-252.88,294.04c-3.29,0-4.91,4.02-2.68,6.25,.54,.65,1.65,1.15,2.68,1.15l4.77-.02c4.8,0,4.9-7.4-.07-7.4l-4.71,.02h0Zm26.71-.67c-4.36,0-4.98,7.38,.42,7.38l7.45-.46c5.3-.66,3.84-7.93-.56-7.38l-7.31,.46h0Zm29.1-2.77c-4.59,.58-3.96,7.95,1.11,7.32l-1.11-7.32h0Zm28.27-6.23c-4.43,1.66-2.67,8.27,2.3,7.03,2.42-.78,4.81-1.63,7.19-2.56,4.51-1.93,1.82-8.59-2.75-6.87-2.22,.88-4.49,1.66-6.75,2.39h0Zm25.09-12.63c-3.85,3.21,1.02,8.78,4.65,5.75,2.09-1.71,4.02-3.49,5.83-5.5,3.29-3.94-2.59-8.44-5.55-4.89-1.53,1.7-3.17,3.19-4.93,4.64h0Zm13.84-22.43c-.66,5.27,6.74,5.67,7.3,1.26,.48-2.65,.76-5.2,.86-7.89,0-5.1-7.39-4.83-7.39-.18-.07,2.31-.35,4.53-.76,6.8h0Zm-1.98-27.66c1.12,4.5,8.37,2.98,7.13-1.96-.65-2.42-1.37-4.93-2.19-7.29-1.82-4.84-8.62-1.91-7.01,2.37,.76,2.26,1.45,4.57,2.06,6.88h0Zm-10.21-27.1c1.83,4.26,8.75,1.61,6.72-3.09-1.04-2.25-2.1-4.54-3.21-6.76-2.71-4.74-8.78-.48-6.65,3.25,1.08,2.18,2.12,4.4,3.13,6.6h0Zm-13.19-26.24c2.56,4.49,8.81,.52,6.54-3.46l-3.47-6.54c-2.56-4.48-8.82-.52-6.54,3.47,1.19,2.12,2.34,4.37,3.47,6.53h0Zm-13.78-26.29c2.67,4.68,8.78,.49,6.62-3.3l-3.23-6.58c-2.53-4.42-8.56-1.2-6.68,3.19l3.29,6.7h0Zm-12-27.61c1.66,4.43,8.26,2.66,7.03-2.3-.76-2.28-1.43-4.52-2.04-6.85-1.18-4.71-8.36-2.94-7.16,1.81,.64,2.49,1.36,4.89,2.17,7.34h0Zm-3.71-30.71c-.6,4.84,6.73,5.76,7.33,.92,.27-2.28,.69-4.58,1.25-6.81,1.21-4.79-5.99-6.5-7.17-1.83-.63,2.55-1.12,5.11-1.42,7.73h0Zm11.37-28.97c-2.89,4.04,3.19,8.25,5.97,4.36,1.38-1.91,2.82-3.71,4.38-5.47,3.36-4.03-2.6-8.42-5.48-4.96-1.73,1.89-3.38,3.99-4.88,6.06h0Zm22.33-21.09c-3.82,2.73-.34,8.69,4.13,6.14,1.99-1.35,4-2.62,6.07-3.85,4.1-2.34,.59-8.85-3.78-6.36-2.18,1.3-4.32,2.65-6.42,4.07h0Zm26.73-14.19c-4.54,1.95-1.55,8.72,2.87,6.82,2.23-.95,4.49-1.83,6.75-2.7,4.52-1.69,1.98-8.64-2.62-6.91-2.34,.89-4.68,1.81-6.99,2.79h0Zm28.35-9.86c-4.43,1.11-2.99,8.37,2.03,7.11l7.06-1.95c4.61-1.16,2.96-8.36-1.88-7.16l-7.21,1.99h0Zm29.01-7.09c-5.11,1.28-2.87,8.33,1.49,7.24l7.2-1.43c4.71-1.18,3.6-7.89-1.38-7.27l-7.31,1.45h0Zm29.33-5.21c-4.61,.58-3.96,7.95,1.1,7.32l7.29-1.06c4.67-.58,3.95-7.95-1.03-7.33l-7.35,1.07Z" style="fill:#8d9fca; fill-rule:evenodd;"/><path d="M1741.48,1292.06s-35.12,25.35-40.65,32.87c-7.96,10.9,59.47,31.22,52.12,18.48-1.69-2.91-6.54-12.8-6.76-13.73-1.12-5.21,13.18-19.14,13.18-19.14l-17.89-18.48Z" style="fill:#f4ae7c; fill-rule:evenodd;"/><path d="M1771.2,1364.74l-23.85-33.73s-14.86-3.44-30.16-20.66c0,0-13.72,5.22-22.17,16.64,0,0,15.97,17.16,40.56,36.57,0,0,14.58,12.87,34.71,19.74,20.16,6.8,.91-18.54,.91-18.54Z" style="fill:#142d4d; fill-rule:evenodd;"/><path d="M1448.04,830.7s4.33,3.83,5.85,5.02c1.78,1.32,7.45,5.02,7.45,5.02,0,0,20.49,11.61,21.18,10.1,.69-1.52,.67-5.94-.35-7.13-1.02-1.12-3.96-2.38-4.97-3.5-1.02-1.18-1.37-3.5-.07-4.81,1.3-1.33,8.3,2.5,8.3,2.5,0,0,5.67,3.17,8.05,7,8.22,13.13,5.73,13.92,6.82,15.58,1.31,1.98,30.04,15.05,30.04,15.05,0,0,85.94,35.71,90.57,37.69h.07c.63,3.95-1.51,7.58-2.6,11.15-2.06,12.28-5.71,13.07-8.5,24.88-13.19-6.66-104.42-56.89-113.71-62.18,0,0-13.89-2.37-22.56-4.09-8.69-1.79-16.25-7.33-18.62-8.18-.36-.13-8.13-3.44-16.68-10.1-7.35-5.68,2.16-3.57,2.16-3.57,0,0,15.46,8.25,15.87,6.93,.3-.99-8.39-5.02-16.6-11.22-2.12-1.58-4.19-3.16-6.09-4.68-4.97-3.83-4.1-7.92,1.73-4.69,2.07,1.19,5.44,3.17,7.66,4.88,2.4,1.92,5.17,2.91,7.43,4.17,4.47,2.57,7.69,4.49,7.69,4.29,0-.33,1.23-.46-.97-2.24-2.62-2.11-9.18-5.42-12.81-8.85-2.08-1.92-6.62-5.75-6.62-5.75,0,0-5.84-6.92-5.56-7.39,1.55-2.51,6.85,1.19,9.31,4.16,2.54,1.12,7.21,5.28,7.21,5.28,0,0,11.28,6.27,12.15,4.69,.37-.66-6.11-5.28-11.76-10.82-5.26-5.15-9.74-11.16-8.91-12.34,1.42-1.92,7.84,3.17,7.84,3.17Z" style="fill:#f4ae7c; fill-rule:evenodd;"/><path d="M1870.18,535.14s1.16,5.41,1.42,7.26c.28,2.18,.65,8.78,.65,8.78,0,0-.15,23.03-1.87,22.97-1.7-.06-5.61-2.05-6.11-3.43-.51-1.39-.07-4.55-.58-5.94-.5-1.39-2.41-2.71-4.22-2.18-1.81,.59-2,8.38-2,8.38,0,0-.12,6.34,2.04,10.1,7.45,13,9.4,11.22,10.29,12.87,1.08,2.04-2.05,32.94-2.05,32.94,0,0-12.28,90.89-12.9,95.77l-.04,.07c3.19,2.31,7.51,2.05,11.16,2.64,11.87,3.63,14.45,.79,26.31,3.63,.84-14.52,2.98-116.43,3.09-126.86,0,0,4.97-13.2,7.84-21.58,2.87-8.38,1.88-17.43,2.32-19.87,.07-.4,1.08-8.65-.42-19.01-1.28-8.97-4.23,.26-4.23,.26,0,0-.65,17.16-2,16.96-1.05-.19-.14-9.57-1.46-19.47-.32-2.58-.67-5.08-.99-7.39-.9-6.07-4.92-7.13-5.02-.59-.05,2.31-.03,6.14,.4,8.84,.43,2.97-.13,5.81-.13,8.38-.01,5.02,.05,8.65-.17,8.58-.27-.13-.98,.86-1.42-1.78-.54-3.3-.13-10.49-1.29-15.18-.65-2.64-1.69-8.32-1.69-8.32,0,0-3.19-8.18-3.74-8.12-2.98,.26-2.44,6.54-1.07,9.97-.28,2.7,.97,8.65,.97,8.65,0,0-.18,12.61-1.99,12.74-.77,0-1.58-7.72-3.6-15.12-1.87-6.86-4.9-13.46-6.34-13.2-2.44,.33-1.2,8.25-1.2,8.25Z" style="fill:#f4ae7c; fill-rule:evenodd;"/><path d="M1687.78,1031.88l5.55,27.46,139.62,126.99-99.93,101.18,26.98,27.53s147.6-108.37,152.93-122.57c8.21-21.85-105.81-166.72-105.81-166.72l-119.33,6.14Z" style="fill:#142d4d; fill-rule:evenodd;"/><path d="M1589.94,1365.13s-35.12,25.35-40.64,32.87c-7.97,10.9,59.47,31.22,52.12,18.48-1.69-2.91-6.55-12.74-6.77-13.73-1.12-5.21,13.19-19.14,13.19-19.14l-17.89-18.48Z" style="fill:#f4ae7c; fill-rule:evenodd;"/><path d="M1619.7,1437.94l-23.85-33.73s-15.83-2.83-31.12-20c0,0-12.77,4.62-21.22,15.97,0,0,15.96,17.22,40.54,36.57,0,0,14.59,12.94,34.73,19.74,20.16,6.8,.92-18.54,.92-18.54Z" style="fill:#142d4d; fill-rule:evenodd;"/><path d="M1692.55,1044.62l6.28,173.32-118.05,144.75,27.66,25.48s137.06-117.61,152.1-150.36c9.34-20.39,40.75-204.01,40.75-204.01l-108.73,10.82Z" style="fill:#0f3970; fill-rule:evenodd;"/><path d="M1805.19,1030.43c-11.37-25.68-10.07-209.36-54.25-252.4-15.54,2.57-26.64,4.09-29.23,4.75-2.3,18.94-4.84,88.37-6.4,152-1.04,42.45,.05,86.93-5.18,110.36-3.26,14.52,105.42,8.65,95.06-14.72Z" style="fill:#fff; fill-rule:evenodd;"/><path d="M1685.54,792.29c-12.42,2.77-21.52,8.58-37.78,32.6-15.58,23.03-50.15,73.79-50.15,73.79l-91.06-40.46-4.25,46.14s103,53.53,117.52,48.71c14.55-4.82,51.67-58.08,54.7-62.11,.7-.92-2.6,64.35-2.6,74.71s-16.86,93.33-16.86,93.33c0,0,50.09,12.34,59.88-10.1,29.98-68.65,6.96-266.19,6.96-266.19,0,0-27.44,7.52-36.38,9.57Z" style="fill:#406fb5; fill-rule:evenodd;"/><path d="M1761.19,788.72s20.31,54.32,35.08,47c14.77-7.39,95.32-95.18,96.16-99.27,.81-4.09,6.56-107.85,6.56-107.85l-32.8-6.6-21.99,84.22s-57.57,58.81-69.88,64.55c-12.31,5.74-13.12,17.95-13.12,17.95Z" style="fill:#406fb5; fill-rule:evenodd;"/><path d="M1809.61,1042.7c9.94,0,13.62-1.39,20.22-3.36,0,0-18.91-106.6-29.9-212.34-4.35-41.78-8.39-58.87-25.62-55.84-4.98,.86-18.46,6.01-23.36,6.86,43.29,122.44,43.44,216.76,49.57,244.08,3.07,13.73,5.75,20.66,9.09,20.59Z" style="fill:#406fb5; fill-rule:evenodd;"/><path d="M1746.38,759.48l4.53,18.55s1.04,16.1-6.44,17.56c-9.01,1.72-22.42-11.75-22.42-11.75l-7.75-52.21,32.09,27.85Z" style="fill:#f3a992; fill-rule:evenodd;"/><path d="M1746.38,759.48l4.53,18.55s1.04,16.1-6.44,17.56c-9.01,1.72-22.42-11.75-22.42-11.75l-7.75-52.21,32.09,27.85Z" style="fill:#f4ae7c; fill-rule:evenodd;"/><path d="M1714.35,731.83l32.03,27.66,3.38,13.86c-12.23-2.97-29.67-16.43-35.4-41.52Z" style="fill:#ec724c; fill-rule:evenodd;"/><path d="M1746.48,683.84c7.74,0,14.71,5.35,17.43,13.07,2.25,6.4,5.16,15.91,6.98,26.8,3.4,20.06-8.04,38.41-17.97,39.93-9.96,1.45-33.64-5.15-38.88-33.6-2.26-12.15-5.2-28.18,4.81-36.57,7.79-6.54,18.72-9.64,27.62-9.64Z" style="fill:#f4ae7c; fill-rule:evenodd;"/><path d="M1717.27,751.76s-35.07-31.29-36.59-55.71c-1.55-24.36,21-37.43,40.28-38.15,8.71-.26,14.61,.13,23.58,1.25,19.31,2.44,31.83,10.96,27.42,26.8-5.9,21.25-45.98,3.3-54.17,9.9-6.76,5.48,4.19,18.55-2.38,23.5-6.17,4.75-3.03,3.17-.99,12.08,2.05,8.91,2.84,20.33,2.84,20.33Z" style="fill:#0f3970; fill-rule:evenodd;"/><path d="M1703.75,723.44c.87,5.81,4.45,10.16,8,9.64,3.53-.53,5.7-5.68,4.83-11.55-.87-5.87-4.45-10.16-7.98-9.64-3.56,.53-5.71,5.68-4.86,11.55Z" style="fill:#f4ae7c; fill-rule:evenodd;"/><path d="M969.13,826.36c-2.63-17.6-5.37-35.24-21.61-49.5-13.13-11.51-29.49-14.78-45.44-10.77-45.17,11.38-34.24,51.42-68.81,84.05-14.78,13.91-33.57,18.7-45.66,34.04-21.87,27.64-18.83,80.66,16.77,117.53,87.17,90.32,168.53-21.68,174.35-48.24,4.34-19.74-7.91-115.77-9.6-127.1Z" style="fill:#0f3970; fill-rule:evenodd;"/><path d="M985.28,1399.78c-3,23.32-8.99,44.03-9.82,46.5-.42,1.17-4.59,5.61-5.03,6.77,3.69,28.02,21.64,43.75,38.32,54.72-4.17-13.98-12.72-29.82-11.87-33.03,1.37-5.1,6.5-28.41,18.4-57.99-13.48-.81-18.67-9.03-29.99-16.98Z" style="fill:#f4ae7c; fill-rule:evenodd;"/><path d="M945.54,1058.87l-87.97,60.88s38.68,44.33,53.19,60.82c14.51,16.49,89.21,77.58,90.3,81.27,.24,.72-4.54,8.78-6.61,19.18-5.62,28.08-13.68,82.91-18.39,130.04,8.21,10.03,27.37,13.7,38.68,17.52,32.79-55.88,51.46-166.56,52.37-180,1.41-21.8-121.57-189.7-121.57-189.7Z" style="fill:#142d4d; fill-rule:evenodd;"/><path d="M692.67,1186.69c3.09,2.26,26.22,36,35.81,54.57,9.11-8.2,14.08-17.04,24.66-23.25-10.69-11.94-32.43-41.35-34.93-48.79-5.89-17.57-10.22-19.58-10.22-19.58,0,0-55.39,29.76-58.47,36.2-3.07,6.36,30.71-8.58,43.14,.85Z" style="fill:#f4ae7c; fill-rule:evenodd;"/><path d="M719.46,1173.16c4.52-.68-3.37-21.25-5.12-25.96-1.93-5.34-5.21-6.54-6.01-6.63-2.14-.15-63.71,32.98-73.47,42.89-.69,.67-1.76,2.65-1.91,3.07-4.37,12.64,49.34,6.4,56.31,.04,6.19-5.57,9.86-10.19,30.2-13.41Z" style="fill:#142d4d; fill-rule:evenodd;"/><path d="M962.13,1079.63l-70.97-35.63c.27,.2-.64,3.11-.71,3.31-8.69,27.37-44.51,14.27-62.78,61.68-12.87,33.43-15.73,148.85-15.73,148.85,0,0-32.26-27.54-66.11-56.8-3.11-2.63-30.9,23.95-30.9,23.95,42.63,85.44,115.72,122.7,125.57,119.59,33.6-10.41,98.62-226.1,98.55-226.11,7.27-12.63,23.08-38.82,23.08-38.82Z" style="fill:#0f3970; fill-rule:evenodd;"/><path d="M857.41,886.13s-88.42-24.75-108.18-29.07c-19.77-4.25-87.79-31.84-90.39-32.97-2.61-1.2-10.74-38.4-14.77-35.92-4.03,2.48,5.12,18.82,.14,20.73-5,1.99-45.76-18.4-46.22-14.89-.85,6.53,24.45,13.47,23.52,16.44-.95,2.97-25.73-9.76-29.04-5.36-3.31,4.47,24.6,9.82,24.97,12.4,.41,2.51-26.97-1.47-25.73,4.02,.68,2.94,24.44,2.93,23.29,6.3-1.16,3.38-19.39,6.3-18.31,9.68,1.11,3.32,15-4.55,24.25-1.9,9.22,2.65,17.34-.31,30.69,8.43,13.37,8.73,56.85,45.16,88.59,53.21,31.73,8.13,101.85,26.13,101.85,26.13l15.32-37.26Z" style="fill:#f4ae7c; fill-rule:evenodd;"/><path d="M961.59,884.31s40.42-82.52,50.36-100.05c9.98-17.6,34.65-86.73,35.52-89.5,.87-2.69-21.45-33.55-16.92-34.89,4.53-1.34,10.59,16.34,15.38,13.95,4.78-2.4,16.72-46.4,19.62-44.4,5.44,3.71-6.24,27.21-3.37,28.47,2.87,1.26,9.84-25.66,15.36-25.17,5.5,.48-9.08,24.86-7.42,26.82,1.64,2.04,16.91-21.1,20.13-16.53,1.76,2.5-14.08,20.21-10.78,21.56,3.31,1.43,17.62-10.19,19.38-7.18,1.76,3.02-13.38,8.13-17.53,16.85-4.13,8.65-11.75,12.73-14.14,28.52-2.39,15.78-4.13,72.44-19.24,101.5-15.1,29.13-48.29,93.41-48.29,93.41l-38.04-13.34Z" style="fill:#f4ae7c; fill-rule:evenodd;"/><path d="M980.97,988.37c2.29-15.74,7.18-58.1,6.85-63.41,5.65-16.14,23.93-39.31,27.88-46,0,0-20.84-28.27-37.65-29.1,0,0-19.37,22.35-33.09,28.72-.18-.11-4.84,1.79-6.79,1.61-12.79-.88-57.35-5.27-65.88-3.21v72.41c2.11,4.34-.41,87.43,4.08,94.62,4.49,7.11,74.35,42.9,86.79,35.68,.48-.27,13.2-59.58,17.81-91.33Z" style="fill:#6998d0; fill-rule:evenodd;"/><path d="M895.01,879.63c-1.93-1.2-6.58-2.62-13.42-3.15-20.24-1.7-54.3-4.78-54.3-4.78,0,0-11.17,42.83-5.14,53.74,0,0,52.77,11.75,50.95,16.24l21.91-62.05Z" style="fill:#6998d0; fill-rule:evenodd;"/><path d="M910.76,851.74s2.98,25.29,1.42,35.13c-1.59,9.84,.78,41.93,20.77,43.35,19.97,1.41,6.46-40.2,5.21-50.04-1.27-9.77,.25-39.73,.25-39.73l-27.66,11.28Z" style="fill:#f4ae7c; fill-rule:evenodd;"/><path d="M937.88,855.45c.21-8.2,.55-14.99,.55-14.99l-27.66,11.28s.61,5.13,1.15,11.73c11.56,3.28,20.37-.72,25.96-8.02Z" style="fill:#ec724c; fill-rule:evenodd;"/><path d="M905.5,781.99s-10.72,5.36-15.36,18.1c-4.62,12.67-2.52,46.48,23.64,56.32,26.14,9.84,39.46-15.91,35.32-37.02-4.12-21.11-14.37-48.14-43.59-37.4Z" style="fill:#f4ae7c; fill-rule:evenodd;"/><path d="M952.96,811.58c-.87,5.49-4.1,9.61-7.18,9.04-3.09-.5-4.86-5.43-3.99-10.92,.9-5.56,4.12-9.61,7.22-9.11,3.07,.49,4.86,5.43,3.96,10.99Z" style="fill:#f4ae7c; fill-rule:evenodd;"/><path d="M975.26,1446.98c-1.88-4.37-18.25,10.73-22.13,13.83-4.38,3.52-4.55,7.16-4.39,7.93,.41,2.15,46.39,55.45,59.47,62.35,1.22,.7,3.74,.56,4.46,.26,6.91-3.28-6.72-48.25-16.39-56.72-6.26-5.42-12.47-8.19-21.02-27.65Z" style="fill:#142d4d; fill-rule:evenodd;"/><path d="M908.76,780.53s-7.31,37.08-19.32,43.06c-12.01,5.98-8.24,22.82-8.24,22.82,0,0-7.96-39.14,2-50.92,9.95-11.71,25.57-14.95,25.57-14.95Z" style="fill:#0f3970; fill-rule:evenodd;"/><path d="M895.95,829.37c2.8,5.07,2.43,10.82-.88,12.85-3.28,1.98-8.25-.53-11.05-5.6-2.82-5.08-2.43-10.82,.86-12.79,3.28-1.97,8.25,.46,11.07,5.54Z" style="fill:#f4ae7c; fill-rule:evenodd;"/><path d="M1160.98,1503.01s-9.34,9.24-9.57,12.64c-.21,3.39-.82,39.74,2.99,43.14,3.82,3.4,15.04,5.84,11.44,9.64-2.72,2.85-23.69,2.24-37.6,1.5-4.03-.27-9.13-33.02-10.75-37.85-2.32-6.99-10.73-22.28-8.62-27.11,1.05-2.37,8.72-7.81,15.68-12.36,7.32-4.82,14.35-15.49,14.35-15.49l22.08,25.88Z" style="fill:#f4ae7c; fill-rule:evenodd;"/><path d="M1286.1,1525.71l-8.38,24.05c-.63,3.8-3.07,13.18-3.07,16.65,0,12.98,57.7-11.01,44.77-16.78-1.18-.54-4.85-4.69-5.22-9.11-.62-6.79,4.84-15.28,4.84-15.28l-32.93,.48Z" style="fill:#f4ae7c; fill-rule:evenodd;"/><path d="M1365.7,1070.75l20.89,54.09s13.63,129.09,5.71,206.34c-3.33,32.35-75.17,205.33-75.17,205.33l-35.7-5.1,47.8-204.86-17.59-78.34-24.9-154.92,78.95-22.56Z" style="fill:#142d4d; fill-rule:evenodd;"/><path d="M1267.31,1073.53l-17.93,60.2-27.24,181.82-92.17,170.07s13.85,21.34,28.73,24.67l130.83-171.9,70.91-215.18-2.49-47.83-90.64-1.83Z" style="fill:#0f3970; fill-rule:evenodd;"/><path d="M1549.59,1069.73c-13.92-.68-13.47,1.74-15.27,1.55-2.09-.13-24.58-17.51-24.58-17.51,0,0-66.53-50.72-70.02-53.58l-41.52-76.47-43.28,10.15s47.35,81.93,50.56,85.79c3.19,3.8,101.02,61.76,109.5,67.17,0,0,7.73,10.19,12.79,16.43,5.08,6.24,12.6,9.84,14.31,11.4,.25,.19,6.17,5.01,15.03,8.85,7.63,3.42,1.94-3.29,1.94-3.29,0,0-13.03-8.84-12.17-9.74,.66-.73,7.49,4.51,15.89,8.33,2.16,.98,4.28,1.91,6.25,2.76,5.16,2.27,8.04-.25,3-3.54-1.78-1.14-4.78-2.95-7.09-3.94-2.53-1.12-4.48-2.93-6.44-4.15-3.9-2.45-6.8-4.23-6.62-4.31,.25-.11-.19-1.18,2.14-.19,2.81,1.15,8.18,4.96,12.45,6.35,2.4,.8,7.31,2.74,7.31,2.74,0,0,8.34,2.28,8.57,1.82,1.34-2.36-4.18-5.73-7.56-6.34-1.98-1.58-7.2-3.46-7.2-3.46,0,0-9.74-6.27-8.89-7.68,.69-1.18,26.88,9.25,28.07,6.8,.95-2.05-6.79-5.56-6.79-5.56,0,0-4.85-1.74-6.42-2.46-1.82-.83-7.15-3.78-7.15-3.78,0,0-17.97-10.98-17.06-12.27,.9-1.28,4.56-3.55,5.91-3.24,1.36,.29,3.56,2.15,4.88,2.39,1.36,.29,3.37-.5,3.86-2.13,.46-1.68-5.53-5.59-5.53-5.59,0,0-4.86-3.15-8.88-3.32Z" style="fill:#f4ae7c; fill-rule:evenodd;"/><path d="M1414.71,945.06l-44.52,25.15s-19.07-37.79-27.14-56.28c-9.79-22.42-19.74-52.03-16.8-52.57,8.26-1.53,19.42-1.81,29.09,3.9,33.43,19.87,59.38,79.8,59.38,79.8Z" style="fill:#406fb5; fill-rule:evenodd;"/><path d="M1197.57,1169.95c-7.76-12.71-9.51-10.88-10.45-12.58-1.13-1.97,.12-32.2,.12-32.2,0,0,3.1-89.29,3.43-94.11l39.75-82.41-34.36-32.35s-40.9,90.85-42.21,96.01c-1.34,5.16,8.11,126.44,8.62,137.18,0,0-3.98,12.98-6.21,21.2-2.24,8.15-.82,17.06-1.09,19.43-.05,.42-.54,8.5,1.44,18.68,1.72,8.77,4-.33,4-.33,0,0-.33-16.78,.94-16.58,1,.14,.67,9.38,2.45,19.09,.46,2.44,.94,4.96,1.38,7.2,1.15,5.99,5.02,6.94,4.77,.55-.08-2.24-.33-6.05-.87-8.7-.59-2.85-.21-5.64-.36-8.15-.25-4.9-.5-8.49-.29-8.42,.24,.13,.87-.88,1.44,1.77,.7,3.19,.7,10.26,2.05,14.81,.77,2.58,2.05,8.15,2.05,8.15,0,0,3.47,8.02,4,7.96,2.82-.21,1.95-6.39,.46-9.79,.12-2.65-1.41-8.42-1.41-8.42,0,0-.52-12.36,1.2-12.5,.71,0,1.92,7.54,4.22,14.81,2.16,6.72,5.38,13.18,6.73,12.91,2.28-.35,.67-8.09,.67-8.09,0,0-1.4-5.3-1.74-7.14-.4-2.1-1.11-8.56-1.11-8.56,0,0-1.44-22.56,.19-22.49,1.61,.07,5.71,1.97,6.27,3.33,.57,1.35,.31,4.41,.88,5.77,.57,1.35,2.43,2.65,4.11,2.1,1.69-.54,1.44-8.22,1.44-8.22,0,0-.25-6.17-2.49-9.91Z" style="fill:#f4ae7c; fill-rule:evenodd;"/><path d="M1125.02,1492.35s19.7,60.33,28.12,63.32c2.26,.74,14.85,3.94,16.88,8.77l.14,.48c.65,3.06-1.92,5.85-5.03,5.85h-40.03s-5.68-27.12-7.94-39c0,0-11.88-29.15-10.56-31.73,1.32-2.65,18.42-7.67,18.42-7.67Z" style="fill:#142d4d; fill-rule:evenodd;"/><path d="M1271.36,1570.68l6.61-21.2s13.86,5.97,20.8,4.96c6.95-.95,20.49-4.96,20.49-4.96,27.69,9.24,50.38,13.72,46.25,21.2h-94.15Z" style="fill:#142d4d; fill-rule:evenodd;"/><path d="M1532.8,1082.62c5.79,2.29,11.27,2.2,16.56-1-3.96,5.89-12.48,5.38-16.56,1Z" style="fill:#ef8857; fill-rule:evenodd;"/><path d="M1273.79,852.64s-26.94,3.74-34.02,8.97c-7.97,5.84-32.69,33.22-32.69,33.22,0,0,51.44,147.31,49.45,173.54-2,26.23-7.65,65.09-7.65,65.09,0,0,100.61,6.39,138.44-8.56,0,0-12.65-59.52-12.65-75.08s-6.71-171.56-11.47-179.71c-4.8-8.16-14.41-12.78-32.66-16.78-18.25-4.01-56.74-.68-56.74-.68Z" style="fill:#6998d0; fill-rule:evenodd;"/><path d="M1281.13,810.58l-6.65,43.62s24.34,51.98,38.88,47.49c12.18-3.8,4.68-49.73,4.68-49.73,0,0-6.66-24.73-4.67-37.1,2.02-12.3-32.24-4.28-32.24-4.28Z" style="fill:#f4ae7c; fill-rule:evenodd;"/><path d="M1313.37,814.86c2.02-12.3-32.24-4.28-32.24-4.28l-.54,3.6c1,2.44,2.21,4.55,3.72,6.11,7.63,8.15,19.6,13.11,29.92,13.45-1.03-6.66-1.67-13.79-.86-18.89Z" style="fill:#ef8857; fill-rule:evenodd;"/><path d="M1275.52,748.89c-.96-.34-7.75,49.67,5.12,63.46,12.88,13.73,37.98,18.28,46.99,7.41,4.45-5.34,13.34-20.4,7.09-37.35-6.33-17.19-6.58-34.76-17.67-42.62-20.01-14.13-41.53,9.1-41.53,9.1Z" style="fill:#f4ae7c; fill-rule:evenodd;"/><path d="M1316.02,697.42c-18.74,38.46-39.03,33.02-42.7,37.02-29.58,3.42-47.86,52.97-17.95,75.87,14.14,10.87,23.27,16.58,23.27,16.58l2.25-6.59c1.65-4.89,2.33-10.13,1.78-15.29-.33-3.05-1-6.39-2.3-9.17-3.38-7.2,7.3-12.03,10.31-18.08,2.3-4.62,2.41-15.29,6.04-22.9l4.35-5.91s10.01-7.75,19.82-5.51c9.8,2.18,16.38-23.01-4.87-46.03Z" style="fill:#0f3970; fill-rule:evenodd;"/><path d="M1290.01,786.67c.11,6.11-2.69,11.14-6.23,11.14-3.56,.07-6.52-4.83-6.62-10.94-.09-6.11,2.68-11.07,6.24-11.14,3.55-.07,6.5,4.83,6.6,10.94Z" style="fill:#f4ae7c; fill-rule:evenodd;"/><path d="M1173.67,947.63l45.02,35.13s19.88-19.03,29.88-40.16c10.1-21.34,1.23-83.64-9.52-80.79-24.07,6.52-65.38,85.82-65.38,85.82Z" style="fill:#406fb5; fill-rule:evenodd;"/><path d="M518.88,682.41l1.18-2.17c19.35,6.65,31.92,14.82,27.43,22.73-3.21,9.93-13.67,13.9-23.03,23.42-4.31-5.13-8.58-8.54-12.83-10.23-2.74-10.9-2.65-19.59,.25-26.06l6.31-6.41,.69-1.27Z" style="fill:#f4ae7c; fill-rule:evenodd;"/><path d="M239.76,1385.53c-16.19-5.71-17.5-14.05-26.23-18.13-8.79-4.11-9.8-11.42-1.21-19.35,6.35,5.07,14.22,11.3,18.4,8,2.79-2.21,12.23-2.06,14.11,1.15,8.23,19.13,19.67,13.07,21.93,21.77,.26,11.59-19.57,9.17-27,6.56Z" style="fill:#142d4d; fill-rule:evenodd;"/><path d="M378.87,1386.11c-29.9-.48-52.25-.84-62.58-4.11-11.14-3.52-8.84-10.31-2.44-21.18,28.19,12.97,20.67-2.67,33.86-.68,9.26,7.46,22.98,12.46,41.14,14.99,7.69,5.67,4.56,10.72-9.99,10.97Z" style="fill:#142d4d; fill-rule:evenodd;"/><path d="M275.54,660.45c4.78,.34,12.31-.58,13.64-2.27,5.07-6.45,8.6-13.18,9.9-17.42-.99-2.83-2.03-6.39-3.11-10.7-18.4-12.5-20.92-21.74-7.54-27.74,2.7,1.51,6.04,6.16,10.03,13.96,3.19-.12,5.61-1.76,7.26-4.89-3.8-13.16-6.27-23.84-7.42-32.06,9.06-13.47,30.27-15.4,58.35-11.76,1.31,7.47,2.37,15.39,3.2,23.75,4.97,4.57,4.32,21.52-.25,41.06,2.28,11.11-4.57,17.18-20.58,18.19-.23,3.95,.14,8.78,.39,9.32,.4,.85,1.83,1.68,3.79,2.38h0c.54,18.34-22.01,17.73-67.66-1.83Z" style="fill:#f4ae7c; fill-rule:evenodd;"/><path d="M356.64,567.58c-28.07-3.64-49.28-1.71-58.35,11.76,1.15,8.21,3.62,18.9,7.42,32.06-1.64,3.13-4.06,4.77-7.25,4.89-3.99-7.8-7.34-12.45-10.04-13.96-13.37,6-10.85,15.24,7.55,27.74,1.08,4.31,2.12,7.87,3.11,10.7-16.55-3.71-30.4-18.52-32.35-24.92-19.31-38.06,2.22-54.13,13.75-59.99,5.09-37.69,59.81-4.38,87.24-22.55,10.9,15.06-2.58,33.94-11.07,34.28Z" style="fill:#142d4d; fill-rule:evenodd;"/><path d="M525.13,727.21c-13.89,59.49-38.3,105.65-73.21,138.49-12.58-3.82-23.75-12.42-33.49-25.8,.52,43.03-.55,85.86-3.22,128.48-25.49,12.08-59.32,11.3-101.5-2.34l-17.11-21.07c-4.39-.85-14.38,4-19.16,11.41-40.07-30.58-67.08-63.44-83.02-96.08,4.3-70.14,13.83-125.48,28.58-166.02,7.46-11.47,24.97-22.74,52.55-33.82,45.65,19.56,68.2,20.17,67.66,1.83,13.42,4.41,31.24,12.21,53.43,23.39,18.5,14.06,34.26,52.16,47.28,114.3,21.18-26.54,43.15-54.67,65.92-84.41,5.06,1.43,10.16,5.32,15.3,11.65h0Zm-237.76,198.74c13.28-43.66,5.95-97.55-21.99-161.64-7.04,31.62-14.64,62.74-22.81,93.37,9.49,4.51,24.42,27.27,44.8,68.27Z" style="fill:#6998d0; fill-rule:evenodd;"/><path d="M282.4,982.88c6.48-.5,16.91-6.11,31.3-16.84,42.19,13.65,76.02,14.43,101.5,2.34,4.53,71.75-13.1,146.97-35.48,230.81-21.92,36.81-20.99,62.68-32.67,147.6-6.48,4.63-17.2,3.96-32.15-2.01-4.75-72.41-1.47-120.35,17.32-147.38-2.94-24.28,4.75-83.96,5.11-121.42-13.67,30.47-23.05,71.63-40.86,113.21-21.69,50.62-36.79,104.79-48.23,154.21-12.1,2.35-23.44,.96-34.03-4.15,12.15-81.22,25.61-137.13,40.39-167.7-.57-79.86,7.04-151.59,22.81-215.18,2.94,7.51,4.59,16.34,4.98,26.51Z" style="fill:#0f3970; fill-rule:evenodd;"/><path d="M313.7,966.04c-14.39,10.73-24.82,16.34-31.3,16.84-.38-10.17-2.04-19-4.98-26.51,4.79-7.4,14.77-12.26,19.16-11.41l17.11,21.07Z" style="fill:#f4ae7c; fill-rule:evenodd;"/><path d="M418.42,839.9c-1.39-41.79-4.74-76.05-10.05-102.78,13.52,56.76,26.62,94.43,39.3,113,8.01-.25,18.16-5,30.45-14.25-7.96,10.93-16.69,20.88-26.21,29.83-12.58-3.82-23.75-12.42-33.49-25.8Z" style="fill:#406fb5; fill-rule:evenodd;"/><path d="M296.59,944.97c-2.45-6.07-5.53-12.42-9.23-19.02,13.28-43.66,5.95-97.55-21.99-161.64,40.64,57.78,52.17,119.38,34.58,184.8l-3.36-4.14Z" style="fill:#406fb5; fill-rule:evenodd;"/><path d="M320.57,646.71c4.49,2.22,10.64,3.51,18.45,3.87-.16,2.65-.04,5.69,.13,7.58-7.86-1.51-14.05-5.33-18.58-11.45Z" style="fill:#ed7d5b; fill-rule:evenodd;"/><path d="M316.68,1362.09c1.51-4.94,2.08-10.27,1.7-15.99,11.41,4.1,20.11,4.82,26.12,2.15-.31,4.23,.17,8.14,1.45,11.73-10.38-.37-5.64,12.21-29.27,2.1h0Zm-75.36-7.02c-3.59-.94-8.67-.54-10.59,.98-3.73,2.95-10.42-1.72-16.33-6.37,1.02-2.81,1.86-5.87,2.52-9.21,7.13,2.98,14.58,4.31,22.37,3.99-.11,4.25,.56,7.78,2.02,10.61Z" style="fill:#f4ae7c; fill-rule:evenodd;"/><path d="M281.97,993.07c.46-3.69,.6-7.09,.43-10.19,6.48-.5,16.91-6.11,31.3-16.84,3.42,1.11,6.78,2.13,10.09,3.07-10.12,10.53-24.07,18.52-41.82,23.97Z" style="fill:#3860a7; fill-rule:evenodd;"/><path d="M689.05,646.57c-9.29-5.58-32.85,16.56-52.63,49.46-19.77,32.9-28.27,64.1-18.97,69.68,9.29,5.59,32.86-16.56,52.63-49.46,19.77-32.9,28.27-64.1,18.98-69.68Z" style="fill:#0f3d86; fill-rule:evenodd;"/><path d="M554.5,617.09l-19.33-11.62c-4.39-2.64-13.83,4.99-21.08,17.05s-9.56,23.97-5.16,26.61l19.33,11.62c-4.4-2.64-2.09-14.56,5.16-26.61,7.25-12.05,16.69-19.69,21.08-17.04Z" style="fill:#406fb5; fill-rule:evenodd;"/><path d="M533.42,634.14c6.7-11.15,15.28-18.51,20-17.47,41.86,19.84,84.46,29.83,127.82,29.98-11.46,4.37-29.31,23.56-44.83,49.38-15.69,26.12-24.29,51.17-22.51,63.17-22.74-40.85-51.58-73.92-86.52-99.21-3.14-3.69-.66-14.71,6.04-25.86Z" style="fill:#6998d0; fill-rule:evenodd;"/><path d="M655.08,696.96l-13.26-9.51c-1.82,2.77-3.62,5.63-5.4,8.58-2.32,3.86-4.48,7.69-6.48,11.47l14.76,6.73c5.04,2.3,10.98,1.31,13.83-3.45h0c2.86-4.75,1.06-10.6-3.45-13.83Z" style="fill:#406fb5; fill-rule:evenodd;"/><path d="M510.71,679.23l10.26,6.16c-3.42,.92-6.49,2.58-9.22,5l-5.69-3.42c-3.19-1.92-5.31-4.97-6.15-8.33-.84-3.37-.4-7.05,1.52-10.24l10.5-17.46,7.74,4.65-10.5,17.46c-.63,1.06-.78,2.29-.5,3.41,.28,1.12,.98,2.14,2.05,2.77h0Zm35.36,20.83h0c-1.44,2.39-3.15,3.66-5.13,3.81-5.96-1.36-12.12-4-18.47-7.89-1.08-.63-1.91-1.2-2.48-1.72-.14,.27-.28,.54-.43,.82l20.15,12.11c3.18,1.91,6.86,2.35,10.24,1.51,3.37-.83,6.41-2.94,8.33-6.13l6.25-10.41c-2.17-2.22-4.36-4.41-6.59-6.56l-7.4,12.32c-.64,1.06-1.65,1.76-2.77,2.04h-.01c-.55,.15-1.12,.18-1.69,.1Z" style="fill:#0f3d86; fill-rule:evenodd;"/><path d="M2089.44,1512.74l-1.83,32.37c-.66,4.09-3.31,14.21-3.31,17.95,0,14,62.28-11.85,48.34-18.09-1.29-.56-9.86-7.97-10.27-12.75-.64-7.35-.31-18.99-.31-18.99l-32.62-.49Z" style="fill:#f4ae7c; fill-rule:evenodd;"/><path d="M2132.47,1544.83s-14.61,4.3-22.1,5.34c-7.48,1.1-17.38-7.9-22.68-5.48-5.81,2.7-6.22,33.55-6.22,33.55,0,0,76.67,5.82,96.3,.21,8.81-2.56-15.4-23.63-45.31-33.62Z" style="fill:#142d4d; fill-rule:evenodd;"/><path d="M2209.55,1512.74l-1.83,32.37c-.68,4.09-3.33,14.21-3.33,17.95,0,14,62.3-11.85,48.33-18.09-1.26-.56-9.83-7.97-10.26-12.75-.64-7.35-.3-18.99-.3-18.99l-32.61-.49Z" style="fill:#f4ae7c; fill-rule:evenodd;"/><path d="M2252.57,1544.83s-14.63,4.3-22.12,5.34c-7.48,1.1-17.36-7.9-22.66-5.48-5.84,2.7-6.22,33.55-6.22,33.55,0,0,76.65,5.82,96.27,.21,8.83-2.56-15.36-23.63-45.27-33.62Z" style="fill:#142d4d; fill-rule:evenodd;"/><path d="M2262.26,665.8c2,15.8,4.5,14.76,4.69,16.84,.25,2.36-14.16,31.33-14.16,31.33,0,0-41.96,85.52-44.37,90.1l-74.63,62.93,19.34,46.44s79.43-70.63,82.96-75.06c3.52-4.43,47.23-126.7,51.41-137.3,0,0,9.51-10.88,15.27-17.95,5.76-7,8.24-16.22,9.56-18.5,.19-.28,4.19-7.97,6.71-18.78,2.16-9.29-4-1.39-4-1.39,0,0-7,16.49-8.17,15.73-.9-.62,3.44-9.43,5.93-19.68,.64-2.63,1.25-5.2,1.83-7.62,1.45-6.24-1.88-8.94-4.41-2.56-.9,2.22-2.3,5.96-2.95,8.8-.68,3.05-2.26,5.61-3.21,8.11-1.9,4.92-3.2,8.53-3.37,8.31-.19-.21-1.24,.49-.65-2.35,.74-3.33,3.8-10.26,4.49-15.32,.38-2.84,1.53-8.8,1.53-8.8,0,0,.13-9.29-.41-9.5-2.85-.97-4.69,5.41-4.71,9.36-1.27,2.5-2.32,8.8-2.32,8.8,0,0-4.88,12.27-6.6,11.64-.73-.27,1.41-8.18,2.33-16.22,.83-7.48,.5-15.18-.9-15.52-2.4-.69-4.2,7.55-4.2,7.55,0,0-.96,5.82-1.43,7.69-.54,2.29-2.64,8.87-2.64,8.87,0,0-8.42,22.53-9.99,21.76-1.54-.76-4.73-4.37-4.67-5.96,.05-1.52,1.62-4.44,1.67-5.96,.05-1.59-1.2-3.67-3.07-3.88-1.88-.21-4.97,7.41-4.97,7.41,0,0-2.47,6.17-1.89,10.68Z" style="fill:#f4ae7c; fill-rule:evenodd;"/><path d="M1886.76,696.22c.87,15.87-1.75,15.39-1.57,17.4,.19,2.42,19.62,28.21,19.62,28.21,0,0,56.75,76.58,59.97,80.6l84.79,48.38-10.59,49.21s-90.92-55.1-95.19-58.85c-4.29-3.67-69.41-116.02-75.44-125.72,0,0-11.35-8.94-18.28-14.83-6.93-5.82-11.05-14.49-12.75-16.42-.25-.28-5.59-7.14-10.01-17.26-3.82-8.73,3.69-2.15,3.69-2.15,0,0,9.88,14.97,10.88,14,.76-.76-5.08-8.59-9.42-18.23-1.1-2.49-2.17-4.92-3.15-7.21-2.58-5.89,.2-9.15,3.86-3.32,1.27,2.01,3.35,5.47,4.47,8.11,1.25,2.91,3.25,5.13,4.63,7.42,2.77,4.5,4.71,7.76,4.84,7.55,.15-.28,1.3,.28,.19-2.43-1.32-3.19-5.57-9.36-7.17-14.2-.89-2.77-3.11-8.39-3.11-8.39,0,0-1.81-9.15-1.32-9.43,2.63-1.53,5.59,4.43,6.33,8.32,1.71,2.22,3.88,8.25,3.88,8.25,0,0,7.05,11.16,8.57,10.26,.67-.41-2.85-7.83-5.22-15.52-2.18-7.21-3.24-14.83-1.92-15.46,2.24-1.04,5.5,6.65,5.5,6.65,0,0,1.99,5.55,2.79,7.35,.94,2.15,4.23,8.18,4.23,8.18,0,0,12.36,20.72,13.76,19.68,1.38-1.04,3.86-5.2,3.51-6.72-.34-1.52-2.4-4.09-2.75-5.61-.32-1.53,.51-3.81,2.34-4.37,1.81-.49,6.24,6.38,6.24,6.38,0,0,3.54,5.61,3.79,10.19Z" style="fill:#f4ae7c; fill-rule:evenodd;"/><path d="M2107.49,1101.88s94.36,224.56,97.86,244.72c2.54,14.84-.74,182.77-.74,182.77l44.62-.7,15.66-191.91-58.72-242.03-98.67,7.14Z" style="fill:#142d4d; fill-rule:evenodd;"/><polygon points="2066 1112.42 2109 1361.79 2080.91 1528.68 2131.72 1528.68 2171.64 1349.24 2177.13 1152.62 2156.54 1089.34 2066 1112.42" style="fill:#0f3970; fill-rule:evenodd;"/><path d="M2189.25,816.4s11.16,50.25,18.98,58.08c0,0-39.89,26.62-38.03,37.22,1.86,10.54,44.17,207.92,44.17,207.92,0,0-87.12,45.39-141.32,38.12,0,0-40.81-224.9-51.36-235.44-10.55-10.53-43.34-27.24-43.34-27.24,0,0,24.5-47.06,24.5-55.45,0,0,58.18,27.1,68,36.87,9.83,9.84,28.85-2.57,33.44-4.58,0,0,77.96-51.21,84.95-55.51Z" style="fill:#6998d0; fill-rule:evenodd;"/><path d="M2078.52,830.76l-7.37,46.16s19.37,32.23,34.85,27.44c13.01-4.02,11.88-29.52,11.88-29.52,0,0-7.08-26.27-4.96-39.51,2.12-13.17-34.4-4.57-34.4-4.57Z" style="fill:#f4ae7c; fill-rule:evenodd;"/><path d="M2112.92,835.32c2.12-13.17-34.4-4.57-34.4-4.57l-.57,3.88c1.06,2.56,2.37,4.78,3.95,6.52,8.16,8.67,20.9,13.93,31.92,14.35-1.08-7.14-1.77-14.76-.9-20.17Z" style="fill:#ec724c; fill-rule:evenodd;"/><path d="M2072.53,764.91c-1.02-.35-8.25,53.02,5.49,67.71,13.73,14.69,40.49,19.48,50.09,7.9,10.62-12.75,10.09-70.14-11.26-85.24-21.36-15.11-44.31,9.63-44.31,9.63Z" style="fill:#f4ae7c; fill-rule:evenodd;"/><path d="M2073.77,735.52c-7.49,.9-20.58,11.3-31.13,28.62-12.93,21.28,3.33,47.41,18.39,58.98,15.08,11.51,14.76,24.95,14.76,24.95l2.47-6.93c1.78-5.26,2.47-10.82,1.9-16.29-.35-3.33-1.06-6.86-2.42-9.84-3.63-7.69,7.78-12.82,10.96-19.27,2.48-4.92,2.59-16.29,6.47-24.46l4.65-6.24s13.07,1.18,21.14-5.89c23.12-20.31-12.2-47.13-47.17-23.63Z" style="fill:#142d4d; fill-rule:evenodd;"/><path d="M2088,805.25c.12,6.52-2.87,11.85-6.66,11.92-3.78,.07-6.94-5.13-7.04-11.64-.11-6.52,2.86-11.85,6.65-11.92,3.78-.07,6.94,5.13,7.05,11.64Z" style="fill:#f4ae7c; fill-rule:evenodd;"/><path d="M2008.12,681.81l112.26-10.03c13.23-1.19,23.01-12.89,21.83-26.12l-5.63-63.23c-1.19-13.23-12.89-23.01-26.11-21.82l-112.26,10.03c-13.23,1.18-23.01,12.86-21.82,26.12l5.63,63.21c1.19,13.25,12.87,23.01,26.12,21.84Z" style="fill:#d0d9ee; fill-rule:evenodd;"/><polygon points="1982.59 612.83 1943.98 669.38 2000.3 648.07 1982.59 612.83" style="fill:#d0d9ee; fill-rule:evenodd;"/><path d="M2090.74,610.62l-14.4,.9s-19.25-12.03-20.2-16.8c-.94-4.73,1.19-15.1-1.71-16.14-2.91-1.05-8.96-1.55-12.19,5.1-2.36,4.8,1.29,21.4-.31,22.68-1,.8-9.28,1.55-15.32,2.01-3.98,.29-7.45,2.79-9.03,6.45h0c-1.07,2.48-.25,5.37,1.94,6.92l3.46,2.43-2.26,3.55c-1.67,2.66-.89,6.16,1.75,7.87l2.69,1.72-1.58,2.12c-2.04,2.72-1.23,6.6,1.71,8.32l2.37,1.41-.28,.63c-1.19,2.72-.13,5.88,2.47,7.3l2.38,1.32,38.37-2.45c3.6-.22,7.12-1.19,10.32-2.81l13.36-3.11c1.42-.31,2.39-1.65,2.28-3.13l-2.65-33.55c-.13-1.62-1.53-2.84-3.15-2.72Z" style="fill:#fff; fill-rule:evenodd;"/></svg>