<?xml version="1.0" encoding="UTF-8"?><svg id="a" xmlns="http://www.w3.org/2000/svg" viewBox="0 0 2087.74 1527.13"><path d="M1045.88,0c208.18,0,184.42,379.86,334.71,495.65,198.92,153.25,541.14,77.37,541.14,340.38,0,461.74-443.88,629.02-927.6,629.02S97.67,1208.97,241.7,748.45C385.73,287.94,562.17,0,1045.88,0Z" style="fill:#e9eff8; fill-rule:evenodd;"/><path d="M252.47,1381.2c139.42,0,252.46,17.29,252.46,38.62s-113.04,38.62-252.46,38.62S0,1441.15,0,1419.82s113.03-38.62,252.47-38.62Z" style="fill:#d0d9ee; fill-rule:evenodd;"/><path d="M297.96,757.94c-3.99-5.48-9.43-9.62-14.9-13.26-1.45-.97-3.56-.31-4.35,1.28-4.23,8.41-8.14,17.03-12.99,25.07-1.59,2.66-3.87,6.16-5.89,7.73-.13,.09-.64,.36-.88,.5-.03-.04-.06-.08-.1-.16-.4-.62-.62-1.3-.84-2.02-3.78-12.37,.81-25.62-2.18-38.07-1.58-6.6-5.49-13.46-9.94-18.27-4.83-5.23-11.32-7.66-14.33-14.7-.46-1.06-1.27-1.57-2.16-1.65h-.6c-1.07,.1-2.17,.75-2.78,1.69-6.98,10.7-16.74,21.76-18.6,35.14-1.65,11.88,4.37,21.8,10.79,30.82,3.11,4.35,6.17,8.81,8.58,13.65,1.33,2.67,3.63,7.5,1.21,10.12-2.53,2.74-6.38-2.16-8.38-4.35-4.09-4.52-7.56-9.67-11.1-14.66-5.87-8.27-15.16-20.83-26.22-18.55-4.86,1.01-6.84,6.38-7.1,11.05-.41,7.44,3,15.44,6.43,21.67,7.78,14.15,23.54,18.25,33.69,29.68,2.34,2.62,8.73,11.61,5.06,15.3-1.28,1.29-4.26,.86-5.77,.61-3.73-.61-7.8-2.07-10.79-4.53-11.41-9.41-15.56-25.76-27.54-34.68-5.25-3.9-13.35-6.3-19.66-4.69-5.36,1.36-7.82,6.74-8.06,12.16-.29,6.57,2.51,13.34,5.61,18.83,3.58,6.35,8.52,11.65,14.55,15.32,12.08,7.33,27.36,8.25,35.4,21.75,1.1,1.84,2.28,4.25,1.75,6.5-.41,1.74-2.73,2.29-4.1,2.62-6.19,1.46-14.33-.99-19.76-4.07-6.57-3.73-11.36-10.49-16.41-16.13-5.32-5.98-11.25-10.83-18.72-13.26-5.42-1.75-12.08-1.47-15.58,3.93-3.21,4.96-2.56,11.63-1.25,17.15,1.73,7.29,5.46,14.06,10.04,19.72,4.95,6.11,12.75,9.58,19.74,12.09,7.27,2.59,14.82,4.17,22,7.07,1.9,.76,3.38,1.31,5.46,1.47,2.23,.17,4.47,.05,6.64,.65,1.83,.5,.61,2.57,0,3.99-1.49,3.41-6.25,3.27-9.26,3.52-2.85,.23-5.66,1.01-8.51,1.03-3.27,.02-6.54-.63-9.77-1.16-6.39-1.04-13.15-2.24-19.47-.19-6.11,1.98-10.42,8.13-11.52,14.72-2.3,13.83,12.19,22.26,22.94,24.02,6.89,1.13,13.14-.47,19.2-4.13,7.46-4.5,13.34-11,21.96-12.13,.56,3.68-.67,6.63-3.73,9.39-4.22,3.8-10.05,5.85-15.14,7.86-10.03,3.98-24.7,7.51-30.07,18.59-.66,1.34-.52,3.02,.54,4.11,4.76,4.83,10.23,8.64,16.91,9.2,5.54,.47,10.95-2.28,15.44-5.45,8.04-5.69,14.96-14.53,23.98-18.53-1.24,2.44-3.32,4.09-5.85,6.2-4.52,3.73-6.83,8.92-8.07,14.75-1.89,8.85,.98,18.41,10.72,18.47,5.31,.03,10.63-2.82,15.07-5.66,5.07-3.24,9.12-7.97,12.28-13.25,3.91-6.55,6.07-14.11,7.29-21.85,8.14,16.91,25.8,34.58,42.47,19.96,14.25-12.5-9.22-22.07-18.48-31.91,1.83,.8,3.6,1.79,5.29,2.71,4.83,2.64,9.53,5.57,14.57,7.75,9.41,4.1,19.96,3.7,25.59-6.63,4.86-8.91-5.21-13.05-11.41-15.03-5.04-1.63-14.48-3.37-18.13-8.78,12.43,1.46,26.27,3.1,36.99-4.55,4.87-3.48,10.71-10.18,11.29-16.71,.47-5.34-4.94-7.22-8.84-7.63-10.61-1.12-20.94,3.87-31.57,3.52-2.56-.1-5.09-.38-7.59-.98-.93-.22-1.89-.5-2.76-.92-.33-.16-.67-.47-.9-.65,.06-.16,.14-.35,.29-.54,.95-1.18,2.18-2.05,3.39-2.9,2.72-1.92,5.58-3.02,8.82-3.39,6.18-.69,12.35,.13,18.52-1.02,6.93-1.29,12.55-5.57,17.13-11.08,4.07-4.89,7.99-11.1,8.64-17.77,.66-6.9-3.25-11.56-9.03-13.91-16.14-6.59-25.58,11.2-37.09,19.27-3.05,2.14-6.68,3.55-10.15,4.69-1.42,.47-5.58,1.99-6.96,.81-.82-.71,1.92-5.39,2.44-6.28,2.32-4.01,5.27-6.8,9.08-9.13,9.63-5.87,21.38-7.7,28.96-16.99,4.98-6.09,8.91-16.43,4.03-23.86-5.17-7.89-16.69-5.75-23.19-1.17-8.18,5.77-12.3,17.46-22.14,20.26-.85-4.98,.96-9.56,4.11-13.98,4.59-6.47,10.51-11.79,15.97-17.4,5.22-5.37,10.59-11.21,13.31-18.53,2.78-7.48,1-15.04-3.52-21.25Z" style="fill:#aab9de; fill-rule:evenodd;"/><path d="M541.18,997.47c1.57-6.73,1.24-13.86,.54-20.7-.18-1.81-1.98-3.17-3.64-2.86-8.81,1.65-17.59,3.72-26.51,4.63-2.93,.3-6.93,.57-9.33-.16-.15-.05-.66-.31-.91-.42,.02-.05,.03-.1,.05-.18,.22-.72,.58-1.32,.97-1.95,6.77-10.84,19.36-15.18,26.69-25.4,3.88-5.4,6.5-12.92,7.29-19.64,.85-7.28-1.38-14.22,1.95-21.11,1.21-2.52-1.29-4.76-3.45-4.62-12.2,.78-26.38-.57-37.39,6.16-9.76,5.97-13.34,17.15-16,28.1-1.29,5.31-2.66,10.62-4.74,15.65-1.14,2.76-3.29,7.67-6.71,7.27-3.58-.41-2.36-6.67-1.98-9.71,.79-6.22,2.44-12.31,3.92-18.38,2.45-10.04,5.94-25.59-2.57-33.45-3.76-3.46-8.93-1.8-12.54,.89-5.73,4.27-9.51,12.06-11.97,18.8-5.6,15.28,1.13,31.04-1,46.59-.49,3.59-3.16,14.51-8.14,13.71-1.75-.27-3.27-3.03-4.02-4.45-1.85-3.5-3.3-7.82-3.34-11.86-.13-15.38,9.33-28.97,8.48-44.54-.37-6.82-3.62-15.09-8.71-19.39-4.31-3.64-9.8-2.39-13.94,.78-5.01,3.82-8.27,10.36-10.39,16.36-2.45,6.93-3.31,14.33-2.27,21.66,2.07,14.66,10.86,28.05,5.89,43.13-.67,2.06-1.71,4.54-3.7,5.48-1.53,.74-3.38-.87-4.47-1.82-4.91-4.28-8.15-12.62-9.23-19.08-1.32-7.81,.69-16,1.73-23.72,1.1-8.16,1-16.14-1.83-23.9-2.06-5.63-6.4-11.04-12.54-10.62-5.63,.38-10.15,5.05-13.4,9.56-4.3,5.98-6.97,13.29-8.31,20.62-1.44,7.93,.83,16.61,3.31,24.02,2.59,7.7,6.1,15,8.41,22.82,.61,2.06,1.12,3.63,2.3,5.48,1.25,1.96,2.72,3.77,3.63,5.97,.76,1.84-1.51,2.1-2.94,2.46-3.44,.87-6.28-3.21-8.33-5.58-1.94-2.23-4.25-4.13-6.02-6.49-2.05-2.74-3.6-5.88-5.2-8.9-3.18-6-6.48-12.41-11.91-16.44-5.24-3.91-12.43-3.71-17.95-.55-11.61,6.63-8.85,23.98-3.49,34.09,3.43,6.47,8.48,10.71,14.92,13.54,7.93,3.47,16.36,4.38,22.52,10.91-2.36,2.74-5.29,3.53-9.22,2.67-5.41-1.17-10.52-4.81-15.16-7.82-9.12-5.95-20.8-16.04-32.27-13.71-1.4,.29-2.56,1.43-2.7,3-.62,6.98-.04,13.91,3.69,19.86,3.08,4.95,8.45,7.77,13.57,9.57,9.16,3.22,19.95,3.55,28.48,8.64-2.57,.47-5.08-.25-8.18-1.07-5.55-1.47-10.79-.19-15.86,2.37-7.68,3.89-12.95,12.22-6.96,20.41,3.27,4.48,8.66,7.17,13.49,9.13,5.53,2.24,11.51,2.71,17.36,2.09,7.24-.78,14.15-3.65,20.59-7.41-7.41,17.28-9.49,43.02,11.59,47.94,18.01,4.2,10.55-21.39,12.05-35.23,.54,2.03,.91,4.12,1.27,6.11,1.05,5.7,1.8,11.44,3.31,17.03,2.81,10.42,9.63,19.01,20.72,17.35,9.56-1.44,6.38-12.44,4.01-18.86-1.94-5.23-6.49-14.22-4.77-20.64,6.62,11.33,13.98,23.95,26.26,28.2,5.57,1.92,14.11,2.67,19.28-.88,4.22-2.91,2.27-8.62,.16-12.14-5.75-9.58-15.81-15.15-22.13-24.29-1.52-2.2-2.88-4.5-3.99-6.96-.41-.93-.8-1.89-1.03-2.89-.08-.37-.07-.86-.08-1.16,.15-.04,.34-.09,.57-.08,1.46,.05,2.86,.55,4.23,1.03,3.1,1.1,5.68,2.81,7.96,5.3,4.33,4.76,7.55,10.43,12.21,14.89,5.24,5,11.87,7.08,18.75,7.5,6.12,.38,13.12-.18,18.43-3.77,5.48-3.7,6.5-9.88,4.66-16.17-5.14-17.6-24.08-14.5-37.14-19.16-3.46-1.24-6.76-3.41-9.74-5.6-1.22-.9-4.92-3.44-4.9-5.34,0-1.12,5.15-1.72,6.13-1.84,4.4-.53,8.27,.21,12.34,1.97,10.28,4.42,18.9,13.15,30.43,13.75,7.58,.4,17.61-2.71,20.07-11.39,2.61-9.2-6.09-17.54-13.49-20.15-9.3-3.29-20.46,.49-28.6-6.02,3.14-3.8,7.63-5.12,12.84-5.21,7.6-.16,15.18,1.51,22.69,2.61,7.18,1.06,14.81,1.94,21.87-.31,7.24-2.3,11.7-8.47,13.48-16.1Z" style="fill:#aab9de; fill-rule:evenodd;"/><path d="M108.93,810.02c-6.06-2.5-12.72-3.07-19.17-3.18-1.71-.03-3.19,1.68-3.12,3.49,.43,9.54,1.23,19.08,.95,28.64-.09,3.14-.35,7.4-1.34,9.85-.06,.15-.37,.66-.51,.9-.05-.03-.09-.04-.16-.07-.64-.33-1.17-.78-1.7-1.28-9.21-8.53-11.66-22.41-20.23-31.45-4.53-4.79-11.2-8.52-17.34-10.2-6.67-1.83-13.39-.35-19.37-4.74-2.18-1.6-4.59,.76-4.74,3.07-.81,13-3.85,27.84,1,40.34,4.31,11.1,14.26,16.29,24.11,20.49,4.76,2.04,9.53,4.17,13.94,7,2.42,1.56,6.72,4.45,5.92,8.02-.85,3.73-6.5,1.65-9.28,.86-5.69-1.62-11.14-4.13-16.59-6.47-9.02-3.86-23.04-9.53-31.42-1.51-3.69,3.53-2.8,9.23-.76,13.39,3.24,6.6,10.02,11.58,15.97,15.05,13.49,7.86,28.99,2.73,43.19,6.95,3.27,.97,13.08,5.17,11.72,10.35-.48,1.79-3.24,3.07-4.66,3.69-3.48,1.51-7.68,2.5-11.44,2.02-14.31-1.8-25.76-13.54-40.33-14.62-6.39-.47-14.49,1.94-19.13,6.78-3.93,4.11-3.46,10.07-1.05,14.85,2.91,5.78,8.59,10.06,13.9,13.06,6.13,3.46,12.91,5.32,19.85,5.15,13.9-.34,27.45-7.94,40.85-.78,1.83,.98,4.01,2.39,4.63,4.61,.49,1.71-1.23,3.46-2.25,4.5-4.61,4.65-12.76,7.02-18.9,7.36-7.44,.4-14.79-2.76-21.85-4.84-7.44-2.2-14.87-3.11-22.44-1.08-5.5,1.46-11.08,5.37-11.47,11.92-.36,6.02,3.42,11.39,7.2,15.39,5.01,5.32,11.46,9.06,18.12,11.41,7.2,2.52,15.55,1.22,22.75-.47,7.49-1.77,14.73-4.57,22.29-6.02,2-.38,3.53-.73,5.39-1.74,1.99-1.08,3.86-2.4,6.01-3.08,1.82-.57,1.77,1.85,1.92,3.42,.37,3.75-3.79,6.24-6.25,8.11-2.33,1.77-4.37,3.96-6.8,5.55-2.79,1.82-5.91,3.07-8.93,4.38-5.99,2.61-12.35,5.29-16.79,10.52-4.29,5.06-5.03,12.69-2.79,18.94,4.7,13.12,21.18,12.4,31.26,8.01,6.45-2.82,11.03-7.63,14.46-14.08,4.23-7.96,6.13-16.75,12.99-22.45,2.25,2.84,2.61,6.04,1.32,10.09-1.78,5.57-5.8,10.53-9.19,15.05-6.68,8.91-17.56,19.99-16.83,32.44,.09,1.52,1.02,2.89,2.45,3.23,6.42,1.54,12.94,1.79,18.95-1.39,4.98-2.64,8.29-7.97,10.61-13.16,4.15-9.29,5.82-20.67,11.63-29.04,.11,2.76-.88,5.34-2.04,8.52-2.07,5.68-1.55,11.4,.2,17.09,2.64,8.62,9.73,15.25,18.09,9.94,4.57-2.88,7.76-8.26,10.19-13.12,2.78-5.57,3.99-11.85,4.13-18.11,.2-7.77-1.6-15.44-4.28-22.73,15.13,10.03,38.8,15.47,46.04-6.21,6.19-18.53-18.55-13.86-31.23-17.21,1.96-.33,3.95-.44,5.85-.58,5.42-.38,10.86-.45,16.24-1.34,10.04-1.65,18.9-7.8,18.75-19.74-.13-10.3-10.76-8.33-17.03-6.63-5.1,1.39-14.03,5.06-19.78,2.44,11.37-5.58,24.02-11.78,29.53-24.23,2.5-5.65,4.27-14.59,1.63-20.53-2.17-4.82-7.72-3.48-11.27-1.7-9.63,4.88-16.08,14.82-25.37,20.36-2.23,1.33-4.55,2.47-6.98,3.34-.91,.32-1.87,.62-2.81,.74-.36,.04-.81-.04-1.1-.07-.02-.17-.04-.37,0-.62,.24-1.53,.88-2.96,1.5-4.34,1.41-3.14,3.32-5.65,5.93-7.75,4.96-3.98,10.65-6.67,15.39-11.03,5.32-4.9,8.08-11.66,9.34-18.9,1.13-6.43,1.5-13.91-1.17-19.97-2.75-6.29-8.36-8.13-14.45-6.99-17.01,3.22-16.53,23.66-22.51,36.9-1.58,3.5-4.01,6.71-6.44,9.59-1,1.18-3.82,4.77-5.58,4.52-1.05-.16-.95-5.68-.94-6.73,.06-4.71,1.25-8.72,3.39-12.81,5.42-10.32,14.61-18.34,16.63-30.46,1.33-7.98-.29-18.99-8.05-22.69-8.23-3.92-17.08,4.23-20.45,11.74-4.23,9.43-2.13,21.71-9.22,29.51-3.14-3.8-3.78-8.72-3.22-14.25,.82-8.07,3.34-15.88,5.3-23.67,1.89-7.48,3.68-15.44,2.48-23.2-1.22-7.95-6.4-13.45-13.27-16.31Z" style="fill:#aab9de; fill-rule:evenodd;"/><path d="M418.6,903.77c-.87-6.88-3.63-13.37-6.65-19.45-.8-1.61-2.93-2.16-4.37-1.22-7.62,5.02-15.06,10.38-23.03,14.74-2.62,1.43-6.25,3.26-8.73,3.51-.16,.02-.73-.02-.99-.04,0-.05-.01-.1-.01-.18-.05-.76,.08-1.46,.22-2.21,2.55-12.71,12.74-21.72,16.02-34.1,1.74-6.55,1.58-14.58-.01-21.12-1.72-7.12-6.2-12.68-5.48-20.38,.25-2.81-2.85-3.92-4.81-2.94-11.07,5.53-24.71,9.87-32.61,20.46-7.01,9.39-6.47,21.19-5.15,32.42,.64,5.44,1.19,10.91,1,16.4-.11,3.02-.4,8.43-3.72,9.39-3.48,1.03-4.5-5.26-5.2-8.24-1.42-6.09-1.99-12.4-2.72-18.62-1.19-10.29-3.32-26.13-13.95-30.08-4.69-1.72-8.92,1.85-11.35,5.77-3.84,6.21-4.65,14.96-4.62,22.19,.08,16.41,11.79,28.38,15.2,43.69,.78,3.52,2.08,14.72-2.83,15.95-1.72,.42-4.09-1.53-5.28-2.57-2.93-2.52-5.77-5.97-7.2-9.71-5.44-14.23-1.35-30.61-7.52-44.73-2.71-6.19-8.58-12.6-14.8-14.59-5.27-1.69-9.93,1.64-12.69,6.2-3.34,5.53-4.1,12.88-3.99,19.29,.11,7.42,1.88,14.64,5.38,21.04,7,12.81,19.79,21.79,20.39,37.76,.08,2.18-.03,4.9-1.54,6.56-1.17,1.29-3.44,.52-4.79,.07-6.04-2.06-11.93-8.52-15.17-14.1-3.93-6.75-4.89-15.15-6.6-22.74-1.8-8.01-4.64-15.39-9.96-21.49-3.87-4.42-9.76-7.74-15.33-4.93-5.1,2.56-7.68,8.69-9.15,14.17-1.93,7.25-1.88,15.08-.59,22.42,1.41,7.95,6.52,15.13,11.39,21.03,5.07,6.14,10.86,11.55,15.71,17.9,1.28,1.69,2.3,2.94,4.04,4.19,1.84,1.34,3.83,2.44,5.43,4.12,1.35,1.41-.66,2.55-1.87,3.44-2.9,2.17-6.95-.52-9.67-1.91-2.58-1.31-5.37-2.16-7.85-3.66-2.84-1.73-5.36-4.04-7.91-6.23-5.03-4.31-10.32-8.98-16.75-10.59-6.22-1.56-12.84,1.44-16.88,6.56-8.5,10.74,.07,25.78,8.55,33.06,5.44,4.67,11.59,6.62,18.55,6.7,8.57,.11,16.72-2.39,24.7,1.26-1.25,3.48-3.7,5.39-7.65,6.12-5.43,1.03-11.44-.31-16.79-1.29-10.54-1.94-24.89-6.74-34.74-.04-1.2,.81-1.88,2.35-1.47,3.85,1.84,6.74,4.79,12.95,10.3,17.01,4.58,3.39,10.55,3.9,15.92,3.56,9.63-.62,19.77-4.57,29.46-3.2-2.23,1.44-4.81,1.77-7.98,2.23-5.65,.81-10.09,4.06-13.92,8.45-5.8,6.64-7.81,16.46,.59,21.71,4.58,2.86,10.52,3.25,15.69,3.17,5.92-.09,11.65-2.01,16.86-4.9,6.46-3.57,11.89-8.96,16.57-14.99-.91,18.97,6.06,43.72,27.35,39.99,18.2-3.18,2.4-24.02-.99-37.48,1.21,1.66,2.28,3.47,3.3,5.17,2.94,4.88,5.63,9.92,8.96,14.51,6.21,8.58,15.53,13.88,25.25,7.97,8.4-5.11,1.63-14.07-2.79-19.11-3.6-4.09-10.94-10.67-11.56-17.29,10.07,7.91,21.27,16.74,34.15,15.85,5.85-.4,14.04-3.07,17.61-8.41,2.92-4.35-.87-8.88-4.05-11.32-8.67-6.64-19.93-7.87-28.97-13.87-2.17-1.44-4.23-3.05-6.11-4.91-.7-.69-1.4-1.44-1.96-2.26-.21-.33-.36-.78-.47-1.06,.12-.1,.28-.21,.5-.3,1.37-.52,2.85-.62,4.28-.71,3.26-.2,6.25,.37,9.23,1.79,5.67,2.7,10.63,6.73,16.5,9.03,6.6,2.6,13.48,1.91,20.02-.42,5.82-2.05,12.13-5.32,15.83-10.74,3.82-5.61,2.62-11.75-1.26-16.88-10.86-14.33-27.4-3.99-41.16-3.18-3.64,.23-7.45-.5-10.98-1.36-1.44-.36-5.77-1.27-6.4-3.02-.38-1.06,4.18-3.65,5.06-4.14,3.89-2.22,7.76-3.05,12.15-3.03,11.09,.07,22.11,4.78,33.04,.79,7.18-2.6,15.43-9.44,14.71-18.48-.76-9.59-11.73-13.9-19.52-13.42-9.78,.62-18.84,8.52-28.66,5.65,1.59-4.75,5.32-7.74,10.12-9.88,7.01-3.14,14.64-4.57,21.99-6.5,7.05-1.84,14.43-4.04,20.22-8.9,5.93-4.98,7.94-12.49,6.96-20.28Z" style="fill:#bcc9e7; fill-rule:evenodd;"/><path d="M371.48,837.91c-3.7,17.12-6.9,34.37-11.51,51.25-4.74,17.34-11.46,33.36-20.74,48.47-19.15,31.18-43.54,58.21-63.26,88.96-.82,1.27-.66,2.52-.03,3.45-3.8,7.66-6.01,16.37-7.59,24.7-2.76,14.52-3.6,29.41-4.15,44.18-.67,18.06-.54,36,.25,54.05,.92,21.2,2.23,42.44,1.39,63.68-.05,1.23-.11,2.46-.18,3.69-.23,4.4,6.16,4.37,6.39,0,1.1-20.73-.04-41.49-.99-62.2-.85-18.47-1.24-36.84-.61-55.31,.48-14.29,1.15-28.61,3.43-42.72,2.08-12.82,5.41-27.34,14.48-36.73,1.29-1.33,1.16-3.01,.35-4.21,18.43-26.74,39.57-51.31,56.64-79.13,9.15-14.89,15.66-30.96,20.46-47.98,4.85-17.2,8.04-34.87,11.81-52.36,.93-4.27-5.24-6.09-6.16-1.8Z" style="fill:#bcc9e7; fill-rule:evenodd;"/><path d="M267.27,1221.36c-3.46-33.13-17.76-62.79-32.56-91.6-14.67-28.58-30.14-57.55-34.63-90.27-.59-4.33-6.75-2.47-6.16,1.82,8.98,65.3,60.06,114.14,66.96,180.06,.45,4.32,6.85,4.37,6.39,0Z" style="fill:#bcc9e7; fill-rule:evenodd;"/><path d="M361.16,1066.09c-27.33,12.73-54.11,32.2-72.46,57.56-10.02,13.85-15.9,29.58-19.59,46.09-1.39-17.2-4.35-34.24-7.44-51.17-7.2-39.51-12.74-79.21-16.22-119.31-1.39-15.9-2.41-31.85-3.1-47.8-.19-4.38-6.58-4.39-6.39,0,1.92,44.29,6.69,88.36,13.14,132.17,4.35,29.62,11.71,58.89,13.85,88.83-2.41-16.19-6.03-32.16-10.69-47.73-6.66-22.26-15.63-43.9-27.26-63.74,.07-.85-.16-1.74-.83-2.54-.79-.95-1.6-1.88-2.4-2.79-2.88-4.64-5.91-9.16-9.1-13.56-1.43-1.97-3.48-1.27-4.54,.32-4.89-3.99-10.11-7.56-15.74-10.67-13.12-7.25-29.47-11.95-35.76-27.83-1.6-4.03-7.1-.55-5.52,3.45,6.26,15.77,21.52,21.63,34.85,28.55,11.97,6.21,22.08,14.19,31.11,24.36,12.77,20.72,22.29,43.75,29.33,67.3,8.55,28.58,13.44,58.64,13.5,88.67,0,.16,.01,.32,.03,.47-.43,2.22,1.22,3.69,2.96,3.83,.86,3.09,5.99,2.66,6.28-1.24,2.34-32.24,5.78-66.07,25.13-92.35,17.86-24.26,43.75-42.75,70.07-55,3.77-1.75,.51-7.63-3.22-5.89Z" style="fill:#aab9de; fill-rule:evenodd;"/><path d="M170.03,837.19c-5.8-3.13-12.38-4.38-18.79-5.16-1.7-.21-3.34,1.36-3.41,3.15-.44,9.54-.51,19.13-1.65,28.61-.37,3.11-1.02,7.34-2.22,9.66-.08,.16-.44,.63-.59,.86-.05-.03-.09-.06-.15-.1-.61-.38-1.09-.89-1.58-1.44-8.39-9.44-9.58-23.49-17.28-33.39-4.08-5.23-10.38-9.63-16.33-11.94-6.47-2.5-13.3-1.72-18.86-6.7-2.03-1.82-4.64,.28-4.99,2.57-1.99,12.86-6.36,27.31-2.65,40.25,3.28,11.49,12.71,17.68,22.14,22.89,4.56,2.52,9.1,5.13,13.24,8.41,2.27,1.79,6.28,5.11,5.16,8.58-1.18,3.63-6.62,.98-9.31-.1-5.51-2.2-10.72-5.26-15.93-8.14-8.62-4.78-22.07-11.86-31.13-4.75-4,3.14-3.63,8.91-1.98,13.25,2.63,6.9,8.93,12.57,14.53,16.62,12.72,9.22,28.61,5.7,42.37,11.37,3.16,1.3,12.55,6.5,10.73,11.52-.64,1.75-3.51,2.73-4.98,3.19-3.6,1.15-7.87,1.7-11.57,.84-14.09-3.27-24.42-16.13-38.82-18.7-6.32-1.12-14.59,.42-19.65,4.76-4.28,3.68-4.35,9.67-2.38,14.68,2.38,6.06,7.63,10.89,12.65,14.43,5.79,4.1,12.38,6.63,19.3,7.17,13.87,1.1,28.04-5.07,40.72,3.44,1.73,1.16,3.77,2.8,4.2,5.06,.33,1.77-1.55,3.32-2.66,4.25-5,4.16-13.33,5.68-19.47,5.38-7.44-.37-14.48-4.27-21.31-7.07-7.21-2.95-14.52-4.62-22.24-3.38-5.6,.89-11.51,4.2-12.49,10.67-.9,5.95,2.37,11.68,5.77,16.07,4.5,5.8,10.58,10.19,17,13.2,6.93,3.27,15.37,2.83,22.69,1.88,7.61-.97,15.07-3.01,22.72-3.69,2.02-.17,3.58-.36,5.52-1.17,2.07-.88,4.05-1.99,6.26-2.46,1.86-.38,1.59,2.04,1.6,3.61,.03,3.77-4.34,5.82-6.95,7.43-2.48,1.51-4.71,3.49-7.27,4.82-2.95,1.52-6.16,2.45-9.28,3.44-6.19,1.99-12.78,4-17.67,8.74-4.72,4.59-6.15,12.11-4.49,18.57,3.48,13.54,19.97,14.53,30.39,11.18,6.68-2.13,11.68-6.45,15.68-12.51,4.93-7.49,7.62-16.06,14.96-21.02,1.99,3.07,2.06,6.29,.4,10.19-2.28,5.36-6.72,9.88-10.5,14.03-7.46,8.18-19.29,18.09-19.68,30.55-.05,1.52,.74,2.98,2.14,3.47,6.24,2.19,12.72,3.12,18.98,.57,5.2-2.11,8.98-7.06,11.76-11.99,4.96-8.82,7.66-19.97,14.21-27.72-.15,2.77-1.36,5.23-2.8,8.27-2.57,5.44-2.57,11.18-1.36,17.03,1.85,8.85,8.3,16.19,17.1,11.77,4.81-2.41,8.47-7.43,11.34-12.02,3.27-5.24,5.03-11.37,5.75-17.59,.89-7.7-.19-15.53-2.2-23.06,14.15,11.54,37.21,19.41,46.39-1.43,7.84-17.81-17.21-15.71-29.53-20.36,1.97-.11,3.97-.02,5.87,.03,5.43,.18,10.85,.67,16.28,.34,10.14-.61,19.52-5.81,20.45-17.72,.8-10.27-9.95-9.39-16.35-8.35-5.2,.85-14.43,3.59-19.9,.4,11.81-4.4,24.98-9.25,31.58-21.08,3-5.37,5.58-14.09,3.47-20.26-1.71-5.03-7.36-4.26-11.05-2.84-10.03,3.87-17.35,13.09-27.1,17.64-2.35,1.09-4.75,1.98-7.24,2.59-.93,.23-1.91,.42-2.86,.44-.37,0-.8-.12-1.09-.18,0-.16,0-.37,.06-.62,.37-1.49,1.14-2.85,1.89-4.16,1.68-2.97,3.82-5.29,6.6-7.1,5.3-3.46,11.21-5.56,16.31-9.4,5.75-4.34,9.1-10.79,11.02-17.85,1.7-6.29,2.74-13.68,.65-20-2.18-6.54-7.6-8.96-13.75-8.44-17.23,1.44-18.6,21.84-25.75,34.39-1.89,3.34-4.6,6.27-7.27,8.89-1.1,1.07-4.25,4.35-5.97,3.92-1.02-.26-.43-5.75-.32-6.79,.49-4.68,2.03-8.55,4.54-12.41,6.33-9.72,16.2-16.75,19.32-28.61,2.04-7.8,1.42-18.92-5.97-23.4-7.84-4.76-17.38,2.45-21.41,9.57-5.07,8.96-4.09,21.4-11.85,28.42-2.78-4.09-2.98-9.06-1.92-14.5,1.54-7.95,4.76-15.46,7.42-23.03,2.56-7.25,5.05-14.98,4.57-22.82-.49-8.04-5.15-14.04-11.73-17.58Z" style="fill:#d0d9ee; fill-rule:evenodd;"/><polygon points="339.78 1421.66 202.03 1421.66 156.95 1231.6 381.73 1231.6 339.78 1421.66" style="fill:#bcc9e7; fill-rule:evenodd;"/><rect x="141.93" y="1206.9" width="251.7" height="24.7" style="fill:#aab9de;"/><polygon points="269.34 1231.6 156.95 1231.6 202.03 1421.66 269.34 1421.66 269.34 1231.6" style="fill:#aab9de; fill-rule:evenodd;"/><rect x="141.93" y="1206.9" width="127.42" height="24.7" style="fill:#8d9fca;"/><polygon points="339.78 1424.51 202.03 1424.51 156.95 1398.86 381.73 1398.86 339.78 1424.51" style="fill:#aab9de; fill-rule:evenodd;"/><polygon points="269.34 1398.86 156.95 1398.86 202.03 1424.51 269.34 1424.51 269.34 1398.86" style="fill:#8d9fca; fill-rule:evenodd;"/><path d="M356.18,240.05h511.24c49.29,0,92.83,40.24,96.87,89.53l90.78,1108.01c4.04,49.29-32.91,89.54-82.19,89.54H461.63c-49.29,0-92.83-40.25-96.86-89.54L273.99,329.58c-4.04-49.29,32.91-89.53,82.19-89.53Z" style="fill:#9d7558; fill-rule:evenodd;"/><path d="M358.14,263.93h511.24c36.11,0,68.07,29.54,71.03,65.65l90.78,1108.01c2.96,36.12-24.16,65.66-60.27,65.66H459.68c-36.11,0-68.07-29.54-71.03-65.66L297.86,329.58c-2.95-36.11,24.17-65.65,60.28-65.65Z" style="fill:#fff; fill-rule:evenodd;"/><path d="M360.34,290.86h511.24c21.3,0,40.15,17.43,41.89,38.72l90.78,1108.01c1.75,21.3-14.25,38.73-35.55,38.73H457.47c-21.3,0-40.15-17.42-41.9-38.73L324.8,329.58c-1.75-21.3,14.25-38.72,35.55-38.72Z" style="fill:#fadac1; fill-rule:evenodd;"/><path d="M1139.66,409.63l2.6-4.78c42.59,14.63,70.28,32.63,60.38,50.03-7.06,21.86-30.1,30.6-50.7,51.55-9.48-11.29-18.89-18.79-28.24-22.5-6.04-24-5.85-43.13,.56-57.38l13.89-14.11,1.51-2.8Z" style="fill:#f4ae7c; fill-rule:evenodd;"/><path d="M604,361.27c10.52,.75,27.09-1.27,30.03-4.99,11.17-14.2,18.94-29.02,21.8-38.35-2.18-6.22-4.47-14.06-6.84-23.54-40.51-27.52-46.04-47.86-16.61-61.06,5.93,3.33,13.3,13.57,22.09,30.73,7.02-.28,12.35-3.88,15.97-10.77-8.37-28.96-13.8-52.48-16.33-70.56,19.95-29.66,66.63-33.9,128.43-25.89,2.87,16.45,5.22,33.87,7.05,52.28,10.93,10.06,9.51,47.38-.55,90.39,5.03,24.46-10.06,37.81-45.3,40.04-.52,8.68,.3,19.31,.86,20.52,.88,1.88,4.01,3.69,8.34,5.23h0c1.19,40.38-48.46,39.03-148.95-4.02Z" style="fill:#f4ae7c; fill-rule:evenodd;"/><path d="M782.53,156.83c-61.8-8.01-108.48-3.77-128.43,25.89,2.53,18.08,7.96,41.6,16.33,70.56-3.62,6.9-8.95,10.49-15.97,10.77-8.79-17.16-16.16-27.41-22.09-30.73-29.43,13.2-23.9,33.55,16.61,61.06,2.38,9.49,4.66,17.33,6.84,23.54-36.44-8.17-66.92-40.76-71.21-54.85-42.51-83.78,4.89-119.16,30.27-132.06,11.2-82.97,131.66-9.63,192.03-49.63,23.99,33.14-5.67,74.7-24.37,75.44Z" style="fill:#0f3970; fill-rule:evenodd;"/><path d="M1153.42,508.23c-30.58,130.95-84.31,232.57-161.17,304.87-27.7-8.41-52.28-27.34-73.72-56.8,1.14,94.72-1.22,189-7.09,282.83-56.1,26.59-130.58,24.88-223.44-5.16l-37.67-46.39c-9.67-1.87-31.64,8.81-42.18,25.1-88.2-67.3-147.67-139.64-182.75-211.5,9.47-154.4,30.44-276.22,62.92-365.46,16.41-25.24,54.97-50.06,115.68-74.45,100.49,43.06,150.14,44.4,148.95,4.02,29.54,9.7,68.75,26.87,117.61,51.49,40.73,30.94,75.42,114.81,104.08,251.61,46.62-58.41,94.98-120.35,145.09-185.81,11.15,3.16,22.37,11.71,33.68,25.65h0Zm-523.38,437.5c29.23-96.13,13.1-214.74-48.42-355.83-15.49,69.61-32.22,138.12-50.2,205.53,20.89,9.93,53.76,60.03,98.62,150.3Z" style="fill:#6998d0; fill-rule:evenodd;"/><path d="M619.11,1071.04c14.25-1.11,37.22-13.46,68.9-37.06,92.86,30.04,167.34,31.75,223.44,5.16,8.69,137.45-19.59,280.69-59.54,437.18h-123.62c2.86-61.99,11.2-142.98,11.76-200.32-24.7,55.08-43.06,126.03-70.54,200.32h-111.62c-.55-171.78,16.21-326.32,50.27-463.63,6.47,16.53,10.11,35.98,10.96,58.35Z" style="fill:#0f3970; fill-rule:evenodd;"/><path d="M688.01,1033.97c-31.68,23.6-54.65,35.96-68.9,37.06-.84-22.38-4.49-41.83-10.96-58.35,10.54-16.29,32.51-26.97,42.18-25.1l37.67,46.39Z" style="fill:#f4ae7c; fill-rule:evenodd;"/><path d="M918.53,756.3c-3.07-91.99-10.44-167.41-22.13-226.25,29.76,124.95,58.59,207.87,86.51,248.75,17.63-.55,39.98-11.01,67.04-31.36-17.52,24.06-36.75,45.95-57.7,65.66-27.7-8.41-52.28-27.34-73.72-56.8Z" style="fill:#406fb5; fill-rule:evenodd;"/><path d="M650.33,987.59c-5.4-13.37-12.16-27.33-20.3-41.86,29.23-96.13,13.1-214.74-48.42-355.83,89.47,127.19,114.84,262.79,76.11,406.8l-7.39-9.11Z" style="fill:#406fb5; fill-rule:evenodd;"/><path d="M703.13,331.02c9.87,4.88,23.42,7.72,40.61,8.52-.34,5.82-.09,12.53,.28,16.67-17.3-3.33-30.92-11.73-40.9-25.2Z" style="fill:#ed7d5b; fill-rule:evenodd;"/><path d="M618.16,1093.48c1-8.12,1.31-15.6,.95-22.44,14.25-1.11,37.22-13.46,68.9-37.06,7.53,2.43,14.94,4.68,22.21,6.74-22.29,23.19-52.98,40.78-92.06,52.76Z" style="fill:#3860a7; fill-rule:evenodd;"/><path d="M1514.26,330.73c-20.46-12.29-72.32,36.45-115.85,108.88-43.53,72.42-62.23,141.1-41.77,153.39,20.46,12.29,72.32-36.45,115.85-108.88,43.53-72.42,62.23-141.1,41.77-153.4Z" style="fill:#0f3d86; fill-rule:evenodd;"/><path d="M1218.08,265.83l-42.56-25.58c-9.68-5.81-30.45,10.99-46.4,37.52-15.95,26.54-21.03,52.77-11.36,58.58l42.56,25.58c-9.68-5.81-4.59-32.05,11.36-58.58,15.95-26.54,36.73-43.34,46.39-37.52Z" style="fill:#406fb5; fill-rule:evenodd;"/><path d="M1171.69,303.35c14.75-24.54,33.62-40.75,44.03-38.46,92.14,43.67,185.93,65.67,281.37,66-25.23,9.62-64.51,51.87-98.67,108.71-34.56,57.5-53.47,112.63-49.55,139.07-50.06-89.93-113.55-162.73-190.46-218.4-6.91-8.11-1.46-32.39,13.3-56.93Z" style="fill:#6998d0; fill-rule:evenodd;"/><path d="M1439.48,441.65l-29.19-20.92c-4.01,6.08-7.98,12.39-11.88,18.89-5.1,8.5-9.87,16.94-14.28,25.25l32.48,14.83c11.09,5.06,24.16,2.88,30.45-7.59h0c6.29-10.46,2.33-23.34-7.58-30.45Z" style="fill:#406fb5; fill-rule:evenodd;"/><path d="M1121.69,402.61l22.58,13.57c-7.53,2.02-14.29,5.68-20.29,10.99l-12.52-7.53c-7.03-4.23-11.69-10.93-13.54-18.33-1.84-7.41-.88-15.51,3.35-22.54l23.1-38.44,17.03,10.23-23.11,38.44c-1.39,2.33-1.72,5.03-1.1,7.51,.62,2.47,2.16,4.71,4.5,6.11h0Zm77.85,45.85h0c-3.18,5.25-6.94,8.05-11.29,8.39-13.11-3-26.66-8.8-40.66-17.38-2.39-1.39-4.21-2.64-5.46-3.78-.3,.6-.62,1.2-.95,1.81l44.37,26.66c7,4.21,15.11,5.17,22.53,3.32,7.42-1.82,14.12-6.48,18.35-13.51l13.77-22.9c-4.77-4.9-9.6-9.72-14.5-14.44l-16.29,27.12c-1.4,2.33-3.64,3.88-6.11,4.49l-.02,.04c-1.19,.3-2.46,.37-3.71,.2Z" style="fill:#0f3d86; fill-rule:evenodd;"/><circle cx="1916.23" cy="717.77" r="171.51" style="fill:#aab9de;"/><path d="M1916.23,568.9c82.22,0,148.87,66.65,148.87,148.88s-66.65,148.87-148.87,148.87-148.88-66.65-148.88-148.87,66.65-148.88,148.88-148.88Z" style="fill:#e9eff8; fill-rule:evenodd;"/><path d="M1939.93,745.48c-3.1-2.63-5.01-11.56-5.23-19.46,.38-2.94,.64-6.61,.8-11.01,15.25-15.91,15.78-25.38,1.58-28.43-2.3,2.02-4.57,7.22-6.84,15.6-3.11,.54-5.8-.54-8.03-3.24,.96-13.54,1.15-24.4,.57-32.59-11.57-11.19-32.51-8.67-58.96,.65,.28,7.51,.88,15.4,1.79,23.67-3.87,5.46,.26,21.76,8.72,39.74,.08,11.24,7.98,15.7,23.69,13.38l-1.24,3.96c-4.9,.69-9.89,1.49-14.94,2.41-26.07,52.85,23.95,74.3,71.83-2.07-3.79-.66-8.37-1.52-13.75-2.59Z" style="fill:#d0d9ee; fill-rule:evenodd;"/><path d="M1860.56,679.25c23.69-1.23,41.02-20.85,62.54-2.73,.58,8.19,.06,8.88-.9,22.42,2.23,2.7,4.92,3.78,8.03,3.24,2.27-8.38,4.54-13.58,6.84-15.6,14.19,3.05,13.67,12.52-1.58,28.43-.16,4.4-.42,8.08-.8,11.01,.22,7.9,2.13,16.83,5.23,19.46,5.38,1.07,9.96,1.94,13.75,2.59,6.46,1.43,12.61,3.12,18.33,5.06,14.06,4.78,25.6,11.09,33.05,18.94,5.1,15.84,9.5,33.88,13.17,54.14,4.62-4.35,8.97-8.99,13-13.9-3.65-5.12-6.16-13.19-4.82-27.31,3.3-34.86-41.41-23.06-44.01-66.05-4.23-70.19-33.26-77.97-47.22-79.06-16.75-15.47-61.29-26.82-80.7-6.5-17.24,18.03-12.17,44.97,6.08,45.85h0Zm103.47,179.56c4.67-1.58,9.22-3.39,13.67-5.41-.74-6.28-1.33-12.87-1.8-19.76-4.83,7.54-8.79,15.92-11.87,25.17h0Zm-99.53-157.38c1.11,7.64,4.66,17.99,9.82,28.97,.08,11.24,7.98,15.7,23.69,13.38l-1.24,3.96c-4.9,.69-9.89,1.49-14.95,2.41-12.22,2.16-18.98,6.19-21.06,9.01-4.23,2.29-7.85,4.48-10.93,6.62,.93-5.87,3.6-11.54,6.91-17,7.85-12.92-13.05-3.88-3.87-24.03,5.27-11.55,8.19-16.16,11.63-23.31Z" style="fill:#8d9fca; fill-rule:evenodd;"/><path d="M1953.67,748.07c-47.89,76.37-97.91,54.92-71.83,2.07-13.72,2.42-20.55,7.2-21.62,9.98-35.99,39.24-22.97,61.88-11.51,90.36,20.26,10.33,43.21,16.16,67.52,16.16,16.72,0,32.8-2.76,47.8-7.84,3.08-9.25,7.04-17.63,11.87-25.17-19.45,17.75-18.92-77.2-3.89-80.5-5.73-1.94-11.88-3.63-18.33-5.06Z" style="fill:#bcc9e7; fill-rule:evenodd;"/><path d="M2018.23,826.22c-3.67-20.26-8.06-38.3-13.17-54.15-7.45-7.85-18.99-14.16-33.05-18.93-15.03,3.3-15.56,98.26,3.89,80.5,.47,6.89,1.07,13.47,1.8,19.76,15.01-6.81,28.67-16.04,40.52-27.18Z" style="fill:#d0d9ee; fill-rule:evenodd;"/><path d="M1848.71,850.49c-11.46-28.48-24.48-51.12,11.51-90.36,.11-.3,.3-.63,.55-.97-20.35,11.02-26.29,19.82-29.13,29.58-4.06,13.95-7.22,28.7-9.77,44.19,8.25,6.77,17.25,12.67,26.84,17.56Z" style="fill:#d0d9ee; fill-rule:evenodd;"/><path d="M1894.72,754.04l.82-2.52c4.5-2.54,12.71-7.8,24.65-15.79-6.81,3.7-14.21,6.39-22.18,8.05l-1.24,3.96c-2.47,.35-4.97,.72-7.48,1.13,2.64,1.23,4.45,2.96,5.43,5.17Z" style="fill:#bcc9e7; fill-rule:evenodd;"/><path d="M1951.07,862.54c4.4-1.05,8.73-2.3,12.96-3.73,3.08-9.25,7.04-17.63,11.87-25.17-13.6,12.42-17.44-30.28-13.37-58.21-4.05,26.55-5.27,48.56-3.66,66.03-3.02,6.51-5.62,13.54-7.79,21.08Z" style="fill:#aab9de; fill-rule:evenodd;"/><path d="M1367.88,712.72c-94.73,0-171.51,76.78-171.51,171.51s76.78,171.5,171.51,171.5,171.51-76.79,171.51-171.5-76.79-171.51-171.51-171.51Z" style="fill:#aab9de; fill-rule:evenodd;"/><path d="M1367.87,735.35c82.23,0,148.88,66.65,148.88,148.88s-66.65,148.87-148.88,148.87-148.88-66.65-148.88-148.87,66.66-148.88,148.88-148.88Z" style="fill:#e9eff8; fill-rule:evenodd;"/><path d="M1412.43,910.36c-4.74,.34-12.19-.57-13.51-2.24-5.03-6.39-8.52-13.06-9.81-17.26,.98-2.8,2.01-6.32,3.08-10.59,18.22-12.38,20.72-21.53,7.47-27.47-2.67,1.49-5.98,6.1-9.94,13.83-3.16-.13-5.56-1.75-7.18-4.85,3.76-13.03,6.21-23.61,7.34-31.75-8.98-13.34-29.98-15.25-57.78-11.65-1.29,7.41-2.35,15.24-3.17,23.52-4.92,4.52-7.7,19.78-3.18,39.13-4.49,10.31,7.96,18.55,23.81,19.55,.23,3.9-.13,8.69-.39,9.23-.4,.85-1.8,1.65-3.75,2.35h0c-.54,18.16,21.8,17.56,67-1.81Z" style="fill:#d0d9ee; fill-rule:evenodd;"/><path d="M1332.11,818.38c27.81-3.6,48.8-1.7,57.79,11.65-1.14,8.14-3.59,18.72-7.35,31.75,1.63,3.1,4.02,4.72,7.18,4.85,3.96-7.73,7.27-12.33,9.94-13.83,13.25,5.94,10.75,15.08-7.47,27.47-1.07,4.27-2.1,7.79-3.08,10.59,18.09,2.49,32.16-14.91,32.03-24.67,27.34-28.11-2.21-53.6-13.61-59.41-1.14-17.94-78.74-31.96-84.27-.91-1.37,7.71,3.03,12.29,8.84,12.51Z" style="fill:#8d9fca; fill-rule:evenodd;"/><path d="M1476.66,985.84c-3.56-15.43-1.46-37.3-6.04-49.86-7.38-11.36-30.89-14.64-58.2-25.62-45.21,19.37-67.54,19.97-67,1.81-13.3,4.36-30.93,2.5-52.91,13.58-11.34,8.61-21.63,35.92-30.89,62.75,27.01,27.52,64.64,44.6,106.25,44.6,17.49,0,34.28-3.02,49.87-8.57,1.52-3.73,3.1-7.51,4.76-11.32,.65,2.92,1.3,5.83,1.96,8.74,19.95-8.2,37.71-20.61,52.2-36.12Z" style="fill:#bcc9e7; fill-rule:evenodd;"/><path d="M1417.74,1024.53c1.52-3.73,3.1-7.51,4.76-11.32-2.93,4.16-5.69,8.33-8.31,12.53,1.2-.4,2.38-.79,3.55-1.22Z" style="fill:#aab9de; fill-rule:evenodd;"/><path d="M1367.84,896.75c-4.45,2.19-10.53,3.47-18.27,3.83,.16,2.62,.04,5.64-.13,7.5,7.77-1.5,13.91-5.27,18.4-11.33Z" style="fill:#bcc9e7; fill-rule:evenodd;"/><path d="M1814.3,126.79c94.72,0,171.51,76.79,171.51,171.51s-76.79,171.51-171.51,171.51-171.51-76.78-171.51-171.51,76.79-171.51,171.51-171.51Z" style="fill:#aab9de; fill-rule:evenodd;"/><path d="M1814.3,149.43c-82.22,0-148.88,66.66-148.88,148.88s66.65,148.87,148.88,148.87,148.88-66.65,148.88-148.87-66.65-148.88-148.88-148.88Z" style="fill:#e9eff8; fill-rule:evenodd;"/><path d="M1829.97,347.11c9.07,5.22,11.85,13.81,18,17,17.82,1.68,35.38,3.06,43.74,8.86,9.21,11.13,17.92,21.9,26.13,32.31-26.79,25.94-63.29,41.91-103.53,41.91s-78.06-16.55-104.98-43.32c9.93-13.1,19.18-24.8,27.72-35.1,15.35-3.58,26.8-5.45,34.36-5.61,3.24-3.82,8.03-7.09,14.38-9.81-3.7,20.37-5.1,44.8-4.9,62.06,29.1-21.34,45.47-49.19,49.09-68.29Z" style="fill:#bcc9e7; fill-rule:evenodd;"/><path d="M1771.4,363.15c-3.42,10.04-5.25,18.35-5.47,24.89,3.92-3.12,6.81-5.25,8.67-6.4,1.43,16.12,3.53,27.38,6.27,33.76-.2-17.26,1.21-41.69,4.9-62.06-6.35,2.72-11.14,6-14.38,9.81Z" style="fill:#aab9de; fill-rule:evenodd;"/><path d="M1829.97,347.11c-3.62,19.1-20,46.95-49.09,68.29,17.39-6.18,36.4-21.29,47.29-41.38,1.8,6.8,4.08,14.74,6.83,23.85,7.58-9.38,11.9-20.63,12.96-33.76-6.14-3.19-8.93-11.78-18-17Z" style="fill:#aab9de; fill-rule:evenodd;"/><path d="M1785.34,341.42c1.87,7.02,1.68,13-.57,17.93-2.96,19.02-4.08,40.46-3.9,56.05,27.78-20.36,43.95-46.66,48.51-65.64-3.67-5.93-5.19-12.85-4.52-20.78-.69-3.71,1.42-10.61,6.31-20.69,16.62-2.88,20.75-16.84,13.84-27.92-7.78-2.75-11.97,3.61-14.01,15.12-4.43-.66-2.74-7.73-2.28-11.04,2.08-9.59,.35-14.76-3.15-23.85-19.97,14.04-37.09,14.48-64.34,6.57,.8,6.53,1.38,12.85,1.75,18.93-7.47,18.19,3.95,49.14,22.35,55.31Z" style="fill:#d0d9ee; fill-rule:evenodd;"/><path d="M1761.24,267.17c27.25,7.91,44.37,7.47,64.34-6.57,3.5,9.09,5.24,14.26,3.15,23.85-.46,3.32-2.15,10.39,2.28,11.04,2.05-11.51,6.23-17.87,14.01-15.12,6.91,11.08,2.78,25.04-13.84,27.92-4.89,10.09-7,16.98-6.31,20.69-.67,7.92,.84,14.85,4.52,20.78,.23-.9,.41-1.79,.58-2.65,9.07,5.22,11.86,13.81,18,17,17.82,1.68,35.38,3.05,43.74,8.85,2.41,2.92,4.79,5.81,7.14,8.68,5.7-13.34,6.04-18.93,5.46-23.34-2.87-21.82-19.76-33.25-26.67-52.09-14.61-39.81-33.91-76.12-56.71-80.62-28.15-5.56-35.6-4.05-42.68-3.58-24.12,1.57-42.32,36.7-37.89,59.01,5.5,50.58-32.45,52.62-30.83,94.34,.27,6.86,3.5,13.01,7.82,18.04,6.93-8.95,13.51-17.16,19.71-24.65,15.35-3.58,26.8-5.45,34.36-5.61,3.24-3.82,8.03-7.09,14.38-9.82-.35,1.97-.69,3.98-1,6.02,2.25-4.93,2.43-10.91,.57-17.93-18.4-6.17-29.82-37.12-22.35-55.31-.38-6.09-.95-12.4-1.75-18.94Z" style="fill:#8d9fca; fill-rule:evenodd;"/><path d="M1785.34,341.42c11.14,1.25,16.2,1.18,26.5-2.93-6.04,6.52-14.45,10.09-25.25,10.72-.11-2.44-.52-5.04-1.25-7.8Z" style="fill:#bcc9e7; fill-rule:evenodd;"/><path d="M1776.32,1035.79c94.72,0,171.51,76.79,171.51,171.51s-76.79,171.51-171.51,171.51-171.51-76.79-171.51-171.51,76.79-171.51,171.51-171.51Z" style="fill:#aab9de; fill-rule:evenodd;"/><path d="M1776.32,1058.43c-82.22,0-148.88,66.65-148.88,148.87s66.66,148.88,148.88,148.88,148.88-66.65,148.88-148.88-66.66-148.87-148.88-148.87Z" style="fill:#e9eff8; fill-rule:evenodd;"/><path d="M1835.18,1231.89c-4.64,.34-11.95-.55-13.25-2.2-4.93-6.26-8.35-12.8-9.62-16.92,.96-2.74,1.98-6.2,3.02-10.38,17.88-12.14,20.31-21.12,7.33-26.94-2.62,1.46-5.87,5.98-9.75,13.56-3.1-.13-5.44-1.71-7.05-4.75,3.69-12.78,6.09-23.16,7.2-31.14-8.8-13.08-29.4-14.96-56.66-11.42-1.27,7.26-2.3,14.95-3.12,23.07-4.82,4.44-4.2,20.91,.25,39.88-2.22,10.79,4.44,16.68,19.99,17.67,.22,3.83-.13,8.52-.38,9.05-.39,.83-1.77,1.63-3.68,2.32h0c-.52,17.81,21.38,17.22,65.72-1.78Z" style="fill:#d0d9ee; fill-rule:evenodd;"/><path d="M1756.4,1141.69c27.27-3.53,47.87-1.66,56.68,11.42-1.12,7.98-3.52,18.36-7.21,31.14,1.6,3.04,3.95,4.62,7.05,4.75,3.88-7.58,7.13-12.09,9.75-13.56,12.98,5.82,10.55,14.81-7.33,26.95-1.05,4.18-2.06,7.64-3.02,10.38,16.08-3.6,29.53-17.99,31.42-24.2,18.76-36.97-2.16-52.58-13.35-58.28-4.94-36.6-58.09-4.25-84.73-21.9-10.58,14.62,2.5,32.97,10.75,33.29Z" style="fill:#8d9fca; fill-rule:evenodd;"/><path d="M1895.8,1296.13c-2.89-11.32-6.08-21.78-9.58-31.38-7.25-11.14-24.25-22.08-51.04-32.85-44.35,19-66.24,19.59-65.72,1.78-13.04,4.28-30.34,11.85-51.89,22.72-13.05,9.91-24.68,32.12-34.92,66.62,25.58,20.73,58.17,33.16,93.67,33.16,23.38,0,45.49-5.4,65.17-15,1.15-2.78,2.33-5.58,3.57-8.4l1.31,5.9c19.46-10.39,36.33-24.98,49.42-42.55Z" style="fill:#bcc9e7; fill-rule:evenodd;"/><path d="M1701.48,1336.02c1.34-10.76,2.89-20.65,4.68-29.65-2.38,10.02-4.76,19.42-7.12,28.21,.81,.49,1.63,.96,2.44,1.44Z" style="fill:#aab9de; fill-rule:evenodd;"/><path d="M1841.49,1341.18c1.15-2.78,2.33-5.58,3.57-8.4-2.3,3.27-4.5,6.55-6.61,9.85,1.02-.47,2.04-.95,3.04-1.44Z" style="fill:#aab9de; fill-rule:evenodd;"/><path d="M1791.45,1218.55c-4.35,2.16-10.33,3.41-17.92,3.76,.15,2.57,.04,5.53-.13,7.36,7.63-1.47,13.65-5.17,18.04-11.12Z" style="fill:#bcc9e7; fill-rule:evenodd;"/><path d="M1706.16,1306.37c9.55-33.28,31.15-55.12,64.79-65.51-1.08-1.92-1.58-4.31-1.49-7.18-13.04,4.28-30.34,11.85-51.89,22.72-13.05,9.91-24.68,32.12-34.92,66.62,5.18,4.21,10.66,8.07,16.39,11.56,2.36-8.79,4.74-18.19,7.12-28.21Z" style="fill:#aab9de; fill-rule:evenodd;"/><path d="M1814.83,1239.88c28.18,19.58,38.26,50.55,30.23,92.9l1.31,5.9c19.46-10.38,36.34-24.98,49.42-42.55-2.89-11.32-6.08-21.78-9.58-31.38-7.25-11.14-24.26-22.08-51.04-32.85-7.41,3.18-14.19,5.84-20.35,7.99Z" style="fill:#aab9de; fill-rule:evenodd;"/><path d="M1435.43,72.41c80.19-9.97,150.18,21.89,156.34,71.15,3.05,24.65-10.42,48.96-34.71,68.37l41.62,68.59-75.52-47.93c-19.23,8.85-41.47,15.26-65.52,18.26-80.21,9.99-150.21-21.86-156.34-71.14-6.15-49.28,53.92-97.31,134.14-107.3Z" style="fill:#d0d9ee; fill-rule:evenodd;"/><path d="M1502.59,163.6c-3.91,27.9-29.69,47.33-57.6,43.39-27.88-3.91-47.32-29.72-43.38-57.61,3.91-27.89,29.69-47.33,57.61-43.4,27.87,3.92,47.31,29.72,43.37,57.61Z" style="fill:#aab9de; fill-rule:evenodd;"/><path d="M1423.98,160.69c-2.1,14.93,8.27,28.71,23.21,30.81,14.9,2.09,28.7-8.29,30.79-23.2l-54-7.61Z" style="fill:#f5f6f7; fill-rule:evenodd;"/><path d="M1511.77,1209.62l-135.43-12.09c-15.95-1.43-27.75-15.55-26.32-31.5l6.79-76.29c1.43-15.96,15.56-27.76,31.5-26.31l135.44,12.09c15.96,1.43,27.76,15.52,26.32,31.51l-6.79,76.25c-1.44,15.99-15.52,27.76-31.51,26.35Z" style="fill:#d0d9ee; fill-rule:evenodd;"/><polygon points="1542.57 1126.4 1589.14 1194.62 1521.2 1168.91 1542.57 1126.4" style="fill:#d0d9ee; fill-rule:evenodd;"/><path d="M1493.91,1123.73l-17.37,1.08s-23.23-14.52-24.36-20.26c-1.15-5.7,1.43-18.21-2.08-19.47-3.51-1.26-10.81-1.87-14.7,6.15-2.84,5.8,1.55,25.83-.38,27.35-1.2,.96-11.19,1.87-18.48,2.43-4.8,.35-8.99,3.36-10.9,7.79h0c-1.29,3-.29,6.47,2.35,8.34l4.16,2.93-2.73,4.28c-2.01,3.22-1.07,7.44,2.11,9.49l3.24,2.08-1.9,2.55c-2.46,3.28-1.5,7.96,2.05,10.04l2.87,1.7-.35,.76c-1.43,3.28-.15,7.08,2.98,8.81l2.88,1.59,46.29-2.96c4.34-.27,8.59-1.43,12.45-3.39l16.11-3.75c1.72-.38,2.9-1.99,2.75-3.77l-3.19-40.46c-.15-1.96-1.84-3.43-3.8-3.29Z" style="fill:#fff; fill-rule:evenodd;"/><path d="M1610.64,531.4c50.06,0,90.65,29.77,90.65,66.49,0,19.8-11.8,37.58-30.53,49.76,9.3,8.82,21.69,16.05,37.16,21.68-28.55,3.14-52.18,.54-70.88-7.81-8.35,1.87-17.22,2.87-26.41,2.87-50.06,0-90.65-29.77-90.65-66.5s40.58-66.49,90.65-66.49Z" style="fill:#d0d9ee; fill-rule:evenodd;"/><path d="M1610.29,581.25c-4.57-9.15-9.14-13.72-18.28-13.72-10.1,0-18.29,8.2-18.29,18.29,0,18.29,18.29,31.97,36.57,50.26,18.29-18.29,36.58-31.97,36.58-50.26,0-10.09-8.2-18.29-18.29-18.29-9.15,0-13.71,4.57-18.29,13.72Z" style="fill:#fff; fill-rule:evenodd;"/><polygon points="355.48 141.82 181.3 213.54 229.25 274.59 355.48 141.82" style="fill:#d0d9ee; fill-rule:evenodd;"/><polygon points="156.66 184.77 350.15 142.22 109.23 160.19 156.66 184.77" style="fill:#d0d9ee; fill-rule:evenodd;"/><polygon points="156.66 184.77 161.31 265.01 181.3 213.54 355.48 141.82 350.15 142.22 156.66 184.77" style="fill:#aab9de; fill-rule:evenodd;"/><polygon points="161.31 265.01 202.54 240.59 181.3 213.54 161.31 265.01" style="fill:#8d9fca; fill-rule:evenodd;"/><path d="M132.02,225.17c4.58-1.11,5.85,5.49,1.81,6.48-2.12,.6-4.24,1.22-6.35,1.88-4.81,1.17-5.8-5.49-1.99-6.42,2.16-.68,4.35-1.32,6.53-1.94h0Zm88.27,387.77c-2.19,3.78-8.05,.48-5.8-3.41,1.13-1.89,2.19-3.8,3.24-5.74,2.36-4.07,8.01-.42,5.93,3.17-1.1,2.01-2.21,4.01-3.37,5.98h0Zm11.75-24.89c-1.11,3.85-7.7,2.48-6.36-2.19,.71-2.06,1.39-4.13,1.99-6.22,1.23-4.29,7.68-2.39,6.47,1.83-.64,2.22-1.36,4.4-2.11,6.58h0Zm5.99-26.98c-.71,4.53-6.85,3.76-6.69-.61,.21-2.14,.33-4.33,.39-6.48,.16-4.57,6.87-4.15,6.71,.14-.04,2.3-.19,4.65-.41,6.94h0Zm-1.14-27.71c.94,3.86-5.46,5.98-6.62,1.23-.35-2-.78-4.44-1.34-6.36-1.07-4.4,5.49-5.86,6.52-1.66,.59,2.15,1.05,4.59,1.44,6.79h0Zm-8.27-26.4c1.84,4.19-4.38,6.74-6.11,2.82-.91-1.99-1.85-3.92-2.86-5.87-2.08-3.76,3.72-7.17,5.94-3.16,1.05,2.06,2.06,4.1,3.02,6.21h0Zm-13.97-23.72c2.66,3.93-3.11,7.39-5.41,3.99-1.29-1.76-2.63-3.52-4-5.21-2.8-3.53,2.52-7.64,5.23-4.23,1.43,1.8,2.83,3.6,4.18,5.46h0Zm-18.03-20.67c3.26,3.35-1.76,7.83-4.68,4.83-1.58-1.54-3.18-3.05-4.81-4.53-3.45-3.55,1.79-7.79,4.52-4.98,1.68,1.54,3.34,3.09,4.97,4.69h0Zm-20.83-17.69c3.59,2.66-.45,8.04-3.99,5.41l-5.39-3.87c-3.77-2.81,.5-8.01,3.83-5.53,1.87,1.3,3.71,2.63,5.54,3.98h0Zm-22.83-14.91c3.87,2.24,.46,8.04-3.34,5.83l-5.78-3.21c-4.09-2.37-.42-8.01,3.16-5.94l5.97,3.32h0Zm-24.35-12.25c4.04,1.73,1.43,7.93-2.68,6.17l-6.12-2.58c-4.23-1.81-1.4-7.91,2.52-6.23,2.1,.86,4.19,1.73,6.28,2.64h0Zm-25.38-9.57c4.14,1.77,2.06,7.58-2.24,6.34-2.13-.75-4.26-1.5-6.38-2.29-4.44-1.9-1.36-7.89,2.35-6.3l6.28,2.25h0Zm-24.84-9.65c4.01,1.71,1.45,7.93-2.69,6.16-2.08-.9-4.15-1.83-6.21-2.77-3.87-1.65-1.46-7.94,2.81-6.11,2.02,.92,4.04,1.83,6.08,2.71h0Zm-23.76-11.74c3.82,2.22,.47,8.04-3.38,5.81-1.97-1.13-3.97-2.28-5.89-3.5-3.56-2.06-.52-8.06,3.59-5.68,1.82,1.18,3.79,2.29,5.68,3.37h0Zm-21.66-14.85c3.29,2.69-.78,8.04-4.35,5.12-1.79-1.51-3.5-3.08-5.18-4.69-3.19-3.28,1.75-7.85,4.74-4.77,1.43,1.47,3.22,3.01,4.79,4.34h0Zm-16.66-19.34c2.11,3.82-3.73,7.15-5.91,3.21-1.17-2.11-2.2-4.23-3.1-6.47-1.61-3.66,4.33-6.84,6.29-2.39,.76,1.94,1.7,3.83,2.71,5.65h0Zm-5.56-23.95c-.14,4.06-6.87,4.27-6.71-.53,.23-2.45,.57-4.74,1.1-7.14,1.34-4.67,7.65-2.33,6.55,1.53-.45,2.07-.75,4.04-.94,6.15h0Zm8.36-23.62c-2.09,3.6-8.06,.51-5.71-3.56,1.22-1.99,2.54-3.92,3.91-5.79,2.66-3.58,8.04,.46,5.41,3.99-1.27,1.73-2.5,3.52-3.61,5.35h0Zm16.61-19.98c-3.11,3.02-7.89-1.71-4.64-4.86,1.39-1.52,3.51-3.24,5.08-4.65,2.82-2.75,7.93,1.65,4.4,5.09-1.38,1.11-3.65,3.14-4.83,4.42h0Zm20.47-16.61c-3.77,2.56-7.42-3.09-3.86-5.51,1.85-1.31,3.76-2.58,5.65-3.83,3.55-2.4,7.46,3.06,3.68,5.63-1.84,1.21-3.68,2.44-5.47,3.71h0Zm22.54-13.95c-3.83,2.12-7.15-3.74-3.22-5.91,1.94-1.07,4.02-2.25,6.01-3.2,3.65-2.02,7.17,3.71,3.07,5.98-1.96,1.02-3.92,2.06-5.86,3.12h0Zm23.88-11.64c-3.97,1.74-6.79-4.36-2.64-6.19l6.28-2.62c3.79-1.67,6.82,4.34,2.5,6.24-2.01,.73-4.15,1.71-6.14,2.56Z" style="fill:#8d9fca; fill-rule:evenodd;"/><polygon points="1089.73 1140.75 1216.51 1192.72 1181.7 1237.18 1089.73 1140.75" style="fill:#d0d9ee; fill-rule:evenodd;"/><polygon points="1234.4 1171.77 1093.61 1141.03 1268.87 1153.84 1234.4 1171.77" style="fill:#d0d9ee; fill-rule:evenodd;"/><polygon points="1234.4 1171.77 1231.1 1230.14 1216.51 1192.72 1089.73 1140.75 1093.61 1141.03 1234.4 1171.77" style="fill:#aab9de; fill-rule:evenodd;"/><polygon points="1231.1 1230.14 1201.09 1212.42 1216.51 1192.72 1231.1 1230.14" style="fill:#8d9fca; fill-rule:evenodd;"/><path d="M1263.7,1225.82c-4.13-.52-3.19-6.53,.64-6.05l6.06,.66c4.07,.51,3.21,6.52-.68,6.04l-6.02-.65h0Zm207.87,241.71c2.7,0,4.04,3.3,2.2,5.14-.45,.54-1.36,.95-2.2,.95l-3.93-.02c-3.94,0-4.02-6.09,.06-6.09l3.87,.02h0Zm-21.96-.55c3.58,0,4.09,6.07-.35,6.07l-6.12-.38c-4.35-.55-3.16-6.52,.45-6.06l6.01,.38h0Zm-23.92-2.28c3.77,.47,3.25,6.54-.92,6.02l.92-6.02h0Zm-23.24-5.12c3.64,1.36,2.19,6.8-1.89,5.78-1.99-.64-3.96-1.34-5.91-2.1-3.71-1.59-1.5-7.05,2.25-5.65,1.82,.73,3.69,1.37,5.55,1.97h0Zm-20.62-10.38c3.17,2.64-.83,7.22-3.82,4.73-1.72-1.41-3.3-2.87-4.79-4.52-2.7-3.24,2.13-6.94,4.56-4.03,1.25,1.4,2.61,2.62,4.05,3.82h0Zm-11.37-18.43c.54,4.33-5.54,4.67-5.99,1.03-.4-2.18-.63-4.27-.71-6.47,0-4.2,6.08-3.97,6.08-.16,.06,1.9,.28,3.73,.62,5.6h0Zm1.63-22.73c-.93,3.7-6.88,2.45-5.87-1.61,.54-1.99,1.12-4.06,1.8-6,1.49-3.98,7.08-1.58,5.76,1.95-.63,1.86-1.19,3.77-1.7,5.66h0Zm8.38-22.28c-1.5,3.51-7.18,1.32-5.53-2.54,.86-1.85,1.74-3.72,2.64-5.56,2.23-3.9,7.21-.4,5.46,2.67-.88,1.79-1.73,3.62-2.57,5.43h0Zm10.85-21.57c-2.11,3.68-7.24,.42-5.37-2.85l2.86-5.38c2.11-3.67,7.25-.42,5.37,2.86-.98,1.75-1.92,3.59-2.86,5.37h0Zm11.33-21.61c-2.2,3.85-7.22,.4-5.44-2.71l2.65-5.41c2.08-3.63,7.03-.98,5.49,2.62l-2.71,5.5h0Zm9.87-22.69c-1.36,3.63-6.8,2.18-5.77-1.89,.62-1.88,1.17-3.72,1.66-5.63,.97-3.87,6.88-2.42,5.89,1.48-.52,2.05-1.12,4.02-1.78,6.04h0Zm3.05-25.25c.49,3.97-5.54,4.72-6.04,.75-.22-1.87-.57-3.76-1.03-5.6-.98-3.93,4.93-5.34,5.89-1.51,.52,2.1,.92,4.21,1.17,6.35h0Zm-9.35-23.81c2.38,3.32-2.63,6.78-4.91,3.58-1.13-1.57-2.32-3.05-3.6-4.5-2.76-3.31,2.13-6.92,4.51-4.08,1.43,1.55,2.78,3.29,4.01,4.99h0Zm-18.36-17.34c3.15,2.25,.28,7.15-3.4,5.05-1.63-1.1-3.29-2.15-4.98-3.17-3.37-1.92-.49-7.28,3.1-5.22,1.79,1.07,3.55,2.17,5.28,3.34h0Zm-21.97-11.66c3.74,1.6,1.28,7.17-2.35,5.61-1.84-.79-3.69-1.51-5.56-2.22-3.72-1.4-1.63-7.11,2.16-5.69,1.92,.73,3.84,1.49,5.74,2.3h0Zm-23.3-8.11c3.65,.92,2.46,6.88-1.67,5.85l-5.8-1.6c-3.8-.95-2.44-6.88,1.55-5.88l5.92,1.63h0Zm-23.85-5.82c4.2,1.05,2.35,6.84-1.22,5.95l-5.92-1.17c-3.87-.96-2.95-6.48,1.14-5.97l6.01,1.19h0Zm-24.1-4.28c3.78,.47,3.25,6.53-.9,6.02l-5.99-.88c-3.84-.48-3.25-6.54,.85-6.02l6.05,.88Z" style="fill:#8d9fca; fill-rule:evenodd;"/></svg>