<?xml version="1.0" encoding="UTF-8"?><svg id="a" xmlns="http://www.w3.org/2000/svg" viewBox="0 0 2072.21 1573.39"><path d="M1008.03,54.41c252.48,0,358.86,180.65,541.14,321.09,241.25,185.86,482.48,64.87,521.11,692.87,34.37,558.94-394.61,60.51-999.48,260.73C465.95,1529.31-150.09,1609.94,32.7,962.14,215.51,314.34,421.38,54.41,1008.03,54.41Z" style="fill:#e0e8f5; fill-rule:evenodd;"/><path d="M808.04,430.3H469.7c2.43-10.28,11.66-17.93,22.68-17.93,.53,0,1.06,.02,1.59,.06,5.34-13.08,18.19-22.31,33.19-22.31,6.57,0,12.72,1.77,18,4.85,6.46-21.27,26.22-36.75,49.59-36.75,4.76,0,9.37,.65,13.74,1.85,11.32-24.99,36.47-42.37,65.69-42.37,34.65,0,63.59,24.46,70.5,57.05,.59-.02,1.16-.04,1.75-.04,22.19,0,40.51,16.6,43.22,38.06,9.06,1.7,16.27,8.62,18.37,17.53Z" style="fill:#fff; fill-rule:evenodd;"/><path d="M1830.01,727.46h-436.55c3.14-13.27,15.05-23.13,29.26-23.13,.68,0,1.37,.03,2.05,.08,6.89-16.88,23.48-28.77,42.84-28.77,8.47,0,16.4,2.28,23.22,6.25,8.33-27.44,33.82-47.42,63.99-47.42,6.13,0,12.09,.83,17.73,2.38,14.61-32.24,47.06-54.66,84.76-54.66,44.71,0,82.05,31.56,90.97,73.61,.76-.02,1.51-.05,2.26-.05,28.64,0,52.28,21.42,55.77,49.11,11.69,2.19,21,11.13,23.71,22.61Z" style="fill:#fff; fill-rule:evenodd;"/><path d="M550.08,879.89H217.99c2.38-10.09,11.45-17.6,22.27-17.6,.52,0,1.04,.02,1.55,.06,5.25-12.83,17.86-21.89,32.59-21.89,6.45,0,12.48,1.74,17.67,4.76,6.34-20.88,25.73-36.08,48.68-36.08,4.66,0,9.19,.64,13.49,1.82,11.1-24.53,35.8-41.59,64.48-41.59,34.01,0,62.41,24.01,69.2,56.01,.57-.02,1.14-.05,1.71-.05,21.79,0,39.77,16.3,42.43,37.36,8.89,1.67,15.97,8.47,18.03,17.2Z" style="fill:#fff; fill-rule:evenodd;"/><path d="M2063.87,1279.36c0,162.39-131.63,294.03-293.98,294.03s-294.01-131.64-294.01-294.03,131.63-293.99,294.01-293.99,293.98,131.63,293.98,293.99Z" style="fill:#b0c2e4; fill-rule:evenodd;"/><path d="M1532.65,1453c225.16-3.11,408.56-178.47,424.5-400.28-50.86-42.08-116.11-67.35-187.25-67.35-162.38,0-294.01,131.63-294.01,293.99,0,64.95,21.12,124.98,56.76,173.64Z" style="fill:#c4d1eb; fill-rule:evenodd;"/><path d="M1769.88,1011.34c74.02,0,141.03,30.01,189.53,78.51,48.51,48.5,78.51,115.51,78.51,189.53s-30,141.03-78.51,189.53c-48.5,48.5-115.51,78.5-189.53,78.5s-141.03-30-189.53-78.5c-48.5-48.5-78.5-115.52-78.5-189.53s30-141.03,78.5-189.53c48.5-48.5,115.51-78.51,189.53-78.51h0Zm175.58,92.46c-44.93-44.94-107.01-72.73-175.58-72.73s-130.65,27.79-175.58,72.73c-44.93,44.93-72.73,107.01-72.73,175.58s27.8,130.65,72.73,175.58c44.93,44.93,107.01,72.73,175.58,72.73s130.65-27.8,175.58-72.73c44.94-44.93,72.73-107.01,72.73-175.58s-27.79-130.65-72.73-175.58Z" style="fill:#8fa3cf; fill-rule:evenodd;"/><path d="M1677.46,1166.39c17.86,0,32.33,17.99,32.33,40.19s-14.47,40.19-32.33,40.19-32.32-17.99-32.32-40.19,14.48-40.19,32.32-40.19h0Zm184.83,0c17.85,0,32.33,17.99,32.33,40.19s-14.48,40.19-32.33,40.19-32.33-17.99-32.33-40.19,14.48-40.19,32.33-40.19Z" style="fill:#859ac6; fill-rule:evenodd;"/><path d="M1627.26,1362.09c-4.3-6.92-2.18-16.03,4.74-20.34,6.93-4.31,16.04-2.18,20.35,4.74,13.38,21.44,30.16,37.75,48.81,49.01,22.25,13.42,47.22,19.75,72.26,19.2,25.14-.56,50.48-8.09,73.37-22.36,21.14-13.18,40.18-32.17,55.04-56.77,4.22-6.99,13.3-9.24,20.29-5.02,6.99,4.21,9.24,13.3,5.03,20.28-17.35,28.75-39.76,51.02-64.75,66.6-27.37,17.06-57.91,26.07-88.4,26.75-30.59,.68-61.03-7.02-88.1-23.37-22.51-13.58-42.68-33.12-58.64-58.72Z" style="fill:#859ac6; fill-rule:evenodd;"/><path d="M697.16,1279.36c0,162.39-131.63,294.03-293.98,294.03s-294.01-131.64-294.01-294.03,131.63-293.99,294.01-293.99,293.98,131.63,293.98,293.99Z" style="fill:#b0c2e4; fill-rule:evenodd;"/><path d="M165.95,1453c225.15-3.11,408.56-178.47,424.49-400.28-50.86-42.08-116.11-67.35-187.25-67.35-162.38,0-294.01,131.63-294.01,293.99,0,64.95,21.12,124.98,56.77,173.64Z" style="fill:#c4d1eb; fill-rule:evenodd;"/><path d="M403.17,1011.34c74.02,0,141.03,30.01,189.54,78.51,48.5,48.5,78.5,115.51,78.5,189.53s-30,141.03-78.5,189.53c-48.51,48.5-115.52,78.5-189.54,78.5s-141.02-30-189.53-78.5c-48.5-48.5-78.5-115.52-78.5-189.53s30-141.03,78.5-189.53c48.51-48.5,115.51-78.51,189.53-78.51h0Zm175.58,92.46c-44.93-44.94-107.01-72.73-175.58-72.73s-130.64,27.79-175.58,72.73c-44.93,44.93-72.72,107.01-72.72,175.58s27.79,130.65,72.72,175.58c44.94,44.93,107.01,72.73,175.58,72.73s130.65-27.8,175.58-72.73c44.94-44.93,72.73-107.01,72.73-175.58s-27.79-130.65-72.73-175.58Z" style="fill:#8fa3cf; fill-rule:evenodd;"/><path d="M310.76,1166.39c17.85,0,32.33,17.99,32.33,40.19s-14.48,40.19-32.33,40.19-32.33-17.99-32.33-40.19,14.48-40.19,32.33-40.19h0Zm184.83,0c17.86,0,32.33,17.99,32.33,40.19s-14.47,40.19-32.33,40.19-32.33-17.99-32.33-40.19,14.48-40.19,32.33-40.19Z" style="fill:#859ac6; fill-rule:evenodd;"/><path d="M260.55,1410.53c-4.3,6.93-2.18,16.04,4.74,20.34,6.93,4.31,16.04,2.19,20.35-4.74,13.38-21.45,30.16-37.75,48.81-49.01,22.26-13.43,47.23-19.76,72.26-19.2,25.14,.57,50.47,8.09,73.36,22.36,21.15,13.19,40.19,32.17,55.04,56.78,4.22,6.98,13.3,9.24,20.29,5.02,6.99-4.21,9.24-13.3,5.03-20.29-17.35-28.74-39.75-51.01-64.75-66.59-27.37-17.06-57.91-26.07-88.4-26.75-30.59-.69-61.02,7.02-88.1,23.36-22.51,13.58-42.68,33.12-58.64,58.72Z" style="fill:#859ac6; fill-rule:evenodd;"/><path d="M383.39,983.69c-5.33-1.1-8.74-6.31-7.63-11.63,1.11-5.32,6.32-8.73,11.63-7.63,252.91,52.92,494.38,79.34,724.42,79.25,229.83-.08,448.39-26.65,655.66-79.69,5.27-1.34,10.64,1.85,11.98,7.13,1.34,5.28-1.86,10.64-7.13,11.98-208.67,53.4-428.85,80.15-660.51,80.24-231.47,.09-474.28-26.46-728.42-79.64Z" style="fill:#8fa3cf; fill-rule:evenodd;"/><path d="M1113.49,240.62c-3.21-21.5-6.55-43.04-26.39-60.46-16.04-14.05-36.02-18.06-55.49-13.15-55.17,13.89-41.81,62.79-84.03,102.65-18.05,16.99-40.99,22.85-55.76,41.58-26.71,33.75-23,98.51,20.47,143.53,106.46,110.31,205.82-26.47,212.93-58.91,5.29-24.11-9.66-141.39-11.74-155.23Z" style="fill:#20386f; fill-rule:evenodd;"/><path d="M1133.21,940.93c-3.67,28.48-10.99,53.77-11.99,56.8-.53,1.43-5.6,6.85-6.15,8.27,4.51,34.21,.99,18.85,21.36,32.25-5.09-17.07,9.91-1.84,10.95-5.76,1.67-6.22,7.94-34.69,22.46-70.82-16.46-.98-22.8-11.02-36.62-20.73Z" style="fill:#f9af79; fill-rule:evenodd;"/><path d="M1084.68,524.58l-107.44,74.34s47.24,54.14,64.97,74.29c17.71,20.14,108.94,94.75,110.27,99.25,.29,.87-5.54,10.72-8.08,23.42-6.86,34.29-16.7,101.26-22.46,158.81,10.02,12.25,33.43,16.74,47.24,21.4,40.05-68.25,62.84-203.42,63.96-219.83,1.72-26.63-148.47-231.68-148.47-231.68Z" style="fill:#20386f; fill-rule:evenodd;"/><path d="M775.86,680.68c3.77,2.76,32.02,43.98,43.73,66.65,11.13-10.02,17.19-20.81,30.12-28.39-13.07-14.58-39.61-50.5-42.66-59.59-7.2-21.46-12.48-23.91-12.48-23.91,0,0-67.64,36.35-71.4,44.21-3.75,7.77,37.5-10.48,52.69,1.03Z" style="fill:#f9af79; fill-rule:evenodd;"/><path d="M808.58,664.17c5.52-.84-4.11-25.95-6.25-31.7-2.35-6.52-6.36-7.98-7.34-8.09-2.62-.18-77.81,40.27-89.73,52.37-.84,.82-2.15,3.24-2.34,3.74-5.33,15.45,60.26,7.82,68.77,.05,7.56-6.8,12.04-12.44,36.89-16.37Z" style="fill:#0e2952; fill-rule:evenodd;"/><path d="M1104.94,549.93l-86.68-43.53c.33,.25-.79,3.8-.87,4.05-10.61,33.43-54.36,17.42-76.67,75.32-15.72,40.82-19.2,181.79-19.2,181.79,0,0-39.4-33.63-80.75-69.38-3.79-3.21-37.74,29.24-37.74,29.24,52.06,104.36,141.32,149.86,153.35,146.05,41.03-12.71,120.45-276.12,120.36-276.14,8.88-15.43,28.19-47.41,28.19-47.41Z" style="fill:#223f81; fill-rule:evenodd;"/><path d="M977.05,313.61s-107.99-30.22-132.12-35.49c-24.14-5.19-107.22-38.88-110.39-40.26-3.19-1.47-13.12-46.89-18.04-43.87-4.92,3.03,6.26,22.98,.18,25.32-6.11,2.42-55.89-22.47-56.45-18.18-1.04,7.97,29.87,16.45,28.72,20.08-1.16,3.62-31.42-11.91-35.46-6.55-4.03,5.46,30.05,11.99,30.49,15.14,.5,3.07-32.93-1.79-31.42,4.91,.83,3.59,29.85,3.58,28.44,7.7-1.41,4.11-23.68,7.68-22.36,11.83,1.36,4.06,18.32-5.56,29.62-2.32,11.26,3.24,21.17-.37,37.48,10.29,16.33,10.67,69.43,55.16,108.19,64.99,38.75,9.92,124.38,31.91,124.38,31.91l18.72-45.51Z" style="fill:#f9af79; fill-rule:evenodd;"/><path d="M1104.28,311.39s49.36-100.78,61.5-122.19c12.19-21.49,42.32-105.93,43.37-109.3,1.07-3.29-26.19-40.97-20.66-42.61,5.53-1.64,12.93,19.96,18.77,17.03,5.84-2.93,20.42-56.67,23.96-54.23,6.64,4.53-7.61,33.24-4.12,34.77,3.51,1.54,12.01-31.33,18.76-30.75,6.71,.59-11.09,30.36-9.06,32.76,2.01,2.49,20.65-25.77,24.59-20.18,2.15,3.05-17.2,24.68-13.16,26.33,4.03,1.74,21.52-12.45,23.66-8.76,2.15,3.68-16.34,9.92-21.41,20.57-5.05,10.56-14.36,15.56-17.27,34.83-2.92,19.28-5.05,88.47-23.49,123.96-18.45,35.58-58.98,114.08-58.98,114.08l-46.46-16.29Z" style="fill:#f9af79; fill-rule:evenodd;"/><path d="M1127.95,438.47c2.8-19.21,8.77-70.96,8.37-77.43,6.9-19.71,29.22-48.01,34.04-56.19,0,0-25.45-34.52-45.98-35.53,0,0-23.64,27.3-40.4,35.07-.22-.14-5.91,2.19-8.3,1.96-15.62-1.08-70.05-6.43-80.45-3.91l-.02,88.43c2.59,5.31-.49,106.77,4.99,115.56,5.48,8.7,90.81,52.39,106,43.57,.59-.33,16.12-72.77,21.75-111.54Z" style="fill:#6d96ce; fill-rule:evenodd;"/><path d="M1022.96,305.68c-2.35-1.48-8.04-3.2-16.39-3.85-24.71-2.07-66.32-5.84-66.32-5.84,0,0-13.65,52.32-6.27,65.63,0,0,64.44,14.35,62.23,19.83l26.75-75.78Z" style="fill:#6d96ce; fill-rule:evenodd;"/><path d="M1042.21,271.62s3.64,30.89,1.73,42.91c-1.94,12.01,.95,51.2,25.37,52.94,24.39,1.73,7.89-49.1,6.37-61.12-1.55-11.93,.31-48.51,.31-48.51l-33.78,13.78Z" style="fill:#f9af79; fill-rule:evenodd;"/><path d="M1075.32,276.15c.25-10.02,.67-18.3,.67-18.3l-33.78,13.78s.74,6.27,1.39,14.33c14.13,4.01,24.88-.87,31.71-9.8Z" style="fill:#f27458; fill-rule:evenodd;"/><path d="M1035.78,186.44s-13.08,6.55-18.75,22.11c-5.64,15.47-3.08,56.76,28.86,68.78,31.93,12.02,48.2-19.42,43.14-45.21-5.03-25.78-17.55-58.78-53.24-45.67Z" style="fill:#f9af79; fill-rule:evenodd;"/><path d="M1093.73,222.57c-1.05,6.71-5,11.74-8.76,11.05-3.78-.61-5.93-6.63-4.87-13.34,1.1-6.79,5.03-11.73,8.81-11.13,3.75,.6,5.94,6.63,4.82,13.42Z" style="fill:#f9af79; fill-rule:evenodd;"/><path d="M1116.31,1002.39c-5.43-2.07-6.14,25.11-6.73,31.15-.65,6.83,2.41,10.08,3.22,10.59,2.23,1.47,88.04,6.54,105.22,.96,1.65-.47,3.67-2.81,4.03-3.68,3.01-8.85-47.98-35.16-63.65-33.91-10.08,.87-17.78,3.95-42.09-5.1Z" style="fill:#0e2952; fill-rule:evenodd;"/><path d="M1039.76,184.65s-8.93,45.29-23.6,52.59c-14.67,7.31-10.08,27.87-10.08,27.87,0,0-9.71-47.81,2.44-62.2,12.16-14.3,31.23-18.26,31.23-18.26Z" style="fill:#20386f; fill-rule:evenodd;"/><path d="M1024.11,244.29c3.42,6.2,2.97,13.21-1.07,15.7-4.01,2.41-10.08-.65-13.5-6.85-3.44-6.2-2.97-13.21,1.05-15.61,4.01-2.41,10.07,.56,13.51,6.76Z" style="fill:#f9af79; fill-rule:evenodd;"/><path d="M1043.98,219.56c-1.64,2.43-8.32,2.58-11.65,3.86-1.67,.64-5.88,3.74-7.5,3.57-4.95-.52,9.14-11.32,18.06-10.23,1.12,.14,1.78,1.81,1.09,2.81Z" style="fill:#20386f; fill-rule:evenodd;"/><path d="M1061.67,211.89c7.57-4.85,24.95-.94,20.7,1.62-1.41,.85-6.54-.2-8.31-.06-3.56,.25-9.68,2.93-12.21,1.45-1.02-.62-1.25-2.32-.18-3.01Z" style="fill:#20386f; fill-rule:evenodd;"/><path d="M1039.42,237.76c-2.48,.61-6.71-8.3-.72-9.77,3.2-.78,4.74,8.78,.72,9.77Z" style="fill:#20386f; fill-rule:evenodd;"/><path d="M1076.16,229.17c2.47-.6,2.1-10.46-3.88-8.99-3.2,.78-.15,9.98,3.88,8.99Z" style="fill:#20386f; fill-rule:evenodd;"/><path d="M1057.35,249.58c-.49-.99,1.25-1.51,2.3-2.04,3.84-1.9,4.51,.06-1.55-16.57-1.19-3.26-2.19-4.91-1.02-5.29,1.1-.33,1.13,1.06,2.49,4.76,6.58,18.06,6.07,15.78-1.16,19.48-.38,.18-.84,.05-1.05-.33Z" style="fill:#ed7d57; fill-rule:evenodd;"/><path d="M1055.85,263.64c-1.06-1.68,1-1.39,18.09-4.19,4.93-.81-8.55,19.34-18.09,4.19Z" style="fill:#fff; fill-rule:evenodd;"/></svg>