<?xml version="1.0" encoding="UTF-8"?><svg id="a" xmlns="http://www.w3.org/2000/svg" viewBox="0 0 1727.92 1292.85"><path d="M180.41,783.69c.42-68.3,60.05-118.5,126.64-118.5,6.71,0,13.39,.53,20,1.5,23.3-75.6,96.18-125.73,175.83-125.73,98.27,0,183.42,75.95,183.42,175.99,0,10.34-.95,20.62-2.78,30.76,56.45,10.84,104.82,53.86,104.82,114.9,0,30.79-14,59.1-34.39,81.58-15.77,17.38-39.04,34.79-61.92,41.2-7.82,2.16-16.62,1.77-24.64,.56H158.95c-58.13,0-119.22-39.23-119.22-101.97s61.1-101.94,119.22-101.94c7.19,0,14.36,.53,21.46,1.64h0Zm0,0" style="fill:#cfdaee; fill-rule:evenodd;"/><path d="M708.68,7.49l-233.75,75.99,56.32,84.19L708.68,7.49Zm0,0" style="fill:#cfdaee; fill-rule:evenodd;"/><path d="M445.74,43.62L701.71,7.49l-315.23-.58,59.27,36.72Zm0,0" style="fill:#cfdaee; fill-rule:evenodd;"/><path d="M445.74,43.62l-1.93,104.85,31.12-64.98L708.68,7.49h-6.97l-255.97,36.13Zm0,0" style="fill:#becce7; fill-rule:evenodd;"/><path d="M443.81,148.47l56.09-27.68-24.97-37.3-31.12,64.98Zm0,0" style="fill:#aabcdd; fill-rule:evenodd;"/><path d="M397.47,252.17H1539.33c27.19,0,45.23,22.29,40.02,49.52l-148.11,774.85c-5.2,27.23-31.74,49.51-58.97,49.51H230.41c-27.19,0-45.23-22.29-40.02-49.51L338.5,301.69c5.2-27.23,31.74-49.52,58.97-49.52h0Zm0,0" style="fill:#cfdaee; fill-rule:evenodd;"/><path d="M388.64,298.28H1530.5c1.86,0,3.11,1.54,2.75,3.41l-148.11,774.85c-.36,1.9-2.16,3.4-4.02,3.4H239.25c-1.87,0-3.11-1.5-2.75-3.4L384.61,301.69c.36-1.87,2.16-3.41,4.03-3.41h0Zm0,0" style="fill:#e9eef7; fill-rule:evenodd;"/><path d="M0,1126.05H1151.09v36.98c0,20.32-16.62,36.95-36.98,36.95H36.98c-20.32,0-36.98-16.62-36.98-36.95v-36.98Zm0,0" style="fill:#becce7; fill-rule:evenodd;"/><path d="M1151.09,1126.05v36.98c0,20.32-16.62,36.95-36.98,36.95h269.29c20.36,0,36.98-16.62,36.98-36.95v-36.98h-269.29Zm0,0" style="fill:#aabcdd; fill-rule:evenodd;"/><path d="M1505.46,180.91c-20.91,307.8-95,648.95-434.22,737.22l-8.41,2.19-8.44-2.19c-339.19-88.27-413.31-429.42-434.19-737.22l-2.03-29.68,29.22-5.47c141.47-26.51,271.19-79.52,401.46-139.35l13.97-6.41,13.94,6.41c130.31,59.82,260.03,112.84,401.5,139.35l29.19,5.47-2,29.68Zm0,0" style="fill:#e9eef7; fill-rule:evenodd;"/><path d="M1472.08,177.5c-139.8-26.22-264.48-75.36-409.25-141.82-144.77,66.46-269.49,115.61-409.29,141.82,28.54,420.45,153.22,640.51,409.29,707.14,256.04-66.63,380.72-286.69,409.25-707.14h0Zm0,0" style="fill:#aabcdd; fill-rule:evenodd;"/><path d="M1407.09,226.13c-119.71-28.05-231.85-72.65-344.26-123.4-112.41,50.75-224.56,95.35-344.26,123.4,16.82,186.99,62.42,418.22,216.05,532.59,38.81,28.89,82.11,49.06,128.21,62.6,46.08-13.54,89.4-33.71,128.22-62.6,153.64-114.37,199.22-345.6,216.05-532.59h0Zm0,0" style="fill:#e9eef7; fill-rule:evenodd;"/><path d="M1407.09,226.13c-119.71-28.05-231.85-72.65-344.26-123.4V821.32c46.08-13.54,89.4-33.71,128.22-62.6,153.64-114.37,199.19-345.6,216.05-532.59h0Zm0,0" style="fill:#cfdaee; fill-rule:evenodd;"/><path d="M984,384.91h157.67v-61.92c0-21.66-8.87-41.36-23.17-55.66-14.3-14.3-34-23.17-55.66-23.17s-41.36,8.87-55.66,23.17c-14.31,14.3-23.18,34-23.18,55.66v61.92Zm194.97,0v.56c18.59,3.2,32.85,19.5,32.85,38.94v182.9c0,21.73-17.77,39.5-39.5,39.5h-218.99c-21.73,0-39.53-17.77-39.53-39.5v-182.9c0-19.44,14.27-35.74,32.85-38.94v-62.48c0-31.97,13.09-60.99,34.13-82.03,21.04-21.05,50.07-34.14,82.04-34.14s61,13.09,82.04,34.14c21.04,21.04,34.1,50.06,34.1,82.03v61.92h0Zm0,0" style="fill:#aabcdd; fill-rule:evenodd;"/><path d="M1062.83,441.19c23.27,0,42.12,18.85,42.12,42.08,0,18.91-12.47,34.92-29.62,40.25v50.89c0,6.88-5.63,12.5-12.5,12.5s-12.54-5.62-12.54-12.5v-50.89c-17.15-5.33-29.58-21.34-29.58-40.25,0-23.23,18.85-42.08,42.12-42.08h0Zm0,0" style="fill:#e9eef7; fill-rule:evenodd;"/><path d="M387.6,178.42c6.9-3.96,.71-13.13-5.01-9.85-3.47,1.8-6.71,3.66-10.01,5.76-5.8,3.31-.96,13.25,5.88,9.37,2.98-1.93,5.96-3.67,9.14-5.27h0Zm480.62,167.94c5.73-4.78-1.51-13.13-6.94-8.58l-7.46,5.92c-5.99,4.97,1.54,13.09,6.74,8.74l7.66-6.08Zm-34.52,25.98c6.08-4.35-.53-13.19-6.28-9.06l-9.04,6.12c-5.56,3.17-1.01,13.28,6.09,9.22l9.24-6.28Zm-37.84,23.86c6.48-3.7,.83-13.19-5.37-9.66-3.14,1.77-6.32,3.54-9.56,5.24-6.77,3.86-.75,13.13,5.11,9.79,3.31-1.73,6.58-3.53,9.82-5.36h0Zm-40.15,19.8c6.84-2.92,2.32-12.99-4.25-10.18-3.34,1.41-6.71,2.75-10.08,4.06-6.74,2.51-2.98,12.89,3.93,10.3,3.5-1.34,6.97-2.72,10.41-4.19h0Zm-42.51,14.6c6.97-1.73,4.42-12.5-2.75-10.7-3.5,.92-7,1.77-10.54,2.58-7.43,1.87-4.32,12.47,2.39,10.81,3.63-.85,7.26-1.73,10.9-2.69h0Zm-44.31,8.05c7.69-.98,5.76-11.85-.98-11.03-3.6,.36-7.17,.62-10.77,.85-6.68,0-7.43,11.03,.49,11.03,3.76-.23,7.49-.52,11.26-.85h0Zm-45.06,.56c6.61,.81,8.7-10.05,.88-11.03-3.6-.26-7.2-.56-10.77-.98-7.2-.91-8.61,10.05-1.34,10.97,3.73,.42,7.47,.74,11.22,1.05h0Zm-44.47-6.88c6.91,1.7,9.79-8.93,2.55-10.77-3.37-.75-7.17-1.64-10.47-2.65-7.46-1.86-9.65,8.97-3.01,10.64,3.67,.92,7.27,1.93,10.93,2.78h0Zm-42.87-13.35c6.94,2.61,10.64-7.79,3.96-10.28-3.37-1.31-6.74-2.68-10.11-4.05-6.58-2.81-11.06,7.26-4.25,10.2,3.47,1.41,6.94,2.82,10.41,4.13h0Zm-40.84-18.23c5.73,3.31,11.88-5.89,5.01-9.82-3.27-1.63-6.51-3.34-9.72-5.04-5.99-3.44-11.88,5.92-5.2,9.75,3.31,1.73,6.58,3.44,9.92,5.11h0Zm-39.01-21.56c6.54,3.73,11.78-6.03,5.69-9.49l-9.39-5.69c-6.71-3.83-11.71,6.02-5.79,9.42l9.49,5.76Zm-37.6-23.63c7.04,4.03,11.65-6.03,6.05-9.22l-9.23-6.06c-7.07-4.05-11.65,6.06-6.09,9.23l9.26,6.05Zm-36.88-24.41c7.13,4.09,11.65-6.03,6.13-9.2l-9.24-6.12c-7.07-4.02-11.65,6.06-6.09,9.23l9.19,6.08Zm-36.91-23.99c6.81,3.89,11.71-6.02,5.86-9.36l-9.46-5.87c-6.64-3.8-11.75,6.03-5.73,9.46,3.11,1.87,6.25,3.83,9.33,5.76h0Zm-37.8-22.06c5.89,3.37,11.88-5.92,5.14-9.79-3.31-1.73-6.64-3.44-9.98-5.1-5.56-3.18-11.95,5.89-4.84,9.92l9.69,4.97Zm-39.53-17.8c1.83,.69,3.5,.39,4.78-.5-1.57,4.75,4.71,10.11,9.33,5.5l7.66-7.92c5.01-5-2.65-12.98-7.92-7.69l-6.77,6.97c.79-2.48,0-5.53-3.4-6.8-3.53-1.24-7.1-2.45-10.73-3.57-7.69-1.9-9.59,8.96-3.17,10.6,3.43,1.05,6.87,2.2,10.24,3.4h0Zm-41.59-10.05c6.94,.85,8.64-10.04,1.15-11-3.8-.39-7.56-.65-11.39-.81-7.79,0-7.2,11.02-.39,11.02,3.57,.17,7.07,.39,10.64,.79h0Zm-42.64,1.17c6.84-.85,5.92-11.88-1.67-10.93-3.73,.59-7.53,1.28-11.22,2.09-7.4,1.86-4.32,12.47,2.39,10.8,3.44-.79,7.04-1.41,10.5-1.97h0Zm-41.27,11.42c6.68-2.88,2.75-12.83-4.12-10.24-3.53,1.41-7,2.95-10.44,4.55-6.6,3.8-1.8,12.76,4.74,9.98,3.21-1.53,6.51-2.97,9.82-4.28h0Zm-37.47,20.49c5.92-4.94-.85-12.96-6.54-8.9-3.08,2.22-6.09,4.55-9,6.99-5.53,4.62,1.47,13.16,7.1,8.45,2.76-2.29,5.56-4.45,8.44-6.54h0Zm-29.88,29.65c4.06-5.63-4.71-12.4-9.13-6.18-2.16,3.14-4.38,6.61-6.05,10.01-3.3,5.8,5.89,11.91,9.82,5.04,1.51-2.98,3.47-6.09,5.37-8.87h0Zm-13.09,38.09c0-4.91-6.02-7.33-9.36-4-.95,.82-1.7,2.45-1.7,4,0,4.09,.36,8.02,1.11,12.04,1.77,7,11.78,5.37,10.83-2.09-.62-3.27-.88-6.58-.88-9.94h0Zm12.96,37.47c-4.58-5.51-13.16,1.46-8.41,7.13,2.75,3.34,5.69,6.18,9.29,8.58,6.9,3.96,11.68-6.03,5.96-9.3-2.55-1.64-4.91-4.09-6.84-6.41h0Zm34.23,9.1c-6.64,1.66-4.45,12.5,3.01,10.63,3.8-1.01,7.53-2.42,11.13-3.96,6.58-2.81,2.39-13.02-4.45-10.11-3.04,1.35-6.45,2.59-9.69,3.44h0Zm37.34-19.48c-5.92,4.26,.49,13.22,6.41,9.01,3.04-2.16,6.06-4.36,9.07-6.64,6.02-5.01-1.57-13.06-6.74-8.77-2.88,2.19-5.79,4.32-8.74,6.41h0Zm33.94-27.32c-5.27,4.35,1.41,13.18,7.33,8.24l8.28-7.47c5.07-4.22-1.38-13.22-7.49-8.14l-8.12,7.37Zm31.97-30.11c-5.24,5.24,2.65,12.96,7.72,7.89l7.89-7.82c5.14-5.14-2.68-12.96-7.82-7.82l-7.79,7.76Zm30.99-31.31c-5.01,5,2.62,12.98,7.92,7.69l7.69-7.92c4.97-5-2.65-13-7.95-7.69l-7.66,7.92Zm61.62-63.46c-5.14,5.14,2.68,12.96,7.82,7.82l7.79-7.75c5.23-5.24-2.68-12.93-7.72-7.85l-7.89,7.79Zm32.14-30.75c-5.2,4.35,1.41,13.22,7.36,8.24l8.21-7.2c5.46-4.55-1.44-13.16-7.17-8.41-2.81,2.42-5.63,4.88-8.41,7.36h0Zm0,0" style="fill:#8ca3ca; fill-rule:evenodd;"/><path d="M158.95,797.6c13.8,0,26.96,2.25,39,6.35-1.3-6.32-1.96-12.83-1.96-19.5,0-57.27,49.71-103.67,111.07-103.67,10.87,0,21.37,1.47,31.32,4.19,15.51-73.28,83.28-128.45,164.51-128.45,92.71,0,167.84,71.87,167.84,160.45,0,15.25-2.23,29.97-6.35,43.95,60.64,4.09,108.38,46.7,108.38,101.71s-52.59,98.73-84.92,107.79c-4.84,1.34-11.49,1.24-19.24,0H158.95c-57.24,0-103.67-38.68-103.67-86.43s46.43-86.39,103.67-86.39h0Zm0,0" style="fill:#fff; fill-rule:evenodd;"/><path d="M429.38,672.49c48.99-19.28,106.88-7.56,144.31,33.74,37.57,41.49,43.46,100.55,19.11,147.52,33.67-90.52-41.89-191.31-142.91-158.62l12.08,13.36-68.09,2.32,24.53-50.42,10.96,12.11Zm0,0" style="fill:#aabcdd; fill-rule:evenodd;"/><path d="M444.07,688.69c50.27-15.44,94.94,2.03,123.47,34.69-27.52-29.22-69.7-43.75-117.65-28.24l-5.83-6.44Zm0,0" style="fill:#8ca3ca; fill-rule:evenodd;"/><path d="M527.36,915.01c-48.99,19.31-106.88,7.56-144.32-33.74-37.6-41.5-43.46-100.56-19.11-147.49-33.67,90.48,41.85,191.28,142.88,158.58l-12.08-13.32,68.13-2.35-24.54,50.43-10.96-12.11Zm0,0" style="fill:#aabcdd; fill-rule:evenodd;"/><path d="M512.66,898.81c-50.3,15.45-94.93-2.02-123.47-34.69,27.49,29.23,69.7,43.75,117.61,28.24l5.86,6.45Zm0,0" style="fill:#8ca3ca; fill-rule:evenodd;"/><path d="M1402.48,1207.41c-179.72,0-325.41,19.11-325.41,42.7s145.69,42.74,325.41,42.74,325.45-19.14,325.45-42.74-145.69-42.7-325.45-42.7h0Zm0,0" style="fill:#cfdaee; fill-rule:evenodd;"/><path d="M1254.63,1238.33c32.23-.49,56.35-.88,67.51-4.42,12.01-3.79,9.52-11.12,2.62-22.84-30.4,13.97-22.29-2.88-36.52-.75-9.98,8.05-24.8,13.45-44.41,16.2-8.28,6.12-4.91,11.55,10.8,11.81h0Zm0,0" style="fill:#163560; fill-rule:evenodd;"/><path d="M1296.06,746.75h199.36c3.92,0,7.98,3.2,9.03,7.13l35.44,135.05c1.05,3.92-1.31,7.17-5.24,7.17h-199.39c-3.93,0-7.99-3.25-9-7.17l-35.47-135.05c-1.01-3.93,1.34-7.13,5.27-7.13h0Zm0,0" style="fill:#cfdaee; fill-rule:evenodd;"/><path d="M1508.7,750.63l24.08,91.7c28.93-14.14,63.75-36.79,100.3-65.81,.98-13.09,2.19-23.49,3.63-31.29-2.91-5.82-6.15-12.05-9.62-18.65,33.7-.2,54.26-7.46,61.69-21.76-9.03-26.38-21.63-53.35-37.83-80.83-11.32-16.75-33.51-26.61-66.56-29.55-3.86,44.31-71.83,42.05-55.86,3.9-24.64,6.61-45.55,18.85-62.67,36.68-14.72,36.29-23.69,61.62-26.93,75.98,15.97,11.19,31.12,18.46,45.45,21.77,.66,3.14,1.15,6.7,1.54,10.7h13.74c3.93,0,7.98,3.21,9.03,7.16h0Zm0,0" style="fill:#699dee; fill-rule:evenodd;"/><path d="M1532.79,842.33l-24.08-91.7c-1.05-3.96-5.1-7.16-9.03-7.16h-199.36c-3.93,0-10.93,5.07-9.75,8.97-.19-3.25,2.06-5.69,5.5-5.69h199.36c3.92,0,7.98,3.2,9.03,7.13l35.44,135.05c.62,2.35,0,4.45-1.41,5.76,3.27-2.13,6.41-6.23,5.69-9.01l-11.39-43.35Zm0,0" style="fill:#8ca3ca; fill-rule:evenodd;"/><path d="M1534.65,896.1h-199.36c-.75,0-1.47-.13-2.19-.33,3.96,10.27,14.73,8.76,18.95,8.74h236.37c12.8-.56,12.47-9.53,12.63-18.19h-56.78c.16,2.74-2.75,6.41-5.79,8.38-.95,.88-2.26,1.41-3.83,1.41h0Zm0,0" style="fill:#8ca3ca; fill-rule:evenodd;"/><path d="M1506.74,802.27c-21.37,10.8-46.67,14.14-72.65,15.45,.29,.94,.52,1.9,.65,2.88,1.74,10.97-5.99,20.29-17.11,20.29-10.54,0-20.06-8.35-21.7-18.69-.16-1.1-.26-2.22-.23-3.3-27,.72-53.08,2.22-74.64,10.63l14.86,56.49h192.81l-21.99-83.75Zm0,0" style="fill:#8ca3ca; fill-rule:evenodd;"/><path d="M1413.31,808.46c7.14,0,13.84,5.79,14.99,12.96,1.11,7.13-3.76,12.93-10.9,12.93s-13.88-5.8-14.99-12.93c-1.14-7.17,3.73-12.96,10.9-12.96h0Zm0,0" style="fill:#8ca3ca; fill-rule:evenodd;"/><path d="M1642.68,863.18c-3.96-12.14-6.84-24.71-8.57-37.73-26.83,10.37-57.56,20.42-96.37,35.74l5.24,19.99c58.67,1.9,91.89-4.09,99.71-18h0Zm0,0" style="fill:#699dee; fill-rule:evenodd;"/><path d="M1537.73,861.18c38.81-15.31,69.54-25.37,96.37-35.74,23.66-9.16,44.31-18.62,64.92-32.24-.88-26.31-4.78-51.73-15.67-81.22-9.98,9.56-28.73,14.43-56.25,14.59,7.95,15.09,14.43,28.08,19.47,38.98-41.43,34.32-81.32,60.93-113.78,76.77l4.94,18.85Zm0,0" style="fill:#ffb27d; fill-rule:evenodd;"/><path d="M1444.1,714.51c-3.01,10.44-5.79,20.09-8.31,28.96h50.13c-.39-4-.88-7.55-1.54-10.7-12.76-2.95-26.21-9.04-40.28-18.26h0Zm0,0" style="fill:#ffb27d; fill-rule:evenodd;"/><path d="M1322.37,1200.44c29.65-107.53,40.25-183.09,31.81-226.62,16.85,2.39,33.77,3.14,50.76,2.26-2.55-11.65-5.17-23.3-7.82-35.12,.33-16.04,8.51-27.95,37.57-36.45h-82.63c-2.81,0-8.54,.69-13.22-1.9-26.64,7.59-39.63,20.16-44.08,35.47-3.24,42.22,5.53,90.26-1.93,262.68,9.29,.98,19.14,.85,29.55-.33h0Zm0,0" style="fill:#163560; fill-rule:evenodd;"/><path d="M1353.33,904.51h-1.28c-2.81,0-8.54,.69-13.22-1.9-26.64,7.59-39.63,20.16-44.08,35.47-3.24,42.22,5.53,90.26-1.93,262.68,5.56,.59,11.29,.79,17.25,.59,15.31-59.95,51.74-206.98,10.7-270.33,9.62-10.21,20.49-19.05,32.56-26.51h0Zm0,0" style="fill:#2b478b; fill-rule:evenodd;"/><path d="M1584.33,594.9c-5.27-6.71-9.91-12.96-11.29-17.42,1.05-3.01,2.19-6.87,3.34-11.48,19.8-13.45,22.48-23.4,8.12-29.84-2.88,1.64-6.48,6.64-10.8,15.02-3.43-.13-6.02-1.9-7.79-5.27,4.09-14.14,6.74-25.62,7.98-34.46-9.75-14.5-32.56-16.56-62.76-12.67-1.41,8.05-2.55,16.55-3.44,25.56-5.33,4.91-4.65,23.13,.26,44.14-2.45,11.94,4.94,18.49,22.15,19.57,.23,4.25-1.44,9.65-1.57,10.28,0,.03,0,.09-.07,.13-15.71,37.9,51.57,40.22,55.86-3.56h0Zm0,0" style="fill:#ffb27d; fill-rule:evenodd;"/><path d="M1511.12,498.79c30.2-3.89,53.01-1.83,62.76,12.67-1.24,8.83-3.89,20.31-7.98,34.46,1.77,3.37,4.35,5.14,7.79,5.27,4.32-8.38,7.92-13.38,10.8-15.02,14.37,6.44,11.68,16.4-8.12,29.84-1.14,4.61-2.29,8.48-3.34,11.48,17.8-3.99,32.69-19.9,34.78-26.8,20.78-40.91-2.39-58.22-14.79-64.5-5.46-40.55-64.3-4.72-93.82-24.25-11.71,16.2,2.78,36.49,11.91,36.85h0Zm0,0" style="fill:#22407a; fill-rule:evenodd;"/><path d="M1552.45,587.54c-8.34,.69-15.77,.85-22.35,.52,.16,2.91-.59,6.38-1.11,8.48,10.67-.29,18.49-3.27,23.46-8.99h0Zm0,0" style="fill:#f08261; fill-rule:evenodd;"/><path d="M1461.25,968.45h179.85c6.45,0,11.71,5.27,11.71,11.69s-5.27,11.68-11.71,11.68h-179.85c-6.45,0-11.68-5.24-11.68-11.68s5.24-11.69,11.68-11.69h0Zm0,0" style="fill:#a0795f; fill-rule:evenodd;"/><path d="M1630.37,1189.83c-8.57-8.61-20.45-13.94-33.51-13.94h-91.33c-13.09,0-24.94,5.33-33.54,13.94-8.61,8.57-13.94,20.45-13.94,33.51v9.59h-3.67v11.85h26.97v-11.85h-3.66v-9.59c0-7.62,3.14-14.59,8.18-19.63,5.04-5.07,12.01-8.18,19.67-8.18h91.33c7.63,0,14.6,3.11,19.64,8.18,5.07,5.04,8.18,12.01,8.18,19.63v9.59h-3.63v11.85h26.93v-11.85h-3.67v-9.59c0-13.05-5.33-24.94-13.94-33.51h0Zm0,0" style="fill:#d1a586; fill-rule:evenodd;"/><rect x="1541.36" y="991.81" width="19.64" height="184.08" style="fill:#d1a586;"/><path d="M1614.11,967.7c34.79-12.47,39.5-47.12,24.22-99.48-12.6,10.3-44.38,14.59-95.36,12.95l1.21,4.52c.07,.2,.07,.39,.1,.63h56.78c-.16,8.67,.17,17.63-12.63,18.19h-153.74c-29.06,8.5-37.24,20.42-37.57,36.45,18.42,82.21,34.79,157.6,57.07,261.76,7.53,4.22,17.8,3.89,30.86-.98,10.44-101.03,7.59-174.49-8.61-220.37,43,.17,88.91-5.69,137.67-13.67h0Zm0,0" style="fill:#2b478b; fill-rule:evenodd;"/><path d="M1614.11,967.7c34.79-12.47,39.5-47.12,24.22-99.48-2.68,2.19-6.22,4.12-10.64,5.75,12.66,53.8-1.11,83.28-41.99,86.09-47.68,7.07-87.24,10.47-118.63,10.21,13.84,89.67,16.23,167.88,7.13,234.57,3.37-.62,6.97-1.67,10.83-3.11,10.44-101.03,7.59-174.49-8.61-220.37,43,.17,88.91-5.69,137.67-13.67h0Zm0,0" style="fill:#163560; fill-rule:evenodd;"/><path d="M1295.93,1201.06c-.85,3.24-2.26,6.28-4.22,9.13,9.3,.88,5.73,12.86,30.86,1.87-1.08-3.17-1.67-6.97-1.8-11.45-8.67,.92-16.95,1.05-24.84,.46h0Zm0,0" style="fill:#ffb27d; fill-rule:evenodd;"/><path d="M1454.25,1257.21c17.15-7.07,19.7-18.56,29.12-22.97,9.49-4.42,10.57-12.3,1.31-20.88-6.84,5.46-15.35,12.21-19.86,8.64-3.01-2.39-13.19-2.22-15.22,1.24-8.87,20.65-21.24,14.11-23.66,23.5-.29,12.5,17.54,14.92,28.31,10.47h0Zm0,0" style="fill:#163560; fill-rule:evenodd;"/><path d="M1457.19,1204.1c.13,5.5-.62,11-2.26,16.53,3.67-.59,8.08-.07,9.88,1.37,4.19,3.31,11.78-2.22,18.33-7.43-1.05-2.94-1.77-6.77-2.16-11.45-9.56,3.01-17.51,3.34-23.79,.98h0Zm0,0" style="fill:#ffb27d; fill-rule:evenodd;"/><path d="M1627.1,726.58c-4.45-7.98-9.13-18.78-14.07-32.33,2.65,15.77,2.52,27.13,6.81,40.09-3.47,18.35-4.91,37.04-4.55,55.89,5.89-4.39,11.81-8.96,17.8-13.71,.98-13.09,2.19-23.49,3.63-31.29-2.91-5.82-6.15-12.05-9.62-18.65h0Zm-153.02,3.17c3.47,1.21,6.9,2.23,10.31,3.02-1.31-20.06-2.13-36.65-2.55-49.75-3.86,19.34-6.45,34.92-7.76,46.73h0Zm168.6,133.42c-3.99-12.1-6.84-24.71-8.57-37.73-4.97,1.94-10.08,3.83-15.35,5.76,2.13,14.27,5.14,28.56,8.96,42.77,7.49-2.82,12.5-6.42,14.96-10.8h0Zm0,0" style="fill:#4a75cb; fill-rule:evenodd;"/></svg>