<?xml version="1.0" encoding="UTF-8"?><svg id="a" xmlns="http://www.w3.org/2000/svg" viewBox="0 0 2466.24 1552.66"><path d="M84.51,986.5C17.31,1055.12-14.86,1150.77,6.6,1248.2c31.58,143.46,169.04,243.52,323.39,245.7v.04l.34-.04c15.5,.24,31.16-.57,46.92-2.34,303.99-20.77,532.63-135.46,1116.05,19.16v-.04c269.66,78.6,1184.56,92.74,928.07-378.2-52.21-95.94-283.04-185.16-256.53-269.1C2449.57-38.66,1601.19,326.43,1142.5,239.93,890.06,192.33,715.95-38.6,455.97,5.59c-6.87,.93-13.76,2-20.65,3.23C216.29,47.9,71.4,227.99,111.69,411.05c2.57,11.68,5.84,23.09,9.76,34.21l-.02,.02c73.73,208.9,61.42,389.32-36.94,541.22h.02Z" style="fill:#e0e8f5; fill-rule:evenodd;"/><path d="M334.05,1355.37c54.45,0,98.85-5.09,98.85-11.27s-44.39-11.27-98.85-11.27-98.87,5.09-98.87,11.27,44.41,11.27,98.87,11.27Z" style="fill:#c4d1eb; fill-rule:evenodd;"/><polygon points="673.01 1047.56 738.05 1047.56 738.05 992.8 803.09 992.8 803.09 938.05 868.14 938.05 868.14 883.29 933.18 883.29 933.18 828.58 998.22 828.58 998.22 773.82 1063.26 773.82 1063.26 719.06 1128.3 719.06 1128.3 664.32 1193.34 664.32 1193.34 609.57 1258.38 609.57 1258.38 554.81 1323.42 554.81 1323.42 500.08 1396.43 500.08 1396.43 1338.6 673.01 1338.6 673.01 1047.56" style="fill:#9db2d9; fill-rule:evenodd;"/><polygon points="422.18 1047.56 487.22 1047.56 487.22 992.8 552.28 992.8 552.28 938.05 617.33 938.05 617.33 883.29 682.37 883.29 682.37 828.58 747.41 828.58 747.41 773.82 812.45 773.82 812.45 719.06 877.49 719.06 877.49 664.32 942.53 664.32 942.53 609.57 1007.57 609.57 1007.57 554.81 1072.61 554.81 1072.61 500.08 1323.42 500.08 1323.42 554.81 1258.38 554.81 1258.38 609.57 1193.34 609.57 1193.34 664.32 1128.3 664.32 1128.3 719.06 1063.26 719.06 1063.26 773.82 998.22 773.82 998.22 828.58 933.18 828.58 933.18 883.29 868.14 883.29 868.14 938.05 803.09 938.05 803.09 992.8 738.05 992.8 738.05 1047.56 673.01 1047.56 673.01 1338.6 422.18 1338.6 422.18 1047.56" style="fill:#c4d1eb; fill-rule:evenodd;"/><path d="M1590.6,1338.6v-54.76h-65.06v-54.72h-65.02v-54.8h-65.02v-54.72h-65.06v-54.76h-65.04v-54.76h-65.04v-54.72h-65.04v-54.8h-73v438.01c175.93,0,813.35,0,528.29,0Z" style="fill:#c4d1eb; fill-rule:evenodd;"/><path d="M1841.39,1338.6v-54.76h-65.02v-54.72h-65.02v-54.8h-65.06v-54.72h-65.06v-54.76h-65.02v-54.76h-65.02v-54.72h-65.06v-54.8h-250.81v54.8h65.04v54.72h65.04v54.76h65.04v54.76h65.06v54.72h65.02v54.8h65.02v54.72h65.06v54.76h250.79Z" style="fill:#b0c2e4; fill-rule:evenodd;"/><g><path d="M855.37,1207.71c-.61-2.38-.47-4.93-.2-7.35,.08-.65,.75-1.13,1.39-1.05,3.35,.61,6.71,1.33,10.1,1.7,1.11,.08,2.65,.16,3.56-.08,.06,0,.24-.12,.34-.16,0,0,0-.04-.02-.08-.08-.24-.22-.49-.36-.69-2.59-3.84-7.37-5.42-10.18-9.09-1.48-1.9-2.48-4.61-2.77-6.99-.34-2.63,.51-5.05-.75-7.56-.46-.89,.48-1.7,1.31-1.62,4.65,.24,10.06-.24,14.27,2.18,3.72,2.14,5.07,6.14,6.1,10.02,.49,1.94,1.01,3.8,1.8,5.62,.42,1.01,1.25,2.75,2.55,2.59,1.37-.12,.91-2.38,.77-3.44-.3-2.26-.93-4.45-1.5-6.59-.95-3.6-2.26-9.17,.97-11.96,1.43-1.25,3.41-.65,4.79,.32,2.18,1.5,3.62,4.32,4.57,6.75,2.12,5.42-.45,11.07,.36,16.61,.2,1.29,1.21,5.21,3.11,4.89,.67-.08,1.25-1.05,1.54-1.58,.71-1.25,1.25-2.79,1.27-4.24,.06-5.5-3.56-10.34-3.23-15.92,.14-2.43,1.37-5.42,3.33-6.95,1.64-1.25,3.72-.81,5.29,.32,1.92,1.38,3.15,3.72,3.96,5.82,.95,2.51,1.27,5.13,.87,7.76-.79,5.25-4.14,10.02-2.24,15.4,.26,.77,.67,1.66,1.41,1.98,.59,.24,1.29-.32,1.7-.65,1.88-1.54,3.11-4.53,3.52-6.83,.5-2.79-.26-5.7-.65-8.49-.42-2.91-.38-5.78,.71-8.53,.77-2.02,2.42-3.96,4.77-3.8,2.14,.16,3.86,1.78,5.11,3.39,1.64,2.18,2.65,4.77,3.17,7.4,.53,2.83-.32,5.94-1.27,8.61-.99,2.75-2.32,5.33-3.21,8.12-.22,.77-.42,1.33-.87,1.98-.48,.69-1.05,1.33-1.37,2.1-.3,.65,.57,.77,1.11,.89,1.31,.33,2.38-1.13,3.17-1.98,.75-.81,1.62-1.5,2.3-2.3,.77-.97,1.35-2.1,1.98-3.19,1.21-2.14,2.46-4.45,4.55-5.86,1.98-1.46,4.73-1.38,6.83-.24,4.43,2.38,3.37,8.57,1.33,12.2-1.31,2.3-3.23,3.8-5.68,4.85-3.03,1.21-6.24,1.54-8.59,3.88,.89,.97,2,1.29,3.52,.97,2.04-.4,4-1.74,5.76-2.83,3.5-2.1,7.94-5.74,12.33-4.85,.52,.08,.97,.49,1.01,1.05,.24,2.51,.02,4.97-1.37,7.11-1.19,1.74-3.23,2.75-5.19,3.39-3.5,1.13-7.6,1.29-10.85,3.07,.97,.2,1.94-.08,3.11-.36,2.12-.53,4.1-.04,6.04,.85,2.93,1.37,4.95,4.36,2.65,7.27-1.23,1.62-3.29,2.59-5.13,3.31-2.1,.77-4.38,.93-6.61,.73-2.77-.32-5.4-1.29-7.86-2.67,2.83,6.18,3.62,15.36-4.4,17.13-6.89,1.54-4.04-7.64-4.61-12.61-.2,.73-.34,1.49-.48,2.18-.4,2.06-.69,4.12-1.27,6.1-1.05,3.72-3.66,6.83-7.9,6.18-3.64-.48-2.42-4.44-1.52-6.71,.73-1.86,2.46-5.09,1.82-7.35-2.53,4.04-5.33,8.53-10,10.02-2.14,.73-5.39,.97-7.37-.28-1.6-1.05-.85-3.11-.04-4.32,2.18-3.47,6.02-5.41,8.43-8.73,.57-.77,1.11-1.58,1.52-2.46,.16-.32,.3-.69,.4-1.01,.02-.16,.02-.32,.02-.4-.04-.04-.12-.08-.22-.08-.55,.04-1.09,.24-1.6,.4-1.19,.41-2.18,.97-3.05,1.86-1.64,1.7-2.87,3.76-4.65,5.33-2,1.78-4.51,2.5-7.15,2.67-2.32,.16-5.01-.04-7.01-1.29-2.1-1.37-2.48-3.55-1.8-5.82,1.96-6.3,9.19-5.17,14.19-6.83,1.31-.45,2.57-1.21,3.7-1.98,.46-.32,1.88-1.25,1.88-1.94,0-.41-1.98-.61-2.34-.65-1.68-.2-3.15,.08-4.71,.73-3.92,1.54-7.19,4.69-11.6,4.89-2.89,.12-6.73-.97-7.66-4.08-.99-3.31,2.32-6.26,5.15-7.19,3.56-1.17,7.8,.16,10.91-2.18-1.21-1.33-2.91-1.78-4.89-1.86-2.91,0-5.8,.57-8.67,.97-2.73,.36-5.64,.65-8.34-.12-2.75-.85-4.45-3.03-5.13-5.78Z" style="fill:#9db2d9; fill-rule:evenodd;"/><g><path d="M1080.94,1350.52c-96.42,0-174.6,4.77-174.6,10.59s78.17,10.59,174.6,10.59,174.59-4.73,174.59-10.59-78.17-10.59-174.59-10.59Z" style="fill:#c4d1eb; fill-rule:evenodd;"/><path d="M1155.64,1071.08c-4.04-4.69-4.08-11.43-.1-20.16,4.12,2.1,5.54,5.25,7.76,9.5,24.33-7.8,18.19-32.37,8.06-32.65,24.75-4.69,39.7-2.02,51,11.11,3.8,12.12-.73,40.65-3.64,51.4-3.09,12.37-7.27,19.32-4.44,37.91-13.13,9.46-16.83,19.32-51.75,8.81,.79-10.71,3.43-13.34,3.29-38.88,.89-8.41-5.7-18.35-10.18-27.04Z" style="fill:#6d96ce; fill-rule:evenodd;"/><path d="M1162.53,1136.99c23.92,2.34,34.79-3.4,51.75-8.81,22.31,33.1,3.07,50.15,12.67,93.59-15.82,15.84-39.46,18.67-70.92,8.41-.75-25.62,1.92-63.36,6.51-93.19Z" style="fill:#20386f; fill-rule:evenodd;"/><path d="M1214.05,1230.98c.34,5.13,.42,9.7,1.11,12.89,7.78,20.85,1.54,41.3-.32,99.61,.28,.73,.57,1.42,.89,2.1-3.9,1.7-3.41,5.5-5.74,6.3-10.85,3.92-6.34-2.99-8.12-4.93,.46-1.21,.91-2.34,1.27-3.51-.3-53.75-9.07-80.38-9.09-97.11-.1-2.51-.79-7.84-1.01-10.22h.06c7.78-.4,14.75-2.14,20.95-5.13Z" style="fill:#f9af79; fill-rule:evenodd;"/><path d="M1220.7,1356.1c-2.42-5.78-1.27-11.03-3.88-10.91-5.09,1.46-4.3,5.82-6.83,6.71-12.29,4.45-4.89-5.01-9.23-5.41-9.5,3.96-14.24-.73-15.38,6.47,.85,1.78,7.17,8.57,29.03,9.86,4.93-1.94,7.03-4.2,6.28-6.71Z" style="fill:#1b2452; fill-rule:evenodd;"/><path d="M1188.39,1236.24c-.61,5.94-1.35,10.55-1.86,14.06,8.87,18.02-.4,41.34-4.97,99.49,.22,.73,.5,1.45,.79,2.14-3.98,1.54-3.68,5.29-6.04,6.02-11.01,3.4-6.2-3.27-7.9-5.29,.55-1.17,1.03-2.34,1.45-3.44-.77-55.4-2.04-88.82-3.84-100.3,.04-5.34-.63-10.95-1.25-16.16,8.51,2.18,16.37,3.31,23.62,3.47Z" style="fill:#f9af79; fill-rule:evenodd;"/><path d="M1188.83,1362.8c-2.18-5.9-2.77-11.23-5.39-11.23-5.15,1.21-4.57,5.62-7.13,6.38-12.49,3.88-4.65-5.25-8.97-5.82-13.42,4.69-22.77,1.86-22.79,8.89,2.79,4.36,15.36,7.03,37.68,8.12,5.01-1.7,7.21-3.84,6.61-6.34Z" style="fill:#1b2452; fill-rule:evenodd;"/><path d="M1163.3,1060.41c24.33-7.8,18.19-32.37,8.06-32.65-9.84-1.25-12.14-.44-27.14-2.14-5.46,5.98-5.7,13.5-.79,22.59,14.77,1.25,16.21,5.29,19.86,12.21Z" style="fill:#466fb5; fill-rule:evenodd;"/><path d="M1142.1,1028.45c-6.18,.24-13.19-.08-21.09-.97-6.18-5.45-23.03-16.69-50.49-33.7-6.32-9.66-12.79-15.88-21.01-19.72-2,.85-.81,2.22,5.72,8.49-4.36,9.38-.79,14.87,10.79,15.11,25.86,24.08,42.37,38.23,49.5,42.51,9.78,3.23,18.59,4.93,26.47,5.01-2.77-6.39-2.73-11.96,.12-16.73Z" style="fill:#f9af79; fill-rule:evenodd;"/><path d="M1216.96,1096.58c9.42-1.46,12.39-5.66,11.56-19.32-1.78,.69-4.69,1.54-7.46,2.06-.79,4.4-1.62,8.2-2.34,10.95-.32,1.21-1.43,5.17-1.76,6.3Z" style="fill:#f9af79; fill-rule:evenodd;"/><path d="M1221.06,1079.32c2.77-.52,5.05-1.09,6.83-1.82,.44-.16,.87-.36,1.25-.57,1.31-19.28-.95-31.96-6.79-38.07,2.85,9.09,1.01,27.32-1.29,40.45Z" style="fill:#466fb5; fill-rule:evenodd;"/><path d="M1193.5,1017.05c12.69,.69,18.93-6.35,18.69-21.09,.4-1.5,.67-2.91,.79-4.28,.77-8.24-3.39-14.1-12.49-17.58-21.24-7.35-30.37-4.16-27.4,6.71,2,4.48,5.03,7.84,9.11,10.14-1.19,2.1-1.58,4.49-1.15,7.11-.04,.73,.18,1.7,.67,2.99,.65-5.33,2.4-8.65,5.25-10.1,1.88,3.31,1.31,7.6-1.72,12.85-1.29,7.68,1.43,12.04,8.24,13.25Z" style="fill:#20386f; fill-rule:evenodd;"/><path d="M1219.36,1014.34c2.71-.48,3.13,3.84,3.88,5.46,2.04-7.64,.26-16-3.19-18.83,1.11,.12,2.28,.73,3.56,1.78,.46-8.65-9.78-11.11-12.47-11.4-1.37-.16-2.34,.65-2.97,2.3-3.88,11.23-1.84,21.05,6.12,29.34-1.5-2.22-2.08-4.81-1.72-7.8,2.73,8.69,7.62,10.75,14.67,6.22-5.82,1.78-6.87-.97-7.88-7.07Z" style="fill:#20386f; fill-rule:evenodd;"/><path d="M1210.94,991.35c-.95-1.37-2.38-2.46-4.4-2.1-3.17,.97-3.62,5.21-1.31,6.55,.65,.49,1.39,.65,2.1,.69,.24-.93,.53-1.9,.85-2.83,.59-1.58,1.51-2.38,2.77-2.3Z" style="fill:#6d96ce; fill-rule:evenodd;"/><path d="M1202.03,1026.67c-1.03-3.23-.87-6.79,.52-10.83-2.53,.97-5.54,1.37-9.05,1.21-6.81-1.21-9.54-5.58-8.24-13.25,3.03-5.25,3.6-9.54,1.72-12.85-2.85,1.46-4.61,4.77-5.25,10.1-.48-1.29-.71-2.26-.67-2.99-.42-2.63-.04-5.01,1.15-7.11-2.48-1.37-4.61-3.23-6.3-5.42-2.73,2.83-3.66,5.86-2.77,9.05-3.42,5.01-4.4,9.42-2.97,13.25-.24,4.04,.08,6.83,.97,8.32,1.37,2.47,8.53,1.29,11.01,1.17,1.05,2.63,1.23,5.54,.59,8.73,7.35-.77,13.72-.61,19.3,.61Z" style="fill:#f9af79; fill-rule:evenodd;"/><path d="M1130.7,1088.58l-.04,5.09,6.91,5.5c-.14-1.62,.18-3.11,.99-4.36l-7.86-6.22h0Zm16.77,18.51l11.17,8.93,6.63,.12c.14-1.7,.26-3.56,.34-5.66l-7.17,.08-10.63-8.41c-.02,.32-.08,.69-.14,1.05-.46,1.9-.51,3.23-.2,3.88Z" style="fill:#859ac6; fill-rule:evenodd;"/><path d="M1130.7,1088.58l7.86,6.22c.12-.2,.26-.41,.44-.57,1.15-1.25,3.01,.24,6.69,2.91,1.58,1.37,2.28,3.07,2.12,5.01l10.63,8.41,7.17-.08c.08-2.1,.14-4.53,.18-7.19l-9.29,.24-14.63-11.07h23.56c-.26-1.29-.67-2.59-1.11-3.88h-33.62Z" style="fill:#9db2d9; fill-rule:evenodd;"/><path d="M1141.88,1092.46l14.63,11.07,9.29-.24c.02-1.62,.02-3.31,.02-5.17,.18-1.82,.02-3.72-.38-5.66h-23.56Z" style="fill:#859ac6; fill-rule:evenodd;"/><path d="M1130.7,1088.58h33.62c-.44-1.21-.95-2.46-1.5-3.72l-29.06-.08-2.69-31.08h23.3c.32-.93,.73-1.82,1.15-2.79-.16-.08-.32-.16-.48-.24l-27.74-.16,3.39,38.07Z" style="fill:#b0c2e4; fill-rule:evenodd;"/><path d="M1133.78,1084.78l29.06,.08c-2.12-4.69-4.93-9.38-7.19-13.78-3.6-4.16-4.02-9.98-1.25-17.38h-23.3l2.69,31.08Z" style="fill:#fff; fill-rule:evenodd;"/><path d="M1147.47,1107.08c-3.76,2.1-6.93,.16-9.54-5.82-.79-2.87-.42-5.21,1.07-7.03,1.15-1.25,3.01,.24,6.69,2.91,1.84,1.66,2.51,3.64,1.98,6.06-.46,1.9-.51,3.23-.2,3.88Z" style="fill:#f9af79; fill-rule:evenodd;"/><path d="M1203.85,1011.39c-.26-4.69,.42-9.78,2.06-15.24,.46,.2,.95,.28,1.41,.32-1.5,5.7-1.39,11.03,.3,15.88-1.37,1.54-3.07,2.71-5.07,3.48-2.53,.97-5.54,1.37-9.05,1.21-4.44-.81-7.17-2.91-8.14-6.47,4.67,5.98,10.85,6.26,18.49,.81Z" style="fill:#0e2952; fill-rule:evenodd;"/><path d="M885.21,1274.95c-.04,2.1-.16,3.8-.32,5.01,.16-1.21,.28-2.91,.32-5.01Z" style="fill:#ecebe8; fill-rule:evenodd;"/><path d="M948.11,1122.12c1.52-1.94,3.6-3.4,5.68-4.73,.54-.36,1.35-.12,1.66,.45,1.62,3.03,3.11,6.1,4.95,8.97,.61,.97,1.48,2.22,2.26,2.75,.04,.08,.24,.16,.32,.2t.04-.04c.14-.24,.24-.48,.32-.73,1.43-4.44-.3-9.13,.83-13.62,.61-2.34,2.1-4.81,3.8-6.51,1.84-1.86,4.3-2.75,5.46-5.25,.16-.4,.48-.57,.83-.61h.22c.4,.04,.83,.28,1.07,.61,2.65,3.8,6.38,7.76,7.07,12.53,.65,4.28-1.66,7.84-4.1,11.03-1.17,1.58-2.36,3.15-3.27,4.89-.51,.97-1.37,2.67-.46,3.64,.97,.97,2.44-.81,3.21-1.62,1.56-1.58,2.87-3.39,4.22-5.17,2.22-2.99,5.78-7.48,10-6.63,1.84,.32,2.59,2.26,2.71,3.92,.14,2.63-1.15,5.54-2.46,7.72-2.97,5.09-8.97,6.55-12.85,10.63-.87,.93-3.31,4.16-1.92,5.46,.48,.48,1.64,.32,2.2,.24,1.41-.24,2.97-.73,4.12-1.62,4.34-3.4,5.92-9.21,10.49-12.41,2-1.41,5.09-2.22,7.5-1.66,2.04,.49,2.99,2.38,3.09,4.32,.1,2.34-.97,4.77-2.16,6.75-1.35,2.26-3.23,4.12-5.54,5.46-4.61,2.63-10.43,2.95-13.5,7.76-.42,.69-.87,1.54-.67,2.3,.14,.65,1.05,.85,1.58,.97,2.34,.48,5.46-.36,7.52-1.46,2.51-1.33,4.34-3.76,6.26-5.78,2.02-2.14,4.28-3.84,7.13-4.73,2.08-.65,4.61-.52,5.94,1.38,1.23,1.82,.97,4.2,.46,6.14-.65,2.63-2.06,5.01-3.82,7.07-1.88,2.18-4.85,3.43-7.52,4.32-2.79,.89-5.66,1.46-8.41,2.51-.71,.28-1.27,.48-2.06,.52-.85,.04-1.72,.04-2.55,.24-.69,.2-.22,.93,0,1.42,.59,1.21,2.4,1.17,3.54,1.29,1.09,.08,2.16,.32,3.25,.32,1.23,.04,2.48-.2,3.72-.4,2.45-.36,5.01-.81,7.42-.08,2.34,.73,3.98,2.91,4.4,5.25,.87,4.97-4.65,8-8.75,8.61-2.63,.44-5.01-.16-7.31-1.5-2.85-1.62-5.09-3.88-8.39-4.28-.2,1.29,.26,2.34,1.43,3.31,1.62,1.37,3.82,2.1,5.78,2.83,3.8,1.41,9.4,2.67,11.46,6.63,.24,.48,.2,1.09-.22,1.46-1.8,1.78-3.9,3.11-6.43,3.31-2.12,.16-4.18-.81-5.9-1.94-3.05-2.02-5.7-5.17-9.15-6.63,.49,.89,1.27,1.45,2.24,2.18,1.72,1.37,2.61,3.23,3.07,5.29,.73,3.19-.36,6.59-4.08,6.59-2.02,0-4.06-.97-5.74-2.02-1.94-1.13-3.5-2.83-4.69-4.73-1.47-2.3-2.32-5.05-2.77-7.8-3.11,6.06-9.84,12.37-16.2,7.11-5.44-4.44,3.52-7.84,7.05-11.4-.69,.33-1.37,.65-2.02,.97-1.84,.97-3.64,2.02-5.56,2.79-3.58,1.45-7.6,1.33-9.76-2.39-1.84-3.15,1.98-4.65,4.34-5.33,1.92-.61,5.54-1.21,6.93-3.15-4.77,.53-10.02,1.13-14.12-1.62-1.86-1.25-4.08-3.64-4.3-5.98-.18-1.94,1.9-2.59,3.37-2.75,4.04-.4,7.98,1.37,12.04,1.29,.97-.04,1.94-.16,2.89-.36,.36-.08,.73-.2,1.05-.32,.12-.04,.26-.2,.34-.24-.02-.04-.04-.12-.1-.2-.36-.4-.83-.73-1.29-1.05-1.03-.65-2.12-1.05-3.38-1.21-2.34-.24-4.71,.08-7.05-.32-2.65-.48-4.79-2.02-6.53-3.96-1.56-1.78-3.05-3.96-3.29-6.38-.26-2.42,1.23-4.12,3.44-4.93,6.16-2.34,9.76,3.96,14.14,6.87,1.15,.77,2.55,1.29,3.88,1.7,.53,.16,2.12,.69,2.65,.24,.3-.24-.73-1.9-.93-2.22-.89-1.42-2-2.43-3.45-3.27-3.68-2.1-8.16-2.75-11.05-6.06-1.9-2.18-3.39-5.9-1.54-8.53,1.98-2.79,6.36-2.06,8.83-.44,3.13,2.1,4.71,6.26,8.45,7.27,.34-1.78-.36-3.39-1.56-5.01-1.76-2.3-4-4.2-6.1-6.22-1.98-1.9-4.02-4-5.05-6.63-1.07-2.67-.4-5.33,1.33-7.6Z" style="fill:#9db2d9; fill-rule:evenodd;"/><path d="M1020.18,1140.75c2.3-.93,4.85-1.09,7.29-1.13,.67-.04,1.23,.61,1.21,1.25-.18,3.39-.48,6.79-.36,10.22,.02,1.09,.12,2.63,.48,3.52,.04,.08,.14,.24,.2,.32h.06c.24-.16,.44-.32,.65-.48,3.52-3.07,4.45-8,7.72-11.24,1.72-1.7,4.26-3.07,6.61-3.64,2.55-.65,5.09-.16,7.39-1.7,.83-.57,1.74,.24,1.8,1.09,.3,4.65,1.47,9.94-.38,14.43-1.64,3.96-5.44,5.82-9.17,7.31-1.84,.73-3.64,1.5-5.33,2.51-.91,.52-2.57,1.58-2.26,2.87,.34,1.33,2.49,.57,3.56,.32,2.16-.61,4.24-1.54,6.32-2.34,3.44-1.37,8.77-3.39,11.96-.57,1.41,1.29,1.07,3.31,.3,4.81-1.23,2.39-3.82,4.16-6.08,5.37-5.15,2.83-11.05,.97-16.49,2.51-1.23,.32-4.97,1.86-4.47,3.72,.2,.61,1.23,1.05,1.78,1.29,1.33,.57,2.93,.89,4.36,.73,5.46-.65,9.82-4.85,15.38-5.25,2.44-.16,5.52,.73,7.29,2.43,1.5,1.49,1.31,3.64,.4,5.33-1.11,2.06-3.27,3.6-5.29,4.65-2.34,1.25-4.93,1.9-7.58,1.86-5.29-.12-10.47-2.87-15.56-.28-.71,.32-1.54,.85-1.78,1.62-.18,.65,.46,1.29,.85,1.62,1.76,1.7,4.87,2.5,7.21,2.67,2.85,.12,5.66-1.01,8.32-1.78,2.85-.77,5.68-1.05,8.57-.36,2.1,.52,4.22,1.9,4.36,4.24,.14,2.18-1.29,4.08-2.73,5.5-1.92,1.94-4.38,3.23-6.93,4.12-2.73,.89-5.92,.4-8.67-.16-2.85-.65-5.62-1.66-8.49-2.18-.77-.12-1.35-.24-2.06-.65-.75-.36-1.47-.81-2.28-1.05-.69-.24-.67,.65-.73,1.21-.14,1.33,1.43,2.22,2.36,2.91,.89,.65,1.68,1.38,2.61,1.94,1.05,.65,2.26,1.13,3.39,1.62,2.28,.89,4.71,1.86,6.41,3.72,1.64,1.82,1.92,4.53,1.05,6.79-1.78,4.69-8.06,4.44-11.9,2.83-2.47-.97-4.22-2.71-5.52-5.01-1.62-2.83-2.34-5.98-4.95-8-.85,.97-.99,2.14-.51,3.56,.69,2.02,2.2,3.8,3.5,5.41,2.57,3.15,6.69,7.15,6.4,11.6-.02,.53-.38,1.01-.91,1.13-2.46,.56-4.95,.65-7.23-.49-1.9-.93-3.17-2.87-4.04-4.73-1.6-3.31-2.22-7.35-4.45-10.34-.04,.97,.34,1.9,.79,3.03,.79,2.06,.59,4.08-.08,6.1-1.01,3.07-3.7,5.46-6.89,3.56-1.76-1.01-2.95-2.91-3.9-4.69-1.05-1.98-1.52-4.2-1.58-6.47-.06-2.75,.61-5.5,1.64-8.12-5.76,3.6-14.79,5.54-17.56-2.22-2.34-6.63,7.09-4.93,11.92-6.14-.75-.12-1.51-.16-2.24-.2-2.06-.12-4.14-.16-6.18-.49-3.82-.61-7.21-2.79-7.15-7.07,.06-3.64,4.1-2.95,6.49-2.34,1.96,.48,5.35,1.78,7.56,.89-4.34-2.02-9.17-4.2-11.27-8.65-.95-2.06-1.62-5.25-.61-7.36,.83-1.74,2.95-1.25,4.3-.61,3.66,1.74,6.12,5.29,9.68,7.27,.83,.44,1.72,.85,2.65,1.17,.34,.12,.71,.24,1.07,.24,.14,.04,.3,0,.4,0,.02-.08,.04-.16,0-.24-.08-.52-.32-1.05-.54-1.54-.55-1.13-1.27-2.02-2.26-2.75-1.9-1.45-4.06-2.42-5.88-3.96-2.02-1.74-3.07-4.16-3.56-6.75-.44-2.3-.59-4.97,.44-7.15,1.05-2.26,3.19-2.91,5.5-2.5,6.49,1.17,6.3,8.49,8.59,13.17,.61,1.29,1.54,2.42,2.47,3.47,.38,.4,1.46,1.7,2.12,1.62,.4-.08,.36-2.02,.36-2.43-.04-1.7-.48-3.11-1.29-4.57-2.08-3.68-5.58-6.59-6.34-10.87-.51-2.87,.1-6.79,3.07-8.16,3.13-1.38,6.51,1.54,7.8,4.2,1.6,3.4,.81,7.76,3.52,10.59,1.19-1.37,1.43-3.15,1.21-5.09-.3-2.91-1.25-5.7-2-8.49-.75-2.67-1.41-5.5-.97-8.28,.49-2.83,2.44-4.81,5.07-5.82Z" style="fill:#9db2d9; fill-rule:evenodd;"/><path d="M902.12,1174.25c.32-2.46,1.37-4.77,2.53-6.95,.3-.57,1.11-.81,1.66-.45,2.91,1.82,5.76,3.72,8.79,5.29,1.01,.49,2.38,1.13,3.31,1.21,.08,.04,.28,0,.4,0v-.04c.02-.28-.04-.53-.08-.81-.99-4.53-4.87-7.76-6.12-12.16-.65-2.34-.61-5.25,.02-7.56,.65-2.55,2.34-4.53,2.08-7.31-.1-.97,1.09-1.37,1.84-1.05,4.22,2.02,9.42,3.56,12.43,7.35,2.67,3.31,2.46,7.56,1.98,11.56-.26,1.94-.46,3.92-.4,5.86,.06,1.09,.16,3.03,1.43,3.36,1.31,.4,1.7-1.86,1.98-2.91,.53-2.18,.75-4.45,1.03-6.67,.44-3.68,1.27-9.33,5.31-10.75,1.78-.61,3.42,.65,4.32,2.06,1.47,2.18,1.78,5.34,1.78,7.92-.04,5.86-4.51,10.14-5.8,15.6-.3,1.29-.81,5.25,1.07,5.74,.67,.12,1.56-.57,2.02-.93,1.11-.93,2.2-2.14,2.75-3.48,2.08-5.09,.53-10.95,2.87-15.96,1.03-2.26,3.27-4.53,5.64-5.25,2-.56,3.78,.61,4.85,2.22,1.25,1.98,1.56,4.61,1.49,6.91-.02,2.67-.71,5.25-2.04,7.52-2.67,4.57-7.54,7.76-7.76,13.5-.04,.77,0,1.74,.59,2.34,.44,.44,1.31,.16,1.82,0,2.3-.73,4.55-3.03,5.78-5.01,1.5-2.42,1.88-5.41,2.53-8.16,.69-2.83,1.76-5.5,3.8-7.64,1.48-1.58,3.72-2.79,5.84-1.78,1.94,.93,2.93,3.11,3.48,5.05,.75,2.59,.73,5.41,.24,8-.54,2.87-2.48,5.41-4.36,7.52-1.92,2.18-4.14,4.12-5.98,6.42-.48,.61-.87,1.05-1.54,1.5-.69,.49-1.45,.89-2.06,1.45-.52,.53,.24,.93,.71,1.25,1.11,.77,2.65-.2,3.68-.69,.99-.48,2.06-.77,2.99-1.29,1.09-.65,2.06-1.46,3.03-2.26,1.92-1.54,3.94-3.19,6.39-3.76,2.36-.57,4.89,.52,6.45,2.34,3.23,3.84-.04,9.17-3.27,11.8-2.08,1.66-4.42,2.39-7.07,2.39-3.27,.08-6.37-.81-9.42,.48,.46,1.21,1.41,1.9,2.91,2.18,2.08,.32,4.36-.12,6.4-.48,4.02-.69,9.5-2.43,13.25,0,.45,.28,.71,.81,.55,1.37-.69,2.43-1.82,4.61-3.92,6.06-1.74,1.21-4.02,1.41-6.06,1.29-3.68-.24-7.56-1.62-11.25-1.13,.87,.49,1.86,.65,3.05,.81,2.16,.24,3.86,1.45,5.31,2.99,2.2,2.34,2.97,5.9-.22,7.76-1.76,1.05-4.02,1.17-5.98,1.13-2.26-.04-4.44-.73-6.43-1.78-2.46-1.25-4.53-3.15-6.32-5.34,.34,6.79-2.32,15.6-10.43,14.31-6.93-1.13-.93-8.57,.36-13.42-.46,.61-.87,1.25-1.25,1.86-1.11,1.78-2.14,3.55-3.41,5.17-2.36,3.07-5.92,4.97-9.64,2.87-3.19-1.82-.61-5.05,1.07-6.83,1.37-1.45,4.16-3.8,4.42-6.18-3.86,2.83-8.12,5.98-13.03,5.66-2.22-.12-5.35-1.09-6.73-2.99-1.11-1.58,.34-3.19,1.56-4.08,3.29-2.34,7.6-2.79,11.03-4.93,.85-.48,1.64-1.09,2.34-1.78,.26-.24,.52-.48,.75-.81,.08-.08,.14-.24,.18-.32-.04-.08-.1-.08-.2-.16-.53-.16-1.07-.2-1.64-.24-1.23-.08-2.38,.16-3.52,.65-2.16,.97-4.04,2.42-6.28,3.23-2.51,.93-5.13,.69-7.64-.16-2.22-.73-4.63-1.86-6.02-3.8-1.48-2.02-1.01-4.2,.46-6.06,4.14-5.09,10.45-1.41,15.7-1.13,1.39,.08,2.83-.16,4.18-.48,.55-.16,2.2-.49,2.44-1.09,.14-.36-1.6-1.29-1.94-1.49-1.48-.77-2.95-1.05-4.63-1.05-4.24,0-8.43,1.7-12.59,.28-2.75-.93-5.88-3.39-5.62-6.59,.3-3.48,4.47-5.01,7.44-4.85,3.74,.24,7.19,3.07,10.93,2.06-.61-1.7-2.02-2.79-3.86-3.52-2.67-1.13-5.58-1.66-8.39-2.34-2.69-.65-5.5-1.45-7.7-3.19-2.26-1.78-3.03-4.44-2.65-7.23Z" style="fill:#b0c2e4; fill-rule:evenodd;"/><path d="M920.06,1150.73c1.41,6.1,2.65,12.29,4.38,18.31,1.82,6.18,4.38,11.92,7.92,17.33,7.29,11.11,16.61,20.77,24.12,31.76,.3,.44,.24,.89,0,1.21,1.46,2.75,2.3,5.9,2.89,8.85,1.07,5.21,1.37,10.51,1.6,15.8,.26,6.46,.2,12.85-.1,19.32-.34,7.56-.85,15.15-.52,22.71,0,.48,.04,.89,.06,1.38,.08,1.54-2.34,1.54-2.42,0-.42-7.44,0-14.87,.36-22.23,.34-6.63,.46-13.17,.24-19.8-.18-5.09-.44-10.22-1.31-15.28-.79-4.57-2.06-9.78-5.52-13.09-.49-.48-.44-1.09-.14-1.54-7.03-9.54-15.09-18.35-21.6-28.25-3.47-5.33-5.96-11.07-7.8-17.17-1.84-6.14-3.05-12.45-4.51-18.67-.34-1.54,2-2.18,2.34-.65Z" style="fill:#b0c2e4; fill-rule:evenodd;"/><path d="M959.81,1287.72c1.31-11.8,6.77-22.43,12.41-32.73,5.6-10.18,11.5-20.53,13.21-32.25,.22-1.54,2.57-.89,2.34,.65-3.41,23.36-22.89,40.82-25.54,64.34-.16,1.54-2.61,1.58-2.42,0Z" style="fill:#b0c2e4; fill-rule:evenodd;"/><path d="M924,1232.24c10.43,4.57,20.63,11.52,27.64,20.57,3.8,4.97,6.06,10.59,7.46,16.49,.53-6.14,1.66-12.24,2.83-18.31,2.75-14.1,4.87-28.29,6.2-42.63,.53-5.66,.91-11.4,1.17-17.05,.08-1.58,2.51-1.62,2.42,0-.71,15.84-2.53,31.56-4.99,47.2-1.66,10.59-4.49,21.05-5.27,31.76,.91-5.82,2.28-11.48,4.06-17.05,2.55-7.96,5.96-15.68,10.41-22.79-.04-.32,.06-.65,.3-.89,.3-.33,.61-.69,.93-1.01,1.09-1.66,2.24-3.27,3.45-4.85,.55-.69,1.33-.44,1.74,.12,1.86-1.45,3.84-2.71,6-3.8,5.01-2.59,11.23-4.28,13.64-9.94,.61-1.46,2.69-.2,2.1,1.21-2.38,5.66-8.2,7.76-13.3,10.18-4.57,2.26-8.43,5.09-11.86,8.73-4.87,7.43-8.51,15.6-11.19,24.04-3.25,10.22-5.13,20.97-5.13,31.68,0,.04-.02,.12-.02,.16,.16,.81-.46,1.33-1.13,1.37-.32,1.09-2.28,.93-2.38-.45-.89-11.52-2.22-23.6-9.58-32.97-6.81-8.69-16.69-15.28-26.73-19.64-1.41-.65-.2-2.75,1.23-2.14Z" style="fill:#9db2d9; fill-rule:evenodd;"/><path d="M996.88,1150.45c2.2-1.09,4.73-1.58,7.15-1.82,.65-.08,1.29,.48,1.31,1.13,.16,3.4,.2,6.79,.63,10.18,.14,1.13,.38,2.67,.85,3.47,.02,.04,.16,.24,.22,.32,.02-.04,.04-.04,.06-.08,.24-.12,.4-.32,.61-.48,3.19-3.39,3.64-8.41,6.59-11.96,1.54-1.86,3.94-3.4,6.22-4.24,2.46-.89,5.07-.61,7.17-2.38,.79-.65,1.78,.08,1.92,.89,.77,4.61,2.42,9.78,1.01,14.39-1.25,4.12-4.85,6.3-8.45,8.16-1.74,.93-3.48,1.86-5.05,3.03-.87,.65-2.38,1.82-1.96,3.07,.44,1.29,2.53,.36,3.56-.04,2.1-.81,4.08-1.86,6.06-2.91,3.29-1.7,8.43-4.24,11.88-1.7,1.52,1.13,1.37,3.19,.75,4.73-1.01,2.46-3.39,4.49-5.54,5.94-4.85,3.31-10.91,2.02-16.16,4.08-1.19,.44-4.79,2.3-4.08,4.08,.24,.65,1.33,.97,1.9,1.17,1.37,.4,2.99,.61,4.4,.28,5.38-1.13,9.31-5.74,14.79-6.67,2.42-.44,5.58,.12,7.5,1.7,1.64,1.33,1.68,3.43,.93,5.25-.93,2.14-2.93,3.88-4.83,5.13-2.22,1.45-4.73,2.38-7.38,2.59-5.27,.4-10.67-1.82-15.52,1.21-.67,.4-1.43,.97-1.6,1.82-.12,.61,.59,1.17,1.01,1.5,1.92,1.49,5.09,2.02,7.44,1.94,2.83-.12,5.52-1.54,8.12-2.55,2.75-1.01,5.54-1.66,8.47-1.17,2.16,.32,4.38,1.46,4.77,3.8,.34,2.1-.91,4.2-2.2,5.74-1.72,2.1-4.02,3.64-6.47,4.73-2.65,1.17-5.86,1.01-8.67,.69-2.89-.36-5.74-1.09-8.65-1.37-.79-.04-1.37-.08-2.1-.4-.81-.32-1.56-.69-2.4-.85-.71-.16-.61,.69-.61,1.25-.02,1.37,1.66,2.1,2.65,2.67,.95,.57,1.8,1.29,2.77,1.74,1.13,.53,2.36,.85,3.54,1.25,2.36,.69,4.89,1.37,6.75,3.07,1.8,1.7,2.34,4.37,1.7,6.63-1.31,4.85-7.6,5.25-11.58,4.04-2.55-.81-4.45-2.34-5.98-4.49-1.86-2.67-2.89-5.74-5.7-7.52-.75,1.09-.79,2.22-.14,3.64,.87,1.94,2.55,3.52,4,5.05,2.85,2.91,7.36,6.47,7.5,10.91,.04,.53-.28,1.05-.81,1.21-2.38,.81-4.85,1.13-7.23,.2-2-.77-3.41-2.55-4.49-4.28-1.9-3.15-2.93-7.15-5.41-9.9,.04,.97,.53,1.86,1.07,2.99,.97,1.9,.97,3.96,.51,6.06-.71,3.15-3.15,5.78-6.53,4.2-1.82-.89-3.23-2.67-4.3-4.28-1.25-1.9-1.94-4.08-2.2-6.31-.34-2.75,.06-5.54,.85-8.24-5.39,4.12-14.2,6.95-17.7-.48-2.99-6.38,6.57-5.66,11.25-7.27-.75-.08-1.5,0-2.22,0-2.08,.08-4.14,.24-6.22,.12-3.86-.2-7.44-2.06-7.8-6.34-.28-3.68,3.82-3.36,6.24-2.99,1.98,.32,5.5,1.29,7.6,.16-4.53-1.58-9.52-3.31-12.04-7.56-1.15-1.9-2.12-5.05-1.33-7.23,.67-1.78,2.81-1.54,4.2-1.01,3.84,1.38,6.63,4.65,10.35,6.3,.91,.36,1.82,.69,2.77,.93,.34,.08,.73,.16,1.09,.16,.14,0,.3-.04,.4-.08,0-.08,0-.12-.02-.24-.14-.49-.42-.97-.71-1.46-.65-1.05-1.46-1.9-2.53-2.55-2.02-1.25-4.26-1.98-6.22-3.35-2.18-1.54-3.48-3.88-4.2-6.38-.65-2.26-1.03-4.89-.24-7.15,.83-2.3,2.91-3.19,5.25-3.03,6.57,.57,7.09,7.84,9.82,12.29,.73,1.21,1.76,2.26,2.77,3.23,.42,.36,1.62,1.54,2.26,1.37,.38-.08,.16-2.06,.14-2.42-.2-1.7-.79-3.07-1.74-4.45-2.4-3.48-6.18-5.98-7.35-10.18-.79-2.83-.55-6.79,2.26-8.41,2.99-1.7,6.63,.89,8.16,3.43,1.92,3.19,1.56,7.64,4.53,10.14,1.05-1.46,1.13-3.23,.73-5.17-.59-2.83-1.82-5.5-2.83-8.24-.99-2.59-1.94-5.34-1.76-8.16,.2-2.83,1.98-5.01,4.49-6.26Z" style="fill:#e0e8f5; fill-rule:evenodd;"/><polygon points="932.17 1359.33 984.68 1359.33 1001.85 1291.4 916.16 1291.4 932.17 1359.33" style="fill:#b0c2e4; fill-rule:evenodd;"/><rect x="911.62" y="1282.55" width="95.98" height="8.85" style="fill:#9db2d9;"/><polygon points="959.02 1291.4 1001.85 1291.4 984.68 1359.33 959.02 1359.33 959.02 1291.4" style="fill:#9db2d9; fill-rule:evenodd;"/><rect x="959.02" y="1282.55" width="48.57" height="8.85" style="fill:#859ac6;"/><polygon points="932.17 1360.3 984.68 1360.3 1001.85 1351.17 916.16 1351.17 932.17 1360.3" style="fill:#9db2d9; fill-rule:evenodd;"/><polygon points="959.02 1351.17 1001.85 1351.17 984.68 1360.3 959.02 1360.3 959.02 1351.17" style="fill:#859ac6; fill-rule:evenodd;"/></g></g><g><path d="M930.31,1358.16c102.08,0,184.86,5.17,184.86,11.56s-82.78,11.56-184.86,11.56-184.86-5.17-184.86-11.56,82.76-11.56,184.86-11.56Z" style="fill:#c4d1eb; fill-rule:evenodd;"/><path d="M981.63,823.72c-5.17-1.45-5.29-.53-5.94-.73-.79-.24-7.11-8.65-7.11-8.65,0,0-18.81-24.53-19.76-25.9l-6.18-31.95-17.58,.02s7.7,34.51,8.43,36.21c.73,1.72,30.45,31.64,32.98,34.35,0,0,1.66,4.49,2.79,7.23,1.13,2.75,3.54,4.77,3.98,5.41,.06,.16,1.72,2.43,4.57,4.61,2.47,1.94,1.13-1.05,1.13-1.05,0,0-3.8-4.36-3.37-4.69,.34-.16,2.26,2.34,4.97,4.45,.69,.57,1.37,1.13,2.02,1.62,1.66,1.29,3.05,.57,1.56-1.05-.53-.61-1.43-1.54-2.18-2.1-.81-.65-1.33-1.46-1.92-2.1-1.17-1.21-2.04-2.1-1.96-2.18,.1,0,.08-.4,.85,.16,.89,.65,2.46,2.5,3.88,3.4,.81,.48,2.44,1.7,2.44,1.7,0,0,2.81,1.21,2.95,1.05,.81-.77-.81-2.18-2.02-2.71-.55-.73-2.28-1.86-2.28-1.86,0,0-2.91-3.19-2.4-3.68,.22-.16,2.26,1.58,4.55,2.91,2.14,1.21,4.55,2.18,4.91,1.74,.61-.69-1.58-2.3-1.58-2.3,0,0-1.62-1.05-2.12-1.46-.59-.48-2.22-2.02-2.22-2.02,0,0-5.43-5.66-4.93-6.02,.5-.4,2.18-.93,2.65-.73,.46,.2,1.07,1.09,1.54,1.33,.48,.24,1.33,.08,1.72-.49,.38-.57-1.37-2.55-1.37-2.55,0,0-1.45-1.58-2.95-1.98Z" style="fill:#f9af79; fill-rule:evenodd;"/><path d="M954.09,984.64l-.53,11.07c-.2,1.45-1.07,4.89-1.05,6.14,.04,4.81,21.28-4.28,16.47-6.3-.44-.24-2.71-1.62-2.89-3.27-.22-2.55-.83-7.56-.83-7.56l-11.17-.08Z" style="fill:#f9af79; fill-rule:evenodd;"/><path d="M968.92,995.47s-4.99,1.54-7.56,1.94c-2.55,.4-5.96-2.67-7.76-1.86-2,.97-1.7,9.98-1.7,9.98,0,0,26.73,1.33,34.25-1.17,2.97-1.01-6.97-5.58-17.24-8.89Z" style="fill:#0e2952; fill-rule:evenodd;"/><path d="M907.15,986.18l-.53,11.11c-.22,1.41-1.09,4.85-1.07,6.14,.04,4.81,21.28-4.33,16.47-6.35-.42-.24-3.4-2.71-3.56-4.32-.24-2.55-.16-6.51-.16-6.51l-11.15-.08Z" style="fill:#f9af79; fill-rule:evenodd;"/><path d="M921.96,997.01s-4.97,1.54-7.54,1.94c-2.57,.4-5.96-2.67-7.78-1.86-1.98,.97-1.98,9.21-1.98,9.21,0,0,28.57,1.78,35.28-.24,3.01-.89-7.72-5.74-17.98-9.05Z" style="fill:#0e2952; fill-rule:evenodd;"/><path d="M939.28,826.35l9.05,3.76,19.88,90.36-.06,67.89-15.21,.49s-7.66-59.24-7.7-63.85c-.06-4.61-33.56-80.17-33.56-80.17l27.6-18.47Z" style="fill:#20386f; fill-rule:evenodd;"/><path d="M932.37,831.4s-5.92,69.79-5.8,81.55c.12,11.8-4.57,77.67-4.57,77.67h-15.23s-1.31-19.96-3.25-49.46c-.3-4.69,.18-13.98-.2-18.75-2.71-34.39-7.74-66.76-5.62-79.61,.34-2.1,.95-7.52,2.26-8.85,9.86-10.43,32.41-2.55,32.41-2.55Z" style="fill:#20386f; fill-rule:evenodd;"/><path d="M950.39,776.16l-18.45-1.03s-1.07-16.49-1.15-24.35c-.1-9.52-3.15-23.54-2-23.3,3.19,.73,8.73,3.58,11.32,7.13,8.97,12.22,10.29,41.54,10.29,41.54Z" style="fill:#466fb5; fill-rule:evenodd;"/><path d="M906.22,727.35s-10.49,1.6-13.25,3.64c-3.07,2.32-6.49,7.48-6.49,7.48,0,0,13.54,60.88,13.66,71.12,.1,7.92-2.51,27.48-2.51,27.48,0,0,39.02,2.1,53.73-3.92,0,0-4.89-23.16-4.97-29.24-.06-6.08-6.2-61.4-7.5-65.26-1.21-3.5-3.37-9.76-10.53-11.27-7.13-1.48-22.14-.02-22.14-.02Z" style="fill:#6d96ce; fill-rule:evenodd;"/><path d="M908.93,710.9l-2.42,17.07s9.7,20.19,15.36,18.35c4.75-1.5,1.64-19.44,1.64-19.44,0,0-2.71-9.6-1.98-14.45,.73-4.83-12.59-1.54-12.59-1.54Z" style="fill:#f9af79; fill-rule:evenodd;"/><path d="M921.52,712.43c.73-4.83-12.59-1.54-12.59-1.54l-.2,1.43c.4,.93,.87,1.72,1.47,2.34,3.01,3.15,7.7,5.03,11.74,5.13-.44-2.59-.71-5.39-.42-7.38Z" style="fill:#f27458; fill-rule:evenodd;"/><path d="M906.48,686.83c-.38-.14-2.83,19.44,2.26,24.75,5.07,5.31,14.89,6.97,18.37,2.69,3.84-4.69,3.43-25.68-4.45-31.16-7.88-5.44-16.19,3.72-16.19,3.72Z" style="fill:#f9af79; fill-rule:evenodd;"/><path d="M919.58,672.63c-6.02,1.25-9.92,4.97-11.34,6.57-2.75,.34-6.45,1.88-10.24,8.24-4.65,7.84-1.05,16.43,4.49,20.63,5.56,4.18,5.56,9.09,5.56,9.09l.83-2.57c.63-1.92,.87-3.98,.63-5.96-.14-1.21-.42-2.53-.93-3.58-1.35-2.83,2.81-4.75,3.94-7.11,.89-1.84,.89-5.98,2.28-8.97l1.68-2.3s3.88-3.07,7.72-2.26c3.82,.83,3.13-13.46-4.61-11.78Z" style="fill:#20386f; fill-rule:evenodd;"/><path d="M912.3,701.54c.06,2.36-1.01,4.32-2.4,4.38-1.37,.02-2.57-1.9-2.61-4.26-.08-2.4,.99-4.36,2.36-4.38,1.39-.02,2.57,1.86,2.65,4.26Z" style="fill:#f9af79; fill-rule:evenodd;"/><path d="M890.38,735.37c3.54-.14,6.89,23.18,4.69,25.48-2.22,2.32-2.36,31.08-2.36,31.08l33.36-1.17v.02c.65-.46,7.58-5.23,8.57-6.26,1.05-1.09,6.16-.61,7.52,.87,1.35,1.46-2.59,.75-3.78,1.56-1.19,.85,.53,2.38,.53,2.38,0,0,8.47,1.11,10.08-.62,1.64-1.78,6.02-4.79,6.63-3.05,.32,.93-1.92,3.68-3.19,4.83,1.58-1.21,3.48-2.51,4.14-2.28,1.21,.4,.73,1.94,.08,2.38s-7.31,5.64-8.36,6.02c-1.01,.36-16.63,.91-19.32,1.52,0,0-43.89,10.46-46.39,9.86-2.2-.48-4.55-14.57-4.65-25.36-.12-10.79,1.41-46.81,12.47-47.24Z" style="fill:#f9af79; fill-rule:evenodd;"/><path d="M894.91,730.01s-6.14,1.48-12.43,8.69c-5.7,6.55-8.97,42.96-8.97,42.96l19.98,3.01,1.41-17.6c8.33-12.83,10.31-28.11,0-37.06Z" style="fill:#466fb5; fill-rule:evenodd;"/><polygon points="991.43 1020.28 982.68 1020.28 1080.49 1369.43 1089.26 1369.43 991.43 1020.28" style="fill:#9c7357; fill-rule:evenodd;"/><polygon points="925.42 1020.28 916.65 1020.28 1014.48 1369.43 1023.25 1369.43 925.42 1020.28" style="fill:#9c7357; fill-rule:evenodd;"/><polygon points="989.08 1043.07 931.8 1043.07 933.46 1048.97 990.7 1048.97 989.08 1043.07" style="fill:#9c7357; fill-rule:evenodd;"/><polygon points="999.25 1079.4 941.99 1079.4 943.62 1085.26 1000.88 1085.26 999.25 1079.4" style="fill:#9c7357; fill-rule:evenodd;"/><polygon points="852.5 1076.54 909.76 1076.54 908.12 1082.35 850.86 1082.35 852.5 1076.54" style="fill:#9c7357; fill-rule:evenodd;"/><polygon points="1009.41 1115.73 952.15 1115.73 953.79 1121.55 1011.07 1121.55 1009.41 1115.73" style="fill:#9c7357; fill-rule:evenodd;"/><polygon points="842.33 1112.82 899.59 1112.82 897.94 1118.68 840.68 1118.68 842.33 1112.82" style="fill:#9c7357; fill-rule:evenodd;"/><polygon points="1019.59 1152.02 962.31 1152.02 963.97 1157.84 1021.23 1157.84 1019.59 1152.02" style="fill:#9c7357; fill-rule:evenodd;"/><polygon points="1029.76 1188.31 972.5 1188.31 974.13 1194.17 1031.39 1194.17 1029.76 1188.31" style="fill:#9c7357; fill-rule:evenodd;"/><polygon points="1039.92 1224.6 982.68 1224.6 984.3 1230.5 1041.56 1230.5 1039.92 1224.6" style="fill:#9c7357; fill-rule:evenodd;"/><polygon points="1050.1 1260.93 992.84 1260.93 994.48 1266.79 1051.74 1266.79 1050.1 1260.93" style="fill:#9c7357; fill-rule:evenodd;"/><polygon points="1060.27 1297.26 1003.01 1297.26 1004.64 1303.08 1061.9 1303.08 1060.27 1297.26" style="fill:#9c7357; fill-rule:evenodd;"/><polygon points="1070.45 1333.55 1013.19 1333.55 1014.83 1339.37 1072.07 1339.37 1070.45 1333.55" style="fill:#9c7357; fill-rule:evenodd;"/><polygon points="859.49 1020.28 868.26 1020.28 770.42 1369.43 761.67 1369.43 859.49 1020.28" style="fill:#9c7357; fill-rule:evenodd;"/><polygon points="925.52 1020.28 934.29 1020.28 836.45 1369.43 827.7 1369.43 925.52 1020.28" style="fill:#9c7357; fill-rule:evenodd;"/><polygon points="861.87 1043.07 919.11 1043.07 917.5 1048.97 860.24 1048.97 861.87 1043.07" style="fill:#9c7357; fill-rule:evenodd;"/><polygon points="831.34 1152.02 888.6 1152.02 886.97 1157.84 829.72 1157.84 831.34 1152.02" style="fill:#9c7357; fill-rule:evenodd;"/><polygon points="821.18 1188.31 878.44 1188.31 876.8 1194.17 819.54 1194.17 821.18 1188.31" style="fill:#9c7357; fill-rule:evenodd;"/><polygon points="810.99 1224.6 868.28 1224.6 866.62 1230.5 809.36 1230.5 810.99 1224.6" style="fill:#9c7357; fill-rule:evenodd;"/><polygon points="800.83 1260.93 858.09 1260.93 856.46 1266.79 799.19 1266.79 800.83 1260.93" style="fill:#9c7357; fill-rule:evenodd;"/><polygon points="790.67 1297.26 847.91 1297.26 846.29 1303.08 789.03 1303.08 790.67 1297.26" style="fill:#9c7357; fill-rule:evenodd;"/><polygon points="780.48 1333.55 837.75 1333.55 836.11 1339.37 778.85 1339.37 780.48 1333.55" style="fill:#9c7357; fill-rule:evenodd;"/><rect x="846.84" y="1006.5" width="156.23" height="13.78" style="fill:#d0a382;"/></g><g><path d="M633.09,975.06s-13.88,10.02-16.06,12.97c-3.17,4.32,23.52,12.37,20.61,7.36-.67-1.17-2.59-5.09-2.69-5.46-.42-2.06,5.23-7.56,5.23-7.56l-7.09-7.31Z" style="fill:#f9af79; fill-rule:evenodd;"/><path d="M644.54,1000.16l-9.13-9.7s-5.88-1.37-11.92-8.16c0,0-5.43,2.06-8.79,6.55,0,0,6.32,6.79,16.04,14.47,0,0,2.04,1.82,5.35,3.84h16.83c.59-2.71-1.48-5.86-8.39-6.99Z" style="fill:#0e2952; fill-rule:evenodd;"/><path d="M517.03,792.57s1.7,1.52,2.32,2c.69,.5,2.93,1.98,2.93,1.98,0,0,8.1,4.59,8.39,3.98,.28-.59,.26-2.34-.14-2.81-.4-.44-1.58-.95-1.96-1.39-.4-.46-.55-1.37-.02-1.9,.51-.52,3.27,.99,3.27,.99,0,0,2.24,1.25,3.17,2.77,3.27,5.19,2.26,5.52,2.71,6.16,.52,.79,11.88,5.96,11.88,5.96,0,0,33.99,14.14,35.82,14.87h.02c.26,1.62-.59,3.03-1.01,4.45-.81,4.85-2.26,5.17-3.37,9.86-5.21-2.67-41.3-22.55-44.98-24.61,0,0-5.47-.93-8.91-1.66-3.46-.65-6.43-2.87-7.38-3.23-.14,0-3.21-1.33-6.59-3.96-2.91-2.24,.85-1.41,.85-1.41,0,0,6.1,3.27,6.28,2.71,.12-.36-3.33-1.96-6.57-4.4-.85-.63-1.66-1.25-2.42-1.86-1.96-1.52-1.62-3.13,.69-1.84,.81,.46,2.16,1.25,3.03,1.92,.95,.77,2.04,1.15,2.95,1.66,1.76,1.01,3.03,1.76,3.03,1.68,0-.12,.48-.16-.38-.87-1.03-.85-3.62-2.14-5.07-3.52-.81-.75-2.61-2.26-2.61-2.26,0,0-2.32-2.75-2.2-2.93,.61-.99,2.71,.49,3.68,1.66,1.01,.45,2.87,2.08,2.87,2.08,0,0,4.45,2.49,4.79,1.86,.16-.26-2.42-2.08-4.65-4.28-2.08-2.04-3.86-4.41-3.54-4.89,.57-.75,3.11,1.25,3.11,1.25Z" style="fill:#f9af79; fill-rule:evenodd;"/><path d="M683.98,675.68s.46,2.14,.57,2.87c.12,.85,.26,3.45,.26,3.45,0,0-.06,9.13-.73,9.09-.69-.02-2.22-.81-2.42-1.35-.2-.55-.02-1.8-.22-2.34-.2-.55-.97-1.07-1.68-.87-.71,.24-.79,3.31-.79,3.31,0,0-.04,2.51,.79,4,2.97,5.15,3.74,4.43,4.1,5.09,.4,.81-.83,13.03-.83,13.03,0,0-4.85,35.93-5.09,37.87l-.02,.02c1.27,.93,2.97,.81,4.42,1.05,4.69,1.43,5.7,.32,10.39,1.43,.34-5.74,1.19-46.05,1.23-50.17,0,0,1.96-5.21,3.09-8.55,1.15-3.31,.75-6.87,.93-7.86,.02-.14,.42-3.41-.18-7.52-.51-3.54-1.66,.1-1.66,.1,0,0-.26,6.79-.81,6.71-.4-.06-.04-3.76-.57-7.68-.12-1.03-.26-2.02-.38-2.95-.36-2.38-1.96-2.81-1.98-.22-.02,.91-.02,2.42,.14,3.5,.18,1.17-.04,2.3-.04,3.31-.02,1.98,.02,3.44-.08,3.4-.1-.04-.38,.34-.54-.69-.22-1.31-.06-4.16-.51-6.02-.26-1.03-.69-3.29-.69-3.29,0,0-1.25-3.23-1.48-3.21-1.17,.1-.95,2.61-.42,3.96-.1,1.07,.38,3.42,.38,3.42,0,0-.06,4.99-.79,5.05-.3,0-.61-3.07-1.41-6-.75-2.71-1.94-5.31-2.5-5.21-.97,.12-.49,3.27-.49,3.27Z" style="fill:#f9af79; fill-rule:evenodd;"/><path d="M611.85,872.14l2.18,10.87,55.22,50.23-39.5,40.01,10.65,10.91s58.39-42.88,60.5-48.49c3.25-8.65-41.85-65.95-41.85-65.95l-47.2,2.43Z" style="fill:#0e2952; fill-rule:evenodd;"/><path d="M573.14,1003.96s-13.88,10.02-16.06,13.01c-3.15,4.28,23.52,12.37,20.61,7.27-.67-1.13-2.59-5.01-2.67-5.42-.45-2.06,5.21-7.56,5.21-7.56l-7.09-7.32Z" style="fill:#f9af79; fill-rule:evenodd;"/><path d="M584.92,1032.73l-9.44-13.34s-6.26-1.13-12.31-7.88c0,0-5.05,1.82-8.39,6.3,0,0,6.3,6.83,16.02,14.47,0,0,5.76,5.13,13.74,7.8,7.96,2.71,.36-7.35,.36-7.35Z" style="fill:#0e2952; fill-rule:evenodd;"/><path d="M613.75,877.19l2.47,68.58-46.69,57.22,10.95,10.1s54.21-46.55,60.15-59.48c3.7-8.08,16.12-80.7,16.12-80.7l-43,4.28Z" style="fill:#20386f; fill-rule:evenodd;"/><path d="M658.28,871.57c-4.49-10.18-3.98-82.82-21.46-99.83-6.14,1.03-10.53,1.62-11.56,1.9-.91,7.48-1.92,34.93-2.55,60.11-.38,16.81,.02,34.35-2.04,43.64-1.29,5.74,41.7,3.4,37.6-5.82Z" style="fill:#fff; fill-rule:evenodd;"/><path d="M610.96,777.37c-4.91,1.11-8.53,3.39-14.95,12.91-6.14,9.09-19.82,29.16-19.82,29.16l-36.03-15.98-1.66,18.25s40.73,21.17,46.47,19.28c5.76-1.9,20.45-22.99,21.64-24.57,.26-.36-1.03,25.42-1.03,29.54s-6.67,36.94-6.67,36.94c0,0,19.8,4.85,23.68-4,11.86-27.16,2.75-105.29,2.75-105.29,0,0-10.85,2.97-14.39,3.78Z" style="fill:#466fb5; fill-rule:evenodd;"/><path d="M640.88,775.98s8.04,21.48,13.88,18.59c5.82-2.93,37.7-37.66,38.03-39.28,.3-1.62,2.59-42.65,2.59-42.65l-12.97-2.61-8.71,33.32s-22.75,23.26-27.62,25.52c-4.87,2.26-5.19,7.11-5.19,7.11Z" style="fill:#466fb5; fill-rule:evenodd;"/><path d="M660.02,876.42c3.94,0,5.42-.57,8-1.29,0,0-7.48-42.19-11.82-84.01-1.72-16.53-3.31-23.28-10.12-22.08-1.98,.34-7.31,2.36-9.23,2.71,17.11,48.43,17.17,85.73,19.6,96.52,1.21,5.45,2.26,8.16,3.58,8.16Z" style="fill:#466fb5; fill-rule:evenodd;"/><path d="M635.02,764.4l1.8,7.33s.4,6.36-2.55,6.95c-3.58,.67-8.87-4.65-8.87-4.65l-3.07-20.65,12.69,11.01Z" style="fill:#f7a390; fill-rule:evenodd;"/><path d="M635.02,764.4l1.8,7.33s.4,6.36-2.55,6.95c-3.58,.67-8.87-4.65-8.87-4.65l-3.07-20.65,12.69,11.01Z" style="fill:#f9af79; fill-rule:evenodd;"/><path d="M622.36,753.47l12.67,10.93,1.33,5.48c-4.83-1.17-11.74-6.49-14-16.41Z" style="fill:#f27458; fill-rule:evenodd;"/><path d="M635.07,734.48c3.05,0,5.82,2.12,6.89,5.17,.91,2.55,2.04,6.28,2.77,10.61,1.33,7.92-3.19,15.19-7.11,15.8-3.94,.57-13.29-2.04-15.38-13.3-.89-4.81-2.06-11.15,1.9-14.47,3.09-2.59,7.41-3.82,10.93-3.82Z" style="fill:#f9af79; fill-rule:evenodd;"/><path d="M623.51,761.35s-13.86-12.37-14.47-22.02c-.61-9.64,8.3-14.81,15.94-15.09,3.43-.1,5.76,.04,9.31,.48,7.64,.97,12.59,4.32,10.85,10.61-2.34,8.41-18.19,1.29-21.42,3.9-2.69,2.18,1.66,7.35-.95,9.31-2.45,1.88-1.19,1.25-.4,4.77,.83,3.54,1.13,8.04,1.13,8.04Z" style="fill:#20386f; fill-rule:evenodd;"/><path d="M618.17,750.16c.32,2.3,1.76,4.02,3.15,3.82,1.39-.22,2.26-2.26,1.92-4.59-.36-2.32-1.76-4.02-3.15-3.82-1.42,.22-2.26,2.26-1.92,4.59Z" style="fill:#f9af79; fill-rule:evenodd;"/></g><path d="M1354.36,361.57l3.52-20.87-15.23-14.75c-1.76-1.66-.77-4.61,1.62-4.95l20.93-3.09,9.38-19.01c1.05-2.16,4.12-2.18,5.17-.02l9.38,18.97,21.01,2.99c2.34,.36,3.31,3.27,1.58,4.97l-15.07,14.79,3.56,20.87c.48,2.38-2.02,4.2-4.2,3.07l-18.71-9.8-18.71,9.88c-2.18,1.15-4.69-.67-4.2-3.05Z" style="fill:#eac5a7; fill-rule:evenodd;"/><polygon points="1357.51 361.63 1377.27 351.2 1377.15 300.73 1367.29 320.77 1345.16 324.05 1361.27 339.58 1357.51 361.63" style="fill:#d0a382; fill-rule:evenodd;"/><path d="M1150.51,870.6l5.31-31.4-22.89-22.15c-2.65-2.54-1.17-6.99,2.42-7.48l31.44-4.65,14.08-28.55c1.58-3.25,6.22-3.29,7.8-.02l14.14,28.51,31.54,4.47c3.54,.57,4.93,4.93,2.36,7.52l-22.67,22.23,5.37,31.36c.73,3.56-3.09,6.3-6.32,4.61l-28.13-14.71-28.13,14.83c-3.25,1.7-7.01-1.01-6.34-4.56Z" style="fill:#eac5a7; fill-rule:evenodd;"/><polygon points="1155.27 870.68 1184.98 855 1184.79 779.15 1169.92 809.26 1136.73 814.19 1160.89 837.55 1155.27 870.68" style="fill:#d0a382; fill-rule:evenodd;"/><g><polygon points="1809.06 1039.4 1870.53 1088.13 1844.3 1107.04 1809.06 1039.4" style="fill:#c4d1eb; fill-rule:evenodd;"/><polygon points="1883.7 1079.45 1811.16 1040.17 1905.48 1075.08 1883.7 1079.45" style="fill:#c4d1eb; fill-rule:evenodd;"/><polygon points="1883.7 1079.45 1872.59 1111.05 1870.53 1088.13 1809.06 1039.4 1811.16 1040.17 1883.7 1079.45" style="fill:#9db2d9; fill-rule:evenodd;"/><polygon points="1872.59 1111.05 1858.93 1096.5 1870.53 1088.13 1872.59 1111.05" style="fill:#859ac6; fill-rule:evenodd;"/><path d="M1888.91,1098.44c-1.7-.97-2.99,1.54-1.45,2.38,.73,.53,1.54,1.01,2.3,1.5,1.78,1.05,2.95-1.54,1.54-2.34-.77-.48-1.58-1.01-2.38-1.54h0Zm-79.93,145.04c.4,1.78,3.15,1.09,2.67-.69-.2-.89-.4-1.78-.65-2.67-.44-1.94-3.15-1.13-2.71,.57,.2,.97,.44,1.86,.69,2.79h0Zm-1.86-11.32c0,1.66,2.79,1.9,2.79-.12-.04-.93-.08-1.86-.08-2.75,0-1.86-2.79-1.86-2.79,0,0,.97,0,1.94,.08,2.87h0Zm.73-11.52c-.24,1.94,2.26,2.34,2.75,.57,.16-.89,.32-1.78,.57-2.67,.48-1.82-2.26-2.43-2.71-.73-.24,.97-.45,1.94-.61,2.83h0Zm3.64-10.91c-.81,1.41,1.45,2.99,2.5,1.21,.36-.73,.81-1.66,1.29-2.34,.89-1.66-1.54-2.99-2.42-1.45-.48,.81-.97,1.74-1.37,2.59h0Zm6.34-9.62c-1.25,1.46,.97,3.19,2.1,1.82,.61-.69,1.17-1.33,1.82-2.02,1.29-1.25-.65-3.27-2.02-1.98-.65,.73-1.29,1.46-1.9,2.18h0Zm8.28-7.92c-1.5,1.29,.4,3.31,1.74,2.26,.69-.56,1.46-1.13,2.18-1.62,1.58-1.13-.12-3.39-1.58-2.34-.81,.57-1.58,1.13-2.34,1.7h0Zm9.62-6.14c-1.7,.93-.2,3.31,1.29,2.42,.81-.4,1.66-.81,2.46-1.25,1.82-1.01,.2-3.31-1.25-2.5-.81,.44-1.7,.85-2.5,1.33h0Zm10.34-4.69c-1.7,.65-.73,3.23,.97,2.59l2.63-.93c1.82-.69,.73-3.27-.89-2.62-.89,.32-1.82,.61-2.71,.97h0Zm10.87-3.39c-1.82,.49-1.09,3.19,.69,2.75l2.67-.65c1.94-.48,1.09-3.15-.57-2.75l-2.79,.65h0Zm11.15-2.1c-1.82,.24-1.5,3.07,.36,2.83l2.75-.32c1.9-.24,1.45-3.03-.28-2.83-.93,.12-1.9,.24-2.83,.32h0Zm11.27-.89c-1.86,.24-1.7,2.83,.16,2.83,.93-.08,1.86-.12,2.83-.2,1.98-.28,1.45-3.03-.24-2.79l-2.75,.16h0Zm11.03-.97c-1.82,.2-1.5,2.99,.36,2.75,.97-.08,1.9-.24,2.83-.4,1.7-.2,1.5-2.99-.44-2.75-.93,.16-1.82,.24-2.75,.41h0Zm10.87-1.98c-1.78,.45-1.13,3.19,.69,2.71,.93-.24,1.82-.45,2.75-.73,1.66-.41,1.17-3.15-.77-2.67-.89,.24-1.78,.48-2.67,.69h0Zm10.35-3.43c-1.62,.65-.57,3.31,1.21,2.55,.85-.4,1.7-.85,2.59-1.29,1.62-.93,.2-3.36-1.37-2.46-.73,.4-1.62,.85-2.42,1.21h0Zm8.89-5.82c-1.25,1.25,.73,3.27,2.02,1.94,.73-.73,1.38-1.46,2.02-2.22,1.05-1.25-.97-3.23-2.26-1.66-.56,.65-1.13,1.29-1.78,1.94h0Zm5.01-8.97c-.41,1.62,2.26,2.5,2.75,.57,.2-1.01,.32-1.94,.4-2.99,0-2.02-2.83-1.78-2.83-.12-.08,.85-.16,1.7-.32,2.55h0Zm-.65-10.43c.44,1.7,3.19,1.13,2.71-.73-.24-.97-.57-1.86-.89-2.79-.65-1.74-3.27-.77-2.62,1.01,.32,.81,.57,1.66,.81,2.5h0Zm-4.33-9.86c.89,1.54,3.36,.2,2.38-1.45-.36-.73-1.01-1.7-1.45-2.43-.81-1.45-3.4-.24-2.34,1.54,.4,.57,1.09,1.7,1.41,2.34h0Zm-6.26-9.05c1.21,1.46,3.31-.36,2.18-1.74-.61-.77-1.21-1.5-1.86-2.18-1.13-1.37-3.31,.36-2.1,1.82,.57,.73,1.21,1.37,1.78,2.1h0Zm-7.44-8.16c1.29,1.29,3.31-.65,1.94-1.98-.61-.65-1.29-1.37-2.02-1.98-1.21-1.21-3.27,.65-1.9,2.02,.69,.65,1.33,1.29,1.98,1.94h0Zm-8.24-7.4c1.46,1.17,3.23-.97,1.78-2.18l-2.18-1.74c-1.33-1.13-3.23,.93-1.7,2.18,.73,.53,1.45,1.17,2.1,1.74Z" style="fill:#859ac6; fill-rule:evenodd;"/></g><g><polygon points="1011.49 461.66 909.58 503.45 937.56 539.19 1011.49 461.66" style="fill:#c4d1eb; fill-rule:evenodd;"/><polygon points="895.21 486.6 1008.38 461.89 867.49 472.17 895.21 486.6" style="fill:#c4d1eb; fill-rule:evenodd;"/><polygon points="895.21 486.6 897.86 533.54 909.58 503.45 1011.49 461.66 1008.38 461.89 895.21 486.6" style="fill:#9db2d9; fill-rule:evenodd;"/><polygon points="897.86 533.54 921.98 519.29 909.58 503.45 897.86 533.54" style="fill:#859ac6; fill-rule:evenodd;"/><path d="M871.63,530.06c3.33-.42,2.57-5.25-.51-4.87l-4.87,.53c-3.27,.4-2.57,5.25,.55,4.87l4.83-.53h0Zm-167.08,194.3c-2.18,0-3.25,2.65-1.78,4.14,.34,.42,1.09,.75,1.78,.75h3.15c3.15,0,3.21-4.89-.06-4.89h-3.09Zm17.64-.45c-2.89,0-3.29,4.89,.28,4.89l4.91-.3c3.52-.44,2.55-5.23-.36-4.89l-4.83,.3h0Zm19.24-1.82c-3.05,.38-2.63,5.25,.73,4.83l-.73-4.83h0Zm18.67-4.12c-2.93,1.09-1.76,5.48,1.52,4.65,1.62-.51,3.19-1.07,4.77-1.68,2.99-1.27,1.19-5.68-1.82-4.55-1.45,.59-2.97,1.09-4.47,1.58h0Zm16.59-8.34c-2.55,2.12,.67,5.8,3.07,3.8,1.37-1.13,2.65-2.3,3.84-3.64,2.18-2.61-1.7-5.58-3.66-3.21-1.01,1.11-2.1,2.1-3.25,3.05h0Zm9.13-14.81c-.44,3.48,4.46,3.74,4.83,.83,.3-1.74,.51-3.43,.57-5.21,0-3.37-4.89-3.19-4.89-.12-.04,1.52-.22,3.01-.51,4.51h0Zm-1.29-18.29c.73,2.97,5.52,1.96,4.69-1.29-.42-1.6-.89-3.25-1.43-4.83-1.19-3.17-5.68-1.25-4.63,1.58,.5,1.5,.95,3.03,1.37,4.55h0Zm-6.75-17.9c1.21,2.81,5.76,1.07,4.45-2.04-.69-1.5-1.39-3.01-2.12-4.47-1.8-3.15-5.82-.32-4.41,2.14,.71,1.43,1.39,2.91,2.08,4.36h0Zm-8.73-17.36c1.7,2.97,5.82,.34,4.32-2.28l-2.3-4.3c-1.68-2.97-5.82-.34-4.3,2.28,.79,1.39,1.54,2.89,2.28,4.3h0Zm-9.11-17.38c1.78,3.11,5.8,.34,4.38-2.16l-2.14-4.34c-1.68-2.93-5.66-.81-4.42,2.1l2.18,4.4h0Zm-7.92-18.22c1.09,2.91,5.45,1.76,4.65-1.54-.51-1.5-.95-2.97-1.35-4.51-.77-3.13-5.52-1.96-4.73,1.19,.42,1.64,.89,3.23,1.43,4.85h0Zm-2.44-20.29c-.4,3.17,4.45,3.8,4.83,.59,.18-1.49,.46-3.03,.85-4.49,.77-3.17-3.98-4.3-4.75-1.23-.42,1.7-.73,3.39-.93,5.13h0Zm7.5-19.15c-1.9,2.67,2.12,5.46,3.96,2.89,.91-1.27,1.86-2.47,2.89-3.64,2.22-2.65-1.72-5.56-3.62-3.25-1.15,1.23-2.22,2.63-3.23,4h0Zm14.77-13.94c-2.53,1.82-.22,5.76,2.73,4.06,1.31-.89,2.65-1.74,4-2.55,2.71-1.54,.4-5.84-2.49-4.2-1.43,.87-2.85,1.76-4.24,2.69h0Zm17.66-9.38c-3.01,1.29-1.03,5.76,1.9,4.53,1.45-.65,2.97-1.23,4.45-1.8,3.01-1.11,1.31-5.72-1.74-4.57-1.54,.59-3.07,1.19-4.61,1.84h0Zm18.73-6.51c-2.93,.73-1.98,5.52,1.35,4.69l4.65-1.27c3.05-.77,1.96-5.54-1.23-4.73l-4.77,1.31h0Zm19.18-4.69c-3.37,.83-1.88,5.5,.99,4.77l4.75-.93c3.11-.79,2.38-5.21-.91-4.81l-4.83,.97h0Zm19.38-3.43c-3.05,.36-2.61,5.25,.73,4.83l4.81-.71c3.09-.38,2.63-5.25-.67-4.85l-4.87,.73Z" style="fill:#859ac6; fill-rule:evenodd;"/></g><path d="M864.54,652.12l3.54-20.85-15.21-14.71c-1.76-1.66-.79-4.63,1.6-4.95l20.89-3.09,9.38-18.97c1.03-2.16,4.12-2.18,5.17,0l9.4,18.93,20.95,2.97c2.34,.36,3.27,3.27,1.56,4.97l-15.03,14.77,3.56,20.83c.49,2.36-2.06,4.18-4.2,3.07l-18.69-9.8-18.69,9.88c-2.16,1.13-4.65-.67-4.2-3.05Z" style="fill:#eac5a7; fill-rule:evenodd;"/><polygon points="867.71 652.18 887.43 641.75 887.31 591.38 877.43 611.39 855.39 614.66 871.43 630.18 867.71 652.18" style="fill:#d0a382; fill-rule:evenodd;"/><g><path d="M1981.25,1357.23c66.48,0,120.66-4.12,120.66-9.13s-54.19-9.09-120.66-9.09-120.71,4.08-120.71,9.09,54.23,9.13,120.71,9.13Z" style="fill:#c4d1eb; fill-rule:evenodd;"/><path d="M1962.46,1046.23c1.13-7.56,2.3-15.11,9.29-21.26,5.62-4.93,12.61-6.3,19.48-4.61,19.36,4.89,14.63,22.06,29.5,36.05,6.3,5.98,14.39,8,19.56,14.63,9.38,11.8,8.08,34.55-7.19,50.35-37.34,38.71-72.25-9.29-74.76-20.69-1.86-8.45,3.39-49.63,4.12-54.47Z" style="fill:#20386f; fill-rule:evenodd;"/><path d="M1955.55,1292.09c1.29,10.02,3.84,18.87,4.2,19.96,.2,.49,1.98,2.38,2.14,2.87-1.54,12.04-9.25,18.79-16.41,23.48,1.78-5.98,5.45-12.77,5.09-14.14-.61-2.18-2.79-12.21-7.92-24.89,5.82-.32,8-3.88,12.89-7.27Z" style="fill:#f9af79; fill-rule:evenodd;"/><path d="M1972.56,1145.92l37.74,26.11s-16.57,18.99-22.79,26.07-38.27,33.3-38.71,34.83c-.16,.32,1.94,3.8,2.83,8.24,2.38,12.04,5.86,35.56,7.84,55.77-3.47,4.28-11.72,5.86-16.57,7.52-14.06-24-22.06-71.45-22.47-77.19-.57-9.37,52.13-81.35,52.13-81.35Z" style="fill:#0e2952; fill-rule:evenodd;"/><path d="M2081.02,1200.72c-1.37,.97-11.27,15.44-15.35,23.4-3.92-3.52-6.06-7.27-10.59-9.94,4.57-5.17,13.9-17.78,14.95-20.93,2.55-7.52,4.41-8.41,4.41-8.41,0,0,23.72,12.77,25.09,15.52,1.29,2.75-13.17-3.68-18.51,.36Z" style="fill:#f9af79; fill-rule:evenodd;"/><path d="M2069.51,1194.94c-1.94-.32,1.46-9.13,2.22-11.15,.81-2.26,2.22-2.79,2.55-2.83,.93-.08,27.32,14.14,31.52,18.39,.28,.28,.77,1.13,.81,1.33,1.9,5.41-21.14,2.75-24.12,0-2.67-2.38-4.24-4.37-12.97-5.74Z" style="fill:#0e2952; fill-rule:evenodd;"/><path d="M1965.45,1154.81l30.47-15.28c-.16,.08,.24,1.33,.28,1.42,3.72,11.72,19.07,6.14,26.91,26.43,5.54,14.39,6.75,63.85,6.75,63.85,0,0,13.82-11.8,28.37-24.33,1.29-1.13,13.21,10.26,13.21,10.26-18.27,36.61-49.59,52.57-53.83,51.24-14.43-4.45-42.31-96.91-42.23-96.95-3.15-5.42-9.94-16.65-9.94-16.65Z" style="fill:#20386f; fill-rule:evenodd;"/><path d="M2010.39,1071.85s37.9-10.59,46.35-12.45c8.49-1.86,37.66-13.66,38.75-14.15,1.13-.52,4.61-16.49,6.34-15.4,1.74,1.05-2.18,8.04-.04,8.89,2.1,.85,19.6-7.88,19.8-6.42,.36,2.83-10.51,5.82-10.1,7.07,.4,1.29,11.07-4.16,12.45-2.3,1.45,1.94-10.51,4.2-10.67,5.33-.2,1.05,11.56-.65,10.99,1.7-.24,1.29-10.46,1.29-9.94,2.75,.49,1.41,8.28,2.67,7.84,4.12-.49,1.45-6.47-1.94-10.43-.81-3.96,1.13-7.44-.16-13.17,3.64-5.7,3.72-24.33,19.32-37.95,22.79-13.62,3.48-43.68,11.24-43.68,11.24l-6.54-16Z" style="fill:#f9af79; fill-rule:evenodd;"/><path d="M1965.69,1071.08s-17.34-35.4-21.58-42.92c-4.28-7.56-14.87-37.18-15.24-38.35-.36-1.17,9.17-14.39,7.27-14.95-1.98-.61-4.57,6.99-6.59,5.94-2.06-1.01-7.19-19.88-8.44-19.03-2.3,1.62,2.71,11.68,1.45,12.2-1.25,.57-4.24-10.99-6.59-10.79-2.34,.2,3.88,10.67,3.15,11.52-.65,.85-7.19-9.05-8.57-7.11-.81,1.09,5.98,8.69,4.61,9.25-1.45,.61-7.6-4.36-8.32-3.07-.73,1.29,5.74,3.52,7.52,7.23,1.78,3.72,5.05,5.45,6.06,12.2,1.05,6.79,1.78,31.08,8.24,43.56,6.47,12.45,20.69,40.01,20.69,40.01l16.33-5.7Z" style="fill:#f9af79; fill-rule:evenodd;"/><path d="M1957.37,1115.69c-.97-6.75-3.07-24.93-2.91-27.2-2.43-6.91-10.27-16.85-11.96-19.72,0,0,8.93-12.12,16.16-12.49,0,0,8.29,9.58,14.14,12.33,.08-.08,2.1,.77,2.91,.69,5.5-.36,24.61-2.22,28.29-1.38v31.08c-.89,1.82,.16,37.46-1.78,40.53-1.9,3.07-31.84,18.39-37.18,15.32-.24-.12-5.66-25.54-7.68-39.16Z" style="fill:#6d96ce; fill-rule:evenodd;"/><path d="M1994.22,1069.06c.85-.53,2.83-1.09,5.78-1.33,8.69-.73,23.28-2.06,23.28-2.06,0,0,4.81,18.39,2.22,23.03,0,0-22.63,5.05-21.86,6.99l-9.41-26.63Z" style="fill:#6d96ce; fill-rule:evenodd;"/><path d="M1987.51,1057.1s-1.29,10.87-.65,15.07c.73,4.2-.32,17.98-8.89,18.59-8.57,.61-2.75-17.26-2.26-21.46,.57-4.16-.08-17.01-.08-17.01l11.88,4.81Z" style="fill:#f9af79; fill-rule:evenodd;"/><path d="M1975.88,1058.67c-.08-3.48-.24-6.38-.24-6.38l11.88,4.81s-.28,2.22-.48,5.05c-5.01,1.37-8.77-.32-11.15-3.47Z" style="fill:#f27458; fill-rule:evenodd;"/><path d="M1989.78,1027.19s4.57,2.3,6.55,7.76c1.98,5.46,1.09,19.92-10.1,24.13-11.23,4.28-16.97-6.79-15.15-15.84,1.74-9.05,6.14-20.65,18.71-16.04Z" style="fill:#f9af79; fill-rule:evenodd;"/><path d="M1969.41,1039.88c.36,2.38,1.74,4.12,3.07,3.88,1.33-.2,2.1-2.3,1.7-4.65-.36-2.42-1.78-4.16-3.07-3.96-1.33,.24-2.1,2.34-1.7,4.73Z" style="fill:#f9af79; fill-rule:evenodd;"/><path d="M1959.83,1312.33c.81-1.9,7.8,4.61,9.5,5.94,1.86,1.5,1.94,3.07,1.86,3.39-.16,.89-19.88,23.76-25.46,26.75-.56,.24-1.61,.2-1.94,.08-2.95-1.37,2.91-20.69,7.03-24.33,2.67-2.3,5.33-3.48,9.01-11.84Z" style="fill:#0e2952; fill-rule:evenodd;"/><path d="M1988.36,1026.59s3.11,15.88,8.28,18.47c5.13,2.55,3.56,9.78,3.56,9.78,0,0,3.4-16.77-.89-21.86-4.28-5.01-10.95-6.38-10.95-6.38Z" style="fill:#20386f; fill-rule:evenodd;"/><path d="M1993.82,1047.52c-1.17,2.18-1.05,4.61,.4,5.5,1.37,.85,3.56-.24,4.73-2.42,1.21-2.14,1.05-4.61-.36-5.46-1.37-.85-3.56,.2-4.77,2.38Z" style="fill:#f9af79; fill-rule:evenodd;"/></g><g><path d="M1310.9,463.02c-.32,0-.65-.1-.91-.3-.58-.48-.67-1.35-.16-1.96,6.69-8.04,10.39-18.27,10.39-28.77,0-5.01-.81-9.96-2.44-14.65-.24-.73,.14-1.51,.87-1.76,.71-.26,1.5,.12,1.76,.85,1.72,4.99,2.57,10.24,2.57,15.56,0,11.15-3.9,22-11.01,30.55-.26,.32-.67,.49-1.05,.49Z" style="fill:#fff; fill-rule:evenodd;"/><path d="M1339.63,445.14c-11.11,2.1-25.03,6.43-41.8,12.97,1.13,.3,2.18,.67,3.19,1.11,23.16-8.41,38.49-12.63,46.03-12.67-1.33-.47-2.67-.79-4-.95,.1-12.33,.75-23.24,1.9-32.73-2.83,14.73-4.61,25.48-5.31,32.27Z" style="fill:#466fb5; fill-rule:evenodd;"/><path d="M1297.82,458.11c-5.15-1.54-9.72-1.19-13.72,1.03l3.36,11.62c.38,1.31-.36,2.34-1.68,2.3l3.11,.12c1.39-.79,2.83-1.27,4.3-1.48,2.83,1.8,6.55,1.39,11.15-1.17,.32-4.63-.85-8.36-3.52-11.25,.06-.02,.12-.04,.18-.06-1.01-.44-2.06-.81-3.19-1.11Z" style="fill:#f9af79; fill-rule:evenodd;"/><path d="M1336.17,478.88c.71-4.18,1.39-8.67,2.1-13.46-8.73,2.26-20.08,4.44-34.07,6.51,.06-.48,.1-.95,.14-1.39-4.61,2.57-8.33,2.97-11.15,1.17-1.47,.2-2.91,.69-4.3,1.48l31.3,1.31c-.36,2.12-1.29,3.72-2.71,4.71,6.59,.28,12.81,.18,18.69-.32Z" style="fill:#466fb5; fill-rule:evenodd;"/><path d="M1284.1,459.14c2.99-1.66,6.3-2.26,9.96-1.82,5.98-12.95,2.26-31.34,10.71-59.42-6.08,3.05-13.15,17.82-21.26,44.31-.87,.75-2.06,1.6-3.56,2.53l4.14,14.41Z" style="fill:#6d96ce; fill-rule:evenodd;"/><path d="M1304.77,397.9c-8.43,28.09-4.73,46.47-10.71,59.42,1.21,.14,2.46,.4,3.76,.79,16.77-6.55,30.69-10.87,41.8-12.97,.71-6.79,2.49-17.54,5.31-32.27-1.15,9.5-1.8,20.41-1.9,32.73,1.33,.16,2.67,.48,4,.95-7.54,.04-22.87,4.26-46.03,12.67l-.18,.06c2.69,2.89,3.84,6.63,3.52,11.25-.04,.45-.08,.91-.14,1.39,13.98-2.06,25.34-4.24,34.07-6.51,7.17-1.9,12.57-3.84,16.16-5.88,9.46-15.74,10.95-36.05,4.45-60.94-3.52-4.49-11.36-6.16-23.56-5.01-12.69,10.71-18.51,11.23-17.42,1.54-5.56,.16-9.92,1.07-13.13,2.77Z" style="fill:#6d96ce; fill-rule:evenodd;"/><path d="M1304.37,398.12c-7.52,15.6-8.83,47.32-12.29,50.76-1.31,1.58-4.4,3.52-9.27,5.8l.1,.3,1.19,4.16c2.99-1.66,6.3-2.26,9.96-1.82,5.98-12.95,2.26-31.34,10.71-59.42-.12,.08-.26,.14-.4,.22Z" style="fill:#466fb5; fill-rule:evenodd;"/><path d="M1237.59,477.14l75.63,3.13c3.88,.18,6.3-2,6.97-5.78l-85.1-3.56h-.24c-.83-.04-2.04,.32-1.64,2.61,.34,1.9,2.32,3.5,4.39,3.6Z" style="fill:#859ac6; fill-rule:evenodd;"/><path d="M1225.2,430.31l48.86,2.04c1.29,.06,2.67,1.17,3.05,2.51l10.35,35.9c.38,1.31-.36,2.34-1.68,2.3l-48.86-2.04c-1.29-.06-2.67-1.17-3.05-2.48l-10.35-35.93c-.38-1.31,.36-2.36,1.68-2.3Z" style="fill:#c4d1eb; fill-rule:evenodd;"/><path d="M1229.57,444.91l6.37,22.08c.3,1.09,1.47,2.12,2.63,2.16l44.57,1.86c1.13,.04,1.66-.85,1.35-1.88l-4.24-14.75c-3.68,.44-7.5,.69-11.44,.69-2.95,0-5.86-.14-8.67-.38-.55,1.5-1.96,2.53-3.8,2.53-2.32,0-4.53-1.66-5.31-3.86-8.53-1.74-15.94-4.69-21.46-8.45Z" style="fill:#859ac6; fill-rule:evenodd;"/><path d="M1214.92,483.41c3.74-2.42,6.63-4.67,8.67-6.75,3.15,1.41,6.18,2.71,9.05,3.88,6.93-.89,15.05-1.76,24.37-2.59l-19.42-.81c-2.06-.1-4.04-1.7-4.39-3.6-.4-2.28,.81-2.65,1.64-2.61h.24l1.84,.08c-1.29-.06-2.67-1.17-3.05-2.48l-5.11-17.76c-3.11-.18-5.88-.24-8.28-.18-13.72,4.97-25.52,25.36-51.02,42.31,.4,4.47,2.61,7.29,6,10.12,13.4-5.72,26.85-12.1,34.73-16.71,1.7-.99,3.29-1.96,4.73-2.91Z" style="fill:#223f81; fill-rule:evenodd;"/><path d="M1142.18,494.8c10.16,8.93,17.68,14.35,22.12,16.41,4.79,2.22,6.14,.53,7.31-5.07-13.36-4.24-6.1-7.17-11.11-10.53-5.35-.32-11.48-2.83-18.31-7.52-4.3-.44-4.81,2.2-.02,6.71Z" style="fill:#20386f; fill-rule:evenodd;"/><path d="M1144.85,483.14c.44,3.13,.71,4.63,1.11,7.35h0l.22,.12,.08,.06,.12,.06,.2,.12h0l.22,.12,.08,.04,.12,.06,.18,.1,.02,.02,.2,.12,.08,.04,.53,.28,.08,.04,.12,.06,.16,.1h.06l.2,.12,.06,.02,.12,.08,.16,.08,.04,.02,.2,.1,.06,.02,.14,.08,.16,.08,.04,.02,.2,.08,.04,.04,.16,.06,.14,.06,.06,.04,.18,.08,.04,.02,.16,.08,.12,.04,.28,.14h.02l.28,.12,.08,.04,.2,.08h0l.18,.08,.12,.04,.08,.04,.2,.06h0l.18,.08,.1,.04,.1,.04,.18,.06v.02l.2,.06,.08,.04,.1,.04,.18,.06h0l.2,.08,.06,.02,.14,.04,.14,.06h.04l.18,.06,.06,.02,.12,.04,.2,.08,.18,.06h.04l.14,.04,.14,.04,.06,.02,.16,.06h.06l.14,.06,.12,.02,.06,.02,.18,.04,.02,.02,.16,.04,.12,.02,.06,.02,.18,.04,.36,.1,.18,.04h.02l.16,.04,.1,.02,.08,.02,.18,.02h0l.18,.04,.16,.04h.02l.16,.02h0l.18,.04,.08,.02,.1,.02c-.04-.34-.1-.71-.2-1.11-3.86-3.74-7.27-7.78-9.42-15.78-2.97-3.15-4.51-1.88-3.84,4.67h0Zm2.49,16.06c.77,4.3,1.74,8.3,2.67,10.37,2,4.38,5.72,2.12,9.78-.93-3.31-2.14-7.5-5.27-12.45-9.44Z" style="fill:#0e2952; fill-rule:evenodd;"/><path d="M1153.19,493.99l.14,.04h0l.2,.08,.08,.02,.12,.04,.14,.06h.04l.18,.06,.06,.02,.12,.04,.2,.08,.18,.06h.04l.14,.04,.14,.04,.06,.02,.16,.06h.06l.14,.06,.12,.02,.06,.02,.18,.04,.02,.02,.16,.04,.12,.02,.06,.02,.18,.04,.36,.1,.18,.04h.02l.16,.04,.1,.02,.08,.02,.18,.02h0l.18,.04,.16,.04h.02l.16,.02h0l.18,.04,.08,.02,.1,.02c-.04-.34-.1-.71-.2-1.11-3.86-3.74-7.27-7.78-9.42-15.78-.77-.83-1.46-1.35-2.02-1.56,.44,6.61,2.63,12.28,6.53,17.07Z" style="fill:#20386f; fill-rule:evenodd;"/><path d="M1170.33,505.71c1.19-1.64,2.53-2.87,3.98-3.7-2.32-2.12-3.94-4.36-4.59-7.42-2.65,1.39-5.23,2.2-7.72,2.42,1.8,2.69-1.56,5.27,8.33,8.69Z" style="fill:#f9af79; fill-rule:evenodd;"/><path d="M1311.89,507.49c16.31-1.03,22.95-13.23,22.63-28.49-5.38,.38-11.07,.46-17.03,.2-1.13,.77-2.57,1.15-4.26,1.07l-56.21-2.32c-9.31,.83-17.44,1.7-24.37,2.59-4.26,.55-8.1,1.11-11.48,1.68-2.4,.65-6,1.98-10.81,4l-.16,.1c-7.88,4.61-21.34,10.99-34.73,16.71-.38-.34-.79-.67-1.15-1.01-1.45,.83-2.79,2.06-3.98,3.7,.4,.14,.83,.28,1.29,.42-.02,.1-.04,.2-.06,.28,38.11,3.48,50.66-2.32,60.76-5.37,33.06,5.92,49,8.08,79.57,6.45Z" style="fill:#223f81; fill-rule:evenodd;"/><path d="M1330.66,374.48c-1.25-5.15-1.48-11.01-3.17-13.27-13.74-4.83-15.27,2.77-21.34,4.22-.08,1.88,.5,3.98,1.72,6.32-.45,8.33,1.51,13.46,5.88,15.42,1.09,1.17,2.91,1.86,5.46,2.06-.26,1.07-.99,4.91-1.29,5.9h0c-1.09,9.7,4.73,9.17,17.42-1.54l.06-.02c-.08-3.41-.36-6.02-.3-8.59,.04-1.76,.1-3.29,.2-4.67,4.55-4.73,5.46-8.59,2.71-11.52-3.62-1.72-5.7,.71-6.26,7.25-1.07-.42-.34-.04-1.07-1.58Z" style="fill:#f9af79; fill-rule:evenodd;"/><path d="M1306.15,365.43c6.06-1.45,7.6-9.05,21.34-4.22,1.7,2.26,1.92,8.12,3.17,13.27,.73,1.54,0,1.15,1.07,1.58,.57-6.55,2.65-8.97,6.26-7.25,2.75,2.93,1.84,6.79-2.71,11.52-.1,1.37-.16,2.91-.2,4.67,12.81-11.8,10.2-27.82,2.42-33.08,1.88,.18,3.82,.93,5.8,2.2-2.85-3.82-6.67-5.13-11.48-3.96,.53-2.69,.43-4.69-.3-5.98-.2,1.82-.57,3.23-1.07,4.22-3.09-2.81-9.01-3.48-15.09-1.19-7.84,2.95-15.94,10.16-19.03,8.02,.46,7.42,4.67,11.9,9.82,10.2Z" style="fill:#20386f; fill-rule:evenodd;"/><path d="M1327.28,386.88c-2.26,1.47-4.97,2.26-8.08,2.34-.14,.59-.42,2.04-.71,3.39,3.92-1.07,6.85-2.97,8.79-5.74Z" style="fill:#ed7d57; fill-rule:evenodd;"/><path d="M1233.33,471.75c-4.3-1.52-8-3.33-11.09-5.46-1.44,1.39-2.89,2.75-4.32,4.1-14,13.05-27.52,23.03-40.51,29.18-1.29,.63-2.57,1.19-3.84,1.72,.24,.24,.5,.51,.75,.73l1.15,1.01c2.65-1.13,5.29-2.28,7.9-3.45,10.59-4.71,20.51-9.56,26.83-13.25,.06-.02,.12-.06,.16-.1,1.66-.95,3.17-1.88,4.57-2.81,1.07-.69,2.06-1.35,2.99-2.02,2.32-1.68,4.22-3.25,5.68-4.73,3.15,1.41,6.18,2.71,9.05,3.88,3.9-.5,8.2-1.01,12.87-1.49,3.6-.36,7.44-.75,11.5-1.09l-11.5-.48-7.92-.32c-2.06-.1-4.04-1.7-4.39-3.6-.14-.83-.08-1.39,.12-1.8Z" style="fill:#20386f; fill-rule:evenodd;"/><path d="M1309.54,499.57c-9.5,2.67-22.73,3.01-39.66,.99-2.89-.32-5.68-.65-8.36-.99-5.8-.71-11.13-1.43-16-2.16-4.87-.75-9.29-1.5-13.23-2.26-2.89,1.7-6.22,3.17-9.98,4.43-1.39,.46-2.85,.89-4.38,1.31-11.88,3.17-27.48,4.44-46.78,3.84-.28,.3-.55,.65-.81,.99,.4,.14,.83,.28,1.29,.42l-.06,.28c23.18,2.12,36.9,.79,46.35-1.25,6.1-1.31,10.43-2.93,14.41-4.12,4.71,.85,9.07,1.62,13.19,2.3,24.71,4.14,40.15,5.54,66.36,4.14,7.31-.45,12.69-3.15,16.37-7.36,4.53-5.19,6.47-12.69,6.28-21.13-.73,.04-1.45,.1-2.2,.14-1.5,.08-3.01,.14-4.55,.18-.55,10.24-6.61,16.99-18.23,20.25Z" style="fill:#20386f; fill-rule:evenodd;"/><path d="M1255.03,449.14c1.84,0,3.54,1.47,3.86,3.29,.28,1.84-.97,3.31-2.77,3.31s-3.56-1.48-3.86-3.31c-.28-1.82,.95-3.29,2.77-3.29Z" style="fill:#859ac6; fill-rule:evenodd;"/><path d="M1319.36,381c-2.97,.85-4.65,1.21-7.62,1.78-1.19,.2,2.08,2.79,7.84-1.64,.12-.1,0-.2-.22-.14Z" style="fill:#eb795b; fill-rule:evenodd;"/><path d="M1317.93,364.56c-1.41,.5-1.01,1.64,.14,1.62,12.2-.3,3.37-2.87-.14-1.62Z" style="fill:#20386f; fill-rule:evenodd;"/><path d="M1311.38,365.33c1.52,.14,1.39,1.33,.28,1.6-11.92,2.69-3.98-1.96-.28-1.6Z" style="fill:#20386f; fill-rule:evenodd;"/><path d="M1315.34,378.01l-.08,.02c-1.33,.06-2.04,.08-2.42-.32-.34-.38-.26-.93-.1-1.94,.16-1.11,.42-2.79,.3-5.41,0-.2,.14-.34,.34-.36,.2,0,.34,.14,.36,.34,.1,2.69-.16,4.41-.32,5.56-.1,.65-.18,1.21-.06,1.35,.16,.18,1.11,.12,1.86,.08,.2,0,.36,.14,.36,.34,.02,.16-.1,.3-.24,.34Z" style="fill:#eb795b; fill-rule:evenodd;"/><path d="M1309.74,373.49c-.83,.14-2.04-2.99,.02-3.33,1.09-.16,1.37,3.11-.02,3.33Z" style="fill:#20386f; fill-rule:evenodd;"/><path d="M1320.41,371.93c-.85,.14-2.06-2.99,.02-3.33,1.09-.16,1.37,3.11-.02,3.33Z" style="fill:#20386f; fill-rule:evenodd;"/></g><g><path d="M1306.63,1006.95c-.77,.89-.87,1.94-.49,2.99h0c.71,2.02,3.09,4.2,5.84,6.38,.36,.32,.67,.57,.93,.81,.06,.08,.16,.12,.2,.16,.06,.08,.12,.12,.18,.16,2.57,2.34,1.6,2.91,6.2,7.68,5.23,5.5,8.87,5.58,9.88,5.09,.87-.4-.89-3.31-2.85-6.59-.1-.12-.18-.32-.3-.44-.24-.49-.5-.89-.77-1.33-2.3-3.92-1.72-5.78-1.15-11.6,.44-4.73,7.37-26.47,7.37-26.47l-10.06-1.74s-3.03,17.3-6.36,19.96c-1.8,1.46-3.8,1.46-5.52,2.5-.12,.08-.24,.16-.34,.24-.99,.65-1.98,1.29-2.77,2.18Z" style="fill:#f9af79; fill-rule:evenodd;"/><path d="M1306.63,1006.95c-.77,.89-.87,1.94-.49,2.99h0c.89,2.02,3.19,4.2,5.84,6.38,.36,.28,.67,.57,.93,.81,.06,.08,.16,.12,.2,.16,.06,.08,.12,.12,.18,.16,2.57,2.34,1.6,2.91,6.2,7.68,5.23,5.5,8.87,5.58,9.88,5.09,.87-.4-.89-3.31-2.85-6.59-1.03-.36-5.78-2.3-9.36-6.91-3.17-4.04-5.27-9.21-7.44-12.21-.12,.08-.24,.16-.34,.24-.99,.65-1.98,1.29-2.77,2.18Z" style="fill:#172b57; fill-rule:evenodd;"/><path d="M1387.74,1000.68c.65,3.11,5.09,2.59,10.02,1.37,4.93-1.21,3.8,.2,10.83-.52,7.03-.81,9.13-3.44,9.38-4.45,.16-.97-3.31-1.29-7.03-1.7-.48-.08-.93-.12-1.41-.16-4.2-.57-7.32-3.27-11.11-5.5-3.64-2.1-9.05-10.75-9.05-10.75l-9.62,.77s5.05,7.72,7.03,11.03c1.13,1.98,1.05,4.61,.93,6.59-.08,1.09-.12,2.22,.04,3.31Z" style="fill:#f9af79; fill-rule:evenodd;"/><path d="M1397.76,1002.06c4.93-1.21,3.8,.2,10.83-.52,7.03-.81,9.13-3.44,9.38-4.45,.16-.97-3.31-1.29-7.03-1.7v.04s-4.24,3.03-10.1,3.11c-4.77,.16-9.86-1.21-13.13-1.17-.08,1.09-.12,2.22,.04,3.31,.65,3.11,5.09,2.59,10.02,1.37Z" style="fill:#172b57; fill-rule:evenodd;"/><path d="M1366.32,858.88s2.26-5.62,4.81-5.86c2.55-.2,10.55-1.5,11.15-.36,.57,1.17,0,5.33-1.74,6.79-1.7,1.54-12.41,3.92-12.41,3.92l-1.82-4.49Z" style="fill:#f9af79; fill-rule:evenodd;"/><path d="M1350.76,938.98l-20.79,55.93s-3.19,.32-6.26-.53c-2.81-.85-6.04-2.95-6.04-2.95,0,0,5.15-53.75,14.63-64.98,9.44-11.15,18.47,12.53,18.47,12.53Z" style="fill:#20386f; fill-rule:evenodd;"/><path d="M1268.49,916.31s59.79-20.25,73.1-15.92c13.34,4.32,53.34,83.93,53.34,83.93,0,0-.89,1.21-3.31,2.14-2.34,.85-7.88,.81-7.88,.81,0,0-36.11-30.99-40.41-40.01-4.3-9.01-6.02-17.62-10.32-16.77-4.3,.89-55.48,21.09-67.1,9.05-11.62-12.04-8.57-27.72-8.57-27.72l11.15,4.49Z" style="fill:#223f81; fill-rule:evenodd;"/><path d="M1305.02,822.27c.95-1.98,2.02-5.5,2.55-11.72-.08,.65-1.15,8.49-4.18,12.93-12.43,8.16-36.27,35.44-35.78,40.57,0,0-8.41-14.22-8.55-14.31,0,0-15.48-19.68,2.87-30.96,9.31-5.74,9.27-13.09,8.89-19.48-.38-6.38,2.55-33.9,21.21-26.71,0,0,3.01-1.33,4.35-1.13,0,0-1.09,.22-1.64,.79,2.14-.12,5.25,.02,7.84,1.5,6.85,3.9,12.97,38.81,2.44,48.51Z" style="fill:#20386f; fill-rule:evenodd;"/><path d="M1302.63,823.89c.06,.08-5.98,3.19-10.57,1.94-4.26-1.17-7.07-6.71-7.01-6.71,1.82-.41,2.32-2.91,2.28-13.62l.83,.16,13.8,2.71s-.3,4.36-.3,8.49c-.02,3.39,.2,6.71,.97,7.03Z" style="fill:#f9af79; fill-rule:evenodd;"/><path d="M1301.97,808.37s-.3,4.36-.3,8.49c-7.74-.24-11.82-7.27-13.5-11.19l13.8,2.71Z" style="fill:#ed7d57; fill-rule:evenodd;"/><path d="M1286.73,804.15s-4.04-6.39-5.01-11.86c-.69-3.92,1.29-18.41,15.84-16.31,0,0,4.24,.42,8.22,3.09,3.15,2.14,7.72,6.75,2.61,19.4l-1.33,4.26-20.33,1.42Z" style="fill:#20386f; fill-rule:evenodd;"/><path d="M1304.57,812.25s-18.31,.32-18.31-11.07c-.02-11.4-2.38-19.01,9.29-19.7,11.66-.67,13.94,3.68,14.87,7.47,.93,3.8-1.11,22.97-5.86,23.3Z" style="fill:#f9af79; fill-rule:evenodd;"/><path d="M1303.88,781.21s-5.01,13.36-12.69,15.34c-7.68,1.96-11.01-.08-11.01-.08,0,0,5.88-4.69,7.09-12.85,0,0,12.83-8.79,16.61-2.4Z" style="fill:#20386f; fill-rule:evenodd;"/><path d="M1302.63,782.28s3.76,2.99,4.67,5.88c.91,2.91,1.31,8.87,3.05,8.67,0,0,3.78-9.07-.46-14.22-4.49-5.43-7.25-.32-7.25-.32Z" style="fill:#20386f; fill-rule:evenodd;"/><path d="M1254.46,916.59c.99,2.75,4,3.47,8.06,2.99,7.74-.89,19.21-6.06,27.5-9.7,12.61-5.46,18.35-.32,22.35-3.8,4.02-3.48-4.59-11.23,2.89-47.12,2.51-12.21-13.5-38.35-13.5-38.35,0,0-1.39,7.56-16.71-1.49-.55-.32-6.59,8.57-12.39,19.6-6.42,12.16-12.55,26.83-10.75,34.39,3.43,14.39-10.33,35.56-7.46,43.48Z" style="fill:#6d96ce; fill-rule:evenodd;"/><path d="M1301.76,820.61l9.44,38.75s1.17,2.1,3.03,5.09c4.32,6.99,12.33,18.87,17.46,20.08,2.53,.61,7.92-1.5,13.86-4.49,11.24-5.74,24.57-14.63,24.57-14.63,.85-5.17-3.64-9.38-3.64-9.38,0,0-26.95,10.14-29.64,10.35-5.82,.4-11.76-27.76-17.21-37.18-3.94-6.75-17.86-8.61-17.86-8.61Z" style="fill:#6d96ce; fill-rule:evenodd;"/><path d="M1254.46,916.59c.99,2.75,4,3.47,8.06,2.99,5.35-2.34,28.47-11.27,28.21-17.33-.38-9.01-4.45-9.3-1.58-20.37,2.3-8.93-19.05-25.46-22.45-29.06-6.43,12.12-6.59,12.73-4.79,20.29,3.43,14.39-10.33,35.56-7.46,43.48Z" style="fill:#466fb5; fill-rule:evenodd;"/><path d="M1314.23,864.46c4.32,6.99,12.33,18.87,17.46,20.08,2.53,.61,7.92-1.5,13.86-4.49-4.34,1.09-8.57,1.05-12.67,.65-4.44-.4-5.74-5.86-12.77-14.02-4.55-5.3-5.66-3.96-5.88-2.22Z" style="fill:#466fb5; fill-rule:evenodd;"/><path d="M1292.81,881.67s3.88-3.03,7.54-2.34c3.64,.73,5.44,3.23,5.29,4.41-.14,1.17-2.08,4.4-4.87,4.65-2.79,.32-10.75-1.7-10.75-1.7l2.79-5.01Z" style="fill:#f9af79; fill-rule:evenodd;"/><path d="M1285.05,819.12s-14.91,.89-20.08,8.08c-7.27,10.1-19.88,51.48-16.43,60.94l45.34-.16s1.09-5.17-.42-7.64c-1.54-2.46-26.39-6.5-27.54-7.64-1.13-1.13,14.35-22.39,14.35-25.78s4.79-27.8,4.79-27.8Z" style="fill:#6d96ce; fill-rule:evenodd;"/><path d="M1296.65,805.78c3.37,0,5.23-.16,8.51-.42,1.31-.1-1.38,3.54-8.69,.58-.16-.08-.06-.2,.18-.16Z" style="fill:#eb795b; fill-rule:evenodd;"/><path d="M1294.95,788.65c1.66,.12,1.56,1.41,.34,1.74-12.87,3.23-4.38-2.04-.34-1.74Z" style="fill:#20386f; fill-rule:evenodd;"/><path d="M1302.05,787.56c-1.54,.59-1.05,1.8,.18,1.74,13.26-.65,3.6-3.21-.18-1.74Z" style="fill:#20386f; fill-rule:evenodd;"/><path d="M1302.59,802.33l.08-.02c1.42-.3,2.18-.49,2.44-1.03,.24-.5,0-1.05-.45-2.06-.5-1.11-1.25-2.79-1.92-5.6-.04-.18-.24-.3-.45-.26-.2,.04-.34,.24-.28,.46,.67,2.83,1.44,4.57,1.96,5.7,.28,.67,.54,1.25,.44,1.41-.12,.24-1.11,.46-1.92,.65-.2,.04-.34,.24-.28,.45,.02,.18,.18,.3,.36,.3Z" style="fill:#eb795b; fill-rule:evenodd;"/><path d="M1306.13,795.64c.93-.12,1.29-3.72-.97-3.49-1.21,.14-.55,3.66,.97,3.49Z" style="fill:#20386f; fill-rule:evenodd;"/><path d="M1294.51,797.09c.93-.12,1.27-3.72-.97-3.48-1.21,.12-.54,3.64,.97,3.48Z" style="fill:#20386f; fill-rule:evenodd;"/></g><path d="M1776.33,587.02c-8.73,27.94-23.28,53.3-42.35,74.64-19.03,21.34-42.59,38.65-69.34,50.47-80.3,35.44-127.38,13.21-169.32-6.55-116.38-54.94-195.83,43.26-136.26,130.3,41.79,61.02-27.66,75.85-58.27,52.49l3.31-4.36c25.03,19.07,90.28,11.48,50.51-45.87-68.52-98.74,27.24-192.21,143.05-137.56,40.82,19.28,86.76,40.92,164.71,6.51,26.06-11.52,48.98-28.35,67.53-49.1,18.55-20.75,32.69-45.44,41.18-72.6l5.25,1.62Z" style="fill:#20386f; fill-rule:evenodd;"/><g><path d="M1759.56,619.33c29.38-44.37,65.87-76.23,109.55-95.59-14.51-13.42-25.62-40.31-33.26-80.64-32.61,19.03-61.55,27.54-86.84,25.52,21.86,60.52,25.38,110.75,10.55,150.71Z" style="fill:#9db2d9; fill-rule:evenodd;"/><path d="M1759.56,619.33c29.18-44.11,65.47-75.87,108.83-95.27-18.19-11.19-34.88-24.04-54.23-32.53l-54.59,127.8Z" style="fill:#20386f; fill-rule:evenodd;"/><path d="M1835.65,443.2c-32.53,18.97-61.42,27.44-86.64,25.42l.16,.36c27.24,6.1,44.53,11.92,64.98,22.55l21.5-48.33Z" style="fill:#20386f; fill-rule:evenodd;"/><path d="M1748.2,467.63l3.72,1.7c-3.31,26.99-7.03,48.11-11.32,63.3,1.21-17.44,5.21-34.59,4.12-45.04-4.2,9.72-9.7,21.34-13.82,28.41-7.07,11.94-14.14,20.19-21.21,24.71,14.14-10.35,34.87-63.28,38.51-73.08Z" style="fill:#20386f; fill-rule:evenodd;"/><path d="M1760.93,656.04c.53-11.07,4.85-17.32,12.93-18.71-14.67-1.25-25.58-7.42-32.65-18.49,.57,9.8-3.27,17.54-11.6,23.22,18.06-8.71,28.57-4.37,31.32,13.98Z" style="fill:#20386f; fill-rule:evenodd;"/><path d="M1735.88,674.31c1.94-7.44,5.74-11.07,11.44-10.89-9.82-2.91-16.33-8.61-19.56-17.11-1.01,6.73-4.69,11.44-11.15,14.12,13.5-3.37,20,1.03,19.28,13.88Z" style="fill:#20386f; fill-rule:evenodd;"/><path d="M1779.4,630.78c-.49-13.78,4.2-21.96,14.1-24.51-18.31-.06-32.45-6.59-42.31-19.58,1.7,12.08-2.3,22.04-12,29.92,21.46-12.63,34.96-8.3,40.21,14.16Z" style="fill:#20386f; fill-rule:evenodd;"/><path d="M1868.42,523.49l-4-.75c-12.85,23.94-21.98,43.36-27.32,58.21,9.13-14.93,15.76-31.26,22.67-39.16-2.18,10.36-4.4,23.01-5.09,31.18-1.17,13.82-.12,24.63,3.03,32.43-5.58-16.61,8-71.81,10.71-81.91Z" style="fill:#20386f; fill-rule:evenodd;"/><path d="M1719.59,690.15c1.94-7.46,5.74-11.07,11.44-10.89-9.82-2.91-16.33-8.61-19.6-17.11-.97,6.73-4.65,11.42-11.07,14.1,13.46-3.35,19.96,1.05,19.24,13.9Z" style="fill:#20386f; fill-rule:evenodd;"/></g><path d="M1242.86,363.81c-8.18,3.74-16.53,5.42-25.3,5.42-30.04,0-54.41-21.22-54.41-47.4s24.37-47.4,54.41-47.4,54.45,21.24,54.45,47.4c0,11.58-4.71,22.09-12.63,30.35,13.27,6.3,26.55,12.59,39.85,18.87-56.37-7.23-37.58-4.83-56.37-7.23Z" style="fill:#c4d1eb; fill-rule:evenodd;"/><path d="M1190.59,331c-2.95-2.57-3.25-7.03-.71-9.98,2.59-2.95,7.03-3.25,9.98-.69l10.93,9.52,22.47-30.15c2.32-3.13,6.73-3.78,9.86-1.48,3.13,2.32,3.78,6.75,1.45,9.86l-26.71,35.88c-.18,.3-.4,.59-.63,.85-2.57,2.95-7.03,3.25-9.98,.69l-16.67-14.51Z" style="fill:#fff; fill-rule:evenodd;"/><path d="M688.1,820.49l3.54-20.87-15.21-14.71c-1.76-1.68-.77-4.63,1.62-4.95l20.87-3.09,9.37-18.99c1.03-2.16,4.12-2.16,5.17,0l9.4,18.93,20.95,2.97c2.34,.38,3.27,3.29,1.56,4.97l-15.03,14.79,3.56,20.79c.48,2.43-2.04,4.2-4.2,3.11l-18.69-9.82-18.67,9.9c-2.18,1.13-4.67-.69-4.22-3.03Z" style="fill:#eac5a7; fill-rule:evenodd;"/><polygon points="691.28 820.53 711 810.07 710.88 759.73 701 779.72 678.95 782.99 695.01 798.51 691.28 820.53" style="fill:#d0a382; fill-rule:evenodd;"/><path d="M1079.28,474.19l3.54-20.83-15.21-14.71c-1.76-1.68-.77-4.63,1.62-4.95l20.89-3.11,9.38-18.97c1.03-2.16,4.12-2.18,5.17-.02l9.38,18.93,20.95,2.99c2.36,.36,3.27,3.27,1.58,4.97l-15.05,14.79,3.56,20.81c.48,2.36-2.04,4.18-4.2,3.07l-18.67-9.78-18.69,9.86c-2.16,1.13-4.65-.67-4.22-3.05Z" style="fill:#eac5a7; fill-rule:evenodd;"/><polygon points="1082.45 474.25 1102.17 463.85 1102.05 413.45 1092.19 433.46 1070.15 436.71 1086.19 452.25 1082.45 474.25" style="fill:#d0a382; fill-rule:evenodd;"/><g><polygon points="1446.21 828.33 1548.13 870.12 1520.12 905.84 1446.21 828.33" style="fill:#c4d1eb; fill-rule:evenodd;"/><polygon points="1562.51 853.27 1449.32 828.58 1590.24 838.84 1562.51 853.27" style="fill:#c4d1eb; fill-rule:evenodd;"/><polygon points="1562.51 853.27 1559.85 900.18 1548.13 870.12 1446.21 828.33 1449.32 828.58 1562.51 853.27" style="fill:#9db2d9; fill-rule:evenodd;"/><polygon points="1559.85 900.18 1535.72 885.96 1548.13 870.12 1559.85 900.18" style="fill:#859ac6; fill-rule:evenodd;"/><path d="M1586.07,896.71c-3.31-.4-2.59-5.25,.48-4.85l4.89,.53c3.27,.4,2.59,5.21-.53,4.85l-4.85-.53h0Zm167.1,194.29c2.14,0,3.23,2.67,1.74,4.12-.32,.49-1.05,.81-1.74,.81l-3.19-.04c-3.15,0-3.23-4.89,.08-4.89h3.11Zm-17.66-.4c2.91,0,3.31,4.85-.24,4.85l-4.93-.32c-3.52-.41-2.59-5.21,.32-4.85l4.85,.32h0Zm-19.24-1.86c3.07,.4,2.63,5.25-.73,4.85l.73-4.85h0Zm-18.67-4.12c2.91,1.13,1.78,5.5-1.54,4.69-1.62-.57-3.15-1.13-4.77-1.7-2.95-1.29-1.17-5.66,1.86-4.56,1.45,.61,2.95,1.09,4.44,1.58h0Zm-16.57-8.33c2.5,2.1-.69,5.82-3.07,3.8-1.37-1.13-2.67-2.3-3.88-3.64-2.18-2.59,1.74-5.58,3.68-3.23,1.01,1.13,2.1,2.1,3.27,3.07h0Zm-9.13-14.83c.41,3.52-4.49,3.76-4.85,.85-.32-1.78-.48-3.48-.57-5.21,0-3.35,4.89-3.19,4.89-.12,.04,1.54,.2,2.99,.52,4.49h0Zm1.29-18.26c-.73,2.95-5.54,1.98-4.73-1.29,.44-1.62,.93-3.27,1.45-4.81,1.17-3.23,5.7-1.29,4.65,1.54-.52,1.54-.97,3.03-1.37,4.57h0Zm6.71-17.9c-1.17,2.83-5.74,1.05-4.44-2.06,.73-1.5,1.42-2.99,2.14-4.49,1.82-3.11,5.78-.28,4.4,2.18-.73,1.45-1.37,2.91-2.1,4.36h0Zm8.73-17.38c-1.7,2.99-5.82,.36-4.28-2.26l2.26-4.32c1.7-2.95,5.82-.36,4.36,2.3-.81,1.37-1.58,2.87-2.34,4.28h0Zm9.13-17.34c-1.78,3.11-5.82,.28-4.36-2.22l2.1-4.32c1.7-2.91,5.66-.77,4.45,2.14l-2.18,4.41h0Zm7.92-18.23c-1.09,2.91-5.46,1.7-4.65-1.54,.53-1.54,.93-2.99,1.33-4.53,.81-3.15,5.54-1.94,4.77,1.17-.44,1.66-.93,3.27-1.45,4.89h0Zm2.46-20.33c.36,3.19-4.45,3.8-4.85,.61-.2-1.54-.44-3.03-.85-4.53-.77-3.15,3.96-4.28,4.77-1.21,.41,1.7,.73,3.39,.93,5.13h0Zm-7.52-19.15c1.9,2.71-2.14,5.45-3.96,2.87-.93-1.21-1.86-2.42-2.87-3.6-2.26-2.63,1.7-5.54,3.6-3.27,1.17,1.25,2.22,2.67,3.23,4h0Zm-14.75-13.94c2.5,1.82,.2,5.74-2.75,4.08-1.29-.89-2.67-1.74-4.04-2.55-2.67-1.54-.36-5.86,2.5-4.2,1.46,.85,2.87,1.74,4.28,2.67h0Zm-17.7-9.38c2.99,1.29,1.05,5.78-1.86,4.53-1.49-.65-2.99-1.21-4.44-1.78-2.99-1.13-1.33-5.74,1.7-4.57,1.54,.61,3.07,1.17,4.61,1.82h0Zm-18.71-6.51c2.95,.77,1.98,5.54-1.33,4.73l-4.69-1.29c-3.03-.81-1.94-5.54,1.25-4.77l4.77,1.33h0Zm-19.2-4.69c3.39,.85,1.94,5.54-.97,4.81l-4.77-.97c-3.07-.77-2.34-5.17,.93-4.77l4.81,.93h0Zm-19.36-3.44c3.03,.4,2.63,5.25-.73,4.85l-4.81-.73c-3.07-.36-2.63-5.25,.69-4.85l4.85,.73Z" style="fill:#859ac6; fill-rule:evenodd;"/></g><g><path d="M1688.88,1028.37c-3.88,7.03-12.69,9.62-19.72,5.78-7.03-3.84-9.62-12.65-5.78-19.72,3.84-7.03,12.65-9.62,19.68-5.78,7.03,3.84,9.62,12.65,5.82,19.72Z" style="fill:#4e66af; fill-rule:evenodd;"/><path d="M1711.35,1182.65s-4.12,5.5-5.9,7.76c-1.74,2.3-4.2,2.06-2.91,3.56,1.29,1.45,4.77,8.08,4.61,11.15-.16,2.99-2.26,22.43,1.86,23.92,4.16,1.45,7.92-6.83,11.84-18.95,3.88-12.08,7.15-11.6,7.19-20.33,.04-2.75-16.69-7.11-16.69-7.11Z" style="fill:#0e2952; fill-rule:evenodd;"/><polygon points="1706.98 1179.91 1711.35 1182.65 1703.75 1193.08 1699.47 1190.49 1706.98 1179.91" style="fill:#eda580; fill-rule:evenodd;"/><path d="M1493.9,1126.64s-2.67-6.22-3.72-8.81c-1.09-2.67,.36-4.61-1.54-4.24-1.9,.36-9.21,.04-11.72-1.58-2.5-1.62-17.9-13.01-21.21-10.18-3.31,2.75,1.86,10.02,10.26,19.32,8.32,9.25,6.26,11.76,13.66,16.12,2.26,1.33,14.26-10.63,14.26-10.63Z" style="fill:#0e2952; fill-rule:evenodd;"/><polygon points="1497.61 1124.87 1493.17 1127.05 1488.48 1115.49 1492.72 1113.35 1497.61 1124.87" style="fill:#eda580; fill-rule:evenodd;"/><path d="M1622.04,1071.52c.52,2.43,1.21,6.75,1.86,11.72,.24,2.02,.48,4.12,.77,6.26,1.25,10.3,2.3,20.81,2.3,20.81,0,0,7.03,41.87,14.47,48.66,14.67,13.42,61.99,36.29,61.99,36.29l11.44-16.65s-26.27-13.74-36.17-21.98c-11.43-9.54-20.45-12.57-20.29-24.93,.08-8.24,3.88-35.2,3.96-35.44,2.83-13.17,5.82-30.43,3.72-36.85-1.86-5.38-44.05,12.12-44.05,12.12Z" style="fill:#223f81; fill-rule:evenodd;"/><path d="M1554.96,1071.04c4.49-4.81,22.79-12.69,34.67-16.73,18.83-6.47,32.49-12.49,32.49-12.49,0,0,41.62,34.79,37.74,38.59-7.35,7.11-34.91,2.18-40.9,2.67l-11.96,.08s-11.88,.24-21.25,1.25c-12.53,1.38-13.54,5.86-25.46,12.61-10.67,6.02-66.68,33.5-66.68,33.5l-7.84-17.86s62.23-34.19,69.18-41.62Z" style="fill:#223f81; fill-rule:evenodd;"/><path d="M1594.07,963.51s3.23,3.15,5.34,4.49c2.1,1.37,2.14-7.84,2.14-7.84l-7.48,3.35Z" style="fill:#f9af79; fill-rule:evenodd;"/><path d="M1603.45,958.94s1.17-6.79,1.29-7.84c.16-1.05-1.13-3.72-2.87-6.63-1.74-2.91-5.38-6.06-5.94-6.14-.61,0-1.17-.32-2.46,.48-1.25,.81-1.9,2.18-1.9,2.18,0,0-2.02,.24-2.71,2.02,0,0-1.9,.32-2.3,2.42,0,0-1.86,.36-2.02,1.94,0,0,1.25,2.67,1.45,3.76,.16,1.13,4.36,7.64,8.08,12.37,0,0,3.88,2.06,9.38-4.57Z" style="fill:#f9af79; fill-rule:evenodd;"/><path d="M1596.42,939.1s4.2,7.51,3.07,8.36c-1.13,.81-2.02,.4-2.02,.4l.32,3.92s-1.21,2.71-3.8,.57c0,0-.89,2.63-3.15,.28,0,0-1.37,1.45-2.59,.57-1.21-.89-3.72-5.82-3.72-5.82,0,0-.24-1.46,1.86-2.1,0,0,.32-2.02,2.34-2.38,0,0,.49-1.62,2.67-1.98,0,0,1.54-3.39,4.53-2.59,0,0,.28,.48,.49,.77Z" style="fill:#f9af79; fill-rule:evenodd;"/><path d="M1604.66,950.86s-4.93-3.27-8.41-3.88c-.81-.16-1.62-.12-2.02,.57-.4,.65,.04,2.14,2.1,3.68,2.06,1.5,4.04,4.41,4.04,4.41,0,0,2.59,.97,4.28-4.77Z" style="fill:#f9af79; fill-rule:evenodd;"/><path d="M1674.09,977.45s-24.12,10.06-38.83,12.57c-4.61,.77-29.86-31.88-31.64-31.56-1.78,.36-8.61,9.74-8.61,9.74,0,0,31.16,41.26,34.07,41.42,2.91,.08,48.82-11.76,52.86-14.99,4.08-3.19,6.91-8.36,4.04-13.13-3.96-6.63-11.88-4.04-11.88-4.04Z" style="fill:#223f81; fill-rule:evenodd;"/><path d="M1671.54,962.38s-12.49,11.56-16.93,19.64c-4.37,8.08-9.78,32.61-12.08,37.22-2.3,4.61-20.41,22.59-20.41,22.59l41.87,39s8.16-12.12,16.28-27.64c8.12-15.52,10.47-30.59,14.1-40.01,12.53-32.05-8.49-52.05-8.49-52.05l-14.35,1.25Z" style="fill:#e0e8f5; fill-rule:evenodd;"/><path d="M1669.97,916.22s-8.04,5.29-6.67,7.56c1.09,1.82-6.43,7.19-7.56,8.16-1.09,.97,1.86,3.68,2.18,4.85,.33,1.17-2.59,11.84,.08,13.66,2.67,1.82,17.94,4.28,23.4,2.55,5.46-1.74,17.17-16.61,18.59-24.77,1.41-8.16-15.84-21.21-30.03-12Z" style="fill:#f9af79; fill-rule:evenodd;"/><path d="M1667.66,953.04s-.04,.93-.2,2.38c-.04,.61-.08,1.33-.2,2.06-.04,.57-.12,1.21-.2,1.82-.4,3.96-1.05,8.69-1.94,10.75-1.54,3.88,19.07-9.74,19.07-9.74,0,0,1.05-13.5,4.61-28.13,3.56-14.67-21.14,20.85-21.14,20.85Z" style="fill:#f9af79; fill-rule:evenodd;"/><path d="M1668.31,917.4s.24-10.27,10.95-12.21c10.67-1.94,18.79,16,20.12,17.22,1.33,1.25,9.86,6.67-2.99,19.68-11.32,11.44-11.4,10.55-11.4,10.55,0,0,.89-8.32-.08-10.34-1.54-3.23-7.31-5.74-7.31-5.74,0,0,6.42-5.58,2.83-8.81-3.6-3.19-7.15-9.62-12.12-10.34Z" style="fill:#20386f; fill-rule:evenodd;"/><path d="M1684.15,934.93c.85-.81,4.28-4.28,6.51,.08,2.26,4.28-7.68,8.97-8.41,8.73-.65-.24-5.5-2.42,1.9-8.81Z" style="fill:#f9af79; fill-rule:evenodd;"/><path d="M1684.35,958.17s-12.53,7.96-19.24,8.93l-2.67,8,23.44-13.98-1.54-2.95Z" style="fill:#e0e8f5; fill-rule:evenodd;"/><polygon points="1622.12 1041.82 1625.92 1037.98 1667.06 1076.01 1663.74 1081.22 1622.12 1041.82" style="fill:#9c7357; fill-rule:evenodd;"/><path d="M1654.73,989.61c-.48,3.23-1.01,6.43-1.66,9.66h0c-1.37,7.03-3.07,13.98-4.93,20.65-.65,2.38-1.29,4.73-2.02,6.99-8.28,27.4-4.85,52.61-4.85,52.61,0,0,20.61,9.09,26.99,8.33,0,0,14.06-29.1,22.51-59.81,.65-2.43,1.25-4.77,1.82-7.19h0c8.89-26.35,7.44-50.03-6.71-59.73-.48,.16-28.69,11.56-31.16,28.49Z" style="fill:#20386f; fill-rule:evenodd;"/><path d="M1690.17,1030.22s-11.88,30.15-10.71,61.1c.16,4.2-24.77-6.55-24.77-6.55l35.48-54.55Z" style="fill:#20386f; fill-rule:evenodd;"/><path d="M1667.66,953.04s-.04,.93-.2,2.38c-.04,.61-.08,1.33-.2,2.06,9.62-1.38,13.21-4.2,13.33-4.28-4.45,.61-12.93-.16-12.93-.16Z" style="fill:#ed7d57; fill-rule:evenodd;"/><path d="M1664.96,967.59s-4.28,4.12-4.93,6.18c-.24,.77,2.59,.93,2.59,.93l2.34-7.11Z" style="fill:#466fb5; fill-rule:evenodd;"/><path d="M1623.9,1083.24c.24,2.02,.48,4.12,.77,6.26l24.77-5.54c-.16,.04-3.07,.24-6.79,.32-3.8,.12-18.75-1.05-18.75-1.05Z" style="fill:#20386f; fill-rule:evenodd;"/><path d="M1678.21,980.03s15.88,33.38,19.6,49.22c1.17,4.97,1.5,48.82,2.06,50.67,.48,1.94,15.8,4.44,15.8,4.44,0,0,.77-54.23,.69-57.46-.08-3.19-20.93-56.01-24.73-60.21-3.8-4.2-5.54-3.48-10.51-.04-7.03,4.81-2.91,13.38-2.91,13.38Z" style="fill:#223f81; fill-rule:evenodd;"/><path d="M1660.51,973.57s-6.99,19.2,7.64,28.69c13.09,8.45,29.22,26.03,32.85,34.79l4.2,11.27,3.07-10.26s2.1-17.7-38.96-37.58c0,0-13.58-4.33-6.02-27.88,0,0-2.63,0-2.79,.97Z" style="fill:#6d96ce; fill-rule:evenodd;"/><polygon points="1737.05 1104.42 1732.89 1169.72 1661.72 1160.75 1671.42 1103.04 1737.05 1104.42" style="fill:#e5bb9a; fill-rule:evenodd;"/><path d="M1744.93,1161.92c-5.78,1.98-9.17,4.81-12.04,7.8l4.16-65.3h3.23l4.65,57.51Z" style="fill:#9c7357; fill-rule:evenodd;"/><path d="M1737.05,1104.42l-8.81,26.03c-1.29,2.91-2.54,5.41-7.35,4.93l-45.71-3.88c-4.08-.32-4.12-2.38-4.08-5.17l.48-23.28,65.47,1.37Z" style="fill:#9c7357; fill-rule:evenodd;"/><path d="M1703.47,1130.36l-11.6-1.01c-.65-.04-1.29,.36-1.41,1.01l-1.82,10.35c-.08,.61,.32,1.21,.93,1.29l12.08,1.45c.65,.08,1.29-.36,1.37-1.01l1.37-10.79c.08-.65-.28-1.25-.93-1.29Z" style="fill:#fff; fill-rule:evenodd;"/><polygon points="1701.24 1133.11 1700.35 1140.38 1691.87 1139.33 1693.08 1132.38 1701.24 1133.11" style="fill:#9c7357; fill-rule:evenodd;"/><path d="M1723.39,1104.13c-.65-2.54-2.26-4.69-4.53-6.38-.93-.77-2.02-1.41-3.15-1.94-.65-1.82-4.77-3.39-9.78-3.68-5.37-.32-9.86,.93-10.3,2.79-.36,.16-.69,.28-1.01,.44-3.39,1.66-5.98,4.28-6.87,8.04l2.5,.04c.81-2.75,2.83-4.69,5.42-5.94,.32-.16,.69-.32,1.05-.49,1.7,1.25,4.93,2.22,8.73,2.47,4.04,.2,7.52-.4,9.21-1.54,1.05,.49,1.94,1.05,2.79,1.7,1.58,1.17,2.79,2.67,3.43,4.45l2.51,.04Z" style="fill:#9c7357; fill-rule:evenodd;"/><path d="M1713.41,1103.61s1.01-1.5,1.13-2.38c0,0,.12-1.62,.24-2.79,.04-.32,.12-.65,.12-.85,.24-.85,.97-2.63,.93-4.81-.04-1.62-.57-6.26-.85-8.49-2.1-.4-8.81-1.62-12.53-2.87-1.46,2.43-6.3,10.95-6.51,12.65,0,.24-.04,.4-.04,.61,0,1.74,.73,2.99,.85,3.92,.04,.33,.69,3.56,1.54,4.04,1.21,.69,2.3,.65,3.19,.24,0,0,2.42,1.17,4.2,.77,0,0,2.18,1.17,4.2,.04,0,0,2.38,.97,3.52-.08Z" style="fill:#f9af79; fill-rule:evenodd;"/><path d="M1663.26,930.53c.73,.53,3.36-1.98,1.62-3.19-.97-.69-2.79,2.34-1.62,3.19Z" style="fill:#20386f; fill-rule:evenodd;"/><path d="M1666.01,924.35c-1.17-.81-1.86,.16-1.13,1.05,.16,.24,4.28,4.61,4.28,4.16,0-.93-.85-3.76-3.15-5.21Z" style="fill:#20386f; fill-rule:evenodd;"/><path d="M1658.09,940.51c-.16,9.01,7.19,4.85,6.22,4.08-5.01-3.96-6.22-5.21-6.22-4.08Z" style="fill:#fff; fill-rule:evenodd;"/></g><path d="M493.73,573.2h225.55c-1.62-6.85-7.78-11.96-15.13-11.96-.32,0-.71,.02-1.05,.06-3.56-8.73-12.12-14.87-22.12-14.87-4.38,0-8.47,1.17-12,3.23-4.3-14.18-17.48-24.51-33.06-24.51-3.17,0-6.24,.42-9.15,1.23-7.56-16.65-24.33-28.25-43.8-28.25-23.1,0-42.39,16.31-47,38.03-.4-.02-.79-.02-1.17-.02-14.81,0-27.01,11.07-28.81,25.38-6.04,1.11-10.85,5.74-12.25,11.68Z" style="fill:#fff; fill-rule:evenodd;"/><path d="M1644.34,863.17h225.57c-1.62-6.87-7.76-11.96-15.11-11.96h-1.05c-3.56-8.73-12.12-14.87-22.15-14.87-4.36,0-8.49,1.21-12,3.23-4.33-14.14-17.46-24.49-33.06-24.49-3.19,0-6.26,.44-9.17,1.21-7.52-16.63-24.33-28.23-43.8-28.23-23.08,0-42.35,16.33-46.96,38.05-.41-.04-.81-.04-1.21-.04-14.79,0-27,11.07-28.77,25.38-6.06,1.13-10.87,5.74-12.29,11.72Z" style="fill:#fff; fill-rule:evenodd;"/><path d="M1435.26,577.93h225.57c-1.62-6.85-7.76-11.96-15.11-11.96-.32,0-.73,.02-1.05,.06-3.56-8.73-12.12-14.89-22.15-14.89-4.36,0-8.49,1.19-12,3.25-4.32-14.18-17.5-24.51-33.06-24.51-3.19,0-6.26,.42-9.17,1.23-7.52-16.67-24.33-28.25-43.81-28.25-23.07,0-42.35,16.31-46.96,38.03-.4,0-.81-.02-1.21-.02-14.79,0-26.99,11.07-28.77,25.38-6.06,1.13-10.87,5.74-12.28,11.68Z" style="fill:#fff; fill-rule:evenodd;"/><path d="M463.64,435.18h225.55c-1.62-6.85-7.76-11.96-15.11-11.96-.36,0-.71,.02-1.05,.06-3.56-8.73-12.14-14.89-22.14-14.89-4.36,0-8.47,1.19-12,3.25-4.28-14.18-17.46-24.51-33.06-24.51-3.15,0-6.24,.42-9.15,1.23-7.54-16.65-24.33-28.25-43.79-28.25-23.12,0-42.41,16.31-47.02,38.05-.38-.04-.77-.04-1.15-.04-14.81,0-27.01,11.07-28.83,25.38-6.02,1.13-10.83,5.74-12.25,11.68Z" style="fill:#fff; fill-rule:evenodd;"/><g><path d="M324.41,1129.07c-7.72,7.28-11.21,15.92-10.51,26.11,18.23,12.37,27.64,24,28.27,34.83-21.42-19.03-37.48-18.99-44.71-7.27,5.33,6.47,9.07,28.77,7.78,39.04-2.28,18.1,2.65,34.35,16.35,40.49,3.15,7.03,6.47,10.75,9.9,11.15-3.29,20.29-6.1,40.89-8.37,61.83,2.3,1.21,5.62,1.05,7.38-.12,.71-8.16,1.23-13.9,1.76-17.74,1.41-15.19,2.99-29.91,4.75-44.09,.85-.12,1.7-.24,2.53-.44,16.02-3.31,9.88-13.34,24.53-16.33,9.03-1.86,17.24-9.46,19.28-16.29-9.4-2.95-21.22-6.1-33.2-3.88,6.22-8.77,18.87-8.12,36.05-6.02,6.49-12.61,15.72-11.4,12.04-31.16-5.07-27.52,12.91-35.12,6.87-68.25-8.85-3.31-20.57-2.91-35.14,1.21,6.18-9.13,17.9-12.93,35.2-11.4-3.6-9.7-3.56-22.23-1.86-27.56-6.41-4.61-12.89-4.61-19.46,.08,2.93-5.01,6.73-7.92,11.4-8.61-.24-4.32-2.08-9.13-5.56-14.47-5.76,.12-12.14,1.41-19.13,3.84,3.19,2.1,4.22,5.86,3.11,11.31-3.84-4.53-9.52-5.98-16.99-4.53-1.58,19.68-18.99,27.64-19.3,36.13,10.26,9.05,16.26,18.87,18.02,29.58-10.45-8.97-20.77-14.79-30.98-17.46Z" style="fill:#b0c2e4; fill-rule:evenodd;"/><path d="M323.11,1335.25c2.26-20.93,5.07-41.54,8.37-61.83,11.84-76.74,32.49-155.99,50.47-189.12-23.98,56.54-40.55,134.25-49.71,233.09-.53,3.84-1.05,9.58-1.76,17.74-1.76,1.17-5.07,1.33-7.38,.12Z" style="fill:#9db2d9; fill-rule:evenodd;"/><path d="M353.54,1079.52c7.44,9.54,9.9,19.92,7.38,31.2-22.61,10.91-35.2,22.39-37.74,34.47,27.34-17.82,45.44-14.99,51.58-.61-7.11,6.35-15.11,30.83-15.4,42.59-.52,20.81-8.85,38.31-25.32,42.84-4.73,7.4-9.09,11.03-13.03,10.87,.28,23.44-.08,47.12-1.09,71.08-2.81,.93-6.51,.24-8.3-1.46,.59-9.29,.99-15.84,1.05-20.29,.99-17.34,1.72-34.11,2.16-50.43-.95-.24-1.86-.53-2.77-.89-17.48-6.46-8.85-16.73-24.85-22.59-9.84-3.6-17.78-13.58-18.93-21.62,11.07-1.7,24.93-3.23,38.05,1.29-5.52-10.91-19.88-12.33-39.58-12.85-5.15-15.28-15.72-15.6-8.24-37.18,10.39-30.07-8.57-41.75,3.88-77.99,10.55-2.26,23.66,.16,39.36,7.32-5.42-11.36-17.96-17.58-37.7-18.79,5.7-10.27,7.8-24.41,6.79-30.71,8-4.12,15.3-2.99,21.9,3.39-2.44-6.14-6.24-10.02-11.37-11.64,.99-4.85,3.9-9.94,8.73-15.36,6.45,1.13,13.42,3.64,20.87,7.6-3.94,1.78-5.76,5.9-5.42,12.2,5.07-4.44,11.72-5.17,19.9-2.18-1.58,22.39,16.69,34.35,15.58,43.93-13.09,8.45-21.54,18.47-25.32,30.19,13.27-8.28,25.9-13.09,37.84-14.39Z" style="fill:#c4d1eb; fill-rule:evenodd;"/><path d="M319.92,1311.97c1.01-23.96,1.37-47.64,1.09-71.08-.28-88.38-10.06-181.16-24.67-221.53,17.4,67.77,22.83,158.05,16.33,270.88-.06,4.44-.46,10.99-1.05,20.29,1.8,1.7,5.5,2.38,8.3,1.46Z" style="fill:#b0c2e4; fill-rule:evenodd;"/><path d="M299.51,1286.91h57.95c2.61,0,4.75,2.14,4.75,4.73v13.3c0,2.63-2.14,4.77-4.75,4.77h-57.95c-2.61,0-4.73-2.14-4.73-4.77v-13.3c0-2.59,2.12-4.73,4.73-4.73Z" style="fill:#b0c2e4; fill-rule:evenodd;"/><polygon points="300.02 1309.71 356.96 1309.71 351.36 1339.13 305.62 1339.13 300.02 1309.71" style="fill:#b0c2e4; fill-rule:evenodd;"/><polygon points="356.96 1309.71 300.02 1309.71 301.03 1315.04 355.95 1315.04 356.96 1309.71" style="fill:#9db2d9; fill-rule:evenodd;"/></g><g><path d="M2119.98,1302.03s-8.08-9.38-.49-15.36c0,0,5.5-3.39,10.02-3.07,0,0-6.38,10.67-4.32,11.76,2.06,1.05,6.26-12.45,6.26-12.45,0,0,12.61-1.25,16.65,.73,0,0-10.75,8.77-8.49,9.33,2.22,.49,13.86-8.16,13.86-8.16,0,0,11.68,2.02,11.07,9.17-.61,7.15-4.65,9.34-6.43,9.17-1.78-.24-12.12-4.2-12.37-2.75-.24,1.46,5.98,6.22,10.34,6.47,0,0-8.24,9.09-13.7,6.47-5.5-2.62-5.94-6.79-9.38-8.37-3.43-1.58-6.34-1.58-4.93,.04,1.41,1.58,7.6,3.15,9.58,6.59,1.94,3.43,3.72,5.78-1.98,4.97-5.7-.89-14.91-5.01-15.32-9.78l-.4-4.77Z" style="fill:#b0c2e4; fill-rule:evenodd;"/><path d="M2158.78,1294.19s-31.76-1.21-38.79,7.84c0,0-1.54,4.65-6.3,8.89l-.77,2.02s5.5-5.82,7.48-6.14c0,0-3.07-11.28,38.39-12.61Z" style="fill:#9db2d9; fill-rule:evenodd;"/><path d="M2113.68,1310.92s-6.87,5.05-7.31,14.06l1.25,.12s2.18-9.33,6.1-12.97c3.92-3.64-.04-1.21-.04-1.21Z" style="fill:#9db2d9; fill-rule:evenodd;"/><path d="M2091.77,1290.23s12.85-7.19,6.87-16.97c0,0-4.77-5.98-9.94-7.51,0,0,2.75,14.55,0,14.87-2.75,.36-1.86-16.41-1.86-16.41,0,0-13.5-6.47-18.83-5.98,0,0,8.41,14.22,5.66,13.82-2.75-.32-12.12-14.67-12.12-14.67,0,0-13.9-2.55-16.08,5.62-2.26,8.24,1.38,12.37,3.4,12.85,2.06,.49,15.24,.32,14.87,2.02-.32,1.74-9.21,4.45-14.19,2.91,0,0,5.46,13.54,12.65,12.85,7.19-.69,9.42-5.13,13.86-5.5,4.45-.32,7.72,.89,5.46,2.1-2.18,1.17-9.7,.36-13.34,3.39-3.56,3.07-6.47,4.97,.2,6.3,6.67,1.38,18.63,.57,21.01-4.61l2.38-5.09Z" style="fill:#c4d1eb; fill-rule:evenodd;"/><path d="M2051.77,1265.58s35.92,11.64,40.01,24.65c0,0-.16,5.82,3.43,12.45v2.59s-3.76-8.73-5.82-9.94c0,0,8.04-11.27-37.62-29.74Z" style="fill:#b0c2e4; fill-rule:evenodd;"/><path d="M2095.21,1302.67s5.54,8.41,2.38,18.67l-1.42-.4s1.37-11.27-1.5-16.93c-2.91-5.7,.53-1.33,.53-1.33Z" style="fill:#b0c2e4; fill-rule:evenodd;"/><path d="M2112.22,1280.29s-16.93-9.46-9.05-22.31c0,0,6.3-7.92,13.09-9.94,0,0-3.64,19.16,0,19.64,3.6,.44,2.51-21.66,2.51-21.66,0,0,17.78-8.57,24.77-7.88,0,0-11.03,18.71-7.44,18.27,3.6-.45,16-19.4,16-19.4,0,0,18.27-3.35,21.22,7.48,2.91,10.79-1.86,16.17-4.53,16.89-2.71,.65-20.04,.44-19.64,2.67,.48,2.26,12.2,5.9,18.75,3.88,0,0-7.23,17.78-16.69,16.89-9.5-.89-12.41-6.79-18.27-7.19-5.86-.49-10.14,1.09-7.23,2.67,2.91,1.58,12.85,.52,17.62,4.53,4.69,4.04,8.57,6.55-.24,8.32-8.81,1.82-24.57,.69-27.72-6.06l-3.15-6.79Z" style="fill:#c4d1eb; fill-rule:evenodd;"/><path d="M2164.96,1247.84s-47.32,15.32-52.74,32.45c0,0,.2,7.68-4.53,16.49v3.35s4.93-11.48,7.68-13.05c0,0-10.59-14.87,49.58-39.24Z" style="fill:#b0c2e4; fill-rule:evenodd;"/><path d="M2107.7,1296.77s-7.27,11.07-3.15,24.57l1.9-.53s-1.82-14.83,1.98-22.35c3.8-7.44-.73-1.7-.73-1.7Z" style="fill:#b0c2e4; fill-rule:evenodd;"/><path d="M2120.26,1349.47c14.1-3.8,24.49-16.65,24.49-32h-66.23c0,15.36,10.39,28.21,24.49,32h17.26Z" style="fill:#b0c2e4; fill-rule:evenodd;"/><path d="M2107.05,1349.47c-14.14-3.8-24.49-16.65-24.49-32h8.24c0,15.36,10.34,28.21,24.49,32h-8.24Z" style="fill:#e0e8f5; fill-rule:evenodd;"/><rect x="2077.43" y="1317.46" width="68.09" height="1.05" style="fill:#9db2d9;"/></g><g><polygon points="665.58 620.88 587.44 627.91 598.98 658.1 665.58 620.88" style="fill:#c4d1eb; fill-rule:evenodd;"/><polygon points="581.2 613.43 663.39 620.4 565.38 597.79 581.2 613.43" style="fill:#c4d1eb; fill-rule:evenodd;"/><polygon points="581.2 613.43 573.14 645.92 587.44 627.91 665.58 620.88 663.39 620.4 581.2 613.43" style="fill:#9db2d9; fill-rule:evenodd;"/><polygon points="573.14 645.92 592.55 641.29 587.44 627.91 573.14 645.92" style="fill:#859ac6; fill-rule:evenodd;"/><path d="M566.41,626.46c1.96,.1,1.66,2.91-.08,2.79-.91-.02-1.84-.04-2.75-.02-2.06-.14-1.64-2.91,0-2.81,.95,0,1.88,0,2.83,.04h0Zm-12.77,165.1c-1.33,1.23-3.25-.81-1.88-2.08,.69-.61,1.33-1.23,2-1.88,1.43-1.33,3.23,.83,1.96,2-.69,.67-1.37,1.31-2.08,1.96h0Zm7.76-8.45c-.93,1.39-3.37,.02-2.26-1.66,.52-.75,1.07-1.47,1.56-2.24,1.01-1.56,3.35,0,2.36,1.54-.55,.79-1.09,1.58-1.66,2.36h0Zm5.72-10c-.85,1.72-3.19,.65-2.59-1.07,.34-.81,.65-1.68,.95-2.53,.63-1.78,3.23-.81,2.65,.89-.3,.91-.65,1.84-1.01,2.71h0Zm2.95-11.15c-.1,1.64-2.91,1.7-2.77-.32,.1-.85,.22-1.88,.24-2.71,.12-1.88,2.91-1.66,2.79,.14-.02,.95-.14,1.96-.26,2.89h0Zm-.02-11.52c.22,1.88-2.59,2.14-2.77,.36-.12-.91-.26-1.78-.42-2.69-.36-1.76,2.36-2.4,2.75-.52,.16,.95,.32,1.88,.44,2.85h0Zm-2.63-11.15c.59,1.88-2.16,2.55-2.65,.91-.3-.85-.61-1.74-.95-2.57-.67-1.76,1.94-2.73,2.61-1.05,.34,.89,.69,1.78,.99,2.71h0Zm-4.63-10.47c.89,1.74-1.66,2.91-2.44,1.35-.44-.81-.89-1.6-1.35-2.4-.95-1.84,1.68-2.87,2.4-1.41,.48,.83,.95,1.64,1.39,2.47h0Zm-6.1-9.6c1.11,1.5-1.17,3.13-2.24,1.66l-1.68-2.2c-1.13-1.58,1.19-3.13,2.22-1.72,.59,.75,1.15,1.5,1.7,2.26h0Zm-7.23-8.75c1.25,1.37-.81,3.25-2.04,1.9l-1.9-1.98c-1.33-1.45,.81-3.23,1.98-1.98l1.96,2.06h0Zm-8.16-7.88c1.39,1.19-.4,3.33-1.82,2.12l-2.12-1.78c-1.45-1.23,.42-3.31,1.76-2.16,.75,.59,1.45,1.21,2.18,1.82h0Zm-8.91-6.93c1.41,1.21-.12,3.27-1.68,2.24-.75-.56-1.52-1.13-2.26-1.7-1.54-1.29,.44-3.31,1.72-2.22l2.22,1.68h0Zm-8.69-6.91c1.37,1.17-.42,3.33-1.84,2.12-.71-.61-1.41-1.23-2.12-1.86-1.33-1.15,.4-3.33,1.88-2.08,.69,.61,1.37,1.21,2.08,1.82h0Zm-8-7.6c1.25,1.35-.81,3.25-2.06,1.9-.65-.71-1.29-1.41-1.9-2.12-1.17-1.27,.79-3.27,2.12-1.82,.57,.69,1.21,1.37,1.84,2.04h0Zm-6.79-8.59c.99,1.48-1.29,3.11-2.36,1.5-.51-.81-1.01-1.64-1.48-2.49-.85-1.7,1.68-2.91,2.47-1.31,.4,.77,.91,1.6,1.37,2.3h0Zm-4.22-9.74c.36,1.78-2.36,2.38-2.77,.55-.2-.99-.34-1.96-.42-2.95-.18-1.66,2.57-2.18,2.81-.18,.06,.87,.2,1.74,.38,2.59h0Zm.73-10.2c-.57,1.6-3.25,.85-2.59-1.05,.38-.93,.79-1.82,1.31-2.71,1.11-1.68,3.33,.04,2.42,1.43-.44,.77-.81,1.5-1.15,2.32h0Zm6.24-8.36c-1.25,1.17-3.27-.79-1.82-2.12,.73-.65,1.47-1.23,2.26-1.82,1.5-1.09,3.13,1.17,1.66,2.26-.71,.53-1.43,1.09-2.1,1.68h0Zm9.09-5.9c-1.64,.81-2.93-1.64-1.27-2.5,.77-.42,1.8-.85,2.61-1.21,1.45-.75,2.95,1.62,1.11,2.57-.67,.26-1.84,.79-2.44,1.15h0Zm10.18-4.08c-1.82,.57-2.59-2.14-.85-2.67,.89-.3,1.8-.57,2.71-.83,1.72-.51,2.61,2.14,.77,2.69-.87,.26-1.76,.52-2.63,.81h0Zm10.67-2.77c-1.78,.38-2.36-2.36-.54-2.73,.91-.2,1.88-.4,2.79-.55,1.7-.34,2.4,2.36,.48,2.77-.91,.16-1.82,.32-2.73,.51h0Zm10.93-1.68c-1.78,.2-2.14-2.57-.28-2.79l2.83-.26c1.72-.18,2.18,2.57,.22,2.79-.89,.04-1.86,.18-2.77,.26Z" style="fill:#859ac6; fill-rule:evenodd;"/></g><path d="M309.54,898.89h173.34c-1.25-5.25-5.98-9.21-11.64-9.21-.26,0-.54,.04-.81,.08-2.73-6.71-9.31-11.48-17.01-11.48-3.35,0-6.51,.93-9.21,2.5-3.29-10.91-13.44-18.83-25.4-18.83-2.44,0-4.81,.32-7.05,.97-5.8-12.85-18.67-21.74-33.64-21.74-17.76,0-32.59,12.53-36.13,29.26-.3,0-.61-.04-.89-.04-11.38,0-20.77,8.53-22.14,19.52-4.65,.85-8.34,4.4-9.42,8.97Z" style="fill:#fff; fill-rule:evenodd;"/><path d="M736.38,398.34h225.55c-1.62-6.85-7.78-11.94-15.11-11.94-.34,0-.71,0-1.05,.04-3.58-8.73-12.14-14.87-22.15-14.87-4.36,0-8.47,1.19-12,3.23-4.3-14.18-17.48-24.51-33.06-24.51-3.17,0-6.24,.42-9.17,1.25-7.54-16.67-24.31-28.25-43.79-28.25-23.09,0-42.39,16.29-47,38.03-.38-.02-.77-.04-1.17-.04-14.79,0-26.99,11.07-28.81,25.38-6.04,1.13-10.85,5.76-12.24,11.68Z" style="fill:#fff; fill-rule:evenodd;"/></svg>