<?xml version="1.0" encoding="UTF-8"?><svg id="a" xmlns="http://www.w3.org/2000/svg" viewBox="0 0 1442.09 1203.15"><path d="M519.9,32.45c168.24,0,392.88,97.02,514.34,203.16,160.75,140.5,321.49,49.04,347.23,523.76,22.91,422.51-262.94,45.74-665.99,197.09C312.43,1107.81-98.05,1168.76,23.75,679.08,145.56,189.39,128.98,32.45,519.9,32.45Z" style="fill:#e9eff8; fill-rule:evenodd;"/><path d="M1028.67,1039.54c95.9,0,173.66,18.26,173.66,40.78s-77.75,40.79-173.66,40.79-173.66-18.26-173.66-40.79,77.75-40.78,173.66-40.78Z" style="fill:#d0d9ee; fill-rule:evenodd;"/><path d="M412.51,1103.38c211.84,0,383.57,22.33,383.57,49.89s-171.73,49.88-383.57,49.88-383.58-22.33-383.58-49.88,171.73-49.89,383.58-49.89Z" style="fill:#d0d9ee; fill-rule:evenodd;"/><path d="M433.03,0c55.18,0,99.9,44.73,99.9,99.9s-44.72,99.9-99.9,99.9-99.89-44.72-99.89-99.9S377.86,0,433.03,0Z" style="fill:#d0d9ee; fill-rule:evenodd;"/><path d="M433.03,7.79c50.88,0,92.12,41.24,92.12,92.11s-41.24,92.11-92.12,92.11-92.11-41.24-92.11-92.11S382.16,7.79,433.03,7.79Z" style="fill:#fff; fill-rule:evenodd;"/><path d="M432.64,14.7c4.03,0,7.3,3.27,7.3,7.3s-3.27,7.3-7.3,7.3-7.3-3.27-7.3-7.3,3.27-7.3,7.3-7.3h0Zm-38.95,10.44c4.03,0,7.3,3.27,7.3,7.3s-3.27,7.3-7.3,7.3-7.31-3.27-7.31-7.3,3.28-7.3,7.31-7.3h0Zm-28.52,28.51c4.04,0,7.3,3.27,7.3,7.3s-3.26,7.3-7.3,7.3-7.3-3.26-7.3-7.3,3.27-7.3,7.3-7.3h0Zm-9.64,39.12c4.03,0,7.3,3.27,7.3,7.3s-3.27,7.3-7.3,7.3-7.3-3.27-7.3-7.3,3.27-7.3,7.3-7.3h0Zm9.64,38.78c4.04,0,7.3,3.27,7.3,7.31s-3.26,7.3-7.3,7.3-7.3-3.27-7.3-7.3,3.27-7.31,7.3-7.31h0Zm28.52,28.52c4.03,0,7.3,3.27,7.3,7.3s-3.27,7.3-7.3,7.3-7.31-3.27-7.31-7.3,3.28-7.3,7.31-7.3h0Zm77.9,0c4.03,0,7.3,3.27,7.3,7.3s-3.27,7.3-7.3,7.3-7.3-3.27-7.3-7.3,3.27-7.3,7.3-7.3h0Zm28.51-28.52c4.03,0,7.3,3.27,7.3,7.31s-3.27,7.3-7.3,7.3-7.3-3.27-7.3-7.3,3.27-7.31,7.3-7.31h0Zm10.44-38.94c4.03,0,7.3,3.26,7.3,7.3s-3.27,7.3-7.3,7.3-7.3-3.27-7.3-7.3,3.27-7.3,7.3-7.3h0Zm-10.44-38.95c4.03,0,7.3,3.27,7.3,7.3s-3.27,7.3-7.3,7.3-7.3-3.26-7.3-7.3,3.27-7.3,7.3-7.3h0Zm-28.51-28.51c4.03,0,7.3,3.27,7.3,7.3s-3.27,7.3-7.3,7.3-7.3-3.27-7.3-7.3,3.27-7.3,7.3-7.3h0Zm-38.95,145.36c4.03,0,7.3,3.26,7.3,7.3s-3.27,7.3-7.3,7.3-7.3-3.27-7.3-7.3,3.27-7.3,7.3-7.3Z" style="fill:#bcc9e7; fill-rule:evenodd;"/><path d="M437.79,94.58c9.31-12.94,7.72-31.12-4.76-54.53-12.48,23.41-14.06,41.59-4.76,54.53,1.27-1.12,2.93-1.82,4.76-1.82s3.5,.69,4.76,1.82Z" style="fill:#bcc9e7; fill-rule:evenodd;"/><path d="M439.33,103.26c15.49,6.65,37.17,5.45,65.03-3.61-28-8.86-49.69-9.92-65.06-3.17,.56,1.02,.87,2.18,.87,3.41s-.3,2.36-.83,3.36Z" style="fill:#bcc9e7; fill-rule:evenodd;"/><path d="M433.03,92.76c3.95,0,7.15,3.2,7.15,7.14s-3.2,7.14-7.15,7.14-7.14-3.19-7.14-7.14,3.2-7.14,7.14-7.14Z" style="fill:#aab9de; fill-rule:evenodd;"/><path d="M1074.31,336.73c47.18,47.47,26.67,94.96-8.19,183.14-34.87,88.18-41.03,413.79-41.03,413.79l28.71-4.53s-4.12-334.65,34.87-425.09c38.99-90.45,55.43-135.65,90.29-106.26,34.87,29.39-104.64-61.05-104.64-61.05Z" style="fill:#aab9de; fill-rule:evenodd;"/><path d="M1048.41,275.25c5.71-28.14,39.76-58.58,85.27-84.42-6.8,41.5-28.43,109.37-6.02,123.3,30.29,18.76,2.94-75.99,14.63-128.06,42.74-23,94.19-41.8,141.5-51.15-.09,.2-.14,.38-.19,.58-26.67,74.62-61.54,104-47.18,115.3,10.78,8.51,45.96-77.67,92.46-121.86,34.86-2.04,64.39,3.15,81.83,18.39,26.99,23.54,45.09,44.42,17.97,116.11-15.49,12.2-35.59,20.95-58.91,23.54-61.54,6.78-90.29,9.03-47.19,31.65,21.11,11.08,56.42-.61,85.13-7.76-9.28,18.89-20.74,40.27-34.64,64.62-8.83,15.44-18.52,28.85-28.84,40.45-19.83,4.19-37.13,4.22-46.28-.09-28.71-13.56-102.57-56.53-121.04-38.43-18.07,17.7,136.8,28.92,126.06,73.9-75.07,47.66-160.97,24.98-176.14-18.78-20.43-58.77-95.68-72.6-78.43-157.31Z" style="fill:#d0d9ee; fill-rule:evenodd;"/><path d="M1203.59,596.75c-82.1-67.84-166.18-4.53-209.29,67.83-43.07,72.35-12.32,235.14-12.32,235.14,0,0,16.43,0,16.43-6.77s-45.14-192.19,61.54-275.86c66.75-52.33,114.88-27.12,121.04-2.25,6.16,24.87-26.67,70.09-26.67,70.09l49.26-88.18Z" style="fill:#aab9de; fill-rule:evenodd;"/><path d="M1014.81,457.32c82.1,0,108.77,140.19,86.17,221.57-22.56,81.41-53.35,232.88-53.35,232.88l-20.51-22.6s77.97-212.54,59.5-307.5c-18.47-94.96-63.58-110.8-71.82-110.8s0-13.56,0-13.56Z" style="fill:#aab9de; fill-rule:evenodd;"/><path d="M1083.64,679.54c5.79-8.44,12.9-15.39,21.6-20.03-1.14,6.75-2.54,13.23-4.26,19.38-10.28,37.09-22.23,88.73-32.29,133.95-.86-5.79-2.31-14.72-4.44-28.48-.54-3.26-.9-6.78-1.22-10.52,8.06-30.13,15.67-62.95,20.6-94.3Z" style="fill:#aab9de; fill-rule:evenodd;"/><path d="M1106.1,680.21c155.9-72.36,73.76-171.65,211.24-106.07,9.7,4.61,21.46,16.27,33.28,32.32-12.23,3.83-27.04,6.59-43.56,3.86-41.03-6.79-26.67,29.39,41.07,38.44,12.72,1.7,23.09,4.06,31.69,7.38,32.29,68.28,46.82,158.1-21.46,189.32-13.45,6.17-30.06,9.69-48.59,11-21.06-18.44,5.17-125.21-27.35-110.48-31.15,14.16,9.82,91.52,4.21,111.01-30.79-.6-64.89-6.15-97.4-15.05-12.91-7.96-22.78-18.63-25.77-32.65-10.28-47.49,57.42-76.88,59.5-117.59,1.86-37.4-24.85,82.32-95.54,99.95-63.99-32.93-94.23-77.62-21.33-111.44Z" style="fill:#d0d9ee; fill-rule:evenodd;"/><path d="M994.98,552.29c16.43-38.44-26.67-47.5-24.58-18.11,1.77,26.07,1.99,89.37-22.24,106.61-41.8-5-98.67-23.56-141.68-51.85-.55-3.83,0-7.77,1.81-11.78,18.47-40.71,137.47-74.62,100.52-88.18-29.39-10.81-80.96,52.96-122.49,85.08-24.95-20.86-41.65-45.71-41.65-73.45,0-37.58,41.42-80.1,95-100.42,24.09,2.69,46.5,17.2,81.46,39.05,51.67,32.27,39.72-19.91-9.15-50.86,42.21,2.4,84.23,22.26,115.25,69.69,0,0-2.95,20.28,16.53,51.65,53.11,85.55-8.2,135.51-81.46,132.26,4.17-22.55,21.37-63.14,32.69-89.69Z" style="fill:#d0d9ee; fill-rule:evenodd;"/><path d="M1198.65,592.91c40.12,34.17,84.68,74.13,139.38,101.25,54.75,27.14,43.78,115.57,43.78,115.57,0,0,8.2-76.37-37.4-102.51-45.59-26.12-75.67-57.29-110.3-63.31-34.69-6.04-53.84-12.06-53.84-12.06,0,0,10.96-24.12,4.57-33.16-6.38-9.04,13.81-5.79,13.81-5.79Z" style="fill:#aab9de; fill-rule:evenodd;"/><path d="M1396.4,191.69c-146.8,43.21-254.39,146.72-274.5,171.85-20.06,25.1-20.06,32.15-20.06,32.15l15.54,32.16,7.29-4.03s-11.87-27.12,19.16-62.29c53.47-60.68,118.54-108.55,163.24-129.65,44.69-21.1,89.33-40.19,89.33-40.19Z" style="fill:#aab9de; fill-rule:evenodd;"/><path d="M991.13,1087.28h56.1c39.89,0,72.22-35.64,72.22-79.6v-142.02h-200.55v142.02c0,43.96,32.33,79.6,72.22,79.6Z" style="fill:#aab9de; fill-rule:evenodd;"/><rect x="918.9" y="891.04" width="200.54" height="15.55" style="fill:#fff;"/><rect x="918.9" y="919.41" width="200.54" height="9.15" style="fill:#fff;"/><polygon points="589.97 467.58 495.94 466.46 465.39 630.01 554.96 654.96 589.97 467.58" style="fill:#165396; fill-rule:evenodd;"/><polygon points="581.27 474.72 549.29 645.87 473.72 624.82 501.94 473.77 581.27 474.72" style="fill:#cbd4eb; fill-rule:evenodd;"/><polygon points="563.02 699.21 541.2 699.21 541.2 651.13 554.96 654.96 563.02 611.85 563.02 699.21" style="fill:#0f3d86; fill-rule:evenodd;"/><path d="M313.59,732.24h405.84c1.74,0,3.13-4.18,3.13-9.33v-4.66c0-5.14-1.4-9.32-3.13-9.32H313.59c-1.73,0-3.14,4.17-3.14,9.32v4.66c0,5.15,1.41,9.33,3.14,9.33Z" style="fill:#9d7558; fill-rule:evenodd;"/><path d="M159.5,396.6c-8.29,29.24,11.98,59.37,34.28,65.7,22.31,6.33,38.22-13.54,46.53-42.77,8.29-29.24-3.07-58.08-25.38-64.4-22.33-6.33-47.14,12.23-55.43,41.48Z" style="fill:#f4ae7c; fill-rule:evenodd;"/><path d="M284.59,963.17s-57.18,88.83-64.9,92.68c-7.72,3.86-27.04,4.83-19.79,19.31,7.25,14.48,10.14,71.45,16.9,74.35,6.75,2.89,64.69,9.65,56,0-8.71-9.66-14.04-4.83-18.43-22.21-4.37-17.38-10.54-50.2-2.34-56.95,8.21-6.76,58.42-67.59,58.42-67.59l-25.85-39.58Z" style="fill:#f4ae7c; fill-rule:evenodd;"/><path d="M572.43,1001.32s69.52,114.57,82.39,124.86c12.87,10.3,55.35,25.75,20.6,28.33-34.76,2.58-51.5-11.58-73.38-18.02-21.88-6.43-48.92-10.3-38.62-27.03,10.29-16.73,6.02-53.27-16.18-76.44-22.21-23.17,25.19-31.69,25.19-31.69Z" style="fill:#f4ae7c; fill-rule:evenodd;"/><path d="M217.68,735.64s172.07-4.5,240.31,51.49c39.91,60.51,136.45,239.03,143.96,258.7-5.15,5.15-34.12,14.44-46.99,13.15-37.98-45.28-88.17-84.43-108.14-119.94-24.59-43.77-32.17-65.66-72.08-69.52-39.92-3.86-130.01-16.73-157.06-16.73s0-117.15,0-117.15Z" style="fill:#152f54; fill-rule:evenodd;"/><polygon points="67.62 1154.82 76.64 1154.82 141.33 884.94 121.48 884.94 67.62 1154.82" style="fill:#9d7558; fill-rule:evenodd;"/><polygon points="337.84 1154.82 328.8 1154.82 254.59 875.4 274.43 875.4 337.84 1154.82" style="fill:#9d7558; fill-rule:evenodd;"/><path d="M119.65,723.86l100.04,17.27s132.95,1.22,193.72,12.54c55.3,10.3,63.45,73.12,0,159.62-36.03,49.14-66.5,88.34-128.82,132.54-15.84-11.63-21.89-16.04-26.29-44.03,4.52-6.18,16.19-44.88,19.81-52.46,34.46-72.04,80.46-98.24,81.11-105.32-7.72-12.55-204.59,65.41-243.73,19.56-37.38-43.79,4.15-139.71,4.15-139.71Z" style="fill:#0f3d86; fill-rule:evenodd;"/><path d="M115.5,497.36c26.35-3.7,53.18,1.31,78.29,19.48,21.94,22.35,46.75,59.22,45.21,120.03-1.93,77.24,11.95,82.2-2.52,103.44-60.39,24.94-163.68,132.11-139.37,17.22,17.62-83.19-38.63-145.19,6.73-237.47,3.7-7.51,8.31-14.8,11.66-22.7Z" style="fill:#6998d0; fill-rule:evenodd;"/><path d="M239.03,665.94c1.17,40.27,6.85,52.12,2.51,64.75-24.61,2.51-69.67,12.37-80.93,28.12-12.86,18.02-25.74,20.6-19.73,7.29,6.01-13.3,21.88-32.19-2.58-96.98-24.46-64.79-36.03-108.56-12.01-153.62l112.75,150.43Z" style="fill:#406fb5; fill-rule:evenodd;"/><path d="M115.5,497.36c16.22-38.41,20.2-81.57,20.2-81.57l42.5,12.55s-24.14,54.06-.98,73.37c4.94,4.1,10.65,9.08,16.58,15.12-25.11-18.17-51.94-23.18-78.29-19.48Z" style="fill:#f4ae7c; fill-rule:evenodd;"/><path d="M134.43,426.02c2.51-2.24,5.66-5.04,8.96-7.96l34.66,10.24,.06,.19c-.83,1.92-9.65,22.51-10.81,42.32-10.34-6.27-21.64-16.49-34.56-34.32,.69-3.96,1.24-7.49,1.69-10.47Z" style="fill:#e38034; fill-rule:evenodd;"/><path d="M145.36,509.43c43.76,15.3,38.89,61.4,79.16,129.37,20.85,35.18,40.19,34.64,40.19,34.64,0,0,48.87,.4,107.98-6.83,37.02-4.52,39.38,6.5,13.63,15.7-51.93,18.56-105.8,38.54-149.26,33.72-43.44-4.83-117.73-115.67-121.57-144.52-5.3-39.91,7.84-69.79,29.86-62.08Z" style="fill:#f19651; fill-rule:evenodd;"/><path d="M167.87,895.05c2.71,0,5.49-.04,8.35-.11,35.56-.88,59.78-5.8,79.23-9.76,23.02-4.67,35.7-7.25,50.65-.1,5.02,2.4,11.06,.27,13.46-4.77,2.4-5.04,.28-11.06-4.77-13.48-21.04-10.06-38.81-6.45-63.36-1.46-18.69,3.8-41.94,8.52-75.71,9.36-38.04,.94-61.3-4.77-73.19-17.94-10.61-11.77-13.74-31.4-9.85-61.76,1.34-10.29,2.66-18.84,3.82-26.37,3.27-21.17,5.44-35.16,2.76-56.71-2.48-20.1-9.15-46.9-24.59-98.92-1.6-5.35-7.23-8.4-12.57-6.81-5.35,1.59-8.41,7.22-6.82,12.57,28.9,97.29,27.43,106.8,21.24,146.78-1.18,7.67-2.52,16.35-3.88,26.89-4.72,36.65,.02,61.4,14.87,77.88,15.32,16.98,40.31,24.72,80.36,24.72Z" style="fill:#9d7558; fill-rule:evenodd;"/><path d="M567.7,1097.88c46.12,22.55,70.94,35.48,85.73,34.25,3.49-.29,6.39-.66,8.81-1.03,16.45,9.72,42.71,21.21,13.17,23.39-34.76,2.58-51.5-11.58-73.38-18.02-21.88-6.43-48.92-10.3-38.62-27.03,1.97-3.21,3.41-7.14,4.29-11.57Z" style="fill:#152f54; fill-rule:evenodd;"/><path d="M214.66,1057.74c1.14,36.52,6.16,72.7,28.49,79.54,5.93,1.81,11.33,2.07,16.09,1.44,3.53,4.34,7.82,4.39,13.57,10.79,8.68,9.65-49.25,2.89-56,0-6.75-2.9-9.65-59.86-16.9-74.35-5.94-11.89,6.03-14.67,14.75-17.42Z" style="fill:#152f54; fill-rule:evenodd;"/><path d="M361.68,667.89c29.6-.43,58.97-18.07,73.56-15.49,14.59,2.56,62.22,35.61,56.21,36.9-6.01,1.28-43.76-18.29-45.05-18.59-1.28-.29-9.44,13.56-29.61,18.65-20.17,5.09-.14-15.12-62.66,3.77-40.64,12.27,7.56-25.23,7.56-25.23Z" style="fill:#f19651; fill-rule:evenodd;"/><path d="M119.84,462.3l-4.35,35.06s38.31,2.27,57.38,13.01c19.06,10.72,47.2,41.71,47.2,41.71l-22.98-39.57-3.31-25.32-73.94-24.89Z" style="fill:#d0d9ee; fill-rule:evenodd;"/><path d="M136.15,505.22c28.47-5.34,41.63,20.16,60.08,61.79,18.45,41.63,49.95,92.18,56.22,98.7,6.26,6.51,105.56,0,105.56,0,0,0,3,28.75,0,32.18-2.99,3.43-20.16,3.01-20.16,3.01,0,0-6.87,5.48-13.31,9.82-6.44,4.34-60.93,12.5-86.24,11.21-25.33-1.29-48.5-3.43-51.93-7.3-3.43-3.86-72.52-110.27-76.81-148.47-4.3-38.19,12.09-58.2,26.6-60.93Z" style="fill:#d0d9ee; fill-rule:evenodd;"/><path d="M220.07,330.14c53.84,2.58,45.39,83.54,45.39,83.54,0,0-13.98,4.32-43.26-.51,2.24-8.68,1.28-30.89,1.28-30.89,0,0-3.4,18.02-7.72,28.97-6.2,2.84-13.19,.31-25.1-2.56-6.13,25.72-23.4,36.6-35.23,40.31-13.07,4.11-26.9,9-42.35,1.29-15.44-7.73-6.95-86.68,1.24-102.56,12.32-23.84,32.79-45.16,68.18-33.9,17.75,5.66,37.57,16.31,37.57,16.31Z" style="fill:#152f54; fill-rule:evenodd;"/><path d="M115.2,415.59l-11.13,15.19s-31.69-1.35-32.91,35.4c-.95,28.8-19.37,31.92-40.86,26.61-21.49-5.29-30.31,18.35-30.31,18.35,0,0,20.33-4.01,32.63,19.31,16.77,31.79,65.16,25.46,78.87-7.51,11.35-27.29-6.31-28.18,5.48-48.09,11.79-19.91-8.81-42.44-8.81-42.44l10.74-14.69-3.71-2.13Z" style="fill:#193059; fill-rule:evenodd;"/><path d="M138.24,459.04c3.5,0,7.3-.31,11.4-.92,18.75-2.81,43.91-13.48,45.9-73.43,.04-.97-.73-1.78-1.69-1.82-1.01-.04-1.8,.73-1.84,1.7-.8,24.81-5.75,43.18-14.63,54.59-6.77,8.68-15.77,13.6-28.27,15.47-17.51,2.63-29.12-.62-34.52-9.65-.51-.83-1.6-1.1-2.42-.61-.83,.49-1.1,1.58-.6,2.41,4.88,8.14,13.82,12.25,26.68,12.25Z" style="fill:#193059; fill-rule:evenodd;"/><path d="M393.42,732.24h-24.68v447.05h24.68v-447.05h0Zm270.86,0h-24.68v447.05h24.68v-447.05Z" style="fill:#9d7558; fill-rule:evenodd;"/><path d="M794.53,118.17c.45,63.01-50.26,114.46-113.28,114.91-63.01,.45-114.45-50.27-114.91-113.28-.45-63.01,50.27-114.47,113.28-114.92,63.01-.45,114.46,50.27,114.91,113.29Z" style="fill:#bcc9e7; fill-rule:evenodd;"/><path d="M712.54,64.98c.13,17.95-14.31,32.6-32.26,32.73-17.94,.13-32.6-14.3-32.73-32.26-.13-17.95,14.33-32.6,32.27-32.73,17.95-.13,32.6,14.31,32.73,32.27Z" style="fill:#fff; fill-rule:evenodd;"/><path d="M680.36,108.83h0c-33.3,.24-60.09,27.43-59.86,60.73h0c.06,8.74,7.19,15.77,15.94,15.71l88.94-.63c8.74-.06,15.77-7.2,15.71-15.94h0c-.24-33.3-27.43-60.1-60.73-59.86Z" style="fill:#fff; fill-rule:evenodd;"/><path d="M858.78,274.29c3.6-1.03,7.01-2.5,10.17-4.33,3.25-1.87,6.25-4.14,8.93-6.72,.53-.51,1.3-.58,1.9-.23l12.05,6.96,.07,.04c.68,.38,1.47,.45,2.19,.25,.75-.19,1.4-.67,1.82-1.38l.05-.09,8.47-14.69c.41-.7,.5-1.52,.3-2.27-.2-.75-.68-1.41-1.4-1.82l-.07-.06-11.96-6.9c-.63-.36-.91-1.08-.75-1.75h0c.44-1.78,.78-3.61,1.01-5.49,.21-1.82,.33-3.68,.33-5.59s-.12-3.76-.33-5.59c-.23-1.87-.57-3.7-1.01-5.49-.18-.74,.18-1.48,.85-1.81l11.94-6.9h0c.71-.42,1.2-1.08,1.4-1.82,.2-.74,.11-1.56-.3-2.27l-8.52-14.77h0c-.42-.71-1.08-1.19-1.82-1.39-.74-.2-1.55-.12-2.27,.29l-.08,.05-11.98,6.92c-.63,.36-1.4,.24-1.9-.23-2.68-2.58-5.67-4.84-8.93-6.73-3.18-1.84-6.6-3.31-10.23-4.35-.71-.2-1.16-.85-1.16-1.53v-13.91c0-.82-.34-1.56-.88-2.1-.53-.54-1.29-.88-2.1-.88h-17.07c-.81,0-1.55,.33-2.1,.88-.54,.54-.88,1.28-.88,2.1v13.91c0,.75-.52,1.38-1.22,1.55-3.59,1.04-7.01,2.5-10.17,4.32-3.25,1.88-6.24,4.15-8.93,6.73-.54,.53-1.37,.58-1.98,.19l-11.97-6.92c-.71-.41-1.52-.48-2.27-.29-.74,.2-1.4,.68-1.81,1.39l-.06,.08-8.49,14.7h0c-.4,.71-.49,1.52-.29,2.27,.2,.74,.68,1.41,1.38,1.82l12.05,6.95c.63,.36,.92,1.09,.75,1.76h0c-.43,1.78-.78,3.61-1,5.48-.21,1.83-.33,3.7-.33,5.59s.12,3.77,.33,5.59c.23,1.87,.57,3.7,1,5.49,.19,.73-.18,1.48-.83,1.81l-11.97,6.9c-.7,.41-1.18,1.07-1.38,1.82-.2,.73-.11,1.55,.29,2.26l.06,.09,8.47,14.7h0c.42,.71,1.08,1.18,1.82,1.38,.75,.21,1.56,.13,2.27-.29h0l12.05-6.96c.64-.38,1.44-.24,1.93,.26,2.68,2.58,5.66,4.83,8.89,6.7,3.18,1.85,6.61,3.31,10.24,4.35,.7,.21,1.15,.84,1.15,1.54v13.91c0,.82,.34,1.57,.88,2.11,.55,.54,1.29,.88,2.1,.88h17.07c.81,0,1.57-.33,2.1-.88,.54-.54,.88-1.29,.88-2.11v-13.91c0-.76,.52-1.38,1.23-1.55h0Zm5.61-25.72c-4.7,4.69-11.18,7.59-18.35,7.59s-13.65-2.9-18.34-7.59c-4.69-4.69-7.6-11.18-7.6-18.35s2.91-13.66,7.6-18.34c4.7-4.69,11.18-7.6,18.34-7.6s13.65,2.91,18.35,7.6c4.69,4.69,7.59,11.18,7.59,18.34s-2.91,13.66-7.59,18.35h0Zm13.49-51.36" style="fill:#d0d9ee; fill-rule:evenodd;"/><path d="M991.18,127.09c18.39,0,33.3,14.91,33.3,33.31s-14.91,33.3-33.3,33.3-33.3-14.91-33.3-33.3,14.9-33.31,33.3-33.31h0Zm-94.51,15.59v34.66h21.56c1.82,7.87,4.87,15.28,8.96,21.99l-15.37,15.37,24.5,24.5,15.25-15.25c6.67,4.16,14.04,7.3,21.89,9.2v21.75h34.65v-21.57c7.88-1.82,15.29-4.87,21.99-8.96l15.37,15.37,24.5-24.5-15.25-15.25c4.16-6.67,7.29-14.03,9.2-21.89h21.74v-34.65h-21.56c-1.82-7.87-4.87-15.28-8.96-21.99l15.37-15.37-24.5-24.5-15.25,15.25c-6.66-4.16-14.03-7.31-21.88-9.21v-21.74h-34.65v21.56c-7.88,1.82-15.29,4.87-21.99,8.96l-15.37-15.37-24.5,24.5,15.25,15.25c-4.17,6.67-7.31,14.03-9.2,21.88h-21.75Z" style="fill:#d0d9ee; fill-rule:evenodd;"/><path d="M622.24,429.94H305.65c-8.11,0-14.75-6.63-14.75-14.75v-113.12c0-8.11,6.64-14.75,14.75-14.75h316.59c8.12,0,14.75,6.64,14.75,14.75v113.12c0,8.11-6.63,14.75-14.75,14.75Z" style="fill:#d0d9ee; fill-rule:evenodd;"/><path d="M332.71,408.43v78.69l90.67-90.67s-88.84,11.98-90.67,11.98Z" style="fill:#d0d9ee; fill-rule:evenodd;"/><rect x="308.8" y="301.47" width="310.3" height="114.34" rx="12.51" ry="12.51" style="fill:#fff;"/><path d="M477.78,329.74h-140.16c-3.38,0-6.15-2.76-6.15-6.15s2.76-6.15,6.15-6.15h140.16c3.38,0,6.15,2.77,6.15,6.15s-2.76,6.15-6.15,6.15Z" style="fill:#d0d9ee; fill-rule:evenodd;"/><path d="M594.85,353.25H334.89c-1.88,0-3.41-1.54-3.41-3.41v-.07c0-1.88,1.53-3.42,3.41-3.42h259.96c1.88,0,3.42,1.54,3.42,3.42v.07c0,1.87-1.54,3.41-3.42,3.41Z" style="fill:#d0d9ee; fill-rule:evenodd;"/><path d="M594.85,366.63H334.89c-1.88,0-3.41-1.53-3.41-3.41v-.07c0-1.88,1.53-3.42,3.41-3.42h259.96c1.88,0,3.42,1.54,3.42,3.42v.07c0,1.88-1.54,3.41-3.42,3.41Z" style="fill:#d0d9ee; fill-rule:evenodd;"/><path d="M205.67,319.12l13.75,6.58c.65,.31,.93,1.09,.61,1.74l-36.22,75.68c-.31,.65-1.09,.93-1.74,.61l-13.75-6.58c-.65-.31-.93-1.1-.61-1.75l36.22-75.68c.31-.64,1.1-.92,1.74-.61Z" style="fill:#6998d0; fill-rule:evenodd;"/><path d="M175.19,372.59c15.39,0,27.86,12.47,27.86,27.86s-12.47,27.85-27.86,27.85-27.85-12.47-27.85-27.85,12.47-27.86,27.85-27.86Z" style="fill:#406fb5; fill-rule:evenodd;"/><path d="M175.19,388.04c6.85,0,12.41,5.55,12.41,12.4s-5.56,12.4-12.41,12.4-12.4-5.55-12.4-12.4,5.56-12.4,12.4-12.4Z" style="fill:#6998d0; fill-rule:evenodd;"/><path d="M179.65,410.85c3.44,15.19,12.33,36.75,18.96,44.33,6.5,7.44,14.57,11.22,24.2,11.36l-.04,3.31c-10.62-.15-19.51-4.32-26.65-12.49-7.01-8.01-16.14-30.06-19.71-45.79l3.23-.73Z" style="fill:#6998d0; fill-rule:evenodd;"/><path d="M227.73,462.41c3.29,0,5.97,2.58,5.97,5.76s-2.68,5.77-5.97,5.77-5.98-2.58-5.98-5.77,2.67-5.76,5.98-5.76Z" style="fill:#406fb5; fill-rule:evenodd;"/><circle cx="215.92" cy="175.72" r="94.47" transform="translate(7.89 360.7) rotate(-80.78)" style="fill:#bcc9e7;"/><path d="M226.29,157.59l-36.13,36.14c-7.09-3.77-16.09-2.67-22.06,3.3-7.32,7.32-7.32,19.19,0,26.51,7.32,7.32,19.19,7.32,26.5,0,5.98-5.97,7.07-14.97,3.31-22.05l35.91-35.92c12.06-12.06,19.09-3.03,30.1-14.05,4.74-4.74,5.57-8.76,5.26-13.48l-8.24,8.23-6.14-1.65-6.15-1.65-1.65-6.14-1.65-6.15,8.23-8.24c-4.72-.32-8.74,.52-13.48,5.26-10.97,10.97-2.13,18.17-13.83,29.87h0Zm-35.07,42.69c.76,.34,.41,1.63,.16,2.75,1.05,.11,2.23,.08,2.52,.95,.61,.56-.15,1.67-.75,2.66,.95,.44,2.08,.79,2.08,1.71,.38,.73-.68,1.54-1.57,2.27,.76,.73,1.71,1.42,1.41,2.29,.13,.82-1.15,1.23-2.22,1.64,.48,.94,1.15,1.91,.58,2.63-.14,.82-1.48,.79-2.63,.83,.15,1.05,.47,2.17-.29,2.67-.41,.73-1.67,.27-2.76-.06-.2,1.03-.26,2.21-1.15,2.43-.61,.56-1.66-.28-2.59-.96-.53,.92-.96,2.01-1.87,1.93-.76,.33-1.48-.81-2.14-1.75-.79,.7-1.56,1.59-2.4,1.22-.83,.06-1.13-1.25-1.45-2.35-.98,.4-1.99,.99-2.66,.37-.81-.21-.67-1.55-.61-2.69-1.05,.06-2.21,.29-2.64-.51-.68-.46-.13-1.68,.3-2.74-1.01-.28-2.18-.44-2.33-1.35-.51-.66,.42-1.63,1.18-2.5-.87-.6-1.92-1.12-1.77-2.03-.26-.78,.93-1.4,1.92-1.98-.63-.85-1.45-1.69-1.02-2.49,0-.83,1.33-1.03,2.46-1.25-.32-1.01-.83-2.07-.15-2.69,.27-.78,1.6-.54,2.73-.38,.03-1.06-.11-2.23,.73-2.59,.51-.65,1.68,0,2.71,.53,.37-.99,.63-2.14,1.54-2.22,.7-.44,1.59,.56,2.39,1.38,.68-.82,1.28-1.82,2.17-1.6,.8-.2,1.32,1.04,1.81,2.08,.9-.56,1.81-1.31,2.57-.8,.83,.07,.92,1.41,1.05,2.55,1.03-.23,2.13-.65,2.69,.08Z" style="fill:#fff; fill-rule:evenodd;"/><rect x="427.86" y="699.93" width="76.76" height="9.01" style="fill:#165396;"/><rect x="527.65" y="698.72" width="41.5" height="10.22" style="fill:#165396;"/></svg>