<?xml version="1.0" encoding="UTF-8"?><svg id="a" xmlns="http://www.w3.org/2000/svg" viewBox="0 0 1782.12 1535.22"><path d="M866.92,121.32c217.15,0,308.63,155.36,465.38,276.14,207.48,159.85,414.94,55.79,448.16,595.88,29.56,480.69-339.37,52.04-859.57,224.23C400.71,1389.76-129.08,1459.09,28.13,901.98,185.33,344.86,362.39,121.32,866.92,121.32Z" style="fill:#e0e8f5; fill-rule:evenodd;"/><path d="M298.14,1104.27H44.57c1.82-7.71,8.74-13.44,17-13.44,.39,0,.79,.01,1.19,.04,4.01-9.8,13.64-16.71,24.88-16.71,4.92,0,9.53,1.32,13.49,3.63,4.84-15.94,19.65-27.55,37.17-27.55,3.56,0,7.02,.49,10.3,1.39,8.48-18.73,27.34-31.75,49.23-31.75,25.97,0,47.66,18.33,52.84,42.76,.44-.01,.87-.03,1.31-.03,16.64,0,30.37,12.43,32.4,28.52,6.79,1.27,12.19,6.46,13.77,13.14Z" style="fill:#fff; fill-rule:evenodd;"/><path d="M816.37,736.69h-253.57c1.82-7.71,8.74-13.44,17-13.44,.4,0,.8,.01,1.19,.04,4-9.8,13.63-16.71,24.88-16.71,4.92,0,9.53,1.32,13.49,3.63,4.84-15.94,19.65-27.54,37.17-27.54,3.56,0,7.02,.48,10.3,1.38,8.49-18.72,27.34-31.75,49.23-31.75,25.97,0,47.66,18.33,52.84,42.76,.44-.01,.87-.03,1.31-.03,16.64,0,30.36,12.44,32.39,28.52,6.79,1.27,12.2,6.46,13.77,13.14Z" style="fill:#fff; fill-rule:evenodd;"/><path d="M1731.15,1032.61h-253.57c1.83-7.7,8.74-13.44,17-13.44,.39,0,.8,.02,1.19,.05,4-9.8,13.63-16.72,24.88-16.72,4.92,0,9.53,1.33,13.49,3.64,4.83-15.95,19.64-27.55,37.16-27.55,3.56,0,7.02,.49,10.3,1.39,8.49-18.73,27.33-31.75,49.23-31.75,25.96,0,47.66,18.33,52.83,42.75,.44-.01,.87-.03,1.32-.03,16.64,0,30.37,12.44,32.39,28.52,6.79,1.27,12.2,6.46,13.77,13.13Z" style="fill:#fff; fill-rule:evenodd;"/><ellipse cx="888.54" cy="1484.57" rx="588.45" ry="50.66" style="fill:#c4d1eb;"/><path d="M940.98,764.93c-4.78,.34-9.38-5.32-10.7-7.01-5.08-6.44-8.32-14.01-9.61-18.26,.99-2.81,2.02-6.38,3.1-10.69,18.39-12.48,20.9-21.73,7.54-27.72-2.7,1.51-6.04,6.16-10.03,13.95-3.18-.13-5.6-1.76-7.25-4.89,3.8-13.15,6.27-23.83,7.42-32.04-9.06-13.47-30.26-15.39-58.31-11.76-1.3,7.47-2.37,15.38-3.21,23.73-4.96,4.57-4.32,21.52,.25,41.05-2.28,11.1,4.57,17.17,20.57,18.18,.16,2.68-.09,5.77-.14,7.65-.04,1.7-.1,5.02-1.88,5.55l-2.97,.73c.3,39.7,20.63,47.34,65.22,1.52Z" style="fill:#f9af79; fill-rule:evenodd;"/><path d="M863.13,666.53c28.06-3.64,49.25-1.72,58.31,11.75-1.15,8.2-3.61,18.89-7.41,32.04,1.64,3.13,4.06,4.76,7.24,4.89,4-7.79,7.34-12.44,10.03-13.95,13.37,5.99,10.85,15.23-7.55,27.72-1.08,4.31-2.11,7.87-3.11,10.7,16.54-3.71,30.39-18.5,32.33-24.9,19.3-38.04-2.22-54.1-13.74-59.96-5.08-37.67-59.99-5.1-74.44-28.09-30.22,17.24-10.17,39.48-1.68,39.82Z" style="fill:#20386f; fill-rule:evenodd;"/><path d="M899.19,745.61c-4.49,2.22-10.63,3.5-18.44,3.87,.15,2.65,.04,5.69-.13,7.57,7.85-1.5,14.04-5.32,18.57-11.44Z" style="fill:#ed7d57; fill-rule:evenodd;"/><path d="M974.44,1508.55c17.42-6.14,18.83-15.12,28.22-19.5,9.46-4.42,10.54-12.29,1.3-20.83-6.84,5.45-15.31,12.17-19.8,8.61-3-2.37-13.16-2.21-15.17,1.24-8.86,20.58-21.17,14.06-23.6,23.43-.28,12.47,21.06,9.87,29.06,7.05Z" style="fill:#0e2952; fill-rule:evenodd;"/><path d="M823.42,1488.09c30.69-.49,53.63-.87,64.23-4.21,11.44-3.61,9.07-10.59,2.5-21.75-28.92,13.31-21.22-2.73-34.75-.7-9.51,7.66-23.59,12.79-42.24,15.39-7.89,5.82-4.68,11,10.26,11.26Z" style="fill:#0e2952; fill-rule:evenodd;"/><path d="M838.75,769.43c15.32-4.45,29.08-7.15,41.27-8.09,2.2,33.66,19.76,33.43,52.68-.71,31.7,2.66,37.91,3.07,55.49,8.78,38.06,36.35,41.56,78.3,61.45,126.24-22.02,.99-31.91,3.64-46.88,8.98-3.21-11.49-5.9-20.74-8.07-27.75,.61,63.21,.84,106.54,.7,129.94-72.84,28.86-132.84,18.98-157.34-3.5-.34-56.19-.81-100.68-1.4-133.45-8.71,10.27-16.79,18.23-24.23,23.88-17.85-20.47-29.96-28.71-40.08-40.78,22.42-36.81,54.54-71.06,66.42-83.53Z" style="fill:#6d96ce; fill-rule:evenodd;"/><path d="M691.96,831.01c38.26,15.9,65.05,29.03,80.37,39.41l6.8-10.07c6.33,6.34,13.55,12.56,22.36,21.58-8.14,8.53-16.89,15.54-27.08,21.46-26.58-2.84-55.97-22.97-88.16-60.4-10.01-1.99-17.38-5.62-22.1-10.88-.25-4.82,2.18-9.66,7.29-14.51-13.35-8.7-18.66-14.92-15.93-18.67,20.91,12.93,33.06,23.62,36.45,32.07Z" style="fill:#f9af79; fill-rule:evenodd;"/><path d="M838.05,1003.33c1.44,5.47-4.52,37.57-5.51,54.31-9.68,59.78-1.39,137.58,3.83,237.62,9.33,35.26,23.1,82.24,22.2,148.37,16.24,4.97,22.13,5.48,36.8,1.75,10.26-69.01,3.27-124.28-6-149.8,5.93-39.45,14.79-83.6,27.67-147.3,14.53,69.41,33.97,120.92,42.38,154.53,1.67,37.48,9.25,88.05,13.21,151.72,12.06,3.64,19.57,4.68,32.09,3.16,16.24-58.53,13.52-122.21,6.64-191.06-7.32-82.76,4.75-176.21-7.34-208.61-6.18-19.2-6.98-36.24-8.64-51.17-60.77,20.22-113.21,19.05-157.34-3.51Z" style="fill:#466fb5; fill-rule:evenodd;"/><path d="M984.18,942.62c3.9,.58,7.59,1.09,11.06,1.56,.18,27.88,.22,48.77,.15,62.66-3.44,1.54-8.28,3.32-12.06,3.77,.03-1.79,.58-5.93,.6-7.69,.24-21.33,.33-41.42,.25-60.29h0Zm-178.08-55.87c10.73-8.93,20.93-23.44,30.63-43.51-1.09,7-1.53,16.35-1.31,28.07-8.25,9.57-15.91,17.05-23.01,22.44-2.18-2.5-4.28-4.83-6.31-7h0Zm175.05-54.37c4.73,15.2,9.24,30.04,13.54,44.51,.12,12.21,.22,23.69,.31,34.42-3.13-.29-6.78-.49-11.12-.6-.45-29.67-1.37-55.79-2.73-78.33Z" style="fill:#466fb5; fill-rule:evenodd;"/><path d="M885.01,854.25h-80.18c-3.68,0-6.21,3.01-5.62,6.68l18,113.6c.58,3.67,4.06,6.68,7.74,6.68h80.19c3.68,0,6.21-3.01,5.63-6.68l-18-113.6c-.58-3.67-4.06-6.68-7.74-6.68Z" style="fill:#223f81; fill-rule:evenodd;"/><path d="M1042.24,896.08c3.48,14.06,4.92,26.92,2.08,43.98-8.65,12.57-43.58,5.54-133.5-9.48-3.21,2.94-9.89,5.87-20.01,4.56-9.41-2.35-9.86-4.8-20.4-14.75-2.56-7.74-2.04-13.66,1.57-17.73,11.88,6.99,18.13,10.7,31.51,11.15-3.56-9.16-4.1-15.08-1.61-17.74,4.57,3.66,7.54,9.16,8.91,16.51,70.89-3.08,89.59-2.68,99.03,2.28-1.03-4.46-1.93-8.36-2.73-11.74,11.04-3.76,20.02-5.94,35.15-7.03Z" style="fill:#f9af79; fill-rule:evenodd;"/><path d="M888.11,1446.99c-.72,6.02-.82,11.42-.31,16.19-24.2,10.52-20.09-1.62-29.76-1.93,2.43-4.28,4.01-9.74,4.73-16.39,10.55,3.02,16.56,3.7,25.35,2.12h0Zm112.79,11.09c0,4.38,.41,8.23,1.28,11.55-6.46,5.12-13.91,10.46-18.02,7.2-1.97-1.56-7.03-2.02-10.85-1.18,1.57-5.29,2.81-11.91,3.72-19.87,8.49,2.28,15.01,3.05,23.87,2.3Z" style="fill:#f9af79; fill-rule:evenodd;"/><path d="M832.54,1057.63c42.74,39.85,99.9,39.98,171.48,.38,12.08,32.4,.01,125.85,7.34,208.61,6.88,68.84,9.6,132.53-6.64,191.06-1.32,.16-2.59,.3-3.82,.4-8.86,.76-15.39-.01-23.87-2.3-1.41-.37-2.87-.79-4.4-1.26-3.96-63.67-11.54-114.24-13.21-151.72-8.41-33.61-27.85-85.12-42.38-154.53-12.88,63.7-21.75,107.85-27.67,147.3,9.26,25.52,16.26,80.79,6,149.8-2.67,.68-5.05,1.21-7.26,1.61-8.79,1.58-14.8,.9-25.35-2.12-1.32-.38-2.71-.79-4.2-1.24,.9-66.13-12.87-113.11-22.2-148.37-5.22-100.04-13.51-177.84-3.83-237.62Z" style="fill:#20386f; fill-rule:evenodd;"/><path d="M900,1397.96c-15.6,4.23-29.88,5.51-42.84,3.83-.28-3.42-.6-6.79-.94-10.08,14.22,1.85,28.91,.89,44.1-2.86-.08,2.99-.19,6.03-.32,9.11h0Zm113.94,11.87c-16.96,2.03-31.98,.91-45.06-3.37-.33-3.56-.66-7.08-1-10.53,14.68,4.78,30.35,6.43,47,4.92-.28,3-.6,6-.95,8.98h0Zm-42.87,22.4c-.27-3.53-.55-7.01-.84-10.45,13.09,3.58,26.95,4.73,41.56,3.45-.49,3.03-1.03,6.06-1.61,9.07-14.46,1.63-27.49,.94-39.11-2.07h0Zm-113.15-19.5c13.22,2.19,26.96,1.95,41.22-.71-.23,3.02-.49,6.08-.79,9.17-14.58,3.08-27.91,3.63-39.97,1.65-.12-3.42-.27-6.79-.46-10.11Z" style="fill:#0e2952; fill-rule:evenodd;"/><path d="M885.91,724.17c-8.52,.04-13.24-.26-21.52-.97-3.32-.29,3.5,8.95,21.98,1.45,.44-.18,.19-.49-.46-.49Z" style="fill:#eb795b; fill-rule:evenodd;"/><path d="M891.12,677.85c-4.14,.31-3.91,3.61-.84,4.38,32.6,8.17,11.09-5.16,.84-4.38Z" style="fill:#20386f; fill-rule:evenodd;"/><path d="M874.75,675.64c3.88,1.49,2.69,4.58-.47,4.44-33.57-1.64-9.11-8.15,.47-4.44Z" style="fill:#20386f; fill-rule:evenodd;"/><path d="M868.07,714.35l-.2-.05c-3.42-1.39-5.22-2.2-5.66-3.66-.41-1.33,.44-2.61,1.99-4.93,1.72-2.56,4.33-6.46,7.14-13.13,.2-.48,.77-.7,1.26-.51,.48,.2,.71,.76,.5,1.27-2.88,6.82-5.55,10.82-7.31,13.45-1.02,1.53-1.9,2.84-1.75,3.3,.2,.65,2.62,1.64,4.56,2.43,.49,.21,.73,.76,.52,1.27-.17,.41-.61,.64-1.05,.57Z" style="fill:#eb795b; fill-rule:evenodd;"/><path d="M865.89,693.53c-2.36-.24-3.24-9.42,2.47-8.8,3.05,.32,1.38,9.21-2.47,8.8Z" style="fill:#20386f; fill-rule:evenodd;"/><path d="M888.68,695.12c-2.36-.26-3.25-9.41,2.46-8.8,3.05,.33,1.39,9.21-2.46,8.8Z" style="fill:#20386f; fill-rule:evenodd;"/><path d="M1313.45,709.4l.04,5.96s-1.63,18.64,21.32,21.35c22.95,2.73,41.77,2.37,41.14-12.01-2.05-11.13-5.76-28.42-5.91-37.63-.07-3.42,.17-7.06,.81-11.16l-44.46-.89-13.1,2.14,.17,32.23Z" style="fill:#f9af79; fill-rule:evenodd;"/><path d="M1313.28,677.16l.17,32.23c4.72,2.2,10.05,3.54,16.03,3.54,20.44,0,33.66-14.99,40.56-25.86-.07-3.42,.17-7.06,.81-11.16l-44.46-.89-13.1,2.14Z" style="fill:#ed7d57; fill-rule:evenodd;"/><path d="M1374.24,668.76c-5.15,27.76-40.98,26.85-56.47,25.11-4.35-.48-7.1-1.04-7.1-1.04-4.92-1.31-7.65-9.05-8.93-19.19-2.52-20.06,.68-49.51,4.06-57.03,5.1-11.34,14.7-23.59,50.79-14.75,36.09,8.86,24.28,31.33,17.65,66.91Z" style="fill:#f9af79; fill-rule:evenodd;"/><path d="M1403.56,1490.82h-50.77c.39-2.65,1.67-10.76,4.05-18.21,.82-2.61,1.79-5.12,2.88-7.32,4.93-9.85,36.29-3.58,36.29-3.58,0,0,2.92,2.49,5.18,12.02,1,4.21,1.91,9.78,2.36,17.09Z" style="fill:#172b57; fill-rule:evenodd;"/><path d="M1250.14,1474.8c-.14,6.9-1,13.44-3.5,16.02h-100.42c1.28-3.63,4.89-9.09,15.2-10.77,11.72-1.89,29.99-7.53,40.63-18.81,3.8-3.99,6.65-8.72,7.88-14.24,4.73-21.03,39.06,6.45,39.06,6.45,0,0,1.39,11.07,1.16,21.36Z" style="fill:#172b57; fill-rule:evenodd;"/><path d="M1316.94,1247.42c-1.4,7.7-2.28,14.03-2.52,18.56-3.19,62.27-52.42,204.65-61.22,207.96-13.63,5.14-35.08-5.78-46.3-9.36-4.65-1.48-7.79-6.17-6.75-10.94,24.36-112.06,33.33-273.43,36.59-368.96,1.65-48.13,9.9-81.36,9.9-81.36,0,0,120.06-32.04,120.77,8.49,.63,35.85-39.77,176.48-50.47,235.62Z" style="fill:#223f81; fill-rule:evenodd;"/><path d="M1316.94,1247.42l-80.2-162.74c1.65-48.13,9.9-81.36,9.9-81.36,0,0,120.06-32.04,120.77,8.49,.63,35.85-39.77,176.48-50.47,235.62Z" style="fill:#172b57; fill-rule:evenodd;"/><path d="M1290.23,1011.94l63.47,459.98s27.86,6.73,49.54,1.34c0,0,18.58-244.63,17.04-303.77-1.56-59.14,13.32-158.26-3.41-169.19-16.72-10.92-126.64,11.65-126.64,11.65Z" style="fill:#223f81; fill-rule:evenodd;"/><path d="M1294.73,590.17s15.89-1.22,34.62-9.37c15.2-6.61,34.38,.67,40.61,3.95-.17-1-.57-2.38-1.52-3.74,0,0,2.79,1.98,3.21,4.76,.29,.2,.41,.36,.33,.4,0,0,3.17-.57,5.21,.34,0,0-1.42-.2-1.94,.71-.06,.09-.13,.17-.23,.25,23.71,11.46,25.91,48.94,18.27,57.62-9.18,10.43-20.2,33.93-20.2,33.93,0,0-4-5.55-2.33-14.73,1.66-9.18-6.27-9.18-16.28-13.36-10.02-4.17-1.67-15.86-10.44-22.96-8.75-7.09-40.89-2.92-40.47-8.35-11.94-4.34-8.85-28.23-8.85-29.45Z" style="fill:#20386f; fill-rule:evenodd;"/><path d="M1381.37,732.69l-14.61,313.52s-121.96,1.99-118.47-25.61c3.47-27.59,43.95-278.31,43.95-278.31l89.14-9.6Z" style="fill:#fff; fill-rule:evenodd;"/><path d="M1424.9,910.4c-7.25,21.76,6.43,94.8,11.31,119.55,1.08,5.24,1.78,8.33,1.78,8.33-16.89,27.47-78.74,27.12-78.74,27.12-11.91-52.57-18.09-136.32-18.09-136.32l47.47-208.05,59.7,55.2s-4.51,33.67-10.11,67.92c-4.41,27.13-9.4,54.72-13.33,66.25Z" style="fill:#20386f; fill-rule:evenodd;"/><path d="M1206.39,863.65c-.12-.12-.12-.36-.12-.47,0-4.52,17.25-14.51,35.91-26.29,.24-.24,.36-.36,.36-.36,.01,0,.03-.01,.05-.03-.34,9.63-.3,19.07,.26,27.86,1.07,16.29-.11,35.77-2.09,55.61-8.88-13.88-32.64-51.2-34.37-56.32h0Zm48.48-126.49s-.01,.05-.04,.13c-2.88,2.79-84.29,81.84-100.07,112.8-16.07,31.4,73.38,93.97,73.38,93.97,0,0,5.77,2.28,9.76,1.38-4.22,34.73-8.94,66.76-6.14,80.44,5.06,24.72,27.93,33.03,27.93,31.11,0-.6,8.36-89.81,12.91-136.37,9.74-99.81,34.12-198.97,34.12-198.97-26.62,2.77-51.86,15.5-51.86,15.5Z" style="fill:#20386f; fill-rule:evenodd;"/><path d="M1384.82,720.66c.15-2.99-14.03-7.13-14.03-7.13,0,0-16.23,22.49-42.94,22.88,0,0,7.61,14.82,16.59,18.66,0,0,39.5-16.64,40.38-34.41Z" style="fill:#d8e8f7; fill-rule:evenodd;"/><path d="M1327.85,735.89s-14.16-8.39-14.21-17.49c0,0-9.15-1.14-13.13,3.29,0,0-3.36,15.59,1.09,24.65,0,0,20.39-3.1,26.25-10.45Z" style="fill:#d8e8f7; fill-rule:evenodd;"/><path d="M1337.46,734.53l-19.2-4.6s-2.52,.22-2.45,3.34c.07,3.13,5.41,12.26,7.77,12.99,2.36,.73,18.41-5.42,13.87-11.74Z" style="fill:#466fb5; fill-rule:evenodd;"/><path d="M1382.58,719.12c.15-3-9.44-9.16-9.44-9.16,0,0-18.58,21.7-45.29,22.09,0,0,7.61,14.83,16.59,18.66,0,0,37.26-13.82,38.14-31.59Z" style="fill:#e9f0f9; fill-rule:evenodd;"/><path d="M1327.85,732.05s-14.32-7.59-14.37-16.69c0,0-8.64,3.8-12.64,8.24,0,0-3.69,9.84,.76,18.9,0,0,20.39-3.1,26.25-10.45Z" style="fill:#e9f0f9; fill-rule:evenodd;"/><path d="M1290.32,948.3c.65,7.34,4.01,14.15,9.43,19.14l8.5,7.82c2.13,1.97,5.48,1.7,7.29-.58l10.54-13.37c2.83-3.59,4.14-8.13,3.72-12.67-.98-10.12-2.82-29.63-4.29-48.45-1.2-15.25-2.14-30.07-2.23-39.09-.22-28.78,5.48-120.56,5.48-120.56l-6.89,.36s-17.14,35.63-26.11,84.11c-2.21,11.93-3.93,24.63-4.77,37.79,0,0-3.59,52.41-.65,85.51Z" style="fill:#6d96ce; fill-rule:evenodd;"/><path d="M1290.32,948.3c.65,7.34,4.01,14.15,9.43,19.14l8.5,7.82c2.13,1.97,5.48,1.7,7.29-.58l10.54-13.37c2.83-3.59,4.14-8.13,3.72-12.67-.98-10.12-2.82-29.63-4.29-48.45-19.06-21.43-26.79-51.03-29.75-75.18-2.21,11.93-3.93,24.63-4.77,37.79,0,0-3.59,52.41-.65,85.51Z" style="fill:#466fb5; fill-rule:evenodd;"/><path d="M1222.46,949.16c0-7.99,7.03-14.41,14.93-13.21,2.2,.34,4.17,1.24,5.55,3.05,5.43,7.24,10.61,28.31,.97,29.29-3.93,.4-8.96-2.35-12.85-5.3-3.93-2.99-8.6-7.69-8.6-12.64v-1.2Z" style="fill:#f9af79; fill-rule:evenodd;"/><path d="M1436.21,1029.95c-17.5-18.21-47.71-54-46.63-83.39,1.42-41.16,48.65-102.41,48.65-102.41-4.41,27.13-9.4,54.72-13.33,66.25-7.25,21.76,6.43,94.8,11.31,119.55Z" style="fill:#172b57; fill-rule:evenodd;"/><path d="M1435.65,958.36s-12.57,6.29-20.21,3.13c-7.63-3.13-16.6-5.5-25.13,4.22-8.54,9.71-10.33,16.45-8.54,20.04,1.8,3.58,21.68,2.25,24.98,0,3.29-2.25,8.52-7.77,11.83-6.81,9.13,2.65,16.83-4.32,21.14-9.87,2.59-3.34-4.42-4.97-4.09-10.71Z" style="fill:#f9af79; fill-rule:evenodd;"/><path d="M1388.63,721.03s50.06,5.55,61.86,27.35c11.82,21.81,73.22,110.16,71.21,146.89-2,36.72-83.76,77.89-83.76,77.89,0,0-18.1-7.64-18.38-15.87-.27-8.24,56.51-57.43,53.07-66.61-3.44-9.18-65.98-81.79-72-105.73-6.04-23.94-12-63.91-12-63.91Z" style="fill:#20386f; fill-rule:evenodd;"/><path d="M1242.55,836.53s-.12,.12-.36,.36c-18.67,11.77-35.91,21.76-35.91,26.29-2.5-7.97,21.76-41.28,29.61-48.05,7.97-6.9,6.66,21.41,6.66,21.41Z" style="fill:#172b57; fill-rule:evenodd;"/><path d="M1373.14,709.96s-38.02,159.2-31.96,219.16c0,0,13.97-64.08,47.59-116.57,0,0-12.27-10.79-11.6-14.77,0,0,9.11-2.71,17.95-.89,0,0-.97-68.62-6.49-75.87-5.51-7.25-15.5-11.07-15.5-11.07Z" style="fill:#172b57; fill-rule:evenodd;"/><path d="M1313.48,715.36c.77-.46-37.66,155.56-40.88,205.27,0,0,3.81-88.71,3.43-114.28,0,0,15.79-8.36,15.79-11.29s-16.84-10.86-16.84-10.86c0,0,10.65-54.63,16.48-60.66,5.82-6.02,22.02-8.18,22.02-8.18Z" style="fill:#172b57; fill-rule:evenodd;"/><path d="M1329.71,672.89c-7.56,.1-11.75-.63-19.09-2.37-2.95-.71,3.1,21.89,19.49,3.56,.39-.44,.17-1.21-.41-1.19Z" style="fill:#eb795b; fill-rule:evenodd;"/><path d="M1333.41,632.18c-3.67,.28-3.46,3.2-.75,3.89,28.91,7.25,9.83-4.57,.75-3.89Z" style="fill:#20386f; fill-rule:evenodd;"/><path d="M1316.46,629.58c3.43,1.32,2.39,4.06-.41,3.94-29.77-1.45-8.08-7.23,.41-3.94Z" style="fill:#20386f; fill-rule:evenodd;"/><path d="M1312.52,663.07l-.18-.06c-2.99-1.35-4.56-2.12-4.9-3.43-.31-1.19,.48-2.3,1.93-4.3,1.61-2.2,4.05-5.58,6.77-11.39,.2-.42,.71-.6,1.13-.41,.42,.2,.61,.7,.41,1.13-2.78,5.96-5.28,9.4-6.92,11.68-.96,1.32-1.78,2.45-1.66,2.87,.15,.58,2.26,1.54,3.96,2.3,.42,.2,.61,.7,.42,1.13-.17,.36-.57,.55-.95,.47Z" style="fill:#eb795b; fill-rule:evenodd;"/><path d="M1307.29,647.72c-2.09-.22-2.88-8.35,2.19-7.8,2.71,.29,1.23,8.17-2.19,7.8Z" style="fill:#20386f; fill-rule:evenodd;"/><path d="M1334.43,651.13c-2.09-.23-2.88-8.35,2.19-7.8,2.71,.28,1.23,8.17-2.19,7.8Z" style="fill:#20386f; fill-rule:evenodd;"/><path d="M1329.21,673.27c2.59,2.78-14.72,2.99-17.73,.24-.33-.3-1.37-1.88-1.01-2.35,.36-.47,2.37,.37,2.92,.5,5.26,1.32,10.2,1.85,15.82,1.61Z" style="fill:#fff; fill-rule:evenodd;"/><path d="M412.57,678.38s-21.38,18.21-1.77,39.18c0,0-16.35,1.6-21.87-2.92,0,0,1.08,2.2,2.1,3.19,0,0-18.28,.66-25.82-5.04-7.54-5.7-2.7-99.18,48.01-88.72,0,0,42.98-3.24,38.99,46.48-4.02,49.73,12.22,49.73,12.22,49.73,0,0-4.52,2.23-6.7,2.23,0,0-3.18-1.21-3.82-2.97,0,0,.64,2.76,1.45,3.64,0,0-17.51,1.66-26.26-4.95-8.75-6.62-19.01-29.59-16.53-39.85Z" style="fill:#20386f; fill-rule:evenodd;"/><path d="M477,787.44h-117.18c8.38-21.01,20.4-36.2,29.51-38.06,4.85-1.29,13.11-18.85,12.99-47.15l2.2,.44,36.8,7.29s-.83,11.59-.86,22.5c-.03,9.1,.47,18.34,2.53,19.43,2.64,.23,5.06,.72,5.06,.72,0,0,19.96,14.01,28.95,34.84Z" style="fill:#f9af79; fill-rule:evenodd;"/><path d="M441.32,709.96s-.83,11.58-.86,22.49c-20.6-.57-31.48-19.36-35.93-29.78l36.8,7.29Z" style="fill:#ed7d57; fill-rule:evenodd;"/><path d="M400.72,698.66s-10.78-17.05-13.38-31.63c-1.86-10.41,3.44-48.99,42.22-43.44,0,0,11.26,1.11,21.84,8.26,8.43,5.69,20.59,17.96,6.99,51.63l-3.52,11.37-54.15,3.8Z" style="fill:#20386f; fill-rule:evenodd;"/><path d="M448.19,720.29s-48.71,.8-48.74-29.55c-.05-30.35-6.35-50.69,24.75-52.48,31.12-1.8,37.16,9.78,39.64,19.9,2.48,10.13-2.98,61.14-15.66,62.13Z" style="fill:#f9af79; fill-rule:evenodd;"/><path d="M446.39,637.51s-13.33,35.61-33.82,40.87c-20.47,5.26-29.35-.22-29.35-.22,0,0,15.7-12.48,18.96-34.25,0,0,34.13-23.35,44.21-6.4Z" style="fill:#20386f; fill-rule:evenodd;"/><path d="M443.08,640.4s9.96,7.95,12.39,15.68c2.43,7.73,3.53,23.65,8.16,23.1,0,0,10.06-24.2-1.24-37.89-11.98-14.52-19.31-.89-19.31-.89Z" style="fill:#20386f; fill-rule:evenodd;"/><path d="M444.94,641.61s-9.51,37.29-35.35,49.23c0,0,25.83-22.91,28.03-47.52,2.19-24.61,7.31-1.7,7.31-1.7Z" style="fill:#20386f; fill-rule:evenodd;"/><path d="M579.32,876.74s16.24-13.27,22.08-13.35c5.84-.06,16.92-2.97,16.49-1.08-.44,1.89-9.78,4.37-8.17,5.25,1.61,.88,15.18-2.77,18.97-.58,3.79,2.18,12.69,11.23,5.54,15.17-7.15,3.95-28.6,10.21-34.15,9.49-5.54-.73-18.09-1.61-18.09-1.61l-2.67-13.29Z" style="fill:#f9af79; fill-rule:evenodd;"/><polygon points="371.84 1370.45 385.47 1427.84 405.88 1427.72 406.63 1370.45 371.84 1370.45" style="fill:#f9af79; fill-rule:evenodd;"/><polygon points="543.51 1372.9 582.28 1427.84 597.39 1408.44 574.05 1365.35 543.51 1372.9" style="fill:#f9af79; fill-rule:evenodd;"/><path d="M591.23,1393.39l-19.96,.61-21.61,.65s-49.92-55.57-77.92-144.66c-.65-2.06-1.34-4.17-2.06-6.29-15.33-44.67-47.09-100.76-63.83-151.53-2.66-8.08-5.06-15.69-7.2-22.89-.69-2.31-1.36-4.57-2-6.81-12.34-42.86-15.91-71-19.2-101.08l120.88,.98s19.51,205.32,92.9,431.01Z" style="fill:#223f81; fill-rule:evenodd;"/><path d="M481.41,892.91c-.31,57.51,8.43,82.19,8.43,82.19,0,0-51.76,26.3-113.27,6.94-.72-.22-50.93-11.68-50.93-11.68,1.03-2.33,10.18-41.09,11.19-43.23,12.99-27.88,22.85-40.12,24.39-48.69,2.85-16.01,2.92-32.58,1.49-48.19-3.75-41.35-14.91-75.68-14.91-75.68,16.76-3.82,32.46-10.51,49.9-17.06,4.01,5,16.28,10.22,26.92,9.98,12.25-.27,16.23-5.51,15.59-11.24,13.06,7.26,23.48,14.13,23.48,14.13,11.1,19.28,33.6,38,35.24,67.57,.4,7.27-17.51,73.34-17.51,74.96Z" style="fill:#e9f0f9; fill-rule:evenodd;"/><path d="M384.78,1424.63s1.65,11.37-2.6,23.52c0,0-3.34,15.23,11.65,15.51,14.99,.28,18.67-1.13,16.97-10.46-1.7-9.33-4.93-25.48-4.93-25.48l-21.09-3.09Z" style="fill:#f9af79; fill-rule:evenodd;"/><path d="M412.78,1472.7c-9.53,17.97-23.11,16.69-32.83,0-1.35-6.75,1.63-21.15,2.12-23.92,.03-.21,.07-.36,.09-.47,0-.09,.02-.15,.02-.15,16.96,15.55,27.58-.41,27.58-.41,.01,.03,.03,.05,.04,.09,2.49,6.09,3.01,22.47,2.98,24.85Z" style="fill:#0e2952; fill-rule:evenodd;"/><path d="M633.51,1454.72s-27.63-30.68-36.12-46.28l-20.55,10.52,45.93,43.13,10.75-1.4v-5.97Z" style="fill:#f9af79; fill-rule:evenodd;"/><path d="M651.06,1472.7h-34.76c-5.13,0-9.21-8.49-14.73-19.52-2.26-4.52-7.32-7-12.51-8.37l.13,27.88h-8.03l-7.38-29.48c-4.9-9-.39-17.16,3.05-24.26,4-.01,14.78,2.73,35.19,25.73,6.71,7.55,14.12,10.25,21.48,10.03,.1,.06,.2,.11,.31,.16,16.96,7.63,17.24,17.81,17.24,17.81Z" style="fill:#0e2952; fill-rule:evenodd;"/><path d="M571.27,1394l-21.61,.65s-49.92-55.57-77.92-144.66c-.65-2.06-1.34-4.17-2.06-6.29-15.33-44.67-47.09-100.76-63.83-151.53-2.66-8.08-5.06-15.69-7.2-22.89-.69-2.31-1.36-4.57-2-6.81l17.8-13.51s53.44,86.55,69.99,167.99c14.38,70.74,71.93,155.86,86.83,177.04Z" style="fill:#20386f; fill-rule:evenodd;"/><path d="M416.31,1224.54c.31,39.61-1.7,130.66-6.85,168.36h-19.14c-10.58,0-15.86-.14-15.86-.14-12.94-65.55-22.15-119.78-28.85-166.52-5.5-38.36-10.39-71.23-14.14-99.53-3.78-28.49-6.42-52.34-7.36-72.49-.14-3.17-.25-6.26-.31-9.26-.06-3.01-.08-5.93-.05-8.78l104.44-10.19c-1.31,69.4-12.05,175.53-11.88,198.54Z" style="fill:#223f81; fill-rule:evenodd;"/><path d="M390.32,1392.89c-10.58,0-15.86-.14-15.86-.14-12.94-65.55-22.15-119.78-28.85-166.52-5.5-38.36-10.39-71.23-14.14-99.53-3.78-28.49-6.42-52.34-7.36-72.49l38.33,22.55s-24.46,8.63-15.13,73.96c9.33,65.33,30.02,232.93,43.01,242.17Z" style="fill:#20386f; fill-rule:evenodd;"/><path d="M395.25,1053.58s-7.36,26.58-32.81,23.19c-25.46-3.4-61.65-18.66-61.65-18.66,0,0,10.88-34.38,24.41-79.52,16.37-54.68,20.45-131.5,30-175.95,2.68-12.46,20.71-16.5,21.39-23.95l21.12-40.97s31.48,70.67,33.18,88.48c1.7,17.82-35.64,227.38-35.64,227.38Z" style="fill:#6d96ce; fill-rule:evenodd;"/><path d="M377.45,878.66c-1.14,28.85-11.23,78.06-51.77,99.69-.16,.08-.33,.16-.48,.23,16.37-54.68,16.16-107.11,25.71-151.57,21.8-4.54,27.17,35.77,26.54,51.65Z" style="fill:#466fb5; fill-rule:evenodd;"/><path d="M332.92,942.71s18.19-3.93,22.86,1.26c4.67,5.19,7.29,13.44,2.62,16.34-4.67,2.91-18.19-5.05-23.06-1.84-3.48,2.29-4.58,8.14-8.08,6.1-3.5-2.05-7.19-15.44-7.19-15.44l12.84-6.41Z" style="fill:#f9af79; fill-rule:evenodd;"/><path d="M397.7,737.71s-49.07,2.15-60.87,13.11c-11.79,10.95-82.41,95.59-83.59,117.76-1.17,22.18,61.87,85.22,61.87,85.22,0,0,17.51-4.22,25.1-15.24,0,0-39.1-69.73-36.77-72.77,2.33-3.05,68.58-57.33,74.01-45.28,4.68,10.38,20.25-82.8,20.25-82.8Z" style="fill:#6d96ce; fill-rule:evenodd;"/><path d="M584.38,869.55s-56.03,18.69-63.04,17.12c-7-1.56-17.01-77.48-22.41-103.5-6.96-33.5-33.52-40.17-33.52-40.17l-25.19-6.74s28.85,71.27,29.7,85.7c.85,14.42,3.39,235.87,3.39,235.87,0,0-1.69,10.19,17.82,5.93,19.51-4.23,24.6-8.49,24.6-8.49,0,0-8.46-61.9-12.43-116.86,19.88-3.4,83.81-35.79,83.81-35.79,9.92-15.58-2.72-33.07-2.72-33.07Z" style="fill:#6d96ce; fill-rule:evenodd;"/><path d="M435.6,699.75c7.01,1.51,11.05,1.61,18.21,1.36,2.87-.1-6.98,19.81-18.81-.32-.28-.48,.07-1.16,.6-1.04Z" style="fill:#eb795b; fill-rule:evenodd;"/><path d="M436.42,660.05c3.37,.93,2.63,3.62-.03,3.76-28.27,1.35-8.3-6.1,.03-3.76Z" style="fill:#20386f; fill-rule:evenodd;"/><path d="M453.73,660.92c-3.44,.6-2.98,3.34-.35,3.74,27.99,4.21,8.88-5.22,.35-3.74Z" style="fill:#20386f; fill-rule:evenodd;"/><path d="M448.89,691.82l.18-.03c3-.8,4.6-1.28,5.12-2.46,.49-1.07-.09-2.23-1.15-4.33-1.17-2.31-2.94-5.85-4.59-11.72-.12-.42-.57-.66-1-.55-.43,.12-.68,.56-.56,1,1.69,6.01,3.5,9.62,4.7,12,.69,1.38,1.28,2.57,1.12,2.94-.23,.52-2.36,1.1-4.07,1.56-.43,.12-.68,.56-.57,1,.1,.36,.44,.6,.81,.58Z" style="fill:#eb795b; fill-rule:evenodd;"/><path d="M458.88,679.53c1.98,.18,4.24-7.24-.58-7.68-2.57-.24-2.67,7.37,.58,7.68Z" style="fill:#20386f; fill-rule:evenodd;"/><path d="M431.94,677.49c1.99,.17,4.24-7.23-.58-7.68-2.57-.23-2.67,7.38,.58,7.68Z" style="fill:#20386f; fill-rule:evenodd;"/><path d="M435.99,700.2c-2.93,2.12,13.15,5.53,16.46,3.53,.36-.21,1.63-1.49,1.38-1.99-.24-.51-2.28-.09-2.81-.08-5.14,.25-9.85-.18-15.03-1.46Z" style="fill:#fff; fill-rule:evenodd;"/><rect x="1191.95" y="452.11" width="146.69" height="50.67" transform="translate(-68.22 252.38) rotate(-11.09)" style="fill:#b0c2e4;"/><path d="M1184.33,438.76c-9.47-2.35-16.67-8.7-18.87-19.95l-.69-3.51c-20.79-97.06-111.74-107.58-139.78-213.98-2.11-7.98-3.58-15.89-4.46-23.7-2.62-84.35,64.29-154.45,151.56-171.56,99.44-19.5,200.39,34.69,213.83,136.98,13.92,105.82-62.45,148.29-45.53,243.1,2.01,10.23-6.62,24.17-16.09,25.17l-139.97,27.45Z" style="fill:#c4d1eb; fill-rule:evenodd;"/><path d="M1349.58,498.67c1.07,11.15-6.55,21.59-17.74,23.78l-16.6,3.25-4.39,11.82c-2.52,6.79-4.62,7.63-11.74,9.02l-39.02,7.66c-7.13,1.39-9.37,1.43-14.28-3.93l-8.54-9.29-16.61,3.26c-11.04,2.17-21.89-4.42-25.28-14.91l-1.48-7.58c.1-2.59,1.98-4.88,4.62-5.4l143.27-28.09c2.66-.52,5.28,.91,6.34,3.3,.1,.21,.04,.71,.2,.79l1.24,6.32h0Zm-156.55-21.07c-4.2,.82-6.97,4.94-6.14,9.15l2.33,11.86c.83,4.2,4.94,6.97,9.15,6.14l139.23-27.3c4.2-.83,6.97-4.94,6.14-9.15l-2.33-11.87c-.82-4.2-4.94-6.97-9.15-6.14l-139.23,27.3h0Zm-7.34-39.1l138.6-27.18c4.38-.86,8.66,2.02,9.52,6.4l2.42,12.35c.86,4.38-2.02,8.66-6.4,9.52l-138.6,27.18c-4.38,.86-8.67-2.02-9.52-6.4l-2.42-12.35c-.86-4.38,2.02-8.66,6.4-9.52Z" style="fill:#9db2d9; fill-rule:evenodd;"/><path d="M1233.01,429.22l-49.7-175.4-21.36,4.19c-9.23,1.81-18.34-.32-25.61-5.2h.01c-7.27-4.91-12.68-12.54-14.48-21.74-1.81-9.23,.31-18.34,5.19-25.6,4.88-7.26,12.52-12.67,21.74-14.48,9.1-1.79,17.72,.31,24.76,5.04,7.14,4.8,12.6,12.35,15.17,21.25l5.41,18.78,65.33-12.8-2.08-19.44c-.98-9.21,1.23-18.27,6.04-25.41,4.73-7.04,11.91-12.23,21.01-14.02,9.2-1.8,18.32,.33,25.59,5.22v-.02c7.27,4.88,12.68,12.52,14.49,21.74,1.81,9.23-.32,18.35-5.2,25.6-4.87,7.26-12.52,12.67-21.74,14.48l-21.36,4.19,20.22,181.18-15.04,2.94-20.29-181.17-62.71,12.3,49.63,175.42-15.04,2.94h0Zm-53.97-190.2l-5.05-17.5c-1.56-5.42-4.79-9.95-8.99-12.77-3.77-2.54-8.39-3.67-13.25-2.71-5.07,.99-9.28,3.98-11.97,7.98-2.69,4-3.87,9.02-2.87,14.09,1,5.09,3.98,9.29,7.96,11.98h.03c4.01,2.68,9.02,3.86,14.1,2.87l20.04-3.93h0Zm95.54-18.73l20.04-3.93c5.08-1,9.28-3.98,11.97-7.98,2.69-4.01,3.87-9.03,2.87-14.1-1-5.07-3.98-9.28-7.98-11.97v-.03c-3.99-2.68-9.02-3.84-14.1-2.84-4.85,.95-8.69,3.74-11.23,7.52-2.82,4.2-4.11,9.63-3.51,15.22l1.94,18.11Z" style="fill:#fff; fill-rule:evenodd;"/><path d="M1249.94,55.83c-5.17-1.08-8.49-6.14-7.42-11.31,1.08-5.17,6.14-8.49,11.31-7.42,4.22,.89,8.27,1.93,12.11,3.12,3.97,1.22,7.88,2.63,11.72,4.22,4.89,2.01,7.23,7.62,5.21,12.51-2.01,4.89-7.62,7.22-12.51,5.21-3.28-1.35-6.65-2.57-10.08-3.62-3.52-1.09-6.98-1.99-10.35-2.7h0Zm47.24,21.9c-4.19-3.25-4.94-9.29-1.69-13.47,3.26-4.19,9.29-4.94,13.47-1.69,12.19,9.47,22.73,21.1,30.98,34.44,7.96,12.88,13.76,27.3,16.82,42.89,1.02,5.21-2.38,10.25-7.58,11.28-5.21,1.02-10.25-2.38-11.28-7.58-2.62-13.34-7.53-25.62-14.27-36.51-6.99-11.32-16-21.23-26.46-29.37Z" style="fill:#fff; fill-rule:evenodd;"/><rect x="840.28" y="404.89" width="50.68" height="146.69" transform="translate(276.79 1272.78) rotate(-82.38)" style="fill:#b0c2e4;"/><path d="M801.35,415.62c-8.22-5.26-13-13.58-11.47-24.95l.48-3.55c11.45-98.6-71.32-137.74-63.74-247.51,.57-8.23,1.71-16.21,3.38-23.89C754.58,35,840.44-9.93,928.58,1.86c100.44,13.44,178.67,97.16,158.58,198.36-20.78,104.69-106.73,120.42-121.13,215.65-1.38,10.32-14.03,20.77-23.32,18.67l-141.37-18.92Z" style="fill:#c4d1eb; fill-rule:evenodd;"/><path d="M938.64,525.39c-2.57,10.91-13.13,18.34-24.44,16.83l-16.77-2.24-7.95,9.79c-4.57,5.63-6.83,5.74-14.02,4.78l-39.41-5.28c-7.19-.96-9.33-1.64-12.27-8.29l-5.1-11.53-16.77-2.25c-11.16-1.49-19.32-11.21-19.15-22.23l1.03-7.66c.93-2.42,3.44-3.99,6.11-3.64l144.72,19.37c2.68,.36,4.71,2.56,4.94,5.16,.02,.23-.19,.69-.07,.8l-.85,6.38h0Zm-141.51-70.19c-4.25-.57-8.19,2.44-8.75,6.69l-1.6,11.98c-.57,4.25,2.44,8.19,6.69,8.75l140.63,18.82c4.25,.57,8.19-2.44,8.75-6.69l1.6-11.98c.57-4.25-2.44-8.19-6.69-8.75l-140.62-18.82h0Zm5.59-39.39l140,18.73c4.42,.59,7.55,4.69,6.96,9.11l-1.67,12.47c-.59,4.42-4.69,7.55-9.11,6.97l-140-18.73c-4.42-.6-7.55-4.7-6.96-9.12l1.67-12.47c.59-4.42,4.69-7.55,9.11-6.96Z" style="fill:#9db2d9; fill-rule:evenodd;"/><path d="M850.51,422.2l9.21-182.08-21.57-2.89c-9.32-1.24-17.27-6.19-22.58-13.13h.02c-5.32-6.98-8-15.95-6.75-25.25,1.25-9.31,6.18-17.27,13.13-22.58,6.95-5.31,15.93-7.98,25.25-6.74,9.19,1.23,16.68,5.98,21.82,12.72,5.24,6.84,7.98,15.74,7.55,25.01l-.89,19.52,65.99,8.83,4.27-19.07c2.01-9.03,7.02-16.91,13.87-22.13,6.73-5.14,15.2-7.77,24.4-6.54,9.29,1.24,17.24,6.19,22.56,13.15h.01c5.31,6.93,7.98,15.91,6.73,25.22-1.24,9.32-6.18,17.27-13.13,22.58-6.95,5.31-15.92,7.98-25.24,6.73l-21.57-2.89-38.99,178.09-15.18-2.03,38.92-178.11-63.33-8.47-9.28,182.06-15.19-2.03h0Zm9.92-197.46l.84-18.2c.26-5.63-1.35-10.96-4.42-14.98-2.76-3.61-6.77-6.17-11.67-6.82-5.12-.68-10.06,.79-13.9,3.72-3.84,2.92-6.56,7.31-7.25,12.43-.69,5.14,.78,10.08,3.69,13.9h.03c2.93,3.84,7.31,6.56,12.43,7.24l20.24,2.71h0Zm96.5,12.91l20.25,2.71c5.12,.68,10.06-.8,13.9-3.72,3.82-2.93,6.55-7.31,7.24-12.43,.68-5.12-.8-10.06-3.72-13.89v-.04c-2.91-3.81-7.29-6.52-12.43-7.21-4.89-.65-9.43,.76-13.05,3.52-4.02,3.08-6.98,7.79-8.21,13.28l-3.98,17.78Z" style="fill:#fff; fill-rule:evenodd;"/><path d="M986.35,73.99c-4.55-2.68-6.07-8.54-3.4-13.1,2.68-4.55,8.54-6.07,13.09-3.39,3.72,2.2,7.21,4.48,10.47,6.84,3.37,2.43,6.62,5.02,9.75,7.76,3.98,3.48,4.39,9.53,.92,13.52-3.48,3.99-9.54,4.4-13.52,.92-2.67-2.33-5.46-4.55-8.38-6.66-2.98-2.15-5.96-4.12-8.93-5.88h0Zm37.72,35.9c-2.92-4.43-1.69-10.38,2.73-13.3,4.43-2.92,10.38-1.7,13.31,2.73,8.49,12.88,14.75,27.28,18.28,42.56,3.4,14.76,4.28,30.28,2.17,46.02-.7,5.26-5.54,8.95-10.8,8.25-5.26-.71-8.95-5.53-8.25-10.8,1.8-13.47,1.08-26.67-1.8-39.15-3-12.96-8.35-25.25-15.64-36.3Z" style="fill:#fff; fill-rule:evenodd;"/><path d="M1057.05,73.08c26.9,34.59,39.69,78.87,30.11,127.14-5.67,28.58-16.2,50.53-28.81,69.27-13.92-18.2-25.88-39.77-33.36-68.16-2.11-7.98-3.58-15.89-4.46-23.7-1.22-39.23,12.61-75.37,36.52-104.54Z" style="fill:#b0c2e4; fill-rule:evenodd;"/><path d="M1029.98,119.92c2.7-7.3,5.95-14.37,9.69-21.19l.44,.6c8.5,12.88,14.75,27.27,18.29,42.55,3.4,14.76,4.27,30.28,2.16,46.02-.7,5.26-5.54,8.95-10.79,8.25-5.26-.71-8.95-5.53-8.25-10.8,1.8-13.47,1.08-26.67-1.8-39.15-2.11-9.17-5.41-17.99-9.73-26.28Z" style="fill:#e0e8f5; fill-rule:evenodd;"/><rect x="517.93" y="404.89" width="50.68" height="146.69" transform="translate(-2.8 953.27) rotate(-82.38)" style="fill:#b0c2e4;"/><path d="M479,415.62c-8.22-5.26-12.99-13.58-11.47-24.95l.47-3.55c11.45-98.6-71.31-137.74-63.73-247.51,.56-8.23,1.71-16.21,3.37-23.89C432.23,35,518.09-9.93,606.24,1.86c100.44,13.44,178.67,97.16,158.58,198.36-20.78,104.69-106.73,120.42-121.13,215.65-1.39,10.32-14.02,20.77-23.32,18.67l-141.37-18.92Z" style="fill:#c4d1eb; fill-rule:evenodd;"/><path d="M616.29,525.39c-2.57,10.91-13.13,18.34-24.43,16.83l-16.77-2.24-7.95,9.79c-4.57,5.63-6.82,5.74-14.01,4.78l-39.42-5.28c-7.19-.96-9.32-1.64-12.27-8.29l-5.1-11.53-16.77-2.25c-11.15-1.49-19.32-11.21-19.15-22.23l1.03-7.66c.93-2.42,3.44-3.99,6.11-3.64l144.71,19.37c2.69,.36,4.71,2.56,4.95,5.16,.02,.23-.19,.69-.07,.8l-.85,6.38h0Zm-141.51-70.19c-4.25-.57-8.19,2.44-8.75,6.69l-1.6,11.98c-.57,4.25,2.44,8.19,6.69,8.75l140.62,18.82c4.25,.57,8.19-2.44,8.76-6.69l1.6-11.98c.57-4.25-2.44-8.19-6.69-8.75l-140.63-18.82h0Zm5.6-39.39l140,18.73c4.42,.59,7.55,4.69,6.96,9.11l-1.67,12.47c-.59,4.42-4.69,7.55-9.11,6.97l-140-18.73c-4.42-.6-7.55-4.7-6.96-9.12l1.67-12.47c.59-4.42,4.69-7.55,9.11-6.96Z" style="fill:#9db2d9; fill-rule:evenodd;"/><path d="M528.16,422.2l9.21-182.08-21.57-2.89c-9.31-1.24-17.27-6.19-22.58-13.13h.02c-5.32-6.98-7.99-15.95-6.75-25.25,1.24-9.31,6.18-17.27,13.13-22.58,6.95-5.31,15.92-7.98,25.24-6.74,9.19,1.23,16.68,5.98,21.83,12.72,5.22,6.84,7.98,15.74,7.54,25.01l-.9,19.52,65.99,8.83,4.27-19.07c2.02-9.03,7.02-16.91,13.87-22.13,6.73-5.14,15.2-7.77,24.39-6.54,9.29,1.24,17.24,6.19,22.56,13.15h.01c5.31,6.93,7.99,15.91,6.74,25.22-1.25,9.32-6.19,17.27-13.14,22.58-6.95,5.31-15.92,7.98-25.24,6.73l-21.57-2.89-38.98,178.09-15.19-2.03,38.92-178.11-63.34-8.47-9.28,182.06-15.19-2.03h0Zm9.92-197.46l.84-18.2c.26-5.63-1.35-10.96-4.42-14.98-2.76-3.61-6.77-6.17-11.67-6.82-5.12-.68-10.06,.79-13.9,3.72-3.83,2.92-6.56,7.31-7.24,12.43-.69,5.14,.78,10.08,3.69,13.9h.03c2.93,3.84,7.31,6.56,12.43,7.24l20.24,2.71h0Zm96.5,12.91l20.24,2.71c5.12,.68,10.06-.8,13.9-3.72,3.83-2.93,6.56-7.31,7.24-12.43,.68-5.12-.8-10.06-3.72-13.89v-.04c-2.91-3.81-7.29-6.52-12.43-7.21-4.9-.65-9.43,.76-13.05,3.52-4.02,3.08-6.98,7.79-8.21,13.28l-3.97,17.78Z" style="fill:#fff; fill-rule:evenodd;"/><path d="M749.39,246.41c-14.21-29.81-25.83-62.58-22.77-106.8,.57-8.23,1.7-16.21,3.38-23.89,3.32-10.91,7.78-21.16,13.19-30.71,21.01,32.59,30.15,72.33,21.64,115.2-3.5,17.67-8.87,32.79-15.43,46.2Z" style="fill:#b0c2e4; fill-rule:evenodd;"/><path d="M730.95,195.96c-3.9-16.79-5.79-35.27-4.33-56.34,.45-6.58,1.27-13,2.44-19.23,2.93,6.91,5.28,14.1,6.99,21.49,3.4,14.76,4.26,30.28,2.16,46.02-.54,4.04-3.52,7.15-7.25,8.06Z" style="fill:#806a50; fill-rule:evenodd;"/><path d="M664.01,73.99c-4.55-2.68-6.07-8.54-3.39-13.1,2.68-4.55,8.54-6.07,13.1-3.39,3.72,2.2,7.21,4.48,10.47,6.84,3.37,2.43,6.62,5.02,9.75,7.76,3.98,3.48,4.4,9.53,.91,13.52-3.48,3.99-9.53,4.4-13.52,.92-2.67-2.33-5.46-4.55-8.38-6.66-2.98-2.15-5.97-4.12-8.93-5.88h0Zm37.72,35.9c-2.92-4.43-1.7-10.38,2.73-13.3,4.43-2.92,10.38-1.7,13.3,2.73,8.5,12.88,14.75,27.28,18.28,42.56,3.41,14.76,4.27,30.28,2.17,46.02-.71,5.26-5.54,8.95-10.79,8.25-5.26-.71-8.95-5.53-8.25-10.8,1.8-13.47,1.08-26.67-1.8-39.15-2.99-12.96-8.34-25.25-15.64-36.3Z" style="fill:#fff; fill-rule:evenodd;"/><path d="M730.94,195.96c-3.9-16.79-5.78-35.27-4.33-56.34,.45-6.58,1.27-13,2.44-19.23,2.93,6.91,5.28,14.1,6.99,21.49,3.4,14.76,4.26,30.28,2.16,46.02-.54,4.04-3.52,7.15-7.26,8.06Z" style="fill:#e0e8f5; fill-rule:evenodd;"/></svg>