<?xml version="1.0" encoding="UTF-8"?><svg id="a" xmlns="http://www.w3.org/2000/svg" viewBox="0 0 2097.91 1482.02"><path d="M1806.84,127.24c-18.81,0-34.09-15.26-34.09-34.08s15.28-34.07,34.09-34.07,34.05,15.27,34.05,34.07-15.24,34.08-34.05,34.08h0ZM360.15,944.12H178.1c-97.98,0-178.1,80.15-178.1,178.12H0c0,97.98,80.13,178.12,178.1,178.12H1717.33c158.65,0,288.45-129.79,288.45-288.45h0c0-158.61-129.8-288.41-288.45-288.41h0c-67.07-.04-121.95-54.91-121.95-121.99h0c0-67.07,54.89-121.95,121.95-121.95h146.77c69.75,0,126.82-57.07,126.82-126.78h0c0-69.75-57.07-126.81-126.82-126.81h-185.61c-27.12,0-49.33-22.22-49.33-49.36h0c0-27.17,22.21-49.37,49.33-49.37h32.75c18.73,0,34.05-15.34,34.05-34.08h0c0-18.72-15.34-34.07-34.05-34.07h-214.72c-45.2,0-50.23,53.42-164.47,53.42h-264.82c-24.44,0-44.47,20-44.47,44.46h0c0,24.46,20.03,44.45,44.47,44.45h42.69c35.43,0,64.4,28.99,64.4,64.41h0c0,35.43-28.98,64.42-64.4,64.42h-128.5c-173.49,0-198,45.35-228.39,135.51-30.37,90.2-188.2,97.46-188.2,97.46h-215.79c-53.39,0-97.09,43.68-97.09,97.08h0c0,53.39,43.7,97.08,97.09,97.08h11.11c51.32,0,93.34,42.02,93.34,93.36h0c0,51.36-42.02,93.38-93.34,93.38h0Z" style="fill:#e0e8f5; fill-rule:evenodd;"/><ellipse cx="346.92" cy="1372.88" rx="337.61" ry="47.99" style="fill:#c4d1eb;"/><path d="M1212.57,1422.45c115.73,0,209.57,13.37,209.57,29.78s-93.84,29.8-209.57,29.8-209.53-13.33-209.53-29.8,93.82-29.78,209.53-29.78Z" style="fill:#c4d1eb; fill-rule:evenodd;"/><path d="M573.76,790.56c-16.7-.77-16.18,2.03-18.31,1.84-2.49-.13-29.49-20.68-29.49-20.68,0,0-79.76-59.88-83.96-63.26l-49.79-90.3-51.88,11.97s56.78,96.77,60.65,101.33c3.79,4.48,121.11,72.93,131.28,79.32,0,0,9.29,12.03,15.34,19.4,6.07,7.37,15.09,11.62,17.16,13.46,.29,.21,7.41,5.94,18.02,10.46,9.15,4.04,2.32-3.89,2.32-3.89,0,0-15.63-10.44-14.59-11.51,.8-.84,8.96,5.34,19.06,9.84,2.6,1.19,5.15,2.26,7.49,3.27,6.2,2.66,9.65-.29,3.6-4.17-2.14-1.36-5.75-3.5-8.5-4.65-3.03-1.34-5.36-3.49-7.74-4.94-4.67-2.87-8.16-4.98-7.93-5.06,.31-.13-.23-1.42,2.59-.25,3.35,1.38,9.81,5.84,14.92,7.53,2.87,.94,8.77,3.22,8.77,3.22,0,0,10,2.72,10.27,2.14,1.61-2.8-4.98-6.78-9.04-7.47-2.37-1.88-8.66-4.08-8.66-4.08,0,0-11.68-7.41-10.65-9.06,.82-1.42,32.21,10.92,33.67,8,1.15-2.41-8.16-6.57-8.16-6.57,0,0-5.82-2.05-7.7-2.91-2.18-.98-8.54-4.46-8.54-4.46,0,0-21.6-12.96-20.45-14.48,1.05-1.53,5.44-4.21,7.05-3.83,1.65,.34,4.27,2.53,5.86,2.84,1.63,.34,4.02-.61,4.63-2.53,.54-1.99-6.63-6.61-6.63-6.61,0,0-5.82-3.72-10.65-3.93Z" style="fill:#f9af79; fill-rule:evenodd;"/><path d="M412.01,643.37l-53.37,29.68s-22.89-44.62-32.56-66.45c-11.74-26.47-23.67-61.44-20.15-62.09,9.9-1.82,23.29-2.15,34.89,4.6,40.08,23.48,71.18,94.26,71.18,94.26Z" style="fill:#466fb5; fill-rule:evenodd;"/><path d="M107.78,1302.26s-11.22,10.9-11.49,14.94c-.27,4-.98,46.92,3.56,50.92,4.6,4,18.04,6.89,13.75,11.39-3.29,3.39-28.42,2.66-45.08,1.78-4.86-.33-10.97-38.99-12.91-44.68-2.78-8.29-12.85-26.35-10.34-32.04,1.26-2.82,10.49-9.21,18.83-14.57,8.79-5.73,17.2-18.33,17.2-18.33l26.49,30.58Z" style="fill:#f9af79; fill-rule:evenodd;"/><path d="M257.81,1329.03l-10.07,28.42c-.73,4.5-3.68,15.59-3.68,19.67,0,15.3,69.19-13,53.68-19.82-1.4-.63-5.82-5.52-6.26-10.74-.73-8.02,5.82-18.04,5.82-18.04l-39.49,.52Z" style="fill:#f9af79; fill-rule:evenodd;"/><path d="M353.26,791.77l25.03,63.87s16.37,152.46,6.86,243.69c-4,38.21-90.12,242.47-90.12,242.47l-42.82-6.01,57.34-241.89-21.1-92.54-29.86-182.95,94.68-26.64Z" style="fill:#0e2952; fill-rule:evenodd;"/><path d="M235.27,795.09l-21.51,71.09-32.67,214.68-110.5,200.87s16.58,25.18,34.47,29.11l156.85-203,85.01-254.11-2.97-56.5-108.68-2.14Z" style="fill:#223f81; fill-rule:evenodd;"/><path d="M64.63,1289.65s23.63,71.26,33.72,74.76c2.72,.88,17.81,4.69,20.26,10.36l.15,.57c.79,3.62-2.32,6.89-6.03,6.89h-47.99s-6.84-32.04-9.52-46.06c0,0-14.25-34.43-12.68-37.48,1.57-3.12,22.08-9.06,22.08-9.06Z" style="fill:#0e2952; fill-rule:evenodd;"/><path d="M240.11,1382.17l7.93-25.03s16.62,7.05,24.93,5.84c8.35-1.11,24.59-5.84,24.59-5.84,33.21,10.9,60.4,16.2,55.46,25.03h-112.91Z" style="fill:#0e2952; fill-rule:evenodd;"/><path d="M243.04,534.21c-64.29,8.79-75.28,61.72-56.86,117.8,17.22,52.42,37.54,118.93,36.16,136.97-2.37,30.97-9.15,76.87-9.15,76.87,0,0,120.63,7.53,165.98-10.13,0,0-15.15-70.26-15.15-88.65s-8.08-202.6-13.77-212.25c-5.75-9.61-17.27-15.07-39.16-19.8-21.87-4.75-68.04-.8-68.04-.8Z" style="fill:#6d96ce; fill-rule:evenodd;"/><path d="M251.83,484.55l-7.97,51.5s29.19,61.4,46.61,56.09c14.59-4.5,5.59-58.72,5.59-58.72,0,0-7.95-29.22-5.59-43.8,2.41-14.55-38.65-5.08-38.65-5.08Z" style="fill:#f9af79; fill-rule:evenodd;"/><path d="M290.48,489.63c2.41-14.55-38.65-5.08-38.65-5.08l-.65,4.23c1.21,2.91,2.64,5.38,4.46,7.24,9.13,9.61,23.5,15.49,35.87,15.88-1.23-7.85-1.99-16.3-1.03-22.27Z" style="fill:#f48661; fill-rule:evenodd;"/><path d="M245.11,411.69c-1.13-.38-9.29,58.66,6.15,74.94,15.44,16.22,45.54,21.58,56.34,8.75,5.32-6.28,15.99-24.09,8.48-44.1-7.58-20.3-7.89-41.06-21.18-50.35-24-16.66-49.79,10.76-49.79,10.76Z" style="fill:#f9af79; fill-rule:evenodd;"/><path d="M293.7,350.92c-22.48,45.43-46.8,38.99-51.23,43.72-35.47,4.02-57.36,62.55-21.53,89.59,16.99,12.83,27.9,19.57,27.9,19.57l2.72-7.77c1.97-5.78,2.76-11.95,2.15-18.08-.42-3.6-1.23-7.53-2.8-10.8-4.06-8.5,8.75-14.21,12.37-21.35,2.76-5.46,2.89-18.06,7.26-27.06l5.23-6.97s11.99-9.15,23.75-6.47c11.76,2.53,19.65-27.19-5.82-54.37Z" style="fill:#20386f; fill-rule:evenodd;"/><path d="M262.48,456.31c.11,7.22-3.24,13.16-7.47,13.16-4.25,.08-7.81-5.69-7.93-12.91-.11-7.22,3.22-13.08,7.47-13.16,4.29-.08,7.81,5.69,7.93,12.91Z" style="fill:#f9af79; fill-rule:evenodd;"/><polygon points="408.26 718.65 591.63 726.06 591.63 905.7 408.26 892.6 408.26 718.65" style="fill:#c4d1eb; fill-rule:evenodd;"/><polygon points="721.35 715.13 591.63 726.06 591.63 905.7 721.35 882.72 721.35 715.13" style="fill:#9db2d9; fill-rule:evenodd;"/><polygon points="572.27 714.48 721.35 715.13 591.63 726.06 408.26 718.65 572.27 714.48" style="fill:#b0c2e4; fill-rule:evenodd;"/><polygon points="668.17 719.59 668.17 777.6 644.81 781.14 644.81 721.58 668.17 719.59" style="fill:#859ac6; fill-rule:evenodd;"/><polygon points="668.17 835.53 668.17 892.14 644.81 896.34 644.81 839.05 668.17 835.53" style="fill:#859ac6; fill-rule:evenodd;"/><polygon points="489.99 716.57 644.79 721.58 656.49 720.59 668.17 719.59 502.23 716.26 489.99 716.57" style="fill:#859ac6; fill-rule:evenodd;"/><path d="M963.73,255.72H195.3c5.53-23.34,26.5-40.71,51.52-40.71,1.23,0,2.41,.06,3.6,.12,12.14-29.69,41.35-50.62,75.42-50.62,14.92,0,28.88,4.02,40.87,10.99,14.67-48.3,59.56-83.48,112.64-83.48,10.8,0,21.28,1.46,31.22,4.2C536.26,39.47,593.37,0,659.75,0c78.71,0,144.44,55.57,160.12,129.57,1.32-.04,2.64-.1,3.98-.1,50.42,0,92.02,37.72,98.17,86.44,20.57,3.87,36.94,19.6,41.71,39.8Z" style="fill:#e0e8f5; fill-rule:evenodd;"/><path d="M1736.12,758.93h0c19.44-23.1,54.29-26.08,77.41-6.63l4.35,3.66,252.29,184.21c33.99,24.82,36.35,75.63,9.25,107.86-27.1,32.19-77.54,38.47-107.82,9.25l-228.83-220.94h0c-23.12-19.44-26.12-54.27-6.65-77.41Z" style="fill:#9db2d9; fill-rule:evenodd;"/><path d="M1650.72,1055.73h0c70.05,0,127.39,57.32,127.39,127.37v151.88h-254.78v-151.88c0-70.05,57.34-127.37,127.39-127.37Z" style="fill:#9db2d9; fill-rule:evenodd;"/><path d="M2083.99,967.61h0c16.85,35.28,1.76,77.89-33.48,94.74l-6.63,3.16-351.65,198.84c-47.34,26.81-108.47,2.47-131.91-46.63-23.46-49.1-3.95-111.88,46.65-131.95l382.29-151.66h0c35.26-16.83,77.87-1.76,94.72,33.5Z" style="fill:#c4d1eb; fill-rule:evenodd;"/><path d="M2060.21,978.95c10.57,22.14,1.21,48.66-20.91,59.25-22.14,10.55-48.64,1.17-59.21-20.95-10.57-22.14-1.19-48.66,20.95-59.2,22.12-10.57,48.61-1.21,59.18,20.89Z" style="fill:#fff; fill-rule:evenodd;"/><path d="M1678.49,487.62h0c24.93-8.1,52,5.69,60.1,30.64l1.51,4.69,101.29,251.51c13.65,33.9-7.93,72.41-42.67,83.69-34.76,11.26-74.8-7.26-83.69-42.69l-67.18-267.77h0c-8.08-24.95,5.71-51.98,30.64-60.08Z" style="fill:#c4d1eb; fill-rule:evenodd;"/><path d="M1765.28,755.1c21.6-7.01,44.77,4.81,51.78,26.41,7.01,21.58-4.83,44.75-26.43,51.78-21.58,6.99-44.77-4.84-51.78-26.41-7.01-21.62,4.83-44.78,26.43-51.78Z" style="fill:#fff; fill-rule:evenodd;"/><rect x="1459.56" y="1334.98" width="391.96" height="75.95" style="fill:#b0c2e4;"/><path d="M1650.72,1113.31c33.82,0,61.24,27.42,61.24,61.23s-27.42,61.24-61.24,61.24-61.24-27.42-61.24-61.24,27.42-61.23,61.24-61.23Z" style="fill:#fff; fill-rule:evenodd;"/><path d="M1548.65,498.23h146.5c16.47,0,29.95,13.48,29.95,29.97h0c0,16.47-13.48,29.95-29.95,29.95h-146.5v-59.92Z" style="fill:#9db2d9; fill-rule:evenodd;"/><path d="M1692.82,515.14c7.74,0,14.02,6.26,14.02,14s-6.28,14.02-14.02,14.02-14.02-6.26-14.02-14.02,6.28-14,14.02-14Z" style="fill:#fff; fill-rule:evenodd;"/><rect x="1508.05" y="484.13" width="40.6" height="88.11" style="fill:#c4d1eb;"/><rect x="1487.1" y="496.96" width="20.95" height="62.45" style="fill:#9db2d9;"/><polygon points="1487.1 552.18 1444.66 589.98 1357.14 572.51 1359.17 562.25 1438.86 568.88 1484.55 528.2 1438.86 487.5 1359.17 494.15 1357.14 483.85 1444.66 466.38 1487.1 504.2 1487.1 552.18" style="fill:#859ac6; fill-rule:evenodd;"/><path d="M407.78,1115.9H1447.15c28.27,0,51.42,23.17,51.42,51.44h0c0,28.3-23.15,51.42-51.42,51.42H407.78c-28.29,0-51.42-23.12-51.42-51.42h0c0-28.27,23.13-51.44,51.42-51.44Z" style="fill:#e5bb9a; fill-rule:evenodd;"/><path d="M407.78,1127.94H1447.15c21.68,0,39.41,17.75,39.41,39.39h0c0,21.66-17.73,39.41-39.41,39.41H407.78c-21.68,0-39.41-17.75-39.41-39.41h0c0-21.64,17.73-39.39,39.41-39.39Z" style="fill:#bf9071; fill-rule:evenodd;"/><path d="M423.23,1147.06c11.18,0,20.26,9.08,20.26,20.28s-9.08,20.26-20.26,20.26-20.26-9.08-20.26-20.26,9.08-20.28,20.26-20.28h0Zm1008.44,0c11.18,0,20.26,9.08,20.26,20.28s-9.08,20.26-20.26,20.26-20.28-9.08-20.28-20.26,9.1-20.28,20.28-20.28h0Zm-112.05,0c11.18,0,20.28,9.08,20.28,20.28s-9.1,20.26-20.28,20.26-20.28-9.08-20.28-20.26,9.08-20.28,20.28-20.28h0Zm-112.05,0c11.18,0,20.26,9.08,20.26,20.28s-9.08,20.26-20.26,20.26-20.28-9.08-20.28-20.26,9.1-20.28,20.28-20.28h0Zm-112.05,0c11.18,0,20.28,9.08,20.28,20.28s-9.1,20.26-20.28,20.26-20.26-9.08-20.26-20.26,9.06-20.28,20.26-20.28h0Zm-112.05,0c11.2,0,20.26,9.08,20.26,20.28s-9.06,20.26-20.26,20.26-20.26-9.08-20.26-20.26,9.08-20.28,20.26-20.28h0Zm-112.03,0c11.18,0,20.26,9.08,20.26,20.28s-9.08,20.26-20.26,20.26-20.28-9.08-20.28-20.26,9.1-20.28,20.28-20.28h0Zm-112.03,0c11.17,0,20.26,9.08,20.26,20.28s-9.1,20.26-20.26,20.26-20.3-9.08-20.3-20.26,9.08-20.28,20.3-20.28h0Zm-112.07,0c11.18,0,20.26,9.08,20.26,20.28s-9.08,20.26-20.26,20.26-20.28-9.08-20.28-20.26,9.1-20.28,20.28-20.28h0Zm-112.03,0c11.17,0,20.26,9.08,20.26,20.28s-9.1,20.26-20.26,20.26-20.28-9.08-20.28-20.26,9.06-20.28,20.28-20.28Z" style="fill:#9c7357; fill-rule:evenodd;"/><rect x="463.56" y="1218.76" width="117.01" height="36.16" style="fill:#d0a382;"/><rect x="508.3" y="1254.91" width="27.54" height="156.02" style="fill:#eac5a7;"/><rect x="1274.32" y="1218.76" width="117.03" height="36.16" style="fill:#9c7357;"/><rect x="1319.07" y="1254.91" width="27.54" height="156.02" style="fill:#eac5a7;"/><rect x="1208.49" y="956.43" width="201.08" height="159.47" style="fill:#c4d1eb;"/><rect x="1258.15" y="956.43" width="151.42" height="159.47" style="fill:#9db2d9;"/><rect x="1320.83" y="956.43" width="26.05" height="61.42" style="fill:#859ac6;"/><rect x="884" y="956.43" width="201.08" height="159.47" style="fill:#c4d1eb;"/><rect x="933.68" y="956.43" width="151.41" height="159.47" style="fill:#9db2d9;"/><rect x="996.34" y="956.43" width="26.06" height="61.42" style="fill:#859ac6;"/><rect x="559.55" y="956.43" width="201.06" height="159.47" style="fill:#c4d1eb;"/><rect x="609.19" y="956.43" width="151.43" height="159.47" style="fill:#9db2d9;"/><rect x="671.89" y="956.43" width="26.06" height="61.42" style="fill:#859ac6;"/><rect x="671.89" y="1054.5" width="26.06" height="61.4" style="fill:#859ac6;"/><rect x="996.34" y="1054.5" width="26.06" height="61.4" style="fill:#859ac6;"/><rect x="1320.83" y="1054.5" width="26.05" height="61.4" style="fill:#859ac6;"/><path d="M471,820.9c-17.83,.08-17.04,2.99-19.36,2.91-2.72-.06-33-19.76-33-19.76,0,0-89.78-57.57-94.53-60.82l-60.02-90.47-54.5,15.05s67.99,96.73,72.47,101.23c4.48,4.48,134.88,68.87,146.24,74.88,0,0,10.86,11.95,17.93,19.23,6.99,7.2,17.01,11.22,19.3,12.93,.36,.31,8.37,5.73,20.07,9.94,10.04,3.6,2.11-4.25,2.11-4.25,0,0-17.43-9.9-16.43-11.07,.77-.92,10.03,5.06,21.1,9.17,2.82,1.05,5.69,2.07,8.25,2.99,6.88,2.49,10.25-.84,3.52-4.48-2.36-1.28-6.43-3.35-9.48-4.42-3.29-1.13-5.94-3.22-8.58-4.6-5.19-2.72-9.04-4.67-8.85-4.86,.29-.15-.36-1.42,2.7-.34,3.72,1.23,10.97,5.51,16.49,6.93,3.14,.8,9.65,2.91,9.65,2.91,0,0,10.38,1.38,10.61,.8,1.55-2.99-5.34-5.86-9.77-6.43-2.62-1.72-9.5-3.71-9.5-3.71,0,0-13.02-7.01-12.1-8.85,.42-.69,8.94,2.68,17.81,4.79,8.25,1.92,16.85,2.6,17.43,1.05,1.07-2.51-7.87-5.61-7.87-5.61,0,0-6.34-1.82-8.43-2.57-2.39-.92-9.46-4.14-9.46-4.14,0,0-24.05-12.28-22.96-13.9,1.03-1.57,5.53-4.56,7.28-4.29,1.74,.23,4.73,2.38,6.47,2.62,1.76,.25,4.25-.84,4.71-2.85,.48-2.07-7.55-6.47-7.55-6.47,0,0-6.53-3.52-11.76-3.52Z" style="fill:#f9af79; fill-rule:evenodd;"/><path d="M227.91,709.56l63.94-24.13s-7.24-31.71-22.75-54.71c-39.22-85.97-83.06-74.9-88.86-39.62-8.2,28.32,47.67,118.47,47.67,118.47Z" style="fill:#466fb5; fill-rule:evenodd;"/><path d="M1234.81,702.43c10.5-12.2,10.57-29.57,.31-52.13-10.65,5.42-14.29,13.56-20.07,24.51-62.91-20.2-47-83.65-20.88-84.42-63.96-12.18-102.61-5.23-131.83,28.76-9.84,31.33,1.88,105.02,9.4,132.83,7.97,32.08,18.75,50.02,11.47,98.13,33.97,24.47,43.55,49.91,133.79,22.81-1.99-27.75-8.81-34.53-8.46-100.64-2.3-21.77,14.71-47.4,26.27-69.86Z" style="fill:#6d96ce; fill-rule:evenodd;"/><path d="M1217,872.93c-61.86,5.94-89.95-8.91-133.79-22.81-57.68,85.53-7.95,129.63-32.73,241.89,40.89,41.02,102.04,48.3,183.41,21.79,1.9-66.28-5.04-163.76-16.89-240.88Z" style="fill:#20386f; fill-rule:evenodd;"/><path d="M1083.78,1115.9c-.84,13.31-1.09,25.07-2.87,33.34-20.11,53.93-3.95,106.8,.84,257.54-.73,1.92-1.49,3.73-2.3,5.5,10.09,4.4,8.85,14.17,14.82,16.33,28.04,10.09,16.45-7.78,21.07-12.75-1.28-3.12-2.38-6.19-3.33-9.12,.77-139,23.46-207.79,23.54-251.07,.25-6.59,2.01-20.26,2.57-26.47l-.17-.04c-20.07-1.03-38.13-5.46-54.16-13.27Z" style="fill:#f9af79; fill-rule:evenodd;"/><path d="M1066.59,1439.51c6.32-14.98,3.29-28.61,10.07-28.27,13.16,3.77,11.15,15.01,17.62,17.37,31.79,11.47,12.64-13.02,23.88-13.98,24.53,10.09,36.87-1.93,39.78,16.6-2.18,4.73-18.54,22.18-75.07,25.45-12.75-4.96-18.19-10.71-16.28-17.18Z" style="fill:#0e2952; fill-rule:evenodd;"/><path d="M1150.16,1129.38c1.55,15.47,3.52,27.41,4.79,36.46-22.9,46.67,1.05,106.9,12.87,257.29-.59,1.9-1.28,3.75-2.01,5.52,10.28,3.96,9.48,13.75,15.57,15.61,28.5,8.85,16.05-8.48,20.43-13.71-1.4-3.04-2.66-6.01-3.73-8.94,1.99-143.19,5.29-229.58,9.9-259.23-.08-13.94,1.63-28.38,3.22-41.9-21.97,5.67-42.3,8.66-61.03,8.91Z" style="fill:#f9af79; fill-rule:evenodd;"/><path d="M1149.03,1456.73c5.57-15.24,7.14-28.99,13.92-28.96,13.31,3.16,11.84,14.48,18.42,16.49,32.29,10.04,12.03-13.6,23.19-15.03,34.68,12.06,58.93,4.79,58.96,23-7.2,11.24-39.72,18.21-97.46,20.95-12.97-4.37-18.67-9.86-17.04-16.45Z" style="fill:#0e2952; fill-rule:evenodd;"/><path d="M1215.04,674.82c-62.93-20.2-47-83.65-20.88-84.42,25.47-3.22,31.46-1.11,70.19-5.53,14.08,15.42,14.76,34.87,2.05,58.43-38.19,3.18-41.9,13.6-51.36,31.52Z" style="fill:#466fb5; fill-rule:evenodd;"/><path d="M1269.85,592.2c15.95,.59,34.13-.27,54.52-2.53,16.03-14.11,59.56-43.2,130.63-87.21,16.36-24.93,33.02-41.02,54.25-50.98,5.23,2.26,2.16,5.78-14.77,22.04,11.34,24.17,2.07,38.4-27.9,39.09-66.86,62.18-109.52,98.78-127.99,109.85-25.28,8.37-48.07,12.72-68.41,13.02,7.12-16.62,7.01-31.02-.34-43.28Z" style="fill:#f9af79; fill-rule:evenodd;"/><path d="M1076.24,768.39c-24.32-3.89-32-14.71-29.84-50.04,4.56,1.82,12.08,4.06,19.29,5.38,2.01,11.38,4.16,21.26,6.05,28.27,.82,3.26,3.68,13.41,4.5,16.39Z" style="fill:#f9af79; fill-rule:evenodd;"/><path d="M1065.69,723.73c-7.2-1.32-13.08-2.89-17.68-4.69-1.17-.46-2.22-.94-3.26-1.44-3.41-49.87,2.47-82.69,17.58-98.44-7.37,23.44-2.64,70.65,3.35,104.56Z" style="fill:#466fb5; fill-rule:evenodd;"/><path d="M1136.91,562.63c-32.82,1.86-48.95-16.32-48.32-54.5-1.01-3.85-1.7-7.53-2.01-11.03-1.99-21.35,8.77-36.5,32.25-45.48,54.94-19.02,78.58-10.74,70.9,17.35-5.19,11.55-13.04,20.32-23.58,26.29,3.03,5.42,4.04,11.53,2.99,18.35,.08,1.84-.52,4.4-1.74,7.66-1.69-13.71-6.21-22.37-13.64-26.01-4.81,8.43-3.33,19.5,4.48,33.19,3.37,19.78-3.71,31.2-21.33,34.18Z" style="fill:#20386f; fill-rule:evenodd;"/><path d="M1070.03,555.7c-6.97-1.26-8.1,9.88-10.04,14.13-5.27-19.78-.61-41.5,8.25-48.8-2.83,.36-5.92,1.95-9.17,4.69-1.19-22.35,25.28-28.8,32.21-29.51,3.56-.38,6.13,1.63,7.7,5.98,10.04,29.07,4.75,54.35-15.86,75.82,3.91-5.65,5.38-12.31,4.48-20.05-7.09,22.41-19.73,27.77-37.96,16.11,15.07,4.56,17.77-2.59,20.38-18.37Z" style="fill:#20386f; fill-rule:evenodd;"/><path d="M1091.83,496.25c2.45-3.6,6.17-6.38,11.38-5.46,8.23,2.57,9.38,13.48,3.41,16.89-1.69,1.24-3.62,1.63-5.4,1.82-.61-2.41-1.36-4.85-2.22-7.32-1.49-4.1-3.91-6.09-7.16-5.94Z" style="fill:#6d96ce; fill-rule:evenodd;"/><path d="M1114.85,587.57c2.72-8.31,2.26-17.62-1.36-28,6.53,2.57,14.34,3.6,23.42,3.06,17.62-2.99,24.71-14.4,21.33-34.18-7.81-13.69-9.29-24.76-4.48-33.19,7.43,3.64,11.95,12.29,13.64,26.01,1.23-3.26,1.82-5.82,1.74-7.66,1.05-6.82,.04-12.93-2.99-18.35,6.43-3.68,11.85-8.37,16.3-14.1,7.05,7.32,9.42,15.17,7.16,23.5,8.83,12.89,11.39,24.3,7.66,34.18,.61,10.46-.21,17.68-2.45,21.64-3.6,6.28-22.08,3.31-28.54,2.89-2.7,6.84-3.18,14.36-1.49,22.64-19.04-1.97-35.51-1.55-49.95,1.55Z" style="fill:#f9af79; fill-rule:evenodd;"/><path d="M1299.31,747.67l.13,13.2-17.87,14.23c.36-4.31-.52-8.08-2.57-11.32l20.3-16.11h0Zm-43.36,47.91l-28.88,23.02-17.16,.33c-.34-4.35-.65-9.17-.86-14.57l18.52,.19,27.46-21.79c.08,.88,.23,1.78,.42,2.72,1.15,4.98,1.3,8.35,.5,10.11Z" style="fill:#8b9cc9; fill-rule:evenodd;"/><path d="M1299.31,747.67l-20.3,16.11c-.35-.54-.73-1.05-1.13-1.55-3.04-3.18-7.83,.77-17.35,7.62-4.04,3.58-5.86,7.89-5.5,12.91l-27.46,21.79-18.52-.19c-.25-5.55-.4-11.72-.48-18.65l24.02,.58,37.84-28.57h-60.9c.69-3.29,1.67-6.67,2.87-10.04h86.91Z" style="fill:#b0c2e4; fill-rule:evenodd;"/><path d="M1270.43,757.7l-37.84,28.57-24.02-.58c-.04-4.17-.06-8.64-.04-13.41-.5-4.69-.08-9.59,1-14.59h60.9Z" style="fill:#8b9cc9; fill-rule:evenodd;"/><path d="M1299.31,747.67h-86.91c1.11-3.18,2.43-6.36,3.87-9.58l75.11-.34,6.93-80.28h-60.21c-.88-2.34-1.88-4.71-2.99-7.16,.4-.19,.82-.42,1.26-.61l71.74-.54-8.81,98.51Z" style="fill:#c4d1eb; fill-rule:evenodd;"/><path d="M1291.38,737.75l-75.11,.34c5.44-12.08,12.7-24.28,18.54-35.66,9.37-10.88,10.42-25.85,3.29-44.97h60.21l-6.93,80.28Z" style="fill:#fff; fill-rule:evenodd;"/><path d="M1255.95,795.58c9.69,5.36,17.93,.33,24.67-15.15,2.03-7.37,1.11-13.44-2.74-18.21-3.04-3.18-7.83,.77-17.35,7.62-4.73,4.21-6.43,9.42-5.07,15.63,1.15,4.98,1.3,8.35,.5,10.11Z" style="fill:#f9af79; fill-rule:evenodd;"/><path d="M1110.17,548.08c.71-12.12-1.07-25.26-5.32-39.39-1.21,.48-2.45,.71-3.64,.82,3.83,14.75,3.56,28.46-.79,41.14,3.56,3.93,7.91,6.91,13.06,8.92,6.53,2.57,14.34,3.6,23.42,3.06,11.53-1.95,18.56-7.55,21.07-16.72-12.08,15.53-28.04,16.22-47.8,2.16Z" style="fill:#0e2952; fill-rule:evenodd;"/></svg>