<?xml version="1.0" encoding="UTF-8"?><svg id="a" xmlns="http://www.w3.org/2000/svg" viewBox="0 0 1376.35 1588.83"><path d="M156.18,452.62c12.72,0,23.02-11.6,23.02-25.94s-10.3-25.91-23.02-25.91-23.02,11.6-23.02,25.91,10.3,25.94,23.02,25.94h0Zm977.01,621.8h122.94c66.12,0,120.23,61.06,120.23,135.59h0c0,74.54-54.11,135.6-120.23,135.6H216.61c-107.13,0-194.8-98.86-194.8-219.55h0c0-120.76,87.67-219.55,194.8-219.61h0c45.31,0,82.37-41.75,82.37-92.79h0c0-51.05-37.06-92.85-82.37-92.85H117.49c-47.1,0-85.61-43.42-85.61-96.5h0c0-53.08,38.5-96.53,85.61-96.53h125.35c18.34,0,33.32-16.9,33.32-37.56h0c0-20.67-14.98-37.59-33.32-37.59h-22.11c-12.63,0-22.99-11.66-22.99-25.94h0c0-14.25,10.36-25.91,22.99-25.91h144.99c30.56,0,33.94,40.66,111.07,40.66h178.84c16.52,0,30.06,15.22,30.06,33.82h0c0,18.6-13.54,33.85-30.06,33.85h-28.82c-23.93,0-43.51,22.05-43.51,49.02h0c0,26.97,19.58,49.04,43.51,49.04h86.78c117.2,0,133.68,34.5,154.23,103.15,20.55,68.65,127.12,74.19,127.12,74.19h145.72c36.03,0,65.53,33.27,65.53,73.89h0c0,40.62-29.5,73.89-65.53,73.89h-7.48c-34.74,0-63.12,31.97-63.12,71.06h0c0,39.09,28.38,71.06,63.12,71.06h0Z" style="fill:#e0e8f5; fill-rule:evenodd;"/><path d="M214.76,1021.72c-27.55,25.2-15.54,50.34,4.8,97.03,20.37,46.75,23.96,219.32,23.96,219.32l-16.78-2.41s2.41-177.34-20.34-225.26c-22.79-47.92-32.38-71.83-52.75-56.29-20.34,15.54,61.12-32.38,61.12-32.38Z" style="fill:#b0c2e4; fill-rule:evenodd;"/><path d="M229.89,989.17c-3.33-14.9-23.2-31.03-49.78-44.69,3.97,21.96,16.6,57.93,3.5,65.29-17.69,9.95-1.71-40.27-8.54-67.88-24.96-12.13-54.99-22.14-82.63-27.08,.06,.12,.09,.23,.12,.29,15.57,39.57,35.91,55.17,27.55,61.12-6.3,4.53-26.85-41.16-54.02-64.59-20.34-1.06-37.59,1.65-47.78,9.77-15.75,12.48-26.32,23.55-10.48,61.53,9.04,6.42,20.78,11.13,34.38,12.42,35.95,3.65,52.72,4.83,27.55,16.84-12.31,5.83-32.94-.35-49.72-4.12,5.42,10.01,12.13,21.31,20.25,34.27,5.15,8.13,10.81,15.25,16.84,21.43,11.57,2.18,21.67,2.24,27.02-.12,16.75-7.18,59.91-29.91,70.68-20.37,10.54,9.42-79.9,15.37-73.63,39.21,43.86,25.26,94.03,13.19,102.86-9.95,11.95-31.15,55.9-38.45,45.81-83.37Z" style="fill:#c4d1eb; fill-rule:evenodd;"/><path d="M139.28,1159.5c47.93-35.92,97.03-2.36,122.23,35.97,25.14,38.33,7.18,124.64,7.18,124.64,0,0-9.6,0-9.6-3.65s26.38-101.86-35.92-146.13c-39.01-27.73-67.12-14.37-70.71-1.18-3.59,13.19,15.57,37.09,15.57,37.09l-28.76-46.75Z" style="fill:#b0c2e4; fill-rule:evenodd;"/><path d="M249.53,1085.66c-47.95,0-63.53,74.3-50.31,117.4,13.16,43.1,31.12,123.41,31.12,123.41l11.98-12.01s-45.51-112.57-34.74-162.91c10.77-50.34,37.12-58.7,41.95-58.7s0-7.18,0-7.18Z" style="fill:#b0c2e4; fill-rule:evenodd;"/><path d="M209.31,1203.42c-3.39-4.47-7.54-8.18-12.6-10.6,.65,3.53,1.47,6.95,2.5,10.24,5.98,19.66,12.95,46.98,18.84,71,.5-3.06,1.35-7.83,2.59-15.07,.32-1.77,.53-3.65,.71-5.65-4.71-15.9-9.16-33.32-12.04-49.93Z" style="fill:#b0c2e4; fill-rule:evenodd;"/><path d="M196.21,1203.77c-91.05-38.39-43.1-90.97-123.35-56.23-5.65,2.41-12.57,8.66-19.46,17.13,7.15,2,15.78,3.47,25.44,2.06,23.96-3.59,15.57,15.6-23.99,20.37-7.42,.88-13.48,2.18-18.49,3.89-18.87,36.21-27.35,83.78,12.54,100.33,7.83,3.24,17.54,5.12,28.35,5.83,12.31-9.77-3-66.35,15.99-58.52,18.19,7.48-5.74,48.51-2.44,58.82,17.96-.3,37.89-3.24,56.88-7.95,7.54-4.24,13.28-9.89,15.04-17.31,6-25.2-33.56-40.74-34.77-62.35-1.06-19.84,14.54,43.63,55.82,52.93,37.36-17.43,55.02-41.09,12.45-58.99Z" style="fill:#c4d1eb; fill-rule:evenodd;"/><path d="M261.1,1135.95c-9.6-20.37,15.57-25.14,14.37-9.54-1.03,13.78-1.18,47.34,12.98,56.46,24.4-2.65,57.61-12.48,82.75-27.5,.29-2,0-4.12-1.06-6.24-10.8-21.55-80.28-39.57-58.73-46.69,17.19-5.71,47.31,28.08,71.57,45.04,14.54-11.07,24.29-24.2,24.29-38.86,0-19.96-24.17-42.51-55.46-53.23-14.07,1.42-27.14,9.07-47.57,20.67-30.17,17.13-23.17-10.54,5.36-26.97-24.67,1.29-49.19,11.83-67.3,36.92,0,0,1.71,10.77-9.69,27.43-31,45.28,4.83,71.77,47.6,70.07-2.44-11.95-12.48-33.44-19.11-47.57Z" style="fill:#c4d1eb; fill-rule:evenodd;"/><path d="M142.16,1157.5c-23.43,18.13-49.46,39.33-81.4,53.7-31.97,14.36-25.58,61.23-25.58,61.23,0,0-4.77-40.51,21.84-54.34,26.64-13.83,44.19-30.38,64.44-33.5,20.25-3.3,31.41-6.48,31.41-6.48,0,0-6.39-12.72-2.65-17.55,3.71-4.83-8.07-3.06-8.07-3.06Z" style="fill:#b0c2e4; fill-rule:evenodd;"/><path d="M26.68,944.89c85.73,22.9,148.58,77.78,160.29,91.08,11.72,13.31,11.72,17.02,11.72,17.02l-9.07,17.02-4.27-2.12s6.95-14.37-11.16-32.97c-31.23-32.15-69.24-57.58-95.35-68.71-26.08-11.25-52.17-21.31-52.17-21.31Z" style="fill:#b0c2e4; fill-rule:evenodd;"/><path d="M263.33,1419.5h-32.77c-23.29,0-42.16-18.9-42.16-42.22v-75.24h117.11v75.24c0,23.32-18.87,42.22-42.19,42.22Z" style="fill:#9db2d9; fill-rule:evenodd;"/><rect x="188.41" y="1315.52" width="117.11" height="8.24" style="fill:#fff;"/><rect x="188.41" y="1330.54" width="117.11" height="4.83" style="fill:#fff;"/><path d="M740.15,1500.46c260.62,0,471.87,19.84,471.87,44.22s-211.25,44.16-471.87,44.16-471.9-19.78-471.9-44.16,211.28-44.22,471.9-44.22Z" style="fill:#c4d1eb; fill-rule:evenodd;"/><path d="M937.07,519.21s31.56-22.64,36.09-23.11c4.53-.47,23.43,7.01,26.61,11.78,3.18,4.77,.12,19.75-3,22.64-3.12,2.88-10.66-2.94-15.01-1.83-4.36,1.12-7.42,3.27-10.13,4.74-5.3,2.8-16.78,6.53-16.78,6.53l-17.78-20.75Z" style="fill:#f9af79; fill-rule:evenodd;"/><path d="M683.39,503.02s130.56,66.18,153.76,59.11c23.25-7.06,99.91-42.92,99.91-42.92l21.49,23.17s-59.23,56.67-97.15,75.6c-37.92,18.96-106.95,22.43-106.95,22.43l-71.07-137.39Z" style="fill:#223f81; fill-rule:evenodd;"/><path d="M648.18,460.57l49.6,94.17,11.89,.85,5.33,15.04,49.72,149.9s27.56-190.5-116.55-259.97Z" style="fill:#172b57; fill-rule:evenodd;"/><path d="M730.97,543.82s54.96,202.39,60.2,395.48c0,0-45.51,15.9-117.08,3.3-71.89-12.6,56.88-398.77,56.88-398.77Z" style="fill:#20386f; fill-rule:evenodd;"/><path d="M692.64,498.75c-41.24,13.01-112.54-22.08-112.54-22.08,0,0,38.03-28.53,36.03-87.84l31.85,25.67,21.67,17.46s-.09,10.3-2.44,28.29c-.44,3.3-.97,6.86-1.53,10.66-.5,3,.85,6.06,3.47,7.68,14.98,9.27,23.49,20.16,23.49,20.16Z" style="fill:#f9af79; fill-rule:evenodd;"/><path d="M750.19,881.65c-1.24,1-2.68,1.65-4.33,1.65-15.48-.18-60.64,8.42-98.83,4.41-32.21-3.06-60.7-12.6-91.32-26.32-4.06-1.83-13.39-6.77-13.19-11.36,.12-4.94,.62-12.13,1.24-21.25,2.18-31.59,5.95-85.93,2.3-148.61-.68-11.66-1.03-23.26-1.06-34.65-.35-84.96,16.51-159.67,50.37-184.96,0,0,23.61,13.25,39.95,18.46,15.99,5.12,24.23,4.09,32.56-1.41,0,0,16.16,8.01,23.05,15.54,16.02,17.46,28.5,40.6,36.74,73.83,7.03,28.29,13.6,69.5,15.9,122.35,1,23.93,7.65,191.5,6.62,192.32Z" style="fill:#fff; fill-rule:evenodd;"/><path d="M669.64,431.95s-.09,10.3-2.44,28.29c-23.99-4.09-51.22-42.86-51.22-42.86,12.22-3.53,22.9-4.15,32-2.89l21.67,17.46Z" style="fill:#ed7d57; fill-rule:evenodd;"/><path d="M694.11,442.43s-83.14,13.81-90.94-38.09c-7.8-51.9-23.79-85.08,28.97-96.09,52.75-11.01,66.06,7.24,72.86,23.9,6.83,16.69,10.54,105.33-10.89,110.28Z" style="fill:#f9af79; fill-rule:evenodd;"/><path d="M601.44,400.04c-2.56,2.38,10.22-2.12,8.8-13.87-1.36-11.78-1.33-27.14,8.21-24.26,9.57,2.86,10.04,10.51,13.98,6.04,3.92-4.47,3.98-23.29,32.41-24.58,28.41-1.32,45.42,4.65,58.64-1.18,13.22-5.8,26.58-27.52,26.58-27.52,0,0-16.4,8.86-22.11,11.13,0,0,16.6-26.23-8.95-46.92-25.49-20.67-51.55-7.12-66.3-6.24-32.56,1.97-82.02,17.96-92.62,39.36-10.66,21.37,28.29,52.72,41.33,88.05Z" style="fill:#20386f; fill-rule:evenodd;"/><path d="M666.97,384.03c-3,.38-6.71-11.22,.59-12.1,3.92-.5,4.36,11.48-.59,12.1Z" style="fill:#20386f; fill-rule:evenodd;"/><path d="M701.32,379.23c3-.35,4-12.51-3.33-11.63-3.92,.5-1.65,12.28,3.33,11.63Z" style="fill:#20386f; fill-rule:evenodd;"/><path d="M668.88,361.09c4.86-.44,5.18,3.62,1.79,5.12-1,.44-20.25,6.74-19.52,5.42,1.38-2.71,8.48-9.74,17.72-10.54Z" style="fill:#20386f; fill-rule:evenodd;"/><path d="M692.14,356.47c-4.89,.56-4.48,4.56-.83,5.39,1.71,.35,21.31,2.74,19.96,1.21-2.3-2.5-10.28-7.62-19.13-6.59Z" style="fill:#20386f; fill-rule:evenodd;"/><path d="M701.97,398.54c-9.13,6.62-9.66,1.5-6.57,1,10.19-1.65-.94-3.77-5.45-20.9-.47-1.79,1.53-2.3,2.12-.85,.41,.97,1.41,4.74,1.91,5.8,6.12,12.72,10.89,12.81,7.98,14.96Z" style="fill:#ed7d57; fill-rule:evenodd;"/><path d="M698.85,408.84c-14.16,27.11-29.41,2.77-25.2,2.06,21.4-3.65,26.94-5.39,25.2-2.06Z" style="fill:#fff; fill-rule:evenodd;"/><path d="M879.01,1491.45s23.55,22.38,46.8,26.5c23.2,4.12,49.34,12.84,50.05,26.02,.59,13.19-75.36,20.72-102.27,8.24-40.1-18.66-43.86-12.6-48.57-22.37-4.77-9.78,3.89-36.5,3.53-39.68-.53-3.89,50.46,1.29,50.46,1.29Z" style="fill:#0e2952; fill-rule:evenodd;"/><path d="M876.07,1480.61l2.95,10.83c-.41,.29-51.75,7.42-50.46-1.29,.94-7.06,2.47-14.72,2.47-14.72l45.04,5.18Z" style="fill:#f9af79; fill-rule:evenodd;"/><path d="M400.28,1451.53s11.36,28.38,30.35,40.39c19.02,12.07,27.26,29.67,22.08,41.69-5.18,12.01-64.82,5.53-83.81-29.68-13.04-24.02-28-33.09-27.94-43.57,.06-10.48,13.66-25.2,14.69-28.2,1.24-3.65,44.63,19.37,44.63,19.37Z" style="fill:#0e2952; fill-rule:evenodd;"/><path d="M404.99,1441.17l-4.71,10.36c-.5,0-48.99-11.78-44.63-19.37,3.44-6.06,10.1-12.54,10.1-12.54l39.24,21.55Z" style="fill:#f9af79; fill-rule:evenodd;"/><path d="M768.38,917.51s116.81,188.47,138.42,234.1c20.08,42.28,4.12,85.61,2.77,118.34-1.65,37.45-23.84,197.83-21.43,208.66,2.47,10.95-64.53,4.95-64.53,4.95,0,0,13.66-254.94-6.24-291.56-13.19-24.49-139.01-188.94-147.81-178.81-8.77,10.13-104.48,161.09-117.14,190.76-11.86,27.79-140.72,241.69-140.72,241.69,0,0-36.45-2.83-61-23.43,0,0,116.58-235.39,126.73-275.43,5.15-20.37,54.55-163.56,91.17-255.88,19.37-48.81,199.77,26.61,199.77,26.61Z" style="fill:#0e2952; fill-rule:evenodd;"/><path d="M762.73,892.55s4.41,4.83,5.65,24.96c0,0-180.67-19.07-199.77-26.61,0,0-.77-22.26,3.3-22.61,4.45-.47,190.82,24.26,190.82,24.26Z" style="fill:#212956; fill-rule:evenodd;"/><path d="M613.18,872.18s-3.91,22.61-4.27,28.5l-8.36-1.53s2.3-23.9,3.68-27.91l8.95,.94Z" style="fill:#556066; fill-rule:evenodd;"/><path d="M747.69,889.96s3.15,20.49,3.24,28.2l-8.86-1s-1.8-25.55-2.83-28.26l8.45,1.06Z" style="fill:#0e1538; fill-rule:evenodd;"/><path d="M671.41,879.24s26.61,2.88,35.42,4.83l-1.18,27.03-34.8-3.36,.56-28.5Z" style="fill:#545b9c; fill-rule:evenodd;"/><path d="M545.38,923.58c104.04,65.24,159.15,29.62,159.15,29.62,15.22-119.05,6.8-262.68,4.83-297.71-5.07-153.85-113.99-194.91-113.99-194.91-61.44,27.52-60.32,92.06-46.4,150.93-11.13,103.33,7.83,190.2-3.59,312.08Z" style="fill:#20386f; fill-rule:evenodd;"/><path d="M595.37,460.57l49.63,94.17,25.46-9.24-8.27,25.14,49.78,149.9s27.53-190.5-116.61-259.97Z" style="fill:#0e2952; fill-rule:evenodd;"/><path d="M1081.61,376.23c155.85,137.95,171.86,293.24,48.63,386.06-119.64,59.61-210.31,55.31-294.03-7.15-98.62-95.41-80.07-221.73,55.7-378.96,.36,.03,.65,.06,1,.06h188.7Z" style="fill:#e5bb9a; fill-rule:evenodd;"/><path d="M892.91,356.94h192c5.24,0,9.54,4.33,9.54,9.63h0c0,5.33-4.3,9.63-9.54,9.63h-192c-5.3,0-9.6-4.3-9.6-9.63h0c0-5.3,4.3-9.63,9.6-9.63Z" style="fill:#a1775a; fill-rule:evenodd;"/><path d="M1073.95,356.94c24.26-30.09,44.04-61.41,59.23-94-12.95-11.95-30.38-11.48-52.1,1.41-26.08-24.96-48.69-25.7-67.77-2.15-42.16-29.67-73.54-26.32-94.2,10.01-25.32-31-43.45-27.64-54.23,9.98-24.2-12.16-40.33-7.15-48.51,14.98,40.1,23.79,68,43.72,83.66,59.76h173.92Z" style="fill:#e5bb9a; fill-rule:evenodd;"/><path d="M891.9,376.17c-135.77,157.23-154.32,283.55-55.7,378.96,50.04,37.36,102.56,53.93,162.32,48.4-213.66-58.99-218.26-284.73-59.29-427.3h-46.34c-.35,0-.65-.03-1-.06h0Zm8.13-19.22h133c-3.77-14.48-13.6-26.38-29.5-35.71,.82,11.48-5.07,20.87-17.84,28.2-36.21-41.01-57.41-57.05-63.53-48.16,16.49,30.12,19.55,44.36,9.3,42.8-25.26-26.47-46.98-48.63-65.12-66.56-.53,1.5-1,3.06-1.47,4.68-24.2-12.16-40.33-7.15-48.51,14.98,40.1,23.79,68,43.72,83.66,59.76h0Zm52.16,19.28h28.26c-7.06,12.6-18.96,26.14-35.62,40.65,5.36-13.78,7.83-27.32,7.36-40.65Z" style="fill:#d0a382; fill-rule:evenodd;"/><path d="M1047.7,497.25c-9.19-4.77-22.32-9.48-40.15-10.07v-29.61h-27.44v31.85c-29.62,6.71-47.22,27.94-47.22,55.34s19.31,42.75,46.39,55.58c25.67,11.19,34.91,20.4,34.91,34.65s-9.77,24.88-29.85,24.88c-17.66,0-34.15-6.15-44.98-12.57l-8.42,31.29c10.66,6.12,28.79,11.72,46.69,12.28v31.85h27.32v-34.09c31.56-6.12,50.05-29.05,50.05-57.52s-15.07-44.72-48.04-59.52c-22.08-10.89-34.09-18.72-34.09-31.59,0-10.89,9.48-22.34,28.2-22.34,16.25,0,29.91,5.86,38.27,10.04l8.36-30.44Z" style="fill:#fff; fill-rule:evenodd;"/><path d="M878.6,774.59s12.01,5.65,14.25,9.27c15.31,24.38,5.54,34.03,43.04,32.26,0,0,15.42-1.88,10.36-11.89-5-10.13-14.19-5.45-19.9-20.28-6.54-17.1-6.89-17.13-21.84-19.96l-13.07-7.86-12.84,18.46Z" style="fill:#f9af79; fill-rule:evenodd;"/><path d="M899.21,777.68c5.65-11.78,8.24-25.46,8.24-25.46,0,0-103.98-66.44-113.16-73.89-5.89-4.8-90.82-60.03-115.16-101.45-23.96-40.71-90.67-83.78-114.72-68.92,0,0-39.83,66.68,26.14,115.1,47.51,47.1,110.9,75.63,161.62,107.04,51.19,29.23,135.39,62.67,135.39,62.67,0,0,7.24-5.89,11.66-15.1Z" style="fill:#223f81; fill-rule:evenodd;"/><path d="M827.73,183.14c-43.33,37.18-102.24,63.29-169.92,68.45-8.86-20.25-15.57-40.83-20.14-61.32,58.67-.47,109.72-20.34,146.72-49.72,12.6,15.28,27.08,29.61,43.33,42.6Z" style="fill:#c4d1eb; fill-rule:evenodd;"/><path d="M822.02,183.05c-41.74,34.62-97.65,59.02-161.59,64.44-7.71-17.69-13.78-35.62-18.16-53.55,56.4-1.41,105.68-20.58,142.13-48.75,11.07,13.45,23.67,26.14,37.62,37.86Z" style="fill:#8fa3cf; fill-rule:evenodd;"/><path d="M773.09,168.86c-4.36,2.74-9.78,3.41-14.43,2.24-22.31,12.25-47.69,21.46-75.39,26.5-2.12,4.15-6.71,7.33-12.9,8.12-6.21,.83-12.54,1.41-18.96,1.8,2.71,8.74,5.8,17.46,9.27,26.11,6.83-.59,13.54-1.41,20.17-2.44,6.39-1,13.04,0,18.64,2.38,30.5-6.74,58.52-17.93,83.13-32.44,.94-4.24,3.83-8.3,8.36-11.27,6-3.92,11.78-8.07,17.31-12.39-6.71-6.33-13.07-12.92-19.08-19.72-5.18,3.89-10.54,7.6-16.13,11.13Z" style="fill:#c4d1eb; fill-rule:evenodd;"/><path d="M754.05,194.74c7.27,10.13,4.92,22.79-7.24,27.73-12.07,4.95-28.14-.85-34-12.13-5.89-11.3-.59-22.93,10.04-26.73,10.71-3.8,23.84,.94,31.21,11.13Z" style="fill:#8fa3cf; fill-rule:evenodd;"/><path d="M698.7,215.79c2.21,4.42-.68,9.18-6.71,10.36-6.03,1.24-12.72-1.71-14.63-6.33-1.94-4.62,1.41-9.01,7.15-10.07,5.77-1,11.98,1.59,14.19,6.04Z" style="fill:#8fa3cf; fill-rule:evenodd;"/><path d="M783.34,180.34c3.18,3.59,2.12,8.95-2.65,11.83-4.77,2.89-11.3,2-14.19-1.85-2.95-3.83-1.41-9.01,3.18-11.66,4.53-2.65,10.48-1.94,13.66,1.68Z" style="fill:#8fa3cf; fill-rule:evenodd;"/><path d="M726.46,114.96c-57.08,1.29-119.2-15.84-174.81-54.76,5.98-21.31,13.81-41.48,23.29-60.2,45.66,36.83,97.74,53.81,145.04,54.58,0,19.75,2.12,40.01,6.48,60.38Z" style="fill:#c4d1eb; fill-rule:evenodd;"/><path d="M722.1,111.25c-54.29,.32-112.96-16.22-165.86-52.55,5.24-18.58,11.92-36.3,19.87-52.93,44.57,34.65,94.79,51.05,140.83,52.37,.06,17.43,1.74,35.21,5.15,53.11Z" style="fill:#8fa3cf; fill-rule:evenodd;"/><path d="M693.23,69.27c-5.12-.65-9.69-3.53-12.57-7.39-25.02-4.68-50.49-13.63-75.1-27.29-4.27,1.82-9.83,1.41-15.13-1.88-5.33-3.36-10.6-6.89-15.78-10.66-3.47,8.48-6.59,17.16-9.39,26.11,5.65,3.86,11.36,7.48,17.13,10.86,5.59,3.27,10.1,8.27,12.92,13.63,27.82,14.16,56.58,23.23,84.84,27.61,3.41-2.65,8.21-3.97,13.6-3.39,7.15,.74,14.25,1.21,21.28,1.38-1.21-9.19-1.94-18.31-2.27-27.35-6.45-.26-12.98-.79-19.55-1.65Z" style="fill:#c4d1eb; fill-rule:evenodd;"/><path d="M662.08,77.19c-.77,12.45-10.66,20.73-23.14,16.87-12.51-3.8-21.25-18.46-18.63-30.91,2.62-12.48,14.1-18.1,24.73-14.34,10.66,3.89,17.84,15.87,17.05,28.38Z" style="fill:#8fa3cf; fill-rule:evenodd;"/><path d="M605.97,58.41c-1.12,4.83-6.36,6.68-11.78,3.8-5.45-2.91-8.74-9.42-7.33-14.19,1.44-4.8,6.83-6.09,11.95-3.24,5.09,2.85,8.27,8.8,7.15,13.63Z" style="fill:#8fa3cf; fill-rule:evenodd;"/><path d="M693.9,84.66c.17,4.77-4.03,8.24-9.57,7.48-5.53-.83-10.01-5.62-9.83-10.45,.18-4.83,4.68-7.86,9.86-7.01,5.21,.82,9.39,5.18,9.54,9.98Z" style="fill:#8fa3cf; fill-rule:evenodd;"/><path d="M307.17,849.21c-57.08,1.3-119.2-15.9-174.78-54.79,5.95-21.28,13.81-41.45,23.26-60.17,45.66,36.83,97.76,53.81,145.04,54.55,0,19.78,2.12,40.04,6.48,60.41Z" style="fill:#c4d1eb; fill-rule:evenodd;"/><path d="M302.84,845.51c-54.29,.3-112.96-16.19-165.86-52.55,5.24-18.58,11.92-36.3,19.87-52.93,44.54,34.65,94.79,51.05,140.83,52.34,.06,17.46,1.74,35.24,5.15,53.14Z" style="fill:#8fa3cf; fill-rule:evenodd;"/><path d="M273.93,803.52c-5.09-.65-9.65-3.53-12.54-7.39-25.02-4.68-50.49-13.66-75.1-27.29-4.27,1.82-9.86,1.41-15.16-1.91-5.3-3.33-10.57-6.86-15.78-10.63-3.44,8.45-6.59,17.16-9.39,26.11,5.65,3.86,11.39,7.48,17.16,10.86,5.59,3.27,10.1,8.27,12.89,13.66,27.85,14.13,56.61,23.2,84.87,27.56,3.39-2.65,8.21-3.95,13.6-3.42,7.12,.82,14.22,1.29,21.26,1.41-1.21-9.19-1.94-18.25-2.24-27.32-6.45-.24-12.98-.83-19.58-1.65Z" style="fill:#c4d1eb; fill-rule:evenodd;"/><path d="M242.82,811.41c-.8,12.48-10.66,20.78-23.17,16.9-12.48-3.83-21.23-18.43-18.6-30.91,2.62-12.48,14.07-18.13,24.73-14.31,10.66,3.83,17.81,15.87,17.05,28.32Z" style="fill:#8fa3cf; fill-rule:evenodd;"/><path d="M186.71,792.66c-1.12,4.83-6.36,6.68-11.81,3.8-5.45-2.88-8.74-9.42-7.3-14.22,1.44-4.77,6.83-6.06,11.92-3.21,5.09,2.86,8.27,8.8,7.18,13.63Z" style="fill:#8fa3cf; fill-rule:evenodd;"/><path d="M274.61,818.95c.18,4.77-4.03,8.24-9.57,7.42-5.51-.77-10.01-5.59-9.8-10.42,.15-4.83,4.68-7.83,9.83-7.01,5.21,.82,9.39,5.18,9.54,10.01Z" style="fill:#8fa3cf; fill-rule:evenodd;"/><path d="M921.58,118.64c13.42,36.24,26.61,72.6,39.62,108.98,15.84-5.68,33.21-5.71,49.1-.03,13.01-36.42,25.79-72.86,38.45-109.39-41.21-14.54-86.08-14.4-127.17,.44Z" style="fill:#c4d1eb; fill-rule:evenodd;"/><path d="M929.94,118.4c11.3,35.24,22.49,70.54,33.44,105.89,14.54-4.5,30.14-4.53,44.75-.03,10.89-35.36,21.67-70.77,32.26-106.24-36.03-11.04-74.54-10.92-110.45,.38Z" style="fill:#8fa3cf; fill-rule:evenodd;"/><path d="M1010.84,130.03c-.59,3.83,2.77,7.77,8.07,11.36-3.89,18.63-7.83,37.24-11.78,55.85-4.59,1.5-7.6,4.83-8.18,8.86-.59,4.03-1.18,8.09-1.77,12.16-7.66-1.12-15.43-1.09-23.2,.06-.59-4.06-1.18-8.13-1.77-12.19-.59-3.92-3.53-7.12-7.89-8.63-4.12-18.75-8.24-37.45-12.48-56.14,4.95-3.56,8.01-7.39,7.42-11.1-.77-4.89-1.59-9.77-2.41-14.66,18.54-2.97,37.5-3.06,56.11-.27-.71,4.89-1.42,9.8-2.12,14.69Z" style="fill:#c4d1eb; fill-rule:evenodd;"/><path d="M985.46,150.43c-20.55,.06-34.8,11.27-32.33,19.08,2.47,7.92,16.84,10.69,32.5,10.8,15.66-.15,30.03-2.94,32.38-10.92,2.36-7.8-12.01-18.99-32.56-18.96Z" style="fill:#8fa3cf; fill-rule:evenodd;"/><path d="M983.64,190.38c-5.77,.12-9.89,3.83-9.42,7.59,.53,3.8,4.83,6.39,9.71,6.3,4.89-.12,9.07-2.85,9.42-6.68,.35-3.8-4-7.33-9.71-7.21Z" style="fill:#8fa3cf; fill-rule:evenodd;"/><path d="M982.05,127.7c-9.07,.18-15.96,4.24-15.43,8.04,.53,3.8,7.6,5.98,15.84,5.83,8.13-.18,15.07-2.71,15.43-6.54,.35-3.8-6.77-7.56-15.84-7.33Z" style="fill:#8fa3cf; fill-rule:evenodd;"/><path d="M590.4,135.45c4.3,47.42-25.61,105.51-87.43,137.18-36.95-11.13-69.36-31.91-94.03-59.73,67.74,3.41,117.25-34.24,131.74-75.89,14.34,4.42,31.76,4.8,49.72-1.56Z" style="fill:#c4d1eb; fill-rule:evenodd;"/><path d="M587.22,139.54c1.62,45.6-28.38,99.47-87.14,129-31.68-10.19-59.85-27.64-82.28-50.58,64.21-.56,110.39-37.27,124.61-77.54,13.22,3.62,28.73,3.92,44.8-.88Z" style="fill:#8fa3cf; fill-rule:evenodd;"/><path d="M544.68,163.03c-2.15,4.27-6.48,7.65-11.54,9.19-14.01,19.66-35.89,36.71-63.82,46.63,1.18,4.3-1,8.27-7.33,10.18-6.39,1.91-13.04,3.48-19.9,4.62,12.34,9.36,25.91,17.31,40.39,23.64,6.54-2.68,12.81-5.71,18.72-9.01,5.74-3.15,14.04-5.12,22.61-6.18,24.55-18.61,41.39-42.16,49.84-66.15-2.5-2.71-3.09-6.77-1.8-11.39,1.71-6.09,2.89-12.19,3.5-18.22-8.33,1.21-16.37,1.12-23.9,.06-1.74,5.59-3.97,11.16-6.77,16.63Z" style="fill:#c4d1eb; fill-rule:evenodd;"/><path d="M543.94,190.17c14.04,2.18,22.84,9.69,16.25,19.84-6.48,10.19-28.82,16.34-45.86,10.36-17.08-5.86-19.93-17.49-10.48-23.82,9.57-6.48,25.94-8.48,40.1-6.39Z" style="fill:#8fa3cf; fill-rule:evenodd;"/><path d="M504.08,229.92c6.8,2.5,8.68,7.01,3.5,10.33-5.18,3.33-15.84,3.5-23.02,.09-7.21-3.44-7.89-8.33-2.35-10.74,5.59-2.38,15.07-2.15,21.87,.32Z" style="fill:#8fa3cf; fill-rule:evenodd;"/><path d="M559.72,164.18c4.68,.18,7.54,3.74,5.8,8.45-1.74,4.65-7.98,8.36-13.28,7.77-5.3-.59-7.18-4.8-4.83-9.07,2.38-4.27,7.59-7.3,12.3-7.15Z" style="fill:#8fa3cf; fill-rule:evenodd;"/><path d="M358.69,300.39c4.3-47.45-25.64-105.51-87.46-137.18-36.94,11.13-69.36,31.91-94.03,59.7,67.77-3.38,117.25,34.27,131.74,75.92,14.34-4.44,31.76-4.8,49.75,1.56Z" style="fill:#c4d1eb; fill-rule:evenodd;"/><path d="M355.48,296.3c1.62-45.63-28.38-99.5-87.11-129.03-31.68,10.19-59.85,27.67-82.31,50.61,64.21,.56,110.4,37.27,124.61,77.51,13.25-3.59,28.73-3.89,44.81,.91Z" style="fill:#8fa3cf; fill-rule:evenodd;"/><path d="M312.97,272.78c-2.18-4.27-6.51-7.62-11.54-9.16-14.04-19.69-35.89-36.71-63.85-46.63,1.21-4.3-.97-8.27-7.33-10.21-6.36-1.88-13.01-3.45-19.9-4.59,12.36-9.36,25.91-17.34,40.39-23.67,6.56,2.71,12.81,5.71,18.72,9.01,5.77,3.18,14.04,5.12,22.61,6.21,24.55,18.58,41.39,42.16,49.84,66.15-2.5,2.71-3.06,6.77-1.8,11.36,1.74,6.12,2.88,12.22,3.53,18.22-8.33-1.18-16.37-1.12-23.9-.03-1.74-5.62-4-11.19-6.77-16.66Z" style="fill:#c4d1eb; fill-rule:evenodd;"/><path d="M312.23,245.67c14.04-2.21,22.81-9.69,16.22-19.84-6.48-10.19-28.82-16.34-45.84-10.39-17.07,5.89-19.93,17.52-10.48,23.85,9.54,6.48,25.91,8.48,40.1,6.39Z" style="fill:#8fa3cf; fill-rule:evenodd;"/><path d="M272.34,205.89c6.8-2.47,8.71-6.98,3.53-10.3-5.18-3.35-15.84-3.5-23.02-.09-7.21,3.41-7.92,8.33-2.36,10.72,5.59,2.41,15.04,2.18,21.84-.32Z" style="fill:#8fa3cf; fill-rule:evenodd;"/><path d="M327.98,271.63c4.68-.18,7.57-3.71,5.8-8.42-1.71-4.68-7.95-8.36-13.28-7.77-5.3,.56-7.15,4.8-4.8,9.04,2.38,4.27,7.6,7.33,12.28,7.15Z" style="fill:#8fa3cf; fill-rule:evenodd;"/><path d="M784.75,109.78c12.01-50.58,72.89-89.05,146.72-73.68,15.43,20.49,25.08,40.39,30.32,57.76-58.94-25.94-111.75,1.24-119.23,41.51-13.83-10.24-33.09-19.66-57.82-25.58Z" style="fill:#c4d1eb; fill-rule:evenodd;"/><path d="M790.05,107.8c13.19-47.13,70.3-82.28,139.65-68.89,13.19,17.66,22.02,34.83,27.32,50.19-56.99-22.31-107.27,3.39-116.46,41.86-12.66-9.04-29.44-17.34-50.52-23.17Z" style="fill:#8fa3cf; fill-rule:evenodd;"/><path d="M838.86,105.86c2.41-3.65,6.59-5.53,10.77-5.56,14.54-15.9,37.92-25.96,65.47-25.46,1.65-2.86,5.95-4.59,12.25-3.77,6.36,.82,12.84,2.21,19.31,4.12-3.71-7.86-8.3-16.04-13.89-24.41-7.24-1.41-14.37-2.27-21.25-2.65-6.65-.32-14.07-2.06-20.9-4.59-31.5,2.74-57.82,16.28-74.42,35.62,1.18,4.06,.47,8.45-2.12,12.45-3.42,5.3-6.12,10.89-8.24,16.72,9.72,3.68,18.25,7.92,25.73,12.42,1.83-5.21,4.24-10.19,7.3-14.9Z" style="fill:#c4d1eb; fill-rule:evenodd;"/><path d="M846.16,78.75c-10.36-7.48-13.95-19.4-2.94-25.17,10.89-5.83,30.68-.91,39.39,8.63,8.77,9.54,4.89,18.16-4.35,21.99-9.36,3.77-21.61,2.15-32.09-5.45Z" style="fill:#8fa3cf; fill-rule:evenodd;"/><path d="M896.03,58.46c-3.3-3.8-1.53-7.62,4.71-7.86,6.24-.27,14.13,3.47,17.08,7.62,2.88,4.21,.06,6.95-5.77,6.86-5.77-.12-12.72-2.8-16.01-6.62Z" style="fill:#8fa3cf; fill-rule:evenodd;"/><path d="M825.55,98.21c-4.41-2.41-6.24-7.62-3.18-11.45,3.06-3.83,9.72-4.5,13.84-1.71,4.18,2.8,4.53,7.68,1.65,11.13-2.83,3.5-7.89,4.47-12.31,2.03Z" style="fill:#8fa3cf; fill-rule:evenodd;"/><path d="M305.02,433.92c-47.95-20.11-114.87,6.45-145.96,75.19,7.51,24.55,17.9,44.07,28.85,58.55,13.75-62.91,66.8-89.61,103.74-71.95-.12-17.25,3.62-38.36,13.36-61.79Z" style="fill:#c4d1eb; fill-rule:evenodd;"/><path d="M300.31,437.07c-45.87-17.16-107.89,8.3-137.89,72.27,6.51,21.11,15.19,38.33,24.46,51.69,15.54-59.26,65.88-84.78,102.42-69.53,.15-15.54,3.33-34.03,11.01-54.43Z" style="fill:#8fa3cf; fill-rule:evenodd;"/><path d="M270.02,475.34c-4.36-.21-8.36,2.06-10.86,5.45-21.4,2.38-43.3,15.34-59.14,37.92-3.27-.32-7.18,2.09-10.21,7.68-3.06,5.62-5.77,11.63-8.07,18.05-4.15-7.62-8.07-16.16-11.48-25.64,3.06-6.62,6.54-12.89,10.33-18.69,3.65-5.62,6.62-12.63,8.57-19.64,20.78-23.82,47.22-37.09,72.6-39.15,2.59,3.36,6.59,5.36,11.33,5.62,6.27,.35,12.42,1.41,18.31,3.18-2.68,10.01-4.3,19.43-5.06,28.11-5.24-1.62-10.74-2.62-16.31-2.88Z" style="fill:#c4d1eb; fill-rule:evenodd;"/><path d="M243.79,465.31c.06-12.78-7.48-22.7-18.6-17.19-11.16,5.39-18.84,24.26-16.22,36.86,2.53,12.75,11.83,14.69,20.31,9.48,8.6-5.39,14.51-16.22,14.51-29.15Z" style="fill:#8fa3cf; fill-rule:evenodd;"/><path d="M198.04,493.66c-1.12-4.92-5.27-5.71-9.13-.82-3.89,4.86-5.51,13.45-3.86,18.28,1.68,4.83,5.56,4.15,8.89-.59,3.33-4.8,5.21-11.92,4.09-16.87Z" style="fill:#8fa3cf; fill-rule:evenodd;"/><path d="M271.66,460.07c.62-4.95-2.5-9.51-7.39-9.3-4.89,.21-9.33,5.18-9.54,10.19-.21,5.03,3.53,8.18,8.01,7.95,4.5-.29,8.3-3.83,8.92-8.83Z" style="fill:#8fa3cf; fill-rule:evenodd;"/></svg>