<?xml version="1.0" encoding="UTF-8"?><svg id="a" xmlns="http://www.w3.org/2000/svg" viewBox="0 0 1394 1287.06"><path d="M1079.8,1190.84c151.39,0,274.15,21.52,274.15,48.11s-122.75,48.11-274.15,48.11-274.15-21.55-274.15-48.11,122.75-48.11,274.15-48.11h0Zm0,0" style="fill:#cfdaee; fill-rule:evenodd;"/><path d="M196.49,116.31H1297.14c53.27,0,98.41,43.66,96.81,96.82l-20.09,663.18c-1.59,53.15-43.63,96.81-96.82,96.81H216.57c-52.9,0-95.21-43.57-96.81-96.81L99.67,213.13c-1.6-53.21,43.55-96.82,96.82-96.82h0Zm0,52.9H1297.14c24.17,0,44.66,19.84,43.95,43.92l-20.09,663.15c-.71,23.74-20.21,43.94-43.95,43.94H216.57c-23.73,0-43.2-19.78-43.92-43.94l-20.09-663.15c-.74-24.17,19.75-43.92,43.92-43.92h0Zm0,0" style="fill:#cfdaee; fill-rule:evenodd;"/><rect x="639.73" y="973.12" width="216.49" height="134.44" style="fill:#becce7;"/><path d="M856.21,1107.56h116.45c5.84,0,9.21,5.02,10.6,10.57l12.91,51.79c1.4,5.58-4.82,10.6-10.6,10.6H510.36c-5.76,0-12-4.96-10.57-10.6l12.91-51.79c1.4-5.64,4.76-10.57,10.58-10.57h332.94Zm0,0" style="fill:#cfdaee; fill-rule:evenodd;"/><path d="M1341.09,213.13c0-21.15-15.13-38.9-35.11-43.04l-1.05-.2h-.03l-1.05-.18h-.03l-1.05-.14h-.03l-1.08-.15h-.03l-1.08-.09-1.11-.09h-.03l-1.11-.03-1.14-.03H196.49l-1.12,.03-1.14,.03-2.22,.17-1.08,.15h-.02l-1.09,.14c-21.03,3.25-37.25,21.52-37.25,43.41l20.09,663.15c.72,24.16,20.18,43.94,43.92,43.94H1277.05c23.74,0,43.23-20.2,43.95-43.94l20.09-663.15Zm0,0" style="fill:#e9eef7; fill-rule:evenodd;"/><path d="M253,0h987.65c15.96,0,29.04,13.08,29.04,29.05V773.42c0,15.99-13.08,29.04-29.04,29.04H253c-15.99,0-29.04-13.05-29.04-29.04V29.05c0-15.96,13.05-29.05,29.04-29.05h0Zm0,0" style="fill:#fff; fill-rule:evenodd;"/><path d="M1240.65,0H253c-15.99,0-29.04,13.08-29.04,29.05V105.31H1269.69V29.05c0-15.96-13.08-29.05-29.04-29.05h0Zm0,0" style="fill:#cfdaee; fill-rule:evenodd;"/><path d="M390.91,36.31h778.89c9.46,0,17.24,7.78,17.24,17.24v.03c0,9.46-7.78,17.24-17.24,17.24H390.91c-9.49,0-17.24-7.78-17.24-17.24v-.03c0-9.47,7.75-17.24,17.24-17.24h0Zm-67.05,0c9.51,0,17.23,7.73,17.23,17.27s-7.72,17.24-17.23,17.24-17.25-7.72-17.25-17.24,7.72-17.27,17.25-17.27h0Zm0,0" style="fill:#fff; fill-rule:evenodd;"/><path d="M764.98,150.26h439.36c5.5,0,9.97,4.47,9.97,9.97s-4.47,9.98-9.97,9.98h-439.36c-5.49,0-9.98-4.48-9.98-9.98s4.48-9.97,9.98-9.97h0ZM291.1,685.81h913.24c5.5,0,9.97,4.5,9.97,9.97s-4.47,10-9.97,10H291.1c-5.47,0-9.98-4.5-9.98-10s4.5-9.97,9.98-9.97h0Zm0-53.55h913.24c5.5,0,9.97,4.5,9.97,9.97s-4.47,10-9.97,10H291.1c-5.47,0-9.98-4.5-9.98-10s4.5-9.97,9.98-9.97h0Zm0-53.56h913.24c5.5,0,9.97,4.47,9.97,9.98s-4.47,9.98-9.97,9.98H291.1c-5.47,0-9.98-4.47-9.98-9.98s4.5-9.98,9.98-9.98h0Zm473.88-53.55h439.36c5.5,0,9.97,4.47,9.97,9.97s-4.47,9.98-9.97,9.98h-439.36c-5.49,0-9.98-4.47-9.98-9.98s4.48-9.97,9.98-9.97h0Zm0-53.58h439.36c5.5,0,9.97,4.5,9.97,10s-4.47,9.98-9.97,9.98h-439.36c-5.49,0-9.98-4.48-9.98-9.98s4.48-10,9.98-10h0Zm0-53.56h439.36c5.5,0,9.97,4.51,9.97,10s-4.47,9.98-9.97,9.98h-439.36c-5.49,0-9.98-4.51-9.98-9.98s4.48-10,9.98-10h0Zm0-53.55h439.36c5.5,0,9.97,4.5,9.97,10s-4.47,9.98-9.97,9.98h-439.36c-5.49,0-9.98-4.5-9.98-9.98s4.48-10,9.98-10h0Zm0-53.56h439.36c5.5,0,9.97,4.5,9.97,9.98v.03c0,5.47-4.47,9.98-9.97,9.98h-439.36c-5.49,0-9.98-4.5-9.98-9.98v-.03c0-5.47,4.48-9.98,9.98-9.98h0Zm0-53.55h439.36c5.5,0,9.97,4.5,9.97,9.98s-4.47,10-9.97,10h-439.36c-5.49,0-9.98-4.5-9.98-10s4.48-9.98,9.98-9.98h0Zm0-53.55h439.36c5.5,0,9.97,4.5,9.97,9.98s-4.47,10-9.97,10h-439.36c-5.49,0-9.98-4.5-9.98-10s4.48-9.98,9.98-9.98h0Zm0,0" style="fill:#e9eef7; fill-rule:evenodd;"/><rect x="279.3" y="150.26" width="384.9" height="352.21" style="fill:#cfdaee;"/><path d="M1133.66,355.67c-5.81,.39-11.43-6.5-13.05-8.55-6.18-7.86-10.15-17.1-11.74-22.26,1.23-3.45,2.48-7.81,3.82-13.05,22.4-15.22,25.48-26.51,9.18-33.8-3.28,1.85-7.35,7.49-12.23,17.02-3.88-.15-6.84-2.14-8.83-5.95,4.62-16.05,7.64-29.07,9.03-39.08-11.06-16.44-36.91-18.78-71.11-14.34-1.6,9.09-2.9,18.76-3.9,28.93-6.07,5.59-5.27,26.25,.29,50.07-2.77,13.54,5.59,20.93,25.11,22.15,.17,3.27-.11,7.03-.17,9.34-.06,2.05-.14,6.13-2.31,6.76l-3.62,.88c.37,48.45,25.17,57.74,79.55,1.88h0Zm0,0" style="fill:#ffb27d; fill-rule:evenodd;"/><path d="M1038.73,235.64c34.2-4.44,60.05-2.11,71.11,14.34-1.4,10-4.41,23.03-9.03,39.08,1.99,3.82,4.96,5.79,8.83,5.95,4.87-9.49,8.95-15.16,12.23-17.02,16.3,7.3,13.22,18.58-9.21,33.8-1.31,5.25-2.57,9.6-3.79,13.05,20.18-4.53,37.08-22.57,39.45-30.38,23.54-46.4-2.71-65.98-16.76-73.13-6.18-45.95-73.16-6.21-90.77-34.26-36.88,21.03-12.43,48.14-2.05,48.56h0Zm0,0" style="fill:#163560; fill-rule:evenodd;"/><path d="M1082.7,332.09c-5.47,2.71-12.97,4.27-22.52,4.71,.2,3.25,.06,6.95-.14,9.23,9.58-1.82,17.13-6.47,22.66-13.93h0Zm0,0" style="fill:#f08261; fill-rule:evenodd;"/><path d="M1174.48,1262.55c21.26-7.47,22.97-18.41,34.43-23.77,11.52-5.39,12.86-14.99,1.57-25.39-8.32,6.64-18.67,14.82-24.14,10.49-3.65-2.88-16.04-2.71-18.53,1.51-10.77,25.11-25.79,17.16-28.76,28.59-.34,15.19,25.68,12.03,35.43,8.58h0Zm0,0" style="fill:#1c468a; fill-rule:evenodd;"/><path d="M990.28,1237.58c37.45-.6,65.44-1.03,78.35-5.13,13.97-4.39,11.06-12.91,3.05-26.5-35.28,16.22-25.88-3.33-42.38-.86-11.6,9.35-28.76,15.59-51.5,18.78-9.63,7.1-5.73,13.4,12.48,13.71h0Zm0,0" style="fill:#1c468a; fill-rule:evenodd;"/><path d="M1008.97,361.14c18.7-5.42,35.48-8.72,50.33-9.86,2.71,41.04,24.11,40.76,64.27-.86,38.65,3.25,46.23,3.73,67.66,10.69,46.43,44.34,50.67,95.5,74.96,153.98-26.88,1.2-38.93,4.42-57.17,10.94-3.93-14.02-7.21-25.31-9.86-33.86,.74,77.13,1.03,129.94,.86,158.49-88.84,35.2-162,23.14-191.89-4.28-.4-68.54-.97-122.78-1.71-162.76-10.6,12.5-20.46,22.22-29.55,29.12-21.77-24.97-36.54-35.03-48.88-49.73,27.33-44.89,66.52-86.67,81-101.89h0Zm0,0" style="fill:#d5403c; fill-rule:evenodd;"/><path d="M829.96,436.23c46.66,19.38,79.34,35.4,98.01,48.05l8.32-12.28c7.7,7.75,16.5,15.33,27.27,26.33-9.95,10.4-20.61,18.95-33.03,26.19-32.43-3.48-68.26-28.04-107.52-73.68-12.21-2.45-21.18-6.86-26.97-13.28-.29-5.88,2.68-11.77,8.89-17.67-16.27-10.63-22.74-18.21-19.44-22.77,25.51,15.76,40.33,28.78,44.46,39.1h0Zm0,0" style="fill:#ffb27d; fill-rule:evenodd;"/><path d="M1008.12,646.39c1.77,6.67-5.5,45.81-6.7,66.24-11.83,72.9-1.71,167.78,4.65,289.79,11.4,43.01,28.19,100.29,27.1,180.95,19.81,6.07,26.99,6.7,44.86,2.14,12.52-84.16,3.99-151.56-7.32-182.68,7.24-48.11,18.04-101.98,33.77-179.64,17.73,84.64,41.41,147.46,51.67,188.45,2.05,45.71,11.29,107.38,16.13,185.02,14.71,4.45,23.86,5.73,39.13,3.85,19.81-71.37,16.47-149.03,8.09-232.99-8.95-100.95,5.79-214.89-8.95-254.42-7.55-23.4-8.52-44.21-10.55-62.42-74.1,24.65-138.08,23.23-191.89-4.28h0Zm0,0" style="fill:#bd251d; fill-rule:evenodd;"/><path d="M1186.36,572.35c4.76,.71,9.23,1.34,13.48,1.91,.23,34.01,.29,59.48,.17,76.41-4.19,1.88-10.09,4.05-14.71,4.59,.03-2.2,.71-7.24,.74-9.38,.28-26.02,.4-50.5,.31-73.53h0Zm-217.2-68.14c13.08-10.89,25.54-28.59,37.36-53.04-1.34,8.52-1.88,19.92-1.6,34.23-10.06,11.65-19.41,20.77-28.07,27.36-2.65-3.05-5.22-5.9-7.7-8.55h0Zm213.5-66.29c5.76,18.53,11.26,36.62,16.5,54.26,.14,14.91,.29,28.9,.37,41.99-3.79-.35-8.27-.6-13.54-.71-.54-36.2-1.65-68.06-3.33-95.53h0Zm0,0" style="fill:#bd251d; fill-rule:evenodd;"/><path d="M1065.4,464.56h-97.79c-4.5,0-7.58,3.68-6.86,8.15l21.94,138.54c.71,4.5,4.96,8.15,9.43,8.15h97.79c4.5,0,7.58-3.65,6.87-8.15l-21.95-138.54c-.71-4.47-4.96-8.15-9.43-8.15h0Zm0,0" style="fill:#163560; fill-rule:evenodd;"/><path d="M1257.16,515.6c4.25,17.16,6.01,32.83,2.54,53.64-10.54,15.34-53.15,6.76-162.79-11.57-3.93,3.59-12.08,7.15-24.42,5.56-11.46-2.85-12.02-5.84-24.88-17.98-3.14-9.43-2.48-16.64,1.92-21.63,14.5,8.52,22.11,13.05,38.44,13.59-4.36-11.17-5.01-18.38-1.97-21.63,5.56,4.48,9.18,11.18,10.86,20.12,86.47-3.73,109.27-3.25,120.79,2.79-1.25-5.44-2.37-10.2-3.34-14.31,13.45-4.59,24.43-7.27,42.87-8.58h0Zm0,0" style="fill:#ffb27d; fill-rule:evenodd;"/><path d="M1069.2,1187.48c-.88,7.35-1.03,13.94-.37,19.75-29.53,12.83-24.51-1.97-36.31-2.34,2.96-5.21,4.87-11.88,5.76-20.01,12.88,3.7,20.21,4.53,30.92,2.59h0Zm137.54,13.51c0,5.36,.51,10.06,1.57,14.11-7.89,6.24-16.96,12.74-21.97,8.78-2.39-1.91-8.58-2.48-13.22-1.42,1.91-6.47,3.42-14.54,4.53-24.25,10.35,2.79,18.3,3.73,29.1,2.79h0Zm0,0" style="fill:#ffb27d; fill-rule:evenodd;"/><path d="M1001.42,712.63c52.13,48.59,121.81,48.74,209.14,.46,14.73,39.53,0,153.47,8.95,254.42,8.38,83.96,11.71,161.62-8.09,232.99-1.62,.2-3.16,.37-4.67,.48-10.8,.94-18.75,0-29.1-2.79-1.71-.45-3.51-.97-5.36-1.54-4.85-77.64-14.08-139.31-16.13-185.02-10.26-40.98-33.94-103.8-51.67-188.45-15.73,77.66-26.53,131.53-33.77,179.64,11.31,31.12,19.84,98.52,7.32,182.68-3.25,.83-6.16,1.48-8.83,1.97-10.75,1.94-18.04,1.11-30.92-2.59-1.6-.46-3.31-.97-5.1-1.51,1.08-80.66-15.7-137.94-27.1-180.95-6.36-122.01-16.47-216.89-4.65-289.79h0Zm0,0" style="fill:#2b478b; fill-rule:evenodd;"/><path d="M1083.67,1127.68c-19.01,5.16-36.42,6.73-52.24,4.68-.34-4.19-.71-8.27-1.14-12.31,17.33,2.25,35.25,1.11,53.78-3.48-.09,3.65-.23,7.36-.4,11.12h0Zm138.97,14.48c-20.66,2.48-38.99,1.11-54.95-4.1-.4-4.36-.8-8.64-1.23-12.85,17.93,5.84,37.02,7.84,57.34,5.98-.34,3.68-.73,7.33-1.17,10.97h0Zm-52.27,27.3c-.34-4.3-.68-8.55-1.03-12.74,15.96,4.39,32.86,5.79,50.67,4.22-.6,3.71-1.25,7.38-1.97,11.06-17.61,1.97-33.52,1.14-47.68-2.54h0Zm-138-23.77c16.1,2.68,32.86,2.37,50.25-.88-.26,3.7-.6,7.41-.97,11.2-17.75,3.76-34,4.42-48.74,2-.14-4.16-.31-8.27-.54-12.31h0Zm0,0" style="fill:#1c468a; fill-rule:evenodd;"/><path d="M425.6,268.42l92.34,57.95-92.34,57.91v-115.86Zm0,0" style="fill:#fff; fill-rule:evenodd;"/><path d="M75.7,997.95H457.34c11.15,0,20.24,9.09,20.24,20.23v229.88c0,11.14-9.1,20.24-20.24,20.24H75.7c-11.12,0-20.21-9.09-20.21-20.24v-229.88c0-11.14,9.09-20.23,20.21-20.23h0Zm0,0" style="fill:#e9eef7; fill-rule:evenodd;"/><path d="M108.24,1154.22l90.86-48.39,44.14,18.53,45.43-60.05,44.89,44.09,44.46-61.11,46.91,28.79-2.71,4.45-42.84-26.28-45.18,62.1-44.97-44.18-44.32,58.57-45.6-19.15-88.63,47.23-2.46-4.59Zm0,0" style="fill:#fff; fill-rule:evenodd;"/><rect x="94.76" y="1193.23" width="29.41" height="56.09" style="fill:#cfdaee;"/><rect x="139.63" y="1175.11" width="29.44" height="74.22" style="fill:#cfdaee;"/><rect x="184.51" y="1144.33" width="29.41" height="105" style="fill:#cfdaee;"/><rect x="229.37" y="1165.76" width="29.44" height="83.56" style="fill:#cfdaee;"/><rect x="274.26" y="1108.56" width="29.41" height="140.76" style="fill:#cfdaee;"/><rect x="319.12" y="1158.03" width="29.44" height="91.29" style="fill:#cfdaee;"/><rect x="364" y="1089.83" width="29.41" height="159.49" style="fill:#cfdaee;"/><rect x="408.87" y="1110.75" width="29.44" height="138.57" style="fill:#cfdaee;"/><path d="M109.47,1147.72c4.87,0,8.81,3.93,8.81,8.78s-3.93,8.81-8.81,8.81-8.78-3.93-8.78-8.81,3.93-8.78,8.78-8.78h0Zm0,0" style="fill:#fff; fill-rule:evenodd;"/><path d="M199.21,1099.89c4.86,0,8.81,3.93,8.81,8.81s-3.96,8.78-8.81,8.78-8.78-3.94-8.78-8.78,3.93-8.81,8.78-8.81h0Zm0,0" style="fill:#fff; fill-rule:evenodd;"/><path d="M244.11,1118.73c4.84,0,8.78,3.96,8.78,8.81s-3.93,8.81-8.78,8.81-8.81-3.96-8.81-8.81,3.93-8.81,8.81-8.81h0Zm0,0" style="fill:#fff; fill-rule:evenodd;"/><path d="M288.97,1059.42c4.84,0,8.81,3.93,8.81,8.81s-3.96,8.78-8.81,8.78-8.81-3.93-8.81-8.78,3.96-8.81,8.81-8.81h0Zm0,0" style="fill:#fff; fill-rule:evenodd;"/><path d="M333.91,1103.57c4.85,0,8.79,3.93,8.79,8.78s-3.93,8.81-8.79,8.81-8.81-3.93-8.81-8.81,3.93-8.78,8.81-8.78h0Zm0,0" style="fill:#fff; fill-rule:evenodd;"/><path d="M378.71,1041.95c4.85,0,8.78,3.93,8.78,8.81s-3.93,8.78-8.78,8.78-8.81-3.93-8.81-8.78,3.93-8.81,8.81-8.81h0Zm0,0" style="fill:#fff; fill-rule:evenodd;"/><path d="M423.57,1069.48c4.87,0,8.81,3.93,8.81,8.81s-3.94,8.78-8.81,8.78-8.78-3.93-8.78-8.78,3.93-8.81,8.78-8.81h0Zm0,0" style="fill:#fff; fill-rule:evenodd;"/><path d="M784.73,716.39c45.06,0,81.6,36.51,81.6,81.57s-36.54,81.59-81.6,81.59-81.57-36.54-81.57-81.59,36.51-81.57,81.57-81.57h0Zm0,0" style="fill:#becce7; fill-rule:evenodd;"/><path d="M736.97,764.93h95.56c1.51,0,2.74,1.23,2.74,2.74v60.62c0,1.51-1.23,2.74-2.74,2.74h-95.56c-1.5,0-2.74-1.23-2.74-2.74v-60.62c0-1.51,1.23-2.74,2.74-2.74h0Zm0,0" style="fill:#fff; fill-rule:evenodd;"/><path d="M825.06,771.6c.97-.86,2.42-.77,3.28,.17,.86,.94,.77,2.43-.2,3.28l-41.87,37.36c-.88,.79-2.22,.77-3.08-.03l-41.87-37.34c-.94-.85-1.03-2.34-.17-3.28,.85-.94,2.31-1.03,3.25-.17l40.33,36,40.33-36Zm0,0" style="fill:#8ca3ca; fill-rule:evenodd;"/><path d="M757.03,222.14c33.8,0,61.19,27.39,61.19,61.19s-27.39,61.19-61.19,61.19-61.19-27.39-61.19-61.19,27.42-61.19,61.19-61.19h0Zm0,0" style="fill:#becce7; fill-rule:evenodd;"/><path d="M718.01,291.99h14.76v19.41h-14.76v-19.41Zm63.3-36.74h14.76v56.15h-14.76v-56.15Zm-21.12,12.25h14.79v43.89h-14.79v-43.89Zm-21.09,12.23h14.76v31.66h-14.76v-31.66Zm0,0" style="fill:#fff; fill-rule:evenodd;"/><path d="M150.23,511.1c68.15,0,123.38,40.5,123.38,90.49,0,26.96-16.07,51.12-41.56,67.71,12.66,12.03,29.5,21.86,50.59,29.5-38.88,4.28-71.02,.74-96.48-10.63-11.37,2.53-23.43,3.9-35.93,3.9-68.14,0-123.38-40.5-123.38-90.49s55.23-90.49,123.38-90.49h0Zm0,0" style="fill:#becce7; fill-rule:evenodd;"/><path d="M149.74,578.93c-6.21-12.43-12.43-18.67-24.88-18.67-13.74,0-24.88,11.18-24.88,24.92,0,24.88,24.88,43.48,49.76,68.4,24.91-24.92,49.79-43.52,49.79-68.4,0-13.74-11.14-24.92-24.88-24.92-12.46,0-18.67,6.25-24.91,18.67h0Zm0,0" style="fill:#e9eef7; fill-rule:evenodd;"/><path d="M455.7,891.44c-22.29,2.05-14.94,10.43-33.43-34.6-2.54-6.15-15.25-34.03-14.37-38.13,1.2-5.36,5.19-3.45,8.49-12.26,2.71-7.24,4.79-14.82,7.16-22.12l.99-4.28c1.68-5.24,2.91-7.52,4.5-13.39-.08-11.32-4.64-24.11-2.05-33.63,1-3.65,3.02-4.94,7.92-6.36,10.66-3.11,20.89,.23,26.99,9.78,5.85,9.12,6.28,22.32,5.5,32.66,.11,2.14-.46,3.45,.43,5.96,11.17-4.16,22.34-9.3,33.37-13.28,1.2,.45-1,.39,1.65,.31,.97,0,.54-.09,1.59-.35,8.87-.25,19.61,6.36,21.6,19.04,.46,2.9,.6,5.13,.09,7.81-.76,4.16-2.19,2.88,1.14,7.15,3.88,4.98,5.67,12.03,4.13,18.15-.34,1.37-.48,2.68,.6,3.22,9.06,17.18,1.43,19.77,3.42,25.16,2.59,7.06,2.82,8.72,2.71,10.26-.91,13.48-6.38,20.09-21.69,26.57-23.8,10.06-35.14,9.97-60.76,12.31h0Zm-29.53,5.82l-24.68,10.15c-3.39,1.39-7.3-.26-8.69-3.65l-24.94-60.62c-1.4-3.39,.26-7.33,3.65-8.69l24.65-10.15c3.4-1.39,7.33,.23,8.69,3.62l24.94,60.65c1.39,3.39-.23,7.3-3.62,8.69h0Zm0,0" style="fill:#becce7; fill-rule:evenodd;"/><path d="M92.28,872.4c12.48-1.14,8.35-5.84,18.73,19.38,1.42,3.45,8.55,19.06,8.03,21.38-.66,2.99-2.88,1.91-4.73,6.84-1.54,4.08-2.67,8.33-4.02,12.43l-.54,2.39c-.97,2.91-1.66,4.19-2.54,7.5,.06,6.33,2.6,13.48,1.14,18.81-.57,2.05-1.68,2.76-4.41,3.56-5.98,1.74-11.71-.11-15.13-5.44-3.29-5.13-3.51-12.51-3.08-18.3-.06-1.2,.25-1.93-.26-3.36-6.25,2.34-12.51,5.22-18.67,7.47-.68-.25,.54-.22-.94-.2-.54,0-.31,.06-.88,.2-4.96,.14-11-3.56-12.11-10.66-.25-1.62-.34-2.88-.06-4.39,.43-2.31,1.25-1.59-.63-4.02-2.17-2.79-3.16-6.72-2.31-10.14,.2-.77,.25-1.51-.34-1.8-5.07-9.64-.8-11.09-1.91-14.11-1.45-3.97-1.6-4.87-1.54-5.76,.54-7.55,3.59-11.26,12.17-14.88,13.34-5.61,19.67-5.59,34.03-6.9h0Zm16.56-3.25l13.82-5.7c1.88-.77,4.08,.14,4.87,2.05l13.94,33.98c.8,1.88-.11,4.07-2.02,4.87l-13.82,5.67c-1.88,.77-4.08-.15-4.87-2.02l-13.96-33.98c-.77-1.91,.14-4.1,2.05-4.87h0Zm0,0" style="fill:#becce7; fill-rule:evenodd;"/><path d="M35.57,224.31H322c19.58,0,35.57,16.55,35.57,36.76s-15.99,36.79-35.57,36.79H35.57c-19.58,0-35.57-16.56-35.57-36.79s15.99-36.76,35.57-36.76h0Zm0,0" style="fill:#becce7; fill-rule:evenodd;"/><path d="M26.14,254.4l13.88-2.4,5.96-13.16c.68-1.48,2.7-1.54,3.47-.06l6.47,12.91,13.97,1.8c1.57,.2,2.26,2.19,1.14,3.36l-9.89,10.37,2.68,14.31c.31,1.62-1.34,2.88-2.77,2.14l-12.57-6.5-12.31,7.04c-1.42,.79-3.11-.43-2.85-2.06l2.08-14.39-10.26-9.92c-1.17-1.14-.6-3.16,1-3.44h0Zm0,0" style="fill:#fff; fill-rule:evenodd;"/><path d="M284.12,254.4l13.88-2.4,5.95-13.16c.68-1.48,2.74-1.54,3.48-.06l6.46,12.91,13.97,1.8c1.6,.2,2.28,2.19,1.14,3.36l-9.86,10.37,2.65,14.31c.31,1.62-1.31,2.88-2.77,2.14l-12.56-6.5-12.31,7.04c-1.4,.79-3.08-.43-2.85-2.06l2.08-14.39-10.26-9.92c-1.16-1.14-.57-3.16,1-3.44h0Zm0,0" style="fill:#8ca3ca; fill-rule:evenodd;"/><path d="M91.52,254.4l13.85-2.4,5.96-13.16c.68-1.48,2.74-1.54,3.47-.06l6.5,12.91,13.93,1.8c1.6,.2,2.28,2.19,1.14,3.36l-9.86,10.37,2.65,14.31c.31,1.62-1.31,2.88-2.76,2.14l-12.57-6.5-12.3,7.04c-1.4,.79-3.08-.43-2.85-2.06l2.11-14.39-10.29-9.92c-1.17-1.14-.57-3.16,1.03-3.44h0Zm0,0" style="fill:#fff; fill-rule:evenodd;"/><path d="M156.87,254.4l13.88-2.4,5.96-13.16c.68-1.48,2.74-1.54,3.47-.06l6.47,12.91,13.96,1.8c1.6,.2,2.28,2.19,1.14,3.36l-9.86,10.37,2.65,14.31c.31,1.62-1.31,2.88-2.76,2.14l-12.57-6.5-12.31,7.04c-1.42,.79-3.11-.43-2.85-2.06l2.08-14.39-10.26-9.92c-1.17-1.14-.57-3.16,1-3.44h0Zm0,0" style="fill:#8ca3ca; fill-rule:evenodd;"/><path d="M222.25,254.4l13.88-2.4,5.96-13.16c.68-1.48,2.71-1.54,3.47-.06l6.47,12.91,13.93,1.8c1.6,.2,2.28,2.19,1.17,3.36l-9.88,10.37,2.67,14.31c.32,1.62-1.34,2.88-2.76,2.14l-12.57-6.5-12.34,7.04c-1.4,.79-3.08-.43-2.85-2.06l2.11-14.39-10.29-9.92c-1.17-1.14-.57-3.16,1.03-3.44h0Zm0,0" style="fill:#8ca3ca; fill-rule:evenodd;"/></svg>