<?xml version="1.0" encoding="UTF-8"?><svg id="a" xmlns="http://www.w3.org/2000/svg" viewBox="0 0 1761.19 1480.68"><path d="M858.97,236.09c214.07,0,304.26,153.16,458.77,272.23,204.56,157.59,409.05,55,441.81,587.42,29.14,473.87-334.55,51.3-847.36,221.05C399.39,1486.54-122.89,1554.89,32.08,1005.69,187.05,456.46,361.6,236.09,858.97,236.09Z" style="fill:#e0e8f5; fill-rule:evenodd;"/><path d="M1275.06,1215.12c75.51,0,138.91,36.34,156.35,85.33-130.52-23.93-293.43-46.62-476.97,3.63-.15-3-.23-6.04-.23-9.08,0-75.96,53.34-137.53,119.16-137.53,47.6,0,88.69,32.18,107.77,78.76,26.45-13.31,58.9-21.13,93.93-21.13h0Zm-359.78,100.72c-1.04,.33-2.06,.63-3.09,.96-335.51,111.08-675.06,178.69-826.35,58.35,34.45-33.08,97.78-55.26,170.24-55.26,58.67,0,111.39,14.57,147.6,37.67,17.46-60.77,80.22-105.76,154.94-105.76,29.67,0,57.47,7.1,81.27,19.43,25.21-44.39,73.8-74.46,129.6-74.46,72.99,0,133.61,51.4,145.79,119.07Z" style="fill:#fff; fill-rule:evenodd;"/><path d="M262.16,1412.09c133.23,0,241.27,15.38,241.27,34.34s-108.04,34.25-241.27,34.25-241.25-15.35-241.25-34.25,108.02-34.34,241.25-34.34Z" style="fill:#c4d1eb; fill-rule:evenodd;"/><path d="M1517.52,1412.09c133.23,0,241.27,15.38,241.27,34.34s-108.04,34.25-241.27,34.25-241.25-15.35-241.25-34.25,108.02-34.34,241.25-34.34Z" style="fill:#c4d1eb; fill-rule:evenodd;"/><path d="M1060.86,899.2c69.98-287.32,64.54-493.07,5.39-651.3h-334.04c-59.11,158.22-64.57,363.98,5.41,651.3h323.23Z" style="fill:#c4d1eb; fill-rule:evenodd;"/><path d="M1060.86,899.2c69.98-287.32,64.54-493.07,5.39-651.3h-98.98c28.74,193.84,21.49,434.86-44.14,651.3h137.73Z" style="fill:#b0c2e4; fill-rule:evenodd;"/><path d="M1066.29,247.91c-36.71-98.25-94.13-178.15-167.05-247.91-72.89,69.75-130.31,149.66-167.02,247.91h334.07Z" style="fill:#b0c2e4; fill-rule:evenodd;"/><polygon points="765.21 899.2 1033.28 899.2 1021.36 940.89 777.12 940.89 765.21 899.2" style="fill:#9db2d9; fill-rule:evenodd;"/><path d="M899.23,357.47c63.3,0,114.61,51.3,114.61,114.58s-51.31,114.58-114.61,114.58-114.59-51.3-114.59-114.58,51.33-114.58,114.59-114.58Z" style="fill:#9db2d9; fill-rule:evenodd;"/><circle cx="899.23" cy="472.05" r="77.87" transform="translate(119 1122.19) rotate(-67.5)" style="fill:#fff;"/><path d="M716.45,295.67h365.57c-4.71-16.4-9.99-32.31-15.77-47.76h-334.04c-5.78,15.45-11.04,31.37-15.77,47.76Z" style="fill:#9db2d9; fill-rule:evenodd;"/><path d="M1066.29,247.91c-36.71-98.25-94.13-178.15-167.05-247.91,29.94,64.52,53.57,150.22,68.06,247.91h98.99Z" style="fill:#9db2d9; fill-rule:evenodd;"/><path d="M1066.25,247.91h-98.96c2.31,15.62,4.4,31.56,6.24,47.76h108.49c-4.71-16.4-9.99-32.31-15.77-47.76Z" style="fill:#859ac6; fill-rule:evenodd;"/><path d="M1033.28,899.2h-78.35c-4.35,14.04-9,27.93-13.87,41.69h80.31l11.92-41.69Z" style="fill:#859ac6; fill-rule:evenodd;"/><path d="M1110.96,571.8l87.34,77.35c7.58,6.69,13.53,20.53,15.23,32.64l41.72,293.92c1.71,12.15-6.89,17.62-15.24,11.95l-172.35-117.25c25.66-111.42,39.65-210.25,43.28-298.62h0Zm-423.47,0l-87.31,77.35c-7.57,6.69-13.51,20.53-15.23,32.64l-41.72,293.92c-1.73,12.15,6.87,17.62,15.23,11.95l172.35-117.25c-25.64-111.42-39.65-210.25-43.31-298.62Z" style="fill:#b0c2e4; fill-rule:evenodd;"/><path d="M1131.94,914.12c22.5-82.26,33.79-180.2,33.82-293.83l-54.77-48.49c-3.67,88.37-17.66,187.2-43.32,298.62l64.26,43.7Z" style="fill:#9db2d9; fill-rule:evenodd;"/><path d="M671.87,492.44H0c4.83-20.43,23.15-35.61,45.04-35.61,1.05,0,2.11,.07,3.15,.13,10.6-25.97,36.13-44.26,65.93-44.26,13.03,0,25.23,3.49,35.75,9.59,12.81-42.25,52.04-72.99,98.48-72.99,9.44,0,18.6,1.29,27.27,3.67,22.49-49.6,72.44-84.11,130.46-84.11,68.81,0,126.26,48.56,140,113.3,1.16-.07,2.32-.1,3.48-.1,44.08,0,80.46,32.98,85.83,75.59,17.99,3.37,32.29,17.13,36.48,34.78Z" style="fill:#c4d1eb; fill-rule:evenodd;"/><path d="M1724.87,356.77h-596.4c4.3-18.12,20.56-31.6,39.98-31.6,.93,0,1.88,0,2.79,.1,9.43-23.07,32.08-39.31,58.52-39.31,11.58,0,22.42,3.1,31.75,8.56,11.37-37.51,46.19-64.81,87.41-64.81,8.4,0,16.53,1.13,24.23,3.27,19.95-44.08,64.29-74.7,115.8-74.7,61.07,0,112.09,43.1,124.27,100.57,1.03-.03,2.06-.07,3.09-.07,39.13,0,71.43,29.26,76.19,67.08,15.95,3,28.69,15.19,32.38,30.9Z" style="fill:#c4d1eb; fill-rule:evenodd;"/><path d="M1624.51,759.96c-4.46,.33-8.8-4.98-10.04-6.57-4.76-6.04-7.8-13.13-8.99-17.09,.9-2.67,1.89-6.01,2.89-10.04,17.24-11.68,19.6-20.36,7.07-25.97-2.52,1.41-5.64,5.78-9.39,13.06-2.99-.13-5.26-1.64-6.8-4.58,3.58-12.31,5.88-22.35,6.97-30.04-8.51-12.61-28.38-14.42-54.67-11.02-1.26,7.02-2.24,14.42-3.02,22.24-4.65,4.3-4.05,20.18,.23,38.5-2.12,10.39,4.3,16.07,19.3,17.03,.13,2.54-.1,5.41-.13,7.17-.05,1.61-.1,4.71-1.78,5.21l-2.79,.7c.3,37.22,19.35,44.36,61.16,1.41Z" style="fill:#f9af79; fill-rule:evenodd;"/><path d="M1551.54,667.71c26.29-3.4,46.15-1.59,54.67,11.02-1.1,7.68-3.39,17.72-6.97,30.04,1.54,2.94,3.82,4.45,6.8,4.58,3.75-7.29,6.87-11.65,9.39-13.06,12.53,5.61,10.17,14.26-7.07,25.97-1,4.03-1.99,7.37-2.92,10.04,15.53-3.5,28.49-17.36,30.34-23.37,18.09-35.66-2.11-50.72-12.88-56.23-4.78-35.28-56.26-4.75-69.8-26.3-28.35,16.16-9.54,37.01-1.56,37.31Z" style="fill:#172b57; fill-rule:evenodd;"/><path d="M1585.31,741.84c-4.2,2.07-9.94,3.3-17.28,3.63,.15,2.47,.03,5.34-.12,7.1,7.35-1.43,13.16-5,17.39-10.74Z" style="fill:#ed7d57; fill-rule:evenodd;"/><path d="M1655.88,1457.11c16.35-5.74,17.66-14.19,26.45-18.29,8.88-4.12,9.89-11.52,1.23-19.53-6.41,5.11-14.36,11.42-18.55,8.08-2.82-2.21-12.35-2.07-14.26,1.16-8.26,19.3-19.83,13.19-22.11,21.97-.27,11.7,19.75,9.24,27.23,6.61Z" style="fill:#0e2952; fill-rule:evenodd;"/><path d="M1514.3,1437.91c28.78-.46,50.29-.8,60.21-3.93,10.72-3.4,8.51-9.94,2.36-20.4-27.12,12.46-19.88-2.56-32.59-.63-8.9,7.15-22.11,11.98-39.6,14.42-7.38,5.44-4.38,10.31,9.63,10.54Z" style="fill:#0e2952; fill-rule:evenodd;"/><path d="M1528.67,764.2c14.36-4.17,27.25-6.71,38.68-7.6,2.07,31.57,18.54,31.33,49.39-.66,29.72,2.52,35.53,2.87,52.03,8.23,35.68,34.09,38.95,73.42,57.59,118.38-20.65,.91-29.91,3.4-43.93,8.38-3.02-10.77-5.54-19.42-7.58-25.99,.6,59.26,.8,99.87,.66,121.81-68.27,27.07-124.53,17.79-147.5-3.3-.33-52.67-.76-94.36-1.3-125.1-8.2,9.63-15.77,17.09-22.74,22.4-16.76-19.2-28.08-26.93-37.57-38.25,21.01-34.5,51.12-66.62,62.27-78.3Z" style="fill:#6d96ce; fill-rule:evenodd;"/><path d="M1391.06,821.93c35.88,14.89,60.97,27.2,75.34,36.92l6.37-9.43c5.94,5.94,12.71,11.78,20.98,20.23-7.63,7.98-15.87,14.55-25.39,20.1-24.93-2.64-52.48-21.53-82.65-56.61-9.39-1.88-16.3-5.28-20.71-10.21-.25-4.51,2.02-9.04,6.8-13.59-12.51-8.15-17.46-14.01-14.94-17.49,19.62,12.12,31,22.14,34.19,30.07Z" style="fill:#f9af79; fill-rule:evenodd;"/><path d="M1528.01,983.44c1.33,5.16-4.21,35.23-5.16,50.95-9.08,56.01-1.31,128.96,3.57,222.75,8.76,33.08,21.67,77.12,20.84,139.1,15.24,4.66,20.75,5.16,34.49,1.66,9.63-64.71,3.05-116.54-5.62-140.47,5.56-36.97,13.86-78.36,25.94-138.08,13.64,65.05,31.85,113.35,39.73,144.88,1.58,35.12,8.66,82.53,12.41,142.21,11.29,3.4,18.32,4.38,30.07,2.97,15.2-54.87,12.68-114.58,6.21-179.12-6.85-77.57,4.46-165.19-6.87-195.56-5.81-18.02-6.54-33.96-8.1-48-56.97,18.99-106.15,17.86-147.5-3.3Z" style="fill:#466fb5; fill-rule:evenodd;"/><path d="M1665.01,926.53c3.67,.56,7.12,1.03,10.37,1.49,.17,26.1,.23,45.72,.13,58.71-3.22,1.46-7.77,3.1-11.3,3.54,.03-1.68,.55-5.54,.56-7.22,.23-19.98,.32-38.83,.23-56.53h0Zm-166.94-52.36c10.02-8.38,19.62-21.97,28.71-40.79-1.03,6.57-1.44,15.32-1.23,26.3-7.73,8.98-14.92,15.98-21.57,21.06-2.06-2.34-4.02-4.55-5.91-6.57h0Zm164.1-50.96c4.41,14.24,8.66,28.16,12.68,41.72,.13,11.47,.23,22.22,.3,32.26-2.92-.27-6.37-.46-10.42-.56-.41-27.8-1.26-52.29-2.56-73.42Z" style="fill:#466fb5; fill-rule:evenodd;"/><path d="M1572.02,843.71h-75.14c-3.45,0-5.81,2.82-5.28,6.24l16.86,106.49c.56,3.47,3.82,6.27,7.25,6.27h75.19c3.44,0,5.81-2.8,5.24-6.27l-16.86-106.49c-.53-3.42-3.82-6.24-7.27-6.24Z" style="fill:#223f81; fill-rule:evenodd;"/><path d="M1719.46,882.94c3.25,13.16,4.58,25.21,1.92,41.22-8.1,11.78-40.84,5.18-125.13-8.88-3.02,2.74-9.29,5.48-18.77,4.25-8.81-2.21-9.24-4.48-19.13-13.82-2.41-7.27-1.92-12.78,1.49-16.63,11.12,6.56,16.98,10.06,29.52,10.46-3.33-8.58-3.85-14.12-1.51-16.63,4.28,3.42,7.07,8.61,8.36,15.47,66.45-2.87,83.97-2.51,92.84,2.16-.96-4.2-1.83-7.87-2.56-11,10.36-3.52,18.75-5.58,32.96-6.59Z" style="fill:#f9af79; fill-rule:evenodd;"/><path d="M1574.94,1399.38c-.66,5.64-.76,10.74-.3,15.18-22.69,9.88-18.82-1.51-27.88-1.78,2.26-4.03,3.75-9.14,4.42-15.38,9.91,2.84,15.53,3.47,23.76,1.97h0Zm105.75,10.41c0,4.12,.4,7.72,1.2,10.82-6.04,4.83-13.05,9.81-16.88,6.77-1.84-1.44-6.61-1.91-10.17-1.13,1.46-4.95,2.62-11.15,3.47-18.6,7.95,2.14,14.06,2.87,22.39,2.14Z" style="fill:#f9af79; fill-rule:evenodd;"/><path d="M1522.85,1034.39c40.05,37.36,93.67,37.46,160.76,.35,11.33,30.37,.02,117.99,6.87,195.56,6.47,64.54,9,124.25-6.21,179.12-1.25,.13-2.42,.27-3.58,.37-8.33,.73-14.44,0-22.39-2.14-1.31-.37-2.67-.73-4.1-1.2-3.75-59.68-10.84-107.09-12.41-142.21-7.88-31.53-26.09-79.83-39.73-144.88-12.08,59.71-20.38,101.1-25.94,138.08,8.68,23.93,15.25,75.76,5.62,140.47-2.51,.63-4.73,1.11-6.8,1.48-8.23,1.49-13.86,.86-23.76-1.97-1.23-.37-2.52-.76-3.92-1.16,.83-61.98-12.08-106.03-20.84-139.1-4.88-93.78-12.65-166.74-3.57-222.75Z" style="fill:#223f81; fill-rule:evenodd;"/><path d="M1586.09,1353.42c-14.64,3.97-28.01,5.19-40.16,3.6-.27-3.24-.56-6.37-.9-9.48,13.33,1.76,27.12,.86,41.36-2.67-.07,2.8-.17,5.64-.3,8.55h0Zm106.81,11.14c-15.9,1.91-29.97,.85-42.25-3.17-.3-3.34-.6-6.64-.91-9.87,13.76,4.5,28.43,6.04,44.06,4.61-.26,2.82-.56,5.63-.9,8.43h0Zm-40.18,20.99c-.27-3.3-.53-6.57-.8-9.81,12.26,3.37,25.26,4.46,38.98,3.24-.46,2.84-1,5.68-1.51,8.51-13.56,1.53-25.81,.86-36.68-1.94h0Zm-106.08-18.25c12.38,2.04,25.28,1.81,38.63-.7-.22,2.84-.45,5.71-.75,8.61-13.66,2.87-26.15,3.4-37.47,1.53-.1-3.2-.25-6.34-.41-9.44Z" style="fill:#0e2952; fill-rule:evenodd;"/><path d="M73.54,790.27c-11.48-16.76,13.34-21.09,13.08-39.48-.17-12.65,7.77-25.84,5.38-38.48-4.85-25.86,5.24-33.67,5.31-35.65,.6-19.58,12.31-20.08,23.98-26.69,20.69-11.72,38.68,2.61,44.56,2.97,29.91,1.99,13.34,14.84,26.75,26.42,11.04,9.54,5.81,16.79,4.66,22.5-.51,2.61-2.9,13.24,4.73,18.62,11.19,7.9-.27,28.96,6.32,30.97,25.42,7.68,15.18,10.85,14.49,28.61-.2,5.69-5.68,10.01-9.26,14.21-43.76-13.74-73.88,40.73-140-4Z" style="fill:#20386f; fill-rule:evenodd;"/><path d="M112.48,766.7c1.28-3,4.76-4.9,5.91-5.84,12.66,6.87,26.1,11.09,40.18,11.19-.48,8.05-1.69,16.55-3.29,25.59-23.3-18.12-37.56-28.43-42.8-30.93Z" style="fill:#fff; fill-rule:evenodd;"/><path d="M168.59,765.67c3.42,7.24,5.74,14.01,6.95,20.28-3.68-6.64-7.82-10.74-16.98-13.91,2.92-3.07,2.69-7.07,3.88-10.27,3.29,2.03,5.34,3.3,6.14,3.9Z" style="fill:#fff; fill-rule:evenodd;"/><path d="M178.54,765.74c35.2,89.4,5.53,82.46-70.65,1.92-4.48,1.05-8.58,2.37-12.28,3.92,9.91,9.14,13.59,24.46,11.09,45.89-1.49,16.61-3.12,32.74-4.91,48.43,4.33,9.81,6.54,19.82,6.92,30.6,.33,9.44-.75,19.48-3.02,30.5-3.6,17.26-10.21,36.91-19.07,60.44,53.35,18.16,99.01,18.35,137,.63-22.02-48.43-19.1-63.45-16.61-95.84,2.51-52.58,34.55-36.08-18.72-124.5-3.65-1.13-6.84-1.73-9.74-1.99Z" style="fill:#466fb5; fill-rule:evenodd;"/><path d="M158.57,772.05c-.48,8.05-1.69,16.55-3.29,25.59-23.3-18.12-37.56-28.43-42.8-30.93-1.58,.3-3.1,.63-4.6,.96,76.17,80.54,105.85,87.48,70.65-1.92-3.65-.37-6.85-.2-9.94-.07,3.42,7.24,5.74,14.01,6.95,20.28-3.68-6.64-7.82-10.74-16.98-13.91Z" style="fill:#6d96ce; fill-rule:evenodd;"/><path d="M138.66,897.33c-14.49,.07-28.01-.5-40.56-1.63,3.29-24.81,6.14-50.9,8.6-78.23,2.51-21.42-1.18-36.74-11.09-45.89-13.18,5.54-21.54,14.24-25.13,26.05-7.8,25.11-6.84,118.68,1.63,127.16,10.69,4.65,33.29,3.73,67.78-2.87-2.39-7.04-2.79-15.22-1.23-24.59Z" style="fill:#6d96ce; fill-rule:evenodd;"/><path d="M147.39,900.83c-1.96,.23-5.06,.42-9.29,.58-.66,6.17-.4,11.83,.76,16.91,3.7-.7,8.4-1.66,14.07-2.94,10.07,2.57,22.24,2.44,36.44-.43,9.87-3.8,12.88-10.75,9-20.86-15.43,1.78-24.69,1.21-27.75-1.76,5.41-2.74,7.32-5.94,5.76-9.53-15.19,5.58-24.86,11.58-28.99,18.02Z" style="fill:#f9af79; fill-rule:evenodd;"/><path d="M199.81,872.9l108.12-16.41-23.35,46.72-108.32,16.99,1.71-3.47c3.65-.38,7.45-.95,11.4-1.78,9.87-3.8,12.88-10.75,9-20.86-3.49,.4-6.67,.7-9.56,.83l11-22.02Z" style="fill:#c4d1eb; fill-rule:evenodd;"/><path d="M198.37,885.11l-4.76,9.48h0c1.51-.17,3.12-.3,4.76-.5,3.39,8.78,1.56,15.18-5.44,19.22l88.87-13.91,9.09-18.16c-12.45,4.3-25.11,7.04-37.95,8.15-2.62,3.07-6.74,5.29-10.04,5.29-3.1,0-4.63-1.92-4.1-4.66-13.28,0-26.74-1.64-40.43-4.91Z" style="fill:#9db2d9; fill-rule:evenodd;"/><path d="M164.28,917.09l11.98,3.1,1.71-3.47c-4.85,.5-9.41,.6-13.69,.37Z" style="fill:#859ac6; fill-rule:evenodd;"/><path d="M176.26,920.19l-11.98-3.1c-4.05-.23-7.83-.81-11.35-1.71-3.82,.86-7.17,1.54-10.09,2.17l29.94,9.81,29.54-5.01,82.46-14.04-.2-5.11-79.19,12.41h0l-29.12,4.58Z" style="fill:#859ac6; fill-rule:evenodd;"/><path d="M226.18,868.9c-4.18-3.97-7.73-8.58-10.64-13.86-1.71,4.75-3.78,9.79-5.46,16.3l16.1-2.44Z" style="fill:#6d96ce; fill-rule:evenodd;"/><path d="M188.28,767.73c12.51,20.76,20.3,35.71,24.89,47.16,4.53-35.48-1.96-43.48-24.89-47.16Z" style="fill:#6d96ce; fill-rule:evenodd;"/><path d="M95.04,990.18c-12.58,25.99-16.13,82.46-10.62,169.41,69.17,9.38,118.97,8.43,149.48-2.87-2.47-79.43-8.08-134.67-16.78-165.84-34.62,14.02-75.29,13.79-122.08-.7Z" style="fill:#0e2952; fill-rule:evenodd;"/><path d="M118.39,760.86c12.66,6.87,26.1,11.09,40.18,11.19,2.59-2.71,2.69-6.11,3.52-9.08,.03-.17,.07-.33,.13-.5-2.16-2.94-3.62-5.14-2.32-10.29,.03-.07,.05-.17,.07-.23,15.25-5.13,24.73-30.77,18.54-45.85,.3-5.04,.78-10.27,1.44-15.72-22.6,6.57-36.78,6.21-53.34-5.41-2.9,7.52-4.35,11.78-2.61,19.73,.37,2.77,1.78,8.61-1.91,9.18-1.69-9.54-5.14-14.82-11.58-12.55-5.74,9.18-2.34,20.78,11.45,23.15,4.05,8.35,5.81,14.09,5.23,17.16,.45,5.21-4.13,12.21-7.55,17.36-.43,.66-.86,1.26-1.24,1.86Z" style="fill:#f9af79; fill-rule:evenodd;"/><path d="M160.05,751.65c-9.24,1.03-13.43,.96-21.99-2.44,5.01,5.41,12.81,8.65,21.77,9.14-.5-2.26-.4-4.43,.22-6.71Z" style="fill:#ed7d57; fill-rule:evenodd;"/><path d="M223.49,1237.07c1.79-24.53,2.85-50.52,3.15-77.98-15.2,4.43-34.42,6.7-57.64,6.87,5.59,23.5,14.02,49.26,18.44,74.68-23.4,63.48,8.81,115.95,4.25,157.49,6.37,10.19,16.98,33.21,32.96,41.62,5.33-1.36,1.33-6.24,3.12-8.98-8.26-8.58-13.41-21.99-15.48-40.28-1.91-43.43,1.84-94.61,11.2-153.43Z" style="fill:#f9af79; fill-rule:evenodd;"/><path d="M136.42,1227.99c4.83-20.11,13.59-40.34,19.96-62.17-17.06-.43-36.05-1.88-56.92-4.32,.33,20.6,.6,42.12,.78,64.49-32.78,58-10.84,125.74-19.6,154.89,6.39,15.15,8.1,34.14,22.3,45.29,5.24-.38,2.52-5.51,4.48-7.92-4.45-10.07-6.89-22.77-7.3-38.12,5.03-43.71,17.13-94.45,36.29-152.15Z" style="fill:#f9af79; fill-rule:evenodd;"/><path d="M232.94,1428.87c-11.22,.55-.98,9.01-8.28,10.89-15.98-8.45-24.84-31.46-31.22-41.62-3.37-5.36-5.81,1.44-7.45,9.08-2.66,12.12,.7,7.88,2.19,17.56,.37,2.44-2.75,15.45-3.27,22.64-.2,2.89,1.34,4,1.64,4.46,2.92-4.91,5.44-20.06,8.1-29.31,15.7,13.46,12.28,28.34,21.57,33.41,22.3,2.37,34.39,2.97,51.31,3.32,3.72-13.92-25.74-9.19-34.6-30.42Z" style="fill:#0e2952; fill-rule:evenodd;"/><path d="M112.87,1417.17c-10.85-1.38-2.59,8.46-9.92,9.01-13.74-10.79-17.97-34.29-22.2-45.09-2.24-5.68-5.83,.4-8.78,7.4-4.73,11.12-.78,7.65-1.11,17.16-.1,2.37-5.44,14.27-7.27,21.06-.71,2.7,.58,4.03,.76,4.56,3.68-4.23,8.86-18.25,13.11-26.65,12.5,15.55,6.51,29.16,14.47,35.6,20.88,6.07,32.29,8.71,48.43,11.95,6.11-12.68-22.92-13.21-27.48-35Z" style="fill:#0e2952; fill-rule:evenodd;"/><path d="M249.78,882.74c2.62,0,3.52,2.08,2.01,4.68-1.51,2.61-4.83,4.7-7.42,4.7s-3.49-2.09-1.98-4.7c1.51-2.61,4.8-4.68,7.39-4.68Z" style="fill:#9db2d9; fill-rule:evenodd;"/><path d="M1062.4,1282l-70.9-341.11h-182.37l-76.02,430.44c59.08-16.25,119.16-34.7,179.08-54.53,51.66-17.11,101.81-28.2,150.21-34.8Z" style="fill:#fff; fill-rule:evenodd;"/></svg>