<?xml version="1.0" encoding="UTF-8"?><svg id="a" xmlns="http://www.w3.org/2000/svg" viewBox="0 0 2499.73 1546.8"><path d="M1277.69,3c281.25,15.29,388.81,222.96,583.35,390.42,257.49,221.65,533.53,101.46,538.55,803.36,4.46,624.7-443.24,43.52-1129.14,229.94C584.57,1613.15-106.53,1665.68,136.29,955.14,379.12,244.59,624.19-32.5,1277.69,3Z" style="fill:#e0e8f5; fill-rule:evenodd;"/><g><path d="M183.25,912.92c-20.6,19.44-29.96,42.73-28.07,69.88,48.73,33.18,73.92,64.26,75.58,93.24-57.25-50.96-100.26-50.83-119.62-19.53,14.29,17.29,24.29,76.96,20.83,104.43-6.09,48.52,7.11,92.04,43.77,108.4,8.41,18.83,17.24,28.77,26.49,29.79-8.87,54.35-16.35,109.5-22.42,165.48,6.19,3.18,15.06,2.84,19.77-.35,1.89-21.81,3.29-37.22,4.7-47.53,3.76-40.63,7.99-79.92,12.68-117.88,2.27-.26,4.51-.64,6.74-1.12,42.86-9,26.44-35.75,65.67-43.8,24.13-4.95,46.09-25.33,51.54-43.56-25.12-7.91-56.75-16.36-88.83-10.36,16.68-23.43,50.53-21.67,96.47-16.01,17.36-33.74,42-30.66,32.23-83.44-13.62-73.58,34.51-93.98,18.32-182.55-23.67-8.95-55-7.91-93.99,3.15,16.54-24.47,47.92-34.6,94.16-30.38-9.61-25.95-9.53-59.49-4.95-73.79-17.17-12.41-34.52-12.34-52.08,.2,7.85-13.45,18.01-21.14,30.5-23.07-.62-11.53-5.58-24.42-14.89-38.65-15.39,.36-32.43,3.77-51.14,10.22,8.52,5.62,11.29,15.73,8.27,30.32-10.25-12.06-25.4-16.09-45.45-12.08-4.23,52.59-50.83,73.92-51.62,96.58,27.44,24.17,43.52,50.52,48.21,79.07-27.95-23.97-55.59-39.53-82.89-46.67Z" style="fill:#b0c2e4; fill-rule:evenodd;"/><path d="M179.81,1464.61c6.07-55.98,13.55-111.13,22.42-165.48,31.65-205.25,86.92-417.26,135.03-505.97-64.19,151.3-108.52,359.16-132.98,623.57-1.42,10.32-2.81,25.72-4.7,47.53-4.71,3.19-13.58,3.53-19.77,.35Z" style="fill:#9db2d9; fill-rule:evenodd;"/><path d="M261.25,780.51c19.89,25.4,26.47,53.21,19.72,83.45-60.51,29.08-94.16,59.78-100.96,92.12,73.12-47.63,121.53-40.17,138.01-1.65-19.03,17.04-40.44,82.54-41.22,114.04-1.39,55.66-23.66,102.42-67.72,114.61-12.68,19.78-24.31,29.45-34.89,29.03,.74,62.7-.22,126.07-2.91,190.13-7.51,2.54-17.43,.65-22.2-3.75,1.58-24.89,2.64-42.45,2.8-54.32,2.68-46.38,4.6-91.35,5.77-134.88-2.51-.69-4.97-1.5-7.4-2.41-46.73-17.42-23.69-44.75-66.49-60.48-26.34-9.68-47.58-36.36-50.62-57.81,29.63-4.64,66.69-8.77,101.78,3.46-14.79-29.22-53.21-33-105.9-34.45-13.8-40.93-42.08-41.65-22.1-99.42,27.85-80.52-22.87-111.68,10.42-208.65,28.17-6.05,63.26,.46,105.28,19.53-14.45-30.36-48.06-47.1-100.84-50.22,15.23-27.57,20.84-65.35,18.13-82.24,21.43-11.06,40.97-8.03,58.6,9.08-6.55-16.49-16.69-26.87-30.42-31.16,2.66-12.88,10.44-26.54,23.34-40.98,17.26,3.02,35.88,9.76,55.84,20.2-10.55,4.88-15.38,15.79-14.48,32.74,13.6-11.83,31.34-13.79,53.23-5.87-4.19,59.93,44.66,91.88,41.69,117.52-35.01,22.54-57.59,49.49-67.74,80.83,35.56-22.24,69.32-35.06,101.27-38.45Z" style="fill:#c4d1eb; fill-rule:evenodd;"/><path d="M171.28,1402.25c2.68-64.06,3.65-127.43,2.91-190.13-.72-236.48-26.9-484.59-65.97-592.66,46.54,181.27,61.09,422.84,43.66,724.72-.16,11.86-1.22,29.43-2.8,54.32,4.77,4.4,14.69,6.29,22.2,3.75Z" style="fill:#b0c2e4; fill-rule:evenodd;"/><path d="M116.67,1335.29h155.07c6.99,0,12.66,5.67,12.66,12.66v35.6c0,6.99-5.67,12.66-12.66,12.66H116.67c-6.99,0-12.66-5.67-12.66-12.66v-35.6c0-6.99,5.67-12.66,12.66-12.66Z" style="fill:#b0c2e4;"/><polygon points="118.06 1396.21 270.36 1396.21 255.41 1474.94 133.01 1474.94 118.06 1396.21" style="fill:#b0c2e4; fill-rule:evenodd;"/><polygon points="270.36 1396.21 118.06 1396.21 120.76 1410.45 267.65 1410.45 270.36 1396.21" style="fill:#9db2d9; fill-rule:evenodd;"/></g><g><path d="M2398.83,1149.08c.12,6.88,.51,12.66,1.04,16.66-.53-3.99-.92-9.78-1.04-16.66Z" style="fill:#ecebe8; fill-rule:evenodd;"/><path d="M2189.15,639.59c-5.06-6.53-11.98-11.46-18.93-15.8-1.85-1.15-4.52-.37-5.53,1.53-5.38,10.02-10.37,20.29-16.52,29.87-2.03,3.16-4.92,7.34-7.5,9.2-.16,.11-.82,.43-1.11,.59-.03-.05-.08-.1-.13-.17-.5-.74-.79-1.55-1.07-2.41-4.8-14.73,1.02-30.52-2.77-45.35-2-7.86-6.98-16.04-12.64-21.76-6.15-6.23-14.39-9.12-18.21-17.51-.58-1.27-1.62-1.87-2.75-1.97h-.76c-1.37,.12-2.77,.89-3.53,2.01-8.87,12.75-21.28,25.91-23.64,41.86-2.09,14.15,5.56,25.97,13.71,36.71,3.96,5.2,7.84,10.49,10.9,16.26,1.69,3.18,4.61,8.94,1.54,12.06-3.21,3.26-8.1-2.57-10.65-5.18-5.2-5.39-9.6-11.52-14.11-17.46-7.46-9.84-19.28-24.8-33.32-22.09-6.19,1.2-8.71,7.6-9.03,13.17-.52,8.86,3.81,18.39,8.17,25.82,9.89,16.86,29.93,21.75,42.83,35.35,2.96,3.12,11.08,13.84,6.43,18.23-1.63,1.53-5.41,1.03-7.34,.72-4.73-.72-9.91-2.46-13.71-5.4-14.49-11.21-19.79-30.69-35-41.32-6.67-4.65-16.97-7.5-25-5.58-6.8,1.62-9.93,8.02-10.24,14.48-.37,7.82,3.2,15.9,7.13,22.43,4.56,7.56,10.83,13.87,18.49,18.24,15.36,8.74,34.78,9.83,45,25.91,1.4,2.2,2.9,5.07,2.22,7.74-.53,2.07-3.47,2.73-5.22,3.12-7.87,1.73-18.2-1.18-25.12-4.86-8.35-4.45-14.43-12.49-20.84-19.22-6.77-7.11-14.31-12.9-23.8-15.8-6.89-2.08-15.36-1.74-19.8,4.69-4.09,5.91-3.25,13.86-1.58,20.43,2.2,8.69,6.94,16.75,12.75,23.49,6.3,7.29,16.2,11.43,25.09,14.4,9.24,3.1,18.84,4.98,27.97,8.43,2.41,.91,4.29,1.55,6.94,1.75,2.83,.2,5.68,.06,8.44,.78,2.32,.59,.78,3.06,0,4.75-1.89,4.07-7.96,3.89-11.77,4.2-3.62,.28-7.2,1.2-10.82,1.23-4.16,.03-8.32-.74-12.42-1.37-8.12-1.24-16.71-2.67-24.75-.23-7.77,2.36-13.24,9.68-14.64,17.53-2.93,16.48,15.49,26.52,29.16,28.62,8.76,1.34,16.7-.57,24.39-4.93,9.5-5.35,16.96-13.1,27.92-14.44,.71,4.38-.85,7.9-4.74,11.18-5.35,4.52-12.77,6.97-19.24,9.36-12.74,4.74-31.39,8.95-38.21,22.14-.83,1.6-.66,3.6,.68,4.9,6.04,5.77,13,10.29,21.5,10.97,7.05,.56,13.92-2.71,19.63-6.49,10.2-6.77,19-17.31,30.48-22.07-1.58,2.91-4.22,4.88-7.44,7.38-5.74,4.45-8.67,10.63-10.26,17.58-2.4,10.54,1.25,21.94,13.62,22,6.76,.03,13.52-3.36,19.16-6.75,6.44-3.86,11.6-9.49,15.61-15.78,4.96-7.81,7.72-16.82,9.25-26.03,10.35,20.14,32.8,41.19,53.99,23.78,18.1-14.88-11.71-26.29-23.49-38.01,2.32,.95,4.57,2.14,6.72,3.23,6.14,3.15,12.11,6.63,18.52,9.24,11.96,4.88,25.38,4.41,32.53-7.9,6.18-10.61-6.61-15.54-14.48-17.9-6.42-1.94-18.41-4.01-23.06-10.45,15.8,1.73,33.41,3.69,47.03-5.43,6.19-4.15,13.61-12.12,14.34-19.9,.61-6.36-6.26-8.6-11.22-9.1-13.49-1.33-26.61,4.61-40.14,4.2-3.24-.11-6.47-.46-9.64-1.17-1.19-.26-2.41-.59-3.51-1.1-.42-.19-.86-.55-1.15-.77,.07-.19,.18-.42,.37-.64,1.2-1.4,2.77-2.44,4.29-3.45,3.46-2.28,7.09-3.6,11.22-4.03,7.86-.83,15.7,.15,23.54-1.21,8.8-1.53,15.95-6.63,21.77-13.2,5.17-5.83,10.15-13.22,10.97-21.17,.86-8.21-4.13-13.77-11.46-16.58-20.51-7.85-32.53,13.34-47.15,22.96-3.88,2.55-8.49,4.23-12.9,5.58-1.8,.55-7.1,2.37-8.84,.97-1.05-.85,2.43-6.42,3.09-7.48,2.96-4.78,6.71-8.1,11.55-10.88,12.24-7,27.17-9.17,36.81-20.24,6.33-7.26,11.32-19.57,5.12-28.43-6.57-9.39-21.21-6.85-29.47-1.39-10.39,6.87-15.63,20.8-28.15,24.12-1.09-5.93,1.23-11.38,5.23-16.66,5.84-7.71,13.36-14.04,20.29-20.72,6.64-6.39,13.46-13.35,16.92-22.08,3.54-8.91,1.27-17.91-4.48-25.32Z" style="fill:#9db2d9; fill-rule:evenodd;"/><path d="M2498.3,924.94c2-8.03,1.59-16.52,.69-24.66-.24-2.16-2.51-3.78-4.62-3.4-11.2,1.97-22.35,4.42-33.69,5.51-3.73,.37-8.81,.68-11.86-.2-.2-.05-.84-.37-1.15-.49,.02-.07,.03-.14,.05-.22,.29-.86,.74-1.58,1.23-2.32,8.6-12.9,24.6-18.08,33.92-30.25,4.94-6.43,8.27-15.39,9.28-23.39,1.09-8.68-1.75-16.94,2.48-25.14,1.54-3-1.64-5.68-4.38-5.51-15.51,.94-33.53-.67-47.52,7.34-12.42,7.12-16.96,20.43-20.34,33.49-1.64,6.32-3.39,12.65-6.03,18.64-1.45,3.29-4.17,9.14-8.51,8.66-4.56-.49-3.01-7.95-2.52-11.56,1-7.42,3.1-14.67,4.97-21.9,3.12-11.95,7.56-30.49-3.27-39.84-4.77-4.12-11.34-2.13-15.93,1.06-7.28,5.08-12.07,14.37-15.22,22.39-7.12,18.21,1.45,36.97-1.26,55.51-.63,4.27-4.02,17.29-10.35,16.33-2.21-.33-4.15-3.61-5.12-5.3-2.36-4.17-4.2-9.32-4.25-14.13-.17-18.32,11.86-34.52,10.79-53.06-.48-8.13-4.6-17.98-11.08-23.1-5.48-4.34-12.44-2.84-17.71,.92-6.38,4.55-10.51,12.34-13.2,19.48-3.11,8.27-4.2,17.09-2.89,25.82,2.64,17.46,13.8,33.41,7.49,51.38-.85,2.45-2.18,5.4-4.7,6.53-1.96,.88-4.29-1.03-5.69-2.17-6.23-5.11-10.35-15.03-11.73-22.72-1.68-9.31,.88-19.07,2.2-28.26,1.4-9.72,1.28-19.23-2.32-28.47-2.62-6.71-8.13-13.15-15.94-12.66-7.16,.46-12.9,6.03-17.03,11.4-5.46,7.12-8.86,15.82-10.55,24.57-1.83,9.45,1.05,19.79,4.21,28.62,3.29,9.17,7.75,17.89,10.69,27.2,.77,2.45,1.43,4.32,2.92,6.52,1.59,2.33,3.46,4.49,4.61,7.12,.97,2.2-1.91,2.5-3.74,2.93-4.37,1.04-7.98-3.83-10.58-6.65-2.47-2.66-5.4-4.91-7.66-7.74-2.6-3.25-4.56-7-6.6-10.6-4.04-7.15-8.25-14.79-15.14-19.59-6.66-4.65-15.8-4.42-22.83-.66-14.75,7.89-11.24,28.58-4.43,40.61,4.36,7.71,10.77,12.77,18.96,16.12,10.08,4.14,20.78,5.21,28.61,13-3,3.26-6.72,4.2-11.72,3.18-6.87-1.4-13.37-5.73-19.26-9.31-11.6-7.09-26.45-19.12-41.04-16.33-1.77,.35-3.24,1.71-3.42,3.58-.79,8.32-.04,16.57,4.68,23.67,3.92,5.89,10.74,9.26,17.26,11.4,11.63,3.82,25.35,4.23,36.21,10.29-3.27,.55-6.46-.3-10.41-1.28-7.05-1.76-13.71-.24-20.15,2.81-9.77,4.65-16.47,14.56-8.86,24.32,4.15,5.34,11.01,8.54,17.15,10.88,7.03,2.66,14.64,3.23,22.07,2.49,9.2-.94,17.98-4.35,26.16-8.83-9.41,20.59-12.05,51.25,14.74,57.12,22.89,5,13.4-25.47,15.32-41.98,.68,2.41,1.15,4.91,1.62,7.28,1.33,6.78,2.29,13.62,4.2,20.28,3.58,12.41,12.25,22.66,26.34,20.66,12.16-1.72,8.11-14.82,5.1-22.47-2.46-6.22-8.24-16.93-6.06-24.57,8.42,13.49,17.77,28.52,33.37,33.58,7.08,2.29,17.93,3.18,24.51-1.05,5.37-3.46,2.88-10.26,.2-14.45-7.31-11.41-20.09-18.04-28.13-28.94-1.93-2.62-3.65-5.36-5.06-8.29-.53-1.11-1.02-2.26-1.31-3.44-.12-.44-.09-1.02-.1-1.4,.19-.05,.43-.1,.73-.09,1.85,.06,3.63,.66,5.36,1.23,3.94,1.31,7.23,3.34,10.13,6.32,5.5,5.67,9.59,12.43,15.51,17.75,6.66,5.97,15.09,8.43,23.85,8.93,7.78,.46,16.66-.2,23.42-4.48,6.98-4.42,8.26-11.78,5.92-19.28-6.54-20.96-30.61-17.27-47.22-22.82-4.4-1.48-8.58-4.06-12.38-6.67-1.55-1.07-6.25-4.1-6.23-6.36,.02-1.34,6.55-2.06,7.8-2.2,5.58-.64,10.51,.25,15.68,2.35,13.08,5.27,24.03,15.66,38.68,16.38,9.63,.49,22.39-3.23,25.51-13.57,3.31-10.97-7.74-20.9-17.15-24.01-11.83-3.92-26.01,.58-36.36-7.18,3.98-4.52,9.69-6.09,16.32-6.2,9.67-.2,19.29,1.8,28.83,3.1,9.13,1.27,18.83,2.31,27.8-.36,9.2-2.74,14.87-10.09,17.12-19.18Z" style="fill:#9db2d9; fill-rule:evenodd;"/><path d="M1948.87,701.62c-7.69-2.98-16.17-3.65-24.36-3.79-2.17-.04-4.06,2.01-3.96,4.16,.54,11.35,1.56,22.73,1.22,34.11-.12,3.74-.44,8.82-1.7,11.74-.09,.17-.48,.78-.65,1.08-.06-.03-.12-.04-.2-.08-.83-.39-1.49-.94-2.16-1.53-11.7-10.16-14.83-26.69-25.71-37.46-5.75-5.71-14.23-10.14-22.03-12.16-8.49-2.17-17.03-.41-24.63-5.63-2.78-1.91-5.84,.91-6.03,3.65-1.04,15.49-4.9,33.17,1.28,48.06,5.48,13.22,18.12,19.41,30.64,24.41,6.06,2.43,12.12,4.97,17.72,8.34,3.08,1.86,8.54,5.29,7.52,9.55-1.08,4.45-8.27,1.97-11.8,1.02-7.23-1.93-14.16-4.93-21.09-7.71-11.46-4.59-29.29-11.35-39.93-1.8-4.69,4.21-3.56,10.99-.97,15.94,4.12,7.86,12.73,13.8,20.29,17.93,17.16,9.36,36.85,3.25,54.91,8.28,4.15,1.15,16.63,6.17,14.89,12.33-.61,2.15-4.12,3.65-5.92,4.4-4.43,1.81-9.77,2.98-14.54,2.42-18.2-2.14-32.75-16.14-51.27-17.41-8.13-.55-18.42,2.3-24.32,8.07-5,4.89-4.39,11.99-1.33,17.69,3.7,6.89,10.92,11.98,17.66,15.56,7.8,4.13,16.42,6.33,25.23,6.13,17.67-.4,34.89-9.46,51.91-.92,2.33,1.17,5.11,2.85,5.9,5.49,.61,2.05-1.57,4.13-2.88,5.36-5.85,5.54-16.21,8.37-24.02,8.77-9.46,.48-18.81-3.29-27.77-5.76-9.46-2.62-18.91-3.7-28.53-1.29-6.99,1.74-14.08,6.41-14.57,14.2-.46,7.17,4.34,13.57,9.15,18.33,6.37,6.33,14.56,10.79,23.02,13.58,9.14,3.01,19.77,1.46,28.92-.54,9.52-2.1,18.72-5.44,28.33-7.17,2.54-.46,4.48-.88,6.84-2.08,2.53-1.29,4.91-2.87,7.63-3.68,2.32-.68,2.25,2.21,2.44,4.08,.47,4.46-4.81,7.42-7.94,9.65-2.95,2.11-5.55,4.72-8.64,6.6-3.55,2.18-7.51,3.66-11.34,5.22-7.61,3.11-15.71,6.3-21.35,12.53-5.45,6.03-6.38,15.12-3.54,22.55,5.97,15.63,26.93,14.77,39.73,9.55,8.2-3.37,14.03-9.09,18.39-16.77,5.38-9.49,7.79-19.96,16.5-26.75,2.86,3.39,3.34,7.2,1.69,12.03-2.26,6.63-7.37,12.55-11.68,17.92-8.49,10.62-22.32,23.82-21.4,38.64,.12,1.81,1.29,3.44,3.11,3.86,8.15,1.83,16.44,2.13,24.08-1.66,6.33-3.14,10.54-9.49,13.49-15.69,5.28-11.05,7.4-24.61,14.79-34.59,.13,3.29-1.12,6.35-2.59,10.14-2.64,6.78-1.97,13.58,.25,20.36,3.36,10.26,12.36,18.16,23,11.85,5.8-3.44,9.86-9.84,12.95-15.63,3.54-6.64,5.07-14.12,5.27-21.57,.24-9.25-2.04-18.4-5.46-27.08,19.23,11.94,49.32,18.44,58.53-7.39,7.86-22.08-23.58-16.52-39.7-20.51,2.49-.38,5.02-.52,7.43-.68,6.88-.45,13.8-.54,20.64-1.61,12.77-1.97,24.02-9.29,23.83-23.51-.17-12.27-13.68-9.92-21.64-7.9-6.48,1.66-17.85,6.03-25.14,2.91,14.44-6.65,30.54-14.03,37.52-28.86,3.18-6.74,5.44-17.39,2.07-24.45-2.75-5.75-9.81-4.14-14.31-2.02-12.26,5.81-20.45,17.65-32.26,24.25-2.84,1.58-5.79,2.94-8.87,3.97-1.16,.37-2.38,.73-3.57,.87-.46,.05-1.03-.04-1.4-.08-.03-.2-.05-.44,0-.74,.31-1.82,1.11-3.51,1.91-5.17,1.79-3.74,4.22-6.74,7.53-9.24,6.31-4.74,13.54-7.93,19.57-13.14,6.76-5.84,10.26-13.9,11.88-22.52,1.43-7.66,1.9-16.56-1.48-23.79-3.51-7.49-10.64-9.69-18.38-8.33-21.63,3.83-21.01,28.18-28.61,43.96-2.02,4.17-5.1,8-8.19,11.42-1.26,1.4-4.86,5.69-7.09,5.38-1.32-.19-1.21-6.76-1.19-8.01,.08-5.62,1.58-10.4,4.31-15.26,6.89-12.29,18.57-21.85,21.15-36.29,1.69-9.5-.37-22.62-10.24-27.03-10.47-4.66-21.71,5.05-25.99,13.99-5.37,11.23-2.71,25.86-11.72,35.15-3.97-4.52-4.81-10.38-4.09-16.97,1.05-9.62,4.24-18.91,6.74-28.2,2.4-8.91,4.67-18.39,3.15-27.63-1.55-9.46-8.13-16.02-16.87-19.42Z" style="fill:#9db2d9; fill-rule:evenodd;"/><path d="M2342.49,813.29c-1.11-8.19-4.63-15.92-8.46-23.16-1.01-1.92-3.73-2.58-5.55-1.46-9.69,5.98-19.14,12.36-29.28,17.57-3.34,1.71-7.94,3.88-11.1,4.18-.2,.03-.92-.02-1.26-.03,0-.06-.02-.13-.02-.22-.06-.9,.1-1.74,.28-2.62,3.24-15.15,16.2-25.88,20.37-40.63,2.21-7.8,2-17.37-.02-25.16-2.2-8.48-7.88-15.1-6.98-24.29,.33-3.34-3.62-4.66-6.11-3.5-14.06,6.58-31.4,11.75-41.45,24.36-8.91,11.18-8.22,25.25-6.55,38.63,.82,6.47,1.52,13,1.28,19.53-.14,3.6-.49,10.05-4.71,11.2-4.43,1.21-5.73-6.27-6.61-9.82-1.8-7.27-2.53-14.77-3.45-22.19-1.52-12.26-4.23-31.12-17.75-35.83-5.95-2.06-11.34,2.2-14.42,6.86-4.89,7.4-5.92,17.82-5.88,26.43,.09,19.55,14.98,33.83,19.31,52.06,1,4.2,2.65,17.54-3.59,19-2.18,.5-5.2-1.83-6.71-3.06-3.73-3-7.34-7.1-9.16-11.56-6.91-16.96-1.71-36.47-9.55-53.29-3.44-7.38-10.91-15.01-18.82-17.39-6.7-2.01-12.62,1.96-16.13,7.39-4.24,6.58-5.21,15.35-5.07,22.99,.14,8.83,2.39,17.43,6.83,25.06,8.9,15.26,25.15,25.95,25.92,44.98,.11,2.6-.03,5.84-1.96,7.82-1.5,1.53-4.38,.62-6.08,.08-7.68-2.45-15.17-10.15-19.29-16.79-5-8.04-6.22-18.05-8.39-27.09-2.28-9.54-5.91-18.34-12.66-25.59-4.91-5.27-12.41-9.23-19.49-5.89-6.48,3.06-9.76,10.36-11.62,16.88-2.46,8.63-2.4,17.97-.75,26.71,1.79,9.46,8.28,18,14.48,25.04,6.43,7.32,13.8,13.76,19.97,21.33,1.63,2.01,2.93,3.5,5.12,4.99,2.35,1.6,4.88,2.91,6.91,4.91,1.72,1.69-.85,3.05-2.38,4.11-3.68,2.57-8.83-.62-12.29-2.28-3.29-1.57-6.83-2.57-9.97-4.36-3.61-2.06-6.83-4.82-10.04-7.42-6.41-5.14-13.12-10.69-21.3-12.61-7.91-1.86-16.32,1.71-21.46,7.8-10.8,12.79,.08,30.71,10.86,39.39,6.91,5.57,14.74,7.88,23.57,7.98,10.91,.13,21.25-2.84,31.41,1.51-1.58,4.15-4.7,6.41-9.72,7.29-6.91,1.23-14.55-.38-21.34-1.54-13.4-2.32-31.64-8.03-44.16-.04-1.52,.97-2.39,2.79-1.86,4.59,2.33,8.03,6.08,15.43,13.09,20.26,5.81,4.03,13.4,4.66,20.24,4.24,12.24-.73,25.12-5.43,37.45-3.8-2.83,1.72-6.11,2.11-10.14,2.66-7.19,.98-12.83,4.84-17.69,10.05-7.37,7.91-9.92,19.62,.74,25.87,5.82,3.41,13.38,3.86,19.95,3.78,7.52-.12,14.8-2.4,21.42-5.84,8.21-4.26,15.12-10.66,21.06-17.86-1.15,22.59,7.71,52.07,34.78,47.64,23.12-3.8,3.05-28.63-1.26-44.66,1.53,1.99,2.88,4.14,4.19,6.17,3.74,5.81,7.15,11.81,11.39,17.29,7.9,10.22,19.75,16.54,32.11,9.49,10.66-6.09,2.07-16.77-3.56-22.77-4.58-4.89-13.91-12.7-14.7-20.6,12.8,9.42,27.05,19.93,43.41,18.89,7.43-.49,17.85-3.65,22.39-10.02,3.71-5.19-1.11-10.59-5.16-13.5-11-7.91-25.33-9.36-36.82-16.51-2.76-1.72-5.37-3.64-7.76-5.84-.89-.83-1.79-1.72-2.49-2.71-.26-.37-.46-.92-.6-1.26,.15-.12,.36-.26,.65-.36,1.74-.62,3.62-.73,5.45-.84,4.14-.24,7.94,.43,11.73,2.14,7.21,3.23,13.51,8.01,20.97,10.75,8.38,3.1,17.12,2.28,25.45-.49,7.41-2.45,15.42-6.34,20.12-12.8,4.85-6.68,3.34-14-1.6-20.1-13.81-17.07-34.83-4.77-52.31-3.79-4.64,.26-9.47-.6-13.97-1.63-1.85-.43-7.33-1.51-8.15-3.6-.48-1.25,5.33-4.33,6.43-4.93,4.96-2.64,9.87-3.63,15.46-3.6,14.09,.08,28.1,5.69,41.99,.95,9.12-3.12,19.61-11.26,18.69-22.03-.97-11.43-14.9-16.57-24.8-15.98-12.43,.73-23.95,10.15-36.44,6.73,2.03-5.66,6.77-9.22,12.88-11.77,8.91-3.74,18.6-5.45,27.94-7.75,8.96-2.2,18.36-4.82,25.72-10.6,7.53-5.94,10.08-14.87,8.83-24.16Z" style="fill:#b0c2e4; fill-rule:evenodd;"/><path d="M2282.6,734.86c-4.69,20.39-8.78,40.94-14.63,61.06-6.02,20.65-14.57,39.74-26.37,57.73-24.33,37.15-55.33,69.35-80.39,105.98-1.05,1.52-.85,3-.03,4.1-4.83,9.13-7.64,19.51-9.65,29.43-3.51,17.29-4.58,35.02-5.28,52.63-.85,21.5-.68,42.88,.31,64.39,1.17,25.26,2.85,50.55,1.78,75.85-.06,1.46-.15,2.93-.23,4.4-.29,5.23,7.83,5.2,8.13,0,1.39-24.7-.04-49.42-1.26-74.1-1.08-21.99-1.57-43.88-.77-65.89,.6-17.02,1.46-34.08,4.36-50.89,2.65-15.28,6.88-32.58,18.41-43.75,1.64-1.59,1.47-3.59,.45-5.01,23.43-31.86,50.3-61.12,72-94.27,11.62-17.73,19.9-36.87,25.99-57.15,6.16-20.48,10.23-41.53,15.01-62.37,1.17-5.09-6.66-7.25-7.82-2.15Z" style="fill:#b0c2e4; fill-rule:evenodd;"/><path d="M2150.14,1191.65c-4.4-39.47-22.56-74.79-41.38-109.12-18.65-34.04-38.31-68.55-44.03-107.54-.75-5.16-8.58-2.95-7.83,2.16,11.42,77.79,76.35,135.97,85.12,214.5,.57,5.14,8.7,5.2,8.12,0Z" style="fill:#b0c2e4; fill-rule:evenodd;"/><path d="M2269.48,1006.67c-34.73,15.16-68.77,38.36-92.09,68.57-12.71,16.49-20.2,35.24-24.89,54.91-1.78-20.49-5.54-40.79-9.46-60.96-9.14-47.07-16.19-94.36-20.61-142.13-1.76-18.95-3.06-37.95-3.95-56.95-.24-5.22-8.36-5.23-8.12,0,2.43,52.77,8.51,105.27,16.7,157.45,5.53,35.29,14.89,70.15,17.6,105.83-3.06-19.29-7.67-38.32-13.58-56.87-8.46-26.52-19.86-52.3-34.65-75.93,.09-1-.21-2.07-1.06-3.03-1-1.12-2.02-2.23-3.05-3.32-3.66-5.52-7.51-10.92-11.56-16.16-1.81-2.34-4.42-1.51-5.77,.39-6.22-4.76-12.85-9.01-20-12.72-16.7-8.62-37.46-14.22-45.46-33.14-2.03-4.8-9.02-.66-7.01,4.11,7.95,18.78,27.35,25.77,44.31,34.01,15.21,7.4,28.06,16.89,39.54,29.03,16.22,24.69,28.33,52.12,37.29,80.17,10.86,34.05,17.09,69.85,17.16,105.63,0,.2,.02,.38,.03,.56-.55,2.65,1.55,4.4,3.76,4.56,1.08,3.69,7.62,3.17,7.97-1.46,2.97-38.4,7.34-78.71,31.94-110.02,22.71-28.89,55.63-50.92,89.07-65.52,4.79-2.08,.66-9.08-4.1-7.01Z" style="fill:#9db2d9; fill-rule:evenodd;"/><path d="M2026.54,733.98c-7.37-3.73-15.75-5.21-23.88-6.14-2.15-.25-4.24,1.62-4.34,3.75-.56,11.36-.65,22.78-2.09,34.08-.48,3.71-1.29,8.74-2.83,11.51-.09,.18-.54,.74-.74,1.02-.06-.03-.11-.06-.2-.11-.77-.46-1.38-1.06-1.99-1.72-10.67-11.25-12.19-27.99-21.97-39.78-5.18-6.23-13.18-11.47-20.76-14.23-8.23-2.98-16.91-2.05-23.97-7.99-2.58-2.17-5.9,.34-6.34,3.06-2.54,15.31-8.08,32.54-3.38,47.96,4.18,13.69,16.16,21.06,28.15,27.25,5.79,3.01,11.58,6.12,16.83,10.03,2.89,2.14,7.99,6.09,6.56,10.22-1.5,4.33-8.42,1.17-11.84-.12-7-2.63-13.62-6.27-20.25-9.71-10.96-5.69-28.05-14.12-39.58-5.65-5.07,3.74-4.6,10.6-2.5,15.77,3.34,8.23,11.34,14.97,18.47,19.81,16.17,10.98,36.36,6.79,53.85,13.53,4.03,1.55,15.96,7.75,13.63,13.72-.81,2.09-4.45,3.25-6.31,3.8-4.59,1.37-10.01,2.02-14.72,1-17.9-3.89-31.03-19.22-49.34-22.27-8.03-1.34-18.54,.5-24.97,5.67-5.45,4.39-5.53,11.52-3.03,17.49,3.02,7.22,9.7,12.98,16.07,17.19,7.36,4.88,15.73,7.9,24.53,8.54,17.62,1.3,35.64-6.04,51.76,4.09,2.2,1.38,4.8,3.33,5.33,6.03,.42,2.09-1.96,3.95-3.37,5.05-6.37,4.95-16.95,6.78-24.77,6.41-9.45-.43-18.4-5.08-27.08-8.42-9.16-3.52-18.45-5.51-28.26-4.03-7.12,1.05-14.63,5-15.88,12.71-1.15,7.1,3.02,13.92,7.35,19.15,5.72,6.89,13.45,12.15,21.6,15.73,8.81,3.88,19.53,3.36,28.84,2.24,9.68-1.17,19.16-3.58,28.89-4.4,2.56-.2,4.54-.43,7.01-1.4,2.63-1.04,5.16-2.38,7.96-2.92,2.36-.45,2.02,2.43,2.03,4.3,.04,4.48-5.5,6.93-8.83,8.84-3.15,1.8-5.98,4.17-9.24,5.74-3.74,1.8-7.83,2.91-11.8,4.1-7.86,2.36-16.24,4.76-22.45,10.4-6,5.48-7.81,14.43-5.7,22.12,4.43,16.14,25.38,17.31,38.62,13.34,8.49-2.55,14.84-7.69,19.92-14.92,6.27-8.92,9.68-19.12,19.01-25.03,2.53,3.65,2.62,7.5,.52,12.14-2.89,6.39-8.54,11.77-13.36,16.71-9.48,9.74-24.51,21.55-25.02,36.39-.06,1.8,.95,3.55,2.72,4.14,7.93,2.61,16.17,3.73,24.13,.68,6.61-2.52,11.41-8.43,14.94-14.3,6.32-10.5,9.75-23.78,18.06-33.01-.18,3.29-1.72,6.22-3.56,9.86-3.27,6.48-3.27,13.32-1.71,20.28,2.36,10.55,10.54,19.29,21.75,14.03,6.11-2.87,10.76-8.85,14.4-14.32,4.16-6.26,6.4-13.55,7.32-20.97,1.13-9.17-.25-18.49-2.81-27.47,17.98,13.74,47.3,23.12,58.96-1.7,9.96-21.21-21.87-18.71-37.53-24.25,2.5-.13,5.05-.03,7.46,.04,6.91,.21,13.79,.79,20.7,.4,12.89-.73,24.81-6.92,25.99-21.12,1.02-12.23-12.66-11.2-20.78-9.94-6.61,1-18.33,4.28-25.3,.46,15.02-5.23,31.75-11.01,40.15-25.1,3.81-6.4,7.09-16.78,4.42-24.13-2.19-5.99-9.37-5.08-14.05-3.39-12.75,4.6-22.06,15.59-34.45,21.01-2.98,1.3-6.04,2.36-9.21,3.09-1.18,.27-2.43,.49-3.64,.52-.46,.01-1.01-.14-1.38-.22,0-.19,0-.44,.07-.73,.48-1.78,1.46-3.4,2.4-4.97,2.15-3.54,4.85-6.29,8.39-8.46,6.74-4.11,14.25-6.6,20.74-11.19,7.29-5.17,11.57-12.85,14-21.27,2.16-7.49,3.49-16.3,.83-23.83-2.77-7.8-9.65-10.68-17.47-10.06-21.9,1.72-23.64,26.02-32.73,40.98-2.42,3.97-5.86,7.47-9.25,10.59-1.39,1.28-5.39,5.2-7.57,4.68-1.3-.31-.55-6.85-.42-8.08,.61-5.59,2.59-10.2,5.77-14.79,8.04-11.58,20.59-19.95,24.55-34.08,2.6-9.29,1.82-22.55-7.58-27.89-9.97-5.66-22.09,2.92-27.22,11.41-6.43,10.66-5.19,25.49-15.06,33.85-3.52-4.87-3.78-10.79-2.43-17.27,1.96-9.48,6.04-18.43,9.43-27.43,3.25-8.63,6.42-17.84,5.8-27.19-.63-9.58-6.54-16.73-14.91-20.95Z" style="fill:#c4d1eb; fill-rule:evenodd;"/><polygon points="2242.31 1430.26 2067.22 1430.26 2009.93 1203.85 2295.63 1203.85 2242.31 1430.26" style="fill:#b0c2e4; fill-rule:evenodd;"/><rect x="1990.83" y="1174.41" width="319.92" height="29.43" style="fill:#9db2d9;"/><polygon points="2152.77 1203.85 2009.93 1203.85 2067.22 1430.26 2152.77 1430.26 2152.77 1203.85" style="fill:#9db2d9; fill-rule:evenodd;"/><rect x="1990.83" y="1174.41" width="161.95" height="29.43" style="fill:#859ac6;"/><polygon points="2242.31 1433.64 2067.22 1433.64 2009.93 1403.09 2295.63 1403.09 2242.31 1433.64" style="fill:#9db2d9; fill-rule:evenodd;"/><polygon points="2152.77 1403.09 2009.93 1403.09 2067.22 1433.64 2152.77 1433.64 2152.77 1403.09" style="fill:#859ac6; fill-rule:evenodd;"/></g><g><path d="M1125.99,1423.12c534.59,0,1149.11,6.03,1149.11,13.46,0,5.87-452.19,10.88-829.97,12.72-23.27,.1-52.46,10.5-76.5,10.6-212.74,.77-434.12-2.43-647.87-3.68-12.88-.08-94.24,37.47-106.84,37.39-256.94-1.69-366.73-18.91-437.66-22.83-19.11-1.05-18.23-33.06-18.23-34.2,0-7.43,433.37-13.46,967.95-13.46Z" style="fill:#b0c2e4; fill-rule:evenodd;"/><path d="M452.22,393.14l756.87,32.37v1004.24H480.91c-38.43,0-69.88,4.6-69.88-33.83V434.33c0-22.66,18.56-42.16,41.19-41.19Z" style="fill:#f5d1b5; fill-rule:evenodd;"/><g><path d="M452.46,1403.43V448.93l.07-8.12,.07-6.09-16.01-.57h0c-.81,0,1.12,.48,1.1,1.24-.04,1.51-.07,3.58-.11,5.84-.1,7.06-.16,16.62-.16,16.75v941.64c0,13.23,.23,20.97,4.09,24.78,3.6,3.56,10.66,4.07,23.96,2.84-3.14-2.58-6.18-6.07-8.53-9.91-2.68-4.41-4.48-9.31-4.48-13.91h0Zm2.45-954.5v954.5c0,4.12,1.65,8.58,4.12,12.63,2.82,4.61,6.68,8.66,10.4,11.05l-.54,2.25c-16.18,1.68-24.58,1.26-29.11-3.21-4.54-4.49-4.82-12.66-4.82-26.53V457.98c0-.12,.07-9.35,.17-16.78,.03-2.3,.07-4.39,.11-5.87,.06-2.24,.45-3.63,1.34-3.63h.04s17.25,.62,17.25,.62l1.2,.05-.02,1.19c-.03,2.43-.06,4.97-.08,7.28-.04,4.17-.06,7.99-.06,8.1Z" style="fill:#e5bb9a; fill-rule:evenodd;"/><path d="M453.68,1403.43V448.93c0-.12,.06-8.34,.14-15.39l-17.25-.62c-.22,0-.39,24.85-.39,25.06v941.64c0,27.1,1.02,31.8,32.57,28.53-7.29-4.7-15.08-15.45-15.08-24.71Z" style="fill:#e6e7e8; fill-rule:evenodd;"/><path d="M457.23,1402.33V447.83c0-.12,.06-8.34,.14-15.4l-17.25-.61c-.22,0-.4,24.84-.4,25.06v941.64c0,27.1,1.02,31.81,32.58,28.53-7.29-4.69-15.08-15.45-15.08-24.71Z" style="fill:#e6e7e8; fill-rule:evenodd;"/><path d="M460.77,1401.23V446.72c0-.12,.06-8.34,.15-15.4l-17.25-.61c-.21,0-.39,24.84-.39,25.06v941.63c0,27.11,1.02,31.81,32.58,28.53-7.29-4.69-15.08-15.45-15.08-24.71Z" style="fill:#e6e7e8; fill-rule:evenodd;"/><path d="M464.31,1400.12V445.62c0-.12,.06-8.34,.15-15.39l-17.25-.62c-.22,0-.39,24.85-.39,25.06v941.63c0,27.12,1.02,31.81,32.57,28.53-7.29-4.68-15.08-15.45-15.08-24.71Z" style="fill:#e6e7e8; fill-rule:evenodd;"/><path d="M467.86,1399.02V444.52c0-.13,.06-8.34,.14-15.4l-17.25-.61c-.22,0-.4,24.84-.4,25.06v941.63c0,27.11,1.02,31.8,32.57,28.53-7.29-4.69-15.08-15.45-15.08-24.71Z" style="fill:#e6e7e8; fill-rule:evenodd;"/></g><path d="M454.07,423.53l692.75,25.01c34.22,1.23,62.26,28.02,62.26,62.26v918.55c0,.21-.18,.39-.4,.39H479.99c-14.47,0-26.31-11.84-26.31-26.31V448.93c0-.22,.17-25.41,.39-25.4Z" style="fill:#fff5ef; fill-rule:evenodd;"/><path d="M1965.95,393.14l-756.86,32.37v1004.24h728.17c38.43,0,69.88,4.6,69.88-33.83V434.33c0-22.66-18.56-42.16-41.19-41.19Z" style="fill:#e5bb9a; fill-rule:evenodd;"/><path d="M1965.95,393.14l-756.86,32.37v1004.24h728.17c38.43,0,69.88,4.6,69.88-33.83V434.33c0-22.66-18.56-42.16-41.19-41.19Z" style="fill:#e5bb9a; fill-rule:evenodd;"/><path d="M1965.72,1403.43V448.93l-.08-8.12-.06-6.09,16.01-.57h0c.81,0-1.12,.48-1.1,1.24,.04,1.51,.07,3.58,.1,5.84,.1,7.06,.16,16.62,.16,16.75v941.64c0,13.23-.23,20.97-4.09,24.78-3.59,3.56-10.66,4.07-23.95,2.84,3.12-2.58,6.17-6.07,8.52-9.91,2.68-4.41,4.49-9.31,4.49-13.91h0Zm-2.45-954.5v954.5c0,4.12-1.65,8.58-4.12,12.63-2.83,4.61-6.69,8.66-10.4,11.05l.54,2.25c16.18,1.68,24.59,1.26,29.11-3.21,4.54-4.49,4.82-12.66,4.82-26.53V457.98c0-.12-.07-9.35-.17-16.78-.03-2.3-.07-4.39-.11-5.87-.05-2.24-.44-3.63-1.34-3.63h-.04s-17.24,.62-17.24,.62l-1.2,.05,.02,1.19c.03,2.43,.06,4.97,.08,7.28,.04,4.17,.07,7.99,.07,8.1Z" style="fill:#e5bb9a; fill-rule:evenodd;"/><g><path d="M1965.72,1403.43V448.93l-.08-8.12-.06-6.09,16.01-.57h0c.81,0-1.12,.48-1.1,1.24,.04,1.51,.07,3.58,.1,5.84,.1,7.06,.16,16.62,.16,16.75v941.64c0,13.23-.23,20.97-4.09,24.78-3.59,3.56-10.66,4.07-23.95,2.84,3.12-2.58,6.17-6.07,8.52-9.91,2.68-4.41,4.49-9.31,4.49-13.91h0Zm-2.45-954.5v954.5c0,4.12-1.65,8.58-4.12,12.63-2.83,4.61-6.69,8.66-10.4,11.05l.54,2.25c16.18,1.68,24.59,1.26,29.11-3.21,4.54-4.49,4.82-12.66,4.82-26.53V457.98c0-.12-.07-9.35-.17-16.78-.03-2.3-.07-4.39-.11-5.87-.05-2.24-.44-3.63-1.34-3.63h-.04s-17.24,.62-17.24,.62l-1.2,.05,.02,1.19c.03,2.43,.06,4.97,.08,7.28,.04,4.17,.07,7.99,.07,8.1Z" style="fill:#e5bb9a; fill-rule:evenodd;"/><path d="M1964.49,1403.43V448.93c0-.12-.07-8.34-.15-15.39l17.25-.62c.21,0,.39,24.85,.39,25.06v941.64c0,27.1-1.02,31.8-32.57,28.53,7.29-4.7,15.08-15.45,15.08-24.71Z" style="fill:#e6e7e8; fill-rule:evenodd;"/><path d="M1960.95,1402.33V447.83c0-.12-.06-8.34-.14-15.4l17.24-.61c.22,0,.4,24.84,.4,25.06v941.64c0,27.1-1.02,31.81-32.57,28.53,7.29-4.69,15.07-15.45,15.07-24.71Z" style="fill:#e6e7e8; fill-rule:evenodd;"/><path d="M1957.41,1401.23V446.72c0-.12-.06-8.34-.15-15.4l17.24-.61c.22,0,.39,24.84,.39,25.06v941.63c0,27.11-1.02,31.81-32.57,28.53,7.29-4.69,15.08-15.45,15.08-24.71Z" style="fill:#e6e7e8; fill-rule:evenodd;"/><path d="M1953.86,1400.12V445.62c0-.12-.05-8.34-.14-15.39l17.25-.62c.22,0,.39,24.85,.39,25.06v941.63c0,27.12-1.02,31.81-32.58,28.53,7.29-4.68,15.08-15.45,15.08-24.71Z" style="fill:#e6e7e8; fill-rule:evenodd;"/><path d="M1950.32,1399.02V444.52c0-.13-.05-8.34-.14-15.4l17.25-.61c.21,0,.39,24.84,.39,25.06v941.63c0,27.11-1.02,31.8-32.58,28.53,7.29-4.69,15.08-15.45,15.08-24.71Z" style="fill:#e6e7e8; fill-rule:evenodd;"/></g><path d="M1964.1,423.53l-692.76,25.01c-34.22,1.23-62.26,28.02-62.26,62.26v918.55c0,.21,.18,.39,.39,.39h728.7c14.47,0,26.31-11.84,26.31-26.31V448.93c0-.22-.18-25.41-.39-25.4Z" style="fill:#fff7f4; fill-rule:evenodd;"/><rect x="1207.86" y="633.43" width="2.44" height="617.9" style="fill:#e5bb9a;"/><g><polygon points="497.89 496.98 783.77 507.31 783.77 740.64 497.89 730.32 497.89 496.98" style="fill:#f6dcc5; fill-rule:evenodd;"/><path d="M628.12,575.64l27.78,51.27,1.61,2.98,12.71-23.46,19.44,35.87,19.43,35.87h-136.55l27.78-51.27,27.78-51.27h0Zm34.16-15.58c-7.27,0-13.17,5.89-13.17,13.17s5.89,13.17,13.17,13.17,13.17-5.9,13.17-13.17-5.89-13.17-13.17-13.17Z" style="fill:#a1775a; fill-rule:evenodd;"/></g><g><polygon points="497.89 858.21 783.77 868.55 783.77 1101.89 497.89 1091.56 497.89 858.21" style="fill:#f6dcc5; fill-rule:evenodd;"/><path d="M628.12,936.87l27.78,51.28,1.61,2.98,12.71-23.46,19.44,35.87,19.43,35.86h-136.55l27.78-51.26,27.78-51.28h0Zm34.16-15.57c-7.27,0-13.17,5.89-13.17,13.17s5.89,13.17,13.17,13.17,13.17-5.89,13.17-13.17-5.89-13.17-13.17-13.17Z" style="fill:#f69339; fill-rule:evenodd;"/></g><g><path d="M817.43,878.89c-2.87-.11-5.1-2.53-4.99-5.4,.11-2.86,2.53-5.1,5.4-4.99l321.95,12.79c2.86,.11,5.1,2.53,4.99,5.4-.11,2.86-2.53,5.1-5.4,4.99l-321.95-12.79Z" style="fill:#a1775a; fill-rule:evenodd;"/><path d="M817.49,930.1c-1.91-.08-3.4-1.68-3.32-3.6,.07-1.91,1.69-3.4,3.6-3.33l321.95,12.79c1.91,.08,3.4,1.68,3.32,3.6-.07,1.91-1.69,3.4-3.6,3.32l-321.95-12.78Z" style="fill:#e5bb9a; fill-rule:evenodd;"/><path d="M817.49,983.03c-1.91-.08-3.4-1.69-3.32-3.6,.07-1.92,1.69-3.4,3.6-3.33l321.95,12.79c1.91,.08,3.4,1.69,3.32,3.6-.07,1.91-1.69,3.4-3.6,3.32l-321.95-12.78Z" style="fill:#e5bb9a; fill-rule:evenodd;"/><path d="M817.49,1035.96c-1.91-.08-3.4-1.68-3.32-3.6,.07-1.91,1.69-3.4,3.6-3.32l221.58,8.8c1.92,.08,3.4,1.69,3.33,3.6-.08,1.92-1.69,3.4-3.6,3.33l-221.58-8.81Z" style="fill:#e5bb9a; fill-rule:evenodd;"/></g><g><polygon points="555.26 1372.47 549.2 1482.62 605.37 1485.71 740.54 1391.33 740.91 1382.69 555.26 1372.47" style="fill:#bf9071; fill-rule:evenodd;"/><polygon points="598.56 1480.1 605.37 1485.71 740.54 1391.33 740.91 1382.69 598.56 1480.1" style="fill:#d0a382; fill-rule:evenodd;"/><path d="M728.23,1374.88c.17,3.2,.43,6.41,.74,9.63,0,0-112.35,72.2-132.8,89.43,0,0-20.35-33.24-2.97-91.92,0,0,130.7-88.8,142.21-95.05,0,0-3,12.38-5.26,31.25-.14,.99-.23,1.97-.35,2.99-1.66,14.66-2.74,32.8-1.7,51.87,.03,.6,.06,1.2,.12,1.8Z" style="fill:#fff; fill-rule:evenodd;"/><path d="M735.41,1286.97s-.06,.03-.07,.03c-1.44,1.01-2.89,2.03-4.33,3.03-19.58,13.7-39.06,25.12-58.63,38.81-21.26,14.86-36.93,25.11-58.18,39.98-1.63,1.14-11.9,8.5-17.8,19.5-9.43,25.76-8.71,60.37,1.58,84.14,6.23-4.95,17.75-13.06,31.48-22.43-1.31,.28-2.61,.52-3.92,.7-1.63,.23-3.19,.33-4.68,.33-4.59,0-8.44-1.04-11.61-2.89-.23,.13-.47,.26-.7,.4-5.29,3-8.89,4.87-8.89,4.87,0,0,3.29-2.37,8.34-5.72,.08-.07,.16-.12,.25-.18-7.7-5.18-10.91-15.59-10.25-27.75,1.76-32.1,25.01-48.94,49.83-64.6,15.23-9.61,32.78-19.63,47.53-29.89,12.62-8.76,27.44-18.74,38.1-28.86,.1-.56,.21-1.09,.3-1.61,.96-5.02,1.66-7.86,1.66-7.86Z" style="fill:#eac5a7; fill-rule:evenodd;"/><path d="M608.25,1447.54c-.09,.06-.17,.11-.25,.18-5.05,3.35-8.34,5.72-8.34,5.72,0,0,3.6-1.87,8.89-4.87,.23-.14,.46-.27,.7-.4-.34-.2-.67-.41-.99-.63Z" style="fill:#e0e8f5; fill-rule:evenodd;"/><path d="M743.44,1281.34l.4-7.28-438.19-14.57-135.04,92.09s425.32,37.62,425.76,36.8c5.89-11.03,16.19-18.42,17.83-19.57,21.25-14.87,36.92-25.12,58.18-39.98,19.58-13.69,39.05-25.11,58.63-38.81,4.14-2.89,8.28-5.79,12.43-8.69Z" style="fill:#bf9071; fill-rule:evenodd;"/><path d="M612.4,1363.11c-28.18,25.11-29.63,93.09-6.75,122.62,0,0-429.72-23.67-430.84-23.73-15.75-.87-21.13-29.09-22.66-40.67-2.3-17.23-1.02-83.62,29.42-81.95l430.84,23.73Z" style="fill:#e5bb9a; fill-rule:evenodd;"/><path d="M597.98,1472.47h0c.91,2.09,1.89,4.1,2.94,6.01h0c-1.05-1.91-2.03-3.92-2.94-6.01Z" style="fill:#528d97; fill-rule:evenodd;"/><path d="M600.92,1478.48h0c1.02,1.85,2.11,3.61,3.26,5.26-1.15-1.65-2.24-3.41-3.26-5.26Z" style="fill:#5f9fab; fill-rule:evenodd;"/><path d="M597.98,1472.45h0s0,.02,0,.02h0s0,0,0-.02Z" style="fill:#e7dba9; fill-rule:evenodd;"/><path d="M596.39,1388.32s-.02,.04-.03,.07h-.01c-9.4,25.75-8.67,60.32,1.63,84.07h0c-10.29-23.77-11.01-58.38-1.58-84.14Z" style="fill:#dace90; fill-rule:evenodd;"/><path d="M597.94,1384.41s-.03,.03-.04,.06c-.54,1.28-1.05,2.59-1.54,3.92h.01s.02-.05,.03-.07c.48-1.32,1-2.62,1.54-3.91Z" style="fill:#528d97; fill-rule:evenodd;"/><path d="M597.89,1384.47c-7.18,8.91-13.02,18.87-16.85,29.72-3.68,10.47-4.82,20.73-6.46,31.59-.83,5.51-1.9,13.16-6.91,16.71-6.21,4.41-39.26,6.08-61.13,6.08-6.94,0-12.74-.17-16.22-.48-29.07-2.55-57.95-3.17-88.45-4.87-60.87-3.36-115.21-3.8-175.82-10.2-19.74-2.09-43.9-3.86-57.37-20.63-5.43-6.76-9.46-14.37-11.99-22.68-2.31-7.58-2.77-15.58-4.16-23.36-.94,8.44-1.23,16.69-1.11,23.41,.08,4.73,.35,8.7,.71,11.45,0,.04,.01,.08,.02,.12,1.53,11.58,6.91,39.81,22.66,40.67,1.12,.06,430.84,23.73,430.84,23.73h0c-.08-.1-.15-.21-.23-.31-.03-.04-.07-.09-.1-.13-.05-.06-.09-.12-.14-.19-.03-.05-.08-.09-.11-.15-.04-.04-.08-.1-.12-.15-.03-.05-.08-.12-.12-.17-.02-.03-.04-.05-.06-.08-.11-.14-.2-.29-.31-.43-.02-.02-.04-.05-.06-.08-.05-.08-.11-.14-.16-.23-.02-.03-.03-.05-.05-.07-1.15-1.65-2.24-3.41-3.26-5.26-1.05-1.91-2.03-3.92-2.94-6.01,0,0,0,0,0-.02-10.29-23.74-11.03-58.32-1.63-84.07,.49-1.33,1-2.64,1.54-3.92Z" style="fill:#d0a382; fill-rule:evenodd;"/><path d="M275.68,1344.57l-14.14-.78c-8.37,16.48-13.11,35.19-14.07,53.51-1.14,21.71-.24,47.58,7.31,69.11l14.01,.77c-10.61-34.79-13.15-88.09,6.9-122.61Z" style="fill:#d0a382; fill-rule:evenodd;"/><path d="M302.28,1346.04l-14.15-.78c-8.37,16.48-13.11,35.2-14.07,53.5-1.14,21.72-.25,47.59,7.3,69.12l14.02,.77c-10.62-34.79-13.16-88.09,6.9-122.61Z" style="fill:#d0a382; fill-rule:evenodd;"/><path d="M531.01,1358.63l-73.63-4.06c-8.36,16.47-12.76,35.04-14.07,53.51-1.53,21.69-1.62,48.1,7.31,69.11l73.48,4.05c-10.6-34.79-13.15-88.09,6.9-122.61Z" style="fill:#d0a382; fill-rule:evenodd;"/><polygon points="743.84 1274.07 306.17 1249.96 171.12 1342.06 608.79 1366.17 743.84 1274.07" style="fill:#eac5a7; fill-rule:evenodd;"/><polygon points="399.28 1271.91 330.62 1268.13 241.2 1329.1 309.88 1332.89 399.28 1271.91" style="fill:#d0a382; fill-rule:evenodd;"/><path d="M570.39,1243.94c-13.27,23.26-12.25,72.38-3.07,97.64,0,0-302.19-16.63-302.99-16.68-8.43-.47-15-19.51-16.03-29.13-1.54-14.32-.2-69.57,21.57-68.37l300.51,16.54Z" style="fill:#e5bb9a; fill-rule:evenodd;"/><path d="M267.02,1234.36s-10.63,7.57-11.67,42.49c-.52,16.96,.95,30.56,9.48,39.03,.95,.94-.43,7.69-.49,9.02l333.03,18.34,116.79-82.02,.29-6.66-447.44-20.21Z" style="fill:#bf9071; fill-rule:evenodd;"/><polygon points="714.45 1254.56 598.04 1334.89 264.82 1315.87 264.33 1324.89 597.37 1343.23 714.16 1261.22 714.45 1254.56" style="fill:#e5bb9a; fill-rule:evenodd;"/><path d="M695.68,1252.48c.12,2.47,.31,4.92,.58,7.4,0,0-86.38,55.52-102.1,68.75,0,0-12.14-35.16-.79-76.97,0,0,98.97-61.96,107.82-66.76,0,0-2.31,9.51-4.04,24.03-.09,.76-.18,1.52-.27,2.3-1.28,11.27-2.11,25.21-1.31,39.87,.02,.46,.05,.93,.1,1.39Z" style="fill:#fff; fill-rule:evenodd;"/><path d="M590.2,1305.84c.73,8.53,2.08,16.43,3.97,22.8,0,0-306.99-16.91-307.81-16.95-11.54-.63-15.54-20.37-16.68-28.45-1.71-12.04-.91-58.39,21.39-57.16l307.81,16.95c-2.73,4.75-4.8,10.82-6.31,17.61-.37,1.66-.7,3.36-.99,5.12-1.95,11.39-2.44,24.26-1.65,36.26,.06,1.29,.14,2.57,.27,3.84Z" style="fill:#fff; fill-rule:evenodd;"/><path d="M290.26,1226.04c-.1,0-.19,0-.29,0h.23c.29,0,.57,0,.87,.03l307.81,16.95h0l-213.45-11.76-94.36-5.18c-.28-.02-.55-.03-.81-.03h0Zm-6.58,1.64l-.03,.02c-.14,.07-.28,.15-.41,.24,.14-.1,.29-.18,.44-.26Z" style="fill:#edeadd; fill-rule:evenodd;"/><path d="M290.2,1226.05h-.23c-.26,0-.51,.02-.76,.03l-.57,.07c-.41,.04-.81,.1-1.21,.18l-.6,.14c-.38,.09-.75,.2-1.11,.32l-.54,.2c-.44,.17-.86,.37-1.28,.6l-.21,.1c-.15,.08-.3,.15-.44,.26-.34,.2-.67,.42-.99,.65l-.48,.37c-.3,.23-.57,.45-.86,.71l-.52,.48-.75,.77-.49,.54c-.26,.31-.5,.62-.74,.94l-.39,.51c-.34,.46-.66,.95-.98,1.46l-.43,.74c-.18,.3-.35,.6-.52,.93-.16,.28-.3,.57-.45,.87-.16,.29-.3,.6-.45,.9-.14,.31-.29,.62-.43,.94-.14,.31-.26,.62-.4,.94-.12,.32-.26,.65-.4,.98-.21,.58-.43,1.17-.63,1.77-1.53,4.53-2.56,9.57-3.22,14.59-1.42,10.74-1.14,21.33-.44,26.22h0c1.14,8.09,5.14,27.82,16.68,28.45h0s.27,.02,.74,.04h0c.06,0,.13,0,.2,0h.01c3.72,.21,17.97,.99,38.46,2.13-7.9-2.16-14.73-7.25-19.64-13.91l-30.8-1.93c-.36-.03-.62-.34-.6-.69,.02-.35,.31-.6,.64-.6h.03l29.45,1.39c-7.99-12.14-9.83-28.68-.88-42.1-4.54-.34-8.4-.68-11.35-.9-4.14-.36-6.51-.57-6.51-.57,0,0,2.37-.03,6.54-.06,.86,0,1.8,0,2.81,0,.71,0,1.46,0,2.25,0h3.14c1.33,0,2.74,0,4.2,.02,5.91-7.75,14.34-9.44,23.43-9.44,4.73,0,9.63,.45,14.46,.77,19.59,1.25,39.21,1.83,58.81,2.87,11.19,.6,22.37,1.06,33.54,1.61,27.95,1.35,55.9,2.71,83.85,4.06,5.29,.27,10.61,.64,15.92,.78,12.78,.31,22.76,1.58,30.72,3.86,4.61,.28,8.92,.54,12.75,.77,5.33,.32,9.74,.6,12.76,.77,.59-2.92,1.28-5.88,2.09-8.88,0,0,.77-.48,2.17-1.35,.98-2.66,2.1-5.12,3.34-7.29l-307.81-16.95c-.29-.02-.58-.03-.87-.03Z" style="fill:#eac5a7; fill-rule:evenodd;"/><path d="M707.16,1184.43l.31-5.6-336.65-15.05-103.41,63.47-.4,7.33s335.41,19.18,336.66,18.31c16.34-11.44,78.88-51.25,93.92-61.77,3.19-2.23,6.37-4.47,9.57-6.69Z" style="fill:#e5bb9a; fill-rule:evenodd;"/><polygon points="707.47 1178.83 371.22 1156.47 267.41 1227.26 603.87 1245.79 707.47 1178.83" style="fill:#eac5a7; fill-rule:evenodd;"/><polygon points="613.26 1177.55 409.15 1166.31 384.67 1183.58 585.74 1194.65 613.26 1177.55" style="fill:#e7e4de; fill-rule:evenodd;"/><path d="M512.12,1184.19c-.99-9.99,4.38-34.29,11.98-40.84-16.1-2.3-32.36-3.7-48.55-5.18-41.96-3.83-83.99-6.99-126.02-9.96-20.42-1.44-40.84-2.8-61.28-4.07-8.49-.52-16.99-1.02-25.48-1.49-5.37-.3-5.52,1.18-4.75,6.15,.91,5.77,1.44,11.6,1.63,17.44,.25,7.89-.23,15.74-1.19,23.57-.76,6.23,.62,12.81-4.09,17.92-5.26,5.68-11.62,6.92-20.76,9.78-5.88,1.83-1.73,6.01,4.29,6.99,19.1,3.12,39.5,5.6,62.69,7.6,33.5,2.89,67.07,4.96,100.61,7.43,31.59,2.34,63.41,7.94,95,10.27,14.02,1.03,28.03,2.07,42.05,3.11-17.19-12.38-24.03-27.54-26.13-48.71Z" style="fill:#eac5a7; fill-rule:evenodd;"/><path d="M743.94,1193.4l-210.33,43.34-292.54-32.46,217.27-86.41c8.63,2.02,17.26,4.03,25.89,6.03,9.58,2.23,19.15,4.46,28.73,6.69,10.56,2.47,20.35-.94,30.92-2.89,62.55-11.57,125.92-17.7,189.18-23.81,1.23-.12,2.63-.19,3.52,.68,.58,.58,.79,1.45,.96,2.26,3.3,15.63,5.12,28.58,7.5,44.39,.88,5.84,6.47,40.86-1.09,42.18Z" style="fill:#d0a382; fill-rule:evenodd;"/><path d="M243.03,1198.87c42.05,4.53,116.07,10.4,151.9,13.94,45.52,4.46,85.97,10.47,131.86,13.61,2.08,.16,4.14,.65,6.26,.46,1.56-.18,3.06-.77,4.61-1.03,25.5-4.54,124.33-24.15,149.28-28.58,14.63-2.6,27.8-6.94,43.62-9.8,1.43-.23,2.75-1.14,3.76-2.16l.57-.69c1.11-1.57,1.12-3.62,1.06-5.54-.21-10.31-2.37-19.76-3.58-29.84-1.43-11.86-3.43-23.75-7.44-35.03-.52-1.41-1.05-2.88-1.92-4.1-1.95-2.68-5.38-3.99-8.7-4.08-6.77-.26-14.34,2.55-21.12,3.47-7.92,1.04-15.85,2.1-23.77,3.17-34.93,4.71-69.89,9.44-104.66,15.1-10.43,1.73-20.9,3.46-31.27,5.64-4.52,.94-9.09,2.55-13.65,3-12.47,1.15-25.3-.49-37.73-1.67-80.5-7.63-152.53-12.66-233.42-13.93,3.78,8.37,6.01,19.28,6.46,29.68,.04,1.11,.08,2.18,.09,3.26,.05,4.13-.2,8.08-.77,11.72l-.12,.7c-.18,1.12-.34,2.19-.57,3.22-2.01,11.31-4.76,18.48-10.75,29.5Z" style="fill:#fff; fill-rule:evenodd;"/><path d="M734.88,1106.63l-211.85,36.93-283.45-20.95c-2.4-.18-2.57-3.64-.2-4.05l212.62-37.06,282.68,20.89c2.5,.19,2.68,3.81,.21,4.24Z" style="fill:#d0a382; fill-rule:evenodd;"/><path d="M209.65,1138.12l212.19,7.6,294.1-62.84-230.4-58.75-277.2,106.13c-4.14,1.58-3.12,7.71,1.31,7.86Z" style="fill:#d0a382; fill-rule:evenodd;"/><path d="M215.64,1131.85c64.54,2.33,131.55,5.67,194.49,6.21,6.65,.03,20.93,1.78,27.23-3.74,5.85-5.08,12.89-18.01,13.48-25.75,1.04-13.99-2.46-28.66-10.72-42.62-2.15-3.61-4.66-7.21-7.49-10.29-2.27-2.47-5.38-4.42-8.72-4.88-35.83-4.95-206.5-2.24-206.98-3.03,3.59,6.03,6.89,11.52,9.51,17.28,.38,.79,.77,1.62,1.08,2.45,1.63,3.78,2.95,7.72,3.9,12.05,.19,.8,.34,1.65,.53,2.48,.33,1.91,.6,3.89,.8,5.94,.68,7.1-.37,14.7-2.89,21.92-.24,.8-.54,1.6-.85,2.38-1.37,3.47-3.1,6.83-5.14,9.95-.51,.79-1.07,1.58-1.61,2.34-1.98,2.66-4.17,5.13-6.61,7.3Z" style="fill:#fff; fill-rule:evenodd;"/><path d="M441.32,1097.16c-.39-10.03-9.02-33.37-17.45-38.81,51.47-14.75,289.45-64.35,295.19-62.81,5.92,1.6,9.88,6.43,11.59,10.2,10.5,23.09,7.11,66.18-14.71,77.13l-294.1,62.84c15.34-14.6,20.28-27.3,19.48-48.55Z" style="fill:#e5bb9a; fill-rule:evenodd;"/><path d="M671.23,1024.91c-78.95,15.85-157.58,33.24-236.56,48.99-3.11-6.92-6.97-13.07-10.8-15.54,51.47-14.75,289.45-64.35,295.19-62.81,5.92,1.6,9.88,6.43,11.59,10.2,1,2.21,1.88,4.61,2.63,7.15-20.71,3.87-41.4,7.87-62.05,12.02Z" style="fill:#bf9071; fill-rule:evenodd;"/><path d="M210.06,1050.69l214.91,7.69,294.09-62.84-232.19-8.31-277.18,59.23c-2.47,.53-2.15,4.14,.37,4.23Z" style="fill:#e5bb9a; fill-rule:evenodd;"/><path d="M438.93,1009.31l126.48,4.53,48.66-10.71c.92-.2,.8-1.53-.14-1.57l-130.37-4.66-44.84,9.93c-1.45,.32-1.26,2.44,.22,2.49Z" style="fill:#f6cd6c; fill-rule:evenodd;"/><path d="M735.54,1011.83l-209.17,36.46-299.92-22.17,220.22-89.6,289.08,67.34c4.32,1.01,4.15,7.22-.22,7.97Z" style="fill:#e5bb9a; fill-rule:evenodd;"/><path d="M728.77,1006.44c-63.63,11.11-129.55,23.55-191.84,32.66-6.58,.94-20.48,4.61-27.48,.02-6.48-4.24-15.23-16.09-16.86-23.69-2.94-13.72-1.48-28.72,4.8-43.68,1.63-3.87,3.62-7.78,6.01-11.22,1.91-2.75,4.73-5.12,7.97-6.02,34.82-9.79,204.27-30.38,204.65-31.22-2.75,6.44-5.26,12.35-7.07,18.4-.27,.84-.54,1.71-.74,2.57-1.1,3.98-1.87,8.07-2.22,12.48-.07,.83-.11,1.68-.19,2.54-.06,1.94-.05,3.93,.02,5.99,.29,7.12,2.37,14.52,5.85,21.33,.35,.77,.75,1.51,1.17,2.25,1.83,3.25,4,6.34,6.46,9.16,.61,.71,1.28,1.41,1.92,2.09,2.32,2.37,4.83,4.52,7.55,6.33Z" style="fill:#fff; fill-rule:evenodd;"/><path d="M500.46,1002.84c-.99-9.98,4.37-34.29,11.98-40.83-53-7.58-295.52-24.28-300.99-21.97-5.65,2.38-8.92,7.72-10.09,11.69-7.25,24.3,1.98,66.52,25.09,74.39l299.92,22.17c-17.19-12.37-23.82-24.28-25.91-45.46Z" style="fill:#eac5a7; fill-rule:evenodd;"/><path d="M262.84,962.61c80.38,4.94,160.64,11.44,241.02,16.27,2.16-7.28,5.13-13.9,8.58-16.87-53-7.58-295.52-24.28-300.99-21.97-5.65,2.38-8.92,7.72-10.09,11.69-.69,2.31-1.23,4.82-1.63,7.44,21.05,1,42.08,2.15,63.11,3.44Z" style="fill:#d0a382; fill-rule:evenodd;"/><path d="M723.22,925.28l-211.85,36.92-299.92-22.15,228.88-39.89,282.67,20.88c2.52,.19,2.7,3.81,.22,4.24Z" style="fill:#eac5a7; fill-rule:evenodd;"/><path d="M490.84,915.48l-124.68,21.73-49.66-3.97c-.93-.08-1-1.42-.07-1.58l128.52-22.39,45.78,3.73c1.48,.1,1.58,2.23,.11,2.49Z" style="fill:#d0a382; fill-rule:evenodd;"/><path d="M861.56,963.63s-1.57,9.89-1.71,12.48l-3.32-.66s.92-10.47,1.46-12.23l3.57,.42Z" style="fill:#556066; fill-rule:evenodd;"/></g><g><path d="M817.43,517.65c-2.87-.11-5.1-2.53-4.99-5.4,.11-2.86,2.53-5.1,5.4-4.99l321.95,12.79c2.86,.11,5.1,2.53,4.99,5.4-.11,2.86-2.53,5.1-5.4,4.99l-321.95-12.79Z" style="fill:#a1775a; fill-rule:evenodd;"/><path d="M817.49,568.85c-1.91-.07-3.4-1.69-3.32-3.6,.07-1.92,1.69-3.4,3.6-3.33l321.95,12.79c1.91,.08,3.4,1.69,3.32,3.6-.07,1.91-1.69,3.4-3.6,3.32l-321.95-12.79Z" style="fill:#e5bb9a; fill-rule:evenodd;"/><path d="M817.49,621.79c-1.91-.08-3.4-1.69-3.32-3.6,.07-1.91,1.69-3.4,3.6-3.32l321.95,12.79c1.91,.07,3.4,1.69,3.32,3.6-.07,1.91-1.69,3.4-3.6,3.32l-321.95-12.79Z" style="fill:#e5bb9a; fill-rule:evenodd;"/><path d="M817.49,674.73c-1.91-.08-3.4-1.69-3.32-3.6,.07-1.91,1.69-3.4,3.6-3.32l221.58,8.8c1.92,.08,3.4,1.68,3.33,3.6-.08,1.91-1.69,3.4-3.6,3.32l-221.58-8.8Z" style="fill:#e5bb9a; fill-rule:evenodd;"/></g><g><path d="M817.43,1156.91c-2.87-.11-5.1-2.53-4.99-5.4,.11-2.86,2.53-5.1,5.4-4.99l321.95,12.79c2.86,.11,5.1,2.53,4.99,5.4-.11,2.87-2.53,5.1-5.4,4.99l-321.95-12.79Z" style="fill:#a1775a; fill-rule:evenodd;"/><path d="M817.49,1208.11c-1.91-.07-3.4-1.69-3.32-3.59,.07-1.92,1.69-3.4,3.6-3.33l321.95,12.79c1.91,.08,3.4,1.69,3.32,3.6-.07,1.91-1.69,3.4-3.6,3.33l-321.95-12.8Z" style="fill:#e5bb9a; fill-rule:evenodd;"/><path d="M817.49,1261.05c-1.91-.07-3.4-1.68-3.32-3.59,.07-1.92,1.69-3.4,3.6-3.33l321.95,12.79c1.91,.08,3.4,1.68,3.32,3.6-.07,1.91-1.69,3.4-3.6,3.33l-321.95-12.8Z" style="fill:#e5bb9a; fill-rule:evenodd;"/><path d="M817.49,1313.98c-1.91-.07-3.4-1.69-3.32-3.59,.07-1.92,1.69-3.4,3.6-3.33l221.58,8.8c1.92,.08,3.4,1.68,3.33,3.6-.08,1.91-1.69,3.4-3.6,3.32l-221.58-8.8Z" style="fill:#e5bb9a; fill-rule:evenodd;"/></g><g><polygon points="1667.4 861.08 1897.73 853.36 1897.73 1041.35 1667.4 1049.08 1667.4 861.08" style="fill:#f6dcc5; fill-rule:evenodd;"/><path d="M1772.32,912.33l22.38,41.31,1.31,2.4,10.23-18.89,15.67,28.89,15.66,28.89h-110.01l22.38-41.29,22.38-41.31h0Zm27.52-12.55c-5.86,0-10.6,4.75-10.6,10.61s4.75,10.6,10.6,10.6,10.61-4.75,10.61-10.6-4.75-10.61-10.61-10.61Z" style="fill:#a1775a; fill-rule:evenodd;"/></g><g><path d="M1891.64,494.03c2.86-.11,5.28,2.12,5.4,4.99,.1,2.86-2.13,5.28-5,5.4l-613.24,26.03c-2.88,.11-5.29-2.12-5.4-4.99-.12-2.87,2.12-5.29,4.99-5.4l613.25-26.03Z" style="fill:#a1775a; fill-rule:evenodd;"/><path d="M1600.41,561.93c1.92-.08,3.52,1.41,3.6,3.33,.08,1.91-1.41,3.52-3.33,3.6l-321.95,12.79c-1.92,.08-3.52-1.41-3.61-3.32-.07-1.91,1.41-3.52,3.34-3.6l321.95-12.79Z" style="fill:#e5bb9a; fill-rule:evenodd;"/><path d="M1744.59,608.98c1.92-.08,3.52,1.41,3.6,3.33,.07,1.91-1.41,3.52-3.33,3.6l-466.13,18.67c-1.92,.08-3.52-1.41-3.61-3.32-.07-1.91,1.41-3.52,3.34-3.6l466.13-18.68Z" style="fill:#e5bb9a; fill-rule:evenodd;"/><path d="M1637.76,668.78c1.91-.06,3.51,1.44,3.57,3.35,.06,1.91-1.45,3.51-3.35,3.57l-357.67,11.74c-1.92,.06-3.51-1.44-3.57-3.36-.07-1.91,1.44-3.51,3.35-3.57l357.67-11.75Z" style="fill:#e5bb9a; fill-rule:evenodd;"/><path d="M1892.31,549.17c1.91-.08,3.52,1.41,3.6,3.33,.08,1.91-1.42,3.52-3.33,3.6l-249.92,9.93c-1.92,.07-3.52-1.42-3.6-3.33-.07-1.91,1.42-3.52,3.34-3.6l249.91-9.92Z" style="fill:#e5bb9a; fill-rule:evenodd;"/><path d="M1888.87,603.6c1.91-.06,3.51,1.45,3.57,3.36,.06,1.91-1.44,3.51-3.35,3.57l-107.81,3.72c-1.92,.06-3.51-1.44-3.57-3.35-.07-1.91,1.44-3.51,3.35-3.57l107.81-3.73Z" style="fill:#e5bb9a; fill-rule:evenodd;"/></g><g><path d="M1600.34,868.5c2.88-.11,5.29,2.12,5.4,4.99,.12,2.87-2.12,5.29-4.99,5.4l-321.94,12.79c-2.88,.11-5.29-2.12-5.4-4.99-.12-2.87,2.12-5.29,4.99-5.4l321.95-12.79Z" style="fill:#a1775a; fill-rule:evenodd;"/><path d="M1600.41,923.17c1.92-.07,3.52,1.41,3.6,3.33,.08,1.92-1.41,3.52-3.33,3.6l-321.95,12.78c-1.92,.08-3.52-1.41-3.61-3.32-.07-1.91,1.41-3.52,3.34-3.6l321.95-12.79Z" style="fill:#e5bb9a; fill-rule:evenodd;"/><path d="M1600.41,976.11c1.92-.08,3.52,1.41,3.6,3.33,.08,1.91-1.41,3.52-3.33,3.6l-321.95,12.78c-1.92,.08-3.52-1.41-3.61-3.32-.07-1.91,1.41-3.52,3.34-3.6l321.95-12.79Z" style="fill:#e5bb9a; fill-rule:evenodd;"/><path d="M1503.55,1029.04c1.91-.08,3.52,1.41,3.59,3.32,.08,1.91-1.41,3.52-3.32,3.6l-221.59,8.81c-1.91,.07-3.52-1.41-3.59-3.33-.08-1.92,1.41-3.52,3.32-3.6l221.59-8.8Z" style="fill:#e5bb9a; fill-rule:evenodd;"/></g><g><path d="M1891.64,1146.53c2.86-.11,5.28,2.13,5.4,4.99,.1,2.87-2.13,5.29-5,5.4l-613.24,26.04c-2.88,.11-5.29-2.12-5.4-5-.12-2.86,2.12-5.28,4.99-5.4l613.25-26.03Z" style="fill:#a1775a; fill-rule:evenodd;"/><path d="M1600.41,1214.43c1.92-.08,3.52,1.41,3.6,3.33,.08,1.91-1.41,3.52-3.33,3.59l-321.95,12.8c-1.92,.07-3.52-1.42-3.61-3.33-.07-1.91,1.41-3.52,3.34-3.6l321.95-12.79Z" style="fill:#e5bb9a; fill-rule:evenodd;"/><path d="M1744.59,1261.49c1.92-.08,3.52,1.41,3.6,3.32,.07,1.91-1.41,3.52-3.33,3.6l-466.13,18.67c-1.92,.08-3.52-1.41-3.61-3.33-.07-1.91,1.41-3.52,3.34-3.59l466.13-18.67Z" style="fill:#e5bb9a; fill-rule:evenodd;"/><path d="M1637.76,1321.29c1.91-.06,3.51,1.44,3.57,3.35,.06,1.91-1.45,3.51-3.35,3.57l-357.67,11.74c-1.92,.06-3.51-1.44-3.57-3.35-.07-1.92,1.44-3.51,3.35-3.57l357.67-11.75Z" style="fill:#e5bb9a; fill-rule:evenodd;"/><path d="M1892.31,1201.67c1.91-.08,3.52,1.41,3.6,3.32,.08,1.92-1.42,3.52-3.33,3.6l-249.92,9.93c-1.92,.07-3.52-1.41-3.6-3.33-.07-1.92,1.42-3.52,3.34-3.6l249.91-9.92Z" style="fill:#e5bb9a; fill-rule:evenodd;"/><path d="M1888.87,1256.1c1.91-.06,3.51,1.44,3.57,3.35,.06,1.92-1.44,3.51-3.35,3.57l-107.81,3.73c-1.92,.06-3.51-1.44-3.57-3.35-.07-1.91,1.44-3.51,3.35-3.57l107.81-3.73Z" style="fill:#e5bb9a; fill-rule:evenodd;"/></g><g><path d="M752.37,1402.31l.23-6.62c.46-13.66,12.02-24.46,25.69-24l3.51,.12,.14-4.14-10.58-.36c-.44-.02-.8-.39-.78-.83l.17-4.86c.01-.44,.39-.79,.83-.78l168.14,5.71c.44,.02,.8,.39,.78,.83l-.17,4.86c-.01,.44-.39,.79-.83,.78l-151.55-5.15-.14,4.14,42.23,1.44c-13.66-.47-25.22,10.34-25.69,24l-.22,6.62c-.47,13.66,10.33,25.23,24,25.69l-51.76-1.76c-13.66-.47-24.46-12.03-24-25.69Z" style="fill:#a1775a; fill-rule:evenodd;"/><path d="M804.13,1404.07l.22-6.62c.47-13.66,12.03-24.47,25.69-24l498.93,16.94c1.44,.05,2.85,.23,4.22,.51-11.74,1.63-19.47,11.61-19.89,23.83l-.23,6.63c-.41,12.21,6.64,22.7,18.23,25.12-1.38,.2-2.81,.26-4.25,.21l-498.92-16.94c-13.66-.47-24.46-12.03-24-25.69Z" style="fill:#e5bb9a; fill-rule:evenodd;"/><path d="M1394.56,1420.5l-35.36-17.09-26.52-12.81c-11.18,2.36-19.8,12.13-20.21,24.03l-.23,6.77c-.4,11.59,7.12,21.69,17.66,25.09l28.2-11.34,36.45-14.66Z" style="fill:#e6e7e8; fill-rule:evenodd;"/><path d="M1376.87,1411.96c-.24,5.45-.38,10.72-.42,15.82l18.1-7.28-17.69-8.55Z" style="fill:#a1775a; fill-rule:evenodd;"/><path d="M752.5,1398.51l.1-2.83c.46-13.66,12.02-24.46,25.69-24l3.51,.12-.09,2.83-3.52-.12c-13.66-.46-25.22,10.34-25.69,24h0Zm18.15-34.09l.1-2.8c.01-.44,.39-.79,.83-.78l168.14,5.71c.44,.02,.8,.39,.78,.83l-.09,2.81c0-.43-.34-.8-.78-.82l-168.14-5.71c-.43,0-.81,.32-.83,.76h0Zm17.16,7.59l42.23,1.44,498.93,16.94c1.09,.04,2.16,.15,3.21,.32,.16-.03,.33-.08,.5-.11l26.52,12.81,17.68,8.54,17.69,8.55-35.46-14.26-23.58-11.4c-2.95-1.42-6.38-1.61-9.67-1.73l-495.9-16.84-42.24-1.44,.1-2.83Z" style="fill:#231f20; fill-rule:evenodd; opacity:.19; stroke:#223f81; stroke-miterlimit:2.61; stroke-width:.22px;"/></g><path d="M436.19,940.57c50.65,0,91.95-3.45,91.95-7.68s-41.3-7.66-91.95-7.66-91.95,3.44-91.95,7.66,41.31,7.68,91.95,7.68Z" style="fill:#a1775a; fill-rule:evenodd;"/><g><path d="M1683.99,1434.73c9.73-3.42,10.51-8.43,15.75-10.88,5.28-2.47,5.87-6.86,.71-11.63-3.81,3.05-8.54,6.79-11.05,4.81-1.67-1.33-7.34-1.23-8.46,.69-4.95,11.49-11.81,7.85-13.17,13.07-.15,6.95,11.75,5.51,16.21,3.93Z" style="fill:#0e2952; fill-rule:evenodd;"/><path d="M1600.49,1435.08c17.94-.29,31.36-.5,37.57-2.46,6.68-2.11,5.3-6.19,1.46-12.71-16.92,7.78-12.42-1.6-20.32-.41-5.57,4.48-13.8,7.47-24.7,9-4.61,3.4-2.74,6.43,5.99,6.58Z" style="fill:#0e2952; fill-rule:evenodd;"/><path d="M1662.52,999.48c-2.87,.2-7.39-.35-8.19-1.36-3.05-3.88-5.17-7.92-5.94-10.46,.59-1.69,1.21-3.84,1.86-6.43,11.04-7.5,12.55-13.05,4.52-16.65-1.61,.9-3.62,3.7-6.02,8.38-1.92-.07-3.36-1.06-4.35-2.93,2.28-7.9,3.76-14.32,4.44-19.25-5.44-8.09-18.16-9.24-35.02-7.06-.77,4.49-1.42,9.23-1.92,14.26-2.99,2.74-2.6,12.92,.15,24.65-1.37,6.67,2.75,10.32,12.35,10.92,.14,2.37-.08,5.27-.23,5.6-.24,.51-1.1,1-2.27,1.42h0c-.32,11.01,13.21,10.65,40.61-1.09Z" style="fill:#f9af79; fill-rule:evenodd;"/><path d="M1613.83,943.72c16.86-2.19,29.58-1.03,35.02,7.06-.68,4.94-2.16,11.35-4.44,19.25,.99,1.87,2.43,2.86,4.35,2.93,2.4-4.67,4.41-7.47,6.03-8.38,8.03,3.6,6.51,9.15-4.53,16.66-.66,2.58-1.28,4.72-1.86,6.42,9.93-2.23,18.25-11.12,19.42-14.96,11.59-22.84-1.34-32.49-8.26-36.01-3.06-22.62-35.91-2.63-52.38-13.53-6.54,9.04,1.55,20.37,6.65,20.57Z" style="fill:#20386f; fill-rule:evenodd;"/><path d="M1512.69,1039.54c8.34,35.71,22.99,63.42,43.95,83.14,7.55-2.29,14.25-7.46,20.1-15.49-.31,25.83,.33,51.54,1.93,77.12,15.29,7.26,35.61,6.78,60.93-1.4l10.28-12.65c2.63-.51,8.63,2.4,11.5,6.84,24.05-18.35,40.26-38.08,49.83-57.68-2.58-42.1-8.3-75.33-17.16-99.66-4.48-6.88-14.99-13.65-31.54-20.3-27.4,11.75-40.95,12.1-40.61,1.09-8.06,2.65-18.76,7.33-32.08,14.04-11.11,8.44-20.57,31.32-28.38,68.61-12.71-15.93-25.91-32.82-39.57-50.67-3.03,.87-6.09,3.2-9.17,7h0Zm142.73,119.3c-7.97-26.21-3.58-58.55,13.21-97.03,4.22,18.99,8.78,37.67,13.69,56.05-5.7,2.71-14.66,16.37-26.89,40.98Z" style="fill:#6d96ce; fill-rule:evenodd;"/><path d="M1658.4,1193.03c-3.88-.31-10.14-3.68-18.79-10.11-25.32,8.19-45.63,8.66-60.93,1.4-2.72,43.07,7.86,88.23,21.3,138.55,13.16,22.1,12.6,37.63,19.61,88.61,3.89,2.78,10.32,2.38,19.29-1.21,2.85-43.46,.88-72.24-10.39-88.46,1.76-14.58-2.85-50.4-3.07-72.9,8.2,18.29,13.84,43.01,24.54,67.96,13.01,30.38,22.08,62.9,28.94,92.57,7.26,1.4,14.07,.58,20.43-2.49-7.29-48.76-15.38-82.32-24.25-100.67,.34-47.95-4.22-91-13.69-129.18-1.76,4.51-2.77,9.8-2.99,15.92Z" style="fill:#20386f; fill-rule:evenodd;"/><path d="M1639.61,1182.92c8.65,6.43,14.91,9.8,18.79,10.11,.22-6.11,1.23-11.4,2.99-15.92-2.87-4.44-8.87-7.35-11.5-6.84l-10.28,12.65Z" style="fill:#f9af79; fill-rule:evenodd;"/><path d="M1576.74,1107.2c.83-25.08,2.84-45.65,6.03-61.69-8.11,34.07-15.97,56.68-23.59,67.83-4.81-.15-10.9-3-18.28-8.55,4.77,6.56,10.02,12.54,15.74,17.91,7.55-2.29,14.25-7.46,20.1-15.49Z" style="fill:#466fb5; fill-rule:evenodd;"/><path d="M1649.89,1170.27c1.46-3.65,3.31-7.46,5.53-11.42-7.97-26.21-3.58-58.55,13.21-97.03-24.41,34.69-31.32,71.67-20.77,110.94l2.03-2.49Z" style="fill:#466fb5; fill-rule:evenodd;"/><path d="M1635.49,991.22c-2.69,1.33-6.38,2.11-11.08,2.32,.1,1.59,.03,3.42-.07,4.55,4.71-.91,8.43-3.2,11.15-6.88Z" style="fill:#ed7d57; fill-rule:evenodd;"/><path d="M1637.82,1420.66c-.9-2.96-1.24-6.16-1.02-9.59-6.84,2.46-12.07,2.89-15.68,1.29,.19,2.55-.1,4.88-.87,7.04,6.23-.21,3.39,7.34,17.57,1.26h0Zm45.24-4.2c2.15-.57,5.21-.32,6.35,.59,2.25,1.77,6.26-1.03,9.81-3.82-.61-1.69-1.12-3.52-1.51-5.53-4.28,1.79-8.76,2.59-13.44,2.4,.07,2.55-.33,4.66-1.21,6.37Z" style="fill:#f9af79; fill-rule:evenodd;"/><path d="M1658.65,1199.15c-.27-2.21-.36-4.25-.25-6.12-3.88-.31-10.14-3.68-18.79-10.11-2.05,.66-4.07,1.28-6.06,1.84,6.08,6.33,14.45,11.12,25.11,14.39Z" style="fill:#0e2952; fill-rule:evenodd;"/><path d="M1464.99,1003.14l6.8-14.82c36.49,16.74,45.43,20.83,81.92,37.57,2.04,.94,2.95,3.36,2.01,5.4l-3.4,7.4c-.93,2.04-3.36,2.94-5.4,2.01-36.5-16.73-45.43-20.84-81.93-37.57Z" style="fill:#e5bb9a; fill-rule:evenodd;"/><polygon points="1471.79 988.32 1464.99 1003.14 1448.31 986.52 1471.79 988.32" style="fill:#f9af79; fill-rule:evenodd;"/><polygon points="1544.25 1027.53 1542.03 1032.38 1467.28 998.15 1469.5 993.31 1544.25 1027.53" style="fill:#a1775a; fill-rule:evenodd;"/><path d="M1546.51,1022.59l-6.79,14.81,7.2,3.3c2.03,.94,4.47,.03,5.4-2.01l3.4-7.4c.94-2.04,.03-4.47-2.01-5.4l-7.2-3.29Z" style="fill:#a1775a; fill-rule:evenodd;"/><path d="M1454.46,992.65c4.41-.23,5.19-2.06,2.37-5.48l-8.52-.65,6.15,6.13Z" style="fill:#a1775a; fill-rule:evenodd;"/><path d="M1521.87,1032.55c-.14-7.16-3.97-8.91-4.76-12.84-3.29,1.44-4.14,4.11-2.54,8.04-1.51-1.21-2.99-2.52-4.45-3.92-4.78-2.19-8.52-3.91-11.21-5.14,1.64,4.33,3.93,9.34,6.88,15,1.75,2.76,4.38,2.24,7.69,4.93,2.82-3.26,5.62-5.28,8.4-6.07Z" style="fill:#f9af79; fill-rule:evenodd;"/><path d="M1634.72,962.22c1.34,.16,3-4.99-.25-5.4-1.75-.2-1.93,5.12,.25,5.4Z" style="fill:#20386f; fill-rule:evenodd;"/><path d="M1615.47,960.91c-1.34-.16-1.78-5.56,1.47-5.16,1.74,.2,.73,5.44-1.47,5.16Z" style="fill:#20386f; fill-rule:evenodd;"/><path d="M1633.89,952.01c-2.17-.18-2.32,1.61-.8,2.28,.44,.2,9,3,8.67,2.41-.61-1.21-3.77-4.33-7.87-4.69Z" style="fill:#20386f; fill-rule:evenodd;"/><path d="M1619.55,950.79c2.16,.24,1.97,2.03,.36,2.38-.76,.17-9.48,1.23-8.87,.54,1.01-1.12,4.56-3.39,8.51-2.93Z" style="fill:#20386f; fill-rule:evenodd;"/><path d="M1616.35,967.06c2.83,4.15,3.8,2.08,2.6,1.4-4.03-2.21,.96-1.44,5.41-7.93,.45-.68-.32-1.19-.77-.68-.32,.36-1.31,1.78-1.68,2.14-4.46,4.42-6.48,3.74-5.57,5.07Z" style="fill:#ed7d57; fill-rule:evenodd;"/><path d="M1616.46,976.28c6.29,12.05,13.07,1.24,11.2,.92-9.51-1.62-11.97-2.38-11.2-.92Z" style="fill:#fff; fill-rule:evenodd;"/></g><g><path d="M554.93,500.5s10.07-11.89,11.78-12.51c1.72-.63,9.8,.43,11.51,1.98,1.69,1.55,1.96,7.67,1.03,9.09-.94,1.43-4.43-.11-6.01,.75-1.57,.86-2.55,1.99-3.49,2.83-1.79,1.61-5.87,4.18-5.87,4.18l-8.94-6.33Z" style="fill:#f9af79; fill-rule:evenodd;"/><path d="M454.72,518.92s57.21,13.01,65.56,8c8.34-5.02,34.65-26.42,34.65-26.42l10.6,6.91s-17.5,27.81-30.4,38.86c-12.9,11.06-39.38,19.14-39.38,19.14l-41.03-46.49Z" style="fill:#223f81; fill-rule:evenodd;"/><path d="M455.11,511.97l19.89,37.75,4.75,.34,2.14,6.02,19.94,60.1s11.04-76.36-46.73-104.22Z" style="fill:#172b57; fill-rule:evenodd;"/><path d="M488.29,545.35s22.02,81.12,24.13,158.53c0,0-18.24,6.37-46.92,1.33-28.81-5.06,22.8-159.85,22.8-159.85Z" style="fill:#20386f; fill-rule:evenodd;"/><path d="M387.98,930.85h-19.78c-2.49-1.34-4.71-4.44-5.41-9.06-.96-6.37-8.1-9.86-9.65-15.06-1.55-5.21,6.37-12.55,6.37-12.55l1.33-1.71,1.37-1.77,13.14,3.09s.32,3.13,.52,7.12c.14,2.87,.22,6.2,.06,9.11-.39,6.94,1.94,14.43,8.11,15.79,4.57,1,4.37,3.7,3.94,5.05Z" style="fill:#0e2952; fill-rule:evenodd;"/><path d="M502.79,930.85h-45.24c-2.17-2.66-1.37-12.44-1.04-15.64,.07-.65,.12-1.02,.12-1.02,0,0,15.45-12.36,17.57-2.89,.06,.29,.14,.58,.23,.87,2.66,8.85,14.66,12.87,21.58,13.99,4.51,.73,6.17,3.07,6.79,4.7Z" style="fill:#0e2952; fill-rule:evenodd;"/><path d="M494.18,678.32s-2.35,29.27-5.11,64.45c-3.75,47.79-8.26,106.5-8.7,117.61-.78,19.32-3.86,50.21-3.86,50.21,0,0-7.33,7.34-22.01,4.24,0,0-13.07-44.09-16.82-90.75-.06-.77-.11-1.54-.17-2.31-3.48-47.49-8.88-147.51-8.88-147.51l65.55,4.05Z" style="fill:#223f81; fill-rule:evenodd;"/><path d="M494.18,678.32s-2.35,29.27-5.11,64.45l-51.39,81.31c-.06-.77-.11-1.54-.17-2.31-3.48-47.49-8.88-147.51-8.88-147.51l65.55,4.05Z" style="fill:#20386f; fill-rule:evenodd;"/><path d="M483.46,681.8s-42.28,106-70.08,155.81c-27.8,49.81-36.49,63.72-36.49,63.72,0,0-15.92-6.38-17.37-10.72,0,0,10.63-96.16,29.24-119.61,10.52-13.25,22.88-53,23.46-66.9,.58-13.9,3.76-41.41,3.76-41.41l67.48,19.12Z" style="fill:#223f81; fill-rule:evenodd;"/><path d="M472.92,527.28c-16.52,5.21-45.1-8.86-45.1-8.86,0,0,15.23-11.44,14.43-35.21l12.78,10.29,8.68,6.99s-.04,4.12-.98,11.35c-.17,1.31-.38,2.74-.62,4.26-.19,1.21,.34,2.44,1.39,3.08,6.01,3.73,9.42,8.09,9.42,8.09Z" style="fill:#f9af79; fill-rule:evenodd;"/><path d="M496,680.76c-.49,.42-1.08,.66-1.74,.66-6.2-.09-24.3,3.36-39.6,1.79-12.92-1.24-24.34-5.06-36.61-10.56-1.63-.73-5.37-2.73-5.29-4.55,.05-2,.25-4.89,.5-8.53,.86-12.66,2.37-34.44,.9-59.57-.26-4.67-.4-9.31-.42-13.89-.13-34.06,6.63-64.01,20.19-74.15,0,0,9.46,5.31,16.01,7.4,6.41,2.05,9.72,1.64,13.05-.57,0,0,6.48,3.22,9.24,6.24,6.42,6.99,11.43,16.27,14.73,29.59,2.82,11.34,5.45,27.86,6.37,49.04,.4,9.6,3.07,76.75,2.66,77.09Z" style="fill:#fff; fill-rule:evenodd;"/><path d="M401.97,696.54c41.7,26.15,75.72,12.89,75.72,12.89,6.1-47.72,2.72-105.3,1.93-119.35-2.02-61.65-45.69-78.13-45.69-78.13l-18.18,56.27-2.7,25.03-4.86,45.23-6.23,58.05Z" style="fill:#20386f; fill-rule:evenodd;"/><path d="M463.72,500.5s-.04,4.12-.98,11.35c-9.62-1.65-20.53-17.19-20.53-17.19,4.9-1.41,9.18-1.66,12.83-1.15l8.68,6.99Z" style="fill:#ed7d57; fill-rule:evenodd;"/><path d="M473.52,504.69s-33.32,5.54-36.45-15.27c-3.13-20.8-9.54-34.1,11.61-38.52,21.14-4.41,26.48,2.9,29.21,9.59,2.74,6.69,4.22,42.22-4.37,44.19Z" style="fill:#f9af79; fill-rule:evenodd;"/><path d="M436.37,487.7c-1.03,.96,4.09-.84,3.54-5.55-.55-4.71-.54-10.86,3.29-9.72,3.83,1.15,4.02,4.21,5.6,2.42,1.58-1.79,1.6-9.33,12.99-9.86,11.4-.53,18.21,1.86,23.52-.47,5.29-2.33,10.65-11.03,10.65-11.03,0,0-6.57,3.55-8.86,4.46,0,0,6.65-10.51-3.58-18.8-10.22-8.29-20.66-2.86-26.59-2.5-13.05,.79-32.86,7.19-37.12,15.77-4.27,8.57,11.34,21.14,16.57,35.29Z" style="fill:#20386f; fill-rule:evenodd;"/><path d="M408.2,638.49c9.14-23.38,34.67-62.83,34.67-62.83l-29.82,17.6-4.86,45.23Z" style="fill:#20386f; fill-rule:evenodd;"/><path d="M503.65,667.56c3.82-3.58,6.74-8.33,6.74-8.33,0,0-29.23-39.89-31.57-43.99-1.51-2.65-12.88-19.71-15.98-38.71-4.57-27.93-18.81-40.04-29.17-64.35-36.45,31.41-16.47,51.94,21.9,116.31,10.12,17,41.53,43.03,41.53,43.03,0,0,3.57-1.16,6.56-3.96Z" style="fill:#223f81; fill-rule:evenodd;"/><path d="M433.94,511.97l19.9,37.75,10.21-3.71-3.32,10.07,19.95,60.1s11.03-76.36-46.75-104.22Z" style="fill:#0e2952; fill-rule:evenodd;"/><path d="M462.65,481.29c-1.2,.15-2.7-4.5,.23-4.86,1.57-.18,1.75,4.61-.23,4.86Z" style="fill:#20386f; fill-rule:evenodd;"/><path d="M476.41,479.37c1.21-.15,1.6-5.01-1.33-4.66-1.57,.19-.66,4.91,1.33,4.66Z" style="fill:#20386f; fill-rule:evenodd;"/><path d="M463.41,472.09c1.95-.17,2.08,1.45,.71,2.06-.4,.18-8.11,2.7-7.81,2.17,.55-1.09,3.4-3.91,7.1-4.23Z" style="fill:#20386f; fill-rule:evenodd;"/><path d="M472.72,470.24c-1.95,.22-1.78,1.83-.33,2.16,.69,.15,8.54,1.11,8,.49-.91-1.01-4.11-3.06-7.67-2.65Z" style="fill:#20386f; fill-rule:evenodd;"/><path d="M476.67,487.1c-3.66,2.66-3.86,.6-2.63,.41,4.09-.66-.38-1.52-2.19-8.38-.18-.72,.63-.92,.86-.34,.16,.4,.57,1.91,.77,2.32,2.45,5.11,4.36,5.14,3.19,6Z" style="fill:#ed7d57; fill-rule:evenodd;"/><path d="M475.42,491.23c-5.68,10.87-11.79,1.12-10.11,.83,8.58-1.46,10.8-2.15,10.11-.83Z" style="fill:#fff; fill-rule:evenodd;"/><g><g><path d="M458.18,732l116.35-114.85c-1.29-1.16-2.55-2.36-3.78-3.61-1.23-1.25-2.42-2.52-3.56-3.82l-116.35,114.85c-2.06,2.04-2.11,5.38-.08,7.42h0c2.02,2.05,5.36,2.05,7.42,.01Z" style="fill:#20386f; fill-rule:evenodd;"/><path d="M698.99,615.63c-34.75,34.29-89.98,35.13-125.73,2.77-1.29-1.16-2.54-2.36-3.78-3.61-1.23-1.25-2.42-2.52-3.56-3.82-31.9-36.16-30.35-91.38,4.4-125.68,35.99-35.53,93.98-35.16,129.5,.84,35.53,35.99,35.15,93.98-.84,129.51h0Zm-124.34-5.94c32.71,33.15,86.1,33.49,119.24,.77,33.14-32.72,33.49-86.1,.77-119.25-32.72-33.14-86.1-33.49-119.25-.77-33.14,32.72-33.49,86.1-.77,119.24Z" style="fill:#20386f; fill-rule:evenodd;"/><path d="M693.89,610.47c-33.14,32.72-86.53,32.37-119.24-.77-32.72-33.14-32.37-86.53,.77-119.24,33.15-32.72,86.53-32.37,119.25,.77,32.72,33.14,32.37,86.53-.77,119.25Z" style="fill:#e4e5e5; fill-rule:evenodd; opacity:.46; stroke:#231f20; stroke-miterlimit:2.61; stroke-width:.5px;"/><path d="M652.5,593.08l11.44,36.47c-1.07,.4-2.16,.77-3.24,1.12l-10.33-32.91-35.65-113.61-4.52-14.41c1.09-.33,2.2-.64,3.3-.93l1.69,5.39,37.3,118.88h0Zm21.51,31.98c2.03-1.07,4.03-2.23,5.98-3.48l-18.82-59.96-29.94-95.42c-2.3,.09-4.6,.28-6.9,.56l33.95,108.22,15.72,50.08h0Zm-15.72-50.08c.34-1.35,.68-2.74,1.01-4.17l-1.01,4.17Z" style="fill:#fff; fill-rule:evenodd; opacity:.35;"/></g><path d="M545.56,631.31l6.21,6.29c1.37,1.39,1.16,3.85-.48,5.46l-98.51,97.17c-1.63,1.61-4.09,1.79-5.47,.4l-6.21-6.29c-1.37-1.39-1.16-3.85,.48-5.46l98.51-97.17c1.63-1.61,4.09-1.79,5.47-.4Z" style="fill:#1f438f; fill-rule:evenodd;"/></g><path d="M507.1,661.71s10.91,11.05,11.37,12.81c.47,1.75-1.3,9.69-2.98,11.25-1.69,1.54-7.79,1.26-9.12,.21-1.34-1.06,.5-4.39-.21-6.03-.71-1.64-1.76-2.71-2.51-3.72-1.43-1.92-3.63-6.2-3.63-6.2l7.08-8.32Z" style="fill:#f9af79; fill-rule:evenodd;"/></g><g><path d="M1812.45,501.33c1.25,1.44,1.41,3.04,.79,4.76,0,0,0,.01,0,.02-1.15,3.17-4.94,6.71-9.34,10.25-.57,.46-1.06,.87-1.5,1.25-.11,.1-.23,.2-.34,.3-.08,.08-.18,.16-.26,.23-4.1,3.78-2.55,4.65-9.93,12.33-8.41,8.75-14.2,8.91-15.86,8.12-1.38-.68,1.45-5.32,4.58-10.54,.15-.26,.31-.51,.46-.76,.43-.7,.83-1.4,1.24-2.1,3.68-6.28,2.74-9.23,1.87-18.57-.71-7.6-11.82-42.43-11.82-42.43l16.13-2.77s4.85,27.74,10.2,32c2.86,2.28,6.06,2.31,8.82,4,.19,.11,.38,.23,.56,.36,1.57,1.03,3.17,2.1,4.42,3.54Z" style="fill:#f9af79; fill-rule:evenodd;"/><path d="M1812.45,501.33c1.25,1.44,1.41,3.04,.79,4.76,0,0,0,.01,0,.02-1.4,3.17-5.1,6.69-9.36,10.22-.55,.46-1.05,.89-1.48,1.28-.11,.1-.23,.2-.34,.3-.08,.08-.18,.16-.26,.23-4.1,3.78-2.55,4.65-9.93,12.33-8.41,8.75-14.2,8.91-15.86,8.12-1.38-.68,1.45-5.32,4.58-10.54,1.64-.6,9.24-3.7,15-11.06,5.07-6.46,8.44-14.77,11.9-19.57,.19,.11,.38,.23,.56,.36,1.57,1.03,3.17,2.1,4.42,3.54Z" style="fill:#172b57; fill-rule:evenodd;"/><path d="M1682.47,491.27c-.99,4.97-8.08,4.15-16.01,2.21-7.92-1.93-6.04,.36-17.32-.89-11.27-1.24-14.69-5.45-15.04-7.13-.31-1.49,5.27-2.01,11.24-2.7,.75-.08,1.5-.17,2.26-.27,6.74-.85,11.69-5.2,17.82-8.78,5.8-3.38,14.47-17.19,14.47-17.19l15.46,1.23s-8.11,12.32-11.25,17.69c-1.85,3.15-1.75,7.32-1.52,10.54,.12,1.75,.24,3.54-.12,5.29Z" style="fill:#f9af79; fill-rule:evenodd;"/><path d="M1666.46,493.47c-7.92-1.93-6.04,.36-17.32-.89-11.27-1.24-14.69-5.45-15.04-7.13-.31-1.49,5.27-2.01,11.24-2.7l.05,.12s6.77,4.8,16.15,5.02c7.66,.18,15.76-2.01,21.04-1.92,.12,1.75,.24,3.54-.12,5.29-.99,4.97-8.08,4.15-16.01,2.21Z" style="fill:#172b57; fill-rule:evenodd;"/><path d="M1716.88,264.1s-3.69-9.03-7.74-9.4c-4.06-.37-16.95-2.4-17.88-.56-.92,1.84,0,8.48,2.77,10.87,2.76,2.4,19.9,6.27,19.9,6.27l2.95-7.19Z" style="fill:#f9af79; fill-rule:evenodd;"/><path d="M1741.74,392.36l33.34,89.71s5.12,.49,10.03-.92c4.51-1.3,9.7-4.72,9.7-4.72,0,0-8.27-86.14-23.44-104.05-15.16-17.92-29.63,19.97-29.63,19.97Z" style="fill:#20386f; fill-rule:evenodd;"/><path d="M1873.58,356.08s-95.78-32.39-117.14-25.49c-21.36,6.88-85.5,134.5-85.5,134.5,0,0,1.45,1.92,5.4,3.4,3.67,1.38,12.57,1.29,12.57,1.29,0,0,57.87-49.62,64.77-64.09,6.89-14.47,5.5-13.72,12.39-12.35,6.89,1.38,85.57,12.19,111.64-.06,18.6-19.29,13.74-44.35,13.74-44.35l-17.87,7.15Z" style="fill:#223f81; fill-rule:evenodd;"/><path d="M1815.05,205.41c-1.52-3.16-3.23-8.77-4.08-18.76,.13,.99,1.86,13.6,6.71,20.74,19.92,13.08,58.1,56.75,57.34,65.02,0,0,13.46-22.81,13.69-22.94,0,0,24.81-31.55-4.6-49.61-14.94-9.19-14.86-20.97-14.24-31.21,.62-10.24-4.08-54.32-34.01-42.78,0,0-4.81-2.13-6.96-1.81,0,0,1.76,.34,2.66,1.26-3.46-.2-8.43,.05-12.57,2.4-10.98,6.23-20.79,62.18-3.93,77.7Z" style="fill:#20386f; fill-rule:evenodd;"/><path d="M1818.86,208.04c-.1,.05,9.61,5.09,16.92,3.09,6.88-1.87,11.37-10.78,11.27-10.8-2.91-.57-3.75-4.58-3.68-21.77l-1.32,.25-22.14,4.39s.5,6.96,.51,13.52c.03,5.52-.31,10.74-1.57,11.33Z" style="fill:#f9af79; fill-rule:evenodd;"/><path d="M1819.91,183.19s.5,6.96,.51,13.52c12.39-.34,18.95-11.64,21.63-17.91l-22.14,4.39Z" style="fill:#ed7d57; fill-rule:evenodd;"/><path d="M1844.34,176.4s6.48-10.26,8.05-19.03c1.11-6.26-2.08-29.46-25.4-26.12,0,0-6.78,.66-13.14,4.96-5.06,3.42-12.37,10.8-4.2,31.06l2.12,6.84,32.57,2.29Z" style="fill:#20386f; fill-rule:evenodd;"/><path d="M1815.78,189.4s29.31,.49,29.32-17.77c.03-18.26,3.82-30.49-14.88-31.57-18.71-1.08-22.35,5.88-23.84,11.97-1.49,6.09,1.79,36.77,9.4,37.36Z" style="fill:#f9af79; fill-rule:evenodd;"/><path d="M1816.87,139.62s8.02,21.41,20.33,24.58c12.31,3.17,17.65-.14,17.65-.14,0,0-9.44-7.5-11.4-20.6,0,0-20.54-14.04-26.59-3.85Z" style="fill:#20386f; fill-rule:evenodd;"/><path d="M1818.86,141.36s-5.99,4.78-7.46,9.43c-1.46,4.65-2.11,14.22-4.91,13.89,0,0-6.05-14.55,.75-22.79,7.21-8.73,11.62-.53,11.62-.53Z" style="fill:#20386f; fill-rule:evenodd;"/><path d="M1896.05,356.58c-1.58,4.38-6.43,5.51-12.92,4.75-12.39-1.44-30.79-9.77-44.04-15.51-20.21-8.77-29.4-.54-35.84-6.11-6.43-5.58,7.35-17.98-4.6-75.55-4.05-19.52,21.62-61.39,21.62-61.39,0,0,2.22,12.12,26.77-2.46,.87-.51,10.54,13.8,19.85,31.45,10.26,19.47,20.1,42.99,17.21,55.11-5.51,23.1,16.54,56.95,11.95,69.71Z" style="fill:#6d96ce; fill-rule:evenodd;"/><path d="M1820.27,202.78l-15.13,62.11s-1.89,3.35-4.85,8.13c-6.93,11.21-19.75,30.25-27.97,32.18-4.05,.96-12.68-2.42-22.21-7.23-18.03-9.12-39.35-23.39-39.35-23.39-1.37-8.27,5.82-15.01,5.82-15.01,0,0,43.18,16.23,47.47,16.54,9.34,.67,18.86-44.45,27.6-59.49,6.32-10.87,28.62-13.84,28.62-13.84Z" style="fill:#6d96ce; fill-rule:evenodd;"/><path d="M1896.05,356.58c-1.58,4.38-6.43,5.51-12.92,4.75-8.58-3.74-45.62-18.09-45.19-27.8,.61-14.39,7.12-14.86,2.52-32.61-3.69-14.27,30.53-40.79,35.98-46.56,10.26,19.47,10.55,20.39,7.66,32.51-5.51,23.1,16.54,56.95,11.95,69.71Z" style="fill:#466fb5; fill-rule:evenodd;"/><path d="M1800.29,273.02c-6.93,11.21-19.75,30.25-27.97,32.18-4.05,.96-12.68-2.42-22.21-7.23,6.96,1.8,13.72,1.74,20.29,1.11,7.13-.69,9.19-9.41,20.44-22.51,7.3-8.49,9.1-6.35,9.45-3.55Z" style="fill:#466fb5; fill-rule:evenodd;"/><path d="M1834.6,300.57s-6.2-4.82-12.06-3.68c-5.86,1.15-8.72,5.17-8.49,7.01,.23,1.83,3.33,7,7.8,7.46,4.48,.46,17.23-2.76,17.23-2.76l-4.48-8.03Z" style="fill:#f9af79; fill-rule:evenodd;"/><path d="M1847.05,200.32s23.89,1.48,32.15,13c11.64,16.23,31.86,82.5,26.35,97.66l-72.67-.31s-1.77-8.23,.68-12.2c2.46-3.98,42.26-10.42,44.11-12.26,1.83-1.84-22.97-35.83-22.97-41.35s-7.66-44.55-7.66-44.55Z" style="fill:#6d96ce; fill-rule:evenodd;"/><polygon points="1828.37 327.71 1740.41 327.71 1724.54 272.41 1812.37 272.41 1828.37 327.71" style="fill:#c4d1eb; fill-rule:evenodd;"/><rect x="1740.7" y="325.56" width="115.01" height="2.16" style="fill:#859ac6;"/><path d="M1768.33,299.16c-.55-1.94,.57-3.52,2.51-3.52s3.97,1.58,4.53,3.52c.56,1.94-.56,3.52-2.5,3.52s-3.97-1.57-4.54-3.52Z" style="fill:#859ac6; fill-rule:evenodd;"/><path d="M1828.44,178.95c-5.4,.03-8.38-.16-13.62-.61-2.1-.18,2.21,5.67,13.91,.92,.28-.11,.13-.31-.29-.31Z" style="fill:#eb795b; fill-rule:evenodd;"/><path d="M1831.17,151.56c-2.62,.19-2.47,2.28-.54,2.77,20.62,5.17,7.01-3.27,.54-2.77Z" style="fill:#20386f; fill-rule:evenodd;"/><path d="M1819.81,149.79c2.45,.94,1.7,2.9-.3,2.81-21.23-1.03-5.76-5.16,.3-2.81Z" style="fill:#20386f; fill-rule:evenodd;"/><path d="M1818.94,173.46h-.13c-2.28-.51-3.5-.83-3.92-1.69-.4-.79,0-1.68,.71-3.29,.8-1.77,2.01-4.49,3.05-8.95,.08-.32,.41-.51,.73-.45,.31,.08,.53,.4,.45,.73-1.07,4.57-2.32,7.34-3.13,9.17-.48,1.06-.88,1.97-.73,2.25,.19,.38,1.8,.74,3.1,1.03,.32,.08,.53,.4,.46,.73-.07,.27-.31,.46-.6,.46Z" style="fill:#eb795b; fill-rule:evenodd;"/><path d="M1813.27,162.74c-1.49-.16-2.05-5.96,1.56-5.57,1.93,.2,.88,5.83-1.56,5.57Z" style="fill:#20386f; fill-rule:evenodd;"/><path d="M1831.89,165.07c-1.49-.17-2.05-5.96,1.56-5.57,1.93,.2,.89,5.83-1.56,5.57Z" style="fill:#20386f; fill-rule:evenodd;"/></g></g><g><path d="M1159.5,194.49c-33.83-18.67-36.83-72.49-1.2-90.57,4.37-2.22,10.9-5.66,15.76-6.36,2.47-.36,18.62,1.72,18.44,5.35,.6-12.34,9.75-22.86,20.41-29.12,26.75-15.73,64.96-7.46,82.81,17.94,17.85,25.39,12.7,64.15-11.17,83.99,9.48-4.24,21.64-1.43,28.31,6.54,6.66,7.98,7.25,20.45,1.38,29.03,12.54-7.26,30.47-2.81,38.18,9.46,19.02-4.11,39.25-2.42,57.34,4.77,4.03,1.6,8.14,3.6,10.73,7.08,2.6,3.48,3.19,8.81,.25,12-1.89,2.05-4.75,2.82-7.49,3.37-10.43,2.08-21.16,2.14-31.81,2.19-49.75,.24-99.53,.48-149.28,.71-5.01,.02-10.2,.01-14.77-2.05-4.56-2.06-8.34-6.77-7.64-11.74-7.29,5.76-15.86,10.22-25.09,11.22-9.22,1-19.12-1.81-25.39-8.66-29,7.86-59.63,9.67-89.36,5.31-4.89-.72-9.92-1.67-14.05-4.39-4.13-2.72-7.18-7.66-6.27-12.51,.92-4.88,5.57-8.37,10.42-9.43,4.85-1.06,9.89-.17,14.75,.82-1.91-9.47,3.82-19.27,11.9-24.56,8.09-5.29,18.06-6.82,27.71-7.12,15.29-.48,30.66,1.82,45.14,6.75Z" style="fill:#fff; fill-rule:evenodd;"/><path d="M1060,218.6c-4.85,1.06-9.5,4.55-10.42,9.43-.91,4.86,2.14,9.79,6.27,12.51,4.13,2.72,9.16,3.66,14.05,4.39,29.73,4.37,60.36,2.55,89.36-5.31,6.27,6.85,16.17,9.66,25.39,8.66,9.23-1,17.8-5.46,25.09-11.22-.7,4.97,3.08,9.68,7.64,11.74,4.57,2.06,9.76,2.07,14.77,2.05,49.75-.24,99.52-.48,149.28-.71,10.66-.05,21.38-.11,31.81-2.19,2.74-.54,5.6-1.32,7.49-3.37,2.94-3.2,2.36-8.53-.25-12-.96-1.29-2.14-2.37-3.43-3.31-15.13,4.41-31.83,2.82-47.56,.01-5.38-.96-11.11-2.26-14.81-6.29-.64-.7-1.17-1.52-1.58-2.4-.23,.05-.47,.08-.7,.14-7.71-12.27-25.63-16.72-38.18-9.46,5.87-8.58,5.28-21.04-1.38-29.03-6.66-7.98-18.83-10.79-28.31-6.54,17.83-14.83,25.21-40.22,20.36-62.71-2.29,15.48-7.68,30.57-17.29,42.83-11.35,14.49-29.11,24.54-47.51,24.03-2.48-18.94-14.74-36.32-31.75-45.01,9.21,7.04,9.46,22.37,1.57,30.86-7.9,8.51-21.68,9.98-32.12,4.92-10.43-5.06-17.52-15.63-20.26-26.9-4.07-16.76,1.66-30.86,10.42-44.39-3.45,1.37-6.97,3.2-9.67,4.57-35.63,18.08-32.63,71.9,1.2,90.57-3.63-1.23-7.31-2.3-11.03-3.2-12.26,3.23-25.85,5.26-37.96,8.56-12.8,3.48-25.67,11.39-29.55,24.08-1.96-1.62-4.04-3.13-6.22-4.5h0c-4.86-.98-9.9-1.87-14.75-.81Z" style="fill:#f0f3f9; fill-rule:evenodd;"/><path d="M1159.5,194.49c-33.83-18.67-36.83-72.49-1.2-90.57,2.7-1.37,6.23-3.2,9.67-4.57-17.82,8.66-27.05,29.23-27.36,49.04-.17,10.26,1.61,21.15,8.31,28.92,6.04,7,15.4,10.51,24.63,11.07,9.23,.56,18.41-1.54,27.27-4.22-10.47,9.87-28.73,17.29-41.32,10.34Z" style="fill:#e3edf3; fill-rule:evenodd;"/><path d="M1314.24,211.28c5.87-8.58,5.28-21.04-1.38-29.03-6.66-7.98-18.83-10.79-28.31-6.54,7-1.29,13.69,5.31,15.08,12.3,1.4,6.98-1.49,14.2-5.69,19.96-1.75,2.4-3.8,4.66-6.37,6.11-3.92,2.21-8.66,2.31-13.15,2.09-10.29-.5-21.94-3.38-26.67-12.52-.9,7.06,3.93,13.89,10.16,17.34,6.22,3.44,13.57,4.12,20.69,4.27,6.71,.14,13.53-.16,19.96-2.12,6.43-1.96,11.87-6.31,15.68-11.85Z" style="fill:#e3edf3; fill-rule:evenodd;"/><path d="M1420.5,232.58c2.6,3.48,3.19,8.81,.25,12-1.89,2.05-4.75,2.82-7.49,3.37-10.43,2.08-21.16,2.14-31.81,2.19-49.75,.24-99.53,.48-149.28,.71-5.01,.02-10.2,.01-14.77-2.05-4.56-2.06-8.34-6.77-7.64-11.74,7.88,5.55,17.29,6.64,26.93,6.99,11.68,.43,23.49,.42,34.84-2.3,11.34-2.72,22.31-8.4,29.51-17.6,.89,7.63-2.89,15.61-9.37,19.73,33.68-4.14,67.78-.26,101.7-.91,9.88-.19,23.48-1.22,27.13-10.4Z" style="fill:#e3edf3; fill-rule:evenodd;"/><path d="M1209.74,237.07c-7.29,5.76-15.86,10.22-25.09,11.22-9.22,1-19.12-1.81-25.39-8.66-29,7.86-59.63,9.67-89.36,5.31-4.89-.72-9.92-1.67-14.05-4.39-4.13-2.72-7.18-7.66-6.27-12.51,3.97,7.67,14.38,9.32,22.98,10.05,9.91,.84,19.95,.12,29.64-2.13-4.54-.94-8.76-3.35-11.88-6.78,26.52,6.49,55.12,4.12,80.2-6.67-1.06,4.86,1.99,9.97,6.33,12.4,4.34,2.43,9.64,2.57,14.52,1.63,16.17-3.11,29.11-18.46,29.43-34.92,2.6,12.03-1.42,27.83-11.06,35.46Z" style="fill:#e3edf3; fill-rule:evenodd;"/></g><g><path d="M1497.02,283.11c6.74-14.29,27.1-19.98,40.27-11.25,7.6-9.96,20.95-15.17,33.29-13.01,12.34,2.16,23.13,11.6,26.89,23.55,6.66-1.11,14.26,2.14,16.71,8.44,2.43,6.29-2.28,14.69-9.04,14.63-2.21-.03-4.46-.85-6.6-.28-1.72,.46-3.06,1.75-4.41,2.9-16.94,14.5-45.79,11.65-59.56-5.88-9.74,8.49-25.87,8.27-35.37-.47,1.28,1.17-13.29,4.2-14.94,3.94-5.31-.83-11.98-4.04-12.88-9.97-1.86-12.39,17-18.52,25.63-12.61Z" style="fill:#fff; fill-rule:evenodd;"/><path d="M1471.39,295.72c.89,5.92,7.57,9.13,12.88,9.97,1.66,.26,16.22-2.77,14.94-3.94,9.5,8.74,25.63,8.95,35.37,.47,13.77,17.53,42.62,20.38,59.56,5.88,1.34-1.16,2.69-2.44,4.41-2.9,2.14-.57,4.39,.26,6.6,.28,6.76,.06,11.47-8.34,9.04-14.63-2.45-6.29-10.05-9.54-16.71-8.44-1.17-3.74-3.05-7.23-5.43-10.33,.63,7.05-1.62,14.37-6.28,19.71-2.49,2.84-5.62,5.15-9.17,6.43-5.12,1.86-10.75,1.55-16.14,.89-3.63-.45-7.3-1.06-10.54-2.77-3.22-1.71-5.96-4.7-6.51-8.31-.46-3.07,.68-6.16,2.17-8.88,2.26-4.17,5.4-7.87,9.12-10.8-9.95,1.68-18.74,9.01-22.18,18.5-.49,1.34-.91,2.77-1.95,3.75-.85,.8-2.02,1.18-3.14,1.5-5.56,1.57-11.35,2.26-17.12,2.01-4.85-.2-10.25-1.42-12.83-5.52-1.71,2.49-4.2,4.66-7.19,5.12-3,.46-6.43-1.3-7.06-4.26-.51-2.34,.79-4.77,2.65-6.27,.66-.54,3.06-1.39,4.42-2.25-9.1-.76-20.36,5.1-18.9,14.81Z" style="fill:#f0f3f9; fill-rule:evenodd;"/><path d="M1534.58,302.21c13.77,17.53,42.62,20.38,59.56,5.88,1.34-1.16,2.69-2.44,4.41-2.9,2.14-.57,4.39,.26,6.6,.28,6.76,.06,11.47-8.34,9.04-14.63-1.05,4.36-4.98,8.11-9.09,9.88-4.12,1.76-9.05,1.46-12.93-.79-1.37,4.55-5.27,8.02-9.64,9.87-4.37,1.85-9.21,2.27-13.96,2.34-3.29,.05-6.6-.07-9.82-.79-5.52-1.22-10.5-4.12-15.29-7.13-3.9-2.46-8.07-5.49-8.92-10.02-.14,2.38,.17,5.64,.03,8.02Z" style="fill:#e3edf3; fill-rule:evenodd;"/><path d="M1534.58,302.21c-9.74,8.49-25.87,8.27-35.37-.47,1.28,1.17-13.29,4.2-14.94,3.94-5.31-.83-11.98-4.04-12.88-9.97-1.46-9.71,9.8-15.57,18.9-14.81-4.49,1.11-9.09,2.83-11.46,6.8-2.38,3.97-1.91,9.82,1.89,12.46,2.49,1.74,5.8,1.8,8.79,1.34,3.63-.54,7.5-2.02,9.17-5.28,4.33,4.64,10.64,7.06,16.95,7.71,6.32,.65,12.72-.49,18.95-1.73Z" style="fill:#e3edf3; fill-rule:evenodd;"/></g><g><path d="M803.89,136.72c3.72-1.59,8.28-1.02,11.49,1.45-.63-8.29,4.63-16.68,12.36-19.73,7.73-3.05,17.3-.51,22.5,5.97,3.76-12.71,16.03-22.8,29.29-22.74,13.26,.06,25.91,11.26,26.4,24.51,3.61-4.75,10.45-5.35,16.41-5.13,5.94,.21,12.27,.98,16.81,4.83,6.43,5.46,7.05,15.04,6.7,23.47,7.33-3.42,16.77-3.19,22.81,2.19,6.04,5.37,6.8,16.28,.45,21.28-5.33,4.19-12.97,3.14-19.55,1.51-5.57,9.31-14.65,16.7-25.21,19.22-10.55,2.52-22.46-.23-30.16-7.88-5.8,8.18-16.29,12.77-26.23,11.48-9.94-1.29-18.91-8.41-22.43-17.8-6.35,4.38-15.31,4.59-21.87,.52-6.56-4.06-10.35-12.18-9.26-19.83-4.35,3.09-10.8,2.77-14.82-.75-6.99-6.13-3.96-19.03,4.31-22.56Z" style="fill:#fff; fill-rule:evenodd;"/><path d="M827.73,118.43c-7.73,3.05-12.99,11.44-12.36,19.73-3.21-2.46-7.77-3.04-11.49-1.45-8.27,3.54-11.3,16.43-4.31,22.56,4.02,3.51,10.47,3.84,14.82,.75-1.09,7.64,2.7,15.76,9.26,19.83,6.56,4.06,15.52,3.86,21.87-.52,3.52,9.39,12.48,16.51,22.43,17.8,9.94,1.29,20.43-3.3,26.23-11.48,7.69,7.65,19.6,10.4,30.16,7.88,10.56-2.52,19.63-9.91,25.21-19.22,6.58,1.63,14.22,2.68,19.55-1.51,6.35-5,5.59-15.91-.45-21.28-6.04-5.38-15.48-5.61-22.81-2.19,.28-6.84-.07-14.43-3.65-19.97,.32,7.64-1.12,15.34-4.21,22.34-1.4,3.17-3.23,6.31-6.12,8.21-2.44,1.61-5.41,2.18-8.31,2.6-5.68,.81-11.42,1.14-17.15,.97-3.28-.09-7.09-.66-8.74-3.48,6.19-8.77,7.02-21.01,2.08-30.54-4.1,10.73-13.76,19.74-25.19,20.92-11.43,1.17-23.66-7.11-24.93-18.53-1.68,6.48-.27,13.69,3.74,19.06-5.66,1.38-11.74,.97-17.15-1.17-5.04-1.98-9.71-5.77-11.22-10.97-1.56-5.38,.6-11.34,4.41-15.44,2.51-2.7,5.49-4.31,8.59-5.89-3.43-.57-7-.28-10.24,1Z" style="fill:#f0f3f9; fill-rule:evenodd;"/><path d="M968.66,151.52c6.04,5.37,6.8,16.28,.45,21.28-5.33,4.19-12.97,3.14-19.55,1.51-5.57,9.31-14.65,16.7-25.21,19.22-10.55,2.52-22.46-.23-30.16-7.88-5.8,8.18-16.29,12.77-26.23,11.48-9.94-1.29-18.91-8.41-22.43-17.8-6.35,4.38-15.31,4.59-21.87,.52-6.56-4.06-10.35-12.18-9.26-19.83-4.35,3.09-10.8,2.77-14.82-.75,5.57,.16,11.73-1.74,16.66-4.34-.4-2.95,.34-6.03,2.03-8.48-.88,8.2,1.64,16.87,7.42,22.75,5.78,5.88,14.89,8.54,22.7,5.91-.74-3.77-.78-7.68-.12-11.46,3.34,11.69,13.03,21.61,24.92,24.14,11.89,2.52,25.35-3.14,30.95-13.92,.09,4.2-1.05,8.43-3.23,12.02,6.29,3.17,13.92,3.14,20.53,.69,6.6-2.45,12.22-7.15,16.55-12.7,3.84-4.94,6.81-10.89,6.67-17.14,3.24,2.6,5.3,6.61,5.52,10.76,.05,.89,.04,1.86,.62,2.53,.34,.41,.85,.64,1.36,.83,4.86,1.72,10.55-.74,13.54-4.94,2.99-4.2,3.72-9.3,2.95-14.4Z" style="fill:#e3edf3; fill-rule:evenodd;"/></g><g><path d="M617.41,215.36c-8.94,1.09-16.9,7.98-19.25,16.68-7.82-4.6-18.6-3.4-25.22,2.81-4.34,4.08-6.63,11.44-2.69,15.92-5.15,3.77-6.12,12.1-1.97,16.96,4.15,4.86,12.53,5.2,17.06,.69,4.17,7.19,12.03,12.1,20.32,12.69,4.78,.34,10.39-.84,14.69-2.93,1.26-.61,9.13-6.54,7.16-8.56,4.17,4.29,9.51,7.67,15.44,8.52,5.93,.84,12.43-1.18,16.07-5.93,3.64-4.74,3.65-12.24-.66-16.39,4.51-1.91,7.63-6.72,7.54-11.62-.08-4.75-3.82-10.36-8.26-12.26-2.09-.89-14.3-.36-13.83,3.68-.65-5.61-3.52-10.61-7.64-14.26-4.98-4.4-11.8-6.84-18.76-5.99Z" style="fill:#fff; fill-rule:evenodd;"/><path d="M643.81,235.61c-.65-5.61-3.52-10.61-7.64-14.26-4.98-4.4-11.8-6.84-18.76-5.99,4.75,1.81,8.59,5.55,11.97,9.35,3.55,4,6.85,8.29,9,13.19,2.14,4.9,3.06,10.47,1.72,15.64,2.5-5.21,4.38-12.19,3.71-17.93Z" style="fill:#f0f3f9; fill-rule:evenodd;"/><path d="M570.26,250.77c-5.15,3.77-6.12,12.1-1.97,16.96,4.15,4.86,12.53,5.2,17.06,.69,4.17,7.19,12.03,12.1,20.32,12.69,4.78,.34,10.39-.84,14.69-2.93,1.26-.61,9.13-6.54,7.16-8.56,4.17,4.29,9.51,7.67,15.44,8.52,5.93,.84,12.43-1.18,16.07-5.93,3.64-4.74,3.65-12.24-.66-16.39,4.51-1.91,7.63-6.72,7.54-11.63-.08-4.74-3.82-10.36-8.26-12.26-.13-.06-.29-.11-.49-.15,1.63,2.29,2.35,5.2,1.52,7.86-1.19,3.8-6.01,6.24-9.5,4.33,3.24,8.91-2.6,19.99-11.78,22.35,2.19-6.17,.43-13.54-4.31-18.05-2.07,8.31-9.41,15.04-17.87,16.39-8.46,1.34-17.53-2.79-22.07-10.04-4.97,.98-10.74,1.75-14.53-1.6-3.33-2.94-3.75-8.1-2.55-12.38,1.37-4.88,4.31-8.3,8.02-11.1-4.14,.65-8.09,2.43-11.15,5.31-4.34,4.08-6.63,11.44-2.69,15.92Z" style="fill:#f0f3f9; fill-rule:evenodd;"/><path d="M642.95,278.14c5.93,.84,12.43-1.18,16.07-5.93,3.64-4.74,3.65-12.24-.66-16.39,4.51-1.91,7.63-6.72,7.54-11.63-.71,5.37-5.7,9.14-11.12,9.2,2.37,4.57,2.57,10.21,.52,14.94-2.05,4.72-7.4,8.42-12.36,9.81Z" style="fill:#e3edf3; fill-rule:evenodd;"/><path d="M627.51,269.62c1.97,2.02-5.9,7.95-7.16,8.56-4.31,2.09-9.92,3.27-14.69,2.93-8.29-.59-16.15-5.5-20.32-12.69-4.53,4.5-12.91,4.16-17.06-.69-4.15-4.86-3.18-13.19,1.97-16.96-1.25,2.47-1.4,5.43-1.27,8.2,.12,2.76,1.28,5.55,3.43,7.29,2.32,1.88,5.58,2.35,8.47,1.6,2.89-.74,5.4-2.6,7.32-4.88,1.12,5.32,5.17,9.74,10.05,12.16,4.88,2.41,10.49,3,15.92,2.6,2.66-.19,5.34-.62,7.75-1.75,2.41-1.13,4.6-3.89,5.57-6.37Z" style="fill:#e3edf3; fill-rule:evenodd;"/></g></svg>