<?xml version="1.0" encoding="UTF-8"?><svg id="a" xmlns="http://www.w3.org/2000/svg" viewBox="0 0 1930.95 1423.34"><path d="M580.53,228.82H56.43c3.78-15.9,18.05-27.76,35.12-27.76,.85,0,1.63,.03,2.48,.1,8.28-20.27,28.22-34.54,51.41-34.54,10.17,0,19.68,2.74,27.89,7.49,9.97-32.94,40.6-56.92,76.83-56.92,7.36,0,14.53,.98,21.24,2.87,17.53-38.71,56.5-65.65,101.78-65.65,53.69,0,98.46,37.89,109.21,88.39,.91-.03,1.82-.06,2.74-.06,34.34,0,62.75,25.71,66.92,58.94,14.01,2.64,25.22,13.36,28.48,27.14Z" style="fill:#e0e8f5; fill-rule:evenodd;"/><path d="M625.75,401.2H267.49c2.54-10.85,12.32-18.96,24.04-18.96,.52,0,1.11,.03,1.63,.07,5.67-13.85,19.29-23.62,35.19-23.62,6.97,0,13.42,1.89,19.03,5.15,6.84-22.55,27.76-38.93,52.52-38.93,5.02,0,9.9,.68,14.53,1.96,11.99-26.46,38.64-44.86,69.59-44.86,36.69,0,67.31,25.9,74.68,60.41,.59,0,1.24-.03,1.82-.03,23.52,0,42.88,17.56,45.81,40.3,9.58,1.79,17.2,9.12,19.42,18.54Z" style="fill:#e0e8f5; fill-rule:evenodd;"/><path d="M1739.44,215.33c-18.12,0-32.78-14.69-32.78-32.81s14.66-32.81,32.78-32.81,32.84,14.69,32.84,32.81-14.73,32.81-32.84,32.81h0ZM346.73,1001.67H171.51c-94.29,0-171.51,77.22-171.51,171.51H0c0,94.35,77.22,171.51,171.51,171.51H1653.29c152.74,0,277.66-124.98,277.66-277.72h0c0-152.74-124.92-277.66-277.66-277.66h0c-64.58,0-117.42-52.85-117.42-117.39h0c0-64.57,52.84-117.42,117.42-117.42h141.34c67.11,0,122.05-54.93,122.05-122.05h0c0-67.15-54.93-122.08-122.05-122.08h-178.68c-26.2,0-47.57-21.41-47.57-47.54h0c0-26.13,21.37-47.5,47.57-47.5h31.47c18.05,0,32.78-14.76,32.78-32.81h0c0-18.05-14.79-32.81-32.78-32.81h-206.69c-43.53,0-48.35,51.45-158.34,51.45h-254.91c-23.59,0-42.81,19.25-42.81,42.78h0c0,23.56,19.22,42.81,42.81,42.81h41.05c34.14,0,62.03,27.89,62.03,62v.03c0,34.08-27.89,61.97-62.03,61.97h-123.68c-167.01,0-190.6,43.66-219.86,130.49-29.26,86.83-181.22,93.8-181.22,93.8h-207.74c-51.35,0-93.44,42.06-93.44,93.47h0c0,51.35,42.09,93.45,93.44,93.45h10.69c49.46,0,89.92,40.4,89.92,89.92h0c0,49.39-40.47,89.79-89.92,89.79h0Z" style="fill:#e0e8f5; fill-rule:evenodd;"/><path d="M901.26,396.81c56.3,48.29,132.87,82.2,220.71,88.88,11.6-26.33,20.26-53.01,26.2-79.63-76.18-.59-142.51-26.39-190.66-64.61-16.23,19.91-35.06,38.48-56.24,55.35Z" style="fill:#c4d1eb; fill-rule:evenodd;"/><path d="M908.69,396.68c54.28,44.99,126.87,76.7,209.89,83.73,10.04-22.97,17.92-46.26,23.65-69.56-73.31-1.86-137.3-26.75-184.6-63.34-14.4,17.5-30.76,33.95-48.94,49.16Z" style="fill:#8fa3cf; fill-rule:evenodd;"/><path d="M972.28,378.23c5.67,3.58,12.64,4.43,18.7,2.93,29,15.9,61.97,27.89,97.94,34.44,2.8,5.34,8.73,9.51,16.75,10.56,8.08,1.01,16.29,1.79,24.63,2.28-3.52,11.37-7.5,22.71-12.06,33.95-8.86-.75-17.59-1.86-26.2-3.19-8.27-1.3-16.94,0-24.17,3.09-39.62-8.73-75.98-23.29-107.97-42.13-1.24-5.51-5.02-10.78-10.88-14.63-7.82-5.11-15.31-10.49-22.48-16.09,8.73-8.24,17.01-16.81,24.7-25.61,6.78,5.05,13.75,9.84,21.05,14.4Z" style="fill:#c4d1eb; fill-rule:evenodd;"/><path d="M997.05,411.86c-9.45,13.16-6.39,29.62,9.38,36.03,15.71,6.42,36.56-1.11,44.12-15.77,7.69-14.66,.78-29.78-13.03-34.73-13.88-4.89-30.95,1.24-40.47,14.47Z" style="fill:#8fa3cf; fill-rule:evenodd;"/><path d="M1068.85,439.19c-2.8,5.77,.91,11.92,8.73,13.49,7.89,1.6,16.55-2.25,19.03-8.24,2.54-6-1.82-11.73-9.32-13.06-7.5-1.3-15.51,2.05-18.44,7.82Z" style="fill:#8fa3cf; fill-rule:evenodd;"/><path d="M958.93,393.16c-4.11,4.69-2.74,11.63,3.45,15.38,6.19,3.78,14.66,2.61,18.51-2.38,3.78-4.99,1.76-11.73-4.17-15.18-5.93-3.42-13.68-2.51-17.79,2.18Z" style="fill:#8fa3cf; fill-rule:evenodd;"/><path d="M476.47,167.7c56.3,48.29,132.8,82.2,220.7,88.88,11.53-26.33,20.27-53.01,26.2-79.63-76.17-.59-142.57-26.42-190.66-64.61-16.29,19.91-35.06,38.48-56.23,55.35Z" style="fill:#c4d1eb; fill-rule:evenodd;"/><path d="M483.89,167.56c54.28,45,126.81,76.7,209.89,83.73,10.04-22.97,17.92-46.27,23.59-69.56-73.24-1.86-137.23-26.75-184.6-63.34-14.4,17.5-30.69,33.95-48.87,49.16Z" style="fill:#8fa3cf; fill-rule:evenodd;"/><path d="M547.49,149.12c5.67,3.58,12.64,4.43,18.7,2.93,29,15.9,61.97,27.89,97.87,34.44,2.8,5.34,8.8,9.51,16.81,10.52,8.08,1.04,16.29,1.82,24.63,2.31-3.52,11.37-7.56,22.68-12.06,33.95-8.86-.78-17.59-1.86-26.19-3.19-8.34-1.3-16.94,0-24.18,3.09-39.68-8.73-75.98-23.29-107.97-42.13-1.24-5.51-5.02-10.79-10.88-14.63-7.82-5.11-15.31-10.49-22.55-16.1,8.8-8.24,17.01-16.81,24.76-25.61,6.71,5.05,13.75,9.84,21.05,14.4Z" style="fill:#c4d1eb; fill-rule:evenodd;"/><path d="M572.25,182.72c-9.51,13.19-6.39,29.65,9.38,36.03,15.64,6.45,36.49-1.08,44.11-15.74,7.69-14.66,.78-29.78-13.03-34.73-13.88-4.89-30.95,1.24-40.47,14.43Z" style="fill:#8fa3cf; fill-rule:evenodd;"/><path d="M644.06,210.08c-2.87,5.73,.91,11.92,8.73,13.49,7.88,1.6,16.55-2.25,19.03-8.24,2.48-6-1.82-11.73-9.32-13.06-7.49-1.3-15.57,2.05-18.44,7.82Z" style="fill:#8fa3cf; fill-rule:evenodd;"/><path d="M534.13,164.05c-4.1,4.69-2.74,11.63,3.45,15.38,6.19,3.78,14.66,2.61,18.44-2.38,3.84-4.99,1.76-11.73-4.1-15.18-5.93-3.42-13.68-2.51-17.79,2.18Z" style="fill:#8fa3cf; fill-rule:evenodd;"/><path d="M555.83,340.15c-74.09,1.66-153.72,27.5-223.64,81.22,8.99,27.27,20.33,52.98,33.69,76.76,57.15-50.44,123.74-75.52,185.06-79.2-1.17-25.67,.39-52.1,4.89-78.78Z" style="fill:#c4d1eb; fill-rule:evenodd;"/><path d="M550.42,345.23c-70.44,2.7-145.64,27.6-212.17,77.8,7.88,23.82,17.59,46.4,28.87,67.54,55.78-47.57,120.03-71.74,179.72-76.11-.91-22.61,.2-45.81,3.58-69.23Z" style="fill:#8fa3cf; fill-rule:evenodd;"/><path d="M515.37,401.4c-6.58,1.14-12.32,5.11-15.83,10.33-32.19,7.53-64.77,20.59-95.92,39.75-5.67-2.15-12.84-1.27-19.55,3.36-6.65,4.59-13.29,9.51-19.81,14.69-5.02-10.78-9.58-21.93-13.68-33.33,7.1-5.31,14.27-10.36,21.57-15.09,7.1-4.56,12.64-11.31,15.96-18.47,35.32-19.97,72.13-33.4,108.56-40.73,4.56,3.26,10.82,4.69,17.79,3.62,9.25-1.37,18.44-2.38,27.56-3.03-1.04,11.99-1.5,23.88-1.37,35.61-8.34,.72-16.81,1.82-25.28,3.29Z" style="fill:#c4d1eb; fill-rule:evenodd;"/><path d="M474.51,392.9c-1.69-16.13-15.05-26.29-31.02-20.56-15.96,5.7-26.52,25.22-22.35,41.21,4.11,16.06,19.29,22.68,32.91,17.14,13.62-5.6,22.22-21.6,20.46-37.79Z" style="fill:#8fa3cf; fill-rule:evenodd;"/><path d="M402.77,420.52c-1.69-6.19-8.6-8.31-15.51-4.2-6.91,4.04-10.82,12.71-8.67,18.83,2.15,6.13,9.19,7.46,15.7,3.49,6.45-4.01,10.17-11.92,8.47-18.12Z" style="fill:#8fa3cf; fill-rule:evenodd;"/><path d="M515.37,381.36c-.06-6.22-5.73-10.49-12.84-9.12-7.17,1.37-12.71,7.85-12.19,14.11,.52,6.26,6.52,9.9,13.23,8.54,6.71-1.4,11.86-7.27,11.79-13.52Z" style="fill:#8fa3cf; fill-rule:evenodd;"/><path d="M17.66,336.89c56.3,48.25,132.87,82.2,220.77,88.88,11.47-26.33,20.2-53.01,26.13-79.63-76.17-.59-142.51-26.42-190.66-64.61-16.29,19.87-35.06,38.48-56.23,55.36Z" style="fill:#c4d1eb; fill-rule:evenodd;"/><path d="M25.09,336.73c54.28,45.03,126.87,76.7,209.89,83.77,10.04-23,17.92-46.3,23.65-69.56-73.31-1.86-137.3-26.75-184.6-63.34-14.4,17.46-30.76,33.95-48.94,49.13Z" style="fill:#8fa3cf; fill-rule:evenodd;"/><path d="M88.69,318.32c5.67,3.58,12.64,4.43,18.7,2.93,29,15.87,61.97,27.89,97.94,34.41,2.8,5.38,8.73,9.51,16.75,10.56,8.08,1.04,16.29,1.82,24.63,2.31-3.52,11.34-7.56,22.68-12.05,33.95-8.86-.78-17.59-1.86-26.2-3.19-8.28-1.3-16.94,0-24.18,3.1-39.62-8.73-75.98-23.3-107.97-42.13-1.24-5.51-5.02-10.78-10.88-14.63-7.82-5.12-15.31-10.49-22.55-16.13,8.8-8.21,17.07-16.78,24.83-25.61,6.71,5.05,13.68,9.87,20.98,14.43Z" style="fill:#c4d1eb; fill-rule:evenodd;"/><path d="M113.45,351.91c-9.51,13.16-6.39,29.62,9.38,36.03,15.7,6.45,36.56-1.07,44.11-15.74,7.69-14.69,.78-29.81-13.03-34.73-13.88-4.89-30.95,1.24-40.47,14.43Z" style="fill:#8fa3cf; fill-rule:evenodd;"/><path d="M185.32,379.28c-2.87,5.73,.85,11.92,8.67,13.49,7.88,1.6,16.55-2.25,19.03-8.24,2.54-5.99-1.82-11.73-9.32-13.07-7.43-1.34-15.51,2.05-18.38,7.82Z" style="fill:#8fa3cf; fill-rule:evenodd;"/><path d="M75.33,333.24c-4.1,4.69-2.74,11.63,3.45,15.38,6.26,3.75,14.73,2.61,18.51-2.38,3.78-5.02,1.76-11.73-4.17-15.18-5.86-3.45-13.68-2.51-17.79,2.18Z" style="fill:#8fa3cf; fill-rule:evenodd;"/><path d="M1824.67,371.03c-74.15,1.63-154.89-20.62-227.09-71.16,7.75-27.69,17.92-53.86,30.24-78.19,59.3,47.86,127,69.92,188.38,70.86,0,25.71,2.74,52.03,8.47,78.49Z" style="fill:#c4d1eb; fill-rule:evenodd;"/><path d="M1819,366.21c-70.5,.42-146.75-21.08-215.49-68.26,6.84-24.14,15.51-47.18,25.87-68.78,57.86,44.99,123.09,66.34,182.91,68.03,.07,22.61,2.28,45.74,6.71,69.01Z" style="fill:#8fa3cf; fill-rule:evenodd;"/><path d="M1781.47,311.64c-6.64-.81-12.58-4.56-16.35-9.58-32.45-6.09-65.55-17.72-97.48-35.45-5.6,2.38-12.84,1.82-19.68-2.48-6.91-4.3-13.75-8.89-20.53-13.81-4.5,11.01-8.54,22.32-12.18,33.92,7.36,4.98,14.79,9.71,22.29,14.11,7.23,4.27,13.1,10.75,16.75,17.72,36.17,18.38,73.5,30.14,110.25,35.87,4.37-3.49,10.62-5.18,17.66-4.43,9.25,.98,18.51,1.6,27.63,1.82-1.56-11.96-2.54-23.78-2.93-35.51-8.41-.36-16.88-1.08-25.42-2.18Z" style="fill:#c4d1eb; fill-rule:evenodd;"/><path d="M1741,321.97c-.98,16.16-13.81,26.94-30.04,21.93-16.23-4.98-27.63-24.01-24.18-40.17,3.39-16.23,18.25-23.52,32.06-18.6,13.88,4.99,23.2,20.59,22.16,36.85Z" style="fill:#8fa3cf; fill-rule:evenodd;"/><path d="M1668.15,297.56c-1.5,6.26-8.27,8.67-15.31,4.92-7.1-3.75-11.4-12.22-9.52-18.44,1.89-6.22,8.86-7.88,15.51-4.2,6.58,3.71,10.75,11.44,9.32,17.72Z" style="fill:#8fa3cf; fill-rule:evenodd;"/><path d="M1782.38,331.68c.2,6.22-5.28,10.72-12.45,9.68-7.17-1.01-13.03-7.3-12.77-13.55,.2-6.26,6.06-10.2,12.77-9.12,6.78,1.11,12.19,6.75,12.45,13Z" style="fill:#8fa3cf; fill-rule:evenodd;"/><path d="M1775.02,164.14c-39.42,15.93-87.19,20.36-136.19,7.88-1.43-16.39-1.3-32.52,.32-48.06,41.51,13.62,82.3,11.73,115.4-.2,5.21,13.78,12.05,27.34,20.46,40.37Z" style="fill:#c4d1eb; fill-rule:evenodd;"/><path d="M1770.98,162.71c-37.73,14.53-82.95,18.44-129.35,7.1-1.24-14.37-1.24-28.44-.07-42.13,40.14,12.38,79.43,10.59,111.88-.62,4.62,12.12,10.49,24.08,17.53,35.64Z" style="fill:#8fa3cf; fill-rule:evenodd;"/><path d="M1739.83,141.08c-3.72,.88-7.69,.1-10.69-1.86-18.7,3.36-38.77,3.81-59.49,.78-2.54,2.41-6.52,3.58-11.08,2.67-4.56-.91-9.19-2.02-13.81-3.26-.13,6.81-.07,13.68,.39,20.66,4.89,1.21,9.9,2.22,14.79,3.06,4.76,.78,9.19,3.1,12.58,6.09,23.13,2.51,45.55,1.24,66.4-3.13,1.63-2.77,4.63-4.92,8.54-5.96,5.21-1.34,10.23-2.87,15.18-4.63-3.26-6.06-6.12-12.25-8.73-18.44-4.62,1.5-9.25,2.83-14.08,4.01Z" style="fill:#c4d1eb; fill-rule:evenodd;"/><path d="M1720.21,154.79c2.74,8.86-1.95,17.27-11.66,17.85-9.71,.62-19.68-7.26-21.11-16.65-1.5-9.38,5.02-16.32,13.42-16.45,8.47-.13,16.62,6.32,19.35,15.25Z" style="fill:#8fa3cf; fill-rule:evenodd;"/><path d="M1676.17,156.49c.52,3.65-2.67,6.32-7.17,5.73-4.56-.59-8.6-4.24-8.86-7.95-.26-3.71,3.13-6.03,7.49-5.41,4.3,.65,8.08,3.98,8.53,7.62Z" style="fill:#8fa3cf; fill-rule:evenodd;"/><path d="M1744.39,151.6c1.3,3.32-.65,6.84-4.76,7.72-4.04,.91-8.47-1.27-9.58-4.66-1.17-3.42,1.17-6.71,5.02-7.49,3.85-.78,7.89,1.14,9.32,4.43Z" style="fill:#8fa3cf; fill-rule:evenodd;"/><path d="M1032.82,308.25c74.15,1.66,154.83-20.59,227.09-71.16-7.75-27.66-17.99-53.82-30.24-78.16-59.3,47.83-127,69.89-188.38,70.86,0,25.67-2.8,52-8.47,78.46Z" style="fill:#c4d1eb; fill-rule:evenodd;"/><path d="M1038.49,303.43c70.5,.42,146.75-21.05,215.43-68.26-6.78-24.14-15.51-47.15-25.8-68.78-57.86,45.03-123.16,66.34-182.97,68.03,0,22.64-2.22,45.78-6.65,69.01Z" style="fill:#8fa3cf; fill-rule:evenodd;"/><path d="M1076.02,248.89c6.65-.85,12.58-4.56,16.29-9.61,32.52-6.09,65.62-17.69,97.55-35.45,5.6,2.41,12.77,1.86,19.68-2.44,6.91-4.33,13.75-8.93,20.52-13.81,4.5,10.98,8.54,22.32,12.19,33.88-7.36,5.02-14.79,9.71-22.29,14.11-7.23,4.27-13.1,10.75-16.75,17.76-36.16,18.38-73.57,30.14-110.25,35.84-4.43-3.49-10.69-5.18-17.66-4.43-9.25,1.01-18.51,1.6-27.63,1.82,1.56-11.92,2.54-23.78,2.93-35.51,8.41-.36,16.88-1.07,25.41-2.15Z" style="fill:#c4d1eb; fill-rule:evenodd;"/><path d="M1116.42,259.22c1.04,16.16,13.88,26.91,30.1,21.89,16.23-4.99,27.57-24.01,24.18-40.17-3.39-16.23-18.31-23.52-32.13-18.6-13.81,5.02-23.13,20.59-22.16,36.88Z" style="fill:#8fa3cf; fill-rule:evenodd;"/><path d="M1189.34,234.81c1.43,6.26,8.21,8.67,15.31,4.89,7.1-3.75,11.34-12.22,9.51-18.44-1.89-6.22-8.86-7.88-15.51-4.17s-10.75,11.44-9.32,17.72Z" style="fill:#8fa3cf; fill-rule:evenodd;"/><path d="M1075.11,268.89c-.19,6.22,5.28,10.75,12.45,9.71,7.17-1.04,13.03-7.3,12.77-13.59-.2-6.26-6.06-10.16-12.84-9.09-6.71,1.08-12.18,6.71-12.38,12.97Z" style="fill:#8fa3cf; fill-rule:evenodd;"/><path d="M931.75,137.82c24.37,31.11,60.86,56.82,106.08,69.46,8.8-12.54,16.1-25.58,21.96-38.87-39.75-8.28-71.74-28.67-92.86-53.63-10.62,8.7-22.35,16.45-35.19,23.04Z" style="fill:#c4d1eb; fill-rule:evenodd;"/><path d="M935.66,138.54c23.66,29.19,58.25,53.3,100.94,65.65,7.62-10.98,14.21-22.35,19.61-33.88-38.12-8.6-68.94-28.28-89.86-52.36-9.38,7.62-19.61,14.56-30.69,20.59Z" style="fill:#8fa3cf; fill-rule:evenodd;"/><path d="M970.79,135.54c2.61,2.48,6.13,3.62,9.51,3.49,13.49,11.34,29.45,21.02,47.57,28.18,.91,3.09,3.58,5.9,7.69,7.27,4.1,1.37,8.27,2.64,12.58,3.78-3,5.57-6.26,11.08-9.84,16.49-4.5-1.34-8.99-2.8-13.36-4.43-4.17-1.53-8.8-1.76-12.9-.88-19.81-8.67-37.34-20.07-52.06-33.27-.07-3-1.5-6.16-4.17-8.76-3.52-3.49-6.91-7.1-10.1-10.79,5.47-3.39,10.69-7,15.64-10.78,3,3.32,6.12,6.58,9.45,9.71Z" style="fill:#c4d1eb; fill-rule:evenodd;"/><path d="M980.23,155.67c-6.32,5.9-6.39,14.82,1.17,19.81,7.49,4.98,19.22,3.26,24.7-3.62,5.54-6.91,3.52-15.51-3.19-19.52-6.78-4.01-16.35-2.57-22.68,3.32Z" style="fill:#8fa3cf; fill-rule:evenodd;"/><path d="M1014.97,177.47c-2.08,2.7-.78,6.29,3.13,7.95,3.91,1.66,8.86,.55,10.82-2.35,1.89-2.87,.26-6.29-3.52-7.79-3.78-1.47-8.34-.55-10.43,2.18Z" style="fill:#8fa3cf; fill-rule:evenodd;"/><path d="M962.25,141.96c-2.61,2.02-2.61,5.8,.26,8.37,2.8,2.61,7.36,2.9,9.84,.68,2.54-2.22,2.15-5.93-.52-8.37-2.74-2.38-6.91-2.7-9.58-.68Z" style="fill:#8fa3cf; fill-rule:evenodd;"/><path d="M1166.34,346.86c63.67,38.02,144.86,58.45,232.63,50.08,6.84-27.89,10.95-55.68,12.25-82.92-75.2,12.38-144.92-1.82-198.87-31.28-12.64,22.38-28.02,43.89-46,64.12Z" style="fill:#c4d1eb; fill-rule:evenodd;"/><path d="M1173.63,345.46c61.12,35.12,138.01,54.05,221.1,46.85,5.93-24.34,9.77-48.64,11.4-72.56-72.52,10.62-139.77-3-192.62-31.05-11.27,19.65-24.57,38.71-39.88,56.76Z" style="fill:#8fa3cf; fill-rule:evenodd;"/><path d="M1233.19,316.49c6.19,2.57,13.16,2.25,18.9-.29,31.28,10.75,65.81,16.94,102.37,17.27,3.65,4.82,10.23,7.92,18.31,7.56,8.15-.33,16.36-.98,24.63-1.89-1.5,11.79-3.58,23.62-6.13,35.51-8.79,.72-17.59,1.14-26.33,1.27-8.4,.13-16.68,2.87-23.33,7.17-40.53-1.86-78.78-10.07-113.58-23.17-2.08-5.21-6.71-9.77-13.16-12.58-8.6-3.71-16.88-7.75-24.96-12.05,7.23-9.61,13.94-19.45,20.07-29.45,7.5,3.84,15.18,7.4,23.2,10.65Z" style="fill:#c4d1eb; fill-rule:evenodd;"/><path d="M1263.3,345.43c-7.1,14.56-1.24,30.27,15.31,33.88,16.55,3.68,35.84-7.27,40.86-23.04,5.02-15.77-4.3-29.45-18.77-31.99-14.53-2.48-30.3,6.48-37.4,21.15Z" style="fill:#8fa3cf; fill-rule:evenodd;"/><path d="M1338.69,360.15c-1.83,6.16,2.93,11.6,10.95,11.83,7.95,.23,15.9-5.05,17.33-11.37,1.43-6.35-3.85-11.21-11.41-11.27-7.62-.03-14.99,4.66-16.88,10.82Z" style="fill:#8fa3cf; fill-rule:evenodd;"/><path d="M1222.57,333.47c-3.26,5.31-.78,11.92,6,14.56,6.78,2.64,14.92,.07,17.79-5.51,2.93-5.57-.26-11.86-6.65-14.24-6.45-2.38-13.95-.13-17.14,5.18Z" style="fill:#8fa3cf; fill-rule:evenodd;"/><path d="M247.62,142.02c17.33,47.11,34.54,94.29,51.48,141.57,20.59-7.4,43.14-7.4,63.73-.03,16.88-47.27,33.56-94.65,49.91-142.09-53.43-18.9-111.82-18.7-165.12,.55Z" style="fill:#c4d1eb; fill-rule:evenodd;"/><path d="M258.43,141.73c14.73,45.78,29.19,91.65,43.46,137.56,18.9-5.86,39.16-5.9,58.06-.03,14.21-45.94,28.22-91.94,42.03-138.01-46.85-14.34-96.83-14.17-143.55,.49Z" style="fill:#8fa3cf; fill-rule:evenodd;"/><path d="M363.47,156.85c-.65,4.95,3.65,10.1,10.56,14.76-5.08,24.18-10.17,48.38-15.31,72.56-5.99,1.92-9.9,6.22-10.62,11.47-.72,5.24-1.5,10.52-2.28,15.8-9.97-1.43-20.14-1.43-30.1,.06-.78-5.28-1.56-10.52-2.41-15.8-.72-5.08-4.43-9.25-10.17-11.24-5.41-24.34-10.75-48.64-16.23-72.92,6.45-4.59,10.43-9.58,9.64-14.43-1.04-6.32-2.08-12.67-3.13-19,24.11-3.88,48.68-3.98,72.79-.39-.85,6.39-1.82,12.74-2.74,19.13Z" style="fill:#c4d1eb; fill-rule:evenodd;"/><path d="M330.57,183.37c-26.65,.03-45.22,14.6-41.96,24.73,3.13,10.3,21.83,13.88,42.23,14.04,20.33-.2,38.97-3.84,42.03-14.17,3.13-10.16-15.57-24.7-42.29-24.6Z" style="fill:#8fa3cf; fill-rule:evenodd;"/><path d="M328.16,235.24c-7.43,.13-12.84,4.95-12.19,9.87,.72,4.92,6.32,8.24,12.64,8.15,6.26-.13,11.79-3.71,12.19-8.67,.46-4.95-5.15-9.51-12.64-9.35Z" style="fill:#8fa3cf; fill-rule:evenodd;"/><path d="M326.14,153.78c-11.79,.26-20.72,5.54-20,10.46,.65,4.95,9.84,7.79,20.46,7.59,10.69-.26,19.61-3.52,20.07-8.5,.46-4.92-8.73-9.81-20.53-9.55Z" style="fill:#8fa3cf; fill-rule:evenodd;"/><path d="M779.4,313.01c-17.4,47.11-34.54,94.29-51.48,141.57-20.59-7.36-43.14-7.4-63.79-.03-16.88-47.27-33.49-94.65-49.91-142.09,53.5-18.9,111.82-18.7,165.19,.55Z" style="fill:#c4d1eb; fill-rule:evenodd;"/><path d="M768.52,312.71c-14.73,45.78-29.19,91.65-43.46,137.56-18.9-5.86-39.1-5.9-58.06-.03-14.21-45.94-28.15-91.94-41.96-138.01,46.79-14.34,96.83-14.17,143.49,.49Z" style="fill:#8fa3cf; fill-rule:evenodd;"/><path d="M663.48,327.83c.72,4.98-3.65,10.1-10.49,14.76,5.02,24.18,10.1,48.38,15.31,72.56,5.93,1.92,9.84,6.22,10.56,11.47,.78,5.25,1.56,10.52,2.35,15.8,9.97-1.43,20.07-1.43,30.04,.06,.85-5.24,1.63-10.52,2.41-15.8,.78-5.08,4.5-9.25,10.23-11.24,5.34-24.34,10.75-48.64,16.16-72.92-6.45-4.59-10.43-9.58-9.64-14.4,1.04-6.35,2.09-12.71,3.19-19.03-24.18-3.88-48.74-3.98-72.85-.39,.91,6.39,1.82,12.74,2.74,19.13Z" style="fill:#c4d1eb; fill-rule:evenodd;"/><path d="M696.39,354.35c26.72,.03,45.22,14.6,42.03,24.73-3.19,10.3-21.89,13.88-42.22,14.01-20.4-.16-39.03-3.78-42.09-14.14-3.13-10.17,15.57-24.7,42.29-24.6Z" style="fill:#8fa3cf; fill-rule:evenodd;"/><path d="M698.8,406.22c7.43,.13,12.9,4.95,12.18,9.87-.65,4.92-6.26,8.24-12.58,8.15-6.32-.13-11.79-3.71-12.25-8.67-.46-4.95,5.21-9.51,12.64-9.35Z" style="fill:#8fa3cf; fill-rule:evenodd;"/><path d="M700.82,324.77c11.79,.26,20.72,5.54,20,10.46-.65,4.95-9.84,7.79-20.46,7.59-10.69-.26-19.61-3.52-20.07-8.5-.39-4.92,8.73-9.81,20.53-9.55Z" style="fill:#8fa3cf; fill-rule:evenodd;"/><path d="M957.1,301.51c-15.58-65.68-94.62-115.66-190.54-95.72-20.07,26.62-32.58,52.49-39.42,75.03,76.57-33.69,145.18,1.6,154.89,53.92,17.98-13.29,43.01-25.54,75.07-33.23Z" style="fill:#c4d1eb; fill-rule:evenodd;"/><path d="M950.2,298.93c-17.07-61.22-91.23-106.87-181.35-89.47-17.14,22.94-28.61,45.26-35.51,65.23,74.02-29,139.38,4.37,151.31,54.35,16.42-11.73,38.25-22.55,65.55-30.1Z" style="fill:#8fa3cf; fill-rule:evenodd;"/><path d="M886.86,296.42c-3.13-4.76-8.6-7.2-14.08-7.23-18.83-20.62-49.2-33.72-85.04-33.07-2.15-3.68-7.62-5.96-15.83-4.89-8.21,1.08-16.62,2.84-25.15,5.31,4.82-10.17,10.82-20.79,18.12-31.64,9.38-1.86,18.57-3,27.56-3.45,8.73-.46,18.38-2.67,27.24-6,40.86,3.58,75,21.18,96.57,46.27-1.5,5.28-.59,11.01,2.74,16.19,4.5,6.87,8.02,14.14,10.69,21.7-12.51,4.82-23.65,10.33-33.36,16.16-2.28-6.78-5.47-13.26-9.45-19.35Z" style="fill:#c4d1eb; fill-rule:evenodd;"/><path d="M877.34,261.2c13.49-9.71,18.11-25.18,3.78-32.68-14.14-7.59-39.82-1.21-51.09,11.17-11.47,12.38-6.39,23.62,5.6,28.57,12.19,4.92,28.09,2.8,41.71-7.07Z" style="fill:#8fa3cf; fill-rule:evenodd;"/><path d="M812.57,234.88c4.3-4.98,1.95-9.9-6.06-10.23-8.08-.36-18.38,4.5-22.16,9.94-3.84,5.44-.13,8.99,7.36,8.86,7.62-.16,16.55-3.62,20.85-8.57Z" style="fill:#8fa3cf; fill-rule:evenodd;"/><path d="M904.12,286.49c5.67-3.16,8.15-9.9,4.11-14.89-3.91-4.99-12.58-5.83-17.98-2.22-5.41,3.62-5.86,9.97-2.15,14.5,3.72,4.5,10.36,5.77,16.03,2.61Z" style="fill:#8fa3cf; fill-rule:evenodd;"/><path d="M565.02,302.94c-10.43-43.95-63.34-77.38-127.46-64.02-13.42,17.82-21.83,35.09-26.39,50.21,51.22-22.55,97.09,1.04,103.61,36.07,12.06-8.93,28.8-17.1,50.24-22.25Z" style="fill:#c4d1eb; fill-rule:evenodd;"/><path d="M560.39,301.25c-11.47-40.99-61.06-71.52-121.33-59.88-11.47,15.38-19.09,30.3-23.78,43.63,49.59-19.39,93.25,2.93,101.26,36.36,10.95-7.85,25.54-15.05,43.85-20.1Z" style="fill:#8fa3cf; fill-rule:evenodd;"/><path d="M517.97,299.55c-2.02-3.19-5.73-4.82-9.38-4.86-12.58-13.81-32.91-22.55-56.82-22.12-1.5-2.44-5.15-3.97-10.62-3.26-5.54,.72-11.14,1.89-16.81,3.55,3.19-6.81,7.23-13.91,12.12-21.18,6.26-1.24,12.38-1.99,18.38-2.28,5.86-.33,12.32-1.79,18.25-4.04,27.3,2.41,50.17,14.17,64.58,30.99-.98,3.49-.39,7.33,1.89,10.82,2.93,4.59,5.34,9.45,7.1,14.5-8.41,3.23-15.83,6.91-22.35,10.82-1.5-4.53-3.65-8.86-6.32-12.93Z" style="fill:#c4d1eb; fill-rule:evenodd;"/><path d="M511.65,275.99c8.99-6.52,12.12-16.88,2.54-21.86-9.45-5.08-26.65-.82-34.21,7.46-7.62,8.28-4.24,15.8,3.78,19.13,8.15,3.26,18.77,1.86,27.89-4.73Z" style="fill:#8fa3cf; fill-rule:evenodd;"/><path d="M468.32,258.34c2.87-3.29,1.3-6.61-4.11-6.81-5.34-.23-12.25,3.03-14.79,6.65-2.54,3.65-.07,6.03,5.02,5.93,5.02-.1,11.01-2.41,13.88-5.77Z" style="fill:#8fa3cf; fill-rule:evenodd;"/><path d="M529.57,292.87c3.78-2.09,5.41-6.61,2.74-9.94-2.67-3.36-8.41-3.91-11.99-1.5-3.65,2.44-3.97,6.68-1.5,9.71,2.48,3,6.91,3.88,10.75,1.73Z" style="fill:#8fa3cf; fill-rule:evenodd;"/><path d="M1653.82,480.51c-15.51-65.68-94.55-115.66-190.53-95.72-20.01,26.62-32.58,52.49-39.42,75.03,76.57-33.66,145.18,1.6,154.89,53.95,17.99-13.33,43.07-25.54,75.07-33.26Z" style="fill:#c4d1eb; fill-rule:evenodd;"/><path d="M1646.97,477.97c-17.07-61.25-91.23-106.9-181.34-89.5-17.14,22.94-28.61,45.26-35.58,65.23,74.09-29,139.38,4.37,151.31,54.35,16.48-11.73,38.31-22.51,65.62-30.07Z" style="fill:#8fa3cf; fill-rule:evenodd;"/><path d="M1583.57,475.46c-3.06-4.76-8.54-7.2-14.01-7.26-18.83-20.62-49.2-33.69-85.04-33.07-2.15-3.68-7.69-5.96-15.9-4.89-8.21,1.11-16.62,2.87-25.09,5.34,4.82-10.2,10.82-20.82,18.11-31.67,9.32-1.86,18.57-2.96,27.57-3.42,8.67-.46,18.31-2.71,27.17-6.03,40.86,3.58,75.07,21.18,96.64,46.3-1.56,5.28-.59,11.01,2.74,16.19,4.43,6.84,8.01,14.14,10.69,21.7-12.58,4.82-23.66,10.3-33.36,16.13-2.35-6.78-5.47-13.26-9.51-19.32Z" style="fill:#c4d1eb; fill-rule:evenodd;"/><path d="M1574.12,440.24c13.42-9.74,18.12-25.22,3.78-32.68-14.14-7.59-39.81-1.24-51.09,11.14-11.47,12.38-6.39,23.62,5.6,28.57,12.19,4.92,28.09,2.8,41.7-7.04Z" style="fill:#8fa3cf; fill-rule:evenodd;"/><path d="M1509.35,413.88c4.3-4.95,1.96-9.9-6.12-10.23-8.08-.33-18.38,4.53-22.16,9.97-3.78,5.41-.13,8.96,7.43,8.86,7.56-.16,16.49-3.65,20.85-8.6Z" style="fill:#8fa3cf; fill-rule:evenodd;"/><path d="M1600.9,465.49c5.67-3.13,8.08-9.9,4.1-14.86-3.97-5.02-12.58-5.86-17.99-2.22-5.41,3.62-5.86,9.94-2.21,14.47,3.78,4.5,10.36,5.8,16.1,2.61Z" style="fill:#8fa3cf; fill-rule:evenodd;"/><path d="M1533.72,345.2c10.56-66.69-43.66-142.93-139.97-160.89-28.67,17.01-50.04,36.17-64.97,54.48,83.67-2.12,133.71,56.53,122.83,108.66,21.7-5.47,49.52-7.3,82.1-2.25Z" style="fill:#c4d1eb; fill-rule:evenodd;"/><path d="M1528.25,340.18c7.5-63.11-43.79-133.52-133.78-151.6-24.57,14.73-43.66,30.98-57.6,46.82,79.5,1.3,127.26,56.98,119.38,107.75,19.61-4.63,43.92-6.32,72-2.97Z" style="fill:#8fa3cf; fill-rule:evenodd;"/><path d="M1470.64,313.82c-1.11-5.57-5.21-9.9-10.23-12.02-9.64-26.23-32.71-49.88-66.14-62.88-.59-4.24-4.82-8.44-12.84-10.56-8.02-2.12-16.42-3.65-25.22-4.59,8.28-7.59,17.85-15.15,28.74-22.42,9.38,1.86,18.31,4.27,26.78,7.3,8.21,2.87,17.99,4.46,27.43,4.72,36.49,18.87,61.38,48.09,71.87,79.5-3.45,4.3-4.76,9.97-3.58,16.03,1.43,8.01,2.02,16.13,1.63,24.14-13.49-.33-25.87,.52-37.08,2.28,.46-7.17,0-14.37-1.37-21.5Z" style="fill:#c4d1eb; fill-rule:evenodd;"/><path d="M1475.21,277.66c16.16-3.91,26.33-16.45,15.97-28.8-10.23-12.41-36.43-16.29-51.54-9.09-15.31,7.14-14.86,19.45-5.67,28.57,9.45,9.19,24.96,13.29,41.25,9.32Z" style="fill:#8fa3cf; fill-rule:evenodd;"/><path d="M1425.29,228.66c5.87-2.93,5.6-8.41-1.76-11.73-7.3-3.39-18.7-2.8-24.24,.75-5.6,3.62-3.52,8.31,3.45,11.05,7.04,2.74,16.68,2.9,22.55-.06Z" style="fill:#8fa3cf; fill-rule:evenodd;"/><path d="M1490.39,311.18c6.52-.75,11.27-6.09,9.45-12.19-1.76-6.12-9.38-10.2-15.77-8.89-6.39,1.3-9.19,7-7.49,12.58,1.69,5.57,7.36,9.25,13.81,8.5Z" style="fill:#8fa3cf; fill-rule:evenodd;"/><path d="M608.61,490.12c257.72,0,466.63,208.91,466.63,466.6s-208.91,466.62-466.63,466.62-466.63-208.91-466.63-466.62,208.91-466.6,466.63-466.6Z" style="fill:#8fa3cf; fill-rule:evenodd;"/><path d="M608.61,507.32c248.27,0,449.42,201.19,449.42,449.39s-201.15,449.42-449.42,449.42-449.36-201.22-449.36-449.42,201.16-449.39,449.36-449.39Z" style="fill:#c4d1eb; fill-rule:evenodd;"/><path d="M823.06,665.31c2.41-3.19,2.8-4.92,5.41-7.66,16.42-17.53,46.07-.36,62.17-.82l1.56,14.14c7.56,.2,11.99-2.38,11.66-10.39-.65-14.6-34.99-8.89-39.94-23.17,8.14-11.4,32.71,3.49,42.49,8.41,7.17,3.62,14.01,7.07,20.46,10.72,6.97,3.85,14.92,10.49,18.25,12.35,1.82-7.62,2.67-21.47,6.26-25.97,.91-.07,1.82,0,2.74,.1-24.7-27.17-52.59-51.38-82.95-72.1-1.89,.95-4.23,1.6-6.78,1.76-9.9,.75-12.97-5.51-25.09-1.66-6.06,1.89-14.47,6.58-21.37,5.57,1.89-1.4,10.95-9.94,12.06-11.96,10.43-18.6-21.76-4.79-15.96-26.98-16.16-7.92-32.78-14.92-49.85-20.95-.78,2.02-.65,4.99,.52,9.45,2.41,9.35,4.3,16.06-2.54,21.96-5.6,4.86-13.81,5.73-6.13,16.78,5.73,8.15,12.25,5.86,23.65,5.6,2.28,6.39,2.02,12.09,8.01,14.11,7.17,2.38,11.34,2.44,14.27,8.57-2.02,5.28-5.73,6.94-7.95,14.01-6.91,22.22-1.5,21.86-29.13,37.92,5.47,5.34,23.13,.72,27.11,13.75,3.98,12.74-11.6,14.6-21.24,18.47-15.12,6.16-10.95,13.36-3.71,24.37,4.56,6.87,10.56,19.51,21.57,18.54,4.56-4.46,1.56-6.78,10.04-8.89,2.28,6.22,7.04,9.84,5.67,19.51-.91,6.39-5.02,12.38-7.1,18.18-2.28,6.32-3,13.62-5.08,20.07-5.73,17.27-16.49,32.78-7.62,60.99,2.02,6.52,4.63,11.66,8.28,16.81,3.71,5.28,7.3,7.17,9.64,15.51,4.11,14.92,8.41,18.31,24.44,25.87,21.37,10.3,27.17,37.01,43.99,29.98,14.73-6.19,2.28-20.2,31.93-18.38,12.51,.78,11.66-1.96,13.62-12.64,1.5-8.08,7.3-9.84,15.44-7.43,8.14,2.35,15.77,.39,22.61,2.47,13.1,4.17,3.06,21.51,11.14,37.15,4.3,8.47,14.73,25.74,19.81,30.5,7.88,7.43,19.87,15.77,11.01,33.49-5.87,11.73-13.81,22.81-5.8,37.66,20.98,38.84,35.77,26.39,34.93,65.81-.33,14.4,7.43,31.08,15.96,35.45,2.15-1.43,3.19-2.74,5.08-4.17,18.51-50.3,28.67-104.65,28.67-161.47,0-106.34-35.58-204.42-95.53-282.9l-37.6,7.85c.72,4.98,3.52,6.26,7.56,8.18-8.08,6.68-13.03,18.12-30.23,7.27-21.37-13.55-16.62,1.14-32.58,.81,1.17-4.95,1.56-9.29,.39-14.63-5.34-3.19-15.64-1.69-21.11-.03-11.86,3.59-35.97,16.81-40.99,28.31l-14.01,1.24c3.52-5.41,10.82-7.92,8.54-19.52-1.69-8.4-6.39-13.26-5.08-23.72,4.89-1.82,5.67-.45,8.47-4.27h0ZM152.09,860.14c8.86-42.29,23.52-82.49,43.01-119.7,9.12,.13,19.61,1.5,30.04-1.5,14.4-4.17,40.2-16.42,45.81-25.05-15.05,6.35-20.79,12.42-42.23,9.29-2.02-2.18-3.52-5.57-5.67-8.18-4.1,4.46-4.76,12.09-11.21,13-3.45,.52-6.45-.52-8.54-2.61,2.93-5.15,6-10.23,9.19-15.28,9.58-1.82,21.96-1.4,29.06-3.91,32.97-11.76,19.29-21.63,25.28-25.12,10.43-3.09,11.21,8.08,12.12,17.07,13.03,.95,30.82-8.08,41.18,.23-.26-15.54-9.9-40.76,12.51-38.87-.98-5.44,.33-6.52,3.65-10.39,2.35-2.7,.59-.19,2.02-2.67l-9.64-.03c-.72-4.2-2.35-6.84,1.96-8.08,10.03-2.87,17.33,6.12,27.24,6.81,12.84,.94,21.83-8.73,33.82-10.95,16.81-3.06,21.5,6.81,33.75,10.91,11.47,3.81,32.12-5.38,37.73,3.71-8.86,9.06-27.17-1.99-22.48,12.12l10.49,1.79c-1.82,8.99-3.52,10.33-2.74,20.98-16.88,1.95-28.54-4.27-44.9-3.91,2.35-7.2,6-7.53,5.73-16.75l-14.34,4.37c-.2-.13-.39-.36-.52-.46-6.12-5.77-15.05-6.71-22.87-2.41,4.04,9.64,5.02,9.51,5.21,22.12,3.52,2.7,9.32,3.36,6.06,9.84-2.15,4.17-6.26,5.73-9.71,8.57-4.5,3.65-3.26,7.23-10.95,6.26-4.63-.55-9.58-3.32-11.08-5.99-1.96,3.97-2.74,7-4.95,10.91-5.93,10.69-13.88,20.46-8.47,32.84,8.99,1.04,40.27-3.65,51.35-4.82,38.12-4.04,12.77-22.03,11.47-25.94-4.17-11.92,6.19-32.42,25.54-29.65,9.19,1.34,12.25,9.29,18.25,10.33,12.77,2.25,11.86-5.57,14.66-12.71,9.58-1.27,9.77,6.42,15.12,11.73,8.01,7.98,28.87,7.62,38.84,16.48,7.69,6.84,6.26,7.01,9.71,17.43,6,.39,8.99-1.11,13.55,2.54,3.06,2.48,5.73,5.47,4.43,11.47-4.89,3.26-17.33,3.91-24.96,3-9.45-1.17-9.84-7.82-11.73-16.16-6.39,.78-11.4,3.65-16.68,5.02-8.54,2.15-12.77-4.11-16.42,2.61-4.5,8.34-8.28,19.48-12.9,27.43,8.28,.2,11.6-8.47,23.98-7.82l1.69,9.12,17.07-1.17c-.85,6.38-5.02,11.47-8.41,13.94-7.95,5.87-8.8,2.48-13.81-2.08-24.11-.91-14.73,17.46-20.33,34.28-2.87,8.8-9.9,7.75-10.82,16.42-1.63,14.86-4.17,6.12-11.08,14.66,2.22,7.75,8.8,6.39,3.39,20.79-2.54,6.84-6.71,12.45-6.65,20.72,.13,13.82,9.12,27.63,10.82,43.66-6.06-1.56-9.58-5.08-12.38-8.6-13.1-16.03-19.03-14.34-36.88-5.34l-.85,6.13c-29.13,3.65-42.55,18.31-41.18,49.72,.59,13.62,8.28,22.68,19.61,25.8,12.77,3.58,28.02,1.04,25.15-17.4,19.09-2.87,11.6,6.26,19.09,18.51,6.06,9.84,14.34,10.69,27.76,6.52,1.24,8.99,.26,8.47,6.32,12.71,4.24,3.06,5.6,4.69,11.4,7.63,20.79,10.29,12.77-3.78,27.89-1.5,4.63,4.24,2.48,7.36,12.25,6.06-.13-27.89-4.43-27.37,44.83-29.84,42.49-2.08,30.5-1.3,47.89,9.12,4.69,2.74,8.21,3.26,14.47,3.52,25.67,1.04,36.88,14.33,59.3,16.42,17.14,1.56,55.26-7.76,66.53,4.62,4.04,4.37-1.69,23.07-.39,32.65,1.24,9.38,6.26,19.29,9.77,27.37,20.13,45.68-17.72,33.1-26.72,75.72-2.41,11.6-6.45,16.94-10.43,26.85-7.1,17.72,11.73,55.52-9.58,58.65-3.13-2.87-6.26-14.34-15.25-9.12-8.93,5.21-.46,21.11,4.43,27.11,8.34,10.17,8.99,14.08-1.69,23.91l3.58,1.37c.85,1.04,1.11,3.13,.65,4.76-1.43,5.15-13.88,2.54-23.72,10.23-.72,18.12,2.8,31.86,7.56,47.76,1.82,6,3.39,16.36,7.62,19.48,6.84,5.08,19.61-3.78,20.27,8.08-8.08,3.78-27.56,7.43-38.18,2.87-6.71-3-14.66-15.51-19.09-24.24l-26.2-60.28c-3.84-13.75,1.76-26.39,.65-40.79-.98-13.16-4.43-23-9.58-33.69-8.86-18.38-18.31-42.09-27.04-59.3-12.58,.33-20.98,.65-28.02-6.39-2.35-2.35-5.21-6.45-7.69-9.38-5.47-6.25-9.9-12.25-16.68-17.46-3.45-2.61-6.84-4.04-10.49-6.52-24.63-16.81-6.78-58.58-19.42-81.19-8.47-15.18-14.01-7.17-21.05-9.12-3.39-.98-7.88-4.04-11.4-5.67-12.71-5.87-25.54-6.06-36.36-13.95-10.56-7.69-12.12-5.41-26.52-6.45-21.76-1.56-44.7,5.73-63.92,2.35-20.85-3.78-29.91-17.99-40.27-27.11-5.02-4.3-35.32-24.44-41.9-23.98-6.32,18.25,21.18,28.02,26.2,41.96-25.61-.13-22.87-19.09-32.78-36.82-9.77-17.4-27.82-14.6-42.55-25.87-12.38-9.45-16.75-32.71-20.59-47.83-5.08-19.68-14.79-30.76-20.4-47.05l-.98,2.35c-1.3,4.5-1.69,10.23-3.58,14.21-6.26-.26-9.9-4.3-11.14-9.78h0Zm67.44-160.95c5.15-.59,6.65-3.88,11.34-5.67,3.98-1.5,13.03,.85,20.59-.65,13.03-2.57,5.73-4.2,11.79-11.24,4.04-4.66,11.79-3.36,12.77-9.94-8.73-7.23-11.08,2.12-14.73,6.03-8.8,9.45-11.21-4.76-17.79,1.17-2.8,2.48-1.04,4.5-7.17,4.27-3-.13-4.63-.16-5.8,.13-3.78,5.21-7.49,10.52-11.01,15.9h0Zm31.99-24.93c11.14,4.2,16.23-24.99,.91-4.33-3.13,4.17-.91,4.33-.91,4.33h0Zm32.71-27.82c2.28,3.94,4.3,4.4,9.06,2.96,6.52-1.99,5.08-2.54,9.9,.75l.46-5.99c-9.64-1.3-16.94-5.83-19.42,2.28h0Zm209.04,315.09c5.54,2.93,14.66,2.08,19.94-1.76,6.65-4.89-2.35-3.45,11.01-12.25,.2-.13,.46-.33,.65-.45l1.37-.98c-8.34,.26-15.7-1.24-23.85,.91-8.73,2.41-11.47,4.76-9.12,14.53h0Zm-67.18-2.87c10.82-.26,9.06-2.35,14.53-6.12,12.45-8.47,24.5,5.73,32.71,4.82,5.41-.52,14.47-.91,13.68-6.84-.98-6.84-7.36-4.43-13.62-4.04-8.21,.59-8.73-4.1-19.03-2.48-9.97,1.56-26.85,5.41-28.28,14.66h0Zm214.19-359.6c2.35-2.44,2.35-5.34,5.15-7.82,5.73-5.08,22.55-2.61,22.81-18.25-4.69-.36-6.39,.42-10.88-.98-10.1-3.06-11.01,1.66-16.42,5.64-4.43,3.23-5.67,1.01-10.82,2.41-5.47,1.47-14.21,7.04-7.62,11.73,2.48,1.73,14.01,6.09,17.79,7.27h0Zm79.89,28.54c2.35-4.5,10.95-13.29,10.49-17.2-.59-5.93-4.43-.19-.65-10.91,1.63-4.56,1.82-6.35,2.67-11.14,13.36,2.77,24.11,25.61,49.52,28.77-1.24,8.08,.78,10.07-5.02,14.4-3.45,2.54-9.19,4.89-13.62,5.38-12.84,1.53-12.06-12.41-17.59-18.38-12.51,.07-3.13,10.98-10.3,14.79-5.15,2.74-12.71-3.16-15.51-5.7h0Zm-378.79-15.64c-10.1,1.3-21.18,3.65-28.15,7.76,.46,9.22,9.58,9.19,18.18,7.49,11.86-2.41,13.42-.39,14.66,10.79,16.42,1.01,32.19,3.19,32.32-11.31l-10.56,.69c-2.15-3.42-.07-1.3-2.61-3.36,6.13-14.37,17.66-12.74,26.2-27.4,3.52-5.96,3.91-13.85,7.88-19.26,4.63-6.35,10.69-3.75,14.08-13.94-20.27,1.4-22.94,12.84-40.53,19.71-16.88,6.58-33.17,7.17-31.47,28.83h0Zm72.72-12.64c8.6,4.63,20-9.61,41.44,8.67,24.31,20.72,33.1,7.1,38.25,6.94,2.35,11.79,4.5,19.22,10.88,25.35,3,2.83,16.36,13,21.83,15.41,11.27,4.89,21.24,1.17,23.59-8.83,2.54-10.56-3.19-24.44,1.89-33.46,2.22-3.94,13.49-6.94,22.35-13.85,7.17-5.64,12.84-11.08,20.59-16.55,5.47-3.88,20.33-9.97,22.48-14.79,3-6.65-9.64-17.82-5.86-28.96,4.69-2.38,11.6-.16,17.53-1.53,6.78-1.53,5.54-4.63,8.28-10.88,4.56-10.59,20.4-7.36,14.27-21.34-9.38-2.96-23.91,12.32-29.52,16.19-8.73,5.99-8.67-.1-27.37,8.8-1.17,.55-3.26,1.47-4.37,1.69-3.71,.78-4.11-.07-4.76-.33-1.37-6.55,1.37-10.69,3.32-16.23,2.48-7.23,6.12-11.66,5.67-15.7-1.3-11.89-19.29,2.28-29.71,2.61-6.84,.23-12.71-2.51-18.57,.65-7.36,3.94-3.32,11.04-9.71,12.41-11.21,2.35-20.59-15.41-30.89,3.32-6.65,12.05-12.84,11.7-29.39,13.65-6.26,.75-11.27,2.8-15.64,5.64l-35.9,29.49c-4.82,5.24-11.99,18.31-12.19,26.49l1.5,5.15h0Zm-71.55,68.39l-9.45-6.52,1.95,13.81c16.16,.29,17.85,6.39,22.74,13.68,15.96-7.46-11.47-18.83-15.25-20.98Z" style="fill:#8fa3cf; fill-rule:evenodd;"/><path d="M1749.67,1137.93h-446.82c3.19-13.62,15.38-23.65,29.97-23.65,.65,0,1.37,0,2.09,.06,7.04-17.27,24.04-29.45,43.85-29.45,8.67,0,16.75,2.35,23.79,6.45,8.47-28.15,34.6-48.61,65.49-48.61,6.25,0,12.32,.91,18.12,2.48,14.99-33.04,48.16-55.98,86.73-55.98,45.81,0,83.99,32.32,93.12,75.39,.78-.07,1.56-.13,2.35-.13,29.33,0,53.5,21.96,57.08,50.3,11.99,2.22,21.51,11.34,24.24,23.13Z" style="fill:#fff; fill-rule:evenodd;"/><path d="M1186.47,1145.94c-47.63-.78-83.21-1.37-99.7-6.58-17.72-5.6-14.08-16.42-3.85-33.69,44.9,20.59,32.91-4.3,53.89-1.11,14.73,11.86,36.62,19.81,65.55,23.92,12.25,8.99,7.23,17.01-15.9,17.46Z" style="fill:#0e2952; fill-rule:evenodd;"/><path d="M1125.29,420.33h-294.21c-5.8,0-11.79,4.72-13.36,10.56l-52.33,199.33c-1.56,5.8,1.95,10.56,7.75,10.56h294.27c5.8,0,11.8-4.76,13.29-10.56l52.33-199.33c1.56-5.83-1.95-10.56-7.75-10.56Z" style="fill:#c4d1eb; fill-rule:evenodd;"/><path d="M811.46,426.06l-35.58,135.34c-42.68-20.82-94.09-54.25-147.98-97.12-1.43-19.29-3.26-34.67-5.41-46.17,4.3-8.57,9.06-17.76,14.21-27.5-49.72-.33-80.08-11.01-91.03-32.12,13.29-38.97,31.93-78.72,55.84-119.31,16.75-24.73,49.46-39.26,98.26-43.59,5.67,65.39,106.02,62.03,82.36,5.73,36.43,9.77,67.25,27.82,92.53,54.15,21.7,53.56,34.99,90.97,39.75,112.14-23.59,16.55-45.94,27.24-67.05,32.12-.98,4.63-1.76,9.9-2.28,15.8h-20.33c-5.8,0-11.79,4.72-13.29,10.52Z" style="fill:#6d96ce; fill-rule:evenodd;"/><path d="M775.89,561.41l35.58-135.34c1.5-5.8,7.49-10.52,13.29-10.52h294.21c5.8,0,16.16,7.49,14.47,13.23,.26-4.79-3.06-8.44-8.15-8.44h-294.21c-5.8,0-11.79,4.72-13.36,10.56l-52.33,199.33c-.91,3.49,0,6.58,2.08,8.5-4.82-3.13-9.45-9.19-8.41-13.29l16.81-64.02Z" style="fill:#859ac6; fill-rule:evenodd;"/><path d="M773.15,640.77h294.27c1.04,0,2.15-.16,3.19-.49-5.86,15.18-21.76,12.94-27.96,12.9h-348.88c-18.9-.82-18.38-14.08-18.64-26.85h83.8c-.26,4.07,4.04,9.48,8.54,12.38,1.43,1.3,3.39,2.05,5.67,2.05Z" style="fill:#859ac6; fill-rule:evenodd;"/><path d="M814.33,502.3c31.54,15.96,68.88,20.85,107.26,22.81-.45,1.4-.78,2.8-1.04,4.24-2.54,16.19,8.86,29.94,25.35,29.94,15.51,0,29.58-12.28,31.99-27.53,.26-1.69,.39-3.29,.33-4.92,39.81,1.07,78.33,3.29,110.12,15.74l-21.83,83.31h-284.63l32.45-123.58Z" style="fill:#9db2d9; fill-rule:evenodd;"/><path d="M952.28,511.46c-10.56,0-20.46,8.54-22.16,19.09-1.69,10.52,5.54,19.09,16.09,19.09s20.46-8.57,22.09-19.09c1.69-10.56-5.54-19.09-16.03-19.09Z" style="fill:#9db2d9; fill-rule:evenodd;"/><path d="M613.7,592.19c5.86-17.89,10.1-36.46,12.71-55.71,39.62,15.38,84.91,30.17,142.18,52.81l-7.75,29.45c-86.54,2.8-135.6-6.03-147.14-26.55Z" style="fill:#6d96ce; fill-rule:evenodd;"/><path d="M768.59,589.29c-57.28-22.64-102.57-37.44-142.18-52.81-34.99-13.49-65.49-27.47-95.85-47.57,1.3-38.77,7.04-76.34,23.07-119.87,14.79,14.11,42.49,21.31,83.08,21.57-11.73,22.22-21.31,41.38-28.74,57.51,61.12,50.66,120.03,89.92,167.92,113.28l-7.3,27.89Z" style="fill:#f9af79; fill-rule:evenodd;"/><path d="M906.8,372.79c4.43,15.41,8.54,29.65,12.25,42.75h-73.96c.52-5.9,1.3-11.18,2.28-15.8,18.83-4.37,38.64-13.33,59.43-26.94Z" style="fill:#f9af79; fill-rule:evenodd;"/><path d="M1086.45,1089.97c-43.72-158.73-59.43-270.23-46.92-334.48-24.89,3.52-49.85,4.69-74.94,3.32,3.78-17.14,7.62-34.34,11.54-51.8-.46-23.69-12.58-41.25-55.45-53.82h121.98c4.11,.03,12.58,1.04,19.48-2.8,39.29,11.21,58.52,29.75,65.1,52.39,4.76,62.23-8.14,133.12,2.8,387.65-13.68,1.43-28.28,1.3-43.59-.46Z" style="fill:#20386f; fill-rule:evenodd;"/><path d="M1040.77,653.19h1.89c4.11,.03,12.58,1.04,19.48-2.8,39.29,11.24,58.52,29.75,65.1,52.39,4.76,62.23-8.14,133.12,2.87,387.65-8.21,.91-16.68,1.17-25.48,.91-22.61-88.49-76.37-305.48-15.77-399.02-14.27-15.09-30.24-28.12-48.09-39.13Z" style="fill:#1d417f; fill-rule:evenodd;"/><path d="M699.84,196.27c7.75-9.94,14.66-19.16,16.68-25.71-1.63-4.46-3.26-10.13-4.95-16.97-29.19-19.81-33.23-34.5-11.99-44.02,4.3,2.38,9.58,9.77,15.9,22.16,5.08-.2,8.93-2.8,11.53-7.75-6.06-20.92-9.97-37.86-11.79-50.89,14.4-21.37,48.09-24.44,92.66-18.67,2.02,11.86,3.78,24.44,5.08,37.7,7.88,7.23,6.84,34.18-.39,65.16,3.58,17.66-7.3,27.27-32.71,28.9-.33,6.26,2.09,14.21,2.28,15.15h0v.03c.06,.03,.06,.1,.13,.2,23.13,55.88-76.11,59.33-82.43-5.28Z" style="fill:#f9af79; fill-rule:evenodd;"/><path d="M807.88,54.41c-44.57-5.77-78.26-2.7-92.66,18.67,1.82,13.03,5.73,30.01,11.79,50.89-2.61,4.95-6.45,7.53-11.53,7.75-6.32-12.38-11.6-19.78-15.9-22.16-21.24,9.51-17.2,24.18,11.99,44.02,1.69,6.84,3.32,12.51,4.95,16.97-26.33-5.86-48.29-29.39-51.35-39.55-30.69-60.41,3.52-85.92,21.76-95.23,8.08-59.79,95.01-6.94,138.47-35.78,17.33,23.92-4.04,53.86-17.53,54.41Z" style="fill:#20386f; fill-rule:evenodd;"/><path d="M746.89,185.39c12.25,.98,23.26,1.24,32.97,.78-.26,4.27,.85,9.42,1.63,12.48-15.77-.39-27.3-4.82-34.6-13.26Z" style="fill:#ed7d57; fill-rule:evenodd;"/><path d="M655.92,746.5c-51.35-18.44-58.39-69.59-35.77-146.84,18.57,15.18,65.49,21.54,140.69,19.09l-1.76,6.68c-.07,.29-.13,.62-.13,.91h-83.8c.26,12.77-.26,26.03,18.64,26.85h226.89c42.88,12.58,55,30.14,55.45,53.82-27.17,121.33-51.35,232.63-84.19,386.28-11.14,6.25-26.33,5.73-45.55-1.43-15.44-149.09-11.21-257.52,12.71-325.23-63.53,.19-131.24-8.41-203.18-20.14Z" style="fill:#1d417f; fill-rule:evenodd;"/><path d="M655.86,746.5c-51.28-18.44-58.32-69.59-35.71-146.84,3.98,3.23,9.19,6.06,15.7,8.47-18.7,79.4,1.63,122.86,61.97,127.03,70.38,10.49,128.7,15.51,175.03,15.12-20.39,132.34-23.91,247.75-10.49,346.21-4.95-.98-10.3-2.48-15.97-4.62-15.44-149.09-11.21-257.52,12.71-325.23-63.53,.19-131.24-8.41-203.24-20.14Z" style="fill:#20386f; fill-rule:evenodd;"/><path d="M1125.48,1090.82c1.3,4.82,3.39,9.32,6.26,13.55-13.75,1.3-8.47,18.96-45.55,2.74,1.56-4.69,2.41-10.3,2.61-16.94,12.84,1.43,25.02,1.56,36.69,.65Z" style="fill:#f9af79; fill-rule:evenodd;"/><path d="M891.81,1173.77c-25.28-10.43-29.13-27.43-43.01-33.95-14.01-6.52-15.58-18.12-1.89-30.76,10.1,8.08,22.61,17.99,29.26,12.71,4.49-3.52,19.48-3.26,22.48,1.89,13.1,30.43,31.34,20.72,34.93,34.67,.46,18.38-25.87,22.03-41.77,15.44Z" style="fill:#0e2952; fill-rule:evenodd;"/><path d="M887.51,1095.38c-.26,8.08,.85,16.22,3.32,24.37-5.41-.85-11.99-.13-14.66,2.02-6.13,4.89-17.33-3.32-26.98-10.95,1.56-4.36,2.61-9.97,3.13-16.88,14.14,4.43,25.87,4.89,35.19,1.43Z" style="fill:#f9af79; fill-rule:evenodd;"/><path d="M636.7,390.62c6.58-11.83,13.49-27.73,20.79-47.73-3.98,23.29-3.71,40.04-10.1,59.17,5.15,27.07,7.3,54.67,6.71,82.5-8.6-6.48-17.4-13.23-26.2-20.27-1.43-19.29-3.26-34.67-5.41-46.17,4.3-8.57,9.06-17.76,14.21-27.5h0Zm225.85,4.66c-5.15,1.82-10.23,3.29-15.18,4.46,1.89-29.65,3.13-54.12,3.71-73.44,5.67,28.54,9.51,51.54,11.47,68.98h0Zm-248.85,196.92c5.86-17.89,10.1-36.46,12.64-55.68,7.36,2.84,14.92,5.64,22.68,8.5-3.13,21.05-7.56,42.13-13.23,63.11-11.08-4.14-18.44-9.48-22.09-15.93Z" style="fill:#466fb5; fill-rule:evenodd;"/><path d="M766.7,72.17c-13.16-2.9-35.84,11.31-28.48,12.81,2.41,.46,9.12-3.58,11.73-4.33,5.15-1.4,15.18-.68,17.98-4.1,1.17-1.4,.46-3.98-1.24-4.37Z" style="fill:#20386f; fill-rule:evenodd;"/><path d="M786.77,76.34c2.87,3.39,12.84,2.64,18.05,4.07,2.54,.72,9.32,4.76,11.73,4.27,7.36-1.5-15.31-15.77-28.48-12.74-1.89,.46-2.48,3-1.3,4.4Z" style="fill:#20386f; fill-rule:evenodd;"/><path d="M754.84,103.77c-3.78,0-6.78-14.56,2.48-14.56,4.95,0,3.78,14.56-2.48,14.56Z" style="fill:#20386f; fill-rule:evenodd;"/><path d="M802.47,103.87c3.84,0,6.84-14.53-2.48-14.53-4.89,0-3.78,14.53,2.48,14.53Z" style="fill:#20386f; fill-rule:evenodd;"/><path d="M786.9,128.44c-.91-1.4,1.63-2.48,3.06-3.45,5.47-3.52,6.78-.72-5.21-24.5-2.35-4.66-4.17-6.97-2.41-7.75,1.56-.69,1.82,1.37,4.5,6.68,13.03,25.87,11.86,22.51,1.69,29.32-.52,.36-1.24,.26-1.63-.29Z" style="fill:#ed7d57; fill-rule:evenodd;"/><path d="M769.04,150.17c-1.56-2.83,2.54-2.05,27.56-4.72,7.43-.75-14.6,28.38-27.56,4.72Z" style="fill:#ed7d57; fill-rule:evenodd;"/></svg>