<?xml version="1.0" encoding="UTF-8"?><svg id="a" xmlns="http://www.w3.org/2000/svg" viewBox="0 0 2221.71 1640.35"><path d="M1160.41,62.13c-265.82,0-377.82,190.2-569.72,338.05C336.68,595.87,82.71,468.48,42.05,1129.67c-36.2,588.47,415.46,63.71,1052.28,274.51,636.82,210.8,1285.41,295.69,1092.95-386.34C1994.82,335.8,1778.06,62.13,1160.41,62.13Z" style="fill:#e0e8f5; fill-rule:evenodd;"/><path d="M1456.67,424.7c4.92-1.22,10.18-1.12,15.01,.45-3.88-29.74,24.86-61.06,54.78-43.48,2.07-13.36,8.67-26.48,19.89-34.03,11.22-7.54,27.36-8.27,37.88,.22,.32-14.67,9.64-28.26,22.14-35.96,12.48-7.71,27.73-10.05,42.37-9,16.13,1.17,32.12,7.37,44.18,18.27,14.18,12.82,16.65,29.77,15.59,48.38,7.65-1.5,15.69-2.01,23.14,.3,21.18,6.56,24.99,35.59,19.66,54.01,13.38-2.73,27.58-5,40.43-.38,12.84,4.62,23.36,18.57,19.4,31.64,7.57-3.1,15.33-6.21,23.49-6.62,8.17-.41,16.97,2.36,21.73,9.01,6.43,8.97,3.52,21.88-2.89,30.87-8.56,12.02-22.42,19.57-36.84,22.74-24.89,5.48-52.25-1.77-71.17-18.85,3.54,3.2-26.34,20.16-29.19,21.1-12,3.96-24.2,8.08-36.89,4.98-13.68-3.35-25.52-12.5-33.8-23.9-28.79,23.09-74.19,22.07-101.92-2.29-26.84,22.11-70.19,20.53-95.35-3.49-10.45,4.13-23.58,5.95-31.89-1.61-6.37-5.79-7.56-16.43-2.65-23.49,4.91-7.06,15.32-9.62,22.95-5.66-2.4-9.43,.7-20.05,7.8-26.71,3.39-3.18,7.63-5.39,12.15-6.5Z" style="fill:#fff; fill-rule:evenodd;"/><path d="M1708.5,369.55c1.06-18.61-1.41-35.56-15.59-48.38-12.06-10.9-28.04-17.1-44.18-18.27-14.64-1.06-29.88,1.29-42.37,9,24.76-3.57,52.09-2.39,71.85,12.94,5.04,3.91,9.49,8.68,12.49,14.3,3.38,6.33,4.82,13.59,4.68,20.76-.34,16.66-9.31,32.57-22.38,42.9-13.07,10.34-29.88,15.36-46.53,15.74,16.99,3.95,35.46,1.18,50.53-7.6,15.08-8.78,30.5-23.97,31.49-41.4Z" style="fill:#f6fbfd; fill-rule:evenodd;"/><path d="M1584.23,347.86c-10.52-8.5-26.66-7.76-37.88-.22-11.23,7.54-17.82,20.67-19.89,34.03-1.4,8.96,7.31,16.65,15.3,20.92,8,4.28,17.48,5.19,26.46,3.91-8.84-.9-16.01-8.11-19.45-16.3-4.4-10.46-3.57-23.19,2.95-32.49,6.51-9.29,21.49-12.57,32.51-9.85Z" style="fill:#f6fbfd; fill-rule:evenodd;"/><path d="M1471.68,425.14c-4.83-1.57-10.08-1.67-15.01-.45-4.52,1.11-8.75,3.32-12.15,6.5-7.1,6.65-10.2,17.28-7.8,26.71-7.63-3.96-18.04-1.4-22.95,5.66-4.91,7.06-3.72,17.7,2.65,23.49,8.31,7.56,21.44,5.74,31.89,1.61,25.16,24.02,68.51,25.61,95.35,3.49,27.74,24.36,73.14,25.39,101.92,2.29,8.28,11.4,20.12,20.54,33.8,23.9,12.7,3.1,24.89-1.02,36.89-4.98,2.85-.94,32.73-17.9,29.19-21.1,18.92,17.08,46.27,24.32,71.17,18.85,14.42-3.17,28.27-10.72,36.84-22.74,6.41-8.99,9.32-21.9,2.89-30.87-4.76-6.65-13.55-9.43-21.73-9.01-8.16,.41-15.92,3.53-23.49,6.62,3.96-13.07-6.56-27.02-19.4-31.64-12.85-4.62-27.06-2.35-40.43,.38,5.33-18.42,1.53-47.44-19.66-54.01-4.4-1.37-9.01-1.73-13.63-1.5,3.09,15.63,1.56,32.64-7.31,45.81-9.37,13.92-28.03,22.08-43.76,16.23-15.82,14.32-38.1,21.23-59.26,18.36-21.15-2.87-40.78-15.46-52.23-33.47-11.92,8.06-29.78,7.23-39.41-3.46-9.96-11.06-5.02-22.25,.46-33.33,.14-.29,.25-.56,.36-.84-26.14-6.79-48.63,20.96-45.18,47.49Z" style="fill:#f0f3f9; fill-rule:evenodd;"/><path d="M1456.67,424.7c4.92-1.22,10.18-1.12,15.01,.45-3.46-26.53,19.04-54.29,45.18-47.49-9.87,.62-19.41,5.5-25.7,13.15-6.28,7.63-9.55,17.56-9.7,27.45-.06,3.84,.34,7.75,1.77,11.31,3.81,9.42,13.85,14.56,23.32,18.25-8.97,2.04-18.04-2.73-25.43-8.23-7.37-5.5-15.58-12.45-24.45-14.89Z" style="fill:#e3edf3; fill-rule:evenodd;"/><path d="M1745.46,492.27c18.92,17.08,46.27,24.32,71.17,18.85,14.42-3.17,28.27-10.72,36.84-22.74,6.41-8.99,9.32-21.9,2.89-30.87,.08,17.5-16.97,32.19-33.81,36.94-16.85,4.74-35.11,.67-50.9-6.87-7.58-3.62-14.94-8.15-20.2-14.69-5.26-6.54-8.19-15.38-6.09-23.51-6.25,12.73-3.95,29.3,.11,42.9Z" style="fill:#e3edf3; fill-rule:evenodd;"/><path d="M1645.59,494.44c-28.79,23.09-74.19,22.07-101.92-2.29-26.84,22.11-70.19,20.53-95.35-3.49-10.45,4.13-23.58,5.95-31.89-1.61-6.37-5.79-7.56-16.43-2.65-23.49,4.36,14.46,25.17,20.45,37.44,11.64-3.75-5.47-5.69-12.15-5.45-18.78,13.4,15.22,34.65,23.15,54.74,20.44,20.11-2.71,38.49-15.98,47.38-34.22,.53,11.91-1.16,23.92-4.93,35.23,26.4,26.56,69.27,33.57,102.63,16.58Z" style="fill:#e3edf3; fill-rule:evenodd;"/><path d="M1940.15,1308.87c48.07-26.53,52.33-103,1.71-128.68-6.21-3.15-15.48-8.04-22.39-9.04-3.51-.52-26.46,2.44-26.21,7.6-.85-17.54-13.85-32.48-28.99-41.38-38.01-22.36-92.3-10.59-117.66,25.48-25.35,36.07-18.04,91.15,15.87,119.34-13.49-6.04-30.75-2.05-40.22,9.29-9.46,11.35-10.3,29.05-1.95,41.24-17.83-10.3-43.3-4-54.25,13.44-27.03-5.83-55.78-3.45-81.49,6.76-5.73,2.28-11.55,5.13-15.24,10.07-3.7,4.94-4.54,12.51-.36,17.04,2.68,2.92,6.76,4.01,10.64,4.79,14.83,2.95,30.07,3.04,45.2,3.11,70.71,.34,141.41,.68,212.12,1.02,7.12,.03,14.5,.02,20.98-2.91,6.49-2.93,11.86-9.62,10.87-16.68,10.34,8.18,22.53,14.51,35.64,15.94,13.1,1.43,27.18-2.58,36.08-12.31,41.21,11.16,84.73,13.75,126.97,7.54,6.95-1.03,14.1-2.37,19.97-6.23,5.86-3.87,10.19-10.88,8.89-17.79-1.3-6.93-7.91-11.88-14.79-13.39-6.89-1.49-14.05-.23-20.96,1.17,2.72-13.46-5.42-27.38-16.91-34.9-11.48-7.51-25.66-9.68-39.37-10.12-21.72-.68-43.57,2.59-64.14,9.59Z" style="fill:#fff; fill-rule:evenodd;"/><path d="M2081.53,1343.12c6.88,1.51,13.5,6.47,14.79,13.39,1.3,6.91-3.03,13.92-8.89,17.79-5.87,3.86-13.02,5.2-19.97,6.23-42.24,6.21-85.76,3.62-126.97-7.54-8.9,9.73-22.98,13.73-36.08,12.31-13.11-1.43-25.3-7.76-35.64-15.94,.98,7.05-4.38,13.75-10.87,16.68-6.48,2.93-13.86,2.95-20.98,2.91-70.71-.34-141.41-.68-212.12-1.02-15.12-.07-30.37-.15-45.2-3.11-3.89-.77-7.96-1.87-10.64-4.79-4.18-4.53-3.34-12.1,.36-17.04,1.37-1.83,3.03-3.38,4.87-4.71,21.5,6.27,45.23,4.01,67.57,.02,7.64-1.37,15.8-3.2,21.04-8.92,.91-1,1.65-2.17,2.25-3.41,.33,.07,.67,.12,1,.2,10.95-17.44,36.42-23.75,54.25-13.44-8.35-12.19-7.51-29.89,1.95-41.24,9.47-11.34,26.74-15.33,40.22-9.29-25.34-21.07-35.83-57.15-28.92-89.1,3.25,21.99,10.91,43.43,24.56,60.85,16.14,20.59,41.36,34.88,67.5,34.15,3.52-26.91,20.95-51.61,45.12-63.96-13.1,10.01-13.44,31.78-2.23,43.85,11.21,12.08,30.8,14.18,45.63,6.98,14.83-7.18,24.91-22.2,28.8-38.22,5.77-23.82-2.37-43.85-14.81-63.07,4.9,1.95,9.9,4.55,13.74,6.5,50.62,25.68,46.37,102.15-1.71,128.68,5.15-1.76,10.38-3.28,15.68-4.56,17.41,4.59,36.72,7.48,53.93,12.16,18.2,4.94,36.48,16.18,41.99,34.2,2.78-2.31,5.74-4.45,8.84-6.39h0c6.92-1.39,14.07-2.66,20.96-1.16Z" style="fill:#f0f3f9; fill-rule:evenodd;"/><path d="M1940.15,1308.87c48.07-26.53,52.33-103,1.71-128.68-3.84-1.95-8.84-4.55-13.74-6.5,25.32,12.31,38.43,41.54,38.88,69.68,.23,14.57-2.29,30.04-11.81,41.1-8.59,9.94-21.89,14.92-35,15.72-13.1,.8-26.16-2.19-38.74-6,14.87,14.02,40.81,24.55,58.71,14.69Z" style="fill:#e3edf3; fill-rule:evenodd;"/><path d="M1720.3,1332.73c-8.35-12.19-7.51-29.89,1.95-41.24,9.47-11.34,26.74-15.33,40.22-9.29-9.96-1.83-19.44,7.54-21.44,17.47-1.99,9.92,2.12,20.18,8.09,28.36,2.49,3.41,5.38,6.62,9.06,8.69,5.58,3.13,12.3,3.28,18.68,2.97,14.62-.7,31.17-4.8,37.9-17.79,1.28,10.02-5.59,19.74-14.43,24.63-8.85,4.89-19.29,5.86-29.41,6.06-9.54,.2-19.22-.22-28.36-3-9.13-2.78-16.87-8.97-22.26-16.85Z" style="fill:#e3edf3; fill-rule:evenodd;"/><path d="M1569.32,1363c-3.7,4.94-4.54,12.51-.36,17.04,2.68,2.92,6.76,4.01,10.64,4.79,14.83,2.95,30.07,3.04,45.2,3.11,70.71,.34,141.41,.68,212.12,1.02,7.12,.03,14.5,.02,20.98-2.91,6.49-2.93,11.86-9.62,10.87-16.68-11.21,7.88-24.58,9.43-38.28,9.93-16.58,.61-33.36,.59-49.49-3.27-16.13-3.86-31.72-11.93-41.94-25-1.27,10.83,4.11,22.17,13.31,28.02-47.85-5.88-96.31-.36-144.51-1.29-14.04-.26-33.36-1.73-38.55-14.77Z" style="fill:#e3edf3; fill-rule:evenodd;"/><path d="M1868.77,1369.37c10.34,8.18,22.53,14.51,35.64,15.94,13.1,1.43,27.18-2.58,36.08-12.31,41.21,11.16,84.73,13.75,126.97,7.54,6.95-1.03,14.1-2.37,19.97-6.23,5.86-3.87,10.19-10.88,8.89-17.79-5.63,10.9-20.42,13.24-32.64,14.28-14.09,1.2-28.35,.17-42.12-3.02,6.44-1.35,12.44-4.77,16.87-9.63-37.67,9.23-78.32,5.85-113.95-9.48,1.51,6.91-2.83,14.17-9,17.62-6.17,3.45-13.7,3.65-20.63,2.31-22.98-4.41-41.36-26.23-41.83-49.62-3.67,17.09,2.03,39.55,15.74,50.4Z" style="fill:#e3edf3; fill-rule:evenodd;"/><path d="M1020.65,193.5c-19.28,5.76-36.76,20.14-41.66,38.36-11.01-4.34-23.33-6.78-34.67-3.38-11.34,3.39-21.1,13.91-20.59,25.73-10.1-2.16-20.39-4.32-30.67-3.33-9.85,.95-20.61,5.52-26.46,13.86-1.83,2.61-2.96,5.86-2.37,9-7.9-5.37-18.43-6.61-27.73-5.54-5.37,.62-10.81,2.19-14.92,5.7-4.11,3.5-6.6,9.25-5.15,14.45,2.55,9.09,14.16,11.39,23.57,12.01,17.42,1.15,34.85,2.3,52.27,3.46,48.33,3.2,96.96,6.39,145.1,1.01,3.94-.44,8.53-1.4,10.16-5.02,1.5-3.34-.58-7.43-3.67-9.42-3.09-1.99-6.9-2.39-10.55-2.75,22.06,.03,44.11,.06,66.17,.09,17.65,.02,35.3,.04,52.95-.16,18.55-.21,37.49-.75,54.89-7.18,3.38-1.25,7.12-3.24,7.76-6.79,.62-3.42-2.17-6.7-5.44-7.87-3.26-1.17-6.86-.75-10.3-.32,8.78-.41,11.87-13.71,5.97-20.23-5.89-6.53-16.08-7.01-24.6-4.9-8.53,2.12-16.52,6.32-25.22,7.59-6.37-12.09-19.29-21.01-33.01-21.74-8.18-.44-37.03,4.7-39.45,15.01,4.63-19.67-9.07-40.92-28.1-47.7-10.53-3.75-22.73-3.39-34.27,.07Z" style="fill:#fff; fill-rule:evenodd;"/><path d="M866.59,264.73c-1.83,2.61-2.96,5.86-2.37,9-7.9-5.37-18.43-6.61-27.73-5.54-5.37,.62-10.81,2.19-14.92,5.7-4.11,3.5-6.6,9.25-5.15,14.45,2.55,9.09,14.16,11.39,23.57,12.01,17.42,1.15,34.85,2.3,52.27,3.46,48.33,3.2,96.96,6.39,145.1,1.01,3.94-.44,8.53-1.4,10.16-5.02,1.5-3.34-.58-7.43-3.67-9.42-3.09-1.99-6.9-2.39-10.55-2.75,22.06,.03,44.11,.06,66.17,.09,17.65,.02,35.3,.04,52.95-.16,18.55-.21,37.49-.75,54.89-7.18,3.38-1.25,7.12-3.24,7.76-6.79,.62-3.42-2.17-6.7-5.44-7.87-3.26-1.17-6.86-.75-10.3-.32,8.78-.41,11.87-13.71,5.97-20.23-5.89-6.53-16.08-7.01-24.6-4.9-8.53,2.12-16.52,6.32-25.22,7.59-2.66-5.05-6.47-9.54-11-13.12-5.47,10.83-14.17,20.03-24.83,25.83-14.77,8.05-34.99,8.87-50.82,3.19,6.7-6.59,11.83-14.94,14.65-23.89-.2,.41-.35,.83-.46,1.26,1.71-7.29,.91-14.79-1.75-21.7-2.72,9.72-6.48,19.14-12.79,26.93-8.29,10.22-21.93,17.06-34.71,13.91-5.75-1.42-10.91-4.71-15.29-8.7-13.72-12.47-19.58-33.27-14.36-50.69-12.08,7.35-21.69,18.21-25.13,30.98,0,0,0,0,0,0,.03,12.37,5.19,24.75,14.3,33.16-19.36,6.06-42,5.74-61.19-.84,5.72,7.61,13.94,13.3,23.07,15.99-19.31,6.82-41.09,6.4-60.11-1.18-5.3-2.11-10.83-5.24-12.71-10.61-1.9-5.46,.7-11.67,4.9-15.64,.44-.42,.9-.81,1.37-1.18-8.5,1.73-17.03,6.09-22.02,13.18Z" style="fill:#f0f3f9; fill-rule:evenodd;"/><path d="M1199.33,265.4c8.78-.41,11.87-13.71,5.97-20.23-5.89-6.53-16.08-7.01-24.6-4.9,2.83,0,6.36,.36,8.84,1.71,2.49,1.35,4.52,3.75,4.9,6.55,.2,1.5-.05,3.03-.53,4.47-2.1,6.42-8.11,10.87-14.45,13.21-9.51,3.51-19.93,3.17-30.05,2.78,16.74,2.23,33.05-2.79,49.91-3.59Z" style="fill:#e3edf3; fill-rule:evenodd;"/><path d="M1043.86,290.37c3.09,1.98,5.17,6.07,3.67,9.42-1.63,3.62-6.22,4.58-10.16,5.02-48.14,5.38-96.77,2.19-145.1-1.01-17.42-1.15-34.85-2.3-52.27-3.46-9.41-.62-21.02-2.92-23.57-12.01-1.45-5.2,1.04-10.94,5.15-14.45-1.91,3.75-.26,8.36,2.61,11.43,2.88,3.07,6.93,4.74,10.94,6.01,18.3,5.8,37.93,5.06,57.11,4.25-6.12-.84-11.73-4.76-14.62-10.21,24.32,10.83,51.71,11.73,78.31,12.46,16.16,.44,32.54,.86,48.29-2.79-7.55,.14-15.12-2.18-21.32-6.51,20.52,4.22,40.71,7.23,60.96,1.85Z" style="fill:#e3edf3; fill-rule:evenodd;"/><path d="M1033.31,287.62c22.06,.03,44.11,.06,66.17,.09,17.65,.02,35.3,.04,52.95-.16,18.55-.21,37.49-.75,54.89-7.18,3.38-1.25,7.12-3.24,7.76-6.79,.62-3.42-2.17-6.7-5.44-7.87,.09,2.7-2.27,4.95-4.55,6.39-2.29,1.45-4.99,2.04-7.64,2.56-29.88,5.9-60.58,5.78-91.04,5.64-11.87-.06-24.54-.34-34.37-7-11.44,8.33-24.58,14.04-38.73,14.31Z" style="fill:#e3edf3; fill-rule:evenodd;"/><path d="M1097.18,361.58c6.81,23.41,31.3,36.87,54.72,30.07,23.41-6.8,36.87-31.3,30.07-54.71-6.81-23.41-31.3-36.87-54.72-30.07-23.42,6.81-36.88,31.3-30.07,54.71Z" style="fill:#4e66af; fill-rule:evenodd;"/><path d="M929.53,805.02s8.71,19.13,12.43,27.01c3.73,7.88,11.23,8.76,6.41,12.34-4.83,3.58-19.39,20.96-20.94,30.08-1.56,9.12-8.01,68.14-21.26,69.85-13.25,1.71-19.06-25.44-22.7-63.96-3.62-38.48-13.62-39.03-8.13-65.03,1.71-8.11,54.18-10.29,54.18-10.29Z" style="fill:#0e2952; fill-rule:evenodd;"/><polygon points="944.29 799.74 929.53 805.02 945.27 841.04 959.64 836.17 944.29 799.74" style="fill:#eda580; fill-rule:evenodd;"/><path d="M1611.83,780.94s11.97-16.87,16.82-23.91c4.84-7.04,1.89-13.84,7.3-11.51,5.42,2.33,27.33,6.11,35.82,2.94,8.5-3.16,61.71-26.77,69.69-16.39,7.98,10.4-12.18,28.69-43.04,50.74-30.84,22.03-26.38,30.78-51.13,38.94-7.71,2.54-35.46-40.8-35.46-40.8Z" style="fill:#0e2952; fill-rule:evenodd;"/><polygon points="1601.96 773.09 1613.76 782.47 1635.17 751.37 1623.91 742.12 1601.96 773.09" style="fill:#eda580; fill-rule:evenodd;"/><path d="M1267.42,533.43c-3.19,6.81-7.97,19.32-13.14,33.59-2.12,5.86-4.31,11.99-6.48,18.15-10.46,29.84-20.47,60.2-20.47,60.2,0,.01-48.13,119.72-74.7,135.08-52.35,30.26-207.86,67.23-207.86,67.23l-22.97-56.89s86.97-23.73,121.67-41.64c40.26-20.79,68.94-23.95,76.65-60.79,5.13-24.52,11.36-107.08,11.43-107.83,.09-40.9,2.4-94.14,13.01-111.78,8.89-14.82,122.85,64.69,122.85,64.69Z" style="fill:#223f81; fill-rule:evenodd;"/><path d="M1466.83,575.85c-10.13-17.19-59.33-52.55-91.95-72.23-51.69-31.69-88.43-58.43-88.43-58.43,0,0-146.3,76.17-137.21,89.91,17.25,26.07,102.31,29.41,119.79,34.64l35.32,8.08s35.24,8.48,62.3,17.62c36.25,12.24,36.43,26.25,67.36,54.05,27.7,24.89,176.16,142.99,176.16,142.99l34.96-47.72s-162.57-142.23-178.29-168.91Z" style="fill:#223f81; fill-rule:evenodd;"/><path d="M1421.04,231s-11.79,7.24-18.89,9.87c-7.12,2.61-1.15-24.74-1.15-24.74l20.04,14.87Z" style="fill:#f9af79; fill-rule:evenodd;"/><path d="M1396.21,211.41s.91-21.01,1.15-24.22c.24-3.2,5.78-10.25,12.85-17.79,7.06-7.55,20-14.57,21.76-14.28,1.75,.31,3.67-.22,6.93,2.98,3.27,3.21,4.28,7.72,4.28,7.72,0,0,5.87,2.06,6.68,7.7,0,0,5.45,2.19,5.32,8.75,0,0,5.25,2.28,4.76,7.04,0,0-5.54,7.08-6.84,10.29-1.3,3.21-17.98,19.9-32.06,31.4,0,0-12.85,3.62-24.83-19.59Z" style="fill:#f9af79; fill-rule:evenodd;"/><path d="M1430.03,157.03s-17.45,19.56-14.65,22.76c2.8,3.2,5.77,2.67,5.77,2.67l-3.53,11.31s1.88,8.81,10.92,4.18c0,0,.92,8.42,9.11,2.9,0,0,3.08,5.28,7.33,3.4,4.24-1.88,14.95-14.93,14.95-14.93,0,0,1.59-4.04-4.19-7.3,0,0,.31-6.26-5.5-8.73,0,0-.32-5.07-6.63-7.69,0,0-2.21-11.05-11.64-10.47,0,0-1.21,1.08-1.93,1.91Z" style="fill:#f9af79; fill-rule:evenodd;"/><path d="M1397.83,186.52s16.78-6.48,27.5-6c2.43,.11,4.75,.66,5.56,2.95,.82,2.29-1.48,6.37-8.6,9.55-7.13,3.19-14.87,10.55-14.87,10.55,0,0-8.28,1.12-9.59-17.06Z" style="fill:#f9af79; fill-rule:evenodd;"/><path d="M1174.34,220.04s65.01,45.73,107.04,62.77c13.18,5.35,109.51-75.23,114.56-73.02,5.05,2.22,19.24,34.53,19.24,34.53,0,0-119.41,102.21-128.22,100.66-8.82-1.55-137.3-66.74-147.22-78.98-9.92-12.21-15.01-29.31-3.45-41.57,16.21-17.21,38.05-4.39,38.05-4.39Z" style="fill:#223f81; fill-rule:evenodd;"/><path d="M1191.69,177s29.58,42.52,37.38,69.38c7.8,26.87,7.79,103.27,11.64,118.43,3.84,15.17,45.75,80.38,45.75,80.38l-149.66,88.44s-16.43-41.39-30.35-92.76c-13.92-51.35-11.1-97.58-15.82-127.88-16.08-103.39,59.29-149.08,59.29-149.08l41.78,13.1Z" style="fill:#e0e8f5; fill-rule:evenodd;"/><path d="M1226.49,41.03s20.49,20.98,14.96,26.74c-4.57,4.76,14.31,25.7,17.01,29.23,2.7,3.53-7.97,9.71-9.67,12.97-1.71,3.25,.08,36.83-9.11,40.49-9.19,3.67-56.05,1.04-71.12-7.7-15.07-8.74-40.19-60.52-39.02-85.73,1.16-25.21,60.91-52.58,96.94-15.99Z" style="fill:#f9af79; fill-rule:evenodd;"/><path d="M1209.31,151.83s-.41,2.85-.98,7.25c-.23,1.85-.49,3.97-.76,6.26-.2,1.76-.41,3.61-.63,5.52-1.28,12-2.4,26.47-1.26,33.17,2.14,12.51-50.08-41.44-50.08-41.44,0,0,5.64-40.61,4.64-86.46-1.01-45.84,49.08,75.71,49.08,75.71Z" style="fill:#f9af79; fill-rule:evenodd;"/><path d="M1230.7,45.65s5.99-30.71-24.51-43.49c-30.52-12.77-66.29,35.22-71.06,38.02-4.77,2.81-33.71,13.35-3.97,60.35,26.14,41.31,26.89,38.82,26.89,38.82,0,0,2.88-25.26,7.13-30.69,6.64-8.49,25.43-12.29,25.43-12.29,0,0-15.4-20.73-2.67-27.94,12.74-7.2,27.46-23.96,42.77-22.78Z" style="fill:#20386f; fill-rule:evenodd;"/><path d="M1172.22,87.25c-2.12-2.84-9.95-15.43-19.4-4.02-9.46,11.41,17.03,31.78,19.17,31.52,2.15-.25,18.05-3.59,.23-27.49Z" style="fill:#f9af79; fill-rule:evenodd;"/><path d="M1156.38,156.16s32.01,31.8,51.36,39.14l2.59,25.56-60.41-56.95,6.47-7.74Z" style="fill:#e0e8f5; fill-rule:evenodd;"/><polygon points="1286.45 445.19 1277.74 431.41 1130.7 517.36 1137.29 534.96 1286.45 445.19" style="fill:#9c7357; fill-rule:evenodd;"/><path d="M1223.84,268.91c-.7,9.87-1.17,19.8-1.41,29.71h0c-.54,21.81-.06,43.55,1.09,64.54,.4,7.49,.91,14.89,1.47,22.16,6.73,86.67-19.9,159.31-19.9,159.31,0,0-67.22,13.57-85.62,7.07,0,0-22.76-95.52-27.75-192.35-.38-7.48-.67-14.97-.82-22.42h0c-9.04-84.03,10.69-153.53,59.02-173.04,1.29,.88,77.59,53.14,73.93,105.01Z" style="fill:#20386f; fill-rule:evenodd;"/><path d="M1092.1,366.27s15.45,97.34-8.16,188.4c-3.19,12.33,77.83-3.23,77.83-3.23l-69.66-185.17Z" style="fill:#20386f; fill-rule:evenodd;"/><path d="M1209.31,151.83s-.41,2.85-.98,7.25c-.23,1.85-.49,3.97-.76,6.26-27.58-10.38-36.48-21.09-36.74-21.41,12.83,4.64,38.49,7.91,38.49,7.91Z" style="fill:#ed7d57; fill-rule:evenodd;"/><path d="M1207.9,196.81s10.01,15.07,10.62,21.57c.23,2.44-8.34,1.04-8.34,1.04l-2.27-22.62Z" style="fill:#466fb5; fill-rule:evenodd;"/><path d="M1254.29,567.02c-2.12,5.86-4.31,11.99-6.48,18.15l-69.97-32.59c.52,.15,8.98,2.7,19.91,5.38,11.28,2.76,56.53,9.06,56.53,9.06Z" style="fill:#20386f; fill-rule:evenodd;"/><path d="M1160.42,225.04s-68.97,88.71-90.42,133.4c-6.73,14.02-36.38,143.86-39.14,149.22-2.77,5.36-49.92,2.8-49.92,2.8,0,0,33.22-161.54,35.51-171.05,2.29-9.51,98.72-152.64,112.73-162.63,14-9.99,18.77-6.71,31.37,6.72,17.67,18.87-.12,41.54-.12,41.54Z" style="fill:#223f81; fill-rule:evenodd;"/><path d="M1217.19,217.58s8.16,61.47-41.44,80.01c-44.43,16.61-103.87,58.32-120.25,81.95l-19.86,30.66-2.4-32.41s5.22-53.95,140.23-86.06c0,0,43.05-4.06,36.05-78.87,0,0,7.71,1.58,7.67,4.72Z" style="fill:#6d96ce; fill-rule:evenodd;"/><polygon points="904.33 556 874.08 752.61 1091.18 772.38 1100.21 594.83 904.33 556" style="fill:#e5bb9a; fill-rule:evenodd;"/><path d="M843.4,721.56c15.88,9.7,24.09,20.28,30.68,31.05l30.25-196.61-9.51-2.13-51.42,167.69Z" style="fill:#9c7357; fill-rule:evenodd;"/><path d="M904.33,556l9.23,83.11c1.83,9.37,3.98,17.68,18.62,19.35l138.2,18.4c12.32,1.64,13.83-4.46,15.59-12.76l13.75-69.36-195.4-38.74Z" style="fill:#9c7357; fill-rule:evenodd;"/><path d="M987.11,654.91l35.15,4.64c1.94,.25,3.58,1.97,3.5,3.93l-1.39,31.76c-.08,1.96-1.63,3.48-3.55,3.29l-36.84-3.51c-1.93-.18-3.68-1.96-3.5-3.93l3.07-32.9c.19-1.96,1.61-3.54,3.55-3.29Z" style="fill:#fff; fill-rule:evenodd;"/><polygon points="991.88 664.48 989.81 686.68 1015.77 689.15 1016.7 667.76 991.88 664.48" style="fill:#9c7357; fill-rule:evenodd;"/><path d="M945.13,564.09c3.63-7.14,9.85-12.46,17.55-16.06,3.32-1.55,6.91-2.77,10.69-3.66,3.11-4.92,16.34-6.96,31.52-4.55,16.08,2.55,28.52,9.17,28.7,15.07,.93,.64,1.82,1.3,2.67,1.98,9,7.11,14.9,16.63,15.12,28.28l-7.35-1.46c-.72-8.65-5.36-15.77-12.21-21.19-.92-.73-1.88-1.43-2.89-2.1-5.71,2.58-16.07,3.3-27.54,1.48-12.02-1.91-22.01-6.09-26.36-10.55-3.3,.79-6.42,1.85-9.31,3.2-5.5,2.57-10.06,6.23-13.05,11.04l-7.53-1.49Z" style="fill:#9c7357; fill-rule:evenodd;"/><path d="M975.11,569.06s-2.03-5.16-1.82-7.85c0,0,.76-4.87,1.09-8.36,.11-1.11,.16-2.08,.14-2.71-.09-2.62-1.09-8.37,.44-14.76,1.15-4.77,5.77-18.32,8.01-24.81,6.56,.3,27.24,1.09,39.21-.24,2.6,8.11,11.57,36.62,10.93,41.85-.09,.59-.17,1.18-.31,1.72-1.14,5.12-4.13,8.45-5.02,11.06-.35,.95-4.33,10.26-7.23,11.11-4.02,1.19-7.29,.39-9.5-1.47,0,0-7.98,1.98-12.98-.4,0,0-7.32,2.07-12.7-2.66,0,0-7.65,1.27-10.29-2.5Z" style="fill:#f9af79; fill-rule:evenodd;"/><path d="M1237.05,87.9c-2.5,1.07-8.62-7.98-2.55-10.59,3.26-1.38,6.64,8.81,2.55,10.59Z" style="fill:#20386f; fill-rule:evenodd;"/><path d="M1232.92,67.65c4.1-1.58,5.39,1.81,2.83,3.97-.74,.64-15.74,10.88-15.45,9.56,.5-2.7,4.86-10.53,12.62-13.53Z" style="fill:#20386f; fill-rule:evenodd;"/><path d="M1245.96,120.89c-5.41,26.91-24.65,9.77-21.2,8.1,17.53-8.5,21.87-11.39,21.2-8.1Z" style="fill:#fff; fill-rule:evenodd;"/><path d="M90.14,1551.63h16.35v-16.69c0-.79,1.87-1.43,2.94-1.43h0c1.08,0,2.95,.64,2.95,1.43v16.69h16.34c1.26,0,2.29,.76,2.29,1.67v67.25c0,.92-1.04,1.66-2.29,1.66h-16.34v16.7c0,.78-1.88,1.43-2.95,1.43h0c-1.08,0-1.92-.65-1.96-1.43l-.98-16.7h-16.35c-1.26,0-2.28-.75-2.28-1.66v-67.25c0-.92,1.03-1.67,2.28-1.67Z" style="fill:#b0c2e4; fill-rule:evenodd;"/><path d="M149.19,1476.37h16.35v-24.33c0-1.15,1.87-2.09,2.95-2.09h0c1.08,0,2.95,.93,2.95,2.09v24.33h16.34c1.26,0,2.29,1.1,2.29,2.44v98.02c0,1.34-1.04,2.44-2.29,2.44h-16.34v24.33c0,1.15-1.88,2.09-2.95,2.09h0c-1.08,0-1.92-.94-1.96-2.09l-.98-24.33h-16.35c-1.26,0-2.29-1.09-2.29-2.44v-98.02c0-1.33,1.04-2.44,2.29-2.44Z" style="fill:#b0c2e4; fill-rule:evenodd;"/><path d="M208.25,1438.73h16.34v-26.29c0-1.24,1.88-2.25,2.95-2.25h0c1.08,0,2.95,1.01,2.95,2.25v26.29h16.35c1.26,0,2.28,1.17,2.28,2.62v105.9c0,1.44-1.03,2.62-2.28,2.62h-16.35v26.29c0,1.24-1.87,2.26-2.95,2.26h0c-1.08,0-1.92-1.02-1.96-2.26l-.99-26.29h-16.34c-1.26,0-2.29-1.18-2.29-2.62v-105.9c0-1.45,1.04-2.62,2.29-2.62Z" style="fill:#b0c2e4; fill-rule:evenodd;"/><path d="M267.3,1431.66h16.34v-13.5c0-.63,1.88-1.15,2.95-1.15h0c1.08,0,2.94,.53,2.94,1.15v13.5h16.35c1.26,0,2.28,.6,2.28,1.35v54.37c0,.75-1.03,1.36-2.28,1.36h-16.35v13.5c0,.64-1.87,1.15-2.94,1.15h0c-1.08,0-1.92-.51-1.96-1.15l-.99-13.5h-16.34c-1.26,0-2.29-.61-2.29-1.36v-54.37c0-.75,1.04-1.35,2.29-1.35Z" style="fill:#b0c2e4; fill-rule:evenodd;"/><path d="M326.36,1399.67h16.34v-15.46c0-.72,1.88-1.32,2.95-1.32h0c1.09,0,2.95,.6,2.95,1.32v15.46h16.35c1.26,0,2.28,.7,2.28,1.54v62.25c0,.85-1.03,1.55-2.28,1.55h-16.35v15.45c0,.73-1.87,1.32-2.95,1.32h0c-1.07,0-1.91-.59-1.95-1.32l-.99-15.45h-16.34c-1.26,0-2.29-.7-2.29-1.55v-62.25c0-.85,1.04-1.54,2.29-1.54Z" style="fill:#8fa3cf; fill-rule:evenodd;"/><path d="M385.41,1458.28h16.34v-26.24c0-1.24,1.88-2.25,2.95-2.25h0c1.08,0,2.95,1.01,2.95,2.25v26.24h16.34c1.26,0,2.29,1.18,2.29,2.62v105.71c0,1.44-1.03,2.62-2.29,2.62h-16.34v26.24c0,1.24-1.87,2.25-2.95,2.25h0c-1.08,0-1.92-1.01-1.96-2.25l-.99-26.24h-16.34c-1.26,0-2.29-1.18-2.29-2.62v-105.71c0-1.45,1.04-2.62,2.29-2.62Z" style="fill:#8fa3cf; fill-rule:evenodd;"/><path d="M444.47,1486.54h16.34v-21.13c0-.99,1.87-1.81,2.94-1.81h0c1.08,0,2.95,.81,2.95,1.81v21.13h16.34c1.26,0,2.29,.95,2.29,2.12v85.14c0,1.15-1.03,2.11-2.29,2.11h-16.34v21.13c0,1-1.87,1.82-2.95,1.82h0c-1.07,0-1.91-.81-1.96-1.82l-.98-21.13h-16.34c-1.26,0-2.29-.95-2.29-2.11v-85.14c0-1.17,1.03-2.12,2.29-2.12Z" style="fill:#8fa3cf; fill-rule:evenodd;"/><path d="M503.52,1427.57h16.34v-18.11c0-.86,1.87-1.56,2.95-1.56h0c1.08,0,2.94,.7,2.94,1.56v18.11h16.34c1.26,0,2.29,.82,2.29,1.82v72.97c0,1-1.03,1.82-2.29,1.82h-16.34v18.11c0,.86-1.87,1.55-2.94,1.55h0c-1.08,0-1.91-.7-1.96-1.55l-.98-18.11h-16.34c-1.26,0-2.29-.82-2.29-1.82v-72.97c0-1,1.03-1.82,2.29-1.82Z" style="fill:#b0c2e4; fill-rule:evenodd;"/><path d="M562.58,1349.93h16.34v-19.89c0-.93,1.87-1.71,2.95-1.71h0c1.09,0,2.95,.77,2.95,1.71v19.89h16.34c1.26,0,2.29,.89,2.29,1.99v80.14c0,1.09-1.04,1.99-2.29,1.99h-16.34v19.89c0,.93-1.87,1.7-2.95,1.7h0c-1.08,0-1.92-.76-1.96-1.7l-.98-19.89h-16.34c-1.26,0-2.29-.9-2.29-1.99v-80.14c0-1.1,1.03-1.99,2.29-1.99Z" style="fill:#b0c2e4; fill-rule:evenodd;"/><path d="M621.63,1286.7h16.34v-22.88c0-1.09,1.87-1.97,2.95-1.97h0c1.09,0,2.95,.88,2.95,1.97v22.88h16.34c1.26,0,2.28,1.04,2.28,2.29v92.19c0,1.26-1.03,2.29-2.28,2.29h-16.34v22.88c0,1.09-1.87,1.97-2.95,1.97h0c-1.08,0-1.92-.88-1.96-1.97l-.98-22.88h-16.34c-1.26,0-2.29-1.03-2.29-2.29v-92.19c0-1.26,1.03-2.29,2.29-2.29Z" style="fill:#b0c2e4; fill-rule:evenodd;"/><path d="M680.68,1154.91h16.35v-34.99c0-1.66,1.87-3,2.94-3h0c1.09,0,2.95,1.34,2.95,3v34.99h16.34c1.26,0,2.28,1.57,2.28,3.5v140.94c0,1.93-1.03,3.5-2.28,3.5h-16.34v34.99c0,1.65-1.88,3-2.95,3h0c-1.08,0-1.92-1.35-1.96-3l-.98-34.99h-16.35c-1.26,0-2.28-1.57-2.28-3.5v-140.94c0-1.94,1.03-3.5,2.28-3.5Z" style="fill:#8fa3cf; fill-rule:evenodd;"/><path d="M739.73,1224.86h16.35v-34.52c0-1.62,1.87-2.96,2.95-2.96h0c1.09,0,2.95,1.34,2.95,2.96v34.52h16.34c1.26,0,2.28,1.56,2.28,3.45v139.07c0,1.89-1.03,3.45-2.28,3.45h-16.34v34.52c0,1.63-1.88,2.96-2.95,2.96h0c-1.08,0-1.92-1.33-1.96-2.96l-.98-34.52h-16.35c-1.26,0-2.28-1.56-2.28-3.45v-139.07c0-1.89,1.03-3.45,2.28-3.45Z" style="fill:#8fa3cf; fill-rule:evenodd;"/><path d="M798.79,1207.56h16.34v-24.87c0-1.17,1.88-2.13,2.95-2.13h0c1.08,0,2.95,.96,2.95,2.13v24.87h16.33c1.26,0,2.29,1.12,2.29,2.48v100.17c0,1.38-1.03,2.5-2.29,2.5h-16.33v24.87c0,1.17-1.88,2.12-2.95,2.12h0c-1.08,0-1.92-.95-1.96-2.12l-.99-24.87h-16.34c-1.26,0-2.28-1.12-2.28-2.5v-100.17c0-1.36,1.03-2.48,2.28-2.48Z" style="fill:#b0c2e4; fill-rule:evenodd;"/><path d="M857.84,1286.7h16.34v-22.88c0-1.09,1.88-1.97,2.95-1.97h0c1.08,0,2.95,.88,2.95,1.97v22.88h16.34c1.26,0,2.28,1.04,2.28,2.29v92.19c0,1.26-1.03,2.29-2.28,2.29h-16.34v22.88c0,1.09-1.88,1.97-2.95,1.97h0c-1.08,0-1.92-.88-1.96-1.97l-.99-22.88h-16.34c-1.26,0-2.28-1.03-2.28-2.29v-92.19c0-1.26,1.03-2.29,2.28-2.29Z" style="fill:#8fa3cf; fill-rule:evenodd;"/><path d="M916.9,1338.39h16.34v-20.79c0-.98,1.88-1.78,2.95-1.78h0c1.08,0,2.95,.81,2.95,1.78v20.79h16.34c1.26,0,2.28,.93,2.28,2.07v83.72c0,1.14-1.03,2.07-2.28,2.07h-16.34v20.78c0,.99-1.88,1.78-2.95,1.78h0c-1.08,0-1.92-.8-1.96-1.78l-.99-20.78h-16.34c-1.26,0-2.28-.93-2.28-2.07v-83.72c0-1.14,1.03-2.07,2.28-2.07Z" style="fill:#8fa3cf; fill-rule:evenodd;"/><path d="M975.95,1286.7h16.34v-22.88c0-1.09,1.88-1.97,2.95-1.97h0c1.08,0,2.95,.88,2.95,1.97v22.88h16.33c1.26,0,2.29,1.04,2.29,2.29v92.19c0,1.26-1.03,2.29-2.29,2.29h-16.33v22.88c0,1.09-1.88,1.97-2.95,1.97h0c-1.08,0-1.92-.88-1.96-1.97l-.99-22.88h-16.34c-1.26,0-2.29-1.03-2.29-2.29v-92.19c0-1.26,1.04-2.29,2.29-2.29Z" style="fill:#b0c2e4; fill-rule:evenodd;"/><path d="M1035.01,1256h16.34v-28.66c0-1.36,1.87-2.46,2.95-2.46h0c1.08,0,2.95,1.11,2.95,2.46v28.66h16.34c1.26,0,2.29,1.29,2.29,2.86v115.48c0,1.57-1.03,2.87-2.29,2.87h-16.34v28.65c0,1.36-1.87,2.46-2.95,2.46h0c-1.08,0-1.92-1.1-1.97-2.46l-.98-28.65h-16.34c-1.26,0-2.28-1.3-2.28-2.87v-115.48c0-1.57,1.03-2.86,2.28-2.86Z" style="fill:#b0c2e4; fill-rule:evenodd;"/><path d="M1094.06,1142.58h16.34v-35.16c0-1.66,1.87-3.02,2.95-3.02h0c1.08,0,2.94,1.36,2.94,3.02v35.16h16.34c1.26,0,2.29,1.59,2.29,3.51v141.66c0,1.94-1.03,3.52-2.29,3.52h-16.34v35.16c0,1.66-1.87,3.02-2.94,3.02h0c-1.09,0-1.92-1.36-1.97-3.02l-.98-35.16h-16.34c-1.26,0-2.29-1.59-2.29-3.52v-141.66c0-1.93,1.03-3.51,2.29-3.51Z" style="fill:#b0c2e4; fill-rule:evenodd;"/><path d="M1153.12,1082.31h16.34v-27.82c0-1.32,1.87-2.39,2.95-2.39h0c1.08,0,2.95,1.09,2.95,2.39v27.82h16.34c1.26,0,2.29,1.26,2.29,2.78v112.12c0,1.53-1.04,2.78-2.29,2.78h-16.34v27.84c0,1.31-1.87,2.38-2.95,2.38h0c-1.09,0-1.92-1.07-1.97-2.38l-.98-27.84h-16.34c-1.26,0-2.29-1.26-2.29-2.78v-112.12c0-1.53,1.03-2.78,2.29-2.78Z" style="fill:#b0c2e4; fill-rule:evenodd;"/><path d="M1212.17,1013.66h16.34v-33.7c0-1.59,1.87-2.89,2.95-2.89h0c1.08,0,2.95,1.3,2.95,2.89v33.7h16.34c1.26,0,2.29,1.51,2.29,3.36v135.73c0,1.85-1.04,3.37-2.29,3.37h-16.34v33.69c0,1.59-1.87,2.89-2.95,2.89h0c-1.09,0-1.92-1.29-1.97-2.89l-.98-33.69h-16.34c-1.26,0-2.29-1.52-2.29-3.37v-135.73c0-1.85,1.03-3.36,2.29-3.36Z" style="fill:#8fa3cf; fill-rule:evenodd;"/><path d="M1271.23,1063.58h16.34v-29.43c0-1.39,1.87-2.52,2.95-2.52h0c1.08,0,2.95,1.13,2.95,2.52v29.43h16.34c1.26,0,2.29,1.32,2.29,2.94v118.56c0,1.62-1.04,2.95-2.29,2.95h-16.34v29.42c0,1.38-1.88,2.52-2.95,2.52h0c-1.08,0-1.91-1.14-1.96-2.52l-.98-29.42h-16.34c-1.26,0-2.29-1.32-2.29-2.95v-118.56c0-1.61,1.03-2.94,2.29-2.94Z" style="fill:#8fa3cf; fill-rule:evenodd;"/><path d="M1330.27,1003.25h16.35v-34.58c0-1.64,1.87-2.96,2.95-2.96h0c1.09,0,2.95,1.32,2.95,2.96v34.58h16.34c1.26,0,2.29,1.55,2.29,3.45v139.31c0,1.9-1.04,3.45-2.29,3.45h-16.34v34.59c0,1.63-1.88,2.96-2.95,2.96h0c-1.08,0-1.91-1.33-1.96-2.96l-.98-34.59h-16.35c-1.26,0-2.28-1.54-2.28-3.45v-139.31c0-1.9,1.03-3.45,2.28-3.45Z" style="fill:#b0c2e4; fill-rule:evenodd;"/><path d="M1389.33,955.4h16.35v-38.66c0-1.83,1.87-3.32,2.95-3.32h0c1.08,0,2.95,1.49,2.95,3.32v38.66h16.34c1.26,0,2.29,1.74,2.29,3.87v155.76c0,2.12-1.04,3.86-2.29,3.86h-16.34v38.67c0,1.82-1.88,3.31-2.95,3.31h0c-1.08,0-1.91-1.49-1.96-3.31l-.98-38.67h-16.35c-1.26,0-2.28-1.73-2.28-3.86v-155.76c0-2.13,1.03-3.87,2.28-3.87Z" style="fill:#b0c2e4; fill-rule:evenodd;"/><path d="M1448.38,886.06h16.35v-35.53c0-1.67,1.87-3.04,2.94-3.04h0c1.07,0,2.95,1.37,2.95,3.04v35.53h16.34c1.26,0,2.29,1.6,2.29,3.55v143.1c0,1.95-1.04,3.55-2.29,3.55h-16.34v35.53c0,1.67-1.88,3.04-2.95,3.04h0c-1.08,0-1.91-1.37-1.96-3.04l-.98-35.53h-16.35c-1.26,0-2.28-1.6-2.28-3.55v-143.1c0-1.95,1.03-3.55,2.28-3.55Z" style="fill:#b0c2e4; fill-rule:evenodd;"/><path d="M1507.44,883.47h16.35v-18.48c0-.88,1.87-1.58,2.95-1.58h0c1.08,0,2.95,.7,2.95,1.58v18.48h16.34c1.26,0,2.29,.83,2.29,1.84v74.41c0,1.02-1.04,1.85-2.29,1.85h-16.34v18.47c0,.87-1.88,1.58-2.95,1.58h0c-1.08,0-1.92-.71-1.96-1.58l-.98-18.47h-16.35c-1.26,0-2.29-.83-2.29-1.85v-74.41c0-1.01,1.04-1.84,2.29-1.84Z" style="fill:#8fa3cf; fill-rule:evenodd;"/><path d="M1566.49,918.27h16.35v-35.88c0-1.7,1.87-3.07,2.95-3.07h0c1.08,0,2.95,1.38,2.95,3.07v35.88h16.34c1.26,0,2.28,1.61,2.28,3.59v144.52c0,1.97-1.03,3.59-2.28,3.59h-16.34v35.88c0,1.69-1.88,3.07-2.95,3.07h0c-1.08,0-1.92-1.38-1.96-3.07l-.98-35.88h-16.35c-1.26,0-2.28-1.61-2.28-3.59v-144.52c0-1.98,1.03-3.59,2.28-3.59Z" style="fill:#8fa3cf; fill-rule:evenodd;"/><path d="M1625.55,949.06h16.34v-41.21c0-1.93,1.88-3.53,2.95-3.53h0c1.08,0,2.95,1.6,2.95,3.53v41.21h16.35c1.26,0,2.28,1.86,2.28,4.12v166c0,2.27-1.03,4.12-2.28,4.12h-16.35v41.2c0,1.94-1.87,3.53-2.95,3.53h0c-1.08,0-1.92-1.59-1.96-3.53l-.99-41.2h-16.34c-1.26,0-2.29-1.86-2.29-4.12v-166c0-2.26,1.04-4.12,2.29-4.12Z" style="fill:#8fa3cf; fill-rule:evenodd;"/><path d="M1684.6,851.27h16.34v-39.07c0-1.84,1.88-3.35,2.95-3.35h0c1.08,0,2.94,1.51,2.94,3.35v39.07h16.35c1.26,0,2.28,1.76,2.28,3.91v157.41c0,2.15-1.03,3.91-2.28,3.91h-16.35v39.07c0,1.84-1.87,3.35-2.94,3.35h0c-1.08,0-1.92-1.51-1.96-3.35l-.99-39.07h-16.34c-1.26,0-2.29-1.77-2.29-3.91v-157.41c0-2.15,1.04-3.91,2.29-3.91Z" style="fill:#b0c2e4; fill-rule:evenodd;"/><path d="M1743.66,929.78h16.34v-23.44c0-1.1,1.88-2.01,2.95-2.01h0c1.08,0,2.95,.91,2.95,2.01v23.44h16.35c1.26,0,2.28,1.06,2.28,2.35v94.44c0,1.29-1.03,2.34-2.28,2.34h-16.35v23.44c0,1.11-1.87,2.01-2.95,2.01h0c-1.08,0-1.92-.9-1.96-2.01l-.99-23.44h-16.34c-1.26,0-2.29-1.05-2.29-2.34v-94.44c0-1.29,1.04-2.35,2.29-2.35Z" style="fill:#8fa3cf; fill-rule:evenodd;"/><path d="M1802.71,792.25h16.34v-43.34c0-2.04,1.87-3.71,2.95-3.71h0c1.08,0,2.95,1.68,2.95,3.71v43.34h16.34c1.26,0,2.29,1.95,2.29,4.33v174.58c0,2.38-1.03,4.34-2.29,4.34h-16.34v43.33c0,2.05-1.87,3.72-2.95,3.72h0c-1.08,0-1.92-1.66-1.96-3.72l-.99-43.33h-16.34c-1.26,0-2.29-1.94-2.29-4.34v-174.58c0-2.38,1.04-4.33,2.29-4.33Z" style="fill:#b0c2e4; fill-rule:evenodd;"/><path d="M1861.77,790.2h16.34v-35.17c0-1.66,1.88-3.01,2.95-3.01h0c1.08,0,2.95,1.36,2.95,3.01v35.17h16.34c1.26,0,2.29,1.58,2.29,3.51v141.66c0,1.94-1.03,3.51-2.29,3.51h-16.34v35.17c0,1.66-1.87,3.01-2.95,3.01h0c-1.07,0-1.91-1.35-1.95-3.01l-.99-35.17h-16.34c-1.26,0-2.29-1.58-2.29-3.51v-141.66c0-1.93,1.03-3.51,2.29-3.51Z" style="fill:#b0c2e4; fill-rule:evenodd;"/><path d="M1920.82,666.45h16.34v-43.69c0-2.06,1.88-3.74,2.95-3.74h0c1.09,0,2.95,1.68,2.95,3.74v43.69h16.34c1.27,0,2.29,1.96,2.29,4.37v176.02c0,2.4-1.03,4.37-2.29,4.37h-16.34v43.7c0,2.05-1.87,3.74-2.95,3.74h0c-1.07,0-1.91-1.69-1.95-3.74l-.99-43.7h-16.34c-1.26,0-2.29-1.96-2.29-4.37v-176.02c0-2.4,1.04-4.37,2.29-4.37Z" style="fill:#8fa3cf; fill-rule:evenodd;"/><path d="M1979.88,733.69h16.34v-22.91c0-1.08,1.87-1.96,2.95-1.96h0c1.09,0,2.95,.89,2.95,1.96v22.91h16.34c1.26,0,2.29,1.03,2.29,2.29v92.3c0,1.26-1.03,2.29-2.29,2.29h-16.34v22.91c0,1.08-1.87,1.96-2.95,1.96h0c-1.07,0-1.91-.89-1.95-1.96l-.99-22.91h-16.34c-1.26,0-2.29-1.03-2.29-2.29v-92.3c0-1.26,1.04-2.29,2.29-2.29Z" style="fill:#8fa3cf; fill-rule:evenodd;"/><path d="M2038.93,708.53h16.34v-35.33c0-1.67,1.87-3.03,2.95-3.03h0c1.09,0,2.95,1.37,2.95,3.03v35.33h16.34c1.26,0,2.29,1.59,2.29,3.54v142.35c0,1.94-1.04,3.54-2.29,3.54h-16.34v35.34c0,1.66-1.87,3.02-2.95,3.02h0c-1.07,0-1.91-1.36-1.96-3.02l-.99-35.34h-16.34c-1.26,0-2.29-1.59-2.29-3.54v-142.35c0-1.94,1.03-3.54,2.29-3.54Z" style="fill:#b0c2e4; fill-rule:evenodd;"/><path d="M2097.99,684.96h16.34v-30.37c0-1.43,1.87-2.6,2.95-2.6h0c1.09,0,2.95,1.17,2.95,2.6v30.37h16.34c1.26,0,2.29,1.37,2.29,3.03v122.34c0,1.67-1.04,3.04-2.29,3.04h-16.34v30.37c0,1.43-1.87,2.61-2.95,2.61h0c-1.08,0-1.92-1.17-1.96-2.61l-.98-30.37h-16.34c-1.26,0-2.29-1.36-2.29-3.04v-122.34c0-1.67,1.03-3.03,2.29-3.03Z" style="fill:#b0c2e4; fill-rule:evenodd;"/><path d="M2157.04,743.91h16.33v-32.32c0-1.52,1.88-2.77,2.95-2.77h0c1.08,0,2.95,1.25,2.95,2.77v32.32h16.34c1.26,0,2.28,1.46,2.28,3.23v130.22c0,1.77-1.03,3.23-2.28,3.23h-16.34v32.32c0,1.53-1.88,2.77-2.95,2.77h0c-1.08,0-1.92-1.24-1.96-2.77l-.99-32.32h-16.33c-1.26,0-2.29-1.46-2.29-3.23v-130.22c0-1.78,1.03-3.23,2.29-3.23Z" style="fill:#8fa3cf; fill-rule:evenodd;"/><path d="M776.53,834.3c2.35-.35,4.54,1.26,4.89,3.61,.35,2.34-1.26,4.53-3.61,4.88-229.4,35.21-485.7,148.65-768.89,340.31-1.96,1.32-4.63,.8-5.96-1.16-1.32-1.96-.81-4.63,1.15-5.96,284.26-192.37,541.73-306.27,772.41-341.68h0ZM117.91,1183.19c69.23-43.05,145.67-85.01,229.29-125.87,83.67-40.88,174.48-80.66,272.4-119.3,2.21-.87,3.29-3.36,2.44-5.56-.87-2.2-3.35-3.29-5.55-2.44-98.24,38.77-189.27,78.64-273.05,119.57-83.84,40.98-160.54,83.08-230.05,126.31-2.01,1.24-2.62,3.89-1.38,5.91,1.26,2,3.9,2.61,5.92,1.38h0Zm635.97-407.99c-101.31,13.55-200.99,38.77-299.03,75.63-98.05,36.86-194.46,85.37-289.22,145.51-1.99,1.26-2.59,3.92-1.32,5.92,1.26,2,3.92,2.6,5.92,1.32,94.3-59.85,190.19-108.09,287.64-144.74,97.45-36.64,196.5-61.69,297.12-75.16,2.35-.31,4-2.46,3.69-4.8-.3-2.34-2.45-3.99-4.79-3.69Z" style="fill:#fff; fill-rule:evenodd;"/><path d="M463,638.49c32.19,27.61,75.94,47,126.21,50.82,6.59-15.05,11.57-30.31,14.95-45.53-43.56-.33-81.49-15.09-108.99-36.93-9.31,11.36-20.06,22-32.17,31.64Z" style="fill:#c4d1eb; fill-rule:evenodd;"/><path d="M467.25,638.41c31.04,25.73,72.52,43.85,120.02,47.88,5.73-13.15,10.23-26.46,13.5-39.77-41.9-1.06-78.49-15.29-105.55-36.21-8.22,9.99-17.57,19.41-27.97,28.1Z" style="fill:#8fa3cf; fill-rule:evenodd;"/><path d="M503.61,627.89c3.25,2.04,7.21,2.53,10.69,1.66,16.58,9.09,35.43,15.94,55.98,19.69,1.6,3.06,4.99,5.43,9.59,6.03,4.63,.59,9.31,1.04,14.08,1.32-2,6.49-4.31,12.97-6.9,19.41-5.07-.45-10.06-1.06-14.97-1.83-4.74-.74-9.68,0-13.83,1.78-22.65-5-43.43-13.33-61.74-24.1-.7-3.14-2.84-6.16-6.2-8.36-4.46-2.92-8.76-6-12.88-9.2,5.01-4.71,9.73-9.6,14.16-14.64,3.84,2.88,7.85,5.64,12.02,8.25Z" style="fill:#c4d1eb; fill-rule:evenodd;"/><path d="M517.75,647.1c-5.41,7.52-3.62,16.94,5.37,20.6,8.97,3.68,20.9-.62,25.24-9.01,4.38-8.39,.44-17.03-7.46-19.86-7.94-2.81-17.7,.72-23.15,8.27Z" style="fill:#8fa3cf; fill-rule:evenodd;"/><path d="M558.84,662.73c-1.63,3.29,.5,6.82,4.99,7.71,4.48,.9,9.46-1.29,10.87-4.71,1.43-3.43-1.05-6.7-5.32-7.46-4.29-.76-8.9,1.17-10.54,4.46Z" style="fill:#8fa3cf; fill-rule:evenodd;"/><path d="M495.98,636.41c-2.35,2.68-1.57,6.65,1.98,8.79,3.55,2.14,8.39,1.49,10.56-1.37,2.18-2.86,1.01-6.71-2.36-8.67-3.39-1.97-7.83-1.44-10.18,1.24Z" style="fill:#8fa3cf; fill-rule:evenodd;"/><path d="M538.23,587.86c42.39,.95,88.53-11.78,129.83-40.68-4.45-15.82-10.27-30.78-17.3-44.7-33.91,27.36-72.6,39.98-107.71,40.52,0,14.69-1.57,29.73-4.82,44.86Z" style="fill:#c4d1eb; fill-rule:evenodd;"/><path d="M541.46,585.11c40.31,.23,83.89-12.05,123.18-39.03-3.9-13.8-8.86-26.95-14.76-39.31-33.08,25.73-70.41,37.92-104.6,38.89-.03,12.94-1.28,26.15-3.82,39.46Z" style="fill:#8fa3cf; fill-rule:evenodd;"/><path d="M562.91,553.92c3.8-.48,7.18-2.61,9.33-5.5,18.58-3.47,37.51-10.12,55.77-20.25,3.18,1.36,7.31,1.04,11.25-1.41,3.96-2.47,7.87-5.1,11.73-7.9,2.56,6.29,4.89,12.76,6.97,19.39-4.2,2.86-8.45,5.55-12.74,8.07-4.15,2.44-7.49,6.14-9.57,10.14-20.68,10.5-42.05,17.23-63.03,20.49-2.53-1.99-6.1-2.96-10.11-2.53-5.3,.57-10.57,.91-15.79,1.04,.88-6.82,1.43-13.59,1.66-20.3,4.8-.2,9.65-.62,14.53-1.23Z" style="fill:#c4d1eb; fill-rule:evenodd;"/><path d="M586.03,559.82c.58,9.25,7.92,15.4,17.2,12.53,9.27-2.84,15.77-13.72,13.81-22.97-1.93-9.27-10.45-13.45-18.35-10.63-7.92,2.86-13.24,11.77-12.66,21.07Z" style="fill:#8fa3cf; fill-rule:evenodd;"/><path d="M627.72,545.87c.82,3.58,4.71,4.96,8.75,2.8,4.04-2.14,6.49-6.98,5.42-10.54-1.07-3.56-5.07-4.51-8.85-2.39-3.79,2.13-6.14,6.54-5.32,10.13Z" style="fill:#8fa3cf; fill-rule:evenodd;"/><path d="M562.41,565.36c-.11,3.56,3,6.14,7.1,5.54,4.11-.59,7.44-4.17,7.31-7.75-.13-3.59-3.48-5.82-7.32-5.21-3.86,.62-6.97,3.84-7.09,7.41Z" style="fill:#8fa3cf; fill-rule:evenodd;"/><path d="M607.17,257.11c-42.17-4.52-89.22,4.28-132.79,29.6,3.09,16.13,7.62,31.54,13.45,46,36.1-24.4,75.72-33.71,110.75-31.3,1.23-14.64,4.07-29.5,8.59-44.3Z" style="fill:#c4d1eb; fill-rule:evenodd;"/><path d="M603.71,259.57c-40.15-3.63-84.6,4.94-126.03,28.52,2.72,14.08,6.56,27.6,11.4,40.42,35.14-22.86,73.35-31.86,107.5-29.94,1.13-12.89,3.49-25.95,7.13-39Z" style="fill:#8fa3cf; fill-rule:evenodd;"/><path d="M579.7,288.85c-3.84,.16-7.38,2-9.76,4.69-18.8,1.89-38.22,6.92-57.28,15.48-3.06-1.62-7.19-1.65-11.32,.46-4.15,2.13-8.27,4.42-12.35,6.88-2.03-6.48-3.8-13.13-5.31-19.9,4.43-2.5,8.89-4.82,13.38-6.97,4.34-2.08,7.98-5.48,10.39-9.3,21.51-8.72,43.35-13.62,64.54-15.11,2.35,2.19,5.83,3.46,9.85,3.37,5.32-.12,10.6-.01,15.82,.3-1.46,6.72-2.58,13.42-3.38,20.09-4.8-.2-9.66-.2-14.57,0Z" style="fill:#c4d1eb; fill-rule:evenodd;"/><path d="M557.16,281.03c.2-9.26-6.59-16.01-16.09-13.94-9.47,2.05-16.86,12.34-15.69,21.72,1.15,9.4,9.28,14.29,17.39,12.14,8.13-2.19,14.18-10.62,14.39-19.93Z" style="fill:#8fa3cf; fill-rule:evenodd;"/><path d="M514.45,291.41c-.53-3.64-4.28-5.34-8.48-3.53-4.21,1.79-7.07,6.42-6.3,10.04,.76,3.64,4.66,4.92,8.61,3.13,3.96-1.8,6.68-6,6.16-9.64Z" style="fill:#8fa3cf; fill-rule:evenodd;"/><path d="M581.17,277.49c.42-3.54-2.47-6.37-6.61-6.12-4.14,.24-7.77,3.53-7.94,7.11-.18,3.59,2.97,6.09,6.87,5.8,3.9-.29,7.27-3.24,7.68-6.79Z" style="fill:#8fa3cf; fill-rule:evenodd;"/><path d="M393.31,590.59c-9.93,26.93-19.73,53.91-29.41,80.93-11.78-4.21-24.66-4.23-36.48-.02-9.64-27.03-19.16-54.12-28.53-81.24,30.57-10.8,63.94-10.69,94.42,.33Z" style="fill:#c4d1eb; fill-rule:evenodd;"/><path d="M387.12,590.41c-8.4,26.18-16.69,52.4-24.86,78.65-10.79-3.36-22.36-3.37-33.19-.02-8.11-26.27-16.12-52.57-24-78.92,26.75-8.19,55.35-8.1,82.05,.28Z" style="fill:#8fa3cf; fill-rule:evenodd;"/><path d="M327.06,599.05c.39,2.84-2.1,5.78-6.01,8.44,2.88,13.83,5.79,27.66,8.74,41.48,3.42,1.11,5.65,3.57,6.06,6.56,.44,3.01,.87,6.03,1.32,9.04,5.7-.83,11.51-.82,17.2,.04,.45-3.01,.91-6.03,1.37-9.03,.42-2.91,2.56-5.3,5.85-6.43,3.05-13.91,6.14-27.8,9.25-41.69-3.67-2.63-5.97-5.49-5.52-8.24,.61-3.63,1.21-7.26,1.81-10.88-13.78-2.21-27.83-2.27-41.63-.2,.52,3.64,1.04,7.28,1.57,10.92Z" style="fill:#c4d1eb; fill-rule:evenodd;"/><path d="M345.87,614.21c15.28,.02,25.87,8.36,24.01,14.15-1.8,5.89-12.48,7.94-24.12,8.02-11.64-.11-22.31-2.18-24.05-8.09-1.79-5.81,8.9-14.12,24.16-14.08Z" style="fill:#8fa3cf; fill-rule:evenodd;"/><path d="M347.24,643.87c4.25,.08,7.37,2.83,6.98,5.64-.38,2.82-3.6,4.73-7.21,4.66-3.6-.08-6.73-2.11-6.99-4.95-.26-2.83,2.96-5.44,7.21-5.36Z" style="fill:#8fa3cf; fill-rule:evenodd;"/><path d="M348.41,597.31c6.75,.14,11.85,3.16,11.44,5.97-.4,2.83-5.63,4.46-11.72,4.34-6.08-.14-11.21-2-11.46-4.85-.25-2.83,5-5.62,11.74-5.46Z" style="fill:#8fa3cf; fill-rule:evenodd;"/><path d="M717.55,597.51c-3.2,35.22,19.03,78.36,64.94,101.87,27.43-8.26,51.51-23.7,69.83-44.34-50.31,2.52-87.09-25.44-97.83-56.37-10.65,3.29-23.59,3.56-36.94-1.16Z" style="fill:#c4d1eb; fill-rule:evenodd;"/><path d="M719.91,600.55c-1.19,33.88,21.07,73.89,64.71,95.82,23.54-7.58,44.45-20.54,61.13-37.58-47.68-.42-82-27.68-92.55-57.57-9.82,2.67-21.34,2.89-33.28-.67Z" style="fill:#8fa3cf; fill-rule:evenodd;"/><path d="M751.5,618.01c1.6,3.16,4.82,5.67,8.57,6.81,10.42,14.62,26.65,27.26,47.39,34.64-.87,3.17,.74,6.13,5.45,7.56,4.74,1.41,9.68,2.57,14.79,3.43-9.17,6.96-19.23,12.87-30,17.56-4.86-2-9.5-4.24-13.89-6.69-4.28-2.35-10.44-3.8-16.79-4.6-18.24-13.81-30.74-31.3-37.02-49.12,1.86-2.02,2.3-5.04,1.33-8.46-1.26-4.53-2.13-9.06-2.61-13.53,6.18,.88,12.15,.83,17.76,.04,1.28,4.15,2.95,8.3,5.02,12.36Z" style="fill:#c4d1eb; fill-rule:evenodd;"/><path d="M752.05,638.16c-10.42,1.62-16.96,7.18-12.06,14.73,4.81,7.57,21.41,12.12,34.06,7.71,12.68-4.38,14.79-13.01,7.77-17.7-7.1-4.81-19.25-6.3-29.77-4.74Z" style="fill:#8fa3cf; fill-rule:evenodd;"/><path d="M781.65,667.69c-5.04,1.85-6.45,5.18-2.6,7.66,3.84,2.48,11.75,2.61,17.09,.05,5.35-2.55,5.87-6.18,1.75-7.95-4.14-1.78-11.18-1.6-16.25,.24Z" style="fill:#8fa3cf; fill-rule:evenodd;"/><path d="M740.33,618.86c-3.48,.13-5.61,2.78-4.3,6.25,1.28,3.48,5.92,6.22,9.85,5.78,3.96-.43,5.33-3.56,3.58-6.72-1.77-3.17-5.64-5.43-9.13-5.31Z" style="fill:#8fa3cf; fill-rule:evenodd;"/><path d="M134.77,825.31c3.2-35.21-19.02-78.35-64.94-101.87-27.43,8.26-51.52,23.71-69.83,44.35,50.31-2.53,87.08,25.44,97.83,56.37,10.65-3.29,23.59-3.56,36.94,1.16Z" style="fill:#c4d1eb; fill-rule:evenodd;"/><path d="M132.4,822.27c1.21-33.89-21.07-73.89-64.69-95.82-23.54,7.57-44.46,20.54-61.14,37.57,47.69,.42,82,27.68,92.56,57.57,9.82-2.67,21.34-2.89,33.27,.67Z" style="fill:#8fa3cf; fill-rule:evenodd;"/><path d="M100.82,804.81c-1.6-3.17-4.82-5.67-8.56-6.81-10.43-14.62-26.65-27.26-47.4-34.64,.87-3.17-.74-6.13-5.45-7.56-4.74-1.42-9.68-2.57-14.79-3.43,9.17-6.96,19.23-12.86,30-17.56,4.85,2,9.5,4.24,13.9,6.69,4.27,2.35,10.43,3.8,16.79,4.6,18.23,13.81,30.73,31.3,37.01,49.12-1.86,2.02-2.3,5.04-1.33,8.46,1.27,4.53,2.14,9.06,2.61,13.53-6.17-.88-12.15-.83-17.76-.04-1.28-4.16-2.95-8.3-5.02-12.36Z" style="fill:#c4d1eb; fill-rule:evenodd;"/><path d="M100.28,784.66c10.42-1.62,16.96-7.18,12.06-14.74-4.82-7.57-21.41-12.12-34.06-7.71-12.67,4.38-14.79,13.01-7.77,17.7,7.09,4.81,19.26,6.3,29.77,4.75Z" style="fill:#8fa3cf; fill-rule:evenodd;"/><path d="M70.67,755.14c5.05-1.85,6.46-5.19,2.61-7.66-3.84-2.48-11.76-2.6-17.09-.05-5.35,2.55-5.87,6.18-1.75,7.96,4.15,1.78,11.18,1.6,16.24-.24Z" style="fill:#8fa3cf; fill-rule:evenodd;"/><path d="M112,803.96c3.47-.13,5.6-2.78,4.29-6.26-1.29-3.47-5.92-6.21-9.86-5.78-3.94,.42-5.32,3.56-3.56,6.72,1.77,3.17,5.64,5.43,9.13,5.31Z" style="fill:#8fa3cf; fill-rule:evenodd;"/><path d="M494.93,584.01c-8.89-37.56-54.09-66.14-108.95-54.73-11.45,15.23-18.63,30.01-22.53,42.91,43.77-19.26,83,.91,88.55,30.83,10.29-7.62,24.6-14.61,42.94-19.01Z" style="fill:#c4d1eb; fill-rule:evenodd;"/><path d="M490.97,582.55c-9.73-35.01-52.15-61.12-103.67-51.17-9.81,13.12-16.36,25.88-20.33,37.28,42.37-16.57,79.7,2.51,86.53,31.08,9.4-6.7,21.88-12.87,37.47-17.2Z" style="fill:#8fa3cf; fill-rule:evenodd;"/><path d="M454.76,581.11c-1.77-2.71-4.91-4.11-8.02-4.15-10.78-11.78-28.14-19.27-48.62-18.9-1.24-2.11-4.39-3.41-9.07-2.8-4.7,.62-9.51,1.63-14.36,3.05,2.75-5.82,6.18-11.89,10.35-18.11,5.35-1.06,10.62-1.71,15.75-1.96,4.97-.26,10.49-1.54,15.55-3.44,23.37,2.05,42.89,12.12,55.24,26.46-.88,3.01-.33,6.29,1.58,9.26,2.53,3.93,4.58,8.08,6.1,12.4-7.18,2.76-13.55,5.9-19.09,9.24-1.32-3.87-3.13-7.58-5.41-11.06Z" style="fill:#c4d1eb; fill-rule:evenodd;"/><path d="M449.34,560.97c7.68-5.55,10.35-14.41,2.17-18.69-8.11-4.34-22.8-.7-29.23,6.38-6.54,7.08-3.64,13.51,3.22,16.33,6.97,2.8,16.07,1.61,23.84-4.03Z" style="fill:#8fa3cf; fill-rule:evenodd;"/><path d="M412.3,545.9c2.46-2.83,1.14-5.66-3.49-5.84-4.61-.2-10.5,2.58-12.65,5.69-2.18,3.11-.07,5.14,4.24,5.07,4.32-.09,9.43-2.07,11.91-4.91Z" style="fill:#8fa3cf; fill-rule:evenodd;"/><path d="M464.65,575.42c3.25-1.8,4.63-5.67,2.35-8.51-2.27-2.85-7.19-3.34-10.28-1.27-3.11,2.08-3.36,5.69-1.26,8.28,2.12,2.58,5.92,3.31,9.18,1.5Z" style="fill:#8fa3cf; fill-rule:evenodd;"/><path d="M219.74,735.15c30.13,25.84,71.07,43.99,118.11,47.57,6.17-14.08,10.84-28.37,14-42.62-40.77-.31-76.27-14.13-102.02-34.56-8.71,10.64-18.77,20.59-30.1,29.61Z" style="fill:#c4d1eb; fill-rule:evenodd;"/><path d="M223.71,735.08c29.04,24.08,67.87,41.04,112.32,44.81,5.37-12.31,9.58-24.77,12.64-37.22-39.22-.99-73.47-14.31-98.78-33.89-7.71,9.34-16.45,18.17-26.17,26.3Z" style="fill:#8fa3cf; fill-rule:evenodd;"/><path d="M257.74,725.22c3.04,1.91,6.76,2.37,10.01,1.55,15.52,8.51,33.16,14.92,52.4,18.43,1.49,2.86,4.67,5.09,8.97,5.64,4.33,.56,8.73,.97,13.17,1.24-1.87,6.07-4.02,12.13-6.45,18.16-4.74-.42-9.4-.99-14-1.72-4.45-.69-9.07,0-12.95,1.67-21.2-4.67-40.65-12.47-57.78-22.56-.65-2.94-2.67-5.76-5.81-7.83-4.18-2.73-8.19-5.61-12.05-8.61,4.69-4.41,9.11-8.99,13.26-13.71,3.59,2.7,7.35,5.27,11.25,7.72Z" style="fill:#c4d1eb; fill-rule:evenodd;"/><path d="M270.98,743.2c-5.07,7.04-3.4,15.85,5.02,19.27,8.39,3.45,19.56-.58,23.62-8.43,4.1-7.85,.42-15.94-6.98-18.58-7.44-2.63-16.58,.67-21.67,7.74Z" style="fill:#8fa3cf; fill-rule:evenodd;"/><path d="M309.43,757.83c-1.53,3.08,.47,6.38,4.67,7.22,4.19,.84,8.85-1.21,10.19-4.41,1.33-3.21-.99-6.27-4.99-6.98-4.01-.72-8.33,1.09-9.86,4.17Z" style="fill:#8fa3cf; fill-rule:evenodd;"/><path d="M250.59,733.2c-2.19,2.51-1.47,6.22,1.86,8.23,3.33,2.01,7.86,1.4,9.89-1.28,2.04-2.67,.93-6.28-2.22-8.12-3.17-1.84-7.32-1.35-9.53,1.17Z" style="fill:#8fa3cf; fill-rule:evenodd;"/><path d="M171.99,464.95c39.68,.89,82.85-11.02,121.5-38.07-4.15-14.8-9.61-28.81-16.18-41.84-31.74,25.61-67.95,37.42-100.82,37.93,0,13.75-1.47,27.83-4.51,41.98Z" style="fill:#c4d1eb; fill-rule:evenodd;"/><path d="M175.01,462.37c37.73,.22,78.52-11.28,115.29-36.53-3.65-12.91-8.3-25.22-13.82-36.79-30.97,24.09-65.9,35.49-97.89,36.4-.03,12.11-1.21,24.47-3.58,36.92Z" style="fill:#8fa3cf; fill-rule:evenodd;"/><path d="M195.09,433.18c3.56-.45,6.72-2.45,8.73-5.14,17.39-3.25,35.1-9.47,52.21-18.96,2.98,1.27,6.84,.98,10.52-1.32,3.7-2.31,7.36-4.77,10.97-7.39,2.4,5.88,4.58,11.94,6.52,18.14-3.92,2.68-7.9,5.19-11.92,7.55-3.88,2.28-7.01,5.75-8.96,9.49-19.36,9.82-39.35,16.13-58.99,19.18-2.37-1.86-5.71-2.77-9.45-2.37-4.97,.53-9.9,.85-14.79,.98,.83-6.38,1.35-12.72,1.56-19,4.5-.19,9.03-.58,13.6-1.15Z" style="fill:#c4d1eb; fill-rule:evenodd;"/><path d="M216.72,438.7c.55,8.66,7.42,14.41,16.11,11.73,8.67-2.66,14.76-12.85,12.93-21.5-1.81-8.67-9.78-12.59-17.18-9.95-7.41,2.68-12.39,11.02-11.86,19.72Z" style="fill:#8fa3cf; fill-rule:evenodd;"/><path d="M255.74,425.64c.77,3.35,4.4,4.64,8.19,2.62,3.78-2,6.08-6.54,5.08-9.86-1-3.33-4.74-4.22-8.28-2.24-3.56,1.99-5.75,6.12-4.98,9.48Z" style="fill:#8fa3cf; fill-rule:evenodd;"/><path d="M194.61,443.88c-.1,3.34,2.81,5.75,6.65,5.19,3.84-.55,6.96-3.9,6.83-7.25-.11-3.36-3.25-5.45-6.86-4.87-3.61,.58-6.52,3.6-6.63,6.93Z" style="fill:#8fa3cf; fill-rule:evenodd;"/><path d="M162.69,554.63c20.89,16.89,41.86,33.68,62.92,50.37-7.27,9.17-11.15,20.59-10.97,32.33-26.85,.43-53.73,.74-80.59,.91-.4-30.35,9.72-59.89,28.64-83.6Z" style="fill:#c4d1eb; fill-rule:evenodd;"/><path d="M160.67,560.06c20.68,15.32,41.44,30.53,62.26,45.65-6.21,8.56-9.7,18.82-9.97,29.41-25.73-.69-51.45-1.49-77.17-2.41,.76-26.17,9.44-51.51,24.88-72.65Z" style="fill:#8fa3cf; fill-rule:evenodd;"/><path d="M150.31,615.9c2.63,.51,4.49,3.59,5.67,7.86,13.13,1.6,26.26,3.17,39.4,4.7,2.01-2.7,4.86-3.94,7.64-3.4,2.8,.52,5.61,1.04,8.42,1.54,.97-5.3,2.72-10.44,5.19-15.23-2.54-1.31-5.08-2.61-7.6-3.93-2.44-1.25-3.92-3.87-3.94-7.11-11.42-6.88-22.81-13.78-34.19-20.71-3.43,2.47-6.65,3.64-8.96,2.42-3.03-1.62-6.07-3.24-9.1-4.87-6.09,11.56-10.37,23.99-12.68,36.85,3.38,.63,6.76,1.26,10.15,1.88Z" style="fill:#c4d1eb; fill-rule:evenodd;"/><path d="M169.39,603.78c4.61-13.53,15.18-20.42,19.76-17.04,4.68,3.37,3.29,13.46-.14,23.8-3.59,10.29-8.63,19.12-14.39,18.89-5.69-.16-9.85-12.12-5.23-25.65Z" style="fill:#8fa3cf; fill-rule:evenodd;"/><path d="M196.1,611.46c1.35-3.75,4.72-5.68,7.1-4.49,2.39,1.19,3.12,4.61,1.98,7.79-1.15,3.17-3.9,5.33-6.49,4.71-2.59-.62-3.94-4.26-2.58-8Z" style="fill:#8fa3cf; fill-rule:evenodd;"/><path d="M155.18,596.45c2.15-5.94,6.35-9.55,8.73-8.35,2.38,1.2,2.26,6.33,.32,11.69-1.95,5.36-5.13,9.34-7.73,8.71-2.59-.62-3.48-6.12-1.32-12.05Z" style="fill:#8fa3cf; fill-rule:evenodd;"/><path d="M418.24,463.08c-8.33,35.16-50.63,61.9-101.98,51.23-10.72-14.25-17.43-28.08-21.09-40.16,40.97,18.03,77.68-.84,82.88-28.86,9.63,7.13,23.03,13.67,40.19,17.79Z" style="fill:#c4d1eb; fill-rule:evenodd;"/><path d="M414.53,464.45c-9.12,32.77-48.81,57.21-97.04,47.89-9.17-12.28-15.31-24.22-19.02-34.9,39.65,15.51,74.6-2.35,80.98-29.09,8.79,6.27,20.48,12.05,35.08,16.1Z" style="fill:#8fa3cf; fill-rule:evenodd;"/><path d="M380.64,465.79c-1.66,2.54-4.59,3.85-7.5,3.89-10.1,11.03-26.34,18.04-45.51,17.69-1.16,1.97-4.11,3.2-8.5,2.62-4.4-.58-8.9-1.53-13.44-2.86,2.58,5.45,5.79,11.14,9.7,16.94,5,.99,9.93,1.6,14.74,1.84,4.64,.24,9.81,1.44,14.55,3.22,21.87-1.92,40.14-11.34,51.7-24.77-.82-2.82-.31-5.89,1.48-8.66,2.37-3.67,4.29-7.57,5.71-11.61-6.72-2.58-12.68-5.52-17.87-8.65-1.23,3.62-2.93,7.1-5.06,10.35Z" style="fill:#c4d1eb; fill-rule:evenodd;"/><path d="M375.56,484.64c7.2,5.2,9.69,13.49,2.05,17.49-7.59,4.06-21.34,.65-27.36-5.98-6.12-6.62-3.4-12.64,3.01-15.29,6.52-2.63,15.03-1.51,22.3,3.77Z" style="fill:#8fa3cf; fill-rule:evenodd;"/><path d="M340.89,498.75c2.31,2.65,1.06,5.3-3.26,5.47-4.32,.19-9.83-2.41-11.85-5.32-2.04-2.92-.07-4.82,3.96-4.75,4.05,.08,8.83,1.93,11.14,4.6Z" style="fill:#8fa3cf; fill-rule:evenodd;"/><path d="M389.89,471.12c3.05,1.68,4.34,5.3,2.21,7.97-2.12,2.67-6.73,3.13-9.62,1.18-2.9-1.94-3.14-5.33-1.17-7.74,1.99-2.41,5.53-3.1,8.59-1.41Z" style="fill:#8fa3cf; fill-rule:evenodd;"/><path d="M645.43,444.3c-24.23,20.78-57.15,35.37-94.97,38.25-4.96-11.33-8.72-22.81-11.26-34.27,32.79-.25,61.32-11.36,82.03-27.79,7,8.55,15.09,16.56,24.21,23.81Z" style="fill:#c4d1eb; fill-rule:evenodd;"/><path d="M642.23,444.24c-23.36,19.37-54.57,33-90.31,36.04-4.32-9.89-7.71-19.92-10.17-29.93,31.54-.8,59.07-11.51,79.44-27.25,6.2,7.51,13.22,14.61,21.04,21.14Z" style="fill:#8fa3cf; fill-rule:evenodd;"/><path d="M614.87,436.32c-2.44,1.53-5.43,1.91-8.05,1.25-12.47,6.84-26.65,12-42.12,14.81-1.21,2.31-3.76,4.09-7.22,4.54-3.48,.45-7.01,.78-10.59,1,1.51,4.88,3.24,9.76,5.19,14.61,3.8-.34,7.56-.8,11.26-1.38,3.57-.56,7.29,0,10.41,1.34,17.04-3.76,32.68-10.03,46.46-18.14,.52-2.36,2.14-4.63,4.67-6.29,3.36-2.2,6.59-4.51,9.69-6.93-3.77-3.54-7.32-7.22-10.66-11.02-2.89,2.16-5.91,4.24-9.04,6.21Z" style="fill:#c4d1eb; fill-rule:evenodd;"/><path d="M604.21,450.78c4.08,5.66,2.74,12.74-4.04,15.5-6.75,2.77-15.72-.46-18.99-6.78-3.29-6.31-.33-12.82,5.62-14.94,5.98-2.11,13.33,.54,17.42,6.22Z" style="fill:#8fa3cf; fill-rule:evenodd;"/><path d="M573.3,462.54c1.22,2.47-.37,5.13-3.75,5.81-3.38,.68-7.11-.97-8.19-3.55-1.08-2.58,.79-5.04,4.01-5.62,3.22-.57,6.69,.88,7.93,3.36Z" style="fill:#8fa3cf; fill-rule:evenodd;"/><path d="M620.61,442.73c1.77,2.02,1.19,5-1.49,6.62-2.67,1.62-6.32,1.12-7.95-1.03-1.64-2.15-.76-5.04,1.78-6.52,2.55-1.48,5.89-1.09,7.66,.93Z" style="fill:#8fa3cf; fill-rule:evenodd;"/><path d="M521.22,426.69c-31.91,.71-66.63-8.87-97.7-30.62,3.34-11.9,7.71-23.17,13-33.64,25.52,20.59,54.64,30.08,81.06,30.5,0,11.05,1.18,22.37,3.63,33.76Z" style="fill:#c4d1eb; fill-rule:evenodd;"/><path d="M518.78,424.61c-30.34,.17-63.13-9.07-92.7-29.38,2.94-10.39,6.67-20.28,11.11-29.59,24.9,19.37,52.99,28.54,78.71,29.27,.03,9.74,.98,19.68,2.88,29.69Z" style="fill:#8fa3cf; fill-rule:evenodd;"/><path d="M502.64,401.14c-2.87-.36-5.41-1.97-7.02-4.13-13.98-2.61-28.22-7.62-41.98-15.25-2.39,1.02-5.5,.79-8.46-1.06-2.97-1.85-5.92-3.84-8.83-5.94-1.93,4.73-3.68,9.6-5.24,14.59,3.16,2.16,6.36,4.18,9.58,6.07,3.12,1.83,5.64,4.62,7.21,7.63,15.57,7.9,31.64,12.96,47.44,15.43,1.9-1.5,4.59-2.23,7.6-1.91,3.98,.43,7.95,.69,11.88,.79-.67-5.13-1.09-10.23-1.26-15.28-3.62-.16-7.27-.47-10.93-.93Z" style="fill:#c4d1eb; fill-rule:evenodd;"/><path d="M485.24,405.58c-.44,6.96-5.97,11.59-12.95,9.43-6.98-2.14-11.87-10.32-10.39-17.28,1.45-6.98,7.86-10.13,13.81-8,5.96,2.15,9.96,8.86,9.53,15.85Z" style="fill:#8fa3cf; fill-rule:evenodd;"/><path d="M453.87,395.08c-.62,2.69-3.55,3.73-6.59,2.11-3.04-1.61-4.89-5.25-4.08-7.93,.81-2.68,3.81-3.4,6.66-1.8,2.85,1.6,4.63,4.92,4.01,7.62Z" style="fill:#8fa3cf; fill-rule:evenodd;"/><path d="M503.02,409.74c.08,2.68-2.26,4.62-5.35,4.18-3.09-.45-5.6-3.14-5.5-5.83,.09-2.71,2.61-4.38,5.51-3.92,2.91,.47,5.25,2.89,5.34,5.58Z" style="fill:#8fa3cf; fill-rule:evenodd;"/><path d="M697.87,408.25c7.48,20.27,14.85,40.57,22.13,60.91,8.86-3.17,18.56-3.18,27.45,0,7.26-20.35,14.42-40.73,21.47-61.14-23.01-8.13-48.11-8.04-71.06,.25Z" style="fill:#c4d1eb; fill-rule:evenodd;"/><path d="M702.53,408.12c6.33,19.7,12.56,39.43,18.71,59.19,8.12-2.52,16.84-2.53,24.98,0,6.11-19.77,12.13-39.56,18.06-59.39-20.12-6.17-41.66-6.09-61.75,.21Z" style="fill:#8fa3cf; fill-rule:evenodd;"/><path d="M747.74,414.62c-.3,2.14,1.57,4.35,4.52,6.35-2.16,10.41-4.35,20.82-6.58,31.22-2.57,.83-4.25,2.69-4.56,4.94-.33,2.27-.66,4.53-.99,6.8-4.29-.62-8.66-.62-12.94,.03-.34-2.27-.69-4.54-1.04-6.8-.32-2.19-1.93-3.98-4.4-4.84-2.3-10.46-4.62-20.92-6.96-31.37,2.77-1.97,4.49-4.13,4.16-6.2-.46-2.73-.91-5.46-1.37-8.19,10.37-1.66,20.95-1.71,31.34-.15-.39,2.74-.79,5.48-1.18,8.22Z" style="fill:#c4d1eb; fill-rule:evenodd;"/><path d="M733.58,426.03c-11.49,.02-19.47,6.29-18.08,10.65,1.36,4.44,9.4,5.98,18.16,6.03,8.76-.08,16.79-1.64,18.1-6.09,1.34-4.37-6.7-10.63-18.19-10.59Z" style="fill:#8fa3cf; fill-rule:evenodd;"/><path d="M732.54,448.35c-3.21,.06-5.55,2.13-5.25,4.25,.3,2.13,2.71,3.56,5.42,3.51,2.72-.06,5.07-1.59,5.26-3.73,.2-2.13-2.23-4.09-5.43-4.03Z" style="fill:#8fa3cf; fill-rule:evenodd;"/><path d="M731.66,413.31c-5.08,.11-8.91,2.38-8.61,4.49,.31,2.13,4.24,3.36,8.82,3.26,4.58-.11,8.44-1.51,8.63-3.65,.19-2.13-3.77-4.23-8.84-4.11Z" style="fill:#8fa3cf; fill-rule:evenodd;"/><path d="M814.56,519.68c6.7-28.27,40.71-49.77,82-41.19,8.61,11.46,14.01,22.58,16.96,32.29-32.95-14.5-62.47,.68-66.64,23.2-7.75-5.73-18.52-10.99-32.31-14.3Z" style="fill:#c4d1eb; fill-rule:evenodd;"/><path d="M817.54,518.58c7.33-26.35,39.25-45.99,78.02-38.51,7.38,9.88,12.32,19.47,15.29,28.06-31.89-12.47-59.98,1.89-65.11,23.39-7.08-5.04-16.47-9.69-28.21-12.94Z" style="fill:#8fa3cf; fill-rule:evenodd;"/><path d="M844.79,517.5c1.33-2.04,3.69-3.09,6.03-3.12,8.11-8.87,21.18-14.5,36.59-14.23,.93-1.59,3.31-2.57,6.83-2.1,3.54,.47,7.15,1.23,10.81,2.3-2.07-4.38-4.66-8.95-7.8-13.63-4.02-.8-7.99-1.28-11.86-1.48-3.73-.2-7.89-1.15-11.7-2.58-17.59,1.54-32.29,9.12-41.57,19.92,.66,2.27,.25,4.73-1.19,6.96-1.9,2.95-3.45,6.09-4.59,9.34,5.41,2.07,10.19,4.43,14.37,6.95,.98-2.91,2.35-5.71,4.07-8.32Z" style="fill:#c4d1eb; fill-rule:evenodd;"/><path d="M848.87,502.34c-5.79-4.18-7.79-10.84-1.64-14.06,6.1-3.26,17.15-.53,22,4.81,4.92,5.33,2.74,10.16-2.42,12.29-5.25,2.11-12.09,1.21-17.94-3.03Z" style="fill:#8fa3cf; fill-rule:evenodd;"/><path d="M876.74,491c-1.85-2.13-.85-4.26,2.63-4.4,3.46-.15,7.89,1.94,9.52,4.28,1.63,2.34,.05,3.87-3.19,3.81-3.26-.06-7.1-1.56-8.96-3.7Z" style="fill:#8fa3cf; fill-rule:evenodd;"/><path d="M837.34,513.22c-2.44-1.36-3.49-4.27-1.77-6.4,1.7-2.15,5.41-2.52,7.73-.95,2.34,1.56,2.53,4.28,.94,6.23-1.6,1.94-4.45,2.49-6.91,1.13Z" style="fill:#8fa3cf; fill-rule:evenodd;"/><path d="M67.64,854.36c-37.29,9.99-64.51,56.01-51.51,110.51,15.56,11,30.55,17.73,43.56,21.26-20.54-43.18-1.54-82.99,28.21-89.41-7.91-10.08-15.33-24.16-20.26-42.36Z" style="fill:#c4d1eb; fill-rule:evenodd;"/><path d="M66.29,858.36c-34.7,10.76-59.56,53.92-48.09,105.12,13.4,9.42,26.34,15.6,37.86,19.23-17.81-41.87,.16-79.75,28.53-87.4-6.98-9.2-13.51-21.5-18.3-36.95Z" style="fill:#8fa3cf; fill-rule:evenodd;"/><path d="M65.91,894.6c-2.66,1.85-3.96,5.01-3.91,8.13-11.46,11.12-18.43,28.7-17.46,49.16-2.07,1.3-3.28,4.48-2.53,9.15,.76,4.69,1.91,9.46,3.47,14.28-5.9-2.59-12.08-5.84-18.4-9.83-1.22-5.31-2.02-10.56-2.43-15.69-.41-4.96-1.84-10.43-3.9-15.44,1.37-23.43,10.85-43.24,24.83-55.98,3.04,.79,6.3,.13,9.2-1.85,3.85-2.65,7.94-4.82,12.22-6.47,2.96,7.1,6.29,13.37,9.79,18.81-3.83,1.43-7.49,3.35-10.9,5.74Z" style="fill:#c4d1eb; fill-rule:evenodd;"/><path d="M45.95,900.61c-5.78-7.52-14.71-9.92-18.74-1.63-4.1,8.23-.03,22.81,7.24,29.03,7.27,6.33,13.6,3.24,16.23-3.69,2.61-7.05,1.14-16.1-4.73-23.71Z" style="fill:#8fa3cf; fill-rule:evenodd;"/><path d="M31.97,938.07c-2.89-2.38-5.69-.97-5.73,3.66-.07,4.61,2.89,10.41,6.04,12.49,3.18,2.09,5.15-.08,4.96-4.39-.22-4.32-2.35-9.36-5.27-11.75Z" style="fill:#8fa3cf; fill-rule:evenodd;"/><path d="M59.94,884.87c-1.89-3.19-5.8-4.46-8.57-2.1-2.78,2.35-3.12,7.28-.97,10.32,2.17,3.04,5.8,3.19,8.32,1,2.51-2.19,3.13-6,1.22-9.22Z" style="fill:#8fa3cf; fill-rule:evenodd;"/></svg>