<?xml version="1.0" encoding="UTF-8"?><svg id="a" xmlns="http://www.w3.org/2000/svg" viewBox="0 0 2346.95 1495.52"><path d="M1945.66,1399.43c503.25-248.67,326.24-726.65,142.59-997.76C1831.13,22.08,1223.52-114.35,972.19,188.51,631.07,599.59,286.03,502.35,168.35,770.47c-117.69,268.11,98.21,530.19,219.67,629.51,207.98-8.75,486.56-14.09,785.45-14.09s565.82,5.1,772.19,13.53h0ZM722.61,341.63c-131.7,84.31-349.56,149.64-421.9,60.02-54.05-66.97,12.53-192.61,142.92-287.87C573.92,18.58,748.5-39.04,843.65,31.06c112.92,83.17-19.62,245.64-121.04,310.57Z" style="fill:#e9eff8; fill-rule:evenodd;"/><path d="M2177.49,679.17c3.04,8.3-1.23,17.5-9.52,20.54-8.3,3.05-17.5-1.22-20.55-9.51-15.37-41.76-33.86-82.67-54.25-121.78-22.58-43.34-47.22-84.09-72.29-121.1-22.11-32.63-47.2-63.32-74.67-91.9-28.43-29.58-59.4-56.85-92.21-81.65-40.76-30.79-84.82-58.13-131-81.33-46.06-23.15-94.43-42.32-143.93-56.83-8.48-2.49-13.32-11.38-10.85-19.85,2.5-8.47,11.39-13.32,19.87-10.84,51.15,15,101.29,34.89,149.2,58.96,48.22,24.23,93.96,52.58,136.01,84.35,34.03,25.73,66.27,54.13,95.97,85.03,28.56,29.72,54.79,61.83,78.05,96.17,26.1,38.53,51.45,80.38,74.3,124.23,20.91,40.13,39.96,82.27,55.88,125.53h0ZM1462.15,78.32c8.75,1.12,14.96,9.1,13.85,17.85-1.12,8.75-9.1,14.95-17.85,13.84-37.69-4.88-76.63-6.89-115.48-5.21-35.73,1.54-71.38,6.22-105.91,14.71-8.58,2.1-17.25-3.14-19.36-11.72-2.11-8.57,3.14-17.25,11.71-19.36,36.59-8.97,74.35-13.94,112.18-15.58,40.64-1.75,81.4,.36,120.86,5.47h0Zm-877.33,465.7c8.02-3.7,17.53-.2,21.24,7.82,3.7,8.03,.19,17.53-7.83,21.24-31.44,14.47-62.05,27.33-92.64,40.18-28.11,11.82-56.21,23.63-82.89,35.71-18.29,8.28-36.48,16.93-53.64,26.27-17.12,9.33-33.76,19.62-49.36,31.39-7.05,5.33-17.1,3.92-22.42-3.13-5.33-7.06-3.93-17.1,3.13-22.43,16.72-12.62,34.74-23.75,53.38-33.9,18.58-10.12,37.29-19.04,55.76-27.4,28.41-12.86,56.03-24.47,83.64-36.07,31.09-13.07,62.2-26.15,91.64-39.69h0Zm-333.2,183.55c5.57-6.84,15.64-7.88,22.49-2.31,6.84,5.57,7.88,15.63,2.31,22.48-6.67,8.17-12.78,16.9-18.4,26.2-5.65,9.36-10.68,19.08-15.12,29.21-3.52,8.09-12.95,11.79-21.04,8.26-8.09-3.52-11.79-12.95-8.27-21.05,5.13-11.69,10.78-22.66,17-32.96,6.25-10.36,13.24-20.28,21.03-29.84h0ZM836.19,100.99c1.97,8.61-3.41,17.19-12.03,19.17-8.61,1.97-17.2-3.43-19.16-12.03-.44-1.9-1.43-3.66-2.74-5.27-1.78-2.2-4.22-4.28-6.86-6.23-10.8-7.94-24.45-12.19-38.91-14.04-19.95-2.55-41.57-.57-60.04,2.69-26.16,4.62-52.66,12.78-78.38,23.19-29.35,11.87-57.78,26.67-83.67,42.47-7.54,4.61-17.39,2.22-21.99-5.33-4.6-7.54-2.22-17.38,5.33-21.99,27.24-16.63,57.27-32.25,88.43-44.85,27.8-11.25,56.45-20.08,84.78-25.07,20.85-3.68,45.68-5.87,69.55-2.81,19.51,2.5,38.28,8.5,53.81,19.93l.07,.07c4.55,3.35,8.94,7.18,12.69,11.79,4.23,5.21,7.5,11.21,9.13,18.31h0Zm-390.9,74.14c6.78-5.63,16.85-4.71,22.49,2.07,5.63,6.78,4.71,16.85-2.07,22.49-17.5,14.52-34.59,30.65-49.85,47.91-13.49,15.27-25.52,31.36-35.07,47.93-4.39,7.63-14.15,10.27-21.8,5.89-7.64-4.4-10.28-14.15-5.88-21.8,10.72-18.61,24.03-36.45,38.82-53.19,16.36-18.52,34.64-35.78,53.35-51.3Z" style="fill:#fff; fill-rule:evenodd;"/><path d="M436.65,1398.05c11.82-112.45-27.44-94.14-80.72-170.52-21.99-31.52-21.07-59.74-5.76-93.33,10.05-22.04,20.25-49.5,8.08-72.7-13.21-25.17-38.66-26.31-63.04-31.68-62.62-13.82-82.6-64.71-114.12-113.28-8.14-12.57-19.45-24.01-33.87-27.68-69.45-17.64-94.17,95.48-66.24,140.05,17.45,27.84,44.75,46.39,62.49,74.4,15.83,25.01,15.55,44.79,12.63,72.84-4.65,44.57,17.63,86.37,48.48,116.7,17.52,17.2,36.87,33.28,49.39,54.84,13.14,22.63,33.87,41.39,58.04,55.8,38.66-1.96,80.32-3.78,124.63-5.45Z" style="fill:#d0d9ee; fill-rule:evenodd;"/><path d="M408.05,1399.16c-24.58-24.7-44.95-48.24-62.15-70.81-.77-19.56,1.7-40.44,7.45-62.61-7.28,17.16-13.93,33.16-16.61,50.3-38.03-52.64-59.15-100.09-76.69-145.25,7.23-29.25,20.89-58.7,40.96-88.38-20.42,22.23-35.89,46.96-46.41,74.16-26.49-69.93-47.65-134.97-114.52-206.19,27.92,40,47.66,76.59,63.73,111.66-23.96-12.98-49.96-21.43-77.98-25.38,33.06,9.86,61.34,23.42,84.8,40.68,25.63,58.84,42.58,114.13,72.9,175.06-24.04-13.07-50.13-21.59-78.27-25.54,34.02,10.14,62.97,24.2,86.83,42.17,21.32,40.18,49.09,83.1,89.29,131.22,8.76-.38,17.65-.75,26.66-1.1Z" style="fill:#e9eff8; fill-rule:evenodd;"/><path d="M389.45,1399.93c-25.03-72.04-47.13-49.93-105.33-84.97-24.85-14.95-32.82-34.78-32.48-62.82,.23-18.41-1.1-40.59-16.61-52.86-16.84-13.3-34.8-6.14-53.33-2.26-47.57,9.99-76.95-19.01-113.61-42.81-9.48-6.15-20.8-10.55-31.9-8.57-53.49,9.46-36.05,95.51-3.1,117.65,20.58,13.84,45.17,18.16,65.99,32.02,18.61,12.37,24.46,26.15,31,46.49,10.39,32.32,38.59,54.29,69.21,65.66,2.08,.77,4.18,1.52,6.28,2.28,52.87-3.59,114.65-6.88,183.9-9.79Z" style="fill:#bcc9e7; fill-rule:evenodd;"/><path d="M336.53,1402.29c-10.14-4.71-19.63-9.51-28.57-14.39-6.51-13.3-11.16-28.53-13.95-45.67,.2,14.15,.48,27.3,3.86,40.01-42.41-24.56-71.53-50.83-97.46-76.62-3.92-22.51-3.46-47.17,1.37-73.99-7.35,21.78-10.51,43.72-9.49,65.85-39.7-40.15-74.21-78.59-142.27-107.02,31.56,18.97,56.4,38.14,78.23,57.41-20.55-1.5-41.13,.75-61.74,6.77,25.91-3.5,49.62-2.94,71.14,1.69,35.72,32.75,64.34,65.74,103.95,98.47-20.64-1.55-41.32,.71-62,6.75,26.66-3.6,50.99-2.91,72.99,2.1,17.06,13.36,36.23,26.66,58.75,39.89,8.26-.42,16.67-.84,25.2-1.24Z" style="fill:#dee7f5; fill-rule:evenodd;"/><path d="M1948.86,1397.96c-25.79-108.13,13.58-94.32,55.28-173.14,17.01-32.14,12.9-58.5-5.31-88.22-11.94-19.5-24.67-44.05-15.9-67.24,9.5-25.16,33.24-29.21,55.49-37.11,57.16-20.3,70.05-70.39,94.05-119.65,6.21-12.74,15.49-24.8,28.59-29.93,63.13-24.69,99.29,78.52,78.22,123.6-13.18,28.17-36.68,48.77-50.09,77.12-12,25.32-9.46,43.84-3.49,69.82,9.48,41.26-6.63,83.08-32.08,115.15-14.45,18.19-30.77,35.54-40.04,57.24-13.88,32.5-43.19,59.41-76.7,77.99-26.94-1.36-55.33-2.66-85.08-3.89l-2.92-1.73Z" style="fill:#d0d9ee; fill-rule:evenodd;"/><path d="M1968.29,1400.38c23.31-29.23,41.83-56.48,56.82-82.16-1.51-18.44-6.24-37.73-14.18-57.85,8.78,15.24,16.87,29.46,21.35,45.23,29.63-53.84,44.01-100.83,55.29-145.23-10.15-26.58-26.34-52.61-48.57-78.1,21.7,18.46,39.05,39.83,52.04,64.12,16.82-68.7,29.21-132.2,83.77-206.84-21.61,40.8-35.93,77.44-46.98,112.22,20.99-14.99,44.4-25.98,70.22-32.96-29.88,13.13-54.84,29.16-74.88,48.11-17.28,58.2-26.84,112.05-48.29,172.77,21.06-15.08,44.55-26.13,70.49-33.13-30.75,13.5-56.28,30.07-76.6,49.74-16.57,43.28-39.8,90.4-76.32,145.17-7.94-.37-16-.72-24.16-1.07Z" style="fill:#e9eff8; fill-rule:evenodd;"/><path d="M1919.74,1398.4c-3.82-17.45,5.46-30.94,5.15-63.26-.18-20.85-9.39-32.94-26.6-42.79-11.29-6.47-24.34-15.27-26.25-29.33-2.05-15.26,8.76-23.88,17.78-34.03,23.17-26.04,16.05-54.77,14.71-86.15-.34-8.11,1.04-16.74,6.23-22.95,24.97-29.92,71.14,11.83,72.79,40.32,1.05,17.79-5.15,34.65-4.19,52.59,.87,16.04,7.17,24.64,17.2,36.01,15.96,18.08,19.24,43.53,15.16,66.69-2.3,13.14-5.79,26.37-4.54,39.84,1.4,15.25-2.5,31.35-9.57,46.35-24.9-1.15-50.86-2.24-77.86-3.28Z" style="fill:#bcc9e7; fill-rule:evenodd;"/><path d="M1959.21,1399.99c.82-8.32,1.34-16.23,1.58-23.8-5.78-8.84-13.38-17.2-22.83-25.11,8.55,5.21,16.47,10.11,23,16.77,.25-35.23-5.29-62.8-11.7-88.21-12.31-10.52-27.5-19.09-45.58-25.72,15.9,3.25,30.42,9.15,43.53,17.73-10.22-39.14-21.24-74.44-14.13-127.04,.24,26.46,3,48.82,6.89,69.35,6.47-13.35,15.24-25.37,26.29-36.04-11.42,14.89-19.6,29.86-24.51,44.92,7.13,34.01,16.95,63.68,22.67,100.1,6.46-13.41,15.26-25.48,26.36-36.2-11.76,15.31-20.06,30.72-24.93,46.23,2.59,19.8,3.87,41.74,2.87,67.42l-9.54-.41Z" style="fill:#dee7f5; fill-rule:evenodd;"/><path d="M2193.32,878.93c-20.65-15.89-20.06-31.44-13.66-35.36,6.42-3.92,19.46,12.34,16.08,34.78,1.33,2.49,2.63,4.97,3.89,7.49,10.67,21.16,18.94,43.51,24.83,66.45,5.91,22.96,9.45,46.53,10.67,70.19,1.23,23.69,.1,47.5-3.31,70.98-3.41,23.52-9.18,46.71-17.27,69.06-8.09,22.35-18.52,43.82-31.2,63.93-.84,1.33-2.96,.14-2.13-1.18,1.54-2.44,3.03-4.89,4.49-7.37,11.98-20.32,21.72-41.95,29.17-64.32,7.41-22.26,12.56-45.28,15.42-68.57,2.88-23.43,3.42-47.18,1.66-70.73-1.76-23.4-5.82-46.63-12.22-69.23-6.43-22.71-15.21-44.72-26.26-65.57-.09-.19-.14-.38-.14-.54h0Zm15.88,22.86s7.38-4,13.49-10.1c3.05-3.04,5.69-6.6,6.95-10.44,1.26-3.84,1.12-7.99-1.67-11.89-5.5-7.87-10.9-4.14-14.53,3.62-1.86,3.89-3.14,8.72-3.98,13.8-.86,5.08-.92,10.25-.27,15h0Zm-.98,14.93c-1.38-1.9-2.99-3.7-4.85-5.33-1.88-1.6-3.92-3.05-6.03-4.3-4.18-2.53-8.81-4.15-12.85-4.81-8.08-1.3-14.04,1.3-12.01,8.75,.54,1.86,1.42,3.34,2.63,4.51,1.22,1.15,2.76,1.99,4.52,2.59,1.76,.59,3.72,.93,5.78,1.11,2.03,.2,4.18,.21,6.28,.11,8.45-.4,16.54-2.63,16.54-2.63h0Zm14.86,23.36s7.79-3.07,14.54-8.38c3.38-2.64,6.5-5.87,8.24-9.54,1.71-3.65,1.94-7.72-.21-11.95-4.52-8.43-10.42-5.39-14.86,1.82-2.22,3.6-4.32,8.31-5.67,13.2-.66,2.44-1.24,4.97-1.62,7.48-.38,2.51-.53,4.98-.42,7.36h0Zm-2.76,14.69c-2.28-4.09-5.79-7.86-9.66-10.86-3.96-2.97-8.26-5.18-12.18-6.34-3.93-1.14-7.51-1.23-9.9-.09-2.41,1.14-3.6,3.46-3.11,7.35,1.09,7.66,9.57,9.97,18.09,10.6,8.51,.61,16.76-.65,16.76-.65h0Zm11.95,24.96s8.11-2.15,15.47-6.62c3.71-2.25,7.14-5.08,9.26-8.5,2.08-3.42,3-7.45,1.21-11.87-3.47-8.87-9.61-6.59-14.98,.07-2.72,3.33-5.13,7.69-7.16,12.42-1.01,2.36-1.85,4.79-2.48,7.24-.61,2.43-1.15,4.89-1.33,7.26h0Zm-4.42,14.29c-.91-2.16-2.1-4.29-3.49-6.3-1.41-2.01-3.1-3.89-4.86-5.61-1.77-1.71-3.64-3.25-5.54-4.55-1.95-1.3-3.91-2.38-5.81-3.17-7.56-3.19-13.99-2.1-13.72,5.68,.09,7.79,8.44,11.04,16.72,12.66,8.32,1.59,16.72,1.29,16.72,1.29h0Zm8.51,19.98s2.08-.31,5.13-1.07c3.05-.75,7.05-1.96,10.94-3.76,3.89-1.8,7.65-4.22,10.19-7.38,2.56-3.15,3.67-7.04,2.55-11.62-1.12-4.6-3.48-6.51-6.1-6.51-2.66-.01-5.76,1.88-8.76,4.86-3.07,2.98-6.11,7.06-8.55,11.51-2.5,4.45-4.54,9.3-5.39,13.96Z" style="fill:#99a9d4; fill-rule:evenodd;"/><path d="M334.35,1067.34c16.44-20.2,12.3-35.21,5.16-37.54-7.14-2.34-16.1,16.47-7.64,37.54-.72,2.73-1.41,5.45-2.07,8.19-5.51,23.05-8.42,46.7-8.89,70.38-.46,23.7,1.5,47.44,5.75,70.75,4.25,23.35,10.82,46.25,19.55,68.32,8.73,22.1,19.67,43.34,32.68,63.24,13,19.89,28.1,38.39,45.05,55.04,1.12,1.11,2.91-.54,1.8-1.63-2.04-2.03-4.06-4.07-6.05-6.14-16.33-17.01-30.79-35.84-43.18-55.9-12.34-19.96-22.63-41.18-30.77-63.19-8.19-22.15-14.18-45.15-17.87-68.46-3.68-23.19-5.05-46.74-4.02-70.19,1.04-23.57,4.52-47.02,10.48-69.86,.06-.2,.06-.4,.03-.56h0Zm-10.2,25.9s-8.09-2.19-15.45-6.72c-3.66-2.27-7.05-5.12-9.16-8.58-2.1-3.45-2.92-7.51-1.1-11.94,3.55-8.92,9.66-6.55,14.97,.18,2.7,3.37,5.05,7.78,7.04,12.52,2.01,4.76,3.24,9.78,3.7,14.54h0Zm4.39,14.31c.91-2.17,2.07-4.29,3.49-6.3,1.46-1.99,3.12-3.87,4.88-5.57,3.49-3.43,7.61-6.07,11.4-7.64,7.56-3.11,13.97-1.96,13.69,5.76-.1,1.93-.61,3.58-1.52,4.98-.92,1.41-2.22,2.57-3.8,3.56-1.57,.98-3.4,1.77-5.37,2.42-1.94,.65-4.01,1.15-6.09,1.54-8.31,1.56-16.69,1.25-16.69,1.25h0Zm-9.1,26.14s-8.28-1.19-16.08-4.8c-3.9-1.81-7.67-4.22-10.21-7.39-2.5-3.16-3.67-7.06-2.54-11.68,2.46-9.25,8.9-7.65,14.88-1.66,2.99,3,6.11,7.09,8.55,11.56,1.2,2.22,2.35,4.55,3.3,6.91,.94,2.35,1.66,4.73,2.09,7.06h0Zm6.07,13.68c1.28-4.51,3.83-8.98,6.89-12.79,3.18-3.8,6.86-6.95,10.39-8.97,3.57-2.01,7.04-2.92,9.62-2.36,2.61,.55,4.3,2.54,4.72,6.43,.69,7.71-7.02,11.91-15.17,14.47-8.14,2.54-16.46,3.23-16.46,3.23h0Zm-5.91,27.04s-8.38-.23-16.58-2.89c-4.13-1.34-8.1-3.29-10.95-6.14-2.81-2.84-4.64-6.55-3.92-11.26,1.34-9.44,7.84-8.63,14.6-3.39,3.4,2.62,6.74,6.32,9.82,10.44,1.52,2.08,2.89,4.25,4.07,6.49,1.15,2.22,2.24,4.5,2.96,6.76h0Zm7.6,12.88c.38-2.31,1.05-4.65,1.94-6.93,.92-2.29,2.13-4.51,3.45-6.58,1.33-2.08,2.8-4,4.35-5.7,1.6-1.72,3.27-3.21,4.93-4.43,6.63-4.84,13.13-5.25,14.66,2.38,1.72,7.6-5.67,12.68-13.35,16.17-7.73,3.46-15.96,5.09-15.96,5.09h0Zm-3.7,21.4s-2.1,.17-5.23,.13c-3.14-.03-7.31-.29-11.52-1.15-4.2-.86-8.41-2.34-11.6-4.84-3.23-2.47-5.2-6-5.16-10.72,.03-4.73,1.89-7.14,4.44-7.75,2.59-.62,6.03,.51,9.63,2.72,3.68,2.2,7.58,5.47,10.98,9.25,3.44,3.76,6.55,8.01,8.45,12.35Z" style="fill:#99a9d4; fill-rule:evenodd;"/><path d="M1990.38,1401.04c15.17-82.93,38.22-61.08,91.15-102.63,21.6-16.96,26.8-36.48,23.27-62.74-2.33-17.24-3.64-38.21,9.51-51.53,14.28-14.45,31.94-9.86,49.76-8.38,45.77,3.78,70-26.87,101.67-53.5,8.18-6.87,18.3-12.33,28.94-11.79,51.25,2.61,44.78,85.37,16.41,110-17.72,15.4-40.28,22.33-58.23,37.76-16.04,13.8-19.94,27.41-23.74,47.26-6.03,31.53-29.96,55.46-57.39,69.72-15.56,8.09-32.16,15-45.2,27.14-2.25,2.09-4.62,4.06-7.09,5.92-38.8-2.46-81.91-4.77-128.83-6.89l-.23-.33Z" style="fill:#bcc9e7; fill-rule:evenodd;"/><path d="M2014.92,1402.5c19.99-10.9,37.32-21.88,52.61-32.86,4.57-13.25,7.2-28.08,7.86-44.49,1.42,13.3,2.68,25.67,.97,38,36.96-28.04,61.26-56.08,82.63-83.32,1.09-21.58-2.17-44.66-9.78-69.24,9.39,19.56,14.87,39.78,16.45,60.65,32.64-42.32,60.6-82.41,121.17-117.07-27.41,21.5-48.51,42.39-66.79,63.03,19.1-3.82,38.67-4.12,58.69-.88-24.7-.25-46.89,3.07-66.54,9.92-29.74,34.91-52.8,69.21-86.2,104.55,19.18-3.87,38.82-4.19,58.92-.93-25.41-.25-48.15,3.26-68.22,10.52-20.52,20.62-45.04,41.62-76.87,63.36-8.15-.42-16.48-.83-24.9-1.24Z" style="fill:#dee7f5; fill-rule:evenodd;"/><path d="M1173.48,1385.89c648.09,0,1173.47,24.54,1173.47,54.81s-525.38,54.81-1173.47,54.81S0,1470.98,0,1440.71s525.38-54.81,1173.48-54.81Z" style="fill:#d0d9ee; fill-rule:evenodd;"/><path d="M812.83,152.56c-1.63,0-2.96-1.33-2.96-2.96s1.33-2.95,2.96-2.95l5.98,.07c1.63,.04,2.92,1.4,2.88,3.04-.04,1.62-1.4,2.92-3.03,2.87l-5.84-.07h0Zm-26.43-4.4c1.61-.2,3.09,.96,3.29,2.57,.19,1.62-.96,3.09-2.58,3.29-1.93,.22-3.87,.46-5.79,.74-1.61,.24-3.12-.87-3.35-2.49-.24-1.62,.88-3.12,2.5-3.36,1.97-.29,3.96-.53,5.94-.76h0Zm-35.22,6.92c1.57-.44,3.2,.48,3.65,2.04,.45,1.57-.47,3.2-2.03,3.65l-5.6,1.65c-1.56,.49-3.22-.39-3.7-1.94-.48-1.56,.39-3.22,1.94-3.7,1.91-.6,3.82-1.16,5.75-1.69h0Zm-33.7,12.39c1.48-.69,3.24-.06,3.93,1.42,.7,1.48,.06,3.24-1.43,3.93-1.76,.82-3.53,1.65-5.27,2.51-1.46,.73-3.24,.13-3.97-1.33-.72-1.46-.12-3.24,1.34-3.97l5.4-2.57h0Zm-31.31,17.54c1.35-.91,3.19-.55,4.1,.8,.91,1.35,.55,3.19-.8,4.11l-4.81,3.3c-1.33,.94-3.18,.63-4.12-.7-.94-1.34-.63-3.18,.7-4.12l4.93-3.39h0Zm-28.18,22.23c1.19-1.12,3.07-1.05,4.18,.15,1.11,1.18,1.04,3.06-.15,4.17l-4.24,4.02c-1.17,1.14-3.04,1.12-4.18-.04-1.14-1.17-1.12-3.04,.05-4.19l4.34-4.11h0Zm-24.37,26.34c1.01-1.28,2.87-1.5,4.15-.49,1.28,1.01,1.5,2.87,.5,4.15-1.21,1.51-2.38,3.05-3.55,4.6-.97,1.33-2.83,1.6-4.14,.64-1.31-.97-1.59-2.83-.62-4.14,1.23-1.57,2.41-3.19,3.66-4.76h0Zm-19.96,29.84c.8-1.43,2.6-1.93,4.02-1.14,1.43,.8,1.93,2.6,1.14,4.02-.96,1.69-1.87,3.4-2.78,5.12-.76,1.45-2.55,2.01-3.99,1.26-1.44-.75-2.01-2.54-1.25-3.99,.94-1.77,1.88-3.54,2.87-5.27h0Zm-15.03,32.6c.56-1.52,2.26-2.32,3.79-1.76,1.53,.55,2.32,2.25,1.76,3.79l-1.93,5.48c-.52,1.56-2.2,2.4-3.75,1.88-1.55-.51-2.39-2.19-1.87-3.73,.7-1.82,1.31-3.8,2-5.66h0Zm-9.69,34.58c.3-1.6,1.86-2.65,3.45-2.35,1.61,.31,2.66,1.86,2.35,3.46l-1.05,5.75c-.27,1.61-1.79,2.7-3.4,2.43-1.61-.26-2.7-1.79-2.44-3.39l1.08-5.89h0Zm-4.13,35.65c.06-1.62,1.42-2.91,3.05-2.86,1.62,.06,2.91,1.43,2.86,3.05l-.14,5.83c0,1.64-1.34,2.95-2.97,2.94-1.64-.01-2.95-1.34-2.94-2.97,.02-2,.08-3.99,.14-5.99h0Zm1.46,35.85c-.19-1.61,.96-3.09,2.58-3.29,1.62-.19,3.09,.97,3.29,2.59,.22,1.93,.48,3.87,.76,5.79,.24,1.61-.88,3.12-2.5,3.35-1.61,.23-3.11-.88-3.35-2.5-.28-1.97-.56-3.96-.78-5.93h0Zm7.05,35.21c-.46-1.57,.45-3.2,2.01-3.66,1.57-.45,3.21,.44,3.66,2.01,.53,1.87,1.08,3.73,1.67,5.59,.49,1.56-.36,3.23-1.92,3.71-1.56,.5-3.22-.36-3.71-1.92-.61-1.89-1.17-3.82-1.71-5.73h0Zm12.51,33.64c-.7-1.48-.06-3.25,1.42-3.93,1.48-.7,3.24-.06,3.93,1.43,.81,1.76,1.66,3.51,2.52,5.25,.73,1.46,.15,3.24-1.31,3.97-1.46,.74-3.24,.14-3.97-1.3-.91-1.73-1.78-3.62-2.6-5.4h0Zm17.66,31.25c-.91-1.35-.55-3.19,.8-4.11,1.35-.91,3.19-.54,4.1,.81,1.08,1.6,2.18,3.21,3.31,4.78,.96,1.32,.65,3.17-.67,4.12-1.32,.96-3.17,.65-4.13-.66-1.16-1.64-2.3-3.28-3.42-4.94h0Zm22.35,28.11c-1.12-1.18-1.06-3.05,.13-4.18,1.19-1.12,3.06-1.06,4.18,.13l4.03,4.22c1.15,1.15,1.14,3.03-.02,4.18-1.16,1.15-3.03,1.14-4.18-.02-1.4-1.43-2.77-2.87-4.14-4.33h0Zm26.44,24.27c-1.29-.99-1.52-2.86-.52-4.14,1-1.29,2.86-1.52,4.15-.53,1.52,1.2,3.07,2.39,4.65,3.54,1.31,.97,1.59,2.83,.62,4.14-.97,1.31-2.82,1.59-4.14,.62l-4.76-3.62h0Zm29.91,19.84c-1.43-.78-1.95-2.59-1.16-4.01,.78-1.44,2.59-1.96,4.01-1.17l5.15,2.77c1.45,.75,2.01,2.54,1.25,3.99-.75,1.45-2.54,2.01-3.99,1.26l-5.27-2.84h0Zm32.66,14.9c-1.54-.55-2.33-2.25-1.78-3.79,.55-1.54,2.25-2.33,3.78-1.78l5.51,1.92c1.55,.51,2.39,2.19,1.87,3.73-.51,1.56-2.19,2.39-3.73,1.88l-5.65-1.97h0Zm34.6,9.55c-1.6-.3-2.66-1.86-2.35-3.45,.3-1.61,1.86-2.65,3.46-2.35,1.9,.36,3.85,.65,5.73,1.03,1.61,.25,2.71,1.77,2.46,3.38-.26,1.61-1.77,2.72-3.39,2.45l-5.91-1.06h0Zm35.67,4c-1.62-.06-2.91-1.43-2.85-3.05,.04-1.64,1.41-2.92,3.04-2.86l5.83,.12c1.63,0,2.95,1.34,2.93,2.97,0,1.64-1.34,2.95-2.97,2.94l-5.99-.12h0Zm35.87-1.59c-1.61,.2-3.1-.95-3.3-2.56-.2-1.61,.94-3.11,2.56-3.3,1.93-.24,3.86-.5,5.78-.78,1.61-.25,3.13,.85,3.37,2.46s-.86,3.13-2.47,3.37c-1.97,.31-3.95,.57-5.93,.82h0Zm35.17-7.18c-1.56,.45-3.21-.45-3.66-2.02-.45-1.56,.45-3.2,2.01-3.66,1.88-.53,3.73-1.1,5.59-1.69,1.56-.5,3.22,.36,3.71,1.92,.49,1.56-.37,3.22-1.92,3.71-1.9,.6-3.81,1.18-5.73,1.73h0Zm33.6-12.65c-1.48,.7-3.24,.07-3.94-1.41-.7-1.47-.07-3.24,1.41-3.93,1.76-.82,3.51-1.67,5.25-2.55,1.46-.73,3.24-.15,3.97,1.31,.73,1.45,.15,3.24-1.31,3.97-1.78,.91-3.58,1.77-5.38,2.62h0Zm31.18-17.78c-1.35,.92-3.19,.57-4.11-.77-.92-1.35-.57-3.19,.78-4.11l4.78-3.35c1.32-.95,3.17-.65,4.13,.67,.96,1.33,.65,3.17-.67,4.12l-4.91,3.44h0Zm28.01-22.44c-1.19,1.12-3.06,1.06-4.18-.12-1.12-1.19-1.07-3.07,.12-4.19,1.41-1.32,2.78-2.73,4.2-4.03,1.15-1.15,3.03-1.15,4.18,0,1.15,1.15,1.15,3.03,0,4.18l-4.32,4.17h0Zm24.17-26.53c-1,1.28-2.86,1.51-4.15,.52-1.29-.99-1.52-2.86-.52-4.14l3.51-4.65c.96-1.31,2.81-1.61,4.13-.64,1.32,.95,1.61,2.81,.65,4.12-1.18,1.61-2.4,3.2-3.61,4.8h0Zm19.74-30.01c-.78,1.44-2.57,1.97-4,1.19-1.44-.78-1.97-2.59-1.19-4.01l2.75-5.16c.74-1.45,2.52-2.02,3.98-1.28,1.45,.74,2.02,2.53,1.28,3.98l-2.81,5.28h0Zm14.77-32.7c-.55,1.54-2.25,2.34-3.78,1.78-1.53-.55-2.33-2.24-1.78-3.78l1.9-5.5c.51-1.55,2.18-2.4,3.73-1.89,1.55,.5,2.4,2.17,1.89,3.72l-1.96,5.67h0Zm9.42-34.65c-.29,1.6-1.84,2.66-3.44,2.36-1.6-.3-2.66-1.83-2.37-3.44l1.01-5.76c.25-1.61,1.78-2.71,3.39-2.45,1.61,.25,2.71,1.77,2.46,3.38l-1.04,5.9h0Zm3.86-35.69c-.03,1.62-1.39,2.92-3.03,2.87-1.63-.03-2.92-1.39-2.88-3.03l.1-5.83c0-1.63,1.33-2.96,2.96-2.96s2.96,1.33,2.96,2.96l-.1,5.99h0Zm-1.72-35.84c.2,1.61-.94,3.09-2.56,3.3-1.62,.2-3.1-.95-3.31-2.56-.18-1.82-.48-3.94-.81-5.76-.25-1.61,.85-3.14,2.46-3.38,1.61-.27,3.13,.84,3.38,2.45,.29,1.93,.64,4,.83,5.94h0Zm-7.32-35.17c.46,1.57-.43,3.22-1.99,3.68-1.56,.46-3.21-.42-3.67-1.99l-1.71-5.58c-.5-1.56,.34-3.22,1.89-3.72,1.55-.51,3.22,.34,3.72,1.9l1.76,5.71h0Zm-12.78-33.55c.71,1.48,.09,3.25-1.38,3.96-1.47,.71-3.24,.09-3.94-1.38l-2.57-5.25c-.75-1.45-.17-3.24,1.28-3.98,1.45-.74,3.23-.17,3.98,1.29,.91,1.77,1.78,3.57,2.63,5.36h0Zm-17.9-31.11c.93,1.34,.6,3.18-.74,4.11-1.34,.93-3.19,.6-4.12-.74l-3.36-4.77c-.96-1.31-.67-3.17,.65-4.13,1.32-.96,3.17-.66,4.13,.65l3.45,4.88h0Zm-22.54-27.92c1.13,1.17,1.08,3.05-.1,4.18-1.18,1.13-3.05,1.07-4.18-.1l-4.07-4.2c-1.15-1.15-1.15-3.03,0-4.18,1.15-1.15,3.02-1.15,4.18,0l4.16,4.3h0Zm-26.62-24.07c1.29,.99,1.54,2.85,.55,4.14-.99,1.29-2.85,1.54-4.14,.55l-4.68-3.5c-1.32-.96-1.61-2.82-.65-4.13,.96-1.33,2.81-1.61,4.13-.65l4.78,3.59h0Zm-30.06-19.62c1.43,.78,1.96,2.59,1.18,4.02-.78,1.42-2.58,1.96-4,1.17l-5.13-2.7c-1.48-.75-2.07-2.53-1.33-3.99,.73-1.46,2.51-2.04,3.97-1.3,1.73,.95,3.55,1.86,5.3,2.8h0Zm-32.78-14.64c1.53,.54,2.34,2.23,1.8,3.77-.54,1.54-2.23,2.34-3.77,1.8l-5.53-1.88c-1.55-.51-2.4-2.18-1.89-3.72,.5-1.56,2.17-2.41,3.72-1.9,1.89,.62,3.79,1.26,5.67,1.93h0Zm-34.69-9.3c1.61,.29,2.67,1.82,2.4,3.42-.29,1.61-1.82,2.68-3.43,2.4l-5.76-.98c-1.61-.24-2.72-1.76-2.47-3.37,.24-1.61,1.76-2.72,3.37-2.48,1.97,.31,3.93,.65,5.89,1.01Z" style="fill:#d0d9ee; fill-rule:evenodd;"/><path d="M1679.2,242.04c-1.6,0-2.91-1.3-2.91-2.91s1.3-2.91,2.91-2.91l5.88,.08c1.6,.03,2.86,1.37,2.83,2.97-.03,1.6-1.38,2.87-2.97,2.83l-5.73-.07h0Zm-25.98-4.32c1.59-.19,3.05,.94,3.24,2.54,.19,1.59-.94,3.04-2.53,3.23-1.9,.22-3.8,.45-5.69,.73-1.58,.23-3.06-.86-3.29-2.45-.23-1.58,.87-3.06,2.45-3.29,1.93-.28,3.88-.52,5.82-.75h0Zm-34.58,6.79c1.54-.43,3.14,.46,3.58,2,.44,1.55-.46,3.15-2,3.59l-5.5,1.61c-1.53,.48-3.16-.38-3.63-1.91-.48-1.52,.38-3.16,1.91-3.64,1.87-.59,3.76-1.14,5.65-1.66h0Zm-33.1,12.16c1.44-.67,3.18-.06,3.86,1.4,.67,1.45,.06,3.18-1.4,3.87-1.72,.8-3.47,1.61-5.17,2.46-1.44,.71-3.18,.12-3.9-1.31-.71-1.43-.12-3.17,1.32-3.89l5.3-2.53h0Zm-30.76,17.24c1.33-.9,3.14-.54,4.02,.78,.91,1.33,.55,3.14-.77,4.02l-4.73,3.25c-1.3,.93-3.13,.62-4.04-.69-.93-1.3-.62-3.12,.68-4.04l4.84-3.33h0Zm-27.69,21.83c1.17-1.09,3.02-1.03,4.11,.14,1.08,1.17,1.02,3.01-.15,4.1l-4.15,3.96c-1.15,1.12-2.98,1.09-4.11-.06-1.12-1.14-1.09-2.98,.04-4.1l4.27-4.04h0Zm-23.93,25.88c1-1.26,2.83-1.47,4.09-.49,1.25,.99,1.47,2.82,.49,4.08-1.19,1.49-2.34,2.99-3.49,4.52-.95,1.3-2.77,1.58-4.07,.63-1.28-.96-1.56-2.77-.61-4.07,1.2-1.55,2.36-3.14,3.59-4.67h0Zm-19.6,29.3c.77-1.39,2.54-1.9,3.96-1.12,1.39,.78,1.89,2.55,1.1,3.96-.93,1.66-1.82,3.34-2.73,5.03-.74,1.41-2.49,1.98-3.91,1.23-1.43-.74-1.98-2.5-1.24-3.91,.92-1.73,1.84-3.47,2.82-5.18h0Zm-14.76,32.03c.55-1.5,2.22-2.28,3.72-1.73,1.5,.55,2.29,2.22,1.73,3.72l-1.9,5.39c-.51,1.52-2.16,2.35-3.69,1.84-1.51-.51-2.33-2.15-1.83-3.68,.7-1.79,1.3-3.72,1.97-5.55h0Zm-9.52,33.96c.31-1.58,1.83-2.61,3.4-2.31,1.57,.3,2.61,1.82,2.3,3.39l-1.02,5.65c-.26,1.58-1.77,2.65-3.34,2.39-1.59-.25-2.66-1.76-2.4-3.34l1.05-5.78h0Zm-4.04,35.02c.04-1.6,1.39-2.86,2.99-2.81,1.6,.04,2.86,1.39,2.81,2.98l-.14,5.73c0,1.6-1.31,2.89-2.92,2.88-1.6,0-2.89-1.31-2.88-2.92,.01-1.97,.08-3.92,.14-5.88h0Zm1.44,35.21c-.2-1.59,.94-3.04,2.53-3.24,1.59-.19,3.04,.95,3.23,2.54,.21,1.9,.47,3.79,.75,5.68,.23,1.59-.86,3.06-2.44,3.29-1.59,.23-3.07-.86-3.29-2.45-.29-1.93-.55-3.88-.77-5.82h0Zm6.92,34.58c-.44-1.54,.44-3.15,1.99-3.59,1.54-.45,3.14,.43,3.59,1.98,.52,1.83,1.06,3.67,1.65,5.49,.48,1.52-.38,3.16-1.9,3.65-1.52,.48-3.16-.36-3.63-1.89-.61-1.86-1.15-3.76-1.69-5.63h0Zm12.29,33.05c-.66-1.46-.04-3.19,1.41-3.87,1.45-.69,3.18-.06,3.86,1.4,.79,1.72,1.62,3.45,2.49,5.15,.71,1.44,.13,3.18-1.29,3.9-1.44,.72-3.18,.14-3.9-1.28-.89-1.7-1.75-3.56-2.56-5.3h0Zm17.35,30.68c-.88-1.33-.53-3.13,.8-4.03,1.33-.88,3.13-.53,4.02,.8,1.06,1.57,2.14,3.15,3.26,4.68,.94,1.3,.64,3.13-.66,4.07-1.29,.93-3.1,.64-4.05-.66-1.13-1.59-2.25-3.21-3.36-4.85h0Zm21.95,27.61c-1.09-1.16-1.04-3,.12-4.1,1.17-1.09,3.01-1.04,4.11,.12l3.95,4.14c1.13,1.14,1.12,2.98-.02,4.11-1.14,1.13-2.98,1.12-4.11-.02-1.37-1.4-2.72-2.82-4.06-4.25h0Zm25.98,23.84c-1.27-.98-1.5-2.81-.52-4.08,.98-1.26,2.81-1.49,4.08-.51,1.5,1.18,3.02,2.34,4.56,3.47,1.29,.95,1.56,2.77,.61,4.07s-2.77,1.57-4.07,.61l-4.66-3.56h0Zm29.38,19.49c-1.4-.77-1.92-2.54-1.15-3.94,.77-1.4,2.54-1.91,3.94-1.14l5.06,2.72c1.42,.74,1.97,2.5,1.23,3.91-.74,1.43-2.5,1.98-3.91,1.24l-5.17-2.78h0Zm32.07,14.63c-1.5-.54-2.29-2.21-1.75-3.71,.54-1.5,2.21-2.29,3.71-1.75l5.41,1.89c1.53,.5,2.34,2.15,1.83,3.67-.5,1.52-2.14,2.34-3.67,1.85l-5.55-1.94h0Zm33.99,9.39c-1.58-.3-2.61-1.82-2.31-3.4,.3-1.57,1.82-2.6,3.39-2.3,1.87,.36,3.78,.64,5.63,1.01,1.58,.25,2.65,1.73,2.41,3.33-.24,1.58-1.75,2.66-3.33,2.41l-5.8-1.04h0Zm35.04,3.92c-1.6-.06-2.86-1.4-2.81-2.99,.06-1.6,1.39-2.86,2.99-2.81l5.72,.11c1.6,.01,2.89,1.31,2.89,2.92,0,1.61-1.33,2.89-2.93,2.89l-5.88-.12h0Zm35.23-1.57c-1.59,.2-3.05-.93-3.25-2.51-.2-1.59,.92-3.05,2.51-3.25,1.9-.23,3.79-.49,5.68-.77,1.58-.24,3.06,.84,3.3,2.42,.24,1.58-.84,3.07-2.42,3.31-1.94,.3-3.88,.56-5.82,.8h0Zm34.54-7.05c-1.55,.44-3.16-.44-3.6-1.98-.44-1.54,.44-3.15,1.98-3.6,1.84-.52,3.67-1.08,5.49-1.66,1.52-.49,3.16,.36,3.65,1.89,.48,1.52-.36,3.16-1.89,3.65-1.87,.59-3.75,1.16-5.62,1.7h0Zm33-12.43c-1.45,.68-3.18,.07-3.87-1.38-.7-1.45-.08-3.18,1.38-3.87,1.72-.81,3.45-1.64,5.15-2.5,1.44-.73,3.18-.15,3.91,1.28,.72,1.43,.14,3.17-1.28,3.9-1.76,.88-3.53,1.75-5.29,2.56h0Zm30.63-17.46c-1.33,.91-3.13,.56-4.03-.76-.91-1.31-.56-3.13,.76-4.03l4.7-3.28c1.29-.94,3.12-.64,4.04,.65,.95,1.3,.64,3.12-.64,4.06l-4.83,3.37h0Zm27.52-22.04c-1.17,1.09-3,1.05-4.11-.12-1.09-1.16-1.04-3,.12-4.1,1.38-1.3,2.74-2.69,4.12-3.97,1.13-1.14,2.97-1.14,4.11,0,1.13,1.13,1.13,2.97,0,4.1l-4.24,4.09h0Zm23.73-26.05c-.97,1.26-2.81,1.49-4.07,.51-1.27-.98-1.5-2.81-.52-4.07l3.45-4.56c.94-1.3,2.76-1.59,4.05-.64,1.3,.95,1.58,2.76,.64,4.06-1.16,1.59-2.36,3.14-3.56,4.71h0Zm19.39-29.47c-.76,1.4-2.53,1.92-3.94,1.16-1.4-.76-1.92-2.53-1.16-3.93l2.71-5.06c.73-1.43,2.48-1.99,3.91-1.26,1.41,.73,1.98,2.48,1.26,3.9l-2.77,5.19h0Zm14.51-32.13c-.55,1.51-2.21,2.3-3.71,1.76-1.51-.54-2.3-2.21-1.75-3.72l1.86-5.39c.5-1.52,2.13-2.36,3.66-1.87,1.52,.5,2.35,2.13,1.87,3.66l-1.92,5.57h0Zm9.26-34.03c-.29,1.57-1.81,2.62-3.38,2.32-1.58-.29-2.62-1.8-2.32-3.38l.97-5.65c.25-1.58,1.75-2.66,3.34-2.41,1.57,.25,2.65,1.73,2.41,3.33l-1.02,5.79h0Zm3.79-35.06c-.03,1.6-1.38,2.87-2.97,2.83-1.61-.03-2.87-1.37-2.84-2.97l.1-5.73c0-1.6,1.3-2.91,2.89-2.91s2.9,1.3,2.9,2.91l-.09,5.88h0Zm-1.7-35.2c.2,1.59-.92,3.05-2.51,3.25-1.59,.2-3.05-.93-3.25-2.51-.18-1.8-.47-3.89-.8-5.67-.24-1.58,.83-3.07,2.41-3.33,1.59-.24,3.07,.84,3.33,2.42,.3,1.9,.63,3.92,.82,5.83h0Zm-7.19-34.54c.46,1.54-.41,3.16-1.94,3.61-1.54,.46-3.16-.41-3.61-1.94l-1.68-5.49c-.5-1.51,.34-3.16,1.87-3.66,1.53-.49,3.16,.34,3.65,1.87l1.72,5.61h0Zm-12.54-32.95c.7,1.45,.08,3.18-1.36,3.88-1.44,.7-3.18,.08-3.88-1.36l-2.53-5.15c-.73-1.43-.15-3.18,1.26-3.91,1.44-.72,3.18-.17,3.91,1.26,.91,1.75,1.75,3.51,2.6,5.28h0Zm-17.58-30.57c.91,1.33,.57,3.14-.73,4.04-1.33,.92-3.14,.59-4.04-.73l-3.3-4.68c-.95-1.29-.66-3.12,.63-4.05,1.3-.95,3.12-.66,4.07,.63l3.38,4.8h0Zm-22.14-27.42c1.1,1.16,1.06,2.99-.1,4.11-1.16,1.11-3,1.05-4.11-.11l-3.99-4.11c-1.14-1.14-1.14-2.97,0-4.11,1.13-1.13,2.96-1.13,4.1,0l4.1,4.22h0Zm-26.15-23.64c1.27,.97,1.51,2.81,.54,4.08-.97,1.27-2.81,1.51-4.08,.54l-4.58-3.45c-1.3-.95-1.58-2.76-.64-4.05,.95-1.29,2.76-1.58,4.05-.64l4.71,3.52h0Zm-29.53-19.27c1.41,.77,1.93,2.54,1.17,3.94-.76,1.4-2.53,1.92-3.93,1.16l-5.04-2.66c-1.45-.73-2.03-2.47-1.3-3.91,.73-1.43,2.47-2,3.9-1.28,1.7,.94,3.49,1.83,5.2,2.75h0Zm-32.2-14.39c1.52,.53,2.32,2.2,1.78,3.7-.53,1.51-2.19,2.31-3.7,1.78l-5.42-1.86c-1.53-.49-2.35-2.13-1.87-3.66,.5-1.52,2.14-2.35,3.67-1.87,1.86,.62,3.71,1.24,5.55,1.9h0Zm-34.06-9.13c1.58,.28,2.63,1.78,2.35,3.36-.29,1.58-1.79,2.63-3.37,2.35l-5.66-.96c-1.58-.24-2.66-1.73-2.42-3.31,.24-1.58,1.72-2.67,3.3-2.43,1.93,.3,3.87,.64,5.79,.99Z" style="fill:#d0d9ee; fill-rule:evenodd;"/><path d="M1146.04,647.68c-1.53,0-2.77-1.24-2.77-2.76s1.24-2.77,2.77-2.77l5.6,.07c1.53,.04,2.73,1.31,2.7,2.84-.04,1.54-1.31,2.74-2.84,2.71l-5.46-.08h0Zm-24.77-4.11c1.52-.19,2.9,.9,3.08,2.41,.18,1.52-.9,2.91-2.42,3.08-1.81,.21-3.62,.44-5.42,.7-1.51,.22-2.92-.82-3.14-2.33-.22-1.51,.82-2.92,2.33-3.14,1.85-.28,3.71-.51,5.56-.72h0Zm-32.99,6.47c1.46-.42,3,.44,3.41,1.91,.41,1.47-.44,3.01-1.91,3.41l-5.24,1.55c-1.46,.45-3.01-.36-3.46-1.82-.45-1.46,.36-3.02,1.82-3.47,1.78-.55,3.58-1.07,5.38-1.58h0Zm-31.57,11.6c1.38-.64,3.03-.04,3.68,1.34,.65,1.38,.05,3.04-1.33,3.68-1.66,.77-3.31,1.55-4.94,2.36-1.37,.67-3.04,.11-3.71-1.25-.69-1.37-.12-3.04,1.24-3.71l5.06-2.42h0Zm-29.33,16.44c1.27-.86,2.99-.52,3.84,.74,.86,1.27,.52,2.99-.74,3.84l-4.51,3.1c-1.25,.87-2.98,.59-3.86-.66-.88-1.24-.59-2.97,.65-3.86l4.62-3.17h0Zm-26.4,20.82c1.12-1.04,2.87-.97,3.91,.14,1.04,1.12,.98,2.87-.14,3.91l-3.97,3.77c-1.09,1.06-2.85,1.04-3.92-.04-1.07-1.09-1.04-2.85,.04-3.92l4.07-3.86h0Zm-22.83,24.68c.95-1.2,2.7-1.41,3.89-.46,1.2,.94,1.41,2.69,.46,3.89-1.13,1.41-2.22,2.86-3.31,4.31-.92,1.24-2.66,1.5-3.88,.6-1.23-.92-1.49-2.65-.59-3.88,1.16-1.47,2.26-2.99,3.43-4.45h0Zm-18.69,27.94c.75-1.34,2.44-1.81,3.77-1.06,1.34,.74,1.81,2.43,1.07,3.77-.9,1.58-1.75,3.18-2.61,4.8-.71,1.35-2.38,1.88-3.73,1.17-1.35-.71-1.88-2.38-1.18-3.73,.88-1.65,1.76-3.3,2.68-4.94h0Zm-14.07,30.55c.52-1.44,2.12-2.18,3.55-1.66,1.44,.53,2.18,2.12,1.65,3.56l-1.81,5.13c-.49,1.46-2.05,2.25-3.51,1.77-1.45-.49-2.23-2.06-1.75-3.5,.66-1.71,1.23-3.56,1.87-5.29h0Zm-9.08,32.38c.28-1.5,1.73-2.49,3.24-2.2,1.5,.29,2.49,1.74,2.2,3.24l-.98,5.38c-.25,1.5-1.68,2.53-3.19,2.28-1.51-.24-2.53-1.67-2.28-3.18l1.01-5.51h0Zm-3.87,33.4c.05-1.53,1.33-2.72,2.86-2.67,1.52,.04,2.72,1.33,2.68,2.85l-.13,5.46c0,1.54-1.25,2.76-2.78,2.76-1.53-.01-2.76-1.26-2.75-2.78,.01-1.88,.07-3.75,.13-5.61h0Zm1.37,33.59c-.19-1.52,.89-2.91,2.41-3.08,1.52-.19,2.9,.9,3.08,2.42,.2,1.8,.46,3.61,.72,5.41,.22,1.51-.82,2.92-2.33,3.14-1.51,.22-2.92-.83-3.14-2.33-.27-1.84-.53-3.71-.73-5.56h0Zm6.61,32.98c-.43-1.47,.41-3,1.88-3.44,1.46-.42,3,.42,3.43,1.89,.5,1.76,1.02,3.5,1.56,5.24,.46,1.46-.34,3.02-1.8,3.48-1.45,.46-3.01-.34-3.47-1.8-.57-1.78-1.09-3.58-1.6-5.37h0Zm11.72,31.51c-.65-1.39-.05-3.04,1.33-3.69,1.39-.64,3.04-.04,3.68,1.34,.76,1.65,1.56,3.29,2.37,4.92,.69,1.37,.14,3.03-1.23,3.72-1.36,.69-3.03,.13-3.72-1.23-.85-1.62-1.67-3.39-2.44-5.06h0Zm16.54,29.27c-.85-1.27-.51-2.99,.75-3.84,1.27-.85,2.99-.52,3.84,.75,1.01,1.5,2.04,3.01,3.1,4.47,.89,1.24,.61,2.97-.62,3.87-1.24,.89-2.97,.61-3.87-.63-1.08-1.52-2.15-3.06-3.2-4.62h0Zm20.94,26.33c-1.05-1.12-.99-2.86,.12-3.91,1.11-1.05,2.87-1,3.91,.12l3.78,3.95c1.08,1.08,1.07,2.83-.02,3.91-1.08,1.07-2.83,1.06-3.91-.02-1.32-1.34-2.6-2.69-3.87-4.05h0Zm24.77,22.74c-1.2-.94-1.43-2.68-.49-3.89,.94-1.2,2.68-1.42,3.88-.49,1.44,1.13,2.88,2.23,4.35,3.31,1.23,.91,1.5,2.64,.59,3.87-.91,1.23-2.65,1.49-3.87,.58l-4.46-3.39h0Zm28.01,18.58c-1.34-.73-1.82-2.42-1.09-3.76,.74-1.34,2.43-1.83,3.76-1.09l4.82,2.6c1.35,.71,1.88,2.38,1.18,3.74-.71,1.35-2.39,1.88-3.73,1.17l-4.94-2.65h0Zm30.59,13.95c-1.44-.52-2.18-2.11-1.67-3.55,.52-1.44,2.11-2.18,3.55-1.67l5.16,1.81c1.45,.47,2.24,2.04,1.76,3.49-.48,1.46-2.05,2.23-3.5,1.76l-5.3-1.84h0Zm32.41,8.95c-1.5-.29-2.49-1.73-2.2-3.24,.29-1.5,1.75-2.48,3.24-2.2,1.78,.35,3.61,.61,5.37,.96,1.51,.24,2.54,1.66,2.3,3.17-.24,1.5-1.66,2.54-3.17,2.3l-5.54-.99h0Zm33.42,3.75c-1.52-.06-2.73-1.34-2.68-2.86,.05-1.52,1.33-2.72,2.86-2.67l5.46,.11c1.53,.01,2.76,1.26,2.75,2.78,0,1.52-1.25,2.76-2.78,2.75l-5.61-.11h0Zm33.59-1.49c-1.51,.19-2.91-.88-3.09-2.4-.19-1.51,.88-2.91,2.39-3.1,1.81-.22,3.62-.45,5.41-.73,1.51-.23,2.93,.8,3.16,2.31,.23,1.51-.81,2.93-2.32,3.16-1.85,.28-3.71,.53-5.56,.76h0Zm32.94-6.73c-1.47,.42-3-.42-3.43-1.89-.43-1.47,.41-3,1.88-3.42,1.76-.51,3.5-1.04,5.24-1.59,1.46-.45,3.02,.35,3.47,1.8,.46,1.46-.35,3.02-1.8,3.48-1.78,.56-3.56,1.12-5.36,1.62h0Zm31.48-11.85c-1.38,.66-3.04,.07-3.69-1.31-.65-1.38-.07-3.04,1.32-3.68,1.66-.77,3.29-1.57,4.92-2.4,1.37-.68,3.03-.14,3.72,1.23,.7,1.37,.14,3.03-1.23,3.72-1.66,.84-3.35,1.66-5.04,2.44h0Zm29.21-16.64c-1.27,.85-2.98,.53-3.86-.73-.85-1.26-.53-2.98,.73-3.84l4.48-3.14c1.24-.89,2.97-.61,3.87,.63,.9,1.24,.62,2.97-.62,3.86l-4.6,3.23h0Zm26.23-21.03c-1.11,1.05-2.86,.99-3.91-.12-1.04-1.1-.99-2.86,.12-3.91,1.33-1.24,2.61-2.56,3.93-3.78,1.07-1.08,2.84-1.08,3.91,0,1.07,1.08,1.07,2.83,0,3.91l-4.05,3.9h0Zm22.65-24.85c-.93,1.2-2.67,1.42-3.89,.49-1.2-.94-1.41-2.67-.49-3.88l3.29-4.35c.89-1.24,2.63-1.51,3.87-.61,1.23,.89,1.5,2.63,.6,3.87-1.1,1.51-2.25,2.99-3.38,4.49h0Zm18.48-28.11c-.72,1.35-2.41,1.84-3.75,1.12-1.35-.73-1.85-2.42-1.12-3.76l2.57-4.83c.69-1.36,2.36-1.9,3.72-1.19,1.36,.69,1.9,2.37,1.2,3.72l-2.64,4.94h0Zm13.84-30.63c-.53,1.44-2.11,2.19-3.56,1.67-1.44-.52-2.18-2.11-1.66-3.55l1.77-5.15c.47-1.46,2.04-2.25,3.49-1.78,1.46,.48,2.25,2.03,1.78,3.49l-1.82,5.31h0Zm8.82-32.46c-.28,1.5-1.72,2.5-3.23,2.22-1.5-.28-2.5-1.73-2.21-3.23l.94-5.39c.23-1.5,1.67-2.53,3.17-2.3,1.5,.24,2.54,1.66,2.3,3.17l-.97,5.52h0Zm3.62-33.43c-.05,1.53-1.32,2.74-2.85,2.7-1.52-.03-2.73-1.3-2.7-2.83l.09-5.47c0-1.53,1.25-2.77,2.77-2.77s2.77,1.25,2.77,2.77l-.09,5.6h0Zm-1.62-33.56c.19,1.51-.88,2.89-2.4,3.09-1.51,.19-2.91-.88-3.09-2.4-.18-1.71-.45-3.7-.75-5.39-.24-1.51,.78-2.94,2.3-3.17,1.5-.24,2.93,.78,3.16,2.3,.29,1.81,.6,3.75,.79,5.57h0Zm-6.86-32.94c.44,1.46-.4,3-1.86,3.45-1.46,.43-3-.4-3.45-1.87l-1.6-5.23c-.48-1.46,.32-3.02,1.78-3.49,1.46-.48,3.02,.32,3.49,1.78l1.63,5.36h0Zm-11.96-31.43c.66,1.38,.09,3.04-1.29,3.7-1.37,.66-3.03,.08-3.69-1.29l-2.41-4.91c-.7-1.37-.15-3.04,1.19-3.73,1.37-.69,3.04-.16,3.73,1.2,.85,1.66,1.67,3.35,2.46,5.03h0Zm-16.76-29.15c.86,1.26,.55,2.98-.7,3.86-1.25,.87-2.98,.55-3.86-.7l-3.15-4.47c-.9-1.23-.63-2.97,.61-3.87,1.24-.9,2.96-.63,3.87,.61l3.23,4.57h0Zm-21.11-26.16c1.05,1.12,1.01,2.87-.1,3.92-1.1,1.05-2.85,1.01-3.91-.1l-3.81-3.92c-1.07-1.08-1.07-2.83,0-3.91,1.08-1.08,2.84-1.08,3.92,0l3.9,4.01h0Zm-24.94-22.54c1.21,.93,1.44,2.67,.51,3.89-.93,1.2-2.67,1.44-3.88,.51l-4.38-3.28c-1.24-.9-1.51-2.63-.61-3.87,.9-1.24,2.63-1.51,3.87-.61l4.49,3.36h0Zm-28.16-18.37c1.34,.73,1.84,2.42,1.12,3.76-.73,1.34-2.42,1.83-3.76,1.1l-4.79-2.53c-1.39-.71-1.94-2.36-1.25-3.73,.68-1.37,2.35-1.91,3.72-1.23,1.61,.89,3.33,1.75,4.96,2.63h0Zm-30.7-13.72c1.44,.51,2.2,2.09,1.69,3.54-.51,1.44-2.09,2.2-3.53,1.69l-5.18-1.77c-1.45-.46-2.25-2.03-1.78-3.49,.47-1.45,2.03-2.24,3.49-1.77,1.78,.57,3.55,1.17,5.31,1.8h0Zm-32.49-8.71c1.51,.27,2.51,1.7,2.24,3.21-.27,1.5-1.71,2.5-3.21,2.23l-5.4-.92c-1.51-.23-2.54-1.65-2.31-3.15,.23-1.51,1.65-2.55,3.15-2.32,1.84,.28,3.69,.61,5.52,.94Z" style="fill:#d0d9ee; fill-rule:evenodd;"/><path d="M1651.59,891.55c-1.65,0-2.98-1.34-2.98-2.98s1.34-2.98,2.98-2.98l6.02,.08c1.65,.03,2.95,1.4,2.91,3.05-.03,1.65-1.4,2.95-3.05,2.91l-5.88-.07h0Zm-26.65-4.44c1.62-.19,3.12,.97,3.32,2.61,.19,1.63-.97,3.12-2.61,3.31-1.94,.23-3.89,.46-5.83,.75-1.62,.24-3.14-.88-3.38-2.52-.23-1.62,.88-3.14,2.52-3.38,1.99-.29,3.98-.53,5.99-.77h0Zm-35.51,6.98c1.58-.45,3.23,.46,3.68,2.05,.45,1.58-.47,3.23-2.05,3.68l-5.65,1.66c-1.57,.49-3.24-.39-3.73-1.97-.49-1.57,.4-3.24,1.97-3.72,1.92-.6,3.85-1.16,5.79-1.7h0Zm-33.97,12.48c1.49-.7,3.26-.06,3.97,1.44,.7,1.49,.04,3.26-1.44,3.97-1.78,.82-3.57,1.66-5.33,2.53-1.46,.73-3.26,.13-3.99-1.35-.73-1.47-.12-3.26,1.34-3.99l5.45-2.6h0Zm-31.57,17.68c1.36-.92,3.23-.55,4.13,.81,.93,1.36,.56,3.21-.79,4.13l-4.85,3.34c-1.34,.95-3.2,.64-4.15-.7-.96-1.35-.64-3.2,.7-4.15l4.97-3.42h0Zm-28.41,22.41c1.2-1.12,3.08-1.05,4.21,.16,1.12,1.21,1.05,3.09-.15,4.21l-4.26,4.06c-1.17,1.15-3.07,1.13-4.22-.06-1.15-1.17-1.13-3.06,.04-4.21l4.39-4.15h0Zm-24.56,26.56c1.02-1.29,2.9-1.51,4.18-.5,1.3,1.02,1.53,2.89,.51,4.19-1.21,1.53-2.41,3.07-3.58,4.64-.97,1.33-2.85,1.61-4.17,.64-1.33-.98-1.61-2.85-.63-4.18,1.24-1.58,2.43-3.21,3.69-4.8h0Zm-20.13,30.07c.81-1.44,2.63-1.94,4.07-1.15,1.44,.81,1.94,2.63,1.14,4.07-.96,1.7-1.88,3.42-2.79,5.16-.76,1.45-2.56,2.02-4.02,1.26-1.46-.76-2.03-2.56-1.27-4.02,.94-1.78,1.9-3.56,2.88-5.31h0Zm-15.14,32.87c.55-1.54,2.28-2.33,3.82-1.77,1.54,.56,2.33,2.28,1.77,3.81l-1.95,5.54c-.53,1.57-2.21,2.41-3.78,1.89-1.56-.52-2.41-2.21-1.88-3.77,.71-1.84,1.33-3.82,2.01-5.7h0Zm-9.77,34.86c.3-1.61,1.87-2.67,3.48-2.37,1.61,.31,2.67,1.87,2.36,3.49l-1.05,5.78c-.28,1.62-1.81,2.73-3.42,2.45-1.64-.27-2.73-1.8-2.46-3.42l1.09-5.93h0Zm-4.16,35.94c.05-1.63,1.43-2.93,3.07-2.87,1.65,.04,2.93,1.42,2.88,3.07l-.13,5.88c-.02,1.65-1.36,2.97-3.01,2.96-1.65-.01-2.97-1.36-2.96-2.99,.01-2.01,.08-4.03,.14-6.04h0Zm1.47,36.14c-.2-1.62,.97-3.12,2.61-3.31,1.62-.2,3.12,.97,3.31,2.61,.22,1.94,.49,3.89,.77,5.83,.23,1.62-.89,3.14-2.52,3.38-1.63,.23-3.14-.89-3.38-2.52-.29-1.99-.58-3.99-.8-5.99h0Zm7.12,35.5c-.46-1.58,.44-3.23,2.03-3.69,1.57-.45,3.23,.45,3.69,2.02,.53,1.89,1.08,3.78,1.68,5.65,.49,1.57-.38,3.25-1.94,3.75-1.57,.49-3.25-.38-3.73-1.95-.62-1.91-1.17-3.84-1.72-5.78h0Zm12.61,33.91c-.7-1.49-.06-3.27,1.44-3.96,1.49-.71,3.27-.07,3.97,1.43,.82,1.78,1.67,3.55,2.54,5.29,.74,1.47,.15,3.27-1.32,4-1.47,.75-3.26,.16-4.01-1.31-.91-1.75-1.79-3.65-2.62-5.45h0Zm17.8,31.5c-.92-1.36-.55-3.21,.81-4.13,1.36-.92,3.21-.56,4.13,.81,1.09,1.61,2.21,3.23,3.35,4.82,.96,1.33,.65,3.19-.67,4.15-1.34,.97-3.19,.66-4.16-.66-1.17-1.65-2.32-3.31-3.45-4.98h0Zm22.53,28.34c-1.13-1.19-1.07-3.08,.12-4.21,1.2-1.13,3.09-1.07,4.22,.12l4.07,4.25c1.15,1.17,1.14,3.06-.02,4.21-1.17,1.16-3.06,1.15-4.22-.02-1.41-1.42-2.78-2.88-4.17-4.35h0Zm26.66,24.46c-1.3-1.01-1.55-2.88-.53-4.18,1-1.3,2.87-1.54,4.17-.53,1.55,1.21,3.1,2.41,4.69,3.57,1.33,.98,1.6,2.84,.63,4.17-.98,1.33-2.84,1.61-4.17,.63l-4.8-3.66h0Zm30.14,20.01c-1.44-.8-1.96-2.61-1.17-4.05,.79-1.44,2.61-1.96,4.04-1.17l5.19,2.8c1.46,.76,2.03,2.56,1.27,4.02-.76,1.46-2.56,2.02-4.02,1.26l-5.31-2.85h0Zm32.92,15.01c-1.55-.55-2.34-2.26-1.79-3.81,.55-1.55,2.26-2.35,3.81-1.8l5.56,1.94c1.56,.52,2.4,2.21,1.89,3.77-.52,1.56-2.21,2.4-3.77,1.89l-5.7-1.99h0Zm34.87,9.63c-1.61-.31-2.66-1.88-2.36-3.49,.31-1.61,1.88-2.67,3.49-2.36,1.91,.38,3.88,.65,5.77,1.04,1.63,.25,2.74,1.79,2.48,3.4-.25,1.62-1.79,2.74-3.41,2.47l-5.97-1.06h0Zm35.97,4.02c-1.65-.05-2.94-1.44-2.88-3.07,.06-1.65,1.43-2.94,3.07-2.88l5.88,.12c1.65,.01,2.97,1.35,2.96,2.99-.01,1.65-1.36,2.97-2.99,2.96l-6.03-.12h0Zm36.15-1.6c-1.63,.2-3.13-.95-3.34-2.58-.2-1.62,.95-3.13,2.59-3.33,1.95-.24,3.89-.5,5.82-.8,1.62-.24,3.15,.86,3.4,2.49,.24,1.62-.87,3.15-2.5,3.39-1.99,.31-3.98,.58-5.98,.83h0Zm35.44-7.25c-1.57,.46-3.23-.44-3.69-2.02-.45-1.58,.45-3.24,2.03-3.69,1.89-.54,3.76-1.13,5.63-1.7,1.57-.5,3.25,.36,3.73,1.93,.5,1.57-.38,3.25-1.93,3.75-1.91,.6-3.83,1.19-5.78,1.73h0Zm33.88-12.74c-1.48,.7-3.27,.07-3.97-1.43-.7-1.49-.07-3.26,1.41-3.96,1.78-.83,3.55-1.69,5.29-2.57,1.47-.74,3.27-.14,4.01,1.31,.74,1.47,.14,3.27-1.31,4.01-1.8,.91-3.61,1.78-5.44,2.64h0Zm31.44-17.92c-1.37,.93-3.23,.57-4.14-.79-.93-1.36-.59-3.21,.77-4.14l4.83-3.37c1.33-.96,3.19-.65,4.16,.67,.96,1.33,.66,3.2-.67,4.15l-4.94,3.47h0Zm28.24-22.63c-1.2,1.13-3.09,1.08-4.22-.12-1.13-1.19-1.07-3.08,.13-4.21,1.41-1.34,2.81-2.76,4.22-4.08,1.17-1.16,3.06-1.16,4.22,0,1.16,1.16,1.16,3.06,0,4.21l-4.35,4.2h0Zm24.36-26.74c-1.01,1.29-2.88,1.54-4.19,.53-1.29-1.02-1.53-2.88-.52-4.19l3.54-4.68c.96-1.33,2.84-1.62,4.17-.65,1.33,.97,1.61,2.84,.65,4.16-1.19,1.62-2.43,3.22-3.65,4.83h0Zm19.9-30.25c-.78,1.45-2.6,1.99-4.04,1.2-1.45-.78-1.98-2.6-1.19-4.04l2.76-5.19c.75-1.47,2.55-2.04,4.02-1.29,1.46,.75,2.03,2.54,1.28,4.01l-2.83,5.31h0Zm14.88-32.96c-.56,1.55-2.27,2.35-3.81,1.79-1.55-.55-2.35-2.26-1.79-3.81l1.9-5.55c.51-1.56,2.2-2.41,3.76-1.9,1.57,.5,2.43,2.19,1.92,3.75l-1.98,5.72h0Zm9.5-34.93c-.3,1.61-1.86,2.68-3.47,2.39-1.62-.3-2.68-1.86-2.39-3.47l1.01-5.8c.27-1.61,1.79-2.73,3.43-2.47,1.61,.27,2.72,1.79,2.47,3.41l-1.05,5.94h0Zm3.89-35.97c-.03,1.65-1.4,2.95-3.06,2.91-1.63-.04-2.94-1.41-2.89-3.06l.09-5.88c0-1.65,1.34-2.98,2.98-2.98s2.98,1.34,2.98,2.98l-.1,6.03h0Zm-1.73-36.13c.2,1.64-.96,3.13-2.59,3.34-1.63,.2-3.13-.96-3.34-2.58-.18-1.85-.49-3.98-.82-5.81-.25-1.62,.86-3.15,2.47-3.4,1.64-.25,3.16,.85,3.43,2.47,.29,1.96,.64,4.03,.84,5.99h0Zm-7.38-35.44c.46,1.58-.43,3.24-2.01,3.71-1.57,.46-3.24-.43-3.71-2.01l-1.71-5.62c-.51-1.57,.34-3.25,1.91-3.76,1.57-.51,3.25,.35,3.76,1.91l1.77,5.77h0Zm-12.88-33.82c.71,1.48,.09,3.26-1.39,3.98-1.48,.71-3.27,.09-3.98-1.39l-2.59-5.28c-.75-1.46-.18-3.26,1.28-4.01,1.47-.75,3.27-.17,4.01,1.29,.92,1.79,1.8,3.6,2.66,5.41h0Zm-18.04-31.37c.94,1.35,.6,3.22-.75,4.14-1.35,.94-3.21,.6-4.14-.75l-3.39-4.81c-.97-1.34-.67-3.19,.65-4.17,1.33-.97,3.19-.67,4.15,.65l3.48,4.93h0Zm-22.73-28.15c1.14,1.19,1.08,3.08-.1,4.21-1.18,1.14-3.08,1.09-4.21-.1l-4.11-4.22c-1.15-1.16-1.15-3.05,0-4.22,1.17-1.16,3.06-1.16,4.22,0l4.2,4.33h0Zm-26.84-24.26c1.3,.99,1.56,2.87,.55,4.18-1,1.3-2.87,1.56-4.18,.55l-4.72-3.52c-1.33-.97-1.61-2.84-.64-4.17,.97-1.34,2.83-1.62,4.15-.65l4.83,3.61h0Zm-30.31-19.78c1.45,.78,1.99,2.61,1.19,4.04-.77,1.45-2.59,1.98-4.03,1.19l-5.16-2.73c-1.5-.75-2.09-2.55-1.35-4.02,.74-1.46,2.54-2.05,4.01-1.31,1.74,.97,3.58,1.88,5.34,2.83h0Zm-33.04-14.76c1.55,.54,2.36,2.24,1.82,3.79-.54,1.56-2.25,2.38-3.8,1.82l-5.58-1.89c-1.56-.51-2.41-2.2-1.9-3.76,.5-1.57,2.19-2.42,3.76-1.91,1.9,.63,3.81,1.27,5.7,1.94h0Zm-34.97-9.38c1.62,.29,2.71,1.83,2.42,3.46-.29,1.62-1.83,2.7-3.46,2.42l-5.8-1c-1.63-.24-2.74-1.78-2.5-3.4,.24-1.62,1.77-2.74,3.39-2.49,1.99,.3,3.97,.65,5.94,1Z" style="fill:#d0d9ee; fill-rule:evenodd;"/><path d="M600.34,911.53c-1.51,0-2.73-1.23-2.73-2.73s1.23-2.74,2.73-2.74l5.54,.07c1.51,.03,2.7,1.29,2.67,2.81-.03,1.5-1.29,2.7-2.81,2.66l-5.4-.07h0Zm-24.47-4.07c1.5-.19,2.87,.9,3.04,2.39,.18,1.5-.89,2.86-2.39,3.04-1.79,.21-3.57,.44-5.35,.7-1.5,.21-2.88-.82-3.1-2.31-.22-1.49,.82-2.88,2.31-3.1,1.82-.26,3.66-.5,5.49-.71h0Zm-32.59,6.4c1.45-.41,2.96,.44,3.37,1.89,.41,1.45-.44,2.96-1.89,3.38l-5.18,1.51c-1.44,.45-2.97-.35-3.42-1.79-.45-1.45,.36-2.98,1.8-3.42,1.76-.55,3.53-1.07,5.31-1.57h0Zm-31.2,11.47c1.37-.64,3-.05,3.64,1.31,.64,1.37,.05,2.99-1.32,3.63-1.63,.76-3.27,1.53-4.88,2.33-1.35,.67-3,.12-3.67-1.24-.67-1.35-.12-2.99,1.23-3.67l4.99-2.38h0Zm-28.97,16.23c1.25-.84,2.96-.51,3.8,.74,.84,1.25,.51,2.95-.75,3.8l-4.45,3.06c-1.23,.87-2.94,.59-3.82-.65-.87-1.23-.59-2.94,.65-3.81l4.56-3.14h0Zm-26.08,20.57c1.1-1.03,2.84-.97,3.86,.14,1.03,1.09,.97,2.83-.14,3.85l-3.92,3.72c-1.08,1.05-2.81,1.03-3.87-.04-1.06-1.08-1.04-2.82,.04-3.87l4.02-3.81h0Zm-22.55,24.38c.93-1.19,2.66-1.39,3.84-.46,1.19,.94,1.39,2.66,.46,3.85-1.12,1.4-2.2,2.83-3.28,4.25-.91,1.23-2.62,1.49-3.83,.59-1.22-.88-1.48-2.61-.58-3.82,1.14-1.45,2.23-2.95,3.39-4.4h0Zm-18.47,27.61c.73-1.33,2.4-1.79,3.72-1.06,1.32,.74,1.79,2.41,1.05,3.72-.89,1.57-1.73,3.15-2.57,4.74-.7,1.34-2.35,1.87-3.69,1.16-1.34-.7-1.86-2.35-1.16-3.69,.87-1.63,1.74-3.27,2.65-4.87h0Zm-13.9,30.17c.51-1.43,2.09-2.14,3.51-1.64,1.41,.52,2.14,2.09,1.63,3.51l-1.8,5.07c-.48,1.45-2.03,2.22-3.46,1.75-1.44-.49-2.22-2.03-1.73-3.47,.65-1.69,1.22-3.5,1.85-5.23h0Zm-8.97,32c.28-1.48,1.72-2.45,3.2-2.18,1.48,.29,2.45,1.72,2.17,3.2l-.97,5.31c-.25,1.48-1.66,2.5-3.15,2.25-1.49-.25-2.5-1.66-2.25-3.15l.99-5.45h0Zm-3.81,33c.04-1.51,1.31-2.7,2.82-2.65,1.51,.04,2.69,1.31,2.65,2.82l-.13,5.4c-.01,1.51-1.24,2.73-2.75,2.72-1.51,0-2.73-1.25-2.72-2.75,.02-1.84,.07-3.69,.14-5.54h0Zm1.34,33.17c-.18-1.49,.9-2.86,2.39-3.04,1.5-.18,2.86,.88,3.04,2.39,.2,1.79,.45,3.57,.7,5.35,.22,1.5-.81,2.9-2.31,3.1-1.49,.22-2.88-.81-3.1-2.31-.26-1.82-.52-3.66-.73-5.49h0Zm6.53,32.59c-.42-1.45,.41-2.97,1.86-3.39,1.45-.42,2.97,.41,3.39,1.87,.49,1.72,1,3.46,1.55,5.17,.45,1.45-.34,2.98-1.78,3.44-1.44,.45-2.98-.34-3.43-1.78-.56-1.76-1.08-3.54-1.59-5.3h0Zm11.58,31.12c-.64-1.37-.05-2.99,1.32-3.64,1.36-.64,2.99-.05,3.64,1.32,.75,1.63,1.54,3.25,2.34,4.86,.68,1.35,.14,2.99-1.21,3.67-1.35,.69-2.99,.13-3.68-1.21-.84-1.6-1.65-3.34-2.4-4.99h0Zm16.34,28.91c-.85-1.25-.51-2.95,.73-3.79,1.25-.84,2.96-.52,3.8,.73,.99,1.49,2.02,2.98,3.07,4.43,.88,1.23,.6,2.94-.62,3.81-1.22,.9-2.93,.62-3.82-.61-1.07-1.51-2.14-3.04-3.17-4.57h0Zm20.68,26.02c-1.03-1.11-.98-2.83,.12-3.87,1.1-1.04,2.83-.98,3.87,.12l3.73,3.9c1.06,1.07,1.05,2.81-.02,3.87-1.07,1.06-2.81,1.05-3.87-.02-1.3-1.31-2.57-2.65-3.83-4h0Zm24.47,22.45c-1.19-.92-1.41-2.64-.49-3.82,.92-1.19,2.64-1.42,3.83-.49,1.42,1.1,2.85,2.2,4.3,3.27,1.22,.89,1.48,2.61,.58,3.82-.9,1.21-2.62,1.48-3.83,.57l-4.4-3.36h0Zm27.68,18.37c-1.32-.73-1.8-2.4-1.08-3.72,.73-1.32,2.39-1.79,3.72-1.07l4.76,2.56c1.34,.7,1.86,2.35,1.16,3.69-.7,1.34-2.35,1.87-3.69,1.16l-4.87-2.62h0Zm30.22,13.78c-1.42-.51-2.16-2.08-1.65-3.49,.51-1.43,2.08-2.17,3.5-1.65l5.1,1.78c1.43,.47,2.21,2.02,1.73,3.46-.47,1.42-2.02,2.21-3.45,1.74l-5.23-1.83h0Zm32.02,8.85c-1.49-.28-2.45-1.71-2.18-3.2,.28-1.48,1.72-2.45,3.2-2.17,1.76,.34,3.56,.6,5.3,.95,1.49,.23,2.51,1.64,2.28,3.13-.23,1.49-1.65,2.51-3.14,2.28l-5.46-.98h0Zm33.01,3.69c-1.51-.04-2.69-1.31-2.65-2.82,.04-1.5,1.31-2.7,2.82-2.65l5.39,.11c1.51,.01,2.73,1.25,2.72,2.76-.01,1.5-1.24,2.72-2.76,2.72l-5.54-.12h0Zm33.19-1.47c-1.5,.19-2.87-.87-3.06-2.36-.19-1.5,.87-2.87,2.36-3.06,1.78-.22,3.57-.45,5.35-.74,1.49-.22,2.89,.81,3.12,2.3,.23,1.48-.8,2.9-2.29,3.12-1.83,.28-3.66,.52-5.49,.75h0Zm32.54-6.65c-1.45,.42-2.97-.41-3.39-1.86-.42-1.45,.41-2.97,1.87-3.39,1.73-.49,3.45-1.03,5.17-1.56,1.44-.46,2.98,.33,3.43,1.78,.46,1.44-.34,2.97-1.78,3.42-1.76,.56-3.52,1.1-5.3,1.6h0Zm31.09-11.7c-1.36,.65-2.99,.07-3.64-1.3-.65-1.36-.06-2.99,1.3-3.64,1.64-.77,3.25-1.56,4.86-2.36,1.35-.69,2.99-.14,3.67,1.21,.68,1.36,.14,2.99-1.21,3.68-1.65,.83-3.31,1.64-4.98,2.42h0Zm28.86-16.45c-1.25,.85-2.96,.53-3.81-.72-.85-1.25-.53-2.95,.72-3.8l4.42-3.09c1.23-.88,2.93-.61,3.82,.62,.88,1.23,.61,2.94-.62,3.82l-4.54,3.17h0Zm25.93-20.76c-1.1,1.03-2.84,.98-3.87-.12-1.04-1.09-.99-2.83,.11-3.87,1.31-1.21,2.58-2.53,3.89-3.73,1.07-1.06,2.8-1.06,3.87,0,1.07,1.06,1.07,2.81,0,3.87l-4,3.86h0Zm22.37-24.56c-.92,1.19-2.65,1.41-3.84,.49-1.19-.92-1.41-2.64-.49-3.83l3.25-4.3c.89-1.23,2.6-1.49,3.82-.6,1.22,.88,1.49,2.6,.6,3.81-1.09,1.5-2.22,2.96-3.34,4.43h0Zm18.27-27.76c-.72,1.34-2.39,1.82-3.71,1.11-1.33-.72-1.82-2.39-1.1-3.71l2.54-4.76c.69-1.35,2.34-1.88,3.69-1.19,1.34,.69,1.87,2.34,1.19,3.69l-2.6,4.87h0Zm13.66-30.26c-.51,1.43-2.08,2.17-3.5,1.66-1.43-.51-2.16-2.09-1.65-3.5l1.75-5.09c.46-1.44,2.01-2.22,3.45-1.75,1.44,.46,2.22,2.01,1.76,3.44l-1.81,5.25h0Zm8.72-32.06c-.28,1.48-1.7,2.46-3.19,2.19-1.48-.27-2.46-1.7-2.19-3.18l.93-5.33c.24-1.48,1.64-2.5,3.13-2.27s2.51,1.64,2.27,3.13l-.96,5.46h0Zm3.57-33.02c-.03,1.51-1.29,2.71-2.81,2.66-1.5-.03-2.7-1.29-2.66-2.81l.09-5.39c0-1.51,1.23-2.74,2.74-2.74s2.73,1.23,2.73,2.74l-.09,5.54h0Zm-1.59-33.17c.18,1.49-.88,2.87-2.38,3.06-1.5,.19-2.87-.87-3.06-2.38-.17-1.69-.45-3.65-.75-5.33-.24-1.49,.78-2.89,2.27-3.13,1.49-.24,2.9,.77,3.13,2.26,.28,1.8,.59,3.7,.78,5.5h0Zm-6.78-32.54c.43,1.45-.39,2.97-1.84,3.4-1.45,.43-2.97-.39-3.4-1.83l-1.59-5.17c-.46-1.44,.32-2.98,1.76-3.45,1.44-.46,2.98,.32,3.45,1.76l1.62,5.29h0Zm-11.82-31.05c.65,1.36,.08,2.99-1.28,3.65-1.35,.66-2.99,.09-3.65-1.27l-2.38-4.85c-.68-1.35-.16-3,1.18-3.69,1.35-.68,3-.15,3.68,1.19,.85,1.64,1.65,3.3,2.44,4.97h0Zm-16.57-28.8c.86,1.24,.55,2.95-.68,3.81-1.24,.86-2.95,.55-3.81-.69l-3.11-4.42c-.89-1.21-.62-2.94,.6-3.82,1.22-.89,2.93-.62,3.82,.6l3.19,4.52h0Zm-20.86-25.84c1.04,1.09,1,2.83-.09,3.87-1.09,1.05-2.82,1.01-3.87-.09l-3.76-3.88c-1.07-1.07-1.07-2.81,0-3.87,1.07-1.07,2.8-1.07,3.87,0l3.86,3.97h0Zm-24.64-22.27c1.2,.93,1.43,2.64,.51,3.84-.92,1.19-2.64,1.43-3.83,.51l-4.33-3.25c-1.22-.88-1.49-2.6-.6-3.82,.89-1.22,2.61-1.49,3.82-.6l4.43,3.31h0Zm-27.81-18.14c1.32,.72,1.81,2.39,1.09,3.7-.72,1.33-2.39,1.81-3.71,1.09l-4.74-2.51c-1.37-.69-1.91-2.33-1.24-3.68,.68-1.35,2.33-1.89,3.68-1.21,1.6,.89,3.29,1.72,4.91,2.61h0Zm-30.33-13.57c1.42,.51,2.17,2.07,1.67,3.49-.5,1.42-2.07,2.18-3.48,1.67l-5.12-1.73c-1.44-.46-2.23-2.01-1.76-3.45,.46-1.44,2.01-2.22,3.45-1.76,1.75,.57,3.5,1.16,5.24,1.78h0Zm-32.1-8.59c1.49,.25,2.48,1.68,2.21,3.17-.26,1.48-1.68,2.47-3.17,2.21l-5.33-.91c-1.49-.23-2.51-1.62-2.29-3.12,.23-1.49,1.63-2.52,3.12-2.29,1.82,.28,3.64,.6,5.45,.93Z" style="fill:#d0d9ee; fill-rule:evenodd;"/><path d="M1256.58,317.65c-1.44,0-2.6-1.16-2.6-2.6s1.16-2.59,2.6-2.59c1.8,.01,3.55,.08,5.35,.2,1.43,.09,2.51,1.33,2.41,2.76-.09,1.43-1.34,2.51-2.76,2.41-1.68-.11-3.31-.18-4.99-.19h0Zm-20.79-2.09c1.37-.42,2.82,.34,3.25,1.7,.42,1.37-.34,2.83-1.7,3.25-1.59,.48-3.18,1.04-4.72,1.64-1.34,.53-2.84-.13-3.37-1.46-.52-1.33,.13-2.84,1.46-3.36,1.66-.65,3.38-1.26,5.08-1.77h0Zm-27.68,16.03c1.04-.97,2.68-.93,3.66,.12,.98,1.04,.93,2.69-.12,3.66-1.22,1.14-2.36,2.32-3.51,3.54-.96,1.05-2.6,1.13-3.66,.18-1.05-.96-1.13-2.61-.17-3.67,1.23-1.31,2.47-2.6,3.79-3.82h0Zm-17.86,26.54c.51-1.34,2-2,3.34-1.49,1.34,.51,2.01,2,1.5,3.34-.59,1.56-1.13,3.12-1.6,4.71-.4,1.38-1.84,2.17-3.21,1.77-1.37-.4-2.16-1.83-1.76-3.21,.54-1.73,1.09-3.39,1.72-5.1h0Zm-4.35,31.7c-.13-1.41,.92-2.68,2.34-2.82,1.43-.13,2.69,.92,2.82,2.34,.14,1.57,.33,3.4,.63,4.94,.24,1.41-.71,2.75-2.12,2.99-1.41,.24-2.75-.71-2.99-2.11-.31-1.72-.53-3.6-.68-5.35h0Zm9.99,30.41c-.75-1.23-.36-2.83,.86-3.57,1.22-.75,2.82-.36,3.56,.86,.85,1.41,1.77,2.82,2.74,4.16,.84,1.15,.57,2.77-.58,3.6-1.16,.84-2.78,.57-3.62-.59-1.04-1.47-2.03-2.94-2.96-4.47h0Zm22.32,22.9c-1.2-.77-1.55-2.38-.78-3.58,.77-1.2,2.38-1.56,3.58-.78,1.41,.93,2.84,1.68,4.29,2.54,1.26,.67,1.72,2.24,1.05,3.5-.67,1.27-2.24,1.73-3.5,1.06-1.56-.82-3.16-1.78-4.63-2.74h0Zm30.12,10.78c-1.42-.15-2.44-1.45-2.29-2.87,.17-1.41,1.46-2.44,2.87-2.28,1.65,.2,3.31,.32,4.97,.39,1.43,.06,2.54,1.26,2.49,2.7-.06,1.42-1.26,2.54-2.69,2.49-1.79-.08-3.59-.2-5.36-.42h0Zm31.79-3.52c-1.35,.48-2.83-.23-3.3-1.59-.48-1.35,.23-2.83,1.59-3.29,1.51-.48,3.15-1.19,4.63-1.83,1.3-.57,2.83,.02,3.42,1.33,.58,1.3-.01,2.83-1.32,3.41-1.56,.68-3.4,1.48-5.02,1.98h0Zm27.01-17.16c-1.01,1.02-2.64,1.04-3.67,.04-1.02-1.01-1.04-2.64-.03-3.67,1.17-1.19,2.28-2.41,3.37-3.68,.92-1.09,2.55-1.23,3.65-.31,1.09,.93,1.23,2.56,.31,3.66-1.17,1.36-2.35,2.67-3.62,3.96h0Zm16.76-27.26c-.45,1.36-1.92,2.1-3.27,1.65-1.37-.44-2.1-1.91-1.66-3.27,.53-1.58,1.01-3.17,1.4-4.8,.35-1.38,1.76-2.22,3.15-1.88,1.39,.35,2.23,1.77,1.88,3.15-.44,1.75-.94,3.45-1.5,5.15h0Zm3.05-31.83c.19,1.41-.81,2.72-2.23,2.91-1.41,.19-2.72-.81-2.89-2.22-.22-1.66-.51-3.28-.84-4.92-.29-1.4,.6-2.77,2-3.07s2.77,.6,3.07,2c.39,1.73,.66,3.54,.89,5.3h0Zm-11.23-29.96c.8,1.19,.48,2.81-.71,3.59-1.19,.8-2.81,.48-3.6-.71-.91-1.38-1.9-2.74-2.92-4.04-.88-1.13-.68-2.75,.44-3.65,1.13-.87,2.75-.68,3.65,.44,1.08,1.4,2.17,2.88,3.14,4.36h0Zm-23.23-21.98c1.23,.72,1.65,2.31,.93,3.54-.72,1.24-2.31,1.66-3.55,.93-1.44-.84-2.9-1.62-4.4-2.36-1.28-.63-1.81-2.19-1.18-3.47,.63-1.28,2.19-1.81,3.47-1.18,1.61,.82,3.17,1.63,4.73,2.55Z" style="fill:#d0d9ee; fill-rule:evenodd;"/><path d="M424.9,725.61c-1.42,0-2.58-1.16-2.58-2.6s1.16-2.59,2.58-2.59c1.81,.01,3.56,.08,5.36,.2,1.43,.09,2.5,1.33,2.41,2.76-.09,1.43-1.34,2.5-2.76,2.41-1.69-.11-3.31-.18-5.01-.19h0Zm-20.78-2.09c1.36-.42,2.82,.34,3.24,1.7,.43,1.37-.34,2.83-1.7,3.25-1.59,.46-3.17,1.04-4.71,1.64-1.33,.53-2.83-.13-3.36-1.46-.52-1.33,.13-2.84,1.46-3.36,1.65-.65,3.38-1.26,5.08-1.77h0Zm-27.68,16.03c1.04-.98,2.68-.93,3.66,.12,.98,1.04,.93,2.67-.11,3.66-1.23,1.14-2.36,2.31-3.51,3.52-.96,1.06-2.6,1.14-3.65,.18-1.06-.96-1.14-2.6-.18-3.66,1.23-1.31,2.47-2.6,3.79-3.82h0Zm-17.85,26.54c.51-1.34,2.01-2.01,3.34-1.49,1.34,.5,2.01,2,1.5,3.34-.59,1.56-1.13,3.12-1.6,4.71-.4,1.37-1.84,2.17-3.21,1.77-1.38-.4-2.17-1.84-1.77-3.22,.54-1.73,1.09-3.39,1.73-5.1h0Zm-4.35,31.7c-.13-1.43,.91-2.68,2.34-2.82,1.43-.13,2.69,.92,2.83,2.34,.13,1.57,.32,3.4,.62,4.94,.24,1.4-.71,2.75-2.12,2.99-1.41,.24-2.75-.71-2.99-2.12-.31-1.71-.53-3.59-.68-5.34h0Zm9.99,30.41c-.75-1.24-.36-2.83,.86-3.58,1.22-.74,2.82-.35,3.56,.86,.86,1.41,1.77,2.83,2.75,4.17,.83,1.16,.57,2.78-.59,3.61-1.16,.84-2.78,.58-3.62-.59-1.04-1.47-2.02-2.95-2.96-4.48h0Zm22.32,22.9c-1.2-.77-1.55-2.38-.78-3.59,.77-1.19,2.37-1.55,3.57-.77,1.42,.93,2.84,1.68,4.28,2.54,1.26,.67,1.73,2.24,1.06,3.5-.67,1.26-2.25,1.74-3.51,1.06-1.55-.82-3.16-1.78-4.63-2.74h0Zm30.12,10.78c-1.42-.16-2.44-1.45-2.28-2.87,.16-1.41,1.45-2.44,2.87-2.28,1.65,.2,3.31,.31,4.97,.39,1.43,.05,2.54,1.26,2.49,2.68-.06,1.44-1.26,2.54-2.69,2.5-1.78-.08-3.6-.21-5.36-.42h0Zm31.79-3.52c-1.35,.47-2.83-.24-3.3-1.59-.48-1.35,.24-2.83,1.59-3.3,1.52-.47,3.15-1.19,4.62-1.82,1.3-.58,2.84,.01,3.42,1.33,.58,1.3,0,2.83-1.31,3.41-1.56,.68-3.4,1.48-5.01,1.98h0Zm27.01-17.16c-1.01,1.02-2.65,1.04-3.67,.03-1.02-1-1.04-2.64-.04-3.66,1.19-1.19,2.28-2.42,3.37-3.68,.92-1.09,2.56-1.23,3.65-.31,1.09,.93,1.23,2.56,.3,3.65-1.17,1.37-2.36,2.68-3.62,3.97h0Zm16.75-27.26c-.45,1.36-1.91,2.1-3.27,1.65-1.36-.44-2.09-1.91-1.65-3.27,.53-1.58,1-3.17,1.4-4.79,.35-1.38,1.76-2.22,3.15-1.88,1.38,.35,2.23,1.76,1.88,3.15-.44,1.75-.94,3.45-1.51,5.15h0Zm3.06-31.83c.18,1.41-.81,2.72-2.23,2.91-1.42,.19-2.72-.81-2.91-2.23-.22-1.65-.49-3.27-.83-4.91-.3-1.4,.6-2.77,2-3.07,1.4-.3,2.77,.6,3.07,2,.39,1.73,.66,3.54,.9,5.3h0Zm-11.23-29.96c.8,1.19,.48,2.81-.72,3.59-1.19,.8-2.8,.47-3.59-.72-.91-1.38-1.9-2.73-2.91-4.03-.88-1.13-.69-2.76,.43-3.65,1.13-.88,2.76-.68,3.64,.44,1.1,1.4,2.17,2.87,3.15,4.36h0Zm-23.24-21.99c1.23,.72,1.65,2.31,.93,3.55-.72,1.24-2.31,1.65-3.55,.93-1.44-.85-2.9-1.62-4.4-2.36-1.28-.63-1.81-2.19-1.18-3.47,.63-1.28,2.19-1.81,3.47-1.18,1.61,.82,3.17,1.62,4.73,2.54Z" style="fill:#d0d9ee; fill-rule:evenodd;"/><path d="M1079.97,1194c-1.43,0-2.59-1.16-2.59-2.6s1.16-2.59,2.59-2.59c1.81,0,3.56,.08,5.35,.2,1.43,.09,2.5,1.33,2.41,2.75-.09,1.42-1.33,2.51-2.76,2.42-1.68-.11-3.31-.18-5-.19h0Zm-20.79-2.09c1.36-.42,2.82,.34,3.24,1.7,.43,1.37-.34,2.83-1.7,3.25-1.59,.46-3.17,1.04-4.72,1.63-1.33,.53-2.83-.13-3.36-1.46-.52-1.33,.13-2.84,1.46-3.36,1.65-.65,3.38-1.26,5.08-1.77h0Zm-27.68,16.03c1.04-.98,2.68-.93,3.67,.12,.98,1.04,.93,2.67-.12,3.66-1.22,1.14-2.36,2.31-3.51,3.52-.96,1.06-2.6,1.14-3.66,.18-1.06-.96-1.13-2.61-.18-3.66,1.23-1.32,2.47-2.6,3.79-3.82h0Zm-17.85,26.54c.51-1.34,2.01-2.01,3.35-1.5,1.34,.51,2,2.01,1.5,3.35-.59,1.56-1.13,3.12-1.6,4.71-.4,1.37-1.83,2.16-3.21,1.77-1.38-.4-2.16-1.85-1.76-3.22,.54-1.73,1.09-3.4,1.72-5.1h0Zm-4.35,31.7c-.13-1.42,.92-2.68,2.34-2.82,1.42-.13,2.69,.92,2.82,2.34,.14,1.57,.32,3.4,.63,4.94,.24,1.4-.71,2.75-2.12,2.99-1.41,.23-2.75-.72-2.99-2.12-.31-1.71-.54-3.59-.68-5.34h0Zm9.99,30.39c-.75-1.23-.37-2.82,.86-3.57,1.21-.74,2.82-.35,3.56,.86,.86,1.41,1.77,2.83,2.75,4.16,.83,1.16,.57,2.78-.59,3.61-1.16,.84-2.78,.58-3.62-.58-1.04-1.47-2.02-2.95-2.96-4.49h0Zm22.32,22.92c-1.21-.77-1.56-2.38-.78-3.59,.77-1.19,2.37-1.55,3.58-.77,1.42,.93,2.84,1.68,4.28,2.54,1.26,.67,1.73,2.24,1.06,3.5-.68,1.26-2.25,1.73-3.51,1.05-1.55-.82-3.15-1.77-4.62-2.73h0Zm30.11,10.78c-1.41-.17-2.44-1.46-2.28-2.87,.16-1.43,1.45-2.44,2.87-2.28,1.65,.2,3.31,.31,4.97,.39,1.43,.06,2.54,1.26,2.49,2.68-.05,1.43-1.25,2.54-2.69,2.49-1.78-.07-3.59-.2-5.36-.41h0Zm31.79-3.52c-1.35,.46-2.83-.24-3.3-1.59-.48-1.35,.23-2.83,1.59-3.3,1.52-.48,3.15-1.19,4.62-1.82,1.3-.58,2.84,.01,3.42,1.31,.58,1.31-.01,2.84-1.31,3.42-1.56,.67-3.4,1.47-5.02,1.98h0Zm27.01-17.16c-1,1.02-2.65,1.04-3.66,.03-1.02-.99-1.04-2.64-.04-3.66,1.18-1.19,2.28-2.42,3.38-3.68,.92-1.09,2.56-1.24,3.65-.31,1.09,.93,1.22,2.56,.3,3.65-1.17,1.37-2.36,2.68-3.62,3.97h0Zm16.75-27.26c-.45,1.36-1.92,2.1-3.27,1.65-1.36-.45-2.1-1.91-1.65-3.27,.52-1.58,.99-3.17,1.4-4.79,.35-1.38,1.76-2.22,3.14-1.88,1.39,.35,2.23,1.76,1.88,3.15-.45,1.75-.95,3.45-1.51,5.15h0Zm3.06-31.84c.19,1.42-.81,2.73-2.23,2.92-1.41,.18-2.72-.82-2.91-2.23-.22-1.65-.5-3.27-.83-4.91-.3-1.4,.59-2.78,1.99-3.07,1.4-.3,2.77,.6,3.07,2,.39,1.73,.67,3.54,.9,5.29h0Zm-11.22-29.95c.79,1.18,.47,2.79-.72,3.59-1.19,.79-2.81,.47-3.6-.72-.91-1.38-1.89-2.73-2.91-4.03-.88-1.13-.69-2.76,.44-3.65,1.13-.88,2.76-.69,3.64,.44,1.09,1.39,2.17,2.87,3.15,4.36h0Zm-23.24-21.99c1.23,.72,1.65,2.31,.93,3.55-.72,1.24-2.31,1.65-3.54,.93-1.44-.85-2.9-1.62-4.4-2.36-1.28-.63-1.82-2.19-1.19-3.47,.63-1.28,2.19-1.81,3.47-1.19,1.61,.82,3.17,1.63,4.73,2.55Z" style="fill:#d0d9ee; fill-rule:evenodd;"/><path d="M1996.4,725.61c-1.44,0-2.6-1.16-2.6-2.6s1.16-2.59,2.6-2.59c1.8,.01,3.55,.08,5.35,.2,1.43,.09,2.5,1.33,2.41,2.76-.1,1.43-1.34,2.5-2.76,2.41-1.69-.11-3.31-.18-5-.19h0Zm-20.79-2.09c1.36-.42,2.82,.34,3.24,1.7,.43,1.37-.34,2.83-1.7,3.25-1.58,.46-3.17,1.04-4.72,1.64-1.33,.53-2.83-.13-3.36-1.46-.52-1.33,.13-2.84,1.46-3.36,1.66-.65,3.38-1.26,5.08-1.77h0Zm-27.69,16.03c1.05-.98,2.7-.93,3.67,.12,.98,1.04,.93,2.67-.11,3.66-1.22,1.14-2.37,2.31-3.51,3.52-.95,1.06-2.6,1.14-3.66,.18-1.05-.96-1.13-2.6-.17-3.66,1.23-1.31,2.46-2.6,3.78-3.82h0Zm-17.85,26.54c.51-1.34,2.01-2.01,3.35-1.49,1.34,.5,2.01,2,1.5,3.34-.58,1.56-1.13,3.12-1.6,4.71-.4,1.37-1.83,2.17-3.2,1.77-1.38-.4-2.17-1.84-1.77-3.22,.54-1.73,1.08-3.39,1.72-5.1h0Zm-4.35,31.7c-.13-1.43,.92-2.68,2.34-2.82,1.42-.13,2.7,.92,2.83,2.34,.13,1.57,.31,3.4,.62,4.94,.24,1.4-.71,2.75-2.11,2.99-1.41,.24-2.75-.71-2.99-2.12-.31-1.71-.53-3.59-.69-5.34h0Zm9.99,30.41c-.74-1.24-.35-2.83,.86-3.58,1.21-.74,2.82-.35,3.56,.86,.86,1.41,1.78,2.83,2.75,4.17,.83,1.16,.58,2.78-.59,3.61-1.17,.84-2.78,.58-3.62-.59-1.04-1.47-2.02-2.95-2.96-4.48h0Zm22.32,22.9c-1.19-.77-1.55-2.38-.77-3.59,.77-1.19,2.36-1.55,3.58-.77,1.41,.93,2.83,1.68,4.28,2.54,1.27,.67,1.73,2.24,1.06,3.5-.67,1.26-2.24,1.74-3.5,1.06-1.56-.82-3.16-1.78-4.64-2.74h0Zm30.12,10.78c-1.41-.16-2.43-1.45-2.28-2.87,.17-1.41,1.46-2.44,2.87-2.28,1.65,.2,3.31,.31,4.97,.39,1.42,.05,2.54,1.26,2.49,2.68-.05,1.44-1.26,2.54-2.68,2.5-1.79-.08-3.6-.21-5.37-.42h0Zm31.8-3.52c-1.35,.47-2.83-.24-3.3-1.59-.47-1.35,.23-2.83,1.59-3.3,1.51-.47,3.15-1.19,4.62-1.82,1.32-.58,2.84,.01,3.42,1.33,.58,1.3,0,2.83-1.3,3.41-1.57,.68-3.4,1.48-5.02,1.98h0Zm27-17.16c-.99,1.02-2.63,1.04-3.66,.03-1.02-1-1.04-2.64-.04-3.66,1.18-1.19,2.29-2.42,3.38-3.68,.92-1.09,2.55-1.23,3.65-.31,1.09,.93,1.23,2.56,.3,3.65-1.17,1.37-2.35,2.68-3.62,3.97h0Zm16.76-27.26c-.45,1.36-1.91,2.1-3.27,1.65-1.36-.44-2.09-1.91-1.65-3.27,.53-1.58,1-3.17,1.4-4.79,.35-1.38,1.76-2.22,3.15-1.88,1.38,.35,2.23,1.76,1.88,3.15-.44,1.75-.95,3.45-1.51,5.15h0Zm3.06-31.83c.18,1.41-.81,2.72-2.23,2.91-1.41,.19-2.72-.81-2.91-2.23-.22-1.65-.5-3.27-.83-4.91-.3-1.4,.6-2.77,1.99-3.07,1.41-.3,2.79,.6,3.07,2,.39,1.73,.66,3.54,.91,5.3h0Zm-11.23-29.96c.8,1.19,.46,2.81-.72,3.59-1.18,.8-2.79,.47-3.59-.72-.91-1.38-1.9-2.73-2.92-4.03-.88-1.13-.69-2.76,.44-3.65,1.13-.88,2.75-.68,3.63,.44,1.09,1.4,2.18,2.87,3.15,4.36h0Zm-23.24-21.99c1.23,.72,1.65,2.31,.93,3.55-.72,1.24-2.31,1.65-3.55,.93-1.44-.85-2.89-1.62-4.4-2.36-1.28-.63-1.81-2.19-1.18-3.47,.63-1.28,2.19-1.81,3.47-1.18,1.6,.82,3.17,1.62,4.73,2.54Z" style="fill:#d0d9ee; fill-rule:evenodd;"/><path d="M285.46,430.61h422.83c9.31,0,16.94,7.62,16.94,16.94v238.57c0,9.32-7.62,16.94-16.94,16.94H285.46c-9.32,0-16.94-7.61-16.94-16.94v-238.57c0-9.31,7.62-16.94,16.94-16.94Z" style="fill:#bcc9e7; fill-rule:evenodd;"/><path d="M511.77,470.1h170.47c6.05,0,11,4.95,11,11v35.49c0,6.04-4.95,11-11,11h-170.47c-6.05,0-11-4.96-11-11v-35.49c0-6.05,4.94-11,11-11h0Zm-201.11,38h45.99c8.8,0,16,7.19,16,15.99v27c0,8.79-7.2,16-16,16h-45.99c-8.81,0-16-7.2-16-16v-27c0-8.79,7.19-15.99,16-15.99h0Zm-12,137.98h85.48c2.2,0,4,1.8,4,4v14.99c0,2.2-1.8,4-4,4h-85.48c-2.2,0-4-1.8-4-4v-14.99c0-2.2,1.8-4,4-4h0Zm108.02,0h53.45c2.2,0,4,1.8,4,4v14.99c0,2.2-1.8,4-4,4h-53.45c-2.2,0-3.99-1.8-3.99-4v-14.99c0-2.2,1.8-4,3.99-4h0Zm-104.98-44.48h72.11c3.87,0,7.04,3.18,7.04,7.04v9.11c0,3.86-3.18,7.04-7.04,7.04h-72.11c-3.86,0-7.04-3.17-7.04-7.04v-9.11c0-3.88,3.16-7.04,7.04-7.04h0Zm318.25,0h72.11c3.87,0,7.04,3.18,7.04,7.04v9.11c0,3.86-3.18,7.04-7.04,7.04h-72.11c-3.86,0-7.04-3.17-7.04-7.04v-9.11c0-3.88,3.17-7.04,7.04-7.04h0Zm-106.08,0h72.11c3.87,0,7.04,3.18,7.04,7.04v9.11c0,3.86-3.18,7.04-7.04,7.04h-72.11c-3.86,0-7.04-3.17-7.04-7.04v-9.11c0-3.88,3.17-7.04,7.04-7.04h0Zm-106.08,0h72.11c3.88,0,7.04,3.18,7.04,7.04v9.11c0,3.86-3.18,7.04-7.04,7.04h-72.11c-3.86,0-7.04-3.17-7.04-7.04v-9.11c0-3.88,3.16-7.04,7.04-7.04Z" style="fill:#fff; fill-rule:evenodd;"/><polygon points="1800.29 878.36 1779.8 537.9 1953.86 510.6 1981.17 816.93 1800.29 878.36" style="fill:#d0d9ee; fill-rule:evenodd;"/><polygon points="1714.96 837.4 1800.29 878.36 1779.8 537.9 1740.55 528.94 1714.96 837.4" style="fill:#bcc9e7; fill-rule:evenodd;"/><polygon points="1760.18 533.43 1766.15 812.23 1800.29 878.36 1779.8 537.9 1760.18 533.43" style="fill:#99a9d4; fill-rule:evenodd;"/><polygon points="1766.15 812.23 1714.96 837.4 1800.29 878.36 1766.15 812.23" style="fill:#99a9d4; fill-rule:evenodd;"/><polygon points="1937.86 506.76 1953.86 510.6 1779.8 537.9 1740.55 528.94 1937.86 506.76" style="fill:#bcc9e7; fill-rule:evenodd;"/><path d="M1832.37,550.63c1.45,3.25,0,7.05-3.25,8.5-3.24,1.45-7.05-.01-8.49-3.25-34.22-76.09-28.22-136.49-7.07-171.33,11.25-18.54,26.84-30.1,43.26-33.32,16.83-3.3,34.26,2,48.69,17.3,23.93,25.37,39.51,79.39,28.05,168.68-.45,3.52-3.67,6.01-7.18,5.57-3.52-.44-6.02-3.66-5.57-7.18,10.89-84.88-3.02-135.28-24.67-158.24-11.14-11.8-24.31-15.94-36.85-13.48-12.95,2.54-25.47,12.01-34.75,27.32-19.3,31.8-24.4,87.77,7.82,159.43Z" style="fill:#99a9d4; fill-rule:evenodd;"/><path d="M1907.66,510.15c14.54-54.54,7.29-97.99-9.4-125.5-11.25-18.54-26.84-30.08-43.26-33.32-16.83-3.3-34.26,2.01-48.7,17.31-22.78,24.16-38.01,74.34-29.49,156.23l12.76-1.44c-8.07-77.49,5.51-124.14,26.11-145.97,11.12-11.8,24.31-15.94,36.85-13.48,12.95,2.54,25.46,12.01,34.75,27.32,15.63,25.77,21.94,67.41,6.64,120.4l13.75-1.55Z" style="fill:#99a9d4; fill-rule:evenodd;"/><polygon points="1987.04 897.16 1966.57 633.39 2140.63 612.23 2167.94 849.56 1987.04 897.16" style="fill:#d0d9ee; fill-rule:evenodd;"/><polygon points="1901.71 865.44 1987.04 897.16 1966.57 633.39 1927.31 626.45 1901.71 865.44" style="fill:#bcc9e7; fill-rule:evenodd;"/><polygon points="1946.94 629.92 1952.91 845.93 1987.04 897.16 1966.57 633.39 1946.94 629.92" style="fill:#99a9d4; fill-rule:evenodd;"/><polygon points="1952.91 845.93 1901.71 865.44 1987.04 897.16 1952.91 845.93" style="fill:#99a9d4; fill-rule:evenodd;"/><polygon points="2124.62 609.26 2140.63 612.23 1966.57 633.39 1927.31 626.45 2124.62 609.26" style="fill:#bcc9e7; fill-rule:evenodd;"/><path d="M2019.14,643.25c1.44,2.51-.01,5.46-3.25,6.57-3.25,1.13-7.05,0-8.5-2.52-34.22-58.94-28.21-105.75-7.07-132.74,11.25-14.36,26.85-23.31,43.27-25.82,16.82-2.56,34.25,1.56,48.69,13.41,23.92,19.66,39.51,61.51,28.04,130.69-.44,2.72-3.66,4.65-7.18,4.31-3.51-.34-6.01-2.84-5.57-5.57,10.9-65.76-3.02-104.81-24.66-122.61-11.14-9.14-24.32-12.35-36.86-10.44-12.94,1.97-25.45,9.31-34.74,21.17-19.31,24.64-24.41,68.02,7.82,123.53Z" style="fill:#99a9d4; fill-rule:evenodd;"/><path d="M2094.42,611.89c14.54-42.25,7.29-75.93-9.41-97.25-11.25-14.35-26.84-23.3-43.26-25.81-16.82-2.56-34.26,1.56-48.69,13.41-22.78,18.73-38.01,57.6-29.5,121.05l12.77-1.12c-8.08-60.05,5.51-96.18,26.1-113.1,11.14-9.14,24.31-12.35,36.86-10.44,12.94,1.98,25.46,9.31,34.74,21.17,15.64,19.96,21.95,52.23,6.65,93.28l13.74-1.19Z" style="fill:#99a9d4; fill-rule:evenodd;"/><path d="M582.01,363.39c0,12.2,9.89,22.09,22.09,22.09H1756.02c12.18,0,22.07-9.89,22.07-22.09v-66.67c0-12.21-9.9-22.09-22.07-22.09H604.1c-12.19,0-22.09,9.88-22.09,22.09v66.67Z" style="fill:#bcc9e7; fill-rule:evenodd;"/><path d="M1778.1,363.39c0,12.2-9.9,22.09-22.07,22.09h-66.69c-12.18,0-22.08-9.89-22.08-22.09v-66.67c0-12.21,9.9-22.09,22.08-22.09h66.69c12.18,0,22.07,9.88,22.07,22.09v66.67Z" style="fill:#99a9d4; fill-rule:evenodd;"/><path d="M1721.95,306.6c5.97,4.75,8.38,12.29,6.85,19.28-.6,2.84-1.83,5.54-3.77,7.94-1.91,2.41-4.31,4.24-6.89,5.47-6.49,3.03-14.38,2.38-20.34-2.36-8.38-6.66-9.76-18.87-3.07-27.26,6.66-8.36,18.85-9.74,27.22-3.07h0Zm-33.43-1.83c-9.42,11.77-7.46,28.96,4.33,38.35,9.46,7.55,22.37,7.79,31.97,1.54l24.04,19.16c1.86,1.45,4.13,2.03,6.32,1.77,2.19-.23,4.26-1.28,5.73-3.16,2.95-3.69,2.34-9.1-1.36-12.05l-24.06-19.15c3.96-10.74,.84-23.31-8.59-30.81-11.82-9.41-29.01-7.46-38.38,4.36Z" style="fill:#f2f2f3; fill-rule:evenodd;"/><path d="M614.96,351.27c3.29,3.07,7.7,5.17,11.9,5.17,5.17,0,7.96-2.3,7.96-5.88,0-3.78-2.94-4.95-7.06-6.71l-6.29-2.73c-4.47-1.88-9.22-5.45-9.22-12.15,0-7.29,6.43-12.88,15.37-12.88,5.32,0,10.5,2.25,14.06,5.82l-4.14,5.16c-2.93-2.44-6.01-3.92-9.93-3.92-4.33,0-7.2,2.04-7.2,5.4,0,3.55,3.5,4.89,7.28,6.42l6.22,2.6c5.38,2.3,9.22,5.72,9.22,12.36,0,7.41-6.15,13.57-16.42,13.57-6.16,0-12.18-2.44-16.5-6.71l4.75-5.52h0Zm246.58,1.31c2.94,0,5.17,2.32,5.17,5.46,0,3.15-2.23,5.46-5.17,5.46s-5.24-2.31-5.24-5.46,2.29-5.46,5.24-5.46h0Zm-19.22,0c2.93,0,5.19,2.32,5.19,5.46s-2.25,5.46-5.19,5.46-5.24-2.31-5.24-5.46c0-3.14,2.3-5.46,5.24-5.46h0Zm-19.22,0c2.93,0,5.17,2.32,5.17,5.46s-2.24,5.46-5.17,5.46-5.25-2.31-5.25-5.46,2.3-5.46,5.25-5.46h0Zm-43.54-39.28h8.04v12.72l-.28,6.64c2.86-2.73,6.29-5.17,10.96-5.17,7.35,0,10.56,4.96,10.56,13.63v21.53s-8.02,0-8.02,0v-20.49c0-5.66-1.62-7.75-5.4-7.75-3,0-4.95,1.47-7.82,4.27v23.98s-8.04,0-8.04,0v-49.35h0Zm-17.33,14.19c4.41,0,7.76,1.75,10.07,3.98l-3.85,5.1c-1.81-1.6-3.64-2.51-5.78-2.51-5.54,0-9.39,4.54-9.39,11.46s3.77,11.4,9.15,11.4c2.8,0,5.18-1.39,7.06-2.94l3.38,5.1c-3.23,2.86-7.36,4.41-11.27,4.41-9.36,0-16.56-6.57-16.56-17.98s8.05-18.03,17.19-18.03h0Zm-40.33,.84h6.65l.55,6.09h.3c2.44-4.49,6.07-6.93,9.71-6.93,1.74,0,2.86,.21,3.92,.71l-1.4,6.98c-1.19-.35-2.1-.55-3.57-.55-2.72,0-6,1.88-8.11,7.06v20.97h-8.04v-34.33h0Zm-25.3,28.87c2.8,0,4.96-1.39,7.48-3.77v-7.69c-9.29,1.18-12.37,3.64-12.37,7.06,0,3.07,2.02,4.4,4.89,4.4h0Zm7.48-16.5c-.07-3.62-1.6-6.72-6.22-6.72-3.44,0-6.64,1.55-9.66,3.36l-2.92-5.38c3.78-2.38,8.6-4.47,14.05-4.47,8.61,0,12.79,5.25,12.79,14.83v20.34s-6.56,0-6.56,0l-.64-3.78h-.2c-3.09,2.59-6.57,4.62-10.63,4.62-6.02,0-10.2-4.05-10.2-10.06,0-7.35,6.15-11.18,20.2-12.73h0Zm-32.57,1.75c0-5.46-2.31-8.75-6.99-8.75-4.05,0-7.57,3.01-8.25,8.75h15.24Zm-7.2-14.96c9.29,0,14.19,6.72,14.19,16.29,.01,1.55-.13,2.95-.35,3.78h-21.8c.69,6.22,4.61,9.72,10.12,9.72,2.95,0,5.46-.93,7.98-2.53l2.72,5.05c-3.27,2.15-7.41,3.7-11.76,3.7-9.51,0-16.9-6.64-16.9-17.98s7.76-18.03,15.8-18.03Z" style="fill:#fff; fill-rule:evenodd;"/><path d="M835.94,1381.51h-55.15c-22.17,0-40.22-18.03-40.22-40.22s18.04-40.19,40.21-40.19h325.88c10.12,0,18.35-8.24,18.35-18.36s-8.23-18.37-18.35-18.37h-180.21c-15.81,0-28.7-12.87-28.7-28.69s12.88-28.7,28.7-28.7h186.67c45.33,0,82.21-36.87,82.21-82.2v-38.75h10.22v38.75c0,50.96-41.47,92.42-92.43,92.42h-186.67c-10.18,0-18.48,8.29-18.48,18.48s8.3,18.47,18.48,18.47h180.21c15.74,0,28.56,12.83,28.56,28.59s-12.82,28.57-28.57,28.57h-325.87c-16.54,0-30.01,13.46-30.01,29.99,0,16.56,13.46,30,30,30h55.16v10.22Z" style="fill:#99a9d4; fill-rule:evenodd;"/><rect x="835.93" y="1360.65" width="818.99" height="31.49" style="fill:#bcc9e7;"/><polygon points="897.69 1340.96 863.01 1340.96 858.57 1360.65 902.86 1360.65 897.69 1340.96" style="fill:#bcc9e7; fill-rule:evenodd;"/><polygon points="944.58 1340.96 909.88 1340.96 905.45 1360.65 949.74 1360.65 944.58 1340.96" style="fill:#bcc9e7; fill-rule:evenodd;"/><polygon points="991.46 1340.96 956.76 1340.96 952.33 1360.65 996.63 1360.65 991.46 1340.96" style="fill:#bcc9e7; fill-rule:evenodd;"/><polygon points="1038.34 1340.96 1003.64 1340.96 999.22 1360.65 1043.51 1360.65 1038.34 1340.96" style="fill:#bcc9e7; fill-rule:evenodd;"/><polygon points="1085.22 1340.96 1050.52 1340.96 1046.1 1360.65 1090.39 1360.65 1085.22 1340.96" style="fill:#bcc9e7; fill-rule:evenodd;"/><polygon points="1132.1 1340.96 1097.4 1340.96 1092.97 1360.65 1137.26 1360.65 1132.1 1340.96" style="fill:#bcc9e7; fill-rule:evenodd;"/><polygon points="1178.98 1340.96 1144.27 1340.96 1139.84 1360.65 1184.14 1360.65 1178.98 1340.96" style="fill:#bcc9e7; fill-rule:evenodd;"/><polygon points="1225.87 1340.96 1191.16 1340.96 1186.72 1360.65 1231.02 1360.65 1225.87 1340.96" style="fill:#bcc9e7; fill-rule:evenodd;"/><polygon points="1272.74 1340.96 1238.04 1340.96 1233.61 1360.65 1277.91 1360.65 1272.74 1340.96" style="fill:#bcc9e7; fill-rule:evenodd;"/><polygon points="1319.61 1340.96 1284.91 1340.96 1280.49 1360.65 1324.79 1360.65 1319.61 1340.96" style="fill:#bcc9e7; fill-rule:evenodd;"/><polygon points="1366.5 1340.96 1331.8 1340.96 1327.37 1360.65 1371.67 1360.65 1366.5 1340.96" style="fill:#bcc9e7; fill-rule:evenodd;"/><polygon points="1413.37 1340.96 1378.67 1340.96 1374.25 1360.65 1418.55 1360.65 1413.37 1340.96" style="fill:#bcc9e7; fill-rule:evenodd;"/><polygon points="1460.25 1340.96 1425.55 1340.96 1421.13 1360.65 1465.42 1360.65 1460.25 1340.96" style="fill:#bcc9e7; fill-rule:evenodd;"/><polygon points="1530.77 1340.96 1496.06 1340.96 1491.63 1360.65 1535.93 1360.65 1530.77 1340.96" style="fill:#bcc9e7; fill-rule:evenodd;"/><polygon points="1577.63 1340.96 1542.94 1340.96 1538.51 1360.65 1582.8 1360.65 1577.63 1340.96" style="fill:#bcc9e7; fill-rule:evenodd;"/><polygon points="1624.52 1340.96 1589.82 1340.96 1585.39 1360.65 1629.69 1360.65 1624.52 1340.96" style="fill:#bcc9e7; fill-rule:evenodd;"/><polygon points="866.74 1340.96 866.74 1354.39 901.85 1356.74 902.86 1360.65 858.57 1360.65 863.01 1340.96 866.74 1340.96" style="fill:#aab9de; fill-rule:evenodd;"/><polygon points="913.62 1340.96 913.62 1354.39 948.73 1356.74 949.74 1360.65 905.45 1360.65 909.88 1340.96 913.62 1340.96" style="fill:#aab9de; fill-rule:evenodd;"/><polygon points="960.5 1340.96 960.5 1354.39 995.59 1356.74 996.63 1360.65 952.33 1360.65 956.76 1340.96 960.5 1340.96" style="fill:#aab9de; fill-rule:evenodd;"/><polygon points="1007.38 1340.96 1007.38 1354.39 1042.47 1356.74 1043.51 1360.65 999.22 1360.65 1003.64 1340.96 1007.38 1340.96" style="fill:#aab9de; fill-rule:evenodd;"/><polygon points="1054.26 1340.96 1054.26 1354.39 1089.36 1356.74 1090.39 1360.65 1046.1 1360.65 1050.52 1340.96 1054.26 1340.96" style="fill:#aab9de; fill-rule:evenodd;"/><polygon points="1101.15 1340.96 1101.15 1354.39 1136.24 1356.74 1137.26 1360.65 1092.97 1360.65 1097.4 1340.96 1101.15 1340.96" style="fill:#aab9de; fill-rule:evenodd;"/><polygon points="1148.02 1340.96 1148.02 1354.39 1183.12 1356.74 1184.14 1360.65 1139.84 1360.65 1144.27 1340.96 1148.02 1340.96" style="fill:#aab9de; fill-rule:evenodd;"/><polygon points="1194.9 1340.96 1194.9 1354.39 1230 1356.74 1231.02 1360.65 1186.72 1360.65 1191.16 1340.96 1194.9 1340.96" style="fill:#aab9de; fill-rule:evenodd;"/><polygon points="1241.78 1340.96 1241.78 1354.39 1276.88 1356.74 1277.91 1360.65 1233.61 1360.65 1238.04 1340.96 1241.78 1340.96" style="fill:#aab9de; fill-rule:evenodd;"/><polygon points="1288.67 1340.96 1288.67 1354.39 1323.76 1356.74 1324.79 1360.65 1280.49 1360.65 1284.91 1340.96 1288.67 1340.96" style="fill:#aab9de; fill-rule:evenodd;"/><polygon points="1335.54 1340.96 1335.54 1354.39 1370.64 1356.74 1371.67 1360.65 1327.37 1360.65 1331.8 1340.96 1335.54 1340.96" style="fill:#aab9de; fill-rule:evenodd;"/><polygon points="1382.43 1340.96 1382.43 1354.39 1417.52 1356.74 1418.55 1360.65 1374.25 1360.65 1378.67 1340.96 1382.43 1340.96" style="fill:#aab9de; fill-rule:evenodd;"/><polygon points="1429.29 1340.96 1429.29 1354.39 1464.39 1356.74 1465.42 1360.65 1421.13 1360.65 1425.55 1340.96 1429.29 1340.96" style="fill:#aab9de; fill-rule:evenodd;"/><polygon points="1499.81 1340.96 1499.81 1354.39 1534.91 1356.74 1535.93 1360.65 1491.63 1360.65 1496.06 1340.96 1499.81 1340.96" style="fill:#aab9de; fill-rule:evenodd;"/><polygon points="1546.69 1340.96 1546.69 1354.39 1581.79 1356.74 1582.8 1360.65 1538.51 1360.65 1542.94 1340.96 1546.69 1340.96" style="fill:#aab9de; fill-rule:evenodd;"/><polygon points="1593.57 1340.96 1593.57 1354.39 1628.67 1356.74 1629.69 1360.65 1585.39 1360.65 1589.82 1340.96 1593.57 1340.96" style="fill:#aab9de; fill-rule:evenodd;"/><rect x="1141.55" y="954.61" width="196.78" height="230.99" style="fill:#bcc9e7;"/><rect x="795.06" y="445.57" width="889.75" height="578.55" style="fill:#bcc9e7;"/><rect x="835.34" y="487.28" width="809.19" height="467.33" style="fill:#fff;"/><rect x="1070.97" y="1185.61" width="337.93" height="53.49" style="fill:#99a9d4;"/><polygon points="1340.2 1024.12 1173.08 1136.41 1173.08 1170.63 1338.32 1185.61 1141.55 1185.61 1141.55 1024.12 1340.2 1024.12" style="fill:#aab9de; fill-rule:evenodd;"/><polygon points="835.34 487.28 835.34 502.55 1629.56 502.55 1644.53 954.61 1644.53 487.28 835.34 487.28" style="fill:#dee7f5; fill-rule:evenodd;"/><path d="M1230.21,555.18h64.72c5.83,0,10.62,4.77,10.62,10.61v64.72c0,5.84-4.78,10.62-10.62,10.62h-64.72c-5.84,0-10.62-4.77-10.62-10.62v-64.72c0-5.83,4.77-10.61,10.62-10.61Z" style="fill:#d0d9ee; fill-rule:evenodd;"/><rect x="1332.33" y="563.27" width="268.97" height="25.28" style="fill:#bcc9e7;"/><rect x="1332.33" y="603.62" width="217.39" height="25.28" style="fill:#bcc9e7;"/><path d="M1230.21,682.5h64.72c5.83,0,10.62,4.78,10.62,10.62v64.72c0,5.83-4.78,10.62-10.62,10.62h-64.72c-5.84,0-10.62-4.78-10.62-10.62v-64.72c0-5.83,4.77-10.62,10.62-10.62Z" style="fill:#d0d9ee; fill-rule:evenodd;"/><rect x="1332.33" y="690.58" width="268.97" height="25.28" style="fill:#bcc9e7;"/><rect x="1332.33" y="730.95" width="217.39" height="25.28" style="fill:#bcc9e7;"/><path d="M1230.21,809.82h64.72c5.83,0,10.62,4.77,10.62,10.62v64.72c0,5.83-4.78,10.61-10.62,10.61h-64.72c-5.84,0-10.62-4.77-10.62-10.61v-64.72c0-5.84,4.77-10.62,10.62-10.62Z" style="fill:#d0d9ee; fill-rule:evenodd;"/><rect x="1332.33" y="817.91" width="268.97" height="25.28" style="fill:#bcc9e7;"/><rect x="1332.33" y="858.26" width="217.39" height="25.28" style="fill:#bcc9e7;"/><path d="M957.75,869.81h134.77c10.52,0,19.11,8.6,19.11,19.11h0c0,10.51-8.6,19.1-19.11,19.1h-134.77c-10.51,0-19.11-8.6-19.11-19.1h0c0-10.52,8.6-19.11,19.11-19.11Z" style="fill:#bcc9e7; fill-rule:evenodd;"/><path d="M951.89,887.35l4.83,4.63-1.07,6.6c-.12,.76,.67,1.33,1.35,.96l5.89-3.17,5.95,3.07c.68,.34,1.47-.24,1.33-.98l-1.19-6.6,4.75-4.71c.54-.53,.23-1.46-.53-1.57l-6.63-.9-3.02-5.98c-.34-.68-1.32-.67-1.65,.02l-2.91,6.02-6.62,1.02c-.75,.12-1.04,1.05-.49,1.58h0Zm124.69,0l4.83,4.63-1.08,6.6c-.12,.76,.67,1.33,1.35,.96l5.89-3.17,5.95,3.07c.68,.34,1.46-.24,1.33-.98l-1.19-6.6,4.75-4.71c.54-.53,.23-1.46-.53-1.57l-6.63-.9-3.02-5.98c-.34-.68-1.31-.67-1.65,.02l-2.91,6.02-6.61,1.02c-.75,.12-1.05,1.05-.49,1.58h0Zm-31.17,0l4.83,4.63-1.08,6.6c-.12,.76,.67,1.33,1.35,.96l5.89-3.17,5.95,3.07c.68,.34,1.47-.24,1.33-.98l-1.19-6.6,4.75-4.71c.55-.53,.23-1.46-.53-1.57l-6.63-.9-3.02-5.98c-.34-.68-1.32-.67-1.65,.02l-2.91,6.02-6.61,1.02c-.75,.12-1.04,1.05-.49,1.58h0Zm-31.17,0l4.83,4.63-1.07,6.6c-.12,.76,.67,1.33,1.34,.96l5.89-3.17,5.96,3.07c.67,.34,1.46-.24,1.33-.98l-1.19-6.6,4.75-4.71c.55-.53,.23-1.46-.52-1.57l-6.63-.9-3.02-5.98c-.34-.68-1.31-.67-1.65,.02l-2.91,6.02-6.62,1.02c-.75,.12-1.04,1.05-.49,1.58h0Zm-31.17,0l4.83,4.63-1.07,6.6c-.12,.76,.67,1.33,1.35,.96l5.89-3.17,5.95,3.07c.68,.34,1.46-.24,1.33-.98l-1.19-6.6,4.75-4.71c.54-.53,.23-1.46-.53-1.57l-6.63-.9-3.02-5.98c-.34-.68-1.32-.67-1.65,.02l-2.91,6.02-6.62,1.02c-.75,.12-1.04,1.05-.49,1.58Z" style="fill:#fff; fill-rule:evenodd;"/><path d="M889.41,535.19h263.62c6.42,0,12.26,2.63,16.49,6.85,4.23,4.23,6.86,10.07,6.86,16.5v246.65c0,6.42-2.63,12.26-6.86,16.49-4.23,4.23-10.07,6.86-16.49,6.86h-263.62c-6.42,0-12.26-2.63-16.5-6.86-4.22-4.22-6.85-10.07-6.85-16.49v-246.65c0-6.43,2.63-12.26,6.85-16.5,4.23-4.22,10.07-6.85,16.5-6.85h0Zm263.62,8.02h-263.62c-4.21,0-8.04,1.72-10.82,4.51-2.78,2.77-4.51,6.61-4.51,10.82v246.65c0,4.21,1.73,8.04,4.51,10.82,2.78,2.78,6.61,4.51,10.82,4.51h263.62c4.21,0,8.04-1.72,10.82-4.51,2.78-2.77,4.51-6.61,4.51-10.82v-246.65c0-4.21-1.73-8.04-4.51-10.82-2.77-2.78-6.61-4.51-10.82-4.51Z" style="fill:#bcc9e7; fill-rule:evenodd;"/><path d="M930.25,694.47l-19.99-86.99c-.28-1.2-1.47-1.96-2.67-1.68-1.2,.28-1.94,1.48-1.67,2.67l19.99,86.99c.28,1.2,1.47,1.96,2.67,1.68,1.19-.28,1.94-1.47,1.67-2.67Z" style="fill:#aab9de; fill-rule:evenodd;"/><path d="M1136.12,575.47c1.84,0,3.34,1.49,3.34,3.34s-1.5,3.35-3.34,3.35h-6.5c-.97,0-2.17,.63-3.33,1.62-1.35,1.17-2.52,2.78-3.2,4.55l-40.79,107.86c-.74,1.98-1.2,4.67-1.34,7.42-.14,2.75,.04,5.48,.58,7.52l9.16,34.49c.28,1.03,.41,2.03,.41,2.97,0,2.26-.71,4.33-1.99,6-1.27,1.66-3.09,2.86-5.29,3.46-.94,.24-1.95,.38-2.98,.38h-147.6c-1.85,0-3.34-1.49-3.34-3.34s1.5-3.35,3.34-3.35h147.6c.49,0,.92-.05,1.29-.15,.73-.19,1.32-.56,1.7-1.07,.38-.49,.59-1.15,.59-1.92,0-.41-.06-.84-.17-1.28l-9.16-34.49c-.71-2.7-.97-6.15-.79-9.56,.17-3.39,.77-6.81,1.76-9.42l40.79-107.87c1.07-2.82,2.93-5.38,5.08-7.24,2.34-2.02,5.09-3.27,7.7-3.27h6.5Z" style="fill:#aab9de; fill-rule:evenodd;"/><path d="M1133.89,575.47c.86,0,1.56,.7,1.56,1.56s-.7,1.56-1.56,1.56h-6.5c-1.4,0-3.02,.8-4.49,2.07-1.57,1.36-2.93,3.23-3.7,5.27l-40.78,107.87c-.81,2.13-1.32,5.03-1.47,7.94-.16,2.94,.03,5.87,.6,8.09l8.82,34.02c.22,.86,.33,1.69,.33,2.49,0,1.88-.59,3.59-1.65,4.95-1.06,1.37-2.56,2.36-4.39,2.84-.78,.21-1.62,.31-2.48,.31h-146.27c-.86,0-1.56-.7-1.56-1.56s.7-1.57,1.56-1.57h146.27c.62,0,1.19-.07,1.7-.2,1.14-.29,2.07-.91,2.71-1.72,.64-.82,.99-1.87,.99-3.05,0-.55-.07-1.13-.22-1.7l-8.82-34.03c-.66-2.52-.87-5.79-.7-9.02,.17-3.23,.75-6.45,1.67-8.89l40.79-107.87c.96-2.53,2.64-4.84,4.57-6.52,2.02-1.75,4.36-2.83,6.53-2.83h6.5Z" style="fill:#d0d9ee; fill-rule:evenodd;"/><path d="M962.05,774.1c0,6.09-4.93,11.03-11.02,11.03s-11.02-4.94-11.02-11.03,4.93-11.02,11.02-11.02,11.02,4.93,11.02,11.02Z" style="fill:#fff; fill-rule:evenodd;"/><path d="M965.17,774.1c0,3.91-1.58,7.45-4.14,10h-.02c-2.56,2.56-6.09,4.14-9.99,4.14s-7.44-1.58-10-4.14c-2.56-2.55-4.14-6.09-4.14-10s1.58-7.44,4.14-10h.02c2.56-2.55,6.09-4.14,9.98-4.14s7.44,1.59,10,4.14c2.56,2.56,4.14,6.1,4.14,10h0Zm-8.55,5.59h0c1.43-1.44,2.31-3.4,2.31-5.59s-.88-4.15-2.31-5.58c-1.43-1.42-3.4-2.31-5.58-2.31s-4.16,.88-5.59,2.3h0c-1.43,1.44-2.31,3.41-2.31,5.59s.89,4.15,2.31,5.59c1.43,1.42,3.4,2.31,5.59,2.31s4.17-.88,5.59-2.31Z" style="fill:#99a9d4; fill-rule:evenodd;"/><path d="M955.82,774.1c0,2.65-2.14,4.79-4.79,4.79s-4.79-2.14-4.79-4.79,2.14-4.78,4.79-4.78,4.79,2.14,4.79,4.78Z" style="fill:#aab9de; fill-rule:evenodd;"/><path d="M952.44,753.69v18.51c0,2.21-1.8,3.88-4,3.71l-9.09-.72c-2.2-.18-4.01-2.12-4.01-4.32v-17.18h17.09Z" style="fill:#d0d9ee; fill-rule:evenodd;"/><path d="M1078.29,774.1c0,6.09-4.93,11.03-11.02,11.03s-11.02-4.94-11.02-11.03,4.93-11.02,11.02-11.02,11.02,4.93,11.02,11.02Z" style="fill:#fff; fill-rule:evenodd;"/><path d="M1081.41,774.1c0,3.9-1.59,7.44-4.15,9.99h0c-2.56,2.57-6.09,4.15-10,4.15s-7.42-1.58-9.99-4.14h-.01c-2.56-2.55-4.14-6.09-4.14-10s1.59-7.44,4.14-10c2.56-2.55,6.1-4.14,10-4.14s7.44,1.59,10,4.14h0c2.56,2.58,4.15,6.11,4.15,10h0Zm-8.55,5.59c1.42-1.43,2.3-3.4,2.3-5.59s-.88-4.15-2.3-5.58h-.01c-1.43-1.42-3.4-2.31-5.59-2.31s-4.15,.88-5.58,2.31c-1.44,1.43-2.32,3.4-2.32,5.58s.88,4.15,2.32,5.59h-.01c1.43,1.42,3.4,2.31,5.59,2.31s4.15-.88,5.59-2.31h.01Z" style="fill:#99a9d4; fill-rule:evenodd;"/><path d="M1072.06,774.1c0,2.65-2.15,4.79-4.8,4.79s-4.79-2.14-4.79-4.79,2.14-4.78,4.79-4.78,4.8,2.14,4.8,4.78Z" style="fill:#aab9de; fill-rule:evenodd;"/><path d="M1068.68,753.69v17.18c0,2.2-1.81,4.01-4.02,4.01h-9.07c-2.2,0-4.01-1.81-4.01-4.01v-17.18h17.09Z" style="fill:#d0d9ee; fill-rule:evenodd;"/><path d="M940.17,609.75l11.41,87.44c.13,.98,1.03,1.67,2,1.54,.98-.13,1.67-1.02,1.54-2l-11.41-87.44c-.13-.97-1.03-1.67-2-1.54-.98,.13-1.67,1.02-1.54,2Z" style="fill:#aab9de; fill-rule:evenodd;"/><path d="M940.16,609.63l11.42,87.44c.06,.5,.51,.84,1,.77,.49-.07,.83-.51,.77-.99l-11.42-87.45c-.06-.49-.51-.83-1-.76-.49,.07-.83,.51-.77,.99Z" style="fill:#d0d9ee; fill-rule:evenodd;"/><path d="M974.22,611.12l3.14,87.21c.04,.98,.86,1.75,1.84,1.71,.98-.03,1.76-.86,1.72-1.85l-3.14-87.21c-.04-.98-.87-1.76-1.85-1.71-.98,.03-1.76,.86-1.72,1.84Z" style="fill:#aab9de; fill-rule:evenodd;"/><path d="M974.22,611.09l3.14,87.21c.02,.5,.43,.87,.92,.85,.49-.01,.88-.42,.86-.92l-3.14-87.21c-.02-.5-.43-.88-.93-.86-.49,.02-.87,.43-.86,.93Z" style="fill:#d0d9ee; fill-rule:evenodd;"/><path d="M1007.82,608.99c.06-.97,.91-1.72,1.89-1.66,.98,.07,1.72,.92,1.66,1.9l-6.23,91.78c-.06,.98-.91,1.72-1.89,1.66-.98-.07-1.72-.92-1.66-1.9l6.23-91.78Z" style="fill:#aab9de; fill-rule:evenodd;"/><path d="M1007.81,609.06c.03-.5,.45-.86,.95-.83,.49,.03,.86,.45,.83,.94l-6.23,91.79c-.03,.49-.45,.86-.95,.82-.49-.02-.86-.45-.82-.94l6.23-91.78Z" style="fill:#d0d9ee; fill-rule:evenodd;"/><path d="M1042.03,608.94c.17-.96,1.09-1.61,2.06-1.45,.97,.17,1.62,1.08,1.46,2.06l-16.2,93.56c-.17,.97-1.08,1.61-2.06,1.46-.97-.18-1.62-1.09-1.45-2.06l16.19-93.57Z" style="fill:#d0d9ee; fill-rule:evenodd;"/><path d="M1076.41,607.86c.26-.94,1.24-1.5,2.19-1.24,.95,.27,1.5,1.24,1.24,2.19l-26.54,96.34c-.26,.95-1.24,1.5-2.19,1.24-.94-.25-1.5-1.24-1.24-2.18l26.55-96.35Z" style="fill:#d0d9ee; fill-rule:evenodd;"/><path d="M1078.61,608.11c.13-.48,.62-.75,1.09-.62,.48,.12,.75,.62,.62,1.09l-26.55,96.34c-.13,.48-.62,.75-1.09,.62-.48-.13-.75-.62-.62-1.09l26.54-96.34Z" style="fill:#aab9de; fill-rule:evenodd;"/><path d="M1074.44,704.35c1.22,.1,2.14,1.17,2.04,2.4-.1,1.23-1.17,2.14-2.4,2.04l-146.17-11.6c-1.23-.1-2.14-1.16-2.05-2.4,.09-1.23,1.17-2.14,2.4-2.04l146.18,11.6Z" style="fill:#aab9de; fill-rule:evenodd;"/><path d="M930.06,693.39c.13,.6-.24,1.19-.84,1.33-.6,.13-1.2-.24-1.33-.84l-19.54-85.65c-.13-.6,.24-1.19,.85-1.33,.6-.13,1.19,.24,1.33,.84l19.54,85.65Z" style="fill:#d0d9ee; fill-rule:evenodd;"/><path d="M1083.28,673.58c.98,.06,1.73,.91,1.67,1.89-.06,.97-.9,1.72-1.88,1.67l-159.66-9.97c-.98-.06-1.73-.89-1.67-1.88,.06-.97,.9-1.72,1.88-1.67l159.66,9.95Z" style="fill:#aab9de; fill-rule:evenodd;"/><path d="M1083.23,673.58c.49,.02,.86,.44,.83,.94-.03,.49-.45,.86-.94,.84l-160.07-9.97c-.49-.02-.87-.44-.84-.94,.03-.49,.45-.86,.95-.83l160.07,9.95Z" style="fill:#d0d9ee; fill-rule:evenodd;"/><path d="M1093.76,645.48c.98,.04,1.74,.87,1.7,1.86-.04,.98-.87,1.73-1.85,1.69l-175.97-7.68c-.98-.04-1.74-.87-1.7-1.86,.04-.98,.87-1.73,1.85-1.7l175.96,7.69Z" style="fill:#aab9de; fill-rule:evenodd;"/><path d="M1093.71,645.48c.49,.01,.87,.43,.84,.92-.02,.5-.43,.87-.92,.86l-176.4-7.69c-.49-.02-.87-.44-.85-.93,.02-.49,.44-.87,.93-.85l176.4,7.69Z" style="fill:#d0d9ee; fill-rule:evenodd;"/><path d="M1074.8,704.13c.61,.04,1.07,.59,1.02,1.19-.05,.62-.59,1.07-1.2,1.03l-145.74-11.61c-.61-.04-1.07-.59-1.02-1.19,.04-.61,.59-1.07,1.19-1.02l145.74,11.6Z" style="fill:#d0d9ee; fill-rule:evenodd;"/><path d="M906.31,612.67c-1.85,0-3.35-1.5-3.35-3.35s1.5-3.35,3.35-3.35h205.79c1.85,0,3.35,1.5,3.35,3.35s-1.5,3.35-3.35,3.35h-205.79Z" style="fill:#aab9de; fill-rule:evenodd;"/><polygon points="1045.01 612.67 1043 612.67 1027.93 700.43 1029.79 700.54 1045.01 612.67" style="fill:#aab9de; fill-rule:evenodd;"/><polygon points="840.11 876 759.98 875.04 733.94 1014.42 810.28 1035.69 840.11 876" style="fill:#165396; fill-rule:evenodd;"/><polygon points="832.69 882.08 805.44 1027.93 741.05 1009.99 765.09 881.27 832.69 882.08" style="fill:#cbd4eb; fill-rule:evenodd;"/><polygon points="817.14 1073.39 798.54 1073.39 798.54 1032.42 810.28 1035.68 817.14 998.94 817.14 1073.39" style="fill:#0f3d86; fill-rule:evenodd;"/><path d="M603.91,1101.54h259.87c1.11,0,2.01-3.56,2.01-7.94v-3.98c0-4.39-.9-7.94-2.01-7.94h-259.87c-1.1,0-2.01,3.56-2.01,7.94v3.98c0,4.39,.91,7.94,2.01,7.94Z" style="fill:#9d7558; fill-rule:evenodd;"/><path d="M473.27,815.51c-7.07,24.92,10.2,50.59,29.21,55.99,19.01,5.39,32.57-11.55,39.65-36.46,7.07-24.91-2.62-49.49-21.63-54.88-19.03-5.39-40.17,10.43-47.23,35.34Z" style="fill:#f4ae7c; fill-rule:evenodd;"/><path d="M579.87,1298.33s-48.72,75.69-55.3,78.98c-6.58,3.29-23.04,4.12-16.87,16.46,6.18,12.34,8.64,60.88,14.4,63.35,5.76,2.46,55.12,8.22,47.72,0-7.42-8.23-11.97-4.11-15.71-18.93-3.73-14.81-8.98-42.79-2-48.54,7-5.77,49.79-57.6,49.79-57.6l-22.03-33.73Z" style="fill:#f4ae7c; fill-rule:evenodd;"/><path d="M825.15,1330.84s59.24,97.64,70.22,106.41c10.96,8.78,47.17,21.94,17.55,24.14-29.62,2.19-43.88-9.88-62.54-15.36-18.64-5.49-41.69-8.78-32.91-23.05,8.78-14.25,5.13-45.39-13.78-65.13-18.93-19.75,21.46-27.01,21.46-27.01Z" style="fill:#f4ae7c; fill-rule:evenodd;"/><path d="M522.85,1104.43s146.64-3.83,204.79,43.88c34.01,51.56,116.28,203.69,122.68,220.45-4.39,4.39-29.07,12.31-40.05,11.21-32.37-38.59-75.14-71.95-92.15-102.22-20.96-37.3-27.42-55.95-61.43-59.23-34.01-3.29-110.8-14.26-133.84-14.26s0-99.84,0-99.84Z" style="fill:#0f3970; fill-rule:evenodd;"/><polygon points="394.97 1461.65 402.65 1461.65 457.78 1231.67 440.86 1231.67 394.97 1461.65" style="fill:#9d7558; fill-rule:evenodd;"/><polygon points="625.25 1461.65 617.54 1461.65 554.3 1223.54 571.21 1223.54 625.25 1461.65" style="fill:#9d7558; fill-rule:evenodd;"/><path d="M439.3,1094.39l85.26,14.72s113.3,1.04,165.08,10.7c47.12,8.77,54.07,62.3,0,136.02-30.71,41.88-56.67,75.29-109.78,112.95-13.51-9.91-18.66-13.67-22.4-37.53,3.84-5.26,13.79-38.24,16.88-44.69,29.36-61.4,68.56-83.73,69.11-89.76-6.57-10.7-174.35,55.74-207.7,16.66-31.85-37.31,3.54-119.06,3.54-119.06Z" style="fill:#0f3d86; fill-rule:evenodd;"/><path d="M435.76,901.37c22.45-3.15,45.32,1.12,66.72,16.61,18.69,19.05,39.84,50.46,38.53,102.29-1.64,65.82,10.19,70.05-2.15,88.14-51.46,21.26-139.49,112.59-118.77,14.67,15.02-70.89-32.91-123.73,5.75-202.37,3.15-6.4,7.08-12.61,9.93-19.35Z" style="fill:#6998d0; fill-rule:evenodd;"/><path d="M541.04,1045.03c.98,34.32,5.84,44.41,2.13,55.18-20.98,2.14-59.37,10.54-68.97,23.98-10.95,15.36-21.93,17.54-16.81,6.21,5.12-11.33,18.64-27.42-2.2-82.64-20.84-55.21-30.7-92.51-10.23-130.9l96.08,128.19Z" style="fill:#406fb5; fill-rule:evenodd;"/><path d="M435.76,901.37c13.83-32.74,17.22-69.51,17.22-69.51l36.21,10.7s-20.58,46.07-.84,62.52c4.21,3.5,9.08,7.75,14.13,12.89-21.4-15.49-44.27-19.75-66.72-16.61Z" style="fill:#f4ae7c; fill-rule:evenodd;"/><path d="M451.9,840.58c2.13-1.91,4.82-4.3,7.63-6.78l29.53,8.73,.05,.16c-.7,1.63-8.22,19.19-9.21,36.06-8.81-5.34-18.45-14.04-29.45-29.25,.59-3.37,1.05-6.39,1.44-8.92Z" style="fill:#ed7d5b; fill-rule:evenodd;"/><path d="M461.22,911.66c37.28,13.05,33.14,52.33,67.46,110.25,17.77,29.98,34.25,29.53,34.25,29.53,0,0,41.65,.33,92.02-5.82,31.55-3.85,33.56,5.54,11.61,13.38-44.25,15.81-90.16,32.85-127.19,28.73-37.02-4.11-100.33-98.58-103.6-123.16-4.51-34.01,6.68-59.47,25.46-52.91Z" style="fill:#f19651; fill-rule:evenodd;"/><path d="M480.4,1240.29c2.31,0,4.68-.02,7.12-.09,30.31-.75,50.94-4.95,67.52-8.32,19.62-3.98,30.43-6.18,43.16-.09,4.28,2.04,9.43,.23,11.48-4.07,2.05-4.3,.23-9.44-4.06-11.49-17.94-8.56-33.07-5.49-54-1.24-15.92,3.24-35.74,7.26-64.52,7.98-32.42,.79-52.24-4.07-62.37-15.3-9.05-10.02-11.72-26.74-8.4-52.62,1.14-8.76,2.27-16.05,3.26-22.47,2.78-18.04,4.63-29.96,2.35-48.33-2.12-17.13-7.8-39.97-20.96-84.3-1.36-4.56-6.16-7.16-10.7-5.8-4.57,1.35-7.17,6.14-5.83,10.71,24.63,82.91,23.38,91.01,18.11,125.08-1.01,6.54-2.15,13.94-3.31,22.91-4.03,31.24,.02,52.33,12.67,66.37,13.05,14.47,34.35,21.07,68.48,21.07Z" style="fill:#9d7558; fill-rule:evenodd;"/><path d="M821.13,1413.13c39.31,19.22,60.46,30.24,73.06,29.19,2.97-.24,5.44-.55,7.51-.87,14.02,8.29,36.39,18.08,11.22,19.94-29.62,2.19-43.88-9.88-62.54-15.36-18.65-5.49-41.69-8.78-32.91-23.05,1.68-2.73,2.91-6.08,3.66-9.86Z" style="fill:#152f54; fill-rule:evenodd;"/><path d="M520.27,1378.92c.97,31.12,5.25,61.96,24.28,67.78,5.05,1.55,9.65,1.77,13.71,1.23,3.01,3.7,6.66,3.75,11.56,9.19,7.4,8.22-41.97,2.46-47.72,0-5.76-2.47-8.22-51.01-14.4-63.35-5.07-10.13,5.13-12.51,12.57-14.85Z" style="fill:#152f54; fill-rule:evenodd;"/><path d="M645.56,1046.7c25.22-.37,50.25-15.4,62.68-13.2,12.43,2.19,53.02,30.34,47.9,31.44-5.12,1.09-37.3-15.59-38.39-15.84-1.09-.25-8.04,11.56-25.24,15.89-17.18,4.34-.12-12.87-53.39,3.21-34.64,10.46,6.44-21.5,6.44-21.5Z" style="fill:#f4ae7c; fill-rule:evenodd;"/><path d="M439.47,871.5l-3.71,29.86s32.65,1.95,48.9,11.08c16.25,9.15,40.22,35.55,40.22,35.55l-19.58-33.72-2.82-21.58-63-21.2Z" style="fill:#406fb5; fill-rule:evenodd;"/><path d="M453.36,908.07c24.27-4.54,35.48,17.19,51.2,52.66,15.72,35.48,42.57,78.54,47.91,84.11,5.34,5.55,89.96,0,89.96,0,0,0,2.55,24.5,0,27.42-2.55,2.92-17.18,2.55-17.18,2.55,0,0-5.86,4.67-11.35,8.38-5.49,3.7-51.92,10.65-73.5,9.55-21.58-1.09-41.33-2.93-44.25-6.22-2.92-3.28-61.8-93.97-65.46-126.52-3.65-32.55,10.31-49.61,22.67-51.93Z" style="fill:#6998d0; fill-rule:evenodd;"/><path d="M524.88,758.87c45.88,2.2,38.68,71.21,38.68,71.21,0,0-11.92,3.67-36.87-.44,1.92-7.4,1.09-26.33,1.09-26.33,0,0-2.91,15.36-6.58,24.68-5.29,2.42-11.24,.28-21.4-2.18-5.22,21.92-19.93,31.19-30.02,34.36-11.14,3.5-22.92,7.67-36.1,1.09-13.15-6.59-5.92-73.87,1.06-87.39,10.51-20.32,27.94-38.49,58.11-28.89,15.12,4.82,32.01,13.89,32.01,13.89Z" style="fill:#0f3970; fill-rule:evenodd;"/><path d="M435.52,831.7l-9.49,12.94s-27.01-1.16-28.04,30.16c-.81,24.54-16.51,27.2-34.82,22.68-18.31-4.52-25.83,15.63-25.83,15.63,0,0,17.32-3.41,27.81,16.46,14.29,27.09,55.52,21.7,67.21-6.41,9.67-23.25-5.37-24.01,4.67-40.98,10.05-16.97-7.51-36.16-7.51-36.16l9.16-12.53-3.16-1.8Z" style="fill:#0f3970; fill-rule:evenodd;"/><path d="M455.14,868.71c2.99,0,6.23-.25,9.72-.77,15.97-2.4,37.42-11.49,39.12-62.57,.03-.84-.62-1.52-1.45-1.56-.85-.03-1.52,.63-1.56,1.46-.68,21.14-4.9,36.79-12.47,46.51-5.77,7.4-13.44,11.59-24.1,13.18-14.92,2.24-24.82-.53-29.42-8.23-.43-.71-1.36-.94-2.06-.51-.71,.42-.94,1.35-.52,2.04,4.16,6.95,11.78,10.44,22.74,10.44Z" style="fill:#0f3970; fill-rule:evenodd;"/><rect x="740.97" y="1073.39" width="76.17" height="8.29" style="fill:#0f3d86;"/><path d="M540.28,835.32c-2.3,.64-6.52-2.78-9.25-3.75-1.38-.49-5.62-.79-6.53-1.75-2.79-2.94,11.63-2.2,16.58,3.17,.62,.68,.15,2.07-.8,2.32Z" style="fill:#0f3970; fill-rule:evenodd;"/><path d="M531.51,843.21c-1.86-.94,.22-8.68,4.7-6.43,2.4,1.2-1.7,7.93-4.7,6.43Z" style="fill:#0f3970; fill-rule:evenodd;"/><path d="M523.93,866.09c.7-.83-.43-.83-9.42-3.62-2.6-.81,3.15,11.06,9.42,3.62Z" style="fill:#fff; fill-rule:evenodd;"/><path d="M1848.96,628.28c-5.34,.38-10.47-5.94-11.95-7.84-5.67-7.19-9.29-15.65-10.74-20.39,1.11-3.15,2.25-7.14,3.47-11.94,20.54-13.95,23.35-24.27,8.42-30.97-3,1.69-6.74,6.88-11.2,15.59-3.56-.14-6.25-1.97-8.1-5.46,4.24-14.69,6.99-26.63,8.29-35.8-10.12-15.05-33.8-17.19-65.15-13.13-1.45,8.33-2.64,17.17-3.57,26.51-5.55,5.1-4.83,24.03,.28,45.85-2.55,12.41,5.1,19.18,22.98,20.31,.18,2.99-.1,6.44-.15,8.54-.04,1.9-.11,5.62-2.1,6.2l-3.31,.83c.33,44.35,23.04,52.87,72.85,1.7Z" style="fill:#f4ae7c; fill-rule:evenodd;"/><path d="M1761.99,518.35c31.36-4.07,55.03-1.92,65.14,13.13-1.28,9.17-4.03,21.1-8.27,35.79,1.84,3.5,4.54,5.33,8.1,5.47,4.46-8.71,8.2-13.9,11.2-15.59,14.93,6.7,12.12,17.01-8.42,30.97-1.21,4.82-2.36,8.79-3.47,11.94,18.47-4.14,33.94-20.67,36.11-27.82,21.57-42.49-2.47-60.45-15.34-66.99-5.69-42.08-67.02-5.7-83.17-31.38-33.75,19.26-11.36,44.11-1.88,44.48Z" style="fill:#0f3970; fill-rule:evenodd;"/><path d="M1802.27,606.69c-5,2.48-11.88,3.91-20.59,4.32,.17,2.95,.04,6.35-.15,8.45,8.77-1.68,15.69-5.94,20.75-12.77Z" style="fill:#ed7d5b; fill-rule:evenodd;"/><path d="M1886.34,1458.98c19.47-6.85,21.04-16.88,31.52-21.79,10.57-4.93,11.78-13.72,1.46-23.27-7.63,6.1-17.1,13.59-22.12,9.62-3.35-2.65-14.7-2.47-16.95,1.39-9.9,22.99-23.64,15.7-26.36,26.16-.32,13.93,23.51,11.03,32.45,7.88Z" style="fill:#142d4d; fill-rule:evenodd;"/><path d="M1717.63,1436.11c34.29-.54,59.93-.95,71.76-4.7,12.77-4.03,10.14-11.82,2.79-24.29-32.32,14.86-23.7-3.06-38.81-.78-10.63,8.55-26.36,14.29-47.19,17.19-8.81,6.5-5.23,12.29,11.45,12.57Z" style="fill:#142d4d; fill-rule:evenodd;"/><path d="M1734.77,633.3c17.1-4.97,32.47-7.98,46.09-9.04,2.46,37.6,22.09,37.34,58.84-.78,35.42,2.97,42.35,3.43,61.99,9.8,42.52,40.62,46.43,87.48,68.65,141.04-24.61,1.09-35.64,4.05-52.37,10.02-3.59-12.84-6.61-23.16-9.02-30.99,.69,70.62,.94,119.01,.77,145.17-81.36,32.24-148.38,21.19-175.76-3.92-.38-62.78-.91-112.47-1.57-149.08-9.72,11.47-18.75,20.35-27.07,26.67-19.94-22.87-33.46-32.09-44.77-45.56,25.04-41.12,60.92-79.38,74.2-93.32Z" style="fill:#6998d0; fill-rule:evenodd;"/><path d="M1570.78,702.09c42.74,17.75,72.67,32.43,89.78,44.03l7.6-11.26c7.07,7.08,15.14,14.03,24.99,24.11-9.1,9.53-18.88,17.37-30.25,23.99-29.71-3.17-62.53-25.66-98.49-67.47-11.18-2.23-19.42-6.29-24.7-12.15-.26-5.39,2.44-10.79,8.15-16.21-14.92-9.71-20.84-16.66-17.81-20.86,23.37,14.45,36.93,26.4,40.72,35.83Z" style="fill:#f4ae7c; fill-rule:evenodd;"/><path d="M1733.97,894.59c1.61,6.11-5.04,41.97-6.14,60.67-10.83,66.78-1.55,153.7,4.27,265.45,10.43,39.39,25.81,91.87,24.81,165.74,18.14,5.55,24.73,6.12,41.1,1.95,11.47-77.1,3.65-138.83-6.7-167.34,6.62-44.06,16.51-93.39,30.91-164.55,16.23,77.54,37.94,135.08,47.34,172.62,1.86,41.86,10.33,98.37,14.75,169.49,13.48,4.07,21.88,5.24,35.85,3.52,18.14-65.37,15.09-136.52,7.41-213.42-8.19-92.46,5.3-196.85-8.2-233.05-6.9-21.45-7.8-40.48-9.66-57.17-67.88,22.59-126.46,21.28-175.76-3.92Z" style="fill:#406fb5; fill-rule:evenodd;"/><path d="M1897.23,826.76c4.35,.66,8.47,1.23,12.35,1.75,.2,31.16,.25,54.49,.17,70-3.85,1.72-9.26,3.7-13.47,4.2,.02-2,.65-6.62,.67-8.6,.27-23.81,.36-46.26,.28-67.35h0Zm-198.94-62.4c11.98-9.98,23.39-26.18,34.21-48.6-1.21,7.8-1.7,18.26-1.46,31.36-9.2,10.7-17.77,19.05-25.7,25.07-2.44-2.8-4.78-5.4-7.05-7.82h0Zm195.55-60.73c5.27,16.98,10.33,33.55,15.12,49.72,.13,13.65,.24,26.46,.35,38.45-3.49-.32-7.58-.54-12.43-.66-.5-33.15-1.51-62.33-3.05-87.5Z" style="fill:#406fb5; fill-rule:evenodd;"/><path d="M1786.43,728.05h-89.57c-4.1,0-6.93,3.36-6.29,7.46l20.11,126.89c.65,4.11,4.54,7.47,8.64,7.47h89.58c4.11,0,6.93-3.36,6.28-7.47l-20.1-126.89c-.65-4.1-4.54-7.46-8.65-7.46Z" style="fill:#0f3d86; fill-rule:evenodd;"/><path d="M1962.08,774.79c3.89,15.71,5.5,30.07,2.32,49.13-9.66,14.04-48.68,6.19-149.12-10.6-3.6,3.29-11.06,6.55-22.36,5.09-10.51-2.62-11.02-5.36-22.79-16.47-2.86-8.65-2.28-15.25,1.77-19.81,13.26,7.81,20.24,11.96,35.19,12.45-3.98-10.23-4.57-16.84-1.8-19.82,5.11,4.09,8.42,10.23,9.97,18.44,79.2-3.45,100.08-2.98,110.62,2.55-1.15-4.97-2.16-9.35-3.05-13.12,12.33-4.2,22.37-6.64,39.27-7.86Z" style="fill:#f4ae7c; fill-rule:evenodd;"/><path d="M1789.91,1390.2c-.81,6.73-.93,12.76-.35,18.1-27.04,11.75-22.44-1.81-33.25-2.15,2.72-4.77,4.46-10.87,5.28-18.31,11.79,3.38,18.5,4.13,28.32,2.37h0Zm126,12.38c-.01,4.89,.46,9.2,1.42,12.92-7.23,5.71-15.53,11.68-20.13,8.04-2.2-1.73-7.86-2.26-12.11-1.31,1.75-5.91,3.14-13.31,4.14-22.2,9.48,2.55,16.76,3.4,26.67,2.55Z" style="fill:#f4ae7c; fill-rule:evenodd;"/><path d="M1727.83,955.25c47.73,44.51,111.59,44.66,191.56,.42,13.5,36.19,.01,140.59,8.2,233.05,7.68,76.91,10.73,148.05-7.41,213.42-1.48,.19-2.91,.33-4.26,.44-9.91,.85-17.19,0-26.67-2.56-1.57-.42-3.19-.88-4.92-1.4-4.42-71.12-12.89-127.62-14.75-169.49-9.4-37.54-31.11-95.08-47.34-172.62-14.41,71.15-24.3,120.49-30.91,164.55,10.34,28.52,18.16,90.25,6.7,167.34-2.98,.76-5.63,1.36-8.1,1.8-9.82,1.77-16.53,1.02-28.32-2.37-1.48-.42-3.04-.88-4.69-1.39,.99-73.87-14.38-126.35-24.81-165.74-5.81-111.76-15.09-198.68-4.27-265.45Z" style="fill:#0f3970; fill-rule:evenodd;"/><path d="M1803.18,1335.44c-17.42,4.73-33.37,6.16-47.84,4.29-.32-3.82-.67-7.58-1.06-11.27,15.88,2.07,32.3,.99,49.25-3.19-.08,3.35-.2,6.73-.35,10.18h0Zm127.29,13.26c-18.95,2.28-35.72,1.02-50.34-3.76-.36-3.98-.74-7.91-1.12-11.77,16.4,5.35,33.9,7.18,52.51,5.49-.32,3.36-.67,6.7-1.06,10.03h0Zm-47.9,25.04c-.3-3.96-.62-7.84-.94-11.69,14.63,4.01,30.11,5.29,46.44,3.86-.55,3.39-1.15,6.77-1.8,10.13-16.15,1.81-30.72,1.05-43.7-2.3h0Zm-126.4-21.79c14.76,2.44,30.12,2.16,46.04-.8-.25,3.37-.55,6.78-.88,10.23-16.29,3.45-31.17,4.07-44.65,1.85-.13-3.82-.31-7.58-.51-11.28Z" style="fill:#142d4d; fill-rule:evenodd;"/><path d="M1787.45,582.74c-9.51,.04-14.79-.3-24.04-1.08-3.7-.32,3.91,10,24.56,1.62,.5-.2,.21-.55-.52-.54Z" style="fill:#e97850; fill-rule:evenodd;"/><path d="M1793.26,530.99c-4.62,.34-4.36,4.03-.95,4.91,36.42,9.13,12.4-5.77,.95-4.91Z" style="fill:#0f3970; fill-rule:evenodd;"/><path d="M1774.98,528.52c4.31,1.67,2.99,5.12-.53,4.96-37.5-1.83-10.18-9.1,.53-4.96Z" style="fill:#0f3970; fill-rule:evenodd;"/><path d="M1767.52,571.77l-.23-.07c-3.81-1.55-5.83-2.45-6.33-4.08-.45-1.49,.5-2.92,2.23-5.51,1.92-2.86,4.83-7.21,7.98-14.67,.22-.54,.86-.77,1.4-.56,.54,.23,.79,.85,.56,1.41-3.23,7.62-6.2,12.08-8.18,15.03-1.13,1.7-2.11,3.17-1.94,3.69,.22,.73,2.92,1.83,5.09,2.72,.54,.22,.81,.84,.58,1.4-.2,.45-.69,.72-1.17,.64Z" style="fill:#e97850; fill-rule:evenodd;"/><path d="M1765.07,548.51c-2.63-.28-3.62-10.52,2.75-9.83,3.41,.37,1.56,10.29-2.75,9.83Z" style="fill:#0f3970; fill-rule:evenodd;"/><path d="M1790.54,550.29c-2.63-.3-3.62-10.52,2.75-9.83,3.4,.36,1.56,10.3-2.75,9.83Z" style="fill:#0f3970; fill-rule:evenodd;"/></svg>