<?xml version="1.0" encoding="UTF-8"?><svg id="a" xmlns="http://www.w3.org/2000/svg" viewBox="0 0 2105.71 1560.97"><path d="M1010.31,0c253.06,0,359.67,181.06,542.36,321.81,241.8,186.29,483.58,65.02,522.29,694.44,34.46,560.2-395.5,60.64-1001.74,261.32C467,1478.25-150.43,1559.05,32.78,909.79,215.99,260.52,422.33,0,1010.31,0Z" style="fill:#e0e8f5; fill-rule:evenodd;"/><path d="M1839,965.63c.91,2.75,5.43,1.45,4.41-1.65l-1.68-4.42c-.91-2.7-5.45-1.49-4.39,1.69l1.66,4.38h0Zm-119.97,175.28c0,2.75,4.68,2.92,4.68-.5l-.28-2.6c0-2.09-3.82-3.43-4.68,0l.28,3.1h0Zm-1.86-16.58c0,2.06,3.82,3.37,4.67,0v-.58l-.57-4.68c0-2.71-4.68-2.87-4.68,.58l.57,4.67h0Zm-2.38-18.64c0,2.68,4.66,2.83,4.66-.64l-.64-4.67c0-2.33-4.66-3.23-4.66,.65l.64,4.65h0Zm-2.68-18.59c0,2.4,4.68,2.93,4.68-.42-.15-1.6-.5-3.36-.75-4.96-1.02-3.05-4.65-2.49-4.65,.75l.72,4.63h0Zm-3.01-18.54c1.26,3.8,5.35,1.32,4.64-.79l-.81-4.66c-1.25-3.75-5.34-1.32-4.62,.84l.79,4.62h0Zm-3.34-18.46c1.22,3.67,5.37,1.33,4.62-.9l-.91-4.63c-1.2-3.63-5.37-1.34-4.61,.92l.89,4.61h0Zm-3.71-18.41c1.19,3.56,5.38,1.35,4.61-.98l-1-4.62c-1.18-3.53-5.38-1.35-4.59,1.01l.98,4.59h0Zm-4.09-18.33c1.15,3.45,5.39,1.37,4.58-1.08l-1.1-4.59c-1.13-3.41-5.4-1.37-4.57,1.11l1.09,4.56h0Zm-4.51-18.22c1.11,3.32,5.41,1.39,4.56-1.18l-1.2-4.56c-1.09-3.27-5.42-1.39-4.54,1.22l1.18,4.53h0Zm-4.94-18.1c1.06,3.18,5.43,1.41,4.53-1.3l-1.32-4.54c-1.05-3.13-5.43-1.42-4.52,1.33l1.31,4.5h0Zm-5.38-17.96c1,3.01,5.44,1.45,4.48-1.43l-1.44-4.5c-.99-2.97-5.44-1.45-4.48,1.46l1.44,4.47h0Zm-5.89-17.81c.96,2.88,5.43,1.42,4.46-1.49l-1.58-4.52c-.93-2.78-5.46-1.49-4.44,1.58l1.56,4.42h0Zm-6.41-17.63c.91,2.71,5.46,1.5,4.4-1.68l-1.69-4.41c-.9-2.68-5.42-1.36-4.39,1.72l1.68,4.37h0Zm-6.94-17.41c.86,2.6,5.43,1.46,4.34-1.82l-1.84-4.35c-.84-2.52-5.44-1.51-4.32,1.86l1.82,4.31h0Zm-7.52-17.16c.8,2.4,5.35,1.25,4.43-1.5-.5-1.52-1.45-3.29-2.15-4.76-.86-2.6-5.3-1.11-4.32,1.85l2.04,4.42h0Zm-8.13-16.88c.83,2.46,5.32,1.25,4.2-2.12l-4.2,2.12h0Zm-8.76-16.54c1.96,2.95,5.57-.1,4.1-2.31l-2.32-4.11c-1.94-2.92-5.58,.09-4.09,2.33l2.3,4.09h0Zm-9.45-16.18c1.85,2.76,5.61-.06,4.01-2.46l-2.49-4.02c-1.8-2.7-5.62,.05-3.98,2.51l2.46,3.97h0Zm-10.14-15.72c1.69,2.53,5.65-.03,3.9-2.65l-2.68-3.9c-.24-.37-.57-.61-.98-.81-2.46-.82-4.15,1.59-2.88,3.5l2.64,3.86h0Zm-10.84-15.23c.62,.92,2.13,1.24,3.16,.55,1.14-.76,1.41-2.16,.59-3.4l-2.86-3.76c-1.67-2.51-5.41,.36-3.73,2.87l2.83,3.74h0Zm-11.58-14.69c2.55,2.56,5.43-1.18,3.6-3.01l-3.6,3.01h0Zm-12.33-14.06c2.35,2.36,5.49-1.16,3.45-3.19l-3.25-3.47c-2.28-2.28-5.5,1.16-3.4,3.25l3.2,3.41h0Zm-13.06-13.35c1.66,1.66,4.66-.04,3.86-2.44-.13-.39-.32-.67-.6-.96l-3.43-3.27c-2.1-2.1-5.5,1.17-3.21,3.45l3.39,3.22h0Zm-13.8-12.6c1.87,1.87,5.57-1.06,3.06-3.58l-3.61-3.07c-1.84-1.84-5.55,1.08-3,3.62l3.56,3.02h0Zm-14.5-11.78c2.88,1.92,5.13-2.23,2.84-3.75l-3.78-2.84c-2.83-1.89-5.15,2.22-2.8,3.78l3.75,2.81h0Zm-15.17-10.9c.94,.63,2.2,.47,2.95-.28,1.08-1.07,.87-2.82-.35-3.63l-3.94-2.61c-2.58-1.72-5.03,2.31-2.57,3.95l3.9,2.58h0Zm-15.79-9.97c2.63,1.75,4.77-2.46,2.37-4.07l-4.09-2.38c-2.46-1.65-4.98,2.33-2.33,4.09l4.05,2.35h0Zm-16.37-9.02c3.79,1.26,4.25-3.49,2.14-4.19l-4.23-2.13c-3.7-1.24-4.28,3.48-2.08,4.22l4.17,2.11h0Zm-16.87-8.05c.6,.2,1.12,.23,1.56,.13l3.13,.28c3.66,0,3-4.69,.44-4.69l-4.32-.37c-3.39,0-3.07,4.17-.8,4.65h0Zm19.21-2.83l4.7,.56c2.37,0,3.26,4.67-.59,4.67-1.5-.24-3.13-.38-4.64-.55-2.45,0-3.24-4.68,.53-4.68h0Zm18.74,2.44c-3.97,0-2.94,4.66-.69,4.66l4.63,.71c3.21,0,3.81-3.62,.73-4.65l-4.68-.71h0Zm18.66,3.07c-2.48-.83-4.05,3.58-1.31,4.49,1.53,.44,3.46,.68,5.07,.99,2.46,.82,4.12-3.56,1.32-4.49-1.52-.44-3.48-.71-5.08-.99h0Zm18.53,3.73c-1.09-.36-2.4,.57-2.69,1.42-.54,1.63,.3,2.72,1.67,3.17l4.56,1.03c.92,.31,1.8-.24,2.36-.8,1.05-1.59,.46-3.2-1.29-3.78l-4.62-1.04h0Zm18.39,4.42c-2.84-.95-4.19,3.54-1.19,4.55l4.52,1.2c2.72,.91,4.41-3.48,1.25-4.54l-4.57-1.21h0Zm18.21,5.15c-2.84-.94-4.44,3.48-1.39,4.5l4.48,1.38c1.78,.59,3.54-1.15,2.94-2.96-.24-.73-.78-1.27-1.52-1.52l-4.51-1.41h0Zm17.97,5.91c-3.07-1.03-4.38,3.49-1.58,4.43l4.41,1.59c3.12,1.04,4.39-3.5,1.62-4.42l-4.45-1.59h0Zm17.71,6.71c-3.31-1.11-4.36,3.49-1.79,4.36l4.33,1.79c3.38,1.12,4.35-3.5,1.84-4.34l-4.38-1.8h0Zm17.37,7.51c-3.55-1.18-4.31,3.49-1.97,4.28l4.23,1.99c3.64,1.21,4.29-3.49,2.03-4.25l-4.29-2.01h0Zm17,8.35c-3.25-1.08-4.67,2.53-2.2,4.17l4.14,2.19c2.17,1.45,5.24-2.14,2.25-4.13l-4.19-2.23h0Zm16.57,9.2c-1.25-.84-3,0-3.39,1.15-.44,1.31,.05,2.27,.98,2.89l4.02,2.4c.88,.58,2.17,.38,2.87-.33,1.14-1.13,.85-2.84-.42-3.69l-4.06-2.42h0Zm16.06,10.02c-2.6-1.73-5.13,2.24-2.6,3.93l3.88,2.6c2.64,1.75,5.17-2.2,2.66-3.88l-3.94-2.65h0Zm15.52,10.87c-2.83-1.89-5.14,2.22-2.8,3.77l3.74,2.8c2.9,1.93,5.12-2.23,2.86-3.74l-3.79-2.84h0Zm14.93,11.68c-.79-.78-2.36-.66-3.14,.1-1.07,1.07-.92,2.47,.12,3.51l3.58,3c2.14,2.13,5.2-1.44,3.07-3.57l-3.63-3.04h0Zm14.27,12.46c-2.1-2.1-5.49,1.17-3.2,3.45l3.42,3.2c2.09,2.08,5.54-1.12,3.24-3.41l-3.46-3.23h0Zm13.58,13.2c-2.25-2.25-5.5,1.15-3.36,3.28l3.24,3.37c2.3,2.3,5.5-1.16,3.41-3.24l-3.29-3.41h0Zm12.87,13.89c-2.46-2.46-5.46,1.18-3.54,3.11l3.07,3.53c2.53,2.53,5.44-1.18,3.59-3.05l-3.12-3.59h0Zm12.15,14.55c-1.49-2.24-5.65-.03-3.7,2.9l2.88,3.69c1.57,2.33,5.57-.13,3.83-2.73-.92-1.3-2.02-2.61-3.01-3.87h0Zm11.38,15.12c-1.64-2.46-5.63,.04-3.83,2.73,.94,1.32,1.89,2.81,2.88,4.05,2.15,2.15,5.25-.56,3.68-2.92l-2.74-3.87h0Zm10.65,15.66c-1.79-2.66-5.63,.05-3.97,2.54l2.52,3.95c1.8,2.71,5.62-.05,3.99-2.5l-2.53-3.99h0Zm9.89,16.13c-1.92-2.88-5.59,.09-4.08,2.36l2.34,4.07c1.96,2.93,5.59-.1,4.1-2.33l-2.36-4.1h0Zm9.17,16.56c-1.66-2.49-5.25-1.04-4.17,2.19l2.16,4.16c.56,1.67,4.42,2.16,4.42-1.46l-.23-.68-2.18-4.2h0Zm8.46,16.92c-.19-.58-1.13-1.34-1.9-1.34-1.96,0-2.99,1.44-2.35,3.34l1.99,4.24c.8,2.4,5.36,1.26,4.43-1.49-.49-1.49-1.47-3.3-2.17-4.75h0Zm7.78,17.25c-.84-2.55-5.43-1.51-4.33,1.83l1.82,4.32c.86,2.57,5.46,1.52,4.35-1.8l-1.84-4.35Z" style="fill:#fff; fill-rule:evenodd;"/><path d="M1481.9,700.23c-2.46-2.45-5.47,1.18-3.53,3.12l3.05,3.52c2.53,2.53,5.44-1.18,3.58-3.05l-3.1-3.59h0Zm20.23,435.84c-.98,2.97,3.48,4.42,4.46,1.51l1.49-4.48c1.03-3.06-3.56-4.19-4.46-1.49l-1.49,4.46h0Zm5.86-17.85c-1.02,3.07,3.58,4.13,4.49,1.44l1.43-4.49c1.02-3.05-3.59-4.12-4.49-1.41l-1.42,4.47h0Zm5.57-17.92c-.93,2.78,3.48,4.44,4.5,1.34l1.35-4.52c.95-2.84-3.5-4.36-4.51-1.32l-1.34,4.5h0Zm5.23-18.05c-.9,2.7,3.48,4.47,4.54,1.27l1.26-4.54c.96-2.88-3.55-4.21-4.54-1.25l-1.26,4.51h0Zm4.89-18.12c-.88,2.64,3.48,4.41,4.56,1.18l1.18-4.57c1-3.02-3.67-3.87-4.57-1.16l-1.16,4.55h0Zm4.51-18.22c-.81,2.44,2.65,4.15,4.49,1.38,.46-1.56,.78-3.31,1.17-4.91,.87-2.62-3.57-4.07-4.42-1.51-.53,1.53-.86,3.43-1.24,5.03h0Zm4.11-18.32c-.78,2.32,3.41,4.55,4.6,.97l.97-4.62c.43-1.26-.88-2.82-2.12-2.82-1.44,0-2.08,.65-2.48,1.87l-.96,4.6h0Zm3.67-18.4c-.86,2.58,3.62,3.89,4.43,1.45l.19-.59,.85-4.64c.71-2.15-3.38-4.57-4.62-.83l-.84,4.62h0Zm3.18-18.49c0,3.22,3.63,3.81,4.65,.74l.72-4.67c0-3.99-4.65-2.93-4.65-.71l-.72,4.63h0Zm2.67-18.57c0,3.87,4.67,2.97,4.67,.61l.58-4.69c0-3.81-4.68-2.98-4.68-.56l-.58,4.64h0Zm2.1-18.61c0,3.66,4.69,3,4.69,.44l.43-4.67c0-3.63-4.69-3.05-4.69-.44l-.43,4.67h0Zm1.48-18.68c0,3.45,4.69,3.02,4.69,.28l.28-4.71c0-3.41-4.7-3.04-4.7-.25l-.27,4.69h0Zm.81-18.72c0,3.23,4.71,3.07,4.71,.1l.09-4.74c0-3.16-4.7-3.08-4.7-.04l-.1,4.68h0Zm.08-18.74c0,3.05,4.7,3.07,4.7-.07l-.1-4.73c0-2.94-4.7-3.13-4.7,.13l.1,4.67h0Zm-.72-18.69c0,2.83,4.69,3.07,4.69-.3l-.31-4.71c0-2.86-4.69-2.98-4.69,.34l.31,4.67h0Zm-1.58-18.64c0,.98,1.15,2.08,2.12,2.08,1.67,0,2.55-.95,2.55-2.6-.16-1.59-.3-3.61-.65-5.15-.78-2.36-4.56-2.23-4.56,1.03l.54,4.64h0Zm-2.52-18.52c1.27,3.81,5.35,1.32,4.64-.78l-.79-4.66c-1.25-3.75-5.35-1.32-4.63,.82l.78,4.62h0Zm-3.53-18.36c1.18,3.51,5.39,1.36,4.59-1.03l-1.06-4.62c-1.14-3.43-5.39-1.37-4.57,1.09l1.05,4.55h0Zm-4.59-18.1c1.05,3.16,5.43,1.41,4.51-1.31l-1.34-4.55c-1.02-3.08-5.43-1.43-4.49,1.37l1.32,4.49h0Zm-5.72-17.78c.82,2.46,4.56,1.77,4.56-.65,.06-.19-.08-.78-.13-.94l-1.64-4.44c-.91-2.73-5.42-1.38-4.41,1.66l1.61,4.38h0Zm-6.89-17.33c.9,2.67,5.32,1.17,4.3-1.9l-1.93-4.34c-.82-2.46-5.41-1.45-4.27,1.98l1.9,4.26h0Zm-8.07-16.81c2.05,3.07,5.56-.11,4.16-2.2l-2.24-4.18c-2-3-5.57,.1-4.13,2.26l2.21,4.12h0Zm-9.28-16.18c1.82,2.73,5.62-.06,4-2.5l-2.55-4.01c-1.76-2.63-5.63,.03-3.95,2.57l2.5,3.94h0Zm-10.43-15.45c1.58,2.37,5.64,0,3.78-2.79l-2.83-3.81c-1.59-2.4-5.57,.12-3.74,2.86l2.79,3.74Z" style="fill:#fff; fill-rule:evenodd;"/><path d="M1303,329h-353.26c2.54-10.73,12.18-18.72,23.68-18.72,.56,0,1.11,.02,1.66,.06,5.57-13.66,19-23.28,34.66-23.28,6.86,0,13.27,1.85,18.79,5.06,6.74-22.21,27.38-38.38,51.78-38.38,4.96,0,9.78,.68,14.35,1.93,11.81-26.09,38.08-44.24,68.58-44.24,36.18,0,66.39,25.54,73.61,59.57,.62-.03,1.22-.04,1.83-.04,23.18,0,42.3,17.33,45.12,39.73,9.46,1.78,16.99,9.01,19.19,18.3Z" style="fill:#fff; fill-rule:evenodd;"/><path d="M1932.51,690.86h-353.25c2.53-10.74,12.18-18.73,23.68-18.73,.55,0,1.11,.03,1.66,.07,5.57-13.66,19-23.29,34.66-23.29,6.85,0,13.26,1.85,18.79,5.06,6.74-22.2,27.37-38.37,51.79-38.37,4.96,0,9.77,.67,14.34,1.93,11.82-26.09,38.08-44.24,68.58-44.24,36.18,0,66.39,25.54,73.61,59.56,.62-.03,1.22-.04,1.83-.04,23.18,0,42.3,17.33,45.13,39.73,9.45,1.78,16.98,9.01,19.18,18.31Z" style="fill:#fff; fill-rule:evenodd;"/><path d="M1058.69,1154.72h-353.25c2.53-10.73,12.17-18.72,23.68-18.72,.55,0,1.11,.02,1.66,.06,5.58-13.66,19-23.28,34.66-23.28,6.85,0,13.27,1.85,18.8,5.06,6.74-22.21,27.37-38.38,51.77-38.38,4.97,0,9.79,.68,14.35,1.93,11.82-26.09,38.08-44.24,68.59-44.24,36.18,0,66.39,25.54,73.61,59.57,.61-.03,1.21-.04,1.83-.04,23.18,0,42.3,17.33,45.12,39.73,9.46,1.77,16.98,9.01,19.18,18.3Z" style="fill:#fff; fill-rule:evenodd;"/><path d="M430.38,1476.88c203.72,0,368.86,18.82,368.86,42.04s-165.14,42.05-368.86,42.05-368.86-18.83-368.86-42.05,165.14-42.04,368.86-42.04Z" style="fill:#c4d1eb; fill-rule:evenodd;"/><path d="M1589.47,1463.33c285.12,0,516.24,21.85,516.24,48.82s-231.13,48.83-516.24,48.83-516.24-21.86-516.24-48.83,231.13-48.82,516.24-48.82Z" style="fill:#c4d1eb; fill-rule:evenodd;"/><path d="M1628.6,1286.03c-4.47,.42-.24,3.74-3.12,4.63-6.51-3.22-10.43-12.58-13.13-16.67-1.43-2.15-2.28,.7-2.81,3.87-1.12,6.66-.76,15.35,.86,18.24-1.89-1.13-3.69-2.76-4.78-5.53-3.9,.42-.71,3.74-3.24,4.64-5.69-3.23-8.59-12.59-10.96-16.67-1.25-2.15-1.99,.69-2.46,3.86-.99,6.8-.65,14.68,.84,17.38,1.83-.58,2.12-7.33,2.91-11.19,5.66,5.3,4.17,11.49,7.48,13.43,7.8,.63,8.73,2.81,17.92,.55,.73-3.88-3.6-4.08-7.56-6.38,1.06-2.16,1.8-8.33,2.7-12.14,6.47,5.31,5.35,11.5,9.14,13.43,8.93,.63,13.74,.68,20.5,.56,1.25-5.8-10.42-3.39-14.29-12Z" style="fill:#0e2952; fill-rule:evenodd;"/><path d="M1584.45,974.94c-.49,2.43-1.19,4.34-2.12,5.72-1.83,.86-3.88,2.64-6.18,5.31-2.28-.45-4.73-1.31-7.34-2.59-10.36-17.12-19.94-32.25-28.77-45.37-.11,8.72-4.23,11.83-12.35,9.32,16.3,30.79,26.27,47.99,29.92,51.6,6.38,8.87,13.34,15.08,20.87,18.63,14.95,16.94,15.83,37.74,2.63,62.4,27.92,4.18,40.68-7.23,38.29-34.24-3.2-20.43-8.6-40.08-16.21-58.95-9.34-3.65-15.58-7.59-18.74-11.84Z" style="fill:#6d96ce; fill-rule:evenodd;"/><path d="M1614.48,984.23c.11-3.41-1.08-10.13-7.59-16.81,2.74,.69,5.52,1.66,8.35,2.91,.88-.17,2.48-.36,4.81-.56,3.53-4.09,6.13-9.82,7.8-17.17,2.43-12.92,4.27-27.65,5.52-44.21,4.39,2.68,12.72,3,14.79,1.82-2.53,30.85-6.71,52.14-12.52,63.88-2.26,6.3-.53,12.2-2.23,20.76,8.99,11.16,12.37,21.22,10.13,30.19-4.89,11.11-1.55,28.04,10.02,50.73-19.69,3.05-29.15-5.77-28.36-26.43-2.1-26.5-6.48-50.85-10.73-65.12Z" style="fill:#6d96ce; fill-rule:evenodd;"/><path d="M1617.09,1066.75c3.41-.12,7.11-.1,11.1,.04-2.26-4.35-3.27-10.16-2.99-17.45-1.86-23.56-5.54-45.4-9.31-60-3.07,3.28-6.62,4.19-10.63,2.73,6.52,17.24,11.24,35.12,14.14,53.65,.76,8.59,0,15.6-2.31,21.03Z" style="fill:#fff; fill-rule:evenodd;"/><path d="M1643.43,1198.95c9.42-46.67,14.2-88.03,5.52-122.65-10.2,.63-17.11-2.54-20.75-9.5-4-.15-7.7-.17-11.1-.04-4.62,10.89-15.37,15.45-32.28,13.68-11.77,22.36-2.88,37.96,2.94,58.87,4.27,15.34,5.29,32.9,1.69,60.65-2.05,12.53-1.99,36.1,.2,70.7,6.48,1.3,11.81,.52,16.01-2.33-1.27-22.57,.82-44.99,6.28-67.25,5.28-23.07,7.71-47.92,7.29-74.54,4.27,32.89,4.2,57.4-.21,73.53-4.4,19.04-6.83,41.46-7.29,67.25,5.13,2.05,9.65,1.91,13.57-.41,5.25-29.37,6.91-51,18.13-67.95Z" style="fill:#20386f; fill-rule:evenodd;"/><path d="M1606.17,968.45c-2.38,8.86-8.67,10.97-18.89,6.34l2.29,4.99c3.4,2.45,7.93,4.78,13.62,7,.71,1.76,1.4,3.53,2.07,5.3,4.02,1.46,7.56,.56,10.63-2.73-.48-1.82-.95-3.54-1.42-5.12,.08-2.58-.57-7.05-3.71-11.95-1.33-.61-2.87-1.89-4.6-3.83Z" style="fill:#f9af79; fill-rule:evenodd;"/><path d="M1587.28,974.79c8.37,2.27,14.67,.17,18.89-6.34,.24-.37,.48-.76,.71-1.15-.22-2.59,.16-6.44,1.14-11.53-3.84-2.2-7.25-7.6-10.23-16.21-2.47,1.04-4.83-.42-7.09-4.35-3.31,7.44-8.57,11.63-15.8,12.56,1.87,5.29,2.25,9.92,1.12,13.87,4.47,4.03,7.2,8.08,8.21,12.15,1.04,.4,2.06,.73,3.06,1Z" style="fill:#f9af79; fill-rule:evenodd;"/><path d="M1589.57,979.78l-2.29-4.99c-.99-.27-2.01-.6-3.06-1,.09,.38,.16,.77,.23,1.15,1.24,1.65,2.94,3.27,5.12,4.84Z" style="fill:#466fb5; fill-rule:evenodd;"/><path d="M1606.17,968.45c1.72,1.94,3.27,3.22,4.6,3.83-1.01-1.59-2.29-3.23-3.88-4.86,0-.04,0-.08,0-.12-.23,.39-.46,.78-.71,1.15Z" style="fill:#466fb5; fill-rule:evenodd;"/><path d="M1572.54,984.97c1.25,.44,2.46,.78,3.61,1,2.29-2.67,4.35-4.45,6.18-5.31,.92-1.38,1.63-3.29,2.12-5.72-.06-.38-.14-.77-.23-1.15-1.01-4.07-3.75-8.12-8.21-12.15,1.13-3.95,.77-8.58-1.12-13.87,7.23-.93,12.49-5.12,15.8-12.56,2.26,3.94,4.62,5.39,7.09,4.35,2.98,8.61,6.39,14,10.23,16.21-.98,5.09-1.36,8.94-1.14,11.53,0,.04,0,.08,0,.12,2.74,.69,5.53,1.66,8.35,2.91,.64-.13,1.68-.26,3.1-.4-1.39-1.7-2.94-4.3-4.67-7.83,1.14-2.85,.91-6.53-.71-11.04-3.1-19.38-10.87-26.7-23.3-21.98-11.75-4.29-19.28,2.62-22.58,20.76-5.94,4.59,4.14,17.56,4.65,25.72-.06,3.78,.21,6.92,.81,9.41Z" style="fill:#20386f; fill-rule:evenodd;"/><path d="M1614.48,984.23c2.41,1.58,4.41,3.18,5.97,4.82,.06-6.3-1.79-12.59-5.58-18.88-2.7-1.17-5.36-2.08-7.98-2.74,1.59,1.63,2.87,3.27,3.88,4.86,3.14,4.9,3.79,9.37,3.71,11.95Z" style="fill:#466fb5; fill-rule:evenodd;"/><path d="M1598.93,997.09c1.2-4.51,2.62-7.95,4.27-10.31-5.69-2.22-10.22-4.56-13.62-7-2.18-1.57-3.88-3.19-5.12-4.84-.49,2.43-1.19,4.34-2.12,5.72,5.45,8.75,10.98,14.23,16.59,16.44Z" style="fill:#466fb5; fill-rule:evenodd;"/><path d="M1612.37,1274.02c2.71,4.1,6.61,13.43,13.12,16.64,2.4-.75-.16-3.2,1.55-4.22-2.14-5.04-3.29-11.27-3.43-18.7-3.07,1.27-6.46,1.32-10.21,.15-.25,2.03-.6,4.07-1.03,6.12h0Zm-19.91-2.93c.38,3.67,.3,6.66-.22,8.99,2.23,4.55,5.09,12.26,10.14,15.13,2.07-.75,.29-3.13,1.77-4.18-1.74-5.21-2.26-12.24-1.56-21.07-2.94,1.18-6.31,1.55-10.13,1.13Z" style="fill:#f9af79; fill-rule:evenodd;"/><path d="M1587.28,974.79c9.4,6.05,19.49,3.81,18.89-6.34-4.22,6.51-10.52,8.61-18.89,6.34Z" style="fill:#ed7d57; fill-rule:evenodd;"/><path d="M1630.05,887.56c3.65,5.65,4.46,4.82,4.89,5.57,.53,.85,.12,14.5,.12,14.5l-.06,1.58c3.54,1.48,8.38,1.9,11.24,1.52,0-4.83,.18-13.81,.16-14.31,0,0,1.77-5.86,2.77-9.57,.98-3.72,.27-7.68,.38-8.78,0-.15,.21-3.82-.78-8.35-.83-3.95-1.82,.15-1.82,.15,0,0,.24,7.56-.35,7.47-.48-.06-.36-4.2-1.25-8.55-.23-1.12-.46-2.21-.69-3.21-.57-2.66-2.35-3.09-2.2-.21,.05,1.02,.19,2.7,.46,3.88,.27,1.3,.12,2.57,.2,3.67,.15,2.21,.27,3.84,.19,3.8-.12-.08-.4,.39-.68-.79-.34-1.42-.38-4.58-1.04-6.65-.37-1.17-.99-3.63-.99-3.63,0,0-1.46-3.91-1.71-3.88-1.29,.13-1.04,3.23-.33,4.72-.05,1.22,.69,3.79,.69,3.79,0,0,.3,5.57-.48,5.63-.65,.05-3.97-13.13-5.25-12.92-1.06,.19-.24,4.21-.24,4.21,0,0,.69,2.39,.84,3.21,.19,.95,.55,3.85,.55,3.85,0,0,.8,10.1,.04,10.1s-2.66-.81-2.92-1.42c-.26-.62-.17-2-.44-2.58-.27-.62-1.14-1.18-1.91-.93-.78,.29-.62,3.72-.62,3.72,0,0,.15,2.78,1.21,4.41Z" style="fill:#f9af79; fill-rule:evenodd;"/><path d="M1639.76,890.59c-.74-2.91-2.32-5.04-5.04-6.23,3.4-.07,5.59,3.41,5.04,6.23Z" style="fill:#f48661; fill-rule:evenodd;"/><path d="M1536.14,922.16c-.77,6.68-1.86,6.29-1.92,7.16-.08,.79,3.94,8.55,5.6,11.72-.83,5.37-3.82,7.71-8.96,7.01-2.22-4.41-5.29-10.32-5.45-10.71,0,0-4.18-4.47-6.72-7.36-2.53-2.9-3.63-6.77-4.22-7.7-.08-.14-1.88-3.34-3-7.85-1-3.9,1.7-.67,1.7-.67,0,0,3.14,6.89,3.62,6.55,.4-.26-1.53-3.92-2.67-8.21-.29-1.11-.56-2.2-.8-3.2-.66-2.63,.74-3.81,1.89-1.16,.4,.94,1.02,2.51,1.3,3.68,.33,1.29,1.04,2.36,1.45,3.4,.84,2.05,1.45,3.56,1.5,3.48,.08-.11,.54,.18,.26-1-.32-1.42-1.69-4.28-2.01-6.42-.19-1.21-.71-3.7-.71-3.7,0,0-.43-4.16-.18-4.22,1.22-.46,2.37,2.43,2.39,4.09,.58,1.06,1.06,3.69,1.06,3.69,0,0,2.18,5.13,2.91,4.83,.61-.24-2.25-13.53-1-13.91,1.04-.3,2.08,3.67,2.08,3.67,0,0,.44,2.45,.65,3.25,.25,.93,1.22,3.7,1.22,3.7,0,0,3.75,9.41,4.42,9.08,.67-.33,2.02-1.91,1.99-2.57-.04-.67-.73-1.86-.74-2.51-.04-.67,.5-1.57,1.3-1.68,.83-.09,2.2,3.07,2.2,3.07,0,0,1.09,2.56,.85,4.49Z" style="fill:#f9af79; fill-rule:evenodd;"/><path d="M1528.78,929.17c-.63-2.93-.15-5.54,1.76-7.81-3.07,1.43-3.5,5.54-1.76,7.81Z" style="fill:#f48661; fill-rule:evenodd;"/><path d="M1583.98,958.31c-.92,.32-2.91-3.07-.67-3.86,1.2-.43,2.18,3.32,.67,3.86Z" style="fill:#20386f; fill-rule:evenodd;"/><path d="M1599.83,952.68c.92-.32,.39-4.22-1.85-3.43-1.19,.43,.34,3.98,1.85,3.43Z" style="fill:#20386f; fill-rule:evenodd;"/><path d="M1582.97,950.94c1.51-.47,1.89,.77,.92,1.49-.28,.21-5.91,3.54-5.77,3.08,.24-.97,1.99-3.68,4.84-4.57Z" style="fill:#20386f; fill-rule:evenodd;"/><path d="M1595.35,946.15c-1.5,.51-1.09,1.76,.12,1.75,.57,0,6.91-.62,6.37-1.01-.89-.64-3.76-1.68-6.49-.74Z" style="fill:#20386f; fill-rule:evenodd;"/><path d="M1594.35,961.57c-3.21,1.73-3.15,.06-2.15,.04,3.34-.09-.14-1.25-.84-6.93-.07-.59,.6-.66,.72-.18,.08,.34,.24,1.59,.37,1.93,1.4,4.35,2.93,4.58,1.9,5.14Z" style="fill:#ed7d57; fill-rule:evenodd;"/><path d="M1599.15,965.4c-2.56,9.54-9.08,2.94-7.79,2.42,6.49-2.65,8.12-3.58,7.79-2.42Z" style="fill:#fff; fill-rule:evenodd;"/><path d="M226.54,1416.63s-23.9,22.14-19.25,37.86c4.68,15.75,26.24,26.23,29.15,45.46,2.91,19.23,14.58,29.73,25.05,29.73h50.02s7.72-13.54-10.94-17.62c-18.65-4.08-25.68-26.68-24.51-47.65,1.17-20.99-1.74-48.95-1.74-48.95l-39.62-9.33-8.16,10.5Z" style="fill:#0e2952; fill-rule:evenodd;"/><path d="M524.3,1527.06c2.41,1.22,10.94,2.05,22.63,2.62h113.09c-.38-3.37-3-15.36-21.5-18.35-20.89-3.39-57.09-15.53-65.15-42.27-.27-.84-.5-1.72-.71-2.6-6.39-28.56-53.01,8.73-53.01,8.73,0,0-.14,1.15-.35,3.08-1.09,10.49-3.85,44.38,5,48.78Z" style="fill:#0e2952; fill-rule:evenodd;"/><path d="M632.99,763.32s-7.09,88.34-15.42,194.53c-11.3,144.25-24.9,321.43-26.25,355-2.32,58.29-11.64,151.52-11.64,151.52,0,0-22.14,22.16-66.45,12.81,0,0-39.47-133.1-50.75-273.91-.18-2.3-.35-4.63-.52-6.95-10.5-143.37-26.79-445.24-26.79-445.24l197.83,12.24Z" style="fill:#20386f; fill-rule:evenodd;"/><path d="M632.99,763.32s-7.09,88.34-15.42,194.53l-155.1,245.42c-.18-2.3-.35-4.63-.52-6.95-10.5-143.37-26.79-445.24-26.79-445.24l197.83,12.24Z" style="fill:#0e2952; fill-rule:evenodd;"/><path d="M600.64,773.81s-127.62,319.93-211.52,470.27c-83.91,150.35-110.15,192.3-110.15,192.3,0,0-48.07-19.23-52.44-32.33,0,0,32.08-290.26,88.29-361.01,31.75-39.98,69.05-159.96,70.8-201.91,1.75-41.95,11.36-125,11.36-125l203.67,57.68Z" style="fill:#20386f; fill-rule:evenodd;"/><path d="M994.28,564.65s34.62-7.93,40.44-7.53c5.83,.4,26.2,8.93,26.47,10.57,.27,1.66-.69,3-4.21,3.23-3.53,.25-15.11-1.25-14.39,.16,.75,1.39,34.12,7.96,34.49,14.68,.38,6.72-17.91,19.21-33.36,20.05-15.45,.83-45.85-17.12-48.45-17.35-22.1-1.93-.99-23.82-.99-23.82Z" style="fill:#f9af79; fill-rule:evenodd;"/><path d="M1009.09,573.44c4.96-15.82,3.8-18.34,3.8-18.34,0,0-140.32-75.85-153.17-83.56-12.85-7.7-157.86-162.02-157.86-162.02l-148.53,40.88s229.86,175.11,262.79,193.95c54.44,31.16,180.51,48.8,180.51,48.8,0,0,8.56-7.3,12.46-19.71Z" style="fill:#6d96ce; fill-rule:evenodd;"/><path d="M656.87,270.17s52.07,91.62,102.97,103.57c0,0-2.12-30.77-14.51-51.83,5.07-5.98,9.54-11.48,13.39-16.4,12.8-16.43,18.9-26.47,18.9-26.47l-17.28-46.43-11.72-31.51c-5.63,10.22-11.83,18.93-18.3,26.4-33.36,38.34-73.44,42.67-73.44,42.67Z" style="fill:#f9af79; fill-rule:evenodd;"/><path d="M730.31,227.5s-6.22,45.9,28.4,78.01c12.8-16.43,18.9-26.47,18.9-26.47l-17.28-46.43c-18.52-5.64-30.03-5.11-30.03-5.11Z" style="fill:#ed7d57; fill-rule:evenodd;"/><path d="M791.34,285.81s-77.81-30.33-58.18-78.47c19.65-48.18,22.83-84.52,73.32-67.18,50.5,17.31,52.61,39.61,49.97,57.27-2.64,17.65-44.37,95.03-65.11,88.38Z" style="fill:#f9af79; fill-rule:evenodd;"/><path d="M389.43,740.3c31.39,45.13,266.04,105.42,263.27,74.2-1.08-11.96-2.49-33.04,.04-61.61,.57-6.7,1.39-13.79,2.49-21.28,5.95-41.04,20.13-93.82,51.7-154.88,2.38-4.58,4.83-9.19,7.39-13.87,13.01-23.65,24.08-48.65,32.54-73.09,16.26-46.99,22.81-91.93,14.59-121.32-.01-.15-.07-.27-.11-.42-49.04-22.68-68.06-110.64-68.06-110.64,0,0-137.22-10.58-198.18,228.21,0,0-132.97,215.45-105.66,254.71Z" style="fill:#6d96ce; fill-rule:evenodd;"/><path d="M652.73,752.88c.57-6.7,1.4-13.79,2.49-21.28,5.95-41.04,20.12-93.82,51.7-154.89-5.42-32.88-12.9-60.2-21.12-72.52-33.38-50.02-52.82-57.83-52.82-57.83,0,0-50.06,211.07,19.74,306.52Z" style="fill:#466fb5; fill-rule:evenodd;"/><path d="M760.47,102.9c31.69-4.4,63.56,4.3,92.37,22.61,14.02,8.91,20.84,17.54,34.42,14.28,40.5-9.72,29.83,55.18-22.65,56.87-12.62,3.88-35.85-20.97-56.73-24.35-20.89-3.42-32.19,25.69-40.16,28.09-7.95,2.43-3.43-4.2-11.76-10.83-8.35-6.62-13.13,8.95-12.94,19.92,.17,10.97-16.09,21.32-16.09,21.32l-9.53-17.48c-28.09-36.2-4.89-103.78,43.06-110.43Z" style="fill:#20386f; fill-rule:evenodd;"/><path d="M1157.44,638.27l-153.89-35.12c-19.48-4.44-39.05,7.86-43.5,27.34l-25.88,113.4c-4.43,19.48,7.86,39.05,27.35,43.5l153.89,35.1c19.47,4.45,39.05-7.85,43.5-27.33l25.87-113.4c4.44-19.48-7.86-39.05-27.34-43.5Z" style="fill:#9c7357; fill-rule:evenodd;"/><path d="M1128.19,561.63c-12.2-2.5-51.58-12.47-61-12.47-11.67-1.85-23.16,.94-32.44,7.05-9.84,6.49-17.24,16.72-19.78,29.12l-4.02,19.51,30.51,6.97,4.2-20.43c.85-3.84,3.18-7.03,6.25-9.05,3.14-2.08,7.11-2.96,11.07-2.15l1.81,.37,57.14,11.73c3.94,.8,7.2,3.16,9.28,6.31,2.07,3.15,2.96,7.11,2.14,11.07l-4.53,22.08,28.62,6.53,1.87,.47,4.69-22.82c2.53-12.38-.22-24.67-6.69-34.5-6.48-9.85-16.73-17.24-29.12-19.8Z" style="fill:#9c7357; fill-rule:evenodd;"/><path d="M1159.57,792.26l269.8-85.81,50.62,19.55c3.24,.43,4.45-.29,1.8-3.15l-35.22-34.02-17.1,1.66-256.45,42.76-13.46,59Z" style="fill:#9c7357; fill-rule:evenodd;"/><path d="M916.5,702.67s46.29,2.41,53.47,5c7.19,2.6,29.73,20.59,29.47,22.75-.24,2.16-1.95,3.5-6.45,2.54-4.49-.96-18.52-6.97-18.12-4.94,.44,2.03,40,22.2,38.07,30.75-1.92,8.58-29.37,17.72-49.08,13.26-19.71-4.49-51.44-37.88-54.64-39.09-27.04-10.32,7.27-30.27,7.27-30.27Z" style="fill:#f9af79; fill-rule:evenodd;"/><path d="M925.24,720.21c9.27-14.97,2.59-21.81,2.59-21.81,0,0-143-111.98-154.22-123.28-11.2-11.32-63.12-191.43-63.12-191.43,0,0-17.88-72.89-59.73-80.94-36.37-6.99-61.49,11.01-77.94,32.1-19.61,25.14-21.52,59.81-5.27,87.22,36.52,61.52,110.17,183.65,131.68,204.52,47.88,46.44,208.06,111.33,208.06,111.33,0,0,10.69-5.94,17.96-17.72Z" style="fill:#6d96ce; fill-rule:evenodd;"/><path d="M797.56,211.99c-3.34-1.64,.62-16.07,8.74-12.07,4.34,2.15-3.26,14.75-8.74,12.07Z" style="fill:#20386f; fill-rule:evenodd;"/><path d="M833.11,230.03c3.34,1.65,12.54-10.17,4.41-14.18-4.33-2.14-9.92,11.49-4.41,14.18Z" style="fill:#20386f; fill-rule:evenodd;"/><path d="M814.95,189.68c5.3,2.85,2.91,7.21-1.61,6.47-1.33-.2-25.34-6.68-23.7-7.54,3.25-1.89,15.29-4.32,25.31,1.07Z" style="fill:#20386f; fill-rule:evenodd;"/><path d="M838.99,200.44c-5.38-2.72-7.66,1.71-4.46,4.97,1.51,1.54,20.06,17.19,19.69,14.68-.64-4.11-5.41-14.73-15.24-19.66Z" style="fill:#20386f; fill-rule:evenodd;"/><path d="M820.89,248.9c-13.87,.55-10.88-5.05-7.4-3.45,11.56,5.3,1.63-4.52,8.73-25.07,.78-2.14,3.17-1.28,2.78,.58-.28,1.28-1.81,5.81-2,7.22-2.47,17.18,2.34,20.54-2.11,20.72Z" style="fill:#ed7d57; fill-rule:evenodd;"/><path d="M813.64,258.95c-32.8,18.35-32.12-16.92-27.31-14.83,24.45,10.66,31.33,12.6,27.31,14.83Z" style="fill:#fff; fill-rule:evenodd;"/><path d="M1943.16,1269.96l.84,14.62c.3,1.85,1.49,6.42,1.49,8.11,0,6.33-28.14-5.36-21.84-8.17,.58-.25,4.46-3.6,4.64-5.77,.29-3.32,.15-8.58,.15-8.58l14.73-.22Z" style="fill:#f9af79; fill-rule:evenodd;"/><path d="M1923.73,1284.46s6.59,1.94,9.98,2.4c3.38,.5,7.86-3.56,10.24-2.46,2.63,1.22,2.81,15.15,2.81,15.15,0,0-34.64,2.63-43.51,.1-3.98-1.16,6.96-10.69,20.48-15.19Z" style="fill:#0e2952; fill-rule:evenodd;"/><path d="M1888.9,1269.96l.83,14.62c.3,1.85,1.5,6.42,1.5,8.11,0,6.33-28.14-5.36-21.84-8.17,.57-.25,4.44-3.6,4.64-5.77,.29-3.32,.13-8.58,.13-8.58l14.74-.22Z" style="fill:#f9af79; fill-rule:evenodd;"/><path d="M1869.46,1284.46s6.61,1.94,9.99,2.4c3.39,.5,7.85-3.56,10.24-2.46,2.64,1.22,2.8,15.15,2.8,15.15,0,0-34.63,2.63-43.5,.1-3.99-1.16,6.94-10.69,20.46-15.19Z" style="fill:#0e2952; fill-rule:evenodd;"/><path d="M1865.08,887.28c-.91,7.14-2.04,6.67-2.12,7.61-.11,1.06,6.4,14.15,6.4,14.15,0,0,18.96,38.64,20.04,40.71l33.72,28.44-8.74,20.98s-35.89-31.91-37.5-33.92c-1.58-2-21.34-57.25-23.23-62.04,0,0-4.29-4.91-6.9-8.11-2.59-3.16-3.72-7.33-4.31-8.36-.1-.13-1.9-3.61-3.04-8.48-.98-4.2,1.81-.63,1.81-.63,0,0,3.16,7.45,3.69,7.11,.4-.29-1.55-4.26-2.68-8.89-.29-1.19-.57-2.35-.83-3.45-.65-2.81,.84-4.04,1.99-1.16,.4,1,1.05,2.69,1.33,3.98,.3,1.38,1.02,2.53,1.45,3.66,.85,2.23,1.45,3.86,1.52,3.76,.09-.1,.56,.22,.29-1.06-.33-1.51-1.72-4.64-2.02-6.92-.18-1.29-.7-3.98-.7-3.98,0,0-.05-4.2,.18-4.29,1.29-.44,2.12,2.44,2.13,4.22,.57,1.12,1.04,3.98,1.04,3.98,0,0,2.2,5.54,2.98,5.26,.33-.12-.64-3.69-1.05-7.33-.38-3.38-.23-6.85,.41-7.01,1.09-.31,1.9,3.41,1.9,3.41,0,0,.44,2.63,.64,3.47,.24,1.04,1.19,4.01,1.19,4.01,0,0,3.81,10.18,4.51,9.83,.7-.34,2.14-1.97,2.11-2.69-.02-.69-.73-2-.75-2.69-.03-.72,.54-1.66,1.38-1.75,.85-.1,2.25,3.34,2.25,3.34,0,0,1.11,2.79,.86,4.82Z" style="fill:#f9af79; fill-rule:evenodd;"/><path d="M2034.74,901.03c-.39,7.18,.79,6.96,.71,7.87-.09,1.09-8.87,12.74-8.87,12.74,0,0-25.64,34.6-27.1,36.42l-38.31,21.85,4.79,22.24s41.08-24.89,43.02-26.58c1.93-1.66,31.35-52.42,34.08-56.81,0,0,5.13-4.03,8.26-6.7,3.13-2.63,5-6.55,5.77-7.42,.11-.12,2.53-3.23,4.52-7.8,1.72-3.95-1.66-.97-1.66-.97,0,0-4.47,6.77-4.92,6.32-.34-.34,2.3-3.88,4.25-8.23,.51-1.13,.98-2.23,1.43-3.26,1.17-2.66-.1-4.14-1.74-1.51-.58,.91-1.51,2.47-2.02,3.67-.57,1.32-1.47,2.32-2.1,3.34-1.25,2.04-2.13,3.52-2.19,3.41-.07-.12-.58,.13-.09-1.09,.6-1.45,2.52-4.23,3.24-6.42,.41-1.25,1.41-3.79,1.41-3.79,0,0,.82-4.14,.59-4.26-1.18-.69-2.53,2-2.87,3.75-.77,1-1.75,3.73-1.75,3.73,0,0-3.18,5.04-3.88,4.63-.3-.18,1.3-3.54,2.36-7.01,.98-3.26,1.47-6.71,.87-6.99-1.01-.47-2.48,3-2.48,3,0,0-.9,2.51-1.26,3.32-.43,.98-1.92,3.69-1.92,3.69,0,0-5.58,9.36-6.21,8.9-.63-.47-1.75-2.35-1.59-3.04,.16-.69,1.09-1.86,1.25-2.53,.15-.7-.23-1.72-1.06-1.98-.82-.22-2.81,2.88-2.81,2.88,0,0-1.6,2.53-1.72,4.6Z" style="fill:#f9af79; fill-rule:evenodd;"/><path d="M1935,1084.32s-42.63,101.46-44.21,110.57c-1.15,6.71,.33,82.58,.33,82.58l-20.15-.31-7.08-86.71,26.53-109.36,44.58,3.23Z" style="fill:#20386f; fill-rule:evenodd;"/><polygon points="1953.75 1089.08 1934.33 1201.75 1947.01 1277.16 1924.06 1277.16 1906.02 1196.08 1903.54 1107.24 1912.85 1078.65 1953.75 1089.08" style="fill:#223f81; fill-rule:evenodd;"/><path d="M1898.07,955.33s-5.04,22.71-8.58,26.24c0,0,18.03,12.02,17.18,16.82-.84,4.75-19.95,93.94-19.95,93.94,0,0,39.37,20.51,63.85,17.23,0,0,18.44-101.62,23.2-106.38,4.77-4.76,19.59-12.31,19.59-12.31,0,0-11.07-21.27-11.07-25.06,0,0-26.29,12.25-30.73,16.66-4.44,4.45-13.04-1.16-15.11-2.06,0,0-35.22-23.14-38.38-25.08Z" style="fill:#6d96ce; fill-rule:evenodd;"/><path d="M1948.09,961.81l3.34,20.86s-8.75,14.56-15.75,12.4c-5.88-1.82-5.37-13.34-5.37-13.34,0,0,3.19-11.87,2.23-17.85-.96-5.94,15.55-2.06,15.55-2.06Z" style="fill:#f9af79; fill-rule:evenodd;"/><path d="M1932.55,963.87c-.96-5.94,15.55-2.06,15.55-2.06l.26,1.75c-.49,1.17-1.07,2.17-1.79,2.95-3.69,3.91-9.44,6.29-14.42,6.48,.49-3.23,.79-6.67,.4-9.12Z" style="fill:#ed7d57; fill-rule:evenodd;"/><path d="M1950.8,932.07c.46-.17,3.73,23.95-2.48,30.59-6.2,6.64-18.29,8.81-22.64,3.57-4.8-5.76-4.55-31.69,5.1-38.51,9.65-6.83,20.02,4.35,20.02,4.35Z" style="fill:#f9af79; fill-rule:evenodd;"/><path d="M1950.25,918.79c3.38,.41,9.29,5.1,14.06,12.93,5.83,9.62-1.51,21.42-8.31,26.65-6.81,5.19-6.66,11.27-6.66,11.27l-1.12-3.13c-.8-2.39-1.12-4.89-.85-7.36,.16-1.51,.48-3.1,1.1-4.45,1.64-3.48-3.52-5.79-4.96-8.7-1.12-2.23-1.17-7.37-2.92-11.06l-2.1-2.81s-5.91,.53-9.55-2.67c-10.44-9.17,5.51-21.29,21.32-10.68Z" style="fill:#20386f; fill-rule:evenodd;"/><path d="M1943.82,950.29c-.06,2.94,1.29,5.36,3,5.39,1.71,.03,3.13-2.33,3.18-5.27,.05-2.94-1.29-5.35-3-5.38-1.71-.04-3.13,2.32-3.18,5.26Z" style="fill:#f9af79; fill-rule:evenodd;"/><path d="M1936.08,948.59c.96,.22,2.54-3.38,.23-3.91-1.25-.28-1.79,3.54-.23,3.91Z" style="fill:#20386f; fill-rule:evenodd;"/><path d="M1925.59,946c-.95-.22-.87-4.15,1.46-3.62,1.24,.29,.12,3.99-1.46,3.62Z" style="fill:#20386f; fill-rule:evenodd;"/><path d="M1936.24,941.16c-1.55-.3-1.79,.98-.74,1.58,.3,.17,6.27,2.84,6.08,2.39-.35-.92-2.4-3.41-5.34-3.97Z" style="fill:#20386f; fill-rule:evenodd;"/><path d="M1929.3,938.99c1.55,.34,1.28,1.62,.08,1.76-.56,.06-6.93,.17-6.45-.27,.81-.73,3.54-2.11,6.37-1.49Z" style="fill:#20386f; fill-rule:evenodd;"/><path d="M1925.01,953.7c2.45,2.71,2.95,1.12,2.01,.76-3.12-1.2,.55-1.14,3.11-6.25,.26-.54-.35-.83-.63-.42-.18,.29-.76,1.41-.98,1.71-2.78,3.61-4.29,3.33-3.51,4.2Z" style="fill:#ed7d57; fill-rule:evenodd;"/><path d="M1925.41,958c2.07,4.19,5.41,1.57,8.03,1.51-6.75-1.88-8.47-2.62-8.03-1.51Z" style="fill:#fff; fill-rule:evenodd;"/><path d="M1277.24,956.99s-19.34-34.54-24.06-41.88c-4.7-7.35-16.98-36.53-17.41-37.67-.44-1.15,8.45-14.96,6.47-15.43-2-.47-4.18,7.28-6.3,6.36-2.12-.93-8.3-19.59-9.51-18.66-2.26,1.73,3.33,11.58,2.13,12.19-1.2,.62-4.84-10.83-7.2-10.5-2.37,.34,4.49,10.5,3.82,11.39-.66,.91-7.77-8.67-9.07-6.63-.69,1.11,6.55,8.35,5.16,9.04-1.38,.67-7.83-4.01-8.52-2.66-.68,1.34,5.96,3.2,7.95,6.84,1.99,3.63,5.36,5.21,6.77,11.94,1.41,6.73,3.5,31.11,10.7,43.26,7.19,12.16,23,39.07,23,39.07l16.06-6.66Z" style="fill:#f9af79; fill-rule:evenodd;"/><path d="M1363.01,1123.65s-1.57-1.96-2.05-2.65c-.55-.82-2.02-3.39-2.02-3.39,0,0-4.71-9.17-4.02-9.47,.71-.29,2.4,.84,2.89,1.3,.48,.46,1.11,.96,1.59,1.42,.49,.47,1.24,.48,1.86-.09,.62-.56-.92-2.83-1.62-3.52-2.16-2.12-9.06-6.61-9.77-7.12-.84-.6-6.09-18.03-8.36-23.85h0c-3.43-9.65-6.48-19.75-6.84-20.76l-2.16-43.79-16.36-5.46s1.72,48.64,2.07,51.06c.17,1.16,9.87,22.9,9.88,22.89,5.44,10.41,10.27,19.56,11.15,21.35,0,0,1.18,6.04,1.71,9.94,.53,3.89,2.59,7.26,2.9,8.34,.05,.16,.94,3.9,3.64,7.78,2.32,3.35,1.66-.91,1.66-.91,0,0-3.21-6.99-2.6-7.15,.46-.13,1.98,3.79,4.51,7.52,.65,.96,1.3,1.91,1.9,2.77,1.58,2.26,3.42,1.92,2.14-.72-.44-.93-1.23-2.46-1.94-3.47-.77-1.09-1.13-2.35-1.64-3.36-1-2.02-1.76-3.48-1.66-3.48,.15,0,.23-.55,.95,.45,.87,1.19,2.15,4.15,3.57,5.82,.8,.93,2.37,3,2.37,3,0,0,2.88,3.07,3.1,2.96,1.17-.67-.28-3.47-1.53-4.61-.42-1.13-2.12-3.27-2.12-3.27,0,0-2.47-5.1-1.76-5.47,.59-.3,8.87,10.72,9.99,9.98,.92-.62-1.43-4.05-1.43-4.05Z" style="fill:#f9af79; fill-rule:evenodd;"/><path d="M1333.74,953.04c.4-9.55-1-18.99-5.29-27.88-3.67-7.66-12.77-12-21.07-12.01-26.35-.04-29.7,34.78-46.47,48.21-5.12,4.1-10.85,7.45-15.69,11.87-17.92,16.34-9.84,46.59,6.59,60.91,11.42,9.96,29.34,15.59,43.42,7.82,7.33-4.05,12.9-10.8,16.88-18.19,5.63-10.49,9.27-22.58,13.28-33.76,4.26-11.89,7.83-24.27,8.35-36.97Z" style="fill:#20386f; fill-rule:evenodd;"/><path d="M1251.39,1260.6s-1.86,12.85-5.05,16.99c-1.07,1.39-3.03,3.14-4.32,5.66-2,3.92-.89,9.75,.58,12.95,.77,1.66-.05,1.66,1.67,2.19,5.11,1.57,10.54-1.08,12.72-5.97,1.22-2.73,2.28-6.36,2.5-10.95,.55-11.67,4.18-17.59,4.18-17.59l-12.28-3.28Z" style="fill:#f9af79; fill-rule:evenodd;"/><path d="M1307.26,1266.47s1.15,14.48,.22,19.2c-.5,2.53-3.27,7.7-2,10.08,1.27,2.38,2.73,2.96,2.73,2.96l32.98,.53c1.79,.04,.61-1.12-.84-2.18-2.38-1.74-4.29-2.89-11.86-6.55-.5-.24-2.29-1.38-2.93-1.78-1.65-1-3.3-2.58-4.72-4.16-2.38-2.62-2.58-15.38-2.58-15.38l-10.99-2.73Z" style="fill:#f9af79; fill-rule:evenodd;"/><path d="M1333.03,1073.86s4.15,23.53,1.43,38.96c-2.72,15.43-15.81,158.38-15.81,158.38l-14.55,.83s-3.05-59.73-2.5-68.03c.55-8.31,4.86-22.2,4.86-22.2l-1.45-48.22,18.36-63.34,9.66,3.62Z" style="fill:#20386f; fill-rule:evenodd;"/><path d="M1290.29,1068.92s-11.45,17.2-14.18,31.44c-2.73,14.23,2,57.98-3.26,76.64-2.84,10.1-13.6,25.69-15.23,38.75-1.63,13.05-8.06,47.23-8.06,47.23l14.55,2.88,33.78-85.38,26.5-77.18,6.79-39.74-40.9,5.35Z" style="fill:#223f81; fill-rule:evenodd;"/><path d="M1299.55,971.03s-15.15-.97-21.16,5.57c-6,6.51,13.32,58.15,14.41,66.45,1.09,8.31-5.57,30.4-5.57,30.4,0,0,35.61,7.15,45.8,.42,0,0,1.1-59.71,0-65.65-1.09-5.92-10.18-30.06-12.36-32.43-2.19-2.38-21.12-4.75-21.12-4.75Z" style="fill:#6d96ce; fill-rule:evenodd;"/><path d="M1304.6,950.82s-.08,.44-.22,1.19c-.67,3.64-3.27,15.71-5.03,19.03-2.12,4.01,7.27,16.8,16.32,15.23,2.7-.45-2.27-11.75-2.03-12.94,.45-2.28,1.07-5.4,1.71-8.61,.36-1.81,.71-3.64,1.06-5.37,.96-4.89,1.75-8.88,1.75-8.88l-13.56,.34Z" style="fill:#f9af79; fill-rule:evenodd;"/><path d="M1304.38,952.01c.14-.75,.22-1.19,.22-1.19l13.56-.34s-.79,3.99-1.75,8.88c-.34,1.71-.7,3.54-1.05,5.33-2.1-.3-4.29-1.31-6.48-3.24-2.39-2.09-3.96-4.6-4.91-7.28,.17-.86,.31-1.59,.42-2.16Z" style="fill:#ed7d57; fill-rule:evenodd;"/><path d="M1313.73,920.05s-6.39-.73-10.39,4.43c-4.01,5.18-8.33,21.16,1.63,29.87,9.95,8.69,19.78-1.15,21.23-11.58,1.46-10.43,2.03-23.08-12.47-22.71Z" style="fill:#f9af79; fill-rule:evenodd;"/><path d="M1329.16,942.61c-1.19,2.31-3.19,3.58-4.46,2.86-1.27-.73-1.33-3.2-.15-5.5,1.18-2.31,3.18-3.58,4.45-2.86,1.27,.73,1.34,3.19,.16,5.5Z" style="fill:#f9af79; fill-rule:evenodd;"/><path d="M1314.45,918.34s-8.54,15.22-14.65,15.91c-6.11,.71-6.92,8.79-6.92,8.79,0,0,2.19-18.63,8.24-22.21,6.04-3.59,13.33-2.49,13.33-2.49Z" style="fill:#20386f; fill-rule:evenodd;"/><path d="M1257.98,1289.86c-7.93,1.45-13.2-3.18-15.94-6.65-2.01,3.93-3,9.78-1.51,12.99,1.3,2.85,5.11,2.77,8.11,2.87,3.18,.12,5.63-1.64,7.2-4.4,.74-1.29,1.5-2.89,2.13-4.83Z" style="fill:#0e2952; fill-rule:evenodd;"/><path d="M1325.54,1288.74c-8.73,2.23-15.17,.71-18.78-.74-.93,2.64-2.17,5.94-1.51,7.84,.8,2.33,1.94,2.86,2.94,2.87,7.97,.22,29.19,.5,35.26,.58,.84,0,1.32-.98,.78-1.64-1.51-1.79-18.04-8.53-18.69-8.92Z" style="fill:#0e2952; fill-rule:evenodd;"/><path d="M1301.41,938.08c.5,2.7-.5,5.17-2.23,5.52-1.73,.37-3.54-1.54-4.04-4.24-.5-2.69,.5-5.18,2.24-5.53,1.72-.36,3.53,1.55,4.03,4.25Z" style="fill:#f9af79; fill-rule:evenodd;"/><path d="M1271.89,945.79s21.41,22.98,24.58,32.23c3.19,9.26-3.09,22.5-11.78,23.08-8.67,.58-28-40.77-28-40.77l15.2-14.54Z" style="fill:#466fb5; fill-rule:evenodd;"/><path d="M1318.71,931.75c.77,.9,3.46,.68,4.84,1.05,.7,.18,2.52,1.25,3.16,1.12,1.97-.42-4.15-4.15-7.68-3.34-.44,.1-.64,.79-.32,1.18Z" style="fill:#20386f; fill-rule:evenodd;"/><path d="M1311.3,929.42c-3.25-1.63-10.06,.66-8.24,1.52,.6,.28,2.61-.36,3.33-.38,1.44-.04,4.01,.78,4.96,.07,.39-.29,.41-.98-.04-1.21Z" style="fill:#20386f; fill-rule:evenodd;"/><path d="M1321.31,938.86c1.03,.14,2.34-3.62-.12-3.95-1.31-.18-1.52,3.72,.12,3.95Z" style="fill:#20386f; fill-rule:evenodd;"/><path d="M1306.2,936.96c-1.02-.14-1.28-4.11,1.18-3.77,1.32,.17,.48,4-1.18,3.77Z" style="fill:#20386f; fill-rule:evenodd;"/><path d="M1314.61,944.36c.16-.42-.56-.55-1.01-.72-1.62-.59-1.8,.22-.07-6.71,.34-1.36,.67-2.06,.18-2.17-.45-.09-.41,.47-.79,2.02-1.89,7.53-1.78,6.59,1.28,7.76,.17,.06,.34,0,.41-.17Z" style="fill:#ed7d57; fill-rule:evenodd;"/><path d="M1315.8,949.94c.36-.71-.45-.51-7.43-.92-2.02-.11,4.24,7.4,7.43,.92Z" style="fill:#fff; fill-rule:evenodd;"/><polygon points="1369.44 1522.22 1216 1522.22 1165.8 1323.81 1416.16 1323.81 1369.44 1522.22" style="fill:#b0c2e4; fill-rule:evenodd;"/><rect x="1149.06" y="1298.02" width="280.36" height="25.79" style="fill:#9db2d9;"/><polygon points="1290.98 1323.81 1165.8 1323.81 1216 1522.22 1290.98 1522.22 1290.98 1323.81" style="fill:#9db2d9; fill-rule:evenodd;"/><rect x="1149.06" y="1298.02" width="141.92" height="25.79" style="fill:#859ac6;"/><polygon points="1669.67 1522.22 1516.24 1522.22 1466.03 1323.81 1716.39 1323.81 1669.67 1522.22" style="fill:#b0c2e4; fill-rule:evenodd;"/><rect x="1449.29" y="1298.02" width="280.36" height="25.79" style="fill:#9db2d9;"/><polygon points="1591.21 1323.81 1466.03 1323.81 1516.24 1522.22 1591.21 1522.22 1591.21 1323.81" style="fill:#9db2d9; fill-rule:evenodd;"/><rect x="1449.29" y="1298.02" width="141.92" height="25.79" style="fill:#859ac6;"/><polygon points="1969.89 1522.22 1816.47 1522.22 1766.25 1323.81 2016.62 1323.81 1969.89 1522.22" style="fill:#b0c2e4; fill-rule:evenodd;"/><rect x="1749.52" y="1298.02" width="280.36" height="25.79" style="fill:#9db2d9;"/><polygon points="1891.44 1323.81 1766.25 1323.81 1816.47 1522.22 1891.44 1522.22 1891.44 1323.81" style="fill:#9db2d9; fill-rule:evenodd;"/><rect x="1749.52" y="1298.02" width="141.92" height="25.79" style="fill:#859ac6;"/></svg>