<?xml version="1.0" encoding="UTF-8"?><svg id="a" xmlns="http://www.w3.org/2000/svg" viewBox="0 0 1936.35 1498.32"><path d="M1722.39,279.2c-285.8-106.1-576.29-12.3-773.3,192.01-98.53,102.19-251.21,66.88-406.66,31.57-155.35-35.29-313.48-70.57-423.09,31.39-149.64,139.2-81.1,497.1,124.1,652.12,278.91,210.7,1317.93,217.03,1490.33,144.73,294.59-123.55,1.87-352.35,139.39-571.67,162.23-258.75-24.46-433.25-150.76-480.14Z" style="fill:#e9eff8; fill-rule:evenodd;"/><path d="M1456.46,491.05c26.26,24.78,38.2,54.48,35.78,89.08-62.11,42.31-94.23,81.92-96.35,118.85,72.97-64.95,127.81-64.78,152.48-24.9-18.21,22.04-30.95,98.11-26.55,133.12,7.77,61.84-9.07,117.33-55.8,138.19-10.72,24.01-21.98,36.67-33.77,37.97,11.31,69.28,20.84,139.6,28.58,210.95-7.89,4.06-19.2,3.63-25.21-.44-2.41-27.81-4.18-47.44-6-60.59-4.79-51.79-10.18-101.89-16.17-150.27-2.89-.34-5.75-.81-8.59-1.43-54.64-11.47-33.71-45.57-83.71-55.82-30.77-6.31-58.75-32.29-65.71-55.53,32.02-10.1,72.35-20.87,113.24-13.21-21.26-29.86-64.42-27.62-122.98-20.41-22.13-43-53.55-39.08-41.09-106.36,17.37-93.79-43.98-119.8-23.35-232.71,30.18-11.41,70.11-10.07,119.81,4.02-21.08-31.19-61.09-44.1-120.03-38.73,12.25-33.07,12.15-75.83,6.32-94.07,21.88-15.82,44.01-15.73,66.38,.26-10.01-17.16-22.96-26.96-38.88-29.41,.8-14.7,7.12-31.12,18.98-49.27,19.61,.46,41.34,4.8,65.19,13.04-10.87,7.16-14.38,20.04-10.55,38.65,13.07-15.37,32.38-20.51,57.93-15.4,5.39,67.04,64.79,94.24,65.8,123.11-34.99,30.81-55.47,64.41-61.46,100.8,35.64-30.57,70.87-50.4,105.68-59.5Z" style="fill:#bcc9e7; fill-rule:evenodd;"/><path d="M1460.84,1194.32c-7.74-71.35-17.27-141.67-28.58-210.95-40.34-261.65-110.81-531.91-172.13-645,81.83,192.87,138.34,457.84,169.51,794.92,1.81,13.16,3.58,32.78,6,60.59,6.01,4.07,17.31,4.51,25.21,.44Z" style="fill:#aab9de; fill-rule:evenodd;"/><path d="M1357.02,322.25c-25.36,32.37-33.74,67.83-25.14,106.38,77.14,37.06,120.04,76.21,128.7,117.43-93.21-60.72-154.92-51.2-175.92-2.09,24.26,21.73,51.54,105.21,52.54,145.37,1.77,70.95,30.16,130.57,86.33,146.1,16.16,25.21,30.98,37.54,44.48,37.01-.95,79.92,.28,160.72,3.7,242.38,9.58,3.23,22.23,.82,28.3-4.79-2-31.72-3.36-54.12-3.56-69.24-3.42-59.13-5.87-116.45-7.35-171.95,3.2-.88,6.35-1.9,9.43-3.07,59.57-22.21,30.21-57.04,84.76-77.09,33.57-12.34,60.65-46.35,64.53-73.69-37.78-5.92-85.01-11.19-129.75,4.39,18.85-37.24,67.83-42.06,134.99-43.9,17.6-52.18,53.65-53.1,28.17-126.75-35.5-102.65,29.16-142.36-13.29-265.98-35.91-7.71-80.65,.58-134.21,24.9,18.43-38.71,61.27-60.04,128.55-64.02-19.41-35.15-26.57-83.31-23.11-104.84-27.33-14.09-52.23-10.23-74.71,11.58,8.35-21.02,21.27-34.26,38.78-39.72-3.39-16.42-13.31-33.83-29.75-52.25-22,3.85-45.73,12.44-71.18,25.76,13.45,6.21,19.61,20.12,18.46,41.73-17.34-15.09-39.95-17.58-67.86-7.48,5.33,76.4-56.92,117.12-53.15,149.81,44.62,28.74,73.41,63.08,86.34,103.04-45.32-28.36-88.36-44.69-129.1-49.02Z" style="fill:#d0d9ee; fill-rule:evenodd;"/><path d="M1471.71,1114.83c-3.42-81.66-4.65-162.45-3.7-242.38,.92-301.46,34.29-617.74,84.1-755.5-59.33,231.07-77.88,539.03-55.66,923.86,.2,15.11,1.55,37.51,3.56,69.24-6.07,5.61-18.72,8.02-28.3,4.79Z" style="fill:#bcc9e7; fill-rule:evenodd;"/><path d="M1437.47,1162.9c112.22,0,203.2,20.46,203.2,45.72s-90.98,45.71-203.2,45.71-203.2-20.46-203.2-45.71,90.97-45.72,203.2-45.72Z" style="fill:#d0d9ee; fill-rule:evenodd;"/><path d="M1541.34,1029.47h-197.69c-8.88,0-16.14,7.27-16.14,16.14v45.38c0,8.88,7.26,16.14,16.14,16.14h197.69c8.87,0,16.13-7.26,16.13-16.14v-45.38c0-8.88-7.26-16.14-16.13-16.14Z" style="fill:#bcc9e7; fill-rule:evenodd;"/><polygon points="1539.57 1107.14 1345.42 1107.14 1364.47 1207.49 1520.51 1207.49 1539.57 1107.14" style="fill:#bcc9e7; fill-rule:evenodd;"/><polygon points="1345.42 1107.14 1539.57 1107.14 1536.12 1125.29 1348.86 1125.29 1345.42 1107.14" style="fill:#aab9de; fill-rule:evenodd;"/><path d="M18.52,1288.78c75.99-90.46,137.03-238.67,156.94-330.32C119.03,676.19,22.02,766.51,15.95,502.26,15.95,159.16,122.81,21.62,475.14,25.92c17.66,1.5,34.6,3.05,50.88,4.64h0l.11,.02c71.75,7,130.22,14.95,177.04,25.06,89.56,8.27,157.31,3.05,202.58-29.82V95.25c42.63-15.71,68.18-47.47,76.63-95.25,37.43,192.22,18.05,290.61-103.84,295.23,76.96,140.5,68.5,230.45,29.43,288.99,89.81,94.92,129.42,200.1,130.8,205.83-5.94,37.86-41.42,30.4-77.49,35.57-7.14,28.14,18.22,36.18,19.03,57.68,8.74,18.14-29.14,38.52-67.45,46.9,24.11,7.05,57.4,20.14,59.5,39.31-11.01,27.54-38.15,23.01-44.5,41.73,58.95,44.21,37.8,149.41-57.67,146.55-59.3-6.89-146.27-47.47-198.55-11.99-15.48,42.2,9.72,100.55-7.7,131.32-2.18,3.85-4.37,7.74-6.54,11.65H18.52Z" style="fill:#bcc9e7; fill-rule:evenodd;"/><polygon points="1107.3 83.61 1310.79 167.03 1254.92 238.39 1107.3 83.61" style="fill:#d0d9ee; fill-rule:evenodd;"/><polygon points="1339.5 133.4 1113.53 84.06 1394.83 104.62 1339.5 133.4" style="fill:#d0d9ee; fill-rule:evenodd;"/><polygon points="1339.5 133.4 1334.21 227.08 1310.79 167.03 1107.3 83.61 1113.53 84.06 1339.5 133.4" style="fill:#aab9de; fill-rule:evenodd;"/><polygon points="1334.21 227.08 1286.04 198.65 1310.79 167.03 1334.21 227.08" style="fill:#8d9fca; fill-rule:evenodd;"/><path d="M1386.53,220.15c-6.62-.83-5.12-10.47,1.02-9.7l9.74,1.06c6.52,.82,5.15,10.48-1.09,9.7l-9.67-1.05h0Zm333.64,387.95c4.33,0,6.48,5.3,3.53,8.24-.72,.86-2.18,1.52-3.53,1.52l-6.31-.03c-6.32,0-6.45-9.76,.09-9.76l6.22,.03h0Zm-35.25-.89c5.75,0,6.57,9.74-.54,9.74l-9.83-.61c-6.99-.88-5.06-10.46,.72-9.74l9.66,.6h0Zm-38.38-3.65c6.06,.76,5.22,10.49-1.47,9.65l1.47-9.65h0Zm-37.29-8.22c5.84,2.19,3.5,10.92-3.05,9.27-3.2-1.02-6.35-2.14-9.48-3.37-5.95-2.55-2.41-11.33,3.62-9.06,2.92,1.16,5.92,2.2,8.91,3.16h0Zm-33.11-16.66c5.08,4.23-1.34,11.59-6.13,7.59-2.76-2.26-5.3-4.6-7.69-7.25-4.34-5.2,3.42-11.14,7.32-6.46,2.01,2.24,4.19,4.2,6.5,6.12h0Zm-18.25-29.59c.87,6.95-8.9,7.48-9.62,1.66-.64-3.49-1.01-6.86-1.14-10.4,0-6.73,9.76-6.38,9.76-.23,.09,3.05,.46,5.98,1.01,8.97h0Zm2.62-36.49c-1.49,5.94-11.04,3.94-9.41-2.59,.87-3.19,1.8-6.5,2.89-9.62,2.4-6.39,11.36-2.53,9.24,3.13-1.01,2.98-1.91,6.03-2.72,9.07h0Zm13.46-35.75c-2.41,5.63-11.53,2.13-8.87-4.07,1.37-2.98,2.78-5.98,4.24-8.93,3.57-6.26,11.58-.63,8.77,4.3-1.42,2.87-2.79,5.8-4.14,8.7h0Zm17.41-34.62c-3.38,5.92-11.61,.68-8.62-4.57l4.58-8.63c3.38-5.91,11.63-.68,8.62,4.58-1.57,2.8-3.08,5.76-4.58,8.61h0Zm18.18-34.68c-3.52,6.17-11.58,.64-8.73-4.36l4.27-8.69c3.33-5.83,11.28-1.58,8.8,4.21l-4.34,8.84h0Zm15.84-36.43c-2.19,5.84-10.91,3.5-9.28-3.04,.99-3.01,1.88-5.96,2.67-9.03,1.55-6.21,11.03-3.88,9.47,2.39-.85,3.29-1.8,6.46-2.87,9.68h0Zm4.89-40.52c.8,6.38-8.88,7.59-9.68,1.21-.36-3.02-.91-6.05-1.65-8.99-1.58-6.32,7.91-8.58,9.45-2.42,.84,3.37,1.48,6.75,1.88,10.2h0Zm-15.01-38.22c3.81,5.33-4.22,10.89-7.89,5.75-1.81-2.52-3.71-4.9-5.78-7.21-4.44-5.31,3.43-11.11,7.24-6.55,2.28,2.48,4.45,5.27,6.43,8h0Zm-29.47-27.82c5.04,3.6,.45,11.47-5.45,8.1-2.62-1.78-5.28-3.46-8.01-5.08-5.41-3.09-.78-11.68,4.98-8.39,2.88,1.71,5.7,3.49,8.47,5.37h0Zm-35.27-18.72c6,2.57,2.05,11.49-3.77,9-2.94-1.25-5.92-2.42-8.91-3.56-5.97-2.24-2.61-11.4,3.47-9.12,3.09,1.18,6.17,2.39,9.21,3.68h0Zm-37.39-13.02c5.85,1.46,3.95,11.04-2.67,9.39l-9.31-2.57c-6.09-1.52-3.91-11.04,2.48-9.44l9.51,2.62h0Zm-38.27-9.35c6.74,1.68,3.77,10.99-1.96,9.56l-9.51-1.89c-6.21-1.55-4.74-10.41,1.83-9.59l9.64,1.92h0Zm-38.69-6.87c6.07,.76,5.22,10.49-1.45,9.65l-9.61-1.4c-6.17-.77-5.23-10.49,1.35-9.67l9.7,1.42Z" style="fill:#8d9fca; fill-rule:evenodd;"/><path d="M944.28,1362.52c521.5,0,944.27,30.4,944.27,67.9s-422.77,67.9-944.27,67.9S0,1467.93,0,1430.42s422.76-67.9,944.28-67.9Z" style="fill:#d0d9ee; fill-rule:evenodd;"/><path d="M1496.16,861.58c9.54,6.06,8.24,7.59,9.51,8.31,1.47,.88,23.47-.98,23.47-.98,0,0,64.94-5.01,68.44-5.43l58.79-35.22,24.67,27.6s-64.94,36.44-68.62,37.67c-3.74,1.26-92.4-3.29-100.21-3.42,0,0-9.34,3.68-15.24,5.76-5.91,2.08-12.43,1.15-14.16,1.43-.26,.05-6.17,.68-13.64-.69-6.45-1.17,.1-3.3,.1-3.3,0,0,12.25-.17,12.05-1.24-.14-.84-6.81-.3-13.94-1.54-1.86-.29-3.67-.61-5.33-.93-4.37-.79-5.23-3.97-.55-3.93,1.67-.01,4.42,.08,6.36,.46,2.12,.4,4.15,.04,5.94,.09,3.63,.06,6.25,.18,6.17,0-.12-.21,.6-.76-1.34-1.15-2.34-.48-7.48-.28-10.84-1.31-1.95-.55-6.03-1.45-6.03-1.45,0,0-5.91-2.69-5.91-3.11,.1-2.35,4.57-1.78,7.11-.64,1.92-.17,6.17,.94,6.17,.94,0,0,9.05,.08,9.07-1.34,0-.6-5.58-1.38-10.92-3.1-4.94-1.6-9.76-4.09-9.63-5.22,.2-1.91,5.9-.81,5.9-.81,0,0,3.9,1.05,5.24,1.26,1.54,.29,6.3,.66,6.3,.66,0,0,16.45,.59,16.33-.72-.08-1.36-1.57-4.72-2.57-5.16-1-.44-3.24-.13-4.24-.57-1.04-.4-2.03-1.93-1.69-3.33,.34-1.4,5.96-1.43,5.96-1.43,0,0,4.53,.05,7.27,1.82Z" style="fill:#f4ae7c; fill-rule:evenodd;"/><path d="M1643.54,1384.14l1.17,25.08c.49,3.24,2.46,11.11,2.43,13.98-.11,10.86-48.24-9.71-37.36-14.41,.99-.43,6.16-3.67,6.52-7.38,.56-5.68,1.93-17.15,1.93-17.15l25.3-.12Z" style="fill:#f4ae7c; fill-rule:evenodd;"/><path d="M1609.91,1408.68s11.32,3.48,17.12,4.33c5.79,.91,13.53-5.98,17.63-4.09,4.5,2.14,3.83,22.58,3.83,22.58,0,0-60.61,2.99-77.66-2.75-6.76-2.2,15.81-12.57,39.08-20.08Z" style="fill:#142d4d; fill-rule:evenodd;"/><path d="M1749.99,1387.62l1.17,25.15c.49,3.17,2.46,11.05,2.43,13.98-.11,10.87-48.23-9.77-37.35-14.47,.99-.43,7.7-6.1,8.07-9.76,.56-5.74,.39-14.77,.39-14.77l25.3-.12Z" style="fill:#f4ae7c; fill-rule:evenodd;"/><path d="M1716.36,1412.15s11.32,3.48,17.12,4.39c5.81,.85,13.54-6.04,17.63-4.15,4.51,2.13,4.5,20.87,4.5,20.87,0,0-64.8,4.03-79.98-.55-6.83-2.02,17.47-13,40.74-20.57Z" style="fill:#142d4d; fill-rule:evenodd;"/><path d="M1677.12,1025.21l-20.53,8.6-45.08,204.83,.16,153.92,34.45,1.1s17.41-134.39,17.52-144.83c.11-10.43,76.09-181.82,76.09-181.82l-62.61-41.8Z" style="fill:#142d4d; fill-rule:evenodd;"/><path d="M1692.77,1036.68s13.44,158.26,13.17,184.93c-.28,26.68,10.4,176.02,10.4,176.02l34.54,.12s2.97-45.41,7.35-112.31c.69-10.49-.43-31.61,.44-42.48,6.17-77.93,17.54-151.3,12.78-180.47-.77-4.7-2.18-16.97-5.14-20.08-22.38-23.62-73.52-5.74-73.52-5.74Z" style="fill:#0f3970; fill-rule:evenodd;"/><path d="M1613.5,849.76l35.92,35.1s27.14-19.42,40.53-31.17c16.24-14.26,40.6-39.58,38.47-41.14-6.07-4.29-19.26-9.32-29.19-8.32-34.21,3.35-85.74,45.53-85.74,45.53Z" style="fill:#406fb5; fill-rule:evenodd;"/><path d="M1752.08,800.72s23.81,3.61,30.03,8.24c7,5.25,14.72,16.96,14.72,16.96,0,0-30.67,138-30.96,161.31-.23,17.94,5.7,62.25,5.7,62.25,0,0-88.48,4.7-121.83-8.91,0,0,11.11-52.43,11.26-66.28,.14-13.79,14.08-139.22,17.05-147.95,2.69-7.93,7.62-22.15,23.81-25.57,16.19-3.36,50.23-.07,50.23-.07Z" style="fill:#6998d0; fill-rule:evenodd;"/><path d="M1745.95,763.44l5.5,38.7s-22.01,45.77-34.83,41.62c-10.75-3.42-3.7-44.07-3.7-44.07,0,0,6.11-21.79,4.45-32.77-1.65-10.92,28.58-3.48,28.58-3.48Z" style="fill:#f4ae7c; fill-rule:evenodd;"/><path d="M1717.37,766.92c-1.65-10.92,28.58-3.48,28.58-3.48l.45,3.23c-.9,2.14-2,3.91-3.33,5.31-6.84,7.2-17.47,11.41-26.63,11.65,.98-5.85,1.61-12.21,.93-16.72Z" style="fill:#ec724c; fill-rule:evenodd;"/><path d="M1751.48,708.88c.87-.31,6.42,44.06-5.11,56.09-11.52,12.09-33.78,15.87-41.66,6.17-8.7-10.68-7.77-58.29,10.08-70.68,17.86-12.33,36.69,8.42,36.69,8.42Z" style="fill:#f4ae7c; fill-rule:evenodd;"/><path d="M1721.8,676.65c13.67,2.87,22.46,11.29,25.69,14.89,6.22,.79,14.64,4.27,23.22,18.74,10.56,17.76,2.43,37.23-10.17,46.75-12.6,9.47-12.56,20.63-12.56,20.63l-1.9-5.85c-1.41-4.34-1.96-8.97-1.42-13.49,.31-2.74,.93-5.74,2.11-8.11,3.07-6.41-6.35-10.74-8.96-16.11-1.99-4.15-2-13.55-5.15-20.32l-3.8-5.25s-8.8-6.96-17.5-5.13c-8.69,1.89-7.12-30.51,10.43-26.73Z" style="fill:#0f3970; fill-rule:evenodd;"/><path d="M1738.3,742.2c-.14,5.37,2.29,9.82,5.42,9.95,3.14,.07,5.81-4.27,5.95-9.64,.14-5.43-2.28-9.89-5.42-9.95-3.14-.06-5.8,4.21-5.95,9.64Z" style="fill:#f3a992; fill-rule:evenodd;"/><path d="M1372.29,649.2c-2.34-.23-4.05-2.32-3.81-4.66,.24-2.34,2.33-4.04,4.66-3.81,75.87,7.59,141.07,40.72,190.5,87.76-37.64-41.09-90.58-76.19-161.44-100.6-12.03-4.15-23.94-7.46-35.67-10-71.66,3.73-139.66,50.94-190.03,116.75-27.13,35.44-49.14,76.25-63.86,118.58-14.71,42.25-22.15,86-20.18,127.38,.88,18.66,3.7,36.84,8.62,54.2,2.38,4.31,4.89,8.61,7.54,12.91,32.93,29.36,72.79,55.71,122.03,77.67,34.79,15.51,71.03,26.97,107.97,35.02,13.53,2.94,27.15,5.43,40.82,7.48,42.06,2.69,82.61-.81,117.86-11.18,18.12-5.33,34.83-12.47,49.56-21.49,7.62-4.66,14.93-9.37,21.96-14.12,10.66-13.3,20.29-27.61,28.75-42.71,29.62-52.9,44.88-115.41,40.41-177.7-2.27-31.53-9.62-63.01-22.74-93.16-3.78-6.54-7.81-12.95-12.06-19.24-49.61-73.3-130.72-129.06-230.88-139.08h0Zm250.74,154.82c-33.02-75.95-101.6-143.59-216.28-183.56,4.03,.74,8.08,1.62,12.12,2.66,48.97,12.63,94.54,31.86,134.39,55.98,30.54,26.8,58.74,62.23,83.12,107.47,24.36,45.22,34.27,95.31,32.48,144.08-.49,13.02-1.8,25.97-3.9,38.68,1.44-29.76-2.12-59.94-10.14-89.33-7.15-26.23-17.88-51.84-31.79-75.99h0Zm23.59,78.25c8.97,32.86,12.18,66.72,8.87,99.8-3.17,31.71-12.36,62.73-28.26,91.47l-1.39,2.3c-10.5,9.9-22.09,19.69-34.8,29.33,4.93-7.33,9.58-14.89,13.93-22.66,30.41-54.3,46.08-118.49,41.49-182.45-.76-10.55-2.06-21.1-3.95-31.59,1.48,4.57,2.86,9.17,4.12,13.78h0Zm-13.72,198.6c-18.55,32.38-45.42,61.85-81.57,86.32-20.58,13.93-41.31,24.25-61.98,31.61-4.77,2.54-9.63,4.93-14.57,7.15-72.79,32.77-161.91,29.99-254.17-32.31-61.56-24.08-99.97-64.79-119.92-113.7-12.76-12.91-24.02-26.77-33.45-41.52-157.28-176.95-183.24-292.95-280.22-477.55-9.38,17.42-21.04,35.18-34.54,52.31,5.42,19.72,3.96,40.66-3.48,60.11-7.41,19.37-20.74,37.28-39.11,51.04-4.85,3.64-10.06,6.98-15.6,9.99-2.24,6.14-5.17,11.91-8.69,17.27-12.35,18.77-32.03,32.3-55.47,37.85-39.56,9.37-89.89-3.96-133.5-53.29-6.62-7.48-9.85-15.44-10.48-23.62-2.87-1.39-5.64-2.78-8.31-4.19,14.68,23.96,21.2,45.35,15.05,59.29-11.71,26.59-24.8,42.13-38.24,49.37-12.06,6.49-24.32,6.41-36.1,1.6-11.29-4.6-22.05-13.58-31.71-25.18-9.1-10.94-17.28-24.28-24.03-38.49-68.56-6.33-160.12-20.31-169.05-96.73-17.06-6.66-33.53-14.98-48.28-24.27-17.47-11-32.55-23.39-43.41-36.09-18.61-21.77-25-44.54-10.59-63.35,6.17-8.06,12.21-15.53,18.15-22.4-2.46-14.26-1.07-29.3,4.95-44.92-10.67-62.47,4.37-121.36,53.13-151.99,2.95-1.86,5.91-3.61,8.85-5.26,18.96-38.65,44.17-72.16,72.59-90.67,1.19-1.66,2.39-3.29,3.62-4.9,35-45.56,88.89-65.89,146.24-69.27,56.91-3.34,117.3,10.06,165.84,32.05,5.56,2.52,10.96,5.15,16.19,7.88,5.21-3.69,10.64-7.38,16.3-11.09,3.25-2.12,6.53-3.86,9.82-5.24,22.9-9.57,46.6-2.08,68.23,13.48,20.96,15.09,39.98,37.83,54.22,59.62,8.92,13.64,16,26.94,20.53,37.79,23.3,55.72,28.27,101.81,22,139.11-.08,2.9-.23,5.78-.43,8.65,9.11,.98,16.61,3.64,22.6,7.71,21.4,14.55,23.33,46.27,11.06,83.78-3.43,10.51-8,21.51-13.55,32.73,94.57,175.43,137.54,309.98,256.52,449.82-1.99-5.12-3.77-10.33-5.33-15.62-16.96-57.64-13.88-117.16,4.63-170.89,14.61-42.39,38.85-81.22,70.45-112.68,31.64-31.48,70.64-55.61,114.77-68.59,33.39-9.82,69.68-13.26,107.9-8.7,2.69-.34,5.38-.65,8.09-.92,71.4-7.12,145.67,12.2,209.8,68.42,26.61,16.19,50.71,34.53,71.61,54.54,41.05,39.28,69.87,85.01,81.35,133.49,11.54,48.67,5.64,100.02-22.8,150.33-13.43,23.74-31.88,47.23-55.92,70.08h0Zm-204.77,131.78c-18.56,1.96-36.87,2.01-54.75,.64-38.72-2.95-75.39-12.51-108.29-23.48,57.77,28.65,113.29,34.09,163.04,22.84h0Zm-54.09-7.84c-55.48-4.23-106.98-22.42-148.89-38.53l-.52-.2c-16.03-10.87-32.15-23.57-48.31-38.26-10.65-9.67-20.42-19.48-29.38-29.39,33.57,23.18,72.37,41.68,113.01,54.91,38.74,12.6,79.2,20.43,118.43,22.98,26.99,4.05,54.2,6.46,81.35,7.46,15.78,.58,31.01-.97,45.6-4.38-6.3,4.16-12.78,8.02-19.41,11.58-38.05,13.45-75.86,16.58-111.89,13.84h0Zm-288.18-202.06c-25.22-63.16-23.27-126.58-2.63-183.41,19.93-54.87,57.21-103.66,104.21-140.21,40.32-31.36,87.75-53.68,137.47-63.08-58.77,15.99-113.05,58.36-155.18,113.4-27.66,36.14-50.1,77.77-65.13,120.96-15.05,43.26-22.67,88.11-20.65,130.61,.35,7.32,.99,14.57,1.92,21.73h0Zm32.71,74.67c14.42,19.23,31.67,38.18,52.01,56.66,4.46,4.06,8.92,7.96,13.37,11.72-29.08-18.33-50.56-41.71-65.39-68.38h0Zm301.31-462.8c27.45,4.54,54.69,13.6,80.96,27.8-25.27-11.07-52.02-20.34-79.84-27.52l-1.12-.28h0Zm204.48,118.49c39.91,38.19,67.88,82.49,78.98,129.32,11.05,46.62,5.37,95.87-21.93,144.14-8.9,15.74-20.09,31.37-33.75,46.79,17.6-37.11,28.1-79.25,29.69-122.38,1.86-50.25-8.36-101.86-33.47-148.47-16.36-30.34-34.41-56.37-53.72-78.45,12.18,9.2,23.62,18.9,34.2,29.04h0Zm-19.47,372.06c-14.61,17.61-31.36,32.63-49.87,44.21,6.86-6.97,13.4-14.31,19.61-21.99,10.75-7.31,20.83-14.71,30.26-22.22h0Zm-56.97,39.29c-6.82,6.86-13.96,13.33-21.39,19.38-20.65,8.18-42.94,12.31-66.46,11.45-3.5-.13-7.01-.29-10.52-.46,17.53-2.02,34.35-5.32,50.15-9.97,17.44-5.13,33.65-11.9,48.22-20.4h0Zm-475.72-134.1c-9.04-14.76-16.17-30.44-21.03-46.97-16.43-55.86-13.44-113.57,4.53-165.7,14.19-41.19,37.73-78.9,68.4-109.43,30.65-30.51,68.44-53.89,111.17-66.46,22.36-6.57,46.09-10.19,70.87-10.33-44.78,11.17-87.25,32.43-123.96,60.97-48.19,37.49-86.47,87.6-106.95,144-23.72,65.32-23.62,139.01,12.44,211.27-4.86-4.97-9.54-10.01-14.07-15.11l-1.4-2.25h0Zm-290.06-478.48c-9.69-17.52-20.4-34.13-32.57-49.58-7.13,11.52-15.92,21.24-26.35,28.39-9.01,6.18-24.38,7.72-43.19,5.2-6.68,2.87-13.31,5.17-19.76,6.92,18.11-2.89,36.77,3.03,59.47,21.47,14,11.37,23.69,24.83,29.46,39.24,13.01-17.01,24.14-34.56,32.93-51.63h0Zm-38.24-56.58c-1.27-1.52-2.55-3.02-3.86-4.52-10.75,13.21-23.19,23.95-36.18,32.37-3.27,2.12-6.58,4.1-9.9,5.92,10.43,.16,18.87-1.57,24.45-5.4,10.2-7,18.71-16.74,25.48-28.38h0Zm-9.64-10.92c-10.94-11.8-22.97-22.75-36.35-32.72-3.59,1.07-7.59,2.2-11.87,3.41l-8.02,2.28c-.63,18.7-6.46,36.48-16.18,51.53-2.89,4.47-6.13,8.71-9.67,12.65,9.04,2.75,17.66,4.8,25.61,6.05,7.16-3.15,14.38-7,21.42-11.57,12.63-8.19,24.72-18.69,35.06-31.64h0Zm-45.17-39.02c-4-2.74-8.14-5.38-12.38-7.94,.61,3.72,1.01,7.42,1.21,11.11l11.17-3.16h0Zm-22.22-13.63c-3.5-1.92-7.08-3.8-10.75-5.61-1.72,2.47-3.51,4.92-5.36,7.34-4.4,5.74-9.22,11.33-14.44,16.74,1.6,3.42,3.08,6.82,4.45,10.21,9.6-3.62,19.49-6.73,28.76-9.46-.21-6.34-1.08-12.78-2.67-19.22h0Zm-18.55-9.3c-11.52-5.27-23.8-9.99-36.96-14.12l2.85,3.99c6.82,9.76,12.92,19.77,18.1,29.76,4.19-4.49,8.09-9.1,11.71-13.81,1.48-1.92,2.91-3.87,4.29-5.82h0Zm-50.63-18.1l-.78-.22c.63,4.42,1.2,8.81,1.71,13.2l2.18,2.34c8.3,9.1,16.07,19.77,22.6,31.38l2.66-2.57c-5.27-10.45-11.62-20.98-18.81-31.26-3.05-4.35-6.23-8.65-9.55-12.88h0Zm-9.71-2.51c-2.63-.64-5.31-1.26-8.02-1.86l-1.95-.43c3.61,2.45,7.24,5.27,10.84,8.4l-.87-6.11h0Zm-6.17-10.15l4.77,1.1-.35-2.16c-9.02-10.16-18.75-19.7-28.89-28.24-4.61-3.89-9.31-7.56-14.07-11-7.71,3.6-15.37,8.5-22.79,14.42-.65,2.43-1.37,4.82-2.16,7.16,19.83,7.05,40.79,13.7,63.5,18.72h0Zm20.83,5.2c18.33,5.09,35.11,11.23,50.52,18.33,1.53-2.41,2.99-4.85,4.38-7.29-11.71-21.46-32.48-41.9-64.56-58.23-2.1-1.07-4.23-1.96-6.38-2.68,2.81,13.34,5.41,26.63,7.63,39.82,2.88,3.3,5.69,6.66,8.42,10.06h0Zm58.24,22.02l2.3,1.16-1.19-2.94-1.1,1.79h0Zm13.23,6.99c9.04,5.09,17.58,10.53,25.63,16.32,2.35-.75,4.42-1.45,6.13-2.11,22.41-8.73,40.94-12.82,55.91-13.11,.71-3.04,1.33-6.14,1.87-9.31l.06-3.3c.23-25.11-4.08-50.88-13.03-73.9-8.88-22.84-22.32-42.95-40.44-56.96-12.12-9.37-26.38-16.02-42.82-18.94,14.01,25.49,19.9,52.97,18.1,80.28-1.42,21.51-7.61,42.91-18.34,63.15,2.91,5.92,5.21,11.9,6.93,17.89h0Zm33.85,22.5c11.48,8.94,21.96,18.6,31.6,28.89,1.59-2.26,3.12-4.59,4.59-6.99,6.35-10.33,11.62-21.91,15.41-34.81-13.45,.64-30.21,4.59-50.61,12.53l-.99,.37h0Zm37.47,35.34l2.85,3.29c3.12-6.49,5.78-13.45,7.96-20.75-1.54,2.92-3.16,5.75-4.85,8.5-1.9,3.09-3.89,6.08-5.97,8.96h0Zm8.75,10.39c12.15,15.09,22.86,31.3,32.56,48.38,4.22-8.99,7.76-17.8,10.52-26.28,11.08-33.84,10.04-61.97-7.77-74.08-4.88-3.31-11.03-5.5-18.56-6.35-2.35,21.22-7.96,41.33-16.75,58.33h0Zm-214.14-104.9c-8.48-2.66-16.71-5.46-24.77-8.32-2.78,6.49-6.15,12.6-10.08,18.34-2.15,3.15-4.48,6.19-6.96,9.11l1.02,1.74c13.72-7.99,26.44-14.65,37.32-19.6,1.13-.51,2.29-.94,3.48-1.28h0Zm-32.79-11.22l-.26-.09c-5.37,5.39-10.53,11.25-15.4,17.48,.74,1.62,1.49,3.24,2.29,4.83,1.51-1.89,2.93-3.83,4.29-5.81,3.51-5.14,6.55-10.6,9.07-16.41h0Zm-8.99-3.32l-15.41-5.78c1.25,5.94,2.95,11.77,5.05,17.49,3.33-4.08,6.8-7.99,10.36-11.71h0Zm-10.94-13.17c5.78,2.18,11.62,4.38,17.57,6.58,2.02-1.91,4.06-3.75,6.14-5.52l1.87-1.58c1.95-8.11,3.05-16.78,3.26-26.06-5.58-2.73-11.17-5.06-16.72-6.92-5.74-1.92-11.43-3.35-17.05-4.21-2.28,12.07-2.57,23.82-1.2,35.17l.04,.25,6.09,2.29h0Zm-13.78,3.89c-13.48-5.04-26.61-9.79-39.65-13.77-.91,1.2-1.78,2.41-2.61,3.63,6.57,17.29,11.48,33.45,14.9,48.49,3.2,2.42,6.6,4.73,10.25,6.91,.99,.6,1.52,.85,1.85,.87,.42,.03,1.25-.2,2.52-.55,2.25-.63,4.6,.69,5.23,2.95,.63,2.26-.69,4.6-2.95,5.23-2.15,.59-3.56,.97-5.33,.86-1.85-.11-3.47-.71-5.72-2.06-1.15-.69-2.27-1.39-3.38-2.1,1.15,6.3,2.03,12.4,2.65,18.28,3.22-1.7,6.33-3.47,9.33-5.3l1.4-2.82c5.66-11.11,12.34-21.87,19.76-31.85-3.81-9.28-6.62-18.89-8.27-28.79h0Zm-54.45-17.94l-2.89-.72c-1.81,1.39-3.59,2.78-5.32,4.16,1.3,5.17,3.01,10.25,5.19,15.2,1.53-4.04,3.46-7.97,5.76-11.81-.89-2.26-1.79-4.53-2.74-6.83h0Zm-18.46-4.02c-15.29-2.7-30.72-3.75-46.71-2.39,7.67,9.45,14.51,19.98,20.4,31.39,7.73-8.06,16.73-16.34,27.04-24.8-.27-1.39-.52-2.8-.74-4.2h0Zm-56.82-1.21c-3.49,.52-7,1.15-10.56,1.92-7.75,1.67-14.87,3.13-21.7,4.53-8.05,1.65-15.68,3.22-22.88,4.83,18.5,4.08,33.72,13.85,44.26,27.06,6.54,8.2,11.27,17.71,13.88,28.01,5.22-9.42,12.27-19.26,21.34-29.47-6.19-12.48-13.52-23.88-21.86-33.94l-2.49-2.94h0Zm-12.34-6.4c1.8-.39,3.59-.75,5.37-1.07-16.29-16.34-35.63-28.05-57.03-33.62-6.6-1.72-13.39-2.86-20.37-3.37-8.36,20.23-14.35,39.37-18.27,57.36,6.8-1.78,13.39-2.9,19.75-3.41,14.16-4.24,30.52-7.6,48.93-11.38,7.02-1.44,14.35-2.94,21.62-4.51h0Zm15.65-2.64c18.14-2.22,35.44-1.41,52.46,1.41-.72-9.16-.38-18.41,.88-27.54-1.61-3.16-3.27-6.36-4.98-9.59-27.12-51.18-55.56-76.31-83.03-83.12-17.1,16.34-33.12,39.15-46.97,69.52l-2.53,5.66c6.48,.63,12.81,1.76,18.98,3.37,24.83,6.47,46.99,20.57,65.17,40.29h0Zm61.18,3.02c1.98,.41,3.96,.84,5.94,1.29l.47-.36c-2.18-4.99-4.5-10.07-6.95-15.24-.11,4.78,.05,9.56,.54,14.3h0Zm16.99,4.06l5.61,1.57c4.43-5.12,9.59-10.01,15.41-14.71-4.41,1.73-8.66,4-12.74,6.85-2.88,2.02-5.68,4.02-8.4,6l.12,.28h0Zm14.58,4.29c10.71,3.38,21.48,7.24,32.47,11.32-.94-10.71-.49-21.72,1.56-32.98-2.41-.12-4.8-.13-7.17-.02-10.62,6.78-19.64,13.98-26.85,21.68h0Zm-176.57,15.51c-9.45,2.96-17.84,6.4-25.08,10.78-2.82,18-3.53,34.76-2.46,50.24,1.65,2.34,3.4,4.6,5.26,6.76,15.03,17.56,36.69,29.46,64.4,34.03,8.05,1.33,16.61,2.04,25.66,2.1,1.62-3.06,3.02-6.12,4.22-9.19-.27-2.87-.33-5.82-.18-8.84,.37-7.52,2.09-15.48,5.31-23.82-1.01-13.55-5.99-26.07-14.12-36.26-10.38-13.02-25.94-22.28-44.97-25.09-5.72-.84-11.74-1.11-18.04-.72h0Zm-34.65,17.75c-3.11,2.73-5.92,5.76-8.43,9.14,1.7,6.52,3.88,12.7,6.56,18.51,.07-8.87,.68-18.09,1.87-27.65h0Zm-14.38,19.03c-6.41,13.31-9.51,31.02-9.04,55.28,8.84-.53,17.86,.25,27.18,2.34-2.41-9.57-4.1-19.73-4.96-30.48-5.51-8.19-9.92-17.28-13.17-27.13h0Zm-8.75,63.77c.64,13.08,2.21,27.9,4.73,44.75,1.6,10.69,3.89,21.08,6.8,31.13,12.47-1.34,26.83-5.46,43.27-12.85,2.28-1.03,4.51-2.08,6.69-3.14-2.51-2.78-4.96-5.69-7.3-8.74-10.36-13.45-18.88-29.46-24.65-47.9-10.25-2.75-20.03-3.84-29.54-3.25h0Zm-3.7,46.01c-2.51-16.83-4.13-31.75-4.88-45.02l-1.67,.3c-14.77,2.85-29.15,9.92-43.79,21.2,1.52,7.82,3.71,15.05,6.61,21.51,8.97,19.97,25.19,32.43,50.23,32.37-2.76-9.82-4.95-19.95-6.51-30.37h0Zm-5.24-53.56c-.93-32.43,3.92-54.17,14.11-69.43-.44-2.02-.83-4.07-1.18-6.15-18.98,10.89-39.01,27.26-59.32,50.33-1.76,16.32-1.9,31.84-.2,45.81,14.45-10.5,28.81-17.18,43.66-20.05,.97-.19,1.95-.36,2.92-.51h0Zm21.13-78.13c1.27-1.31,2.59-2.55,3.96-3.75-1.4,.65-2.81,1.33-4.22,2.03l.26,1.71h0Zm1.95,169.96c1.93,5.82,4.07,11.51,6.41,17.08,1.92-1.21,3.91-2.3,5.97-3.25,20.51-9.55,47.01-6.46,75.29,4.67,5.64,2.22,11.36,4.77,17.12,7.59,1.53-3.77,3.34-7.6,5.42-11.46-20.16-5.39-39.92-16.35-56.65-32.59-3.03,1.53-6.15,3.02-9.39,4.47-16.56,7.44-31.24,11.79-44.17,13.49h0Zm9.9,24.98c8.93,19.22,20.28,36.78,33.5,52.37,24.22,6.74,49.77,11.38,75.3,13.61-17.12-13.64-22.13-30.79-18.47-49.8,.44-2.31,1.01-4.64,1.71-7-5.86-2.9-11.67-5.5-17.4-7.75-26.19-10.3-50.39-13.33-68.55-4.87-2.11,.98-4.14,2.13-6.09,3.43h0Zm43.97,63.9c5.57,5.74,11.42,11.16,17.5,16.25,5.04,4.21,10.23,8.18,15.56,11.92,11.3-3.59,21.17-9.39,28.93-17.81-20.92-1.93-41.83-5.44-61.98-10.35h0Zm12.02,22.77c-9.72-8.12-18.86-17.09-27.28-26.81-2.75-.78-5.48-1.59-8.18-2.43-15.69-4.85-30.75-10.57-44.79-17.07-.59,2.58-1.13,5.26-1.58,8.07,9.57,9.48,19.84,18.26,30.75,26.14,11.71,8.47,24.17,15.9,37.3,22.07,8.37,.12,16.44-.47,24.03-1.89-3.48-2.59-6.89-5.29-10.24-8.09h0Zm-36.87-38.59c-9.95-13.04-18.67-27.26-25.92-42.5-6.39,6.34-11.56,15.06-15.21,26.48,12.89,6.05,26.71,11.41,41.12,16.03h0Zm-29.64-50.72c-3.01-7-5.72-14.2-8.1-21.58-30.25,1.22-49.8-13.48-60.6-37.52-2.61-5.8-4.67-12.17-6.24-19-4.14,3.56-8.31,7.46-12.53,11.69,8.1,25.19,20.21,50.21,35.76,73.36,1.93,2.87,3.91,5.72,5.94,8.53,8.21,5.51,17.1,10.67,26.56,15.45,4.5-13.55,11.04-23.71,19.2-30.93h0Zm96.35,100.56c8.99,5.69,18.34,10.71,27.96,15.01-.64-12.09-.34-24.05,.85-35.69-7.75,9.4-17.57,16.17-28.81,20.68h0Zm61.32,26.72c6.15,1.6,12.37,2.91,18.63,3.92,17.19,2.78,34.71,3.32,52.19,1.4-1.6-5.2-3.59-10.66-5.95-16.31-.87-.81-1.71-1.62-2.53-2.43-21.42,7.59-42.25,11.91-62.34,13.42h0Zm17.26,12.31c-13.89-2.25-27.58-5.9-40.85-10.84,2.32,16.16,7.72,34.04,15.26,50.9l12.74,1.1c10.34,.88,19.81,1.68,28.22,2.69,14.58,1.75,24.92,.28,31.71-3.71,8.78-5.16,11.76-15.11,10.5-28.11-.33-3.39-.93-6.97-1.8-10.72-18.68,2.18-37.42,1.66-55.79-1.32h0Zm-68.37-23.25c-7.03-3.75-13.89-7.87-20.55-12.36-4.86,1.3-9.92,2.24-15.14,2.86,11.47,4.17,23.38,7.38,35.69,9.5h0Zm130.46,15.13l4.15-.7c-1.93-1.27-3.78-2.55-5.57-3.84,.5,1.53,.98,3.05,1.42,4.54h0Zm16.16-3.26c4.04-1,8.08-2.15,12.09-3.43-4.16-5.64-7.95-11.6-11.4-17.85-1.09-1.98-2.15-3.99-3.17-6.03-5.33,2.61-10.63,5.03-15.89,7.24,4.69,5.64,9.07,11.27,13.11,16.81,1.7,1.09,3.45,2.18,5.27,3.26h0Zm29.35-9.9c2.58-1.11,5.15-2.29,7.7-3.52,21.27-10.3,41.69-25,60.48-44.56-14.58,9.31-30.65,16.29-48.16,20.97-7.98,8.75-15.11,17.94-20.02,27.11h0Zm11.44,4.12c-4.8,2.32-9.63,4.43-14.5,6.33,6.55,7.42,13.94,14.11,22.27,19.96,57.4,13.75,115.21-8.9,163.54-46.52-9.69-25.64-30.4-53.19-65.54-80.12-4.17,6.1-8.59,11.83-13.27,17.19-26.69,39.56-58.55,66.71-92.5,83.16h0Zm-26.02,10.42l-4.13,1.27,3.59,1.84c.14-1.04,.32-2.07,.54-3.11h0Zm-20.37,5.34c-2.79,.58-5.59,1.09-8.39,1.54,.87,3.86,1.48,7.56,1.81,11.09,1.58,16.38-2.59,29.17-14.63,36.25-8.38,4.92-20.49,6.8-37.06,4.81-7.89-.95-17.46-1.76-27.91-2.65l-7.81-.67c5.98,11.85,12.99,22.9,20.69,32.15,8.82,10.6,18.49,18.74,28.4,22.78,9.43,3.84,19.22,3.93,28.84-1.25,11.86-6.39,23.64-20.61,34.51-45.29,5.81-13.18-2.09-34.63-18.45-58.77h0Zm132.19-104.24c3.9-5.8,7.69-11.88,11.35-18.24l-1.86-1.33c-7.24,5.91-14.89,12.5-23.11,19.58-4.26,3.67-8.67,7.47-13.18,11.31-2.15,1.83-4.44,3.75-6.92,5.82-5.42,4.53-11.73,9.81-18.21,15.54-4.15,3.68-8.43,7.58-12.66,11.65,11.43-4.18,22.13-9.5,32.07-15.97,11.92-7.77,22.76-17.21,32.51-28.35h0Zm23.3-40.91c1.62-3.35,3.2-6.76,4.75-10.24,.45-1.01,.88-2.02,1.27-3.04-3.55-.11-6.91-.44-10.05-1-9.78,4.17-20.42,6.75-31.64,7.38l-1.33,3.25c8.05,4.75,15.63,9.55,22.73,14.39,4.9-3.91,9.64-7.51,14.26-10.74h0Zm10.94-32.74c.15-1.28,.28-2.56,.38-3.84-11.42-4.21-23.19-9.36-34.9-15.38-.47,3-.99,5.98-1.57,8.95,1.3,4,3.59,8.25,7.03,12.76,2.59,3.39,7.05,5.81,12.87,7.2l.37-.17c5.63-2.62,10.92-5.82,15.82-9.52h0Zm.64-12.46c-.23-13.11-3.16-26.37-7.94-39.03-5.93,2.94-11.36,6.15-15.97,9.66-3.9,2.97-7.17,6.19-9.59,9.68l-.46,4.09c11.42,6.08,22.86,11.3,33.95,15.6h0Zm-11.18-46.92l-1.62-3.52c-6.1,5.2-12.62,10.19-19.54,14.93l-.1,2.1c1.07-.93,2.2-1.84,3.37-2.73,5.19-3.96,11.29-7.53,17.9-10.78h0Zm7.25-4.61l.47,1.05,2.66-1.13c-.94-2.31-1.93-4.63-2.99-6.97l-2.41,2.27c.78,1.57,1.54,3.17,2.27,4.77h0Zm3.72,8.91c5.41,14.16,8.66,29.06,8.72,43.84,1.77-13.26-.66-28.66-6.31-44.87l-2.41,1.03h0Zm-16.58-15.61c-4.92-9.02-10.64-17.45-16.8-25.01,1.1,12.54,1.66,24.94,1.53,37.13,5.36-3.89,10.45-7.94,15.27-12.12h0Zm-26.42-35.76c-9.37-9.49-19.2-16.76-28.36-20.85-8.45-3.77-16.16-4.74-22.03-2.07-10.61,4.82-22.99,11.3-36.35,19.06,1.71,2.59,3.5,5.15,5.36,7.66,14.89,20.13,34.4,38.03,55.66,53.06,3.61,2.55,7.26,5.02,10.95,7.4,5.23-2.87,10.39-5.95,15.49-9.24l1.82-1.19c.53-17.5-.47-35.51-2.53-53.84h0Zm-94.07,.48c-10.52,6.3-21.52,13.32-32.67,20.89-3.19,7.49-5.85,15.06-7.91,22.56,12.37,14.52,28.18,30.08,47.77,46.79,21.16-4.34,42.69-11.55,63.47-21.94-2.44-1.62-4.86-3.28-7.26-4.98-21.9-15.49-42.06-34.01-57.55-54.94-2.03-2.75-3.99-5.55-5.86-8.39h0Zm-56.2,37.57c-14.31,10.58-28.42,21.86-41.56,33.48-.27,5.18-.68,10.39-1.25,15.65,9.87,3.3,20.72,5.69,32.28,7.1,.75-1.3,1.48-2.62,2.19-3.98,6.68-12.92,10.94-28.77,11.93-47.65-1.23-1.54-2.43-3.08-3.59-4.61h0Zm-50.65,41.71l-3.33,3.12,2.92,1.25,.4-4.37h0Zm-9.88,9.46c-7.73,7.65-14.92,15.37-21.34,23.05-1.31,1.57-2.59,3.14-3.83,4.7,4.58,5.19,9.25,10.65,13.94,16.32,3.98-.42,7.9-1.09,11.73-2.03,3.64-12.91,6.26-25.74,7.95-38.38-2.91-1.14-5.74-2.36-8.45-3.66h0Zm-27.86,17.58c6.05-7.24,12.76-14.51,19.98-21.73-8.34-4.84-15.52-10.52-21.24-16.99-4.55-5.14-8.2-10.76-10.82-16.83l-3.67,.1c-5.32,8.93-12.34,17.7-21.25,26.07,9.67,7.89,21.39,19.36,33.93,33.13l3.08-3.75h0Zm26.3-27.92c3.94-3.78,8.01-7.55,12.18-11.28,.29-7.97,.21-15.82-.23-23.54-14.51,3.45-28.25,5.65-41.18,6.67,2.11,4.17,4.8,8.08,8.02,11.71,5.59,6.31,12.76,11.82,21.22,16.45h0Zm20.85-18.88c11.62-9.96,23.87-19.63,36.25-28.79l-.75-1.06c-5.98,2.4-12.21,4.63-18.68,6.7-5.88,1.89-11.66,3.58-17.32,5.08,.37,5.95,.53,11.97,.5,18.07h0Zm-49.69,63.82c-2.16,2.94-4.19,5.86-6.07,8.77,4.06,.63,8.11,1.02,12.12,1.16l2.54,.05c-2.88-3.43-5.75-6.76-8.59-9.98h0Zm-10.8,16.58c-2.56,4.53-4.71,9-6.45,13.37,8.69,4.6,17.45,9.8,26.14,15.48,3.17-7.66,6.81-14.95,10.91-21.78l-4.31-5.33c-3.21,.19-6.46,.22-9.73,.11-5.49-.2-11.04-.82-16.58-1.86h0Zm-9.18,21.55c-.42,1.56-.78,3.1-1.07,4.63-3.07,15.93,1.2,30.32,15.74,41.75l1.35,1.03,1.76-2.84c1.97-10.11,4.64-19.88,7.97-29.16-8.56-5.66-17.19-10.84-25.75-15.42h0Zm4.98-31.16c2.76-4.46,5.84-8.95,9.21-13.46-13.08-14.44-25.28-26.34-35.13-34.2-7.82,6.52-16.87,12.73-27.22,18.51,15.85,14.75,34.38,24.56,53.14,29.15h0Zm19.92,84.22l1.68,.89c5.15,.23,10.28,.35,15.4,.37,10.95,.04,21.8-.41,32.41-1.36-5.65-5-11.43-9.9-17.34-14.64-6.03-4.84-12.17-9.52-18.37-13.98-3.88,7.83-8.16,15.63-12.85,23.39-.33,1.77-.63,3.55-.92,5.33h0Zm24.03,9.7c11.77,3.52,25.8,6.37,42.32,8.42-.52-1.31-.99-2.62-1.41-3.92-2.29-2.22-4.62-4.43-6.99-6.62-11.08,1.25-22.43,1.95-33.92,2.12h0Zm59.66,10.2l2.61,.21c8.26,.64,16.3,.94,24.13,.9-3-7.06-5.63-14.41-7.95-21.99-8.71,2.46-17.73,4.48-27,6.07,2.89,4.99,5.63,9.94,8.21,14.82h0Zm-12.9,7.3c-31.33-3.47-54.69-9.65-71.35-17.91l-.71-.03c-1.53,13.3-1.84,27.07-.85,41.01,25.54,1.02,52.54-2.68,80.63-12.15-3.01-3.61-5.58-7.26-7.72-10.92h0Zm68.5-8.05c8.15-1.04,16.01-2.52,23.59-4.44,7.76-8.33,16.14-16.19,24.14-23.26,6.68-5.9,12.98-11.17,18.37-15.7l6.87-5.78c4.58-3.91,8.94-7.66,13.15-11.29,7.53-6.49,14.61-12.58,21.36-18.16-6.1-4.09-12.54-8.15-19.35-12.17-14.41,30.36-37.7,57.9-73.28,81.47-4.97,3.29-9.92,6.4-14.85,9.33h0Zm14.16,6.37c-9.57,1.83-19.54,3.03-29.88,3.61,.83,1.62,1.68,3.23,2.55,4.82,3.3,5.99,6.95,11.7,10.96,17.1,3.89-8.63,9.64-17.23,16.37-25.52h0Zm-52.49,3.89c-3.39-.1-6.81-.25-10.27-.46l3.09,3.48c2.38-.97,4.77-1.97,7.18-3.02h0Zm192.83-136.47c-.95,2.82-1.93,5.6-2.94,8.33,1.13-.18,2.27-.38,3.42-.6,4.92-.94,10.05-2.24,15.27-3.91-5.06-1.17-10.3-2.57-15.63-4.2l-.12,.37h0Zm-6.45,17.38l-1.21,2.92c3.76-1.83,7.48-3.33,11.21-4.5l-1.47,.29c-2.9,.55-5.75,.98-8.53,1.29h0Zm-7.33,16.33c-3.38,6.85-6.99,13.34-10.83,19.5,35.67,27.25,57.2,55.31,67.85,81.64,13.32-10.97,25.86-23.04,37.39-35.75,4.98-5.5,9.79-11.11,14.38-16.8-4.93-14.88-14.32-28.86-28.65-40.5-30.94-25.13-53.98-23.92-80.14-8.1h0Zm9.52-94.41c5.01,14.37,7.7,28.25,7.47,40.87,1.2-1.62,2.35-3.28,3.45-4.98,8.42-13.05,13.66-28.31,14.7-44.39-8.36,2.5-17.15,5.31-25.62,8.51h0Zm-80.92-112.5c7.12,6,14.06,12.48,20.68,19.31-1.86-10.05-3.91-20.16-6.08-30.29-1.54-.19-3.08-.31-4.63-.35-6.62-.19-13.42,.92-20.23,3.13,3.46,2.62,6.88,5.35,10.26,8.2h0Zm-27.57-10c-3.57-2.33-7.15-4.52-10.75-6.54-.24,4.8-.72,9.44-1.42,13.93,4.01-2.76,8.07-5.23,12.17-7.39h0Zm-33.11-25.94c4.63,1.55,9.28,3.4,13.91,5.53-.34-8.21-1.34-16.85-3.02-25.96-9.97,4.1-19.31,8.37-27.93,12.84l-.85,3.12c5.91,.95,11.89,2.46,17.89,4.48h0Zm22.53,9.79c6.58,3.49,13.14,7.5,19.59,11.95,9.59-3.88,19.28-5.91,28.76-5.64,.84,.03,1.67,.07,2.5,.13-1.14-5.17-2.29-10.35-3.48-15.53-3.26-14.34-6.93-27.07-10.92-38.31-14.15,4.44-27.56,9.08-40.06,13.96,2.28,11.84,3.46,22.98,3.61,33.44h0Zm-96.02-2.69c10.98-7.68,23.02-11.66,35.62-12.56,4.34-2.7,8.91-5.31,13.69-7.88,4.71-14.84,12.28-30.06,23.18-45.56-7.96-17.42-18.93-32.9-31.96-45.51-7.15,3.32-14.03,8.07-20.44,13.95-18.46,16.9-32.93,42.91-38.53,70.84-.36,1.77-.68,3.54-.95,5.32,4.54,9.03,8.69,17.81,12.46,26.35,2.27-1.64,4.58-3.29,6.94-4.95h0Zm-25.06,29.8c-9.71,8.14-18.12,16.05-25.32,23.72,6.43,13.95,11.5,29.09,15.01,45.11,2.04,9.3,3.55,18.9,4.51,28.75,5.03-1.37,10.17-2.89,15.38-4.56,5.71-1.83,11.22-3.78,16.53-5.86-15.33-24.55-20.4-46.21-17.05-65.52-3.91-6.94-6.9-14.2-9.06-21.64h0Zm-31.54,30.64c-10.93,12.72-18.46,24.73-23.02,35.92,.18,3.56,.11,7.19-.21,10.84-.62,7.11-2.21,14.38-4.85,21.65,.34,2.63,.88,5.18,1.62,7.65,13.64-.91,28.27-3.2,43.85-6.98-.91-9.97-2.41-19.68-4.48-29.07-3.1-14.15-7.45-27.56-12.91-40.02h0Zm118.4,126.72l2.4-.37c-15.51-13.54-28.59-26.39-39.42-38.6-1.36,6.85-2.17,13.59-2.36,20.12-.16,5.49-.27,10.96-.31,16.42,1.54-.18,3.1-.33,4.67-.45,11.04-.82,22.74,.07,35.02,2.89h0Zm102.06-28.8c-2.85,1.78-5.72,3.49-8.61,5.14,2.18,1.32,4.38,2.61,6.57,3.87,.47-.85,.98-1.68,1.53-2.51,.2-2.16,.37-4.33,.52-6.51h0Zm-17.18,9.83c-3.77,1.97-7.56,3.84-11.36,5.6,1.28,1.16,1.95,2.82,1.93,5.03-.04,13.37-1.74,25.66-4.86,36.94,6.64,1.46,13.15,2.19,19.46,2.23,3.16-8.69,5.65-17.6,7.56-26.69-1.74-5.72-1.88-11.04-.72-16-4.03-2.27-8.04-4.65-12.02-7.12h0Zm-85.39,27.59c-13.4,1.92-26.55,2.74-39.16,2.52,.14,12.14,.62,24.14,1.51,35.91,12.21-12.34,26.29-23.46,40.17-32.77,1.79-1.2,3.57-2.36,5.35-3.5-2.66-.81-5.28-1.53-7.88-2.16h0Zm-47.67,2.21c-2.75-.15-5.47-.36-8.17-.61-11.82,17.77-28.4,29.32-47.1,34.96-1.29,4.31-2.7,8.64-4.22,12.97,12.02,15.52,23.82,32.02,34.44,48.54,1.26-7.31,3.72-14.55,7.12-21.65,4.93-10.29,11.92-20.24,20.14-29.61-1.36-14.55-2.04-29.48-2.21-44.59h0Zm-25.29-2.97c-7.23-1.33-14.13-3.05-20.64-5.14-1.06,7.52-2.43,15.09-4.15,22.71,1.41-1.32,2.85-2.61,4.32-3.86,6.34-5.37,13.17-9.98,20.47-13.72h0Zm245.22-123.08c8.6-17.67,13.59-36.15,14.82-54.69,1.82-27.67-4.73-55.52-20.18-81.05-13.39-1.02-28.09,.31-44.1,4.46-15.08,3.9-29.62,7.94-43.5,12.14,4.09,11.49,7.82,24.42,11.11,38.91,1.42,6.28,2.83,12.55,4.19,18.82,4.18,1,8.27,2.49,12.27,4.53,31.39,15.97,52.56,35.81,65.4,56.89h0Zm-.64-144.21l.23,.37c20.84,2.35,38.71,10.09,53.63,21.64,19.4,15.01,33.74,36.4,43.15,60.61,1.23,3.17,2.38,6.39,3.44,9.66-3.71-19.68-10.12-41.03-19.79-64.13-4.35-10.42-11.17-23.24-19.78-36.4-13.79-21.09-32.09-43.02-52.09-57.42-19.33-13.92-40.25-20.74-59.95-12.51-2.83,1.19-5.65,2.67-8.43,4.49-4.35,2.84-8.56,5.68-12.63,8.51,10.53,5.95,20.24,12.3,28.9,18.96,18.15,13.95,32.55,29.57,43.31,46.22h0Zm-10.48-.35c-9.83-13.99-22.48-27.18-38.04-39.14-9.31-7.15-19.86-13.94-31.38-20.24-15.31,11.06-28.64,22.03-40.14,32.89,9,10.8,17.37,25.27,24.73,43.94,14.16-4.31,28.98-8.43,44.35-12.4,14.48-3.75,27.97-5.33,40.48-5.05h0Zm-77.83-63.79c-3.9-1.97-7.89-3.88-11.97-5.73-47.4-21.48-106.33-34.56-161.83-31.3-50.57,2.97-98.24,19.57-131.5,55.86,13.67-5.39,27.84-7.22,42.22-4.58,7.56-6.79,15.32-12.43,23.2-17,23.48-13.62,47.96-17.73,71.24-14.42,23.2,3.29,45.19,13.95,63.8,29.88l2.53,2.21c13.27-4.93,27.28-5.46,41.01-.11,8.17,3.18,16.2,8.47,23.86,16.19,10.88-10.27,23.31-20.61,37.45-31.01h0Zm-318.15,34.9c-5.57,8-10.56,16.75-14.87,26.27-6.16,13.59-11.12,26.85-14.92,39.67,9.74-1.91,19.29-2.71,28.58-2.48,1.23-2.86,2.5-5.74,3.83-8.64,13.11-28.75,28.2-51.04,44.38-67.7-13.87-1.18-27.41,2.17-40.32,9.01-2.25,1.19-4.47,2.48-6.68,3.88h0Zm-22.59,22.76c1.32-2.93,2.7-5.78,4.15-8.57-17.78,16.24-33.86,38.5-47.26,63.62,8.93-4.15,17.77-7.35,26.46-9.67,4.05-14.62,9.58-29.8,16.65-45.38h0Zm-9.75,52.44c-5.39,21.01-7.55,40.75-6.65,58.75,.08,1.62,.19,3.23,.31,4.83,5.24-2.5,10.39-4.61,15.46-6.35,3.8-18.96,9.86-39.14,18.49-60.49-8.96,.04-18.18,1.1-27.6,3.26h0Zm-15.15,59.17c-.87-17.49,1.03-36.51,5.79-56.68-9.98,3.03-20.15,7.29-30.47,12.89-5.52,11.5-10.49,23.45-14.81,35.58-7.27,20.4-12.73,41.28-15.95,61.33,19.13-20.13,38.03-34.67,56.09-44.56-.3-2.82-.51-5.68-.66-8.57h0Zm96.39,110.4c-28.03-4.64-50.39-16.35-66.53-33.65,1.09,7.1,2.58,13.9,4.41,20.38,20.14,6.26,41.8,18.35,66.08,36.25,7.33-6.73,13.33-13.74,18.08-20.87-7.69-.25-15.04-.96-22.04-2.11h0Zm133.65-29.6c1.89-.82,3.75-1.67,5.58-2.53-.83-9.25-2.34-19.07-4.6-29.48-7.18-5.72-13.27-11.97-18.35-18.62,.01,15.14,5.49,31.91,17.37,50.63h0Zm38.58-22.81c4.18-3.39,8.06-6.97,11.63-10.75-.7-1.33-1.39-2.67-2.04-4.02-3.39,4.77-6.6,9.71-9.59,14.77h0Zm35.08-126.8c-1.62-7.11-3.72-14.02-6.26-20.7-6.88,10.37-12.18,20.58-16.08,30.61,7.06-3.42,14.52-6.72,22.35-9.92h0Zm-33.39-78.86c11.49,11.73,21.35,25.62,28.93,41.05,6.58-8.52,14.17-17.11,22.87-25.76-6.75-6.75-13.77-11.37-20.88-14.14-10.24-3.99-20.75-4.08-30.92-1.14h0Zm32.94,49.85c3.48,8.26,6.31,16.89,8.43,25.83,12.19-4.73,25.19-9.23,38.84-13.53-6.83-17.28-14.52-30.62-22.69-40.55-9.55,9.52-17.7,18.95-24.58,28.26h0Zm-48.47-52.71c-17.3-14.66-37.61-24.47-58.98-27.5-21.47-3.05-44.07,.75-65.79,13.35-5.88,3.41-11.71,7.47-17.43,12.21,27.79,9.16,56.06,35.65,82.77,86.04l.03,.05c6.62-27.72,21.42-53.3,40-70.33,6.1-5.59,12.62-10.27,19.39-13.82h0ZM245.12,447.06c5.36,15.05,12.67,28.24,21.36,39.53,2.68,3.48,5.49,6.78,8.41,9.9,10.1-5.47,18.91-11.35,26.51-17.52-20.6-15.04-39.11-25.68-56.28-31.91h0Zm153.09,78.6c7.02-3.64,13.52-8.37,19.28-14.2-5.44,3.07-10.6,6.69-15.43,10.79-1.3,1.11-2.58,2.24-3.84,3.42h0Zm36.89-151.64c-2.5-9.29-5.58-19-9.24-29.14-1.8,3.9-3.17,7.92-4.1,12.08,3.65,6,8.07,11.71,13.34,17.06h0Zm7.22,115.34c-.62,1.43-1.28,2.83-1.95,4.2l1.91-.42,.04-3.78h0ZM160.16,328.82c3.02-8.46,6.35-16.84,9.96-25.05-40.63,26.86-55.04,75.91-48.97,129.39,4.26-7.72,9.66-15.56,16.29-23.5,1.57-1.89,3.14-3.73,4.71-5.54,2.85-24.37,9.09-50.23,18.02-75.3h0Zm-17.85,130.78c-1.92-12.45-2.36-26.14-1.49-40.56-7.84,10.01-13.57,19.84-17.4,29.43,1.23,6.71,2.76,13.46,4.58,20.22l.82,2.98c4.53-4.39,9.02-8.41,13.49-12.06h0Zm-23.83,6.2c-1.01,5.92-1.3,11.74-.93,17.43,1.48-1.6,2.95-3.17,4.42-4.69-.77-2.54-1.49-5.09-2.18-7.63-.46-1.7-.9-3.4-1.32-5.11h0Zm.64,28.38c4.23,19.19,16.07,36.81,33.25,52.33-11.4-18.87-20.63-38.72-27.44-58.74-1.92,2.07-3.87,4.21-5.81,6.41h0Zm32.7,63.13c-19.46-16.21-33.5-34.72-39.75-54.95-4.54,5.42-9.15,11.2-13.85,17.34-11.48,14.99-5.65,34.01,10.29,52.65,10.29,12.04,24.71,23.86,41.48,34.42,13.19,8.31,27.85,15.82,43.08,22.03-.05-1.95-.07-3.92-.02-5.94,.18-7.75,.74-14.92,1.64-21.54-9.92-10.12-19.06-20.98-27.38-32.35-5.48-3.73-10.65-7.61-15.49-11.65h0Zm45.66,29.19c-3.14-1.56-6.22-3.16-9.23-4.81,2.67,3.12,5.42,6.18,8.23,9.18,.31-1.49,.64-2.95,1-4.38h0Zm217.55,28.31l.92-.11c-10.98-17.88-23.6-35.99-36.57-52.99-2.32,5.98-4.86,11.95-7.62,17.91,6.75,4.82,13.43,9.88,19.97,15.14,8,6.43,15.8,13.15,23.3,20.05h0Zm10.09-1.45c10.08-1.62,19.87-3.76,29.26-6.43-3.89-14.48-6.69-29.75-8.61-45.56-5.49,6.95-10.18,14.17-13.72,21.56-4.73,9.88-7.34,20.11-6.94,30.43h0Zm37.39-8.91c41.29-13.46,73.78-37.93,87.65-75.71-11.58-3.61-23.44-9.33-35.36-17.46l-3.48-1.46-3.17-1.27c-3.58,2.18-7.22,4.51-10.89,6.96-15.44,10.35-31.13,22.99-43.92,36.98,1.84,18.12,4.79,35.58,9.17,51.95h0Zm90.61-85.05c2.79-10.28,4.29-21.45,4.33-33.56,0-1.03-.05,1.52-.12,1.52-6.81-.02-21.87,5.74-39.58,15.6l1.2,.83c12.09,5.1,23.47,10.3,34.17,15.61h0Zm5.18,12.15c-14.71,40.75-49.43,66.94-93.44,81.14,2.53,8.31,5.47,16.3,8.85,23.93,9.89-5.18,19.88-11.09,29.97-17.77,34.36-22.76,56.77-49.35,70.57-78.67-5.11-2.9-10.44-5.77-15.94-8.63h0Zm-63.56,155.62c1.41,.63,2.83,1.23,4.24,1.8-1.38-1.35-2.71-2.72-4.02-4.12-.1,.78-.17,1.55-.22,2.33h0Zm240.22-73.27c-12.47,13.73-26.1,26.75-40.61,38.49,1.08,3.35,1.98,6.67,2.72,9.96,3.17,14.22,3.18,27.73,.6,40.1,2.44-1.56,4.8-3.2,7.08-4.9,17.08-12.8,29.45-29.38,36.3-47.29,6.03-15.78,7.77-32.58,4.65-48.69-3.48,4.17-7.06,8.29-10.73,12.34h0Zm-47.78,44.13c-43.27,33.05-93.84,54.42-145.31,50.02,23.06,10.52,51.63,15.93,86.9,14.8,22.28-.71,41.95-6.01,58.54-14.46,4.22-13.22,5.02-28.19,1.45-44.18-.45-2.04-.98-4.1-1.58-6.17h0Zm-170.16,45.84c-7.16-1.81-14.32-4.16-21.45-7.09,1.17,4.8,3.55,9.41,7.39,13.76,41.24,46.65,88.37,59.39,125.18,50.66,21.31-5.04,39.16-17.29,50.32-34.26,1.47-2.23,2.82-4.54,4.04-6.93-15.69,6.63-33.63,10.71-53.47,11.35-48.35,1.55-84.78-8.75-112.02-27.49h0Zm80.24-188.6c-1.22-1.59-2.31-3.15-3.3-4.69-1.24,4.74-2.65,9.42-4.23,14.05,5.26-.52,10.36-1.51,15.27-2.92-3.19-1.74-5.81-3.89-7.75-6.44h0Zm-238.45,210.78c-7.28-17.24-12.38-35.26-14.42-51.47-26.6-1.99-51.63-8.91-74.71-19.59-21.38-.58-44.39-5.48-66.69-13.32l-.08-.03c11.41,64.45,92.37,78.25,155.9,84.41h0Zm-156.42-117.17c-.43,4.47-.71,9.19-.83,14.17-.07,3.14,.01,6.18,.2,9.13l4.07,1.47c14.71,5.17,29.71,9.03,44.26,11.13-7.08-4.12-13.95-8.6-20.58-13.39-9.53-6.89-18.59-14.43-27.12-22.5Z" style="fill:#142d4d; fill-rule:evenodd;"/><path d="M1788.01,818.92c-8.01-.31-15.65,52.55-10.62,57.79,5.03,5.25,5.33,70.44,5.33,70.44l-75.62-2.69v.06c-1.48-1.04-17.22-11.84-19.45-14.16-2.35-2.5-13.92-1.41-17.01,1.95-3.08,3.3,5.86,1.71,8.55,3.54,2.7,1.89-1.17,5.37-1.17,5.37,0,0-19.19,2.56-22.89-1.41-3.69-4.03-13.61-10.87-15-6.9-.72,2.08,4.37,8.3,7.24,10.92-3.59-2.75-7.9-5.68-9.39-5.18-2.72,.91-1.63,4.39-.17,5.43,1.46,.98,16.56,12.76,18.93,13.61,2.32,.85,37.71,2.08,43.81,3.48,0,0,99.52,23.75,105.2,22.41,4.99-1.22,10.3-33.08,10.55-57.56,.25-24.48-3.22-106.13-28.27-107.11Z" style="fill:#f4ae7c; fill-rule:evenodd;"/><path d="M1777.73,806.77s13.93,3.36,28.17,19.71c12.95,14.83,20.37,97.4,20.37,97.4l-45.34,6.84-3.2-39.92-11.91-18.37,11.91-65.67Z" style="fill:#406fb5; fill-rule:evenodd;"/><path d="M267.29,734.41c-5.27-15.14-14.18-24.5-30.26-34.17-13-7.8-27.27-7.7-39.94-1.2-35.86,18.42-19.74,51.94-43.03,87.28-9.96,15.07-24.87,22.78-32.33,38.62-13.52,28.56-1.76,75.06,34.46,101.23,88.71,64.12,115.59-54.72,115.85-79.37,.2-18.32-1.36-102.64-4.75-112.39Z" style="fill:#0f3970; fill-rule:evenodd;"/><path d="M197.25,801.02c-7.22,4.15-9.43,10.98-14.31,13.52-14.17,1.34-28.14,2.43-34.79,7.04-26,31.43-47.01,59.23-63.02,83.37-6.48,13.38-5.18,26.3,3.91,38.76,11.14-10.3,23.22-12.89,36.25-7.81-.44-5.44-2.48-11.11-6.14-17.01,18.71-16.42,34.05-31.48,46.01-45.18-2.21,17.97,4.3,43.53,19.52,76.69,52.99,3.45,83.38,2.61,91.19-2.51,2.58-14.82,4.62-31,6.14-48.51,12.16,10.89,22.02,20.56,29.56,29,5.71,1.87,11.84,2.25,18.4,1.12,4.64-10.88,9.28-20.73,13.95-29.55-3.22-2.9-8.8-5.23-16.73-6.97-21.63-30.85-40.31-55.77-56.04-74.74-12.21-2.85-21.32-4.33-27.33-4.46-2.57-3.03-6.38-5.64-11.43-7.8,2.95,16.2,4.06,35.63,3.9,49.36-23.14-16.97-36.16-39.11-39.04-54.31Z" style="fill:#6998d0; fill-rule:evenodd;"/><path d="M157.95,1089.42c-10.99-68.06-2.08-114.4,26.73-139.01,44.75,2.91,73.38,2.76,85.91-.43,.14,4.79,.45,10.43,1.46,17.86,7.79,57.38,17.11,146.46,15.84,233.96-31.58,11.1-81.03,10.62-148.34-1.39,7.69-34.04,13.82-71.03,18.4-110.98Z" style="fill:#0f3970; fill-rule:evenodd;"/><path d="M243.81,813.78c2.73,7.99,4.18,14.59,4.36,19.8-3.11-2.48-5.42-4.17-6.9-5.09-1.14,12.82-2.8,21.78-4.99,26.85,.15-13.73-.95-33.15-3.9-49.36,5.05,2.16,8.85,4.77,11.43,7.8Z" style="fill:#406fb5; fill-rule:evenodd;"/><path d="M197.25,801.02c2.88,15.2,15.9,37.34,39.04,54.31-13.83-4.91-28.95-16.93-37.61-32.91-1.43,5.41-3.24,11.73-5.44,18.97-6.02-7.46-9.45-16.41-10.3-26.84,4.88-2.54,7.09-9.37,14.31-13.52Z" style="fill:#406fb5; fill-rule:evenodd;"/><path d="M123.71,935.33c9.24,18.86,20.03,37.67,30.79,52.63,2.47-2.64,4.85-8.38,8.35-10.57,1.39-.88,3.6,1.39,5.08,.69,7.06-3.32,14.87-4.28,21.2,.46,1.58,1.19,2.43,3.51,2.66,9.01-.27,7.57-6.6,9-15.4,5.44-11.8,12.86-19.64,17.04-26.07,12.54-29.09-26.11-48.35-47.76-57.78-64.95,9.7-7.38,20.09-9.13,31.17-5.25Z" style="fill:#f4ae7c; fill-rule:evenodd;"/><path d="M423.75,932.09c-43.6,1.45-74.74,.3-93.42-3.45,4.51-10.55,9.04-20.11,13.58-28.7,34.76,5.15,64.53,8.95,89.3,11.38,8.9-6.1,16.33-8.61,22.31-7.53,1.64,3.75-.12,6.5-5.3,8.23-1.39,1.95-1.95,3.76-1.67,5.44,12.89,5.5,24.23,8.9,34.02,10.18,1.15,11.61-6.03,18.99-21.52,22.15-15.81-4.09-28.24-9.98-37.31-17.69Z" style="fill:#f4ae7c; fill-rule:evenodd;"/><path d="M153.4,1392.41c8.12,30.31,5.38,46.46-9.93,48.67-20.34,1.47-25.85-18.62-17.87-60.02-.18,2.25-.31,4.34-.4,6.2-2.25,43.37,31.39,33.66,29.05,13.69-.33-2.78-.59-5.63-.85-8.54Z" style="fill:#142d4d; fill-rule:evenodd;"/><path d="M154.24,1400.96c2.34,19.97-31.3,29.68-29.05-13.69,.09-1.86,.23-3.95,.4-6.2,1.38-17.66,5.11-45.96,4.83-63.79-.71-45.56,3.33-84.34,12.15-116.34,16.32,2.85,31.56,5.01,45.74,6.49-7.67,26.63-14.32,50.99-19.94,73.08-6.91,27.13-19.8,67.27-16.57,94.81,.69,5.91,1.12,11.61,1.6,17.1,.25,2.91,.52,5.76,.85,8.54Z" style="fill:#f4ae7c; fill-rule:evenodd;"/><path d="M288.76,1406.19c-11.73,.64-1.02,9.76-8.66,11.81-16.7-9.13-25.95-34.02-32.61-45.02-3.51-5.79-6.05,1.57-7.78,9.81-3.72,17.69-3.61,41.04,.59,48.3,3.05-5.33,5.68-21.7,8.46-31.71,16.39,14.58,12.81,30.65,22.53,36.12,23.31,2.59,35.92,3.23,53.62,3.61,3.88-15.05-26.9-9.97-36.15-32.93Z" style="fill:#142d4d; fill-rule:evenodd;"/><path d="M280.06,1204.2c-2.22,87.46-10.29,165.38,4.3,203.07-4.06,2.62,2,9.04-4.26,10.72-16.7-9.13-25.95-34.02-32.61-45.02-.04-.07-.08-.12-.11-.18,.94-2.33,1.6-5,2-8.02-.29-72.54-18.42-117.27-14.92-155.04,17.66-.26,32.86-2.11,45.6-5.54Z" style="fill:#f4ae7c; fill-rule:evenodd;"/><path d="M313.14,928.86c5.86-11.15,11.73-22.82,17.61-35.02,6.06,1.63,10.44,3.65,13.15,6.1-4.54,8.59-9.07,18.15-13.58,28.7-.12,.29-.24,.57-.37,.85-5.95,1.03-11.57,.82-16.82-.64Z" style="fill:#406fb5; fill-rule:evenodd;"/><path d="M121.81,923.75c2,4.17,3.16,8.23,3.48,12.16-.53-.21-1.06-.4-1.58-.58-11.08-3.88-21.47-2.12-31.17,5.25,.02,.04,.04,.08,.07,.12-1.2,.91-2.39,1.92-3.56,3.01-3.33-4.57-5.61-9.19-6.85-13.87,14.79-8.61,28-10.65,39.62-6.1Z" style="fill:#406fb5; fill-rule:evenodd;"/><path d="M232.73,796.5c-1.48,5.57-1.33,10.33,.45,14.25,2.35,15.12,3.24,32.18,3.1,44.58-22.09-16.2-34.95-37.11-38.58-52.2,2.92-4.71,4.12-10.22,3.59-16.52,.54-2.95-1.13-8.43-5.02-16.45-13.22-2.29-16.51-13.39-11-22.21,6.18-2.19,9.51,2.87,11.14,12.03,3.52-.52,2.18-6.14,1.81-8.78-1.65-7.63-.27-11.74,2.51-18.97,15.87,11.17,29.48,11.51,51.16,5.22-.63,5.2-1.1,10.22-1.39,15.06,5.94,14.47-3.15,39.08-17.78,43.99Z" style="fill:#f4ae7c; fill-rule:evenodd;"/><path d="M232.73,796.5c-8.86,1-12.88,.94-21.07-2.33,4.8,5.18,11.49,8.02,20.08,8.52,.08-1.93,.42-4,1-6.19Z" style="fill:#ed7d5b; fill-rule:evenodd;"/><path d="M912.92,361.04c9.9-2.79,10.15-.98,11.41-1.39,1.48-.47,13.6-16.51,13.6-16.51,0,0,36.05-47.06,37.9-49.69l11.84-61.25,33.7,.05s-14.76,66.15-16.16,69.4c-1.42,3.3-58.37,60.63-63.2,65.84,0,0-3.17,8.56-5.36,13.83-2.18,5.26-6.77,9.13-7.64,10.48-.12,.2-3.28,4.59-8.75,8.82-4.71,3.66-2.18-2.06-2.18-2.06,0,0,7.32-8.41,6.48-8.93-.65-.42-4.35,4.44-9.51,8.51-1.33,1.09-2.65,2.12-3.87,3.05-3.19,2.48-5.87,1.14-3-2.01,1.01-1.14,2.74-2.94,4.18-4.02,1.55-1.19,2.54-2.79,3.67-3.97,2.25-2.43,3.92-4.13,3.75-4.18-.21-.05-.14-.88-1.6,.21-1.74,1.29-4.74,4.9-7.48,6.55-1.55,.98-4.65,3.2-4.65,3.2,0,0-5.41,2.38-5.69,2.12-1.53-1.5,1.58-4.18,3.89-5.21,1.05-1.4,4.39-3.61,4.39-3.61,0,0,5.55-6.09,4.6-6.97-.41-.36-4.31,2.94-8.72,5.52-4.09,2.38-8.71,4.13-9.39,3.35-1.17-1.29,3.04-4.49,3.04-4.49,0,0,3.08-2.01,4.04-2.78,1.13-.88,4.27-3.87,4.27-3.87,0,0,10.4-10.79,9.43-11.51-.97-.78-4.15-1.81-5.05-1.39-.9,.41-2.05,2.11-2.97,2.53-.9,.47-2.54,.21-3.28-.88-.74-1.08,2.65-4.9,2.65-4.9,0,0,2.78-3.05,5.65-3.82Z" style="fill:#f4ae7c; fill-rule:evenodd;"/><path d="M965.71,669.56l.99,21.21c.42,2.74,2.08,9.39,2.06,11.82-.09,9.18-40.78-8.21-31.59-12.18,.84-.36,5.21-3.1,5.52-6.24,.46-4.8,1.63-14.5,1.63-14.5l21.39-.1Z" style="fill:#f4ae7c; fill-rule:evenodd;"/><path d="M937.28,690.3s9.56,2.94,14.47,3.66c4.9,.77,11.45-5.06,14.9-3.45,3.81,1.81,3.24,19.09,3.24,19.09,0,0-51.24,2.53-65.66-2.32-5.71-1.86,13.37-10.63,33.05-16.98Z" style="fill:#142d4d; fill-rule:evenodd;"/><path d="M1055.71,672.5l.99,21.26c.42,2.68,2.08,9.34,2.05,11.81-.09,9.19-40.78-8.26-31.58-12.23,.83-.36,6.51-5.16,6.81-8.26,.47-4.85,.33-12.49,.33-12.49l21.39-.1Z" style="fill:#f4ae7c; fill-rule:evenodd;"/><path d="M1027.27,693.24s9.57,2.94,14.47,3.72c4.91,.72,11.45-5.11,14.91-3.51,3.81,1.81,3.8,17.65,3.8,17.65,0,0-54.79,3.41-67.62-.46-5.77-1.7,14.77-10.99,34.44-17.39Z" style="fill:#142d4d; fill-rule:evenodd;"/><path d="M994.1,366.1l-17.35,7.27-38.11,173.17,.14,130.14,29.13,.93s14.71-113.62,14.8-122.45c.09-8.82,64.34-153.72,64.34-153.72l-52.94-35.34Z" style="fill:#0f3970; fill-rule:evenodd;"/><path d="M1007.33,375.8s11.35,133.8,11.13,156.35c-.24,22.55,8.79,148.82,8.79,148.82l29.2,.1s2.5-38.39,6.21-94.94c.59-8.87-.36-26.73,.37-35.91,5.21-65.9,14.83-127.92,10.79-152.58-.65-3.97-1.84-14.35-4.34-16.98-18.92-19.97-62.16-4.85-62.16-4.85Z" style="fill:#0f3970; fill-rule:evenodd;"/><path d="M972.79,269.92l35.36-2.01s2.07-31.58,2.22-46.65c.19-18.26,6.04-45.15,3.85-44.69-6.13,1.39-16.74,6.86-21.71,13.67-17.2,23.43-19.73,79.67-19.73,79.67Z" style="fill:#406fb5; fill-rule:evenodd;"/><path d="M1057.47,176.32s20.12,3.04,25.38,6.97c5.92,4.44,12.45,14.34,12.45,14.34,0,0-25.94,116.67-26.19,136.38-.19,15.17,4.82,52.63,4.82,52.63,0,0-74.81,3.97-103.01-7.53,0,0,9.39-44.32,9.51-56.04,.12-11.66,11.91-117.7,14.42-125.08,2.27-6.71,6.43-18.73,20.12-21.62,13.69-2.84,42.48-.05,42.48-.05Z" style="fill:#6998d0; fill-rule:evenodd;"/><path d="M1052.29,144.79l4.65,32.71s-18.61,38.7-29.45,35.19c-9.1-2.89-3.13-37.25-3.13-37.25,0,0,5.17-18.42,3.76-27.71-1.39-9.23,24.17-2.94,24.17-2.94Z" style="fill:#f4ae7c; fill-rule:evenodd;"/><path d="M1028.13,147.73c-1.39-9.23,24.17-2.94,24.17-2.94l.39,2.73c-.76,1.81-1.7,3.3-2.82,4.49-5.79,6.09-14.77,9.65-22.51,9.85,.83-4.95,1.36-10.32,.78-14.14Z" style="fill:#ec724c; fill-rule:evenodd;"/><path d="M1056.97,98.66c.72-.26,5.42,37.25-4.33,47.42-9.74,10.22-28.56,13.42-35.22,5.21-7.35-9.03-6.57-49.28,8.53-59.75,15.1-10.43,31.02,7.12,31.02,7.12Z" style="fill:#f4ae7c; fill-rule:evenodd;"/><path d="M1031.87,71.41c11.55,2.43,18.99,9.55,21.72,12.59,5.25,.67,12.37,3.61,19.62,15.84,8.93,15.02,2.06,31.48-8.59,39.53-10.66,8-10.62,17.44-10.62,17.44l-1.61-4.96c-1.19-3.66-1.66-7.58-1.2-11.4,.27-2.32,.79-4.85,1.78-6.86,2.6-5.42-5.37-9.08-7.57-13.62-1.69-3.51-1.7-11.46-4.35-17.18l-3.21-4.44s-7.44-5.88-14.79-4.34c-7.35,1.6-6.02-25.8,8.82-22.6Z" style="fill:#0f3970; fill-rule:evenodd;"/><path d="M1045.83,126.83c-.12,4.54,1.93,8.31,4.58,8.41,2.66,.05,4.91-3.61,5.03-8.15,.12-4.59-1.92-8.36-4.58-8.41-2.65-.05-4.91,3.56-5.03,8.15Z" style="fill:#f4ae7c; fill-rule:evenodd;"/><path d="M1087.85,191.69c-6.77-.25-13.23,44.43-8.98,48.87,4.25,4.44,4.51,59.55,4.51,59.55l-63.93-2.27v.05c-1.25-.88-14.55-10.01-16.45-11.97-1.99-2.12-11.77-1.19-14.38,1.65-2.61,2.79,4.95,1.45,7.23,3,2.28,1.6-.99,4.54-.99,4.54,0,0-16.23,2.17-19.36-1.19-3.12-3.4-11.51-9.18-12.69-5.83-.61,1.75,3.69,7.02,6.11,9.23-3.04-2.32-6.68-4.8-7.94-4.38-2.3,.77-1.38,3.71-.14,4.59,1.23,.82,14,10.79,16,11.51,1.96,.72,31.88,1.76,37.04,2.94,0,0,84.14,20.07,88.94,18.94,4.22-1.03,8.71-27.97,8.92-48.66,.21-20.69-2.72-89.73-23.9-90.56Z" style="fill:#f4ae7c; fill-rule:evenodd;"/><path d="M985.55,177.14s11.77,2.84,23.81,16.67c10.96,12.54,17.22,82.35,17.22,82.35l-38.33,5.78-2.71-33.74c-15.94-24.58-19.78-53.92,0-71.05Z" style="fill:#406fb5; fill-rule:evenodd;"/><polygon points="810.43 734.47 827.23 734.47 639.69 1403.85 622.89 1403.85 810.43 734.47" style="fill:#9d7558; fill-rule:evenodd;"/><polygon points="937 734.47 953.79 734.47 766.25 1403.85 749.46 1403.85 937 734.47" style="fill:#9d7558; fill-rule:evenodd;"/><polygon points="814.96 778.26 924.73 778.26 921.58 789.47 811.82 789.47 814.96 778.26" style="fill:#9d7558; fill-rule:evenodd;"/><polygon points="795.46 847.86 905.23 847.86 902.1 859.06 792.33 859.06 795.46 847.86" style="fill:#9d7558; fill-rule:evenodd;"/><polygon points="775.96 917.45 885.73 917.45 882.59 928.65 772.83 928.65 775.96 917.45" style="fill:#9d7558; fill-rule:evenodd;"/><polygon points="756.47 987.04 866.24 987.04 863.09 998.25 753.32 998.25 756.47 987.04" style="fill:#9d7558; fill-rule:evenodd;"/><polygon points="736.97 1056.64 846.74 1056.64 843.59 1067.85 733.82 1067.85 736.97 1056.64" style="fill:#9d7558; fill-rule:evenodd;"/><polygon points="717.47 1126.23 827.24 1126.23 824.09 1137.44 714.33 1137.44 717.47 1126.23" style="fill:#9d7558; fill-rule:evenodd;"/><polygon points="697.97 1195.83 807.74 1195.83 804.6 1207.03 694.83 1207.03 697.97 1195.83" style="fill:#9d7558; fill-rule:evenodd;"/><polygon points="678.48 1265.42 788.25 1265.42 785.1 1276.62 675.33 1276.62 678.48 1265.42" style="fill:#9d7558; fill-rule:evenodd;"/><polygon points="658.98 1335.01 768.74 1335.01 765.6 1346.22 655.83 1346.22 658.98 1335.01" style="fill:#9d7558; fill-rule:evenodd;"/><rect x="788.13" y="708.13" width="299.47" height="26.34" style="fill:#d1a383;"/><path d="M545.7,885.33c-10.83,48.31,40.84,73.13,9.92,151.65,22.93,3.56,49.9,3.92,80.9,1.09-1.73,8.7-3.08,16.45-4.09,22.29,6.48-.26,12.7-2.18,19.83,6.8l.23-.39,.23-.39,.17-.31,.05-.09,.23-.4,.23-.4,.13-.22,.11-.19,.46-.84,.07-.12,.4-.73,.24-.43,.02-.03,.23-.42,.24-.44,.21-.38,.04-.07,.04-.07,.45-.85,.14-.28,.1-.18,.24-.47,.25-.47,.1-.17,.15-.3,.25-.48,.25-.49,.04-.06,.21-.43,.25-.5,.23-.44,.03-.05,.25-.5,.25-.5,.17-.34,.09-.17,.25-.52,.25-.52,.11-.22,.14-.29,.47-.96,.04-.09,.05-.11,.2-.43,.26-.53,.25-.52v-.02s.27-.54,.27-.54l.26-.55,.18-.4,.07-.15,.26-.55,.25-.54,.14-.29,.39-.83,.26-.56,.07-.15,.2-.42,.26-.57,.26-.57v-.02s.52-1.13,.52-1.13l.21-.46,.05-.11,.27-.58,.26-.58,.15-.33,.12-.25,.26-.59,.26-.58,.09-.2,.17-.39,.26-.59,.27-.59,.03-.06,.23-.55,.27-.59,.23-.52,.04-.08,.26-.6,.26-.6,.17-.38,.09-.22,.46-1.08,.16-.39,.72-1.69,.04-.08,.68-1.62,.24-.56,.45-1.1,.02-.06,.02-.04c.44-1.07,.87-2.13,1.3-3.2l.08-.21,.36-.9,.33-.84,.11-.27,.58-1.46,.3-.75,.38-.99,.05-.13,.44-1.1,.19-.5,.23-.61,.42-1.1v-.02s.09-.21,.09-.21l.55-1.45,.02-.07,.17-.46,.41-1.1,.07-.17,.63-1.72,.11-.31,.4-1.1,.11-.31,.28-.79,.33-.93,.06-.17,.39-1.08,.16-.45,.22-.63,.37-1.06v-.02s.37-1.08,.37-1.08l.2-.59,.17-.49,.36-1.07,.04-.12,.31-.94,.24-.72,.11-.33,.34-1.06,.08-.25,.25-.79,.27-.84,.07-.19,.32-1.03,.12-.39,.19-.63,.29-.96,.02-.05,.3-1.01,.15-.51,.14-.49,.28-.99,.02-.07,.09-.32c.24-.85,.47-1.7,.69-2.53l.05-.2,.2-.75,.19-.74,.05-.21,.24-.93,.08-.31,.04-.12,.31-1.31,.02-.08,.27-1.17,.04-.15,.11-.46,.19-.88v-.04c.2-.85,.37-1.69,.52-2.51l.02-.14,.04-.2,.17-.92,.02-.15,.04-.21,.17-.97,.02-.14c.12-.76,.23-1.5,.32-2.2l.02-.24,.12-.99v-.34s.01-.34,.01-.34v-.34s.01-.34,.01-.34v-.69s.05-3.06,.05-3.06v-.33s.01-.34,.01-.34v-.66s.01-.17,.01-.17v-.5s.01-.33,.01-.33v-.66s.01-.33,.01-.33v-.66s.01-.33,.01-.33v-.65s.02-1.31,.02-1.31v-.65s.01-.33,.01-.33v-.63h0s.01-.33,.01-.33v-.96s.01-.32,.01-.32v-.64s.01-.64,.01-.64v-.31l.02-1.89v-.93s0-.14,0-.14v-.17s0-.31,0-.31v-.62s0-.31,0-.31v-.31h0c1.01-121.39-8.01-107.71-71.4-121.36-3.87,10.68-26.89,18.31-33.68,17.89-4.86-2.6-7.37-10.12-11.44-17.08-19.48,4.25-38.76,15.63-49.23,24.96,8.9-15.37,16.1-30.56,21.56-45.55-2.19-6.61-5.28-9.58-11.68-13.01-66.68,60.95-86.5,102.08-74.15,110.17,21.73,7.92,71.52-5.66,86.46-19.81h0Zm108.46,61.63c.08,.72,.15,1.44,.24,2.16l.04,.32h0s.04,.32,.04,.32v.05l.04,.27v.08s.04,.24,.04,.24v.11s.04,.21,.04,.21l.02,.14,.02,.18,.02,.17v.14s.04,.21,.04,.21v.11s.05,.25,.05,.25v.07s.05,.27,.05,.27v.04l.05,.31h0s.04,.33,.04,.33v.02s.05,.29,.05,.29v.06s.04,.25,.04,.25v.09s.04,.22,.04,.22l.02,.12,.03,.19,.02,.15,.02,.15,.02,.19,.02,.13,.03,.21v.09s.05,.25,.05,.25v.06s.05,.29,.05,.29v.02l.05,.31h0s.05,.31,.05,.31v.04s.05,.27,.05,.27v.07s.05,.23,.05,.23l.02,.1,.03,.21,.02,.13,.04,.17,.02,.17,.02,.13,.03,.2,.02,.11,.04,.24,.02,.07,.04,.26v.05s.06,.29,.06,.29h0s.05,.32,.05,.32v.02l.05,.28v.05s.05,.25,.05,.25v.08s.05,.22,.05,.22l.02,.11,.04,.19,.03,.14,.03,.15,.04,.18,.02,.12,.04,.21,.02,.09,.04,.24v.06s.07,.27,.07,.27v.02l.06,.3h0s.06,.3,.06,.3v.04s.06,.26,.06,.26v.07s.06,.23,.06,.23l.02,.09,.04,.2,.03,.12,.03,.17,.04,.15,.03,.13,.04,.19,.02,.11,.05,.22,.02,.08,.05,.24v.04s.07,.29,.07,.29h0s.07,.3,.07,.3v.02l.06,.28v.04s.07,.24,.07,.24v.08s.07,.21,.07,.21l.02,.11,.04,.18,.04,.14,.04,.15,.04,.17,.04,.12,.05,.19,.02,.09,.05,.23,.02,.06,.06,.25v.03s.07,.28,.07,.28c-3.67,6.83-6.93,15.09-9.81,23.94-1.95-10.79,.12-25.96,6.18-45.5Z" style="fill:#6998d0; fill-rule:evenodd;"/><path d="M555.65,1036.89h-.04c-20.58,54.08-26.55,103.51-25.58,162.85,49.51,13.07,96.28,9.13,152.04-8.86-3.66-51.33,14.36-77.66,2.12-121.19h-.36c-3.1-10.59-7.99-22.22-15.42-35.46-5.56,12.93-11.36,24.79-16.14,32.93-7.13-8.98-13.36-7.06-19.83-6.8,1.01-5.85,2.36-13.59,4.09-22.29l.02-.15c1.92-9.63,4.29-20.41,7.16-31.02-38.98,10.09-65.57,10.34-79.75,.75-1.87,10.69-4.64,20.43-8.3,29.24Z" style="fill:#0f3970; fill-rule:evenodd;"/><path d="M584.18,845.64c6.79,.42,29.81-7.21,33.68-17.89-4.72-6.76-7.54-14.48-8.15-18.76,1.09-2.03,2.31-4.62,3.65-7.77,15.51-7.32,18.53-14.06,9.07-20.22-2.23,.83-5.34,3.97-9.31,9.43-9.89-1.96-4.16-17.4-1.64-25.69-5.29-11.35-15.03-17.78-36.84-18.37-1.89,5.54-3.65,11.43-5.28,17.69-4.33,2.89-5.87,15.88-4.73,31.3-3.07,8.19,1.44,13.63,13.5,16.32-.38,3.94-2.86,13.71-5.38,16.87,4.07,6.96,6.58,14.48,11.44,17.08Z" style="fill:#f4ae7c; fill-rule:evenodd;"/><path d="M574.63,746.38c21.81,.59,31.55,7.02,36.84,18.37-2.53,8.29-8.25,23.73,1.64,25.69,3.97-5.46,7.08-8.61,9.31-9.43,9.47,6.16,6.44,12.9-9.07,20.22-1.34,3.15-2.56,5.74-3.65,7.77,.61,4.28,3.43,12,8.15,18.76,19.39,20.94,25.69,10.77,41.3,8.56,8.56-15.59-4.37-9.9-4.31-21.76,.05-10.11-16.71-9.44-13.69-22.93,2.96-13.21,13.52-53.61-19.58-53.43-9.58-18.2-81.02-28.33-51.15,21.93,1.33-4.82,2.74-9.4,4.22-13.76h0Zm-.46,64.25c1.21,.39,2.53,.75,3.95,1.07-.21,2.15-1.03,6.01-2.15,9.6-.94,3.01-2.08,5.83-3.23,7.27-5.17,10.4-9.48,3.52-14.56,4.43,2.21-3.27,4.48-5.85,4.51-5.95,2.12-9.12,7.97-11.29,11.48-16.42Z" style="fill:#0f3970; fill-rule:evenodd;"/><path d="M594.76,810.46c-3.96,.86-11.23,1.77-16.65,1.24-.21,2.15-1.03,6.01-2.15,9.6,5.88-.46,15.93-7.03,18.8-10.84Z" style="fill:#ed7d5b; fill-rule:evenodd;"/><path d="M523.61,1386.04c7.94,2.05-.65,6.82,4.3,9.28,12.69-3.95,22.45-19.71,28.52-26.32,3.19-3.48,3.92,1.91,3.97,7.79,.11,12.62-3.19,28.58-7.06,32.98-1.36-4.06-.9-15.63-1.42-22.86-13.23,7.72-12.99,19.21-20.39,21.62-16.32-1.45-25.03-2.74-37.2-4.91-.59-10.84,19.78-3.12,29.27-17.57Z" style="fill:#142d4d; fill-rule:evenodd;"/><path d="M715.98,1382.7c8.01-1.77,2.51,6.37,8.03,6.33,9.54-9.26,11.11-27.73,13.55-36.37,1.28-4.54,4.37-.07,7.06,5.15,5.79,11.2,10.08,26.93,8.61,32.61-3.05-3.01-7.86-13.54-11.6-19.76-8.31,12.86-2.91,23.01-8.42,28.5-15.2,6.09-23.56,8.87-35.4,12.43-5.43-9.4,16.23-11.72,18.17-28.9Z" style="fill:#142d4d; fill-rule:evenodd;"/><path d="M523.5,853.53c-5.16,9.83-11.83,17.79-20.01,23.85,12.76-7.21,24.86-19.03,36.3-35.46-6.48,3.8-12.09,7.87-16.29,11.61h0Zm119.38,156.47c1.42-5.31,3.12-11.16,5.1-17.54-1.95-10.79,.12-25.96,6.18-45.5-1.38-9.75-2.37-18.01-3-24.8-8.14,27.26-10.97,55.6-8.53,85.03,.36-.09,.71-.19,1.07-.28-.28,1.03-.55,2.07-.82,3.1Z" style="fill:#406fb5; fill-rule:evenodd;"/><path d="M720.21,1353.26c1.56,8.59,1.01,18.33-1.62,29.22,4.1,.53,.66,6.58,5.42,6.55,8.96-8.7,10.9-25.53,13.11-34.7-1.29-1.48-2.43-3.25-3.41-5.31-39.86-96.73-26.52-111.97-61.46-147.47,.79-2.83,1.55-5.6,2.28-8.31-12.92,3.93-25.37,7.07-37.5,9.39l.76,2.47c15.95,37.85,51.26,86.94,82.42,148.16h0Zm-164.6-316.37c-.74,1.91-1.45,3.79-2.15,5.65l2.15-5.65h0Zm-22.17,163.72c-5.08,38.87,8.61,101.25,4.78,164.94-2.67,6.91-6.75,14.06-12.24,21.45,3.51,2.33-2.36,6.19,1.93,8.32,11.93-3.71,21.26-17.86,27.38-25.03-1.1-1.68-2.03-3.72-2.75-6.13,8.23-70.13,26.52-100.59,16.46-157.55-11.82-1.03-23.62-3.01-35.56-5.98Z" style="fill:#f4ae7c; fill-rule:evenodd;"/><path d="M548.46,778.26c-14.77-4.9-12.5,5.79-14.99,16.75,5.47,2.95,8.5,5.56,10.64,10.46,4.09-3.15,7.21-2.37,9.95-6.69,4.58-5.71,10.28-16.7,4.34-17.34-1.76,4.83-4,5.92-6.74,7.91,.2-2.4,.65-4.77,1.35-7.13,.81-3.07,2.61-6.32,5.4-9.73,5.46-1.51,7.65-3.21,6.55-5.11-6.81-1.08-12.31,2.55-16.48,10.89Z" style="fill:#f4ae7c; fill-rule:evenodd;"/><path d="M634.23,1060.32c-2.27,8-3.81,15.77-4.6,23.32,4.06,10.49,9.05,16.33,14.95,17.51,6.74-.57,8.02-5.73,9.61-9.4-4.01-3.11-6.36-6.81-7.05-11.1,3.64-2.91,4.57-5.93,2.78-9.08,.72-1.79,1.39-3.4,2-4.83-4.5-5.47-8.65-6.64-12.73-6.72-1.66,.03-3.31,.19-4.97,.3Z" style="fill:#f4ae7c; fill-rule:evenodd;"/><path d="M539.79,841.92c-3.91,2.29-7.5,4.69-10.66,7.04-2.08,1.55-3.97,3.08-5.63,4.57-5.16,9.83-11.83,17.79-20.01,23.85,8.87-5.01,17.41-12.24,25.64-21.7,3.61-4.16,7.16-8.75,10.66-13.76Z" style="fill:#406fb5; fill-rule:evenodd;"/></svg>