<?xml version="1.0" encoding="UTF-8"?><svg id="a" xmlns="http://www.w3.org/2000/svg" viewBox="0 0 2159.13 1506.18"><path d="M1049.41,0c250.22,0,355.64,179.03,536.28,318.21,239.09,184.2,478.15,64.29,516.43,686.65,34.07,553.93-391.07,59.97-990.51,258.4C512.18,1461.68-98.33,1541.57,82.83,899.59,263.99,257.6,468.01,0,1049.41,0Z" style="fill:#e9eff8; fill-rule:evenodd;"/><path d="M1673.27,287.91c-43.32,0-78.43-35.12-78.43-78.43s35.11-78.43,78.43-78.43,78.43,35.12,78.43,78.43-35.12,78.43-78.43,78.43h0Zm117.28,46.64h0ZM1724.78,11.47h0Zm-175.23,70.44h0Zm3.63,245.09c11.05,11.28,23.69,21.04,37.58,28.88l-2.14,39.88,33.13,11.73,23.46-32.35,9.06,1.28,38.29-.02,21.71,33.54,29.63-8.43,1.03-.38,3.06-1.17-.05-39.94,6.6-3.46,32.45-23.39,3.57,1.37,33.68,13c7.91-8.65,15.09-17.97,21.44-27.89l-23.49-32.25c7.26-13.88,12.64-28.89,15.83-44.7l38.55-10.25,.93-35.17-37.96-12.28c-2.32-16-6.92-31.27-13.44-45.47l25.16-30.96c-5.82-10.24-12.49-19.94-19.93-28.98l-37.96,12.38-37.56-28.88,2.14-39.88c-10.57-4.82-21.66-8.76-33.16-11.72l-23.43,32.32-47.37-1.24-21.71-33.54-33.72,9.98,.03,39.93c-14.29,7.1-27.4,16.17-39.02,26.85l-10.02-3.84-27.24-10.51c-7.91,8.63-15.08,17.97-21.43,27.88l23.49,32.25c-7.26,13.84-12.66,28.84-15.82,44.7l-38.56,10.26-.93,35.18,37.96,12.28c2.34,15.96,6.92,31.23,13.44,45.47l-25.16,30.97c5.82,10.24,12.49,19.93,19.94,28.97l37.95-12.38Z" style="fill:#bcc9e7; fill-rule:evenodd;"/><path d="M1782.71,302.12c-.93,0-1.87-.32-2.63-.96-1.76-1.46-2.01-4.07-.54-5.82,19.99-24.04,31.02-54.54,31.02-85.87,0-15-2.46-29.73-7.3-43.78-.74-2.15,.41-4.51,2.57-5.25,2.17-.74,4.51,.4,5.25,2.56,5.14,14.92,7.73,30.55,7.73,46.47,0,33.25-11.68,65.63-32.91,91.16-.81,.98-1.98,1.49-3.18,1.49Z" style="fill:#fff; fill-rule:evenodd;"/><path d="M1771.1,112.74c-1.02,0-2.03-.37-2.84-1.12-13.43-12.65-29.01-22.24-46.25-28.5-2.14-.78-3.25-3.15-2.48-5.3,.79-2.15,3.16-3.25,5.3-2.48,18.33,6.65,34.85,16.83,49.12,30.26,1.65,1.56,1.74,4.18,.16,5.84-.81,.86-1.9,1.3-3,1.3Z" style="fill:#fff; fill-rule:evenodd;"/><path d="M1642.16,79.3c-1.85,0-3.54-1.25-4.02-3.12-.54-2.21,.79-4.46,3-5.02,11.38-2.87,23.17-4.33,35.01-4.33,2.3,0,4.15,1.85,4.15,4.13s-1.85,4.14-4.15,4.14c-11.16,0-22.25,1.37-32.98,4.08-.34,.09-.67,.13-1.01,.13Z" style="fill:#fff; fill-rule:evenodd;"/><path d="M469.38,342.65c-29.21,0-52.9-23.69-52.9-52.9s23.69-52.9,52.9-52.9,52.9,23.68,52.9,52.9-23.69,52.9-52.9,52.9h0Zm79.11,31.46h0Zm-44.36-217.92h0Zm-118.19,47.51h0Zm2.45,165.32c7.45,7.61,15.99,14.19,25.35,19.48l-1.45,26.9,22.34,7.91,15.82-21.82,6.11,.86h25.83s14.64,22.61,14.64,22.61l19.99-5.68,.69-.25,2.06-.79-.03-26.94,4.45-2.34,21.89-15.77,2.41,.92,22.71,8.77c5.34-5.84,10.18-12.12,14.46-18.81l-15.84-21.75c4.89-9.36,8.52-19.48,10.67-30.15l26-6.91,.62-23.73-25.61-8.28c-1.56-10.79-4.66-21.09-9.06-30.67l16.97-20.89c-3.92-6.91-8.42-13.45-13.44-19.54l-25.61,8.35-25.33-19.48,1.44-26.9c-7.13-3.25-14.61-5.91-22.36-7.91l-15.8,21.8-31.96-.84-14.64-22.62-22.75,6.74,.03,26.94c-9.63,4.78-18.49,10.9-26.33,18.11l-6.76-2.59-18.37-7.09c-5.33,5.82-10.18,12.12-14.46,18.81l15.85,21.75c-4.9,9.34-8.54,19.45-10.67,30.15l-26,6.92-.64,23.72,25.61,8.28c1.57,10.77,4.67,21.07,9.06,30.67l-16.97,20.89c3.93,6.9,8.43,13.44,13.45,19.54l25.59-8.35Z" style="fill:#bcc9e7; fill-rule:evenodd;"/><path d="M543.2,352.23c-.62,0-1.26-.21-1.78-.65-1.18-.99-1.35-2.74-.36-3.93,13.49-16.22,20.93-36.79,20.93-57.92,0-10.12-1.66-20.05-4.93-29.53-.5-1.46,.27-3.04,1.73-3.54,1.46-.5,3.04,.27,3.54,1.73,3.47,10.06,5.21,20.61,5.21,31.35,0,22.43-7.87,44.27-22.2,61.49-.55,.67-1.34,1.01-2.14,1.01Z" style="fill:#fff; fill-rule:evenodd;"/><path d="M535.37,224.49c-.69,0-1.37-.25-1.92-.76-9.06-8.53-19.57-15-31.2-19.23-1.44-.52-2.18-2.12-1.67-3.57,.53-1.45,2.12-2.19,3.57-1.67,12.36,4.49,23.5,11.35,33.13,20.41,1.11,1.06,1.17,2.82,.11,3.94-.55,.58-1.28,.87-2.02,.87Z" style="fill:#fff; fill-rule:evenodd;"/><path d="M448.39,201.93c-1.24,0-2.38-.84-2.7-2.11-.37-1.49,.53-3.01,2.02-3.38,7.68-1.94,15.63-2.92,23.61-2.92,1.55,0,2.8,1.25,2.8,2.79s-1.25,2.79-2.8,2.79c-7.53,0-15.01,.93-22.24,2.75-.23,.06-.46,.09-.69,.09Z" style="fill:#fff; fill-rule:evenodd;"/><path d="M1157.82,846.79c187.72,0,339.89,18.31,339.89,40.9s-152.18,40.89-339.89,40.89-339.9-18.3-339.9-40.89,152.18-40.9,339.9-40.9Z" style="fill:#d0d9ee; fill-rule:evenodd;"/><path d="M1489.74,161.01s-10.94,9.84-11.58,8.83c-.49-.76,5.82-5.78,11.18-12.51,1.38-1.71,2.73-3.43,3.96-5.02,3.24-4.19,1.57-7.36-2.51-3.56-1.44,1.4-3.79,3.69-5.23,5.52-1.54,2.03-3.64,3.43-5.2,4.95-3.12,2.98-5.35,5.14-5.41,4.95-.06-.25-1.12-.06,.29-1.97,1.7-2.29,6.37-6.29,8.59-9.84,1.26-1.97,4.16-5.97,4.16-5.97,0,0,3.97-7.05,3.62-7.37-1.88-1.78-6.18,2.48-7.52,5.4-1.83,1.46-4.75,5.78-4.75,5.78,0,0-7.91,7.36-8.98,6.29-.89-.89,14.54-22.28,12.54-23.87-1.64-1.34-6.58,4.89-6.58,4.89,0,0-2.67,3.94-3.69,5.2-1.15,1.46-5,5.65-5,5.65,0,0-14.09,13.78-15.03,12.7-.93-1.14-2.18-4.95-1.62-6.16,.59-1.14,2.76-2.73,3.32-3.87,.57-1.14,.31-3.11-1.07-3.93-1.41-.82-6.34,3.68-6.34,3.68,0,0-3.96,3.75-5.05,7.3-3.72,12.5-1.49,12.63-2.01,14.22-.62,1.84-21.46,18.28-21.46,18.28l-52.98,41.33-78.74,20.19-.68,41.52s85.04-24.25,89.26-26.28c0,0,69.11-69.07,74.28-73.96,0,0,11-4.7,17.79-7.87,6.82-3.17,11.82-9.2,13.6-10.41,.26-.13,5.94-4.44,11.49-11.55,4.79-6.16-2.62-2.54-2.62-2.54Z" style="fill:#f4ae7c; fill-rule:evenodd;"/><path d="M1450.63,177c3.42-4.76,4.55-9.71,2.89-15.24,4.42,4.89,2.05,12.51-2.89,15.24Z" style="fill:#ef8857; fill-rule:evenodd;"/><path d="M1326.13,239.22l7.53,49.07s-79.17,43.93-101.91,25.84c-22.76-18.16,3.12-62.41,11.86-66.34,8.73-4,82.52-8.57,82.52-8.57Z" style="fill:#406fb5; fill-rule:evenodd;"/><path d="M1185.11,870.49c.54-4.7-1.19-11.04-.52-18.66,5.16-59.35,16.32-193.43,16.32-193.43,0,0,12.62-106.21,13.6-173.43-13.6-1.21-26.92-3.56-40.08-6.86-28.62-7.3-47.8-18.98-75.07-32.18-14.89,54.85-42.46,155.53-42.46,155.53,0,0,.05,21.46-28.49,21.46-25.04,0-129.1,87.1-149.7,100.05,2.66,6.29,9.39,12.5,12.45,18.72,33.08-27.04,203.45-89.25,203.45-89.25l46.22-117.19s13.89,143.66,2.69,154.9c-11.21,11.17,19.87,172.17,19.87,180.35,0,1.01,13.09-.19,21.72,0Z" style="fill:#f4ae7c; fill-rule:evenodd;"/><path d="M1137.42,504.7s9.96,158.83,4.98,168.16c-4.98,9.33-8.71,24.88-4.98,64.12,3.73,39.23,14.94,107.8,14.94,107.8l36.75,1.2,14.94-187.46,12.78-173.82,.31-3.68-49.83-37.39-29.89,61.07Z" style="fill:#142d4d; fill-rule:evenodd;"/><path d="M900.72,697.75l16.2,29.27s146.72-48.31,177.51-70.97c11.84-8.7,61.05-127.66,61.05-127.66l38.82-46.09,.4-25.58-83.36-36.63s-30.28,34.09-36.22,47.87c-14.83,34.35-24.9,147.6-24.9,147.6,0,0,1.23-4.38-26.79,3.11-28.03,7.49-122.71,79.1-122.71,79.1Z" style="fill:#0f3970; fill-rule:evenodd;"/><path d="M1265.1,244.61l-33.23-10.86s-15.98-.63-27.15,2.98c-13.3,4.32-23.57,19.62-33.04,37.52-23.01,43.42-37.14,109.19-45.48,126.4-2.79,5.84-31.14,31.17-48.93,39.29,27.25,13.21,68.55,30.86,97.17,38.15,13.15,3.3,28.8,5.46,42.4,6.67,.1-6.6,6.81-42.22,20.87-75.1,17.28-40.37,42.81-80.31,46.2-102.21,6.11-39.74-18.8-62.85-18.8-62.85Z" style="fill:#6998d0; fill-rule:evenodd;"/><path d="M1268.77,227.47l-3.28,19.93s-3.3,15.55-10.79,14.98c-9.02-.76-23.26-28.31-23.26-28.31l11.64-40.44,25.69,33.84Z" style="fill:#f4ae7c; fill-rule:evenodd;"/><path d="M1245.04,200.3c.64,20.44,12.19,31.3,22.31,35.87l1.42-8.7-23.87-31.42c.03,1.46,.08,2.92,.14,4.25Z" style="fill:#ec724c; fill-rule:evenodd;"/><path d="M1283.47,154.59c7.54,1.14,13.34,4.19,14.85,12.06,1.25,6.6-1.02,15.94-.82,26.79,.33,20.06-9.63,39.87-19.54,39.87-9.9-.06-32.02-9.97-32.92-38.4-.41-12.25-.92-28.25,10.08-34.98,8.55-5.2,19.67-6.6,28.34-5.33Z" style="fill:#f4ae7c; fill-rule:evenodd;"/><path d="M1238.98,207.92s-17.73-27.42-15.62-51.42c2.11-24,20.16-33.08,39.06-30.92,8.52,1.01,56.63,13.65,50.01,28.44-8.9,19.81-49.76,2.86-58.71,8.06-7.38,4.32,1.37,18.67-5.78,22.6-6.7,3.68-3.39,2.54-2.73,11.56,.68,9.01-6.23,11.68-6.23,11.68Z" style="fill:#0f3970; fill-rule:evenodd;"/><path d="M1235.99,186.91c-.02,5.84,2.83,10.54,6.35,10.54,3.53,.06,6.4-4.7,6.43-10.47,0-5.84-2.84-10.6-6.37-10.6s-6.41,4.7-6.41,10.54Z" style="fill:#f4ae7c; fill-rule:evenodd;"/><path d="M906.56,732.67s-9.81-6.35-10.97-9.97c-1.15-3.68,1.63-12.82-2.43-14.92-4.05-2.16-29.97,6.42-33.84,9.33-4.76,3.62-6.62,9.27-5.45,13.01,1.18,3.68,35.67,66.15,42.98,74.08,7.28,7.94,16.35-9.58,10.94-20.5-5.4-10.92,.87-33.9-1.23-51.04Z" style="fill:#142d4d; fill-rule:evenodd;"/><path d="M1186.76,853.41s-10.35,5.33-14.09,4.57c-3.74-.83-10.33-7.75-14.17-5.27-3.82,2.48-9.2,29.27-8.59,34.04,.76,5.96,4.78,10.35,8.61,11.17,3.81,.83,75.16,1.72,85.64-.7,10.51-2.41-.25-18.98-12.41-19.68-12.15-.69-29.03-17.52-45-24.12Z" style="fill:#142d4d; fill-rule:evenodd;"/><path d="M593.89,476.47c4.47,0,8.73,.73,12.64,2.05-.42-2.04-.64-4.16-.64-6.32,0-18.56,16.12-33.61,36.01-33.61,3.53,0,6.93,.48,10.15,1.36,5.04-23.76,27-41.63,53.33-41.63,30.05,0,54.41,23.29,54.41,52.01,0,4.94-.72,9.71-2.06,14.24,19.66,1.33,35.14,15.14,35.14,32.97s-17.05,32-27.54,34.94c-1.57,.44-3.72,.41-6.23,0h-165.2c-18.56,0-33.6-12.54-33.6-28.01s15.05-28,33.6-28Z" style="fill:#fff; fill-rule:evenodd;"/><path d="M867.1,171.4c5.74,0,11.21,.93,16.21,2.63-.53-2.62-.81-5.33-.81-8.1,0-23.81,20.68-43.11,46.19-43.11,4.52,0,8.89,.61,13.02,1.74,6.45-30.47,34.62-53.4,68.4-53.4,38.55,0,69.8,29.87,69.8,66.72,0,6.33-.93,12.46-2.65,18.26,25.22,1.7,45.08,19.43,45.08,42.29s-21.87,41.05-35.32,44.82c-2.02,.57-4.77,.53-8,0h-211.91c-23.81,0-43.11-16.08-43.11-35.92s19.3-35.92,43.11-35.92Z" style="fill:#fff; fill-rule:evenodd;"/><path d="M1546.15,580.44c-.93-1.34-1.47-2.97-1.47-4.72v-4.4c0-4.61,3.75-8.35,8.36-8.35h49.45c4.6,0,8.36,3.75,8.36,8.35v4.4c0,1.75-.54,3.38-1.47,4.72,.93,1.33,1.47,2.95,1.47,4.69v4.23c0,1.65-.49,3.18-1.32,4.47,.14,.21,.28,.43,.4,.65l.89,.65v5.32l-.03,.27c-.67,6.76-6.39,11.95-13.19,11.95h-2.83l-.69,1.13c-2.38,3.9-4.92,4.95-9.34,4.95h-13.92c-4.43,0-6.96-1.04-9.35-4.95l-.69-1.13h-2.84c-6.7,0-12.37-5.05-13.15-11.69l-.04-.32v-3.68l.15-.63c.22-.92,.6-1.77,1.12-2.52-.83-1.29-1.32-2.83-1.32-4.47v-4.23c0-1.74,.54-3.36,1.47-4.69Z" style="fill:#d0d9ee; fill-rule:evenodd;"/><path d="M1607.92,569.34c-1.01,.11-2.03,.17-3.04,.17h-46.86c-10.05,0-18.94-5.59-18.94-16.47v-1.21c-.19-11.11-3.57-19.81-9.35-29.12-5.12-8.25-11.12-15.81-15.93-24.31-6.15-10.88-9.6-21.82-10.4-34.33-.21-3.3-.19-6.61,.07-9.9l.02-.26,.05-.26c5.82-35.51,39.38-57.16,73.93-57.16,24.15,0,48.39,10.45,62.74,30.3,8.87,12.27,12.88,26.74,11.92,41.83-.75,11.99-3.98,22.55-9.76,33.04-4.51,8.19-10.15,15.48-15.04,23.39-5.68,9.21-9,17.74-9.19,28.6v1.29c0,5.8-2.72,10.74-7.75,13.61l-1.16,.65-1.32,.15Z" style="fill:#d0d9ee; fill-rule:evenodd;"/><path d="M1607.2,562.93c-.75,.08-1.53,.13-2.32,.13h-46.86c-6.86,0-12.49-3.15-12.49-10.02v-1.33c-.63-36.9-33.07-47.24-35.69-88.06-.2-3.06-.17-6.06,.07-8.97,5.08-30.96,34.5-51.75,67.57-51.75,37.67,0,70.63,26.99,68.22,65.27-2.5,39.6-33.39,49.64-34,85.44v1.29c0,3.81-1.76,6.45-4.49,8Z" style="fill:#fff; fill-rule:evenodd;"/><path d="M1605.28,600.18c-.38,3.9-3.7,6.98-7.7,6.98h-5.92l-2.31,3.76c-1.32,2.16-2.1,2.31-4.64,2.31h-13.92c-2.54,0-3.32-.14-4.65-2.31l-2.3-3.76h-5.93c-3.94,0-7.22-2.99-7.67-6.82v-2.71c.21-.88,1.01-1.54,1.95-1.54h51.12c.95,0,1.75,.67,1.95,1.56,.02,.08-.03,.25,.01,.28v2.25h0Zm-52.36-17.78h49.67c1.5,0,2.73,1.22,2.73,2.73v4.23c0,1.5-1.23,2.73-2.73,2.73h-49.67c-1.5,0-2.73-1.23-2.73-2.73v-4.23c0-1.5,1.23-2.73,2.73-2.73h0Zm.11-13.93h49.45c1.56,0,2.84,1.28,2.84,2.84v4.4c0,1.56-1.28,2.84-2.84,2.84h-49.45c-1.56,0-2.84-1.28-2.84-2.84v-4.4c0-1.56,1.28-2.84,2.84-2.84Z" style="fill:#8d9fca; fill-rule:evenodd;"/><path d="M1569.54,563.06l-5.7-68.94h-8.09c-3.49,0-6.67-1.43-8.96-3.73h0c-2.3-2.31-3.73-5.48-3.73-8.97s1.43-6.67,3.73-8.97c2.3-2.3,5.47-3.73,8.96-3.73s6.44,1.38,8.67,3.61c2.26,2.26,3.71,5.41,4.01,8.84l.63,7.24h24.75l.63-7.24c.3-3.43,1.75-6.58,4.02-8.84,2.22-2.23,5.21-3.61,8.66-3.61s6.66,1.43,8.96,3.73h0c2.3,2.3,3.72,5.47,3.72,8.97s-1.43,6.67-3.72,8.97c-2.3,2.3-5.47,3.73-8.97,3.73h-8.09l-5.7,68.94h-5.7l5.68-68.94h-23.76l5.67,68.94h-5.69Zm-6.2-74.64l-.59-6.75c-.18-2.09-1.04-3.97-2.37-5.3-1.19-1.2-2.8-1.94-4.64-1.94s-3.67,.79-4.94,2.05c-1.27,1.27-2.06,3.02-2.06,4.94s.79,3.68,2.04,4.94h.01c1.27,1.27,3.02,2.06,4.94,2.06h7.6Zm36.2,0h7.59c1.92,0,3.67-.79,4.94-2.06,1.26-1.27,2.05-3.02,2.05-4.94s-.79-3.67-2.05-4.94h0c-1.26-1.27-3.02-2.05-4.94-2.05s-3.43,.74-4.63,1.94c-1.33,1.33-2.19,3.22-2.38,5.3l-.58,6.75Z" style="fill:#8d9fca; fill-rule:evenodd;"/><path d="M239.12,1420.75c132.06,0,239.12,18.3,239.12,40.89s-107.06,40.9-239.12,40.9S0,1484.23,0,1461.64s107.06-40.89,239.12-40.89Z" style="fill:#d0d9ee; fill-rule:evenodd;"/><ellipse cx="1518.17" cy="1430.52" rx="239.12" ry="40.9" style="fill:#d0d9ee;"/><path d="M1910.35,1057.42c132.06,0,239.11,18.31,239.11,40.9s-107.05,40.9-239.11,40.9-239.12-18.31-239.12-40.9,107.06-40.9,239.12-40.9Z" style="fill:#d0d9ee; fill-rule:evenodd;"/><path d="M1466.28,329.6c-2.27,2.09-5.81,1.94-7.89-.33-2.09-2.27-1.95-5.81,.32-7.9,73.71-67.78,163.15-102.81,252.47-110.21-73.17,1.04-153.84,22.31-239.68,70.49-14.58,8.18-28.22,16.96-40.97,26.25-58.93,73.55-72,181.48-51.45,288.37,11.07,57.57,31.88,114.8,60.53,166.21,28.6,51.32,65.02,96.83,107.32,131.05,19.08,15.43,39.37,28.56,60.69,38.88,6.31,1.44,12.72,2.73,19.25,3.88,57.55-6.66,118.22-22.75,182.77-51.87,45.6-20.57,88.49-46.12,128.64-75.32,14.7-10.7,29.03-21.89,43-33.51,39.38-38.9,71.35-81.74,91.97-125.37,10.6-22.44,18.19-45.05,22.2-67.38,2.08-11.54,3.84-22.83,5.32-33.86-3.73-22.08-9.36-44.03-16.79-65.51-26.02-75.26-74-144.83-139-194.83-32.91-25.32-70.2-45.6-111.23-59.06-9.71-1.99-19.52-3.65-29.41-4.97-115.23-15.36-240.76,15.5-338.08,105h0Zm370.87-110.73c-103.35-33.94-229.59-25.75-368.95,51.84,4.25-3.31,8.65-6.51,13.21-9.57,55.15-37,113.81-64.91,172.28-82.93,52.97-6.55,112.35-3.27,178.01,12.33,65.63,15.59,123.42,49.62,169.7,93.98,12.37,11.85,23.9,24.44,34.55,37.61-27.95-27.4-60.65-50.27-96.48-68.07-31.98-15.89-66.47-27.74-102.3-35.19h0Zm97.35,45.21c40.07,19.91,76.09,46.32,105.65,78.46,28.33,30.81,50.73,66.91,65.04,107.6l1.03,3.37c.55,18.95,.03,38.87-1.63,59.76-2.88-11.24-6.23-22.41-10.05-33.45-26.71-77.26-75.97-148.69-142.72-200.04-11.01-8.48-22.5-16.4-34.44-23.72,5.78,2.54,11.49,5.21,17.12,8h0Zm182.82,186.91c15.55,46.47,21.01,98.58,13.43,155.41-4.31,32.36-12.31,61.71-23.13,88.41-1.68,6.9-3.58,13.75-5.71,20.53-31.43,100.01-112,185-253.68,221.09-77.38,39.35-150.85,41.46-216.26,18.33-23.81,1.24-47.24,.19-69.93-3.45-132.23-.11-248.22-45.71-358.32-88.99-59.38-23.35-117.03-46.02-174.55-60.31,8.89,24.4,16.12,51.36,21.14,79.55,24.07,11.92,43.33,31.63,55.92,55.92,12.53,24.18,18.45,52.9,15.91,82.94-.67,7.93-1.93,15.96-3.82,24.02,4.06,7.56,7.17,15.48,9.35,23.61,7.62,28.52,3.71,59.64-11.31,87.47-25.35,46.99-82.4,84.71-168.87,84.41-13.12-.05-23.74-3.83-32.32-10.35-3.86,1.61-7.65,3.11-11.36,4.5,36.32,6.52,62.99,18.81,71.3,37.03,15.85,34.71,19.67,61.12,15.03,80.61-4.17,17.52-14.96,29.45-29.95,36.81-14.38,7.05-32.59,9.77-52.4,9.1-18.67-.62-38.9-4.25-58.73-10.04-66.09,61.72-159.76,139.31-242.52,81.34-21.44,10.9-43.97,19.8-65.97,26.16-26.05,7.53-51.38,11.5-73.32,11.06-37.61-.76-65.53-14.38-71.39-44.94-2.51-13.09-4.57-25.53-6.12-37.36-16.14-10.04-29.67-24.55-39.73-44.09-70.61-44.1-115.23-110.26-102.7-184.85,.75-4.53,1.61-8.95,2.57-13.28-21.34-52.36-32.2-106.34-25.53-150.4-.6-2.62-1.15-5.23-1.65-7.83-14.11-74.12,13-144.74,59.79-203.94,46.42-58.74,112.31-106.27,176.28-134.67,7.32-3.25,14.62-6.25,21.87-8.99,.94-8.34,2.06-16.9,3.37-25.68,.75-5.04,1.92-9.77,3.44-14.21,10.61-30.83,38.66-47.53,72.81-55.14,33.1-7.38,72.02-6.18,105.84-1.12,21.16,3.16,40.39,7.84,55,12.87,75,25.82,124.55,61.19,155.67,99.92,2.77,2.61,5.47,5.27,8.11,7.97,8.92-8.08,18.08-13.11,27.31-15.43,32.97-8.28,65.76,17.52,91.84,62.32,7.31,12.55,14.12,26.63,20.27,41.88,60.56,14.37,121.11,38.18,183.54,62.72,94,36.97,192.35,75.62,301.43,85.62-6.76-2.52-13.42-5.32-19.97-8.42-71.34-33.7-127.04-88.71-163.58-153.79-28.84-51.36-45.75-109.04-49.01-167.52-3.25-58.52,7.15-117.85,32.96-172.47,19.52-41.32,47.85-79.93,85.7-113.43,2.02-2.94,4.07-5.86,6.16-8.74,55.37-76.26,139.21-132.24,250.35-146.05,39.12-11.96,78.16-19.57,116.04-22.61,74.39-5.96,144.4,5.72,201.99,36.79,57.82,31.19,103.04,81.83,127.54,153.66,11.56,33.9,18.49,72.53,19.92,116.06h0Zm-49.58,315.97c-32.41,58.62-86.25,108.33-164.8,139.96,39.49-22.68,80.9-50.3,117.61-85.71,16.96-16.35,32.91-34.34,47.19-54.26h0Zm-54.94,46.21c-52.59,50.71-115.42,85.34-167.82,112.38l-.66,.33c-24.65,6.23-51.19,10.95-79.71,13.97-18.79,1.99-36.95,3.01-54.48,3.14,52.06-12.68,104.08-34.58,152.55-62.89,46.2-26.99,89.21-59.84,125.98-96.1,27.55-22.94,53.68-47.53,78.38-73.28,14.34-14.96,26.13-31.26,35.52-48.55-1.44,9.81-3.29,19.54-5.6,29.15-20.04,49.07-49.97,88.88-84.15,121.84h0Zm-449.88,106.19c-83.99-30.41-144.48-87.73-182.19-157.6-36.42-67.47-51.71-146.66-46.52-224.67,4.45-66.93,23.98-132.96,58.19-189.94-35.64,71.61-41.49,161.86-24.3,251.25,11.29,58.69,32.52,117.07,61.76,169.53,29.28,52.54,66.63,99.18,110.08,134.33,7.49,6.05,15.15,11.76,22.99,17.1h0Zm101.81,33.13c39.12,8.75,80.8,8.11,124.19-4.41-7.59,1.08-15.3,2.05-23.18,2.88-35.9,3.8-69.56,4.17-101,1.52h0Zm-190.8-699.75c28.42-22.97,61.11-41.78,97.97-55.14-32.93,15.12-65.39,33.26-96.72,54.28l-1.25,.86h0Zm294.81-97.1c72.31-5.79,140.2,5.47,195.82,35.48,55.38,29.88,98.73,78.46,122.24,147.41,7.67,22.47,13.23,47.11,16.44,73.97-21.03-49.68-53.2-96.78-94.12-136.01-47.67-45.7-107.22-80.76-174.86-96.83-44.05-10.46-85.35-15.49-123.87-15.82,19.66-3.91,39.16-6.65,58.36-8.19h0Zm347.95,344.05c-.88,15.8-2.42,32.17-4.64,49.09,2.11,12.79,3.6,25.62,4.44,38.43,4.8-28.26,4.7-57.81,.2-87.52h0Zm-11.23,90.19c.77,12.68,.89,25.34,.33,37.91-10,27.4-25.43,52.86-46.82,75.18-3.19,3.32-6.4,6.63-9.64,9.92,13.33-18.96,24.78-38.34,34.01-57.9,10.2-21.58,17.72-43.41,22.11-65.11h0Zm-547.03,349.5c-22.37-4.02-43.97-10.72-64.43-20.39-69.13-32.67-123.14-86.01-158.58-149.16-28.01-49.9-44.44-105.91-47.6-162.67-3.16-56.72,6.91-114.2,31.91-167.09,13.08-27.68,30.26-54.11,51.77-78.53-28.15,53.68-44.4,113.9-48.45,174.84-5.31,80.02,10.41,161.32,47.84,230.67,43.36,80.33,115.73,144.58,218.1,172.32-9.12,.42-18.15,.62-27.11,.61l-3.44-.6h0Zm-542.37-140.48c-25.64-5.8-51.3-9.8-77.08-11.35,5.07,17.06,6.93,34.16,4.84,50.63-1.81,14.25-13.72,30.65-32.62,46.91-3.02,9.05-6.56,17.57-10.46,25.42,12.98-20.29,35.07-33.41,72.99-39.58,23.38-3.8,45.04-1.56,64.22,5.37-5.32-27.63-12.81-53.86-21.89-77.4h0Zm-88.88-11.91c-2.61-.08-5.21-.13-7.81-.16,3.57,22.08,3.24,43.67,.15,63.76-.77,5.07-1.73,10.03-2.84,14.89,9.26-10.09,14.94-19.9,16.06-28.71,2.04-16.11-.09-32.96-5.57-49.78h0Zm-19.15-.08c-21.12,.42-42.37,2.66-63.83,7.08-2.09,4.45-4.47,9.36-7.03,14.61l-4.77,9.87c17.79,16.95,30.14,38.19,36.41,60.88,1.87,6.74,3.2,13.61,3.98,20.53,10.6-6.46,20.13-13.14,28.3-19.83,3.17-9.78,5.69-20.21,7.37-31.12,3-19.54,3.26-40.56-.42-62.01h0Zm-77.72,10.23c-6.19,1.54-12.39,3.28-18.61,5.2,4.18,2.65,8.17,5.49,11.96,8.51l6.65-13.71h0Zm-32.78,9.9c-4.95,1.75-9.91,3.63-14.89,5.64,.93,3.84,1.77,7.73,2.52,11.67,1.77,9.33,3.05,18.94,3.81,28.78,4.74,1.42,9.38,2.93,13.9,4.55,4.84-12.57,10.42-24.99,15.84-36.48-6.4-5.34-13.47-10.1-21.18-14.17h0Zm-25.32,10.07c-15.22,6.7-30.59,14.62-46.12,23.91l6.38,.69c15.54,1.83,30.67,4.58,45.01,8.24-.75-8.03-1.86-15.89-3.31-23.55-.6-3.12-1.26-6.23-1.96-9.29h0Zm-61.98,33.85l-.89,.57c4.88,3.24,9.69,6.52,14.44,9.84l4.2-.09c16.17-.18,33.43,1.5,50.51,5.24l-.19-4.84c-14.85-3.96-30.73-6.92-47.1-8.85-6.92-.81-13.92-1.44-20.97-1.87h0Zm-10.93,7.32c-2.94,2.03-5.88,4.11-8.83,6.24l-2.13,1.54c5.56-1.4,11.49-2.5,17.7-3.29l-6.74-4.48h0Zm-15.34-2.81l5.25-3.72-2.42-1.54c-17.84-.03-35.7,1.18-52.93,3.67-7.85,1.14-15.56,2.53-23.08,4.2-3.2,10.71-5.09,22.5-5.77,34.95,1.83,2.76,3.53,5.55,5.13,8.37,24.23-13.3,49.06-28.04,73.82-45.93h0Zm23.28-15.89c21.01-13.52,41.69-24.63,62.1-33.54-1.03-3.61-2.14-7.17-3.33-10.67-31.28-7.26-69.47-4.74-113.51,12.47-2.88,1.12-5.61,2.44-8.2,3.92,15.55,8.89,30.85,17.95,45.73,27.29,5.75,.05,11.5,.23,17.22,.53h0Zm72.47-37.9l3.14-1.23-3.93-1.41,.79,2.64h0Zm18.41-6.85c12.89-4.44,25.68-8.05,38.39-10.89,1.33-2.97,2.45-5.61,3.28-7.86,11.02-29.61,23.18-51.35,35.98-66.3-2.37-3.34-4.86-6.67-7.5-9.97l-3.19-2.94c-24.43-22.14-53.47-40.43-83.87-51.76-30.15-11.24-61.62-15.61-91.19-10.08-19.78,3.7-38.76,11.88-55.97,25.45,37.24,8.52,69.33,26.74,94.55,52.37,19.86,20.18,35.45,44.93,45.92,73.14,8.35,2.32,16.22,5.28,23.6,8.84h0Zm51.64-13.57c18.8-3.45,37.42-5.29,55.94-5.76-.84-3.53-1.78-7.06-2.85-10.6-4.58-15.24-11.35-30.54-20.69-45.52-11.12,13.76-21.89,33.64-31.91,60.59l-.5,1.29h0Zm67.39-5.89l5.72,.08c-3.65-8.74-8.15-17.41-13.4-25.93,1.51,4.06,2.88,8.12,4.1,12.18,1.38,4.56,2.56,9.12,3.58,13.67h0Zm17.83,.49c25.41,1.27,50.67,4.92,75.9,10.31-5.13-11.99-10.69-23.15-16.59-33.28-23.52-40.42-52.02-63.96-79.46-57.07-7.5,1.89-15.03,6.02-22.44,12.66,18.76,20.84,33.59,43.91,42.58,67.37h0Zm-289.91,118.44c-10.01,5.99-19.96,11.62-29.8,17.02,3.94,8.39,6.98,17.03,9.18,25.9,1.21,4.86,2.16,9.79,2.86,14.79l2.59,.52c4.15-20.44,8.72-38.73,13.37-53.72,.48-1.55,1.08-3.06,1.79-4.51h0Zm-39.64,22.36l-.32,.17c.58,9.98,1.84,20.16,3.71,30.38,2.22,.69,4.47,1.36,6.74,1.97-.54-3.12-1.19-6.22-1.95-9.28-1.97-7.94-4.68-15.69-8.17-23.24h0Zm-11.1,5.93l-19.13,10.06c6.92,3.96,14.13,7.39,21.56,10.31-1.08-6.83-1.91-13.64-2.44-20.37h0Zm-22.48-.78c7.18-3.77,14.46-7.58,21.8-11.5-.11-3.64-.12-7.25-.05-10.83l.09-3.22c-6.25-8.99-13.8-17.66-22.71-25.96-7.55,3.08-14.71,6.53-21.39,10.35-6.89,3.94-13.27,8.28-19.03,13.04,9.86,12.78,21.12,23.33,33.46,31.89l.27,.19,7.56-3.97h0Zm-8.21,16.91c-16.73,8.83-32.85,17.55-48.14,26.86,.38,1.95,.81,3.85,1.28,5.73,22.7,8.65,42.83,17.96,60.59,27.74,5.16-1.02,10.4-2.35,15.73-4.02,1.44-.45,2.16-.75,2.47-1.05,.39-.39,.89-1.4,1.65-2.96,1.36-2.77,4.7-3.92,7.46-2.55,2.77,1.35,3.92,4.69,2.56,7.45-1.28,2.63-2.16,4.35-3.8,5.98-1.73,1.72-3.74,2.79-7.02,3.81-1.68,.53-3.35,1.02-5.02,1.48,7.19,4.38,13.93,8.84,20.25,13.36,1.14-4.63,2.13-9.22,2.95-13.78l-1.54-3.84c-5.95-15.24-10.67-31.2-13.97-47.19-12.43-4.37-24.32-10-35.46-17.02h0Zm-65.16,37.74l-3.24,2.21c-.21,2.99-.4,5.94-.56,8.85,6.21,3.24,12.7,5.99,19.45,8.19-2.63-5.04-4.8-10.37-6.55-15.97-2.98-1.1-6.01-2.2-9.09-3.28h0Zm-20.06,14.6c-15.99,12.63-30.51,26.86-43.14,43.73,15.97,.73,32.27,3.22,48.61,7.41-1.15-14.64-1.42-30.67-.71-48.19-1.61-.95-3.19-1.93-4.76-2.94h0Zm-50.81,54.67c-2.53,3.88-4.98,7.87-7.34,12.03-5.13,9.06-9.92,17.32-14.5,25.23-5.41,9.34-10.53,18.2-15.25,26.66,20.17-14.58,43.03-20.97,65.2-19.78,13.75,.74,27.22,4.41,39.59,10.85-4.68-13.34-8.18-28.85-10.27-46.67-17.65-4.84-35.24-7.59-52.38-8.21l-5.05-.12h0Zm-17.05,6.51c1.19-2.1,2.41-4.17,3.65-6.21-30.26,1.71-58.63,10.45-82.79,26.57-7.45,4.98-14.5,10.65-21.1,17.06,12.54,25.87,26.08,48.45,40.31,68.02,4.19-8.22,8.85-15.67,13.91-22.35,8.21-17.6,19.2-36.58,31.57-57.93,4.72-8.14,9.65-16.65,14.46-25.16h0Zm11.08-17.65c13.66-19.72,29.58-35.98,47.21-50.23-9.61-7.29-18.39-15.69-26.25-24.9-4.51-1.19-9.1-2.36-13.76-3.49-73.89-18.1-123.38-12.15-154.04,8.84,1.09,31.04,9.47,66.68,27.17,106.8l3.35,7.41c6.27-5.8,12.92-11.02,19.9-15.67,28.02-18.7,61.21-28.13,96.43-28.75h0Zm56.4-57.36c2.13-1.59,4.29-3.16,6.46-4.7l.07-.77c-6.8-2.22-13.8-4.39-21.01-6.49,4.58,4.29,9.42,8.29,14.49,11.96h0Zm18.82-13.11l6.44-4.13c-1.14-8.82-1.44-18.16-.97-27.96-2.15,5.83-3.64,11.99-4.41,18.47-.54,4.59-1.02,9.08-1.45,13.48l.38,.13h0Zm16.94-10.55c12.66-7.55,25.86-14.75,39.46-21.97-11.33-8.44-21.74-18.48-30.99-30.33-2.22,2.26-4.33,4.6-6.29,7.02-2.62,16.33-3.44,31.47-2.18,45.28h0Zm-139,186.75c-5.35,11.87-9.3,23.08-11.32,34.01,15.18,18.49,31,33.82,47.13,46.29,3.74,.42,7.48,.67,11.22,.74,30.36,.59,60.95-10.26,89.62-33.45,8.34-6.73,16.51-14.5,24.47-23.34-1.58-4.25-3.37-8.3-5.33-12.15-3.04-2.25-5.99-4.76-8.82-7.54-7.05-6.93-13.35-15.58-18.72-26.02-14.17-10.84-30.8-16.89-47.9-17.82-21.84-1.18-44.51,5.99-63.89,22.21-5.82,4.87-11.34,10.55-16.46,17.06h0Zm-12.85,49.5c-.04,5.43,.48,10.83,1.61,16.24,7.87,4.04,15.85,7.29,23.88,9.74-8.64-7.81-17.16-16.46-25.49-25.98h0Zm6.11,30.72c7.45,17.91,22.12,36.42,46.32,57.15,7.2-9.13,15.85-17.3,26.04-24.63-11.49-6-22.93-13.21-34.23-21.75-12.85-1.75-25.61-5.37-38.12-10.78h0Zm54.91,64.27c13.39,10.8,29.29,22.2,48.02,34.45,11.89,7.77,24.08,14.6,36.48,20.51,9.56-13.39,18.07-31.08,25.19-53.66,.99-3.14,1.91-6.24,2.77-9.31-4.94,.05-9.92-.11-14.95-.46-22.24-1.59-45.38-7.21-68.52-17.66-11.64,7.64-21.27,16.3-28.99,26.13h0Zm41.89,43.81c-18.7-12.23-34.74-23.68-48.41-34.54l-1.16,1.91c-10.11,16.98-15.73,37.26-17.45,61.47,9,5.34,18,9.51,26.88,12.3,27.42,8.64,53.81,3.61,75.62-21-12.05-5.88-23.9-12.57-35.48-20.14h0Zm-57.11-41.64c-32.63-27.41-49.71-51.16-55.78-74.47-2.36-1.34-4.72-2.75-7.06-4.22-5.9,28.13-7.32,62.07-2.45,102.14,14.48,15.97,29.57,29.67,44.77,40.2,2.33-23.34,8.31-43.26,18.47-60.34,.67-1.12,1.35-2.22,2.05-3.31h0Zm-58.18-88.97c-.17-2.38-.24-4.76-.21-7.16-.59,1.95-1.15,3.92-1.69,5.92l1.91,1.24h0Zm168.42,146.54c7.39,3.19,14.84,6.06,22.34,8.63,.5-2.94,1.17-5.84,2.02-8.69,8.54-28.46,34.72-51.75,70.34-69.77,7.1-3.59,14.59-6.98,22.4-10.17-2.37-4.8-4.54-9.91-6.5-15.32-22.9,15.07-50.9,24.87-81.45,27.1-1.14,4.3-2.41,8.67-3.8,13.11-7.17,22.74-15.72,40.95-25.35,55.12h0Zm33.14,12.11c26.65,8.03,53.79,12.23,80.63,12.87,27.77-17.87,54.64-38.88,79.12-61.98-28.34,4.88-49.53-5.19-64.98-25.37-1.87-2.45-3.67-5.05-5.37-7.79-7.97,3.21-15.59,6.66-22.81,10.3-32.98,16.69-57.08,37.78-64.64,62.99-.88,2.92-1.53,5.92-1.95,8.97h0Zm101.08,12.68c10.51-.45,20.93-1.45,31.22-2.98,8.53-1.26,16.96-2.88,25.29-4.86,6.35-14.21,9.27-28.97,7.79-43.93-20.17,18.84-41.86,36.28-64.3,51.76h0Zm32.84,8.1c-16.45,2.43-33.23,3.57-50.13,3.35-3.16,2.01-6.34,3.98-9.53,5.9-18.47,11.16-37.22,20.93-55.86,29.03,2,2.84,4.18,5.7,6.54,8.61,17.65-1.1,35.24-3.51,52.49-7.32,18.54-4.1,36.71-9.83,54.23-17.31,7.44-8.1,13.89-16.54,19.13-25.23-5.58,1.14-11.21,2.14-16.88,2.98h0Zm-70.05,2.46c-21.47-1.64-43.05-5.5-64.33-11.7,.65,11.81,4.68,24.49,12.7,38.04,17.2-7.37,34.52-16.22,51.63-26.33h0Zm-75.64-15.22c-9.49-3.16-18.92-6.79-28.25-10.91-25.22,30.74-56.72,37.08-89.73,26.68-7.97-2.51-16.02-6.05-24.08-10.48-.13,7.18,.05,14.67,.52,22.51,31.78,14.04,66.9,24.02,103.19,28.99,4.5,.61,9.02,1.15,13.56,1.61,12.57-3.24,25.41-7.46,38.35-12.56-9.36-16.24-13.6-31.53-13.57-45.84h0Zm182.8-6.69c13.44-3.85,26.52-8.64,39.14-14.32-12.42-9.92-23.89-20.67-34.26-32,2.45,15.81,.52,31.35-4.88,46.32h0Zm79.77-36.8c6.94-4.65,13.65-9.59,20.11-14.85,17.74-14.44,33.58-31.16,46.96-49.97-6.49-2.98-13.59-5.79-21.19-8.41-1.55,.14-3.09,.26-4.6,.36-11.27,27.64-25.22,51.85-41.28,72.87h0Zm27.16-6.19c-14.34,11.66-29.87,21.89-46.31,30.6,17.88,11.83,40.13,22.16,63.25,29.48l12.21-11.54c9.9-9.37,18.96-17.95,27.29-25.32,14.45-12.78,22.04-24.2,24.06-34.35,2.61-13.12-4.55-24.73-18.39-34.86-3.61-2.64-7.65-5.17-12.08-7.6-14.18,20.22-31.06,38.15-50.02,53.57h0Zm-82.53,46.76c-9.82,3.62-19.86,6.75-30.07,9.36-2.98,5.9-6.46,11.69-10.41,17.36,14.1-7.61,27.66-16.49,40.49-26.72h0Zm128.77-114.75l2.94-4.68c-2.93,.78-5.81,1.48-8.63,2.12,1.95,.84,3.84,1.69,5.69,2.57h0Zm10.92-18.69c2.55-4.84,4.95-9.8,7.19-14.85-9.16-.85-18.33-2.33-27.46-4.41-2.9-.66-5.79-1.39-8.68-2.16-2.09,7.52-4.36,14.82-6.79,21.92,9.63,.32,18.98,.93,27.94,1.82,2.55-.71,5.15-1.48,7.8-2.32h0Zm15.92-37.44c1.16-3.5,2.25-7.05,3.27-10.63,8.47-29.85,11.88-62.72,9.12-98.24-3.59,22.44-10.78,44.3-21.49,65.55,1.61,15.48,4.41,30.5,9.1,43.32h0Zm14.03-7.61c-1.91,6.74-4.06,13.32-6.44,19.76,13,.05,26.02-1.36,39.02-4.41,63.62-44.3,91.9-120.79,97.2-201.04-33.6-12.89-78.71-16.64-135.83-5.69,2.34,9.42,4.09,18.76,5.27,28.03,15.48,60.74,14.3,115.69,.78,163.36h0Zm-12.49,34.62l-2.36,5.16,4.94-1.92c-.89-1.05-1.75-2.12-2.57-3.24h0Zm-12.55,24.65c-1.87,3.24-3.82,6.44-5.82,9.57,4.53,2.51,8.7,5.15,12.45,7.9,17.45,12.76,26.35,28.01,22.77,46.01-2.49,12.52-11.22,26.04-27.64,40.56-7.82,6.91-16.98,15.59-26.97,25.06l-7.47,7.07c16.84,4.48,33.81,7.26,49.61,7.79,18.1,.61,34.52-1.77,47.15-7.97,12.01-5.9,20.64-15.42,23.96-29.38,4.1-17.22,.43-41.18-14.28-73.4-7.86-17.2-35.8-28.19-73.77-33.22h0Zm13.21-220.71c-2.28-8.89-4.94-17.91-7.98-27.06l-2.93,.67c-.52,12.27-.74,25.51-.97,39.75-.12,7.39-.25,15.03-.42,22.81-.09,3.71-.2,7.63-.34,11.87-.28,9.27-.62,20.06-.65,31.43-.03,7.29,.07,14.89,.36,22.59,5.89-14.86,10.01-30,12.34-45.4,2.79-18.47,3-37.36,.59-56.66h0Zm-19.77-58.58c-1.87-4.5-3.84-9.04-5.89-13.6-.6-1.32-1.22-2.62-1.87-3.9-3.21,3.38-6.48,6.39-9.76,8.98-4.45,13.25-11.21,25.92-20.4,37.49l2.03,4.14c11.7-3.76,23.02-7,33.96-9.74,.44-8.22,1.05-16,1.93-23.37h0Zm-22.56-39.31c-1.11-1.27-2.26-2.51-3.43-3.73-14.11,7.53-29.44,14.57-45.58,20.8,2.53,3.08,5.01,6.2,7.42,9.36,5.06,2.22,11.23,3.67,18.66,4.24,5.58,.43,11.85-1.83,18.3-6.34l.16-.51c2.34-7.8,3.82-15.79,4.47-23.83h0Zm-11.66-11.51c-13.05-11.23-28.62-19.94-45.22-26.31-2.3,8.4-3.89,16.52-4.47,24.1-.49,6.42-.2,12.45,1.12,17.86l3.61,4.02c15.93-5.89,31.06-12.55,44.96-19.67h0Zm-55.8-30.02l-4.87-1.49c-.23,10.53-1.03,21.28-2.42,32.21l1.96,1.93c.03-1.86,.12-3.76,.27-5.68,.66-8.55,2.47-17.65,5.05-26.97h0Zm1.81-11.13l1.44,.45,1.22-3.6c-3.08-1.1-6.23-2.16-9.44-3.15l.12,4.35c2.23,.61,4.45,1.26,6.66,1.95h0Zm12,4.12c18.6,7.06,36.07,16.88,50.62,29.73-11.47-13.31-28.69-24.38-49.52-33l-1.1,3.26h0Zm-29.8,2.63c-13.13-3.04-26.41-4.8-39.2-5.37,13.27,9.88,25.91,20.16,37.76,30.94,.87-8.66,1.35-17.19,1.44-25.57h0Zm-58.15-5.32c-17.49,.9-33.21,4.2-45.22,9.62-11.08,5-18.76,11.69-21.27,19.8-4.53,14.62-8.99,32.43-13.05,52.31,4.04,.58,8.11,1.06,12.2,1.43,32.75,2.98,67.35-.53,100.65-8.24,5.65-1.31,11.27-2.74,16.83-4.27,1.75-7.63,3.25-15.39,4.47-23.26l.42-2.83c-16.71-15.81-35.25-30.55-55.03-44.55h0Zm-81.69,92.69c-3,15.82-5.72,32.75-8.04,50.29,4.56,9.67,9.66,18.88,15.23,27.46,25.04,.55,54.11-1.38,87.61-6,14.22-24.53,25.95-51.96,33.92-81.41-3.73,.97-7.46,1.91-11.22,2.77-34.33,7.95-70.11,11.57-104.15,8.47-4.48-.41-8.93-.94-13.35-1.58h0Zm-12.23,87.94c-2.12,23.27-3.38,46.96-3.47,70.01,4.86,4.77,9.61,9.74,14.27,14.89,11.86-6.79,23.68-15.35,35.15-25.46-.61-1.87-1.27-3.75-1.98-5.62-6.84-17.84-18.66-35.86-36.32-53.31-2.59-.15-5.14-.3-7.65-.5h0Zm-3.33,86.11l.16,5.98,3.78-1.77-3.94-4.21h0Zm.66,17.95c.74,14.27,2.04,28.05,3.97,41.07,.4,2.65,.82,5.28,1.27,7.87,9.09,.03,18.53,.23,28.19,.58,3.06-4.26,5.82-8.69,8.24-13.28-9.49-14.85-19.78-28.63-30.7-41.33-3.66,1.87-7.32,3.57-10.97,5.1h0Zm-7.1,42.68c-1.82-12.26-3.09-25.19-3.87-38.57-12.02,3.96-23.86,6.03-35.22,6-9.02-.02-17.72-1.35-25.95-4.09l-3.11,3.7c4.12,13.01,6.58,27.57,7.01,43.62,16.18-2.6,37.67-4.08,62.13-4.35l-.99-6.3h0Zm-4.42-50.18c-.27-7.17-.41-14.45-.43-21.8-7.56-7.25-15.34-14.02-23.3-20.34-9.29,17.25-19.14,32.64-29.43,46.21,5.93,1.58,12.11,2.36,18.49,2.37,11.07,.03,22.75-2.2,34.67-6.44h0Zm-.3-36.95c.38-20.1,1.58-40.56,3.42-60.7l-1.7-.2c-2.86,7.96-6.12,16.02-9.74,24.18-3.29,7.42-6.68,14.56-10.14,21.42,6.16,4.83,12.22,9.94,18.16,15.3h0Zm19.19,104.47c1.01,4.68,2.1,9.23,3.31,13.61,4.16-3.42,8.08-7.05,11.72-10.87l2.27-2.44c-5.88-.16-11.65-.26-17.3-.3h0Zm6.83,25.08c2.22,6.46,4.7,12.49,7.48,18,12.11-4.51,24.86-8.55,38.02-12.11-4.74-9.81-8.71-19.74-11.83-29.73l-8.98-.43c-2.63,3.32-5.43,6.54-8.4,9.64-4.99,5.21-10.44,10.11-16.3,14.63h0Zm13.12,27.83c1.16,1.77,2.36,3.48,3.61,5.1,12.95,16.92,30.79,25.3,54.71,21.02l2.2-.42-1.26-4.19c-8.2-10.76-15.44-21.91-21.64-33.29-13.03,3.46-25.64,7.39-37.61,11.78h0Zm-26.21-32.1c-1.97-6.6-3.68-13.55-5.17-20.79-25.58,.23-47.9,1.8-64.23,4.6-.43,13.37-2.24,27.66-5.61,42.85,28.32-2.67,54.11-12.27,75.01-26.66h0Zm100.01,54.01l2.34-.86c4.72-4.86,9.33-9.79,13.81-14.79,9.61-10.7,18.63-21.73,26.97-32.98-9.83,1.18-19.7,2.58-29.51,4.23-10.02,1.68-19.96,3.62-29.76,5.81,4.29,10.65,8.2,21.66,11.73,33.03,1.44,1.87,2.92,3.72,4.42,5.56h0Zm30.51-15.09c13.74-8.47,28.77-19.75,45.22-34.16-1.73-.64-3.43-1.32-5.07-2.04-4.18,.31-8.38,.67-12.59,1.07-8.46,11.97-17.68,23.71-27.55,35.14h0Zm62.11-49.62l2.49-2.38c7.84-7.54,15.16-15.17,21.95-22.89-9.55-3.23-19.06-7.05-28.51-11.41-5.19,10.68-11.1,21.3-17.63,31.79,7.42,1.52,14.67,3.14,21.7,4.88h0Zm-4.11,19.03c-30.77,27.7-57.22,45.21-79.89,54.35l-.65,.67c11.72,13.11,24.96,25.45,39.49,36.64,23.3-24.16,43.26-53.86,58.51-89.69-6.19-.2-12-.87-17.45-1.97h0Zm51.92-74.22c6.09-8.91,11.51-17.91,16.25-27.03-1.4-14.87-1.79-29.96-1.73-43.99,.04-11.7,.37-22.48,.65-31.73l.33-11.79c.17-7.91,.3-15.47,.42-22.76,.21-13.05,.41-25.31,.83-36.81-9.34,2.42-18.95,5.19-28.85,8.36,17.2,40.65,23.87,87.55,15.91,143.03-1.11,7.75-2.39,15.32-3.82,22.72h0Zm18.62-8.33c-6.56,10.99-14.09,21.8-22.56,32.45,2.32,.61,4.64,1.18,6.96,1.71,8.76,2,17.55,3.41,26.35,4.18-5.07-11.35-8.48-24.51-10.74-38.34h0Zm-42.03,54.88c-3.04,3.24-6.18,6.46-9.41,9.67l6.11,.02c1.13-3.19,2.24-6.41,3.29-9.69h0Zm34.55-308.32c1.95,3.39,3.81,6.78,5.61,10.15,.81-1.26,1.61-2.55,2.4-3.87,3.39-5.66,6.58-11.81,9.5-18.39-5.56,3.94-11.51,7.85-17.77,11.67l.26,.44h0Zm11.42,21.5l1.81,3.73c1.49-5.28,3.26-10.26,5.37-14.92l-1,1.69c-2,3.33-4.06,6.49-6.18,9.5h0Zm9.61,21.45c3.77,9.3,6.99,18.51,9.67,27.65,57.89-11.18,104.21-7.8,139.34,4.76,.87-22.65-.02-45.49-2.41-67.9-1.03-9.69-2.35-19.3-3.92-28.77-18.9-8.17-40.81-11.17-64.75-7.28-51.66,8.4-70.6,32.08-77.93,71.54h0Zm-84.29-91.79c18.48,7.63,34.44,17.12,46.62,28.36-.54-2.59-1.16-5.17-1.87-7.74-5.44-19.66-15.84-38.13-30.71-53.2-4.86,10.39-9.77,21.46-14.05,32.57h0Zm-181.02-18.88c12.11-1.75,24.51-2.88,37.01-3.42-11.48-6.95-23.18-13.76-35.01-20.48-1.53,1.34-2.99,2.75-4.39,4.23-5.97,6.33-10.81,13.96-14.59,22.58,5.59-1.11,11.25-2.08,16.99-2.9h0Zm-33.88,18.31c-5.4,1.46-10.68,3.07-15.81,4.83,4.49,4.43,8.63,8.95,12.43,13.56,.79-6.34,1.91-12.49,3.37-18.39h0Zm-54.36,9.82c5.56-3.19,11.45-6.12,17.58-8.81-8.34-6.84-17.7-13.42-28.1-19.72-4.68,13.36-8.65,26.25-11.8,38.6l2.31,3.56c6.09-4.96,12.8-9.5,20.01-13.63h0Zm29.28-13.55c9.18-3.41,18.84-6.33,28.83-8.77,4.57-12.8,11.04-24.07,19.59-33.13,.75-.79,1.53-1.58,2.31-2.34-6.07-3.4-12.15-6.78-18.27-10.15-16.91-9.33-32.6-16.85-47.12-22.74-7.99,17.76-15.15,34.95-21.29,51.47,13.62,8.11,25.57,16.67,35.95,25.67h0Zm-86.5,91.84c2.06-17.49,8.67-32.76,18.79-45.91,1.14-6.6,2.57-13.38,4.23-20.3-10.45-17.58-18.78-38.3-24.45-62.53-24.04-7.4-48.81-10.17-72.56-8.4-2.98,9.91-4.33,20.82-4.17,32.24,.46,32.85,13.33,69.78,35.83,99.66,1.42,1.89,2.88,3.75,4.39,5.58,12.82,3.43,25.06,7.03,36.71,10.79,.37-3.65,.77-7.37,1.21-11.14h0Zm7.34,50.61c-.5,16.63-.09,31.8,1.15,45.56,19.3,5.88,38.57,14.12,57.35,24.67,10.91,6.13,21.66,13.03,32.14,20.7,3.06-6.13,6.05-12.49,8.98-19.08,3.19-7.19,6.09-14.3,8.67-21.33-37.46-6.41-63.14-20.34-79.16-40.49-10.22-2.22-19.95-5.62-29.14-10.02h0Zm2.51,57.7c2.94,21.83,8.14,39.71,15.13,53.96,3.65,2.94,7.15,6.17,10.46,9.67,6.43,6.83,12.16,14.73,16.99,23.67,2.88,1.95,5.86,3.65,8.93,5.09,11.02-14.17,21.55-30.53,31.45-49.11-10.57-7.81-21.42-14.81-32.43-21-16.58-9.31-33.53-16.76-50.52-22.28h0Zm227.71-5.47l1.73-2.67c-26.82,3.38-50.85,4.99-72.29,4.95,5.52,7.32,11.42,14,17.67,19.89,5.25,4.95,10.53,9.83,15.85,14.65,1.16-1.68,2.38-3.33,3.63-4.98,8.84-11.55,19.93-22.25,33.41-31.84h0Zm60.88-125.26c-.74,4.35-1.57,8.65-2.47,12.94,3.2-.99,6.38-2,9.53-3.06-.42-1.2-.79-2.43-1.12-3.68-1.94-2.08-3.92-4.14-5.93-6.19h0Zm-5.35,25.43c-1.36,5.41-2.83,10.77-4.43,16.05,2.25-.25,4.47,.55,6.62,2.49,13.08,11.72,23.65,24.12,31.98,37.04,7.24-5.24,13.63-11,19.19-17.15-5.76-10.69-12.32-20.91-19.57-30.72-7.13-3.29-12.48-7.8-16.32-13.27-5.74,1.96-11.58,3.83-17.47,5.56h0Zm-47.52,107.86c-9.81,14.82-20.5,28.43-31.73,40.61,12.03,10.47,24.22,20.48,36.54,29.87-1.44-22.75-.05-46.27,2.94-68.02,.39-2.79,.8-5.56,1.24-8.3-3.11,1.89-6.11,3.84-8.99,5.84h0Zm-39.47,48.68c-2.55,2.57-5.13,5.05-7.73,7.48,7.1,27.11,3.96,53.46-6.84,76.73,3.1,5.04,6.12,10.2,9.04,15.46,25.71,1.76,52.22,4.61,77.68,8.62-6.07-7.62-11.03-16.36-15.02-25.9-5.79-13.82-9.45-29.36-11.46-45.6-15.46-11.38-30.7-23.75-45.67-36.79h0Zm-25.01,22.22c-7.62,5.93-15.34,11.2-23.07,15.76,6.45,7.6,12.68,15.56,18.66,23.9-.06-2.54-.07-5.08,0-7.6,.26-10.91,1.71-21.64,4.42-32.06h0Zm93.45-348.03c-9.82-23.86-23.59-44.9-40.7-62.3-25.55-25.95-58.59-43.85-97.14-50.99-12.69,12.24-24.22,27.81-34.13,47.14-9.34,18.2-18.09,35.99-26.09,53.28,14.85,6.02,30.79,13.66,47.88,23.08,7.4,4.08,14.78,8.18,22.12,12.32,4.62-3.22,9.67-5.93,15.16-8.07,43.07-16.83,81.02-20.28,112.91-14.46h0Zm-142.01-125.31l.56,.09c20.5-18.39,43.7-29.15,68.06-33.7,31.66-5.92,65.16-1.31,97.14,10.61,4.19,1.56,8.34,3.25,12.48,5.05-22.54-13.54-49.09-25.9-80.18-36.6-14.03-4.83-32.55-9.33-52.98-12.38-32.72-4.9-70.23-6.1-101.81,.95-30.54,6.81-55.5,21.36-64.63,47.88-1.31,3.81-2.31,7.88-2.96,12.19-1.01,6.74-1.9,13.35-2.68,19.82,15.03-5.14,29.74-9.11,43.83-11.79,29.54-5.62,57.44-6.1,83.17-2.11h0Zm-9.5,9.97c-22.3-2.58-46.29-1.7-71.62,3.12-15.15,2.88-31.02,7.3-47.26,13.11-2.52,24.68-3.4,47.33-2.79,68.1,18.46,.61,39.96,5.03,64.7,14.12,8.14-17.65,17.04-35.79,26.56-54.33,8.97-17.48,19.2-32.09,30.41-44.12h0Zm-130.55,20.62c-5.33,2.1-10.69,4.35-16.07,6.74-62.46,27.73-126.76,74.11-172.03,131.4-41.25,52.2-66.61,113.46-60.06,177.77,6.66-18.12,17.24-33.62,32.38-45.41-.06-13.35,1.19-25.88,3.59-37.6,7.15-34.93,24.49-62.53,48.07-82.48,23.5-19.88,53.16-32.14,85.03-36.48l4.38-.54c6.75-17.32,18.46-31.53,35.7-40.32,10.26-5.23,22.46-8.49,36.72-9.26-.57-19.64,.15-40.88,2.29-63.81h0Zm-243.63,342.55c2.98,12.45,7.2,24.97,12.78,37.53,7.95,17.92,16.63,34.36,25.89,49.28,6.64-11.22,14.19-21.29,22.53-30.2-1.73-3.7-3.45-7.47-5.14-11.3-16.75-37.97-25.43-72.24-27.64-102.67-13.27,12.58-21.82,28.79-26.39,47.43-.79,3.24-1.46,6.55-2.03,9.94h0Zm2.59,42.04c-1.72-3.86-3.31-7.71-4.78-11.57,.4,31.63,8.19,66.84,21.13,101.92,3.74-12.39,8.31-23.84,13.62-34.4-10.8-16.75-20.85-35.42-29.97-55.95h0Zm42.93,55.35c15.91,23.64,33.38,43,51.81,57.84,1.67,1.34,3.33,2.65,5.02,3.91,2.12-7.32,4.56-14.22,7.26-20.7-15.26-20.29-29.77-43.85-43.18-70.97-7.79,8.83-14.8,18.79-20.91,29.92h0Zm44.81,66.55c-17.91-14.42-34.92-32.89-50.53-55.18-5.74,12.42-10.45,26.13-13.97,41.14,6.45,15.46,13.84,30.77,21.97,45.61,13.66,24.94,29.38,48.52,46.22,69.21-3.03-36.35-.79-67.59,5.29-93.95-3.02-2.17-6.01-4.45-8.99-6.84h0Zm192.48,1.87c-29.03,23.45-60.05,35.15-91.11,35.88,7.91,5.13,15.88,9.6,23.85,13.46,23.74-14.29,54.51-24.97,93.27-33.15-.21-13.07-1.84-25.08-4.68-35.96-6.96,7.33-14.08,13.92-21.32,19.77h0Zm87.69-156.93c.84-2.57,1.65-5.14,2.4-7.69-9.81-7.26-20.76-14.36-32.94-21.23-11.88,2.05-23.33,2.56-34.29,1.73,14.85,13.21,36.09,22.5,64.82,27.19h0Zm11.33-57.77c.32-7.06,.21-13.99-.39-20.79-1.92-.48-3.82-.98-5.72-1.51,1.72,7.48,3.77,14.95,6.11,22.3h0Zm-93.74-145.15c-8.39-4.62-17.01-8.6-25.77-11.94,4.17,15.8,9.55,29.93,15.97,42.52,2.82-9.92,6.1-20.12,9.8-30.58h0Zm-106.52-36.13c21.54-1.02,43.77,1.44,65.54,7.47-2.61-13.89-4.41-28.85-5.3-44.93-12.51,.73-23.18,3.58-32.11,8.13-12.85,6.56-22.12,16.78-28.13,29.33h0Zm77.68,11.22c11.14,3.81,22.09,8.58,32.69,14.3,6.01-16.09,12.95-32.76,20.65-49.93-22.92-8.39-42.71-12.51-59.6-13.15,1.01,17.68,3.14,33.9,6.26,48.78h0Zm-94.04,1.52c-29.49,4.16-56.85,15.52-78.48,33.82-21.75,18.4-37.75,43.88-44.37,76.18-1.79,8.75-2.89,18.01-3.24,27.78,33.25-19.25,83.93-23.87,156.67-6.05h.07c-21.4-30.69-33.57-67.54-34.03-100.64-.16-10.86,.94-21.34,3.37-31.09h0Zm62.97,438.21c19.44,7.89,38.77,12.24,57.42,13.58,5.76,.41,11.45,.53,17.06,.38,3.45-14.68,5.37-28.46,5.97-41.3-32.75,7.07-59.35,15.94-80.45,27.34h0Zm210.8-81.52c2.56-10.06,3.59-20.56,2.9-31.32-1.75,8.03-2.7,16.24-2.9,24.57-.05,2.24-.05,4.49,0,6.75h0Zm-116.52-168.62c-11.31-5.66-23.5-11.13-36.66-16.38,2.26,5.16,5.01,10.02,8.28,14.57,9.07,1.65,18.55,2.32,28.38,1.81h0Zm119.44,93.65c.86,1.86,1.67,3.72,2.42,5.58l1.26-2.25-3.69-3.33h0Zm-403.89,136.54c-5.66-10.35-10.98-20.93-15.88-31.64-9.14,63.32,26.39,120.29,84.15,161.04-3.84-10.92-6.81-23.06-8.83-36.5-.48-3.19-.92-6.34-1.32-9.46-21.42-24.08-41.33-52.79-58.12-83.45h0Zm112.68,131.74c-13.89-9-27.7-20.52-41.09-33.96,2.98,16.43,7.62,30.63,13.68,42.77,7.66,4.66,15.61,9.05,23.83,13.17l3.63,1.79c-.34-8.27-.36-16.18-.05-23.77h0Zm-14.73,28.79c4.93,6.17,10.37,11.53,16.29,16.13-.28-2.85-.53-5.66-.74-8.44-3.16-1.47-6.3-2.98-9.39-4.53-2.07-1.03-4.12-2.09-6.16-3.16h0Zm28.4,24.15c22.52,12.61,50.14,16.38,80.36,13.09-28.46-5.3-55.99-13.58-81.57-24.39,.34,3.71,.75,7.46,1.21,11.3h0Zm90.49,23.07c-32.9,4.93-63.31,2.53-88.61-9,1.35,9.18,2.99,18.75,4.91,28.73,4.67,24.35,28.42,35.24,60.63,35.89,20.79,.41,44.98-3.4,69.99-10.63,19.67-5.68,39.83-13.49,59.23-23.02-1.96-1.65-3.9-3.35-5.85-5.17-7.44-6.95-13.99-13.76-19.7-20.42-18.59,.89-37.22,.38-55.64-1.4-8.44,2.12-16.78,3.8-24.95,5.03h0Zm68.5-19.3c-4.27,1.72-8.53,3.33-12.77,4.86,5.39,.11,10.8,.09,16.2-.05-1.19-1.61-2.34-3.2-3.43-4.8h0Zm217.78-188.67l.69-.99c-27.13-4.84-55.91-8.28-83.92-10.41,3.83,7.5,7.48,15.2,10.92,23.12,10.62-2.42,21.42-4.54,32.29-6.36,13.3-2.24,26.7-4.02,40.02-5.36h0Zm7.39-11.16c7.21-11.31,13.66-22.78,19.25-34.32-17.6-8.83-35.02-19.43-52.2-31.35,2.02,11.47,5,22.37,9.16,32.29,5.56,13.28,13.31,24.77,23.79,33.39h0Zm23.91-44.45c22.85-52.26,27.24-105.5,2.28-152.11-13.64,8.2-29.61,14.85-48,19.44l-4.47,2.14-4,2c-.99,5.41-1.89,11.02-2.68,16.76-3.33,24.2-4.63,50.62-2.08,75.39,19.39,14.02,39.08,26.37,58.96,36.38h0Zm-4.29-163.17c-7.65-11.71-17.29-22.95-29.14-33.56-1.01-.9,1.46,1.38,1.39,1.44-5.97,6.67-13.47,26.48-19.27,52.46l1.87-.45c15.55-7.4,30.61-14.01,45.15-19.89h0Zm16.44,5.53c27.13,50.02,22.5,106.95-2.01,162.52,10.36,4.76,20.76,8.87,31.2,12.21,3.55-14.22,6.48-29.18,8.75-44.91,7.68-53.58,1.16-98.8-15.54-137.94-7.32,2.5-14.79,5.2-22.4,8.11h0Zm97.13,198.25c1.85-.83,3.67-1.69,5.47-2.58-2.51,.17-5.04,.27-7.55,.33,.67,.78,1.37,1.53,2.08,2.25h0Zm137.93-299.62c2.58,24.22,3.45,48.96,2.28,73.46,4.23,1.87,8.28,3.88,12.13,6.03,16.71,9.3,29.98,21.09,39.86,34.42,.6-3.76,1.05-7.5,1.37-11.23,2.36-27.92-3.1-54.55-14.68-76.89-10.21-19.7-25.17-36.08-43.7-47.1,1.06,7.05,1.97,14.16,2.73,21.31h0Zm1.55,85.41c-5.37,71.31-28.58,139.57-77.85,186.21,30.46-13.43,60.72-36.73,90.41-72.32,18.76-22.47,30.75-46.39,36.94-70.05-9.29-15.67-23.27-29.54-42.07-40.01-2.4-1.34-4.88-2.61-7.44-3.84h0Zm-103.66,206.94c-8.03,5.45-16.59,10.41-25.69,14.85,5.73,3.04,12.33,4.74,19.95,4.77,81.78,.28,135.43-34.82,159.02-78.55,13.66-25.31,17.24-53.52,10.35-79.29-.9-3.38-1.99-6.73-3.26-10.02-7.21,21.19-18.87,42.34-35.58,62.37-40.71,48.78-82.62,75.53-124.8,85.87h0Zm-114.92-243.42c-2.62-.2-5.11-.49-7.48-.86,3.56,5.36,6.93,10.82,10.08,16.42,4.09-5.62,7.58-11.49,10.47-17.54-4.49,1.61-8.89,2.3-13.08,1.98h0Zm-1.51,417.98c-23.27-7.91-45.4-18.66-63.08-30.8-25.19,24.34-53.84,42.85-84.46,56.17-19.24,20.47-44.15,38.76-71.32,53.79l-.09,.05c73.18,45.09,157.43-22.26,218.95-79.2h0Zm-251.54,51.1c4.01,4.31,8.4,8.71,13.18,13.18,3.02,2.82,6.07,5.39,9.13,7.78l4.99-2.71c17.92-9.91,34.81-21.27,49.57-33.69-10.22,3.35-20.61,6.17-31.11,8.5-15.08,3.33-30.38,5.62-45.76,6.95Z" style="fill:#9d7558; fill-rule:evenodd;"/><path d="M1379.75,730.96c10.44-9.78,39.58-20.54,56.93-25.86,18.13-2.36,37.96-3.37,59.46-3.03,36.36-.35,75.43,.03,117.2,1.14,41.24-20.08,52.2-21.82,73.08-31.29,6.18-2.8,17.39-8.7,26.37-13.54,4.12,2.07,9.38,11.28,11.04,19.07-43.85,42.12-71.95,58.79-87.95,67.98-30.99,8.37-60.78,12.91-83.51,15.15-6.49,41.7-11.42,81.9-14.77,120.62,6.89,40.8,10.18,68.56,9.84,83.32-63.71,9.42-114.84,9.67-153.39,.76,1.11-11.68,5.91-28.07,8.85-40.62-4.21-52.32-10.92-86.3-14.53-110.48-11.84,23.92-22.98,41.92-33.41,53.99,8.17,21.11,15.88,47.02,23.13,77.7-4.5,5.93-10.92,9.94-19.25,12.04-10.12-17.59-32.14-57.82-37.87-87.84-4.12-23.99,44.1-120.28,58.78-139.12Z" style="fill:#6998d0; fill-rule:evenodd;"/><path d="M1487.98,695.36c-3.9-1.83-25.19-1.45-46.45,2.92,2.3-3.45,4.08-7.94,5.37-13.46,37.94-5.69,34.23-15.09,32.83-19.36-7.66-20.37-12.28-33.22-6.78-39.34,2.83,1.34,8.79,4.43,11.11,13.38,2.39-1.44,5.44-3.36,5.84-6.08,.9-8.14,.62-25.1,9.94-26.52,1.85,7.45,3.47,15.36,4.9,23.74,5.33,4.26,5.88,21.42,2.65,41.46,3.09,11.05-3.41,17.66-19.49,19.81l.09,3.44Z" style="fill:#f4ae7c; fill-rule:evenodd;"/><path d="M1479.72,665.47c1.4,4.27,5.11,13.67-32.83,19.36-16.96-2.58-31.98-16.54-34.41-22.87-22.17-37.05-1.57-54.79,9.65-61.52,2.47-38.4,60.06-8.63,86.45-28.9,12.05,14.42-.21,34.43-8.76,35.36-9.32,1.42-9.04,18.38-9.94,26.52-.4,2.72-3.45,4.64-5.84,6.08-2.32-8.96-8.28-12.04-11.11-13.38-5.5,6.12-.87,18.97,6.78,39.34Z" style="fill:#0f3970; fill-rule:evenodd;"/><path d="M1441.52,698.29c-2.12,1.99-4.21,4.39-6.15,7.22l1.3-.4c17.65-2.3,36.89-3.31,57.72-3.06-2.08-2.74-4.35-5.06-6.42-6.69-3.9-1.84-25.19-1.45-46.45,2.92Z" style="fill:#406fb5; fill-rule:evenodd;"/><path d="M1723.44,675.84c10.92-5.37,19.36-9.01,25.37-14.68,2.18-6.9,6.41-7.17,5.29-13.23,10.06-11.82,12.38-12.05,17.05-14.25-4.12-6.62-13.48-1.29-28.71,13.51-10.34,6.07-14.75,4.78-13.23-3.87,6.23-6.01,6.12-11.08,4.27-13.84-.83,.76-4.2,4.82-10.2,11.09-4.27,6.74-7.39,13.09-7.25,16.44-.13,1.17-.53,2.1-1.09,2.97,3.34,3.22,6.88,9.78,8.52,15.85Z" style="fill:#f4ae7c; fill-rule:evenodd;"/><path d="M1376.13,948.21c4.37,5.41,9.69,8.2,18.02,16.19l-.09,.89,1.29,.29c1.85,1.83,3.85,3.92,6.01,6.34-4.34,3.51-9.88,1.11-16.61-7.19-.33,9.2,2.06,16.05,7.19,20.58,2.53,2.9,4.58,5.13,6.15,6.7-4.81,8.21-14.85,4.98-30.12-9.71-3.04-5.73-2.71-11.39-4.53-16.58-.71-2.62-1.55-5.23-2.79-8.3,6.33-1.87,11.47-4.92,15.44-9.16l.05-.05Z" style="fill:#f4ae7c; fill-rule:evenodd;"/><path d="M1399.13,966.39c-7.62,51.63-11.18,133-10.69,211.49-7.34,37.26-6.97,96.82,1.14,217.6,14.36,2.9,26.8,3.46,37.31,1.71,18.67-112.71,25.8-171.44,21.4-215.15,5.7-31.38,13.53-88.97,23.48-133.84,9.95,44.87,17.78,102.46,23.48,133.84-4.41,43.71,2.73,102.44,21.4,215.15,10.51,1.75,22.95,1.19,37.3-1.71,8.11-120.79,8.49-180.35,1.14-217.6,.5-79.2-3.13-161.33-10.89-212.88-59.47,8.56-107.83,9.02-145.08,1.39Z" style="fill:#0f3970; fill-rule:evenodd;"/><path d="M1522.91,1418.9c-3.55,2.77-4.41,15.66-1.52,25.45,11.71,5.23,23.13,3.85,34.27-1.55,5.64-2.18,12.43-5.89,12.29-9.95-.26-7.68-.43-7.85-16.21-16.03,.23,1.56,.49,3,.77,4.32h0c-.69,1.81-2.08,3.18-4.72,1.48-2.88-1.89-1.91-8.01-10.12-8.15-6.79-.11-6.85,6.38-10.18,8.55-3.64,2.53-4.43-1.26-4.59-4.11Z" style="fill:#142d4d; fill-rule:evenodd;"/><path d="M1420.99,1418.87c3.55,2.78,4.4,15.66,1.52,25.45-11.7,5.23-23.13,3.85-34.27-1.55-1.72-.82-8.51-3.01-9.06-4.88-1.91-6.58-.26-15.36,12.98-21.1-.24,1.56-.5,3-.78,4.31h0c.7,1.81,2.09,3.18,4.72,1.48,2.88-1.89,1.91-8.01,10.12-8.15,6.79-.11,6.85,6.38,10.18,8.55,3.64,2.53,4.43-1.26,4.59-4.12Z" style="fill:#142d4d; fill-rule:evenodd;"/><path d="M1522.65,1397.92c1.24,9.58,1.57,17.78,1.01,24.62,.63,1.31,1.79,1.91,3.85,.47,3.32-2.17,3.39-8.65,10.18-8.55,8.2,.15,7.23,6.26,10.12,8.15,2.63,1.7,4.03,.33,4.72-1.47-1.26-5.9-2.02-14.21-2.28-24.95-10.22,1.81-19.41,2.39-27.58,1.73Z" style="fill:#f4ae7c; fill-rule:evenodd;"/><path d="M1421.25,1397.9c-1.24,9.58-1.57,17.78-1.01,24.61-.64,1.31-1.79,1.91-3.85,.48-3.32-2.17-3.39-8.65-10.18-8.55-8.2,.15-7.23,6.26-10.12,8.15-2.63,1.69-4.03,.33-4.72-1.47,1.27-5.9,2.03-14.21,2.29-24.94,10.21,1.81,19.41,2.39,27.58,1.73Z" style="fill:#f4ae7c; fill-rule:evenodd;"/><path d="M1552.37,760.59c-16.2,51.76-27.06,91.76-32.6,120.02-20.73,14.4-35.27,25.02-43.62,31.82,29.34-16.55,47.38-26.83,54.12-30.83,6.91,17.11,12.63,44.75,17.18,82.94,.33-14.75-2.95-42.52-9.84-83.32,3.35-38.72,8.28-78.92,14.77-120.62h0Zm70.55-61.97c5.72,2.91,10.2,6.2,13.41,9.84-6.94-2.7-14.6-4.45-22.98-5.25,3.39-1.65,6.57-3.17,9.57-4.59h0Zm-237.56,95.67c.24,4.18,1.24,10.81,3.02,19.9,3.61,24.18,10.32,58.16,14.53,110.48-2.93,12.56-7.74,28.94-8.85,40.62,.81,.19,1.62,.37,2.45,.54,1.77-8.55,5.71-20.41,11.8-35.62,2.47,1.7,9.51,4.27,21.16,7.71-5.11-4.52-10.19-8.89-15.25-13.12-8.95-50.97-18.56-94.49-28.86-130.52Z" style="fill:#406fb5; fill-rule:evenodd;"/><path d="M300.98,813.19c13.5,60.21-50.9,91.15-12.37,189.01-28.59,4.43-62.19,4.89-100.83,1.36,2.15,10.84,3.84,20.5,5.09,27.79-8.07-.32-15.83-2.71-24.72,8.47l-.28-.48-.28-.48-.22-.38-.07-.12-.28-.5-.28-.51-.16-.26-.13-.24-.58-1.05-.09-.16-.5-.91-.3-.54-.02-.03-.28-.52-.3-.55-.25-.47-.05-.1-.04-.08-.56-1.06-.19-.34-.13-.22-.3-.59-.3-.59-.12-.21-.19-.38-.31-.6-.3-.6-.05-.08-.27-.54-.31-.61-.28-.56-.03-.07-.32-.62-.32-.63-.21-.42-.11-.22-.32-.64-.32-.63-.14-.28-.18-.36-.59-1.2-.05-.11-.07-.13-.26-.53-.32-.66-.31-.65v-.03s-.34-.67-.34-.67l-.32-.68-.23-.5-.09-.18-.32-.69-.32-.69-.16-.34-.49-1.05-.33-.7-.09-.18-.24-.52-.32-.7-.33-.71v-.03s-.65-1.4-.65-1.4l-.26-.57-.07-.15-.33-.73-.33-.73-.18-.41-.15-.32-.32-.73-.33-.73-.11-.25-.22-.49-.33-.74-.32-.74-.03-.07-.3-.67-.32-.74-.28-.66-.04-.1-.33-.75-.32-.75-.21-.48-.12-.28-.58-1.34-.2-.48-.89-2.11-.05-.1-.85-2.02-.28-.69-.56-1.36-.03-.08-.02-.05c-.55-1.32-1.09-2.65-1.63-3.98l-.11-.25-.45-1.12-.41-1.04-.14-.34-.72-1.82-.37-.93-.48-1.23-.06-.15-.54-1.38-.24-.62-.29-.75-.53-1.38v-.03s-.11-.26-.11-.26l-.69-1.81-.03-.09-.21-.57-.52-1.38-.07-.21-.79-2.14-.15-.39-.49-1.37-.15-.38-.35-.98-.41-1.16-.07-.2-.48-1.36-.2-.56-.28-.79-.46-1.32v-.03s-.47-1.34-.47-1.34l-.25-.73-.21-.61-.44-1.32-.05-.15-.4-1.17-.29-.9-.13-.42-.42-1.31-.11-.32-.31-.98-.33-1.05-.07-.25-.4-1.28-.15-.48-.24-.79-.36-1.2-.02-.07-.38-1.26-.19-.64-.17-.61-.36-1.24-.03-.09-.11-.4c-.3-1.06-.59-2.1-.87-3.14l-.07-.25-.25-.94-.24-.91-.07-.26-.29-1.16-.1-.38-.04-.16-.4-1.63-.02-.11-.34-1.46-.05-.19-.13-.58-.25-1.1v-.04c-.24-1.06-.45-2.1-.65-3.13l-.03-.17-.05-.24-.21-1.15-.03-.2-.05-.26-.21-1.21-.03-.17c-.15-.94-.28-1.85-.4-2.74l-.04-.3-.15-1.24v-.43s-.01-.43-.01-.43v-.86s-.01-.42-.01-.42v-.43s-.06-3.81-.06-3.81v-.42s-.01-.42-.01-.42v-.41s0-.42,0-.42v-.2s0-.21,0-.21v-.42s-.01-.42-.01-.42v-.41s0-.42,0-.42v-.41s-.01-.41-.01-.41v-.41s-.01-.41-.01-.41v-.82s-.03-1.63-.03-1.63v-.41s-.01-.4-.01-.4v-.81s-.01-.4-.01-.4h0v-.81s0-.4,0-.4v-.4s-.01-.4-.01-.4v-.79s-.01-.79-.01-.79v-.39s-.03-2.36-.03-2.36v-1.17s0-.17,0-.17v-.21s0-.38,0-.38v-.77s-.01-.38-.01-.38v-.38h0c-1.26-151.3,9.97-134.23,88.99-151.25,4.81,13.3,33.51,22.82,41.96,22.29,6.06-3.24,9.18-12.61,14.26-21.28,24.28,5.31,48.31,19.48,61.36,31.11-11.1-19.16-20.06-38.09-26.88-56.76,2.74-8.24,6.58-11.94,14.55-16.22,83.11,75.97,107.81,127.23,92.42,137.3-27.07,9.88-89.13-7.05-107.75-24.68h0Zm-135.18,76.8c-.09,.9-.19,1.8-.29,2.69l-.05,.4v.02l-.04,.38v.05s-.05,.34-.05,.34v.09s-.05,.3-.05,.3v.14s-.05,.26-.05,.26l-.03,.18-.03,.21-.03,.23-.02,.17-.03,.26v.13s-.05,.3-.05,.3v.09s-.05,.34-.05,.34v.05s-.06,.39-.06,.39h0l-.05,.4v.03s-.05,.36-.05,.36v.07s-.06,.32-.06,.32v.11s-.05,.28-.05,.28l-.02,.16-.03,.23-.03,.19-.03,.2-.03,.24-.03,.15-.04,.27-.02,.12-.04,.32v.07s-.07,.36-.07,.36v.03s-.07,.39-.07,.39h0l-.05,.38v.05s-.07,.34-.07,.34v.09s-.06,.29-.06,.29l-.02,.13-.04,.25-.03,.17-.04,.21-.03,.21-.03,.17-.04,.25-.02,.13-.05,.29v.09s-.07,.32-.07,.32v.05s-.07,.37-.07,.37h0s-.07,.39-.07,.39v.03l-.07,.35v.07s-.07,.31-.07,.31l-.02,.11-.05,.27-.02,.15-.05,.22-.03,.19-.04,.19-.04,.23-.03,.15-.05,.26-.02,.11-.06,.3v.07s-.08,.34-.08,.34v.03s-.08,.37-.08,.37h0s-.07,.37-.07,.37v.05s-.07,.32-.07,.32l-.02,.09-.06,.28-.03,.12-.05,.25-.03,.16-.05,.21-.04,.19-.03,.17-.05,.24-.03,.13-.06,.26-.02,.09-.07,.31v.06s-.09,.34-.09,.34h0s-.08,.37-.08,.37v.03s-.09,.34-.09,.34v.05s-.09,.3-.09,.3l-.02,.09-.06,.26-.03,.13-.05,.23-.04,.17-.05,.18-.05,.21-.03,.15-.06,.24-.03,.12-.07,.28-.02,.07-.08,.31v.04s-.09,.36-.09,.36c4.57,8.51,8.63,18.8,12.23,29.83,2.41-13.46-.15-32.36-7.71-56.71Z" style="fill:#6998d0; fill-rule:evenodd;"/><path d="M288.58,1002.1h.04c25.67,67.4,33.1,129,31.89,202.97-61.7,16.28-119.99,11.38-189.5-11.05,4.57-63.97-17.9-96.78-2.64-151.04h.46c3.86-13.2,9.97-27.69,19.22-44.2,6.93,16.12,14.16,30.89,20.11,41.04,8.89-11.18,16.65-8.79,24.72-8.47-1.25-7.28-2.94-16.95-5.09-27.79l-.04-.18c-2.39-12-5.35-25.43-8.92-38.67,48.59,12.57,81.72,12.89,99.4,.94,2.34,13.31,5.78,25.47,10.35,36.45Z" style="fill:#0f3970; fill-rule:evenodd;"/><path d="M253.02,763.73c-8.45,.53-37.14-8.99-41.96-22.29,5.88-8.43,9.39-18.05,10.15-23.38-1.36-2.53-2.88-5.76-4.55-9.69-19.33-9.12-23.1-17.52-11.3-25.2,2.79,1.03,6.65,4.95,11.61,11.75,12.31-2.44,5.17-21.69,2.04-32.02,6.59-14.14,18.72-22.16,45.91-22.9,2.36,6.9,4.55,14.25,6.58,22.06,5.4,3.6,7.32,19.79,5.89,39.01,3.83,10.21-1.77,16.99-16.82,20.34,.48,4.92,3.57,17.1,6.71,21.04-5.08,8.67-8.2,18.04-14.26,21.28Z" style="fill:#f4ae7c; fill-rule:evenodd;"/><path d="M264.93,640.01c-27.19,.73-39.32,8.75-45.91,22.9,3.14,10.33,10.28,29.58-2.04,32.02-4.96-6.81-8.83-10.72-11.61-11.75-11.8,7.68-8.03,16.08,11.3,25.2,1.67,3.93,3.19,7.16,4.55,9.69-.76,5.33-4.27,14.95-10.15,23.38-24.17,26.09-32.02,13.43-51.48,10.67-10.67-19.43,5.44-12.35,5.37-27.12-.06-12.6,20.83-11.76,17.07-28.57-3.69-16.47-16.85-66.82,24.41-66.59,11.94-22.68,100.99-35.31,63.76,27.33-1.66-5.99-3.41-11.71-5.27-17.14h0Zm.58,80.08c-1.51,.49-3.15,.93-4.93,1.33,.26,2.68,1.29,7.5,2.69,11.98,1.17,3.75,2.59,7.26,4.02,9.06,6.44,12.96,11.81,4.39,18.15,5.52-2.75-4.09-5.6-7.3-5.62-7.42-2.65-11.36-9.94-14.07-14.3-20.47Z" style="fill:#0f3970; fill-rule:evenodd;"/><path d="M239.83,719.87c4.93,1.07,14,2.2,20.75,1.54,.26,2.68,1.29,7.5,2.69,11.98-7.33-.57-19.86-8.76-23.43-13.51Z" style="fill:#ed7d5b; fill-rule:evenodd;"/><path d="M328.51,1437.26c-9.9,2.55,.81,8.5-5.36,11.57-15.81-4.92-27.97-24.57-35.54-32.81-3.99-4.33-4.9,2.38-4.96,9.71-.13,15.72,3.96,35.62,8.79,41.1,1.69-5.07,1.12-19.49,1.78-28.5,16.48,9.63,16.18,23.95,25.41,26.95,20.33-1.8,31.19-3.41,46.36-6.12,.73-13.5-24.66-3.89-36.49-21.89Z" style="fill:#142d4d; fill-rule:evenodd;"/><path d="M88.75,1433.09c-9.98-2.2-3.13,7.94-10.01,7.89-11.88-11.54-13.85-34.56-16.88-45.33-1.59-5.67-5.44-.09-8.8,6.42-7.23,13.97-12.56,33.57-10.73,40.64,3.8-3.75,9.81-16.88,14.46-24.62,10.35,16.03,3.62,28.68,10.5,35.53,18.94,7.58,29.37,11.05,44.12,15.48,6.76-11.71-20.23-14.61-22.65-36.01Z" style="fill:#142d4d; fill-rule:evenodd;"/><path d="M328.65,773.56c6.43,12.26,14.74,22.17,24.94,29.73-15.91-8.98-30.98-23.71-45.24-44.2,8.07,4.74,15.07,9.81,20.3,14.47h0Zm-148.79,195.03c-1.77-6.63-3.89-13.92-6.35-21.87,2.41-13.46-.15-32.36-7.71-56.71,1.71-12.15,2.96-22.45,3.74-30.91,10.14,33.97,13.68,69.3,10.63,105.97-.44-.11-.89-.22-1.34-.34,.35,1.29,.69,2.58,1.03,3.88Z" style="fill:#406fb5; fill-rule:evenodd;"/><path d="M83.47,1396.41c-1.94,10.71-1.26,22.85,2.02,36.42-5.11,.66-.83,8.2-6.76,8.15-11.16-10.84-13.58-31.81-16.34-43.24,1.62-1.84,3.04-4.05,4.26-6.62,49.68-120.56,33.06-139.55,76.6-183.8-.99-3.52-1.93-6.97-2.85-10.35,16.1,4.9,31.61,8.81,46.74,11.7l-.95,3.07c-19.88,47.17-63.89,108.36-102.73,184.67h0Zm205.15-394.31c.93,2.38,1.82,4.72,2.69,7.04l-2.69-7.04h0Zm27.64,204.06c6.33,48.44-10.73,126.19-5.96,205.57,3.33,8.61,8.42,17.53,15.26,26.73-4.39,2.9,2.93,7.72-2.41,10.38-14.86-4.63-26.51-22.27-34.13-31.21,1.38-2.08,2.53-4.63,3.44-7.64-10.26-87.4-33.06-125.37-20.52-196.37,14.73-1.28,29.43-3.76,44.32-7.46Z" style="fill:#f4ae7c; fill-rule:evenodd;"/><path d="M297.54,679.75c18.42-6.11,15.57,7.21,18.7,20.87-6.82,3.68-10.61,6.93-13.27,13.03-5.09-3.92-8.98-2.95-12.39-8.33-5.72-7.11-12.81-20.81-5.41-21.62,2.19,6.01,5,7.37,8.41,9.85-.24-2.99-.81-5.95-1.68-8.89-1.01-3.83-3.25-7.88-6.73-12.13-6.8-1.88-9.52-4-8.16-6.37,8.5-1.35,15.35,3.18,20.54,13.57Z" style="fill:#f4ae7c; fill-rule:evenodd;"/><path d="M190.64,1031.29c2.84,9.97,4.74,19.66,5.73,29.07-5.07,13.07-11.28,20.35-18.63,21.83-8.4-.72-10-7.16-11.98-11.71,5-3.88,7.93-8.5,8.79-13.85-4.54-3.62-5.7-7.39-3.46-11.31-.89-2.23-1.73-4.23-2.49-6.01,5.61-6.82,10.77-8.28,15.86-8.38,2.06,.03,4.12,.23,6.19,.36Z" style="fill:#f4ae7c; fill-rule:evenodd;"/><path d="M308.35,759.08c4.86,2.87,9.34,5.85,13.28,8.78,2.59,1.93,4.94,3.84,7.01,5.69,6.43,12.26,14.74,22.17,24.94,29.73-11.05-6.24-21.7-15.26-31.96-27.05-4.51-5.18-8.93-10.9-13.28-17.15Z" style="fill:#406fb5; fill-rule:evenodd;"/><path d="M1894.54,660.17c12.64-3.56,12.96-1.25,14.56-1.78,1.9-.59,17.36-21.08,17.36-21.08,0,0,46.02-60.07,48.38-63.42l15.12-78.18,43.01,.07s-18.84,84.44-20.63,88.59c-1.8,4.21-74.5,77.39-80.67,84.04,0,0-4.05,10.93-6.84,17.65-2.79,6.72-8.64,11.66-9.75,13.37-.16,.26-4.19,5.86-11.17,11.26-6.01,4.68-2.79-2.63-2.79-2.63,0,0,9.34-10.73,8.27-11.39-.83-.53-5.54,5.66-12.13,10.87-1.71,1.38-3.38,2.7-4.94,3.88-4.08,3.17-7.49,1.45-3.82-2.57,1.28-1.45,3.49-3.75,5.33-5.14,1.99-1.52,3.25-3.56,4.68-5.07,2.87-3.1,5-5.27,4.79-5.34-.26-.06-.18-1.12-2.03,.26-2.23,1.65-6.05,6.26-9.55,8.37-1.98,1.25-5.94,4.08-5.94,4.08,0,0-6.9,3.03-7.26,2.7-1.95-1.91,2.01-5.34,4.96-6.65,1.34-1.78,5.6-4.61,5.6-4.61,0,0,7.09-7.77,5.87-8.89-.52-.46-5.5,3.75-11.14,7.05-5.23,3.03-11.12,5.27-12,4.28-1.5-1.65,3.87-5.73,3.87-5.73,0,0,3.94-2.57,5.16-3.56,1.45-1.12,5.46-4.94,5.46-4.94,0,0,13.27-13.77,12.04-14.69-1.23-.99-5.29-2.31-6.45-1.78-1.15,.53-2.62,2.7-3.78,3.23-1.15,.59-3.25,.26-4.19-1.12-.95-1.39,3.38-6.26,3.38-6.26,0,0,3.55-3.89,7.21-4.87Z" style="fill:#f4ae7c; fill-rule:evenodd;"/><path d="M1961.93,1053.96l1.26,27.07c.53,3.49,2.65,11.99,2.62,15.08-.12,11.73-52.05-10.47-40.31-15.54,1.07-.46,6.65-3.96,7.03-7.97,.6-6.13,2.09-18.51,2.09-18.51l27.31-.13Z" style="fill:#f4ae7c; fill-rule:evenodd;"/><path d="M1925.63,1080.44s12.21,3.76,18.47,4.68c6.26,.99,14.61-6.45,19.02-4.41,4.86,2.3,4.14,24.37,4.14,24.37,0,0-65.41,3.23-83.81-2.96-7.29-2.38,17.06-13.57,42.17-21.67Z" style="fill:#142d4d; fill-rule:evenodd;"/><path d="M2076.8,1057.72l1.26,27.13c.53,3.42,2.65,11.92,2.63,15.08-.12,11.72-52.06-10.53-40.31-15.6,1.06-.46,8.31-6.59,8.7-10.55,.6-6.19,.42-15.93,.42-15.93l27.3-.13Z" style="fill:#f4ae7c; fill-rule:evenodd;"/><path d="M2040.51,1084.2s12.21,3.75,18.47,4.74c6.27,.93,14.61-6.52,19.02-4.48,4.86,2.31,4.85,22.53,4.85,22.53,0,0-69.93,4.34-86.31-.6-7.36-2.17,18.85-14.03,43.97-22.19Z" style="fill:#142d4d; fill-rule:evenodd;"/><path d="M1998.16,666.62l-22.15,9.29-48.65,221.04,.17,166.11,37.18,1.18s18.78-145.03,18.9-156.29c.11-11.27,82.12-196.21,82.12-196.21l-67.57-45.12Z" style="fill:#142d4d; fill-rule:evenodd;"/><path d="M2015.05,679s14.5,170.78,14.2,199.57c-.29,28.78,11.23,189.95,11.23,189.95l37.27,.13s3.2-49,7.93-121.18c.74-11.33-.46-34.12,.48-45.84,6.66-84.11,18.94-163.27,13.78-194.76-.83-5.07-2.35-18.31-5.54-21.67-24.15-25.49-79.34-6.19-79.34-6.19Z" style="fill:#0f3970; fill-rule:evenodd;"/><path d="M1970.97,543.85l45.13-2.57s2.64-40.31,2.83-59.54c.25-23.32,7.71-57.63,4.92-57.04-7.82,1.78-21.36,8.76-27.71,17.46-21.95,29.9-25.17,101.69-25.17,101.69Z" style="fill:#406fb5; fill-rule:evenodd;"/><path d="M2079.05,424.37s25.68,3.89,32.4,8.89c7.56,5.66,15.89,18.31,15.89,18.31,0,0-33.1,148.92-33.42,174.08-.24,19.37,6.15,67.18,6.15,67.18,0,0-95.48,5.07-131.48-9.62,0,0,12-56.58,12.15-71.53,.15-14.89,15.19-150.24,18.39-159.66,2.9-8.56,8.22-23.91,25.7-27.6,17.47-3.62,54.21-.07,54.21-.07Z" style="fill:#6998d0; fill-rule:evenodd;"/><path d="M2072.44,384.13l5.93,41.76s-23.76,49.4-37.59,44.92c-11.61-3.69-4-47.55-4-47.55,0,0,6.6-23.51,4.81-35.37-1.78-11.79,30.85-3.75,30.85-3.75Z" style="fill:#f4ae7c; fill-rule:evenodd;"/><path d="M2041.6,387.89c-1.78-11.79,30.85-3.75,30.85-3.75l.49,3.49c-.98,2.31-2.17,4.21-3.61,5.73-7.38,7.77-18.85,12.32-28.73,12.58,1.06-6.32,1.73-13.17,1-18.04Z" style="fill:#ec724c; fill-rule:evenodd;"/><path d="M2078.41,325.25c.93-.33,6.92,47.56-5.52,60.53-12.44,13.04-36.46,17.13-44.95,6.65-9.39-11.53-8.4-62.9,10.88-76.27,19.27-13.31,39.59,9.09,39.59,9.09Z" style="fill:#f4ae7c; fill-rule:evenodd;"/><path d="M2046.38,290.47c14.75,3.1,24.24,12.19,27.72,16.07,6.7,.86,15.79,4.61,25.06,20.22,11.39,19.16,2.62,40.17-10.98,50.45-13.6,10.21-13.56,22.26-13.56,22.26l-2.05-6.33c-1.52-4.68-2.11-9.68-1.54-14.56,.34-2.96,1.01-6.19,2.27-8.76,3.32-6.91-6.85-11.59-9.66-17.39-2.16-4.48-2.16-14.62-5.56-21.93l-4.09-5.66s-9.5-7.51-18.88-5.53c-9.39,2.04-7.68-32.93,11.25-28.85Z" style="fill:#0f3970; fill-rule:evenodd;"/><path d="M2064.19,361.21c-.16,5.8,2.46,10.61,5.85,10.73,3.39,.07,6.27-4.61,6.42-10.4,.16-5.87-2.46-10.67-5.85-10.73-3.39-.07-6.26,4.54-6.42,10.4Z" style="fill:#f4ae7c; fill-rule:evenodd;"/><path d="M2117.83,444c-8.65-.33-16.88,56.71-11.46,62.37,5.43,5.67,5.76,76.01,5.76,76.01l-81.61-2.9v.07c-1.59-1.12-18.58-12.78-21-15.28-2.53-2.7-15.01-1.52-18.35,2.11-3.34,3.56,6.32,1.84,9.22,3.82,2.91,2.04-1.26,5.8-1.26,5.8,0,0-20.71,2.77-24.71-1.52-3.99-4.35-14.69-11.72-16.2-7.44-.79,2.24,4.71,8.96,7.8,11.79-3.87-2.96-8.52-6.12-10.13-5.59-2.94,.99-1.76,4.74-.18,5.86,1.57,1.05,17.87,13.77,20.42,14.69,2.5,.92,40.69,2.24,47.28,3.75,0,0,107.4,25.62,113.52,24.17,5.39-1.32,11.12-35.7,11.39-62.11,.27-26.41-3.47-114.54-30.51-115.59Z" style="fill:#f4ae7c; fill-rule:evenodd;"/><path d="M2106.74,430.9s15.03,3.62,30.4,21.27c13.98,16,21.99,105.12,21.99,105.12l-48.93,7.38-3.45-43.07c-20.68-27.99-28.08-57.43,0-90.69Z" style="fill:#406fb5; fill-rule:evenodd;"/><path d="M1238.94,263.09s-26.57-21.77-38.03-6.85c-11.47,14.85,55.46,130.71,62.94,137.88,2.88,2.8,87.77,40.69,90.68,47.93,4.77,11.81-2.12,16.25-2.12,16.25,0,0,3.45,2.79,7.7,2.79s6.37,1.72,9.28,1.72,6.56-1.33,8.18-1.33,3.51,1.96,7.48-3.18c1.97-2.6-.32-13.96-7.38-22.6-7.11-8.7-83.93-66.79-83.93-66.79l-54.8-105.83Z" style="fill:#f4ae7c; fill-rule:evenodd;"/><path d="M1216.53,237.95c-11.14-.32-30.71,2.79-30.71,32.25s45.23,88.11,45.23,88.11l42.35-34.47s-24.81-85.07-56.87-85.89Z" style="fill:#406fb5; fill-rule:evenodd;"/><path d="M174.42,517.24c-1.26-3.78-1.3-8.04-.16-12.75,1.14-4.69,3.63-9.11,7.45-13.22,3.84-4.11,8.85-7.18,15.1-9.25,5.79-1.92,11.25-2.55,16.41-1.87,5.13,.66,9.51,2.44,13.14,5.32,3.63,2.86,6.17,6.47,7.6,10.77,1.12,3.4,1.42,6.61,.89,9.63-.52,3.01-1.42,5.76-2.72,8.24-1.26,2.48-3.63,6.74-7.07,12.77-.97,1.68-1.69,3.13-2.2,4.34-.5,1.21-.83,2.28-.96,3.18-.15,.91-.2,1.79-.17,2.64,.06,.85,.17,2.33,.38,4.44,.62,4.41-1.06,7.26-5.08,8.59-2.06,.68-4.05,.59-5.91-.29-1.89-.89-3.24-2.67-4.14-5.35-1.11-3.35-1.57-6.43-1.34-9.23,.23-2.8,.89-5.4,1.99-7.83,1.1-2.43,2.7-5.42,4.76-8.94,1.82-3.08,3.12-5.4,3.87-6.89,.77-1.53,1.31-3.11,1.62-4.76,.32-1.65,.2-3.31-.34-4.95-1.06-3.19-3.14-5.5-6.24-6.9-3.12-1.4-6.54-1.49-10.3-.24-4.39,1.46-7.26,3.64-8.61,6.56-1.34,2.89-2.01,6.75-2.01,11.55,.12,4.96-1.71,8.06-5.49,9.32-2.26,.74-4.39,.59-6.46-.5-2.06-1.07-3.4-2.5-4.01-4.35h0Zm51.01,55.99c-2.43,.8-4.83,.71-7.17-.26-2.34-.97-3.97-2.88-4.92-5.73-.84-2.52-.66-4.92,.54-7.22,1.19-2.3,3.06-3.87,5.61-4.72,2.51-.83,4.93-.68,7.22,.47,2.29,1.15,3.84,2.97,4.68,5.49,.93,2.81,.77,5.31-.51,7.5-1.27,2.19-3.08,3.68-5.45,4.47Z" style="fill:#8d9fca; fill-rule:evenodd;"/><path d="M272.33,501.11c1.05-3.85,3.35-7.42,6.91-10.72,3.55-3.28,8.07-5.58,13.51-6.9,5.47-1.31,11.35-1.09,17.71,.63,5.88,1.6,10.79,4.09,14.71,7.51,3.91,3.38,6.58,7.28,8.02,11.69,1.44,4.39,1.56,8.8,.38,13.17-.94,3.45-2.47,6.3-4.57,8.52-2.1,2.22-4.37,4.02-6.81,5.36-2.43,1.37-6.75,3.62-12.96,6.74-1.73,.87-3.14,1.67-4.23,2.4-1.09,.73-1.95,1.44-2.56,2.12-.63,.67-1.16,1.38-1.61,2.11-.42,.74-1.15,2.03-2.13,3.91-1.92,4.02-4.9,5.46-8.97,4.35-2.1-.57-3.71-1.74-4.77-3.51-1.08-1.79-1.23-4.02-.49-6.74,.93-3.41,2.24-6.23,3.98-8.44,1.74-2.21,3.73-4.01,5.99-5.43,2.26-1.42,5.25-3.02,8.91-4.82,3.22-1.56,5.58-2.77,7.03-3.61,1.48-.85,2.81-1.87,3.98-3.07,1.18-1.2,1.99-2.65,2.45-4.32,.88-3.25,.42-6.32-1.39-9.2-1.83-2.89-4.62-4.85-8.45-5.89-4.47-1.21-8.07-.99-10.8,.7-2.71,1.68-5.41,4.52-8.05,8.52-2.64,4.2-5.88,5.77-9.73,4.73-2.29-.62-3.99-1.93-5.11-3.98-1.12-2.02-1.45-3.97-.94-5.84h0Zm11.59,74.85c-2.47-.67-4.42-2.07-5.84-4.17-1.42-2.1-1.72-4.6-.94-7.49,.7-2.56,2.18-4.46,4.44-5.72,2.26-1.26,4.68-1.54,7.28-.84,2.55,.69,4.49,2.16,5.76,4.38,1.27,2.22,1.56,4.6,.87,7.16-.78,2.85-2.3,4.85-4.58,5.97-2.27,1.12-4.59,1.37-7,.71Z" style="fill:#8d9fca; fill-rule:evenodd;"/><path d="M344.22,562.47c2.3-3.26,5.69-5.83,10.16-7.71,4.45-1.87,9.49-2.49,15.05-1.87,5.59,.64,11.04,2.85,16.41,6.64,4.99,3.51,8.75,7.54,11.27,12.08,2.51,4.52,3.69,9.09,3.54,13.73-.15,4.62-1.54,8.81-4.15,12.51-2.06,2.92-4.48,5.07-7.21,6.44-2.74,1.37-5.48,2.28-8.24,2.71-2.75,.46-7.58,1.09-14.48,1.91-1.92,.22-3.51,.5-4.79,.81-1.28,.31-2.33,.68-3.14,1.11-.82,.42-1.56,.91-2.22,1.44-.65,.54-1.78,1.51-3.34,2.94-3.18,3.12-6.47,3.46-9.92,1.03-1.78-1.25-2.88-2.9-3.28-4.93-.4-2.05,.22-4.2,1.85-6.51,2.04-2.89,4.23-5.08,6.63-6.56,2.39-1.48,4.87-2.5,7.48-3.06,2.61-.56,5.96-1.05,10.01-1.49,3.56-.37,6.19-.7,7.85-.99,1.68-.29,3.28-.8,4.79-1.52,1.52-.73,2.78-1.81,3.77-3.22,1.94-2.75,2.55-5.79,1.85-9.12-.73-3.34-2.69-6.14-5.93-8.42-3.78-2.67-7.24-3.68-10.39-3.03-3.12,.65-6.62,2.4-10.48,5.25-3.91,3.04-7.5,3.42-10.76,1.12-1.94-1.37-3.08-3.18-3.44-5.48-.36-2.29,0-4.22,1.11-5.81h0Zm-14.68,74.31c-2.1-1.48-3.45-3.46-4.06-5.92-.62-2.46-.05-4.91,1.68-7.36,1.52-2.17,3.56-3.45,6.12-3.86,2.56-.41,4.93,.15,7.13,1.7,2.16,1.53,3.47,3.56,3.91,6.08,.44,2.52-.1,4.86-1.63,7.02-1.7,2.41-3.82,3.77-6.34,4.05-2.51,.28-4.78-.28-6.82-1.72Z" style="fill:#8d9fca; fill-rule:evenodd;"/></svg>