<?xml version="1.0" encoding="UTF-8"?><svg id="a" xmlns="http://www.w3.org/2000/svg" viewBox="0 0 1935.59 1306.19"><path d="M1871.96,754.68c43.37,50.61,59.38,113.2,36.55,169.93-33.56,83.61-140.35,126.98-252.01,108.39v.07l-.28-.07c-11.21-1.88-22.49-4.38-33.69-7.52-218.04-51.93-374.54-151.49-807.59-132.27h-.04c-83.75,5.43-174.01-5.57-263.01-35.5-269.59-90.5-425.57-319.61-348.33-511.68,54.86-136.45,212.61-217.48,396.05-220.55v-.04c135.93-4,352.4,49.15,564.28,36.58,183.79-10.89,329.08-115.15,513.56-54.58,4.88,1.43,9.82,2.96,14.69,4.6,155.25,52.18,246.38,180.9,203.49,287.55-2.72,6.79-5.99,13.37-9.68,19.63h0c-68.92,118.14-73.65,229.95-13.99,335.45h0Z" style="fill:#e0e8f5; fill-rule:evenodd;"/><circle cx="431.9" cy="361.38" r="255.98" transform="translate(-129.03 411.25) rotate(-45)" style="fill:#c4d1eb;"/><path d="M431.94,152.7c-115.25,0-208.68,93.43-208.68,208.68s93.43,208.68,208.68,208.68,208.64-93.43,208.64-208.68-93.42-208.68-208.64-208.68Z" style="fill:#fff; fill-rule:evenodd;"/><path d="M527.17,461c3.1,2.89,7.94,2.72,10.86-.38,2.89-3.1,2.68-7.94-.38-10.82l-100.49-94.02c-3.1-2.89-7.97-2.72-10.86,.38-2.89,3.06-2.68,7.94,.38,10.82l100.49,94.02Z" style="fill:#b0c2e4; fill-rule:evenodd;"/><path d="M443.46,209.51c0-6.34-5.15-11.49-11.52-11.49s-11.56,5.15-11.56,11.49v143.97l-102.06,39.06c-5.92,2.26-8.91,8.91-6.65,14.83,2.26,5.95,8.91,8.91,14.86,6.65l116.92-44.69V209.51Z" style="fill:#c4d1eb; fill-rule:evenodd;"/><path d="M1803.67,841.84s53.61-27.57,43.79-95.37c-9.82-67.81,31.68-89.28,42.12-109.47,10.58-20.15-13.02-52.66-10.37-81.14,2.72-28.47,35.58-36.1,20.12-75.19-15.31-39.06-2.36-53.88,17.96-95.76,20.19-41.84-9.82-105.78-24.08-105.43-14.2,.35,3.2,15.32-9.4,43.13-12.53,27.81-65.44,36.31-82.01,59.56-16.57,23.25,12.53,54.06-6.33,85.46-18.94,31.43-75.19,21.68-90.08,52.14-14.9,30.46,20.61,66.97,10.3,98.93-10.3,31.95-48.31,50.09-64.32,75.71-16.01,25.69-45.95,74.84,3.06,133.53,49.15,58.69,149.26,13.92,149.26,13.92Z" style="fill:#b0c2e4; fill-rule:evenodd;"/><path d="M1848.08,773.06c.28-2.64,.49-5.43,.56-8.21l-145.5,81.73,12.88-33.42c.07-.14,.07-.28,.14-.42l6.61-17.2,123.22-69.27c0-2.79,.07-5.5,.28-8.07l-119.6,67.11,11.7-30.21,113.75-63.91c1.53-3.9,3.13-7.45,4.94-10.79l-114.8,64.53,5.78-15.03c.07-.14,.14-.28,.21-.49l25.27-65.65,113.89-64.01c-.69-2.26-1.39-4.56-2.02-6.82l-107.98,60.64,12.6-32.79,89.81-50.44c-.42-2.54-.7-5.05-.77-7.55l-85.07,47.79,9.47-24.68c.07-.1,.07-.21,.14-.35l27.57-71.64,66.62-37.42c-.83-2.33-1.53-4.59-2.23-6.79l-60.43,34.01,24.09-62.55c0-.1,.07-.24,.14-.35l39.75-103.31c.63-1.77-.21-3.79-2.02-4.46-1.81-.73-3.83,.17-4.52,1.98l-36.13,93.84-20.61-70.56c-2.16,1.08-4.24,2.16-6.33,3.24l22.83,78.04-27.15,70.49c-.07,.1-.07,.21-.07,.28l-25.13,65.23-39.61-84.97c-2.23,.7-4.46,1.39-6.75,2.05l42.88,91.96-9.54,24.82-52.21-111.04c-2.3,.77-4.46,1.57-6.54,2.44l54.51,116.05-.83,.45c-1.67,.94-2.3,3.1-1.32,4.77,.28,.49,.62,.87,1.11,1.15l-14.13,36.66c-.07,.1-.07,.21-.14,.31l-22.83,59.28-38.64-82.29c-1.53,2.09-3.2,4.11-4.88,6.09l40.03,85.18-5.85,15.31-42.96-91.27c-1.67,1.71-3.48,3.38-5.29,5.08l44.76,95.24-14.97,38.85c0,.14-.07,.14-.14,.28l-4.17,10.79-54.86-116.88c-1.74,2.09-3.34,4.11-4.87,6.26l56.32,119.6-15.81,41.21c-.07,0-.14,.14-.14,.28l-.07,.07c2.72,.84,5.5,1.6,8.35,2.16l146.68-82.43Z" style="fill:#c4d1eb; fill-rule:evenodd;"/><path d="M1724.79,759.28s44.21-40.86,16.71-103.59c-27.5-62.73,6.76-94.44,11.49-116.68,4.73-22.24-26.66-47.31-31.67-75.46-5.01-28.16,24.57-44.28-.63-77.83-25.27-33.55-16.71-51.31-8.35-97.04,8.42-45.74-37.59-99.38-51.24-95.24-13.64,4.14,7.1,13.92,2.44,44.1-4.66,30.14-53.39,52.42-63.14,79.26-9.75,26.84,26.46,48.77,16.64,84.06s-66.62,40.93-72.89,74.25c-6.19,33.35,37.73,59.07,36.27,92.63-1.39,33.56-33.21,61.12-41.84,90.12-8.49,29.03-24.3,84.38,38.64,127.89,62.93,43.44,147.59-26.45,147.59-26.45Z" style="fill:#c4d1eb; fill-rule:evenodd;"/><path d="M1749.23,681.16c-.42-2.64-.97-5.29-1.67-8.07l-118.42,117.58,3.48-35.64c0-.21,.07-.35,.07-.49l1.81-18.24,100.25-99.59c-.83-2.71-1.39-5.39-1.95-7.94l-97.33,96.66,3.2-32.3,92.59-91.97c.42-4.11,1.04-8.01,1.95-11.7l-93.5,92.8,1.6-16.01v-.49l6.89-70.03,92.66-92.07c-1.25-2.02-2.5-4-3.76-6.06l-87.86,87.23,3.41-34.95,73.03-72.54c-.97-2.37-1.95-4.73-2.65-7.1l-69.34,68.75,2.64-26.28v-.38l7.52-76.4,54.16-53.85c-1.39-2.02-2.72-4-3.9-5.92l-49.22,48.87,6.47-66.73c0-.1,.07-.24,.07-.38l10.79-110.13c.14-1.88-1.25-3.58-3.13-3.79-1.88-.17-3.62,1.22-3.83,3.13l-9.75,100.07-38.71-62.45c-1.81,1.6-3.55,3.17-5.29,4.77l42.88,69.13-7.38,75.19v.31l-6.82,69.51-60.85-71.32c-1.95,1.29-3.97,2.54-5.99,3.79l65.86,77.21-2.58,26.49-79.99-93.15c-1.95,1.36-3.83,2.71-5.64,4.14l83.54,97.29-.69,.66c-1.32,1.36-1.39,3.55-.07,4.94,.42,.38,.91,.66,1.39,.84l-3.76,39.06c-.07,.14-.07,.24-.07,.35l-6.2,63.21-59.17-68.96c-.97,2.4-1.95,4.8-3.06,7.17l61.26,71.43-1.53,16.29-65.72-76.55c-1.25,2.12-2.5,4.25-3.76,6.3l68.5,79.85-4.04,41.49c0,.07-.07,.14-.07,.28l-1.11,11.49-84.17-97.98c-1.11,2.4-2.09,4.84-2.92,7.28l86.19,100.39-4.32,43.79v.49c2.78,.07,5.71,0,8.56-.14l119.39-118.63Z" style="fill:#e0e8f5; fill-rule:evenodd;"/><rect x="910.97" y="400.02" width="96.21" height="33.24" style="fill:#b0c2e4;"/><path d="M1006.31,381.5c5.78-2.72,9.64-7.69,9.64-15.21v-2.33c1.11-65.13,58.34-83.4,63.01-155.42,.28-5.36,.28-10.69-.14-15.8-8.98-54.65-60.88-91.34-119.22-91.34-66.48,0-124.65,47.65-120.4,115.22,4.42,69.86,58.93,87.58,60.01,150.72,0,6.82,7.31,14.72,13.54,14.17h93.57Z" style="fill:#c4d1eb; fill-rule:evenodd;"/><path d="M907.49,440.95c.73,7.31,6.96,13.05,14.41,13.05h11.1l4.35,7.07c2.44,4.07,3.93,4.32,8.67,4.32h26.07c4.77,0,6.23-.24,8.7-4.32l4.32-7.07h11.1c7.41,0,13.54-5.6,14.38-12.77v-5.08c-.35-1.64-1.85-2.89-3.65-2.89h-95.76c-1.78,0-3.27,1.25-3.66,2.92-.03,.14,.04,.49-.03,.52v4.25h0Zm98.13-33.35h-93.08c-2.82,0-5.12,2.33-5.12,5.12v7.94c0,2.78,2.3,5.12,5.12,5.12h93.08c2.82,0,5.12-2.33,5.12-5.12v-7.94c0-2.78-2.3-5.12-5.12-5.12h0Zm-.21-26.11h-92.66c-2.92,0-5.33,2.4-5.33,5.32v8.25c0,2.96,2.4,5.33,5.33,5.33h92.66c2.92,0,5.33-2.37,5.33-5.33v-8.25c0-2.92-2.4-5.32-5.33-5.32Z" style="fill:#9db2d9; fill-rule:evenodd;"/><path d="M973.77,381.5l9.85-119.18h14.27c6.16,0,11.8-2.51,15.84-6.58h0c4.07-4.07,6.58-9.68,6.58-15.8s-2.51-11.77-6.58-15.84c-4.04-4.07-9.68-6.58-15.84-6.58s-11.35,2.44-15.28,6.37c-3.97,3.97-6.55,9.54-7.07,15.59l-1.11,12.77h-43.69l-1.11-12.77c-.52-6.02-3.1-11.59-7.1-15.59-3.93-3.93-9.23-6.37-15.32-6.37s-11.73,2.54-15.77,6.58h-.03c-4.04,4.07-6.58,9.64-6.58,15.84s2.54,11.76,6.58,15.8c4.07,4.07,9.68,6.58,15.8,6.58h14.31l9.85,119.18h10.06l-9.82-119.18h41.91l-9.78,119.18h10.03Zm10.72-129.24l1.08-11.9c.28-3.69,1.81-7,4.14-9.33,2.12-2.16,4.94-3.45,8.18-3.45,3.41,0,6.51,1.39,8.74,3.62,2.23,2.26,3.62,5.33,3.62,8.74s-1.36,6.47-3.62,8.7h0c-2.23,2.23-5.33,3.62-8.74,3.62h-13.4Zm-63.84,0h-13.44c-3.34,0-6.44-1.39-8.7-3.62-2.23-2.23-3.62-5.33-3.62-8.7s1.39-6.47,3.62-8.74h0c2.23-2.23,5.32-3.62,8.7-3.62s6.09,1.32,8.22,3.45c2.33,2.33,3.83,5.67,4.18,9.33l1.05,11.9Z" style="fill:#fff; fill-rule:evenodd;"/><polygon points="1886.03 747.44 1871.82 1077.21 1511.97 1039.41 1554.65 747.44 1886.03 747.44" style="fill:#c4d1eb; fill-rule:evenodd;"/><path d="M1931.76,1036.63c-28.96,10.58-45.67,25.2-59.94,40.58l14.2-329.77,16.22-.42,29.52,289.61Z" style="fill:#9db2d9; fill-rule:evenodd;"/><path d="M1886.03,747.44l-41.84,132.27c-5.99,14.69-12.18,27.5-36.55,25.48l-230.92-14.62c-20.61-1.32-21.1-11.7-21.24-25.83v-117.3h330.54Z" style="fill:#9db2d9; fill-rule:evenodd;"/><path d="M1719.36,881.66l-58.75-3.76c-3.21-.21-6.48,2.09-6.89,5.29l-8.08,52.21c-.42,3.2,1.6,6.13,4.74,6.47l61.12,6.2c3.2,.28,6.61-2.09,6.96-5.29l5.57-54.58c.42-3.2-1.46-6.27-4.66-6.54Z" style="fill:#fff; fill-rule:evenodd;"/><polygon points="1708.5 895.73 1704.67 932.55 1661.65 928.17 1667.08 893.08 1708.5 895.73" style="fill:#9db2d9; fill-rule:evenodd;"/><path d="M1817.03,747.44c-3.62-12.81-12.04-23.53-23.39-31.88-4.87-3.55-10.37-6.68-16.22-9.33-3.48-9.05-24.3-16.64-49.85-17.61-27.01-1.04-49.36,5.71-51.58,15.25-1.67,.76-3.34,1.53-5.02,2.37-16.99,8.7-29.65,22.28-33.69,41.21h12.39c4.04-13.92,13.85-23.95,26.73-30.63,1.74-.83,3.55-1.67,5.36-2.44,8.49,6.06,25.13,10.58,44.35,11.28,20.19,.77,37.87-2.78,46.36-8.63,5.15,2.3,9.88,5.08,14.13,8.21,8.15,5.92,14.34,13.37,17.68,22.21h12.74Z" style="fill:#9db2d9; fill-rule:evenodd;"/><path d="M967.81,1233.58c-534.48,0-967.81,16.22-967.81,36.27s433.33,36.34,967.81,36.34,967.78-16.22,967.78-36.34-433.29-36.27-967.78-36.27Z" style="fill:#c4d1eb; fill-rule:evenodd;"/><rect x="430.75" y="520.77" width="765.44" height="558.12" style="fill:#859ac6;"/><rect x="445.37" y="535.39" width="736.2" height="528.81" style="fill:#9db2d9;"/><path d="M1159.78,1061.27c-190.72-25.06-306.14-24.09-346.31,2.92V535.39c40.17-27.08,155.59-28.06,346.31-2.92v528.81Z" style="fill:#fff; fill-rule:evenodd;"/><path d="M813.47,1064.2c-76.72-32.09-221.76,4.87-340.39-29.24V506.15c118.63,34.04,263.67-2.89,340.39,29.24-137.67,31.57-236.45,47.06-296.39,46.47v419.27c89.98,55.42,234.99,8.63,296.39,63.07Z" style="fill:#bfcce8; fill-rule:evenodd;"/><path d="M813.47,1064.2c-61.4-54.44-206.41-7.66-296.39-63.07V472.25c89.98,55.48,234.99,8.67,296.39,63.14v528.81Z" style="fill:#e0e8f5; fill-rule:evenodd;"/><path d="M890.02,594.74c19.67-2.47,42.01-3.31,67.04-2.47,47.1,1.57,103.66,9.02,169.52,22.35l1.39-6.96c-66.28-13.44-123.19-20.92-170.7-22.49-24.99-.83-47.37-.03-67.25,2.44v7.14h0Zm-45.32,335.38c28.09-10.02,65.51-14.27,112.36-12.74,47.1,1.6,103.66,8.98,169.52,22.35l1.39-6.96c-66.28-13.37-123.19-20.88-170.7-22.49-47.72-1.6-86.05,2.85-114.94,13.16l2.37,6.68h0Zm0-40.66c28.09-10.02,65.51-14.27,112.36-12.67,47.1,1.53,103.66,8.91,169.52,22.28l1.39-6.96c-66.28-13.37-123.19-20.88-170.7-22.42-47.72-1.67-86.05,2.79-114.94,13.16l2.37,6.61h0Zm0-40.59c28.09-10.09,65.51-14.34,112.36-12.74,47.1,1.53,103.66,8.98,169.52,22.28l1.39-6.96c-66.28-13.37-123.19-20.88-170.7-22.41-47.72-1.6-86.05,2.78-114.94,13.16l2.37,6.68h0Zm0-40.66c28.09-10.09,65.51-14.27,112.36-12.74,47.1,1.53,103.66,8.98,169.52,22.28l1.39-6.96c-66.28-13.37-123.19-20.88-170.7-22.42-47.72-1.53-86.05,2.79-114.94,13.16l2.37,6.68h0Zm45.32-50.89c19.67-2.5,42.01-3.34,67.04-2.5,47.1,1.53,103.66,9.05,169.52,22.35l1.39-6.96c-66.28-13.44-123.19-20.89-170.7-22.49-24.99-.84-47.37,0-67.25,2.44v7.17h0Zm0-40.66c19.67-2.5,42.01-3.34,67.04-2.5,47.1,1.53,103.66,9.05,169.52,22.35l1.39-6.96c-66.28-13.44-123.19-20.89-170.7-22.49-24.99-.84-47.37,0-67.25,2.44v7.17h0Zm0-40.66c19.67-2.5,42.01-3.34,67.04-2.5,47.1,1.6,103.66,9.05,169.52,22.42l1.39-6.96c-66.28-13.51-123.19-20.88-170.7-22.55-24.99-.77-47.37,0-67.25,2.5v7.1h0Zm0-40.62c19.67-2.47,42.01-3.31,67.04-2.47,47.1,1.53,103.66,9.02,169.52,22.31l1.39-6.96c-66.28-13.4-123.19-20.88-170.7-22.49-24.99-.8-47.37,0-67.25,2.47v7.14Z" style="fill:#bfcce8; fill-rule:evenodd;"/><path d="M875.43,517.39v243.76l-26.28-12.18-21.06,26.04v-247.07c12.15-4.77,27.92-8.28,47.34-10.55Z" style="fill:#b0c2e4; fill-rule:evenodd;"/><path d="M781.35,581.82c-31.85-16.57-86.36-19.56-135.82-22.28-40.87-2.26-78.25-4.32-95.1-13.54l-3.41,6.27c18.31,9.99,56.42,12.08,98.13,14.37,48.73,2.65,102.41,5.61,132.9,21.48l3.31-6.3h0Zm0,357.14c-31.85-16.57-86.36-19.56-135.82-22.28-40.87-2.23-78.25-4.32-95.1-13.51l-3.41,6.2c18.31,10.02,56.42,12.12,98.13,14.41,48.73,2.71,102.41,5.64,132.9,21.51l3.31-6.33h0Zm0-35.72l-3.31,6.27c-30.49-15.87-84.17-18.8-132.9-21.44-41.7-2.3-79.82-4.39-98.13-14.34l3.41-6.27c16.85,9.19,54.23,11.28,95.1,13.51,49.46,2.72,103.97,5.71,135.82,22.28h0Zm0-35.71c-31.85-16.57-86.36-19.56-135.82-22.28-40.87-2.23-78.25-4.32-95.1-13.51l-3.41,6.2c18.31,10.02,56.42,12.11,98.13,14.41,48.73,2.65,102.41,5.64,132.9,21.51l3.31-6.33h0Zm0-35.72l-3.31,6.27c-30.49-15.87-84.17-18.8-132.9-21.44-41.7-2.3-79.82-4.39-98.13-14.34l3.41-6.27c16.85,9.19,54.23,11.28,95.1,13.5,49.46,2.72,103.97,5.71,135.82,22.28h0Zm0-35.71c-31.85-16.64-86.36-19.56-135.82-22.28-40.87-2.3-78.25-4.25-95.1-13.51l-3.41,6.2c18.31,10.02,56.42,12.11,98.13,14.41,48.73,2.65,102.41,5.64,132.9,21.51l3.31-6.34h0Zm0-35.71l-3.31,6.27c-30.49-15.87-84.17-18.8-132.9-21.44-41.7-2.3-79.82-4.39-98.13-14.34l3.41-6.27c16.85,9.19,54.23,11.28,95.1,13.51,49.46,2.71,103.97,5.71,135.82,22.28h0Zm0-35.72c-31.85-16.64-86.36-19.56-135.82-22.28-40.87-2.3-78.25-4.32-95.1-13.5l-3.41,6.19c18.31,10.03,56.42,12.11,98.13,14.34,48.73,2.72,102.41,5.71,132.9,21.58l3.31-6.34h0Zm0-35.71l-3.31,6.27c-30.49-15.87-84.17-18.8-132.9-21.44-41.7-2.3-79.82-4.45-98.13-14.37l3.41-6.27c16.85,9.23,54.23,11.31,95.1,13.54,49.46,2.64,103.97,5.71,135.82,22.28h0Zm0-35.71c-31.85-16.57-86.36-19.56-135.82-22.31-40.87-2.19-78.25-4.28-95.1-13.47l-3.41,6.23c18.31,9.99,56.42,12.08,98.13,14.38,48.73,2.64,102.41,5.6,132.9,21.48l3.31-6.3h0Zm0-35.75l-3.31,6.33c-30.49-15.87-84.17-18.83-132.9-21.51-41.7-2.26-79.82-4.35-98.13-14.34l3.41-6.23c16.85,9.19,54.23,11.24,95.1,13.51,49.46,2.68,103.97,5.67,135.82,22.24Z" style="fill:#bfcce8; fill-rule:evenodd;"/><polygon points="793.7 67.25 658.02 174.88 715.91 216.65 793.7 67.25" style="fill:#c4d1eb; fill-rule:evenodd;"/><polygon points="628.95 155.73 789.11 68.99 580.78 146.09 628.95 155.73" style="fill:#c4d1eb; fill-rule:evenodd;"/><polygon points="628.95 155.73 653.46 225.45 658.02 174.88 793.7 67.25 789.11 68.99 628.95 155.73" style="fill:#9db2d9; fill-rule:evenodd;"/><polygon points="653.46 225.45 683.67 193.39 658.02 174.88 653.46 225.45" style="fill:#859ac6; fill-rule:evenodd;"/><path d="M617.43,197.71c3.76-2.16,6.58,3.34,3.24,5.25-1.74,1.05-3.45,2.16-5.12,3.27-3.97,2.26-6.51-3.38-3.38-5.15,1.74-1.15,3.48-2.3,5.26-3.38h0Zm176.55,320.17c-.98,3.9-7,2.47-6.02-1.53,.52-1.95,.98-3.9,1.43-5.88,1.04-4.21,6.96-2.4,6.02,1.29-.42,2.05-.9,4.11-1.43,6.13h0Zm4.04-24.96c0,3.66-6.16,4.14-6.16-.35,.1-1.98,.17-3.97,.17-5.99,0-4.11,6.16-4.07,6.16-.03,0,2.12-.07,4.25-.17,6.37h0Zm-1.56-25.37c.52,4.18-5.08,5.05-6.06,1.15-.38-1.95-.8-3.9-1.29-5.81-1.04-4.07,5.01-5.4,5.95-1.56,.56,2.02,1.01,4.14,1.39,6.23h0Zm-8.04-24.19c1.81,3.17-3.31,6.68-5.53,2.75-.84-1.67-1.81-3.72-2.82-5.26-2.05-3.62,3.38-6.58,5.33-3.13,1.11,1.74,2.12,3.79,3.03,5.64h0Zm-14.03-21.23c2.71,3.24-2.16,7.07-4.66,4.04-1.32-1.5-2.65-2.99-4.04-4.42-2.78-2.82,1.5-7.31,4.46-4.32,1.46,1.57,2.89,3.1,4.25,4.7h0Zm-18.38-17.4c3.38,2.78-.87,7.31-3.76,4.91-1.57-1.25-3.2-2.44-4.87-3.59-3.34-2.44,.31-7.41,3.59-5.08,1.71,1.22,3.41,2.47,5.05,3.76h0Zm-21.16-13.68c3.72,2.12,.45,7.38-2.92,5.47-1.77-.97-3.55-1.91-5.39-2.79-3.93-2.26-.38-7.38,2.75-5.57,1.88,.94,3.72,1.88,5.57,2.89h0Zm-22.9-10.34c3.83,1.43,1.64,7.21-2.12,5.78l-5.74-2.05c-4.07-1.5-1.64-7.17,1.98-5.85,1.98,.7,3.93,1.39,5.88,2.12h0Zm-23.95-7.38c3.97,1.01,2.44,6.96-1.5,6.02l-5.92-1.39c-4.21-1.05-2.4-6.96,1.29-6.02l6.13,1.39h0Zm-24.64-4.63c4,.49,3.31,6.65-.8,6.13l-6.06-.73c-4.21-.52-3.24-6.61,.66-6.13,2.05,.21,4.14,.45,6.2,.73h0Zm-24.85-2.02c4.11,.52,3.72,6.2-.38,6.2-2.05-.14-4.14-.24-6.2-.42-4.42-.56-3.2-6.61,.49-6.16l6.09,.38h0Zm-24.4-2.19c4,.49,3.31,6.61-.8,6.13-2.09-.28-4.14-.56-6.19-.87-3.83-.49-3.31-6.65,.94-6.13,2.02,.31,4.04,.59,6.06,.87h0Zm-23.98-4.35c3.93,1.01,2.47,7-1.5,6.02-2.05-.52-4.07-1.04-6.09-1.6-3.65-.94-2.51-7,1.74-5.95,1.88,.59,3.9,1.08,5.85,1.53h0Zm-22.9-7.62c3.58,1.57,1.36,7.31-2.54,5.64-1.98-.87-3.86-1.81-5.78-2.82-3.65-2.09-.45-7.38,2.96-5.43,1.67,.94,3.62,1.84,5.36,2.61h0Zm-19.63-12.84c2.82,2.85-1.5,7.27-4.39,4.35-1.6-1.57-3.06-3.17-4.39-4.94-2.37-2.82,2.05-7.14,4.94-3.73,1.15,1.53,2.47,2.96,3.83,4.32h0Zm-11-19.74c.91,3.62-4.98,5.5-6.06,1.22-.42-2.23-.73-4.32-.84-6.58,0-4.46,6.16-4,6.16-.31,.1,1.95,.35,3.76,.73,5.67h0Zm1.39-23.01c-.94,3.73-7,2.51-5.95-1.67,.56-2.05,1.25-4.11,1.98-6.13,1.43-3.83,7.21-1.64,5.81,2.16-.7,1.85-1.32,3.76-1.84,5.64h0Zm9.61-21.86c-1.98,3.45-7.41,.49-5.36-3.13,.87-1.7,2.26-3.76,3.34-5.4,1.74-3.13,7.38-.56,5.15,3.38-.94,1.36-2.4,3.72-3.13,5.15h0Zm13.85-19.88c-2.68,3.2-7.35-.87-4.8-3.9,1.29-1.64,2.64-3.24,4-4.8,2.54-3.06,7.38,.77,4.7,4-1.32,1.53-2.65,3.1-3.9,4.7h0Zm16.36-18.07c-2.85,2.85-7.24-1.5-4.35-4.42,1.46-1.43,2.99-2.99,4.53-4.35,2.68-2.68,7.27,1.46,4.21,4.52-1.46,1.39-2.92,2.78-4.39,4.25h0Zm18.13-16.36c-3.06,2.54-7.1-2.12-3.9-4.8l4.87-3.9c2.92-2.44,7.14,2.09,3.79,4.87-1.57,1.15-3.24,2.57-4.77,3.83Z" style="fill:#859ac6; fill-rule:evenodd;"/><polygon points="1268.52 1085.5 1273.75 1181.02 1225.01 1183.66 1107.78 1101.79 1107.43 1094.34 1268.52 1085.5" style="fill:#859ac6; fill-rule:evenodd;"/><polygon points="1231 1178.86 1225.01 1183.66 1107.78 1101.79 1107.43 1094.34 1231 1178.86" style="fill:#9db2d9; fill-rule:evenodd;"/><path d="M1118.5,1087.59c-.21,2.79-.42,5.5-.7,8.35,0,0,97.46,62.66,115.22,77.55,0,0,17.61-28.82,2.57-79.78,0,0-113.33-77-123.36-82.43,0,0,2.58,10.72,4.6,27.15,.07,.83,.14,1.67,.28,2.5,1.39,12.81,2.37,28.47,1.46,45.04-.07,.48-.07,1.04-.07,1.6Z" style="fill:#fff; fill-rule:evenodd;"/><path d="M1112.23,1011.29h0c1.25,.91,2.5,1.81,3.76,2.65,16.99,11.9,33.97,21.79,50.96,33.69,18.38,12.88,32.02,21.72,50.4,34.67,1.46,.97,10.37,7.38,15.45,16.92,8.22,22.35,7.59,52.35-1.39,73.03-5.36-4.32-15.32-11.42-27.29-19.49,1.11,.28,2.3,.42,3.41,.56,1.46,.28,2.78,.35,4.11,.35,3.9,0,7.24-.91,10.03-2.58,.21,.14,.42,.28,.63,.42,4.52,2.58,7.72,4.18,7.72,4.18,0,0-2.92-2.02-7.24-4.94q-.14-.07-.28-.14c6.68-4.53,9.47-13.58,8.91-24.09-1.53-27.85-21.72-42.47-43.16-56.04-13.23-8.35-28.47-16.99-41.28-25.9-10.93-7.66-23.81-16.29-33.07-25.06-.07-.49-.14-.98-.28-1.39-.83-4.32-1.39-6.82-1.39-6.82Z" style="fill:#e0e8f5; fill-rule:evenodd;"/><path d="M1222.51,1150.59q.14,.07,.28,.14c4.32,2.92,7.24,4.94,7.24,4.94,0,0-3.2-1.6-7.72-4.18-.21-.14-.42-.28-.63-.42,.28-.14,.56-.28,.84-.49Z" style="fill:#e0e8f5; fill-rule:evenodd;"/><path d="M1105.27,1006.41l-.35-6.33,380.17-12.6,117.1,79.85s-368.97,32.65-369.39,31.95c-5.08-9.61-13.99-16.01-15.45-16.99-18.38-12.95-32.02-21.79-50.4-34.67-16.99-11.9-33.97-21.79-50.96-33.69-3.55-2.51-7.1-5.02-10.72-7.52Z" style="fill:#859ac6; fill-rule:evenodd;"/><path d="M1218.96,1077.29c24.43,21.86,25.69,80.82,5.85,106.38,0,0,372.8-20.47,373.77-20.54,13.65-.77,18.38-25.27,19.63-35.3,2.09-14.9,.98-72.54-25.48-71.08l-373.77,20.54Z" style="fill:#9db2d9; fill-rule:evenodd;"/><path d="M1231.42,1172.24h0c-.7,1.81-1.6,3.55-2.51,5.15h0c.91-1.67,1.81-3.34,2.51-5.15Z" style="fill:#528d97; fill-rule:evenodd;"/><path d="M1228.91,1177.39h0c-.91,1.67-1.81,3.2-2.85,4.6,1.05-1.39,1.95-2.92,2.85-4.6Z" style="fill:#5f9fab; fill-rule:evenodd;"/><path d="M1232.81,1099.21v.07h.07c8.15,22.28,7.52,52.35-1.46,72.96h0c8.98-20.67,9.61-50.68,1.39-73.03Z" style="fill:#dace90; fill-rule:evenodd;"/><path d="M1231.49,1095.8s.07,0,.07,.07c.42,1.11,.9,2.23,1.32,3.41h-.07v-.07c-.42-1.18-.83-2.3-1.32-3.41Z" style="fill:#528d97; fill-rule:evenodd;"/><path d="M1231.56,1095.87c6.2,7.72,11.28,16.36,14.62,25.83,3.2,9.05,4.18,17.96,5.57,27.36,.7,4.8,1.67,11.42,5.99,14.55,5.43,3.76,34.11,5.22,53.05,5.22,5.99,0,11.07-.14,14.06-.42,25.2-2.16,50.26-2.72,76.72-4.25,52.84-2.92,99.97-3.27,152.6-8.77,17.13-1.81,38.01-3.41,49.71-17.96,4.73-5.85,8.21-12.46,10.44-19.63,1.95-6.62,2.37-13.51,3.62-20.33,.83,7.38,1.04,14.48,.97,20.33-.07,4.11-.28,7.52-.62,9.88,0,.14-.07,.14-.07,.14-1.25,10.03-5.99,34.53-19.63,35.3-.97,.07-373.77,20.54-373.77,20.54h0c.07,0,.14-.14,.21-.21,0-.07,.07-.07,.07-.07q.07-.14,.14-.21c0-.07,.07-.07,.07-.14s.07-.07,.14-.14q0-.07,.14-.14v-.07c.14-.14,.14-.28,.28-.42h0c.14-.07,.14-.14,.14-.21l.07-.07c1.05-1.39,1.95-2.92,2.85-4.6,.91-1.6,1.81-3.34,2.51-5.15h0c8.98-20.61,9.61-50.68,1.46-72.96-.42-1.18-.91-2.3-1.32-3.41Z" style="fill:#859ac6; fill-rule:evenodd;"/><path d="M1511.07,1061.27l12.32-.69c7.24,14.27,11.28,30.49,12.18,46.43,.97,18.86,.21,41.28-6.33,59.94l-12.18,.7c9.26-30.21,11.42-76.44-5.99-106.38Z" style="fill:#859ac6; fill-rule:evenodd;"/><path d="M1488.03,1062.53l12.25-.69c7.24,14.34,11.42,30.49,12.25,46.43,.97,18.86,.14,41.28-6.41,59.94l-12.11,.7c9.19-30.21,11.42-76.44-5.99-106.37Z" style="fill:#859ac6; fill-rule:evenodd;"/><path d="M1289.55,1073.46l63.84-3.55c7.31,14.34,11.14,30.42,12.25,46.43,1.32,18.87,1.39,41.7-6.33,59.94l-63.7,3.55c9.19-30.14,11.35-76.44-6.05-106.38Z" style="fill:#859ac6; fill-rule:evenodd;"/><polygon points="1104.93 1000.08 1484.62 979.19 1601.78 1059.04 1222.09 1080 1104.93 1000.08" style="fill:#b0c2e4; fill-rule:evenodd;"/><polygon points="1403.86 998.2 1463.38 994.93 1541 1047.84 1481.41 1051.11 1403.86 998.2" style="fill:#859ac6; fill-rule:evenodd;"/><path d="M1266.37,960.96c13.23,23.04,12.25,71.78,3.2,96.77,0,0,299.49-16.78,300.26-16.78,8.35-.49,14.83-19.35,15.8-28.89,1.53-14.2,.21-68.99-21.44-67.74l-297.82,16.64Z" style="fill:#b0c2e4; fill-rule:evenodd;"/><path d="M1567.11,951.14s10.51,7.52,11.56,42.19c.56,16.78-.91,30.21-9.33,38.71-.97,.84,.42,7.52,.49,8.91l-330.05,18.45-115.84-81.17-.35-6.61,443.53-20.47Z" style="fill:#9db2d9; fill-rule:evenodd;"/><polygon points="1123.58 971.61 1239.08 1051.11 1569.34 1032.03 1569.83 1040.95 1239.77 1059.39 1123.93 978.22 1123.58 971.61" style="fill:#b0c2e4; fill-rule:evenodd;"/><path d="M1142.17,969.52c-.07,2.51-.28,4.87-.56,7.38,0,0,85.7,54.93,101.29,68.09,0,0,11.97-34.88,.76-76.3,0,0-98.23-61.4-107-66.13,0,0,2.3,9.46,4.04,23.81,.07,.77,.21,1.53,.28,2.3,1.25,11.21,2.09,24.99,1.32,39.54,0,.49-.07,.91-.14,1.32Z" style="fill:#fff; fill-rule:evenodd;"/><path d="M1246.8,1022.29c-.7,8.49-2.02,16.29-3.9,22.7,0,0,304.29-17.13,305.13-17.13,11.42-.69,15.32-20.19,16.43-28.26,1.67-11.9,.83-57.78-21.24-56.6l-305.13,17.06c2.79,4.74,4.8,10.72,6.26,17.47,.42,1.6,.77,3.34,1.04,5.08,1.88,11.28,2.44,24.08,1.67,35.92-.07,1.25-.14,2.51-.28,3.76Z" style="fill:#fff; fill-rule:evenodd;"/><path d="M1137.57,906.86h0c.42,1.67,.77,3.76,1.19,6.19h0c-.42-2.44-.77-4.52-1.19-6.19Z" style="fill:#edeadd; fill-rule:evenodd;"/><path d="M1137.57,906.86c.91,.62,1.81,1.25,2.65,1.81,1.95,1.39,4.45,3.06,7.66,5.15,0,.7,0,1.39,.07,1.95h0v.28l.07,.07v.28c0,.49,.07,.97,.14,1.39h0v.14h0c0,.42,.07,.91,.14,1.33-4.73-3.21-8.29-5.43-9.54-6.2-.42-2.44-.77-4.52-1.19-6.19h0Zm56.46,42.81c3.13,.21,6.47,.49,9.95,.7,12.67,8.29,23.81,15.59,29.38,19.49,.07,.07,.28,.07,.56,.07,1.19,0,4.04-.14,8.35-.35,.84,2.5,1.53,5.15,2.09,7.93l.07,.07c.35,1.39,1.6,10.16,2.09,13.64-9.12-19.49-35.99-30.91-52.28-41.49q-.14,0-.21-.07Z" style="fill:#e0e8f5; fill-rule:evenodd;"/><path d="M1557.64,951.98c.14,.28,.28,.56,.42,.83,.21,.28,.35,.56,.49,.91,.14,.28,.28,.63,.42,.91,.21,.28,.35,.56,.49,.91,.07,.35,.21,.62,.35,.91,.14,.35,.21,.7,.35,.97,.28,.56,.49,1.18,.69,1.81,4.74,13.99,4.59,33.14,3.62,40.31v.07h0c-1.11,8.08-5.01,27.57-16.43,28.26h0c-.21,0-15.45,.84-39.12,2.16,7.8-2.16,14.62-7.17,19.49-13.78l30.5-1.95c.35,0,.63-.35,.56-.69,0-.35-.28-.56-.63-.56h0l-29.17,1.39c7.94-12.04,9.68-28.47,.84-41.77,4.46-.35,8.28-.63,11.28-.91,4.04-.35,6.41-.56,6.41-.56h-18.8c-5.85-7.66-14.2-9.33-23.11-9.33-4.73,0-9.6,.42-14.48,.77-2.78,.21-5.71,.35-8.49,.49l11.14-7.52c28.19-1.6,51.03-2.92,63.21-3.62Z" style="fill:#e0e8f5; fill-rule:evenodd;"/><path d="M1130.75,902.13l-.28-5.57,333.6-15.17,102.62,62.79,.42,7.24s-332.49,19.35-333.74,18.45c-16.15-11.35-78.18-50.75-93.14-61.19-3.13-2.16-6.27-4.38-9.47-6.54Z" style="fill:#b0c2e4; fill-rule:evenodd;"/><polygon points="1130.47 896.56 1463.73 874.07 1566.69 944.18 1233.23 962.83 1130.47 896.56" style="fill:#9db2d9; fill-rule:evenodd;"/><polygon points="1223.83 895.17 1426.14 883.89 1450.43 900.95 1251.12 912.15 1223.83 895.17" style="fill:#e7e4de; fill-rule:evenodd;"/><polygon points="1438.32 888.14 1432.47 967.15 1472.78 970.15 1571.15 904.15 1571.43 897.95 1438.32 888.14" style="fill:#9db2d9; fill-rule:evenodd;"/><polygon points="1467.98 966.04 1472.78 970.15 1571.15 904.15 1571.43 897.95 1467.98 966.04" style="fill:#b0c2e4; fill-rule:evenodd;"/><path d="M1562.51,892.18c0,2.3,.14,4.59,.35,6.89,0,0-81.66,50.4-96.56,62.52,0,0-14.13-24.16-.83-66.07,0,0,94.95-62.03,103.31-66.35,0,0-2.37,8.77-4.17,22.28-.14,.77-.21,1.46-.28,2.23-1.39,10.44-2.37,23.53-1.95,37.17,0,.42,.07,.84,.14,1.33Z" style="fill:#fff; fill-rule:evenodd;"/><path d="M1568.78,829.17s-.07,.28-.21,.84c-.21,.97-.77,3.06-1.32,5.92-2.37,2.16-5.01,4.38-7.87,6.47,.35-1.46,.56-2.86,.63-4.04,.14-.98,.28-2.23,.28-3.62,1.81-1.11,3.55-2.3,5.29-3.48,1.11-.7,2.09-1.39,3.2-2.09h0Zm-43.09,35.58c-6.96,4.18-14.13,8.28-20.68,12.18-18.03,11-34.95,22.69-36.62,45.81-.69,8.7,1.53,16.22,6.96,20.05-.07,0-.14,.07-.21,.14-3.69,2.3-6.06,3.97-6.06,3.97,0,0,2.64-1.32,6.47-3.41,.21-.07,.35-.14,.49-.28,2.37,1.46,5.22,2.23,8.7,2.23,.98,0,1.95,0,3-.14,.9-.14,1.81-.28,2.78-.42-9.95,6.47-18.38,12.18-22.83,15.66-7.1-17.2-7.17-42.12-.07-60.43,4.39-7.87,11.84-13.02,13.02-13.78,11.7-7.87,21.02-13.85,31.61-20.82,4.87-.28,9.46-.56,13.43-.77Z" style="fill:#e0e8f5; fill-rule:evenodd;"/><path d="M1574.63,825.2l.42-5.22-314.53-16.22-98.16,64.33s304.92,32.65,305.2,32.02c4.46-7.87,11.9-13.02,13.09-13.78,15.45-10.37,26.87-17.54,42.33-27.92,14.2-9.61,28.4-17.54,42.61-27.15,3.06-2.02,5.99-4.04,9.05-6.06Z" style="fill:#9db2d9; fill-rule:evenodd;"/><path d="M1479.46,882.22c-20.61,17.68-22.49,66.42-6.47,87.93,0,0-308.26-22.63-309.1-22.7-11.28-.83-14.76-21.16-15.73-29.52-1.39-12.39,.35-60.08,22.21-58.41l309.1,22.69Z" style="fill:#c4d1eb; fill-rule:evenodd;"/><path d="M1467.63,900.11c-7.1,18.31-7.03,43.23,.07,60.43h0c-7.1-17.2-7.24-42.05-.14-60.36v-.07h.07Z" style="fill:#dace90; fill-rule:evenodd;"/><path d="M1147.95,915.78h0Zm0,.14v0h0Zm0,.14l.07,.07-.07-.07h0Zm.07,.14v0h0Zm0,.21c0,.49,.07,.97,.14,1.39-.07-.42-.14-.91-.14-1.39h0Zm.14,1.39v0Z" style="fill:#dace97; fill-rule:evenodd;"/><path d="M1148.85,892.8c.97,5.64,1.11,11.42,2.72,16.85,1.67,5.99,4.52,11.56,8.28,16.43,9.47,12.25,26.8,13.85,40.94,15.59,43.44,5.43,82.5,6.41,126.14,9.68,21.86,1.6,42.61,2.44,63.49,4.67,3.48,.35,10.17,.55,17.82,.55,15.18,0,33.84-.9,37.73-3.62,3.62-2.5,4.6-7.94,5.22-11.9,1.32-7.73,2.3-15.11,5.08-22.63,2.92-7.73,7.24-14.76,12.46-21.09-.35,.91-.77,1.88-1.18,2.86-7.1,18.31-6.96,43.16,.14,60.36h0c.55,1.53,1.25,2.99,1.95,4.39,.7,1.32,1.53,2.57,2.37,3.76v.07c0,.07,.07,.14,.14,.21h0c.07,.14,.14,.28,.28,.42h0s0,.07,.07,.14q.07,0,.07,.07c0,.07,.07,.07,.14,.14v.07c.07,.07,.07,.14,.14,.14,0,.07,.07,.14,.14,.21h0s-308.26-22.63-309.1-22.7c-11.28-.83-14.76-21.16-15.73-29.52h0v-.14h0c-.07-.42-.14-.91-.14-1.39v-.28l-.07-.07v-.28h0c-.35-5.29-.21-13.92,.91-22.97Z" style="fill:#b0c2e4; fill-rule:evenodd;"/><path d="M1218.75,863l-10.1-.69c-6.2,11.7-9.88,25.06-10.79,38.22-1.11,15.59-.83,34.18,4.32,49.78l10.03,.69c-7.1-25.13-8.28-63.42,6.55-88Z" style="fill:#9db2d9; fill-rule:evenodd;"/><path d="M1237.82,864.4l-10.09-.7c-6.19,11.7-9.88,25.06-10.79,38.22-1.11,15.59-.84,34.18,4.32,49.78l10.02,.7c-7.1-25.13-8.28-63.42,6.54-88Z" style="fill:#9db2d9; fill-rule:evenodd;"/><path d="M1256.9,865.86l-10.09-.77c-6.2,11.7-9.89,25.06-10.79,38.22-1.11,15.59-.84,34.18,4.32,49.78l10.02,.7c-7.1-25.07-8.21-63.42,6.54-87.93Z" style="fill:#9db2d9; fill-rule:evenodd;"/><path d="M1421.05,877.9l-52.77-3.9c-6.27,11.7-9.68,25.06-10.86,38.29-1.39,15.45-1.81,34.53,4.32,49.71l52.77,3.9c-7.17-25.2-8.35-63.49,6.54-88Z" style="fill:#9db2d9; fill-rule:evenodd;"/><polygon points="1575.05 819.98 1261 796.87 1162.78 861.26 1476.82 884.31 1575.05 819.98" style="fill:#9db2d9; fill-rule:evenodd;"/><polygon points="1327.63 813.86 1278.34 810.23 1213.32 852.84 1262.61 856.46 1327.63 813.86" style="fill:#ecb362; fill-rule:evenodd;"/><path d="M1280.64,793.39c11.49,20.19,10.58,62.79,2.64,84.72,0,0,262.18-14.41,262.87-14.48,7.31-.35,13.02-16.92,13.86-25.27,1.39-12.39,.21-60.36-18.66-59.32l-260.71,14.34Z" style="fill:#b0c2e4; fill-rule:evenodd;"/><path d="M1543.79,785.03s9.26,6.62,10.1,36.9c.56,14.76-.77,26.52-8.21,33.91-.77,.76,.42,6.61,.49,7.8l-288.98,15.94-101.29-71.15-.28-5.85,388.18-17.54Z" style="fill:#9db2d9; fill-rule:evenodd;"/><polygon points="1155.6 802.58 1256.62 872.33 1545.67 855.77 1546.16 863.63 1257.18 879.57 1155.88 808.42 1155.6 802.58" style="fill:#b0c2e4; fill-rule:evenodd;"/><path d="M1171.9,800.77c-.07,2.23-.21,4.32-.49,6.47,0,0,74.91,48.11,88.55,59.66,0,0,10.58-30.5,.7-66.83,0,0-85.84-53.75-93.57-57.92,0,0,2.09,8.28,3.55,20.88,.07,.62,.14,1.25,.21,1.95,1.11,9.82,1.81,21.86,1.11,34.67,0,.35,0,.77-.07,1.11Z" style="fill:#fff; fill-rule:evenodd;"/><path d="M1263.44,847.13c-.69,7.38-1.81,14.2-3.48,19.77,0,0,266.36-14.69,267.05-14.76,10.03-.56,13.51-17.68,14.48-24.65,1.53-10.44,.84-50.68-18.52-49.57l-267.05,14.69c2.37,4.11,4.18,9.4,5.43,15.25,.35,1.46,.62,2.92,.83,4.46,1.74,9.88,2.16,21.02,1.53,31.46-.14,1.11-.21,2.23-.28,3.34Z" style="fill:#fff; fill-rule:evenodd;"/><path d="M1523.67,777.93h-.7l-267.05,14.69h0l185.18-10.23,81.87-4.46h.7Zm5.71,1.39h0c.14,0,.28,.14,.35,.14-.07,0-.21-.14-.35-.14Z" style="fill:#edeadd; fill-rule:evenodd;"/><path d="M1523.67,777.93h1.39c.35,.07,.7,.14,1.04,.21l.49,.07c.35,.14,.69,.21,.97,.28l.49,.21c.34,.14,.77,.35,1.11,.49l.21,.14c.14,0,.28,.14,.35,.14,.35,.28,.62,.42,.9,.63l.42,.35c.28,.14,.49,.35,.69,.56l.42,.42,.69,.7,.42,.42c.28,.28,.42,.56,.69,.84l.28,.42c.28,.42,.56,.83,.83,1.32l.42,.63c.14,.28,.28,.56,.42,.84,.14,.21,.28,.49,.42,.69,.14,.28,.28,.56,.42,.84,.14,.28,.21,.56,.35,.77,.07,.28,.21,.56,.35,.84,.14,.28,.21,.56,.35,.83,.21,.49,.35,1.05,.49,1.53,1.39,3.97,2.23,8.29,2.78,12.67,1.25,9.33,1.04,18.52,.42,22.76h0c-.97,6.96-4.46,24.09-14.48,24.65h0s-.21,0-.62,.07h-.21c-3.2,.21-15.59,.91-33.34,1.88,6.89-1.95,12.74-6.26,17.06-12.11l26.73-1.67c.28,0,.56-.28,.49-.56,0-.35-.21-.56-.56-.56h0l-25.55,1.25c6.96-10.58,8.49-24.92,.69-36.62,4.04-.28,7.38-.56,9.89-.7,3.62-.35,5.64-.56,5.64-.56h-16.43c-5.08-6.68-12.46-8.21-20.26-8.21-4.18,0-8.35,.42-12.6,.69-16.99,1.04-33.97,1.53-51.03,2.51-9.68,.49-19.35,.83-29.1,1.39-24.23,1.11-48.45,2.36-72.68,3.48-4.6,.28-9.26,.56-13.86,.7-11.07,.28-19.7,1.32-26.66,3.34-3.97,.28-7.73,.42-11.07,.63-4.59,.35-8.43,.56-11.07,.7-.49-2.5-1.11-5.08-1.81-7.73,0,0-.62-.42-1.81-1.11-.9-2.37-1.88-4.46-2.92-6.34l267.05-14.69h.7Zm-250.13,33.28c-4.18,.42-7.73,.76-10.24,.97,.42,2.64,.7,5.15,.98,7.66,2.5-3.41,5.57-6.27,9.26-8.63Z" style="fill:#e0e8f5; fill-rule:evenodd;"/><path d="M1161.94,741.73l-.28-4.8,292.11-13.02,89.67,55,.42,6.4s-291,16.57-292.11,15.87c-14.2-9.89-68.43-44.49-81.45-53.61-2.79-1.95-5.57-3.9-8.35-5.85Z" style="fill:#b0c2e4; fill-rule:evenodd;"/><polygon points="1161.66 736.93 1453.36 717.51 1543.44 778.91 1251.61 794.99 1161.66 736.93" style="fill:#c4d1eb; fill-rule:evenodd;"/><polygon points="1243.39 735.81 1420.5 726 1441.73 741.04 1267.27 750.64 1243.39 735.81" style="fill:#e7e4de; fill-rule:evenodd;"/><path d="M1331.11,741.59c.91-8.7-3.76-29.79-10.3-35.43,13.92-2.02,28.05-3.27,42.05-4.53,36.48-3.34,72.89-6.05,109.37-8.63,17.75-1.25,35.43-2.37,53.19-3.48,7.31-.49,14.69-.97,22.07-1.32,4.66-.28,4.8,1.05,4.18,5.36-.84,5.01-1.25,10.03-1.39,15.11-.28,6.82,.14,13.65,.98,20.4,.69,5.43-.56,11.14,3.55,15.59,4.52,4.87,10.09,5.99,18.03,8.49,5.08,1.53,1.53,5.15-3.76,5.99-16.57,2.78-34.25,4.87-54.44,6.68-28.96,2.5-58.13,4.25-87.23,6.41-27.36,2.02-55,6.82-82.43,8.91-12.18,.9-24.29,1.81-36.48,2.64,14.97-10.72,20.82-23.81,22.63-42.19Z" style="fill:#b0c2e4; fill-rule:evenodd;"/><path d="M1130.06,749.53l182.47,37.59,253.82-28.13-188.52-74.98c-7.45,1.74-14.97,3.48-22.49,5.22-8.28,1.95-16.57,3.9-24.92,5.85-9.12,2.09-17.61-.83-26.8-2.5-54.23-10.02-109.23-15.39-164.09-20.68-1.11-.07-2.3-.21-3.06,.56-.56,.49-.69,1.25-.83,2.02-2.92,13.51-4.46,24.79-6.54,38.43-.77,5.15-5.57,35.5,.97,36.62Z" style="fill:#9db2d9; fill-rule:evenodd;"/><path d="M1564.61,754.26c-36.48,3.97-100.67,9.05-131.72,12.11-39.54,3.9-74.63,9.05-114.45,11.84-1.81,.14-3.62,.56-5.43,.42-1.39-.14-2.64-.7-4.04-.97-22.07-3.9-107.83-20.89-129.49-24.79-12.67-2.23-24.09-5.99-37.87-8.49-1.18-.14-2.37-.98-3.2-1.81l-.56-.63c-.91-1.39-.91-3.13-.91-4.8,.21-8.98,2.09-17.12,3.13-25.9,1.25-10.3,2.92-20.61,6.47-30.35,.42-1.25,.91-2.51,1.67-3.62,1.67-2.3,4.66-3.48,7.59-3.55,5.85-.21,12.39,2.23,18.24,2.99,6.89,.97,13.78,1.88,20.61,2.79,30.35,4.11,60.71,8.21,90.85,13.09,9.05,1.53,18.17,3.06,27.08,4.87,3.97,.83,7.94,2.23,11.84,2.64,10.86,.97,22-.42,32.79-1.46,69.83-6.61,132.34-10.93,202.52-12.04-3.34,7.24-5.22,16.71-5.57,25.76-.14,.91-.14,1.81-.14,2.79,0,3.62,.14,6.96,.7,10.17l.07,.56c.21,.97,.34,1.95,.48,2.85,1.81,9.82,4.18,16.01,9.33,25.55Z" style="fill:#fff; fill-rule:evenodd;"/><path d="M1137.85,674.27l183.86,32.02,245.89-18.17c2.09-.14,2.3-3.13,.21-3.48l-184.49-32.16-245.26,18.1c-2.16,.14-2.3,3.34-.21,3.69Z" style="fill:#9db2d9; fill-rule:evenodd;"/><path d="M1593.57,701.63l-184.07,6.55-255.22-54.51,199.94-50.96,240.46,92.1c3.62,1.32,2.78,6.68-1.11,6.82Z" style="fill:#b0c2e4; fill-rule:evenodd;"/><path d="M1588.41,696.13c-55.97,2.02-114.17,4.94-168.75,5.36-5.78,.07-18.17,1.6-23.67-3.21-5.01-4.46-11.14-15.59-11.62-22.35-.91-12.15,2.09-24.85,9.26-36.97,1.88-3.13,4.04-6.27,6.55-8.95,1.95-2.12,4.59-3.79,7.52-4.21,31.12-4.32,179.2-1.95,179.61-2.65-3.13,5.22-5.99,10.02-8.29,15-.35,.7-.62,1.39-.91,2.12-1.39,3.27-2.58,6.68-3.41,10.44-.14,.73-.35,1.46-.49,2.16-.28,1.67-.49,3.38-.69,5.15-.56,6.19,.35,12.81,2.5,19.07,.28,.7,.49,1.39,.77,2.02,1.19,2.99,2.72,5.92,4.46,8.63,.49,.69,.91,1.39,1.46,2.02,1.67,2.36,3.62,4.46,5.71,6.33Z" style="fill:#fff; fill-rule:evenodd;"/><path d="M1392.58,666.06c.35-8.7,7.87-28.93,15.11-33.66-44.62-12.81-251.04-55.83-256.05-54.51-5.15,1.39-8.63,5.6-10.02,8.84-9.19,20.05-6.2,57.4,12.67,66.94l255.22,54.51c-13.3-12.67-17.61-23.67-16.92-42.12Z" style="fill:#b0c2e4; fill-rule:evenodd;"/><path d="M1193.13,603.37c68.5,13.75,136.73,28.82,205.23,42.5,2.72-6.02,6.06-11.35,9.33-13.47-44.62-12.81-251.04-55.83-256.05-54.51-5.15,1.39-8.63,5.6-10.02,8.84-.91,1.91-1.67,4-2.37,6.2,17.96,3.38,35.92,6.86,53.89,10.44Z" style="fill:#9db2d9; fill-rule:evenodd;"/><path d="M1593.22,625.75l-186.44,6.68-255.15-54.54,201.47-7.21,240.46,51.41c2.09,.42,1.81,3.58-.35,3.65Z" style="fill:#b0c2e4; fill-rule:evenodd;"/><path d="M1394.67,589.83l-109.78,3.93-42.19-9.29c-.77-.17-.7-1.32,.14-1.36l113.06-4.04,38.99,8.6c1.25,.28,1.11,2.12-.21,2.16Z" style="fill:#f6cd6c; fill-rule:evenodd;"/><path d="M1137.3,592.02l181.49,31.64,260.23-19.25-191.1-77.73-250.76,58.44c-3.76,.87-3.62,6.23,.14,6.89Z" style="fill:#b0c2e4; fill-rule:evenodd;"/><path d="M1143.21,587.36c55.21,9.64,112.43,20.43,166.45,28.33,5.71,.8,17.75,4,23.81,0,5.64-3.69,13.23-13.92,14.62-20.54,2.58-11.91,1.25-24.92-4.17-37.91-1.39-3.34-3.07-6.75-5.15-9.71-1.67-2.4-4.18-4.45-6.96-5.25-30.21-8.46-177.25-26.32-177.52-27.05,2.37,5.57,4.53,10.69,6.13,15.94,.21,.73,.42,1.5,.63,2.26,.91,3.41,1.6,7,1.95,10.79,.07,.73,.07,1.46,.14,2.23,.07,1.67,.07,3.41,0,5.19-.28,6.16-2.09,12.6-5.08,18.52-.28,.66-.7,1.29-1.04,1.92-1.6,2.82-3.41,5.53-5.57,7.97-.49,.63-1.11,1.22-1.67,1.81-2.02,2.05-4.18,3.9-6.54,5.5Z" style="fill:#fff; fill-rule:evenodd;"/><path d="M1341.27,584.22c.84-8.67-3.76-29.73-10.37-35.4,46.01-6.61,256.4-21.09,261.13-19.07,4.88,2.05,7.73,6.68,8.77,10.13,6.27,21.09-1.74,57.71-21.79,64.53l-260.23,19.25c14.97-10.76,20.68-21.06,22.49-39.44Z" style="fill:#c4d1eb; fill-rule:evenodd;"/><path d="M1547.48,549.31c-69.75,4.32-139.44,9.95-209.13,14.13-1.88-6.3-4.46-12.08-7.45-14.62,46.01-6.61,256.4-21.09,261.13-19.07,4.88,2.05,7.73,6.68,8.77,10.13,.56,2.02,1.04,4.18,1.39,6.47-18.24,.87-36.48,1.85-54.72,2.96Z" style="fill:#b0c2e4; fill-rule:evenodd;"/><path d="M1148.02,516.94l183.79,32.02,260.23-19.21-198.54-34.6-245.26,18.1c-2.16,.17-2.3,3.31-.21,3.69Z" style="fill:#c4d1eb; fill-rule:evenodd;"/><path d="M1349.63,508.45l108.18,18.83,43.09-3.45c.77-.07,.84-1.22,.07-1.36l-111.53-19.42-39.68,3.2c-1.32,.1-1.39,1.95-.14,2.19Z" style="fill:#b0c2e4; fill-rule:evenodd;"/><path d="M1390.42,221.94c-53.53-63.46-148.42-71.46-211.91-17.89-57.22,48.38-69.34,130.39-31.75,192.56l-.91,.73c-3.62,3.06-4.11,8.46-1.05,12.04l19.63,23.32c3.06,3.59,8.49,4.04,12.11,1.01l.84-.77c55,47.48,137.91,49.29,195.21,.94,63.42-53.6,71.43-148.46,17.82-211.95h0Zm-16.01,13.54c46.09,54.65,39.26,136.27-15.39,182.36-54.65,46.12-136.24,39.23-182.33-15.38-46.09-54.62-39.26-136.24,15.39-182.36,54.58-46.09,136.24-39.19,182.33,15.39Z" style="fill:#b0c2e4; fill-rule:evenodd;"/><polygon points="1144.81 409.38 1086.2 458.91 1105.83 482.2 1164.45 432.7 1144.81 409.38" style="fill:#c4d1eb; fill-rule:evenodd;"/><path d="M1105.83,482.2l-19.63-23.32c-3.06-3.58-8.49-4.04-12.04-1.01l-147.52,124.55c-3.58,3.03-4.04,8.46-1.01,12.04l19.67,23.29c3.03,3.62,8.42,4.04,12.04,1.01l147.52-124.51c3.62-3.06,4.04-8.46,.97-12.04Z" style="fill:#b0c2e4; fill-rule:evenodd;"/><path d="M921.38,794.92c-7.24-9.96-14.55-19.91-29.07-23.53-11.73-2.92-22.8,.28-31.33,7.87-24.12,21.37,2.71,36.13-22.21,73.79-7.73,11.76-14.9,22.63-17.44,35.92-4.63,23.95,5.05,43.16,38.64,54.51,82.29,27.71,87.23-79.78,82.36-97.88-3.65-13.51-16.32-44.21-20.95-50.68Z" style="fill:#20386f; fill-rule:evenodd;"/><path d="M919.71,1225.36s-1.67,14.41-1.67,16.92v2.44l1.18,2.44,.49,1.04-8.63,12.12s-34.67,.49-35.43,.49,4.63-8.35,4.63-8.35c0,0,11.45-8.63,13.5-14.69,2.09-6.06-1.7-18.73-1.7-18.73l27.64,6.33Z" style="fill:#f9af79; fill-rule:evenodd;"/><path d="M1086.82,1138.97s12.39,7.66,14.27,9.19l1.95,1.53,1.19,2.5,.49,.98,14.9,.83s21.93-26.87,22.41-27.5c.49-.63-6.26,.91-6.26,.91,0,0-13.92,1.88-19.91-.28-6.13-2.16-18.24-14.13-18.24-14.13l-10.79,25.97Z" style="fill:#f9af79; fill-rule:evenodd;"/><path d="M974.64,1003.56l133,113.27-20.47,29.03s-136.73-84.86-143.9-85.84c-7.14-.98-12.92,2.3-14.27,7.52-1.36,5.22-4.8,161.86-4.8,161.86h-35.54l-18.48-197.22,104.46-28.61Z" style="fill:#223f81; fill-rule:evenodd;"/><path d="M782.98,841.98c-9.85-6.47-32.96-31.33-40.79-39.68-.1-1.05-.84-6.82-7.14-14.06-4.46-5.15-7.83-16.92-10.76-13.58-2.92,3.27,4.35,12.67,1.04,12.74-3.34,0-19.77-18.45-22.42-15.45-2.65,3.06,14.06,19.49,11.07,19.49-2.92,.07-16.5-16.57-20.26-12.25-3.72,4.18,17.79,18.1,15.77,20.33-1.98,2.3-15.32-6.75-18.34-3.34-2.96,3.48,18.8,11.56,17.06,11.56-1.74,.07-14.31-.28-14.41,2.09-.1,2.79,31.85,7.1,35.75,11.84,8.35,13.23,23.22,37.45,38.25,48.17,18.41,13.02,60.95,40.66,60.95,40.66l21.13-27.29s-55.24-33.56-66.9-41.21Z" style="fill:#f9af79; fill-rule:evenodd;"/><path d="M977.98,812.04c7.83-8.77,23.67-38.71,28.99-48.94-.17-.97-.94-6.75,3.2-15.38,2.96-6.13,3.13-18.38,6.82-15.94,3.69,2.44-.84,13.37,2.37,12.6,3.2-.84,14.2-22.97,17.61-20.75,3.27,2.23-8.49,22.41-5.64,21.72,2.92-.76,11.63-20.33,16.36-17.26,4.66,3.2-12.46,22.14-9.95,23.88,2.58,1.67,13.09-10.51,16.92-8.01,3.76,2.51-15.18,16.01-13.44,15.59,1.67-.42,13.71-4.04,14.48-1.74,.77,2.58-28.96,15.11-31.46,20.67h0c-4.6,15.04-12.6,42.33-24.33,56.53-14.34,17.41-48.18,55.21-48.18,55.21l-27.53-20.82s44.52-46.92,53.78-57.36Z" style="fill:#f9af79; fill-rule:evenodd;"/><path d="M955.67,832.24l24.85,32.44-30.84,45.81s2.89,34.11,7.38,44.7c4.42,10.65,30.14,54.3,30.14,54.3,0,0-62.45,38.36-123.57,32.72,0,0-17.2-88.55-22.03-97.05-4.84-8.49-51.45-50.68-51.45-50.68l22.66-36.48,39.02,21.58s71.39-11.56,74.84-14.9c3.45-3.48,29-32.44,29-32.44Z" style="fill:#6d96ce; fill-rule:evenodd;"/><path d="M865.37,828.26c1.95,5.5,.56,10.93-3.13,12.32-3.72,1.25-8.28-2.09-10.23-7.52-1.95-5.43-.56-11,3.13-12.32,3.72-1.32,8.28,2.02,10.23,7.52Z" style="fill:#f9af79; fill-rule:evenodd;"/><path d="M930.4,814.83c.28,5.78-2.68,10.65-6.61,10.86-3.93,.14-7.31-4.39-7.59-10.17-.28-5.85,2.71-10.65,6.61-10.86,3.9-.21,7.31,4.39,7.59,10.17Z" style="fill:#f9af79; fill-rule:evenodd;"/><path d="M902.83,853.26c0,.35,3.1,13.85,4.8,20.95,.59,2.64-.73,5.36-3.2,6.47-6.65,3.06-19.67,7.24-28.68-.91-.84-.77-1.25-1.81-1.22-2.92l1.11-32.09,27.19,8.49Z" style="fill:#f9af79; fill-rule:evenodd;"/><path d="M904.5,860.78c-7,3.48-15.84,3.62-25.73-2.23-1.25-.69-2.44-1.46-3.51-2.3l.38-11.49,27.19,8.49c0,.14,.73,3.48,1.67,7.52Z" style="fill:#e78f51; fill-rule:evenodd;"/><path d="M883.51,779.05s-11.84,3.21-18.83,14.76c-6.96,11.56-10.79,44.9,14.1,59.52,24.89,14.55,43.02-8.01,42.57-29.45-.49-21.37-9.99-48.73-37.84-44.83Z" style="fill:#f9af79; fill-rule:evenodd;"/><path d="M926.01,1269.15c5.33-.62-3.83-19-6.79-22l-38.95,5.29s-18.76,8.7-23.22,13.16c-1.04,1.05-1.18,2.85,3.38,3.55,14.72,2.23,53.85,1.53,65.58,0Z" style="fill:#1d2b5b; fill-rule:evenodd;"/><path d="M1117.6,1171.48c-4.53,2.72-12.88-15.11-13.37-19.28l31.54-24.78s24.23-6.96,29.1-2.09c4.46,4.46-36.89,39.89-47.27,46.15Z" style="fill:#1d2b5b; fill-rule:evenodd;"/><path d="M685.69,800.97c-.8,1.6-1.18,3.41-1.29,5.15,.07,.28-.73,5.99,4.18,10.37-1.92-3.55-4-7.52-2.89-15.53Z" style="fill:#f48d80; fill-rule:evenodd;"/><path d="M581.44,760.39s15.49-5.64,25.51,10.02c10.02,15.73,4.6,14.2,9.47,22.14,4.87,7.8,7.24,30.07,8.91,42.19,17.2,123.01-188.28,132.97-108.05-23.81,7.55-14.76,13.89-23.53,20.64-39.27,6.79-15.73,35.4-15.03,43.51-11.28Z" style="fill:#20386f; fill-rule:evenodd;"/><path d="M650.36,799.93s-5.74-2.79-11-12.53c-3.41-6.2-13.4-14.2-9.22-15.45,4.14-1.39,10.55,9.19,11.77,6.19,1.18-2.99-10.76-25.83-6.96-27.08,3.76-1.11,13.65,21.09,14.72,18.38,1.08-2.71-10.09-22.14-4.77-23.74,5.32-1.67,11.1,23.88,13.99,22.97,2.85-.9-1.32-20.4,2.99-21.72,4.28-1.32,3.69,24.16,5.22,23.32,.84-.35,4.63-12.67,6.96-11.7,2.65,.97-4.49,26.32-1.29,31.89,3.17,5.57,28.44,74.84,19.81,83.54-9.43,9.47-69.44,31.05-82.01,27.29-12.57-3.69-19.77-16.08-16.71-23.74,2.99-7.59,62.34-24.71,63.28-27.22,.94-2.37-6.79-50.4-6.79-50.4Z" style="fill:#f9af79; fill-rule:evenodd;"/><path d="M655.2,778c1.78-.07,3.58,.34,5.29,.97,.28,.21,5.99,1.88,8.42,8.15-2.75-3.2-5.74-6.82-13.72-9.12Z" style="fill:#f48d80; fill-rule:evenodd;"/><path d="M701.5,1196.54s11.59,47.34,20.26,54.79c8.63,7.45,36.86,21.65,29.48,23.11-7.38,1.53-62.03,2.85-60.53-6.27,1.5-9.05,3.06-14.9,3.06-14.9l-14.45-33.84,22.17-22.9Z" style="fill:#f9af79; fill-rule:evenodd;"/><path d="M754.89,1276.39c-13.3,1.39-52.21,2.79-63.56,1.32,0,0-2.12-.42-.63-9.54,.35-2.23,.77-4.25,1.08-6.06,10.27,2.72,32.68-2.99,41.56-4.24,9.64,4.59,20.5,11.56,23.98,12.11,5.08,.83,5.08,5.71-2.44,6.4Z" style="fill:#1d2b5b; fill-rule:evenodd;"/><path d="M574.1,1236.22s-1.25,11.97-1.25,17.26,4.94,20.12,2.64,22.49c-2.26,2.23-67.35,1.95-67.35-.21s11.49-8.63,27.15-13.09c15.59-4.46,20.92-21.79,16.85-31.67l21.96,5.22Z" style="fill:#f9af79; fill-rule:evenodd;"/><path d="M507.09,1275.97c0-2.09,10.69-8.21,24.51-12.39,14.72,5.01,35.19,.84,42.85-.56,2.33,6.13,3.06,11.9,1.88,13.09-2.26,2.3-69.23,1.95-69.23-.14Z" style="fill:#1d2b5b; fill-rule:evenodd;"/><path d="M644.72,1036.07l11.66,10.37s13.16,35.57,13.92,37.94c1.04,3.27,43.58,140.42,43.58,140.42l-29.62,10.65s-29.41-57.3-34.29-77.14c-4.87-19.91-53.57-103.17-53.57-103.17l48.31-19.08Z" style="fill:#223f81; fill-rule:evenodd;"/><path d="M593.17,1057.24l-14.24,181.77h-32.86s-11.8-136.1-7.73-183.86l54.82,2.09Z" style="fill:#223f81; fill-rule:evenodd;"/><path d="M535.53,874.14s20.89-5.57,44.66-6.82c12.29-.7,28.79,1.95,28.79,1.95,0,0,15.04,33.7,19.53,61.26,4.42,27.64,28.79,116.12,28.79,116.12,0,0-49.5,38.15-121.76,12.95v-185.46Z" style="fill:#6d96ce; fill-rule:evenodd;"/><path d="M591.78,843.93s-.63,21.58,1.39,23.53c2.02,2.09,4.84,5.43,1.88,10.58-2.99,5.15-15.87,1.81-21.93-1.11-5.78-2.79-9.5-8.08-9.5-8.08l3.03-34.11,25.13,9.19Z" style="fill:#f9af79; fill-rule:evenodd;"/><path d="M583.21,852.84c-4.14-1.46-11.42-4.25-17.02-13.37l.45-4.74,25.13,9.19s-.14,5.29-.04,10.86c-3.55-.14-6.54-1.25-8.53-1.95Z" style="fill:#e78f51; fill-rule:evenodd;"/><path d="M562.19,810.37s-.63-12.67-8.39-10.23c-7.8,2.44-1.85,21.58,4.59,20.96,6.44-.63,3.79-10.72,3.79-10.72Z" style="fill:#f9af79; fill-rule:evenodd;"/><path d="M586.66,768.95s12.18-.28,18.41,9.26c6.23,9.4,12.98,36.48,2.71,55.14-10.3,18.73-23.43,14.06-28.86,12.25-5.4-1.95-16.12-6.13-21.48-23.6-5.43-17.47-1.53-56.74,29.2-53.05Z" style="fill:#f9af79; fill-rule:evenodd;"/><path d="M535.53,874.14s5.67,5.71,11.73,27.29c6.13,21.65,9.22,72.26,14.52,77.55,5.25,5.29,39.79,32.72,46.02,31.82,6.2-.91,20.15-17.2,24.47-17.2s3.79,3.9,1.64,6.13c-2.16,2.09-4.84,4.6-3.52,5.92l1.29,1.32s19.28-5.15,22.52-3.2c3.24,1.88-3.13,6.33-3.13,9.61s.8,3.2,.42,6.75c-.38,3.55-1.29,6.47-2.99,8.15-1.71,1.67-23.01,7.8-43.82,5.01-20.82-2.92-46.26-12.95-65.09-36.2-18.8-23.25-15.04-96.42-14.62-103.73,1.08-18.45,10.58-19.22,10.58-19.22Z" style="fill:#f9af79; fill-rule:evenodd;"/><path d="M480.53,739.36c.87,1.53,1.29,3.2,1.46,4.94-.07,.28,.91,5.78-3.66,10.23,1.67-3.48,3.59-7.38,2.19-15.18Z" style="fill:#f48d80; fill-rule:evenodd;"/><path d="M344.99,702.19c-2.99-2.09-5.99-4.32-8.74-6.82-3.13-2.86-7.27-6.27-10.09-7.59-6.02-2.72-16.92-4.94-24.71,.21-9.68,6.4-20.96-4.11-30.32,40.8-10.62,50.82,17.33,52.49,18.17,51.79,.87-.63,32.3-25.48,32.3-25.48,0,0,2.99,20.61,3.17,19.91,.17-.69,56.95-47.34,20.22-72.82Z" style="fill:#20386f; fill-rule:evenodd;"/><path d="M296.88,1180.18s-6.58,18.66-8.88,21.51c-2.3,2.85,9.47,22.42,17.86,20.96,4.77-.77,5.5-6.55,5.5-6.55l-3.45-5.71,10.65-23.11-21.68-7.1Z" style="fill:#f9af79; fill-rule:evenodd;"/><path d="M247.52,965.55c17.79,38.64,47.86,112.15,49.39,118.56,.63,8.35-5.6,91.75-8.49,104.36,7.97,5.99,18.97,11.62,28.47,10.86,1.85-.14,31.61-106.72,32.51-114.66,.97-8.98-7.66-52.91-25.83-104.7l-16.46-51.86c-21.48,13.23-41.18,25.69-59.59,37.45Z" style="fill:#20386f; fill-rule:evenodd;"/><path d="M288.49,1200.93s7.41,6.13,11.24,8.42c4.87,2.92,10.96,5.5,10.96,5.5,0,0,8.22,9.47,10.65,12.95,5.43,7.58,11.77,16.84,12.22,21.58,.14,1.6-2.02,5.43-5.19,4.59-12.25-2.92-49.39-23.81-54.82-30.35-6.16-7.52,14.93-22.69,14.93-22.69Z" style="fill:#1d2b5b; fill-rule:evenodd;"/><path d="M126.42,1059.46s-53.08,8.15-62.24,8.63c-9.09,.49-31.36,29.1-22.63,24.36,1.98-1.11,8.77-4.24,9.47-4.38,3.48-.62,65.27-3.41,65.27-3.41l10.13-25.2Z" style="fill:#f9af79; fill-rule:evenodd;"/><path d="M25.24,1111.12l25.03-22.77s1.98-10.23,13.89-20.33c0,0-2.61-7.03-8.74-12.74-1.08-.97-8.28-7.73-9.43-6.96-4.49,2.92-12.85,15.52-21.93,29.24,0,0-10.13,19.01-15.04,32.51-4.91,13.51,16.22,1.04,16.22,1.04Z" style="fill:#1d2b5b; fill-rule:evenodd;"/><path d="M240.07,1091.42c12.74-13.99,37.8-194.65,37.8-194.65,0,0-57.64,4.25-68.61,10.65,0,0-19.6,57.64-14.97,80.34,4.14,20.96,12.32,69.48,12.32,69.48l-125.48,2.16s-3.24,19.56-.98,26.52c.31,.84,144.11,22.91,159.91,5.5Z" style="fill:#223f81; fill-rule:evenodd;"/><path d="M206.62,1057.24s-19.7-4.8-21.16-5.57c-1.43-.7-104.32,7.73-104.32,7.73,0,0,54.06,16.15,56.28,15.39,2.19-.69,69.2-17.54,69.2-17.54Z" style="fill:#223f81; fill-rule:evenodd;"/><path d="M205.27,725.86c-6.61-9.4-18.66-40.24-22.73-50.82,.24-.91,1.64-6.4-1.39-15.28-2.19-6.27-1.04-18.21-4.91-16.22-3.83,2.02-.63,13.09-3.66,11.94-3.03-1.11-11.31-23.88-14.83-22.07-3.48,1.77,5.78,22.73,3.03,21.72-2.72-1.01-9.02-21.03-13.92-18.52-4.94,2.54,9.61,22.87,6.96,24.26-2.68,1.32-11.49-11.73-15.45-9.68-4,2.02,12.91,17.23,11.31,16.6-1.6-.56-12.91-5.39-13.85-3.2-1.08,2.37,26.39,17.82,28.23,23.53,2.82,15.04,7.55,42.46,17.33,57.57,12.04,18.52,40.76,58.96,40.76,58.96l29.07-17.19s-38.08-50.47-45.95-61.61Z" style="fill:#f9af79; fill-rule:evenodd;"/><path d="M393.27,769.02c10.2-5.15,35.44-26.73,43.96-33.97,.21-.97,1.53-6.54,8.49-12.88,4.87-4.52,9.47-15.53,11.91-12.04,2.5,3.62-5.57,11.84-2.37,12.25,3.2,.42,21.23-15.66,23.46-12.39,2.23,3.13-15.8,17.26-12.95,17.68,2.92,.42,17.96-14.34,21.06-9.75,3.17,4.6-19.28,15.59-17.58,18.1,1.7,2.37,15.66-4.94,18.17-1.25,2.61,3.62-19.49,9.12-17.82,9.33,1.71,.28,13.96,1.25,13.79,3.62-.24,2.64-31.68,3.34-36.03,7.52-9.57,11.97-26.7,33.9-42.5,42.61-19.32,10.58-63.63,32.72-63.63,32.72l-17.54-28.82s57.36-26.59,69.58-32.72Z" style="fill:#f9af79; fill-rule:evenodd;"/><path d="M365.7,779.33l10.86,38.43-44.52,30.49s-9.64,32.03-9.47,43.3c.21,11.28,.17,66.28,.17,66.28,0,0-69.16,2.92-122.63-24.23,0,0,22.52-83.4,21.2-92.8-1.32-9.54-28.44-64.6-28.44-64.6l33.69-25.06,27.67,33.76s69.03,15.31,73.45,13.37c4.35-1.81,38.01-18.94,38.01-18.94Z" style="fill:#6d96ce; fill-rule:evenodd;"/><path d="M285.05,743.12c-.17,5.71-3.41,10.16-7.27,10.03-3.79-.14-6.75-4.8-6.54-10.45,.14-5.71,3.45-10.16,7.24-10.02,3.83,.07,6.79,4.8,6.58,10.44Z" style="fill:#f9af79; fill-rule:evenodd;"/><path d="M349.03,754.4c-1.88,5.36-6.3,8.7-9.96,7.52-3.62-1.25-5.08-6.68-3.24-12.04,1.88-5.36,6.3-8.7,9.92-7.45s5.05,6.61,3.27,11.98Z" style="fill:#f9af79; fill-rule:evenodd;"/><path d="M310.04,779.33c-.07,.42-2.09,13.78-3.17,20.82-.42,2.58-2.61,4.59-5.22,4.73-7.14,.35-20.5-.49-25.76-11.21-.45-.91-.49-2.09-.07-3.06l12.6-28.75,21.62,17.47Z" style="fill:#f9af79; fill-rule:evenodd;"/><path d="M308.93,786.84c-7.69,.7-15.73-2.5-22.63-11.28-.84-1.11-1.64-2.3-2.37-3.48l4.49-10.23,21.62,17.47c0,.21-.49,3.41-1.11,7.52Z" style="fill:#e78f51; fill-rule:evenodd;"/><path d="M319.3,704.97s-11.94-1.39-22.42,6.55c-10.48,8-26,36.97-8.67,59.17,17.33,22.28,42.01,8.29,49.25-11.28,7.31-19.63,8.53-47.89-18.17-54.44Z" style="fill:#f9af79; fill-rule:evenodd;"/><path d="M282.44,734.63s7.07-1.53,13.23-8.63c6.06-7.24,29-14.69,44.49-2.58,15.45,12.18-1.77-21.23-17.51-23.18-1.43-.14-18.1-5.08-18.1-5.08,0,0-16.5,9.68-17.37,11-.87,1.32-8.88,16.08-8.88,16.08l4.14,12.39Z" style="fill:#20386f; fill-rule:evenodd;"/><path d="M1675.99,753.22c1.18,1.32,1.95,2.99,2.5,4.66,.07,.28,2.3,5.57-1.25,11,.91-3.9,1.88-8.22-1.25-15.67Z" style="fill:#f48d80; fill-rule:evenodd;"/><path d="M1766.35,827.22s-44.97,94.96-39.54,102.13c5.43,7.17,43.86-25.97,52.42-48.25,8.56-22.28-12.88-53.88-12.88-53.88Z" style="fill:#f9af79; fill-rule:evenodd;"/><path d="M1703.84,848.39s27.15,40.52,39.26,58.76c6.68,10.02-10.51,22.97-16.29,22.21-5.85-.84-27.85-64.61-27.85-64.61l4.88-16.36Z" style="fill:#f9af79; fill-rule:evenodd;"/><path d="M1726.88,1238.94s-5.64,6.68-14.69,6.54c-5.57,0-10.72,1.67-14.48,4.87-3.34,2.79-2.02,8.21,2.23,9.19l42.61,9.75c4.18,.97,8.21-1.81,8.7-5.99,.42-3.2,.91-6.68,1.32-9.33,1.18-6.4-3.97-12.95-3.97-12.95l-21.72-2.09Z" style="fill:#1d2b5b; fill-rule:evenodd;"/><path d="M1726.88,1238.94s-2.51,2.71,21.72,2.09c0,0,21.51-98.51,26.24-105.12,1.11-1.53,9.47-20.12,12.53-25.48,.21-.42,5.71,10.86,5.99,10.44,9.74-17.55,24.99-46.85,26.04-51.38,1.53-5.99-16.01-83.05-30.35-80.55-10.72,1.88-20.05,6.68-24.02,8.98-1.32,.84-2.16,1.32-2.16,1.32,0,0-.49,2.16-1.39,6.06-.91,3.34-2.09,8.21-3.48,13.78-.14,.77-.35,1.53-.56,2.23-7.93,32.44-22.14,90.08-24.23,99.97-3.06,13.78-6.34,117.65-6.34,117.65Z" style="fill:#f9af79; fill-rule:evenodd;"/><path d="M1765.17,982.33l-31.54,114.45s9.33,16.71,27.78,22.97c12.95,4.38,34.46,2.92,34.46,2.92l30.28-73.86-60.98-66.48Z" style="fill:#223f81; fill-rule:evenodd;"/><path d="M1755.15,1018.67l40.73,104.01c9.75-17.54,22.49-48.66,23.53-53.19,1.53-5.99-16.01-83.05-30.35-80.55-10.72,1.88-20.05,6.68-24.02,8.98-1.32,.84-3.48,.42-3.48,.42,0,0-1.25,1.25-2.16,5.01-.91,3.48-2.86,9.75-4.25,15.32Z" style="fill:#20386f; fill-rule:evenodd;"/><path d="M1791.42,824.09l36.76,18.73,7.31-25.48s-4.66-8.77-6.75-23.25c-.91-5.99-1.39-13.09-.83-20.88l-29.8,15.31s.7,2.79,1.11,6.82c.56,4.46,.77,10.3-.48,16.01-1.05,4.87-3.27,9.47-7.31,12.74Z" style="fill:#f9af79; fill-rule:evenodd;"/><path d="M1853.24,1006.83s14.62,92.1,13.09,239.48l-20.75,2.65s-16.57-57.02-27.01-113.75c-6.13-33.7-2.09-131.72-2.09-131.72l36.76,3.34Z" style="fill:#f9af79; fill-rule:evenodd;"/><path d="M1873.63,995.28c-.07,13.23,15.66,125.59,15.66,125.59,0,0-15.59,6.05-35.29,8.21-27.85,3.13-45.74-4.74-45.74-4.74l-35.09-132.06,100.46,2.99Z" style="fill:#223f81; fill-rule:evenodd;"/><path d="M1768.16,1005.86c40.8,11.14,92.87,4.87,105.68,3.06,1.95-.28,2.99-.42,2.99-.42,4.53-1.11,7.59-5.15,7.59-9.61,0-.55-.07-1.11-.14-1.81l-12.12-67.11,4.04-33.69,2.3-19.28,5.29-43.93c-17.47-8.84-33.35-13.64-47.97-15.73-5.57,5.71-16.57,14.2-28.82,12.53-9.33-1.25-11.42-5.99-11.28-11.28-19.35,3.2-29.38,8.63-29.38,8.63l-12.67,157.89c-.7,9.47,5.29,18.24,14.48,20.75Z" style="fill:#fff; fill-rule:evenodd;"/><path d="M1835.83,817.33l5.57,11,5.29,10.65,25.97,56.32c4.11-5.29,34.32-16.01,34.32-16.01,0,0-13.72-34.53-23.18-46.23-2.72-3.34-7.87-5.99-13.71-8.21-4.87-1.81-10.3-3.2-15.39-4.32-10.09-2.23-18.87-3.2-18.87-3.2Z" style="fill:#fff; fill-rule:evenodd;"/><path d="M1847.46,912.15c-1.32-.14-7.03-2.99-7.03-2.99,0,0-5.43-19.56-23.74-22.77,0,0-8.7,0-6.89,5.99,1.74,5.85,1.95,3.34,4.32,11.7,2.23,8.49,8.35,14.83,14.76,15.18l6.61,1.81s15.39-8.7,11.97-8.91Z" style="fill:#f9af79; fill-rule:evenodd;"/><path d="M1840.43,909.16s34.95,3.13,40.1,5.43c0,0-2.85-7.66-7.87-19.28,4.52-4.46,19.49-11.14,29.45-14.2,7.52,19.35,10.44,38.43,6.26,56.88-.56,1.88-2.23,3.27-4.18,3.41-11.21,.56-48.32,.28-75.33-22.28l11.56-9.96Z" style="fill:#f9af79; fill-rule:evenodd;"/><path d="M1798.73,811.35c17.05-.42,30-17.27,30-17.27l-29.52,1.25c.56,4.46,.77,10.3-.48,16.01Z" style="fill:#e78f51; fill-rule:evenodd;"/><path d="M1791.49,803.55s44.76,5.5,45.74-26.04c.91-31.47-17.75-51.86-30.21-51.66-24.78,.42-28.89,10.51-31.75,20.96-2.85,10.44-4.32,54.58,16.22,56.74Z" style="fill:#f9af79; fill-rule:evenodd;"/><path d="M1845.44,1248.68s-3.76,7.52-12.25,9.33c-5.36,1.19-9.88,3.97-12.74,7.87-2.44,3.27-.07,7.87,3.97,7.87h43.02c3.62,0,6.54-3.06,6.2-6.75-.35-3.13-.7-6.89-.83-9.75-.35-6.2-6.55-11.21-6.55-11.21l-20.81,2.64Z" style="fill:#1d2b5b; fill-rule:evenodd;"/><path d="M1828.94,795.55s29.45-21.65,29.45-47.27c0-32.02-19.7-40.65-47.06-42.19-27.43-1.53-46.92,21.58-39.61,33.56,7.31,12.04,16.36,9.19,33.7,7.24,17.33-1.95,16.57,13.99,23.95,13.23,7.38-.83,9.54-3.34,10.09,1.74,.56,5.08-7.66,6.68-6.27,11.62,2.64,9.33-4.25,22.07-4.25,22.07Z" style="fill:#20386f; fill-rule:evenodd;"/><path d="M1829.15,762.41s5.99-7.87,10.02-5.78c4.11,1.95,.14,13.64-2.92,15.31-3.06,1.53-6.41,2.72-7.1,1.95-.69-.69,0-11.48,0-11.48Z" style="fill:#f9af79; fill-rule:evenodd;"/><path d="M1766.35,827.22s-14.76,13.02-24.57,44.69c0,0-3.13,30.98,24.57,33.9,27.57,2.99,0-78.6,0-78.6Z" style="fill:#fff; fill-rule:evenodd;"/><path d="M1840.43,909.16s-1.11-5.78-2.99-11.35c-1.88-5.64-2.99-11.14-4.25-8.56-1.39,2.58-1.88,9.61-1.88,9.61l9.12,10.3Z" style="fill:#f9af79; fill-rule:evenodd;"/><path d="M1703.84,848.39s-5.57-22-19.22-21.16c-13.78,.97-11.42,14.34-4.87,21.16,6.47,6.82,19.21,16.36,19.21,16.36l4.88-16.36Z" style="fill:#f9af79; fill-rule:evenodd;"/><path d="M1879.9,899.62c.62,3.13,1.88,6.47,3.34,8.21,2.02,2.37,5.08,6.96,7.1,9.96,1.25,1.88,2.02,3.27,2.02,3.27l10.03-4.87s.21-16.92-6.41-20.54c-.21-.07-.35-.21-.55-.21-2.79-1.53-5.43-2.5-7.8-3.27-3.06-.77-5.57-.91-6.96-.07-1.25,.7-1.46,4.04-.77,7.52Z" style="fill:#f9af79; fill-rule:evenodd;"/><polygon points="1129.85 0 1281.4 62.1 1239.77 115.25 1129.85 0" style="fill:#c4d1eb; fill-rule:evenodd;"/><polygon points="1302.71 37.07 1134.51 .35 1343.92 15.63 1302.71 37.07" style="fill:#c4d1eb; fill-rule:evenodd;"/><polygon points="1302.71 37.07 1298.81 106.86 1281.4 62.1 1129.85 0 1134.51 .35 1302.71 37.07" style="fill:#9db2d9; fill-rule:evenodd;"/><polygon points="1298.81 106.86 1262.96 85.66 1281.4 62.1 1298.81 106.86" style="fill:#859ac6; fill-rule:evenodd;"/><path d="M1337.79,101.67c-4.94-.63-3.83-7.8,.7-7.24l7.31,.8c4.8,.59,3.83,7.8-.77,7.24l-7.24-.8h0Zm248.46,288.94c3.27,0,4.8,3.93,2.58,6.13-.49,.63-1.53,1.11-2.58,1.11l-4.66-.03c-4.73,0-4.87-7.24,0-7.24l4.66,.03h0Zm-26.24-.7c4.32,0,4.87,7.28-.42,7.28l-7.31-.45c-5.22-.66-3.83-7.8,.49-7.24l7.24,.42h0Zm-28.61-2.68c4.52,.52,3.9,7.8-1.05,7.17l1.05-7.17h0Zm-27.78-6.13c4.32,1.6,2.64,8.11-2.23,6.89-2.37-.77-4.73-1.6-7.1-2.51-4.46-1.91-1.81-8.46,2.71-6.75,2.16,.87,4.39,1.64,6.62,2.37h0Zm-24.65-12.43c3.76,3.17-.97,8.63-4.59,5.64-2.02-1.67-3.9-3.41-5.71-5.39-3.2-3.86,2.58-8.28,5.43-4.8,1.53,1.67,3.2,3.13,4.87,4.56h0Zm-13.64-22.03c.69,5.15-6.54,5.57-7.1,1.22-.49-2.58-.77-5.08-.83-7.73,0-5.01,7.24-4.77,7.24-.17,.07,2.26,.35,4.46,.7,6.68h0Zm1.95-27.18c-1.04,4.42-8.21,2.92-6.96-1.91,.62-2.4,1.39-4.84,2.16-7.17,1.81-4.77,8.42-1.88,6.89,2.33-.77,2.23-1.39,4.49-2.09,6.75h0Zm10.1-26.63c-1.81,4.21-8.56,1.6-6.62-3.03,.97-2.23,2.09-4.46,3.13-6.65,2.72-4.66,8.63-.49,6.54,3.2-1.05,2.16-2.09,4.32-3.06,6.47h0Zm12.95-25.76c-2.5,4.39-8.7,.49-6.4-3.41l3.41-6.44c2.51-4.42,8.63-.52,6.41,3.41-1.19,2.09-2.3,4.28-3.41,6.44h0Zm13.57-25.86c-2.64,4.63-8.63,.49-6.54-3.24l3.2-6.47c2.51-4.32,8.36-1.15,6.55,3.17l-3.2,6.54h0Zm11.77-27.12c-1.6,4.35-8.15,2.61-6.89-2.26,.69-2.23,1.39-4.46,1.95-6.72,1.19-4.63,8.22-2.89,7.1,1.78-.7,2.44-1.39,4.8-2.16,7.2h0Zm3.69-30.18c.56,4.77-6.68,5.64-7.24,.91-.28-2.26-.7-4.53-1.25-6.68-1.18-4.7,5.85-6.4,7.03-1.81,.62,2.5,1.11,5.01,1.46,7.59h0Zm-11.21-28.47c2.86,3.97-3.13,8.11-5.91,4.32-1.33-1.91-2.79-3.69-4.32-5.39-3.2-3.97,2.58-8.25,5.43-4.87,1.67,1.85,3.34,3.93,4.8,5.95h0Zm-21.93-20.71c3.76,2.68,.28,8.53-4.04,6.02-2.02-1.32-4.04-2.54-5.99-3.76-4.04-2.3-.56-8.7,3.69-6.27,2.16,1.29,4.25,2.61,6.33,4h0Zm-26.31-13.92c4.46,1.88,1.53,8.53-2.79,6.68-2.23-.94-4.45-1.81-6.68-2.64-4.45-1.67-1.95-8.49,2.65-6.79,2.3,.87,4.6,1.78,6.82,2.75h0Zm-27.85-9.71c4.38,1.11,2.92,8.21-1.95,7l-6.96-1.91c-4.53-1.15-2.92-8.25,1.81-7.03l7.1,1.95h0Zm-28.48-6.96c5.01,1.25,2.78,8.18-1.46,7.1l-7.1-1.39c-4.6-1.15-3.55-7.76,1.39-7.14l7.17,1.43h0Zm-28.82-5.12c4.52,.56,3.83,7.83-1.11,7.2l-7.17-1.08c-4.59-.56-3.9-7.8,1.05-7.17l7.24,1.05Z" style="fill:#859ac6; fill-rule:evenodd;"/></svg>