<?xml version="1.0" encoding="UTF-8"?><svg id="a" xmlns="http://www.w3.org/2000/svg" viewBox="0 0 2346.48 1550.49"><path d="M1105.07,0c275.94,0,392.2,197.44,591.41,350.92,263.67,203.14,527.31,70.9,569.52,757.24,37.58,610.88-431.27,66.14-1092.33,284.96C512.62,1611.93-160.66,1700.05,39.12,992.07,238.9,284.08,463.91,0,1105.07,0Z" style="fill:#e0e8f5; fill-rule:evenodd;"/><path d="M647.74,552.85c-104.38,64.73-201.92,223.86-79.96,332.28,33.66,29.9,56.47,44.84,122.93,54.58,255.08,37.37,559.31-134.44,1117.58-449.75l-39.47-77.49,273.65,12.25-127.38,262.55-42.48-83.09c-583.91,329.77-902.1,509.46-1200.93,465.68-93.17-13.64-139.17-40.12-191.34-86.46-212.41-188.71-63.87-436.19,127.45-554.82l39.96,124.28Z" style="fill:#a1775a; fill-rule:evenodd;"/><path d="M1163.38,207.3h-431.38c3.1-13.11,14.87-22.86,28.92-22.86,.68,0,1.35,.02,2.02,.08,6.81-16.68,23.2-28.43,42.33-28.43,8.37,0,16.21,2.26,22.96,6.18,8.22-27.12,33.41-46.87,63.22-46.87,6.06,0,11.95,.82,17.53,2.36,14.42-31.86,46.5-54.02,83.75-54.02,44.18,0,81.08,31.18,89.9,72.74,.75-.03,1.49-.05,2.23-.05,28.3,0,51.66,21.16,55.11,48.52,11.54,2.16,20.75,10.99,23.42,22.35Z" style="fill:#fff; fill-rule:evenodd;"/><path d="M1505.25,499.8h-235.99c1.69-7.17,8.13-12.51,15.82-12.51,.37,0,.74,.02,1.1,.04,3.73-9.12,12.7-15.56,23.16-15.56,4.58,0,8.86,1.24,12.55,3.38,4.5-14.84,18.28-25.64,34.59-25.64,3.33,0,6.54,.45,9.59,1.3,7.89-17.43,25.43-29.56,45.81-29.56,24.17,0,44.35,17.06,49.18,39.8,.4-.01,.81-.03,1.22-.03,15.48,0,28.26,11.58,30.14,26.54,6.32,1.19,11.35,6.02,12.82,12.23Z" style="fill:#fff; fill-rule:evenodd;"/><path d="M587.82,1247.13h-235.99c1.69-7.18,8.13-12.51,15.82-12.51,.37,0,.74,.02,1.11,.04,3.73-9.12,12.69-15.56,23.15-15.56,4.58,0,8.87,1.24,12.56,3.39,4.49-14.83,18.27-25.64,34.59-25.64,3.32,0,6.53,.45,9.58,1.28,7.9-17.42,25.44-29.54,45.81-29.54,24.17,0,44.36,17.05,49.18,39.8,.41-.02,.81-.04,1.22-.04,15.48,0,28.26,11.58,30.15,26.55,6.31,1.18,11.35,6.01,12.81,12.22Z" style="fill:#fff; fill-rule:evenodd;"/><path d="M1942.29,1000.69h-325.06c2.33-9.88,11.2-17.22,21.79-17.22,.51,0,1.03,.02,1.52,.06,5.13-12.57,17.48-21.43,31.9-21.43,6.31,0,12.21,1.7,17.29,4.65,6.21-20.43,25.18-35.31,47.65-35.31,4.56,0,9,.61,13.2,1.77,10.87-24.01,35.04-40.71,63.11-40.71,33.29,0,61.09,23.5,67.73,54.82,.57-.02,1.12-.04,1.69-.04,21.33,0,38.93,15.96,41.52,36.57,8.7,1.63,15.64,8.29,17.65,16.84Z" style="fill:#fff; fill-rule:evenodd;"/><ellipse cx="232.65" cy="1489.43" rx="215.31" ry="24.54" style="fill:#c4d1eb;"/><path d="M1265.28,1450.32c118.91,0,215.3,10.99,215.3,24.55s-96.39,24.53-215.3,24.53-215.31-10.98-215.31-24.53,96.4-24.55,215.31-24.55Z" style="fill:#c4d1eb; fill-rule:evenodd;"/><path d="M2131.17,1379.52c118.91,0,215.31,11,215.31,24.55s-96.4,24.53-215.31,24.53-215.31-10.98-215.31-24.53,96.4-24.55,215.31-24.55Z" style="fill:#c4d1eb; fill-rule:evenodd;"/><path d="M1980.09,631.99s-9-23.31-11.54-26.55c-2.52-3.25-15.52-11.79-16.59-11.29-1.07,.49-1.47,1.57-.23,3.73,1.25,2.14,6.69,8.32,5.57,8.44-1.11,.13-18.08-16.77-22.14-14.35-4.07,2.43-4.15,18.03,1.44,27.37,5.6,9.35,28.04,20.01,29.2,21.44,9.82,12.14,14.3-8.79,14.3-8.79Z" style="fill:#f9af79; fill-rule:evenodd;"/><path d="M1970.12,628.33c7.65-5.19,9.18-4.98,9.18-4.98,0,0,63.13,62.78,69.32,68.4,6.18,5.63,111.99,58.28,111.99,58.28l2.07,85.96s-130.58-94.64-145.95-109.21c-25.42-24.07-55.13-88.61-55.13-88.61,0,0,2.51-5.75,8.52-9.84Z" style="fill:#466fb5; fill-rule:evenodd;"/><path d="M2291.72,1311.99s18.05,19.49,22.55,21.89c4.5,2.42-2.01,30.7-14.25,32.58-6.9,1.09-10.73-5.54-10.73-5.54l1.98-8.2-25.79-23.11,26.25-17.62Z" style="fill:#f9af79; fill-rule:evenodd;"/><path d="M2033.2,1322.31s-2.26,26.01-.94,30.83c1.27,4.87-24.48,18.97-34.29,11.34-5.51-4.32-3.17-11.5-3.17-11.5l7.46-3.96-.33-34.04,31.26,7.33Z" style="fill:#f9af79; fill-rule:evenodd;"/><path d="M2032.11,1351.91s-12.83,1.82-18.88,1.69c-7.84-.14-16.9-1.48-16.9-1.48,0,0-15.73,4.97-20.73,7.15-11.1,4.85-23.48,10.18-26.74,15.4-1.03,1.66,1.5,6.46,5.39,8.33,16.37,7.64,73.34,9.18,83.79,5.53,12.04-4.22-5.93-36.62-5.93-36.62Z" style="fill:#0e2952; fill-rule:evenodd;"/><path d="M2154.61,1021.31c4.07-2,7.84-3.76,11.44-5.42,12.77,14.62,27.25,31.06,42.1,48.03l-32.34,67.7c3.65-4.06-101.91,60.09-101.91,60.09,0,0-23.98,85.71-32.99,140.14-18.44,2.19-22.23,1.58-42.15-2.75-4.4-64.1,5.54-163.28,13.31-175.64,4.48-7.12,94.06-108.39,142.55-132.15Z" style="fill:#20386f; fill-rule:evenodd;"/><path d="M2261.59,1057.15c-3.68,55.45-24.34,134.42-23.54,142.17,3.17,10.25,56.9,105.13,66.99,118.94-8,10.5-19.8,20.39-33.13,23.52-2.63,.61-93.41-112.59-98.46-121.65-5.7-10.31-15.19-66.4-15.36-135.88l-2.63-68.82c22.42-22.02,58.93-36.67,71.47-34.27,21.72,4.17,35.59,61.94,34.66,75.99Z" style="fill:#1d417f; fill-rule:evenodd;"/><path d="M2313.25,1333.16s-7.17,10.49-11.28,14.77c-5.31,5.62-12.34,11.23-12.34,11.23,0,0-6.7,14.83-8.39,19.95-3.74,11.34-7.95,25.03-6.21,30.94,.57,1.93,5.37,5.55,9.33,3.33,15.28-8.69,56.12-49.34,60.31-59.41,4.82-11.64-31.43-20.82-31.43-20.82Z" style="fill:#0e2952; fill-rule:evenodd;"/><path d="M1943.13,667.64s-5.3-25.98-7.37-29.81c-2.08-3.84-14.16-15.07-15.37-14.75-1.2,.33-1.82,1.4-.89,3.87,.93,2.46,5.51,9.89,4.33,9.82-1.18-.07-15.95-20.74-20.63-18.92-4.68,1.83-7.52,18.11-3.33,28.88,4.2,10.77,25.79,25.88,26.75,27.58,8.12,14.43,16.51-6.68,16.51-6.68Z" style="fill:#f9af79; fill-rule:evenodd;"/><path d="M2189.61,738.57s-24.24,28.76-55.11,16.73c0,0-6.64-16.06-6.73-27.91-.02-1.45-.04-2.87-.06-4.22-.16-13.33-.61-20.81-.61-20.81,0,0,0,0,.03,0,1.41-.58,47.19-19.38,47.16-17.82-.78,36.07,15.33,54.03,15.33,54.03Z" style="fill:#f9af79; fill-rule:evenodd;"/><path d="M2169.68,693.14c-4.41,8.19-19.57,24.19-41.98,30.04-.16-13.33-.61-20.81-.61-20.81,0,0,0,0,.03,0,1.27-.34,43.88-11.63,42.56-9.22Z" style="fill:#ed7d57; fill-rule:evenodd;"/><path d="M2117.51,700.98s51.5,12.12,58.54-20.08c7.04-32.18,18.44-52.29-14.15-61.38-32.58-9.09-41.68,1.79-46.64,11.96-4.97,10.17-10.96,65.53,2.25,69.5Z" style="fill:#f9af79; fill-rule:evenodd;"/><path d="M2174.28,689.68c.71,.45,11.79,3.85,32.77-37.95,3.29-6.56,5.54-20.76-2.15-33.3-21.32-34.83-59-11.6-98.04-34.74-14.06,53.7,28.39,49.06,36.53,51.63,8.14,2.56,11.02,15.39,11.62,19.51,.62,4.11,1.55,7.52,11.79,3.85,10.24-3.67,4.63,14.5,3,17.98,0,0-1.4,9.27,4.47,13.02Z" style="fill:#20386f; fill-rule:evenodd;"/><path d="M2089.74,857.42c.3,17.05,1.3,36.22,2.64,55.69,.08,1.16,.16,2.32,.24,3.47,.86,12.07,1.78,24.15,2.84,35.95,.43,4.72,.88,9.4,1.36,13.98l.07,.62c.04,1.73,.25,3.58,.44,5.28,4.35,44.16,8.9,79.06,9.74,79.59,1.02,.68,2.15,1.01,3.4,.87,11.58-1.45,46.13,1.17,74.42-4.98,23.87-5.04,44.43-14.58,66.21-27.45,2.89-1.7,9.48-6.25,8.94-9.62-.53-3.73-1.5-9.09-2.74-15.85-4.29-23.49-11.7-63.9-14.23-111.19-.49-8.81-1.2-17.51-2.13-26.07-2.43-22.28-6.32-43.44-11.54-62.24-9.7-34.92-23.95-61.67-41.84-72.12-2.34-1.31-14.91,6.69-26.45,14.09-10.66,6.84-21.9,8.73-32.82,7.78l-9.61,10.63c-11.63,13.52-24.02,31.53-27.4,57.13-.25,1.89-.47,3.9-.65,6.04-.94,10.43-1.17,23.62-.9,38.41Z" style="fill:#6d96ce; fill-rule:evenodd;"/><path d="M2089.74,857.42c.3,17.05,1.3,36.22,2.64,55.69,.08,1.16,.16,2.32,.24,3.47,66.15-41.4,76.35-117.18,76.35-117.18-32.55,1.43-58.4,8.91-78.33,19.61-.94,10.43-1.17,23.62-.9,38.41Z" style="fill:#466fb5; fill-rule:evenodd;"/><path d="M1930.51,663.99c7.34-6.54,11.74-3.52,11.74-3.52,0,0,75.33,67.82,82.63,72.89,7.29,5.08,111.32,16.26,111.32,16.26,0,0,41.79,2.8,50.24,25.04,7.34,19.32-.12,34.87-10.14,45.94-11.93,13.2-30.81,17.6-47.44,11.29-37.34-14.14-111.59-42.86-125.12-52.68-30.14-21.84-81.26-103.64-81.26-103.64,0,0,2.25-6.44,8.01-11.58Z" style="fill:#6d96ce; fill-rule:evenodd;"/><path d="M2140.26,660.05c2.27,.28,5.1-8.5-.44-9.18-2.96-.36-3.3,8.7,.44,9.18Z" style="fill:#20386f; fill-rule:evenodd;"/><path d="M2115.51,658.08c-2.27-.28-3.03-9.47,2.5-8.79,2.96,.35,1.25,9.27-2.5,8.79Z" style="fill:#20386f; fill-rule:evenodd;"/><path d="M2138.83,642.68c-3.69-.32-3.93,2.74-1.36,3.88,.75,.35,15.32,5.1,14.76,4.11-1.04-2.06-6.42-7.38-13.41-7.98Z" style="fill:#20386f; fill-rule:evenodd;"/><path d="M2122.46,640.85c3.68,.42,3.37,3.46,.62,4.07-1.3,.29-16.14,2.1-15.1,.93,1.72-1.9,7.76-5.76,14.49-5Z" style="fill:#20386f; fill-rule:evenodd;"/><path d="M2113.98,669.98c5.75,6.33,6.92,2.6,4.72,1.77-7.32-2.79,1.27-2.67,7.25-14.66,.61-1.27-.8-1.94-1.45-.97-.45,.67-1.77,3.31-2.31,4-6.49,8.5-10.04,7.83-8.2,9.87Z" style="fill:#ed7d57; fill-rule:evenodd;"/><path d="M2116.13,678.82c10.71,20.53,22.27,2.11,19.09,1.57-16.2-2.75-20.4-4.07-19.09-1.57Z" style="fill:#fff; fill-rule:evenodd;"/><path d="M199.32,987.78c5.31,4.66,11.14,6.56,17.93,5.14-6.37,4.83-15.21,1.12-17.93-5.14Z" style="fill:#f48661; fill-rule:evenodd;"/><path d="M223.3,1449.32c-1.02-7.19,1.24-19.55,6.86-38.9-11.14,.03-20.52-4.91-31.91-4.73-3.11,18.2-7.94,48.07-7.94,48.07l-.51,23.62,79.34,.59s-.67,.35-24.07-14.42c-1.73-1.11-20.82-7.27-21.78-14.22Z" style="fill:#f9af79; fill-rule:evenodd;"/><path d="M189.44,1483.43h81.87c3.03-.27,3.78-2.75,2.72-4.26-2.17-3.15-18.14-10.66-28.88-15.66-18.83,1.98-51.94-5.77-54.91-10.12-5.15,14.43-2.49,29.67-.8,30.04Z" style="fill:#0e2952; fill-rule:evenodd;"/><path d="M124.48,1449.32c-1.02-7.19-2.72-16.2-.21-40.16-11.16,.02-21.77-2.08-33.15-1.91,0,18.72,.38,46.5,.38,46.5l-.5,23.62,79.32,.59s-.67,.35-24.04-14.42c-1.75-1.11-20.84-7.27-21.81-14.22Z" style="fill:#f9af79; fill-rule:evenodd;"/><path d="M90.62,1483.43h81.89c3.03-.27,3.76-2.75,2.7-4.26-2.15-3.15-18.14-10.66-28.87-15.66-18.83,1.98-51.92-5.77-54.89-10.12-5.17,14.43-2.52,29.67-.82,30.04Z" style="fill:#0e2952; fill-rule:evenodd;"/><path d="M182.12,764.29l29.85-31.46s31.92,17.56,69.16,34.34c10.24-17.81,26.94-76.43,27.84-79.21,.9-2.82-19.55-38-14.99-38.89,4.58-.88,10.53,18.79,15.38,16.8,4.83-2,17.28-47.65,20.19-45.15,5.45,4.66-6.56,28.4-3.68,30.12,2.87,1.73,10.16-26.3,15.7-25.12,5.56,1.19-9.35,25.52-7.72,27.86,1.65,2.34,17.24-20.48,20.46-15.18,1.75,2.85-14.38,19.86-11.06,21.77,3.31,1.9,17.85-8.82,19.57-5.34,1.75,3.47-13.55,7.09-17.81,15.88-4.23,8.76-11.95,12.19-14.53,28.79-2.55,16.59-9.57,105.32-27.64,112.46-15.81,6.22-120.7-47.66-120.7-47.66Z" style="fill:#f9af79; fill-rule:evenodd;"/><path d="M201.4,934.1l-24.19,13.5-49.18,75.2,87.95,207.04s-9.91,31.14-13.13,46.69c-3.37,16.28-11.66,155.96-11.66,155.96l37.53,.64s35.65-148.72,41.69-196.97c7.32-58.61-37.32-198.2-37.32-198.2-8.32-28.47-26.25-87.07-26.25-87.07,0,0-4.39-14.29-5.43-16.78Z" style="fill:#20386f; fill-rule:evenodd;"/><path d="M117.18,905.85s2.51,17.69-7.5,37.87c-6.09,12.3-16.64,21.97-24.19,37-14.29,28.54-22.03,69.03-16.68,95.08,0,0,29.53,112.74,28.36,153.94-.42,15.21-5.64,42.59-8.97,61.08-2.95,16.36-3.95,139.78-3.95,139.78l41.91-1.27,32.07-199.08,13.58-176.96,29.6-119.2-84.22-28.25Z" style="fill:#223f81; fill-rule:evenodd;"/><path d="M205.91,646.04c-3.7-17.48-7.52-35.05-24.91-47.65-14.08-10.2-29.18-13.12-45.21-7.31-45.43,16.47-21,52.53-77.38,90.93-17.5,11.94-24.15,16.1-36.72,32.02-17.6,22.26-27.2,52.13-18.36,76.74,18.29,50.84,74.95,65.55,104.59,54.76,55.18-20.05,101.15-90.04,104.21-109.14,3.26-20.43-3.83-79.07-6.23-90.35Z" style="fill:#20386f; fill-rule:evenodd;"/><path d="M214.73,784.08c13.35,6.18,37.54,15.44,37.54,15.44l13.74-43.51c-77.77-44.25-71.65-37.09-130.01-36.24-46.63,.67-66.19-8.24-106.34,100.17,0,0,30.57,13.73,41.52,18.14,4.72-13.4,13.21-40.13,18.18-24.89,7.5,23.01,12.98,46.25,16.67,70.18,2.34,14.17,7.41,32.33,4.75,46.77,0,0,31.75,6.54,56.01,7.61h.21c11.72-.31,23.71-1.35,34.41-3.65,0,0,4.77-100.54,7.29-104.75,2.82-4.64,14.7-19.65,4.6-42.11-1.81-3.97-1.33-4.42,1.43-3.16Z" style="fill:#6d96ce; fill-rule:evenodd;"/><path d="M156.35,958.62c.56,.07,3.03-.25,5.06-.21,2.8,.06,5.26,.48,5.26,.48,0,0,1.09-.96,3.2-1.93,.88-.39,2.3-.55,3.28-1.01,1-.46,1.86-1.33,2.8-1.74,2.47-1.09,4.75-1.34,5.5-.04,.63,1.09-13.15,9.5-13.15,9.5-12.77,.07-26.11,6.6-55.7-12.69-16.87-7.38-98.88-47.9-100.53-56.72-.95-4.97,11.66-43.32,21.93-72.42,7.92,3.55,24.79,11.05,34.22,15-8.67,18.35-18.87,42.67-17.79,45.63,.27,.78,1.3,2.18,56.74,38.48,1.4,.89,2.83,1.84,4.27,2.8,3.91,2.55,8.09,5.27,12.53,8.15l15.8-1.65s25.04,1.72,25.81,4.57c.32,1.32-1.77,1.96-4.31,2.35h-.08c-.37,.04-.75,.09-1.14,.12h-.03c-2.77,.33-5.66,.39-6.37,.64-.79,.26-2.4,.89-3.78,1.84,15.62,6.38,14.42,4.1,19.59,3.78,1.31-.11,2.68,.29,3.92,.2,2.09-.2,3.78-1.44,5.38-1.54,2.38-.13,4.32,.97,4.73,1.42,.56,.55-.48,1.36-2.47,2.26-12.06,5.23-22.05,3.22-25.25,4-2.14,.52,1.78,1.33,7.92,.67,1.51-.15,3.53,.41,5.54-.07,1.36-.3,2.59-1.17,3.9-1.5,1.23-.3,2.47-.29,3.52-.47,1.34-.26,3.22-1.29,4.29-1.4,4-.46,5.94,.25,6.41,.61,.92,.83-17.26,7.81-17.26,7.81,0,0-12.54,1.8-15.34,1.8,0,0-1.68,.77,1.6,1.27Z" style="fill:#f9af79; fill-rule:evenodd;"/><path d="M141.74,676.86s-3.57,28.72-5.66,38.67c-2.19,10.43-5.48,43.3,16.14,48.62,21.63,5.34,14.93-35.74,15.3-46.34,.34-10.62,6.48-47.59,6.48-47.59l-32.27,6.64Z" style="fill:#f9af79; fill-rule:evenodd;"/><path d="M140.57,686.03c.21,.13,.42,.27,.65,.4,11.95,6.85,22.36,5.77,30.15,.44,1.4-9.19,2.63-16.64,2.63-16.64l-32.27,6.64s-.48,3.83-1.17,9.16Z" style="fill:#f27458; fill-rule:evenodd;"/><path d="M148.23,602.08s-12.67,3.57-19.98,16.16c-7.3,12.58-10.94,48.72,15.96,64.15,26.9,15.41,46-9.29,45.17-32.4-.8-23.12-7.25-53.71-41.15-47.91Z" style="fill:#f9af79; fill-rule:evenodd;"/><path d="M195.34,640.06c.29,6-2.28,11.03-5.75,11.2-3.47,.17-6.54-4.54-6.83-10.56-.31-6.01,2.26-11.03,5.73-11.2,3.49-.17,6.54,4.56,6.85,10.56Z" style="fill:#f9af79; fill-rule:evenodd;"/><path d="M152.05,601.14s-14.51,37.82-28.7,41.84c-14.19,4.02-13.06,22.63-13.06,22.63,0,0-1.82-42.99,11.16-53.53,12.96-10.52,30.6-10.93,30.6-10.93Z" style="fill:#20386f; fill-rule:evenodd;"/><path d="M129.44,650.38c2.19,5.91,.75,11.91-3.22,13.4-3.95,1.48-8.94-2.09-11.12-8.01-2.21-5.91-.77-11.91,3.2-13.4,3.95-1.48,8.93,2.09,11.14,8.01Z" style="fill:#f9af79; fill-rule:evenodd;"/><path d="M145.27,619.18c-8.53-1.2-22.24,8.93-17.49,9.51,1.55,.19,5.63-2.73,7.25-3.31,3.22-1.15,9.62-1.19,11.25-3.5,.67-.94,.08-2.55-1.01-2.71Z" style="fill:#20386f; fill-rule:evenodd;"/><path d="M164.11,620.69c1.95,2.02,8.28,1.06,11.64,1.73,1.68,.32,6.16,2.56,7.68,2.12,4.59-1.3-10.53-9.27-18.74-6.69-1.17,.38-1.4,2.01-.58,2.84Z" style="fill:#20386f; fill-rule:evenodd;"/><path d="M139.28,639.84c-2.43,.18-5.04-8.91,.86-9.37,3.15-.24,3.12,9.07-.86,9.37Z" style="fill:#20386f; fill-rule:evenodd;"/><path d="M175.41,637.43c2.44-.19,3.63-9.57-2.26-9.12-3.15,.24-1.72,9.42,2.26,9.12Z" style="fill:#20386f; fill-rule:evenodd;"/><path d="M154.43,653.81c-.33-1.01,1.42-1.23,2.49-1.57,3.94-1.19,4.28,.74,1.12-15.94-.61-3.26-1.31-5-.13-5.17,1.09-.16,.9,1.17,1.61,4.88,3.42,18.15,3.29,15.89-4.14,18.27-.38,.12-.82-.08-.94-.47Z" style="fill:#ed7d57; fill-rule:evenodd;"/><path d="M150.57,668.65c-1.14-1.73,1.49-1.44,17.26-4.35,4.72-.85-7.87,18.73-17.26,4.35Z" style="fill:#ed7d57; fill-rule:evenodd;"/><path d="M1379.69,668.31s21.59,18.39,1.78,39.55c0,0,16.51,1.61,22.08-2.95,0,0-1.09,2.23-2.11,3.23,0,0,18.44,.66,26.06-5.09,7.62-5.75,2.74-100.14-48.47-89.58,0,0-43.4-3.28-39.37,46.94,4.06,50.22-12.34,50.22-12.34,50.22,0,0,4.56,2.25,6.77,2.25,0,0,3.21-1.23,3.86-3,0,0-.65,2.79-1.46,3.68,0,0,17.68,1.68,26.51-5,8.83-6.68,19.19-29.87,16.69-40.23Z" style="fill:#20386f; fill-rule:evenodd;"/><path d="M1314.64,778.42h118.31c-8.46-21.2-20.59-36.54-29.79-38.42-4.89-1.3-13.23-19.03-13.12-47.6l-2.21,.44-37.16,7.36s.84,11.7,.87,22.72c.03,9.18-.47,18.52-2.56,19.61-2.67,.24-5.11,.73-5.11,.73,0,0-20.16,14.15-29.23,35.17Z" style="fill:#f9af79; fill-rule:evenodd;"/><path d="M1350.67,700.18s.84,11.7,.87,22.71c20.8-.58,31.78-19.55,36.28-30.07l-37.16,7.36Z" style="fill:#ed7d57; fill-rule:evenodd;"/><path d="M1391.66,688.78s10.89-17.22,13.52-31.94c1.87-10.51-3.48-49.47-42.63-43.86,0,0-11.38,1.12-22.05,8.34-8.51,5.74-20.78,18.14-7.05,52.13l3.55,11.48,54.67,3.84Z" style="fill:#20386f; fill-rule:evenodd;"/><path d="M1343.73,710.62s49.18,.81,49.21-29.83c.05-30.65,6.41-51.18-24.99-52.99-31.42-1.82-37.52,9.87-40.03,20.09-2.5,10.23,3,61.73,15.81,62.73Z" style="fill:#f9af79; fill-rule:evenodd;"/><path d="M1345.55,627.04s13.45,35.95,34.14,41.27c20.67,5.31,29.63-.22,29.63-.22,0,0-15.85-12.6-19.14-34.59,0,0-34.47-23.57-44.64-6.46Z" style="fill:#20386f; fill-rule:evenodd;"/><path d="M1348.88,629.96s-10.06,8.02-12.51,15.83c-2.46,7.8-3.57,23.87-8.25,23.32,0,0-10.14-24.44,1.26-38.26,12.1-14.66,19.5-.89,19.5-.89Z" style="fill:#20386f; fill-rule:evenodd;"/><path d="M1347,631.17s9.61,37.65,35.69,49.7c0,0-26.09-23.13-28.3-47.98-2.21-24.85-7.39-1.72-7.39-1.72Z" style="fill:#20386f; fill-rule:evenodd;"/><path d="M1211.33,868.58s-16.39-13.4-22.29-13.47c-5.89-.06-17.09-3.01-16.65-1.1,.45,1.91,9.88,4.42,8.26,5.3-1.62,.89-15.32-2.8-19.16-.59-3.82,2.2-12.81,11.34-5.6,15.32,7.22,3.98,28.88,10.31,34.48,9.58,5.59-.75,18.27-1.63,18.27-1.63l2.69-13.42Z" style="fill:#f9af79; fill-rule:evenodd;"/><polygon points="1420.82 1367.06 1407.06 1425.01 1386.45 1424.88 1385.7 1367.06 1420.82 1367.06" style="fill:#f9af79; fill-rule:evenodd;"/><polygon points="1247.49 1369.54 1208.35 1425.01 1193.09 1405.42 1216.65 1361.91 1247.49 1369.54" style="fill:#f9af79; fill-rule:evenodd;"/><path d="M1199.3,1390.22l20.16,.62,21.82,.67s50.4-56.12,78.66-146.07c.66-2.08,1.36-4.2,2.09-6.35,15.48-45.1,47.55-101.74,64.45-152.99,2.68-8.17,5.1-15.85,7.27-23.12,.7-2.34,1.37-4.61,2.01-6.86,12.45-43.28,16.06-71.69,19.39-102.06l-122.05,.98s-19.7,207.3-93.8,435.18Z" style="fill:#223f81; fill-rule:evenodd;"/><path d="M1310.19,884.92c.3,58.07-8.52,82.99-8.52,82.99,0,0,52.26,26.55,114.37,7,.72-.23,51.42-11.79,51.42-11.79-1.04-2.35-10.28-41.49-11.29-43.66-13.11-28.14-23.07-40.49-24.62-49.16-2.89-16.16-2.95-32.88-1.52-48.65,3.8-41.76,15.07-76.42,15.07-76.42-16.93-3.85-32.77-10.61-50.39-17.22-4.05,5.05-16.44,10.33-27.18,10.09-12.36-.27-16.38-5.57-15.73-11.35-13.19,7.33-23.7,14.26-23.7,14.26-11.21,19.46-33.93,38.36-35.58,68.22-.4,7.35,17.68,74.06,17.69,75.69Z" style="fill:#e9f0f9; fill-rule:evenodd;"/><path d="M1407.75,1421.77s-1.66,11.47,2.63,23.75c0,0,3.37,15.38-11.77,15.66-15.13,.28-18.85-1.16-17.13-10.57,1.71-9.41,4.97-25.73,4.97-25.73l21.3-3.11Z" style="fill:#f9af79; fill-rule:evenodd;"/><path d="M1379.49,1470.29c9.62,18.16,23.32,16.85,33.14,0,1.36-6.81-1.65-21.35-2.15-24.14-.03-.21-.06-.37-.09-.47,0-.1-.02-.15-.02-.15-17.13,15.69-27.86-.41-27.86-.41,0,.03-.02,.05-.04,.09-2.5,6.15-3.04,22.69-3,25.09Z" style="fill:#0e2952; fill-rule:evenodd;"/><path d="M1156.63,1452.14s27.9-30.97,36.46-46.72l20.75,10.63-46.38,43.55-10.86-1.42,.02-6.04Z" style="fill:#f9af79; fill-rule:evenodd;"/><path d="M1138.91,1470.29h35.1c5.17,0,9.3-8.56,14.87-19.7,2.27-4.55,7.39-7.06,12.63-8.44l-.13,28.14h8.09l7.45-29.76c4.95-9.09,.4-17.33-3.08-24.49-4.05,0-14.92,2.76-35.53,25.98-6.78,7.64-14.25,10.35-21.68,10.12-.11,.07-.21,.12-.31,.17-17.13,7.71-17.41,17.98-17.41,17.98Z" style="fill:#0e2952; fill-rule:evenodd;"/><path d="M1219.46,1390.84l21.82,.67s50.4-56.12,78.66-146.07c.66-2.08,1.36-4.2,2.09-6.35,15.48-45.1,47.55-101.74,64.45-152.99,2.68-8.17,5.1-15.85,7.27-23.12,.7-2.34,1.37-4.61,2.01-6.86l-17.97-13.64s-53.96,87.38-70.67,169.61c-14.5,71.42-72.62,157.36-87.67,178.75Z" style="fill:#20386f; fill-rule:evenodd;"/><path d="M1375.92,1219.74c-.31,39.98,1.71,131.91,6.92,169.98h19.33c10.68,0,16.01-.14,16.01-.14,13.06-66.18,22.36-120.94,29.12-168.12,5.55-38.73,10.48-71.92,14.28-100.49,3.82-28.77,6.47-52.85,7.43-73.19,.14-3.21,.26-6.33,.32-9.35,.05-3.04,.07-5.99,.04-8.86l-105.44-10.29c1.32,70.08,12.16,177.23,11.99,200.47Z" style="fill:#223f81; fill-rule:evenodd;"/><path d="M1402.17,1389.72c10.68,0,16.01-.14,16.01-.14,13.06-66.18,22.36-120.94,29.12-168.12,5.55-38.73,10.48-71.92,14.28-100.49,3.82-28.77,6.47-52.85,7.43-73.19l-38.69,22.76s24.69,8.72,15.27,74.67c-9.42,65.97-30.31,235.18-43.42,244.51Z" style="fill:#20386f; fill-rule:evenodd;"/><path d="M1397.19,1047.13s7.42,26.83,33.12,23.41c25.7-3.42,62.24-18.85,62.24-18.85,0,0-10.98-34.7-24.64-80.29-16.53-55.2-20.65-132.77-30.28-177.65-2.71-12.58-20.91-16.66-21.6-24.18l-21.31-41.37s-31.79,71.35-33.51,89.34c-1.71,17.99,35.99,229.58,35.99,229.58Z" style="fill:#6d96ce; fill-rule:evenodd;"/><path d="M1415.16,870.53c1.14,29.13,11.34,78.81,52.28,100.65,.16,.09,.32,.16,.48,.23-16.53-55.2-16.31-108.15-25.96-153.03-22-4.59-27.43,36.12-26.8,52.15Z" style="fill:#466fb5; fill-rule:evenodd;"/><path d="M1460.12,935.19s-18.36-3.98-23.09,1.27c-4.72,5.24-7.36,13.58-2.65,16.5,4.72,2.93,18.37-5.11,23.28-1.86,3.51,2.32,4.63,8.22,8.17,6.17,3.53-2.08,7.26-15.6,7.26-15.6l-12.96-6.47Z" style="fill:#f9af79; fill-rule:evenodd;"/><path d="M1394.71,728.21s49.55,2.18,61.45,13.24c11.91,11.06,83.21,96.51,84.4,118.9,1.18,22.39-62.47,86.04-62.47,86.04,0,0-17.69-4.27-25.34-15.39,0,0,39.48-70.41,37.13-73.48-2.36-3.07-69.25-57.88-74.72-45.72-4.72,10.48-20.44-83.6-20.44-83.6Z" style="fill:#6d96ce; fill-rule:evenodd;"/><path d="M1206.23,861.32s56.57,18.87,63.64,17.28c7.07-1.56,17.17-78.22,22.63-104.49,7.02-33.83,33.84-40.56,33.84-40.56l25.44-6.8s-29.13,71.96-29.99,86.52c-.86,14.56-3.42,238.14-3.42,238.14,0,0,1.71,10.29-17.99,6-19.7-4.28-24.85-8.57-24.85-8.57,0,0,8.54-62.51,12.55-117.99-20.07-3.43-84.62-36.14-84.62-36.14-10.01-15.73,2.75-33.39,2.75-33.39Z" style="fill:#6d96ce; fill-rule:evenodd;"/><path d="M1356.44,689.89c-7.08,1.52-11.16,1.62-18.39,1.37-2.9-.11,7.05,20,19.01-.33,.28-.49-.07-1.17-.62-1.05Z" style="fill:#eb795b; fill-rule:evenodd;"/><path d="M1355.61,649.79c-3.4,.94-2.66,3.65,.03,3.79,28.54,1.36,8.38-6.16-.03-3.79Z" style="fill:#20386f; fill-rule:evenodd;"/><path d="M1338.14,650.68c3.48,.6,3,3.37,.35,3.78-28.26,4.25-8.96-5.28-.35-3.78Z" style="fill:#20386f; fill-rule:evenodd;"/><path d="M1343.03,681.88l-.18-.03c-3.03-.81-4.64-1.3-5.16-2.48-.49-1.08,.1-2.25,1.15-4.37,1.19-2.34,2.97-5.91,4.64-11.84,.12-.42,.58-.67,1.01-.56,.43,.12,.69,.57,.56,1.01-1.71,6.06-3.53,9.71-4.74,12.12-.7,1.4-1.3,2.6-1.13,2.97,.24,.53,2.39,1.11,4.11,1.56,.44,.12,.7,.57,.57,1.01-.1,.37-.45,.61-.82,.59Z" style="fill:#eb795b; fill-rule:evenodd;"/><path d="M1332.94,669.46c-2.01,.19-4.29-7.31,.58-7.75,2.6-.24,2.7,7.45-.58,7.75Z" style="fill:#20386f; fill-rule:evenodd;"/><path d="M1360.14,667.41c-2.01,.17-4.29-7.31,.58-7.75,2.6-.24,2.7,7.45-.58,7.75Z" style="fill:#20386f; fill-rule:evenodd;"/><path d="M1356.04,690.34c2.96,2.13-13.27,5.58-16.62,3.57-.37-.21-1.65-1.51-1.39-2.01,.25-.51,2.3-.1,2.83-.08,5.19,.25,9.94-.19,15.17-1.48Z" style="fill:#fff; fill-rule:evenodd;"/><path d="M918.82,1107.52c0-75.83,26.76-138.28,86.21-212.61,71.37-89.21,141.26-175.45,141.26-294.4,0-127.86-86.24-249.78-283.99-249.78-92.18,0-182.88,28.25-233.42,63.94l40.14,124.89c40.14-28.26,101.09-47.57,156.12-47.57,95.14,0,144.21,53.52,144.21,133.81,0,72.84-40.14,135.29-107.05,220.05-68.38,87.71-98.13,173.95-98.13,257.22,0,11.88,2.99,56.48,4.47,71.35h153.15l-2.97-66.9h0Zm-77.33,365.09c66.91,0,110.02-49.07,110.02-114.47s-44.6-117.46-110.02-117.46-110.02,49.06-110.02,117.46c0,62.45,40.15,114.47,110.02,114.47Z" style="fill:#d0a382; fill-rule:evenodd;"/></svg>