<?xml version="1.0" encoding="UTF-8"?><svg id="a" xmlns="http://www.w3.org/2000/svg" viewBox="0 0 1896.03 1483.69"><path d="M1644.09,1459.73c100.66,0,182.71-6.21,182.71-13.86s-82.05-13.71-182.71-13.71-182.71,6.21-182.71,13.71,82.04,13.86,182.71,13.86Z" style="fill:#c4d1eb; fill-rule:evenodd;"/><path d="M1400.12,948.55l10.1-59.46-43.44-42c-4.98-4.76-2.17-13.21,4.62-14.15l59.6-8.8,26.7-54.16c2.96-6.17,11.76-6.2,14.72,0l26.84,54.02,59.75,8.51c6.71,1.01,9.38,9.31,4.47,14.15l-42.94,42.14,10.18,59.46c1.37,6.71-5.85,11.9-11.98,8.73l-53.32-27.92-53.26,28.14c-6.2,3.25-13.35-1.88-12.05-8.66Z" style="fill:#eac5a7; fill-rule:evenodd;"/><polygon points="1409.14 948.69 1465.43 918.96 1465.06 775.25 1436.92 832.3 1374 841.61 1419.82 885.91 1409.14 948.69" style="fill:#d0a382; fill-rule:evenodd;"/><path d="M1149.44,757.22l10.1-59.5-43.44-41.96c-5.05-4.76-2.17-13.21,4.62-14.14l59.53-8.8,26.77-54.16c2.96-6.17,11.76-6.21,14.72-.04l26.77,54.05,59.82,8.48c6.71,1.05,9.38,9.35,4.47,14.18l-42.93,42.14,10.18,59.42c1.37,6.75-5.85,11.94-11.98,8.73l-53.33-27.89-53.25,28.14c-6.21,3.25-13.35-1.91-12.05-8.66Z" style="fill:#eac5a7; fill-rule:evenodd;"/><polygon points="1158.46 757.36 1214.74 727.63 1214.38 583.92 1186.24 640.97 1123.31 650.27 1169.14 694.58 1158.46 757.36" style="fill:#d0a382; fill-rule:evenodd;"/><path d="M896.73,565.85l10.03-59.46-43.37-41.96c-5.05-4.8-2.24-13.21,4.62-14.14l59.53-8.84,26.7-54.12c3.03-6.17,11.83-6.21,14.79-.04l26.77,54.01,59.82,8.48c6.71,1.08,9.38,9.38,4.47,14.22l-42.93,42.14,10.18,59.42c1.37,6.75-5.85,11.91-11.98,8.73l-53.33-27.89-53.33,28.14c-6.13,3.25-13.28-1.91-11.98-8.69Z" style="fill:#eac5a7; fill-rule:evenodd;"/><polygon points="905.75 566.03 962.04 536.3 961.68 392.56 933.53 449.63 870.61 458.94 916.43 503.21 905.75 566.03" style="fill:#d0a382; fill-rule:evenodd;"/><path d="M637.97,374.51l10.03-59.5-43.37-41.96c-5.05-4.73-2.24-13.17,4.62-14.11l59.53-8.84,26.77-54.12c2.96-6.17,11.76-6.21,14.72-.04l26.77,54.01,59.82,8.48c6.64,1.08,9.31,9.38,4.47,14.22l-42.93,42.14,10.17,59.39c1.37,6.78-5.85,11.98-11.98,8.77l-53.33-27.89-53.33,28.18c-6.13,3.18-13.28-1.95-11.98-8.73Z" style="fill:#eac5a7; fill-rule:evenodd;"/><polygon points="646.99 374.7 703.27 344.93 702.91 201.22 674.77 258.3 611.84 267.61 657.59 311.88 646.99 374.7" style="fill:#d0a382; fill-rule:evenodd;"/><path d="M385.19,183.18l10.1-59.5-43.37-41.96c-5.05-4.76-2.24-13.17,4.55-14.11l59.6-8.84,26.7-54.12c3.03-6.17,11.83-6.24,14.79-.04l26.77,54.01,59.82,8.48c6.64,1.08,9.31,9.38,4.47,14.22l-42.93,42.14,10.1,59.39c1.44,6.78-5.77,11.98-11.98,8.77l-53.25-27.89-53.33,28.14c-6.21,3.21-13.28-1.95-12.05-8.7Z" style="fill:#eac5a7; fill-rule:evenodd;"/><polygon points="394.28 183.36 450.49 153.6 450.21 9.89 421.99 66.97 359.14 76.28 404.89 120.55 394.28 183.36" style="fill:#d0a382; fill-rule:evenodd;"/><polygon points="1309.63 370.15 1502.8 449.35 1449.77 517.07 1309.63 370.15" style="fill:#c4d1eb; fill-rule:evenodd;"/><polygon points="1530.01 417.41 1315.55 370.58 1582.54 390.1 1530.01 417.41" style="fill:#c4d1eb; fill-rule:evenodd;"/><polygon points="1530.01 417.41 1525.03 506.35 1502.8 449.35 1309.63 370.15 1315.55 370.58 1530.01 417.41" style="fill:#9db2d9; fill-rule:evenodd;"/><polygon points="1525.03 506.35 1479.28 479.36 1502.8 449.35 1525.03 506.35" style="fill:#859ac6; fill-rule:evenodd;"/><path d="M1574.68,499.75c-6.28-.76-4.83-9.92,1.01-9.2l9.24,1.01c6.21,.79,4.91,9.92-1.08,9.2l-9.17-1.01h0Zm316.71,368.27c4.11,0,6.13,5.05,3.39,7.79-.72,.87-2.09,1.45-3.39,1.45h-5.99c-5.99,0-6.13-9.24,.07-9.24h5.92Zm-33.48-.87c5.48,0,6.28,9.24-.51,9.24l-9.31-.58c-6.64-.79-4.84-9.88,.65-9.24l9.17,.58h0Zm-36.44-3.46c5.77,.72,4.98,9.96-1.37,9.24l1.37-9.24h0Zm-35.36-7.79c5.56,2.09,3.32,10.39-2.89,8.8-3.1-.94-6.06-2.02-9.02-3.18-5.63-2.45-2.31-10.75,3.46-8.58,2.74,1.08,5.55,2.09,8.44,2.96h0Zm-31.46-15.8c4.83,4.04-1.23,11.04-5.77,7.22-2.67-2.16-5.05-4.4-7.36-6.86-4.11-4.98,3.25-10.61,7-6.21,1.88,2.17,3.97,4.04,6.13,5.84h0Zm-17.32-28.07c.79,6.64-8.44,7.07-9.09,1.58-.65-3.32-1.01-6.49-1.16-9.89,0-6.42,9.31-6.06,9.31-.21,.07,2.89,.43,5.63,.94,8.52h0Zm2.52-34.67c-1.44,5.66-10.53,3.75-8.95-2.42,.79-3.03,1.73-6.2,2.74-9.16,2.24-6.03,10.75-2.38,8.73,2.99-.94,2.81-1.81,5.7-2.53,8.59h0Zm12.77-33.91c-2.31,5.34-10.97,2.02-8.44-3.86,1.3-2.85,2.67-5.7,4.04-8.48,3.39-5.95,10.97-.61,8.3,4.08-1.37,2.74-2.67,5.48-3.9,8.26h0Zm16.53-32.87c-3.25,5.63-11.04,.65-8.23-4.33l4.4-8.19c3.18-5.59,11.04-.65,8.15,4.33-1.51,2.67-2.96,5.49-4.33,8.19h0Zm17.25-32.9c-3.32,5.84-10.97,.58-8.3-4.15l4.04-8.26c3.18-5.52,10.75-1.48,8.37,4l-4.11,8.41h0Zm15.01-34.6c-2.09,5.56-10.32,3.32-8.81-2.85,.94-2.89,1.81-5.66,2.53-8.59,1.52-5.92,10.46-3.72,9.02,2.24-.79,3.14-1.73,6.13-2.74,9.2h0Zm4.69-38.46c.72,6.06-8.44,7.22-9.24,1.15-.29-2.85-.87-5.74-1.52-8.55-1.51-5.99,7.43-8.12,8.95-2.27,.79,3.17,1.37,6.42,1.8,9.67h0Zm-14.29-36.26c3.61,5.05-3.97,10.32-7.5,5.45-1.66-2.42-3.46-4.65-5.41-6.86-4.26-5.01,3.17-10.53,6.86-6.2,2.16,2.38,4.18,5.01,6.06,7.61h0Zm-27.92-26.41c4.76,3.39,.36,10.9-5.2,7.68-2.53-1.7-5.05-3.28-7.58-4.83-5.2-2.92-.8-11.08,4.69-7.94,2.74,1.59,5.41,3.28,8.08,5.09h0Zm-33.55-17.79c5.7,2.45,1.95,10.93-3.54,8.55-2.81-1.19-5.63-2.31-8.44-3.39-5.7-2.09-2.52-10.82,3.25-8.66,2.96,1.12,5.92,2.27,8.73,3.5h0Zm-35.43-12.34c5.56,1.37,3.75,10.46-2.6,8.91l-8.8-2.45c-5.77-1.44-3.68-10.46,2.38-8.95l9.02,2.49h0Zm-36.37-8.88c6.42,1.59,3.61,10.43-1.88,9.06l-9.02-1.8c-5.84-1.44-4.47-9.85,1.73-9.09l9.16,1.84h0Zm-36.73-6.53c5.77,.72,4.98,9.96-1.37,9.16l-9.09-1.34c-5.84-.76-4.98-9.96,1.3-9.2l9.17,1.37Z" style="fill:#859ac6; fill-rule:evenodd;"/><path d="M1339.87,280.6h427.48c-3.1-12.99-14.72-22.66-28.65-22.66-.65,0-1.37,.04-2.02,.11-6.78-16.52-23.02-28.18-41.93-28.18-8.3,0-16.09,2.2-22.8,6.1-8.08-26.84-33.05-46.44-62.64-46.44-5.99,0-11.84,.83-17.32,2.35-14.36-31.57-46.11-53.51-82.98-53.51-43.8,0-80.39,30.88-89.12,72.05-.72,0-1.45-.04-2.24-.04-28,0-51.16,20.96-54.55,48.06-11.47,2.17-20.56,10.9-23.24,22.15Z" style="fill:#e0e8f5; fill-rule:evenodd;"/><path d="M1578.93,991.84h-256.09v-188.48h-256.03v-188.52h-256.1v-188.48h-256.02V237.88H298.6V1425.67H1578.93v-433.83Z" style="fill:#c4d1eb; fill-rule:evenodd;"/><path d="M326.67,1442.77c180.4,0,326.59,9.17,326.59,20.42s-146.2,20.49-326.59,20.49S0,1474.45,0,1463.19s146.27-20.42,326.67-20.42Z" style="fill:#c4d1eb; fill-rule:evenodd;"/><path d="M417.3,498.49c-9.09-2.6-9.31-.9-10.46-1.3-1.37-.43-12.56-15.22-12.56-15.22,0,0-33.19-43.37-34.93-45.79l-10.97-56.47-31.03,.04s13.64,60.98,14.94,63.97c1.3,3.03,53.76,55.89,58.23,60.69,0,0,2.89,7.9,4.91,12.74,2.02,4.87,6.28,8.44,7.07,9.67,.07,.18,3.03,4.22,8.08,8.12,4.33,3.39,2.02-1.88,2.02-1.88,0,0-6.78-7.76-5.99-8.23,.58-.4,3.97,4.08,8.73,7.83,1.23,1.01,2.45,1.95,3.61,2.82,2.89,2.27,5.34,1.05,2.74-1.84-.94-1.05-2.53-2.74-3.9-3.72-1.44-1.12-2.31-2.56-3.39-3.64-2.02-2.27-3.61-3.82-3.39-3.86,.14-.07,.14-.83,1.44,.18,1.59,1.19,4.33,4.51,6.85,6.03,1.44,.9,4.33,2.96,4.33,2.96,0,0,4.98,2.16,5.27,1.95,1.37-1.37-1.52-3.86-3.61-4.8-1.01-1.3-4.04-3.32-4.04-3.32,0,0-5.12-5.63-4.26-6.46,.36-.32,3.97,2.74,8.08,5.09,3.75,2.24,8.01,3.82,8.59,3.1,1.15-1.19-2.74-4.15-2.74-4.15,0,0-2.89-1.84-3.75-2.53-1.01-.83-3.9-3.61-3.9-3.61,0,0-9.6-9.92-8.73-10.57,.87-.72,3.82-1.66,4.69-1.3,.79,.4,1.88,1.95,2.74,2.35,.79,.4,2.31,.18,2.96-.83,.72-.98-2.45-4.51-2.45-4.51,0,0-2.53-2.81-5.2-3.5Z" style="fill:#f9af79; fill-rule:evenodd;"/><path d="M368.67,782.83l-.94,19.52c-.36,2.6-1.88,8.66-1.88,10.97,.14,8.37,37.6-7.65,29.15-11.26-.79-.36-4.83-2.89-5.12-5.77-.43-4.44-1.52-13.35-1.52-13.35l-19.7-.11Z" style="fill:#f9af79; fill-rule:evenodd;"/><path d="M394.86,801.92s-8.8,2.74-13.28,3.46c-4.55,.65-10.61-4.69-13.78-3.25-3.46,1.66-2.96,17.61-2.96,17.61,0,0,47.19,2.31,60.47-2.09,5.34-1.73-12.27-9.81-30.45-15.73Z" style="fill:#0e2952; fill-rule:evenodd;"/><path d="M285.75,785.54l-.94,19.56c-.36,2.52-1.95,8.66-1.88,10.97,.07,8.44,37.6-7.65,29.08-11.26-.72-.36-5.99-4.76-6.28-7.65-.43-4.47-.29-11.51-.29-11.51l-19.7-.11Z" style="fill:#f9af79; fill-rule:evenodd;"/><path d="M311.95,804.66s-8.8,2.74-13.35,3.46c-4.55,.65-10.53-4.76-13.71-3.32-3.54,1.73-3.54,16.31-3.54,16.31,0,0,50.51,3.18,62.35-.43,5.27-1.59-13.64-10.1-31.75-16.02Z" style="fill:#0e2952; fill-rule:evenodd;"/><path d="M342.54,503.1l15.95,6.71,35.14,159.65-.14,119.93-26.84,.86s-13.49-104.74-13.64-112.86c-.07-8.15-59.32-141.69-59.32-141.69l48.85-32.62Z" style="fill:#20386f; fill-rule:evenodd;"/><path d="M330.35,512.05s-10.46,123.36-10.25,144.1c.14,20.82-8.16,137.18-8.16,137.18l-26.91,.11s-2.31-35.39-5.7-87.53c-.58-8.16,.29-24.61-.36-33.09-4.83-60.76-13.64-117.91-9.96-140.64,.58-3.65,1.73-13.24,4.04-15.62,17.39-18.44,57.29-4.51,57.29-4.51Z" style="fill:#20386f; fill-rule:evenodd;"/><path d="M362.17,414.49l-32.61-1.88s-1.88-29.12-2.02-43.01c-.22-16.81-5.56-41.6-3.61-41.17,5.7,1.26,15.44,6.31,20.06,12.59,15.8,21.61,18.18,73.46,18.18,73.46Z" style="fill:#466fb5; fill-rule:evenodd;"/><path d="M284.09,328.19s-18.54,2.81-23.38,6.42c-5.48,4.08-11.47,13.21-11.47,13.21,0,0,23.89,107.56,24.1,125.74,.22,13.96-4.4,48.49-4.4,48.49,0,0,68.91,3.68,94.89-6.93,0,0-8.66-40.84-8.73-51.67-.14-10.75-10.97-108.49-13.28-115.28-2.09-6.21-5.92-17.28-18.54-19.92-12.63-2.63-39.18-.07-39.18-.07Z" style="fill:#6d96ce; fill-rule:evenodd;"/><path d="M288.86,299.14l-4.26,30.16s17.17,35.65,27.13,32.4c8.37-2.63,2.89-34.31,2.89-34.31,0,0-4.76-16.99-3.46-25.54,1.3-8.52-22.3-2.71-22.3-2.71Z" style="fill:#f9af79; fill-rule:evenodd;"/><path d="M311.15,301.85c1.3-8.52-22.3-2.71-22.3-2.71l-.36,2.53c.72,1.66,1.59,3.03,2.6,4.11,5.34,5.63,13.64,8.91,20.78,9.09-.79-4.55-1.3-9.49-.72-13.02Z" style="fill:#f27458; fill-rule:evenodd;"/><path d="M284.53,256.61c-.65-.22-4.98,34.35,4.04,43.73,8.95,9.42,26.34,12.34,32.4,4.8,6.86-8.33,6.06-45.42-7.79-55.09-13.93-9.6-28.65,6.57-28.65,6.57Z" style="fill:#f9af79; fill-rule:evenodd;"/><path d="M307.69,231.49c-10.68,2.24-17.46,8.8-19.99,11.62-4.83,.61-11.4,3.32-18.11,14.58-8.23,13.85-1.88,29.04,7.94,36.48,9.81,7.36,9.74,16.06,9.74,16.06l1.52-4.58c1.08-3.36,1.52-6.96,1.08-10.5-.22-2.13-.72-4.47-1.59-6.31-2.45-5.02,4.91-8.37,6.93-12.56,1.59-3.25,1.59-10.57,4.04-15.84l2.96-4.08s6.85-5.45,13.64-4.01c6.78,1.44,5.56-23.78-8.15-20.85Z" style="fill:#20386f; fill-rule:evenodd;"/><path d="M294.84,282.58c.07,4.18-1.8,7.68-4.26,7.76-2.45,.04-4.47-3.36-4.62-7.54-.14-4.22,1.81-7.69,4.26-7.72,2.38-.07,4.47,3.28,4.62,7.5Z" style="fill:#f9af79; fill-rule:evenodd;"/><path d="M256.1,342.37c6.28-.25,12.19,40.95,8.3,45.06-3.97,4.08-4.19,54.88-4.19,54.88l58.96-2.09v.04c1.15-.79,13.42-9.24,15.15-11.04,1.8-1.95,10.82-1.08,13.28,1.51,2.38,2.6-4.62,1.34-6.71,2.78-2.09,1.44,.94,4.18,.94,4.18,0,0,14.94,1.98,17.82-1.08,2.89-3.14,10.61-8.48,11.69-5.38,.58,1.59-3.39,6.46-5.63,8.48,2.81-2.13,6.13-4.4,7.36-4.04,2.09,.72,1.23,3.43,.07,4.22-1.08,.79-12.84,9.96-14.72,10.64-1.81,.65-29.37,1.62-34.13,2.71,0,0-77.57,18.51-81.97,17.46-3.9-.98-8.01-25.8-8.23-44.88-.22-19.05,2.45-82.69,22.01-83.45Z" style="fill:#f9af79; fill-rule:evenodd;"/><path d="M264.11,332.88s-10.82,2.63-21.94,15.41c-10.1,11.55-15.87,75.87-15.87,75.87l35.36,5.34,2.45-31.1c14.72-22.66,18.26-49.72,0-65.52Z" style="fill:#466fb5; fill-rule:evenodd;"/><polygon points="434.69 845.79 419.18 845.79 592.07 1462.76 607.51 1462.76 434.69 845.79" style="fill:#9c7357; fill-rule:evenodd;"/><polygon points="318.01 845.79 302.49 845.79 475.39 1462.76 490.9 1462.76 318.01 845.79" style="fill:#9c7357; fill-rule:evenodd;"/><polygon points="430.51 886.13 329.34 886.13 332.22 896.45 433.39 896.45 430.51 886.13" style="fill:#9c7357; fill-rule:evenodd;"/><polygon points="448.47 950.28 347.31 950.28 350.19 960.53 451.36 960.53 448.47 950.28" style="fill:#9c7357; fill-rule:evenodd;"/><polygon points="189.2 945.23 290.37 945.23 287.49 955.48 186.32 955.48 189.2 945.23" style="fill:#9c7357; fill-rule:evenodd;"/><polygon points="466.44 1014.36 365.27 1014.36 368.16 1024.75 469.33 1024.75 466.44 1014.36" style="fill:#9c7357; fill-rule:evenodd;"/><polygon points="171.24 1009.31 272.33 1009.31 269.44 1019.7 168.28 1019.7 171.24 1009.31" style="fill:#9c7357; fill-rule:evenodd;"/><polygon points="484.41 1078.58 383.24 1078.58 386.13 1088.83 487.3 1088.83 484.41 1078.58" style="fill:#9c7357; fill-rule:evenodd;"/><polygon points="502.38 1142.66 401.21 1142.66 404.1 1153.05 505.26 1153.05 502.38 1142.66" style="fill:#9c7357; fill-rule:evenodd;"/><polygon points="520.34 1206.88 419.18 1206.88 422.06 1217.13 523.23 1217.13 520.34 1206.88" style="fill:#9c7357; fill-rule:evenodd;"/><polygon points="538.31 1270.96 437.14 1270.96 440.03 1281.35 541.2 1281.35 538.31 1270.96" style="fill:#9c7357; fill-rule:evenodd;"/><polygon points="556.28 1335.18 455.11 1335.18 458 1345.43 559.17 1345.43 556.28 1335.18" style="fill:#9c7357; fill-rule:evenodd;"/><polygon points="574.25 1399.26 473.08 1399.26 475.97 1409.65 577.13 1409.65 574.25 1399.26" style="fill:#9c7357; fill-rule:evenodd;"/><polygon points="201.54 845.79 217.06 845.79 44.16 1462.76 28.72 1462.76 201.54 845.79" style="fill:#9c7357; fill-rule:evenodd;"/><polygon points="318.22 845.79 333.67 845.79 160.84 1462.76 145.33 1462.76 318.22 845.79" style="fill:#9c7357; fill-rule:evenodd;"/><polygon points="205.73 886.13 306.9 886.13 304.01 896.45 202.84 896.45 205.73 886.13" style="fill:#9c7357; fill-rule:evenodd;"/><polygon points="151.82 1078.58 252.99 1078.58 250.11 1088.83 148.94 1088.83 151.82 1078.58" style="fill:#9c7357; fill-rule:evenodd;"/><polygon points="133.86 1142.66 235.02 1142.66 232.14 1153.05 130.97 1153.05 133.86 1142.66" style="fill:#9c7357; fill-rule:evenodd;"/><polygon points="115.89 1206.88 217.06 1206.88 214.17 1217.13 113 1217.13 115.89 1206.88" style="fill:#9c7357; fill-rule:evenodd;"/><polygon points="97.92 1270.96 199.09 1270.96 196.2 1281.35 95.03 1281.35 97.92 1270.96" style="fill:#9c7357; fill-rule:evenodd;"/><polygon points="79.95 1335.18 181.12 1335.18 178.23 1345.43 76.99 1345.43 79.95 1335.18" style="fill:#9c7357; fill-rule:evenodd;"/><polygon points="61.98 1399.26 163.08 1399.26 160.19 1409.65 59.03 1409.65 61.98 1399.26" style="fill:#9c7357; fill-rule:evenodd;"/><rect x="179.17" y="821.47" width="276.08" height="24.32" style="fill:#d0a382;"/><path d="M1061.11,562.28s22.8,16.42,26.34,21.29c5.2,7.07-38.54,20.24-33.77,12.01,1.15-1.91,4.26-8.3,4.4-8.91,.72-3.39-8.52-12.41-8.52-12.41l11.55-11.98Z" style="fill:#f9af79; fill-rule:evenodd;"/><path d="M1042.42,603.44l14.94-15.91s9.6-2.24,19.56-13.39c0,0,8.88,3.36,14.36,10.75,0,0-10.39,11.11-26.26,23.7,0,0-3.39,2.92-8.8,6.24h-27.57c-.94-4.44,2.45-9.6,13.78-11.4Z" style="fill:#0e2952; fill-rule:evenodd;"/><path d="M1251.26,263.32s-2.74,2.49-3.75,3.28c-1.16,.83-4.83,3.25-4.83,3.25,0,0-13.28,7.5-13.71,6.53-.43-1.01-.43-3.86,.22-4.62,.65-.72,2.53-1.55,3.25-2.27,.65-.76,.86-2.27,0-3.14-.86-.83-5.34,1.66-5.34,1.66,0,0-3.68,2.02-5.27,4.51-5.34,8.51-3.68,9.02-4.4,10.1-.86,1.3-19.48,9.74-19.48,9.74,0,0-55.63,23.16-58.66,24.42h-.07c-.36,2.56,1.01,4.91,1.73,7.22,1.3,7.97,3.68,8.48,5.49,16.13,8.52-4.33,67.68-36.84,73.68-40.3,0,0,9.02-1.52,14.65-2.64,5.63-1.15,10.54-4.76,12.05-5.3,.21-.07,5.27-2.24,10.82-6.53,4.76-3.68-1.44-2.31-1.44-2.31,0,0-9.96,5.34-10.25,4.47-.21-.61,5.41-3.25,10.75-7.25,1.37-1.05,2.74-2.06,3.97-3.03,3.17-2.49,2.67-5.16-1.15-3.07-1.3,.79-3.54,2.06-4.91,3.17-1.59,1.23-3.39,1.88-4.83,2.71-2.96,1.66-4.98,2.89-4.98,2.78,0-.22-.79-.32,.58-1.48,1.73-1.34,5.99-3.5,8.3-5.7,1.37-1.26,4.33-3.75,4.33-3.75,0,0,3.75-4.47,3.61-4.76-1.01-1.62-4.47,.76-6.06,2.71-1.66,.72-4.69,3.39-4.69,3.39,0,0-7.29,4.08-7.87,3.03-.21-.4,3.97-3.39,7.65-7,3.39-3.32,6.28-7.25,5.77-8.01-.94-1.23-5.12,2.06-5.12,2.06Z" style="fill:#f9af79; fill-rule:evenodd;"/><path d="M977.77,71.8s-.8,3.5-.94,4.69c-.21,1.44-.43,5.7-.43,5.7,0,0,.07,14.94,1.23,14.9,1.08-.04,3.61-1.33,3.97-2.24,.29-.9,0-2.96,.36-3.82,.36-.9,1.59-1.77,2.74-1.44,1.15,.4,1.3,5.45,1.3,5.45,0,0,.07,4.11-1.37,6.53-4.76,8.44-6.06,7.29-6.64,8.33-.72,1.34,1.3,21.36,1.3,21.36,0,0,8.01,58.88,8.37,62.06l.07,.04c-2.09,1.48-4.91,1.33-7.29,1.73-7.65,2.35-9.31,.47-17.03,2.35-.5-9.42-1.95-75.48-1.95-82.23,0,0-3.25-8.55-5.12-13.96-1.88-5.45-1.23-11.29-1.52-12.88,0-.25-.72-5.59,.29-12.34,.79-5.81,2.74,.18,2.74,.18,0,0,.43,11.11,1.3,11,.65-.15,.07-6.21,.94-12.63,.22-1.66,.43-3.28,.65-4.8,.58-3.93,3.18-4.62,3.25-.4,0,1.52,0,4.01-.29,5.74-.29,1.95,.15,3.79,.15,5.45,0,3.25-.07,5.59,.07,5.56,.14-.07,.65,.54,.94-1.15,.36-2.13,.07-6.78,.8-9.85,.43-1.7,1.15-5.38,1.15-5.38,0,0,2.02-5.3,2.38-5.23,1.95,.15,1.59,4.22,.72,6.42,.14,1.77-.65,5.59-.65,5.59,0,0,.07,8.19,1.3,8.3,.51,0,1.01-5.02,2.31-9.81,1.23-4.44,3.18-8.73,4.11-8.55,1.59,.22,.8,5.34,.8,5.34Z" style="fill:#f9af79; fill-rule:evenodd;"/><path d="M1095.97,393.67l-3.61,17.82-90.49,82.26,64.73,65.56-17.46,17.86s-95.61-70.25-99.07-79.45c-5.34-14.14,68.55-108.02,68.55-108.02l77.36,3.97Z" style="fill:#0e2952; fill-rule:evenodd;"/><path d="M1159.32,609.61s22.8,16.45,26.34,21.32c5.2,7.04-38.53,20.2-33.77,11.94,1.08-1.88,4.26-8.23,4.4-8.87,.72-3.39-8.52-12.41-8.52-12.41l11.54-11.98Z" style="fill:#f9af79; fill-rule:evenodd;"/><path d="M1140.06,656.81l15.44-21.86s10.25-1.84,20.21-12.95c0,0,8.22,2.99,13.71,10.35,0,0-10.32,11.15-26.26,23.67,0,0-9.45,8.41-22.51,12.81-13.06,4.4-.58-12.01-.58-12.01Z" style="fill:#0e2952; fill-rule:evenodd;"/><path d="M1092.86,401.94l-4.04,112.32,76.49,93.77-17.97,16.53s-88.83-76.2-98.57-97.42c-5.99-13.21-26.41-132.23-26.41-132.23l70.5,7.04Z" style="fill:#20386f; fill-rule:evenodd;"/><path d="M1019.84,392.74c7.36-16.63,6.57-135.66,35.21-163.55,10.03,1.7,17.25,2.67,18.9,3.1,1.52,12.27,3.18,57.26,4.19,98.5,.65,27.49-.07,56.32,3.32,71.51,2.09,9.38-68.34,5.59-61.63-9.56Z" style="fill:#fff; fill-rule:evenodd;"/><path d="M1097.41,238.42c8.01,1.8,13.93,5.56,24.46,21.14,10.1,14.9,32.47,47.81,32.47,47.81l59.03-26.19,2.74,29.87s-66.75,34.67-76.13,31.57c-9.46-3.14-33.48-37.63-35.43-40.23-.5-.61,1.66,41.71,1.66,48.38s10.9,60.47,10.9,60.47c0,0-32.47,8.01-38.75-6.53-19.48-44.49-4.55-172.5-4.55-172.5,0,0,17.75,4.91,23.6,6.21Z" style="fill:#466fb5; fill-rule:evenodd;"/><path d="M1048.34,236.11s-13.13,35.21-22.73,30.49c-9.53-4.8-61.77-61.7-62.27-64.33-.51-2.67-4.26-69.92-4.26-69.92l21.29-4.26,14.22,54.55s37.3,38.14,45.32,41.85c7.94,3.71,8.44,11.62,8.44,11.62Z" style="fill:#466fb5; fill-rule:evenodd;"/><path d="M1017.02,400.71c-6.49,0-8.88-.9-13.13-2.2,0,0,12.27-69.06,19.41-137.57,2.81-27.06,5.41-38.14,16.59-36.19,3.25,.54,11.98,3.9,15.08,4.44-28,79.34-28.07,140.46-32.11,158.17-1.95,8.91-3.68,13.39-5.84,13.35Z" style="fill:#466fb5; fill-rule:evenodd;"/><path d="M1058.01,217.17l-2.96,12.02s-.72,10.43,4.19,11.4c5.84,1.08,14.5-7.61,14.5-7.61l5.05-33.84-20.78,18.04Z" style="fill:#f7a390; fill-rule:evenodd;"/><path d="M1058.01,217.17l-2.96,12.02s-.72,10.43,4.19,11.4c5.84,1.08,14.5-7.61,14.5-7.61l5.05-33.84-20.78,18.04Z" style="fill:#f9af79; fill-rule:evenodd;"/><path d="M1078.72,199.27l-20.71,17.9-2.24,8.98c7.94-1.91,19.26-10.64,22.95-26.88Z" style="fill:#f27458; fill-rule:evenodd;"/><path d="M1057.87,168.17c-4.98,0-9.53,3.46-11.26,8.48-1.44,4.15-3.32,10.28-4.55,17.35-2.17,12.99,5.27,24.89,11.69,25.87,6.42,.94,21.79-3.32,25.18-21.76,1.44-7.9,3.39-18.29-3.1-23.7-5.05-4.26-12.19-6.24-17.97-6.24Z" style="fill:#f9af79; fill-rule:evenodd;"/><path d="M1076.85,212.16s22.73-20.28,23.67-36.08c1.01-15.77-13.56-24.25-26.05-24.72-5.7-.18-9.45,.07-15.3,.83-12.48,1.55-20.64,7.07-17.75,17.35,3.83,13.75,29.73,2.13,35.07,6.42,4.4,3.54-2.74,12.02,1.52,15.23,4.04,3.07,2.02,2.06,.65,7.79-1.3,5.81-1.8,13.17-1.8,13.17Z" style="fill:#20386f; fill-rule:evenodd;"/><path d="M1085.58,193.83c-.5,3.75-2.89,6.6-5.2,6.24-2.24-.36-3.68-3.68-3.1-7.47,.58-3.82,2.89-6.6,5.2-6.28,2.31,.36,3.68,3.72,3.1,7.5Z" style="fill:#f9af79; fill-rule:evenodd;"/><path d="M1615.66,988.89c1.73-11.47,3.46-22.87,14-32.11,8.59-7.51,19.2-9.67,29.51-7.07,29.37,7.43,22.23,33.41,44.67,54.63,9.6,9.02,21.79,12.12,29.66,22.08,14.22,17.97,12.2,52.32-10.9,76.27-56.57,58.6-109.39-14.07-113.15-31.32-2.81-12.84,5.12-75.19,6.21-82.48Z" style="fill:#20386f; fill-rule:evenodd;"/><path d="M1605.2,1361.09c1.95,15.15,5.84,28.65,6.35,30.23,.29,.72,2.96,3.61,3.25,4.33-2.38,18.18-14,28.43-24.82,35.57,2.67-9.09,8.23-19.41,7.72-21.43-.94-3.32-4.26-18.47-11.98-37.67,8.73-.51,12.12-5.84,19.48-11.04Z" style="fill:#f9af79; fill-rule:evenodd;"/><path d="M1630.96,1139.77l57.15,39.54s-25.11,28.79-34.57,39.55c-9.38,10.68-57.88,50.3-58.6,52.68-.14,.5,2.96,5.77,4.26,12.48,3.68,18.25,8.88,53.83,11.98,84.43-5.34,6.49-17.82,8.87-25.11,11.33-21.29-36.22-33.41-108.09-33.99-116.83-.94-14.14,78.87-123.18,78.87-123.18Z" style="fill:#0e2952; fill-rule:evenodd;"/><path d="M1795.13,1222.76c-2.02,1.45-17.03,23.38-23.23,35.5-5.92-5.34-9.16-11.11-16.02-15.15,6.93-7.72,21.07-26.84,22.66-31.68,3.83-11.4,6.64-12.7,6.64-12.7,0,0,36.01,19.34,37.95,23.45,2.02,4.19-19.92-5.48-28,.58Z" style="fill:#f9af79; fill-rule:evenodd;"/><path d="M1777.74,1213.95c-2.89-.43,2.16-13.71,3.32-16.74,1.23-3.54,3.39-4.33,3.9-4.33,1.37-.15,41.35,21.36,47.7,27.85,.43,.43,1.15,1.73,1.23,1.95,2.89,8.15-32.04,4.11-36.51,.07-4.04-3.68-6.42-6.64-19.63-8.8Z" style="fill:#0e2952; fill-rule:evenodd;"/><path d="M1620.21,1153.27l46.11-23.16c-.22,.14,.36,2.02,.43,2.17,5.63,17.82,28.86,9.31,40.77,40.12,8.3,21.65,10.18,96.55,10.18,96.55,0,0,20.92-17.9,42.93-36.8,2.02-1.73,20.06,15.51,20.06,15.51-27.71,55.49-75.12,79.66-81.54,77.57-21.79-6.71-64.01-146.77-63.93-146.77-4.76-8.16-15.01-25.18-15.01-25.18Z" style="fill:#20386f; fill-rule:evenodd;"/><path d="M1688.18,1027.64s57.37-16.02,70.21-18.83c12.85-2.74,57.01-20.71,58.74-21.43,1.66-.72,6.93-24.89,9.53-23.23,2.6,1.59-3.32,12.19-.08,13.42,3.25,1.3,29.73-11.98,30.02-9.67,.51,4.18-15.87,8.73-15.3,10.68,.65,1.88,16.74-6.35,18.83-3.46,2.16,2.89-15.95,6.35-16.16,8.01-.29,1.66,17.46-.94,16.67,2.67-.43,1.88-15.88,1.88-15.08,4.04,.72,2.16,12.56,4.04,11.84,6.28-.72,2.16-9.67-2.96-15.73-1.23-5.99,1.73-11.26-.15-19.92,5.48-8.66,5.63-36.87,29.3-57.51,34.49-20.56,5.34-66.1,17.03-66.1,17.03l-9.96-24.25Z" style="fill:#f9af79; fill-rule:evenodd;"/><path d="M1620.57,1026.48s-26.26-53.54-32.69-64.94c-6.49-11.4-22.51-56.29-23.09-58.09-.58-1.73,13.93-21.72,11.04-22.66-2.96-.87-6.93,10.61-10.03,9.02-3.11-1.52-10.83-30.09-12.7-28.79-3.54,2.38,4.04,17.68,2.16,18.47-1.88,.79-6.35-16.67-9.96-16.38-3.54,.36,5.92,16.16,4.83,17.47-1.08,1.3-10.96-13.71-13.06-10.75-1.15,1.66,9.09,13.21,7,14-2.16,.94-11.47-6.57-12.63-4.69-1.16,2.02,8.73,5.34,11.4,10.97,2.67,5.63,7.65,8.3,9.17,18.54,1.58,10.25,2.67,46.98,12.48,65.88,9.81,18.91,31.39,60.61,31.39,60.61l24.68-8.66Z" style="fill:#f9af79; fill-rule:evenodd;"/><path d="M1608.01,1094.02c-1.52-10.24-4.69-37.67-4.47-41.13-3.68-10.46-15.59-25.54-18.11-29.88,0,0,13.56-18.33,24.46-18.9,0,0,12.56,14.58,21.43,18.62,.14,0,3.18,1.23,4.47,1.08,8.3-.58,37.16-3.39,42.72-2.09v47.05c-1.37,2.81,.29,56.72-2.67,61.41-2.89,4.62-48.2,27.85-56.28,23.16-.36-.14-8.59-38.68-11.54-59.32Z" style="fill:#6d96ce; fill-rule:evenodd;"/><path d="M1663.79,1023.45c1.23-.79,4.26-1.73,8.73-2.02,13.13-1.16,35.22-3.18,35.22-3.18,0,0,7.29,27.85,3.32,34.92,0,0-34.2,7.65-33.05,10.54l-14.22-40.27Z" style="fill:#6d96ce; fill-rule:evenodd;"/><path d="M1653.55,1005.41s-1.95,16.38-.94,22.8c1.08,6.35-.51,27.13-13.49,28.07-12.92,.94-4.19-26.05-3.32-32.47,.79-6.28-.22-25.76-.22-25.76l17.97,7.36Z" style="fill:#f9af79; fill-rule:evenodd;"/><path d="M1635.94,1007.72c-.14-5.34-.36-9.67-.36-9.67l17.97,7.36s-.36,3.32-.72,7.5c-7.5,2.16-13.28-.43-16.88-5.2Z" style="fill:#f27458; fill-rule:evenodd;"/><path d="M1656.94,960.09s7,3.46,10.03,11.69c2.96,8.23,1.59,30.16-15.37,36.66-16.96,6.35-25.62-10.39-22.95-24.1,2.67-13.71,9.31-31.25,28.29-24.25Z" style="fill:#f9af79; fill-rule:evenodd;"/><path d="M1626.13,979.29c.58,3.54,2.74,6.21,4.69,5.85,2.02-.29,3.18-3.54,2.6-7.07-.58-3.61-2.67-6.28-4.69-5.92-1.95,.36-3.18,3.54-2.6,7.14Z" style="fill:#f9af79; fill-rule:evenodd;"/><path d="M1611.69,1391.76c1.23-2.89,11.84,6.93,14.36,8.95,2.81,2.31,2.96,4.69,2.81,5.2-.22,1.37-30.09,35.93-38.61,40.41-.79,.51-2.38,.43-2.89,.22-4.47-2.09,4.4-31.32,10.68-36.87,4.04-3.46,8.08-5.27,13.64-17.9Z" style="fill:#0e2952; fill-rule:evenodd;"/><path d="M1654.85,959.09s4.76,24.1,12.56,28c7.79,3.9,5.34,14.87,5.34,14.87,0,0,5.2-25.47-1.3-33.12-6.42-7.58-16.6-9.74-16.6-9.74Z" style="fill:#20386f; fill-rule:evenodd;"/><path d="M1663.14,990.83c-1.8,3.32-1.59,7,.58,8.37,2.17,1.3,5.34-.36,7.22-3.68,1.8-3.25,1.51-7-.58-8.3-2.17-1.3-5.34,.29-7.22,3.61Z" style="fill:#f9af79; fill-rule:evenodd;"/><path d="M988.67,1445.44c-138.4,0-250.54,6.78-250.54,15.15s112.14,15.23,250.54,15.23,250.47-6.86,250.47-15.23-112.21-15.15-250.47-15.15Z" style="fill:#c4d1eb; fill-rule:evenodd;"/><path d="M1095.82,1044.52c-5.84-6.78-5.84-16.38-.14-28.86,5.84,2.96,7.87,7.5,11.11,13.56,34.93-11.25,26.05-46.47,11.55-46.9,35.5-6.71,56.94-2.89,73.17,16.02,5.49,17.39-1.08,58.3-5.2,73.67-4.47,17.82-10.46,27.78-6.35,54.48-18.91,13.56-24.17,27.71-74.25,12.62,1.08-15.37,4.83-19.12,4.69-55.78,1.3-12.12-8.15-26.34-14.58-38.82Z" style="fill:#6d96ce; fill-rule:evenodd;"/><path d="M1105.71,1139.12c34.28,3.25,49.86-4.98,74.25-12.62,31.97,47.41,4.33,71.87,18.11,134.14-22.66,22.8-56.57,26.77-101.75,12.12-1.08-36.8,2.81-90.85,9.38-133.64Z" style="fill:#20386f; fill-rule:evenodd;"/><path d="M1179.6,1273.92c.43,7.36,.57,13.93,1.58,18.47,11.19,29.95,2.17,59.24-.43,142.95,.36,1.01,.79,2.02,1.23,2.96-5.56,2.52-4.91,7.86-8.23,9.09-15.59,5.63-9.09-4.26-11.69-7.07,.72-1.73,1.3-3.39,1.88-5.05-.43-77.14-12.99-115.24-13.06-139.27-.14-3.68-1.08-11.26-1.45-14.72h.15c11.11-.58,21.14-3.03,30.02-7.36Z" style="fill:#f9af79; fill-rule:evenodd;"/><path d="M1189.13,1453.38c-3.46-8.23-1.8-15.88-5.56-15.59-7.29,2.02-6.2,8.3-9.81,9.6-17.61,6.35-7-7.29-13.21-7.72-13.64,5.56-20.49-1.15-22.08,9.24,1.23,2.6,10.25,12.27,41.64,14.07,7.07-2.74,10.1-5.99,9.02-9.6Z" style="fill:#1b2452; fill-rule:evenodd;"/><path d="M1142.8,1281.35c-.87,8.66-1.95,15.22-2.67,20.28,12.7,25.91-.58,59.25-7.14,142.73,.29,1.08,.72,2.09,1.08,3.1-5.7,2.16-5.27,7.58-8.59,8.66-15.8,4.83-8.95-4.77-11.33-7.65,.72-1.73,1.44-3.32,2.02-4.91-1.08-79.52-2.89-127.44-5.49-143.89,.07-7.72-.86-15.73-1.8-23.24,12.19,3.18,23.52,4.76,33.92,4.91Z" style="fill:#f9af79; fill-rule:evenodd;"/><path d="M1143.38,1463.05c-3.1-8.52-3.97-16.16-7.72-16.16-7.36,1.8-6.57,8.08-10.17,9.24-17.97,5.48-6.71-7.58-12.92-8.37-19.19,6.64-32.69,2.6-32.69,12.7,3.97,6.28,22.01,10.18,54.05,11.69,7.22-2.45,10.39-5.48,9.46-9.09Z" style="fill:#1b2452; fill-rule:evenodd;"/><path d="M1106.79,1029.22c34.93-11.25,26.05-46.47,11.55-46.9-14.14-1.73-17.46-.58-38.89-3.03-7.87,8.52-8.23,19.34-1.15,32.4,21.14,1.8,23.23,7.58,28.5,17.53Z" style="fill:#466fb5; fill-rule:evenodd;"/><path d="M1076.34,983.33c-8.81,.36-18.91-.15-30.24-1.37-8.87-7.86-33.05-23.96-72.45-48.42-9.09-13.78-18.33-22.66-30.09-28.29-2.89,1.3-1.23,3.32,8.16,12.27-6.28,13.42-1.16,21.36,15.51,21.65,37.09,34.49,60.76,54.84,71.01,60.98,14,4.69,26.63,7.07,37.95,7.29-3.97-9.24-3.89-17.32,.15-24.1Z" style="fill:#f9af79; fill-rule:evenodd;"/><path d="M1183.79,1081.11c13.49-2.09,17.75-8.15,16.6-27.78-2.6,1.01-6.78,2.31-10.75,3.03-1.08,6.28-2.31,11.76-3.32,15.66-.5,1.8-2.09,7.43-2.52,9.09Z" style="fill:#f9af79; fill-rule:evenodd;"/><path d="M1189.63,1056.36c3.97-.72,7.29-1.59,9.81-2.6,.65-.29,1.23-.58,1.8-.8,1.88-27.64-1.37-45.89-9.74-54.62,4.11,12.99,1.44,39.18-1.88,58.02Z" style="fill:#466fb5; fill-rule:evenodd;"/><path d="M1150.09,967.02c18.26,1.01,27.21-9.09,26.84-30.31,.58-2.09,.94-4.18,1.08-6.06,1.15-11.83-4.84-20.35-17.82-25.26-30.52-10.53-43.59-5.99-39.33,9.6,2.81,6.42,7.21,11.33,13.06,14.58-1.73,3.03-2.24,6.43-1.66,10.18-.08,1.01,.29,2.45,.94,4.26,.94-7.58,3.46-12.41,7.58-14.43,2.67,4.69,1.88,10.83-2.52,18.4-1.8,10.97,2.09,17.32,11.83,19.05Z" style="fill:#20386f; fill-rule:evenodd;"/><path d="M1187.25,963.12c3.82-.72,4.47,5.49,5.55,7.79,2.89-10.97,.36-22.95-4.62-26.99,1.59,.15,3.32,1.01,5.12,2.6,.65-12.41-14-16.02-17.9-16.45-1.95-.14-3.39,.94-4.26,3.32-5.56,16.16-2.6,30.16,8.8,42.14-2.17-3.18-2.96-6.86-2.45-11.18,3.9,12.48,10.9,15.44,21,8.95-8.3,2.52-9.81-1.37-11.26-10.18Z" style="fill:#20386f; fill-rule:evenodd;"/><path d="M1175.13,930.15c-1.37-1.95-3.39-3.54-6.28-3.03-4.62,1.37-5.27,7.5-1.95,9.38,.94,.65,2.02,.94,3.03,1.01,.36-1.37,.79-2.67,1.23-4.11,.86-2.24,2.17-3.32,3.97-3.25Z" style="fill:#6d96ce; fill-rule:evenodd;"/><path d="M1162.35,980.8c-1.52-4.62-1.23-9.74,.72-15.51-3.61,1.45-7.94,2.02-12.99,1.73-9.74-1.73-13.64-8.08-11.83-19.05,4.4-7.58,5.2-13.71,2.52-18.4-4.11,2.02-6.64,6.86-7.58,14.43-.65-1.8-1.01-3.25-.94-4.26-.58-3.75-.08-7.14,1.66-10.18-3.61-2.02-6.64-4.62-9.09-7.79-3.9,4.11-5.2,8.44-3.9,13.06-4.98,7.07-6.35,13.42-4.33,18.9-.29,5.84,.15,9.81,1.45,11.98,1.95,3.54,12.19,1.88,15.8,1.66,1.44,3.82,1.73,8.01,.8,12.56,10.61-1.08,19.7-.87,27.71,.86Z" style="fill:#f9af79; fill-rule:evenodd;"/><path d="M1060.03,1069.63l-.07,7.29,9.88,7.94c-.14-2.38,.29-4.54,1.45-6.28l-11.26-8.95h0Zm24.03,26.55l16.02,12.77,9.52,.22c.22-2.46,.36-5.05,.51-8.08l-10.25,.07-15.3-12.05c0,.43-.07,.94-.22,1.44-.65,2.81-.72,4.62-.29,5.63Z" style="fill:#859ac6; fill-rule:evenodd;"/><path d="M1060.03,1069.63l11.26,8.95c.21-.29,.36-.57,.65-.86,1.66-1.8,4.33,.43,9.6,4.18,2.24,2.02,3.25,4.4,3.03,7.22l15.3,12.05,10.25-.07c.14-3.1,.22-6.5,.29-10.39l-13.35,.29-21-15.8h33.77c-.36-1.8-.94-3.68-1.59-5.56h-48.2Z" style="fill:#9db2d9; fill-rule:evenodd;"/><path d="M1076.05,1075.19l21,15.8,13.35-.29v-7.36c.29-2.67,0-5.34-.58-8.15h-33.77Z" style="fill:#859ac6; fill-rule:evenodd;"/><path d="M1060.03,1069.63h48.2c-.58-1.73-1.37-3.54-2.16-5.34l-41.64-.14-3.83-44.6h33.41c.43-1.3,1.01-2.6,1.66-3.89-.29-.15-.5-.29-.72-.43l-39.83-.29,4.91,54.7Z" style="fill:#b0c2e4; fill-rule:evenodd;"/><path d="M1064.43,1064.15l41.64,.14c-3.03-6.71-7-13.42-10.25-19.77-5.2-6.06-5.77-14.36-1.8-24.97h-33.41l3.83,44.6Z" style="fill:#fff; fill-rule:evenodd;"/><path d="M1084.06,1096.19c-5.34,3.03-9.96,.14-13.64-8.37-1.16-4.11-.65-7.5,1.52-10.1,1.66-1.8,4.33,.43,9.6,4.18,2.6,2.38,3.54,5.27,2.81,8.66-.65,2.81-.72,4.62-.29,5.63Z" style="fill:#f9af79; fill-rule:evenodd;"/><path d="M1164.95,958.94c-.36-6.78,.58-14.07,2.96-21.94,.65,.29,1.37,.43,2.02,.5-2.17,8.15-2.02,15.81,.43,22.8-1.95,2.24-4.4,3.82-7.29,4.98-3.61,1.45-7.94,2.02-12.99,1.73-6.35-1.16-10.24-4.26-11.69-9.38,6.71,8.66,15.59,9.09,26.55,1.3Z" style="fill:#0e2952; fill-rule:evenodd;"/><path d="M707.82,1337.06c-.07,2.89-.22,5.41-.43,7.07,.22-1.66,.36-4.19,.43-7.07Z" style="fill:#ecebe8; fill-rule:evenodd;"/><path d="M798.09,1117.77c2.16-2.82,5.12-4.98,8.15-6.78,.79-.51,1.95-.22,2.38,.65,2.31,4.33,4.4,8.73,7.07,12.84,.87,1.37,2.09,3.18,3.25,3.97,.07,.07,.36,.21,.43,.21,0,0,.07,0,.07-.07,.22-.29,.36-.65,.43-1.01,2.09-6.35-.43-13.13,1.23-19.55,.87-3.32,2.96-6.86,5.41-9.31,2.67-2.67,6.2-3.97,7.86-7.58,.29-.58,.72-.79,1.15-.86h.36c.58,.07,1.15,.43,1.51,.86,3.82,5.49,9.17,11.19,10.17,18.04,.87,6.06-2.38,11.18-5.92,15.8-1.73,2.24-3.32,4.55-4.69,7-.72,1.37-1.95,3.9-.65,5.2,1.37,1.45,3.46-1.15,4.62-2.24,2.24-2.31,4.11-4.98,6.06-7.5,3.18-4.26,8.3-10.68,14.29-9.52,2.67,.51,3.75,3.25,3.9,5.7,.21,3.75-1.66,7.94-3.46,11.11-4.26,7.21-12.92,9.38-18.47,15.15-1.3,1.37-4.76,5.99-2.74,7.94,.65,.58,2.31,.43,3.17,.29,2.02-.29,4.26-1.08,5.84-2.31,6.28-4.91,8.52-13.28,15.08-17.82,2.89-2.02,7.29-3.25,10.75-2.38,2.96,.65,4.26,3.46,4.4,6.21,.14,3.32-1.37,6.78-3.03,9.67-2.02,3.25-4.69,5.92-8.01,7.79-6.57,3.75-14.94,4.26-19.34,11.19-.58,.94-1.23,2.24-.94,3.39,.22,.86,1.44,1.15,2.24,1.3,3.39,.72,7.79-.5,10.83-2.09,3.54-1.95,6.2-5.41,8.95-8.3,2.96-3.03,6.13-5.49,10.25-6.78,2.96-.86,6.64-.72,8.52,2.02,1.73,2.52,1.37,5.99,.65,8.8-.94,3.75-2.96,7.21-5.48,10.1-2.67,3.18-6.93,4.91-10.75,6.21-3.97,1.3-8.16,2.17-12.05,3.61-1.01,.43-1.88,.72-3.03,.72-1.15,.14-2.38,.07-3.61,.36-1.01,.29-.29,1.37,0,2.09,.87,1.73,3.46,1.66,5.12,1.73,1.52,.14,3.1,.58,4.62,.58,1.8,0,3.61-.29,5.34-.58,3.54-.58,7.22-1.16,10.68-.14,3.32,1.01,5.7,4.18,6.28,7.58,1.3,7.07-6.64,11.4-12.55,12.34-3.75,.58-7.22-.29-10.46-2.16-4.11-2.31-7.29-5.63-12.05-6.2-.29,1.88,.36,3.39,2.02,4.76,2.31,2.02,5.56,3.03,8.3,4.04,5.48,2.09,13.49,3.9,16.45,9.52,.36,.72,.29,1.59-.29,2.17-2.6,2.45-5.63,4.47-9.24,4.76-3.03,.15-5.99-1.23-8.44-2.89-4.4-2.89-8.23-7.43-13.13-9.45,.65,1.23,1.81,2.09,3.18,3.17,2.52,1.95,3.75,4.55,4.47,7.58,1.01,4.47-.58,9.38-5.92,9.45-2.89,0-5.77-1.52-8.23-2.96-2.74-1.59-4.98-4.04-6.71-6.78-2.17-3.32-3.32-7.21-3.97-11.11-4.47,8.66-14.14,17.68-23.24,10.18-7.79-6.42,5.05-11.33,10.1-16.38-1.01,.43-1.95,.94-2.89,1.44-2.67,1.3-5.2,2.89-8.01,3.97-5.12,2.09-10.9,1.88-14-3.39-2.67-4.62,2.89-6.71,6.28-7.72,2.74-.79,7.94-1.73,9.89-4.55-6.78,.8-14.36,1.59-20.2-2.31-2.67-1.73-5.84-5.2-6.21-8.51-.22-2.74,2.74-3.75,4.83-3.97,5.85-.5,11.47,1.95,17.32,1.8,1.37,0,2.74-.14,4.11-.43,.5-.14,1.08-.29,1.52-.58,.22,0,.36-.14,.51-.29-.07-.08-.07-.15-.14-.29-.5-.58-1.23-1.01-1.88-1.44-1.52-1.01-3.03-1.59-4.84-1.73-3.39-.36-6.71,0-10.1-.58-3.82-.58-6.86-2.81-9.38-5.63-2.24-2.52-4.4-5.7-4.76-9.09-.29-3.61,1.8-5.92,4.98-7.14,8.8-3.39,14,5.7,20.28,9.89,1.66,1.08,3.68,1.8,5.56,2.38,.79,.22,3.03,1.01,3.82,.36,.43-.29-1.08-2.74-1.37-3.18-1.23-2.02-2.89-3.46-4.98-4.69-5.27-2.96-11.69-3.97-15.8-8.73-2.74-3.1-4.83-8.37-2.24-12.19,2.89-4.04,9.16-2.96,12.7-.65,4.47,3.03,6.78,9.02,12.12,10.39,.43-2.53-.51-4.91-2.24-7.07-2.53-3.39-5.77-6.06-8.73-8.95-2.89-2.74-5.77-5.77-7.29-9.53-1.51-3.89-.58-7.72,1.95-10.89Z" style="fill:#9db2d9; fill-rule:evenodd;"/><path d="M665.03,1240.58c-.87-3.46-.65-7.14-.29-10.61,.07-.94,1.08-1.66,1.95-1.52,4.83,.87,9.67,1.95,14.5,2.38,1.66,.15,3.82,.29,5.12-.07,.07-.07,.36-.14,.51-.22v-.07c-.14-.36-.36-.72-.58-1.01-3.68-5.56-10.54-7.79-14.58-13.06-2.09-2.74-3.54-6.64-3.97-10.03-.5-3.68,.72-7.29-1.08-10.83-.65-1.3,.72-2.45,1.88-2.38,6.64,.43,14.43-.29,20.42,3.18,5.34,3.03,7.36,8.8,8.8,14.43,.72,2.74,1.44,5.41,2.6,8.01,.58,1.37,1.8,3.97,3.61,3.68,2.02-.14,1.37-3.39,1.15-4.91-.51-3.17-1.37-6.35-2.17-9.45-1.37-5.12-3.25-13.13,1.37-17.1,2.09-1.88,4.91-1.01,6.86,.43,3.17,2.17,5.2,6.21,6.57,9.6,3.1,7.86-.58,15.95,.58,23.88,.22,1.88,1.73,7.43,4.4,7.07,1.01-.14,1.8-1.58,2.24-2.31,1.01-1.8,1.8-4.04,1.8-6.06,.07-7.94-5.12-14.87-4.62-22.88,.22-3.54,1.95-7.72,4.76-9.89,2.38-1.88,5.34-1.3,7.58,.36,2.74,1.95,4.55,5.27,5.7,8.44,1.37,3.46,1.8,7.29,1.3,11.04-1.15,7.58-5.99,14.36-3.25,22.16,.36,1.01,.94,2.31,2.02,2.74,.87,.43,1.81-.43,2.45-.87,2.67-2.24,4.47-6.49,5.05-9.81,.72-4.04-.43-8.23-1.01-12.12-.58-4.18-.51-8.3,1.01-12.27,1.15-2.89,3.54-5.63,6.86-5.49,3.1,.22,5.56,2.6,7.36,4.91,2.38,3.03,3.82,6.78,4.55,10.61,.79,4.04-.43,8.44-1.81,12.34-1.44,3.89-3.39,7.65-4.62,11.69-.36,1.01-.58,1.8-1.23,2.74-.72,1.01-1.52,2.02-2.02,3.1-.43,.94,.87,1.08,1.59,1.23,1.95,.43,3.46-1.59,4.54-2.89,1.08-1.08,2.38-2.02,3.32-3.32,1.15-1.37,1.95-2.96,2.89-4.47,1.73-3.1,3.54-6.35,6.49-8.52,2.89-1.95,6.78-1.88,9.81-.29,6.35,3.46,4.83,12.34,1.88,17.54-1.8,3.25-4.62,5.48-8.15,6.93-4.33,1.8-8.95,2.24-12.27,5.55,1.23,1.45,2.89,1.88,5.05,1.45,2.96-.65,5.7-2.45,8.23-4.04,5.05-3.03,11.4-8.23,17.68-7.07,.79,.14,1.44,.79,1.52,1.59,.29,3.61,0,7.15-2.02,10.18-1.73,2.52-4.62,3.97-7.43,4.91-5.05,1.66-10.9,1.81-15.59,4.4,1.37,.29,2.74-.14,4.47-.51,3.03-.79,5.92-.07,8.66,1.23,4.19,1.95,7.07,6.21,3.83,10.39-1.81,2.31-4.76,3.75-7.36,4.77-3.03,1.15-6.35,1.3-9.53,1.01-3.97-.43-7.72-1.88-11.26-3.75,4.04,8.8,5.2,22.01-6.35,24.53-9.81,2.17-5.77-10.97-6.57-18.04-.29,1.01-.5,2.09-.72,3.11-.58,2.96-1.01,5.84-1.81,8.73-1.51,5.34-5.27,9.74-11.33,8.95-5.27-.79-3.46-6.42-2.16-9.67,1.01-2.74,3.54-7.36,2.6-10.61-3.68,5.84-7.65,12.27-14.36,14.5-3.1,.94-7.72,1.3-10.54-.51-2.31-1.51-1.3-4.4-.14-6.28,3.17-4.91,8.66-7.72,12.12-12.41,.87-1.15,1.59-2.31,2.17-3.61,.29-.43,.43-.87,.58-1.45,.07-.14,.07-.43,.07-.58h-.36c-.79,0-1.51,.29-2.31,.51-1.66,.5-3.1,1.37-4.33,2.67-2.38,2.45-4.11,5.34-6.71,7.65-2.81,2.6-6.42,3.61-10.25,3.9-3.32,.14-7.14-.15-10.03-2.02-3.03-1.88-3.61-5.05-2.6-8.23,2.81-9.02,13.21-7.5,20.35-9.81,1.88-.65,3.68-1.73,5.34-2.89,.65-.43,2.67-1.73,2.67-2.74,0-.58-2.81-.86-3.39-.94-2.38-.29-4.48,.08-6.71,1.01-5.63,2.24-10.32,6.71-16.67,7-4.11,.29-9.6-1.3-10.97-5.77-1.44-4.76,3.32-9.02,7.36-10.39,5.12-1.66,11.19,.29,15.66-3.03-1.73-2.02-4.18-2.6-7-2.74-4.18,0-8.3,.87-12.41,1.37-3.9,.51-8.08,1.01-11.98-.15-3.97-1.23-6.35-4.4-7.36-8.23Z" style="fill:#9db2d9; fill-rule:evenodd;"/><path d="M901.42,1144.46c3.32-1.3,7-1.59,10.54-1.66,.94,0,1.73,.86,1.66,1.8-.22,4.83-.65,9.74-.5,14.65,.07,1.66,.22,3.83,.72,5.05,.07,.14,.22,.36,.29,.5,.07,0,.07-.07,.07-.07,.36-.14,.65-.36,.94-.65,5.05-4.33,6.42-11.47,11.11-16.09,2.45-2.45,6.06-4.33,9.45-5.2,3.68-1.01,7.36-.22,10.61-2.45,1.15-.87,2.53,.43,2.6,1.59,.43,6.64,2.09,14.29-.58,20.64-2.31,5.7-7.8,8.37-13.21,10.54-2.6,1.01-5.2,2.16-7.58,3.61-1.37,.72-3.68,2.24-3.25,4.04,.43,1.95,3.54,.86,5.05,.43,3.1-.79,6.13-2.09,9.09-3.32,4.91-1.88,12.63-4.84,17.17-.72,2.02,1.81,1.52,4.76,.43,6.86-1.8,3.39-5.48,5.92-8.73,7.72-7.36,4.04-15.88,1.37-23.67,3.54-1.73,.51-7.14,2.67-6.35,5.34,.22,.94,1.73,1.52,2.53,1.88,1.88,.8,4.18,1.23,6.28,1.08,7.79-.94,14.07-7,22.08-7.5,3.47-.29,7.86,.94,10.39,3.46,2.16,2.09,1.95,5.12,.57,7.58-1.59,2.96-4.69,5.12-7.58,6.71-3.32,1.8-7.07,2.74-10.89,2.6-7.58-.14-14.94-4.04-22.3-.36-1.01,.51-2.24,1.23-2.53,2.38-.29,.86,.65,1.73,1.23,2.31,2.53,2.38,7,3.61,10.32,3.75,4.11,.22,8.08-1.44,11.98-2.45,4.04-1.15,8.08-1.59,12.27-.58,2.96,.72,6.06,2.74,6.28,6.13,.22,3.1-1.88,5.84-3.97,7.86-2.74,2.74-6.28,4.62-9.89,5.85-3.97,1.3-8.52,.65-12.48-.22-4.11-.94-8.01-2.38-12.2-3.1-1.08-.22-1.88-.36-2.89-.94-1.08-.51-2.09-1.16-3.32-1.59-1.01-.29-.94,1.01-1.08,1.8-.14,1.95,2.09,3.18,3.46,4.12,1.3,.94,2.38,2.09,3.68,2.89,1.59,.94,3.25,1.59,4.91,2.23,3.25,1.37,6.78,2.67,9.16,5.41,2.38,2.6,2.81,6.49,1.52,9.67-2.53,6.78-11.55,6.35-17.03,4.18-3.54-1.44-6.06-3.97-7.94-7.29-2.31-4.11-3.39-8.59-7.14-11.47-1.23,1.44-1.37,3.1-.72,5.2,1.01,2.81,3.17,5.34,5.05,7.65,3.68,4.62,9.6,10.24,9.24,16.67-.07,.8-.58,1.52-1.37,1.66-3.46,.8-7.07,.87-10.39-.72-2.67-1.3-4.48-4.04-5.77-6.78-2.24-4.76-3.17-10.53-6.35-14.86-.07,1.44,.43,2.74,1.08,4.4,1.15,2.89,.86,5.84-.07,8.73-1.44,4.47-5.34,7.79-9.89,5.12-2.53-1.51-4.26-4.26-5.63-6.71-1.52-2.89-2.17-6.13-2.24-9.31-.07-3.97,.87-7.94,2.38-11.62-8.3,5.05-21.22,7.94-25.18-3.17-3.39-9.53,10.1-7.15,17.03-8.87-1.01-.15-2.17-.22-3.18-.29-2.96-.22-5.92-.22-8.88-.65-5.48-.87-10.32-4.04-10.25-10.18,.07-5.27,5.85-4.26,9.31-3.39,2.81,.72,7.65,2.6,10.82,1.3-6.2-2.89-13.13-6.06-16.16-12.48-1.37-2.89-2.31-7.43-.87-10.46,1.15-2.45,4.19-1.8,6.13-.87,5.27,2.46,8.8,7.5,13.85,10.39,1.23,.72,2.53,1.3,3.83,1.73,.51,.15,1.01,.29,1.59,.36,.22,0,.43-.07,.58-.07v-.29c-.14-.79-.5-1.51-.79-2.24-.79-1.58-1.88-2.88-3.25-3.97-2.74-2.02-5.84-3.39-8.44-5.63-2.89-2.52-4.4-6.06-5.12-9.67-.58-3.32-.79-7.21,.65-10.25,1.52-3.25,4.55-4.18,7.94-3.61,9.31,1.59,9.02,12.12,12.27,18.91,.87,1.8,2.24,3.46,3.54,4.9,.58,.58,2.09,2.46,3.03,2.31,.58-.07,.51-2.89,.51-3.46,0-2.38-.65-4.47-1.8-6.49-2.96-5.34-8.01-9.45-9.09-15.66-.79-4.11,.15-9.74,4.4-11.62,4.48-2.02,9.31,2.17,11.19,5.99,2.31,4.84,1.15,11.19,5.05,15.15,1.66-1.95,2.02-4.47,1.73-7.29-.43-4.18-1.81-8.15-2.89-12.12-1.08-3.9-2.02-7.94-1.37-11.91,.65-4.11,3.46-6.93,7.22-8.37Z" style="fill:#9db2d9; fill-rule:evenodd;"/><path d="M732.06,1192.52c.51-3.54,2.02-6.86,3.68-10.03,.43-.72,1.59-1.08,2.38-.58,4.11,2.6,8.23,5.34,12.56,7.58,1.44,.72,3.46,1.66,4.83,1.8h.5v-.14c0-.36,0-.72-.14-1.15-1.37-6.5-6.93-11.12-8.73-17.46-.94-3.32-.86-7.43,0-10.82,.94-3.61,3.39-6.5,3.03-10.39-.15-1.45,1.52-2.02,2.6-1.59,6.06,2.89,13.49,5.05,17.82,10.54,3.9,4.76,3.54,10.82,2.81,16.6-.29,2.81-.65,5.63-.51,8.37,.07,1.59,.21,4.33,2.02,4.91,1.88,.5,2.45-2.74,2.81-4.26,.79-3.1,1.15-6.35,1.52-9.6,.65-5.2,1.8-13.35,7.65-15.37,2.53-.94,4.83,.94,6.21,2.96,2.09,3.18,2.52,7.65,2.52,11.4-.07,8.37-6.49,14.5-8.37,22.37-.36,1.8-1.08,7.5,1.59,8.15,.94,.21,2.24-.79,2.89-1.3,1.59-1.3,3.18-3.03,3.97-4.98,2.96-7.29,.72-15.73,4.11-22.95,1.44-3.17,4.69-6.42,8.08-7.5,2.89-.86,5.41,.87,6.93,3.25,1.8,2.81,2.24,6.57,2.16,9.89-.07,3.75-1.01,7.5-2.96,10.75-3.82,6.57-10.82,11.18-11.11,19.41-.07,1.08,0,2.46,.87,3.32,.65,.65,1.88,.29,2.6,0,3.32-1.01,6.49-4.33,8.3-7.21,2.17-3.46,2.67-7.72,3.61-11.62,.94-4.11,2.53-7.86,5.48-11.04,2.09-2.23,5.34-3.89,8.37-2.52,2.74,1.37,4.19,4.47,4.98,7.29,1.08,3.68,1.01,7.72,.29,11.47-.72,4.11-3.54,7.72-6.21,10.75-2.74,3.18-5.92,5.92-8.59,9.24-.72,.87-1.3,1.52-2.24,2.17-1.01,.65-2.09,1.23-2.96,2.02-.72,.8,.36,1.37,1.01,1.8,1.59,1.08,3.82-.22,5.34-.94,1.37-.72,2.89-1.15,4.26-1.88,1.59-.87,2.96-2.09,4.33-3.18,2.74-2.24,5.7-4.62,9.16-5.48,3.39-.8,7.07,.72,9.24,3.39,4.62,5.49,0,13.21-4.69,16.96-2.96,2.38-6.28,3.32-10.1,3.46-4.69,0-9.16-1.3-13.49,.58,.65,1.8,1.95,2.74,4.11,3.17,2.96,.51,6.28-.14,9.24-.72,5.77-.94,13.57-3.46,18.98,0,.65,.43,1.01,1.23,.79,2.02-1.01,3.46-2.6,6.64-5.63,8.66-2.53,1.73-5.77,2.02-8.73,1.88-5.27-.29-10.75-2.31-16.09-1.66,1.23,.79,2.67,.94,4.4,1.16,3.1,.36,5.48,2.09,7.58,4.33,3.18,3.39,4.26,8.44-.29,11.11-2.53,1.51-5.77,1.66-8.59,1.66-3.25-.07-6.42-1.01-9.24-2.53-3.54-1.8-6.5-4.62-9.09-7.72,.51,9.81-3.32,22.44-14.94,20.49-9.96-1.59-1.3-12.27,.51-19.19-.65,.87-1.23,1.8-1.73,2.67-1.66,2.52-3.1,5.12-4.91,7.43-3.46,4.4-8.51,7.07-13.85,4.04-4.55-2.6-.87-7.22,1.52-9.74,2.02-2.09,5.99-5.49,6.35-8.88-5.48,4.04-11.62,8.59-18.69,8.15-3.18-.21-7.65-1.59-9.67-4.33-1.59-2.24,.51-4.55,2.24-5.84,4.76-3.32,10.9-4.04,15.88-7.07,1.15-.72,2.31-1.59,3.32-2.53,.36-.36,.79-.72,1.08-1.15,.14-.14,.22-.36,.29-.5-.07-.07-.22-.14-.29-.22-.79-.21-1.59-.29-2.38-.36-1.8-.07-3.39,.22-5.05,.94-3.1,1.37-5.77,3.46-9.02,4.62-3.61,1.37-7.36,1.01-10.9-.21-3.25-1.01-6.64-2.74-8.73-5.49-2.02-2.89-1.37-6.06,.72-8.66,5.92-7.36,15.01-2.02,22.51-1.59,2.02,.07,4.04-.29,5.99-.72,.79-.14,3.17-.72,3.54-1.59,.22-.5-2.31-1.88-2.74-2.09-2.16-1.16-4.26-1.52-6.71-1.52-6.06,0-12.05,2.45-18.04,.36-3.97-1.37-8.44-4.84-8.08-9.45,.43-4.91,6.42-7.14,10.68-6.93,5.41,.36,10.32,4.4,15.73,2.89-.94-2.38-2.96-3.89-5.56-5.05-3.83-1.59-8.01-2.31-12.05-3.32-3.83-.94-7.87-2.02-11.04-4.55-3.25-2.52-4.33-6.42-3.83-10.39Z" style="fill:#b0c2e4; fill-rule:evenodd;"/><path d="M757.83,1158.75c2.02,8.73,3.82,17.61,6.28,26.27,2.6,8.87,6.35,17.1,11.4,24.89,10.46,15.95,23.81,29.8,34.56,45.61,.43,.58,.36,1.3,.07,1.73,2.02,3.9,3.25,8.37,4.11,12.7,1.51,7.36,1.95,15.01,2.24,22.66,.43,9.24,.29,18.4-.07,27.64-.5,10.9-1.3,21.79-.79,32.69,0,.58,.07,1.23,.07,1.88,.14,2.24-3.32,2.24-3.46,0-.58-10.68,0-21.22,.51-31.89,.51-9.45,.72-18.91,.36-28.36-.29-7.29-.65-14.65-1.88-21.87-1.15-6.64-2.96-14.07-7.94-18.83-.72-.72-.58-1.51-.15-2.16-10.1-13.78-21.65-26.34-31.03-40.63-4.98-7.58-8.51-15.8-11.19-24.53-2.67-8.81-4.4-17.9-6.42-26.84-.51-2.17,2.81-3.17,3.32-.94Z" style="fill:#b0c2e4; fill-rule:evenodd;"/><path d="M814.83,1355.32c1.95-16.96,9.74-32.11,17.82-46.98,8.01-14.58,16.45-29.44,18.98-46.25,.29-2.24,3.68-1.23,3.32,.94-4.91,33.48-32.83,58.52-36.59,92.29-.29,2.24-3.75,2.24-3.54,0Z" style="fill:#b0c2e4; fill-rule:evenodd;"/><path d="M763.45,1275.72c15.01,6.49,29.66,16.53,39.69,29.51,5.49,7.07,8.66,15.15,10.68,23.6,.79-8.8,2.38-17.53,4.11-26.19,3.9-20.28,6.93-40.63,8.88-61.19,.72-8.15,1.3-16.31,1.66-24.46,.14-2.31,3.61-2.31,3.54,0-1.08,22.66-3.68,45.32-7.21,67.69-2.38,15.22-6.42,30.23-7.58,45.6,1.3-8.37,3.32-16.53,5.85-24.54,3.61-11.4,8.51-22.51,14.94-32.62-.07-.43,.07-.87,.43-1.3,.43-.5,.87-1.01,1.3-1.44,1.59-2.38,3.25-4.76,4.98-6.93,.79-1.01,1.88-.72,2.53,.14,2.6-2.02,5.48-3.9,8.59-5.48,7.14-3.75,16.09-6.13,19.56-14.29,.87-2.02,3.9-.29,3.03,1.8-3.46,8.08-11.76,11.04-19.12,14.65-6.5,3.18-12.05,7.22-16.96,12.49-7,10.61-12.19,22.44-16.09,34.49-4.69,14.65-7.36,30.09-7.36,45.46v.22c.22,1.15-.65,1.88-1.66,2.02-.43,1.59-3.25,1.3-3.39-.72-1.3-16.45-3.18-33.84-13.78-47.34-9.74-12.41-23.89-21.87-38.32-28.14-2.02-.86-.29-3.89,1.73-3.03Z" style="fill:#9db2d9; fill-rule:evenodd;"/><path d="M868.01,1158.39c3.17-1.59,6.78-2.31,10.32-2.67,.94-.07,1.8,.72,1.88,1.66,.22,4.91,.29,9.81,.86,14.65,.22,1.59,.58,3.75,1.23,4.98,0,0,.22,.29,.36,.43q0-.07,.07-.07c.29-.22,.58-.5,.79-.8,4.62-4.76,5.27-11.98,9.45-17.03,2.24-2.74,5.7-4.98,8.95-6.21,3.54-1.23,7.29-.86,10.32-3.39,1.15-.94,2.53,.15,2.74,1.37,1.08,6.49,3.46,13.93,1.44,20.63-1.8,5.85-6.93,9.02-12.12,11.69-2.45,1.3-4.98,2.6-7.22,4.33-1.23,.87-3.46,2.6-2.81,4.33,.65,1.88,3.61,.58,5.05,0,3.03-1.15,5.92-2.74,8.73-4.19,4.76-2.45,12.12-6.06,17.03-2.45,2.16,1.59,2.02,4.62,1.08,6.78-1.44,3.61-4.83,6.49-7.94,8.52-6.93,4.76-15.66,2.96-23.16,5.84-1.73,.65-6.86,3.39-5.84,5.92,.36,.94,1.88,1.37,2.67,1.66,2.02,.58,4.33,.86,6.35,.43,7.72-1.73,13.35-8.3,21.22-9.6,3.46-.65,8.01,.21,10.75,2.38,2.38,1.95,2.38,4.98,1.3,7.58-1.3,3.1-4.11,5.56-6.93,7.43-3.1,2.02-6.71,3.32-10.53,3.61-7.58,.58-15.3-2.6-22.23,1.73-1.01,.65-2.09,1.44-2.31,2.6-.22,.94,.79,1.73,1.44,2.24,2.74,2.09,7.29,2.89,10.61,2.74,4.11-.22,7.94-2.24,11.69-3.61,3.97-1.51,7.94-2.38,12.12-1.73,3.1,.43,6.35,2.09,6.86,5.41,.51,3.1-1.3,6.06-3.1,8.3-2.53,2.96-5.84,5.2-9.31,6.71-3.82,1.73-8.44,1.44-12.41,1.01-4.19-.51-8.3-1.58-12.48-1.88-1.08-.14-1.95-.14-2.96-.58-1.15-.5-2.24-1.08-3.46-1.3-1.01-.22-.87,1.01-.87,1.88,0,1.88,2.38,2.96,3.82,3.75,1.3,.79,2.53,1.8,3.97,2.45,1.59,.86,3.39,1.3,5.05,1.8,3.39,1.08,7,2.09,9.67,4.47,2.6,2.38,3.39,6.2,2.45,9.52-1.88,7-10.9,7.43-16.6,5.7-3.68-1.01-6.42-3.32-8.59-6.35-2.74-3.9-4.18-8.23-8.23-10.83-1.08,1.59-1.08,3.25-.14,5.27,1.23,2.74,3.61,5.05,5.7,7.14,4.11,4.18,10.54,9.31,10.75,15.73,.07,.72-.36,1.44-1.15,1.73-3.39,1.15-6.93,1.59-10.39,.29-2.81-1.08-4.91-3.61-6.42-6.13-2.74-4.55-4.18-10.25-7.79-14.22,.07,1.45,.79,2.67,1.59,4.19,1.37,2.82,1.37,5.77,.72,8.8-1.01,4.47-4.54,8.23-9.38,6.06-2.6-1.3-4.62-3.89-6.21-6.2-1.73-2.74-2.74-5.84-3.1-9.02-.5-3.97,.07-8.01,1.15-11.83-7.72,5.92-20.35,9.96-25.33-.72-4.33-9.17,9.38-8.08,16.09-10.46h-3.17c-2.96,.14-5.92,.43-8.88,.21-5.56-.36-10.68-2.96-11.19-9.09-.43-5.27,5.41-4.84,8.95-4.26,2.81,.43,7.87,1.88,10.9,.15-6.5-2.17-13.71-4.69-17.32-10.83-1.59-2.74-3.03-7.15-1.88-10.32,.94-2.53,4.04-2.24,6.06-1.52,5.48,2.02,9.45,6.78,14.79,9.09,1.3,.58,2.6,1.01,3.97,1.3,.51,.15,1.08,.29,1.59,.29,.14,0,.43-.14,.58-.14v-.29c-.22-.72-.65-1.44-1.08-2.17-.94-1.51-2.09-2.74-3.61-3.61-2.89-1.8-6.13-2.89-8.95-4.83-3.1-2.24-4.98-5.56-5.99-9.17-.94-3.18-1.52-7-.36-10.25,1.15-3.32,4.11-4.62,7.5-4.33,9.45,.72,10.18,11.18,14.15,17.61,1.01,1.73,2.45,3.25,3.97,4.62,.58,.51,2.31,2.24,3.25,2.02,.51-.15,.22-3.03,.15-3.46-.22-2.46-1.08-4.47-2.45-6.42-3.46-4.98-8.87-8.59-10.61-14.65-1.08-4.04-.72-9.67,3.32-11.98,4.26-2.45,9.52,1.23,11.69,4.91,2.74,4.62,2.24,10.97,6.49,14.58,1.52-2.17,1.59-4.69,1.01-7.5-.79-4.04-2.6-7.87-4.04-11.76-1.37-3.68-2.74-7.72-2.53-11.69,.29-4.12,2.89-7.22,6.42-9.02Z" style="fill:#e0e8f5; fill-rule:evenodd;"/><polygon points="775.21 1458 850.55 1458 875.16 1360.58 752.27 1360.58 775.21 1458" style="fill:#b0c2e4; fill-rule:evenodd;"/><rect x="745.7" y="1347.88" width="137.68" height="12.7" style="fill:#9db2d9;"/><polygon points="813.75 1360.58 875.16 1360.58 850.55 1458 813.75 1458 813.75 1360.58" style="fill:#9db2d9; fill-rule:evenodd;"/><rect x="813.75" y="1347.88" width="69.63" height="12.7" style="fill:#859ac6;"/><polygon points="775.21 1459.44 850.55 1459.44 875.16 1446.31 752.27 1446.31 775.21 1459.44" style="fill:#9db2d9; fill-rule:evenodd;"/><polygon points="813.75 1446.31 875.16 1446.31 850.55 1459.44 813.75 1459.44 813.75 1446.31" style="fill:#859ac6; fill-rule:evenodd;"/><polygon points="730.04 124.05 846.44 216.41 796.79 252.28 730.04 124.05" style="fill:#c4d1eb; fill-rule:evenodd;"/><polygon points="871.4 199.96 733.94 125.53 912.75 191.7 871.4 199.96" style="fill:#c4d1eb; fill-rule:evenodd;"/><polygon points="871.4 199.96 850.41 259.82 846.44 216.41 730.04 124.05 733.94 125.53 871.4 199.96" style="fill:#9db2d9; fill-rule:evenodd;"/><polygon points="850.41 259.82 824.43 232.32 846.44 216.41 850.41 259.82" style="fill:#859ac6; fill-rule:evenodd;"/><path d="M881.29,236c-3.18-1.84-5.63,2.89-2.74,4.51,1.44,.9,2.96,1.88,4.4,2.81,3.39,1.95,5.56-2.92,2.89-4.44-1.52-.97-3.03-1.95-4.55-2.89h0Zm-151.54,274.82c.87,3.32,6.06,2.13,5.2-1.3-.43-1.7-.87-3.39-1.23-5.09-.94-3.61-5.99-2.06-5.2,1.12,.36,1.77,.79,3.5,1.23,5.27h0Zm-3.46-21.43c0,3.14,5.34,3.54,5.34-.29-.15-1.73-.15-3.43-.15-5.16,0-3.5-5.34-3.5-5.34,0,0,1.8,.07,3.61,.14,5.45h0Zm1.37-21.76c-.51,3.57,4.33,4.33,5.2,.98,.29-1.66,.65-3.36,1.08-4.98,.94-3.5-4.26-4.65-5.12-1.37-.43,1.77-.87,3.57-1.15,5.38h0Zm6.93-20.78c-1.59,2.71,2.81,5.74,4.69,2.38,.72-1.44,1.59-3.21,2.45-4.54,1.73-3.1-2.89-5.63-4.62-2.67-.87,1.48-1.8,3.25-2.53,4.84h0Zm11.98-18.22c-2.31,2.78,1.88,6.06,4.04,3.46,1.08-1.3,2.24-2.6,3.46-3.82,2.38-2.38-1.3-6.24-3.82-3.68-1.23,1.34-2.45,2.63-3.68,4.04h0Zm15.8-14.94c-2.89,2.38,.72,6.28,3.25,4.19,1.3-1.05,2.74-2.09,4.11-3.07,2.96-2.06-.22-6.35-3.03-4.37-1.44,1.05-2.96,2.13-4.33,3.25h0Zm18.18-11.76c-3.25,1.84-.36,6.31,2.45,4.69,1.52-.83,3.1-1.62,4.62-2.38,3.39-1.95,.36-6.31-2.31-4.76-1.59,.79-3.17,1.62-4.76,2.45h0Zm19.63-8.87c-3.32,1.26-1.37,6.2,1.88,4.98l4.91-1.77c3.46-1.3,1.37-6.17-1.73-5.02-1.66,.58-3.39,1.19-5.05,1.81h0Zm20.57-6.35c-3.39,.87-2.09,6.03,1.23,5.16l5.12-1.15c3.61-.9,2.09-5.99-1.08-5.2l-5.27,1.19h0Zm21.14-3.93c-3.46,.4-2.81,5.7,.65,5.23l5.2-.61c3.61-.43,2.81-5.7-.51-5.27-1.8,.22-3.54,.4-5.34,.65h0Zm21.36-1.73c-3.54,.43-3.25,5.27,.29,5.27,1.8-.07,3.54-.18,5.34-.32,3.83-.47,2.74-5.7-.36-5.3l-5.27,.36h0Zm20.93-1.91c-3.39,.43-2.81,5.7,.72,5.27,1.73-.22,3.54-.47,5.27-.76,3.32-.4,2.82-5.7-.79-5.23-1.73,.25-3.46,.51-5.2,.72h0Zm20.57-3.71c-3.39,.83-2.09,5.99,1.3,5.16,1.73-.43,3.46-.87,5.27-1.37,3.1-.79,2.09-5.99-1.52-5.12-1.66,.51-3.39,.94-5.05,1.34h0Zm19.7-6.53c-3.1,1.34-1.15,6.28,2.16,4.84,1.66-.76,3.32-1.59,4.98-2.42,3.1-1.8,.36-6.35-2.6-4.65-1.37,.79-3.1,1.55-4.54,2.24h0Zm16.81-11.04c-2.45,2.45,1.3,6.24,3.75,3.72,1.37-1.34,2.67-2.71,3.82-4.22,2.02-2.42-1.8-6.13-4.26-3.17-1.01,1.3-2.16,2.53-3.32,3.68h0Zm9.45-16.96c-.79,3.14,4.26,4.76,5.2,1.08,.36-1.91,.65-3.72,.72-5.66,0-3.82-5.27-3.43-5.27-.25-.14,1.66-.29,3.21-.65,4.84h0Zm-1.15-19.7c.79,3.18,5.99,2.13,5.05-1.48-.5-1.77-1.08-3.5-1.66-5.23-1.23-3.28-6.21-1.41-4.98,1.84,.58,1.59,1.08,3.21,1.59,4.87h0Zm-8.3-18.8c1.73,2.96,6.42,.43,4.62-2.67-.72-1.48-1.95-3.25-2.81-4.65-1.59-2.67-6.42-.47-4.47,2.92,.79,1.15,2.09,3.18,2.67,4.4h0Zm-11.91-17.07c2.31,2.78,6.35-.72,4.18-3.35-1.15-1.37-2.31-2.74-3.46-4.11-2.16-2.6-6.35,.68-4.04,3.46,1.15,1.3,2.31,2.63,3.32,4h0Zm-14-15.48c2.45,2.42,6.21-1.3,3.68-3.79-1.23-1.23-2.53-2.6-3.82-3.75-2.31-2.31-6.28,1.26-3.61,3.9,1.23,1.19,2.45,2.38,3.75,3.64h0Zm-15.59-14.04c2.67,2.17,6.06-1.88,3.32-4.15l-4.19-3.36c-2.52-2.09-6.13,1.8-3.25,4.19,1.37,1.01,2.81,2.2,4.11,3.32Z" style="fill:#859ac6; fill-rule:evenodd;"/></svg>