<?xml version="1.0" encoding="UTF-8"?><svg id="a" xmlns="http://www.w3.org/2000/svg" viewBox="0 0 2169.02 1468.82"><path d="M2080.32,248.8l16.76,9.76c5.69,3.32,7.59,10.63,4.27,16.29l-3.63,6.41c-4.43,7.51-2.53,10.91-1.11,12.14,3.72,3.36,7.12,7,10.68,10.59,1.02,1.07,4.19,4.7,12.8-.24l5.85-3.44c5.62-3.28,13.05-1.34,16.29,4.31l9.72,16.84c3.32,5.65,1.43,13-4.27,16.29l-5.85,3.4c-7.91,4.63-7.75,7.04-6.72,10.44,1.34,4.63,2.92,9.29,3.87,14.15,.95,4.27,.48,7.35,11.38,7.35h6.72c6.56,0,11.94,5.34,11.94,11.9v19.49c0,6.56-5.38,11.9-11.94,11.9h-6.72c-10.91,0-10.44,3.08-11.38,7.35-.95,4.86-2.53,9.53-3.87,14.15-1.03,3.44-1.19,5.81,6.72,10.48l5.85,3.36c5.69,3.32,7.59,10.63,4.27,16.33l-9.72,16.8c-3.24,5.65-10.67,7.59-16.29,4.31l-5.85-3.4c-8.62-4.98-11.78-1.35-12.8-.28-3.56,3.64-6.96,7.24-10.68,10.59-1.42,1.23-3.32,4.63,1.11,12.14l3.63,6.4c3.32,5.66,1.43,13.01-4.27,16.29l-16.76,9.76c-5.69,3.32-13.05,1.35-16.29-4.31l-3.8-6.37c-4.43-7.63-8.77-7.31-10.59-6.72-5.38,1.7-10.36,2.77-15.89,4.23-1.98,.51-5.46,1.98-5.46,11.11v6.8c0,6.56-5.38,11.94-11.94,11.94h-19.45c-6.56,0-11.94-5.38-11.94-11.94v-6.8c0-9.13-3.48-10.6-5.45-11.11-5.54-1.46-10.52-2.53-15.89-4.23-1.74-.59-6.17-.91-10.6,6.72l-3.71,6.37c-3.24,5.65-10.67,7.63-16.36,4.31l-16.76-9.76c-5.69-3.28-7.59-10.63-4.27-16.29l3.72-6.4c4.35-7.51,2.45-10.91,1.02-12.14-3.63-3.36-7.11-6.96-10.59-10.59-1.11-1.07-4.27-4.7-12.81,.28l-5.85,3.4c-5.69,3.28-13.05,1.35-16.29-4.31l-9.8-16.8c-3.32-5.69-1.42-13.01,4.27-16.33l5.85-3.36c7.99-4.66,7.75-7.04,6.72-10.48-1.35-4.62-2.93-9.29-3.88-14.15-.95-4.27-.47-7.35-11.38-7.35h-6.72c-6.57,0-11.94-5.34-11.94-11.9v-19.49c0-6.56,5.38-11.9,11.94-11.9h6.72c10.91,0,10.44-3.08,11.38-7.35,.95-4.86,2.53-9.53,3.88-14.15,1.03-3.4,1.27-5.81-6.72-10.44l-5.85-3.4c-5.69-3.28-7.59-10.63-4.27-16.29l9.8-16.84c3.24-5.65,10.6-7.59,16.29-4.31l5.85,3.44c8.54,4.94,11.7,1.3,12.81,.24,3.48-3.6,6.96-7.23,10.59-10.59,1.43-1.22,3.32-4.63-1.02-12.14l-3.72-6.41c-3.32-5.65-1.42-12.97,4.27-16.29l16.76-9.76c5.69-3.32,13.12-1.34,16.36,4.31l3.71,6.37c4.43,7.63,8.85,7.35,10.6,6.76,5.38-1.7,10.36-2.81,15.89-4.27,1.97-.51,5.45-1.98,5.45-11.07v-6.84c0-6.56,5.38-11.9,11.94-11.9h19.45c6.56,0,11.94,5.34,11.94,11.9v6.84c0,9.09,3.48,10.55,5.46,11.07,5.53,1.46,10.52,2.57,15.89,4.27,1.82,.59,6.16,.87,10.59-6.76l3.8-6.37c3.24-5.65,10.6-7.63,16.29-4.31h0Zm-73.68,120.25c-14.16,0-25.62,11.5-25.62,25.65s11.46,25.7,25.62,25.7,25.69-11.5,25.69-25.7-11.46-25.65-25.69-25.65h0Zm80.48,25.65c0-3-2.45-5.45-5.53-5.45s-5.46,2.45-5.46,5.45c0,19.21-7.83,36.61-20.32,49.18-12.65,12.57-29.96,20.36-49.17,20.36-3.01,0-5.54,2.45-5.54,5.49s2.53,5.45,5.54,5.45c22.22,0,42.38-8.97,56.92-23.56,14.55-14.55,23.56-34.71,23.56-56.92h0Zm-159.86-12.93c-.48,2.96,1.58,5.77,4.5,6.25,3.01,.47,5.77-1.54,6.25-4.55,2.37-14.55,9.33-27.59,19.21-37.63,9.96-10.04,23-17.08,37.55-19.61,2.93-.51,4.9-3.32,4.43-6.33-.47-2.96-3.32-5.02-6.33-4.46-16.84,2.88-31.94,11.03-43.41,22.65-11.54,11.66-19.53,26.76-22.21,43.68h0Zm79.38-82.42c-52.66,0-95.35,42.69-95.35,95.35s42.69,95.39,95.35,95.39,95.34-42.69,95.34-95.39-42.69-95.35-95.34-95.35Z" style="fill:#c4d1eb; fill-rule:evenodd;"/><path d="M374.71,742.5c20.36,0,36.8-16.52,36.8-36.84s-16.44-36.84-36.8-36.84-36.8,16.48-36.8,36.84,16.48,36.84,36.8,36.84h0Zm-55.03,21.9h0Zm30.87-151.68h0Zm82.22,33.05h0Zm-1.7,114.99c-5.18,5.38-11.11,9.96-17.63,13.6l.99,18.74-15.53,5.46-10.99-15.18-4.27,.63h-17.99l-10.2,15.73-13.91-3.96-.48-.24-1.42-.47,.04-18.82-3.12-1.58-15.22-10.99-1.66,.71-15.81,6.01c-3.72-4.03-7.08-8.38-10.08-13.05l11.03-15.14c-3.4-6.53-5.93-13.56-7.43-20.99l-18.07-4.82-.47-16.48,17.87-5.77c1.07-7.51,3.2-14.67,6.28-21.35l-11.82-14.55c2.73-4.78,5.85-9.33,9.33-13.6l17.87,5.85,17.63-13.56-1.03-18.74c4.94-2.25,10.16-4.11,15.57-5.49l10.95,15.18,22.25-.6,10.2-15.77,15.81,4.7v18.74c6.68,3.32,12.89,7.59,18.3,12.61l4.7-1.78,12.81-4.94c3.71,4.03,7.08,8.42,10.04,13.08l-11.03,15.14c3.44,6.48,5.93,13.52,7.43,20.95l18.1,4.82,.44,16.53-17.83,5.73c-1.11,7.51-3.24,14.71-6.28,21.35l11.82,14.55c-2.77,4.82-5.89,9.33-9.37,13.6l-17.83-5.85Z" style="fill:#b0c2e4; fill-rule:evenodd;"/><path d="M323.36,749.14c.44,0,.87-.16,1.23-.47,.83-.71,.95-1.9,.24-2.73-9.37-11.26-14.55-25.58-14.55-40.28,0-7.08,1.15-13.95,3.44-20.56,.35-1.03-.2-2.14-1.19-2.49-1.03-.32-2.14,.2-2.49,1.23-2.41,7-3.64,14.35-3.64,21.82,0,15.57,5.49,30.79,15.46,42.77,.4,.48,.95,.71,1.5,.71Z" style="fill:#fff; fill-rule:evenodd;"/><path d="M328.81,660.23c.47,0,.95-.16,1.31-.51,6.32-5.93,13.64-10.44,21.7-13.36,1.03-.4,1.54-1.5,1.19-2.53-.36-.99-1.46-1.5-2.49-1.15-8.58,3.12-16.33,7.91-23.05,14.23-.79,.71-.83,1.94-.08,2.73,.39,.4,.87,.59,1.42,.59Z" style="fill:#fff; fill-rule:evenodd;"/><path d="M389.33,644.54c.87,0,1.62-.59,1.86-1.46,.28-1.03-.36-2.1-1.39-2.37-5.38-1.35-10.87-2.02-16.44-2.02-1.07,0-1.94,.87-1.94,1.94s.87,1.94,1.94,1.94c5.22,0,10.44,.67,15.46,1.94,.2,.04,.32,.04,.51,.04Z" style="fill:#fff; fill-rule:evenodd;"/><path d="M1069.29,1227.21c20.36,0,36.84-16.44,36.84-36.76s-16.49-36.84-36.84-36.84-36.8,16.53-36.8,36.84,16.49,36.76,36.8,36.76h0Zm-55.03,21.9h0Zm30.87-151.64h0Zm82.26,33.13h0Zm-1.74,114.95c-5.13,5.38-11.14,9.96-17.63,13.6l1.03,18.66-15.58,5.54-10.99-15.18-4.27,.63h-17.95l-10.2,15.73-13.91-3.95-.47-.24-1.46-.47,.04-18.82-3.08-1.58-15.22-10.99-1.7,.63-15.81,6.09c-3.71-4.03-7.08-8.38-10.04-13.13l11.03-15.02c-3.44-6.56-5.97-13.6-7.43-21.03l-18.11-4.82-.43-16.53,17.83-5.69c1.07-7.59,3.24-14.71,6.29-21.35l-11.82-14.55c2.73-4.9,5.89-9.41,9.37-13.6l17.83,5.77,17.63-13.52-.99-18.74c4.94-2.29,10.16-4.11,15.54-5.54l10.99,15.18,22.26-.55,10.2-15.81,15.81,4.74v18.74c6.64,3.32,12.8,7.59,18.34,12.57l4.66-1.74,12.73-4.98c3.79,4.03,7.11,8.46,10.12,13.12l-11.07,15.1c3.48,6.49,6.01,13.6,7.43,21.03l18.11,4.74,.4,16.6-17.71,5.69c-1.11,7.51-3.32,14.71-6.33,21.35l11.78,14.55c-2.77,4.82-5.85,9.33-9.41,13.6l-17.79-5.85Z" style="fill:#b0c2e4; fill-rule:evenodd;"/><path d="M1017.94,1233.94c.43,0,.87-.16,1.27-.47,.83-.71,.91-1.9,.24-2.77-9.37-11.22-14.55-25.54-14.55-40.24,0-7.03,1.15-13.99,3.4-20.63,.36-.95-.16-2.06-1.19-2.38-1.03-.4-2.13,.16-2.45,1.11-2.41,7.04-3.64,14.39-3.64,21.9,0,15.58,5.49,30.76,15.42,42.77,.39,.48,.95,.71,1.5,.71Z" style="fill:#fff; fill-rule:evenodd;"/><path d="M1023.4,1144.99c.47,0,.95-.16,1.34-.47,6.28-5.93,13.6-10.44,21.7-13.44,1.03-.32,1.5-1.42,1.14-2.45-.35-1.03-1.46-1.5-2.45-1.18-8.62,3.16-16.36,7.91-23.09,14.23-.75,.71-.79,1.97-.08,2.77,.4,.4,.91,.55,1.43,.55Z" style="fill:#fff; fill-rule:evenodd;"/><path d="M1083.92,1129.34c.87,0,1.66-.63,1.9-1.43,.24-1.1-.4-2.13-1.42-2.37-5.34-1.43-10.87-2.06-16.4-2.06-1.11,0-1.98,.87-1.98,1.9,0,1.11,.87,1.98,1.98,1.98,5.21,0,10.44,.63,15.46,1.9,.16,.08,.32,.08,.47,.08Z" style="fill:#fff; fill-rule:evenodd;"/><path d="M862,293.75c38.82,0,70.25-31.47,70.25-70.25s-31.43-70.21-70.25-70.21-70.21,31.43-70.21,70.21,31.43,70.25,70.21,70.25h0Zm-104.95,41.74h0Zm58.86-289.28h0Zm156.86,63.09h0Zm-3.24,219.43c-9.88,10.08-21.23,18.82-33.64,25.85l1.9,35.69-29.65,10.52-20.99-28.98-8.1,1.15h-34.27l-19.45,30-26.52-7.51-.91-.36-2.73-1.07v-35.74l-5.89-3.12-29.05-20.95-3.16,1.27-30.16,11.62c-7.12-7.75-13.52-16.09-19.21-24.98l21.03-28.86c-6.48-12.45-11.3-25.85-14.19-40l-34.47-9.21-.83-31.47,34-11.03c2.06-14.31,6.17-27.95,12.02-40.68l-22.53-27.71c5.22-9.21,11.19-17.87,17.87-25.97l33.96,11.07,33.64-25.85-1.93-35.65c9.49-4.35,19.41-7.87,29.69-10.56l20.99,28.98,42.38-1.11,19.45-30.04,30.2,8.94-.04,35.77c12.77,6.32,24.51,14.43,34.94,24.03l8.94-3.48,24.39-9.37c7.11,7.71,13.52,16.05,19.17,24.94l-20.99,28.86c6.48,12.41,11.31,25.85,14.15,40.04l34.51,9.17,.83,31.47-33.96,11.03c-2.1,14.27-6.21,27.95-12.06,40.72l22.53,27.71c-5.22,9.17-11.19,17.83-17.83,25.93l-34-11.07Z" style="fill:#c4d1eb; fill-rule:evenodd;"/><path d="M764.04,306.44c.83,0,1.66-.28,2.37-.83,1.54-1.31,1.78-3.64,.47-5.26-17.91-21.5-27.75-48.78-27.75-76.85,0-13.44,2.18-26.6,6.52-39.17,.67-1.98-.36-4.03-2.33-4.7-1.9-.67-4.03,.32-4.71,2.29-4.58,13.36-6.88,27.31-6.88,41.59,0,29.77,10.44,58.74,29.45,81.63,.71,.87,1.78,1.31,2.85,1.31Z" style="fill:#fff; fill-rule:evenodd;"/><path d="M774.44,136.89c.91,0,1.82-.32,2.53-.99,12.06-11.3,25.97-19.92,41.43-25.54,1.94-.67,2.93-2.81,2.21-4.71-.71-1.94-2.81-2.92-4.74-2.25-16.4,5.97-31.19,15.06-43.96,27.08-1.46,1.42-1.58,3.76-.16,5.26,.71,.75,1.7,1.15,2.69,1.15Z" style="fill:#fff; fill-rule:evenodd;"/><path d="M889.87,106.97c1.66,0,3.16-1.11,3.6-2.81,.51-1.98-.71-3.99-2.69-4.47-10.2-2.57-20.75-3.91-31.31-3.91-2.09,0-3.71,1.66-3.71,3.71s1.62,3.68,3.71,3.68c9.96,0,19.88,1.26,29.49,3.68,.32,.08,.63,.12,.91,.12Z" style="fill:#fff; fill-rule:evenodd;"/><polygon points="1074.99 0 1190.81 91.87 1141.4 127.56 1074.99 0" style="fill:#c4d1eb; fill-rule:evenodd;"/><polygon points="1215.64 75.54 1078.94 1.46 1256.75 67.28 1215.64 75.54" style="fill:#c4d1eb; fill-rule:evenodd;"/><polygon points="1215.64 75.54 1194.68 135.04 1190.81 91.87 1074.99 0 1078.94 1.46 1215.64 75.54" style="fill:#9db2d9; fill-rule:evenodd;"/><polygon points="1194.68 135.04 1168.91 107.68 1190.81 91.87 1194.68 135.04" style="fill:#859ac6; fill-rule:evenodd;"/><path d="M1225.52,111.35c-3.24-1.82-5.69,2.89-2.85,4.47,1.5,.91,3,1.86,4.43,2.81,3.32,1.94,5.53-2.85,2.85-4.39-1.43-.99-3.01-1.94-4.43-2.89h0Zm-150.73,273.35c.79,3.36,5.97,2.13,5.1-1.31-.47-1.66-.83-3.32-1.22-5.02-.87-3.6-5.93-2.06-5.14,1.07,.4,1.78,.79,3.52,1.26,5.26h0Zm-3.48-21.31c0,3.12,5.26,3.56,5.26-.28-.08-1.7-.16-3.4-.16-5.14,0-3.52-5.26-3.48-5.26,0,0,1.78,.04,3.6,.16,5.41h0Zm1.35-21.66c-.47,3.56,4.31,4.31,5.14,.99,.32-1.66,.71-3.32,1.14-4.98,.87-3.48-4.31-4.63-5.1-1.35-.47,1.74-.87,3.56-1.18,5.34h0Zm6.84-20.63c-1.54,2.69,2.85,5.69,4.74,2.33,.71-1.42,1.54-3.16,2.37-4.5,1.78-3.09-2.85-5.61-4.55-2.65-.91,1.46-1.78,3.24-2.57,4.82h0Zm11.97-18.14c-2.29,2.77,1.86,6.05,4,3.44,1.1-1.27,2.25-2.53,3.44-3.79,2.38-2.37-1.26-6.21-3.8-3.68-1.26,1.31-2.45,2.65-3.64,4.03h0Zm15.7-14.86c-2.93,2.37,.71,6.24,3.24,4.19,1.26-1.07,2.68-2.1,4.11-3.08,2.85-2.06-.24-6.29-3.01-4.31-1.5,1.03-2.93,2.1-4.35,3.2h0Zm18.11-11.7c-3.16,1.82-.4,6.28,2.45,4.66,1.5-.83,3.08-1.58,4.66-2.37,3.32-1.9,.32-6.24-2.37-4.74-1.58,.83-3.16,1.62-4.74,2.45h0Zm19.53-8.82c-3.24,1.23-1.43,6.17,1.82,4.94l4.91-1.74c3.48-1.31,1.42-6.13-1.74-5.02-1.58,.59-3.32,1.18-4.98,1.82h0Zm20.47-6.28c-3.48,.83-2.13,5.97,1.27,5.14l5.06-1.19c3.56-.91,2.06-5.97-1.1-5.18l-5.22,1.22h0Zm21.03-3.95c-3.48,.4-2.85,5.65,.63,5.22l5.21-.59c3.56-.43,2.77-5.69-.55-5.26-1.82,.2-3.56,.4-5.3,.63h0Zm21.19-1.74c-3.48,.43-3.16,5.3,.32,5.3,1.74-.12,3.48-.2,5.29-.36,3.71-.47,2.77-5.65-.4-5.26l-5.21,.32h0Zm20.87-1.86c-3.48,.39-2.85,5.65,.63,5.22,1.74-.24,3.55-.47,5.3-.71,3.24-.43,2.77-5.69-.79-5.26-1.66,.28-3.48,.51-5.13,.75h0Zm20.39-3.72c-3.32,.83-2.05,5.97,1.26,5.14,1.82-.43,3.56-.87,5.22-1.38,3.16-.79,2.21-5.97-1.43-5.06-1.66,.47-3.4,.91-5.06,1.3h0Zm19.61-6.52c-3.08,1.34-1.18,6.24,2.21,4.82,1.58-.75,3.24-1.54,4.91-2.41,3.08-1.78,.32-6.28-2.53-4.62-1.43,.79-3.16,1.58-4.59,2.21h0Zm16.76-10.95c-2.45,2.41,1.26,6.21,3.8,3.71,1.26-1.34,2.53-2.73,3.71-4.23,1.98-2.41-1.82-6.09-4.19-3.16-1.11,1.31-2.21,2.53-3.32,3.68h0Zm9.33-16.84c-.71,3.08,4.27,4.71,5.21,1.03,.32-1.9,.63-3.72,.71-5.61,0-3.83-5.3-3.4-5.3-.28,0,1.66-.32,3.2-.63,4.86h0Zm-1.11-19.64c.79,3.16,5.93,2.13,5.06-1.46-.47-1.74-1.1-3.48-1.74-5.18-1.19-3.32-6.17-1.42-4.9,1.82,.63,1.58,1.11,3.2,1.58,4.82h0Zm-8.22-18.7c1.74,2.96,6.32,.43,4.59-2.65-.79-1.46-1.9-3.2-2.85-4.63-1.58-2.69-6.33-.43-4.43,2.89,.79,1.18,2.05,3.2,2.69,4.39h0Zm-11.86-16.96c2.29,2.73,6.32-.71,4.11-3.32-1.11-1.38-2.21-2.77-3.4-4.11-2.13-2.57-6.33,.67-4.03,3.44,1.11,1.31,2.29,2.65,3.32,3.99h0Zm-13.92-15.42c2.37,2.45,6.16-1.27,3.63-3.76-1.18-1.23-2.53-2.57-3.79-3.71-2.37-2.33-6.24,1.23-3.63,3.87,1.27,1.19,2.53,2.37,3.79,3.6h0Zm-15.5-13.96c2.61,2.17,6.01-1.82,3.32-4.11l-4.19-3.32c-2.45-2.1-6.08,1.78-3.24,4.15,1.42,1.03,2.77,2.21,4.11,3.28Z" style="fill:#859ac6; fill-rule:evenodd;"/><polygon points="444.32 114.56 303.71 157.13 336.36 208.12 444.32 114.56" style="fill:#c4d1eb; fill-rule:evenodd;"/><polygon points="286.75 132.98 440.13 114.48 251.77 110.33 286.75 132.98" style="fill:#c4d1eb; fill-rule:evenodd;"/><polygon points="286.75 132.98 284.34 195.6 303.71 157.13 444.32 114.56 440.13 114.48 286.75 132.98" style="fill:#9db2d9; fill-rule:evenodd;"/><polygon points="284.34 195.6 318.18 179.74 303.71 157.13 284.34 195.6" style="fill:#859ac6; fill-rule:evenodd;"/><path d="M249.99,187.65c4.47-.12,4.07-6.6-.08-6.52l-6.52,.12c-4.43,.12-4.07,6.64,.12,6.52l6.48-.12h0ZM3.56,424.55c-2.85-.28-4.63,3.08-2.85,5.26,.43,.6,1.34,1.15,2.25,1.19l4.19,.39c4.19,.4,4.9-6.09,.55-6.48l-4.15-.35h0Zm23.52,1.62c-3.83-.35-4.98,6.05-.28,6.52l6.6,.2c4.7-.16,4.03-6.64,.12-6.52l-6.45-.2h0Zm25.74,0c-4.07,.12-4.11,6.64,.35,6.52l-.35-6.52h0Zm25.34-3.08c-3.99,1.07-3.04,7.04,1.42,6.33,2.21-.47,4.39-1.03,6.56-1.62,4.07-1.31,2.29-7.39-1.86-6.24-2.02,.59-4.07,1.07-6.13,1.54h0Zm23.05-9.01c-3.64,2.49,.2,7.79,3.63,5.45,1.98-1.34,3.79-2.77,5.54-4.35,3.2-3.2-1.54-7.63-4.43-4.74-1.5,1.34-3.09,2.53-4.74,3.64h0Zm14.03-18.54c-1.03,4.59,5.45,5.57,6.28,1.74,.67-2.29,1.11-4.5,1.42-6.84,.43-4.46-6.09-4.86-6.48-.79-.24,2.02-.67,3.95-1.22,5.89h0Zm.55-24.39c.63,4.03,7.12,3.28,6.44-1.14-.39-2.18-.79-4.43-1.3-6.56-1.23-4.43-7.43-2.41-6.37,1.46,.51,2.06,.91,4.19,1.22,6.24h0Zm-6.68-24.63c1.27,3.88,7.55,2.14,6.16-2.17-.71-2.06-1.46-4.15-2.25-6.17-1.98-4.39-7.67-1.19-6.13,2.29,.79,1.98,1.5,4.03,2.21,6.05h0Zm-9.37-24.15c1.86,4.15,7.67,1.18,6.01-2.45l-2.49-6.05c-1.86-4.15-7.71-1.19-6.01,2.49,.87,1.98,1.66,4.03,2.49,6.01h0Zm-9.88-24.19c1.94,4.31,7.63,1.15,6.05-2.37l-2.29-6.01c-1.86-4.11-7.39-1.78-6.13,2.21l2.37,6.17h0Zm-8.26-25.22c1.1,3.99,7.03,3,6.36-1.42-.47-2.09-.87-4.11-1.18-6.17-.63-4.27-7.12-3.32-6.44,.95,.32,2.25,.75,4.43,1.27,6.64h0Zm-.67-27.23c-.95,4.15,5.42,5.57,6.37,1.38,.43-1.98,.99-3.95,1.66-5.89,1.42-4.07-4.74-6.17-6.13-2.17-.79,2.17-1.42,4.39-1.9,6.68h0Zm12.37-24.51c-2.85,3.32,2.13,7.55,4.9,4.35,1.35-1.54,2.77-3.04,4.27-4.43,3.28-3.28-1.54-7.59-4.35-4.82-1.7,1.5-3.32,3.24-4.82,4.9h0Zm21.38-16.6c-3.6,2.06-1.03,7.59,3.12,5.69,1.86-.99,3.72-1.94,5.61-2.85,3.79-1.7,1.27-7.71-2.77-5.89-2.02,.95-3.99,1.98-5.97,3.04h0Zm24.63-10.24c-4.15,1.35-2.09,7.51,1.94,6.25,2.06-.67,4.07-1.26,6.13-1.82,4.15-1.11,2.49-7.39-1.7-6.28-2.13,.59-4.27,1.19-6.37,1.86h0Zm25.7-6.28c-3.99,.63-3.32,7.12,1.18,6.41l6.37-1.11c4.11-.63,3.28-7.08-1.07-6.45l-6.48,1.15h0Zm26.05-3.79c-4.59,.71-3.2,7.08,.67,6.48l6.44-.63c4.23-.67,3.84-6.64-.59-6.52l-6.52,.67h0Zm26.13-2.1c-4.07,.12-4.11,6.6,.36,6.48l6.52-.32c4.11-.12,4.11-6.64-.32-6.52l-6.56,.35Z" style="fill:#859ac6; fill-rule:evenodd;"/><path d="M161.4,1002.37c6.33-7.35,6.4-17.86,.16-31.54-6.45,3.24-8.62,8.22-12.14,14.78-38.1-12.17-28.46-50.6-12.65-51.07-38.7-7.35-62.1-3.16-79.77,17.39-5.97,18.97,1.11,63.56,5.69,80.48,4.82,19.37,11.34,30.2,6.92,59.3,20.6,14.86,26.37,30.28,81,13.91-1.22-16.84-5.34-20.95-5.14-60.95-1.39-13.21,8.93-28.7,15.93-42.3Z" style="fill:#6d96ce; fill-rule:evenodd;"/><path d="M150.61,1105.62c-37.47,3.56-54.43-5.46-81-13.91-34.9,51.86-4.78,78.5-19.81,146.42,24.79,24.9,61.75,29.25,111,13.28,1.19-40.16-3-99.14-10.2-145.79Z" style="fill:#20386f; fill-rule:evenodd;"/><path d="M69.97,1252.67c-.51,8.06-.63,15.18-1.74,20.08-12.18,32.73-2.37,64.67,.51,155.91-.43,1.19-.87,2.21-1.38,3.32,6.13,2.69,5.34,8.54,8.97,9.88,16.96,6.08,9.96-4.67,12.77-7.67-.79-1.9-1.46-3.79-2.06-5.54,.47-84.12,14.23-125.78,14.27-151.95,.16-3.96,1.23-12.33,1.54-16.05h-.12c-12.14-.63-23.05-3.32-32.77-7.99Z" style="fill:#f9af79; fill-rule:evenodd;"/><path d="M59.57,1448.43c3.79-9.02,1.98-17.24,6.09-17.08,7.95,2.29,6.72,9.09,10.67,10.52,19.25,6.96,7.63-7.83,14.43-8.46,14.86,6.17,22.33-1.1,24.07,10.12-1.3,2.85-11.19,13.44-45.42,15.34-7.71-3.01-10.99-6.49-9.84-10.44Z" style="fill:#0e2952; fill-rule:evenodd;"/><path d="M110.13,1260.74c.95,9.41,2.14,16.61,2.92,22.14-13.87,28.23,.63,64.67,7.79,155.67-.35,1.18-.79,2.29-1.23,3.4,6.25,2.38,5.73,8.3,9.45,9.49,17.24,5.22,9.69-5.21,12.33-8.38-.83-1.82-1.62-3.64-2.25-5.38,1.18-86.65,3.2-138.99,6.01-156.94-.04-8.46,.99-17.16,1.93-25.38-13.32,3.48-25.62,5.22-36.96,5.38Z" style="fill:#f9af79; fill-rule:evenodd;"/><path d="M109.46,1458.86c3.4-9.17,4.35-17.47,8.46-17.47,8.02,1.9,7.15,8.77,11.15,10.04,19.53,6.01,7.24-8.3,14.03-9.17,20.99,7.27,35.66,2.93,35.7,13.91-4.39,6.8-24.07,11.07-59.02,12.65-7.83-2.6-11.27-5.93-10.32-9.96Z" style="fill:#0e2952; fill-rule:evenodd;"/><path d="M149.42,985.6c-38.1-12.17-28.46-50.6-12.65-51.07,15.46-1.9,19.06-.63,42.5-3.32,8.5,9.33,8.93,21.11,1.23,35.34-23.09,1.98-25.34,8.3-31.07,19.05Z" style="fill:#466fb5; fill-rule:evenodd;"/><path d="M182.59,935.64c9.69,.32,20.67-.16,33.01-1.5,9.72-8.62,36.05-26.17,79.06-52.81,9.88-15.1,19.96-24.83,32.85-30.83,3.16,1.34,1.31,3.47-8.93,13.36,6.84,14.55,1.22,23.25-16.88,23.56-40.48,37.63-66.29,59.85-77.48,66.57-15.3,5.06-29.09,7.67-41.43,7.91,4.31-10.12,4.27-18.81-.2-26.25Z" style="fill:#f9af79; fill-rule:evenodd;"/><path d="M65.42,1042.29c-14.75-2.37-19.37-8.93-18.11-30.28,2.81,1.1,7.35,2.45,11.7,3.24,1.23,6.88,2.53,12.89,3.68,17.16,.47,1.9,2.21,8.07,2.73,9.88Z" style="fill:#f9af79; fill-rule:evenodd;"/><path d="M59.02,1015.25c-4.35-.79-7.91-1.74-10.71-2.84-.71-.24-1.35-.56-1.94-.87-2.06-30.2,1.46-50.05,10.63-59.61-4.47,14.23-1.62,42.85,2.02,63.32Z" style="fill:#466fb5; fill-rule:evenodd;"/><path d="M102.15,917.77c-19.89,1.1-29.65-9.96-29.26-33.05-.59-2.29-1.03-4.5-1.22-6.64-1.18-12.97,5.3-22.14,19.53-27.51,33.24-11.54,47.55-6.48,42.89,10.52-3.16,6.96-7.91,12.25-14.27,15.89,1.86,3.32,2.45,6.96,1.82,11.07,.04,1.1-.28,2.69-1.03,4.66-1.03-8.3-3.79-13.52-8.26-15.73-2.92,5.06-2.06,11.78,2.69,20.08,2.06,12.02-2.25,18.89-12.89,20.72Z" style="fill:#20386f; fill-rule:evenodd;"/><path d="M61.67,913.5c-4.23-.71-4.9,6.01-6.09,8.62-3.2-11.94-.36-25.14,4.98-29.57-1.7,.24-3.56,1.19-5.53,2.85-.75-13.52,15.3-17.47,19.49-17.87,2.14-.24,3.72,1.03,4.67,3.63,6.05,17.63,2.88,32.89-9.6,45.94,2.37-3.48,3.28-7.51,2.73-12.17-4.31,13.6-11.94,16.76-22.96,9.72,9.09,2.77,10.75-1.5,12.33-11.15Z" style="fill:#20386f; fill-rule:evenodd;"/><path d="M74.87,877.61c1.46-2.21,3.71-3.88,6.88-3.32,4.98,1.58,5.69,8.14,2.06,10.2-1.03,.71-2.21,1.03-3.28,1.1-.36-1.5-.83-2.92-1.34-4.43-.91-2.45-2.37-3.71-4.31-3.55Z" style="fill:#6d96ce; fill-rule:evenodd;"/><path d="M88.79,932.79c1.66-4.98,1.38-10.59-.83-16.92,3.95,1.58,8.66,2.21,14.19,1.9,10.63-1.82,14.94-8.7,12.89-20.72-4.74-8.3-5.61-15.02-2.69-20.08,4.47,2.21,7.23,7.43,8.26,15.73,.75-1.98,1.07-3.56,1.03-4.66,.63-4.11,.04-7.75-1.82-11.07,3.91-2.21,7.19-5.06,9.88-8.54,4.27,4.43,5.73,9.17,4.31,14.23,5.38,7.75,6.92,14.7,4.66,20.71,.36,6.33-.16,10.67-1.5,13.05-2.17,3.88-13.36,2.05-17.24,1.82-1.66,4.11-1.98,8.7-.91,13.6-11.54-1.1-21.5-.87-30.24,.95Z" style="fill:#f9af79; fill-rule:evenodd;"/><path d="M200.42,1029.72l.08,8.06-10.79,8.54c.2-2.53-.32-4.9-1.58-6.8l12.29-9.8h0Zm-26.25,29.01l-17.47,14-10.4,.16c-.2-2.69-.39-5.53-.51-8.86l11.22,.16,16.64-13.2c0,.55,.12,1.02,.24,1.66,.67,3.01,.79,5.06,.28,6.09Z" style="fill:#8b9cc9; fill-rule:evenodd;"/><path d="M200.42,1029.72l-12.29,9.8c-.2-.32-.44-.63-.67-.95-1.82-1.9-4.74,.47-10.52,4.58-2.41,2.21-3.52,4.74-3.28,7.83l-16.64,13.2-11.22-.16c-.16-3.32-.24-7.11-.28-11.22l14.51,.32,22.92-17.31h-36.84c.39-1.98,.99-4.04,1.74-6.09h52.58Z" style="fill:#b0c2e4; fill-rule:evenodd;"/><path d="M182.95,1035.81l-22.92,17.31-14.51-.32c-.04-2.53-.04-5.22-.04-8.14-.28-2.85-.04-5.77,.63-8.85h36.84Z" style="fill:#8b9cc9; fill-rule:evenodd;"/><path d="M200.42,1029.72h-52.58c.63-1.9,1.46-3.79,2.33-5.77l45.46-.24,4.19-48.55h-36.45c-.55-1.42-1.14-2.85-1.82-4.35,.28-.08,.51-.24,.79-.4l43.4-.32-5.34,59.62Z" style="fill:#c4d1eb; fill-rule:evenodd;"/><path d="M195.64,1023.72l-45.46,.24c3.28-7.35,7.67-14.7,11.23-21.58,5.65-6.64,6.28-15.65,1.98-27.2h36.45l-4.19,48.55Z" style="fill:#fff; fill-rule:evenodd;"/><path d="M174.17,1058.74c5.89,3.24,10.87,.24,14.94-9.17,1.23-4.43,.67-8.14-1.66-10.99-1.82-1.9-4.74,.47-10.52,4.58-2.85,2.53-3.87,5.69-3.04,9.49,.67,3.01,.79,5.06,.28,6.09Z" style="fill:#f9af79; fill-rule:evenodd;"/><path d="M85.94,908.92c.43-7.27-.63-15.26-3.2-23.88-.75,.32-1.5,.48-2.21,.55,2.33,8.94,2.17,17.24-.47,24.91,2.14,2.37,4.78,4.19,7.91,5.38,3.95,1.58,8.66,2.21,14.19,1.9,6.96-1.26,11.22-4.59,12.77-10.12-7.35,9.33-17,9.8-28.98,1.26Z" style="fill:#0e2952; fill-rule:evenodd;"/><path d="M1484.52,665.37c-5.06,.39-9.88-5.61-11.31-7.39-5.3-6.84-8.77-14.86-10.19-19.33,1.1-2.96,2.21-6.76,3.32-11.31,19.45-13.2,22.14-23,7.99-29.33-2.85,1.58-6.41,6.52-10.6,14.74-3.4-.12-5.93-1.86-7.67-5.14,3.95-13.96,6.64-25.22,7.83-33.92-9.57-14.27-32.02-16.33-61.75-12.45-1.35,7.91-2.53,16.25-3.32,25.1-5.3,4.86-4.59,22.77,.24,43.44-2.45,11.74,4.82,18.18,21.74,19.25,.16,2.85-.08,6.09-.16,8.06,0,1.82-.08,5.34-1.98,5.89l-3.08,.79c.32,42.02,21.82,50.08,68.94,1.58Z" style="fill:#f9af79; fill-rule:evenodd;"/><path d="M1402.14,561.25c29.73-3.87,52.18-1.82,61.75,12.45-1.18,8.69-3.88,19.96-7.83,33.88,1.74,3.32,4.27,5.06,7.67,5.18,4.19-8.22,7.75-13.16,10.6-14.74,14.15,6.33,11.47,16.13-7.99,29.33-1.1,4.55-2.21,8.34-3.32,11.31,17.55-3.91,32.18-19.57,34.23-26.37,20.48-40.24-2.29-57.24-14.47-63.45-5.46-39.89-63.56-5.42-78.82-29.73-32.02,18.26-10.75,41.78-1.82,42.14Z" style="fill:#172b57; fill-rule:evenodd;"/><path d="M1440.32,644.94c-4.74,2.33-11.3,3.72-19.53,4.11,.16,2.77,0,6.01-.16,8.02,8.38-1.62,14.86-5.65,19.68-12.14Z" style="fill:#ed7d57; fill-rule:evenodd;"/><path d="M1519.94,1452.38c18.5-6.56,19.92-16.05,29.88-20.71,9.96-4.66,11.15-12.97,1.43-21.98-7.27,5.69-16.29,12.81-21.03,9.02-3.16-2.45-13.92-2.29-15.97,1.35-9.49,21.74-22.45,14.94-24.98,24.74-.32,13.28,22.21,10.52,30.67,7.59Z" style="fill:#0e2952; fill-rule:evenodd;"/><path d="M1360.16,1430.72c32.49-.63,56.69-.95,67.91-4.51,12.18-3.88,9.65-11.15,2.69-23-30.68,14.07-22.45-2.85-36.76-.79-10.04,8.15-24.98,13.6-44.67,16.29-8.38,6.16-4.98,11.7,10.83,12.02Z" style="fill:#0e2952; fill-rule:evenodd;"/><path d="M1376.37,670.16c16.2-4.71,30.75-7.55,43.64-8.58,2.37,35.61,20.95,35.38,55.81-.75,33.52,2.85,40.08,3.24,58.67,9.29,40.32,38.5,43.96,82.9,65.06,133.65-23.32,.95-33.76,3.79-49.57,9.49-3.48-12.17-6.32-21.98-8.54-29.41,.63,66.89,.79,112.74,.63,137.56-77.01,30.52-140.49,20.09-166.5-3.79-.32-59.45-.79-106.49-1.42-141.2-9.25,10.91-17.79,19.29-25.62,25.3-18.97-21.67-31.79-30.36-42.46-43.17,23.72-38.94,57.71-75.19,70.29-88.39Z" style="fill:#6d96ce; fill-rule:evenodd;"/><path d="M1221.01,735.3c40.56,16.84,68.86,30.75,85.07,41.74l7.19-10.67c6.72,6.72,14.39,13.28,23.72,22.84-8.69,9.02-17.95,16.44-28.7,22.69-28.15-3.01-59.22-24.28-93.29-63.96-10.6-2.1-18.42-5.93-23.4-11.47-.24-5.14,2.29-10.24,7.67-15.38-14.08-9.17-19.69-15.77-16.84-19.72,22.22,13.68,35.02,24.98,38.58,33.92Z" style="fill:#f9af79; fill-rule:evenodd;"/><path d="M1375.57,917.61c1.58,5.85-4.74,39.85-5.77,57.56-10.28,63.25-1.5,145.55,4.04,251.41,9.88,37.32,24.43,87.05,23.56,157.02,17.08,5.21,23.4,5.85,38.9,1.9,10.83-73.05,3.48-131.56-6.33-158.6,6.25-41.74,15.66-88.47,29.26-155.83,15.33,73.45,35.89,128,44.91,163.5,1.74,39.69,9.72,93.21,13.91,160.57,12.81,3.79,20.71,4.9,33.99,3.32,17.16-61.9,14.23-129.34,6.96-202.16-7.75-87.6,5.06-186.5-7.75-220.82-6.49-20.24-7.43-38.26-9.17-54.08-64.28,21.35-119.78,20.09-166.5-3.79Z" style="fill:#466fb5; fill-rule:evenodd;"/><path d="M1530.22,853.42c4.19,.63,8.07,1.11,11.7,1.58,.24,29.57,.32,51.71,.16,66.41-3.64,1.58-8.7,3.48-12.73,3.96,.08-1.9,.63-6.32,.71-8.15,.16-22.53,.32-43.88,.16-63.8h0Zm-188.4-59.14c11.3-9.49,22.14-24.82,32.41-46.01-1.18,7.43-1.66,17.23-1.34,29.73-8.78,10.12-16.92,18.03-24.35,23.72-2.38-2.69-4.59-5.14-6.72-7.43h0Zm185.24-57.52c4.98,16.09,9.8,31.75,14.39,47.08,.07,12.97,.16,25.14,.32,36.45-3.32-.32-7.27-.55-11.86-.63-.47-31.39-1.42-59.06-2.85-82.9Z" style="fill:#466fb5; fill-rule:evenodd;"/><path d="M1425.3,759.89h-84.83c-3.95,0-6.64,3.24-6.01,7.04l19.14,120.25c.63,3.87,4.27,7.03,8.14,7.03h84.83c3.95,0,6.64-3.16,6.01-7.03l-19.14-120.25c-.55-3.79-4.27-7.04-8.14-7.04Z" style="fill:#223f81; fill-rule:evenodd;"/><path d="M1591.73,804.16c3.63,14.94,5.22,28.54,2.21,46.57-9.17,13.28-46.17,5.85-141.29-10.05-3.4,3.09-10.51,6.25-21.19,4.82-9.96-2.53-10.44-5.06-21.58-15.65-2.69-8.15-2.21-14.39,1.58-18.74,12.65,7.35,19.29,11.3,33.36,11.78-3.71-9.65-4.27-15.97-1.66-18.74,4.82,3.88,7.99,9.72,9.41,17.47,75.02-3.32,94.87-2.85,104.83,2.37-1.1-4.66-2.05-8.85-2.85-12.41,11.62-3.95,21.19-6.24,37.16-7.43Z" style="fill:#f9af79; fill-rule:evenodd;"/><path d="M1428.55,1387.16c-.71,6.4-.79,12.09-.32,17.15-25.62,11.15-21.19-1.74-31.47-2.05,2.61-4.51,4.27-10.28,5.06-17.31,11.07,3.16,17.47,3.87,26.73,2.21h0Zm119.38,11.78c0,4.59,.48,8.7,1.43,12.18-6.88,5.46-14.71,11.07-19.14,7.59-2.05-1.58-7.43-2.06-11.46-1.18,1.66-5.62,3.01-12.57,3.96-21.11,8.93,2.53,15.89,3.32,25.22,2.53Z" style="fill:#f9af79; fill-rule:evenodd;"/><path d="M1369.8,975.17c45.22,42.14,105.71,42.22,181.45,.32,12.8,34.32,0,133.22,7.75,220.82,7.27,72.82,10.2,140.26-6.96,202.16-1.42,.16-2.77,.32-4.11,.47-9.33,.79-16.28,0-25.22-2.53-1.5-.32-3.01-.79-4.66-1.26-4.19-67.36-12.18-120.88-13.91-160.57-9.02-35.5-29.57-90.05-44.91-163.5-13.6,67.36-23.01,114.08-29.26,155.83,9.8,27.04,17.16,85.55,6.33,158.6-2.85,.63-5.38,1.26-7.75,1.66-9.25,1.66-15.66,.95-26.73-2.21-1.42-.4-2.93-.87-4.43-1.35,.87-69.97-13.68-119.7-23.56-157.02-5.54-105.86-14.31-188.16-4.04-251.41Z" style="fill:#223f81; fill-rule:evenodd;"/><path d="M1441.2,1335.29c-16.52,4.5-31.62,5.77-45.38,4.03-.32-3.64-.63-7.12-.95-10.6,15.02,1.9,30.59,.87,46.65-3.08-.08,3.16-.16,6.41-.32,9.65h0Zm120.56,12.57c-17.95,2.13-33.84,.95-47.67-3.64-.32-3.71-.71-7.43-1.1-11.07,15.57,5.06,32.1,6.8,49.81,5.22-.32,3.16-.63,6.33-1.03,9.49h0Zm-45.38,23.72c-.24-3.79-.55-7.43-.87-11.07,13.83,3.79,28.46,4.98,43.96,3.63-.48,3.16-1.11,6.41-1.74,9.65-15.26,1.66-29.09,.95-41.35-2.21h0Zm-119.78-20.72c14.07,2.37,28.62,2.06,43.64-.71-.24,3.24-.48,6.4-.79,9.72-15.5,3.24-29.57,3.79-42.3,1.74-.16-3.63-.32-7.19-.55-10.75Z" style="fill:#0e2952; fill-rule:evenodd;"/><path d="M770.53,713.32c77.2,0,139.74,62.54,139.74,139.7s-62.54,139.7-139.74,139.7-139.7-62.54-139.7-139.7,62.54-139.7,139.7-139.7Z" style="fill:#b0c2e4; fill-rule:evenodd;"/><path d="M164.96,829.86c43.17,0,78.19-35.02,78.19-78.27s-35.02-78.11-78.19-78.11-78.19,34.98-78.19,78.11,35.02,78.27,78.19,78.27Z" style="fill:#9db2d9; fill-rule:evenodd;"/><path d="M1636.47,826.06c26.73-8.78,55.5,5.69,64.2,32.41,8.78,26.73-5.69,55.5-32.41,64.28-26.72,8.77-55.5-5.77-64.2-32.49-8.86-26.64,5.69-55.42,32.41-64.2Z" style="fill:#c4d1eb; fill-rule:evenodd;"/><path d="M1063.28,901.4c43.09,0,78.11,34.95,78.11,78.04s-35.03,78.11-78.11,78.11-78.11-34.95-78.11-78.11,34.94-78.04,78.11-78.04Z" style="fill:#b0c2e4; fill-rule:evenodd;"/><path d="M374.71,732.93c15.06,0,27.27-12.21,27.27-27.27s-12.22-27.27-27.27-27.27-27.28,12.21-27.28,27.27,12.22,27.27,27.28,27.27Z" style="fill:#9db2d9; fill-rule:evenodd;"/><path d="M1852.31,811.04c22.92-7.51,47.59,4.98,55.18,27.91,7.59,22.85-4.9,47.6-27.83,55.11-22.92,7.59-47.67-4.91-55.18-27.83-7.51-22.93,4.9-47.6,27.83-55.19Z" style="fill:#c4d1eb; fill-rule:evenodd;"/><path d="M601.61,1191.48c43.13,0,78.07,34.95,78.07,78.11s-34.94,78.11-78.07,78.11-78.11-34.94-78.11-78.11,34.98-78.11,78.11-78.11Z" style="fill:#b0c2e4; fill-rule:evenodd;"/><path d="M190.46,480.02c24.11,0,43.72-19.57,43.72-43.68s-19.61-43.68-43.72-43.68-43.68,19.57-43.68,43.68,19.57,43.68,43.68,43.68Z" style="fill:#9db2d9; fill-rule:evenodd;"/><path d="M1761.39,1124.44c22.93-7.51,47.6,4.91,55.19,27.83,7.51,22.93-4.99,47.68-27.83,55.19-22.93,7.59-47.67-4.9-55.19-27.83-7.59-22.93,4.9-47.6,27.83-55.19Z" style="fill:#c4d1eb; fill-rule:evenodd;"/><path d="M862,177.21c25.58,0,46.29,20.71,46.29,46.29s-20.72,46.29-46.29,46.29-46.25-20.71-46.25-46.29,20.71-46.29,46.25-46.29Z" style="fill:#b0c2e4; fill-rule:evenodd;"/><path d="M682.14,491.24c24.63,0,44.59,19.96,44.59,44.59s-19.96,44.59-44.59,44.59-44.55-19.96-44.55-44.59,19.93-44.59,44.55-44.59Z" style="fill:#b0c2e4; fill-rule:evenodd;"/><path d="M1624.77,107.24c-77.16,0-139.78,62.58-139.78,139.74s62.62,139.74,139.78,139.74,139.7-62.58,139.7-139.74-62.54-139.74-139.7-139.74Z" style="fill:#9db2d9; fill-rule:evenodd;"/><path d="M1332.01,295.37c-43.09,0-78.03,34.98-78.03,78.07s34.94,78.11,78.03,78.11,78.11-34.94,78.11-78.11-35.02-78.07-78.11-78.07Z" style="fill:#9db2d9; fill-rule:evenodd;"/><path d="M1793.65,585.44c-43.08,0-78.03,34.98-78.03,78.11s34.95,78.11,78.03,78.11,78.11-34.99,78.11-78.11-34.94-78.11-78.11-78.11Z" style="fill:#9db2d9; fill-rule:evenodd;"/><path d="M1215.64,534.61c-24.59,0-44.59,19.92-44.59,44.55s20,44.59,44.59,44.59,44.59-19.96,44.59-44.59-20-44.55-44.59-44.55Z" style="fill:#9db2d9; fill-rule:evenodd;"/><path d="M1789.06,665.45c1.02,2.53,3.95,3.76,6.48,2.73,2.53-1.03,3.79-3.95,2.77-6.52l-170.85-421.31c-99.62,43.05-199.39,86.02-298.93,129.18l-117.25,207.18c-1.35,2.41-.48,5.46,1.9,6.8,2.37,1.38,5.45,.51,6.8-1.86l115.59-204.25,286.51-123.77,166.98,411.82Z" style="fill:#9db2d9; fill-rule:evenodd;"/><path d="M596.95,1267.69c-1.03,2.53,.24,5.54,2.77,6.49,2.57,1.1,5.49-.16,6.52-2.69l167.05-411.83,287.98,124.44c2.57,1.11,5.53-.08,6.6-2.61,1.11-2.53-.08-5.53-2.61-6.64l-297.43-128.39-170.89,421.23Z" style="fill:#b0c2e4; fill-rule:evenodd;"/><path d="M866.35,225.99c1.34-2.41,.55-5.45-1.86-6.84-2.37-1.35-5.41-.51-6.8,1.9l-180.93,314.11,88.94,319.21c.75,2.69,3.52,4.27,6.17,3.48,2.69-.71,4.23-3.48,3.48-6.16l-87.84-315.17,178.84-310.51Z" style="fill:#b0c2e4; fill-rule:evenodd;"/><path d="M195.44,436.73c.24-2.77-1.82-5.18-4.59-5.38-2.77-.24-5.18,1.86-5.38,4.59l-26.05,322.05,216.35-47.44c2.69-.59,4.43-3.28,3.84-5.97-.6-2.69-3.24-4.43-5.93-3.83l-203.18,44.55,24.95-308.57Z" style="fill:#9db2d9; fill-rule:evenodd;"/><path d="M1779.66,1164.05c1.1,2.53-.08,5.46-2.69,6.56-2.53,1.11-5.46-.16-6.56-2.69l-125.23-297.82,220.26-22.53c2.85-.32,5.22,1.74,5.54,4.43,.32,2.85-1.74,5.22-4.43,5.53l-206.98,21.19,120.1,285.33Z" style="fill:#c4d1eb; fill-rule:evenodd;"/><path d="M2043.71,824.01l.08,3.32s-.95,10.59,12.02,12.17c13.13,1.58,23.88,1.35,23.48-6.8-1.18-6.33-3.24-16.21-3.4-21.5,0-1.9,.16-3.96,.47-6.33l-25.3-.48-7.43,1.26,.08,18.34Z" style="fill:#f9af79; fill-rule:evenodd;"/><path d="M2043.64,805.66l.08,18.34c2.69,1.19,5.77,1.98,9.1,1.98,11.7,0,19.13-8.54,23.09-14.78,0-1.9,.16-3.96,.47-6.33l-25.3-.48-7.43,1.26Z" style="fill:#e28e51; fill-rule:evenodd;"/><path d="M2078.26,800.84c-2.85,15.81-23.24,15.26-32.1,14.31-2.53-.32-4.03-.63-4.03-.63-2.77-.79-4.35-5.13-5.06-10.91-1.51-11.38,.39-28.15,2.29-32.5,2.85-6.4,8.38-13.36,28.94-8.38,20.56,5.06,13.75,17.79,9.96,38.1Z" style="fill:#f9af79; fill-rule:evenodd;"/><path d="M2095.02,1268.8h-28.93c.24-1.5,.95-6.09,2.37-10.36,.48-1.51,.95-2.93,1.58-4.19,2.85-5.54,20.72-1.98,20.72-1.98,0,0,1.58,1.34,2.92,6.8,.56,2.45,1.03,5.61,1.35,9.72Z" style="fill:#172b57; fill-rule:evenodd;"/><path d="M2007.66,1259.71c-.07,3.87-.55,7.66-1.97,9.09h-57.24c.79-2.06,2.85-5.22,8.69-6.09,6.64-1.1,17.08-4.35,23.09-10.75,2.21-2.29,3.79-4.98,4.59-8.06,2.69-12.02,22.21,3.63,22.21,3.63,0,0,.71,6.24,.63,12.18Z" style="fill:#172b57; fill-rule:evenodd;"/><path d="M2045.69,1130.29c-.79,4.35-1.26,7.91-1.42,10.52-1.82,35.49-29.89,116.53-34.87,118.35-7.75,3.01-20-3.24-26.33-5.22-2.69-.95-4.43-3.56-3.88-6.33,13.84-63.72,18.97-155.59,20.8-209.98,.95-27.44,5.69-46.33,5.69-46.33,0,0,68.31-18.18,68.78,4.82,.32,20.39-22.69,100.48-28.78,134.17Z" style="fill:#223f81; fill-rule:evenodd;"/><path d="M2045.69,1130.29l-45.69-92.66c.95-27.44,5.69-46.33,5.69-46.33,0,0,68.31-18.18,68.78,4.82,.32,20.39-22.69,100.48-28.78,134.17Z" style="fill:#172b57; fill-rule:evenodd;"/><path d="M2030.51,996.2l36.05,261.85s15.97,3.79,28.31,.79c0,0,10.52-139.3,9.64-172.98-.87-33.68,7.59-90.13-1.9-96.29-9.49-6.17-72.1,6.64-72.1,6.64Z" style="fill:#223f81; fill-rule:evenodd;"/><path d="M2033.04,756.09s9.02-.71,19.77-5.3c8.61-3.79,19.53,.32,23.09,2.21-.16-.63-.32-1.35-.87-2.14,0,0,1.58,1.11,1.82,2.69,.16,.08,.24,.24,.16,.24,0,0,1.9-.32,3.01,.16,0,0-.79-.08-1.11,.47,0,0-.08,.08-.16,.16,13.52,6.48,14.78,27.83,10.44,32.73-5.22,6.01-11.54,19.29-11.54,19.29,0,0-2.21-3.08-1.27-8.38,.95-5.22-3.63-5.22-9.33-7.59-5.69-2.38-.95-9.02-5.85-13.05-5.06-4.03-23.32-1.66-23.09-4.74-6.8-2.45-5.06-16.05-5.06-16.76Z" style="fill:#172b57; fill-rule:evenodd;"/><path d="M2082.37,837.21l-8.38,178.43s-69.42,1.19-67.36-14.55c1.9-15.65,24.98-158.44,24.98-158.44l50.75-5.45Z" style="fill:#fff; fill-rule:evenodd;"/><path d="M2107.2,938.33c-4.11,12.49,3.63,54.08,6.41,68.15,.55,3.01,1.02,4.74,1.02,4.74-9.64,15.66-44.83,15.41-44.83,15.41-6.8-29.96-10.36-77.55-10.36-77.55l27.04-118.44,34,31.31s-2.53,19.21-5.69,38.74c-2.53,15.42-5.38,31.15-7.59,37.63Z" style="fill:#20386f; fill-rule:evenodd;"/><path d="M1982.76,911.77c-.07,0-.07-.16-.07-.24,0-2.6,9.88-8.3,20.47-14.94,.16-.16,.16-.24,.16-.24v-.07c-.16,5.53-.16,10.91,.16,15.89,.63,9.25,0,20.4-1.11,31.7-5.06-7.91-18.66-29.17-19.61-32.1h0Zm27.59-71.95h0c-1.66,1.58-47.99,46.65-57,64.2-9.17,17.87,41.82,53.52,41.82,53.52,0,0,3.24,1.35,5.53,.79-2.45,19.77-5.13,38.03-3.55,45.78,2.92,14.07,15.97,18.81,15.97,17.71,0-.32,4.74-51.08,7.27-77.64,5.61-56.76,19.45-113.21,19.45-113.21-15.1,1.58-29.49,8.85-29.49,8.85Z" style="fill:#20386f; fill-rule:evenodd;"/><path d="M2084.35,830.33c.08-1.66-7.99-3.95-7.99-3.95,0,0-9.25,12.8-24.51,12.97,0,0,4.43,8.46,9.49,10.59,0,0,22.45-9.49,23-19.61Z" style="fill:#d8e8f7; fill-rule:evenodd;"/><path d="M2051.86,839.03s-7.99-4.74-8.07-9.96c0,0-5.22-.63-7.43,1.9,0,0-1.9,8.85,.63,14.08,0,0,11.54-1.82,14.86-6.01Z" style="fill:#d8e8f7; fill-rule:evenodd;"/><path d="M2057.39,838.24l-10.91-2.53s-1.43,.08-1.43,1.9,3.08,6.96,4.43,7.35c1.35,.4,10.44-3.08,7.91-6.72Z" style="fill:#b83f35; fill-rule:evenodd;"/><path d="M2083.09,829.54c.08-1.74-5.38-5.22-5.38-5.22,0,0-10.6,12.33-25.85,12.49,0,0,4.43,8.54,9.49,10.67,0,0,21.19-7.83,21.74-17.95Z" style="fill:#e9f0f9; fill-rule:evenodd;"/><path d="M2051.86,836.82s-8.07-4.27-8.07-9.49c0,0-4.98,2.21-7.27,4.74,0,0-2.05,5.53,.48,10.75,0,0,11.54-1.74,14.86-6.01Z" style="fill:#e9f0f9; fill-rule:evenodd;"/><path d="M2030.51,959.99c.4,4.11,2.29,8.07,5.38,10.91l4.9,4.43c1.18,1.1,3.08,.95,4.11-.32l6.01-7.59c1.58-2.06,2.37-4.67,2.05-7.27-.47-5.69-1.58-16.84-2.37-27.51-.71-8.7-1.26-17.24-1.26-22.3-.16-16.44,3.08-68.62,3.08-68.62l-3.88,.16s-9.8,20.24-14.94,47.91c-1.18,6.8-2.21,14.08-2.68,21.5,0,0-2.05,29.89-.4,48.7Z" style="fill:#6d96ce; fill-rule:evenodd;"/><path d="M2030.51,959.99c.4,4.11,2.29,8.07,5.38,10.91l4.9,4.43c1.18,1.1,3.08,.95,4.11-.32l6.01-7.59c1.58-2.06,2.37-4.67,2.05-7.27-.47-5.69-1.58-16.84-2.37-27.51-10.91-12.26-15.34-29.09-17-42.85-1.18,6.8-2.21,14.08-2.68,21.5,0,0-2.05,29.89-.4,48.7Z" style="fill:#466fb5; fill-rule:evenodd;"/><path d="M1991.93,960.47c0-4.59,3.96-8.22,8.54-7.59,1.19,.24,2.29,.79,3.09,1.82,3.08,4.11,6.08,16.05,.55,16.68-2.21,.16-5.06-1.42-7.27-3-2.29-1.74-4.91-4.43-4.91-7.27v-.63Z" style="fill:#f9af79; fill-rule:evenodd;"/><path d="M2113.61,1006.48c-9.96-10.44-27.12-30.83-26.56-47.52,.87-23.4,27.75-58.26,27.75-58.26-2.53,15.42-5.38,31.15-7.59,37.63-4.11,12.49,3.63,54.08,6.41,68.15Z" style="fill:#172b57; fill-rule:evenodd;"/><path d="M2113.29,965.68s-7.19,3.64-11.46,1.82c-4.43-1.82-9.49-3.16-14.39,2.37-4.82,5.53-5.85,9.41-4.82,11.38,1.02,2.13,12.33,1.35,14.23,0,1.82-1.18,4.82-4.35,6.72-3.88,5.22,1.58,9.65-2.45,12.02-5.53,1.5-1.9-2.53-2.85-2.29-6.17Z" style="fill:#f9af79; fill-rule:evenodd;"/><path d="M2086.49,830.65s28.54,3.08,35.26,15.5c6.64,12.41,41.66,62.78,40.48,83.65-1.11,20.87-47.6,44.27-47.6,44.27,0,0-10.36-4.27-10.51-9.02-.16-4.66,32.18-32.65,30.28-37.87-2.06-5.3-37.63-46.57-41.03-60.17-3.4-13.68-6.88-36.37-6.88-36.37Z" style="fill:#20386f; fill-rule:evenodd;"/><path d="M2003.31,896.34s0,.08-.16,.24c-10.6,6.64-20.47,12.33-20.47,14.94-1.43-4.5,12.41-23.48,16.84-27.35,4.59-3.95,3.79,12.17,3.79,12.17Z" style="fill:#172b57; fill-rule:evenodd;"/><path d="M2077.71,824.32s-21.66,90.61-18.26,124.76c0,0,8.06-36.53,27.12-66.41,0,0-6.96-6.17-6.56-8.38,0,0,5.22-1.58,10.2-.47,0,0-.56-39.06-3.72-43.25-3.16-4.11-8.77-6.24-8.77-6.24Z" style="fill:#172b57; fill-rule:evenodd;"/><path d="M2043.79,827.33c.4-.24-21.5,88.55-23.4,116.85,0,0,2.21-50.44,2.06-64.98,0,0,8.94-4.74,8.94-6.49s-9.57-6.16-9.57-6.16c0,0,6.01-31.15,9.33-34.47,3.32-3.48,12.65-4.74,12.65-4.74Z" style="fill:#172b57; fill-rule:evenodd;"/><path d="M856.78,844.09c-1.46,1.58-1.62,3.48-.91,5.45v.08c1.34,3.64,5.69,7.67,10.79,11.7,.63,.56,1.18,1.11,1.7,1.5,.16,.08,.28,.24,.4,.32,.12,.07,.2,.24,.32,.24,4.7,4.43,2.96,5.38,11.42,14.23,9.69,10.12,16.37,10.27,18.26,9.41,1.62-.87-1.62-6.16-5.26-12.18-.2-.24-.36-.55-.51-.87-.47-.79-.99-1.58-1.42-2.37-4.27-7.27-3.2-10.68-2.17-21.43,.83-8.77,13.6-48.94,13.6-48.94l-18.54-3.16s-5.61,31.94-11.78,36.84c-3.28,2.69-7,2.69-10.16,4.66-.2,.08-.43,.24-.63,.4-1.82,1.18-3.64,2.45-5.1,4.11Z" style="fill:#f9af79; fill-rule:evenodd;"/><path d="M856.78,844.09c-1.46,1.58-1.62,3.48-.91,5.45v.08c1.66,3.64,5.89,7.67,10.79,11.7,.67,.56,1.18,1.03,1.7,1.5,.16,.08,.28,.24,.4,.32,.12,.07,.2,.24,.32,.24,4.7,4.43,2.96,5.38,11.42,14.23,9.69,10.12,16.37,10.27,18.26,9.41,1.62-.87-1.62-6.16-5.26-12.18-1.9-.71-10.63-4.19-17.28-12.72-5.85-7.43-9.72-17-13.72-22.53-.2,.08-.43,.24-.63,.4-1.82,1.18-3.64,2.45-5.1,4.11Z" style="fill:#172b57; fill-rule:evenodd;"/><path d="M1006.56,832.46c1.15,5.77,9.29,4.82,18.42,2.53,9.13-2.21,6.96,.4,19.96-1.02,13.01-1.43,16.92-6.24,17.32-8.22,.39-1.74-6.05-2.29-12.93-3.08-.87-.08-1.74-.24-2.61-.32-7.79-1.02-13.48-5.93-20.52-10.12-6.72-3.87-16.68-19.84-16.68-19.84l-17.83,1.43s9.33,14.23,12.97,20.39c2.13,3.64,2.02,8.46,1.74,12.18-.12,2.05-.28,4.11,.16,6.08Z" style="fill:#f9af79; fill-rule:evenodd;"/><path d="M1024.98,834.99c9.13-2.21,6.96,.4,19.96-1.02,13.01-1.43,16.92-6.24,17.32-8.22,.39-1.74-6.05-2.29-12.93-3.08l-.08,.08s-7.79,5.54-18.62,5.85c-8.81,.16-18.15-2.38-24.23-2.21-.12,2.05-.28,4.11,.16,6.08,1.15,5.77,9.29,4.82,18.42,2.53Z" style="fill:#172b57; fill-rule:evenodd;"/><path d="M966.91,570.74s4.23-10.4,8.89-10.83c4.67-.43,19.53-2.77,20.6-.63,1.07,2.1,0,9.76-3.2,12.53-3.16,2.77-22.92,7.19-22.92,7.19l-3.36-8.26Z" style="fill:#f9af79; fill-rule:evenodd;"/><path d="M938.25,718.5l-38.42,103.37s-5.85,.55-11.54-1.03c-5.22-1.58-11.19-5.46-11.19-5.46,0,0,9.52-99.26,27.04-119.89,17.47-20.63,34.11,23.01,34.11,23.01Z" style="fill:#172b57; fill-rule:evenodd;"/><path d="M786.34,676.72s110.37-37.32,135-29.41c24.63,7.95,98.47,155.04,98.47,155.04,0,0-1.66,2.21-6.2,3.88-4.23,1.58-14.51,1.5-14.51,1.5,0,0-66.65-57.24-74.59-73.85-7.95-16.68-11.11-32.57-19.05-30.95-7.95,1.58-102.43,38.86-123.85,16.64-21.47-22.21-15.81-51.11-15.81-51.11l20.56,8.26Z" style="fill:#223f81; fill-rule:evenodd;"/><path d="M853.82,503.1c1.74-3.6,3.71-10.08,4.66-21.59-.12,1.15-2.13,15.66-7.71,23.88-22.93,15.06-66.93,65.38-66.05,74.91,0,0-15.5-26.25-15.77-26.41,0,0-28.58-36.37,5.3-57.2,17.19-10.55,17.12-24.15,16.41-35.93-.75-11.82,4.66-62.58,39.17-49.3,0,0,5.53-2.45,8.02-2.09,0,0-2.06,.39-3.08,1.42,4.03-.2,9.73,.08,14.51,2.81,12.65,7.19,23.95,71.63,4.55,89.5Z" style="fill:#172b57; fill-rule:evenodd;"/><path d="M849.43,506.14c.12,.04-11.11,5.89-19.53,3.56-7.91-2.17-13.08-12.41-12.97-12.45,3.32-.63,4.31-5.26,4.23-25.06l1.54,.28,25.46,5.06s-.56,8.02-.59,15.57c0,6.37,.39,12.37,1.86,13.05Z" style="fill:#f9af79; fill-rule:evenodd;"/><path d="M848.16,477.53s-.56,8.02-.59,15.57c-14.27-.39-21.78-13.4-24.87-20.63l25.46,5.06Z" style="fill:#ec9355; fill-rule:evenodd;"/><path d="M820.06,469.7s-7.47-11.82-9.29-21.94c-1.26-7.2,2.41-33.92,29.25-30.08,0,0,7.83,.75,15.18,5.73,5.81,3.91,14.23,12.45,4.82,35.78l-2.45,7.87-37.51,2.65Z" style="fill:#172b57; fill-rule:evenodd;"/><path d="M852.95,484.68s-33.76,.55-33.76-20.48c-.04-21.03-4.43-35.1,17.12-36.37,21.58-1.26,25.77,6.8,27.47,13.8,1.74,6.99-2.06,42.38-10.83,43.05Z" style="fill:#f9af79; fill-rule:evenodd;"/><path d="M851.68,427.32s-9.21,24.67-23.4,28.3c-14.19,3.68-20.36-.12-20.36-.12,0,0,10.87-8.66,13.16-23.76,0,0,23.64-16.17,30.6-4.43Z" style="fill:#172b57; fill-rule:evenodd;"/><path d="M849.43,429.34s6.88,5.5,8.58,10.87c1.66,5.34,2.41,16.36,5.65,15.97,0,0,6.96-16.76-.87-26.25-8.3-10.04-13.36-.6-13.36-.6Z" style="fill:#172b57; fill-rule:evenodd;"/><path d="M760.48,677.31c1.82,5.02,7.39,6.32,14.86,5.46,14.31-1.66,35.46-11.27,50.76-17.87,23.28-10.08,33.88-.6,41.27-7.04,7.43-6.4-8.46-20.71,5.3-87.04,4.66-22.49-24.91-70.72-24.91-70.72,0,0-2.57,13.96-30.83-2.85-1.03-.59-12.14,15.89-22.85,36.25-11.86,22.41-23.17,49.53-19.85,63.48,6.32,26.6-19.09,65.62-13.76,80.33Z" style="fill:#6d96ce; fill-rule:evenodd;"/><path d="M847.77,500.1l17.43,71.55s2.17,3.88,5.57,9.37c7.98,12.93,22.81,34.87,32.26,37.08,4.66,1.11,14.58-2.77,25.58-8.34,20.79-10.52,45.34-26.92,45.34-26.92,1.58-9.53-6.68-17.32-6.68-17.32,0,0-49.77,18.7-54.71,19.06-10.75,.79-21.74-51.19-31.82-68.55-7.27-12.53-32.97-15.93-32.97-15.93Z" style="fill:#6d96ce; fill-rule:evenodd;"/><path d="M760.48,677.31c1.82,5.02,7.39,6.32,14.86,5.46,9.88-4.31,52.58-20.83,52.1-32.06-.71-16.56-8.22-17.08-2.93-37.55,4.23-16.44-35.18-47-41.47-53.64-11.82,22.42-12.14,23.52-8.82,37.47,6.32,26.6-19.09,65.62-13.76,80.33Z" style="fill:#466fb5; fill-rule:evenodd;"/><path d="M870.77,581.01c7.98,12.93,22.81,34.87,32.26,37.08,4.66,1.11,14.58-2.77,25.58-8.34-8.02,2.05-15.81,2.02-23.36,1.3-8.22-.83-10.59-10.87-23.56-25.93-8.42-9.8-10.48-7.35-10.91-4.11Z" style="fill:#466fb5; fill-rule:evenodd;"/><path d="M831.28,612.76s7.12-5.53,13.88-4.23c6.72,1.31,10.08,5.97,9.8,8.06-.28,2.1-3.83,8.06-9.01,8.62-5.18,.51-19.85-3.2-19.85-3.2l5.18-9.25Z" style="fill:#f9af79; fill-rule:evenodd;"/><path d="M816.93,497.25s-27.51,1.7-37.04,14.98c-13.44,18.7-36.72,95.07-30.36,112.54l83.72-.39s2.02-9.45-.79-14.03c-2.85-4.59-48.7-12.02-50.84-14.11-2.09-2.14,26.49-41.31,26.49-47.63s8.81-51.35,8.81-51.35Z" style="fill:#6d96ce; fill-rule:evenodd;"/><polygon points="838.44 644.03 939.79 644.03 958.06 580.3 856.86 580.3 838.44 644.03" style="fill:#c4d1eb; fill-rule:evenodd;"/><rect x="806.97" y="641.53" width="132.47" height="2.49" style="fill:#859ac6;"/><path d="M907.62,611.14c.63-2.25-.67-4.07-2.89-4.07s-4.59,1.82-5.22,4.07c-.63,2.25,.63,4.07,2.89,4.07s4.59-1.82,5.22-4.07Z" style="fill:#859ac6; fill-rule:evenodd;"/></svg>