<?xml version="1.0" encoding="UTF-8"?><svg id="a" xmlns="http://www.w3.org/2000/svg" viewBox="0 0 1866.64 1562.68"><path d="M921.85,0c224.57,0,198.93,396.59,361.05,517.48,214.58,160,583.74,80.78,583.74,355.38,0,482.07-478.82,656.73-1000.61,656.73S-101,1262.22,54.37,781.42C209.73,300.62,400.06,0,921.85,0Z" style="fill:#e0e8f5; fill-rule:evenodd;"/><ellipse cx="854.42" cy="1537.92" rx="854.42" ry="24.76" style="fill:#929497;"/><g><path d="M1347.82,1386.7s-23.15-27-1.42-44.14c0,0,15.84-9.6,28.77-8.82,0,0-18.31,30.72-12.39,33.77,5.93,3.06,17.95-35.69,17.95-35.69,0,0,36.09-3.51,47.7,2.07,0,0-30.85,25.25-24.34,26.75,6.47,1.51,39.82-23.28,39.82-23.28,0,0,33.58,5.72,31.79,26.21-1.79,20.49-13.37,26.81-18.46,26.27-5.07-.55-34.82-11.91-35.48-7.73-.64,4.17,17.26,17.78,29.8,18.42,0,0-23.68,26.12-39.4,18.58-15.75-7.54-17.1-19.48-26.89-23.97-9.82-4.48-18.2-4.47-14.13,.1,4.04,4.57,21.8,9.02,27.4,18.94,5.61,9.91,10.65,16.62-5.65,14.15-16.26-2.44-42.72-14.35-43.9-27.99l-1.15-13.64Z" style="fill:#b0c2e4; fill-rule:evenodd;"/><path d="M1459.19,1364.13s-91.22-3.51-111.37,22.57c0,0-4.46,13.33-18.15,25.48l-2.16,5.83s15.79-16.66,21.45-17.67c0,0-8.84-32.32,110.22-36.22Z" style="fill:#9db2d9; fill-rule:evenodd;"/><path d="M1329.67,1412.18s-19.59,14.48-20.96,40.36l3.55,.32s6.27-26.75,17.56-37.22c11.32-10.46-.14-3.46-.14-3.46Z" style="fill:#9db2d9; fill-rule:evenodd;"/><path d="M1266.94,1352.75s36.8-20.61,19.63-48.59c0,0-13.76-17.16-28.49-21.58,0,0,7.87,41.71,0,42.69-7.83,.98-5.4-47.1-5.4-47.1,0,0-38.77-18.65-53.98-17.18,0,0,24.05,40.73,16.21,39.74-7.86-.98-34.85-42.2-34.85-42.2,0,0-39.74-7.35-46.13,16.2-6.37,23.55,3.94,35.33,9.81,36.8,5.88,1.47,43.69,.98,42.71,5.89-1.01,4.91-26.52,12.75-40.75,8.35,0,0,15.7,38.76,36.32,36.79,20.62-1.96,26.98-14.71,39.74-15.7,12.76-.98,22.08,2.46,15.72,5.89-6.39,3.43-27.99,1.12-38.3,9.89-10.28,8.76-18.63,14.15,.52,18.08,19.12,3.93,53.48,1.48,60.34-13.25l6.88-14.71Z" style="fill:#c4d1eb; fill-rule:evenodd;"/><path d="M1152.1,1282.08s103.05,33.37,114.83,70.67c0,0-.5,16.68,9.79,35.82v7.36s-10.77-25.03-16.67-28.46c0,0,23.06-32.39-107.95-85.39Z" style="fill:#b0c2e4; fill-rule:evenodd;"/><path d="M1276.72,1388.57s15.92,24.12,6.86,53.5l-4.09-1.1s3.97-32.36-4.36-48.62c-8.3-16.27,1.59-3.78,1.59-3.78Z" style="fill:#b0c2e4; fill-rule:evenodd;"/><path d="M1325.48,1324.32s-48.51-27.16-25.89-64.03c0,0,18.12-22.65,37.52-28.46,0,0-10.33,54.98,0,56.27,10.36,1.31,7.13-62.09,7.13-62.09,0,0,51.11-24.58,71.16-22.64,0,0-31.71,53.7-21.35,52.4,10.33-1.29,45.91-55.63,45.91-55.63,0,0,52.4-9.7,60.8,21.35,8.4,31.04-5.16,46.57-12.92,48.51-7.77,1.95-57.58,1.29-56.28,7.76,1.28,6.48,34.92,16.82,53.68,11.01,0,0-20.69,51.09-47.85,48.5-27.19-2.58-35.58-19.4-52.4-20.69-16.83-1.3-29.12,3.23-20.69,7.76,8.39,4.53,36.85,1.49,50.44,13.04,13.59,11.54,24.59,18.65-.66,23.83-25.22,5.17-70.5,1.94-79.57-17.46l-9.03-19.41Z" style="fill:#c4d1eb; fill-rule:evenodd;"/><path d="M1476.84,1231.18s-135.83,43.99-151.36,93.14c0,0,.64,21.99-12.95,47.22v9.7s14.25-32.98,21.98-37.51c0,0-30.38-42.7,142.33-112.56Z" style="fill:#b0c2e4; fill-rule:evenodd;"/><path d="M1312.53,1371.55s-20.94,31.81-8.99,70.53l5.39-1.44s-5.24-42.65,5.73-64.11c10.95-21.45-2.13-4.98-2.13-4.98Z" style="fill:#b0c2e4; fill-rule:evenodd;"/><path d="M1348.58,1522.79c40.48-10.88,70.3-47.85,70.3-91.77h-190.08c0,43.92,29.82,80.89,70.31,91.77h49.47Z" style="fill:#b0c2e4; fill-rule:evenodd;"/><path d="M1310.68,1522.79c-40.5-10.88-70.3-47.85-70.3-91.77h23.64c0,43.92,29.78,80.89,70.26,91.77h-23.6Z" style="fill:#e0e8f5; fill-rule:evenodd;"/><rect x="1225.7" y="1431.02" width="195.34" height="2.92" style="fill:#9db2d9;"/></g><path d="M996.12,489.69c133.24,0,242.16,108.92,242.16,242.16v253.15h187.91c3.06,0,5.58,2.51,5.58,5.58v13.62c0,3.06-2.51,5.58-5.58,5.58H748.55c-3.06,0-5.57-2.51-5.57-5.58v-13.62c0-3.06,2.5-5.58,5.57-5.58h5.42v-253.15c0-133.24,108.92-242.16,242.16-242.16Z" style="fill:#d0a382; fill-rule:evenodd;"/><path d="M996.13,514.46h0c119.56,0,217.4,97.82,217.4,217.4v253.15h-434.8v-253.15c0-119.58,97.83-217.4,217.4-217.4Z" style="fill:#835e42; fill-rule:evenodd;"/><path d="M586.09,489.69c-133.24,0-242.16,108.92-242.16,242.16v253.15h-5.41c-3.07,0-5.58,2.51-5.58,5.58v13.62c0,3.07,2.51,5.58,5.58,5.58h410.03c-3.07,0-5.57-2.51-5.57-5.58v-13.62c0-3.06,2.5-5.58,5.57-5.58h5.42v-253.15c0-47.14,13.63-91.23,37.15-128.53h0c42.96-68.15,118.91-113.63,205.01-113.63h-410.03Z" style="fill:#f5d1b5; fill-rule:evenodd;"/><path d="M612.6,1010.31h418.16c6.81,0,12.39,5.58,12.39,12.39h0c0,6.81-5.58,12.38-12.39,12.38h-184.31v494.79h-49.53v-494.79h-184.31c-6.81,0-12.38-5.57-12.38-12.38h0c0-6.81,5.57-12.39,12.38-12.39Z" style="fill:#e5bb9a; fill-rule:evenodd;"/><g><path d="M1565.93,1136.55c-4.33,3.81-9.09,5.36-14.63,4.2,5.2,3.94,12.41,.92,14.63-4.2Z" style="fill:#f48661; fill-rule:evenodd;"/><path d="M1546.35,1513.24c.83-5.87-1.02-15.96-5.6-31.75,9.09,.01,16.75-4,26.04-3.86,2.54,14.85,6.48,39.23,6.48,39.23l.42,19.28-64.75,.49s.55,.28,19.64-11.78c1.41-.9,16.99-5.94,17.77-11.6Z" style="fill:#f9af79; fill-rule:evenodd;"/><path d="M1573.99,1541.08h-66.82c-2.47-.22-3.09-2.24-2.23-3.48,1.77-2.57,14.81-8.7,23.57-12.79,15.37,1.62,42.39-4.71,44.82-8.26,4.2,11.78,2.03,24.23,.65,24.53Z" style="fill:#0e2952; fill-rule:evenodd;"/><path d="M1627.01,1513.24c.83-5.87,2.22-13.22,.17-32.78,9.1,.01,17.76-1.69,27.06-1.55,0,15.28-.32,37.95-.32,37.95l.41,19.28-64.75,.49s.55,.28,19.63-11.78c1.42-.9,17.01-5.94,17.79-11.6Z" style="fill:#f9af79; fill-rule:evenodd;"/><path d="M1654.65,1541.08h-66.84c-2.47-.22-3.07-2.24-2.21-3.48,1.75-2.57,14.81-8.7,23.57-12.79,15.37,1.62,42.37-4.71,44.8-8.26,4.22,11.78,2.05,24.23,.68,24.53Z" style="fill:#0e2952; fill-rule:evenodd;"/><path d="M1579.96,954.15l-24.36-25.68s-26.06,14.34-56.45,28.03c-8.36-14.54-21.98-62.38-22.72-64.65-.73-2.3,15.96-31.01,12.23-31.73-3.74-.72-8.59,15.34-12.55,13.71-3.94-1.63-14.1-38.89-16.48-36.86-4.44,3.81,5.36,23.18,3,24.58-2.34,1.41-8.29-21.47-12.81-20.5-4.54,.98,7.64,20.84,6.3,22.75-1.34,1.91-14.07-16.72-16.7-12.39-1.42,2.33,11.74,16.21,9.03,17.77-2.71,1.55-14.56-7.2-15.97-4.36-1.43,2.83,11.06,5.78,14.53,12.95,3.46,7.15,9.76,9.95,11.86,23.5,2.08,13.54,7.81,85.96,22.57,91.79,12.9,5.07,98.5-38.9,98.5-38.9Z" style="fill:#f9af79; fill-rule:evenodd;"/><path d="M1564.23,1092.73l19.74,11.02,40.15,61.38-71.79,168.98s8.09,25.42,10.72,38.11c2.76,13.28,9.52,127.29,9.52,127.29l-30.63,.52s-29.1-121.37-34.03-160.76c-5.97-47.84,30.46-161.76,30.46-161.76,6.78-23.24,21.42-71.07,21.42-71.07,0,0,3.58-11.66,4.43-13.69Z" style="fill:#20386f; fill-rule:evenodd;"/><path d="M1632.96,1069.68s-2.05,14.43,6.12,30.91c4.98,10.04,13.59,17.92,19.75,30.2,11.66,23.29,17.98,56.34,13.61,77.59,0,0-24.1,92.02-23.15,125.65,.35,12.4,4.61,34.75,7.33,49.85,2.41,13.35,3.22,114.08,3.22,114.08l-34.21-1.03-26.18-162.49-11.09-144.43-24.15-97.29,68.74-23.05Z" style="fill:#223f81; fill-rule:evenodd;"/><path d="M1560.55,857.63c3.02-14.27,6.14-28.6,20.33-38.89,11.48-8.32,23.81-10.7,36.89-5.96,37.08,13.45,17.13,42.87,63.15,74.21,14.28,9.75,19.71,13.15,29.97,26.14,14.37,18.17,22.21,42.55,14.99,62.63-14.93,41.5-61.17,53.5-85.36,44.69-45.03-16.37-82.55-73.49-85.05-89.07-2.66-16.68,3.12-64.54,5.09-73.75Z" style="fill:#20386f; fill-rule:evenodd;"/><path d="M1553.35,970.3c-10.89,5.04-30.65,12.59-30.65,12.59l-11.21-35.5c63.47-36.12,58.47-30.28,106.11-29.58,38.06,.55,54.02-6.73,86.79,81.75,0,0-24.94,11.21-33.88,14.81-3.85-10.94-10.78-32.75-14.84-20.32-6.12,18.78-10.6,37.75-13.6,57.27-1.91,11.57-6.05,26.39-3.88,38.17,0,0-25.91,5.34-45.71,6.21h-.18c-9.56-.25-19.35-1.09-28.08-2.97,0,0-3.89-82.06-5.95-85.49-2.3-3.79-12-16.04-3.76-34.36,1.47-3.24,1.09-3.61-1.17-2.58Z" style="fill:#6d96ce; fill-rule:evenodd;"/><path d="M1600.99,1112.75c-.45,.06-2.47-.2-4.12-.17-2.28,.05-4.3,.39-4.3,.39,0,0-.89-.78-2.61-1.57-.73-.32-1.88-.45-2.68-.82-.81-.38-1.52-1.09-2.29-1.43-2.02-.88-3.88-1.08-4.49-.01-.51,.88,10.73,7.75,10.73,7.75,10.42,.06,21.32,5.38,45.46-10.36,13.77-6.02,80.7-39.09,82.05-46.29,.77-4.06-9.51-35.35-17.9-59.11-6.47,2.9-20.24,9.01-27.93,12.23,7.07,14.98,15.4,34.82,14.52,37.25-.22,.63-1.06,1.78-46.3,31.4-1.15,.74-2.31,1.5-3.49,2.28-3.19,2.08-6.6,4.3-10.22,6.65l-12.9-1.34s-20.43,1.41-21.06,3.74c-.26,1.06,1.44,1.59,3.52,1.91h.07c.29,.03,.6,.07,.92,.11h.03c2.26,.27,4.63,.32,5.2,.52,.63,.22,1.95,.74,3.08,1.5-12.75,5.21-11.77,3.35-15.99,3.09-1.07-.09-2.19,.23-3.2,.16-1.71-.16-3.08-1.18-4.4-1.26-1.94-.1-3.52,.8-3.87,1.16-.46,.45,.39,1.11,2.02,1.85,9.84,4.27,18,2.63,20.61,3.27,1.75,.42-1.45,1.09-6.47,.55-1.24-.12-2.88,.33-4.53-.06-1.11-.24-2.11-.95-3.19-1.21-1-.25-2.01-.24-2.86-.39-1.09-.21-2.63-1.06-3.51-1.15-3.28-.37-4.86,.21-5.23,.5-.75,.68,14.09,6.37,14.09,6.37,0,0,10.24,1.47,12.52,1.47,0,0,1.37,.62-1.31,1.04Z" style="fill:#f9af79; fill-rule:evenodd;"/><path d="M1612.92,882.78s2.92,23.44,4.61,31.57c1.79,8.51,4.48,35.33-13.18,39.69-17.65,4.35-12.18-29.18-12.49-37.83-.27-8.66-5.29-38.84-5.29-38.84l26.34,5.42Z" style="fill:#f9af79; fill-rule:evenodd;"/><path d="M1613.88,890.27c-.17,.1-.34,.22-.53,.32-9.75,5.58-18.25,4.71-24.61,.36-1.14-7.49-2.15-13.59-2.15-13.59l26.34,5.42s.39,3.13,.96,7.49Z" style="fill:#f27458; fill-rule:evenodd;"/><path d="M1607.62,821.75s10.35,2.91,16.31,13.19c5.96,10.27,8.93,39.76-13.03,52.37-21.95,12.58-37.54-7.59-36.86-26.45,.65-18.87,5.91-43.83,33.58-39.1Z" style="fill:#f9af79; fill-rule:evenodd;"/><path d="M1569.17,852.75c-.23,4.89,1.86,9,4.69,9.14,2.84,.14,5.34-3.71,5.58-8.62,.25-4.9-1.85-9-4.68-9.14-2.84-.14-5.34,3.72-5.59,8.62Z" style="fill:#f9af79; fill-rule:evenodd;"/><path d="M1604.5,820.98s11.85,30.86,23.43,34.15c11.58,3.28,10.65,18.46,10.65,18.46,0,0,1.49-35.08-9.11-43.69-10.58-8.59-24.97-8.92-24.97-8.92Z" style="fill:#20386f; fill-rule:evenodd;"/><path d="M1622.95,861.17c-1.78,4.82-.6,9.71,2.63,10.93,3.23,1.21,7.3-1.7,9.08-6.54,1.8-4.82,.62-9.71-2.62-10.93-3.23-1.21-7.29,1.7-9.09,6.54Z" style="fill:#f9af79; fill-rule:evenodd;"/><path d="M1610.04,835.71c6.96-.98,18.15,7.29,14.28,7.76-1.26,.16-4.6-2.23-5.92-2.69-2.63-.94-7.85-.97-9.18-2.86-.55-.77-.06-2.08,.83-2.2Z" style="fill:#20386f; fill-rule:evenodd;"/><path d="M1594.66,836.93c-1.59,1.65-6.75,.87-9.5,1.42-1.37,.26-5.04,2.08-6.26,1.72-3.75-1.06,8.59-7.57,15.29-5.46,.96,.31,1.14,1.64,.47,2.31Z" style="fill:#20386f; fill-rule:evenodd;"/><path d="M1614.92,852.57c1.98,.16,4.11-7.27-.7-7.64-2.57-.19-2.55,7.4,.7,7.64Z" style="fill:#20386f; fill-rule:evenodd;"/><path d="M1585.43,850.6c-1.98-.15-2.96-7.81,1.85-7.44,2.56,.19,1.39,7.69-1.85,7.44Z" style="fill:#20386f; fill-rule:evenodd;"/><path d="M1602.56,863.97c.27-.83-1.16-1.01-2.03-1.28-3.23-.98-3.49,.6-.92-13.01,.5-2.67,1.07-4.07,.11-4.22-.89-.13-.75,.95-1.31,3.98-2.79,14.81-2.69,12.96,3.37,14.91,.32,.11,.67-.06,.78-.38Z" style="fill:#ed7d57; fill-rule:evenodd;"/><path d="M1605.71,876.08c.93-1.41-1.21-1.17-14.09-3.54-3.85-.7,6.42,15.27,14.09,3.54Z" style="fill:#ed7d57; fill-rule:evenodd;"/></g><g><path d="M897.43,660.37l501.14-100.68c12.21-2.46,24.21,5.53,26.67,17.75l56.32,280.32c2.45,12.21-5.53,24.22-17.75,26.67l-501.12,100.68c-12.22,2.46-24.23-5.53-26.68-17.75l-56.32-280.32c-2.45-12.22,5.53-24.22,17.75-26.67Z" style="fill:#6d96ce; fill-rule:evenodd;"/><path d="M1192.73,755.89l184.47,73.55,103.18,41.13c-2.76,6.88-8.81,12.3-16.58,13.87l-501.12,100.67c-7.77,1.57-15.45-1.1-20.65-6.39l79.29-77.79,141.65-138.99c10.4-10.4,16.32-11.31,29.76-6.06Z" style="fill:#466fb5; fill-rule:evenodd;"/><path d="M1199.72,790.68l141.75-139.08,81.66-80.13c-4.53-8.71-14.48-13.81-24.56-11.78l-501.14,100.67c-10.09,2.03-17.29,10.57-18.11,20.37l106.26,42.37,184.34,73.49c13.61,5.58,19.42,4.13,29.79-5.91Z" style="fill:#84a8d8; fill-rule:evenodd;"/></g><path d="M851.46,232.55c-1.46-3.02-3.11-8.41-3.91-18,.13,.96,1.78,13.05,6.44,19.91,19.11,12.54,55.74,54.45,55.02,62.39,0,0,12.91-21.88,13.13-22.02,0,0,23.8-30.27-4.41-47.6-14.33-8.82-14.26-20.13-13.66-29.95,.6-9.83-3.92-52.11-32.63-41.05,0,0-4.61-2.05-6.68-1.74,0,0,1.69,.32,2.55,1.21-3.33-.2-8.09,.04-12.06,2.31-10.53,5.98-19.95,59.67-3.77,74.56Z" style="fill:#20386f; fill-rule:evenodd;"/><path d="M805.63,168.6c-11.24,22.47-1.93,48.34,20.16,57.48,22.24,9.2,46.56,3.97,57.79-18.49,11.24-22.47,2.9-49.41-18.64-60.18-21.53-10.76-48.08-1.28-59.32,21.19Z" style="fill:#20386f; fill-rule:evenodd;"/><path d="M831.84,256.02c-12.79,2.86-28.93,38.39-36.83,61.16-10.05,23.92-12.41,86.87-6.57,88.94-10.79,27.19,52.91,1,49.97,.72-2.95-.29-6.57-150.81-6.57-150.81Z" style="fill:#6d96ce; fill-rule:evenodd;"/><path d="M803.35,296c8.36-18.95,19.29-37.91,28.49-39.97,0,0,.32,13.46,.86,32.34-3.53,41.76-9.52,103.12-11.04,118.59-73.26,.4-10.32,6.46-18.31-110.95Z" style="fill:#466fb5; fill-rule:evenodd;"/><path d="M878.85,248.15s40.67,22.72,50.15,27.56c9.48,4.83-26.56,146.7-34.58,152.78-8.01,6.08-78.59,1.04-86.62-6.62-8.04-7.66,6.16-31.17-.79-78.24-6.95-47.07,21.21-87.7,24.83-87.61,3.62,.09,27.23-7.87,27.23-7.87h19.79Z" style="fill:#6d96ce; fill-rule:evenodd;"/><path d="M894.42,428.49c-8.01,6.08-58.51,6.21-80.01-.47-2.42-.76-13.44-5.14-13.7-9.27,2.59-.48,12.89,.75,17.07-.21,14.54-3.34,22.55-21.35,22.55-21.35,0,0,8-2.88,25.91-10.47,17.91-7.58,10.54-30.55,10.96-40.66,.42-10.12,17.7-43.2,50.15-68.27l2.97,1.34c2.32,23.05-28.48,143.74-35.9,149.38Z" style="fill:#466fb5; fill-rule:evenodd;"/><path d="M932.2,278.37c13.04,41.69,20.9,61.16,29.28,86.89,6.11,18.76,2.23,48.19-11.99,49.92-26.65,3.26-89.8,11.78-93.56,8.56-4.43-3.79-5.09-16.95-4.46-18.84,.64-1.9,63.75-25.4,63.75-25.4,0,0-8.34-16.25-11.5-48.02-3.15-31.76,24.76-65,28.48-53.11Z" style="fill:#6d96ce; fill-rule:evenodd;"/><path d="M863.95,193.71l15.78,57.68s-26.67,41.63-34,37.93c-7.33-3.71,4.1-33.84,4.1-37.93s-11.43-46.35-11.43-46.35l25.55-11.32Z" style="fill:#f9af79; fill-rule:evenodd;"/><path d="M849.28,254.33c.34-1.36,.55-2.39,.55-2.94,0-4.09-11.43-46.35-11.43-46.35l25.55-11.32,5.22,19.09c-4.56,19.71-12.8,32.84-19.89,41.53Z" style="fill:#ed7d57; fill-rule:evenodd;"/><path d="M804.89,192.76c-3.01,16.73-1.03,38.94,13.82,44.59,18.44,8.33,37.62-1.5,39.96-24.13,7.21-18.98,1.02-38.95-13.83-44.59-14.85-5.65-36.36,4.15-39.96,24.14Z" style="fill:#f9af79; fill-rule:evenodd;"/><path d="M855.16,202.17c-2.08,5.84-.27,11.83,4.04,13.36,4.31,1.54,9.5-1.96,11.58-7.81,2.08-5.84,.28-11.83-4.04-13.36-4.31-1.53-9.5,1.96-11.58,7.81Z" style="fill:#f9af79; fill-rule:evenodd;"/><path d="M804.71,171.74c5.06,39.25,52.74,34.19,52.74,34.19,0,0,9.84-12.93,14.26-6.15,4.43,6.78-6.14-39.79-33.5-41.25-8.99-.49-33.5,13.21-33.5,13.21Z" style="fill:#20386f; fill-rule:evenodd;"/><path d="M738.05,422.18c-30.62-4.65-41.02-3.18-59.77,31.7-18.74,34.87-43.68,97.66-58.03,105.78-21.6,12.21-28.76,42.15-37.63,40.81-8.87-1.35-14.58,2.57-4.93,10.6,9.65,8.02,25.24,14.85,30.57,13.43,5.33-1.42,9.47-24.46,23.39-31.93,13.92-7.48,9.73-13.62,8.82-20.24-.91-6.62,40.63-37.06,71.95-74.94,19.14-23.14,29-38.41,30.45-52.26,1.46-13.84-4.83-22.95-4.83-22.95Z" style="fill:#f9af79; fill-rule:evenodd;"/><path d="M662.14,548.64c7.11-18.03,14.25-47.81,20.95-75.11,9.54-38.83,19.53-48.04,25.86-52.19,7.65-1.92,16.72-1.04,29.1,.84,0,0,6.29,9.11,4.83,22.95-1.46,13.85-11.32,29.12-30.45,52.26-16.49,19.94-35.81,37.83-50.29,51.25Z" style="fill:#f29e63; fill-rule:evenodd;"/><path d="M728.73,452.87s8.15,61.48,15.74,67.73c5.42,4.46,9.27,4.76,13.06-13.57,3.79-18.33-5.9-86.77-5.9-86.77l-22.9,32.61Z" style="fill:#0e2952; fill-rule:evenodd;"/><polygon points="735.22 486.14 810.62 498.81 768.05 437.77 735.65 431.17 716.23 435.64 735.22 486.14" style="fill:#f1944e; fill-rule:evenodd;"/><path d="M891.96,424.64c26.75,48.01,8.48,78.52-24.04,81.63-32.52,3.11-83.84-2.82-113.76-27.69-29.92-24.86-54.48-51.15-51.05-55.08,3.43-3.92,188.85,1.14,188.85,1.14Z" style="fill:#f29e63; fill-rule:evenodd;"/><path d="M740.25,460.46c-5.47-16.43-11.79-29.04-24.02-29.28-12.86-.24-20.76,6.45-21.31,27.48-.65,25.05-1.54,107.99-.38,144.87,.88,27.92-7.26,36.86-6.57,65.95,.52,21.93-22.85,10.85-13.82,22.22,6.21,7.82,24.68,5.26,36.03,3.81,10.11-1.29-5.23-31.6,8.76-39.7,12.01-6.95,12.25-18.23,4.66-26.78-7.58-8.55-.84-33.82,4.21-51.53,5.06-17.7,12.9-36.85,18.05-78.7,1.47-11.93-2.26-28.31-5.61-38.35Z" style="fill:#f9af79; fill-rule:evenodd;"/><path d="M682.13,682.75c3.87,1.19,8.65,2.49,12.81,2.62,8.43,.28,10.96-8.99,11.52-21.58,.49-10.99,8.48-28.31,16.67-35.34,.15,.2,.3,.4,.47,.58,7.58,8.55,7.35,19.84-4.66,26.78-13.99,8.1,1.35,38.41-8.76,39.7-11.35,1.44-29.83,4-36.03-3.81-5.87-7.39,1.41-7.97,7.99-8.95Z" style="fill:#0e2952; fill-rule:evenodd;"/><path d="M583.53,600.46c3.27,2.91,7.39,6.37,11.54,8.5,8.41,4.33,16.21-2.55,23.87-13.3,6.7-9.38,14.01-23.05,26.29-25.23,.04,.25,.08,.5,.15,.74,2.9,11.15,6.86,23.31-9.26,23.56-18.79,.31-20.27,34.25-31.27,30.48-12.35-4.24-32.57-10.95-34.48-20.79-1.8-9.31,5.93-6.29,13.17-3.96Z" style="fill:#0e2952; fill-rule:evenodd;"/><path d="M721.7,625.9s12.29,12.84,11.17,18.18c-1.13,5.34-4.91,18.82-5.55,29.22-.63,10.4-1.2,22.32-1.2,22.32,0,0-4.43,0-4.77-1.26-.36-1.25-2.81-42.24-2.81-42.24l3.16-26.22Z" style="fill:#0e2952; fill-rule:evenodd;"/><path d="M645.23,570.44s5.27,17.18,1.12,21.31c-4.15,4.12-5.04,13.56-11.55,22.34-6.5,8.78-13.79,18.95-13.79,18.95,0,0-4.5-2.15-4.15-3.42,.34-1.26,20.94-38.32,20.94-38.32l7.43-20.86Z" style="fill:#0e2952; fill-rule:evenodd;"/><path d="M904.84,420.26s12.41,50.94,1.99,76.36c-5.27,12.86-13.18,14.37-45.58,13.58-31.45-.77-71.09-1.49-81.73-1.99-13.27-.75-27.89,14.27-27.89,14.27,0,0,9.27-37.57,2.95-67.91-6.32-30.34-16.52-32.38-16.52-32.38l13.57-1.92h153.21Z" style="fill:#1d417f; fill-rule:evenodd;"/><path d="M908.43,402.65c-6.79,14.4,7.31,39.26,2.37,46.42-4.94,7.16-33.21,1.01-51.74-13.9-18.52-14.92-53.58-18.19-53.58-18.19l102.95-14.33Z" style="fill:#6d96ce; fill-rule:evenodd;"/><path d="M833.71,224.14c-7.04,1.79-11.01,2.51-18.01,3.62-2.81,.45,4.73,6.69,18.49-3.31,.33-.24,.06-.45-.48-.31Z" style="fill:#eb795b; fill-rule:evenodd;"/><path d="M828.26,187.78c-3.36,1.11-2.49,3.79,.2,3.8,28.66,.06,8.12-6.54-.2-3.8Z" style="fill:#20386f; fill-rule:evenodd;"/><path d="M812.84,189.16c3.51,.44,3.17,3.24,.53,3.77-28.12,5.55-9.22-4.87-.53-3.77Z" style="fill:#20386f; fill-rule:evenodd;"/><path d="M815.16,223.45h-.18c-3.07-.71-4.7-1.14-5.27-2.31-.53-1.06,.01-2.26,.99-4.43,1.1-2.39,2.75-6.03,4.19-12.03,.1-.44,.55-.7,.98-.6,.44,.1,.71,.54,.6,.99-1.48,6.14-3.17,9.87-4.29,12.33-.64,1.42-1.2,2.65-1.01,3.02,.26,.52,2.43,1.02,4.18,1.42,.43,.11,.71,.55,.61,1-.09,.36-.43,.62-.8,.62Z" style="fill:#eb795b; fill-rule:evenodd;"/><path d="M808.48,208.22c-2,.28-4.62-7.13,.24-7.79,2.59-.36,3.04,7.34-.24,7.79Z" style="fill:#20386f; fill-rule:evenodd;"/><path d="M757.46,420.26c27.37,0,62.09,.55,80.06-2.16-14.81-40.38-28.53-74.57-40.78-97.15-37.89,2.03-63.77,3.92-77.63,5.67,33.03,65.3,37.33,91.38,38.35,93.65Z" style="fill:#ebeff8; fill-rule:evenodd;"/><path d="M825.51,205.76c-2,.26-4.62-7.13,.23-7.79,2.59-.35,3.04,7.34-.23,7.79Z" style="fill:#20386f; fill-rule:evenodd;"/><path d="M841.65,426.68c-4.31,1.9-23.13,1.95-29.84,.47-6.72-1.48-1.69-10.91,.85-13.58,2.55-2.67,14.38-2.96,15.46-4.05,1.09-1.09-7.04-.87-7.85-2.29-.8-1.43,8.85-1.72,13.58-3.05,1.91,.69,10.69,3.7,17.42,2.72,.21,4.22-.34,9.97,1.92,16.44-2.63,1.03-9.74,2.54-11.54,3.34Z" style="fill:#f9af79; fill-rule:evenodd;"/><path d="M898.18,421.45c2.23-.25,4.48-.51,6.75-.78,.78-.09,1.55-.18,2.34-.27,.15,.96,.32,1.91,.51,2.86-.75,.09-1.48,.18-2.23,.27-2.91,.35-5.82,.68-8.69,1.01-1.57,.18-3.13,.35-4.68,.52-19.66,2.15-36.48,3.48-38.36,1.88,14.92-2.25,15.51-2.75,16.7-2.83,7.56-.5,17.34-1.49,27.67-2.64Z" style="fill:#466fb5; fill-rule:evenodd;"/><path d="M750.19,397.16c6.93,1.26,7.25,1.61,14.31,5.88,1.96,1.19,2.6,1.35,1.65,2.61-.05,0-3.44,.32-4.08,.34-.71,.02,9.72,4.12,9.04,7.93-.41,2.26-4.99,1.83-7.6,1.53-2.7-.32-4.98-.01-7.09,.65-6.29,1.95-14.12-20.39-6.24-18.94Z" style="fill:#f9af79; fill-rule:evenodd;"/><g><path d="M220.4,821.87c.67,3.46-2.86,7.09-7.88,8.1-5.01,1.01-9.62-.96-10.28-4.41-.66-3.46,2.86-7.1,7.88-8.11,5.02-1.07,9.63,.96,10.29,4.42Z" style="fill:#483c1f; fill-rule:evenodd;"/><path d="M124.75,1469.15s-8.37,8.28-8.56,11.33c-.19,3.04-.74,35.6,2.68,38.64,3.42,3.04,13.46,5.19,10.23,8.64-2.44,2.56-21.22,2.03-33.66,1.31-3.64-.18-8.19-29.58-9.63-33.87-2.09-6.26-9.62-19.91-7.72-24.26,.93-2.15,7.8-7.04,14.03-11.09,6.57-4.3,12.85-13.89,12.85-13.89l19.77,23.2Z" style="fill:#f9af79; fill-rule:evenodd;"/><path d="M92.54,1459.61s17.49,53.78,25.05,56.41c2,.71,13.45,3.87,15.27,8.16l.11,.42c.58,2.74-1.71,5.25-4.51,5.25h-35.85s-5.08-24.27-7.09-34.94c0,0-10.65-26.06-9.47-28.44,1.18-2.38,16.5-6.85,16.5-6.85Z" style="fill:#0e2952; fill-rule:evenodd;"/><path d="M236.8,1489.54l-7.51,21.47c-.55,3.46-2.75,11.81-2.75,14.91,0,11.63,51.67-9.83,40.09-14.96-1.05-.47-4.34-4.24-4.68-8.17-.53-6.08,4.35-13.71,4.35-13.71l-29.5,.47Z" style="fill:#f9af79; fill-rule:evenodd;"/><path d="M223.6,1529.79l5.92-18.96s12.43,5.31,18.63,4.42c6.21-.9,18.35-4.42,18.35-4.42,24.8,8.23,45.12,12.29,41.42,18.96h-84.32Z" style="fill:#0e2952; fill-rule:evenodd;"/><path d="M299.46,1076.73l9.98,54.32s24.79,172.57,22.48,184.26c-5.65,28.56-62.72,183.96-62.72,183.96l-36.56-4.65,40.12-183.78-66.86-172.62,93.56-61.48Z" style="fill:#20386f; fill-rule:evenodd;"/><path d="M232.5,1106.84l-26.75,31.19-26.23,163.26-82.55,152.29s12.42,19.08,25.75,22.06l117.16-153.9,63.5-192.73-2.23-42.81-68.65,20.63Z" style="fill:#223f81; fill-rule:evenodd;"/><path d="M425.62,924.88c-.53-1.61-5.92-11.57-5.92-11.57,0,0-.27-16.52,.19-16.75,9.19-3.87,18.43,.24,19.7,9.66v.29c.3,17.71-8.98,34.11-24.07,42.57-3.44,1.91-7.09,3.94-10.83,6.03-.21-7.1-1.18-14.07-3.42-20.81,13.73-4.77,24.55-8.83,24.36-9.42Z" style="fill:#f9af79; fill-rule:evenodd;"/><path d="M261,926.4c0-.9,100.4,26.12,100.4,26.12,0,0,14.61-6.13,40.57-15.25,2.68,8.05,3.95,16.39,4.37,24.8-24.1,13.84-30.95,23.54-37.79,25.33-12.74,3.22-85.36-7.46-85.36-7.46,0,0-22.18-52.89-22.18-53.54Z" style="fill:#466fb5; fill-rule:evenodd;"/><path d="M326.72,1133.08c-.28-1.43-2.72-68.99-18.71-124.74-12.4-43.24-37.64-77.17-46.49-81.87-3.28-1.8-27.75,.35-27.75,.35l12.8,11.27c13.65,13.41,20.59,27.07,30.17,44.18,27.78,49.73,14.81,172.62,17.44,172.51,2.93-.18,33.64-16.04,32.55-21.7Z" style="fill:#6d96ce; fill-rule:evenodd;"/><polygon points="302.79 881.2 306.93 1041.92 424.15 1029.2 421.4 977.19 422.36 872.22 302.79 881.2" style="fill:#fff; fill-rule:evenodd;"/><polygon points="309.38 1041.66 424.15 1029.2 421.4 977.19 422.35 873.65 305.28 882.45 309.38 1041.66" style="fill:#e0e8f5; fill-rule:evenodd; opacity:.63;"/><path d="M216.74,791.44s-21.13-15.45-30.77,10.51c0,0-12.03-4.08-17.49,8.62,0,0-20.75-2.11-19.72,29.01,0,0-10.45,.08-9.42,12.62,1.03,12.62,8.69,19.61,8.69,19.61,0,0-4.82,5.48-.08,16.31,4.03,9.17,12.06,9.09,12.06,9.09,0,0,5.2,15.84,12.98,19.29,7.78,3.53,16.65-.7,16.65-.7,0,0,4.16,8.31,11.99,5.88,7.83-2.43,16.21-12.23,25.82-10.5,9.61,1.64,32.08-6.75,32.08-6.75,0,0,23.75-17.17,10.71-43.04,0,0,11.24-15.45-3.65-28.31,0,0,4.17-25.63-15.83-36.14-20-10.58-34.02-5.49-34.02-5.49Z" style="fill:#20386f; fill-rule:evenodd;"/><path d="M237.56,926.34l-31.98,1.9s-8.48,10.5-8.78,10.56c-3.37,.65,11.62,133.21,14.64,182.35,3.02,49.19,15.42,35.42,15.42,35.42,0,0,34.16,12.64,65.42,3.28,32.5-9.72,21.44-50.87,21.44-50.87,0,0-20.3-90.11-31.42-117.65-11.11-27.67-44.74-65-44.74-65Z" style="fill:#eff8f7; fill-rule:evenodd;"/><path d="M230.89,904.93l5.04,15.21,.89,2.68s10.46,25.4,4.52,31.91c-5.96,6.49-35.77-26.48-35.77-26.48l-6.49-46.93,31.81,23.62Z" style="fill:#f9af79; fill-rule:evenodd;"/><path d="M201.21,896.58c8.77,14.73,24.3,21.7,34.71,23.49l-5.03-15.14-31.81-23.62,2.12,15.27Z" style="fill:#f27458; fill-rule:evenodd;"/><path d="M205.74,829.15c13.13-7.87,29.97-1.25,34.99,13.23,2.18,6.26,4.58,14.25,6.46,23.2,4.49,21.34-2.3,44.43-11.77,46.39-9.47,1.91-38.32-6.67-45.11-36.97-4.19-18.66,1.66-37.62,15.43-45.85Z" style="fill:#f9af79; fill-rule:evenodd;"/><path d="M197.75,876.02c.92,4.71-1.4,9.18-5.17,9.96-3.76,.78-7.54-2.44-8.45-7.21-.91-4.71,1.4-9.19,5.17-9.96,3.76-.78,7.55,2.45,8.45,7.22Z" style="fill:#f9af79; fill-rule:evenodd;"/><path d="M244.73,810.12c11.31,6.03,17.07,17.42,12.85,25.53-4.22,8.11-16.81,9.78-28.13,3.81-11.31-5.96-17.07-17.42-12.85-25.52,4.22-8.11,16.8-9.79,28.12-3.82Z" style="fill:#20386f; fill-rule:evenodd;"/><path d="M252.55,843.04c.85,4.47-1.93,8.76-6.21,9.66-4.28,.83-8.45-2.03-9.3-6.49-.85-4.48,1.92-8.77,6.21-9.66,4.28-.83,8.45,2.03,9.3,6.5Z" style="fill:#20386f; fill-rule:evenodd;"/><path d="M219.79,828.88c1.27,6.69-2.88,13.1-9.28,14.44-6.4,1.24-12.63-3.03-13.9-9.71-1.28-6.69,2.87-13.1,9.28-14.44,6.39-1.24,12.62,3.03,13.9,9.71Z" style="fill:#20386f; fill-rule:evenodd;"/><path d="M202.72,839.08c1.28,6.68-2.88,13.1-9.28,14.43-6.4,1.25-12.63-3.02-13.9-9.71-1.27-6.68,2.87-13.1,9.28-14.43,6.4-1.25,12.63,3.03,13.9,9.71Z" style="fill:#20386f; fill-rule:evenodd;"/><path d="M200.69,856.78c.88,6.68-1.97,13.1-6.36,14.44-4.39,1.24-8.66-3.03-9.53-9.71-.87-6.69,1.97-13.1,6.37-14.44,4.39-1.25,8.66,3.03,9.53,9.71Z" style="fill:#20386f; fill-rule:evenodd;"/><path d="M205.58,928.25s-31.03,5.13-39.53,12.88c-5.4,4.89,4.34,62.55,4.34,62.55,0,0,17.62,55.69,19,72.57,4.68,57.42,2.28,109.9,5.08,111.81,16.3,6.44,73.11-1.8,75.51-8.35,26.54-72.4-64.41-251.47-64.41-251.47Z" style="fill:#6d96ce; fill-rule:evenodd;"/><path d="M174.62,1001.35s59.77,83.73,75.85,89.15c16.08,5.37,44.08-106.68,44.08-106.68,0,0,21.12-23.56,22.9-24.33,3.19,9.69-23.07,12.42-16.64,.72l-6.44-14.12c7.94-11.75-2.52-14.5-9.3,1.77-5.68,13.6-8.29,32.56-11.1,36.55l-29.06,43.65-40.77-58.19-29.51,31.48Z" style="fill:#f9af79; fill-rule:evenodd;"/><path d="M275.42,977.62l17.38,19.2s-22.4,100.65-39.17,101.25c-16.77,.53-74.86-80.26-87.45-103.76-12.59-23.44-9.9-47.35,1.54-54.86,11.45-7.46,28.21,11.03,35.03,18.96,6.81,7.99,42.15,69.65,42.15,69.65l30.51-50.44Z" style="fill:#466fb5; fill-rule:evenodd;"/><path d="M435.55,905.44s.76-3.99,.7-6.2c-.06-2.27-14.53-5.19-18.3-.3-3.77,4.83,10.69,5.37,17.6,6.5Z" style="fill:#f9af79; fill-rule:evenodd;"/><path d="M437.68,913.79s1.99-4.3,1.92-6.57c-.06-2.26-18.97-5.12-22.75-.23-3.77,4.88,13.91,5.72,20.82,6.8Z" style="fill:#f9af79; fill-rule:evenodd;"/><path d="M433.98,921.42s1.99-4.35,1.93-6.62c-.06-2.21-14.54-5.13-18.31-.29-3.77,4.88,9.48,5.78,16.38,6.91Z" style="fill:#f9af79; fill-rule:evenodd;"/><path d="M289.03,948.17l4.2-1.67c1.2-.36,2.35-.89,3.43-1.61,4.33-2.62,16.26-9.6,18.1-7.33,2.25,2.79-16.14,13.29-16.14,13.29,0,0,20.59-10.25,21.8-6.49,1.21,3.75-20.01,13.18-20.01,13.18,0,0,18.85-7.22,19.89-5.19,1.04,2.03-20.77,16.22-20.77,16.22,0,0,17.87-10.92,20.59-9.01,2.72,1.85-27.69,31.96-27.69,31.96l-3.4-43.35Z" style="fill:#f9af79; fill-rule:evenodd;"/><path d="M433.98,921.42s-12.5-2.5-14.66,.36c-2.16,2.86,12.6,7.99,12.6,7.99l-.34,3.82s5.61-8.59,2.4-12.17Z" style="fill:#f9af79; fill-rule:evenodd;"/><path d="M218.36,874.94c-1.92,.59-5.7-6.54-1.03-7.97,2.5-.76,4.17,6.99,1.03,7.97Z" style="fill:#20386f; fill-rule:evenodd;"/><path d="M242.7,867.96c1.92-.59,1.16-8.63-3.51-7.19-2.49,.75,.34,8.17,3.51,7.19Z" style="fill:#20386f; fill-rule:evenodd;"/><path d="M216.93,859.76c3.13-.84,3.81,1.75,1.76,3.13-.6,.41-12.41,6.74-12.09,5.8,.58-1.94,4.4-7.34,10.33-8.93Z" style="fill:#20386f; fill-rule:evenodd;"/><path d="M234.07,854.18c-3.12,.92-2.38,3.5,.09,3.6,1.16,.04,14.22-.66,13.15-1.52-1.77-1.37-7.57-3.78-13.24-2.08Z" style="fill:#20386f; fill-rule:evenodd;"/><path d="M239.32,882.53c-6.73,3.27-6.47-.14-4.4-.1,6.85,.12-.17-2.58-1.11-14.27-.08-1.23,1.29-1.31,1.5-.32,.14,.69,.36,3.26,.57,4,2.49,9.02,5.59,9.63,3.44,10.68Z" style="fill:#ed7d57; fill-rule:evenodd;"/><path d="M242.02,887.43c-6.1,19.32-18.86,5.22-16.2,4.27,13.54-4.85,16.96-6.63,16.2-4.27Z" style="fill:#fff; fill-rule:evenodd;"/></g><g><polygon points="679.41 1081.89 620.94 1128.26 645.89 1146.26 679.41 1081.89" style="fill:#c4d1eb; fill-rule:evenodd;"/><polygon points="608.41 1120.01 677.43 1082.62 587.66 1115.84 608.41 1120.01" style="fill:#c4d1eb; fill-rule:evenodd;"/><polygon points="608.41 1120.01 618.97 1150.06 620.94 1128.26 679.41 1081.89 677.43 1082.62 608.41 1120.01" style="fill:#9db2d9; fill-rule:evenodd;"/><polygon points="618.97 1150.06 631.99 1136.24 620.94 1128.26 618.97 1150.06" style="fill:#859ac6; fill-rule:evenodd;"/><path d="M609,1143.13c1.58-.9,.17-3-1.15-2.25-.77,.4-1.52,.8-2.27,1.24-1.44,.83-.19,3.03,1.26,2.2,.72-.41,1.43-.8,2.17-1.19h0Zm-199.72,36.86c-1.16-1.39-2.99,.36-2.02,1.53l1.56,2.03c1.12,1.34,3-.35,1.99-1.58l-1.52-1.98h0Zm6.4,7.66c-1.24-1.24-2.96,.62-1.84,1.74,.59,.62,1.19,1.24,1.79,1.85,1.17,1.17,2.97-.61,1.78-1.8-.59-.59-1.16-1.19-1.73-1.79h0Zm7.24,6.85c-1.27-1.06-2.89,.88-1.61,1.95,.65,.55,1.32,1.09,2,1.62,1.19,.99,2.91-.86,1.55-2-.65-.51-1.3-1.03-1.93-1.57h0Zm8.02,5.91c-1.59-.91-2.67,1.38-1.37,2.13,.72,.47,1.45,.92,2.18,1.37,1.5,.85,2.69-1.38,1.3-2.17-.71-.44-1.42-.87-2.11-1.32h0Zm8.68,4.87c-1.65-.7-2.51,1.68-1.09,2.28,.77,.37,1.55,.73,2.33,1.08,1.56,.67,2.52-1.67,1.02-2.31-.76-.34-1.51-.69-2.26-1.05h0Zm9.22,3.77c-1.45-.55-2.47,1.77-.8,2.4,.81,.27,1.62,.54,2.44,.79,1.77,.45,2.2-2.05,.73-2.42-.8-.24-1.59-.5-2.37-.77h0Zm9.61,2.65c-1.51-.37-2.25,2.06-.52,2.49,.83,.17,1.67,.34,2.51,.5,1.83,.22,1.94-2.31,.46-2.49-.82-.15-1.63-.32-2.45-.5h0Zm9.86,1.55c-1.58-.19-1.98,2.31-.25,2.52,.85,.09,1.71,.16,2.56,.22,1.48,.19,2-2.29,.17-2.52l-2.48-.22h0Zm9.97,.47c-1.64,0-1.67,2.53,.02,2.53,.85,0,1.71-.01,2.56-.04,1.56,0,1.68-2.53-.09-2.53-.83,.03-1.67,.04-2.5,.04h0Zm9.97-.56c-1.7,.22-1.33,2.72,.28,2.51,.85-.09,1.7-.19,2.54-.3,1.61-.2,1.35-2.72-.34-2.51-.83,.11-1.65,.21-2.48,.29h0Zm9.87-1.57c-1.72,.43-.99,2.86,.53,2.47,.83-.17,1.67-.36,2.5-.56,1.64-.41,1-2.86-.59-2.46-.82,.19-1.62,.37-2.44,.55h0Zm9.64-2.57c-1.67,.62-.65,2.95,.8,2.4,.81-.27,1.62-.54,2.42-.83,1.61-.6,.67-2.95-.85-2.38-.79,.28-1.57,.54-2.37,.8h0Zm9.31-3.6c-1.45,.62-.55,2.99,1.06,2.3,.78-.36,1.55-.72,2.31-1.09,.73-.42,.83-1.06,.61-1.58l.41,.08c1.84,.23,1.93-2.31,.46-2.49-.81-.16-1.6-.34-2.4-.55-1.61-.39-2.23,2.05-.61,2.46l-1.86,.87h0Zm8.78-4.68c-1.32,.76-.22,3.04,1.36,2.14,.73-.46,1.46-.92,2.16-1.41,1.39-1-.13-3.02-1.44-2.08-.68,.47-1.38,.91-2.08,1.35h0Zm7.95-5.9c-1.19,1,.32,3.02,1.69,1.89,.65-.58,1.27-1.17,1.89-1.77,1.19-1.19-.61-2.97-1.78-1.8-.59,.58-1.19,1.14-1.8,1.69h0Zm6.55-7.29c-.93,1.3,1.08,2.84,2.09,1.43,.5-.72,.97-1.47,1.41-2.23,.83-1.45-1.37-2.7-2.2-1.26-.41,.7-.83,1.39-1.3,2.05h0Zm3.99-8.71c-.38,1.53,2.04,2.25,2.47,.54,.2-.88,.35-1.73,.46-2.63,.2-1.59-2.31-1.98-2.52-.27-.1,.8-.23,1.57-.41,2.36h0Zm-.13-9.39c.37,1.49,2.86,1.03,2.43-.72-.24-.86-.52-1.7-.86-2.53-.66-1.54-2.98-.54-2.33,.99,.31,.72,.55,1.5,.76,2.26h0Zm-4.42-8.55c1.12,1.34,2.97-.2,2.04-1.51-.51-.7-1.03-1.38-1.57-2.05-1.09-1.31-3.01,.34-1.96,1.59,.52,.65,1.01,1.29,1.5,1.97h0Zm-6.65-7.13c1.19,1,2.92-.86,1.55-2-.7-.55-1.39-1.05-2.13-1.54-1.61-.93-2.67,1.38-1.39,2.11,.68,.46,1.33,.92,1.97,1.42h0Zm-8.48-4.38c1.66,.42,2.22-2.05,.65-2.44-.86-.24-1.75-.41-2.63-.55-1.7-.21-1.96,2.31-.34,2.51,.77,.11,1.58,.27,2.33,.47h0Zm-9.44-.27c1.73-.43,.98-2.85-.52-2.47-.86,.17-1.74,.4-2.58,.67-1.52,.57-.91,2.83,.78,2.4,.75-.24,1.55-.45,2.32-.6h0Zm-8.81,3.74c1.42-1.02-.13-3.02-1.42-2.1-.74,.5-1.44,1.01-2.13,1.55-1.31,1.1,.34,3.01,1.6,1.97,.62-.5,1.3-.98,1.96-1.42h0Zm-7.08,6.6c.99-1.19-.86-2.92-2-1.54-.54,.69-1.05,1.4-1.54,2.13-.92,1.6,1.39,2.67,2.13,1.38,.43-.68,.92-1.33,1.41-1.97h0Zm-4.68,8.47c.56-1.51-1.78-2.46-2.39-.84-.3,.83-.55,1.67-.78,2.52-.41,1.64,2.05,2.23,2.45,.62,.21-.78,.44-1.55,.71-2.31h0Zm-1.51,9.45c0-1.51-2.53-1.7-2.53,.13,.04,.88,.12,1.78,.26,2.66,.19,1.54,2.72,1.37,2.5-.41-.13-.78-.2-1.58-.23-2.38h0Zm2.49,9.15c-.87-1.51-3.02-.18-2.23,1.21,.41,.78,.89,1.57,1.4,2.28,.97,1.37,3.03-.11,2.07-1.46-.45-.65-.88-1.34-1.24-2.03h0Zm6.17,7.28c-1.21-1.01-2.92,.86-1.56,1.99,.69,.55,1.38,1.06,2.11,1.57,1.52,.86,2.72-1.17,1.4-2.11-.68-.46-1.32-.93-1.96-1.44h0Zm8.43,4.96c-1.57-.68-2.51,1.67-1.03,2.31,.79,.35,1.57,.69,2.37,1.02,1.57,.58,2.48-1.7,.94-2.36-.77-.31-1.53-.64-2.28-.98h0Zm19.02,4.63c.82,0,1.63,0,2.45-.06,1.48-.19,2,2.29,.17,2.52-.87,.06-1.74,.07-2.61,.06-1.67,0-1.66-2.53,0-2.53h0Zm9.67-1.26c-1.53,.38-1.02,2.86,.68,2.43,.82-.21,1.7-.51,2.5-.79,1.61-.6,.67-2.95-.85-2.38-.74,.27-1.56,.55-2.32,.74h0Zm8.99-3.83c-1.43,.82-.2,3.03,1.27,2.19,.74-.42,1.51-.88,2.22-1.36,1.28-.73,.23-3.04-1.39-2.11-.68,.45-1.39,.88-2.1,1.28h0Zm8.06-5.72c-1.26,1.05,.33,3.01,1.63,1.93,.66-.55,1.3-1.12,1.94-1.69,1.19-1-.32-3.02-1.69-1.88-.62,.55-1.25,1.1-1.88,1.64h0Zm7.25-6.88c-1.13,1.13,.6,2.98,1.83,1.75l1.75-1.87c1.17-1.39-.89-2.87-1.86-1.71-.57,.61-1.13,1.23-1.71,1.83h0Zm6.7-7.48c-1.08,1.3,.88,2.89,1.93,1.64l1.63-1.94c1.07-1.29-.88-2.9-1.94-1.63l-1.63,1.93h0Zm6.46-7.77c-1.06,1.26,.87,2.9,1.95,1.6l1.61-1.95c1.06-1.27-.87-2.91-1.95-1.62l-1.61,1.96h0Zm6.5-7.79c-1.1,1.31,.88,2.9,1.92,1.65l1.65-1.9c1.12-1.34-.88-2.9-1.9-1.67l-1.66,1.93h0Zm6.82-7.58c-1.14,1.14,.6,2.97,1.82,1.75l1.75-1.78c1.19-1.19-.61-2.96-1.78-1.8l-1.8,1.82h0Zm7.47-7.03c-1.28,1.06,.34,3,1.62,1.94,.62-.52,1.28-1.07,1.93-1.56,1.38-1.15-.36-3-1.54-2-.68,.52-1.35,1.06-2.01,1.62Z" style="fill:#859ac6; fill-rule:evenodd;"/></g><g><polygon points="228.46 512.16 371.06 500.89 233.41 506.4 259.38 493.62 294.14 486.08 372.52 500.85 258.5 538.55 214.55 530.94 228.46 512.16" style="fill:#c4d1eb; fill-rule:evenodd;"/><polygon points="252.43 554.82 372.52 500.85 258.5 538.55 245.13 536.23 252.43 554.82" style="fill:#9db2d9; fill-rule:evenodd;"/><polygon points="235.46 511.61 371.06 500.89 233.41 506.4 235.46 511.61" style="fill:#b0c2e4; fill-rule:evenodd;"/></g><g><path d="M192.74,715.97l79.27,32.28c1.94,.78,2.87,3.01,2.08,4.94l-18.05,44.34c-.79,1.94-3.01,2.87-4.94,2.08l-79.28-32.27c-1.93-.79-2.87-3.02-2.08-4.95l18.05-44.34c.79-1.93,3.01-2.87,4.95-2.08Z" style="fill:#c4d1eb; fill-rule:evenodd;"/><path d="M225.13,756.61l18.96,27.32,10.6,15.28c-1.02,.7-2.37,.91-3.6,.4l-79.28-32.27c-1.23-.5-2.05-1.59-2.29-2.8l18.26-3.53,32.62-6.31c2.42-.49,3.33-.07,4.72,1.91Z" style="fill:#9db2d9; fill-rule:evenodd;"/><path d="M222.89,762.11l32.65-6.32,18.81-3.64c.17-1.63-.74-3.27-2.34-3.92l-79.27-32.28c-1.6-.65-3.39-.12-4.41,1.17l10.92,15.74,18.94,27.3c1.39,2.04,2.33,2.37,4.71,1.93Z" style="fill:#e0e8f5; fill-rule:evenodd;"/></g><g><path d="M486.86,983.91l67.23-84.24c1.64-2.05,4.66-2.39,6.71-.75l47.12,37.6c2.05,1.64,2.39,4.66,.75,6.71l-67.22,84.24c-1.64,2.05-4.66,2.39-6.71,.75l-47.12-37.6c-2.05-1.64-2.39-4.66-.75-6.71Z" style="fill:#c4d1eb; fill-rule:evenodd;"/><path d="M547.48,959.27l39.75-13.16,22.23-7.36c.49,1.49,.25,3.18-.79,4.48l-67.22,84.24c-1.04,1.31-2.64,1.92-4.2,1.77l2.25-23.31,4.01-41.65c.27-3.1,1.1-4.04,3.98-5.01Z" style="fill:#9db2d9; fill-rule:evenodd;"/><path d="M553.33,963.93l4.01-41.68,2.31-24.01c-1.91-.79-4.21-.27-5.56,1.43l-67.23,84.24c-1.35,1.7-1.36,4.05-.16,5.74l22.9-7.58,39.72-13.15c2.96-.94,3.7-1.97,4.01-4.99Z" style="fill:#e0e8f5; fill-rule:evenodd;"/></g><g><path d="M801.82,1180.01l243.27,99.05c5.93,2.41,8.8,9.24,6.39,15.17l-55.41,136.08c-2.42,5.93-9.25,8.8-15.17,6.39l-243.27-99.05c-5.93-2.41-8.8-9.24-6.39-15.17l55.41-136.08c2.41-5.93,9.24-8.81,15.17-6.39Z" style="fill:#c4d1eb; fill-rule:evenodd;"/><path d="M901.23,1304.72l58.17,83.86,32.54,46.89c-3.13,2.17-7.27,2.77-11.04,1.24l-243.27-99.04c-3.77-1.54-6.31-4.86-7.03-8.6l56.04-10.83,100.12-19.36c7.41-1.51,10.2-.22,14.47,5.85Z" style="fill:#9db2d9; fill-rule:evenodd;"/><path d="M894.35,1321.62l100.19-19.37,57.73-11.16c.52-5.02-2.29-10.02-7.18-12.02l-243.27-99.05c-4.9-1.99-10.41-.37-13.54,3.59l33.51,48.3,58.12,83.78c4.25,6.26,7.15,7.28,14.44,5.93Z" style="fill:#e0e8f5; fill-rule:evenodd;"/></g><g><path d="M1130.29,269.61l253.85-26.82c6.19-.66,11.79,3.87,12.44,10.06l15,142.01c.66,6.19-3.87,11.78-10.06,12.44l-253.86,26.83c-6.19,.65-11.79-3.87-12.44-10.07l-15.01-142c-.65-6.19,3.87-11.79,10.07-12.44Z" style="fill:#c4d1eb; fill-rule:evenodd;"/><path d="M1272.7,330.8l88.32,45.12,49.39,25.23c-1.68,3.3-4.94,5.71-8.88,6.13l-253.86,26.83c-3.94,.42-7.63-1.26-9.96-4.13l43.03-35.01,76.88-62.54c5.66-4.69,8.64-4.86,15.09-1.63Z" style="fill:#9db2d9; fill-rule:evenodd;"/><path d="M1274.56,348.43l76.94-62.58,44.32-36.06c-1.85-4.55-6.56-7.54-11.67-7l-253.85,26.83c-5.12,.54-9.1,4.45-9.96,9.29l50.88,25.99,88.25,45.1c6.51,3.41,9.47,2.95,15.09-1.56Z" style="fill:#e0e8f5; fill-rule:evenodd;"/></g><g><path d="M624.16,1529.86s17.95-16.67,33.07-22.24c15.12-5.55,22.67-13.89,32.12-20.84,9.45-6.95,23.62-22.24,36.85-23.62,13.23-1.39,27.4,11.11,40.62,15.28,13.23,4.17,44.41-12.51,59.52-15.28,15.12-2.78,34.01-10.42,34.01-10.42,0,0,16.06-22.24,18.89-25.01,2.85-2.78,23.62-13.21,23.62-13.21,0,0,16.06,15.28,20.79,18.76,4.73,3.48,34.02,38.9,34.02,38.9,0,0,6.62-5.56,11.33-6.26,4.73-.69,19.84,4.87,19.84,4.87l13.23,19.45s20.87-28.74,31.19-35.43c16.06-10.42,25.5-7.64,25.5-7.64,0,0,15.11,11.11,25.51,17.37,10.39,6.26,45.34,22.92,52.91,31.96,7.56,9.03,32.12,13.2,44.41,15.29,12.29,2.08,56.68,18.06,56.68,18.06H624.16Z" style="fill:#d0a382; fill-rule:evenodd;"/><path d="M910.06,1452.11c-1.41,3.48,6.14,15.29,6.14,15.29l27.4,18.75v9.12l4.68,34.58h68.52s-30.23-28.58-34.49-34.58c-4.25-6-24.63-23.08-24.63-23.08l-29.68-35.01-18.89,1.04-4.71,5.91,5.66,7.98Z" style="fill:#835e42; fill-rule:evenodd;"/><polygon points="902.98 1413.22 879.83 1426.07 869.44 1439.96 876.06 1438.57 874.64 1444.82 873.22 1454.2 887.39 1437.53 886.91 1441.35 893.05 1437.87 897.3 1443.78 909.11 1438.23 922.81 1450.03 920.92 1437.87 928.48 1444.48 939.35 1451.08 925.18 1432.66 902.98 1413.22" style="fill:#f5d1b5; fill-rule:evenodd;"/><polygon points="922.33 1496.51 909.58 1480.59 896.84 1472.19 904.4 1493.54 904.4 1503.52 885.03 1511.51 879.83 1529.86 927.53 1529.86 931.23 1501.02 922.33 1496.51" style="fill:#835e42; fill-rule:evenodd;"/><polygon points="988.86 1470.81 983.27 1475.73 988.86 1479.56 983.27 1487.19 995.08 1502.48 1002.09 1490.25 988.86 1470.81" style="fill:#bf9071; fill-rule:evenodd;"/><path d="M1058.78,1447.18l-5.13,9.1,9.92,4.52,7.56,5.55-4.59,9.73-8.64,12.16h42.52s26.92,12.38,25.51,12.79c-1.42,.41-9.93,5.27-7.56,5.27s16.55,2.77,17.49,2.43c.93-.34-31.07,21.13-31.07,21.13h133.5s-24.51-14.53-43.88-18.7c-19.36-4.17-45.39-8.81-48.44-14.65-3.05-5.84-28.55-17.78-43.19-25.7-14.66-7.92-35.1-21.96-44-23.62Z" style="fill:#835e42; fill-rule:evenodd;"/><path d="M624.16,1529.86s6.95-14.03,16.66-16.62c9.72-2.59,12.82-8.09,22.24-10.76,9.42-2.68,38.81-26.01,38.81-26.01,0,0,8.87,3.03,9.81,7.06,.95,4.02-2.05,7.72-3.15,12.99-1.1,5.27,10.72,9.45,12.61,12.57,1.88,3.12-31.65,20.78-31.65,20.78h-65.32Z" style="fill:#f5d1b5; fill-rule:evenodd;"/><polygon points="825.52 1488.52 841.1 1481.99 853.38 1470.81 867.56 1463.16 883.14 1454.2 879.83 1471.36 867.08 1478.85 867.08 1493.54 875.58 1495.28 864.71 1525.39 812.1 1501.02 825.52 1488.52" style="fill:#f5d1b5; fill-rule:evenodd;"/><polygon points="799 1486.64 809.46 1476.46 830.7 1476.46 848.74 1465.32 826.45 1470.81 809.46 1470.81 782.53 1483.52 799 1486.64" style="fill:#f5d1b5; fill-rule:evenodd;"/><path d="M726.2,1463.16c10.27,1.28,21.37,2.84,26.1,4.93,4.72,2.08,8.96,9.18,19.83,11.02,10.87,1.83,38.83,7.04,39.97,9.47,1.12,2.43-4.53,4.96-4.53,4.96,4.25,2.69,27.39,7.2,36.36,12.42,8.98,5.2,27.87,23.9,27.87,23.9h-119.03s69.44-6.54,76.04-10.71c6.62-4.17-2.44-10.07-4.76-11.46-2.32-1.39-37.75-7.77-40.11-11.18-2.36-3.41,2.13-4.45,2.13-4.45,0,0-21.97-5.22-24.8-7.3-2.83-2.08-6.3-11.43-10.95-14.05-4.64-2.61-24.13-7.54-24.13-7.54Z" style="fill:#835e42; fill-rule:evenodd;"/><polygon points="1033.27 1454.83 1002.09 1483.52 995.08 1502.48 992.68 1508.73 1016.81 1529.86 1033.27 1529.86 1022.01 1511.85 1033.27 1508.73 1042.31 1486.64 1022.48 1493.54 1034.29 1481.99 1044.67 1476.46 1035.23 1470.81 1033.27 1454.83" style="fill:#835e42; fill-rule:evenodd;"/><polygon points="900.53 1427.78 909.11 1438.23 922.81 1450.03 924.04 1442.14 939.35 1451.08 925.18 1432.66 903.47 1412.45 900.53 1427.78" style="fill:#bf9071; fill-rule:evenodd;"/></g><g><polygon points="762.79 68.67 640.15 118.94 673.82 161.95 762.79 68.67" style="fill:#c4d1eb; fill-rule:evenodd;"/><polygon points="622.85 98.68 759.04 68.94 589.5 81.33 622.85 98.68" style="fill:#c4d1eb; fill-rule:evenodd;"/><polygon points="622.85 98.68 626.04 155.14 640.15 118.94 762.79 68.67 759.04 68.94 622.85 98.68" style="fill:#9db2d9; fill-rule:evenodd;"/><polygon points="626.04 155.14 655.07 138 640.15 118.94 626.04 155.14" style="fill:#859ac6; fill-rule:evenodd;"/><path d="M603.83,128c2.87-.36,3.54,4.12,.49,4.5l-4.47,.53c-2.92,.36-3.52-4.12-.53-4.5l4.52-.53h0Zm-255.82,289.67c-2.69-1.54-.74-5.23,1.96-4.08,1.34,.62,2.66,1.24,4.01,1.84,2.76,1.18,.97,5.33-1.76,4.16l-4.21-1.92h0Zm17.24,6.61c-2.72-.68-1.83-5.12,1.24-4.35,1.43,.4,2.83,.77,4.27,1.12,2.98,.75,1.78,5.1-1.02,4.4-1.51-.36-2.98-.76-4.48-1.17h0Zm18.25,3.28c-2.97-.37-2.75-4.51,.29-4.51,1.47,.09,2.91,.16,4.39,.18,2.95,0,2.98,4.53-.02,4.53-1.53-.1-3.1-.09-4.65-.19h0Zm18.58-.97c-2.99,.37-3.75-3.71-.83-4.45,1.44-.25,2.86-.58,4.29-.93,2.9-.72,3.99,3.66,1.1,4.39-1.51,.37-3.03,.72-4.56,.98h0Zm17.73-5.82c-2.3,1.31-4.89-2.41-2-4.06,1.31-.63,2.58-1.34,3.84-2.05,2.65-1.51,4.81,2.46,2.29,3.9-1.34,.78-2.73,1.54-4.13,2.21h0Zm15.44-10.46c-2.45,2.04-5.15-1.59-3.02-3.36,1.04-.93,2.21-2,3.16-3.02,2.17-2.16,5.29,1.11,3.24,3.15-1.11,1.11-2.21,2.18-3.38,3.23h0Zm12.2-14.05c-1.67,2.33-5.32,.21-3.75-2.53,.83-1.23,1.61-2.45,2.37-3.71,1.42-2.48,5.42-.37,3.88,2.33-.79,1.34-1.63,2.63-2.5,3.92h0Zm8.65-16.42c-1.01,2.7-5.29,1.24-4.21-1.65,.55-1.37,1.06-2.76,1.55-4.15,1.1-2.93,5.27-1.18,4.28,1.48-.51,1.45-1.05,2.9-1.62,4.33h0Zm5.5-17.54c-.73,2.92-5.11,1.79-4.39-1.08l1.03-4.35c.76-3.03,5.1-1.77,4.42,.98l-1.05,4.45h0Zm3.75-17.83c-.33,2.64-4.86,2.46-4.45-.82l.8-4.44c.33-2.67,4.86-2.46,4.46,.8l-.81,4.46h0Zm3.18-17.82c-.33,2.65-4.86,2.46-4.45-.8l.84-4.48c.71-2.85,4.82-2.21,4.44,.85l-.82,4.43h0Zm3.65-17.57c-.73,2.9-5.11,1.79-4.39-1.09,.36-1.48,.73-2.97,1.14-4.44,.69-2.74,5.12-1.82,4.36,1.21-.42,1.35-.77,2.93-1.11,4.33h0Zm4.5-15.96c-1.6,1.18-4.31-.34-3.43-2.69,.37-.96,.78-1.9,1.19-2.84-.2-1.11,.51-2.02,1.43-2.39,1.53-1.01,4.14,.37,3.42,2.61,.35,.96,.71,1.93,1.09,2.87,.92,2.46-2.16,4.04-3.7,2.45h0Zm9.08-16.38c-2,2.4-5.31-.34-3.64-2.69,.92-1.26,1.91-2.5,2.95-3.68,1.81-2.18,5.4,.59,3.39,2.99-.95,1.09-1.85,2.22-2.7,3.38h0Zm12.39-11.92c-2.86,1.63-4.78-2.47-2.46-3.8,1.33-.87,2.65-1.66,4.04-2.43,2.45-1.4,4.86,2.44,2.13,3.99-1.28,.69-2.5,1.44-3.71,2.24h0Zm15.81-7.04c-2.98,.75-3.96-3.67-1.16-4.37,1.51-.42,3.01-.77,4.53-1.09,2.63-.66,4.04,3.65,.89,4.44-1.43,.29-2.85,.63-4.26,1.02h0Zm17.42-2.78c-2.66,.33-3.58-4.11-.32-4.51,1.54-.11,3.06-.19,4.6-.24,3.15,0,2.95,4.52,.14,4.52-1.48,.06-2.95,.13-4.43,.24h0Zm17.6,.34c-2.9-.37-2.41-4.86,.61-4.48,1.54,.19,3.06,.44,4.59,.73,2.85,.71,2.21,4.83-.86,4.44-1.45-.27-2.88-.5-4.34-.68h0Zm16.77,4.53c-2.62-1.13-.98-5.34,1.87-4.12,1.48,.67,2.82,1.39,4.24,2.16,2.53,1.44,.36,5.41-2.28,3.9l2.28-3.9-2.28,3.9c-1.26-.7-2.51-1.34-3.82-1.94h0Zm13.74,9.97c-1.97-2.36,1.58-5.17,3.43-2.95,1.05,1.18,2.05,2.51,2.92,3.82,1.65,2.9-2.47,4.78-3.78,2.49-.78-1.16-1.64-2.31-2.56-3.36h0Zm7.39,14.99c-.38-3.02,3.72-3.74,4.44-.84,.31,1.59,.51,3.15,.63,4.76,0,3.02-4.14,3.28-4.52,.27-.1-1.42-.28-2.8-.56-4.2h0Zm-.93,16.79c.64-2.57,5.12-1.86,4.32,1.35-.47,1.54-1.01,3-1.65,4.47-1.16,2.71-5.33,.97-4.15-1.8,.57-1.34,1.05-2.63,1.48-4.02h0Zm-8.36,14.82c1.8-2.17,5.4,.57,3.39,3-1.03,1.17-2.15,2.35-3.3,3.41-2.35,1.96-5.17-1.22-3.08-3.31,1.04-.97,2.05-2.03,2.99-3.09h0Zm-13.51,10.66c2.47-1.42,4.86,2.43,2.15,3.98-1.38,.74-2.78,1.44-4.22,2.08-2.8,1.2-4.5-2.99-1.82-4.14,1.33-.6,2.61-1.24,3.89-1.92h0Zm-16.28,6.09c2.67-.67,4.03,3.65,.92,4.43-1.53,.34-3.06,.63-4.61,.86-2.99,.37-3.51-4.12-.59-4.48,1.45-.26,2.83-.49,4.28-.8h0Zm-17.28,1.12c3.07,.39,2.37,4.86-.47,4.5-1.53-.14-3.19-.39-4.69-.7-3.12-.78-1.75-5.09,.91-4.43,1.38,.27,2.87,.5,4.26,.62h0Zm-16.57-4.7c2.68,1.52,.74,5.23-1.97,4.07-1.42-.67-2.82-1.43-4.17-2.22-2.49-1.42-.35-5.41,2.32-3.88,1.22,.73,2.53,1.42,3.82,2.03h0Zm-14.27-9.86c2.23,2.23-1.11,5.29-3.1,3.3-1.14-1.06-2.27-2.17-3.33-3.31-2.08-2.49,1.59-5.14,3.33-3.05,.98,1.06,2.04,2.09,3.09,3.07h0Zm-11.21-13.43c1.63,2.86-2.48,4.77-3.8,2.46-.84-1.29-1.65-2.62-2.43-3.95-1.5-2.62,2.45-4.82,3.92-2.26,.74,1.27,1.5,2.52,2.31,3.76h0Zm-13.14-32.58c.66,2.62-3.65,4.04-4.44,.88-.31-1.52-.59-3.03-.84-4.55-.39-3.12,4.12-3.48,4.47-.69,.27,1.46,.51,2.89,.81,4.35h0Zm-2.16-17.57c0,3.15-4.52,2.94-4.52,.14-.05-1.54-.09-3.06-.09-4.6,0-2.97,4.52-2.98,4.52,0,0,1.49,.04,2.96,.09,4.45h0Zm.69-17.72c-.37,2.96-4.86,2.4-4.49-.56,.18-1.53,.4-3.06,.64-4.58,.34-2.7,4.86-2.45,4.46,.77-.28,1.38-.44,2.97-.61,4.38h0Zm3.52-17.35c-.67,2.66-5.12,1.85-4.34-1.29,.42-1.48,.89-2.93,1.37-4.4,1.11-2.97,5.26-1.16,4.29,1.44-.46,1.42-.91,2.82-1.31,4.25h0Zm6.29-16.54c-1.65,2.9-5.37,.29-4.06-2,.67-1.39,1.35-2.75,2.08-4.12,1.55-2.7,5.39-.32,3.98,2.15-.69,1.31-1.35,2.64-1.99,3.97h0Zm8.92-15.29c-1.72,2.41-5.42-.2-3.68-2.64,.89-1.25,1.79-2.49,2.72-3.72,2.04-2.44,5.36,.63,3.58,2.77-.9,1.18-1.76,2.37-2.62,3.58h0Zm11.3-13.66c-2.15,2.14-5.3-1.11-3.23-3.18,1.06-1.1,2.16-2.18,3.27-3.24,2-2,5.33,1.07,3.11,3.29-1.07,1.02-2.12,2.05-3.15,3.13h0Zm13.28-11.75c-2.07,1.72-5.23-1.52-2.71-3.62,1.22-.93,2.46-1.85,3.71-2.72,2.36-1.69,5.06,1.93,2.58,3.71-1.21,.85-2.4,1.73-3.58,2.63h0Zm14.85-9.77c-2.54,1.45-4.84-2.44-2.2-3.95,1.33-.75,2.68-1.49,4.04-2.21,2.36-1.35,4.87,2.42,2.06,4.03-1.31,.68-2.62,1.41-3.9,2.13h0Zm16.01-7.82c-2.67,1.15-4.53-2.97-1.72-4.18,1.41-.59,2.84-1.16,4.26-1.71,2.79-1.05,4.38,3.19,1.59,4.24-1.38,.52-2.77,1.08-4.13,1.65h0Zm16.8-6c-3.1,.78-3.95-3.67-1.26-4.34l4.39-1.26c3-.75,3.96,3.67,1.17,4.37l-4.3,1.24h0Zm17.36-4.36c-2.65,.66-4.03-3.65-.91-4.44,1.49-.31,2.99-.59,4.48-.87,3.28-.41,3.46,4.12,.82,4.45-1.47,.28-2.94,.55-4.4,.86Z" style="fill:#859ac6; fill-rule:evenodd;"/></g><g><polygon points="1429.03 456.55 1551.67 506.82 1517.99 549.83 1429.03 456.55" style="fill:#c4d1eb; fill-rule:evenodd;"/><polygon points="1568.97 486.55 1432.78 456.82 1602.32 469.21 1568.97 486.55" style="fill:#c4d1eb; fill-rule:evenodd;"/><polygon points="1568.97 486.55 1565.78 543.01 1551.67 506.82 1429.03 456.55 1432.78 456.82 1568.97 486.55" style="fill:#9db2d9; fill-rule:evenodd;"/><polygon points="1565.78 543.01 1536.75 525.88 1551.67 506.82 1565.78 543.01" style="fill:#859ac6; fill-rule:evenodd;"/><path d="M1587.99,515.88c-2.87-.36-3.54,4.11-.49,4.5l4.47,.52c2.92,.37,3.53-4.12,.53-4.49l-4.51-.53h0Zm255.82,289.67c2.69-1.54,.73-5.24-1.96-4.08-1.34,.62-2.66,1.24-4.02,1.83-2.74,1.19-.96,5.34,1.77,4.16l4.21-1.91h0Zm-17.24,6.6c2.72-.68,1.83-5.11-1.24-4.35-1.42,.39-2.83,.76-4.27,1.11-2.97,.75-1.78,5.11,1.03,4.4,1.52-.35,2.98-.76,4.48-1.17h0Zm-18.25,3.28c2.97-.37,2.76-4.51-.29-4.51-1.46,.09-2.92,.16-4.38,.18-2.95,0-2.98,4.53,.02,4.53,1.53-.1,3.1-.09,4.65-.19h0Zm-18.58-.96c3,.37,3.76-3.72,.83-4.45-1.44-.24-2.87-.58-4.29-.92-2.9-.73-3.99,3.66-1.1,4.38,1.5,.37,3.03,.73,4.55,.99h0Zm-17.72-5.82c2.29,1.31,4.89-2.41,2-4.07-1.32-.62-2.58-1.34-3.85-2.05-2.64-1.51-4.81,2.46-2.28,3.91,1.34,.78,2.73,1.54,4.13,2.21h0Zm-15.44-10.47c2.45,2.04,5.14-1.59,3.02-3.36-1.03-.93-2.21-2-3.15-3.02-2.17-2.17-5.29,1.1-3.25,3.15,1.11,1.11,2.21,2.18,3.38,3.23h0Zm-12.2-14.04c1.67,2.33,5.32,.21,3.75-2.53-.83-1.22-1.61-2.45-2.37-3.71-1.42-2.48-5.42-.37-3.88,2.33,.79,1.33,1.64,2.63,2.5,3.91h0Zm-8.65-16.41c1.01,2.69,5.29,1.23,4.21-1.66-.55-1.37-1.06-2.75-1.55-4.14-1.09-2.93-5.27-1.18-4.27,1.47,.51,1.46,1.04,2.89,1.62,4.33h0Zm-5.5-17.54c.73,2.92,5.11,1.78,4.39-1.08l-1.03-4.35c-.75-3.04-5.1-1.77-4.42,.98l1.06,4.45h0Zm-3.74-17.83c.32,2.63,4.86,2.46,4.44-.83l-.8-4.44c-.33-2.67-4.86-2.45-4.45,.8l.82,4.47h0Zm-3.19-17.82c.33,2.64,4.86,2.46,4.45-.81l-.83-4.48c-.72-2.84-4.83-2.21-4.44,.86l.82,4.43h0Zm-3.65-17.58c.73,2.9,5.12,1.79,4.4-1.08-.36-1.48-.73-2.97-1.15-4.44-.69-2.75-5.12-1.82-4.35,1.21,.42,1.34,.78,2.93,1.11,4.32h0Zm-4.5-15.96c1.6,1.18,4.3-.34,3.42-2.69-.37-.96-.77-1.9-1.19-2.85,.2-1.11-.51-2.02-1.42-2.39-1.54-1.01-4.15,.37-3.42,2.61-.35,.96-.7,1.93-1.09,2.87-.93,2.46,2.15,4.05,3.69,2.45h0Zm-9.08-16.38c2,2.4,5.32-.35,3.63-2.69-.92-1.26-1.91-2.51-2.94-3.68-1.82-2.18-5.4,.58-3.4,2.98,.95,1.08,1.85,2.22,2.7,3.38h0Zm-12.39-11.92c2.86,1.63,4.78-2.47,2.46-3.8-1.32-.87-2.64-1.66-4.04-2.43-2.45-1.39-4.86,2.44-2.13,3.99,1.27,.69,2.5,1.44,3.71,2.23h0Zm-15.8-7.04c2.97,.75,3.96-3.67,1.15-4.38-1.5-.4-3-.76-4.53-1.09-2.64-.65-4.04,3.65-.89,4.44,1.44,.29,2.86,.64,4.27,1.02h0Zm-17.42-2.78c2.65,.33,3.58-4.11,.31-4.51-1.54-.11-3.06-.19-4.6-.24-3.15,0-2.95,4.52-.14,4.52,1.48,.05,2.95,.13,4.43,.23h0Zm-17.6,.35c2.9-.36,2.41-4.86-.6-4.48-1.54,.2-3.07,.45-4.59,.73-2.85,.7-2.21,4.82,.85,4.44,1.45-.27,2.89-.5,4.35-.69h0Zm-16.78,4.53c2.63-1.12,.98-5.34-1.86-4.12-1.48,.68-2.82,1.39-4.25,2.16-2.53,1.44-.35,5.42,2.29,3.9l-2.29-3.9,2.29,3.9c1.26-.7,2.51-1.34,3.82-1.94h0Zm-13.74,9.97c1.97-2.36-1.58-5.17-3.43-2.95-1.04,1.19-2.04,2.51-2.92,3.83-1.65,2.89,2.47,4.77,3.78,2.48,.79-1.16,1.64-2.31,2.57-3.36h0Zm-7.39,14.99c.38-3.02-3.72-3.74-4.45-.84-.31,1.59-.51,3.16-.62,4.77,0,3.01,4.15,3.28,4.52,.27,.1-1.42,.28-2.8,.55-4.2h0Zm.93,16.79c-.65-2.57-5.12-1.86-4.32,1.35,.47,1.54,1.01,3,1.65,4.47,1.16,2.72,5.34,.97,4.15-1.8-.56-1.34-1.05-2.64-1.47-4.02h0Zm8.36,14.82c-1.8-2.16-5.4,.58-3.38,3,1.03,1.18,2.15,2.35,3.3,3.41,2.35,1.95,5.16-1.23,3.08-3.31-1.04-.98-2.05-2.03-2.99-3.1h0Zm13.51,10.66c-2.47-1.41-4.85,2.44-2.14,3.98,1.38,.74,2.78,1.44,4.22,2.08,2.79,1.2,4.5-2.99,1.83-4.14-1.33-.6-2.62-1.24-3.9-1.92h0Zm16.29,6.09c-2.68-.67-4.04,3.66-.92,4.43,1.53,.33,3.05,.63,4.61,.85,2.99,.38,3.51-4.12,.58-4.48-1.45-.25-2.84-.49-4.27-.8h0Zm17.28,1.13c-3.07,.38-2.38,4.86,.47,4.5,1.54-.13,3.19-.39,4.7-.7,3.12-.78,1.75-5.09-.91-4.43-1.37,.27-2.87,.5-4.25,.62h0Zm16.57-4.71c-2.68,1.53-.74,5.23,1.97,4.07,1.42-.68,2.82-1.44,4.17-2.23,2.49-1.42,.35-5.41-2.33-3.88-1.22,.73-2.53,1.42-3.81,2.03h0Zm14.28-9.85c-2.23,2.23,1.11,5.28,3.1,3.3,1.13-1.06,2.27-2.18,3.33-3.31,2.08-2.49-1.6-5.14-3.33-3.06-.98,1.06-2.04,2.09-3.09,3.08h0Zm11.21-13.44c-1.63,2.86,2.47,4.78,3.8,2.46,.85-1.3,1.65-2.61,2.43-3.95,1.49-2.62-2.46-4.83-3.92-2.27-.74,1.27-1.5,2.53-2.31,3.76h0Zm13.13-32.58c-.65,2.63,3.64,4.04,4.44,.88,.31-1.52,.58-3.02,.84-4.55,.39-3.12-4.12-3.48-4.47-.69-.27,1.46-.52,2.9-.81,4.35h0Zm2.16-17.57c0,3.16,4.52,2.95,4.52,.14,.06-1.54,.09-3.06,.09-4.6,0-2.96-4.53-2.98-4.53,.01,0,1.48-.03,2.96-.09,4.44h0Zm-.7-17.7c.37,2.95,4.86,2.39,4.49-.57-.19-1.53-.4-3.06-.65-4.58-.34-2.7-4.86-2.46-4.46,.76,.27,1.38,.44,2.97,.61,4.38h0Zm-3.52-17.36c.67,2.66,5.12,1.85,4.34-1.28-.42-1.48-.89-2.94-1.37-4.4-1.11-2.97-5.26-1.17-4.28,1.44,.46,1.41,.91,2.82,1.32,4.24h0Zm-6.29-16.54c1.65,2.89,5.37,.29,4.06-2-.67-1.38-1.35-2.75-2.08-4.11-1.54-2.71-5.39-.32-3.98,2.14,.7,1.31,1.35,2.64,2,3.97h0Zm-8.92-15.29c1.72,2.41,5.42-.2,3.68-2.63-.89-1.26-1.78-2.5-2.72-3.72-2.04-2.44-5.36,.63-3.58,2.77,.9,1.18,1.76,2.38,2.62,3.59h0Zm-11.3-13.66c2.15,2.15,5.3-1.1,3.23-3.17-1.07-1.11-2.16-2.18-3.27-3.24-2-2-5.33,1.06-3.12,3.28,1.07,1.02,2.13,2.06,3.15,3.12h0Zm-13.28-11.75c2.06,1.72,5.22-1.53,2.71-3.62-1.22-.93-2.46-1.85-3.71-2.72-2.36-1.69-5.07,1.94-2.58,3.71,1.21,.86,2.41,1.73,3.58,2.63h0Zm-14.85-9.76c2.53,1.44,4.84-2.44,2.2-3.95-1.34-.75-2.69-1.49-4.04-2.21-2.36-1.36-4.87,2.41-2.06,4.02,1.32,.68,2.62,1.41,3.91,2.13h0Zm-16.02-7.82c2.67,1.14,4.54-2.98,1.73-4.18-1.42-.6-2.84-1.16-4.27-1.72-2.79-1.05-4.38,3.19-1.59,4.24,1.38,.52,2.77,1.09,4.12,1.66h0Zm-16.8-6c3.1,.77,3.94-3.67,1.26-4.35l-4.4-1.26c-2.99-.75-3.96,3.67-1.17,4.37l4.3,1.24h0Zm-17.36-4.37c2.66,.66,4.04-3.65,.9-4.43-1.49-.32-2.99-.59-4.48-.88-3.28-.41-3.46,4.12-.82,4.45,1.47,.28,2.94,.55,4.4,.86Z" style="fill:#859ac6; fill-rule:evenodd;"/></g><g><polygon points="622.15 1513.91 540.76 1513.91 514.13 1408.66 646.94 1408.66 622.15 1513.91" style="fill:#b0c2e4; fill-rule:evenodd;"/><rect x="505.25" y="1394.98" width="148.73" height="13.68" style="fill:#9db2d9;"/><polygon points="580.53 1408.66 514.13 1408.66 540.76 1513.91 580.53 1513.91 580.53 1408.66" style="fill:#9db2d9; fill-rule:evenodd;"/><rect x="505.25" y="1394.98" width="75.29" height="13.68" style="fill:#859ac6;"/><polygon points="622.15 1515.49 540.76 1515.49 514.13 1501.28 646.94 1501.28 622.15 1515.49" style="fill:#9db2d9; fill-rule:evenodd;"/><polygon points="580.53 1501.28 514.13 1501.28 540.76 1515.49 580.53 1515.49 580.53 1501.28" style="fill:#859ac6; fill-rule:evenodd;"/><path d="M656.85,1207.85c0-.63,.02-1.27,.03-1.91,.04-1.61-2.09-2.54-3.22-1.34-6.28,6.78-12.16,13.94-17.44,21.51-2.75,3.96-5.31,8.07-7.57,12.33-1.5,2.82-3.02,5.73-3.79,8.87-1.42,5.79-1.52,11.97-1.72,17.9-.1,2.8-.16,5.6-.29,8.41-.05,.98-.1,1.96-.22,2.93-.02,.21-.02,.19-.1,.59-.04,.16-.05,.24-.05,.29-.5,.86-.19,1.83,.43,2.42-10.98,17.49-20.3,35.78-27.82,55.02-7.47,19.11-16.58,38.03-15.96,59.06,.01,.47,.17,.85,.4,1.13h3.05c.22-.29,.34-.66,.33-1.13-.6-20.4,8.27-38.91,15.59-57.44,7.05-17.83,15.5-34.81,25.46-51.15,.31,.8,1.07,1.35,2.11,.93,7.95-3.15,15.49-7.5,21.09-14.07,4.58-5.38,7.39-11.95,8.84-18.82,3.11-14.91,.73-30.45,.87-45.53Z" style="fill:#9db2d9; fill-rule:evenodd;"/><path d="M654.41,1236.31c-2.78,2.78-5.75,6.12-9.15,8.51,1.1-3.58,1.98-7.24,2.87-10.89,2.5-2.56,6.18-4.12,8.95-6.27,1.92-1.49-.77-4.15-2.67-2.67-1.55,1.21-3.24,2.21-4.87,3.25,1.19-4.73,2.54-9.48,4.82-13.79,1.13-2.16-2.12-4.07-3.26-1.9-3.27,6.19-4.99,13.03-6.62,19.88-.33,.39-.64,.8-.93,1.25-.51,.79-.33,1.55,.13,2.08-.74,3.12-1.52,6.22-2.46,9.25,.29-5.6,.92-11.16,2-16.67,.47-2.37-3.17-3.38-3.64-1-1.6,8.12-2.31,16.39-2.33,24.66,0,.66,.28,1.15,.69,1.45-2,4.28-4.38,8.36-6.85,12.39-.18-7.52-.35-15.17,1.55-22.4,.62-2.36-3.02-3.35-3.64-1-2.5,9.5-1.63,19.64-1.57,29.38-2.04,3.33-4.02,6.7-5.78,10.18-1.1,2.17,2.16,4.08,3.25,1.91,1.67-3.3,3.56-6.48,5.49-9.61,5.6,.46,10.73-2.18,16.28-2.29,2.43-.04,2.44-3.82,0-3.77-4.76,.09-9.26,2.04-13.95,2.31,.77-1.24,1.56-2.49,2.32-3.74,.35-.57,.7-1.15,1.04-1.73,.2-.09,.4-.22,.6-.4,3.82-3.76,8.26-6.82,12.08-10.58,1.74-1.71-.93-4.38-2.67-2.67-1.65,1.61-3.4,3.1-5.18,4.57,.89-1.9,1.72-3.84,2.49-5.82,5.32-2.43,9.61-7.13,13.66-11.18,1.72-1.72-.95-4.4-2.67-2.67Z" style="fill:#859ac6; fill-rule:evenodd;"/><path d="M582.53,1364.49c-2.24-7.21-5.41-14.5-9.7-20.74-9.85-14.32-23.4-25.63-33.41-39.81,.22-.09,.44-.22,.65-.4,5.6-5.25,6.77-13.89,6.98-21.16,.11-3.89-.2-7.8-.77-11.67-.66-4.43-2.2-8.64-3.84-12.8-3.78-9.61-8.9-18.61-15.27-26.75-4.12-5.27-10.86-13.08-18.4-11.65-.12,.03-.24,.06-.36,.1-1.07,.27-1.48,1.31-1.32,2.31,3,17.93-1.79,36.19,1.91,54.08,2.58,12.5,11.35,27.52,25.7,27.7,9.65,14.5,23.09,25.86,33.39,39.84,4.4,5.98,7.64,12.76,10.09,19.76,2.37,6.77,4.44,14.63,2.9,21.82-.51,2.37,3.13,3.38,3.64,1,1.53-7.18-.04-14.74-2.18-21.63Z" style="fill:#9db2d9; fill-rule:evenodd;"/><path d="M540.68,1280.93c-1.08,4.35-3.06,8.4-4.41,12.63-.69-3.6-1.49-7.17-2.4-10.73,1.06,.2,2.27-.39,2.21-1.78-.19-4.22,3.65-7.51,4.46-11.57,.48-2.38-3.16-3.39-3.64-1.01-.71,3.57-3.3,6.33-4.26,9.73-.89-3.25-1.85-6.49-2.87-9.71,.14-.12,.27-.27,.39-.45,2.32-3.6,3.6-7.67,4.72-11.77,.64-2.36-3-3.35-3.64-1.01-.8,2.92-1.66,5.8-3,8.5-1.05-3.15-2.12-6.3-3.23-9.43,.18-.19,.33-.42,.43-.7,1.23-3.43,3.7-6.19,4.53-9.81,.54-2.37-3.1-3.38-3.65-1.01-.55,2.42-1.87,4.5-3.05,6.65-.79-2.18-1.58-4.37-2.37-6.55,.87-3.17,1.27-6.44,1.89-9.66,.46-2.38-3.18-3.4-3.63-1.01-.26,1.31-.48,2.63-.7,3.94-1.48-4.07-2.94-8.15-4.35-12.24-.79-2.28-4.44-1.31-3.64,1.01,1.72,4.99,3.51,9.96,5.32,14.93-.73-.67-1.46-1.35-2.16-2.05-1.73-1.71-4.4,.96-2.67,2.67,1.96,1.94,4.08,3.71,6.04,5.66,.4,.39,.85,.55,1.27,.55,.72,1.97,1.43,3.94,2.13,5.91-1.85-1.13-3.75-2.21-5.27-3.84-1.66-1.78-4.32,.88-2.67,2.67,2.72,2.92,7.19,3.93,9.52,7.17,.22,.29,.47,.5,.75,.64,.98,2.87,1.95,5.75,2.88,8.63-1.13-1.06-2.47-1.85-3.85-2.58-1.82-.96-3.78-1.8-4.82-3.69-1.18-2.13-4.44-.23-3.26,1.9,2.26,4.09,7.27,4.53,10.11,7.93,.92,1.11,2.23,.62,2.82-.35,.87,2.79,1.69,5.6,2.46,8.41-3.87-2.33-7.34-5.29-10.54-8.46-1.73-1.71-4.4,.96-2.67,2.67,3.74,3.7,7.86,7.16,12.46,9.73,.66,.37,1.29,.31,1.8,.02,.79,3.1,1.51,6.21,2.15,9.36-3.5-3.82-7.94-6.77-10.81-11.21-1.32-2.04-4.58-.14-3.26,1.9,3.98,6.16,11.05,9.55,14.35,16.23,.27,.55,.68,.84,1.13,.93,.06,.42,.13,.84,.19,1.26,.32,2.18,3.32,1.54,3.64-.36,.62-.25,1.13-.8,1.2-1.65,.48-6.33,4.08-11.92,5.59-18,.59-2.36-3.06-3.36-3.64-1Z" style="fill:#859ac6; fill-rule:evenodd;"/><path d="M673.61,1330.38c-2.33-13.97-7.21-28.85-18.11-38.49,1.27-1.16,.26-3.81-1.77-3.22-6.85,2-13.13,5.28-18.05,10.52-.79,.85-1.54,1.72-2.25,2.63-.1-1.05-1.01-2.09-2.35-1.83-6.68,1.36-11.93,6.61-16.03,11.73-5.17,6.44-9.22,13.73-12.88,21.11-3.24,6.52-6.06,13.23-9,19.89-.08,.11-.15,.21-.21,.32-2.36,3.63-3.62,8.13-4.89,12.22-.29,.93-.58,1.87-.88,2.8-.35-10.56-1.67-21.19-1.69-31.61,0-.08,0-.16-.01-.23,6.97-5.49,12.91-12.13,15.99-20.58,2.65-7.27,2.4-15.2,.7-22.65-3.74-16.34-13.82-30.6-21.52-45.23-2.53-4.8-4.87-9.72-6.56-14.89-.55-1.7-3.19-1.91-3.64,0-4.09,17.63-16.35,32.19-19.81,50.03-1.71,8.88-.4,17.51,3.28,25.73,1.19,2.67,3.1,5.03,4.92,7.29,2.21,2.75,4.59,5.36,6.97,7.95,1.42,1.52,2.86,3.05,4.27,4.58,.46,.5,.93,1.01,1.37,1.54,.04,.04,.17,.21,.25,.31,0,.01,.02,.03,.03,.04,0,0,0-.01-.01-.01,.04,.04,.04,.04-.01-.03-.04-.07-.08-.19-.1-.33,.16,.58,.57,1.12,1.15,1.38,2.19,2.92,4.62,5.56,7.62,7.86,.48,.37,.96,.44,1.38,.32,.35,13.71,2.6,27.81,1.45,41.53-.92,3.42-1.68,6.87-2.14,10.35-.27,1.21-.55,2.43-.83,3.64h4.28c1.04-3.6,1.73-7.24,2.15-10.91,1.52-6.16,3.21-12.27,5.29-18.27,.15-.43,.31-.86,.46-1.29-.16,10.48,3.39,21.27,7.45,30.54,6.44,14.7,15.88,28.69,27.42,39.89,2.45,2.39,5.08,4.61,7.87,6.6,1.03,.73,2.42-.06,2.77-1.14,3-9.31,4.45-19.09,3.54-28.87-.82-8.89-3.64-17.41-7.71-25.33-4.33-8.43-10.16-16.04-16.38-23.16-3.22-3.67-6.54-7.33-10.31-10.45-2.23-1.85-4.81-3.66-7.82-3.79h-.37c1.09-2.44,2.19-4.86,3.29-7.28,3.39-7.47,7.12-14.84,11.61-21.71,3.84-5.89,8.58-12.13,15.08-15.24,1.01-.48,2.11-.8,3.21-1.02-2.37,3.36-4.34,7.02-6.2,10.69-.64,.09-1.22,.5-1.4,1.34-1.31,5.83-.8,11.61,2.42,16.73,3.11,4.96,8.06,8.54,12.79,11.83,.32,.22,.64,.32,.94,.33,1.62,1.47,3.26,2.87,4.84,4.19,5.44,4.55,11.1,8.86,16.26,13.71,4.32,4.08,8.59,8.79,10.31,14.61,.61,2.07,3.65,1.63,3.71-.5,.11-3.89,.19-7.77,.21-11.66v-2.99c-.05-10.55-.61-21.1-2.35-31.53Z" style="fill:#c4d1eb; fill-rule:evenodd;"/><path d="M594.01,1304.26c-3.73,3.25-6.94,6.98-10.1,10.78-.22-3.54-.51-7.06-.95-10.58,3.29-3.73,6.75-7.31,9.94-11.12,1.56-1.85-1.1-4.53-2.67-2.67-2.56,3.05-5.28,5.95-7.95,8.89-.43-2.7-.94-5.4-1.56-8.08-.31-1.37-.64-2.74-.97-4.12,.02-.05,.03-.09,.05-.14,1.64-5.32,5.82-9.38,8.88-13.89,1.37-2.02-1.9-3.9-3.27-1.9-2.29,3.38-5.04,6.48-7.09,9.99-.68-2.88-1.33-5.78-1.87-8.7,.8,.07,1.62-.32,1.84-1.35,.8-3.62,3-6.39,5.56-8.98,1.71-1.73-.96-4.4-2.67-2.67-2.27,2.29-4.3,4.79-5.56,7.7-.77-5.98-.86-12,.41-17.95,.51-2.37-3.13-3.38-3.64-1.01-1.31,6.19-1.29,12.43-.56,18.64-2.17-2.8-4.62-5.39-6.85-8.15-1.53-1.89-4.18,.8-2.67,2.67,2.93,3.63,6.3,6.95,8.77,10.94,.43,.7,1.09,.94,1.72,.88,.59,3.22,1.3,6.43,2.05,9.61-4.5-3.6-8.86-7.42-14.01-10.06-2.17-1.11-4.08,2.16-1.91,3.26,6.13,3.15,11.15,7.95,16.61,12.08,.22,.17,.44,.27,.66,.33,.15,.63,.3,1.27,.46,1.9,.91,3.81,1.62,7.62,2.16,11.45-5.88-4.39-12.87-7.17-18.73-11.65-1.94-1.48-3.81,1.8-1.9,3.26,6.14,4.69,13.64,7.43,19.59,12.35,.21,.83,.94,1.51,1.73,1.57,.41,3.92,.67,7.85,.84,11.79-.22,.26-.43,.52-.65,.78-.11,.12-.2,.26-.27,.39-4.57-3.18-9.24-6.23-14.06-9-2.12-1.22-4.01,2.04-1.9,3.25,5.89,3.38,11.55,7.19,17.09,11.14,.07,3.28,.09,6.58,.09,9.89,0,2.44,3.78,2.44,3.78,0,0-5.08-.04-10.15-.23-15.2,3.96-4.76,7.83-9.6,12.51-13.66,1.84-1.61-.84-4.27-2.67-2.67Z" style="fill:#859ac6; fill-rule:evenodd;"/><path d="M637.07,1418.72c-2.31-1.73-4.72-3.51-6.31-5.93-1.39-3.93-2.9-7.81-4.51-11.65,1.93,1.45,3.78,2.98,5.52,4.68,1.73,1.71,4.4-.96,2.67-2.67-3.37-3.32-7.21-6.07-11.13-8.71-1.71-3.75-3.52-7.46-5.43-11.11,1.99,1.31,4.02,2.54,5.97,3.92,2,1.4,3.88-1.88,1.9-3.26-2.42-1.71-4.99-3.21-7.43-4.89-1.9-1.31-4.04-2.92-4.53-5.31-.23-1.06-1.09-1.45-1.91-1.34-1.49-2.55-3.01-5.07-4.57-7.57,3.23,1.84,6.33,3.87,10.2,4.43,2.37,.34,3.41-3.29,1-3.64-5.65-.83-9.8-4.9-15.04-6.77-.65-.98-1.3-1.96-1.96-2.94-1.35-2-4.62-.12-3.26,1.91,.55,.8,1.09,1.62,1.62,2.44-.23,.29-.37,.67-.37,1.13v20.4c0,2.43,3.77,2.43,3.77,0v-16.27c1.81,2.87,3.59,5.78,5.29,8.72-.44,.29-.76,.8-.77,1.49-.02,7.08-.73,14.11-1.51,21.14-.27,2.42,3.51,2.39,3.78,0,.65-5.82,1.24-11.63,1.43-17.47,2.57,4.65,4.99,9.38,7.25,14.17-.31,.53-.41,1.21-.16,1.8-1.06-.98-3.43,.05-3.17,1.99,.67,4.92,.67,9.94,0,14.86-.32,2.38,3.32,3.41,3.64,1.01,.77-5.65,.77-11.21,0-16.86-.03-.16-.06-.3-.1-.43,.1,.11,.22,.21,.35,.29,.32,.22,.65,.44,.98,.65,1.97,4.35,3.81,8.76,5.49,13.22-1.1,0-2.32,.93-2.05,2.36,.73,3.89,.62,7.93,0,11.83-.37,2.38,3.26,3.41,3.64,1,.49-3.08,.71-6.17,.55-9.25,2.22,6.51,4.12,13.12,5.63,19.83,.53,2.37,4.17,1.37,3.64-1-1.08-4.83-2.37-9.61-3.84-14.33,.6,.46,1.21,.91,1.82,1.37,1.95,1.46,3.82-1.82,1.9-3.25Z" style="fill:#859ac6; fill-rule:evenodd;"/><path d="M674.64,1349.68c-2.83-1.48-4.98-3.81-7.36-5.86-1.54-3.98-3.31-7.87-5.25-11.66,2.38,.32,4.7,.83,6.75,2.11,2.07,1.29,3.96-1.98,1.9-3.26-3.28-2.05-7.03-2.39-10.78-2.82-2.3-4.12-4.84-8.12-7.65-11.9,4.3,.11,8.63,1,12.56,2.7,2.21,.96,4.13-2.3,1.91-3.26-5.44-2.35-11.46-3.51-17.39-3.17-.44-.53-.87-1.06-1.32-1.58-.82-.95-1.67-1.87-2.54-2.77,1.98-.22,3.94-.55,5.9-.83,3.21-.47,6.77-1.05,9.93-.09,2.33,.71,3.32-2.94,1-3.64-6.61-2.01-13.85,.89-20.57,1.06-2.69-2.28-5.63-4.22-8.88-5.59-2.25-.95-3.21,2.71-1.01,3.64,1.73,.73,3.37,1.69,4.92,2.79-.01,.28,.05,.57,.18,.88,1.19,2.59,.4,6.17-.03,8.84-.53,3.33-1.31,6.66-1.36,10.03-.04,2.44,3.74,2.43,3.78,0,.06-5.07,2.23-10.67,1.99-15.9,1.53,1.48,2.95,3.05,4.29,4.6,.18,.2,.35,.42,.52,.63-.55,.28-.96,.81-.96,1.61,0,5.75-.02,11.49-1.63,17.05-.68,2.35,2.97,3.34,3.64,1.01,1.52-5.27,1.73-10.7,1.76-16.14,2.58,3.43,4.91,7.07,7.04,10.81-.25,.21-.44,.52-.55,.93-1.36,5.22-.14,10.75-2.27,15.85-.93,2.24,2.72,3.22,3.64,1.01,1.76-4.21,1.24-8.67,1.75-13.03,1.75,3.39,3.33,6.87,4.74,10.4-.1,.28-.13,.58-.05,.88-.57,.52-.82,1.35-.27,2.21,1.56,2.36,.19,6.17-.19,8.74-.36,2.38,3.28,3.41,3.64,1,.12-.75,.27-1.54,.42-2.36,1.59,5.73,2.71,11.78,2.1,17.72-.25,2.42,3.53,2.4,3.77,0,.65-6.42-.65-12.99-2.35-19.15-.2-.7-.41-1.42-.63-2.13,.94,.73,1.92,1.39,2.98,1.95,2.15,1.14,4.06-2.13,1.9-3.26Z" style="fill:#859ac6; fill-rule:evenodd;"/><path d="M575.75,1377.5c.64-2.94,1.05-5.94,1.1-8.92,2.16,5.93,2.82,12.56,2.93,18.73-.41-1.03-.86-2.05-1.29-3.04-.91-2.06-1.88-4.09-2.89-6.1,.05-.22,.11-.45,.16-.67h0Zm1.54,14.21c.2,.71,.36,1.42,.39,1.92,0,.09-.01,.48-.01,.6-.23,.27-.36,.55-.42,.83h5.77c.13-.22,.22-.47,.25-.75,1.01-8.69,.08-18.46-2.9-26.7-1.19-3.28-2.75-7.36-5.34-9.97-.32-.81-.68-1.62-1.09-2.41-.83-1.62-2.85-.96-3.37,.36-2.15,.13-4.23,1.59-6.05,2.95-3.12-5.19-6.38-10.32-9.93-15.17-3.31-4.53-7.21-9.91-12.41-12.4-2.04-.97-4.2-1.23-6.27-.23-2.1,1.01-3.27,3.36-4,5.52-.52,.36-.93,.88-1.29,1.48-2.25-1.72-4.74-3.13-7.42-4.17-.48-.79-1.43-1.23-2.42-.55-10.05,6.98-17.67,15.91-21.71,27.56-5.25,15.16-1.18,31.47-5.2,46.8-.39,1.48,1.37,3.16,2.77,2.14,4.67-3.39,10.36-4.83,15.31-7.73,4.77-2.81,9.13-6.38,13.25-10.04,8.06-7.17,15.68-16.73,17.9-27.52,.57-.27,.96-.81,.91-1.64-.62-8.36-4.45-16.5-10.46-22.33,.15-.27,.31-.55,.49-.8,.58-.2,1.04-.67,1.22-1.29,.33-1.11,.74-2.16,1.38-3.14,.43-.65,.92-.97,1.42-1.12,.51-.17,.89-.12,1.65,.1,.86,.24,1.68,.78,2.49,1.33,4.43,3.05,7.81,7.95,10.84,12.29,3,4.29,5.83,8.76,8.55,13.29-12.81,11.28-18.28,29.13-19.84,45.66-.66,7.01-1.06,14.59,.84,21.43,.34,1.24,1.68,1.65,2.77,1.13,12.3-5.95,18.92-18.87,23.76-30.99,1.87-4.69,3.62-9.48,5.03-14.37,.32,.68,.63,1.36,.94,2.04,.85,1.91,1.63,3.87,2.22,5.88Z" style="fill:#c4d1eb; fill-rule:evenodd;"/><path d="M533.56,1340.14c1.34-2.04-1.93-3.94-3.26-1.9-.57,.88-1.18,1.73-1.79,2.59-.27,.06-.52,.17-.74,.33-.41-.34-.96-.52-1.62-.39-3.49,.74-6.85,2.12-10.44,2.21-2.44,.05-2.44,3.83,0,3.76,3.39-.07,6.57-1.13,9.83-1.95-1.94,2.56-3.83,5.13-5.35,7.97-.15,.27-.29,.55-.43,.83,.27-1.43-1.19-3.07-2.74-2.05-3.3,2.16-7.15,4.17-11.12,4.65-2.39,.29-2.41,4.07,0,3.77,3.6-.43,7.04-1.74,10.23-3.48,.39,.91,.77,1.83,1.12,2.75-.35,.84-.7,1.67-1.05,2.49-.69,1.62-1.37,3.23-2.02,4.87,.07-1.32-1.31-2.72-2.81-1.84-4.31,2.51-9.7,3.61-12.76,7.85-1.42,1.98,1.86,3.86,3.26,1.9,1.25-1.72,3.42-2.69,5.29-3.56,1.46-.69,2.95-1.31,4.4-2.03-.04,1.29,.13,2.53,.39,3.76-.22,.58-.45,1.16-.69,1.74-.23,.09-.45,.23-.66,.44-3.95,3.89-8.51,7.06-12.46,10.95-1.73,1.71,.94,4.38,2.68,2.66,1.91-1.88,3.98-3.6,6.04-5.32-3.89,6.92-8.12,13.68-9.58,21.6-.43,2.38,3.2,3.39,3.64,1,1.16-6.29,4.06-11.94,7.18-17.52,.38,2.39,.78,4.78,.82,7.21,.03,2.43,3.8,2.44,3.77,0-.06-4.3-1.27-8.46-1.48-12.73,.8-1.44,1.58-2.9,2.31-4.35,.37,1.39,.65,2.79,.68,4.25,.07,2.43,3.84,2.44,3.78,0-.09-3.25-1.38-6.32-2.13-9.44,1.1-2.82,2-5.69,3.16-8.48,.56,2.08,1,4.2,1.3,6.34,.34,2.41,3.98,1.38,3.64-1-.52-3.66-1.44-7.22-2.67-10.68,.6-1.38,1.23-2.76,1.89-4.12,1.2-2.49,2.76-4.78,4.41-6.99,.86,4.15,2.39,8.2,2.47,12.48,.05,2.43,3.81,2.44,3.78,0-.11-5.73-2.8-11.05-3.01-16.7,.96-1.26,1.9-2.54,2.76-3.87Z" style="fill:#859ac6; fill-rule:evenodd;"/><path d="M570.23,1360.5c-2.21,2.82-4.17,5.78-5.95,8.87-.48-.02-.98,.16-1.37,.48-.56-.16-1.2-.06-1.74,.47-2.16,2.1-4.73,3.65-7.17,5.37-1.97,1.39-.09,4.67,1.9,3.26,1.76-1.25,3.58-2.42,5.3-3.73-1.1,2.32-2.13,4.68-3.07,7.08-.11,.05-.24,.1-.36,.18-3.23,1.94-7.4,2.87-9.82,5.96-1.47,1.89,1.17,4.58,2.67,2.67,1.39-1.78,3.52-2.77,5.64-3.7-.69,2-1.33,4-1.95,6.03-.34-.01-.7,.09-1.07,.37-3.33,2.5-6.68,5.07-8.98,8.6-1.33,2.05,1.93,3.94,3.26,1.91,1.37-2.12,3.26-3.84,5.24-5.42-.57,2.13-1.13,4.28-1.65,6.41-2.99,2.13-5.94,4.18-7.99,7.3-1.33,2.04,1.94,3.94,3.26,1.9,.92-1.39,2.09-2.54,3.37-3.56-.52,2.23-1.03,4.44-1.53,6.63-.55,2.37,3.09,3.38,3.64,1.01,.35-1.52,.7-3.05,1.06-4.57,.08,.39,.15,.78,.2,1.17,.15,1.02,1.42,1.57,2.32,1.32,1.08-.3,1.48-1.31,1.32-2.33-.34-2.21-1-4.39-2.4-6.11,.52-2.1,1.06-4.21,1.62-6.3,.37,.85,.74,1.69,1.1,2.54,.41,.95,1.78,1.14,2.59,.67,.96-.57,1.08-1.64,.68-2.59-.9-2.08-1.79-4.17-2.77-6.23,.55-1.85,1.12-3.7,1.72-5.54,.23,1.09,.42,2.18,.55,3.28,.29,2.38,4.06,2.42,3.78,0-.4-3.28-1.11-6.45-2.1-9.59,.94-2.49,1.97-4.98,3.1-7.41,.62,1.41,1.21,2.83,1.71,4.29,.79,2.29,4.44,1.31,3.64-1-.89-2.61-2.02-5.12-3.21-7.59,1.79-3.32,3.8-6.49,6.12-9.46,1.49-1.89-1.16-4.58-2.67-2.67Z" style="fill:#859ac6; fill-rule:evenodd;"/></g></svg>