<?xml version="1.0" encoding="UTF-8"?><svg id="a" xmlns="http://www.w3.org/2000/svg" viewBox="0 0 2034.35 1459.8"><rect x="369.52" y="352.88" width="61.55" height="21.26" style="fill:#b0c2e4;"/><path d="M370.08,341.04c-3.71-1.73-6.16-4.92-6.16-9.74v-1.5c-.73-41.65-37.33-53.32-40.29-99.4-.22-3.45-.19-6.84,.08-10.12,5.73-34.95,38.94-58.41,76.26-58.41,42.52,0,79.72,30.47,77,73.67-2.82,44.7-37.69,56.03-38.38,96.43,0,4.37-4.67,9.42-8.66,9.07h-59.85Z" style="fill:#c4d1eb; fill-rule:evenodd;"/><path d="M433.29,379.05c-.46,4.68-4.44,8.36-9.22,8.36h-7.1l-2.76,4.51c-1.58,2.59-2.52,2.77-5.56,2.77h-16.68c-3.04,0-3.97-.16-5.56-2.77l-2.76-4.51h-7.1c-4.72,0-8.66-3.59-9.2-8.18v-3.25c.25-1.05,1.21-1.85,2.34-1.85h61.27c1.14,0,2.1,.8,2.35,1.87,.02,.09-.04,.3,.01,.34v2.7h0Zm-62.76-21.31h59.54c1.8,0,3.27,1.47,3.27,3.27v5.07c0,1.8-1.47,3.27-3.27,3.27h-59.54c-1.79,0-3.27-1.47-3.27-3.27v-5.07c0-1.8,1.47-3.27,3.27-3.27h0Zm.13-16.7h59.27c1.87,0,3.4,1.53,3.4,3.4v5.28c0,1.87-1.53,3.4-3.4,3.4h-59.27c-1.87,0-3.4-1.54-3.4-3.4v-5.28c0-1.87,1.53-3.4,3.4-3.4Z" style="fill:#9db2d9; fill-rule:evenodd;"/><path d="M390.89,341.04l-6.3-76.24h-9.13c-3.94,0-7.53-1.61-10.12-4.2h0c-2.6-2.61-4.22-6.19-4.22-10.12s1.61-7.53,4.21-10.12c2.6-2.59,6.18-4.2,10.12-4.2s7.27,1.55,9.78,4.07c2.56,2.56,4.2,6.1,4.53,9.98l.71,8.17h27.94l.71-8.17c.34-3.87,1.98-7.42,4.54-9.98,2.51-2.51,5.89-4.07,9.78-4.07s7.51,1.61,10.12,4.21h0c2.6,2.59,4.21,6.17,4.21,10.12s-1.61,7.53-4.21,10.12c-2.59,2.59-6.18,4.2-10.12,4.2h-9.13l-6.3,76.24h-6.43l6.27-76.24h-26.81l6.27,76.24h-6.43Zm-6.86-82.68l-.67-7.62c-.2-2.36-1.17-4.49-2.67-5.98-1.35-1.35-3.16-2.19-5.23-2.19s-4.14,.89-5.57,2.32c-1.43,1.44-2.32,3.41-2.32,5.58s.88,4.15,2.31,5.57h.01c1.43,1.43,3.41,2.32,5.57,2.32h8.57Zm40.85,0h8.57c2.17,0,4.14-.89,5.57-2.32,1.43-1.43,2.32-3.4,2.32-5.57s-.89-4.14-2.32-5.58h0c-1.43-1.43-3.4-2.32-5.57-2.32s-3.88,.84-5.23,2.19c-1.5,1.5-2.47,3.63-2.68,5.98l-.66,7.62Z" style="fill:#fff; fill-rule:evenodd;"/><path d="M428.01,188.65c-2.04-.86-3-3.21-2.14-5.26,.86-2.04,3.22-3,5.26-2.14,1.67,.71,3.25,1.47,4.73,2.26,1.53,.82,3.04,1.72,4.49,2.69,1.85,1.22,2.36,3.72,1.13,5.57-1.22,1.85-3.72,2.36-5.57,1.13-1.24-.82-2.53-1.59-3.86-2.31-1.36-.73-2.71-1.38-4.04-1.95h0Zm17.69,12.84c-1.46-1.68-1.28-4.22,.39-5.69,1.68-1.46,4.22-1.28,5.68,.39,4.25,4.89,7.65,10.53,9.97,16.68,2.24,5.95,3.46,12.35,3.46,19.02,0,2.22-1.8,4.03-4.03,4.03s-4.03-1.8-4.03-4.03c0-5.71-1.04-11.16-2.93-16.19-1.97-5.23-4.88-10.03-8.52-14.22Z" style="fill:#fff; fill-rule:evenodd;"/><path d="M1697.43,1183.95c160.08,0,289.85,18.45,289.85,41.21s-129.77,41.21-289.85,41.21-289.85-18.45-289.85-41.21,129.77-41.21,289.85-41.21Z" style="fill:#c4d1eb; fill-rule:evenodd;"/><path d="M1096.35,185.2c222.55,0,316.31,137.41,476.98,244.22,212.65,141.37,425.28,49.34,459.33,527.02,30.3,425.14-347.82,46.02-880.97,198.32-533.16,152.29-1076.16,213.62-915.03-279.11C397.77,382.92,579.24,185.2,1096.35,185.2Z" style="fill:#e0e8f5; fill-rule:evenodd;"/><rect x="499.19" y="29.05" width="882.34" height="575.43" style="fill:#c4d1eb;"/><path d="M645.19,325.82l146.58-78.1c-.2-1.05-.31-2.14-.31-3.25,0-9.5,7.7-17.21,17.2-17.21s17.21,7.71,17.21,17.21c0,.56-.03,1.12-.08,1.66l57.5,24.16c3.15-3.75,7.88-6.14,13.17-6.14,2.06,0,4.03,.36,5.86,1.02l67.96-89.84c-2.03-2.83-3.23-6.29-3.23-10.04,0-9.5,7.7-17.2,17.21-17.2s17.21,7.7,17.21,17.2c0,2.85-.69,5.53-1.91,7.89l64.47,63.32c2.42-1.32,5.21-2.05,8.16-2.05,1.94,0,3.8,.32,5.54,.91l68.33-93.97c-2.15-2.87-3.42-6.43-3.42-10.29,0-9.5,7.7-17.21,17.2-17.21s17.21,7.71,17.21,17.21c0,1.47-.19,2.89-.54,4.26l59.78,36.68c3.03-2.66,7-4.28,11.35-4.28,9.5,0,17.21,7.71,17.21,17.2s-7.71,17.2-17.21,17.2-17.2-7.7-17.2-17.2c0-1.47,.19-2.9,.53-4.26l-59.78-36.68c-3.03,2.66-7,4.28-11.35,4.28-1.94,0-3.81-.32-5.55-.91l-68.33,93.97c2.15,2.87,3.42,6.43,3.42,10.29,0,9.5-7.7,17.2-17.2,17.2s-17.21-7.7-17.21-17.2c0-2.85,.69-5.53,1.92-7.89l-64.47-63.32c-2.43,1.32-5.21,2.06-8.17,2.06-2.06,0-4.03-.36-5.86-1.02l-67.96,89.83c2.03,2.83,3.23,6.29,3.23,10.04,0,9.5-7.71,17.2-17.21,17.2s-17.2-7.7-17.2-17.2c0-.56,.03-1.12,.08-1.66l-57.5-24.16c-3.16,3.76-7.89,6.14-13.18,6.14-4.73,0-9-1.9-12.11-4.99l-146.58,78.1c.2,1.05,.31,2.14,.31,3.25,0,9.5-7.7,17.2-17.21,17.2s-17.2-7.7-17.2-17.2,7.71-17.2,17.2-17.2c4.73,0,9.01,1.9,12.12,4.99Z" style="fill:#fff; fill-rule:evenodd;"/><path d="M604.28,409.87h57.58v109.76h-57.58v-109.76h0Zm614.58-161.37h57.57v271.13h-57.57V248.5h0Zm-87.8-40.91h57.58v312.04h-57.58V207.59h0Zm-87.8,133.41h57.58v178.63h-57.58v-178.63h0Zm-87.79-96.8h57.58v275.42h-57.58V244.2h0Zm-87.8,111.93h57.58v163.5h-57.58v-163.5h0Zm-87.8-41.91h57.58v205.41h-57.58v-205.41h0Zm-87.79,60.2h57.57v145.21h-57.57v-145.21Z" style="fill:#fff; fill-rule:evenodd;"/><path d="M348.17,1123.83c.07,4.07,.3,7.49,.61,9.86-.31-2.37-.55-5.79-.61-9.86Z" style="fill:#ecebe8; fill-rule:evenodd;"/><path d="M189.88,1261.68c104.87,0,189.88,12.19,189.88,27.22s-85.02,27.23-189.88,27.23S0,1303.94,0,1288.9s85.01-27.22,189.88-27.22Z" style="fill:#c4d1eb; fill-rule:evenodd;"/><path d="M224.1,822.36c-2.99-3.87-7.09-6.79-11.2-9.35-1.09-.68-2.68-.22-3.28,.9-3.18,5.93-6.13,12.01-9.77,17.67-1.2,1.87-2.91,4.35-4.44,5.44-.1,.07-.48,.26-.65,.35-.02-.03-.05-.06-.08-.11-.29-.44-.47-.91-.63-1.42-2.84-8.72,.61-18.06-1.63-26.83-1.18-4.66-4.13-9.49-7.48-12.88-3.64-3.69-8.51-5.4-10.78-10.37-.34-.75-.96-1.1-1.63-1.16h-.45c-.81,.08-1.63,.53-2.09,1.19-5.24,7.54-12.59,15.34-13.98,24.77-1.24,8.37,3.28,15.36,8.11,21.72,2.34,3.07,4.64,6.2,6.45,9.62,1,1.89,2.73,5.29,.91,7.14-1.9,1.93-4.79-1.52-6.3-3.06-3.08-3.19-5.68-6.82-8.35-10.34-4.42-5.82-11.4-14.67-19.71-13.07-3.66,.71-5.15,4.5-5.35,7.79-.3,5.24,2.26,10.88,4.84,15.27,5.85,9.97,17.71,12.87,25.34,20.92,1.75,1.85,6.56,8.19,3.8,10.79-.96,.91-3.2,.61-4.34,.43-2.8-.43-5.87-1.45-8.12-3.19-8.58-6.63-11.7-18.16-20.71-24.45-3.95-2.75-10.04-4.44-14.79-3.3-4.03,.96-5.88,4.75-6.06,8.56-.22,4.63,1.89,9.41,4.22,13.28,2.7,4.47,6.4,8.21,10.94,10.79,9.09,5.16,20.58,5.81,26.63,15.32,.82,1.3,1.72,3,1.32,4.59-.31,1.22-2.06,1.62-3.09,1.85-4.66,1.02-10.78-.7-14.86-2.87-4.94-2.64-8.54-7.4-12.33-11.38-4.01-4.21-8.47-7.63-14.08-9.35-4.08-1.23-9.09-1.03-11.72,2.78-2.41,3.5-1.92,8.21-.93,12.09,1.3,5.14,4.1,9.91,7.54,13.9,3.72,4.32,9.59,6.76,14.85,8.53,5.47,1.83,11.15,2.94,16.55,4.99,1.43,.54,2.54,.92,4.1,1.03,1.67,.12,3.36,.04,4.99,.46,1.38,.35,.46,1.8,0,2.81-1.12,2.41-4.71,2.31-6.96,2.49-2.15,.16-4.26,.71-6.4,.72-2.46,.02-4.92-.44-7.34-.81-4.81-.73-9.89-1.58-14.65-.13-4.6,1.4-7.84,5.73-8.66,10.37-1.73,9.75,9.17,15.69,17.25,16.93,5.18,.79,9.88-.34,14.44-2.92,5.62-3.17,10.03-7.75,16.52-8.54,.42,2.6-.51,4.67-2.81,6.62-3.17,2.67-7.56,4.12-11.39,5.54-7.54,2.8-18.57,5.29-22.61,13.1-.49,.95-.39,2.13,.41,2.9,3.57,3.41,7.69,6.08,12.72,6.49,4.17,.33,8.24-1.61,11.62-3.85,6.04-4,11.25-10.24,18.04-13.06-.94,1.72-2.5,2.89-4.4,4.37-3.4,2.64-5.13,6.29-6.07,10.4-1.42,6.24,.74,12.98,8.06,13.02,4,.02,8-1.99,11.33-3.99,3.82-2.29,6.86-5.61,9.24-9.34,2.94-4.62,4.57-9.95,5.48-15.4,6.12,11.92,19.41,24.37,31.95,14.07,10.71-8.81-6.93-15.56-13.9-22.49,1.38,.56,2.71,1.27,3.98,1.91,3.64,1.87,7.17,3.93,10.96,5.47,7.08,2.89,15.01,2.61,19.25-4.67,3.65-6.28-3.92-9.2-8.58-10.59-3.79-1.15-10.89-2.37-13.64-6.18,9.35,1.03,19.76,2.19,27.83-3.21,3.66-2.45,8.05-7.17,8.49-11.78,.36-3.76-3.72-5.09-6.65-5.38-7.98-.78-15.75,2.73-23.75,2.48-1.92-.06-3.83-.27-5.71-.68-.7-.16-1.42-.36-2.08-.65-.25-.11-.51-.33-.68-.46,.04-.11,.11-.24,.22-.38,.71-.83,1.64-1.44,2.54-2.04,2.05-1.35,4.2-2.13,6.63-2.38,4.65-.5,9.29,.09,13.93-.72,5.21-.9,9.44-3.92,12.88-7.81,3.06-3.45,6.01-7.82,6.5-12.52,.5-4.86-2.45-8.15-6.79-9.81-12.14-4.64-19.25,7.9-27.9,13.59-2.3,1.51-5.02,2.51-7.63,3.3-1.06,.33-4.2,1.41-5.23,.58-.62-.5,1.44-3.8,1.83-4.43,1.75-2.83,3.97-4.79,6.84-6.43,7.24-4.14,16.08-5.43,21.78-11.98,3.75-4.3,6.7-11.58,3.03-16.82-3.89-5.55-12.55-4.05-17.44-.82-6.15,4.07-9.25,12.3-16.65,14.27-.64-3.5,.72-6.74,3.09-9.86,3.45-4.56,7.91-8.31,12.01-12.26,3.93-3.78,7.96-7.9,10.01-13.06,2.1-5.27,.75-10.6-2.64-14.98Z" style="fill:#9db2d9; fill-rule:evenodd;"/><path d="M407.02,991.2c1.18-4.75,.94-9.77,.41-14.59-.14-1.28-1.48-2.24-2.74-2.02-6.63,1.17-13.22,2.62-19.93,3.26-2.21,.22-5.22,.41-7.02-.11-.12-.04-.5-.23-.68-.3,0-.04,.01-.08,.03-.13,.17-.51,.43-.94,.73-1.38,5.09-7.63,14.56-10.7,20.07-17.9,2.92-3.8,4.89-9.1,5.48-13.84,.64-5.14-1.03-10.02,1.47-14.88,.91-1.77-.97-3.35-2.6-3.26-9.18,.55-19.84-.4-28.12,4.34-7.35,4.22-10.03,12.09-12.04,19.82-.97,3.74-2,7.48-3.57,11.03-.86,1.94-2.47,5.41-5.04,5.12-2.69-.29-1.78-4.71-1.49-6.84,.6-4.39,1.84-8.68,2.94-12.96,1.84-7.08,4.47-18.04-1.93-23.58-2.83-2.44-6.72-1.27-9.43,.63-4.31,3.01-7.15,8.5-9.01,13.25-4.21,10.78,.85,21.88-.75,32.84-.37,2.53-2.37,10.23-6.12,9.67-1.31-.19-2.46-2.14-3.02-3.14-1.4-2.47-2.48-5.51-2.51-8.36-.1-10.84,7.02-20.42,6.38-31.4-.28-4.8-2.73-10.64-6.55-13.67-3.25-2.56-7.37-1.68-10.48,.54-3.77,2.69-6.22,7.3-7.81,11.53-1.84,4.89-2.49,10.11-1.71,15.27,1.56,10.33,8.16,19.77,4.43,30.4-.51,1.45-1.29,3.2-2.78,3.87-1.16,.51-2.54-.61-3.36-1.29-3.69-3.02-6.13-8.89-6.95-13.44-.99-5.51,.52-11.28,1.3-16.73,.83-5.75,.75-11.38-1.38-16.84-1.55-3.97-4.81-7.79-9.43-7.49-4.24,.27-7.63,3.57-10.08,6.74-3.23,4.21-5.24,9.36-6.24,14.54-1.09,5.59,.62,11.7,2.49,16.93,1.95,5.43,4.59,10.58,6.32,16.09,.46,1.45,.85,2.56,1.73,3.86,.94,1.38,2.04,2.66,2.73,4.21,.58,1.3-1.13,1.48-2.21,1.74-2.58,.61-4.72-2.27-6.26-3.93-1.46-1.58-3.19-2.91-4.53-4.58-1.54-1.93-2.7-4.14-3.91-6.27-2.4-4.24-4.88-8.75-8.96-11.59-3.94-2.75-9.35-2.62-13.5-.39-8.73,4.67-6.66,16.9-2.62,24.03,2.58,4.56,6.38,7.55,11.22,9.54,5.96,2.44,12.3,3.08,16.93,7.69-1.78,1.93-3.98,2.49-6.94,1.89-4.07-.83-7.92-3.39-11.4-5.51-6.86-4.19-15.65-11.31-24.28-9.66-1.05,.21-1.92,1.01-2.02,2.12-.47,4.92-.03,9.81,2.77,14,2.32,3.49,6.36,5.48,10.21,6.75,6.89,2.26,15,2.51,21.42,6.08-1.93,.33-3.82-.17-6.16-.75-4.17-1.04-8.11-.14-11.93,1.67-5.78,2.74-9.74,8.62-5.24,14.38,2.46,3.15,6.52,5.06,10.15,6.43,4.16,1.58,8.66,1.92,13.05,1.48,5.45-.56,10.64-2.57,15.48-5.23-5.57,12.18-7.13,30.33,8.72,33.79,13.55,2.96,7.93-15.07,9.06-24.83,.41,1.43,.68,2.91,.96,4.3,.79,4.02,1.36,8.06,2.49,12,2.11,7.34,7.25,13.41,15.59,12.22,7.19-1.01,4.8-8.77,3.01-13.29-1.45-3.68-4.87-10.02-3.58-14.54,4.98,7.98,10.52,16.87,19.75,19.87,4.19,1.35,10.61,1.89,14.5-.62,3.17-2.05,1.7-6.07,.11-8.55-4.32-6.75-11.89-10.68-16.64-17.12-1.14-1.55-2.16-3.17-3-4.91-.31-.65-.6-1.33-.78-2.04-.07-.26-.05-.6-.06-.82,.11-.03,.26-.06,.43-.05,1.1,.04,2.15,.39,3.18,.73,2.33,.78,4.27,1.98,5.99,3.73,3.26,3.35,5.68,7.35,9.18,10.5,3.94,3.53,8.92,4.99,14.11,5.28,4.6,.27,9.86-.12,13.86-2.65,4.13-2.61,4.89-6.97,3.51-11.4-3.86-12.41-18.11-10.22-27.94-13.5-2.61-.88-5.08-2.4-7.32-3.95-.91-.63-3.7-2.42-3.68-3.76,0-.79,3.87-1.21,4.61-1.3,3.3-.38,6.22,.14,9.28,1.38,7.74,3.12,14.22,9.27,22.89,9.69,5.7,.28,13.24-1.91,15.09-8.03,1.96-6.48-4.58-12.36-10.15-14.2-7-2.32-15.39,.34-21.51-4.25,2.36-2.67,5.74-3.6,9.65-3.67,5.72-.11,11.42,1.07,17.06,1.84,5.41,.75,11.14,1.37,16.45-.22,5.44-1.62,8.8-5.97,10.14-11.35Z" style="fill:#9db2d9; fill-rule:evenodd;"/><path d="M81.92,859.07c-4.56-1.77-9.57-2.16-14.41-2.24-1.29-.02-2.41,1.19-2.34,2.46,.32,6.72,.92,13.44,.71,20.19-.07,2.21-.26,5.22-1.01,6.94-.05,.11-.28,.46-.38,.64-.04-.01-.07-.02-.12-.05-.48-.23-.88-.55-1.28-.9-6.92-6.01-8.77-15.79-15.21-22.17-3.41-3.38-8.42-6-13.04-7.19-5.02-1.28-10.07-.25-14.57-3.33-1.64-1.13-3.46,.54-3.56,2.16-.61,9.17-2.9,19.63,.75,28.44,3.25,7.82,10.72,11.48,18.13,14.44,3.58,1.44,7.17,2.94,10.48,4.94,1.83,1.1,5.06,3.13,4.45,5.65-.63,2.63-4.89,1.17-6.98,.61-4.28-1.15-8.38-2.91-12.48-4.56-6.78-2.71-17.33-6.71-23.63-1.06-2.77,2.49-2.11,6.5-.57,9.43,2.43,4.65,7.53,8.16,12.01,10.61,10.15,5.54,21.8,1.92,32.49,4.9,2.46,.68,9.84,3.65,8.81,7.3-.36,1.27-2.43,2.16-3.5,2.6-2.62,1.07-5.78,1.76-8.6,1.43-10.76-1.27-19.38-9.55-30.34-10.31-4.81-.33-10.9,1.37-14.38,4.78-2.96,2.89-2.6,7.09-.79,10.47,2.2,4.07,6.46,7.09,10.45,9.2,4.61,2.45,9.71,3.75,14.93,3.63,10.45-.24,20.65-5.59,30.72-.54,1.37,.69,3.02,1.69,3.49,3.25,.36,1.22-.93,2.44-1.7,3.17-3.46,3.28-9.6,4.95-14.21,5.19-5.59,.29-11.13-1.94-16.43-3.41-5.59-1.55-11.19-2.19-16.88-.76-4.13,1.03-8.33,3.79-8.62,8.41-.27,4.24,2.57,8.02,5.42,10.85,3.77,3.74,8.62,6.38,13.62,8.03,5.41,1.78,11.69,.86,17.11-.33,5.63-1.24,11.08-3.21,16.76-4.24,1.5-.27,2.65-.51,4.05-1.23,1.49-.76,2.9-1.69,4.52-2.17,1.36-.4,1.33,1.31,1.44,2.42,.28,2.64-2.85,4.39-4.69,5.71-1.75,1.25-3.29,2.79-5.12,3.91-2.1,1.28-4.44,2.16-6.71,3.08-4.5,1.84-9.29,3.73-12.63,7.42-3.22,3.57-3.78,8.95-2.1,13.35,3.53,9.25,15.94,8.74,23.51,5.65,4.86-1.99,8.3-5.38,10.88-9.92,3.18-5.61,4.61-11.82,9.76-15.83,1.7,2,1.97,4.26,1,7.12-1.34,3.92-4.36,7.42-6.91,10.61-5.02,6.28-13.2,14.1-12.65,22.86,.07,1.07,.76,2.04,1.84,2.28,4.82,1.08,9.73,1.27,14.25-.98,3.75-1.86,6.24-5.61,7.99-9.28,3.12-6.54,4.38-14.57,8.74-20.48,.08,1.96-.66,3.77-1.53,6.01-1.55,4.01-1.16,8.04,.15,12.04,1.99,6.08,7.31,10.75,13.6,7.02,3.44-2.04,5.84-5.83,7.66-9.25,2.09-3.93,3-8.35,3.11-12.77,.14-5.47-1.21-10.88-3.23-16.02,11.38,7.07,29.18,10.91,34.63-4.37,4.66-13.06-13.95-9.77-23.49-12.14,1.47-.23,2.98-.31,4.4-.4,4.08-.27,8.17-.33,12.21-.95,7.56-1.17,14.22-5.49,14.1-13.91-.1-7.26-8.09-5.87-12.81-4.67-3.84,.98-10.56,3.56-14.88,1.72,8.55-3.93,18.07-8.3,22.21-17.08,1.88-3.98,3.21-10.29,1.22-14.47-1.63-3.4-5.8-2.46-8.47-1.2-7.24,3.44-12.1,10.44-19.08,14.35-1.68,.93-3.42,1.74-5.25,2.35-.68,.22-1.4,.43-2.11,.51-.28,.03-.61-.02-.83-.04-.02-.12-.03-.26,0-.44,.18-1.08,.66-2.08,1.13-3.06,1.06-2.21,2.5-3.98,4.46-5.46,3.73-2.8,8.01-4.69,11.57-7.78,4-3.45,6.08-8.23,7.03-13.33,.85-4.53,1.13-9.8-.87-14.08-2.07-4.44-6.29-5.73-10.87-4.92-12.8,2.26-12.44,16.67-16.93,26.01-1.19,2.46-3.02,4.73-4.84,6.75-.75,.83-2.88,3.37-4.19,3.19-.78-.11-.72-4-.71-4.74,.04-3.33,.94-6.15,2.55-9.03,4.08-7.27,10.99-12.92,12.51-21.47,1-5.62-.22-13.38-6.06-16-6.2-2.76-12.84,2.99-15.38,8.28-3.18,6.65-1.6,15.31-6.93,20.81-2.36-2.68-2.84-6.15-2.42-10.04,.62-5.69,2.51-11.2,3.99-16.69,1.42-5.27,2.76-10.88,1.86-16.35-.91-5.6-4.81-9.48-9.98-11.49Z" style="fill:#9db2d9; fill-rule:evenodd;"/><path d="M314.83,925.14c-.66-4.84-2.74-9.42-5.01-13.71-.6-1.13-2.21-1.52-3.28-.85-5.73,3.53-11.33,7.31-17.33,10.39-1.97,1.01-4.7,2.29-6.56,2.47-.12,.02-.54-.01-.75-.02,0-.04,0-.08-.01-.13-.03-.53,.06-1.03,.17-1.55,1.91-8.96,9.58-15.31,12.05-24.04,1.31-4.61,1.18-10.27-.01-14.89-1.3-5.02-4.66-8.93-4.13-14.37,.2-1.99-2.14-2.76-3.61-2.07-8.32,3.9-18.58,6.95-24.53,14.42-5.28,6.62-4.86,14.94-3.88,22.86,.48,3.83,.9,7.69,.75,11.56-.08,2.13-.29,5.95-2.79,6.62-2.61,.72-3.39-3.7-3.91-5.81-1.07-4.3-1.5-8.74-2.04-13.13-.9-7.25-2.5-18.42-10.5-21.2-3.52-1.22-6.71,1.3-8.53,4.06-2.89,4.39-3.5,10.55-3.48,15.64,.06,11.57,8.87,20.02,11.43,30.81,.59,2.48,1.56,10.38-2.12,11.25-1.29,.29-3.08-1.09-3.97-1.81-2.2-1.78-4.34-4.2-5.42-6.84-4.09-10.04-1.02-21.58-5.65-31.53-2.04-4.36-6.46-8.88-11.13-10.29-3.97-1.19-7.47,1.16-9.54,4.37-2.51,3.9-3.08,9.09-3.01,13.6,.09,5.22,1.42,10.32,4.05,14.83,5.27,9.03,14.88,15.36,15.34,26.62,.06,1.54-.02,3.46-1.16,4.63-.88,.9-2.59,.36-3.6,.04-4.54-1.45-8.97-6-11.41-9.94-2.96-4.76-3.68-10.68-4.96-16.03-1.35-5.64-3.5-10.84-7.49-15.14-2.91-3.12-7.34-5.46-11.53-3.49-3.84,1.81-5.78,6.13-6.88,9.99-1.45,5.11-1.42,10.63-.44,15.81,1.06,5.6,4.91,10.65,8.57,14.82,3.81,4.33,8.17,8.14,11.82,12.62,.96,1.19,1.73,2.07,3.03,2.96,1.39,.94,2.89,1.72,4.09,2.9,1.01,1-.51,1.8-1.42,2.43-2.17,1.52-5.23-.37-7.27-1.35-1.94-.93-4.04-1.52-5.9-2.58-2.14-1.22-4.04-2.85-5.95-4.39-3.79-3.04-7.76-6.33-12.6-7.46-4.68-1.1-9.65,1.02-12.7,4.62-6.39,7.57,.05,18.17,6.43,23.31,4.08,3.29,8.72,4.67,13.95,4.72,6.45,.08,12.57-1.68,18.58,.89-.94,2.46-2.78,3.79-5.75,4.32-4.08,.72-8.61-.23-12.63-.92-7.93-1.37-18.72-4.75-26.13-.02-.9,.57-1.41,1.65-1.1,2.71,1.38,4.75,3.6,9.13,7.74,11.99,3.44,2.39,7.93,2.75,11.98,2.51,7.24-.44,14.86-3.21,22.16-2.26-1.67,1.02-3.62,1.25-6,1.57-4.26,.58-7.59,2.86-10.47,5.95-4.36,4.68-5.87,11.6,.44,15.31,3.45,2.02,7.92,2.29,11.81,2.24,4.45-.07,8.76-1.42,12.67-3.46,4.86-2.52,8.94-6.31,12.46-10.56-.68,13.37,4.56,30.81,20.58,28.19,13.68-2.24,1.8-16.93-.75-26.42,.91,1.17,1.71,2.44,2.48,3.65,2.21,3.44,4.23,6.99,6.74,10.23,4.67,6.05,11.68,9.79,19,5.61,6.31-3.6,1.23-9.92-2.1-13.47-2.71-2.89-8.23-7.52-8.7-12.19,7.58,5.58,16,11.8,25.69,11.18,4.4-.28,10.56-2.16,13.25-5.93,2.2-3.07-.65-6.27-3.05-7.98-6.51-4.69-14.99-5.54-21.79-9.77-1.63-1.01-3.18-2.16-4.59-3.46-.53-.48-1.05-1.02-1.47-1.6-.16-.23-.28-.55-.36-.75,.09-.07,.21-.15,.38-.21,1.03-.36,2.14-.43,3.22-.49,2.45-.14,4.7,.25,6.94,1.26,4.26,1.91,7.99,4.74,12.4,6.37,4.96,1.83,10.14,1.35,15.06-.29,4.38-1.45,9.12-3.75,11.9-7.57,2.87-3.96,1.97-8.29-.95-11.9-8.17-10.1-20.61-2.81-30.95-2.24-2.74,.16-5.6-.36-8.26-.96-1.08-.26-4.34-.9-4.81-2.13-.29-.75,3.15-2.57,3.81-2.92,2.93-1.56,5.84-2.16,9.14-2.13,8.34,.04,16.63,3.36,24.85,.56,5.4-1.84,11.61-6.66,11.06-13.03-.58-6.75-8.82-9.8-14.68-9.45-7.36,.43-14.17,6-21.56,3.99,1.2-3.35,4-5.46,7.62-6.97,5.28-2.22,11.01-3.23,16.54-4.59,5.3-1.3,10.86-2.85,15.21-6.27,4.46-3.51,5.97-8.8,5.23-14.3Z" style="fill:#b0c2e4; fill-rule:evenodd;"/><path d="M279.39,878.73c-2.78,12.07-5.19,24.22-8.65,36.12-3.56,12.22-8.62,23.51-15.6,34.16-14.4,21.98-32.74,41.03-47.57,62.71-.62,.9-.5,1.78-.02,2.42-2.86,5.41-4.52,11.55-5.71,17.42-2.07,10.22-2.71,20.73-3.12,31.14-.5,12.72-.41,25.38,.18,38.11,.69,14.94,1.68,29.91,1.05,44.88-.03,.87-.08,1.74-.13,2.61-.18,3.09,4.63,3.08,4.8,0,.82-14.61-.02-29.24-.74-43.84-.64-13.02-.93-25.97-.46-39,.36-10.07,.86-20.16,2.58-30.11,1.56-9.04,4.07-19.27,10.89-25.88,.97-.94,.87-2.12,.27-2.97,13.86-18.85,29.76-36.16,42.6-55.77,6.88-10.49,11.78-21.82,15.38-33.82,3.64-12.12,6.05-24.58,8.88-36.91,.69-3.01-3.94-4.29-4.64-1.26Z" style="fill:#b0c2e4; fill-rule:evenodd;"/><path d="M201.01,1149.02c-2.6-23.36-13.35-44.26-24.48-64.58-11.04-20.14-22.66-40.56-26.05-63.62-.45-3.06-5.08-1.75-4.64,1.28,6.76,46.02,45.18,80.45,50.37,126.92,.34,3.04,5.15,3.08,4.8,0Z" style="fill:#b0c2e4; fill-rule:evenodd;"/><path d="M271.63,1039.56c-20.56,8.98-40.7,22.71-54.49,40.58-7.53,9.75-11.96,20.86-14.73,32.48-1.05-12.13-3.28-24.13-5.6-36.07-5.41-27.85-9.58-55.84-12.2-84.1-1.04-11.21-1.81-22.46-2.33-33.69-.14-3.09-4.95-3.09-4.81,0,1.44,31.22,5.03,62.29,9.88,93.16,3.28,20.88,8.81,41.51,10.42,62.62-1.81-11.41-4.54-22.67-8.04-33.65-5.01-15.69-11.75-30.94-20.5-44.92,.05-.6-.12-1.23-.63-1.8-.6-.66-1.2-1.32-1.8-1.97-2.17-3.26-4.44-6.46-6.84-9.56-1.07-1.38-2.61-.89-3.41,.23-3.68-2.82-7.61-5.33-11.83-7.52-9.87-5.11-22.17-8.42-26.9-19.61-1.2-2.84-5.34-.39-4.15,2.43,4.7,11.11,16.18,15.25,26.21,20.12,9,4.38,16.61,10,23.41,17.18,9.6,14.61,16.76,30.84,22.06,47.44,6.43,20.15,10.11,41.33,10.15,62.5,0,.11,0,.23,.02,.33-.33,1.56,.91,2.6,2.22,2.7,.64,2.18,4.51,1.87,4.72-.87,1.76-22.72,4.35-46.57,18.9-65.1,13.44-17.1,32.91-30.13,52.7-38.76,2.83-1.23,.39-5.38-2.42-4.15Z" style="fill:#9db2d9; fill-rule:evenodd;"/><path d="M127.88,878.21c-4.36-2.21-9.31-3.08-14.13-3.63-1.28-.15-2.51,.96-2.57,2.22-.33,6.72-.38,13.48-1.24,20.16-.28,2.2-.76,5.17-1.67,6.81-.06,.11-.33,.45-.44,.61-.03-.02-.07-.04-.11-.07-.46-.27-.82-.63-1.18-1.01-6.31-6.65-7.21-16.56-13-23.54-3.07-3.68-7.8-6.79-12.28-8.42-4.87-1.76-10.01-1.21-14.18-4.72-1.53-1.28-3.49,.2-3.76,1.81-1.5,9.07-4.78,19.25-1.99,28.38,2.47,8.09,9.56,12.46,16.65,16.13,3.43,1.78,6.85,3.62,9.96,5.93,1.71,1.28,4.73,3.61,3.88,6.05-.88,2.56-4.98,.7-7-.07-4.14-1.55-8.06-3.71-11.98-5.74-6.48-3.36-16.6-8.36-23.41-3.35-3,2.22-2.73,6.27-1.48,9.33,1.97,4.87,6.71,8.86,10.93,11.72,9.56,6.5,21.52,4.02,31.86,8.01,2.38,.92,9.44,4.59,8.07,8.12-.48,1.23-2.63,1.92-3.74,2.25-2.71,.81-5.92,1.2-8.7,.59-10.59-2.3-18.36-11.37-29.2-13.18-4.75-.79-10.97,.3-14.78,3.36-3.22,2.6-3.27,6.82-1.79,10.35,1.79,4.27,5.75,7.68,9.51,10.17,4.35,2.89,9.31,4.67,14.51,5.06,10.43,.77,21.09-3.58,30.62,2.42,1.3,.81,2.84,1.97,3.16,3.56,.24,1.25-1.17,2.34-2,3-3.77,2.93-10.03,4.01-14.65,3.79-5.6-.26-10.89-3.01-16.03-4.98-5.42-2.08-10.92-3.26-16.73-2.39-4.21,.63-8.65,2.96-9.39,7.53-.68,4.2,1.78,8.23,4.34,11.33,3.39,4.08,7.96,7.19,12.78,9.31,5.21,2.29,11.56,1.99,17.07,1.32,5.73-.69,11.33-2.12,17.09-2.6,1.52-.12,2.69-.26,4.15-.83,1.56-.61,3.05-1.4,4.71-1.72,1.39-.27,1.19,1.43,1.2,2.54,.02,2.65-3.26,4.1-5.23,5.23-1.86,1.07-3.54,2.47-5.47,3.4-2.21,1.07-4.63,1.72-6.98,2.42-4.66,1.4-9.61,2.82-13.29,6.17-3.55,3.24-4.62,8.54-3.38,13.08,2.62,9.55,15.02,10.24,22.86,7.89,5.02-1.51,8.78-4.54,11.79-8.82,3.71-5.28,5.73-11.32,11.25-14.81,1.49,2.16,1.55,4.44,.3,7.18-1.71,3.78-5.05,6.97-7.9,9.89-5.61,5.76-14.5,12.75-14.8,21.53-.03,1.07,.56,2.11,1.61,2.45,4.7,1.55,9.56,2.2,14.27,.4,3.91-1.48,6.75-4.98,8.84-8.46,3.74-6.21,5.76-14.07,10.69-19.54-.11,1.96-1.02,3.68-2.11,5.83-1.93,3.83-1.93,7.88-1.01,12,1.39,6.25,6.24,11.42,12.87,8.3,3.62-1.7,6.37-5.23,8.52-8.47,2.47-3.7,3.79-8.01,4.33-12.41,.67-5.43-.14-10.95-1.66-16.25,10.64,8.13,27.99,13.68,34.89-1.01,5.9-12.56-12.94-11.08-22.21-14.35,1.48-.07,2.99-.01,4.41,.03,4.09,.12,8.16,.47,12.25,.24,7.63-.43,14.68-4.1,15.38-12.49,.6-7.24-7.48-6.62-12.29-5.88-3.91,.59-10.85,2.53-14.97,.28,8.89-3.09,18.79-6.52,23.75-14.85,2.26-3.78,4.19-9.93,2.61-14.29-1.29-3.54-5.54-3-8.31-2-7.55,2.72-13.05,9.22-20.38,12.43-1.76,.77-3.57,1.4-5.45,1.83-.7,.16-1.44,.3-2.16,.31-.28,0-.6-.09-.82-.13,0-.11,0-.26,.04-.43,.29-1.05,.86-2.01,1.42-2.94,1.27-2.09,2.88-3.73,4.97-5.01,3.99-2.43,8.43-3.91,12.27-6.62,4.32-3.06,6.84-7.6,8.28-12.58,1.28-4.44,2.07-9.65,.49-14.1-1.64-4.61-5.71-6.32-10.34-5.95-12.95,1.01-13.99,15.39-19.37,24.25-1.42,2.35-3.46,4.42-5.47,6.27-.82,.76-3.19,3.08-4.48,2.77-.77-.19-.33-4.05-.24-4.79,.37-3.3,1.53-6.03,3.41-8.75,4.76-6.85,12.19-11.8,14.53-20.17,1.54-5.49,1.08-13.34-4.48-16.5-5.9-3.35-13.07,1.72-16.1,6.75-3.81,6.31-3.08,15.08-8.92,20.03-2.09-2.88-2.23-6.38-1.44-10.22,1.16-5.61,3.58-10.9,5.58-16.23,1.92-5.11,3.8-10.56,3.43-16.09-.37-5.67-3.88-9.9-8.82-12.4Z" style="fill:#c4d1eb; fill-rule:evenodd;"/><polygon points="255.55 1290.2 151.95 1290.2 118.05 1156.24 287.1 1156.24 255.55 1290.2" style="fill:#b0c2e4; fill-rule:evenodd;"/><rect x="106.74" y="1138.82" width="189.3" height="17.42" style="fill:#9db2d9;"/><polygon points="202.57 1156.24 118.05 1156.24 151.95 1290.2 202.57 1290.2 202.57 1156.24" style="fill:#9db2d9; fill-rule:evenodd;"/><rect x="106.74" y="1138.82" width="95.83" height="17.42" style="fill:#859ac6;"/><polygon points="255.55 1292.21 151.95 1292.21 118.05 1274.13 287.1 1274.13 255.55 1292.21" style="fill:#9db2d9; fill-rule:evenodd;"/><polygon points="202.57 1274.13 118.05 1274.13 151.95 1292.21 202.57 1292.21 202.57 1274.13" style="fill:#859ac6; fill-rule:evenodd;"/><path d="M1813.02,255.57c-6.33,.45-12.44-7.07-14.21-9.31-6.73-8.56-11.03-18.6-12.76-24.23,1.32-3.74,2.69-8.47,4.13-14.18,24.41-16.58,27.74-28.85,10.01-36.8-3.58,2-8.01,8.18-13.31,18.52-4.22-.16-7.44-2.33-9.62-6.49,5.05-17.46,8.32-31.63,9.84-42.53-12.02-17.88-40.16-20.43-77.41-15.61-1.73,9.92-3.14,20.41-4.25,31.5-6.58,6.07-5.73,28.56,.33,54.49-3.03,14.74,6.07,22.79,27.3,24.13,.21,3.55-.11,7.65-.18,10.14-.06,2.26-.14,6.68-2.51,7.37l-3.93,.97c.39,52.71,27.38,62.84,86.57,2.03Z" style="fill:#f9af79; fill-rule:evenodd;"/><path d="M1709.68,124.94c37.25-4.84,65.38-2.28,77.41,15.6-1.52,10.9-4.79,25.07-9.84,42.53,2.19,4.15,5.39,6.32,9.62,6.49,5.3-10.34,9.74-16.52,13.31-18.52,17.74,7.95,14.4,20.22-10.01,36.8-1.43,5.71-2.81,10.44-4.13,14.19,21.97-4.92,40.34-24.57,42.93-33.06,25.61-50.5-2.96-71.82-18.24-79.6-6.75-50-79.64-6.77-98.81-37.28-40.12,22.89-13.51,52.4-2.23,52.85Z" style="fill:#172b57; fill-rule:evenodd;"/><path d="M1757.54,229.92c-5.95,2.94-14.11,4.65-24.48,5.14,.21,3.51,.06,7.55-.17,10.05,10.42-2.01,18.64-7.07,24.65-15.19Z" style="fill:#ed7d57; fill-rule:evenodd;"/><path d="M1857.44,1242.66c23.13-8.14,24.99-20.07,37.46-25.89,12.55-5.86,14-16.3,1.72-27.65-9.07,7.24-20.32,16.15-26.28,11.43-3.99-3.15-17.47-2.94-20.15,1.65-11.75,27.32-28.09,18.66-31.33,31.09-.37,16.55,27.95,13.1,38.57,9.36Z" style="fill:#0e2952; fill-rule:evenodd;"/><path d="M1656.97,1215.49c40.75-.65,71.2-1.14,85.28-5.58,15.17-4.8,12.04-14.05,3.31-28.86-38.4,17.66-28.17-3.63-46.12-.93-12.62,10.16-31.32,16.97-56.07,20.43-10.47,7.72-6.21,14.6,13.61,14.94Z" style="fill:#0e2952; fill-rule:evenodd;"/><path d="M1677.32,261.53c20.34-5.9,38.6-9.49,54.78-10.74,2.93,44.68,26.24,44.37,69.93-.93,42.08,3.53,50.31,4.07,73.66,11.65,50.51,48.25,55.16,103.95,81.57,167.58-29.24,1.3-42.36,4.82-62.23,11.91-4.27-15.25-7.84-27.52-10.71-36.82,.81,83.92,1.12,141.41,.93,172.49-96.68,38.31-176.33,25.19-208.85-4.66-.46-74.59-1.08-133.64-1.87-177.15-11.57,13.63-22.29,24.2-32.17,31.7-23.71-27.18-39.76-38.12-53.2-54.14,29.75-48.86,72.39-94.32,88.16-110.88Z" style="fill:#6d96ce; fill-rule:evenodd;"/><path d="M1482.47,343.27c50.79,21.1,86.35,38.54,106.68,52.31l9.03-13.37c8.4,8.41,17.99,16.67,29.68,28.65-10.81,11.32-22.42,20.62-35.94,28.49-35.29-3.77-74.3-30.5-117.03-80.18-13.28-2.65-23.06-7.47-29.33-14.45-.33-6.4,2.89-12.82,9.67-19.25-17.71-11.55-24.76-19.8-21.15-24.79,27.75,17.17,43.88,31.36,48.38,42.57Z" style="fill:#f9af79; fill-rule:evenodd;"/><path d="M1676.38,572.01c1.91,7.26-6,49.87-7.3,72.09-12.85,79.34-1.84,182.62,5.08,315.43,12.38,46.8,30.66,109.17,29.47,196.94,21.56,6.6,29.38,7.27,48.85,2.32,13.61-91.61,4.33-164.96-7.97-198.84,7.88-52.37,19.63-110.98,36.75-195.53,19.28,92.14,45.08,160.51,56.25,205.12,2.21,49.75,12.28,116.88,17.53,201.39,16.02,4.83,25.99,6.22,42.6,4.19,21.56-77.69,17.94-162.23,8.81-253.61-9.72-109.86,6.3-233.91-9.74-276.92-8.21-25.48-9.27-48.1-11.47-67.93-80.66,26.84-150.28,25.29-208.85-4.66Z" style="fill:#466fb5; fill-rule:evenodd;"/><path d="M1870.37,491.42c5.18,.77,10.07,1.45,14.69,2.07,.24,37.01,.3,64.74,.19,83.17-4.57,2.05-11,4.4-16.01,5,.03-2.38,.78-7.87,.8-10.21,.33-28.31,.44-54.98,.33-80.03h0Zm-236.39-74.16c14.24-11.85,27.79-31.11,40.66-57.75-1.45,9.28-2.02,21.7-1.73,37.26-10.95,12.71-21.13,22.64-30.55,29.79-2.89-3.33-5.68-6.42-8.38-9.3h0Zm232.36-72.17c6.27,20.18,12.27,39.88,17.97,59.08,.16,16.22,.29,31.44,.41,45.69-4.14-.39-9-.65-14.75-.79-.6-39.39-1.8-74.05-3.63-103.98Z" style="fill:#466fb5; fill-rule:evenodd;"/><path d="M1738.72,374.12h-106.44c-4.87,0-8.23,3.99-7.46,8.87l23.89,150.78c.77,4.88,5.39,8.87,10.27,8.87h106.43c4.88,0,8.24-3.99,7.47-8.87l-23.89-150.78c-.77-4.88-5.39-8.87-10.28-8.87Z" style="fill:#223f81; fill-rule:evenodd;"/><path d="M1947.45,429.65c4.6,18.67,6.52,35.74,2.75,58.39-11.48,16.68-57.85,7.36-177.21-12.59-4.28,3.91-13.13,7.79-26.57,6.06-12.48-3.11-13.08-6.37-27.09-19.57-3.4-10.28-2.7-18.13,2.1-23.54,15.76,9.28,24.06,14.22,41.81,14.8-4.72-12.16-5.44-20.01-2.13-23.55,6.06,4.86,10.01,12.16,11.83,21.9,94.1-4.08,118.93-3.54,131.45,3.03-1.36-5.91-2.56-11.1-3.62-15.58,14.65-4.99,26.58-7.89,46.66-9.34Z" style="fill:#f9af79; fill-rule:evenodd;"/><path d="M1742.85,1160.94c-.96,7.99-1.1,15.16-.41,21.5-32.13,13.97-26.68-2.16-39.51-2.56,3.23-5.68,5.32-12.93,6.27-21.76,14.01,4.02,21.98,4.91,33.66,2.81h0Zm149.72,14.72c0,5.81,.56,10.93,1.7,15.34-8.59,6.79-18.47,13.88-23.92,9.56-2.62-2.07-9.34-2.69-14.4-1.57,2.08-7.02,3.73-15.81,4.93-26.38,11.26,3.04,19.92,4.05,31.69,3.05Z" style="fill:#f9af79; fill-rule:evenodd;"/><path d="M1669.08,644.11c56.73,52.89,132.6,53.06,227.63,.5,16.04,43.01,.02,167.06,9.74,276.92,9.13,91.38,12.75,175.92-8.81,253.61-1.77,.22-3.45,.4-5.07,.53-11.77,1-20.43-.01-31.69-3.05-1.87-.49-3.8-1.06-5.85-1.67-5.25-84.52-15.32-151.65-17.53-201.39-11.16-44.61-36.96-112.99-56.25-205.12-17.12,84.55-28.87,143.16-36.75,195.53,12.3,33.88,21.58,107.24,7.97,198.84-3.55,.9-6.7,1.62-9.63,2.14-11.68,2.1-19.64,1.2-33.66-2.81-1.75-.5-3.6-1.05-5.56-1.65,1.19-87.78-17.09-150.14-29.47-196.94-6.92-132.8-17.93-236.09-5.08-315.43Z" style="fill:#223f81; fill-rule:evenodd;"/><path d="M1758.62,1095.86c-20.7,5.63-39.65,7.32-56.86,5.09-.37-4.54-.79-9.01-1.25-13.39,18.86,2.46,38.38,1.19,58.54-3.79-.1,3.97-.24,8-.43,12.09h0Zm151.25,15.76c-22.51,2.69-42.45,1.2-59.81-4.47-.44-4.73-.88-9.39-1.32-13.98,19.48,6.36,40.27,8.53,62.38,6.53-.37,3.98-.79,7.96-1.25,11.92h0Zm-56.91,29.74c-.36-4.68-.74-9.3-1.12-13.87,17.38,4.75,35.77,6.28,55.17,4.57-.66,4.04-1.37,8.04-2.14,12.04-19.2,2.16-36.5,1.25-51.92-2.74h0Zm-150.2-25.88c17.54,2.9,35.79,2.58,54.71-.95-.3,4.01-.65,8.07-1.05,12.17-19.35,4.09-37.03,4.82-53.05,2.19-.15-4.54-.35-9.01-.6-13.41Z" style="fill:#0e2952; fill-rule:evenodd;"/><polygon points="347.46 85.66 234.4 192.02 289.24 224.95 347.46 85.66" style="fill:#c4d1eb; fill-rule:evenodd;"/><polygon points="206.99 177.1 343.47 87.52 163.24 172.1 206.99 177.1" style="fill:#c4d1eb; fill-rule:evenodd;"/><polygon points="206.99 177.1 234.12 237.51 234.4 192.02 347.46 85.66 343.47 87.52 206.99 177.1" style="fill:#9db2d9; fill-rule:evenodd;"/><polygon points="234.12 237.51 258.7 206.61 234.4 192.02 234.12 237.51" style="fill:#859ac6; fill-rule:evenodd;"/><path d="M198.46,217.14c2.99-1.59,5.59,3.02,2.42,4.71l-4.67,2.45c-3.04,1.62-5.58-3.03-2.46-4.69l4.71-2.48h0ZM40.03,641.12c-3.59-.56-3-5.42,.43-5.28,1.73,.12,3.43,.24,5.16,.33,3.51,.14,3.3,5.43-.19,5.29l-5.4-.34h0Zm21.62,0c-3.26,.39-4.14-4.83-.47-5.28,1.73-.17,3.42-.35,5.14-.57,3.57-.43,4.08,4.84,.73,5.24-1.8,.25-3.58,.42-5.39,.6h0Zm21.33-4.05c-3.4,.84-4.9-3.78-1.57-5.06,1.64-.51,3.26-1.05,4.87-1.65,3.23-1.23,5.16,3.7,1.87,4.96-1.71,.54-3.43,1.2-5.17,1.74h0Zm19.92-8.85c-3.12,1.67-5.66-2.49-2.77-4.52,1.47-.88,2.89-1.83,4.29-2.81,2.87-2,5.9,2.34,3.04,4.34-1.48,1.04-3.01,2.06-4.57,2.99h0Zm16.95-13.79c-1.96,2.4-6.36-.59-3.89-3.6,1.17-1.24,2.26-2.54,3.35-3.87,2.26-2.76,6.29,.68,4.13,3.31-1.14,1.41-2.34,2.83-3.59,4.15h0Zm12.51-17.91c-1.83,3.26-6.3,.41-4.72-2.41,.75-1.46,1.58-3.11,2.19-4.62,1.46-3.28,6.25-1.02,4.87,2.09-.75,1.67-1.5,3.31-2.34,4.95h0Zm7.45-20.47c-.84,3.25-5.72,2.46-5.16-1.2,.39-1.68,.73-3.35,1.04-5.05,.51-3.31,5.77-2.67,5.21,.93-.31,1.78-.68,3.56-1.09,5.32h0Zm2.58-21.57c.03,3.37-5.27,3.56-5.3-.05,.03-1.73,0-3.46-.04-5.18-.02-3.67,5.28-3.5,5.3-.18,.04,1.8,.07,3.6,.04,5.41h0Zm-1.34-21.49c.43,3.5-4.84,4.1-5.26,.66l-.7-5.19c-.44-3.64,4.84-4.07,5.24-.78l.71,5.31h0Zm-3.37-21.08c.74,3.02-4.29,4.73-5.21,.97l-.98-5.19c-.75-3.06,4.29-4.72,5.21-1l.98,5.22h0Zm-3.98-20.82c.75,3.04-4.29,4.73-5.21,.98l-.96-5.24c-.42-3.41,4.35-4.44,5.21-.92l.95,5.18h0Zm-3.37-20.75c.42,3.48-4.84,4.1-5.25,.65-.23-1.77-.45-3.56-.61-5.34-.4-3.3,4.84-4.14,5.28-.51,.1,1.65,.38,3.53,.59,5.19h0Zm-1.76-19.34c-1.26,1.96-4.86,1.43-4.88-1.51,.01-1.2,.05-2.41,.11-3.6-.69-1.14-.29-2.42,.55-3.21,1.26-1.75,4.68-1.33,4.83,1.42,.78,.9,1.58,1.81,2.4,2.69,2.04,2.31-.66,5.33-3.01,4.22h0Zm3.06-21.71c-1.18,3.46-5.96,1.84-5.11-1.42,.48-1.77,1.04-3.54,1.68-5.26,1.07-3.14,6.15-1.63,4.97,1.84-.59,1.59-1.09,3.21-1.54,4.84h0Zm8.55-18.23c-2.44,2.99-6.26-.7-4.28-3.12,1.09-1.51,2.2-2.93,3.4-4.35,2.09-2.56,6.33,.63,4.01,3.48-1.11,1.28-2.13,2.62-3.13,4h0Zm14.34-14.32c-2.94,2.07-5.86-2.36-3.09-4.3,1.48-1.08,2.97-2.09,4.5-3.09,2.6-1.82,5.95,2.3,2.83,4.49-1.44,.92-2.85,1.89-4.24,2.9h0Zm17.89-10.34c-2.76,1.47-5.63-2.99-2.23-4.81,1.64-.76,3.27-1.49,4.94-2.19,3.45-1.32,5.12,3.71,2.05,4.89-1.6,.68-3.18,1.38-4.75,2.11h0Zm19.4-7c-3.32,.82-4.68-4.3-1.22-5.16,1.78-.43,3.53-.8,5.33-1.13,3.41-.42,4.44,4.35,.92,5.22-1.7,.3-3.36,.66-5.03,1.07h0Zm20.24-2.07c-3.34-.13-3.31-5.43,.31-5.29,1.9,.11,3.67,.33,5.54,.58,3.37,.52,2.66,5.77-.86,5.23l.86-5.23-.86,5.23c-1.67-.24-3.3-.42-4.99-.52h0Zm19.21,5.14c-3.14-1.75-.44-6.32,2.51-4.66,1.64,.86,3.29,1.89,4.8,2.96,3.02,2.47-.71,6.25-3.1,4.3-1.34-.94-2.76-1.84-4.21-2.6h0Zm14.36,13.31c-1.68-3.14,2.5-5.64,4.51-2.78,1.01,1.6,1.88,3.23,2.68,4.95,1.26,3.3-3.15,5.32-4.82,2.19-.71-1.51-1.48-2.94-2.37-4.36h0Zm6.02,18.75c-.38-3.08,4.82-4.19,5.29-.33,.12,1.88,.14,3.7,.07,5.58-.13,3.45-5.43,3.3-5.29-.23,.06-1.7,.04-3.32-.07-5.01h0Zm-2.94,19.71c1.07-3.12,6.15-1.63,4.96,1.86-.64,1.72-1.37,3.46-2.17,5.11-1.75,3.13-6.16,.83-4.76-2.33,.73-1.5,1.39-3.08,1.97-4.64h0Zm-10.31,17.32c2.11-2.58,6.33,.63,4.02,3.46-1.2,1.38-2.44,2.74-3.74,4.04-2.56,2.49-6.18-1.38-3.73-3.77,1.21-1.21,2.34-2.44,3.46-3.73h0Zm-15.26,13.49c2.64-1.85,5.94,2.31,2.86,4.46-1.54,1.01-3.08,1.97-4.68,2.87-3.11,1.67-5.56-3.03-2.52-4.66,1.48-.89,2.89-1.72,4.34-2.68h0Zm-18.43,8.47c3.52-.86,4.63,4.32,1.37,5.12-1.73,.5-3.65,.9-5.43,1.21-3.74,.45-4.05-4.84-.86-5.23,1.61-.28,3.34-.65,4.91-1.1h0Zm-20.1,1.8c3.57,.55,3,5.41-.45,5.28-1.83-.14-3.68-.38-5.49-.68-3.32-.51-2.65-5.78,.91-5.23,1.64,.28,3.37,.5,5.02,.63h0Zm-19.74-4.79c3.38,1.5,1,6.24-2,4.9-1.69-.68-3.4-1.42-5.02-2.22-3.32-1.85-.41-6.3,2.37-4.74,1.5,.75,3.1,1.44,4.66,2.07h0Zm-17.9-10c2.99,2.44-.7,6.26-3.12,4.28-1.47-1.06-2.9-2.17-4.31-3.3-2.73-2.24,.66-6.3,3.34-4.12,1.34,1.08,2.7,2.13,4.1,3.14h0Zm-28.01-30.14c1.82,2.61-2.3,5.95-4.48,2.83-.97-1.52-1.91-3.06-2.83-4.62-1.73-3.25,3.05-5.54,4.6-2.63,.91,1.47,1.78,2.95,2.71,4.42h0Zm-9.72-18.31c1.32,3.45-3.71,5.11-4.88,2.05-.71-1.66-1.38-3.31-2.03-4.99-1.24-3.24,3.7-5.16,4.95-1.88,.63,1.62,1.28,3.22,1.97,4.82h0Zm-6.66-19.66c.83,3.38-4.31,4.65-5.14,1.27-.44-1.75-.85-3.52-1.22-5.28-.76-3.1,4.29-4.72,5.19-1.03,.28,1.62,.76,3.43,1.17,5.04h0Zm-3.42-20.46c.39,3.19-4.83,4.17-5.28,.41-.15-1.79-.26-3.58-.34-5.38-.02-3.72,5.27-3.48,5.29-.23,.08,1.74,.19,3.46,.33,5.19h0Zm-.05-20.72c-.6,3.86-5.75,2.57-5.28-.48,.15-1.8,.32-3.58,.55-5.37,.55-3.61,5.76-2.61,5.25,.68-.21,1.73-.37,3.45-.52,5.17h0Zm3.35-20.46c-.87,3.36-6.01,2.05-5.12-1.33,.44-1.75,.91-3.48,1.41-5.21,1.21-3.53,6.12-1.55,5.07,1.53-.49,1.67-.93,3.33-1.36,5.01h0Zm6.63-19.67c-1.45,3.25-6.26,1.02-4.86-2.11,.71-1.65,1.46-3.29,2.22-4.92,1.35-3.02,6.27-1.06,4.77,2.29-.74,1.57-1.46,3.14-2.14,4.74h0Zm9.6-18.42c-1.54,2.76-6.36,.53-4.48-2.82,.95-1.53,1.92-3.05,2.92-4.54,1.88-2.83,6.35,0,4.37,2.99-.96,1.43-1.9,2.89-2.81,4.37h0Zm12.15-16.9c-2.17,2.64-6.32-.65-4.06-3.4,1.14-1.38,2.31-2.76,3.49-4.11,2.02-2.46,6.34,.61,3.94,3.55-1.15,1.28-2.27,2.63-3.37,3.97h0Zm14.24-15.26c-2.44,2.37-6.21-1.36-3.64-3.85,1.3-1.24,2.62-2.46,3.95-3.67,2.61-2.31,6.13,1.65,3.51,3.97-1.29,1.14-2.57,2.34-3.82,3.54h0Zm15.86-13.6c-3.07,2.15-5.85-2.36-3.2-4.22l4.27-3.22c2.96-2.07,5.87,2.36,3.11,4.29l-4.18,3.15h0Zm17.16-12.04c-2.62,1.84-5.94-2.31-2.85-4.47,1.5-.96,3.02-1.9,4.54-2.83,3.42-1.83,5.5,3.06,2.76,4.52-1.48,.92-2.98,1.84-4.45,2.79Z" style="fill:#859ac6; fill-rule:evenodd;"/><path d="M1278.22,1277.06s-17.81,24.55-48.79,41.63c-32,17.64-68.92,26.13-46.03,34.11,22.89,7.98,56.37,14.18,89.01,4.7,22.91-6.65,49.75-8.04,56.84-18.86,7.09-10.82-16.89-40.55-10.47-81.15,5.15-32.54-40.55,19.58-40.55,19.58Z" style="fill:#172b57; fill-rule:evenodd;"/><path d="M1394.66,933.93s-129.1-10.12-165.16-3.85c-36.06,6.27-115.17,6.2-63.43,152.22,40.56,114.45,90.66,223.03,90.66,223.03,26.88,6.61,46.29,25.17,80.64,19.81,0,0-43.34-256.69-78.39-293.61,28.01,4.62,79.45,13.63,150.73,34.01,132.23,37.82,185.37,18.88,185.37,18.88l19.69-69-220.1-81.49Z" style="fill:#20386f; fill-rule:evenodd;"/><rect x="841.58" y="843.3" width="108.03" height="12.52" style="fill:#223f81;"/><rect x="1041.79" y="843.3" width="108.04" height="12.52" style="fill:#223f81;"/><polygon points="1003.93 530.49 1136 528.9 1178.93 758.63 1053.1 793.68 1003.93 530.49" style="fill:#223f81; fill-rule:evenodd;"/><polygon points="987.48 530.49 855.4 528.9 812.48 758.63 938.3 793.68 987.48 530.49" style="fill:#223f81; fill-rule:evenodd;"/><polygon points="1014.08 538.81 1059.72 783.08 1169.2 752.57 1129 537.43 1014.08 538.81" style="fill:#c4d1eb; fill-rule:evenodd;"/><polygon points="977.33 538.81 931.69 783.08 822.2 752.57 862.4 537.43 977.33 538.81" style="fill:#c4d1eb; fill-rule:evenodd;"/><polygon points="1041.79 855.81 1072.44 855.81 1072.44 788.29 1053.1 793.68 1041.79 733.12 1041.79 855.81" style="fill:#20386f; fill-rule:evenodd;"/><polygon points="949.62 855.81 918.97 855.81 918.97 788.29 938.3 793.68 949.62 733.12 949.62 855.81" style="fill:#20386f; fill-rule:evenodd;"/><path d="M1059.94,1353.89c418.7,0,758.11,23.71,758.11,52.95s-339.42,52.95-758.11,52.95-758.11-23.71-758.11-52.95,339.42-52.95,758.11-52.95Z" style="fill:#c4d1eb; fill-rule:evenodd;"/><path d="M1205.96,882.99h-497.8c-2.12,0-3.85-4.87-3.85-10.87v-5.43c0-6,1.72-10.88,3.85-10.88h497.8c2.12,0,3.85,4.88,3.85,10.88v5.43c0,6-1.72,10.87-3.85,10.87Z" style="fill:#9c7357; fill-rule:evenodd;"/><path d="M535.61,509.62c-9.67,34.1,13.96,69.23,39.97,76.61,26.01,7.37,44.56-15.79,54.25-49.88,9.67-34.1-3.58-67.71-29.6-75.09-26.04-7.38-54.96,14.27-64.63,48.36Z" style="fill:#f9af79; fill-rule:evenodd;"/><path d="M681.47,1170.25s-66.67,103.57-75.67,108.07c-9,4.5-31.52,5.63-23.07,22.52,8.45,16.88,11.83,83.3,19.7,86.68,7.88,3.38,75.42,11.26,65.3,0-10.15-11.26-16.37-5.63-21.49-25.89-5.1-20.26-12.28-58.54-2.73-66.41,9.58-7.88,68.12-78.81,68.12-78.81l-30.15-46.15Z" style="fill:#f9af79; fill-rule:evenodd;"/><path d="M1017.09,1214.72s81.06,133.59,96.07,145.6c15,12,64.54,30.03,24.01,33.02-40.52,3.01-60.05-13.51-85.56-21.02-25.51-7.5-57.04-12-45.03-31.51,12.01-19.51,7.02-62.11-18.86-89.13-25.89-27.02,29.37-36.96,29.37-36.96Z" style="fill:#f9af79; fill-rule:evenodd;"/><path d="M603.45,904.95s200.65-5.25,280.21,60.03c46.53,70.56,159.1,278.71,167.85,301.64-6,6.01-39.78,16.84-54.79,15.33-44.28-52.79-102.81-98.44-126.09-139.85-28.68-51.04-37.51-76.55-84.05-81.05-46.54-4.5-151.6-19.51-183.13-19.51s0-136.59,0-136.59Z" style="fill:#172b57; fill-rule:evenodd;"/><polygon points="428.48 1393.71 439 1393.71 514.42 1079.02 491.28 1079.02 428.48 1393.71" style="fill:#9c7357; fill-rule:evenodd;"/><polygon points="743.56 1393.71 733.02 1393.71 646.48 1067.9 669.63 1067.9 743.56 1393.71" style="fill:#9c7357; fill-rule:evenodd;"/><path d="M489.14,891.2l116.66,20.14s155.02,1.42,225.88,14.62c64.48,12.01,73.98,85.26,0,186.13-42.02,57.3-77.53,103.01-150.2,154.54-18.48-13.56-25.53-18.7-30.65-51.35,5.26-7.21,18.87-52.33,23.1-61.16,40.18-84,93.81-114.55,94.57-122.81-9-14.64-238.55,76.28-284.19,22.8-43.58-51.06,4.84-162.9,4.84-162.9Z" style="fill:#223f81; fill-rule:evenodd;"/><path d="M484.3,627.1c30.72-4.32,62.01,1.52,91.29,22.71,25.58,26.08,54.5,69.06,52.72,139.96-2.25,90.06,13.94,95.84-2.94,120.61-70.42,29.08-190.87,154.04-162.51,20.07,20.55-97-45.05-169.29,7.85-276.89,4.31-8.75,9.69-17.25,13.59-26.46Z" style="fill:#6d96ce; fill-rule:evenodd;"/><path d="M628.35,823.67c1.35,46.95,7.99,60.78,2.91,75.5-28.7,2.93-81.23,14.42-94.36,32.79-15,21.01-30.01,24.02-23.01,8.51,7-15.51,25.51-37.53-3.01-113.08-28.52-75.55-42.02-126.58-14.01-179.12l131.47,175.39Z" style="fill:#466fb5; fill-rule:evenodd;"/><path d="M484.3,627.1c18.92-44.79,23.56-95.11,23.56-95.11l49.54,14.64s-28.15,63.04-1.15,85.56c5.76,4.77,12.42,10.59,19.33,17.62-29.27-21.18-60.57-27.02-91.29-22.71Z" style="fill:#f9af79; fill-rule:evenodd;"/><path d="M506.38,543.92c2.92-2.61,6.59-5.88,10.45-9.28l40.41,11.94,.07,.22c-.96,2.23-11.25,26.25-12.6,49.34-12.05-7.31-25.23-19.22-40.29-40.02,.8-4.62,1.45-8.73,1.97-12.2Z" style="fill:#ed7d57; fill-rule:evenodd;"/><path d="M545.37,1090.82c3.16,0,6.4-.04,9.73-.12,41.47-1.03,69.71-6.76,92.39-11.38,26.84-5.44,41.63-8.45,59.05-.12,5.86,2.81,12.91,.32,15.71-5.56,2.8-5.88,.32-12.91-5.56-15.72-24.54-11.73-45.25-7.52-73.88-1.7-21.79,4.43-48.91,9.94-88.28,10.91-44.36,1.1-71.47-5.56-85.34-20.93-12.38-13.72-16.03-36.6-11.48-72.01,1.56-11.99,3.1-21.95,4.45-30.75,3.81-24.68,6.34-40.99,3.21-66.12-2.89-23.43-10.68-54.7-28.68-115.34-1.86-6.24-8.43-9.79-14.65-7.94-6.25,1.85-9.81,8.41-7.97,14.65,33.7,113.45,31.98,124.53,24.77,171.15-1.37,8.93-2.94,19.07-4.52,31.35-5.51,42.73,.02,71.59,17.33,90.81,17.86,19.8,47,28.83,93.7,28.83Z" style="fill:#9c7357; fill-rule:evenodd;"/><path d="M1011.58,1327.32c53.78,26.29,82.72,41.38,99.97,39.93,4.07-.34,7.44-.76,10.27-1.19,19.18,11.33,49.8,24.73,15.35,27.28-40.52,3.01-60.05-13.51-85.56-21.02-25.52-7.5-57.04-12-45.03-31.51,2.3-3.74,3.98-8.33,5-13.49Z" style="fill:#172b57; fill-rule:evenodd;"/><path d="M599.92,1280.51c1.33,42.58,7.19,84.77,33.22,92.75,6.91,2.11,13.2,2.42,18.76,1.67,4.11,5.06,9.12,5.12,15.82,12.57,10.12,11.26-57.42,3.38-65.3,0-7.87-3.38-11.25-69.8-19.7-86.68-6.94-13.87,7.02-17.11,17.2-20.32Z" style="fill:#172b57; fill-rule:evenodd;"/><path d="M771.36,825.95c34.51-.49,68.76-21.08,85.76-18.07,17.01,3,72.55,41.53,65.55,43.03-7.01,1.5-51.04-21.32-52.54-21.67-1.5-.35-11,15.81-34.53,21.74-23.51,5.93-.16-17.62-73.06,4.39-47.39,14.32,8.81-29.42,8.81-29.42Z" style="fill:#f9af79; fill-rule:evenodd;"/><path d="M489.37,586.23l-5.07,40.87s44.68,2.65,66.9,15.16c22.23,12.51,55.03,48.65,55.03,48.65l-26.79-46.15-3.86-29.52-86.21-29.02Z" style="fill:#fff; fill-rule:evenodd;"/><path d="M508.38,636.26c33.2-6.22,48.54,23.51,70.05,72.04,21.51,48.54,58.25,107.48,65.55,115.09,7.3,7.59,123.09,0,123.09,0,0,0,3.49,33.52,0,37.52-3.49,4-23.51,3.51-23.51,3.51,0,0-8.01,6.39-15.52,11.45-7.51,5.06-71.04,14.57-100.56,13.06-29.53-1.5-56.55-4-60.54-8.51-4-4.5-84.56-128.58-89.57-173.11-5.01-44.53,14.1-67.87,31.02-71.05Z" style="fill:#fff; fill-rule:evenodd;"/><path d="M606.23,432.12c62.77,3.01,52.93,97.42,52.93,97.42,0,0-16.3,5.04-50.45-.6,2.62-10.12,1.49-36.02,1.49-36.02,0,0-3.97,21.02-9,33.78-7.23,3.31-15.38,.37-29.27-2.98-7.14,29.99-27.28,42.67-41.07,47.01-15.25,4.79-31.36,10.49-49.39,1.5-18-9.01-8.11-101.07,1.45-119.58,14.37-27.8,38.23-52.67,79.51-39.54,20.68,6.6,43.8,19.01,43.8,19.01Z" style="fill:#20386f; fill-rule:evenodd;"/><path d="M483.96,531.76l-12.97,17.71s-36.95-1.59-38.37,41.27c-1.11,33.57-22.59,37.22-47.64,31.03-25.05-6.18-35.34,21.4-35.34,21.4,0,0,23.7-4.68,38.05,22.52,19.55,37.08,75.97,29.68,91.96-8.76,13.23-31.82-7.35-32.85,6.4-56.07,13.75-23.22-10.28-49.49-10.28-49.49l12.53-17.13-4.33-2.48Z" style="fill:#20386f; fill-rule:evenodd;"/><path d="M510.81,582.41c4.09,0,8.52-.35,13.29-1.06,21.86-3.28,51.2-15.71,53.52-85.61,.05-1.13-.85-2.08-1.98-2.12-1.17-.05-2.09,.85-2.13,1.99-.94,28.94-6.7,50.35-17.06,63.65-7.9,10.12-18.39,15.86-32.97,18.04-20.41,3.06-33.96-.73-40.25-11.26-.59-.96-1.85-1.28-2.82-.7-.96,.58-1.29,1.84-.71,2.81,5.69,9.5,16.12,14.28,31.11,14.28Z" style="fill:#20386f; fill-rule:evenodd;"/><path d="M1491.61,422c29.06-.8,18.28-22.39,51.68-13.76,17.57,4.54,4.6,11.76,27.42,9.41,22.83-2.36,34.06-4.71,36.93,10.19,2.88,14.9,4.27,19.6,15.24,21.95,10.98,2.35,15.93,21.95,0,35.28-15.94,13.33-8.19,18.81-4.66,29.79,3.53,10.98-8.5,11.76-15.02,21.95-6.53,10.19,6.01,12.12-3.4,20.96-9.41,8.83-22.61,8.04-22.61,8.04l-39.61-75.93-45.98-67.88Z" style="fill:#20386f; fill-rule:evenodd;"/><path d="M1233.28,1329.48s-17.81,24.55-48.79,41.63c-32,17.64-68.92,26.13-46.02,34.11,22.88,7.98,56.36,14.18,89,4.7,22.91-6.65,49.75-8.04,56.84-18.86,7.09-10.81-8.35-37.99-1.93-78.59,5.15-32.54-49.09,17.02-49.09,17.02Z" style="fill:#172b57; fill-rule:evenodd;"/><path d="M1422.1,934.84s-167.77-6.27-203.83,0c-36.07,6.27-115.17,6.2-63.43,152.23,40.55,114.45,53.93,259.36,53.93,259.36l80.65,19.8s-3.2-260.56-41.68-329.93c28.02,4.61,79.44,13.62,150.73,34.01,132.23,37.81,204.73,18.87,204.73,18.87l19.69-68.99-200.79-85.35Z" style="fill:#223f81; fill-rule:evenodd;"/><polygon points="1562.2 501.67 1603.2 622.79 1551.4 656.89 1522.05 552.24 1562.2 501.67" style="fill:#f9af79; fill-rule:evenodd;"/><path d="M1546.77,640.38l-24.72-88.14,40.15-50.57,15,44.31c-5.17,40.02-17.68,73.11-30.42,94.4Z" style="fill:#ed7d57; fill-rule:evenodd;"/><path d="M1457.63,522.17c-1.33,36.84,16.77,68.72,45.53,71.55,28.76,2.84,55.01-24.6,58.62-61.29,3.62-36.68-16.77-68.72-45.52-71.56-28.76-2.84-56.53,3.16-58.63,61.29Z" style="fill:#f9af79; fill-rule:evenodd;"/><path d="M1622.88,619.27c125.83,84.98,47.57,222.3,19.94,322.66-23.53,85.47-22.77,137.13-26.29,137.13s-90.07-12.94-139.46-57.62c-49.39-44.68-82.78-87.97-82.78-87.97,0,0,63.28-11.27,83.96-93.12,10.5-41.56,5.73-64.12,29.66-129.97,23.93-65.85,114.98-91.1,114.98-91.1Z" style="fill:#6d96ce; fill-rule:evenodd;"/><path d="M1622.88,619.27l-13.48-32.97s-42.72,28.23-59.78,41.55c-17.05,13.33-27.57,16.47-27.57,16.47,0,0-6.16,47.26-2.16,42.97,50.43-54.06,102.99-68.02,102.99-68.02Z" style="fill:#6d96ce; fill-rule:evenodd;"/><polygon points="1678.65 1427.4 1667.67 1427.4 1588.88 1098.68 1613.05 1098.68 1678.65 1427.4" style="fill:#9c7357; fill-rule:evenodd;"/><polygon points="1349.53 1427.4 1360.52 1427.4 1450.92 1087.06 1426.75 1087.06 1349.53 1427.4" style="fill:#9c7357; fill-rule:evenodd;"/><path d="M1556.26,1111c44.01,0,71.89-7.89,89.69-25.24,22.06-21.49,26.62-54.77,26.69-98.14,.14-91.17,5.18-110.02,30.84-165.69,2.85-6.17,.15-13.49-6.03-16.34-6.18-2.84-13.49-.15-16.34,6.03-27.13,58.85-32.96,80.48-33.11,175.96-.07,43.94-5.64,67.28-19.25,80.53-13.95,13.6-39.18,19.2-81.79,18.14-41.14-1.02-69.46-6.77-92.21-11.4-29.93-6.08-51.56-10.47-77.19,1.78-6.14,2.94-8.73,10.28-5.8,16.42,2.93,6.14,10.29,8.73,16.42,5.81,18.2-8.7,33.64-5.56,61.67,.13,23.7,4.82,53.19,10.81,96.5,11.88,3.38,.09,6.68,.12,9.89,.12Z" style="fill:#9c7357; fill-rule:evenodd;"/><path d="M1618.22,742.99s-31.36,95.64-70.16,135.24c-38.81,39.59-116.91,52.9-141.36,51.34,19.49-7.83,56.62-30.14,71.55-89.23,10.5-41.56,5.73-64.12,29.66-129.97,17.77-48.88,72.5-75.4,99.54-85.81-33.74,24.25-75.93,64.15-88.9,94.52-14.39,33.71,99.68,23.91,99.68,23.91Z" style="fill:#466fb5; fill-rule:evenodd;"/><path d="M1185.39,826.93s-54.08-24.69-59.96-22.34c-5.88,2.36-65.85,38.57-65.85,44.57s52.92-22.36,52.92-22.36c0,0-5.88,15.68-2.36,23.19,3.53,7.51,44.21,7.51,80.9,5.16,36.69-2.35-5.65-28.22-5.65-28.22Z" style="fill:#f9af79; fill-rule:evenodd;"/><path d="M1616.49,669.09c49.86,102.2-121.18,205.81-222.65,215.02-101.48,9.22-222.04-24-222.04-24l13.58-33.17s203.31-26.53,208.46-30.25c5.14-3.71,204.4-165.01,222.65-127.59Z" style="fill:#6d96ce; fill-rule:evenodd;"/><path d="M1457.56,427.31c-13.78-5.75-29.29-11.91-24.49,11.5,2.09,10.19,0,7.32-3.66,16.73-3.66,9.4,9.22,16.79,13.4,22.02,4.18,5.23-6.08,10.91,2.28,17.18,8.37,6.27,19.39-2.32,27.18,0,23.26,6.94,20.39-11.36,33.46-15.16,13.06-3.81,19.47-3.22,21.95,5.14,2.48,8.36-9.15,35.88,.78,33.27,9.93-2.61,12.17,19.6,14.84,32.15,2.67,12.54,9.49-8.66,9.05-23.01-.68-22.01,4.79-31.25,12.89-37.41,8.11-6.16,11.56-62.14-27.64-64.24-39.19-2.09-39.45-5.88-56.17-9.42-16.73-3.53-17.57,13.86-23.85,11.25Z" style="fill:#20386f; fill-rule:evenodd;"/><path d="M750.54,882.99h28.77v521.26h-28.77V882.99h0Zm384.27,0h28.78v521.26h-28.78V882.99Z" style="fill:#9c7357; fill-rule:evenodd;"/><path d="M1558.28,485.4c6.43,0,11.65,10.49,11.65,23.44s-5.22,23.44-11.65,23.44-11.65-10.49-11.65-23.44,5.22-23.44,11.65-23.44Z" style="fill:#f9af79; fill-rule:evenodd;"/><path d="M486.01,29.05h908.7c7.99,0,14.53-6.53,14.53-14.53h0c0-7.99-6.54-14.52-14.53-14.52H486.01c-7.99,0-14.52,6.53-14.52,14.52h0c0,7.99,6.53,14.53,14.52,14.53Z" style="fill:#859ac6; fill-rule:evenodd;"/></svg>