<?xml version="1.0" encoding="UTF-8"?><svg id="a" xmlns="http://www.w3.org/2000/svg" viewBox="0 0 2076.16 1488.73"><path d="M1066.2,0c-252.96,0-359.54,181-542.16,321.7C282.32,507.92,40.63,386.69,1.93,1015.89c-34.44,560.01,395.36,60.63,1001.38,261.23,606.02,200.61,1223.23,281.38,1040.08-367.65C1860.25,260.43,1653.99,0,1066.2,0Z" style="fill:#e0e8f5; fill-rule:evenodd;"/><path d="M1326.48,184.1h0c4.83-1.96,10.38,.38,12.33,5.21l97.2,239.78c1.96,4.83-.39,10.38-5.21,12.34h0c-4.82,1.95-10.37-.39-12.32-5.22l-97.21-239.78c-1.95-4.83,.39-10.38,5.22-12.33Z" style="fill:#a1775a; fill-rule:evenodd;"/><path d="M1473.59,335.58s19.95,12.94,22.62,16.4c2.62,3.5,28.82-4.63,29.55-14.91,.42-5.79-6.17-8.28-6.17-8.28l-7.54,2.43-24.08-18.95-14.38,23.32Z" style="fill:#f9af79; fill-rule:evenodd;"/><path d="M1288.98,381.92c29.76-34.4,74.43-86.89,90.17-103.76,23.35,18.17,86.31,53.62,95.2,62.95,11.27-4.06,22.71-11.31,28.25-21.33,1.07-1.94-93.61-108.32-134.04-118.1-10.53-2.55-71.4,48.14-119.05,93.73l-31.07,39.8c25.13,17.02,48.53,32.41,70.55,46.71Z" style="fill:#223f81; fill-rule:evenodd;"/><path d="M1495.44,351.21s9.29-6.91,13-10.71c4.82-4.95,9.55-11.28,9.55-11.28,0,0,13.42-6.94,18.1-8.82,10.41-4.2,22.99-9.04,28.75-8.18,1.82,.31,5.67,3.9,3.88,7.38-6.88,13.45-41.77,51.02-50.95,55.46-10.56,5.08-22.33-23.86-22.33-23.86Z" style="fill:#0e2952; fill-rule:evenodd;"/><path d="M1163.98,210.43h-354.96c2.55-10.78,12.23-18.81,23.79-18.81,.55,0,1.11,.02,1.66,.06,5.6-13.71,19.09-23.39,34.83-23.39,6.9,0,13.34,1.86,18.89,5.09,6.77-22.32,27.5-38.57,52.03-38.57,4.99,0,9.83,.68,14.41,1.94,11.88-26.21,38.27-44.45,68.92-44.45,36.36,0,66.72,25.67,73.97,59.86,.62-.02,1.22-.04,1.84-.04,23.28,0,42.5,17.41,45.35,39.92,9.5,1.78,17.07,9.05,19.27,18.39Z" style="fill:#fff; fill-rule:evenodd;"/><path d="M493.3,774.01H138.34c2.55-10.78,12.23-18.81,23.79-18.81,.56,0,1.11,.02,1.66,.07,5.6-13.73,19.09-23.4,34.84-23.4,6.89,0,13.33,1.86,18.88,5.09,6.77-22.31,27.5-38.57,52.03-38.57,4.99,0,9.83,.68,14.41,1.94,11.88-26.21,38.27-44.45,68.92-44.45,36.36,0,66.72,25.67,73.97,59.86,.62-.02,1.22-.05,1.84-.05,23.28,0,42.51,17.41,45.35,39.93,9.5,1.78,17.07,9.05,19.27,18.39Z" style="fill:#fff; fill-rule:evenodd;"/><path d="M1857.4,1161.69h-616.07c4.42-18.71,21.23-32.64,41.3-32.64,.96,0,1.93,.04,2.88,.11,9.73-23.82,33.13-40.6,60.46-40.6,11.96,0,23.14,3.22,32.77,8.82,11.75-38.73,47.73-66.93,90.3-66.93,8.66,0,17.05,1.18,25.02,3.37,20.6-45.5,66.41-77.15,119.61-77.15,63.1,0,115.79,44.54,128.38,103.89,1.07-.04,2.12-.08,3.18-.08,40.42,0,73.78,30.23,78.71,69.29,16.49,3.1,29.62,15.71,33.45,31.91Z" style="fill:#fff; fill-rule:evenodd;"/><path d="M1375.49,901.49h-308.03c2.21-9.37,10.61-16.32,20.65-16.32,.48,0,.96,.02,1.44,.05,4.86-11.9,16.56-20.31,30.22-20.31,5.98,0,11.58,1.61,16.39,4.42,5.88-19.37,23.87-33.47,45.16-33.47,4.33,0,8.53,.59,12.51,1.69,10.31-22.74,33.21-38.57,59.8-38.57,31.55,0,57.89,22.27,64.19,51.94,.53-.02,1.06-.03,1.59-.03,20.21,0,36.89,15.11,39.35,34.65,8.25,1.54,14.81,7.84,16.72,15.96Z" style="fill:#fff; fill-rule:evenodd;"/><path d="M1215.98,358.08c-3.61-.5-7.43,1.18-9.5,4.17-2.07,3-2.28,7.18-.53,10.37-5.82,.82-11.44,7.5-11.54,13.38-.09,5.89,4.54,11.5,10.34,12.51-2.03,5.82-6.25,12.05-4.99,18.08,1.26,6.03,7.23,11.54,13.19,9.95-1.59,2.44-2.87,5.74-.73,7.71,2.14,1.96,5.71,2.11,8,.32-.6,5.82,3.13,12.95,8.67,14.87,5.53,1.92,12.25-.43,15.38-5.38l-28.28-85.96Z" style="fill:#c4d1eb; fill-rule:evenodd;"/><path d="M918.6,480.05s2.38,4.14,1.5,8.98c-.96,4.84-5.49,8.82-3.79,10.83,1.65,2.04,6.55-4.22,9.73-7.47,3.12-3.25,9.17-27.48,9.17-27.48l-16.61,15.14Z" style="fill:#f7a390; fill-rule:evenodd;"/><path d="M897.93,726.97s4.73-2.38,6.2-3.28c1.78-1.09,6.86-4.73,6.86-4.73,0,0,16.84-13.8,15.8-15.01-1.06-1.22-4.86-2.89-6.18-2.44-1.32,.45-3.34,2.62-4.66,3.07-1.32,.47-3.45-.14-4.1-1.8-.65-1.68,4.96-6.43,4.96-6.43,0,0,4.64-3.86,8.67-4.52,14-2.23,13.78,.31,15.56-.04,2.08-.4,23-21.04,23-21.04,0,0,59.59-62.97,62.8-66.34l.04-.06c3.61,.96,5.96,4.29,8.58,6.64,9.73,6.58,9.15,10.17,18.25,17.23-10.12,9.19-83.86,71.27-91.49,77.54,0,0-6.76,11.5-11.2,18.56-4.49,7.08-11.76,11.72-13.29,13.5-.22,.27-5.71,5.92-14.24,11-7.36,4.37-2.27-3.31-2.27-3.31,0,0,12.19-10.63,11.27-11.5-.78-.65-7.12,5.57-15.21,10.49-2.09,1.27-4.13,2.51-6.02,3.62-5.02,2.97-8.13,.6-3.41-3.34,1.68-1.4,4.52-3.65,6.79-4.96,2.41-1.42,4.19-3.53,6.01-5.03,3.71-2.99,6.47-5.15,6.25-5.23-.28-.11,.05-1.26-2.16,.02-2.73,1.54-7.79,6.12-11.94,8.05-2.34,1.1-7.11,3.68-7.11,3.68,0,0-7.89,2.52-8.17,2.07-1.63-2.34,3.33-5.64,6.67-6.69,1.83-1.82,6.91-4.41,6.91-4.41,0,0,9.18-7.63,8.2-9.01-.45-.58-6.59,3.39-13.23,6.32-6.15,2.7-12.8,4.37-13.46,3.18-1.2-2.01,5.32-5.78,5.32-5.78Z" style="fill:#f9af79; fill-rule:evenodd;"/><path d="M996.27,576.27s5.57,19.11,23.41,8.57c0,0,5.36,8.13,14.55,3.32,0,0,11.5,11.14,25.34-7.54,0,0,6.33,4.95,11.58-2.92,5.23-7.87,3.89-15.62,3.89-15.62,0,0,5.44-.92,7.62-9.51,1.84-7.29-3.04-11.08-3.04-11.08,0,0,4.22-11.72,1.17-17.51-3.04-5.8-10.34-7.55-10.34-7.55,0,0,1.33-6.84-4.5-9.17-5.81-2.37-15.44-.62-20.42-6.21-4.99-5.6-22.45-11.43-22.45-11.43,0,0-22.31-1.26-26.46,20.09,0,0-13.97,3.66-10.95,18.26,0,0-14.42,13.03-7.29,28.77,7.09,15.78,17.9,19.52,17.9,19.52Z" style="fill:#20386f; fill-rule:evenodd;"/><path d="M1487.29,455.52s12.28,20.36,13.17,24.64c.82,4.3,27.94,8.46,33.09-.47,2.92-5.03-1.93-10.14-1.93-10.14l-7.84-1.12-13.35-27.58-23.14,14.67Z" style="fill:#f9af79; fill-rule:evenodd;"/><path d="M1297.92,442.53c39.25-22.97,98.46-58.25,118.79-69.15,16.25,24.73,64.41,78.58,69.83,90.28,11.98-.2,25.14-3.38,33.62-11.08,1.64-1.49-53.69-132.71-88.81-155-9.15-5.81-83.1,22.56-142.92,50.35l-42.24,27.65c18.3,24.22,35.49,46.33,51.72,66.96Z" style="fill:#223f81; fill-rule:evenodd;"/><path d="M1046.41,452.43l18.67,28.06s10.99,22.59,13.86,28.64c.25,.53,126.86-29.8,173.03-44.37,46.18-14.56,51.8-22.63,51.8-22.63,0,0-9.77-44.37-26.29-72.85-17.16-29.6-50.09-56.55-50.09-56.55,0,0-68.5,65.21-92.1,82.62-23.65,17.43-88.87,57.08-88.87,57.08Z" style="fill:#fff; fill-rule:evenodd;"/><path d="M1078.94,509.13s-43.46,72.63-60.44,95.13c-13.92,18.41-59,66.4-61.68,68.64-2.56,2.19,6.26,28.29,13.32,34.28,1.88,1.65,65.24-55.21,84.98-75.67,18.25-18.91,68.93-79.44,68.93-79.44,0,0,31.63-36.03,63.63-47.67,53.14-19.36,130.9-44.78,132.12-48.01,2.17-17.52-18.04-59.97-24.88-60.79-75.48-8.96-215.97,113.52-215.97,113.52Z" style="fill:#6d96ce; fill-rule:evenodd;"/><path d="M1050.45,489.87l15.63-10.03s21.65-16.26,29.35-11.96c7.64,4.31-16.49,41.26-16.49,41.26l-43.28,17.52,14.79-36.79Z" style="fill:#f9af79; fill-rule:evenodd;"/><path d="M1049.68,520.99c11.94-12.08,14.82-28.98,14.04-39.63l-13.26,8.52-14.79,36.79,14.01-5.68Z" style="fill:#ed7d57; fill-rule:evenodd;"/><path d="M1036.63,586.1c1.87-3.65-.99-8.84-6.36-11.63-5.37-2.79-11.27-2.1-13.14,1.55-1.9,3.64,.96,8.82,6.37,11.57,5.38,2.79,11.28,2.1,13.13-1.49Z" style="fill:#20386f; fill-rule:evenodd;"/><path d="M1016.93,564.29c-15.16-2.25-24.5-17.89-19.59-32.22,2.12-6.21,5.09-13.86,9.04-21.87,9.54-19.32,29.03-32.81,37.7-28.3,8.68,4.44,26.28,29.19,13.11,56.79-8.08,17-24.3,27.88-40.25,25.6Z" style="fill:#f9af79; fill-rule:evenodd;"/><path d="M1051.9,533.26c2.18-4.22,6.73-6.2,10.2-4.44,3.44,1.82,4.48,6.66,2.3,10.87-2.18,4.22-6.73,6.2-10.16,4.4-3.47-1.77-4.51-6.61-2.33-10.82Z" style="fill:#f9af79; fill-rule:evenodd;"/><path d="M974.43,554.4c-5.27-11.75-2.86-24.15,5.43-27.74,8.31-3.58,19.33,3,24.6,14.76,5.31,11.71,2.89,24.11-5.42,27.69-8.29,3.59-19.31-3-24.62-14.71Z" style="fill:#20386f; fill-rule:evenodd;"/><path d="M1000.89,560.63c1.58-3.07,6.59-3.64,11.2-1.29,4.61,2.37,7.04,6.79,5.42,9.91-1.58,3.08-6.6,3.65-11.2,1.29-4.58-2.41-7.01-6.84-5.42-9.91Z" style="fill:#20386f; fill-rule:evenodd;"/><path d="M988.39,524.13c2.04-3.97,6.89-5.55,10.8-3.5,3.93,1.99,5.45,6.87,3.39,10.81-2.03,3.97-6.88,5.55-10.82,3.54-3.91-2.05-5.42-6.91-3.37-10.86Z" style="fill:#20386f; fill-rule:evenodd;"/><path d="M1500.09,479.14s11.37-2.14,16.38-3.93c6.5-2.34,13.53-5.96,13.53-5.96,0,0,15.09-.37,20.13-.02,11.2,.78,24.63,1.94,29.43,5.23,1.5,1.08,3.39,5.99,.26,8.35-12.08,9.07-59.89,27.59-70.08,27.55-11.72-.06-9.64-31.22-9.64-31.22Z" style="fill:#0e2952; fill-rule:evenodd;"/><path d="M940.48,433.37c-7.77,9.35-14.62,17.27-17.59,20.06-2.97,2.81-11.94,7.52-15.08,10.18-3.24,2.73-6.03,5.34-7.15,7.08-.4,.64-8.24,21.7-8.09,24.26,.25,3.14,.51,11.44,3.06,12.37,2.6,.89,2.59-13.17,2.59-13.17l1.33-5.7c.32,8.82-1.88,23.26,1.57,23.93,3.32,.65,4.58-12.98,5.67-22.51-.05,8.96,2.35,22.28,4.91,21.98,2.31-.28-.55-15.58,3.63-25.49,1.56-3.64,6.87-4,9.23-5.89,1.69-1.37,4.5-3.39,5.52-5.39l5.13-10.17c2.81-2.56,6-5.27,9.15-7.52,3.64-2.64,8.61-7.15,13.41-10.38,.3-.2,.54-.38,.85-.56-5.05-5.55-11.14-10.04-18.15-13.07Z" style="fill:#f9af79; fill-rule:evenodd;"/><path d="M933.41,434.88s77.52-76.49,85.61-76.32c11.83,.23,59,56.07,59,56.07,0,0,84.87-69.14,116.6-96.98,3.16-2.79,24.86-18.74,27.14-19.8,5.2-2.42,22.25,16.99,23.13,19.84,.72,2.57-88.39,73-132.02,108.64-14.78,12.08-30.03,23.19-39.52,39.76l-8.31,14.5s-14.52-14.55-20.7-21.19c-9.29-9.87-35.71-47.15-35.71-47.15,0,0-53.7,44.95-59.19,48.86-1.43,1.04-20.57-20.14-16.03-26.21Z" style="fill:#6d96ce; fill-rule:evenodd;"/><path d="M1043.24,503.85c-5.88-3.93-9.55-5.48-16.21-7.86-2.67-.94,13.6-15.63,17.14,7.13,.09,.55-.48,1.04-.93,.73Z" style="fill:#eb795b; fill-rule:evenodd;"/><path d="M1028.06,539.97c-2.74-2.08-1.09-4.27,1.4-3.43,26.42,9.03,5.4,8.6-1.4,3.43Z" style="fill:#20386f; fill-rule:evenodd;"/><path d="M1012.52,532.89c3.37,.71,3.94-1.98,1.68-3.31-24.14-14.03-10.04,1.57-1.68,3.31Z" style="fill:#20386f; fill-rule:evenodd;"/><path d="M1028.18,506.31l-.17-.04c-3.05-.35-4.68-.49-5.59,.4-.83,.8-.72,2.08-.53,4.39,.24,2.54,.57,6.43-.05,12.41-.05,.43,.28,.81,.71,.87,.43,.05,.82-.27,.87-.71,.63-6.13,.29-10.1,.06-12.73-.13-1.51-.24-2.82,.05-3.1,.4-.39,2.56-.15,4.29,.06,.44,.05,.83-.27,.89-.71,.04-.36-.19-.71-.53-.83Z" style="fill:#eb795b; fill-rule:evenodd;"/><path d="M1014.54,513.95c-1.75-.89-6.51,5.1-2.25,7.26,2.27,1.15,5.13-5.8,2.25-7.26Z" style="fill:#20386f; fill-rule:evenodd;"/><path d="M1038.52,525.61c-1.76-.89-6.52,5.1-2.26,7.25,2.28,1.15,5.13-5.79,2.26-7.25Z" style="fill:#20386f; fill-rule:evenodd;"/><path d="M1043.05,503.3c3.46-.87-10.05-9.85-13.82-9.22-.41,.06-2.04,.78-1.99,1.32,.05,.56,2.06,.92,2.55,1.1,4.8,1.63,8.96,3.75,13.25,6.79Z" style="fill:#fff; fill-rule:evenodd;"/><path d="M774.81,773.13s6.07-29.77,8.44-34.15c2.37-4.4,16.21-17.26,17.59-16.89,1.39,.38,2.09,1.61,1.03,4.43-1.06,2.82-6.31,11.33-4.96,11.25,1.36-.09,18.28-23.76,23.64-21.68,5.36,2.09,8.62,20.75,3.81,33.09-4.81,12.34-29.54,29.66-30.64,31.6-9.31,16.53-18.91-7.65-18.91-7.65Z" style="fill:#f9af79; fill-rule:evenodd;"/><path d="M610.68,866.28s69.55-23.69,96.6-41c8.49-5.43,60.64-57.97,63.99-59.98,3.35-2.01,26.69,17.34,26.69,17.34,0,0-63.16,66.91-67.66,71.37-4.5,4.46-95.44,59.37-106.57,60.1-11.12,.73-23.58-11.61-25.94-23.29-3.31-16.42,12.88-24.54,12.88-24.54Z" style="fill:#466fb5; fill-rule:evenodd;"/><path d="M704.96,756.17s10.32-26.71,13.21-30.42c2.89-3.71,17.78-13.5,19-12.93,1.23,.56,1.69,1.8,.27,4.28-1.43,2.45-7.66,9.53-6.38,9.67,1.27,.15,20.71-19.22,25.36-16.43,4.66,2.77,4.76,20.65-1.65,31.35-6.4,10.71-32.11,22.92-33.43,24.56-11.25,13.9-16.39-10.07-16.39-10.07Z" style="fill:#f9af79; fill-rule:evenodd;"/><path d="M606.43,1034.42l9.1,47.81s-8.57,108.43-27.14,170.8c-7.78,26.1-94.59,157.25-94.59,157.25l-29.06-9.8,71.65-161.15-2.59-67.27,3.14-131.46,69.49-6.18Z" style="fill:#20386f; fill-rule:evenodd;"/><path d="M523.74,1021.26l-24.29,46.75-50.89,145.42-103.36,125.55s8.28,19.74,20.21,24.82l135.96-120.99,92.56-166.04,5.32-39.77-75.5-15.74Z" style="fill:#223f81; fill-rule:evenodd;"/><path d="M439.85,1412.12l18.64,.13s-1.32,12.74,1.25,18.13c2.5,5.41,9.11,15.42,9.11,15.42-.45,24.8,1.65,44.34-5.37,42.84l-23.62-76.53Z" style="fill:#0e2952; fill-rule:evenodd;"/><path d="M317.91,1342.12l17.71,5.77s-5.1,11.75-4.3,17.66c.75,5.91,4.01,17.46,4.01,17.46-7.93,23.49-11.84,42.75-18.08,39.2l.66-80.09Z" style="fill:#0e2952; fill-rule:evenodd;"/><path d="M563.32,840.41c-45.96-2.3-60.57,33.17-55.06,74.68,5.14,38.8,10.6,87.84,7.28,100.23-5.74,21.28-16.47,52.39-16.47,52.39,0,0,83.12,21.06,117.06,14.69,0,0-1.37-50.99,1.03-63.8,2.41-12.87,20.92-142.31,18.2-149.77-2.74-7.47-10.07-12.78-24.71-18.95-14.64-6.17-47.34-9.47-47.34-9.47Z" style="fill:#6d96ce; fill-rule:evenodd;"/><path d="M575.96,806.93l-12.3,34.88s12.3,46.62,25.16,45.2c10.77-1.21,11.61-40.21,11.61-40.21,0,0-1.74-21.41,1.83-31.28,3.58-9.81-26.29-8.59-26.29-8.59Z" style="fill:#f9af79; fill-rule:evenodd;"/><path d="M602.25,815.52c3.58-9.81-26.29-8.59-26.29-8.59l-1.01,2.88c.46,2.18,1.14,4.1,2.16,5.63,5.13,7.91,14.36,13.87,22.93,15.77,.18-5.64,.74-11.61,2.21-15.68Z" style="fill:#f48661; fill-rule:evenodd;"/><path d="M580.82,755.26c-.75-.44-14.16,39.67-5.54,53.05,8.65,13.33,28.93,21.01,38.13,13.47,4.55-3.7,14.31-14.69,11.71-29.64-2.63-15.14-.13-29.65-8.18-37.86-14.55-14.78-36.12,.98-36.12,.98Z" style="fill:#f9af79; fill-rule:evenodd;"/><path d="M607.49,727.5c-8.51,17.88-78.23,5.5-53.02,75.16,10.14,11.18,16.89,17.31,16.89,17.31l2.91-5.07c2.13-3.78,3.5-7.98,3.85-12.31,.19-2.57,.15-5.42-.51-7.92-1.71-6.47,7.96-8.75,11.42-13.26,2.64-3.44,4.38-12.21,8.59-17.91l4.55-4.19s9.57-4.8,17.42-1.42c7.86,3.33,15.16-18.49-12.1-30.4Z" style="fill:#20386f; fill-rule:evenodd;"/><path d="M587.09,788.63c-.86,5.05-3.98,8.75-6.94,8.2-2.98-.5-4.7-4.99-3.83-10.04,.86-5.06,3.95-8.7,6.94-8.2,2.99,.5,4.69,4.99,3.83,10.04Z" style="fill:#f9af79; fill-rule:evenodd;"/><path d="M601.7,786.51c-1.8,.07-3.45-6.98,.92-7.15,2.34-.09,2.02,7.02-.92,7.15Z" style="fill:#20386f; fill-rule:evenodd;"/><path d="M621.56,785.4c1.79-.08,2.98-7.22-1.39-7.05-2.34,.09-1.58,7.17,1.39,7.05Z" style="fill:#20386f; fill-rule:evenodd;"/><path d="M603.94,773.02c2.91-.02,2.9,2.39,.81,3.12-.61,.22-12.31,3-11.81,2.26,.94-1.55,5.49-5.36,11-5.38Z" style="fill:#20386f; fill-rule:evenodd;"/><path d="M617.24,771.47c-2.92,.09-2.86,2.49-.75,3.14,1,.3,12.49,2.68,11.76,1.7-1.21-1.6-5.69-5.02-11-4.84Z" style="fill:#20386f; fill-rule:evenodd;"/><path d="M619.99,799.52c-5.34,4.07-5.71,1.03-3.89,.69,6.05-1.11-.6-2.24-3.5-12.35-.29-1.06,.9-1.39,1.26-.54,.24,.58,.89,2.81,1.21,3.42,3.79,7.48,6.62,7.48,4.91,8.79Z" style="fill:#ed7d57; fill-rule:evenodd;"/><path d="M617.79,807.16c-9.71,15.36-17.55,.21-15.02,0,12.85-1.11,16.21-1.87,15.02,0Z" style="fill:#fff; fill-rule:evenodd;"/><path d="M531.5,860.87s71.09-24.21,98.72-41.91c8.68-5.55,70.57-68.33,73.99-70.38,3.42-2.06,29.08,15.8,29.08,15.8,0,0-74.95,79.39-79.55,83.95-4.6,4.56-97.53,60.67-108.9,61.42-11.37,.74-24.11-11.86-26.51-23.8-3.39-16.78,13.16-25.08,13.16-25.08Z" style="fill:#466fb5; fill-rule:evenodd;"/><path d="M458.24,1412.26c3.12-3.03,5.95-6.74,8.5-11.11l22.28,7.52c-9.9,13.02-16.9,24.98-21,35.89-1.85-2.86-6.32-9.94-8.28-14.17-2.56-5.39-1.25-18.13-1.25-18.13h-.24Zm-100.18-53.62c-10.07,7.75-17.84,15.13-23.32,22.15-.98-3.65-2.86-10.94-3.41-15.25-.71-5.19,3.16-14.91,4.1-17.18,3.04-1.16,6.65-3.52,10.82-7.07,1.87,3.86,6.08,11.74,11.81,17.35Z" style="fill:#f9af79; fill-rule:evenodd;"/><path d="M1329.03,213.39c-1.52,2.92-5.12,4.06-8.03,2.54-2.92-1.52-4.06-5.12-2.54-8.03,2.86-5.5,7.89-9.63,13.38-11.79,4.68-1.84,9.8-2.28,14.36-.98,32.7-17.65,62.12-38.72,88.84-63.36,20.28-18.68,39.02-39.43,56.46-62.29,3.79,1.56,7.58,3.14,11.33,4.76-18.39,24.37-38.2,46.45-59.73,66.29-27.96,25.77-58.84,47.76-93.28,66.14-1.71,1.09-3.92,1.28-5.86,.31-2.12-1.06-5.01-.89-7.79,.21-2.95,1.16-5.64,3.34-7.13,6.19Z" style="fill:#d0a382; fill-rule:evenodd;"/><path d="M1415.73,425.8c-.23,3.28-3.08,5.75-6.36,5.52-3.28-.24-5.75-3.08-5.52-6.36,.16-2.16,.78-4.33,1.77-6.38,1.71-3.5,4.61-6.78,8.18-9.1,3.68-2.39,8.11-3.8,12.77-3.46,1.34,.09,2.7,.34,4.04,.73,70.41-39.11,127.49-80.31,171.62-123.6,32.23-31.62,57.54-64.35,76.07-98.18,3.05,2.69,6.04,5.45,9.04,8.2-18.96,33.97-44.51,66.8-76.77,98.46-45.38,44.51-104.05,86.77-176.39,126.76-1.68,1.02-3.82,1.2-5.71,.27-.93-.45-1.86-.7-2.74-.76-1.92-.14-3.82,.49-5.45,1.54-1.74,1.13-3.13,2.7-3.94,4.35-.35,.72-.56,1.41-.61,2Z" style="fill:#d0a382; fill-rule:evenodd;"/><path d="M205.36,984.26h0c-5.15-.73-9.95,2.9-10.68,8.05l-36.02,256.23c-.73,5.15,2.89,9.96,8.06,10.69h0c5.16,.72,9.97-2.9,10.69-8.06l36.02-256.21c.72-5.16-2.9-9.97-8.06-10.69Z" style="fill:#a1775a; fill-rule:evenodd;"/><path d="M210,1013.29c2.18,2.46,5.95,2.7,8.41,.51,2.47-2.18,2.7-5.95,.52-8.41-4.11-4.64-10-7.42-15.85-8.18-4.98-.64-10.06,.17-14.17,2.54-36-9.17-69.66-22.47-101.57-39.86-26.42-14.41-51.65-31.63-76.02-51.66-.53,4.61-1.03,9.37-1.54,14.08,23.07,18.43,46.94,34.45,71.87,48.04,33.39,18.19,68.68,32.02,106.55,41.48,1.92,.64,4.11,.29,5.77-1.12,1.79-1.54,4.64-2.07,7.6-1.69,3.15,.42,6.29,1.87,8.42,4.28Z" style="fill:#d0a382; fill-rule:evenodd;"/><path d="M177.51,1240.41c1.02,3.12,4.38,4.83,7.51,3.81,3.13-1.03,4.83-4.39,3.81-7.52-.67-2.06-1.81-4.01-3.27-5.75-2.51-2.97-6.12-5.46-10.15-6.84-4.15-1.43-8.79-1.71-13.23-.25-1.28,.42-2.54,.98-3.74,1.69-56.44-15.11-106.34-32.99-149.85-53.61,1.07,5.11,2.25,10.03,3.53,14.75,42.74,19.55,91.27,36.57,145.69,51.01,1.87,.58,4,.23,5.61-1.13,.79-.67,1.63-1.13,2.46-1.4,1.83-.6,3.83-.46,5.67,.18,1.96,.67,3.69,1.86,4.87,3.26,.52,.61,.89,1.23,1.08,1.79Z" style="fill:#d0a382; fill-rule:evenodd;"/><path d="M284.18,1103.87c-1.63-.16-2.82-1.63-2.66-3.26,.16-1.63,1.63-2.82,3.26-2.65,22.12,2.26,42.45,.31,60.97-5.87,18.49-6.17,35.24-16.56,50.24-31.17,1.18-1.14,3.06-1.12,4.2,.05,1.14,1.18,1.12,3.06-.05,4.21-15.64,15.24-33.15,26.08-52.52,32.54-19.33,6.45-40.49,8.5-63.44,6.14h0Zm27.11,20.53c17.2,.08,32.36-2.23,45.43-6.96,13.21-4.77,24.31-11.97,33.28-21.59,1.12-1.21,1.05-3.09-.15-4.21-1.21-1.11-3.09-1.05-4.21,.16-8.32,8.93-18.64,15.62-30.93,20.06-12.42,4.48-26.9,6.68-43.4,6.61-1.64,0-2.98,1.32-2.98,2.95,0,1.65,1.32,2.98,2.95,2.99Z" style="fill:#c4d1eb; fill-rule:evenodd;"/><path d="M1427.57,561.64c-1.32-.97-1.61-2.84-.64-4.15,.96-1.33,2.83-1.61,4.15-.64,17.94,13.14,36.47,21.73,55.57,25.78,19.06,4.04,38.77,3.53,59.11-1.48,1.59-.39,3.2,.58,3.59,2.18,.39,1.59-.58,3.2-2.17,3.59-21.2,5.24-41.79,5.74-61.77,1.52-19.94-4.22-39.22-13.15-57.84-26.79h0Zm13.01,31.41c14.8,8.78,29.04,14.44,42.71,16.98,13.8,2.57,27.02,1.98,39.62-1.8,1.58-.47,2.47-2.12,2-3.7-.47-1.57-2.13-2.47-3.71-2-11.69,3.5-23.98,4.05-36.82,1.66-12.99-2.41-26.59-7.83-40.78-16.25-1.42-.83-3.24-.37-4.07,1.04-.84,1.41-.37,3.24,1.04,4.07Z" style="fill:#c4d1eb; fill-rule:evenodd;"/></svg>