<?xml version="1.0" encoding="UTF-8"?><svg id="a" xmlns="http://www.w3.org/2000/svg" viewBox="0 0 1748.48 1494.54"><path d="M1743.36,422.26H955.29c5.66-23.95,27.16-41.76,52.83-41.76,1.23,0,2.47,.05,3.69,.14,12.44-30.46,42.38-51.95,77.33-51.95,15.29,0,29.6,4.12,41.92,11.29,15.03-49.55,61.05-85.62,115.51-85.62,11.08,0,21.82,1.51,32.01,4.32,26.37-58.21,84.95-98.69,153.01-98.69,80.71,0,148.11,56.97,164.22,132.9,1.37-.05,2.72-.1,4.07-.1,51.71,0,94.38,38.66,100.68,88.65,21.1,3.95,37.9,20.08,42.79,40.82Z" style="fill:#e0e8f5; fill-rule:evenodd;"/><path d="M1263.95,1421.14c244.79,0,443.23,12.49,443.23,27.91s-198.44,27.91-443.23,27.91-443.23-12.49-443.23-27.91,198.44-27.91,443.23-27.91Z" style="fill:#c4d1eb; fill-rule:evenodd;"/><ellipse cx="414.83" cy="1470.64" rx="165.35" ry="23.9" style="fill:#c4d1eb;"/><path d="M171.21,1389.6c91.32,0,165.35,10.7,165.35,23.9s-74.03,23.9-165.35,23.9-165.35-10.7-165.35-23.9,74.03-23.9,165.35-23.9Z" style="fill:#c4d1eb; fill-rule:evenodd;"/><path d="M64.77,617.07c-63.04,271.21,92.66,486.71,403.56,484.37,47.47-297.3-108.83-485.83-403.56-484.37Z" style="fill:#c4d1eb; fill-rule:evenodd;"/><path d="M78.86,646.58c-1.46-1.73-1.24-4.31,.49-5.76,1.73-1.46,4.3-1.24,5.76,.48l137.57,162.91,46.12-113.76c.85-2.09,3.24-3.1,5.33-2.25,2.09,.85,3.1,3.24,2.25,5.33l-47.73,117.75,38.2,45.24c1.17,.49,2.09,1.52,2.4,2.84l29.3,34.69,70.33-118.23c1.16-1.94,3.67-2.58,5.6-1.42,1.94,1.16,2.58,3.67,1.42,5.61l-71.77,120.66,34.33,40.65c.12,.13,.23,.26,.33,.41l34.87,41.29,55.08-85.37c1.22-1.89,3.76-2.44,5.65-1.21,1.9,1.22,2.44,3.75,1.21,5.64l-56.43,87.47,92.27,109.27c1.46,1.73,1.24,4.31-.48,5.76s-4.31,1.24-5.76-.48l-62.05-73.48-77.17,22.98c-2.16,.65-4.44-.58-5.09-2.74-.65-2.16,.58-4.44,2.74-5.09l73.76-21.96-63.2-74.84-132.68,46.68c-2.14,.75-4.47-.37-5.23-2.5-.75-2.14,.37-4.47,2.5-5.23l129.74-45.65-32.48-38.46-.13-.16-32.7-38.72-140.52,30.08c-2.21,.47-4.38-.94-4.86-3.15-.47-2.21,.94-4.39,3.15-4.86l136.23-29.17-36.35-43.04-.18-.22-38.86-46.02-105.89,10.08c-2.24,.22-4.24-1.43-4.46-3.67-.22-2.25,1.43-4.24,3.67-4.46l100.26-9.55-96.57-114.36Z" style="fill:#fff; fill-rule:evenodd;"/><path d="M1748.48,821.81c-2.73,278.43-204.87,451.11-506.44,375.49,24.01-300.11,220.38-446.45,506.44-375.49Z" style="fill:#e0e8f5; fill-rule:evenodd;"/><path d="M1727.83,847.17c1.82-1.33,2.22-3.89,.88-5.71-1.34-1.83-3.89-2.22-5.71-.89l-172.12,125.86-17.98-121.43c-.33-2.24-2.41-3.78-4.65-3.45-2.23,.33-3.77,2.42-3.44,4.65l18.61,125.68-47.8,34.95c-1.25,.2-2.39,.98-3,2.2l-36.65,26.8-40.45-131.48c-.67-2.16-2.96-3.37-5.11-2.71-2.16,.67-3.37,2.96-2.7,5.11l41.28,134.19-42.95,31.41c-.14,.09-.29,.19-.42,.31l-43.63,31.9-33.38-95.96c-.75-2.13-3.08-3.25-5.21-2.51-2.13,.74-3.25,3.07-2.51,5.2l34.2,98.31-115.44,84.41c-1.82,1.33-2.22,3.89-.88,5.71,1.33,1.82,3.89,2.22,5.71,.89l77.63-56.76,69.57,40.53c1.95,1.14,4.45,.48,5.59-1.46,1.13-1.95,.48-4.45-1.47-5.59l-66.5-38.75,79.08-57.82,117.92,76.66c1.9,1.24,4.44,.7,5.67-1.2,1.24-1.9,.7-4.44-1.2-5.67l-115.31-74.97,40.64-29.72,.16-.12,40.91-29.91,129.46,62.39c2.04,.98,4.48,.12,5.46-1.91,.98-2.04,.12-4.49-1.91-5.46l-125.51-60.49,45.48-33.25,.23-.17,48.62-35.55,100.51,34.78c2.13,.74,4.46-.39,5.2-2.52,.74-2.13-.39-4.46-2.52-5.2l-95.17-32.93,120.83-88.34Z" style="fill:#fff; fill-rule:evenodd;"/><path d="M383.66,415.32c-186.89,206.39-155.54,470.4,117.31,619.45,185.98-236.77,140.99-477.5-117.31-619.45Z" style="fill:#e0e8f5; fill-rule:evenodd;"/><path d="M381.63,447.96c-.43-2.22,1.01-4.37,3.23-4.8,2.21-.43,4.37,1.01,4.8,3.22l41.07,209.23,95.59-77.01c1.76-1.42,4.34-1.14,5.75,.62,1.41,1.76,1.14,4.34-.62,5.75l-98.94,79.71,11.4,58.11c.79,1,1.09,2.35,.72,3.66l8.74,44.55,118.92-69.15c1.95-1.14,4.45-.47,5.59,1.48,1.13,1.95,.47,4.46-1.48,5.59l-121.37,70.57,10.25,52.21c.04,.17,.08,.35,.1,.52l10.41,53.04,89.62-47.84c1.99-1.06,4.47-.31,5.53,1.68,1.06,1.99,.31,4.47-1.69,5.53l-91.82,49.02,27.54,140.34c.43,2.22-1.01,4.37-3.23,4.8-2.21,.43-4.36-1.01-4.8-3.22l-18.52-94.37-78.61-17.42c-2.2-.48-3.6-2.66-3.11-4.86,.48-2.2,2.66-3.6,4.86-3.12l75.14,16.65-18.86-96.12-138.64-23.68c-2.23-.38-3.73-2.5-3.35-4.73,.38-2.23,2.5-3.73,4.73-3.35l135.58,23.15-9.7-49.4-.04-.2-9.76-49.73-137.42-42c-2.16-.66-3.38-2.95-2.72-5.11,.66-2.16,2.95-3.38,5.11-2.72l133.25,40.71-10.85-55.28-.06-.28-11.6-59.11-97.44-42.64c-2.07-.9-3.02-3.31-2.11-5.38,.9-2.06,3.31-3.01,5.38-2.11l92.26,40.37-28.83-146.87Z" style="fill:#fff; fill-rule:evenodd;"/><path d="M1486.2,550.52c132.92,244.66,40.17,493.82-260.14,574.28-124.86-273.96-24.35-497.29,260.14-574.28Z" style="fill:#c4d1eb; fill-rule:evenodd;"/><path d="M1480.46,582.72c.95-2.05,.05-4.48-2-5.43-2.05-.95-4.48-.05-5.42,2l-89.27,193.63-74.72-97.39c-1.37-1.79-3.95-2.13-5.74-.75-1.79,1.38-2.13,3.95-.75,5.74l77.34,100.8-24.79,53.78c-1,.78-1.61,2.02-1.56,3.38l-19.01,41.23-99.25-95.26c-1.62-1.56-4.22-1.51-5.78,.12-1.56,1.63-1.51,4.22,.12,5.78l101.28,97.21-22.28,48.33c-.08,.15-.16,.31-.22,.48l-22.63,49.08-75.81-67.64c-1.68-1.5-4.27-1.35-5.77,.33-1.5,1.69-1.35,4.27,.33,5.77l77.67,69.3-59.88,129.88c-.95,2.05-.05,4.47,2,5.42,2.05,.95,4.48,.05,5.42-2l40.26-87.34,80.5,1.62c2.25,.05,4.12-1.74,4.17-4s-1.74-4.12-4-4.17l-76.94-1.55,41.01-88.96,140.31,9.7c2.26,.16,4.21-1.55,4.37-3.8,.16-2.26-1.55-4.22-3.81-4.37l-137.21-9.49,21.08-45.72,.08-.18,21.22-46.03,143.46-8.39c2.25-.13,3.98-2.07,3.84-4.33-.13-2.25-2.07-3.98-4.33-3.85l-139.08,8.13,23.58-51.16,.12-.26,25.21-54.7,104.75-18.45c2.22-.39,3.71-2.51,3.32-4.73-.39-2.22-2.51-3.71-4.73-3.32l-99.18,17.47,62.66-135.93Z" style="fill:#e0e8f5; fill-rule:evenodd;"/><path d="M623.29,795.34c116.98,0,211.81,94.83,211.81,211.8s-94.83,211.81-211.81,211.81-211.81-94.83-211.81-211.81,94.83-211.8,211.81-211.8Z" style="fill:#c4d1eb; fill-rule:evenodd;"/><circle cx="623.29" cy="1007.14" r="202.52" transform="translate(-529.6 735.72) rotate(-45)" style="fill:#fff;"/><path d="M595.55,949.44s-1.06,32.98-5.28,47.74l-33.4,23.3,125.71,18.81-29.98-41.42s-9.05-44.19-4.31-60.55c4.75-16.36-52.74,12.11-52.74,12.11Z" style="fill:#c4d1eb; fill-rule:evenodd;"/><path d="M595.37,954s9.94,23.93,28.66,23.41c18.73-.52,22.99-21.7,22.99-21.7l-51.65-1.71Z" style="fill:#b0c2e4; fill-rule:evenodd;"/><path d="M584.19,934.62s-6.05-30.18-10.27-39.32c-4.22-9.13-7.73-49.94,39.03-52.03,0,0,17.94,2.09,27.78-3.87,0,0,0,5.96-2.47,8.09,0,0,16.18-3.88,28.84,10.18,12.66,14.07-8.44,63.29-7.38,74.9l-75.54,2.05Z" style="fill:#9db2d9; fill-rule:evenodd;"/><path d="M647.76,877.73h-51.76c-6.96,0-12.65,6.67-12.65,14.85v34.9c0,22.38,24.97,40.44,38.54,40.69,15.55,.28,38.54-19.19,38.54-42.66v-32.93c0-8.18-5.69-14.85-12.66-14.85Z" style="fill:#c4d1eb; fill-rule:evenodd;"/><path d="M583.35,911.21s.07-20.97,16.68-24.2c16.62-3.23,53.8,10.22,59.07-5.06,5.28-15.31-71.88-15.05-75.76-5.29-3.88,9.77,0,34.55,0,34.55Z" style="fill:#9db2d9; fill-rule:evenodd;"/><path d="M528.2,1185.99c-.03-16.11-.57-31.98-1.04-48.05-.11-3.92-.03-8.58,.21-13.73,2.46,3.93,26.04,42,38.54,77.2-13.18-3.88-25.8-9.07-37.71-15.42Z" style="fill:#24437d; fill-rule:evenodd;"/><path d="M695.33,1005.68v.07c-15.21-3.83-29.51-6.34-42.74-7.88-11.67,15.5-20.04,19.08-30.71,23.3-17.17-2.37-31.62-23.5-31.62-23.99-18.7,1.92-31.31,5.35-36.44,6.94-.87,.11-41.94,5.55-103.16,108.95,10.68,17.37,23.92,33,39.18,46.38,9.55-8.27,24.96-21.66,37.42-32.48-.15,4.05-.19,7.75-.09,10.96,.46,16.07,1.01,31.94,1.04,48.05,28.35,15.11,60.72,23.68,95.09,23.68,32.08,0,62.4-7.46,89.36-20.74-1.52-13.39-2.78-26.37-3.36-37.77-.62-12.51-1.21-23.96-1.74-34.41,12.55,10.92,36.25,31.5,49.19,42.71,15.28-13.39,28.52-29.05,39.21-46.45-61.32-104.08-100.63-107.33-100.63-107.33Z" style="fill:#b0c2e4; fill-rule:evenodd;"/><path d="M756.74,1159.46c-13-11.26-36.88-32-49.38-42.85,0,0,17.06-12.79,27.61,5.85,6.58,11.61,16.85,26.09,23.65,35.34l-1.88,1.66Z" style="fill:#9db2d9; fill-rule:evenodd;"/><path d="M592.01,989.16s-5.58,2.33-7.16,8.65c0,0,22.39,23.03,37.04,23.37l-29.88-32.02Z" style="fill:#9db2d9; fill-rule:evenodd;"/><path d="M621.89,1021.18l28.9-33.18s5.97,3.92,5.87,10.37c0,0-22.34,23.69-34.77,22.81Z" style="fill:#9db2d9; fill-rule:evenodd;"/><path d="M616.68,1018.74s-15.31,132.13-15.97,189.67c7.41,.82,14.94,1.26,22.58,1.26,6.14,0,12.21-.28,18.21-.82-3.93-53.59-15.44-190.25-15.44-190.25l-9.38,.15Z" style="fill:#9db2d9; fill-rule:evenodd;"/><path d="M610.91,1009.41s13.33-1.35,21.44-.52c1.61,.17,2.5,1.93,1.73,3.34-2.28,4.11-6.92,11.2-11.77,11.2-6.82,0-17.45-13.54-11.4-14.02Z" style="fill:#859ac6; fill-rule:evenodd;"/><path d="M1167.68,807.64c116.97,0,211.81,94.83,211.81,211.81s-94.83,211.8-211.81,211.8-211.81-94.83-211.81-211.8,94.83-211.81,211.81-211.81Z" style="fill:#c4d1eb; fill-rule:evenodd;"/><path d="M1167.68,816.93c111.84,0,202.52,90.67,202.52,202.52s-90.68,202.51-202.52,202.51-202.52-90.67-202.52-202.51,90.67-202.52,202.52-202.52Z" style="fill:#fff; fill-rule:evenodd;"/><path d="M1111.32,946.45c-15.33,19.32-21.13,29.94-15.96,41.51,5.23,11.7,144.4,30.07,132.03-6.02-2.69-7.87-9.62-14.32-10.09-20.22-.31-3.82,3.72-7.11,3.39-10.96-.37-4.21-9.03-7.29-12.17-10.26-4.32-4.07-2-9.4-4.87-14.47-4.47-7.92-3.18-13.23-4.24-15.53-13.37-28.64-72.87-20.08-83.3-2.18-6.72,11.51,5.79,24.8-4.79,38.12Z" style="fill:#9db2d9; fill-rule:evenodd;"/><path d="M1220.31,1038.38c-25.47-17.88-49.17-17.48-39.5-63.9l-43.86-2.65c-1.78,34.45,.53,36.89-14.27,49.61-3.26,2.8-24.03,14.41-24.03,14.41,32.96,28.59,93.21,26.21,121.66,2.53Z" style="fill:#c4d1eb; fill-rule:evenodd;"/><path d="M1119.02,910.27c-11.26,67.7,45.94,107.98,68.74,54.17,41.15-97.1-59.59-109.28-68.74-54.17Z" style="fill:#c4d1eb; fill-rule:evenodd;"/><path d="M1161.72,889.3c28.39,5,29.78,42.81,32.35,57.28,2.69-11.13,19.87-24.23,11.42-42.72-7.1-15.48-13.28-42.88-44.29-38.59-18.92,2.61-39.28,11.76-42.63,29.35-2.84,14.84-3.69,36.64,1.07,52.5,2.67-12.34,.53-21.48,6.2-32.76,7.07-14.11,21.31-27.63,35.88-25.07Z" style="fill:#9db2d9; fill-rule:evenodd;"/><path d="M1198.23,934.08c-6.59-2.23-7.54,11.71-7.82,18.66-.55,13.64,18.2-15.18,7.82-18.66Z" style="fill:#c4d1eb; fill-rule:evenodd;"/><path d="M1115.42,930.25c6.74-1.71,6.62,12.26,6.38,19.19-.47,13.67-16.99-16.5-6.38-19.19Z" style="fill:#c4d1eb; fill-rule:evenodd;"/><path d="M1139.36,981.51c14.86,13.24,34.71,5.83,39.47-3.09,1.87-3.48-1.36,15.01-18.17,18-18.57,3.32-25.57-18.74-21.3-14.91Z" style="fill:#b0c2e4; fill-rule:evenodd;"/><path d="M1083.44,1203.66c13.39-41.89,13.92-65.22,13.85-98.59-10.54-1.66-20.96-5.04-31.44-6.49-5.35,14.94-8.21,64.47-7.91,66.35-.69,6.18-1.84,13.92-3.29,22.58,9.1,6.14,18.73,11.55,28.8,16.16Z" style="fill:#c4d1eb; fill-rule:evenodd;"/><path d="M1095.67,1032.03c-25.39,5.38-23.06,4.01-46.81,92.9-1.91,7.17,19.46,18.4,50.63,17.91,19.31-42.19,37.5-75.11,26.47-98.07-4.01-8.3-25.29-13.79-30.28-12.73Z" style="fill:#e0e8f5; fill-rule:evenodd;"/><path d="M1095.85,1032.96l-.77,.14q-22.1,4.67-40.34,73.35c-1.51,5.74-3.18,11.96-4.97,18.72-.28,1.04,.09,2.21,1.14,3.54,4.42,5.67,22.16,13.46,47.98,13.18,2.13-4.66,4.26-9.2,6.32-13.63,16.46-35.3,29.45-63.17,19.88-83.07-3.66-7.63-24.21-13.29-29.23-12.23h0Zm1.69,110.83c-24.22,0-42.8-7.07-48.13-13.92-1.4-1.78-1.89-3.57-1.45-5.19,1.8-6.74,3.45-12.96,4.98-18.71q18.5-69.8,41.77-74.69l.78-.18c5.66-1.19,27.16,4.6,31.32,13.28,9.96,20.7-3.22,48.95-19.87,84.68-2.16,4.6-4.36,9.33-6.59,14.18l-.24,.53-.59,.02c-.67,.02-1.32,.02-1.97,.02Z" style="fill:#e0e8f5; fill-rule:evenodd;"/><path d="M1237.7,1209.53c-9.56-33.33-18.83-68.82-24.17-97.55-2.73-14.66,37.77-24.01,37.16-26.92,4.08,19.05,11.35,64.95,18.14,109.87-9.88,5.71-20.28,10.61-31.12,14.6Z" style="fill:#c4d1eb; fill-rule:evenodd;"/><path d="M1208.62,1027.51c25.86,1.63,25.08-1.09,61.33,83.04,3.54,8.18-27.5,23.42-49.06,27.16-25.23-38.95-47.98-68.9-40.37-93.2,2.75-8.81,23-17.33,28.11-17.01Z" style="fill:#e0e8f5; fill-rule:evenodd;"/><path d="M1208.26,1028.44c-5.53,0-24.36,8.41-26.86,16.35-6.58,21.08,10.32,46.78,31.71,79.31,2.69,4.07,5.43,8.26,8.22,12.57,19-3.46,43.19-15.05,47.35-22.77,.65-1.16,.78-2.14,.4-2.99-34.87-80.92-35.3-80.94-58.13-82.3l-2.39-.15-.3-.02h0Zm12.18,110.31l-.34-.53c-2.92-4.49-5.78-8.84-8.58-13.08-21.65-32.95-38.76-58.97-31.91-80.92,2.88-9.18,23.24-18.04,29.08-17.66l2.36,.15c24.21,1.44,24.76,2.21,59.78,83.45,.61,1.38,.45,2.95-.47,4.63-4.91,9.09-31.22,20.69-49.31,23.84l-.6,.11Z" style="fill:#e0e8f5; fill-rule:evenodd;"/><path d="M1128.6,1016.79c7.08,14.84,47.39,22.24,55.74-3.21,26.33,8.31,35.98,15.16,35.98,15.16,2.79,37.56,29.51,144.42,1.88,163.46-49.23,6.54-85.14,9.4-126.12,.72-21.31-9.42-7.65-157.51-7.29-159.41,0,0,14.35-4.42,39.81-16.73Z" style="fill:#b0c2e4; fill-rule:evenodd;"/><path d="M1096.38,1192.03c39.03,8.25,72.91,6.22,125.47-.73,20.17-14.32,10.08-78.26,2.69-124.98-2.37-14.95-4.42-27.9-5.13-37.04-1.95-1.27-12-7.36-34.48-14.54-3.58,9.71-12.42,15.68-24.46,16.45-13.48,.86-27.66-4.99-32.3-13.16-21.95,10.56-35.63,15.25-38.53,16.2-1.58,12.04-12.78,148.75,6.73,157.79h0Zm52.38,7.28c-18.04,0-34.9-1.65-52.88-5.45l-.18-.05c-22.32-9.86-8.12-159.01-7.84-160.45l.12-.58,.53-.14c.15-.06,14.57-4.58,39.66-16.7l.87-.41,.41,.85c3.74,7.85,17.9,13.76,30.91,12.93,6.79-.43,18.83-3.09,23.07-16.04l.28-.88,.91,.28c26.18,8.25,35.85,15.02,36.25,15.31l.36,.27,.03,.43c.68,9.1,2.74,22.19,5.13,37.37,7.5,47.33,17.74,112.2-3.66,126.95l-.18,.13-.23,.02c-28.8,3.82-52.03,6.17-73.56,6.17Z" style="fill:#b0c2e4; fill-rule:evenodd;"/><path d="M1090.15,1206.59c1.77-4.5,3.75-9,5.93-13.66,37.87,.25,87.84,.71,126.12-.72,3.16,5.79,6.13,12.49,8.86,19.64-19.94,6.57-41.25,10.12-63.38,10.12-27.47,0-53.65-5.48-77.53-15.38Z" style="fill:#9db2d9; fill-rule:evenodd;"/><path d="M1096.68,1193.88c-2.08,4.44-3.95,8.75-5.63,13.08l-1.76-.72c1.77-4.52,3.75-9.04,5.94-13.7l.26-.54,8.21,.05c36.86,.25,82.72,.55,118.46-.77l.58-.02,.28,.51c3.16,5.79,6.16,12.55,8.92,19.8l-1.79,.58c-2.64-6.91-5.49-13.37-8.5-18.96-35.7,1.31-81.28,1.01-117.95,.76l-7.02-.06Z" style="fill:#9db2d9; fill-rule:evenodd;"/><path d="M1222.19,1192.21c-36.93,7.56-84.13,7.86-126.12,.72-20.4-16.05,17.36-58.9,19.96-95.79,.07-1,.89-1.79,1.89-1.79,86.76,0,83.41-.82,83.57,1.81,2.25,38.31,44.31,77.61,20.71,95.06Z" style="fill:#9db2d9; fill-rule:evenodd;"/><path d="M1096.48,1192.04c41.67,7.04,88.48,6.77,125.32-.72,12.89-9.73,4.49-27.01-5.24-46.98-7.06-14.52-15.06-30.97-16.02-47.13v-.33l-.02-.25c-.83-.54-9.28-.51-34.37-.43-11.74,.04-27.39,.08-48.23,.08-.49,0-.91,.4-.95,.91-1.08,15.34-8.29,31.96-14.65,46.63-9.12,21.01-16.99,39.16-5.84,48.21h0Zm62.29,6.98c-21.01,0-42.52-1.7-62.83-5.16l-.26-.04-.18-.15c-12.57-9.88-4.39-28.75,5.09-50.6,6.3-14.52,13.46-30.98,14.5-46.01,.11-1.51,1.33-2.67,2.84-2.67,20.84,0,36.5-.03,48.23-.07q36.24-.12,36.28,2.55v.23c.92,15.8,8.83,32.05,15.83,46.42,10.14,20.82,18.88,38.83,4.5,49.46l-.37,.17c-19.21,3.92-41.13,5.89-63.62,5.89Z" style="fill:#9db2d9; fill-rule:evenodd;"/><path d="M1224.43,1196.45c-44.63,5.05-106.6,5.21-130.22,.17l1.87-3.7c-.83-.33-2.93-1.92-3.83-3.65,45.96,1.88,104.49,.63,134.45-1.72-1.98,2.74-3.41,4.5-4.5,4.65l2.23,4.25Z" style="fill:#9db2d9; fill-rule:evenodd;"/><path d="M1095.6,1195.93c23.91,4.68,83.5,4.55,127.35-.28l-2.21-4.2,1.32-.19c.57-.08,1.71-1.38,2.66-2.62-29.91,2.2-85.6,3.39-130.53,1.64,.85,.9,1.84,1.6,2.25,1.76l.97,.38-1.8,3.5h0Zm54.76,5.33c-23.73,0-44.78-1.24-56.34-3.71l-1.21-.27,2.02-3.97c-1.12-.74-2.63-2.09-3.41-3.61l-.73-1.44,1.61,.05c46.26,1.9,104.64,.61,134.35-1.72l2.02-.17-1.19,1.67c-1.72,2.37-2.92,3.84-3.98,4.56l2.4,4.56-1.36,.15c-22.71,2.58-49.85,3.88-74.18,3.88Z" style="fill:#9db2d9; fill-rule:evenodd;"/><path d="M1123.2,1098.94l-3.16,.46c-.73-22.51-9.08-48.35-10.84-73.77l2.63-1.12c2.25,25.37,11.52,60.33,11.37,74.43Z" style="fill:#9db2d9; fill-rule:evenodd;"/><path d="M1110.18,1026.24c.88,12.01,3.23,24.18,5.51,35.95,2.46,12.71,4.76,24.73,5.26,36.13l1.3-.19c-.11-7.28-2.48-19.82-4.98-33.05-2.39-12.71-5.09-27.04-6.29-39.17l-.81,.34h0Zm8.94,74.24l-.03-1.06c-.38-11.54-2.74-23.85-5.25-36.89-2.34-12.04-4.74-24.49-5.59-36.84l-.04-.67,4.44-1.9,.12,1.29c1.1,12.32,3.89,27.18,6.35,40.3,2.74,14.45,5.09,26.92,5.02,34.22l-.02,.81-5,.73Z" style="fill:#9db2d9; fill-rule:evenodd;"/><path d="M1193.86,1099.84l3.14,.46c.75-22.5,9.29-52.53,11.03-77.93l-2.29-1.04c-2.25,25.37-12.04,64.44-11.89,78.51Z" style="fill:#9db2d9; fill-rule:evenodd;"/><path d="M1194.81,1099.03l1.29,.19c.51-11.51,2.88-24.65,5.42-38.54,2.29-12.66,4.65-25.74,5.55-37.73l-.47-.21c-1.2,12.13-4,27.37-6.5,40.88-2.64,14.39-5.16,28.02-5.28,35.41h0Zm3.1,2.38l-4.99-.74v-.8c-.08-7.37,2.53-21.56,5.32-36.59,2.57-13.97,5.48-29.78,6.57-42.02l.13-1.3,4.09,1.8-.04,.66c-.85,12.29-3.28,25.67-5.63,38.61-2.59,14.23-5.01,27.69-5.4,39.32l-.05,1.06Z" style="fill:#9db2d9; fill-rule:evenodd;"/><path d="M1125.44,1099.39c3.14-6.17-5.93-5.85-7.42-3.05-2.14,4,4.53,8.73,7.42,3.05Z" style="fill:#fffffb; fill-rule:evenodd;"/><path d="M1191.19,1099.39c-3.16-6.17,5.9-5.85,7.4-3.05,2.16,4-4.51,8.73-7.4,3.05Z" style="fill:#fffffb; fill-rule:evenodd;"/><path d="M1140.05,1140.93c-.27,1.76-1,7.68-1.12,17.57,0,1.1,.07,1.1,.95,1.13,11.5,.4,23.14,.4,34.61-.03,.15,0,.4-.06,.72-.42,2.47-2.8,2.2-15.25,1.8-19.78-3.16-1.27-27.69-1.32-36.94,1.53h0Zm16.74,20.88c-5.65,0-11.33-.09-16.97-.28-1.99-.08-2.8-.97-2.78-3.06,.13-12.07,1.17-18.18,1.23-18.43l.09-.55,.53-.19c9.17-3.14,36.42-3.25,39.32-1.4,.47,.3,.6,.68,.64,.95,.02,.17,1.5,17.32-2.24,21.57-.73,.86-1.53,1.04-2.07,1.07-5.87,.23-11.8,.32-17.75,.32Z" style="fill:#fff; fill-rule:evenodd;"/><path d="M1139.18,1139.28l-.09-5.08c-.02-1.09,38.86-1.91,38.84-.02l-.02,3.88c0,1-38.68,3.1-38.72,1.21Z" style="fill:#fffffb; fill-rule:evenodd;"/><path d="M1140.1,1138.76c4.05,1.06,32.43-.38,36.85-1.35l.02-2.74c-3.93-1.12-32.46-.61-36.92,.17l.06,3.91h0Zm6.87,2.24c-8.28,0-8.73-.63-8.74-1.7l-.12-5.64,.55-.36c1.97-1.17,36.42-1.96,39.56-.16,.58,.35,.64,.86,.64,1.05l-.02,3.9c0,1,0,1.38-11.46,2.14-6.52,.43-13.87,.73-19.19,.78h-1.23Z" style="fill:#fffffb; fill-rule:evenodd;"/><path d="M1143.34,1197.21c-16.02,0-30.67-.95-47.05-3.29-.51-.08-.88-.55-.81-1.06,.07-.51,.57-.89,1.08-.82,37.57,5.36,66.13,3.37,123.02-.58l1.64-.12c.55-.02,.98,.36,1.01,.88,.04,.51-.36,.97-.89,1.01l-1.62,.12c-32.29,2.25-55.48,3.86-76.37,3.86Z" style="fill:#9db2d9; fill-rule:evenodd;"/><circle cx="881.69" cy="565.7" r="211.81" transform="translate(-141.77 789.14) rotate(-45)" style="fill:#c4d1eb;"/><path d="M881.69,363.18c111.85,0,202.52,90.68,202.52,202.53s-90.67,202.51-202.52,202.51-202.52-90.67-202.52-202.51,90.67-202.53,202.52-202.53Z" style="fill:#fff; fill-rule:evenodd;"/><path d="M863.55,508.96c.26,21.25,7.29,37.01-31.8,55.39,23.28,32.02,46.19,43.84,46.19,43.84,0,0,49.01-22.06,65.86-36.65-20.72-15.09-35.77-16.9-35.4-37.1,.09-4.87-.13-24.69-.27-25.09l-44.58-.4Z" style="fill:#c4d1eb; fill-rule:evenodd;"/><path d="M870.47,530.59c8.57,5.8,18.72,4.56,28.98,1.74,11.09-3.04,30.9-34.21,25.66-75.11-6.57-51.29-80.39-51.74-77.85,16.77,.7,18.76,7.58,46.02,23.21,56.6Z" style="fill:#c4d1eb; fill-rule:evenodd;"/><path d="M896.18,436.72c-.85-1.39,1.88-19.56,2.77-21.51,6.55-14.33,30.88,1.22,34.47,13.69,2.38,8.31,1.3,35.9-8.02,56.52-.74-8.55-4.79-19.38-7.6-27.48-7.97-22.98-19.4-17.52-21.61-21.22Z" style="fill:#9db2d9; fill-rule:evenodd;"/><path d="M904.16,425.37c1.95-5.8,3.08-9.1,.45-14.37-1.35-2.73-28.57-30.68-56.43,9.23-10.26,14.71-15.91,24.99,.41,66.73,3.49-4.6,.65-12.68,3.68-18.17,6.36-11.5,21.45-11.65,39.79-19.1,5.92-2.4,10.09-18.35,12.1-24.31Z" style="fill:#9db2d9; fill-rule:evenodd;"/><path d="M843.81,475.01c7.69-2.28,8.18,13.85,8.2,21.86,.04,15.75-20.31-18.3-8.2-21.86Z" style="fill:#c4d1eb; fill-rule:evenodd;"/><path d="M929.57,474.94c-7.68-2.27-8.17,13.84-8.19,21.86-.04,15.75,20.31-18.3,8.19-21.86Z" style="fill:#c4d1eb; fill-rule:evenodd;"/><path d="M907.87,526.11c-.32-.24-.77-.19-1.01,.13-6.6,8.58-29.94,11.48-41.13-.76-.66-.7-1.71,.28-1.07,.97,16.68,27.56,47.48,8.17,43.21-.34Z" style="fill:#b0c2e4; fill-rule:evenodd;"/><path d="M883.8,768.2l-2.11,.02c-7.45,0-14.79-.41-22.03-1.19,2.87-.3,8.02,.05,18.59,.78l5.55,.38Z" style="fill:#323d4e; fill-rule:evenodd;"/><path d="M978.72,743.51c-8.67-37.08-15.31-66.75-15.48-67.57-.89-4.13-.42-6.76,6.43-8.14,39.94-8.15,34.77-20.62,45.35,50.34-11.1,9.72-23.25,18.24-36.29,25.37Z" style="fill:#c4d1eb; fill-rule:evenodd;"/><path d="M784.24,743.27c9.52-39.59,17.01-72.19,17.19-73.05,.92-4.13,.47-6.76-6.38-8.19-40.99-8.6-34.33-21.5-46.58,56.2,10.95,9.57,22.93,17.98,35.76,25.04Z" style="fill:#c4d1eb; fill-rule:evenodd;"/><path d="M999.17,584.5c13.03,17.58,30.27,91.15,23.33,96.82-18.59,15.15-45,24.31-66.14,26.3-20.54-57.1-18.96-120.43-12.02-131.16,12.67-19.58,44.31-6.19,54.83,8.05Z" style="fill:#e0e8f5; fill-rule:evenodd;"/><path d="M963.55,567.56c-.31,0-.64,0-.96,.02-7.71,.24-13.58,3.39-17.46,9.38-6.42,9.93-8.6,72.22,11.88,129.66,22.92-2.33,48.32-12.49,64.9-26.04,6.15-5.02-9.88-77.16-23.48-95.54-6.32-8.54-21.29-17.48-34.87-17.48h0Zm-7.83,141.06l-.24-.69c-21.27-59.17-18.7-121.52-11.93-131.99,4.16-6.46,10.73-9.97,18.99-10.24,14.44-.43,30.65,9.12,37.41,18.24,13.11,17.7,30.63,91.97,23.14,98.09-17.01,13.9-43.18,24.31-66.62,26.52l-.74,.07Z" style="fill:#e0e8f5; fill-rule:evenodd;"/><path d="M773.43,584.5c-13,17.58-30.23,91.15-23.32,96.82,18.59,15.15,45,24.31,66.14,26.3,20.54-57.1,18.97-120.43,12-131.16-12.66-19.58-44.28-6.19-54.83,8.05Z" style="fill:#e0e8f5; fill-rule:evenodd;"/><path d="M774.19,585.05c-13.62,18.38-29.64,90.51-23.48,95.54,16.58,13.54,41.98,23.71,64.9,26.04,20.47-57.44,18.3-119.73,11.86-129.66-3.86-5.99-9.73-9.14-17.45-9.38-13.82-.39-29.35,8.73-35.83,17.46h0Zm42.7,123.58l-.73-.07c-23.45-2.21-49.62-12.62-66.63-26.52-7.5-6.12,10.03-80.36,23.14-98.09,6.76-9.12,22.93-18.69,37.4-18.24,8.26,.27,14.83,3.79,18.97,10.24,6.79,10.47,9.36,72.82-11.91,131.99l-.23,.69Z" style="fill:#e0e8f5; fill-rule:evenodd;"/><path d="M915.41,552.74c-12.29,29.8-51.57,29.4-63.33-.62-17.37,5.29-36.37,10.58-53.77,15.87,3.11,37.17-16.7,130.88-7.94,178.51,27.44,13.88,58.46,21.71,91.32,21.71,34.52,0,67.01-8.64,95.45-23.87-11.94-154.09-14.42-157.12-8.45-177.17,0,0-19.57-4.5-53.28-14.43Z" style="fill:#b0c2e4; fill-rule:evenodd;"/><path d="M799.31,568.69c1.16,15.65-1.54,41.04-4.39,67.92-4.07,38.31-8.78,82.66-3.43,110.44l-2.25-1.12c-4.86-27.7-.34-70.24,3.82-109.52,2.89-27.22,5.61-52.91,4.32-68.32l-.06-.76,.73-.21c8.69-2.64,17.94-5.34,26.87-7.95,8.95-2.59,18.2-5.29,26.88-7.94l.82-.27,.32,.81c5.31,13.56,17.06,22.04,30.66,22.15h.3c13.44,0,25.16-8.21,30.64-21.53l.33-.77,.81,.22c33.3,9.79,53.03,14.37,53.22,14.43l.97,.23-.28,.95c-4.56,15.31-4.09,21.2,1.8,93.12,1.7,20.75,3.95,48.31,6.66,83.3l-1.81,.96c-2.73-35.37-5.02-63.2-6.73-84.11-5.78-70.76-6.35-77.89-2-92.86-4.32-1.02-22.81-5.53-51.57-13.97-5.95,13.66-18.25,21.97-32.35,21.91-14.11-.11-26.33-8.72-32.04-22.53-8.46,2.57-17.43,5.18-26.1,7.7-8.68,2.53-17.65,5.14-26.13,7.73Z" style="fill:#b0c2e4; fill-rule:evenodd;"/><path d="M937.89,682.64c-37.02,6.48-92.07,14.19-112.18,0-4.02-2.83-8.92-4.5-8.92-10.05,0-20.02-2.31-30.13,8.92-31.7,42.88-6.08,112.18,0,112.18,0,4.91,0,8.9,4.5,8.9,10.03,0,20.77,2.28,29.77-8.9,31.72Z" style="fill:#e0e8f5; fill-rule:evenodd;"/><path d="M781.98,692.87l-.38-.09c-10.47-4.85-20.71-10.43-30.45-16.61-.45-.28-.58-.84-.29-1.29,.28-.43,.86-.56,1.3-.28,9.68,6.13,19.84,11.67,30.23,16.49,.47,.21,.68,.77,.46,1.24-.17,.34-.51,.55-.86,.55Z" style="fill:#f1e8dd; fill-rule:evenodd;"/><path d="M979.66,696.27c-.45,0-.84-.33-.92-.81-.09-.51,.26-.97,.77-1.07,14.29-2.25,27.87-9.87,37.25-20.86,.34-.41,.94-.45,1.32-.11,.41,.34,.45,.92,.11,1.31-9.67,11.35-23.65,19.19-38.38,21.52l-.15,.02Z" style="fill:#f1e8dd; fill-rule:evenodd;"/><path d="M882.53,584.9c-.59,0-1.15-.02-1.73-.03-16.3-.65-30.41-10.23-36.8-25.05-.21-.47,.02-1.02,.49-1.22,.46-.21,1.04,.02,1.24,.48,6.12,14.13,19.59,23.3,35.15,23.9,15.52,.64,29.6-7.45,36.82-21.07,.25-.45,.81-.63,1.26-.39,.47,.24,.63,.81,.39,1.27-7.28,13.76-21.27,22.1-36.82,22.1Z" style="fill:#e0e8f5; fill-rule:evenodd;"/><path d="M704.48,335.36H0c5.06-21.41,24.28-37.33,47.23-37.33,1.1,0,2.21,.04,3.3,.12,11.12-27.23,37.88-46.44,69.13-46.44,13.67,0,26.47,3.69,37.48,10.09,13.44-44.29,54.58-76.54,103.26-76.54,9.9,0,19.5,1.35,28.61,3.86,23.57-52.04,75.95-88.22,136.78-88.22,72.15,0,132.41,50.93,146.8,118.8,1.22-.04,2.43-.09,3.65-.09,46.23,0,84.37,34.56,90,79.25,18.86,3.53,33.88,17.96,38.25,36.49Z" style="fill:#e0e8f5; fill-rule:evenodd;"/><path d="M80.09,867.81c3.42,.26,6.7-3.99,7.65-5.26,3.63-4.83,5.94-10.5,6.87-13.68-.71-2.11-1.45-4.79-2.22-8.01-13.14-9.37-14.93-16.29-5.39-20.78,1.93,1.13,4.31,4.62,7.16,10.46,2.28-.09,4-1.32,5.18-3.67-2.72-9.86-4.47-17.86-5.3-24.02,6.47-10.1,21.61-11.54,41.65-8.81,.93,5.6,1.69,11.53,2.29,17.79,3.54,3.43,3.09,16.13-.18,30.77,1.63,8.33-3.27,12.87-14.69,13.63-.12,2,.06,4.32,.09,5.73,.03,1.27,.07,3.77,1.35,4.16l2.11,.55c-.21,29.76-14.73,35.48-46.58,1.14Z" style="fill:#f9af79; fill-rule:evenodd;"/><path d="M135.7,794.04c-20.04-2.73-35.18-1.28-41.65,8.81,.82,6.15,2.58,14.16,5.3,24.02-1.18,2.35-2.9,3.57-5.18,3.66-2.85-5.84-5.24-9.33-7.16-10.46-9.54,4.49-7.75,11.42,5.39,20.78,.77,3.23,1.51,5.9,2.22,8.01-11.82-2.78-21.7-13.87-23.09-18.67-13.78-28.52,1.59-40.56,9.81-44.95,3.63-28.23,42.85-3.82,53.17-21.06,21.59,12.93,7.27,29.59,1.2,29.84Z" style="fill:#20386f; fill-rule:evenodd;"/><path d="M109.95,853.32c3.21,1.66,7.6,2.63,13.17,2.9-.11,1.98-.03,4.26,.09,5.67-5.6-1.13-10.03-3.99-13.26-8.58Z" style="fill:#ed7d57; fill-rule:evenodd;"/><path d="M56.2,1425.24c-12.45-4.6-13.44-11.33-20.15-14.62-6.76-3.31-7.53-9.21-.93-15.61,4.88,4.09,10.93,9.12,14.14,6.46,2.14-1.78,9.4-1.66,10.84,.93,6.32,15.42,15.12,10.54,16.86,17.56,.2,9.35-15.04,7.4-20.75,5.29Z" style="fill:#0e2952; fill-rule:evenodd;"/><path d="M164.06,1409.9c-21.92-.37-38.31-.65-45.88-3.16-8.17-2.71-6.48-7.93-1.79-16.3,20.66,9.98,15.16-2.05,24.82-.52,6.79,5.74,16.85,9.59,30.17,11.54,5.63,4.36,3.34,8.25-7.32,8.44Z" style="fill:#0e2952; fill-rule:evenodd;"/><path d="M153.11,871.18c-10.94-3.33-20.77-5.36-29.48-6.07-1.58,25.23-14.12,25.06-37.63-.53-22.64,1.99-27.07,2.3-39.63,6.58-27.18,27.25-29.68,58.7-43.88,94.63,15.73,.74,22.79,2.73,33.48,6.73,2.29-8.61,4.22-15.55,5.76-20.8-.43,47.39-.6,79.86-.5,97.41,52.02,21.64,94.87,14.23,112.37-2.63,.25-42.12,.58-75.47,1-100.04,6.23,7.7,11.99,13.66,17.31,17.9,12.75-15.35,21.4-21.52,28.63-30.58-16.02-27.59-38.95-53.26-47.44-62.61Z" style="fill:#6d96ce; fill-rule:evenodd;"/><path d="M257.95,917.34c-27.33,11.91-46.46,21.76-57.4,29.54l-4.86-7.55c-4.52,4.75-9.68,9.41-15.97,16.18,5.82,6.39,12.06,11.65,19.34,16.09,18.99-2.13,39.98-17.22,62.96-45.28,7.15-1.5,12.41-4.21,15.79-8.16,.18-3.61-1.56-7.24-5.21-10.87,9.53-6.52,13.33-11.19,11.39-14-14.94,9.69-23.62,17.71-26.04,24.04Z" style="fill:#f9af79; fill-rule:evenodd;"/><path d="M153.62,1046.51c-1.03,4.09,3.22,28.16,3.93,40.71,6.92,44.81,.99,103.13-2.73,178.13-6.67,26.43-16.5,61.65-15.86,111.22-11.61,3.72-15.81,4.11-26.29,1.31-7.32-51.73-2.33-93.16,4.29-112.29-4.23-29.57-10.56-62.67-19.77-110.42-10.37,52.03-24.26,90.64-30.27,115.84-1.19,28.09-6.6,66-9.43,113.73-8.61,2.73-13.98,3.51-22.92,2.36-11.6-43.87-9.65-91.61-4.74-143.22,5.23-62.04-3.39-132.09,5.24-156.38,4.42-14.39,4.99-27.17,6.17-38.36,43.4,15.16,80.86,14.28,112.38-2.63Z" style="fill:#466fb5; fill-rule:evenodd;"/><path d="M49.24,1001c-2.79,.44-5.42,.82-7.9,1.17-.13,20.9-.16,36.56-.1,46.97,2.45,1.16,5.91,2.49,8.61,2.82-.02-1.34-.42-4.44-.43-5.76-.17-15.98-.23-31.05-.18-45.2h0Zm127.19-41.88c-7.66-6.69-14.95-17.57-21.87-32.61,.78,5.24,1.09,12.25,.93,21.04,5.89,7.17,11.36,12.78,16.43,16.82,1.56-1.88,3.06-3.62,4.51-5.25h0Zm-125.03-40.76c-3.37,11.4-6.6,22.52-9.67,33.37-.09,9.16-.16,17.76-.23,25.8,2.23-.22,4.85-.37,7.94-.44,.32-22.24,.97-41.82,1.95-58.72Z" style="fill:#466fb5; fill-rule:evenodd;"/><path d="M7.77,966.12c-2.48,10.54-3.51,20.18-1.48,32.97,6.18,9.42,31.12,4.16,95.34-7.11,2.3,2.21,7.07,4.4,14.3,3.42,6.72-1.76,7.04-3.6,14.57-11.05,1.83-5.81,1.45-10.24-1.12-13.3-8.49,5.24-12.95,8.02-22.5,8.36,2.54-6.87,2.93-11.3,1.15-13.3-3.26,2.74-5.38,6.87-6.37,12.37-50.63-2.31-63.99-2-70.72,1.71,.73-3.33,1.37-6.27,1.94-8.79-7.89-2.82-14.3-4.46-25.11-5.28Z" style="fill:#f9af79; fill-rule:evenodd;"/><path d="M117.85,1379.09c.52,4.51,.59,8.56,.22,12.14,17.28,7.89,14.35-1.22,21.26-1.45-1.74-3.21-2.86-7.3-3.37-12.28-7.54,2.26-11.83,2.77-18.11,1.59h0Zm-80.56,8.31c0,3.28-.29,6.17-.91,8.67,4.62,3.83,9.94,7.83,12.87,5.4,1.41-1.17,5.02-1.52,7.75-.89-1.12-3.96-2-8.93-2.65-14.89-6.06,1.71-10.72,2.28-17.05,1.71Z" style="fill:#f9af79; fill-rule:evenodd;"/><path d="M157.55,1087.22c-30.52,29.87-71.35,29.96-122.48,.28-8.63,24.28,0,94.34-5.24,156.38-4.91,51.61-6.87,99.35,4.74,143.22,.95,.12,1.85,.22,2.73,.3,6.33,.57,10.99,0,17.05-1.71,1.01-.28,2.05-.6,3.14-.95,2.83-47.73,8.24-85.64,9.43-113.73,6.01-25.2,19.89-63.81,30.27-115.84,9.21,47.75,15.54,80.85,19.77,110.42-6.62,19.13-11.61,60.56-4.29,112.29,1.91,.51,3.61,.91,5.19,1.21,6.28,1.19,10.57,.67,18.11-1.59,.94-.29,1.94-.6,2.99-.93-.64-49.57,9.19-84.79,15.86-111.22,3.72-75,9.65-133.32,2.73-178.13Z" style="fill:#20386f; fill-rule:evenodd;"/><path d="M109.37,1342.34c11.14,3.18,21.34,4.13,30.59,2.87,.2-2.56,.43-5.09,.68-7.56-10.16,1.39-20.65,.67-31.5-2.14,.05,2.24,.13,4.52,.23,6.83h0Zm-81.38,8.9c12.11,1.52,22.84,.68,32.19-2.53,.23-2.67,.47-5.3,.71-7.9-10.48,3.59-21.67,4.82-33.57,3.69,.2,2.25,.43,4.5,.68,6.73h0Zm30.62,16.79c.19-2.64,.4-5.26,.6-7.83-9.35,2.69-19.24,3.54-29.68,2.58,.35,2.28,.73,4.55,1.15,6.8,10.33,1.22,19.64,.71,27.93-1.55h0Zm80.82-14.62c-9.44,1.64-19.26,1.46-29.44-.53,.17,2.26,.36,4.55,.57,6.87,10.41,2.32,19.93,2.73,28.55,1.24,.08-2.56,.19-5.09,.33-7.57Z" style="fill:#0e2952; fill-rule:evenodd;"/><path d="M409.04,993.25c6.74-7.84,6.8-19.03,.18-33.55-6.86,3.48-9.2,8.74-12.92,15.78-40.51-13.01-30.26-53.87-13.43-54.34-41.18-7.83-66.06-3.36-84.87,18.51-6.33,20.18,1.21,67.61,6.06,85.51,5.12,20.67,12.07,32.21,7.37,63.18,21.88,15.75,28.05,32.13,86.14,14.67-1.3-17.86-5.68-22.23-5.45-64.77-1.48-14.03,9.47-30.52,16.92-44.99Z" style="fill:#6d96ce; fill-rule:evenodd;"/><path d="M397.58,1103c-39.83,3.83-57.91-5.74-86.14-14.67-37.12,55.05-5.11,83.45-21.06,155.7,26.33,26.43,65.68,31.11,118.05,14.04,1.24-42.68-3.23-105.43-10.85-155.07Z" style="fill:#20386f; fill-rule:evenodd;"/><path d="M311.82,1259.41c-.55,8.56-.71,16.14-1.85,21.46-12.94,34.73-2.54,68.76,.54,165.8-.46,1.22-.95,2.39-1.47,3.51,6.49,2.86,5.69,9.13,9.55,10.52,18.05,6.52,10.57-4.99,13.54-8.21-.81-2.01-1.52-3.96-2.13-5.87,.48-89.46,15.1-133.76,15.14-161.6,.17-4.25,1.3-13.05,1.66-17.06h-.12c-12.92-.68-24.54-3.53-34.86-8.56Z" style="fill:#f9af79; fill-rule:evenodd;"/><path d="M300.74,1467.71c4.06-9.63,2.11-18.4,6.48-18.18,8.47,2.41,7.17,9.66,11.36,11.17,20.45,7.39,8.12-8.39,15.36-9,15.79,6.51,23.74-1.24,25.6,10.71-1.41,3.03-11.92,14.27-48.33,16.38-8.21-3.21-11.7-6.91-10.48-11.08Z" style="fill:#0e2952; fill-rule:evenodd;"/><path d="M354.54,1268.1c1.01,9.96,2.27,17.63,3.09,23.47-14.75,30.02,.67,68.79,8.29,165.59-.4,1.25-.83,2.44-1.3,3.57,6.62,2.55,6.11,8.85,10.03,10.06,18.34,5.67,10.33-5.48,13.14-8.84-.9-1.96-1.7-3.88-2.4-5.75,1.27-92.18,3.4-147.8,6.38-166.87-.05-8.97,1.04-18.28,2.07-26.99-14.15,3.67-27.24,5.59-39.3,5.75Z" style="fill:#f9af79; fill-rule:evenodd;"/><path d="M353.81,1478.81c3.61-9.81,4.6-18.66,8.97-18.64,8.58,2.01,7.62,9.31,11.86,10.62,20.78,6.43,7.73-8.75,14.93-9.7,22.33,7.78,37.93,3.1,37.96,14.81-4.65,7.24-25.56,11.73-62.74,13.49-8.35-2.83-12.02-6.36-10.98-10.58Z" style="fill:#0e2952; fill-rule:evenodd;"/><path d="M396.31,975.48c-40.51-13.01-30.27-53.87-13.44-54.34,16.39-2.06,20.24-.71,45.17-3.56,9.07,9.92,9.5,22.45,1.32,37.6-24.58,2.05-26.98,8.77-33.05,20.31Z" style="fill:#466fb5; fill-rule:evenodd;"/><path d="M431.6,922.3c10.26,.37,21.96-.17,35.09-1.62,10.31-9.1,38.34-27.81,84.08-56.14,10.52-16.06,21.26-26.41,34.94-32.81,3.35,1.44,1.38,3.72-9.5,14.18,7.29,15.55,1.32,24.72-17.97,25.16-43.03,40.03-70.49,63.6-82.39,70.71-16.27,5.39-30.95,8.19-44.04,8.39,4.59-10.7,4.52-19.98-.2-27.86Z" style="fill:#f9af79; fill-rule:evenodd;"/><path d="M306.97,1035.72c-15.67-2.51-20.61-9.47-19.23-32.21,2.94,1.16,7.79,2.6,12.43,3.46,1.3,7.33,2.68,13.69,3.9,18.19,.52,2.1,2.36,8.62,2.9,10.57Z" style="fill:#f9af79; fill-rule:evenodd;"/><path d="M300.16,1006.96c-4.64-.85-8.43-1.85-11.37-3.02-.75-.29-1.45-.6-2.09-.92-2.2-32.1,1.57-53.23,11.3-63.38-4.74,15.11-1.7,45.49,2.16,67.32Z" style="fill:#466fb5; fill-rule:evenodd;"/><path d="M346.02,903.27c-21.14,1.18-31.51-10.52-31.11-35.09-.65-2.48-1.08-4.85-1.3-7.11-1.28-13.74,5.64-23.5,20.76-29.27,35.37-12.26,50.58-6.93,45.62,11.17-3.34,7.42-8.39,13.05-15.15,16.91,1.95,3.5,2.58,7.43,1.91,11.8,.05,1.2-.32,2.85-1.12,4.95-1.08-8.83-4.01-14.41-8.78-16.75-3.11,5.43-2.15,12.55,2.87,21.37,2.18,12.73-2.39,20.07-13.72,22.01Z" style="fill:#20386f; fill-rule:evenodd;"/><path d="M302.97,898.8c-4.5-.81-5.23,6.37-6.47,9.09-3.39-12.73-.41-26.7,5.33-31.42-1.84,.26-3.81,1.26-5.9,3.03-.78-14.4,16.25-18.54,20.73-19,2.28-.24,3.93,1.04,4.95,3.84,6.45,18.72,3.04,34.99-10.21,48.81,2.51-3.63,3.47-7.95,2.87-12.92-4.56,14.42-12.69,17.88-24.41,10.37,9.69,2.93,11.43-1.66,13.12-11.82Z" style="fill:#20386f; fill-rule:evenodd;"/><path d="M316.99,860.52c1.59-2.3,3.98-4.09,7.33-3.51,5.3,1.66,6.04,8.69,2.19,10.89-1.09,.78-2.33,1.05-3.47,1.16-.41-1.55-.88-3.13-1.43-4.71-.97-2.64-2.52-3.91-4.62-3.83Z" style="fill:#6d96ce; fill-rule:evenodd;"/><path d="M331.81,919.3c1.75-5.33,1.45-11.34-.87-18.01,4.2,1.65,9.23,2.31,15.08,1.98,11.32-1.94,15.89-9.28,13.72-22.01-5.02-8.82-5.98-15.94-2.87-21.37,4.76,2.34,7.69,7.92,8.78,16.75,.8-2.1,1.17-3.74,1.12-4.95,.67-4.37,.03-8.3-1.91-11.8,4.13-2.35,7.62-5.38,10.48-9.07,4.54,4.72,6.07,9.77,4.6,15.12,5.7,8.3,7.35,15.64,4.95,22.01,.39,6.73-.14,11.38-1.59,13.92-2.3,4.04-14.2,2.14-18.35,1.88-1.74,4.4-2.06,9.25-.96,14.56-12.28-1.25-22.86-.99-32.16,.99Z" style="fill:#f9af79; fill-rule:evenodd;"/><path d="M450.55,1022.37l.08,8.49-11.49,9.18c.23-2.79-.33-5.22-1.66-7.3l13.08-10.37h0Zm-27.92,30.84l-18.58,14.83-11.05,.2c-.22-2.8-.41-5.9-.56-9.38l11.92,.13,17.7-14.03c.04,.57,.13,1.15,.26,1.74,.73,3.2,.83,5.37,.31,6.51Z" style="fill:#8b9cc9; fill-rule:evenodd;"/><path d="M450.55,1022.37l-13.08,10.37c-.22-.34-.46-.67-.72-1-1.95-2.05-5.04,.49-11.17,4.9-2.6,2.31-3.77,5.08-3.53,8.31l-17.7,14.03-11.92-.13c-.15-3.57-.26-7.54-.3-12.01l15.45,.37,24.37-18.39h-39.22c.45-2.12,1.09-4.28,1.86-6.46h55.95Z" style="fill:#b0c2e4; fill-rule:evenodd;"/><path d="M431.97,1028.83l-24.37,18.39-15.45-.37c-.03-2.68-.03-5.55-.02-8.61-.32-3.04-.06-6.19,.62-9.4h39.22Z" style="fill:#8b9cc9; fill-rule:evenodd;"/><path d="M450.55,1022.37h-55.95c.72-2.04,1.57-4.11,2.49-6.17l48.35-.21,4.47-51.68h-38.77c-.56-1.5-1.2-3.03-1.91-4.61,.27-.13,.54-.27,.82-.4l46.17-.34-5.66,63.42Z" style="fill:#c4d1eb; fill-rule:evenodd;"/><path d="M445.45,1015.99l-48.35,.21c3.5-7.78,8.17-15.62,11.94-22.95,6.01-6.99,6.71-16.64,2.1-28.94h38.77l-4.47,51.68Z" style="fill:#fff; fill-rule:evenodd;"/><path d="M422.63,1053.21c6.25,3.46,11.55,.21,15.88-9.74,1.31-4.75,.72-8.66-1.75-11.73-1.95-2.05-5.04,.49-11.17,4.9-3.06,2.71-4.15,6.07-3.27,10.05,.73,3.2,.83,5.37,.31,6.51Z" style="fill:#f9af79; fill-rule:evenodd;"/><path d="M328.8,893.9c.45-7.81-.7-16.27-3.43-25.36-.77,.31-1.57,.45-2.33,.53,2.47,9.49,2.3,18.31-.51,26.48,2.29,2.53,5.09,4.45,8.41,5.75,4.2,1.64,9.23,2.31,15.08,1.98,7.42-1.28,11.94-4.87,13.56-10.78-7.79,9.99-18.05,10.46-30.78,1.4Z" style="fill:#0e2952; fill-rule:evenodd;"/><path d="M1460.42,1066.73c11-3.09,11.27-1.09,12.67-1.55,1.65-.52,15.1-18.34,15.1-18.34,0,0,40.03-52.24,42.08-55.17l13.15-68,37.41,.06s-16.38,73.45-17.94,77.05c-1.57,3.67-64.81,67.32-70.17,73.1,0,0-3.52,9.51-5.94,15.35-2.43,5.84-7.52,10.14-8.48,11.63-.14,.23-3.64,5.1-9.71,9.79-5.23,4.07-2.43-2.29-2.43-2.29,0,0,8.13-9.34,7.2-9.92-.72-.46-4.82,4.93-10.56,9.45-1.48,1.2-2.94,2.35-4.29,3.38-3.54,2.75-6.52,1.26-3.33-2.23,1.12-1.26,3.04-3.27,4.64-4.47,1.73-1.32,2.82-3.09,4.08-4.41,2.49-2.69,4.35-4.58,4.16-4.63-.23-.06-.16-.98-1.77,.23-1.94,1.43-5.26,5.44-8.3,7.27-1.72,1.09-5.16,3.55-5.16,3.55,0,0-6,2.64-6.32,2.35-1.7-1.66,1.75-4.64,4.31-5.79,1.17-1.55,4.87-4.01,4.87-4.01,0,0,6.17-6.76,5.11-7.73-.46-.4-4.79,3.27-9.69,6.13-4.54,2.63-9.67,4.58-10.43,3.72-1.31-1.43,3.37-4.99,3.37-4.99,0,0,3.42-2.23,4.49-3.09,1.25-.98,4.74-4.3,4.74-4.3,0,0,11.55-11.97,10.47-12.78-1.08-.86-4.61-2-5.61-1.55-1,.46-2.28,2.35-3.29,2.81-1,.51-2.82,.23-3.64-.97-.82-1.21,2.95-5.44,2.95-5.44,0,0,3.08-3.38,6.27-4.24Z" style="fill:#f9af79; fill-rule:evenodd;"/><path d="M1519.02,1409.27l1.1,23.54c.46,3.03,2.3,10.43,2.28,13.12-.1,10.19-45.27-9.11-35.06-13.52,.92-.4,5.78-3.44,6.12-6.93,.52-5.33,1.82-16.1,1.82-16.1l23.75-.11Z" style="fill:#f9af79; fill-rule:evenodd;"/><path d="M1487.45,1432.29s10.62,3.27,16.07,4.07c5.44,.86,12.7-5.62,16.54-3.84,4.23,2.01,3.6,21.2,3.6,21.2,0,0-56.89,2.81-72.9-2.58-6.34-2.06,14.84-11.8,36.68-18.85Z" style="fill:#0e2952; fill-rule:evenodd;"/><path d="M1618.94,1412.53l1.1,23.6c.46,2.98,2.31,10.37,2.28,13.12-.11,10.19-45.27-9.17-35.06-13.58,.92-.4,7.23-5.73,7.56-9.17,.52-5.38,.36-13.86,.36-13.86l23.75-.12Z" style="fill:#f9af79; fill-rule:evenodd;"/><path d="M1587.38,1435.56s10.62,3.27,16.07,4.12c5.45,.8,12.7-5.67,16.54-3.9,4.23,2,4.22,19.59,4.22,19.59,0,0-60.83,3.78-75.07-.52-6.4-1.89,16.39-12.2,38.24-19.3Z" style="fill:#0e2952; fill-rule:evenodd;"/><path d="M1550.54,1072.35l-19.26,8.08-42.32,192.26,.16,144.48,32.33,1.04s16.34-126.15,16.44-135.95c.09-9.79,71.43-170.66,71.43-170.66l-58.77-39.24Z" style="fill:#0e2952; fill-rule:evenodd;"/><path d="M1565.23,1083.12s12.61,148.55,12.35,173.59c-.26,25.03,9.77,165.22,9.77,165.22l32.42,.11s2.78-42.62,6.89-105.41c.65-9.85-.39-29.67,.42-39.87,5.79-73.16,16.46-142.02,11.99-169.41-.72-4.41-2.05-15.93-4.83-18.85-21.01-22.17-69.01-5.39-69.01-5.39Z" style="fill:#20386f; fill-rule:evenodd;"/><path d="M1526.89,965.56l39.26-2.24s2.29-35.06,2.46-51.79c.21-20.28,6.71-50.13,4.28-49.61-6.8,1.55-18.58,7.62-24.1,15.18-19.09,26.01-21.9,88.46-21.9,88.46Z" style="fill:#466fb5; fill-rule:evenodd;"/><path d="M1620.9,861.64s22.34,3.38,28.19,7.73c6.58,4.93,13.82,15.93,13.82,15.93,0,0-28.79,129.53-29.07,151.41-.21,16.84,5.35,58.43,5.35,58.43,0,0-83.05,4.41-114.36-8.36,0,0,10.43-49.21,10.56-62.21,.13-12.95,13.22-130.68,16-138.87,2.53-7.45,7.14-20.79,22.35-24,15.2-3.15,47.15-.06,47.15-.06Z" style="fill:#6d96ce; fill-rule:evenodd;"/><path d="M1615.15,826.64l5.16,36.32s-20.67,42.96-32.7,39.07c-10.09-3.21-3.48-41.36-3.48-41.36,0,0,5.74-20.45,4.18-30.76-1.55-10.26,26.83-3.27,26.83-3.27Z" style="fill:#f9af79; fill-rule:evenodd;"/><path d="M1588.33,829.9c-1.55-10.26,26.83-3.27,26.83-3.27l.42,3.04c-.85,2-1.88,3.66-3.13,4.98-6.42,6.76-16.39,10.71-24.99,10.95,.92-5.5,1.5-11.46,.87-15.7Z" style="fill:#f27458; fill-rule:evenodd;"/><path d="M1620.35,775.42c.81-.28,6.02,41.36-4.8,52.65-10.82,11.34-31.71,14.89-39.1,5.78-8.17-10.02-7.3-54.71,9.46-66.34,16.77-11.57,34.44,7.91,34.44,7.91Z" style="fill:#f9af79; fill-rule:evenodd;"/><path d="M1592.48,745.17c12.83,2.69,21.08,10.6,24.12,13.98,5.83,.75,13.73,4.01,21.79,17.59,9.91,16.67,2.28,34.95-9.54,43.88-11.83,8.88-11.79,19.37-11.79,19.37l-1.78-5.5c-1.32-4.06-1.84-8.42-1.34-12.66,.29-2.58,.87-5.38,1.98-7.62,2.88-6.02-5.96-10.08-8.41-15.12-1.87-3.89-1.88-12.72-4.83-19.08l-3.56-4.93s-8.26-6.53-16.42-4.81c-8.16,1.77-6.68-28.65,9.79-25.1Z" style="fill:#20386f; fill-rule:evenodd;"/><path d="M1607.98,806.7c-.14,5.04,2.14,9.23,5.09,9.34,2.95,.06,5.45-4.01,5.59-9.05,.14-5.1-2.14-9.28-5.09-9.34-2.94-.06-5.45,3.95-5.59,9.05Z" style="fill:#f9af79; fill-rule:evenodd;"/><path d="M1654.62,878.71c-7.52-.28-14.69,49.33-9.97,54.26,4.72,4.92,5.01,66.11,5.01,66.11l-70.99-2.51v.06c-1.38-.97-16.16-11.12-18.26-13.29-2.2-2.35-13.06-1.32-15.96,1.84-2.9,3.09,5.49,1.6,8.02,3.32,2.53,1.78-1.1,5.04-1.1,5.04,0,0-18.02,2.4-21.49-1.32-3.47-3.78-12.78-10.2-14.09-6.47-.68,1.95,4.1,7.79,6.79,10.25-3.37-2.58-7.41-5.33-8.81-4.87-2.56,.86-1.53,4.13-.16,5.1,1.37,.91,15.54,11.98,17.77,12.78,2.18,.8,35.39,1.95,41.12,3.26,0,0,93.42,22.29,98.75,21.02,4.69-1.14,9.67-31.05,9.9-54.02,.24-22.97-3.02-99.62-26.54-100.54Z" style="fill:#f9af79; fill-rule:evenodd;"/><path d="M1644.99,867.31s13.07,3.15,26.44,18.5c12.17,13.92,19.13,91.43,19.13,91.43l-42.56,6.42-3.01-37.47c-17.69-27.29-21.96-59.87,0-78.88Z" style="fill:#466fb5; fill-rule:evenodd;"/><polygon points="1263.34 47.41 1379.93 95.21 1347.92 136.1 1263.34 47.41" style="fill:#c4d1eb; fill-rule:evenodd;"/><polygon points="1396.37 75.94 1266.9 47.67 1428.08 59.45 1396.37 75.94" style="fill:#c4d1eb; fill-rule:evenodd;"/><polygon points="1396.37 75.94 1393.35 129.62 1379.93 95.21 1263.34 47.41 1266.9 47.67 1396.37 75.94" style="fill:#9db2d9; fill-rule:evenodd;"/><polygon points="1393.35 129.62 1365.75 113.32 1379.93 95.21 1393.35 129.62" style="fill:#859ac6; fill-rule:evenodd;"/><path d="M1414.46,103.82c-2.73-.35-3.36,3.91-.46,4.27l4.25,.5c2.78,.34,3.36-3.92,.51-4.27l-4.3-.5h0Zm243.22,275.4c2.56-1.46,.7-4.97-1.86-3.88-1.27,.6-2.53,1.18-3.81,1.75-2.62,1.12-.92,5.08,1.67,3.96l4-1.83h0Zm-16.39,6.29c2.59-.65,1.74-4.87-1.17-4.14-1.36,.37-2.69,.73-4.06,1.06-2.83,.71-1.69,4.85,.98,4.18,1.44-.33,2.83-.72,4.26-1.11h0Zm-17.34,3.12c2.82-.36,2.62-4.3-.28-4.3-1.4,.09-2.77,.16-4.17,.17-2.8,0-2.83,4.3,.02,4.3,1.46-.09,2.95-.09,4.43-.18h0Zm-17.67-.92c2.85,.36,3.57-3.53,.79-4.23-1.38-.24-2.72-.55-4.07-.88-2.75-.69-3.79,3.48-1.05,4.17,1.43,.36,2.88,.68,4.33,.94h0Zm-16.85-5.53c2.19,1.25,4.65-2.29,1.9-3.86-1.25-.6-2.45-1.27-3.65-1.95-2.52-1.44-4.57,2.34-2.18,3.71,1.27,.74,2.6,1.47,3.92,2.11h0Zm-14.68-9.95c2.34,1.94,4.9-1.51,2.88-3.19-.99-.89-2.1-1.9-3-2.88-2.06-2.06-5.04,1.05-3.09,3,1.06,1.05,2.1,2.08,3.21,3.07h0Zm-11.59-13.36c1.58,2.21,5.05,.2,3.56-2.4-.78-1.16-1.53-2.33-2.25-3.53-1.35-2.36-5.15-.35-3.69,2.21,.76,1.26,1.56,2.5,2.38,3.72h0Zm-8.22-15.6c.96,2.56,5.03,1.17,4-1.57-.52-1.31-1.01-2.62-1.47-3.95-1.04-2.78-5.01-1.12-4.06,1.41,.48,1.38,1,2.75,1.54,4.11h0Zm-5.22-16.68c.7,2.78,4.86,1.7,4.17-1.02l-.97-4.15c-.72-2.88-4.85-1.68-4.2,.94l1,4.23h0Zm-3.56-16.95c.31,2.5,4.61,2.34,4.23-.78l-.77-4.22c-.32-2.53-4.62-2.33-4.23,.76l.77,4.25h0Zm-3.03-16.94c.31,2.52,4.62,2.34,4.23-.77l-.8-4.25c-.67-2.71-4.58-2.1-4.22,.82l.78,4.21h0Zm-3.47-16.72c.68,2.77,4.86,1.71,4.17-1.03-.34-1.41-.7-2.83-1.09-4.22-.65-2.62-4.86-1.73-4.15,1.15,.41,1.29,.74,2.79,1.06,4.11h0Zm-4.28-15.17c1.52,1.12,4.09-.33,3.26-2.56-.36-.91-.74-1.81-1.14-2.7,.19-1.06-.48-1.91-1.35-2.27-1.46-.96-3.94,.34-3.25,2.47-.33,.91-.67,1.84-1.04,2.74-.88,2.35,2.05,3.85,3.51,2.33h0Zm-8.63-15.57c1.9,2.28,5.05-.33,3.46-2.56-.88-1.2-1.82-2.38-2.8-3.49-1.73-2.07-5.14,.55-3.23,2.84,.91,1.03,1.76,2.11,2.58,3.22h0Zm-11.78-11.33c2.72,1.56,4.54-2.35,2.34-3.61-1.26-.82-2.52-1.58-3.84-2.3-2.33-1.34-4.62,2.31-2.03,3.79,1.21,.66,2.38,1.37,3.53,2.13h0Zm-15.03-6.69c2.83,.71,3.76-3.49,1.1-4.16-1.44-.39-2.86-.73-4.31-1.03-2.51-.62-3.85,3.47-.85,4.22,1.36,.28,2.72,.61,4.06,.97h0Zm-16.56-2.64c2.52,.31,3.4-3.91,.3-4.3-1.47-.1-2.92-.18-4.38-.22-2.99,0-2.8,4.3-.13,4.3,1.41,.05,2.8,.12,4.21,.22h0Zm-16.74,.32c2.76-.34,2.3-4.62-.57-4.26-1.47,.19-2.91,.42-4.37,.7-2.7,.67-2.1,4.59,.82,4.22,1.37-.26,2.74-.47,4.12-.66h0Zm-15.95,4.31c2.5-1.07,.94-5.08-1.77-3.92-1.4,.63-2.68,1.32-4.03,2.05-2.4,1.37-.34,5.15,2.17,3.72l-2.17-3.72,2.17,3.71c1.2-.67,2.38-1.28,3.63-1.84h0Zm-13.06,9.48c1.87-2.24-1.5-4.91-3.26-2.8-.99,1.12-1.94,2.39-2.78,3.64-1.57,2.75,2.35,4.54,3.59,2.36,.75-1.11,1.56-2.19,2.44-3.19h0Zm-7.03,14.26c.36-2.88-3.54-3.56-4.22-.8-.3,1.5-.49,3-.59,4.53,0,2.87,3.93,3.12,4.29,.26,.1-1.35,.27-2.66,.53-3.99h0Zm.89,15.96c-.61-2.45-4.87-1.77-4.11,1.29,.45,1.46,.96,2.84,1.56,4.25,1.1,2.58,5.08,.92,3.95-1.71-.54-1.27-1-2.5-1.4-3.82h0Zm7.95,14.09c-1.71-2.06-5.14,.55-3.22,2.85,.98,1.11,2.04,2.23,3.13,3.24,2.24,1.86,4.91-1.16,2.93-3.14-.99-.92-1.95-1.93-2.84-2.94h0Zm12.84,10.14c-2.35-1.35-4.62,2.31-2.04,3.78,1.31,.7,2.64,1.37,4.01,1.98,2.66,1.14,4.28-2.84,1.73-3.93-1.26-.57-2.48-1.17-3.7-1.83h0Zm15.48,5.79c-2.54-.63-3.83,3.47-.87,4.21,1.46,.31,2.91,.6,4.38,.81,2.84,.36,3.34-3.92,.56-4.26-1.38-.24-2.69-.47-4.07-.76h0Zm16.43,1.07c-2.92,.37-2.26,4.61,.45,4.28,1.46-.13,3.03-.38,4.46-.66,2.97-.74,1.66-4.85-.86-4.21-1.31,.26-2.73,.48-4.05,.6h0Zm15.75-4.47c-2.55,1.45-.71,4.97,1.87,3.87,1.35-.64,2.68-1.36,3.96-2.11,2.37-1.36,.34-5.15-2.2-3.69-1.16,.69-2.41,1.35-3.63,1.93h0Zm13.57-9.37c-2.12,2.12,1.06,5.02,2.95,3.13,1.08-1.01,2.15-2.06,3.16-3.15,1.97-2.37-1.52-4.89-3.17-2.9-.93,1-1.94,1.98-2.94,2.92h0Zm10.67-12.78c-1.56,2.72,2.35,4.54,3.61,2.34,.81-1.23,1.57-2.49,2.31-3.76,1.42-2.49-2.34-4.59-3.72-2.15-.71,1.21-1.43,2.4-2.2,3.57h0Zm12.48-30.98c-.62,2.5,3.47,3.84,4.22,.84,.3-1.44,.57-2.88,.81-4.32,.37-2.96-3.92-3.31-4.25-.65-.26,1.38-.49,2.75-.77,4.13h0Zm2.06-16.71c0,3,4.3,2.8,4.3,.13,.06-1.46,.08-2.91,.09-4.37,0-2.82-4.3-2.84-4.3,0-.01,1.41-.04,2.82-.09,4.23h0Zm-.66-16.83c.35,2.8,4.62,2.28,4.27-.54-.18-1.45-.38-2.91-.61-4.36-.32-2.57-4.62-2.33-4.24,.73,.26,1.31,.42,2.82,.58,4.16h0Zm-3.35-16.5c.63,2.53,4.87,1.75,4.13-1.22-.41-1.4-.85-2.79-1.3-4.18-1.06-2.83-5.01-1.11-4.08,1.37,.44,1.34,.86,2.68,1.25,4.03h0Zm-5.98-15.72c1.57,2.75,5.1,.27,3.86-1.9-.64-1.32-1.29-2.62-1.98-3.91-1.47-2.58-5.12-.31-3.78,2.04,.66,1.25,1.29,2.5,1.9,3.77h0Zm-8.49-14.54c1.64,2.29,5.15-.19,3.5-2.5-.84-1.2-1.7-2.38-2.58-3.54-1.94-2.32-5.1,.6-3.4,2.64,.85,1.12,1.68,2.25,2.48,3.41h0Zm-10.74-12.99c2.05,2.04,5.04-1.05,3.07-3.01-1.01-1.05-2.06-2.07-3.11-3.08-1.9-1.9-5.06,1.01-2.96,3.12,1.01,.97,2.02,1.96,2.99,2.97h0Zm-12.63-11.17c1.97,1.64,4.97-1.45,2.58-3.44-1.16-.88-2.34-1.75-3.53-2.59-2.25-1.61-4.82,1.84-2.45,3.53,1.15,.81,2.28,1.65,3.4,2.5h0Zm-14.12-9.28c2.41,1.37,4.6-2.32,2.09-3.76-1.27-.72-2.55-1.42-3.84-2.1-2.24-1.28-4.63,2.3-1.95,3.83,1.24,.65,2.49,1.34,3.71,2.03h0Zm-15.22-7.43c2.54,1.09,4.31-2.83,1.64-3.97-1.34-.57-2.7-1.11-4.06-1.63-2.65-1-4.17,3.03-1.51,4.03,1.31,.49,2.63,1.03,3.93,1.57h0Zm-15.98-5.7c2.94,.73,3.75-3.49,1.2-4.13l-4.17-1.2c-2.85-.71-3.77,3.49-1.12,4.15l4.09,1.18h0Zm-16.5-4.15c2.52,.63,3.83-3.47,.86-4.22-1.41-.29-2.84-.56-4.26-.83-3.12-.39-3.28,3.92-.78,4.23,1.4,.27,2.79,.53,4.18,.82Z" style="fill:#859ac6; fill-rule:evenodd;"/><polygon points="282.21 0 248.42 122.26 300.7 121.96 282.21 0" style="fill:#c4d1eb; fill-rule:evenodd;"/><polygon points="222.96 123.47 280.21 3 190.29 138.55 222.96 123.47" style="fill:#c4d1eb; fill-rule:evenodd;"/><polygon points="222.96 123.47 267.55 154.14 248.42 122.26 282.21 0 280.21 3 222.96 123.47" style="fill:#9db2d9; fill-rule:evenodd;"/><polygon points="267.55 154.14 271.58 122.12 248.42 122.26 267.55 154.14" style="fill:#859ac6; fill-rule:evenodd;"/><path d="M246.93,154.63c1.26-2.82-2.78-4.3-3.83-1.94-.66,1.32-1.29,2.64-1.88,3.98-1.16,2.58,2.76,4.35,3.93,1.75,.57-1.28,1.16-2.53,1.79-3.79h0ZM9.71,405.36c-3-.75-3.75,3.49-1.25,4.12l4.17,1.23c2.88,.72,3.77-3.49,1.15-4.15l-4.08-1.2h0Zm16.45,4.09c-2.95-.46-3.43,3.82-.78,4.23,1.44,.27,2.87,.52,4.31,.75,2.77,.43,3.46-3.81,.64-4.26-1.39-.22-2.78-.46-4.17-.72h0Zm16.79,2.15c-2.82-.18-3.09,4.11-.26,4.3,1.45,.09,2.91,.17,4.36,.22,2.64,.17,3.14-4.11,.12-4.3-1.41-.05-2.82-.12-4.22-.22h0Zm16.93,.08c-3.09,.34-2.28,4.57,.26,4.29,1.45-.08,2.9-.19,4.36-.31,2.92-.33,2.32-4.59-.39-4.28-1.4,.12-2.81,.23-4.22,.31h0Zm16.8-2.01c-2.97,.68-1.76,4.81,.8,4.22,1.43-.26,2.86-.55,4.28-.85,2.82-.65,1.78-4.82-.93-4.2-1.38,.29-2.76,.57-4.15,.83h0Zm16.44-4.06c-2.54,.71-1.61,4.91,1.3,4.1,1.39-.44,2.77-.89,4.15-1.36,2.87-1.16,.96-5.03-1.42-4.06-1.33,.47-2.68,.9-4.02,1.32h0Zm15.85-5.99c-2.44,1-1.05,5.06,1.76,3.92,1.32-.59,2.64-1.21,3.96-1.83,2.74-1.52,.35-5.11-1.87-3.88-1.28,.61-2.56,1.21-3.85,1.78h0Zm15.09-7.75c-2.37,1.31-.42,5.15,2.18,3.71,1.26-.73,2.51-1.49,3.74-2.26,2.21-1.22,.45-5.15-2.3-3.63l-3.62,2.19h0Zm14.16-9.34c-2.25,1.64,.24,5.15,2.56,3.45,1.17-.86,2.32-1.74,3.47-2.63,2.15-1.57-.22-5.16-2.65-3.39-1.12,.86-2.24,1.73-3.38,2.57h0Zm13.13-10.76c-2.11,1.99,.89,5.06,2.9,3.17,1.07-.97,2.14-1.96,3.18-2.97,2.01-1.89-.87-5.09-2.98-3.1-1.03,.98-2.06,1.94-3.11,2.9h0Zm11.97-12.04c-1.93,2.31,1.51,4.91,3.21,2.86,.97-1.08,1.92-2.17,2.87-3.27,1.85-2.21-1.49-4.92-3.28-2.79-.92,1.07-1.85,2.14-2.8,3.2h0Zm10.67-13.19c-1.67,2.54,2.05,4.7,3.5,2.49,.85-1.18,1.69-2.36,2.5-3.56,1.6-2.44-2.05-4.72-3.56-2.42-.8,1.17-1.61,2.33-2.44,3.48h0Zm9.17-14.26c-1.37,2.3,2.23,4.65,3.76,2.08,.71-1.27,1.4-2.54,2.08-3.82,.58-1.29,.08-2.29-.74-2.78l.65-.29c2.75-1.53,.34-5.1-1.86-3.88-1.27,.58-2.54,1.13-3.83,1.65-2.6,1.06-1.02,5.05,1.62,3.98l-1.67,3.06h0Zm7.35-15.22c-1.06,2.36,2.74,4.38,4,1.57,.54-1.35,1.08-2.72,1.56-4.1,.92-2.77-3.19-4.03-4.06-1.41-.47,1.32-.97,2.63-1.5,3.94h0Zm5-16.07c-.64,2.57,3.47,3.83,4.21,.89,.32-1.43,.58-2.88,.82-4.32,.44-2.83-3.81-3.46-4.24-.69-.24,1.39-.48,2.75-.79,4.12h0Zm1.68-16.56c.03,2.73,4.33,2.8,4.3-.13-.03-1.49-.15-2.98-.29-4.46-.32-2.82-4.59-2.34-4.27,.48,.14,1.36,.24,2.75,.27,4.12h0Zm-3.23-15.96c1.01,2.48,5.06,1.04,3.93-1.73-.61-1.41-1.26-2.73-2.01-4.06-1.33-2.39-5.15-.41-3.72,2.15,.67,1.2,1.26,2.38,1.8,3.64h0Zm-9.59-12.75c2,1.66,4.96-1.45,2.61-3.42-1.2-.93-2.42-1.81-3.72-2.61-2.44-1.45-4.63,2.25-2.2,3.69,1.15,.68,2.26,1.51,3.31,2.34h0Zm-14.64-7.32c2.9,.72,3.88-3.25,1.3-4.11-1.41-.45-2.8-.87-4.23-1.25-2.8-.7-3.78,3.48-1.09,4.16,1.36,.36,2.68,.76,4.02,1.19h0Zm-16.26-3.11c2.64,.17,3.14-4.11,.12-4.3-1.51-.05-2.96-.05-4.47,.02-3.14,.35-2.28,4.57,.22,4.3,1.39-.06,2.73-.07,4.12-.02h0Zm-16.03,2.48c2.69-1.1,.99-5.05-1.57-4.01-1.41,.54-2.81,1.19-4.15,1.89-2.54,1.41-.38,5.13,2.04,3.79,1.16-.63,2.44-1.2,3.67-1.67h0Zm-13.23,9.1c1.94-2.33-1.51-4.91-3.21-2.87-1.01,1.1-1.99,2.29-2.87,3.5-1.51,2.3,1.59,4.79,3.48,2.51,.78-1.08,1.68-2.16,2.59-3.14h0Zm-8.35,13.96c.93-2.8-3.19-4.02-4.05-1.45-.51,1.41-.96,2.82-1.36,4.27-.71,2.82,3.49,3.78,4.16,1.1,.35-1.31,.8-2.64,1.26-3.92h0Zm-3.09,16.16c.17-2.63-4.11-3.14-4.3-.11-.04,1.49-.03,2.97,.03,4.47,.35,3.13,4.58,2.28,4.3-.23-.07-1.37-.07-2.76-.03-4.13h0Zm2.06,16.32c-.73-2.63-4.91-1.6-4.12,1.24,.42,1.44,.92,2.85,1.46,4.25,1.08,2.65,5.05,1,3.99-1.6-.5-1.27-.96-2.57-1.34-3.88h0Zm7.41,14.48c-1.51-2.07-5.17,.2-3.34,2.7,.94,1.19,1.94,2.33,3.01,3.39,1.81,1.93,5.1-.85,3.03-3.06-.96-.95-1.86-1.98-2.7-3.03h0Zm12.57,10.07c-2.7-1.21-4.32,2.78-1.85,3.88,1.35,.65,2.8,1.25,4.22,1.74,2.7,.9,4.04-3.19,1.36-4.08-1.25-.43-2.54-.96-3.73-1.54h0Zm15.76,3.81c-2.67-.17-3.14,4.11-.14,4.3,1.5,.06,2.96,.08,4.46,.02,2.96-.33,2.56-4.32-.18-4.3-1.39,.05-2.75,.03-4.14-.02h0Zm16.54-1.63c-2.84,.65-1.76,4.81,.91,4.2,1.44-.31,2.86-.63,4.27-.98,2.74-.76,1.71-4.81-1.07-4.17-1.36,.34-2.74,.65-4.11,.95h0Zm30.75-12.7c1.12-.81,2.24-1.65,3.29-2.53,1.85-1.74,5.05,1.14,2.77,3.29-1.13,.95-2.32,1.84-3.52,2.71-2.3,1.67-4.82-1.8-2.54-3.47h0Zm12-11.42c-1.71,2.06,1.47,4.95,3.38,2.67,.91-1.1,1.83-2.4,2.64-3.59,1.6-2.43-2.04-4.72-3.56-2.41-.76,1.11-1.6,2.31-2.46,3.34h0Zm8.51-14.26c-1.14,2.55,2.77,4.35,3.94,1.73,.6-1.33,1.19-2.73,1.69-4.09,1.02-2.28-2.73-4.4-4.02-1.5-.49,1.29-1.04,2.59-1.6,3.86h0Zm5.34-15.94c-.68,2.71,3.48,3.8,4.18,1.01,.34-1.41,.66-2.83,.97-4.25,.64-2.56-3.47-3.83-4.21-.89-.3,1.38-.6,2.76-.94,4.13h0Zm3.06-16.69c-.42,2.68,3.81,3.49,4.26,.56l.53-4.3c.2-3.1-4.11-3.06-4.27-.49-.16,1.41-.33,2.82-.52,4.23h0Zm1.7-16.99c-.18,2.87,4.11,3.09,4.28,.31l.31-4.29c.18-2.85-4.11-3.12-4.29-.3l-.3,4.27h0Zm1.08-17.14c-.18,2.8,4.11,3.11,4.3,.26l.25-4.3c.18-2.8-4.11-3.11-4.29-.26l-.26,4.3h0Zm1.11-17.21c-.19,2.9,4.11,3.09,4.28,.33l.35-4.26c.19-2.96-4.11-3.08-4.28-.38l-.35,4.31h0Zm1.77-17.24c-.42,2.7,3.81,3.48,4.26,.58l.62-4.2c.44-2.84-3.81-3.46-4.25-.69l-.63,4.31h0Zm3.21-17.13c-.69,2.74,3.48,3.78,4.17,1.04,.33-1.34,.68-2.75,1.09-4.07,.74-2.96-3.49-3.75-4.13-1.21-.41,1.4-.78,2.82-1.13,4.24Z" style="fill:#859ac6; fill-rule:evenodd;"/><path d="M891.44,890.38c-4.24-21.26,5.55-42.33,24.26-50.24-.13-12.09,4.54-24.22,12.61-32.5,15.9-16.33,45.41-25.25,57.12-4.43,15.45,8.95,27.6,28.34,22.99,46.01,14.98,15.88,9.3,44.62-12.53,58.19,.34,17.83-8.86,35.54-24.08,43.15-3.65,1.85-9.37,4.38-10.08,5.18,.95-.92-11.28,33.94-49.24,17.99-38.75-16.28-46.28-62.11-21.04-83.34Z" style="fill:#20386f; fill-rule:evenodd;"/><path d="M927.02,983.36c-2.17-1.81-31.75-27.51-44.94-38.96,0,0,13.16-9.88,21.32,4.52,8.14,14.38,23.62,34.45,23.62,34.45Z" style="fill:#233761; fill-rule:evenodd;"/><path d="M973.85,985.24s-3.21,11.22-18.94,30.82c-18.19-.26,18.94-30.82,18.94-30.82Z" style="fill:#233761; fill-rule:evenodd;"/><path d="M1050.23,1284.77c-5.01,12.8-30.67,39.17-57.1,64.08-31.57,29.74-64.27,57.39-64.27,57.39,0,0-14.95,4.56-8.43-17.43,0,0,36.04-66.22,51.52-85.76,4.42-5.59,8.98-10.68,13.27-15.12,10.7-11.11,19.57-18.05,19.57-18.05,0,0-2.03-3.26-5.32-8.89-16.09-27.55-62.27-111.91-48-149.35,17.16-45.12,59.83-65.43,59.83-65.43,0,0,13.54,57.08,24.96,115.77,10.52,54,19.23,109.35,13.97,122.8Z" style="fill:#223f81; fill-rule:evenodd;"/><path d="M1036.26,1161.97c-7.85,36.14-21.46,87.27-36.79,99.02-16.09-27.55-62.27-111.91-48-149.35,17.16-45.12,59.83-65.43,59.83-65.43,0,0,13.54,57.08,24.96,115.77Z" style="fill:#20386f; fill-rule:evenodd;"/><path d="M993.13,1348.85c-31.57,29.74-64.27,57.39-64.27,57.39,0,0-14.95,4.56-8.43-17.43,0,0,36.04-66.22,51.52-85.76,4.42-5.59,8.98-10.68,13.27-15.12-.51,16.91-.03,45.58,7.91,60.92Z" style="fill:#20386f; fill-rule:evenodd;"/><path d="M1030.12,1131.38s-37.4-93.88-35.43-96.58c1.22-1.7,3.59-52.91,5.21-91.4,.98-23.4,1.7-42.12,1.7-42.12,0,0,16.57,5.91,20.53,46.22,.77,7.8,1.22,15.11,1.5,21.94,1.1,28.61-.99,48.77,3.28,58.3,5.3,11.8,3.41,65.7,5.03,71.12,1.64,5.43,10.05,19-1.83,32.52Z" style="fill:#f9af79; fill-rule:evenodd;"/><path d="M1000.55,1068.83l-2.99-10.99c-20.98,9.08-82.73-4.21-82.73-4.21,0,0-18.4,21.8-8.93,66.02,4.62,21.6,20.98,113.81,27.67,140.82,2.43,9.79,4.31,16.73,5.07,19.51v.03c.25,.84,.06,1.7-.26,2.52-2.86,7.04-5,14.26-6.54,21.54-15.29,71.55,26.56,150.6,26.56,150.6l7.16-4.22s2.78-95.36,10.19-138.39c1.26-7.31,2.65-13.12,4.19-16.68,4.47-10.41,7.62-26.78,9.82-46.03,4.14-36.39,4.88-83.01,4.65-118.89,.7-.07,6.14-61.63,6.14-61.63Z" style="fill:#223f81; fill-rule:evenodd;"/><path d="M905.8,1080.5c-8.53-12.92,20.76-65.7,19.71-70.69-2.04-9.8-6.86-20.66-11.58-30.43-4.74-9.76-9.37-18.44-11.02-23.87,1.52-2.11,3.02-4.11,4.39-5.98,2.1-2.88,3.93-5.53,5.1-8.01,1.31-2.69,1.85-5.22,1.24-7.63-.48-1.84-1.13-3.68-1.91-5.48-.36-.83-.76-1.68-1.17-2.5-4.36-8.74-10.88-15.85-10.88-15.85,10.32-6.6,26.57-9.96,26.71-9.48,1.22-.4,2.28-.68,3.14-.9,.59-.16,1.2-.3,1.81-.43,2.04-.49,4.1-.91,5.88-1.25,3.7-3.71,8.12-17.48,6.8-37.76l1.79,.23,30.04,4.06s-.1,9.4,.41,18.19c.42,6.88,1.2,13.4,2.71,14.83,2.33,.19,3.73,.32,3.73,.32l.02,.03,.04,.06c1.69,.14,3.26,.28,4.67,.45,0,0,.12,.02,.34,.03,2.65,.31,4.84,.63,6.62,.96l.36,.07c5.13,.94,6.87,1.83,6.87,1.83v.09c-.25,9.47,15.02,26.03,13.96,47.43-.04,.82-7.82,56.92-7.78,57.75,.62,15.99,8.46,60.99,8.46,60.99,7.14,13.92-105.85,26.23-110.44,12.95Z" style="fill:#f9af79; fill-rule:evenodd;"/><path d="M975.84,864.54s-.1,9.38,.42,18.17c-16.64,.55-26.34-14.05-30.46-22.24l30.04,4.06Z" style="fill:#ed7d57; fill-rule:evenodd;"/><path d="M981.89,872.54s-39.25,3.05-40.79-21.42c-1.52-24.48-7.62-40.57,17.38-43.55,25-2.99,30.46,6.05,32.95,14.1,2.5,8.05,.63,49.46-9.55,50.88Z" style="fill:#f9af79; fill-rule:evenodd;"/><path d="M989.44,808.11c-6.52-6.98-11.01-5.08-13.46-2.7-22.19-10.5-34.96,7.81-34.96,7.81-1.55,17.72-13.61,28.56-13.61,28.56,0,0,7.43,3.98,23.68-1.28,4.97-1.6,9.24-5.46,12.8-10.04-5.99,11.61-14.6,20.24-14.6,20.24,19.18-10.32,25.41-38.26,26.03-41.19,2.52,1.99,7.54,6.38,9.27,10.89,2.33,6.12,4,18.89,7.72,18.22,0,0,6.91-20.02-2.88-30.51Z" style="fill:#20386f; fill-rule:evenodd;"/><path d="M1005.29,1456.92h-60.92s-2.27-9.72,1.73-16.34c3.55-5.84,1.36-9.8-.17-14.79,2.77,1.13,6.07,2.93,9.99,2.71,3.05-.18,7.8-2.4,10.62-4.04,2.62,2.98,12.3,16.57,15.8,19.09,3.98,2.85,21.74,1.84,22.95,13.38Z" style="fill:#233761; fill-rule:evenodd;"/><path d="M914.76,1455.49l-22.93-56.45s8.14-5.76,15.78-4.54c6.74,1.07,9.33-1.45,12.83-5.69-.02,2.99,.38,6.68,2.07,10.23,1.3,2.75,3.78,5.21,6.36,7.2-1.78,3.56-9.34,18.74-10.36,22.94-1.16,4.77,6.45,20.83-3.75,26.31Z" style="fill:#233761; fill-rule:evenodd;"/><path d="M1007.79,1006.57c-.01-.47,2.39-18.11,4.52-33.77,4.72-.52,10.43-1.64,15.37-3.94-.27-6.83-4.83-65.3-29.39-68.6-1.17-.32-2.39-.58-3.55-.81-.12-.02-.23-.04-.36-.07-3.02-.57-5.69-.85-6.62-.94-.22-.03-.34-.04-.34-.04,0,0,7.33,20.82,7.18,23.25-.14,2.45-23.68,3.26-39.15,3.46-15.36,.21-24-25.47-24.13-25.87-.61,.13-1.22,.28-1.81,.43-.87,.22-21.4,3.35-29.85,10.4,0,0,6.52,7.09,10.88,15.83,.42,.82,.81,1.67,1.17,2.52,.78,1.79,1.43,3.63,1.91,5.46,.62,2.41,.07,4.94-1.24,7.63-1.17,2.48-3,5.13-5.1,8.01-1.37,1.87-2.87,3.87-4.39,5.98,.57,1.87,1.49,4.13,2.64,6.67h0c2.21,4.87,5.28,10.81,8.39,17.21,4.72,9.77,9.54,20.64,11.58,30.44,1.05,4.97-28.24,57.75-19.71,70.67,1.36,3.92,12.2,5.62,26.58,5.69,34.32,.18,88.9-8.83,83.87-18.64,0,0-7.83-45.01-8.46-60.98Z" style="fill:#6d96ce; fill-rule:evenodd;"/><path d="M932.38,1086.19c-14.38-.07-25.21-1.76-26.58-5.69-8.53-12.92,20.76-65.7,19.71-70.67-2.04-9.8-6.86-20.68-11.58-30.44-3.11-6.4-6.17-12.34-8.39-17.2h0c1.22-4.8,1.93-7.57,1.93-7.57,0,0,31.17,36.24,38.32,53.34,5.61,13.42-7.49,59.11-13.41,78.23Z" style="fill:#466fb5; fill-rule:evenodd;"/><path d="M917.57,1061.61l-6.16,10.68c-39.64-15.7-64.89-51.07-64.89-51.07-1.39-20.09,8.01-43.18,19.26-63.11,1.87-3.29,3.78-6.5,5.7-9.6,7.97,6.8,19.09,15.71,29.68,22.19-1.65,2.72-3.62,5.99-5.75,9.49-8.78,14.48-20.14,33.04-21.62,34.52-2.43,2.45,43.77,46.9,43.77,46.9Z" style="fill:#f9af79; fill-rule:evenodd;"/><path d="M897.06,984.54c-19.53-1.29-33.9-26.68-33.9-26.68,15.23-26.92,36.51-47.8,36.51-47.8,54.1,20.66,6.22,68.66-2.6,74.48Z" style="fill:#6d96ce; fill-rule:evenodd;"/><path d="M917.57,1061.61s3.33-.48,5.51-2.38c2.18-1.9,9.1-7.27,9.49-5.61,.42,1.67-5.01,4.25-2.16,4.65,2.85,.41,7.33-1.51,11.81-.81,4.47,.68,11.37,11,9.25,12.21-2.12,1.24-9.87-2.84-11.91-1.41-2.03,1.41-16.57,9.37-28.17,4.03-11.61-5.33,6.17-10.68,6.17-10.68Z" style="fill:#f9af79; fill-rule:evenodd;"/><path d="M1197.56,674.29l24.72-73.43-46.48-61.96c-5.26-7.09-.13-17.09,8.7-17.08l77.44,.9,44.63-63.33c5.06-7.24,16.27-5.52,18.84,2.89l23.18,74,74.03,22.84c8.44,2.55,10.19,13.72,2.99,18.88l-63.16,44.79,1.13,77.5c.13,8.83-9.94,13.96-17.01,8.69l-62.16-46.2-73.35,25.03c-8.31,2.84-16.37-5.14-13.5-13.52Z" style="fill:#eac5a7; fill-rule:evenodd;"/><path d="M1085.2,380.67l24.72-73.43-46.48-61.96c-5.26-7.09-.13-17.09,8.7-17.08l77.44,.9,44.63-63.33c5.06-7.24,16.27-5.52,18.84,2.89l23.18,74,74.03,22.84c8.44,2.55,10.19,13.72,2.99,18.88l-63.16,44.79,1.13,77.5c.13,8.83-9.94,13.96-17.01,8.69l-62.16-46.2-73.35,25.03c-8.31,2.84-16.36-5.14-13.49-13.52Z" style="fill:#eac5a7; fill-rule:evenodd;"/><path d="M778.4,237.92l24.72-73.43-46.48-61.96c-5.26-7.1-.13-17.1,8.7-17.08l77.45,.9,44.62-63.33c5.06-7.24,16.27-5.51,18.84,2.89l23.18,74,74.02,22.84c8.44,2.55,10.19,13.72,2.99,18.88l-63.16,44.79,1.13,77.5c.13,8.83-9.94,13.96-17.02,8.69l-62.16-46.2-73.35,25.03c-8.31,2.83-16.36-5.14-13.49-13.52Z" style="fill:#eac5a7; fill-rule:evenodd;"/><path d="M478.23,339.14l24.72-73.43-46.48-61.96c-5.26-7.1-.13-17.1,8.7-17.08l77.45,.9,44.62-63.33c5.06-7.24,16.27-5.51,18.84,2.89l23.18,74,74.03,22.84c8.44,2.55,10.19,13.72,2.99,18.88l-63.16,44.79,1.14,77.51c.13,8.83-9.94,13.95-17.02,8.69l-62.16-46.2-73.35,25.03c-8.31,2.83-16.36-5.14-13.49-13.52Z" style="fill:#eac5a7; fill-rule:evenodd;"/><path d="M372.25,628.41l24.72-73.43-46.48-61.96c-5.26-7.09-.13-17.09,8.7-17.08l77.45,.9,44.62-63.33c5.06-7.24,16.27-5.51,18.84,2.89l23.18,74,74.03,22.84c8.44,2.55,10.19,13.72,2.99,18.88l-63.16,44.79,1.14,77.5c.13,8.83-9.94,13.96-17.02,8.69l-62.16-46.2-73.35,25.04c-8.31,2.83-16.36-5.15-13.49-13.53Z" style="fill:#eac5a7; fill-rule:evenodd;"/><path d="M1206.36,677.25c-.36,1.07,.62,2.13,1.7,1.76l77.97-26.61,66.08,49.11c.91,.68,2.2,.05,2.19-1.1l-1.21-82.39,67.15-47.62c.94-.67,.75-2.08-.36-2.43l-62.73-19.35c-16.61,49.9-69.18,86.36-131.47,86.36-1.69,0-3.38-.04-5.06-.09l-14.26,42.34Z" style="fill:#d0a382; fill-rule:evenodd;"/><path d="M1094.01,383.64c-.37,1.07,.61,2.14,1.69,1.77l77.97-26.61,66.08,49.11c.91,.68,2.2,.05,2.18-1.09l-1.21-82.4,67.15-47.62c.94-.67,.75-2.08-.36-2.42l-62.72-19.35c-16.61,49.89-69.19,86.35-131.48,86.35-1.69,0-3.38-.04-5.06-.09l-14.25,42.34Z" style="fill:#d0a382; fill-rule:evenodd;"/><path d="M787.2,240.88c-.36,1.07,.62,2.14,1.69,1.77l77.97-26.61,66.08,49.11c.91,.67,2.2,.04,2.18-1.1l-1.2-82.4,67.14-47.61c.94-.67,.75-2.09-.36-2.43l-62.72-19.35c-16.61,49.89-69.19,86.35-131.48,86.35-1.69,0-3.38-.04-5.05-.09l-14.26,42.34Z" style="fill:#d0a382; fill-rule:evenodd;"/><path d="M487.04,342.1c-.36,1.08,.61,2.14,1.69,1.77l77.97-26.61,66.08,49.11c.91,.68,2.2,.04,2.19-1.1l-1.21-82.4,67.14-47.61c.94-.67,.75-2.09-.36-2.43l-62.73-19.35c-16.61,49.9-69.19,86.35-131.48,86.35-1.69,0-3.38-.03-5.05-.09l-14.26,42.34Z" style="fill:#d0a382; fill-rule:evenodd;"/><path d="M381.05,631.37c-.36,1.07,.62,2.14,1.69,1.77l77.97-26.61,66.08,49.11c.91,.68,2.2,.05,2.19-1.1l-1.21-82.39,67.15-47.62c.94-.67,.74-2.08-.36-2.42l-62.73-19.35c-16.61,49.9-69.19,86.36-131.48,86.36-1.69,0-3.38-.04-5.05-.09l-14.26,42.34Z" style="fill:#d0a382; fill-rule:evenodd;"/></svg>