<?xml version="1.0" encoding="UTF-8"?><svg id="a" xmlns="http://www.w3.org/2000/svg" viewBox="0 0 2041.58 1485.13"><path d="M816.95,243.07H248.55c4.09-17.27,19.59-30.12,38.11-30.12,.89,0,1.78,.03,2.67,.1,8.97-21.97,30.56-37.47,55.77-37.47,11.04,0,21.35,2.98,30.24,8.15,10.84-35.74,44.04-61.76,83.31-61.76,7.98,0,15.74,1.09,23.08,3.11,19.01-41.98,61.27-71.18,110.36-71.18,58.21,0,106.83,41.1,118.45,95.85,.98-.04,1.96-.07,2.94-.07,37.3,0,68.07,27.89,72.62,63.94,15.21,2.85,27.34,14.49,30.86,29.44Z" style="fill:#e0e8f5; fill-rule:evenodd;"/><path d="M530.25,470.59H36.89c3.54-14.99,17.01-26.14,33.08-26.14,.77,0,1.55,.03,2.31,.09,7.79-19.07,26.53-32.52,48.41-32.52,9.58,0,18.54,2.58,26.25,7.06,9.41-31.02,38.22-53.6,72.31-53.6,6.93,0,13.66,.95,20.04,2.7,16.51-36.44,53.19-61.78,95.79-61.78,50.53,0,92.72,35.66,102.81,83.19,.85-.03,1.7-.06,2.55-.06,32.37,0,59.08,24.21,63.02,55.49,13.21,2.48,23.73,12.58,26.79,25.56Z" style="fill:#e0e8f5; fill-rule:evenodd;"/><path d="M1685.03,323.79c-17.45,0-31.6-14.15-31.6-31.6s14.16-31.6,31.6-31.6,31.6,14.15,31.6,31.6-14.15,31.6-31.6,31.6h0ZM343.25,1081.43H174.41c-90.87,0-165.21,74.34-165.21,165.21h0c0,90.87,74.34,165.21,165.21,165.21H1602.03c147.14,0,267.52-120.39,267.52-267.52h0c0-147.14-120.39-267.53-267.52-267.53h0c-62.21,0-113.11-50.9-113.11-113.12h0c0-62.21,50.9-113.12,113.11-113.12h136.14c64.68,0,117.6-52.92,117.6-117.6h0c0-64.68-52.92-117.61-117.6-117.61h-172.15c-25.18,0-45.78-20.6-45.78-45.79h0c0-25.18,20.6-45.78,45.78-45.78h30.35c17.38,0,31.6-14.22,31.6-31.6h0c0-17.38-14.23-31.6-31.6-31.6h-199.12c-41.94,0-46.61,49.54-152.54,49.54h-245.63c-22.68,0-41.23,18.55-41.23,41.24h0c0,22.68,18.55,41.23,41.23,41.23h39.6c32.85,0,59.75,26.89,59.75,59.74h0c0,32.86-26.89,59.75-59.75,59.75h-119.18c-160.92,0-183.65,42.05-211.84,125.7-28.18,83.64-174.56,90.38-174.56,90.38h-200.15c-49.52,0-90.03,40.51-90.03,90.03h0c0,49.52,40.52,90.03,90.03,90.03h10.3c47.62,0,86.59,38.97,86.59,86.59h0c0,47.64-38.97,86.6-86.59,86.6h0Z" style="fill:#e0e8f5; fill-rule:evenodd;"/><polygon points="234.33 673.8 636.5 336.31 886.02 607.45 1240.88 284.67 1331.99 380.37 1464.83 0 1043.59 84.85 1138.17 183.43 895.05 405.05 654.22 147.95 152.76 564.96 234.33 673.8" style="fill:#bfcce8; fill-rule:evenodd;"/><path d="M234.33,673.8l402.17-337.49,249.52,271.14,354.86-322.79,91.11,95.7L1464.83,0l-6.33,1.28-118.28,338.64-91.1-95.71-354.86,322.79-249.53-271.14L242.58,633.35l-66.06-88.14-23.76,19.76,81.57,108.84h0ZM1101.21,98.07l76.89,77.92-39.93,7.43-94.57-98.57,57.61,13.22Z" style="fill:#859ac6; fill-rule:evenodd;"/><path d="M1455.51,26.71l9.33-26.71-421.24,84.85,57.61,13.22L1455.51,26.71h0Zm-317.35,156.71l-243.12,221.63-240.83-257.1L152.76,564.96l36.92-2.2L660.05,171.6l240.83,257.1,277.22-252.71-39.93,7.43Z" style="fill:#fff; fill-rule:evenodd;"/><path d="M409.72,1226.36s-13.48,14.55-16.84,16.35c-3.36,1.8,1.5,22.93,10.64,24.33,5.16,.81,8.02-4.14,8.02-4.14l-1.48-6.12,19.26-17.25-19.61-13.15Z" style="fill:#f7a390; fill-rule:evenodd;"/><path d="M602.8,1234.06s1.68,19.43,.7,23.03c-.95,3.63,18.28,14.17,25.6,8.47,4.12-3.23,2.37-8.59,2.37-8.59l-5.58-2.96,.25-25.42-23.34,5.47Z" style="fill:#f7a390; fill-rule:evenodd;"/><path d="M603.61,1256.17s9.58,1.35,14.1,1.26c5.86-.1,12.63-1.1,12.63-1.1,0,0,11.75,3.72,15.48,5.34,8.29,3.62,17.54,7.6,19.97,11.5,.77,1.23-1.11,4.83-4.03,6.22-12.22,5.71-54.78,6.86-62.58,4.13-8.99-3.15,4.42-27.35,4.42-27.35Z" style="fill:#0e2952; fill-rule:evenodd;"/><path d="M512.12,1009.27c-3.04-1.49-5.86-2.82-8.55-4.06-9.53,10.92-20.36,23.2-31.45,35.88l24.16,50.57c-2.73-3.04,76.11,44.88,76.11,44.88,0,0,17.91,64,24.64,104.65,13.77,1.64,16.61,1.18,31.49-2.04,3.29-47.88-4.15-121.96-9.94-131.18-3.34-5.32-70.25-80.95-106.46-98.69Z" style="fill:#20386f; fill-rule:evenodd;"/><path d="M432.22,1036.02c2.74,41.42,18.17,100.39,17.58,106.2-2.36,7.65-42.5,78.51-50.03,88.83,5.98,7.84,14.8,15.22,24.74,17.57,1.97,.45,69.77-84.1,73.53-90.86,4.26-7.7,11.35-49.59,11.48-101.49l1.96-51.4c-16.75-16.45-44.01-27.4-53.38-25.6-16.23,3.11-26.58,46.26-25.89,56.75Z" style="fill:#1d417f; fill-rule:evenodd;"/><path d="M393.64,1242.17s5.35,7.84,8.43,11.04c3.96,4.19,9.21,8.38,9.21,8.38,0,0,5.01,11.08,6.26,14.91,2.79,8.47,5.94,18.69,4.64,23.11-.42,1.44-4.01,4.14-6.96,2.48-11.42-6.49-41.92-36.85-45.04-44.37-3.61-8.69,23.47-15.54,23.47-15.54Z" style="fill:#0e2952; fill-rule:evenodd;"/><path d="M670.06,745.12s3.95-19.4,5.51-22.27c1.55-2.87,10.57-11.25,11.47-11.01,.9,.25,1.36,1.05,.67,2.89-.69,1.84-4.12,7.39-3.24,7.34,.88-.05,11.92-15.49,15.41-14.13,3.49,1.36,5.62,13.53,2.49,21.56-3.14,8.04-19.26,19.33-19.98,20.6-6.07,10.78-12.33-4.99-12.33-4.99Z" style="fill:#ec9355; fill-rule:evenodd;"/><path d="M485.98,798.1s18.11,21.49,41.16,12.5c0,0,4.96-12,5.03-20.84,0-1.08,.02-2.14,.04-3.15,.13-9.95,.46-15.54,.46-15.54,0,0,0,0-.02-.01-1.05-.43-35.24-14.47-35.22-13.3,.59,26.93-11.45,40.35-11.45,40.35Z" style="fill:#f9af79; fill-rule:evenodd;"/><path d="M500.86,764.17c3.29,6.12,14.61,18.07,31.34,22.43,.13-9.95,.46-15.54,.46-15.54,0,0,0,0-.02-.01-.94-.25-32.76-8.69-31.78-6.88Z" style="fill:#ec9355; fill-rule:evenodd;"/><path d="M539.83,770.02s-38.46,9.05-43.73-14.99c-5.26-24.04-13.77-39.06,10.56-45.84,24.33-6.79,31.13,1.33,34.84,8.93,3.71,7.59,8.19,48.94-1.67,51.9Z" style="fill:#f9af79; fill-rule:evenodd;"/><path d="M497.42,761.58c-.53,.34-8.8,2.88-24.47-28.34-2.46-4.9-4.14-15.5,1.6-24.87,15.93-26.01,44.07-8.66,73.23-25.94,10.5,40.11-21.21,36.64-27.29,38.55-6.08,1.92-8.23,11.5-8.68,14.57-.45,3.07-1.16,5.62-8.8,2.88-7.64-2.74-3.46,10.83-2.24,13.42,0,0,1.05,6.92-3.34,9.72Z" style="fill:#20386f; fill-rule:evenodd;"/><path d="M396.93,985.11s-1.53,18.6-2.66,21.46c-1.12,2.85-8.64,11.71-9.51,11.58-.87-.12-1.39-.82-.96-2.62,.44-1.8,3.03-7.37,2.21-7.22-.82,.13-9.42,15.83-12.84,14.94-3.42-.88-6.77-12.04-4.73-19.91,2.04-7.88,15.86-20.25,16.4-21.52,4.48-10.76,12.09,3.29,12.09,3.29Z" style="fill:#ec9355; fill-rule:evenodd;"/><path d="M390.55,989.84c6.58,2.11,7.63,1.64,7.63,1.64,0,0,32.01-58.29,35.25-63.62,3.24-5.34,67.96-65.35,67.96-65.35l-16.63-62.03s-73.61,95.33-81.56,109.01c-13.14,22.6-20.83,75.11-20.83,75.11,0,0,3.02,3.58,8.18,5.25Z" style="fill:#466fb5; fill-rule:evenodd;"/><path d="M560.57,886.85c-.24,12.74-.97,27.05-1.97,41.6-.06,.86-.13,1.72-.19,2.58-.63,9.02-1.33,18.04-2.12,26.85-.32,3.53-.66,7.02-1.02,10.44l-.05,.46c-.02,1.29-.18,2.67-.33,3.94-3.24,32.99-6.64,59.04-7.28,59.44-.76,.51-1.6,.76-2.53,.65-8.65-1.09-34.45,.88-55.58-3.72-17.83-3.76-33.18-10.88-49.44-20.5-2.16-1.28-7.08-4.66-6.68-7.18,.39-2.78,1.12-6.79,2.04-11.83,3.21-17.55,8.74-47.73,10.62-83.04,.37-6.59,.91-13.08,1.6-19.47,1.81-16.64,4.72-32.44,8.62-46.49,7.24-26.08,17.89-46.05,31.25-53.86,1.75-.99,11.13,5,19.76,10.53,7.96,5.1,16.35,6.51,24.5,5.8l7.17,7.94c8.69,10.11,17.94,23.55,20.47,42.67,.19,1.41,.36,2.91,.49,4.51,.7,7.79,.87,17.65,.68,28.69Z" style="fill:#6d96ce; fill-rule:evenodd;"/><path d="M560.57,886.85c-.24,12.74-.97,27.05-1.97,41.6-.06,.86-.13,1.72-.19,2.58-49.4-30.92-57.02-87.51-57.02-87.51,24.31,1.06,43.62,6.65,58.5,14.64,.7,7.79,.87,17.65,.68,28.69Z" style="fill:#466fb5; fill-rule:evenodd;"/><path d="M679.49,742.4c-5.49-4.88-8.77-2.63-8.77-2.63,0,0-56.26,50.65-61.71,54.44-5.45,3.79-83.14,12.15-83.14,12.15,0,0-31.22,2.09-37.53,18.7-5.49,14.43,.09,26.04,7.57,34.32,8.91,9.85,23.01,13.14,35.43,8.43,27.89-10.56,83.33-32.01,93.44-39.34,22.51-16.31,60.69-77.4,60.69-77.4,0,0-1.67-4.81-5.98-8.65Z" style="fill:#6d96ce; fill-rule:evenodd;"/><path d="M1039.19,1035.73s11.05,10.24,8.9,17.51c-2.16,7.28-12.14,12.13-13.48,21.02-1.35,8.89-6.74,13.74-11.59,13.74h-23.13s-3.57-6.26,5.06-8.15c8.62-1.89,11.88-12.34,11.33-22.04-.54-9.7,.8-22.63,.8-22.63l18.33-4.32,3.77,4.85Z" style="fill:#0e2952; fill-rule:evenodd;"/><path d="M901.5,1086.79c-1.12,.57-5.06,.95-10.46,1.21h-52.29c.17-1.56,1.39-7.1,9.94-8.49,9.66-1.57,26.39-7.18,30.12-19.55,.13-.39,.24-.8,.33-1.2,2.95-13.2,24.51,4.04,24.51,4.04,0,0,.06,.53,.16,1.43,.5,4.85,1.78,20.52-2.32,22.56Z" style="fill:#0e2952; fill-rule:evenodd;"/><path d="M851.24,733.64s3.28,40.85,7.13,89.95c5.22,66.7,11.51,148.62,12.14,164.15,1.08,26.95,5.38,70.06,5.38,70.06,0,0,10.24,10.24,30.73,5.92,0,0,18.25-61.54,23.47-126.65,.09-1.06,.16-2.15,.24-3.21,4.85-66.29,12.39-205.87,12.39-205.87l-91.48,5.66Z" style="fill:#1d417f; fill-rule:evenodd;"/><path d="M851.24,733.64s3.28,40.85,7.13,89.95l71.72,113.48c.09-1.06,.16-2.15,.24-3.21,4.85-66.29,12.39-205.87,12.39-205.87l-91.48,5.66Z" style="fill:#20386f; fill-rule:evenodd;"/><path d="M866.2,738.49s59.01,147.93,97.81,217.46c38.8,69.52,50.94,88.92,50.94,88.92,0,0,22.22-8.9,24.24-14.95,0,0-14.83-134.21-40.82-166.93-14.69-18.49-31.94-73.96-32.74-93.37-.81-19.4-5.25-57.8-5.25-57.8l-94.17,26.68Z" style="fill:#1d417f; fill-rule:evenodd;"/><path d="M684.18,641.77s-16.01-3.67-18.7-3.48c-2.7,.19-12.11,4.13-12.24,4.89-.13,.77,.32,1.39,1.95,1.49,1.63,.11,6.98-.57,6.65,.07-.34,.65-15.78,3.69-15.95,6.79-.18,3.11,8.28,8.88,15.42,9.27,7.15,.38,21.2-7.92,22.4-8.03,10.22-.89,.46-11.01,.46-11.01Z" style="fill:#f9af79; fill-rule:evenodd;"/><path d="M677.33,645.84c-2.29-7.31-1.75-8.48-1.75-8.48,0,0,64.89-35.08,70.83-38.64,5.94-3.56,72.99-74.92,72.99-74.92l68.68,18.91s-106.29,80.97-121.51,89.68c-25.17,14.41-83.47,22.56-83.47,22.56,0,0-3.96-3.37-5.77-9.11Z" style="fill:#466fb5; fill-rule:evenodd;"/><path d="M840.2,505.6s-24.08,42.37-47.61,47.89c0,0,.99-14.23,6.71-23.96-2.35-2.76-4.41-5.31-6.19-7.59-5.92-7.59-8.74-12.24-8.74-12.24l7.99-21.47,5.42-14.57c2.6,4.73,5.47,8.75,8.46,12.21,15.43,17.73,33.96,19.73,33.96,19.73Z" style="fill:#f9af79; fill-rule:evenodd;"/><path d="M806.24,485.88s2.88,21.23-13.13,36.07c-5.92-7.59-8.74-12.24-8.74-12.24l7.99-21.47c8.56-2.61,13.88-2.36,13.88-2.36Z" style="fill:#ec9355; fill-rule:evenodd;"/><path d="M778.02,512.84s35.98-14.02,26.9-36.28c-9.08-22.28-10.55-39.09-33.91-31.06-23.35,8-24.33,18.32-23.11,26.48,1.23,8.17,20.52,43.94,30.11,40.86Z" style="fill:#f9af79; fill-rule:evenodd;"/><path d="M963.86,723c-14.52,20.87-123.01,48.74-121.73,34.3,.5-5.53,1.15-15.28-.01-28.49-.27-3.09-.65-6.38-1.15-9.84-2.75-18.97-9.31-43.38-23.91-71.62-1.09-2.11-2.23-4.25-3.41-6.41-6.01-10.93-11.13-22.5-15.05-33.8-7.52-21.73-10.54-42.51-6.75-56.1,0-.07,.04-.12,.05-.19,22.68-10.49,31.48-51.16,31.48-51.16,0,0,63.45-4.9,91.64,105.52,0,0,61.49,99.63,48.86,117.78Z" style="fill:#6d96ce; fill-rule:evenodd;"/><path d="M842.12,728.81c-.27-3.1-.65-6.38-1.15-9.84-2.75-18.98-9.3-43.38-23.91-71.62,2.51-15.21,5.97-27.84,9.77-33.53,15.44-23.13,24.42-26.74,24.42-26.74,0,0,23.15,97.6-9.13,141.73Z" style="fill:#466fb5; fill-rule:evenodd;"/><path d="M720.14,705.6s-21.4,1.11-24.72,2.31c-3.32,1.2-13.74,9.52-13.63,10.52,.12,1,.9,1.63,2.98,1.18,2.09-.44,8.56-3.22,8.38-2.28-.2,.94-18.49,10.27-17.6,14.22,.89,3.97,13.58,8.19,22.69,6.13,9.11-2.07,23.78-17.51,25.26-18.07,12.5-4.77-3.37-14-3.37-14Z" style="fill:#f9af79; fill-rule:evenodd;"/><path d="M716.1,713.71c-4.28-6.93-1.19-10.09-1.19-10.09,0,0,66.12-51.78,71.31-57,5.18-5.23,29.19-88.52,29.19-88.52,0,0,8.27-33.7,27.61-37.42,16.82-3.23,28.44,5.09,36.04,14.84,9.07,11.62,9.95,27.66,2.44,40.33-16.89,28.45-50.94,84.92-60.89,94.57-22.14,21.47-96.2,51.47-96.2,51.47,0,0-4.94-2.74-8.31-8.19Z" style="fill:#6d96ce; fill-rule:evenodd;"/><path d="M792.3,428.26c-14.66-2.04-29.39,1.99-42.71,10.46-6.49,4.12-9.64,8.11-15.92,6.6-18.73-4.5-13.79,25.52,10.47,26.3,5.83,1.8,16.58-9.69,26.23-11.26,9.66-1.58,14.89,11.88,18.57,12.99,3.67,1.12,1.59-1.94,5.44-5,3.86-3.06,6.07,4.14,5.98,9.21-.08,5.06,7.44,9.86,7.44,9.86l4.41-8.09c12.99-16.74,2.26-47.99-19.91-51.06Z" style="fill:#20386f; fill-rule:evenodd;"/><path d="M1423.79,805.72l-1.45,25.6c-.53,3.24-2.62,11.24-2.62,14.2,0,11.08,49.27-9.37,38.24-14.31-1.01-.44-7.8-6.3-8.12-10.09-.5-5.81-.25-15.02-.25-15.02l-25.79-.38Z" style="fill:#f9af79; fill-rule:evenodd;"/><path d="M1457.82,831.11s-11.56,3.4-17.48,4.22c-5.92,.88-13.75-6.25-17.94-4.33-4.6,2.14-4.92,26.54-4.92,26.54,0,0,60.66,4.61,76.19,.16,6.96-2.02-12.18-18.69-35.84-26.59Z" style="fill:#0e2952; fill-rule:evenodd;"/><path d="M1518.81,805.72l-1.46,25.6c-.53,3.24-2.63,11.24-2.63,14.2,0,11.08,49.29-9.37,38.24-14.31-1-.44-7.78-6.3-8.12-10.09-.5-5.81-.23-15.02-.23-15.02l-25.8-.38Z" style="fill:#f9af79; fill-rule:evenodd;"/><path d="M1552.84,831.11s-11.57,3.4-17.5,4.22c-5.92,.88-13.74-6.25-17.92-4.33-4.62,2.14-4.93,26.54-4.93,26.54,0,0,60.64,4.61,76.16,.16,6.99-2.02-12.16-18.69-35.82-26.59Z" style="fill:#0e2952; fill-rule:evenodd;"/><path d="M1560.5,135.7c1.58,12.5,3.56,11.68,3.71,13.33,.2,1.86-11.2,24.79-11.2,24.79,0,0-33.19,67.66-35.1,71.27l-59.04,49.79,15.3,36.73s62.84-55.87,65.64-59.38c2.79-3.51,37.36-100.23,40.67-108.62,0,0,7.52-8.61,12.08-14.2,4.56-5.54,6.52-12.83,7.56-14.64,.15-.22,3.33-6.3,5.31-14.86,1.7-7.35-3.17-1.1-3.17-1.1,0,0-5.54,13.05-6.47,12.44-.71-.49,2.72-7.45,4.7-15.57,.5-2.09,.99-4.11,1.45-6.03,1.15-4.94-1.49-7.07-3.49-2.02-.71,1.75-1.82,4.71-2.33,6.96-.54,2.41-1.79,4.44-2.54,6.41-1.5,3.89-2.53,6.75-2.67,6.58-.15-.17-.99,.38-.51-1.87,.58-2.63,3.01-8.11,3.55-12.12,.3-2.25,1.21-6.96,1.21-6.96,0,0,.1-7.35-.33-7.51-2.25-.77-3.71,4.28-3.72,7.4-1.02,1.98-1.84,6.96-1.84,6.96,0,0-3.86,9.71-5.22,9.21-.57-.22,1.11-6.47,1.84-12.83,.65-5.92,.4-12.01-.71-12.28-1.9-.54-3.32,5.98-3.32,5.98,0,0-.76,4.61-1.13,6.09-.42,1.81-2.1,7.02-2.1,7.02,0,0-6.66,17.82-7.89,17.22-1.21-.6-3.74-3.45-3.69-4.71,.03-1.21,1.28-3.51,1.31-4.71,.05-1.26-.94-2.91-2.43-3.07-1.49-.17-3.93,5.86-3.93,5.86,0,0-1.96,4.88-1.5,8.44Z" style="fill:#f9af79; fill-rule:evenodd;"/><path d="M1263.44,159.77c.7,12.56-1.38,12.17-1.24,13.76,.15,1.92,15.52,22.31,15.52,22.31,0,0,44.9,60.59,47.44,63.77l67.07,38.28-8.38,38.93s-71.93-43.59-75.31-46.55c-3.39-2.91-54.91-91.79-59.68-99.46,0,0-8.98-7.07-14.46-11.74-5.49-4.61-8.74-11.46-10.09-12.99-.2-.22-4.41-5.65-7.91-13.65-3.02-6.91,2.91-1.7,2.91-1.7,0,0,7.82,11.85,8.61,11.08,.61-.6-4.01-6.8-7.45-14.42-.88-1.98-1.72-3.9-2.49-5.7-2.05-4.66,.16-7.23,3.05-2.63,1.01,1.59,2.65,4.33,3.54,6.41,.99,2.3,2.57,4.06,3.66,5.87,2.19,3.57,3.73,6.14,3.83,5.98,.12-.22,1.03,.22,.15-1.92-1.05-2.52-4.41-7.4-5.67-11.24-.71-2.19-2.47-6.63-2.47-6.63,0,0-1.44-7.24-1.05-7.46,2.08-1.21,4.42,3.51,5.01,6.58,1.35,1.76,3.07,6.53,3.07,6.53,0,0,5.57,8.83,6.78,8.12,.53-.33-2.26-6.19-4.13-12.28-1.72-5.71-2.56-11.74-1.52-12.23,1.78-.82,4.36,5.26,4.36,5.26,0,0,1.57,4.39,2.21,5.81,.74,1.7,3.34,6.47,3.34,6.47,0,0,9.79,16.39,10.88,15.57,1.09-.82,3.05-4.11,2.78-5.32-.27-1.2-1.9-3.23-2.17-4.44-.25-1.2,.4-3.02,1.86-3.45,1.43-.39,4.92,5.04,4.92,5.04,0,0,2.8,4.44,3,8.06Z" style="fill:#f9af79; fill-rule:evenodd;"/><path d="M1438.07,480.69s74.65,177.65,77.41,193.61c2.01,11.73-.59,144.59-.59,144.59l35.3-.55,12.39-151.82-46.45-191.47-78.06,5.64Z" style="fill:#20386f; fill-rule:evenodd;"/><polygon points="1405.25 489.02 1439.26 686.31 1417.04 818.33 1457.23 818.33 1488.82 676.38 1493.16 520.83 1476.87 470.77 1405.25 489.02" style="fill:#223f81; fill-rule:evenodd;"/><path d="M1502.74,254.85s8.83,39.75,15.02,45.95c0,0-31.56,21.05-30.09,29.44,1.47,8.33,34.95,164.49,34.95,164.49,0,0-68.93,35.91-111.81,30.15,0,0-32.27-177.92-40.63-186.26-8.35-8.33-34.29-21.55-34.29-21.55,0,0,19.39-37.23,19.39-43.87,0,0,46.03,21.44,53.8,29.17,7.77,7.78,22.82-2.03,26.45-3.62,0,0,61.68-40.52,67.21-43.92Z" style="fill:#6d96ce; fill-rule:evenodd;"/><path d="M1415.15,266.2l-5.83,36.52s15.32,25.5,27.57,21.72c10.29-3.19,9.4-23.36,9.4-23.36,0,0-5.6-20.78-3.91-31.25,1.67-10.42-27.22-3.62-27.22-3.62Z" style="fill:#f9af79; fill-rule:evenodd;"/><path d="M1442.37,269.82c1.67-10.42-27.22-3.62-27.22-3.62l-.45,3.07c.85,2.03,1.87,3.78,3.12,5.16,6.46,6.85,16.53,11.02,25.26,11.35-.86-5.65-1.4-11.68-.71-15.96Z" style="fill:#f27458; fill-rule:evenodd;"/><path d="M1410.41,214.11c-.81-.28-6.53,41.94,4.34,53.57,10.86,11.62,32.04,15.41,39.63,6.25,8.41-10.09,7.98-55.49-8.91-67.44-16.9-11.95-35.06,7.63-35.06,7.63Z" style="fill:#f9af79; fill-rule:evenodd;"/><path d="M1411.39,190.86c-5.92,.71-16.28,8.94-24.62,22.65-10.23,16.83,2.63,37.5,14.55,46.66,11.93,9.1,11.67,19.74,11.67,19.74l1.96-5.48c1.41-4.17,1.96-8.55,1.5-12.89-.28-2.63-.85-5.43-1.93-7.78-2.86-6.09,6.16-10.15,8.68-15.24,1.96-3.9,2.04-12.89,5.11-19.36l3.67-4.93s10.35,.93,16.72-4.66c18.29-16.07-9.65-37.28-37.32-18.7Z" style="fill:#20386f; fill-rule:evenodd;"/><path d="M1422.64,246.02c.1,5.15-2.26,9.37-5.26,9.43-2.99,.05-5.49-4.05-5.57-9.21-.09-5.16,2.26-9.38,5.26-9.43,2.99-.05,5.48,4.06,5.57,9.22Z" style="fill:#f9af79; fill-rule:evenodd;"/><path d="M.51,1242.57c-7.82,121.37,74.65,203.14,208.46,179.95-.75-131.51-81.56-201.6-208.46-179.95Z" style="fill:#c4d1eb; fill-rule:evenodd;"/><path d="M8.69,1254.28c-.76-.64-.84-1.77-.2-2.51,.63-.76,1.76-.85,2.51-.21l70.91,60.39,11.76-52.32c.22-.96,1.17-1.56,2.13-1.35,.96,.22,1.57,1.17,1.35,2.13l-12.17,54.15,19.69,16.77c.54,.13,1.01,.51,1.24,1.06l15.1,12.86,21.87-55.96c.36-.92,1.4-1.37,2.31-1.02,.92,.36,1.37,1.4,1.01,2.31l-22.32,57.12,17.7,15.07c.06,.04,.12,.09,.17,.14l17.97,15.31,17.65-40.72c.39-.9,1.44-1.32,2.34-.92,.91,.39,1.32,1.44,.93,2.35l-18.08,41.71,47.56,40.5c.75,.64,.84,1.77,.2,2.52-.64,.75-1.77,.84-2.52,.21l-31.98-27.24-31.61,15.41c-.89,.44-1.96,.07-2.39-.82-.44-.88-.07-1.95,.82-2.39l30.22-14.72-32.58-27.75-53.84,29.58c-.86,.48-1.95,.16-2.43-.71-.48-.87-.16-1.96,.71-2.43l52.65-28.93-16.74-14.26-.07-.05-16.86-14.35-58.41,22.98c-.92,.36-1.96-.09-2.32-1.01-.36-.92,.1-1.96,1.01-2.32l56.64-22.28-18.74-15.96-.1-.08-20.03-17.06-44.92,11.9c-.95,.25-1.93-.31-2.18-1.26-.25-.96,.31-1.93,1.27-2.18l42.52-11.27-49.77-42.39Z" style="fill:#fff; fill-rule:evenodd;"/><path d="M2040.82,1167.96c11.66,181.01-111.33,302.94-310.88,268.36,1.12-196.12,121.63-300.66,310.88-268.36Z" style="fill:#c4d1eb; fill-rule:evenodd;"/><path d="M1345.73,1043.3c10.08,156.34-96.16,261.66-268.52,231.79,.97-169.39,105.06-259.69,268.52-231.79Z" style="fill:#c4d1eb; fill-rule:evenodd;"/><path d="M643.25,1083.33c-6.76,104.79,64.44,175.37,179.96,155.35-.65-113.53-70.41-174.05-179.96-155.35Z" style="fill:#c4d1eb; fill-rule:evenodd;"/><path d="M2028.63,1185.42c1.11-.95,1.25-2.63,.3-3.75-.96-1.12-2.64-1.26-3.75-.3l-105.74,90.06-17.54-78.02c-.33-1.43-1.75-2.33-3.19-2.01-1.44,.33-2.34,1.75-2.01,3.18l18.15,80.75-29.37,25.02c-.8,.19-1.5,.75-1.84,1.57l-22.52,19.18-32.62-83.46c-.54-1.37-2.08-2.05-3.45-1.51-1.37,.54-2.05,2.08-1.51,3.45l33.29,85.18-26.39,22.48c-.08,.07-.17,.15-.25,.22l-26.8,22.83-26.32-60.72c-.59-1.35-2.16-1.97-3.5-1.38-1.35,.59-1.96,2.16-1.38,3.5l26.96,62.21-70.93,60.41c-1.12,.95-1.25,2.63-.3,3.75,.96,1.12,2.64,1.26,3.76,.3l47.69-40.62,47.15,22.97c1.32,.65,2.92,.1,3.57-1.22,.64-1.32,.1-2.91-1.22-3.56l-45.07-21.96,48.58-41.37,80.3,44.12c1.29,.71,2.91,.24,3.63-1.05,.71-1.29,.24-2.92-1.06-3.63l-78.53-43.15,24.97-21.26,.1-.08,25.14-21.41,87.1,34.28c1.37,.54,2.92-.13,3.46-1.5,.53-1.37-.14-2.92-1.51-3.46l-84.46-33.24,27.95-23.8,.14-.12,29.87-25.44,66.98,17.74c1.42,.38,2.88-.47,3.26-1.89,.38-1.42-.46-2.88-1.89-3.26l-63.42-16.8,74.24-63.22Z" style="fill:#fff; fill-rule:evenodd;"/><path d="M1335.2,1058.39c.97-.82,1.08-2.27,.25-3.25-.82-.97-2.27-1.08-3.24-.26l-91.33,77.79-15.15-67.38c-.28-1.25-1.52-2.02-2.76-1.74-1.24,.28-2.02,1.51-1.74,2.75l15.68,69.74-25.37,21.61c-.7,.16-1.3,.65-1.6,1.35l-19.45,16.57-28.18-72.09c-.46-1.18-1.8-1.76-2.97-1.31-1.18,.46-1.77,1.8-1.31,2.98l28.75,73.58-22.79,19.41c-.08,.06-.16,.13-.23,.19l-23.15,19.72-22.73-52.45c-.5-1.17-1.86-1.7-3.03-1.19-1.16,.51-1.69,1.86-1.18,3.02l23.28,53.74-61.26,52.18c-.97,.82-1.08,2.27-.26,3.24,.83,.97,2.28,1.09,3.25,.26l41.19-35.08,40.72,19.85c1.14,.56,2.52,.08,3.08-1.06,.56-1.14,.08-2.51-1.06-3.08l-38.92-18.96,41.96-35.74,69.36,38.1c1.12,.62,2.52,.21,3.13-.91,.62-1.12,.21-2.51-.91-3.13l-67.82-37.27,21.56-18.37,.08-.07,21.71-18.49,75.24,29.61c1.18,.46,2.52-.12,2.99-1.3,.47-1.18-.11-2.52-1.3-2.99l-72.95-28.71,24.13-20.56,.13-.1,25.79-21.98,57.85,15.33c1.23,.33,2.49-.41,2.82-1.63,.33-1.23-.41-2.48-1.63-2.81l-54.77-14.51,64.12-54.61Z" style="fill:#fff; fill-rule:evenodd;"/><path d="M650.31,1093.44c-.65-.55-.73-1.52-.17-2.17,.55-.65,1.53-.73,2.17-.18l61.21,52.13,10.15-45.16c.19-.83,1.02-1.36,1.85-1.17,.83,.19,1.35,1.01,1.16,1.84l-10.5,46.74,17,14.48c.47,.11,.88,.44,1.07,.91l13.04,11.1,18.88-48.31c.31-.79,1.21-1.18,2-.88,.79,.31,1.19,1.2,.88,2l-19.27,49.3,15.27,13.01c.05,.04,.11,.08,.16,.13l15.51,13.22,15.23-35.16c.35-.78,1.25-1.14,2.03-.8,.78,.34,1.14,1.25,.8,2.03l-15.6,36.01,41.06,34.96c.65,.56,.73,1.53,.18,2.18s-1.53,.72-2.18,.17l-27.61-23.52-27.29,13.3c-.77,.38-1.69,.05-2.06-.71-.37-.76-.06-1.69,.71-2.06l26.09-12.71-28.13-23.95-46.48,25.54c-.75,.41-1.69,.14-2.1-.61-.41-.75-.14-1.69,.6-2.1l45.46-24.97-14.46-12.31-.05-.05-14.55-12.4-50.43,19.85c-.79,.31-1.69-.08-2-.87-.31-.8,.08-1.69,.88-2.01l48.89-19.24-16.18-13.77-.08-.07-17.29-14.72-38.77,10.27c-.83,.22-1.67-.27-1.89-1.09-.22-.82,.27-1.66,1.09-1.89l36.71-9.72-42.97-36.6Z" style="fill:#fff; fill-rule:evenodd;"/><path d="M105.67,1085.22c-74.41,96.21-51.83,210.12,72.03,265.81,72.98-109.4,45.26-212.72-72.03-265.81Z" style="fill:#b0c2e4; fill-rule:evenodd;"/><path d="M105.9,1099.5c-.27-.95,.29-1.93,1.24-2.2,.95-.27,1.93,.29,2.2,1.25l24.96,89.73,39.02-36.77c.72-.68,1.85-.64,2.53,.08,.68,.72,.64,1.85-.08,2.53l-40.4,38.06,6.93,24.92c.38,.41,.56,.99,.44,1.57l5.31,19.11,49.45-34.14c.81-.56,1.92-.35,2.48,.46,.56,.81,.36,1.92-.45,2.48l-50.47,34.84,6.23,22.39c.02,.08,.04,.15,.06,.22l6.33,22.75,37.41-23.87c.83-.53,1.93-.28,2.47,.55,.53,.83,.28,1.93-.54,2.46l-38.34,24.45,16.74,60.18c.26,.95-.29,1.93-1.24,2.2-.96,.26-1.94-.3-2.2-1.24l-11.26-40.47-34.82-4.93c-.97-.13-1.66-1.03-1.52-2.01,.13-.97,1.03-1.66,2.01-1.52l33.28,4.71-11.47-41.22-61.18-5.63c-.98-.08-1.7-.96-1.61-1.95,.09-.98,.96-1.71,1.94-1.62l59.83,5.49-5.9-21.18-.02-.09-5.93-21.33-61.27-13.64c-.97-.22-1.58-1.17-1.36-2.13,.21-.97,1.17-1.58,2.13-1.36l59.4,13.23-6.59-23.71-.04-.12-7.05-25.35-43.88-15.28c-.93-.32-1.43-1.34-1.1-2.27,.32-.93,1.34-1.42,2.27-1.1l41.54,14.47-17.51-62.99Z" style="fill:#fff; fill-rule:evenodd;"/><path d="M1883.99,933.3c110.98,143.47,77.3,313.35-107.42,396.4-108.85-163.15-67.49-317.23,107.42-396.4Z" style="fill:#b0c2e4; fill-rule:evenodd;"/><path d="M1210.27,840.63c95.85,123.92,66.77,270.65-92.78,342.38-94.01-140.92-58.29-274,92.78-342.38Z" style="fill:#b0c2e4; fill-rule:evenodd;"/><path d="M734.04,947.49c-64.24,83.05-44.75,181.39,62.18,229.46,63.01-94.44,39.07-183.63-62.18-229.46Z" style="fill:#b0c2e4; fill-rule:evenodd;"/><path d="M1883.66,954.61c.39-1.42-.44-2.89-1.86-3.28-1.41-.39-2.88,.44-3.28,1.85l-37.22,133.81-58.2-54.84c-1.08-1-2.76-.95-3.77,.12-1,1.08-.95,2.76,.12,3.77l60.24,56.75-10.34,37.17c-.56,.6-.82,1.46-.65,2.33l-7.92,28.5-73.75-50.91c-1.21-.83-2.87-.53-3.71,.68-.83,1.21-.53,2.87,.68,3.71l75.26,51.95-9.29,33.4c-.04,.11-.07,.22-.09,.33l-9.44,33.92-55.79-35.59c-1.23-.79-2.88-.43-3.68,.82-.79,1.24-.42,2.88,.82,3.67l57.16,36.46-24.96,89.76c-.4,1.42,.43,2.89,1.85,3.28,1.41,.39,2.88-.43,3.28-1.85l16.79-60.36,51.93-7.35c1.46-.21,2.47-1.55,2.27-3-.21-1.46-1.55-2.47-3-2.27l-49.64,7.02,17.1-61.48,91.24-8.39c1.47-.13,2.54-1.43,2.41-2.9-.13-1.47-1.43-2.55-2.9-2.42l-89.22,8.2,8.79-31.59,.04-.13,8.85-31.81,91.37-20.34c1.44-.32,2.35-1.75,2.02-3.18-.31-1.44-1.74-2.34-3.18-2.03l-88.59,19.73,9.83-35.36,.05-.18,10.52-37.8,65.43-22.79c1.39-.48,2.12-2,1.64-3.39-.48-1.38-2-2.12-3.39-1.64l-61.95,21.57,26.13-93.94Z" style="fill:#fff; fill-rule:evenodd;"/><path d="M1209.99,859.02c.34-1.22-.38-2.49-1.6-2.83-1.23-.34-2.5,.38-2.83,1.6l-32.15,115.58-50.27-47.37c-.92-.86-2.39-.82-3.26,.1-.87,.92-.83,2.38,.1,3.25l52.02,49.02-8.93,32.1c-.48,.53-.71,1.26-.56,2.01l-6.84,24.62-63.7-43.97c-1.04-.72-2.48-.46-3.2,.59-.72,1.04-.46,2.48,.59,3.2l65.01,44.88-8.03,28.84c-.03,.1-.05,.19-.07,.29l-8.15,29.29-48.2-30.75c-1.07-.68-2.49-.36-3.17,.71-.68,1.07-.36,2.49,.71,3.17l49.37,31.5-21.56,77.52c-.34,1.22,.38,2.49,1.6,2.84,1.23,.34,2.5-.38,2.83-1.6l14.5-52.13,44.86-6.35c1.26-.18,2.13-1.34,1.96-2.59-.17-1.26-1.34-2.14-2.59-1.96l-42.88,6.07,14.77-53.1,78.8-7.25c1.27-.12,2.2-1.24,2.09-2.51-.12-1.27-1.24-2.2-2.51-2.08l-77.06,7.08,7.59-27.29,.03-.11,7.64-27.47,78.92-17.58c1.25-.27,2.02-1.5,1.75-2.75-.28-1.24-1.5-2.02-2.75-1.75l-76.52,17.04,8.5-30.54,.05-.16,9.08-32.65,56.52-19.68c1.2-.41,1.83-1.72,1.41-2.92-.41-1.2-1.73-1.84-2.92-1.42l-53.51,18.63,22.57-81.14Z" style="fill:#fff; fill-rule:evenodd;"/><path d="M734.23,959.82c-.23-.82,.25-1.67,1.07-1.9,.82-.23,1.67,.25,1.9,1.07l21.55,77.46,33.69-31.74c.62-.58,1.6-.55,2.18,.07,.58,.62,.55,1.6-.07,2.18l-34.87,32.85,5.98,21.52c.33,.35,.48,.85,.37,1.35l4.59,16.49,42.69-29.47c.7-.48,1.66-.31,2.15,.39,.48,.7,.31,1.66-.39,2.14l-43.57,30.08,5.38,19.33c.02,.06,.04,.13,.05,.19l5.46,19.63,32.3-20.6c.72-.46,1.67-.24,2.13,.47,.46,.72,.25,1.67-.47,2.13l-33.09,21.11,14.45,51.96c.23,.82-.25,1.67-1.08,1.9-.82,.23-1.67-.25-1.9-1.07l-9.72-34.94-30.06-4.25c-.84-.12-1.43-.9-1.31-1.74,.12-.85,.9-1.43,1.74-1.31l28.74,4.07-9.9-35.59-52.82-4.85c-.85-.08-1.48-.83-1.4-1.68,.08-.85,.83-1.47,1.69-1.4l51.64,4.74-5.09-18.29-.02-.07-5.12-18.42-52.9-11.77c-.83-.19-1.36-1.02-1.17-1.84,.19-.83,1.01-1.36,1.84-1.17l51.28,11.42-5.69-20.47-.04-.1-6.08-21.88-37.88-13.19c-.8-.28-1.23-1.16-.96-1.96,.28-.8,1.16-1.23,1.96-.95l35.86,12.49-15.12-54.38Z" style="fill:#fff; fill-rule:evenodd;"/><rect x="170.05" y="1293.29" width="405.57" height="191.84" style="fill:#9db2d9;"/><rect x="771.45" y="1088" width="405.57" height="397.13" style="fill:#9db2d9;"/><rect x="1380.28" y="856.98" width="405.57" height="626.29" style="fill:#9db2d9;"/></svg>