<?xml version="1.0" encoding="UTF-8"?><svg id="a" xmlns="http://www.w3.org/2000/svg" viewBox="0 0 2363.59 1198.42"><path d="M1887.93,65.35c-18.05,0-32.68-14.63-32.68-32.68S1869.88,0,1887.93,0s32.67,14.63,32.67,32.67-14.63,32.68-32.67,32.68h0ZM500.51,848.76h-174.58c-93.96,0-170.83,29.93-170.83,123.9h0c0,93.96,76.88,110.84,170.83,110.84H1802.1c152.14,0,276.62-69.72,276.62-221.86h0c0-152.14-124.48-224.47-276.62-224.47h0c-64.33,0-116.96-52.64-116.96-116.97h0c0-64.33,52.63-116.96,116.96-116.96h140.77c66.88,0,121.6-54.72,121.6-121.6h0c0-66.88-54.72-121.6-121.6-121.6h-178.01c-26.04,0-47.34-21.31-47.34-47.34h0c0-26.04,21.3-47.34,47.34-47.34h31.38c17.97,0,32.67-14.71,32.67-32.68h0c0-17.97-14.7-32.67-32.67-32.67h-205.91c-43.36,0-48.19,51.23-157.72,51.23h-253.99c-23.45,0-42.63,19.18-42.63,42.64h0c0,23.44,19.18,42.64,42.63,42.64h40.94c33.97,0,61.78,27.8,61.78,61.77h0c0,33.97-27.8,61.77-61.78,61.77h-123.23c-166.39,0-189.89,43.49-219.04,129.97-29.15,86.48-180.5,93.46-180.5,93.46h-206.95c-51.2,0-93.09,41.89-93.09,93.09h0c0,51.2,41.89,93.1,93.09,93.1h10.66c49.24,0,89.54,40.29,89.54,89.54h0c0,49.26-40.29,89.55-89.54,89.55h0Z" style="fill:#e0e8f5; fill-rule:evenodd;"/><path d="M301.87,862.17c-9.48-.45-9.19,1.17-10.4,1.04-1.42-.09-16.75-11.76-16.75-11.76,0,0-45.32-34.03-47.7-35.94l-28.29-51.31-29.48,6.81s32.26,54.97,34.45,57.56c2.16,2.55,68.82,41.44,74.59,45.07,0,0,5.27,6.83,8.71,11.02,3.46,4.18,8.59,6.6,9.75,7.65,.17,.12,4.21,3.36,10.24,5.94,5.2,2.29,1.32-2.21,1.32-2.21,0,0-8.88-5.93-8.29-6.53,.45-.5,5.11,3.03,10.83,5.59,1.48,.65,2.92,1.27,4.26,1.84,3.52,1.53,5.47-.16,2.04-2.37-1.21-.77-3.25-1.99-4.83-2.65-1.72-.75-3.05-1.97-4.39-2.79-2.66-1.65-4.63-2.83-4.5-2.89,.18-.08-.14-.79,1.45-.13,1.92,.77,5.58,3.32,8.49,4.26,1.63,.54,4.98,1.84,4.98,1.84,0,0,5.69,1.53,5.84,1.22,.91-1.59-2.85-3.85-5.15-4.26-1.34-1.06-4.9-2.32-4.9-2.32,0,0-6.64-4.2-6.06-5.15,.47-.8,18.31,6.2,19.13,4.56,.64-1.37-4.63-3.73-4.63-3.73,0,0-3.29-1.17-4.37-1.65-1.24-.56-4.87-2.53-4.87-2.53,0,0-12.25-7.37-11.63-8.24,.62-.85,3.11-2.37,4.03-2.17,.93,.19,2.43,1.44,3.32,1.6,.92,.2,2.29-.34,2.62-1.42,.31-1.13-3.76-3.76-3.76-3.76,0,0-3.31-2.12-6.05-2.22Z" style="fill:#f9af79; fill-rule:evenodd;"/><path d="M209.98,778.52l-30.33,16.88s-12.99-25.36-18.5-37.76c-6.66-15.04-13.44-34.91-11.44-35.27,5.62-1.03,13.23-1.22,19.82,2.62,22.78,13.33,40.46,53.53,40.46,53.53Z" style="fill:#466fb5; fill-rule:evenodd;"/><path d="M761.51,568.5c-13.23-7.12-12.22,.31-5.9-31.75,.87-4.39,4.07-24.68,6.1-26.65,2.65-2.57,4.17-.02,9.28-3.72,4.21-3.04,8.18-6.54,12.21-9.74l2.13-2.03c2.9-2.29,4.43-3.13,7.48-5.82,4.14-6.36,6.34-15.2,11.32-19.57,1.91-1.67,3.51-1.65,6.77-.63,7.13,2.22,11.63,7.86,11.51,15.47-.12,7.27-4.76,14.82-9.03,20.31-.73,1.24-1.53,1.78-1.95,3.5,7.78,1.81,15.95,3.07,23.58,4.92,.52,.71-.7-.15,.81,.8,.54,.34,.34,.14,1.02,.39,5.05,3.14,8.62,10.82,5.04,18.65-.82,1.79-1.56,3.1-2.83,4.42-1.97,2.03-2.3,.79-2.02,4.42,.33,4.23-1.29,8.83-4.41,11.69-.71,.64-1.27,1.32-.86,2.02-1.29,12.97-6.52,11.6-7.41,15.35-1.16,4.92-1.64,5.92-2.27,6.75-5.51,7.2-11.02,8.88-21.99,6.83-17.03-3.18-23.35-7.42-38.56-15.61h0Zm-18.69-7.69c2.41,.47,4.78-1.11,5.25-3.52l8.51-43.17c.48-2.42-1.11-4.78-3.53-5.25l-17.55-3.46c-2.41-.48-4.78,1.11-5.25,3.52l-8.52,43.17c-.47,2.41,1.11,4.78,3.53,5.25l17.56,3.46Z" style="fill:#b0c2e4; fill-rule:evenodd;"/><path d="M490.24,1103.04l-2.79-114.08,92.38-66.92c10.5-7.69,7.63-24-4.79-27.83l-109.35-32.47-35.19-108.54c-3.97-12.39-20.48-14.84-27.76-4.14l-64.85,94.01-114.09-.12c-12.99-.09-20.32,14.86-12.43,25.25l69.34,90.53-35.35,108.55c-4.03,12.36,7.91,23.97,20.15,19.63l107.58-37.92,92.29,67.17c10.45,7.61,25.26-.11,24.88-13.15Z" style="fill:#b0c2e4; fill-rule:evenodd;"/><path d="M479.83,1103.3c.11,4.37-4.8,7.05-8.35,4.47l-96.72-70.39,41.78-284.55c1.77,.35,3.38,1.59,4.03,3.59l36.88,113.75,114.51,34c4.2,1.29,5.37,6.81,1.75,9.44l-96.81,70.14,2.92,119.55Z" style="fill:#9db2d9; fill-rule:evenodd;"/><path d="M982.18,1171.43l-23.36-111.69,78.77-82.52c8.93-9.45,3.17-24.98-9.75-26.5l-113.42-12.18-54.23-100.38c-6.14-11.47-22.82-10.9-28.05,.94l-46.79,104.19-112.24,20.5c-12.79,2.26-17.3,18.29-7.66,27.09l84.57,76.5-15.16,113.15c-1.72,12.89,12.12,22.14,23.37,15.67l98.96-56.73,102.91,49.38c11.66,5.59,24.82-4.68,22.1-17.43Z" style="fill:#b0c2e4; fill-rule:evenodd;"/><path d="M971.99,1173.57c.89,4.27-3.44,7.8-7.4,5.91l-107.85-51.76-10.34-287.41c1.81,.03,3.62,.96,4.62,2.81l56.84,105.21,118.76,12.75c4.36,.51,6.52,5.72,3.42,8.96l-82.54,86.48,24.48,117.05Z" style="fill:#9db2d9; fill-rule:evenodd;"/><path d="M1914.09,1138.43l-23.36-111.69,78.75-82.52c8.94-9.46,3.17-24.98-9.74-26.5l-113.42-12.18-54.23-100.39c-6.14-11.46-22.83-10.89-28.06,.95l-46.79,104.19-112.23,20.5c-12.79,2.26-17.3,18.29-7.67,27.08l84.57,76.5-15.15,113.16c-1.73,12.88,12.11,22.14,23.36,15.66l98.96-56.73,102.91,49.38c11.66,5.59,24.83-4.67,22.1-17.42Z" style="fill:#b0c2e4; fill-rule:evenodd;"/><path d="M1903.9,1140.56c.9,4.28-3.44,7.81-7.4,5.91l-107.84-51.76-10.33-287.41c1.8,.02,3.61,.96,4.62,2.81l56.83,105.2,118.76,12.75c4.37,.51,6.52,5.73,3.43,8.96l-82.55,86.48,24.48,117.05Z" style="fill:#9db2d9; fill-rule:evenodd;"/><path d="M792.7,325.59H220.33c4.11-17.39,19.72-30.33,38.37-30.33,.89,0,1.8,.03,2.68,.1,9.04-22.13,30.78-37.73,56.16-37.73,11.11,0,21.5,3,30.45,8.2,10.92-35.98,44.35-62.18,83.89-62.18,8.05,0,15.84,1.09,23.25,3.13,19.15-42.27,61.7-71.68,111.12-71.68,58.62,0,107.58,41.38,119.27,96.52,1-.04,1.97-.07,2.96-.07,37.55,0,68.54,28.08,73.12,64.38,15.32,2.87,27.52,14.59,31.08,29.65Z" style="fill:#e0e8f5; fill-rule:evenodd;"/><path d="M1224.21,1154.23s-6.1,6.03-6.25,8.24c-.14,2.21-.53,25.93,1.95,28.15,2.5,2.21,9.81,3.81,7.46,6.29-1.77,1.86-15.46,1.46-24.52,.98-2.64-.18-5.97-21.55-7.02-24.69-1.51-4.57-7-14.54-5.62-17.69,.68-1.55,5.69-5.09,10.24-8.07,4.77-3.15,9.36-10.11,9.36-10.11l14.41,16.9Z" style="fill:#f9af79; fill-rule:evenodd;"/><path d="M1305.84,1169.04l-5.47,15.69c-.41,2.48-2.01,8.6-2.01,10.86,0,8.46,37.64-7.19,29.21-10.96-.77-.35-3.17-3.05-3.41-5.93-.4-4.43,3.16-9.97,3.16-9.97l-21.49,.31Z" style="fill:#f9af79; fill-rule:evenodd;"/><path d="M1357.77,872.21l13.63,35.28s8.89,84.23,3.72,134.63c-2.17,21.1-49.05,133.96-49.05,133.96l-23.29-3.32,31.19-133.65-11.47-51.11-16.25-101.07,51.51-14.72Z" style="fill:#0e2952; fill-rule:evenodd;"/><path d="M1293.57,874.02l-11.7,39.28-17.77,118.62-60.14,110.96s9.04,13.92,18.75,16.09l85.36-112.15,46.27-140.4-1.63-31.2-59.14-1.2Z" style="fill:#223f81; fill-rule:evenodd;"/><path d="M1477.75,871.54c-9.08-.43-8.79,1.14-9.97,1.02-1.36-.08-16.04-11.42-16.04-11.42,0,0-43.4-33.09-45.68-34.95l-27.09-49.89-28.23,6.62s30.89,53.45,32.99,55.97c2.08,2.47,65.9,40.29,71.43,43.83,0,0,5.05,6.64,8.35,10.72,3.31,4.07,8.22,6.42,9.34,7.44,.16,.12,4.03,3.27,9.8,5.78,4.98,2.22,1.26-2.15,1.26-2.15,0,0-8.5-5.77-7.94-6.35,.43-.47,4.89,2.94,10.37,5.44,1.41,.64,2.79,1.25,4.08,1.8,3.37,1.48,5.25-.16,1.96-2.31-1.17-.76-3.12-1.93-4.63-2.58-1.64-.73-2.92-1.92-4.2-2.71-2.54-1.6-4.43-2.75-4.31-2.81,.17-.08-.12-.77,1.39-.13,1.84,.75,5.34,3.23,8.13,4.14,1.57,.53,4.77,1.79,4.77,1.79,0,0,5.44,1.49,5.59,1.18,.88-1.54-2.73-3.74-4.93-4.14-1.29-1.03-4.7-2.25-4.7-2.25,0,0-6.35-4.1-5.8-5.01,.45-.78,17.53,6.03,18.31,4.43,.62-1.34-4.43-3.63-4.43-3.63,0,0-3.16-1.14-4.18-1.61-1.19-.55-4.67-2.46-4.67-2.46,0,0-11.73-7.17-11.13-8.01,.59-.83,2.98-2.31,3.86-2.12,.88,.2,2.32,1.41,3.17,1.57,.89,.2,2.2-.33,2.52-1.39,.3-1.1-3.61-3.65-3.61-3.65,0,0-3.17-2.05-5.79-2.17Z" style="fill:#f9af79; fill-rule:evenodd;"/><path d="M1389.74,790.21l-29.05,16.41s-12.44-24.65-17.71-36.72c-6.39-14.62-12.88-33.94-10.96-34.29,5.39-1,12.67-1.18,18.98,2.55,21.82,12.96,38.74,52.06,38.74,52.06Z" style="fill:#466fb5; fill-rule:evenodd;"/><path d="M1200.74,1147.27s12.85,39.36,18.35,41.32c1.47,.48,9.69,2.57,11.01,5.72l.09,.31c.43,1.99-1.25,3.81-3.29,3.81h-26.12s-3.7-17.68-5.18-25.45c0,0-7.75-19.02-6.89-20.7,.86-1.73,12.02-5.01,12.02-5.01Z" style="fill:#0e2952; fill-rule:evenodd;"/><path d="M1296.22,1198.38l4.31-13.83s9.04,3.91,13.57,3.23c4.54-.62,13.37-3.23,13.37-3.23,18.07,6.03,32.86,8.95,30.18,13.83h-61.43Z" style="fill:#0e2952; fill-rule:evenodd;"/><path d="M1466.78,879.96c3.78,1.49,7.36,1.43,10.81-.66-2.58,3.84-8.14,3.5-10.81,.66Z" style="fill:#f48661; fill-rule:evenodd;"/><path d="M1297.8,729.9s-17.57,2.44-22.2,5.86c-5.19,3.81-21.32,21.67-21.32,21.67,0,0,33.56,96.11,32.27,113.22-1.31,17.11-4.99,42.47-4.99,42.47,0,0,65.64,4.16,90.32-5.59,0,0-8.26-38.84-8.26-48.99s-4.38-111.93-7.48-117.25c-3.13-5.32-9.4-8.33-21.31-10.95-11.91-2.62-37.02-.45-37.02-.45Z" style="fill:#6d96ce; fill-rule:evenodd;"/><path d="M1302.59,702.47l-4.34,28.46s15.88,33.91,25.36,30.99c7.95-2.49,3.06-32.45,3.06-32.45,0,0-4.35-16.14-3.04-24.2,1.31-8.03-21.04-2.79-21.04-2.79Z" style="fill:#f9af79; fill-rule:evenodd;"/><path d="M1323.63,705.27c1.31-8.03-21.04-2.79-21.04-2.79l-.35,2.35c.66,1.6,1.44,2.97,2.43,3.99,4.98,5.32,12.79,8.56,19.52,8.78-.66-4.35-1.09-9-.56-12.32Z" style="fill:#f48661; fill-rule:evenodd;"/><path d="M1298.93,662.22c-.62-.22-5.06,32.4,3.34,41.41,8.41,8.95,24.78,11.92,30.66,4.83,2.9-3.48,8.71-13.3,4.62-24.37-4.13-11.21-4.3-22.69-11.53-27.81-13.06-9.22-27.09,5.95-27.09,5.95Z" style="fill:#f9af79; fill-rule:evenodd;"/><path d="M1325.35,628.64c-12.22,25.1-25.46,21.53-27.86,24.15-19.29,2.24-31.22,34.56-11.71,49.51,9.23,7.09,15.18,10.81,15.18,10.81l1.47-4.3c1.08-3.19,1.52-6.6,1.16-9.97-.22-2-.65-4.17-1.5-5.99-2.21-4.69,4.76-7.84,6.73-11.78,1.5-3.02,1.57-9.98,3.94-14.94l2.84-3.86s6.53-5.05,12.93-3.59c6.4,1.42,10.68-15.02-3.18-30.04Z" style="fill:#20386f; fill-rule:evenodd;"/><path d="M1308.38,686.87c.07,3.99-1.76,7.27-4.06,7.27-2.32,.05-4.26-3.15-4.31-7.13-.07-3.99,1.74-7.23,4.07-7.27,2.32-.05,4.24,3.15,4.3,7.13Z" style="fill:#f9af79; fill-rule:evenodd;"/><path d="M2142.54,636.44s5.86-7.07,10.45-10.25c4.58-3.23,11.8-13.34,12.5-26.4,.68-13.1-8.24-19.88-13.34-22.31-5.09-2.47-25.25-6-32.57-3.9-7.33,2.09-8.45,28.34-8.45,28.34l7.2,21.67,24.21,12.84Z" style="fill:#20386f; fill-rule:evenodd;"/><path d="M2089.85,997.29l-.1,15.98-17.13-6.26s-9.5-14.84-21.87-34.66c7.82-3.4,15.94-6.29,24.1-9.24,8.43,19.95,15,34.18,15,34.18Z" style="fill:#fab688; fill-rule:evenodd;"/><path d="M2071.55,1005.97s8.61-2.45,10.69-4.4c2.1-1.95,3.32-6.73,6.73-6.58,3.41,.14,15.55,11.34,16.55,14.79,1.05,3.64,.85,8.45-1.29,10.39-2.12,1.97-39.78,26.14-47.42,28.56-7.63,2.43-14.19-3.17-8.94-10.57,5.25-7.4,18.64-32.37,23.68-32.18Z" style="fill:#0e2952; fill-rule:evenodd;"/><path d="M2138.97,800s-150.3,19.91-152.74,38.8c-5.7,44.16,77.73,160.21,77.73,160.21l23.47-10.24-42.11-121.92s67.14-6.63,73.13-10.82c6.01-4.18,20.52-56.04,20.52-56.04Z" style="fill:#20386f; fill-rule:evenodd;"/><path d="M2195.99,1092.22l-2.74,15.76-15.85-9s-6.96-16.21-15.86-37.82c8.28-2.05,16.76-3.58,25.29-5.14,5.04,21.06,9.16,36.2,9.16,36.2Z" style="fill:#fab688; fill-rule:evenodd;"/><path d="M2176.51,1097.77s8.91-1.02,11.29-2.57c2.38-1.55,4.39-6.09,7.71-5.38,3.34,.69,13.48,13.72,13.88,17.27,.44,3.78-.56,8.49-2.98,10.07-2.43,1.59-51.76,21.39-59.7,22.53-7.95,1.13-9.13-7.06-2.73-13.48,6.39-6.45,27.6-29.46,32.53-28.43Z" style="fill:#0e2952; fill-rule:evenodd;"/><path d="M2111.77,814.41l14.16-18.51s43.26,6.5,48.86,26.01c5.6,19.51-3.44,142.72-3.44,142.72,0,0,16.82,84.38,24.16,114.99-8.54,1.57-20.45,4.01-28.75,6.06-15.42-37.41-47.16-118.82-47.16-118.82l-13.71-112.15,5.88-40.29Z" style="fill:#223f81; fill-rule:evenodd;"/><path d="M2055.63,513.41c-3.02,9.61-4.45,8.72-4.81,9.96-.41,1.44,5.34,21.13,5.34,21.13,0,0,16.6,58.01,17.61,61.14l39.51,47.58-17.25,26.81s-41.64-52.94-43.35-56.1c-1.72-3.13-15.31-84.27-16.73-91.38,0,0-4.73-7.84-7.54-12.85-2.81-5.01-3.3-11.08-3.88-12.61-.09-.23-1.73-5.45-2.09-12.46-.3-6.03,2.67-.45,2.67-.45,0,0,2.52,11.06,3.32,10.75,.62-.27-1.09-6.26-1.5-12.95-.1-1.71-.2-3.4-.28-4.94-.2-4.08,2.17-5.38,3.04-1.14,.31,1.49,.75,4.01,.85,5.84,.09,1.95,.77,3.76,1.1,5.42,.63,3.27,1.04,5.66,1.17,5.56,.16-.14,.72,.42,.67-1.39-.07-2.21-1.21-6.83-1.07-10.05,.08-1.83,.01-5.68,.01-5.68,0,0,.97-5.8,1.32-5.87,1.89-.29,2.33,3.87,1.89,6.36,.52,1.74,.47,5.77,.47,5.77,0,0,1.69,8.18,2.81,7.96,.48-.08,.03-5.26,.37-10.38,.31-4.75,1.37-9.48,2.29-9.57,1.57-.14,1.76,5.2,1.76,5.2,0,0-.04,3.74,.03,4.98,.09,1.45,.67,5.8,.67,5.8,0,0,2.73,15.02,3.78,14.7,1.05-.31,3.44-2.2,3.58-3.19,.15-.98-.51-2.95-.37-3.94,.15-.98,1.16-2.15,2.35-2.06,1.19,.09,2.28,5.17,2.28,5.17,0,0,.85,4.11-.02,6.9Z" style="fill:#fab688; fill-rule:evenodd;"/><path d="M2093.1,626.12c1.91-.12,45.62,38.65,44.12,50.43-1.47,11.78-21.61,27.3-34.31,17.32-12.7-10.02-35.96-45.32-35.96-45.32,0,0,19.98-22.06,26.15-22.43Z" style="fill:#6d96ce; fill-rule:evenodd;"/><path d="M2112.71,656.79c-.53,.37-18.35,26.06-19.51,46.57-2.12,37.53,5.88,100.77,12.26,104.02,51.13,25.95,73.09,17.34,73.09,17.34,0,0-1.47-115.31-9.32-142.79-3.27-11.4-7.96-21.51-19.56-25.49-2.64-.94-24.57-8.28-36.96,.33Z" style="fill:#6d96ce; fill-rule:evenodd;"/><path d="M2118.92,636.09l-6.35,21.6s-1.65,6.06,.98,9.02c4.52,5.15,27.99-12.47,27.99-12.47l4.06-35.07-26.68,16.91Z" style="fill:#fab688; fill-rule:evenodd;"/><path d="M2144.38,629.74c-7.39,13.21-21.57,17.66-28.71,17.43l3.25-11.08,26.68-16.91-1.22,10.56Z" style="fill:#f27458; fill-rule:evenodd;"/><path d="M2141.06,582.32c-9.52-5.96-22.14-1.61-26.18,8.7-1.76,4.44-3.72,10.15-5.31,16.48-3.81,15.28,.68,32.04,7.63,33.63,6.96,1.63,28.49-3.87,34.21-25.46,3.53-13.35-.35-27.1-10.35-33.35Z" style="fill:#fab688; fill-rule:evenodd;"/><path d="M2145.89,616.19c-.79,3.4,.83,6.64,3.59,7.3,2.77,.62,5.64-1.59,6.43-4.99,.77-3.36-.83-6.64-3.6-7.25-2.75-.66-5.63,1.56-6.41,4.95Z" style="fill:#fab688; fill-rule:evenodd;"/><path d="M2152.3,611.24s2.85-7.08,3.44-14.3c.57-7.18-3.5-18.19-10.44-20.95-6.92-2.75-24.18-3.02-25.54-7.98-1.35-4.96-1.43-4.51-2.05-5.34-1.4-1.94-12.67,3-14.35,15.08-1.7,12.08,8.96,13.56,10.95,14.26,1.99,.74,22.14-3.83,27.78-2.44,5.65,1.35,10.2,21.66,10.2,21.66Z" style="fill:#20386f; fill-rule:evenodd;"/><path d="M2247.16,532.53c1.09,10.01,2.67,9.42,2.77,10.71,.13,1.49-9.34,19.69-9.34,19.69,0,0-27.56,53.68-29.16,56.55l-48,39,11.72,29.65s51.13-43.83,53.43-46.61c2.29-2.73,31.39-79.69,34.16-86.39,0,0,6.16-6.77,9.89-11.14,3.73-4.37,5.4-10.22,6.26-11.62,.13-.21,2.75-5.01,4.47-11.82,1.47-5.86-2.54-.96-2.54-.96,0,0-4.62,10.36-5.34,9.89-.56-.38,2.29-5.93,3.99-12.4,.43-1.65,.86-3.3,1.24-4.79,.98-3.96-1.09-5.7-2.77-1.71-.6,1.4-1.53,3.79-1.97,5.56-.47,1.9-1.49,3.54-2.14,5.1-1.25,3.09-2.12,5.35-2.22,5.22-.13-.17-.78,.28-.38-1.5,.5-2.15,2.52-6.46,3.01-9.64,.27-1.82,1.09-5.58,1.09-5.58,0,0,.18-5.88-.15-6.01-1.8-.65-3.04,3.34-3.09,5.87-.85,1.6-1.59,5.57-1.59,5.57,0,0-3.24,7.69-4.3,7.26-.46-.17,.98-5.16,1.65-10.25,.62-4.72,.5-9.57-.39-9.83-1.51-.44-2.75,4.76-2.75,4.76,0,0-.68,3.68-.99,4.88-.37,1.4-1.79,5.56-1.79,5.56,0,0-5.59,14.2-6.57,13.69-.97-.52-2.94-2.83-2.89-3.82,.05-.99,1.07-2.8,1.13-3.79,.04-1-.72-2.34-1.9-2.48-1.19-.15-3.24,4.62-3.24,4.62,0,0-1.64,3.87-1.32,6.78Z" style="fill:#fab688; fill-rule:evenodd;"/><path d="M2188.5,635.8c-1.85-.49-19.79,21.41-45.89,23.85-.85,11.84,5.62,72.86,20.02,65.53,9.42-23.11,47.17-62.29,47.17-62.29,0,0-15.32-25.53-21.3-27.09Z" style="fill:#6d96ce; fill-rule:evenodd;"/><path d="M37.12,1152.88s-6.36,6.2-6.52,8.48c-.14,2.28-.56,26.67,2.04,28.95,2.6,2.28,10.24,3.92,7.79,6.47-1.85,1.91-16.14,1.5-25.61,1-2.75-.18-6.22-22.16-7.32-25.39-1.58-4.7-7.31-14.95-5.87-18.19,.72-1.6,5.95-5.24,10.69-8.3,4.98-3.23,9.77-10.39,9.77-10.39l15.04,17.37Z" style="fill:#f9af79; fill-rule:evenodd;"/><path d="M122.36,1168.11l-5.72,16.14c-.42,2.55-2.09,8.84-2.09,11.16,0,8.71,39.3-7.38,30.5-11.25-.8-.37-3.3-3.15-3.56-6.12-.41-4.56,3.3-10.25,3.3-10.25l-22.43,.32Z" style="fill:#f9af79; fill-rule:evenodd;"/><path d="M176.59,862.85l14.24,36.29s9.28,86.62,3.88,138.45c-2.27,21.7-51.21,137.77-51.21,137.77l-24.33-3.42,32.57-137.45-11.98-52.56-16.96-103.94,53.78-15.13Z" style="fill:#0e2952; fill-rule:evenodd;"/><path d="M109.55,864.72l-12.21,40.39-18.56,122-62.8,114.11s9.44,14.31,19.58,16.54l89.13-115.33,48.31-144.38-1.7-32.1-61.76-1.23Z" style="fill:#223f81; fill-rule:evenodd;"/><path d="M12.61,1145.73s13.42,40.48,19.17,42.48c1.54,.5,10.11,2.64,11.49,5.89l.1,.32c.44,2.05-1.31,3.92-3.43,3.92H12.67s-3.87-18.19-5.41-26.16c0,0-8.1-19.57-7.19-21.29,.89-1.78,12.54-5.15,12.54-5.15Z" style="fill:#0e2952; fill-rule:evenodd;"/><path d="M112.32,1198.29l4.5-14.22s9.44,4.01,14.17,3.33c4.73-.64,13.96-3.33,13.96-3.33,18.87,6.2,34.32,9.21,31.51,14.22H112.32Z" style="fill:#0e2952; fill-rule:evenodd;"/><path d="M113.97,716.51c-36.52,5-42.77,35.07-32.31,66.93,9.79,29.78,21.34,67.57,20.55,77.82-1.36,17.59-5.21,43.68-5.21,43.68,0,0,68.54,4.28,94.31-5.75,0,0-8.62-39.93-8.62-50.37s-4.57-115.11-7.82-120.59c-3.26-5.46-9.81-8.57-22.25-11.25-12.43-2.68-38.66-.46-38.66-.46Z" style="fill:#6d96ce; fill-rule:evenodd;"/><path d="M118.97,688.29l-4.53,29.28s16.58,34.88,26.49,31.87c8.29-2.56,3.19-33.37,3.19-33.37,0,0-4.54-16.6-3.18-24.9,1.37-8.25-21.97-2.87-21.97-2.87Z" style="fill:#f9af79; fill-rule:evenodd;"/><path d="M140.94,691.16c1.37-8.25-21.97-2.87-21.97-2.87l-.37,2.41c.68,1.65,1.5,3.06,2.54,4.11,5.19,5.47,13.35,8.8,20.38,9.03-.7-4.47-1.14-9.26-.58-12.68Z" style="fill:#f48661; fill-rule:evenodd;"/><path d="M115.15,646.9c-.65-.22-5.28,33.32,3.48,42.58,8.78,9.21,25.87,12.26,32.01,4.96,3.02-3.58,9.09-13.68,4.83-25.06-4.31-11.54-4.48-23.32-12.03-28.6-13.63-9.48-28.29,6.11-28.29,6.11Z" style="fill:#f9af79; fill-rule:evenodd;"/><path d="M142.75,612.37c-12.77,25.8-26.59,22.15-29.09,24.84-20.16,2.29-32.6,35.54-12.22,50.9,9.63,7.3,15.84,11.12,15.84,11.12l1.54-4.42c1.13-3.28,1.58-6.79,1.21-10.26-.23-2.05-.68-4.28-1.57-6.15-2.3-4.83,4.98-8.07,7.03-12.13,1.56-3.1,1.63-10.26,4.12-15.37l2.96-3.96s6.82-5.2,13.5-3.69c6.68,1.45,11.16-15.44-3.32-30.89Z" style="fill:#20386f; fill-rule:evenodd;"/><path d="M125.02,672.25c.07,4.09-1.84,7.47-4.24,7.47-2.42,.05-4.44-3.23-4.5-7.34-.07-4.11,1.82-7.43,4.24-7.48,2.43-.05,4.43,3.23,4.5,7.34Z" style="fill:#f9af79; fill-rule:evenodd;"/><path d="M243.5,879.39c-10.14,.05-9.69,1.7-11.01,1.65-1.55-.03-18.75-11.23-18.75-11.23,0,0-51.01-32.69-53.7-34.56l-34.12-51.38-30.95,8.54s38.62,54.96,41.17,57.51c2.54,2.56,76.63,39.13,83.07,42.56,0,0,6.17,6.78,10.18,10.91,3.97,4.11,9.67,6.37,10.96,7.36,.22,.17,4.77,3.25,11.41,5.65,5.72,2.05,1.21-2.41,1.21-2.41,0,0-9.91-5.63-9.34-6.29,.43-.54,5.7,2.86,12,5.2,1.59,.59,3.22,1.18,4.68,1.71,3.9,1.41,5.81-.49,2-2.55-1.34-.73-3.65-1.9-5.39-2.51-1.86-.65-3.36-1.83-4.88-2.62-2.94-1.55-5.13-2.65-5.02-2.75,.17-.09-.2-.81,1.54-.22,2.11,.7,6.23,3.15,9.36,3.95,1.78,.45,5.48,1.65,5.48,1.65,0,0,5.9,.77,6.04,.45,.87-1.69-3.04-3.33-5.55-3.65-1.5-.99-5.41-2.11-5.41-2.11,0,0-7.4-3.98-6.87-5.02,.25-.41,5.08,1.5,10.13,2.71,4.69,1.09,9.58,1.48,9.9,.6,.6-1.42-4.48-3.19-4.48-3.19,0,0-3.58-1.03-4.77-1.46-1.37-.5-5.38-2.33-5.38-2.33,0,0-13.67-6.98-13.06-7.9,.61-.9,3.16-2.6,4.15-2.45,.99,.14,2.69,1.35,3.67,1.49,1,.15,2.41-.47,2.68-1.63,.28-1.16-4.29-3.67-4.29-3.67,0,0-3.7-1.99-6.66-2.01Z" style="fill:#f9af79; fill-rule:evenodd;"/><path d="M105.38,816.13l36.33-13.71s-4.12-18.01-12.92-31.08c-22.28-48.84-47.19-42.56-50.49-22.51-4.65,16.09,27.08,67.3,27.08,67.3Z" style="fill:#466fb5; fill-rule:evenodd;"/><path d="M1604.92,1137.21c75.15,0,136.07,6.29,136.07,14.06s-60.92,14.06-136.07,14.06-136.07-6.3-136.07-14.06,60.92-14.06,136.07-14.06Z" style="fill:#c4d1eb; fill-rule:evenodd;"/><path d="M1610.74,964.46c-2.14-3.4-4.07-5.84-5.82-7.32,8.28-4.5,12.87-9.42,13.77-14.79,1.21,1.06,2.24,2.35,3.07,3.86-3.08,7.33-6.75,13.41-11.02,18.25Z" style="fill:#466fb5; fill-rule:evenodd;"/><path d="M1599.1,964.46c2.13-3.4,4.07-5.84,5.82-7.32-8.28-4.5-12.87-9.42-13.77-14.79-1.21,1.06-2.24,2.35-3.07,3.86,3.08,7.33,6.75,13.41,11.02,18.25Z" style="fill:#466fb5; fill-rule:evenodd;"/><path d="M1672.27,971.54c-8.93-12.35-25.76-20.79-50.51-25.33-3.08,7.33-6.75,13.41-11.02,18.25-2.14-3.4-4.07-5.84-5.82-7.32-1.74,1.48-3.69,3.92-5.82,7.32-4.27-4.84-7.95-10.92-11.02-18.25-24.74,4.54-41.58,12.98-50.51,25.33-6.83,20-11.34,35.84-13.53,47.53,7.25,1.55,15.59,3.39,25.03,5.51-1.26,22.56-1.59,41.83-.98,57.8,13.19,3.85,31.63,10.69,53.58,19.87,1.14-.03,2.22-.09,3.25-.17,1.03,.07,2.12,.13,3.25,.17,21.96-9.19,40.39-16.02,53.58-19.87,.61-15.97,.29-35.24-.98-57.8,9.44-2.12,17.78-3.95,25.02-5.51-2.18-11.69-6.7-27.53-13.53-47.53Z" style="fill:#6d96ce; fill-rule:evenodd;"/><path d="M1656.81,986.81c1.76,11.3,3.07,23.89,3.96,37.76,1.19-.26,2.37-.53,3.53-.79-1.54-8.6-4.03-20.92-7.49-36.98Z" style="fill:#466fb5; fill-rule:evenodd;"/><path d="M1553.02,986.81c-1.75,11.3-3.07,23.89-3.96,37.76-1.19-.26-2.37-.53-3.53-.79,1.55-8.6,4.04-20.92,7.49-36.98Z" style="fill:#466fb5; fill-rule:evenodd;"/><path d="M1656.1,1126.51c2.66,6.77-2.23,17.7-5.55,19.88-60.44-6.07-98.17-14.56-121.45-26.33-6.94-3.84-19.05-5.5-26.44-10.39-17.87-18.84-4.49-43.55,13.22-42.33,12.37,2.39,18.21,5.93,24.08,12.9,21.19,4.83,64.3,21.94,116.14,46.27Z" style="fill:#1d417f; fill-rule:evenodd;"/><path d="M1720.39,1136.61c2.43,16.5-18.16,19.11-60.52,11.93,17.81-5.88,20.16-11.07,6.9-19.35,36.86-6.67,53.68-6.62,53.62,7.42h0Zm-230.95,0c-2.43,16.5,18.16,19.11,60.52,11.93-17.81-5.88-20.16-11.07-6.9-19.35-36.86-6.67-53.68-6.62-53.62,7.42Z" style="fill:#0e2952; fill-rule:evenodd;"/><path d="M1651.33,1145.74c3.55,.68,6.4,1.61,8.54,2.79,17.81-5.88,20.16-11.07,6.9-19.35-3,.15-6.41-.24-10.22-1.17,1.39,6.22-2.24,14.79-5.22,17.72h0Zm-92.83,0c-3.55,.68-6.4,1.61-8.54,2.79-17.81-5.88-20.16-11.07-6.9-19.35,3,.15,6.41-.24,10.22-1.17-1.38,6.22,2.24,14.79,5.22,17.72Z" style="fill:#f9af79; fill-rule:evenodd;"/><path d="M1683.6,1056.74c1.46-11.91,1.09-24.23-1.1-36.96-5.49,1.19-11.55,2.53-18.2,4.01-1.16,.26-2.34,.52-3.53,.79,1.23,21.86,1.57,40.62,1.04,56.3,10.82-8.72,18.09-16.76,21.79-24.14Z" style="fill:#f9af79; fill-rule:evenodd;"/><path d="M1526.24,1056.74c-1.46-11.91-1.1-24.23,1.09-36.96,5.49,1.19,11.55,2.53,18.2,4.01,1.17,.26,2.34,.52,3.53,.79-1.23,21.86-1.57,40.62-1.04,56.3-10.82-8.72-18.08-16.76-21.78-24.14Z" style="fill:#f9af79; fill-rule:evenodd;"/><path d="M1667.07,1053.59c-.1-8.54-.41-18.6-.93-30.21-.61,.14-1.22,.27-1.84,.41-1.16,.26-2.34,.52-3.53,.79,.75,13.48,1.18,25.78,1.27,36.91,.98-1.15,2.14-2.5,3.45-4.04,3.75-1.59,7.5-2.37,11.25-2.36-4.31-1.33-7.54-1.83-9.67-1.49h0Zm-124.3,0c.11-8.54,.41-18.6,.93-30.21,.61,.14,1.22,.27,1.84,.41,1.17,.26,2.34,.52,3.53,.79-.75,13.48-1.17,25.78-1.26,36.91-.99-1.15-2.14-2.5-3.45-4.04-3.76-1.59-7.5-2.37-11.25-2.36,4.31-1.33,7.54-1.83,9.67-1.49Z" style="fill:#ed7d57; fill-rule:evenodd;"/><path d="M1549.71,1030.72h110.4c1.06,0,1.93,.86,1.93,1.92v49.66c-13.18,3.82-31.66,10.67-53.7,19.89h-6.84c-22.04-9.22-40.52-16.06-53.7-19.89v-49.66c0-1.06,.87-1.92,1.92-1.92Z" style="fill:#c4d1eb; fill-rule:evenodd;"/><path d="M1552.93,1083.86c12.67,3.99,29.25,10.25,48.56,18.33l.16,.07,1.33-.07h3.85l1.33,.07c19.38-8.11,36.02-14.39,48.73-18.39v-41.01c-7.25,9.2-21.69,16.79-40.17,21.34,.09,.61,.14,1.23,.14,1.86,0,6.6-5.36,11.96-11.96,11.96-5.92,0-10.83-4.3-11.78-9.94-5.32,.47-10.81,.73-16.43,.73-8.25,0-16.22-.54-23.76-1.56v16.62Z" style="fill:#9db2d9; fill-rule:evenodd;"/><path d="M1593.38,886.44c7.44,10.36,19.26,19.46,35.45,27.3-4.05,12.12-10.16,23.96-23.51,26.16-12.8-2.05-19.87-11.3-22.76-24.43,6.88-7.66,10.48-17.33,10.82-29.03Z" style="fill:#f9af79; fill-rule:evenodd;"/><path d="M1641.89,893.02c0-20.42-16.71-37.14-37.13-37.14s-37.14,16.72-37.14,37.14v58.44c6.08-2.12,12.9-3.86,20.46-5.25,.83-1.5,1.86-2.79,3.07-3.86,.9,5.38,5.49,10.3,13.77,14.79,8.28-4.5,12.87-9.42,13.77-14.79,1.21,1.06,2.24,2.35,3.07,3.86,7.42,1.36,14.14,3.08,20.13,5.14v-58.33h0Zm-48.51-6.58c7.44,10.36,19.26,19.46,35.45,27.3-4.05,12.12-10.16,23.96-23.51,26.16-12.8-2.05-19.87-11.3-22.76-24.43,6.88-7.66,10.48-17.33,10.82-29.03Z" style="fill:#20386f; fill-rule:evenodd;"/><path d="M1618.69,942.35c-.93-1.46-1.58-4.04-1.96-7.76-3.08,2.65-6.82,4.55-11.41,5.31-5.37-.85-9.73-2.98-13.19-6.13-.12,3.4-.45,6.27-.98,8.58,.9,5.38,5.49,10.3,13.77,14.79,8.28-4.5,12.87-9.42,13.77-14.79Z" style="fill:#f9af79; fill-rule:evenodd;"/><path d="M1617.1,937.4c-.14-.85-.27-1.78-.37-2.81-3.08,2.65-6.82,4.55-11.41,5.31-5.37-.85-9.73-2.98-13.19-6.13-.04,1.21-.11,2.35-.2,3.42,3.19,2.17,7.7,4.02,13.51,5.55,3.67-.99,7.56-2.36,11.67-5.34Z" style="fill:#ed7d57; fill-rule:evenodd;"/><path d="M1567.61,924.84h16.78v49.72h-20.87c3.91-16.07,5.43-32.61,4.09-49.72Z" style="fill:#20386f; fill-rule:evenodd;"/><path d="M1625.11,924.84h16.77c-1.15,16.51,1.05,33.11,3.81,49.72h-20.58v-49.72Z" style="fill:#20386f; fill-rule:evenodd;"/><path d="M1604.92,1058.3c4.28,0,7.74,3.47,7.74,7.74s-3.46,7.74-7.74,7.74-7.74-3.46-7.74-7.74,3.46-7.74,7.74-7.74Z" style="fill:#9db2d9; fill-rule:evenodd;"/><path d="M1553.74,1126.51c-2.67,6.77,2.22,17.7,5.55,19.88,60.44-6.07,98.17-14.56,121.45-26.33,6.94-3.84,19.05-5.5,26.43-10.39,17.87-18.84,4.49-43.55-13.21-42.33-12.38,2.39-18.22,5.93-24.08,12.9-21.18,4.83-64.3,21.94-116.13,46.27Z" style="fill:#1d417f; fill-rule:evenodd;"/><path d="M1600.88,1101.92c-33.03,12.86-59.05,18.03-78.05,15.49,2.32,.8,4.47,1.64,6.27,2.64,6.08,3.07,13.15,5.93,21.34,8.56,.92-.17,1.87-.37,2.84-.6,.12-.52,.27-1.03,.46-1.51,18.35-8.61,35.6-16.31,51.17-22.9-1.09-.46-2.18-.91-3.25-1.36-.05-.02-.11-.05-.16-.07-.2-.09-.41-.17-.62-.26Z" style="fill:#0e2952; fill-rule:evenodd;"/><path d="M1656.78,1129.44c-13.94,4.3-31,8.03-51.87,11.25,13.55,2.1,28.7,3.99,45.63,5.69,.24-.17,.52-.39,.78-.64,2.76-2.72,6.07-10.26,5.45-16.3Z" style="fill:#0e2952; fill-rule:evenodd;"/><path d="M1604.92,1103.61c1.09-.46,2.18-.91,3.25-1.36l-1.33-.07h-3.85l-1.33,.07c1.08,.45,2.16,.9,3.25,1.36Z" style="fill:#0e2952; fill-rule:evenodd;"/><path d="M755.67,904.29c3.15,2.77,6.61,3.89,10.64,3.05-3.78,2.86-9.02,.67-10.64-3.05Z" style="fill:#f48661; fill-rule:evenodd;"/><path d="M769.91,1178.1c-.6-4.27,.74-11.61,4.07-23.08-6.61,.01-12.17-2.92-18.93-2.81-1.84,10.79-4.71,28.52-4.71,28.52l-.31,14.01,47.07,.35s-.4,.2-14.28-8.56c-1.02-.65-12.35-4.32-12.92-8.43Z" style="fill:#f9af79; fill-rule:evenodd;"/><path d="M749.82,1198.33h48.58c1.79-.16,2.24-1.63,1.61-2.53-1.29-1.86-10.77-6.32-17.13-9.29-11.17,1.17-30.81-3.43-32.58-6.01-3.05,8.56-1.48,17.6-.47,17.82Z" style="fill:#0e2952; fill-rule:evenodd;"/><path d="M711.28,1178.1c-.6-4.27-1.61-9.61-.12-23.83-6.62,.01-12.91-1.23-19.67-1.13,0,11.11,.23,27.59,.23,27.59l-.3,14.01,47.06,.35s-.4,.2-14.26-8.56c-1.04-.65-12.37-4.32-12.94-8.43Z" style="fill:#f9af79; fill-rule:evenodd;"/><path d="M691.19,1198.33h48.58c1.8-.16,2.23-1.63,1.61-2.53-1.27-1.86-10.76-6.32-17.13-9.29-11.17,1.17-30.8-3.43-32.56-6.01-3.07,8.56-1.5,17.6-.49,17.82Z" style="fill:#0e2952; fill-rule:evenodd;"/><path d="M745.48,771.71l17.71-18.67s18.94,10.42,41.02,20.37c6.08-10.57,15.98-45.34,16.52-46.99,.53-1.67-11.61-22.55-8.9-23.07,2.73-.53,6.25,11.15,9.13,9.96,2.87-1.19,10.25-28.27,11.98-26.79,3.23,2.77-3.89,16.85-2.18,17.87,1.7,1.02,6.03-15.61,9.31-14.9,3.3,.71-5.55,15.14-4.58,16.53,.98,1.39,10.23-12.15,12.14-9,1.03,1.69-8.54,11.78-6.56,12.91,1.97,1.13,10.59-5.22,11.61-3.17,1.04,2.05-8.04,4.21-10.56,9.42-2.52,5.19-7.1,7.23-8.62,17.08-1.51,9.84-5.67,62.48-16.4,66.71-9.38,3.69-71.6-28.27-71.6-28.27Z" style="fill:#f9af79; fill-rule:evenodd;"/><path d="M756.92,872.45l-14.35,8-29.18,44.61,52.18,122.82s-5.88,18.48-7.79,27.7c-2,9.65-6.92,92.53-6.92,92.53l22.27,.37s21.15-88.22,24.73-116.85c4.35-34.77-22.14-117.58-22.14-117.58-4.94-16.89-15.57-51.65-15.57-51.65,0,0-2.6-8.48-3.22-9.95Z" style="fill:#20386f; fill-rule:evenodd;"/><path d="M706.95,855.69s1.49,10.49-4.45,22.47c-3.61,7.29-9.87,13.02-14.35,21.95-8.47,16.92-13.07,40.95-9.9,56.39,0,0,17.52,66.89,16.83,91.33-.26,9.02-3.35,25.27-5.33,36.25-1.75,9.7-2.34,82.92-2.34,82.92l24.86-.75,19.03-118.11,8.05-104.98,17.56-70.71-49.97-16.76Z" style="fill:#223f81; fill-rule:evenodd;"/><path d="M759.59,701.55c-2.2-10.37-4.46-20.79-14.78-28.26-8.35-6.05-17.31-7.78-26.82-4.34-26.95,9.78-12.45,31.16-45.9,53.94-10.38,7.09-14.33,9.56-21.78,19-10.45,13.21-16.14,30.93-10.9,45.52,10.85,30.17,44.47,38.89,62.05,32.49,32.74-11.9,60.01-53.42,61.83-64.75,1.93-12.12-2.27-46.91-3.7-53.6Z" style="fill:#20386f; fill-rule:evenodd;"/><path d="M764.82,783.45c7.92,3.67,22.27,9.16,22.27,9.16l8.16-25.82c-46.14-26.25-42.5-22.01-77.13-21.49-27.67,.39-39.27-4.89-63.09,59.42,0,0,18.13,8.15,24.62,10.77,2.8-7.95,7.84-23.81,10.79-14.77,4.45,13.64,7.7,27.43,9.89,41.63,1.38,8.41,4.4,19.18,2.82,27.74,0,0,18.83,3.88,33.23,4.52h.12c6.95-.18,14.07-.79,20.41-2.16,0,0,2.82-59.65,4.33-62.14,1.67-2.75,8.72-11.66,2.73-24.98-1.07-2.35-.79-2.62,.85-1.87Z" style="fill:#6d96ce; fill-rule:evenodd;"/><path d="M730.19,886.99c.33,.05,1.8-.15,3-.13,1.65,.04,3.11,.28,3.11,.28,0,0,.65-.57,1.9-1.14,.53-.23,1.36-.33,1.95-.6,.6-.27,1.11-.79,1.67-1.03,1.46-.64,2.81-.79,3.26-.01,.37,.64-7.8,5.63-7.8,5.63-7.58,.05-15.49,3.91-33.04-7.53-10.01-4.37-58.66-28.41-59.64-33.64-.56-2.95,6.92-25.7,13.01-42.96,4.7,2.1,14.71,6.55,20.31,8.89-5.15,10.89-11.2,25.31-10.56,27.07,.16,.47,.77,1.29,33.66,22.83,.83,.54,1.68,1.09,2.54,1.67,2.32,1.5,4.81,3.12,7.43,4.83l9.38-.98s14.85,1.02,15.31,2.71c.19,.78-1.05,1.17-2.56,1.4h-.04c-.22,.01-.45,.05-.68,.08h-.02c-1.64,.2-3.36,.23-3.78,.37-.47,.16-1.42,.54-2.24,1.1,9.27,3.78,8.56,2.43,11.62,2.24,.77-.05,1.59,.18,2.33,.12,1.23-.12,2.24-.85,3.19-.92,1.41-.07,2.56,.58,2.81,.85,.33,.33-.29,.81-1.46,1.34-7.15,3.1-13.08,1.91-14.98,2.38-1.27,.3,1.06,.79,4.7,.39,.9-.09,2.1,.24,3.29-.05,.81-.18,1.54-.68,2.32-.88,.73-.18,1.46-.17,2.09-.29,.79-.15,1.91-.77,2.54-.83,2.38-.27,3.53,.15,3.8,.37,.54,.49-10.24,4.62-10.24,4.62,0,0-7.44,1.07-9.1,1.07,0,0-1,.46,.95,.75Z" style="fill:#f9af79; fill-rule:evenodd;"/><path d="M721.52,719.83s-2.12,17.05-3.36,22.94c-1.29,6.2-3.25,25.69,9.58,28.85,12.83,3.16,8.86-21.21,9.08-27.5,.2-6.31,3.84-28.23,3.84-28.23l-19.15,3.93Z" style="fill:#f9af79; fill-rule:evenodd;"/><path d="M720.83,725.27c.12,.08,.25,.16,.39,.24,7.08,4.05,13.26,3.42,17.89,.26,.83-5.45,1.56-9.87,1.56-9.87l-19.15,3.93s-.28,2.28-.69,5.44Z" style="fill:#f27458; fill-rule:evenodd;"/><path d="M725.38,675.48s-7.52,2.12-11.86,9.59c-4.33,7.46-6.49,28.9,9.47,38.06,15.95,9.14,27.29-5.52,26.79-19.23-.47-13.72-4.3-31.87-24.41-28.42Z" style="fill:#f9af79; fill-rule:evenodd;"/><path d="M753.32,698.01c.17,3.56-1.35,6.54-3.41,6.64-2.06,.11-3.88-2.69-4.05-6.26-.18-3.56,1.34-6.54,3.4-6.64,2.07-.1,3.88,2.71,4.06,6.26Z" style="fill:#f9af79; fill-rule:evenodd;"/><path d="M727.64,674.91s-8.61,22.43-17.03,24.82c-8.41,2.39-7.74,13.42-7.74,13.42,0,0-1.09-25.51,6.62-31.76,7.69-6.24,18.16-6.49,18.16-6.49Z" style="fill:#20386f; fill-rule:evenodd;"/><path d="M714.23,704.13c1.29,3.5,.44,7.06-1.91,7.95-2.35,.88-5.3-1.23-6.6-4.75-1.32-3.51-.45-7.07,1.9-7.95,2.35-.88,5.3,1.24,6.61,4.75Z" style="fill:#f9af79; fill-rule:evenodd;"/><path d="M2275.32,533.83l-7.32-113.87,89.65-70.54c10.18-8.1,6.67-24.28-5.9-27.61l-110.56-28.1-39.48-107.05c-4.45-12.22-21.05-14.02-27.9-3.04l-61.06,96.52-114.01,4.41c-12.98,.43-19.71,15.66-11.42,25.73l72.89,87.7-31.02,109.87c-3.53,12.51,8.85,23.63,20.92,18.82l105.99-42.16,94.88,63.45c10.75,7.18,25.23-1.12,24.34-14.13Z" style="fill:#b0c2e4; fill-rule:evenodd;"/><path d="M2264.93,534.5c.28,4.36-4.52,7.24-8.16,4.81l-99.43-66.49,30.44-285.98c1.78,.27,3.44,1.45,4.18,3.43l41.37,112.19,115.76,29.43c4.25,1.12,5.64,6.59,2.13,9.36l-93.95,73.93,7.67,119.34Z" style="fill:#9db2d9; fill-rule:evenodd;"/><path d="M1373.85,1147.38l11.67-113.51,100.11-54.69c11.38-6.3,10.61-22.83-1.23-28.2l-104.37-46.05-21.17-112.12c-2.37-12.79-18.43-17.32-27.01-7.62l-76.23,85.06-113.16-14.56c-12.87-1.72-22.03,12.18-15.53,23.48l57.33,98.58-48.81,103.2c-5.56,11.76,4.81,24.77,17.51,22.03l111.52-24,83.04,78.31c9.42,8.87,25.07,3.09,26.35-9.9Z" style="fill:#b0c2e4; fill-rule:evenodd;"/><path d="M1363.49,1146.33c-.45,4.35-5.66,6.39-8.84,3.38l-87.03-82.07,77.45-276.97c1.72,.57,3.15,2.01,3.55,4.08l22.19,117.5,109.28,48.22c4,1.82,4.47,7.43,.54,9.59l-104.91,57.32-12.23,118.96Z" style="fill:#9db2d9; fill-rule:evenodd;"/><path d="M1248.08,936.93c-5.06-8.29-6.2-7.1-6.82-8.2-.74-1.28,.08-21.01,.08-21.01,0,0,2.02-58.25,2.24-61.4l25.93-53.76-22.41-21.11s-26.69,59.27-27.54,62.64c-.88,3.36,5.29,82.5,5.62,89.5,0,0-2.6,8.47-4.05,13.83-1.46,5.32-.53,11.13-.71,12.67-.03,.27-.35,5.55,.94,12.19,1.12,5.72,2.61-.22,2.61-.22,0,0-.22-10.95,.61-10.82,.65,.09,.43,6.12,1.6,12.46,.3,1.6,.61,3.23,.89,4.7,.75,3.9,3.28,4.52,3.11,.35-.05-1.46-.22-3.94-.58-5.67-.38-1.86-.14-3.67-.23-5.32-.16-3.19-.33-5.55-.19-5.5,.16,.09,.58-.58,.94,1.15,.45,2.08,.45,6.69,1.33,9.66,.5,1.69,1.34,5.32,1.34,5.32,0,0,2.26,5.23,2.61,5.19,1.84-.13,1.27-4.16,.3-6.39,.08-1.72-.91-5.49-.91-5.49,0,0-.35-8.07,.78-8.16,.47,0,1.25,4.92,2.75,9.67,1.4,4.39,3.5,8.6,4.39,8.42,1.49-.22,.43-5.27,.43-5.27,0,0-.91-3.46-1.13-4.65-.26-1.38-.73-5.59-.73-5.59,0,0-.94-14.72,.13-14.67,1.05,.04,3.72,1.29,4.09,2.17,.37,.89,.2,2.88,.57,3.77,.37,.88,1.59,1.72,2.68,1.37,1.1-.35,.94-5.36,.94-5.36,0,0-.16-4.03-1.62-6.47Z" style="fill:#f9af79; fill-rule:evenodd;"/><path d="M1232.48,791.88l29.37,22.92s12.97-12.41,19.5-26.2c6.58-13.93,.8-54.58-6.22-52.71-15.7,4.25-42.65,55.98-42.65,55.98Z" style="fill:#466fb5; fill-rule:evenodd;"/><polygon points="1755.58 126.33 1596.54 252.48 1664.38 301.44 1755.58 126.33" style="fill:#c4d1eb; fill-rule:evenodd;"/><polygon points="1562.45 230.03 1750.18 128.32 1506 218.7 1562.45 230.03" style="fill:#c4d1eb; fill-rule:evenodd;"/><polygon points="1562.45 230.03 1591.17 311.74 1596.54 252.48 1755.58 126.33 1750.18 128.32 1562.45 230.03" style="fill:#9db2d9; fill-rule:evenodd;"/><polygon points="1591.17 311.74 1626.6 274.17 1596.54 252.48 1591.17 311.74" style="fill:#859ac6; fill-rule:evenodd;"/><path d="M1548.97,279.21c4.41-2.52,7.69,3.95,3.8,6.17-2.03,1.25-4.03,2.53-6.02,3.84-4.63,2.65-7.65-3.96-3.98-6.05,2.05-1.35,4.12-2.66,6.2-3.96h0Zm206.92,375.32c-1.15,4.57-8.2,2.89-7.02-1.8,.6-2.29,1.14-4.59,1.65-6.9,1.23-4.94,8.17-2.83,7.08,1.52-.53,2.41-1.08,4.8-1.71,7.19h0Zm4.75-29.28c0,4.32-7.23,4.87-7.23-.37,.13-2.35,.21-4.69,.21-7.04,0-4.81,7.25-4.77,7.25-.04,0,2.49-.09,4.97-.22,7.45h0Zm-1.82-29.73c.61,4.91-5.97,5.94-7.11,1.37-.43-2.28-.94-4.59-1.53-6.82-1.19-4.78,5.88-6.34,7-1.86,.64,2.39,1.19,4.88,1.64,7.31h0Zm-9.44-28.35c2.13,3.72-3.86,7.82-6.48,3.24-.96-1.96-2.12-4.36-3.29-6.19-2.42-4.23,3.95-7.71,6.26-3.66,1.25,2.05,2.45,4.44,3.51,6.61h0Zm-16.42-24.88c3.16,3.79-2.53,8.29-5.49,4.74-1.54-1.79-3.08-3.51-4.71-5.22-3.27-3.28,1.71-8.53,5.2-5.04,1.71,1.82,3.36,3.63,4.99,5.53h0Zm-21.53-20.41c3.93,3.28-1.02,8.58-4.43,5.74-1.84-1.44-3.77-2.87-5.69-4.21-3.95-2.82,.34-8.66,4.16-5.94,2.01,1.43,4.01,2.88,5.96,4.41h0Zm-24.83-16.04c4.37,2.5,.51,8.63-3.41,6.39-2.09-1.12-4.2-2.2-6.33-3.26-4.64-2.64-.47-8.6,3.19-6.5,2.2,1.1,4.38,2.21,6.55,3.37h0Zm-26.84-12.12c4.5,1.69,1.92,8.46-2.51,6.8l-6.73-2.4c-4.75-1.78-1.87-8.44,2.32-6.86,2.33,.79,4.62,1.62,6.93,2.47h0Zm-28.09-8.64c4.67,1.17,2.87,8.19-1.73,7.04l-6.95-1.61c-4.94-1.23-2.82-8.17,1.51-7.09l7.17,1.66h0Zm-28.87-5.43c4.69,.59,3.85,7.79-.94,7.19l-7.1-.85c-4.92-.61-3.8-7.78,.75-7.21,2.43,.26,4.86,.55,7.29,.86h0Zm-29.13-2.35c4.82,.6,4.38,7.23-.43,7.23-2.43-.14-4.87-.28-7.29-.47-5.17-.65-3.76-7.76,.55-7.22l7.17,.46h0Zm-28.6-2.59c4.67,.58,3.86,7.78-.95,7.18-2.42-.31-4.84-.66-7.25-1.02-4.5-.56-3.88-7.79,1.09-7.16,2.37,.35,4.73,.69,7.1,1h0Zm-28.1-5.08c4.62,1.15,2.88,8.19-1.77,7.02-2.38-.58-4.79-1.18-7.14-1.87-4.3-1.07-2.94-8.2,2.03-6.96,2.24,.67,4.6,1.24,6.88,1.8h0Zm-26.86-8.93c4.21,1.8,1.58,8.56-2.98,6.61-2.3-1.03-4.54-2.15-6.76-3.32-4.28-2.45-.53-8.65,3.49-6.36,1.92,1.1,4.23,2.16,6.25,3.06h0Zm-23.01-15.06c3.33,3.33-1.74,8.52-5.17,5.08-1.84-1.84-3.53-3.73-5.13-5.78-2.76-3.31,2.45-8.37,5.8-4.35,1.37,1.79,2.92,3.46,4.5,5.04h0Zm-12.9-23.14c1.06,4.25-5.84,6.46-7.1,1.44-.5-2.6-.83-5.08-.99-7.72,0-5.23,7.23-4.69,7.23-.37,.15,2.28,.42,4.4,.85,6.65h0Zm1.63-26.95c-1.08,4.35-8.2,2.93-6.97-1.99,.66-2.41,1.46-4.81,2.32-7.16,1.69-4.5,8.46-1.92,6.8,2.53-.79,2.17-1.54,4.39-2.15,6.62h0Zm11.25-25.65c-2.32,4.06-8.68,.58-6.26-3.65,1-1.99,2.66-4.41,3.88-6.33,2.11-3.69,8.71-.65,6.08,3.96-1.1,1.57-2.85,4.34-3.69,6.02h0Zm16.24-23.31c-3.14,3.77-8.6-.99-5.63-4.56,1.53-1.91,3.12-3.79,4.71-5.65,2.96-3.55,8.64,.94,5.49,4.74-1.55,1.8-3.08,3.62-4.56,5.48h0Zm19.19-21.16c-3.34,3.33-8.52-1.74-5.09-5.16,1.69-1.68,3.49-3.53,5.27-5.1,3.18-3.18,8.54,1.71,4.96,5.28-1.74,1.64-3.45,3.3-5.14,4.98h0Zm21.25-19.17c-3.59,2.99-8.33-2.5-4.57-5.62l5.72-4.58c3.43-2.85,8.36,2.47,4.44,5.73-1.86,1.36-3.79,3-5.59,4.48Z" style="fill:#859ac6; fill-rule:evenodd;"/><polygon points="979.1 35.17 763.69 123.48 822.84 199.02 979.1 35.17" style="fill:#c4d1eb; fill-rule:evenodd;"/><polygon points="733.3 87.88 972.52 35.65 674.72 57.41 733.3 87.88" style="fill:#c4d1eb; fill-rule:evenodd;"/><polygon points="733.3 87.88 738.89 187.05 763.69 123.48 979.1 35.17 972.52 35.65 733.3 87.88" style="fill:#9db2d9; fill-rule:evenodd;"/><polygon points="738.89 187.05 789.89 156.95 763.69 123.48 738.89 187.05" style="fill:#859ac6; fill-rule:evenodd;"/><path d="M683.51,179.71c7.01-.87,5.42-11.09-1.07-10.27l-10.31,1.12c-6.91,.86-5.44,11.1,1.16,10.27l10.22-1.11h0Zm-353.18,410.68c-4.59,0-6.85,5.61-3.74,8.73,.76,.92,2.31,1.61,3.74,1.61l6.67-.03c6.69,0,6.84-10.33-.1-10.33l-6.58,.03h0Zm37.32-.94c-6.1,0-6.96,10.32,.58,10.32l10.41-.65c7.4-.92,5.36-11.07-.77-10.31l-10.21,.64h0Zm40.64-3.86c-6.42,.8-5.53,11.1,1.55,10.22l-1.55-10.22h0Zm39.47-8.7c-6.18,2.32-3.71,11.56,3.23,9.82,3.39-1.09,6.72-2.27,10.04-3.57,6.3-2.7,2.55-11.99-3.84-9.6-3.09,1.23-6.26,2.33-9.43,3.35h0Zm35.05-17.64c-5.38,4.49,1.42,12.27,6.49,8.04,2.92-2.39,5.61-4.88,8.14-7.68,4.59-5.51-3.62-11.79-7.74-6.83-2.14,2.37-4.43,4.45-6.89,6.48h0Zm19.33-31.32c-.92,7.36,9.42,7.92,10.18,1.76,.67-3.69,1.07-7.26,1.21-11.01,0-7.12-10.33-6.75-10.33-.25-.09,3.22-.47,6.33-1.06,9.5h0Zm-2.77-38.63c1.57,6.29,11.69,4.17,9.96-2.74-.91-3.38-1.91-6.88-3.06-10.18-2.54-6.76-12.03-2.67-9.78,3.31,1.07,3.15,2.02,6.39,2.88,9.6h0Zm-14.24-37.85c2.54,5.96,12.2,2.25,9.38-4.31-1.45-3.15-2.94-6.34-4.48-9.45-3.78-6.62-12.26-.66-9.28,4.55,1.51,3.04,2.96,6.14,4.38,9.21h0Zm-18.43-36.65c3.57,6.26,12.3,.72,9.12-4.83l-4.84-9.14c-3.58-6.25-12.31-.72-9.13,4.85,1.65,2.96,3.26,6.1,4.85,9.12h0Zm-19.25-36.71c3.74,6.54,12.26,.67,9.24-4.61l-4.51-9.19c-3.53-6.18-11.95-1.67-9.33,4.45l4.6,9.36h0Zm-16.77-38.56c2.32,6.18,11.55,3.71,9.82-3.22-1.05-3.19-1.99-6.31-2.83-9.56-1.65-6.58-11.68-4.11-10.01,2.53,.89,3.48,1.91,6.84,3.02,10.25h0Zm-5.18-42.9c-.84,6.76,9.4,8.03,10.25,1.28,.37-3.19,.96-6.4,1.75-9.51,1.67-6.69-8.38-9.09-10.01-2.56-.89,3.56-1.57,7.15-1.99,10.79h0Zm15.89-40.46c-4.03,5.64,4.47,11.53,8.35,6.09,1.93-2.66,3.94-5.19,6.12-7.64,4.69-5.62-3.63-11.76-7.66-6.93-2.42,2.63-4.71,5.57-6.81,8.47h0Zm31.2-29.45c-5.34,3.81-.48,12.14,5.77,8.57,2.77-1.88,5.59-3.66,8.47-5.37,5.73-3.27,.82-12.37-5.27-8.89-3.05,1.81-6.03,3.7-8.97,5.69h0Zm37.34-19.82c-6.35,2.73-2.17,12.17,3.99,9.53,3.12-1.33,6.27-2.56,9.43-3.77,6.32-2.37,2.77-12.07-3.67-9.65-3.27,1.25-6.54,2.53-9.75,3.89h0Zm39.59-13.78c-6.2,1.55-4.18,11.69,2.83,9.94l9.85-2.72c6.45-1.61,4.14-11.69-2.62-9.99l-10.06,2.78h0Zm40.52-9.9c-7.14,1.78-4,11.63,2.07,10.12l10.06-2c6.58-1.64,5.02-11.01-1.93-10.15l-10.2,2.03h0Zm40.96-7.27c-6.43,.8-5.53,11.1,1.53,10.21l10.18-1.48c6.53-.81,5.53-11.11-1.44-10.23l-10.26,1.5Z" style="fill:#859ac6; fill-rule:evenodd;"/><path d="M1233.57,514.31s-12.81-9.09-27.84-2.72c-13.44,5.67-17.33,22.24-11.1,36.94,7.2,17.03,28.35,31.84,68.47,35.52,25.31-31.36,29.4-56.86,22.15-73.9-6.22-14.71-20.81-23.41-34.21-17.75-15.06,6.38-17.47,21.91-17.47,21.91Z" style="fill:#b0c2e4; fill-rule:evenodd;"/></svg>