<?xml version="1.0" encoding="UTF-8"?><svg id="a" xmlns="http://www.w3.org/2000/svg" viewBox="0 0 1944.22 1510.95"><path d="M1047.7,0c-218.32,0-310.3,170.01-467.91,302.17-208.61,174.92-417.19,61.05-450.59,652.06-29.73,526.01,341.21,56.95,864.22,245.37,523.01,188.42,1055.68,264.3,897.62-345.34C1732.98,244.62,1554.97,0,1047.7,0Z" style="fill:#e9eff8; fill-rule:evenodd;"/><path d="M1126,596.06h627.39c-4.51-19.06-21.63-33.24-42.06-33.24-.98,0-1.97,.04-2.95,.11-9.9-24.25-33.74-41.35-61.56-41.35-12.18,0-23.57,3.28-33.38,8.99-11.96-39.44-48.6-68.16-91.96-68.16-8.82,0-17.37,1.2-25.48,3.44-20.98-46.34-67.63-78.57-121.8-78.57-64.25,0-117.92,45.36-130.74,105.8-1.09-.04-2.16-.08-3.25-.08-41.16,0-75.13,30.78-80.15,70.57-16.79,3.15-30.17,15.99-34.07,32.5Z" style="fill:#fff; fill-rule:evenodd;"/><path d="M415.96,495.54h627.39c-4.5-19.06-21.62-33.24-42.06-33.24-.98,0-1.97,.04-2.94,.11-9.91-24.25-33.74-41.36-61.57-41.36-12.18,0-23.57,3.28-33.38,8.99-11.97-39.44-48.61-68.16-91.96-68.16-8.82,0-17.37,1.2-25.48,3.44-20.99-46.34-67.63-78.57-121.81-78.57-64.25,0-117.92,45.36-130.74,105.8-1.09-.04-2.16-.08-3.25-.08-41.16,0-75.13,30.78-80.15,70.57-16.79,3.15-30.17,15.99-34.07,32.5Z" style="fill:#fff; fill-rule:evenodd;"/><path d="M1920.25,421.03l-52.26-124.92,73.28-113.81c8.29-13.02-1.91-29.82-17.3-28.69l-134.89,11.24-85.7-104.82c-9.72-11.99-29.05-7.58-32.48,7.39l-31.16,131.9-126.19,49.05c-14.39,5.51-16.06,25.19-2.86,33.28l115.7,70.19,7.71,135.25c.88,15.41,19.08,23.09,30.75,13.02l102.58-88.3,130.99,34.47c14.85,3.9,27.88-11.01,21.84-25.27Z" style="fill:#eac5a8; fill-rule:evenodd;"/><path d="M1895.01,421.24l-133.52-35.14-104.62,90.05-7.86-137.9-118.01-71.59,108.07-42.01c29.18,74.24,105.47,127.2,195,127.2,10.54,0,20.89-.74,31.01-2.16l29.93,71.55Z" style="fill:#d1a383; fill-rule:evenodd;"/><path d="M995.18,1373.87c-500,0-905.34,30.69-905.34,68.54s405.33,68.55,905.34,68.55,905.34-30.69,905.34-68.55-405.33-68.54-905.34-68.54Z" style="fill:#d0d9ee; fill-rule:evenodd;"/><path d="M508.31,145.82s-46.03-44.72-110.72-28.41c-57.8,14.47-83.88,78.96-67.94,142.22,18.41,73.26,94.54,146.32,254.24,186.27,121.82-110.78,154.29-211.19,135.71-284.55-15.9-63.28-69.39-107.56-127.04-93.09-64.82,16.35-84.25,77.55-84.25,77.55Z" style="fill:#eac5a8; fill-rule:evenodd;"/><path d="M577.7,421.35c-55.98-14.97-114.72-37.88-160.18-73.57-30.51-23.95-56.68-55.28-66.32-93.57-8.02-31.87-3.71-70.67,17.75-94.79,47.59,113.19,171.03,179.14,296.76,156.23-24.54,40.53-57.77,77.21-88.01,105.71Z" style="fill:#d1a383; fill-rule:evenodd;"/><path d="M1368.03,204.32l-79.24,4.95s-105.98-66.25-111.19-92.48c-5.2-26.05,6.56-83.1-9.46-88.83-16.02-5.77-49.32-8.55-67.08,28.05-12.98,26.44,7.08,117.83-1.73,124.82-5.47,4.39-51.05,8.51-84.32,11.08-21.88,1.6-41.03,15.37-49.71,35.51h0c-5.86,13.68-1.34,29.56,10.68,38.07l19.01,13.37-12.46,19.54c-9.2,14.68-4.9,33.91,9.64,43.29l14.81,9.47-8.68,11.63c-11.2,14.98-6.81,36.34,9.38,45.81l13.07,7.77-1.56,3.48c-6.56,14.98-.69,32.34,13.59,40.2l13.11,7.25,211.22-13.5c19.8-1.22,39.16-6.56,56.79-15.5l73.51-17.11c7.85-1.73,13.19-9.08,12.55-17.24l-14.55-184.65c-.7-8.94-8.43-15.63-17.37-14.98Z" style="fill:#eac5a8; fill-rule:evenodd;"/><path d="M1045.5,217.17l-2.99,.26c-8.47,.76-16.94,1.44-25.42,2.08-11.6,.88-21.77,8.16-26.37,18.85-.67,1.55-.24,3.5,1.17,4.49l40.67,28.6-26.69,41.84c-1.11,1.73-.49,3.99,1.21,5.08l39.88,25.49-26.49,35.49c-1.4,1.88-.58,4.31,1.34,5.45l34.31,20.4-11.59,25.74c-.81,1.86-.16,3.89,1.62,4.87l6.03,3.33,203.15-12.99c16-1.03,31.73-5.3,46.03-12.56l2.99-1.51,67.23-15.65-7.03-89.26c-32.52,42.82-83.96,70.47-141.87,70.47-92.41,0-168.36-70.4-177.18-160.49Z" style="fill:#d1a383; fill-rule:evenodd;"/><path d="M1023.07,821.33c52.79-59.75,112.74-130.89,164.45-88.06,8.75,7.26,70.79,40.43,82.25,61.04,56.99,102.44,213.05-80.07,305.6-67.73,23.5,3.13,259.55,243.88,293.94,277.51,17.87,17.47,34.32,31.69,50.02,43.26,.32,396.41-466.52,317.74-925.9,152.24C470.41,1011.17,99.48,1480.24,129.2,954.23c.12-2.13,.24-4.26,.37-6.38,70.81-34.21,317.68-205.52,320.65-203.98,1.31,.69,57.37,70.99,121.61,97.54,268.13,110.83,203.62,176.08,395.01,36.21,17.14-12.53,36.16-33.59,56.22-56.29Z" style="fill:#bcc9e7; fill-rule:evenodd;"/><path d="M745.32,622.08c36.93-30.23,153.49,120.36,277.75,199.26-20.06,22.7-39.08,43.76-56.22,56.29-191.4,139.87-126.89,74.63-395.01-36.21-64.23-26.55-120.29-96.85-121.61-97.54-2.97-1.54-249.84,169.77-320.65,203.98,10.7-180.84,38.02-294.88,76.82-371.32,5.27-6.63,10.24-12.95,14.85-18.74,94.57-118.83,149.38-56.68,274.45-16.24,118.97,38.47,152.86,159.74,249.62,80.53Z" style="fill:#d0d9ee; fill-rule:evenodd;"/><path d="M376.27,933.92c13.15,37.04-2.11,59.91-45.77,68.65-85.73-173.76-131.15-379.77-146.06-530.17-6.89,5.8-13.71,11.71-20.47,17.75l-12.93-8.58,10.11,11.11c-7.16,6.44-14.23,13.01-21.24,19.72l-22.14-15.23,17.24,19.95c-5.79,5.63-11.53,11.35-17.22,17.15l-14.52-6.26,11.73,9.13c-8.91,9.18-17.69,18.58-26.33,28.21l-15.92-9.97,11.64,14.76c-8,9.02-15.88,18.23-23.65,27.64-10.27-44.45,1.41-79.49,35.03-105.1,18.58-14.15,43.85-25.42,75.81-33.82l.89-.8c-7.93-.18-15.88-.26-23.85-.23l-3.99-15,.2,15.02c-9.62,.07-19.28,.29-28.97,.66l-6.46-26.08-.34,26.36c-8.07,.36-16.16,.83-24.26,1.41l-6.71-14.33,2.72,14.62c-12.76,.95-25.56,2.16-38.42,3.63l-5.29-18.02-1.08,18.77c-11.97,1.44-23.98,3.1-36.03,4.99,21.81-40.07,53.79-58.53,95.95-55.38,20.78,1.56,44.04,8.36,69.77,20.43-1.26-1.16-2.52-2.32-3.79-3.48l7.21-13.74-10.02,11.19c-7.14-6.46-14.4-12.84-21.78-19.12l12.89-23.57-18.1,19.18c-6.19-5.19-12.46-10.32-18.81-15.38l4.75-15.09-7.89,12.6c-10.03-7.93-20.28-15.7-30.74-23.32l8.3-16.85-13.49,13.09c-9.79-7.04-19.76-13.94-29.9-20.71,43.17-14.75,79.21-6.7,108.12,24.15,10.78,11.5,20.56,26.17,29.35,44-2.95-16.54-3.84-31.97-2.68-46.3,3.67-45.11,27.73-79.25,72.17-102.42-3.89,12.89-7.55,25.73-10.97,38.53l-19.33,1.08,17.52,5.73c-3.6,13.75-6.92,27.43-9.98,41.08l-14.47-2.96,13.51,7.23c-1.9,8.67-3.71,17.32-5.4,25.94l-26.95,.27,25.55,7.01c-1.02,5.36-1.99,10.71-2.92,16.05,16.57-21.9,33.79-39.08,51.66-51.54,40.05-27.93,83.37-32.15,129.97-12.67-13.18,5.72-26.18,11.59-39,17.62l-12.72-14.62,5.91,17.84c-13.71,6.54-27.23,13.26-40.53,20.16l-6.36-13.52,2.2,15.69c-8.43,4.41-16.78,8.89-25.05,13.45l-16.7-21.24,9.1,23.43c46.53-14.18,88.95-4.91,127.26,27.8-14.3,1.41-28.47,3.03-42.52,4.84l-7.64-17.81,.16,18.8c-15.06,2.03-29.98,4.29-44.75,6.79l-1.93-14.82-2.7,15.61c-9.38,1.62-18.7,3.33-27.96,5.14l-9.4-25.33,1.6,26.88c-11.1,2.24-22.11,4.61-33.04,7.12l-4.91-14.53,.61,15.53-2.08,.49c39.91,1.93,73.06,9.08,99.46,21.43,44.25,20.71,69.52,56.05,75.81,106.03-11.55-8.54-23.13-16.85-34.77-24.93l6.37-18.28-12.58,13.99c-12.53-8.6-25.1-16.93-37.73-24.99l8.59-12.24-12.54,9.72c-8.04-5.09-16.1-10.08-24.18-14.95l10.15-25.02-16.98,20.93c-9.73-5.79-19.49-11.42-29.28-16.89l6.18-14.03-10.04,11.88c-14.6-8.1-29.27-15.84-44-23.24,32.86,213.79,87.1,371.9,162.73,474.29h0ZM206.17,415.55c.37-.56,.75-1.11,1.12-1.66l-7.18-.13,6.06,1.79h0Zm35.48-7.34c.75-.39,1.49-.78,2.24-1.16l-5.28-7.14,3.04,8.3Z" style="fill:#bcc9e7; fill-rule:evenodd;"/><path d="M755.81,675.43c-7.47,21.04,1.2,34.03,26,38.99,48.7-98.7,74.5-215.73,82.97-301.17,3.92,3.29,7.79,6.66,11.63,10.08l7.35-4.87-5.74,6.31c4.06,3.66,8.08,7.39,12.06,11.2l12.58-8.65-9.79,11.33c3.29,3.2,6.55,6.44,9.78,9.74l8.25-3.56-6.66,5.19c5.06,5.21,10.05,10.55,14.96,16.02l9.04-5.66-6.62,8.38c4.54,5.12,9.03,10.35,13.44,15.7,5.84-25.25-.79-45.15-19.9-59.7-10.55-8.04-24.91-14.44-43.07-19.22l-.51-.45c4.5-.1,9.03-.14,13.55-.13l2.26-8.52-.11,8.53c5.47,.04,10.95,.16,16.46,.38l3.67-14.82,.19,14.98c4.58,.21,9.18,.47,13.78,.8l3.81-8.14-1.54,8.3c7.24,.54,14.52,1.23,21.82,2.06l3.01-10.24,.61,10.66c6.8,.82,13.62,1.76,20.47,2.83-12.39-22.76-30.56-33.25-54.51-31.46-11.81,.88-25.02,4.75-39.64,11.6,.72-.66,1.43-1.32,2.15-1.97l-4.1-7.81,5.69,6.36c4.06-3.67,8.18-7.29,12.37-10.86l-7.32-13.39,10.28,10.9c3.52-2.95,7.08-5.86,10.69-8.74l-2.7-8.57,4.48,7.16c5.7-4.5,11.52-8.92,17.46-13.25l-4.72-9.58,7.67,7.44c5.56-4,11.22-7.92,16.99-11.77-24.53-8.38-45-3.8-61.42,13.72-6.12,6.53-11.68,14.87-16.68,25,1.68-9.4,2.18-18.16,1.52-26.3-2.09-25.62-15.75-45.02-41-58.18,2.21,7.32,4.29,14.61,6.23,21.88l10.98,.61-9.95,3.26c2.04,7.81,3.93,15.59,5.67,23.33l8.21-1.68-7.68,4.11c1.09,4.93,2.11,9.84,3.07,14.74l15.31,.15-14.51,3.98c.58,3.05,1.13,6.09,1.66,9.12-9.41-12.44-19.19-22.2-29.34-29.28-22.75-15.86-47.36-18.26-73.83-7.2,7.49,3.25,14.87,6.59,22.15,10.01l7.23-8.3-3.36,10.14c7.79,3.72,15.47,7.53,23.02,11.45l3.62-7.68-1.26,8.91c4.79,2.5,9.53,5.05,14.23,7.64l9.49-12.07-5.17,13.31c-26.43-8.05-50.53-2.79-72.29,15.8,8.12,.8,16.17,1.72,24.15,2.75l4.34-10.12-.09,10.68c8.56,1.16,17.03,2.44,25.42,3.86l1.09-8.42,1.53,8.87c5.33,.92,10.62,1.89,15.88,2.92l5.34-14.39-.91,15.27c6.31,1.27,12.56,2.62,18.77,4.05l2.79-8.26-.35,8.82,1.18,.28c-22.67,1.1-41.51,5.15-56.5,12.17-25.14,11.76-39.49,31.84-43.06,60.23,6.56-4.85,13.14-9.58,19.75-14.16l-3.62-10.38,7.14,7.95c7.11-4.89,14.26-9.62,21.43-14.2l-4.88-6.95,7.13,5.52c4.57-2.89,9.15-5.72,13.74-8.49l-5.77-14.21,9.64,11.89c5.53-3.29,11.07-6.49,16.64-9.6l-3.51-7.97,5.7,6.75c8.3-4.6,16.63-9,25-13.2-18.67,121.45-49.48,211.26-92.44,269.43h0Zm96.63-294.47c-.21-.32-.43-.63-.64-.94l4.08-.07-3.44,1.01h0Zm-20.16-4.16c-.43-.23-.85-.45-1.28-.66l3-4.05-1.72,4.72Z" style="fill:#d0d9ee; fill-rule:evenodd;"/><path d="M1639.69,635.25s9.58-11.58,17.09-16.78c7.5-5.27,19.32-21.83,20.45-43.18,1.13-21.43-13.46-32.52-21.81-36.5-8.33-4.04-41.31-9.81-53.29-6.37-12,3.43-13.83,46.37-13.83,46.37l11.78,35.46,39.62,21.01Z" style="fill:#0f3970; fill-rule:evenodd;"/><path d="M1553.49,1225.62l-.18,26.15-28.01-10.25s-15.56-24.28-35.77-56.7c12.79-5.56,26.08-10.28,39.41-15.12,13.81,32.64,24.55,55.93,24.55,55.93Z" style="fill:#f5b58b; fill-rule:evenodd;"/><path d="M1523.55,1239.82s14.08-4.02,17.49-7.21c3.43-3.17,5.43-11.01,11.01-10.77,5.57,.24,25.45,18.54,27.08,24.21,1.72,5.95,1.39,13.82-2.1,16.98-3.47,3.23-65.08,42.78-77.6,46.73-12.49,3.96-23.22-5.19-14.62-17.29,8.59-12.11,30.51-52.96,38.75-52.65Z" style="fill:#142d4d; fill-rule:evenodd;"/><path d="M1633.85,902.83s-245.9,32.58-249.9,63.48c-9.34,72.26,127.17,262.13,127.17,262.13l38.39-16.76-68.89-199.46s109.84-10.85,119.65-17.71c9.84-6.84,33.57-91.68,33.57-91.68Z" style="fill:#0f3970; fill-rule:evenodd;"/><path d="M1727.15,1380.93l-4.49,25.78-25.93-14.73s-11.37-26.51-25.95-61.87c13.55-3.34,27.42-5.84,41.38-8.4,8.26,34.46,14.99,59.23,14.99,59.23Z" style="fill:#f5b58b; fill-rule:evenodd;"/><path d="M1695.26,1390.02s14.58-1.67,18.47-4.21c3.89-2.55,7.19-9.96,12.62-8.81,5.45,1.13,22.05,22.46,22.7,28.26,.72,6.17-.91,13.88-4.87,16.46-3.98,2.61-84.68,35-97.68,36.85-13,1.85-14.93-11.55-4.45-22.04,10.45-10.55,45.15-48.22,53.21-46.51Z" style="fill:#142d4d; fill-rule:evenodd;"/><path d="M1589.34,926.42l23.17-30.29s70.77,10.62,79.93,42.55c9.17,31.92-5.61,233.5-5.61,233.5,0,0,27.52,138.04,39.51,188.13-13.96,2.56-33.46,6.55-47.03,9.91-25.23-61.2-77.16-194.4-77.16-194.4l-22.43-183.5,9.62-65.91Z" style="fill:#0f3d86; fill-rule:evenodd;"/><path d="M1497.5,433.96c-4.94,15.72-7.29,14.26-7.86,16.3-.68,2.36,8.73,34.56,8.73,34.56,0,0,27.16,94.91,28.82,100.03l64.63,77.85-28.23,43.86s-68.13-86.61-70.92-91.79c-2.81-5.12-25.05-137.87-27.38-149.51,0,0-7.73-12.82-12.33-21.02-4.59-8.2-5.4-18.12-6.36-20.64-.14-.37-2.83-8.91-3.43-20.39-.5-9.87,4.37-.73,4.37-.73,0,0,4.12,18.1,5.44,17.58,1.01-.44-1.79-10.24-2.47-21.18-.18-2.79-.33-5.57-.46-8.07-.33-6.67,3.55-8.81,4.99-1.86,.51,2.43,1.23,6.56,1.38,9.55,.15,3.19,1.26,6.15,1.8,8.86,1.04,5.35,1.71,9.26,1.92,9.09,.25-.23,1.16,.69,1.08-2.29-.12-3.6-1.98-11.17-1.76-16.44,.14-3.01,.03-9.3,.03-9.3,0,0,1.58-9.5,2.15-9.61,3.1-.48,3.81,6.33,3.1,10.41,.85,2.84,.77,9.44,.77,9.44,0,0,2.76,13.38,4.6,13.02,.79-.14,.06-8.6,.6-16.98,.51-7.77,2.25-15.52,3.76-15.66,2.56-.23,2.89,8.51,2.89,8.51,0,0-.08,6.12,.04,8.14,.15,2.37,1.11,9.5,1.11,9.5,0,0,4.46,24.57,6.19,24.05,1.72-.52,5.63-3.61,5.86-5.22,.25-1.61-.83-4.83-.61-6.45,.25-1.61,1.91-3.52,3.85-3.38,1.95,.14,3.73,8.45,3.73,8.45,0,0,1.4,6.73-.03,11.29Z" style="fill:#f5b58b; fill-rule:evenodd;"/><path d="M1558.8,618.35c3.13-.2,74.63,63.25,72.19,82.51-2.41,19.27-35.36,44.65-56.14,28.32-20.77-16.39-58.83-74.13-58.83-74.13,0,0,32.69-36.1,42.78-36.71Z" style="fill:#6998d0; fill-rule:evenodd;"/><path d="M1590.89,668.54c-.88,.6-30.03,42.64-31.93,76.2-3.46,61.39,9.61,164.87,20.06,170.18,83.65,42.46,119.58,28.37,119.58,28.37,0,0-2.41-188.65-15.24-233.6-5.35-18.66-13.01-35.2-32-41.7-4.32-1.53-40.21-13.54-60.47,.54Z" style="fill:#6998d0; fill-rule:evenodd;"/><path d="M1601.04,634.66l-10.38,35.35s-2.71,9.92,1.6,14.76c7.39,8.42,45.79-20.39,45.79-20.39l6.64-57.37-43.65,27.66Z" style="fill:#f5b58b; fill-rule:evenodd;"/><path d="M1642.69,624.28c-12.09,21.61-35.28,28.89-46.97,28.52l5.32-18.13,43.65-27.66-1.99,17.28Z" style="fill:#ec724c; fill-rule:evenodd;"/><path d="M1637.26,546.69c-15.58-9.75-36.23-2.63-42.83,14.24-2.88,7.27-6.1,16.61-8.69,26.96-6.24,25,1.11,52.42,12.49,55.01,11.37,2.66,46.61-6.33,55.96-41.65,5.78-21.84-.58-44.34-16.93-54.57Z" style="fill:#f5b58b; fill-rule:evenodd;"/><path d="M1645.16,602.13c-1.29,5.55,1.36,10.85,5.87,11.94,4.53,1.02,9.23-2.62,10.52-8.18,1.26-5.49-1.36-10.85-5.89-11.87-4.5-1.08-9.21,2.55-10.5,8.11Z" style="fill:#f5b58b; fill-rule:evenodd;"/><path d="M1655.66,594.02s4.66-11.57,5.63-23.38c.94-11.75-5.74-29.76-17.08-34.27-11.32-4.51-39.56-4.95-41.79-13.06-2.21-8.11-2.34-7.38-3.35-8.73-2.29-3.17-20.72,4.9-23.47,24.67-2.78,19.76,14.66,22.19,17.91,23.32,3.26,1.2,36.22-6.26,45.45-3.99,9.25,2.21,16.7,35.44,16.7,35.44Z" style="fill:#0f3970; fill-rule:evenodd;"/><path d="M1810.86,465.25c1.79,16.38,4.38,15.41,4.54,17.51,.21,2.45-15.29,32.21-15.29,32.21,0,0-45.09,87.83-47.7,92.52l-78.54,63.81,19.17,48.51s83.66-71.72,87.4-76.26c3.75-4.47,51.36-130.37,55.91-141.34,0,0,10.08-11.07,16.18-18.22,6.1-7.15,8.83-16.73,10.24-19.01,.22-.34,4.52-8.19,7.33-19.33,2.41-9.59-4.14-1.57-4.14-1.57,0,0-7.56,16.95-8.75,16.19-.91-.63,3.75-9.7,6.53-20.3,.71-2.7,1.41-5.4,2.02-7.83,1.62-6.48-1.78-9.33-4.53-2.8-.98,2.29-2.49,6.19-3.21,9.1-.76,3.1-2.45,5.79-3.49,8.35-2.06,5.05-3.48,8.75-3.65,8.55-.21-.27-1.28,.45-.62-2.45,.82-3.51,4.11-10.57,4.92-15.78,.45-2.98,1.78-9.12,1.78-9.12,0,0,.3-9.63-.24-9.84-2.95-1.07-4.97,5.47-5.06,9.61-1.38,2.62-2.59,9.11-2.59,9.11,0,0-5.3,12.58-7.04,11.87-.75-.29,1.62-8.45,2.71-16.77,1.02-7.71,.81-15.65-.64-16.09-2.47-.72-4.49,7.78-4.49,7.78,0,0-1.11,6.02-1.62,7.97-.61,2.3-2.93,9.11-2.93,9.11,0,0-9.15,23.23-10.74,22.39-1.6-.84-4.82-4.63-4.73-6.26,.07-1.63,1.75-4.58,1.85-6.21,.07-1.63-1.19-3.82-3.12-4.06-1.93-.24-5.3,7.57-5.3,7.57,0,0-2.68,6.33-2.16,11.09Z" style="fill:#f5b58b; fill-rule:evenodd;"/><path d="M1714.89,634.2c-3.03-.8-32.39,35.02-75.08,39.01-1.39,19.37,9.19,119.21,32.75,107.22,15.41-37.79,77.17-101.91,77.17-101.91,0,0-25.06-41.77-34.84-44.32Z" style="fill:#6998d0; fill-rule:evenodd;"/><path d="M431.91,1276.83s-38.59,27.85-44.66,36.11c-8.74,11.97,65.35,34.3,57.27,20.31-1.85-3.19-7.19-14.07-7.43-15.08-1.22-5.73,14.48-21.04,14.48-21.04l-19.66-20.3Z" style="fill:#f4ae7c; fill-rule:evenodd;"/><path d="M464.55,1356.67l-26.2-37.05s-16.33-3.78-33.14-22.7c0,0-15.08,5.73-24.37,18.27,0,0,17.55,18.85,44.57,40.17,0,0,16.02,14.15,38.14,21.68,22.15,7.47,1-20.38,1-20.38Z" style="fill:#142d4d; fill-rule:evenodd;"/><path d="M109.49,769.9s4.75,4.2,6.42,5.51c1.97,1.45,8.2,5.5,8.2,5.5,0,0,22.52,12.77,23.27,11.1,.76-1.67,.74-6.53-.38-7.83-1.12-1.24-4.35-2.61-5.47-3.85-1.12-1.31-1.49-3.85-.06-5.29,1.43-1.45,9.12,2.75,9.12,2.75,0,0,6.23,3.48,8.84,7.69,9.04,14.43,6.3,15.3,7.5,17.12,1.43,2.17,33,16.53,33,16.53,0,0,94.43,39.24,99.52,41.41h.07c.69,4.35-1.66,8.34-2.86,12.25-2.26,13.49-6.27,14.36-9.33,27.34-14.48-7.33-114.73-62.51-124.93-68.32,0,0-15.27-2.61-24.79-4.49-9.55-1.96-17.85-8.05-20.46-9-.4-.15-8.93-3.77-18.32-11.09-8.08-6.23,2.36-3.92,2.36-3.92,0,0,16.99,9.07,17.44,7.61,.33-1.09-9.22-5.51-18.24-12.33-2.32-1.74-4.6-3.48-6.69-5.15-5.47-4.2-4.51-8.7,1.89-5.14,2.28,1.31,5.98,3.48,8.42,5.37,2.63,2.1,5.69,3.19,8.17,4.56,4.91,2.83,8.46,4.94,8.46,4.71,0-.36,1.34-.51-1.08-2.46-2.87-2.32-10.08-5.95-14.07-9.72-2.28-2.1-7.28-6.31-7.28-6.31,0,0-6.41-7.61-6.1-8.12,1.7-2.76,7.52,1.3,10.22,4.56,2.79,1.23,7.92,5.81,7.92,5.81,0,0,12.39,6.89,13.34,5.15,.41-.73-6.72-5.81-12.92-11.9-5.78-5.66-10.71-12.25-9.8-13.56,1.56-2.1,8.62,3.48,8.62,3.48Z" style="fill:#f4ae7c; fill-rule:evenodd;"/><path d="M573.31,445.15s1.28,5.95,1.57,7.98c.31,2.39,.71,9.64,.71,9.64,0,0-.17,25.31-2.05,25.24-1.88-.08-6.16-2.25-6.72-3.77-.56-1.52-.06-5-.62-6.53-.56-1.52-2.65-2.97-4.64-2.39-1.99,.65-2.19,9.21-2.19,9.21,0,0-.13,6.96,2.23,11.1,8.19,14.29,10.33,12.33,11.31,14.14,1.18,2.25-2.25,36.19-2.25,36.19,0,0-13.48,99.86-14.17,105.23l-.05,.07c3.5,2.54,8.26,2.25,12.27,2.9,13.04,3.99,15.88,.87,28.91,3.99,.91-15.95,3.27-127.93,3.39-139.39,0,0,5.46-14.5,8.61-23.71,3.15-9.21,2.06-19.14,2.55-21.83,.07-.44,1.18-9.5-.46-20.89-1.41-9.86-4.64,.29-4.64,.29,0,0-.72,18.85-2.19,18.64-1.16-.22-.16-10.52-1.61-21.39-.35-2.83-.73-5.59-1.09-8.12-.99-6.67-5.41-7.83-5.51-.65-.05,2.54-.03,6.74,.44,9.72,.47,3.26-.14,6.38-.14,9.21-.02,5.51,.05,9.5-.2,9.43-.29-.14-1.07,.94-1.56-1.96-.59-3.62-.14-11.53-1.41-16.68-.71-2.9-1.85-9.14-1.85-9.14,0,0-3.5-8.99-4.1-8.92-3.28,.29-2.68,7.18-1.18,10.95-.31,2.98,1.07,9.5,1.07,9.5,0,0-.2,13.85-2.18,14-.85,0-1.74-8.48-3.95-16.61-2.05-7.54-5.38-14.8-6.96-14.51-2.68,.36-1.32,9.06-1.32,9.06Z" style="fill:#f4ae7c; fill-rule:evenodd;"/><path d="M372.9,990.95l6.09,30.17,153.42,139.53-109.8,111.17,29.63,30.24s162.19-119.08,168.03-134.67c9.02-24.01-116.25-183.19-116.25-183.19l-131.12,6.74Z" style="fill:#142d4d; fill-rule:evenodd;"/><path d="M265.39,1357.11s-38.58,27.85-44.65,36.11c-8.75,11.96,65.34,34.3,57.26,20.3-1.85-3.19-7.19-13.99-7.43-15.08-1.23-5.73,14.49-21.03,14.49-21.03l-19.67-20.3Z" style="fill:#f4ae7c; fill-rule:evenodd;"/><path d="M298.09,1437.1l-26.2-37.06s-17.41-3.12-34.19-21.97c0,0-14.04,5.07-23.32,17.55,0,0,17.54,18.93,44.54,40.18,0,0,16.03,14.21,38.16,21.68,22.14,7.47,1.01-20.38,1.01-20.38Z" style="fill:#142d4d; fill-rule:evenodd;"/><path d="M378.14,1004.94l6.89,190.45-129.7,159.04,30.4,27.99s150.6-129.23,167.11-165.2c10.26-22.41,44.77-224.16,44.77-224.16l-119.46,11.89Z" style="fill:#0f3970; fill-rule:evenodd;"/><path d="M501.9,989.35c-12.48-28.21-11.05-230.03-59.61-277.32-17.07,2.83-29.26,4.5-32.11,5.22-2.52,20.81-5.32,97.11-7.03,167.02-1.14,46.63,.04,95.5-5.7,121.25-3.57,15.96,115.83,9.5,104.45-16.18Z" style="fill:#fff; fill-rule:evenodd;"/><path d="M370.45,727.69c-13.64,3.05-23.66,9.43-41.51,35.83-17.11,25.31-55.1,81.08-55.1,81.08l-100.05-44.45-4.66,50.69s113.17,58.82,129.13,53.52c15.98-5.3,56.77-63.82,60.1-68.25,.76-1.02-2.86,70.7-2.86,82.09s-18.52,102.55-18.52,102.55c0,0,55.03,13.56,65.79-11.1,32.94-75.42,7.65-292.48,7.65-292.48,0,0-30.15,8.27-39.97,10.52Z" style="fill:#406fb5; fill-rule:evenodd;"/><path d="M453.55,723.78s22.31,59.68,38.55,51.64c16.22-8.12,104.73-104.58,105.65-109.08,.89-4.5,7.21-118.5,7.21-118.5l-36.04-7.25-24.17,92.54s-63.25,64.62-76.77,70.93c-13.52,6.31-14.42,19.72-14.42,19.72Z" style="fill:#406fb5; fill-rule:evenodd;"/><path d="M506.75,1002.84c10.92,0,14.96-1.52,22.22-3.7,0,0-20.78-117.12-32.85-233.3-4.78-45.9-9.22-64.69-28.15-61.35-5.47,.94-20.28,6.6-25.66,7.54,47.56,134.53,47.72,238.16,54.46,268.18,3.37,15.09,6.31,22.7,9.99,22.63Z" style="fill:#406fb5; fill-rule:evenodd;"/><path d="M437.29,691.65l4.98,20.38s1.14,17.69-7.08,19.29c-9.91,1.88-24.64-12.91-24.64-12.91l-8.53-57.37,35.26,30.6Z" style="fill:#f3a992; fill-rule:evenodd;"/><path d="M437.29,691.65l4.98,20.38s1.14,17.69-7.08,19.29c-9.91,1.88-24.64-12.91-24.64-12.91l-8.53-57.37,35.26,30.6Z" style="fill:#f4ae7c; fill-rule:evenodd;"/><path d="M402.09,661.27l35.19,30.38,3.71,15.23c-13.44-3.26-32.61-18.06-38.9-45.62Z" style="fill:#ec724c; fill-rule:evenodd;"/><path d="M437.4,608.54c8.51,0,16.16,5.87,19.15,14.36,2.47,7.04,5.67,17.48,7.67,29.45,3.73,22.04-8.84,42.21-19.75,43.87-10.94,1.6-36.97-5.66-42.72-36.91-2.48-13.35-5.72-30.97,5.29-40.18,8.57-7.18,20.58-10.59,30.35-10.59Z" style="fill:#f4ae7c; fill-rule:evenodd;"/><path d="M405.3,683.17s-38.52-34.38-40.19-61.21c-1.7-26.76,23.07-41.12,44.26-41.92,9.57-.29,16.05,.14,25.91,1.38,21.22,2.68,34.97,12.04,30.12,29.44-6.49,23.35-50.53,3.62-59.52,10.88-7.43,6.02,4.6,20.38-2.61,25.82-6.79,5.22-3.33,3.48-1.09,13.27,2.25,9.79,3.12,22.34,3.12,22.34Z" style="fill:#0f3970; fill-rule:evenodd;"/><path d="M390.44,652.05c.96,6.39,4.89,11.17,8.8,10.59,3.88-.58,6.27-6.24,5.31-12.69-.96-6.46-4.89-11.17-8.77-10.59-3.91,.58-6.27,6.24-5.34,12.69Z" style="fill:#f4ae7c; fill-rule:evenodd;"/><path d="M1094.9,682.47c-2.9-19.37-5.91-38.79-23.78-54.49-14.46-12.66-32.46-16.27-50.02-11.85-49.72,12.53-37.68,56.59-75.73,92.52-16.27,15.31-36.95,20.59-50.26,37.47-24.07,30.42-20.72,88.78,18.45,129.37,95.95,99.42,185.51-23.86,191.91-53.1,4.77-21.73-8.7-127.43-10.57-139.91Z" style="fill:#0f3970; fill-rule:evenodd;"/><path d="M1112.67,1313.66c-3.3,25.66-9.9,48.46-10.81,51.19-.46,1.28-5.04,6.17-5.54,7.44,4.06,30.84,23.83,48.16,42.18,60.23-4.59-15.38-14.01-32.82-13.07-36.36,1.51-5.6,7.16-31.27,20.25-63.82-14.84-.89-20.56-9.94-33.01-18.69Z" style="fill:#f4ae7c; fill-rule:evenodd;"/><path d="M1068.94,938.41l-96.84,67s42.58,48.8,58.56,66.96c15.97,18.14,98.19,85.39,99.39,89.45,.26,.78-5,9.67-7.27,21.11-6.19,30.91-15.06,91.26-20.25,143.14,9.04,11.03,30.13,15.08,42.58,19.29,36.1-61.51,56.65-183.34,57.65-198.13,1.55-24.01-133.81-208.81-133.81-208.81Z" style="fill:#142d4d; fill-rule:evenodd;"/><path d="M790.6,1079.1c3.4,2.49,28.86,39.63,39.42,60.07,10.02-9.03,15.49-18.76,27.14-25.58-11.77-13.14-35.7-45.51-38.44-53.71-6.49-19.35-11.25-21.55-11.25-21.55,0,0-60.96,32.76-64.36,39.84-3.38,7,33.8-9.45,47.49,.93Z" style="fill:#f4ae7c; fill-rule:evenodd;"/><path d="M820.09,1064.21c4.97-.75-3.7-23.39-5.63-28.57-2.12-5.88-5.74-7.2-6.62-7.3-2.36-.16-70.13,36.3-80.87,47.2-.75,.74-1.94,2.92-2.1,3.38-4.81,13.92,54.31,7.05,61.98,.04,6.81-6.13,10.85-11.21,33.25-14.75Z" style="fill:#142d4d; fill-rule:evenodd;"/><path d="M1087.2,961.25l-78.12-39.23c.3,.22-.71,3.42-.78,3.65-9.57,30.12-49,15.71-69.1,67.89-14.16,36.79-17.31,163.85-17.31,163.85,0,0-35.51-30.31-72.77-62.53-3.42-2.9-34.02,26.35-34.02,26.35,46.93,94.06,127.37,135.06,138.22,131.64,36.99-11.47,108.56-248.88,108.48-248.89,8-13.91,25.4-42.73,25.4-42.73Z" style="fill:#0f3970; fill-rule:evenodd;"/><path d="M971.93,748.26s-97.32-27.24-119.08-31.99c-21.76-4.67-96.63-35.04-99.49-36.28-2.88-1.33-11.82-42.26-16.26-39.54-4.43,2.73,5.64,20.71,.16,22.82-5.5,2.18-50.37-20.26-50.87-16.39-.94,7.19,26.92,14.83,25.89,18.1-1.05,3.27-28.32-10.74-31.97-5.9-3.64,4.92,27.08,10.8,27.49,13.65,.45,2.77-29.68-1.62-28.32,4.42,.75,3.24,26.9,3.23,25.64,6.94-1.27,3.71-21.35,6.93-20.16,10.66,1.22,3.66,16.51-5.01,26.69-2.09,10.15,2.91,19.09-.34,33.79,9.28,14.72,9.62,62.58,49.71,97.52,58.57,34.93,8.94,112.11,28.76,112.11,28.76l16.87-41.02Z" style="fill:#f4ae7c; fill-rule:evenodd;"/><path d="M1086.6,746.26s44.49-90.83,55.43-110.13c10.98-19.37,38.14-95.47,39.09-98.52,.96-2.96-23.6-36.92-18.63-38.41,4.99-1.48,11.66,17.99,16.92,15.35,5.27-2.64,18.4-51.08,21.6-48.88,5.99,4.08-6.86,29.96-3.71,31.34,3.16,1.38,10.83-28.24,16.9-27.71,6.06,.52-10,27.36-8.17,29.52,1.8,2.24,18.61-23.23,22.16-18.19,1.95,2.75-15.49,22.25-11.86,23.73,3.64,1.57,19.39-11.22,21.33-7.9,1.93,3.32-14.73,8.95-19.29,18.54-4.54,9.52-12.94,14.02-15.57,31.39-2.63,17.38-4.55,79.73-21.17,111.72-16.62,32.07-53.16,102.82-53.16,102.82l-41.88-14.68Z" style="fill:#f4ae7c; fill-rule:evenodd;"/><path d="M1107.94,860.79c2.52-17.31,7.91-63.95,7.54-69.79,6.22-17.76,26.34-43.27,30.68-50.64,0,0-22.94-31.11-41.44-32.03,0,0-21.32,24.6-36.42,31.61-.2-.12-5.33,1.98-7.48,1.77-14.08-.97-63.13-5.8-72.51-3.53l-.02,79.7c2.33,4.78-.44,96.23,4.5,104.15,4.94,7.84,81.84,47.22,95.53,39.27,.54-.29,14.53-65.58,19.6-100.53Z" style="fill:#6998d0; fill-rule:evenodd;"/><path d="M1013.31,741.11c-2.12-1.33-7.24-2.88-14.78-3.47-22.28-1.86-59.77-5.26-59.77-5.26,0,0-12.3,47.15-5.66,59.15,0,0,58.08,12.94,56.08,17.87l24.12-68.29Z" style="fill:#6998d0; fill-rule:evenodd;"/><path d="M1030.66,710.41s3.28,27.84,1.56,38.68c-1.75,10.83,.85,46.16,22.86,47.72,21.98,1.55,7.11-44.26,5.74-55.08-1.39-10.75,.28-43.73,.28-43.73l-30.45,12.42Z" style="fill:#f4ae7c; fill-rule:evenodd;"/><path d="M1060.5,714.49c.22-9.03,.6-16.5,.6-16.5l-30.45,12.42s.67,5.65,1.26,12.91c12.73,3.61,22.42-.78,28.58-8.83Z" style="fill:#ec724c; fill-rule:evenodd;"/><path d="M1024.87,633.64s-11.8,5.91-16.9,19.93c-5.09,13.95-2.77,51.16,26.01,61.99,28.78,10.83,43.44-17.51,38.88-40.75-4.54-23.24-15.82-52.98-47.99-41.17Z" style="fill:#f4ae7c; fill-rule:evenodd;"/><path d="M1077.1,666.2c-.96,6.05-4.52,10.58-7.9,9.96-3.4-.55-5.34-5.97-4.39-12.02,.99-6.12,4.54-10.57,7.94-10.03,3.38,.54,5.35,5.98,4.35,12.09Z" style="fill:#f4ae7c; fill-rule:evenodd;"/><path d="M1101.65,1365.62c-2.07-4.81-20.09,11.81-24.36,15.22-4.82,3.87-5.01,7.88-4.83,8.73,.45,2.36,51.07,61.03,65.45,68.63,1.34,.76,4.13,.61,4.91,.29,7.61-3.61-7.4-53.11-18.04-62.44-6.9-5.97-13.73-9.01-23.14-30.42Z" style="fill:#142d4d; fill-rule:evenodd;"/><path d="M1028.45,632.03s-8.04,40.82-21.26,47.4c-13.22,6.58-9.08,25.12-9.08,25.12,0,0-8.76-43.09,2.2-56.06,10.95-12.89,28.14-16.46,28.14-16.46Z" style="fill:#0f3970; fill-rule:evenodd;"/><path d="M1014.35,685.79c3.08,5.59,2.67,11.91-.96,14.15-3.62,2.17-9.08-.59-12.17-6.17-3.1-5.59-2.67-11.9,.95-14.07,3.62-2.17,9.08,.5,12.18,6.09Z" style="fill:#f4ae7c; fill-rule:evenodd;"/></svg>