<?xml version="1.0" encoding="UTF-8"?><svg id="a" xmlns="http://www.w3.org/2000/svg" viewBox="0 0 1527.4 1421.97"><path d="M774.02,55.54c-178.9,0-158.45,315.92-287.57,412.22C315.51,595.2,21.45,532.11,21.45,750.83c0,384,381.42,523.15,797.01,523.15s770.32-213,646.59-595.98C1341.26,295.02,1189.67,55.54,774.02,55.54Z" style="fill:#e0e8f5; fill-rule:evenodd;"/><path d="M1248.2,449.61c23.32,22.04,33.92,48.46,31.77,79.22-55.17,37.59-83.75,72.83-85.65,105.64,64.9-57.74,113.63-57.61,135.55-22.14-16.16,19.59-27.49,87.21-23.57,118.35,6.92,54.98-8.08,104.33-49.59,122.81-9.55,21.37-19.53,32.63-30.06,33.79,10.1,61.59,18.55,124.04,25.41,187.54-6.98,3.61-17.02,3.24-22.41-.43-2.14-24.67-3.67-42.12-5.26-53.81-4.29-46.1-9.12-90.55-14.39-133.59-2.57-.31-5.14-.74-7.65-1.29-48.55-10.17-30-40.53-74.45-49.59-27.31-5.63-52.23-28.77-58.41-49.41,28.47-9,64.35-18.55,100.71-11.69-18.92-26.58-57.31-24.62-109.34-18.19-19.65-38.24-47.63-34.71-36.55-94.56,15.43-83.38-39.12-106.5-20.76-206.87,26.82-10.13,62.33-8.97,106.54,3.55-18.74-27.7-54.31-39.18-106.72-34.41,10.9-29.39,10.78-67.41,5.58-83.63,19.47-14.05,39.18-13.99,59.02,.25-8.88-15.27-20.39-23.97-34.53-26.14,.74-13.07,6.3-27.67,16.9-43.84,17.39,.43,36.73,4.32,57.92,11.6-9.67,6.37-12.8,17.81-9.37,34.38,11.64-13.68,28.78-18.25,51.49-13.68,4.84,59.6,57.61,83.78,58.53,109.44-31.1,27.4-49.34,57.24-54.67,89.6,31.72-27.15,63-44.78,93.98-52.9Z" style="fill:#b0c2e4; fill-rule:evenodd;"/><path d="M1252.05,1074.83c-6.86-63.49-15.31-125.94-25.41-187.54-35.82-232.62-98.51-472.86-153-573.39,72.73,171.46,123,407.02,150.74,706.68,1.59,11.69,3.12,29.14,5.26,53.81,5.39,3.67,15.43,4.04,22.41,.43Z" style="fill:#9db2d9; fill-rule:evenodd;"/><path d="M1159.79,299.58c-22.53,28.77-30,60.28-22.35,94.56,68.57,32.97,106.71,67.75,114.43,104.39-82.9-53.97-137.76-45.52-156.43-1.87,21.61,19.31,45.86,93.55,46.72,129.25,1.59,63.09,26.81,116.05,76.77,129.88,14.33,22.41,27.55,33.37,39.55,32.94-.86,71.02,.25,142.84,3.24,215.45,8.51,2.87,19.78,.73,25.17-4.28-1.78-28.23-2.94-48.06-3.13-61.53-3.06-52.53-5.26-103.53-6.55-152.88,2.82-.8,5.63-1.65,8.39-2.76,52.96-19.71,26.81-50.66,75.37-68.51,29.81-10.96,53.88-41.17,57.37-65.48-33.61-5.3-75.61-9.98-115.41,3.86,16.78-33.09,60.31-37.38,120.06-39,15.61-46.38,47.69-47.2,25.04-112.68-31.59-91.25,25.89-126.58-11.82-236.45-31.96-6.89-71.69,.49-119.33,22.13,16.41-34.41,54.49-53.39,114.3-56.94-17.26-31.22-23.63-74.05-20.57-93.18-24.3-12.52-46.41-9.09-66.42,10.29,7.47-18.67,18.92-30.46,34.53-35.29-3.06-14.6-11.88-30.09-26.45-46.47-19.59,3.43-40.72,11.08-63.31,22.93,11.94,5.51,17.39,17.88,16.41,37.1-15.43-13.44-35.51-15.64-60.37-6.67,4.77,67.93-50.57,104.11-47.21,133.16,39.67,25.56,65.27,56.11,76.78,91.62-40.29-25.22-78.55-39.74-114.79-43.56Z" style="fill:#c4d1eb; fill-rule:evenodd;"/><path d="M1261.72,1004.18c-3-72.61-4.1-144.43-3.24-215.45,.79-268.04,30.42-549.21,74.75-671.69-52.77,205.44-69.24,479.2-49.47,821.32,.19,13.47,1.35,33.3,3.13,61.53-5.39,5.02-16.65,7.16-25.17,4.28Z" style="fill:#b0c2e4; fill-rule:evenodd;"/><path d="M1231.3,1046.85c99.79,0,180.67,18.24,180.67,40.65s-80.88,40.65-180.67,40.65-180.68-18.18-180.68-40.65,80.94-40.65,180.68-40.65Z" style="fill:#c4d1eb; fill-rule:evenodd;"/><path d="M1323.63,928.32h-175.72c-7.9,0-14.32,6.37-14.32,14.32v40.35c0,7.89,6.42,14.32,14.32,14.32h175.72c7.89,0,14.39-6.43,14.39-14.32v-40.35c0-7.96-6.49-14.32-14.39-14.32Z" style="fill:#b0c2e4; fill-rule:evenodd;"/><polygon points="1322.09 997.32 1149.44 997.32 1166.4 1086.52 1305.13 1086.52 1322.09 997.32" style="fill:#b0c2e4; fill-rule:evenodd;"/><polygon points="1149.44 997.32 1322.09 997.32 1318.97 1013.42 1152.56 1013.42 1149.44 997.32" style="fill:#9db2d9; fill-rule:evenodd;"/><path d="M307.43,447.4c-19.71,18.58-28.72,40.93-26.88,66.92,46.65,31.77,70.77,61.53,72.36,89.27-54.79-48.8-96-48.67-114.55-18.67,13.65,16.56,23.27,73.71,19.96,100.01-5.88,46.47,6.8,88.13,41.94,103.8,8.02,18.06,16.47,27.55,25.35,28.53-8.51,52.04-15.67,104.88-21.49,158.51,5.94,3,14.45,2.76,18.98-.31,1.78-20.93,3.12-35.69,4.47-45.55,3.61-38.94,7.65-76.53,12.18-112.9,2.14-.25,4.29-.61,6.43-1.1,41.08-8.57,25.34-34.22,62.88-41.88,23.14-4.78,44.14-24.31,49.41-41.79-24.06-7.56-54.37-15.67-85.1-9.88,15.98-22.47,48.36-20.76,92.38-15.34,16.65-32.33,40.22-29.39,30.86-79.93-13.04-70.47,33.06-90,17.57-174.83-22.66-8.57-52.65-7.59-90,3,15.8-23.42,45.86-33.12,90.12-29.08-9.18-24.86-9.06-56.97-4.71-70.68-16.47-11.88-33.06-11.82-49.9,.21,7.53-12.89,17.27-20.27,29.21-22.1-.55-11.05-5.33-23.39-14.2-37.01-14.76,.34-31.1,3.58-48.98,9.8,8.14,5.36,10.77,15.03,7.9,29.02-9.8-11.54-24.31-15.4-43.53-11.57-4.04,50.39-48.67,70.81-49.47,92.51,26.33,23.14,41.69,48.4,46.23,75.73-26.82-22.96-53.27-37.9-79.41-44.69Z" style="fill:#b0c2e4; fill-rule:evenodd;"/><path d="M304.12,975.77c5.82-53.63,12.98-106.47,21.49-158.51,30.3-196.56,83.26-399.61,129.31-484.59-61.47,144.89-103.9,343.99-127.35,597.24-1.35,9.86-2.69,24.62-4.47,45.55-4.53,3.07-13.04,3.31-18.98,.31Z" style="fill:#9db2d9; fill-rule:evenodd;"/><path d="M382.12,320.58c19.04,24.3,25.35,50.94,18.92,79.9-57.98,27.86-90.18,57.28-96.73,88.26,70.04-45.61,116.39-38.48,132.18-1.59-18.18,16.35-38.69,79.04-39.49,109.22-1.28,53.32-22.65,98.11-64.83,109.77-12.12,18.92-23.27,28.19-33.43,27.8,.73,60.06-.19,120.79-2.75,182.14-7.23,2.39-16.72,.61-21.25-3.61,1.47-23.82,2.51-40.71,2.63-52.04,2.57-44.39,4.41-87.49,5.51-129.18-2.39-.68-4.71-1.44-7.04-2.33-44.75-16.65-22.71-42.83-63.74-57.92-25.16-9.24-45.55-34.8-48.43-55.35,28.34-4.47,63.85-8.39,97.47,3.31-14.2-27.98-50.94-31.62-101.45-33-13.22-39.21-40.28-39.89-21.12-95.21,26.63-77.14-21.92-106.99,9.98-199.87,26.94-5.78,60.55,.46,100.83,18.73-13.84-29.08-46.04-45.12-96.61-48.12,14.57-26.42,19.96-62.57,17.39-78.76,20.51-10.59,39.24-7.69,56.08,8.72-6.25-15.8-15.98-25.74-29.08-29.88,2.51-12.3,9.98-25.41,22.35-39.21,16.53,2.88,34.35,9.31,53.45,19.35-10.1,4.65-14.76,15.09-13.84,31.35,12.98-11.36,30-13.22,50.94-5.63-3.98,57.43,42.8,88.01,39.92,112.56-33.49,21.58-55.1,47.39-64.83,77.42,34.04-21.31,66.37-33.58,96.98-36.83Z" style="fill:#c4d1eb; fill-rule:evenodd;"/><path d="M295.98,916.08c2.57-61.35,3.49-122.08,2.75-182.14-.67-226.47-25.77-464.11-63.18-567.61,44.57,173.6,58.53,404.97,41.82,694.1-.13,11.33-1.16,28.23-2.63,52.04,4.53,4.22,14.02,6,21.25,3.61Z" style="fill:#b0c2e4; fill-rule:evenodd;"/><path d="M321.69,952.14c-84.31,0-152.7,15.37-152.7,34.34s68.39,34.41,152.7,34.41,152.69-15.43,152.69-34.41-68.38-34.34-152.69-34.34Z" style="fill:#c4d1eb; fill-rule:evenodd;"/><path d="M243.63,851.91h148.53c6.67,0,12.12,5.45,12.12,12.12v34.1c0,6.68-5.45,12.12-12.12,12.12H243.63c-6.61,0-12.12-5.45-12.12-12.12v-34.1c0-6.67,5.51-12.12,12.12-12.12Z" style="fill:#b0c2e4; fill-rule:evenodd;"/><polygon points="244.98 910.26 390.87 910.26 376.55 985.63 259.3 985.63 244.98 910.26" style="fill:#b0c2e4; fill-rule:evenodd;"/><polygon points="390.87 910.26 244.98 910.26 247.55 923.91 388.24 923.91 390.87 910.26" style="fill:#9db2d9; fill-rule:evenodd;"/><path d="M1271.03,1317.09c-99.12,0-179.45,17.58-179.45,39.25s80.33,39.25,179.45,39.25,179.39-17.57,179.39-39.25-80.32-39.25-179.39-39.25Z" style="fill:#c4d1eb; fill-rule:evenodd;"/><path d="M233.47,1343.54c-128.26,0-232.28,17.51-232.28,39.18s104.02,39.25,232.28,39.25,232.16-17.57,232.16-39.25-103.96-39.18-232.16-39.18Z" style="fill:#c4d1eb; fill-rule:evenodd;"/><path d="M1342.78,559.72c6.61-17.91,13.29-35.82,33.43-47.23,16.28-9.21,34.1-9.09,50.02-1.41,44.87,21.77,24.74,61.38,53.88,103.1,12.49,17.82,31.1,26.94,40.46,45.67,16.96,33.74,2.2,88.71-43.16,119.57-111.06,75.79-172.04-59.36-172.35-88.47-.25-21.67,33.49-119.72,37.71-131.23Z" style="fill:#20386f; fill-rule:evenodd;"/><polygon points="1420.54 1253.3 1406.21 1313.72 1384.72 1313.61 1383.93 1253.3 1420.54 1253.3" style="fill:#f9af79; fill-rule:evenodd;"/><polygon points="1239.75 1255.87 1198.91 1313.72 1182.99 1293.28 1207.6 1247.91 1239.75 1255.87" style="fill:#f9af79; fill-rule:evenodd;"/><path d="M1364.09,644.21c-.18,.06,17.27,9.12,30.37,5.54,12.31-3.37,20.33-19.35,20.21-19.38-5.27-1.04-6.74-8.2-6.61-39.03l-2.39,.49-39.67,7.84s.92,12.49,.92,24.24c.06,9.89-.55,19.22-2.82,20.3Z" style="fill:#f9af79; fill-rule:evenodd;"/><path d="M1427.71,520.2s-15-24.31-43.05-9.8c0,0,14.51,.43,43.05,9.8Z" style="fill:#6d96ce; fill-rule:evenodd;"/><path d="M1365.99,599.67s.92,12.49,.92,24.24c22.22-.61,33.98-20.88,38.76-32.08l-39.67,7.84Z" style="fill:#f09e68; fill-rule:evenodd;"/><path d="M1413.8,593.21s15.06-15.73,20.88-30.58c4.23-10.59,6.79-52.5-35.33-54.89,0,0-12.12-1.22-24.86,4.07-10.1,4.23-25.53,14.6-18.37,53.08l1.29,12.77,56.38,15.55Z" style="fill:#20386f; fill-rule:evenodd;"/><path d="M1186.85,1280.05s10.53,1.83,19.23,2.51c1.9,.12,3.73,.25,5.32,.25,4.16,0,11.63-1.59,16.72-2.81h.36c2.2-.55,3.92-.98,4.53-1.11l.24-.12s52.59-58.53,82.1-152.33c.68-2.2,1.41-4.41,2.15-6.61,16.16-47.15,49.59-106.17,67.22-159.67,2.82-8.45,5.32-16.47,7.59-24.06,.73-2.45,1.47-4.83,2.14-7.17,12.98-45.18,16.71-74.81,20.21-106.47l-106.04,27s-44.51,192.92-121.78,430.59Z" style="fill:#223f81; fill-rule:evenodd;"/><path d="M1359.07,605.94s51.3,11.21,57.79-20.84c6.49-32.05,17.51-52.19-15-60.71-32.45-8.54-41.32,2.39-46.1,12.55-4.77,10.2-9.85,65.23,3.31,69Z" style="fill:#f9af79; fill-rule:evenodd;"/><path d="M1378.6,518.85s6.49,40.47,27,50.42c20.51,9.89,31.1,6,31.1,6,0,0-13.96-16.53-12.73-40.22,0,0-31.1-31.96-45.37-16.19Z" style="fill:#20386f; fill-rule:evenodd;"/><path d="M1381.48,522.65s-12.25,6.24-16.41,13.93c-4.22,7.62-8.82,24.21-13.59,22.65,0,0-5.45-27.74,9.42-39.77,15.74-12.8,20.57,3.18,20.57,3.18Z" style="fill:#20386f; fill-rule:evenodd;"/><path d="M1406.95,1310.36s-1.77,11.94,2.76,24.73c0,0,3.49,16.04-12.31,16.35-15.79,.31-19.65-1.16-17.88-11.02,1.78-9.86,5.21-26.81,5.21-26.81l22.22-3.25Z" style="fill:#f9af7c; fill-rule:evenodd;"/><path d="M1409.7,1335.09s2.88,15.18,1.11,23.26c0,0-4.78,3.55-16.23,3.55s-16.53-3.55-16.53-3.55c0,0-.36-16.65,2.57-23.63,0,0,11.14,16.78,29.08,.37Z" style="fill:#0e2952; fill-rule:evenodd;"/><path d="M1144.97,1342.01s29.08-32.27,38.02-48.73l21.67,11.08-48.36,45.43-11.33-1.47v-6.3Z" style="fill:#f9af7c; fill-rule:evenodd;"/><path d="M1126.48,1360.93s31.28,0,36.67-.55c5.33-.62,9.67-8.39,15.43-20.03,2.39-4.71,7.71-7.35,13.22-8.75v26.88h8.26l7.77-28.53c5.21-9.49,.43-18.12-3.18-25.59-4.22,0-15.55,2.88-37.1,27.06-7.04,8.02-14.88,10.9-22.59,10.59l-.31,.18c-17.88,8.08-18.18,18.73-18.18,18.73Z" style="fill:#0e2952; fill-rule:evenodd;"/><path d="M1206.08,1282.56c1.9,.12,3.73,.25,5.32,.25,4.16,0,11.63-1.59,16.72-2.81h.36l4.53-1.11,.24-.12s52.59-58.53,82.1-152.33c.68-2.2,1.41-4.41,2.15-6.61,16.16-47.15,49.59-106.17,67.22-159.67,2.82-8.45,5.32-16.47,7.59-24.06,.73-2.45,1.47-4.83,2.14-7.17l-18.79-14.2s-56.26,91.1-73.71,176.88c-14.45,71.08-76.59,163.28-95.87,190.96Z" style="fill:#0e2952; fill-rule:evenodd;"/><path d="M1373.7,1099.62c-.31,41.69,1.84,137.63,7.23,177.3,0,0,5.2,4.53,17.93,4.65,13.1,0,18.92-4.77,18.92-4.77,13.65-69.06,23.39-126.25,30.43-175.41,5.75-40.41,10.89-75,14.88-104.88,3.49-26.32,6.06-48.98,7.35-68.51,.13-2.69,.31-5.26,.43-7.77,.12-3.37,.24-6.61,.31-9.8,.06-3.18,.06-6.25,.06-9.19l-.49-.06-26.33-2.64-83.2-8.08c1.41,73.1,12.67,184.9,12.49,209.14Z" style="fill:#223f81; fill-rule:evenodd;"/><path d="M1398.87,1281.58c11.15,.61,18.92-4.77,18.92-4.77,13.65-69.06,23.39-126.25,30.43-175.41,5.75-40.41,10.89-75,14.88-104.88,3.49-26.32,6.06-48.98,7.35-68.51,.13-9.61,.25-18.86,.31-26.81,.12-8.14,.31-15,.49-19.78l-26.82,17.14-28.16,18.12s39.98,36.37,30.12,105.19c-9.8,68.82-33.79,249.91-47.51,259.71Z" style="fill:#0e2952; fill-rule:evenodd;"/><path d="M1377.07,629.03s-42.73-6.77-57.12,7.5c-17.58,17.51-50.58,117.79-49.29,129.3,.49,4.35,17.88,2.33,23.82-3.92,29.63-31.1,72.18-109.59,82.59-132.88Z" style="fill:#6d96ce; fill-rule:evenodd;"/><path d="M1293.99,909.16c31.96,8.26,180.92,24.67,182.2-12.61,.3-9.12,0-20.14-.74-32.02-2.2-36.85-8.27-82.41-11.14-107.45-1.34-11.45,3.06-62.91-.37-90.95-.49-4.16-1.1-7.81-2.02-10.72-6.43-21.15-35.33-26.91-50.2-27.43l-44.75-1.5s-46.23,51.67-52.65,67.53c-6.43,15.86-8.57,70.23-13.59,96.49-4.96,26.32-22.22,114.67-6.73,118.65Z" style="fill:#6d96ce; fill-rule:evenodd;"/><path d="M1381.97,783.1s24.92,76.41,93.49,81.42c-2.2-36.85-8.27-82.41-11.14-107.45-1.34-11.45,3.06-62.91-.37-90.95-.86,.19-1.66,.67-2.57,.86-75.55,14.6-86.27,100.19-79.41,116.11Z" style="fill:#466fb5; fill-rule:evenodd;"/><path d="M1272.81,767.67s45,14.76,99.74-8.88c0,0,14.94-1.41,22.35,.43,0,0-1.6-14.75-8.88-18.79-7.23-4.01-38.39,4.71-47.69,3.43-20.33-2.81-55.78-4.99-65.51,23.82Z" style="fill:#f09e68; fill-rule:evenodd;"/><path d="M1312.85,733.26s-4.16-36.52,10.1-58.56c0,0-5.02-1.71-8.63,4.01-3.67,5.73-28.9,60-16.9,63.98,12.06,4.04,15.43-9.43,15.43-9.43Z" style="fill:#466fb5; fill-rule:evenodd;"/><path d="M1378.48,739.38c.67,0,21.24,2.69,24.92,5.27,3.61,2.57,.43,11.57-6.43,12.36-6.86,.92-18.49-17.63-18.49-17.63Z" style="fill:#f09e68; fill-rule:evenodd;"/><path d="M1434.81,753.22s-58.66-2.2-111.86-12.49c0,0-9.73,.12-8.57,8.63,1.17,8.51,92.21,56.02,112.22,46.83l8.21-42.98Z" style="fill:#f9af79; fill-rule:evenodd;"/><path d="M1322.95,740.73s-6.18-7.47-10.1-7.47-13.9,4.93-15.43,9.43c-1.47,4.53,11.94,1.29,16.95,6.68,5.02,5.32,8.57-8.63,8.57-8.63Z" style="fill:#f9af7c; fill-rule:evenodd;"/><path d="M1411.73,627.98s49.29,.15,56.51,17.85c13.16,32.33-30.24,139.53-41.63,150.36-4.96,4.65-27.74-2.69-27.74-33.55,0-16.04,1.17-109.56,12.86-134.66Z" style="fill:#6d96ce; fill-rule:evenodd;"/><path d="M1174.54,955.38h-386.94c-67.65,0-123.06,55.47-123.06,123.18v127.47c0,67.71,55.41,123.06,123.06,123.06h386.94c67.65,0,123.06-55.35,123.06-123.06v-127.47c0-67.71-55.41-123.18-123.06-123.18h0Zm0,57.55c36.06,0,65.58,29.51,65.58,65.58v127.53c0,36-29.51,65.51-65.58,65.51h-386.94c-36.06,0-65.57-29.51-65.57-65.51v-127.53c0-36.06,29.51-65.58,65.57-65.58h386.94Z" style="fill:#9c7357; fill-rule:evenodd;"/><path d="M683.03,908.73H296.16c-67.71,0-123.12,55.41-123.12,123.12v127.47c0,67.71,55.41,123.12,123.12,123.12h386.87c2.69,0,5.39-.13,8.08-.25-12.92-16.29-21.8-35.94-25.1-57.3H296.16c-36.06,0-65.57-29.51-65.57-65.57v-127.54c0-36,29.51-65.5,65.57-65.5h375.3c13.71-21.61,33.92-38.69,57.8-48.49-14.26-5.81-29.88-9.06-46.23-9.06h0Zm104.02,316.16h-11.5c-18,0-34.41-7.35-46.29-19.23,11.94-11.88,19.35-28.28,19.35-46.34v-127.54c0-1.89-.12-3.79-.24-5.63,10.96-8.33,24.55-13.22,39.24-13.22h17.08c.92,6.19,1.41,12.49,1.41,18.92v127.47c0,24.06-6.98,46.59-19.04,65.57Z" style="fill:#e5bb9a; fill-rule:evenodd;"/><path d="M683.03,908.73h-69.06v57.55h69.06c36.06,0,65.57,29.51,65.57,65.5v26.45h57.49v-26.39c0-67.71-55.35-123.12-123.06-123.12Z" style="fill:#e5bb9a; fill-rule:evenodd;"/><path d="M683.03,1282.44h-69.06v-57.55h52.04c3.3,21.37,12.18,41.02,25.1,57.24-2.69,.18-5.39,.31-8.08,.31h0Zm39.25-70.71c15.98-11.94,26.33-31.05,26.33-52.41v-26.39h57.49v26.39c0,42.18-21.43,79.53-54,101.69-16.53-10.65-27.98-28.65-29.81-49.28Z" style="fill:#e5bb9a; fill-rule:evenodd;"/><path d="M567.75,431.98s-3.61,1.35-5.14-.49c0,0,.49,1.38,1.9,1.62,1.47,.25,3.25-1.13,3.25-1.13Z" style="fill:#f27458; fill-rule:evenodd;"/><path d="M488.28,198.65c-7.9,4.65-10.29,12.3-15.67,15.12-15.49,1.5-30.73,2.73-38.02,7.87-28.41,35.17-51.37,66.24-68.88,93.27-7.1,14.94-5.7,29.39,4.23,43.35,12.18-11.54,25.41-14.45,39.67-8.75-.49-6.09-2.69-12.43-6.74-19.01,20.45-18.37,37.22-35.21,50.33-50.54-2.39,20.11,4.71,48.7,21.37,85.77,57.92,3.86,91.1,2.94,99.67-2.82,2.82-16.56,5.02-34.65,6.67-54.24,13.35,12.15,24.13,22.99,32.33,32.42,6.25,2.11,12.98,2.54,20.14,1.26,5.08-12.15,10.16-23.2,15.25-33.06-3.49-3.24-9.61-5.85-18.31-7.8-23.63-34.5-44.08-62.36-61.22-83.57-13.35-3.18-23.32-4.84-29.88-4.99-2.88-3.4-6.98-6.3-12.55-8.73,3.24,18.12,4.47,39.83,4.28,55.2-25.28-18.95-39.55-43.75-42.67-60.73Z" style="fill:#6d96ce; fill-rule:evenodd;"/><path d="M445.3,521.21c-12-76.13-2.27-127.96,29.26-155.48,48.92,3.27,80.2,3.12,93.92-.49,.12,5.39,.49,11.7,1.59,19.99,8.51,64.16,18.67,163.8,17.33,261.67-34.53,12.4-88.59,11.88-162.18-1.56,8.39-38.05,15.06-79.47,20.08-124.13Z" style="fill:#223f81; fill-rule:evenodd;"/><path d="M539.22,212.92c2.94,8.94,4.53,16.32,4.71,22.13-3.37-2.75-5.94-4.65-7.53-5.69-1.22,14.36-3.06,24.37-5.45,30.03,.19-15.37-1.04-37.07-4.28-55.2,5.57,2.42,9.67,5.33,12.55,8.73Z" style="fill:#466fb5; fill-rule:evenodd;"/><path d="M488.28,198.65c3.12,16.99,17.39,41.78,42.67,60.73-15.12-5.48-31.65-18.92-41.08-36.8-1.59,6.03-3.61,13.1-6,21.22-6.55-8.36-10.29-18.37-11.26-30.03,5.39-2.82,7.78-10.47,15.67-15.12Z" style="fill:#466fb5; fill-rule:evenodd;"/><path d="M407.9,348.87c10.1,21.12,21.86,42.15,33.67,58.87,2.69-2.94,5.27-9.37,9.12-11.81,1.47-.98,3.92,1.56,5.51,.76,7.71-3.7,16.29-4.78,23.2,.52,1.71,1.32,2.63,3.92,2.88,10.07-.24,8.48-7.16,10.07-16.84,6.09-12.86,14.39-21.43,19.07-28.47,14.02-31.84-29.21-52.9-53.42-63.18-72.64,10.59-8.24,21.98-10.19,34.1-5.88Z" style="fill:#fab688; fill-rule:evenodd;"/><path d="M735.93,345.25c-47.69,1.62-81.73,.34-102.12-3.86,4.9-11.79,9.86-22.5,14.82-32.11,38.02,5.79,70.53,10.04,97.65,12.73,9.73-6.83,17.88-9.61,24.37-8.42,1.77,4.19-.12,7.26-5.76,9.18-1.53,2.2-2.14,4.22-1.84,6.09,14.08,6.15,26.45,9.95,37.17,11.39,1.29,12.98-6.55,21.25-23.51,24.77-17.27-4.56-30.86-11.14-40.78-19.78Z" style="fill:#f9af79; fill-rule:evenodd;"/><path d="M440.34,860.11c8.88,33.92,5.88,51.92-10.89,54.43-22.23,1.65-28.23-20.82-19.53-67.16-.19,2.58-.3,4.9-.43,6.98-2.45,48.49,34.35,37.65,31.78,15.3-.37-3.06-.68-6.31-.92-9.55Z" style="fill:#172b57; fill-rule:evenodd;"/><path d="M441.26,869.67c2.57,22.35-34.23,33.19-31.78-15.3,.13-2.09,.24-4.41,.43-6.98,1.53-19.71,5.63-51.36,5.33-71.26-.8-51,3.61-94.37,13.28-130.16,17.82,3.18,34.47,5.6,49.96,7.25-8.39,29.79-15.61,57.03-21.8,81.74-7.53,30.33-21.61,75.21-18.12,106.07,.79,6.61,1.22,12.98,1.77,19.1,.25,3.25,.55,6.49,.92,9.55Z" style="fill:#f9af79; fill-rule:evenodd;"/><path d="M588.32,875.54c-12.8,.74-1.1,10.9-9.49,13.22-18.25-10.29-28.35-38.08-35.64-50.39-3.86-6.43-6.61,1.78-8.51,10.96-4.04,19.84-3.92,45.92,.67,54,3.31-5.88,6.19-24.24,9.25-35.39,17.88,16.29,13.96,34.29,24.61,40.41,25.47,2.82,39.31,3.55,58.65,4.05,4.22-16.9-29.45-11.2-39.55-36.86Z" style="fill:#172b57; fill-rule:evenodd;"/><path d="M578.83,649.6c-2.45,97.86-11.27,184.99,4.71,227.17-4.47,2.94,2.14,10.1-4.71,12-18.25-10.29-28.35-38.08-35.64-50.39-.06-.06-.06-.18-.12-.18,1.04-2.63,1.77-5.63,2.2-9-.31-81.12-20.14-131.18-16.35-173.39,19.35-.3,35.94-2.36,49.9-6.21Z" style="fill:#f9af79; fill-rule:evenodd;"/><path d="M615.02,341.64c6.37-12.49,12.8-25.53,19.22-39.18,6.61,1.81,11.45,4.1,14.39,6.83-4.96,9.61-9.92,20.33-14.82,32.11-.18,.3-.31,.64-.43,.95-6.49,1.16-12.67,.92-18.37-.7Z" style="fill:#466fb5; fill-rule:evenodd;"/><path d="M405.81,335.92c2.2,4.68,3.43,9.18,3.8,13.59-.62-.22-1.17-.43-1.71-.64-12.12-4.32-23.51-2.36-34.1,5.88,0,.06,.06,.09,.06,.15-1.29,1.01-2.57,2.14-3.92,3.37-3.61-5.11-6.12-10.29-7.47-15.52,16.16-9.64,30.61-11.91,43.35-6.83Z" style="fill:#466fb5; fill-rule:evenodd;"/><path d="M527.1,193.6c-1.65,6.24-1.47,11.54,.49,15.95,2.57,16.9,3.49,35.97,3.37,49.84-24.18-18.09-38.2-41.51-42.18-58.38,3.18-5.27,4.53-11.42,3.92-18.49,.61-3.28-1.22-9.4-5.45-18.4-14.45-2.57-18.06-14.97-12.06-24.83,6.73-2.45,10.41,3.22,12.18,13.44,3.86-.58,2.39-6.86,1.96-9.83-1.77-8.51-.3-13.1,2.76-21.18,17.39,12.49,32.26,12.86,55.96,5.81-.73,5.85-1.22,11.45-1.53,16.84,6.49,16.19-3.43,43.71-19.41,49.22Z" style="fill:#f9af79; fill-rule:evenodd;"/><path d="M548.04,127.54c-23.69,7.04-38.57,6.68-55.96-5.81-3.06,8.08-4.53,12.67-2.76,21.18,.43,2.97,1.9,9.24-1.96,9.83-1.77-10.23-5.45-15.89-12.18-13.44-6,9.86-2.39,22.26,12.06,24.83,4.22,9,6.06,15.12,5.45,18.4,.61,7.07-.73,13.22-3.92,18.49-.19-.79-.37-1.59-.49-2.35-7.9,4.65-10.29,12.3-15.67,15.12-15.49,1.5-30.73,2.73-38.02,7.87-2.09,2.6-4.16,5.17-6.18,7.71-4.96-11.85-7.59-20.57-6.68-24.46,3.31-14.73,18.49-7.32,18.19-16.04-.37-13.59,18.37-24.24,15.86-37.81-5.08-27.73,5.51-36.15,5.57-38.23,.61-21.03,12.92-21.55,25.16-28.65,21.67-12.58,40.59,2.82,46.71,3.21,31.41,2.11,14.02,15.92,28.04,28.32,11.57,10.25,6.12,18.03,4.9,24.18-.49,2.75-3,14.17,5.02,19.96,11.69,8.48,.98,26.23,7.9,28.41,26.63,8.23,14.63,16.47,13.9,35.54-.25,6.09-3,11.57-6.79,16.04-6-7.96-11.76-15.27-17.08-21.92-13.35-3.18-23.32-4.84-29.88-4.99-2.88-3.4-6.98-6.3-12.55-8.73,.3,1.75,.61,3.52,.92,5.36-1.96-4.41-2.14-9.71-.49-15.95,15.98-5.51,25.9-33.03,19.41-49.22,.31-5.39,.79-10.99,1.53-16.84Z" style="fill:#20386f; fill-rule:evenodd;"/><path d="M527.1,193.6c-9.73,1.1-14.08,1.04-23.08-2.6,5.27,5.79,12.55,8.97,21.98,9.52,.06-2.14,.43-4.47,1.1-6.92Z" style="fill:#ed7d57; fill-rule:evenodd;"/><path d="M821.4,476.73c12.8-8.85,13.78-6.34,15.37-7.53,1.96-1.41,12.79-31.1,12.79-31.1,0,0,32.7-87.18,34.29-91.96l-6.55-96.7,47.15-16.1s4.28,105.34,3.55,110.85c-.73,5.54-58.71,118.07-63.49,128.2,0,0-1.22,14.15-2.32,23.05-1.04,8.91-6,16.81-6.74,19.22-.06,.4-2.81,8.42-8.87,17.3-5.21,7.71-3.86-1.99-3.86-1.99,0,0,7.1-16.07,5.76-16.41-1.11-.3-4.47,8.66-10.1,17.27-1.47,2.2-2.94,4.38-4.29,6.37-3.49,5.17-7.77,4.5-4.96-1.59,1.04-2.14,2.76-5.66,4.35-7.99,1.78-2.45,2.51-5.36,3.61-7.65,2.27-4.65,3.98-7.96,3.67-7.99-.31,.03-.49-1.22-2.14,1.04-1.96,2.78-4.77,9.61-7.96,13.41-1.83,2.17-5.32,6.92-5.32,6.92,0,0-6.49,7.07-6.98,6.86-2.69-1.53,.49-7.93,3.3-10.56,.92-2.6,4.78-7.5,4.78-7.5,0,0,5.45-11.72,3.79-12.55-1.34-.67-19.89,24.71-22.53,23.02-2.14-1.35,3.13-9.19,3.13-9.19,0,0,3.55-4.56,4.59-6.15,1.29-1.84,4.53-7.74,4.53-7.74,0,0,10.47-21.03,8.82-21.71-1.65-.67-6.49-.64-7.59,.43-1.1,1.04-2.08,4.1-3.18,5.17-1.1,1.04-3.43,1.56-4.9,.28-1.47-1.32,1.84-8.54,1.84-8.54,0,0,2.76-5.85,6.49-8.42Z" style="fill:#f49d64; fill-rule:evenodd;"/><path d="M1060.17,893.85l16.16,38.26c.68,4.16,3.43,14.69,3.43,18.56,0,14.39-64.71-12.25-50.2-18.67,1.29-.55,5.39-5.14,5.82-10.17,.74-7.59-5.45-17.02-5.45-17.02l30.24-10.96Z" style="fill:#f49d64; fill-rule:evenodd;"/><path d="M1083.44,955.38s-1.47-21.67-6.92-24.12c-5.14-2.45-14.33,7.22-21.55,6.12-7.23-1.11-23.51-7.1-23.51-7.1-28.78,10.29-50.15,16.77-45.86,25.1h97.83Z" style="fill:#172b57; fill-rule:evenodd;"/><path d="M961.05,905.3l9.37,26.81c.73,4.16,3.43,14.69,3.43,18.56,0,14.39-64.71-12.25-50.2-18.67,1.34-.55,5.45-5.14,5.88-10.17,.67-7.59-5.45-17.02-5.45-17.02l36.98,.49Z" style="fill:#f49d64; fill-rule:evenodd;"/><path d="M871.67,398.7l-23.45,60.21s-15.31,143.75-6.37,229.8c3.74,36,84.36,228.64,84.36,228.64l40.04-5.7-41.57-225.64,7.65-89.72,27.98-172.5-88.65-25.1Z" style="fill:#172b57; fill-rule:evenodd;"/><path d="M899.77,405.74l-14.32,62.97s5.93,144.46,27.37,228.31c9,35.11,117.06,214.28,117.06,214.28l38.82-11.27-74.27-217.5,6.92-214.16-10.17-50.29-91.41-12.34Z" style="fill:#20386f; fill-rule:evenodd;"/><path d="M977.58,955.38s-1.53-21.42-7.35-23.94c-5.51-2.51-15.61,7.04-23.45,5.94-7.77-1.11-22.96-5.51-22.96-5.51-31.1,10.29-56.57,15.18-51.92,23.51h105.67Z" style="fill:#172b57; fill-rule:evenodd;"/><path d="M853.55,261.86l60.18,20.94s25.9-46.96,30.98-68.75c6.19-26.6-5.51-56.76-8.88-56.76-9.42,.06-23.82-3.27-33.3,5.05-32.75,28.68-48.98,99.52-48.98,99.52Z" style="fill:#466fb5; fill-rule:evenodd;"/><path d="M974.83,155.82s41.94,14.08,49.96,19.87c8.94,6.52,5.08,28.38,5.08,28.38,0,0,9.8,27.22-1.71,62.57-16.16,49.47-35.27,112.38-33.92,129.4,2.21,29.23,8.58,72.46,8.58,72.46,0,0-112.11,7.07-154.59-9.58,0,0,13.41-66.18,13.41-83.51s9.8-148.65,13.96-162c3.12-10.1,15.12-52.41,35.57-56.82,20.51-4.47,63.67-.77,63.67-.77Z" style="fill:#6d96ce; fill-rule:evenodd;"/><path d="M966.62,108.96l7.35,46.87s-21.49,35.82-37.77,30.8c-13.71-4.23-11.03-31.62-11.03-31.62,0,0,7.47-27.49,5.27-41.2-2.27-13.78,36.18-4.84,36.18-4.84Z" style="fill:#f49d64; fill-rule:evenodd;"/><path d="M930.44,113.8c-2.27-13.78,36.18-4.84,36.18-4.84l.62,4.07c-1.1,2.73-2.51,5.02-4.16,6.79-8.57,9.06-21.98,14.54-33.61,14.94,1.16-7.41,1.9-15.37,.98-20.97Z" style="fill:#f27458; fill-rule:evenodd;"/><path d="M972.93,40.26c1.1-.4,8.69,55.35-5.76,70.65-14.45,15.34-42.61,20.36-52.71,8.27-11.2-13.35-10.65-73.26,11.82-88.96,22.47-15.83,46.66,10.04,46.66,10.04Z" style="fill:#f49d64; fill-rule:evenodd;"/><path d="M934.85,.35c17.39,3.49,28.59,13.96,32.75,18.46,7.9,.89,18.61,5.17,29.69,23.3,13.59,22.16,3.55,46.78-12.31,58.9-15.86,12.03-15.55,26.14-15.55,26.14l-2.57-7.32c-1.83-5.48-2.63-11.27-1.96-17.02,.31-3.43,1.1-7.19,2.51-10.19,3.85-8.11-8.15-13.44-11.51-20.14-2.63-5.17-2.76-17.02-6.79-25.56l-4.9-6.49s-11.21-8.69-22.22-6.21c-11.03,2.45-9.43-38.36,12.85-33.86Z" style="fill:#20386f; fill-rule:evenodd;"/><path d="M956.65,82.39c-.13,6.8,3,12.31,6.98,12.4,3.98,.06,7.28-5.39,7.4-12.19,.13-6.79-3-12.4-6.98-12.46-3.98-.06-7.28,5.39-7.41,12.25Z" style="fill:#f49d64; fill-rule:evenodd;"/><path d="M730.73,328.6s5.45,.28,7.29,.22c2.14-.06,8.51-.73,8.51-.73,0,0,22.16-3.37,21.8-4.99-.37-1.56-4.53-3.06-5.94-3.37-1.47-.24-3.06-.73-4.53-.95-1.47-.25-2.45-1.56-2.2-3.31,.18-1.81,6.18-1.99,8.2-1.62,6.49,1.04,23.2,7.35,24.98,7.93,2.14,.73,39.49-12.09,52.65-15.49h0c21.37-6.19,42.98-13.59,45.25-14.27l79.96-51.34,30.37,21.49s-87.92,58.25-92.57,60.58c-2.33,1.19-52.9,11.72-52.9,11.72-25.29,3.64-47.51,6.83-51.8,7.53,0,0-12.12,5.54-19.71,9.55-7.47,3.92-16.04,4.62-18.3,5.42-.37,.12-8.08,3.27-18.37,3.52-8.82,.12-.43-4.07-.43-4.07,0,0,16.35-3.21,15.86-4.47-.31-.95-9.19,1.35-18.98,1.62-2.51,.06-4.96,.12-7.28,.22-6,.09-7.71-3.55-1.47-4.65,2.2-.4,5.88-.92,8.57-.95,2.94-.06,5.63-1.01,8.02-1.41,4.9-.83,8.39-1.32,8.27-1.53-.25-.18,.61-1.01-2.02-1.01-3.25,0-10.04,1.44-14.76,1.1-2.69-.22-8.33-.31-8.33-.31,0,0-9.12-1.13-9.12-1.68-.36-2.82,6.43-3.86,10.04-3.15,2.51-.67,8.45-.4,8.45-.4,0,0,12.06-2.08,11.81-3.8-.12-1.44-30.12-1.9-30.25-4.78-.12-2.36,8.94-2.63,8.94-2.63Z" style="fill:#f49d64; fill-rule:evenodd;"/><path d="M938.65,248.95l34.83,53.2s28.1-12.83,46.47-31.41c45.18-40.68,16.28-94.38,3.79-95.23-27.98-1.9-85.1,73.44-85.1,73.44Z" style="fill:#466fb5; fill-rule:evenodd;"/><path d="M942.02,780.03l-102.61-130.56c.43,13.84,1.22,27.09,2.45,39.21,3.74,36.03,84.36,228.67,84.36,228.67l40.04-5.7-24.24-131.63Z" style="fill:#20386f; fill-rule:evenodd;"/><path d="M61.92,642.95c10.96-10.25,41.51-21.55,59.69-27.12,19.04-2.48,39.79-3.55,62.39-3.18,38.14-.37,79.1,.03,122.94,1.19,43.22-21.06,54.73-22.9,76.59-32.82,6.49-2.94,18.25-9.12,27.67-14.2,4.35,2.17,9.86,11.85,11.57,20.02-45.98,44.18-75.43,61.65-92.2,71.3-32.51,8.76-63.73,13.53-87.61,15.89-6.79,43.75-11.94,85.93-15.49,126.46,7.22,42.86,10.65,72,10.35,87.43-66.86,9.91-120.43,10.16-160.9,.8,1.16-12.25,6.19-29.45,9.31-42.61-4.47-54.86-11.51-90.55-15.24-115.87-12.43,25.07-24.12,43.99-35.08,56.66,8.57,22.1,16.65,49.29,24.3,81.43-4.78,6.24-11.45,10.47-20.2,12.67-10.65-18.43-33.73-60.67-39.74-92.14-4.35-25.1,46.23-126.15,61.65-145.89Z" style="fill:#6d96ce; fill-rule:evenodd;"/><path d="M175.43,605.61c-4.1-1.93-26.45-1.53-48.73,3.06,2.39-3.61,4.29-8.33,5.63-14.11,39.8-5.97,35.94-15.83,34.41-20.33-7.96-21.34-12.86-34.81-7.1-41.24,3,1.41,9.25,4.62,11.7,14.05,2.51-1.53,5.69-3.55,6.12-6.4,.92-8.54,.61-26.33,10.4-27.79,1.96,7.77,3.61,16.1,5.14,24.89,5.57,4.47,6.18,22.47,2.76,43.5,3.25,11.57-3.55,18.49-20.45,20.76l.12,3.61Z" style="fill:#f9af79; fill-rule:evenodd;"/><path d="M166.73,574.23c1.53,4.5,5.39,14.35-34.41,20.33-17.75-2.69-33.55-17.36-36.06-24-23.27-38.85-1.65-57.46,10.1-64.5,2.57-40.29,63-9.06,90.67-30.34,12.67,15.15-.19,36.12-9.19,37.13-9.8,1.47-9.49,19.26-10.4,27.79-.43,2.85-3.61,4.87-6.12,6.4-2.45-9.43-8.7-12.64-11.7-14.05-5.76,6.43-.86,19.9,7.1,41.24Z" style="fill:#20386f; fill-rule:evenodd;"/><path d="M126.69,608.67c-2.2,2.08-4.41,4.59-6.43,7.59l1.35-.43c18.55-2.42,38.69-3.46,60.55-3.22-2.2-2.88-4.59-5.3-6.74-7.01-4.1-1.93-26.45-1.5-48.73,3.06Z" style="fill:#466fb5; fill-rule:evenodd;"/><path d="M422.41,585.13c11.45-5.63,20.27-9.46,26.57-15.4,2.33-7.22,6.74-7.53,5.57-13.87,10.53-12.4,12.98-12.64,17.88-14.94-4.35-6.95-14.14-1.35-30.12,14.17-10.84,6.37-15.49,4.99-13.9-4.07,6.55-6.31,6.43-11.6,4.53-14.51-.92,.76-4.41,5.05-10.72,11.6-4.47,7.1-7.77,13.74-7.65,17.27-.12,1.22-.55,2.2-1.1,3.12,3.49,3.37,7.22,10.25,8.94,16.62Z" style="fill:#f9af79; fill-rule:evenodd;"/><path d="M58.12,870.77c4.59,5.7,10.16,8.63,18.92,17.02l-.13,.92,1.35,.3c1.96,1.96,4.04,4.11,6.3,6.67-4.53,3.67-10.35,1.16-17.45-7.53-.3,9.67,2.2,16.77,7.59,21.55,2.63,3.06,4.78,5.39,6.43,7.04-5.02,8.63-15.55,5.21-31.59-10.22-3.18-6-2.82-11.88-4.77-17.39-.74-2.69-1.59-5.45-2.88-8.7,6.61-1.96,12-5.14,16.16-9.55l.06-.12Z" style="fill:#f9af79; fill-rule:evenodd;"/><path d="M82.24,889.87c-8.02,54.12-11.76,139.47-11.21,221.81-7.71,39.06-7.35,101.57,1.22,228.24,15,3,28.04,3.61,39.06,1.78,19.59-118.16,27.06-179.82,22.47-225.67,6-32.87,14.2-93.31,24.61-140.33,10.47,47.02,18.67,107.45,24.67,140.33-4.65,45.86,2.81,107.51,22.4,225.67,11.02,1.83,24.13,1.22,39.12-1.78,8.51-126.67,8.94-189.18,1.22-228.24,.55-83.08-3.31-169.16-11.45-223.28-62.39,9-113.08,9.43-152.14,1.47Z" style="fill:#20386f; fill-rule:evenodd;"/><path d="M212.1,1364.48c-3.73,2.94-4.65,16.41-1.59,26.69,12.25,5.51,24.24,4.04,35.87-1.6,5.94-2.32,13.04-6.24,12.92-10.47-.24-8.02-.43-8.26-17.02-16.83,.25,1.65,.55,3.18,.86,4.53h0c-.73,1.96-2.2,3.31-4.96,1.6-3.06-2.02-2.02-8.45-10.66-8.57-7.1-.12-7.16,6.73-10.65,8.94-3.8,2.69-4.65-1.28-4.78-4.28Z" style="fill:#0e2952; fill-rule:evenodd;"/><path d="M105.14,1364.48c3.74,2.87,4.65,16.41,1.65,26.69-12.3,5.45-24.3,4.04-36-1.65-1.77-.86-8.94-3.13-9.49-5.09-2.02-6.98-.24-16.16,13.59-22.16-.19,1.59-.49,3.18-.79,4.53h0c.73,1.9,2.2,3.31,4.96,1.6,3.06-2.02,2.02-8.45,10.65-8.57,7.1-.12,7.16,6.67,10.65,8.94,3.8,2.64,4.59-1.34,4.78-4.28Z" style="fill:#0e2952; fill-rule:evenodd;"/><path d="M211.79,1342.44c1.28,10.04,1.65,18.73,1.04,25.83,.68,1.41,1.9,2.02,4.04,.49,3.49-2.21,3.55-9.06,10.65-8.94,8.63,.12,7.59,6.55,10.66,8.57,2.75,1.71,4.22,.36,4.96-1.6-1.35-6.12-2.14-14.88-2.39-26.14-10.71,1.9-20.39,2.51-28.96,1.78Z" style="fill:#f9af79; fill-rule:evenodd;"/><path d="M105.45,1342.44c-1.29,10.04-1.66,18.67-1.04,25.83-.67,1.35-1.9,1.96-4.04,.49-3.49-2.26-3.55-9.06-10.65-8.94-8.63,.12-7.59,6.55-10.65,8.57-2.75,1.71-4.22,.31-4.96-1.6,1.34-6.18,2.14-14.94,2.39-26.2,10.71,1.96,20.39,2.57,28.96,1.84Z" style="fill:#f9af79; fill-rule:evenodd;"/><path d="M242.96,674.02c-16.96,54.28-28.34,96.21-34.16,125.84-21.74,15.13-37.04,26.27-45.8,33.43,30.79-17.39,49.71-28.16,56.75-32.33,7.28,17.88,13.29,46.89,18.06,86.94,.31-15.43-3.12-44.57-10.35-87.43,3.55-40.53,8.69-82.71,15.49-126.46h0Zm74.02-64.99c6,3.03,10.65,6.49,14.02,10.32-7.29-2.85-15.31-4.65-24.06-5.51,3.55-1.75,6.86-3.34,10.04-4.81h0Zm-249.18,100.32c.24,4.41,1.28,11.36,3.18,20.88,3.73,25.31,10.78,61.01,15.24,115.87-3.12,13.16-8.14,30.37-9.31,42.61,.86,.18,1.71,.43,2.57,.55,1.83-8.94,6-21.36,12.36-37.34,2.57,1.83,9.98,4.53,22.23,8.08-5.39-4.72-10.72-9.31-16.04-13.71-9.37-53.51-19.47-99.12-30.24-136.93Z" style="fill:#466fb5; fill-rule:evenodd;"/></svg>