<?xml version="1.0" encoding="UTF-8"?><svg id="a" xmlns="http://www.w3.org/2000/svg" viewBox="0 0 1875.86 1688.96"><g><path d="M862.33,1688.96c435.54,0,790.77-11.43,790.77-25.45s-355.23-25.44-790.77-25.44-790.77,11.43-790.77,25.44,355.23,25.45,790.77,25.45Z" style="fill:#d2dfee; fill-rule:evenodd;"/><path d="M914.58,25.26c228.49,0,202.4,403.52,367.36,526.53,218.33,162.8,593.93,82.19,593.93,361.59,0,490.5-487.19,668.2-1018.1,668.2S-126.15,1309.52,31.94,820.33C190.01,331.13,383.66,25.26,914.58,25.26Z" style="fill:#eaeff8; fill-rule:evenodd;"/></g><g><rect x="248.04" y="1447.51" width="53.27" height="53.27" transform="translate(-962.03 626.14) rotate(-45.01)" style="fill:#bc5d59;"/><rect x="263.24" y="1462.7" width="22.88" height="22.88" transform="translate(-961.92 625.99) rotate(-45)" style="fill:#e7a084;"/><path d="M228.8,991.34s12.47-155.32-89.4-189.19c0,0,14.63,81.07,89.4,189.19Z" style="fill:#8bbae9; fill-rule:evenodd;"/><path d="M303.6,974.39s92.41-63.27,191.42,9.9c0,0-10.6-68-88.42-77.83-77.82-9.82-103,67.93-103,67.93Z" style="fill:#bbdbfa; fill-rule:evenodd;"/><path d="M215.17,1224.35s2.91-57.2-37.11-85.21c-55.07-38.52-95.4,3.88-95.4,3.88,0,0,97.25,18.13,132.51,81.33Z" style="fill:#8bbae9; fill-rule:evenodd;"/><path d="M294.66,1205.34s32.06-83.51,105.22-54.56c0,0-35.94,22.75-105.22,54.56Z" style="fill:#8bbae9; fill-rule:evenodd;"/><path d="M293.37,1346.84s37.48-44.29,79.62-24.38c0,0-2.31,21.9-79.62,24.38Z" style="fill:#8bbae9; fill-rule:evenodd;"/><path d="M202.13,1338.12s-33.12-46.69-71.39-23.94c0,0-2.58,6.46,24.82,9.82,27.4,3.36,46.57,14.12,46.57,14.12Z" style="fill:#c3dffa; fill-rule:evenodd;"/><path d="M352.71,1050.42s53.12-50.88,112.07-1.5c0,0-58.16,5.85-112.07,1.5Z" style="fill:#8bbae9; fill-rule:evenodd;"/><path d="M298.54,1064.7s-2.59-48.1,39.3-57.65c0,0-7.75,40.58-39.3,57.65Z" style="fill:#8bbae9; fill-rule:evenodd;"/><path d="M320.54,1086.82s38.23-24.2,81.93,9.15c0,0-33.54,13.76-81.93-9.15Z" style="fill:#c3dffa; fill-rule:evenodd;"/><path d="M164.23,1021s-33.23-69.03-114.15-40.85c0,0,31.82,38.27,114.15,40.85Z" style="fill:#a4d0fc; fill-rule:evenodd;"/><path d="M210.85,1050.18s19.43-32.8-9.27-68.48c0,0-17.4,36.9,9.27,68.48Z" style="fill:#a4d0fc; fill-rule:evenodd;"/><path d="M181.16,1073.22s-56.62-36.45-111.69,3.62c0,0,49.38,33.09,111.69-3.62Z" style="fill:#bbdbfa; fill-rule:evenodd;"/><path d="M262.71,1035.21s-30.89-54.8,15.91-96.17c0,0,14.7,44.21-15.91,96.17Z" style="fill:#a4d0fc; fill-rule:evenodd;"/><path d="M250.19,942.41s-7.25-108.32,82.21-134.95c0,0-17.33,77.56-82.21,134.95Z" style="fill:#bbdbfa; fill-rule:evenodd;"/><path d="M179.94,1010.29s21.38-52.38-2.14-92.19c0,0-32.69,43.48,2.14,92.19Z" style="fill:#c3dffa; fill-rule:evenodd;"/><path d="M281.91,1260.84s21.8-51.37,94.97-29.91c0,0-18.27,28.27-94.97,29.91Z" style="fill:#8bbae9; fill-rule:evenodd;"/><path d="M271.02,1217.7s-20.82-56.32,22.87-85.53c0,0,11.93,39.22-22.87,85.53Z" style="fill:#a4d0fc; fill-rule:evenodd;"/><path d="M182.94,1273.22s-28.14-55.73-94.07-29.88c0,0,27.85,36.49,94.07,29.88Z" style="fill:#a4d0fc; fill-rule:evenodd;"/><path d="M207.53,1275.21s-12.67-23.34-43.44-50.48c0,0,41.37-14.33,43.44,50.48Z" style="fill:#c3dffa; fill-rule:evenodd;"/><path d="M268.03,1337.7s.52-52.48,56.11-57.14c0,0-5.95,34.64-56.11,57.14Z" style="fill:#a4d0fc; fill-rule:evenodd;"/><path d="M214.84,1414.15s-14.8-44.65-72.21-30.18c0,0,13.08,31.4,72.21,30.18Z" style="fill:#a4d0fc; fill-rule:evenodd;"/><path d="M272.94,1420.43s12.15-42.65,62.82-37.22c0,0-3.36,35.42-62.82,37.22Z" style="fill:#a4d0fc; fill-rule:evenodd;"/><path d="M255.98,1154.73h0s-.48-.13-.48-.13h0l.48,.13h0Zm203.85-207.44c-.12-.08-12.79-8.78-31.56-15.3-11.04-3.84-22.01-6.2-32.6-7.01-13.28-1.02-26,.4-37.83,4.22-35.4,11.44-62.8,43.91-81.46,96.54-3.65,10.31-6.93,21.57-9.83,33.75-.75-5.32-1.75-13.89-2.27-24.29-.82-16.31-.57-40.57,5.27-63.52,.18-.69-.24-1.4-.93-1.58-.68-.18-1.39,.25-1.57,.94-5.91,23.26-6.17,47.79-5.35,64.29,.9,17.86,3.22,30.41,3.24,30.53l.09,.28c-6.77,30.65-11.27,66.81-13.43,108.06-2.18,41.61-1.98,88.46,.56,139.6-.26,1.51-.51,3.01-.75,4.54-5.51,35.02-6.21,68.72-5.83,90.82,.41,23.94,2.15,39.82,2.17,39.98,.07,.67,.63,1.16,1.28,1.16h.15c.7-.09,1.22-.73,1.14-1.43-.02-.17-1.74-15.92-2.16-39.75-.35-20.36,.23-50.63,4.66-82.67,.28,4.78,.56,9.59,.87,14.44,1.4,21.95,3.12,43.08,4.96,62.77-1.47,7.84-2.26,16.21-2.37,24.92-.25,19.6,3.09,34.52,3.13,34.66,.13,.61,.67,1.01,1.25,1.01l.29-.04c.69-.16,1.13-.83,.97-1.54-.03-.14-3.3-14.76-3.05-34.06,.05-4.29,.3-9.05,.83-14.05,.73,7.45,1.47,14.68,2.22,21.62-1.19,2.49-1.77,4.07-1.83,4.23-.24,.67,.11,1.41,.78,1.66,.14,.05,.29,.08,.44,.08,.51,0,.97-.3,1.18-.78,5.99,54.5,11.93,91.16,12.02,91.73,.11,.62,.65,1.08,1.28,1.08l.2-.02c.71-.12,1.18-.78,1.07-1.49-.09-.57-6.34-39.18-12.49-96,1.9-3.87,5.18-9.71,10.09-15.83,7.82-9.74,21.49-22.1,42.2-25.78,.7-.12,1.17-.79,1.05-1.49-.12-.71-.8-1.17-1.5-1.06-9.49,1.7-18.36,5.27-26.37,10.61-6.39,4.27-12.24,9.7-17.39,16.1-3.76,4.67-6.57,9.15-8.57,12.78-.95-8.97-1.89-18.38-2.81-28.14,2.45-12.94,7.17-26.75,15.82-38.75,14.41-19.97,37.11-31.6,67.47-34.54,.71-.07,1.23-.7,1.15-1.42-.07-.7-.7-1.23-1.41-1.15-31.13,3.02-54.44,15.01-69.31,35.59-6.49,9.01-11.37,19.7-14.51,31.79-.35-3.98-.7-7.99-1.05-12.06,.15-.21,.24-.44,.25-.71,0-.16,.52-14.95,5.35-32.22,4.44-15.84,13.52-37.05,31.59-48.06,.61-.36,.81-1.16,.44-1.78-.37-.6-1.16-.8-1.78-.43-8.32,5.06-15.5,12.57-21.36,22.31-4.65,7.74-8.48,16.92-11.38,27.26-2.1,7.52-3.41,14.58-4.21,20.23-.74-9.54-1.45-19.31-2.07-29.25-.56-8.65-1.07-17.6-1.53-26.77,1.53-8.96,3.41-18.21,5.76-27.53,.93-1.59,6.18-10.15,15.99-19.42,9.99-9.43,26.85-21.5,50.43-25.46,.7-.12,1.18-.78,1.06-1.48-.12-.71-.78-1.18-1.48-1.07-10.7,1.79-20.95,5.35-30.48,10.57-7.61,4.17-14.79,9.41-21.3,15.58-5.43,5.11-9.47,9.99-12.21,13.67,14.23-51.22,42.82-102.76,99.83-118.35,.69-.19,1.1-.9,.91-1.59-.19-.69-.9-1.09-1.59-.91-32.47,8.88-58.66,29.78-77.86,62.13-3.7,6.23-7.14,12.91-10.33,19.98-1.26-10.57-3.86-42.43,6.36-68.09,.27-.67-.06-1.42-.72-1.69-.67-.27-1.42,.06-1.68,.73-6.62,16.62-7.91,35.61-7.81,48.61,.1,14.05,1.78,24.37,1.79,24.46,.03,.14,.07,.28,.13,.4-7.26,17.1-13.05,36.52-17.33,58.02-2-46.44-2.34-97.91,1.22-146.97,.2-.14,.4-.37,.55-.73,.04-.12,.12-.28,.2-.5,3.69-8.99,15.49-34.85,37.81-59.66l.15-.07c.09-.04,9.26-4.12,23.84-6.41,13.44-2.11,34.36-3.12,57.71,4.14,.68,.21,1.41-.16,1.62-.85,.2-.67-.17-1.4-.85-1.62-23.88-7.42-45.25-6.38-58.98-4.21-8.64,1.37-15.35,3.31-19.53,4.73,25.02-26.15,62.06-49.96,114.06-49.96h.78c.71,0,1.29-.58,1.3-1.29,0-.71-.59-1.3-1.3-1.3-25.5-.12-49.5,5.45-71.33,16.55-16.74,8.51-32.28,20.31-46.25,35.09,.41-3.78,1.28-9.99,3.15-17.43,2.86-11.38,8.7-28.09,20.3-42.98,.44-.57,.34-1.38-.22-1.81-.57-.44-1.39-.34-1.82,.22-11.89,15.27-17.87,32.37-20.79,44.02-2.66,10.62-3.33,18.6-3.48,21.08-19.35,21.39-30.91,43.53-36.38,55.69,3.63-44.83,10.65-87.29,22.82-121.63,18.36-51.82,45.21-83.76,79.79-94.93,26.05-8.42,51.75-3.16,68.73,2.73,18.45,6.4,30.89,14.94,31.01,15.02,.59,.41,1.39,.27,1.8-.32,.4-.59,.26-1.39-.33-1.8Z" style="fill:#61a0e0; fill-rule:evenodd;"/><path d="M243.98,1192.7c-.03-9.88-.13-19.57-.32-29.1,.05-.16,.08-.33,.06-.51,0-.06-.03-.37-.08-.91-.86-42.95-3.22-82.38-7.08-117.98-.12-3.38-.61-26.14,4.67-56.86,5.27-30.61,17.5-75.53,45.95-115.81,.42-.58,.28-1.39-.31-1.79-.59-.41-1.39-.28-1.79,.3-12.69,17.96-23.27,38.33-31.44,60.53-6.54,17.74-11.57,36.69-14.95,56.34-2.61,15.14-3.82,28.39-4.36,38.37-1.62-12.62-3.44-24.7-5.46-36.24-5.81-33.14-13.36-62.08-22.43-86.03-10.03-26.41-22.16-47.42-36.09-62.43-.48-.53-1.31-.56-1.83-.08-.52,.49-.55,1.3-.06,1.83,26.24,28.3,45.72,77.8,57.87,147.15,2.99,17.1,5.54,35.43,7.65,54.9,0,.23,.02,.36,.02,.37,0,.12,.03,.22,.06,.32,3.27,30.35,5.45,63.48,6.54,99.2-.23-1.02-.46-2.07-.72-3.15-2.85-12.22-8.36-31.01-18.4-51.15-.44-.87-.88-1.74-1.32-2.6-2.14-8.87-10.37-44.41-12.37-73.95-.05-.7-.67-1.25-1.38-1.2-.72,.05-1.25,.67-1.21,1.38,1.58,23.36,7.02,50.39,10.34,65.26-7.25-12.66-15.59-24.3-24.97-34.78-1.01-3.01-13.37-40.55-14.84-75.09-.03-.71-.63-1.26-1.35-1.24-.71,.04-1.27,.64-1.23,1.35,1.2,28.22,9.58,58.39,13.29,70.51-2.71-2.83-5.5-5.58-8.36-8.24-21.88-20.29-48.39-35.15-78.77-44.17-.68-.21-1.4,.18-1.61,.87-.2,.68,.19,1.4,.87,1.61,64.95,19.28,99.91,62.29,118.17,96.75-4.1-2.56-11.79-6.78-22.93-10.54-9.98-3.37-20.66-5.66-31.74-6.81-13.85-1.42-28.36-1.07-43.16,1.07-.7,.11-1.19,.76-1.09,1.47,.1,.7,.75,1.19,1.47,1.09,32.94-4.77,58.18,.41,73.57,5.59,16.68,5.61,25.67,12.45,25.76,12.51l.6,.46c17.18,34.55,21.21,65.49,21.82,71.13,.2,9.91,.31,20.01,.35,30.29,.16,50.03-1.63,98.18-3.98,139.02-.81-10.12-1.89-20.52-3.3-30.98-6.01-44.31-16.76-80.54-31.94-107.69-19.09-34.13-45.28-53.95-77.83-58.9-.71-.11-1.37,.38-1.48,1.08-.1,.71,.38,1.37,1.09,1.47,31.71,4.83,57.27,24.21,75.95,57.6,15.03,26.85,25.67,62.77,31.63,106.76,1.28,9.36,2.27,18.68,3.05,27.8-3.13-6.43-9-16.82-18.45-28.06-.83-1-1.69-1.98-2.55-2.95,.04-.12,.06-.27,.05-.41-.02-.37-.53-9.02-3.59-20.32-2.81-10.48-8.44-25.2-19.19-35.96-.51-.5-1.32-.5-1.83,0-.51,.51-.51,1.33,0,1.83,10.34,10.34,15.77,24.6,18.52,34.75,1.97,7.33,2.87,13.62,3.25,17.06-7.61-8.1-16.07-15.18-25.23-21.14-14.2-9.24-30.12-15.76-47.32-19.39-.69-.15-1.39,.3-1.53,1-.14,.68,.3,1.39,.99,1.53,38.19,8.06,62.61,29.23,76.38,45.59,14.95,17.75,20.91,33.82,20.98,33.97l.13,.26c.39,5.36,.7,10.62,.96,15.75-2.52,38.67-5.34,68.88-6.96,84.97,.07-1.06,.13-2.13,.2-3.22,.04-.14,.04-.29,.03-.45,.15-2.97,.26-6.07,.3-9.27,.18-14.15-1-27.36-3.49-39.25-3.13-14.9-8.37-27.78-15.55-38.26-12.73-18.59-31.69-29.87-56.35-33.54-.7-.11-1.36,.38-1.46,1.08-.11,.71,.38,1.37,1.08,1.46,23.92,3.56,42.29,14.47,54.6,32.44,15.85,23.14,18.86,54.08,18.6,75.98-.02,1.46-.05,2.9-.09,4.32-1.93-3.53-5.13-8.63-9.87-13.91-4.95-5.52-10.58-10.09-16.69-13.57-7.65-4.33-16.12-6.96-25.15-7.8-.71-.07-1.34,.45-1.4,1.15-.07,.72,.45,1.35,1.16,1.42,19.58,1.83,32.62,12.13,40.1,20.44,7.32,8.15,10.93,16.04,11.62,17.63-1.04,18.98-4.09,32.71-4.13,32.87-.15,.69,.28,1.39,.98,1.55l.29,.03c.6,0,1.12-.41,1.25-1,.03-.12,1.46-6.54,2.7-16.65,.17,.44,.57,.78,1.07,.84h.15c.65,0,1.21-.47,1.29-1.14,.06-.58,3.28-28.67,6.56-72.63,.14,9.71,.09,18.56-.06,26.23-.52,27.48-2.34,45.93-2.35,46.12-.07,.71,.44,1.34,1.16,1.41h.12c.66,0,1.22-.49,1.28-1.15,.02-.19,1.85-18.71,2.37-46.29,.28-13.98,.23-31.93-.75-51.8,2.92-44.8,5.44-100.92,5.23-159.64Z" style="fill:#61a0e0; fill-rule:evenodd;"/><path d="M332.56,1461.79c0,5.48-.06,10.91-.2,16.29-.13,5.21-.33,10.39-.59,15.5-.3,6.21-.7,12.33-1.19,18.36-1.45,17.96-3.65,35.17-6.53,51.35-4.81,27.12-11.5,51.34-19.6,71.46-2.65,6.56-5.44,12.71-8.38,18.36-.34,.64-.67,1.26-.99,1.9-2.59,4.83-5.27,9.29-8.05,13.35h-82.15c-3.14-4.58-6.17-9.68-9.06-15.25-2.94-5.65-5.74-11.79-8.38-18.36-12.94-32.1-22.25-74.69-26.13-122.8-.49-6.04-.89-12.16-1.19-18.36-.27-5.12-.46-10.29-.59-15.5-.14-5.38-.21-10.82-.21-16.29,0-.68,0-1.38,0-2.05,.03-7.96,.2-15.8,.51-23.54h172.22c.31,7.74,.48,15.58,.51,23.54v2.05Z" style="fill:#a4d0fc; fill-rule:evenodd;"/><path d="M332.56,1461.79c0,5.48-.06,10.91-.2,16.29H159.53c-.14-5.38-.21-10.82-.21-16.29,0-.68,0-1.38,0-2.05h173.24v2.05Z" style="fill:#8bbae9; fill-rule:evenodd;"/><path d="M331.77,1493.59c-.3,6.21-.71,12.33-1.19,18.36H161.3c-.49-6.04-.89-12.16-1.2-18.36h171.66Z" style="fill:#8bbae9; fill-rule:evenodd;"/><path d="M304.45,1634.76c-2.65,6.56-5.44,12.71-8.38,18.36h-100.26c-2.94-5.65-5.74-11.79-8.38-18.36h117.02Z" style="fill:#dfedfa; fill-rule:evenodd;"/><path d="M307.44,1564.63c-39.81,0-64.94-24.47-80.69-52.68h103.83c.31-3.91,.59-7.87,.83-11.85-.25,3.98-.52,7.94-.83,11.85-.82,10.14-1.87,20.02-3.16,29.62-.99,7.42-2.11,14.67-3.37,21.72h0c-5.8,.91-11.34,1.33-16.61,1.33Z" style="fill:#c3dffa; fill-rule:evenodd;"/><path d="M331.77,1493.59h-113.86c-2.18-5.23-4.08-10.44-5.74-15.5h120.19c.04-1.39,.06-2.77,.09-4.17-.02,1.39-.05,2.78-.09,4.17-.13,5.21-.33,10.39-.59,15.5h0Zm.79-31.8v0h0Zm0-2.05h-125.63c-2.38-9.68-3.82-17.92-4.65-23.54h129.78c.31,7.74,.48,15.58,.51,23.54h0Z" style="fill:#c3dffa; fill-rule:evenodd;"/><path d="M332.35,1478.09h-120.19c-2.11-6.44-3.84-12.65-5.24-18.35h125.63v2.05h0c0,4.08-.04,8.12-.12,12.13h0c-.03,1.39-.05,2.78-.09,4.17Z" style="fill:#dfedfa; fill-rule:evenodd;"/><path d="M330.58,1511.96h-103.83c-3.36-6.02-6.29-12.2-8.84-18.36h113.86c-.11,2.18-.22,4.35-.35,6.52h0c-.25,3.98-.52,7.94-.83,11.85Z" style="fill:#dfedfa; fill-rule:evenodd;"/><path d="M287.02,1668.36h-82.15c-3.14-4.58-6.17-9.68-9.06-15.25h94.27c1.64,.66,3.3,1.3,4.99,1.9-2.59,4.83-5.27,9.29-8.05,13.35h0Zm-97.73-29.1c-.63-1.47-1.25-2.97-1.87-4.5-12.94-32.1-22.25-74.69-26.13-122.8-.3-3.65-.56-7.33-.78-11.05,.22,3.71,.49,7.4,.78,11.05h29.62c10.67,43.36,30.65,92.76,68.07,122.8h-71.57c.61,1.53,1.23,3.03,1.87,4.5h0Zm-2.44-145.67h-26.74c-.27-5.12-.46-10.29-.59-15.5h24.53c.81,4.96,1.73,10.16,2.8,15.5h0Zm-27.54-31.8h0c0-.68,0-1.38,0-2.05,0,.67,0,1.37,0,2.05h0Zm22.16-2.05h-22.15c.03-7.96,.2-15.8,.51-23.54h19.43c.39,5.99,1.07,14.04,2.21,23.54Z" style="fill:#8bbae9; fill-rule:evenodd;"/><path d="M184.05,1478.09h-24.53c-.14-5.38-.21-10.82-.21-16.29h0c0-.68,0-1.38,0-2.05h22.15c.68,5.65,1.54,11.79,2.58,18.35Z" style="fill:#61a0e0; fill-rule:evenodd;"/><path d="M190.93,1511.96h-29.62c-.29-3.65-.56-7.33-.78-11.05h0c-.16-2.42-.29-4.87-.41-7.32h26.74c1.18,5.95,2.53,12.09,4.08,18.36Z" style="fill:#61a0e0; fill-rule:evenodd;"/><path d="M290.08,1653.12h-94.27c-2.26-4.34-4.43-8.97-6.52-13.85h0c-.63-1.47-1.25-2.97-1.87-4.5h71.57c9.25,7.42,19.58,13.68,31.09,18.36Z" style="fill:#61a0e0; fill-rule:evenodd;"/></g><g><path d="M1199.06,188.16c9.39,39.26-14.93,78.6-54.05,87.95-39.28,9.38-78.56-14.77-87.94-54.03-9.37-39.24,14.75-78.57,54.03-87.95,39.13-9.35,78.6,14.79,87.97,54.03h0Zm-107.7-136.64c-24.78,5.92-49.53-5.63-61.39-26.7-15.69,8.52-30.11,19.04-42.78,31.1,16.11,17.71,19.55,44.75,6.52,66.13l-.31,.47-.42,.5,.04,.13c-1.27,2.09-2.56,4.28-3.78,6.34,.94-1.67,1.98-3.57,3.04-5.35-13.37,20.41-38.41,29.28-60.97,22.88-5.01,16.78-7.94,34.27-8.41,52.13,24.15,1.18,45.63,18,51.52,42.67,5.89,24.66-5.67,49.41-26.67,61.37,8.49,15.69,19,29.96,31.08,42.8,17.45-16.07,43.93-19.5,65.36-6.9l-5.19-3.37c2.09,1.25,4.2,2.65,6.29,3.96l1.14,.64c20.81,13.6,29.85,38.76,23.42,61.58,16.75,4.99,34.38,7.91,52.22,8.4,1.06-24.15,18.04-45.67,42.7-51.56,24.67-5.89,49.37,5.67,61.23,26.74,15.74-8.51,30.1-19.08,42.81-31.1-16.13-17.74-19.47-44.48-6.64-66l.45-.48,.16-.46c13.34-21.32,38.79-30.55,61.9-24.06,4.97-16.91,7.91-34.39,8.38-52.23-23.43-1.21-44.42-17.09-51.02-40.64l-.99-4.12c-4.76-23.99,6.8-47.62,27.16-59.28-8.5-15.73-19.01-30-31.06-42.71-17.58,15.99-44.23,19.33-65.65,6.7l-.16-.1-1.43-.89c-21.05-13.38-30.12-38.64-23.75-61.72-16.78-5.02-34.32-7.79-52.24-8.4-1.06,24.14-17.87,45.64-42.54,51.52Z" style="fill:#61a0e0; fill-rule:evenodd;"/><path d="M1182.13,192.2c7.16,29.96-11.32,59.89-41.16,67.01-29.97,7.16-59.87-11.21-67.03-41.17-7.15-29.94,11.22-59.84,41.2-67.01,29.83-7.12,59.84,11.22,66.99,41.16h0Zm-125.06,29.87c9.38,39.26,48.66,63.41,87.94,54.03,39.13-9.35,63.44-48.69,54.05-87.95-9.37-39.24-48.84-63.38-87.97-54.03-39.28,9.38-63.4,48.71-54.03,87.95Z" style="fill:#f2f2f2; fill-rule:evenodd;"/><path d="M1045.31,339.8l1.11,.52-1.14-.64,.03,.12h0Zm-1.12-.72l-5.19-3.36c2.09,1.26,4.2,2.65,6.29,3.96l-1.09-.59h0Zm237.84-168.57l-.4-2.07-.59-2.04,.99,4.12h0Zm-289.75-46.36c-1.06,1.78-2.1,3.68-3.04,5.35,1.22-2.06,2.51-4.25,3.78-6.34l-.75,.99Z" style="fill:#bbc2c3; fill-rule:evenodd;"/><path d="M1240.48,178.27c14.85,62.16-23.41,124.51-85.55,139.36-62.14,14.84-124.57-23.46-139.42-85.62-14.84-62.13,23.52-124.55,85.67-139.4,62.14-14.84,124.47,23.53,139.3,85.66h0Zm-246.76-56.21l-.23,.42-.43,.56c-20.89,34.37-28.67,76.63-18.61,118.77,10.14,42.41,36.45,76.73,70.93,97.9,34.41,21.13,76.93,29.16,119.38,19.02,42.15-10.07,76.28-36.16,97.5-70.33l.27-.56,.26-.42c21-34.36,28.96-76.71,18.85-119-10.05-42.1-36.06-76.16-70.15-97.37l-.19-.09-.66-.38-.6-.43-.12-.1c-34.3-20.78-76.53-28.55-118.54-18.52-42.28,10.09-76.45,36.33-97.66,70.5Z" style="fill:#bbdbfa; fill-rule:evenodd;"/><path d="M1182.13,192.2c7.16,29.96-11.32,59.89-41.16,67.01-29.97,7.16-59.87-11.21-67.03-41.17-7.15-29.94,11.22-59.84,41.2-67.01,29.83-7.12,59.84,11.22,66.99,41.16h0Zm-125.06,29.87c9.38,39.26,48.66,63.41,87.94,54.03,39.13-9.35,63.44-48.69,54.05-87.95-9.37-39.24-48.84-63.38-87.97-54.03-39.28,9.38-63.4,48.71-54.03,87.95Z" style="fill:#fff; fill-rule:evenodd;"/></g><path d="M1503.82,845.65l-14.08,8.19c-4.75,2.75-6.37,8.9-3.61,13.65l3.12,5.35c3.67,6.3,2.07,9.16,.93,10.18-3.14,2.8-6.05,5.85-8.96,8.88-.85,.9-3.58,3.93-10.74-.22l-4.91-2.86c-4.75-2.75-10.89-1.14-13.65,3.62l-8.19,14.08c-2.77,4.75-1.14,10.9,3.61,13.65l4.87,2.82c6.71,3.91,6.54,5.91,5.69,8.76-1.17,3.91-2.42,7.81-3.28,11.86-.76,3.61-.42,6.18-9.55,6.18h-5.59c-5.5,0-9.98,4.48-9.98,9.98v16.29c0,5.51,4.48,9.99,9.98,9.99h5.59c9.14,0,8.79,2.58,9.55,6.17,.85,4.05,2.1,7.96,3.28,11.86,.84,2.85,1.02,4.85-5.69,8.76l-4.87,2.82c-4.74,2.76-6.38,8.9-3.61,13.65l8.19,14.08c2.76,4.75,8.9,6.37,13.65,3.61l4.91-2.86c7.16-4.16,9.88-1.12,10.74-.22,2.91,3.03,5.82,6.08,8.96,8.89,1.14,1.01,2.73,3.87-.93,10.18l-3.12,5.35c-2.75,4.74-1.14,10.89,3.61,13.64l14.08,8.2c4.75,2.76,10.9,1.14,13.65-3.61l3.11-5.33c3.72-6.4,7.38-6.15,8.93-5.66,4.49,1.43,8.63,2.35,13.27,3.56,1.7,.44,4.59,1.67,4.59,9.3v5.71c0,5.51,4.48,9.99,9.99,9.99h16.29c5.5,0,9.99-4.48,9.99-9.99v-5.71c0-7.63,2.89-8.85,4.59-9.3,4.64-1.21,8.78-2.13,13.27-3.56,1.55-.5,5.21-.75,8.93,5.66l3.11,5.33c2.75,4.75,8.9,6.38,13.65,3.61l14.08-8.2c4.75-2.75,6.38-8.9,3.61-13.64l-3.11-5.35c-3.67-6.3-2.07-9.16-.93-10.18,3.14-2.81,6.04-5.86,8.96-8.89,.86-.9,3.58-3.93,10.74,.22l4.91,2.86c4.75,2.75,10.9,1.14,13.65-3.61l8.19-14.08c2.76-4.75,1.14-10.89-3.61-13.65l-4.87-2.82c-6.71-3.91-6.54-5.91-5.68-8.76,1.16-3.91,2.42-7.81,3.27-11.86,.76-3.6,.42-6.17,9.55-6.17h5.59c5.5,0,9.98-4.48,9.98-9.99v-16.29c0-5.51-4.48-9.98-9.98-9.98h-5.59c-9.14,0-8.79-2.58-9.55-6.18-.85-4.05-2.11-7.96-3.27-11.86-.85-2.85-1.03-4.85,5.68-8.76l4.87-2.82c4.74-2.75,6.37-8.9,3.61-13.65l-8.19-14.08c-2.75-4.76-8.9-6.38-13.65-3.62l-4.91,2.86c-7.16,4.16-9.88,1.12-10.74,.22-2.92-3.03-5.82-6.08-8.96-8.88-1.14-1.02-2.74-3.87,.93-10.18l3.11-5.35c2.76-4.75,1.14-10.9-3.61-13.65l-14.08-8.19c-4.75-2.76-10.9-1.14-13.65,3.61l-3.11,5.33c-3.72,6.41-7.38,6.15-8.93,5.66-4.48-1.44-8.63-2.36-13.27-3.57-1.7-.44-4.59-1.67-4.59-9.29v-5.72c0-5.5-4.49-9.98-9.99-9.98h-16.29c-5.51,0-9.99,4.48-9.99,9.98v5.72c0,7.62-2.89,8.85-4.59,9.29-4.64,1.21-8.77,2.13-13.27,3.57-1.55,.49-5.21,.75-8.93-5.66l-3.11-5.33c-2.75-4.75-8.9-6.38-13.65-3.61h0Zm61.68,42.36c44.13,0,79.9,35.77,79.9,79.9s-35.77,79.9-79.9,79.9-79.9-35.77-79.9-79.9,35.77-79.9,79.9-79.9Z" style="fill:#a4d0fc; fill-rule:evenodd;"/><g><path d="M697.34,328.62c-23.37,26.26-63.61,28.6-89.87,5.23-26.26-23.37-28.6-63.61-5.24-89.87,23.37-26.26,63.61-28.61,89.88-5.24,26.25,23.37,28.6,63.61,5.23,89.87h0Zm91.56-45.95h0Zm-231.37-134.43h0Zm-51.83,144.25h0Zm150.56,130.03c12.81-.61,25.54-3.01,37.79-7.2l23.02,22.82,24.99-13.76-6.96-31.67,5.66-4.8,20.66-23.23,32.05,4.93,10.88-22.51,.32-.82,.94-2.49-24.24-21.52,1.46-5.87,3.33-32.29,2.75-1.43,26.05-13.4c-.98-9.47-2.76-18.84-5.35-28.04l-32.23-3.16c-4.5-11.89-10.68-23.25-18.57-33.71l14.58-28.9-20.82-19.54-27.93,16.39c-10.95-7.22-22.69-12.68-34.82-16.39l-5.19-31.96c-9.35-2-18.83-3.18-28.33-3.55l-12.96,29.7-37.78,7.18-23.03-22.81c-8.62,3.81-17.01,8.4-25,13.77l6.96,31.65-26.3,28.05-32.05-4.93-12.14,25.83,24.23,21.53c-3.4,12.49-4.98,25.34-4.78,38.15l-7.73,4-21.07,10.84c.98,9.46,2.75,18.84,5.35,28.04l32.23,3.16c4.48,11.86,10.67,23.24,18.57,33.71l-14.58,28.91,20.82,19.54,27.92-16.39c10.93,7.19,22.67,12.65,34.82,16.38l5.2,31.96c9.35,1.99,18.83,3.17,28.33,3.54l12.97-29.69Z" style="fill:#87bef5; fill-rule:evenodd;"/><path d="M765,269.93c-.5,.56-1.21,.96-2.01,1.08-1.83,.28-3.54-.98-3.82-2.81-3.79-25.1-16.33-48.23-35.33-65.14-9.09-8.09-19.35-14.55-30.49-19.19-1.71-.72-2.51-2.68-1.8-4.4,.72-1.71,2.68-2.51,4.39-1.8,11.82,4.93,22.7,11.79,32.35,20.38,20.17,17.94,33.49,42.49,37.51,69.14,.16,1.02-.17,2.01-.81,2.73Z" style="fill:#fff; fill-rule:evenodd;"/><path d="M643.92,174.79c-.55,.62-1.32,1.03-2.21,1.11-14.93,1.32-29.15,5.59-42.24,12.67-1.62,.87-3.66,.27-4.56-1.36-.87-1.63-.27-3.67,1.37-4.55,13.92-7.52,29-12.05,44.85-13.46,1.83-.15,3.46,1.2,3.62,3.06,.09,.96-.23,1.85-.83,2.52Z" style="fill:#fff; fill-rule:evenodd;"/><path d="M554.08,234.93c-1,1.12-2.67,1.47-4.07,.75-1.62-.86-2.27-2.88-1.42-4.52,4.4-8.45,9.88-16.39,16.26-23.56,1.24-1.39,3.37-1.51,4.74-.28,1.39,1.23,1.51,3.35,.27,4.75-6.02,6.77-11.17,14.23-15.33,22.2-.12,.25-.28,.48-.46,.68Z" style="fill:#fff; fill-rule:evenodd;"/></g><g><g><path d="M1495.12,212.97H737.33c-21.41,0-19.7,66.82-24.7,88.07L416.31,1557.57c-5.02,21.25,44.74,72.89,66.13,72.89h757.79c21.4,0,42.47-17.51,46.8-38.92L1548.26,301.04c4.32-21.4-31.75-88.07-53.14-88.07Z" style="fill:#a4d0fc; fill-rule:evenodd;"/><path d="M1495.14,210.93H737.35c-17.46,0-20.89,36.4-23.56,64.67-.95,10.23-1.82,19.37-3.15,24.99L414.32,1557.12c-.27,1.12-.41,2.31-.42,3.52-.1,11.26,10.35,27.87,23.59,42.24,13.19,14.29,29.3,26.53,40.63,29.1,1.53,.34,2.97,.51,4.3,.51h757.79c11.19,0,22.28-4.55,31.12-11.9,8.82-7.34,15.44-17.49,17.7-28.68L1550.26,301.42c.26-1.26,.39-2.64,.4-4.12,.11-12.17-7.74-32.63-18.2-50.47h0c-10.56-18.01-23.92-33.55-34.74-35.65-.88-.17-1.75-.25-2.58-.25h0Zm-757.83,4.1h757.8c.59,0,1.2,.07,1.8,.18,9.59,1.85,21.97,16.56,32.02,33.69h0c10.14,17.3,17.75,36.93,17.65,48.39,0,1.25-.12,2.38-.31,3.36l-261.22,1290.5c-2.07,10.23-8.16,19.55-16.3,26.3-8.12,6.77-18.27,10.94-28.48,10.94H482.46c-1.06,0-2.2-.13-3.4-.41-10.53-2.38-25.84-14.13-38.54-27.9-12.65-13.69-22.6-29.27-22.51-39.45,0-.94,.1-1.83,.29-2.63L714.61,301.49c1.41-5.98,2.28-15.21,3.26-25.56,2.5-26.63,5.75-60.91,19.44-60.91Z" style="fill:#1e77d1; fill-rule:evenodd;"/><path d="M1482.1,212.97H724.3c-21.41,0-42.46,17.51-46.79,38.91L416.28,1542.4c-4.33,21.4,9.64,38.91,31.04,38.91h757.8c21.4,0,42.47-17.51,46.79-38.91L1513.14,251.88c4.33-21.41-9.63-38.91-31.04-38.91Z" style="fill:#fff; fill-rule:evenodd;"/><path d="M1482.11,210.91H724.32c-11.2,0-22.28,4.57-31.12,11.92-8.82,7.34-15.44,17.49-17.7,28.67L414.27,1542c-.53,2.66-.8,5.25-.82,7.75-.08,8.28,2.54,15.73,7.18,21.5,4.64,5.78,11.3,9.85,19.32,11.41,2.34,.45,4.8,.69,7.35,.69h757.8c11.18,0,22.27-4.56,31.11-11.92,8.83-7.34,15.44-17.49,17.71-28.67L1515.14,252.27c.54-2.65,.82-5.23,.83-7.74,.08-8.29-2.54-15.73-7.18-21.49-4.65-5.77-11.3-9.85-19.32-11.41-2.35-.46-4.82-.7-7.36-.7h0Zm-757.83,4.1h757.79c2.31,0,4.51,.21,6.6,.62,7.04,1.36,12.88,4.93,16.93,9.97,4.04,5.04,6.33,11.59,6.27,18.92-.03,2.27-.27,4.6-.75,6.98l-261.22,1290.5c-2.08,10.22-8.17,19.54-16.3,26.3-8.12,6.76-18.27,10.95-28.47,10.95H447.34c-2.31,0-4.5-.21-6.59-.6-7.03-1.39-12.89-4.94-16.93-9.97-4.06-5.05-6.34-11.59-6.28-18.92,.02-2.27,.27-4.61,.75-6.98L679.51,252.27c2.07-10.23,8.15-19.53,16.29-26.3,8.13-6.75,18.28-10.95,28.49-10.95Z" style="fill:#1e77d1; fill-rule:evenodd;"/><polygon points="1456.2 266.06 1200.7 1528.22 473.22 1528.22 728.71 266.06 1456.2 266.06" style="fill:#eff9fc; fill-rule:evenodd;"/><path d="M1453.7,268.11l-52.7,260.33c1.27,.66,2.51,1.37,3.74,2.09l53.96-266.51h-163.94c.79,1.35,1.58,2.72,2.34,4.09h156.59Zm-111.61,551.36l-143.06,706.69h-239.84c-.11,1.38-.27,2.74-.44,4.1h243.63l143.78-710.28c-1.38-.14-2.73-.31-4.07-.51h0Zm-402.51,706.69H475.73l111.54-551.03c-1.25-.75-2.48-1.54-3.68-2.36l-112.85,557.49h469.92c-.39-1.35-.75-2.71-1.08-4.1h0Zm-290.64-855.68l20.44-101.02c-1.17-1.2-2.31-2.45-3.41-3.74l-21.38,105.69c1.44-.35,2.9-.66,4.35-.93h0Zm48.97-241.9l32.48-160.47h235.02l1.51-4.09h-239.87l-33.78,166.87c1.52-.82,3.06-1.58,4.64-2.31Z" style="fill:#1e77d1; fill-rule:evenodd;"/></g><path d="M1073.99,247.82c13.94,0,22.96,11.3,20.14,25.24-2.82,13.95-16.41,25.25-30.35,25.25s-22.96-11.3-20.14-25.25c2.81-13.94,16.4-25.24,30.35-25.24Z" style="fill:#a4d0fc; fill-rule:evenodd;"/><g><g><path d="M1095.2,471.06c71.41,40.52,83.43,137.92,26.82,217.53-56.61,79.62-160.41,111.3-231.84,70.78-71.42-40.52-83.44-137.93-26.83-217.54,56.61-79.61,160.41-111.3,231.85-70.78Z" style="fill:#fff; fill-rule:evenodd;"/><path d="M1097.5,467.79c9.82,5.57,18.53,12.2,26.13,19.69-2.18,1.61-4.09,3.58-5.61,5.81-46.3-45.8-125.5-48.52-192.7-5.85-.44-2.31-1.4-4.39-2.78-6.11,57.59-36.4,125.1-41.82,174.96-13.53h0Zm62.77,96.17c5.01,40.28-6.37,85.55-35.33,126.29-57.89,81.41-164.05,113.8-237.08,72.36-30.95-17.56-51.19-45.83-59.56-78.94,2.5-1.2,4.81-2.87,6.78-4.89,7.74,32.58,27.41,60.29,57.42,77.32,69.82,39.61,171.26,8.66,226.6-69.17,28.35-39.86,39.07-84.26,33.42-123.41,2.4,.72,5.07,.87,7.76,.44h0Zm-335.76,70.15c2.43-.94,4.97-1.43,7.46-1.4,1.44-15.93,5.38-32.31,11.97-48.63-1-2.65-1.26-5.72-.6-9l2.15-10.64c-12.12,23.06-19.01,46.78-20.97,69.67Z" style="fill:#61a0e0; fill-rule:evenodd;"/></g><g><path d="M939.5,653.37c-7-26.96-4.43-48.47,6.21-57.97,21.88,21.3,19.31,42.8-6.21,57.97Z" style="fill:#284191; fill-rule:evenodd;"/><path d="M948.85,693.74l-17.08,84.55c25.85,4.6,53.46,2.42,80.31-5.78,26.5-8.09,52.29-22.05,74.96-41.14,2.96-35.85-1.5-52.59-26.61-55.9-6.61-3.32-15.86-4.81-26.07-9.85-24.28,21.36-57.69,30.74-85.51,28.12Z" style="fill:#8bbae9; fill-rule:evenodd;"/><path d="M947.77,646.93c49.61-156.02,41.97,29.93,75.58,15.36,2.68,1,5.25,2.1,7.72,3.33-26.94,27.04-56.93,34.9-89.99,23.58,2.88-5.85,5-13.21,6.37-22.09-.57-3.57-.46-10.29,.33-20.17Z" style="fill:#ffb27d; fill-rule:evenodd;"/><path d="M995.68,689.2c-14.51,4.36-27.41,5.88-38.71,4.54l-17.33,85.74c23.54,2.91,48.29,.4,72.44-6.97,5.27-1.61,10.52-3.45,15.73-5.52,56.31-155.92-66.17-45.69-32.13-77.79Z" style="fill:#8bbae9; fill-rule:evenodd;"/><path d="M1006.07,646.93c4.63-21.89,5.95-41.13,22.81-57.99,8.95-20.33,2.61-37.23,10.23-60.54-13.37-3.93-24.31-14.59-32.8-32-15.07,16.15-31.73,28.79-49.98,37.9-.55,11.9-4.12,27.16-10.71,45.82-2.05,6.86,4.22,8.06,5.59,15.11,.74,3.76-.38,11.86,1.28,15.15,7.75,15.41,13.27,30.32-28.2,51.91-3.09,1-6.11,2.1-9.07,3.33,16,27.04,42.83,34.9,80.46,23.58-.51-5.85,.34-13.21,2.57-22.09,2.01-3.57,4.62-10.29,7.82-20.17Z" style="fill:#ffb27d; fill-rule:evenodd;"/><path d="M1016.28,607.08c-22.56,21.85-40.32,27.07-53.27,15.66,5.83,11.5,16.68,14.77,32.55,9.82,6.18,1.68,8.96,8.62,8.34,20.82,.68-1.98,1.41-4.12,2.17-6.45,3.04-14.4,4.66-27.66,10.21-39.85Z" style="fill:#f08261; fill-rule:evenodd;"/><path d="M1029.6,766.26c1.87-10.76,4.59-21.48,9.24-33.53-6.55,11.55-10.92,23.47-14.17,35.47,1.65-.62,3.29-1.27,4.93-1.94Z" style="fill:#61a0e0; fill-rule:evenodd;"/><path d="M989.36,693.74l-17.47,86.44c-29.72,2.25-58.85-3.26-84.03-17.55-20.28-11.51-35.88-27.51-46.59-46.36,10-25.54,21.47-37.99,43.9-40.79,5.33-2.23,10.02-2.86,14.07-1.88,5.1-3.03,10.43-5.68,15.98-7.97,13.93,23.52,44.69,31.46,74.14,28.12Z" style="fill:#8bbae9; fill-rule:evenodd;"/><path d="M888.18,762.8c2.04-9.61,3.35-19.31,3.54-30.08,1.7,10.47,1.5,21.26,.25,32.14-1.27-.67-2.54-1.35-3.79-2.06Z" style="fill:#61a0e0; fill-rule:evenodd;"/><path d="M914.13,670.2c-.85-1.27-.34-3.21,1.15-4.32,1.49-1.11,3.41-.98,4.26,.29,6.23,9.26,16.91,17.27,29.22,21.78,11.1,4.08,23.47,5.29,34.98,1.97,7.91-2.28,14.91-4.84,20.96-7.67,5.93-2.77,10.93-5.8,15-9.07,1.46-1.17,3.39-1.14,4.32,.08,.91,1.21,.49,3.15-.96,4.32-4.57,3.68-10.13,7.06-16.65,10.1-6.38,2.99-13.76,5.68-22.08,8.08-12.89,3.72-26.56,2.43-38.71-2.02-13.22-4.85-24.74-13.52-31.49-23.55Z" style="fill:#61a0e0; fill-rule:evenodd;"/><path d="M910.49,688.2c-.9-1.01-.46-2.56,.99-3.44,1.45-.88,3.37-.78,4.27,.24,6.61,7.38,17.61,13.76,30.11,17.36,11.27,3.25,23.68,4.21,35.05,1.57,7.82-1.81,14.71-3.85,20.66-6.11,5.81-2.2,10.69-4.62,14.63-7.23,1.4-.93,3.34-.91,4.31,.07,.98,.97,.62,2.51-.78,3.45-4.42,2.94-9.84,5.62-16.23,8.05-6.26,2.38-13.52,4.52-21.74,6.43-12.74,2.97-26.46,1.94-38.79-1.61-13.43-3.87-25.29-10.77-32.47-18.77Z" style="fill:#61a0e0; fill-rule:evenodd;"/><path d="M1005.07,492.2c6.78-.63,10.12,1.34,10.04,5.91-6.4,8.45-14.04,13.59-22.92,15.41,4.34-3.08,8.63-10.19,12.88-21.32Z" style="fill:#284191; fill-rule:evenodd;"/><path d="M1058.23,565.83c-19.08-15.39-32.61-28.43-40.57-39.15-34.8,6.78-52.11-.93-51.9-23.15,7.43-25.37,26.01-35.26,55.74-29.68,40.28,4.48,52.53,35.14,36.72,91.98Z" style="fill:#284191; fill-rule:evenodd;"/><path d="M954.32,560.49c7.76-16.4,11.54-29.53,21.12-36.21,9.61-55.34-20.86-32.75-35.89,3-14.05,33.41-29.51,84.23-39.62,149.38,7.65-1.66,17.16-5.44,28.53-11.34,33.49-17.37,18.43-89.09,25.87-104.83Z" style="fill:#284191; fill-rule:evenodd;"/><path d="M1029.92,520.19c11.36-30.07,13.19-25.42,22.52-8.76,23.63-7.34,1.28,161.3-26.29,178.3-1.56,.97-2.74-1.9-4.65-3.5-35.5-30.04-6.44-73.24,3.22-90.63,2.01-3.62,5.13-17.17,8.4-33.7,3.53-17.79,1.27-36.19-3.21-41.71Z" style="fill:#284191; fill-rule:evenodd;"/><path d="M980.78,495.71c-4.77,5.61-8.98,7.32-12.65,5.15-1.92-8.92-.16-17.29,5.26-25.09-.86,4.82,1.61,11.47,7.39,19.94Z" style="fill:#284191; fill-rule:evenodd;"/><path d="M965.67,496c3.53-.11,5.63-1.39,6.26-3.84-2.18-4.11-5.52-6.36-10.01-6.75,1.87,1.36,3.12,4.9,3.75,10.59Z" style="fill:#284191; fill-rule:evenodd;"/><path d="M1077.05,681.62c.49-.83-7.53-7.71-7.74-9.51-8.05-65.75-25.83-92.49-35.01-108.53-32.62,66.51-38.11,101.6-16.48,105.28,5.6-.65,15.52,1.86,51.45,10.54,1.58,.38,6.86,3.82,7.79,2.22Z" style="fill:#284191; fill-rule:evenodd;"/><path d="M1028.4,525.68c-3.55-1.81-6.33-1.42-8.35,1.19-.2,6.16,1.79,10.7,5.99,13.64-1.07-2.67-.28-7.61,2.35-14.83Z" style="fill:#284191; fill-rule:evenodd;"/><path d="M967.16,712.59c5.27,0,8.68,4.27,7.61,9.54-1.07,5.27-6.2,9.54-11.46,9.54s-8.68-4.28-7.61-9.54c1.07-5.27,6.2-9.54,11.46-9.54Z" style="fill:#61a0e0; fill-rule:evenodd;"/><path d="M965.99,718.34c2.1,0,3.45,1.7,3.03,3.8-.42,2.1-2.46,3.8-4.56,3.8s-3.45-1.7-3.03-3.8c.43-2.1,2.47-3.8,4.56-3.8Z" style="fill:#61a0e0; fill-rule:evenodd;"/><path d="M963.09,732.7c2.1,0,3.45,1.7,3.03,3.8-.42,2.1-2.46,3.8-4.56,3.8s-3.45-1.7-3.02-3.8c.42-2.1,2.47-3.8,4.56-3.8Z" style="fill:#61a0e0; fill-rule:evenodd;"/></g></g><path d="M852.76,409.39h84.38l-2.09,10.33h-84.38c-2.91,0-5.81,1.19-8.13,3.12-2.32,1.93-4.05,4.58-4.64,7.5l-19.39,95.91h-10.32l19.38-95.91c1.16-5.76,4.58-11,9.15-14.8,4.55-3.79,10.27-6.15,16.03-6.15h0Zm278.62,0h84.38c5.76,0,10.52,2.36,13.55,6.15,3.03,3.8,4.33,9.04,3.16,14.8l-19.38,95.91h-10.33l19.39-95.91c.59-2.92-.08-5.57-1.62-7.5-1.54-1.93-3.95-3.12-6.86-3.12h-84.37l2.08-10.33h0Zm45.75,294.81l-19.38,95.91c-1.16,5.76-4.57,11-9.14,14.79-4.56,3.79-10.27,6.15-16.04,6.15h-84.37l2.09-10.33h84.37c2.91,0,5.82-1.19,8.13-3.12,2.31-1.92,4.05-4.58,4.64-7.5l19.38-95.91h10.32Zm-323.17,116.85h-84.38c-5.75,0-10.52-2.36-13.55-6.15-3.02-3.79-4.32-9.03-3.15-14.79l19.38-95.91h10.33l-19.39,95.91c-.59,2.91,.07,5.57,1.61,7.5,1.54,1.93,3.95,3.12,6.87,3.12h84.37l-2.09,10.33Z" style="fill:#1e77d1; fill-rule:evenodd;"/><path d="M713.58,867.15h456.37c2.33,0,3.85,1.9,3.38,4.23l-13.19,65.24c-.47,2.33-2.75,4.22-5.08,4.22h-456.37c-2.33,0-3.85-1.89-3.37-4.22l13.19-65.24c.46-2.33,2.75-4.23,5.08-4.23Z" style="fill:#a4d0fc; fill-rule:evenodd;"/><path d="M632.31,985.48h571.11c2.33,0,3.84,1.9,3.37,4.22l-13.18,65.24c-.47,2.33-2.75,4.23-5.08,4.23H617.41c-2.32,0-3.84-1.9-3.37-4.23l13.18-65.24c.47-2.32,2.76-4.22,5.09-4.22Z" style="fill:#d2e5f7; fill-rule:evenodd;"/><path d="M607.68,1107.36h571.11c2.33,0,3.85,1.9,3.38,4.23l-13.18,65.23c-.47,2.33-2.75,4.23-5.08,4.23H592.78c-2.32,0-3.84-1.9-3.37-4.23l13.18-65.23c.47-2.33,2.75-4.23,5.08-4.23Z" style="fill:#d2e5f7; fill-rule:evenodd;"/></g><g><path d="M354.16,640.99c10.34-23.87,21.81-106.01,41.54-162.42,10.58-30.27,33.03-56.43,62.65-61.26,13.19-2.14,28.93-8.43,43.75,5.34,59.92-3.73,99.95,163.97,29.46,207.78,.68,35.35-17.56,70.43-47.72,85.53-7.25,3.65-18.56,8.69-19.99,10.26,1.87-1.83-14.49,82.44-89.74,50.82-29.12,21.57-29.33-114.36-19.95-136.05Z" style="fill:#284191; fill-rule:evenodd;"/><polygon points="434.06 1518.14 455.26 1607.43 487.01 1607.24 488.18 1518.14 434.06 1518.14" style="fill:#ffb27d; fill-rule:evenodd;"/><polygon points="701.19 1521.94 761.51 1607.43 785.02 1577.22 748.71 1510.16 701.19 1521.94" style="fill:#ffb27d; fill-rule:evenodd;"/><path d="M517.47,618.26c.27,.11-25.47,13.47-44.82,8.19-18.21-4.99-30.1-28.58-29.85-28.64,7.71-1.54,9.94-12.11,9.77-57.67l3.49,.71,58.6,11.6s-1.33,18.44-1.37,35.81c-.04,14.59,.83,28.42,4.17,29.99Z" style="fill:#ffb27d; fill-rule:evenodd;"/><path d="M514.67,552.46s-1.33,18.44-1.37,35.81c-32.8-.92-50.13-30.85-57.23-47.42l58.6,11.6Z" style="fill:#f08261; fill-rule:evenodd;"/><path d="M444,542.91s-22.22-23.24-30.83-45.17c-6.16-15.67-10.03-77.58,52.23-81.1,0,0,17.94-1.82,36.71,6.02,14.94,6.21,37.76,21.56,27.15,78.39l-1.93,18.88-83.33,23Z" style="fill:#284191; fill-rule:evenodd;"/><path d="M779.37,1557.7s-15.58,2.68-28.36,3.66c-2.84,.22-5.54,.35-7.89,.35-6.15,0-17.25-2.33-24.71-4.07l-.56-.11c-3.27-.78-5.77-1.4-6.7-1.65l-.38-.11s-77.68-86.48-121.24-225.11c-1.02-3.21-2.1-6.46-3.22-9.75-23.84-69.55-73.28-156.81-99.33-235.82-4.14-12.56-7.86-24.38-11.2-35.59-1.07-3.61-2.11-7.14-3.11-10.6-19.2-66.71-24.75-110.49-29.86-157.3l156.62,39.86s65.75,285.06,179.95,636.24Z" style="fill:#4567c6; fill-rule:evenodd;"/><path d="M515,570.74c-18.62,6.55-62.09,3.44-76.58-41.7-7.58-47.73-22.55-78.14,25.94-88.7,48.5-10.52,60.89,6.18,67.29,21.49,5.75,13.8,9.63,81.22-4,98.03-2.21,2.73-9.67,9.83-12.65,10.87Z" style="fill:#ffb27d; fill-rule:evenodd;"/><path d="M496.06,433.07s-9.63,59.79-39.93,74.46c-30.3,14.63-45.9,8.89-45.9,8.89,0,0,20.59-24.43,18.83-59.46,0,0,45.96-47.19,66.99-23.89Z" style="fill:#284191; fill-rule:evenodd;"/><path d="M491.81,438.63s18.05,9.28,24.29,20.58c6.22,11.28,12.05,35.72,19.12,33.41,0,0,8.96-40.87-12.99-58.68-23.27-18.9-30.42,4.68-30.42,4.68Z" style="fill:#284191; fill-rule:evenodd;"/><path d="M454.19,1602.43s2.57,17.69-4.04,36.61c0,0-5.19,23.67,18.12,24.11,23.32,.45,29.05-1.74,26.39-16.28-2.62-14.53-7.65-39.63-7.65-39.63l-32.82-4.81Z" style="fill:#fab280; fill-rule:evenodd;"/><path d="M450.15,1639.04s-4.32,22.37-1.68,34.25c0,0,7.05,5.28,23.99,5.28,16.06,0,24.43-5.28,24.43-5.28,0,0,.49-24.51-3.79-34.88,0,0-16.54,24.85-42.94,.63Z" style="fill:#163560; fill-rule:evenodd;"/><path d="M841.23,1649.24s-43.01-47.71-56.2-72.02l-31.99,16.4,71.49,67.12,16.72-2.2-.02-9.3Z" style="fill:#fab280; fill-rule:evenodd;"/><path d="M868.54,1677.22s-46.21,0-54.13-.87c-7.92-.89-14.3-12.33-22.88-29.5-3.52-7.02-11.39-10.87-19.46-13.02v39.75h-12.23l-11.55-42.23c-7.62-14-.6-26.68,4.75-37.72,6.24-.02,23.01,4.23,54.76,40.02,10.44,11.77,21.98,15.98,33.43,15.59l.47,.28c26.41,11.87,26.84,27.71,26.84,27.71Z" style="fill:#163560; fill-rule:evenodd;"/><path d="M751,1561.36c-2.84,.22-5.54,.35-7.89,.35-6.15,0-17.25-2.33-24.71-4.07l-.56-.11-6.7-1.65-.38-.11s-77.68-86.48-121.24-225.11c-1.02-3.21-2.1-6.46-3.22-9.75-23.84-69.55-73.28-156.81-99.33-235.82-4.14-12.56-7.86-24.38-11.2-35.59-1.07-3.61-2.11-7.14-3.11-10.6l27.71-21.01s83.16,134.64,108.9,261.38c21.35,105.04,113.21,241.23,141.74,282.1Z" style="fill:#3b5bb3; fill-rule:evenodd;"/><path d="M503.26,1291.08c.46,61.6-2.66,203.31-10.67,261.98,0,0-7.61,6.73-26.48,6.82-19.33,.07-27.97-7.05-27.97-7.05-20.14-102.02-34.47-186.4-44.9-259.11-8.56-59.69-16.15-110.86-22.01-154.89-5.19-39.02-8.99-72.47-10.82-101.31-.23-3.92-.45-7.74-.63-11.48-.22-4.93-.4-9.74-.49-14.39-.09-4.7-.12-9.25-.07-13.67l.67-.06,38.91-3.8,122.94-11.98c-2.06,107.97-18.75,273.13-18.48,308.94Z" style="fill:#4567c6; fill-rule:evenodd;"/><path d="M466.11,1559.88c-16.45,.94-27.97-7.05-27.97-7.05-20.14-102.02-34.47-186.4-44.9-259.11-8.56-59.69-16.15-110.86-22.01-154.89-5.19-39.02-8.99-72.47-10.82-101.31-.21-14.19-.36-27.81-.52-39.61-.18-11.99-.36-22.09-.69-29.15l39.61,25.34,41.67,26.66s-59.12,53.77-44.6,155.42c14.53,101.68,50,369.28,70.23,383.68Z" style="fill:#3b5bb3; fill-rule:evenodd;"/><path d="M498.32,595.84s63.17-10.01,84.39,11.09c25.98,25.84,74.76,174.07,72.84,190.96-.75,6.48-26.39,3.48-35.18-5.75-43.81-45.96-106.63-161.93-122.04-196.31Z" style="fill:#61a0e0; fill-rule:evenodd;"/><path d="M621.02,1009.71c-47.16,12.25-267.22,36.44-269.13-18.65-.46-13.45,0-29.7,1.07-47.26,3.29-54.45,12.22-121.74,16.5-158.76,1.97-16.98-4.56-92.98,.45-134.41,.74-6.13,1.72-11.53,3.03-15.83,9.51-31.26,52.23-39.73,74.16-40.48l66.29,2.26s68.18,71.82,77.69,95.28c9.51,23.42,12.62,103.71,20,142.56,7.39,38.89,32.89,169.36,9.95,175.29Z" style="fill:#61a0e0; fill-rule:evenodd;"/><path d="M491.06,823.43s-36.78,112.96-138.11,120.37c3.29-54.45,12.22-121.74,16.5-158.76,1.97-16.97-4.56-92.98,.45-134.41,1.31,.27,2.51,1,3.89,1.28,111.56,21.55,127.4,147.96,117.26,171.52Z" style="fill:#4f8ecc; fill-rule:evenodd;"/><path d="M652.35,800.69s-66.42,21.77-147.33-13.16c0,0-22.05-2.09-32.98,.71,0,0,2.34-21.85,13.04-27.83,10.69-5.94,56.71,6.92,70.46,5.05,30.06-4.15,82.42-7.38,96.81,35.23Z" style="fill:#f0a16e; fill-rule:evenodd;"/><path d="M593.16,749.82s6.23-53.96-14.89-86.5c0,0,7.46-2.54,12.81,5.91,5.35,8.46,42.65,88.64,24.89,94.52-17.75,5.91-22.81-13.94-22.81-13.94Z" style="fill:#4f8ecc; fill-rule:evenodd;"/><path d="M496.2,758.85c-.95,0-31.37,3.96-36.75,7.75-5.4,3.83-.63,17.11,9.5,18.39,10.14,1.27,27.25-26.14,27.25-26.14Z" style="fill:#f0a16e; fill-rule:evenodd;"/><path d="M413.06,779.29s86.63-3.17,165.21-18.38c0,0,14.37,.13,12.68,12.69-1.7,12.53-136.2,82.76-165.78,69.23l-12.11-63.54Z" style="fill:#ffb27d; fill-rule:evenodd;"/><path d="M578.27,760.91s9.2-11.09,14.89-11.09,20.6,7.3,22.81,13.94c2.21,6.67-17.62,1.9-25.02,9.84-7.41,7.92-12.68-12.69-12.68-12.69Z" style="fill:#fab280; fill-rule:evenodd;"/><path d="M447.1,594.32s-72.79,.19-83.45,26.33c-19.43,47.74,44.62,206.12,61.52,222.17,7.27,6.91,40.94-3.97,40.94-49.6,0-23.64-1.71-161.87-19.01-198.91Z" style="fill:#61a0e0; fill-rule:evenodd;"/><path d="M492.97,435.96c6.84,3.59,11.71,3.12,14.61-1.4-1.33-11.1-6.15-19.48-14.44-25.16,2.62,4.92,2.57,13.78-.17,26.57Z" style="fill:#284191; fill-rule:evenodd;"/><path d="M499.71,438.61c-4.94,.96-6.73-.84-5.41-5.42,6.85-8.76,13.63-14.27,20.37-16.54-3.9,3.29-8.89,10.61-14.96,21.95Z" style="fill:#284191; fill-rule:evenodd;"/><path d="M490.08,438.96c7.07-3.1,11.9-2.3,14.47,2.42-2.1,10.98-7.48,19.01-16.15,24.1,2.97-4.73,3.52-13.57,1.68-26.52Z" style="fill:#284191; fill-rule:evenodd;"/><path d="M536.82,483.96c-3.94-1.86-6.67-1.48-8.2,1.14,1,6.23,3.92,10.83,8.73,13.84-1.6-2.71-1.77-7.7-.53-14.98Z" style="fill:#284191; fill-rule:evenodd;"/><path d="M511.48,593.58c2.06-.04,3.77,1.59,3.82,3.65,.04,2.06-1.58,3.77-3.64,3.83-35.81,.89-56.95,1.19-63.41,.89-2.06-.08-3.66-1.83-3.57-3.9,.08-2.06,1.84-3.65,3.9-3.57,6.33,.29,27.3,0,62.9-.89Z" style="fill:#4f8ecc; fill-rule:evenodd;"/><path d="M509.99,600.69c2.02-.04,3.68,1.6,3.71,3.66,.04,2.06-1.56,3.77-3.57,3.81-14.58,.34-26.2,.59-34.83,.73-8.66,.15-14.33,.18-16.98,.12-2.02-.04-3.61-1.74-3.57-3.81,.04-2.06,1.7-3.7,3.71-3.66,2.58,.06,8.16,.02,16.71-.12,8.58-.13,20.19-.39,34.81-.73Z" style="fill:#4f8ecc; fill-rule:evenodd;"/><path d="M507.25,606.55c2.06-.08,3.81,1.51,3.9,3.57,.09,2.06-1.51,3.81-3.57,3.89-10.82,.51-18.93,.83-24.9,.99-6.04,.16-9.79,.16-11.84,.03-2.06-.14-3.61-1.93-3.48-3.98,.13-2.06,1.93-3.62,3.99-3.49,1.9,.13,5.44,.13,11.14-.03,5.76-.16,13.84-.48,24.77-.99Z" style="fill:#4f8ecc; fill-rule:evenodd;"/><path d="M506.05,612.13c2.06-.02,3.76,1.63,3.78,3.69,.02,2.06-1.63,3.76-3.69,3.77-8.78,.12-15.18,.46-19.68,.69-4.32,.23-6.99,.37-8.89,.12-2.04-.25-3.49-2.13-3.24-4.17,.26-2.04,2.13-3.49,4.17-3.23,1.19,.15,3.63,.02,7.58-.18,4.45-.24,10.79-.58,19.96-.69Z" style="fill:#4f8ecc; fill-rule:evenodd;"/><path d="M498.73,615.96c2.05-.03,3.76,1.61,3.79,3.67,.03,2.06-1.62,3.77-3.68,3.8-3.74,.06-6.63,.28-8.66,.42-2.1,.15-3.42,.24-4.55,.05-2.04-.35-3.41-2.28-3.06-4.32,.35-2.04,2.28-3.41,4.32-3.06,.23,.04,1.2-.03,2.77-.14,1.97-.14,4.78-.35,9.07-.42Z" style="fill:#4f8ecc; fill-rule:evenodd;"/><path d="M495.11,622.34c2.05-.2,3.88,1.31,4.09,3.36,.2,2.05-1.31,3.88-3.36,4.08-.16,.01-.37,.1-.52,.16l-.28,.11c-1.59,.62-2.66,.9-4.4-.77-1.48-1.43-1.53-3.8-.1-5.29,.65-.67,1.48-1.05,2.35-1.13,.53-.2,1.24-.42,2.22-.52Z" style="fill:#4f8ecc; fill-rule:evenodd;"/><path d="M354.11,986.45c-1.83-.93-2.57-3.18-1.64-5.02,.91-1.85,3.15-2.59,4.98-1.66,31.78,16.1,68.72,24.43,112.47,25.27,44.01,.83,94.94-5.91,154.49-19.95,1.99-.47,4,.79,4.46,2.8,.46,2.01-.78,4.03-2.77,4.49-60.1,14.17-111.62,20.97-156.29,20.12-44.92-.86-82.92-9.47-115.69-26.06Z" style="fill:#4f8ecc; fill-rule:evenodd;"/></g><path d="M1110.98,1236.81l-21.55,12.54c-7.27,4.23-9.76,13.62-5.53,20.9l4.76,8.18c5.61,9.65,3.17,14.02,1.42,15.58-4.8,4.3-9.25,8.96-13.7,13.61-1.31,1.37-5.48,6.02-16.44-.35l-7.52-4.36c-7.26-4.23-16.67-1.74-20.9,5.52l-12.54,21.56c-4.23,7.26-1.74,16.66,5.53,20.89l7.44,4.33c10.28,5.98,10.02,9.04,8.71,13.39-1.79,5.99-3.7,11.97-5.02,18.17-1.16,5.51-.64,9.45-14.62,9.45h-8.56c-8.43,0-15.29,6.86-15.29,15.29v24.94c0,8.42,6.86,15.29,15.29,15.29h8.56c13.98,0,13.45,3.93,14.62,9.45,1.31,6.19,3.23,12.18,5.02,18.16,1.31,4.36,1.57,7.42-8.71,13.4l-7.44,4.32c-7.27,4.24-9.76,13.64-5.53,20.9l12.54,21.56c4.23,7.26,13.63,9.75,20.9,5.52l7.52-4.36c10.96-6.38,15.12-1.71,16.44-.35,4.46,4.64,8.91,9.31,13.7,13.6,1.75,1.55,4.19,5.92-1.42,15.58l-4.76,8.17c-4.23,7.27-1.74,16.68,5.53,20.9l21.55,12.54c7.27,4.23,16.67,1.74,20.9-5.53l4.74-8.16c5.7-9.8,11.3-9.41,13.68-8.66,6.88,2.19,13.22,3.61,20.33,5.45,2.58,.67,7.02,2.57,7.02,14.23v8.75c0,8.42,6.86,15.28,15.28,15.28h24.94c8.43,0,15.29-6.86,15.29-15.28v-8.75c0-11.67,4.44-13.56,7.02-14.23,7.09-1.85,13.44-3.26,20.33-5.45,2.36-.75,7.97-1.15,13.68,8.66l4.74,8.16c4.23,7.27,13.63,9.76,20.9,5.53l21.55-12.54c7.27-4.23,9.76-13.63,5.53-20.9l-4.76-8.17c-5.61-9.66-3.17-14.03-1.43-15.58,4.8-4.29,9.24-8.96,13.71-13.6,1.31-1.37,5.48-6.03,16.44,.35l7.51,4.36c7.27,4.23,16.68,1.74,20.9-5.52l12.54-21.56c4.23-7.26,1.73-16.67-5.53-20.9l-7.45-4.32c-10.28-5.98-10.01-9.04-8.7-13.4,1.78-5.98,3.7-11.97,5.01-18.16,1.16-5.51,.64-9.45,14.62-9.45h8.57c8.42,0,15.28-6.87,15.28-15.29v-24.94c0-8.43-6.86-15.29-15.28-15.29h-8.57c-13.98,0-13.45-3.94-14.62-9.45-1.31-6.2-3.23-12.18-5.01-18.17-1.31-4.35-1.57-7.42,8.7-13.39l7.45-4.33c7.26-4.24,9.76-13.63,5.53-20.89l-12.54-21.56c-4.23-7.26-13.63-9.75-20.9-5.52l-7.51,4.36c-10.96,6.37-15.12,1.71-16.44,.35-4.47-4.64-8.91-9.31-13.71-13.61-1.74-1.55-4.18-5.92,1.43-15.58l4.76-8.18c4.23-7.27,1.74-16.67-5.53-20.9l-21.55-12.54c-7.27-4.23-16.68-1.74-20.9,5.52l-4.74,8.17c-5.7,9.79-11.31,9.4-13.68,8.65-6.88-2.18-13.23-3.61-20.33-5.45-2.58-.67-7.02-2.56-7.02-14.23v-8.76c0-8.42-6.86-15.28-15.29-15.28h-24.94c-8.42,0-15.28,6.86-15.28,15.28v8.76c0,11.67-4.44,13.55-7.02,14.23-7.1,1.85-13.44,3.27-20.33,5.45-2.37,.75-7.97,1.14-13.68-8.65l-4.74-8.17c-4.24-7.26-13.63-9.75-20.9-5.52h0Zm94.42,154.23c18.19,0,32.93,14.74,32.93,32.93s-14.74,32.93-32.93,32.93-32.93-14.74-32.93-32.93,14.74-32.93,32.93-32.93h0Zm-103.22,32.93c0-3.89,3.16-7.05,7.05-7.05s7.04,3.16,7.04,7.05c0,24.62,9.97,46.9,26.11,63.02,16.13,16.14,38.42,26.11,63.02,26.11,3.89,0,7.05,3.15,7.05,7.04s-3.16,7.05-7.05,7.05c-28.5,0-54.31-11.56-72.99-30.24-18.68-18.67-30.24-44.48-30.24-72.99h0Zm205.09-16.62c.61,3.83-2,7.42-5.83,8.03-3.83,.61-7.42-2-8.04-5.83-3.03-18.67-11.87-35.41-24.62-48.29-12.75-12.89-29.43-21.9-48.07-25.12-3.83-.66-6.4-4.29-5.75-8.12,.66-3.82,4.29-6.39,8.13-5.75,21.6,3.73,40.89,14.16,55.66,29.08,14.77,14.92,25.02,34.33,28.53,56h0Zm-101.87-105.69c67.55,0,122.32,54.76,122.32,122.32s-54.76,122.31-122.32,122.31-122.31-54.76-122.31-122.31,54.76-122.32,122.31-122.32Z" style="fill:#61a0e0; fill-rule:evenodd;"/><g><path d="M1303.9,540.26h227.35c9.61,0,17.48,7.86,17.48,17.48v227.36c0,9.61-7.87,17.47-17.48,17.47h-227.35c-9.63,0-17.48-7.86-17.48-17.47v-227.36c0-9.62,7.85-17.48,17.48-17.48Z" style="fill:#dfedfa; fill-rule:evenodd;"/><path d="M1303.9,539.46h26.76c-.16,.53-.29,1.06-.4,1.61h-26.37c-9.17,0-16.68,7.5-16.68,16.67v150.47c-.53-.11-1.07-.19-1.61-.25v-150.22c0-5.03,2.06-9.6,5.37-12.91h0c3.31-3.32,7.89-5.37,12.92-5.37h0Zm-1.71,262.22c.56,.06,1.13,.09,1.71,.09h156.62c-.18,.52-.34,1.06-.46,1.6h-156.16c-.98,0-1.94-.08-2.88-.23,.42-.47,.82-.95,1.17-1.46h0Zm209.73,.09h19.32c9.16,0,16.67-7.5,16.67-16.67v-134.59c.54,.03,1.07,.03,1.61,.02v134.57c0,5.03-2.06,9.6-5.36,12.91h0c-3.31,3.31-7.89,5.36-12.91,5.36h-18.85c-.13-.55-.28-1.08-.47-1.6h0Zm35.99-237.7v-6.33c0-9.17-7.5-16.67-16.67-16.67h-115.1c-.11-.55-.24-1.08-.4-1.61h115.5c10.05,0,18.28,8.23,18.28,18.28v6.31c-.54,0-1.07,0-1.61,.02Z" style="fill:#1e77d1; fill-rule:evenodd;"/><path d="M1434,734.48l96.58-158.44,39.81-65.31c6.97-11.42,3.36-26.32-8.05-33.27-11.42-6.98-26.33-3.36-33.28,8.05l-36.3,59.57-81.77,134.15-64.23-88.32c-7.85-10.83-23-13.26-33.84-5.39-10.83,7.85-13.25,23-5.4,33.83l85.6,117.72c7.87,10.83,23.02,13.25,33.86,5.4,3.01-2.17,5.36-4.92,7.03-7.98Z" style="fill:#4f8ecc; fill-rule:evenodd;"/></g><g><polygon points="1596.2 1661.99 1466.15 1661.99 1423.59 1493.81 1635.81 1493.81 1596.2 1661.99" style="fill:#c3dffa; fill-rule:evenodd;"/><rect x="1409.39" y="1471.94" width="237.65" height="21.86" style="fill:#8bbae9;"/><polygon points="1529.7 1493.81 1423.59 1493.81 1466.15 1661.99 1529.7 1661.99 1529.7 1493.81" style="fill:#a4d0fc; fill-rule:evenodd;"/><rect x="1409.39" y="1471.94" width="120.31" height="21.86" style="fill:#61a0e0;"/><polygon points="1596.2 1664.51 1466.15 1664.51 1423.59 1641.8 1635.81 1641.8 1596.2 1664.51" style="fill:#8bbae9; fill-rule:evenodd;"/><polygon points="1529.7 1641.8 1423.59 1641.8 1466.15 1664.51 1529.7 1664.51 1529.7 1641.8" style="fill:#61a0e0; fill-rule:evenodd;"/><path d="M1651.64,1172.93c0-1.01,.03-2.04,.04-3.05,.06-2.58-3.35-4.06-5.14-2.13-10.04,10.83-19.43,22.26-27.87,34.37-4.41,6.33-8.48,12.89-12.1,19.7-2.4,4.51-4.83,9.16-6.05,14.16-2.26,9.26-2.42,19.13-2.75,28.62-.16,4.48-.26,8.95-.47,13.42-.08,1.57-.17,3.13-.35,4.7-.04,.34-.03,.28-.16,.94-.05,.23-.09,.37-.09,.44-.78,1.39-.3,2.94,.69,3.87-17.55,27.96-32.43,57.17-44.45,87.92-11.94,30.54-26.5,60.78-25.5,94.37,.02,.75,.27,1.35,.64,1.81h4.86c.35-.46,.54-1.07,.52-1.81-.95-32.6,13.21-62.18,24.91-91.79,11.26-28.49,24.77-55.62,40.68-81.72,.5,1.28,1.71,2.15,3.38,1.49,12.7-5.04,24.76-11.99,33.7-22.5,7.32-8.6,11.8-19.07,14.11-30.07,4.98-23.83,1.16-48.65,1.4-72.75Z" style="fill:#c3dffa; fill-rule:evenodd;"/><path d="M1647.74,1218.4c-4.44,4.45-9.19,9.79-14.63,13.6,1.76-5.73,3.18-11.57,4.59-17.41,3.99-4.09,9.88-6.58,14.31-10.03,3.07-2.38-1.24-6.62-4.27-4.26-2.48,1.94-5.17,3.53-7.78,5.19,1.91-7.56,4.07-15.16,7.7-22.05,1.81-3.44-3.39-6.48-5.21-3.04-5.21,9.89-7.97,20.81-10.58,31.76-.52,.64-1.03,1.3-1.48,2.01-.81,1.26-.53,2.49,.21,3.33-1.19,4.98-2.42,9.94-3.94,14.77,.47-8.93,1.47-17.83,3.21-26.62,.75-3.79-5.06-5.42-5.82-1.61-2.55,12.98-3.69,26.19-3.72,39.42,0,1.06,.44,1.83,1.1,2.31-3.2,6.85-7,13.36-10.93,19.8-.29-12.02-.56-24.24,2.48-35.79,.99-3.78-4.82-5.38-5.82-1.62-3.99,15.19-2.6,31.39-2.51,46.94-3.26,5.33-6.43,10.71-9.24,16.29-1.76,3.46,3.45,6.51,5.2,3.04,2.66-5.27,5.67-10.35,8.78-15.35,8.95,.73,17.14-3.49,26.02-3.67,3.88-.06,3.89-6.09,0-6.02-7.62,.14-14.79,3.27-22.3,3.69,1.23-2,2.49-3.99,3.72-5.99,.56-.92,1.12-1.84,1.66-2.77,.33-.14,.65-.36,.95-.64,6.11-6.02,13.2-10.9,19.31-16.91,2.77-2.73-1.49-6.98-4.26-4.26-2.63,2.59-5.43,4.96-8.28,7.31,1.42-3.05,2.74-6.14,3.96-9.3,8.52-3.88,15.37-11.38,21.84-17.87,2.75-2.75-1.52-7.02-4.27-4.27Z" style="fill:#8bbae9; fill-rule:evenodd;"/><path d="M1532.89,1423.23c-3.57-11.53-8.65-23.19-15.5-33.16-15.74-22.88-37.39-40.96-53.39-63.6,.35-.14,.7-.35,1.03-.64,8.95-8.38,10.82-22.18,11.14-33.8,.18-6.23-.31-12.49-1.23-18.65-1.05-7.09-3.51-13.82-6.13-20.46-6.04-15.36-14.23-29.75-24.39-42.75-6.58-8.44-17.34-20.89-29.4-18.61-.2,.04-.38,.09-.58,.14-1.71,.44-2.37,2.1-2.1,3.71,4.79,28.65-2.85,57.82,3.05,86.4,4.12,19.98,18.14,43.99,41.06,44.28,15.42,23.16,36.89,41.33,53.34,63.67,7.02,9.56,12.21,20.39,16.12,31.56,3.8,10.83,7.1,23.38,4.64,34.86-.81,3.79,5,5.4,5.82,1.6,2.45-11.47-.06-23.55-3.48-34.56Z" style="fill:#bbdbfa; fill-rule:evenodd;"/><path d="M1466.01,1289.71c-1.71,6.95-4.89,13.42-7.04,20.19-1.1-5.75-2.39-11.46-3.83-17.14,1.7,.32,3.62-.63,3.53-2.85-.29-6.76,5.84-12,7.13-18.5,.75-3.8-5.06-5.42-5.82-1.61-1.13,5.71-5.28,10.11-6.8,15.55-1.42-5.2-2.97-10.37-4.59-15.52,.23-.2,.43-.43,.62-.72,3.72-5.75,5.75-12.26,7.54-18.81,1.03-3.77-4.79-5.35-5.81-1.61-1.29,4.67-2.66,9.27-4.8,13.57-1.67-5.04-3.38-10.05-5.16-15.06,.29-.3,.52-.67,.68-1.12,1.97-5.49,5.91-9.91,7.24-15.69,.86-3.78-4.95-5.4-5.82-1.61-.89,3.87-2.99,7.19-4.87,10.64-1.26-3.49-2.53-6.98-3.8-10.48,1.38-5.06,2.02-10.29,3.02-15.43,.74-3.8-5.07-5.43-5.81-1.61-.41,2.09-.75,4.19-1.12,6.29-2.36-6.51-4.7-13.03-6.94-19.56-1.25-3.65-7.09-2.08-5.82,1.61,2.75,7.96,5.61,15.9,8.5,23.86-1.16-1.08-2.33-2.17-3.45-3.28-2.76-2.73-7.03,1.54-4.26,4.27,3.13,3.11,6.51,5.94,9.64,9.05,.64,.63,1.36,.88,2.04,.87,1.15,3.14,2.28,6.3,3.4,9.44-2.95-1.81-5.99-3.54-8.42-6.13-2.65-2.86-6.91,1.4-4.26,4.25,4.34,4.68,11.49,6.27,15.21,11.46,.35,.46,.75,.8,1.19,1.01,1.58,4.58,3.12,9.18,4.6,13.8-1.81-1.69-3.94-2.95-6.15-4.12-2.9-1.55-6.03-2.89-7.69-5.9-1.89-3.41-7.09-.37-5.21,3.04,3.61,6.54,11.62,7.24,16.15,12.67,1.47,1.78,3.57,.99,4.52-.56,1.38,4.47,2.7,8.94,3.93,13.44-6.19-3.72-11.73-8.45-16.85-13.52-2.77-2.74-7.02,1.53-4.27,4.27,5.98,5.91,12.57,11.45,19.92,15.55,1.06,.59,2.07,.5,2.88,.04,1.26,4.96,2.41,9.94,3.45,14.95-5.61-6.11-12.69-10.83-17.27-17.9-2.1-3.26-7.33-.23-5.21,3.04,6.37,9.85,17.65,15.26,22.92,25.93,.44,.89,1.09,1.35,1.8,1.49,.11,.67,.21,1.35,.3,2.02,.51,3.47,5.3,2.47,5.83-.58,.99-.4,1.8-1.28,1.92-2.63,.77-10.12,6.53-19.04,8.93-28.76,.94-3.77-4.88-5.38-5.82-1.6Z" style="fill:#8bbae9; fill-rule:evenodd;"/><path d="M1678.42,1368.73c-3.72-22.33-11.53-46.11-28.93-61.51,2.03-1.86,.41-6.07-2.82-5.14-10.95,3.19-20.98,8.45-28.84,16.81-1.26,1.35-2.45,2.75-3.59,4.2-.16-1.68-1.62-3.35-3.76-2.91-10.67,2.17-19.05,10.56-25.62,18.75-8.26,10.3-14.73,21.93-20.58,33.73-5.17,10.41-9.68,21.15-14.38,31.79-.12,.16-.23,.34-.34,.51-3.76,5.8-5.79,12.99-7.81,19.53-.46,1.49-.93,2.98-1.41,4.48-.56-16.87-2.66-33.86-2.7-50.51,0-.12,0-.25-.02-.36,11.13-8.77,20.63-19.38,25.56-32.89,4.24-11.62,3.84-24.3,1.12-36.18-5.99-26.11-22.08-48.91-34.38-72.27-4.05-7.68-7.79-15.54-10.49-23.8-.88-2.7-5.11-3.05-5.82,0-6.54,28.17-26.13,51.45-31.65,79.94-2.74,14.19-.64,27.99,5.24,41.12,1.9,4.27,4.96,8.04,7.86,11.65,3.53,4.39,7.33,8.56,11.14,12.7,2.26,2.43,4.56,4.87,6.83,7.31,.74,.81,1.47,1.62,2.19,2.46,.06,.07,.27,.34,.39,.49,0,.03,.03,.04,.04,.08t-.02-.04c.06,.07,.07,.08-.02-.04-.05-.12-.12-.31-.16-.53,.26,.92,.91,1.79,1.84,2.2,3.52,4.67,7.39,8.89,12.17,12.56,.77,.6,1.54,.71,2.2,.52,.56,21.92,4.16,44.44,2.32,66.35-1.47,5.45-2.69,10.98-3.43,16.54-.44,1.95-.88,3.88-1.32,5.82h6.83c1.68-5.75,2.77-11.57,3.45-17.44,2.43-9.84,5.12-19.61,8.45-29.2,.23-.68,.5-1.36,.74-2.04-.25,16.74,5.42,33.98,11.9,48.79,10.3,23.5,25.37,45.86,43.81,63.75,3.92,3.81,8.11,7.36,12.57,10.52,1.67,1.17,3.88-.09,4.44-1.8,4.78-14.89,7.1-30.5,5.66-46.13-1.31-14.21-5.82-27.81-12.33-40.47-6.93-13.45-16.22-25.64-26.17-37-5.14-5.86-10.46-11.7-16.48-16.7-3.57-2.96-7.69-5.84-12.49-6.04-.2-.02-.4-.02-.59,0,1.74-3.9,3.51-7.79,5.27-11.65,5.42-11.94,11.38-23.7,18.55-34.7,6.14-9.41,13.7-19.37,24.09-24.34,1.62-.78,3.38-1.28,5.13-1.63-3.8,5.36-6.94,11.22-9.91,17.08-1.01,.14-1.94,.81-2.23,2.14-2.1,9.32-1.28,18.54,3.86,26.75,4.97,7.9,12.88,13.63,20.44,18.88,.5,.36,1.01,.52,1.49,.53,2.59,2.34,5.21,4.58,7.74,6.7,8.68,7.27,17.72,14.14,25.97,21.92,6.91,6.52,13.74,14.05,16.47,23.34,.98,3.3,5.84,2.61,5.93-.8,.18-6.21,.3-12.42,.33-18.63v-4.78c-.07-16.86-.99-33.71-3.76-50.38Z" style="fill:#d2e5f7; fill-rule:evenodd;"/><path d="M1551.23,1326.98c-5.96,5.19-11.09,11.16-16.14,17.22-.35-5.66-.82-11.29-1.51-16.9,5.26-5.97,10.78-11.69,15.89-17.78,2.49-2.95-1.77-7.25-4.26-4.26-4.09,4.88-8.44,9.51-12.71,14.22-.69-4.32-1.51-8.62-2.49-12.92-.5-2.18-1.03-4.38-1.56-6.59,.03-.07,.05-.14,.08-.21,2.62-8.49,9.29-15,14.18-22.2,2.18-3.22-3.05-6.23-5.22-3.04-3.66,5.4-8.05,10.35-11.33,15.97-1.08-4.62-2.13-9.25-2.98-13.91,1.28,.12,2.58-.51,2.94-2.15,1.29-5.8,4.79-10.21,8.88-14.36,2.73-2.76-1.54-7.04-4.26-4.25-3.62,3.66-6.87,7.65-8.89,12.31-1.23-9.56-1.37-19.18,.66-28.68,.81-3.79-5.01-5.41-5.83-1.6-2.1,9.88-2.05,19.84-.9,29.78-3.47-4.48-7.39-8.62-10.94-13.02-2.44-3.03-6.7,1.27-4.27,4.26,4.69,5.8,10.07,11.13,14.01,17.49,.68,1.12,1.73,1.51,2.74,1.42,.94,5.14,2.09,10.27,3.29,15.35-7.19-5.75-14.16-11.85-22.41-16.06-3.45-1.78-6.51,3.43-3.05,5.2,9.8,5.03,17.81,12.7,26.54,19.3,.36,.28,.7,.43,1.06,.52,.24,1.01,.48,2.03,.73,3.04,1.46,6.07,2.58,12.18,3.45,18.29-9.41-7.02-20.58-11.46-29.94-18.6-3.1-2.36-6.09,2.88-3.04,5.2,9.8,7.5,21.79,11.88,31.3,19.73,.34,1.33,1.51,2.42,2.77,2.5,.66,6.27,1.07,12.54,1.34,18.84-.35,.41-.7,.83-1.04,1.24-.19,.2-.33,.41-.44,.62-7.31-5.06-14.76-9.95-22.47-14.37-3.37-1.94-6.41,3.27-3.04,5.2,9.41,5.41,18.46,11.49,27.32,17.8,.12,5.24,.15,10.51,.15,15.79,0,3.89,6.02,3.89,6.02,0,0-8.12-.06-16.22-.36-24.28,6.32-7.59,12.5-15.35,19.98-21.85,2.94-2.56-1.34-6.8-4.27-4.26Z" style="fill:#8bbae9; fill-rule:evenodd;"/><path d="M1620.03,1509.88c-3.69-2.77-7.54-5.59-10.08-9.48-2.23-6.27-4.63-12.48-7.21-18.61,3.08,2.32,6.05,4.77,8.81,7.49,2.77,2.73,7.05-1.53,4.26-4.26-5.38-5.31-11.53-9.7-17.78-13.91-2.74-5.99-5.63-11.92-8.68-17.76,3.17,2.09,6.43,4.06,9.54,6.25,3.19,2.24,6.19-3,3.04-5.21-3.88-2.73-7.97-5.13-11.87-7.82-3.04-2.1-6.46-4.67-7.25-8.47-.36-1.71-1.72-2.33-3.05-2.14-2.37-4.08-4.8-8.11-7.3-12.09,5.17,2.93,10.12,6.17,16.3,7.07,3.8,.57,5.44-5.24,1.61-5.81-9.04-1.32-15.66-7.81-24.03-10.82-1.03-1.57-2.08-3.13-3.12-4.69-2.16-3.2-7.39-.19-5.2,3.04,.87,1.3,1.74,2.59,2.59,3.91-.36,.45-.59,1.07-.59,1.81v32.58c0,3.88,6.02,3.88,6.02,0v-25.99c2.9,4.59,5.73,9.24,8.46,13.95-.71,.47-1.22,1.27-1.23,2.39-.03,11.31-1.16,22.54-2.42,33.78-.42,3.86,5.62,3.82,6.04,0,1.03-9.3,1.97-18.58,2.29-27.92,4.1,7.42,7.97,14.98,11.59,22.64-.5,.85-.67,1.93-.27,2.89-1.7-1.57-5.49,.08-5.06,3.19,1.07,7.85,1.07,15.88,0,23.73-.51,3.8,5.29,5.44,5.83,1.6,1.23-9.02,1.23-17.9,0-26.92-.04-.26-.1-.5-.18-.69,.16,.16,.35,.32,.57,.47,.51,.35,1.04,.7,1.56,1.05,3.14,6.95,6.08,13.99,8.77,21.12-1.77,0-3.71,1.49-3.29,3.78,1.17,6.23,.99,12.66,0,18.91-.59,3.8,5.21,5.43,5.82,1.6,.79-4.94,1.14-9.88,.87-14.8,3.56,10.39,6.59,20.96,9,31.68,.84,3.79,6.66,2.18,5.82-1.6-1.73-7.72-3.79-15.36-6.13-22.91,.97,.74,1.94,1.46,2.9,2.18,3.13,2.34,6.11-2.9,3.05-5.2Z" style="fill:#8bbae9; fill-rule:evenodd;"/><path d="M1680.07,1399.56c-4.53-2.37-7.96-6.08-11.78-9.38-2.47-6.35-5.28-12.57-8.38-18.62,3.79,.51,7.51,1.31,10.78,3.36,3.31,2.07,6.33-3.14,3.04-5.2-5.24-3.29-11.23-3.82-17.21-4.51-3.68-6.59-7.74-12.98-12.24-19.02,6.87,.18,13.79,1.6,20.07,4.31,3.53,1.54,6.61-3.67,3.05-5.21-8.7-3.75-18.32-5.59-27.79-5.06-.71-.83-1.4-1.69-2.11-2.52-1.31-1.51-2.66-2.98-4.05-4.42,3.16-.36,6.3-.88,9.43-1.33,5.12-.74,10.82-1.67,15.87-.14,3.73,1.14,5.31-4.69,1.6-5.82-10.56-3.21-22.12,1.42-32.87,1.7-4.29-3.64-8.99-6.75-14.18-8.93-3.58-1.51-5.13,4.33-1.61,5.82,2.77,1.17,5.39,2.69,7.86,4.45-.02,.44,.08,.92,.29,1.4,1.89,4.14,.63,9.85-.04,14.12-.86,5.31-2.1,10.64-2.18,16.02-.05,3.9,5.98,3.89,6.04,0,.11-8.1,3.55-17.04,3.18-25.4,2.43,2.36,4.71,4.87,6.86,7.35,.28,.32,.57,.68,.83,1-.87,.44-1.53,1.29-1.53,2.57,0,9.18-.04,18.35-2.6,27.24-1.09,3.75,4.73,5.34,5.82,1.6,2.42-8.4,2.76-17.09,2.81-25.78,4.14,5.5,7.85,11.3,11.24,17.28-.39,.34-.7,.83-.87,1.47-2.18,8.36-.22,17.19-3.62,25.34-1.49,3.59,4.35,5.13,5.83,1.6,2.81-6.71,1.98-13.85,2.8-20.81,2.8,5.41,5.32,10.96,7.58,16.62-.16,.44-.2,.92-.09,1.39-.92,.84-1.31,2.16-.43,3.53,2.5,3.78,.32,9.86-.3,13.96-.57,3.8,5.24,5.43,5.82,1.6,.19-1.21,.43-2.48,.67-3.78,2.55,9.15,4.33,18.81,3.37,28.31-.41,3.87,5.64,3.83,6.02,0,1.04-10.25-1.03-20.75-3.76-30.6-.32-1.12-.66-2.26-1-3.39,1.49,1.17,3.06,2.23,4.76,3.13,3.44,1.81,6.48-3.4,3.05-5.21Z" style="fill:#8bbae9; fill-rule:evenodd;"/><path d="M1522.05,1444.01c1.01-4.7,1.67-9.48,1.75-14.26,3.45,9.48,4.5,20.07,4.68,29.93-.65-1.64-1.37-3.27-2.07-4.86-1.44-3.29-2.98-6.54-4.61-9.75,.07-.36,.17-.71,.25-1.07h0Zm2.46,22.71c.32,1.14,.57,2.27,.63,3.05,0,.16-.02,.77-.02,.95-.36,.44-.59,.88-.67,1.34h9.23c.2-.35,.34-.75,.39-1.21,1.62-13.87,.13-29.49-4.63-42.66-1.9-5.24-4.4-11.76-8.53-15.93-.51-1.31-1.08-2.59-1.74-3.85-1.33-2.58-4.56-1.53-5.38,.59-3.43,.2-6.76,2.55-9.66,4.71-4.99-8.3-10.19-16.48-15.88-24.25-5.28-7.23-11.52-15.84-19.83-19.8-3.26-1.56-6.71-1.97-10.03-.37-3.36,1.61-5.22,5.36-6.39,8.83-.84,.57-1.49,1.42-2.06,2.36-3.61-2.74-7.58-5-11.86-6.66-.76-1.25-2.29-1.95-3.86-.87-16.06,11.16-28.23,25.42-34.7,44.05-8.4,24.22-1.88,50.27-8.3,74.77-.62,2.37,2.18,5.04,4.43,3.41,7.46-5.42,16.55-7.71,24.46-12.34,7.62-4.48,14.59-10.2,21.18-16.05,12.88-11.45,25.04-26.72,28.6-43.97,.9-.42,1.54-1.29,1.44-2.62-1-13.36-7.1-26.37-16.7-35.67,.24-.44,.5-.88,.77-1.28,.94-.32,1.67-1.08,1.95-2.05,.53-1.79,1.18-3.45,2.21-5.02,.69-1.06,1.47-1.55,2.26-1.8,.82-.27,1.43-.18,2.63,.17,1.38,.4,2.69,1.23,3.98,2.12,7.09,4.87,12.47,12.7,17.32,19.63,4.79,6.86,9.31,14,13.66,21.24-20.46,18.02-29.22,46.56-31.71,72.97-1.06,11.2-1.69,23.31,1.34,34.24,.54,1.99,2.69,2.64,4.42,1.79,19.66-9.5,30.24-30.15,37.96-49.52,2.99-7.5,5.78-15.15,8.05-22.96,.51,1.09,1.01,2.17,1.5,3.26,1.36,3.05,2.61,6.17,3.53,9.39Z" style="fill:#bbdbfa; fill-rule:evenodd;"/><path d="M1454.64,1384.31c2.14-3.27-3.09-6.29-5.2-3.04-.92,1.4-1.89,2.77-2.87,4.13-.43,.1-.83,.28-1.19,.52-.65-.54-1.54-.83-2.58-.62-5.58,1.19-10.95,3.39-16.69,3.53-3.89,.08-3.9,6.12,0,6.03,5.43-.12,10.51-1.83,15.71-3.13-3.09,4.09-6.13,8.19-8.55,12.73-.23,.43-.47,.88-.68,1.33,.44-2.28-1.9-4.9-4.39-3.29-5.27,3.46-11.43,6.68-17.78,7.44-3.8,.46-3.85,6.5,0,6.02,5.75-.69,11.26-2.77,16.35-5.56,.63,1.46,1.23,2.91,1.79,4.39-.56,1.35-1.12,2.68-1.69,4-1.1,2.58-2.18,5.16-3.21,7.77,.11-2.1-2.1-4.33-4.49-2.94-6.89,4.01-15.5,5.77-20.39,12.55-2.27,3.17,2.97,6.17,5.2,3.05,1.99-2.76,5.47-4.3,8.45-5.7,2.34-1.1,4.72-2.1,7.03-3.23-.05,2.06,.21,4.05,.63,6.01-.35,.93-.71,1.87-1.09,2.79-.37,.13-.73,.36-1.06,.69-6.3,6.21-13.59,11.29-19.91,17.49-2.76,2.74,1.49,6.99,4.27,4.26,3.06-3.01,6.36-5.75,9.66-8.5-6.22,11.05-12.98,21.85-15.31,34.52-.69,3.8,5.11,5.43,5.82,1.61,1.86-10.05,6.49-19.08,11.47-27.99,.6,3.82,1.25,7.64,1.31,11.51,.05,3.88,6.08,3.89,6.02,0-.09-6.86-2.02-13.52-2.36-20.34,1.28-2.31,2.52-4.63,3.69-6.96,.58,2.23,1.03,4.47,1.08,6.78,.12,3.89,6.14,3.9,6.04,0-.14-5.19-2.21-10.1-3.41-15.1,1.76-4.48,3.2-9.08,5.05-13.53,.89,3.32,1.59,6.71,2.08,10.13,.55,3.84,6.36,2.19,5.83-1.61-.83-5.84-2.32-11.53-4.26-17.07,.97-2.21,1.96-4.4,3.01-6.57,1.92-4,4.41-7.64,7.06-11.17,1.37,6.62,3.82,13.09,3.94,19.94,.08,3.88,6.1,3.9,6.03,0-.17-9.14-4.47-17.66-4.81-26.69,1.53-2.02,3.04-4.06,4.4-6.17Z" style="fill:#8bbae9; fill-rule:evenodd;"/><path d="M1513.24,1416.85c-3.53,4.49-6.68,9.24-9.5,14.16-.77-.04-1.57,.26-2.19,.77-.91-.26-1.93-.1-2.79,.75-3.45,3.36-7.56,5.83-11.46,8.58-3.15,2.22-.15,7.46,3.05,5.21,2.81-2,5.72-3.86,8.46-5.95-1.77,3.7-3.4,7.48-4.89,11.32-.2,.07-.39,.16-.59,.28-5.17,3.09-11.83,4.57-15.69,9.51-2.35,3.02,1.87,7.33,4.27,4.26,2.22-2.85,5.63-4.42,9-5.91-1.1,3.19-2.13,6.4-3.11,9.63-.54-.02-1.12,.14-1.71,.59-5.32,4-10.67,8.11-14.35,13.74-2.13,3.29,3.09,6.29,5.21,3.05,2.19-3.38,5.2-6.15,8.37-8.67-.91,3.41-1.8,6.84-2.64,10.25-4.78,3.38-9.49,6.67-12.75,11.65-2.13,3.27,3.08,6.29,5.21,3.05,1.46-2.24,3.34-4.06,5.37-5.68-.83,3.55-1.64,7.09-2.44,10.59-.87,3.79,4.94,5.39,5.82,1.61,.56-2.44,1.13-4.88,1.7-7.3,.13,.6,.23,1.23,.33,1.87,.24,1.63,2.26,2.5,3.7,2.11,1.73-.48,2.36-2.1,2.11-3.71-.54-3.54-1.6-7.02-3.84-9.78,.84-3.36,1.7-6.72,2.59-10.06,.59,1.35,1.18,2.71,1.76,4.07,.66,1.51,2.85,1.83,4.14,1.08,1.54-.91,1.72-2.63,1.08-4.14-1.44-3.33-2.86-6.67-4.42-9.96,.88-2.96,1.79-5.91,2.75-8.84,.36,1.74,.67,3.49,.87,5.25,.46,3.81,6.5,3.85,6.04,0-.63-5.25-1.78-10.3-3.37-15.33,1.51-3.99,3.14-7.96,4.96-11.83,1,2.24,1.94,4.51,2.74,6.85,1.26,3.66,7.09,2.09,5.83-1.61-1.43-4.16-3.22-8.17-5.14-12.11,2.86-5.31,6.07-10.39,9.78-15.11,2.39-3.03-1.86-7.33-4.25-4.27Z" style="fill:#8bbae9; fill-rule:evenodd;"/></g></svg>