<?xml version="1.0" encoding="UTF-8"?><svg id="a" xmlns="http://www.w3.org/2000/svg" viewBox="0 0 2148.97 1444.55"><path d="M202.51,95.93c19.14,0,34.66-15.52,34.66-34.66s-15.52-34.68-34.66-34.68-34.68,15.52-34.68,34.68,15.54,34.66,34.68,34.66h0ZM1675.16,927.5h185.3c99.73,0,181.36,81.57,181.36,181.32h0c0,99.73-81.62,181.3-181.36,181.3H293.63C132.15,1290.12,0,1158.02,0,996.5H0c0-161.48,132.15-293.61,293.63-293.61h0c68.27,0,124.14-55.87,124.14-124.16h0c0-68.27-55.87-124.14-124.14-124.14H144.2c-70.99,0-129.06-58.08-129.06-129.06h0c0-70.99,58.08-129.08,129.06-129.08h188.92c27.66,0,50.27-22.61,50.27-50.23h0c0-27.64-22.61-50.27-50.27-50.27h-33.28c-19.06,0-34.68-15.59-34.68-34.66h0c0-19.08,15.61-34.68,34.68-34.68h218.55c46.03,0,51.15,54.37,167.4,54.37h269.63c24.87,0,45.22,20.35,45.22,45.26h0c0,24.89-20.35,45.24-45.22,45.24h-43.47c-36.07,0-65.59,29.52-65.59,65.57h0c0,36.07,29.52,65.59,65.59,65.59h130.79c176.64,0,201.54,46.14,232.49,137.95,30.95,91.8,191.59,99.22,191.59,99.22h219.69c54.37,0,98.81,44.43,98.81,98.8h0c0,54.35-44.45,98.81-98.81,98.81h-11.33c-52.24,0-95.03,42.74-95.03,95.03h0c0,52.27,42.8,95.07,95.03,95.07h0Z" style="fill:#e0e8f5; fill-rule:evenodd;"/><path d="M643.62,1309.2c-74.4,0-134.69,13.59-134.69,30.36s60.28,30.36,134.69,30.36,134.67-13.59,134.67-30.36-60.28-30.36-134.67-30.36Z" style="fill:#c4d1eb; fill-rule:evenodd;"/><path d="M216.73,1311.5c74.37,0,134.65,13.59,134.65,30.36s-60.28,30.36-134.65,30.36-134.7-13.59-134.7-30.36,60.32-30.36,134.7-30.36Z" style="fill:#c4d1eb; fill-rule:evenodd;"/><path d="M1075.98,1349.57c74.37,0,134.68,13.59,134.68,30.36s-60.32,30.36-134.68,30.36-134.67-13.59-134.67-30.36,60.28-30.36,134.67-30.36Z" style="fill:#c4d1eb; fill-rule:evenodd;"/><path d="M646.48,1221.66c74.37,0,134.69,13.59,134.69,30.36s-60.32,30.36-134.69,30.36-134.7-13.59-134.7-30.36,60.32-30.36,134.7-30.36Z" style="fill:#c4d1eb; fill-rule:evenodd;"/><path d="M213.85,1223.96c-74.39,0-134.67,13.59-134.67,30.36s60.28,30.36,134.67,30.36,134.68-13.59,134.68-30.36-60.28-30.36-134.68-30.36Z" style="fill:#c4d1eb; fill-rule:evenodd;"/><path d="M1073.09,1262.03c-74.35,0-134.67,13.59-134.67,30.36s60.32,30.36,134.67,30.36,134.68-13.59,134.68-30.36-60.28-30.36-134.68-30.36Z" style="fill:#c4d1eb; fill-rule:evenodd;"/><path d="M638.95,1139.78c74.39,0,134.67,13.59,134.67,30.36s-60.28,30.36-134.67,30.36-134.7-13.63-134.7-30.36,60.32-30.36,134.7-30.36Z" style="fill:#c4d1eb; fill-rule:evenodd;"/><path d="M221.36,1142.1c-74.35,0-134.67,13.59-134.67,30.36s60.32,30.34,134.67,30.34,134.7-13.57,134.7-30.34-60.28-30.36-134.7-30.36Z" style="fill:#c4d1eb; fill-rule:evenodd;"/><path d="M1080.64,1180.15c-74.39,0-134.7,13.59-134.7,30.36s60.32,30.36,134.7,30.36,134.67-13.59,134.67-30.36-60.28-30.36-134.67-30.36Z" style="fill:#c4d1eb; fill-rule:evenodd;"/><path d="M669.83,1268.35c-74.39,0-134.67,13.59-134.67,30.36s60.28,30.36,134.67,30.36,134.7-13.59,134.7-30.36-60.32-30.36-134.7-30.36Z" style="fill:#c4d1eb; fill-rule:evenodd;"/><path d="M190.48,1270.68c74.39,0,134.7,13.59,134.7,30.36s-60.32,30.36-134.7,30.36-134.65-13.59-134.65-30.36,60.28-30.36,134.65-30.36Z" style="fill:#c4d1eb; fill-rule:evenodd;"/><path d="M1049.73,1308.76c74.39,0,134.7,13.59,134.7,30.36s-60.32,30.32-134.7,30.32-134.65-13.56-134.65-30.32,60.28-30.36,134.65-30.36Z" style="fill:#c4d1eb; fill-rule:evenodd;"/><path d="M620.23,1180.81c74.39,0,134.7,13.63,134.7,30.36s-60.32,30.36-134.7,30.36-134.67-13.59-134.67-30.36,60.3-30.36,134.67-30.36Z" style="fill:#c4d1eb; fill-rule:evenodd;"/><path d="M240.07,1183.15c-74.39,0-134.67,13.59-134.67,30.36s60.28,30.36,134.67,30.36,134.7-13.59,134.7-30.36-60.32-30.36-134.7-30.36Z" style="fill:#c4d1eb; fill-rule:evenodd;"/><path d="M1099.32,1221.22c-74.39,0-134.67,13.59-134.67,30.36s60.28,30.36,134.67,30.36,134.7-13.59,134.7-30.36-60.28-30.36-134.7-30.36Z" style="fill:#c4d1eb; fill-rule:evenodd;"/><path d="M612.72,1098.95c74.37,0,134.69,13.57,134.69,30.34s-60.32,30.36-134.69,30.36-134.7-13.59-134.7-30.36,60.32-30.34,134.7-30.34Z" style="fill:#c4d1eb; fill-rule:evenodd;"/><path d="M247.59,1101.29c-74.37,0-134.65,13.59-134.65,30.36s60.28,30.36,134.65,30.36,134.7-13.59,134.7-30.36-60.32-30.36-134.7-30.36Z" style="fill:#c4d1eb; fill-rule:evenodd;"/><path d="M1106.83,1139.34c-74.33,0-134.65,13.59-134.65,30.36s60.32,30.36,134.65,30.36,134.7-13.59,134.7-30.36-60.28-30.36-134.7-30.36Z" style="fill:#c4d1eb; fill-rule:evenodd;"/><path d="M643.62,1404.16c-74.4,0-134.69-13.59-134.69-30.36v-34.24c0,16.77,60.28,30.36,134.69,30.36s134.67-13.59,134.67-30.36v34.24c0,16.77-60.28,30.36-134.67,30.36Z" style="fill:#9db2d9; fill-rule:evenodd;"/><path d="M216.73,1406.49c74.37,0,134.65-13.59,134.65-30.36v-34.27c0,16.77-60.28,30.36-134.65,30.36s-134.7-13.59-134.7-30.36v34.27c0,16.77,60.32,30.36,134.7,30.36Z" style="fill:#9db2d9; fill-rule:evenodd;"/><path d="M1075.98,1444.55c74.37,0,134.68-13.57,134.68-30.34v-34.27c0,16.77-60.32,30.36-134.68,30.36s-134.67-13.59-134.67-30.36v34.27c0,16.77,60.28,30.34,134.67,30.34Z" style="fill:#9db2d9; fill-rule:evenodd;"/><path d="M646.48,1316.62c74.37,0,134.69-13.59,134.69-30.32v-34.27c0,16.77-60.32,30.36-134.69,30.36s-134.7-13.59-134.7-30.36v34.27c0,16.73,60.32,30.32,134.7,30.32Z" style="fill:#9db2d9; fill-rule:evenodd;"/><path d="M213.85,1318.95c-74.39,0-134.67-13.59-134.67-30.36v-34.27c0,16.77,60.28,30.36,134.67,30.36s134.68-13.59,134.68-30.36v34.27c0,16.77-60.28,30.36-134.68,30.36Z" style="fill:#9db2d9; fill-rule:evenodd;"/><path d="M1073.09,1357.03c-74.35,0-134.67-13.59-134.67-30.36v-34.27c0,16.77,60.32,30.36,134.67,30.36s134.68-13.59,134.68-30.36v34.27c0,16.77-60.28,30.36-134.68,30.36Z" style="fill:#9db2d9; fill-rule:evenodd;"/><path d="M638.95,1234.74c74.39,0,134.67-13.59,134.67-30.36v-34.24c0,16.73-60.28,30.36-134.67,30.36s-134.7-13.63-134.7-30.36v34.24c0,16.77,60.32,30.36,134.7,30.36Z" style="fill:#9db2d9; fill-rule:evenodd;"/><path d="M221.4,1237.07c-74.39,0-134.7-13.59-134.7-30.36v-34.25c0,16.77,60.32,30.34,134.7,30.34s134.67-13.57,134.67-30.34v34.25c0,16.77-60.28,30.36-134.67,30.36Z" style="fill:#9db2d9; fill-rule:evenodd;"/><path d="M1080.64,1275.15c-74.39,0-134.7-13.59-134.7-30.36v-34.27c0,16.77,60.32,30.36,134.7,30.36s134.67-13.59,134.67-30.36v34.27c0,16.77-60.28,30.36-134.67,30.36Z" style="fill:#9db2d9; fill-rule:evenodd;"/><path d="M669.83,1363.34c-74.39,0-134.67-13.59-134.67-30.36v-34.27c0,16.77,60.28,30.36,134.67,30.36s134.7-13.59,134.7-30.36v34.27c0,16.77-60.32,30.36-134.7,30.36Z" style="fill:#9db2d9; fill-rule:evenodd;"/><path d="M190.48,1365.64c74.39,0,134.7-13.59,134.7-30.36v-34.24c0,16.77-60.32,30.32-134.7,30.32s-134.65-13.55-134.65-30.32v34.24c0,16.77,60.28,30.36,134.65,30.36Z" style="fill:#9db2d9; fill-rule:evenodd;"/><path d="M1049.73,1403.72c74.39,0,134.7-13.59,134.7-30.36v-34.24c0,16.77-60.32,30.32-134.7,30.32s-134.65-13.56-134.65-30.32v34.24c0,16.77,60.28,30.36,134.65,30.36Z" style="fill:#9db2d9; fill-rule:evenodd;"/><path d="M620.23,1275.81c74.39,0,134.7-13.59,134.7-30.36v-34.27c0,16.77-60.32,30.36-134.7,30.36s-134.67-13.59-134.67-30.36v34.27c0,16.77,60.3,30.36,134.67,30.36Z" style="fill:#9db2d9; fill-rule:evenodd;"/><path d="M240.07,1278.1c-74.39,0-134.67-13.59-134.67-30.36v-34.24c0,16.77,60.28,30.36,134.67,30.36s134.7-13.59,134.7-30.36v34.24c0,16.77-60.32,30.36-134.7,30.36Z" style="fill:#9db2d9; fill-rule:evenodd;"/><path d="M1099.32,1316.18c-74.39,0-134.67-13.59-134.67-30.36v-34.24c0,16.77,60.28,30.36,134.67,30.36s134.7-13.59,134.7-30.36v34.24c0,16.77-60.32,30.36-134.7,30.36Z" style="fill:#9db2d9; fill-rule:evenodd;"/><path d="M612.72,1193.93c74.37,0,134.69-13.59,134.69-30.36v-34.27c0,16.77-60.32,30.36-134.69,30.36s-134.7-13.59-134.7-30.36v34.27c0,16.77,60.32,30.36,134.7,30.36Z" style="fill:#9db2d9; fill-rule:evenodd;"/><path d="M247.59,1196.22c-74.37,0-134.65-13.57-134.65-30.34v-34.24c0,16.77,60.28,30.36,134.65,30.36s134.7-13.59,134.7-30.36v34.24c0,16.77-60.32,30.34-134.7,30.34Z" style="fill:#9db2d9; fill-rule:evenodd;"/><path d="M1106.83,1234.3c-74.33,0-134.65-13.59-134.65-30.36v-34.24c0,16.77,60.32,30.36,134.65,30.36s134.7-13.59,134.7-30.36v34.24c0,16.77-60.28,30.36-134.7,30.36Z" style="fill:#9db2d9; fill-rule:evenodd;"/><path d="M1360.24,578.5c40.04,2.06,76.39,18.05,104.31,43.24l25.24-25.25-11.97-11.98c-2.04-2.06-2.04-5.46,0-7.53l8.36-8.36c2.09-2.06,5.46-2.06,7.53,0l36.24,36.24c2.09,2.08,2.06,5.44,0,7.51l-8.36,8.38c-2.09,2.08-5.44,2.08-7.53,0l-11.98-11.98-25.25,25.24c25.18,27.92,41.18,64.27,43.22,104.31h35.7v-16.95c0-2.92,2.41-5.29,5.33-5.29h11.81c2.92,0,5.33,2.37,5.33,5.29v51.26c0,2.92-2.41,5.33-5.33,5.33h-11.81c-2.92,0-5.33-2.41-5.33-5.33v-16.95h-35.7c-2.04,40.04-18.04,76.39-43.22,104.31l25.25,25.27,11.98-12.01c2.09-2.06,5.44-2.06,7.53,0l8.36,8.36c2.09,2.09,2.09,5.45,0,7.53l-36.24,36.24c-2.08,2.06-5.44,2.06-7.53,0l-8.36-8.36c-2.04-2.06-2.04-5.46,0-7.53l11.97-11.98-25.24-25.25c-27.92,25.22-64.27,41.18-104.31,43.22v35.71h16.95c2.92,0,5.29,2.41,5.29,5.33v11.79c0,2.94-2.37,5.34-5.29,5.34h-51.26c-2.92,0-5.29-2.41-5.29-5.34v-11.79c0-2.92,2.37-5.33,5.29-5.33h16.95v-35.71c-25.16-1.29-48.88-8.06-69.96-19.21l78.61-149.25-164.35-38.06c6.58-28.39,20.26-54.04,39.12-74.94l-25.25-25.24-11.98,11.98c-2.08,2.04-5.44,2.08-7.53,0l-8.36-8.38c-2.06-2.08-2.06-5.44,0-7.51l36.24-36.24c2.08-2.06,5.44-2.06,7.53,0l8.36,8.36c2.06,2.08,2.06,5.47,0,7.53l-11.98,11.98,25.24,25.25c27.92-25.18,64.27-41.18,104.31-43.24v-35.69h-16.95c-2.92,0-5.29-2.41-5.29-5.33v-11.81c0-2.92,2.37-5.33,5.29-5.33h51.26c2.92,0,5.29,2.41,5.29,5.33v11.81c0,2.92-2.37,5.33-5.29,5.33h-16.95v35.69Z" style="fill:#c4d1eb; fill-rule:evenodd;"/><path d="M1319.1,596.19c12.64,0,22.87,10.23,22.87,22.83s-10.23,22.89-22.87,22.89-22.83-10.23-22.83-22.89,10.23-22.83,22.83-22.83h0Zm151.21,183.8c12.14,0,21.97,9.84,21.97,21.97s-9.83,21.95-21.97,21.95-21.95-9.83-21.95-21.95,9.83-21.97,21.95-21.97h0Zm-81.59,28.25c-7.4,0-13.48-6.02-13.48-13.44s6.08-13.48,13.48-13.48,13.44,6.02,13.44,13.48-6.02,13.44-13.44,13.44h0Zm15.1-165.21c-7.42,0-13.44-5.99-13.44-13.44s6.02-13.44,13.44-13.44,13.48,6.04,13.48,13.44-6.02,13.44-13.48,13.44h0Zm-26.08,191.92c13.92,0,25.2,11.3,25.2,25.22s-11.28,25.24-25.2,25.24-25.22-11.3-25.22-25.24,11.29-25.22,25.22-25.22h0Zm40.37-156.14c24.39,0,44.17,19.76,44.17,44.14s-19.78,44.12-44.17,44.12-44.14-19.76-44.14-44.12,19.76-44.14,44.14-44.14h0Zm-144.6-21.05c11.87,0,21.47,9.64,21.47,21.47s-9.61,21.49-21.47,21.49-21.49-9.61-21.49-21.49,9.61-21.47,21.49-21.47Z" style="fill:#9db2d9; fill-rule:evenodd;"/><path d="M1866.97,279.71c40.04,2.04,76.39,18.04,104.31,43.22l25.24-25.25-11.98-11.98c-2.08-2.09-2.08-5.46,0-7.53l8.36-8.38c2.09-2.04,5.45-2.04,7.53,0l36.24,36.26c2.06,2.08,2.06,5.44,0,7.51l-8.36,8.34c-2.08,2.08-5.49,2.08-7.53,.04l-11.98-11.98-25.25,25.24c25.18,27.92,41.18,64.27,43.22,104.31h35.71v-16.95c0-2.92,2.37-5.33,5.29-5.33h11.85c2.92,0,5.33,2.41,5.33,5.33v51.26c0,2.92-2.41,5.29-5.33,5.29h-11.85c-2.92,0-5.29-2.37-5.29-5.29v-16.95h-35.71c-2.04,40.04-18.04,76.39-43.22,104.31l25.25,25.24,11.98-11.98c2.04-2.09,5.46-2.09,7.53,0l8.36,8.36c2.06,2.09,2.06,5.46,0,7.53l-36.24,36.24c-2.08,2.06-5.44,2.06-7.53,0l-8.36-8.36c-2.08-2.09-2.08-5.46,0-7.53l11.98-11.99-25.24-25.24c-27.92,25.18-64.27,41.18-104.31,43.22v35.69h16.95c2.92,0,5.29,2.39,5.29,5.31v11.83c0,2.94-2.37,5.35-5.29,5.35h-51.26c-2.92,0-5.33-2.41-5.33-5.35v-11.83c0-2.92,2.41-5.31,5.33-5.31h16.95v-35.69c-40.04-2.04-76.42-18.04-104.31-43.22l-25.24,25.24,11.97,11.99c2.06,2.08,2.06,5.44-.04,7.53l-8.32,8.36c-2.09,2.06-5.49,2.06-7.53,0l-36.24-36.24c-2.09-2.08-2.09-5.44,0-7.53l8.36-8.36c2.06-2.09,5.45-2.09,7.53,0l11.97,11.98,25.25-25.24c-25.22-27.92-41.18-64.27-43.22-104.31h-35.7v16.95c0,2.92-2.41,5.29-5.33,5.29h-11.79c-2.94,0-5.34-2.37-5.34-5.29v-51.26c0-2.92,2.41-5.33,5.34-5.33h11.79c2.92,0,5.33,2.41,5.33,5.33v16.95h35.7c2.04-40.04,18-76.39,43.22-104.31l-25.25-25.24-11.97,11.98c-2.08,2.04-5.44,2.04-7.53,0l-8.36-8.38c-2.09-2.08-2.09-5.44,0-7.51l36.24-36.26c2.04-2.04,5.44-2.04,7.53,0l8.36,8.38c2.06,2.04,2.06,5.44,0,7.53l-12.01,11.98,25.24,25.25c27.92-25.18,64.3-41.18,104.34-43.22v-35.71h-16.95c-2.92,0-5.33-2.37-5.33-5.33v-11.81c0-2.92,2.41-5.33,5.33-5.33h51.26c2.92,0,5.29,2.41,5.29,5.33v11.81c0,2.92-2.41,5.33-5.29,5.33h-16.95v35.71Z" style="fill:#c4d1eb; fill-rule:evenodd;"/><path d="M1801.86,330.29c12.65,0,22.88,10.23,22.88,22.89s-10.23,22.87-22.88,22.87-22.83-10.23-22.83-22.87,10.23-22.89,22.83-22.89h0Zm144.27,206.61c-7.44,0-13.48-6.02-13.48-13.48s6.04-13.44,13.48-13.44,13.44,6.02,13.44,13.44-6.02,13.48-13.44,13.48h0Zm-77.27-178.95c-7.4,0-13.45-6.02-13.45-13.48s6.04-13.44,13.45-13.44,13.48,6.02,13.48,13.44-6.02,13.48-13.48,13.48h0Zm-22.87,179.68c13.96,0,25.25,11.28,25.25,25.2s-11.3,25.25-25.25,25.25-25.2-11.3-25.2-25.25,11.28-25.2,25.2-25.2h0Zm78.85-157.68c24.39,0,44.14,19.76,44.14,44.15s-19.74,44.14-44.14,44.14-44.14-19.76-44.14-44.14,19.76-44.15,44.14-44.15h0Zm-187.78,33.91c11.83,0,21.47,9.61,21.47,21.47s-9.64,21.49-21.47,21.49-21.49-9.61-21.49-21.49,9.61-21.47,21.49-21.47h0Zm85.3,20.09c18.5,0,33.5,15.01,33.5,33.5s-15.01,33.5-33.5,33.5-33.5-14.99-33.5-33.5,15.02-33.5,33.5-33.5Z" style="fill:#9db2d9; fill-rule:evenodd;"/><path d="M1768.1,810.87c28.07,1.4,53.52,12.62,73.08,30.25l17.67-17.67-8.39-8.41c-1.47-1.43-1.47-3.8,0-5.25l5.84-5.86c1.47-1.45,3.84-1.45,5.27,0l25.38,25.37c1.47,1.45,1.47,3.84,0,5.29l-5.84,5.84c-1.47,1.47-3.84,1.47-5.31,0l-8.36-8.39-17.69,17.69c17.65,19.54,28.84,45,30.25,73.06h25.03v-11.87c0-2.06,1.63-3.73,3.71-3.73h8.27c2.04,0,3.73,1.67,3.73,3.73v35.87c0,2.08-1.69,3.73-3.73,3.73h-8.27c-2.08,0-3.71-1.65-3.71-3.73v-11.88h-25.03c-1.41,28.06-12.6,53.52-30.25,73.08l17.69,17.67,8.36-8.39c1.47-1.43,3.84-1.43,5.31,0l5.84,5.88c1.47,1.43,1.47,3.8,0,5.25l-25.38,25.37c-1.43,1.45-3.8,1.45-5.27,0l-5.84-5.84c-1.47-1.47-1.47-3.8,0-5.27l8.39-8.39-17.67-17.69c-19.56,17.65-45.02,28.85-73.08,30.29v25h11.88c2.04,0,3.73,1.67,3.73,3.71v8.3c0,2.04-1.69,3.73-3.73,3.73h-35.87c-2.09,0-3.77-1.69-3.77-3.73v-8.3c0-2.04,1.67-3.71,3.77-3.71h11.83v-25c-28.03-1.43-53.48-12.64-73.03-30.29l-17.69,17.69,8.41,8.39c1.41,1.47,1.41,3.8,0,5.27l-5.9,5.84c-1.41,1.45-3.84,1.45-5.25,0l-25.4-25.37c-1.41-1.45-1.41-3.82,0-5.25l5.9-5.88c1.41-1.43,3.8-1.43,5.25,0l8.41,8.39,17.67-17.67c-17.63-19.56-28.85-45.02-30.29-73.08h-24.98v11.88c0,2.04-1.69,3.73-3.73,3.73h-8.3c-2.04,0-3.71-1.65-3.71-3.73v-35.87c0-2.06,1.67-3.73,3.71-3.73h8.3c2.04,0,3.73,1.67,3.73,3.73v11.87h24.98c1.43-28.07,12.66-53.52,30.29-73.06l-17.67-17.69-8.41,8.39c-1.45,1.47-3.84,1.47-5.25,0l-5.9-5.84c-1.41-1.45-1.41-3.84,0-5.29l25.4-25.37c1.41-1.45,3.84-1.45,5.25,0l5.9,5.86c1.41,1.45,1.41,3.82,0,5.25l-8.41,8.41,17.69,17.67c19.54-17.63,45-28.85,73.03-30.25v-25.02h-11.83c-2.06,0-3.77-1.65-3.77-3.73v-8.27c0-2.04,1.67-3.73,3.77-3.73h35.87c2.04,0,3.73,1.69,3.73,3.73v8.27c0,2.08-1.69,3.73-3.73,3.73h-11.88v25.02Z" style="fill:#c4d1eb; fill-rule:evenodd;"/><path d="M1722.51,846.31c8.87,0,16.03,7.16,16.03,16s-7.16,16-16.03,16-16-7.16-16-16,7.16-16,16-16h0Zm101.02,144.68c-5.2,0-9.39-4.24-9.39-9.44s4.19-9.42,9.39-9.42,9.42,4.24,9.42,9.42-4.21,9.44-9.42,9.44h0Zm-54.07-125.32c-5.22,0-9.42-4.24-9.42-9.42s4.21-9.42,9.42-9.42,9.42,4.19,9.42,9.42-4.24,9.42-9.42,9.42h0Zm-16.03,125.83c9.79,0,17.69,7.92,17.69,17.67s-7.9,17.65-17.69,17.65-17.65-7.9-17.65-17.65,7.9-17.67,17.65-17.67h0Zm55.19-110.42c17.1,0,30.95,13.85,30.95,30.91s-13.85,30.91-30.95,30.91-30.89-13.85-30.89-30.91,13.83-30.91,30.89-30.91h0Zm-131.51,23.75c8.32,0,15.04,6.72,15.04,15.02s-6.72,15.04-15.04,15.04-15.02-6.72-15.02-15.04,6.72-15.02,15.02-15.02h0Zm59.77,14.07c12.97,0,23.45,10.49,23.45,23.45s-10.49,23.45-23.45,23.45-23.46-10.49-23.46-23.45,10.49-23.45,23.46-23.45Z" style="fill:#9db2d9; fill-rule:evenodd;"/><path d="M2038.87,697.69c20.24,1.03,38.61,9.09,52.71,21.8l12.75-12.75-6.06-6.06c-1.03-1.03-1.03-2.74,0-3.8l4.24-4.21c1.01-1.05,2.74-1.05,3.8,0l18.29,18.31c1.07,1.03,1.07,2.74,0,3.8l-4.24,4.21c-1.01,1.05-2.74,1.05-3.78,0l-6.08-6.04-12.75,12.77c12.71,14.09,20.83,32.47,21.86,52.68h18v-8.54c0-1.51,1.25-2.72,2.72-2.72h5.99c1.45,0,2.66,1.21,2.66,2.72v25.9c0,1.45-1.21,2.66-2.66,2.66h-5.99c-1.47,0-2.72-1.21-2.72-2.66v-8.6h-18c-1.03,20.24-9.15,38.63-21.86,52.73l12.75,12.75,6.08-6.06c1.05-1.07,2.77-1.07,3.78,0l4.24,4.22c1.07,1.07,1.07,2.75,0,3.8l-18.29,18.31c-1.07,1.01-2.79,1.01-3.8,0l-4.24-4.24c-1.03-1.03-1.03-2.74,0-3.8l6.06-6.06-12.75-12.75c-14.11,12.75-32.47,20.83-52.71,21.84v18.05h8.54c1.51,0,2.7,1.21,2.7,2.66v5.99c0,1.47-1.19,2.68-2.7,2.68h-25.86c-1.47,0-2.66-1.21-2.66-2.68v-5.99c0-1.45,1.19-2.66,2.66-2.66h8.54v-18.05c-20.24-1.01-38.57-9.09-52.68-21.84l-12.75,12.75,6.02,6.06c1.07,1.07,1.07,2.77,0,3.8l-4.21,4.24c-1.05,1.01-2.77,1.01-3.8,0l-18.29-18.31c-1.06-1.05-1.06-2.77,0-3.8l4.21-4.22c1.05-1.07,2.77-1.07,3.8,0l6.06,6.06,12.75-12.75c-12.71-14.11-20.79-32.49-21.82-52.73h-18.04v8.6c0,1.45-1.21,2.66-2.7,2.66h-5.97c-1.49,0-2.7-1.21-2.7-2.66v-25.9c0-1.51,1.21-2.72,2.7-2.72h5.97c1.49,0,2.7,1.21,2.7,2.72v8.54h18.04c1.03-20.2,9.11-38.59,21.82-52.68l-12.75-12.77-6.06,6.04c-1.03,1.05-2.75,1.05-3.8,0l-4.21-4.21c-1.06-1.07-1.06-2.77,0-3.8l18.29-18.31c1.03-1.05,2.75-1.05,3.8,0l4.21,4.21c1.07,1.07,1.07,2.77,0,3.8l-6.02,6.06,12.75,12.75c14.11-12.71,32.44-20.77,52.68-21.8v-18.05h-8.54c-1.47,0-2.66-1.19-2.66-2.7v-5.95c0-1.51,1.19-2.7,2.66-2.7h25.86c1.51,0,2.7,1.19,2.7,2.7v5.95c0,1.51-1.19,2.7-2.7,2.7h-8.54v18.05Z" style="fill:#c4d1eb; fill-rule:evenodd;"/><path d="M2005.99,723.22c6.39,0,11.57,5.2,11.57,11.59s-5.18,11.53-11.57,11.53-11.55-5.18-11.55-11.53,5.18-11.59,11.55-11.59h0Zm72.88,104.38c-3.76,0-6.8-3.03-6.8-6.8s3.03-6.8,6.8-6.8,6.8,3.03,6.8,6.8-3.03,6.8-6.8,6.8h0Zm-39.03-90.38c-3.75,0-6.78-3.07-6.78-6.79s3.03-6.8,6.78-6.8,6.8,3.03,6.8,6.8-3.07,6.79-6.8,6.79h0Zm-11.53,90.75c7.02,0,12.71,5.69,12.71,12.75s-5.69,12.77-12.71,12.77-12.75-5.71-12.75-12.77,5.69-12.75,12.75-12.75h0Zm39.82-79.64c12.31,0,22.28,9.97,22.28,22.32s-9.97,22.3-22.28,22.3-22.32-9.97-22.32-22.3,9.97-22.32,22.32-22.32h0Zm-94.88,17.14c6.01,0,10.85,4.85,10.85,10.85s-4.85,10.84-10.85,10.84-10.86-4.85-10.86-10.84,4.83-10.85,10.86-10.85h0Zm43.07,10.16c9.37,0,16.95,7.57,16.95,16.92s-7.59,16.92-16.95,16.92-16.9-7.57-16.9-16.92,7.59-16.92,16.9-16.92Z" style="fill:#9db2d9; fill-rule:evenodd;"/><path d="M1546.67,1110.45c20.24,1.03,38.63,9.13,52.73,21.86l12.75-12.76-6.06-6.06c-1.03-1.07-1.03-2.74,0-3.8l4.22-4.22c1.07-1.07,2.75-1.07,3.8,0l18.31,18.29c1.05,1.07,1.05,2.77,0,3.8l-4.24,4.24c-1.03,1.01-2.74,1.01-3.8,0l-6.02-6.06-12.75,12.75c12.71,14.11,20.79,32.47,21.8,52.71h18.05v-8.54c0-1.51,1.21-2.72,2.66-2.72h5.99c1.47,0,2.68,1.21,2.68,2.72v25.86c0,1.45-1.21,2.66-2.68,2.7h-5.99c-1.45,0-2.66-1.25-2.66-2.7v-8.56h-18.05c-1.01,20.24-9.09,38.59-21.8,52.7l12.75,12.75,6.02-6.02c1.07-1.07,2.77-1.07,3.8,0l4.24,4.19c1.05,1.06,1.05,2.79,0,3.8l-18.31,18.31c-1.05,1.07-2.74,1.07-3.8,0l-4.22-4.21c-1.03-1.07-1.03-2.77,0-3.8l6.06-6.06-12.75-12.75c-14.11,12.71-32.49,20.79-52.73,21.8v18.05h8.6c1.45,0,2.66,1.21,2.66,2.7v5.95c0,1.51-1.21,2.72-2.66,2.72h-25.9c-1.47,0-2.68-1.21-2.68-2.72v-5.95c0-1.49,1.21-2.7,2.68-2.7h8.58v-18.05c-20.24-1.01-38.62-9.09-52.71-21.8l-12.76,12.75,6.08,6.06c1.01,1.03,1.01,2.74,0,3.8l-4.24,4.21c-1.03,1.07-2.77,1.07-3.8,0l-18.29-18.31c-1.07-1.01-1.07-2.74,0-3.8l4.22-4.19c1.03-1.07,2.74-1.07,3.8,0l6.02,6.02,12.76-12.75c-12.73-14.11-20.79-32.45-21.82-52.7h-18.05v8.56c0,1.45-1.19,2.7-2.66,2.7h-5.99c-1.51-.04-2.7-1.25-2.7-2.7v-25.86c0-1.51,1.23-2.72,2.7-2.72h5.99c1.47,0,2.66,1.21,2.66,2.72v8.54h18.05c1.03-20.24,9.09-38.61,21.82-52.71l-12.76-12.75-6.02,6.06c-1.07,1.01-2.77,1.01-3.8,0l-4.22-4.24c-1.07-1.03-1.07-2.74,0-3.8l18.29-18.29c1.03-1.07,2.77-1.03,3.8,0l4.24,4.22c1.01,1.07,1.01,2.74,0,3.8l-6.08,6.06,12.76,12.76c14.09-12.73,32.47-20.83,52.71-21.86v-18.05h-8.58c-1.47,0-2.68-1.19-2.68-2.66v-5.99c0-1.47,1.21-2.66,2.68-2.66h25.9c1.45,0,2.66,1.19,2.66,2.66v5.99c0,1.47-1.21,2.66-2.66,2.66h-8.6v18.05Z" style="fill:#c4d1eb; fill-rule:evenodd;"/><path d="M1513.83,1136.02c6.35,0,11.55,5.16,11.55,11.55s-5.2,11.55-11.55,11.55-11.57-5.16-11.57-11.55,5.18-11.55,11.57-11.55h0Zm72.84,104.38c-3.75,0-6.8-3.07-6.8-6.83s3.05-6.8,6.8-6.8,6.79,3.07,6.79,6.8-3.03,6.83-6.79,6.83h0Zm-39.01-90.42c-3.77,0-6.8-3.03-6.8-6.8s3.03-6.8,6.8-6.8,6.8,3.03,6.8,6.8-3.03,6.8-6.8,6.8h0Zm-11.54,90.79c7.04,0,12.75,5.71,12.75,12.75s-5.71,12.73-12.75,12.73-12.76-5.71-12.76-12.73,5.71-12.75,12.76-12.75h0Zm39.82-79.68c12.31,0,22.28,10.01,22.28,22.32s-9.97,22.3-22.28,22.3-22.3-9.97-22.3-22.3,9.97-22.32,22.3-22.32h0Zm-94.88,17.14c5.99,0,10.85,4.85,10.85,10.85s-4.87,10.87-10.85,10.87-10.86-4.89-10.86-10.87,4.87-10.85,10.86-10.85h0Zm43.11,10.16c9.35,0,16.92,7.6,16.92,16.92s-7.57,16.95-16.92,16.95-16.92-7.6-16.92-16.95,7.57-16.92,16.92-16.92Z" style="fill:#9db2d9; fill-rule:evenodd;"/><path d="M1497.24,268.56c16.07,.81,30.62,7.24,41.8,17.32l10.12-10.12-4.79-4.79c-.84-.85-.84-2.19,0-3.03l3.36-3.32c.81-.85,2.19-.85,2.99,0l14.55,14.51c.81,.84,.81,2.19,0,2.99l-3.36,3.36c-.84,.84-2.2,.84-3.03,0l-4.79-4.79-10.12,10.12c10.08,11.19,16.51,25.73,17.32,41.8h14.33v-6.8c0-1.18,.96-2.17,2.11-2.17h4.72c1.19,0,2.15,.99,2.15,2.17v20.53c0,1.16-.95,2.11-2.15,2.11h-4.72c-1.16,0-2.11-.96-2.11-2.11v-6.8h-14.33c-.81,16.03-7.24,30.62-17.32,41.79l10.12,10.12,4.79-4.78c.83-.84,2.19-.84,3.03,0l3.36,3.32c.81,.83,.81,2.19,0,3.03l-14.55,14.49c-.81,.84-2.19,.84-2.99,0l-3.36-3.36c-.84-.79-.84-2.15,0-2.99l4.79-4.78-10.12-10.12c-11.19,10.08-25.73,16.48-41.8,17.32v14.27h6.8c1.18,0,2.11,.95,2.11,2.17v4.7c0,1.18-.94,2.17-2.11,2.17h-20.53c-1.16,0-2.11-.99-2.11-2.17v-4.7c0-1.21,.96-2.17,2.11-2.17h6.8v-14.27c-16.03-.84-30.62-7.24-41.79-17.32l-10.12,10.12,4.81,4.78c.81,.84,.81,2.2,0,2.99l-3.36,3.36c-.84,.84-2.19,.84-3.03,0l-14.51-14.49c-.83-.84-.83-2.2,0-3.03l3.33-3.32c.84-.84,2.24-.84,3.05,0l4.81,4.78,10.12-10.12c-10.12-11.17-16.51-25.75-17.32-41.79h-14.33v6.8c0,1.16-.94,2.11-2.11,2.11h-4.74c-1.17,0-2.13-.96-2.13-2.11v-20.53c0-1.18,.96-2.17,2.13-2.17h4.74c1.17,0,2.11,.99,2.11,2.17v6.8h14.33c.81-16.07,7.2-30.65,17.32-41.8l-10.12-10.12-4.81,4.79c-.81,.84-2.2,.84-3.05,0l-3.33-3.36c-.83-.81-.83-2.15,0-2.99l14.51-14.51c.84-.85,2.19-.85,3.03,0l3.36,3.32c.81,.84,.81,2.19,0,3.03l-4.81,4.79,10.12,10.12c11.17-10.08,25.75-16.51,41.79-17.32v-14.29h-6.8c-1.16,0-2.11-.99-2.11-2.15v-4.72c0-1.19,.96-2.15,2.11-2.15h20.53c1.18,0,2.11,.99,2.11,2.15v4.72c0,1.16-.94,2.15-2.11,2.15h-6.8v14.29Z" style="fill:#c4d1eb; fill-rule:evenodd;"/><path d="M1471.2,288.84c5.03,0,9.13,4.1,9.13,9.17s-4.1,9.13-9.13,9.13-9.17-4.08-9.17-9.13,4.08-9.17,9.17-9.17h0Zm57.8,82.78c-2.99,0-5.42-2.41-5.42-5.4s2.42-5.38,5.42-5.38,5.36,2.42,5.36,5.38-2.41,5.4-5.36,5.4h0Zm-30.99-71.7c-2.96,0-5.38-2.42-5.38-5.38s2.42-5.4,5.38-5.4,5.4,2.41,5.4,5.4-2.41,5.38-5.4,5.38h0Zm-9.13,72c5.58,0,10.08,4.54,10.08,10.08s-4.5,10.12-10.08,10.12-10.12-4.54-10.12-10.12,4.52-10.08,10.12-10.08h0Zm31.55-63.16c9.79,0,17.69,7.9,17.69,17.69s-7.9,17.67-17.69,17.67-17.67-7.92-17.67-17.67,7.92-17.69,17.67-17.69h0Zm-75.21,13.59c4.7,0,8.58,3.84,8.58,8.58s-3.88,8.63-8.58,8.63-8.63-3.88-8.63-8.63,3.84-8.58,8.63-8.58h0Zm34.14,8.03c7.42,0,13.45,6.01,13.45,13.41s-6.02,13.44-13.45,13.44-13.41-6.02-13.41-13.44,6.01-13.41,13.41-13.41Z" style="fill:#9db2d9; fill-rule:evenodd;"/><path d="M1891.78,1155.85c16.03,.81,30.6,7.24,41.78,17.32l10.12-10.12-4.78-4.81c-.85-.81-.85-2.17,0-2.99l3.32-3.36c.83-.81,2.19-.81,3.03,0l14.49,14.53c.85,.81,.85,2.2,0,2.99l-3.32,3.38c-.83,.83-2.19,.83-3.03,0l-4.78-4.83-10.12,10.12c10.08,11.22,16.47,25.75,17.3,41.82h14.29v-6.8c0-1.16,.99-2.15,2.17-2.15h4.7c1.17,0,2.17,.99,2.17,2.15v20.53c0,1.18-.99,2.13-2.17,2.13h-4.7c-1.17,0-2.17-.95-2.17-2.13v-6.8h-14.29c-.83,16.05-7.22,30.62-17.3,41.8l10.12,10.12,4.78-4.83c.84-.79,2.2-.79,3.03,0l3.32,3.36c.85,.84,.85,2.2,0,3.03l-14.49,14.51c-.84,.81-2.2,.81-3.03,0l-3.32-3.36c-.85-.85-.85-2.19,0-2.99l4.78-4.83-10.12-10.12c-11.18,10.12-25.75,16.53-41.78,17.32v14.33h6.8c1.16,0,2.11,.96,2.11,2.11v4.76c0,1.18-.95,2.11-2.11,2.11h-20.54c-1.17,0-2.13-.94-2.13-2.11v-4.76c0-1.16,.95-2.11,2.13-2.11h6.8v-14.33c-16.05-.79-30.62-7.2-41.8-17.32l-10.12,10.12,4.79,4.83c.83,.81,.83,2.15,0,2.99l-3.33,3.36c-.84,.81-2.2,.81-3.03,0l-14.51-14.51c-.84-.83-.84-2.19,0-3.03l3.32-3.36c.84-.79,2.19-.79,3.03,0l4.79,4.83,10.12-10.12c-10.08-11.19-16.53-25.75-17.32-41.8h-14.29v6.8c0,1.18-.99,2.13-2.15,2.13h-4.72c-1.21,0-2.15-.95-2.15-2.13v-20.53c0-1.16,.94-2.15,2.15-2.15h4.72c1.16,0,2.15,.99,2.15,2.15v6.8h14.29c.79-16.07,7.24-30.6,17.32-41.82l-10.12-10.12-4.79,4.83c-.84,.83-2.19,.83-3.03,0l-3.32-3.38c-.84-.79-.84-2.19,0-2.99l14.51-14.53c.83-.81,2.19-.81,3.03,0l3.33,3.36c.83,.83,.83,2.19,0,2.99l-4.79,4.81,10.12,10.12c11.19-10.08,25.75-16.51,41.8-17.32v-14.31h-6.8c-1.17,0-2.13-.96-2.13-2.13v-4.74c0-1.17,.95-2.13,2.13-2.13h20.54c1.16,0,2.11,.96,2.11,2.13v4.74c0,1.17-.95,2.13-2.11,2.13h-6.8v14.31Z" style="fill:#c4d1eb; fill-rule:evenodd;"/><path d="M1865.72,1176.13c5.05,0,9.15,4.1,9.15,9.18s-4.1,9.13-9.15,9.13-9.16-4.1-9.16-9.13,4.1-9.18,9.16-9.18h0Zm57.76,82.76c-2.96,0-5.36-2.39-5.36-5.38s2.41-5.4,5.36-5.4,5.4,2.41,5.4,5.4-2.41,5.38-5.4,5.38h0Zm-30.95-71.69c-2.96,0-5.36-2.41-5.36-5.4s2.41-5.38,5.36-5.38,5.42,2.42,5.42,5.38-2.42,5.4-5.42,5.4h0Zm-9.13,72.02c5.55,0,10.08,4.48,10.08,10.08s-4.54,10.12-10.08,10.12-10.12-4.54-10.12-10.12,4.54-10.08,10.12-10.08h0Zm31.57-63.2c9.75,0,17.67,7.92,17.67,17.71s-7.92,17.69-17.67,17.69-17.69-7.93-17.69-17.69,7.93-17.71,17.69-17.71h0Zm-75.27,13.57c4.76,0,8.61,3.88,8.61,8.63s-3.86,8.58-8.61,8.58-8.58-3.84-8.58-8.58,3.82-8.63,8.58-8.63h0Zm34.2,8.04c7.42,0,13.44,6.02,13.44,13.45s-6.02,13.44-13.44,13.44-13.41-6.02-13.41-13.44,5.99-13.45,13.41-13.45Z" style="fill:#9db2d9; fill-rule:evenodd;"/><path d="M1765.25,185.64h-540.01c3.88-16.42,18.61-28.62,36.2-28.62,.84,0,1.69,0,2.53,.07,8.54-20.86,29.04-35.58,53.01-35.58,10.49,0,20.28,2.81,28.71,7.73,10.3-33.98,41.84-58.66,79.18-58.66,7.55,0,14.93,1.03,21.91,2.96,18.05-39.89,58.21-67.63,104.86-67.63,55.3,0,101.5,39.03,112.52,91.05,.92-.04,1.87-.07,2.79-.07,35.43,0,64.65,26.52,69.01,60.76,14.44,2.7,25.93,13.78,29.29,27.99Z" style="fill:#e0e8f5; fill-rule:evenodd;"/><polygon points="860.13 0 655.57 83.88 711.72 155.62 860.13 0" style="fill:#c4d1eb; fill-rule:evenodd;"/><polygon points="626.66 50.05 853.88 .44 571.03 21.12 626.66 50.05" style="fill:#c4d1eb; fill-rule:evenodd;"/><polygon points="626.66 50.05 632.01 144.24 655.57 83.88 860.13 0 853.88 .44 626.66 50.05" style="fill:#9db2d9; fill-rule:evenodd;"/><polygon points="632.01 144.24 680.44 115.66 655.57 83.88 632.01 144.24" style="fill:#859ac6; fill-rule:evenodd;"/><path d="M594.93,98.96c4.81-.57,5.91,6.87,.84,7.49l-7.46,.92c-4.9,.59-5.88-6.91-.88-7.53l7.49-.88h0ZM168.17,582.23c-4.5-2.55-1.25-8.72,3.25-6.8,2.22,1.03,4.43,2.09,6.69,3.07,4.61,1.98,1.65,8.89-2.96,6.94l-6.98-3.21h0Zm28.74,11.04c-4.52-1.14-3.07-8.54,2.06-7.27,2.37,.66,4.7,1.29,7.13,1.87,4.96,1.23,2.96,8.5-1.73,7.35-2.52-.59-4.96-1.25-7.46-1.95h0Zm30.43,5.47c-4.96-.61-4.59-7.51,.48-7.51,2.46,.15,4.87,.26,7.31,.29,4.94,0,5.01,7.51-.04,7.51-2.55-.15-5.14-.15-7.75-.29h0Zm31.02-1.6c-5,.62-6.28-6.21-1.38-7.42,2.41-.44,4.74-.97,7.11-1.56,4.87-1.21,6.69,6.1,1.87,7.33-2.52,.62-5.09,1.18-7.6,1.65h0Zm29.55-9.72c-3.82,2.19-8.14-4.02-3.36-6.8,2.2-1.03,4.32-2.22,6.43-3.4,4.43-2.52,8.04,4.1,3.84,6.5-2.26,1.29-4.55,2.55-6.91,3.69h0Zm25.77-17.47c-4.1,3.4-8.6-2.66-5.05-5.62,1.76-1.54,3.69-3.32,5.27-5.05,3.62-3.62,8.83,1.87,5.4,5.27-1.82,1.85-3.65,3.66-5.62,5.4h0Zm20.35-23.42c-2.79,3.88-8.89,.33-6.25-4.24,1.34-2.04,2.66-4.1,3.93-6.17,2.39-4.17,9.07-.62,6.47,3.88-1.3,2.22-2.7,4.39-4.15,6.54h0Zm14.42-27.4c-1.67,4.5-8.83,2.09-7.02-2.77,.92-2.26,1.76-4.57,2.61-6.91,1.82-4.89,8.76-1.97,7.13,2.48-.88,2.42-1.76,4.83-2.72,7.2h0Zm9.18-29.26c-1.21,4.87-8.52,2.99-7.35-1.8l1.75-7.25c1.25-5.09,8.49-2.98,7.35,1.63l-1.74,7.42h0Zm6.24-29.74c-.55,4.37-8.12,4.1-7.42-1.4l1.36-7.38c.53-4.44,8.1-4.11,7.4,1.32l-1.34,7.46h0Zm5.29-29.74c-.55,4.41-8.06,4.08-7.42-1.36l1.4-7.46c1.21-4.74,8.08-3.69,7.42,1.43l-1.4,7.38h0Zm6.1-29.35c-1.19,4.87-8.5,2.99-7.29-1.78,.57-2.48,1.19-4.98,1.89-7.42,1.14-4.59,8.54-3.03,7.27,2.02-.73,2.26-1.29,4.89-1.87,7.18h0Zm7.53-26.6c-2.66,1.98-7.2-.57-5.73-4.48,.62-1.62,1.27-3.18,1.97-4.76-.33-1.86,.88-3.36,2.42-3.99,2.55-1.71,6.91,.59,5.69,4.35,.55,1.58,1.18,3.21,1.78,4.79,1.58,4.11-3.58,6.74-6.13,4.08h0Zm15.13-27.33c-3.32,3.99-8.85-.57-6.08-4.48,1.54-2.13,3.2-4.17,4.9-6.13,3.03-3.66,9.02,.97,5.69,4.96-1.6,1.84-3.1,3.73-4.52,5.66h0Zm20.66-19.91c-4.78,2.76-7.95-4.08-4.08-6.32,2.19-1.45,4.37-2.77,6.72-4.06,4.08-2.33,8.1,4.06,3.54,6.65-2.13,1.18-4.17,2.42-6.19,3.73h0Zm26.39-11.72c-4.98,1.23-6.61-6.13-1.95-7.31,2.52-.66,5.01-1.29,7.57-1.78,4.39-1.1,6.72,6.06,1.45,7.37-2.37,.51-4.74,1.07-7.07,1.73h0Zm29.04-4.65c-4.43,.55-5.95-6.83-.51-7.53,2.55-.16,5.12-.31,7.68-.39,5.25,0,4.92,7.51,.26,7.51-2.5,.11-4.94,.22-7.42,.4h0Zm29.37,.59c-4.81-.62-4.02-8.12,1.03-7.49,2.55,.33,5.11,.73,7.64,1.21,4.78,1.21,3.73,8.04-1.43,7.42-2.41-.44-4.79-.85-7.24-1.14h0Zm27.99,7.53c-4.39-1.87-1.65-8.89,3.1-6.87,2.48,1.14,4.72,2.33,7.09,3.62,4.21,2.41,.59,9.02-3.8,6.5l3.8-6.5-3.8,6.5c-2.11-1.18-4.21-2.22-6.39-3.25h0Zm22.94,16.66c-3.29-3.95,2.63-8.63,5.69-4.94,1.76,1.98,3.43,4.21,4.87,6.39,2.77,4.83-4.13,7.97-6.28,4.13-1.32-1.93-2.74-3.84-4.28-5.58h0Zm12.31,25.02c-.61-5.07,6.21-6.25,7.42-1.41,.51,2.63,.84,5.25,1.07,7.97,0,5.03-6.91,5.44-7.53,.42-.18-2.37-.48-4.67-.96-6.98h0Zm-1.52,27.99c1.05-4.28,8.5-3.1,7.2,2.26-.81,2.57-1.73,5.01-2.77,7.46-1.95,4.54-8.89,1.62-6.91-2.99,.94-2.22,1.75-4.43,2.48-6.72h0Zm-13.96,24.74c2.99-3.62,8.98,.94,5.62,5-1.71,1.95-3.58,3.91-5.47,5.68-3.91,3.29-8.61-2.02-5.16-5.53,1.76-1.6,3.43-3.36,5.01-5.14h0Zm-22.54,17.78c4.11-2.37,8.06,4.06,3.58,6.61-2.31,1.25-4.65,2.42-7.05,3.47-4.68,2.02-7.49-4.96-3.03-6.89,2.19-.99,4.33-2.06,6.5-3.2h0Zm-27.18,10.16c4.44-1.08,6.72,6.12,1.52,7.42-2.55,.55-5.07,1.03-7.7,1.43-4.98,.62-5.86-6.87-.96-7.49,2.41-.44,4.7-.84,7.13-1.36h0Zm-28.84,1.91c5.12,.62,3.95,8.06-.75,7.49-2.61-.22-5.35-.66-7.86-1.18-5.2-1.29-2.92-8.47,1.52-7.38,2.28,.44,4.79,.84,7.09,1.07h0Zm-27.64-7.86c4.48,2.52,1.23,8.71-3.29,6.8-2.35-1.12-4.68-2.41-6.94-3.73-4.17-2.37-.59-9.02,3.86-6.47,2.06,1.21,4.24,2.39,6.37,3.4h0Zm-23.82-16.44c3.73,3.73-1.84,8.8-5.16,5.47-1.89-1.75-3.8-3.6-5.55-5.51-3.47-4.17,2.66-8.58,5.58-5.07,1.62,1.74,3.4,3.47,5.12,5.11h0Zm-18.72-22.43c2.74,4.78-4.13,7.95-6.32,4.1-1.41-2.17-2.74-4.35-4.06-6.58-2.48-4.39,4.1-8.04,6.54-3.8,1.25,2.11,2.53,4.22,3.84,6.28h0Zm-21.88-54.37c1.1,4.39-6.1,6.76-7.42,1.45-.51-2.52-.99-5-1.4-7.55-.64-5.2,6.87-5.82,7.46-1.18,.44,2.44,.84,4.87,1.36,7.27h0Zm-3.62-29.3c0,5.25-7.53,4.89-7.53,.22-.11-2.57-.18-5.12-.18-7.68,0-4.94,7.57-4.98,7.57,.04,0,2.48,.04,4.92,.15,7.42h0Zm1.18-29.57c-.62,4.94-8.12,4.02-7.49-.94,.29-2.52,.66-5.09,1.05-7.64,.55-4.5,8.12-4.1,7.46,1.29-.48,2.3-.77,4.96-1.01,7.29h0Zm5.88-28.93c-1.14,4.43-8.56,3.07-7.27-2.15,.73-2.46,1.49-4.9,2.3-7.35,1.87-4.94,8.78-1.95,7.16,2.41-.81,2.33-1.52,4.72-2.19,7.09h0Zm10.45-27.59c-2.76,4.83-8.96,.48-6.76-3.36,1.12-2.3,2.26-4.55,3.47-6.87,2.59-4.48,8.98-.51,6.65,3.62-1.18,2.17-2.28,4.39-3.36,6.61h0Zm14.9-25.53c-2.88,4.06-9.02-.33-6.13-4.39,1.47-2.08,2.99-4.15,4.54-6.21,3.4-4.06,8.94,1.07,5.95,4.65-1.51,1.97-2.92,3.95-4.35,5.95h0Zm18.86-22.76c-3.58,3.58-8.85-1.87-5.42-5.31,1.8-1.86,3.62-3.66,5.49-5.4,3.32-3.32,8.87,1.78,5.18,5.47-1.78,1.73-3.55,3.43-5.25,5.23h0Zm22.17-19.62c-3.47,2.88-8.72-2.57-4.54-6.04,2.02-1.56,4.1-3.1,6.17-4.55,3.95-2.81,8.49,3.25,4.32,6.21-2.04,1.41-4.02,2.88-5.95,4.39h0Zm24.78-16.31c-4.24,2.42-8.08-4.08-3.69-6.58,2.22-1.27,4.48-2.52,6.76-3.67,3.91-2.28,8.1,4,3.43,6.7-2.2,1.1-4.39,2.35-6.5,3.54h0Zm26.71-13.04c-4.46,1.91-7.57-4.96-2.88-6.98,2.37-.97,4.74-1.93,7.11-2.85,4.65-1.75,7.31,5.34,2.68,7.05-2.31,.88-4.65,1.84-6.91,2.77h0Zm28.01-10.01c-5.14,1.29-6.58-6.13-2.08-7.24l7.31-2.11c5-1.25,6.61,6.13,1.97,7.31l-7.2,2.04h0Zm28.98-7.27c-4.43,1.1-6.72-6.1-1.51-7.4,2.48-.51,4.98-.99,7.46-1.47,5.51-.66,5.77,6.87,1.38,7.42-2.44,.48-4.89,.92-7.33,1.45Z" style="fill:#859ac6; fill-rule:evenodd;"/><path d="M604.71,1043.26c-74.39,0-134.67,13.59-134.67,30.36s60.28,30.36,134.67,30.36,134.7-13.59,134.7-30.36-60.32-30.36-134.7-30.36Z" style="fill:#c4d1eb; fill-rule:evenodd;"/><path d="M255.59,1045.6c74.39,0,134.7,13.59,134.7,30.32s-60.32,30.36-134.7,30.36-134.67-13.59-134.67-30.36,60.28-30.32,134.67-30.32Z" style="fill:#c4d1eb; fill-rule:evenodd;"/><path d="M1114.84,1083.67c74.42,0,134.7,13.59,134.7,30.36s-60.28,30.32-134.7,30.32-134.67-13.59-134.67-30.32,60.28-30.36,134.67-30.36Z" style="fill:#c4d1eb; fill-rule:evenodd;"/><path d="M1060.58,898.26c-74.39,0-134.67,13.59-134.67,30.36s60.28,30.36,134.67,30.36,134.7-13.59,134.7-30.36-60.32-30.36-134.7-30.36Z" style="fill:#c4d1eb; fill-rule:evenodd;"/><path d="M623.56,948.6c-74.37,0-134.65,13.59-134.65,30.32s60.28,30.36,134.65,30.36,134.7-13.59,134.7-30.36-60.32-30.32-134.7-30.32Z" style="fill:#c4d1eb; fill-rule:evenodd;"/><path d="M1096.03,988.97c74.37,0,134.65,13.59,134.65,30.36s-60.28,30.36-134.65,30.36-134.7-13.59-134.7-30.36,60.28-30.36,134.7-30.36Z" style="fill:#c4d1eb; fill-rule:evenodd;"/><path d="M1079.45,803.59c-74.39,0-134.67,13.59-134.67,30.36s60.28,30.32,134.67,30.32,134.69-13.59,134.69-30.32-60.32-30.36-134.69-30.36Z" style="fill:#c4d1eb; fill-rule:evenodd;"/><ellipse cx="630.94" cy="1032.81" rx="134.7" ry="30.36" style="fill:#c4d1eb;"/><path d="M1088.61,1042.82c74.42,0,134.7,13.59,134.7,30.36s-60.28,30.36-134.7,30.36-134.67-13.59-134.67-30.36,60.32-30.36,134.67-30.36Z" style="fill:#c4d1eb; fill-rule:evenodd;"/><path d="M1086.81,857.44c-74.37,0-134.65,13.59-134.65,30.36s60.28,30.36,134.65,30.36,134.7-13.59,134.7-30.36-60.32-30.36-134.7-30.36Z" style="fill:#c4d1eb; fill-rule:evenodd;"/><path d="M649.81,907.75c-74.39,0-134.67,13.59-134.67,30.36s60.28,30.36,134.67,30.36,134.69-13.59,134.69-30.36-60.32-30.36-134.69-30.36Z" style="fill:#c4d1eb; fill-rule:evenodd;"/><path d="M1069.79,948.12c74.39,0,134.67,13.63,134.67,30.36s-60.28,30.36-134.67,30.36-134.69-13.59-134.69-30.36,60.28-30.36,134.69-30.36Z" style="fill:#c4d1eb; fill-rule:evenodd;"/><path d="M604.71,1138.26c-74.39,0-134.67-13.59-134.67-30.36v-34.27c0,16.77,60.28,30.36,134.67,30.36s134.7-13.59,134.7-30.36v34.27c0,16.77-60.32,30.36-134.7,30.36Z" style="fill:#9db2d9; fill-rule:evenodd;"/><path d="M255.59,1140.55c74.39,0,134.7-13.59,134.7-30.36v-34.27c0,16.77-60.32,30.36-134.7,30.36s-134.67-13.59-134.67-30.36v34.27c0,16.77,60.28,30.36,134.67,30.36Z" style="fill:#9db2d9; fill-rule:evenodd;"/><path d="M1114.84,1178.63c74.42,0,134.7-13.59,134.7-30.36v-34.24c0,16.73-60.28,30.32-134.7,30.32s-134.67-13.59-134.67-30.32v34.24c0,16.77,60.28,30.36,134.67,30.36Z" style="fill:#9db2d9; fill-rule:evenodd;"/><path d="M1060.58,993.25c-74.39,0-134.67-13.59-134.67-30.36v-34.27c0,16.77,60.28,30.36,134.67,30.36s134.7-13.59,134.7-30.36v34.27c0,16.77-60.32,30.36-134.7,30.36Z" style="fill:#9db2d9; fill-rule:evenodd;"/><path d="M623.56,1043.56c-74.37,0-134.65-13.59-134.65-30.36v-34.27c0,16.77,60.28,30.36,134.65,30.36s134.7-13.59,134.7-30.36v34.27c0,16.77-60.32,30.36-134.7,30.36Z" style="fill:#9db2d9; fill-rule:evenodd;"/><path d="M1096.03,1083.93c74.37,0,134.65-13.59,134.65-30.32v-34.27c0,16.77-60.28,30.36-134.65,30.36s-134.7-13.59-134.7-30.36v34.27c0,16.73,60.28,30.32,134.7,30.32Z" style="fill:#9db2d9; fill-rule:evenodd;"/><path d="M1079.45,898.55c-74.39,0-134.67-13.59-134.67-30.36v-34.24c0,16.73,60.28,30.32,134.67,30.32s134.69-13.59,134.69-30.32v34.24c0,16.77-60.32,30.36-134.69,30.36Z" style="fill:#9db2d9; fill-rule:evenodd;"/><path d="M630.94,1097.41c-74.39,0-134.7-13.59-134.7-30.36v-34.24c0,16.77,60.32,30.36,134.7,30.36s134.7-13.59,134.7-30.36v34.24c0,16.77-60.32,30.36-134.7,30.36Z" style="fill:#9db2d9; fill-rule:evenodd;"/><path d="M1088.61,1137.82c74.42,0,134.7-13.59,134.7-30.36v-34.27c0,16.77-60.28,30.36-134.7,30.36s-134.67-13.59-134.67-30.36v34.27c0,16.77,60.32,30.36,134.67,30.36Z" style="fill:#9db2d9; fill-rule:evenodd;"/><path d="M1086.81,952.4c-74.37,0-134.65-13.56-134.65-30.32v-34.27c0,16.77,60.28,30.36,134.65,30.36s134.7-13.59,134.7-30.36v34.27c0,16.77-60.32,30.32-134.7,30.32Z" style="fill:#9db2d9; fill-rule:evenodd;"/><path d="M649.81,1002.75c-74.39,0-134.67-13.59-134.67-30.36v-34.27c0,16.77,60.28,30.36,134.67,30.36s134.69-13.59,134.69-30.36v34.27c0,16.77-60.32,30.36-134.69,30.36Z" style="fill:#9db2d9; fill-rule:evenodd;"/><path d="M1069.79,1043.12c74.39,0,134.67-13.59,134.67-30.36v-34.27c0,16.77-60.28,30.36-134.67,30.36s-134.69-13.59-134.69-30.36v34.27c0,16.77,60.28,30.36,134.69,30.36Z" style="fill:#9db2d9; fill-rule:evenodd;"/><path d="M1023.79,819.39c-3.32,2.74-6.8,6.65-7.82,11.87l-18.44,.4-1.07,8.01,19.84-.4c3.05,8.54,15.54,13.44,32.6,13.08,17.52-.37,27.33-6.17,36.38-14.25,7.97-7.66,14.03-10.49,22.9-10.67,8.69-.18,15.08,2.57,14.33,8.45-.7,5.14-5.16,10.05-9.57,13.3l19.14,2.04c4.24-3.18,8.39-8.54,9.46-13.78l19.8-.42,1.07-7.97-21.2,.4c-2.59-9.15-16.14-14.25-33.87-13.88-18.07,.37-28.41,5-38.9,14.8-7.64,6.61-12.97,10.21-20.98,10.36-6.76,.15-13.52-2.48-12.78-7.95,.62-4.72,4.79-8.82,7.71-11.3l-18.61-2.08Z" style="fill:#fff; fill-rule:evenodd;"/><path d="M199.96,1061.39c-3.32,2.74-6.8,6.65-7.86,11.87l-18.42,.4-1.05,8.01,19.84-.4c2.99,8.54,15.52,13.45,32.58,13.08,17.54-.37,27.33-6.17,36.38-14.25,7.97-7.68,14.03-10.49,22.9-10.67,8.71-.18,15.1,2.57,14.33,8.45-.7,5.11-5.14,10.05-9.57,13.3l19.14,2.04c4.24-3.18,8.41-8.54,9.48-13.81l19.8-.4,1.05-7.99-21.18,.44c-2.61-9.15-16.16-14.25-33.87-13.89-18.09,.37-28.43,4.96-38.92,14.79-7.62,6.61-12.97,10.23-20.96,10.38-6.76,.15-13.52-2.48-12.8-7.95,.62-4.72,4.79-8.82,7.71-11.33l-18.59-2.04Z" style="fill:#fff; fill-rule:evenodd;"/><path d="M594.15,923.55c-3.32,2.77-6.8,6.69-7.86,11.9l-18.4,.37-1.07,8.01,19.8-.4c3.05,8.58,15.58,13.44,32.6,13.08,17.58-.33,27.37-6.13,36.42-14.25,7.93-7.68,14.03-10.45,22.9-10.63,8.69-.18,15.1,2.54,14.29,8.41-.66,5.14-5.12,10.05-9.53,13.3l19.1,2.08c4.28-3.18,8.43-8.58,9.5-13.81l19.8-.4,1.07-7.99-21.23,.44c-2.59-9.18-16.11-14.25-33.87-13.92-18.07,.4-28.38,5-38.86,14.82-7.64,6.58-12.97,10.19-20.97,10.38-6.76,.11-13.56-2.52-12.82-7.95,.66-4.76,4.83-8.85,7.75-11.33l-18.61-2.08Z" style="fill:#fff; fill-rule:evenodd;"/><path d="M1173.98,745.26c-73.65,10.27-131.51,32.07-129.17,48.65,2.3,16.62,63.9,21.75,137.59,11.48,73.65-10.27,131.53-32.09,129.17-48.71-2.3-16.59-63.9-21.73-137.59-11.42Z" style="fill:#c4d1eb; fill-rule:evenodd;"/><path d="M1187.11,839.3c-73.67,10.3-135.25,5.14-137.61-11.44l-4.7-33.94c2.3,16.62,63.9,21.75,137.59,11.48,73.65-10.27,131.53-32.09,129.17-48.67l4.76,33.91c2.29,16.62-55.52,38.41-129.21,48.67Z" style="fill:#9db2d9; fill-rule:evenodd;"/><path d="M1114.88,768.68c-2.88,3.21-5.77,7.57-6.06,12.86l-18.2,2.92,.04,8.08,19.54-3.14c4.21,8.06,17.28,11.17,34.12,8.47,17.32-2.77,26.23-9.9,34.05-19.14,6.83-8.71,12.45-12.31,21.23-13.74,8.58-1.36,15.3,.44,15.34,6.39,.04,5.2-3.73,10.63-7.62,14.47l19.25-.59c3.73-3.77,7.13-9.64,7.46-14.99l19.58-3.14-.07-8.06-20.94,3.36c-3.84-8.71-17.98-11.88-35.47-9.07-17.87,2.87-27.44,8.85-36.48,20.02-6.65,7.6-11.42,11.92-19.32,13.21-6.72,1.05-13.78-.62-13.81-6.15-.04-4.78,3.54-9.39,6.1-12.27l-18.73,.51Z" style="fill:#fff; fill-rule:evenodd;"/><path d="M696.57,534.02l-.04,3.07s.83,9.61-11,11.04c-11.85,1.38-21.56,1.19-21.23-6.23,1.07-5.77,2.96-14.67,3.03-19.43,.04-1.74-.07-3.65-.4-5.77l22.96-.44,6.76,1.1-.07,16.66Z" style="fill:#f9af79; fill-rule:evenodd;"/><path d="M696.64,517.36l-.07,16.66c-2.46,1.12-5.2,1.82-8.27,1.82-10.56,0-17.39-7.73-20.97-13.37,.04-1.74-.07-3.65-.4-5.77l22.96-.44,6.76,1.1Z" style="fill:#ed7d57; fill-rule:evenodd;"/><path d="M665.18,513.01c2.66,14.36,21.16,13.89,29.15,12.97,2.24-.26,3.66-.55,3.66-.55,2.55-.64,3.95-4.63,4.61-9.9,1.32-10.34-.33-25.53-2.09-29.44-2.63-5.84-7.59-12.16-26.23-7.6-18.62,4.57-12.53,16.2-9.09,34.53Z" style="fill:#f9af79; fill-rule:evenodd;"/><path d="M650.06,937.43h26.19c-.18-1.4-.88-5.56-2.09-9.44-.44-1.3-.94-2.63-1.49-3.75-2.55-5.09-18.75-1.87-18.75-1.87,0,0-1.49,1.32-2.66,6.21-.51,2.2-.99,5.05-1.19,8.85Z" style="fill:#172b57; fill-rule:evenodd;"/><path d="M729.26,929.17c.04,3.55,.51,6.91,1.78,8.26h51.85c-.66-1.91-2.52-4.72-7.86-5.56-6.02-.97-15.45-3.91-20.96-9.72-1.98-2.08-3.43-4.48-4.06-7.38-2.46-10.84-20.17,3.36-20.17,3.36,0,0-.73,5.71-.59,11.04Z" style="fill:#172b57; fill-rule:evenodd;"/><path d="M694.77,811.75c.7,3.99,1.18,7.27,1.29,9.61,1.63,32.12,27.07,105.63,31.59,107.34,7.05,2.66,18.13-2.96,23.93-4.81,2.39-.77,4.02-3.18,3.47-5.68-12.56-57.82-17.21-141.13-18.88-190.45-.85-24.85-5.12-42-5.12-42,0,0-61.99-16.55-62.36,4.37-.33,18.5,20.53,91.12,26.08,121.63Z" style="fill:#223f81; fill-rule:evenodd;"/><path d="M694.77,811.75l41.4-83.99c-.85-24.85-5.12-42-5.12-42,0,0-61.99-16.55-62.36,4.37-.33,18.5,20.53,91.12,26.08,121.63Z" style="fill:#172b57; fill-rule:evenodd;"/><path d="M708.54,690.19l-32.77,237.47s-14.36,3.47-25.57,.7c0,0-9.59-126.29-8.82-156.84,.81-30.54-6.87-81.7,1.76-87.35,8.65-5.62,65.39,6.02,65.39,6.02Z" style="fill:#223f81; fill-rule:evenodd;"/><path d="M706.21,472.45s-8.19-.62-17.87-4.81c-7.82-3.44-17.76,.31-20.94,2,.07-.51,.26-1.21,.77-1.93,0,0-1.41,1.05-1.67,2.44-.15,.15-.18,.22-.15,.22,0,0-1.65-.29-2.7,.18,0,0,.72-.11,1.01,.37,0,.04,.04,.11,.11,.15-12.27,5.91-13.37,25.24-9.42,29.74,4.72,5.36,10.41,17.49,10.41,17.49,0,0,2.08-2.85,1.19-7.59-.86-4.76,3.23-4.76,8.41-6.91,5.18-2.13,.88-8.19,5.4-11.85,4.5-3.66,21.09-1.49,20.87-4.3,6.17-2.24,4.57-14.58,4.57-15.21Z" style="fill:#20386f; fill-rule:evenodd;"/><path d="M661.49,546.03l7.57,161.85s62.94,1.03,61.16-13.22c-1.8-14.25-22.7-143.65-22.7-143.65l-46.03-4.98Z" style="fill:#fff; fill-rule:evenodd;"/><path d="M639.02,637.78c3.77,11.26-3.32,48.95-5.84,61.69-.55,2.72-.92,4.32-.92,4.32,8.72,14.18,40.66,14,40.66,14,6.13-27.15,9.31-70.36,9.31-70.36l-24.48-107.41-30.84,28.51s2.35,17.38,5.23,35.06c2.26,14,4.85,28.25,6.87,34.2Z" style="fill:#20386f; fill-rule:evenodd;"/><path d="M751.83,613.66c.04-.07,.04-.22,.04-.26,0-2.33-8.87-7.49-18.51-13.59-.15-.11-.18-.18-.18-.18h-.04c.18,4.98,.18,9.83-.15,14.36-.55,8.43,.07,18.48,1.08,28.71,4.61-7.14,16.84-26.41,17.76-29.04h0Zm-25.02-65.31v.07c1.49,1.41,43.51,42.23,51.65,58.22,8.3,16.22-37.87,48.53-37.87,48.53,0,0-2.98,1.16-5.05,.7,2.19,17.93,4.65,34.48,3.18,41.53-2.59,12.75-14.44,17.06-14.44,16.03,0-.29-4.3-46.36-6.65-70.4-5.03-51.5-17.6-102.69-17.6-102.69,13.74,1.43,26.78,8.01,26.78,8.01Z" style="fill:#20386f; fill-rule:evenodd;"/><path d="M659.71,539.82c-.07-1.54,7.25-3.69,7.25-3.69,0,0,8.38,11.63,22.19,11.81,0,0-3.95,7.66-8.6,9.64,0,0-20.39-8.6-20.85-17.76Z" style="fill:#d8e8f7; fill-rule:evenodd;"/><path d="M689.15,547.68s7.31-4.35,7.31-9.04c0,0,4.74-.57,6.8,1.69,0,0,1.71,8.08-.59,12.75,0,0-10.52-1.6-13.52-5.4Z" style="fill:#d8e8f7; fill-rule:evenodd;"/><path d="M684.17,546.99l9.9-2.37s1.32,.11,1.25,1.71c-.04,1.62-2.77,6.32-3.99,6.72-1.23,.37-9.5-2.81-7.16-6.06Z" style="fill:#466fb5; fill-rule:evenodd;"/><path d="M660.86,539.02c-.07-1.52,4.87-4.7,4.87-4.7,0,0,9.61,11.17,23.42,11.39,0,0-3.95,7.64-8.6,9.61,0,0-19.25-7.11-19.69-16.29Z" style="fill:#e9f0f9; fill-rule:evenodd;"/><path d="M689.15,545.7s7.38-3.93,7.38-8.61c0,0,4.48,1.97,6.54,4.24,0,0,1.89,5.07-.4,9.75,0,0-10.52-1.62-13.52-5.38Z" style="fill:#e9f0f9; fill-rule:evenodd;"/><path d="M708.51,657.35c-.33,3.77-2.08,7.31-4.85,9.86l-4.43,4.02c-1.1,1.03-2.81,.92-3.77-.29l-5.44-6.91c-1.43-1.82-2.13-4.21-1.91-6.54,.51-5.22,1.47-15.26,2.24-25,.61-7.88,1.08-15.52,1.12-20.2,.11-14.82-2.81-62.21-2.81-62.21l3.54,.18s8.83,18.37,13.48,43.4c1.18,6.17,2.04,12.75,2.48,19.51,0,0,1.84,27.07,.33,44.17Z" style="fill:#6d96ce; fill-rule:evenodd;"/><path d="M708.51,657.35c-.33,3.77-2.08,7.31-4.85,9.86l-4.43,4.02c-1.1,1.03-2.81,.92-3.77-.29l-5.44-6.91c-1.43-1.82-2.13-4.21-1.91-6.54,.51-5.22,1.47-15.26,2.24-25,9.83-11.06,13.79-26.38,15.34-38.83,1.18,6.17,2.04,12.75,2.48,19.51,0,0,1.84,27.07,.33,44.17Z" style="fill:#466fb5; fill-rule:evenodd;"/><path d="M743.55,657.8c0-4.13-3.65-7.46-7.71-6.83-1.14,.18-2.15,.66-2.88,1.56-2.77,3.77-5.49,14.62-.48,15.13,2,.22,4.61-1.21,6.61-2.74,2.04-1.54,4.46-3.99,4.46-6.5v-.62Z" style="fill:#f9af79; fill-rule:evenodd;"/><path d="M633.18,699.47c9.02-9.39,24.61-27.86,24.06-43.03-.72-21.25-25.09-52.86-25.09-52.86,2.26,14,4.85,28.25,6.87,34.2,3.77,11.26-3.32,48.95-5.84,61.69Z" style="fill:#172b57; fill-rule:evenodd;"/><path d="M633.46,662.55s6.5,3.2,10.45,1.6c3.91-1.6,8.56-2.85,12.99,2.19,4.37,5.01,5.33,8.49,4.37,10.34-.92,1.84-11.17,1.14-12.89,0-1.69-1.16-4.39-4.02-6.1-3.54-4.72,1.4-8.71-2.22-10.93-5.07-1.3-1.73,2.3-2.55,2.11-5.51Z" style="fill:#f9af79; fill-rule:evenodd;"/><path d="M657.76,540.01s-25.86,2.85-31.96,14.14c-6.1,11.2-37.78,56.85-36.75,75.8,1.05,18.97,43.25,40.22,43.25,40.22,0,0,9.35-3.95,9.46-8.21,.15-4.24-29.15-29.64-27.4-34.38,1.8-4.72,34.09-42.21,37.19-54.59,3.1-12.34,6.21-32.99,6.21-32.99Z" style="fill:#20386f; fill-rule:evenodd;"/><path d="M733.17,599.63s.04,.07,.18,.18c9.64,6.1,18.51,11.26,18.51,13.59,1.32-4.13-11.22-21.34-15.26-24.8-4.13-3.58-3.43,11.02-3.43,11.02Z" style="fill:#172b57; fill-rule:evenodd;"/><path d="M665.73,534.31s19.65,82.16,16.51,113.14c0,0-7.24-33.1-24.56-60.21,0,0,6.32-5.55,5.97-7.6,0,0-4.68-1.41-9.26-.48,0,0,.51-35.43,3.32-39.16,2.85-3.77,8.01-5.69,8.01-5.69Z" style="fill:#172b57; fill-rule:evenodd;"/><path d="M696.53,537.09c-.4-.26,19.47,80.3,21.1,105.94,0,0-1.97-45.77-1.75-58.96,0,0-8.19-4.35-8.19-5.84s8.71-5.6,8.71-5.6c0,0-5.49-28.19-8.49-31.3-3.03-3.14-11.39-4.24-11.39-4.24Z" style="fill:#172b57; fill-rule:evenodd;"/><path d="M318.8,684.87c11.33-4.06,9.75,4.24,11.88,12.67-4.17,2.37-6.47,4.43-8.04,8.27-3.21-2.39-5.58-1.73-7.79-4.98-3.65-4.35-8.25-12.75-3.65-13.33,1.43,3.69,3.2,4.5,5.34,5.99-.18-1.86-.59-3.69-1.18-5.51-.7-2.33-2.11-4.83-4.33-7.42-4.24-1.07-5.97-2.33-5.16-3.8,5.25-.97,9.57,1.73,12.93,8.12Z" style="fill:#f9af79; fill-rule:evenodd;"/><path d="M319.46,857.59c5.62,15.91,10.34,52.03,12.09,108.48,1.43,27.44-2.52,63.9-7.59,111.84-4.98,2.26-12.32,2.74-17.94,2.55-8.01-66.2-9.72-94.26-5.84-112.63-9.22-19.41-14.8-38.59-20.09-58.76-2.7,28.21-6.17,50.56-10.34,67.19-9.53,26.63-23.79,61.57-42.7,104.82-4.57,.7-12.8-.48-17.61-3.47,8.94-47.28,14.97-96.24,30.4-105.45-11.77-58.22-6.28-92.35,4.85-113.88,29.81,3.36,54.77,3.14,74.79-.7Z" style="fill:#20386f; fill-rule:evenodd;"/><path d="M324.07,760.26c3.8,42.06-4.94,38.55-4.61,97.33-14.91,2.85-32.55,3.69-52.9,2.57,1.34,5.66,2.41,10.69,3.21,14.49-4.24-.04-10.82-.11-15.28,5.91-4.33-6.81-8.14-13.15-11.39-19.03-10.41-18.66-15.72-32.91-17.43-44.82-10.82-70.31,6.02-93.29,48.27-94.55,2.77,6.87,18,11.31,22.43,10.91,3.14-1.82,4.61-6.8,7.13-11.42,12.82,2.3,25.71,9.31,32.77,15.19-6.17-9.86-11.22-19.62-15.15-29.3,1.27-4.39,4.85-7.9,10.62-10.52,45.02,38.37,60.94,62.41,47.75,72.09-14.03,5.69-32.47,2.74-55.41-8.85Z" style="fill:#6d96ce; fill-rule:evenodd;"/><path d="M342.14,1096.93c-14.42,.99-26.82,2.04-32.25,1.03-6.35-1.21-4.35-4.98-1.51-10.93,5.68,1.71,11.33,1.1,16.99-1.82,4.98,3.36,12.1,5.29,21.34,5.77,4.1,2.52,2.74,5.18-4.57,5.95h0Zm-117.27,4.9c-8.1-2.09-15.52-4.17-18.62-6.12-4.43-2.81-2.17-5.62,1.97-10.08,4.94,3.29,10.52,4.35,16.77,3.18,4.57,6.23,18.92,3.27,20.42,7.53,1.98,7.97-16.66,6.5-20.53,5.49Z" style="fill:#172b57; fill-rule:evenodd;"/><path d="M266.56,860.16c-3.43-14.58-8.63-33.26-15.5-45.02,2.68-12.49,2.61-28.21,1.4-43.11,3.43,11.04,6.13,26.52,5.47,42.96,5.75,12.08,9.72,27.4,12.47,45.35-1.25-.04-2.53-.11-3.84-.18h0Zm79.64-108.7c-9.16-11.22-18.22-19.51-27.11-24.92,6.94,3.05,13.04,6.87,17.17,10.3,3.03,4.83,6.35,9.72,9.94,14.62Z" style="fill:#466fb5; fill-rule:evenodd;"/><path d="M296.37,733.08c-4.43,.4-19.65-4.04-22.43-10.91,2.96-4.57,4.59-9.68,4.92-12.51-.77-1.27-1.63-2.96-2.59-5-10.3-4.43-12.42-8.76-6.39-13,1.49,.51,3.62,2.48,6.32,5.95,1.56-.37,2.63-1.43,3.14-3.1-3.14-6.17-5.4-11.22-6.76-15.21,3.18-7.51,13.52-10.51,27.77-11.39,1.34,3.58,2.66,7.38,3.88,11.46,2.88,1.8,4.19,10.23,3.78,20.35,2.2,5.31-.61,8.96-8.43,11,.33,2.55,2.19,8.91,3.91,10.93-2.52,4.63-3.99,9.61-7.13,11.42Z" style="fill:#f9af79; fill-rule:evenodd;"/><path d="M300.36,667.92c-14.25,.88-24.59,3.88-27.77,11.39,1.36,3.99,3.62,9.04,6.76,15.21-.51,1.67-1.58,2.74-3.14,3.1-2.7-3.47-4.83-5.44-6.32-5.95-6.02,4.24-3.91,8.58,6.39,13,.96,2.04,1.82,3.73,2.59,5-8.58-.24-16.84-6.25-18.44-9.24-13.19-16.99-4.06-27.04,1.08-31.02-1.08-19.18,29.24-7.92,41.03-19.54,6.87,6.43,2,17.06-2.19,18.05Z" style="fill:#20386f; fill-rule:evenodd;"/><path d="M267.86,865.82c-.46-2.08-.9-3.99-1.3-5.66,1.3,.07,2.59,.15,3.84,.18,.68,4.04,1.34,9.02,1.97,14.9-.7-.22-1.58-.44-2.59-.59-.51-2.44-1.18-5.4-1.87-8.72-.04-.04-.04-.07-.04-.11Z" style="fill:#2c2066; fill-rule:evenodd;"/><path d="M288.66,710.29c2.59,.48,7.38,.92,10.93,.44,.18,1.4,.81,3.91,1.6,6.24-3.82-.18-10.54-4.26-12.53-6.69Z" style="fill:#ed7d57; fill-rule:evenodd;"/><path d="M224.61,1081.26c-.73,2.48-1.01,5.07-.81,7.77-5.11,.7-9.79-.11-14.01-2.44,1.16-2.33,2.04-4.85,2.55-7.57,3.87,1.58,8.61,2.31,12.27,2.24h0Zm85.02,6.1c.22-2.37,.26-4.68,.11-6.91,4.02-.07,8.36-.55,11.98-1.71,.48,2.99,1.32,5.33,2.57,7-4.87,2.28-9.75,2.79-14.66,1.62Z" style="fill:#f9af79; fill-rule:evenodd;"/><path d="M268.75,874.65c1.98,6.28,3.32,12.47,4.1,18.46-3.03,8.43-6.91,13.15-11.59,14.22-5.36-.33-6.47-4.43-7.81-7.31,3.14-2.55,4.92-5.53,5.4-8.96-2.92-2.26-3.73-4.63-2.37-7.18-.59-1.4-1.18-2.68-1.69-3.8,3.51-4.43,6.76-5.46,10.01-5.57,1.32-.04,2.64,.07,3.95,.15Z" style="fill:#f9af79; fill-rule:evenodd;"/><path d="M258,811.12c27.77-1.05,49.52-4.28,65.22-9.64,.33-2.41,.66-4.78,.96-7.2-15.65,4.83-37.74,8.04-66.32,9.61,.15,2.39,.18,4.79,.15,7.24Z" style="fill:#466fb5; fill-rule:evenodd;"/><path d="M256.99,793.36c31.7-.28,54.35-3.27,67.94-9.02,.07-2.15,.11-4.48,.07-7.02-15.34,6.21-38.39,9.04-69.19,8.49,.44,2.41,.84,4.96,1.18,7.55h0Zm39.38-60.28c-4.43,.4-19.65-4.04-22.43-10.91-.99,0-2.02,.07-2.98,.11,2.61,7.46,11.19,12.12,25.81,14,4.24-3.62,7.2-8.34,8.91-14.18-.73-.18-1.45-.33-2.19-.44-2.52,4.63-3.99,9.61-7.13,11.42Z" style="fill:#466fb5; fill-rule:evenodd;"/><path d="M507.28,543.3c-2.96-14.88,3.88-29.55,16.95-35.1-.11-8.45,3.18-16.93,8.8-22.7,11.11-11.39,31.72-17.63,39.89-3.1,10.82,6.24,19.3,19.8,16.09,32.16,10.45,11.09,6.5,31.15-8.78,40.65,.22,12.47-6.17,24.81-16.84,30.14-2.52,1.29-6.54,3.09-7.02,3.62,.66-.64-7.88,23.71-34.4,12.58-27.07-11.41-32.34-43.4-14.69-58.24Z" style="fill:#20386f; fill-rule:evenodd;"/><path d="M532.13,608.26c-1.51-1.29-22.19-19.23-31.39-27.22,0,0,9.17-6.91,14.88,3.14,5.69,10.05,16.51,24.08,16.51,24.08Z" style="fill:#233761; fill-rule:evenodd;"/><path d="M564.86,609.56s-2.26,7.86-13.26,21.53c-12.71-.18,13.26-21.53,13.26-21.53Z" style="fill:#233761; fill-rule:evenodd;"/><path d="M618.2,818.84c-3.51,8.91-21.42,27.37-39.89,44.76-22.04,20.74-44.91,40.08-44.91,40.08,0,0-10.41,3.18-5.88-12.18,0,0,25.16-46.25,35.98-59.91,3.1-3.91,6.28-7.46,9.29-10.56,7.48-7.77,13.65-12.6,13.65-12.6,0,0-1.38-2.3-3.71-6.21-11.22-19.25-43.47-78.19-33.5-104.34,11.98-31.54,41.79-45.73,41.79-45.73,0,0,9.46,39.89,17.43,80.87,7.35,37.75,13.44,76.41,9.75,85.83Z" style="fill:#223f81; fill-rule:evenodd;"/><path d="M608.44,733.01c-5.47,25.25-14.99,60.98-25.71,69.21-11.22-19.25-43.47-78.19-33.5-104.34,11.98-31.54,41.79-45.73,41.79-45.73,0,0,9.46,39.89,17.43,80.87Z" style="fill:#20386f; fill-rule:evenodd;"/><path d="M578.3,863.6c-22.04,20.74-44.91,40.08-44.91,40.08,0,0-10.41,3.18-5.88-12.18,0,0,25.16-46.25,35.98-59.91,3.1-3.91,6.28-7.46,9.29-10.56-.37,11.81-.04,31.87,5.51,42.58Z" style="fill:#20386f; fill-rule:evenodd;"/><path d="M604.16,711.65s-26.15-65.59-24.76-67.44c.83-1.21,2.52-36.97,3.65-63.86,.68-16.37,1.16-29.41,1.16-29.41,0,0,11.59,4.1,14.36,32.25,.55,5.45,.84,10.56,1.07,15.35,.75,19.98-.7,34.03,2.26,40.72,3.73,8.23,2.37,45.9,3.54,49.7,1.12,3.78,7.02,13.26-1.29,22.68Z" style="fill:#f9af79; fill-rule:evenodd;"/><path d="M583.48,667.95l-2.08-7.68c-14.66,6.35-57.8-2.92-57.8-2.92,0,0-12.86,15.19-6.24,46.1,3.25,15.1,14.66,79.51,19.32,98.39,1.73,6.83,3.03,11.68,3.54,13.63h0c.18,.59,.04,1.21-.18,1.78-1.97,4.9-3.47,9.94-4.55,15.02-10.67,50.01,18.55,105.22,18.55,105.22l5.01-2.94s1.93-66.63,7.11-96.7c.88-5.07,1.87-9.17,2.94-11.64,3.14-7.27,5.33-18.72,6.87-32.16,2.88-25.42,3.4-57.97,3.25-83.04,.46-.07,4.26-43.07,4.26-43.07Z" style="fill:#223f81; fill-rule:evenodd;"/><path d="M517.29,676.09c-5.95-9.02,14.51-45.88,13.77-49.35-1.43-6.87-4.79-14.44-8.08-21.27-3.32-6.83-6.54-12.89-7.7-16.7,1.05-1.45,2.11-2.85,3.07-4.15,1.45-2.02,2.74-3.88,3.54-5.6,.9-1.89,1.3-3.66,.86-5.33-.31-1.29-.79-2.55-1.34-3.84-.22-.59-.51-1.18-.81-1.75-3.03-6.12-7.6-11.08-7.6-11.08,7.2-4.61,18.57-6.94,18.68-6.61,.85-.29,1.56-.48,2.19-.62,.4-.11,.85-.22,1.25-.33,1.41-.33,2.88-.62,4.13-.84,2.55-2.59,5.66-12.23,4.74-26.38l1.25,.15,20.99,2.85s-.07,6.54,.26,12.69c.29,4.81,.84,9.39,1.91,10.38,1.63,.15,2.63,.2,2.63,.2v.04l.04,.04c1.18,.11,2.26,.18,3.25,.29,0,0,.07,.04,.22,.04,1.85,.22,3.4,.44,4.65,.66l.26,.04c3.58,.66,4.78,1.32,4.78,1.32v.04c-.15,6.61,10.52,18.18,9.75,33.13-.04,.59-5.44,39.78-5.4,40.37,.44,11.15,5.88,42.59,5.88,42.59,5.01,9.72-73.95,18.31-77.16,9.02Z" style="fill:#f9af79; fill-rule:evenodd;"/><path d="M566.24,525.24s-.07,6.54,.26,12.69c-11.61,.39-18.37-9.79-21.25-15.54l20.99,2.85Z" style="fill:#ed7d57; fill-rule:evenodd;"/><path d="M570.44,530.84s-27.4,2.11-28.49-14.99c-1.06-17.1-5.31-28.34,12.16-30.43,17.47-2.08,21.27,4.24,23.01,9.86,1.76,5.64,.44,34.57-6.69,35.56Z" style="fill:#f9af79; fill-rule:evenodd;"/><path d="M575.75,485.83c-4.57-4.89-7.71-3.58-9.44-1.89-15.48-7.35-24.39,5.44-24.39,5.44-1.1,12.38-9.5,19.95-9.5,19.95,0,0,5.18,2.77,16.51-.88,3.47-1.12,6.47-3.78,8.94-7-4.17,8.1-10.19,14.12-10.19,14.12,13.41-7.24,17.76-26.71,18.2-28.78,1.75,1.38,5.25,4.48,6.47,7.64,1.63,4.22,2.77,13.19,5.4,12.71,0,0,4.83-14-2-21.31Z" style="fill:#20386f; fill-rule:evenodd;"/><path d="M586.81,939.1h-42.56s-1.6-6.83,1.21-11.44c2.48-4.08,.94-6.85-.15-10.32,1.97,.79,4.26,2.04,7.02,1.89,2.11-.15,5.44-1.67,7.4-2.81,1.84,2.08,8.6,11.57,11.04,13.33,2.77,1.96,15.17,1.29,16.03,9.35Z" style="fill:#233761; fill-rule:evenodd;"/><path d="M523.57,938.08l-16.03-39.45s5.69-4.02,11.04-3.14c4.7,.74,6.5-1.03,8.94-3.99,0,2.09,.26,4.68,1.47,7.13,.9,1.95,2.63,3.66,4.41,5.05-1.23,2.48-6.5,13.11-7.24,16.03-.79,3.32,4.54,14.55-2.59,18.37Z" style="fill:#233761; fill-rule:evenodd;"/><path d="M588.57,624.48c-.04-.33,1.63-12.64,3.14-23.6,3.29-.37,7.31-1.14,10.74-2.74-.18-4.79-3.36-45.64-20.53-47.94-.84-.22-1.69-.4-2.48-.59-.07,0-.15,0-.26-.04-2.09-.4-3.99-.59-4.65-.66-.15,0-.22-.04-.22-.04,0,0,5.12,14.55,5.01,16.25-.07,1.69-16.55,2.28-27.33,2.42-10.74,.15-16.77-17.8-16.88-18.09-.4,.11-.84,.22-1.25,.33-.62,.15-14.93,2.33-20.86,7.27,0,0,4.57,4.92,7.6,11.04,.29,.57,.59,1.16,.81,1.78,.55,1.25,1.03,2.52,1.34,3.8,.44,1.67,.04,3.43-.86,5.33-.81,1.73-2.09,3.58-3.54,5.6-.96,1.3-2.02,2.7-3.07,4.15,.4,1.32,1.05,2.9,1.82,4.68h0c1.58,3.4,3.69,7.57,5.88,12.01,3.29,6.83,6.65,14.4,8.08,21.27,.73,3.47-19.73,40.33-13.77,49.35,.95,2.79,8.54,3.95,18.61,3.99,23.95,.15,62.06-6.17,58.55-13,0,0-5.44-31.44-5.88-42.59Z" style="fill:#6d96ce; fill-rule:evenodd;"/><path d="M535.89,680.07c-10.06-.04-17.65-1.19-18.61-3.99-5.95-9.02,14.51-45.88,13.77-49.35-1.43-6.87-4.79-14.44-8.08-21.27-2.19-4.44-4.3-8.61-5.88-12.01h0c.88-3.36,1.36-5.29,1.36-5.29,0,0,21.77,25.31,26.78,37.27,3.91,9.39-5.23,41.31-9.35,54.64Z" style="fill:#466fb5; fill-rule:evenodd;"/><path d="M525.52,662.9l-4.28,7.49c-27.7-11-45.35-35.69-45.35-35.69-.97-14.03,5.6-30.18,13.44-44.1,1.32-2.3,2.64-4.54,3.99-6.69,5.6,4.76,13.33,10.97,20.75,15.48-1.18,1.91-2.55,4.21-4.02,6.61-6.13,10.12-14.07,23.09-15.12,24.12-1.69,1.73,30.58,32.77,30.58,32.77Z" style="fill:#f9af79; fill-rule:evenodd;"/><path d="M511.19,609.05c-13.63-.86-23.67-18.62-23.67-18.62,10.63-18.81,25.49-33.39,25.49-33.39,37.78,14.44,4.35,47.97-1.82,52.02Z" style="fill:#6d96ce; fill-rule:evenodd;"/><path d="M525.52,662.9s2.33-.31,3.88-1.63c1.49-1.36,6.35-5.09,6.61-3.91,.28,1.18-3.51,2.96-1.51,3.25,1.97,.26,5.11-1.07,8.27-.59,3.1,.48,7.92,7.68,6.47,8.56-1.51,.83-6.91-2.02-8.34-.99-1.43,.99-11.57,6.54-19.69,2.81-8.12-3.73,4.32-7.49,4.32-7.49Z" style="fill:#f9af79; fill-rule:evenodd;"/></svg>