<?xml version="1.0" encoding="UTF-8"?><svg id="a" xmlns="http://www.w3.org/2000/svg" viewBox="0 0 1460.64 1222.71"><path d="M732.02,97.92c-160.24,0-227.76,119-343.43,211.51-153.12,122.44-306.21,42.74-330.73,456.43-21.82,368.21,250.45,39.87,634.33,171.76,383.88,131.9,774.85,185.01,658.83-241.73-116.01-426.74-246.67-597.97-619-597.97Z" style="fill:#e9eff8; fill-rule:evenodd;"/><path d="M78.97,1047.65c-5.9,1.7-11.51,4.11-16.7,7.11-5.32,3.08-10.25,6.81-14.66,11.05-.86,.82-2.13,.94-3.12,.37l-19.8-11.43-.11-.06c-1.14-.62-2.42-.73-3.62-.41-1.22,.32-2.3,1.11-2.99,2.27l-.09,.14-13.91,24.13c-.69,1.17-.82,2.51-.5,3.73,.34,1.23,1.13,2.31,2.29,2.99l.12,.09,19.65,11.33c1.02,.6,1.5,1.79,1.24,2.89h0c-.73,2.91-1.29,5.93-1.67,9-.35,3-.54,6.06-.54,9.18s.19,6.18,.54,9.18c.38,3.08,.94,6.07,1.67,9,.28,1.21-.31,2.43-1.39,2.97l-19.62,11.32h0c-1.17,.68-1.96,1.78-2.29,3-.32,1.22-.19,2.56,.5,3.73l14,24.27h0c.69,1.16,1.76,1.95,2.99,2.28,1.22,.33,2.55,.19,3.72-.48l.14-.08,19.67-11.36c1.04-.58,2.3-.39,3.11,.39,4.41,4.25,9.32,7.96,14.66,11.05,5.23,3.02,10.86,5.42,16.81,7.14,1.15,.33,1.91,1.39,1.91,2.52v22.84c0,1.34,.56,2.57,1.45,3.46,.88,.89,2.11,1.44,3.45,1.44h28.03c1.34,0,2.56-.56,3.46-1.44,.88-.9,1.44-2.12,1.44-3.46v-22.84c0-1.23,.85-2.28,2.01-2.55,5.9-1.71,11.52-4.11,16.71-7.1,5.33-3.09,10.25-6.81,14.66-11.05,.88-.86,2.25-.96,3.25-.3l19.66,11.36c1.17,.68,2.51,.8,3.72,.48,1.22-.33,2.31-1.12,2.98-2.28l.09-.14,13.93-24.15h0c.66-1.15,.81-2.5,.48-3.71-.32-1.22-1.11-2.32-2.26-2.99l-19.79-11.41c-1.04-.61-1.51-1.79-1.24-2.89h0c.73-2.93,1.28-5.93,1.66-9,.35-3.01,.55-6.07,.55-9.19s-.19-6.19-.55-9.18c-.38-3.08-.93-6.09-1.66-9-.3-1.22,.31-2.44,1.38-2.97l19.65-11.34c1.15-.67,1.94-1.75,2.26-2.99,.34-1.21,.18-2.55-.48-3.71l-.08-.15-13.93-24.14h0c-.68-1.16-1.77-1.95-3-2.27-1.22-.33-2.55-.2-3.72,.47h0s-19.81,11.44-19.81,11.44c-1.05,.62-2.36,.4-3.17-.43-4.39-4.23-9.28-7.93-14.59-10.99-5.24-3.02-10.87-5.45-16.83-7.14-1.14-.33-1.89-1.37-1.89-2.52v-22.84c0-1.35-.56-2.57-1.44-3.46-.9-.89-2.12-1.44-3.46-1.44h-28.03c-1.35,0-2.57,.55-3.45,1.44-.89,.89-1.45,2.11-1.45,3.46v22.84c0,1.25-.85,2.27-2.01,2.55h0Zm-9.21,42.24c7.71-7.71,18.37-12.48,30.14-12.48s22.42,4.78,30.13,12.48c7.7,7.71,12.48,18.36,12.48,30.14s-4.78,22.42-12.48,30.13c-7.72,7.71-18.36,12.48-30.13,12.48s-22.42-4.77-30.14-12.48c-7.71-7.71-12.48-18.36-12.48-30.13s4.77-22.43,12.48-30.14h0Zm-22.16,84.37" style="fill:#e9eff8; fill-rule:evenodd;"/><path d="M700.66,91.51c-2.78-1.18-5.66-2.01-8.57-2.48-2.98-.48-6.02-.6-9.01-.35-.59,.05-1.11-.3-1.31-.82l-3.98-10.5-.02-.06c-.24-.59-.69-1.03-1.25-1.28-.56-.26-1.22-.3-1.84-.06l-.07,.02-12.8,4.86c-.62,.23-1.09,.71-1.35,1.26-.25,.58-.29,1.23-.06,1.85l.02,.07,3.95,10.42c.21,.54,.02,1.14-.43,1.48h0c-1.18,.89-2.33,1.86-3.43,2.91-1.06,1.03-2.08,2.14-3.05,3.33-.98,1.18-1.85,2.42-2.65,3.67-.81,1.29-1.53,2.61-2.17,3.95-.27,.55-.87,.83-1.45,.69l-10.99-1.78h0c-.65-.1-1.3,.07-1.8,.43-.51,.36-.87,.92-.97,1.57l-2.21,13.59h0c-.1,.66,.07,1.29,.43,1.8,.36,.51,.91,.87,1.56,.98l.08,.02,11.02,1.79c.57,.1,1,.56,1.06,1.11,.35,2.98,1.07,5.93,2.14,8.76,1.05,2.77,2.45,5.44,4.19,7.94,.33,.48,.29,1.12-.07,1.55l-7.1,8.69c-.42,.52-.58,1.16-.52,1.77,.06,.61,.35,1.21,.87,1.62l10.66,8.71c.52,.42,1.14,.58,1.76,.52,.62-.06,1.21-.35,1.63-.86l7.1-8.7c.39-.47,1.04-.6,1.56-.35,2.77,1.18,5.65,2.01,8.56,2.49,2.99,.48,6.02,.59,9.01,.35,.61-.06,1.16,.33,1.34,.89l3.95,10.43c.24,.62,.71,1.09,1.27,1.34,.56,.25,1.23,.29,1.84,.05l.07-.02,12.81-4.86h0c.61-.23,1.09-.7,1.34-1.26,.26-.56,.3-1.22,.06-1.84l-3.99-10.49c-.2-.55-.02-1.14,.43-1.48h0c1.18-.89,2.33-1.86,3.42-2.91,1.07-1.03,2.1-2.14,3.06-3.33,.98-1.19,1.85-2.42,2.65-3.66,.81-1.29,1.53-2.61,2.17-3.95,.27-.56,.87-.83,1.44-.7l11,1.79c.65,.1,1.29-.06,1.79-.43,.5-.36,.86-.92,.97-1.56v-.09s2.21-13.51,2.21-13.51h0c.11-.66-.07-1.3-.44-1.8-.36-.51-.91-.87-1.56-.98h0s-11.09-1.8-11.09-1.8c-.59-.09-1.02-.58-1.07-1.15-.35-2.97-1.07-5.9-2.14-8.72-1.06-2.78-2.44-5.45-4.18-7.95-.33-.48-.29-1.11,.06-1.55l7.1-8.69c.42-.52,.58-1.16,.52-1.77-.06-.62-.35-1.2-.87-1.62l-10.67-8.71c-.51-.41-1.14-.59-1.76-.52-.62,.06-1.21,.36-1.63,.87l-7.1,8.69c-.39,.48-1.03,.6-1.55,.35h0Zm-16.63,13.22c5.33-.54,10.87,.96,15.35,4.61,4.48,3.66,7.05,8.78,7.59,14.11,.54,5.33-.95,10.87-4.61,15.35-3.66,4.48-8.79,7.05-14.12,7.6-5.33,.53-10.87-.96-15.34-4.61-4.48-3.66-7.06-8.79-7.6-14.12-.54-5.32,.96-10.87,4.62-15.34,3.66-4.48,8.78-7.06,14.11-7.6h0Zm-34.64,25.23" style="fill:#d0d9ee; fill-rule:evenodd;"/><path d="M377.02,1076.67c-41.1,0-74.42-33.32-74.42-74.42s33.32-74.42,74.42-74.42,74.43,33.32,74.43,74.42-33.32,74.42-74.43,74.42h0Zm211.19-34.83v-77.44h-48.19c-4.07-17.6-10.89-34.15-20.01-49.15l34.34-34.34-54.75-54.76-34.08,34.07c-14.9-9.29-31.37-16.31-48.91-20.56v-48.6h-77.43v48.2c-17.62,4.07-34.17,10.87-49.15,20.01l-34.35-34.34-54.74,54.75,34.07,34.07c-9.3,14.91-16.31,31.36-20.57,48.92h-48.6v77.43h48.2c4.07,17.6,10.88,34.15,20.02,49.14l-34.34,34.35,54.74,54.75,34.08-34.08c14.89,9.29,31.35,16.33,48.91,20.58v48.59h77.43v-48.19c17.61-4.07,34.16-10.88,49.16-20.02l34.34,34.34,54.74-54.76-34.07-34.07c9.3-14.9,16.32-31.36,20.57-48.9h48.59Z" style="fill:#e9eff8; fill-rule:evenodd;"/><path d="M796.5,199.27c-13.02-10.62-14.95-29.78-4.33-42.8,10.62-13.01,29.78-14.95,42.79-4.33,13.01,10.62,14.96,29.79,4.33,42.8-10.62,13.02-29.78,14.95-42.8,4.33h0Zm75.86,43.55l20.02-24.52-15.25-12.45c3.26-6.62,5.38-13.63,6.36-20.73l19.75-2-3.18-31.48-19.59,1.98c-2.31-6.8-5.71-13.27-10.17-19.15l12.56-15.39-24.52-20.01-12.45,15.26c-6.63-3.26-13.63-5.39-20.73-6.36l-2-19.76-31.49,3.19,1.98,19.59c-6.8,2.32-13.26,5.72-19.15,10.17l-15.38-12.56-20.02,24.52,15.25,12.45c-3.26,6.62-5.38,13.63-6.36,20.73l-19.75,2,3.18,31.49,19.6-1.99c2.31,6.8,5.71,13.27,10.17,19.16l-12.57,15.38,24.52,20.01,12.45-15.25c6.63,3.27,13.63,5.39,20.74,6.37l2,19.75,31.48-3.19-1.98-19.6c6.8-2.31,13.27-5.71,19.15-10.16l15.38,12.56Z" style="fill:#d0d9ee; fill-rule:evenodd;"/><path d="M1262.47,724.2s46.97-36.17,25.52-100.08c-21.46-63.92,14.91-91.99,21.54-113.37,6.64-21.38-21.93-48.72-24.36-76.76-2.42-28.05,28.04-41.22,6.25-76.34-21.8-35.1-11.81-51.76,.43-95.86,12.25-44.09-28.1-100.73-41.86-97.86-13.76,2.85,5.72,14.27-1.51,43.42-7.24,29.14-56.98,46.67-68.91,72.11-11.92,25.44,21.68,50.15,8.93,83.88-12.76,33.73-68.98,34.22-78.02,66.35-9.03,32.13,31.76,61.23,27.4,93.98-4.36,32.75-37.97,56.98-48.95,84.65-10.97,27.66-31.31,80.55,26.55,128.73,57.86,48.18,147-12.85,147-12.85Z" style="fill:#bcc9e7; fill-rule:evenodd;"/><path d="M1293.33,649.79c-.2-2.63-.52-5.34-.97-8.1l-126.44,104.8,6.56-34.64c.04-.14,.07-.3,.09-.44l3.37-17.76,107.06-88.74c-.49-2.73-.86-5.39-1.14-7.97l-103.91,86.13,5.94-31.33,98.91-81.98c.74-3.98,1.72-7.74,2.87-11.29l-99.77,82.7,2.95-15.55c.04-.16,.07-.32,.09-.48l12.9-68.03,99-82.06c-1.06-2.06-2.13-4.15-3.2-6.25l-93.8,77.75,6.44-33.97,78-64.64c-.81-2.39-1.51-4.8-2.05-7.21l-73.94,61.28,4.84-25.55c.03-.12,.06-.25,.07-.36l14.07-74.24,57.88-47.98c-1.22-2.11-2.33-4.16-3.31-6.16l-52.57,43.57,12.28-64.81c.03-.13,.06-.25,.08-.38l20.29-107c.34-1.86-.87-3.66-2.73-4-1.86-.35-3.66,.86-4,2.72l-18.44,97.23-32.42-64.64c-1.88,1.42-3.74,2.83-5.56,4.24l35.87,71.51-13.85,73.06c-.02,.1-.04,.2-.05,.3l-12.81,67.56-53.35-75.28c-2.04,1.08-4.1,2.13-6.16,3.18l57.73,81.47-4.87,25.75-70.15-98.34c-2.04,1.14-4.01,2.32-5.91,3.54l73.29,102.75-.73,.6c-1.46,1.2-1.67,3.37-.46,4.82,.35,.42,.78,.74,1.25,.95l-7.2,37.95c-.02,.11-.05,.22-.06,.33l-11.65,61.44-51.96-72.85c-1.11,2.29-2.32,4.54-3.61,6.76l53.81,75.44-3,15.8-57.62-80.78c-1.39,1.97-2.83,3.91-4.28,5.85l60.12,84.29-7.64,40.29c-.02,.1-.04,.21-.06,.31l-2.12,11.16-73.82-103.49c-1.3,2.28-2.48,4.57-3.52,6.89l75.56,105.95-8.08,42.61c-.01,.11-.04,.2-.05,.31l-.03,.13c2.81,.34,5.62,.56,8.44,.66l127.52-105.71Z" style="fill:#d0d9ee; fill-rule:evenodd;"/><path d="M1149.98,611.54s47.33-38.01,24.03-102.98c-23.29-64.97,13.34-94.47,19.68-116.5,6.35-22.02-23.47-49.4-26.54-78.06-3.07-28.66,27.84-42.78,4.81-78.26-23.04-35.49-13.16-52.75-1.55-98.14,11.61-45.39-30.87-102.51-44.89-99.3s6.16,14.5-.65,44.48c-6.81,29.99-57.35,48.96-69.03,75.25-11.68,26.29,23.24,50.89,10.88,85.67-12.36,34.79-69.88,36.48-78.47,69.55-8.58,33.07,33.78,62.01,29.99,95.62-3.78,33.61-37.69,59.11-48.33,87.67-10.65,28.54-30.38,83.09,29.86,131.21,60.23,48.11,150.2-16.2,150.2-16.2Z" style="fill:#d0d9ee; fill-rule:evenodd;"/><path d="M1180.01,534.73c-.26-2.7-.64-5.45-1.16-8.27l-127.23,109.91,6-35.6c.03-.15,.07-.31,.08-.46l3.07-18.25,107.74-93.06c-.56-2.79-1-5.5-1.34-8.13l-104.57,90.33,5.43-32.19,99.53-85.98c.67-4.08,1.59-7.95,2.7-11.61l-100.4,86.72,2.7-15.99c.03-.16,.06-.32,.08-.48l11.78-69.92,99.63-86.05c-1.12-2.09-2.26-4.2-3.41-6.34l-94.39,81.53,5.89-34.9,78.5-67.8c-.89-2.43-1.65-4.88-2.25-7.34l-74.41,64.27,4.43-26.25c.02-.12,.05-.25,.06-.37l12.85-76.29,58.26-50.31c-1.3-2.13-2.47-4.21-3.52-6.24l-52.91,45.7,11.23-66.6c.03-.13,.05-.26,.07-.39l18.53-109.95c.32-1.91-.97-3.72-2.88-4.04-1.91-.32-3.72,.97-4.04,2.88l-16.84,99.9-34.54-65.49c-1.89,1.49-3.76,2.97-5.6,4.46l38.21,72.45-12.65,75.06c-.02,.1-.04,.2-.05,.3l-11.71,69.43-56.18-75.95c-2.06,1.15-4.15,2.28-6.24,3.38l60.8,82.19-4.46,26.46-73.85-99.2c-2.06,1.21-4.06,2.45-5.99,3.74l77.15,103.64-.73,.63c-1.47,1.26-1.63,3.48-.37,4.95,.36,.42,.81,.74,1.3,.94l-6.57,39c-.02,.11-.05,.23-.05,.34l-10.65,63.13-54.7-73.49c-1.09,2.36-2.29,4.69-3.57,6.99l56.65,76.1-2.74,16.24-60.66-81.49c-1.39,2.05-2.81,4.07-4.25,6.07l63.3,85.03-6.98,41.4c-.02,.1-.04,.21-.05,.32l-1.93,11.46-77.71-104.4c-1.29,2.37-2.45,4.74-3.46,7.13l79.55,106.87-7.38,43.78c-.03,.1-.04,.2-.05,.3l-.02,.13c2.87,.3,5.76,.47,8.64,.51l128.33-110.86Z" style="fill:#e9eff8; fill-rule:evenodd;"/><path d="M1245.5,1136.02c118.82,0,215.14-10.81,215.14-24.15s-96.33-24.15-215.14-24.15-215.14,10.81-215.14,24.15,96.32,24.15,215.14,24.15Z" style="fill:#d0d9ee; fill-rule:evenodd;"/><path d="M991.47,191.82H170.18c-39.74,0-73.45,32.58-72.25,72.25l15,494.84c1.19,39.67,32.55,72.25,72.25,72.25H976.48c39.47,0,71.05-32.52,72.25-72.25l15-494.84c1.2-39.72-32.51-72.25-72.25-72.25h0Zm0,39.47c18.03,0,33.33,14.75,32.79,32.78l-15,494.83c-.53,18.03-15.07,32.79-32.79,32.79H185.17c-17.72,0-32.26-15.08-32.79-32.79l-15-494.83c-.54-17.98,14.75-32.78,32.79-32.78H991.46Z" style="fill:#d0d9ee; fill-rule:evenodd;"/><rect x="499.19" y="831.16" width="161.54" height="100.32" style="fill:#aab9de;"/><path d="M499.19,931.47h-86.9c-4.36,0-6.86,3.74-7.9,7.89l-9.64,38.64c-1.04,4.18,3.6,7.91,7.9,7.91h354.61c4.29,0,8.96-3.69,7.9-7.91l-9.64-38.64c-1.05-4.22-3.56-7.89-7.9-7.89h-248.43Z" style="fill:#bcc9e7; fill-rule:evenodd;"/><path d="M137.38,264.07h0c0-15.78,11.29-29.04,26.2-32.11l.78-.15h.02l.8-.14h.02l.81-.11h0l.81-.1h0l.82-.07h0l.83-.06h0l.84-.02,.85-.02H991.46l.85,.02,.84,.02h0l.83,.06h0l.82,.07h0l.81,.1h0l.81,.11h.01c15.68,2.42,27.8,16.07,27.8,32.4h0l-15,494.83c-.54,18.03-15.07,32.79-32.79,32.79H185.17c-17.72,0-32.26-15.08-32.79-32.79l-15-494.83Z" style="fill:#e9eff8; fill-rule:evenodd;"/><circle cx="580.83" cy="520.82" r="143.94" transform="translate(-198.16 563.25) rotate(-45)" style="fill:#fff;"/><path d="M496.96,528.42c-5.17-6.97-3.7-16.83,3.27-22,6.97-5.17,16.82-3.7,22,3.26l37.36,50.62,81.65-103.79c5.38-6.84,15.28-8.03,22.12-2.65,6.85,5.37,8.03,15.28,2.65,22.12l-94.41,120.02-.02-.02c-.85,1.08-1.85,2.06-3,2.92-6.98,5.17-16.83,3.7-22-3.27l-49.61-67.21Z" style="fill:#d0d9ee; fill-rule:evenodd;"/><path d="M47.31,314.92H317.46c26.05,0,47.32,21.26,47.32,47.31V947.74c0,26.05-21.27,47.31-47.32,47.31H47.31c-26.05,0-47.31-21.26-47.31-47.31V362.23c0-26.05,21.26-47.31,47.31-47.31Z" style="fill:#d0d9ee; fill-rule:evenodd;"/><path d="M47.31,327.54H317.46c19.08,0,34.7,15.61,34.7,34.69V947.74c0,19.08-15.62,34.69-34.7,34.69H47.31c-19.08,0-34.69-15.61-34.69-34.69V362.23c0-19.08,15.61-34.69,34.69-34.69Z" style="fill:#fff; fill-rule:evenodd;"/><path d="M47.31,341.76H317.46c11.26,0,20.47,9.21,20.47,20.47V947.74c0,11.25-9.21,20.46-20.47,20.46H47.31c-11.25,0-20.47-9.21-20.47-20.46V362.23c0-11.25,9.21-20.47,20.47-20.47Z" style="fill:#e9eff8; fill-rule:evenodd;"/><rect x="123.03" y="336.33" width="118.72" height="10.99" rx="5.49" ry="5.49" style="fill:#fff;"/><path d="M1179.27,598.49H621.75c-26.97,0-49.85,22.12-49.04,49.04l10.18,335.91c.81,26.93,22.1,49.04,49.04,49.04h537.16c26.8,0,48.23-22.08,49.04-49.04l10.17-335.91c.82-26.97-22.06-49.04-49.03-49.04h0Zm0,26.79c12.24,0,22.62,10.01,22.26,22.25l-10.18,335.91c-.37,12.24-10.24,22.25-22.26,22.25H631.92c-12.03,0-21.9-10.23-22.25-22.25l-10.18-335.91c-.37-12.21,10.01-22.25,22.25-22.25h557.52Z" style="fill:#d0d9ee; fill-rule:evenodd;"/><path d="M599.49,647.53h0c0-10.71,7.67-19.72,17.78-21.8l.53-.1h.02s.54-.1,.54-.1h0l.54-.07h0l.56-.06h0s.56-.06,.56-.06h0l.56-.03h0l.57-.02h.57s557.52,0,557.52,0h.57s.57,.03,.57,.03h0l.56,.03h0l.57,.05h0l.56,.07h0l.55,.07h.01c10.65,1.64,18.86,10.9,18.86,22h0l-10.17,335.91c-.37,12.24-10.24,22.25-22.26,22.25H631.92c-12.03,0-21.9-10.23-22.25-22.25l-10.18-335.91Z" style="fill:#e9eff8; fill-rule:evenodd;"/><path d="M1258.88,1032.48H542.13v20.58c0,11.32,9.25,20.57,20.57,20.57h675.61c11.31,0,20.57-9.25,20.57-20.57v-20.58Z" style="fill:#bcc9e7; fill-rule:evenodd;"/><path d="M900.5,692.11c66.23,0,119.91,53.69,119.91,119.91s-53.68,119.91-119.91,119.91-119.9-53.69-119.9-119.91,53.68-119.91,119.9-119.91Z" style="fill:#fff; fill-rule:evenodd;"/><path d="M830.64,818.35c-4.3-5.81-3.08-14.01,2.72-18.32,5.82-4.31,14.02-3.09,18.32,2.72l31.12,42.16,68.02-86.47c4.48-5.69,12.73-6.68,18.43-2.21,5.69,4.48,6.68,12.73,2.21,18.43l-78.66,99.99-.02-.02c-.7,.9-1.54,1.72-2.5,2.43-5.81,4.31-14.01,3.09-18.32-2.71l-41.33-55.99Z" style="fill:#d0d9ee; fill-rule:evenodd;"/><path d="M182.4,552.45c56.62,0,102.53,45.9,102.53,102.53s-45.91,102.54-102.53,102.54-102.54-45.91-102.54-102.54,45.91-102.53,102.54-102.53Z" style="fill:#fff; fill-rule:evenodd;"/><path d="M122.65,660.39c-3.68-4.97-2.64-11.99,2.33-15.67,4.97-3.69,11.98-2.64,15.67,2.33l26.61,36.05,58.16-73.93c3.83-4.87,10.88-5.72,15.75-1.89,4.87,3.83,5.72,10.89,1.88,15.75l-67.25,85.5h-.02c-.59,.76-1.31,1.46-2.13,2.06-4.97,3.69-11.99,2.64-15.67-2.33l-35.34-47.87Z" style="fill:#d0d9ee; fill-rule:evenodd;"/><path d="M1431.32,363.2c12.87-18.85-14.96-23.7-14.69-44.31,.19-14.22-8.71-29.04-6.05-43.21,5.46-29.02-5.86-37.82-5.94-40.03-.67-21.98-13.83-22.54-26.92-29.96-23.24-13.15-43.44,2.94-50.02,3.37-33.58,2.2-14.98,16.63-30.02,29.64-12.38,10.71-6.52,18.83-5.25,25.27,.57,2.9,3.27,14.84-5.3,20.88-12.57,8.86,.31,32.51-7.1,34.75-28.54,8.65-17.05,12.2-16.28,32.14,.24,6.38,6.4,11.22,10.41,15.9,49.13-15.38,82.93,45.76,157.15-4.45Z" style="fill:#0f3970; fill-rule:evenodd;"/><path d="M1387.6,336.72c-1.45-3.38-5.33-5.48-6.64-6.55-14.23,7.69-29.31,12.44-45.11,12.56,.57,9.04,1.9,18.54,3.71,28.69,26.13-20.32,42.14-31.89,48.04-34.71Z" style="fill:#406fb5; fill-rule:evenodd;"/><path d="M1324.63,335.57c-3.85,8.12-6.46,15.71-7.82,22.76,4.14-7.47,8.78-12.02,19.05-15.59-3.28-3.45-3.01-7.93-4.33-11.53-3.7,2.27-5.99,3.73-6.89,4.37Z" style="fill:#406fb5; fill-rule:evenodd;"/><path d="M1313.44,335.64c-39.48,100.35-6.19,92.58,79.33,2.17,5.02,1.19,9.61,2.66,13.76,4.41-11.1,10.27-15.25,27.44-12.44,51.51,1.67,18.64,3.52,36.76,5.53,54.36-4.87,10.99-7.36,22.22-7.79,34.34-.37,10.59,.84,21.86,3.41,34.22,4.04,19.38,11.44,41.45,21.38,67.85-59.87,20.39-111.13,20.63-153.76,.69,24.73-54.35,21.44-71.21,18.63-107.56-2.8-59.03-38.76-40.49,21.03-139.75,4.1-1.27,7.68-1.93,10.92-2.24Z" style="fill:#0f3d86; fill-rule:evenodd;"/><path d="M1335.85,342.74c.57,9.04,1.9,18.54,3.71,28.69,26.13-20.32,42.14-31.89,48.04-34.71,1.76,.34,3.49,.7,5.16,1.1-85.52,90.4-118.81,98.18-79.33-2.17,4.12-.39,7.71-.22,11.19-.07-3.85,8.12-6.46,15.71-7.82,22.76,4.14-7.47,8.78-12.02,19.05-15.59Z" style="fill:#6998d0; fill-rule:evenodd;"/><path d="M1358.22,483.36c16.26,.05,31.43-.56,45.52-1.84-3.67-27.85-6.89-57.12-9.65-87.8-2.81-24.07,1.34-41.24,12.44-51.51,14.8,6.21,24.2,15.95,28.22,29.2,8.74,28.21,7.67,133.24-1.83,142.74-12.01,5.26-37.36,4.19-76.08-3.22,2.68-7.88,3.14-17.07,1.38-27.58Z" style="fill:#6998d0; fill-rule:evenodd;"/><path d="M1348.41,487.28c2.21,.25,5.69,.47,10.45,.67,.76,6.93,.47,13.25-.87,18.95-4.15-.77-9.41-1.86-15.78-3.29-11.33,2.91-24.97,2.75-40.92-.46-11.08-4.27-14.46-12.08-10.12-23.45,17.35,2.02,27.73,1.37,31.15-1.96-6.06-3.08-8.21-6.64-6.44-10.69,17.05,6.25,27.89,12.99,32.52,20.22Z" style="fill:#f4ae7c; fill-rule:evenodd;"/><path d="M1289.58,455.91l-121.36-18.39,26.2,52.41,121.59,19.08-1.93-3.9c-4.08-.42-8.34-1.07-12.78-1.96-11.08-4.27-14.46-12.08-10.12-23.45,3.94,.46,7.51,.77,10.73,.96l-12.32-24.75Z" style="fill:#e9eff8; fill-rule:evenodd;"/><path d="M1291.2,469.63l5.33,10.63h0c-1.7-.15-3.49-.34-5.36-.56-3.77,9.87-1.72,17.05,6.14,21.57l-99.77-15.6-10.19-20.39c13.96,4.83,28.16,7.89,42.6,9.18,2.95,3.42,7.53,5.92,11.26,5.92,3.47,0,5.19-2.17,4.6-5.23,14.89,0,30.01-1.84,45.39-5.53Z" style="fill:#aab9de; fill-rule:evenodd;"/><path d="M1329.48,505.53l-13.47,3.48-1.93-3.9c5.45,.56,10.58,.7,15.4,.42Z" style="fill:#8d9fca; fill-rule:evenodd;"/><path d="M1316.01,509.01l13.47-3.48c4.53-.27,8.77-.91,12.73-1.92,4.27,.96,8.05,1.77,11.32,2.43l-33.6,11.01-33.16-5.64-92.57-15.74,.22-5.74,88.89,13.94h0l32.7,5.14Z" style="fill:#aab9de; fill-rule:evenodd;"/><path d="M1259.98,451.43c4.7-4.42,8.69-9.61,11.95-15.55,1.91,5.35,4.23,11.03,6.12,18.29l-18.07-2.74Z" style="fill:#6998d0; fill-rule:evenodd;"/><path d="M1302.52,337.88c-14.03,23.3-22.79,40.11-27.94,52.95-5.08-39.84,2.19-48.81,27.94-52.95Z" style="fill:#6998d0; fill-rule:evenodd;"/><path d="M1407.16,587.57c14.14,29.17,18.11,92.55,11.93,190.16-77.63,10.5-133.55,9.43-167.79-3.22,2.79-89.14,9.07-151.18,18.85-186.14,38.83,15.72,84.5,15.46,137-.8Z" style="fill:#142d4d; fill-rule:evenodd;"/><path d="M1380.96,330.17c-14.23,7.69-29.31,12.44-45.11,12.56-2.89-3.04-3.03-6.87-3.92-10.21-.05-.19-.1-.36-.15-.55,2.41-3.3,4.05-5.79,2.59-11.56-.02-.08-.05-.17-.07-.26-17.12-5.75-27.75-34.54-20.8-51.47-.35-5.66-.89-11.53-1.63-17.61,25.36,7.35,41.29,6.95,59.86-6.11,3.26,8.46,4.87,13.27,2.94,22.19-.43,3.08-2,9.67,2.12,10.28,1.91-10.71,5.81-16.63,13.03-14.07,6.44,10.31,2.6,23.29-12.86,25.98-4.55,9.38-6.51,15.8-5.88,19.25-.49,5.86,4.63,13.73,8.48,19.49,.49,.73,.97,1.43,1.4,2.09Z" style="fill:#f4ae7c; fill-rule:evenodd;"/><path d="M1334.21,319.83c10.37,1.16,15.07,1.09,24.66-2.72-5.62,6.06-14.37,9.67-24.42,10.26,.54-2.53,.44-4.97-.24-7.54Z" style="fill:#ed7d5b; fill-rule:evenodd;"/><path d="M1263,864.69c-2-27.5-3.19-56.67-3.56-87.51,17.07,4.97,38.64,7.53,64.71,7.69-6.27,26.42-15.75,55.31-20.7,83.81,26.28,71.29-9.91,130.19-4.78,176.81-7.16,11.43-19.05,37.26-36.99,46.73-5.99-1.55-1.5-7-3.5-10.1,9.25-9.62,15.04-24.68,17.37-45.2,2.13-48.77-2.05-106.18-12.56-172.23Z" style="fill:#f4ae7c; fill-rule:evenodd;"/><path d="M1360.73,854.49c-5.42-22.56-15.25-45.27-22.4-69.76,19.14-.47,40.44-2.09,63.89-4.87-.39,23.14-.68,47.28-.89,72.42,36.81,65.09,12.15,141.12,22,173.83-7.17,17.01-9.09,38.31-25.03,50.85-5.87-.46-2.83-6.21-5.03-8.9,5.01-11.3,7.75-25.56,8.22-42.78-5.66-49.08-19.24-106.02-40.75-170.81Z" style="fill:#f4ae7c; fill-rule:evenodd;"/><path d="M1252.38,1079.95c12.61,.66,1.1,10.14,9.31,12.27,17.95-9.48,27.88-35.33,35.04-46.75,3.77-6,6.5,1.63,8.36,10.19,2.96,13.62-.78,8.87-2.46,19.74-.42,2.71,3.09,17.31,3.66,25.42,.23,3.2-1.52,4.45-1.85,4.99-3.29-5.53-6.1-22.54-9.09-32.93-17.61,15.14-13.76,31.83-24.2,37.51-25.05,2.68-38.6,3.34-57.61,3.75-4.18-15.62,28.9-10.35,38.84-34.2Z" style="fill:#142d4d; fill-rule:evenodd;"/><path d="M1387.17,1066.85c12.16-1.52,2.9,9.49,11.13,10.13,15.41-12.12,20.18-38.51,24.94-50.63,2.5-6.38,6.51,.46,9.84,8.3,5.32,12.51,.88,8.6,1.26,19.27,.09,2.67,6.11,16,8.14,23.66,.8,3.01-.65,4.5-.86,5.08-4.15-4.71-9.94-20.47-14.69-29.89-14.06,17.46-7.34,32.74-16.28,39.95-23.44,6.83-36.24,9.77-54.34,13.4-6.85-14.22,25.71-14.81,30.85-39.28Z" style="fill:#142d4d; fill-rule:evenodd;"/><path d="M1233.46,466.96c-2.91,0-3.91,2.36-2.22,5.28,1.68,2.91,5.4,5.27,8.31,5.27s3.91-2.36,2.23-5.27c-1.68-2.92-5.4-5.28-8.32-5.28Z" style="fill:#aab9de; fill-rule:evenodd;"/><path d="M199.84,61.78c76.47-19.1,183.17,2.04,214.14,115.13,30.97,113.1-44.58,185.78-125.61,208.17-38.43,10.62-82.89,6.35-119.92-12.18-41.04-20.55-73.32-58.3-85.99-105.2-14-51.8-1.55-106.63,29.3-147.04,22.37-29.3,55.94-50.84,88.08-58.88Z" style="fill:#aab9de; fill-rule:evenodd;"/><path d="M201.98,69.63c84.95-23.26,172.66,26.74,195.92,111.68,23.26,84.94-26.74,172.65-111.69,195.91-84.94,23.26-172.65-26.74-195.91-111.68-23.26-84.94,26.74-172.65,111.68-195.91Z" style="fill:#bcc9e7; fill-rule:evenodd;"/><path d="M216.15,121.35c56.37-15.43,114.59,17.75,130.03,74.13,15.44,56.37-17.74,114.59-74.12,130.03-56.38,15.44-114.6-17.75-130.03-74.12-15.44-56.38,17.74-114.6,74.12-130.04Z" style="fill:#fff; fill-rule:evenodd;"/><path d="M229.03,173.06c28.66-7.84,58.25,9.02,66.09,37.68,7.85,28.66-9.02,58.26-37.68,66.1-28.66,7.84-58.25-9.02-66.09-37.69-7.85-28.65,9.02-58.25,37.68-66.09Z" style="fill:#bcc9e7; fill-rule:evenodd;"/><path d="M230.91,231.81c31.32-7.38,79.29-34.63,86.86-38.98,84.89-48.76,145.44-83.55,230.33-132.31,4-2.3,5.15-7.88,2.55-12.39h0c-2.59-4.52-7.99-6.34-11.99-4.04-84.89,48.77-145.44,83.55-230.34,132.32-7.56,4.35-55.27,32.06-77.42,55.4Z" style="fill:#e9eff8; fill-rule:evenodd;"/><path d="M314.64,187.39L544.97,55.06c4-2.29,6.55-5.41,5.69-6.93,2.59,4.51,1.44,10.08-2.55,12.39l-8.97,5.15-17.62,10.12-17.62,10.12-17.61,10.12-17.61,10.12-150.91,86.69c-7.56,4.35-55.54,31.6-86.86,38.98,28.27-12.68,76.15-40.08,83.72-44.43Z" style="fill:#d0d9ee; fill-rule:evenodd;"/><path d="M468.68,106.15l40.44,19.47c3.58,1.72,9.9,1.17,14.06-1.22l56.43-32.42c3.55-2.04,3.96-4.9,.93-6.37l-41.41-19.93-70.44,40.47Z" style="fill:#bcc9e7; fill-rule:evenodd;"/><path d="M459.24,89.72l3.56-44.74c.31-3.95,3.97-9.14,8.14-11.53L527.37,1.03c3.54-2.04,6.23-.95,5.96,2.42l-3.64,45.81-70.45,40.46Z" style="fill:#bcc9e7; fill-rule:evenodd;"/></svg>