<?xml version="1.0" encoding="UTF-8"?><svg id="a" xmlns="http://www.w3.org/2000/svg" viewBox="0 0 1888.4 1168.35"><path d="M87.25,655.03c-48.74,38.62-72.04,92.5-56.51,147.36,22.93,80.83,122.57,137.14,234.46,138.41h.27c11.22,.1,22.58-.34,34-1.33,220.4-11.7,386.16-76.28,809.14,10.76,81.58,18.48,171.55,23.07,262.58,10.44,275.71-38.24,456.6-219.75,403.96-405.46-37.36-131.9-182.51-230.42-362.26-262.75-133.03-25.52-352.07-12.42-558.61-57.91-179.18-39.44-309.27-156.87-497.75-131.97-4.99,.51-9.99,1.13-14.98,1.81-158.79,22-263.84,123.45-234.62,226.56,1.85,6.57,4.23,13,7.07,19.26,53.43,117.67,44.5,219.27-26.78,304.82h.02Zm0,0" style="fill:#e7f1fb; fill-rule:evenodd;"/><path d="M1533.95,99.1H596.16c-45.39,0-83.87,37.22-82.51,82.51l17.14,565.03c1.37,45.3,37.18,82.48,82.51,82.48h903.52c45.08,0,81.14-37.11,82.5-82.48l17.11-565.03c1.37-45.36-37.12-82.51-82.47-82.51h0Zm0,45.09H596.16c-20.59,0-38.04,16.9-37.46,37.42l17.14,565c.62,20.26,17.21,37.46,37.46,37.46h903.52c20.25,0,36.84-16.86,37.46-37.46l17.1-565c.61-20.6-16.83-37.42-37.42-37.42h0Zm0,0" style="fill:#599dad; fill-rule:evenodd;"/><rect x="971.85" y="829.11" width="184.44" height="114.55" style="fill:#347e8f;"/><path d="M971.85,943.67h-99.23c-4.99,0-7.82,4.28-9.03,9.01l-11.02,44.13c-1.16,4.79,4.14,9.03,9.03,9.03h404.91c4.89,0,10.22-4.21,9.03-9.03l-11.01-44.13c-1.2-4.79-4.07-9.01-9.03-9.01h-283.65Zm0,0" style="fill:#599dad; fill-rule:evenodd;"/><path d="M558.7,181.61c0-18.03,12.89-33.18,29.93-36.67l.89-.17,.92-.14,.89-.14,.96-.1,.92-.1,1.92-.14h939.7l1.92,.14,.96,.1,.92,.1,.92,.14c17.89,2.74,31.74,18.33,31.74,36.98l-17.14,565.03c-.61,20.6-17.2,37.43-37.42,37.43H613.19c-20.24,0-36.84-17.2-37.46-37.43l-17.04-565.03Zm0,0" style="fill:#f8fbff; fill-rule:evenodd;"/><path d="M1485.79,0H644.28c-13.61,0-24.73,11.15-24.73,24.77V658.97c0,13.62,11.12,24.77,24.73,24.77h841.5c13.61,0,24.76-11.15,24.76-24.77V24.77c0-13.61-11.15-24.77-24.76-24.77h0Zm0,0" style="fill:#c7dcf5; fill-rule:evenodd;"/><path d="M644.28,0h841.5c13.61,0,24.76,11.15,24.76,24.77V89.73H619.55V24.77c0-13.61,11.12-24.77,24.73-24.77h0Zm0,0" style="fill:#6bb7bf; fill-rule:evenodd;"/><path d="M1368.28,30.96H704.66c-8.07,0-14.71,6.6-14.71,14.68s6.64,14.71,14.71,14.71h663.62c8.08,0,14.71-6.61,14.71-14.71s-6.63-14.68-14.71-14.68h0Zm57.13,0c-8.11,0-14.67,6.57-14.67,14.68s6.57,14.71,14.67,14.71,14.71-6.57,14.71-14.71-6.56-14.68-14.71-14.68h0Zm0,0" style="fill:#fff; fill-rule:evenodd;"/><path d="M1049.57,128.04h-374.36c-4.69,0-8.48,3.8-8.48,8.48s3.8,8.52,8.48,8.52h374.36c4.69,0,8.52-3.83,8.52-8.52s-3.83-8.48-8.52-8.48h0Zm403.76,456.29H675.21c-4.69,0-8.48,3.83-8.48,8.51s3.83,8.48,8.48,8.48h778.12c4.64,0,8.47-3.79,8.47-8.48s-3.83-8.51-8.47-8.51h0Zm0-45.63H675.21c-4.69,0-8.48,3.83-8.48,8.52s3.83,8.52,8.48,8.52h778.12c4.64,0,8.47-3.83,8.47-8.52s-3.83-8.52-8.47-8.52h0Zm0-45.63H675.21c-4.69,0-8.48,3.83-8.48,8.52s3.83,8.52,8.48,8.52h778.12c4.64,0,8.47-3.83,8.47-8.52s-3.83-8.52-8.47-8.52h0Zm-403.76-45.63h-374.36c-4.69,0-8.48,3.83-8.48,8.52s3.8,8.52,8.48,8.52h374.36c4.69,0,8.52-3.83,8.52-8.52s-3.83-8.52-8.52-8.52h0Zm0-45.63h-374.36c-4.69,0-8.48,3.83-8.48,8.52s3.8,8.52,8.48,8.52h374.36c4.69,0,8.52-3.83,8.52-8.52s-3.83-8.52-8.52-8.52h0Zm0-45.63h-374.36c-4.69,0-8.48,3.83-8.48,8.52s3.8,8.52,8.48,8.52h374.36c4.69,0,8.52-3.83,8.52-8.52s-3.83-8.52-8.52-8.52h0Zm0-45.63h-374.36c-4.69,0-8.48,3.83-8.48,8.52s3.8,8.52,8.48,8.52h374.36c4.69,0,8.52-3.83,8.52-8.52s-3.83-8.52-8.52-8.52h0Zm0-45.63h-374.36c-4.69,0-8.48,3.83-8.48,8.52s3.8,8.52,8.48,8.52h374.36c4.69,0,8.52-3.83,8.52-8.52s-3.83-8.52-8.52-8.52h0Zm0-45.63h-374.36c-4.69,0-8.48,3.83-8.48,8.51s3.8,8.53,8.48,8.53h374.36c4.69,0,8.52-3.83,8.52-8.53s-3.83-8.51-8.52-8.51h0Zm0-45.63h-374.36c-4.69,0-8.48,3.83-8.48,8.52s3.8,8.52,8.48,8.52h374.36c4.69,0,8.52-3.83,8.52-8.52s-3.83-8.52-8.52-8.52h0Zm0,0" style="fill:#fff; fill-rule:evenodd;"/><rect x="1135.43" y="128.04" width="327.95" height="300.07" style="fill:#fff;"/><path d="M1264.46,330.06l-92.46-40.19v-22.27l92.46-40.02v26.2l-64.48,24.66,64.48,25.62v26Zm8.48,17.69l33.52-139.36h19.4l-33.69,139.36h-19.23Zm61.36-17.52v-26l64.52-25.45-64.52-25.21v-25.8l92.46,40.07v22.1l-92.46,40.3Zm0,0" style="fill:#6bb7bf; fill-rule:evenodd;"/><path d="M944.21,1074.28c-521.49,0-944.21,21.07-944.21,47.03s422.73,47.04,944.21,47.04,944.19-21.04,944.19-47.04-422.74-47.03-944.19-47.03h0Zm0,0" style="fill:#cce2ff; fill-rule:evenodd;"/><path d="M1720.82,728.38h-630.87c-16.53,0,.36,33.04,8.37,33.04h33.39l-19.36,326.54c-1.57,26.55,15.36,22.1,17.51,0l31.64-326.54h487.73l30.78,326.54c2.09,21.96,19.02,26.72,17.51,0l-18.47-326.54h33.39c7.01,0,25.61-33.04,8.37-33.04h0Zm0,0" style="fill:#dfb697; fill-rule:evenodd;"/><path d="M1192.42,596.37h136.21l62.05,132.01h-150.03l-56.17-119.49c-2.74-5.85,1.5-12.52,7.93-12.52h0Zm0,0" style="fill:#f99746; fill-rule:evenodd;"/><path d="M1470.12,728.38c2.22-1.68,3.63-4.34,3.63-7.32,0-5.1-4.11-9.2-9.21-9.2h-76.11l-51.41-110.73c-2.16-4.62-7.63-6.65-12.25-4.48-4.62,2.16-6.6,7.63-4.48,12.25l53.95,116.03c.65,1.4,1.61,2.57,2.77,3.46h93.11Zm0,0" style="fill:#ed6c50; fill-rule:evenodd;"/><path d="M1715.42,382.74c21.72-.58,13.65-16.73,38.62-10.3,13.13,3.39,3.45,8.79,20.49,7.05,17.07-1.78,25.49-3.52,27.61,7.59,2.14,11.15,3.21,14.68,11.41,16.42,8.21,1.78,11.91,16.42,0,26.38-11.94,9.99-6.12,14.09-3.49,22.27,2.65,8.21-6.36,8.83-11.25,16.42-4.86,7.63,4.52,9.07-2.52,15.67-7.02,6.6-16.91,6.02-16.91,6.02l-29.59-56.78-34.38-50.73Zm0,0" style="fill:#b5453c; fill-rule:evenodd;"/><path d="M1272.85,1064.18s-31.64,.86-56.27-8.79c-24.63-9.68-41.32-24.63-36.94-7.05,4.41,17.59,24.62,47.76,42.2,50.7,17.58,2.94,23.74,22.27,33.42,22.27s23.74-22.27,48.34-33.42c22.44-10.12-30.75-23.71-30.75-23.71h0Zm0,0" style="fill:#aa413e; fill-rule:evenodd;"/><path d="M1522.25,1061.21s-13.3,18.37-36.46,31.12c-23.91,13.17-51.55,19.54-34.41,25.48,17.1,5.99,42.14,10.61,66.53,3.53,17.14-4.96,37.23-6.02,42.52-14.09,5.3-8.11-6.26-28.43-1.47-58.77,3.87-24.32-36.71,12.73-36.71,12.73h0Zm0,0" style="fill:#aa413e; fill-rule:evenodd;"/><path d="M1670.48,766.17s-183.36,68.66-198.14,87.85c-14.78,19.19-207.46,193.99-207.46,206.88s32.81,36.37,32.81,36.37c0,0,165.29-101.43,206.3-153.01,41.05-51.58,141.17-76.42,194.43-81.21,53.23-4.79-27.94-96.88-27.94-96.88h0Zm0,0" style="fill:#163560; fill-rule:evenodd;"/><path d="M1663.42,766.17s-125.43-4.69-152.39,0c-26.96,4.69-86.1,4.62-47.41,113.81,30.3,85.55,40.33,193.88,40.33,193.88l60.27,14.81s-2.4-194.81-31.16-246.67c20.97,3.45,59.42,10.19,112.71,25.41,98.86,28.29,153.04,14.13,153.04,14.13l14.74-51.58-150.13-63.8Zm0,0" style="fill:#1c468a; fill-rule:evenodd;"/><path d="M1768.16,442.3l30.65,90.58-38.72,25.48-21.93-78.22,30-37.83Zm0,0" style="fill:#ffb27d; fill-rule:evenodd;"/><path d="M1756.64,546.02l-18.47-65.88,30-37.83,11.22,33.15c-3.86,29.89-13.2,54.66-22.75,70.57h0Zm0,0" style="fill:#f4a269; fill-rule:evenodd;"/><path d="M1690,457.62c-.99,27.57,12.52,51.38,34.04,53.5,21.51,2.12,41.11-18.37,43.82-45.8,2.69-27.43-12.53-51.38-34.04-53.5-21.48-2.12-42.25,2.36-43.82,45.8h0Zm0,0" style="fill:#ffb27d; fill-rule:evenodd;"/><path d="M1813.56,530.21c94.08,63.56,35.54,166.21,14.88,241.23-17.58,63.9-17,102.56-19.64,102.56s-67.35-9.68-104.26-43.1c-36.95-33.38-61.92-65.78-61.92-65.78,0,0,47.31-8.41,62.77-69.61,7.87-31.06,4.31-47.92,22.2-97.15,17.89-49.25,85.96-68.14,85.96-68.14h0Zm0,0" style="fill:#699dee; fill-rule:evenodd;"/><path d="M1813.56,530.21l-10.09-24.63s-31.95,21.11-44.67,31.06c-12.76,9.95-20.63,12.31-20.63,12.31,0,0-4.62,35.34-1.61,32.12,37.69-40.4,77-50.87,77-50.87h0Zm0,0" style="fill:#699dee; fill-rule:evenodd;"/><path d="M1855.26,1134.42h-8.24l-58.9-245.75h18.09l49.05,245.75Zm0,0" style="fill:#a0795f; fill-rule:evenodd;"/><path d="M1609.17,1134.42h8.21l67.6-254.43h-18.06l-57.74,254.43Zm0,0" style="fill:#a0795f; fill-rule:evenodd;"/><path d="M1763.72,897.87c32.91,0,53.78-5.92,67.08-18.88,16.49-16.04,19.91-40.95,19.95-73.38,.1-68.14,3.86-82.23,23.05-123.86,2.12-4.62,.14-10.1-4.51-12.21-4.58-2.12-10.06-.1-12.21,4.52-20.29,43.99-24.63,60.17-24.73,131.55-.07,32.84-4.24,50.29-14.4,60.21-10.43,10.16-29.28,14.33-61.13,13.54-30.75-.75-51.92-5.06-68.96-8.52-22.37-4.55-38.52-7.83-57.71,1.33-4.58,2.19-6.53,7.66-4.34,12.28,2.19,4.58,7.7,6.5,12.28,4.31,13.61-6.5,25.17-4.14,46.11,.1,17.72,3.63,39.79,8.11,72.14,8.89,2.54,.07,5,.1,7.39,.1h0Zm0,0" style="fill:#a0795f; fill-rule:evenodd;"/><path d="M1810.07,622.75s-23.46,71.49-52.46,101.08c-29.02,29.62-87.41,39.58-105.67,38.38,14.57-5.85,42.32-22.51,53.47-66.71,7.87-31.06,4.31-47.92,22.2-97.15,13.28-36.56,54.19-56.37,74.41-64.17-25.21,18.13-56.75,47.96-66.46,70.67-10.74,25.22,74.53,17.9,74.53,17.9h0Zm0,0" style="fill:#4a75cb; fill-rule:evenodd;"/><path d="M1486.47,685.48s-40.43-18.44-44.84-16.69c-4.39,1.75-49.23,28.84-49.23,33.32s39.54-16.72,39.54-16.72c0,0-4.38,11.73-1.75,17.34,2.64,5.61,33.05,5.61,60.48,3.86,27.44-1.74-4.21-21.11-4.21-21.11h0Zm0,0" style="fill:#ffb27d; fill-rule:evenodd;"/><path d="M1808.77,567.46c37.28,76.42-90.62,153.86-166.45,160.77-75.87,6.87-166-17.96-166-17.96l10.15-24.8s151.98-19.84,155.85-22.61c3.83-2.77,152.8-123.38,166.45-95.4h0Zm0,0" style="fill:#699dee; fill-rule:evenodd;"/><path d="M1760.3,444.9c-3.46,9.07-.92,18.47,5.68,20.97,6.57,2.5,14.71-2.84,18.16-11.9,3.46-9.1,.92-18.51-5.68-21-6.57-2.5-14.71,2.84-18.16,11.94h0Zm0,0" style="fill:#ffb27d; fill-rule:evenodd;"/><path d="M1689.93,386.71c-10.29-4.31-21.89-8.89-18.3,8.59,1.57,7.63,0,5.47-2.74,12.52-2.74,7.01,6.91,12.55,10.02,16.45,3.15,3.9-4.55,8.17,1.72,12.86,6.26,4.68,14.5-1.75,20.31,0,17.38,5.16,15.22-8.52,25.01-11.36,9.79-2.84,14.57-2.39,16.42,3.87,1.85,6.26-6.84,26.82,.58,24.87,7.42-1.95,9.1,14.64,11.08,24.05,1.99,9.37,7.08-6.5,6.77-17.21-.51-16.45,3.56-23.36,9.65-27.98,6.06-4.62,8.62-46.45-20.7-48.03-29.28-1.57-29.49-4.38-41.97-7.05-12.52-2.63-13.14,10.37-17.86,8.41h0Zm0,0" style="fill:#b5453c; fill-rule:evenodd;"/><rect x="576.66" y="931.94" width="260.25" height="194.78" style="fill:#de7b2a;"/><path d="M774.82,886.1h-138.4l-59.76,45.84h260.25l-62.09-45.84Zm0,0" style="fill:#b5453c; fill-rule:evenodd;"/><path d="M791.51,977.75h-171.82l-43.03-45.8h260.25l-45.39,45.8Zm0,0" style="fill:#fc9f53; fill-rule:evenodd;"/><path d="M259.73,177.74c.89,4.62-3.8,9.44-10.46,10.78-6.65,1.33-12.77-1.26-13.66-5.85-.89-4.58,3.8-9.44,10.47-10.77,6.67-1.44,12.8,1.26,13.65,5.85h0Zm0,0" style="fill:#4f4021; fill-rule:evenodd;"/><path d="M132.68,1037.54s-11.12,11.02-11.36,15.06c-.27,4.03-.99,47.27,3.56,51.31,4.55,4.04,17.86,6.91,13.58,11.49-3.25,3.42-28.19,2.71-44.71,1.74-4.82-.24-10.88-39.3-12.79-44.98-2.77-8.31-12.76-26.48-10.23-32.26,1.2-2.84,10.34-9.34,18.65-14.71,8.72-5.71,17.03-18.47,17.03-18.47l26.27,30.82Zm0,0" style="fill:#ffb27d; fill-rule:evenodd;"/><path d="M89.89,1024.85s23.26,71.46,33.29,74.95c2.67,.96,17.85,5.13,20.29,10.84l.13,.55c.79,3.66-2.26,6.98-5.98,6.98h-47.62s-6.74-32.22-9.41-46.43c0,0-14.16-34.61-12.59-37.76,1.57-3.18,21.89-9.13,21.89-9.13h0Zm0,0" style="fill:#1c468a; fill-rule:evenodd;"/><path d="M281.52,1064.63l-9.95,28.49c-.75,4.62-3.66,15.7-3.66,19.81,0,15.46,68.62-13.07,53.26-19.88-1.4-.61-5.78-5.61-6.22-10.84-.72-8.07,5.77-18.23,5.77-18.23l-39.2,.65Zm0,0" style="fill:#ffb27d; fill-rule:evenodd;"/><path d="M264,1118.1l7.87-25.21s16.49,7.05,24.73,5.89c8.28-1.2,24.39-5.89,24.39-5.89,32.95,10.95,59.94,16.32,55,25.21h-111.99Zm0,0" style="fill:#1c468a; fill-rule:evenodd;"/><path d="M364.74,516.29l13.27,72.14s32.91,229.22,29.83,244.75c-7.49,37.93-83.29,244.34-83.29,244.34l-48.57-6.15,53.3-244.14-88.8-229.29,124.27-81.66Zm0,0" style="fill:#1c468a; fill-rule:evenodd;"/><path d="M275.81,556.28l-35.51,41.43-34.85,216.87-109.64,202.27s16.49,25.34,34.17,29.32l155.64-204.42,84.32-256.01-2.94-56.84-91.2,27.4Zm0,0" style="fill:#1c468a; fill-rule:evenodd;"/><path d="M553.67,332.19c-.68-2.12-7.83-15.36-7.83-15.36,0,0-.38-21.93,.23-22.23,12.21-5.17,24.46,.31,26.13,12.83v.38c.41,23.53-11.9,45.32-31.98,56.54-4.54,2.57-9.41,5.23-14.37,8-.27-9.41-1.57-18.68-4.55-27.64,18.23-6.33,32.6-11.7,32.36-12.52h0Zm0,0" style="fill:#ffb27d; fill-rule:evenodd;"/><path d="M313.67,316.59c0-1.16,133.37,34.68,133.37,34.68,0,0,46.97-15.5,81.41-27.64,3.56,10.71,5.27,21.79,5.81,32.98-32.02,18.37-68.65,38.64-77.75,41.01-16.93,4.28-113.4-9.88-113.4-9.88,0,0-29.45-70.26-29.45-71.15h0Zm0,0" style="fill:#6bb7bf; fill-rule:evenodd;"/><path d="M400.97,591.13c-.38-1.92-3.59-91.64-24.83-165.7-16.49-57.43-50.01-102.49-61.78-108.75-4.35-2.39-36.84,.45-36.84,.45l17.01,14.98c18.12,17.82,27.32,35.95,40.05,58.7,36.92,66.05,19.67,229.29,23.16,229.15,3.91-.24,44.67-21.31,43.24-28.84h0Zm0,0" style="fill:#599dad; fill-rule:evenodd;"/><path d="M548.95,223.13l23.43,6.33-25.35,119.28-44.23-74.67,46.15-50.93Zm0,0" style="fill:#f5fafa; fill-rule:evenodd;"/><path d="M532.02,211.5l2.54,90.99-30.93-29.14,28.39-61.85Zm0,0" style="fill:#f5fafa; fill-rule:evenodd;"/><path d="M369.19,256.55l3.83,75.8,132.96-59.66-136.79-16.15Zm0,0" style="fill:#f5fafa; fill-rule:evenodd;"/><path d="M575.12,228.5l-23.53,200.49c-.1,.86-.61,1.74-1.37,2.23l-48.16,33.35,12.38-194.88,56-43.85c2.05-1.68,4.97,.07,4.69,2.67h0Zm0,0" style="fill:#fc9f53; fill-rule:evenodd;"/><path d="M251.72,157.39c-50.42-36.88-113.43,146.51-69.17,166.14,7.83,3.56,49.81,11.02,49.81,11.02,0,0,14.67-20.01,22.61-22.44,7.9-2.46,14.54,25.55,24.22,27.3,9.71,1.68,21.01-29.01,21.01-29.01,0,0,18.75-56.2,5.57-82.34,0,0,11.36-15.63-3.69-28.6,0,0,4.21-25.9-15.97-36.53-20.22-10.68-34.39-5.54-34.39-5.54h0Zm0,0" style="fill:#b5453c; fill-rule:evenodd;"/><path d="M282.54,316.52l-42.49,2.53s-11.29,13.96-11.66,14.02c-4.48,.86,15.43,176.96,19.44,242.22,4.03,65.33,20.48,47.03,20.48,47.03,0,0,45.39,16.8,86.92,4.34,43.17-12.89,28.46-67.56,28.46-67.56,0,0-26.95-119.65-41.73-156.26-14.74-36.77-59.42-86.34-59.42-86.34h0Zm0,0" style="fill:#f5fafa; fill-rule:evenodd;"/><path d="M273.69,288.09l6.7,20.18,1.16,3.56s13.92,33.76,6.02,42.38c-7.94,8.65-47.51-35.16-47.51-35.16l-8.62-62.33,42.25,31.37Zm0,0" style="fill:#ffb27d; fill-rule:evenodd;"/><path d="M234.24,277.01c11.66,19.53,32.29,28.8,46.11,31.2l-6.66-20.11-42.25-31.37,2.8,20.28Zm0,0" style="fill:#ed6c50; fill-rule:evenodd;"/><path d="M253.23,202.54c17.41-10.47,26.85-16.8,33.52,2.46,2.87,8.31,6.09,18.92,8.59,30.79,5.95,28.36-3.07,59.01-15.67,61.64-12.54,2.53-50.87-8.86-59.9-49.12-5.58-24.76,15.15-34.85,33.45-45.77h0Zm0,0" style="fill:#ffb27d; fill-rule:evenodd;"/><path d="M229.66,249.67c1.2,6.27-1.88,12.19-6.88,13.21-4.99,1.02-10.02-3.25-11.22-9.58-1.2-6.26,1.85-12.18,6.84-13.2,5.03-1.06,10.06,3.22,11.25,9.57h0Zm0,0" style="fill:#ffb27d; fill-rule:evenodd;"/><path d="M240.06,319.05s-41.22,6.81-52.51,17.09c-7.18,6.51,5.75,83.1,5.75,83.1,0,0,23.4,73.99,25.24,96.4,6.23,76.28,3.04,145.99,6.74,148.52,21.69,8.56,97.11-2.39,100.33-11.11,35.23-96.16-85.55-334-85.55-334h0Zm0,0" style="fill:#599dad; fill-rule:evenodd;"/><path d="M198.94,416.16s79.39,111.21,100.74,118.43c21.35,7.12,58.56-141.72,58.56-141.72,0,0,28.05-31.3,30.41-32.33,9.42-4.17-22.1,.96-22.1,.96l-13.96-30.58s-1.4,.82-6.98,14.2c-7.52,18.06-10.97,43.24-14.74,48.54l-38.58,57.98-54.15-77.31-39.2,41.83Zm0,0" style="fill:#ffb27d; fill-rule:evenodd;"/><path d="M514.44,269.69l-16.76,3.9-12.01,201.75,16.39-10.78,12.38-194.88Zm0,0" style="fill:#de7b2a; fill-rule:evenodd;"/><path d="M359.71,479.45c.45,3.73,125.95-4.11,125.95-4.11l12.01-201.75-145.93-1.09c-3.52,0,7.97,206.95,7.97,206.95h0Zm0,0" style="fill:#fc9f53; fill-rule:evenodd;"/><path d="M332.83,384.63l23.09,25.52s-29.76,133.68-52.03,134.5c-22.27,.68-99.44-106.62-116.17-137.82-16.73-31.13-13.13-62.91,2.05-72.9,15.22-9.88,37.49,14.67,46.52,25.2,9.07,10.61,56,92.51,56,92.51l40.54-67.01Zm0,0" style="fill:#6bb7bf; fill-rule:evenodd;"/><path d="M566.87,306.39s.99-5.34,.93-8.24c-.08-3.01-19.3-6.91-24.33-.41-4.99,6.43,14.2,7.15,23.4,8.65h0Zm0,0" style="fill:#ffb27d; fill-rule:evenodd;"/><path d="M569.71,317.48s2.63-5.71,2.53-8.72c-.07-3.01-25.18-6.81-30.2-.31-4.99,6.5,18.48,7.6,27.67,9.03h0Zm0,0" style="fill:#ffb27d; fill-rule:evenodd;"/><path d="M564.79,327.6s2.63-5.78,2.53-8.79c-.07-2.94-19.29-6.81-24.29-.38-5.03,6.46,12.55,7.66,21.75,9.17h0Zm0,0" style="fill:#ffb27d; fill-rule:evenodd;"/><path d="M350.93,345.49l5.54-2.19c1.61-.48,3.15-1.2,4.58-2.16,5.75-3.49,21.59-12.76,24.01-9.75,3.01,3.73-21.41,17.69-21.41,17.69,0,0,27.33-13.65,28.94-8.65,1.61,4.99-26.58,17.52-26.58,17.52,0,0,25.04-9.58,26.44-6.88,1.37,2.67-27.6,21.52-27.6,21.52,0,0,23.74-14.47,27.37-11.94,3.59,2.43-36.77,42.45-36.77,42.45l-4.51-57.6Zm0,0" style="fill:#ffb27d; fill-rule:evenodd;"/><path d="M564.79,327.6s-16.62-3.32-19.5,.48c-2.84,3.8,16.76,10.6,16.76,10.6l-.48,5.06s7.46-11.39,3.22-16.15h0Zm0,0" style="fill:#ffb27d; fill-rule:evenodd;"/><path d="M529.66,946.48l47-14.54,59.76-45.84-44.16,13.72-62.6,46.66Zm0,0" style="fill:#fc9f53; fill-rule:evenodd;"/><path d="M881.58,946.48l-44.68-14.54-62.09-45.84,44.16,13.72,62.6,46.66Zm0,0" style="fill:#fc9f53; fill-rule:evenodd;"/></svg>