<?xml version="1.0" encoding="UTF-8"?><svg id="a" xmlns="http://www.w3.org/2000/svg" viewBox="0 0 2041.08 1300.61"><path d="M1692.09,1217.05c437.67-216.27,283.73-631.96,124.02-867.73C1592.48,19.19,1064.05-99.44,845.5,163.94,548.82,521.44,248.76,436.88,146.41,670.05c-102.35,233.17,85.42,461.09,191.05,547.48,180.87-7.62,423.15-12.26,683.08-12.26s492.08,4.45,671.55,11.78h0ZM628.43,297.11c-114.54,73.32-304,130.14-366.92,52.18-47.01-58.24,10.9-167.5,124.3-250.34C499.12,16.16,650.95-33.95,733.7,27.01c98.2,72.34-17.06,213.63-105.27,270.1Z" style="fill:#e9eff8; fill-rule:evenodd;"/><path d="M1893.7,590.65c2.65,7.22-1.06,15.22-8.28,17.87-7.22,2.64-15.22-1.07-17.86-8.28-13.37-36.31-29.46-71.89-47.19-105.9-19.64-37.7-41.07-73.14-62.87-105.33-19.23-28.37-41.05-55.06-64.94-79.92-24.71-25.72-51.66-49.44-80.19-71.01-35.45-26.78-73.77-50.56-113.92-70.74-40.06-20.13-82.13-36.79-125.18-49.42-7.37-2.17-11.59-9.9-9.43-17.27,2.16-7.37,9.9-11.59,17.27-9.43,44.5,13.05,88.1,30.34,129.77,51.27,41.92,21.07,81.71,45.72,118.27,73.35,29.6,22.37,57.63,47.06,83.47,73.95,24.83,25.85,47.64,53.76,67.88,83.62,22.7,33.51,44.74,69.91,64.61,108.05,18.19,34.89,34.76,71.55,48.6,109.16h0ZM1271.6,68.11c7.61,.96,13,7.91,12.04,15.52-.97,7.61-7.92,13.01-15.53,12.04-32.77-4.24-66.64-5.99-100.43-4.54-31.06,1.34-62.07,5.42-92.11,12.79-7.46,1.84-15-2.73-16.83-10.19-1.83-7.47,2.72-15,10.19-16.83,31.81-7.81,64.65-12.13,97.55-13.55,35.34-1.52,70.8,.32,105.12,4.76h0ZM508.61,473.11c6.99-3.22,15.25-.17,18.47,6.81,3.22,6.98,.17,15.25-6.81,18.47-27.35,12.58-53.96,23.76-80.56,34.95-24.44,10.27-48.9,20.54-72.09,31.05-15.9,7.21-31.72,14.72-46.65,22.85-14.88,8.11-29.35,17.06-42.92,27.3-6.14,4.63-14.87,3.42-19.51-2.72-4.63-6.14-3.41-14.86,2.72-19.5,14.55-10.98,30.22-20.66,46.42-29.49,16.17-8.8,32.43-16.56,48.5-23.83,24.7-11.18,48.73-21.28,72.75-31.37,27.04-11.36,54.1-22.73,79.69-34.51h0Zm-289.77,159.64c4.84-5.96,13.6-6.86,19.55-2.02,5.95,4.84,6.85,13.61,2.01,19.56-5.79,7.11-11.12,14.69-16,22.78-4.92,8.14-9.28,16.59-13.15,25.4-3.07,7.03-11.26,10.26-18.29,7.19-7.03-3.07-10.26-11.26-7.19-18.29,4.46-10.17,9.37-19.72,14.78-28.67,5.44-9,11.51-17.64,18.29-25.94h0ZM727.21,87.82c1.71,7.5-2.98,14.96-10.46,16.67-7.48,1.71-14.95-2.97-16.67-10.46-.37-1.65-1.24-3.17-2.38-4.58-1.55-1.91-3.67-3.72-5.96-5.42-9.4-6.9-21.26-10.6-33.84-12.21-17.35-2.22-36.15-.49-52.21,2.34-22.75,4.01-45.79,11.11-68.17,20.16-25.52,10.32-50.24,23.2-72.76,36.95-6.55,4-15.12,1.92-19.12-4.63-4-6.56-1.93-15.12,4.63-19.12,23.69-14.46,49.8-28.06,76.9-39.01,24.18-9.77,49.1-17.46,73.73-21.8,18.14-3.2,39.73-5.1,60.5-2.44,16.96,2.17,33.29,7.4,46.79,17.34l.06,.05c3.95,2.92,7.77,6.25,11.03,10.26,3.68,4.53,6.52,9.75,7.95,15.91h0Zm-339.95,64.48c5.89-4.91,14.64-4.1,19.55,1.8,4.9,5.89,4.1,14.65-1.8,19.55-15.22,12.64-30.07,26.66-43.35,41.67-11.73,13.27-22.19,27.27-30.5,41.67-3.81,6.65-12.3,8.95-18.95,5.12-6.65-3.81-8.94-12.31-5.12-18.95,9.33-16.18,20.9-31.7,33.77-46.26,14.23-16.1,30.12-31.11,46.4-44.61Z" style="fill:#fff; fill-rule:evenodd;"/><path d="M379.74,1215.84c10.27-97.8-23.87-81.87-70.2-148.3-19.12-27.41-18.31-51.94-5.01-81.17,8.74-19.17,17.61-43.04,7.02-63.21-11.49-21.89-33.62-22.88-54.83-27.56-54.45-12.01-71.83-56.28-99.24-98.52-7.09-10.93-16.91-20.88-29.46-24.06-60.4-15.34-81.9,83.03-57.6,121.79,15.17,24.22,38.92,40.36,54.34,64.71,13.78,21.76,13.54,38.95,10.99,63.36-4.05,38.75,15.34,75.1,42.16,101.48,15.23,14.96,32.06,28.95,42.95,47.71,11.42,19.68,29.46,35.98,50.47,48.51,33.62-1.69,69.85-3.28,108.4-4.74Z" style="fill:#d0d9ee; fill-rule:evenodd;"/><path d="M354.88,1216.81c-21.38-21.49-39.1-41.94-54.06-61.57-.67-17.02,1.49-35.17,6.48-54.45-6.32,14.92-12.11,28.83-14.44,43.74-33.07-45.78-51.44-87.04-66.69-126.31,6.29-25.43,18.17-51.05,35.62-76.87-17.76,19.34-31.21,40.85-40.36,64.49-23.03-60.8-41.44-117.38-99.59-179.31,24.28,34.78,41.45,66.6,55.42,97.11-20.83-11.29-43.44-18.64-67.81-22.07,28.76,8.56,53.34,20.36,73.75,35.37,22.29,51.19,37.03,99.27,63.4,152.26-20.91-11.38-43.59-18.78-68.07-22.22,29.59,8.81,54.76,21.04,75.5,36.67,18.54,34.96,42.69,72.28,77.66,114.13,7.63-.33,15.35-.65,23.2-.97Z" style="fill:#e9eff8; fill-rule:evenodd;"/><path d="M338.69,1217.47c-21.76-62.65-40.99-43.42-91.6-73.89-21.61-13.01-28.55-30.25-28.25-54.64,.19-16-.96-35.29-14.45-45.97-14.64-11.57-30.27-5.34-46.37-1.96-41.38,8.68-66.93-16.55-98.82-37.23-8.24-5.36-18.08-9.18-27.74-7.47-46.52,8.24-31.35,83.07-2.7,102.32,17.9,12.03,39.28,15.79,57.39,27.84,16.19,10.77,21.26,22.74,26.95,40.43,9.04,28.11,33.55,47.23,60.19,57.11,1.82,.67,3.63,1.32,5.47,1.97,45.98-3.12,99.71-5.99,159.93-8.51Z" style="fill:#bcc9e7; fill-rule:evenodd;"/><path d="M292.67,1219.53c-8.82-4.09-17.07-8.26-24.85-12.5-5.66-11.57-9.7-24.82-12.14-39.73,.18,12.31,.41,23.75,3.35,34.8-36.88-21.37-62.21-44.21-84.76-66.64-3.41-19.58-3.01-41.03,1.2-64.35-6.4,18.93-9.15,38.02-8.26,57.26-34.51-34.92-64.53-68.35-123.72-93.07,27.44,16.5,49.04,33.18,68.04,49.94-17.88-1.31-35.77,.65-53.7,5.89,22.54-3.05,43.16-2.56,61.88,1.47,31.06,28.48,55.95,57.17,90.4,85.63-17.95-1.34-35.93,.62-53.92,5.86,23.18-3.12,44.34-2.52,63.48,1.83,14.84,11.62,31.51,23.2,51.08,34.69,7.19-.36,14.5-.72,21.92-1.08Z" style="fill:#dee7f5; fill-rule:evenodd;"/><path d="M1694.86,1215.77c-22.43-94.05,11.81-82.03,48.08-150.58,14.79-27.96,11.22-50.89-4.63-76.74-10.39-16.95-21.45-38.3-13.84-58.47,8.27-21.88,28.91-25.4,48.26-32.28,49.71-17.66,60.93-61.22,81.79-104.06,5.39-11.07,13.47-21.56,24.88-26.02,54.89-21.48,86.34,68.28,68.01,107.48-11.45,24.5-31.88,42.42-43.55,67.07-10.44,22.03-8.23,38.13-3.05,60.73,8.24,35.88-5.77,72.24-27.9,100.13-12.57,15.83-26.76,30.92-34.82,49.78-12.06,28.27-37.56,51.67-66.69,67.84-23.43-1.19-48.13-2.33-74-3.39l-2.55-1.5Z" style="fill:#d0d9ee; fill-rule:evenodd;"/><path d="M1711.76,1217.88c20.27-25.43,36.38-49.12,49.42-71.45-1.32-16.05-5.43-32.82-12.33-50.32,7.64,13.25,14.67,25.63,18.57,39.34,25.77-46.82,38.26-87.68,48.06-126.31-8.82-23.12-22.9-45.76-42.23-67.91,18.88,16.05,33.97,34.64,45.27,55.76,14.62-59.75,25.4-114.97,72.84-179.88-18.79,35.48-31.24,67.34-40.85,97.59,18.24-13.03,38.61-22.58,61.07-28.65-25.99,11.41-47.7,25.35-65.13,41.83-15.03,50.63-23.34,97.46-42,150.25,18.31-13.12,38.75-22.71,61.31-28.82-26.75,11.74-48.96,26.16-66.63,43.26-14.41,37.65-34.61,78.63-66.38,126.26-6.91-.32-13.91-.62-21.01-.93Z" style="fill:#e9eff8; fill-rule:evenodd;"/><path d="M1669.55,1216.15c-3.33-15.17,4.74-26.9,4.48-55.02-.16-18.12-8.18-28.64-23.15-37.21-9.83-5.62-21.17-13.27-22.82-25.51-1.8-13.27,7.61-20.76,15.45-29.59,20.15-22.66,13.96-47.63,12.8-74.92-.31-7.05,.9-14.57,5.41-19.96,21.72-26.03,61.87,10.29,63.31,35.05,.91,15.47-4.48,30.14-3.64,45.75,.75,13.94,6.23,21.42,14.95,31.3,13.88,15.72,16.73,37.86,13.19,58-2.01,11.43-5.04,22.95-3.96,34.65,1.23,13.27-2.17,27.27-8.32,40.32-21.66-1-44.22-1.95-67.7-2.86Z" style="fill:#bcc9e7; fill-rule:evenodd;"/><path d="M1703.88,1217.54c.71-7.24,1.15-14.12,1.36-20.71-5.02-7.69-11.63-14.96-19.84-21.83,7.43,4.53,14.33,8.78,20,14.59,.22-30.64-4.6-54.62-10.17-76.72-10.7-9.15-23.93-16.6-39.64-22.36,13.83,2.82,26.44,7.96,37.85,15.41-8.88-34.03-18.47-64.73-12.28-110.48,.2,23.02,2.6,42.46,6,60.31,5.62-11.61,13.24-22.05,22.87-31.33-9.94,12.94-17.05,25.96-21.32,39.07,6.2,29.58,14.74,55.38,19.72,87.05,5.62-11.67,13.27-22.16,22.94-31.48-10.22,13.32-17.46,26.71-21.68,40.19,2.25,17.23,3.36,36.31,2.5,58.64l-8.3-.36Z" style="fill:#dee7f5; fill-rule:evenodd;"/><path d="M1907.46,764.38c-17.95-13.81-17.45-27.34-11.88-30.75,5.58-3.4,16.92,10.73,13.98,30.25,1.16,2.16,2.29,4.33,3.39,6.51,9.27,18.4,16.45,37.85,21.58,57.8,5.14,19.97,8.22,40.45,9.28,61.03,1.08,20.61,.09,41.31-2.88,61.73-2.97,20.47-7.98,40.62-15.02,60.07-7.03,19.43-16.1,38.11-27.13,55.6-.72,1.14-2.57,.12-1.84-1.03,1.33-2.12,2.62-4.26,3.89-6.41,10.41-17.67,18.89-36.49,25.38-55.94,6.45-19.36,10.92-39.38,13.4-59.63,2.52-20.39,2.98-41.04,1.44-61.51-1.52-20.36-5.06-40.57-10.63-60.21-5.59-19.75-13.22-38.9-22.83-57.04-.09-.15-.12-.33-.13-.47h0Zm13.81,19.88s6.42-3.47,11.74-8.77c2.64-2.65,4.95-5.75,6.04-9.09,1.09-3.34,.97-6.94-1.46-10.33-4.79-6.84-9.48-3.61-12.64,3.14-1.6,3.39-2.72,7.59-3.46,12-.75,4.43-.8,8.93-.23,13.05h0Zm-.86,12.98c-1.19-1.64-2.6-3.21-4.21-4.62-1.63-1.39-3.42-2.65-5.25-3.75-3.63-2.19-7.67-3.61-11.18-4.17-7.02-1.13-12.2,1.12-10.43,7.6,.47,1.61,1.23,2.91,2.29,3.92,1.06,1.01,2.39,1.74,3.92,2.25,1.53,.51,3.24,.82,5.04,.97,1.77,.16,3.62,.17,5.46,.09,7.34-.34,14.37-2.29,14.37-2.29h0Zm12.93,20.31s6.76-2.67,12.64-7.27c2.93-2.31,5.64-5.1,7.17-8.3,1.48-3.17,1.69-6.71-.18-10.39-3.94-7.33-9.06-4.7-12.93,1.58-1.93,3.13-3.76,7.23-4.93,11.48-.58,2.13-1.08,4.32-1.41,6.51-.32,2.17-.46,4.32-.36,6.39h0Zm-2.41,12.79c-1.98-3.55-5.03-6.84-8.39-9.45-3.45-2.58-7.2-4.52-10.59-5.52-3.43-.98-6.54-1.06-8.62-.08-2.09,.99-3.12,3.02-2.71,6.39,.95,6.67,8.32,8.68,15.73,9.22,7.4,.52,14.58-.57,14.58-.57h0Zm10.41,21.7s7.04-1.86,13.45-5.75c3.23-1.95,6.2-4.41,8.04-7.39,1.82-2.96,2.61-6.48,1.06-10.31-3.02-7.73-8.36-5.74-13.03,.05-2.35,2.89-4.45,6.69-6.24,10.8-.87,2.06-1.59,4.17-2.13,6.3-.54,2.11-1,4.25-1.15,6.3h0Zm-3.85,12.42c-.79-1.87-1.83-3.72-3.04-5.47-1.22-1.76-2.7-3.39-4.23-4.88-1.54-1.5-3.17-2.83-4.82-3.97-1.69-1.12-3.4-2.07-5.04-2.76-6.58-2.78-12.16-1.83-11.93,4.94,.06,6.78,7.33,9.6,14.53,11.02,7.25,1.38,14.54,1.12,14.54,1.12h0Zm7.4,17.38s1.82-.28,4.47-.93c2.63-.66,6.13-1.7,9.51-3.28,3.38-1.57,6.65-3.67,8.85-6.42,2.24-2.73,3.2-6.11,2.22-10.11-.96-3.99-3.02-5.65-5.3-5.66-2.32,0-5,1.64-7.61,4.23-2.67,2.6-5.32,6.14-7.45,10.02-2.16,3.87-3.95,8.09-4.69,12.15Z" style="fill:#99a9d4; fill-rule:evenodd;"/><path d="M290.77,928.23c14.3-17.56,10.69-30.61,4.49-32.65-6.21-2.03-13.99,14.34-6.65,32.65-.62,2.37-1.23,4.75-1.8,7.13-4.79,20.03-7.32,40.61-7.73,61.21-.41,20.6,1.3,41.26,4.99,61.53,3.7,20.29,9.42,40.22,17,59.41,7.59,19.23,17.1,37.7,28.42,55.01,11.31,17.3,24.43,33.38,39.18,47.87,.97,.95,2.54-.48,1.57-1.43-1.78-1.76-3.54-3.54-5.27-5.33-14.2-14.81-26.77-31.17-37.55-48.62-10.72-17.36-19.68-35.81-26.76-54.95-7.13-19.26-12.33-39.25-15.54-59.54-3.2-20.16-4.39-40.63-3.49-61.03,.89-20.5,3.93-40.9,9.11-60.75,.04-.18,.05-.35,.02-.5h0Zm-8.87,22.53s-7.04-1.91-13.44-5.85c-3.18-1.96-6.13-4.45-7.97-7.46-1.83-3-2.55-6.53-.96-10.39,3.08-7.75,8.41-5.69,13.02,.16,2.34,2.93,4.4,6.75,6.13,10.88,1.74,4.14,2.82,8.5,3.22,12.65h0Zm3.81,12.43c.79-1.87,1.81-3.73,3.04-5.47,1.27-1.73,2.72-3.37,4.25-4.85,3.04-2.97,6.63-5.28,9.92-6.63,6.58-2.72,12.15-1.71,11.91,5.01-.09,1.67-.54,3.1-1.33,4.33-.8,1.22-1.93,2.24-3.3,3.08-1.37,.85-2.97,1.55-4.68,2.1-1.68,.57-3.49,1.01-5.29,1.34-7.23,1.35-14.52,1.08-14.52,1.08h0Zm-7.91,22.74s-7.21-1.05-13.98-4.18c-3.39-1.57-6.67-3.67-8.88-6.43-2.18-2.75-3.2-6.14-2.22-10.16,2.15-8.03,7.74-6.65,12.95-1.43,2.59,2.6,5.31,6.17,7.43,10.04,1.05,1.93,2.05,3.96,2.87,6.01,.82,2.06,1.45,4.11,1.83,6.15h0Zm5.28,11.89c1.11-3.91,3.33-7.81,6-11.12,2.77-3.31,5.97-6.05,9.04-7.8,3.1-1.76,6.12-2.55,8.36-2.07,2.27,.49,3.74,2.22,4.11,5.6,.61,6.71-6.1,10.35-13.19,12.59-7.08,2.21-14.32,2.8-14.32,2.8h0Zm-5.13,23.51s-7.28-.2-14.41-2.52c-3.59-1.16-7.05-2.86-9.53-5.33-2.44-2.47-4.04-5.71-3.4-9.79,1.16-8.22,6.82-7.5,12.69-2.95,2.96,2.28,5.87,5.49,8.55,9.08,1.32,1.8,2.51,3.69,3.53,5.63,1,1.94,1.95,3.91,2.58,5.88h0Zm6.6,11.2c.34-2.01,.91-4.04,1.69-6.02,.8-1.99,1.85-3.91,3-5.72,1.15-1.81,2.43-3.48,3.79-4.97,1.38-1.49,2.83-2.8,4.28-3.85,5.77-4.21,11.42-4.56,12.75,2.08,1.49,6.61-4.93,11.02-11.62,14.06-6.73,3.01-13.88,4.43-13.88,4.43h0Zm-3.21,18.61s-1.84,.15-4.55,.12c-2.72-.04-6.36-.25-10.01-1-3.65-.75-7.32-2.05-10.09-4.21-2.81-2.15-4.53-5.23-4.49-9.33,.02-4.11,1.63-6.2,3.86-6.74,2.25-.54,5.25,.45,8.38,2.36,3.2,1.92,6.59,4.77,9.55,8.04,3,3.28,5.7,6.97,7.35,10.74Z" style="fill:#99a9d4; fill-rule:evenodd;"/><path d="M1730.97,1218.45c13.19-72.12,33.23-53.12,79.27-89.26,18.79-14.74,23.31-31.73,20.24-54.57-2.02-14.99-3.15-33.23,8.28-44.81,12.4-12.57,27.77-8.56,43.28-7.27,39.8,3.29,60.88-23.37,88.41-46.53,7.12-5.99,15.91-10.72,25.17-10.25,44.58,2.26,38.94,74.25,14.28,95.66-15.42,13.38-35.03,19.41-50.65,32.83-13.94,12-17.34,23.84-20.65,41.11-5.25,27.41-26.06,48.23-49.9,60.62-13.54,7.04-27.97,13.06-39.32,23.61-1.95,1.82-4.02,3.53-6.16,5.15-33.75-2.15-71.25-4.15-112.04-6l-.21-.28Z" style="fill:#bcc9e7; fill-rule:evenodd;"/><path d="M1752.31,1219.72c17.38-9.49,32.47-19.03,45.77-28.59,3.98-11.52,6.25-24.42,6.82-38.69,1.24,11.57,2.33,22.33,.85,33.04,32.15-24.38,53.28-48.77,71.86-72.45,.95-18.77-1.88-38.84-8.5-60.23,8.17,17.02,12.93,34.6,14.32,52.74,28.37-36.8,52.69-71.67,105.37-101.81-23.84,18.7-42.19,36.88-58.09,54.83,16.61-3.32,33.64-3.59,51.04-.78-21.49-.21-40.77,2.67-57.86,8.64-25.88,30.36-45.93,60.19-74.98,90.93,16.68-3.37,33.76-3.64,51.25-.82-22.11-.22-41.88,2.83-59.34,9.16-17.84,17.92-39.16,36.2-66.85,55.1-7.09-.36-14.34-.72-21.66-1.07Z" style="fill:#dee7f5; fill-rule:evenodd;"/><path d="M1020.54,1205.27c563.64,0,1020.55,21.34,1020.55,47.68s-456.91,47.66-1020.55,47.66S0,1279.27,0,1252.95s456.9-47.68,1020.54-47.68Z" style="fill:#d0d9ee; fill-rule:evenodd;"/><path d="M706.9,132.67c-1.42,0-2.58-1.15-2.58-2.57s1.15-2.58,2.58-2.58l5.21,.07c1.41,.04,2.54,1.21,2.5,2.63-.03,1.42-1.21,2.54-2.63,2.51l-5.07-.07h0Zm-22.99-3.82c1.41-.16,2.69,.84,2.86,2.25,.16,1.4-.84,2.69-2.25,2.86-1.68,.19-3.35,.4-5.04,.64-1.4,.2-2.7-.77-2.91-2.17-.21-1.4,.77-2.71,2.17-2.91,1.71-.25,3.44-.46,5.16-.67h0Zm-30.62,6.02c1.35-.38,2.79,.41,3.17,1.78,.38,1.36-.41,2.79-1.78,3.17l-4.86,1.43c-1.35,.42-2.8-.34-3.22-1.69-.42-1.36,.33-2.8,1.69-3.22,1.65-.51,3.32-1,5-1.47h0Zm-29.32,10.78c1.28-.61,2.82-.05,3.41,1.23,.61,1.29,.06,2.82-1.23,3.42-1.54,.71-3.07,1.43-4.59,2.19-1.27,.63-2.82,.12-3.44-1.15-.63-1.28-.12-2.83,1.15-3.45l4.7-2.24h0Zm-27.24,15.26c1.18-.8,2.79-.48,3.57,.69,.79,1.17,.48,2.77-.69,3.57l-4.19,2.87c-1.15,.83-2.76,.56-3.58-.61-.82-1.15-.55-2.76,.61-3.58l4.29-2.94h0Zm-24.5,19.32c1.04-.97,2.66-.9,3.63,.13,.96,1.04,.9,2.66-.13,3.63l-3.68,3.49c-1.02,1-2.64,.98-3.64-.04-.99-1.01-.97-2.64,.05-3.63l3.78-3.58h0Zm-21.2,22.92c.88-1.11,2.5-1.31,3.61-.43,1.11,.87,1.31,2.5,.43,3.61-1.05,1.32-2.07,2.65-3.07,4-.85,1.15-2.47,1.4-3.6,.56-1.14-.85-1.39-2.46-.55-3.6,1.08-1.36,2.09-2.77,3.18-4.13h0Zm-17.35,25.94c.69-1.24,2.26-1.67,3.5-.98,1.24,.69,1.68,2.25,.99,3.5-.84,1.46-1.62,2.96-2.42,4.45-.65,1.26-2.21,1.75-3.47,1.09-1.26-.65-1.75-2.21-1.1-3.46,.82-1.54,1.64-3.07,2.5-4.59h0Zm-13.07,28.36c.48-1.34,1.96-2.02,3.3-1.54,1.34,.49,2.02,1.96,1.53,3.3l-1.68,4.78c-.45,1.35-1.91,2.08-3.26,1.63-1.35-.44-2.08-1.9-1.62-3.26,.62-1.59,1.14-3.3,1.74-4.91h0Zm-8.43,30.07c.26-1.39,1.6-2.31,3.01-2.04,1.39,.26,2.31,1.61,2.04,3.01l-.9,4.99c-.23,1.4-1.56,2.35-2.96,2.12-1.4-.23-2.35-1.56-2.12-2.96l.94-5.12h0Zm-3.58,31.01c.04-1.41,1.23-2.52,2.64-2.48,1.42,.04,2.53,1.23,2.49,2.65l-.12,5.07c-.02,1.41-1.17,2.56-2.59,2.56-1.42-.02-2.56-1.17-2.56-2.59,.02-1.73,.07-3.47,.13-5.21h0Zm1.26,31.19c-.16-1.41,.84-2.69,2.25-2.86,1.41-.17,2.69,.84,2.86,2.25,.18,1.67,.41,3.35,.66,5.03,.2,1.4-.77,2.71-2.17,2.91-1.4,.21-2.71-.76-2.91-2.16-.25-1.72-.5-3.44-.69-5.16h0Zm6.14,30.62c-.4-1.36,.38-2.8,1.75-3.19,1.36-.39,2.79,.39,3.18,1.75,.47,1.63,.94,3.26,1.45,4.87,.43,1.35-.32,2.8-1.67,3.23-1.35,.42-2.8-.33-3.23-1.67-.53-1.65-1.01-3.32-1.48-4.99h0Zm10.88,29.25c-.6-1.29-.05-2.82,1.24-3.42,1.29-.6,2.82-.05,3.42,1.24,.7,1.54,1.44,3.06,2.2,4.56,.63,1.27,.12,2.82-1.14,3.46-1.27,.63-2.81,.12-3.45-1.14-.8-1.51-1.56-3.14-2.27-4.7h0Zm15.35,27.18c-.79-1.18-.48-2.79,.69-3.57,1.18-.79,2.79-.48,3.57,.69,.94,1.4,1.9,2.8,2.88,4.16,.83,1.15,.57,2.76-.58,3.58-1.15,.84-2.77,.58-3.59-.58-1.01-1.41-2.01-2.84-2.98-4.29h0Zm19.44,24.44c-.97-1.04-.93-2.66,.11-3.63,1.04-.97,2.66-.92,3.63,.11l3.52,3.67c.99,1.01,.98,2.64-.03,3.63-1.01,1-2.63,.99-3.63-.02-1.22-1.23-2.41-2.49-3.59-3.76h0Zm22.99,21.1c-1.11-.86-1.33-2.48-.46-3.6,.87-1.12,2.5-1.33,3.61-.45,1.34,1.05,2.68,2.08,4.04,3.07,1.14,.85,1.39,2.46,.55,3.59-.85,1.14-2.45,1.38-3.59,.55l-4.14-3.16h0Zm26.02,17.27c-1.25-.68-1.7-2.25-1.02-3.49,.68-1.25,2.25-1.7,3.49-1.02l4.48,2.41c1.26,.65,1.75,2.21,1.1,3.47-.66,1.25-2.21,1.75-3.47,1.09l-4.57-2.46h0Zm28.39,12.95c-1.34-.48-2.03-1.95-1.55-3.29,.48-1.34,1.96-2.04,3.3-1.55l4.79,1.67c1.35,.44,2.07,1.9,1.62,3.25-.44,1.35-1.9,2.08-3.25,1.63l-4.92-1.72h0Zm30.09,8.31c-1.39-.27-2.31-1.61-2.05-3.01,.27-1.39,1.61-2.31,3.01-2.05,1.65,.33,3.34,.58,4.99,.9,1.4,.21,2.35,1.54,2.13,2.94-.22,1.39-1.54,2.35-2.94,2.13l-5.14-.92h0Zm31.03,3.47c-1.42-.04-2.54-1.23-2.49-2.65,.05-1.41,1.23-2.53,2.65-2.48l5.06,.11c1.42,0,2.57,1.16,2.57,2.58,0,1.42-1.17,2.57-2.59,2.56l-5.2-.11h0Zm31.19-1.38c-1.4,.18-2.7-.82-2.87-2.23-.18-1.4,.82-2.69,2.22-2.87,1.68-.2,3.36-.42,5.03-.68,1.39-.21,2.71,.75,2.92,2.14,.22,1.4-.75,2.72-2.14,2.94-1.72,.26-3.44,.49-5.16,.7h0Zm30.58-6.25c-1.36,.39-2.8-.38-3.19-1.75-.39-1.36,.39-2.8,1.76-3.19,1.62-.46,3.25-.96,4.86-1.47,1.35-.42,2.8,.33,3.22,1.67,.43,1.36-.32,2.81-1.67,3.23-1.65,.53-3.31,1.04-4.98,1.51h0Zm29.22-11c-1.28,.62-2.82,.06-3.42-1.22-.61-1.29-.06-2.82,1.22-3.42,1.54-.72,3.06-1.46,4.56-2.22,1.27-.64,2.82-.13,3.46,1.13,.63,1.27,.13,2.82-1.13,3.46-1.56,.78-3.11,1.54-4.69,2.27h0Zm27.13-15.46c-1.17,.81-2.78,.5-3.57-.66-.8-1.18-.5-2.79,.67-3.57l4.16-2.91c1.14-.84,2.76-.57,3.58,.59,.84,1.14,.57,2.75-.58,3.58l-4.27,2.98h0Zm24.36-19.52c-1.03,.98-2.66,.93-3.63-.11-.97-1.03-.92-2.66,.12-3.63,1.22-1.15,2.42-2.37,3.64-3.52,1.01-1,2.63-1,3.64,0,1,1.01,1,2.63,0,3.64l-3.77,3.61h0Zm21.02-23.07c-.86,1.12-2.48,1.33-3.6,.45-1.12-.86-1.33-2.48-.45-3.6l3.05-4.05c.84-1.14,2.45-1.39,3.59-.56,1.14,.84,1.39,2.44,.57,3.59-1.03,1.4-2.09,2.78-3.15,4.16h0Zm17.16-26.09c-.67,1.24-2.23,1.71-3.48,1.03-1.25-.67-1.71-2.24-1.04-3.49l2.39-4.48c.64-1.27,2.2-1.76,3.46-1.11,1.27,.64,1.76,2.19,1.12,3.46l-2.46,4.59h0Zm12.85-28.44c-.48,1.34-1.95,2.03-3.29,1.55-1.34-.48-2.03-1.96-1.55-3.3l1.65-4.78c.43-1.35,1.88-2.08,3.23-1.65,1.36,.43,2.09,1.89,1.65,3.24l-1.7,4.94h0Zm8.2-30.14c-.25,1.39-1.59,2.32-2.99,2.07-1.39-.26-2.32-1.61-2.07-3l.87-5c.22-1.4,1.55-2.36,2.95-2.14,1.4,.22,2.35,1.55,2.13,2.95l-.9,5.12h0Zm3.36-31.04c-.04,1.42-1.22,2.54-2.64,2.51-1.41-.04-2.54-1.22-2.51-2.63l.1-5.07c0-1.42,1.14-2.58,2.57-2.58s2.57,1.15,2.57,2.58l-.08,5.2h0Zm-1.51-31.17c.18,1.41-.82,2.7-2.22,2.87-1.41,.18-2.7-.82-2.88-2.23-.15-1.59-.41-3.43-.7-5.01-.22-1.39,.74-2.72,2.14-2.94s2.72,.73,2.94,2.13c.26,1.69,.56,3.48,.72,5.17h0Zm-6.36-30.57c.39,1.35-.37,2.8-1.73,3.2-1.36,.4-2.8-.38-3.2-1.73l-1.49-4.86c-.43-1.35,.3-2.8,1.65-3.24,1.35-.43,2.8,.31,3.24,1.65l1.53,4.98h0Zm-11.12-29.18c.61,1.28,.08,2.82-1.19,3.43-1.29,.62-2.82,.09-3.44-1.2l-2.23-4.55c-.65-1.27-.15-2.82,1.11-3.46,1.26-.65,2.82-.15,3.46,1.11,.79,1.54,1.55,3.1,2.29,4.67h0Zm-15.56-27.06c.8,1.16,.51,2.77-.65,3.57-1.16,.81-2.77,.52-3.57-.65l-2.93-4.15c-.83-1.14-.58-2.75,.57-3.58,1.14-.84,2.76-.59,3.59,.56l3,4.26h0Zm-19.61-24.29c.98,1.02,.94,2.65-.09,3.63-1.03,.98-2.65,.94-3.63-.09l-3.55-3.64c-1-1-1-2.63,0-3.64,1.01-1,2.63-1,3.64,0l3.62,3.74h0Zm-23.16-20.93c1.13,.86,1.35,2.47,.48,3.59-.86,1.13-2.48,1.35-3.6,.48l-4.06-3.05c-1.15-.84-1.4-2.44-.57-3.58,.84-1.15,2.45-1.4,3.59-.57l4.16,3.12h0Zm-26.14-17.06c1.24,.67,1.7,2.24,1.03,3.49-.68,1.24-2.24,1.7-3.49,1.03l-4.46-2.35c-1.29-.64-1.8-2.2-1.15-3.47,.63-1.27,2.19-1.78,3.46-1.13,1.5,.84,3.08,1.62,4.61,2.44h0Zm-28.51-12.74c1.34,.47,2.04,1.94,1.57,3.28-.46,1.34-1.94,2.05-3.27,1.57l-4.81-1.63c-1.35-.44-2.08-1.88-1.65-3.24,.44-1.35,1.89-2.08,3.24-1.65,1.65,.55,3.3,1.11,4.93,1.68h0Zm-30.17-8.09c1.4,.25,2.33,1.59,2.08,2.99-.25,1.39-1.59,2.33-2.98,2.09l-5.02-.86c-1.39-.21-2.36-1.53-2.14-2.93,.21-1.39,1.53-2.35,2.93-2.14,1.71,.26,3.42,.57,5.12,.86Z" style="fill:#d0d9ee; fill-rule:evenodd;"/><path d="M1460.35,210.49c-1.39,0-2.52-1.12-2.52-2.53s1.12-2.52,2.52-2.52l5.11,.06c1.39,.04,2.5,1.2,2.46,2.59-.03,1.39-1.19,2.49-2.58,2.46l-4.99-.07h0Zm-22.58-3.76c1.38-.15,2.64,.83,2.81,2.21,.17,1.38-.82,2.64-2.2,2.81-1.65,.19-3.29,.4-4.95,.63-1.37,.21-2.66-.75-2.86-2.13-.19-1.37,.76-2.65,2.13-2.85,1.69-.25,3.38-.46,5.07-.66h0Zm-30.08,5.92c1.34-.38,2.74,.39,3.11,1.74,.38,1.34-.39,2.74-1.74,3.11l-4.78,1.4c-1.34,.41-2.75-.33-3.16-1.66-.42-1.33,.33-2.74,1.65-3.15,1.63-.51,3.27-.99,4.91-1.44h0Zm-28.79,10.57c1.26-.59,2.77-.04,3.35,1.23,.6,1.25,.05,2.77-1.21,3.35-1.51,.7-3.02,1.4-4.51,2.14-1.25,.62-2.77,.12-3.39-1.13-.62-1.25-.11-2.77,1.14-3.38l4.61-2.21h0Zm-26.75,14.99c1.15-.78,2.73-.47,3.51,.68,.78,1.15,.47,2.73-.68,3.51l-4.11,2.82c-1.13,.81-2.71,.54-3.52-.6s-.55-2.72,.6-3.52l4.21-2.9h0Zm-24.07,18.99c1.02-.95,2.61-.88,3.57,.13,.95,1.02,.89,2.61-.12,3.56l-3.62,3.43c-.99,.97-2.59,.95-3.56-.04-.98-1-.96-2.59,.04-3.57l3.71-3.52h0Zm-20.81,22.5c.86-1.1,2.44-1.28,3.54-.42,1.1,.86,1.29,2.46,.42,3.56-1.03,1.29-2.02,2.6-3.02,3.93-.84,1.12-2.42,1.36-3.54,.54-1.12-.83-1.36-2.41-.54-3.53,1.06-1.35,2.06-2.73,3.13-4.07h0Zm-17.05,25.49c.68-1.22,2.22-1.65,3.43-.97,1.23,.67,1.65,2.21,.98,3.43-.82,1.44-1.59,2.91-2.38,4.37-.63,1.24-2.16,1.72-3.4,1.08-1.23-.64-1.72-2.17-1.08-3.4,.81-1.52,1.61-3.03,2.45-4.51h0Zm-12.83,27.85c.47-1.31,1.92-1.98,3.23-1.5,1.31,.47,1.98,1.93,1.51,3.24l-1.65,4.68c-.44,1.34-1.87,2.05-3.2,1.6-1.33-.43-2.04-1.86-1.59-3.19,.6-1.56,1.12-3.24,1.71-4.83h0Zm-8.28,29.54c.26-1.36,1.58-2.26,2.95-2.01,1.38,.27,2.27,1.59,2.01,2.96l-.89,4.9c-.22,1.37-1.53,2.31-2.9,2.09-1.37-.23-2.32-1.53-2.08-2.9l.92-5.03h0Zm-3.53,30.46c.05-1.39,1.22-2.49,2.6-2.44,1.39,.05,2.49,1.21,2.44,2.6l-.12,4.98c0,1.39-1.14,2.52-2.54,2.52-1.39,0-2.52-1.15-2.52-2.55,.02-1.7,.07-3.4,.12-5.11h0Zm1.25,30.62c-.16-1.38,.82-2.64,2.2-2.81,1.38-.16,2.64,.83,2.82,2.21,.18,1.64,.41,3.29,.64,4.94,.21,1.37-.75,2.65-2.12,2.86-1.38,.19-2.66-.76-2.86-2.13-.24-1.69-.49-3.38-.67-5.07h0Zm6.02,30.09c-.38-1.35,.38-2.74,1.72-3.13,1.34-.38,2.74,.38,3.12,1.72,.46,1.6,.93,3.19,1.43,4.78,.41,1.34-.32,2.76-1.64,3.17-1.33,.42-2.75-.32-3.17-1.64-.52-1.61-1-3.26-1.46-4.89h0Zm10.68,28.73c-.6-1.26-.04-2.77,1.21-3.35,1.27-.6,2.78-.06,3.36,1.21,.69,1.5,1.42,3.01,2.15,4.49,.63,1.24,.13,2.76-1.11,3.39-1.25,.62-2.77,.12-3.38-1.12-.79-1.48-1.53-3.08-2.23-4.61h0Zm15.09,26.69c-.78-1.15-.47-2.73,.68-3.51,1.15-.78,2.72-.47,3.51,.68,.91,1.37,1.86,2.75,2.83,4.08,.82,1.13,.56,2.71-.57,3.53-1.13,.82-2.71,.56-3.53-.57-.99-1.39-1.97-2.81-2.92-4.22h0Zm19.08,24.01c-.95-1.02-.9-2.61,.12-3.57,1.01-.95,2.61-.9,3.56,.12l3.45,3.6c.97,.99,.96,2.58-.02,3.56-1,.98-2.59,.97-3.57-.02-1.2-1.21-2.36-2.44-3.54-3.69h0Zm22.59,20.73c-1.1-.86-1.3-2.44-.45-3.54,.85-1.11,2.44-1.3,3.54-.45,1.31,1.03,2.62,2.04,3.97,3.02,1.11,.84,1.36,2.42,.54,3.54-.83,1.12-2.42,1.36-3.54,.54l-4.06-3.1h0Zm25.55,16.96c-1.22-.67-1.67-2.21-1-3.43,.67-1.22,2.21-1.67,3.43-1l4.4,2.37c1.23,.63,1.72,2.17,1.07,3.4-.63,1.23-2.17,1.71-3.4,1.08l-4.5-2.42h0Zm27.9,12.72c-1.32-.47-2-1.92-1.53-3.23,.47-1.32,1.92-2,3.23-1.52l4.71,1.63c1.33,.44,2.04,1.87,1.6,3.19-.44,1.33-1.86,2.05-3.19,1.6l-4.82-1.68h0Zm29.55,8.16c-1.37-.26-2.27-1.59-2.01-2.95,.26-1.36,1.59-2.27,2.96-2.01,1.61,.32,3.29,.56,4.89,.87,1.37,.22,2.32,1.52,2.09,2.9-.22,1.36-1.51,2.31-2.89,2.09l-5.04-.91h0Zm30.47,3.41c-1.38-.04-2.48-1.21-2.44-2.6,.04-1.39,1.21-2.48,2.6-2.44l4.99,.11c1.39,0,2.52,1.14,2.51,2.54,0,1.39-1.14,2.52-2.55,2.51l-5.11-.11h0Zm30.63-1.35c-1.37,.17-2.64-.81-2.82-2.19-.17-1.37,.81-2.65,2.18-2.81,1.65-.21,3.31-.42,4.94-.68,1.37-.2,2.67,.74,2.88,2.11,.21,1.37-.73,2.67-2.11,2.87-1.69,.26-3.37,.49-5.07,.7h0Zm30.05-6.14c-1.34,.39-2.74-.38-3.13-1.72-.38-1.34,.38-2.74,1.72-3.12,1.6-.46,3.19-.95,4.78-1.45,1.34-.41,2.75,.32,3.17,1.64,.42,1.34-.32,2.75-1.64,3.17-1.62,.52-3.25,1.02-4.89,1.48h0Zm28.7-10.8c-1.26,.6-2.77,.06-3.36-1.2s-.06-2.77,1.2-3.36c1.51-.71,3-1.43,4.49-2.18,1.25-.63,2.77-.12,3.39,1.11,.62,1.25,.12,2.77-1.11,3.4-1.52,.76-3.06,1.51-4.6,2.23h0Zm26.63-15.18c-1.15,.78-2.72,.48-3.51-.67-.78-1.14-.49-2.72,.66-3.5l4.08-2.86c1.13-.81,2.71-.56,3.53,.58,.82,1.12,.56,2.71-.58,3.53l-4.19,2.93h0Zm23.94-19.17c-1.02,.95-2.61,.91-3.57-.11-.95-1.02-.9-2.61,.11-3.57,1.21-1.13,2.38-2.33,3.59-3.44,.98-.99,2.58-.99,3.56,0,.99,.98,.99,2.58,0,3.56l-3.69,3.56h0Zm20.65-22.67c-.86,1.11-2.44,1.31-3.55,.45-1.11-.86-1.3-2.44-.45-3.55l3-3.97c.83-1.12,2.4-1.37,3.54-.55,1.12,.82,1.36,2.4,.55,3.52-1.01,1.38-2.06,2.74-3.08,4.09h0Zm16.85-25.63c-.65,1.22-2.19,1.68-3.42,1.02-1.22-.66-1.68-2.2-1.02-3.43l2.35-4.4c.63-1.24,2.16-1.73,3.4-1.1,1.24,.63,1.72,2.16,1.08,3.4l-2.4,4.51h0Zm12.62-27.93c-.47,1.31-1.92,1.99-3.23,1.52-1.32-.47-1.99-1.92-1.53-3.23l1.63-4.7c.42-1.33,1.84-2.05,3.17-1.62,1.33,.43,2.06,1.86,1.62,3.19l-1.67,4.84h0Zm8.05-29.6c-.25,1.37-1.57,2.28-2.94,2.03-1.36-.25-2.28-1.58-2.03-2.94l.87-4.91c.21-1.37,1.52-2.32,2.89-2.1,1.37,.22,2.32,1.52,2.09,2.89l-.88,5.03h0Zm3.3-30.48c-.04,1.39-1.19,2.49-2.59,2.46-1.38-.04-2.49-1.2-2.46-2.59l.09-4.98c0-1.39,1.13-2.53,2.53-2.53s2.53,1.13,2.53,2.53l-.09,5.11h0Zm-1.47-30.61c.17,1.37-.81,2.64-2.19,2.82-1.37,.17-2.65-.81-2.83-2.18-.15-1.57-.41-3.37-.69-4.92-.21-1.37,.72-2.68,2.1-2.89,1.37-.22,2.67,.72,2.88,2.09,.26,1.66,.55,3.42,.72,5.08h0Zm-6.25-30.04c.39,1.34-.37,2.74-1.7,3.14-1.34,.39-2.74-.37-3.14-1.7l-1.46-4.77c-.42-1.33,.3-2.76,1.62-3.18,1.33-.43,2.75,.29,3.18,1.61l1.5,4.89h0Zm-10.91-28.66c.61,1.26,.08,2.77-1.18,3.37-1.25,.61-2.77,.08-3.36-1.18l-2.2-4.48c-.63-1.23-.14-2.76,1.1-3.39,1.24-.63,2.77-.14,3.4,1.1,.77,1.51,1.52,3.05,2.25,4.58h0Zm-15.29-26.58c.8,1.14,.51,2.72-.63,3.52-1.14,.79-2.72,.5-3.52-.63l-2.87-4.08c-.82-1.12-.58-2.7,.56-3.53,1.12-.82,2.7-.58,3.52,.56l2.95,4.17h0Zm-19.25-23.85c.96,1,.92,2.6-.09,3.56s-2.6,.92-3.57-.09l-3.47-3.58c-.99-.98-.99-2.59,0-3.57,.99-.99,2.59-.99,3.56,0l3.57,3.67h0Zm-22.74-20.56c1.1,.85,1.32,2.43,.47,3.54s-2.43,1.32-3.55,.47l-3.99-3c-1.12-.82-1.37-2.39-.55-3.53,.82-1.12,2.4-1.37,3.53-.55l4.08,3.07h0Zm-25.67-16.76c1.22,.66,1.67,2.2,1.01,3.42-.66,1.23-2.2,1.67-3.42,1.02l-4.37-2.32c-1.27-.64-1.77-2.16-1.14-3.4,.63-1.25,2.15-1.75,3.39-1.12,1.48,.83,3.04,1.59,4.54,2.4h0Zm-28-12.51c1.32,.46,2.01,1.9,1.54,3.21-.46,1.32-1.9,2.01-3.21,1.55l-4.73-1.6c-1.33-.43-2.05-1.86-1.61-3.19,.42-1.32,1.84-2.05,3.17-1.61,1.62,.54,3.24,1.08,4.84,1.65h0Zm-29.63-7.95c1.38,.24,2.29,1.56,2.05,2.93-.24,1.37-1.56,2.29-2.93,2.05l-4.92-.85c-1.36-.21-2.32-1.5-2.1-2.87,.2-1.38,1.5-2.33,2.87-2.11,1.68,.26,3.36,.56,5.03,.86Z" style="fill:#d0d9ee; fill-rule:evenodd;"/><path d="M996.68,563.28c-1.33,0-2.4-1.08-2.4-2.41s1.08-2.4,2.4-2.4l4.88,.06c1.33,.03,2.37,1.14,2.34,2.47-.03,1.33-1.14,2.37-2.47,2.34l-4.76-.06h0Zm-21.53-3.57c1.32-.16,2.52,.77,2.68,2.09,.15,1.32-.79,2.52-2.1,2.68-1.58,.18-3.15,.38-4.72,.61-1.31,.19-2.54-.72-2.73-2.04-.19-1.31,.72-2.54,2.04-2.73,1.6-.23,3.22-.43,4.83-.61h0Zm-28.69,5.63c1.28-.36,2.6,.38,2.97,1.65,.37,1.29-.38,2.61-1.66,2.98l-4.55,1.35c-1.27,.38-2.62-.32-3.02-1.6-.39-1.27,.32-2.61,1.59-3.01,1.56-.49,3.11-.94,4.68-1.37h0Zm-27.45,10.09c1.2-.57,2.63-.05,3.2,1.16,.56,1.2,.04,2.63-1.16,3.2-1.44,.66-2.88,1.35-4.29,2.05-1.19,.59-2.64,.11-3.23-1.09-.59-1.19-.11-2.63,1.09-3.23l4.4-2.09h0Zm-25.51,14.29c1.11-.74,2.6-.45,3.34,.65,.74,1.1,.45,2.59-.65,3.33l-3.92,2.7c-1.09,.77-2.58,.52-3.35-.57-.77-1.09-.52-2.59,.57-3.36l4.02-2.76h0Zm-22.95,18.11c.97-.91,2.49-.85,3.4,.12,.9,.98,.85,2.5-.12,3.4l-3.45,3.28c-.95,.93-2.48,.91-3.4-.04-.93-.95-.91-2.48,.04-3.41l3.54-3.34h0Zm-19.85,21.46c.82-1.05,2.34-1.22,3.38-.39,1.04,.82,1.22,2.34,.4,3.38-.98,1.23-1.94,2.48-2.88,3.74-.8,1.09-2.31,1.32-3.38,.53-1.07-.8-1.3-2.31-.5-3.37,1-1.28,1.96-2.6,2.98-3.88h0Zm-16.26,24.3c.64-1.15,2.11-1.57,3.27-.92,1.16,.65,1.58,2.11,.93,3.28-.78,1.37-1.52,2.78-2.27,4.17-.61,1.18-2.07,1.64-3.25,1.03-1.18-.62-1.63-2.08-1.02-3.25,.76-1.44,1.53-2.88,2.34-4.3h0Zm-12.24,26.57c.45-1.25,1.84-1.89,3.08-1.43,1.25,.45,1.89,1.84,1.43,3.08l-1.58,4.47c-.42,1.27-1.79,1.95-3.05,1.53-1.26-.41-1.94-1.78-1.53-3.05,.58-1.48,1.08-3.08,1.63-4.6h0Zm-7.9,28.16c.25-1.3,1.51-2.15,2.82-1.9,1.31,.24,2.16,1.51,1.91,2.81l-.85,4.69c-.22,1.31-1.46,2.19-2.78,1.98-1.31-.22-2.2-1.46-1.98-2.77l.87-4.8h0Zm-3.36,29.06c.05-1.33,1.16-2.37,2.49-2.33,1.33,.04,2.37,1.16,2.33,2.49l-.12,4.75c0,1.33-1.09,2.4-2.41,2.39-1.34,0-2.4-1.1-2.4-2.42,.02-1.62,.07-3.26,.12-4.87h0Zm1.19,29.2c-.15-1.32,.79-2.52,2.1-2.68,1.32-.15,2.52,.79,2.68,2.1,.17,1.58,.39,3.14,.61,4.72,.19,1.31-.71,2.53-2.03,2.73-1.32,.19-2.54-.72-2.74-2.04-.23-1.6-.45-3.22-.63-4.83h0Zm5.75,28.68c-.38-1.27,.37-2.61,1.63-2.98,1.29-.38,2.61,.37,2.99,1.63,.43,1.53,.88,3.06,1.36,4.56,.39,1.27-.3,2.62-1.57,3.03-1.27,.39-2.62-.31-3.03-1.58-.5-1.54-.95-3.11-1.39-4.67h0Zm10.19,27.4c-.57-1.2-.05-2.63,1.16-3.2,1.2-.57,2.63-.05,3.2,1.16,.66,1.43,1.35,2.86,2.06,4.27,.6,1.19,.12,2.64-1.07,3.24-1.19,.6-2.63,.12-3.24-1.07-.74-1.41-1.45-2.95-2.11-4.4h0Zm14.38,25.46c-.75-1.1-.45-2.61,.64-3.35,1.11-.74,2.6-.44,3.34,.65,.88,1.31,1.78,2.62,2.7,3.89,.78,1.08,.54,2.59-.54,3.36-1.09,.78-2.59,.54-3.36-.54-.94-1.33-1.88-2.67-2.79-4.02h0Zm18.2,22.9c-.91-.97-.86-2.5,.11-3.4,.97-.91,2.49-.87,3.4,.11l3.29,3.43c.93,.94,.92,2.47-.02,3.4-.94,.93-2.47,.93-3.41-.02-1.13-1.16-2.25-2.34-3.36-3.52h0Zm21.54,19.76c-1.06-.81-1.24-2.33-.42-3.38,.81-1.05,2.33-1.23,3.37-.42,1.25,.98,2.51,1.94,3.79,2.88,1.07,.79,1.3,2.31,.51,3.37-.79,1.07-2.31,1.3-3.36,.51l-3.88-2.96h0Zm24.37,16.16c-1.16-.63-1.6-2.1-.95-3.27,.64-1.16,2.1-1.59,3.27-.94l4.2,2.25c1.17,.62,1.63,2.08,1.02,3.25-.62,1.18-2.07,1.64-3.25,1.03l-4.29-2.32h0Zm26.6,12.15c-1.25-.45-1.89-1.83-1.44-3.08,.44-1.25,1.83-1.9,3.07-1.45l4.5,1.57c1.26,.41,1.94,1.78,1.52,3.05-.41,1.26-1.78,1.94-3.04,1.53l-4.61-1.6h0Zm28.19,7.78c-1.31-.25-2.16-1.52-1.91-2.83,.24-1.3,1.51-2.15,2.82-1.9,1.54,.3,3.13,.53,4.67,.83,1.31,.21,2.2,1.45,2,2.77-.21,1.31-1.44,2.2-2.76,2l-4.81-.86h0Zm29.06,3.25c-1.33-.04-2.36-1.15-2.33-2.48,.04-1.33,1.15-2.37,2.48-2.33l4.76,.09c1.33,0,2.39,1.1,2.39,2.43,0,1.33-1.1,2.4-2.42,2.38l-4.88-.1h0Zm29.22-1.3c-1.32,.16-2.53-.77-2.69-2.08-.16-1.32,.77-2.53,2.09-2.69,1.57-.19,3.14-.4,4.71-.64,1.31-.2,2.54,.7,2.74,2.02,.2,1.31-.7,2.55-2.01,2.74-1.61,.25-3.22,.46-4.83,.66h0Zm28.64-5.85c-1.27,.38-2.61-.37-2.98-1.63-.38-1.28,.37-2.61,1.64-2.99,1.52-.43,3.04-.9,4.54-1.37,1.27-.4,2.62,.3,3.03,1.57,.39,1.27-.3,2.62-1.57,3.03-1.56,.48-3.1,.96-4.67,1.4h0Zm27.38-10.3c-1.2,.57-2.64,.06-3.21-1.15-.57-1.19-.06-2.63,1.14-3.2,1.44-.67,2.86-1.36,4.29-2.08,1.18-.61,2.63-.12,3.23,1.06,.61,1.19,.12,2.64-1.06,3.24-1.46,.73-2.92,1.44-4.39,2.13h0Zm25.41-14.48c-1.1,.75-2.6,.47-3.35-.63-.75-1.09-.46-2.59,.63-3.34l3.9-2.72c1.08-.79,2.58-.54,3.36,.54,.77,1.08,.53,2.58-.55,3.36l-4,2.8h0Zm22.82-18.29c-.97,.91-2.5,.88-3.4-.1-.91-.97-.86-2.5,.1-3.4,1.15-1.08,2.27-2.23,3.42-3.3,.94-.93,2.47-.93,3.4,0,.94,.94,.94,2.47,0,3.41l-3.52,3.38h0Zm19.69-21.61c-.82,1.05-2.33,1.24-3.37,.43-1.06-.82-1.25-2.33-.43-3.38l2.86-3.79c.78-1.08,2.29-1.31,3.36-.53,1.08,.78,1.31,2.3,.53,3.36-.96,1.32-1.96,2.6-2.95,3.9h0Zm16.08-24.43c-.62,1.16-2.09,1.59-3.26,.96-1.17-.63-1.61-2.09-.97-3.27l2.24-4.19c.61-1.18,2.07-1.65,3.24-1.05,1.19,.61,1.65,2.06,1.05,3.24l-2.3,4.3h0Zm12.03-26.64c-.44,1.25-1.83,1.89-3.08,1.44-1.25-.45-1.9-1.83-1.45-3.08l1.55-4.48c.4-1.26,1.77-1.95,3.04-1.55,1.26,.41,1.95,1.78,1.54,3.04l-1.59,4.63h0Zm7.69-28.24c-.24,1.31-1.5,2.17-2.81,1.93-1.31-.24-2.17-1.5-1.93-2.81l.82-4.68c.21-1.32,1.45-2.21,2.76-2,1.32,.2,2.21,1.44,2,2.76l-.84,4.79h0Zm3.14-29.07c-.03,1.33-1.14,2.37-2.47,2.34-1.33-.04-2.38-1.14-2.34-2.47l.08-4.76c0-1.33,1.08-2.4,2.4-2.4s2.41,1.08,2.41,2.4l-.08,4.88h0Zm-1.41-29.2c.17,1.32-.77,2.53-2.08,2.7-1.33,.15-2.54-.78-2.7-2.09-.14-1.48-.39-3.21-.66-4.69-.2-1.31,.69-2.56,2.01-2.76,1.31-.2,2.55,.69,2.76,2,.24,1.59,.52,3.26,.67,4.84h0Zm-5.96-28.64c.38,1.28-.35,2.61-1.62,3-1.28,.38-2.61-.35-2.99-1.61l-1.4-4.55c-.4-1.26,.29-2.62,1.56-3.04,1.26-.4,2.62,.29,3.03,1.55l1.43,4.66h0Zm-10.41-27.33c.57,1.19,.07,2.63-1.12,3.21-1.2,.58-2.64,.08-3.22-1.12l-2.09-4.28c-.61-1.18-.13-2.63,1.05-3.24,1.18-.61,2.63-.13,3.24,1.04,.74,1.45,1.45,2.91,2.15,4.38h0Zm-14.58-25.35c.75,1.09,.48,2.59-.62,3.34-1.09,.76-2.59,.49-3.34-.6l-2.75-3.89c-.78-1.08-.55-2.58,.53-3.36,1.08-.79,2.58-.55,3.36,.53l2.82,3.98h0Zm-18.37-22.75c.92,.96,.88,2.49-.08,3.4-.96,.92-2.49,.88-3.4-.08l-3.33-3.41c-.93-.94-.93-2.47,0-3.41,.94-.94,2.47-.94,3.41,0l3.39,3.5h0Zm-21.69-19.6c1.05,.81,1.26,2.32,.45,3.37-.81,1.06-2.33,1.26-3.38,.45l-3.8-2.86c-1.08-.78-1.31-2.29-.53-3.36,.78-1.08,2.29-1.31,3.36-.52l3.9,2.92h0Zm-24.49-15.98c1.17,.63,1.6,2.09,.97,3.26-.63,1.17-2.1,1.61-3.27,.97l-4.17-2.21c-1.21-.61-1.68-2.06-1.09-3.24,.6-1.19,2.05-1.67,3.24-1.07,1.41,.78,2.89,1.51,4.31,2.29h0Zm-26.69-11.94c1.25,.44,1.91,1.83,1.47,3.07-.44,1.25-1.82,1.91-3.08,1.47l-4.5-1.53c-1.27-.41-1.96-1.78-1.55-3.04,.4-1.27,1.77-1.96,3.04-1.55,1.54,.51,3.08,1.03,4.61,1.57h0Zm-28.26-7.57c1.31,.23,2.18,1.48,1.95,2.8-.23,1.31-1.49,2.18-2.8,1.95l-4.69-.81c-1.32-.19-2.22-1.43-2.01-2.74,.19-1.32,1.42-2.22,2.74-2.02,1.6,.25,3.2,.53,4.8,.82Z" style="fill:#d0d9ee; fill-rule:evenodd;"/><path d="M1436.34,775.35c-1.43,0-2.59-1.16-2.59-2.58s1.16-2.59,2.59-2.59l5.25,.06c1.43,.04,2.56,1.23,2.53,2.66-.04,1.43-1.23,2.56-2.66,2.53l-5.11-.07h0Zm-23.19-3.85c1.42-.17,2.72,.85,2.89,2.27,.17,1.42-.85,2.71-2.27,2.88-1.69,.19-3.38,.4-5.07,.65-1.41,.2-2.73-.78-2.93-2.19-.21-1.42,.77-2.73,2.18-2.94,1.73-.25,3.47-.47,5.2-.67h0Zm-30.86,6.06c1.38-.38,2.81,.41,3.19,1.79,.38,1.37-.41,2.82-1.79,3.2l-4.9,1.44c-1.36,.42-2.83-.34-3.25-1.7-.42-1.37,.35-2.83,1.7-3.25,1.68-.52,3.35-1.01,5.04-1.48h0Zm-29.56,10.86c1.3-.61,2.84-.05,3.45,1.25,.61,1.3,.05,2.84-1.25,3.45-1.55,.72-3.1,1.44-4.62,2.21-1.28,.63-2.84,.11-3.48-1.17-.63-1.29-.11-2.84,1.17-3.48l4.73-2.26h0Zm-27.45,15.38c1.19-.8,2.81-.49,3.6,.7,.8,1.18,.48,2.8-.7,3.59l-4.22,2.9c-1.17,.83-2.79,.55-3.61-.62-.83-1.16-.56-2.79,.62-3.61l4.31-2.97h0Zm-24.7,19.49c1.05-.98,2.69-.91,3.66,.13,.97,1.04,.91,2.68-.12,3.66l-3.72,3.52c-1.02,1-2.66,.98-3.66-.04-1.01-1.03-.98-2.66,.04-3.66l3.8-3.61h0Zm-21.36,23.1c.88-1.12,2.52-1.32,3.64-.43,1.12,.88,1.32,2.51,.43,3.64-1.06,1.33-2.08,2.67-3.1,4.03-.85,1.16-2.48,1.41-3.63,.56-1.15-.85-1.39-2.47-.55-3.62,1.09-1.38,2.11-2.81,3.21-4.17h0Zm-17.5,26.16c.69-1.25,2.28-1.7,3.53-1,1.25,.69,1.69,2.28,1,3.53-.85,1.48-1.64,2.99-2.44,4.49-.66,1.27-2.23,1.77-3.5,1.11-1.27-.66-1.76-2.23-1.11-3.5,.83-1.55,1.65-3.1,2.52-4.62h0Zm-13.17,28.59c.49-1.34,1.98-2.04,3.32-1.55,1.34,.49,2.03,1.98,1.55,3.33l-1.7,4.8c-.45,1.36-1.92,2.1-3.29,1.65-1.36-.45-2.09-1.92-1.64-3.28,.62-1.6,1.16-3.33,1.76-4.96h0Zm-8.49,30.32c.26-1.4,1.62-2.33,3.03-2.06,1.4,.26,2.33,1.62,2.06,3.03l-.91,5.03c-.23,1.42-1.57,2.37-2.98,2.14-1.41-.23-2.37-1.57-2.13-2.99l.94-5.15h0Zm-3.61,31.26c.04-1.43,1.24-2.56,2.67-2.51,1.42,.05,2.55,1.25,2.5,2.67l-.12,5.11c0,1.43-1.18,2.59-2.6,2.58-1.44,0-2.59-1.17-2.59-2.6,.02-1.75,.07-3.5,.13-5.25h0Zm1.28,31.43c-.17-1.42,.84-2.71,2.26-2.88,1.42-.17,2.72,.85,2.88,2.26,.19,1.69,.42,3.39,.67,5.07,.2,1.41-.78,2.73-2.19,2.94-1.41,.2-2.73-.78-2.94-2.19-.24-1.72-.49-3.47-.68-5.2h0Zm6.18,30.87c-.39-1.37,.39-2.82,1.76-3.22,1.38-.39,2.82,.39,3.21,1.77,.48,1.64,.96,3.28,1.47,4.9,.43,1.36-.33,2.82-1.68,3.26-1.36,.43-2.83-.32-3.26-1.68-.54-1.66-1.02-3.35-1.5-5.03h0Zm10.96,29.48c-.6-1.29-.04-2.83,1.25-3.44,1.31-.61,2.84-.05,3.45,1.25,.71,1.54,1.45,3.08,2.22,4.6,.63,1.27,.12,2.83-1.15,3.48-1.28,.64-2.84,.13-3.48-1.15-.8-1.52-1.56-3.17-2.29-4.74h0Zm15.49,27.39c-.81-1.18-.49-2.8,.69-3.59,1.19-.8,2.81-.48,3.6,.7,.94,1.41,1.91,2.82,2.9,4.19,.84,1.16,.57,2.79-.59,3.62-1.15,.84-2.78,.58-3.61-.59-1.02-1.43-2.03-2.87-3-4.33h0Zm19.58,24.65c-.98-1.04-.92-2.68,.12-3.66,1.04-.98,2.68-.92,3.66,.12l3.54,3.69c1.01,1.02,1,2.67-.02,3.67-1.02,1.01-2.66,1-3.66-.02-1.23-1.25-2.44-2.52-3.63-3.79h0Zm23.19,21.28c-1.13-.88-1.34-2.51-.46-3.64,.88-1.12,2.51-1.34,3.64-.45,1.34,1.05,2.69,2.09,4.06,3.09,1.15,.86,1.4,2.48,.55,3.63-.85,1.14-2.47,1.39-3.62,.54l-4.17-3.17h0Zm26.22,17.39c-1.25-.69-1.71-2.27-1.02-3.52,.69-1.25,2.27-1.71,3.52-1.02l4.52,2.42c1.26,.66,1.76,2.23,1.09,3.5-.66,1.27-2.23,1.77-3.5,1.1l-4.61-2.49h0Zm28.63,13.07c-1.35-.49-2.05-1.98-1.57-3.32,.49-1.35,1.97-2.04,3.32-1.56l4.83,1.68c1.35,.45,2.09,1.92,1.64,3.28-.44,1.36-1.92,2.09-3.28,1.65l-4.95-1.73h0Zm30.33,8.37c-1.4-.26-2.33-1.62-2.06-3.03,.27-1.4,1.62-2.33,3.04-2.06,1.65,.32,3.36,.57,5.02,.89,1.41,.22,2.38,1.56,2.15,2.97-.22,1.41-1.56,2.37-2.97,2.15l-5.18-.93h0Zm31.28,3.5c-1.43-.04-2.55-1.24-2.51-2.67,.05-1.42,1.25-2.55,2.67-2.5l5.11,.11c1.43,0,2.58,1.17,2.58,2.59,0,1.43-1.17,2.59-2.6,2.59l-5.25-.12h0Zm31.44-1.39c-1.41,.18-2.72-.83-2.89-2.25-.18-1.41,.83-2.71,2.24-2.89,1.7-.21,3.38-.43,5.06-.69,1.42-.21,2.75,.76,2.96,2.16,.21,1.42-.75,2.75-2.16,2.96-1.74,.27-3.47,.5-5.21,.71h0Zm30.83-6.29c-1.37,.39-2.82-.39-3.21-1.76-.4-1.38,.38-2.82,1.76-3.22,1.64-.47,3.28-.97,4.9-1.48,1.36-.43,2.83,.32,3.26,1.68,.42,1.36-.33,2.83-1.69,3.26-1.66,.53-3.33,1.04-5.02,1.52h0Zm29.46-11.09c-1.3,.61-2.84,.06-3.46-1.23-.61-1.3-.06-2.84,1.23-3.46,1.56-.72,3.08-1.46,4.61-2.24,1.27-.63,2.83-.12,3.48,1.15,.64,1.28,.13,2.83-1.14,3.48-1.57,.79-3.14,1.56-4.72,2.3h0Zm27.34-15.59c-1.18,.81-2.8,.51-3.6-.68-.81-1.17-.5-2.79,.68-3.59l4.19-2.93c1.16-.84,2.78-.58,3.62,.59,.83,1.15,.57,2.78-.6,3.61l-4.29,3.01h0Zm24.56-19.67c-1.05,.98-2.68,.93-3.66-.12-.99-1.04-.94-2.68,.11-3.66,1.24-1.16,2.44-2.39,3.68-3.55,1.01-1,2.65-1,3.66,0,1.01,1.02,1.01,2.66,0,3.67l-3.79,3.65h0Zm21.19-23.26c-.88,1.13-2.5,1.34-3.63,.46s-1.33-2.51-.46-3.64l3.08-4.06c.85-1.16,2.47-1.41,3.62-.57,1.15,.84,1.41,2.46,.57,3.61-1.04,1.42-2.11,2.81-3.17,4.2h0Zm17.3-26.3c-.68,1.25-2.26,1.72-3.51,1.04-1.26-.68-1.73-2.25-1.05-3.52l2.41-4.52c.64-1.27,2.21-1.77,3.49-1.12,1.27,.65,1.78,2.22,1.12,3.49l-2.47,4.63h0Zm12.94-28.67c-.48,1.35-1.97,2.05-3.32,1.56-1.34-.48-2.05-1.97-1.56-3.31l1.66-4.82c.44-1.36,1.9-2.1,3.27-1.66,1.35,.44,2.1,1.9,1.66,3.26l-1.72,4.98h0Zm8.26-30.37c-.25,1.4-1.61,2.33-3.02,2.07-1.4-.25-2.34-1.62-2.08-3.02l.88-5.04c.22-1.41,1.56-2.37,2.97-2.15,1.41,.22,2.37,1.56,2.15,2.96l-.91,5.18h0Zm3.38-31.29c-.03,1.43-1.22,2.57-2.65,2.53-1.43-.03-2.56-1.22-2.53-2.65l.09-5.12c0-1.42,1.16-2.58,2.59-2.58s2.58,1.16,2.58,2.58l-.09,5.25h0Zm-1.51-31.42c.18,1.42-.83,2.72-2.25,2.9-1.41,.18-2.72-.83-2.89-2.25-.16-1.59-.42-3.46-.71-5.04-.22-1.41,.74-2.75,2.15-2.97,1.41-.22,2.75,.74,2.97,2.15,.26,1.71,.56,3.51,.73,5.21h0Zm-6.42-30.82c.4,1.37-.37,2.83-1.74,3.23-1.38,.4-2.83-.37-3.23-1.74l-1.5-4.9c-.44-1.36,.31-2.82,1.66-3.26,1.35-.44,2.83,.3,3.27,1.66l1.54,5.01h0Zm-11.2-29.41c.62,1.3,.09,2.84-1.21,3.46-1.29,.62-2.83,.09-3.45-1.2l-2.27-4.6c-.64-1.27-.14-2.83,1.13-3.49,1.27-.64,2.83-.14,3.49,1.13,.8,1.55,1.56,3.12,2.31,4.7h0Zm-15.69-27.28c.82,1.17,.52,2.8-.65,3.61-1.17,.81-2.79,.52-3.6-.65l-2.95-4.19c-.85-1.15-.59-2.78,.57-3.61,1.16-.85,2.78-.6,3.62,.56l3.02,4.29h0Zm-19.75-24.48c.98,1.04,.94,2.68-.1,3.67-1.03,.98-2.67,.94-3.66-.1l-3.57-3.67c-1.01-1.01-1.01-2.65,0-3.66,1.01-1.01,2.65-1.01,3.67,0l3.65,3.76h0Zm-23.35-21.1c1.13,.87,1.36,2.5,.48,3.64-.86,1.13-2.5,1.34-3.63,.47l-4.09-3.07c-1.15-.85-1.4-2.47-.57-3.62,.85-1.15,2.47-1.4,3.62-.57l4.19,3.14h0Zm-26.35-17.19c1.26,.68,1.72,2.26,1.04,3.52-.68,1.25-2.26,1.72-3.52,1.03l-4.49-2.36c-1.3-.66-1.82-2.22-1.16-3.5,.64-1.28,2.2-1.79,3.48-1.14,1.52,.84,3.11,1.63,4.65,2.46h0Zm-28.73-12.85c1.34,.48,2.06,1.96,1.58,3.31-.47,1.34-1.96,2.06-3.3,1.58l-4.84-1.65c-1.36-.44-2.1-1.9-1.66-3.27,.44-1.35,1.9-2.1,3.27-1.66,1.66,.55,3.31,1.11,4.97,1.69h0Zm-30.41-8.15c1.4,.25,2.34,1.6,2.09,3-.25,1.41-1.59,2.35-3.01,2.1l-5.04-.87c-1.41-.21-2.38-1.54-2.17-2.95,.22-1.41,1.55-2.38,2.96-2.17,1.72,.27,3.45,.58,5.17,.88Z" style="fill:#d0d9ee; fill-rule:evenodd;"/><path d="M522.1,792.73c-1.32,0-2.38-1.06-2.38-2.37s1.07-2.37,2.38-2.37l4.81,.06c1.32,.03,2.35,1.12,2.33,2.43-.04,1.32-1.13,2.35-2.44,2.33l-4.7-.07h0Zm-21.28-3.54c1.31-.15,2.5,.78,2.65,2.08,.15,1.31-.77,2.5-2.08,2.65-1.56,.18-3.11,.37-4.66,.6-1.3,.19-2.51-.71-2.7-2.01-.19-1.3,.71-2.51,2.01-2.7,1.59-.23,3.18-.42,4.78-.61h0Zm-28.35,5.57c1.27-.36,2.58,.38,2.94,1.64,.36,1.26-.37,2.58-1.64,2.93l-4.5,1.33c-1.26,.38-2.59-.31-2.98-1.57-.39-1.26,.31-2.58,1.57-2.98,1.53-.47,3.07-.93,4.61-1.36h0Zm-27.12,9.97c1.18-.57,2.6-.05,3.16,1.14,.56,1.18,.05,2.6-1.14,3.16-1.42,.65-2.84,1.33-4.25,2.03-1.17,.58-2.61,.1-3.19-1.08-.59-1.17-.11-2.6,1.08-3.19l4.34-2.07h0Zm-25.2,14.12c1.09-.74,2.57-.45,3.3,.64,.74,1.09,.45,2.57-.63,3.3l-3.88,2.66c-1.07,.76-2.55,.51-3.31-.56-.77-1.08-.52-2.56,.56-3.32l3.97-2.72h0Zm-22.69,17.88c.96-.88,2.47-.84,3.36,.12,.89,.96,.85,2.47-.12,3.36l-3.41,3.23c-.94,.92-2.45,.89-3.36-.04-.92-.93-.9-2.44,.03-3.36l3.5-3.32h0Zm-19.6,21.21c.81-1.03,2.31-1.2,3.33-.39,1.04,.81,1.21,2.31,.4,3.34-.97,1.21-1.91,2.45-2.85,3.7-.79,1.07-2.28,1.29-3.33,.51-1.06-.78-1.28-2.27-.5-3.32,.99-1.27,1.94-2.58,2.95-3.83h0Zm-16.07,24.01c.63-1.14,2.09-1.56,3.23-.91,1.15,.63,1.56,2.08,.92,3.24-.77,1.35-1.5,2.74-2.24,4.11-.6,1.17-2.05,1.62-3.21,1.02s-1.62-2.05-1.01-3.21c.75-1.42,1.51-2.84,2.31-4.25h0Zm-12.1,26.24c.45-1.23,1.82-1.86,3.05-1.41,1.24,.44,1.87,1.82,1.42,3.05l-1.56,4.41c-.41,1.26-1.77,1.93-3.02,1.52-1.24-.41-1.91-1.77-1.5-3.01,.57-1.47,1.06-3.06,1.6-4.55h0Zm-7.79,27.83c.24-1.29,1.49-2.13,2.78-1.89,1.29,.25,2.13,1.5,1.89,2.79l-.85,4.62c-.21,1.3-1.44,2.18-2.73,1.96-1.31-.21-2.18-1.44-1.97-2.74l.87-4.74h0Zm-3.32,28.7c.04-1.31,1.14-2.34,2.45-2.31,1.32,.04,2.34,1.14,2.31,2.46l-.12,4.69c0,1.32-1.09,2.37-2.39,2.36-1.31,0-2.37-1.08-2.36-2.39,0-1.6,.06-3.21,.12-4.81h0Zm1.17,28.85c-.15-1.31,.77-2.49,2.08-2.65,1.31-.15,2.5,.78,2.65,2.08,.17,1.56,.38,3.11,.62,4.66,.19,1.3-.71,2.51-2.01,2.7-1.3,.18-2.51-.71-2.7-2.01-.23-1.59-.45-3.19-.63-4.78h0Zm5.68,28.34c-.37-1.26,.36-2.58,1.62-2.94,1.25-.37,2.58,.36,2.94,1.61,.43,1.51,.87,3.01,1.35,4.5,.39,1.26-.3,2.59-1.55,3-1.25,.38-2.59-.31-2.99-1.56-.49-1.52-.94-3.08-1.37-4.61h0Zm10.07,27.08c-.56-1.19-.05-2.61,1.14-3.17,1.19-.56,2.61-.04,3.17,1.15,.64,1.41,1.33,2.82,2.03,4.22,.59,1.18,.12,2.6-1.06,3.2-1.17,.59-2.6,.12-3.19-1.06-.74-1.39-1.43-2.91-2.09-4.34h0Zm14.21,25.14c-.73-1.08-.44-2.57,.64-3.3,1.09-.73,2.57-.44,3.3,.64,.87,1.29,1.76,2.59,2.67,3.84,.77,1.07,.52,2.56-.54,3.32-1.07,.77-2.56,.53-3.32-.54-.93-1.31-1.85-2.63-2.75-3.98h0Zm17.98,22.63c-.89-.95-.85-2.46,.11-3.35,.96-.9,2.46-.86,3.36,.1l3.25,3.4c.92,.92,.91,2.44-.02,3.36-.93,.92-2.44,.9-3.36-.02-1.13-1.15-2.23-2.31-3.33-3.49h0Zm21.28,19.53c-1.04-.81-1.23-2.3-.42-3.33s2.31-1.22,3.34-.42c1.23,.97,2.47,1.92,3.74,2.85,1.05,.77,1.28,2.27,.5,3.33-.78,1.06-2.28,1.28-3.32,.5l-3.83-2.92h0Zm24.08,15.97c-1.15-.63-1.58-2.08-.94-3.23,.63-1.14,2.08-1.57,3.23-.94l4.14,2.24c1.16,.61,1.62,2.05,1.01,3.2-.6,1.17-2.04,1.62-3.21,1.02l-4.23-2.29h0Zm26.28,11.99c-1.24-.44-1.87-1.81-1.43-3.04,.44-1.23,1.81-1.87,3.05-1.43l4.43,1.55c1.25,.41,1.92,1.76,1.51,3.01-.41,1.25-1.76,1.92-3.01,1.51l-4.54-1.59h0Zm27.84,7.69c-1.29-.24-2.13-1.49-1.88-2.78,.25-1.29,1.5-2.13,2.79-1.89,1.53,.3,3.09,.52,4.61,.83,1.29,.21,2.17,1.42,1.97,2.73-.2,1.29-1.42,2.17-2.72,1.98l-4.77-.87h0Zm28.72,3.22c-1.32-.05-2.34-1.14-2.31-2.45,.05-1.32,1.14-2.34,2.45-2.31l4.7,.1c1.32,0,2.37,1.08,2.36,2.39s-1.08,2.37-2.39,2.36l-4.81-.1h0Zm28.86-1.28c-1.31,.15-2.5-.77-2.66-2.07-.16-1.3,.76-2.49,2.06-2.66,1.56-.19,3.11-.39,4.65-.63,1.3-.19,2.52,.69,2.72,1.99,.19,1.3-.7,2.52-1.99,2.72-1.6,.24-3.19,.45-4.78,.65h0Zm28.3-5.79c-1.26,.37-2.58-.37-2.94-1.62-.37-1.26,.36-2.58,1.61-2.95,1.51-.42,3.01-.88,4.5-1.36,1.25-.39,2.59,.3,2.99,1.55,.39,1.25-.3,2.59-1.55,2.99-1.54,.48-3.07,.95-4.61,1.39h0Zm27.04-10.18c-1.18,.57-2.6,.06-3.16-1.13-.57-1.18-.06-2.6,1.13-3.16,1.41-.66,2.82-1.34,4.22-2.06,1.17-.59,2.61-.12,3.2,1.06,.6,1.17,.12,2.6-1.05,3.19-1.43,.73-2.88,1.43-4.34,2.1h0Zm25.11-14.3c-1.09,.73-2.57,.46-3.31-.62-.74-1.09-.47-2.57,.62-3.3l3.84-2.69c1.07-.77,2.56-.53,3.32,.54,.77,1.06,.52,2.55-.54,3.31l-3.95,2.77h0Zm22.54-18.06c-.95,.9-2.47,.86-3.36-.1-.89-.96-.86-2.47,.11-3.36,1.13-1.07,2.24-2.2,3.37-3.25,.93-.93,2.43-.93,3.36,0,.93,.92,.93,2.43,0,3.36l-3.48,3.34h0Zm19.46-21.35c-.81,1.04-2.31,1.22-3.34,.42-1.04-.81-1.22-2.31-.42-3.34l2.83-3.74c.78-1.06,2.27-1.29,3.32-.52,1.07,.78,1.3,2.26,.52,3.33-.94,1.3-1.93,2.57-2.9,3.85h0Zm15.88-24.15c-.62,1.15-2.08,1.58-3.23,.95-1.15-.62-1.58-2.07-.95-3.22l2.21-4.15c.6-1.16,2.04-1.62,3.2-1.03,1.17,.6,1.63,2.03,1.03,3.2l-2.26,4.25h0Zm11.89-26.32c-.44,1.24-1.82,1.88-3.05,1.43-1.24-.44-1.87-1.81-1.43-3.05l1.53-4.42c.4-1.25,1.75-1.93,3-1.53,1.25,.4,1.93,1.75,1.53,2.99l-1.58,4.57h0Zm7.58-27.88c-.24,1.29-1.48,2.14-2.77,1.9s-2.14-1.48-1.91-2.77l.82-4.63c.2-1.3,1.42-2.18,2.72-1.98,1.3,.21,2.18,1.43,1.98,2.73l-.84,4.75h0Zm3.1-28.73c-.03,1.32-1.11,2.35-2.44,2.33-1.31-.04-2.34-1.13-2.31-2.44l.08-4.7c0-1.32,1.06-2.37,2.37-2.37s2.37,1.06,2.37,2.37l-.08,4.81h0Zm-1.38-28.84c.16,1.31-.76,2.5-2.06,2.66-1.31,.16-2.5-.76-2.66-2.06-.15-1.47-.39-3.18-.65-4.64-.2-1.3,.68-2.52,1.97-2.72,1.31-.2,2.53,.68,2.73,1.97,.24,1.57,.52,3.23,.67,4.79h0Zm-5.89-28.29c.37,1.25-.35,2.58-1.6,2.96-1.26,.37-2.58-.35-2.96-1.6l-1.37-4.5c-.4-1.24,.28-2.58,1.53-2.99,1.25-.4,2.59,.27,3,1.52l1.41,4.61h0Zm-10.29-27.01c.58,1.18,.08,2.6-1.1,3.18-1.18,.57-2.6,.07-3.18-1.11l-2.07-4.22c-.6-1.16-.13-2.6,1.04-3.2,1.16-.6,2.6-.13,3.2,1.04,.73,1.42,1.43,2.86,2.11,4.31h0Zm-14.39-25.04c.75,1.08,.48,2.57-.61,3.32-1.08,.74-2.57,.47-3.31-.61l-2.71-3.84c-.78-1.06-.54-2.55,.52-3.33,1.07-.77,2.55-.54,3.32,.53l2.78,3.93h0Zm-18.14-22.47c.9,.94,.86,2.46-.09,3.36-.95,.9-2.46,.87-3.36-.08l-3.28-3.38c-.92-.92-.92-2.43,0-3.36,.93-.92,2.44-.92,3.36,0l3.36,3.46h0Zm-21.44-19.37c1.05,.8,1.24,2.29,.45,3.33-.81,1.04-2.3,1.24-3.34,.44l-3.76-2.82c-1.07-.78-1.3-2.27-.52-3.32,.77-1.07,2.26-1.3,3.31-.53l3.85,2.89h0Zm-24.19-15.79c1.15,.62,1.58,2.08,.95,3.23-.62,1.14-2.08,1.58-3.23,.95l-4.12-2.18c-1.19-.61-1.66-2.04-1.07-3.21,.59-1.17,2.03-1.64,3.19-1.05,1.39,.77,2.86,1.5,4.28,2.26h0Zm-26.39-11.79c1.24,.43,1.89,1.8,1.46,3.04-.44,1.23-1.8,1.88-3.04,1.45l-4.45-1.52c-1.25-.4-1.93-1.75-1.53-3,.4-1.25,1.75-1.93,3-1.53,1.52,.5,3.05,1.02,4.55,1.56h0Zm-27.91-7.49c1.3,.23,2.15,1.47,1.93,2.76-.23,1.3-1.47,2.15-2.77,1.93l-4.63-.8c-1.3-.19-2.19-1.41-1.99-2.71,.2-1.3,1.41-2.19,2.71-1.99,1.59,.24,3.17,.53,4.75,.81Z" style="fill:#d0d9ee; fill-rule:evenodd;"/><path d="M1092.81,276.25c-1.24,0-2.26-1-2.26-2.25s1.02-2.25,2.26-2.25c1.57,0,3.08,.06,4.66,.16,1.23,.09,2.17,1.16,2.09,2.4-.09,1.24-1.16,2.18-2.4,2.1-1.47-.11-2.88-.15-4.35-.17h0Zm-18.08-1.81c1.19-.37,2.45,.29,2.83,1.48,.37,1.19-.3,2.45-1.49,2.82-1.37,.4-2.75,.89-4.09,1.42-1.15,.45-2.47-.12-2.92-1.27-.46-1.15,.12-2.47,1.27-2.92,1.43-.57,2.93-1.1,4.41-1.54h0Zm-24.07,13.94c.9-.86,2.33-.81,3.19,.1,.85,.91,.81,2.33-.1,3.18-1.08,1-2.06,2.02-3.06,3.07-.84,.92-2.27,.99-3.18,.15-.92-.84-.99-2.27-.15-3.18,1.07-1.14,2.15-2.26,3.3-3.32h0Zm-15.53,23.08c.44-1.16,1.75-1.75,2.91-1.31,1.16,.44,1.74,1.75,1.3,2.91-.5,1.35-.98,2.71-1.38,4.09-.35,1.19-1.59,1.88-2.8,1.54-1.19-.36-1.87-1.6-1.53-2.8,.46-1.51,.94-2.96,1.5-4.44h0Zm-3.79,27.57c-.12-1.24,.8-2.33,2.04-2.45,1.24-.12,2.33,.8,2.45,2.03,.12,1.37,.28,2.97,.55,4.3,.21,1.22-.62,2.39-1.84,2.59-1.22,.21-2.39-.62-2.59-1.84-.27-1.49-.46-3.12-.6-4.64h0Zm8.69,26.43c-.65-1.07-.32-2.45,.75-3.1,1.06-.64,2.45-.31,3.09,.75,.75,1.23,1.55,2.46,2.39,3.62,.72,1.01,.49,2.41-.52,3.14-1.01,.73-2.42,.5-3.14-.52-.9-1.27-1.76-2.56-2.57-3.89h0Zm19.41,19.92c-1.05-.67-1.35-2.07-.68-3.11,.67-1.05,2.07-1.35,3.11-.67,1.24,.81,2.47,1.46,3.73,2.2,1.1,.59,1.51,1.96,.91,3.06-.59,1.1-1.95,1.51-3.05,.91-1.36-.71-2.75-1.55-4.03-2.38h0Zm26.19,9.39c-1.23-.14-2.12-1.26-1.98-2.5,.13-1.24,1.26-2.12,2.5-1.99,1.43,.18,2.87,.28,4.31,.35,1.24,.04,2.21,1.1,2.16,2.34-.04,1.24-1.1,2.21-2.33,2.16-1.55-.06-3.12-.17-4.66-.36h0Zm27.64-3.07c-1.17,.4-2.46-.21-2.87-1.38-.4-1.17,.21-2.46,1.38-2.87,1.33-.41,2.75-1.04,4.02-1.59,1.14-.51,2.48,0,2.98,1.14,.51,1.13,0,2.47-1.14,2.97-1.35,.6-2.96,1.29-4.36,1.73h0Zm23.49-14.93c-.86,.89-2.3,.91-3.18,.04-.89-.86-.91-2.3-.04-3.18,1.03-1.05,1.98-2.1,2.93-3.21,.81-.95,2.23-1.07,3.17-.26,.95,.8,1.08,2.22,.27,3.17-1.02,1.18-2.06,2.34-3.15,3.44h0Zm14.58-23.7c-.39,1.18-1.66,1.83-2.85,1.43-1.17-.39-1.82-1.66-1.42-2.85,.45-1.36,.87-2.76,1.21-4.16,.31-1.2,1.54-1.94,2.75-1.63,1.2,.3,1.93,1.53,1.63,2.74-.39,1.51-.83,3-1.32,4.48h0Zm2.66-27.69c.15,1.23-.71,2.37-1.94,2.54-1.23,.15-2.36-.71-2.53-1.94-.19-1.44-.43-2.84-.73-4.27-.26-1.22,.53-2.42,1.74-2.67,1.21-.26,2.41,.52,2.67,1.73,.34,1.52,.58,3.07,.79,4.61h0Zm-9.76-26.06c.68,1.04,.4,2.44-.63,3.13-1.03,.69-2.43,.41-3.11-.62-.8-1.2-1.65-2.37-2.54-3.51-.77-.98-.6-2.4,.38-3.17,.98-.77,2.39-.6,3.17,.38,.95,1.22,1.88,2.51,2.74,3.8h0Zm-20.22-19.11c1.08,.62,1.44,2.01,.81,3.08-.62,1.07-2.01,1.43-3.08,.81-1.25-.74-2.53-1.42-3.82-2.06-1.11-.56-1.58-1.9-1.04-3.02,.56-1.11,1.9-1.58,3.02-1.04,1.4,.71,2.77,1.42,4.11,2.22Z" style="fill:#d0d9ee; fill-rule:evenodd;"/><path d="M369.53,631.04c-1.25,0-2.26-1.01-2.26-2.25s1.01-2.26,2.26-2.26c1.57,0,3.08,.07,4.65,.17,1.24,.09,2.18,1.16,2.09,2.4-.09,1.24-1.16,2.18-2.4,2.09-1.47-.1-2.87-.15-4.34-.16h0Zm-18.08-1.81c1.18-.38,2.45,.29,2.83,1.48,.37,1.19-.3,2.45-1.49,2.82-1.37,.41-2.75,.9-4.09,1.43-1.15,.45-2.47-.12-2.92-1.27-.46-1.15,.11-2.47,1.27-2.93,1.43-.57,2.93-1.1,4.41-1.53h0Zm-24.07,13.93c.9-.85,2.33-.81,3.19,.11,.85,.9,.81,2.33-.11,3.18-1.07,1-2.06,2.02-3.05,3.07-.84,.92-2.27,.99-3.19,.15-.91-.84-.98-2.27-.14-3.19,1.07-1.13,2.15-2.25,3.3-3.32h0Zm-15.53,23.08c.44-1.15,1.75-1.74,2.9-1.3,1.17,.44,1.75,1.74,1.31,2.91-.5,1.35-.98,2.71-1.38,4.09-.35,1.19-1.6,1.87-2.8,1.54-1.19-.36-1.87-1.6-1.53-2.81,.46-1.51,.94-2.95,1.5-4.44h0Zm-3.79,27.58c-.12-1.24,.79-2.34,2.04-2.46,1.23-.12,2.33,.8,2.45,2.04,.12,1.36,.28,2.96,.55,4.3,.21,1.22-.61,2.38-1.84,2.59-1.23,.21-2.39-.62-2.59-1.84-.28-1.49-.47-3.13-.6-4.64h0Zm8.69,26.43c-.65-1.07-.32-2.46,.75-3.1,1.06-.65,2.45-.31,3.09,.75,.75,1.23,1.54,2.46,2.38,3.62,.73,1.01,.5,2.41-.51,3.14s-2.42,.5-3.14-.52c-.91-1.27-1.77-2.56-2.58-3.89h0Zm19.41,19.92c-1.05-.67-1.35-2.07-.68-3.11,.67-1.05,2.07-1.35,3.11-.68,1.24,.82,2.47,1.47,3.72,2.21,1.1,.59,1.52,1.95,.92,3.06-.59,1.1-1.95,1.51-3.05,.91-1.35-.71-2.75-1.55-4.03-2.38h0Zm26.19,9.38c-1.24-.13-2.12-1.26-1.98-2.49,.13-1.24,1.26-2.12,2.49-1.99,1.43,.17,2.88,.28,4.32,.35,1.24,.04,2.21,1.1,2.16,2.33-.04,1.24-1.1,2.21-2.33,2.16-1.55-.06-3.12-.17-4.66-.37h0Zm27.64-3.06c-1.17,.4-2.46-.21-2.87-1.38-.4-1.17,.21-2.46,1.38-2.87,1.32-.41,2.75-1.04,4.02-1.59,1.14-.51,2.48,0,2.98,1.14,.5,1.13,0,2.47-1.14,2.97-1.35,.6-2.96,1.29-4.36,1.73h0Zm23.49-14.93c-.86,.88-2.3,.9-3.19,.04-.88-.86-.9-2.3-.03-3.19,1.03-1.04,1.98-2.09,2.93-3.2,.8-.95,2.23-1.07,3.17-.26,.95,.8,1.07,2.22,.27,3.17-1.02,1.18-2.06,2.33-3.15,3.44h0Zm14.57-23.7c-.38,1.17-1.66,1.82-2.84,1.43-1.17-.39-1.82-1.66-1.43-2.85,.46-1.36,.87-2.76,1.22-4.16,.31-1.21,1.54-1.94,2.74-1.64,1.2,.31,1.94,1.54,1.63,2.75-.38,1.51-.82,3-1.32,4.48h0Zm2.66-27.69c.16,1.23-.7,2.36-1.93,2.53-1.23,.16-2.37-.7-2.54-1.93-.19-1.44-.42-2.85-.72-4.28-.26-1.22,.52-2.41,1.74-2.67,1.22-.25,2.41,.53,2.67,1.74,.33,1.52,.58,3.08,.78,4.61h0Zm-9.76-26.06c.69,1.04,.41,2.44-.62,3.13-1.03,.69-2.43,.4-3.12-.62-.79-1.2-1.64-2.37-2.53-3.52-.77-.97-.61-2.39,.37-3.16,.97-.77,2.39-.6,3.16,.38,.96,1.22,1.89,2.51,2.74,3.79h0Zm-20.21-19.11c1.08,.62,1.43,2.01,.81,3.08-.62,1.07-2.01,1.43-3.07,.81-1.26-.74-2.53-1.42-3.82-2.07-1.12-.55-1.59-1.89-1.04-3.01,.55-1.12,1.9-1.59,3.02-1.04,1.4,.71,2.76,1.42,4.11,2.22Z" style="fill:#d0d9ee; fill-rule:evenodd;"/><path d="M939.22,1038.39c-1.24,0-2.25-1.01-2.25-2.25s1.01-2.26,2.25-2.26c1.58,0,3.09,.07,4.66,.17,1.24,.09,2.18,1.16,2.09,2.4-.09,1.24-1.16,2.18-2.4,2.09-1.47-.1-2.87-.15-4.35-.16h0Zm-18.07-1.82c1.18-.37,2.45,.3,2.82,1.49,.38,1.19-.29,2.45-1.48,2.82-1.37,.41-2.76,.9-4.09,1.43-1.16,.45-2.47-.12-2.92-1.27-.46-1.16,.11-2.48,1.27-2.93,1.43-.57,2.93-1.1,4.41-1.54h0Zm-24.07,13.94c.9-.84,2.34-.81,3.18,.11,.86,.9,.81,2.33-.1,3.18-1.07,.99-2.06,2.02-3.05,3.07-.84,.92-2.27,.98-3.19,.15-.91-.84-.98-2.27-.15-3.19,1.08-1.14,2.15-2.26,3.31-3.33h0Zm-15.53,23.08c.43-1.16,1.74-1.74,2.9-1.3,1.16,.43,1.75,1.74,1.31,2.91-.51,1.34-.98,2.71-1.38,4.09-.35,1.19-1.6,1.87-2.8,1.53-1.2-.35-1.88-1.6-1.54-2.8,.47-1.51,.95-2.95,1.51-4.44h0Zm-3.79,27.58c-.12-1.24,.79-2.34,2.03-2.46,1.24-.12,2.34,.8,2.45,2.04,.12,1.36,.29,2.96,.56,4.3,.2,1.22-.62,2.38-1.85,2.59-1.23,.21-2.39-.62-2.6-1.84-.27-1.5-.46-3.13-.59-4.64h0Zm8.69,26.43c-.65-1.07-.32-2.46,.74-3.1,1.07-.65,2.45-.31,3.1,.75,.74,1.23,1.54,2.46,2.38,3.61,.73,1.01,.5,2.42-.51,3.15-1.01,.72-2.42,.5-3.14-.52-.91-1.27-1.77-2.56-2.58-3.89h0Zm19.41,19.92c-1.06-.67-1.35-2.07-.69-3.11,.67-1.05,2.08-1.35,3.12-.68,1.23,.81,2.47,1.47,3.72,2.21,1.1,.59,1.51,1.95,.92,3.05-.59,1.1-1.95,1.51-3.06,.92-1.35-.71-2.74-1.55-4.02-2.38h0Zm26.19,9.38c-1.24-.13-2.12-1.26-1.99-2.5,.14-1.23,1.26-2.11,2.5-1.98,1.43,.17,2.88,.28,4.32,.35,1.24,.04,2.2,1.09,2.16,2.33-.05,1.24-1.1,2.21-2.33,2.16-1.55-.06-3.12-.17-4.66-.37h0Zm27.64-3.07c-1.17,.41-2.47-.2-2.87-1.37-.41-1.17,.21-2.47,1.38-2.87,1.32-.41,2.74-1.05,4.02-1.58,1.13-.51,2.47,0,2.98,1.14,.5,1.13,0,2.47-1.14,2.97-1.35,.6-2.96,1.29-4.36,1.72h0Zm23.49-14.92c-.87,.88-2.31,.9-3.19,.04-.88-.87-.9-2.3-.04-3.19,1.03-1.04,1.98-2.09,2.94-3.2,.8-.95,2.23-1.07,3.17-.27,.95,.81,1.07,2.23,.27,3.18-1.02,1.18-2.06,2.33-3.15,3.44h0Zm14.57-23.7c-.38,1.17-1.66,1.82-2.84,1.42-1.18-.38-1.82-1.66-1.43-2.84,.46-1.36,.87-2.76,1.22-4.17,.31-1.2,1.54-1.93,2.74-1.63,1.2,.31,1.94,1.54,1.63,2.75-.38,1.51-.82,3-1.32,4.48h0Zm2.66-27.69c.16,1.23-.7,2.36-1.93,2.53-1.24,.16-2.37-.7-2.54-1.93-.19-1.44-.43-2.85-.72-4.28-.26-1.22,.52-2.41,1.74-2.67,1.21-.26,2.41,.53,2.67,1.74,.33,1.52,.58,3.07,.78,4.61h0Zm-9.76-26.06c.69,1.04,.41,2.44-.62,3.13-1.03,.68-2.43,.4-3.12-.63-.79-1.19-1.65-2.36-2.53-3.51-.77-.97-.61-2.39,.37-3.16,.97-.77,2.39-.61,3.16,.38,.95,1.22,1.89,2.51,2.74,3.79h0Zm-20.21-19.11c1.08,.62,1.43,2.01,.81,3.08-.62,1.07-2.01,1.43-3.08,.8-1.25-.73-2.53-1.41-3.82-2.06-1.11-.55-1.58-1.89-1.03-3.01,.55-1.12,1.9-1.59,3.02-1.04,1.4,.71,2.76,1.42,4.11,2.22Z" style="fill:#d0d9ee; fill-rule:evenodd;"/><path d="M1736.21,631.04c-1.25,0-2.26-1.01-2.26-2.25s1.01-2.26,2.26-2.26c1.57,0,3.09,.07,4.65,.17,1.24,.09,2.18,1.16,2.09,2.4-.09,1.24-1.16,2.18-2.4,2.09-1.47-.1-2.87-.15-4.34-.16h0Zm-18.08-1.81c1.19-.38,2.45,.29,2.83,1.48,.37,1.19-.3,2.45-1.49,2.82-1.37,.41-2.76,.9-4.09,1.43-1.15,.45-2.47-.12-2.92-1.27-.46-1.15,.11-2.47,1.27-2.93,1.43-.57,2.93-1.1,4.41-1.53h0Zm-24.07,13.93c.9-.85,2.33-.81,3.19,.11,.85,.9,.81,2.33-.11,3.18-1.07,1-2.05,2.02-3.05,3.07-.84,.92-2.27,.99-3.19,.15-.91-.84-.98-2.27-.14-3.19,1.07-1.13,2.15-2.25,3.3-3.32h0Zm-15.53,23.08c.44-1.15,1.75-1.74,2.9-1.3,1.17,.44,1.75,1.74,1.31,2.91-.5,1.35-.98,2.71-1.38,4.09-.35,1.19-1.6,1.87-2.8,1.54-1.19-.36-1.87-1.6-1.53-2.81,.46-1.51,.94-2.95,1.5-4.44h0Zm-3.79,27.58c-.12-1.24,.79-2.34,2.04-2.46,1.24-.12,2.34,.8,2.45,2.04,.12,1.36,.28,2.96,.55,4.3,.21,1.22-.61,2.38-1.84,2.59-1.23,.21-2.39-.62-2.6-1.84-.27-1.49-.46-3.13-.59-4.64h0Zm8.69,26.43c-.65-1.07-.32-2.46,.75-3.1,1.06-.65,2.44-.31,3.09,.75,.75,1.23,1.54,2.46,2.38,3.62,.73,1.01,.5,2.41-.51,3.14-1.01,.73-2.42,.5-3.14-.52-.9-1.27-1.77-2.56-2.58-3.89h0Zm19.41,19.92c-1.06-.67-1.36-2.07-.68-3.11,.67-1.05,2.07-1.35,3.11-.68,1.24,.82,2.47,1.47,3.73,2.21,1.09,.59,1.5,1.95,.91,3.06-.59,1.1-1.95,1.51-3.05,.91-1.35-.71-2.75-1.55-4.03-2.38h0Zm26.19,9.38c-1.24-.13-2.12-1.26-1.98-2.49,.13-1.24,1.26-2.12,2.49-1.99,1.43,.17,2.88,.28,4.32,.35,1.24,.04,2.21,1.1,2.16,2.33-.04,1.24-1.1,2.21-2.34,2.16-1.55-.06-3.12-.17-4.66-.37h0Zm27.64-3.06c-1.17,.4-2.46-.21-2.87-1.38-.4-1.17,.21-2.46,1.38-2.87,1.33-.41,2.74-1.04,4.02-1.59,1.14-.51,2.48,0,2.98,1.14,.5,1.13,0,2.47-1.14,2.97-1.35,.6-2.96,1.29-4.36,1.73h0Zm23.49-14.93c-.86,.88-2.3,.9-3.19,.04-.88-.86-.9-2.3-.03-3.19,1.03-1.04,1.98-2.09,2.93-3.2,.81-.95,2.23-1.07,3.17-.26,.95,.8,1.07,2.22,.27,3.17-1.02,1.18-2.06,2.33-3.15,3.44h0Zm14.58-23.7c-.39,1.17-1.66,1.82-2.85,1.43-1.17-.39-1.82-1.66-1.42-2.85,.45-1.36,.86-2.76,1.21-4.16,.31-1.21,1.54-1.94,2.74-1.64,1.21,.31,1.94,1.54,1.63,2.75-.38,1.51-.82,3-1.31,4.48h0Zm2.65-27.69c.16,1.23-.7,2.36-1.93,2.53-1.23,.16-2.36-.7-2.54-1.93-.19-1.44-.42-2.85-.72-4.28-.26-1.22,.52-2.41,1.74-2.67,1.21-.25,2.41,.53,2.67,1.74,.33,1.52,.58,3.08,.78,4.61h0Zm-9.76-26.06c.69,1.04,.41,2.44-.62,3.13-1.03,.69-2.43,.4-3.12-.62-.79-1.2-1.65-2.37-2.53-3.52-.77-.97-.61-2.39,.38-3.16,.98-.77,2.39-.6,3.16,.38,.96,1.22,1.89,2.51,2.74,3.79h0Zm-20.21-19.11c1.08,.62,1.43,2.01,.81,3.08-.62,1.07-2.01,1.43-3.09,.81-1.24-.74-2.52-1.42-3.82-2.07-1.1-.55-1.58-1.89-1.03-3.01,.55-1.12,1.9-1.59,3.02-1.04,1.4,.71,2.76,1.42,4.11,2.22Z" style="fill:#d0d9ee; fill-rule:evenodd;"/><path d="M436.54,959.23l-10.06-25.24c-10.96-.37-21.95-2.49-32.52-6.45l-18.93,19.49-15.46-10.3-15.46-10.32,10.75-24.96c-7.72-8.23-13.9-17.55-18.44-27.55l-27.16,.4-3.64-18.22-3.63-18.22,25.24-10.06c.36-10.96,2.49-21.94,6.44-32.52l-19.49-18.93,10.31-15.45,10.3-15.45,24.97,10.73c8.23-7.72,17.56-13.89,27.55-18.44l-.4-27.16,18.22-3.64,18.22-3.63,10.06,25.24c10.96,.36,21.94,2.49,32.51,6.45l18.94-19.5,15.46,10.31,15.45,10.31-10.74,24.96c7.73,8.24,13.89,17.56,18.44,27.55l27.16-.4,3.64,18.22,3.63,18.23-25.24,10.05c-.36,10.96-2.49,21.95-6.46,32.53l19.51,18.92-10.3,15.46-10.32,15.45-24.96-10.74c-8.24,7.73-17.56,13.9-27.55,18.44l.39,27.16-18.22,3.64-18.21,3.64h0Zm-6.53-197.67c-22.51,0-44.61,10.9-58.04,31.03-21.38,32.02-12.73,75.29,19.28,96.66,11.89,7.93,25.33,11.72,38.62,11.72,22.52,0,44.61-10.89,58.05-31.02,21.37-32.03,12.73-75.3-19.29-96.66-11.89-7.94-25.33-11.73-38.62-11.73Z" style="fill:#fff; fill-rule:evenodd;"/><path d="M634.5,1089.97l-7.31-18.35c-7.98-.26-15.96-1.82-23.65-4.69l-13.77,14.17-11.23-7.5-11.24-7.49,7.81-18.16c-5.61-5.99-10.11-12.77-13.4-20.02l-19.76,.29-2.64-13.25-2.65-13.25,18.36-7.31c.26-7.98,1.81-15.96,4.68-23.65l-14.17-13.76,7.49-11.24,7.5-11.24,18.15,7.81c5.99-5.61,12.77-10.1,20.03-13.4l-.3-19.75,13.25-2.64,13.25-2.64,7.31,18.35c7.98,.26,15.96,1.81,23.65,4.69l13.77-14.18,11.23,7.5,11.23,7.5-7.8,18.15c5.61,6,10.11,12.77,13.4,20.03l19.76-.29,2.64,13.24,2.65,13.25-18.35,7.31c-.27,7.97-1.82,15.96-4.7,23.65l14.18,13.77-7.49,11.23-7.5,11.24-18.15-7.81c-6,5.61-12.77,10.11-20.03,13.4l.29,19.76-13.24,2.64-13.25,2.64h0Zm-4.75-143.74c-16.37,0-32.45,7.92-42.21,22.56-15.54,23.28-9.25,54.75,14.03,70.29,8.65,5.77,18.42,8.53,28.09,8.53,16.37,0,32.44-7.92,42.21-22.56,15.53-23.28,9.25-54.76-14.03-70.29-8.65-5.77-18.42-8.53-28.09-8.53Z" style="fill:#fff; fill-rule:evenodd;"/><path d="M1248.33,1091.63l-7.32-18.36c-7.98-.26-15.95-1.81-23.64-4.69l-13.77,14.18-11.23-7.5-11.24-7.5,7.81-18.15c-5.61-6-10.12-12.78-13.4-20.03l-19.75,.3-2.65-13.26-2.64-13.24,18.35-7.32c.26-7.97,1.82-15.95,4.69-23.64l-14.17-13.77,7.49-11.23,7.5-11.24,18.16,7.81c5.99-5.61,12.76-10.11,20.03-13.4l-.3-19.76,13.25-2.65,13.25-2.64,7.31,18.35c7.98,.26,15.96,1.82,23.64,4.69l13.77-14.17,11.24,7.5,11.23,7.5-7.81,18.15c5.62,6,10.11,12.77,13.41,20.03l19.76-.3,2.64,13.25,2.64,13.25-18.35,7.31c-.26,7.98-1.81,15.96-4.69,23.65l14.18,13.76-7.49,11.24-7.51,11.24-18.14-7.81c-6,5.61-12.77,10.1-20.03,13.4l.29,19.75-13.25,2.65-13.24,2.64h0Zm-4.76-143.75c-16.36,0-32.44,7.93-42.2,22.56-15.54,23.28-9.25,54.76,14.03,70.3,8.64,5.77,18.42,8.52,28.09,8.52,16.37,0,32.44-7.92,42.2-22.56,15.54-23.28,9.26-54.75-14.03-70.29-8.65-5.77-18.41-8.53-28.09-8.53Z" style="fill:#fff; fill-rule:evenodd;"/><path d="M1061.95,648.73l-7.31-18.35c-7.97-.26-15.96-1.81-23.66-4.69l-13.76,14.18-11.24-7.5-11.24-7.5,7.82-18.15c-5.61-6-10.11-12.77-13.4-20.03l-19.76,.29-2.64-13.25-2.65-13.24,18.35-7.32c.27-7.98,1.82-15.95,4.69-23.64l-14.17-13.77,7.5-11.23,7.49-11.24,18.16,7.8c5.99-5.61,12.77-10.1,20.03-13.4l-.3-19.76,13.25-2.64,13.25-2.64,7.31,18.35c7.98,.26,15.95,1.82,23.64,4.69l13.78-14.17,11.23,7.49,11.23,7.5-7.8,18.16c5.61,5.99,10.1,12.76,13.4,20.02l19.75-.29,2.64,13.25,2.65,13.25-18.35,7.31c-.27,7.97-1.82,15.96-4.7,23.65l14.18,13.76-7.5,11.24-7.5,11.23-18.15-7.81c-6,5.61-12.77,10.11-20.03,13.41l.29,19.76-13.24,2.64-13.25,2.64h0Zm-4.76-143.74c-16.36,0-32.44,7.92-42.2,22.56-15.55,23.28-9.25,54.76,14.03,70.29,8.65,5.77,18.42,8.53,28.09,8.53,16.37,0,32.44-7.92,42.21-22.56,15.53-23.28,9.25-54.75-14.03-70.29-8.65-5.77-18.43-8.53-28.1-8.53Z" style="fill:#fff; fill-rule:evenodd;"/><path d="M1393.26,881.34l-4.81-12.09c-5.26-.17-10.51-1.19-15.59-3.09l-9.06,9.34-7.41-4.94-7.4-4.94,5.15-11.95c-3.7-3.96-6.67-8.42-8.84-13.2l-13.01,.19-1.74-8.72-1.74-8.72,12.09-4.82c.17-5.25,1.19-10.51,3.08-15.57l-9.33-9.07,4.93-7.41,4.94-7.4,11.96,5.14c3.94-3.69,8.41-6.65,13.19-8.83l-.19-13.01,8.73-1.74,8.72-1.75,4.81,12.1c5.26,.16,10.51,1.19,15.58,3.08l9.07-9.34,7.4,4.94,7.4,4.94-5.14,11.96c3.7,3.94,6.66,8.41,8.83,13.19l13.01-.19,1.75,8.72,1.74,8.72-12.09,4.82c-.17,5.25-1.19,10.51-3.09,15.58l9.35,9.06-4.95,7.41-4.94,7.4-11.95-5.14c-3.95,3.69-8.41,6.65-13.2,8.83l.2,13.01-8.73,1.74-8.72,1.75h0Zm-3.13-94.68c-10.78,0-21.36,5.22-27.8,14.86-10.24,15.34-6.09,36.07,9.24,46.31,5.69,3.8,12.13,5.61,18.5,5.61,10.79,0,21.36-5.22,27.8-14.85,10.24-15.35,6.1-36.07-9.23-46.3-5.7-3.8-12.14-5.62-18.51-5.62Z" style="fill:#fff; fill-rule:evenodd;"/><path d="M1006.24,284.48l-4.81-12.1c-5.25-.17-10.51-1.18-15.58-3.08l-9.06,9.34-7.41-4.94-7.41-4.94,5.15-11.96c-3.69-3.94-6.66-8.41-8.83-13.19l-13.01,.19-1.74-8.72-1.75-8.72,12.09-4.82c.17-5.25,1.19-10.5,3.09-15.58l-9.34-9.06,4.94-7.41,4.94-7.4,11.95,5.14c3.95-3.69,8.42-6.65,13.2-8.83l-.2-13.01,8.73-1.75,8.72-1.74,4.82,12.1c5.25,.17,10.51,1.19,15.57,3.08l9.07-9.34,7.41,4.94,7.4,4.94-5.14,11.96c3.69,3.94,6.65,8.41,8.82,13.19l13.02-.19,1.74,8.72,1.75,8.73-12.1,4.82c-.16,5.25-1.19,10.51-3.09,15.58l9.34,9.06-4.94,7.41-4.94,7.4-11.96-5.14c-3.95,3.7-8.41,6.66-13.19,8.83l.19,13.01-8.72,1.75-8.73,1.74h0Zm-3.12-94.68c-10.78,0-21.37,5.22-27.81,14.86-10.23,15.34-6.09,36.06,9.24,46.29,5.7,3.81,12.14,5.62,18.5,5.62,10.79,0,21.37-5.22,27.81-14.86,10.23-15.34,6.1-36.06-9.24-46.29-5.7-3.81-12.13-5.62-18.5-5.62Z" style="fill:#fff; fill-rule:evenodd;"/><path d="M1336.29,385.77l-6.46-16.19c-7.03-.23-14.08-1.6-20.87-4.14l-12.15,12.51-9.92-6.61-9.92-6.62,6.9-16.02c-4.96-5.29-8.93-11.27-11.84-17.68l-17.43,.26-2.33-11.69-2.33-11.69,16.2-6.46c.23-7.03,1.6-14.08,4.13-20.86l-12.51-12.15,6.62-9.92,6.61-9.92,16.03,6.89c5.29-4.95,11.27-8.92,17.68-11.83l-.26-17.44,11.69-2.34,11.69-2.33,6.46,16.19c7.03,.23,14.08,1.6,20.86,4.14l12.15-12.51,9.93,6.62,9.91,6.61-6.89,16.03c4.96,5.28,8.92,11.26,11.84,17.68l17.43-.27,2.33,11.69,2.33,11.69-16.2,6.46c-.23,7.03-1.59,14.09-4.14,20.87l12.52,12.15-6.62,9.92-6.62,9.92-16.02-6.89c-5.29,4.95-11.27,8.92-17.68,11.83l.26,17.44-11.69,2.33-11.69,2.33h0Zm-4.19-126.84c-14.44,0-28.63,6.99-37.24,19.91-13.72,20.55-8.17,48.32,12.38,62.03,7.63,5.09,16.26,7.52,24.78,7.52,14.46,0,28.62-6.99,37.25-19.91,13.71-20.54,8.17-48.32-12.38-62.03-7.64-5.09-16.26-7.52-24.79-7.52Z" style="fill:#fff; fill-rule:evenodd;"/><path d="M584.03,273.79l-6.46-16.19c-7.03-.23-14.08-1.6-20.87-4.14l-12.15,12.51-9.92-6.61-9.92-6.62,6.89-16.02c-4.95-5.29-8.92-11.27-11.83-17.68l-17.44,.26-2.33-11.69-2.33-11.69,16.2-6.46c.22-7.03,1.6-14.08,4.13-20.86l-12.51-12.15,6.62-9.92,6.61-9.92,16.03,6.89c5.29-4.95,11.26-8.92,17.68-11.83l-.27-17.44,11.7-2.33,11.68-2.33,6.46,16.2c7.03,.22,14.09,1.59,20.87,4.14l12.15-12.52,9.92,6.62,9.92,6.61-6.89,16.03c4.95,5.28,8.92,11.26,11.83,17.68l17.44-.27,2.33,11.69,2.33,11.69-16.2,6.46c-.23,7.03-1.6,14.09-4.14,20.87l12.51,12.15-6.61,9.92-6.63,9.92-16.01-6.89c-5.29,4.95-11.27,8.92-17.68,11.83l.25,17.44-11.68,2.33-11.69,2.33h0Zm-4.19-126.84c-14.45,0-28.63,6.99-37.25,19.91-13.71,20.55-8.17,48.32,12.39,62.03,7.62,5.09,16.25,7.52,24.78,7.52,14.45,0,28.63-6.99,37.25-19.91,13.71-20.54,8.17-48.32-12.39-62.03-7.63-5.08-16.26-7.52-24.78-7.52Z" style="fill:#fff; fill-rule:evenodd;"/><path d="M1478.34,1203.51l-10.07-25.27c-10.98-.37-21.97-2.5-32.56-6.47l-18.95,19.53-15.48-10.32-15.48-10.33,10.77-24.99c-7.74-8.25-13.93-17.58-18.47-27.59l-27.2,.4-3.64-18.25-3.64-18.24,25.27-10.07c.36-10.98,2.49-21.97,6.45-32.56l-19.51-18.95,10.32-15.48,10.32-15.47,25,10.75c8.24-7.73,17.58-13.91,27.59-18.46l-.41-27.21,18.26-3.63,18.24-3.65,10.07,25.28c10.98,.36,21.97,2.49,32.55,6.46l18.96-19.53,15.48,10.33,15.47,10.32-10.75,25c7.73,8.24,13.9,17.58,18.46,27.58l27.2-.4,3.64,18.25,3.64,18.25-25.27,10.07c-.36,10.97-2.49,21.97-6.47,32.55l19.52,18.96-10.32,15.47-10.33,15.48-24.99-10.76c-8.25,7.73-17.58,13.92-27.59,18.47l.4,27.2-18.25,3.64-18.24,3.64h0Zm-6.53-197.93c-22.54,0-44.68,10.92-58.11,31.06-21.41,32.06-12.75,75.4,19.31,96.8,11.9,7.94,25.36,11.74,38.67,11.74,22.54,0,44.66-10.91,58.12-31.07,21.39-32.06,12.74-75.39-19.32-96.79-11.9-7.95-25.36-11.75-38.67-11.75Z" style="fill:#fff; fill-rule:evenodd;"/><path d="M872.86,547.45l-10.07-25.27c-10.98-.37-21.98-2.49-32.57-6.46l-18.94,19.52-15.48-10.32-15.48-10.32,10.76-25c-7.74-8.25-13.92-17.58-18.46-27.59l-27.21,.4-3.63-18.25-3.65-18.24,25.28-10.07c.36-10.98,2.49-21.98,6.45-32.56l-19.52-18.95,10.32-15.48,10.32-15.47,25.01,10.75c8.24-7.73,17.57-13.91,27.58-18.46l-.4-27.21,18.25-3.63,18.25-3.65,10.07,25.28c10.97,.36,21.97,2.49,32.55,6.46l18.96-19.52,15.48,10.33,15.47,10.32-10.75,25c7.73,8.24,13.91,17.58,18.47,27.58l27.2-.4,3.64,18.25,3.63,18.25-25.26,10.07c-.37,10.97-2.5,21.97-6.47,32.55l19.52,18.96-10.32,15.47-10.33,15.48-24.99-10.75c-8.26,7.73-17.58,13.91-27.59,18.46l.39,27.2-18.24,3.64-18.24,3.64h0Zm-6.54-197.93c-22.54,0-44.67,10.92-58.11,31.06-21.4,32.06-12.75,75.4,19.31,96.8,11.9,7.95,25.37,11.74,38.66,11.74,22.55,0,44.67-10.91,58.12-31.07,21.4-32.06,12.75-75.39-19.31-96.79-11.91-7.95-25.37-11.75-38.67-11.75Z" style="fill:#fff; fill-rule:evenodd;"/><rect x="155.25" y="218.29" width="451.79" height="531.22" style="fill:#d0d9ee;"/><rect x="155.25" y="218.29" width="451.79" height="50.62" style="fill:#aab9de;"/><path d="M186.85,229.96h215.76c7.5,0,13.63,6.14,13.63,13.63h0c0,7.49-6.13,13.63-13.63,13.63H186.85c-7.49,0-13.63-6.14-13.63-13.63h0c0-7.49,6.14-13.63,13.63-13.63Z" style="fill:#fff; fill-rule:evenodd;"/><path d="M572.81,229.77c7.64,0,13.83,6.2,13.83,13.83s-6.19,13.83-13.83,13.83-13.83-6.2-13.83-13.83,6.2-13.83,13.83-13.83Z" style="fill:#fff; fill-rule:evenodd;"/><rect x="190.16" y="314.87" width="207.2" height="41.28" style="fill:#fff;"/><path d="M190.04,386.53h207.19v8.86H190.04v-8.86h0Zm0,97.96h207.19v8.86H190.04v-8.86h0Zm0-19.59h207.19v8.86H190.04v-8.86h0Zm0-19.59h207.19v8.86H190.04v-8.86h0Zm0-19.59h207.19v8.86H190.04v-8.86h0Zm0-19.6h207.19v8.87H190.04v-8.87Z" style="fill:#fff; fill-rule:evenodd;"/><rect x="190.04" y="528.3" width="207.19" height="109.71" style="fill:#fff;"/><rect x="190.04" y="669.34" width="207.19" height="47.07" style="fill:#fff;"/><path d="M568.5,372.1c.25,34.69-27.66,63-62.36,63.25-34.69,.25-63-27.67-63.25-62.36-.24-34.69,27.67-63,62.36-63.25,34.69-.25,63,27.66,63.25,62.36Z" style="fill:#aab9de; fill-rule:evenodd;"/><path d="M523.37,342.81c.07,9.89-7.88,17.95-17.77,18.03-9.88,.07-17.95-7.88-18.02-17.77-.08-9.88,7.88-17.95,17.76-18.02,9.89-.08,17.95,7.88,18.03,17.76Z" style="fill:#fff; fill-rule:evenodd;"/><path d="M505.66,366.96h0c-18.33,.12-33.08,15.1-32.96,33.43h0c.04,4.8,3.96,8.68,8.77,8.65l48.97-.36c4.8-.03,8.68-3.96,8.65-8.77h0c-.13-18.33-15.1-33.08-33.43-32.95Z" style="fill:#fff; fill-rule:evenodd;"/><path d="M440.07,464.81h131.25v12.47h-131.25v-12.47h0Zm0,85.65h131.25v12.47h-131.25v-12.47h0Zm0-28.55h131.25v12.46h-131.25v-12.46h0Zm0-28.55h131.25v12.46h-131.25v-12.46Z" style="fill:#fff; fill-rule:evenodd;"/><rect x="440.07" y="594.1" width="131.25" height="101.28" style="fill:#fff;"/><path d="M936.64,1134.1s13.05,17.98,35.74,30.5c23.44,12.91,50.49,19.13,33.72,24.98-16.77,5.84-41.29,10.39-65.2,3.44-16.78-4.87-36.45-5.89-41.64-13.82-5.19-7.93,12.38-29.7,7.68-59.45-3.78-23.84,29.71,14.35,29.71,14.35Z" style="fill:#152f54; fill-rule:evenodd;"/><path d="M851.34,882.73s94.59-7.42,121-2.83c26.41,4.59,84.37,4.54,46.47,111.52-29.72,83.84-66.41,163.39-66.41,163.39-19.69,4.84-33.91,18.44-59.07,14.52,0,0,31.75-188.05,57.43-215.09-20.52,3.37-58.21,9.97-110.42,24.91-96.86,27.71-135.8,13.84-135.8,13.84l-14.42-50.55,161.23-59.7Z" style="fill:#0f3970; fill-rule:evenodd;"/><rect x="1232.29" y="816.33" width="79.15" height="9.17" style="fill:#0f3d86;"/><polygon points="1339.18 587.16 1242.42 586.01 1210.98 754.3 1303.16 779.98 1339.18 587.16" style="fill:#165396; fill-rule:evenodd;"/><polygon points="1331.74 593.26 1298.31 772.21 1218.1 749.86 1247.55 592.26 1331.74 593.26" style="fill:#aab9de; fill-rule:evenodd;"/><polygon points="1311.44 825.5 1288.99 825.5 1288.99 776.03 1303.16 779.98 1311.44 735.62 1311.44 825.5" style="fill:#0f3d86; fill-rule:evenodd;"/><path d="M989.58,845.4h364.68c1.56,0,2.81-3.56,2.81-7.96v-3.98c0-4.39-1.26-7.97-2.81-7.97h-364.68c-1.56,0-2.82,3.58-2.82,7.97v3.98c0,4.4,1.26,7.96,2.82,7.96Z" style="fill:#9d7558; fill-rule:evenodd;"/><path d="M780.32,507.69c-21.28-.59-13.39-16.4-37.87-10.08-12.87,3.32-3.36,8.61-20.08,6.89-16.72-1.73-24.94-3.45-27.06,7.47-2.1,10.92-3.12,14.36-11.17,16.09-8.04,1.71-11.67,16.08,0,25.84,11.67,9.76,6,13.79,3.42,21.83-2.59,8.04,6.22,8.62,11,16.08,4.78,7.48-4.4,8.88,2.49,15.36,6.89,6.48,16.56,5.9,16.56,5.9l29.02-55.63,33.69-49.72Z" style="fill:#0f3970; fill-rule:evenodd;"/><path d="M969.56,1172.49s13.05,17.99,35.74,30.5c23.44,12.92,50.5,19.14,33.73,24.98-16.77,5.85-41.3,10.39-65.2,3.45-16.79-4.88-36.45-5.89-41.64-13.82-5.19-7.93,6.12-27.84,1.41-57.58-3.77-23.84,35.97,12.46,35.97,12.46Z" style="fill:#152f54; fill-rule:evenodd;"/><path d="M831.24,883.39s122.91-4.59,149.33,0c26.42,4.59,84.37,4.54,46.47,111.52-29.71,83.84-39.51,190-39.51,190l-59.07,14.51s2.34-190.89,30.53-241.71c-20.52,3.38-58.2,9.98-110.42,24.92-96.86,27.7-149.98,13.84-149.98,13.84l-14.42-50.55,147.09-62.52Z" style="fill:#0f3d86; fill-rule:evenodd;"/><polygon points="728.61 566.06 698.57 654.79 736.51 679.77 758.01 603.1 728.61 566.06" style="fill:#f4ae7c; fill-rule:evenodd;"/><path d="M739.91,667.66l18.1-64.56-29.4-37.04-10.99,32.45c3.79,29.32,12.95,53.57,22.29,69.15Z" style="fill:#ed7d5b; fill-rule:evenodd;"/><path d="M805.21,581.08c.97,26.99-12.28,50.34-33.35,52.41-21.07,2.09-40.3-18.02-42.95-44.89-2.65-26.88,12.28-50.35,33.35-52.42,21.07-2.08,41.41,2.32,42.95,44.9Z" style="fill:#f4ae7c; fill-rule:evenodd;"/><path d="M684.15,652.2c-92.19,62.25-34.84,162.86-14.6,236.37,17.24,62.61,16.68,100.46,19.27,100.46s65.98-9.47,102.16-42.21c36.19-32.74,60.65-64.45,60.65-64.45,0,0-46.36-8.25-61.5-68.22-7.7-30.44-4.2-46.97-21.73-95.21-17.53-48.25-84.23-66.74-84.23-66.74Z" style="fill:#6998d0; fill-rule:evenodd;"/><path d="M684.15,652.2l9.88-24.16s31.3,20.68,43.8,30.44c12.48,9.76,20.19,12.06,20.19,12.06,0,0,4.52,34.63,1.59,31.49-36.95-39.6-75.45-49.83-75.45-49.83Z" style="fill:#6998d0; fill-rule:evenodd;"/><polygon points="643.29 1244.22 651.34 1244.22 709.06 1003.42 691.35 1003.42 643.29 1244.22" style="fill:#9d7558; fill-rule:evenodd;"/><polygon points="884.4 1244.22 876.35 1244.22 810.12 994.91 827.83 994.91 884.4 1244.22" style="fill:#9d7558; fill-rule:evenodd;"/><path d="M732.96,1012.44c-32.25,0-52.67-5.78-65.7-18.49-16.16-15.75-19.51-40.13-19.55-71.89-.11-66.8-3.8-80.61-22.6-121.39-2.08-4.53-.11-9.89,4.42-11.97,4.53-2.08,9.88-.12,11.96,4.42,19.87,43.11,24.16,58.96,24.25,128.91,.06,32.19,4.14,49.28,14.11,58.99,10.22,9.96,28.7,14.07,59.91,13.29,30.14-.74,50.89-4.96,67.56-8.35,21.92-4.46,37.76-7.67,56.55,1.31,4.5,2.15,6.4,7.53,4.25,12.03-2.14,4.5-7.53,6.4-12.03,4.25-13.33-6.37-24.65-4.07-45.17,.1-17.37,3.54-38.97,7.92-70.7,8.71-2.48,.07-4.9,.1-7.25,.1Z" style="fill:#9d7558; fill-rule:evenodd;"/><path d="M687.57,742.84s22.96,70.07,51.4,99.08c28.43,29.01,85.64,38.75,103.55,37.61-14.28-5.74-41.47-22.08-52.41-65.37-7.7-30.44-4.2-46.97-21.73-95.21-13.01-35.81-53.12-55.23-72.92-62.86,24.72,17.76,55.62,47,65.13,69.25,10.54,24.69-73.02,17.51-73.02,17.51Z" style="fill:#406fb5; fill-rule:evenodd;"/><path d="M1004.65,804.34s39.62-18.08,43.93-16.37c4.3,1.73,48.24,28.26,48.24,32.65s-38.76-16.37-38.76-16.37c0,0,4.3,11.48,1.72,16.99-2.58,5.51-32.38,5.51-59.27,3.79-26.88-1.72,4.14-20.68,4.14-20.68Z" style="fill:#f4ae7c; fill-rule:evenodd;"/><path d="M688.83,688.71c-36.52,74.87,88.77,150.77,163.12,157.51,74.34,6.75,162.66-17.57,162.66-17.57l-9.95-24.31s-148.94-19.44-152.71-22.16c-3.78-2.72-149.73-120.9-163.12-93.47Z" style="fill:#6998d0; fill-rule:evenodd;"/><path d="M805.25,511.58c10.09-4.21,21.47-8.72,17.94,8.42-1.53,7.48,0,5.36,2.68,12.26,2.68,6.89-6.75,12.3-9.81,16.12-3.07,3.83,4.46,7.99-1.67,12.59-6.12,4.59-14.2-1.69-19.91,0-17.04,5.09-14.93-8.31-24.5-11.1-9.58-2.79-14.27-2.35-16.08,3.77-1.82,6.13,6.7,26.28-.58,24.38-7.27-1.92-8.91,14.36-10.87,23.54-1.96,9.2-6.95-6.34-6.63-16.85,.5-16.12-3.51-22.89-9.45-27.4-5.93-4.51-8.46-45.53,20.26-47.06,28.72-1.53,28.89-4.3,41.15-6.89,12.25-2.58,12.88,10.16,17.47,8.23Z" style="fill:#0f3970; fill-rule:evenodd;"/><path d="M1323.21,845.4h-21.07v381.87h21.07v-381.87h0Zm-281.51,0h-21.07v381.87h21.07v-381.87Z" style="fill:#9d7558; fill-rule:evenodd;"/><path d="M731.65,543.59c-15,0-27.15,12.15-27.15,27.15s12.16,27.16,27.15,27.16,27.15-12.16,27.15-27.16-12.15-27.15-27.15-27.15Z" style="fill:#6998d0; fill-rule:evenodd;"/><path d="M736.56,494.32h-11.3c-1.61,0-2.94,1.32-2.94,2.93v65.89c0,1.62,1.33,2.94,2.94,2.94h11.3c1.62,0,2.94-1.32,2.94-2.94v-65.89c0-1.61-1.32-2.93-2.94-2.93Z" style="fill:#406fb5; fill-rule:evenodd;"/><path d="M731.65,558.24c-6.91,0-12.51,5.59-12.51,12.5s5.6,12.51,12.51,12.51,12.5-5.6,12.5-12.51-5.6-12.5-12.5-12.5Z" style="fill:#fff; fill-rule:evenodd;"/><path d="M780.51,588.82c-2.61-.12-4.11-10.51,2.23-10.21,3.39,.16,2.05,10.4-2.23,10.21Z" style="fill:#0f3970; fill-rule:evenodd;"/><path d="M802.78,589.87c2.6,.12,5.2-10.06-1.14-10.36-3.38-.16-3.16,10.17,1.14,10.36Z" style="fill:#0f3970; fill-rule:evenodd;"/><path d="M785.42,569.6c4.21,.35,3.9,3.81,.79,4.61-.91,.23-18.16,2.81-17.35,1.79,1.56-2.11,8.61-7.05,16.57-6.4Z" style="fill:#0f3970; fill-rule:evenodd;"/><path d="M797.25,569.84c-4.23-.24-4.45,3.24-1.47,4.45,1.4,.57,17.72,5.42,16.78,3.92-1.57-2.47-7.61-7.96-15.31-8.37Z" style="fill:#0f3970; fill-rule:evenodd;"/><path d="M799.85,603.45c-8.08,5.43-8.36,.99-5.69,.66,8.85-1.1-.69-3.3-4.04-18.18-.33-1.56,1.42-1.93,1.88-.67,.3,.86,1.06,4.13,1.46,5.04,4.86,11.17,8.96,11.4,6.38,13.14Z" style="fill:#ed7d5b; fill-rule:evenodd;"/><path d="M796.5,613.16c-15.94,21-25.4-1.86-21.73-1.87,12.3,8.41,23.68-.68,21.73,1.87Z" style="fill:#fff; fill-rule:evenodd;"/><path d="M1408.57,817.27h42.83l-1.97-24.68c-.28-3.43,3.95-5.26,6.26-2.71l24.87,27.39h215.39c11.13,0,20.14,9.01,20.14,20.14v78.52c0,11.12-9.01,20.13-20.14,20.13h-287.39c-11.12,0-20.13-9.02-20.13-20.13v-78.52c0-11.13,9.01-20.14,20.13-20.14Z" style="fill:#d0d9ee; fill-rule:evenodd;"/><path d="M1417.46,896.43h38.43c2.32,0,4.2,1.88,4.2,4.2s-1.88,4.19-4.2,4.19h-38.43c-2.33,0-4.2-1.87-4.2-4.19s1.87-4.2,4.2-4.2h0Zm162.83-47.91h106.62c2.32,0,4.19,1.87,4.19,4.19s-1.87,4.2-4.19,4.2h-106.62c-2.32,0-4.19-1.87-4.19-4.2s1.87-4.19,4.19-4.19h0Zm-121.05,0h103.85c2.32,0,4.19,1.87,4.19,4.19s-1.87,4.2-4.19,4.2h-103.85c-2.31,0-4.19-1.87-4.19-4.2s1.88-4.19,4.19-4.19h0Zm161.66,23.95h66.01c2.32,0,4.19,1.87,4.19,4.2s-1.87,4.19-4.19,4.19h-66.01c-2.33,0-4.2-1.88-4.2-4.19s1.87-4.2,4.2-4.2h0Zm-203.43,0h184.98c2.32,0,4.2,1.87,4.2,4.2s-1.88,4.19-4.2,4.19h-184.98c-2.33,0-4.2-1.88-4.2-4.19s1.87-4.2,4.2-4.2h0Zm56.21,23.95h213.24c2.32,0,4.19,1.88,4.19,4.2s-1.87,4.19-4.19,4.19h-213.24c-2.32,0-4.2-1.87-4.2-4.19s1.88-4.2,4.2-4.2Z" style="fill:#fff; fill-rule:evenodd;"/><path d="M1075.82,305.97h166.12c13.18,0,23.88,10.7,23.88,23.88v166.12c0,13.18-10.7,23.88-23.88,23.88h-166.12c-13.18,0-23.88-10.7-23.88-23.88v-166.12c0-13.18,10.7-23.88,23.88-23.88Z" style="fill:#d0d9ee;"/><polygon points="1131.87 404.76 1102.1 414.98 1131.87 425.2 1131.87 441.9 1081.77 423.72 1081.77 406.23 1131.87 388.06 1131.87 404.76" style="fill:#fff; fill-rule:evenodd;"/><polygon points="1165.77 366.64 1185.41 366.64 1152.99 459.19 1133.35 459.19 1165.77 366.64" style="fill:#fff; fill-rule:evenodd;"/><polygon points="1236 406.23 1236 423.72 1185.9 441.9 1185.9 425.2 1215.67 414.98 1185.9 404.76 1185.9 388.06 1236 406.23" style="fill:#fff; fill-rule:evenodd;"/><rect x="644.36" y="151.23" width="289.1" height="205.96" style="fill:#d0d9ee;"/><path d="M765.28,195.69c-9.29,0-12.4,2.52-12.4,9.45v31c0,12.11-5.02,15.8-13.43,18.16,8.42,2.21,13.43,5.9,13.43,17.85v31c0,6.95,3.26,9.45,12.4,9.45v13.59c-23.47,0-30.11-7.53-30.11-23.19v-29.37c0-8.42-2.21-11.66-9.89-11.66v-15.5c7.68,0,9.89-3.39,9.89-11.81v-29.37c0-15.8,6.64-23.17,30.11-23.17v13.57Z" style="fill:#f7f8f8; fill-rule:evenodd;"/><path d="M842.64,205.29v29.37c0,8.42,2.21,11.81,10.03,11.81v15.5c-7.82,0-10.04,3.25-10.04,11.66v29.37c0,15.65-6.63,23.19-30.1,23.19v-13.59c9.16,0,12.4-2.51,12.4-9.45v-31c0-11.95,5.02-15.64,13.42-17.85-8.41-2.36-13.42-6.05-13.42-18.16v-31c0-6.94-3.1-9.45-12.4-9.45v-13.58c23.47,0,30.1,7.38,30.11,23.17Z" style="fill:#f7f8f8; fill-rule:evenodd;"/><rect x="1367.75" y="296.02" width="482.48" height="450.32" style="fill:#bcc9e7;"/><rect x="1367.75" y="296.02" width="482.48" height="47.62" style="fill:#d0d9ee;"/><path d="M1745.93,320.37c0,4.82-3.91,8.74-8.72,8.74s-8.73-3.92-8.73-8.74,3.9-8.72,8.73-8.72,8.72,3.91,8.72,8.72h0Zm70.31,.92c0,4.82-3.91,8.73-8.73,8.73s-8.72-3.91-8.72-8.73,3.9-8.72,8.72-8.72,8.73,3.9,8.73,8.72h0Zm-33.85-.92c0,4.82-3.91,8.74-8.73,8.74s-8.72-3.92-8.72-8.74,3.9-8.72,8.72-8.72,8.73,3.91,8.73,8.72Z" style="fill:#fff; fill-rule:evenodd;"/><path d="M1521.88,393.66h-68.34v-5.75h68.34v5.75h0Zm15.9,154.77h-80.88v5.76h80.88v-5.76h0Zm111.38,0h-80.88v5.76h80.88v-5.76h0Zm93.02,30.95h-57.68v5.74h57.68v-5.74h0Zm-94.77,0h-57.67v5.74h57.67v-5.74h0Zm-88.3,0h-57.68v5.74h57.68v-5.74h0Zm161.53,30.94h-42.64v5.74h42.64v-5.74h0Zm-56,0h-153.21v5.74h153.21v-5.74h0Zm142.89,30.94h-154.39v5.74h154.39v-5.74h0Zm-178.46,0h-154.39v5.74h154.39v-5.74h0Zm113.93,30.94h-78.99v5.74h78.99v-5.74h0Zm-103.79,0h-79v5.74h79v-5.74h0Zm-106.67,0h-79v5.74h79v-5.74h0Zm102.76-154.78h-54.3v-5.75h54.3v5.75h0Zm-77.53,0h-54.31v-5.75h54.31v5.75h0Zm166.26-30.94h-176.45v-5.75h176.45v5.75h0Zm15.24-30.94h-154.4v-5.75h154.4v5.75h0Zm-181.3,0h-46.54v-5.75h46.54v5.75h0Zm94.05-30.94h-53.87v-5.75h53.87v5.75h0Zm-71.39,0h-105.96v-5.75h105.96v5.75h0Zm21.45-30.94h-68.34v-5.75h68.34v5.75Z" style="fill:#fff; fill-rule:evenodd;"/><path d="M1416.17,427.24h-7.36v-14.99h7.36v14.99h0Zm0,254.76h-7.36v-7.36h7.36v7.36h0Zm0-217.27h-7.36v-15h7.36v15h0Zm0,37.48h-7.36v-15h7.36v15h0Zm0,37.48h-7.36v-15h7.36v15h0Zm0,37.48h-7.36v-14.99h7.36v14.99h0Zm0,37.48h-7.36v-14.99h7.36v14.99h0Zm0,37.49h-7.36v-15h7.36v15Z" style="fill:#fff; fill-rule:evenodd;"/><path d="M504.2,1019.71c-1.26-9.82-6.26-18.87-12.75-26.35-6.49-7.48-14.43-13.55-22.47-19.32-10.26-7.37-21.34-14.56-33.89-16-5.97-.68-12.25,.05-17.44,3.08-5.19,3.02-9.09,8.57-9.2,14.57-.12,7.35,5.14,13.68,10.89,18.27,5.75,4.58,12.36,8.27,16.86,14.09,5.81,7.5,7.31,17.48,12.06,25.7,4.53,7.86,12.08,13.92,20.74,16.64,7.73,2.42,21.16,3.42,27.09-3.31,6.47-7.32,9.35-17.78,8.12-27.37Z" style="fill:#d0d9ee; fill-rule:evenodd;"/><path d="M506.27,1020.41c-2.74-6.97-4.01-14.71-2.3-22,1.97-8.42,7.64-15.48,10.58-23.61,2.99-8.25,3.16-17.6,7.86-25.02,5.43-8.57,16.93-12.81,26.56-9.62,9.63,3.19,16.36,13.62,15.11,23.69-.87,7-5.06,13.13-6.95,19.93-2.69,9.73-.56,20.36-3.53,30.01-2.49,8.07-8.64,14.94-16.4,18.29-3.66,1.59-7.57,2.53-11.29,3.93-2.47,.93-5.31,2.62-8.06,1.87-5.66-1.56-9.67-12.59-11.59-17.46Z" style="fill:#d0d9ee; fill-rule:evenodd;"/><path d="M525.03,1082.45c3.81-6.96,11.36-11.71,19.28-12.12,5.64-.28,11.17,1.48,16.81,1.95,6.26,.54,12.64-.52,18.77,.87,6.12,1.38,12.2,6.4,11.71,12.65-.35,4.55-4.17,8.25-8.46,9.83-4.29,1.57-8.99,1.42-13.56,1.15-4.55-.28-9.21-.63-13.62,.54-5.28,1.42-9.71,4.91-14.57,7.41-5.14,2.64-13.42,4.89-16.91-.97-3.64-6.13-2.74-15.3,.55-21.31Z" style="fill:#bcc9e7; fill-rule:evenodd;"/><path d="M552.24,1158.2h-87.17s-7.15,37.87,12.86,73.59h61.46c20.01-35.72,12.86-73.59,12.86-73.59Z" style="fill:#bcc9e7; fill-rule:evenodd;"/><path d="M558.14,1173.7c-.36-9.64-1.23-15.51-1.23-15.51h-96.51s-.86,5.87-1.23,15.51h98.97Z" style="fill:#aab9de; fill-rule:evenodd;"/><path d="M1493.06,144.63c0,46.81-37.95,84.77-84.76,84.77s-84.76-37.95-84.76-84.77,37.95-84.75,84.76-84.75,84.76,37.94,84.76,84.75Z" style="fill:#d0d9ee; fill-rule:evenodd;"/><polygon points="1441.9 107.85 1422.82 191.06 1404.53 167.51 1386.85 187.28 1370.82 172.32 1388.98 152.95 1362.61 142.37 1441.9 107.85" style="fill:#99a9d4; fill-rule:evenodd;"/><polygon points="1438.65 104.6 1419.56 187.79 1401.27 164.25 1383.58 184.02 1367.55 169.06 1385.72 149.69 1359.34 139.11 1438.65 104.6" style="fill:#fff; fill-rule:evenodd;"/><path d="M1173.41,116.3c44.33,0,80.26,35.94,80.26,80.27s-35.93,80.26-80.26,80.26-80.26-35.94-80.26-80.26,35.94-80.27,80.26-80.27Z" style="fill:#d0d9ee; fill-rule:evenodd;"/><path d="M1165.64,198.56v-.93c0-4.02-.46-6.46-1.36-7.28-.91-.84-2.84-1.27-5.81-1.27h-5.2v-13.33h33.82v55.28c0,3.19,.45,5.26,1.37,6.16,.93,.91,2.89,1.36,5.86,1.36h4.02v13.02h-45.07v-13.02h4.88c3.07,0,5.08-.45,6.04-1.36,.96-.9,1.45-2.97,1.45-6.16v-32.47h0Zm-5.08-42.46c0-3.67,1.32-6.8,3.91-9.4,2.62-2.59,5.76-3.88,9.42-3.88s6.86,1.29,9.45,3.88c2.59,2.59,3.88,5.73,3.88,9.4s-1.29,6.9-3.88,9.5c-2.59,2.59-5.73,3.88-9.45,3.88s-6.93-1.29-9.47-3.82c-2.57-2.55-3.85-5.74-3.85-9.56Z" style="fill:#99a9d4; fill-rule:evenodd;"/><path d="M1160.86,197.31v-.94c0-4.02-.46-6.45-1.37-7.27-.9-.84-2.84-1.27-5.8-1.27h-5.2v-13.33h33.83v55.28c0,3.19,.44,5.26,1.36,6.16,.92,.91,2.88,1.36,5.86,1.36h4.02v13.02h-45.07v-13.02h4.87c3.08,0,5.09-.45,6.05-1.36,.96-.9,1.45-2.97,1.45-6.16v-32.47h0Zm-5.08-42.46c0-3.67,1.31-6.8,3.91-9.4,2.62-2.59,5.76-3.88,9.42-3.88s6.86,1.29,9.46,3.88c2.59,2.59,3.88,5.73,3.88,9.4s-1.29,6.9-3.88,9.5c-2.59,2.59-5.73,3.88-9.46,3.88s-6.93-1.29-9.47-3.83c-2.57-2.54-3.85-5.73-3.85-9.55Z" style="fill:#fff; fill-rule:evenodd;"/><path d="M1000.44,422.8h-150.18c-8.51,0-15.41,6.89-15.41,15.4v69.98c0,8.51,6.9,15.41,15.41,15.41h16.66c.47,6.26,.23,17.43-5.94,26.14,0,0,40.3-3.75,50.85-26.14h88.61c8.51,0,15.41-6.9,15.41-15.41v-69.98c0-8.51-6.9-15.4-15.41-15.4Z" style="fill:#d0d9ee; fill-rule:evenodd;"/><path d="M874.21,471.24c0,7.87,6.38,14.25,14.26,14.25s14.25-6.38,14.25-14.25-6.38-14.26-14.25-14.26-14.26,6.38-14.26,14.26h0Zm85.76,0c0,7.87,6.38,14.25,14.25,14.25s14.26-6.38,14.26-14.25-6.39-14.26-14.26-14.26-14.25,6.38-14.25,14.26h0Zm-42.88,0c0,7.87,6.38,14.25,14.26,14.25s14.25-6.38,14.25-14.25-6.38-14.26-14.25-14.26-14.26,6.38-14.26,14.26Z" style="fill:#fff; fill-rule:evenodd;"/><path d="M1123.46,586.48h-186.88c-10.59,0-19.17,8.59-19.17,19.18v87.08c0,10.59,8.58,19.17,19.17,19.17h20.74c.59,7.78,.29,21.69-7.39,32.52,0,0,50.14-4.66,63.27-32.52h110.26c10.6,0,19.18-8.58,19.18-19.17v-87.08c0-10.59-8.58-19.18-19.18-19.18Z" style="fill:#d0d9ee; fill-rule:evenodd;"/><path d="M1114,684.91h-167.95c-2.32,0-4.19-1.87-4.19-4.19s1.87-4.2,4.19-4.2h167.95c2.32,0,4.2,1.88,4.2,4.2s-1.88,4.19-4.2,4.19h0Zm0-20.76h-167.95c-2.32,0-4.19-1.87-4.19-4.19s1.87-4.2,4.19-4.2h167.95c2.32,0,4.2,1.87,4.2,4.2s-1.88,4.19-4.2,4.19h0Zm0-20.76h-167.95c-2.32,0-4.19-1.87-4.19-4.19s1.87-4.2,4.19-4.2h167.95c2.32,0,4.2,1.88,4.2,4.2s-1.88,4.19-4.2,4.19h0Zm0-20.76h-167.95c-2.32,0-4.19-1.87-4.19-4.19s1.87-4.19,4.19-4.19h167.95c2.32,0,4.2,1.86,4.2,4.19s-1.88,4.19-4.2,4.19Z" style="fill:#fff; fill-rule:evenodd;"/></svg>