<?xml version="1.0" encoding="UTF-8"?><svg id="a" xmlns="http://www.w3.org/2000/svg" viewBox="0 0 1942.4 1232.61"><path d="M1729.01,73.9c-17.06,0-30.89-13.83-30.89-30.89s13.83-30.89,30.89-30.89,30.89,13.83,30.89,30.89-13.83,30.89-30.89,30.89h0ZM417.5,814.45H252.47c-88.82,0-161.49,72.67-161.49,161.49h0c0,88.81,72.67,161.49,161.49,161.49H1647.88c143.82,0,261.49-117.68,261.49-261.49h0c0-143.82-117.66-261.49-261.49-261.49h0c-60.81,0-110.57-49.75-110.57-110.57h0c0-60.81,49.75-110.56,110.57-110.56h133.07c63.21,0,114.94-51.73,114.94-114.96h0c0-63.22-51.73-114.95-114.94-114.95h-168.27c-24.61,0-44.75-20.14-44.75-44.75h0c0-24.62,20.14-44.75,44.75-44.75h29.66c16.99,0,30.89-13.9,30.89-30.89h0c0-16.99-13.9-30.89-30.89-30.89h-194.63c-40.99,0-45.56,48.42-149.1,48.42h-240.09c-22.17,0-40.3,18.14-40.3,40.3h0c0,22.16,18.13,40.3,40.3,40.3h38.7c32.12,0,58.4,26.29,58.4,58.4h0c0,32.12-26.29,58.39-58.4,58.39h-116.49c-157.29,0-179.5,41.11-207.06,122.87-27.55,81.75-170.62,88.35-170.62,88.35h-195.63c-48.4,0-88,39.6-88,88h0c0,48.4,39.6,88,88,88h10.07c46.55,0,84.64,38.09,84.64,84.64h0c0,46.55-38.09,84.65-84.64,84.65h0Z" style="fill:#e9eef7; fill-rule:evenodd;"/><path d="M991.01,1232.61c491.67,0,892.68-21.39,892.68-47.6s-401.01-47.59-892.68-47.59-892.68,21.38-892.68,47.59,401.01,47.6,892.68,47.6Z" style="fill:#d1deed; fill-rule:evenodd;"/><g><polygon points="617.04 1064.01 623.73 1185.67 561.7 1189.08 412.4 1084.85 412 1075.3 617.04 1064.01" style="fill:#619fdf; fill-rule:evenodd;"/><polygon points="569.21 1182.89 561.7 1189.08 412.4 1084.85 412 1075.3 569.21 1182.89" style="fill:#71aeec; fill-rule:evenodd;"/><path d="M426,1066.68c-.19,3.54-.47,7.07-.82,10.63,0,0,124.08,79.75,146.66,98.77,0,0,22.48-36.72,3.29-101.53,0,0-144.35-98.08-157.06-104.97,0,0,3.31,13.67,5.8,34.52,.15,1.08,.26,2.17,.38,3.29,1.83,16.19,3.03,36.22,1.88,57.29-.02,.66-.06,1.33-.13,1.99Z" style="fill:#fff; fill-rule:evenodd;"/><path d="M418.07,969.59s.06,.02,.07,.04c1.6,1.12,3.19,2.23,4.78,3.35,21.63,15.13,43.13,27.73,64.76,42.85,23.48,16.42,40.79,27.74,64.25,44.15,1.81,1.26,13.15,9.4,19.66,21.54,10.42,28.45,9.62,66.67-1.75,92.93-6.87-5.48-19.6-14.44-34.76-24.78,1.44,.31,2.88,.58,4.33,.77,1.81,.25,3.53,.37,5.16,.37,5.07,0,9.33-1.14,12.83-3.18,.26,.14,.52,.29,.77,.44,5.83,3.31,9.81,5.38,9.81,5.38,0,0-3.64-2.61-9.22-6.32-.09-.07-.18-.13-.27-.19,8.5-5.73,12.05-17.23,11.32-30.67-1.94-35.46-27.62-54.04-55.03-71.34-16.82-10.61-36.2-21.68-52.5-33.02-13.94-9.66-30.3-20.69-42.08-31.87-.12-.63-.23-1.2-.34-1.78-1.06-5.55-1.82-8.69-1.82-8.69Z" style="fill:#dfe6f4; fill-rule:evenodd;"/><path d="M558.52,1146.94c.09,.05,.18,.12,.27,.19,5.58,3.71,9.22,6.32,9.22,6.32,0,0-3.98-2.07-9.81-5.38-.25-.15-.51-.3-.77-.44,.38-.23,.74-.45,1.1-.69Z" style="fill:#dfe6f4; fill-rule:evenodd;"/><path d="M409.21,963.38l-.44-8.05,483.96-16.08,149.15,101.7s-469.74,41.55-470.23,40.64c-6.51-12.18-17.88-20.34-19.7-21.61-23.47-16.41-40.77-27.73-64.25-44.15-21.63-15.12-43.13-27.72-64.76-42.85-4.57-3.2-9.14-6.39-13.72-9.6Z" style="fill:#71aeec; fill-rule:evenodd;"/><path d="M553.93,1053.67c31.13,27.73,32.72,102.81,7.45,135.43,0,0,474.61-26.13,475.84-26.2,17.4-.96,23.34-32.13,25.03-44.92,2.54-19.04,1.13-92.36-32.48-90.51l-475.84,26.2Z" style="fill:#71aeec; fill-rule:evenodd;"/><path d="M569.86,1174.47h0c-1,2.31-2.09,4.53-3.25,6.64h0c1.16-2.11,2.25-4.33,3.25-6.64Z" style="fill:#5a909a; fill-rule:evenodd;"/><path d="M566.61,1181.1h0c-1.13,2.03-2.33,3.97-3.6,5.8,1.28-1.82,2.48-3.76,3.6-5.8Z" style="fill:#66a2ad; fill-rule:evenodd;"/><path d="M569.86,1174.45h0s0,.02,0,.02h0s0,0,0-.02Z" style="fill:#e7dbab; fill-rule:evenodd;"/><path d="M571.61,1081.52s.02,.05,.04,.07c0,0,0,0,0,0,10.39,28.44,9.58,66.62-1.79,92.86h0c11.37-26.26,12.16-64.48,1.75-92.93Z" style="fill:#dbcf93; fill-rule:evenodd;"/><path d="M569.91,1077.2s.03,.04,.04,.06c.6,1.42,1.17,2.86,1.7,4.33,0,0,0,0,0,0-.02-.02-.03-.05-.04-.07-.54-1.46-1.1-2.9-1.7-4.31Z" style="fill:#5a909a; fill-rule:evenodd;"/><path d="M569.95,1077.27c7.93,9.84,14.38,20.84,18.61,32.83,4.07,11.56,5.33,22.9,7.13,34.88,.92,6.1,2.1,14.54,7.63,18.47,6.86,4.87,43.36,6.71,67.52,6.71,7.66,0,14.07-.19,17.92-.52,32.1-2.82,64-3.52,97.68-5.38,67.22-3.72,127.24-4.19,194.18-11.27,21.8-2.31,48.49-4.26,63.36-22.79,6-7.47,10.45-15.87,13.24-25.05,2.55-8.37,3.06-17.22,4.59-25.81,1.05,9.34,1.35,18.44,1.24,25.86-.09,5.22-.39,9.6-.78,12.63,0,.05-.02,.09-.02,.14-1.68,12.79-7.63,43.96-25.03,44.92-1.24,.07-475.84,26.2-475.84,26.2h0c.09-.11,.17-.24,.26-.34,.03-.05,.07-.09,.11-.14,.06-.06,.11-.13,.15-.2,.04-.05,.09-.11,.13-.16,.04-.05,.09-.12,.13-.17,.04-.06,.09-.13,.13-.19,.02-.04,.04-.05,.07-.09,.11-.16,.23-.32,.34-.48,.03-.02,.05-.05,.07-.09,.06-.09,.12-.17,.18-.26,.02-.02,.04-.05,.06-.08,1.28-1.82,2.48-3.76,3.6-5.8,1.16-2.11,2.25-4.33,3.25-6.64,0,0,0,0,0-.02,11.37-26.23,12.18-64.42,1.79-92.86-.53-1.47-1.1-2.91-1.7-4.33Z" style="fill:#619fdf; fill-rule:evenodd;"/><path d="M925.82,1033.2l15.62-.86c9.24,18.19,14.48,38.87,15.54,59.09,1.26,23.98,.27,52.56-8.07,76.33l-15.48,.86c11.72-38.43,14.53-97.29-7.61-135.42Z" style="fill:#4f8dcb; fill-rule:evenodd;"/><path d="M896.45,1034.81l15.63-.85c9.24,18.19,14.48,38.87,15.54,59.09,1.26,23.98,.27,52.56-8.06,76.33l-15.49,.85c11.73-38.43,14.54-97.29-7.62-135.42Z" style="fill:#4f8dcb; fill-rule:evenodd;"/><path d="M643.82,1048.73l81.32-4.48c9.23,18.19,14.09,38.7,15.54,59.11,1.69,23.95,1.79,53.12-8.08,76.32l-81.15,4.47c11.71-38.42,14.53-97.28-7.63-135.41Z" style="fill:#4f8dcb; fill-rule:evenodd;"/><polygon points="408.76 955.33 892.14 928.72 1041.29 1030.43 557.92 1057.05 408.76 955.33" style="fill:#86bdf4; fill-rule:evenodd;"/><polygon points="789.31 952.96 865.14 948.78 963.9 1016.11 888.05 1020.3 789.31 952.96" style="fill:#619fdf; fill-rule:evenodd;"/><path d="M614.33,905.53c16.77,29.35,15.55,91.31,3.99,123.21,0,0,381.27-21.36,382.28-21.43,10.63-.59,18.91-24.61,20.19-36.76,1.92-18.08,.16-87.79-27.29-86.26l-379.17,21.24Z" style="fill:#71aeec; fill-rule:evenodd;"/><path d="M997.11,893.08s13.41,9.53,14.77,53.6c.66,21.39-1.18,38.56-11.93,49.26-1.19,1.2,.54,9.69,.64,11.37l-420.19,23.55-147.49-103.36-.37-8.39,564.56-26.04Z" style="fill:#4f8dcb; fill-rule:evenodd;"/><polygon points="432.55 919.12 579.54 1020.31 999.96 995.94 1000.6 1007.32 580.41 1030.87 432.92 927.51 432.55 919.12" style="fill:#71aeec; fill-rule:evenodd;"/><path d="M456.25,916.48c-.16,3.1-.41,6.2-.72,9.34,0,0,109.04,69.94,128.9,86.63,0,0,15.28-44.38,.91-97.13,0,0-124.96-78.07-136.14-84.11,0,0,2.93,12,5.14,30.32,.12,.94,.23,1.9,.33,2.89,1.62,14.21,2.7,31.81,1.71,50.32-.03,.57-.08,1.16-.12,1.74Z" style="fill:#fff; fill-rule:evenodd;"/><path d="M589.4,983.67c-.92,10.75-2.6,20.72-4.98,28.77,0,0,387.33-21.69,388.38-21.75,14.56-.81,19.56-25.71,21-35.92,2.14-15.2,1.06-73.68-27.06-72.1l-388.38,21.75c3.45,5.99,6.08,13.63,7.99,22.22,.46,2.07,.88,4.24,1.24,6.43,2.48,14.38,3.1,30.64,2.14,45.76-.09,1.62-.19,3.25-.34,4.85Z" style="fill:#fff; fill-rule:evenodd;"/><path d="M450.38,836.69h0c.42,2.1,.94,4.76,1.47,7.87h0c-.54-3.12-1.05-5.78-1.47-7.87Z" style="fill:#ebeadc; fill-rule:evenodd;"/><path d="M450.39,836.69c1.13,.78,2.25,1.56,3.36,2.35,2.38,1.66,5.68,3.88,9.67,6.54,.03,.86,.08,1.68,.12,2.44h0s.01,.08,.01,.12,0,.08,0,.12c0,.03,.01,.06,.01,.09,0,.05,0,.09,0,.13v.06c0,.06,0,.13,.02,.2v.05c.05,.63,.11,1.24,.16,1.78,0,0,0,.02,0,.02,0,.06,.01,.12,.02,.18h0c.05,.52,.13,1.07,.19,1.67-6.08-4.04-10.55-6.96-12.13-7.88-.54-3.11-1.05-5.78-1.47-7.87h0Zm71.81,54.46c3.99,.3,8.21,.6,12.68,.93,16.21,10.55,30.33,19.81,37.47,24.78,.04,.03,.27,.04,.7,.04,1.45,0,5.08-.12,10.56-.38,1.04,3.18,1.95,6.56,2.74,10.1,0,0,0,0,0,.02,.39,1.77,2.01,12.97,2.66,17.39-11.61-24.71-45.77-39.35-66.6-52.75-.07-.05-.15-.09-.22-.14Z" style="fill:#dfe6f4; fill-rule:evenodd;"/><path d="M985.04,894.07c.23,.37,.42,.74,.63,1.13,.21,.35,.38,.72,.57,1.1,.19,.37,.36,.76,.55,1.15,.18,.39,.37,.77,.55,1.18,.16,.38,.33,.78,.48,1.18,.17,.42,.34,.82,.5,1.23,.28,.74,.56,1.49,.81,2.25,6.05,17.86,5.94,42.21,4.69,51.37,0,.04,0,.08-.02,.11h0c-1.44,10.21-6.44,35.1-21,35.92h0c-.23,.02-19.67,1.1-49.71,2.79,9.95-2.72,18.56-9.17,24.74-17.57l38.84-2.48c.45-.03,.79-.42,.76-.86-.02-.44-.38-.77-.81-.77h-.03l-37.15,1.78c10.06-15.33,12.36-36.2,1.06-53.14,5.73-.42,10.59-.85,14.32-1.13,5.23-.47,8.21-.72,8.21-.72,0,0-3-.03-8.25-.08-1.15,0-2.41,.02-3.77,.02h-3.67c-2.49,0-5.23,0-8.18,.02-7.46-9.74-18.06-11.89-29.5-11.89-5.99,0-12.22,.58-18.33,.98-3.65,.24-7.3,.46-10.95,.66l14.27-9.57c35.87-2.07,64.95-3.75,80.4-4.65Z" style="fill:#dfe6f4; fill-rule:evenodd;"/><path d="M441.69,830.61l-.41-7.07,424.76-19.38,130.56,79.96,.52,9.24s-423.19,24.6-424.78,23.49c-20.64-14.39-99.59-64.56-118.6-77.82-4.04-2.81-8.04-5.63-12.06-8.43Z" style="fill:#71aeec; fill-rule:evenodd;"/><polygon points="441.28 823.54 865.53 794.92 996.6 884.13 572.09 907.91 441.28 823.54" style="fill:#86bdf4; fill-rule:evenodd;"/><polygon points="560.16 821.81 817.68 807.39 848.58 829.15 594.88 843.36 560.16 821.81" style="fill:#e7e4de; fill-rule:evenodd;"/><polygon points="833.16 812.85 825.77 913.46 877.07 917.22 1002.23 833.2 1002.71 825.3 833.16 812.85" style="fill:#619fdf; fill-rule:evenodd;"/><polygon points="870.94 911.98 877.07 917.22 1002.23 833.2 1002.71 825.3 870.94 911.98" style="fill:#71aeec; fill-rule:evenodd;"/><path d="M991.26,817.96c.1,2.92,.28,5.86,.52,8.82,0,0-103.92,64.13-122.91,79.54,0,0-18.05-30.73-1.17-84.1,0,0,120.95-78.99,131.59-84.51,0,0-2.96,11.26-5.32,28.48-.12,.91-.27,1.8-.38,2.74-1.77,13.37-3.05,29.94-2.43,47.39,.02,.54,.03,1.1,.09,1.64Z" style="fill:#fff; fill-rule:evenodd;"/><path d="M999.29,737.71c-.02,.07-.11,.43-.27,1.07-.33,1.35-.94,3.94-1.68,7.55-3.04,2.79-6.44,5.54-10.03,8.27,.41-1.88,.7-3.62,.85-5.15,.14-1.26,.26-2.81,.34-4.59,2.23-1.45,4.47-2.93,6.71-4.43,1.34-.9,2.68-1.8,4.01-2.7,.02-.02,.05-.02,.06-.03h0Zm-54.84,45.35c-8.89,5.3-18,10.49-26.36,15.55-22.97,13.9-44.5,28.9-46.64,58.22-.81,11.12,1.95,20.69,8.91,25.55-.08,.06-.15,.09-.23,.15-4.67,2.99-7.72,5.1-7.72,5.1,0,0,3.33-1.66,8.2-4.3,.22-.12,.43-.23,.65-.36,2.98,1.82,6.66,2.83,11.08,2.83,1.2,0,2.45-.07,3.76-.22,1.21-.14,2.39-.34,3.6-.58-12.7,8.32-23.37,15.56-29.14,19.99-9.01-21.91-9.1-53.57-.05-76.95,5.57-9.95,15.08-16.52,16.6-17.54,14.88-10,26.79-17.65,40.22-26.5,6.28-.34,12.02-.67,17.13-.95Z" style="fill:#dfe6f4; fill-rule:evenodd;"/><path d="M1006.72,732.71l.49-6.65-400.35-20.67-125.02,81.94s388.22,41.51,388.63,40.75c5.56-9.98,15.1-16.56,16.62-17.58,19.69-13.23,34.18-22.33,53.86-35.57,18.14-12.2,36.12-22.29,54.25-34.49,3.84-2.58,7.68-5.17,11.51-7.74Z" style="fill:#8ab9e8; fill-rule:evenodd;"/><path d="M885.56,805.26c-26.19,22.48-28.66,84.61-8.23,111.98,0,0-392.47-28.82-393.49-28.91-14.39-1.06-18.83-26.94-20.04-37.55-1.8-15.8,.46-76.47,28.28-74.42l393.49,28.9Z" style="fill:#86bdf4; fill-rule:evenodd;"/><path d="M870.5,828.04c-9.05,23.38-8.97,55.04,.05,76.95h0c-9.01-21.89-9.1-53.51-.07-76.89,0-.02,0-.02,0-.02,0,0,.02-.02,.02-.04Z" style="fill:#dbcf93; fill-rule:evenodd;"/><path d="M463.55,848.02h0Zm.01,.12s0,.08,0,.12c0-.04,0-.08,0-.12h0Zm.02,.21s0,.09,0,.13c0-.04,0-.09,0-.13h0Zm0,.2c0,.06,0,.13,.02,.2-.01-.06-.02-.13-.02-.2h0Zm.02,.25c.05,.63,.11,1.24,.16,1.78-.06-.54-.12-1.14-.16-1.78h0Zm.17,1.8c0,.06,.01,.12,.02,.18,0-.06-.02-.12-.02-.18Z" style="fill:#dbd09a; fill-rule:evenodd;"/><path d="M464.75,818.8c1.12,7.13,1.43,14.46,3.42,21.44,2.15,7.64,5.7,14.65,10.56,20.93,12.03,15.55,34.08,17.58,52.1,19.81,55.32,6.89,105,8.19,160.57,12.29,27.86,2.04,54.26,3.11,80.78,5.94,4.43,.46,13.01,.77,22.74,.77,19.26,0,43.04-1.18,48.06-4.62,4.63-3.16,5.75-10.12,6.62-15.17,1.66-9.89,2.88-19.26,6.43-28.76,3.69-9.88,9.19-18.88,15.91-26.91-.52,1.17-1.01,2.36-1.48,3.58-9.03,23.38-8.94,55,.07,76.89h0c.8,1.94,1.66,3.79,2.59,5.55,.9,1.72,1.87,3.34,2.91,4.88,0,0,.01,0,.02,.02,.06,.09,.11,.17,.17,.25t0,.02c.12,.17,.23,.34,.35,.51,0,0,0,0,0,0,.04,.06,.09,.12,.12,.17,.03,.04,.06,.09,.09,.12,.04,.05,.07,.1,.11,.16,.04,.05,.07,.11,.11,.16,.03,.04,.06,.09,.09,.12,.07,.09,.14,.19,.21,.29h0s-392.47-28.82-393.49-28.91c-14.39-1.06-18.83-26.94-20.04-37.55h0c0-.06-.02-.12-.02-.18,0,0,0-.02,0-.02-.06-.54-.12-1.14-.16-1.78v-.05c-.01-.06-.02-.13-.02-.2v-.06s0-.09,0-.13c0-.03-.01-.06-.01-.09,0-.04,0-.08,0-.12s0-.08-.01-.12h0c-.44-6.7-.3-17.76,1.2-29.22Z" style="fill:#619fdf; fill-rule:evenodd;"/><path d="M553.74,780.88l-12.92-.95c-7.91,14.92-12.58,31.96-13.75,48.69-1.41,19.83-1.02,43.49,5.53,63.31l12.79,.92c-9.12-31.97-10.55-80.73,8.36-111.97Z" style="fill:#4f8dcb; fill-rule:evenodd;"/><path d="M578.03,782.66l-12.93-.95c-7.92,14.92-12.57,31.95-13.75,48.67-1.42,19.84-1.02,43.49,5.51,63.31l12.81,.95c-9.11-32-10.55-80.74,8.36-111.98Z" style="fill:#4f8dcb; fill-rule:evenodd;"/><path d="M602.31,784.45l-12.93-.95c-7.92,14.92-12.56,31.95-13.75,48.67-1.42,19.83-1.02,43.5,5.5,63.3l12.81,.95c-9.12-31.99-10.54-80.75,8.36-111.98Z" style="fill:#4f8dcb; fill-rule:evenodd;"/><path d="M811.22,799.79l-67.24-4.93c-7.93,14.92-12.26,31.82-13.76,48.68-1.77,19.79-2.3,43.94,5.52,63.3l67.11,4.93c-9.11-31.98-10.55-80.74,8.37-111.98Z" style="fill:#4f8dcb; fill-rule:evenodd;"/><polygon points="1007.21 726.05 607.49 696.69 482.48 778.61 882.21 807.99 1007.21 726.05" style="fill:#619fdf; fill-rule:evenodd;"/><polygon points="692.24 718.32 629.53 713.71 546.75 767.95 609.48 772.56 692.24 718.32" style="fill:#8ab9e8; fill-rule:evenodd;"/><path d="M632.44,692.23c14.65,25.69,13.53,79.93,3.39,107.83,0,0,333.75-18.38,334.63-18.43,9.31-.51,16.57-21.54,17.7-32.17,1.71-15.82,.22-76.83-23.82-75.51l-331.9,18.27Z" style="fill:#71aeec; fill-rule:evenodd;"/><path d="M967.49,681.64s11.75,8.36,12.89,46.93c.57,18.73-1.05,33.75-10.47,43.11-1.05,1.03,.47,8.48,.55,9.95l-367.82,20.25-128.99-90.58-.33-7.35,494.17-22.32Z" style="fill:#4f8dcb; fill-rule:evenodd;"/><polygon points="473.32 703.96 601.9 792.66 969.91 771.67 970.46 781.64 602.64 801.88 473.65 711.3 473.32 703.96" style="fill:#71aeec; fill-rule:evenodd;"/><path d="M494.07,701.66c-.14,2.72-.35,5.44-.64,8.18,0,0,95.4,61.31,112.75,75.94,0,0,13.4-38.84,.88-85.02,0,0-109.31-68.43-119.09-73.73,0,0,2.56,10.5,4.46,26.54,.11,.82,.2,1.67,.3,2.54,1.42,12.44,2.33,27.84,1.45,44.03-.02,.51-.05,1.03-.11,1.53Z" style="fill:#fff; fill-rule:evenodd;"/><path d="M610.56,760.59c-.81,9.41-2.29,18.15-4.38,25.17,0,0,339.05-18.67,339.96-18.72,12.74-.71,17.15-22.49,18.41-31.42,1.89-13.29,1.01-64.5-23.62-63.13l-339.96,18.72c3.01,5.24,5.3,11.94,6.97,19.44,.41,1.83,.77,3.72,1.09,5.65,2.16,12.58,2.7,26.8,1.83,40.04-.06,1.42-.16,2.85-.3,4.24Z" style="fill:#fff; fill-rule:evenodd;"/><path d="M941.82,672.47h.06c-.31,0-.63,0-.96,.03l-339.96,18.72h0l235.74-12.99,104.21-5.73c.31-.02,.6-.03,.9-.03h0Zm7.27,1.8l.04,.02c.15,.08,.31,.17,.45,.26-.16-.1-.32-.2-.49-.28Z" style="fill:#ebeadc; fill-rule:evenodd;"/><path d="M941.88,672.47h.26c.28,0,.56,.02,.84,.04l.63,.07c.45,.05,.89,.11,1.34,.2l.66,.16c.42,.1,.83,.22,1.23,.35l.6,.23c.48,.18,.95,.41,1.42,.65l.23,.11c.17,.09,.33,.18,.49,.28,.38,.23,.74,.47,1.1,.72l.53,.41c.32,.25,.63,.5,.95,.78l.57,.53,.83,.84,.54,.59c.29,.33,.55,.69,.81,1.03l.43,.57c.38,.51,.74,1.06,1.08,1.62l.48,.81c.2,.34,.39,.67,.57,1.02,.18,.32,.34,.63,.5,.96,.18,.33,.33,.67,.49,1,.16,.34,.32,.68,.47,1.03,.15,.34,.29,.69,.44,1.04,.14,.35,.28,.71,.43,1.08,.23,.65,.48,1.31,.69,1.96,1.69,4.99,2.83,10.56,3.56,16.11,1.56,11.86,1.25,23.55,.48,28.96h0c-1.26,8.93-5.67,30.71-18.41,31.42h0s-.3,.02-.81,.05h-.01c-.07,0-.14,.02-.22,.02h-.02c-4.1,.23-19.85,1.09-42.48,2.34,8.72-2.38,16.27-8.01,21.7-15.36l34.02-2.14c.4-.02,.69-.36,.66-.75-.02-.38-.33-.67-.71-.67h-.03l-32.52,1.53c8.82-13.41,10.85-31.68,.97-46.5,5.02-.38,9.28-.75,12.54-.99,4.57-.4,7.19-.64,7.19-.64,0,0-2.62-.02-7.22-.06-.95,0-1.99,.02-3.1,.02-.79,0-1.62,0-2.48,0h-3.47c-1.47,0-3.01,0-4.64,0-6.53-8.55-15.84-10.42-25.87-10.42-5.22,0-10.64,.51-15.97,.85-21.64,1.37-43.3,2.01-64.95,3.16-12.36,.67-24.7,1.17-37.05,1.78-30.87,1.5-61.74,3-92.61,4.49-5.84,.29-11.71,.71-17.57,.85-14.12,.34-25.14,1.74-33.93,4.27-5.09,.3-9.86,.59-14.09,.84-5.88,.36-10.75,.66-14.09,.87-.65-3.22-1.41-6.49-2.3-9.8,0,0-.85-.53-2.4-1.5-1.09-2.94-2.32-5.65-3.69-8.04l339.96-18.72c.32-.02,.64-.03,.96-.03h0Zm-318.44,42.49c-5.36,.48-9.84,.91-13.07,1.21,.54,3.31,.95,6.54,1.27,9.72,3.24-4.33,7.05-7.96,11.8-10.93Z" style="fill:#dfe6f4; fill-rule:evenodd;"/><path d="M481.39,626.51l-.35-6.19,371.81-16.61,114.22,70.1,.45,8.09s-370.44,21.18-371.82,20.21c-18.05-12.62-87.12-56.59-103.74-68.22-3.52-2.46-7.04-4.93-10.56-7.38Z" style="fill:#71aeec; fill-rule:evenodd;"/><polygon points="481.04 620.32 852.4 595.61 967.06 673.8 595.46 694.27 481.04 620.32" style="fill:#86bdf4; fill-rule:evenodd;"/></g><g><polygon points="1533.29 1064.01 1526.59 1185.67 1588.62 1189.08 1737.91 1084.85 1738.32 1075.3 1533.29 1064.01" style="fill:#619fdf; fill-rule:evenodd;"/><polygon points="1581.11 1182.89 1588.62 1189.08 1737.91 1084.85 1738.32 1075.3 1581.11 1182.89" style="fill:#71aeec; fill-rule:evenodd;"/><path d="M1724.32,1066.68c.2,3.54,.47,7.07,.82,10.63,0,0-124.08,79.75-146.66,98.77,0,0-22.48-36.72-3.29-101.53,0,0,144.35-98.08,157.06-104.97,0,0-3.32,13.67-5.8,34.52-.16,1.08-.27,2.17-.39,3.29-1.83,16.19-3.04,36.22-1.88,57.29,.03,.66,.06,1.33,.13,1.99Z" style="fill:#fff; fill-rule:evenodd;"/><path d="M1732.25,969.59s-.05,.02-.08,.04c-1.6,1.12-3.19,2.23-4.78,3.35-21.63,15.13-43.13,27.73-64.76,42.85-23.48,16.42-40.79,27.74-64.25,44.15-1.81,1.26-13.15,9.4-19.67,21.54-10.41,28.45-9.62,66.67,1.75,92.93,6.88-5.48,19.6-14.44,34.76-24.78-1.44,.31-2.88,.58-4.33,.77-1.81,.25-3.53,.37-5.17,.37-5.06,0-9.34-1.14-12.83-3.18-.27,.14-.52,.29-.77,.44-5.83,3.31-9.81,5.38-9.81,5.38,0,0,3.64-2.61,9.22-6.32,.09-.07,.18-.13,.27-.19-8.51-5.73-12.05-17.23-11.32-30.67,1.95-35.46,27.62-54.04,55.03-71.34,16.82-10.61,36.2-21.68,52.5-33.02,13.93-9.66,30.3-20.69,42.08-31.87,.11-.63,.23-1.2,.34-1.78,1.05-5.55,1.82-8.69,1.82-8.69Z" style="fill:#dfe6f4; fill-rule:evenodd;"/><path d="M1591.81,1146.94c-.09,.05-.19,.12-.27,.19-5.58,3.71-9.22,6.32-9.22,6.32,0,0,3.98-2.07,9.81-5.38,.26-.15,.51-.3,.77-.44-.38-.23-.74-.45-1.1-.69Z" style="fill:#dfe6f4; fill-rule:evenodd;"/><path d="M1741.11,963.38l.45-8.05-483.96-16.08-149.15,101.7s469.74,41.55,470.23,40.64c6.51-12.18,17.88-20.34,19.7-21.61,23.47-16.41,40.77-27.73,64.25-44.15,21.63-15.12,43.13-27.72,64.76-42.85,4.57-3.2,9.14-6.39,13.72-9.6Z" style="fill:#71aeec; fill-rule:evenodd;"/><path d="M1596.39,1053.67c-31.12,27.73-32.72,102.81-7.46,135.43,0,0-474.6-26.13-475.85-26.2-17.39-.96-23.33-32.13-25.02-44.92-2.54-19.04-1.13-92.36,32.49-90.51l475.83,26.2Z" style="fill:#71aeec; fill-rule:evenodd;"/><path d="M1580.46,1174.47h0c1.01,2.31,2.09,4.53,3.26,6.64h0c-1.17-2.11-2.25-4.33-3.26-6.64Z" style="fill:#5a909a; fill-rule:evenodd;"/><path d="M1583.72,1181.1h0c1.13,2.03,2.33,3.97,3.6,5.8-1.27-1.82-2.47-3.76-3.6-5.8Z" style="fill:#66a2ad; fill-rule:evenodd;"/><path d="M1578.71,1081.52s-.02,.05-.03,.07t-.02,0c-10.38,28.44-9.57,66.62,1.8,92.86h0c-11.37-26.26-12.17-64.48-1.75-92.93Z" style="fill:#dbcf93; fill-rule:evenodd;"/><path d="M1580.42,1077.2s-.03,.04-.05,.06c-.59,1.42-1.16,2.86-1.71,4.33t.02,0s.03-.05,.03-.07c.54-1.46,1.11-2.9,1.71-4.31Z" style="fill:#5a909a; fill-rule:evenodd;"/><path d="M1580.37,1077.27c-7.93,9.84-14.38,20.84-18.61,32.83-4.07,11.56-5.33,22.9-7.14,34.88-.92,6.1-2.1,14.54-7.62,18.47-6.87,4.87-43.37,6.71-67.52,6.71-7.67,0-14.09-.19-17.93-.52-32.1-2.82-64-3.52-97.68-5.38-67.23-3.72-127.25-4.19-194.19-11.27-21.8-2.31-48.49-4.26-63.36-22.79-5.99-7.47-10.45-15.87-13.24-25.05-2.56-8.37-3.06-17.22-4.59-25.81-1.05,9.34-1.35,18.44-1.24,25.86,.09,5.22,.39,9.6,.78,12.63,.02,.05,.02,.09,.02,.14,1.69,12.79,7.63,43.96,25.02,44.92,1.24,.07,475.85,26.2,475.85,26.2h0c-.09-.11-.17-.24-.26-.34-.03-.05-.07-.09-.1-.14-.05-.06-.11-.13-.16-.2-.04-.05-.09-.11-.13-.16-.04-.05-.09-.12-.13-.17-.04-.06-.09-.13-.13-.19-.02-.04-.04-.05-.06-.09-.12-.16-.23-.32-.34-.48-.02-.02-.05-.05-.06-.09-.06-.09-.12-.17-.18-.26-.02-.02-.03-.05-.05-.08-1.27-1.82-2.47-3.76-3.6-5.8-1.17-2.11-2.25-4.33-3.26-6.64v-.02c-11.37-26.23-12.18-64.42-1.8-92.86,.55-1.47,1.11-2.91,1.71-4.33Z" style="fill:#619fdf; fill-rule:evenodd;"/><path d="M1224.5,1033.2l-15.62-.86c-9.24,18.19-14.48,38.87-15.54,59.09-1.25,23.98-.27,52.56,8.07,76.33l15.48,.86c-11.72-38.43-14.53-97.29,7.61-135.42Z" style="fill:#4f8dcb; fill-rule:evenodd;"/><path d="M1253.88,1034.81l-15.63-.85c-9.24,18.19-14.49,38.87-15.54,59.09-1.26,23.98-.27,52.56,8.07,76.33l15.49,.85c-11.74-38.43-14.53-97.29,7.61-135.42Z" style="fill:#4f8dcb; fill-rule:evenodd;"/><path d="M1506.5,1048.73l-81.32-4.48c-9.23,18.19-14.09,38.7-15.53,59.11-1.69,23.95-1.79,53.12,8.08,76.32l81.16,4.47c-11.71-38.42-14.53-97.28,7.62-135.41Z" style="fill:#4f8dcb; fill-rule:evenodd;"/><polygon points="1741.56 955.33 1258.18 928.72 1109.03 1030.43 1592.41 1057.05 1741.56 955.33" style="fill:#86bdf4; fill-rule:evenodd;"/><polygon points="1361.02 952.96 1285.18 948.78 1186.42 1016.11 1262.27 1020.3 1361.02 952.96" style="fill:#619fdf; fill-rule:evenodd;"/><path d="M1536,905.53c-16.78,29.35-15.54,91.31-3.99,123.21,0,0-381.27-21.36-382.29-21.43-10.63-.59-18.91-24.61-20.19-36.76-1.92-18.08-.16-87.79,27.29-86.26l379.17,21.24Z" style="fill:#71aeec; fill-rule:evenodd;"/><path d="M1153.21,893.08s-13.41,9.53-14.77,53.6c-.66,21.39,1.18,38.56,11.93,49.26,1.19,1.2-.54,9.69-.64,11.37l420.19,23.55,147.49-103.36,.37-8.39-564.56-26.04Z" style="fill:#4f8dcb; fill-rule:evenodd;"/><polygon points="1717.78 919.12 1570.78 1020.31 1150.36 995.94 1149.72 1007.32 1569.92 1030.87 1717.4 927.51 1717.78 919.12" style="fill:#71aeec; fill-rule:evenodd;"/><path d="M1694.07,916.48c.16,3.1,.42,6.2,.72,9.34,0,0-109.04,69.94-128.9,86.63,0,0-15.27-44.38-.91-97.13,0,0,124.96-78.07,136.14-84.11,0,0-2.93,12-5.14,30.32-.11,.94-.23,1.9-.32,2.89-1.63,14.21-2.7,31.81-1.71,50.32,.03,.57,.08,1.16,.12,1.74Z" style="fill:#fff; fill-rule:evenodd;"/><path d="M1560.92,983.67c.92,10.75,2.61,20.72,4.98,28.77,0,0-387.33-21.69-388.38-21.75-14.56-.81-19.56-25.71-21-35.92-2.14-15.2-1.07-73.68,27.06-72.1l388.38,21.75c-3.45,5.99-6.08,13.63-7.99,22.22-.47,2.07-.89,4.24-1.25,6.43-2.47,14.38-3.1,30.64-2.14,45.76,.09,1.62,.2,3.25,.35,4.85Z" style="fill:#fff; fill-rule:evenodd;"/><path d="M1699.94,836.69h0c-.42,2.1-.93,4.76-1.47,7.87h0c.54-3.12,1.05-5.78,1.47-7.87Z" style="fill:#ebeadc; fill-rule:evenodd;"/><path d="M1699.94,836.69c-1.13,.78-2.25,1.56-3.37,2.35-2.37,1.66-5.67,3.88-9.67,6.54-.02,.86-.07,1.68-.12,2.44h0s-.02,.08-.02,.12,0,.08,0,.12c0,.03,0,.06,0,.09,0,.05-.02,.09-.02,.13v.06c0,.06,0,.13-.02,.2v.05c-.05,.63-.11,1.24-.17,1.78,0,0,0,.02,0,.02,0,.06,0,.12-.02,.18h0c-.05,.52-.12,1.07-.2,1.67,6.08-4.04,10.56-6.96,12.13-7.88,.54-3.11,1.05-5.78,1.47-7.87h0Zm-71.81,54.46c-3.98,.3-8.21,.6-12.68,.93-16.21,10.55-30.33,19.81-37.47,24.78-.04,.03-.28,.04-.7,.04-1.46,0-5.09-.12-10.56-.38-1.05,3.18-1.96,6.56-2.74,10.1,0,0-.02,0-.02,.02-.38,1.77-2.01,12.97-2.65,17.39,11.61-24.71,45.77-39.35,66.6-52.75,.08-.05,.14-.09,.22-.14Z" style="fill:#dfe6f4; fill-rule:evenodd;"/><path d="M1165.28,894.07c-.22,.37-.42,.74-.63,1.13-.21,.35-.38,.72-.57,1.1-.19,.37-.36,.76-.55,1.15-.17,.39-.37,.77-.55,1.18-.16,.38-.33,.78-.48,1.18-.17,.42-.34,.82-.49,1.23-.29,.74-.56,1.49-.81,2.25-6.05,17.86-5.94,42.21-4.69,51.37,0,.04,.02,.08,.02,.11h0c1.44,10.21,6.44,35.1,21,35.92h0c.23,.02,19.66,1.1,49.71,2.79-9.95-2.72-18.55-9.17-24.74-17.57l-38.84-2.48c-.45-.03-.79-.42-.76-.86,.03-.44,.38-.77,.81-.77h.04l37.15,1.78c-10.05-15.33-12.36-36.2-1.06-53.14-5.73-.42-10.6-.85-14.32-1.13-5.23-.47-8.21-.72-8.21-.72,0,0,3-.03,8.25-.08,1.15,0,2.41,.02,3.76,.02h3.68c2.49,0,5.24,0,8.19,.02,7.47-9.74,18.06-11.89,29.5-11.89,5.99,0,12.21,.58,18.33,.98,3.65,.24,7.29,.46,10.95,.66l-14.27-9.57c-35.87-2.07-64.95-3.75-80.4-4.65Z" style="fill:#dfe6f4; fill-rule:evenodd;"/><path d="M1708.64,830.61l.4-7.07-424.76-19.38-130.56,79.96-.52,9.24s423.19,24.6,424.78,23.49c20.63-14.39,99.59-64.56,118.59-77.82,4.05-2.81,8.04-5.63,12.07-8.43Z" style="fill:#71aeec; fill-rule:evenodd;"/><polygon points="1709.04 823.54 1284.8 794.92 1153.72 884.13 1578.23 907.91 1709.04 823.54" style="fill:#86bdf4; fill-rule:evenodd;"/><polygon points="1590.17 821.81 1332.65 807.39 1301.74 829.15 1555.44 843.36 1590.17 821.81" style="fill:#e7e4de; fill-rule:evenodd;"/><polygon points="1317.16 812.85 1324.56 913.46 1273.25 917.22 1148.09 833.2 1147.62 825.3 1317.16 812.85" style="fill:#619fdf; fill-rule:evenodd;"/><polygon points="1279.38 911.98 1273.25 917.22 1148.09 833.2 1147.62 825.3 1279.38 911.98" style="fill:#71aeec; fill-rule:evenodd;"/><path d="M1159.07,817.96c-.11,2.92-.29,5.86-.52,8.82,0,0,103.92,64.13,122.91,79.54,0,0,18.04-30.73,1.17-84.1,0,0-120.95-78.99-131.59-84.51,0,0,2.96,11.26,5.33,28.48,.12,.91,.26,1.8,.37,2.74,1.77,13.37,3.05,29.94,2.43,47.39-.02,.54-.03,1.1-.09,1.64Z" style="fill:#fff; fill-rule:evenodd;"/><path d="M1151.04,737.71c.02,.07,.11,.43,.27,1.07,.33,1.35,.94,3.94,1.68,7.55,3.04,2.79,6.44,5.54,10.03,8.27-.4-1.88-.7-3.62-.85-5.15-.14-1.26-.25-2.81-.34-4.59-2.23-1.45-4.47-2.93-6.71-4.43-1.34-.9-2.68-1.8-4.01-2.7-.02-.02-.05-.02-.06-.03h0Zm54.84,45.35c8.89,5.3,18.01,10.49,26.37,15.55,22.96,13.9,44.5,28.9,46.64,58.22,.81,11.12-1.95,20.69-8.91,25.55,.09,.06,.16,.09,.24,.15,4.66,2.99,7.72,5.1,7.72,5.1,0,0-3.33-1.66-8.2-4.3-.22-.12-.43-.23-.65-.36-2.98,1.82-6.66,2.83-11.09,2.83-1.2,0-2.44-.07-3.76-.22-1.21-.14-2.39-.34-3.6-.58,12.7,8.32,23.37,15.56,29.14,19.99,9.01-21.91,9.09-53.57,.05-76.95-5.57-9.95-15.09-16.52-16.6-17.54-14.88-10-26.79-17.65-40.21-26.5-6.28-.34-12.04-.67-17.14-.95Z" style="fill:#dfe6f4; fill-rule:evenodd;"/><path d="M1143.6,732.71l-.49-6.65,400.36-20.67,125.01,81.94s-388.22,41.51-388.63,40.75c-5.56-9.98-15.1-16.56-16.62-17.58-19.68-13.23-34.17-22.33-53.86-35.57-18.14-12.2-36.12-22.29-54.25-34.49-3.83-2.58-7.68-5.17-11.51-7.74Z" style="fill:#8ab9e8; fill-rule:evenodd;"/><path d="M1264.77,805.26c26.18,22.48,28.65,84.61,8.22,111.98,0,0,392.48-28.82,393.49-28.91,14.4-1.06,18.84-26.94,20.05-37.55,1.8-15.8-.46-76.47-28.28-74.42l-393.48,28.9Z" style="fill:#86bdf4; fill-rule:evenodd;"/><path d="M1279.83,828.04c9.05,23.38,8.97,55.04-.05,76.95h0c9.01-21.89,9.11-53.51,.08-76.89t0-.02s-.02-.02-.02-.04Z" style="fill:#dbcf93; fill-rule:evenodd;"/><path d="M1686.78,848.02h0Zm-.02,.12s0,.08,0,.12c0-.04,0-.08,0-.12h0Zm-.02,.21s-.02,.09-.02,.13c0-.04,.02-.09,.02-.13h0Zm-.02,.2c0,.06,0,.13-.02,.2,0-.06,.02-.13,.02-.2h0Zm-.02,.25c-.05,.63-.11,1.24-.17,1.78,.05-.54,.12-1.14,.17-1.78h0Zm-.17,1.8c0,.06,0,.12-.02,.18,0-.06,.02-.12,.02-.18Z" style="fill:#dbd09a; fill-rule:evenodd;"/><path d="M1685.58,818.8c-1.13,7.13-1.43,14.46-3.42,21.44-2.15,7.64-5.71,14.65-10.56,20.93-12.03,15.55-34.08,17.58-52.09,19.81-55.33,6.89-105,8.19-160.58,12.29-27.86,2.04-54.25,3.11-80.77,5.94-4.43,.46-13.01,.77-22.74,.77-19.27,0-43.04-1.18-48.07-4.62-4.62-3.16-5.75-10.12-6.61-15.17-1.66-9.89-2.88-19.26-6.43-28.76-3.69-9.88-9.19-18.88-15.91-26.91,.52,1.17,1.01,2.36,1.48,3.58,9.03,23.38,8.94,55-.08,76.89h0c-.79,1.94-1.66,3.79-2.59,5.55-.9,1.72-1.87,3.34-2.91,4.88,0,0,0,0,0,.02-.06,.09-.12,.17-.17,.25,0,0,0,0,0,.02-.12,.17-.23,.34-.35,.51,0,0,0,0,0,0-.04,.06-.09,.12-.13,.17-.02,.04-.05,.09-.09,.12-.03,.05-.08,.1-.11,.16-.04,.05-.08,.11-.12,.16-.03,.04-.06,.09-.09,.12-.08,.09-.14,.19-.22,.29h0s392.48-28.82,393.49-28.91c14.4-1.06,18.84-26.94,20.05-37.55h0c0-.06,.02-.12,.02-.18,0,0,0-.02,0-.02,.05-.54,.12-1.14,.17-1.78v-.05c0-.06,.02-.13,.02-.2v-.06s.02-.09,.02-.13c0-.03,0-.06,0-.09,0-.04,0-.08,0-.12s0-.08,.02-.12h0c.44-6.7,.3-17.76-1.21-29.22Z" style="fill:#619fdf; fill-rule:evenodd;"/><path d="M1596.58,780.88l12.92-.95c7.91,14.92,12.58,31.96,13.76,48.69,1.41,19.83,1.01,43.49-5.53,63.31l-12.79,.92c9.12-31.97,10.55-80.73-8.36-111.97Z" style="fill:#4f8dcb; fill-rule:evenodd;"/><path d="M1572.29,782.66l12.93-.95c7.91,14.92,12.57,31.95,13.75,48.67,1.42,19.84,1.02,43.49-5.51,63.31l-12.81,.95c9.12-32,10.55-80.74-8.36-111.98Z" style="fill:#4f8dcb; fill-rule:evenodd;"/><path d="M1548.01,784.45l12.93-.95c7.91,14.92,12.56,31.95,13.75,48.67,1.42,19.83,1.02,43.5-5.51,63.3l-12.81,.95c9.13-31.99,10.54-80.75-8.36-111.98Z" style="fill:#4f8dcb; fill-rule:evenodd;"/><path d="M1339.11,799.79l67.24-4.93c7.93,14.92,12.25,31.82,13.76,48.68,1.77,19.79,2.3,43.94-5.52,63.3l-67.11,4.93c9.12-31.98,10.56-80.74-8.36-111.98Z" style="fill:#4f8dcb; fill-rule:evenodd;"/><polygon points="1143.12 726.05 1542.84 696.69 1667.84 778.61 1268.11 807.99 1143.12 726.05" style="fill:#619fdf; fill-rule:evenodd;"/><polygon points="1458.08 718.32 1520.79 713.71 1603.57 767.95 1540.84 772.56 1458.08 718.32" style="fill:#8ab9e8; fill-rule:evenodd;"/><path d="M1517.88,692.23c-14.66,25.69-13.53,79.93-3.39,107.83,0,0-333.75-18.38-334.63-18.43-9.31-.51-16.57-21.54-17.7-32.17-1.71-15.82-.22-76.83,23.82-75.51l331.9,18.27Z" style="fill:#71aeec; fill-rule:evenodd;"/><path d="M1182.83,681.64s-11.75,8.36-12.89,46.93c-.57,18.73,1.05,33.75,10.47,43.11,1.05,1.03-.47,8.48-.55,9.95l367.82,20.25,128.99-90.58,.33-7.35-494.17-22.32Z" style="fill:#4f8dcb; fill-rule:evenodd;"/><polygon points="1677 703.96 1548.43 792.66 1180.41 771.67 1179.87 781.64 1547.68 801.88 1676.67 711.3 1677 703.96" style="fill:#71aeec; fill-rule:evenodd;"/><path d="M1656.26,701.66c.14,2.72,.35,5.44,.63,8.18,0,0-95.4,61.31-112.76,75.94,0,0-13.4-38.84-.88-85.02,0,0,109.31-68.43,119.09-73.73,0,0-2.55,10.5-4.46,26.54-.1,.82-.2,1.67-.3,2.54-1.41,12.44-2.33,27.84-1.44,44.03,.02,.51,.05,1.03,.11,1.53Z" style="fill:#fff; fill-rule:evenodd;"/><path d="M1539.77,760.59c.81,9.41,2.29,18.15,4.38,25.17,0,0-339.06-18.67-339.97-18.72-12.74-.71-17.15-22.49-18.41-31.42-1.89-13.29-1.01-64.5,23.62-63.13l339.95,18.72c-3,5.24-5.3,11.94-6.96,19.44-.41,1.83-.77,3.72-1.1,5.65-2.15,12.58-2.69,26.8-1.82,40.04,.05,1.42,.16,2.85,.3,4.24Z" style="fill:#fff; fill-rule:evenodd;"/><path d="M1208.5,672.47h-.05c.31,0,.63,0,.95,.03l339.95,18.72h0l-235.74-12.99-104.21-5.73c-.31-.02-.61-.03-.9-.03h0Zm-7.27,1.8l-.03,.02c-.16,.08-.3,.17-.45,.26,.17-.1,.33-.2,.49-.28Z" style="fill:#ebeadc; fill-rule:evenodd;"/><path d="M1208.44,672.47h-.27c-.28,0-.56,.02-.84,.04l-.63,.07c-.46,.05-.89,.11-1.34,.2l-.67,.16c-.42,.1-.82,.22-1.23,.35l-.6,.23c-.48,.18-.95,.41-1.41,.65l-.24,.11c-.16,.09-.32,.18-.49,.28-.38,.23-.74,.47-1.1,.72l-.53,.41c-.32,.25-.63,.5-.95,.78l-.57,.53-.83,.84-.54,.59c-.29,.33-.55,.69-.81,1.03l-.43,.57c-.38,.51-.74,1.06-1.09,1.62l-.49,.81c-.2,.34-.38,.67-.57,1.02-.17,.32-.34,.63-.49,.96-.18,.33-.34,.67-.49,1-.16,.34-.31,.68-.47,1.03-.16,.34-.28,.69-.44,1.04-.14,.35-.28,.71-.44,1.08-.23,.65-.48,1.31-.69,1.96-1.69,4.99-2.83,10.56-3.57,16.11-1.56,11.86-1.25,23.55-.48,28.96h0c1.26,8.93,5.67,30.71,18.41,31.42h0s.31,.02,.81,.05h.02c.07,0,.14,.02,.22,.02h.02c4.1,.23,19.84,1.09,42.48,2.34-8.73-2.38-16.27-8.01-21.7-15.36l-34.02-2.14c-.39-.02-.68-.36-.67-.75,.02-.38,.34-.67,.71-.67h.04l32.51,1.53c-8.82-13.41-10.85-31.68-.96-46.5-5.02-.38-9.28-.75-12.54-.99-4.59-.4-7.2-.64-7.2-.64,0,0,2.62-.02,7.22-.06,.95,0,1.98,.02,3.1,.02,.79,0,1.62,0,2.48,0h3.47c1.47,0,3.02,0,4.64,0,6.53-8.55,15.84-10.42,25.87-10.42,5.22,0,10.64,.51,15.97,.85,21.63,1.37,43.3,2.01,64.94,3.16,12.36,.67,24.71,1.17,37.05,1.78,30.86,1.5,61.73,3,92.61,4.49,5.84,.29,11.71,.71,17.58,.85,14.11,.34,25.14,1.74,33.93,4.27,5.09,.3,9.84,.59,14.08,.84,5.89,.36,10.76,.66,14.09,.87,.66-3.22,1.41-6.49,2.3-9.8,0,0,.85-.53,2.4-1.5,1.09-2.94,2.32-5.65,3.69-8.04l-339.95-18.72c-.33-.02-.64-.03-.95-.03h0Zm318.43,42.49c5.36,.48,9.84,.91,13.08,1.21-.54,3.31-.95,6.54-1.27,9.72-3.24-4.33-7.05-7.96-11.81-10.93Z" style="fill:#dfe6f4; fill-rule:evenodd;"/><path d="M1668.94,626.51l.34-6.19-371.8-16.61-114.22,70.1-.45,8.09s370.44,21.18,371.82,20.21c18.05-12.62,87.12-56.59,103.73-68.22,3.52-2.46,7.04-4.93,10.56-7.38Z" style="fill:#71aeec; fill-rule:evenodd;"/><polygon points="1669.28 620.32 1297.92 595.61 1183.26 673.8 1554.86 694.27 1669.28 620.32" style="fill:#86bdf4; fill-rule:evenodd;"/></g><g><path d="M923.81,663.74l391.17-452.1c46.41,4.69,76.72,4.66,90.95-.05l262.71,455.14c-496.55-2-744.83-2.99-744.83-2.99Z" style="fill:#deecf9; fill-rule:evenodd;"/><path d="M1412.73,208.02l173.85,433.21c-81.67-2.33-122.51-3.5-122.51-3.5l-101.64-422.74c27.4,.79,44.17-1.53,50.29-6.97Z" style="fill:#fff; fill-rule:evenodd;"/><path d="M1352.87,214.62l81.43,445.88-534.39,3.4c9.26-2.73,15.97-12.14,22.48-19.82l368.63-435.09c24.13,2.91,44.74,4.78,61.84,5.63Z" style="fill:#fff; fill-rule:evenodd;"/><path d="M1339.07,213.76l-71.03,424.85c-167.67,15.37-291.76,24.04-372.3,26.01,11.5-.72,19.2-11.76,26.65-20.56l368.63-435.09c17.97,2.17,33.97,3.76,48.05,4.78Z" style="fill:#eef8fb; fill-rule:evenodd;"/><path d="M1382.76,214.93c90.84,290.46,137.49,438.69,139.93,444.69l-89.46-5.02-80.36-439.98c11.57,.58,21.54,.68,29.89,.31Z" style="fill:#eef8fb; fill-rule:evenodd;"/><polygon points="1401.78 212.57 1415.43 204.46 1684.5 667.52 1652.54 665.92 1401.78 212.57" style="fill:#a3cffb; fill-rule:evenodd;"/><path d="M782.37,255.97l495.29-77.01c.52-.08,1.05-.13,1.6-.14,73.71-6.72,117.66-1.85,131.85,14.59,18.16,22.2-21.87,27.39-120.09,15.56l-368.63,435.09c-7.46,8.8-15.17,19.87-26.69,20.56l-431.85,26.25c-11.52,.7-28.28-12.04-21-21l318.53-392.91c7.28-8.98,9.59-19.23,21-21Z" style="fill:#4f8dcb; fill-rule:evenodd;"/><path d="M785.88,255.97l495.29-77.01c.52-.08,1.06-.13,1.6-.14,73.72-6.72,117.67-1.85,131.86,14.59,.22,.27,.42,.52,.62,.79,2.64,15.46-38.77,18.06-124.21,7.78l-368.63,435.08c-7.46,8.8-15.17,19.86-26.69,20.57l-431.86,26.25c-6.5,.4-14.66-3.48-19.24-8.55-.16-1.88,.34-3.73,1.74-5.45l318.53-392.91c7.27-8.98,9.59-19.23,21-21Z" style="fill:#71aeec; fill-rule:evenodd;"/><polygon points="969.87 302.15 1129.13 274.14 929.61 517.41 787.63 524.2 969.87 302.15" style="fill:#fff; fill-rule:evenodd;"/></g><g><path d="M1516.01,400.2s-10.09,65.72-11.91,91.48c-.92,12.96-2.24,23.37,5.91,32.08,0,0-20.28,1.98-27.15-3.64,0,0,1.35,2.75,2.6,3.98,0,0-22.67,.82-32.04-6.27-14.2-9.61-4.81-200.8,63.39-185.06,0,0,62.92-5.35,57.94,56.37,1.06,73.32,6.95,136.56,11.86,149.32-7.08,4.05-24.18-9.27-26.29-15.1-1.86-5.17-2.9-11.2-3.44-12.72,0,0,2.24,17.71,3.26,18.8,0,0-25.42-2.87-36.3-11.08-10.84-8.19-10.93-105.42-7.83-118.16Z" style="fill:#284190; fill-rule:evenodd;"/><path d="M1501.27,425.37s-13.38-21.16-16.61-39.28c-2.29-12.92,4.29-60.81,52.42-53.93,0,0,13.99,1.38,27.14,10.26,10.45,7.07,25.53,22.32,8.65,64.1l-4.37,14.12-67.23,4.73Z" style="fill:#284190; fill-rule:evenodd;"/><path d="M1539.22,502.44c19.71,4.41,44.57,59.14,56.74,94.21,15.49,36.86,19.13,133.81,10.12,136.99,16.62,41.89-81.49,1.54-76.97,1.1,4.54-.44,10.11-232.31,10.11-232.31Z" style="fill:#f47a44; fill-rule:evenodd;"/><path d="M1583.11,564.02c-12.87-29.2-29.72-58.41-43.89-61.59,0,0-.49,20.74-1.31,49.81,5.43,64.33,14.66,158.85,17,182.68,112.84,.6,15.89,9.95,28.2-170.9Z" style="fill:#f47a44; fill-rule:evenodd;"/><path d="M1466.81,490.31s-23.84,11.99-44.72,24.83c-11.65,7.17-23.7,28.94-20.34,32.8,2.29,2.63,8.78-1.87,7.02-.97-14.6,7.44,21.7,211.76,34.06,221.13,12.34,9.37,121.05,1.61,133.43-10.19s-9.5-48.01,1.21-120.51c10.71-72.5-32.67-135.1-38.24-134.96-5.57,.14-41.94-12.13-41.94-12.13h-30.48Z" style="fill:#fb9674; fill-rule:evenodd;"/><path d="M1442.82,768.09c12.34,9.37,90.13,9.57,123.25-.73,3.73-1.17,20.71-7.92,21.1-14.28-3.99-.75-19.86,1.16-26.3-.33-22.4-5.14-34.73-32.88-34.73-32.88,0,0-12.33-4.45-39.92-16.12-27.58-11.68-16.23-47.06-16.88-62.64-.66-15.58-17.62-54.57-67.6-93.18l-4.67,9.19c-3.57,35.51,34.32,202.3,45.75,210.97Z" style="fill:#f47a44; fill-rule:evenodd;"/><path d="M1489.76,406.46l-24.31,88.84s41.08,64.12,52.38,58.43c11.29-5.7-6.31-52.12-6.31-58.43s17.61-71.4,17.61-71.4l-39.35-17.44Z" style="fill:#ffb17d; fill-rule:evenodd;"/><path d="M1512.35,499.83c-.52-2.11-.84-3.69-.84-4.53,0-6.31,17.61-71.4,17.61-71.4l-39.35-17.44-8.05,29.4c7.03,30.36,19.7,50.6,30.64,63.97Z" style="fill:#ef8161; fill-rule:evenodd;"/><path d="M1570.68,413.59c-.18,13.68-5.63,34.23-17.95,52.01-12.08,17.44-20.99,18.7-36.64,8.29-13.5-8.99-29.57-29.59-28.09-51.05-4.05-31.01,12.35-58.71,36.62-61.88,24.27-3.16,47.8,21.41,46.06,52.64Z" style="fill:#ffb17d; fill-rule:evenodd;"/><path d="M1683.69,758.38c47.16-7.16,63.19-4.91,92.07,48.82,28.86,53.71,67.28,150.44,89.38,162.94,33.27,18.81,44.3,64.94,57.96,62.86,13.66-2.07,22.47,3.97,7.59,16.32-14.87,12.35-38.88,22.87-47.09,20.68-8.21-2.19-14.58-37.67-36.02-49.18-21.44-11.53-15-20.99-13.59-31.18,1.41-10.19-62.59-57.09-110.84-115.42-29.47-35.65-44.65-59.18-46.91-80.5-2.25-21.32,7.44-35.36,7.44-35.36Z" style="fill:#ffb17d; fill-rule:evenodd;"/><path d="M1800.62,953.18c-10.96-27.79-21.94-73.65-32.27-115.71-14.69-59.81-30.08-74-39.84-80.38-11.79-2.96-25.75-1.6-44.82,1.29,0,0-9.7,14.03-7.44,35.36,2.25,21.32,17.43,44.85,46.91,80.5,25.4,30.71,55.17,58.25,77.46,78.94Z" style="fill:#f3a169; fill-rule:evenodd;"/><path d="M1698.05,805.65s-12.54,94.7-24.24,104.32c-8.35,6.89-14.27,7.35-20.12-20.9-5.85-28.24,9.08-133.64,9.08-133.64l35.27,50.22Z" style="fill:#3b5bb2; fill-rule:evenodd;"/><polygon points="1688.05 856.9 1571.9 876.42 1637.48 782.39 1687.38 772.22 1717.31 779.11 1688.05 856.9" style="fill:#ef9859; fill-rule:evenodd;"/><path d="M1446.63,762.17c-41.21,73.96-13.06,120.95,37.02,125.75,50.08,4.78,129.15-4.36,175.24-42.66,46.08-38.29,83.92-78.79,78.64-84.84-5.29-6.04-290.9,1.75-290.9,1.75Z" style="fill:#f3a169; fill-rule:evenodd;"/><path d="M1680.32,817.35c8.43-25.32,18.16-44.74,36.99-45.09,19.81-.37,31.98,9.93,32.83,42.32,1.01,38.58,2.37,166.34,.59,223.15-1.35,43,11.18,56.76,10.12,101.59-.79,33.77,35.2,16.71,21.3,34.23-9.56,12.04-38.02,8.09-55.51,5.87-15.58-1.97,8.07-48.66-13.49-61.14-18.5-10.7-18.87-28.1-7.18-41.26,11.68-13.17,1.29-52.11-6.49-79.38-7.79-27.26-19.88-56.76-27.81-121.22-2.25-18.38,3.49-43.61,8.66-59.07Z" style="fill:#ffb17d; fill-rule:evenodd;"/><path d="M1518.45,497.13c6.64,24.34,7.9,39.28,6.77,48.71-.53,4.37-1.89,7.43-4.06,9.16-2.46,1.96-5.56,2.14-9.24,.53-5.08-2.21-11.79-8.32-19.98-18.38h0c-6.6-7.86-15.6-21.46-26.07-37.28l-3.55-5.38,5.48-2.44,3.01,4.55c10.36,15.68,19.27,29.14,25.66,36.76l.03,.04c7.59,9.33,13.55,14.88,17.78,16.72,1.5,.66,2.58,.74,3.19,.25,.91-.72,1.53-2.46,1.86-5.22,.94-7.79-1.24-22.48-6.22-42.41-.59-2.38-1.23-4.89-1.59-7.77l6.92,2.17Z" style="fill:#f47a44; fill-rule:evenodd;"/><path d="M1769.82,1159.76c-5.96,1.81-13.32,3.83-19.72,4.04-12.99,.43-16.89-13.85-17.75-33.24-.75-16.94-13.05-43.62-25.68-54.43-.23,.3-.46,.61-.72,.9-11.68,13.15-11.32,30.55,7.18,41.26,21.56,12.48-2.09,59.17,13.49,61.14,17.48,2.22,45.94,6.17,55.51-5.87,9.04-11.39-2.18-12.29-12.32-13.79Z" style="fill:#284190; fill-rule:evenodd;"/><path d="M1921.71,1033c-5.05,4.48-11.39,9.8-17.78,13.09-12.95,6.67-24.96-3.94-36.76-20.49-10.31-14.45-21.57-35.52-40.5-38.86-.06,.38-.12,.76-.22,1.13-4.47,17.17-10.58,35.9,14.26,36.3,28.95,.48,31.22,52.77,48.16,46.95,19.02-6.53,50.18-16.87,53.12-32.04,2.78-14.34-9.13-9.7-20.28-6.09Z" style="fill:#284190; fill-rule:evenodd;"/><path d="M1708.88,1072.18s-18.94,19.77-17.2,28c1.74,8.22,7.57,28.99,8.54,45,.97,16.01,1.85,34.39,1.85,34.39,0,0,6.81,0,7.35-1.93,.55-1.93,4.33-65.08,4.33-65.08l-4.87-40.38Z" style="fill:#284190; fill-rule:evenodd;"/><path d="M1826.68,986.74s-8.12,26.47-1.71,32.83c6.39,6.36,7.76,20.88,17.78,34.42,10,13.53,21.25,29.19,21.25,29.19,0,0,6.93-3.3,6.39-5.26-.53-1.96-32.26-59.03-32.26-59.03l-11.44-32.15Z" style="fill:#284190; fill-rule:evenodd;"/><path d="M1426.77,755.43s-19.11,78.46-3.07,117.61c8.12,19.81,20.31,22.13,70.21,20.92,48.45-1.17,109.51-2.29,125.9-3.06,20.46-1.17,42.97,21.97,42.97,21.97,0,0-14.28-57.88-4.55-104.61,9.74-46.74,25.46-49.89,25.46-49.89l-20.91-2.94h-236.01Z" style="fill:#4567c5; fill-rule:evenodd;"/><path d="M1421.24,728.31c10.46,22.18-11.25,60.47-3.65,71.51,7.61,11.03,51.15,1.54,79.69-21.42,28.54-22.97,82.54-28.01,82.54-28.01l-158.58-22.08Z" style="fill:#fb9674; fill-rule:evenodd;"/><g><path d="M1646.12,674.7c-43.79-19-72.48-27.15-86.07-24.48-.76,5.05-1.42,9.39-1.95,13.03,34.03-1.43,62.98,4.38,86.83,17.45,.48-.27,.96-.54,1.42-.81,.44-.24,.86-.49,1.3-.74,.04-.02,.08-.04,.12-.06,25.85-14.76,43.62-25.1,53.31-31,.13-.09,.27-.17,.4-.25,.2-.12,.41-.25,.61-.37,.5-.31,.94-.59,1.31-.82l-.81-5.29c-40.58,25.56-51.26,31.83-56.48,33.35Z" style="fill:#badaf9; fill-rule:evenodd;"/><g style="opacity:.54;"><path d="M1702.6,641.35c-37.19,23.43-50.66,31.58-56.48,33.35l-1.19,6c.3-.17,3.71-2.12,4.01-2.29,24.02-13.72,41.87-24.09,51.49-29.94,.22-.13,.45-.27,.67-.4,.13-.09,.27-.17,.4-.25,.2-.12,.41-.25,.61-.37,.5-.31,.94-.59,1.31-.82l-.81-5.29Z" style="fill:#e5e5e5; fill-rule:evenodd;"/></g><path d="M1611.78,777.98l-2.71,1.59,37.28-102.53c27.55-15.71,46.14-26.53,55.75-32.43,4.9-3.02,3.43-2.72,6.04,3.65-26.4,58.89-40.03,92.34-40.89,100.33-33.47,17.18-52,25.76-55.47,29.38h0Zm-2.71,1.59l37.28-102.53-1.42,.81c-24.92-13.66-55.41-19.39-91.45-17.22-25.02,53.95-34.94,83.67-47.87,111.89,27.17-.05,78.42-3.62,103.47,7.04Z" style="fill:#4f8dcb; fill-rule:evenodd;"/><path d="M1644.93,677.85l-35.86,101.71c3.37,.27,52.54-28.08,58.18-30.97,.86-7.99,14.48-41.44,40.89-100.33-2.61-6.37-1.14-6.67-6.04-3.65-9.61,5.9-29.62,17.53-57.17,33.24Z" style="fill:#1e77d0; fill-rule:evenodd;"/></g><path d="M1530.5,749.16c6.64,2.93,35.62,3.02,45.97,.74,10.35-2.28,2.6-16.81-1.31-20.92-3.92-4.12-22.15-4.55-23.81-6.24-1.67-1.69,10.85-1.35,12.09-3.53,1.24-2.2-13.63-2.65-20.91-4.72-2.94,1.08-16.47,5.71-26.83,4.21-.32,6.5,.52,15.35-2.96,25.32,4.05,1.59,14.99,3.91,17.77,5.14Z" style="fill:#ffb17d; fill-rule:evenodd;"/><path d="M1422.97,732.53c.3,1.82,1.36,5.97,1.06,7.43,1.14,.14,3.52,.21,4.66,.35,4.49,.53,8.97,1.06,13.38,1.57,2.43,.27,4.84,.56,7.21,.81,30.28,3.37,56.17,5.47,59.09,2.99-22.98-3.5-23.88-4.27-25.72-4.4-22.22-1.53-41.01-6.52-59.69-8.76Z" style="fill:#f47a44; fill-rule:evenodd;"/><path d="M1552.17,356.04c29.9,17.54,20.49,29.48,28.23,45.4,0,0,8.97-30.81-5.06-47.8-14.88-18.03-23.17,2.39-23.17,2.39Z" style="fill:#284190; fill-rule:evenodd;"/><path d="M1556.18,354.54s-11.81,46.29-43.88,61.11c0,0,32.07-28.45,34.79-59,2.74-30.55,9.08-2.1,9.08-2.1Z" style="fill:#284190; fill-rule:evenodd;"/><path d="M1563.88,354.39c-3.97-1.86-6.72-1.48-8.26,1.16,1.03,6.27,3.97,10.9,8.82,13.92-1.61-2.73-1.8-7.76-.56-15.08Z" style="fill:#284190; fill-rule:evenodd;"/><path d="M1519.44,342.34c5.24-1.46,7.51-4.05,6.82-7.77-6.04-5.05-12.56-7.02-19.56-5.92,3.73,1.25,7.97,5.82,12.74,13.69Z" style="fill:#284190; fill-rule:evenodd;"/><g><path d="M1557.97,349.46s-16.56,44.21-41.96,50.73c-25.42,6.56-36.47-.27-36.47-.27,0,0,19.5-15.49,23.54-42.52,0,0,42.41-28.99,54.89-7.95Z" style="fill:#284190; fill-rule:evenodd;"/><path d="M1495.69,403.9c-11.22,0-16.38-3.11-16.6-3.24l-1.05-.65,.97-.77c.19-.15,19.28-15.61,23.21-41.96l.06-.38,.31-.21c.94-.65,23.24-15.76,40.41-15.76,7.25,0,12.53,2.72,15.71,8.08l.2,.35-.14,.39c-.68,1.82-17.01,44.7-42.56,51.26-7.4,1.91-14.3,2.87-20.53,2.87Zm-14.58-4.18c2,.86,6.75,2.45,14.58,2.45,6.08,0,12.85-.95,20.1-2.82,23.43-6.02,39.5-45.44,41.22-49.81-2.87-4.56-7.58-6.88-14.01-6.88-15.57,0-36.35,13.41-39.13,15.25-3.62,23.24-18.7,38.15-22.77,41.8Z" style="fill:#284190;"/></g><path d="M1490.23,447.69c.21-.74,.4-1.46,.57-2.16-1.96-6.4-2.63-13.71-1.7-21.72-6.14-5.42-19.44-.79-30.68,2.65-4.91,45.29-4.87,91.13-2.14,94.52,5.67,7.09,19.36,6.27,19.36,6.27-.75-1.22-1.57-3.98-1.57-3.98,4.16,5.62,16.41,3.64,16.41,3.64-4.92-8.71-4.12-19.12-3.58-32.08,.48-11.11,1.88-29.65,3.33-47.14Z" style="fill:#284190; fill-rule:evenodd;"/><path d="M1496.62,422.15c-.41,7.8-5.42,13.9-11.18,13.59-5.76-.31-10.1-6.89-9.69-14.71,.42-7.81,5.42-13.9,11.19-13.59,5.76,.31,10.09,6.89,9.68,14.71Z" style="fill:#ffb17d; fill-rule:evenodd;"/><path d="M1485.07,398.77c6.93-5.03,12.36-5.31,16.26-.81,.34,12.4-3.6,22.37-11.79,29.94,2.09-5.82,.59-15.53-4.47-29.13Z" style="fill:#284190; fill-rule:evenodd;"/><path d="M1565.83,376.23c3.24-12.1,6.61-15.65,10.1-10.67,3.01,19.74,2.79,38.06-.68,54.93,0-10.56-3.14-25.32-9.42-44.26Z" style="fill:#284190; fill-rule:evenodd;"/><path d="M1536.45,357.82c-3.85-11.91-2.96-16.73,2.68-14.45,13.27,14.93,23.04,30.43,29.3,46.48-10.21-9.43-33.42-21.67-31.97-32.03Z" style="fill:#284190; fill-rule:evenodd;"/><path d="M1520.46,341.15c-2.04-1.47-2.93-4.05-2.65-7.78,2.35-5.05,4.88-7.02,7.61-5.92-1.45,1.25-3.1,5.81-4.96,13.69Z" style="fill:#284190; fill-rule:evenodd;"/><path d="M1517.32,548.74c3.24-.56,6.52,2.81,7.33,7.51,.81,4.7-1.17,8.97-4.41,9.52-3.24,.56-6.52-2.8-7.32-7.51-.81-4.7,1.16-8.97,4.41-9.52Z" style="fill:#f47a44; fill-rule:evenodd;"/><path d="M1520.98,563.16c2-.34,4.02,1.73,4.52,4.63,.5,2.9-.72,5.52-2.71,5.87-2,.34-4.01-1.73-4.52-4.63-.49-2.9,.72-5.52,2.72-5.87Z" style="fill:#f47a44; fill-rule:evenodd;"/><path d="M1522.92,572.18c1.75-.3,3.53,1.53,3.98,4.07,.44,2.54-.63,4.85-2.39,5.15-1.76,.31-3.53-1.51-3.97-4.06-.44-2.54,.63-4.85,2.38-5.16Z" style="fill:#f47a44; fill-rule:evenodd;"/><path d="M1402.74,539.79c-20.09,64.22-16.96,58.39-29.87,98.01-9.41,28.9-24.32,72.89-2.43,80.46,39.1,13.51,133.88,32.38,139.68,27.42,6.82-5.84,7.83-26.11,6.86-29.03-.97-2.93-98.2-39.12-98.2-39.12,0,0,12.85-25.04,17.72-73.97,4.87-48.92-28.93-70.08-33.77-63.79Z" style="fill:#fb9674; fill-rule:evenodd;"/></g><g><path d="M386.27,1018.82c.06,4.07,.3,7.49,.61,9.86-.31-2.37-.54-5.79-.61-9.86Z" style="fill:#ebebe8; fill-rule:evenodd;"/><path d="M262.08,717.07c-3-3.87-7.1-6.79-11.21-9.35-1.09-.68-2.68-.22-3.28,.9-3.18,5.94-6.13,12.02-9.78,17.69-1.2,1.87-2.91,4.35-4.44,5.45-.1,.06-.48,.25-.66,.34-.02-.03-.04-.06-.07-.1-.3-.45-.47-.92-.63-1.43-2.84-8.72,.61-18.07-1.64-26.86-1.19-4.66-4.13-9.5-7.48-12.89-3.64-3.69-8.52-5.4-10.79-10.37-.34-.75-.96-1.1-1.63-1.17h-.45c-.81,.08-1.64,.53-2.09,1.2-5.25,7.55-12.6,15.35-14,24.79-1.24,8.38,3.29,15.38,8.12,21.74,2.34,3.08,4.64,6.21,6.46,9.63,1,1.89,2.73,5.29,.91,7.14-1.9,1.93-4.8-1.52-6.3-3.07-3.08-3.19-5.69-6.82-8.36-10.35-4.42-5.82-11.41-14.69-19.73-13.08-3.67,.71-5.16,4.5-5.35,7.79-.31,5.25,2.26,10.89,4.84,15.29,5.86,9.99,17.72,12.88,25.36,20.94,1.75,1.85,6.57,8.19,3.81,10.8-.97,.9-3.21,.6-4.35,.43-2.81-.43-5.87-1.46-8.13-3.2-8.58-6.64-11.71-18.18-20.73-24.47-3.96-2.75-10.05-4.44-14.8-3.31-4.03,.96-5.88,4.75-6.07,8.58-.22,4.63,1.89,9.41,4.23,13.29,2.7,4.47,6.4,8.21,10.95,10.81,9.1,5.16,20.6,5.82,26.65,15.34,.83,1.3,1.72,3,1.32,4.59-.31,1.23-2.05,1.62-3.09,1.85-4.66,1.03-10.78-.69-14.87-2.87-4.95-2.63-8.55-7.39-12.35-11.39-4.01-4.21-8.47-7.64-14.09-9.35-4.08-1.24-9.09-1.03-11.73,2.78-2.41,3.51-1.92,8.21-.94,12.1,1.3,5.15,4.11,9.92,7.56,13.91,3.72,4.32,9.59,6.77,14.86,8.53,5.47,1.83,11.16,2.95,16.57,4.99,1.43,.54,2.54,.92,4.11,1.03,1.67,.12,3.36,.04,5,.47,1.37,.34,.46,1.81,0,2.81-1.12,2.41-4.71,2.31-6.97,2.48-2.15,.17-4.26,.72-6.4,.74-2.47,0-4.93-.45-7.35-.82-4.81-.73-9.9-1.57-14.66-.13-4.6,1.4-7.85,5.73-8.67,10.38-1.73,9.76,9.18,15.71,17.27,16.95,5.19,.8,9.89-.34,14.45-2.92,5.62-3.17,10.04-7.75,16.54-8.55,.42,2.6-.5,4.68-2.81,6.62-3.17,2.68-7.56,4.13-11.39,5.56-7.55,2.8-18.59,5.29-22.64,13.11-.49,.95-.39,2.14,.41,2.9,3.58,3.41,7.7,6.09,12.73,6.5,4.18,.33,8.24-1.61,11.63-3.85,6.05-4.01,11.26-10.25,18.05-13.07-.94,1.72-2.5,2.89-4.41,4.37-3.4,2.64-5.14,6.29-6.08,10.41-1.42,6.25,.74,12.99,8.06,13.04,4,.02,8.01-2,11.35-4.01,3.81-2.29,6.87-5.62,9.24-9.34,2.94-4.62,4.57-9.96,5.48-15.42,6.13,11.93,19.43,24.4,31.97,14.09,10.72-8.81-6.94-15.57-13.91-22.51,1.38,.56,2.71,1.26,3.98,1.91,3.64,1.86,7.18,3.93,10.97,5.48,7.08,2.88,15.03,2.61,19.27-4.68,3.66-6.29-3.92-9.21-8.58-10.61-3.8-1.14-10.9-2.36-13.65-6.18,9.36,1.03,19.78,2.18,27.86-3.22,3.66-2.45,8.06-7.18,8.5-11.79,.36-3.76-3.72-5.09-6.65-5.38-7.99-.79-15.76,2.73-23.77,2.48-1.93-.06-3.83-.27-5.72-.69-.7-.16-1.42-.35-2.08-.65-.25-.11-.5-.33-.68-.45,.05-.12,.11-.25,.22-.38,.71-.83,1.64-1.45,2.54-2.04,2.05-1.35,4.2-2.14,6.64-2.39,4.65-.49,9.3,.09,13.94-.72,5.22-.91,9.45-3.93,12.9-7.82,3.06-3.45,6.01-7.83,6.5-12.54,.5-4.87-2.45-8.16-6.79-9.82-12.15-4.65-19.26,7.9-27.93,13.59-2.3,1.52-5.03,2.51-7.64,3.31-1.06,.33-4.2,1.41-5.23,.58-.62-.5,1.44-3.8,1.83-4.43,1.75-2.83,3.98-4.8,6.84-6.44,7.25-4.15,16.09-5.44,21.8-11.99,3.75-4.3,6.7-11.6,3.03-16.84-3.89-5.56-12.56-4.06-17.45-.82-6.16,4.07-9.26,12.32-16.67,14.28-.64-3.51,.73-6.75,3.09-9.86,3.46-4.57,7.92-8.32,12.02-12.27,3.93-3.79,7.97-7.92,10.02-13.08,2.1-5.28,.75-10.62-2.65-15Z" style="fill:#8ab9e8; fill-rule:evenodd;"/><path d="M445.17,886.07c1.18-4.75,.94-9.78,.41-14.6-.14-1.28-1.49-2.24-2.74-2.01-6.64,1.17-13.24,2.62-19.95,3.26-2.21,.22-5.22,.41-7.02-.11-.11-.05-.5-.23-.68-.3,.01-.04,.02-.07,.03-.12,.17-.51,.44-.93,.74-1.38,5.09-7.65,14.57-10.71,20.09-17.91,2.92-3.82,4.89-9.12,5.49-13.86,.64-5.14-1.04-10.03,1.47-14.89,.92-1.77-.97-3.36-2.6-3.26-9.18,.56-19.85-.39-28.14,4.35-7.35,4.21-10.04,12.1-12.05,19.83-.97,3.74-2.01,7.49-3.57,11.04-.86,1.94-2.47,5.41-5.04,5.13-2.7-.29-1.78-4.71-1.49-6.85,.59-4.4,1.83-8.69,2.95-12.97,1.84-7.07,4.48-18.05-1.94-23.59-2.83-2.44-6.72-1.26-9.44,.63-4.31,3.01-7.15,8.51-9.01,13.26-4.22,10.78,.85,21.9-.75,32.88-.37,2.52-2.38,10.24-6.13,9.67-1.31-.2-2.46-2.14-3.03-3.15-1.4-2.46-2.48-5.51-2.51-8.37-.1-10.85,7.02-20.45,6.39-31.43-.28-4.81-2.72-10.65-6.56-13.68-3.25-2.57-7.38-1.68-10.49,.55-3.77,2.69-6.22,7.32-7.82,11.54-1.85,4.89-2.49,10.12-1.71,15.28,1.56,10.34,8.17,19.79,4.43,30.43-.51,1.46-1.29,3.2-2.79,3.87-1.15,.52-2.54-.61-3.36-1.28-3.69-3.02-6.13-8.9-6.95-13.46-.99-5.51,.52-11.29,1.31-16.74,.83-5.75,.76-11.39-1.38-16.86-1.55-3.97-4.82-7.79-9.44-7.5-4.24,.27-7.64,3.57-10.08,6.75-3.24,4.21-5.25,9.37-6.25,14.55-1.09,5.59,.63,11.72,2.5,16.95,1.94,5.43,4.59,10.59,6.33,16.1,.45,1.46,.85,2.56,1.73,3.87,.94,1.38,2.05,2.66,2.73,4.21,.57,1.3-1.14,1.48-2.21,1.74-2.59,.61-4.73-2.27-6.27-3.94-1.46-1.57-3.19-2.9-4.53-4.58-1.54-1.92-2.7-4.14-3.92-6.28-2.39-4.23-4.88-8.76-8.96-11.6-3.95-2.75-9.36-2.62-13.52-.39-8.74,4.68-6.66,16.92-2.63,24.06,2.59,4.56,6.39,7.55,11.23,9.55,5.97,2.45,12.32,3.08,16.95,7.69-1.78,1.93-3.99,2.49-6.94,1.89-4.07-.83-7.92-3.39-11.41-5.52-6.87-4.19-15.66-11.32-24.3-9.67-1.05,.2-1.92,1.02-2.03,2.12-.47,4.92-.02,9.82,2.77,14.02,2.32,3.49,6.37,5.49,10.22,6.75,6.89,2.27,15.02,2.51,21.44,6.1-1.93,.33-3.83-.17-6.16-.76-4.17-1.04-8.12-.13-11.94,1.67-5.79,2.75-9.75,8.62-5.24,14.4,2.46,3.16,6.52,5.06,10.16,6.45,4.16,1.57,8.67,1.91,13.06,1.47,5.45-.56,10.65-2.57,15.5-5.23-5.57,12.18-7.14,30.35,8.73,33.82,13.56,2.97,7.94-15.09,9.07-24.86,.41,1.43,.68,2.91,.96,4.31,.79,4.02,1.36,8.07,2.49,12.01,2.12,7.35,7.25,13.42,15.6,12.23,7.2-1.02,4.81-8.77,3.02-13.3-1.46-3.69-4.88-10.02-3.59-14.55,4.98,7.99,10.53,16.89,19.77,19.89,4.19,1.35,10.62,1.89,14.51-.63,3.18-2.04,1.71-6.07,.12-8.56-4.33-6.75-11.9-10.68-16.66-17.13-1.14-1.55-2.16-3.18-3-4.91-.31-.65-.61-1.33-.78-2.04-.07-.26-.05-.6-.06-.82,.11-.03,.25-.06,.43-.05,1.1,.04,2.15,.39,3.18,.73,2.33,.78,4.28,1.98,5.99,3.74,3.26,3.36,5.68,7.36,9.19,10.51,3.94,3.53,8.94,4.99,14.12,5.29,4.61,.27,9.87-.12,13.87-2.65,4.13-2.61,4.89-6.98,3.51-11.42-3.87-12.42-18.13-10.23-27.96-13.51-2.61-.88-5.08-2.4-7.33-3.95-.92-.63-3.71-2.43-3.69-3.76,0-.79,3.87-1.22,4.61-1.3,3.31-.38,6.23,.15,9.29,1.39,7.74,3.12,14.23,9.27,22.91,9.7,5.7,.28,13.26-1.91,15.11-8.04,1.96-6.5-4.58-12.38-10.16-14.22-7-2.32-15.4,.34-21.53-4.25,2.36-2.68,5.74-3.61,9.66-3.68,5.72-.11,11.43,1.07,17.07,1.84,5.41,.75,11.15,1.37,16.47-.21,5.45-1.63,8.8-5.98,10.14-11.36Z" style="fill:#8ab9e8; fill-rule:evenodd;"/><path d="M119.77,753.81c-4.55-1.77-9.57-2.17-14.42-2.25-1.29-.02-2.41,1.19-2.35,2.46,.32,6.73,.92,13.47,.72,20.21-.07,2.22-.26,5.23-1.01,6.96-.05,.1-.28,.46-.38,.63-.04-.02-.07-.02-.12-.05-.48-.23-.88-.55-1.28-.9-6.93-6.02-8.78-15.81-15.23-22.19-3.41-3.38-8.43-6.01-13.05-7.2-5.02-1.28-10.08-.24-14.58-3.33-1.64-1.13-3.46,.54-3.57,2.16-.61,9.18-2.9,19.65,.76,28.46,3.24,7.83,10.73,11.5,18.14,14.46,3.59,1.43,7.18,2.94,10.49,4.94,1.83,1.1,5.06,3.14,4.45,5.66-.64,2.63-4.89,1.17-6.98,.61-4.28-1.15-8.39-2.93-12.49-4.57-6.79-2.72-17.34-6.72-23.65-1.06-2.78,2.49-2.11,6.51-.58,9.45,2.44,4.66,7.54,8.18,12.02,10.62,10.16,5.54,21.83,1.92,32.52,4.9,2.46,.69,9.85,3.65,8.82,7.31-.36,1.27-2.44,2.16-3.51,2.6-2.63,1.07-5.79,1.77-8.62,1.43-10.78-1.26-19.4-9.56-30.36-10.31-4.81-.33-10.9,1.37-14.4,4.79-2.96,2.89-2.6,7.1-.79,10.47,2.19,4.08,6.46,7.1,10.46,9.22,4.62,2.44,9.72,3.75,14.95,3.62,10.46-.24,20.66-5.6,30.75-.55,1.38,.69,3.02,1.69,3.49,3.26,.36,1.21-.93,2.44-1.7,3.17-3.47,3.29-9.6,4.95-14.23,5.2-5.6,.28-11.14-1.95-16.45-3.41-5.6-1.55-11.19-2.19-16.89-.77-4.14,1.03-8.33,3.8-8.63,8.41-.27,4.24,2.57,8.03,5.42,10.86,3.77,3.75,8.62,6.39,13.64,8.04,5.41,1.79,11.7,.86,17.13-.33,5.63-1.24,11.09-3.22,16.77-4.24,1.5-.27,2.65-.52,4.05-1.24,1.5-.76,2.91-1.69,4.53-2.18,1.36-.41,1.33,1.32,1.44,2.42,.28,2.64-2.85,4.4-4.7,5.72-1.75,1.25-3.29,2.8-5.13,3.91-2.1,1.28-4.45,2.16-6.71,3.09-4.51,1.84-9.3,3.73-12.64,7.43-3.23,3.57-3.78,8.95-2.1,13.36,3.54,9.26,15.95,8.75,23.53,5.65,4.86-2,8.31-5.38,10.89-9.93,3.19-5.62,4.62-11.83,9.77-15.85,1.7,2.01,1.97,4.26,1,7.13-1.34,3.93-4.37,7.43-6.92,10.62-5.03,6.28-13.22,14.1-12.67,22.88,.06,1.07,.76,2.04,1.84,2.29,4.83,1.08,9.74,1.26,14.26-.98,3.75-1.86,6.24-5.63,7.99-9.3,3.12-6.54,4.38-14.57,8.75-20.49,.08,1.96-.66,3.76-1.53,6.01-1.55,4.02-1.16,8.05,.15,12.06,1.99,6.08,7.32,10.76,13.62,7.02,3.44-2.03,5.84-5.83,7.67-9.26,2.1-3.93,3-8.36,3.12-12.78,.14-5.48-1.21-10.89-3.23-16.04,11.39,7.07,29.2,10.92,34.66-4.37,4.66-13.08-13.96-9.78-23.52-12.15,1.48-.23,2.98-.31,4.41-.41,4.08-.27,8.17-.33,12.22-.96,7.56-1.17,14.23-5.49,14.11-13.93-.1-7.26-8.1-5.87-12.82-4.67-3.84,.98-10.56,3.57-14.89,1.72,8.56-3.94,18.08-8.3,22.23-17.1,1.88-3.98,3.22-10.29,1.22-14.48-1.63-3.4-5.81-2.46-8.48-1.2-7.25,3.44-12.11,10.46-19.11,14.36-1.68,.94-3.42,1.75-5.25,2.36-.68,.23-1.4,.43-2.12,.51-.27,.03-.61-.02-.82-.04-.02-.12-.04-.26,0-.45,.18-1.08,.66-2.08,1.13-3.06,1.06-2.21,2.5-3.98,4.46-5.47,3.74-2.8,8.02-4.7,11.59-7.78,4.01-3.46,6.08-8.23,7.04-13.34,.84-4.54,1.13-9.81-.88-14.09-2.07-4.44-6.3-5.74-10.88-4.94-12.81,2.27-12.45,16.69-16.95,26.04-1.19,2.46-3.02,4.73-4.85,6.76-.75,.83-2.88,3.37-4.19,3.19-.79-.12-.72-4.01-.71-4.75,.04-3.33,.94-6.16,2.55-9.04,4.08-7.28,11-12.94,12.52-21.49,1-5.63-.22-13.4-6.06-16.01-6.2-2.76-12.86,2.98-15.39,8.28-3.18,6.66-1.6,15.32-6.94,20.82-2.35-2.68-2.84-6.15-2.43-10.05,.62-5.7,2.51-11.21,4-16.71,1.42-5.27,2.76-10.89,1.87-16.36-.92-5.61-4.82-9.49-9.99-11.5Z" style="fill:#8ab9e8; fill-rule:evenodd;"/><path d="M352.89,819.95c-.65-4.85-2.73-9.43-5-13.72-.61-1.14-2.21-1.53-3.29-.86-5.74,3.54-11.34,7.32-17.34,10.4-1.97,1.01-4.7,2.3-6.57,2.48-.12,.02-.55-.02-.74-.02,0-.04-.01-.08-.01-.13-.04-.52,.05-1.03,.16-1.55,1.92-8.98,9.59-15.33,12.06-24.06,1.31-4.62,1.19-10.28-.01-14.9-1.3-5.02-4.66-8.95-4.13-14.38,.2-1.99-2.14-2.76-3.62-2.07-8.33,3.9-18.6,6.96-24.55,14.43-5.28,6.62-4.87,14.96-3.88,22.88,.48,3.83,.9,7.7,.75,11.57-.08,2.13-.3,5.95-2.8,6.63-2.61,.72-3.39-3.71-3.91-5.81-1.06-4.3-1.5-8.75-2.04-13.14-.9-7.26-2.5-18.44-10.51-21.21-3.52-1.22-6.71,1.3-8.54,4.06-2.9,4.38-3.51,10.55-3.48,15.66,.05,11.57,8.87,20.03,11.44,30.83,.59,2.48,1.56,10.38-2.13,11.25-1.29,.3-3.08-1.09-3.97-1.82-2.21-1.78-4.35-4.2-5.43-6.85-4.1-10.04-1.01-21.59-5.66-31.56-2.04-4.37-6.46-8.89-11.14-10.3-3.97-1.19-7.48,1.17-9.55,4.38-2.51,3.9-3.08,9.09-3.01,13.62,.09,5.23,1.42,10.32,4.05,14.84,5.27,9.04,14.9,15.37,15.35,26.65,.06,1.54-.02,3.45-1.16,4.62-.88,.91-2.59,.37-3.6,.05-4.55-1.45-8.98-6.01-11.42-9.95-2.96-4.76-3.69-10.68-4.97-16.04-1.35-5.65-3.5-10.86-7.5-15.16-2.9-3.12-7.35-5.46-11.53-3.48-3.85,1.81-5.78,6.13-6.89,9.99-1.46,5.11-1.42,10.64-.44,15.82,1.06,5.6,4.91,10.67,8.57,14.84,3.81,4.33,8.18,8.15,11.83,12.63,.96,1.19,1.73,2.07,3.04,2.96,1.39,.94,2.89,1.71,4.09,2.9,1.01,1.01-.51,1.81-1.42,2.44-2.18,1.52-5.23-.38-7.27-1.35-1.94-.93-4.04-1.52-5.9-2.58-2.14-1.21-4.05-2.85-5.96-4.39-3.79-3.05-7.77-6.33-12.61-7.47-4.68-1.1-9.66,1.02-12.7,4.62-6.39,7.58,.05,18.19,6.44,23.33,4.09,3.29,8.73,4.66,13.96,4.73,6.46,.08,12.58-1.69,18.59,.89-.94,2.45-2.78,3.79-5.75,4.32-4.09,.72-8.62-.23-12.64-.92-7.94-1.37-18.74-4.75-26.16-.02-.9,.58-1.41,1.65-1.1,2.71,1.38,4.75,3.6,9.14,7.75,12,3.44,2.39,7.94,2.75,11.99,2.5,7.24-.43,14.88-3.21,22.17-2.25-1.67,1.02-3.62,1.24-6.01,1.57-4.26,.58-7.6,2.86-10.48,5.96-4.37,4.68-5.88,11.61,.44,15.31,3.45,2.03,7.93,2.29,11.82,2.24,4.45-.07,8.76-1.42,12.69-3.46,4.86-2.52,8.95-6.32,12.47-10.57-.68,13.38,4.57,30.84,20.6,28.21,13.7-2.25,1.81-16.95-.75-26.44,.91,1.17,1.71,2.44,2.49,3.65,2.21,3.44,4.23,7,6.74,10.24,4.68,6.06,11.7,9.8,19.02,5.63,6.31-3.61,1.23-9.93-2.11-13.49-2.71-2.89-8.24-7.52-8.71-12.2,7.58,5.59,16.01,11.82,25.71,11.19,4.4-.28,10.57-2.16,13.26-5.93,2.2-3.08-.66-6.28-3.06-8-6.52-4.68-15-5.54-21.81-9.77-1.63-1.03-3.18-2.16-4.6-3.46-.53-.49-1.06-1.02-1.47-1.6-.16-.22-.27-.55-.36-.74,.09-.07,.21-.15,.38-.21,1.03-.37,2.14-.44,3.22-.49,2.45-.15,4.7,.25,6.95,1.26,4.27,1.91,8,4.74,12.41,6.37,4.97,1.83,10.15,1.35,15.08-.29,4.39-1.45,9.13-3.76,11.91-7.58,2.88-3.96,1.98-8.29-.95-11.9-8.18-10.11-20.63-2.83-30.98-2.25-2.75,.16-5.61-.35-8.27-.97-1.09-.25-4.34-.89-4.82-2.13-.29-.74,3.15-2.57,3.81-2.92,2.93-1.57,5.84-2.15,9.14-2.14,8.35,.05,16.65,3.37,24.87,.56,5.4-1.84,11.62-6.67,11.07-13.05-.58-6.76-8.83-9.81-14.69-9.47-7.36,.44-14.18,6.01-21.58,3.99,1.2-3.36,4.01-5.46,7.62-6.97,5.28-2.21,11.02-3.22,16.55-4.59,5.3-1.31,10.87-2.86,15.22-6.28,4.46-3.51,5.97-8.8,5.23-14.31Z" style="fill:#a3cffb; fill-rule:evenodd;"/><path d="M317.42,773.49c-2.78,12.08-5.19,24.24-8.66,36.16-3.56,12.23-8.63,23.53-15.62,34.19-14.41,22-32.77,41.07-47.62,62.77-.61,.9-.5,1.78-.02,2.43-2.86,5.41-4.52,11.55-5.72,17.43-2.08,10.24-2.71,20.75-3.12,31.17-.51,12.74-.41,25.4,.18,38.14,.69,14.96,1.68,29.94,1.05,44.92-.04,.87-.09,1.74-.13,2.61-.17,3.1,4.63,3.08,4.81,0,.83-14.62-.03-29.27-.74-43.88-.64-13.03-.93-25.99-.46-39.03,.36-10.08,.86-20.18,2.58-30.13,1.57-9.05,4.07-19.29,10.9-25.91,.97-.94,.87-2.13,.27-2.97,13.88-18.87,29.79-36.2,42.64-55.83,6.88-10.5,11.79-21.83,15.4-33.84,3.65-12.14,6.05-24.59,8.89-36.94,.7-3.01-3.94-4.29-4.64-1.27Z" style="fill:#8ab9e8; fill-rule:evenodd;"/><path d="M238.98,1044.02c-2.61-23.38-13.37-44.3-24.51-64.63-11.05-20.16-22.69-40.6-26.07-63.68-.45-3.07-5.08-1.75-4.64,1.28,6.77,46.07,45.22,80.52,50.41,127.04,.34,3.04,5.15,3.08,4.81,0Z" style="fill:#8ab9e8; fill-rule:evenodd;"/><path d="M309.66,934.47c-20.58,8.98-40.73,22.73-54.54,40.62-7.54,9.77-11.97,20.87-14.75,32.51-1.05-12.13-3.28-24.15-5.6-36.1-5.42-27.88-9.59-55.88-12.21-84.18-1.04-11.22-1.82-22.47-2.34-33.73-.14-3.08-4.95-3.1-4.81,0,1.44,31.25,5.04,62.35,9.89,93.25,3.28,20.9,8.82,41.55,10.42,62.68-1.81-11.43-4.54-22.69-8.04-33.68-5.01-15.71-11.76-30.97-20.52-44.96,.05-.6-.12-1.24-.63-1.8-.59-.67-1.2-1.32-1.81-1.97-2.17-3.27-4.45-6.46-6.85-9.57-1.07-1.38-2.61-.88-3.42,.23-3.68-2.82-7.61-5.34-11.84-7.53-9.88-5.11-22.19-8.43-26.92-19.63-1.2-2.84-5.34-.39-4.15,2.43,4.7,11.13,16.19,15.27,26.23,20.15,9.01,4.37,16.62,10,23.43,17.18,9.61,14.62,16.77,30.87,22.08,47.48,6.44,20.17,10.12,41.37,10.17,62.56,0,.12,0,.23,.02,.34-.33,1.57,.92,2.61,2.22,2.7,.64,2.18,4.52,1.88,4.73-.87,1.76-22.74,4.35-46.62,18.92-65.15,13.44-17.12,32.94-30.17,52.74-38.81,2.84-1.24,.39-5.38-2.42-4.16Z" style="fill:#8ab9e8; fill-rule:evenodd;"/><path d="M165.77,772.98c-4.37-2.21-9.32-3.08-14.14-3.64-1.28-.15-2.51,.96-2.57,2.22-.33,6.73-.38,13.5-1.24,20.18-.28,2.21-.77,5.18-1.67,6.82-.05,.1-.32,.44-.44,.6-.04-.02-.07-.04-.11-.07-.46-.27-.82-.63-1.19-1.02-6.32-6.66-7.21-16.57-13.01-23.55-3.07-3.69-7.81-6.79-12.29-8.43-4.87-1.77-10.01-1.21-14.2-4.73-1.53-1.28-3.49,.2-3.76,1.82-1.5,9.07-4.79,19.27-2,28.41,2.48,8.1,9.57,12.47,16.66,16.14,3.43,1.79,6.86,3.62,9.97,5.93,1.71,1.28,4.73,3.62,3.89,6.06-.89,2.57-4.98,.7-7.01-.06-4.15-1.56-8.06-3.72-11.99-5.75-6.5-3.37-16.62-8.37-23.44-3.34-3,2.21-2.73,6.28-1.48,9.33,1.97,4.88,6.72,8.87,10.94,11.73,9.57,6.51,21.54,4.02,31.89,8.02,2.38,.92,9.45,4.59,8.07,8.13-.48,1.23-2.64,1.92-3.74,2.25-2.72,.81-5.93,1.2-8.71,.59-10.6-2.31-18.38-11.39-29.23-13.19-4.75-.79-10.98,.3-14.79,3.36-3.23,2.6-3.28,6.82-1.8,10.36,1.79,4.27,5.75,7.68,9.52,10.17,4.36,2.9,9.32,4.68,14.52,5.06,10.44,.77,21.11-3.58,30.66,2.43,1.3,.81,2.84,1.96,3.16,3.57,.25,1.24-1.16,2.34-2,2.99-3.77,2.93-10.04,4.01-14.66,3.79-5.6-.25-10.9-3-16.04-4.98-5.43-2.08-10.94-3.26-16.74-2.39-4.22,.63-8.66,2.97-9.41,7.54-.68,4.2,1.78,8.24,4.35,11.34,3.39,4.09,7.97,7.19,12.8,9.32,5.21,2.29,11.57,1.99,17.08,1.32,5.73-.69,11.35-2.13,17.11-2.61,1.52-.12,2.69-.25,4.15-.83,1.56-.62,3.06-1.41,4.71-1.73,1.4-.27,1.19,1.44,1.2,2.54,.02,2.66-3.26,4.11-5.23,5.24-1.86,1.08-3.55,2.47-5.47,3.41-2.22,1.07-4.64,1.72-6.98,2.43-4.66,1.39-9.62,2.82-13.3,6.17-3.56,3.24-4.62,8.54-3.38,13.09,2.63,9.56,15.02,10.26,22.87,7.9,5.03-1.51,8.79-4.55,11.8-8.83,3.71-5.29,5.73-11.33,11.26-14.83,1.49,2.17,1.55,4.44,.3,7.19-1.71,3.78-5.06,6.96-7.91,9.89-5.61,5.78-14.52,12.77-14.81,21.56-.04,1.07,.56,2.11,1.61,2.44,4.7,1.55,9.57,2.21,14.29,.41,3.91-1.49,6.75-4.99,8.85-8.46,3.74-6.22,5.77-14.08,10.69-19.56-.11,1.96-1.02,3.69-2.11,5.84-1.94,3.84-1.94,7.89-1.02,12.02,1.39,6.24,6.24,11.41,12.88,8.3,3.62-1.7,6.37-5.24,8.53-8.47,2.46-3.71,3.79-8.03,4.33-12.42,.67-5.44-.14-10.96-1.66-16.27,10.65,8.13,28.02,13.69,34.92-1.01,5.9-12.57-12.95-11.09-22.23-14.36,1.49-.08,2.99-.02,4.42,.02,4.09,.13,8.17,.47,12.26,.24,7.63-.43,14.69-4.1,15.39-12.51,.61-7.25-7.49-6.63-12.31-5.89-3.92,.6-10.86,2.54-14.99,.28,8.9-3.1,18.8-6.53,23.77-14.87,2.26-3.79,4.2-9.94,2.62-14.3-1.3-3.54-5.54-3.01-8.32-2.01-7.55,2.73-13.06,9.24-20.4,12.45-1.76,.77-3.58,1.4-5.45,1.84-.7,.16-1.44,.29-2.16,.3-.27,.02-.6-.08-.81-.13,0-.11,0-.26,.04-.43,.29-1.06,.86-2.01,1.42-2.94,1.27-2.1,2.88-3.73,4.97-5.01,3.99-2.43,8.44-3.91,12.28-6.63,4.32-3.06,6.85-7.61,8.29-12.6,1.28-4.44,2.07-9.65,.49-14.11-1.64-4.62-5.72-6.33-10.35-5.95-12.97,1.02-14,15.4-19.39,24.27-1.43,2.35-3.46,4.42-5.47,6.27-.83,.76-3.2,3.08-4.49,2.77-.77-.19-.33-4.05-.25-4.79,.36-3.31,1.53-6.04,3.41-8.76,4.77-6.86,12.2-11.82,14.54-20.18,1.54-5.5,1.07-13.35-4.49-16.51-5.91-3.36-13.09,1.72-16.12,6.75-3.81,6.32-3.08,15.09-8.92,20.05-2.09-2.89-2.24-6.39-1.44-10.23,1.16-5.62,3.58-10.92,5.59-16.25,1.93-5.12,3.8-10.57,3.44-16.1-.38-5.68-3.88-9.91-8.84-12.41Z" style="fill:#c2def9; fill-rule:evenodd;"/><polygon points="293.56 1185.34 189.87 1185.34 155.93 1051.25 325.14 1051.25 293.56 1185.34" style="fill:#c2def9; fill-rule:evenodd;"/><rect x="144.62" y="1033.82" width="189.48" height="17.43" style="fill:#8ab9e8;"/><polygon points="240.53 1051.25 155.93 1051.25 189.87 1185.34 240.53 1185.34 240.53 1051.25" style="fill:#a3cffb; fill-rule:evenodd;"/><rect x="144.62" y="1033.82" width="95.92" height="17.43" style="fill:#619fdf;"/><polygon points="293.56 1187.35 189.87 1187.35 155.93 1169.25 325.14 1169.25 293.56 1187.35" style="fill:#8ab9e8; fill-rule:evenodd;"/><polygon points="240.53 1169.25 155.93 1169.25 189.87 1187.35 240.53 1187.35 240.53 1169.25" style="fill:#619fdf; fill-rule:evenodd;"/></g><g><path d="M261.77,580.74c-2.5-17.33-13.81-33.15-29.39-41.12-15.58-7.97-35.03-7.9-50.54,.21-9.65-25.31-36.34-43.05-63.41-42.16-27.07,.9-52.53,20.37-60.48,46.26-17.06-.98-33.08,15.09-32.05,32.15-12.96-5.85-28.57,9.31-25.51,23.2,3.06,13.89,19.73,21.84,33.54,18.45,34.59,25.52,83.31,30.38,122.26,12.19,30.97,20.48,78.41,8.61,96.08-24.05-2.33,4.31,34.65,11.29,41.8-4.46,8.09-17.83-18.69-28.56-32.3-20.67Z" style="fill:#fff; fill-rule:evenodd;"/><path d="M.39,599.27c3.06,13.89,19.73,21.84,33.54,18.45,34.59,25.52,83.31,30.38,122.26,12.19,30.97,20.48,78.41,8.61,96.08-24.05-2.33,4.31,34.65,11.29,41.8-4.46,8.09-17.83-18.69-28.56-32.3-20.67-2.5-17.33-13.81-33.15-29.39-41.12-4.38-2.24-9.06-3.82-13.87-4.79,5.2,6.53,9.51,13.73,11.28,21.82,2.43,11.13-1.13,24.24-10.91,30.07-6.83,4.06-15.26,3.99-23.19,3.62-9.34-.44-20.48-2.35-24.17-10.93-1.25-2.91-1.39-6.15-1.96-9.27-2.86-15.75-18.44-28.14-34.43-27.37,8.26,.98,13.64,10.53,11.96,18.68-1.68,8.14-8.76,14.34-16.6,17.13-7.83,2.79-16.37,2.71-24.67,2.25-13.9-.75-29.25-3.24-37.95-14.12-6.78,7.29-18.91,8.85-27.32,3.51-4.12-2.61-7.02-6.68-8.64-11.25-.14-.38-.22-.92-.29-1.55-3.89,5.42-6.13,11.95-5.74,18.65-12.96-5.85-28.57,9.31-25.51,23.2Z" style="fill:#eff2f9; fill-rule:evenodd;"/><path d="M252.27,605.87c-2.33,4.31,34.65,11.29,41.8-4.46,8.09-17.83-18.69-28.56-32.3-20.67,6.32-.79,13.28-.94,19.54,.23,3.49,.65,7.35,1.96,8.78,5.2,.58,1.31,.67,2.79,.6,4.23-.26,4.82-2.56,9.68-6.62,12.29-3.59,2.3-8.06,2.65-12.31,2.84-5.74,.25-13.75,.48-19.49,.34Z" style="fill:#e4edf2; fill-rule:evenodd;"/><path d="M252.27,605.87c-17.67,32.65-65.12,44.53-96.08,24.05-38.95,18.19-87.67,13.33-122.26-12.19-13.81,3.39-30.48-4.56-33.54-18.45-3.06-13.89,12.55-29.06,25.51-23.2-9.34,.86-15.6,12.05-12.81,21,2.78,8.96,14.64,13.69,22.83,9.11-2.01-5.07-3-10.54-2.9-16,3.62,7.9,13.6,10.38,22.28,10.62,8.39,.23,16.8-.75,24.91-2.9-2.02,10.23-11.32,18.55-21.7,19.42,15.07,8.47,32.96,10.25,50.24,10.1,11.64-.1,23.72-1.13,33.81-6.93,10.09-5.78,17.62-17.49,15.2-28.88,8.49,7.6,10.9,21.16,5.54,31.21,13.92,7.47,30.71,8.67,46.09,5.05,15.37-3.62,30.77-11.85,42.88-22Z" style="fill:#e4edf2; fill-rule:evenodd;"/></g><g><path d="M621.09,115.35c-30.33-16.73-33.01-64.97-1.08-81.18,3.92-1.99,9.77-5.07,14.12-5.7,2.21-.32,16.69,1.55,16.53,4.8,.54-11.06,8.74-20.49,18.29-26.11,23.98-14.1,58.23-6.68,74.23,16.07,16,22.76,11.37,57.5-10.01,75.29,8.51-3.81,19.4-1.29,25.37,5.86,5.97,7.16,6.5,18.33,1.24,26.02,11.25-6.5,27.31-2.52,34.22,8.48,17.06-3.69,35.19-2.18,51.4,4.27,3.62,1.44,7.29,3.23,9.62,6.35,2.33,3.12,2.86,7.9,.22,10.76-1.69,1.83-4.27,2.53-6.71,3.01-9.36,1.87-18.97,1.92-28.52,1.96-44.61,.21-89.21,.43-133.81,.64-4.49,.02-9.14,0-13.24-1.84-4.09-1.85-7.48-6.07-6.86-10.52-6.52,5.16-14.21,9.16-22.48,10.06-8.27,.9-17.15-1.63-22.76-7.76-26,7.04-53.45,8.68-80.1,4.76-4.39-.65-8.89-1.49-12.6-3.94-3.7-2.43-6.44-6.86-5.62-11.21,.82-4.37,4.99-7.5,9.34-8.44,4.35-.95,8.87-.16,13.22,.73-1.71-8.49,3.42-17.27,10.67-22.01,7.25-4.74,16.18-6.11,24.84-6.39,13.71-.42,27.48,1.64,40.47,6.05Z" style="fill:#fff; fill-rule:evenodd;"/><path d="M531.9,136.97c-4.34,.94-8.51,4.07-9.34,8.44-.82,4.36,1.92,8.78,5.62,11.21,3.7,2.44,8.21,3.29,12.6,3.94,26.65,3.92,54.1,2.29,80.1-4.76,5.61,6.14,14.49,8.66,22.76,7.76,8.27-.9,15.96-4.89,22.48-10.06-.62,4.45,2.77,8.68,6.86,10.52,4.09,1.85,8.75,1.85,13.24,1.84,44.6-.21,89.21-.43,133.81-.64,9.54-.05,19.16-.09,28.52-1.96,2.45-.49,5.02-1.18,6.71-3.01,2.64-2.86,2.11-7.64-.22-10.76-.86-1.15-1.91-2.12-3.08-2.97-13.57,3.95-28.53,2.53-42.63,0-4.82-.86-9.97-2.02-13.27-5.63-.58-.63-1.05-1.37-1.42-2.15-.21,.04-.42,.08-.63,.12-6.91-11-22.98-14.99-34.22-8.48,5.27-7.69,4.73-18.86-1.24-26.02-5.97-7.15-16.87-9.67-25.37-5.86,15.98-13.3,22.6-36.06,18.25-56.21-2.05,13.87-6.88,27.4-15.49,38.39-10.18,12.98-26.09,22-42.58,21.54-2.23-16.97-13.22-32.55-28.46-40.35,8.26,6.31,8.48,20.05,1.4,27.67-7.07,7.61-19.43,8.94-28.79,4.41-9.36-4.54-15.71-14.02-18.17-24.11-3.64-15.02,1.49-27.66,9.34-39.78-3.09,1.22-6.25,2.86-8.67,4.09-31.93,16.21-29.25,64.45,1.08,81.18-3.25-1.1-6.55-2.06-9.89-2.87-10.99,2.9-23.17,4.71-34.02,7.67-11.48,3.12-23.01,10.2-26.49,21.58-1.76-1.46-3.62-2.81-5.58-4.04h0c-4.36-.88-8.88-1.67-13.22-.72Z" style="fill:#eff2f9; fill-rule:evenodd;"/><path d="M621.09,115.35c-30.33-16.73-33.01-64.97-1.08-81.18,2.42-1.23,5.58-2.87,8.67-4.09-15.97,7.75-24.24,26.19-24.52,43.95-.15,9.19,1.44,18.96,7.45,25.93,5.42,6.28,13.8,9.42,22.08,9.92s16.51-1.39,24.44-3.79c-9.37,8.84-25.75,15.49-37.03,9.27Z" style="fill:#e4edf2; fill-rule:evenodd;"/><path d="M759.79,130.41c5.27-7.69,4.73-18.86-1.24-26.02-5.97-7.15-16.87-9.67-25.37-5.86,6.28-1.16,12.27,4.76,13.53,11.02,1.25,6.26-1.34,12.73-5.11,17.89-1.56,2.15-3.39,4.18-5.71,5.49-3.52,1.97-7.76,2.07-11.79,1.87-9.22-.45-19.67-3.03-23.91-11.23-.8,6.33,3.53,12.46,9.1,15.54,5.58,3.09,12.17,3.7,18.55,3.83,6.02,.12,12.13-.15,17.89-1.9,5.76-1.76,10.64-5.66,14.05-10.63Z" style="fill:#e4edf2; fill-rule:evenodd;"/><path d="M855.04,149.5c2.33,3.12,2.86,7.9,.22,10.76-1.69,1.83-4.27,2.53-6.71,3.01-9.36,1.87-18.97,1.92-28.52,1.96-44.61,.21-89.21,.43-133.81,.64-4.49,.02-9.14,0-13.24-1.84-4.09-1.85-7.48-6.07-6.86-10.52,7.07,4.98,15.51,5.95,24.15,6.28,10.45,.38,21.05,.37,31.22-2.07,10.17-2.44,20.01-7.53,26.46-15.78,.8,6.84-2.59,13.99-8.4,17.69,30.19-3.71,60.75-.23,91.16-.81,8.86-.17,21.05-1.09,24.33-9.32Z" style="fill:#e4edf2; fill-rule:evenodd;"/><path d="M666.12,153.52c-6.52,5.16-14.21,9.16-22.48,10.06-8.27,.9-17.15-1.63-22.76-7.76-26,7.04-53.45,8.68-80.1,4.76-4.39-.65-8.89-1.49-12.6-3.94-3.7-2.43-6.44-6.86-5.62-11.21,3.55,6.88,12.89,8.35,20.6,9.01,8.89,.75,17.89,.11,26.57-1.91-4.07-.85-7.85-3.01-10.65-6.08,23.77,5.82,49.41,3.69,71.89-5.98-.95,4.36,1.78,8.94,5.68,11.12,3.89,2.18,8.64,2.29,13.01,1.46,14.49-2.79,26.09-16.55,26.38-31.3,2.32,10.78-1.28,24.95-9.93,31.79Z" style="fill:#e4edf2; fill-rule:evenodd;"/></g><g><path d="M340.58,297.28c7.38-3.15,16.41-2.02,22.78,2.86-1.24-16.43,9.2-33.06,24.52-39.11,15.33-6.05,34.31-1.02,44.62,11.82,7.45-25.22,31.79-45.22,58.09-45.11,26.3,.13,51.37,22.32,52.34,48.6,7.16-9.41,20.72-10.6,32.54-10.17,11.78,.42,24.34,1.95,33.33,9.57,12.76,10.82,13.98,29.82,13.29,46.54,14.54-6.78,33.25-6.32,45.23,4.34,11.98,10.66,13.49,32.28,.89,42.2-10.56,8.31-25.71,6.21-38.77,3-11.05,18.47-29.06,33.12-49.99,38.12-20.93,5-44.54-.45-59.8-15.62-11.5,16.22-32.3,25.33-52.02,22.76-19.72-2.56-37.5-16.68-44.46-35.3-12.61,8.67-30.37,9.09-43.38,1.03-13.01-8.06-20.53-24.16-18.36-39.31-8.62,6.13-21.43,5.49-29.39-1.49-13.87-12.15-7.86-37.73,8.53-44.74Z" style="fill:#fff; fill-rule:evenodd;"/><path d="M387.88,261.03c-15.32,6.05-25.75,22.69-24.52,39.11-6.36-4.88-15.4-6.02-22.78-2.86-16.39,7.01-22.4,32.59-8.53,44.74,7.96,6.97,20.76,7.62,29.39,1.49-2.16,15.15,5.36,31.25,18.36,39.31,13.01,8.06,30.77,7.64,43.38-1.03,6.96,18.62,24.75,32.74,44.46,35.3,19.72,2.57,40.52-6.54,52.02-22.76,15.26,15.17,38.87,20.61,59.8,15.62,20.93-4.99,38.94-19.65,49.99-38.12,13.05,3.22,28.21,5.31,38.77-3,12.6-9.92,11.09-31.54-.89-42.2-11.98-10.67-30.69-11.12-45.23-4.34,.56-13.55-.14-28.63-7.24-39.6,.62,15.15-2.22,30.43-8.35,44.31-2.77,6.28-6.41,12.5-12.14,16.28-4.84,3.19-10.73,4.33-16.47,5.15-11.26,1.61-22.65,2.26-34.02,1.94-6.51-.19-14.05-1.3-17.34-6.92,12.26-17.39,13.92-41.66,4.12-60.55-8.13,21.29-27.29,39.15-49.95,41.47-22.67,2.32-46.92-14.09-49.45-36.73-3.33,12.85-.52,27.14,7.41,37.78-11.22,2.74-23.27,1.92-34.02-2.32-10-3.94-19.26-11.43-22.25-21.75-3.09-10.67,1.2-22.48,8.75-30.62,4.98-5.36,10.88-8.55,17.02-11.67-6.8-1.13-13.87-.56-20.3,1.98Z" style="fill:#eff2f9; fill-rule:evenodd;"/><path d="M667.32,326.62c11.98,10.66,13.49,32.28,.89,42.2-10.56,8.31-25.71,6.21-38.77,3-11.05,18.47-29.06,33.12-49.99,38.12-20.93,4.99-44.54-.45-59.8-15.62-11.5,16.22-32.3,25.33-52.02,22.76-19.72-2.56-37.5-16.68-44.46-35.3-12.61,8.67-30.37,9.09-43.38,1.03-13.01-8.06-20.53-24.16-18.36-39.31-8.62,6.13-21.43,5.49-29.39-1.49,11.04,.33,23.27-3.45,33.03-8.61-.79-5.84,.68-11.96,4.04-16.81-1.74,16.25,3.26,33.46,14.71,45.11,11.46,11.65,29.52,16.93,45.01,11.71-1.46-7.47-1.55-15.23-.23-22.73,6.62,23.17,25.86,42.86,49.43,47.87,23.57,5,50.27-6.22,61.38-27.61,.18,8.34-2.07,16.72-6.42,23.84,12.47,6.29,27.61,6.22,40.71,1.36,13.1-4.84,24.24-14.16,32.81-25.18,7.61-9.8,13.51-21.6,13.22-34,6.42,5.16,10.51,13.12,10.95,21.34,.1,1.75,.09,3.68,1.22,5.02,.68,.81,1.69,1.28,2.69,1.64,9.64,3.43,20.92-1.47,26.86-9.8,5.94-8.33,7.38-18.44,5.85-28.55Z" style="fill:#e4edf2; fill-rule:evenodd;"/></g><g><path d="M250.63,68.52c12.84-3.57,27.01-.45,37.06,11.1,11.77-5.82,26.29-5.7,37.96,.31,11.67,6.01,20.21,17.77,22.31,30.73,6.87-.92,13.95-1.82,20.65-.05,6.7,1.78,13,6.93,13.94,13.79,8.33,.27,17.06,8.35,13.96,16.08-1.75,4.37-6.59,6.79-11.26,7.45-4.67,.66-9.42-.04-14.13,.13-10.13,.38-19.61,4.71-29.27,7.81-7.99,2.57-16.79,3.75-25.12,2.24-6.44-1.17-12.78-4.52-16.1-10.17-9.09,7.77-21.66,9.91-33.6,10.46-8.89,.42-18.01,.09-26.31-3.15-8.29-3.23-15.69-9.8-17.98-18.39-11.75,4.13-25.39,2.05-34.66-6.38-6.91-6.28-6.64-17.87-.26-24.52,5.02-5.24,13.14-5.65,20.4-5.49,5.05,.12,10.41,.45,14.55,3.34-1.13-7.5,1.88-15.18,6.61-21.11,5.66-7.09,13.2-11.96,21.26-14.21Z" style="fill:#fff; fill-rule:evenodd;"/><path d="M250.63,68.52c-8.06,2.25-15.6,7.12-21.26,14.21-4.73,5.93-7.74,13.61-6.61,21.11,.86,5.74,2.89,10.78,7.34,14.49,4.46,3.72,9.96,5.92,15.48,7.72-8.06-18.56-6.58-40.97,5.05-57.53Z" style="fill:#eff2f9; fill-rule:evenodd;"/><path d="M188.07,130.51c9.27,8.43,22.91,10.51,34.66,6.38,2.3,8.59,9.69,15.16,17.98,18.39,8.29,3.23,17.42,3.56,26.31,3.15,11.94-.56,24.52-2.69,33.6-10.46,3.32,5.64,9.66,9,16.1,10.17,8.33,1.51,17.13,.33,25.12-2.24,9.65-3.1,19.14-7.43,29.27-7.81,4.71-.17,9.46,.52,14.13-.13,4.67-.66,9.51-3.08,11.26-7.45,3.1-7.73-5.63-15.81-13.96-16.08-.11-.81-.3-1.57-.55-2.32-3.27-.34-6.63-.23-9.88,.22-16.78,2.36-31.69,12.65-48.5,14.74-4.54,.56-9.23,.49-13.54-1-3.77-1.31-7.1-3.66-10.03-6.36-5.57-5.13-9.87-11.65-12.4-18.8,2.58,10.18-5.47,20.74-15.36,24.24-9.9,3.51-20.87,1.6-30.95-1.34-6.35-1.86-13.39-4.93-15.3-11.26-7.41,6.17-19.37,7.05-26.53,.59-8.14-7.34-4.03-14.56-.97-22.13-4.09,.64-7.91,2.07-10.74,5.02-6.37,6.64-6.65,18.24,.26,24.52Z" style="fill:#eff2f9; fill-rule:evenodd;"/><path d="M300.62,147.96c-9.09,7.77-21.66,9.91-33.6,10.46-8.89,.42-18.01,.09-26.31-3.15-8.29-3.23-15.69-9.8-17.98-18.39-11.75,4.13-25.39,2.05-34.66-6.38,12.13,4.71,25.31,5.84,37.9,2.58,4.81,9.49,15.1,15.5,25.67,16.76,10.57,1.25,21.31-1.78,30.69-6.81-.15,4.49-2.88,8.8-6.87,10.86,8.89,.09,17.34-1.69,25.15-5.95Z" style="fill:#e4edf2; fill-rule:evenodd;"/><path d="M396.51,140.49c-1.75,4.37-6.59,6.79-11.26,7.45-4.67,.66-9.42-.04-14.13,.13-10.13,.38-19.61,4.71-29.27,7.81-7.99,2.57-16.79,3.75-25.12,2.24-6.44-1.17-12.78-4.52-16.1-10.17,10.12,3.89,22.4,3.75,32.78,.64,5.91-1.77,11.43-4.62,17.22-6.73,14.33-5.21,31.28-5.73,45.88-1.38Z" style="fill:#e4edf2; fill-rule:evenodd;"/></g><g><path d="M181.73,316.5c-8.88,1.08-16.77,7.92-19.1,16.55-7.75-4.57-18.46-3.37-25.02,2.79-4.3,4.05-6.57,11.35-2.67,15.79-5.11,3.74-6.07,12-1.96,16.82,4.12,4.82,12.43,5.16,16.93,.7,4.13,7.13,11.93,12,20.16,12.58,4.74,.34,10.31-.83,14.58-2.9,1.25-.6,9.06-6.49,7.1-8.49,4.14,4.26,9.44,7.61,15.32,8.44,5.88,.84,12.33-1.17,15.95-5.88,3.61-4.71,3.62-12.15-.66-16.27,4.47-1.9,7.57-6.67,7.49-11.53-.08-4.72-3.79-10.28-8.2-12.18-2.07-.88-14.19-.35-13.72,3.65-.65-5.56-3.49-10.52-7.59-14.14-4.95-4.37-11.7-6.78-18.61-5.95Z" style="fill:#fff; fill-rule:evenodd;"/><path d="M207.92,336.58c-.65-5.56-3.49-10.52-7.59-14.14-4.95-4.37-11.7-6.78-18.61-5.95,4.71,1.79,8.52,5.51,11.88,9.28,3.52,3.96,6.8,8.22,8.93,13.08,2.12,4.86,3.03,10.38,1.71,15.52,2.48-5.17,4.35-12.09,3.69-17.8Z" style="fill:#eff2f9; fill-rule:evenodd;"/><path d="M134.93,351.63c-5.11,3.74-6.07,12-1.96,16.82,4.12,4.82,12.43,5.16,16.93,.7,4.13,7.13,11.93,12,20.16,12.58,4.74,.34,10.31-.83,14.58-2.9,1.25-.6,9.06-6.49,7.1-8.49,4.14,4.26,9.44,7.61,15.32,8.44,5.88,.84,12.33-1.17,15.95-5.88,3.61-4.71,3.62-12.15-.66-16.27,4.47-1.9,7.57-6.67,7.49-11.53-.08-4.71-3.79-10.27-8.2-12.17-.13-.05-.29-.1-.49-.14,1.61,2.27,2.33,5.16,1.51,7.79-1.18,3.77-5.96,6.2-9.42,4.3,3.22,8.84-2.58,19.84-11.7,22.18,2.18-6.11,.43-13.43-4.27-17.91-2.05,8.25-9.34,14.93-17.73,16.26-8.39,1.34-17.39-2.76-21.9-9.96-4.92,.97-10.65,1.74-14.41-1.59-3.31-2.92-3.72-8.04-2.52-12.29,1.37-4.84,4.27-8.23,7.95-11.01-4.1,.64-8.03,2.41-11.06,5.27-4.3,4.05-6.57,11.35-2.67,15.79Z" style="fill:#eff2f9; fill-rule:evenodd;"/><path d="M207.07,378.79c5.88,.84,12.33-1.17,15.95-5.88,3.61-4.71,3.62-12.15-.66-16.27,4.47-1.9,7.57-6.67,7.49-11.53-.72,5.33-5.66,9.07-11.04,9.12,2.35,4.54,2.55,10.13,.52,14.82-2.03,4.69-7.34,8.35-12.26,9.73Z" style="fill:#e4edf2; fill-rule:evenodd;"/><path d="M191.75,370.34c1.96,2-5.85,7.89-7.1,8.49-4.27,2.07-9.84,3.25-14.58,2.9-8.22-.58-16.03-5.45-20.16-12.58-4.5,4.46-12.81,4.12-16.93-.7-4.12-4.82-3.16-13.08,1.96-16.82-1.23,2.46-1.39,5.39-1.26,8.13,.12,2.75,1.27,5.51,3.4,7.24,2.3,1.86,5.54,2.33,8.4,1.6,2.86-.74,5.36-2.58,7.27-4.84,1.12,5.29,5.14,9.67,9.97,12.07,4.84,2.39,10.41,2.97,15.8,2.58,2.64-.19,5.3-.62,7.69-1.74,2.39-1.13,4.57-3.87,5.53-6.32Z" style="fill:#e4edf2; fill-rule:evenodd;"/></g><g><path d="M1635.05,212.46c12.83-3.57,27.01-.45,37.05,11.1,11.77-5.82,26.29-5.7,37.96,.31,11.68,6.01,20.21,17.77,22.31,30.73,6.87-.92,13.95-1.82,20.65-.05,6.7,1.78,13,6.92,13.94,13.79,8.32,.27,17.06,8.35,13.95,16.08-1.75,4.37-6.6,6.78-11.26,7.44-4.67,.67-9.42-.03-14.14,.14-10.13,.38-19.62,4.71-29.26,7.81-8,2.57-16.79,3.74-25.13,2.24-6.44-1.16-12.78-4.52-16.1-10.17-9.09,7.77-21.66,9.9-33.6,10.46-8.89,.41-18.02,.08-26.31-3.15-8.29-3.23-15.68-9.8-17.98-18.39-11.75,4.13-25.39,2.05-34.66-6.38-6.91-6.28-6.64-17.87-.27-24.52,5.02-5.24,13.15-5.65,20.4-5.49,5.05,.12,10.41,.45,14.55,3.34-1.13-7.5,1.89-15.18,6.61-21.11,5.67-7.09,13.2-11.97,21.27-14.21Z" style="fill:#fff; fill-rule:evenodd;"/><path d="M1635.05,212.46c-8.07,2.24-15.6,7.12-21.27,14.21-4.73,5.93-7.74,13.61-6.61,21.11,.87,5.74,2.89,10.78,7.35,14.49,4.45,3.72,9.95,5.92,15.48,7.72-8.06-18.56-6.59-40.97,5.05-57.53Z" style="fill:#eff2f9; fill-rule:evenodd;"/><path d="M1572.49,274.44c9.27,8.43,22.9,10.51,34.66,6.38,2.3,8.59,9.69,15.16,17.98,18.39,8.29,3.22,17.42,3.55,26.31,3.15,11.93-.56,24.51-2.69,33.6-10.46,3.32,5.64,9.66,9.01,16.1,10.17,8.33,1.5,17.13,.33,25.13-2.24,9.64-3.1,19.13-7.43,29.26-7.81,4.72-.17,9.47,.52,14.14-.14,4.66-.66,9.51-3.07,11.26-7.44,3.11-7.73-5.63-15.81-13.95-16.08-.11-.8-.3-1.57-.55-2.32-3.28-.34-6.64-.23-9.88,.23-16.77,2.35-31.69,12.64-48.49,14.72-4.53,.57-9.23,.51-13.55-.99-3.76-1.31-7.1-3.66-10.02-6.37-5.58-5.13-9.88-11.64-12.4-18.8,2.57,10.18-5.46,20.74-15.36,24.24-9.89,3.51-20.86,1.6-30.94-1.35-6.35-1.85-13.4-4.91-15.3-11.25-7.41,6.17-19.37,7.04-26.54,.59-8.14-7.34-4.02-14.56-.97-22.14-4.09,.65-7.9,2.07-10.74,5.02-6.37,6.64-6.64,18.23,.27,24.52Z" style="fill:#eff2f9; fill-rule:evenodd;"/><path d="M1685.04,291.89c-9.09,7.77-21.67,9.9-33.6,10.46-8.89,.41-18.02,.08-26.31-3.15-8.29-3.23-15.68-9.8-17.98-18.39-11.75,4.13-25.39,2.05-34.66-6.38,12.12,4.7,25.31,5.84,37.91,2.58,4.81,9.49,15.1,15.5,25.67,16.75,10.56,1.26,21.3-1.78,30.68-6.8-.15,4.49-2.87,8.8-6.86,10.86,8.89,.09,17.34-1.69,25.15-5.95Z" style="fill:#e4edf2; fill-rule:evenodd;"/><path d="M1780.93,284.43c-1.75,4.37-6.6,6.78-11.26,7.44-4.67,.67-9.42-.03-14.14,.14-10.13,.38-19.62,4.71-29.26,7.81-8,2.57-16.79,3.74-25.13,2.24-6.44-1.16-12.78-4.52-16.1-10.17,10.12,3.89,22.39,3.75,32.78,.64,5.91-1.77,11.43-4.62,17.22-6.73,14.32-5.21,31.27-5.73,45.88-1.38Z" style="fill:#e4edf2; fill-rule:evenodd;"/></g><g><path d="M1481.52,127.55c-1.47-10.18-8.12-19.48-17.28-24.17-9.16-4.7-20.59-4.65-29.71,.12-5.68-14.88-21.37-25.31-37.28-24.78-15.92,.53-30.88,11.97-35.56,27.19-10.03-.57-19.45,8.87-18.84,18.9-7.62-3.44-16.79,5.48-14.99,13.65,1.8,8.16,11.6,12.83,19.72,10.85,20.33,15,48.97,17.86,71.87,7.17,18.21,12.04,46.1,5.06,56.49-14.14-1.37,2.54,20.37,6.64,24.57-2.62,4.76-10.49-10.99-16.79-18.99-12.16Z" style="fill:#fff; fill-rule:evenodd;"/><path d="M1327.86,138.46c1.8,8.16,11.6,12.83,19.72,10.85,20.33,15,48.97,17.86,71.87,7.17,18.21,12.04,46.1,5.06,56.49-14.14-1.37,2.54,20.37,6.64,24.57-2.62,4.76-10.49-10.98-16.79-18.99-12.16-1.47-10.18-8.12-19.48-17.28-24.17-2.57-1.32-5.32-2.25-8.15-2.82,3.06,3.84,5.59,8.08,6.64,12.83,1.42,6.54-.67,14.25-6.42,17.68-4.01,2.39-8.97,2.35-13.63,2.13-5.49-.26-12.04-1.38-14.21-6.42-.74-1.71-.82-3.62-1.15-5.45-1.68-9.27-10.84-16.55-20.24-16.1,4.85,.58,8.01,6.2,7.03,10.99-.99,4.78-5.15,8.43-9.75,10.06-4.61,1.64-9.62,1.6-14.51,1.33-8.17-.44-17.19-1.91-22.3-8.3-3.99,4.28-11.12,5.2-16.06,2.06-2.43-1.54-4.13-3.94-5.09-6.61-.08-.22-.12-.54-.16-.92-2.29,3.19-3.61,7.03-3.37,10.96-7.62-3.44-16.79,5.48-14.99,13.65Z" style="fill:#eff2f9; fill-rule:evenodd;"/><path d="M1475.94,142.33c-1.37,2.54,20.37,6.64,24.57-2.62,4.76-10.49-10.98-16.79-18.99-12.16,3.72-.45,7.81-.55,11.49,.15,2.05,.38,4.32,1.15,5.17,3.05,.34,.77,.4,1.64,.36,2.48-.16,2.84-1.51,5.7-3.9,7.23-2.11,1.35-4.73,1.57-7.24,1.67-3.37,.14-8.08,.28-11.46,.2Z" style="fill:#e4edf2; fill-rule:evenodd;"/><path d="M1475.94,142.33c-10.39,19.2-38.28,26.18-56.49,14.14-22.9,10.69-51.54,7.83-71.87-7.17-8.12,1.99-17.92-2.68-19.72-10.85-1.8-8.17,7.37-17.08,14.99-13.65-5.49,.51-9.17,7.09-7.53,12.36,1.64,5.27,8.61,8.04,13.42,5.34-1.18-2.97-1.77-6.19-1.71-9.4,2.12,4.64,7.99,6.1,13.1,6.24,4.92,.13,9.88-.45,14.64-1.71-1.19,6.01-6.65,10.9-12.75,11.42,8.86,4.98,19.38,6.03,29.53,5.93,6.84-.06,13.94-.67,19.88-4.07,5.93-3.4,10.36-10.28,8.94-16.97,4.99,4.46,6.41,12.43,3.26,18.34,8.19,4.4,18.05,5.09,27.1,2.97,9.03-2.13,18.09-6.96,25.21-12.94Z" style="fill:#e4edf2; fill-rule:evenodd;"/></g><g><path d="M1731.16,510.1c-19.43-10.72-21.15-41.64-.69-52.02,2.51-1.28,6.26-3.25,9.05-3.65,1.42-.21,10.69,.99,10.6,3.08,.34-7.09,5.6-13.13,11.72-16.73,15.37-9.04,37.32-4.28,47.57,10.3,10.25,14.59,7.29,36.85-6.42,48.26,5.45-2.44,12.43-.83,16.26,3.76,3.83,4.59,4.17,11.74,.79,16.67,7.21-4.16,17.51-1.61,21.93,5.44,10.93-2.36,22.55-1.39,32.95,2.73,2.32,.92,4.67,2.07,6.17,4.07,1.5,2,1.84,5.06,.14,6.89-1.09,1.18-2.73,1.62-4.3,1.93-5.99,1.2-12.15,1.24-18.27,1.26-28.59,.13-57.17,.27-85.76,.41-2.88,.02-5.86,0-8.49-1.18-2.61-1.18-4.79-3.89-4.39-6.75-4.18,3.31-9.11,5.87-14.41,6.45-5.31,.57-10.99-1.04-14.59-4.98-16.67,4.52-34.26,5.56-51.33,3.04-2.82-.41-5.7-.95-8.08-2.52-2.37-1.56-4.13-4.4-3.6-7.18,.52-2.8,3.19-4.8,5.98-5.41,2.79-.61,5.68-.09,8.47,.47-1.09-5.44,2.2-11.07,6.84-14.11,4.64-3.04,10.37-3.92,15.92-4.09,8.79-.27,17.62,1.05,25.93,3.87Z" style="fill:#fff; fill-rule:evenodd;"/><path d="M1673.99,523.96c-2.79,.61-5.45,2.61-5.98,5.41-.53,2.79,1.23,5.63,3.6,7.18,2.37,1.57,5.26,2.11,8.08,2.52,17.08,2.51,34.67,1.47,51.33-3.04,3.6,3.94,9.28,5.55,14.59,4.98,5.3-.58,10.23-3.14,14.41-6.45-.4,2.86,1.78,5.56,4.39,6.75,2.63,1.18,5.61,1.2,8.49,1.18,28.59-.14,57.17-.28,85.76-.41,6.12-.02,12.28-.06,18.27-1.26,1.57-.31,3.22-.75,4.3-1.93,1.7-1.83,1.35-4.89-.14-6.89-.56-.74-1.23-1.36-1.97-1.89-8.69,2.53-18.29,1.61-27.32,0-3.09-.55-6.39-1.3-8.51-3.61-.37-.4-.67-.88-.91-1.38-.12,.02-.27,.05-.4,.08-4.43-7.05-14.73-9.6-21.93-5.44,3.38-4.93,3.04-12.08-.79-16.67-3.83-4.59-10.81-6.2-16.26-3.76,10.24-8.52,14.49-23.12,11.7-36.03-1.31,8.89-4.41,17.56-9.94,24.6-6.53,8.33-16.71,14.1-27.29,13.8-1.42-10.88-8.47-20.86-18.24-25.86,5.29,4.04,5.43,12.84,.9,17.72-4.53,4.89-12.45,5.74-18.45,2.83-5.99-2.9-10.07-8.98-11.64-15.45-2.33-9.63,.95-17.73,5.99-25.5-1.98,.79-4.01,1.84-5.56,2.63-20.46,10.38-18.74,41.3,.69,52.02-2.08-.7-4.19-1.32-6.34-1.84-7.04,1.86-14.84,3.02-21.8,4.91-7.36,2-14.75,6.54-16.97,13.84-1.13-.93-2.32-1.8-3.58-2.58h0c-2.79-.56-5.69-1.08-8.47-.47Z" style="fill:#eff2f9; fill-rule:evenodd;"/><path d="M1731.16,510.1c-19.43-10.72-21.15-41.64-.69-52.02,1.55-.79,3.58-1.84,5.56-2.63-10.24,4.98-15.53,16.79-15.72,28.17-.09,5.89,.92,12.15,4.78,16.61,3.47,4.02,8.85,6.04,14.15,6.36,5.3,.32,10.57-.89,15.66-2.43-6.01,5.67-16.5,9.93-23.73,5.93Z" style="fill:#e4edf2; fill-rule:evenodd;"/><path d="M1820.05,519.75c3.38-4.93,3.04-12.08-.79-16.67-3.83-4.59-10.81-6.2-16.26-3.76,4.02-.75,7.87,3.04,8.66,7.06,.81,4.01-.85,8.16-3.27,11.46-1,1.38-2.17,2.68-3.65,3.51-2.25,1.27-4.97,1.33-7.55,1.21-5.92-.29-12.6-1.94-15.32-7.2-.52,4.05,2.25,7.98,5.83,9.96,3.58,1.98,7.8,2.37,11.89,2.45,3.87,.08,7.78-.09,11.47-1.21,3.69-1.13,6.82-3.63,9-6.82Z" style="fill:#e4edf2; fill-rule:evenodd;"/><path d="M1881.09,531.98c1.5,2,1.84,5.06,.14,6.89-1.09,1.18-2.73,1.62-4.3,1.93-5.99,1.2-12.15,1.24-18.27,1.26-28.59,.13-57.17,.27-85.76,.41-2.88,.02-5.86,0-8.49-1.18-2.61-1.18-4.79-3.89-4.39-6.75,4.53,3.18,9.94,3.82,15.47,4.02,6.71,.24,13.49,.24,20.02-1.32,6.52-1.57,12.82-4.83,16.96-10.11,.51,4.38-1.67,8.97-5.38,11.33,19.34-2.38,38.93-.14,58.42-.52,5.67-.11,13.48-.7,15.59-5.98Z" style="fill:#e4edf2; fill-rule:evenodd;"/><path d="M1760.02,534.56c-4.18,3.31-9.11,5.87-14.41,6.45-5.31,.57-10.99-1.04-14.59-4.98-16.67,4.52-34.26,5.56-51.33,3.04-2.82-.41-5.7-.95-8.08-2.52-2.37-1.56-4.13-4.4-3.6-7.18,2.27,4.41,8.26,5.35,13.19,5.77,5.7,.48,11.47,.07,17.03-1.22-2.6-.54-5.02-1.92-6.82-3.9,15.24,3.73,31.67,2.36,46.08-3.83-.61,2.79,1.14,5.73,3.64,7.12,2.5,1.39,5.53,1.47,8.34,.93,9.29-1.78,16.72-10.6,16.91-20.06,1.49,6.91-.82,15.99-6.36,20.37Z" style="fill:#e4edf2; fill-rule:evenodd;"/></g></svg>