<?xml version="1.0" encoding="UTF-8"?><svg id="a" xmlns="http://www.w3.org/2000/svg" viewBox="0 0 2651.5 2318.67"><path d="M602.85,2131.13c317.5,0,574.88,41.96,574.88,93.75s-257.38,93.8-574.88,93.8-574.92-42.01-574.92-93.8,257.41-93.75,574.92-93.75h0Zm0,0" style="fill:#c7dcf5; fill-rule:evenodd;"/><path d="M1372.55,0c-298.4,0-302.4,372.71-517.86,541.84-285.15,223.9-387.11,296.49-357.21,679.5,24.82,317.47,255.84,918.97,949.29,918.97s1285.06-374.13,1078.6-1046.89C2318.91,420.63,2065.98,0,1372.55,0h0Zm0,0" style="fill:#e7f1fb; fill-rule:evenodd;"/><path d="M1502.75,492.5h-182.26v70.45h-70.76v1559.62c61.12,11.48,126.63,17.74,197.03,17.74,118.67,0,234.35-10.94,343.6-32.49V562.95h-70.4v-70.45h-182.08V221.6h-35.13V492.5ZM615.99,1632.51c102.5,202.45,278.67,396.45,560.02,473.2v-937.75l-560.02,218.91v245.64Zm1247.98,458.89c247.5-61.5,455.52-180.02,579.56-350.86v-611.86l-579.56-255.41v1218.13Zm0,0" style="fill:#fff; fill-rule:evenodd;"/><path d="M2209.28,1193.12v121.6h-111v-121.6h111Zm-1593.28,439.39c15.93,31.47,33.67,62.73,53.25,93.41h120.13v91.21h-54.27c15.04,18.51,30.96,36.59,47.72,54.18h6.55v6.69c14.12,14.5,28.78,28.63,44.12,42.31v-49h125.02v91.21h-74.06c36.3,27.7,75.67,52.96,118.22,75.29v-21.16h124.98v74.46c15.78,5.27,31.89,10.11,48.36,14.6v-937.75l-560.02,218.91v245.64Zm633.74,490.06c61.12,11.48,126.63,17.74,197.03,17.74,118.67,0,234.35-10.94,343.6-32.49V562.95h-70.4v-70.45h-182.08V221.6h-35.13V492.5h-182.26v70.45h-70.76v1559.62Zm614.25-31.17c21.84-5.47,43.33-11.29,64.49-17.58v-105.43h111v67.07c20-7.91,39.62-16.26,58.82-25.06v-42.01h82.07c38.89-22.08,75.53-46.12,109.63-72.25h-21.84v-121.6h110.95v42.55c23.45-24.23,45-49.73,64.44-76.55v-611.86l-579.56-255.41v1218.13Zm175.49-898.28v121.6h-111v-121.6h111Zm339.63,0v121.6h-110.95v-121.6h110.95Zm-169.82,193.75v121.65h-111v-121.65h111Zm-169.82,0v121.65h-111v-121.65h111Zm339.63,0v121.65h-110.95v-121.65h110.95Zm-169.82,193.86v121.6h-111v-121.6h111Zm-169.82,0v121.6h-111v-121.6h111Zm339.63,0v121.6h-110.95v-121.6h110.95Zm-169.82,193.8v121.6h-111v-121.6h111Zm-169.82,0v121.6h-111v-121.6h111Zm-1080.95-339.34v91.21h-125.02v-91.21h125.02Zm-169.13,0v91.21h-125.01v-91.21h125.01Zm338.27,0v91.21h-124.98v-91.21h124.98Zm-169.14,145.34v91.21h-125.02v-91.21h125.02Zm-169.13,0v91.21h-125.01v-91.21h125.01Zm338.27,0v91.21h-124.98v-91.21h124.98Zm-169.14,145.39v91.21h-125.02v-91.21h125.02Zm169.14,0v91.21h-124.98v-91.21h124.98Zm0,145.39v91.21h-124.98v-91.21h124.98Zm443.98-1251.7h-103.28v148.46h103.28v-148.46Zm-148.33,0h-103.22v148.46h103.22v-148.46Zm148.33,222.63h-103.28v148.42h103.28v-148.42Zm-148.33,0h-103.22v148.42h103.22v-148.42Zm296.65,0h-103.28v148.42h103.28v-148.42Zm-148.32,222.68h-103.28v148.37h103.28v-148.37Zm-148.33,0h-103.22v148.37h103.22v-148.37Zm296.65,0h-103.28v148.37h103.28v-148.37Zm-148.32,222.63h-103.28v148.37h103.28v-148.37Zm-148.33,0h-103.22v148.37h103.22v-148.37Zm296.65,0h-103.28v148.37h103.28v-148.37Zm-148.32,222.58h-103.28v148.46h103.28v-148.46Zm-148.33,0h-103.22v148.46h103.22v-148.46Zm296.65,0h-103.28v148.46h103.28v-148.46Zm-148.32,222.67h-103.28v148.42h103.28v-148.42Zm-148.33,0h-103.22v148.42h103.22v-148.42Zm296.65,0h-103.28v148.42h103.28v-148.42Zm-148.32,222.63h-103.28v148.42h103.28v-148.42Zm-148.33,0h-103.22v148.42h103.22v-148.42Zm296.65,0h-103.28v148.42h103.28v-148.42Zm0-1335.82h-103.28v148.46h103.28v-148.46Zm0,0" style="fill:#c7dcf5; fill-rule:evenodd;"/><path d="M1654.04,210.27c5.48,0,10.7,.92,15.44,2.49-.49-2.49-.78-5.03-.78-7.66,0-22.68,19.65-41,43.92-41,4.3,0,8.45,.59,12.36,1.66,6.17-28.96,32.92-50.8,65.07-50.8,36.64,0,66.34,28.43,66.34,63.46,0,6.01-.88,11.82-2.54,17.34,23.99,1.6,42.9,18.47,42.9,40.21s-20.8,39.04-33.61,42.66c-1.91,.53-4.54,.48-7.57,0h-201.53c-22.62,0-40.98-15.29-40.98-34.2s18.37-34.15,40.98-34.15h0Zm0,0" style="fill:#fff; fill-rule:evenodd;"/><path d="M1145.33,372.37c5.41,0,10.64,.88,15.39,2.49-.5-2.49-.78-5.08-.78-7.72,0-22.62,19.68-40.99,43.91-40.99,4.3,0,8.45,.59,12.36,1.66,6.15-28.97,32.92-50.75,65.06-50.75,36.65,0,66.34,28.39,66.34,63.41,0,6-.88,11.87-2.49,17.39,23.94,1.61,42.84,18.47,42.84,40.21s-20.81,39.04-33.61,42.6c-1.91,.54-4.5,.49-7.58,0h-201.47c-22.68,0-41-15.29-41-34.15s18.32-34.15,41-34.15h0Zm0,0" style="fill:#fff; fill-rule:evenodd;"/><path d="M2039.46,1581.76c-13.24,0-23.99,3.37-23.99,7.52s10.75,7.52,23.99,7.52,23.99-3.37,23.99-7.52-10.7-7.52-23.99-7.52h0Zm201.92,561.53c1.71,2.83,2.64,5.72,2.64,8.69,0,29.71-91.61,53.79-204.55,53.79s-204.55-24.08-204.55-53.79c0-2.98,.93-5.91,2.69-8.74l170.3-554.8c-.05-.24-.1-.48-.1-.73,0-5.48,14.17-9.87,31.66-9.87s31.66,4.39,31.66,9.87c0,.25,0,.49-.1,.73l170.36,554.84Zm0,0" style="fill:#ed7d2b; fill-rule:evenodd;"/><path d="M1946,1818.65c29.17,10.8,60.63,16.71,93.46,16.71s64.34-5.92,93.51-16.71l-38-123.75c-17.29,6.01-36.01,9.28-55.5,9.28s-38.21-3.27-55.5-9.28l-37.96,123.75Zm93.46,136.75c-45.24,0-88.82-6.89-129.42-19.64l-38.06,123.99c52.57,17.09,108.89,26.38,167.47,26.38s114.95-9.28,167.52-26.38l-38.06-123.99c-40.65,12.75-84.17,19.64-129.46,19.64h0Zm0,0" style="fill:#f9f9f9; fill-rule:evenodd;"/><path d="M2242.45,2069.08c19.59,7.96,36.55,17.64,42.01,29.75l47.83,106.6c12.01,26.73-14.66,45.43-67.13,45.43h-214.47c-3.76,0-7.48-.09-11.24-.29-3.71,.2-7.48,.29-11.19,.29h-214.51c-52.47,0-79.09-18.71-67.13-45.43l47.88-106.6c5.47-12.16,22.42-21.79,42.01-29.75h15.09l-21.74,70.74c-2.09,3.76-3.32,7.82-3.32,12.16,0,26.97,45.88,40.8,66.15,46.12,46.16,12.17,99.13,16.02,146.76,16.02s100.59-3.85,146.76-16.02c20.32-5.32,66.2-19.15,66.2-46.12,0-4.3-1.26-8.35-3.31-12.07l-21.75-70.83h15.09Zm0,0" style="fill:#ed7d2b; fill-rule:evenodd;"/><path d="M2039.46,2205.77c-112.94,0-204.55-24.08-204.55-53.79,0-2.98,.93-5.91,2.69-8.74l22.76-74.16h-8.75l-21.74,70.74c-2.09,3.76-3.32,7.82-3.32,12.16,0,26.97,45.88,40.8,66.15,46.12,46.16,12.17,99.13,16.02,146.76,16.02s100.59-3.85,146.76-16.02c20.32-5.32,66.2-19.15,66.2-46.12,0-4.3-1.26-8.4-3.31-12.07l-21.75-70.83h-8.8l22.82,74.21c1.71,2.83,2.64,5.72,2.64,8.69,0,29.71-91.61,53.79-204.55,53.79h0Zm0,0" style="fill:#ececed; fill-rule:evenodd;"/><path d="M2649.35,384.44c-22.23,327.66-101.11,690.75-462.16,784.69l-8.99,2.35-8.94-2.35c-361.01-93.94-439.93-457.03-462.14-784.69l-2.16-31.56,31.12-5.82c150.57-28.23,288.64-84.66,427.28-148.32l14.85-6.84,14.85,6.84c138.7,63.66,276.75,120.09,427.33,148.32l31.12,5.82-2.15,31.56Zm0,0" style="fill:#e7f1fb; fill-rule:evenodd;"/><path d="M2613.84,380.82c-148.81-27.84-281.5-80.17-435.63-150.91-154.09,70.74-286.78,123.06-435.59,150.91,30.39,447.56,163.09,681.76,435.59,752.65,272.57-70.89,405.25-305.09,435.63-752.65h0Zm0,0" style="fill:#1c468a; fill-rule:evenodd;"/><path d="M2544.66,432.61c-127.41-29.85-246.76-77.34-366.45-131.37-119.64,54.03-238.99,101.52-366.41,131.37,17.93,199.03,66.44,445.11,229.95,566.85,41.33,30.78,87.4,52.23,136.45,66.64,49.09-14.41,95.17-35.86,136.5-66.64,163.52-121.74,212.03-367.82,229.96-566.85h0Zm0,0" style="fill:#699dee; fill-rule:evenodd;"/><path d="M2544.66,432.61c-127.41-29.85-246.76-77.34-366.45-131.37v764.86c49.09-14.41,95.17-35.91,136.5-66.64,163.52-121.74,212.03-367.82,229.96-566.85h0Zm0,0" style="fill:#4a75cb; fill-rule:evenodd;"/><path d="M1952.55,675.36c-12.11-15.15-9.62-37.22,5.52-49.34,15.15-12.06,37.23-9.62,49.3,5.52l109.13,136.45,310.42-287.56c14.22-13.18,36.45-12.31,49.58,1.91,13.19,14.26,12.32,36.45-1.9,49.64l-338.06,313.15-1.92,1.66c-15.14,12.11-37.27,9.62-49.34-5.52l-132.74-165.91Zm0,0" style="fill:#fff; fill-rule:evenodd;"/><path d="M1431.42,1713.47l278.38,482.14c8.84,15.39,3.56,34.98-11.83,43.77-5.03,2.93-10.5,4.3-15.92,4.3v.09h-558.69c-17.79,0-32.2-14.4-32.2-32.18,0-6.65,2.01-12.85,5.48-17.98l278.27-481.95c8.9-15.33,28.53-20.56,43.88-11.67,5.66,3.27,9.97,8.01,12.65,13.49h0Zm0,0" style="fill:#de7b2a; fill-rule:evenodd;"/><path d="M1402.64,1762.37l-249.45,432.07h479.46v-.24h19.34l-249.35-431.83Zm0,0" style="fill:#f19c16; fill-rule:evenodd;"/><path d="M1380.03,1898.48h45.14c4.83,0,9.04,3.96,8.74,8.74l-9.28,169.23c-.29,4.84-3.96,8.79-8.8,8.79h-26.48c-4.84,0-8.5-3.96-8.8-8.79l-9.33-169.23c-.25-4.83,3.96-8.74,8.8-8.74h0Zm22.57,204.59c14.46,0,26.18,11.74,26.18,26.2s-11.73,26.18-26.18,26.18-26.18-11.72-26.18-26.18,11.72-26.2,26.18-26.2h0Zm0,0" style="fill:#fff; fill-rule:evenodd;"/><path d="M762.81,684.01c10.15,.73,19.92-11.34,22.76-14.95,10.8-13.67,17.68-29.8,20.48-38.83-2.11-5.96-4.36-13.58-6.65-22.72-39.13-26.58-44.46-46.26-16.03-59.02,5.72,3.23,12.86,13.15,21.35,29.71,6.79-.24,11.91-3.75,15.4-10.4-8.07-27.99-13.29-50.72-15.74-68.2,19.25-28.65,64.34-32.74,124.09-25.02,2.75,15.93,5.03,32.73,6.79,50.52,10.56,9.72,9.18,45.78-.53,87.35,4.87,23.65-9.74,36.55-43.79,38.69-.34,5.72,.19,12.26,.29,16.26,.1,3.61,.26,10.7,4.02,11.83l6.29,1.51c-.63,84.52-43.87,100.73-138.73,3.27h0Zm0,0" style="fill:#fcb88d; fill-rule:evenodd;"/><path d="M928.46,474.62c-59.75-7.76-104.84-3.68-124.09,24.97,2.44,17.48,7.67,40.21,15.74,68.2-3.48,6.65-8.61,10.16-15.4,10.4-8.49-16.56-15.63-26.48-21.35-29.71-28.43,12.76-23.1,32.44,16.03,59.02,2.29,9.14,4.54,16.75,6.65,22.72-35.23-7.87-64.68-39.38-68.84-52.97-41.03-80.93,4.74-115.14,29.27-127.59,10.79-80.16,126.22,.34,184.56-38.3,23.21,32.05-4.54,62.53-22.57,63.26h0Zm0,0" style="fill:#b5453c; fill-rule:evenodd;"/><path d="M851.71,642.87c9.53,4.73,22.63,7.48,39.23,8.26-.29,5.62-.05,12.11,.29,16.12-16.71-3.23-29.89-11.34-39.52-24.38h0Zm0,0" style="fill:#f08261; fill-rule:evenodd;"/><path d="M691.56,2266.35c-37.06-13.05-40.05-32.15-60.03-41.48-20.13-9.38-22.43-26.14-2.79-44.31,14.56,11.58,32.58,25.9,42.16,18.32,6.35-5.03,28-4.74,32.3,2.64,18.81,43.77,45.05,29.9,50.23,49.83,.59,26.53-44.81,21.01-61.86,15h0Zm0,0" style="fill:#1c468a; fill-rule:evenodd;"/><path d="M1012.93,2222.82c-65.31-1.08-114.11-1.86-136.69-8.94-24.33-7.72-19.3-22.57-5.33-46.26,61.56,28.29,45.2-5.86,73.97-1.51,20.24,16.26,50.22,27.21,89.89,32.73,16.76,12.41,9.97,23.45-21.84,23.99h0Zm0,0" style="fill:#1c468a; fill-rule:evenodd;"/><path d="M980.3,693.58c-32.59-9.48-61.85-15.19-87.79-17.24-4.69,71.63-42.06,71.13-112.13-1.47-67.41,5.67-80.66,6.5-118.08,18.66-80.96,77.34-88.43,166.64-130.74,268.65,46.87,2.1,67.91,7.72,99.76,19.1,6.84-24.47,12.56-44.16,17.15-59.06-1.26,134.54-1.76,226.68-1.47,276.51,187.6,23.79,299.23,21.3,334.79-7.48,.74-119.55,1.71-214.23,2.99-283.99,18.56,21.89,35.72,38.8,51.58,50.86,37.96-43.58,63.75-61.12,85.3-86.82-47.71-78.32-116.08-151.2-141.38-177.74h0Zm0,0" style="fill:#f99746; fill-rule:evenodd;"/><path d="M1292.67,824.61c-81.44,33.82-138.4,61.75-171.04,83.84l-14.46-21.41c-13.48,13.49-28.82,26.68-47.58,45.93,17.34,18.12,35.96,33.07,57.6,45.67,56.57-6.06,119.1-48.9,187.59-128.54,21.31-4.25,36.99-11.96,47.05-23.15,.54-10.26-4.64-20.57-15.54-30.88,28.45-18.52,39.72-31.75,33.96-39.72-44.51,27.5-70.35,50.27-77.58,68.25h0Zm0,0" style="fill:#fcb88d; fill-rule:evenodd;"/><path d="M983.71,978.8c-.88,73.04-1.5,143.87-1.91,212.47,10.17,8.07,23.8,76.07,11.73,115.59,20.62,127.17,2.93,292.73-8.14,505.64-19.85,75.04-49.16,175-47.25,315.7-34.59,10.59-47.09,11.67-78.3,3.76-21.8-146.86-6.95-264.45,12.78-318.78-12.65-83.93-31.46-177.93-58.91-313.45-30.93,147.69-72.25,257.31-90.19,328.83-3.51,79.73-19.68,187.36-28.09,322.83-25.7,7.72-41.67,9.97-68.3,6.74-34.54-124.58-28.73-260.1-14.12-406.57,15.59-176.12-10.1-374.96,15.64-443.94,8.2-45.78,3.13-88.81,18.37-108.89,32.5,7.57,62.15,1.12,89.06-19.3,2.49-173.62,8.45-288.68,17.94-345.25,9.57-81.69-14.91-130.39-73.43-146.18,12.05-12.31,27.35-15.09,45.81-8.3,45.43,29.84,67.07,82.96,64.98,159.36,77.43,10.85,129.51,7.38,156.18-10.51,2.89-72.1-11.48-122.47-43.04-151.05,11.92-8.5,27.31-5.76,46.21,8.26,24.18,33.26,34.84,84.86,31.96,154.77,6.11,25.31,6.45,71.37,1.02,138.26h0Zm0,0" style="fill:#1c468a; fill-rule:evenodd;"/><path d="M670.86,1062.1c-8.31,1.22-16.17,2.34-23.55,3.32-.39,59.36-.49,103.77-.29,133.32,8.31,1.07,16.47,2.05,24.52,3.02-.64-49.64-.87-96.19-.68-139.67h0Zm378.96-118.87c-22.81-19-44.56-49.88-65.17-92.58,2.3,14.84,3.23,34.78,2.78,59.7,17.54,20.38,33.85,36.3,48.95,47.78,4.65-5.33,9.09-10.32,13.44-14.91h0Zm-372.51-115.73c-10.07,32.39-19.65,63.96-28.83,94.73-.24,25.99-.44,50.41-.64,73.23,6.66-.59,14.42-1.02,23.65-1.27,.98-63.12,2.87-118.71,5.82-166.69h0Zm0,0" style="fill:#ed7d2b; fill-rule:evenodd;"/><path d="M881.91,874.05h170.6c7.82,0,13.19,6.4,11.96,14.22l-38.3,241.73c-1.22,7.82-8.64,14.22-16.46,14.22h-170.6c-7.82,0-13.25-6.4-11.97-14.22l38.26-241.73c1.26-7.82,8.69-14.22,16.51-14.22h0Zm0,0" style="fill:#699dee; fill-rule:evenodd;"/><path d="M547.3,963.07c-7.38,29.95-10.45,57.3-4.4,93.6,18.36,26.73,92.72,11.77,284.04-20.17,6.84,6.26,21.05,12.51,42.6,9.72,20.03-5.03,20.96-10.25,43.43-31.41,5.42-16.46,4.3-29.02-3.37-37.71-25.26,14.84-38.59,22.76-67.02,23.69,7.56-19.49,8.69-32.05,3.41-37.71-9.73,7.76-16.07,19.49-18.96,35.07-150.86-6.55-190.67-5.66-210.75,4.89,2.2-9.48,4.1-17.78,5.82-24.96-23.5-8.02-42.61-12.66-74.8-15h0Zm0,0" style="fill:#fcb88d; fill-rule:evenodd;"/><path d="M875.26,2135.38c1.56,12.8,1.76,24.28,.69,34.44,51.48,22.43,42.75-3.42,63.3-4.1-5.18-9.08-8.5-20.72-10.07-34.83-22.42,6.4-35.22,7.86-53.93,4.5h0Zm-239.98,23.59c0,9.33-.93,17.49-2.73,24.57,13.77,10.9,29.6,22.28,38.35,15.34,4.2-3.32,14.95-4.3,23.07-2.54-3.33-11.24-5.96-25.31-7.92-42.26-18.02,4.84-31.9,6.5-50.76,4.89h0Zm0,0" style="fill:#fcb88d; fill-rule:evenodd;"/><path d="M756.88,367.34c68.4-44.8,131.23-27.25,164.64,34.05l1.02,1.91c35.62-15.48,65.22-20.52,73.53-14.8l-145.93,79.29-142.36,77.54-11.57-21.21c-28.59-52.48,3.07-119.01,60.67-156.78h0Zm0,0" style="fill:#f19c16; fill-rule:evenodd;"/><path d="M921.53,401.38c-33.41-61.3-96.24-78.85-164.64-34.05-57.59,37.77-89.25,104.3-60.67,156.78l4.98,9.14,221.35-129.96-1.02-1.91Zm0,0" style="fill:#de7b2a; fill-rule:evenodd;"/><path d="M741.02,400.02c62.28-40.84,120.03-29.84,155.06,18.82l26.48-15.54-1.02-1.91c-33.41-61.3-96.24-78.85-164.64-34.05-31.95,20.96-55.89,50.71-66.04,82.07,12.4-18.8,29.65-35.96,50.17-49.39h0Zm0,0" style="fill:#f19c16; fill-rule:evenodd;"/><path d="M320.18,1022.71s-8.25,28.78-48.56,79c-46.65-.68,48.56-79,48.56-79h0Zm0,0" style="fill:#4e909a; fill-rule:evenodd;"/><path d="M539.84,1255.7l-29.67,5.52s-81.14-125.12-83.48-163.32c-2.25-36.4-75.39-195.86,10.25-295.42,3.82-4.49,8.02-8.9,12.61-13.09l.48-.49s.16,.25,.4,.73c1.76,2.88,8.55,15.2,16.5,42.36,12.51,42.46,27.96,121.3,31.57,257.46,0,0,19.93,116.61,41.34,166.25h0Zm0,0" style="fill:#ffb27d; fill-rule:evenodd;"/><path d="M539.84,1255.7s31.81,35.86,32.77,50.42c.99,14.51-11.62,32.83-25.74,35.96-14.12,3.13-5.27-19.3-7.42-28.29-2.11-9.04-11.34-22.67-10.8-18.61,.58,4.06,6.21,20.08,4.45,22.67-1.71,2.54-6.31,2.92-8.02-5.62-1.71-8.55-15.96-18.51-13.14-27.7,2.78-9.19,.48-16.28-3.37-28.53-3.87-12.36-10.32-27.11-10.32-27.11l22.91-4.89,18.68,31.71Zm0,0" style="fill:#ffb27d; fill-rule:evenodd;"/><path d="M325.31,608.14s-.68,15.09,8.35,18.07c9.1,2.98-9.32,35.62-7.86,57.65,1.43,22.03,11.19,30.92,11.19,30.92,0,0-4.69-12.12-2.06-19.64,0,0-.43,15.59,10.94,23.45,11.43,7.91,8.35,14.71,8.35,14.71,0,0,25.75-7.73,26.48-27.02,0,0,1.08,8.75,.2,12.32,0,0,22.23-16.71,23.3-35.91,1.08-19.25-17.5-35.47-25.94-35.76-8.45-.29-27.36-16.9-26.82-23.15,.48-6.31-26.14-15.64-26.14-15.64h0Zm0,0" style="fill:#b5453c; fill-rule:evenodd;"/><path d="M524.93,2178.9l-31.5,11.73s-136.8-189.75-153.65-356.69c-2.98-29.75-2-58.67,4.55-85.3,0,0-1.38-7.67-3.71-21.15-1.08-6.31-2.4-13.88-3.92-22.57-4.44-25.5-10.59-60.39-17.57-100.06-16.08-91.36-36.93-208.11-53.16-294l8.51-2.74,91.85-29.6,18.95-60.23,68.35-18.03s15.29,29.9,28.93,170.99c2.54,18.56,4.83,38.98,6.55,61.12,5.32,67.56,5.71,151.4-6.51,247.2-3.13,24.52-7.08,49.89-12,75.87-3.58,19.11-4.17,45.05-2.6,74.95,6.88,136.45,56.96,348.53,56.96,348.53h0Zm0,0" style="fill:#1c468a; fill-rule:evenodd;"/><path d="M489.07,1432.36l-148.47,295.13c-1.08-6.31-2.4-13.88-3.92-22.57-4.44-25.5-10.59-60.39-17.57-100.06-16.08-91.36-36.93-208.11-53.16-294l8.51-2.74,91.85-29.6,18.95-60.23,81.68-24.34s1.96,36.2,15.6,177.3c2.54,18.56,4.83,38.98,6.55,61.12h0Zm0,0" style="fill:#1c468a; fill-rule:evenodd;"/><path d="M363.61,502.57l-104.99,159.26s-12.01-23.5-25.35-15.05c-20.81,13.14-65.47-31.8-56.18-95.37,.63-4.15,1.36-8.05,2.19-11.82,20.92-30.19,44.22-63.8,60.88-87.41,48.22-29.1,123.45,50.38,123.45,50.38h0Zm0,0" style="fill:#b5453c; fill-rule:evenodd;"/><path d="M409.73,824.37c-14.71,13.43-33.75,25.5-58.48,34.83-92.73,35.13-140.41-40.74-161.76-94.39,12.08-9.23,24.15-12.6,31.07-14.36,6.84-1.8,14.02-3.32,20.04-4.44,9.62-9.68,21.04-45.54,17.48-98.35l4.64,.58,78.27,10.35s-.19,24.48,1.16,47.39c1.13,17.88,3.23,34.89,7.14,38.6,6.07,.44,9.73,.78,9.73,.78l.03,.09c1.23,1.52,28,34.55,50.67,78.9h0Zm0,0" style="fill:#ffb27d; fill-rule:evenodd;"/><path d="M341,658.66s-.25,24.42,1.16,47.34c-43.28,1.52-68.69-36.44-79.44-57.74l78.27,10.41Zm0,0" style="fill:#ee9a5a; fill-rule:evenodd;"/><path d="M356.83,679.42s-102.21,8.21-106.36-55.5c-4.11-63.71-20.09-105.62,45-113.53,65.06-7.92,79.33,15.58,85.87,36.49,6.55,20.96,1.91,128.78-24.52,132.54h0Zm0,0" style="fill:#ffb27d; fill-rule:evenodd;"/><path d="M376.07,511.66c-17.04-18.18-28.73-13.2-35.07-7-57.84-27.21-91.02,20.57-91.02,20.57-3.92,46.12-35.24,74.41-35.24,74.41,0,0,19.41,10.35,61.66-3.42,12.9-4.25,24.04-14.32,33.32-26.29-15.59,30.29-37.91,52.81-37.91,52.81,49.83-27.01,65.89-99.76,67.52-107.43,6.6,5.23,19.7,16.6,24.18,28.33,6.16,15.92,10.56,49.15,20.23,47.39,0,0,17.88-52.17-7.67-79.38h0Zm0,0" style="fill:#b5453c; fill-rule:evenodd;"/><path d="M623.47,2231.81c-14.51,19.15-99.07-3.61-158.62,0,0,0-5.93-25.35,4.47-42.56,9.24-15.24,5.72-23.93-1.12-36.54,7.18,2.93,16.46,5.62,26.73,5.08,7.91-.49,16.27-4.06,23.59-8.31,6.79,7.77,36.06,40.89,45.19,47.49,10.36,7.42,56.57,4.79,59.75,34.83h0Zm0,0" style="fill:#10355a; fill-rule:evenodd;"/><path d="M477.38,840.97c-12.69-63.6-52.13-81.87-52.13-81.87,0,0-6.54-9.87-43.13-11.45-5.72-.23-11.92-1.4-18.86-1.94-1.37-.16-2.83-.2-4.24-.34l.03,.09c1.37,2.16,38.31,58.91,36.26,74.21-2.1,15.49-136.5,10.21-146.26,2.34-7.82-6.34-21.41-48.46-26.44-64.98-1.26-4.09-2.05-6.64-2.05-6.64,0,0-46.95,8.21-69.03,26.48,0,0,16.91,18.57,28.19,41.34,1.08,2.19,2.11,4.34,3.08,6.59,2,4.64,3.66,9.43,4.88,14.26,1.61,6.3,.15,12.8-3.26,19.83-3.04,6.45-7.82,13.34-13.34,20.82-3.61,4.89-7.52,10.01-11.49,15.54,2.78,9.28,6.45,20.38,10.51,32.97,8.3,25.84,18.17,57.8,25.21,92.24,2.65,12.94,2.3,26.28-.88,39.04-1.27,5.03-2.98,10.01-5.13,14.8-3.31,7.52-4.15,17.89-7.92,27.56-15.33,39.81-33.07,91.74-15.33,118.81,11.87,34.68,286.38-49.48,267.87-85.84,0,0,10.99-190.63,18.51-249.69,.26-2.19,.43-4.25,.59-6.35,.15-3.32,.15-6.59-.05-9.82,23.8-10.84,24.42-27.94,24.42-27.94v-.05Zm0,0" style="fill:#f99746; fill-rule:evenodd;"/><path d="M287.99,1079.97c-39.52,12.7-78.01,18.13-108.56,20.38,3.77-9.73,6.56-18.57,9.87-26.04,2.15-4.83,3.85-9.82,5.13-14.84,3.23-12.75,3.53-26.09,.88-39.04-7.03-34.39-25.8-93.11-34.1-118.96,22.19-49.48,45.1-22.48,45.1-22.48,0,0,67.07,30.05,95.6,85.46,28.53,55.46,20.23,104.64-13.92,115.54h0Zm0,0" style="fill:#ed7d2b; fill-rule:evenodd;"/><path d="M202.45,754.17s63.82,40.84,80.17,126.82l19.3-6.11s-7.48-61.41-81.34-124.44l-18.12,3.72Zm0,0" style="fill:#0e4081; fill-rule:evenodd;"/><path d="M427.89,883.19l-20.21,1.32c4.05-74.55-33.37-125.51-44.42-138.79,6.89,.54,13.19,1.22,18.86,1.94,52.91,76.57,45.77,135.54,45.77,135.54h0Zm0,0" style="fill:#0e4081; fill-rule:evenodd;"/><path d="M453.02,1206.46l14.32-6.2-14.07-213.68s-13.74-97.17-13.94-114.17c-.19-17-13.87-25.26-13.87-25.26,0,0-100.69,5.27-129.01,6.89-28.39,1.61-25.5,17.74-25.5,17.74,0,0,12.35,51.64,13.57,56.97,19.11,81.14-90.09,130.73-90.09,130.73,0,0-17.73,45.82-31.46,89.74-23.55,75.27-2.54,183.3-2.54,183.3,3.61,57.36,10.11,301.14,16.95,373.3,2.44,26.14,4.59,44.7,5.52,52.17v.09c.3,2.25-.53,4.41-1.66,6.36-10.07,17.05-18.37,34.78-25.21,52.96-66.93,178.36,10.35,398.06,10.35,398.06l20.03-8.11s43.96-244.47,79.68-352.44c6.05-18.32,11.87-32.73,17.19-41.33,15.54-25.06,29.94-66.05,42.98-114.76,24.73-92.04,44.66-211.88,57.91-304.31,1.85,.09,20.86-129.62,68.59-186.83,.43-.53,.49-.92,.24-1.22h0Zm0,0" style="fill:#1c468a; fill-rule:evenodd;"/><path d="M281.83,873.52c-1.46-4.45,1.03-9.24,5.48-10.66,4.5-1.41,9.22,1.03,10.65,5.52,1.41,4.45-1.02,9.24-5.52,10.59-4.44,1.47-9.23-1.02-10.6-5.46h0Zm0,0" style="fill:#ea7718; fill-rule:evenodd;"/><path d="M283.25,873.02c-1.42-4.44,1.07-9.18,5.51-10.59,4.46-1.47,9.24,1.02,10.66,5.48,1.42,4.49-1.08,9.23-5.51,10.7-4.45,1.37-9.25-1.08-10.66-5.58h0Zm0,0" style="fill:#f49640; fill-rule:evenodd;"/><path d="M286.09,870.49c0-.68,.54-1.22,1.22-1.22s1.23,.54,1.23,1.22c0,.64-.54,1.22-1.23,1.22s-1.22-.58-1.22-1.22h0Zm0,0" style="fill:#0e4081; fill-rule:evenodd;"/><path d="M294.14,870.49c0-.68,.54-1.22,1.23-1.22s1.23,.54,1.23,1.27c0,.64-.54,1.16-1.23,1.16s-1.23-.53-1.23-1.22h0Zm0,0" style="fill:#0e4081; fill-rule:evenodd;"/><path d="M406.6,862.77c-1.42-4.5,1.02-9.28,5.48-10.7,4.49-1.36,9.23,1.08,10.65,5.52,1.42,4.5-1.03,9.24-5.52,10.66-4.45,1.41-9.22-1.03-10.6-5.48h0Zm0,0" style="fill:#ea7718; fill-rule:evenodd;"/><path d="M408.02,862.28c-1.42-4.44,1.06-9.24,5.51-10.65,4.44-1.42,9.24,1.07,10.66,5.52,1.41,4.44-1.03,9.23-5.53,10.64-4.44,1.43-9.22-1.02-10.64-5.51h0Zm0,0" style="fill:#f49640; fill-rule:evenodd;"/><path d="M410.85,859.69c0-.64,.58-1.22,1.23-1.22s1.26,.58,1.26,1.22c0,.69-.59,1.22-1.26,1.22s-1.23-.53-1.23-1.22h0Zm0,0" style="fill:#0e4081; fill-rule:evenodd;"/><path d="M418.92,859.69c0-.64,.54-1.22,1.22-1.22s1.22,.58,1.22,1.22c0,.74-.54,1.22-1.22,1.22s-1.22-.48-1.22-1.22h0Zm0,0" style="fill:#0e4081; fill-rule:evenodd;"/><path d="M189.06,620.21s-.74,15.19,8.35,18.12c9.09,2.93-9.32,35.62-7.91,57.7,1.47,22.03,11.24,30.92,11.24,30.92,0,0-4.69-12.17-2.06-19.65,0,0-.43,15.59,10.95,23.45,11.37,7.86,8.3,14.66,8.3,14.66,0,0,25.8-7.67,26.48-26.97,0,0,1.12,8.69,.25,12.31,0,0,22.22-16.71,23.3-35.96,1.08-19.2-17.54-35.47-25.98-35.75-8.46-.29-27.3-16.91-26.77-23.16,.5-6.25-26.14-15.68-26.14-15.68h0Zm0,0" style="fill:#b5453c; fill-rule:evenodd;"/><path d="M189.17,1127.17s30.57,19.3,35.06,19.1c10.5-.4,31.22-23.31,48.47-12.7,17.24,10.6,34.15,28.24,28.14,35.32-5.96,7.08-26.2-1.26-35.91,.15-9.73,1.42-33.66,13.34-50.62,7.72-16.22-5.38-51.34-27.56-51.34-27.56l26.2-22.03Zm0,0" style="fill:#ffb27d; fill-rule:evenodd;"/><path d="M151.54,776.88S37.71,911.38,0,987.15c0,0,45.33,98.63,192.19,178.81,0,0,6.54-1.47,16.5-8.61,15.54-11.08-1.71-19.2-5.07-21.39-37.29-24.14-102.41-128.1-104.27-137.14-1.91-9.04,81.59-89.94,106.95-119.84,25.39-29.94-15.3-117.53-54.77-102.1h0Zm0,0" style="fill:#ffb27d; fill-rule:evenodd;"/><path d="M151.54,776.88l-51.15,49.98s11.72,73.77,89.11,83.45c0,0,63.56-50.9,25.61-103.87-37.96-53.06-63.57-29.56-63.57-29.56h0Zm0,0" style="fill:#f99746; fill-rule:evenodd;"/><path d="M224.23,1146.27s1.71-7.42,8.31-10.35c6.55-2.88,12.7-9.29,13.19-7.43,.54,1.86,.98,4.98-2.44,8.75-3.37,3.71-9.19,10.06-19.06,9.04h0Zm0,0" style="fill:#f8b57d; fill-rule:evenodd;"/><path d="M282.91,2231.81c-50.76,11.95-95.85-2.69-158.63,0,0,0-3.81-24.18,4.49-42.56,7.92-17.58,20.38-25.59,17.4-46.9,10.06,10.36,26.53,21.99,49.44,18.91,2.79,4.59,18.12,28.92,27.5,35.72,10.37,7.42,56.63,4.79,59.81,34.83h0Zm0,0" style="fill:#10355a; fill-rule:evenodd;"/><path d="M238.25,423.71c76.9-27.8,134.01,3.81,152.33,71.18l.54,2.06c38.2-6.79,68.2-4.84,74.94,2.58l-160.28,43.43-156.44,42.56-6.34-23.31c-15.68-57.64,30.54-115.1,95.26-138.5h0Zm0,0" style="fill:#f19c16; fill-rule:evenodd;"/><path d="M390.58,494.9c-18.33-67.38-75.43-98.99-152.33-71.18-64.72,23.4-110.94,80.86-95.26,138.5l2.74,10.02,245.39-75.28-.54-2.06Zm0,0" style="fill:#de7b2a; fill-rule:evenodd;"/><path d="M215.24,451.81c70.05-25.31,123.7-1.32,146.51,54.13l29.36-8.98-.54-2.06c-18.33-67.38-75.43-98.99-152.33-71.18-35.9,12.94-66.1,36.4-83.19,64.58,16.4-15.48,37.14-28.14,60.19-36.49h0Zm0,0" style="fill:#f19c16; fill-rule:evenodd;"/></svg>