<?xml version="1.0" encoding="UTF-8"?><svg id="a" xmlns="http://www.w3.org/2000/svg" viewBox="0 0 1965.44 1428.59"><path d="M1585.76,590.65c-59.36,0-107.48-48.13-107.48-107.49s48.13-107.48,107.48-107.48,107.49,48.12,107.49,107.48-48.13,107.49-107.49,107.49h0Zm160.73,63.92h0Zm-90.14-442.77h0Zm-240.14,96.53h0Zm4.98,335.89c15.14,15.46,32.47,28.83,51.51,39.58l-2.94,54.66,45.4,16.07,32.14-44.33,12.42,1.75,52.48-.03,29.75,45.97,40.61-11.55,1.4-.52,4.19-1.61-.06-54.74,9.05-4.75,44.47-32.04,4.89,1.87,46.15,17.8c10.84-11.85,20.67-24.62,29.38-38.21l-32.18-44.2c9.94-19.02,17.33-39.58,21.69-61.26l52.83-14.04,1.26-48.2-52.03-16.83c-3.18-21.92-9.48-42.85-18.41-62.32l34.48-42.44c-7.97-14.03-17.12-27.32-27.31-39.71l-52.02,16.97-51.47-39.58,2.93-54.66c-14.49-6.6-29.69-12.01-45.43-16.07l-32.11,44.3-64.91-1.7-29.75-45.96-46.21,13.68,.05,54.72c-19.57,9.72-37.56,22.15-53.48,36.79l-13.73-5.27-37.33-14.4c-10.84,11.84-20.67,24.62-29.37,38.22l32.19,44.19c-9.94,18.97-17.34,39.53-21.67,61.26l-52.84,14.06-1.28,48.2,52.02,16.82c3.2,21.87,9.49,42.8,18.42,62.31l-34.48,42.45c7.98,14.03,17.12,27.31,27.32,39.7l52-16.96Z" style="fill:#c4d1eb; fill-rule:evenodd;"/><path d="M1735.73,610.11c-1.27,0-2.56-.43-3.61-1.31-2.41-2-2.75-5.57-.75-7.98,27.41-32.95,42.51-74.74,42.51-117.68,0-20.56-3.37-40.74-10.01-60-1.02-2.96,.55-6.18,3.52-7.2,2.96-1.02,6.17,.55,7.2,3.51,7.04,20.44,10.59,41.87,10.59,63.69,0,45.57-16,89.94-45.11,124.93-1.11,1.35-2.71,2.04-4.36,2.04Z" style="fill:#fff; fill-rule:evenodd;"/><path d="M1719.82,350.58c-1.39,0-2.78-.51-3.89-1.54-18.41-17.34-39.76-30.48-63.39-39.06-2.93-1.07-4.45-4.32-3.4-7.26,1.08-2.94,4.33-4.46,7.26-3.4,25.11,9.12,47.76,23.07,67.31,41.47,2.26,2.14,2.38,5.73,.22,8.01-1.12,1.18-2.59,1.78-4.11,1.78Z" style="fill:#fff; fill-rule:evenodd;"/><path d="M1543.12,304.75c-2.54,0-4.85-1.71-5.5-4.28-.75-3.03,1.08-6.11,4.11-6.88,15.6-3.93,31.76-5.93,47.98-5.93,3.15,0,5.69,2.54,5.69,5.67s-2.54,5.66-5.69,5.66c-15.29,0-30.49,1.88-45.2,5.59-.46,.12-.92,.17-1.39,.17Z" style="fill:#fff; fill-rule:evenodd;"/><path d="M407.69,1063.41c43.94-39.92,47.2-107.9,7.28-151.83-39.91-43.93-107.89-47.2-151.83-7.28-43.94,39.92-47.2,107.9-7.28,151.83,39.91,43.93,107.9,47.2,151.83,7.29h0Zm-75.99,155.38h0ZM100.7,830.45h0Zm242.66-90.02h0Zm222.16,251.97c-.8,21.62-4.65,43.17-11.51,63.93l38.93,38.47-22.8,42.42-53.6-11.21-8.01,9.64-38.87,35.27,8.88,54.03-37.82,18.75-1.39,.56-4.18,1.62-36.76-40.56-9.89,2.57-54.46,6.18-2.36,4.67-22.19,44.22c-15.99-1.48-31.85-4.33-47.44-8.54l-5.9-54.36c-20.14-7.39-39.44-17.65-57.24-30.76l-48.55,25.12-33.34-34.83,27.19-47.44c-12.39-18.37-21.8-38.09-28.27-58.51l-54.05-8.23c-3.54-15.75-5.7-31.73-6.49-47.76l49.92-22.41,11.48-63.9-38.92-38.49c6.28-14.63,13.89-28.85,22.82-42.44l53.55,11.2,46.9-44.9-8.89-54.02,43.4-20.95,36.76,40.54c21.03-5.97,42.69-8.86,64.33-8.73l6.62-13.13,17.94-35.77c15.98,1.47,31.85,4.33,47.43,8.54l5.89,54.36c20.12,7.35,39.42,17.6,57.24,30.77l48.57-25.13,33.36,34.82-27.19,47.43c12.33,18.34,21.76,38.06,28.26,58.5l54.06,8.24c3.53,15.75,5.69,31.72,6.48,47.76l-49.91,22.41Z" style="fill:#c4d1eb; fill-rule:evenodd;"/><path d="M309.77,1178.66c.94-.85,1.61-2.05,1.8-3.4,.43-3.1-1.72-5.97-4.82-6.41-42.44-5.96-81.73-26.74-110.59-58.51-13.82-15.22-24.9-32.43-32.93-51.14-1.23-2.88-4.57-4.2-7.45-2.96-2.88,1.24-4.21,4.56-2.97,7.44,8.53,19.87,20.31,38.12,34.98,54.27,30.64,33.73,72.32,55.81,117.38,62.14,1.73,.25,3.39-.32,4.6-1.42Z" style="fill:#fff; fill-rule:evenodd;"/><path d="M147.03,975.86c1.03-.94,1.72-2.25,1.85-3.76,1.97-25.21,8.93-49.29,20.65-71.54,1.46-2.77,.39-6.19-2.36-7.66-2.78-1.45-6.2-.39-7.65,2.37-12.47,23.63-19.84,49.19-21.95,75.96-.23,3.1,2.09,5.84,5.23,6.07,1.62,.13,3.12-.43,4.23-1.44Z" style="fill:#fff; fill-rule:evenodd;"/><path d="M247.01,823.12c1.88-1.7,2.44-4.53,1.2-6.87-1.49-2.74-4.91-3.8-7.67-2.33-14.2,7.58-27.5,16.96-39.5,27.87-2.33,2.12-2.5,5.7-.4,8.02,2.1,2.31,5.68,2.49,8.02,.37,11.32-10.28,23.83-19.11,37.21-26.25,.42-.23,.8-.5,1.14-.81Z" style="fill:#fff; fill-rule:evenodd;"/><path d="M1051.61,301.68H261.27c5.68-24.01,27.24-41.88,52.99-41.88,1.23,0,2.48,.05,3.7,.14,12.48-30.55,42.5-52.09,77.56-52.09,15.34,0,29.69,4.14,42.04,11.32,15.07-49.69,61.23-85.87,115.85-85.87,11.1,0,21.88,1.51,32.09,4.33,26.44-58.37,85.2-98.97,153.45-98.97,80.94,0,148.54,57.13,164.69,133.27,1.38-.05,2.73-.1,4.09-.1,51.86,0,94.64,38.77,100.97,88.9,21.16,3.97,38.01,20.14,42.91,40.94Z" style="fill:#e0e8f5; fill-rule:evenodd;"/><path d="M1965.44,1038.54c-193.88-87.81-378.72-3.32-423.45,230.09,215.77,80.04,380.48-8.94,423.45-230.09Z" style="fill:#e0e8f5; fill-rule:evenodd;"/><path d="M1941.21,1044.68c1.51-.83,3.41-.28,4.25,1.23,.83,1.51,.28,3.41-1.23,4.25l-142.69,78.76,78.38,51.59c1.44,.95,1.84,2.89,.89,4.33-.95,1.44-2.89,1.84-4.33,.89l-81.13-53.4-39.63,21.88c-.54,.8-1.45,1.34-2.49,1.38l-30.38,16.77,78.11,70.4c1.28,1.16,1.38,3.13,.23,4.41-1.16,1.28-3.13,1.38-4.41,.23l-79.72-71.84-35.61,19.65c-.12,.08-.23,.14-.35,.2l-36.17,19.96,55.76,54.05c1.24,1.2,1.27,3.18,.07,4.42-1.21,1.24-3.18,1.27-4.42,.06l-57.13-55.38-95.71,52.84c-1.51,.83-3.41,.28-4.25-1.23-.83-1.51-.28-3.42,1.22-4.25l64.36-35.53-5.69-61.28c-.16-1.72,1.1-3.24,2.81-3.4,1.72-.16,3.24,1.1,3.4,2.81l5.44,58.58,65.56-36.19-15.15-106.44c-.25-1.71,.94-3.3,2.66-3.54,1.71-.25,3.3,.95,3.54,2.66l14.82,104.09,33.69-18.6,.13-.07,33.92-18.72-1.54-109.84c-.02-1.73,1.36-3.15,3.08-3.17,1.73-.02,3.15,1.36,3.17,3.08l1.5,106.49,37.7-20.81,.19-.11,40.31-22.25,8.28-80.89c.17-1.72,1.7-2.96,3.42-2.79,1.72,.17,2.96,1.7,2.8,3.42l-7.83,76.58,100.17-55.3Z" style="fill:#fff; fill-rule:evenodd;"/><path d="M0,627.63c193.88-87.81,378.71-3.32,423.45,230.09C207.68,937.77,42.97,848.79,0,627.63Z" style="fill:#e0e8f5; fill-rule:evenodd;"/><path d="M24.23,633.78c-1.51-.84-3.41-.29-4.25,1.22-.83,1.51-.28,3.41,1.22,4.25l142.7,78.77-78.39,51.58c-1.44,.95-1.84,2.89-.89,4.33,.95,1.44,2.89,1.84,4.33,.89l81.13-53.39,39.63,21.87c.54,.81,1.45,1.34,2.49,1.38l30.38,16.78-78.11,70.4c-1.28,1.16-1.39,3.14-.23,4.41,1.16,1.28,3.13,1.39,4.41,.23l79.72-71.85,35.61,19.66c.12,.07,.23,.14,.35,.2l36.17,19.96-55.76,54.05c-1.24,1.21-1.27,3.18-.06,4.42s3.18,1.27,4.42,.06l57.13-55.38,95.71,52.83c1.51,.83,3.41,.28,4.25-1.23,.83-1.51,.28-3.41-1.22-4.25l-64.36-35.52,5.68-61.29c.16-1.72-1.1-3.24-2.81-3.4-1.72-.16-3.25,1.1-3.41,2.82l-5.43,58.58-65.56-36.19,15.15-106.44c.25-1.72-.95-3.3-2.66-3.55-1.71-.24-3.3,.95-3.54,2.66l-14.82,104.08-33.69-18.6-.14-.08-33.91-18.72,1.54-109.84c.02-1.73-1.36-3.15-3.08-3.17-1.73-.02-3.15,1.36-3.18,3.09l-1.49,106.49-37.7-20.81-.19-.1-40.31-22.25-8.27-80.88c-.17-1.72-1.7-2.97-3.42-2.8-1.72,.17-2.97,1.71-2.8,3.43l7.83,76.58-100.17-55.29Z" style="fill:#fff; fill-rule:evenodd;"/><path d="M1808.17,772.33c-210.97,28.14-323.05,197.67-237.45,419.37,225.43-46.31,318.06-208.99,237.45-419.37Z" style="fill:#c4d1eb; fill-rule:evenodd;"/><path d="M1790.86,790.38c.84-1.51,2.74-2.05,4.25-1.21,1.51,.84,2.05,2.74,1.21,4.25l-79.36,142.36,93.81,2.27c1.73,.04,3.09,1.48,3.05,3.2-.05,1.73-1.48,3.1-3.21,3.05l-97.09-2.35-22.04,39.54c-.04,.97-.52,1.91-1.39,2.48l-16.9,30.32,103.53,18.37c1.7,.31,2.84,1.93,2.54,3.63-.31,1.7-1.93,2.84-3.63,2.53l-105.67-18.75-19.8,35.53c-.06,.12-.12,.24-.2,.35l-20.12,36.08,75.93,16.34c1.68,.36,2.75,2.03,2.39,3.71-.37,1.69-2.03,2.76-3.71,2.4l-77.79-16.74-53.23,95.49c-.84,1.51-2.74,2.05-4.25,1.21-1.51-.84-2.05-2.74-1.21-4.25l35.79-64.21-37.26-48.98c-1.05-1.37-.79-3.33,.59-4.38,1.37-1.04,3.33-.78,4.37,.59l35.62,46.82,36.46-65.41-69.21-82.28c-1.12-1.32-.94-3.3,.38-4.41,1.32-1.11,3.3-.94,4.41,.38l67.68,80.46,18.73-33.61,.07-.14,18.86-33.83-59.45-92.37c-.93-1.45-.51-3.39,.94-4.33,1.46-.93,3.39-.51,4.33,.94l57.64,89.55,20.97-37.61,.1-.19,22.42-40.21-35.8-73c-.76-1.55-.12-3.42,1.43-4.18,1.55-.76,3.42-.12,4.18,1.42l33.89,69.12,55.71-99.93Z" style="fill:#fff; fill-rule:evenodd;"/><path d="M157.28,361.43c210.97,28.13,323.05,197.66,237.44,419.37-225.43-46.31-318.06-209-237.44-419.37Z" style="fill:#c4d1eb; fill-rule:evenodd;"/><path d="M174.58,379.47c-.84-1.51-2.74-2.04-4.25-1.21-1.51,.84-2.05,2.74-1.21,4.25l79.36,142.36-93.81,2.27c-1.73,.05-3.09,1.48-3.05,3.21,.04,1.72,1.48,3.09,3.21,3.05l97.09-2.35,22.04,39.54c.03,.97,.52,1.91,1.39,2.48l16.9,30.31-103.54,18.38c-1.7,.3-2.83,1.92-2.53,3.62,.31,1.7,1.93,2.84,3.63,2.54l105.66-18.76,19.81,35.53c.06,.12,.12,.24,.2,.35l20.12,36.08-75.93,16.34c-1.68,.36-2.76,2.03-2.39,3.71,.36,1.69,2.03,2.76,3.71,2.39l77.79-16.74,53.23,95.49c.84,1.51,2.74,2.05,4.25,1.21,1.51-.84,2.05-2.75,1.21-4.26l-35.79-64.2,37.27-48.99c1.05-1.37,.79-3.33-.59-4.37-1.37-1.05-3.33-.79-4.38,.58l-35.61,46.82-36.46-65.41,69.21-82.27c1.11-1.32,.94-3.3-.38-4.41-1.32-1.12-3.3-.95-4.41,.38l-67.68,80.46-18.73-33.62-.08-.13-18.87-33.84,59.45-92.37c.94-1.46,.51-3.39-.94-4.33-1.46-.94-3.39-.51-4.33,.94l-57.64,89.56-20.97-37.62-.1-.18-22.41-40.22,35.79-73c.76-1.54,.13-3.42-1.42-4.18-1.55-.76-3.42-.13-4.18,1.42l-33.9,69.12-55.71-99.94Z" style="fill:#fff; fill-rule:evenodd;"/><path d="M404.39,440.96H1579.3c15.3,0,28.04,12.44,27.82,27.63l-10.51,724.82c-.22,15.18-12.54,27.62-27.82,27.62H414.91c-15.28,0-27.6-12.43-27.82-27.62l-10.51-724.82c-.22-15.19,12.52-27.63,27.82-27.63Z" style="fill:#b0c2e4; fill-rule:evenodd;"/><polygon points="413.44 477.68 423.69 1184.31 1560.01 1184.31 1570.26 477.68 413.44 477.68" style="fill:#fff; fill-rule:evenodd;"/><polygon points="438.38 502.27 447.92 1159.72 1535.77 1159.72 1545.32 502.27 438.38 502.27" style="fill:#c4d1eb; fill-rule:evenodd;"/><polygon points="1544.11 585.41 439.59 585.41 438.38 502.27 1545.32 502.27 1544.11 585.41" style="fill:#9db2d9; fill-rule:evenodd;"/><path d="M493.69,520.3h575.69c12.95,0,23.54,10.59,23.54,23.54h0c0,12.95-10.59,23.54-23.54,23.54H493.69c-12.95,0-23.54-10.59-23.54-23.54h0c0-12.95,10.59-23.55,23.54-23.55Z" style="fill:#fff; fill-rule:evenodd;"/><path d="M1474.91,520.3c13,0,23.54,10.54,23.54,23.54s-10.54,23.54-23.54,23.54-23.54-10.54-23.54-23.54,10.54-23.54,23.54-23.54Z" style="fill:#fff; fill-rule:evenodd;"/><path d="M588.44,653.63h806.81v17.12H588.44v-17.12h0Zm0,395.53h806.81v17.12H588.44v-17.12h0Zm0-49.44h806.81v17.12H588.44v-17.12h0Zm0-49.45h806.81v17.12H588.44v-17.12h0Zm0-49.44h806.81v17.12H588.44v-17.12h0Zm0-49.44h806.81v17.12H588.44v-17.12h0Zm0-49.44h806.81v17.12H588.44v-17.12h0Zm0-49.44h806.81v17.12H588.44v-17.12h0Zm0-49.44h806.81v17.12H588.44v-17.12Z" style="fill:#fff; fill-rule:evenodd;"/><polygon points="162.85 1397.31 545.37 1397.31 1438.33 1397.31 1820.85 1397.31 1603.1 1221.03 1438.33 1221.03 545.37 1221.03 380.6 1221.03 162.85 1397.31" style="fill:#c4d1eb; fill-rule:evenodd;"/><path d="M162.85,1397.31H1820.85c0,14.97-10.65,28.25-24.74,31.29H187.59c-14.1-3.03-24.74-16.32-24.74-31.29Z" style="fill:#9db2d9; fill-rule:evenodd;"/><polygon points="771.4 1332.21 827.19 1332.21 1156.5 1332.21 1212.29 1332.21 1226.85 1358.96 1156.5 1358.96 827.19 1358.96 756.84 1358.96 771.4 1332.21" style="fill:#fff; fill-rule:evenodd;"/><rect x="1046.78" y="339.67" width="109.47" height="37.82" style="fill:#d0a382;"/><path d="M1047.77,318.62c-6.6-3.08-10.95-8.76-10.95-17.32v-2.67c-1.29-74.07-66.38-94.83-71.63-176.76-.4-6.15-.35-12.15,.13-18C975.51,41.73,1034.57,0,1100.93,0c75.62,0,141.76,54.18,136.92,131.01-5.01,79.48-67.02,99.63-68.24,171.48,0,7.78-8.32,16.75-15.4,16.12h-106.43Z" style="fill:#eac5a7; fill-rule:evenodd;"/><path d="M1160.18,386.21c-.82,8.32-7.9,14.87-16.41,14.87h-12.62l-4.91,8.02c-2.82,4.62-4.48,4.92-9.9,4.92h-29.67c-5.41,0-7.06-.29-9.9-4.92l-4.91-8.02h-12.63c-8.4,0-15.4-6.38-16.37-14.55v-5.77c.45-1.88,2.15-3.29,4.16-3.29h108.95c2.02,0,3.73,1.43,4.17,3.33,.04,.17-.08,.53,.02,.6v4.81h0Zm-111.61-37.91h105.87c3.2,0,5.82,2.62,5.82,5.81v9.02c0,3.19-2.62,5.81-5.82,5.81h-105.87c-3.19,0-5.81-2.62-5.81-5.81v-9.02c0-3.19,2.62-5.81,5.81-5.81h0Zm.24-29.69h105.4c3.33,0,6.05,2.72,6.05,6.05v9.39c0,3.33-2.73,6.05-6.05,6.05h-105.4c-3.32,0-6.05-2.72-6.05-6.05v-9.39c0-3.33,2.73-6.05,6.05-6.05Z" style="fill:#9c7357; fill-rule:evenodd;"/><path d="M1084.79,318.62l-11.21-135.58h-16.23c-7.02,0-13.39-2.87-18.01-7.48v-.02c-4.61-4.62-7.47-10.99-7.47-17.98s2.86-13.39,7.47-18.01c4.62-4.61,10.99-7.48,18.01-7.48s12.93,2.77,17.4,7.24c4.54,4.54,7.46,10.85,8.05,17.75l1.27,14.53h49.68l1.27-14.53c.59-6.89,3.52-13.2,8.06-17.75,4.47-4.47,10.47-7.24,17.39-7.24s13.36,2.87,17.99,7.49v-.02c4.63,4.62,7.49,10.99,7.49,18.01s-2.87,13.38-7.48,18c-4.62,4.62-10.99,7.48-18,7.48h-16.24l-11.21,135.58h-11.43l11.16-135.58h-47.68l11.16,135.58h-11.43Zm-12.21-147.02l-1.18-13.55c-.36-4.19-2.08-7.97-4.75-10.64-2.4-2.4-5.62-3.89-9.31-3.89s-7.37,1.58-9.91,4.12c-2.55,2.55-4.13,6.05-4.13,9.91s1.58,7.38,4.11,9.91h.02c2.55,2.55,6.05,4.13,9.91,4.13h15.24Zm72.65,0h15.24c3.86,0,7.37-1.58,9.91-4.13,2.54-2.54,4.12-6.05,4.12-9.91s-1.58-7.37-4.12-9.91v-.02c-2.54-2.54-6.04-4.11-9.91-4.11s-6.9,1.49-9.3,3.89c-2.67,2.67-4.4,6.46-4.76,10.64l-1.18,13.55Z" style="fill:#fff; fill-rule:evenodd;"/><path d="M1150.8,47.63c-3.63-1.53-5.34-5.72-3.81-9.35,1.53-3.63,5.72-5.34,9.35-3.81,2.97,1.26,5.78,2.6,8.42,4.02,2.73,1.47,5.39,3.06,7.98,4.77,3.29,2.18,4.19,6.62,2.02,9.91-2.18,3.29-6.62,4.19-9.91,2.01-2.2-1.46-4.5-2.82-6.86-4.1-2.42-1.3-4.82-2.46-7.19-3.46h0Zm31.45,22.82c-2.6-2.98-2.29-7.51,.7-10.11,2.99-2.59,7.51-2.28,10.11,.7,7.56,8.69,13.61,18.71,17.74,29.67,3.98,10.58,6.15,21.97,6.15,33.82,0,3.96-3.21,7.16-7.16,7.16s-7.17-3.21-7.17-7.16c0-10.14-1.84-19.84-5.21-28.78-3.5-9.3-8.67-17.84-15.16-25.3Z" style="fill:#fff; fill-rule:evenodd;"/><path d="M724.94,676.93c-25.68-.41-44.88-.72-53.75-3.52-9.57-3.02-7.59-8.86-2.09-18.19,24.2,11.13,17.75-2.29,29.08-.59,7.95,6.41,19.74,10.7,35.34,12.88,6.6,4.86,3.92,9.2-8.58,9.42Z" style="fill:#0e2952; fill-rule:evenodd;"/><path d="M691.95,285.62h-158.68c-3.13,0-6.36,2.56-7.18,5.68l-28.23,107.51c-.82,3.13,1.06,5.68,4.19,5.68h158.69c3.13,0,6.36-2.55,7.18-5.68l28.23-107.51c.82-3.13-1.06-5.68-4.19-5.68Z" style="fill:#c4d1eb; fill-rule:evenodd;"/><path d="M522.69,288.72l-19.16,72.99c-23.03-11.22-50.75-29.25-79.84-52.38-.78-10.4-1.75-18.71-2.91-24.9,2.33-4.62,4.89-9.57,7.68-14.84-26.84-.17-43.21-5.94-49.1-17.31,7.17-21.01,17.22-42.46,30.1-64.35,9.02-13.34,26.68-21.17,52.98-23.52,3.08,35.27,57.18,33.47,44.45,3.1,19.63,5.27,36.26,15,49.89,29.2,11.72,28.88,18.87,49.05,21.44,60.48-12.73,8.92-24.79,14.69-36.18,17.32-.51,2.5-.92,5.34-1.22,8.53h-10.95c-3.13,0-6.35,2.56-7.18,5.68Z" style="fill:#6d96ce; fill-rule:evenodd;"/><path d="M503.53,361.7l19.16-72.99c.83-3.13,4.06-5.68,7.18-5.68h158.69c3.13,0,8.69,4.04,7.77,7.13,.15-2.59-1.64-4.55-4.38-4.55h-158.68c-3.13,0-6.36,2.56-7.18,5.68l-28.23,107.51c-.49,1.88-.01,3.55,1.13,4.59-2.61-1.69-5.1-4.95-4.52-7.17l9.07-34.53Z" style="fill:#859ac6; fill-rule:evenodd;"/><path d="M502.05,404.5h158.69c.58,0,1.17-.09,1.74-.25-3.16,8.18-11.74,6.97-15.09,6.94h-188.14c-10.2-.43-9.93-7.58-10.06-14.47h45.2c-.14,2.19,2.18,5.11,4.6,6.68,.76,.69,1.81,1.1,3.06,1.1Z" style="fill:#859ac6; fill-rule:evenodd;"/><path d="M524.26,329.83c17.01,8.61,37.13,11.25,57.82,12.31-.23,.74-.41,1.5-.53,2.28-1.38,8.72,4.77,16.14,13.65,16.14,8.37,0,15.96-6.62,17.26-14.86,.14-.9,.21-1.77,.2-2.63,21.48,.58,42.23,1.76,59.4,8.47l-11.8,44.94h-153.49l17.5-66.66Z" style="fill:#9db2d9; fill-rule:evenodd;"/><path d="M598.63,334.76c-5.68,0-11.03,4.61-11.93,10.3-.9,5.68,2.98,10.3,8.67,10.3s11.03-4.62,11.92-10.3c.9-5.69-2.98-10.3-8.66-10.3Z" style="fill:#9db2d9; fill-rule:evenodd;"/><path d="M416.05,378.31c3.17-9.65,5.44-19.66,6.83-30.04,21.37,8.27,45.81,16.26,76.71,28.46l-4.18,15.89c-46.69,1.53-73.14-3.25-79.36-14.31Z" style="fill:#6d96ce; fill-rule:evenodd;"/><path d="M499.59,376.73c-30.9-12.2-55.34-20.18-76.71-28.46-18.83-7.3-35.29-14.81-51.67-25.66,.68-20.93,3.8-41.17,12.46-64.64,7.95,7.61,22.89,11.48,44.8,11.62-6.34,11.99-11.51,22.33-15.5,31.02,32.96,27.32,64.73,48.49,90.57,61.1l-3.95,15.03Z" style="fill:#f9af79; fill-rule:evenodd;"/><path d="M574.13,259.97c2.38,8.32,4.59,16,6.61,23.06h-39.91c.3-3.18,.7-6.02,1.22-8.53,10.16-2.35,20.85-7.19,32.07-14.53Z" style="fill:#f9af79; fill-rule:evenodd;"/><path d="M671.02,646.77c-23.6-85.6-32.04-145.73-25.33-180.4-13.41,1.91-26.89,2.51-40.41,1.8,2.06-9.26,4.12-18.54,6.23-27.94-.24-12.77-6.76-22.23-29.89-29.03h65.77c2.24,.02,6.79,.57,10.53-1.51,21.19,6.05,31.53,16.05,35.07,28.25,2.58,33.58-4.4,71.83,1.55,209.08-7.42,.77-15.25,.68-23.52-.25Z" style="fill:#0e2952; fill-rule:evenodd;"/><path d="M646.36,411.19h1.03c2.24,.02,6.8,.57,10.53-1.51,21.19,6.05,31.53,16.05,35.07,28.25,2.58,33.58-4.4,71.83,1.55,209.08-4.42,.46-9,.61-13.73,.46-12.19-47.71-41.2-164.74-8.52-215.17-7.67-8.13-16.31-15.17-25.93-21.11Z" style="fill:#1d417f; fill-rule:evenodd;"/><path d="M462.49,164.77c4.21-5.35,7.91-10.32,9-13.85-.85-2.42-1.74-5.47-2.66-9.16-15.75-10.7-17.9-18.61-6.46-23.75,2.31,1.29,5.16,5.28,8.59,11.95,2.73-.11,4.8-1.51,6.21-4.19-3.26-11.27-5.37-20.41-6.35-27.44,7.76-11.53,25.92-13.18,49.95-10.07,1.12,6.4,2.03,13.17,2.74,20.33,4.25,3.91,3.7,18.43-.21,35.15,1.95,9.51-3.92,14.7-17.62,15.57-.2,3.38,1.13,7.68,1.23,8.19h0s.02,.07,.05,.11c12.5,30.15-41.04,32-44.46-2.85Z" style="fill:#f9af79; fill-rule:evenodd;"/><path d="M520.76,88.27c-24.03-3.11-42.18-1.46-49.95,10.07,.99,7.03,3.1,16.18,6.35,27.44-1.41,2.68-3.48,4.08-6.21,4.19-3.42-6.67-6.29-10.65-8.59-11.95-11.44,5.14-9.29,13.05,6.46,23.75,.92,3.69,1.81,6.74,2.66,9.16-14.17-3.18-26.02-15.85-27.69-21.33-16.53-32.58,1.91-46.34,11.77-51.36,4.36-32.26,51.21-3.74,74.68-19.29,9.33,12.89-2.21,29.05-9.48,29.34Z" style="fill:#20386f; fill-rule:evenodd;"/><path d="M487.87,158.91c6.63,.54,12.56,.68,17.8,.42-.13,2.32,.45,5.09,.87,6.75-8.5-.22-14.72-2.61-18.67-7.16Z" style="fill:#ed7d57; fill-rule:evenodd;"/><path d="M438.8,461.52c-27.68-9.94-31.46-37.52-19.27-79.19,10.01,8.19,35.3,11.62,75.88,10.29l-.95,3.61c-.04,.16-.06,.32-.08,.49h-45.2c.13,6.89-.13,14.04,10.06,14.47h122.37c23.12,6.8,29.65,16.27,29.89,29.03-14.64,65.43-27.68,125.43-45.42,208.35-5.98,3.35-14.16,3.09-24.56-.77-8.32-80.41-6.04-138.88,6.85-175.42-34.24,.13-70.77-4.53-109.58-10.87Z" style="fill:#1d417f; fill-rule:evenodd;"/><path d="M438.8,461.52c-27.68-9.94-31.45-37.52-19.27-79.19,2.13,1.74,4.95,3.27,8.46,4.58-10.09,42.82,.88,66.28,33.42,68.53,37.96,5.63,69.43,8.34,94.41,8.12-11,71.39-12.89,133.63-5.66,186.73-2.68-.51-5.55-1.34-8.62-2.48-8.32-80.41-6.04-138.88,6.85-175.42-34.24,.13-70.77-4.53-109.58-10.87Z" style="fill:#0e2952; fill-rule:evenodd;"/><path d="M692.06,647.24c.69,2.58,1.8,5.01,3.36,7.28-7.41,.69-4.55,10.24-24.56,1.48,.85-2.52,1.33-5.56,1.43-9.1,6.89,.71,13.48,.83,19.77,.34Z" style="fill:#f9af79; fill-rule:evenodd;"/><path d="M566.03,691.96c-13.63-5.63-15.68-14.78-23.18-18.28-7.55-3.52-8.42-9.81-1.03-16.63,5.45,4.36,12.22,9.71,15.8,6.87,2.39-1.89,10.51-1.77,12.11,.99,7.07,16.42,16.9,11.22,18.84,18.69,.23,9.95-13.96,11.89-22.54,8.35Z" style="fill:#0e2952; fill-rule:evenodd;"/><path d="M563.7,649.68c-.12,4.37,.48,8.75,1.8,13.15-2.92-.46-6.44-.05-7.88,1.09-3.32,2.63-9.37-1.78-14.58-5.9,.85-2.36,1.42-5.4,1.71-9.11,7.61,2.39,13.93,2.64,18.95,.77Z" style="fill:#f9af79; fill-rule:evenodd;"/><path d="M428.47,269.59c3.52-6.38,7.25-14.95,11.18-25.73-2.11,12.55-2,21.59-5.42,31.91,2.76,14.59,3.9,29.48,3.62,44.49-4.67-3.51-9.39-7.15-14.15-10.94-.78-10.4-1.75-18.71-2.91-24.9,2.33-4.62,4.89-9.57,7.68-14.84h0Zm121.79,2.52c-2.77,.98-5.51,1.77-8.21,2.4,1.03-15.97,1.7-29.17,2.02-39.6,3.07,15.4,5.14,27.8,6.19,37.2h0Zm-134.21,106.2c3.17-9.65,5.44-19.67,6.83-30.04,3.96,1.53,8.02,3.06,12.21,4.59-1.68,11.36-4.08,22.72-7.13,34.03-5.98-2.24-9.95-5.1-11.91-8.58Z" style="fill:#466fb5; fill-rule:evenodd;"/><path d="M534.78,1041.44c-2.7-4.29-5.15-7.37-7.35-9.24,10.45-5.67,16.25-11.89,17.39-18.68,1.53,1.35,2.82,2.97,3.88,4.87-3.88,9.26-8.53,16.94-13.92,23.06Z" style="fill:#466fb5; fill-rule:evenodd;"/><path d="M520.08,1041.44c2.7-4.29,5.14-7.37,7.35-9.24-10.46-5.67-16.26-11.89-17.39-18.68-1.53,1.35-2.82,2.97-3.88,4.87,3.89,9.26,8.53,16.94,13.92,23.06Z" style="fill:#466fb5; fill-rule:evenodd;"/><path d="M612.48,1050.38c-11.28-15.59-32.54-26.26-63.78-31.99-3.88,9.26-8.53,16.94-13.92,23.06-2.7-4.29-5.15-7.37-7.35-9.24-2.21,1.87-4.66,4.95-7.35,9.24-5.39-6.11-10.03-13.8-13.92-23.06-31.25,5.74-52.51,16.4-63.78,31.99-8.62,25.25-14.32,45.26-17.08,60.02,9.15,1.96,19.68,4.28,31.6,6.96-1.59,28.49-2.01,52.82-1.24,73,16.65,4.85,39.94,13.49,67.66,25.09,1.44-.05,2.81-.12,4.11-.21,1.3,.09,2.67,.17,4.11,.21,27.73-11.6,51-20.24,67.67-25.09,.77-20.18,.35-44.51-1.24-73,11.92-2.67,22.45-4.99,31.6-6.96-2.76-14.76-8.46-34.77-17.08-60.02Z" style="fill:#6d96ce; fill-rule:evenodd;"/><path d="M592.96,1069.65c2.21,14.28,3.88,30.17,5,47.7,1.51-.34,2.99-.67,4.45-1-1.94-10.85-5.1-26.42-9.45-46.7Z" style="fill:#466fb5; fill-rule:evenodd;"/><path d="M461.9,1069.65c-2.21,14.28-3.88,30.17-5,47.7-1.51-.34-2.99-.67-4.45-1,1.94-10.85,5.1-26.42,9.46-46.7Z" style="fill:#466fb5; fill-rule:evenodd;"/><path d="M592.06,1246.07c3.36,8.55-2.82,22.35-7.01,25.1-76.32-7.66-123.97-18.39-153.37-33.25-8.76-4.85-24.06-6.94-33.38-13.12-22.55-23.79-5.67-54.99,16.7-53.45,15.63,3.02,23,7.48,30.4,16.29,26.75,6.11,81.2,27.71,146.66,58.43Z" style="fill:#1d417f; fill-rule:evenodd;"/><path d="M673.25,1258.83c3.07,20.84-22.93,24.13-76.42,15.05,22.49-7.42,25.46-13.97,8.71-24.42,46.54-8.43,67.79-8.36,67.71,9.37h0Zm-291.64,0c-3.07,20.84,22.93,24.13,76.42,15.05-22.49-7.42-25.46-13.97-8.71-24.42-46.54-8.43-67.79-8.36-67.71,9.37Z" style="fill:#0e2952; fill-rule:evenodd;"/><path d="M586.04,1270.36c4.49,.86,8.08,2.03,10.79,3.52,22.49-7.42,25.46-13.97,8.71-24.42-3.79,.18-8.09-.31-12.9-1.48,1.75,7.86-2.83,18.67-6.6,22.38h0Zm-117.22,0c-4.49,.86-8.08,2.03-10.79,3.52-22.49-7.42-25.46-13.97-8.71-24.42,3.79,.18,8.09-.31,12.91-1.48-1.76,7.86,2.82,18.67,6.59,22.38Z" style="fill:#f9af79; fill-rule:evenodd;"/><path d="M626.78,1157.96c1.84-15.04,1.38-30.6-1.38-46.68-6.93,1.5-14.59,3.19-22.99,5.07-1.46,.33-2.95,.66-4.45,1,1.54,27.6,1.98,51.3,1.31,71.1,13.67-11.02,22.84-21.18,27.52-30.49Z" style="fill:#f9af79; fill-rule:evenodd;"/><path d="M428.07,1157.96c-1.84-15.04-1.38-30.6,1.38-46.68,6.93,1.5,14.6,3.19,22.99,5.07,1.46,.33,2.95,.66,4.45,1-1.54,27.6-1.98,51.3-1.31,71.1-13.67-11.02-22.84-21.18-27.52-30.49Z" style="fill:#f9af79; fill-rule:evenodd;"/><path d="M605.91,1153.99c-.13-10.77-.52-23.49-1.17-38.15-.77,.17-1.54,.34-2.32,.51-1.46,.33-2.95,.66-4.45,1,.95,17.01,1.48,32.55,1.59,46.6,1.25-1.45,2.7-3.15,4.36-5.09,4.74-2.01,9.47-3,14.21-2.98-5.45-1.69-9.52-2.32-12.21-1.89h0Zm-156.96,0c.13-10.77,.52-23.49,1.17-38.15,.77,.17,1.54,.34,2.32,.51,1.46,.33,2.95,.66,4.45,1-.95,17.01-1.48,32.55-1.59,46.6-1.25-1.45-2.7-3.15-4.36-5.09-4.74-2.01-9.47-3-14.21-2.98,5.45-1.69,9.52-2.32,12.21-1.89Z" style="fill:#ed7d57; fill-rule:evenodd;"/><path d="M457.72,1125.12h139.41c1.33,0,2.43,1.09,2.43,2.43v62.7c-16.64,4.82-39.99,13.47-67.82,25.11h-8.64c-27.83-11.64-51.17-20.29-67.82-25.11v-62.7c0-1.34,1.09-2.43,2.43-2.43Z" style="fill:#c4d1eb; fill-rule:evenodd;"/><path d="M461.78,1192.21c16.01,5.04,36.94,12.94,61.33,23.14l.21,.09,1.68-.09h4.86l1.68,.09c24.48-10.24,45.49-18.17,61.54-23.23v-51.79c-9.16,11.61-27.39,21.21-50.73,26.95,.12,.76,.18,1.54,.18,2.34,0,8.34-6.76,15.1-15.1,15.1-7.48,0-13.67-5.42-14.89-12.55-6.71,.61-13.65,.92-20.75,.92-10.42,0-20.48-.69-30.01-1.96v20.99Z" style="fill:#9db2d9; fill-rule:evenodd;"/><path d="M512.86,942.91c9.4,13.08,24.32,24.57,44.76,34.48-5.11,15.31-12.82,30.26-29.69,33.04-16.16-2.59-25.09-14.27-28.74-30.86,8.68-9.66,13.24-21.89,13.67-36.66Z" style="fill:#f9af79; fill-rule:evenodd;"/><path d="M574.12,951.22c0-25.8-21.1-46.9-46.9-46.9s-46.9,21.1-46.9,46.9v73.81c7.68-2.67,16.3-4.89,25.84-6.64,1.06-1.9,2.35-3.52,3.88-4.87,1.14,6.79,6.94,13.01,17.39,18.68,10.45-5.67,16.25-11.89,17.39-18.68,1.53,1.35,2.82,2.97,3.88,4.87,9.37,1.72,17.85,3.88,25.42,6.49v-73.66h0Zm-61.26-8.31c9.4,13.08,24.32,24.57,44.76,34.48-5.11,15.31-12.82,30.26-29.69,33.04-16.16-2.59-25.09-14.27-28.74-30.86,8.68-9.66,13.24-21.89,13.67-36.66Z" style="fill:#20386f; fill-rule:evenodd;"/><path d="M544.82,1013.52c-1.17-1.84-2-5.1-2.48-9.8-3.9,3.36-8.61,5.75-14.41,6.71-6.78-1.09-12.28-3.77-16.66-7.75-.14,4.3-.56,7.91-1.23,10.83,1.14,6.79,6.94,13.01,17.39,18.68,10.45-5.67,16.25-11.89,17.39-18.68Z" style="fill:#f9af79; fill-rule:evenodd;"/><path d="M542.81,1007.27c-.18-1.07-.34-2.26-.47-3.55-3.9,3.36-8.61,5.75-14.41,6.71-6.78-1.09-12.28-3.77-16.66-7.75-.05,1.53-.13,2.96-.25,4.32,4.03,2.74,9.72,5.08,17.06,7.01,4.64-1.25,9.54-2.98,14.74-6.74Z" style="fill:#ed7d57; fill-rule:evenodd;"/><path d="M480.32,991.4h21.18v62.8h-26.35c4.93-20.29,6.86-41.18,5.16-62.8Z" style="fill:#20386f; fill-rule:evenodd;"/><path d="M552.94,991.4h21.18c-1.45,20.85,1.32,41.81,4.81,62.8h-25.99v-62.8Z" style="fill:#20386f; fill-rule:evenodd;"/><path d="M527.43,1159.93c5.4,0,9.77,4.37,9.77,9.77s-4.37,9.77-9.77,9.77-9.77-4.38-9.77-9.77,4.37-9.77,9.77-9.77Z" style="fill:#9db2d9; fill-rule:evenodd;"/><path d="M462.81,1246.07c-3.36,8.55,2.81,22.35,7,25.1,76.32-7.66,123.97-18.39,153.37-33.25,8.76-4.85,24.06-6.94,33.38-13.12,22.56-23.79,5.67-54.99-16.69-53.45-15.63,3.02-23,7.48-30.41,16.29-26.75,6.11-81.2,27.71-146.65,58.43Z" style="fill:#1d417f; fill-rule:evenodd;"/><path d="M522.34,1215.03c-41.71,16.25-74.57,22.77-98.57,19.56,2.93,1.01,5.65,2.08,7.92,3.34,7.68,3.88,16.6,7.47,26.96,10.81,1.16-.21,2.36-.46,3.59-.76,.14-.66,.33-1.29,.58-1.91,23.17-10.87,44.96-20.6,64.63-28.91-1.38-.58-2.76-1.16-4.11-1.73-.07-.03-.13-.06-.21-.09-.25-.11-.51-.22-.77-.32Z" style="fill:#0e2952; fill-rule:evenodd;"/><path d="M592.92,1249.78c-17.6,5.42-39.15,10.13-65.49,14.21,17.11,2.65,36.24,5.04,57.62,7.18,.32-.21,.65-.49,.99-.81,3.5-3.43,7.67-12.95,6.89-20.58Z" style="fill:#0e2952; fill-rule:evenodd;"/><path d="M527.43,1217.17c1.38-.58,2.75-1.16,4.11-1.73l-1.68-.09h-4.86l-1.68,.09c1.36,.57,2.73,1.14,4.11,1.73Z" style="fill:#0e2952; fill-rule:evenodd;"/><path d="M1353.49,610.68c1.83,2.09,2.06,4.43,1.15,6.92,0,.01,0,.02-.01,.03-1.67,4.62-7.2,9.77-13.6,14.92-.82,.66-1.55,1.26-2.18,1.82-.16,.14-.34,.29-.49,.44-.13,.12-.25,.23-.38,.34-5.98,5.51-3.73,6.78-14.47,17.95-12.24,12.74-20.68,12.97-23.08,11.81-2.02-.99,2.1-7.74,6.67-15.34,.23-.37,.43-.74,.66-1.1,.61-1.01,1.21-2.04,1.81-3.06,5.36-9.14,3.99-13.44,2.71-27.03-1.03-11.06-17.2-61.77-17.2-61.77l23.48-4.04s7.06,40.38,14.85,46.6c4.17,3.32,8.83,3.36,12.83,5.82,.28,.17,.57,.34,.83,.53,2.29,1.51,4.6,3.06,6.43,5.16Z" style="fill:#f9af79; fill-rule:evenodd;"/><path d="M1353.49,610.68c1.83,2.09,2.06,4.43,1.15,6.92,0,.01,0,.02-.01,.03-2.05,4.62-7.43,9.74-13.63,14.88-.81,.68-1.52,1.28-2.16,1.87-.16,.14-.34,.29-.49,.44-.13,.12-.25,.23-.38,.34-5.98,5.51-3.73,6.78-14.47,17.95-12.24,12.74-20.68,12.97-23.08,11.81-2.02-.99,2.1-7.74,6.67-15.34,2.38-.87,13.45-5.38,21.83-16.09,7.38-9.41,12.29-21.5,17.31-28.5,.28,.17,.57,.34,.83,.53,2.29,1.51,4.6,3.06,6.43,5.16Z" style="fill:#172b57; fill-rule:evenodd;"/><path d="M1164.25,596.02c-1.44,7.24-11.77,6.04-23.31,3.22-11.53-2.82-8.79,.53-25.21-1.29-16.42-1.81-21.39-7.94-21.89-10.38-.45-2.17,7.67-2.93,16.37-3.93,1.09-.12,2.18-.25,3.29-.39,9.81-1.23,17.01-7.57,25.94-12.78,8.45-4.92,21.06-25.02,21.06-25.02l22.52,1.79s-11.81,17.94-16.38,25.74c-2.69,4.59-2.54,10.66-2.21,15.34,.17,2.55,.33,5.15-.18,7.71Z" style="fill:#f9af79; fill-rule:evenodd;"/><path d="M1140.94,599.24c-11.53-2.82-8.79,.53-25.21-1.29-16.42-1.81-21.39-7.94-21.89-10.38-.45-2.17,7.67-2.93,16.37-3.93l.07,.17s9.86,6.98,23.52,7.31c11.14,.26,22.94-2.93,30.64-2.8,.17,2.55,.33,5.15-.18,7.71-1.44,7.24-11.77,6.04-23.31,3.22Z" style="fill:#172b57; fill-rule:evenodd;"/><path d="M1214.36,265.3s-5.37-13.14-11.27-13.68c-5.9-.53-24.67-3.49-26.02-.81-1.33,2.68,0,12.35,4.03,15.83,4.02,3.49,28.97,9.12,28.97,9.12l4.29-10.46Z" style="fill:#f9af79; fill-rule:evenodd;"/><path d="M1250.55,452.04l48.53,130.59s7.45,.73,14.6-1.33c6.57-1.9,14.12-6.87,14.12-6.87,0,0-12.04-125.4-34.11-151.48-22.07-26.08-43.13,29.09-43.13,29.09Z" style="fill:#172b57; fill-rule:evenodd;"/><path d="M1442.48,399.21s-139.43-47.16-170.53-37.12c-31.1,10.03-124.47,195.8-124.47,195.8,0,0,2.11,2.8,7.86,4.96,5.34,2.01,18.3,1.88,18.3,1.88,0,0,84.26-72.23,94.29-93.3,10.04-21.06,14.04-41.12,24.07-39.12,10.04,2.01,129.41,49.16,156.5,21.07,27.09-28.09,19.99-64.58,19.99-64.58l-26.02,10.41Z" style="fill:#223f81; fill-rule:evenodd;"/><path d="M1357.27,179.86c-2.22-4.6-4.71-12.77-5.93-27.32,.19,1.44,2.7,19.81,9.76,30.2,29,19.04,84.58,82.61,83.48,94.66,0,0,19.58-33.21,19.92-33.41,0,0,36.11-45.92-6.69-72.23-21.75-13.37-21.64-30.54-20.73-45.43,.92-14.91-5.93-79.07-49.51-62.29,0,0-7-3.11-10.13-2.64,0,0,2.55,.49,3.86,1.83-5.05-.3-12.28,.08-18.3,3.5-15.99,9.08-30.28,90.52-5.73,113.12Z" style="fill:#172b57; fill-rule:evenodd;"/><path d="M1362.81,183.69c-.15,.06,14,7.41,24.64,4.49,10.01-2.72,16.54-15.7,16.41-15.72-4.24-.84-5.46-6.67-5.37-31.7l-1.91,.37-32.22,6.39s.73,10.13,.75,19.69c.03,8.02-.46,15.63-2.29,16.49Z" style="fill:#f9af79; fill-rule:evenodd;"/><path d="M1364.36,147.52s.73,10.13,.75,19.69c18.04-.51,27.57-16.96,31.47-26.08l-32.22,6.39Z" style="fill:#ec9355; fill-rule:evenodd;"/><path d="M1399.91,137.62s9.45-14.93,11.72-27.69c1.61-9.11-3.03-42.89-36.98-38.03,0,0-9.86,.97-19.13,7.23-7.37,4.97-18,15.72-6.12,45.2l3.1,9.96,47.41,3.33Z" style="fill:#172b57; fill-rule:evenodd;"/><path d="M1358.33,156.55s42.67,.71,42.69-25.86c.03-26.57,5.56-44.38-21.67-45.95-27.24-1.57-32.54,8.56-34.71,17.43-2.17,8.86,2.6,53.52,13.69,54.38Z" style="fill:#f9af79; fill-rule:evenodd;"/><path d="M1359.92,84.09s11.68,31.18,29.6,35.79c17.93,4.6,25.7-.2,25.7-.2,0,0-13.74-10.92-16.6-29.99,0,0-29.89-20.44-38.7-5.6Z" style="fill:#172b57; fill-rule:evenodd;"/><path d="M1362.81,86.62s-8.72,6.96-10.85,13.72c-2.14,6.77-3.08,20.7-7.15,20.22,0,0-8.8-21.19,1.09-33.18,10.49-12.71,16.91-.77,16.91-.77Z" style="fill:#172b57; fill-rule:evenodd;"/><path d="M1475.2,399.94c-2.31,6.39-9.36,8.03-18.81,6.93-18.04-2.11-44.82-14.22-64.12-22.58-29.43-12.77-42.81-.78-52.17-8.9-9.37-8.12,10.7-26.16-6.7-109.99-5.89-28.42,31.47-89.37,31.47-89.37,0,0,3.23,17.64,38.99-3.58,1.26-.75,15.34,20.09,28.9,45.78,14.94,28.34,29.25,62.58,25.04,80.22-8.02,33.63,24.08,82.92,17.39,101.48Z" style="fill:#6d96ce; fill-rule:evenodd;"/><path d="M1364.87,176.03l-22.03,90.42s-2.74,4.88-7.05,11.84c-10.09,16.32-28.77,44.04-40.73,46.86-5.9,1.39-18.45-3.52-32.33-10.53-26.26-13.27-57.29-34.05-57.29-34.05-2-12.03,8.47-21.85,8.47-21.85,0,0,62.88,23.63,69.12,24.08,13.62,.98,27.46-64.71,40.18-86.61,9.2-15.82,41.67-20.14,41.67-20.14Z" style="fill:#6d96ce; fill-rule:evenodd;"/><path d="M1475.2,399.94c-2.31,6.39-9.36,8.03-18.81,6.93-12.48-5.44-66.4-26.33-65.79-40.48,.9-20.95,10.36-21.63,3.67-47.48-5.37-20.77,44.45-59.38,52.4-67.77,14.94,28.35,15.35,29.69,11.14,47.33-8.02,33.63,24.08,82.92,17.39,101.48Z" style="fill:#466fb5; fill-rule:evenodd;"/><path d="M1335.79,278.29c-10.09,16.32-28.77,44.04-40.73,46.86-5.9,1.39-18.45-3.52-32.33-10.53,10.13,2.61,19.97,2.53,29.54,1.61,10.38-1,13.38-13.71,29.77-32.77,10.62-12.36,13.23-9.24,13.75-5.16Z" style="fill:#466fb5; fill-rule:evenodd;"/><path d="M1385.74,318.41s-9.03-7.02-17.56-5.36c-8.52,1.68-12.7,7.54-12.36,10.21,.32,2.67,4.84,10.2,11.36,10.87,6.52,.66,25.08-4.02,25.08-4.02l-6.52-11.7Z" style="fill:#f9af79; fill-rule:evenodd;"/><path d="M1403.86,172.46s34.78,2.14,46.8,18.93c16.96,23.64,46.38,120.11,38.35,142.18l-105.77-.45s-2.57-11.98,.99-17.77c3.57-5.8,61.52-15.16,64.21-17.84,2.67-2.68-33.44-52.17-33.44-60.2s-11.14-64.85-11.14-64.85Z" style="fill:#6d96ce; fill-rule:evenodd;"/><polygon points="1376.66 357.91 1248.6 357.91 1225.51 277.41 1353.38 277.41 1376.66 357.91" style="fill:#e0e8f5; fill-rule:evenodd;"/><rect x="1249.04" y="354.78" width="167.42" height="9.47" style="fill:#859ac6;"/><path d="M1286.94,316.35c-1.17-4.11,1.21-7.44,5.32-7.44s8.39,3.33,9.57,7.44c1.18,4.11-1.18,7.45-5.3,7.45s-8.39-3.33-9.58-7.45Z" style="fill:#859ac6; fill-rule:evenodd;"/><path d="M1538.5,1163.27c-25.24,4.79-56.9,14.63-94.98,29.5,2.58,.68,5.01,1.51,7.29,2.5,52.58-19.09,87.42-28.68,104.53-28.77-3.04-1.06-6.07-1.78-9.1-2.15,.25-27.99,1.7-52.77,4.34-74.35-6.48,33.45-10.5,57.87-12.08,73.27Z" style="fill:#466fb5; fill-rule:evenodd;"/><path d="M1443.52,1192.78c-11.7-3.5-22.08-2.72-31.13,2.33l7.6,26.39c.86,2.99-.85,5.33-3.8,5.21l7.04,.29c3.17-1.77,6.44-2.89,9.81-3.36,6.41,4.08,14.85,3.2,25.29-2.66,.76-10.5-1.9-19.02-7.96-25.55,.14-.05,.29-.1,.43-.16-2.28-.98-4.71-1.81-7.28-2.5Z" style="fill:#f9af79; fill-rule:evenodd;"/><path d="M1530.63,1239.93c1.62-9.49,3.21-19.68,4.76-30.57-19.82,5.19-45.61,10.11-77.37,14.76,.13-1.07,.24-2.11,.32-3.14-10.44,5.85-18.88,6.74-25.29,2.66-3.37,.47-6.64,1.59-9.81,3.36l71.14,2.97c-.85,4.82-2.96,8.48-6.19,10.71,14.96,.64,29.12,.39,42.45-.75Z" style="fill:#466fb5; fill-rule:evenodd;"/><path d="M1412.39,1195.1c6.78-3.78,14.31-5.17,22.58-4.15,13.6-29.39,5.19-71.17,24.35-134.94-13.8,6.93-29.89,40.47-48.26,100.62-1.99,1.7-4.69,3.62-8.09,5.76l9.42,32.71Z" style="fill:#6d96ce; fill-rule:evenodd;"/><path d="M1459.32,1056.01c-19.16,63.77-10.75,105.55-24.35,134.94,2.77,.34,5.61,.95,8.55,1.83,38.08-14.88,69.74-24.71,94.98-29.5,1.58-15.4,5.61-39.81,12.08-73.27-2.65,21.58-4.09,46.36-4.34,74.35,3.03,.37,6.06,1.09,9.1,2.15-17.12,.09-51.96,9.68-104.53,28.77l-.43,.16c6.07,6.53,8.72,15.05,7.96,25.55-.08,1.03-.18,2.07-.32,3.14,31.77-4.65,57.55-9.57,77.37-14.76,16.32-4.27,28.59-8.73,36.81-13.37,21.47-35.73,24.81-81.86,10.04-138.4-8-10.19-25.82-13.99-53.49-11.4-28.86,24.36-42.06,25.53-39.61,3.51-12.59,.35-22.53,2.45-29.81,6.31Z" style="fill:#6d96ce; fill-rule:evenodd;"/><path d="M1458.44,1056.49c-17.11,35.47-20.07,107.51-27.94,115.3-2.99,3.58-10,7.97-21.04,13.16l.2,.71,2.73,9.45c6.78-3.78,14.31-5.17,22.58-4.15,13.6-29.39,5.19-71.17,24.35-134.94-.29,.14-.58,.31-.88,.47Z" style="fill:#466fb5; fill-rule:evenodd;"/><path d="M1306.72,1235.98l171.76,7.16c8.84,.37,14.36-4.56,15.89-13.17l-193.37-8.06-.53-.02c-1.87-.08-4.6,.76-3.73,5.96,.79,4.28,5.29,7.94,9.98,8.14Z" style="fill:#859ac6; fill-rule:evenodd;"/><path d="M1278.58,1129.62l110.99,4.63c2.95,.12,6.06,2.67,6.92,5.66l23.51,81.59c.86,2.99-.85,5.33-3.8,5.21l-110.99-4.63c-2.95-.12-6.06-2.67-6.92-5.66l-23.51-81.59c-.86-2.99,.85-5.33,3.8-5.21Z" style="fill:#c4d1eb; fill-rule:evenodd;"/><path d="M1288.49,1162.78l14.46,50.2c.72,2.48,3.36,4.78,5.97,4.89l101.27,4.22c2.56,.1,3.76-1.93,3.09-4.27l-9.65-33.51c-8.34,1.05-17.03,1.6-25.97,1.6-6.71,0-13.29-.31-19.68-.91-1.27,3.41-4.49,5.74-8.64,5.74-5.29,0-10.3-3.78-12.08-8.78-19.38-3.94-36.2-10.63-48.76-19.17Z" style="fill:#859ac6; fill-rule:evenodd;"/><path d="M1255.25,1250.24c8.47-5.51,15.03-10.63,19.65-15.36,7.19,3.24,14.05,6.18,20.57,8.8,15.76-2.03,34.2-3.99,55.35-5.87l-44.1-1.84c-4.7-.19-9.19-3.85-9.98-8.13-.87-5.2,1.87-6.03,3.73-5.96l.53,.02,4.21,.17c-2.95-.12-6.06-2.67-6.92-5.66l-11.62-40.33c-7.08-.41-13.36-.54-18.84-.39-31.15,11.29-57.98,57.57-115.88,96.1,.95,10.12,5.93,16.56,13.66,22.97,30.39-13,60.94-27.48,78.88-37.94,3.87-2.26,7.45-4.47,10.75-6.6Z" style="fill:#223f81; fill-rule:evenodd;"/><path d="M1090.03,1276.1c23.04,20.32,40.12,32.59,50.21,37.26,10.89,5.03,13.98,1.2,16.64-11.48-30.36-9.65-13.85-16.32-25.23-23.93-12.19-.75-26.07-6.44-41.61-17.08-9.75-1.01-10.87,4.98,0,15.24Z" style="fill:#223f81; fill-rule:evenodd;"/><path d="M1096.07,1249.62c.98,7.09,1.63,10.51,2.53,16.71h0l.47,.28,.23,.13,.24,.14,.45,.26h.02s.47,.28,.47,.28l.2,.11,.27,.15,.43,.24,.04,.02,.47,.26,.18,.1,1.21,.65,.16,.08,.31,.16,.38,.2,.09,.05,.46,.24,.13,.07,.33,.17,.35,.17,.11,.06,.46,.23,.11,.05,.35,.17,.32,.16,.13,.06,.45,.22,.08,.04,.37,.17,.3,.14,.15,.08,.45,.21,.06,.02,.39,.18,.27,.12,.62,.28h.04s.66,.3,.66,.3l.19,.08,.44,.19h.02s.43,.18,.43,.18l.22,.09,.21,.09,.43,.17h0s.44,.18,.44,.18l.2,.08,.24,.09,.41,.16h.02s.43,.17,.43,.17l.18,.07,.25,.09,.39,.14,.05,.02,.43,.16,.16,.06,.28,.09,.36,.13,.07,.02,.43,.14,.14,.04,.29,.1,.43,.14,.42,.13,.12,.03,.31,.1,.31,.09,.11,.03,.42,.13,.09,.03,.33,.09,.29,.09,.13,.04,.42,.12,.07,.02,.35,.09,.27,.07,.15,.04,.42,.1,.83,.2,.41,.09h.03s.38,.09,.38,.09l.22,.05,.19,.04,.4,.09h0l.4,.08,.39,.08h.01l.39,.08h.01l.4,.07,.18,.03,.23,.04c-.08-.75-.23-1.57-.49-2.48-8.76-8.51-16.51-17.69-21.36-35.9-6.74-7.13-10.27-4.23-8.71,10.63h0Zm5.62,36.51c1.79,9.76,3.96,18.84,6.09,23.52,4.53,9.95,12.97,4.83,22.21-2.1-7.53-4.86-17.03-11.98-28.3-21.41Z" style="fill:#0e2952; fill-rule:evenodd;"/><path d="M1115.02,1274.25l.29,.1,.05,.02,.43,.16,.16,.06,.27,.09,.36,.13,.07,.02,.43,.14,.14,.04,.29,.1,.43,.14,.43,.13,.11,.03,.31,.1,.31,.09,.11,.03,.42,.12,.09,.03,.33,.09,.29,.09,.13,.04,.42,.11,.07,.02,.35,.09,.27,.07,.15,.04,.42,.1,.83,.2,.41,.09h.03s.38,.09,.38,.09l.22,.05,.19,.04,.41,.09h0l.4,.08,.4,.08h0l.39,.08h.01l.4,.07,.18,.03,.23,.04c-.08-.75-.23-1.57-.49-2.48-8.75-8.51-16.51-17.7-21.36-35.9-1.76-1.86-3.3-3.03-4.59-3.5,1.02,15,5.97,27.92,14.83,38.76Z" style="fill:#223f81; fill-rule:evenodd;"/><path d="M1153.92,1300.9c2.74-3.71,5.77-6.52,9.08-8.39-5.29-4.85-8.96-9.96-10.46-16.85-6.01,3.17-11.85,5.01-17.51,5.51,4.06,6.11-3.52,11.95,18.89,19.73Z" style="fill:#f9af79; fill-rule:evenodd;"/><path d="M1475.47,1304.95c37.06-2.34,52.15-30.06,51.44-64.72-12.24,.88-25.15,1.04-38.73,.46-2.55,1.76-5.8,2.62-9.69,2.46l-127.66-5.32c-21.14,1.88-39.59,3.84-55.35,5.87-9.7,1.25-18.38,2.54-26.05,3.84-5.46,1.47-13.65,4.5-24.56,9.09l-.37,.22c-17.94,10.46-48.49,24.94-78.88,37.94-.91-.76-1.79-1.51-2.62-2.27-3.3,1.88-6.33,4.68-9.08,8.39,.93,.32,1.91,.65,2.95,.98-.05,.22-.09,.43-.13,.65,86.53,7.85,115.04-5.3,137.98-12.23,75.12,13.41,111.29,18.34,180.75,14.65Z" style="fill:#223f81; fill-rule:evenodd;"/><path d="M1518.13,1002.78c-2.84-11.7-3.37-25.01-7.22-30.16-31.22-10.98-34.7,6.3-48.47,9.59-.15,4.27,1.16,9.06,3.92,14.37-1.05,18.91,3.4,30.59,13.33,35.04,2.51,2.65,6.64,4.2,12.39,4.66-.55,2.42-2.22,11.18-2.94,13.42h0c-2.45,22.02,10.76,20.84,39.61-3.51h.12c-.17-7.76-.83-13.7-.7-19.54,.08-3.97,.24-7.5,.47-10.59,10.34-10.77,12.38-19.49,6.13-26.18-8.18-3.87-12.92,1.63-14.23,16.5-2.44-.95-.75-.14-2.42-3.6Z" style="fill:#f9af79; fill-rule:evenodd;"/><path d="M1462.44,982.22c13.77-3.29,17.25-20.57,48.47-9.59,3.85,5.14,4.39,18.46,7.22,30.16,1.67,3.47-.03,2.66,2.42,3.6,1.3-14.87,6.05-20.37,14.23-16.5,6.25,6.68,4.21,15.41-6.13,26.18-.23,3.09-.39,6.61-.47,10.59,29.08-26.8,23.2-63.18,5.49-75.15,4.32,.45,8.71,2.12,13.18,5.01-6.45-8.64-15.14-11.65-26.05-9.01,1.18-6.11,.95-10.62-.68-13.55-.49,4.13-1.32,7.33-2.47,9.58-7.01-6.41-20.46-7.89-34.24-2.71-17.83,6.71-36.26,23.1-43.27,18.21,1.06,16.83,10.62,27.04,22.31,23.18Z" style="fill:#20386f; fill-rule:evenodd;"/><path d="M1510.46,1030.99c-5.18,3.34-11.31,5.11-18.38,5.3-.31,1.33-.96,4.63-1.6,7.69,8.93-2.4,15.59-6.72,19.98-12.99Z" style="fill:#ed7d57; fill-rule:evenodd;"/><path d="M1297.01,1223.73c-9.74-3.43-18.13-7.56-25.18-12.4-3.27,3.18-6.53,6.29-9.79,9.31-31.81,29.66-62.55,52.33-92.05,66.31-2.92,1.39-5.83,2.68-8.73,3.89,.56,.56,1.14,1.12,1.74,1.66l2.62,2.27c6-2.56,12-5.19,17.91-7.83,24.04-10.73,46.57-21.72,60.96-30.11,.12-.08,.25-.15,.37-.22,3.73-2.18,7.19-4.31,10.38-6.38,2.42-1.58,4.68-3.12,6.79-4.63,5.27-3.78,9.55-7.35,12.86-10.73,7.19,3.24,14.05,6.18,20.57,8.8,8.88-1.15,18.62-2.27,29.22-3.37,8.2-.85,16.91-1.68,26.13-2.5l-26.13-1.09-17.97-.75c-4.7-.2-9.19-3.86-9.98-8.14-.32-1.89-.16-3.21,.27-4.11Z" style="fill:#0e2952; fill-rule:evenodd;"/><path d="M1470.16,1286.95c-21.59,6.07-51.62,6.82-90.08,2.25-6.57-.74-12.92-1.49-19.05-2.25-13.14-1.62-25.26-3.28-36.34-4.96-11.03-1.67-21.05-3.38-30.05-5.11-6.56,3.86-14.11,7.22-22.66,10.07-3.17,1.06-6.49,2.04-9.94,2.96-27.01,7.19-62.44,10.1-106.3,8.72-.62,.72-1.23,1.47-1.81,2.28,.93,.32,1.91,.65,2.95,.98l-.14,.65c52.64,4.78,83.8,1.78,105.3-2.86,13.85-2.99,23.69-6.66,32.68-9.37,10.71,1.91,20.63,3.65,29.97,5.22,56.14,9.42,91.22,12.59,150.78,9.43,16.59-1.05,28.77-7.18,37.12-16.75,10.3-11.8,14.72-28.83,14.33-47.98-1.66,.13-3.34,.23-5.03,.32-3.4,.19-6.84,.32-10.33,.4-1.22,23.26-15.01,38.61-41.39,46.01Z" style="fill:#0e2952; fill-rule:evenodd;"/><path d="M1346.34,1172.38c4.14,0,8.05,3.36,8.72,7.5,.68,4.15-2.13,7.5-6.27,7.5s-8.05-3.36-8.72-7.5c-.68-4.14,2.13-7.5,6.28-7.5Z" style="fill:#859ac6; fill-rule:evenodd;"/></svg>